<svg xmlns="http://www.w3.org/2000/svg" xmlns:xlink="http://www.w3.org/1999/xlink" width="404.401" height="328.718" viewBox="0 0 404.401 328.718">
  <defs>
    <clipPath id="clip-path">
      <path id="パス_355" data-name="パス 355" d="M3835.158,4246.262c0,94.068-90.528,87.509-202.2,87.509s-202.2,6.559-202.2-87.509,90.528-170.327,202.2-170.327S3835.158,4152.192,3835.158,4246.262Z" transform="translate(-3430.757 -4075.935)" fill="none"/>
    </clipPath>
    <linearGradient id="linear-gradient" x1="0.502" y1="-1006.689" x2="0.502" y2="125.605" gradientUnits="objectBoundingBox">
      <stop offset="0" stop-color="#acddf7"/>
      <stop offset="1" stop-color="#fff"/>
    </linearGradient>
    <linearGradient id="linear-gradient-2" x1="0.5" y1="0" x2="0.5" y2="1" xlink:href="#linear-gradient"/>
    <linearGradient id="linear-gradient-3" x1="0.5" y1="-3.262" x2="0.5" y2="1.538" xlink:href="#linear-gradient"/>
    <linearGradient id="linear-gradient-4" x1="0.5" y1="-3978.964" x2="0.5" y2="3978.979" xlink:href="#linear-gradient"/>
  </defs>
  <g id="about_obj" transform="translate(-769.875 -339)">
    <g id="about_obj01" transform="translate(-2672.772 -3736.936)">
      <g id="グループ_247" data-name="グループ 247" transform="translate(3442.648 4075.935)">
        <g id="グループ_246" data-name="グループ 246" clip-path="url(#clip-path)">
          <g id="グループ_245" data-name="グループ 245" transform="translate(-3.715 -37.416)">
            <path id="パス_297" data-name="パス 297" d="M3439.488,4161.351c26.026-83.9,104.248-144.832,196.7-144.832,89.634,0,165.878,57.278,194.163,137.224h0c-28.282-79.951-104.529-137.234-194.166-137.234-92.459,0-170.684,60.939-196.705,144.843Z" transform="translate(-3430.274 -4016.508)" fill="none"/>
            <path id="パス_298" data-name="パス 298" d="M4078.622,4358.112c0,.071-.009.142-.012.214C4078.613,4358.254,4078.618,4358.184,4078.622,4358.112Z" transform="translate(-3666.993 -4143.032)" fill="url(#linear-gradient)"/>
            <path id="パス_299" data-name="パス 299" d="M3466.949,4258.421h17.769l.2-21.584a7.8,7.8,0,1,1-9.052-12.582,6.652,6.652,0,0,1,.756-.667c-.036.108-.066.221-.1.332.157-.07.317-.138.48-.2a8.064,8.064,0,0,1-1.284-14.191,6.038,6.038,0,0,1,4.088-6.653,6.918,6.918,0,1,1,13.286-2.758,5.647,5.647,0,0,1-.4,3.875,7.624,7.624,0,0,1,4.653,12.416,6.1,6.1,0,0,1,1.269,10.461,7.977,7.977,0,0,1,.5,2.783c0,.216-.016.43-.032.642a7.623,7.623,0,0,1-11.678,9.468h0l.175,18.656h30.005l.2-21.584a7.8,7.8,0,1,1-9.053-12.582,6.657,6.657,0,0,1,.757-.667c-.036.108-.066.221-.1.332.157-.07.317-.138.48-.2a8.064,8.064,0,0,1-1.284-14.191,6.044,6.044,0,0,1,4.088-6.653,6.918,6.918,0,1,1,13.286-2.758,5.643,5.643,0,0,1-.405,3.875,7.624,7.624,0,0,1,4.654,12.416,6.1,6.1,0,0,1,1.269,10.461,7.992,7.992,0,0,1,.5,2.783c0,.216-.015.43-.032.642a7.622,7.622,0,0,1-11.678,9.468h0l.175,18.656h20.212v-95.6h.506l4.575-15.63h52.346l4.576,15.63h.78v95.6h25.192v-97.063h45.825v97.063h23.516v-97.063h4.058v-10.741h21.238v10.741h51.492v97.063h16.84l.2-21.584a7.8,7.8,0,1,1-9.052-12.582,6.718,6.718,0,0,1,.756-.667c-.036.108-.067.221-.1.332.157-.07.316-.138.479-.2a8.065,8.065,0,0,1-1.284-14.191,6.191,6.191,0,0,1-.069-.869,6.1,6.1,0,0,1,4.156-5.784,6.919,6.919,0,1,1,13.286-2.758,5.64,5.64,0,0,1-.405,3.875,7.625,7.625,0,0,1,4.654,12.416,6.1,6.1,0,0,1,1.269,10.461,7.986,7.986,0,0,1,.5,2.783c0,.216-.016.43-.032.642a7.623,7.623,0,0,1-11.678,9.468h0l.175,18.656h19.613v-95.274l16.282-9.4c-28.285-79.946-104.53-137.224-194.163-137.224-92.455,0-170.676,60.934-196.7,144.833h27.459Z" transform="translate(-3430.276 -4016.514)" fill="url(#linear-gradient-2)"/>
            <path id="パス_300" data-name="パス 300" d="M4075.654,4300.675q.63,7.082.781,14.293c.028,1.391.053,2.782.053,4.179q0,4.474-.192,8.9.19-4.42.194-8.891a206.807,206.807,0,0,0-4.185-41.5c.307,1.5.593,3.008.867,4.52Q4074.824,4291.29,4075.654,4300.675Z" transform="translate(-3664.657 -4113.231)" fill="url(#linear-gradient-3)"/>
            <path id="パス_301" data-name="パス 301" d="M3810.511,4400.718H3429.874v.009h405.511v-.009h-24.876Z" transform="translate(-3426.714 -4158.812)" fill="url(#linear-gradient-4)"/>
            <path id="パス_302" data-name="パス 302" d="M3875.321,4240.238V4229.5h-21.238v10.741h-4.058V4337.3h5.881v-21.668h10.022V4337.3h3.841v-21.668h51.58V4337.3h5.464v-97.063Zm-8.562,62.778h-11v-15.069a5.5,5.5,0,0,1,11,0Zm0-32.468h-11v-15.071a5.5,5.5,0,0,1,11,0Zm13.413,32.468h-11v-15.069a5.5,5.5,0,0,1,11,0Zm0-32.468h-11v-15.071a5.5,5.5,0,0,1,11,0Zm13.418,32.468h-11v-15.069a5.5,5.5,0,1,1,11,0Zm0-32.468h-11v-15.071a5.5,5.5,0,1,1,11,0Zm13.42,32.468H3896v-15.069a5.5,5.5,0,0,1,11.006,0Zm0-32.468H3896v-15.071a5.5,5.5,0,0,1,11.006,0Zm13.415,32.468h-11v-15.069a5.5,5.5,0,1,1,11,0Zm0-32.468h-11v-15.071a5.5,5.5,0,1,1,11,0Z" transform="translate(-3582.33 -4095.395)" fill="#fff"/>
            <path id="パス_303" data-name="パス 303" d="M3662.169,4239.681l-4.576-15.63h-52.346l-4.575,15.63h-.506v95.6h5.807v-21.669h50.952v21.669h6.024v-95.6Zm-56.2,14.363h7.707v14.6h-7.707Zm7.707,47.712h-7.707v-14.593h7.707Zm8.645,0h-7.71v-14.593h7.71Zm8.649,0h-7.712v-14.593h7.712Zm8.644,0h-7.709v-14.593h7.709Zm8.647,0h-7.713v-14.593h7.713Zm8.642,0H3649.2v-14.593h7.712Zm.018-15.621h-50.952v-5.314h50.952Zm-42.31-17.5v-14.6h7.71v14.6Zm8.647,0v-14.6h7.712v14.6Zm8.647,0v-14.6h7.709v14.6Zm8.644,0v-14.6h7.713v14.6Zm8.642,0v-14.6h7.712v14.6Zm7.73-15.62h-50.952v-5.313h50.952Z" transform="translate(-3489.787 -4093.378)" fill="#fff"/>
            <rect id="長方形_1143" data-name="長方形 1143" width="50.952" height="21.668" transform="translate(116.186 220.238)" fill="#c1dae7"/>
            <path id="パス_304" data-name="パス 304" d="M3739.893,4246.556v97.063h5.884v-21.668h33.917v21.668h6.025v-97.063Zm39.8,56.894h-33.917v-14.293h33.917Zm-33.917-32.793v-14.289h33.917v14.289Z" transform="translate(-3541.54 -4101.713)" fill="#fff"/>
            <rect id="長方形_1144" data-name="長方形 1144" width="33.916" height="21.668" transform="translate(204.239 220.238)" fill="#c1dae7"/>
            <rect id="長方形_1145" data-name="長方形 1145" width="33.916" height="14.293" transform="translate(204.239 187.444)" fill="#c1dae7"/>
            <rect id="長方形_1146" data-name="長方形 1146" width="7.707" height="14.593" transform="translate(116.186 193.786)" fill="#c1dae7"/>
            <rect id="長方形_1147" data-name="長方形 1147" width="7.711" height="14.593" transform="translate(124.828 193.786)" fill="#c1dae7"/>
            <rect id="長方形_1148" data-name="長方形 1148" width="7.711" height="14.593" transform="translate(133.475 193.786)" fill="#c1dae7"/>
            <rect id="長方形_1149" data-name="長方形 1149" width="7.709" height="14.593" transform="translate(142.122 193.786)" fill="#c1dae7"/>
            <rect id="長方形_1150" data-name="長方形 1150" width="7.712" height="14.593" transform="translate(150.766 193.786)" fill="#c1dae7"/>
            <rect id="長方形_1151" data-name="長方形 1151" width="7.712" height="14.593" transform="translate(159.408 193.786)" fill="#c1dae7"/>
            <rect id="長方形_1152" data-name="長方形 1152" width="50.952" height="5.314" transform="translate(116.186 187.444)" fill="#c1dae7"/>
            <rect id="長方形_1153" data-name="長方形 1153" width="7.707" height="14.596" transform="translate(116.186 160.666)" fill="#c1dae7"/>
            <rect id="長方形_1154" data-name="長方形 1154" width="7.711" height="14.596" transform="translate(124.828 160.666)" fill="#c1dae7"/>
            <rect id="長方形_1155" data-name="長方形 1155" width="7.711" height="14.596" transform="translate(133.475 160.666)" fill="#c1dae7"/>
            <rect id="長方形_1156" data-name="長方形 1156" width="7.709" height="14.596" transform="translate(142.122 160.666)" fill="#c1dae7"/>
            <rect id="長方形_1157" data-name="長方形 1157" width="7.712" height="14.596" transform="translate(150.766 160.666)" fill="#c1dae7"/>
            <rect id="長方形_1158" data-name="長方形 1158" width="7.712" height="14.596" transform="translate(159.408 160.666)" fill="#c1dae7"/>
            <rect id="長方形_1159" data-name="長方形 1159" width="50.952" height="5.313" transform="translate(116.186 154.328)" fill="#c1dae7"/>
            <rect id="長方形_1160" data-name="長方形 1160" width="33.916" height="14.289" transform="translate(204.239 154.655)" fill="#c1dae7"/>
            <path id="パス_305" data-name="パス 305" d="M4078.155,4363.395q.169-2.465.285-4.943-.112,2.48-.288,4.943Z" transform="translate(-3666.823 -4143.157)" fill="#fff"/>
            <path id="パス_306" data-name="パス 306" d="M4078.637,4357.7c0,.088,0,.175-.008.262C4078.632,4357.871,4078.633,4357.784,4078.637,4357.7Z" transform="translate(-3667 -4142.877)" fill="#fff"/>
            <path id="パス_307" data-name="パス 307" d="M4065.6,4251.892h0c-1.515-5.916-3.3-11.723-5.314-17.421h0Q4063.309,4243.017,4065.6,4251.892Z" transform="translate(-3660.206 -4097.237)" fill="#fff"/>
            <path id="パス_308" data-name="パス 308" d="M4062.4,4298.974H4040.31v-14.293h21.313q-.834-9.375-2.482-18.5H4040.31v-14.289h15.713q-2.275-8.874-5.316-17.42l-16.282,9.4v95.274h5.885v-21.668h21.646q.172-2.465.288-4.943c0-.071.009-.142.012-.213,0-.087,0-.175.008-.263q.189-4.428.192-8.9C4062.457,4301.756,4062.432,4300.364,4062.4,4298.974Z" transform="translate(-3650.627 -4097.237)" fill="#fff"/>
            <path id="パス_309" data-name="パス 309" d="M4073.933,4387.972h.018a206.836,206.836,0,0,0,2.641-21.668h0A207.957,207.957,0,0,1,4073.933,4387.972Z" transform="translate(-3665.261 -4146.065)" fill="#c1dae7"/>
            <path id="パス_310" data-name="パス 310" d="M4043.772,4366.3v21.668h18.99a207.826,207.826,0,0,0,2.656-21.668Z" transform="translate(-3654.089 -4146.065)" fill="#c1dae7"/>
            <path id="パス_311" data-name="パス 311" d="M4043.772,4328.51h22.094q-.143-7.212-.781-14.293h-21.313Z" transform="translate(-3654.089 -4126.773)" fill="#c1dae7"/>
            <path id="パス_312" data-name="パス 312" d="M4070.98,4271.908q-1.007-4.928-2.251-9.768h0Q4069.969,4266.98,4070.98,4271.908Z" transform="translate(-3663.333 -4107.485)" fill="#c1dae7"/>
            <path id="パス_313" data-name="パス 313" d="M4043.772,4262.14v14.288H4062.6c-.274-1.512-.559-3.02-.866-4.52q-1.007-4.928-2.252-9.768Z" transform="translate(-3654.089 -4107.485)" fill="#c1dae7"/>
            <rect id="長方形_1161" data-name="長方形 1161" width="51.58" height="21.668" transform="translate(287.44 220.238)" fill="#c1dae7"/>
            <rect id="長方形_1162" data-name="長方形 1162" width="10.022" height="21.668" transform="translate(273.576 220.238)" fill="#c1dae7"/>
            <path id="パス_314" data-name="パス 314" d="M3864.623,4313.593a5.494,5.494,0,0,0-5.5,5.5v15.069h11v-15.069A5.5,5.5,0,0,0,3864.623,4313.593Z" transform="translate(-3585.7 -4126.542)" fill="#c1dae7"/>
            <path id="パス_315" data-name="パス 315" d="M3885.925,4313.593a5.5,5.5,0,0,0-5.5,5.5v15.069h11v-15.069A5.5,5.5,0,0,0,3885.925,4313.593Z" transform="translate(-3593.591 -4126.542)" fill="#c1dae7"/>
            <path id="パス_316" data-name="パス 316" d="M3907.252,4313.593a5.5,5.5,0,0,0-5.5,5.5v15.069h11v-15.069A5.5,5.5,0,0,0,3907.252,4313.593Z" transform="translate(-3601.487 -4126.542)" fill="#c1dae7"/>
            <path id="パス_317" data-name="パス 317" d="M3928.557,4313.593a5.5,5.5,0,0,0-5.505,5.5v15.069h11.006v-15.069A5.5,5.5,0,0,0,3928.557,4313.593Z" transform="translate(-3609.377 -4126.542)" fill="#c1dae7"/>
            <path id="パス_318" data-name="パス 318" d="M3949.872,4313.593a5.5,5.5,0,0,0-5.5,5.5v15.069h11v-15.069A5.5,5.5,0,0,0,3949.872,4313.593Z" transform="translate(-3617.273 -4126.542)" fill="#c1dae7"/>
            <path id="パス_319" data-name="パス 319" d="M3864.623,4262.023a5.5,5.5,0,0,0-5.5,5.5V4282.6h11v-15.072A5.506,5.506,0,0,0,3864.623,4262.023Z" transform="translate(-3585.7 -4107.442)" fill="#c1dae7"/>
            <path id="パス_320" data-name="パス 320" d="M3885.925,4262.023a5.5,5.5,0,0,0-5.5,5.5V4282.6h11v-15.072A5.5,5.5,0,0,0,3885.925,4262.023Z" transform="translate(-3593.591 -4107.442)" fill="#c1dae7"/>
            <path id="パス_321" data-name="パス 321" d="M3907.252,4262.023a5.5,5.5,0,0,0-5.5,5.5V4282.6h11v-15.072A5.5,5.5,0,0,0,3907.252,4262.023Z" transform="translate(-3601.487 -4107.442)" fill="#c1dae7"/>
            <path id="パス_322" data-name="パス 322" d="M3928.557,4262.023a5.5,5.5,0,0,0-5.505,5.5V4282.6h11.006v-15.072A5.5,5.5,0,0,0,3928.557,4262.023Z" transform="translate(-3609.377 -4107.442)" fill="#c1dae7"/>
            <path id="パス_323" data-name="パス 323" d="M3949.872,4262.023a5.5,5.5,0,0,0-5.5,5.5V4282.6h11v-15.072A5.5,5.5,0,0,0,3949.872,4262.023Z" transform="translate(-3617.273 -4107.442)" fill="#c1dae7"/>
            <path id="パス_324" data-name="パス 324" d="M3437.839,4246.556h0q-1.522,4.908-2.8,9.92h0Q3436.317,4251.466,3437.839,4246.556Z" transform="translate(-3428.625 -4101.713)" fill="#fff"/>
            <path id="パス_325" data-name="パス 325" d="M3428.644,4285.008h0q-1.638,9.063-2.462,18.391h0Q3427.011,4294.08,3428.644,4285.008Z" transform="translate(-3425.346 -4115.955)" fill="#fff"/>
            <path id="パス_326" data-name="パス 326" d="M3424.856,4336.685c0-3.926.121-7.824.338-11.7v-.017c-.217,3.874-.338,7.772-.338,11.7q0,7.222.5,14.323h.006Q3424.866,4343.9,3424.856,4336.685Z" transform="translate(-3424.856 -4130.757)" fill="#fff"/>
            <path id="パス_327" data-name="パス 327" d="M3432.531,4256.476v14.29h-4.377q-1.638,9.063-2.462,18.391h6.839v14.293h-7.336v-7.5c-.217,3.872-.338,7.77-.338,11.7q0,7.218.5,14.311h7.956v21.668h4.516v-21.668h19.041v21.668h4.656v-97.063h-27.459q-1.523,4.908-2.8,9.92Zm17.767,0h7.342v14.29H3450.3Zm0,32.681h7.342v14.293H3450.3Zm-8.305-32.681h7.341v14.29h-7.341Zm0,32.681h7.341v14.293h-7.341Zm-8.5-32.681h7.344v14.29H3433.5Zm0,32.681h7.344v14.293H3433.5Z" transform="translate(-3424.856 -4101.713)" fill="#fff"/>
            <path id="パス_328" data-name="パス 328" d="M3425.647,4366.3a206.642,206.642,0,0,0,2.643,21.668h.019a207.956,207.956,0,0,1-2.655-21.668Z" transform="translate(-3425.149 -4146.065)" fill="#c1dae7"/>
            <path id="パス_329" data-name="パス 329" d="M3433.613,4366.3h-7.956a208.022,208.022,0,0,0,2.655,21.668h5.3Z" transform="translate(-3425.152 -4146.065)" fill="#c1dae7"/>
            <rect id="長方形_1163" data-name="長方形 1163" width="19.041" height="21.668" transform="translate(12.977 220.238)" fill="#c1dae7"/>
            <path id="パス_330" data-name="パス 330" d="M3425.891,4314.217h0q-.3,3.371-.5,6.772v.017C3425.52,4318.732,3425.69,4316.471,3425.891,4314.217Z" transform="translate(-3425.055 -4126.773)" fill="#c1dae7"/>
            <path id="パス_331" data-name="パス 331" d="M3432.729,4328.51v-14.293h-6.839c-.2,2.254-.37,4.515-.5,6.789v7.5Z" transform="translate(-3425.055 -4126.773)" fill="#c1dae7"/>
            <rect id="長方形_1164" data-name="長方形 1164" width="7.343" height="14.293" transform="translate(8.639 187.444)" fill="#c1dae7"/>
            <rect id="長方形_1165" data-name="長方形 1165" width="7.342" height="14.293" transform="translate(17.135 187.444)" fill="#c1dae7"/>
            <rect id="長方形_1166" data-name="長方形 1166" width="7.342" height="14.293" transform="translate(25.442 187.444)" fill="#c1dae7"/>
            <path id="パス_332" data-name="パス 332" d="M3433.205,4262.311h0q-1.8,7.05-3.112,14.29h0Q3431.4,4269.366,3433.205,4262.311Z" transform="translate(-3426.794 -4107.548)" fill="#c1dae7"/>
            <path id="パス_333" data-name="パス 333" d="M3434.471,4262.311h-1.264q-1.8,7.05-3.113,14.29h4.377Z" transform="translate(-3426.796 -4107.548)" fill="#c1dae7"/>
            <rect id="長方形_1167" data-name="長方形 1167" width="7.343" height="14.291" transform="translate(8.639 154.762)" fill="#c1dae7"/>
            <rect id="長方形_1168" data-name="長方形 1168" width="7.342" height="14.291" transform="translate(17.135 154.762)" fill="#c1dae7"/>
            <rect id="長方形_1169" data-name="長方形 1169" width="7.342" height="14.291" transform="translate(25.442 154.762)" fill="#c1dae7"/>
            <path id="パス_334" data-name="パス 334" d="M3506.472,4361.961a7.621,7.621,0,0,0,11.678-9.468,8,8,0,0,1-14.505,4,6.664,6.664,0,0,1-8.713-10.043,7.8,7.8,0,1,0,9.052,12.582l-.2,21.584h2.86l-.175-18.656Z" transform="translate(-3449.347 -4138.713)" fill="#cae2ad"/>
            <path id="パス_335" data-name="パス 335" d="M3501.242,4335.13a5.7,5.7,0,0,0,1.375-.177c.11-.027.221-.051.329-.084.126-.04.248-.087.37-.134s.217-.078.321-.125c.076-.035.146-.08.221-.117a5.863,5.863,0,0,0,.725-.438,5.8,5.8,0,0,0,1.735-1.938,5.736,5.736,0,0,0-2.1-7.7,6.39,6.39,0,1,1-6.161-11.055,6.085,6.085,0,0,0,3.95,7.275,6.392,6.392,0,0,0,.919.235c.034.007.068.011.1.016a5.938,5.938,0,0,0,.957.082,6.078,6.078,0,0,0,.811-.059c.095-.012.186-.032.278-.05.169-.03.334-.068.5-.11.106-.03.211-.061.315-.1.149-.049.3-.105.439-.166.1-.041.195-.077.289-.122.177-.085.348-.183.515-.284a6.041,6.041,0,0,1-1.525-9.012,5.729,5.729,0,0,1-.132-11.218,4.04,4.04,0,1,0,6.377,3.294c0-.082-.019-.158-.024-.238a5.789,5.789,0,0,1,.429,1.166,6.917,6.917,0,1,0-13.286,2.758,6.038,6.038,0,0,0-4.088,6.653,8.064,8.064,0,0,0,1.284,14.191c-.163.061-.323.128-.48.2a5.749,5.749,0,0,0,5.562,7.25Z" transform="translate(-3449.435 -4120.476)" fill="#cae2ad"/>
            <path id="パス_336" data-name="パス 336" d="M3516.116,4317.44a3.949,3.949,0,0,0-.247,1.355,4.036,4.036,0,0,0,8.071,0,3.991,3.991,0,0,0-.235-1.308,6.053,6.053,0,0,1-6.178,9.644,6.277,6.277,0,0,1-2.508,11.357,6.386,6.386,0,0,1,.054.741,6.651,6.651,0,0,1-.5,2.521,5.814,5.814,0,0,0,4.017,1.616,5.86,5.86,0,0,0,2.642-11.1,8.024,8.024,0,0,1,5.184,4.883,6.1,6.1,0,0,0-1.269-10.461,7.624,7.624,0,0,0-4.654-12.416A5.75,5.75,0,0,1,3516.116,4317.44Z" transform="translate(-3458.087 -4126.794)" fill="#cae2ad"/>
            <path id="パス_337" data-name="パス 337" d="M3532.818,4354.033c.016-.212.032-.424.032-.641a7.974,7.974,0,0,0-.5-2.783,6.1,6.1,0,0,1-1.766.937A7.7,7.7,0,0,1,3532.818,4354.033Z" transform="translate(-3464.015 -4140.252)" fill="#a6d18c"/>
            <path id="パス_338" data-name="パス 338" d="M3522.87,4311.915c.236.015.469.042.7.079a5.646,5.646,0,0,0,.405-3.876c0,.019,0,.037,0,.056A6.864,6.864,0,0,1,3522.87,4311.915Z" transform="translate(-3461.158 -4124.514)" fill="#a6d18c"/>
            <path id="パス_339" data-name="パス 339" d="M3498.014,4345.394a6.621,6.621,0,0,0-.756.666c.213-.121.434-.233.659-.335C3497.948,4345.613,3497.979,4345.5,3498.014,4345.394Z" transform="translate(-3451.672 -4138.32)" fill="#a6d18c"/>
            <path id="パス_340" data-name="パス 340" d="M3500.84,4341.144a6.622,6.622,0,0,0,3.982-1.33,8,8,0,0,0,14.505-4,7.691,7.691,0,0,0-2.236-2.487,6.093,6.093,0,0,0,1.766-.937,8.029,8.029,0,0,0-5.184-4.884,5.859,5.859,0,1,1-6.66,9.484,6.644,6.644,0,0,0,.5-2.521,6.433,6.433,0,0,0-.053-.741,6.278,6.278,0,0,0,2.508-11.358,6.061,6.061,0,0,0,6.178-9.644,3.994,3.994,0,0,1,.235,1.308,4.036,4.036,0,0,1-8.071,0,3.94,3.94,0,0,1,.247-1.355,5.753,5.753,0,0,0,4.381-3.167c-.23-.036-.463-.064-.7-.079a6.861,6.861,0,0,0,1.106-3.74c0-.02,0-.038,0-.056a5.8,5.8,0,0,0-.429-1.167c.005.081.024.156.024.238a4.046,4.046,0,1,1-6.377-3.294,5.729,5.729,0,0,0,.132,11.219,6.041,6.041,0,0,0,1.525,9.012c-.167.1-.338.2-.515.284-.094.044-.191.081-.289.122-.144.06-.29.117-.439.166-.1.034-.21.065-.316.095-.164.043-.329.08-.5.111-.092.018-.183.037-.278.049a6.078,6.078,0,0,1-.811.059,5.938,5.938,0,0,1-.957-.082l-.1-.015a6.458,6.458,0,0,1-.919-.236,6.085,6.085,0,0,1-3.95-7.275,6.39,6.39,0,1,0,6.161,11.054,5.742,5.742,0,0,1,.37,9.637,5.989,5.989,0,0,1-.725.438c-.074.036-.145.081-.221.116-.1.047-.214.083-.321.125s-.244.094-.37.134c-.108.033-.219.058-.329.084a5.744,5.744,0,0,1-6.937-7.073c-.226.1-.446.213-.66.335a6.661,6.661,0,0,0,4.731,11.374Z" transform="translate(-3450.523 -4122.031)" fill="#a6d18c"/>
            <path id="パス_341" data-name="パス 341" d="M3553.441,4335.13a5.7,5.7,0,0,0,1.374-.177c.11-.027.221-.051.329-.084.126-.04.248-.087.37-.134s.217-.078.321-.125c.076-.035.146-.08.221-.117a5.853,5.853,0,0,0,2.459-2.376,5.737,5.737,0,0,0-2.1-7.7,6.39,6.39,0,1,1-6.161-11.055,6.084,6.084,0,0,0,3.95,7.275,6.4,6.4,0,0,0,.919.235c.034.007.069.011.1.016a5.93,5.93,0,0,0,.956.082,6.078,6.078,0,0,0,.811-.059c.094-.012.186-.032.278-.05.169-.03.335-.068.5-.11.106-.03.211-.061.315-.1.15-.049.3-.105.439-.166.1-.041.194-.077.289-.122.177-.085.347-.183.514-.284a6.039,6.039,0,0,1-1.524-9.012,5.729,5.729,0,0,1-.132-11.218,4.04,4.04,0,1,0,6.377,3.294c0-.082-.019-.158-.024-.238a5.746,5.746,0,0,1,.43,1.166,6.917,6.917,0,1,0-13.286,2.758,6.044,6.044,0,0,0-4.088,6.653,8.064,8.064,0,0,0,1.284,14.191c-.163.061-.323.128-.48.2a5.748,5.748,0,0,0,5.563,7.25Z" transform="translate(-3468.768 -4120.476)" fill="#cae2ad"/>
            <path id="パス_342" data-name="パス 342" d="M3568.315,4317.44a3.949,3.949,0,0,0-.248,1.355,4.036,4.036,0,0,0,8.072,0,3.979,3.979,0,0,0-.236-1.308,6.052,6.052,0,0,1-6.177,9.644,21.654,21.654,0,0,0-2.455,12.1,6.655,6.655,0,0,1-.5,2.521,5.813,5.813,0,0,0,4.017,1.616,5.86,5.86,0,0,0,2.642-11.1,8.025,8.025,0,0,1,5.184,4.883,6.1,6.1,0,0,0-1.269-10.461,7.624,7.624,0,0,0-4.654-12.416A5.75,5.75,0,0,1,3568.315,4317.44Z" transform="translate(-3477.42 -4126.794)" fill="#cae2ad"/>
            <path id="パス_343" data-name="パス 343" d="M3558.671,4361.961a7.62,7.62,0,0,0,11.678-9.468,8,8,0,0,1-14.5,4,6.665,6.665,0,0,1-8.714-10.043,7.8,7.8,0,1,0,9.053,12.582l-.2,21.584h2.86l-.175-18.656Z" transform="translate(-3468.68 -4138.713)" fill="#cae2ad"/>
            <path id="パス_344" data-name="パス 344" d="M3575.069,4311.915c.236.015.469.042.7.079a5.643,5.643,0,0,0,.4-3.876c0,.019,0,.037,0,.056A6.87,6.87,0,0,1,3575.069,4311.915Z" transform="translate(-3480.492 -4124.514)" fill="#a6d18c"/>
            <path id="パス_345" data-name="パス 345" d="M3550.212,4345.394a6.672,6.672,0,0,0-.757.666c.214-.121.435-.233.66-.335C3550.146,4345.613,3550.176,4345.5,3550.212,4345.394Z" transform="translate(-3471.005 -4138.32)" fill="#a6d18c"/>
            <path id="パス_346" data-name="パス 346" d="M3585.017,4354.033c.017-.212.032-.424.032-.641a7.982,7.982,0,0,0-.5-2.783,6.1,6.1,0,0,1-1.765.937A7.7,7.7,0,0,1,3585.017,4354.033Z" transform="translate(-3483.348 -4140.252)" fill="#a6d18c"/>
            <path id="パス_347" data-name="パス 347" d="M3553.038,4341.144a6.624,6.624,0,0,0,3.982-1.33,8,8,0,0,0,14.5-4,7.69,7.69,0,0,0-2.236-2.487,6.1,6.1,0,0,0,1.765-.937,8.029,8.029,0,0,0-5.184-4.884,5.859,5.859,0,1,1-6.658,9.484,6.643,6.643,0,0,0,.5-2.521,6.379,6.379,0,0,0-.053-.741,6.278,6.278,0,0,0,2.508-11.358,6.06,6.06,0,0,0,6.177-9.644,3.981,3.981,0,0,1,.236,1.308,4.036,4.036,0,0,1-8.072,0,3.941,3.941,0,0,1,.248-1.355,5.752,5.752,0,0,0,4.381-3.167c-.23-.036-.462-.064-.7-.079a6.867,6.867,0,0,0,1.106-3.74c0-.02,0-.038,0-.056a5.775,5.775,0,0,0-.43-1.167c0,.081.024.156.024.238a4.046,4.046,0,1,1-6.377-3.294,5.729,5.729,0,0,0,.133,11.219,6.039,6.039,0,0,0,1.524,9.012c-.167.1-.337.2-.514.284-.095.044-.193.081-.289.122-.144.06-.29.117-.439.166-.1.034-.209.065-.315.095q-.245.064-.5.111c-.092.018-.184.037-.278.049a6.079,6.079,0,0,1-.811.059,5.932,5.932,0,0,1-.956-.082l-.1-.015a6.458,6.458,0,0,1-.919-.236,6.085,6.085,0,0,1-3.95-7.275,6.39,6.39,0,1,0,6.161,11.054,5.741,5.741,0,0,1,.37,9.637,5.955,5.955,0,0,1-.724.438c-.075.036-.145.081-.221.116-.1.047-.214.083-.321.125-.122.046-.244.094-.37.134-.108.033-.219.058-.329.084a5.744,5.744,0,0,1-6.937-7.073q-.339.152-.66.335a6.661,6.661,0,0,0,4.731,11.374Z" transform="translate(-3469.856 -4122.031)" fill="#a6d18c"/>
            <path id="パス_348" data-name="パス 348" d="M4003.524,4317.44a3.954,3.954,0,0,0-.247,1.355,4.036,4.036,0,0,0,8.072,0,3.979,3.979,0,0,0-.236-1.308,6.052,6.052,0,0,1-6.177,9.644,6.277,6.277,0,0,1-2.508,11.357,6.387,6.387,0,0,1,.053.741,6.66,6.66,0,0,1-.5,2.521,5.81,5.81,0,0,0,4.016,1.616,5.86,5.86,0,0,0,2.642-11.1,8.024,8.024,0,0,1,5.185,4.883,6.1,6.1,0,0,0-1.269-10.461,7.624,7.624,0,0,0-4.654-12.416A5.75,5.75,0,0,1,4003.524,4317.44Z" transform="translate(-3638.613 -4126.794)" fill="#cae2ad"/>
            <path id="パス_349" data-name="パス 349" d="M3988.651,4335.13a5.69,5.69,0,0,0,1.373-.177c.111-.027.222-.051.33-.084.126-.04.247-.087.37-.134.106-.042.216-.078.32-.125.077-.035.147-.08.222-.117a5.9,5.9,0,0,0,.723-.438,5.788,5.788,0,0,0,1.735-1.938,5.735,5.735,0,0,0-2.1-7.7,6.39,6.39,0,1,1-6.161-11.055,6.2,6.2,0,0,0-.191,1.493,6.118,6.118,0,0,0,4.14,5.783,6.393,6.393,0,0,0,.92.235c.034.007.069.011.1.016a5.948,5.948,0,0,0,.956.082,6.073,6.073,0,0,0,.811-.059c.095-.012.185-.032.278-.05.168-.03.334-.068.5-.11.107-.03.212-.061.315-.1.149-.049.3-.105.44-.166.1-.041.195-.077.289-.122.177-.085.347-.183.514-.284a6.039,6.039,0,0,1-1.524-9.012,5.728,5.728,0,0,1-.132-11.218,4.04,4.04,0,1,0,6.377,3.294c0-.082-.019-.158-.023-.238a5.773,5.773,0,0,1,.429,1.166,6.917,6.917,0,1,0-13.286,2.758,6.1,6.1,0,0,0-4.156,5.784,6.161,6.161,0,0,0,.069.869,8.064,8.064,0,0,0,1.283,14.191c-.163.061-.322.128-.479.2a5.652,5.652,0,0,0-.2,1.482A5.767,5.767,0,0,0,3988.651,4335.13Z" transform="translate(-3629.96 -4120.476)" fill="#cae2ad"/>
            <path id="パス_350" data-name="パス 350" d="M3993.88,4361.961a7.621,7.621,0,0,0,11.678-9.468,8,8,0,0,1-14.505,4,6.665,6.665,0,0,1-8.713-10.043,7.8,7.8,0,1,0,9.053,12.582l-.2,21.584h2.86l-.175-18.656Z" transform="translate(-3629.872 -4138.713)" fill="#cae2ad"/>
            <path id="パス_351" data-name="パス 351" d="M4010.279,4311.915c.236.015.468.042.7.079a5.647,5.647,0,0,0,.4-3.876c0,.019,0,.037,0,.056A6.876,6.876,0,0,1,4010.279,4311.915Z" transform="translate(-3641.685 -4124.514)" fill="#a6d18c"/>
            <path id="パス_352" data-name="パス 352" d="M4020.226,4354.033c.017-.212.033-.424.033-.641a7.978,7.978,0,0,0-.5-2.783,6.123,6.123,0,0,1-1.766.937A7.7,7.7,0,0,1,4020.226,4354.033Z" transform="translate(-3644.541 -4140.252)" fill="#a6d18c"/>
            <path id="パス_353" data-name="パス 353" d="M3985.422,4345.394a6.734,6.734,0,0,0-.757.666c.215-.121.434-.233.661-.335C3985.355,4345.613,3985.385,4345.5,3985.422,4345.394Z" transform="translate(-3632.198 -4138.32)" fill="#a6d18c"/>
            <path id="パス_354" data-name="パス 354" d="M3988.247,4341.144a6.624,6.624,0,0,0,3.982-1.33,8,8,0,0,0,14.505-4,7.688,7.688,0,0,0-2.236-2.487,6.116,6.116,0,0,0,1.766-.937,8.028,8.028,0,0,0-5.185-4.884,5.859,5.859,0,1,1-6.658,9.484,6.657,6.657,0,0,0,.5-2.521,6.379,6.379,0,0,0-.053-.741,6.277,6.277,0,0,0,2.508-11.358,6.06,6.06,0,0,0,6.177-9.644,3.981,3.981,0,0,1,.236,1.308,4.036,4.036,0,0,1-8.072,0,3.952,3.952,0,0,1,.247-1.355,5.753,5.753,0,0,0,4.381-3.167c-.229-.036-.462-.064-.7-.079a6.873,6.873,0,0,0,1.106-3.74c0-.02,0-.038,0-.056a5.774,5.774,0,0,0-.429-1.167c0,.081.023.156.023.238a4.046,4.046,0,1,1-6.376-3.294,5.729,5.729,0,0,0,.132,11.219,6.039,6.039,0,0,0,1.524,9.012c-.167.1-.337.2-.514.284-.094.044-.194.081-.29.122-.144.06-.29.117-.439.166-.1.034-.209.065-.315.095-.164.043-.33.08-.5.111-.093.018-.183.037-.278.049a6.072,6.072,0,0,1-.81.059,5.943,5.943,0,0,1-.956-.082l-.1-.015a6.493,6.493,0,0,1-.92-.236,6.082,6.082,0,0,1-3.949-7.275,6.39,6.39,0,1,0,6.161,11.054,5.742,5.742,0,0,1,.37,9.637,6.053,6.053,0,0,1-.724.438c-.075.036-.145.081-.222.116-.1.047-.214.083-.32.125-.124.046-.245.094-.37.134-.108.033-.219.058-.33.084a5.722,5.722,0,0,1-7.136-5.59,5.651,5.651,0,0,1,.2-1.483q-.34.152-.661.335a6.661,6.661,0,0,0,4.731,11.374Z" transform="translate(-3631.049 -4122.031)" fill="#a6d18c"/>
          </g>
        </g>
      </g>
    </g>
    <g id="グループ_6587" data-name="グループ 6587" transform="translate(648.833 162.219)">
      <g id="house" transform="translate(154.74 283.781)">
        <g id="bg" transform="translate(3.489 0)">
          <path id="compound-path" d="M376.555,485.848v75.539h-162.7V485.848Zm-17.432-82.279v74.12H231.286v-74.12L295.2,384.718Z" transform="translate(-198.626 -382.227)" fill="#e7e6e2"/>
          <rect id="bg-2" data-name="bg" width="52.297" height="75.54" transform="translate(70.43 103.62)" fill="#c9c9c6"/>
          <rect id="bg-3" data-name="bg" width="41.837" height="75.54" transform="translate(75.66 103.62)" fill="#e7e6e2"/>
          <rect id="bg-4" data-name="bg" width="31.778" height="65.261" transform="translate(80.69 113.754)" fill="#c9c9c6"/>
          <g id="roof">
            <g id="shadow" transform="translate(15.228 9.056)">
              <path id="compound-path-2" data-name="compound-path" d="M359.122,425.208v4.861L303,414.638l-15.7.029-56.02,15.4v-4.861L295.2,406.156Zm-37.769,77.036v5.811h55.2v-5.811Zm-52.3,0v5.811h-55.2v-5.811Zm47.068,0v5.811H274.285v-5.811Z" transform="translate(-213.854 -406.156)" fill="#c9c9c6"/>
              <path id="compound-path-3" data-name="compound-path" d="M446.389,719.889V725.7H441.16v-5.81Zm-52.3,0V725.7h5.229v-5.811Z" transform="translate(-338.89 -623.802)" fill="#c9c9c6"/>
            </g>
            <path id="path" d="M204.367,418.488l84.256-25.113,84.256,25.113-3.818,3.342-72.638-19.972-15.7.027L208.186,421.83Z" transform="translate(-192.044 -388.233)" fill="#e6e6d7"/>
            <path id="compound-path-4" data-name="compound-path" d="M164.132,476.787l21.039-6.271H336.25l21.039,6.271v5.894H164.132Zm12.323-69.947,84.256-25.113,84.256,25.113,3.273-4.406-87.528-25.849-86.794,25.849Z" transform="translate(-164.132 -376.586)" fill="#3a7ebe"/>
          </g>
        </g>
        <g id="door" transform="translate(86.079 118.802)">
          <g id="door-2" data-name="door" transform="translate(0)">
            <rect id="path-2" data-name="path" width="22.88" height="53.849" transform="translate(2.86)" fill="#947864"/>
            <rect id="path-3" data-name="path" width="6.355" height="50.844" transform="translate(16.207 1.503)" fill="#947864"/>
            <rect id="path-4" data-name="path" width="1.907" height="10.895" rx="0.953" transform="translate(6.673 25.563)" fill="#c3c3c3"/>
            <g id="step" transform="translate(0 53.849)">
              <rect id="path-5" data-name="path" width="28.6" height="3.178" transform="translate(28.6 6.356) rotate(180)" fill="#e7e6e2"/>
              <rect id="path-6" data-name="path" width="25.422" height="3.178" transform="translate(27.011 3.178) rotate(180)" fill="#c9c9c6"/>
            </g>
          </g>
        </g>
        <g id="window" transform="translate(26.368 36.622)">
          <path id="compound-path-5" data-name="compound-path" d="M384.111,586.386V629.98H355.7V586.386Zm-141.06,0V629.98h28.408V586.386Zm91.293-84.913v49.043H366.3V501.473Zm-69.729,0v49.043h31.959V501.473Z" transform="translate(-241.759 -499.846)" fill="#b9e1f5"/>
          <path id="compound-path-6" data-name="compound-path" d="M351.486,581.255v46.486h30.991V581.255Zm2.841,6.3H365.69v37.189H354.327Zm25.309,37.189H368.273V587.556h11.363Zm-140.8-43.49v46.486h30.991V581.255Zm2.841,6.3h11.363v37.189H241.675Zm25.309,37.189H255.621V587.556h11.363Zm62.982-128.584v52.3H364.83v-52.3Zm3.2,7.089h12.784v41.838H333.162Zm28.473,41.838H348.851V503.25h12.783Zm-101.4-48.927v52.3H295.1v-52.3Zm31.669,48.927H279.122V503.25h12.784ZM263.433,503.25h12.784v41.838H263.433Z" transform="translate(-238.834 -496.161)" fill="#947864"/>
        </g>
        <g id="veranda" transform="translate(24.528 41.559)">
          <g id="box" transform="translate(10.295 3.364)">
            <path id="bg-5" data-name="bg" d="M266.467,523.265l-.027,23.776,2.52,2.515h25.752l.056-23.656-2.507-2.575Z" transform="translate(-266.44 -523.265)"/>
            <path id="path-7" data-name="path" d="M280.711,566.789l22.176-.179-2.441-2.361-19.732.127Z" transform="translate(-276.34 -551.696)" fill="#be8c46"/>
            <path id="compound-path-7" data-name="compound-path" d="M300.381,550.874l-.01,9.1h-19.7l.011-8.912Zm-19.687-12.5v.051l-.011,7.887,19.7-.125.01-7.828Z" transform="translate(-276.309 -533.737)" fill="#b47d2d"/>
            <path id="compound-path-8" data-name="compound-path" d="M290.781,528.2l2.47,0-.013,10.243-2.468-2.387Zm-24.039-2.581,2.469,2.44,0-1.9-2.469-2.443Zm0,.129,2.469,2.44v.077h0l-.055,21.551-2.469-2.51Z" transform="translate(-266.612 -523.574)" fill="#b9873c"/>
            <path id="compound-path-9" data-name="compound-path" d="M276.762,544.367l22.255-.182,0,2-2.511.024-19.744.189v-.361l0-1.616h0Zm-1.688-10.658,1.659,0h0l19.785-.016.009,0,2.531,0,.01,0h1.548l0-1.9-25.544-.014Zm0,.1v.052l-.055,21.547h1.621l.054-21.6h-1.621Zm23.987,21.548h1.5l.053-21.568h-1.507Z" transform="translate(-272.391 -529.171)" fill="#c8a064"/>
            <path id="path-8" data-name="path" d="M267.126,523.534l2.447,2.422,25.5.016-2.362-2.38Z" transform="translate(-266.916 -523.452)" fill="#d2b482"/>
          </g>
          <g id="wood" transform="translate(106.614 2.24)">
            <path id="compound-path-10" data-name="compound-path" d="M638.789,519.594l1.32.393,1.817,2.006-1.32-.393Zm5.7,1.869,1.32.393-1.648-1.56-1.32-.393Zm-5.8,24.714,1.32.393,8.2-26.351-1.32-.393Zm-33.054,7.773L607,554.1l2.59-27.477-1.37-.146Z" transform="translate(-598.068 -519.594)" fill="#75511d"/>
            <path id="compound-path-11" data-name="compound-path" d="M629.754,519.826l-8.2,26.351-7.424-2.413,7.525-24.171,1.817,2.006,2.236-1.7,1.648,1.56ZM588.5,553.951l2.59-27.477-7.78-.637-2.376,25.2Z" transform="translate(-580.93 -519.594)" fill="#b47d2d"/>
          </g>
          <g id="bag" transform="translate(0.923)">
            <path id="path-9" data-name="path" d="M365.782,566.281c-1.705,3.123-5.35,3.841-10.353,3.846-5.23,0-9.039-.74-10.578-3.617-1.017-2.122-.492-4.793,1.351-7.235,2.042-2.706,4.3-3.294,6.457-3.827a15.6,15.6,0,0,1,6.911.4c2.048.911,4.466,1.761,6.055,4.665A6.564,6.564,0,0,1,365.782,566.281Z" transform="translate(-311.109 -542.07)" fill="#3c3939"/>
            <path id="compound-path-12" data-name="compound-path" d="M350.772,621.654c2.1-3.5,6.979-7.168,8.466-8.177a.591.591,0,0,1-.152-.356.477.477,0,0,1,0-.051c.021-.342.389-.684.91-.921-1.568-.762-3.561-2.842-4.338-3.392.911-.151,1.588.268,2.4.133a2.3,2.3,0,0,0,1.121-.59h0a2.629,2.629,0,0,1,1.311-.677,1.893,1.893,0,0,1,1.342.289h0c-.122,1.211-.245,2.63-.369,3.919h.043c1.2.012,1.545.336,1.8.64a.373.373,0,0,1,0,.374c2.574.858,6.438,2.366,8.762,4.3,1.97,1.643,2.707,3.663,1.95,5.535-1.2,2.627-4.92,4.065-10.452,5.276-5.7,1.246-10.175,1.547-12.561-.925A4.614,4.614,0,0,1,350.772,621.654Zm45.963.385c-2.441-2.7-7.324-5.076-8.832-5.72a.579.579,0,0,0,.05-.361.43.43,0,0,0-.013-.047,1.3,1.3,0,0,0-1-.684c1.188-1.01,2.432-3.309,2.971-3.956-.812.019-1.3.529-2.026.547a2.1,2.1,0,0,1-1.111-.354h0a2.429,2.429,0,0,0-1.311-.406,1.576,1.576,0,0,0-1.126.514h0c.394,1.127.835,2.448,1.245,3.639l-.039.008c-1.066.245-1.3.619-1.448.956a.383.383,0,0,0,.091.353c-2.12,1.337-5.323,3.6-7.033,6-1.469,2.056-1.666,4.2-.467,5.815,1.8,2.208,5.578,2.606,10.778,2.321,5.115-.28,8.834-1.088,10.219-3.817A4.577,4.577,0,0,0,396.735,622.039ZM288.718,527.55c-1.4,2.8-5.222,3.774-10.49,4.285-5.356.519-9.259.291-11.134-1.841-1.253-1.568-1.073-3.722.418-5.847,1.736-2.474,5.012-4.89,7.183-6.324a.369.369,0,0,1-.1-.349c.154-.345.386-.729,1.482-1.023l.039-.01c-.435-1.175-.9-2.478-1.322-3.59h0a1.705,1.705,0,0,1,1.155-.566,2.491,2.491,0,0,1,1.355.348h0a2.156,2.156,0,0,0,1.149.3c.75-.051,1.246-.583,2.082-.639-.549.673-1.805,3.032-3.019,4.1a1.287,1.287,0,0,1,1.041.64.453.453,0,0,1,.013.047.572.572,0,0,1-.047.364c1.56.578,6.619,2.737,9.164,5.334A4.421,4.421,0,0,1,288.718,527.55Zm41.25,1.9c-2.763-2.6-8.255-4.756-9.949-5.334a.532.532,0,0,0,.052-.364c0-.016-.009-.031-.015-.047-.112-.311-.559-.541-1.129-.64,1.317-1.065,2.681-3.424,3.277-4.1-.908.056-1.447.589-2.261.639a2.489,2.489,0,0,1-1.247-.3h0a2.886,2.886,0,0,0-1.471-.348,1.908,1.908,0,0,0-1.254.566h0c.454,1.112.963,2.415,1.436,3.59l-.043.01c-1.19.294-1.442.678-1.609,1.023-.044.092,0,.217.106.35-2.357,1.435-5.913,3.85-7.8,6.324-1.62,2.125-1.814,4.279-.454,5.847,2.035,2.132,6.272,2.36,12.087,1.841,5.719-.51,9.871-1.488,11.388-4.285A4.166,4.166,0,0,0,329.969,529.45Zm-73.359.447c-2.482-2.621-7.4-4.8-8.917-5.385a.593.593,0,0,0,.046-.366.437.437,0,0,0-.013-.047,1.248,1.248,0,0,0-1.009-.644c1.177-1.068,2.4-3.436,2.93-4.112-.813.056-1.294.591-2.022.642a2.032,2.032,0,0,1-1.114-.306h0a2.353,2.353,0,0,0-1.313-.349,1.631,1.631,0,0,0-1.118.567h0c.4,1.115.859,2.422,1.281,3.6l-.038.01c-1.061.293-1.286.678-1.435,1.023a.38.38,0,0,0,.095.351c-2.1,1.434-5.263,3.844-6.937,6.314-1.436,2.12-1.609,4.272-.4,5.847,1.807,2.144,5.575,2.4,10.762,1.91,5.119-.481,8.846-1.442,10.21-4.25A4.563,4.563,0,0,0,256.609,529.9Zm88.7,6.079c1.923,2.535,6.174,2.874,11.905,2.513,5.826-.366,9.98-1.232,11.669-3.647,1.108-1.756.589-3.855-1.333-5.711-2.237-2.161-6.118-4.01-8.664-5.072.087-.147.11-.278.052-.362-.217-.316-.525-.657-1.745-.768l-.044,0c.289-1.233.6-2.6.877-3.766h0a1.908,1.908,0,0,0-1.325-.37,2.884,2.884,0,0,0-1.4.566h0a2.493,2.493,0,0,1-1.186.49c-.812.073-1.425-.372-2.331-.29.691.575,2.4,2.7,3.859,3.555-.549.184-.956.479-1.02.8a.371.371,0,0,0-.007.049.532.532,0,0,0,.106.352c-1.587.827-6.689,3.792-9.028,6.777A4.166,4.166,0,0,0,345.307,535.976Z" transform="translate(-235.84 -512.279)" fill="#58aad1"/>
            <path id="compound-path-13" data-name="compound-path" d="M377.731,613.867l4.144-.092a2.382,2.382,0,0,1-1.636,1.057c-1.21.191-2.483-.269-2.509-.915A.47.47,0,0,1,377.731,613.867Zm-1.033-4.179,2.57,3.044c.043-.011.087-.02.131-.029a37.429,37.429,0,0,1-1.58-3.6A2.306,2.306,0,0,1,376.7,609.688Zm29.9,7.067c.124.605-.876,1.287-1.981,1.35a2.229,2.229,0,0,1-1.7-.667l3.667-.73A.423.423,0,0,1,406.6,616.755Zm-1.181-4.494a36.361,36.361,0,0,1-.554,3.68l.122,0,1.543-3.328A2.1,2.1,0,0,1,405.417,612.26Zm-108.2-94.382c.135.6-.889,1.329-2.027,1.442a2.26,2.26,0,0,1-1.758-.592l3.771-.9A.472.472,0,0,1,297.217,517.879Zm-1.266-4.45a36.032,36.032,0,0,1-.531,3.712l.126,0,1.554-3.4A2.152,2.152,0,0,1,295.952,513.429Zm42.764,11.121c.146.6-.965,1.329-2.2,1.442a2.581,2.581,0,0,1-1.908-.592l4.094-.9C338.707,524.518,338.712,524.534,338.716,524.55Zm-1.374-4.449a33.425,33.425,0,0,1-.576,3.712c.046,0,.091,0,.136,0l1.687-3.4A2.493,2.493,0,0,1,337.342,520.1Zm-70.959,4.844c.13.6-.862,1.332-1.965,1.443a2.148,2.148,0,0,1-1.7-.6l3.654-.893A.439.439,0,0,1,266.383,524.944Zm-1.228-4.467a37.34,37.34,0,0,1-.515,3.725c.041,0,.081,0,.122,0l1.507-3.415A2.03,2.03,0,0,1,265.155,520.477Zm108.107,4.235,4.182.267a2.581,2.581,0,0,1-1.8.874c-1.238.075-2.447-.476-2.393-1.092A.377.377,0,0,1,373.262,524.712Zm-.508-4.068,2.182,3.11c.044-.007.089-.012.135-.017a33.41,33.41,0,0,1-1.131-3.582A2.489,2.489,0,0,1,372.754,520.644Z" transform="translate(-254.484 -513.077)" fill="#19aaaa"/>
            <path id="compound-path-14" data-name="compound-path" d="M409.377,531.94c2.492-2.857,7.743-5.55,9.372-6.292a.53.53,0,0,1-.088-.357.429.429,0,0,1,.01-.048c.08-.321.5-.594,1.061-.749-1.417-.93-3.007-3.142-3.667-3.753.909-.034,1.5.443,2.313.413a2.492,2.492,0,0,0,1.21-.427h0a2.882,2.882,0,0,1,1.429-.492,1.91,1.91,0,0,1,1.3.439h0c-.341,1.152-.72,2.5-1.074,3.714l.044.006c1.213.175,1.5.532,1.7.858.054.087.024.216-.071.358,2.487,1.194,6.265,3.246,8.385,5.521,1.822,1.955,2.229,4.079,1.031,5.774-1.814,2.323-6.008,2.969-11.845,3.028-5.742.058-9.97-.5-11.756-3.137A4.166,4.166,0,0,1,409.377,531.94Zm69.382,8.564c1.591,2.632,5.357,3.194,10.47,3.136,5.2-.059,8.933-.705,10.549-3.028,1.067-1.695.7-3.819-.918-5.773-1.889-2.276-5.254-4.327-7.468-5.521a.383.383,0,0,0,.063-.359c-.179-.326-.436-.684-1.516-.858l-.039-.006c.315-1.216.652-2.563.956-3.714h0a1.589,1.589,0,0,0-1.161-.439,2.4,2.4,0,0,0-1.273.492h0a2.071,2.071,0,0,1-1.078.426c-.725.03-1.25-.447-2.06-.412.587.611,2,2.823,3.265,3.753-.5.155-.873.428-.945.749,0,.016-.007.032-.009.048a.585.585,0,0,0,.078.357c-1.451.743-6.127,3.435-8.347,6.292A4.572,4.572,0,0,0,478.759,540.5Z" transform="translate(-355.431 -517.797)" fill="#c8c8c8"/>
            <path id="compound-path-15" data-name="compound-path" d="M441.662,526.36l4.162.487a2.582,2.582,0,0,1-1.84.778c-1.24.01-2.418-.6-2.332-1.217A.452.452,0,0,1,441.662,526.36Zm-.293-4.089,2.015,3.22.136-.01a33.316,33.316,0,0,1-.941-3.637A2.493,2.493,0,0,1,441.369,522.271Zm69.227,7.8,3.707.487a2.192,2.192,0,0,1-1.639.778c-1.1.01-2.153-.6-2.077-1.217C510.589,530.1,510.592,530.082,510.6,530.066Zm-.261-4.089,1.795,3.221c.04,0,.08-.008.121-.01a36.734,36.734,0,0,1-.838-3.637A2.072,2.072,0,0,1,510.335,525.977Z" transform="translate(-378.421 -518.915)" fill="#aaa"/>
            <path id="compound-path-16" data-name="compound-path" d="M579.928,645.253c-.976-1.72-3.365-2.766-5.478-3.577a.37.37,0,0,0,.049-.108h0c0-.009,0-.018.006-.026a.605.605,0,0,0-.354-.565,8.206,8.206,0,0,0,3.006-2.054.924.924,0,0,0,.139-.931.979.979,0,0,0-.773-.4,1.472,1.472,0,0,0-.919.185,6.055,6.055,0,0,0-1.858,3.054,1.126,1.126,0,0,0-.112-.013,6.874,6.874,0,0,0-2.113-3.49,1.667,1.667,0,0,0-1.041-.209,1.11,1.11,0,0,0-.875.457,1.047,1.047,0,0,0,.157,1.055c.527.867,2.389,1.873,3.375,2.313a.973.973,0,0,0-.279.245.309.309,0,0,0-.085.255.729.729,0,0,0,.122.23c-2.839,1.089-5.742,3.778-5.159,6.453.392,1.232,1.43,1.378,2.751,1.991a8.585,8.585,0,0,0,7.254-.018C579.957,648.922,581.037,647.206,579.928,645.253Zm-4.466-6.758a1.156,1.156,0,0,1,.525-.372l.028-.008a.746.746,0,0,1,.466.036.41.41,0,0,1,.232.224.5.5,0,0,1-.149.474A17.408,17.408,0,0,1,574,640.9c-.029-.012-.059-.023-.089-.033A18.5,18.5,0,0,1,575.463,638.495Zm-5.028.048a.562.562,0,0,1-.169-.537.462.462,0,0,1,.262-.254.85.85,0,0,1,.528-.04l.032.009a1.308,1.308,0,0,1,.594.421,20.9,20.9,0,0,1,1.75,2.684.836.836,0,0,0-.118.032A19.57,19.57,0,0,1,570.435,638.543Zm-24.689-78.725c-1.355,2.8-5.063,3.774-10.172,4.284-5.194.519-8.978.291-10.8-1.841-1.215-1.568-1.041-3.721.406-5.847,1.684-2.474,4.861-4.89,6.965-6.324a.377.377,0,0,1-.095-.35c.149-.345.375-.729,1.437-1.023l.038-.01c-.422-1.175-.878-2.478-1.283-3.59h0a1.636,1.636,0,0,1,1.12-.566,2.361,2.361,0,0,1,1.314.348h0a2.038,2.038,0,0,0,1.114.3c.727-.051,1.208-.583,2.019-.639-.532.673-1.751,3.032-2.927,4.1a1.245,1.245,0,0,1,1.009.64c0,.016.009.031.013.047a.587.587,0,0,1-.046.364c1.513.578,6.419,2.737,8.887,5.334A4.524,4.524,0,0,1,545.746,559.818Z" transform="translate(-435.724 -534.665)" fill="#3c3939"/>
            <path id="compound-path-17" data-name="compound-path" d="M593.228,642.366c-.084.318-.623.515-1.086.388s-.575-.333-.641-.517a.31.31,0,0,1,.085-.255Zm-38.6-92.265-3.657.9a2.153,2.153,0,0,0,1.7.592c1.1-.113,2.1-.841,1.965-1.442C554.633,550.132,554.629,550.116,554.624,550.1Zm-.1-4.1-1.507,3.4c-.04,0-.081,0-.122,0a36.987,36.987,0,0,0,.515-3.712A2.037,2.037,0,0,0,554.523,546Z" transform="translate(-454.453 -535.463)" fill="#191919"/>
          </g>
          <g id="box-2" data-name="box" transform="translate(50.48 12.246)">
            <path id="path-10" data-name="path" d="M456.371,569.667l.227,18.971-21.491,4.178-.227-18.971Z" transform="translate(-423.477 -564.337)" fill="#b47d2d"/>
            <path id="path-11" data-name="path" d="M409.278,590.2l-11.4-5.33-.227-18.971,11.4,5.33Z" transform="translate(-397.648 -561.726)" fill="#875e22"/>
            <path id="path-12" data-name="path" d="M409.051,561.771l-11.4-5.33,21.491-4.177,11.4,5.33Z" transform="translate(-397.648 -552.264)" fill="#c39757"/>
            <path id="path-13" data-name="path" d="M434.6,559.5l-21.506,4.165,1.569.739,21.427-4.211Z" transform="translate(-408.362 -557.285)" fill="#e1cdaa"/>
            <path id="path-14" data-name="path" d="M413.092,573.1l1.569.739v4.75l-1.569-.739Z" transform="translate(-408.362 -566.719)" fill="#c8a064"/>
          </g>
          <path id="compound-path-18" data-name="compound-path" d="M383.905,589.9v28.6H232.826V589.9Zm11.989,90.586h-61.38v23.243h61.38Z" transform="translate(-232.826 -566.124)" fill="#3a7ebe"/>
          <path id="compound-path-19" data-name="compound-path" d="M383.905,615.836v1.271H232.826v-1.271Zm-151.079,11.44v1.271H383.905v-1.271Zm163.068,87.988h-61.38v-1.033h61.38Zm0-10.33h-61.38v1.033h61.38Z" transform="translate(-232.826 -584.12)" fill="#32699c"/>
        </g>
        <g id="garbage" transform="translate(0 131.483)">
          <path id="shadow-2" data-name="shadow" d="M263.3,992.484a23.246,23.246,0,0,1-3.2-.207c-4.22-.589-8.362-3.655-8.362-6.188a3.752,3.752,0,0,1,2.548-3.36l.058-.021,40.473-5.283h.036a2,2,0,0,1,1.88,1.2,1.919,1.919,0,0,1-.412,2.1l-.912.955a2.572,2.572,0,0,1-1.852.792h-4.638a.862.862,0,0,0-.826.6c-1.7,5.388-7.389,5.554-12.406,5.7-.4.011-.792.023-1.182.037C272.792,991.516,267.458,992.484,263.3,992.484ZM351.539,978.6c-2.258-.143-17.05-.358-22.583-.358s-20.324.215-22.583.358c-1.589.1-2.258.715-2.258,1.431s.922,1.29,2.258,1.431c4.065.429,15.582.644,22.583.644s18.518-.215,22.583-.644c1.337-.141,2.258-.716,2.258-1.431S353.128,978.7,351.539,978.6Zm-117.369.383c-3.9-1.1-75.8-.5-78.891-.5s-3.05,2.883-1.531,4.658c3.631,4.244,14.5,3.627,16.726,2.268,1.359,1.235,4.941,2.965,9.759,2.965s9.759-2.347,10.871-4.818c1.359,2.347,8.548,3.485,12,3.485s10.656-.762,13.2-3.506c2.126,1.991,5.466,2.516,9.6,2.516,4.495,0,7.392-1.033,9.529-3.638C236.305,981.34,236.293,979.586,234.17,978.986Z" transform="translate(-152.74 -924.888)" fill="#aaa"/>
          <g id="box-3" data-name="box" transform="translate(115.565 11.972)">
            <path id="bg-6" data-name="bg" d="M532.522,844.976l-2.452,2.4.055,41.034,1.579.047,1.843-1.745,20.028.577h0l0,1.8,1.642.047,2.452-2.4-.055-41.035Z" transform="translate(-530.071 -844.976)"/>
            <path id="compound-path-20" data-name="compound-path" d="M562.924,885.321l.01,7.708-19.276-.555-.01-7.708Zm-19.292-12.936.01,7.708,19.276.555-.01-7.708Zm-.017-12.478.01,7.805,19.276.555-.01-7.757v-.051Z" transform="translate(-539.467 -855.334)" fill="#b47d2d"/>
            <path id="compound-path-21" data-name="compound-path" d="M557.392,901.03,535.66,900.4l2.425-2.3,19.3.556Zm-.02-14.755-19.3-.556-2.425,2.3,21.731.626Zm.033,24.761-19.3-.556-2.43,2.3,21.736.626Z" transform="translate(-533.937 -873.241)" fill="#be8c46"/>
            <path id="compound-path-22" data-name="compound-path" d="M537.824,871.629l-2.453,2.33-.013-10.135,2.455.071Zm-.027-20.212-2.454-.071.013,10.232,2.452-2.329Zm23.449-1.876-2.373,2.326,0-1.869,2.372-2.326Zm0,.127-2.373,2.327v.075h0l.052,38.835,2.373-2.326Z" transform="translate(-533.727 -846.846)" fill="#b9873c"/>
            <path id="compound-path-23" data-name="compound-path" d="M553.6,880.425l-21.81-.628,0-2,21.81.628Zm-.019-14.376-21.81-.628,0,2,2.495.072,19.315.557v-.355l0-1.59h0Zm1.625-12.333L530.171,853l0,1.9,1.542.042.01,0,2.514.072.009,0,19.355.558h0l1.6.046Zm-1.591,37.094-21.812-.628,0,2,21.81.628Zm1.594-35.1v.051l.052,38.886-1.562-.045-.052-38.937,1.558.045Zm-23.53-.675-1.5-.043.052,38.935,1.5.045Z" transform="translate(-530.14 -850.54)" fill="#c8a064"/>
            <path id="path-15" data-name="path" d="M557.748,845.862l-2.352,2.306-24.985-.719,2.352-2.306Z" transform="translate(-530.306 -845.092)" fill="#d2b482"/>
          </g>
          <g id="bag-2" data-name="bag" transform="translate(0.649)">
            <path id="compound-path-24" data-name="compound-path" d="M180.6,946.58c-1.843,4.155-6.371,5.1-12.465,5.1s-10.446-.914-12.441-4.4c-1.328-2.547-1.047-5.8.7-8.852,1.965-3.442,4.442-4.329,6.854-5.157a17.567,17.567,0,0,1,8.282-.032c2.643,1.022,5.8,1.957,8.189,5.695A8.933,8.933,0,0,1,180.6,946.58Zm34.115-7.65c2.171-3.738,5.042-4.673,7.445-5.695a14.56,14.56,0,0,1,7.529.032c2.193.828,4.445,1.716,6.231,5.157,1.587,3.056,1.842,6.3.635,8.852-1.813,3.487-5.77,4.4-11.31,4.4s-9.656-.942-11.332-5.1A9.721,9.721,0,0,1,214.713,938.93Z" transform="translate(-154.859 -893.898)" fill="#58aad1"/>
            <path id="compound-path-25" data-name="compound-path" d="M186.689,947.826c-9.457,1.462-20.847.021-23.649-5.65a9.365,9.365,0,0,1,2.008-1.91,6.959,6.959,0,0,0,.45,1.071c2,3.488,6.347,4.4,12.442,4.4a24.012,24.012,0,0,0,7.807-.985A9.046,9.046,0,0,1,186.689,947.826Zm33.376-3.073a19.976,19.976,0,0,0,7.1.985c5.541,0,9.5-.913,11.311-4.4a7.358,7.358,0,0,0,.409-1.071,8.919,8.919,0,0,1,1.825,1.91c-2.548,5.671-12.9,7.112-21.5,5.65A9.722,9.722,0,0,1,220.065,944.753Z" transform="translate(-160.535 -899.11)" fill="#19aaaa"/>
            <path id="compound-path-26" data-name="compound-path" d="M296.475,917.225c-2.208-3.738-5.129-4.672-7.573-5.695a15.06,15.06,0,0,0-7.66.032c-2.231.828-4.521,1.716-6.339,5.157-1.614,3.056-1.874,6.3-.646,8.851,1.845,3.487,5.87,4.4,11.506,4.4s9.823-.942,11.528-5.1A9.571,9.571,0,0,0,296.475,917.225Zm-102.389-7.05c-1.843,4.155-6.371,5.1-12.465,5.1s-10.446-.913-12.441-4.4c-1.328-2.547-1.047-5.8.7-8.852,1.966-3.442,4.442-4.33,6.855-5.157a17.566,17.566,0,0,1,8.282-.032c2.644,1.022,5.8,1.957,8.189,5.695A8.932,8.932,0,0,1,194.086,910.175Zm26.229-7.65c2.17-3.738,5.041-4.672,7.445-5.695a14.562,14.562,0,0,1,7.53.032c2.193.828,4.444,1.716,6.231,5.157,1.587,3.056,1.842,6.3.635,8.852-1.814,3.487-5.77,4.4-11.31,4.4s-9.656-.941-11.332-5.1A9.72,9.72,0,0,1,220.315,902.525Z" transform="translate(-164.216 -868.643)" fill="#c8c8c8"/>
            <path id="compound-path-27" data-name="compound-path" d="M294.229,922.13c-1.451,3.049-5.724,4.278-11.424,5.052-3.76.508-6.789.643-8.989.056a10.33,10.33,0,0,0-.313,2.206c6.987,1.684,17.527,1.209,21.719-6.306A10.806,10.806,0,0,0,294.229,922.13ZM191.848,908.44c-4.536,7.515-15.93,7.988-23.486,6.3a9.587,9.587,0,0,1,.341-2.206c2.378.586,5.653.454,9.72-.057,6.163-.773,10.783-2,12.354-5.05A11.023,11.023,0,0,1,191.848,908.44Zm29.719,0c4.123,7.515,14.482,7.988,21.351,6.3a10.49,10.49,0,0,0-.31-2.206c-2.162.586-5.14.454-8.836-.057-5.6-.773-9.8-2-11.231-5.05A10.473,10.473,0,0,0,221.567,908.44Z" transform="translate(-164.227 -876.331)" fill="#aaa"/>
            <path id="compound-path-28" data-name="compound-path" d="M284.454,881.321c-3.173-2.568-9.013-4.34-10.756-4.778a.59.59,0,0,0,.02-.387c-.005-.016-.012-.032-.018-.048a1.353,1.353,0,0,0-1.171-.553c1.212-1.254,2.371-3.891,2.913-4.674-.908.171-1.4.8-2.2.947a2.307,2.307,0,0,1-1.255-.17h0a2.629,2.629,0,0,0-1.464-.186,1.893,1.893,0,0,0-1.162.732h0c.53,1.1,1.133,2.387,1.69,3.555l-.041.015c-1.126.424-1.337.845-1.468,1.216a.374.374,0,0,0,.131.35c-2.124,1.688-5.237,4.43-6.755,7.048-1.287,2.219-1.287,4.37.066,5.868,2.032,2.056,6.015,2.132,11.627,1.372,5.778-.783,10.089-2.035,11.482-5.176A4.614,4.614,0,0,0,284.454,881.321Zm-101.813-9.569c-1.507,3.141-6.168,4.393-12.416,5.176-6.068.76-10.375.683-12.572-1.372-1.463-1.5-1.463-3.649-.071-5.868,1.642-2.618,5.007-5.36,7.3-7.048-.124-.126-.18-.251-.142-.35.142-.371.369-.792,1.587-1.216l.044-.015c-.6-1.168-1.255-2.459-1.828-3.555h0a2.068,2.068,0,0,1,1.256-.732,3.056,3.056,0,0,1,1.583.186h0a2.682,2.682,0,0,0,1.357.17c.87-.15,1.4-.776,2.383-.946-.585.783-1.839,3.42-3.149,4.674a1.5,1.5,0,0,1,1.266.553.433.433,0,0,1,.02.048.546.546,0,0,1-.022.386c1.885.438,8.2,2.21,11.631,4.779A4.407,4.407,0,0,1,182.641,871.752ZM215.9,866.62c3.119-2.568,8.86-4.34,10.573-4.779a.6.6,0,0,1-.02-.386.415.415,0,0,1,.018-.048,1.322,1.322,0,0,1,1.151-.553c-1.191-1.254-2.331-3.891-2.863-4.674.892.171,1.376.8,2.167.946a2.235,2.235,0,0,0,1.233-.17h0a2.545,2.545,0,0,1,1.439-.186,1.859,1.859,0,0,1,1.142.732h0c-.521,1.1-1.113,2.387-1.662,3.555l.04.015c1.107.424,1.314.845,1.443,1.216a.377.377,0,0,1-.129.35c2.088,1.688,5.148,4.43,6.64,7.048,1.265,2.219,1.265,4.369-.065,5.868-2,2.055-5.913,2.132-11.429,1.372-5.68-.783-9.917-2.035-11.287-5.176A4.663,4.663,0,0,1,215.9,866.62Z" transform="translate(-156.03 -840.777)" fill="#58aad1"/>
            <path id="compound-path-29" data-name="compound-path" d="M292.868,877.915c.2.615-.841,1.484-2.043,1.719a2.384,2.384,0,0,1-1.9-.432l3.924-1.335C292.856,877.883,292.862,877.9,292.868,877.915Zm-1.736-4.5a37.236,37.236,0,0,1-.249,3.928l.133-.017,1.371-3.74A2.307,2.307,0,0,1,291.132,873.417ZM188.393,863.166,184.15,864.5a2.733,2.733,0,0,0,2.053.432c1.3-.235,2.422-1.1,2.21-1.719A.437.437,0,0,0,188.393,863.166Zm-.5-4.28-1.482,3.74-.144.018a34.6,34.6,0,0,0,.269-3.928A2.678,2.678,0,0,0,187.893,858.886Zm57.706,4.328c-.194.615.827,1.485,2.009,1.719a2.31,2.31,0,0,0,1.867-.432l-3.857-1.335A.429.429,0,0,0,245.6,863.214Zm1.706-4.5a37.883,37.883,0,0,0,.244,3.928l-.131-.018-1.347-3.74A2.231,2.231,0,0,0,247.306,858.716Z" transform="translate(-175.179 -842.536)" fill="#19aaaa"/>
            <path id="compound-path-30" data-name="compound-path" d="M362.514,819.435a10.106,10.106,0,0,0,7.961-.325c1.422-.686,2.556-.884,2.931-2.155.523-2.749-2.782-5.346-5.944-6.32a.723.723,0,0,0,.124-.239c.021-.064-.02-.159-.1-.255a1.046,1.046,0,0,0-.317-.236c1.063-.495,3.061-1.606,3.6-2.513a1,1,0,0,0,.126-1.08,1.249,1.249,0,0,0-.981-.423,1.951,1.951,0,0,0-1.133.262,6.919,6.919,0,0,0-2.165,3.65q-.062.007-.122.019a6.1,6.1,0,0,0-2.174-3.018,1.722,1.722,0,0,0-1.017-.144,1.1,1.1,0,0,0-.83.447.885.885,0,0,0,.194.941,9.074,9.074,0,0,0,3.389,1.947c-.255.158-.413.386-.364.591,0,.009,0,.017.008.026h0a.366.366,0,0,0,.059.108c-2.283.926-4.858,2.1-5.854,3.9C358.77,816.654,360.03,818.348,362.514,819.435Zm3.793-9.566c-.033.012-.065.024-.1.038a18.964,18.964,0,0,1-2.9-1.967.483.483,0,0,1-.185-.476.437.437,0,0,1,.244-.239.885.885,0,0,1,.51-.059l.031.007a1.277,1.277,0,0,1,.592.353A18.782,18.782,0,0,1,366.307,809.869Zm.659-.04a1,1,0,0,0-.13-.026,21.177,21.177,0,0,1,1.8-2.813,1.443,1.443,0,0,1,.633-.457l.035-.01a1,1,0,0,1,.581.016.494.494,0,0,1,.3.246.548.548,0,0,1-.162.555A21.338,21.338,0,0,1,366.966,809.829ZM300.218,859.95c-2.261,3.729-7.195,4.706-14.1,4.706s-9.995-1.435-12.084-5.878a9.08,9.08,0,0,1,1-8.181,37.928,37.928,0,0,1,9.886-9.887,1.244,1.244,0,0,1-.157-.62c0-.027,0-.054.006-.081a1.809,1.809,0,0,1,1.266-1.336c-1.66-1.683-3.463-5.509-4.235-6.593,1.121,0,1.817.856,2.816.856a2.505,2.505,0,0,0,1.5-.653,5.429,5.429,0,0,1,.785-.512,2.164,2.164,0,0,1,.983-.237,2,2,0,0,1,1.554.834c-.477,1.916-1.008,4.152-1.5,6.174a2.292,2.292,0,0,1,1.855,1.331.96.96,0,0,1-.133.8c-.012.023-.026.048-.039.071,2.9,2.1,7.415,5.79,9.808,9.742C301.405,853.753,301.723,857.226,300.218,859.95Z" transform="translate(-237.146 -805.887)" fill="#3c3939"/>
            <path id="compound-path-31" data-name="compound-path" d="M390.927,820.243c.106.319.706.495,1.209.344s.616-.366.68-.556c.021-.064-.02-.159-.1-.255Zm-78.664,27.851c-.06,0-.12.008-.179.014l-2.24-5.537a2.505,2.505,0,0,0,1.5-.653C311.575,843.843,311.852,846.078,312.264,848.094Zm-2.273,1.63c-.029,1.027,1.416,2.008,2.856,1.944a2.57,2.57,0,0,0,2.042-1.361L310,849.644C309.994,849.671,309.992,849.7,309.991,849.724Z" transform="translate(-262.377 -815.522)" fill="#191919"/>
          </g>
          <g id="tire" transform="translate(12.682 33.399)">
            <path id="path-16" data-name="path" d="M216.219,933.95c2.643-2.148,6.409-1.91,9.352-.262a8.181,8.181,0,0,1,4.535,7.135,6.49,6.49,0,0,1-.745.524c2.218-1.108,3.694-3.36,3.276-6.887a8.2,8.2,0,0,0-5.05-6.234C222.721,926.077,216.164,927.66,216.219,933.95Z" transform="translate(-209.459 -923.528)" fill="#1e1e1e"/>
            <path id="compound-path-32" data-name="compound-path" d="M207.081,914.949a12.127,12.127,0,0,0-11.354,7.9c-.03.061-1.667,4.046-1.576,6.518a18.659,18.659,0,0,0,.232,2.385c.427,3.225,3.133,6.6,5.794,8.3a13.782,13.782,0,0,0,12.579,1.626,14.05,14.05,0,0,0,6.871-6.563,18.031,18.031,0,0,0,1.933-8.127,10.456,10.456,0,0,0-2.7-7.038A14.784,14.784,0,0,0,207.081,914.949Zm2.752.513a16.369,16.369,0,0,1,9.187,5.321c2.449,3.55,3.174,8.122.858,11.848-4.238,6.4-14.248,5.371-19.355.47a12.722,12.722,0,0,1-3.417-6.524,10.339,10.339,0,0,1,1.469-7.264C201.013,915.74,205.76,914.723,209.834,915.462Z" transform="translate(-194.148 -914.937)" fill="#2b2a2a"/>
            <path id="compound-path-33" data-name="compound-path" d="M203.572,927.2c-1.873-15.809,22.077-14.216,24.093-.842C229.537,942.165,205.587,940.572,203.572,927.2Zm20.22-.707c-1.37-9.077-17.62-10.153-16.349.572,1.37,9.077,17.621,10.156,16.349-.572Z" transform="translate(-200.613 -915.557)" fill="#3c3939"/>
          </g>
          <g id="bicycle" transform="translate(146.377 18.852)">
            <g id="tire-2" data-name="tire" transform="translate(0.799 12.853)">
              <path id="compound-path-34" data-name="compound-path" d="M667.4,922.188a11.177,11.177,0,1,1,10.37,11.929A11.19,11.19,0,0,1,667.4,922.188Zm20.648,1.444a9.521,9.521,0,1,0-10.162,8.833A9.531,9.531,0,0,0,688.048,923.631Zm-54.74-3.828a11.177,11.177,0,1,1,10.37,11.93A11.19,11.19,0,0,1,633.308,919.8Zm20.648,1.444a9.521,9.521,0,1,0-10.162,8.834A9.531,9.531,0,0,0,653.956,921.247Z" transform="translate(-633.281 -909.406)" fill="#807878"/>
              <path id="compound-path-35" data-name="compound-path" d="M670.93,924.713a10.1,10.1,0,1,1,9.367,10.775A10.107,10.107,0,0,1,670.93,924.713Zm9.442,9.7a9.014,9.014,0,1,0-8.363-9.62A9.008,9.008,0,0,0,680.372,934.409Zm-43.534-12.08A10.1,10.1,0,1,1,646.2,933.1,10.107,10.107,0,0,1,636.838,922.329Zm9.442,9.7a9.014,9.014,0,1,0-8.363-9.62A9.008,9.008,0,0,0,646.28,932.025Z" transform="translate(-635.731 -911.856)" fill="#c8c8c8"/>
              <path id="compound-path-36" data-name="compound-path" d="M683.625,918.2a9.221,9.221,0,1,0,8.555,9.842A9.232,9.232,0,0,0,683.625,918.2Zm-34.092-2.384a9.221,9.221,0,1,0,8.555,9.841A9.231,9.231,0,0,0,649.533,915.816Z" transform="translate(-637.712 -913.837)" fill="#807878"/>
              <g id="compound-path-37" data-name="compound-path" transform="translate(2.373 2.373)">
                <g id="グループ_6586" data-name="グループ 6586">
                  <path id="パス_76253" data-name="パス 76253" d="M692.711,928.956c-.015.219-.041.434-.072.648l-5.932-.415-1.008-.68,1.114-.543,5.917.414C692.729,928.57,692.724,928.762,692.711,928.956Zm-8.826.477-.088.131-.083-.17.065-.032Zm-8.745-1.706c.015-.219.041-.434.072-.648l5.932.414,1.008.68-1.114.544-5.917-.414C675.122,928.113,675.127,927.92,675.141,927.727Zm7.3.307-.744-.5.919.064.139.285Zm.435.1.032.065-.071.106-.131-.088Zm-.194.4-.2.289-.9-.063.828-.4Zm-.055.576.316.022-.024.348-.807.394Zm.178-.264.106-.157.06.041-.009.127Zm.2-1.081-.069-.142.189.013-.005.073Zm-.209-.428-.394-.807.764.515-.022.316Zm-.636-1.3-2.6-5.33a8.8,8.8,0,0,1,1.105-.536l2.607,5.346-.085,1.213Zm.318,1.281-1.237-.086-4.917-3.317a8.838,8.838,0,0,1,.692-1.015l4.929,3.325Zm-1.787-.125-5.433-.38a8.723,8.723,0,0,1,.93-2.657Zm-.144,1.774-4.893,2.386a8.746,8.746,0,0,1-.527-2.765Zm.551.038,1.213.085-.693,1.028-5.33,2.6a8.833,8.833,0,0,1-.536-1.105Zm.707,1.329,1.094-.533-.087,1.237-3.317,4.917a8.824,8.824,0,0,1-1.015-.692Zm.968,1.254-.38,5.432a8.733,8.733,0,0,1-2.657-.93Zm-1.848-11.515a8.745,8.745,0,0,1,2.765-.527l-.379,5.42Zm2.527,6.835.062-.9.4.828-.177.263Zm.135.424-.041.06-.127-.009.011-.157Zm-.367,1.822.073.005.056.114-.142.069Zm-.036.507.285-.139.153.314-.5.745Zm.786-2.4.088-.131.083.17-.066.032Zm.419-.081-.153-.314.5-.744-.064.919Zm.263.179-.013.189-.073,0-.056-.115Zm-.212,1.96-.011.157-.157-.106.041-.06Zm-.322.28.289.195-.063.9-.4-.828Zm.8-2.032.025-.348.807-.394-.515.764Zm.237.915-.17.083-.032-.066.071-.106Zm-.1-.628-.106.157-.06-.04.009-.127Zm-.2,1.081.069.142-.189-.013.005-.073Zm.209.428.393.807-.764-.515.022-.316Zm.039-.549.313-.153.745.5-.919-.064Zm.073-.648.2-.289.9.062-.828.4Zm.373-.553.693-1.027,5.33-2.6a8.792,8.792,0,0,1,.536,1.105l-5.346,2.607Zm.506-1.243-1.093.533.087-1.237,3.317-4.917a8.782,8.782,0,0,1,1.015.692Zm-.968-1.254.38-5.433a8.736,8.736,0,0,1,2.657.93Zm-.5,6.072.085-1.214,1.028.693,2.6,5.33a8.834,8.834,0,0,1-1.1.536Zm2.348,5.443a8.725,8.725,0,0,1-2.765.527l.379-5.419Zm-1.553-7.244,1.237.087,4.917,3.317a8.79,8.79,0,0,1-.692,1.015l-4.929-3.325Zm1.787.125,5.432.38a8.73,8.73,0,0,1-.931,2.657Zm.144-1.775,4.892-2.386a8.746,8.746,0,0,1,.527,2.765Zm4.116-3.988-4.879,2.38,3.043-4.511A8.888,8.888,0,0,1,691.425,923.735Zm-6.237-4.107-.415,5.932-.68,1.008-.543-1.114.414-5.918c.191,0,.383.006.577.019C684.759,919.571,684.974,919.6,685.188,919.628Zm-5.869,1.214,2.379,4.879-4.511-3.043A8.878,8.878,0,0,1,679.319,920.842Zm-2.893,12.106,4.879-2.379-3.043,4.51A8.866,8.866,0,0,1,676.426,932.948Zm6.237,4.107.415-5.932.68-1.009.544,1.114-.414,5.918c-.191,0-.383-.006-.577-.019C683.093,937.111,682.877,937.085,682.663,937.055Zm5.869-1.214-2.379-4.878,4.51,3.042A8.877,8.877,0,0,1,688.532,935.841Zm-29.914-9.269c-.015.219-.041.434-.072.648l-5.932-.415-1.009-.681,1.114-.543,5.917.414C658.637,926.186,658.632,926.378,658.618,926.572Zm-8.825.477-.088.131-.083-.17.065-.032Zm-8.745-1.706c.015-.219.041-.434.072-.648l5.932.415,1.009.68-1.115.544-5.917-.414C641.03,925.728,641.035,925.537,641.048,925.343Zm7.3.307-.744-.5.919.064.139.285Zm.435.1.032.066-.071.106-.131-.088Zm-.194.4-.2.289-.9-.063.828-.4Zm-.055.576.316.022-.025.348-.807.393Zm.178-.264.106-.157.06.041-.009.128Zm.2-1.081-.069-.142.189.013,0,.073Zm-.209-.428-.394-.807.764.515-.022.316Zm-.636-1.3-2.6-5.33a8.8,8.8,0,0,1,1.105-.536l2.607,5.346-.085,1.214Zm.318,1.281-1.237-.087-4.918-3.317a8.872,8.872,0,0,1,.692-1.015l4.929,3.325Zm-1.788-.125-5.432-.38a8.738,8.738,0,0,1,.93-2.657Zm-.144,1.774-4.892,2.386a8.744,8.744,0,0,1-.527-2.765Zm.551.039,1.213.085-.693,1.028-5.331,2.6a8.849,8.849,0,0,1-.536-1.105Zm.707,1.328,1.093-.533-.086,1.237-3.317,4.917a8.827,8.827,0,0,1-1.015-.692Zm.968,1.254-.38,5.432a8.734,8.734,0,0,1-2.657-.93Zm-1.848-11.515a8.73,8.73,0,0,1,2.765-.527l-.379,5.419Zm2.527,6.835.062-.9.4.828-.177.263Zm.135.424-.041.06-.127-.009.011-.157Zm-.367,1.822.073.005.056.115-.142.069Zm-.036.507.285-.139.153.314-.5.745Zm.785-2.4.088-.131.083.17-.065.032Zm.419-.081-.153-.313.5-.745-.064.919Zm.263.179-.013.189-.073-.005-.056-.115Zm-.212,1.96-.011.157-.157-.106.041-.06Zm-.322.28.289.2-.063.9-.4-.828Zm.8-2.031.024-.348.807-.394-.515.764Zm.237.914-.17.083-.032-.065.071-.106Zm-.1-.628-.106.157-.06-.041.009-.127Zm-.2,1.08.069.142-.189-.013.005-.073Zm.209.428.394.807-.764-.515.022-.316Zm.039-.549.313-.153.744.5-.919-.064Zm.073-.648.2-.289.9.062-.828.4Zm.373-.553.693-1.028,5.33-2.6a8.816,8.816,0,0,1,.536,1.105l-5.346,2.607Zm.506-1.243-1.093.534.087-1.237,3.317-4.917a8.744,8.744,0,0,1,1.015.692Zm-.968-1.254.38-5.433a8.728,8.728,0,0,1,2.657.931Zm-.5,6.072.085-1.214,1.028.693,2.6,5.33a8.833,8.833,0,0,1-1.105.536Zm2.348,5.443a8.735,8.735,0,0,1-2.765.527l.379-5.419Zm-1.553-7.244,1.237.086,4.917,3.317a8.775,8.775,0,0,1-.692,1.014l-4.929-3.324Zm1.787.125,5.432.38a8.733,8.733,0,0,1-.93,2.657Zm.144-1.774,4.892-2.386a8.735,8.735,0,0,1,.527,2.765Zm4.116-3.988-4.879,2.38,3.042-4.511A8.88,8.88,0,0,1,657.333,921.351Zm-6.237-4.107-.415,5.932-.68,1.009-.543-1.114.414-5.918c.191,0,.383.006.577.019C650.666,917.188,650.882,917.214,651.1,917.244Zm-5.869,1.214,2.379,4.879-4.511-3.043A8.882,8.882,0,0,1,645.227,918.458Zm-2.893,12.106,4.879-2.379-3.043,4.51A8.874,8.874,0,0,1,642.334,930.564Zm6.237,4.107.415-5.932.68-1.009.543,1.114-.414,5.917c-.191,0-.383-.006-.577-.019C649,934.727,648.785,934.7,648.571,934.671Zm5.869-1.214-2.379-4.879,4.51,3.043A8.883,8.883,0,0,1,654.44,933.457Z" transform="translate(-641.029 -917.153)" fill="#f0f0f0"/>
                </g>
              </g>
            </g>
            <path id="path-17" data-name="path" d="M632.351,919.587l1.148-1.9a.418.418,0,0,0-.715-.432l-1.148,1.9a.418.418,0,0,0,.715.433Z" transform="translate(-631.298 -901.86)" fill="#c30a23"/>
            <path id="compound-path-38" data-name="compound-path" d="M654.016,920.218a11.681,11.681,0,0,0-8.9-13.779,11.445,11.445,0,0,0-13.62,8.886.414.414,0,1,1-.81-.169,12.273,12.273,0,0,1,14.605-9.527,12.511,12.511,0,0,1,9.539,14.757ZM665.3,917.69a11.446,11.446,0,0,1,13.62-8.886.414.414,0,0,0,.175-.809,12.274,12.274,0,0,0-14.606,9.527.415.415,0,0,0,.321.49.437.437,0,0,0,.056.008A.414.414,0,0,0,665.3,917.69ZM660.885,920a2.931,2.931,0,0,1-3.244,2.862c-4.644-.325-12.445-2.156-15.088-4.036-.79-.562-1.011-1.541.042-1.854,1.567-.464,11.876-.221,15.145-.16A2.946,2.946,0,0,1,660.885,920Zm-9.043-1.653c-2.563-.194-6.862-.645-9.024-.774a.237.237,0,0,0-.083.464,66.75,66.75,0,0,0,8.989,1.939C652.908,920.194,652.954,918.247,651.842,918.342Z" transform="translate(-630.673 -893.737)" fill="#d7563f"/>
            <path id="compound-path-39" data-name="compound-path" d="M684.27,906.341a2.76,2.76,0,1,1,2.945-2.561A2.763,2.763,0,0,1,684.27,906.341Zm19.622-2.536-1.036.379a96.351,96.351,0,0,1-4.31-13.968l-11.709,11.423a2.622,2.622,0,0,0-.848-.71L698.3,888.913c-.055-.3-.106-.611-.155-.915-3.161,2.885-11.1,8.618-15.005,8.887l.93,3.641c-.33-.008-.715-.015-1.145-.022-.312-1.222-2.068-8.1-2.338-9.167l1.07-.273,1.2,4.722c3.387.034,12.258-6.257,15.092-9.125a32.622,32.622,0,0,1-.308-4.779l1.1.019C698.624,888.988,702.007,898.659,703.892,903.8Zm-22.873-10.779-.165-.652-10.827,8.186-.909.686c-.324.341.052.591.4.571l9.558,1.586a.946.946,0,0,0,.15-.53L670,901.347C673.095,899.009,680.746,893.233,681.019,893.026Z" transform="translate(-657.257 -877.46)" fill="#d7563f"/>
            <path id="compound-path-40" data-name="compound-path" d="M684.487,887.108l1.2.42-.272.787-1.2-.422Zm1.673.586-.272.787,1.221.427.274-.787Zm-1.208,5.949a1.095,1.095,0,1,0-1.168,1.016A1.1,1.1,0,0,0,684.953,893.642Zm25.912-21.188s-10.921-.189-11.909-.208a.279.279,0,0,0-.279.3l.291,2.91c-.06.017-.341.044-.622.07.021.177.041.356.064.536.093.711.206,1.435.339,2.163.032.18.066.362.1.544l.444-.039.169,1.691a.275.275,0,0,0,.27.249c.838.014,7.963.139,10.065.175a.274.274,0,0,0,.278-.238l1.06-7.842A.276.276,0,0,0,710.865,872.454Zm-4.123,7.711.409-7.223,1.421.025-.7,7.3-1.135-.02Zm-2.245.039-1.136-.02c0-.11-.156-7.2-.159-7.311l1.422.025Zm-3.268-7.365,1.421.025c0,.11.156,7.2.158,7.311l-1.135-.02Zm-1.992,5.346-.489.044c-.133-.728-.246-1.452-.339-2.163l.6-.054C699.016,876.09,699.238,878.165,699.237,878.185Zm.019-5.38,1.419.025.444,7.316-1.133-.02S699.286,873.094,699.256,872.8Zm5.92.1,1.422.025c-.005.1-.408,7.2-.414,7.3l-1.136-.02Zm4.383,7.385-1.133-.02.7-7.3,1.419.025Zm-26.051,18.946-2.9-1.013-.275.786,2.9,1.013Zm13.016-30.632a1.175,1.175,0,0,1-.087.406.306.306,0,0,1-.552,0l-3.273.057a.491.491,0,0,1-.5-.482l-.007-.419a.491.491,0,0,1,.483-.5l3.283-.057a.305.305,0,0,1,.523-.039.669.669,0,0,1,.12.373ZM685.669,879.9a.636.636,0,0,0,.479-.753,1.92,1.92,0,0,0-2.251-1.506c-2.769.368-5.067-2.256-6.738-1.2s-1.569,2.818.407,3.366A21.737,21.737,0,0,0,685.669,879.9Zm-15.956,24.544a.491.491,0,0,0,.453.429h0a.491.491,0,0,0,.522-.548l-1.543-12.771a.51.51,0,0,0-.548-.449.524.524,0,0,0-.466.57Z" transform="translate(-656.656 -867.438)" fill="#807878"/>
            <path id="compound-path-41" data-name="compound-path" d="M661.522,888.977l-1.066,3.076a3.106,3.106,0,0,0-.478-.151l1.071-3.091Zm12.953-18.628c-.038-.459-.638-1.089-1.857-1.059l-.744.009.01.553.745-.01c.074,0,.14,0,.208.007l-.856.856c-.514.032-2.371.211-2.757,1.1a.275.275,0,0,0,.142.363.305.305,0,0,0,.09.022.278.278,0,0,0,.273-.166c.2-.473,1.518-.739,2.383-.774l.108-.006,1.259-1.257c.294.126.437.306.446.408s-.349.3-.519.4c-.362.2-.738.417-.745.792,0,.335,0,1.144,0,1.569l.554.009c0-.418-.007-1.238,0-1.562.029-.08.312-.242.464-.327C674.069,871.05,674.512,870.8,674.475,870.35Zm-18.518,11.133c-.218-.011-.434-.024-.645-.041l.278,1.1.592-.152Zm-6.365-1.938-13.23-.925a.414.414,0,0,0-.058.826l12.953.906,4.98,4.327.655-.5Zm-15.128,4.617a.46.46,0,0,0-.645.15l-1.142,1.9a.456.456,0,0,0,.046.538.432.432,0,0,0,.129.1.46.46,0,0,1,.48-.226,12.249,12.249,0,0,1,1.253-1.833A.47.47,0,0,1,634.464,884.161Zm24.787,10.276a.413.413,0,0,0-.441.385.405.405,0,0,0,.07.257l-1.679,4.861.471.163,1.679-4.858a.414.414,0,0,0-.1-.807Zm19.553.762a.69.69,0,1,1-.64-.737A.69.69,0,0,1,678.8,895.2Zm-34.737-3.121a.69.69,0,1,0,.64.737A.69.69,0,0,0,644.066,892.078Z" transform="translate(-632.017 -868.723)" fill="#828282"/>
          </g>
          <g id="tire-3" data-name="tire" transform="translate(96.931 37.551)">
            <path id="path-18" data-name="path" d="M486.153,943.416a8.2,8.2,0,0,0-3.5,7.22c.4,3.529,2.346,5.386,4.758,5.96a6.477,6.477,0,0,1-.845-.341,8.181,8.181,0,0,1,2.792-7.98c2.491-2.276,6.1-3.365,9.166-1.875C497.146,940.263,490.4,940.215,486.153,943.416Z" transform="translate(-478.525 -937.386)" fill="#1e1e1e"/>
            <path id="compound-path-42" data-name="compound-path" d="M470.518,936.329a10.456,10.456,0,0,0-1.028,7.468,18.034,18.034,0,0,0,3.733,7.474,14.049,14.049,0,0,0,8.184,4.826,13.782,13.782,0,0,0,11.879-4.447c2.2-2.266,4.069-6.169,3.751-9.406a18.692,18.692,0,0,0-.318-2.375c-.474-2.428-2.975-5.935-3.019-5.988a12.127,12.127,0,0,0-12.854-5.1A14.784,14.784,0,0,0,470.518,936.329Zm19.606-5.24a10.341,10.341,0,0,1,3.084,6.739,12.721,12.721,0,0,1-1.842,7.131c-3.857,5.935-13.369,9.216-18.954,3.949-3.1-3.1-3.439-7.719-1.862-11.733a16.369,16.369,0,0,1,7.734-7.274C482.083,928.255,486.936,928.165,490.124,931.089Z" transform="translate(-469.229 -928.493)" fill="#2b2a2a"/>
            <path id="compound-path-43" data-name="compound-path" d="M470.215,943.08c-1.082-13.482,21.875-20.487,23.651-4.667C494.95,951.895,471.991,958.9,470.215,943.08Zm3.8-.751c1.2,10.736,16.783,5.985,16.05-3.166-1.2-10.733-16.782-5.984-16.05,3.166Z" transform="translate(-469.887 -929.079)" fill="#3c3939"/>
          </g>
        </g>
      </g>
      <g id="document" transform="translate(376.55 348.04)">
        <path id="bg-7" data-name="bg" d="M882.388,573.059l104.606,10.995L972.214,730.442l-104.618-11a1.434,1.434,0,0,1-1.276-1.57l14.493-143.536A1.433,1.433,0,0,1,882.388,573.059Z" transform="translate(-866.312 -573.052)" fill="#ba9262"/>
        <path id="path-19" data-name="path" d="M1034.6,622.779l.881-8.605,39.159,4.116-.862,8.709Z" transform="translate(-987.858 -602.753)" fill="#b4b4b4"/>
        <rect id="bg-8" data-name="bg" width="122.864" height="84.214" transform="matrix(0.105, -0.995, 0.995, 0.105, 12.216, 135.935)" fill="#fff"/>
        <path id="compound-path-44" data-name="compound-path" d="M1011.512,701.348c-.038,0-.076,0-.115-.006l-3.564-.379a1.075,1.075,0,1,1,.227-2.138l3.563.379a1.075,1.075,0,0,1-.112,2.144Zm38.951,3.064a1.075,1.075,0,0,0-.955-1.183l-6.314-.671a1.075,1.075,0,0,0-.227,2.138l6.313.671a1.074,1.074,0,0,0,1.183-.955Zm-12.628-1.342a1.075,1.075,0,0,0-.955-1.183l-6.314-.671a1.075,1.075,0,1,0-.227,2.138l6.314.671c.039,0,.077.006.115.006A1.075,1.075,0,0,0,1037.835,703.07Zm-12.628-1.342a1.075,1.075,0,0,0-.955-1.183l-6.314-.671a1.075,1.075,0,0,0-.227,2.138l6.314.671a1.126,1.126,0,0,0,.115.006A1.075,1.075,0,0,0,1025.207,701.729Zm35.133,3.733a1.075,1.075,0,0,0-.955-1.183l-3.563-.379a1.075,1.075,0,1,0-.227,2.138l3.563.378a1.111,1.111,0,0,0,.115.006A1.075,1.075,0,0,0,1060.339,705.461Zm-49.023,7.206a1.075,1.075,0,0,0-.955-1.183l-3.563-.379a1.075,1.075,0,0,0-.227,2.138l3.564.379c.038,0,.077.006.115.006A1.075,1.075,0,0,0,1011.316,712.668Zm37.883,4.025a1.075,1.075,0,0,0-.955-1.183l-6.314-.671a1.075,1.075,0,1,0-.227,2.138l6.314.671c.039,0,.077.006.115.006A1.075,1.075,0,0,0,1049.2,716.693Zm-12.628-1.341a1.075,1.075,0,0,0-.955-1.183l-6.314-.671a1.075,1.075,0,0,0-.227,2.138l6.314.671a1.117,1.117,0,0,0,.115.006A1.075,1.075,0,0,0,1036.572,715.351Zm-12.628-1.342a1.075,1.075,0,0,0-.955-1.183l-6.314-.671a1.075,1.075,0,0,0-.227,2.138l6.314.671a1.113,1.113,0,0,0,.115.006A1.075,1.075,0,0,0,1023.944,714.01Zm35.133,3.733a1.075,1.075,0,0,0-.955-1.183l-3.563-.379a1.075,1.075,0,0,0-.227,2.138l3.563.379q.058.006.115.006A1.075,1.075,0,0,0,1059.077,717.742Zm-48.9,7.206a1.075,1.075,0,0,0-.956-1.183l-3.563-.379a1.075,1.075,0,0,0-.227,2.138l3.563.379a1.141,1.141,0,0,0,.115.006A1.075,1.075,0,0,0,1010.174,724.949Zm37.883,4.025a1.075,1.075,0,0,0-.955-1.183l-6.314-.671a1.075,1.075,0,0,0-.227,2.138l6.314.671c.039,0,.077.006.115.006A1.075,1.075,0,0,0,1048.057,728.974Zm-12.628-1.342a1.075,1.075,0,0,0-.955-1.183l-6.314-.671a1.075,1.075,0,0,0-.227,2.138l6.314.671a1.091,1.091,0,0,0,.115.006A1.075,1.075,0,0,0,1035.429,727.632ZM1022.8,726.29a1.075,1.075,0,0,0-.955-1.183l-6.314-.671a1.075,1.075,0,0,0-.227,2.138l6.314.671c.039,0,.077.006.115.006A1.075,1.075,0,0,0,1022.8,726.29Zm35.133,3.733a1.074,1.074,0,0,0-.955-1.183l-3.563-.379a1.075,1.075,0,0,0-.227,2.138l3.563.379c.038,0,.077.006.115.006A1.075,1.075,0,0,0,1057.934,730.024Zm-49.2,7.206a1.075,1.075,0,0,0-.955-1.183l-3.563-.379a1.075,1.075,0,1,0-.227,2.138l3.563.379a1.143,1.143,0,0,0,.115.006A1.075,1.075,0,0,0,1008.73,737.23Zm37.883,4.025a1.075,1.075,0,0,0-.956-1.183l-6.314-.671a1.075,1.075,0,0,0-.227,2.138l6.314.671a1.1,1.1,0,0,0,.115.006A1.076,1.076,0,0,0,1046.613,741.255Zm-12.628-1.342a1.075,1.075,0,0,0-.955-1.183l-6.314-.671a1.075,1.075,0,1,0-.227,2.138l6.314.671c.039,0,.077.006.115.006A1.075,1.075,0,0,0,1033.985,739.913Zm-12.628-1.341a1.075,1.075,0,0,0-.955-1.183l-6.314-.671a1.075,1.075,0,0,0-.227,2.138l6.314.671a1.144,1.144,0,0,0,.115.006A1.075,1.075,0,0,0,1021.357,738.572Zm35.133,3.732a1.075,1.075,0,0,0-.955-1.183l-3.563-.379a1.075,1.075,0,0,0-.227,2.138l3.563.379c.039,0,.077.006.115.006A1.075,1.075,0,0,0,1056.49,742.3Zm-49.044,7.207a1.075,1.075,0,0,0-.956-1.183l-3.563-.379a1.075,1.075,0,0,0-.227,2.138l3.563.379c.039,0,.077.006.115.006A1.075,1.075,0,0,0,1007.447,749.511Zm37.883,4.025a1.075,1.075,0,0,0-.956-1.183l-6.313-.671a1.075,1.075,0,0,0-.227,2.138l6.314.671a1.111,1.111,0,0,0,.115.006A1.075,1.075,0,0,0,1045.33,753.536Zm-12.628-1.342a1.075,1.075,0,0,0-.955-1.183l-6.314-.671a1.075,1.075,0,0,0-.227,2.138l6.314.671a1.137,1.137,0,0,0,.115.006A1.075,1.075,0,0,0,1032.7,752.194Zm-12.628-1.342a1.075,1.075,0,0,0-.955-1.183l-6.314-.671a1.075,1.075,0,0,0-.227,2.138l6.314.671a1.074,1.074,0,0,0,1.183-.956Zm35.133,3.733a1.075,1.075,0,0,0-.955-1.183l-3.563-.379a1.075,1.075,0,1,0-.227,2.138l3.563.379c.038,0,.077.006.115.006A1.074,1.074,0,0,0,1055.207,754.586Zm-49.124,7.206a1.075,1.075,0,0,0-.956-1.183l-3.563-.379a1.075,1.075,0,0,0-.227,2.138l3.563.378a1.123,1.123,0,0,0,.115.006A1.075,1.075,0,0,0,1006.083,761.792Zm37.883,4.025a1.075,1.075,0,0,0-.956-1.183l-6.314-.671a1.075,1.075,0,0,0-.227,2.138l6.314.671a1.117,1.117,0,0,0,.115.006A1.075,1.075,0,0,0,1043.967,765.817Zm-12.628-1.342a1.075,1.075,0,0,0-.956-1.183l-6.314-.671a1.075,1.075,0,1,0-.227,2.138l6.314.671a1.056,1.056,0,0,0,.115.006A1.075,1.075,0,0,0,1031.339,764.475Zm-12.628-1.342a1.075,1.075,0,0,0-.955-1.182l-6.314-.671a1.075,1.075,0,0,0-.227,2.138l6.314.671c.039,0,.077.006.115.006A1.075,1.075,0,0,0,1018.711,763.134Zm35.133,3.733a1.075,1.075,0,0,0-.955-1.183l-3.563-.379a1.075,1.075,0,0,0-.227,2.138l3.563.378a1.055,1.055,0,0,0,.115.006A1.075,1.075,0,0,0,1053.844,766.866Zm-48.964,7.207a1.075,1.075,0,0,0-.955-1.183l-3.563-.379a1.075,1.075,0,0,0-.227,2.138l3.563.379a1.147,1.147,0,0,0,.115.006A1.075,1.075,0,0,0,1004.881,774.073Zm37.883,4.025a1.075,1.075,0,0,0-.955-1.183l-6.314-.671a1.075,1.075,0,1,0-.227,2.138l6.314.671a1.125,1.125,0,0,0,.115.006A1.075,1.075,0,0,0,1042.764,778.1Zm-12.628-1.342a1.075,1.075,0,0,0-.955-1.183l-6.314-.671a1.075,1.075,0,0,0-.227,2.138l6.314.671a1.136,1.136,0,0,0,.115.006A1.075,1.075,0,0,0,1030.136,776.756Zm-12.628-1.341a1.075,1.075,0,0,0-.955-1.183l-6.314-.671a1.075,1.075,0,0,0-.227,2.138l6.314.671a1.142,1.142,0,0,0,.115.006A1.075,1.075,0,0,0,1017.508,775.415Zm35.133,3.733a1.075,1.075,0,0,0-.956-1.183l-3.563-.378a1.075,1.075,0,0,0-.227,2.138l3.563.379a1.132,1.132,0,0,0,.115.006A1.075,1.075,0,0,0,1052.641,779.148Zm-49.124,7.206a1.076,1.076,0,0,0-.955-1.183L999,784.793a1.075,1.075,0,0,0-.227,2.138l3.563.379q.058.006.115.006A1.075,1.075,0,0,0,1003.517,786.354Zm37.883,4.025a1.075,1.075,0,0,0-.955-1.183l-6.314-.671a1.075,1.075,0,0,0-.227,2.138l6.314.671c.038,0,.077.006.115.006A1.075,1.075,0,0,0,1041.4,790.379Zm-12.628-1.342a1.075,1.075,0,0,0-.955-1.183l-6.314-.671a1.075,1.075,0,0,0-.227,2.138l6.314.671a1.111,1.111,0,0,0,.115.006A1.075,1.075,0,0,0,1028.773,789.038Zm-12.628-1.342a1.075,1.075,0,0,0-.955-1.183l-6.314-.671a1.075,1.075,0,0,0-.227,2.138l6.314.671a1.075,1.075,0,0,0,1.183-.956Zm35.133,3.733a1.075,1.075,0,0,0-.955-1.183l-3.563-.379a1.075,1.075,0,0,0-.227,2.138l3.563.379a1.114,1.114,0,0,0,.115.006A1.075,1.075,0,0,0,1051.278,791.429Z" transform="translate(-961.288 -663.889)"/>
        <path id="compound-path-45" data-name="compound-path" d="M965.279,702.9c.624.591-7.172,9.512-7.4,9.794a1.547,1.547,0,0,1-2.442-.248,68.926,68.926,0,0,1-3.715-6.609c-.343-.816.706-1.631,1.321-.995,1.034,1.069,3.864,4.63,3.864,4.63S964.655,702.308,965.279,702.9Zm-10.514,31.025s-2.83-3.562-3.864-4.63c-.616-.636-1.664.179-1.322,1a69.065,69.065,0,0,0,3.715,6.609,1.547,1.547,0,0,0,2.442.248c.234-.282,8.029-9.2,7.4-9.794S954.765,733.924,954.765,733.924Zm-2.138,24.452s-2.83-3.562-3.865-4.63c-.616-.636-1.664.179-1.321,1a69.02,69.02,0,0,0,3.715,6.609,1.547,1.547,0,0,0,2.442.248c.233-.282,8.029-9.2,7.405-9.794S952.627,758.377,952.627,758.377Zm-2.138,24.453s-2.83-3.562-3.865-4.631c-.616-.636-1.664.179-1.321.995a68.984,68.984,0,0,0,3.715,6.609,1.547,1.547,0,0,0,2.442.248c.233-.282,8.029-9.2,7.405-9.794S950.489,782.829,950.489,782.829Z" transform="translate(-923.316 -666.81)" fill="#15a58e"/>
        <path id="compound-path-46" data-name="compound-path" d="M1031.365,620.776l.968-9.457a.429.429,0,0,1,.471-.383l40.01,4.205a.429.429,0,0,1,.382.469l-.947,9.563a.429.429,0,0,1-.472.384l-40.031-4.312A.428.428,0,0,1,1031.365,620.776Zm39.5,3.175.735-7.428-37.883-3.981-.75,7.328Z" transform="translate(-985.522 -600.413)" fill="#6e6e6e"/>
        <path id="compound-path-47" data-name="compound-path" d="M1032.09,624.853A1.038,1.038,0,0,1,1033,626l-.328,3.121a.519.519,0,0,0,.457.573l3.221.339a1.045,1.045,0,0,1-.218,2.079l-4.759-.5a1.038,1.038,0,0,1-.914-1.147l.492-4.679A1.039,1.039,0,0,1,1032.09,624.853Zm38.239,5.068-.328,3.12a.519.519,0,0,1-.566.466l-3.223-.339a1.045,1.045,0,0,0-.218,2.079l4.759.5a1.037,1.037,0,0,0,1.132-.932l.492-4.679a1.03,1.03,0,1,0-2.048-.215Z" transform="translate(-984.867 -610.462)" fill="#141414"/>
        <path id="path-20" data-name="path" d="M1262.391,612.666l.609.064a.716.716,0,0,1,.638.785L1249,758.477a.717.717,0,0,1-.788.641l-.6-.063Z" transform="translate(-1141.709 -601.664)" fill="#78502d"/>
      </g>
    </g>
  </g>
</svg>
