<svg id="ico_arrow_v" xmlns="http://www.w3.org/2000/svg" width="152.193" height="93.917" viewBox="0 0 152.193 93.917">
  <g id="合体_7" data-name="合体 7" transform="translate(-0.001 -0.003)" fill="#eb844e">
    <path d="M73.975,91.274,1.926,51.837a.93.93,0,0,1-.434-.49,1.047,1.047,0,0,1-.038-.612,1,1,0,0,1,.3-.523.888.888,0,0,1,.6-.222l19.181.017V3.216L127.223,1.861V50.1l22.4.02a1,1,0,0,1,.655.233,1.047,1.047,0,0,1,.334.547,1.034,1.034,0,0,1-.044.639,1,1,0,0,1-.474.511L74.877,91.285a.937.937,0,0,1-.109.048c-.036.013-.072.024-.111.034a.926.926,0,0,1-.114.02.979.979,0,0,1-.118.006.931.931,0,0,1-.115-.009.972.972,0,0,1-.116-.024c-.038-.011-.074-.022-.112-.036A1,1,0,0,1,73.975,91.274Z" stroke="none"/>
    <path d="M 74.42581939697266 92.89360046386719 C 74.32900238037109 92.89196014404297 74.23120880126953 92.88446807861328 74.1343994140625 92.87208557128906 C 74.03763580322266 92.85780334472656 73.94184875488281 92.83765411376953 73.8470458984375 92.81360626220703 C 73.75228881835938 92.78863525390625 73.65850830078125 92.75779724121094 73.56773376464844 92.72216796875 C 73.47598266601563 92.68556976318359 73.38720703125 92.64315795898438 73.30142974853516 92.59595489501953 L 1.277146458625793 53.13827896118164 C 1.0342618227005 53.00448608398438 0.8220047950744629 52.83387756347656 0.6441886425018311 52.6380500793457 C 0.4683028161525726 52.44226837158203 0.3249311447143555 52.21834945678711 0.2217109054327011 51.97591781616211 C 0.1184970065951347 51.73445510864258 0.05160254612565041 51.4754524230957 0.03057908825576305 51.20659637451172 C 0.007644718512892723 50.93771362304688 0.02675667591392994 50.65994262695313 0.09173893183469772 50.38091659545898 C 0.1586350053548813 50.10286331176758 0.2637628614902496 49.84831237792969 0.4013945460319519 49.62096786499023 C 0.5409491062164307 49.39458084106445 0.7130187153816223 49.19638061523438 0.9118764400482178 49.03390884399414 C 1.108844757080078 48.87042236328125 1.33452582359314 48.74173736572266 1.575541257858276 48.65439605712891 C 1.820416450500488 48.56706619262695 2.082549571990967 48.5201530456543 2.356205940246582 48.52024459838867 L 20.12105560302734 48.52816009521484 L 20.12105560302734 3.233672618865967 L 20.12105560302734 1.757179975509644 L 21.53728485107422 1.738677024841309 L 127.2228317260742 0.3380817174911499 L 128.7304382324219 0.3183892965316772 L 128.7304382324219 1.841896891593933 L 128.7304382324219 48.57866668701172 L 149.6222686767578 48.58765029907227 C 149.9202728271484 48.5877571105957 150.2058258056641 48.63759231567383 150.4725799560547 48.72806549072266 C 150.736328125 48.81953430175781 150.9813079833984 48.95366668701172 151.1960601806641 49.12432098388672 C 151.4129943847656 49.29504776000977 151.6017150878906 49.50231552124023 151.7529907226563 49.73905563354492 C 151.9041900634766 49.97578811645508 152.0210571289063 50.24202728271484 152.0930633544922 50.53261184692383 C 152.1629180908203 50.82415008544922 152.1848602294922 51.11403274536133 152.1587829589844 51.39522552490234 C 152.1347808837891 51.67644119262695 152.0628509521484 51.94798278808594 151.9512023925781 52.19893646240234 C 151.8384857177734 52.45084381103516 151.6831512451172 52.68417358398438 151.4901885986328 52.88894271850586 C 151.2972412109375 53.09368896484375 151.0668334960938 53.26991271972656 150.8019866943359 53.40863800048828 L 75.55289459228516 92.62484741210938 C 75.46501922607422 92.67037200927734 75.37516021728516 92.71096801757813 75.28429412841797 92.74468231201172 C 75.19245147705078 92.77838134765625 75.09957122802734 92.80613708496094 75.00376129150391 92.82901000976563 C 74.90890502929688 92.85086059570313 74.81404876708984 92.86782836914063 74.71723937988281 92.87990570068359 C 74.61943054199219 92.88999176025391 74.52260589599609 92.89421844482422 74.42581939697266 92.89360046386719 Z M 4.265368938446045 51.46094131469727 L 74.42581939697266 89.83012390136719 L 147.5472717285156 51.65042114257813 L 127.2228317260742 51.62339401245117 L 125.7175598144531 51.62113189697266 L 125.7175598144531 50.09892654418945 L 125.7175598144531 3.402164459228516 L 22.95467948913574 4.675596714019775 L 22.95467948913574 50.00772094726563 L 22.95467948913574 51.48543930053711 L 21.53728485107422 51.48330688476563 L 4.265368938446045 51.46094131469727 Z" stroke="none" fill="#fff"/>
  </g>
  <path id="AFTER" d="M.535,33.216l3.726,0,.886-5.193h3.79l.861,5.2,3.692,0L9.125,10.7l-4.247.022Zm5.015-7.8,1.478-9.451,1.479,9.448Zm10.127,7.819,3.976.005V22.949l4.12-.007V20.065l-4.12.01V13.493l5.043-.022V10.621l-9.019.047Zm13.4.018,4.034.005V13.63l3.442-.015V10.559l-10.984.057v3.046l3.508-.015Zm9.5.013,9.387.012v-2.84l-5.358,0V22.883l4.175-.007v-2.9l-4.175.01V13.448l5.3-.023V10.5l-9.332.049Zm11.755.016,4.056.005V22.835l1.935,0L59,33.294l4.1.005L59.973,22.035a4.2,4.2,0,0,0,1.322-.851,4.007,4.007,0,0,0,.855-1.221,6.112,6.112,0,0,0,.46-1.57,11.746,11.746,0,0,0,.137-1.9,7.853,7.853,0,0,0-.469-2.889,4.317,4.317,0,0,0-1.369-1.865,5.632,5.632,0,0,0-2.209-1,12.869,12.869,0,0,0-2.989-.285l-5.382.028Zm4.056-13.039V13.312l1.52-.007a4.28,4.28,0,0,1,1.459.206,2,2,0,0,1,.917.637,2.6,2.6,0,0,1,.476,1.073,7.024,7.024,0,0,1,.136,1.513,6.253,6.253,0,0,1-.171,1.583,2.591,2.591,0,0,1-.552,1.089,2.249,2.249,0,0,1-.993.63,4.778,4.778,0,0,1-1.493.2Z" transform="translate(41.612 18.276)" fill="#fff"/>
</svg>
