<svg xmlns="http://www.w3.org/2000/svg" xmlns:xlink="http://www.w3.org/1999/xlink" width="140" height="140" viewBox="0 0 140 140">
  <defs>
    <clipPath id="clip-path">
      <circle id="楕円形_489" data-name="楕円形 489" cx="70" cy="70" r="70" transform="translate(0 0.477)" fill="#f7f3e5"/>
    </clipPath>
  </defs>
  <g id="trouble_04" transform="translate(-60 -0.477)">
    <circle id="楕円形_522" data-name="楕円形 522" cx="70" cy="70" r="70" transform="translate(60 0.477)" fill="#f7f3e5"/>
    <g id="img" transform="translate(60)" clip-path="url(#clip-path)">
      <g id="グループ_7173" data-name="グループ 7173" transform="translate(-700.988 -72.674)">
        <g id="グループ_7172" data-name="グループ 7172" transform="translate(711.855 92.393)">
          <g id="グループ_7171" data-name="グループ 7171" transform="translate(0 0)">
            <g id="グループ_7170" data-name="グループ 7170">
              <path id="パス_78027" data-name="パス 78027" d="M774.514,199.556l2.972-2.642,24.269.165,6.109,16.84L801.908,279.1l-23.038,0-13.7-.066Z" transform="translate(-736.019 -142.445)" fill="#8daed9"/>
              <path id="パス_78028" data-name="パス 78028" d="M800.1,211.568a16.183,16.183,0,0,1-3.625-.428c-6.859-1.571-10.712-9.3-10.873-9.63a.53.53,0,0,1,.953-.466c.037.076,3.8,7.606,10.156,9.063,11.254,2.579,15.763-8.254,15.808-8.363a.53.53,0,0,1,.984.4C813.458,202.245,809.574,211.568,800.1,211.568Z" transform="translate(-745.251 -144.181)" fill="#7f9dc3"/>
              <path id="パス_78029" data-name="パス 78029" d="M849.677,278.048s.308-18.075.366-22.317c.313-21.895.7-49.992.715-50.623v-.01l-.125-.068-4.945-3.046A154.17,154.17,0,0,0,830.9,194.8l-.235,57.014-.124,26.332Z" transform="translate(-765.644 -141.484)" fill="#183358"/>
              <path id="パス_78030" data-name="パス 78030" d="M754.336,278.048s-.308-18.075-.366-22.317c-.313-21.895-.7-49.992-.715-50.623v-.01l.125-.068,4.946-3.046A154.074,154.074,0,0,1,773.11,194.8l.235,57.014.123,26.332Z" transform="translate(-730.617 -141.484)" fill="#183358"/>
              <path id="パス_78031" data-name="パス 78031" d="M848.235,202.932s10.972,3.99,14.3,7.481c4.477,4.7,10.972,50.372,10.972,50.372l-8.1,14.445s-13.33-26.779-13.33-27.444S848.235,202.932,848.235,202.932Z" transform="translate(-773.662 -145.172)" fill="#183358"/>
              <path id="パス_78032" data-name="パス 78032" d="M711.855,284.719c2.808-17.628,12.16-56.31,15.262-64.486a16.162,16.162,0,0,1,7.365-8.759c.042-.031,1.509-.595,1.551-.616,1.029-.632,2.094-1.22,3.175-1.768l8.527,23.652c-2.573,6.66-6.373,16.5-10.07,26.1-.349.908-.7,1.815-1.043,2.718-1.463,3.8-2.891,17.955-4.2,23.034Z" transform="translate(-711.855 -147.962)" fill="#183358"/>
              <path id="パス_78033" data-name="パス 78033" d="M882.054,284.719c-2.808-17.627-12.16-56.31-15.262-64.486a16.163,16.163,0,0,0-7.365-8.759c-.042-.031-1.509-.595-1.551-.616-1.029-.632-2.094-1.22-3.175-1.768l-8.527,23.652c2.573,6.66,6.373,16.5,10.07,26.1q.525,1.362,1.043,2.718c1.464,3.8,2.891,17.955,4.2,23.034Z" transform="translate(-772.728 -147.962)" fill="#183358"/>
              <path id="パス_78034" data-name="パス 78034" d="M812.514,186.148c-2.639-1-2.9-2.548-2.922-4.108l-.091-6.647-8.252.76h-.7l-8.252-.76-.09,6.647c-.021,1.56-.283,3.109-2.923,4.108-.45,1.356,2.319,4.208,3.37,5.214,2.916,2.791,5.294,3.881,8.241,4.113h.011c2.947-.231,5.324-1.321,8.24-4.113C810.2,190.356,812.965,187.5,812.514,186.148Z" transform="translate(-746.922 -132.691)" fill="#edbf98"/>
              <path id="パス_78035" data-name="パス 78035" d="M811.174,118.9a18.533,18.533,0,0,1,.2,3.381c-.048,5.42-.005,10.845-.093,16.267-.045,2.746-.166,3.7-.308,6.442-.12,2.408-1.011,5.352-2.894,7.046a33.925,33.925,0,0,1-4.374,3.36,8.967,8.967,0,0,1-9.418.324,25.559,25.559,0,0,1-5.064-3.263,12.915,12.915,0,0,1-3.991-7.406c-.323-2.733.121-3.181-.108-5.921-.448-5.41-.769-10.828-1.179-16.239a18.4,18.4,0,0,1-.028-3.4Z" transform="translate(-744.48 -107.087)" fill="#edbf98"/>
              <path id="パス_78036" data-name="パス 78036" d="M780.856,147.457c-2.527.674-4.326,2.625-4.259,4.887.077,2.759,3.428,6.99,6.839,6.913a4.029,4.029,0,0,0,.91-.126Z" transform="translate(-741.195 -120.031)" fill="#edbf98"/>
              <path id="パス_78037" data-name="パス 78037" d="M833.231,145.109c2.458-.017,4.573,1.306,5.074,3.372.615,2.52-1.373,7.188-4.484,7.964a3.814,3.814,0,0,1-.855.112Z" transform="translate(-766.742 -118.966)" fill="#edbf98"/>
              <path id="パス_78038" data-name="パス 78038" d="M772.582,122.575a4.506,4.506,0,0,0,.8,2.332c-.06-.812.3-1.269,1.362-2.56a9.436,9.436,0,0,0,.38,7.6s.64-.42.835-.532c1.774-1.01,2.829-.437,4.482.76a101.3,101.3,0,0,1,1.987-10.3,14.339,14.339,0,0,1,1.413-2.936,48.391,48.391,0,0,0,3.674-8.231,5.7,5.7,0,0,0,.288-3.96c-1.418-3.392-6.059-2.132-8.12-.305A20.439,20.439,0,0,0,772.582,122.575Z" transform="translate(-739.3 -99.708)" fill="#383228"/>
              <g id="グループ_7168" data-name="グループ 7168" transform="translate(43.951 31.518)">
                <path id="パス_78039" data-name="パス 78039" d="M796.168,157.127a1.944,1.944,0,0,1-2.112,1.818,2.034,2.034,0,0,1-1.818-2.18,1.949,1.949,0,0,1,2.113-1.818A2.029,2.029,0,0,1,796.168,157.127Z" transform="translate(-792.233 -154.939)" fill="#e9706e"/>
                <path id="パス_78040" data-name="パス 78040" d="M794.127,158.726a.386.386,0,0,1-.252-.126c-.29-.322-1.23-1.414-.971-1.912a.622.622,0,0,1,.384-.313c.456-.126,1.1.172,1.943.658.054.032.1.06.131.076s.062.032.087.048c-.014-.025-.029-.048-.046-.074-.033-.056-.073-.118-.112-.188-.212-.351-.646-1.09-.987-1.1a.392.392,0,0,1-.364-.405.375.375,0,0,1,.39-.364c.733.052,1.259.9,1.6,1.474l.108.176c.279.447.555.95.251,1.278s-.816.085-1.277-.171c-.034-.019-.089-.049-.15-.085a5.538,5.538,0,0,0-1.134-.549,8.382,8.382,0,0,0,.7.934.389.389,0,0,1-.018.543A.367.367,0,0,1,794.127,158.726Z" transform="translate(-792.517 -154.978)" fill="#e55a65"/>
              </g>
              <g id="グループ_7169" data-name="グループ 7169" transform="translate(60.472 30.324)">
                <path id="パス_78041" data-name="パス 78041" d="M826.382,154.945a1.942,1.942,0,0,1-2.111,1.816,2.035,2.035,0,0,1-1.818-2.177,1.95,1.95,0,0,1,2.112-1.82A2.03,2.03,0,0,1,826.382,154.945Z" transform="translate(-822.447 -152.757)" fill="#e9706e"/>
                <path id="パス_78042" data-name="パス 78042" d="M824.345,156.543a.369.369,0,0,1-.253-.124c-.294-.322-1.231-1.413-.972-1.912a.608.608,0,0,1,.386-.312c.452-.126,1.1.171,1.94.657.055.032.1.058.132.075s.058.032.086.047c-.014-.024-.029-.046-.046-.073-.034-.056-.072-.118-.113-.188-.211-.35-.644-1.089-.986-1.1a.392.392,0,0,1-.361-.4.37.37,0,0,1,.388-.364c.736.049,1.259.9,1.6,1.471l.11.177c.28.446.551.951.252,1.278s-.821.085-1.279-.17l-.148-.085a5.733,5.733,0,0,0-1.133-.552,8.019,8.019,0,0,0,.7.937.389.389,0,0,1-.018.543A.351.351,0,0,1,824.345,156.543Z" transform="translate(-822.732 -152.798)" fill="#e55a65"/>
              </g>
              <path id="パス_78043" data-name="パス 78043" d="M820.985,147.981a1.426,1.426,0,0,1-1.526,1.354,1.485,1.485,0,0,1-1.354-1.573,1.426,1.426,0,0,1,1.525-1.356A1.488,1.488,0,0,1,820.985,147.981Z" transform="translate(-760.006 -119.553)" fill="#0d0002"/>
              <path id="パス_78044" data-name="パス 78044" d="M800.889,149.529a1.426,1.426,0,0,1-1.525,1.356,1.487,1.487,0,0,1-1.355-1.574,1.426,1.426,0,0,1,1.526-1.355A1.486,1.486,0,0,1,800.889,149.529Z" transform="translate(-750.898 -120.255)" fill="#0d0002"/>
              <path id="パス_78045" data-name="パス 78045" d="M807.5,159.424a.388.388,0,0,1-.3-.391c-.021-.226.1-.418.263-.431l4.463-.19a52.96,52.96,0,0,0-2.348-7.5.536.536,0,0,1-.036-.522.246.246,0,0,1,.416-.078c.1.1.912,1.132,2.663,8.362a.56.56,0,0,1-.026.357.278.278,0,0,1-.221.174l-4.846.216A.254.254,0,0,1,807.5,159.424Z" transform="translate(-755.064 -121.288)" fill="#0d0002"/>
              <path id="パス_78046" data-name="パス 78046" d="M813.372,126.319a4.521,4.521,0,0,1,1.292-1.292c1.519-.76,1.911-.253,2.794.013.23.069,1.282-5.113,1.35-5.6a21.665,21.665,0,0,0-.117-5.583c-.56-6.021-5.3-11.532-10.407-14.585a14.714,14.714,0,0,0-17.472,2.051c-1.59,1.538.5,2.5-.133,4.555a18.513,18.513,0,0,0-.413,2.767c-.171,1.085-.6,2.111-.743,3.2a12.362,12.362,0,0,0,2.24,8.843,3.753,3.753,0,0,0,2.847,1.821,3.207,3.207,0,0,1-.505-.9,5.253,5.253,0,0,0,3.277,1.786,7.475,7.475,0,0,1-.934-9.059,9.243,9.243,0,0,0,1.156,4.955,6.524,6.524,0,0,0,2.4,2.771,7.47,7.47,0,0,0,4.554,1.433,1.8,1.8,0,0,1-.72-.922,4,4,0,0,0,3.444.773,11.73,11.73,0,0,1-1.827-10.389,19.911,19.911,0,0,0,.869,6.623,6.748,6.748,0,0,0,4.637,4.45,15.505,15.505,0,0,1-.438-5.41c.036-.377.288-.88.635-.728A32.4,32.4,0,0,1,813.372,126.319Z" transform="translate(-747.008 -97.299)" fill="#383228"/>
              <path id="パス_78047" data-name="パス 78047" d="M809.277,174a8.613,8.613,0,0,1,3.256.654.474.474,0,0,1-.391.864,7.645,7.645,0,0,0-3.728-.512,5.976,5.976,0,0,0-3.116,1.167.474.474,0,0,1-.659-.682,6.7,6.7,0,0,1,3.646-1.424A7.246,7.246,0,0,1,809.277,174Z" transform="translate(-753.839 -132.059)" fill="#c1143a"/>
              <path id="パス_78048" data-name="パス 78048" d="M821.922,141.888c1.16-.028,1-.828,1-.828a4.913,4.913,0,0,1-2.411-.46c-1.368-.49-2.357-1.34-2.82-1.2-.232.068-.362.379-.216.542A8.278,8.278,0,0,0,821.922,141.888Z" transform="translate(-759.694 -116.371)" fill="#383228"/>
              <path id="パス_78049" data-name="パス 78049" d="M795.4,143.347c-1.159.075-1.073-.736-1.073-.736a4.91,4.91,0,0,0,2.36-.673c1.319-.611,2.228-1.545,2.7-1.451.237.047.395.345.264.521A8.277,8.277,0,0,1,795.4,143.347Z" transform="translate(-749.229 -116.869)" fill="#383228"/>
              <path id="パス_78050" data-name="パス 78050" d="M805.181,185.264c-3.019,0-7.846-2.8-8.056-2.925a.477.477,0,0,1,.482-.824c.05.03,5.079,2.953,7.789,2.788,2.345-.143,6.126-3.093,6.164-3.123a.477.477,0,0,1,.59.751c-.165.129-4.055,3.164-6.7,3.326C805.365,185.261,805.274,185.264,805.181,185.264Z" transform="translate(-750.392 -135.267)" fill="#c05343"/>
              <path id="パス_78051" data-name="パス 78051" d="M865.786,268.246a.53.53,0,0,1-.53-.527c-.008-1.182-.177-29.013,1.493-35.506l1.672-6.5a.53.53,0,0,1,1.027.264l-1.672,6.5c-1.635,6.361-1.461,34.947-1.459,35.235a.53.53,0,0,1-.526.534Z" transform="translate(-781.372 -155.315)" fill="#001025"/>
              <path id="パス_78052" data-name="パス 78052" d="M752.213,269.7a.529.529,0,0,1-.526-.607c.045-.306,4.492-30.654,2.866-36.978a29.712,29.712,0,0,0-5.362-10.729.53.53,0,1,1,.805-.689,30.2,30.2,0,0,1,5.584,11.155c1.68,6.53-2.658,36.139-2.843,37.4A.531.531,0,0,1,752.213,269.7Z" transform="translate(-728.718 -153.137)" fill="#001025"/>
              <path id="パス_78053" data-name="パス 78053" d="M782.233,125.916h-.027a.271.271,0,0,1-.238-.292,8.228,8.228,0,0,1,.435-1.591.273.273,0,0,1,.339-.165.265.265,0,0,1,.175.249.183.183,0,0,1-.011.09,7.152,7.152,0,0,0-.408,1.469A.27.27,0,0,1,782.233,125.916Zm.98-3.017a.2.2,0,0,1-.1-.021.26.26,0,0,1-.149-.344c.085-.223.18-.456.282-.695.111-.27.223-.53.339-.774v-.01a.277.277,0,0,1,.355-.127.275.275,0,0,1,.154.238.312.312,0,0,1-.026.117c-.117.249-.228.5-.334.758s-.191.477-.281.689A.264.264,0,0,1,783.213,122.9Zm1.347-2.879h0a.239.239,0,0,1-.133-.037.267.267,0,0,1-.1-.36c.265-.462.546-.923.843-1.374a.271.271,0,0,1,.366-.074.268.268,0,0,1,.122.223.26.26,0,0,1-.048.149c-.281.429-.562.88-.822,1.336A.255.255,0,0,1,784.56,120.019Zm1.755-2.651a.258.258,0,0,1-.159-.058.25.25,0,0,1-.1-.175.262.262,0,0,1,.053-.2c.615-.8,1.039-1.236,1.044-1.241a.266.266,0,0,1,.382.371h0a.005.005,0,0,0-.005.005,14.831,14.831,0,0,0-1,1.188A.255.255,0,0,1,786.316,117.368Z" transform="translate(-743.629 -105.602)" fill="#4b4439"/>
              <path id="パス_78054" data-name="パス 78054" d="M835.332,131.247a.266.266,0,0,1-.265-.244h0v-.016c-.016-.2-.069-.753-.212-1.533a.259.259,0,0,1,.212-.307.264.264,0,0,1,.308.212c.154.854.207,1.437.223,1.6v.005a.256.256,0,0,1-.064.2.269.269,0,0,1-.18.09Zm-.562-3.134a.267.267,0,0,1-.255-.2c-.132-.519-.281-1.029-.445-1.506a.279.279,0,0,1,.016-.207.254.254,0,0,1,.154-.133.268.268,0,0,1,.334.17c.17.5.324,1.019.456,1.543a.263.263,0,0,1,.011.069.278.278,0,0,1-.2.255A.269.269,0,0,1,834.77,128.114Zm-1.008-3.012a.271.271,0,0,1-.249-.159c-.106-.255-.217-.509-.339-.758-.112-.228-.223-.456-.329-.668a.255.255,0,0,1-.011-.207.245.245,0,0,1,.133-.149.269.269,0,0,1,.355.116c.1.207.207.424.329.679s.238.519.35.769c0,.005,0,.005,0,.01a.3.3,0,0,1,.016.1.269.269,0,0,1-.159.244A.232.232,0,0,1,833.762,125.1Zm-1.41-2.853a.271.271,0,0,1-.233-.138,6.9,6.9,0,0,0-.817-1.283.273.273,0,0,1-.068-.191.267.267,0,0,1,.09-.18.261.261,0,0,1,.371.016,7.725,7.725,0,0,1,.891,1.385.278.278,0,0,1,.032.127.269.269,0,0,1-.138.233A.253.253,0,0,1,832.352,122.248Z" transform="translate(-765.957 -107.762)" fill="#4b4439"/>
              <path id="パス_78055" data-name="パス 78055" d="M839.367,117.169a26.462,26.462,0,0,1,2.431,6.913,31.537,31.537,0,0,1-.19,8.689,56.443,56.443,0,0,0-2.393-5.8C838.816,126.609,839.367,117.169,839.367,117.169Z" transform="translate(-769.508 -106.304)" fill="#383228"/>
              <path id="パス_78056" data-name="パス 78056" d="M808.705,117.418c-.021,0-.037-.005-.053-.005a15.36,15.36,0,0,1-1.57-.419.27.27,0,0,1-.18-.254.4.4,0,0,1,.011-.08.27.27,0,0,1,.334-.169,15.123,15.123,0,0,0,1.517.4.265.265,0,0,1,.2.313A.271.271,0,0,1,808.705,117.418Zm-3.017-1a.291.291,0,0,1-.117-.027c-.228-.111-.451-.228-.652-.35-.244-.148-.488-.3-.748-.482a.263.263,0,0,1-.116-.223.308.308,0,0,1,.047-.148.273.273,0,0,1,.371-.063c.228.159.472.313.716.461.191.116.4.223.615.329a.253.253,0,0,1,.133.154.244.244,0,0,1-.011.2A.265.265,0,0,1,805.688,116.421Zm-2.625-1.788a.273.273,0,0,1-.175-.063c-.392-.339-.789-.716-1.166-1.113a.254.254,0,0,1-.074-.18.258.258,0,0,1,.085-.2.271.271,0,0,1,.371.011c.366.382.748.747,1.135,1.082a.248.248,0,0,1,.09.18.254.254,0,0,1-.063.191A.266.266,0,0,1,803.063,114.634Zm-2.19-2.3a.254.254,0,0,1-.207-.1,12.5,12.5,0,0,1-.928-1.326l-.005-.01c-.005,0-.005-.005-.005-.011a.26.26,0,0,1,.1-.35.267.267,0,0,1,.36.1h0c.005,0,.005,0,.011.01a12.375,12.375,0,0,0,.88,1.262.274.274,0,0,1-.042.377A.266.266,0,0,1,800.873,112.333Z" transform="translate(-751.664 -103.282)" fill="#4b4439"/>
              <path id="パス_78057" data-name="パス 78057" d="M814.98,112.794h-.112a.291.291,0,0,1-.286-.3.284.284,0,0,1,.286-.281.837.837,0,0,0,.112.005,1.973,1.973,0,0,0,.748-.1h.005a.3.3,0,0,1,.392.09.307.307,0,0,1,.037.218.292.292,0,0,1-.127.18A2.022,2.022,0,0,1,814.98,112.794Zm-1.819-.207h-.054c-.514-.1-1.087-.234-1.7-.4a.286.286,0,0,1-.213-.282.3.3,0,0,1,.011-.069.29.29,0,0,1,.35-.2c.6.159,1.161.291,1.66.382a.29.29,0,0,1,.228.334A.284.284,0,0,1,813.162,112.588Zm-3.331-.88a.265.265,0,0,1-.09-.016c-.583-.2-1.135-.408-1.633-.626a.286.286,0,0,1-.143-.382.288.288,0,0,1,.377-.143c.488.212,1.018.419,1.586.6a.321.321,0,0,1,.164.149.291.291,0,0,1-.26.413ZM806.7,110.3a.25.25,0,0,1-.149-.048,4.685,4.685,0,0,1-1.405-1.177.283.283,0,0,1,.08-.4.294.294,0,0,1,.4.08c.005,0,.005,0,.01.01a2.187,2.187,0,0,0,.229.254,6.437,6.437,0,0,0,.991.748.272.272,0,0,1,.127.175.293.293,0,0,1-.281.355Z" transform="translate(-754.111 -102.434)" fill="#4b4439"/>
            </g>
          </g>
        </g>
        <path id="パス_78058" data-name="パス 78058" d="M869.366,121.661a2.393,2.393,0,0,1-1.024-.224.659.659,0,1,1,.562-1.193,1.23,1.23,0,0,0,1.2-.135,2.749,2.749,0,0,1-.763-.594,1.539,1.539,0,0,1-.108-2.1,1.208,1.208,0,0,1,1.753-.086,2.852,2.852,0,0,1,.735,1.822,2.046,2.046,0,0,0,.342-.05,3.056,3.056,0,0,0,1.573-1.031,9.493,9.493,0,0,1-3.629-2.473,2.99,2.99,0,0,1-.969-2.741,2.658,2.658,0,0,1,2.405-1.843,4.269,4.269,0,0,1,4.217,2.751,5.057,5.057,0,0,1-.049,3.5,7.908,7.908,0,0,0,2.037.113c2.894-.221,4.826-1.375,5.743-3.43a6.636,6.636,0,0,0,.488-1.7,21.543,21.543,0,0,1-4.975-.157c-4.151-.612-8.868-3.171-10.049-7.507a5.9,5.9,0,0,1,1.249-5.558,5.7,5.7,0,0,1,5.3-1.741,10.632,10.632,0,0,1,6.479,4.193,16.59,16.59,0,0,1,3.41,9.236c2.234-.412,4.317-1.337,5.361-3.136,1.665-2.867.7-6.8-.626-9.3-2.755-5.181-7.619-9.3-12.391-10.5a.66.66,0,0,1,.321-1.28c5.117,1.287,10.312,5.669,13.234,11.164,1.56,2.933,2.537,7.254.6,10.586-1.287,2.216-3.8,3.371-6.563,3.835a8.129,8.129,0,0,1-.637,2.411c-.776,1.74-2.594,3.883-6.847,4.208a9.228,9.228,0,0,1-2.768-.214q-.074.107-.154.212a4.464,4.464,0,0,1-2.463,1.692,3.431,3.431,0,0,1-.861.087,1.576,1.576,0,0,1-.193.3A2.532,2.532,0,0,1,869.366,121.661Zm2.41-9.344a2.025,2.025,0,0,0-.208.01,1.391,1.391,0,0,0-1.251.844,1.967,1.967,0,0,0,.669,1.544,8.2,8.2,0,0,0,3.344,2.21,3.736,3.736,0,0,0,.094-2.693A2.991,2.991,0,0,0,871.776,112.317Zm2.541-13.806a4.305,4.305,0,0,0-3.238,1.4,4.587,4.587,0,0,0-.953,4.325c1.025,3.76,5.243,6,8.969,6.548a20.6,20.6,0,0,0,4.878.114,15.324,15.324,0,0,0-3.135-8.618,9.323,9.323,0,0,0-5.658-3.7A5.068,5.068,0,0,0,874.317,98.511Z" transform="translate(-70.748 0)" fill="#0d0002"/>
      </g>
    </g>
  </g>
</svg>
