<svg xmlns="http://www.w3.org/2000/svg" width="341.824" height="255.405" viewBox="0 0 341.824 255.405"><g transform="translate(-3500.537 -4074.68)"><g transform="translate(3360.833 3986.485)"><g transform="translate(139.704 88.195)"><g transform="translate(0 51.317)"><g transform="translate(0 13.913)"><path d="M190.987,205.53l-1.934,10.79L165.3,236.212l-18.261-2.9,2.935-2.21,3.255-.621c.062-.057,1.261-1.13.874-1.569a.55.55,0,0,0-.126-.1,3.131,3.131,0,0,0-.351-.18c-1.2-.544-3.95-1.359-4.094-1.4l-3.392,2-6.432-3.575,1.557-7.026,8.34-4.08,5.2-5.377,1.958-.556,2.105-1.4-3.791-1.721-3.053,3.207-5.155-2.339,2.776-7.4,16.215-3.784Z" transform="translate(-139.704 -195.179)" fill="#cad9d7"/></g><g transform="translate(40.342 25.208)" style="isolation:isolate"><g transform="translate(137.707 12.417)"><path d="M445.747,234.07l-.2,1.612-2.524,1.349.41,1.889-10.2,2.192-1.512-1.608,3.951-1.876-2.213-1.262,3.948-1.879Z" transform="translate(-431.725 -234.07)" fill="#cad9d7"/></g><g transform="translate(0 15.098)"><path d="M258.632,253.783l-4.622,8.783-18.59,1-1.852-5.559-9.493-2.733-9.308-.682-8.9-8.492,9.175-7.634,12.14,1.836,1.146,3.531,14.173,6.17,3.234-2.073Z" transform="translate(-205.869 -238.468)" fill="#cad9d7"/></g><g transform="translate(21.767)"><path d="M435.515,224.679c-.426.391-8.484,7.8-8.324,7.9a7.982,7.982,0,0,1,1.085.593c1.858,1.16,4.687,3.392,4.865,3.536l-6.5,5.441-8.251,5.3-3.873,2.178-16.1,15.236c-.026.311-.473,6.209-.8,6.456s-15.057,7.51-15.832,7.892l-9.452-3.5,3.7-4.611-2.488-1.785-6.736,5.07-8.692-4.072-4.755,2.3-7.5-3.142,2.288-2.632-13.544.675-15.5-3.885-3.3-3.73,2.491-7-4.668-1.068-4.564,5.27-5.957,4.116-15.442-1.368-5.144-6.925,9.09-9.768-14.326-7.151-23.148-7.095-12.566-6.092,2.15-9.118,7.173.634,19.324,3.388,29.519,10.9,15.084,5.663,2.541-1.732,11.608.417,6.234-5.43,6.1-.379,4.474,4.131-6.331.012-.723,1.634-.366,1.013,39.409,1.624L389.7,224.216l8.421-2.862,7.168-4.483,4.855,1.288,1.582,2.285-3.066,1.757,13.069,5.533,2.7-3.491-6.307-1.292,3.244-3.9Z" transform="translate(-241.57 -213.705)" fill="#cad9d7"/></g></g><g transform="translate(229.414)"><path d="M572.368,175.445l10.423,24.91,12.254.841,1.318,1.386-8.772,4.406-4.459,3.356,1.589,7.4-16.683-8.485L551.454,206.2l-1.8-7.241-10.643-4.433-2.78,1.356-.328,2.082-3.327,2.684-2.834-2.073-3.992-2.855-9.779-.508,4-4.472,10.891-1.615.011-2.748,5.489-.657,4.435,2.147,2.81-.829,3.6-1.249,16.627-13.427Z" transform="translate(-515.969 -172.36)" fill="#cad9d7"/></g></g><g transform="translate(149.877)"><path d="M503.479,105.852l10.911-11.239-5.356,45.023-28.888-9.745,10.9-11.23c-8.5-9.351-16.159-27.162-50.958-7.071-26.912,15.538-48.068,53.685-54.569,86.03,3.791-31.566,27.752-80.326,60.457-99.208C482.212,77.491,494.43,93.162,503.479,105.852Z" transform="translate(-385.519 -88.195)" fill="#eb6d4e"/></g><g transform="translate(35.376 15.636)"><path d="M207.123,129.048l-9.4-9.682,4.614,38.783,24.882-8.393-9.389-9.674c7.324-8.056,13.92-23.4,43.895-6.09,23.183,13.384,41.406,46.244,47.006,74.107-3.266-27.191-23.9-69.192-52.078-85.458C225.443,104.619,214.917,118.117,207.123,129.048Z" transform="translate(-197.725 -113.839)" fill="#eb6d4e"/><g transform="translate(124.521 48.128)"><path d="M3526.531,4464.7c0,.451-13.555.816-30.275.816s-30.275-.365-30.275-.816,13.555-.816,30.275-.816S3526.531,4464.249,3526.531,4464.7Z" transform="translate(-3465.642 -4410.711)" fill="#b4b4b5"/><g transform="translate(41.816 49.863)"><path d="M3629.641,4463.488s-2.813.129-3.5.128a7.264,7.264,0,0,1-2.383-.2,1.123,1.123,0,0,1-.138-.171,1.226,1.226,0,0,0,.334.636,6.067,6.067,0,0,0,2.187.2c.69,0,3.5-.129,3.5-.129s1.552-.169,1.632-.626a2.731,2.731,0,0,0,.033-.414C3631.041,4463.3,3629.641,4463.488,3629.641,4463.488Z" transform="translate(-3623.589 -4459.859)" fill="#dbdcdc"/><path d="M3627.236,4451.784a3.254,3.254,0,0,1-1.628.944c-1.317.446-1.6.56-1.95,1.181a1.035,1.035,0,0,0-.12.791,1.138,1.138,0,0,0,.137.171,7.281,7.281,0,0,0,2.384.2c.689,0,3.5-.128,3.5-.128s1.4-.184,1.665-.577a13.466,13.466,0,0,0-.493-3.053A5.2,5.2,0,0,1,3627.236,4451.784Z" transform="translate(-3623.51 -4451.318)" fill="#f5f6f7"/></g><g transform="translate(44.47 51.567)"><path d="M3633.995,4460.212l-.406.262a2.009,2.009,0,0,1,.482,1.142l.476-.016A2.233,2.233,0,0,0,3633.995,4460.212Z" transform="translate(-3633.589 -4459.574)" fill="#00254d"/><path d="M3636.434,4458.253a4.053,4.053,0,0,1,.673,1.547c.33-.012.664-.026.964-.039a4.316,4.316,0,0,0-.775-1.97Z" transform="translate(-3635.685 -4457.791)" fill="#00254d"/></g><g transform="translate(55.14 46.228)"><path d="M3679.764,4440.175c-.072-.072-.141-.136-.209-.2a3.307,3.307,0,0,1,.024,1.821,29.465,29.465,0,0,1-.95,3.073c-.312.619-.891,1.713-1.193,1.806a1.264,1.264,0,0,1-1.055-.085,1.17,1.17,0,0,0,1.326.321,4.367,4.367,0,0,0,1.3-1.605,29.439,29.439,0,0,0,.95-3.074S3680.341,4440.75,3679.764,4440.175Z" transform="translate(-3675.783 -4439.329)" fill="#dbdcdc"/><path d="M3677.884,4438.162a3.848,3.848,0,0,0-.933-.648c-.165.938-1.155,2.82-2.839,2.689a4.4,4.4,0,0,1,.316,1.791c-.1,1.414-.167,2.113.239,2.73.013.019.028.036.042.053a1.265,1.265,0,0,0,1.056.085c.3-.093.88-1.187,1.192-1.806a29.393,29.393,0,0,0,.95-3.073A3.31,3.31,0,0,0,3677.884,4438.162Z" transform="translate(-3674.112 -4437.514)" fill="#f5f6f7"/></g><g transform="translate(41.112 25.746)"><path d="M3626,4370.355c-.2-2.417-.191-5.293-.444-6.618-.094-.493-.212-.12-.235-1.083a23.98,23.98,0,0,0,3.91-.279c3.809-.763,4.062-1.986,4.062-1.986s.023.1.048.254a2.88,2.88,0,0,0-.234-.917c-.688,2.094-4.848,2.313-7.071,2.268-2.01-.039-3-.5-3.708-1.309a91.745,91.745,0,0,0-1.485,11.067c-.066,2.935,3.473,11.93,3.613,12.158.472.757,4.3.7,4.609-.478.274-1.038-2.8-8.454-2.9-9.767C3626.074,4372.575,3625.976,4371.305,3626,4370.355Z" transform="translate(-3620.836 -4359.725)" fill="#ccc6ac"/></g><path d="M3644.747,4375.244c-.719-.618,0-3.545.374-6.495.242-1.922.7-3.55.8-5.53a4.309,4.309,0,0,0-.1-.975s-.253,1.224-4.062,1.986a24.047,24.047,0,0,1-3.911.279c.024.963.142.59.236,1.083.328,1.714.214,6.026.688,8.578.319,1.723,1.879,4.572,4.535,7.194,1.531,1.513,3.3,3.3,4.008,3.382,2.166.248,3.217-2.827,2.886-3.168C3649.38,4380.732,3646.558,4376.8,3644.747,4375.244Z" transform="translate(-3592.259 -4335.835)" fill="#e2dcc3"/><path d="M3604.483,4311.218c-.822-5.347-1.254-9.029-3.536-13.456a2.667,2.667,0,0,0-.515-.664,3.242,3.242,0,0,0-1.826-1.185,8.106,8.106,0,0,0-1.5-.517,6.274,6.274,0,0,0-1.192-.142,2.012,2.012,0,0,1-.329.974,4.827,4.827,0,0,1-1.491.941,1.766,1.766,0,0,1-.933-1.28,3.355,3.355,0,0,1-.87-.075c-.1-.023-.2-.051-.292-.081a6.037,6.037,0,0,0-2.021,1.188,3.967,3.967,0,0,0-1.23,1.89c-.776,3.191-.714,4.357-1.168,5.307-.522,1.08-3.41,2.875-5.684,3.9l1.07-.064c.66.084,1.54.559,1.454,1.219l-.032.762a1.145,1.145,0,0,1-.265.567c2.13-.967,5.458-2.445,6.226-4.038a9.785,9.785,0,0,0,.39-.958c.276.764.477,1.471.649,2.139-.335.187-.64.352-.891.484.662.073,1.547.529,1.476,1.19l-.02.764a1.586,1.586,0,0,1-1.587,1.21l-.624-.039a2.837,2.837,0,0,0,2.354-.172c.041-.022.128-.064.247-.12a9.037,9.037,0,0,0,.493,1.041c.866,1.556,1.664,2.442,4.506,2.5C3599.885,4314.55,3604.951,4314.256,3604.483,4311.218Z" transform="translate(-3551.039 -4286.484)" fill="#00254d"/><path d="M3626.668,4295.023c-.312-.684-.847-.709-.832-.855,0,.014,0,.029,0,.042-.01.106-.018.221-.034.343,0,.013,0,.025,0,.037,0,.036-.012.071-.018.108,0,.016-.005.031-.009.047-.007.036-.017.072-.027.108,0,.018-.008.035-.014.053-.011.037-.024.074-.038.111-.007.02-.012.038-.02.057-.016.039-.036.08-.055.12-.009.018-.016.035-.025.054a1.847,1.847,0,0,1-.107.18,4.827,4.827,0,0,1-1.491.941,1.769,1.769,0,0,1-.933-1.28,3.31,3.31,0,0,1-.508-.018,4.331,4.331,0,0,0,.063,1.821c.144.481.71,2.3,1.241,2.363a12.164,12.164,0,0,0,2.322-2.481C3626.418,4296.356,3626.881,4295.491,3626.668,4295.023Z" transform="translate(-3580.933 -4285.683)" fill="#00254d"/><path d="M3618,4277.066c-.031-.742-1.591-1.416-2.425-1.482-1.021-.084-2.007.3-2.917.112-.6-.125-.824-.526-1.4-.869a5.144,5.144,0,0,0-.349,1.036c-.5,2.259.521,4.43,2.664,4.9a3.277,3.277,0,0,0,.871.075,1.765,1.765,0,0,0,.933,1.28,4.833,4.833,0,0,0,1.491-.941,2.309,2.309,0,0,0,.351-1.223l-.215-.68a6.977,6.977,0,0,0,.9-1.868C3617.944,4277.293,3617.973,4277.179,3618,4277.066Z" transform="translate(-3572.32 -4271.434)" fill="#fbd6a0"/><path d="M3611.831,4264.954a3.163,3.163,0,0,0-2.252-2.73,4.122,4.122,0,0,0-3.8.395,3.545,3.545,0,0,0-1.433,2.133l-1.34.029c-.382,0-.687.011-.824.017l-.168,0h.1c-.611.063-.137,1.054.522,1.319a4.743,4.743,0,0,0,1.679.242,2.851,2.851,0,0,1,.4-1c.542.335.769.719,1.352.84.911.191,1.9-.2,2.917-.112.835.066,2.4.741,2.426,1.484A5.688,5.688,0,0,0,3611.831,4264.954Z" transform="translate(-3565.723 -4261.942)" fill="#00254d"/><g transform="translate(28.346 21.468)"><g transform="translate(0 1.981)"><path d="M3573.279,4351.049V4351a3.387,3.387,0,0,0-.84,1.306c-.026.071-.056.153-.089.238v2.4c.168-.49.39-1.059.578-1.538.123-.315.234-.6.312-.814a2.625,2.625,0,0,1,.434-.767A.747.747,0,0,1,3573.279,4351.049Z" transform="translate(-3572.35 -4351)" fill="#dbdcdc"/></g><path d="M3579.93,4345.457a1.589,1.589,0,0,1-1.612,1.181l-1.267-.1c-.663-.085-1.286-.366-1.2-1.028l.03-1.141c.085-.662.8-.907,1.46-.82l1.166-.07c.66.083,1.54.56,1.455,1.219Z" transform="translate(-3574.924 -4343.475)" fill="#fbd6a0"/></g><g transform="translate(32.152 21.642)"><path d="M3608.676,4346.091a1.584,1.584,0,0,1-1.586,1.21l-1.27-.079c-.663-.072-1.292-.343-1.219-1l.01-1.141c.072-.665.78-.922,1.443-.849l1.164-.091c.663.073,1.551.529,1.479,1.191Z" transform="translate(-3599.911 -4344.137)" fill="#fbd6a0"/><path d="M3587.232,4348.16a.426.426,0,1,0,0,.852h4.265l.007-.852Z" transform="translate(-3586.806 -4347.101)" fill="#dbdcdc"/><g transform="translate(6.418 1.45)"><path d="M3611.6,4412.606h-.417v9.1h.852v-9.291A.6.6,0,0,1,3611.6,4412.606Z" transform="translate(-3611.182 -4395.89)" fill="#dbdcdc"/><path d="M3613.319,4349.8a.426.426,0,1,0-.655.545,1.109,1.109,0,0,1,.17.974c-.085.253-.228.615-.378,1-.229.584-.488,1.245-.647,1.767l-.02.065a11.068,11.068,0,0,0-.607,3.111v3.124h.417a.6.6,0,0,1,.435.187v-3.311a10.217,10.217,0,0,1,.571-2.864l.019-.065c.149-.489.4-1.134.625-1.7.154-.393.3-.765.392-1.036A1.952,1.952,0,0,0,3613.319,4349.8Z" transform="translate(-3611.182 -4349.643)" fill="#dbdcdc"/></g></g><path d="M3607.932,4390.423H3606.2v5.979h1.728a.6.6,0,0,0,.6-.6v-4.771A.6.6,0,0,0,3607.932,4390.423Z" transform="translate(-3568.945 -4356.593)" fill="#69757c"/><g transform="translate(2.951 50.577)"><g transform="translate(0.935 1.07)"><path d="M3479.873,4458.738a1.917,1.917,0,0,1,.217-.645h-.638A1.375,1.375,0,0,1,3479.873,4458.738Z" transform="translate(-3479.453 -4458.093)" fill="#23456d"/></g><g transform="translate(1.324 0.793)"><path d="M3485.786,4457.044a4.708,4.708,0,0,1,.142,1.219c0,.584-.258.895-.575.895-.014,0-.027,0-.042-.006a.4.4,0,0,1-.043.006c-.2,0-.359-.18-.487-.422-.139-.264-.252-.671-.408-.991a2.228,2.228,0,0,0-.074.575c0,.834.435,1.508.969,1.508s.971-.674.971-1.508A1.813,1.813,0,0,0,3485.786,4457.044Z" transform="translate(-3483.412 -4457.044)" fill="#3e3a39"/><g transform="translate(0 0.276)"><path d="M3481.822,4459.092a2.25,2.25,0,0,1,.072-.571,1.031,1.031,0,0,0-.325-.428h-.388a2.018,2.018,0,0,0-.249,1c0,.834.435,1.509.97,1.509h.832a.191.191,0,0,0,.028,0C3482.24,4460.573,3481.822,4459.91,3481.822,4459.092Z" transform="translate(-3480.931 -4458.093)" fill="#231815"/></g></g><path d="M3481.385,4454.031H3479.8a3.439,3.439,0,0,0,.936,1.069c.357.229.513,1,.731,1.416.128.241.282.422.487.422a.291.291,0,0,0,.042-.007.33.33,0,0,0,.042.007c.317,0,.576-.311.576-.9a2.839,2.839,0,0,0-.522-2.012Z" transform="translate(-3478.773 -4454.031)" fill="#4878b2"/><path d="M3476.837,4455.1a3.434,3.434,0,0,1-.935-1.069h1.026a3.438,3.438,0,0,0,.935,1.069Z" transform="translate(-3475.903 -4454.031)" fill="#3e699d"/><path d="M3487.193,4459.613c-.211,0-.383.268-.383.6s.172.6.383.6c.052,0,.5-.005.5-.6S3487.246,4459.613,3487.193,4459.613Z" transform="translate(-3483.939 -4458.144)" fill="#bebfbf"/></g><g transform="translate(17.703 50.577)"><g transform="translate(1.138)"><path d="M3537.54,4454.031h-1.292l.144,2.012c0,.494.257.9.575.9a.349.349,0,0,0,.042-.007.294.294,0,0,0,.042.007c.317,0,.575-.4.575-.9v-2.012Z" transform="translate(-3536.248 -4454.031)" fill="#4878b2"/></g><path d="M3533.766,4454.031h-.888l.068.953a.816.816,0,0,1,.651-.394h.208Z" transform="translate(-3532.628 -4454.031)" fill="#23456d"/><g transform="translate(0 0.559)"><path d="M3536.924,4457.658v1.049c0,.494-.257.895-.575.895a.29.29,0,0,1-.042-.007.334.334,0,0,1-.042.007c-.318,0-.575-.4-.575-.895l-.076-1.061a1.952,1.952,0,0,0-.319,1.116c0,.834.435,1.509.97,1.509s.969-.675.969-1.509A1.964,1.964,0,0,0,3536.924,4457.658Z" transform="translate(-3534.409 -4457.253)" fill="#3e3a39"/><path d="M3532.816,4457.663a1.952,1.952,0,0,1,.317-1.111l-.029-.4h-.208c-.536,0-.97.677-.97,1.51s.434,1.508.97,1.508h.833a.265.265,0,0,0,.027,0C3533.236,4459.144,3532.816,4458.481,3532.816,4457.663Z" transform="translate(-3531.927 -4456.153)" fill="#231815"/></g><path d="M3538.188,4459.613c-.211,0-.384.268-.384.6s.173.6.384.6c.053,0,.5-.005.5-.6S3538.24,4459.613,3538.188,4459.613Z" transform="translate(-3536.257 -4458.144)" fill="#bebfbf"/></g><g transform="translate(21.051 51.647)"><path d="M3545.065,4458.738a1.907,1.907,0,0,1,.217-.645h-.638A1.375,1.375,0,0,1,3545.065,4458.738Z" transform="translate(-3544.645 -4458.093)" fill="#23456d"/></g><g transform="translate(21.441 51.371)"><path d="M3550.979,4457.044a4.73,4.73,0,0,1,.142,1.219c0,.584-.258.895-.575.895a.145.145,0,0,0-.085,0c-.2,0-.359-.18-.487-.422-.139-.264-.252-.671-.409-.991a2.25,2.25,0,0,0-.073.575c0,.834.434,1.508.969,1.508s.971-.674.971-1.508A1.815,1.815,0,0,0,3550.979,4457.044Z" transform="translate(-3548.605 -4457.044)" fill="#595757"/><g transform="translate(0 0.276)"><path d="M3547.014,4459.092a2.25,2.25,0,0,1,.072-.571,1.039,1.039,0,0,0-.325-.428h-.389a2.023,2.023,0,0,0-.248,1c0,.834.435,1.509.97,1.509h.832a.187.187,0,0,0,.029,0C3547.432,4460.573,3547.014,4459.91,3547.014,4459.092Z" transform="translate(-3546.124 -4458.093)" fill="#231815"/></g></g><path d="M3546.578,4454.031h-1.586a3.436,3.436,0,0,0,.936,1.069c.357.229.513,1,.731,1.416.127.241.282.422.487.422a.315.315,0,0,0,.043-.007.306.306,0,0,0,.042.007c.317,0,.576-.311.576-.9a2.841,2.841,0,0,0-.521-2.012Z" transform="translate(-3523.85 -4403.454)" fill="#4878b2"/><path d="M3542.03,4455.1a3.434,3.434,0,0,1-.935-1.069h1.026a3.438,3.438,0,0,0,.935,1.069Z" transform="translate(-3520.979 -4403.454)" fill="#3e699d"/><path d="M3552.386,4459.613c-.21,0-.383.268-.383.6s.172.6.383.6c.052,0,.5-.005.5-.6S3552.439,4459.613,3552.386,4459.613Z" transform="translate(-3529.015 -4407.566)" fill="#bebfbf"/><path d="M3483.02,4448.771v-.464a.605.605,0,0,1,.6-.6H3465.3a.605.605,0,0,0-.6.6v.464a.6.6,0,0,0,.6.6h18.327A.6.6,0,0,1,3483.02,4448.771Z" transform="translate(-3464.694 -4398.792)" fill="#00447d"/><g transform="translate(18.326 48.911)"><path d="M.835,0h20.7a.835.835,0,0,1,.835.835v0a.836.836,0,0,1-.836.836H.836A.836.836,0,0,1,0,.835v0A.835.835,0,0,1,.835,0Z" fill="#00579b"/></g><g transform="translate(34.866 50.577)"><path d="M3599.356,4454.031h-1.293l.143,2.012c0,.494.258.9.575.9a.288.288,0,0,0,.041-.007.385.385,0,0,0,.042.007c.319,0,.577-.4.577-.9v-2.012Z" transform="translate(-3597.812 -4454.031)" fill="#2d527e"/><g transform="translate(0 0.559)"><path d="M3602.416,4457.663c0,.833-.434,1.508-.969,1.508s-.971-.675-.971-1.508.436-1.51.971-1.51S3602.416,4456.83,3602.416,4457.663Z" transform="translate(-3599.59 -4456.153)" fill="#595757"/><path d="M3598,4457.663c0-.818.419-1.481.942-1.5-.01,0-.02-.006-.03-.006h-.832c-.535,0-.969.677-.969,1.51s.434,1.508.969,1.508h.832c.01,0,.02,0,.03,0C3598.42,4459.144,3598,4458.481,3598,4457.663Z" transform="translate(-3597.112 -4456.153)" fill="#231815"/></g><path d="M3602.727,4454.031h-1.293l.144,2.012c0,.494.257.9.575.9a.306.306,0,0,0,.042-.007.334.334,0,0,0,.042.007c.318,0,.575-.4.575-.9v-2.012Z" transform="translate(-3600.296 -4454.031)" fill="#5084c4"/><path d="M3603.374,4459.613c-.213,0-.384.268-.384.6s.171.6.384.6c.052,0,.5-.005.5-.6S3603.426,4459.613,3603.374,4459.613Z" transform="translate(-3601.442 -4458.144)" fill="#dbdcdc"/></g><g transform="translate(3.797 30.508)"><path d="M3479.411,4377.906h17.805v0a.24.24,0,0,0-.228.234h-17.817A.241.241,0,0,1,3479.411,4377.906Z" transform="translate(-3479.157 -4377.88)" fill="#fbd6a0"/><path d="M3546.839,4378.142a.241.241,0,0,1,.24-.236h15.143a.239.239,0,0,1,.24.236Z" transform="translate(-3529.008 -4377.88)" fill="#b09060"/><path d="M3479.411,4447.068h17.805v0a.239.239,0,0,1-.228-.234h-17.817A.241.241,0,0,0,3479.411,4447.068Z" transform="translate(-3479.157 -4428.658)" fill="#cea75f"/><path d="M3546.839,4446.832a.241.241,0,0,0,.24.236h15.143a.239.239,0,0,0,.24-.236Z" transform="translate(-3529.008 -4428.658)" fill="#90764d"/><rect width="15.65" height="17.912" transform="translate(17.812 0.262)" fill="#c4a064"/><rect width="17.812" height="17.912" transform="translate(0 0.262)" fill="#eabe6c"/><rect width="2.369" height="1.578" transform="translate(24.543)" fill="#eabe6c"/><rect width="2.369" height="1.579" transform="translate(24.543 16.83)" fill="#eabe6c"/></g><g transform="translate(5.701 32.21)"><path d="M3486.871,4384.272a.121.121,0,0,1-.035.078.126.126,0,0,1-.088.04.141.141,0,0,1-.089-.04.121.121,0,0,1-.035-.078h-.279v4.317h.276a.116.116,0,0,1,.038-.089.124.124,0,0,1,.177,0,.112.112,0,0,1,.039.089h8.147v-4.317Zm-.123,4.112a.13.13,0,0,1,0-.26.13.13,0,0,1,0,.26Zm0-.337a.128.128,0,0,1-.127-.127.131.131,0,0,1,.127-.129.128.128,0,0,1,.127.129A.125.125,0,0,1,3486.748,4388.048Zm0-.332a.128.128,0,0,1-.127-.127.13.13,0,0,1,.127-.128.127.127,0,0,1,.127.128A.126.126,0,0,1,3486.748,4387.716Zm0-.333a.128.128,0,0,1,0-.255.128.128,0,0,1,0,.255Zm0-.333a.13.13,0,0,1-.127-.128.128.128,0,0,1,.127-.127.125.125,0,0,1,.127.127A.127.127,0,0,1,3486.748,4387.051Zm0-.332a.131.131,0,0,1-.127-.127.128.128,0,0,1,.127-.128.125.125,0,0,1,.127.128A.128.128,0,0,1,3486.748,4386.719Zm0-.336a.128.128,0,0,1-.127-.127.131.131,0,0,1,.127-.128.128.128,0,0,1,.127.128A.125.125,0,0,1,3486.748,4386.382Zm0-.332a.128.128,0,0,1-.127-.127.132.132,0,0,1,.127-.129.129.129,0,0,1,.127.129A.126.126,0,0,1,3486.748,4386.051Zm0-.333a.127.127,0,0,1-.127-.127.131.131,0,0,1,.127-.128.128.128,0,0,1,.127.128A.125.125,0,0,1,3486.748,4385.718Zm0-.333a.128.128,0,0,1,0-.255.128.128,0,0,1,0,.255Zm0-.331a.131.131,0,0,1-.127-.128.128.128,0,0,1,.127-.127.125.125,0,0,1,.127.127A.128.128,0,0,1,3486.748,4385.054Zm0-.333a.129.129,0,0,1-.127-.127.127.127,0,0,1,.127-.127.125.125,0,0,1,.127.127A.127.127,0,0,1,3486.748,4384.721Z" transform="translate(-3486.345 -4384.272)" fill="#fff"/><g transform="translate(1.17 0.534)"><path d="M3495.674,4390.742h-2.3a.141.141,0,0,1,0-.282h2.3a.141.141,0,0,1,0,.282Z" transform="translate(-3492.591 -4389.365)" fill="#c8c9ca"/><path d="M3493.229,4386.584h-2.3a.141.141,0,1,1,0-.282h2.3a.141.141,0,0,1,0,.282Z" transform="translate(-3490.789 -4386.302)" fill="#c8c9ca"/><path d="M3494.311,4388.405h-3.38a.141.141,0,1,1,0-.282h3.38a.141.141,0,1,1,0,.282Z" transform="translate(-3490.789 -4387.644)" fill="#c8c9ca"/><path d="M3510.03,4390.742h-1.479a.141.141,0,0,1,0-.282h1.479a.141.141,0,0,1,0,.282Z" transform="translate(-3503.77 -4389.365)" fill="#c8c9ca"/><g transform="translate(0 1.876)"><path d="M3495.674,4397.863h-2.3a.141.141,0,0,1,0-.282h2.3a.141.141,0,0,1,0,.282Z" transform="translate(-3492.591 -4396.487)" fill="#c8c9ca"/><path d="M3493.229,4393.708h-2.3a.141.141,0,0,1,0-.283h2.3a.141.141,0,0,1,0,.283Z" transform="translate(-3490.789 -4393.426)" fill="#c8c9ca"/><path d="M3494.311,4395.525h-3.38a.141.141,0,1,1,0-.282h3.38a.141.141,0,1,1,0,.282Z" transform="translate(-3490.789 -4394.765)" fill="#c8c9ca"/></g></g><path d="M3496.516,4385.09h-6.951a.377.377,0,0,0-.376.376v3.14a.377.377,0,0,0,.376.376h6.951a.377.377,0,0,0,.376-.376v-3.14A.377.377,0,0,0,3496.516,4385.09Zm.263.376v.6h-3.054v-.866h2.791A.264.264,0,0,1,3496.779,4385.467Zm-3.054,2.5v-.7h3.054v.7Zm0-.754v-1.084h3.054v1.084Zm-4.161-2.007h4.048v1.8H3489.3v-1.537A.264.264,0,0,1,3489.564,4385.2Zm-.263,3.4v-1.545h4.312v1.808h-4.048A.263.263,0,0,1,3489.3,4388.606Z" transform="translate(-3488.439 -4384.875)" fill="#ed85a7"/></g><g transform="translate(40.287 12.796)"><path d="M3622.239,4315.934a11.257,11.257,0,0,0,1.408-4.61,7.8,7.8,0,0,0,.029-.781,10.115,10.115,0,0,0-.491,1.813c-.245,1.225-.672,3.168-1.755,3.935a39.631,39.631,0,0,1-3.729,2.342s.028.094.078.268C3619.436,4317.976,3621.836,4316.532,3622.239,4315.934Z" transform="translate(-3617.701 -4310.542)" fill="#fff"/><path d="M3630.523,4312.9a10.584,10.584,0,0,1-1.918,6.321,10.761,10.761,0,0,1-3.167,2.769,30.938,30.938,0,0,1-3.789,1.959c.061.166.1.277.1.277a26.5,26.5,0,0,0,4.624-2.5,9.532,9.532,0,0,0,2.6-2.531A8.191,8.191,0,0,0,3630.523,4312.9Z" transform="translate(-3620.609 -4312.28)" fill="#fff"/></g><g transform="translate(56.9 48.807)"><path d="M3681.307,4453.394a2.052,2.052,0,0,1,1.3-.114c.047-.151.1-.308.141-.466a2.2,2.2,0,0,0-1.445.049C3681.313,4453.049,3681.315,4453.229,3681.307,4453.394Z" transform="translate(-3681.171 -4451.288)" fill="#00254d"/><path d="M3682.512,4448.37c.108-.381.2-.728.261-.943a3.631,3.631,0,0,0-1.975.06c.035.25.081.623.11,1.012A3.571,3.571,0,0,1,3682.512,4448.37Z" transform="translate(-3680.798 -4447.309)" fill="#00254d"/></g><path d="M3635.213,4297.924a2.052,2.052,0,0,1-.79,1.053s2.973.55,2.827,2.389c0,0,1.459-.262,1.9.409C3639.147,4301.775,3639.335,4298.919,3635.213,4297.924Z" transform="translate(-3589.733 -4288.45)" fill="#fff"/><path d="M3612.9,4297.961s-2.1.934-2.51,1.664l-.263-.292s.379-.875,2.364-1.752C3612.494,4297.582,3612.932,4297.933,3612.9,4297.961Z" transform="translate(-3571.837 -4288.198)" fill="#fff"/><path d="M3630.511,4311.627s-.438,4.29.117,5.517l.263.058.846-.846a27.5,27.5,0,0,1-.058-3.561l1.05.146.146-1.2S3630.774,4311.568,3630.511,4311.627Z" transform="translate(-3586.73 -4298.536)" fill="#fff"/><path d="M3613.436,4311.341a14.846,14.846,0,0,1,2.761.014s.17,5.215-.224,5.862l-1-.058.1-4.831-1.6.019Z" transform="translate(-3574.272 -4298.285)" fill="#fff"/><path d="M3636.713,4330.365l-1.518-1.08s-1.6,2.744-3.56,3.473l1.108,1.634,1.839-1.4,1.343-1.372Z" transform="translate(-3587.679 -4311.554)" fill="#fff"/><path d="M3598.566,4323.19a5.745,5.745,0,0,1-.411,1.508,6.087,6.087,0,0,1-1.905,1.78l.5.446c2.86-1.313,2.685-3.619,2.685-3.619Z" transform="translate(-3561.611 -4307.063)" fill="#fff"/><path d="M3616.673,4262.224a4.122,4.122,0,0,0-3.8.395,3.412,3.412,0,0,0-1.4,2.042l-.011.1a11.307,11.307,0,0,1,5.108.233,1.963,1.963,0,0,1,1.662-1.735A3.146,3.146,0,0,0,3616.673,4262.224Z" transform="translate(-3572.817 -4261.942)" fill="#fff"/><g transform="translate(4.195 17.994)"><rect width="1.9" height="0.834" rx="0.417" transform="translate(1.396 11.635)" fill="#3d3d3d"/><rect width="1.9" height="0.834" rx="0.417" transform="translate(16.607 11.635)" fill="#3d3d3d"/><path d="M360.957,1362.278a.66.66,0,0,0-.66.66v10.408a.66.66,0,0,0,.66.66h14.97v-11.728Z" transform="translate(-360.127 -1362.254)" fill="#4d4d4d"/><path d="M3.091,0H9.239a3.092,3.092,0,0,1,3.092,3.092V4A3.091,3.091,0,0,1,9.239,7.091H3.091A3.091,3.091,0,0,1,0,4V3.091A3.091,3.091,0,0,1,3.091,0Z" transform="translate(1.82 2.935)" fill="#e6e6e6"/><path d="M600.027,1362.278h-3.35v11.728h3.35a.66.66,0,0,0,.66-.66v-10.408A.66.66,0,0,0,600.027,1362.278Z" transform="translate(-580.877 -1362.254)" fill="#333"/><g transform="translate(16.137 2.245)"><g transform="translate(0 0)"><circle cx="1.389" cy="1.389" r="1.389" transform="translate(0 2.705) rotate(-76.838)" fill="#4d4d4d"/><circle cx="1.189" cy="1.189" r="1.189" transform="translate(0.24 2.555) rotate(-76.821)" fill="#333"/><circle cx="1.103" cy="1.103" r="1.103" transform="translate(0.334 2.476) rotate(-76.168)" fill="#4d4d4d"/><path d="M621.976,1402.787h-.318a3.732,3.732,0,0,0-.02,2.412h.34A4.35,4.35,0,0,0,621.976,1402.787Z" transform="translate(-620.156 -1402.33)" fill="#333"/></g><g transform="translate(0 3.949)"><circle cx="1.389" cy="1.389" r="1.389" transform="translate(0 2.705) rotate(-76.838)" fill="#4d4d4d"/><circle cx="1.189" cy="1.189" r="1.189" transform="translate(0.24 2.555) rotate(-76.821)" fill="#333"/><circle cx="1.103" cy="1.103" r="1.103" transform="translate(0.343 2.491) rotate(-76.813)" fill="#4d4d4d"/><path d="M611.244,1475.8v-.318a3.732,3.732,0,0,0-2.412-.02v.34A4.349,4.349,0,0,0,611.244,1475.8Z" transform="translate(-608.365 -1473.984)" fill="#333"/></g></g><rect width="11.936" height="0.949" transform="translate(2.018 0)" fill="#4d4d4d"/><path d="M373.495,1363.494h-1.819a28.127,28.127,0,0,1-11.935,0h-1.819a.2.2,0,0,1-.2-.2v-1.16a.214.214,0,0,1,.214-.214h1.8a26.524,26.524,0,0,0,11.935,0h1.8a.214.214,0,0,1,.214.214v1.16A.2.2,0,0,1,373.495,1363.494Z" transform="translate(-357.723 -1361.921)" fill="#333"/><g transform="translate(2.407 5.044)"><path d="M399.738,1441.711h5.427a.187.187,0,0,0,.175-.26l-1.095-2.489a.184.184,0,0,1-.015-.074v-.5a.189.189,0,0,0-.191-.187h-8.6a.189.189,0,0,0-.191.187v.5a.182.182,0,0,1-.015.074l-1.095,2.492a.187.187,0,0,0,.175.26Z" transform="translate(-394.12 -1438.202)" fill="none" stroke="#b3b3b3" stroke-linecap="round" stroke-linejoin="round" stroke-width="1"/><line y2="3.509" transform="translate(5.618 0)" fill="none" stroke="#b3b3b3" stroke-linecap="round" stroke-linejoin="round" stroke-width="1"/><path d="M460.964,1438.2v.721l-.341,2.787" transform="translate(-456.226 -1438.202)" fill="none" stroke="#b3b3b3" stroke-linecap="round" stroke-linejoin="round" stroke-width="1"/><path d="M443.363,1438.2v.728l-.7,2.781" transform="translate(-439.452 -1438.202)" fill="none" stroke="#b3b3b3" stroke-linecap="round" stroke-linejoin="round" stroke-width="1"/><path d="M426.869,1438.2v.721l-.891,2.787" transform="translate(-423.871 -1438.202)" fill="none" stroke="#b3b3b3" stroke-linecap="round" stroke-linejoin="round" stroke-width="1"/><path d="M410.055,1438.2v.721l-1.107,2.787" transform="translate(-407.968 -1438.202)" fill="none" stroke="#b3b3b3" stroke-linecap="round" stroke-linejoin="round" stroke-width="1"/><path d="M492.4,1438.2v.721l.34,2.787" transform="translate(-485.897 -1438.202)" fill="none" stroke="#b3b3b3" stroke-linecap="round" stroke-linejoin="round" stroke-width="1"/><path d="M504.9,1438.2v.728l.7,2.781" transform="translate(-497.575 -1438.202)" fill="none" stroke="#b3b3b3" stroke-linecap="round" stroke-linejoin="round" stroke-width="1"/><path d="M518.715,1438.2v.721l.891,2.787" transform="translate(-510.476 -1438.202)" fill="none" stroke="#b3b3b3" stroke-linecap="round" stroke-linejoin="round" stroke-width="1"/><path d="M532.476,1438.2v.721l1.107,2.787" transform="translate(-523.328 -1438.202)" fill="none" stroke="#b3b3b3" stroke-linecap="round" stroke-linejoin="round" stroke-width="1"/></g></g><g transform="translate(23.942 8.008)"><g transform="translate(3.967 36.719)"><path d="M1165.084,739.375a6.742,6.742,0,0,0-.068.9h1.6a6.7,6.7,0,0,0-.068-.9,1.708,1.708,0,0,1-1.466,0Z" transform="translate(-1165.016 -738.806)" fill="#bab9b9"/><path d="M1167.008,728.771h-.634s-.053.234-.1.569a1.708,1.708,0,0,0,1.466,0c-.046-.336-.1-.569-.1-.569Z" transform="translate(-1166.208 -728.771)" fill="#a6a5a5"/></g><path d="M0,0H.543a0,0,0,0,1,0,0V0A.158.158,0,0,1,.385.158H.158A.158.158,0,0,1,0,0V0A0,0,0,0,1,0,0Z" transform="translate(0.493 40.86)" fill="#8c8c8c"/><path d="M.158,0H.386A.158.158,0,0,1,.543.158v0a0,0,0,0,1,0,0H0a0,0,0,0,1,0,0v0A.158.158,0,0,1,.158,0Z" transform="translate(9.043 41.018) rotate(180)" fill="#8c8c8c"/><path d="M0,0H.543a0,0,0,0,1,0,0V0A.158.158,0,0,1,.385.158H.158A.158.158,0,0,1,0,0V0A0,0,0,0,1,0,0Z" transform="translate(2.094 40.86)" fill="#8c8c8c"/><path d="M0,0H.543a0,0,0,0,1,0,0V0A.158.158,0,0,1,.385.158H.158A.158.158,0,0,1,0,0V0A0,0,0,0,1,0,0Z" transform="translate(3.696 40.86)" fill="#8c8c8c"/><path d="M0,0H.543a0,0,0,0,1,0,0V0A.158.158,0,0,1,.386.158H.158A.158.158,0,0,1,0,0V0A0,0,0,0,1,0,0Z" transform="translate(5.297 40.86)" fill="#8c8c8c"/><path d="M0,0H.543a0,0,0,0,1,0,0V0A.158.158,0,0,1,.386.158H.158A.158.158,0,0,1,0,0V0A0,0,0,0,1,0,0Z" transform="translate(6.898 40.86)" fill="#8c8c8c"/><path d="M1100.324,796.75h-8.869c-.163,0-.3-.042-.333-.19v.153a.342.342,0,0,0,.34.348h8.855a.341.341,0,0,0,.34-.348v-.153C1100.628,796.708,1100.488,796.75,1100.324,796.75Z" transform="translate(-1091.122 -756.201)" fill="#bab9b9"/><g transform="translate(2.242 28.487)"><path d="M1153,709.1a2.278,2.278,0,0,1-1.528-.542c.236.8.751,1.423,1.528,1.423s1.292-.618,1.528-1.423A2.278,2.278,0,0,1,1153,709.1Z" transform="translate(-1150.47 -701.413)" fill="#c44823"/><path d="M1137.924,575.9h-.6l-.231-.259a.609.609,0,0,0-.455-.2h-2.476a.61.61,0,0,0-.455.2l-.231.259h-.6a32.791,32.791,0,0,0,.951,6.534q.018.076.04.15a2.426,2.426,0,0,0,3.056,0q.022-.074.04-.15A32.783,32.783,0,0,0,1137.924,575.9Z" transform="translate(-1132.879 -575.433)" fill="#9f3718"/></g><path d="M1145.921,599.848c.481,0,.985-.206,1.072-.456a40.71,40.71,0,0,0,.854-5.059.683.683,0,0,0-.68-.753h-2.493a.683.683,0,0,0-.68.753,40.8,40.8,0,0,0,.854,5.059c.088.25.592.456,1.073.456Z" transform="translate(-1141.152 -564.119)" fill="#6d6d6d"/><path d="M.185,0H.7A.185.185,0,0,1,.889.185v0A.185.185,0,0,1,.7.371H.185A.185.185,0,0,1,0,.185v0A.185.185,0,0,1,.185,0Z" transform="translate(4.323 28.775)" fill="#f0f0f0"/><g transform="translate(2.249 0)"><path d="M1164.155,45.238a.291.291,0,0,0-.041-.125.523.523,0,0,0-.915,0,.29.29,0,0,0-.041.125c-.056,1.883-.268,10.938-.425,17.289h1.846C1164.422,56.176,1164.21,47.121,1164.155,45.238Z" transform="translate(-1161.137 -44.844)" fill="#c44823"/><path d="M1137.083,458.456a3.347,3.347,0,0,1-.458-1.861c-.008-.036-.032-.819-.066-2.081h-2.066c-.034,1.262-.058,2.045-.066,2.081a3.346,3.346,0,0,1-.458,1.861,4.58,4.58,0,0,0-.962,3.013h.6l.23-.259a.609.609,0,0,1,.455-.2h2.476a.609.609,0,0,1,.455.2l.23.259h.6A4.58,4.58,0,0,0,1137.083,458.456Z" transform="translate(-1133.007 -432.519)" fill="#c44823"/><path d="M1162.812,380.586h-1.863c-.034,1.387-.066,2.631-.092,3.626h2.048C1162.878,383.217,1162.846,381.973,1162.812,380.586Z" transform="translate(-1159.361 -362.56)" fill="#c44823"/><path d="M1162.743,448.126H1160.7q0,.177-.009.343h2.066C1162.749,448.358,1162.746,448.244,1162.743,448.126Z" transform="translate(-1159.2 -426.474)" fill="#bab9b9"/><path d="M1164.43,374.2h-1.846q0,.173-.009.343h1.864Q1164.434,374.372,1164.43,374.2Z" transform="translate(-1160.987 -356.516)" fill="#bab9b9"/></g><path d="M1174.248,102.867a.323.323,0,0,1-.322-.322v-.562a.322.322,0,1,1,.644,0v.562A.323.323,0,0,1,1174.248,102.867Z" transform="translate(-1169.48 -98.61)" fill="#666"/><g transform="translate(4.569 3.174)"><path d="M1176.62,104.156a.2.2,0,0,0-.4,0v.281h.4Z" transform="translate(-1176.222 -103.957)" fill="gray"/><path d="M1176.222,112.9v.281a.2.2,0,0,0,.4,0V112.9Z" transform="translate(-1176.222 -112.416)" fill="#666"/></g><path d="M1173.944,430.294a.327.327,0,1,1,.327.327A.327.327,0,0,1,1173.944,430.294Z" transform="translate(-1169.498 -409.29)" fill="#666"/><circle cx="0.197" cy="0.197" r="0.197" transform="translate(4.577 20.807)" fill="#bab9b9"/><g transform="translate(3.252 29.874)"><path d="M1161.227,628.8c.084.437.18.9.288,1.366a.335.335,0,0,0,.2.235,1.4,1.4,0,0,0,1.031,0,.335.335,0,0,0,.2-.236c.334-1.451.546-2.778.675-3.758Z" transform="translate(-1160.715 -625.056)" fill="#1f1f1f"/><path d="M1154.718,601.574a.27.27,0,0,0-.268-.3h-2.493a.27.27,0,0,0-.269.3c.073.708.225,1.956.511,3.444l2.395-2.392C1154.65,602.205,1154.69,601.849,1154.718,601.574Z" transform="translate(-1151.687 -601.276)" fill="#515151"/></g><path d="M1100.649,753.2l-.162-.8a1.158,1.158,0,0,0-.761-.824l-2.593-.743a.385.385,0,0,0-.438.157.284.284,0,0,1-.254.11h-1.1a.285.285,0,0,1-.254-.11.385.385,0,0,0-.438-.157l-2.593.743a1.158,1.158,0,0,0-.761.824l-.162.8c-.051.208.109.265.324.265h8.869C1100.539,753.467,1100.7,753.411,1100.649,753.2Z" transform="translate(-1091.122 -712.918)" fill="#c44823"/></g></g></g></g><g transform="translate(141.665 180.313)"><path d="M213.6,398.813l-.009,3.1,61.04,35.241c2.3,1.331,4.189,1.818,5.312,1.012a1.8,1.8,0,0,1-.149.105l38.785-22.539c.81-.471,1.272-1.535,1.278-3.338,0-.251-.009-.5-.026-.74-.006-.079-.015-.155-.023-.232-.01-.115-.018-.231-.032-.344-.005-.043-.015-.084-.021-.126-.018-.128-.041-.254-.065-.379-.015-.083-.024-.168-.043-.249-.01-.05-.024-.1-.035-.147-.016-.07-.034-.14-.051-.21s-.03-.132-.048-.2c-.032-.115-.068-.227-.1-.34-.009-.027-.016-.056-.026-.084,0-.012-.006-.023-.01-.034q-.066-.2-.141-.394c-.024-.063-.05-.124-.076-.187-.012-.03-.024-.06-.037-.09s-.023-.058-.035-.086c-.051-.117-.1-.234-.159-.348-.024-.049-.049-.1-.073-.146-.015-.028-.029-.057-.045-.087s-.035-.07-.053-.105c-.062-.115-.124-.229-.191-.341-.021-.035-.043-.07-.063-.1l-.059-.1c-.03-.048-.059-.1-.089-.145q-.12-.187-.249-.37l-.019-.026c-.019-.027-.04-.054-.06-.08-.075-.1-.151-.21-.23-.312-.03-.04-.066-.079-.1-.118-.056-.071-.114-.141-.173-.211-.045-.054-.088-.11-.134-.162s-.07-.073-.1-.11c-.135-.152-.277-.3-.423-.449-.043-.043-.08-.089-.124-.131-.018-.018-.038-.035-.057-.052-.212-.207-.432-.41-.663-.607-.034-.029-.071-.057-.106-.086q-.3-.251-.617-.49c-.077-.058-.157-.115-.235-.173-.184-.133-.37-.263-.561-.39-.079-.052-.156-.1-.236-.157-.265-.171-.536-.339-.814-.5l-38.785,22.539h0l38.785-22.539-16.664-9.621-2.619.793L252.4,369.787l-1.635.951-17.887-10.327L194.093,382.95l-.013,4.594Zm62.115,27.139,0,0c-.08-.053-.159-.107-.24-.159h0C275.555,425.846,275.633,425.9,275.712,425.952Zm.559.389.041.031-.042-.031Zm.96.75h0l-.016-.013Zm.844.79h0c-.043-.043-.085-.087-.127-.13C277.991,427.795,278.033,427.837,278.075,427.88Zm.66.722h0c-.078-.093-.159-.184-.24-.275h0C278.579,428.42,278.658,428.51,278.736,428.6Zm1.283,1.911h0l0-.008Zm.577,1.37h0c-.068-.209-.146-.415-.229-.616h0C280.45,431.469,280.527,431.674,280.6,431.883Zm.178.622h0c-.046-.182-.1-.363-.152-.54h0C280.677,432.143,280.726,432.323,280.773,432.5Zm-.2,4.936a2.41,2.41,0,0,1-.239.363A2.41,2.41,0,0,0,280.569,437.44Zm.2-.441a3.026,3.026,0,0,1-.132.307A3.329,3.329,0,0,0,280.764,437Zm.149-.526c-.027.12-.057.235-.09.344C280.856,436.709,280.887,436.594,280.914,436.473Zm-.011-3.363h0c-.017-.092-.035-.184-.054-.276C280.867,432.927,280.886,433.018,280.9,433.11Zm.118.849h0q-.022-.24-.054-.473h0Q281,433.721,281.02,433.96Zm.049.971c0,.251-.012.485-.031.707C281.057,435.415,281.068,435.181,281.069,434.93Zm-.054.912c-.016.146-.035.289-.059.422C280.98,436.131,281,435.989,281.015,435.842Zm-.972,2.246a1.99,1.99,0,0,0,.274-.272A1.99,1.99,0,0,1,280.044,438.088Z" transform="translate(-162.887 -286.555)" fill="#54575b"/><path d="M160.631,384.223a1,1,0,0,0,.451.781l4.748,2.741a.272.272,0,0,0,.387-.042.23.23,0,0,1-.065.073l4.681-2.72a.239.239,0,0,0,.1-.11.418.418,0,0,0,.037-.18l.01-3.655-2.34,1.36,2.34-1.36a.707.707,0,0,0-.005-.087c0-.021-.007-.042-.012-.063s-.007-.035-.012-.052l-.005-.018v0l-.008-.023c0-.014-.009-.029-.015-.043l-.016-.041-.018-.04-.02-.039q-.01-.016-.018-.033h0l0,0c-.008-.013-.016-.026-.023-.039l-.026-.039c-.011-.014-.02-.028-.031-.041s-.024-.03-.037-.046l-.02-.021-.007-.008-.023-.023a.737.737,0,0,0-.15-.116l-4.748-2.742-4.681,2.72c-.249-.144-.452-.027-.454.259Z" transform="translate(-149.832 -293.26)" fill="#252626"/><path d="M323.952,482.721c.055-.062.1-.132.156-.2.079-.1.159-.2.231-.306.051-.077.1-.161.143-.243.065-.111.129-.22.187-.339.037-.079.07-.163.1-.245.059-.137.115-.274.164-.42.018-.054.036-.11.053-.166.064-.208.122-.424.169-.651l.009-.059a7.678,7.678,0,0,0,.113-.775c0-.014,0-.029,0-.043.026-.28.041-.57.041-.872s-.012-.612-.037-.922l0-.055c-.025-.305-.063-.613-.112-.924,0-.023-.007-.046-.01-.07q-.074-.452-.177-.908l-.015-.061q-.11-.47-.251-.944c-.007-.02-.013-.039-.019-.059q-.14-.462-.308-.921l-.02-.054q-.174-.466-.374-.927c-.009-.021-.018-.042-.027-.063-.134-.307-.278-.612-.43-.912-.008-.017-.017-.035-.026-.052-.143-.282-.294-.56-.452-.835l-.09-.158c-.07-.118-.143-.232-.215-.348-.3-.484-.608-.957-.943-1.408-.185-.249-.376-.492-.571-.73l-.083-.1q-.3-.36-.618-.7c-.02-.02-.038-.041-.057-.062q-.337-.356-.686-.685l-.027-.026c-.246-.229-.5-.448-.75-.654l-.007-.005c-.25-.2-.506-.4-.765-.576l-.049-.032c-.256-.177-.515-.344-.779-.5s-.538-.294-.8-.416l-.02-.01c-.255-.117-.508-.217-.756-.3l-.062-.021a6.9,6.9,0,0,0-.713-.2l-.029-.007a5.843,5.843,0,0,0-.7-.109l-.052,0a4.968,4.968,0,0,0-.637-.012l-.074.006a4.2,4.2,0,0,0-.59.074l-.025,0a4.037,4.037,0,0,0-.531.153c-.078.027-.152.062-.228.095a3.663,3.663,0,0,0-.416.2l6.365-3.7c.066-.039.135-.076.2-.11s.141-.057.21-.087.151-.066.23-.094c.029-.011.056-.026.085-.035a4.047,4.047,0,0,1,.435-.116l.009,0,.026,0c.118-.023.237-.043.357-.057.076-.008.154-.012.232-.016l.074-.006c.02,0,.038,0,.057,0,.112,0,.224,0,.34,0,.08,0,.16.009.241.016l.051,0,.043,0c.1.01.212.024.318.041s.211.036.318.059l.025.005.03.007c.085.018.171.038.257.061q.156.041.313.09l.143.049.062.021.106.035c.1.038.209.079.315.121s.211.089.318.138l.018.009.019.009c.1.045.192.09.288.138s.222.113.334.176l.182.1.161.094c.117.07.233.143.35.218.09.059.18.121.27.183l.045.031.043.029c.122.085.243.174.362.264s.243.187.361.284l.007,0,0,0c.126.1.248.2.369.311s.241.213.36.324l.018.018c.009.007.016.016.025.024.1.1.2.191.3.29s.221.221.329.335l.057.062.058.063c.067.073.135.144.2.218.1.116.207.234.309.352.036.043.071.087.107.129s.054.068.082.1c.049.06.1.118.147.178q.208.258.4.524c.007.009.012.019.02.028.335.452.648.925.943,1.408.029.047.063.09.091.136.041.07.081.141.123.212.031.052.062.1.092.159s.066.113.1.17c.077.138.153.279.227.418.043.082.084.164.126.246l.027.052c.01.022.021.042.032.063.058.116.114.232.169.349s.109.231.16.348c.023.051.044.1.068.153l.026.06.059.133c.049.118.1.237.146.355s.1.247.144.371c.009.023.016.046.026.07s.012.036.02.054c.031.085.062.169.092.254q.069.2.133.4c.029.09.056.18.084.27l.018.06c.007.023.015.046.022.068.04.135.079.271.114.406s.07.27.1.4c0,.021.009.043.013.065s.01.04.015.06c.021.093.042.185.062.277.027.133.054.266.077.4.015.078.027.156.039.233,0,.023.008.046.012.07s.01.06.015.089c.02.131.037.261.052.391s.029.26.04.389c0,.018,0,.037,0,.055s0,.035,0,.052c.008.094.015.188.02.28.007.131.013.262.016.392,0,.084,0,.167,0,.251v.144c0,.136-.008.268-.015.4-.007.112-.016.221-.026.33l0,.043c0,.01,0,.02,0,.03-.014.137-.03.273-.051.405-.017.115-.038.227-.06.339,0,.019-.007.04-.011.059s0,.023-.006.035c-.032.154-.068.3-.108.449-.016.059-.037.112-.054.169s-.035.11-.052.165-.032.1-.05.154c-.034.093-.077.177-.115.267s-.067.166-.1.245c-.012.024-.021.052-.032.076-.048.093-.1.176-.155.264s-.092.165-.142.241c-.073.11-.153.208-.233.307-.051.065-.1.135-.154.2a4.1,4.1,0,0,1-.3.287c-.049.045-.1.1-.146.138a3.755,3.755,0,0,1-.494.344l-6.364,3.7a3.792,3.792,0,0,0,.495-.344c.052-.043.1-.094.147-.14A3.811,3.811,0,0,0,323.952,482.721Z" transform="translate(-208.826 -325.397)" fill="#667279"/><path d="M315.946,467.085c-4.378-2.527-7.939-.5-7.953,4.533s3.524,11.159,7.9,13.686,7.939.5,7.953-4.532S320.325,469.614,315.946,467.085Z" transform="translate(-207.346 -327.765)" fill="#454e54"/><path d="M317.273,472.739c-2.83-1.633-5.132-.321-5.141,2.93a11.257,11.257,0,0,0,5.107,8.848c2.831,1.633,5.133.322,5.142-2.931A11.257,11.257,0,0,0,317.273,472.739Z" transform="translate(-208.961 -330.121)" fill="#fff"/><path d="M319.056,478.267c-1.28-.74-2.325-.147-2.329,1.327a5.1,5.1,0,0,0,2.314,4.009c1.283.741,2.325.146,2.33-1.328A5.1,5.1,0,0,0,319.056,478.267Z" transform="translate(-210.754 -332.429)" fill="#bdbbb8"/><path d="M319.524,479.715c-.877-.507-1.591-.1-1.593.908a3.489,3.489,0,0,0,1.583,2.742c.878.507,1.591.1,1.594-.908A3.492,3.492,0,0,0,319.524,479.715Z" transform="translate(-211.224 -333.033)" fill="#397156"/><path d="M314.179,478.268c-.313-.18-.566-.034-.567.324a1.235,1.235,0,0,0,.563.975c.312.18.565.036.566-.324A1.24,1.24,0,0,0,314.179,478.268Z" transform="translate(-209.539 -332.523)" fill="#1e5993"/><path d="M315.922,484.159a.4.4,0,0,0-.4-.04c-.221.126-.222.537,0,.918a1.158,1.158,0,0,0,.4.421.4.4,0,0,0,.4.04c.221-.126.223-.537,0-.918A1.149,1.149,0,0,0,315.922,484.159Z" transform="translate(-210.219 -334.822)" fill="#1e5993"/><path d="M320.2,474.841c-.311-.18-.565-.035-.566.324a1.239,1.239,0,0,0,.562.973c.312.18.565.036.566-.321A1.238,1.238,0,0,0,320.2,474.841Z" transform="translate(-211.888 -331.185)" fill="#1e5993"/><path d="M320.157,488.627c-.311-.18-.564-.034-.565.324a1.238,1.238,0,0,0,.562.974c.313.181.565.035.566-.323A1.239,1.239,0,0,0,320.157,488.627Z" transform="translate(-211.873 -336.566)" fill="#1e5993"/><path d="M324.434,479.309a.4.4,0,0,0-.4-.04c-.222.126-.223.537,0,.917a1.147,1.147,0,0,0,.4.421.4.4,0,0,0,.4.041c.222-.126.223-.537,0-.918A1.153,1.153,0,0,0,324.434,479.309Z" transform="translate(-213.541 -332.929)" fill="#1e5993"/><path d="M324.406,489.058a.4.4,0,0,0-.4-.04c-.221.126-.223.537,0,.918a1.148,1.148,0,0,0,.4.42.4.4,0,0,0,.4.041c.221-.126.223-.537,0-.918A1.151,1.151,0,0,0,324.406,489.058Z" transform="translate(-213.53 -336.734)" fill="#1e5993"/><path d="M326.176,485.2c-.312-.18-.566-.035-.567.323a1.24,1.24,0,0,0,.563.976c.312.18.566.036.567-.323A1.246,1.246,0,0,0,326.176,485.2Z" transform="translate(-214.221 -335.227)" fill="#1e5993"/><path d="M315.946,475.709a.4.4,0,0,0,.4.04c.221-.126.222-.537,0-.918a1.157,1.157,0,0,0-.4-.421.4.4,0,0,0-.4-.04c-.221.126-.222.536,0,.916A1.146,1.146,0,0,0,315.946,475.709Z" transform="translate(-210.23 -331.018)" fill="#1e5993"/><path d="M185.03,403.2c.054-.061.1-.131.154-.2.079-.1.16-.2.232-.307.051-.076.094-.161.142-.242.065-.111.13-.221.188-.34.038-.077.07-.162.1-.243.058-.137.115-.275.164-.421.019-.054.036-.11.053-.165.064-.209.123-.425.168-.653l.01-.056c.048-.249.087-.507.113-.778,0-.013,0-.027,0-.04.026-.28.041-.572.042-.874s-.013-.612-.037-.923c0-.017,0-.034,0-.052-.025-.306-.063-.615-.112-.926,0-.023-.008-.045-.011-.068q-.073-.453-.177-.91c0-.019-.01-.039-.014-.059-.073-.315-.158-.629-.252-.944-.006-.02-.012-.039-.018-.059q-.141-.461-.309-.92c-.007-.018-.013-.037-.02-.054q-.174-.466-.374-.928c-.009-.021-.018-.041-.027-.062q-.2-.46-.429-.911c-.009-.018-.018-.035-.027-.054-.143-.281-.3-.559-.452-.835-.03-.052-.06-.1-.091-.157-.068-.118-.143-.232-.213-.348-.3-.484-.609-.957-.944-1.408-.184-.249-.375-.493-.571-.729l-.083-.1q-.3-.36-.618-.7l-.057-.061q-.337-.356-.687-.686l-.027-.026q-.367-.343-.748-.654l-.009-.007c-.25-.2-.505-.395-.763-.575l-.048-.032c-.257-.177-.516-.343-.78-.5s-.538-.3-.8-.417l-.02-.009c-.256-.118-.508-.218-.757-.3l-.06-.02a7.124,7.124,0,0,0-.714-.2l-.029-.007a5.926,5.926,0,0,0-.7-.107l-.052,0a5.187,5.187,0,0,0-.636-.013l-.076.006a4.467,4.467,0,0,0-.588.074l-.027,0a3.885,3.885,0,0,0-.529.152c-.079.028-.154.062-.23.095a3.747,3.747,0,0,0-.415.2l6.364-3.7c.068-.039.135-.076.205-.11s.14-.057.21-.087.151-.066.229-.095c.03-.01.056-.025.086-.035a3.9,3.9,0,0,1,.435-.116l.009,0,.027,0c.118-.023.237-.043.358-.057.075-.009.154-.012.231-.016l.075-.006.056,0c.112,0,.225,0,.34,0,.08,0,.16.01.241.016l.052,0,.043,0c.1.011.211.024.318.041s.212.036.319.059l.024.005.03.007c.085.019.171.038.256.061.1.027.209.057.313.09.048.015.1.032.144.048l.061.021c.035.013.071.023.106.036.1.037.209.078.314.121s.212.089.319.138l.017.009.02.01c.1.044.191.089.287.137.111.055.221.115.334.176.061.033.121.068.182.1l.16.1q.176.105.349.218c.09.06.18.121.27.184l.046.031.041.029c.122.085.243.174.363.264s.241.187.36.284l.009.006,0,0c.123.1.246.2.367.309s.241.214.36.325l.017.017.027.026c.1.095.2.19.3.288s.221.221.329.335c.02.021.038.043.058.063l.056.062c.068.073.136.145.2.219.1.115.207.233.309.352l.107.129.083.1c.049.06.1.117.148.177q.2.257.4.523c.007.009.012.02.02.028.335.452.647.926.944,1.409.029.047.062.089.09.137.043.069.082.141.123.211l.091.158c.032.058.066.113.1.171.077.14.154.279.227.419.043.082.084.163.126.246.009.017.017.035.026.052s.023.042.032.063c.058.116.115.232.17.349s.109.231.161.347c.023.051.044.1.066.154l.026.06.059.133c.05.118.1.236.146.355s.1.247.144.371c.009.023.017.046.026.069l.02.055c.031.085.062.169.092.254.046.132.09.264.134.4.028.09.055.179.083.269.006.02.012.04.019.06s.014.046.021.068c.04.135.079.271.114.406s.071.27.1.4c.005.022.01.043.015.065s.009.039.013.059c.021.092.043.185.062.277q.042.2.077.4c.014.078.026.156.038.234,0,.022.008.044.012.068s.01.06.014.09c.02.131.038.261.053.391s.029.259.04.388c0,.019,0,.037,0,.056l0,.052c.007.093.015.187.02.28q.012.2.015.391c0,.083,0,.167,0,.251,0,.049,0,.1,0,.145q0,.2-.014.4c-.007.113-.016.223-.026.332l0,.041a.252.252,0,0,0,0,.03c-.013.138-.031.274-.051.406-.018.116-.038.229-.06.34,0,.018-.006.038-.01.057s0,.023-.006.035c-.032.154-.068.3-.107.449-.017.059-.038.112-.055.169s-.035.11-.052.165-.031.1-.049.154c-.035.094-.077.178-.115.268s-.068.166-.105.243c-.012.026-.021.053-.033.077-.048.094-.1.176-.155.264s-.091.166-.142.243c-.073.108-.152.206-.231.305-.052.065-.1.135-.155.2a3.829,3.829,0,0,1-.3.285c-.05.046-.1.1-.148.14a3.649,3.649,0,0,1-.494.344l-6.364,3.7a3.944,3.944,0,0,0,.494-.344c.051-.043.1-.093.147-.138A4.086,4.086,0,0,0,185.03,403.2Z" transform="translate(-154.606 -294.36)" fill="#667279"/><path d="M177.022,387.561c-4.377-2.528-7.938-.5-7.953,4.531s3.524,11.16,7.9,13.687,7.939.5,7.954-4.533S181.4,390.088,177.022,387.561Z" transform="translate(-153.126 -296.727)" fill="#454e54"/><path d="M178.35,393.214c-2.83-1.633-5.131-.321-5.141,2.93a11.256,11.256,0,0,0,5.108,8.848c2.831,1.635,5.133.323,5.142-2.93A11.259,11.259,0,0,0,178.35,393.214Z" transform="translate(-154.741 -299.084)" fill="#fff"/><path d="M180.134,398.741c-1.282-.74-2.326-.146-2.329,1.328a5.1,5.1,0,0,0,2.314,4.008c1.283.741,2.325.147,2.33-1.327A5.1,5.1,0,0,0,180.134,398.741Z" transform="translate(-156.535 -301.391)" fill="#bdbbb8"/><path d="M180.6,400.189c-.876-.506-1.591-.1-1.593.908a3.484,3.484,0,0,0,1.583,2.742c.877.508,1.591.1,1.594-.908A3.49,3.49,0,0,0,180.6,400.189Z" transform="translate(-157.005 -301.995)" fill="#397156"/><path d="M175.256,398.743c-.313-.18-.566-.035-.567.323a1.243,1.243,0,0,0,.563.976c.312.179.564.035.565-.324A1.24,1.24,0,0,0,175.256,398.743Z" transform="translate(-155.319 -301.486)" fill="#1e5993"/><path d="M177,404.635a.4.4,0,0,0-.4-.04c-.221.126-.222.537,0,.918a1.149,1.149,0,0,0,.4.421.4.4,0,0,0,.4.04c.221-.126.222-.537,0-.918A1.155,1.155,0,0,0,177,404.635Z" transform="translate(-155.999 -303.785)" fill="#1e5993"/><path d="M181.273,395.316c-.311-.18-.564-.035-.565.324a1.238,1.238,0,0,0,.562.972c.312.181.566.037.566-.321A1.239,1.239,0,0,0,181.273,395.316Z" transform="translate(-157.668 -300.148)" fill="#1e5993"/><path d="M181.235,409.1c-.312-.18-.565-.034-.566.324a1.242,1.242,0,0,0,.562.974c.313.18.566.035.566-.323A1.242,1.242,0,0,0,181.235,409.1Z" transform="translate(-157.653 -305.528)" fill="#1e5993"/><path d="M185.51,399.784a.4.4,0,0,0-.4-.04c-.221.126-.223.536,0,.917a1.153,1.153,0,0,0,.4.421.4.4,0,0,0,.4.04c.222-.126.223-.537,0-.918A1.145,1.145,0,0,0,185.51,399.784Z" transform="translate(-159.321 -301.892)" fill="#1e5993"/><path d="M185.483,409.533a.4.4,0,0,0-.4-.04c-.221.126-.222.537,0,.918a1.143,1.143,0,0,0,.4.42.4.4,0,0,0,.4.04c.22-.126.221-.537,0-.918A1.164,1.164,0,0,0,185.483,409.533Z" transform="translate(-159.31 -305.697)" fill="#1e5993"/><path d="M187.252,405.672c-.311-.18-.565-.035-.567.323a1.245,1.245,0,0,0,.563.976c.312.18.566.036.567-.323A1.239,1.239,0,0,0,187.252,405.672Z" transform="translate(-160.001 -304.19)" fill="#1e5993"/><path d="M177.022,396.183a.4.4,0,0,0,.4.041c.22-.126.222-.537,0-.918a1.149,1.149,0,0,0-.4-.421.405.405,0,0,0-.4-.04c-.221.126-.222.537,0,.917A1.144,1.144,0,0,0,177.022,396.183Z" transform="translate(-156.01 -299.98)" fill="#1e5993"/><path d="M220.617,421.99l-.011,3.973,11.936,6.891.011-3.973Z" transform="translate(-173.24 -310.589)" fill="#397156"/><path d="M240.182,435.1l5.824-3.385.011-3.973-5.825,3.385Z" transform="translate(-180.88 -312.833)" fill="#2b5a43"/><path d="M232.559,426.714l5.825-3.385-11.935-6.891-5.825,3.385Z" transform="translate(-173.247 -308.422)" fill="#262626"/><path d="M220.636,415.48l-.012,3.969,11.935,6.891.011-3.97Z" transform="translate(-173.247 -308.048)" fill="#868586"/><path d="M240.2,428.584l5.825-3.385.011-3.97-5.825,3.385Z" transform="translate(-180.887 -310.292)" fill="#616263"/><path d="M232.578,420.2l5.825-3.385-11.935-6.89-5.825,3.385Z" transform="translate(-173.254 -305.881)" fill="#929292"/><path d="M147.144,370.861l4.829-2.806-3.89-2.246-4.829,2.806Z" transform="translate(-143.05 -288.662)" fill="#c7c7c6"/><path d="M151.966,382.944l4.829-2.807,2.02-5.547-4.829,2.806Z" transform="translate(-146.45 -292.089)" fill="#7d7d7e"/><path d="M147.132,371.913l0,.744-3.89-2.246-.023,7.822,5.334,3.08,2.02-5.548,89.012,51.45,0-1.863Z" transform="translate(-143.036 -290.458)" fill="#b5b5b6"/><path d="M301.27,460.587l4.829-2.806.006-1.863-4.83,2.806Z" transform="translate(-204.722 -323.83)" fill="#848585"/><path d="M242.094,424.517l4.83-2.806-92.457-53.439-4.829,2.807Z" transform="translate(-145.542 -289.623)" fill="#c7c7c6"/><path d="M239.5,390.513,142.92,334.7l.152-53.778,96.576,55.817Z" transform="translate(-142.92 -255.53)" fill="#bdbbb8"/><path d="M239.746,320.484,283.433,295.1l-96.576-55.817L143.17,264.667Z" transform="translate(-143.018 -239.279)" fill="#dedcdb"/><path d="M301.315,409.991,345,384.6l.153-53.778-43.687,25.388Z" transform="translate(-204.74 -275.008)" fill="#d0cfcd"/><path d="M145.892,376.475c-.334-.192-.422-.037-.422.346v.052a1.179,1.179,0,0,0,.418,1.044l2.7,1.659c.334.193.428.038.428-.345v-.052a1.183,1.183,0,0,0-.424-1.045Z" transform="translate(-143.915 -292.793)" fill="#c52326"/><path d="M146.331,287.865c-.616-.355-.861-.069-.861.638v.1a2.231,2.231,0,0,0,.853,1.928l5.209,3.064c.615.355,1.021.069,1.021-.639v-.1a2.364,2.364,0,0,0-1.015-1.927Z" transform="translate(-143.915 -258.182)" fill="#f8a30c"/><path d="M287.428,367.743c-.616-.355-1.082-.069-1.082.638v.1a2.424,2.424,0,0,0,1.074,1.928l5.541,3.064a.839.839,0,0,0,1.354-.638v-.1a2.74,2.74,0,0,0-1.346-1.927Z" transform="translate(-198.897 -289.357)" fill="#f8a30c"/><path d="M310.18,391.92l-.1-.064c-.043-.028-.093-.058-.148-.09l-.012-.007c-.054-.031-.114-.063-.177-.1l-.043-.021c-.051-.026-.1-.051-.158-.076l-.045-.02c-.065-.028-.134-.055-.2-.08l-.029-.01c-.073-.025-.145-.047-.22-.065l-.023-.006a2.006,2.006,0,0,0-.24-.043h-.007a1.455,1.455,0,0,0-.246-.008h0a1.18,1.18,0,0,0-.241.038h0a1.011,1.011,0,0,0-.229.1l43.688-25.388c.017-.01.034-.019.051-.028a.783.783,0,0,1,.09-.039.636.636,0,0,1,.081-.027h.007a.66.66,0,0,1,.076-.018l.081-.013c.027,0,.055-.006.082-.007h0c.029,0,.057,0,.085,0s.057,0,.086,0l.077.007h.015l.094.013c.034.006.067.012.1.02l.038.009.021.005.046.012c.038.01.075.021.112.033l.06.021.03.01.032.011c.045.016.09.034.134.053l.037.016.045.02.062.027c.034.016.065.033.1.049l.043.021.016.008c.057.03.111.06.161.09h0l.016.009c.054.031.1.06.143.087l.01.006.088.057.007,0c.02.013.04.026.053.037l.01.007.035.024-43.687,25.389h0l-.032-.023-.068-.047Z" transform="translate(-207.372 -288.714)" fill="#a3bee3"/><path d="M360.066,475.041l43.687-25.388.017-20.094-43.687,25.388Z" transform="translate(-227.669 -313.543)" fill="#47856b"/><path d="M333.731,405.165l43.687-25.388L355.4,367.03l-43.687,25.388Z" transform="translate(-208.797 -289.139)" fill="#58987d"/><path d="M309.432,408.01c-.779-.449-2.533-1.161-2.542,1.586l-.084,29.442,11.955,6.9a15.011,15.011,0,0,1,6.611,12.493l13.908,8.03.018-20.093a55.3,55.3,0,0,0-7.48-25.379L309.8,408.245C309.788,408.239,309.647,408.135,309.432,408.01Z" transform="translate(-206.883 -304.965)" fill="#397156"/><path d="M355.208,436.712c-.006-.087-.011-.174-.017-.26q-.055-.713-.131-1.416c-.012-.121-.027-.24-.041-.36-.041-.351-.085-.7-.132-1.047-.019-.135-.037-.27-.057-.4q-.086-.6-.186-1.183c-.009-.051-.016-.1-.025-.153q-.114-.66-.245-1.3c-.024-.12-.049-.238-.074-.357q-.1-.49-.21-.972c-.027-.121-.055-.243-.084-.363-.1-.423-.2-.842-.307-1.253-.006-.026-.013-.051-.02-.077-.1-.4-.211-.787-.321-1.172-.03-.113-.064-.225-.1-.338-.1-.349-.2-.694-.31-1.032-.021-.065-.04-.132-.06-.2-.126-.4-.255-.791-.385-1.176-.034-.1-.066-.191-.1-.287q-.17-.492-.342-.968l-.073-.2q-.2-.551-.408-1.076c-.033-.085-.066-.168-.1-.251-.116-.294-.232-.582-.347-.861-.026-.063-.052-.129-.079-.191-.135-.323-.269-.638-.4-.941-.031-.071-.062-.14-.093-.21-.109-.247-.217-.487-.324-.719l-.088-.193c-.127-.273-.251-.537-.373-.79l-.077-.156c-.1-.207-.2-.406-.294-.6l-.089-.178c-.114-.225-.226-.443-.332-.645l-.042-.076q-.144-.273-.277-.516c-.026-.046-.05-.093-.075-.137-.1-.174-.188-.341-.273-.491l-.167-.288-.05-.086-.082-.136c-.057-.1-.11-.184-.157-.262l-.038-.06,43.687-25.388c.005.009.01.018.016.026l.023.038c.047.076.1.162.154.255.01.018.019.031.03.05l.054.093c.016.026.031.051.047.079.053.091.108.185.166.288v0c.086.151.179.316.274.491l.036.063.04.074c.088.163.18.334.277.516.011.021.022.038.032.06l.009.017c.107.2.218.42.333.646l.036.071c.017.032.034.069.051.1q.146.29.3.6l.055.11c.007.015.013.03.021.044.123.254.246.517.374.791l.03.065c.018.04.037.084.055.124q.161.35.326.722c.021.048.041.091.063.14.011.023.021.049.031.072q.2.456.4.94l.024.059c.018.042.035.088.053.132.117.282.232.569.349.865.021.053.042.1.063.156.012.029.023.061.034.091q.206.526.409,1.078c.007.02.014.038.023.058.016.047.033.1.05.144q.173.476.343.971c.02.059.042.113.062.173l.035.11q.2.579.386,1.179c0,.016.01.031.016.046.014.048.027.1.043.146q.159.51.31,1.036c.02.062.038.122.056.185s.027.1.043.154c.109.387.217.779.321,1.177l.016.059,0,.012q.16.618.308,1.256c.012.048.024.093.035.141.016.072.03.146.047.219.074.321.143.646.211.973.016.079.035.157.052.237.007.04.015.082.023.121.085.43.168.863.244,1.3,0,.01,0,.019,0,.028.007.043.013.087.021.13.066.389.127.782.185,1.179.009.06.02.118.028.177.01.075.018.152.029.229q.07.519.131,1.046c.01.085.022.168.032.252,0,.037.007.073.01.109q.075.7.13,1.415l.007.068c0,.063.006.129.011.193q.043.624.07,1.256c0,.076.01.151.013.227.005.168.011.337.015.507L355.307,438.7c-.006-.246-.019-.49-.029-.735C355.259,437.547,355.237,437.127,355.208,436.712Z" transform="translate(-222.892 -297.298)" fill="#47856b"/><path d="M358.3,435.794c-.006-.078-.01-.157-.015-.234-.032-.426-.073-.849-.117-1.269-.012-.108-.025-.215-.037-.323q-.055-.473-.118-.939c-.017-.121-.033-.242-.051-.363q-.077-.535-.166-1.061c-.009-.045-.014-.091-.022-.137-.068-.394-.143-.783-.22-1.169-.021-.107-.044-.213-.065-.32-.062-.294-.124-.584-.19-.872-.025-.108-.049-.218-.074-.325q-.133-.57-.275-1.124l-.018-.068c-.093-.355-.19-.7-.287-1.051-.029-.1-.058-.2-.087-.3-.092-.313-.184-.621-.279-.926-.018-.059-.035-.119-.054-.176-.113-.359-.229-.71-.346-1.055-.029-.086-.058-.171-.087-.257q-.153-.441-.307-.867c-.022-.06-.044-.123-.066-.182-.121-.329-.244-.651-.365-.965-.03-.076-.06-.151-.09-.226-.1-.263-.208-.521-.311-.771l-.071-.171q-.181-.436-.361-.844c-.027-.064-.055-.126-.083-.188-.1-.221-.2-.437-.291-.645-.026-.058-.052-.117-.079-.173-.113-.245-.225-.482-.334-.708-.023-.048-.046-.093-.068-.14q-.135-.277-.264-.535c-.027-.053-.054-.108-.081-.16-.1-.2-.2-.4-.3-.578-.012-.024-.023-.045-.036-.068-.086-.163-.168-.318-.248-.463l-.068-.123c-.085-.157-.17-.305-.245-.44l-.149-.259-.044-.076-.073-.123c-.051-.086-.1-.164-.142-.235l-.033-.054,40.375-23.417.015.023a.3.3,0,0,0,.021.035c.041.068.088.144.138.229l.027.044.049.084.041.07c.048.082.1.167.149.259v0c.076.135.159.284.245.441.012.02.021.036.032.057l.035.066c.079.146.162.3.248.462.009.02.019.035.029.054s.005.01.008.015c.1.183.2.377.3.58.012.022.022.041.033.063s.031.063.045.092q.131.261.268.54c.016.034.032.065.049.1l.018.039q.165.341.335.709c.009.02.018.038.027.058l.05.11c.1.21.193.426.292.648l.055.126c.01.021.02.044.028.065q.179.41.36.843l.023.052c.016.038.031.08.048.118.1.252.209.511.312.776.019.048.038.092.057.14.01.026.02.055.03.081.123.315.244.636.366.966l.02.052c.016.043.03.087.046.129q.155.427.307.871l.055.155c.012.033.021.066.032.1q.176.518.346,1.056c0,.015.01.027.014.042.013.042.026.087.038.13q.144.457.279.929c.016.056.034.11.049.166s.025.093.038.138c.1.347.194.7.288,1.055l.015.052,0,.01q.143.555.276,1.126c.01.043.02.084.031.127.014.065.027.132.042.2q.1.433.189.873c.015.071.032.14.046.212.008.036.013.073.021.109.077.386.151.774.219,1.168,0,.009,0,.017,0,.025.006.039.012.079.018.117q.089.524.166,1.057c.007.053.016.1.025.159s.015.137.025.2q.064.465.118.938c.009.076.021.15.029.227,0,.032.006.065.01.1q.067.63.116,1.269c0,.02,0,.04.005.061,0,.057.005.115.01.173q.039.559.063,1.126c0,.068.009.135.012.2q.008.227.013.454l-40.375,23.417c-.005-.221-.016-.439-.026-.658C358.351,436.542,358.33,436.165,358.3,435.794Z" transform="translate(-224.399 -298.654)" fill="#c7e7f1"/><path d="M317.714,418.035l1.26,13.052c.1.241,2.067,4.805,21.81,19.068-.033-.706-.665-14.12-7.132-22.917Z" transform="translate(-211.14 -309.045)" fill="#c7e7f1"/><path d="M341.983,473.1l-.026,9.2,6.595,3.807.026-9.2Z" transform="translate(-220.601 -330.535)" fill="#2b5a43"/><path d="M341.981,484.3l-.009,3.066,6.595,3.808.008-3.066Z" transform="translate(-220.607 -334.909)" fill="#214a35"/><path d="M307.385,378.309l-.135-.078c-.344-.185-.048,13.82.3,14.006.035.11.721,2.2,1.615,2.711L331.4,407.79C331.285,406.942,329.054,390.82,307.385,378.309Z" transform="translate(-206.996 -293.509)" fill="#397156"/><path d="M307.339,361.98a.017.017,0,0,0-.013,0l43.687-25.387h0l0,0h.011l.137.078.032.019.086.051q.546.316,1.074.637l.359.218q.409.251.81.5c.069.045.142.088.212.132l.143.093c.29.184.574.371.857.557l.216.141q.524.348,1.029.7l.063.043c.074.051.143.1.216.154.233.163.465.327.691.491l.34.248q.311.228.615.456l.2.145c.046.036.09.071.137.106.189.145.374.289.559.434.1.079.206.159.306.238q.332.262.653.526c.052.042.107.084.159.127l.023.019c.213.175.422.351.629.526l.127.107q.372.316.732.634l.013.011.024.022q.649.573,1.26,1.147l.025.023.009.009c.369.348.726.7,1.074,1.042l.083.08.041.044q.486.487.942.972c.029.03.06.06.088.09l.067.073q.467.5.906.994c.022.025.048.051.07.076.037.043.072.084.11.127.145.166.29.333.43.5l.184.215c.194.231.387.462.573.691l0,.006.01.013q.48.591.921,1.173l.012.016q.442.583.846,1.154l0,0,.007.012q.441.622.838,1.23l.027.041c.024.036.046.072.07.109.137.21.271.419.4.627.021.034.043.067.063.1.012.018.021.036.034.054q.2.318.384.632l.007.011.044.076q.155.263.3.523c.012.021.026.043.038.065.03.054.059.107.09.162.062.112.126.224.186.335.018.032.037.064.054.1s.051.092.074.138q.089.162.174.323c.021.039.043.08.063.12l.055.107c.06.115.119.229.176.343.023.044.048.091.07.136.012.023.023.046.035.069.07.139.137.276.2.412.018.038.038.076.056.113,0,.008.007.016.012.025q.13.271.252.535l.01.02.034.076c.075.163.146.322.216.48l.034.076.037.087c.07.159.137.316.2.471l.034.076.01.024q.121.295.233.577c.007.018.015.038.022.056l.027.071c.08.2.156.407.227.6l0,0,0,.013c.079.214.152.421.22.622.005.017.012.034.017.051s.006.016.009.025c.071.208.135.409.2.6,0,.016.011.034.015.048l.01.034c.066.21.126.412.182.605l.012.039.007.026c.059.207.112.4.16.589a.151.151,0,0,1,.006.024l0,.012c.053.206.1.4.141.575l0,.012c0,.019.008.036.012.055.016.069.03.135.044.2.006.027.012.054.018.08.012.059.024.116.035.171,0,.014.007.031.01.044a.14.14,0,0,0,0,.022c.015.079.03.154.043.223l.006.032c.01.06.021.114.03.166l0,.021,0,.015c.014.079.025.145.034.2a.2.2,0,0,0,0,.02c.007.055.014.1.018.128v0c0,.009,0,.016,0,.022L331.493,391.54l0-.025c0-.03-.011-.074-.018-.126l0-.027c-.009-.055-.019-.121-.032-.2,0-.014,0-.029-.008-.044-.008-.049-.018-.1-.027-.16l-.007-.034-.044-.225c0-.02-.008-.042-.013-.063-.012-.055-.023-.111-.036-.17l-.018-.082c-.013-.065-.03-.134-.045-.2,0-.02-.009-.038-.013-.058-.041-.177-.088-.371-.141-.577,0-.012-.006-.024-.01-.036-.048-.185-.1-.382-.16-.589-.006-.021-.012-.043-.019-.064q-.082-.29-.181-.606c-.009-.027-.018-.056-.026-.084-.062-.194-.126-.394-.2-.6-.008-.025-.017-.051-.026-.076-.069-.2-.141-.407-.219-.62a.135.135,0,0,1-.006-.018c-.071-.195-.148-.4-.227-.6l-.051-.129q-.112-.283-.232-.576c-.015-.034-.03-.069-.044-.1-.063-.154-.131-.31-.2-.468l-.073-.167c-.068-.155-.14-.313-.213-.473l-.047-.1c-.082-.176-.165-.354-.252-.533-.022-.047-.046-.1-.069-.143-.066-.135-.132-.269-.2-.407-.034-.069-.071-.14-.106-.21l-.175-.34-.118-.224c-.059-.108-.116-.218-.177-.327-.041-.077-.082-.153-.124-.229l-.19-.341-.126-.221c-.1-.172-.2-.345-.3-.519-.018-.031-.035-.062-.054-.093q-.186-.313-.384-.631l-.1-.154c-.129-.207-.263-.416-.4-.627l-.1-.149q-.4-.607-.837-1.229l-.013-.019q-.405-.571-.844-1.152l-.012-.016q-.442-.583-.922-1.176l-.013-.016q-.28-.345-.574-.694l-.182-.212q-.212-.249-.43-.5l-.18-.2q-.44-.495-.9-.993l-.156-.165q-.458-.485-.943-.973l-.124-.121c-.348-.347-.705-.7-1.076-1.044l-.03-.028q-.612-.575-1.263-1.15l-.036-.033c-.239-.212-.484-.423-.731-.633-.048-.041-.1-.082-.146-.123-.2-.171-.4-.34-.61-.51l-.179-.145c-.217-.176-.435-.352-.657-.529-.1-.079-.2-.157-.3-.235q-.278-.219-.564-.437l-.331-.251c-.2-.152-.41-.305-.618-.458l-.338-.247c-.227-.163-.457-.327-.689-.49-.1-.066-.188-.132-.282-.2q-.507-.351-1.029-.7l-.212-.138q-.424-.281-.862-.56c-.117-.075-.235-.149-.354-.224q-.4-.251-.81-.5l-.359-.218q-.529-.32-1.074-.636l-.118-.07-.1-.059-.032.018h0l.032-.019h0l-.034.02h-.005l.037-.021Z" transform="translate(-207.085 -277.259)" fill="#47856b"/><path d="M317.779,448.43c-.465-.269-.935-.051-.935.483v.214a1.956,1.956,0,0,0,.929,1.458l4.418,2.549c.465.268.852.055.852-.483v-.214a1.869,1.869,0,0,0-.846-1.458Z" transform="translate(-210.8 -320.863)" fill="#fff"/><path d="M381.673,471.421l0,5.413.466.269,0-5.414Z" transform="translate(-236.101 -329.881)" fill="#a0abb1"/><path d="M382.434,470.1l19.3-11.234,0-5.391-19.294,11.212Z" transform="translate(-236.399 -322.876)" fill="#cfd6da"/><path d="M382.141,464.512,401.434,453.3l-.466-.269-19.293,11.212Z" transform="translate(-236.103 -322.704)" fill="#e3e7ea"/><path d="M384.2,465.932a.173.173,0,0,0,.09-.024l17.213-10a.178.178,0,1,0-.179-.308l-17.212,10a.176.176,0,0,0-.064.243A.174.174,0,0,0,384.2,465.932Z" transform="translate(-237.017 -323.696)" fill="#a0abb1"/><path d="M384.2,467.877a.184.184,0,0,0,.09-.024l17.213-10a.178.178,0,0,0-.179-.309l-17.212,10a.178.178,0,0,0,.089.332Z" transform="translate(-237.017 -324.455)" fill="#a0abb1"/><path d="M384.2,469.822a.179.179,0,0,0,.09-.025l17.213-10a.178.178,0,1,0-.179-.308l-17.212,10a.179.179,0,0,0,.089.333Z" transform="translate(-237.017 -325.214)" fill="#a0abb1"/><path d="M384.2,471.766a.179.179,0,0,0,.09-.024l17.213-10a.178.178,0,1,0-.179-.308l-17.212,10a.178.178,0,0,0,.089.332Z" transform="translate(-237.017 -325.972)" fill="#a0abb1"/><path d="M366.791,478.8l0,6.606.568.327,0-6.605Z" transform="translate(-230.292 -332.762)" fill="#a0abb1"/><path d="M367.719,483.036l7.811-4.572-.007-6.578-7.8,4.545Z" transform="translate(-230.656 -330.062)" fill="#cfd6da"/><path d="M368.8,482.565l6.491-3.8-.005-5.109-6.483,3.777Z" transform="translate(-231.078 -330.753)" fill="#fff"/><path d="M367.361,476.221l7.8-4.545-.567-.328-7.8,4.545Z" transform="translate(-230.294 -329.852)" fill="#e3e7ea"/><path d="M414.869,450.8l0,6.605.568.328,0-6.606Z" transform="translate(-249.056 -321.832)" fill="#a0abb1"/><path d="M415.8,455.283l7.171-4.179-.006-6.578-7.162,4.151Z" transform="translate(-249.42 -319.384)" fill="#cfd6da"/><path d="M416.879,454.812l5.852-3.406,0-5.109-5.845,3.384Z" transform="translate(-249.842 -320.075)" fill="#fff"/><path d="M415.438,448.467l7.162-4.151-.568-.328-7.162,4.151Z" transform="translate(-249.059 -319.174)" fill="#e3e7ea"/><path d="M381.369,435.9l-24.233-12.585,9.008-5.224,24.427,12.473Z" transform="translate(-226.526 -309.066)" fill="#a6d9e8"/><path d="M391.035,431.34,366.8,418.755l6.182-3.585,24.427,12.473Z" transform="translate(-230.298 -307.927)" fill="#fff"/><path d="M351.832,478.233l4.467,2.6,46.445-26.816-2.2-1.282.019,1.283-44.254,25.55-3.378-1.964Z" transform="translate(-224.455 -322.587)" fill="#c7cdd1"/><path d="M351.832,494.5l.014,5.066,4.489,2.609-.014-5.066Z" transform="translate(-224.455 -338.888)" fill="#8a8f92"/><path d="M359.158,481.65l.015,5.043,46.446-26.816-.016-5.043Z" transform="translate(-227.315 -323.408)" fill="#9fa4a7"/><path d="M393.984,484.382l9.834-5.724,0-7.061-9.83,5.713Z" transform="translate(-240.907 -329.95)" fill="#cfd6da"/><path d="M430.225,444.054l-2.327,1.338.474.276,2.772-1.595-.913-.531Z" transform="translate(-254.143 -319.001)" fill="#e59916"/><path d="M427.9,446.576l.01,4.9.474.276-.01-4.9Z" transform="translate(-254.143 -320.184)" fill="#e39814"/><path d="M428.676,446.008l.01,4.9,2.772-1.595-.01-4.9Z" transform="translate(-254.447 -319.34)" fill="#af750a"/><path d="M429.55,446.78l.007,3.693,2.242-1.266-.006-3.693Z" transform="translate(-254.788 -319.77)" fill="#fbc92f"/><path d="M355.908,482.627l2.55,1.482,3.718-2.146-.771-.433-2.976,1.726-1.78-1.049Z" transform="translate(-226.046 -333.826)" fill="#e59916"/><path d="M355.908,483.33l.014,5.414,2.551,1.482-.015-5.414Z" transform="translate(-226.046 -334.529)" fill="#e39814"/><path d="M356.838,484.988l.01,3.969,1.989,1.166-.01-3.969Z" transform="translate(-226.409 -335.176)" fill="#fbc92f"/><path d="M360.09,484.387l.015,5.414,3.717-2.146-.014-5.414Z" transform="translate(-227.678 -334.104)" fill="#af750a"/><path d="M360.09,485.736l.011,3.985,3.152-1.815-.011-3.986Z" transform="translate(-227.678 -334.759)" fill="#fbc92f"/><g transform="matrix(0.65, 0.36, -0.255, 0.933, 22.63, 58.262)"><g transform="translate(0 0.371)"><rect width="3.462" height="3.462" transform="translate(16.588 12.042)" fill="#03a58e"/><path d="M3764.87,4353.9v-3.461h2.749l-7.941-5.117-7.941,5.117h2.749v10.385h3.46v-3.461h3.461V4353.9h3.455v3.462h-3.455v3.46h3.461v-3.46h3.455V4353.9Z" transform="translate(-3751.736 -4345.326)" fill="#03a58e"/></g><rect width="3.407" height="3.407" transform="translate(28.645 0.22)" fill="#03a58e"/><g transform="translate(21.808)"><path d="M3795.555,4348.752l-8.9.257a2.157,2.157,0,0,0,1.208-3.186l.04-.012h0l1.185-.409a.078.078,0,0,0,.048-.1h0c-.012-.035-.037-.052-.087-.052l-1.4.06-.247-.016a2.16,2.16,0,1,0-1.911,3.753h-.006v0h0l-.592,5.837-1.448,4.837h0l-.038.126-.192.643h0a.146.146,0,0,0,.1.181.2.2,0,0,0,.042.006h3.223a.165.165,0,0,0,.166-.165h0v-.627a.166.166,0,0,0-.166-.166h-.345l1.236-4.129,3.78.576v4.308a.2.2,0,0,0,.2.2h3.217a.165.165,0,0,0,.164-.166h0v-.627a.164.164,0,0,0-.164-.164h-.7V4354.2a.427.427,0,0,0-.362-.422l-5.776-.88.123-1.207,7.686-.223a.216.216,0,0,0,.208-.22l-.066-2.288a.215.215,0,0,0-.221-.208Zm-11.011-1.47a1.526,1.526,0,0,1-.038-.306l.182-.064,2.535-.871a1.507,1.507,0,0,1-.3,2.111,1.492,1.492,0,0,1-.571.264,1.509,1.509,0,0,1-1.806-1.133v0Z" transform="translate(-3783.211 -4344.791)" fill="#1a1311"/><path d="M3818.177,4351.17h-1.687v-2.335a.228.228,0,0,0-.228-.229h-2.072a.229.229,0,0,0-.229.229h0v2.335h-3.1a.228.228,0,0,0-.229.229v2.071a.228.228,0,0,0,.229.228h3.1v7.251h-.613a.193.193,0,0,0-.193.193v.505a.193.193,0,0,0,.193.192h2.941a.2.2,0,0,0,.2-.2h0V4353.7h1.687a.228.228,0,0,0,.228-.228h0v-2.07A.227.227,0,0,0,3818.177,4351.17Z" transform="translate(-3791.633 -4345.962)" fill="#1a1311"/><path d="M3836.085,4351.548h-1.518v-1.522a.19.19,0,0,0-.19-.19h-1.9a.188.188,0,0,0-.189.188v1.525h-2.495a.189.189,0,0,0-.19.189h0v2.15a.189.189,0,0,0,.189.188h2.5v3.709a2.135,2.135,0,0,1-2.134,2.136h-.375a.173.173,0,0,0-.174.174h0v1.927a.175.175,0,0,0,.174.175h.373a4.414,4.414,0,0,0,4.414-4.413h0v-3.709h1.518a.19.19,0,0,0,.189-.189h0v-2.15A.19.19,0,0,0,3836.085,4351.548Z" transform="translate(-3797.461 -4346.34)" fill="#1a1311"/><path d="M3849.293,4356.329h2.188a.23.23,0,0,0,.229-.231v-2.288h2.048a.129.129,0,0,0,.128-.128h0v-3.77a.215.215,0,0,0-.215-.214h-.144v-.007h-4.739v-1.953a.2.2,0,0,0-.2-.2h-2.011a.2.2,0,0,0-.2.2h0v1.953h-4.884a.215.215,0,0,0-.214.215v3.7a.2.2,0,0,0,.2.2h1.972v2.288a.231.231,0,0,0,.23.231h2.691v.53h-3.395a.2.2,0,0,0-.2.2v1.473a.2.2,0,0,0,.2.2h3.395v.5h-4.893a.2.2,0,0,0-.205.2h0v1.472a.206.206,0,0,0,.205.205h12.2a.206.206,0,0,0,.205-.205v-1.472a.205.205,0,0,0-.205-.2h-4.893v-.5h3.395a.205.205,0,0,0,.205-.205v-1.473a.2.2,0,0,0-.205-.2h-3.395v-.53Zm-5.6-4.13v-.444h7.777v.444Zm2.176,2.091v-.052a.231.231,0,0,1,.23-.23h2.966a.231.231,0,0,1,.23.23v.052a.23.23,0,0,1-.23.23H3846.1a.227.227,0,0,1-.228-.23Z" transform="translate(-3801.045 -4345.635)" fill="#1a1311"/><path d="M3826.648,4360.63h-.519V4352.5a.19.19,0,0,0-.19-.19h-1.917a.189.189,0,0,0-.189.188h0v8.7a.245.245,0,0,0,.245.246h2.57a.212.212,0,0,0,.211-.211h0v-.386a.212.212,0,0,0-.21-.211Z" transform="translate(-3795.688 -4347.099)" fill="#1a1311"/><path d="M3812.508,4359.168a1.2,1.2,0,1,0,1.2,1.2h0A1.2,1.2,0,0,0,3812.508,4359.168Z" transform="translate(-3791.842 -4349.207)" fill="#1a1311"/><path d="M3845.161,4349.272a1.2,1.2,0,1,0-1.2-1.2h0A1.2,1.2,0,0,0,3845.161,4349.272Z" transform="translate(-3801.871 -4345.432)" fill="#1a1311"/><path d="M3854.531,4349.272a1.2,1.2,0,1,0-1.2-1.2h0A1.2,1.2,0,0,0,3854.531,4349.272Z" transform="translate(-3804.749 -4345.432)" fill="#1a1311"/><path d="M3807.132,4349.683l-1.876-.946a.214.214,0,0,0-.288.094h0l-1.764,3.52-.007,0-.764,1.532a.215.215,0,0,0,.1.289l1.526.76v6.715a.234.234,0,0,0,.234.231h2.063a.233.233,0,0,0,.233-.231v-7.414a.315.315,0,0,0-.175-.282l-.94-.468,1.759-3.509a.215.215,0,0,0-.1-.287Z" transform="translate(-3789.107 -4345.996)" fill="#1a1311"/></g><g transform="translate(15.656 17.677)"><path d="M3795.935,4370.963h-.569v.447h.524v1.807h-.437v-.121H3794.3v.141h-.416v-1.827h.5v-.447h-.524v-.328c-.053.149-.112.3-.178.443l.106.034a.106.106,0,0,1-.09.063v2.113h-.432v-1.441q-.079.118-.159.215a4.9,4.9,0,0,0-.184-.486,3.851,3.851,0,0,0,.584-1.26l.488.162c-.013.028-.043.044-.094.041l-.013.035h2.051Zm-1.64.84v.906h.129v-.906Zm.64,0h-.134v.906h.134Zm0-.392v-.447h-.13v.447Zm.516,1.3v-.906h-.137v.906Z" transform="translate(-3780.042 -4370.308)" fill="#1a1311"/><path d="M3801.33,4370.619l.295.134a.112.112,0,0,1-.048.053,2.328,2.328,0,0,1-.446.794,2.025,2.025,0,0,0,.668.318,2.107,2.107,0,0,0-.256.334v1.013h-.436v-.084h-.535v.094h-.419v-.967l-.14.057a1.424,1.424,0,0,0-.13-.216l-.12.168c-.027-.075-.071-.171-.118-.271v1.228h-.43v-1.032a2.257,2.257,0,0,1-.253.5,2.357,2.357,0,0,0-.2-.416,2.8,2.8,0,0,0,.425-.974h-.349v-.419h.381v-.631l.519.028c0,.034-.032.053-.09.065v.538h.318v.19a2.5,2.5,0,0,0,.506-.824l.487.159a.089.089,0,0,1-.09.038c-.019.042-.041.091-.062.134h.456Zm-1.687.738v.1c.072.086.248.336.331.462a2.443,2.443,0,0,0,.544-.321,2.517,2.517,0,0,1-.184-.25,2.079,2.079,0,0,1-.209.216,2.517,2.517,0,0,0-.218-.209Zm1.44.73a2.1,2.1,0,0,1-.26-.187,2.455,2.455,0,0,1-.256.188Zm-.513.709h.535v-.331h-.535Zm.009-1.778a2,2,0,0,0,.228.3,1.713,1.713,0,0,0,.209-.3Z" transform="translate(-3781.835 -4370.304)" fill="#1a1311"/><path d="M3805.419,4372.256a.437.437,0,1,1-.437-.437A.437.437,0,0,1,3805.419,4372.256Z" transform="translate(-3783.613 -4370.77)" fill="#1a1311"/><path d="M3808.807,4372.231a2.478,2.478,0,0,1,.786.362.983.983,0,0,1-.225.491,1.9,1.9,0,0,0-.542-.372v.006c0,.311-.227.52-.677.52-.48,0-.793-.207-.793-.563,0-.305.3-.527.793-.527.063,0,.125,0,.184.006l-.013-.25c-.277.006-.553,0-.765-.01a1.552,1.552,0,0,1-.081-.471,5.36,5.36,0,0,0,.553.037c.084,0,.181,0,.281,0v-.3c-.217,0-.434,0-.65-.02a1.453,1.453,0,0,1-.075-.443,3.464,3.464,0,0,0,.512.043c.065,0,.14,0,.218,0v-.038c0-.169,0-.241-.005-.337a2.424,2.424,0,0,1,.5.038c-.01.1-.016.209-.019.318a3.571,3.571,0,0,0,.512-.067,1.444,1.444,0,0,1-.007.435,4.267,4.267,0,0,1-.522.06c0,.094,0,.185,0,.278v.016a4.378,4.378,0,0,0,.637-.094,1.688,1.688,0,0,1,0,.465,5.166,5.166,0,0,1-.611.072Zm-.456.329a1.406,1.406,0,0,0-.259-.022c-.156,0-.265.042-.265.13s.075.138.253.138.269-.067.271-.246Z" transform="translate(-3784.476 -4370.32)" fill="#1a1311"/><path d="M3812.438,4372.1a.585.585,0,0,0-.091.282c0,.139.1.281.55.281a2.649,2.649,0,0,0,1.034-.2,1.43,1.43,0,0,1,.125.518,3.138,3.138,0,0,1-1.141.181c-.668,0-1.105-.244-1.105-.671a1.377,1.377,0,0,1,.146-.559A1.822,1.822,0,0,1,3812.438,4372.1Zm-.366-1.45a5.572,5.572,0,0,0,1.637.019,2.22,2.22,0,0,1-.009.49,6.377,6.377,0,0,1-1.6,0,2.166,2.166,0,0,1-.024-.509Zm2.084.271a.9.9,0,0,1-.25.1,2.2,2.2,0,0,0-.181-.425,1.268,1.268,0,0,1,.241-.1,2.17,2.17,0,0,1,.19.423Zm.349-.148a1.015,1.015,0,0,1-.247.106,1.892,1.892,0,0,0-.184-.409,1.393,1.393,0,0,1,.241-.1,1.522,1.522,0,0,1,.19.407Z" transform="translate(-3785.844 -4370.323)" fill="#1a1311"/><path d="M3817.287,4372.226a.575.575,0,0,0-.09.282c0,.139.1.282.549.282a2.638,2.638,0,0,0,1.033-.2,1.435,1.435,0,0,1,.125.519,3.116,3.116,0,0,1-1.14.18c-.668,0-1.106-.243-1.106-.671a1.331,1.331,0,0,1,.147-.559A1.832,1.832,0,0,1,3817.287,4372.226Zm-.365-1.449a6.188,6.188,0,0,0,1.73.019,2.327,2.327,0,0,1-.009.491,7.167,7.167,0,0,1-1.7,0A2.375,2.375,0,0,1,3816.923,4370.776Z" transform="translate(-3787.333 -4370.449)" fill="#1a1311"/><path d="M3821.71,4370.58a7.28,7.28,0,0,0,1.118-.095,1.21,1.21,0,0,1,.19.335,8.791,8.791,0,0,0-.8.734,1.121,1.121,0,0,1,.348-.054.83.83,0,0,1,.892.761v.033c0,.61-.475,1.078-1.543.971a1.61,1.61,0,0,1-.162-.53c.687.122,1.184.012,1.184-.45,0-.2-.156-.4-.5-.4a1.391,1.391,0,0,0-1.081.752,1.418,1.418,0,0,1-.36-.406c.329-.365.957-.978,1.237-1.262-.144.024-.475.059-.7.072a1.724,1.724,0,0,1-.113-.476C3821.483,4370.574,3821.594,4370.58,3821.71,4370.58Z" transform="translate(-3788.666 -4370.359)" fill="#1a1311"/><path d="M3775.785,4372.231a2.491,2.491,0,0,1,.786.362.992.992,0,0,1-.225.491,1.892,1.892,0,0,0-.541-.372v.006c0,.311-.228.52-.678.52-.48,0-.794-.207-.794-.563,0-.305.3-.527.794-.527.063,0,.125,0,.184.006l-.012-.25c-.278.006-.553,0-.766-.01a1.583,1.583,0,0,1-.081-.471,5.37,5.37,0,0,0,.554.037c.084,0,.181,0,.281,0v-.3c-.217,0-.434,0-.65-.02a1.5,1.5,0,0,1-.075-.443,3.476,3.476,0,0,0,.513.043c.066,0,.141,0,.218,0v-.038c0-.169,0-.241-.005-.337a2.424,2.424,0,0,1,.5.038q-.015.155-.019.318a3.546,3.546,0,0,0,.512-.067,1.428,1.428,0,0,1-.006.435,4.3,4.3,0,0,1-.523.06c0,.094,0,.185,0,.278v.016a4.378,4.378,0,0,0,.637-.094,1.633,1.633,0,0,1-.006.465,5.146,5.146,0,0,1-.611.072Zm-.457.329a1.4,1.4,0,0,0-.259-.022c-.156,0-.265.042-.265.13s.075.138.252.138.271-.067.273-.246Z" transform="translate(-3774.333 -4370.32)" fill="#1a1311"/><path d="M3779.417,4372.1a.59.59,0,0,0-.091.282c0,.139.1.281.55.281a2.651,2.651,0,0,0,1.034-.2,1.43,1.43,0,0,1,.125.518,3.136,3.136,0,0,1-1.14.181c-.669,0-1.106-.244-1.106-.671a1.37,1.37,0,0,1,.147-.559A1.81,1.81,0,0,1,3779.417,4372.1Zm-.366-1.45a5.572,5.572,0,0,0,1.637.019,2.281,2.281,0,0,1-.009.49,6.381,6.381,0,0,1-1.6,0,2.22,2.22,0,0,1-.024-.509Zm2.083.271a.9.9,0,0,1-.25.1,2.2,2.2,0,0,0-.181-.425,1.315,1.315,0,0,1,.24-.1,2.115,2.115,0,0,1,.19.423Zm.349-.148a1,1,0,0,1-.247.106,1.94,1.94,0,0,0-.184-.409,1.41,1.41,0,0,1,.241-.1,1.556,1.556,0,0,1,.189.407Z" transform="translate(-3775.701 -4370.323)" fill="#1a1311"/><path d="M3784.266,4372.226a.585.585,0,0,0-.09.282c0,.139.1.282.549.282a2.644,2.644,0,0,0,1.034-.2,1.455,1.455,0,0,1,.125.519,3.116,3.116,0,0,1-1.141.18c-.668,0-1.1-.243-1.1-.671a1.323,1.323,0,0,1,.146-.559A1.826,1.826,0,0,1,3784.266,4372.226Zm-.366-1.449a6.192,6.192,0,0,0,1.731.019,2.36,2.36,0,0,1-.01.491,7.167,7.167,0,0,1-1.7,0A2.407,2.407,0,0,1,3783.9,4370.776Z" transform="translate(-3777.191 -4370.449)" fill="#1a1311"/><path d="M3788.688,4370.58a7.277,7.277,0,0,0,1.119-.095,1.236,1.236,0,0,1,.19.335,8.72,8.72,0,0,0-.8.734,1.117,1.117,0,0,1,.346-.054.83.83,0,0,1,.892.761l0,.032c0,.61-.476,1.078-1.544.971a1.622,1.622,0,0,1-.162-.53c.688.122,1.184.012,1.184-.45,0-.2-.155-.4-.5-.4a1.392,1.392,0,0,0-1.081.752,1.425,1.425,0,0,1-.36-.406c.328-.365.956-.978,1.237-1.262-.144.024-.475.059-.7.072a1.816,1.816,0,0,1-.113-.476C3788.46,4370.574,3788.57,4370.58,3788.688,4370.58Z" transform="translate(-3778.523 -4370.359)" fill="#1a1311"/><path d="M3828.539,4372.918a1.23,1.23,0,0,1-.387.387,5.455,5.455,0,0,0-.741-.836,3.683,3.683,0,0,1-1.141.818,2.212,2.212,0,0,1-.385-.436,3.031,3.031,0,0,0,1.247-.8,2.207,2.207,0,0,0,.451-.668c-.377,0-1.122.024-1.347.034a3.254,3.254,0,0,1-.059-.49c.1.009.225.015.325.015.166,0,1.091-.015,1.29-.024a1.989,1.989,0,0,0,.235-.022,1.132,1.132,0,0,1,.265.262,5.208,5.208,0,0,1-.562.937A6.147,6.147,0,0,1,3828.539,4372.918Z" transform="translate(-3790.167 -4370.485)" fill="#1a1311"/><path d="M3832.865,4370.891a1.542,1.542,0,0,0,.241-.021,1.325,1.325,0,0,1,.284.23,3.334,3.334,0,0,1-.523,1.079c.1.081.188.165.274.25a.988.988,0,0,1-.348.385c-.076-.082-.163-.169-.256-.257a2.837,2.837,0,0,1-1.1.694,1.494,1.494,0,0,1-.425-.416,2.58,2.58,0,0,0,1.162-.587,4.73,4.73,0,0,0-.474-.336,2.408,2.408,0,0,1,.316-.327,5.261,5.261,0,0,1,.487.31,1.81,1.81,0,0,0,.3-.593l-.789.012a3.114,3.114,0,0,1-.731.714,1.1,1.1,0,0,1-.419-.33,2.389,2.389,0,0,0,1.106-1.312,1.288,1.288,0,0,1,.475.211,2.2,2.2,0,0,1-.153.3c.487,0,.578-.009.578-.009Z" transform="translate(-3791.695 -4370.329)" fill="#1a1311"/><path d="M3836.193,4372.351a1.776,1.776,0,0,1-.4.183,6.1,6.1,0,0,0-.291-.6c.081-.044.306-.143.392-.178A5.172,5.172,0,0,1,3836.193,4372.351Zm1.465-.5a2.834,2.834,0,0,1-.427,1.017,2.056,2.056,0,0,1-.922.685,1.548,1.548,0,0,1-.362-.369,1.68,1.68,0,0,0,.906-.575,1.82,1.82,0,0,0,.354-.96,1.64,1.64,0,0,1,.453.205Zm-.806.268a2.179,2.179,0,0,1-.406.175,5.588,5.588,0,0,0-.269-.611,3.826,3.826,0,0,1,.4-.167,6.342,6.342,0,0,1,.275.6Z" transform="translate(-3793.121 -4370.676)" fill="#1a1311"/><path d="M3841.626,4372.435a2.588,2.588,0,0,1-1.225.95,1.512,1.512,0,0,1-.446-.463,2.024,2.024,0,0,0,1.155-.659,1.789,1.789,0,0,0,.366-.815c-.319,0-1.487.019-1.755.024a3.453,3.453,0,0,1-.047-.523c.147.014.313.022.419.022.206,0,1.268-.013,1.475-.016a1.538,1.538,0,0,0,.237-.019,1.331,1.331,0,0,1,.3.241A3.661,3.661,0,0,1,3841.626,4372.435Z" transform="translate(-3794.402 -4370.498)" fill="#1a1311"/></g></g></g></g><path d="M2.75-23.75,2.6-24.1a3.032,3.032,0,0,1-.15-2.225A2.744,2.744,0,0,1,3.85-28a88.278,88.278,0,0,0,15.2-10.75,7.193,7.193,0,0,1,4.9-1.9h2.8a7.193,7.193,0,0,1,4.9,1.9A86.536,86.536,0,0,0,46.9-28a2.876,2.876,0,0,1,1.375,1.7,2.871,2.871,0,0,1-.125,2.2l-.2.35a2.655,2.655,0,0,1-1.625,1.425A2.555,2.555,0,0,1,44.2-22.5q-2.1-1.15-4.15-2.45a.139.139,0,0,0-.175.025q-.075.075-.025.125a2.831,2.831,0,0,1,.15.9,2.554,2.554,0,0,1-.775,1.875,2.554,2.554,0,0,1-1.875.775H29.2a.4.4,0,0,0-.45.45v5.45a.4.4,0,0,0,.45.45H39.95a2.554,2.554,0,0,1,1.875.775A2.554,2.554,0,0,1,42.6-12.25a2.554,2.554,0,0,1-.775,1.875A2.554,2.554,0,0,1,39.95-9.6H29.2a.4.4,0,0,0-.45.45V-2.4q0,.4.45.4H44.35a2.679,2.679,0,0,1,1.925.8A2.613,2.613,0,0,1,47.1.75a2.613,2.613,0,0,1-.825,1.95,2.679,2.679,0,0,1-1.925.8h-38a2.679,2.679,0,0,1-1.925-.8A2.613,2.613,0,0,1,3.6.75,2.613,2.613,0,0,1,4.425-1.2,2.679,2.679,0,0,1,6.35-2H21.5q.45,0,.45-.4V-9.15a.4.4,0,0,0-.45-.45H10.75a2.554,2.554,0,0,1-1.875-.775A2.554,2.554,0,0,1,8.1-12.25a2.554,2.554,0,0,1,.775-1.875A2.554,2.554,0,0,1,10.75-14.9H21.5a.4.4,0,0,0,.45-.45V-20.8a.4.4,0,0,0-.45-.45h-8a2.554,2.554,0,0,1-1.875-.775A2.554,2.554,0,0,1,10.85-23.9a2.226,2.226,0,0,1,.2-1,.139.139,0,0,0-.025-.175q-.075-.075-.125-.025-1.95,1.25-4.4,2.6a2.555,2.555,0,0,1-2.125.175A2.655,2.655,0,0,1,2.75-23.75ZM25.05-36.1A84.942,84.942,0,0,1,13.5-26.8a.17.17,0,0,0-.05.125q0,.075.05.075H37.1a.2.2,0,0,0,.1-.2,79.981,79.981,0,0,1-11.55-9.3A.375.375,0,0,0,25.05-36.1ZM56.85,4.65a2.778,2.778,0,0,1-2-.825A2.656,2.656,0,0,1,54,1.85V-37a2.737,2.737,0,0,1,.85-2,2.737,2.737,0,0,1,2-.85h38.3a2.737,2.737,0,0,1,2,.85A2.737,2.737,0,0,1,98-37V1.85a2.656,2.656,0,0,1-.85,1.975,2.778,2.778,0,0,1-2,.825H93.3a1.637,1.637,0,0,1-1.2-.5,1.637,1.637,0,0,1-.5-1.2.265.265,0,0,0-.3-.3H60.7a.265.265,0,0,0-.3.3,1.637,1.637,0,0,1-.5,1.2,1.637,1.637,0,0,1-1.2.5ZM60.4-34.3V-2.7a.4.4,0,0,0,.45.45h30.3a.4.4,0,0,0,.45-.45V-34.3a.4.4,0,0,0-.45-.45H60.85A.4.4,0,0,0,60.4-34.3ZM72.25-10.35a.354.354,0,0,0,.4-.4v-6a.354.354,0,0,0-.4-.4H66.6a2.134,2.134,0,0,1-1.6-.675,2.259,2.259,0,0,1-.65-1.625A2.259,2.259,0,0,1,65-21.075a2.134,2.134,0,0,1,1.6-.675h5.65q.4,0,.4-.45v-4.4a.354.354,0,0,0-.4-.4h-7a2.314,2.314,0,0,1-1.7-.7,2.314,2.314,0,0,1-.7-1.7,2.4,2.4,0,0,1,.7-1.725,2.275,2.275,0,0,1,1.7-.725h21.5a2.275,2.275,0,0,1,1.7.725,2.4,2.4,0,0,1,.7,1.725,2.314,2.314,0,0,1-.7,1.7,2.314,2.314,0,0,1-1.7.7h-7.5a.354.354,0,0,0-.4.4v4.4q0,.45.4.45H85.4a2.134,2.134,0,0,1,1.6.675,2.259,2.259,0,0,1,.65,1.625A2.259,2.259,0,0,1,87-17.825a2.134,2.134,0,0,1-1.6.675H79.25a.354.354,0,0,0-.4.4v6a.354.354,0,0,0,.4.4h7.3a.168.168,0,0,0,.15-.075q.05-.075-.05-.175-.05-.05-.15-.175t-.15-.175L84.7-13.2a2.356,2.356,0,0,1-.45-1.825,2.164,2.164,0,0,1,1-1.575,2.756,2.756,0,0,1,1.95-.375,2.609,2.609,0,0,1,1.7,1.025q.3.35.85,1.15t.8,1.15a2.3,2.3,0,0,1,.4,1.85,2.316,2.316,0,0,1-1.05,1.55,2.411,2.411,0,0,1-.85.35.316.316,0,0,0-.15.175q-.05.125.05.175a2.314,2.314,0,0,1,.7,1.7,2.414,2.414,0,0,1-.725,1.775,2.414,2.414,0,0,1-1.775.725H64.85a2.414,2.414,0,0,1-1.775-.725A2.414,2.414,0,0,1,62.35-7.85a2.414,2.414,0,0,1,.725-1.775,2.414,2.414,0,0,1,1.775-.725ZM133.9-8.4a2.681,2.681,0,0,1-2.175-.125,2.828,2.828,0,0,1-1.475-1.625q-1.85-4.75-4.05-9.25a2.626,2.626,0,0,1-.1-2.125,2.568,2.568,0,0,1,1.45-1.525l.5-.25a2.809,2.809,0,0,1,2.2-.1,2.726,2.726,0,0,1,1.6,1.5q2.3,4.95,4.15,9.65a2.815,2.815,0,0,1-.075,2.175A2.646,2.646,0,0,1,134.35-8.6ZM106.7-28.5a2.656,2.656,0,0,1-1.975-.85,2.778,2.778,0,0,1-.825-2,2.7,2.7,0,0,1,.825-1.975,2.7,2.7,0,0,1,1.975-.825h4.6q.4,0,.4-.45v-3.55a2.737,2.737,0,0,1,.85-2,2.737,2.737,0,0,1,2-.85h1a2.737,2.737,0,0,1,2,.85,2.737,2.737,0,0,1,.85,2v3.55q0,.45.4.45h4.8a2.781,2.781,0,0,1,1.8.65,2.748,2.748,0,0,1,1,1.6q.1.25.35.05a2.8,2.8,0,0,1,1.9-.75h10.5q.45,0,.45-.4v-4.85a2.7,2.7,0,0,1,.825-1.975,2.7,2.7,0,0,1,1.975-.825h1a2.778,2.778,0,0,1,2,.825,2.656,2.656,0,0,1,.85,1.975V-33q0,.4.45.4h.55a2.737,2.737,0,0,1,2,.85,2.737,2.737,0,0,1,.85,2,2.737,2.737,0,0,1-.85,2,2.737,2.737,0,0,1-2,.85h-.55q-.45,0-.45.4V-3.75q0,2.05-.075,3.225a8.444,8.444,0,0,1-.425,2.2,3.863,3.863,0,0,1-.8,1.475,3.665,3.665,0,0,1-1.5.775,9.615,9.615,0,0,1-2.25.4q-1.2.075-3.3.075-2.8,0-4.9-.1a2.979,2.979,0,0,1-2.05-.9A3.188,3.188,0,0,1,130,1.35a2.5,2.5,0,0,1,.75-1.925,2.454,2.454,0,0,1,1.95-.775q3.5.1,4.05.1a5.159,5.159,0,0,0,2.45-.325q.4-.325.4-2.025V-26.5q0-.4-.45-.4h-10.5a2.749,2.749,0,0,1-1.775-.625,2.7,2.7,0,0,1-.975-1.625q-.1-.3-.4-.1a2.8,2.8,0,0,1-1.9.75h-.05a.4.4,0,0,0-.45.45,50.291,50.291,0,0,1-2.55,15.25.761.761,0,0,0,.1.75q1.9,2.45,4.9,6.75a3.044,3.044,0,0,1,.475,2.175A2.924,2.924,0,0,1,124.9-1.2l-.45.35a2.575,2.575,0,0,1-2.05.525,2.558,2.558,0,0,1-1.8-1.125q-2.8-4-3.1-4.4-.2-.3-.45.05a35.634,35.634,0,0,1-7.8,8.25,2.5,2.5,0,0,1-2.05.5,2.6,2.6,0,0,1-1.8-1.2L104.9,1a2.841,2.841,0,0,1-.45-2.15A3.039,3.039,0,0,1,105.6-3.1a29.267,29.267,0,0,0,7.25-8.25.6.6,0,0,0-.1-.65q-3.75-4.65-6.7-7.7a2.823,2.823,0,0,1-.8-2,2.737,2.737,0,0,1,.85-2l.4-.4a2.554,2.554,0,0,1,2-.825,2.715,2.715,0,0,1,2,.875q2.1,2.25,4.7,5.25a.208.208,0,0,0,.2.075.224.224,0,0,0,.15-.125,54.729,54.729,0,0,0,1.05-9.2.4.4,0,0,0-.45-.45ZM157.85,2.45,156.8,1.2a4.5,4.5,0,0,1-.75-4.75,35.783,35.783,0,0,0,1.625-7.75,123.845,123.845,0,0,0,.475-12.45V-34.1a2.656,2.656,0,0,1,.85-1.975,2.778,2.778,0,0,1,2-.825h15.15a.4.4,0,0,0,.45-.45V-39a2.778,2.778,0,0,1,.825-2,2.656,2.656,0,0,1,1.975-.85h1.2a2.656,2.656,0,0,1,1.975.85,2.778,2.778,0,0,1,.825,2v1.65a.4.4,0,0,0,.45.45H198.1a2.679,2.679,0,0,1,1.925.8,2.613,2.613,0,0,1,.825,1.95,2.613,2.613,0,0,1-.825,1.95,2.679,2.679,0,0,1-1.925.8H164.95q-.45,0-.45.4v12.1q0,13.25-3.55,21a1.617,1.617,0,0,1-1.425,1.05A1.812,1.812,0,0,1,157.85,2.45Zm12.5-21.35.25.05a3.093,3.093,0,0,1,1.875,1.225A2.666,2.666,0,0,1,173-15.5,92.5,92.5,0,0,1,169.7-.85,2.472,2.472,0,0,1,168.25.725,2.616,2.616,0,0,1,166.1.75l-.4-.2A2.916,2.916,0,0,1,164.1-1a2.927,2.927,0,0,1-.1-2.25,104.457,104.457,0,0,0,3.15-13.45,2.559,2.559,0,0,1,1.15-1.775A2.719,2.719,0,0,1,170.35-18.9ZM183.6,4.15q-2.4,0-3.75-.05a15.267,15.267,0,0,1-2.55-.3,5.508,5.508,0,0,1-1.675-.55,2.678,2.678,0,0,1-.875-1.1A4.212,4.212,0,0,1,174.3.5q-.05-.85-.05-2.4V-20.5a2.737,2.737,0,0,1,.85-2,2.737,2.737,0,0,1,2-.85h1a2.656,2.656,0,0,1,1.975.85,2.778,2.778,0,0,1,.825,2V-3.35q0,1.3.375,1.525A7.98,7.98,0,0,0,183.9-1.6a18.177,18.177,0,0,0,2.05-.075,1.9,1.9,0,0,0,1.1-.675,2.788,2.788,0,0,0,.65-1.675q.1-1.075.2-3.375a2.583,2.583,0,0,1,.9-1.9,2.566,2.566,0,0,1,2-.65l.45.05a2.971,2.971,0,0,1,1.975,1.075A3.007,3.007,0,0,1,193.95-6.7q-.1,2.1-.2,3.475A18.431,18.431,0,0,1,193.375-.6a13.532,13.532,0,0,1-.55,1.95,3.541,3.541,0,0,1-.925,1.3,4.537,4.537,0,0,1-1.225.85,7.508,7.508,0,0,1-1.8.425,19.525,19.525,0,0,1-2.3.2Q185.5,4.15,183.6,4.15ZM175.75-26.1a2.451,2.451,0,0,1-1.6-1.175,2.187,2.187,0,0,1-.2-1.925,3.083,3.083,0,0,1,1.4-1.725,3.116,3.116,0,0,1,2.15-.375,81.02,81.02,0,0,1,13.35,3.7,2.56,2.56,0,0,1,1.55,1.475,2.741,2.741,0,0,1,0,2.175,2.735,2.735,0,0,1-1.525,1.55,2.889,2.889,0,0,1-2.175.05A88.76,88.76,0,0,0,175.75-26.1Zm18.85,6.4a2.729,2.729,0,0,1,2.225.15A2.924,2.924,0,0,1,198.3-17.9a114.166,114.166,0,0,1,4.15,14.7,2.735,2.735,0,0,1-.4,2.15A3.189,3.189,0,0,1,200.25.3l-.7.2a2.657,2.657,0,0,1-2.1-.275,2.34,2.34,0,0,1-1.2-1.675A113.577,113.577,0,0,0,192.3-16a2.62,2.62,0,0,1,.1-2.125A2.577,2.577,0,0,1,194-19.5Z" transform="matrix(0.663, -0.383, 0.741, 0.457, 3711.728, 4268.181)" fill="#eb6d4e"/></g></svg>