<svg xmlns="http://www.w3.org/2000/svg" width="60" height="60" viewBox="0 0 60 60">
  <g id="ico_q" transform="translate(-153 -1610)">
    <circle id="楕円形_98" data-name="楕円形 98" cx="30" cy="30" r="30" transform="translate(153 1610)" fill="#03a58e"/>
    <path id="パス_68843" data-name="パス 68843" d="M12.031.391A10.443,10.443,0,0,1,4.188-2.734a11.308,11.308,0,0,1-3.031-8.172A12.087,12.087,0,0,1,4.234-19.5a10.626,10.626,0,0,1,8.156-3.281,10.145,10.145,0,0,1,7.75,3.141,11.527,11.527,0,0,1,2.969,8.281,11.875,11.875,0,0,1-3.078,8.516q-.109.109-.2.211a2.414,2.414,0,0,1-.2.2L25.3,3.016H18.234L15.266,0A12.569,12.569,0,0,1,12.031.391Zm.219-18.828a5.1,5.1,0,0,0-4.219,2,8.273,8.273,0,0,0-1.562,5.266A8.154,8.154,0,0,0,8.031-5.906a5.006,5.006,0,0,0,4.094,1.938,5.065,5.065,0,0,0,4.141-1.875A8.136,8.136,0,0,0,17.8-11.078,8.78,8.78,0,0,0,16.313-16.5,4.813,4.813,0,0,0,12.25-18.437Z" transform="translate(170 1651)" fill="#fff"/>
  </g>
</svg>
