<svg xmlns="http://www.w3.org/2000/svg" xmlns:xlink="http://www.w3.org/1999/xlink" width="360" height="323" viewBox="0 0 360 323"><defs><filter id="a" x="0" y="0" width="360" height="323" filterUnits="userSpaceOnUse"><feOffset input="SourceAlpha"/><feGaussianBlur stdDeviation="2.5" result="b"/><feFlood flood-opacity="0.161"/><feComposite operator="in" in2="b"/><feComposite in="SourceGraphic"/></filter><clipPath id="c"><rect width="265.821" height="6.078" fill="none"/></clipPath><clipPath id="d"><rect width="203.821" height="6.078" fill="none"/></clipPath></defs><g transform="translate(7.5 7.5)"><g transform="matrix(1, 0, 0, 1, -7.5, -7.5)" filter="url(#a)"><path d="M0,0H345V308H0Z" transform="translate(7.5 7.5)" fill="#fff"/></g><path d="M0,0H327V100H0Z" transform="translate(9 94)" fill="#004099"/><path d="M0,0H327V100H0Z" transform="translate(9 199)" fill="#004099"/><path d="M0,0H340V89H0Z" fill="#fff20e"/><g transform="translate(-397 -5815)"><path d="M1.764,1.092,1.386.609a1.616,1.616,0,0,1-.147-1.932A12.463,12.463,0,0,0,2.457-4.956a29.345,29.345,0,0,0,.378-5.166v-5.565a1.115,1.115,0,0,1,.357-.829,1.167,1.167,0,0,1,.84-.347h.336a1.167,1.167,0,0,1,.84.347,1.115,1.115,0,0,1,.357.829v3.36a.167.167,0,0,0,.189.189H11.13q.168,0,.168-.189V-15.9a1.115,1.115,0,0,1,.357-.83,1.167,1.167,0,0,1,.84-.346h.42a1.167,1.167,0,0,1,.84.346,1.115,1.115,0,0,1,.357.83v3.57q0,.189.168.189H18.9a1.167,1.167,0,0,1,.84.347,1.115,1.115,0,0,1,.357.83,1.149,1.149,0,0,1-.357.84,1.149,1.149,0,0,1-.84.357H5.754a.167.167,0,0,0-.189.189v1.428q0,.672-.021,1.008a.148.148,0,0,0,.168.168h9.03a1.115,1.115,0,0,1,.83.357,1.167,1.167,0,0,1,.346.84V.777a1.132,1.132,0,0,1-.346.829,1.132,1.132,0,0,1-.83.347h-.42a1.167,1.167,0,0,1-.84-.347,1.115,1.115,0,0,1-.357-.829V-4.41q0-.168-.189-.168H5.481a.2.2,0,0,0-.21.168A14.4,14.4,0,0,1,3.213,1.071a.809.809,0,0,1-.714.378A.877.877,0,0,1,1.764,1.092ZM28.812-11.76a1.149,1.149,0,0,1-.84-.357,1.149,1.149,0,0,1-.357-.84,1.115,1.115,0,0,1,.357-.83,1.167,1.167,0,0,1,.84-.346H36.5a.167.167,0,0,0,.189-.189V-15.9a1.132,1.132,0,0,1,.347-.83,1.132,1.132,0,0,1,.829-.346h.42a1.167,1.167,0,0,1,.84.346,1.115,1.115,0,0,1,.357.83v1.575a.167.167,0,0,0,.189.189h.4a1.167,1.167,0,0,1,.84.346,1.115,1.115,0,0,1,.357.83,1.149,1.149,0,0,1-.357.84,1.149,1.149,0,0,1-.84.357h-.4a.167.167,0,0,0-.189.189v10q0,.861-.031,1.355A3.547,3.547,0,0,1,39.27.7a1.622,1.622,0,0,1-.336.62,1.539,1.539,0,0,1-.63.326,4.038,4.038,0,0,1-.945.168q-.5.032-1.386.032-1.407,0-2.436-.042a1.251,1.251,0,0,1-.861-.378,1.339,1.339,0,0,1-.4-.861,1.078,1.078,0,0,1,.315-.83,1.031,1.031,0,0,1,.819-.325q1.365.063,2.079.063a2.167,2.167,0,0,0,1.029-.137q.168-.136.168-.85V-11.571a.167.167,0,0,0-.189-.189Zm4.473,7.9-.147.084a1.154,1.154,0,0,1-.9.095,1.13,1.13,0,0,1-.714-.556Q30.408-6.174,29.3-7.791a1.2,1.2,0,0,1-.189-.893,1.087,1.087,0,0,1,.5-.745l.147-.105a1.14,1.14,0,0,1,.892-.179,1.154,1.154,0,0,1,.767.494Q32.844-7.1,33.747-5.481a1.074,1.074,0,0,1,.1.9A1.168,1.168,0,0,1,33.285-3.864ZM21.924-6.048l-.252-.924a2.571,2.571,0,0,1,.357-2.121,21.327,21.327,0,0,0,2.751-6.888,1.2,1.2,0,0,1,.525-.766,1.2,1.2,0,0,1,.9-.2l.231.042a1.188,1.188,0,0,1,.756.5,1.155,1.155,0,0,1,.189.882,23.739,23.739,0,0,1-.84,3.087,1.063,1.063,0,0,0-.042.357V.777a1.115,1.115,0,0,1-.357.829,1.167,1.167,0,0,1-.84.347H24.99a1.167,1.167,0,0,1-.84-.347,1.115,1.115,0,0,1-.357-.829V-6.972q0-.042-.031-.042a.071.071,0,0,0-.052.021q-.336.567-.756,1.155a.545.545,0,0,1-.577.22A.57.57,0,0,1,21.924-6.048Zm29.106-4.1a1.149,1.149,0,0,1-.84-.357,1.149,1.149,0,0,1-.357-.84,1.149,1.149,0,0,1,.357-.84,1.149,1.149,0,0,1,.84-.357h4.935a.148.148,0,0,0,.168-.168v-2.562a1.115,1.115,0,0,1,.357-.83,1.167,1.167,0,0,1,.84-.347H57.6a1.167,1.167,0,0,1,.84.347,1.115,1.115,0,0,1,.357.83V-12.7q0,.168.189.168h1.7a1.149,1.149,0,0,1,.84.357,1.149,1.149,0,0,1,.357.84,1.149,1.149,0,0,1-.357.84,1.149,1.149,0,0,1-.84.357h-1.7q-.189,0-.189.168v2.352q0,3.99-1.05,5.744A6.788,6.788,0,0,1,53.718.8a1.179,1.179,0,0,1-.924-.084A1.232,1.232,0,0,1,52.185,0l-.063-.147a1,1,0,0,1,.052-.861,1.208,1.208,0,0,1,.683-.588,8.111,8.111,0,0,0,1.711-.724,2.743,2.743,0,0,0,.976-1.071,4.475,4.475,0,0,0,.483-1.627,24.582,24.582,0,0,0,.1-2.6V-9.975a.148.148,0,0,0-.168-.168Zm-4.7,11.151A1.31,1.31,0,0,1,45.4.788,1.213,1.213,0,0,1,44.877,0,35.291,35.291,0,0,1,44.1-7.56a35.291,35.291,0,0,1,.777-7.56,1.213,1.213,0,0,1,.525-.787,1.31,1.31,0,0,1,.924-.22l.4.042a.961.961,0,0,1,.735.441,1.052,1.052,0,0,1,.168.861,33.4,33.4,0,0,0-.735,7.224,33.4,33.4,0,0,0,.735,7.224,1.052,1.052,0,0,1-.168.861.961.961,0,0,1-.735.441ZM65.415-8.82a1.149,1.149,0,0,1-.84-.357,1.149,1.149,0,0,1-.357-.84V-13.4a1.149,1.149,0,0,1,.357-.84,1.149,1.149,0,0,1,.84-.357h1.953a.1.1,0,0,0,.095-.063.083.083,0,0,0-.01-.105q-.441-.777-.483-.84a.81.81,0,0,1-.053-.787.794.794,0,0,1,.6-.494l.147-.021a1.747,1.747,0,0,1,1.018.095,1.538,1.538,0,0,1,.767.661q.336.546.777,1.386a.26.26,0,0,0,.273.168h1.386a.167.167,0,0,0,.189-.189v-1.491a1.167,1.167,0,0,1,.347-.84,1.115,1.115,0,0,1,.829-.357h.5a1.115,1.115,0,0,1,.829.357,1.167,1.167,0,0,1,.347.84v1.491a.167.167,0,0,0,.189.189h1.47a.322.322,0,0,0,.273-.147q.546-.966.8-1.428a1.406,1.406,0,0,1,.693-.672,1.526,1.526,0,0,1,.966-.105l.084.021a.949.949,0,0,1,.651.515.831.831,0,0,1,0,.808q-.378.714-.462.84a.083.083,0,0,0-.01.105.1.1,0,0,0,.094.063h1.911a1.149,1.149,0,0,1,.84.357,1.149,1.149,0,0,1,.357.84v3.381a1.149,1.149,0,0,1-.357.84,1.149,1.149,0,0,1-.84.357h-.357a1.107,1.107,0,0,1-1.092-.714L80.1-9.566q-.01-.01-.032.01v2.772a1.167,1.167,0,0,1-.346.84,1.115,1.115,0,0,1-.829.357h-3.78a.167.167,0,0,0-.189.189v.9a.167.167,0,0,0,.189.189h5.1a1.014,1.014,0,0,1,.745.3,1.014,1.014,0,0,1,.3.746,1.049,1.049,0,0,1-.3.756,1,1,0,0,1-.745.315h-5.1q-.189,0-.189.168v1.05q0,.168.189.168h6.468a1.114,1.114,0,0,1,.819.336,1.114,1.114,0,0,1,.336.819,1.114,1.114,0,0,1-.336.819,1.114,1.114,0,0,1-.819.336H65.415a1.114,1.114,0,0,1-.819-.336A1.114,1.114,0,0,1,64.26.357,1.114,1.114,0,0,1,64.6-.462,1.114,1.114,0,0,1,65.415-.8h6.468q.189,0,.189-.168v-1.05q0-.168-.189-.168h-5.1a1,1,0,0,1-.745-.315,1.049,1.049,0,0,1-.3-.756,1.014,1.014,0,0,1,.3-.746,1.014,1.014,0,0,1,.745-.3h5.1a.167.167,0,0,0,.189-.189v-.9a.167.167,0,0,0-.189-.189H68.1a1.115,1.115,0,0,1-.829-.357,1.167,1.167,0,0,1-.346-.84V-9.555q0-.042-.063.021a1.107,1.107,0,0,1-1.092.714ZM77.28-7.749V-9.492q0-.168-.189-.168h-7.2a.148.148,0,0,0-.168.168v1.743q0,.189.168.189h7.2A.167.167,0,0,0,77.28-7.749ZM67.137-12.432q-.189,0-.189.168v1.323q0,.021.021.011a.165.165,0,0,0,.042-.031,1.107,1.107,0,0,1,1.092-.714H78.9a1.107,1.107,0,0,1,1.092.714.165.165,0,0,0,.042.031q.021.01.021-.011v-1.323q0-.168-.189-.168Zm19.74-.1a1.108,1.108,0,0,1-.8-.326,1.056,1.056,0,0,1-.336-.787,1.056,1.056,0,0,1,.336-.788,1.108,1.108,0,0,1,.8-.326H90.09q.147,0,.231-.189L90.7-15.96a1.364,1.364,0,0,1,.609-.745,1.357,1.357,0,0,1,.945-.179l.357.084a1.037,1.037,0,0,1,.693.494.959.959,0,0,1,.084.83q-.042.1-.116.283t-.094.241q-.042.189.126.189h7.434a1.073,1.073,0,0,1,.787.326,1.073,1.073,0,0,1,.326.788,1.073,1.073,0,0,1-.326.787,1.073,1.073,0,0,1-.787.326H92.379a.245.245,0,0,0-.252.168q-.294.693-.714,1.575,0,.042.021.042h.021a5.805,5.805,0,0,1,2.142-.441,3.724,3.724,0,0,1,3.717,2.352.21.21,0,0,0,.273.126q1.68-.336,3.108-.525a1.081,1.081,0,0,1,.84.231,1.06,1.06,0,0,1,.42.777,1.187,1.187,0,0,1-.252.861,1.133,1.133,0,0,1-.777.441q-1.827.273-2.814.483-.189.042-.147.21.126,1.113.147,1.89a1.094,1.094,0,0,1-.326.84,1.115,1.115,0,0,1-.829.357h-.42A1.167,1.167,0,0,1,95.7-3.5a1.192,1.192,0,0,1-.378-.83q-.021-.567-.063-1.155,0-.189-.168-.147-3.381,1.176-3.381,2.541a1.417,1.417,0,0,0,.315.955,2.685,2.685,0,0,0,1.365.62,13.271,13.271,0,0,0,2.94.252,33.046,33.046,0,0,0,4.053-.315,1.125,1.125,0,0,1,.871.242,1.082,1.082,0,0,1,.431.788,1.231,1.231,0,0,1-.262.893,1.172,1.172,0,0,1-.809.451,36.279,36.279,0,0,1-4.284.252A12.768,12.768,0,0,1,90.636.116a3.086,3.086,0,0,1-1.743-2.908q0-3.234,5.67-5.124.189-.042.1-.21a1.771,1.771,0,0,0-1.7-.882q-1.974,0-4.557,3.318a1.32,1.32,0,0,1-.819.493,1.279,1.279,0,0,1-.924-.157L86.5-5.46a1.1,1.1,0,0,1-.5-.714,1.052,1.052,0,0,1,.168-.861,37.437,37.437,0,0,0,3.087-5.313.159.159,0,0,0-.01-.126.1.1,0,0,0-.095-.063Zm31.815,1.848a1.179,1.179,0,0,1,.924-.084,1.153,1.153,0,0,1,.714.588q.231.42.693,1.3a1.127,1.127,0,0,1,.042.9,1.153,1.153,0,0,1-.609.672,1.18,1.18,0,0,1-.924.042,1.235,1.235,0,0,1-.693-.609q-.1-.189-.672-1.239a1.08,1.08,0,0,1-.084-.882,1.152,1.152,0,0,1,.588-.693ZM122.2-8.505q-.1-.21-.336-.651t-.357-.651a1.154,1.154,0,0,1-.094-.9,1.047,1.047,0,0,1,.577-.693l.063-.021a1.212,1.212,0,0,1,.924-.094,1.116,1.116,0,0,1,.714.577q.693,1.323.714,1.365a1.1,1.1,0,0,1,.074.9,1.115,1.115,0,0,1-.6.672l-.063.042a1.181,1.181,0,0,1-.914.052A1.192,1.192,0,0,1,122.2-8.505Zm-.609-5.922a1.149,1.149,0,0,1-.357.84,1.149,1.149,0,0,1-.84.357h-10a1.149,1.149,0,0,1-.84-.357,1.149,1.149,0,0,1-.357-.84v-.063a1.149,1.149,0,0,1,.357-.84,1.149,1.149,0,0,1,.84-.357h10a1.149,1.149,0,0,1,.84.357,1.149,1.149,0,0,1,.357.84ZM115.353.987a11.659,11.659,0,0,1-5.9-1.26,3.789,3.789,0,0,1-2.142-3.36q0-1.953,2.415-4.515a1.2,1.2,0,0,1,.861-.409,1.314,1.314,0,0,1,.924.283l.147.105a.964.964,0,0,1,.41.756,1.047,1.047,0,0,1-.284.819q-1.6,1.7-1.6,2.667a1.966,1.966,0,0,0,1.344,1.743,8.986,8.986,0,0,0,3.822.651,27.913,27.913,0,0,0,5.838-.693,1.143,1.143,0,0,1,.892.158,1.055,1.055,0,0,1,.493.724l.042.168a1.2,1.2,0,0,1-.158.913,1.121,1.121,0,0,1-.745.536A31.717,31.717,0,0,1,115.353.987Zm11.739-2.793a1.582,1.582,0,0,1,.1-1.932,17.788,17.788,0,0,0,2.625-5.019q.042-.168-.126-.168h-1.638a1.108,1.108,0,0,1-.809-.347,1.108,1.108,0,0,1-.346-.808,1.108,1.108,0,0,1,.346-.808,1.108,1.108,0,0,1,.809-.347h2.289q.168,0,.168-.189v-2.415q0-.168-.189-.168-.63.063-1.89.147a1.087,1.087,0,0,1-.819-.252,1.068,1.068,0,0,1-.4-.756,1.011,1.011,0,0,1,.242-.777,1.043,1.043,0,0,1,.725-.378,62.689,62.689,0,0,0,6.8-.9,1.263,1.263,0,0,1,.871.147,1.267,1.267,0,0,1,.577.672.965.965,0,0,1-.074.819.921.921,0,0,1-.661.483q-1.155.252-2.415.441a.205.205,0,0,0-.189.21v2.73a.167.167,0,0,0,.189.189h2.436a1.1,1.1,0,0,1,.819.347,1.125,1.125,0,0,1,.336.808,1.125,1.125,0,0,1-.336.808,1.1,1.1,0,0,1-.819.347h-1.659a.1.1,0,0,0-.094.063.083.083,0,0,0,.01.1q2.352,3.654,2.5,3.906a1.279,1.279,0,0,1,.189.935,1.283,1.283,0,0,1-.483.829l-.042.021a.876.876,0,0,1-.8.189.953.953,0,0,1-.651-.5l-1.512-2.9a.071.071,0,0,0-.053-.021q-.031,0-.031.042V.777a1.132,1.132,0,0,1-.347.829,1.132,1.132,0,0,1-.829.347h-.21a1.167,1.167,0,0,1-.84-.347,1.115,1.115,0,0,1-.357-.829v-5.8q-.021-.021-.063,0a16.282,16.282,0,0,1-1.827,3.591.722.722,0,0,1-.683.326.819.819,0,0,1-.661-.389Zm11.991-.861a1.132,1.132,0,0,1-.83-.346,1.132,1.132,0,0,1-.346-.829v-10.92a1.167,1.167,0,0,1,.346-.84,1.115,1.115,0,0,1,.83-.357h.189a1.115,1.115,0,0,1,.829.357,1.167,1.167,0,0,1,.346.84v10.92a1.132,1.132,0,0,1-.346.829,1.132,1.132,0,0,1-.829.346ZM144.417-16.8a1.115,1.115,0,0,1,.83.357,1.167,1.167,0,0,1,.346.84V-1.617a14.761,14.761,0,0,1-.063,1.575,5.222,5.222,0,0,1-.2.977.893.893,0,0,1-.5.588,3.493,3.493,0,0,1-.84.231,9.228,9.228,0,0,1-1.333.073q-.462,0-1.911-.063a1.251,1.251,0,0,1-.861-.378,1.339,1.339,0,0,1-.4-.861V.462a1.052,1.052,0,0,1,.315-.809,1.031,1.031,0,0,1,.819-.326q.756.042,1.449.042.588,0,.714-.137a1.616,1.616,0,0,0,.126-.85V-15.6a1.149,1.149,0,0,1,.357-.84,1.149,1.149,0,0,1,.84-.357Zm3.99,17.829a1.276,1.276,0,0,1-.483-.819,1.39,1.39,0,0,1,.168-.945,10.507,10.507,0,0,0,1.145-3.286,29.432,29.432,0,0,0,.326-4.946V-15.54a1.167,1.167,0,0,1,.346-.84,1.115,1.115,0,0,1,.83-.357H165.1a1.115,1.115,0,0,1,.829.357,1.167,1.167,0,0,1,.346.84V-1.47A17.108,17.108,0,0,1,166.2.41a1.71,1.71,0,0,1-.451,1,1.524,1.524,0,0,1-.935.472,14.869,14.869,0,0,1-1.753.074q-.882,0-1.575-.042a1.192,1.192,0,0,1-.83-.378,1.342,1.342,0,0,1-.388-.84,1,1,0,0,1,.3-.788,1,1,0,0,1,.787-.3l1.218.042a1.45,1.45,0,0,0,.829-.136,1.45,1.45,0,0,0,.137-.83v-2.73q0-.189-.168-.189h-4.221a.167.167,0,0,0-.189.189V.273a1.149,1.149,0,0,1-.357.84,1.149,1.149,0,0,1-.84.357H157.5a1.149,1.149,0,0,1-.84-.357,1.149,1.149,0,0,1-.357-.84V-4.053q0-.189-.168-.189h-3.843a.205.205,0,0,0-.21.189,13.222,13.222,0,0,1-1.68,5.166,1,1,0,0,1-.724.472,1.065,1.065,0,0,1-.851-.22ZM158.97-14.28v2.52q0,.168.189.168h4.221a.148.148,0,0,0,.168-.168v-2.52a.148.148,0,0,0-.168-.168h-4.221Q158.97-14.448,158.97-14.28Zm0,5.019v2.709a.167.167,0,0,0,.189.189h4.221q.168,0,.168-.189V-9.261q0-.189-.168-.189h-4.221A.167.167,0,0,0,158.97-9.261Zm-6.678-5.019v2.52a.148.148,0,0,0,.168.168h3.675a.148.148,0,0,0,.168-.168v-2.52a.148.148,0,0,0-.168-.168H152.46A.148.148,0,0,0,152.292-14.28Zm0,6.51q0,.84-.021,1.239a.148.148,0,0,0,.168.168h3.7q.168,0,.168-.189V-9.261q0-.189-.168-.189H152.46q-.168,0-.168.189Zm30.24-2.079a1.179,1.179,0,0,1,.924-.084,1.153,1.153,0,0,1,.714.588q.231.42.693,1.3a1.127,1.127,0,0,1,.042.9,1.153,1.153,0,0,1-.609.672,1.18,1.18,0,0,1-.924.042,1.235,1.235,0,0,1-.693-.609q-.1-.189-.672-1.239a1.08,1.08,0,0,1-.084-.882,1.152,1.152,0,0,1,.588-.693Zm5-.252q.693,1.323.714,1.365a1.1,1.1,0,0,1,.074.9,1.115,1.115,0,0,1-.6.672l-.063.042a1.181,1.181,0,0,1-.914.052,1.192,1.192,0,0,1-.7-.6q-.1-.21-.336-.651t-.357-.651a1.154,1.154,0,0,1-.094-.9,1.047,1.047,0,0,1,.577-.693l.063-.021a1.212,1.212,0,0,1,.924-.094A1.116,1.116,0,0,1,187.53-10.1Zm-16.9-2.289a1.132,1.132,0,0,1-.829-.347,1.132,1.132,0,0,1-.346-.83v-.147a1.149,1.149,0,0,1,.357-.84,1.149,1.149,0,0,1,.84-.357q7.182-.021,14.847-.357a1.178,1.178,0,0,1,.861.315,1.125,1.125,0,0,1,.4.819v.147a1.192,1.192,0,0,1-.3.872,1.283,1.283,0,0,1-.829.431,13.57,13.57,0,0,0-6.71,2.331,5.31,5.31,0,0,0-2.236,4.3,4.423,4.423,0,0,0,1.417,3.486,5.464,5.464,0,0,0,3.77,1.26,11.168,11.168,0,0,0,1.386-.084,1.223,1.223,0,0,1,.871.252,1.12,1.12,0,0,1,.452.777l.021.189a1.213,1.213,0,0,1-.231.893,1.1,1.1,0,0,1-.777.473,18.122,18.122,0,0,1-1.869.1,8.582,8.582,0,0,1-5.859-1.911,6.515,6.515,0,0,1-2.184-5.166,6.665,6.665,0,0,1,1.187-3.812,9.227,9.227,0,0,1,3.391-2.93q.021,0,.021-.042h-.021Q174.993-12.432,170.625-12.39Z" transform="translate(501 5857)" fill="#004099"/><path d="M2.331-12.894a1.167,1.167,0,0,1-.84-.347,1.115,1.115,0,0,1-.357-.83v-.063a1.149,1.149,0,0,1,.357-.84,1.149,1.149,0,0,1,.84-.357h8.946a1.149,1.149,0,0,1,.84.357,1.149,1.149,0,0,1,.357.84v.063a1.115,1.115,0,0,1-.357.83,1.167,1.167,0,0,1-.84.347H8.463q-.168,0-.168.189V-1.2a1.149,1.149,0,0,1-.357.84A1.149,1.149,0,0,1,7.1,0H6.51a1.149,1.149,0,0,1-.84-.357,1.149,1.149,0,0,1-.357-.84V-12.7q0-.189-.168-.189ZM15.624-1.386a1.078,1.078,0,0,1-.609-.651,1.127,1.127,0,0,1,.042-.9q1.218-2.541,2.31-5.166a1.225,1.225,0,0,1,.651-.672,1.248,1.248,0,0,1,.924-.063l.315.1a1.082,1.082,0,0,1,.672.578,1,1,0,0,1,.021.871q-.987,2.457-2.394,5.4a1.269,1.269,0,0,1-.683.641,1.235,1.235,0,0,1-.934-.01Zm16.191.231a1.214,1.214,0,0,1-.913-.021,1.149,1.149,0,0,1-.64-.651q-.756-1.848-2.373-5.46a1.1,1.1,0,0,1,0-.892,1.078,1.078,0,0,1,.63-.62l.273-.105a1.234,1.234,0,0,1,.934-.01,1.182,1.182,0,0,1,.683.64q1.176,2.52,2.415,5.46a1.122,1.122,0,0,1-.01.914,1.111,1.111,0,0,1-.661.619ZM30.282-13.734a1.316,1.316,0,0,0,.966.4,1.316,1.316,0,0,0,.966-.4,1.316,1.316,0,0,0,.4-.966,1.316,1.316,0,0,0-.4-.966,1.316,1.316,0,0,0-.966-.4,1.316,1.316,0,0,0-.966.4,1.316,1.316,0,0,0-.4.966A1.316,1.316,0,0,0,30.282-13.734Zm-1.26-3.192a3.034,3.034,0,0,1,2.226-.924,3.034,3.034,0,0,1,2.226.924A3.034,3.034,0,0,1,34.4-14.7a3.121,3.121,0,0,1-.451,1.648,3.024,3.024,0,0,1-1.229,1.145.247.247,0,0,0-.147.252.705.705,0,0,1-.22.514.705.705,0,0,1-.515.22h-6.09q-.168,0-.168.189v8.778A4.221,4.221,0,0,1,25.063.672a4.005,4.005,0,0,1-2.572.525q-.9,0-2.205-.126A1.071,1.071,0,0,1,19.5.63a1.234,1.234,0,0,1-.263-.882V-.357a1.116,1.116,0,0,1,.431-.8,1.176,1.176,0,0,1,.872-.273q1.05.084,1.323.084.609,0,.714-.136a1.9,1.9,0,0,0,.1-.851v-8.4a.167.167,0,0,0-.189-.189H16.4a1.115,1.115,0,0,1-.829-.357,1.167,1.167,0,0,1-.347-.84v-.126a1.167,1.167,0,0,1,.347-.84,1.115,1.115,0,0,1,.829-.357h6.09a.167.167,0,0,0,.189-.189v-1.848a1.132,1.132,0,0,1,.347-.83,1.132,1.132,0,0,1,.829-.347h.525a1.167,1.167,0,0,1,.84.347,1.115,1.115,0,0,1,.357.83v1.848q0,.189.168.189h2.436q.168,0,.126-.147A3.313,3.313,0,0,1,28.1-14.7,3.034,3.034,0,0,1,29.022-16.926Zm7.644,9.933-.042-.231a1.1,1.1,0,0,1,.2-.861,1.229,1.229,0,0,1,.766-.5,30.62,30.62,0,0,0,7.444-2.4,25.472,25.472,0,0,0,6.227-4.042,1.11,1.11,0,0,1,.84-.315,1.085,1.085,0,0,1,.8.378l.168.189a1.169,1.169,0,0,1,.3.882,1.182,1.182,0,0,1-.41.84A27.955,27.955,0,0,1,47.9-9.534a.273.273,0,0,0-.147.252.173.173,0,0,0,.011.052.173.173,0,0,1,.01.052v9.03a1.149,1.149,0,0,1-.357.84,1.149,1.149,0,0,1-.84.357h-.63a1.149,1.149,0,0,1-.84-.357,1.149,1.149,0,0,1-.357-.84V-7.854q0-.147-.147-.105a33.024,33.024,0,0,1-6.573,1.953,1.11,1.11,0,0,1-.882-.21A1.185,1.185,0,0,1,36.666-6.993Zm22.7-5.733a1.078,1.078,0,0,1-.588-.672,1.08,1.08,0,0,1,.084-.882l.21-.42a1.152,1.152,0,0,1,.7-.588,1.274,1.274,0,0,1,.935.063q2.079,1.008,4.389,2.268a1.13,1.13,0,0,1,.557.714,1.154,1.154,0,0,1-.094.9l-.231.42a1.13,1.13,0,0,1-.714.557,1.154,1.154,0,0,1-.9-.095Q61.257-11.8,59.367-12.726ZM73.983-13.4a1.166,1.166,0,0,1,.756.525,1.149,1.149,0,0,1,.168.9,15.082,15.082,0,0,1-4.84,8.442A18.27,18.27,0,0,1,60.354.294a1.159,1.159,0,0,1-.892-.242,1.251,1.251,0,0,1-.472-.808l-.042-.378a1.08,1.08,0,0,1,.21-.872,1.12,1.12,0,0,1,.777-.451,16.008,16.008,0,0,0,8.127-3.15A12.886,12.886,0,0,0,72.2-12.558a1.249,1.249,0,0,1,.546-.756,1.149,1.149,0,0,1,.9-.168ZM82.551,1.113a1.132,1.132,0,0,1-.829-.347,1.132,1.132,0,0,1-.347-.829V-15.057a1.132,1.132,0,0,1,.347-.83,1.132,1.132,0,0,1,.829-.346h.567a1.167,1.167,0,0,1,.84.346,1.115,1.115,0,0,1,.357.83v4.536q0,.189.147.21A105.221,105.221,0,0,1,94.626-7.266a1.193,1.193,0,0,1,.683.609,1.146,1.146,0,0,1,.052.924l-.126.4a1.159,1.159,0,0,1-.6.672,1.162,1.162,0,0,1-.893.063q-4.977-1.743-9.282-2.835a.088.088,0,0,0-.105.032.181.181,0,0,0-.042.115V-.063a1.115,1.115,0,0,1-.357.829,1.167,1.167,0,0,1-.84.347ZM111.4-13.944a1.08,1.08,0,0,1-.084-.882,1.152,1.152,0,0,1,.588-.693h.021a1.179,1.179,0,0,1,.924-.084,1.153,1.153,0,0,1,.714.588q.231.42.693,1.3a1.127,1.127,0,0,1,.042.9,1.153,1.153,0,0,1-.609.672,1.18,1.18,0,0,1-.924.042,1.235,1.235,0,0,1-.693-.609Q111.972-12.894,111.4-13.944Zm3.885-2.31a1.212,1.212,0,0,1,.924-.095,1.116,1.116,0,0,1,.714.578q.693,1.323.714,1.365a1.1,1.1,0,0,1,.074.9,1.115,1.115,0,0,1-.6.672l-.063.042a1.181,1.181,0,0,1-.913.052,1.192,1.192,0,0,1-.7-.6q-.1-.21-.336-.651t-.357-.651a1.154,1.154,0,0,1-.094-.9,1.047,1.047,0,0,1,.577-.693ZM100.4-10.647a1.132,1.132,0,0,1-.829-.347,1.132,1.132,0,0,1-.347-.83,1.167,1.167,0,0,1,.347-.84,1.115,1.115,0,0,1,.829-.357h2.331a.205.205,0,0,0,.21-.189q.315-1.386.567-2.877a1.331,1.331,0,0,1,.493-.788,1.231,1.231,0,0,1,.893-.262l.147.021a1.049,1.049,0,0,1,.777.431,1.08,1.08,0,0,1,.21.871q-.273,1.6-.462,2.625-.042.168.147.168h2.877a6.245,6.245,0,0,1,1.176.126,8.293,8.293,0,0,1,.9.21,1.381,1.381,0,0,1,.567.483,1.778,1.778,0,0,1,.378.714q.063.315.168,1.123a11.569,11.569,0,0,1,.1,1.48v2.016a13.685,13.685,0,0,1-.977,5.943A2.958,2.958,0,0,1,108.255.987a12.165,12.165,0,0,1-3.318-.609,1.116,1.116,0,0,1-.7-.588,1.256,1.256,0,0,1-.074-.945l.042-.126a1.12,1.12,0,0,1,.577-.683,1.18,1.18,0,0,1,.913-.074,7.959,7.959,0,0,0,2,.42.562.562,0,0,0,.4-.189,2.068,2.068,0,0,0,.378-.62,5.6,5.6,0,0,0,.326-1.071,13.547,13.547,0,0,0,.22-1.617q.084-.977.084-2.174V-8.726a5.341,5.341,0,0,0-.084-.913,2.862,2.862,0,0,0-.147-.609.737.737,0,0,0-.336-.263,1.122,1.122,0,0,0-.493-.136h-2.845a.2.2,0,0,0-.21.168,79.23,79.23,0,0,1-3.3,10.521,1.184,1.184,0,0,1-.64.682,1.182,1.182,0,0,1-.914.031L99.981.714a1.007,1.007,0,0,1-.651-.6A1.214,1.214,0,0,1,99.309-.8a85.046,85.046,0,0,0,3-9.681q.042-.168-.126-.168Zm15.351.4q1.218,3.129,1.974,5.565a1.056,1.056,0,0,1-.094.882,1.125,1.125,0,0,1-.7.546l-.252.063a1.188,1.188,0,0,1-.914-.115,1.284,1.284,0,0,1-.6-.725q-.882-2.751-1.89-5.313a1.214,1.214,0,0,1,.021-.913,1.007,1.007,0,0,1,.651-.6l.252-.084a1.2,1.2,0,0,1,.924.032A1.193,1.193,0,0,1,115.752-10.248Zm14.175,2.457a1.1,1.1,0,0,1-.829-.263,1.108,1.108,0,0,1-.41-.787,1.176,1.176,0,0,1,.273-.872,1.117,1.117,0,0,1,.8-.431q3.234-.336,6.342-.357a1.1,1.1,0,0,1,.819.347,1.15,1.15,0,0,1,.336.829,1.132,1.132,0,0,1-.346.83,1.132,1.132,0,0,1-.829.346Q132.741-8.085,129.927-7.791Zm6.321,6.027a1.147,1.147,0,0,1,.872.231,1.12,1.12,0,0,1,.451.777,1.214,1.214,0,0,1-.231.9,1.108,1.108,0,0,1-.777.462,24.534,24.534,0,0,1-3.255.231,8.807,8.807,0,0,1-4.63-1.06,3.128,3.128,0,0,1-1.733-2.72,3.638,3.638,0,0,1,1.239-2.5,1.3,1.3,0,0,1,.871-.388,1.5,1.5,0,0,1,.935.241.811.811,0,0,1,.389.651.934.934,0,0,1-.263.735,1.47,1.47,0,0,0-.525.987q0,.735,1,1.207a6.452,6.452,0,0,0,2.719.473A21.934,21.934,0,0,0,136.248-1.764ZM121.233.882a1.05,1.05,0,0,1-.7-.525,1,1,0,0,1-.074-.882,111.323,111.323,0,0,0,3.066-11.466q.042-.189-.126-.189H121.9a1.149,1.149,0,0,1-.84-.357,1.149,1.149,0,0,1-.357-.84,1.115,1.115,0,0,1,.357-.829,1.167,1.167,0,0,1,.84-.347h1.953a.2.2,0,0,0,.21-.168q.168-.8.231-1.2a1.34,1.34,0,0,1,.493-.809,1.231,1.231,0,0,1,.893-.262l.273.021a1.049,1.049,0,0,1,.777.431,1.08,1.08,0,0,1,.21.872q-.021.168-.084.462t-.084.462a.127.127,0,0,0,.032.126.15.15,0,0,0,.116.063h5.964a1.167,1.167,0,0,1,.84.347,1.115,1.115,0,0,1,.357.829,1.149,1.149,0,0,1-.357.84,1.149,1.149,0,0,1-.84.357h-6.4a.211.211,0,0,0-.231.168A108.4,108.4,0,0,1,123.1.084a1.185,1.185,0,0,1-.6.724,1.327,1.327,0,0,1-.935.137Zm26.565-2a2.9,2.9,0,0,0,1.911-.472,2.4,2.4,0,0,0,.546-1.775.231.231,0,0,0-.168-.231,5.658,5.658,0,0,0-2.016-.441A3.491,3.491,0,0,0,146.3-3.7a1.131,1.131,0,0,0-.536,1.029,1.358,1.358,0,0,0,.536,1.145A2.424,2.424,0,0,0,147.8-1.113ZM143.115-12.39a1.149,1.149,0,0,1-.84-.357,1.149,1.149,0,0,1-.357-.84,1.115,1.115,0,0,1,.357-.83,1.167,1.167,0,0,1,.84-.347h6.951a.167.167,0,0,0,.189-.189V-15.6a1.167,1.167,0,0,1,.346-.84,1.115,1.115,0,0,1,.829-.357h.294a1.115,1.115,0,0,1,.829.357,1.167,1.167,0,0,1,.346.84v.651a.167.167,0,0,0,.189.189H157.1a1.167,1.167,0,0,1,.84.347,1.115,1.115,0,0,1,.357.83,1.149,1.149,0,0,1-.357.84,1.149,1.149,0,0,1-.84.357H153.09q-.189,0-.189.168v1.47a.167.167,0,0,0,.189.189h3.276a1.114,1.114,0,0,1,.819.336,1.114,1.114,0,0,1,.336.819,1.15,1.15,0,0,1-.336.83,1.1,1.1,0,0,1-.819.347H153.09a.167.167,0,0,0-.189.189v3.024a.322.322,0,0,0,.147.273,25.782,25.782,0,0,1,3.927,2.856,1.078,1.078,0,0,1,.4.819,1.138,1.138,0,0,1-.315.861L157-.147a1.205,1.205,0,0,1-.829.389,1.09,1.09,0,0,1-.85-.3q-1.323-1.155-2.373-1.911-.147-.1-.189.063A3.51,3.51,0,0,1,151.232.514a6.5,6.5,0,0,1-3.434.746A5.367,5.367,0,0,1,144.3.22a3.525,3.525,0,0,1-1.27-2.888A3.384,3.384,0,0,1,144.2-5.345a5.37,5.37,0,0,1,3.6-1.018,8.218,8.218,0,0,1,2.289.315q.168.042.168-.126V-8.043a.167.167,0,0,0-.189-.189H143.85a1.114,1.114,0,0,1-.819-.336,1.114,1.114,0,0,1-.336-.819,1.15,1.15,0,0,1,.336-.83,1.1,1.1,0,0,1,.819-.347h6.216a.167.167,0,0,0,.189-.189V-12.2a.167.167,0,0,0-.189-.189ZM171.549-1.218a3.227,3.227,0,0,0,.294-1.155,1.137,1.137,0,0,0-.5-1,3.381,3.381,0,0,0-1.806-.346,3.06,3.06,0,0,0-1.607.346,1,1,0,0,0-.557.851q0,1.47,3.57,1.47h.378A.256.256,0,0,0,171.549-1.218Zm-6.972-4.788a1.071,1.071,0,0,1-.829.042,1.1,1.1,0,0,1-.619-.546,1.118,1.118,0,0,1-.084-.85,1.1,1.1,0,0,1,.525-.682l8.862-5.355.021-.021-.021-.021h-7.2a1.125,1.125,0,0,1-.809-.336,1.1,1.1,0,0,1-.346-.819,1.1,1.1,0,0,1,.346-.819,1.125,1.125,0,0,1,.809-.336h11.025a1.2,1.2,0,0,1,.85.347,1.1,1.1,0,0,1,.368.829,1.84,1.84,0,0,1-1.029,1.764l-5.859,3.255v.021h.042a13.231,13.231,0,0,1,2.541-.273,7.141,7.141,0,0,1,4.546,1.239,4.263,4.263,0,0,1,1.544,3.528,5.429,5.429,0,0,1-2.163,4.609A10.075,10.075,0,0,1,170.94,1.2a9.109,9.109,0,0,1-4.683-.956A3.056,3.056,0,0,1,164.7-2.52a2.816,2.816,0,0,1,1.323-2.341,6.14,6.14,0,0,1,3.654-.956,5.88,5.88,0,0,1,3.465.8,2.749,2.749,0,0,1,1.071,2.352,5.366,5.366,0,0,1-.1.945.072.072,0,0,0,.031.094.094.094,0,0,0,.094.011,3.2,3.2,0,0,0,2.079-3.171A2.52,2.52,0,0,0,175.3-6.972a5.623,5.623,0,0,0-3.244-.735A17.822,17.822,0,0,0,164.577-6.006ZM191.961-4.62a1.191,1.191,0,0,1-.861-.346,1.214,1.214,0,0,1-.378-.851l-.315-8.316a1.11,1.11,0,0,1,.315-.84,1.082,1.082,0,0,1,.819-.357h1.134a1.082,1.082,0,0,1,.819.357,1.11,1.11,0,0,1,.315.84l-.315,8.316a1.214,1.214,0,0,1-.378.851,1.191,1.191,0,0,1-.861.346Zm.5,1.68a1.115,1.115,0,0,1,.829.357,1.167,1.167,0,0,1,.347.84V-1.2a1.167,1.167,0,0,1-.347.84,1.115,1.115,0,0,1-.829.357h-.714a1.115,1.115,0,0,1-.829-.357,1.167,1.167,0,0,1-.347-.84v-.546a1.167,1.167,0,0,1,.347-.84,1.115,1.115,0,0,1,.829-.357Z" transform="translate(501 5886)" fill="#004099"/><path d="M0,0H58V72H0Z" transform="translate(431 5826)" fill="#fff"/><g transform="translate(118.764 5615.79)"><g transform="translate(315.424 212.969)"><path d="M0,0H17.046V34.1H0Z" transform="translate(0 17.046)" fill="#003288"/><path d="M315.424,212.969v17.046H332.47v34.1h17.055v-34.1h17.047V212.969Z" transform="translate(-315.424 -212.969)" fill="#ffed00"/><path d="M0,0H17.047V34.1H0Z" transform="translate(34.102 17.046)" fill="#003288"/></g><g transform="translate(315.424 269.749)"><path d="M675.175,778.026v5.395c-.628-.808-3.707-5.395-3.707-5.395h-1.49v8.037h1.49v-5.357c.625.813,3.7,5.357,3.7,5.357h1.5v-8.037Z" transform="translate(-634.35 -778.026)" fill="#1a1311"/><path d="M461.451,780.567c0-1.227-.8-2.541-3.059-2.541h-2.583v8.037h1.5v-3.015H458.4C460.652,783.04,461.451,781.718,461.451,780.567Zm-4.142-1.215h1.083c1.308,0,1.45.819,1.45,1.16,0,.752-.559,1.205-1.508,1.205h-1.026Z" transform="translate(-441.702 -778.026)" fill="#1a1311"/><path d="M0,0H1.562V8.044H0Z" transform="translate(30.757 0)" fill="#1a1311"/><path d="M0,0H4.269V1.42H0Z" transform="translate(7.242 4.2)" fill="#1a1311"/><path d="M760.512,778.055v1.422h2.42v6.62H764.5v-6.62h2.423v-1.422Z" transform="translate(-715.787 -778.052)" fill="#1a1311"/><path d="M315.424,778.055v1.422h2.42v6.62h1.565v-6.62h2.423v-1.422Z" transform="translate(-315.424 -778.052)" fill="#1a1311"/><path d="M531.4,786.3c-2.393,0-3.561-1.7-3.561-4.086s1.195-4.162,3.6-4.162,3.558,1.752,3.558,4.142C534.994,784.554,533.777,786.3,531.4,786.3Zm0-6.849c-1.476,0-1.991,1.4-1.991,2.707,0,1.357.45,2.751,1.991,2.751s2.027-1.382,2.027-2.751C533.423,780.821,532.911,779.454,531.4,779.454Z" transform="translate(-506.491 -778.052)" fill="#1a1311"/></g></g></g><g transform="translate(-686 -5654)"><g transform="translate(725.698 5938.761)" clip-path="url(#c)"><g transform="translate(-15 -247.999)"><path d="M645.258,358.01a5.619,5.619,0,0,0-3.635,1.243,6.648,6.648,0,0,1-8.1,0,5.623,5.623,0,0,0-3.636-1.243s-.008-.874,0-.874a6.5,6.5,0,0,1,4.049,1.375,5.928,5.928,0,0,0,7.272,0,6.315,6.315,0,0,1,4.049-1.375Z" transform="translate(-614.884 -109.135)" fill="#fff20e"/></g><g transform="translate(0 -247.999)"><path d="M645.258,358.01a5.619,5.619,0,0,0-3.635,1.243,6.648,6.648,0,0,1-8.1,0,5.623,5.623,0,0,0-3.636-1.243s-.008-.874,0-.874a6.5,6.5,0,0,1,4.049,1.375,5.928,5.928,0,0,0,7.272,0,6.315,6.315,0,0,1,4.049-1.375Z" transform="translate(-614.884 -109.135)" fill="#fff20e"/></g><g transform="translate(15 -247.999)"><path d="M645.258,358.01a5.619,5.619,0,0,0-3.635,1.243,6.648,6.648,0,0,1-8.1,0,5.623,5.623,0,0,0-3.636-1.243s-.008-.874,0-.874a6.5,6.5,0,0,1,4.049,1.375,5.928,5.928,0,0,0,7.272,0,6.315,6.315,0,0,1,4.049-1.375Z" transform="translate(-614.884 -109.135)" fill="#fff20e"/></g><g transform="translate(30 -247.999)"><path d="M645.258,358.01a5.619,5.619,0,0,0-3.635,1.243,6.648,6.648,0,0,1-8.1,0,5.623,5.623,0,0,0-3.636-1.243s-.008-.874,0-.874a6.5,6.5,0,0,1,4.049,1.375,5.928,5.928,0,0,0,7.272,0,6.315,6.315,0,0,1,4.049-1.375Z" transform="translate(-614.884 -109.135)" fill="#fff20e"/></g><g transform="translate(45 -247.999)"><path d="M645.258,358.01a5.619,5.619,0,0,0-3.635,1.243,6.648,6.648,0,0,1-8.1,0,5.623,5.623,0,0,0-3.636-1.243s-.008-.874,0-.874a6.5,6.5,0,0,1,4.049,1.375,5.928,5.928,0,0,0,7.272,0,6.315,6.315,0,0,1,4.049-1.375Z" transform="translate(-614.884 -109.135)" fill="#fff20e"/></g><g transform="translate(60 -247.999)"><path d="M645.258,358.01a5.619,5.619,0,0,0-3.635,1.243,6.648,6.648,0,0,1-8.1,0,5.623,5.623,0,0,0-3.636-1.243s-.008-.874,0-.874a6.5,6.5,0,0,1,4.049,1.375,5.928,5.928,0,0,0,7.272,0,6.315,6.315,0,0,1,4.049-1.375Z" transform="translate(-614.884 -109.135)" fill="#fff20e"/></g><g transform="translate(75 -247.999)"><path d="M645.258,358.01a5.619,5.619,0,0,0-3.635,1.243,6.648,6.648,0,0,1-8.1,0,5.623,5.623,0,0,0-3.636-1.243s-.008-.874,0-.874a6.5,6.5,0,0,1,4.049,1.375,5.928,5.928,0,0,0,7.272,0,6.315,6.315,0,0,1,4.049-1.375Z" transform="translate(-614.884 -109.135)" fill="#fff20e"/></g><g transform="translate(90 -247.999)"><path d="M645.258,358.01a5.619,5.619,0,0,0-3.635,1.243,6.648,6.648,0,0,1-8.1,0,5.623,5.623,0,0,0-3.636-1.243s-.008-.874,0-.874a6.5,6.5,0,0,1,4.049,1.375,5.928,5.928,0,0,0,7.272,0,6.315,6.315,0,0,1,4.049-1.375Z" transform="translate(-614.884 -109.135)" fill="#fff20e"/></g><g transform="translate(105 -247.999)"><path d="M645.258,358.01a5.619,5.619,0,0,0-3.635,1.243,6.648,6.648,0,0,1-8.1,0,5.623,5.623,0,0,0-3.636-1.243s-.008-.874,0-.874a6.5,6.5,0,0,1,4.049,1.375,5.928,5.928,0,0,0,7.272,0,6.315,6.315,0,0,1,4.049-1.375Z" transform="translate(-614.884 -109.135)" fill="#fff20e"/></g><g transform="translate(120 -247.999)"><path d="M645.258,358.01a5.619,5.619,0,0,0-3.635,1.243,6.648,6.648,0,0,1-8.1,0,5.623,5.623,0,0,0-3.636-1.243s-.008-.874,0-.874a6.5,6.5,0,0,1,4.049,1.375,5.928,5.928,0,0,0,7.272,0,6.315,6.315,0,0,1,4.049-1.375Z" transform="translate(-614.884 -109.135)" fill="#fff20e"/></g><g transform="translate(135 -247.999)"><path d="M645.258,358.01a5.619,5.619,0,0,0-3.635,1.243,6.648,6.648,0,0,1-8.1,0,5.623,5.623,0,0,0-3.636-1.243s-.008-.874,0-.874a6.5,6.5,0,0,1,4.049,1.375,5.928,5.928,0,0,0,7.272,0,6.315,6.315,0,0,1,4.049-1.375Z" transform="translate(-614.884 -109.135)" fill="#fff20e"/></g><g transform="translate(150 -247.999)"><path d="M645.258,358.01a5.619,5.619,0,0,0-3.635,1.243,6.648,6.648,0,0,1-8.1,0,5.623,5.623,0,0,0-3.636-1.243s-.008-.874,0-.874a6.5,6.5,0,0,1,4.049,1.375,5.928,5.928,0,0,0,7.272,0,6.315,6.315,0,0,1,4.049-1.375Z" transform="translate(-614.884 -109.135)" fill="#fff20e"/></g><g transform="translate(165 -247.999)"><path d="M645.258,358.01a5.619,5.619,0,0,0-3.635,1.243,6.648,6.648,0,0,1-8.1,0,5.623,5.623,0,0,0-3.636-1.243s-.008-.874,0-.874a6.5,6.5,0,0,1,4.049,1.375,5.928,5.928,0,0,0,7.272,0,6.315,6.315,0,0,1,4.049-1.375Z" transform="translate(-614.884 -109.135)" fill="#fff20e"/></g><g transform="translate(180 -247.999)"><path d="M645.258,358.01a5.619,5.619,0,0,0-3.635,1.243,6.648,6.648,0,0,1-8.1,0,5.623,5.623,0,0,0-3.636-1.243s-.008-.874,0-.874a6.5,6.5,0,0,1,4.049,1.375,5.928,5.928,0,0,0,7.272,0,6.315,6.315,0,0,1,4.049-1.375Z" transform="translate(-614.884 -109.135)" fill="#fff20e"/></g><g transform="translate(195 -247.999)"><path d="M645.258,358.01a5.619,5.619,0,0,0-3.635,1.243,6.648,6.648,0,0,1-8.1,0,5.623,5.623,0,0,0-3.636-1.243s-.008-.874,0-.874a6.5,6.5,0,0,1,4.049,1.375,5.928,5.928,0,0,0,7.272,0,6.315,6.315,0,0,1,4.049-1.375Z" transform="translate(-614.884 -109.135)" fill="#fff20e"/></g><g transform="translate(210 -247.999)"><path d="M645.258,358.01a5.619,5.619,0,0,0-3.635,1.243,6.648,6.648,0,0,1-8.1,0,5.623,5.623,0,0,0-3.636-1.243s-.008-.874,0-.874a6.5,6.5,0,0,1,4.049,1.375,5.928,5.928,0,0,0,7.272,0,6.315,6.315,0,0,1,4.049-1.375Z" transform="translate(-614.884 -109.135)" fill="#fff20e"/></g><g transform="translate(225 -247.999)"><path d="M645.258,358.01a5.619,5.619,0,0,0-3.635,1.243,6.648,6.648,0,0,1-8.1,0,5.623,5.623,0,0,0-3.636-1.243s-.008-.874,0-.874a6.5,6.5,0,0,1,4.049,1.375,5.928,5.928,0,0,0,7.272,0,6.315,6.315,0,0,1,4.049-1.375Z" transform="translate(-614.884 -109.135)" fill="#fff20e"/></g><g transform="translate(240 -247.999)"><path d="M645.258,358.01a5.619,5.619,0,0,0-3.635,1.243,6.648,6.648,0,0,1-8.1,0,5.623,5.623,0,0,0-3.636-1.243s-.008-.874,0-.874a6.5,6.5,0,0,1,4.049,1.375,5.928,5.928,0,0,0,7.272,0,6.315,6.315,0,0,1,4.049-1.375Z" transform="translate(-614.884 -109.135)" fill="#fff20e"/></g></g><path d="M8.19-25.35a26.08,26.08,0,0,1-2.5.975q-1.638.546-2.067.741v-4.485a25.884,25.884,0,0,0,3.217-1.56A10.851,10.851,0,0,0,9.516-31.59h4.719V0H8.19Z" transform="translate(834 5931)" fill="#fff20e"/><path d="M6.51-20.15a20.731,20.731,0,0,1-1.984.775q-1.3.434-1.643.589v-3.565a20.575,20.575,0,0,0,2.558-1.24A8.625,8.625,0,0,0,7.564-25.11h3.751V0H6.51ZM24.18.434a6.292,6.292,0,0,1-5.007-1.969,7.748,7.748,0,0,1-1.72-5.286V-18.073a8.087,8.087,0,0,1,1.674-5.41,6.265,6.265,0,0,1,5.053-1.969A6.226,6.226,0,0,1,29.2-23.483a8.087,8.087,0,0,1,1.674,5.41V-6.82A7.716,7.716,0,0,1,29.14-1.55,6.238,6.238,0,0,1,24.18.434Zm0-4.216q1.829,0,1.829-3.131V-17.98a6.547,6.547,0,0,0-.357-2.325,1.42,1.42,0,0,0-1.472-.93,1.441,1.441,0,0,0-1.519.915,6.791,6.791,0,0,0-.341,2.34V-6.913Q22.32-3.782,24.18-3.782ZM40.486.434a6.292,6.292,0,0,1-5.007-1.969A7.748,7.748,0,0,1,33.759-6.82V-18.073a8.087,8.087,0,0,1,1.674-5.41,6.265,6.265,0,0,1,5.053-1.969,6.226,6.226,0,0,1,5.022,1.969,8.087,8.087,0,0,1,1.674,5.41V-6.82a7.716,7.716,0,0,1-1.736,5.27A6.238,6.238,0,0,1,40.486.434Zm0-4.216q1.829,0,1.829-3.131V-17.98a6.547,6.547,0,0,0-.356-2.325,1.42,1.42,0,0,0-1.472-.93,1.441,1.441,0,0,0-1.519.915,6.791,6.791,0,0,0-.341,2.34V-6.913Q38.626-3.782,40.486-3.782Z" transform="translate(725 5930)" fill="#fff20e"/><path d="M1.092-12.138h3.15v.9a3.786,3.786,0,0,1,2.583-1.113A2.227,2.227,0,0,1,8.82-11.224a5.245,5.245,0,0,1,.63,2.677V-3.8A5.4,5.4,0,0,1,8.757-.892,2.256,2.256,0,0,1,6.72.21,3.817,3.817,0,0,1,4.242-.924V3.99H1.092ZM5.313-1.911q.966,0,.966-1.764V-8.757a2.592,2.592,0,0,0-.22-1.155.736.736,0,0,0-.7-.441,1.9,1.9,0,0,0-1.113.462v7.623A2.028,2.028,0,0,0,5.313-1.911ZM14.805.147A2.62,2.62,0,0,1,12.443-.977a5.926,5.926,0,0,1-.62-2.971v-6.111h-1.2v-2.079h1.2v-3.654h3.213v3.654H16.8v2.079H15.036v6.573a1,1,0,0,0,.3.819,1.37,1.37,0,0,0,.892.252A3.981,3.981,0,0,0,17.01-2.5V-.021l-.735.115A7.406,7.406,0,0,1,14.805.147Z" transform="translate(853 5931)" fill="#fff20e"/><path d="M7.966-5.894V-9.1h3.066v3.206ZM3.08-9.1H5.936v3.206H3.08Zm10.01-2.016H1.036V1.316H3.08V-3.878h7.952V-.994c0,.252-.1.336-.364.336S9.478-.644,8.75-.7a7.2,7.2,0,0,1,.728,2.03A6.174,6.174,0,0,0,12.236.952c.644-.336.854-.882.854-1.918Z" transform="translate(775 5929)" fill="#fff20e"/><path d="M1.856,1.64l.888-.368a7.827,7.827,0,0,1-.952-3.816A7.848,7.848,0,0,1,2.744-6.36l-.888-.368A7.72,7.72,0,0,0,.648-2.544,7.7,7.7,0,0,0,1.856,1.64ZM6.672-2.4c-.144-.168-.776-.84-.992-1.016v-.1h.768v-1.08H5.68v-1A9.545,9.545,0,0,0,6.6-5.88l-.768-.9a11.081,11.081,0,0,1-2.464.664,3.7,3.7,0,0,1,.32.888c.28-.032.568-.08.864-.128v.76H3.488v1.08H4.4A7.3,7.3,0,0,1,3.32-1.568a6.234,6.234,0,0,1,.528,1.12,6.406,6.406,0,0,0,.7-1.264V.76H5.68v-2.9c.136.24.256.48.336.656Zm2.84-1.016H7.832V-4.24h1.68ZM9.9-.384c-.064,0-.072-.024-.072-.288V-2.408h.84v-2.84h-.656c.224-.328.488-.768.752-1.216l-1.2-.384A7.314,7.314,0,0,1,8.944-5.48l.632.232H7.864l.488-.216a5.573,5.573,0,0,0-.736-1.36l-.96.416a6.356,6.356,0,0,1,.592,1.16h-.52v2.84h.544A2.178,2.178,0,0,1,5.856-.152a3.053,3.053,0,0,1,.68.928C8.016.1,8.312-1.016,8.408-2.408h.3V-.664c0,.976.168,1.32.976,1.32h.448c.624,0,.9-.336.992-1.536a2.982,2.982,0,0,1-.984-.44c-.016.816-.048.936-.136.936ZM17.232-2.9a4.891,4.891,0,0,1-.472,1.168A4.5,4.5,0,0,1,16.112-2.9ZM17.8-3.968l-.192.032H16.12c.024-.224.032-.448.048-.68H18.9V-5.688H16.2c0-.376.008-.76.008-1.152H15.08c0,.392,0,.776-.008,1.152h-.856v1.072h.84C14.984-2.768,14.7-1.232,13.48-.184c.008-.08.008-.176.008-.28V-2.2c.288-.08.584-.16.864-.248l-.144-1.064-.72.176v-1h.64V-5.408h-.64v-1.44H12.344v1.44H11.5v1.072h.848v1.272c-.376.08-.728.16-1.016.216l.248,1.192.768-.216V-.464c0,.112-.04.144-.152.152s-.432,0-.712-.016A4.124,4.124,0,0,1,11.792.736,2.657,2.657,0,0,0,13.1.528a.716.716,0,0,0,.36-.568,3.284,3.284,0,0,1,.728.768,4.859,4.859,0,0,0,1.488-2.24,5.279,5.279,0,0,0,.416.648,3.383,3.383,0,0,1-1.064.688,3.946,3.946,0,0,1,.648.928,4.791,4.791,0,0,0,1.184-.816A4.812,4.812,0,0,0,18.368.76a4.547,4.547,0,0,1,.736-1,4.613,4.613,0,0,1-1.536-.712A7.031,7.031,0,0,0,18.5-3.776ZM20.544,1.64a7.7,7.7,0,0,0,1.208-4.184,7.72,7.72,0,0,0-1.208-4.184l-.888.368a7.848,7.848,0,0,1,.952,3.816,7.827,7.827,0,0,1-.952,3.816Z" transform="translate(775 5913)" fill="#fff20e"/><path d="M6.216-9.954,6.23-7.8a42.1,42.1,0,0,0,6.09,0v-2.17A31.68,31.68,0,0,1,6.216-9.954Zm-.49,5.908a8.378,8.378,0,0,0-.252,1.9c0,1.47,1.2,2.38,3.626,2.38a19.909,19.909,0,0,0,3.654-.266L12.712-2.3a16.609,16.609,0,0,1-3.5.364c-1.134,0-1.708-.224-1.708-.84a4.687,4.687,0,0,1,.14-1.106ZM2.03-10.99c-.014.518-.112,1.148-.168,1.568a39.411,39.411,0,0,0-.546,5.46A17.664,17.664,0,0,0,1.876.6L3.808.476C3.794.252,3.794,0,3.794-.154a4.446,4.446,0,0,1,.084-.658,35.826,35.826,0,0,1,1.008-3.57l-1.022-.8c-.182.392-.35.672-.532,1.064a2.588,2.588,0,0,1-.014-.322A36.071,36.071,0,0,1,3.976-9.38a13.662,13.662,0,0,1,.392-1.414ZM14.672-7.868l.938,2.352C17.262-6.258,20.384-7.56,22.3-7.56a2.081,2.081,0,0,1,2.352,2.128c0,2.184-2.786,3.262-6.608,3.332l.98,2.24c5.236-.252,8.05-2.492,8.05-5.53,0-2.7-2.058-4.2-4.676-4.2A23.271,23.271,0,0,0,16.478-8.3C15.988-8.162,15.176-7.952,14.672-7.868ZM30.52-4.032a7.168,7.168,0,0,0-.35,1.96c0,2.044,1.666,2.94,4.34,2.94a23.831,23.831,0,0,0,3.682-.28l.07-2.142a22.122,22.122,0,0,1-3.808.308c-1.694,0-2.184-.546-2.184-1.288a4.28,4.28,0,0,1,.322-1.316Zm9.338-4.144a16.063,16.063,0,0,1-2.45.672L37.24-7.9c-.084-.2-.182-.406-.266-.616a19.477,19.477,0,0,0,2.24-.546l-.35-1.862a16.668,16.668,0,0,1-2.59.63,10,10,0,0,1-.378-1.3l-2.394.448a8.948,8.948,0,0,1,.63,1.092,27.426,27.426,0,0,1-3.99-.182l.112,1.9a28.2,28.2,0,0,0,4.7.07l.364.84.084.21a28.907,28.907,0,0,1-5.362-.056l.084,1.918a37.221,37.221,0,0,0,6.034-.07c.14.336.294.714.476,1.12-.35-.028-.84-.07-1.316-.112l-.182,1.6c.952.112,2.394.336,3.206.5l.98-1.26c-.406-.77-.77-1.526-1.092-2.2a15.481,15.481,0,0,0,2.016-.518Z" transform="translate(791 5930)" fill="#fff20e"/><path d="M20.52-16.536a1.28,1.28,0,0,1-1.272-1.272A1.28,1.28,0,0,1,20.52-19.08a1.28,1.28,0,0,1,1.272,1.272A1.28,1.28,0,0,1,20.52-16.536Zm-15.264-.84c-.792,0-2.376-.12-3.12-.216v4.1c.624-.048,1.944-.12,3.12-.12h10.56a13.482,13.482,0,0,1-2.64,6.192A15.706,15.706,0,0,1,3.744-1.872l3.168,3.48A19.681,19.681,0,0,0,16.68-5.136c2.064-2.784,3.048-6.432,3.624-8.688.072-.288.168-.648.288-1.008a3.009,3.009,0,0,0,2.9-2.976,2.991,2.991,0,0,0-2.976-2.976,2.991,2.991,0,0,0-2.976,2.976,1.368,1.368,0,0,0,.024.312,12.509,12.509,0,0,1-1.728.12ZM31.08,1.344A6.24,6.24,0,0,1,32.736.576c5.472-1.92,10.488-4.728,13.872-8.688l-2.064-3.312a28.289,28.289,0,0,1-11.88,7.8V-15.456a18.847,18.847,0,0,1,.264-3.024h-4.56a15.841,15.841,0,0,1,.312,3.024V-2.832a3.62,3.62,0,0,1-.36,1.776ZM71.568-17.808a34.253,34.253,0,0,0-1.9-3.264l-2.256.912a26.77,26.77,0,0,1,1.9,3.312Zm-2.976,1.176c-.432-.84-1.272-2.4-1.872-3.288l-2.256.912a32.515,32.515,0,0,1,1.848,3.336ZM57.96-15.624A24.186,24.186,0,0,1,58.2-18.7H53.88a24.68,24.68,0,0,1,.216,3.072V-12.6c-2.28.408-4.32.744-5.472.888l.7,3.792c1.032-.24,2.784-.6,4.776-1.008v6.144c0,3.12.768,4.512,6.792,4.512A61.821,61.821,0,0,0,68.28,1.2l.12-3.936a41.275,41.275,0,0,1-7.632.84c-2.5,0-2.808-.5-2.808-1.92v-5.9c2.9-.576,5.544-1.1,6.408-1.272A19.7,19.7,0,0,1,60.792-6.6l3.192,1.872a33.147,33.147,0,0,0,4.992-7.008c.24-.48.648-1.1.888-1.488l-2.808-2.184a8.371,8.371,0,0,1-1.944.648c-1.1.264-4.032.864-7.152,1.44Zm20.016-3-2.76,2.952a50.022,50.022,0,0,1,6.024,5.256l2.976-3.048A48.424,48.424,0,0,0,77.976-18.624ZM74.424-2.688,76.9,1.152a25.611,25.611,0,0,0,8.592-3.168,25.953,25.953,0,0,0,9.336-9.1l-2.256-4.1a23.191,23.191,0,0,1-9.168,9.6A24.7,24.7,0,0,1,74.424-2.688Zm42.72-6.5a79.348,79.348,0,0,0-9.912-3.624V-16.1a28.533,28.533,0,0,1,.24-3.12h-4.536a16.766,16.766,0,0,1,.288,3.12V-2.4a26.942,26.942,0,0,1-.288,3.624h4.56c-.12-1.08-.264-2.976-.264-3.624V-8.568a74.849,74.849,0,0,1,8.256,3.432Z" transform="translate(873 5929)" fill="#fff20e"/></g><path d="M12.5-12.96l-1.04.432a16.3,16.3,0,0,1,1.28,2.224l1.056-.464A23.186,23.186,0,0,0,12.5-12.96Zm1.824-.672-1.04.432a15.24,15.24,0,0,1,1.328,2.208l1.04-.464A24.828,24.828,0,0,0,14.32-13.632ZM3.36-9.552c1.28.1,2.64.176,4.256.176,1.472,0,3.312-.112,4.4-.192v-1.664c-1.168.112-2.864.224-4.416.224a35.862,35.862,0,0,1-4.24-.208Zm-.688,4.72a9.653,9.653,0,0,0-.32,2.24C2.352-.512,4.192.624,7.6.624a23.313,23.313,0,0,0,5.44-.56L13.024-1.68a20.834,20.834,0,0,1-5.472.624c-2.432,0-3.536-.8-3.536-1.9a6.037,6.037,0,0,1,.3-1.712ZM29.1-8.336A16.215,16.215,0,0,1,27.28-4.352,31.187,31.187,0,0,1,26.5-9.408H31.52v-1.456H29.888l.768-.816a16.9,16.9,0,0,0-2.768-1.776l-.9.912a17.138,17.138,0,0,1,2.512,1.68H26.416q-.072-1.248-.048-2.544H24.8c0,.848.032,1.712.08,2.544H18.3v4.528c0,2.064-.112,4.816-1.392,6.736A6.351,6.351,0,0,1,18.16,1.424c1.408-2.064,1.68-5.264,1.7-7.536h2.56c-.048,2.416-.144,3.328-.32,3.552a.57.57,0,0,1-.5.192c-.256,0-.88-.016-1.536-.08a3.572,3.572,0,0,1,.4,1.392,11.4,11.4,0,0,0,1.888-.032A1.417,1.417,0,0,0,23.376-1.6c.336-.448.416-1.824.5-5.3v-.576H19.856V-9.408h5.12a30.067,30.067,0,0,0,1.136,6.592,12.628,12.628,0,0,1-3.488,2.8A7.7,7.7,0,0,1,23.712,1.2a14.7,14.7,0,0,0,3.024-2.448c.72,1.5,1.648,2.4,2.816,2.4,1.312,0,1.856-.752,2.1-3.568a3.906,3.906,0,0,1-1.28-.832c-.1,2.064-.288,2.88-.7,2.88-.672,0-1.3-.832-1.84-2.192a18.177,18.177,0,0,0,2.784-5.408Zm4.912,4.064a12.092,12.092,0,0,1-.944,3.744,6.253,6.253,0,0,1,1.136.56,14.815,14.815,0,0,0,1.072-4.08Zm3.5.288A17.278,17.278,0,0,1,38.5-.912l1.184-.416a17.449,17.449,0,0,0-1.04-3.024Zm-.352-3.872a13.762,13.762,0,0,1,.672,1.28l-2.128.08A50.221,50.221,0,0,0,38.9-11.04l-1.264-.544A29.818,29.818,0,0,1,36.016-8.8a9.321,9.321,0,0,0-.784-.928c.576-.864,1.248-2.128,1.824-3.216l-1.344-.48a18.45,18.45,0,0,1-1.312,2.9l-.432-.384-.72.992a17.218,17.218,0,0,1,2.016,2.24c-.32.448-.624.864-.928,1.248l-1.12.032.128,1.312c.736-.048,1.584-.1,2.5-.144V1.28h1.328V-5.312l1.184-.08a8.06,8.06,0,0,1,.288.9l1.136-.544A13.521,13.521,0,0,0,38.24-8.32Zm10.5-2.784H42a21.184,21.184,0,0,0,.88-2.448l-1.52-.352a13.388,13.388,0,0,1-2.768,5.472,11.123,11.123,0,0,1,1.312.9,12.437,12.437,0,0,0,1.408-2.144h4.88c-.208,5.872-.464,8.24-.976,8.752a.767.767,0,0,1-.688.272c-.384,0-1.344-.016-2.384-.1a3.351,3.351,0,0,1,.5,1.488A15.294,15.294,0,0,0,45.1,1.184,1.709,1.709,0,0,0,46.512.448c.672-.816.88-3.312,1.152-10.368Zm-3.6,7.168a15.1,15.1,0,0,0-2.16-3.6l-1.2.592A15.72,15.72,0,0,1,42.752-2.8Zm9.52-5.168A17.138,17.138,0,0,0,56.9-12a17.9,17.9,0,0,0,3.472,3.36Zm4.08,4.5H62.88v-1.28H57.664v-1.9h3.248V-8.24a20.2,20.2,0,0,0,2.56,1.584,8.47,8.47,0,0,1,.96-1.328,17.615,17.615,0,0,1-6.848-5.472h-1.52a17.175,17.175,0,0,1-6.528,5.664,5.766,5.766,0,0,1,.928,1.2,22.5,22.5,0,0,0,2.5-1.568v.832H56.1v1.9h-5.1v1.28h5.1V-.512H50.224v1.3H63.712v-1.3H57.664Zm-5.5.72A10.422,10.422,0,0,1,53.568-.576l1.3-.576A10.415,10.415,0,0,0,53.376-3.9ZM59.824-.576A28.393,28.393,0,0,0,61.76-3.392L60.336-3.92A17.7,17.7,0,0,1,58.72-1.072ZM78.592-7.7H74.88v-1.3h3.712Zm0,2.368H74.88V-6.64h3.712Zm0,2.384H74.88V-4.272h3.712Zm-5.056-7.184v8.3H80v-8.3H77.008c.144-.416.3-.88.448-1.328h2.928v-1.28H72.992v1.28h2.88c-.08.432-.176.912-.272,1.328Zm-6.144-.72H71.6v1.216h1.264v-2.416H70.208v-1.344H68.816v1.344h-2.64v2.416h1.216ZM70.656-.9H68.32V-2.832h2.336Zm-2.4-3.088A10.061,10.061,0,0,0,69.9-5.3c.608.464,1.184.912,1.648,1.312Zm2.416-4.384A7.307,7.307,0,0,1,69.76-6.96c-.464-.32-.928-.624-1.36-.912.128-.16.256-.32.384-.5Zm1.28,4.736.224.208.864-1.024c-.544-.5-1.376-1.136-2.272-1.792a9.443,9.443,0,0,0,1.568-2.848l-.848-.384-.224.064H69.456a8.446,8.446,0,0,0,.432-.848l-1.232-.32A7.98,7.98,0,0,1,65.744-7.12a7.292,7.292,0,0,1,.96.88,9.535,9.535,0,0,0,.88-.752c.416.288.864.608,1.312.944a9.788,9.788,0,0,1-3.184,1.936A5.488,5.488,0,0,1,66.48-3.04c.192-.08.384-.176.576-.256V.976H68.32V.256h3.472c.3.272.736.7.976.976A10.788,10.788,0,0,0,76.1-.864l-1.232-.752A8.553,8.553,0,0,1,71.952.192ZM77.136-.848A21.232,21.232,0,0,1,79.728,1.28L80.88.5a18.868,18.868,0,0,0-2.656-2.032ZM87.942-9.576v1.414a35,35,0,0,0,5.81,0V-9.59A25.98,25.98,0,0,1,87.942-9.576ZM87.466-3.92a8.481,8.481,0,0,0-.238,1.708c0,1.344,1.092,2.156,3.444,2.156a18.76,18.76,0,0,0,3.514-.28L94.158-1.82a15.582,15.582,0,0,1-3.458.364c-1.68,0-2.142-.49-2.142-1.12a5.267,5.267,0,0,1,.168-1.232ZM83.98-10.71a10.281,10.281,0,0,1-.126,1.148,39.437,39.437,0,0,0-.6,5.53,17.312,17.312,0,0,0,.532,4.48l1.26-.084c-.014-.168-.028-.378-.028-.518a2.554,2.554,0,0,1,.07-.63,27.438,27.438,0,0,1,.994-3.234l-.728-.56c-.21.5-.49,1.176-.7,1.736a10.314,10.314,0,0,1-.1-1.456A32.827,32.827,0,0,1,85.24-9.52c.056-.252.2-.8.294-1.064Zm14.9,1.932h10.29v-1.26h-5.194v-1.708h-1.358v1.708h-5.04v3.556c0,2-.1,4.844-1.232,6.832a6.636,6.636,0,0,1,1.106.742c1.218-2.142,1.428-5.39,1.428-7.574Zm7.294,2.31a17.424,17.424,0,0,0-3.29-2.044L102-7.658A17.263,17.263,0,0,1,105.232-5.5Zm-6.244,6.3a12.121,12.121,0,0,0,1.162-4.48L99.9-4.914A10.578,10.578,0,0,1,98.764-.686Zm3.766-.168c-.476,0-.574-.084-.574-.574V-6.048h-1.274V-.91c0,1.33.336,1.75,1.652,1.75h1.82c1.232,0,1.568-.644,1.694-2.968a4.1,4.1,0,0,1-1.148-.532c-.07,1.974-.14,2.324-.644,2.324Zm2.646-4.452a15.435,15.435,0,0,1,1.848,4.62L109.46-.7a14.962,14.962,0,0,0-1.974-4.55Zm12.334-4.984-.98.42a14.936,14.936,0,0,1,1.3,2.268L120-7.518A20.348,20.348,0,0,0,118.672-9.772Zm1.848-.728-.966.448A15.475,15.475,0,0,1,120.9-7.84l.994-.476A21.622,21.622,0,0,0,120.52-10.5Zm-7.364-.378a7.915,7.915,0,0,1,.154,1.6c0,1.344-.14,4.914-.14,6.888,0,2.3,1.4,3.206,3.514,3.206A7.058,7.058,0,0,0,122.578-2.3l-.994-1.218a5.647,5.647,0,0,1-4.872,2.856c-1.19,0-2.114-.5-2.114-1.96,0-1.932.112-5.124.168-6.664.028-.49.084-1.078.154-1.582ZM125.6-9.436l.154,1.526c1.54-.322,4.942-.658,6.16-.8a5.507,5.507,0,0,0-2.352,4.494c0,3.066,2.856,4.522,5.572,4.662l.5-1.5c-2.3-.1-4.648-.938-4.648-3.458a4.563,4.563,0,0,1,3.066-4.158,12.233,12.233,0,0,1,2.688-.21v-1.4c-.952.028-2.338.112-3.822.224-2.548.224-5.012.462-6.034.546C126.624-9.478,126.148-9.45,125.6-9.436Z" transform="translate(104 226)" fill="#fff"/><g transform="translate(57.941 125.029)"><path d="M8.4-26a26.748,26.748,0,0,1-2.56,1q-1.68.56-2.12.76v-4.6a26.548,26.548,0,0,0,3.3-1.6A11.13,11.13,0,0,0,9.76-32.4H14.6V0H8.4ZM31.2.56a8.119,8.119,0,0,1-6.46-2.54A10,10,0,0,1,22.52-8.8V-23.32a10.435,10.435,0,0,1,2.16-6.98q2.16-2.54,6.52-2.54,4.32,0,6.48,2.54a10.435,10.435,0,0,1,2.16,6.98V-8.8A9.956,9.956,0,0,1,37.6-2,8.049,8.049,0,0,1,31.2.56Zm0-5.44q2.36,0,2.36-4.04V-23.2a8.448,8.448,0,0,0-.46-3,1.832,1.832,0,0,0-1.9-1.2,1.859,1.859,0,0,0-1.96,1.18,8.763,8.763,0,0,0-.44,3.02V-8.92Q28.8-4.88,31.2-4.88ZM52.24.56a8.119,8.119,0,0,1-6.46-2.54A10,10,0,0,1,43.56-8.8V-23.32a10.435,10.435,0,0,1,2.16-6.98q2.16-2.54,6.52-2.54,4.32,0,6.48,2.54a10.435,10.435,0,0,1,2.16,6.98V-8.8A9.956,9.956,0,0,1,58.64-2,8.049,8.049,0,0,1,52.24.56Zm0-5.44q2.36,0,2.36-4.04V-23.2a8.448,8.448,0,0,0-.46-3,1.832,1.832,0,0,0-1.9-1.2,1.859,1.859,0,0,0-1.96,1.18,8.763,8.763,0,0,0-.44,3.02V-8.92Q49.84-4.88,52.24-4.88Z" transform="translate(7.059 39.971)" fill="#fff20e"/><path d="M1.144-12.716h3.3v.946A3.967,3.967,0,0,1,7.15-12.936a2.333,2.333,0,0,1,2.09,1.177,5.5,5.5,0,0,1,.66,2.8v4.972A5.662,5.662,0,0,1,9.174-.935,2.364,2.364,0,0,1,7.04.22a4,4,0,0,1-2.6-1.188V4.18h-3.3ZM5.566-2Q6.578-2,6.578-3.85V-9.174a2.715,2.715,0,0,0-.231-1.21.771.771,0,0,0-.737-.462,2,2,0,0,0-1.166.484v7.986A2.124,2.124,0,0,0,5.566-2ZM15.51.154a2.744,2.744,0,0,1-2.475-1.177,6.208,6.208,0,0,1-.649-3.113v-6.4H11.132v-2.178h1.254v-3.828h3.366v3.828H17.6v2.178H15.752v6.886a1.053,1.053,0,0,0,.319.858,1.436,1.436,0,0,0,.935.264,4.17,4.17,0,0,0,.814-.088v2.6L17.05.1A7.759,7.759,0,0,1,15.51.154Z" transform="translate(72.059 40.971)" fill="#fff20e"/><path d="M21.375-17.225A1.334,1.334,0,0,1,20.05-18.55a1.334,1.334,0,0,1,1.325-1.325A1.334,1.334,0,0,1,22.7-18.55,1.334,1.334,0,0,1,21.375-17.225ZM5.475-18.1c-.825,0-2.475-.125-3.25-.225v4.275c.65-.05,2.025-.125,3.25-.125h11a14.044,14.044,0,0,1-2.75,6.45C11.75-5.275,8.925-3.075,3.9-1.95L7.2,1.675A20.5,20.5,0,0,0,17.375-5.35c2.15-2.9,3.175-6.7,3.775-9.05.075-.3.175-.675.3-1.05a3.135,3.135,0,0,0,3.025-3.1,3.116,3.116,0,0,0-3.1-3.1,3.116,3.116,0,0,0-3.1,3.1,1.426,1.426,0,0,0,.025.325,13.03,13.03,0,0,1-1.8.125Zm26.9,19.5A6.5,6.5,0,0,1,34.1.6c5.7-2,10.925-4.925,14.45-9.05L46.4-11.9A29.468,29.468,0,0,1,34.025-3.775V-16.1a19.633,19.633,0,0,1,.275-3.15H29.55a16.5,16.5,0,0,1,.325,3.15V-2.95A3.771,3.771,0,0,1,29.5-1.1ZM74.55-18.55a35.683,35.683,0,0,0-1.975-3.4l-2.35.95A27.886,27.886,0,0,1,72.2-17.55Zm-3.1,1.225c-.45-.875-1.325-2.5-1.95-3.425l-2.35.95a33.869,33.869,0,0,1,1.925,3.475Zm-11.075,1.05a25.194,25.194,0,0,1,.25-3.2h-4.5a25.708,25.708,0,0,1,.225,3.2v3.15c-2.375.425-4.5.775-5.7.925l.725,3.95c1.075-.25,2.9-.625,4.975-1.05v6.4c0,3.25.8,4.7,7.075,4.7a64.4,64.4,0,0,0,7.7-.55l.125-4.1a43,43,0,0,1-7.95.875c-2.6,0-2.925-.525-2.925-2v-6.15c3.025-.6,5.775-1.15,6.675-1.325a20.521,20.521,0,0,1-3.725,4.575l3.325,1.95a34.528,34.528,0,0,0,5.2-7.3c.25-.5.675-1.15.925-1.55L69.85-16.05a8.719,8.719,0,0,1-2.025.675c-1.15.275-4.2.9-7.45,1.5ZM81.225-19.4,78.35-16.325a52.106,52.106,0,0,1,6.275,5.475l3.1-3.175A50.442,50.442,0,0,0,81.225-19.4Zm-3.7,16.6,2.575,4a26.678,26.678,0,0,0,8.95-3.3,27.035,27.035,0,0,0,9.725-9.475l-2.35-4.275a24.158,24.158,0,0,1-9.55,10A25.727,25.727,0,0,1,77.525-2.8Zm44.5-6.775A82.654,82.654,0,0,0,111.7-13.35v-3.425a29.723,29.723,0,0,1,.25-3.25h-4.725a17.464,17.464,0,0,1,.3,3.25V-2.5a28.065,28.065,0,0,1-.3,3.775h4.75C111.85.15,111.7-1.825,111.7-2.5V-8.925a77.968,77.968,0,0,1,8.6,3.575Z" transform="translate(94.059 38.971)" fill="#fff20e"/><g transform="translate(14.757 49.731)" clip-path="url(#d)"><g transform="translate(-15 -247.999)"><path d="M645.258,358.01a5.619,5.619,0,0,0-3.635,1.243,6.648,6.648,0,0,1-8.1,0,5.623,5.623,0,0,0-3.636-1.243s-.008-.874,0-.874a6.5,6.5,0,0,1,4.049,1.375,5.928,5.928,0,0,0,7.272,0,6.315,6.315,0,0,1,4.049-1.375Z" transform="translate(-614.884 -109.135)" fill="#fff20e"/></g><g transform="translate(0 -247.999)"><path d="M645.258,358.01a5.619,5.619,0,0,0-3.635,1.243,6.648,6.648,0,0,1-8.1,0,5.623,5.623,0,0,0-3.636-1.243s-.008-.874,0-.874a6.5,6.5,0,0,1,4.049,1.375,5.928,5.928,0,0,0,7.272,0,6.315,6.315,0,0,1,4.049-1.375Z" transform="translate(-614.884 -109.135)" fill="#fff20e"/></g><g transform="translate(15 -247.999)"><path d="M645.258,358.01a5.619,5.619,0,0,0-3.635,1.243,6.648,6.648,0,0,1-8.1,0,5.623,5.623,0,0,0-3.636-1.243s-.008-.874,0-.874a6.5,6.5,0,0,1,4.049,1.375,5.928,5.928,0,0,0,7.272,0,6.315,6.315,0,0,1,4.049-1.375Z" transform="translate(-614.884 -109.135)" fill="#fff20e"/></g><g transform="translate(30 -247.999)"><path d="M645.258,358.01a5.619,5.619,0,0,0-3.635,1.243,6.648,6.648,0,0,1-8.1,0,5.623,5.623,0,0,0-3.636-1.243s-.008-.874,0-.874a6.5,6.5,0,0,1,4.049,1.375,5.928,5.928,0,0,0,7.272,0,6.315,6.315,0,0,1,4.049-1.375Z" transform="translate(-614.884 -109.135)" fill="#fff20e"/></g><g transform="translate(45 -247.999)"><path d="M645.258,358.01a5.619,5.619,0,0,0-3.635,1.243,6.648,6.648,0,0,1-8.1,0,5.623,5.623,0,0,0-3.636-1.243s-.008-.874,0-.874a6.5,6.5,0,0,1,4.049,1.375,5.928,5.928,0,0,0,7.272,0,6.315,6.315,0,0,1,4.049-1.375Z" transform="translate(-614.884 -109.135)" fill="#fff20e"/></g><g transform="translate(60 -247.999)"><path d="M645.258,358.01a5.619,5.619,0,0,0-3.635,1.243,6.648,6.648,0,0,1-8.1,0,5.623,5.623,0,0,0-3.636-1.243s-.008-.874,0-.874a6.5,6.5,0,0,1,4.049,1.375,5.928,5.928,0,0,0,7.272,0,6.315,6.315,0,0,1,4.049-1.375Z" transform="translate(-614.884 -109.135)" fill="#fff20e"/></g><g transform="translate(75 -247.999)"><path d="M645.258,358.01a5.619,5.619,0,0,0-3.635,1.243,6.648,6.648,0,0,1-8.1,0,5.623,5.623,0,0,0-3.636-1.243s-.008-.874,0-.874a6.5,6.5,0,0,1,4.049,1.375,5.928,5.928,0,0,0,7.272,0,6.315,6.315,0,0,1,4.049-1.375Z" transform="translate(-614.884 -109.135)" fill="#fff20e"/></g><g transform="translate(90 -247.999)"><path d="M645.258,358.01a5.619,5.619,0,0,0-3.635,1.243,6.648,6.648,0,0,1-8.1,0,5.623,5.623,0,0,0-3.636-1.243s-.008-.874,0-.874a6.5,6.5,0,0,1,4.049,1.375,5.928,5.928,0,0,0,7.272,0,6.315,6.315,0,0,1,4.049-1.375Z" transform="translate(-614.884 -109.135)" fill="#fff20e"/></g><g transform="translate(105 -247.999)"><path d="M645.258,358.01a5.619,5.619,0,0,0-3.635,1.243,6.648,6.648,0,0,1-8.1,0,5.623,5.623,0,0,0-3.636-1.243s-.008-.874,0-.874a6.5,6.5,0,0,1,4.049,1.375,5.928,5.928,0,0,0,7.272,0,6.315,6.315,0,0,1,4.049-1.375Z" transform="translate(-614.884 -109.135)" fill="#fff20e"/></g><g transform="translate(120 -247.999)"><path d="M645.258,358.01a5.619,5.619,0,0,0-3.635,1.243,6.648,6.648,0,0,1-8.1,0,5.623,5.623,0,0,0-3.636-1.243s-.008-.874,0-.874a6.5,6.5,0,0,1,4.049,1.375,5.928,5.928,0,0,0,7.272,0,6.315,6.315,0,0,1,4.049-1.375Z" transform="translate(-614.884 -109.135)" fill="#fff20e"/></g><g transform="translate(135 -247.999)"><path d="M645.258,358.01a5.619,5.619,0,0,0-3.635,1.243,6.648,6.648,0,0,1-8.1,0,5.623,5.623,0,0,0-3.636-1.243s-.008-.874,0-.874a6.5,6.5,0,0,1,4.049,1.375,5.928,5.928,0,0,0,7.272,0,6.315,6.315,0,0,1,4.049-1.375Z" transform="translate(-614.884 -109.135)" fill="#fff20e"/></g><g transform="translate(150 -247.999)"><path d="M645.258,358.01a5.619,5.619,0,0,0-3.635,1.243,6.648,6.648,0,0,1-8.1,0,5.623,5.623,0,0,0-3.636-1.243s-.008-.874,0-.874a6.5,6.5,0,0,1,4.049,1.375,5.928,5.928,0,0,0,7.272,0,6.315,6.315,0,0,1,4.049-1.375Z" transform="translate(-614.884 -109.135)" fill="#fff20e"/></g><g transform="translate(165 -247.999)"><path d="M645.258,358.01a5.619,5.619,0,0,0-3.635,1.243,6.648,6.648,0,0,1-8.1,0,5.623,5.623,0,0,0-3.636-1.243s-.008-.874,0-.874a6.5,6.5,0,0,1,4.049,1.375,5.928,5.928,0,0,0,7.272,0,6.315,6.315,0,0,1,4.049-1.375Z" transform="translate(-614.884 -109.135)" fill="#fff20e"/></g><g transform="translate(180 -247.999)"><path d="M645.258,358.01a5.619,5.619,0,0,0-3.635,1.243,6.648,6.648,0,0,1-8.1,0,5.623,5.623,0,0,0-3.636-1.243s-.008-.874,0-.874a6.5,6.5,0,0,1,4.049,1.375,5.928,5.928,0,0,0,7.272,0,6.315,6.315,0,0,1,4.049-1.375Z" transform="translate(-614.884 -109.135)" fill="#fff20e"/></g></g></g><path d="M4.608-1.136c-.544,0-1.472-.544-1.472-1.168,0-.64.8-1.44,1.952-2,.016,1.024.048,1.936.048,2.432C5.136-1.344,4.944-1.136,4.608-1.136Zm1.9-5.712c0-.56.016-1.184.032-1.824A31.438,31.438,0,0,0,9.728-9.2L9.7-10.768a19.267,19.267,0,0,1-3.12.608c.032-.56.048-1.072.064-1.456s.064-.912.1-1.216H5.008a10.135,10.135,0,0,1,.1,1.248c0,.288-.016.864-.016,1.584-.384.016-.752.032-1.088.032A15.729,15.729,0,0,1,1.9-10.1L1.952-8.56c.624.064,1.376.08,2.08.08.3,0,.656-.016,1.04-.048-.016.592-.016,1.184-.016,1.744v.992C3.184-4.976,1.568-3.584,1.568-2.24,1.568-.7,3.68.544,5.056.544c.928,0,1.552-.48,1.552-2.16,0-.624-.048-1.952-.064-3.264a10.621,10.621,0,0,1,3.248-.528c1.44,0,2.544.672,2.544,1.888,0,1.344-1.168,2.048-2.5,2.288a10.6,10.6,0,0,1-1.9.112L8.512.48a10.611,10.611,0,0,0,2-.224c2.336-.56,3.424-1.872,3.424-3.76,0-2.032-1.776-3.3-4.128-3.3a12.216,12.216,0,0,0-3.3.5ZM10.8-9.872a23.457,23.457,0,0,1,3.664,2.336l.784-1.28A29.255,29.255,0,0,0,11.5-11.088Zm9.584,3.456h7.232V-5.04H20.384Zm0-2.592h7.232v1.36H20.384Zm0-2.56h7.232v1.344H20.384ZM27.168-.288c-.64,0-.752-.064-.752-.544v-2.9h2.7V-12.9H18.944v9.168h2.064c-.3,1.9-1.088,3.072-4.368,3.712A4.608,4.608,0,0,1,17.488,1.3c3.744-.848,4.736-2.48,5.1-5.024h2.3v2.9c0,1.5.416,1.952,2.1,1.952H29.36c1.44,0,1.856-.592,2.032-2.992A4.19,4.19,0,0,1,30-2.48c-.064,1.936-.16,2.192-.784,2.192ZM38.624-4.8c-.288-.352-1.5-1.616-2.032-2.08v-.784H38.3v-.688H47.3v-.976h-3.84v-.7h3.088v-.928H43.456v-.688h3.472v-.96H43.456v-.816H41.968v.816H38.7v.96h3.264v.688H39.024v.928h2.944v.7h-3.76v.272H36.592v-2.432a16.083,16.083,0,0,0,1.968-.592l-1.024-1.136A22.288,22.288,0,0,1,32.7-12.048a4.587,4.587,0,0,1,.432,1.152c.64-.08,1.328-.176,2.016-.3v2.144h-2.3v1.392H35.04A16.4,16.4,0,0,1,32.432-2.88,8.076,8.076,0,0,1,33.168-1.5,16.737,16.737,0,0,0,35.152-5.12V1.232h1.44V-5.36A17.409,17.409,0,0,1,37.76-3.632Zm6.432-1.04H40.592V-6.7h4.464Zm0,1.792H40.592v-.88h4.464Zm0,1.792H40.592v-.88h4.464Zm1.392-5.408h-7.2V-1.3h1.7A10.958,10.958,0,0,1,37.472.368a7.615,7.615,0,0,1,.944.96,13.305,13.305,0,0,0,3.808-1.92l-1.1-.7h5.328ZM43.456-.576c.976.608,2.1,1.376,2.72,1.856l1.3-.72C46.736.064,45.5-.688,44.448-1.3Zm8.416-12.16c-.016.416-.064.96-.128,1.488a41.444,41.444,0,0,0-.48,5.1,19.093,19.093,0,0,0,.192,2.56L53.008-3.7A7.17,7.17,0,0,1,52.96-5.52c.128-2.08,1.888-4.928,3.808-4.928,1.52,0,2.336,1.616,2.336,4.08,0,3.92-2.592,5.2-6.064,5.744L54,.816c4.032-.736,6.8-2.768,6.8-7.184,0-3.408-1.6-5.536-3.76-5.536-1.9,0-3.44,1.7-4.128,3.152a27.553,27.553,0,0,1,.688-3.92ZM75.76-8.554a20.51,20.51,0,0,0-1.134-1.932l-.91.378a17.008,17.008,0,0,1,1.12,1.946ZM71.07-5.362a22.733,22.733,0,0,1,2.618-.14,19.968,19.968,0,0,1,2.352.168l.042-1.33A23.187,23.187,0,0,0,73.66-6.79c-.9,0-1.848.07-2.59.14Zm.98-3.976a23.753,23.753,0,0,1-2.492.476l.168-.812c.056-.28.168-.84.266-1.19L68.3-10.99a6.649,6.649,0,0,1-.042,1.26c-.028.252-.1.616-.168,1.022-.49.042-.952.056-1.386.056a12.843,12.843,0,0,1-1.694-.112l.028,1.372c.5.042,1.008.056,1.652.056.35,0,.714-.014,1.106-.028-.1.448-.21.91-.336,1.33A30.119,30.119,0,0,1,65.106.182L66.646.7A41.565,41.565,0,0,0,68.83-5.684c.154-.588.308-1.2.434-1.806a27.526,27.526,0,0,0,2.786-.462ZM70.3-3.36a9.188,9.188,0,0,0-.21,1.736C70.09-.252,71.252.49,73.506.49a19.08,19.08,0,0,0,2.744-.2l.042-1.414a15.511,15.511,0,0,1-2.772.28c-1.764,0-2.1-.56-2.1-1.19a5.224,5.224,0,0,1,.2-1.2Zm5.012-7.35a15.873,15.873,0,0,1,1.162,1.946l.91-.406c-.266-.5-.8-1.386-1.162-1.918Zm4.83-.2a9.926,9.926,0,0,1-.084,1.036,38.022,38.022,0,0,0-.49,5.544A15.315,15.315,0,0,0,80.324.112l1.2-.14c0-.168-.028-.378-.028-.518a2.626,2.626,0,0,1,.07-.63,32.746,32.746,0,0,1,.924-3.206l-.728-.462c-.238.616-.5,1.372-.7,1.89a18.236,18.236,0,0,1,.42-6.79c.07-.28.182-.714.28-1.008Zm10.71,2.464a19.944,19.944,0,0,1-2.17.294c-.014-.826-.028-1.638-.014-1.946a8.225,8.225,0,0,1,.056-.868h-1.61a6.63,6.63,0,0,1,.14.868c.028.364.056,1.19.07,2.03-.56.014-1.134.028-1.666.028a15.145,15.145,0,0,1-2.17-.14v1.4c.644.042,1.554.084,2.2.084.546,0,1.106-.014,1.666-.028v.434c0,2.534-.14,3.948-1.442,5.152a4.912,4.912,0,0,1-1.47.98L85.728.854C88.584-.9,88.7-3.052,88.7-6.272V-6.79c.812-.056,1.554-.126,2.156-.21ZM102.29-7.28l-.84.364a13.238,13.238,0,0,1,1.12,1.96l.868-.392A19.547,19.547,0,0,0,102.29-7.28Zm1.554-.6L103-7.5a13.138,13.138,0,0,1,1.176,1.932l.854-.42A21.907,21.907,0,0,0,103.844-7.882ZM93.106-9.366l.14,1.526c1.554-.336,4.956-.672,6.16-.8a5.492,5.492,0,0,0-2.338,4.494c0,3.052,2.842,4.508,5.558,4.648l.5-1.484c-2.282-.112-4.634-.938-4.634-3.472a4.584,4.584,0,0,1,3.052-4.158,13.289,13.289,0,0,1,2.7-.2l-.014-1.414c-.938.028-2.338.112-3.808.238-2.548.21-5.026.448-6.034.546C94.114-9.408,93.638-9.38,93.106-9.366Zm22.232,3.654a3.816,3.816,0,0,1,1.47,2.772c0,1.316-1.218,2.2-3.248,2.2-1.484,0-2.212-.742-2.212-1.988,0-.294.028-.714.07-1.2h.532a22.414,22.414,0,0,0,2.59-.14l.042-1.316a22.076,22.076,0,0,1-2.842.168h-.2c.084-.728.182-1.5.28-2.212h.028a26.56,26.56,0,0,0,2.786-.14l.042-1.316a16.427,16.427,0,0,1-2.688.182l.168-1.26c.056-.336.112-.658.21-1.092l-1.568-.084a5.645,5.645,0,0,1-.014,1.092c-.028.35-.07.8-.126,1.3a13.214,13.214,0,0,1-2.954-.532l-.07,1.288a17.25,17.25,0,0,0,2.87.49c-.1.728-.2,1.5-.28,2.226a11.492,11.492,0,0,1-2.842-.56l-.07,1.344a14.72,14.72,0,0,0,2.772.49c-.056.616-.1,1.134-.1,1.5,0,2.282,1.54,3.178,3.556,3.178,2.856,0,4.732-1.372,4.732-3.444a4.844,4.844,0,0,0-1.4-3.262Z" transform="translate(113 125)" fill="#fff"/><g fill="none"><path d="M0,0H345V308H0Z" stroke="none"/><path d="M 5 5 L 5 303 L 340 303 L 340 5 L 5 5 M 0 0 L 345 0 L 345 308 L 0 308 L 0 0 Z" stroke="none" fill="#004099"/></g><g transform="translate(-295.953 -3636.188)"><g transform="translate(297.953 3812)" fill="#fff"><path d="M 28.19801139831543 54.89603805541992 C 24.59314155578613 54.89603805541992 21.09690093994141 54.19035720825195 17.8064022064209 52.79858779907227 C 14.62740135192871 51.45398712158203 11.77205181121826 49.52875900268555 9.319671630859375 47.07637023925781 C 6.867281436920166 44.62398910522461 4.942051410675049 41.76863861083984 3.597451448440552 38.58963775634766 C 2.205681324005127 35.29914093017578 1.500001430511475 31.80288887023926 1.500001430511475 28.19801902770996 C 1.500001430511475 24.59314918518066 2.205681324005127 21.09690856933594 3.597451448440552 17.80640983581543 C 4.942051410675049 14.62740898132324 6.867281436920166 11.77205944061279 9.319671630859375 9.319668769836426 C 11.77205181121826 6.867289066314697 14.62740135192871 4.942049026489258 17.8064022064209 3.597449064254761 C 21.09690093994141 2.205678939819336 24.59314155578613 1.499999046325684 28.19801139831543 1.499999046325684 C 31.80288124084473 1.499999046325684 35.29912185668945 2.205678939819336 38.58962249755859 3.597449064254761 C 41.76861953735352 4.942049026489258 44.62397003173828 6.867289066314697 47.07635116577148 9.319668769836426 C 49.52873992919922 11.77205944061279 51.45397186279297 14.62740898132324 52.7985725402832 17.80640983581543 C 54.19034194946289 21.09690856933594 54.89602279663086 24.59314918518066 54.89602279663086 28.19801902770996 C 54.89602279663086 31.80288887023926 54.19034194946289 35.29914093017578 52.7985725402832 38.58963775634766 C 51.45397186279297 41.76863861083984 49.52873992919922 44.62398910522461 47.07635116577148 47.07637023925781 C 44.62397003173828 49.52875900268555 41.76861953735352 51.45398712158203 38.58962249755859 52.79858779907227 C 35.29912185668945 54.19035720825195 31.80288124084473 54.89603805541992 28.19801139831543 54.89603805541992 Z" stroke="none"/><path d="M 28.19801139831543 3 C 24.79498100280762 3 21.49533081054688 3.665817260742188 18.39073181152344 4.978950500488281 C 15.39052963256836 6.247928619384766 12.69544219970703 8.065219879150391 10.38033294677734 10.38032913208008 C 8.065219879150391 12.69543838500977 6.247932434082031 15.39052963256836 4.978950500488281 18.39072799682617 C 3.665821075439453 21.49533843994141 3 24.79498863220215 3 28.19801902770996 C 3 31.60104942321777 3.665821075439453 34.90069961547852 4.978950500488281 38.00531005859375 C 6.247932434082031 41.00550842285156 8.065219879150391 43.70059967041016 10.38033294677734 46.01570892333984 C 12.69544219970703 48.33081817626953 15.39052963256836 50.14810943603516 18.39073181152344 51.41708755493164 C 21.49533081054688 52.73022079467773 24.79498100280762 53.39603805541992 28.19801139831543 53.39603805541992 C 31.60104179382324 53.39603805541992 34.90069198608398 52.73022079467773 38.00529098510742 51.41708755493164 C 41.0054931640625 50.14810943603516 43.70058059692383 48.33081817626953 46.01569366455078 46.01570892333984 C 48.33080291748047 43.70059967041016 50.14809036254883 41.00550842285156 51.41707229614258 38.00531005859375 C 52.73020172119141 34.90069961547852 53.39602279663086 31.60104942321777 53.39602279663086 28.19801902770996 C 53.39602279663086 24.79498863220215 52.73020172119141 21.49533843994141 51.41707229614258 18.39072799682617 C 50.14809036254883 15.39052963256836 48.33080291748047 12.69543838500977 46.01569366455078 10.38032913208008 C 43.70058059692383 8.065219879150391 41.0054931640625 6.247928619384766 38.00529098510742 4.978950500488281 C 34.90069198608398 3.665817260742188 31.60104179382324 3 28.19801139831543 3 M 28.19801139831543 0 C 43.77133941650391 0 56.39602279663086 12.62467956542969 56.39602279663086 28.19801902770996 C 56.39602279663086 43.77135848999023 43.77133941650391 56.39603805541992 28.19801139831543 56.39603805541992 C 12.62467956542969 56.39603805541992 0 43.77135848999023 0 28.19801902770996 C 0 12.62467956542969 12.62467956542969 0 28.19801139831543 0 Z" stroke="none" fill="#004099"/></g><path d="M6.8,0l6.8,12.93H0Z" transform="translate(354.906 3859.163) rotate(137)" fill="#fff"/><path d="M1.8-6.516a.657.657,0,0,1-.48-.2.657.657,0,0,1-.2-.48v-.276a.657.657,0,0,1,.2-.48.657.657,0,0,1,.48-.2q1.884,0,4.284-.06.084,0,.084-.108Q6.144-8.5,6.12-8.9a.645.645,0,0,1,.174-.48.685.685,0,0,1,.462-.228l.48-.036a.665.665,0,0,1,.486.174.675.675,0,0,1,.234.462Q7.98-8.6,8-8.388q0,.1.12.1L10.2-8.364a.635.635,0,0,1,.48.18.66.66,0,0,1,.216.468l.012.276a.654.654,0,0,1-.18.486.651.651,0,0,1-.468.222L8.388-6.66q-.1,0-.072.108A9.753,9.753,0,0,0,9.276-4.3a.59.59,0,0,1,.054.486.6.6,0,0,1-.318.378l-.528.252A1.4,1.4,0,0,1,7.26-3.216,4.616,4.616,0,0,0,5.3-3.66a1.985,1.985,0,0,0-1.2.312,1,1,0,0,0-.42.852q0,1.512,2.676,1.512A14.46,14.46,0,0,0,8.652-1.2a.647.647,0,0,1,.5.114.7.7,0,0,1,.288.438l.06.3a.665.665,0,0,1-.114.51.649.649,0,0,1-.438.282A16.807,16.807,0,0,1,6.36.66,5.677,5.677,0,0,1,2.91-.222,2.828,2.828,0,0,1,1.74-2.6a2.4,2.4,0,0,1,.912-1.962A3.941,3.941,0,0,1,5.2-5.3a5.344,5.344,0,0,1,1.74.3l.024-.012v-.012A9.107,9.107,0,0,1,6.468-6.48a.123.123,0,0,0-.132-.108Q3.288-6.516,1.8-6.516ZM14.172-2.9a.666.666,0,0,1-.432-.3.7.7,0,0,1-.108-.516q.216-1.2.384-2.388a.749.749,0,0,1,.264-.468.671.671,0,0,1,.5-.156l.54.048a.625.625,0,0,1,.45.24.625.625,0,0,1,.138.492q-.1.744-.192,1.356v.012h.024A6.167,6.167,0,0,1,19.1-5.676a4.2,4.2,0,0,1,2.7.708,2.709,2.709,0,0,1,.852,2.208A2.864,2.864,0,0,1,21.294-.252,7.006,7.006,0,0,1,17.388.66q-1.116,0-2.244-.108a.638.638,0,0,1-.456-.246.672.672,0,0,1-.156-.5l.024-.288A.638.638,0,0,1,14.8-.936a.672.672,0,0,1,.5-.156q1.26.108,2.088.108a4.449,4.449,0,0,0,2.268-.48,1.457,1.457,0,0,0,.8-1.3q0-1.284-1.644-1.284a6.574,6.574,0,0,0-2.988,1.02,1.694,1.694,0,0,1-1.248.2Zm1.788-6.2q2.4.252,4.524.288a.717.717,0,0,1,.486.2.641.641,0,0,1,.2.48v.276a.647.647,0,0,1-.2.474.647.647,0,0,1-.474.2q-2.448-.036-4.74-.276a.631.631,0,0,1-.456-.252.649.649,0,0,1-.144-.5l.036-.288a.654.654,0,0,1,.264-.45A.7.7,0,0,1,15.96-9.108Zm17.928.636a.657.657,0,0,1,.48.2.657.657,0,0,1,.2.48v.324a.657.657,0,0,1-.2.48.657.657,0,0,1-.48.2H30.06a.657.657,0,0,1-.48-.2.657.657,0,0,1-.2-.48v-.324a.657.657,0,0,1,.2-.48.657.657,0,0,1,.48-.2ZM26.532.612A.733.733,0,0,1,26,.48a.716.716,0,0,1-.3-.456A20.394,20.394,0,0,1,25.26-4.32,20.394,20.394,0,0,1,25.7-8.664.716.716,0,0,1,26-9.12a.733.733,0,0,1,.528-.132l.564.06a.554.554,0,0,1,.42.246.606.606,0,0,1,.1.5A19.845,19.845,0,0,0,27.2-4.32a19.845,19.845,0,0,0,.408,4.128.606.606,0,0,1-.1.5.554.554,0,0,1-.42.246ZM32.016.228a4.7,4.7,0,0,1-2.7-.672,2.1,2.1,0,0,1-.972-1.812A2.436,2.436,0,0,1,28.62-3.27a5.246,5.246,0,0,1,.756-1.146.622.622,0,0,1,.474-.228.766.766,0,0,1,.522.168l.276.2a.587.587,0,0,1,.234.444.7.7,0,0,1-.15.492,1.846,1.846,0,0,0-.492.96.689.689,0,0,0,.42.654,3.224,3.224,0,0,0,1.356.21,11.755,11.755,0,0,0,1.968-.18.66.66,0,0,1,.5.108.635.635,0,0,1,.276.432l.048.348a.7.7,0,0,1-.114.528.644.644,0,0,1-.438.288A11.538,11.538,0,0,1,32.016.228Z" transform="matrix(0.995, -0.105, 0.105, 0.995, 309.044, 3846.045)" fill="#004099"/></g></g></svg>