<?xml version="1.0" encoding="utf-8"?>
<!-- Generator: Adobe Illustrator 25.2.0, SVG Export Plug-In . SVG Version: 6.00 Build 0)  -->
<svg version="1.1" id="レイヤー_1" xmlns="http://www.w3.org/2000/svg" xmlns:xlink="http://www.w3.org/1999/xlink" x="0px"
	 y="0px" viewBox="0 0 345 308" style="enable-background:new 0 0 345 308;" xml:space="preserve">
<style type="text/css">
	.st0{filter:url(#a);}
	.st1{fill:#FFFFFF;}
	.st2{fill:#004099;}
	.st3{fill:#FFF20E;}
	.st4{fill:#003288;}
	.st5{fill:#FFED00;}
	.st6{fill:#1A1311;}
	.st7{clip-path:url(#SVGID_2_);}
	.st8{clip-path:url(#SVGID_4_);}
	.st9{fill:none;}
</style>
<filter  filterUnits="userSpaceOnUse" height="323" id="a" width="360" x="0" y="0">
	<feOffset  input="SourceAlpha"></feOffset>
	<feGaussianBlur  result="b" stdDeviation="2.5"></feGaussianBlur>
	<feFlood  flood-opacity="0.161"></feFlood>
	<feComposite  in2="b" operator="in"></feComposite>
	<feComposite  in="SourceGraphic" operator="over"></feComposite>
</filter>
<g transform="translate(7.5 7.5)">
	<g transform="matrix(1, 0, 0, 1, -7.5, -7.5)" class="st0">
		<path class="st1" d="M0,0h345v308H0V0z"/>
	</g>
	<path class="st2" d="M1.5,86.5h327v100H1.5V86.5z"/>
	<path class="st2" d="M1.5,191.5h327v100H1.5V191.5z"/>
	<path class="st3" d="M-7.5-7.5h340v89h-340V-7.5z"/>
	<g transform="translate(-397 -5815)">
		<path class="st2" d="M495.3,5850.6l-0.4-0.5c-0.5-0.5-0.5-1.3-0.1-1.9c0.6-1.1,1-2.4,1.2-3.6c0.3-1.7,0.4-3.4,0.4-5.2v-5.6
			c0-0.3,0.1-0.6,0.4-0.8c0.2-0.2,0.5-0.3,0.8-0.3h0.3c0.3,0,0.6,0.1,0.8,0.3c0.2,0.2,0.4,0.5,0.4,0.8v3.4c0,0.1,0.1,0.2,0.1,0.2
			c0,0,0,0,0,0h5.4c0.1,0,0.2-0.1,0.2-0.2v-3.6c0-0.3,0.1-0.6,0.4-0.8c0.2-0.2,0.5-0.3,0.8-0.3h0.4c0.3,0,0.6,0.1,0.8,0.3
			c0.2,0.2,0.4,0.5,0.4,0.8v3.6c0,0.1,0.1,0.2,0.2,0.2h4.6c0.3,0,0.6,0.1,0.8,0.3c0.2,0.2,0.4,0.5,0.4,0.8c0,0.3-0.1,0.6-0.4,0.8
			c-0.2,0.2-0.5,0.4-0.8,0.4h-13.1c-0.1,0-0.2,0.1-0.2,0.1c0,0,0,0,0,0v1.4c0,0.4,0,0.8,0,1c0,0.1,0,0.2,0.1,0.2c0,0,0,0,0,0h9
			c0.3,0,0.6,0.1,0.8,0.4c0.2,0.2,0.3,0.5,0.3,0.8v6.6c0,0.3-0.1,0.6-0.3,0.8c-0.2,0.2-0.5,0.4-0.8,0.3h-0.4c-0.3,0-0.6-0.1-0.8-0.3
			c-0.2-0.2-0.4-0.5-0.4-0.8v-5.2c0-0.1-0.1-0.2-0.2-0.2H499c-0.1,0-0.2,0.1-0.2,0.2c-0.3,1.9-1,3.8-2.1,5.5
			c-0.2,0.2-0.4,0.4-0.7,0.4C495.7,5851,495.4,5850.8,495.3,5850.6z M522.3,5837.7c-0.3,0-0.6-0.1-0.8-0.4c-0.2-0.2-0.4-0.5-0.4-0.8
			c0-0.3,0.1-0.6,0.4-0.8c0.2-0.2,0.5-0.3,0.8-0.3h7.7c0.1,0,0.2-0.1,0.2-0.1c0,0,0,0,0,0v-1.6c0-0.3,0.1-0.6,0.3-0.8
			c0.2-0.2,0.5-0.4,0.8-0.3h0.4c0.3,0,0.6,0.1,0.8,0.3c0.2,0.2,0.4,0.5,0.4,0.8v1.6c0,0.1,0.1,0.2,0.1,0.2c0,0,0,0,0,0h0.4
			c0.3,0,0.6,0.1,0.8,0.3c0.2,0.2,0.4,0.5,0.4,0.8c0,0.3-0.1,0.6-0.4,0.8c-0.2,0.2-0.5,0.4-0.8,0.4h-0.4c-0.1,0-0.2,0.1-0.2,0.1
			c0,0,0,0,0,0v10c0,0.6,0,1,0,1.4c0,0.3-0.1,0.6-0.2,0.9c-0.1,0.2-0.2,0.4-0.3,0.6c-0.2,0.2-0.4,0.3-0.6,0.3
			c-0.3,0.1-0.6,0.1-0.9,0.2c-0.3,0-0.8,0-1.4,0c-0.9,0-1.8,0-2.4,0c-0.3,0-0.6-0.1-0.9-0.4c-0.2-0.2-0.4-0.5-0.4-0.9
			c0-0.3,0.1-0.6,0.3-0.8c0.2-0.2,0.5-0.3,0.8-0.3c0.9,0,1.6,0.1,2.1,0.1c0.3,0,0.7,0,1-0.1c0.1-0.1,0.2-0.4,0.2-0.9v-10.1
			c0-0.1-0.1-0.2-0.1-0.2c0,0,0,0,0,0H522.3z M526.8,5845.6l-0.1,0.1c-0.3,0.2-0.6,0.2-0.9,0.1c-0.3-0.1-0.6-0.3-0.7-0.6
			c-0.7-1.3-1.5-2.5-2.2-3.6c-0.2-0.3-0.2-0.6-0.2-0.9c0.1-0.3,0.2-0.6,0.5-0.7l0.1-0.1c0.3-0.2,0.6-0.2,0.9-0.2
			c0.3,0.1,0.6,0.2,0.8,0.5c1,1.4,1.7,2.7,2.3,3.7c0.2,0.3,0.2,0.6,0.1,0.9C527.3,5845.2,527.1,5845.5,526.8,5845.6L526.8,5845.6z
			 M515.4,5843.5l-0.3-0.9c-0.2-0.7-0.1-1.5,0.4-2.1c1.3-2.1,2.2-4.4,2.8-6.9c0.1-0.3,0.3-0.6,0.5-0.8c0.3-0.2,0.6-0.3,0.9-0.2
			l0.2,0c0.3,0.1,0.6,0.2,0.8,0.5c0.2,0.3,0.2,0.6,0.2,0.9c-0.2,1-0.5,2.1-0.8,3.1c0,0.1,0,0.2,0,0.4v12.9c0,0.3-0.1,0.6-0.4,0.8
			c-0.2,0.2-0.5,0.3-0.8,0.3h-0.3c-0.3,0-0.6-0.1-0.8-0.3c-0.2-0.2-0.4-0.5-0.4-0.8v-7.7c0,0,0,0,0,0c0,0,0,0-0.1,0
			c-0.2,0.4-0.5,0.8-0.8,1.2c-0.1,0.2-0.4,0.3-0.6,0.2C515.7,5843.8,515.5,5843.7,515.4,5843.5z M544.5,5839.4
			c-0.3,0-0.6-0.1-0.8-0.4c-0.2-0.2-0.4-0.5-0.4-0.8c0-0.3,0.1-0.6,0.4-0.8c0.2-0.2,0.5-0.4,0.8-0.4h4.9c0.1,0,0.2,0,0.2-0.1
			c0,0,0,0,0,0v-2.6c0-0.3,0.1-0.6,0.4-0.8c0.2-0.2,0.5-0.3,0.8-0.3h0.3c0.3,0,0.6,0.1,0.8,0.3c0.2,0.2,0.4,0.5,0.4,0.8v2.6
			c0,0.1,0.1,0.2,0.2,0.2h1.7c0.3,0,0.6,0.1,0.8,0.4c0.2,0.2,0.4,0.5,0.4,0.8c0,0.3-0.1,0.6-0.4,0.8c-0.2,0.2-0.5,0.4-0.8,0.4h-1.7
			c-0.1,0-0.2,0.1-0.2,0.2v2.4c0,2.7-0.3,4.6-1,5.7c-1,1.4-2.4,2.3-4,2.7c-0.3,0.1-0.6,0.1-0.9-0.1c-0.3-0.1-0.5-0.4-0.6-0.7
			l-0.1-0.1c-0.1-0.3-0.1-0.6,0.1-0.9c0.1-0.3,0.4-0.5,0.7-0.6c0.6-0.2,1.2-0.4,1.7-0.7c0.4-0.3,0.8-0.6,1-1.1
			c0.3-0.5,0.4-1.1,0.5-1.6c0.1-0.9,0.1-1.7,0.1-2.6v-2.4c0-0.1,0-0.2-0.1-0.2c0,0,0,0,0,0L544.5,5839.4z M539.8,5850.5
			c-0.3,0-0.7,0-0.9-0.2c-0.3-0.2-0.5-0.5-0.5-0.8c-0.5-2.5-0.8-5-0.8-7.6c0-2.5,0.2-5.1,0.8-7.6c0.1-0.3,0.3-0.6,0.5-0.8
			c0.3-0.2,0.6-0.3,0.9-0.2l0.4,0c0.3,0,0.6,0.2,0.7,0.4c0.2,0.2,0.2,0.6,0.2,0.9c-0.5,2.4-0.8,4.8-0.7,7.2c0,2.4,0.2,4.9,0.7,7.2
			c0.1,0.3,0,0.6-0.2,0.9c-0.2,0.3-0.4,0.4-0.7,0.4L539.8,5850.5z M558.9,5840.7c-0.3,0-0.6-0.1-0.8-0.4c-0.2-0.2-0.4-0.5-0.4-0.8
			v-3.4c0-0.3,0.1-0.6,0.4-0.8c0.2-0.2,0.5-0.4,0.8-0.4h2c0,0,0.1,0,0.1-0.1c0,0,0-0.1,0-0.1c-0.3-0.5-0.5-0.8-0.5-0.8
			c-0.2-0.2-0.2-0.5-0.1-0.8c0.1-0.3,0.3-0.4,0.6-0.5l0.1,0c0.3-0.1,0.7,0,1,0.1c0.3,0.1,0.6,0.4,0.8,0.7c0.2,0.4,0.5,0.8,0.8,1.4
			c0,0.1,0.2,0.2,0.3,0.2h1.4c0.1,0,0.2-0.1,0.2-0.1c0,0,0,0,0,0v-1.5c0-0.3,0.1-0.6,0.3-0.8c0.2-0.2,0.5-0.4,0.8-0.4h0.5
			c0.3,0,0.6,0.1,0.8,0.4c0.2,0.2,0.3,0.5,0.3,0.8v1.5c0,0.1,0.1,0.2,0.1,0.2c0,0,0,0,0,0h1.5c0.1,0,0.2-0.1,0.3-0.1
			c0.4-0.6,0.6-1.1,0.8-1.4c0.1-0.3,0.4-0.5,0.7-0.7c0.3-0.1,0.6-0.2,1-0.1l0.1,0c0.3,0.1,0.5,0.3,0.7,0.5c0.1,0.3,0.1,0.6,0,0.8
			c-0.3,0.5-0.4,0.8-0.5,0.8c0,0,0,0.1,0,0.1c0,0,0.1,0.1,0.1,0.1h1.9c0.3,0,0.6,0.1,0.8,0.4c0.2,0.2,0.4,0.5,0.4,0.8v3.4
			c0,0.3-0.1,0.6-0.4,0.8c-0.2,0.2-0.5,0.4-0.8,0.4h-0.4c-0.5,0-0.9-0.3-1.1-0.7l0,0c0,0,0,0,0,0v2.8c0,0.3-0.1,0.6-0.3,0.8
			c-0.2,0.2-0.5,0.4-0.8,0.4h-3.8c-0.1,0-0.2,0.1-0.2,0.1c0,0,0,0,0,0v0.9c0,0.1,0.1,0.2,0.1,0.2c0,0,0,0,0,0h5.1
			c0.3,0,0.5,0.1,0.7,0.3c0.2,0.2,0.3,0.5,0.3,0.7c0,0.3-0.1,0.6-0.3,0.8c-0.2,0.2-0.5,0.3-0.7,0.3h-5.1c-0.1,0-0.2,0.1-0.2,0.2v1
			c0,0.1,0.1,0.2,0.2,0.2h6.5c0.3,0,0.6,0.1,0.8,0.3c0.2,0.2,0.3,0.5,0.3,0.8c0,0.3-0.1,0.6-0.3,0.8c-0.2,0.2-0.5,0.3-0.8,0.3h-16.2
			c-0.3,0-0.6-0.1-0.8-0.3c-0.2-0.2-0.3-0.5-0.3-0.8c0-0.3,0.1-0.6,0.3-0.8c0.2-0.2,0.5-0.3,0.8-0.3h6.5c0.1,0,0.2-0.1,0.2-0.2v-1.1
			c0-0.1-0.1-0.2-0.2-0.2h-5.1c-0.3,0-0.6-0.1-0.7-0.3c-0.2-0.2-0.3-0.5-0.3-0.8c0-0.3,0.1-0.5,0.3-0.7c0.2-0.2,0.5-0.3,0.7-0.3h5.1
			c0.1,0,0.2-0.1,0.2-0.1c0,0,0,0,0,0v-0.9c0-0.1-0.1-0.2-0.1-0.2c0,0,0,0,0,0h-3.8c-0.3,0-0.6-0.1-0.8-0.4
			c-0.2-0.2-0.3-0.5-0.3-0.8v-2.8c0,0,0,0-0.1,0c-0.2,0.5-0.6,0.7-1.1,0.7H558.9z M570.8,5841.8v-1.7c0-0.1-0.1-0.2-0.2-0.2h-7.2
			c-0.1,0-0.2,0-0.2,0.1c0,0,0,0,0,0v1.7c0,0.1,0.1,0.2,0.2,0.2h7.2C570.7,5842,570.8,5841.9,570.8,5841.8
			C570.8,5841.8,570.8,5841.8,570.8,5841.8z M560.6,5837.1c-0.1,0-0.2,0.1-0.2,0.2v1.3c0,0,0,0,0,0c0,0,0,0,0,0
			c0.2-0.5,0.6-0.7,1.1-0.7h10.8c0.5,0,0.9,0.3,1.1,0.7c0,0,0,0,0,0c0,0,0,0,0,0v-1.3c0-0.1-0.1-0.2-0.2-0.2H560.6z M580.4,5837
			c-0.3,0-0.6-0.1-0.8-0.3c-0.2-0.2-0.3-0.5-0.3-0.8c0-0.3,0.1-0.6,0.3-0.8c0.2-0.2,0.5-0.3,0.8-0.3h3.2c0.1,0,0.2-0.1,0.2-0.2
			l0.4-1c0.1-0.3,0.3-0.6,0.6-0.7c0.3-0.2,0.6-0.2,0.9-0.2l0.4,0.1c0.3,0.1,0.5,0.2,0.7,0.5c0.2,0.2,0.2,0.6,0.1,0.8
			c0,0.1-0.1,0.2-0.1,0.3c0,0.1-0.1,0.2-0.1,0.2c0,0.1,0,0.2,0.1,0.2h7.4c0.3,0,0.6,0.1,0.8,0.3c0.2,0.2,0.3,0.5,0.3,0.8
			c0,0.3-0.1,0.6-0.3,0.8c-0.2,0.2-0.5,0.3-0.8,0.3h-8.4c-0.1,0-0.2,0.1-0.3,0.2c-0.2,0.5-0.4,1-0.7,1.6c0,0,0,0,0,0h0
			c0.7-0.3,1.4-0.4,2.1-0.4c1.6-0.1,3.1,0.8,3.7,2.4c0,0.1,0.2,0.2,0.3,0.1c0,0,0,0,0,0c1.1-0.2,2.2-0.4,3.1-0.5
			c0.3,0,0.6,0,0.8,0.2c0.2,0.2,0.4,0.5,0.4,0.8c0,0.3-0.1,0.6-0.3,0.9c-0.2,0.2-0.5,0.4-0.8,0.4c-1.2,0.2-2.2,0.3-2.8,0.5
			c-0.1,0-0.2,0.1-0.1,0.2c0.1,0.7,0.1,1.4,0.1,1.9c0,0.3-0.1,0.6-0.3,0.8c-0.2,0.2-0.5,0.4-0.8,0.4H590c-0.3,0-0.6-0.1-0.8-0.4
			c-0.2-0.2-0.4-0.5-0.4-0.8c0-0.4,0-0.8-0.1-1.2c0-0.1-0.1-0.2-0.2-0.1c-2.3,0.8-3.4,1.6-3.4,2.5c0,0.3,0.1,0.7,0.3,1
			c0.4,0.3,0.9,0.5,1.4,0.6c1,0.2,2,0.3,2.9,0.3c1.4,0,2.7-0.1,4.1-0.3c0.3,0,0.6,0,0.9,0.2c0.3,0.2,0.4,0.5,0.4,0.8
			c0,0.3-0.1,0.6-0.3,0.9c-0.2,0.3-0.5,0.4-0.8,0.5c-1.4,0.2-2.9,0.3-4.3,0.3c-1.9,0.1-3.9-0.2-5.7-0.9c-1.1-0.5-1.8-1.7-1.7-2.9
			c0-2.2,1.9-3.9,5.7-5.1c0.1,0,0.2-0.1,0.1-0.2c-0.3-0.6-1-0.9-1.7-0.9c-1.3,0-2.8,1.1-4.6,3.3c-0.2,0.3-0.5,0.4-0.8,0.5
			c-0.3,0.1-0.6,0-0.9-0.2l-0.2-0.1c-0.3-0.2-0.4-0.4-0.5-0.7c-0.1-0.3,0-0.6,0.2-0.9c1.2-1.7,2.2-3.5,3.1-5.3c0,0,0-0.1,0-0.1
			c0,0-0.1-0.1-0.1-0.1L580.4,5837z M612.2,5838.8c0.3-0.2,0.6-0.2,0.9-0.1c0.3,0.1,0.6,0.3,0.7,0.6c0.2,0.3,0.4,0.7,0.7,1.3
			c0.1,0.3,0.2,0.6,0,0.9c-0.1,0.3-0.3,0.5-0.6,0.7c-0.3,0.1-0.6,0.2-0.9,0c-0.3-0.1-0.5-0.3-0.7-0.6c-0.1-0.1-0.3-0.5-0.7-1.2
			c-0.2-0.3-0.2-0.6-0.1-0.9C611.7,5839.2,611.9,5839,612.2,5838.8L612.2,5838.8z M615.7,5841c-0.1-0.1-0.2-0.4-0.3-0.7
			c-0.2-0.3-0.3-0.5-0.4-0.7c-0.2-0.3-0.2-0.6-0.1-0.9c0.1-0.3,0.3-0.6,0.6-0.7l0.1,0c0.3-0.2,0.6-0.2,0.9-0.1
			c0.3,0.1,0.6,0.3,0.7,0.6c0.5,0.9,0.7,1.3,0.7,1.4c0.2,0.3,0.2,0.6,0.1,0.9c-0.1,0.3-0.3,0.5-0.6,0.7l-0.1,0
			c-0.3,0.1-0.6,0.2-0.9,0.1C616.1,5841.5,615.8,5841.3,615.7,5841z M615.1,5835.1c0,0.3-0.1,0.6-0.4,0.8c-0.2,0.2-0.5,0.4-0.8,0.4
			h-10c-0.3,0-0.6-0.1-0.8-0.4c-0.2-0.2-0.4-0.5-0.4-0.8v-0.1c0-0.3,0.1-0.6,0.4-0.8c0.2-0.2,0.5-0.4,0.8-0.4h10
			c0.3,0,0.6,0.1,0.8,0.4C615,5834.4,615.1,5834.7,615.1,5835.1L615.1,5835.1z M608.9,5850.5c-2,0.1-4.1-0.3-5.9-1.3
			c-1.3-0.6-2.1-1.9-2.1-3.4c0-1.3,0.8-2.8,2.4-4.5c0.2-0.2,0.5-0.4,0.9-0.4c0.3,0,0.7,0.1,0.9,0.3l0.1,0.1c0.2,0.2,0.4,0.5,0.4,0.8
			c0,0.3-0.1,0.6-0.3,0.8c-1.1,1.1-1.6,2-1.6,2.7c0.1,0.8,0.6,1.5,1.3,1.7c1.2,0.5,2.5,0.7,3.8,0.7c2,0,3.9-0.3,5.8-0.7
			c0.3-0.1,0.6,0,0.9,0.2c0.3,0.2,0.4,0.4,0.5,0.7l0,0.2c0.1,0.3,0,0.6-0.2,0.9c-0.2,0.3-0.4,0.5-0.7,0.5
			C613.1,5850.2,611,5850.5,608.9,5850.5z M620.6,5847.7c-0.4-0.6-0.4-1.4,0.1-1.9c1.1-1.5,2-3.2,2.6-5c0-0.1,0-0.2-0.1-0.2h-1.6
			c-0.3,0-0.6-0.1-0.8-0.3c-0.2-0.2-0.3-0.5-0.3-0.8c0-0.3,0.1-0.6,0.3-0.8c0.2-0.2,0.5-0.3,0.8-0.3h2.3c0.1,0,0.2-0.1,0.2-0.2v-2.4
			c0-0.1-0.1-0.2-0.2-0.2c-0.4,0-1,0.1-1.9,0.1c-0.3,0-0.6-0.1-0.8-0.3c-0.2-0.2-0.4-0.5-0.4-0.8c0-0.3,0.1-0.6,0.2-0.8
			c0.2-0.2,0.4-0.4,0.7-0.4c2.3-0.2,4.6-0.5,6.8-0.9c0.3-0.1,0.6,0,0.9,0.1c0.3,0.1,0.5,0.4,0.6,0.7c0.1,0.3,0.1,0.6-0.1,0.8
			c-0.1,0.3-0.4,0.4-0.7,0.5c-0.8,0.2-1.6,0.3-2.4,0.4c-0.1,0-0.2,0.1-0.2,0.2v2.7c0,0.1,0.1,0.2,0.1,0.2c0,0,0,0,0,0h2.4
			c0.3,0,0.6,0.1,0.8,0.3c0.2,0.2,0.3,0.5,0.3,0.8c0,0.3-0.1,0.6-0.3,0.8c-0.2,0.2-0.5,0.4-0.8,0.3h-1.7c0,0-0.1,0-0.1,0.1
			c0,0,0,0.1,0,0.1c1.6,2.4,2.4,3.7,2.5,3.9c0.2,0.3,0.2,0.6,0.2,0.9c0,0.3-0.2,0.6-0.5,0.8l0,0c-0.2,0.2-0.5,0.3-0.8,0.2
			c-0.3-0.1-0.5-0.2-0.7-0.5l-1.5-2.9c0,0,0,0-0.1,0c0,0,0,0,0,0v7c0,0.3-0.1,0.6-0.3,0.8c-0.2,0.2-0.5,0.4-0.8,0.3h-0.2
			c-0.3,0-0.6-0.1-0.8-0.3c-0.2-0.2-0.4-0.5-0.4-0.8v-5.8c0,0,0,0-0.1,0c-0.5,1.3-1.1,2.5-1.8,3.6c-0.1,0.2-0.4,0.4-0.7,0.3
			c-0.3,0-0.5-0.2-0.7-0.4L620.6,5847.7z M632.6,5846.8c-0.3,0-0.6-0.1-0.8-0.3c-0.2-0.2-0.3-0.5-0.3-0.8v-10.9
			c0-0.3,0.1-0.6,0.3-0.8c0.2-0.2,0.5-0.4,0.8-0.4h0.2c0.3,0,0.6,0.1,0.8,0.4c0.2,0.2,0.3,0.5,0.3,0.8v10.9c0,0.3-0.1,0.6-0.3,0.8
			c-0.2,0.2-0.5,0.4-0.8,0.3H632.6z M637.9,5832.7c0.3,0,0.6,0.1,0.8,0.4c0.2,0.2,0.3,0.5,0.3,0.8v14c0,0.5,0,1.1-0.1,1.6
			c0,0.3-0.1,0.7-0.2,1c-0.1,0.3-0.3,0.5-0.5,0.6c-0.3,0.1-0.6,0.2-0.8,0.2c-0.4,0.1-0.9,0.1-1.3,0.1c-0.3,0-0.9,0-1.9-0.1
			c-0.3,0-0.6-0.1-0.9-0.4c-0.2-0.2-0.4-0.5-0.4-0.9v-0.1c0-0.3,0.1-0.6,0.3-0.8c0.2-0.2,0.5-0.3,0.8-0.3c0.5,0,1,0,1.4,0
			c0.4,0,0.6,0,0.7-0.1c0.1-0.3,0.2-0.6,0.1-0.9v-14c0-0.3,0.1-0.6,0.4-0.8c0.2-0.2,0.5-0.4,0.8-0.4L637.9,5832.7z M641.9,5850.5
			c-0.3-0.2-0.4-0.5-0.5-0.8c-0.1-0.3,0-0.7,0.2-0.9c0.6-1,0.9-2.1,1.1-3.3c0.2-1.6,0.4-3.3,0.3-4.9v-6.6c0-0.3,0.1-0.6,0.3-0.8
			c0.2-0.2,0.5-0.4,0.8-0.4h14.4c0.3,0,0.6,0.1,0.8,0.4c0.2,0.2,0.3,0.5,0.3,0.8v14.1c0,0.6,0,1.3-0.1,1.9c0,0.4-0.2,0.7-0.5,1
			c-0.2,0.3-0.6,0.4-0.9,0.5c-0.6,0.1-1.2,0.1-1.8,0.1c-0.6,0-1.1,0-1.6,0c-0.3,0-0.6-0.1-0.8-0.4c-0.2-0.2-0.4-0.5-0.4-0.8
			c0-0.3,0.1-0.6,0.3-0.8c0.2-0.2,0.5-0.3,0.8-0.3l1.2,0c0.3,0,0.6,0,0.8-0.1c0.1-0.3,0.2-0.5,0.1-0.8v-2.7c0-0.1-0.1-0.2-0.2-0.2
			h-4.2c-0.1,0-0.2,0.1-0.2,0.1c0,0,0,0,0,0v4.3c0,0.3-0.1,0.6-0.4,0.8c-0.2,0.2-0.5,0.4-0.8,0.4H651c-0.3,0-0.6-0.1-0.8-0.4
			c-0.2-0.2-0.4-0.5-0.4-0.8v-4.3c0-0.1-0.1-0.2-0.2-0.2h-3.8c-0.1,0-0.2,0.1-0.2,0.2c-0.2,1.8-0.8,3.6-1.7,5.2
			c-0.2,0.3-0.4,0.4-0.7,0.5c-0.3,0.1-0.6,0-0.9-0.2L641.9,5850.5z M652.5,5835.2v2.5c0,0.1,0.1,0.2,0.2,0.2h4.2
			c0.1,0,0.2,0,0.2-0.1c0,0,0,0,0,0v-2.5c0-0.1,0-0.2-0.1-0.2c0,0,0,0,0,0h-4.2C652.5,5835.1,652.5,5835.1,652.5,5835.2z
			 M652.5,5840.2v2.7c0,0.1,0.1,0.2,0.1,0.2c0,0,0,0,0,0h4.2c0.1,0,0.2-0.1,0.2-0.2v-2.7c0-0.1-0.1-0.2-0.2-0.2h-4.2
			C652.6,5840,652.5,5840.1,652.5,5840.2C652.5,5840.2,652.5,5840.2,652.5,5840.2z M645.8,5835.2v2.5c0,0.1,0,0.2,0.1,0.2
			c0,0,0,0,0,0h3.7c0.1,0,0.2,0,0.2-0.1c0,0,0,0,0,0v-2.5c0-0.1,0-0.2-0.1-0.2c0,0,0,0,0,0H646
			C645.9,5835,645.8,5835.1,645.8,5835.2C645.8,5835.2,645.8,5835.2,645.8,5835.2z M645.8,5841.7c0,0.6,0,1,0,1.2
			c0,0.1,0,0.2,0.1,0.2c0,0,0,0,0,0h3.7c0.1,0,0.2-0.1,0.2-0.2v-2.7c0-0.1-0.1-0.2-0.2-0.2H646c-0.1,0-0.2,0.1-0.2,0.2V5841.7z
			 M676,5839.7c0.3-0.2,0.6-0.2,0.9-0.1c0.3,0.1,0.6,0.3,0.7,0.6c0.2,0.3,0.4,0.7,0.7,1.3c0.1,0.3,0.2,0.6,0,0.9
			c-0.1,0.3-0.3,0.5-0.6,0.7c-0.3,0.1-0.6,0.2-0.9,0c-0.3-0.1-0.5-0.3-0.7-0.6c-0.1-0.1-0.3-0.5-0.7-1.2c-0.2-0.3-0.2-0.6-0.1-0.9
			C675.5,5840,675.7,5839.8,676,5839.7L676,5839.7z M681,5839.4c0.5,0.9,0.7,1.3,0.7,1.4c0.2,0.3,0.2,0.6,0.1,0.9
			c-0.1,0.3-0.3,0.5-0.6,0.7l-0.1,0c-0.3,0.1-0.6,0.2-0.9,0.1c-0.3-0.1-0.6-0.3-0.7-0.6c-0.1-0.1-0.2-0.4-0.3-0.7
			c-0.2-0.3-0.3-0.5-0.4-0.7c-0.2-0.3-0.2-0.6-0.1-0.9c0.1-0.3,0.3-0.6,0.6-0.7l0.1,0c0.3-0.2,0.6-0.2,0.9-0.1
			C680.6,5838.9,680.9,5839.1,681,5839.4L681,5839.4z M664.1,5837.1c-0.3,0-0.6-0.1-0.8-0.3c-0.2-0.2-0.4-0.5-0.3-0.8v-0.1
			c0-0.3,0.1-0.6,0.4-0.8c0.2-0.2,0.5-0.4,0.8-0.4c4.8,0,9.7-0.1,14.8-0.4c0.3,0,0.6,0.1,0.9,0.3c0.2,0.2,0.4,0.5,0.4,0.8v0.1
			c0,0.3-0.1,0.6-0.3,0.9c-0.2,0.2-0.5,0.4-0.8,0.4c-2.4,0.2-4.7,1-6.7,2.3c-1.4,1-2.2,2.6-2.2,4.3c-0.1,1.3,0.4,2.6,1.4,3.5
			c1.1,0.9,2.4,1.3,3.8,1.3c0.5,0,0.9,0,1.4-0.1c0.3,0,0.6,0.1,0.9,0.3c0.3,0.2,0.4,0.5,0.5,0.8l0,0.2c0,0.3,0,0.6-0.2,0.9
			c-0.2,0.3-0.5,0.4-0.8,0.5c-0.6,0.1-1.2,0.1-1.9,0.1c-2.1,0.1-4.2-0.6-5.9-1.9c-1.5-1.3-2.3-3.2-2.2-5.2c0-1.4,0.4-2.7,1.2-3.8
			c0.9-1.2,2-2.2,3.4-2.9c0,0,0,0,0,0h0C669.6,5837,667,5837.1,664.1,5837.1L664.1,5837.1z"/>
		<path class="st2" d="M495.8,5865.6c-0.3,0-0.6-0.1-0.8-0.3c-0.2-0.2-0.4-0.5-0.4-0.8v-0.1c0-0.3,0.1-0.6,0.4-0.8
			c0.2-0.2,0.5-0.4,0.8-0.4h8.9c0.3,0,0.6,0.1,0.8,0.4c0.2,0.2,0.4,0.5,0.4,0.8v0.1c0,0.3-0.1,0.6-0.4,0.8c-0.2,0.2-0.5,0.3-0.8,0.3
			H502c-0.1,0-0.2,0.1-0.2,0.2v11.5c0,0.3-0.1,0.6-0.4,0.8c-0.2,0.2-0.5,0.4-0.8,0.4H500c-0.3,0-0.6-0.1-0.8-0.4
			c-0.2-0.2-0.4-0.5-0.4-0.8v-11.5c0-0.1-0.1-0.2-0.2-0.2L495.8,5865.6z M509.1,5877.1c-0.3-0.1-0.5-0.4-0.6-0.7
			c-0.1-0.3-0.1-0.6,0-0.9c0.8-1.7,1.6-3.4,2.3-5.2c0.1-0.3,0.4-0.5,0.7-0.7c0.3-0.1,0.6-0.2,0.9-0.1l0.3,0.1
			c0.3,0.1,0.5,0.3,0.7,0.6c0.1,0.3,0.1,0.6,0,0.9c-0.7,1.6-1.5,3.4-2.4,5.4c-0.1,0.3-0.4,0.5-0.7,0.6c-0.3,0.1-0.6,0.1-0.9,0
			L509.1,5877.1z M525.3,5877.3c-0.3,0.1-0.6,0.1-0.9,0c-0.3-0.1-0.5-0.4-0.6-0.7c-0.5-1.2-1.3-3.1-2.4-5.5c-0.1-0.3-0.1-0.6,0-0.9
			c0.1-0.3,0.3-0.5,0.6-0.6l0.3-0.1c0.3-0.1,0.6-0.1,0.9,0c0.3,0.1,0.6,0.3,0.7,0.6c0.8,1.7,1.6,3.5,2.4,5.5c0.1,0.3,0.1,0.6,0,0.9
			c-0.1,0.3-0.4,0.5-0.7,0.6L525.3,5877.3z M523.8,5864.8c0.3,0.3,0.6,0.4,1,0.4c0.4,0,0.7-0.1,1-0.4c0.3-0.3,0.4-0.6,0.4-1
			c0-0.4-0.1-0.7-0.4-1c-0.3-0.3-0.6-0.4-1-0.4c-0.4,0-0.7,0.1-1,0.4c-0.3,0.3-0.4,0.6-0.4,1
			C523.4,5864.2,523.5,5864.5,523.8,5864.8z M522.5,5861.6c0.6-0.6,1.4-0.9,2.2-0.9c0.8,0,1.6,0.3,2.2,0.9c0.6,0.6,0.9,1.4,0.9,2.2
			c0,0.6-0.2,1.2-0.5,1.6c-0.3,0.5-0.7,0.9-1.2,1.1c-0.1,0-0.2,0.1-0.1,0.3c0,0.2-0.1,0.4-0.2,0.5c-0.1,0.1-0.3,0.2-0.5,0.2h-6.1
			c-0.1,0-0.2,0.1-0.2,0.2v8.8c0.1,0.9-0.1,1.8-0.5,2.6c-0.8,0.5-1.7,0.6-2.6,0.5c-0.6,0-1.3,0-2.2-0.1c-0.3,0-0.6-0.2-0.8-0.4
			c-0.2-0.2-0.3-0.6-0.3-0.9v-0.1c0-0.3,0.2-0.6,0.4-0.8c0.2-0.2,0.6-0.3,0.9-0.3c0.7,0.1,1.1,0.1,1.3,0.1c0.4,0,0.6,0,0.7-0.1
			c0.1-0.3,0.1-0.6,0.1-0.9v-8.4c0-0.1-0.1-0.2-0.1-0.2c0,0,0,0,0,0h-6.1c-0.3,0-0.6-0.1-0.8-0.4c-0.2-0.2-0.3-0.5-0.3-0.8v-0.1
			c0-0.3,0.1-0.6,0.3-0.8c0.2-0.2,0.5-0.4,0.8-0.4h6.1c0.1,0,0.2-0.1,0.2-0.1c0,0,0,0,0,0v-1.8c0-0.3,0.1-0.6,0.3-0.8
			c0.2-0.2,0.5-0.4,0.8-0.3h0.5c0.3,0,0.6,0.1,0.8,0.3c0.2,0.2,0.4,0.5,0.4,0.8v1.8c0,0.1,0.1,0.2,0.2,0.2h2.4c0.1,0,0.2,0,0.1-0.1
			c-0.1-0.4-0.2-0.7-0.2-1.1C521.6,5863,521.9,5862.2,522.5,5861.6z M530.2,5871.5l0-0.2c-0.1-0.3,0-0.6,0.2-0.9
			c0.2-0.3,0.5-0.4,0.8-0.5c2.6-0.5,5.1-1.3,7.4-2.4c2.3-1,4.4-2.4,6.2-4c0.2-0.2,0.5-0.3,0.8-0.3c0.3,0,0.6,0.1,0.8,0.4l0.2,0.2
			c0.2,0.2,0.3,0.6,0.3,0.9c0,0.3-0.2,0.6-0.4,0.8c-1.6,1.4-3.2,2.5-5.1,3.5c-0.1,0-0.2,0.1-0.1,0.3c0,0,0,0,0,0.1c0,0,0,0,0,0.1v9
			c0,0.3-0.1,0.6-0.4,0.8c-0.2,0.2-0.5,0.4-0.8,0.4h-0.6c-0.3,0-0.6-0.1-0.8-0.4c-0.2-0.2-0.4-0.5-0.4-0.8v-7.7c0-0.1,0-0.1-0.1-0.1
			c-2.1,0.9-4.3,1.5-6.6,2c-0.3,0.1-0.6,0-0.9-0.2C530.4,5872.1,530.2,5871.8,530.2,5871.5z M552.9,5865.8c-0.3-0.1-0.5-0.4-0.6-0.7
			c-0.1-0.3-0.1-0.6,0.1-0.9l0.2-0.4c0.1-0.3,0.4-0.5,0.7-0.6c0.3-0.1,0.6-0.1,0.9,0.1c1.4,0.7,2.8,1.4,4.4,2.3
			c0.3,0.1,0.5,0.4,0.6,0.7c0.1,0.3,0.1,0.6-0.1,0.9l-0.2,0.4c-0.1,0.3-0.4,0.5-0.7,0.6c-0.3,0.1-0.6,0.1-0.9-0.1
			C555.6,5867.1,554.1,5866.4,552.9,5865.8L552.9,5865.8z M567.5,5865.1c0.3,0.1,0.6,0.3,0.8,0.5c0.2,0.3,0.2,0.6,0.2,0.9
			c-0.6,3.3-2.3,6.2-4.8,8.4c-2.8,2.2-6.2,3.5-9.7,3.8c-0.3,0-0.6,0-0.9-0.2c-0.3-0.2-0.4-0.5-0.5-0.8l0-0.4c-0.1-0.3,0-0.6,0.2-0.9
			c0.2-0.3,0.5-0.4,0.8-0.5c2.9-0.3,5.8-1.4,8.1-3.1c2.1-1.8,3.5-4.3,4.1-7c0.1-0.3,0.3-0.6,0.5-0.8c0.3-0.2,0.6-0.2,0.9-0.2
			L567.5,5865.1z M576.1,5879.6c-0.3,0-0.6-0.1-0.8-0.3c-0.2-0.2-0.4-0.5-0.3-0.8v-15c0-0.3,0.1-0.6,0.3-0.8
			c0.2-0.2,0.5-0.3,0.8-0.3h0.6c0.3,0,0.6,0.1,0.8,0.3c0.2,0.2,0.4,0.5,0.4,0.8v4.5c0,0.1,0,0.2,0.1,0.2c3.4,0.8,6.8,1.9,10.2,3
			c0.3,0.1,0.5,0.3,0.7,0.6c0.1,0.3,0.2,0.6,0.1,0.9l-0.1,0.4c-0.1,0.3-0.3,0.5-0.6,0.7c-0.3,0.1-0.6,0.2-0.9,0.1
			c-3.3-1.2-6.4-2.1-9.3-2.8c0,0-0.1,0-0.1,0c0,0,0,0.1,0,0.1v7.2c0,0.3-0.1,0.6-0.4,0.8c-0.2,0.2-0.5,0.3-0.8,0.3H576.1z
			 M604.9,5864.6c-0.2-0.3-0.2-0.6-0.1-0.9c0.1-0.3,0.3-0.6,0.6-0.7h0c0.3-0.2,0.6-0.2,0.9-0.1c0.3,0.1,0.6,0.3,0.7,0.6
			c0.2,0.3,0.4,0.7,0.7,1.3c0.1,0.3,0.2,0.6,0,0.9c-0.1,0.3-0.3,0.5-0.6,0.7c-0.3,0.1-0.6,0.2-0.9,0c-0.3-0.1-0.5-0.3-0.7-0.6
			C605.5,5865.7,605.3,5865.3,604.9,5864.6z M608.8,5862.2c0.3-0.2,0.6-0.2,0.9-0.1c0.3,0.1,0.6,0.3,0.7,0.6
			c0.5,0.9,0.7,1.3,0.7,1.4c0.2,0.3,0.2,0.6,0.1,0.9c-0.1,0.3-0.3,0.5-0.6,0.7l-0.1,0c-0.3,0.1-0.6,0.2-0.9,0.1
			c-0.3-0.1-0.6-0.3-0.7-0.6c-0.1-0.1-0.2-0.4-0.3-0.7c-0.2-0.3-0.3-0.5-0.4-0.7c-0.2-0.3-0.2-0.6-0.1-0.9
			C608.2,5862.7,608.4,5862.4,608.8,5862.2L608.8,5862.2z M593.9,5867.9c-0.3,0-0.6-0.1-0.8-0.3c-0.2-0.2-0.4-0.5-0.3-0.8
			c0-0.3,0.1-0.6,0.3-0.8c0.2-0.2,0.5-0.4,0.8-0.4h2.3c0.1,0,0.2-0.1,0.2-0.2c0.2-0.9,0.4-1.9,0.6-2.9c0.1-0.3,0.2-0.6,0.5-0.8
			c0.3-0.2,0.6-0.3,0.9-0.3l0.1,0c0.3,0,0.6,0.2,0.8,0.4c0.2,0.2,0.3,0.6,0.2,0.9c-0.2,1.1-0.3,1.9-0.5,2.6c0,0.1,0,0.2,0.1,0.2h2.9
			c0.4,0,0.8,0,1.2,0.1c0.3,0.1,0.6,0.1,0.9,0.2c0.2,0.1,0.4,0.3,0.6,0.5c0.2,0.2,0.3,0.5,0.4,0.7c0,0.2,0.1,0.6,0.2,1.1
			c0.1,0.5,0.1,1,0.1,1.5v2c0.1,2-0.2,4.1-1,5.9c-0.4,1.1-1.5,1.9-2.6,1.9c-1.1,0-2.2-0.3-3.3-0.6c-0.3-0.1-0.6-0.3-0.7-0.6
			c-0.1-0.3-0.2-0.6-0.1-0.9l0-0.1c0.1-0.3,0.3-0.5,0.6-0.7c0.3-0.1,0.6-0.2,0.9-0.1c0.6,0.2,1.3,0.4,2,0.4c0.2,0,0.3-0.1,0.4-0.2
			c0.2-0.2,0.3-0.4,0.4-0.6c0.1-0.3,0.3-0.7,0.3-1.1c0.1-0.5,0.2-1.1,0.2-1.6c0.1-0.7,0.1-1.4,0.1-2.2v-1.4c0-0.3,0-0.6-0.1-0.9
			c0-0.2-0.1-0.4-0.1-0.6c-0.1-0.1-0.2-0.2-0.3-0.3c-0.2-0.1-0.3-0.1-0.5-0.1h-2.8c-0.1,0-0.2,0.1-0.2,0.2c-0.9,3.6-2,7.1-3.3,10.5
			c-0.1,0.3-0.3,0.6-0.6,0.7c-0.3,0.1-0.6,0.1-0.9,0l-0.2,0c-0.3-0.1-0.5-0.3-0.7-0.6c-0.1-0.3-0.1-0.6,0-0.9c1.2-3.2,2.2-6.4,3-9.7
			c0-0.1,0-0.2-0.1-0.2L593.9,5867.9z M609.3,5868.3c0.8,2.1,1.5,3.9,2,5.6c0.1,0.3,0.1,0.6-0.1,0.9c-0.1,0.3-0.4,0.5-0.7,0.5
			l-0.3,0.1c-0.3,0.1-0.6,0-0.9-0.1c-0.3-0.2-0.5-0.4-0.6-0.7c-0.6-1.8-1.2-3.6-1.9-5.3c-0.1-0.3-0.1-0.6,0-0.9
			c0.1-0.3,0.4-0.5,0.7-0.6l0.3-0.1c0.3-0.1,0.6-0.1,0.9,0C608.9,5867.7,609.1,5868,609.3,5868.3L609.3,5868.3z M623.4,5870.7
			c-0.3,0-0.6-0.1-0.8-0.3c-0.2-0.2-0.4-0.5-0.4-0.8c0-0.3,0.1-0.6,0.3-0.9c0.2-0.3,0.5-0.4,0.8-0.4c2.2-0.2,4.3-0.3,6.3-0.4
			c0.3,0,0.6,0.1,0.8,0.3c0.2,0.2,0.3,0.5,0.3,0.8c0,0.3-0.1,0.6-0.3,0.8c-0.2,0.2-0.5,0.4-0.8,0.3
			C627.4,5870.4,625.3,5870.5,623.4,5870.7L623.4,5870.7z M629.7,5876.7c0.3,0,0.6,0,0.9,0.2c0.3,0.2,0.4,0.5,0.5,0.8
			c0,0.3,0,0.6-0.2,0.9c-0.2,0.3-0.5,0.4-0.8,0.5c-1.1,0.1-2.2,0.2-3.3,0.2c-1.6,0.1-3.2-0.3-4.6-1.1c-1-0.5-1.7-1.6-1.7-2.7
			c0.1-1,0.5-1.9,1.2-2.5c0.2-0.2,0.5-0.4,0.9-0.4c0.3,0,0.7,0.1,0.9,0.2c0.2,0.1,0.4,0.4,0.4,0.7c0,0.3-0.1,0.5-0.3,0.7
			c-0.3,0.2-0.5,0.6-0.5,1c0,0.5,0.3,0.9,1,1.2c0.9,0.4,1.8,0.5,2.7,0.5C627.8,5877,628.8,5876.9,629.7,5876.7L629.7,5876.7z
			 M614.7,5879.4c-0.3-0.1-0.6-0.3-0.7-0.5c-0.2-0.3-0.2-0.6-0.1-0.9c1.2-3.8,2.2-7.6,3.1-11.5c0-0.1,0-0.2-0.1-0.2h-1.5
			c-0.3,0-0.6-0.1-0.8-0.4c-0.2-0.2-0.4-0.5-0.4-0.8c0-0.3,0.1-0.6,0.4-0.8c0.2-0.2,0.5-0.3,0.8-0.3h2c0.1,0,0.2-0.1,0.2-0.2
			c0.1-0.5,0.2-0.9,0.2-1.2c0.1-0.3,0.2-0.6,0.5-0.8c0.3-0.2,0.6-0.3,0.9-0.3l0.3,0c0.3,0,0.6,0.2,0.8,0.4c0.2,0.2,0.3,0.6,0.2,0.9
			c0,0.1,0,0.3-0.1,0.5c0,0.2-0.1,0.4-0.1,0.5c0,0,0,0.1,0,0.1c0,0,0.1,0.1,0.1,0.1h6c0.3,0,0.6,0.1,0.8,0.3
			c0.2,0.2,0.4,0.5,0.4,0.8c0,0.3-0.1,0.6-0.4,0.8c-0.2,0.2-0.5,0.4-0.8,0.4H620c-0.1,0-0.2,0.1-0.2,0.2c-0.8,4.1-1.9,8.1-3.2,12.1
			c-0.1,0.3-0.3,0.6-0.6,0.7c-0.3,0.2-0.6,0.2-0.9,0.1L614.7,5879.4z M641.3,5877.4c0.7,0.1,1.3-0.1,1.9-0.5
			c0.4-0.5,0.6-1.1,0.5-1.8c0-0.1-0.1-0.2-0.2-0.2c-0.6-0.3-1.3-0.4-2-0.4c-0.6,0-1.2,0.1-1.8,0.3c-0.4,0.2-0.6,0.6-0.5,1
			c0,0.4,0.2,0.9,0.5,1.1C640.2,5877.3,640.8,5877.4,641.3,5877.4L641.3,5877.4z M636.6,5866.1c-0.3,0-0.6-0.1-0.8-0.4
			c-0.2-0.2-0.4-0.5-0.4-0.8c0-0.3,0.1-0.6,0.4-0.8c0.2-0.2,0.5-0.3,0.8-0.3h7c0.1,0,0.2-0.1,0.2-0.1c0,0,0,0,0,0v-0.6
			c0-0.3,0.1-0.6,0.3-0.8c0.2-0.2,0.5-0.4,0.8-0.4h0.3c0.3,0,0.6,0.1,0.8,0.4c0.2,0.2,0.3,0.5,0.3,0.8v0.7c0,0.1,0.1,0.2,0.1,0.2
			c0,0,0,0,0,0h4c0.3,0,0.6,0.1,0.8,0.3c0.2,0.2,0.4,0.5,0.4,0.8c0,0.3-0.1,0.6-0.4,0.8c-0.2,0.2-0.5,0.4-0.8,0.4h-4
			c-0.1,0-0.2,0.1-0.2,0.2v1.5c0,0.1,0.1,0.2,0.1,0.2c0,0,0,0,0,0h3.3c0.3,0,0.6,0.1,0.8,0.3c0.2,0.2,0.3,0.5,0.3,0.8
			c0,0.3-0.1,0.6-0.3,0.8c-0.2,0.2-0.5,0.4-0.8,0.3h-3.3c-0.1,0-0.2,0.1-0.2,0.1c0,0,0,0,0,0v3c0,0.1,0.1,0.2,0.1,0.3
			c1.4,0.8,2.7,1.8,3.9,2.9c0.2,0.2,0.4,0.5,0.4,0.8c0,0.3-0.1,0.6-0.3,0.9l-0.1,0.1c-0.2,0.2-0.5,0.4-0.8,0.4
			c-0.3,0-0.6-0.1-0.9-0.3c-0.9-0.8-1.7-1.4-2.4-1.9c-0.1-0.1-0.2,0-0.2,0.1c-0.1,1-0.7,1.9-1.5,2.4c-1.1,0.6-2.2,0.8-3.4,0.7
			c-1.3,0.1-2.5-0.3-3.5-1c-0.9-0.7-1.3-1.8-1.3-2.9c0-1,0.4-2,1.2-2.7c1-0.8,2.3-1.1,3.6-1c0.8,0,1.5,0.1,2.3,0.3
			c0.1,0,0.2,0,0.2-0.1v-1.9c0-0.1-0.1-0.2-0.1-0.2c0,0,0,0,0,0h-6.2c-0.3,0-0.6-0.1-0.8-0.3c-0.2-0.2-0.3-0.5-0.3-0.8
			c0-0.3,0.1-0.6,0.3-0.8c0.2-0.2,0.5-0.4,0.8-0.3h6.2c0.1,0,0.2-0.1,0.2-0.1c0,0,0,0,0,0v-1.4c0-0.1-0.1-0.2-0.1-0.2c0,0,0,0,0,0
			L636.6,5866.1z M665,5877.3c0.2-0.4,0.3-0.8,0.3-1.2c0-0.4-0.2-0.8-0.5-1c-0.6-0.3-1.2-0.4-1.8-0.3c-0.6,0-1.1,0.1-1.6,0.3
			c-0.3,0.2-0.5,0.5-0.6,0.9c0,1,1.2,1.5,3.6,1.5h0.4C664.9,5877.4,665,5877.4,665,5877.3z M658.1,5872.5c-0.3,0.1-0.6,0.1-0.8,0
			c-0.3-0.1-0.5-0.3-0.6-0.5c-0.1-0.3-0.2-0.6-0.1-0.9c0.1-0.3,0.3-0.5,0.5-0.7l8.9-5.4l0,0l0,0h-7.2c-0.3,0-0.6-0.1-0.8-0.3
			c-0.2-0.2-0.4-0.5-0.3-0.8c0-0.3,0.1-0.6,0.3-0.8c0.2-0.2,0.5-0.3,0.8-0.3h11c0.3,0,0.6,0.1,0.9,0.3c0.2,0.2,0.4,0.5,0.4,0.8
			c0,0.7-0.4,1.4-1,1.8l-5.9,3.3v0h0c0.8-0.2,1.7-0.3,2.5-0.3c1.6-0.1,3.2,0.3,4.5,1.2c1,0.9,1.6,2.2,1.5,3.5
			c0.1,1.8-0.7,3.5-2.2,4.6c-1.8,1.2-4,1.8-6.2,1.6c-1.6,0.1-3.2-0.2-4.7-1c-1-0.6-1.6-1.6-1.6-2.8c0-1,0.5-1.8,1.3-2.3
			c1.1-0.7,2.4-1,3.7-1c1.2-0.1,2.4,0.2,3.5,0.8c0.7,0.6,1.1,1.4,1.1,2.4c0,0.3,0,0.6-0.1,0.9c0,0,0,0.1,0,0.1c0,0,0.1,0,0.1,0
			c1.3-0.5,2.2-1.8,2.1-3.2c0.1-0.9-0.3-1.7-1-2.2c-1-0.6-2.1-0.8-3.2-0.7C663,5870.8,660.4,5871.4,658.1,5872.5z M685.5,5873.9
			c-0.3,0-0.6-0.1-0.9-0.3c-0.2-0.2-0.4-0.5-0.4-0.9l-0.3-8.3c0-0.3,0.1-0.6,0.3-0.8c0.2-0.2,0.5-0.4,0.8-0.4h1.1
			c0.3,0,0.6,0.1,0.8,0.4c0.2,0.2,0.3,0.5,0.3,0.8l-0.3,8.3c0,0.3-0.1,0.6-0.4,0.9c-0.2,0.2-0.5,0.4-0.9,0.3H685.5z M686,5875.6
			c0.3,0,0.6,0.1,0.8,0.4c0.2,0.2,0.3,0.5,0.3,0.8v0.5c0,0.3-0.1,0.6-0.3,0.8c-0.2,0.2-0.5,0.4-0.8,0.4h-0.7c-0.3,0-0.6-0.1-0.8-0.4
			c-0.2-0.2-0.3-0.5-0.3-0.8v-0.5c0-0.3,0.1-0.6,0.3-0.8c0.2-0.2,0.5-0.4,0.8-0.4L686,5875.6z"/>
		<path class="st1" d="M423.5,5818.5h58v72h-58V5818.5z"/>
		<g transform="translate(118.764 5615.79)">
			<g transform="translate(315.424 212.969)">
				<path class="st4" d="M-7.5,9.5h17v34.1h-17V9.5z"/>
				<path class="st5" d="M-7.5-7.5v17h17v34.1h17.1V9.5h17v-17H-7.5z"/>
				<path class="st4" d="M26.6,9.5h17v34.1h-17V9.5z"/>
			</g>
			<g transform="translate(315.424 269.749)">
				<path class="st6" d="M33.3-7.5v5.4c-0.6-0.8-3.7-5.4-3.7-5.4h-1.5v8h1.5v-5.4c0.6,0.8,3.7,5.4,3.7,5.4h1.5v-8H33.3z"/>
				<path class="st6" d="M12.2-5c0-1.2-0.8-2.5-3.1-2.5H6.6v8h1.5v-3h1.1C11.5-2.5,12.2-3.8,12.2-5z M8.1-6.2h1.1
					c1.3,0,1.5,0.8,1.5,1.2c0,0.8-0.6,1.2-1.5,1.2h-1L8.1-6.2z"/>
				<path class="st6" d="M23.3-7.5h1.6v8h-1.6V-7.5z"/>
				<path class="st6" d="M-0.3-3.3H4v1.4h-4.3V-3.3z"/>
				<path class="st6" d="M37.2-7.5v1.4h2.4v6.6h1.6v-6.6h2.4v-1.4H37.2z"/>
				<path class="st6" d="M-7.5-7.5v1.4h2.4v6.6h1.6v-6.6h2.4v-1.4H-7.5z"/>
				<path class="st6" d="M17.4,0.7c-2.4,0-3.6-1.7-3.6-4.1s1.2-4.2,3.6-4.2S21-5.7,21-3.4C21-1,19.8,0.7,17.4,0.7z M17.4-6.1
					c-1.5,0-2,1.4-2,2.7c0,1.4,0.5,2.8,2,2.8s2-1.4,2-2.8C19.4-4.7,18.9-6.1,17.4-6.1L17.4-6.1z"/>
			</g>
		</g>
	</g>
	<g transform="translate(-686 -5654)">
		<g>
			<defs>
				<rect id="SVGID_1_" x="718.2" y="5931.3" width="265.8" height="6.1"/>
			</defs>
			<clipPath id="SVGID_2_">
				<use xlink:href="#SVGID_1_"  style="overflow:visible;"/>
			</clipPath>
			<g transform="translate(725.698 5938.761)" class="st7">
				<g transform="translate(-15 -247.999)">
					<path class="st3" d="M22.9,241.4c-1.3,0-2.6,0.4-3.6,1.2c-2.4,1.8-5.7,1.8-8.1,0c-1-0.8-2.3-1.3-3.6-1.2c0,0,0-0.9,0-0.9
						c1.5,0,2.9,0.5,4,1.4c2.1,1.7,5.1,1.7,7.3,0c1.1-0.9,2.6-1.4,4-1.4L22.9,241.4z"/>
				</g>
				<g transform="translate(0 -247.999)">
					<path class="st3" d="M22.9,241.4c-1.3,0-2.6,0.4-3.6,1.2c-2.4,1.8-5.7,1.8-8.1,0c-1-0.8-2.3-1.3-3.6-1.2c0,0,0-0.9,0-0.9
						c1.5,0,2.9,0.5,4,1.4c2.1,1.7,5.1,1.7,7.3,0c1.1-0.9,2.6-1.4,4-1.4L22.9,241.4z"/>
				</g>
				<g transform="translate(15 -247.999)">
					<path class="st3" d="M22.9,241.4c-1.3,0-2.6,0.4-3.6,1.2c-2.4,1.8-5.7,1.8-8.1,0c-1-0.8-2.3-1.3-3.6-1.2c0,0,0-0.9,0-0.9
						c1.5,0,2.9,0.5,4,1.4c2.1,1.7,5.1,1.7,7.3,0c1.1-0.9,2.6-1.4,4-1.4L22.9,241.4z"/>
				</g>
				<g transform="translate(30 -247.999)">
					<path class="st3" d="M22.9,241.4c-1.3,0-2.6,0.4-3.6,1.2c-2.4,1.8-5.7,1.8-8.1,0c-1-0.8-2.3-1.3-3.6-1.2c0,0,0-0.9,0-0.9
						c1.5,0,2.9,0.5,4,1.4c2.1,1.7,5.1,1.7,7.3,0c1.1-0.9,2.6-1.4,4-1.4L22.9,241.4z"/>
				</g>
				<g transform="translate(45 -247.999)">
					<path class="st3" d="M22.9,241.4c-1.3,0-2.6,0.4-3.6,1.2c-2.4,1.8-5.7,1.8-8.1,0c-1-0.8-2.3-1.3-3.6-1.2c0,0,0-0.9,0-0.9
						c1.5,0,2.9,0.5,4,1.4c2.1,1.7,5.1,1.7,7.3,0c1.1-0.9,2.6-1.4,4-1.4L22.9,241.4z"/>
				</g>
				<g transform="translate(60 -247.999)">
					<path class="st3" d="M22.9,241.4c-1.3,0-2.6,0.4-3.6,1.2c-2.4,1.8-5.7,1.8-8.1,0c-1-0.8-2.3-1.3-3.6-1.2c0,0,0-0.9,0-0.9
						c1.5,0,2.9,0.5,4,1.4c2.1,1.7,5.1,1.7,7.3,0c1.1-0.9,2.6-1.4,4-1.4L22.9,241.4z"/>
				</g>
				<g transform="translate(75 -247.999)">
					<path class="st3" d="M22.9,241.4c-1.3,0-2.6,0.4-3.6,1.2c-2.4,1.8-5.7,1.8-8.1,0c-1-0.8-2.3-1.3-3.6-1.2c0,0,0-0.9,0-0.9
						c1.5,0,2.9,0.5,4,1.4c2.1,1.7,5.1,1.7,7.3,0c1.1-0.9,2.6-1.4,4-1.4L22.9,241.4z"/>
				</g>
				<g transform="translate(90 -247.999)">
					<path class="st3" d="M22.9,241.4c-1.3,0-2.6,0.4-3.6,1.2c-2.4,1.8-5.7,1.8-8.1,0c-1-0.8-2.3-1.3-3.6-1.2c0,0,0-0.9,0-0.9
						c1.5,0,2.9,0.5,4,1.4c2.1,1.7,5.1,1.7,7.3,0c1.1-0.9,2.6-1.4,4-1.4L22.9,241.4z"/>
				</g>
				<g transform="translate(105 -247.999)">
					<path class="st3" d="M22.9,241.4c-1.3,0-2.6,0.4-3.6,1.2c-2.4,1.8-5.7,1.8-8.1,0c-1-0.8-2.3-1.3-3.6-1.2c0,0,0-0.9,0-0.9
						c1.5,0,2.9,0.5,4,1.4c2.1,1.7,5.1,1.7,7.3,0c1.1-0.9,2.6-1.4,4-1.4L22.9,241.4z"/>
				</g>
				<g transform="translate(120 -247.999)">
					<path class="st3" d="M22.9,241.4c-1.3,0-2.6,0.4-3.6,1.2c-2.4,1.8-5.7,1.8-8.1,0c-1-0.8-2.3-1.3-3.6-1.2c0,0,0-0.9,0-0.9
						c1.5,0,2.9,0.5,4,1.4c2.1,1.7,5.1,1.7,7.3,0c1.1-0.9,2.6-1.4,4-1.4L22.9,241.4z"/>
				</g>
				<g transform="translate(135 -247.999)">
					<path class="st3" d="M22.9,241.4c-1.3,0-2.6,0.4-3.6,1.2c-2.4,1.8-5.7,1.8-8.1,0c-1-0.8-2.3-1.3-3.6-1.2c0,0,0-0.9,0-0.9
						c1.5,0,2.9,0.5,4,1.4c2.1,1.7,5.1,1.7,7.3,0c1.1-0.9,2.6-1.4,4-1.4L22.9,241.4z"/>
				</g>
				<g transform="translate(150 -247.999)">
					<path class="st3" d="M22.9,241.4c-1.3,0-2.6,0.4-3.6,1.2c-2.4,1.8-5.7,1.8-8.1,0c-1-0.8-2.3-1.3-3.6-1.2c0,0,0-0.9,0-0.9
						c1.5,0,2.9,0.5,4,1.4c2.1,1.7,5.1,1.7,7.3,0c1.1-0.9,2.6-1.4,4-1.4L22.9,241.4z"/>
				</g>
				<g transform="translate(165 -247.999)">
					<path class="st3" d="M22.9,241.4c-1.3,0-2.6,0.4-3.6,1.2c-2.4,1.8-5.7,1.8-8.1,0c-1-0.8-2.3-1.3-3.6-1.2c0,0,0-0.9,0-0.9
						c1.5,0,2.9,0.5,4,1.4c2.1,1.7,5.1,1.7,7.3,0c1.1-0.9,2.6-1.4,4-1.4L22.9,241.4z"/>
				</g>
				<g transform="translate(180 -247.999)">
					<path class="st3" d="M22.9,241.4c-1.3,0-2.6,0.4-3.6,1.2c-2.4,1.8-5.7,1.8-8.1,0c-1-0.8-2.3-1.3-3.6-1.2c0,0,0-0.9,0-0.9
						c1.5,0,2.9,0.5,4,1.4c2.1,1.7,5.1,1.7,7.3,0c1.1-0.9,2.6-1.4,4-1.4L22.9,241.4z"/>
				</g>
				<g transform="translate(195 -247.999)">
					<path class="st3" d="M22.9,241.4c-1.3,0-2.6,0.4-3.6,1.2c-2.4,1.8-5.7,1.8-8.1,0c-1-0.8-2.3-1.3-3.6-1.2c0,0,0-0.9,0-0.9
						c1.5,0,2.9,0.5,4,1.4c2.1,1.7,5.1,1.7,7.3,0c1.1-0.9,2.6-1.4,4-1.4L22.9,241.4z"/>
				</g>
				<g transform="translate(210 -247.999)">
					<path class="st3" d="M22.9,241.4c-1.3,0-2.6,0.4-3.6,1.2c-2.4,1.8-5.7,1.8-8.1,0c-1-0.8-2.3-1.3-3.6-1.2c0,0,0-0.9,0-0.9
						c1.5,0,2.9,0.5,4,1.4c2.1,1.7,5.1,1.7,7.3,0c1.1-0.9,2.6-1.4,4-1.4L22.9,241.4z"/>
				</g>
				<g transform="translate(225 -247.999)">
					<path class="st3" d="M22.9,241.4c-1.3,0-2.6,0.4-3.6,1.2c-2.4,1.8-5.7,1.8-8.1,0c-1-0.8-2.3-1.3-3.6-1.2c0,0,0-0.9,0-0.9
						c1.5,0,2.9,0.5,4,1.4c2.1,1.7,5.1,1.7,7.3,0c1.1-0.9,2.6-1.4,4-1.4L22.9,241.4z"/>
				</g>
				<g transform="translate(240 -247.999)">
					<path class="st3" d="M22.9,241.4c-1.3,0-2.6,0.4-3.6,1.2c-2.4,1.8-5.7,1.8-8.1,0c-1-0.8-2.3-1.3-3.6-1.2c0,0,0-0.9,0-0.9
						c1.5,0,2.9,0.5,4,1.4c2.1,1.7,5.1,1.7,7.3,0c1.1-0.9,2.6-1.4,4-1.4L22.9,241.4z"/>
				</g>
			</g>
		</g>
		<path class="st3" d="M834.7,5898.1c-0.8,0.4-1.7,0.7-2.5,1c-1.1,0.4-1.8,0.6-2.1,0.7v-4.5c1.1-0.4,2.2-1,3.2-1.6
			c1-0.5,1.9-1.1,2.7-1.9h4.7v31.6h-6V5898.1z"/>
		<path class="st3" d="M724,5902.4c-0.6,0.3-1.3,0.6-2,0.8c-0.9,0.3-1.4,0.5-1.6,0.6v-3.6c0.9-0.4,1.7-0.8,2.6-1.2
			c0.8-0.4,1.5-0.9,2.1-1.5h3.8v25.1H724V5902.4z M741.7,5922.9c-1.9,0.1-3.7-0.6-5-2c-1.2-1.5-1.8-3.4-1.7-5.3v-11.3
			c-0.1-1.9,0.5-3.9,1.7-5.4c1.3-1.4,3.2-2.1,5.1-2c1.9-0.1,3.7,0.6,5,2c1.2,1.5,1.8,3.5,1.7,5.4v11.3c0.1,1.9-0.5,3.8-1.7,5.3
			C745.4,5922.3,743.5,5923,741.7,5922.9z M741.7,5918.7c1.2,0,1.8-1,1.8-3.1v-11.1c0-0.8-0.1-1.6-0.4-2.3c-0.2-0.6-0.8-1-1.5-0.9
			c-0.7-0.1-1.3,0.3-1.5,0.9c-0.2,0.8-0.4,1.5-0.3,2.3v11.1C739.8,5917.7,740.4,5918.7,741.7,5918.7z M758,5922.9
			c-1.9,0.1-3.7-0.6-5-2c-1.2-1.5-1.8-3.4-1.7-5.3v-11.3c-0.1-1.9,0.5-3.9,1.7-5.4c1.3-1.4,3.2-2.1,5.1-2c1.9-0.1,3.7,0.6,5,2
			c1.2,1.5,1.8,3.5,1.7,5.4v11.3c0.1,1.9-0.5,3.8-1.7,5.3C761.7,5922.3,759.9,5923,758,5922.9z M758,5918.7c1.2,0,1.8-1,1.8-3.1
			v-11.1c0-0.8-0.1-1.6-0.4-2.3c-0.2-0.6-0.8-1-1.5-0.9c-0.7-0.1-1.3,0.3-1.5,0.9c-0.2,0.8-0.4,1.5-0.3,2.3v11.1
			C756.1,5917.7,756.7,5918.7,758,5918.7z"/>
		<path class="st3" d="M846.6,5911.4h3.2v0.9c0.7-0.7,1.6-1.1,2.6-1.1c0.8,0,1.6,0.4,2,1.1c0.4,0.8,0.7,1.7,0.6,2.7v4.7
			c0,1-0.2,2-0.7,2.9c-0.4,0.7-1.2,1.1-2,1.1c-0.9-0.1-1.8-0.5-2.5-1.1v4.9h-3.2V5911.4z M850.8,5921.6c0.6,0,1-0.6,1-1.8v-5.1
			c0-0.4-0.1-0.8-0.2-1.2c-0.1-0.3-0.4-0.5-0.7-0.4c-0.4,0-0.8,0.2-1.1,0.5v7.6C850.1,5921.4,850.4,5921.6,850.8,5921.6z
			 M860.3,5923.6c-0.9,0.1-1.8-0.4-2.4-1.1c-0.5-0.9-0.7-1.9-0.6-3v-6.1h-1.2v-2.1h1.2v-3.7h3.2v3.7h1.8v2.1h-1.8v6.6
			c0,0.3,0.1,0.6,0.3,0.8c0.3,0.2,0.6,0.3,0.9,0.3c0.3,0,0.5,0,0.8-0.1v2.5l-0.7,0.1C861.3,5923.7,860.8,5923.7,860.3,5923.6z"/>
		<path class="st3" d="M775.5,5915.6v-3.2h3.1v3.2H775.5z M770.6,5912.4h2.9v3.2h-2.9V5912.4z M780.6,5910.4h-12.1v12.4h2v-5.2h8
			v2.9c0,0.3-0.1,0.3-0.4,0.3c-0.3,0-1.2,0-1.9,0c0.3,0.6,0.6,1.3,0.7,2c0.9,0.1,1.9,0,2.8-0.4c0.6-0.3,0.9-0.9,0.9-1.9V5910.4z"/>
		<path class="st3" d="M769.4,5907.1l0.9-0.4c-0.6-1.2-1-2.5-1-3.8c0-1.3,0.3-2.6,1-3.8l-0.9-0.4c-0.8,1.3-1.2,2.7-1.2,4.2
			C768.1,5904.4,768.6,5905.9,769.4,5907.1z M774.2,5903.1c-0.1-0.2-0.8-0.8-1-1v-0.1h0.8v-1.1h-0.8v-1c0.3-0.1,0.6-0.2,0.9-0.3
			l-0.8-0.9c-0.8,0.3-1.6,0.5-2.5,0.7c0.1,0.3,0.3,0.6,0.3,0.9c0.3,0,0.6-0.1,0.9-0.1v0.8H771v1.1h0.9c-0.3,0.7-0.6,1.4-1.1,1.9
			c0.2,0.4,0.4,0.7,0.5,1.1c0.3-0.4,0.5-0.8,0.7-1.3v2.5h1.1v-2.9c0.1,0.2,0.3,0.5,0.3,0.7L774.2,5903.1z M777,5902.1h-1.7v-0.8h1.7
			V5902.1z M777.4,5905.1c-0.1,0-0.1,0-0.1-0.3v-1.7h0.8v-2.8h-0.7c0.2-0.3,0.5-0.8,0.8-1.2l-1.2-0.4c-0.2,0.5-0.4,0.9-0.6,1.4
			l0.6,0.2h-1.7l0.5-0.2c-0.2-0.5-0.4-0.9-0.7-1.4l-1,0.4c0.2,0.4,0.4,0.8,0.6,1.2h-0.5v2.8h0.5c0.1,1-0.5,1.9-1.4,2.3
			c0.3,0.3,0.5,0.6,0.7,0.9c1.5-0.7,1.8-1.8,1.9-3.2h0.3v1.7c0,1,0.2,1.3,1,1.3h0.4c0.6,0,0.9-0.3,1-1.5c-0.4-0.1-0.7-0.2-1-0.4
			c0,0.8,0,0.9-0.1,0.9H777.4z M784.7,5902.6c-0.1,0.4-0.3,0.8-0.5,1.2c-0.3-0.4-0.5-0.7-0.6-1.2H784.7z M785.3,5901.5l-0.2,0h-1.5
			c0-0.2,0-0.4,0-0.7h2.7v-1.1h-2.7c0-0.4,0-0.8,0-1.2h-1.1c0,0.4,0,0.8,0,1.2h-0.9v1.1h0.8c-0.1,1.8-0.4,3.4-1.6,4.4
			c0-0.1,0-0.2,0-0.3v-1.7c0.3-0.1,0.6-0.2,0.9-0.2l-0.1-1.1l-0.7,0.2v-1h0.6v-1.1H781v-1.4h-1.1v1.4H779v1.1h0.8v1.3
			c-0.4,0.1-0.7,0.2-1,0.2l0.2,1.2l0.8-0.2v1.4c0,0.1,0,0.1-0.2,0.2s-0.4,0-0.7,0c0.2,0.3,0.3,0.7,0.3,1.1c0.4,0,0.9,0,1.3-0.2
			c0.2-0.1,0.3-0.3,0.4-0.6c0.3,0.2,0.5,0.5,0.7,0.8c0.7-0.6,1.2-1.4,1.5-2.2c0.1,0.2,0.3,0.4,0.4,0.6c-0.3,0.3-0.7,0.5-1.1,0.7
			c0.3,0.3,0.5,0.6,0.6,0.9c0.4-0.2,0.8-0.5,1.2-0.8c0.4,0.4,1,0.6,1.5,0.8c0.2-0.4,0.4-0.7,0.7-1c-0.6-0.1-1.1-0.4-1.5-0.7
			c0.5-0.9,0.8-1.8,0.9-2.8L785.3,5901.5z M788,5907.1c0.8-1.2,1.2-2.7,1.2-4.2c0-1.5-0.4-2.9-1.2-4.2l-0.9,0.4c0.6,1.2,1,2.5,1,3.8
			c0,1.3-0.3,2.6-1,3.8L788,5907.1z"/>
		<path class="st3" d="M789.7,5912.5l0,2.2c2,0.1,4.1,0.1,6.1,0v-2.2C793.8,5912.7,791.7,5912.7,789.7,5912.5z M789.2,5918.5
			c-0.2,0.6-0.2,1.3-0.3,1.9c0,1.5,1.2,2.4,3.6,2.4c1.2,0,2.4-0.1,3.7-0.3l0-2.3c-1.2,0.2-2.3,0.4-3.5,0.4c-1.1,0-1.7-0.2-1.7-0.8
			c0-0.4,0-0.7,0.1-1.1L789.2,5918.5z M785.5,5911.5c0,0.5-0.1,1.1-0.2,1.6c-0.3,1.8-0.5,3.6-0.5,5.5c0,1.5,0.2,3.1,0.6,4.6l1.9-0.1
			c0-0.2,0-0.5,0-0.6c0-0.2,0-0.4,0.1-0.7c0.3-1.2,0.6-2.4,1-3.6l-1-0.8c-0.2,0.4-0.4,0.7-0.5,1.1c0-0.1,0-0.2,0-0.3
			c0.1-1.7,0.3-3.3,0.7-4.9c0.1-0.5,0.2-1,0.4-1.4L785.5,5911.5z M798.2,5914.6l0.9,2.4c1.7-0.7,4.8-2,6.7-2
			c1.1-0.2,2.2,0.7,2.3,1.8c0,0.1,0,0.2,0,0.3c0,2.2-2.8,3.3-6.6,3.3l1,2.2c5.2-0.3,8-2.5,8-5.5c0-2.7-2.1-4.2-4.7-4.2
			c-2,0.2-4,0.6-5.9,1.3C799.5,5914.3,798.7,5914.5,798.2,5914.6z M814,5918.5c-0.2,0.6-0.3,1.3-0.4,2c0,2,1.7,2.9,4.3,2.9
			c1.2,0,2.5-0.1,3.7-0.3l0.1-2.1c-1.3,0.2-2.5,0.3-3.8,0.3c-1.7,0-2.2-0.5-2.2-1.3c0-0.5,0.1-0.9,0.3-1.3L814,5918.5z
			 M823.4,5914.3c-0.8,0.3-1.6,0.5-2.5,0.7l-0.2-0.4c-0.1-0.2-0.2-0.4-0.3-0.6c0.8-0.1,1.5-0.3,2.2-0.5l-0.3-1.9
			c-0.8,0.3-1.7,0.5-2.6,0.6c-0.2-0.4-0.3-0.9-0.4-1.3l-2.4,0.4c0.2,0.3,0.4,0.7,0.6,1.1c-1.3,0-2.7,0-4-0.2l0.1,1.9
			c1.6,0.2,3.1,0.2,4.7,0.1l0.4,0.8l0.1,0.2c-1.8,0.1-3.6,0.1-5.4-0.1l0.1,1.9c2,0.1,4,0.1,6-0.1c0.1,0.3,0.3,0.7,0.5,1.1
			c-0.4,0-0.8-0.1-1.3-0.1l-0.2,1.6c1,0.1,2.4,0.3,3.2,0.5l1-1.3c-0.4-0.8-0.8-1.5-1.1-2.2c0.7-0.1,1.4-0.3,2-0.5L823.4,5914.3z"/>
		<path class="st3" d="M886,5905c-0.7,0-1.3-0.6-1.3-1.3c0-0.7,0.6-1.3,1.3-1.3c0.7,0,1.3,0.6,1.3,1.3
			C887.3,5904.4,886.7,5905,886,5905z M870.8,5904.1c-0.8,0-2.4-0.1-3.1-0.2v4.1c0.6,0,1.9-0.1,3.1-0.1h10.6
			c-0.3,2.3-1.3,4.4-2.6,6.2c-2.4,2.9-5.7,4.9-9.4,5.5l3.2,3.5c3.9-1.2,7.3-3.5,9.8-6.7c2.1-2.8,3-6.4,3.6-8.7
			c0.1-0.3,0.2-0.6,0.3-1c1.6-0.1,2.9-1.4,2.9-3c0-1.6-1.3-3-3-3c-1.6,0-3,1.3-3,3c0,0.1,0,0.2,0,0.3c-0.6,0.1-1.1,0.1-1.7,0.1
			H870.8z M896.6,5922.8c0.5-0.3,1.1-0.6,1.7-0.8c5.5-1.9,10.5-4.7,13.9-8.7l-2.1-3.3c-3.2,3.6-7.3,6.3-11.9,7.8V5906
			c0-1,0.1-2,0.3-3h-4.6c0.2,1,0.3,2,0.3,3v12.6c0,0.6-0.1,1.2-0.4,1.8L896.6,5922.8z M937.1,5903.7c-0.6-1.1-1.2-2.2-1.9-3.3
			l-2.3,0.9c0.7,1.1,1.3,2.2,1.9,3.3L937.1,5903.7z M934.1,5904.9c-0.4-0.8-1.3-2.4-1.9-3.3l-2.3,0.9c0.7,1.1,1.3,2.2,1.8,3.3
			L934.1,5904.9z M923.5,5905.9c0-1,0.1-2.1,0.2-3.1h-4.3c0.1,1,0.2,2,0.2,3.1v3c-2.3,0.4-4.3,0.7-5.5,0.9l0.7,3.8
			c1-0.2,2.8-0.6,4.8-1v6.1c0,3.1,0.8,4.5,6.8,4.5c2.5,0,4.9-0.2,7.4-0.5l0.1-3.9c-2.5,0.5-5.1,0.8-7.6,0.8c-2.5,0-2.8-0.5-2.8-1.9
			v-5.9c2.9-0.6,5.5-1.1,6.4-1.3c-1,1.6-2.2,3.1-3.6,4.4l3.2,1.9c2-2.1,3.6-4.5,5-7c0.2-0.5,0.6-1.1,0.9-1.5l-2.8-2.2
			c-0.6,0.3-1.3,0.5-1.9,0.6c-1.1,0.3-4,0.9-7.2,1.4V5905.9z M943.5,5902.9l-2.8,3c2.1,1.6,4.2,3.3,6,5.3l3-3
			C947.8,5906.1,945.7,5904.4,943.5,5902.9z M939.9,5918.8l2.5,3.8c3-0.5,5.9-1.6,8.6-3.2c3.8-2.2,7-5.3,9.3-9.1l-2.3-4.1
			c-2.1,4-5.2,7.4-9.2,9.6C946.1,5917.4,943.1,5918.4,939.9,5918.8z M982.6,5912.3c-3.2-1.4-6.5-2.6-9.9-3.6v-3.3
			c0-1,0.1-2.1,0.2-3.1h-4.5c0.2,1,0.3,2.1,0.3,3.1v13.7c0,1.2-0.1,2.4-0.3,3.6h4.6c-0.1-1.1-0.3-3-0.3-3.6v-6.2
			c2.8,1,5.6,2.1,8.3,3.4L982.6,5912.3z"/>
	</g>
	<path class="st1" d="M109,205.5l-1,0.4c0.5,0.7,0.9,1.5,1.3,2.2l1.1-0.5C109.9,207,109.5,206.2,109,205.5z M110.8,204.9l-1,0.4
		c0.5,0.7,0.9,1.4,1.3,2.2l1-0.5C111.7,206.3,111.3,205.6,110.8,204.9L110.8,204.9z M99.9,208.9c1.3,0.1,2.6,0.2,4.3,0.2
		c1.5,0,3.3-0.1,4.4-0.2v-1.7c-1.2,0.1-2.9,0.2-4.4,0.2c-1.4,0-2.8-0.1-4.2-0.2V208.9z M99.2,213.7c-0.2,0.7-0.3,1.5-0.3,2.2
		c0,2.1,1.8,3.2,5.2,3.2c1.8,0,3.7-0.2,5.4-0.6l0-1.7c-1.8,0.4-3.6,0.7-5.5,0.6c-2.4,0-3.5-0.8-3.5-1.9c0-0.6,0.1-1.2,0.3-1.7
		L99.2,213.7z M125.6,210.2c-0.4,1.4-1,2.7-1.8,4c-0.4-1.7-0.7-3.4-0.8-5.1h5v-1.5h-1.6l0.8-0.8c-0.9-0.7-1.8-1.3-2.8-1.8l-0.9,0.9
		c0.9,0.5,1.7,1,2.5,1.7h-3.1c0-0.8-0.1-1.7,0-2.5h-1.6c0,0.8,0,1.7,0.1,2.5h-6.6v4.5c0,2.1-0.1,4.8-1.4,6.7c0.5,0.3,0.9,0.6,1.3,1
		c1.4-2.1,1.7-5.3,1.7-7.5h2.6c0,2.4-0.1,3.3-0.3,3.6c-0.1,0.1-0.3,0.2-0.5,0.2c-0.3,0-0.9,0-1.5-0.1c0.2,0.4,0.4,0.9,0.4,1.4
		c0.6,0,1.3,0,1.9,0c0.4,0,0.8-0.2,1-0.5c0.3-0.4,0.4-1.8,0.5-5.3V211h-4v-1.9h5.1c0.1,2.2,0.5,4.4,1.1,6.6c-1,1.1-2.2,2.1-3.5,2.8
		c0.4,0.4,0.8,0.8,1.1,1.2c1.1-0.7,2.1-1.5,3-2.4c0.7,1.5,1.6,2.4,2.8,2.4c1.3,0,1.9-0.8,2.1-3.6c-0.5-0.2-0.9-0.5-1.3-0.8
		c-0.1,2.1-0.3,2.9-0.7,2.9c-0.7,0-1.3-0.8-1.8-2.2c1.2-1.6,2.2-3.5,2.8-5.4L125.6,210.2z M130.5,214.2c-0.1,1.3-0.4,2.6-0.9,3.7
		c0.4,0.1,0.8,0.3,1.1,0.6c0.6-1.3,0.9-2.7,1.1-4.1L130.5,214.2z M134,214.5c0.4,1,0.8,2,1,3.1l1.2-0.4c-0.3-1-0.6-2-1-3L134,214.5z
		 M133.7,210.6c0.2,0.4,0.5,0.8,0.7,1.3l-2.1,0.1c1.1-1.5,2.2-3,3.2-4.5l-1.3-0.5c-0.5,1-1,1.9-1.6,2.8c-0.2-0.3-0.5-0.6-0.8-0.9
		c0.6-0.9,1.2-2.1,1.8-3.2l-1.3-0.5c-0.4,1-0.8,2-1.3,2.9l-0.4-0.4l-0.7,1c0.7,0.7,1.4,1.4,2,2.2c-0.3,0.4-0.6,0.9-0.9,1.2l-1.1,0
		l0.1,1.3c0.7,0,1.6-0.1,2.5-0.1v6.5h1.3v-6.6l1.2-0.1c0.1,0.3,0.2,0.6,0.3,0.9l1.1-0.5c-0.4-1.2-0.9-2.3-1.5-3.3L133.7,210.6z
		 M144.2,207.9h-5.7c0.3-0.8,0.6-1.6,0.9-2.4l-1.5-0.4c-0.5,2-1.4,3.9-2.8,5.5c0.5,0.3,0.9,0.6,1.3,0.9c0.5-0.7,1-1.4,1.4-2.1h4.9
		c-0.2,5.9-0.5,8.2-1,8.8c-0.2,0.2-0.4,0.3-0.7,0.3c-0.4,0-1.3,0-2.4-0.1c0.3,0.4,0.5,1,0.5,1.5c0.8,0.1,1.6,0.1,2.5,0
		c0.6,0,1.1-0.3,1.4-0.7c0.7-0.8,0.9-3.3,1.2-10.4L144.2,207.9z M140.6,215c-0.5-1.3-1.3-2.5-2.2-3.6l-1.2,0.6
		c0.8,1.1,1.5,2.4,2.1,3.7L140.6,215z M150.1,209.9c1.3-1,2.4-2.1,3.3-3.4c1,1.3,2.2,2.4,3.5,3.4H150.1z M154.2,214.4h5.2v-1.3h-5.2
		v-1.9h3.2v-0.9c0.8,0.6,1.7,1.1,2.6,1.6c0.3-0.5,0.6-0.9,1-1.3c-2.7-1.2-5.1-3.1-6.8-5.5h-1.5c-1.7,2.4-3.9,4.4-6.5,5.7
		c0.4,0.4,0.7,0.8,0.9,1.2c0.9-0.5,1.7-1,2.5-1.6v0.8h3.1v1.9h-5.1v1.3h5.1v3.6h-5.9v1.3h13.5V218h-6L154.2,214.4z M148.7,215.1
		c0.6,0.9,1.1,1.8,1.4,2.8l1.3-0.6c-0.4-1-0.9-1.9-1.5-2.7L148.7,215.1z M156.3,217.9c0.7-0.9,1.3-1.8,1.9-2.8l-1.4-0.5
		c-0.4,1-1,2-1.6,2.8L156.3,217.9z M175.1,210.8h-3.7v-1.3h3.7L175.1,210.8z M175.1,213.2h-3.7v-1.3h3.7L175.1,213.2z M175.1,215.6
		h-3.7v-1.3h3.7L175.1,215.6z M170,208.4v8.3h6.5v-8.3h-3c0.1-0.4,0.3-0.9,0.4-1.3h2.9v-1.3h-7.4v1.3h2.9c-0.1,0.4-0.2,0.9-0.3,1.3
		H170z M163.9,207.6h4.2v1.2h1.3v-2.4h-2.7v-1.3h-1.4v1.3h-2.6v2.4h1.2V207.6z M167.2,217.6h-2.3v-1.9h2.3V217.6z M164.8,214.5
		c0.6-0.4,1.1-0.8,1.6-1.3c0.6,0.5,1.2,0.9,1.6,1.3H164.8z M167.2,210.1c-0.2,0.5-0.6,1-0.9,1.4c-0.5-0.3-0.9-0.6-1.4-0.9
		c0.1-0.2,0.3-0.3,0.4-0.5H167.2z M168.5,214.9l0.2,0.2l0.9-1c-0.5-0.5-1.4-1.1-2.3-1.8c0.7-0.9,1.2-1.8,1.6-2.8L168,209l-0.2,0.1
		H166c0.2-0.3,0.3-0.6,0.4-0.8l-1.2-0.3c-0.6,1.4-1.6,2.6-2.9,3.5c0.3,0.3,0.7,0.6,1,0.9c0.3-0.2,0.6-0.5,0.9-0.8
		c0.4,0.3,0.9,0.6,1.3,0.9c-0.9,0.8-2,1.5-3.2,1.9c0.3,0.3,0.6,0.7,0.8,1.1c0.2-0.1,0.4-0.2,0.6-0.3v4.3h1.3v-0.7h3.5
		c0.3,0.3,0.7,0.7,1,1c1.2-0.5,2.4-1.2,3.3-2.1l-1.2-0.8c-0.8,0.8-1.8,1.4-2.9,1.8V214.9z M173.6,217.7c0.9,0.6,1.8,1.4,2.6,2.1
		l1.2-0.8c-0.8-0.8-1.7-1.4-2.7-2L173.6,217.7z M184.4,208.9v1.4c1.9,0.2,3.9,0.2,5.8,0v-1.4C188.3,209.1,186.4,209.1,184.4,208.9z
		 M184,214.6c-0.1,0.6-0.2,1.1-0.2,1.7c0,1.3,1.1,2.2,3.4,2.2c1.2,0,2.4-0.1,3.5-0.3l0-1.5c-1.1,0.2-2.3,0.4-3.5,0.4
		c-1.7,0-2.1-0.5-2.1-1.1c0-0.4,0.1-0.8,0.2-1.2L184,214.6z M180.5,207.8c0,0.4-0.1,0.8-0.1,1.1c-0.3,1.8-0.5,3.7-0.6,5.5
		c0,1.5,0.2,3,0.5,4.5l1.3-0.1c0-0.2,0-0.4,0-0.5c0-0.2,0-0.4,0.1-0.6c0.3-1.1,0.6-2.2,1-3.2l-0.7-0.6c-0.2,0.5-0.5,1.2-0.7,1.7
		c-0.1-0.5-0.1-1-0.1-1.5c0.1-1.8,0.3-3.5,0.7-5.2c0.1-0.3,0.2-0.8,0.3-1.1L180.5,207.8z M195.4,209.7h10.3v-1.3h-5.2v-1.7h-1.4v1.7
		h-5v3.6c0,2-0.1,4.8-1.2,6.8c0.4,0.2,0.8,0.5,1.1,0.7c1.2-2.1,1.4-5.4,1.4-7.6V209.7z M202.7,212c-1-0.8-2.1-1.5-3.3-2l-0.9,0.9
		c1.2,0.6,2.2,1.3,3.2,2.2L202.7,212z M196.4,218.3c0.7-1.4,1.1-2.9,1.2-4.5l-1.2-0.3c-0.1,1.5-0.5,2.9-1.1,4.2L196.4,218.3z
		 M200.2,218.2c-0.5,0-0.6-0.1-0.6-0.6v-5.1h-1.3v5.1c0,1.3,0.3,1.8,1.7,1.8h1.8c1.2,0,1.6-0.6,1.7-3c-0.4-0.1-0.8-0.3-1.1-0.5
		c-0.1,2-0.1,2.3-0.6,2.3H200.2z M202.8,213.7c0.9,1.4,1.5,3,1.8,4.6l1.3-0.5c-0.4-1.6-1.1-3.2-2-4.6L202.8,213.7z M215.2,208.7
		l-1,0.4c0.5,0.7,0.9,1.5,1.3,2.3l1-0.4C216.1,210.2,215.7,209.5,215.2,208.7L215.2,208.7z M217,208l-1,0.4c0.5,0.7,1,1.4,1.3,2.2
		l1-0.5C218,209.4,217.5,208.7,217,208L217,208z M209.7,207.6c0.1,0.5,0.2,1.1,0.2,1.6c0,1.3-0.1,4.9-0.1,6.9c0,2.3,1.4,3.2,3.5,3.2
		c2.4,0,4.6-1.2,5.9-3.1l-1-1.2c-1,1.8-2.9,2.8-4.9,2.9c-1.2,0-2.1-0.5-2.1-2c0-1.9,0.1-5.1,0.2-6.7c0-0.5,0.1-1.1,0.2-1.6
		L209.7,207.6z M222.1,209.1l0.2,1.5c1.5-0.3,4.9-0.7,6.2-0.8c-1.5,1-2.3,2.7-2.4,4.5c0,3.1,2.9,4.5,5.6,4.7l0.5-1.5
		c-2.3-0.1-4.6-0.9-4.6-3.5c0.1-1.9,1.3-3.5,3.1-4.2c0.9-0.2,1.8-0.2,2.7-0.2v-1.4c-1,0-2.3,0.1-3.8,0.2c-2.5,0.2-5,0.5-6,0.5
		C223.1,209,222.6,209.1,222.1,209.1z"/>
	<g transform="translate(57.941 125.029)">
		<path class="st3" d="M8,6.5c-0.8,0.4-1.7,0.7-2.6,1C4.3,7.8,3.6,8.1,3.3,8.2V3.6c1.1-0.5,2.2-1,3.3-1.6c1-0.5,1.9-1.2,2.7-2h4.8
			v32.4H8V6.5z M30.8,33c-2.4,0.2-4.8-0.8-6.5-2.5c-1.6-1.9-2.3-4.4-2.2-6.8V9.2c-0.1-2.5,0.6-5,2.2-7c1.4-1.7,3.6-2.5,6.5-2.5
			c2.9,0,5,0.8,6.5,2.5c1.5,2,2.3,4.5,2.2,7v14.5c0.1,2.5-0.7,4.9-2.2,6.8C35.5,32.2,33.2,33.2,30.8,33z M30.8,27.6
			c1.6,0,2.4-1.3,2.4-4V9.3c0-1-0.1-2-0.5-3c-0.3-0.8-1.1-1.3-1.9-1.2c-0.8-0.1-1.7,0.4-2,1.2c-0.3,1-0.5,2-0.4,3v14.3
			C28.4,26.2,29.2,27.6,30.8,27.6z M51.8,33c-2.4,0.2-4.8-0.8-6.5-2.5c-1.6-1.9-2.3-4.4-2.2-6.8V9.2c-0.1-2.5,0.6-5,2.2-7
			c1.4-1.7,3.6-2.5,6.5-2.5c2.9,0,5,0.8,6.5,2.5c1.5,2,2.3,4.5,2.2,7v14.5c0.1,2.5-0.7,4.9-2.2,6.8C56.6,32.2,54.2,33.2,51.8,33z
			 M51.8,27.6c1.6,0,2.4-1.3,2.4-4V9.3c0-1-0.1-2-0.5-3c-0.3-0.8-1.1-1.3-1.9-1.2c-0.8-0.1-1.7,0.4-2,1.2c-0.3,1-0.5,2-0.4,3v14.3
			C49.4,26.2,50.2,27.6,51.8,27.6z"/>
		<path class="st3" d="M65.7,20.8H69v0.9c0.7-0.7,1.7-1.1,2.7-1.2c0.9,0,1.7,0.4,2.1,1.2c0.5,0.9,0.7,1.8,0.7,2.8v5
			c0.1,1.1-0.2,2.1-0.7,3.1c-0.4,0.7-1.3,1.2-2.1,1.2c-1-0.1-1.9-0.5-2.6-1.2v5.1h-3.3L65.7,20.8z M70.1,31.5c0.7,0,1-0.6,1-1.9
			v-5.3c0-0.4-0.1-0.8-0.2-1.2c-0.1-0.3-0.4-0.5-0.7-0.5c-0.4,0-0.8,0.2-1.2,0.5v8C69.3,31.3,69.7,31.5,70.1,31.5z M80.1,33.6
			c-1,0.1-1.9-0.4-2.5-1.2c-0.5-1-0.7-2-0.6-3.1v-6.4h-1.3v-2.2h1.3v-3.8h3.4v3.8h1.8v2.2h-1.8v6.9c0,0.3,0.1,0.6,0.3,0.9
			c0.3,0.2,0.6,0.3,0.9,0.3c0.3,0,0.5,0,0.8-0.1v2.6l-0.8,0.1C81.1,33.6,80.6,33.7,80.1,33.6z"/>
		<path class="st3" d="M107.9,14.2c-0.7,0-1.3-0.6-1.3-1.3c0-0.7,0.6-1.3,1.3-1.3c0.7,0,1.3,0.6,1.3,1.3
			C109.3,13.7,108.7,14.2,107.9,14.2z M92,13.4c-0.8,0-2.5-0.1-3.3-0.2v4.3c0.7,0,2-0.1,3.3-0.1h11c-0.4,2.3-1.3,4.6-2.8,6.5
			c-2,2.5-4.8,4.7-9.8,5.8l3.3,3.6c4-1.2,7.6-3.7,10.2-7c2.2-2.9,3.2-6.7,3.8-9c0.1-0.3,0.2-0.7,0.3-1c1.7-0.1,3-1.4,3-3.1
			c0-1.7-1.4-3.1-3.1-3.1c-1.7,0-3.1,1.4-3.1,3.1c0,0.1,0,0.2,0,0.3c-0.6,0.1-1.2,0.1-1.8,0.1L92,13.4z M118.9,32.9
			c0.5-0.3,1.1-0.6,1.7-0.8c5.7-2,10.9-4.9,14.4-9l-2.1-3.5c-3.4,3.7-7.6,6.5-12.4,8.1V15.4c0-1.1,0.1-2.1,0.3-3.1h-4.8
			c0.2,1,0.3,2.1,0.3,3.1v13.2c0,0.6-0.1,1.3-0.4,1.8L118.9,32.9z M161.1,12.9c-0.6-1.2-1.3-2.3-2-3.4l-2.4,1c0.7,1.1,1.4,2.3,2,3.4
			L161.1,12.9z M158,14.1c-0.4-0.9-1.3-2.5-1.9-3.4l-2.4,1c0.7,1.1,1.4,2.3,1.9,3.5L158,14.1z M146.9,15.2c0-1.1,0.1-2.1,0.3-3.2
			h-4.5c0.1,1.1,0.2,2.1,0.2,3.2v3.1c-2.4,0.4-4.5,0.8-5.7,0.9l0.7,3.9c1.1-0.3,2.9-0.6,5-1v6.4c0,3.3,0.8,4.7,7.1,4.7
			c2.6,0,5.1-0.2,7.7-0.5l0.1-4.1c-2.6,0.5-5.3,0.8-7.9,0.9c-2.6,0-2.9-0.5-2.9-2v-6.1c3-0.6,5.8-1.1,6.7-1.3
			c-1,1.7-2.3,3.2-3.7,4.6l3.3,2c2-2.2,3.8-4.7,5.2-7.3c0.3-0.5,0.7-1.1,0.9-1.5l-2.9-2.3c-0.6,0.3-1.3,0.5-2,0.7
			c-1.1,0.3-4.2,0.9-7.4,1.5L146.9,15.2z M167.8,12.1l-2.9,3.1c2.2,1.7,4.3,3.5,6.3,5.5l3.1-3.2C172.3,15.5,170.1,13.7,167.8,12.1z
			 M164.1,28.7l2.6,4c3.2-0.6,6.2-1.7,8.9-3.3c4-2.3,7.3-5.5,9.7-9.5l-2.3-4.3c-2.1,4.2-5.5,7.7-9.6,10
			C170.5,27.2,167.4,28.3,164.1,28.7z M208.6,21.9c-3.4-1.5-6.8-2.7-10.3-3.8v-3.4c0-1.1,0.1-2.2,0.3-3.3h-4.7
			c0.2,1.1,0.3,2.2,0.3,3.3V29c0,1.3-0.1,2.5-0.3,3.8h4.8c-0.1-1.1-0.3-3.1-0.3-3.8v-6.4c2.9,1,5.8,2.2,8.6,3.6L208.6,21.9z"/>
		<g>
			<defs>
				<rect id="SVGID_3_" x="7.3" y="42.2" width="203.8" height="6.1"/>
			</defs>
			<clipPath id="SVGID_4_">
				<use xlink:href="#SVGID_3_"  style="overflow:visible;"/>
			</clipPath>
			<g transform="translate(14.757 49.731)" class="st8">
				<g transform="translate(-15 -247.999)">
					<path class="st3" d="M22.9,241.4c-1.3,0-2.6,0.4-3.6,1.2c-2.4,1.8-5.7,1.8-8.1,0c-1-0.8-2.3-1.3-3.6-1.2c0,0,0-0.9,0-0.9
						c1.5,0,2.9,0.5,4,1.4c2.1,1.7,5.1,1.7,7.3,0c1.1-0.9,2.6-1.4,4-1.4L22.9,241.4z"/>
				</g>
				<g transform="translate(0 -247.999)">
					<path class="st3" d="M22.9,241.4c-1.3,0-2.6,0.4-3.6,1.2c-2.4,1.8-5.7,1.8-8.1,0c-1-0.8-2.3-1.3-3.6-1.2c0,0,0-0.9,0-0.9
						c1.5,0,2.9,0.5,4,1.4c2.1,1.7,5.1,1.7,7.3,0c1.1-0.9,2.6-1.4,4-1.4L22.9,241.4z"/>
				</g>
				<g transform="translate(15 -247.999)">
					<path class="st3" d="M22.9,241.4c-1.3,0-2.6,0.4-3.6,1.2c-2.4,1.8-5.7,1.8-8.1,0c-1-0.8-2.3-1.3-3.6-1.2c0,0,0-0.9,0-0.9
						c1.5,0,2.9,0.5,4,1.4c2.1,1.7,5.1,1.7,7.3,0c1.1-0.9,2.6-1.4,4-1.4L22.9,241.4z"/>
				</g>
				<g transform="translate(30 -247.999)">
					<path class="st3" d="M22.9,241.4c-1.3,0-2.6,0.4-3.6,1.2c-2.4,1.8-5.7,1.8-8.1,0c-1-0.8-2.3-1.3-3.6-1.2c0,0,0-0.9,0-0.9
						c1.5,0,2.9,0.5,4,1.4c2.1,1.7,5.1,1.7,7.3,0c1.1-0.9,2.6-1.4,4-1.4L22.9,241.4z"/>
				</g>
				<g transform="translate(45 -247.999)">
					<path class="st3" d="M22.9,241.4c-1.3,0-2.6,0.4-3.6,1.2c-2.4,1.8-5.7,1.8-8.1,0c-1-0.8-2.3-1.3-3.6-1.2c0,0,0-0.9,0-0.9
						c1.5,0,2.9,0.5,4,1.4c2.1,1.7,5.1,1.7,7.3,0c1.1-0.9,2.6-1.4,4-1.4L22.9,241.4z"/>
				</g>
				<g transform="translate(60 -247.999)">
					<path class="st3" d="M22.9,241.4c-1.3,0-2.6,0.4-3.6,1.2c-2.4,1.8-5.7,1.8-8.1,0c-1-0.8-2.3-1.3-3.6-1.2c0,0,0-0.9,0-0.9
						c1.5,0,2.9,0.5,4,1.4c2.1,1.7,5.1,1.7,7.3,0c1.1-0.9,2.6-1.4,4-1.4L22.9,241.4z"/>
				</g>
				<g transform="translate(75 -247.999)">
					<path class="st3" d="M22.9,241.4c-1.3,0-2.6,0.4-3.6,1.2c-2.4,1.8-5.7,1.8-8.1,0c-1-0.8-2.3-1.3-3.6-1.2c0,0,0-0.9,0-0.9
						c1.5,0,2.9,0.5,4,1.4c2.1,1.7,5.1,1.7,7.3,0c1.1-0.9,2.6-1.4,4-1.4L22.9,241.4z"/>
				</g>
				<g transform="translate(90 -247.999)">
					<path class="st3" d="M22.9,241.4c-1.3,0-2.6,0.4-3.6,1.2c-2.4,1.8-5.7,1.8-8.1,0c-1-0.8-2.3-1.3-3.6-1.2c0,0,0-0.9,0-0.9
						c1.5,0,2.9,0.5,4,1.4c2.1,1.7,5.1,1.7,7.3,0c1.1-0.9,2.6-1.4,4-1.4L22.9,241.4z"/>
				</g>
				<g transform="translate(105 -247.999)">
					<path class="st3" d="M22.9,241.4c-1.3,0-2.6,0.4-3.6,1.2c-2.4,1.8-5.7,1.8-8.1,0c-1-0.8-2.3-1.3-3.6-1.2c0,0,0-0.9,0-0.9
						c1.5,0,2.9,0.5,4,1.4c2.1,1.7,5.1,1.7,7.3,0c1.1-0.9,2.6-1.4,4-1.4L22.9,241.4z"/>
				</g>
				<g transform="translate(120 -247.999)">
					<path class="st3" d="M22.9,241.4c-1.3,0-2.6,0.4-3.6,1.2c-2.4,1.8-5.7,1.8-8.1,0c-1-0.8-2.3-1.3-3.6-1.2c0,0,0-0.9,0-0.9
						c1.5,0,2.9,0.5,4,1.4c2.1,1.7,5.1,1.7,7.3,0c1.1-0.9,2.6-1.4,4-1.4L22.9,241.4z"/>
				</g>
				<g transform="translate(135 -247.999)">
					<path class="st3" d="M22.9,241.4c-1.3,0-2.6,0.4-3.6,1.2c-2.4,1.8-5.7,1.8-8.1,0c-1-0.8-2.3-1.3-3.6-1.2c0,0,0-0.9,0-0.9
						c1.5,0,2.9,0.5,4,1.4c2.1,1.7,5.1,1.7,7.3,0c1.1-0.9,2.6-1.4,4-1.4L22.9,241.4z"/>
				</g>
				<g transform="translate(150 -247.999)">
					<path class="st3" d="M22.9,241.4c-1.3,0-2.6,0.4-3.6,1.2c-2.4,1.8-5.7,1.8-8.1,0c-1-0.8-2.3-1.3-3.6-1.2c0,0,0-0.9,0-0.9
						c1.5,0,2.9,0.5,4,1.4c2.1,1.7,5.1,1.7,7.3,0c1.1-0.9,2.6-1.4,4-1.4L22.9,241.4z"/>
				</g>
				<g transform="translate(165 -247.999)">
					<path class="st3" d="M22.9,241.4c-1.3,0-2.6,0.4-3.6,1.2c-2.4,1.8-5.7,1.8-8.1,0c-1-0.8-2.3-1.3-3.6-1.2c0,0,0-0.9,0-0.9
						c1.5,0,2.9,0.5,4,1.4c2.1,1.7,5.1,1.7,7.3,0c1.1-0.9,2.6-1.4,4-1.4L22.9,241.4z"/>
				</g>
				<g transform="translate(180 -247.999)">
					<path class="st3" d="M22.9,241.4c-1.3,0-2.6,0.4-3.6,1.2c-2.4,1.8-5.7,1.8-8.1,0c-1-0.8-2.3-1.3-3.6-1.2c0,0,0-0.9,0-0.9
						c1.5,0,2.9,0.5,4,1.4c2.1,1.7,5.1,1.7,7.3,0c1.1-0.9,2.6-1.4,4-1.4L22.9,241.4z"/>
				</g>
			</g>
		</g>
	</g>
	<path class="st1" d="M110.1,116.4c-0.5,0-1.5-0.5-1.5-1.2c0-0.6,0.8-1.4,2-2c0,1,0,1.9,0,2.4C110.6,116.2,110.4,116.4,110.1,116.4z
		 M112,110.7c0-0.6,0-1.2,0-1.8c1.1-0.1,2.1-0.3,3.2-0.5l0-1.6c-1,0.3-2.1,0.5-3.1,0.6c0-0.6,0-1.1,0.1-1.5c0-0.4,0.1-0.9,0.1-1.2
		h-1.7c0.1,0.4,0.1,0.8,0.1,1.2c0,0.3,0,0.9,0,1.6c-0.4,0-0.8,0-1.1,0c-0.7,0-1.4,0-2.1-0.1l0.1,1.5c0.6,0.1,1.4,0.1,2.1,0.1
		c0.3,0,0.7,0,1,0c0,0.6,0,1.2,0,1.7v1c-1.9,0.8-3.5,2.2-3.5,3.6c0,1.5,2.1,2.8,3.5,2.8c0.9,0,1.6-0.5,1.6-2.2c0-0.6,0-2-0.1-3.3
		c1-0.3,2.1-0.5,3.2-0.5c1.4,0,2.5,0.7,2.5,1.9c0,1.3-1.2,2-2.5,2.3c-0.6,0.1-1.3,0.1-1.9,0.1l0.6,1.6c0.7,0,1.3-0.1,2-0.2
		c2.3-0.6,3.4-1.9,3.4-3.8c0-2-1.8-3.3-4.1-3.3c-1.1,0-2.2,0.2-3.3,0.5V110.7z M116.3,107.6c1.3,0.7,2.5,1.4,3.7,2.3l0.8-1.3
		c-1.2-0.8-2.4-1.6-3.7-2.3L116.3,107.6z M125.9,111.1h7.2v1.4h-7.2V111.1z M125.9,108.5h7.2v1.4h-7.2V108.5z M125.9,105.9h7.2v1.3
		h-7.2V105.9z M132.7,117.2c-0.6,0-0.8-0.1-0.8-0.5v-2.9h2.7v-9.2h-10.2v9.2h2.1c-0.3,1.9-1.1,3.1-4.4,3.7c0.4,0.4,0.6,0.8,0.8,1.3
		c3.7-0.8,4.7-2.5,5.1-5h2.3v2.9c0,1.5,0.4,2,2.1,2h2.4c1.4,0,1.9-0.6,2-3c-0.5-0.1-1-0.3-1.4-0.6c-0.1,1.9-0.2,2.2-0.8,2.2H132.7z
		 M144.1,112.7c-0.3-0.4-1.5-1.6-2-2.1v-0.8h1.7v-0.7h9v-1H149v-0.7h3.1v-0.9H149v-0.7h3.5v-1H149v-0.8h-1.5v0.8h-3.3v1h3.3v0.7
		h-2.9v0.9h2.9v0.7h-3.8v0.3h-1.6V106c0.7-0.2,1.3-0.4,2-0.6l-1-1.1c-1.6,0.6-3.2,1-4.8,1.2c0.2,0.4,0.3,0.8,0.4,1.2
		c0.6-0.1,1.3-0.2,2-0.3v2.1h-2.3v1.4h2.2c-0.6,1.7-1.5,3.3-2.6,4.8c0.3,0.4,0.5,0.9,0.7,1.4c0.8-1.1,1.5-2.3,2-3.6v6.4h1.4v-6.6
		c0.4,0.6,0.8,1.1,1.2,1.7L144.1,112.7z M150.6,111.7h-4.5v-0.9h4.5V111.7z M150.6,113.5h-4.5v-0.9h4.5V113.5z M150.6,115.2h-4.5
		v-0.9h4.5V115.2z M151.9,109.8h-7.2v6.4h1.7c-1.1,0.8-2.2,1.3-3.5,1.7c0.3,0.3,0.7,0.6,0.9,1c1.4-0.4,2.7-1.1,3.8-1.9l-1.1-0.7h5.3
		L151.9,109.8z M149,116.9c1,0.6,2.1,1.4,2.7,1.9l1.3-0.7c-0.7-0.5-2-1.2-3-1.9L149,116.9z M157.4,104.8c0,0.4-0.1,1-0.1,1.5
		c-0.3,1.7-0.4,3.4-0.5,5.1c0,0.9,0.1,1.7,0.2,2.6l1.6-0.1c-0.1-0.6-0.1-1.2,0-1.8c0.1-2.1,1.9-4.9,3.8-4.9c1.5,0,2.3,1.6,2.3,4.1
		c0,3.9-2.6,5.2-6.1,5.7l1,1.4c4-0.7,6.8-2.8,6.8-7.2c0-3.4-1.6-5.5-3.8-5.5c-1.9,0-3.4,1.7-4.1,3.2c0.1-1.3,0.4-2.6,0.7-3.9
		L157.4,104.8z M181.3,108.9c-0.3-0.7-0.7-1.3-1.1-1.9l-0.9,0.4c0.4,0.6,0.8,1.3,1.1,1.9L181.3,108.9z M176.6,112.1
		c0.9-0.1,1.7-0.1,2.6-0.1c0.8,0,1.6,0.1,2.4,0.2l0-1.3c-0.8-0.1-1.6-0.1-2.4-0.1c-0.9,0-1.8,0.1-2.6,0.1V112.1z M177.6,108.2
		c-0.8,0.2-1.7,0.4-2.5,0.5l0.2-0.8c0.1-0.3,0.2-0.8,0.3-1.2l-1.7-0.1c0,0.4,0,0.8,0,1.3c0,0.3-0.1,0.6-0.2,1c-0.5,0-1,0.1-1.4,0.1
		c-0.6,0-1.1,0-1.7-0.1l0,1.4c0.5,0,1,0.1,1.7,0.1c0.4,0,0.7,0,1.1,0c-0.1,0.4-0.2,0.9-0.3,1.3c-0.6,2.2-1.3,4.2-2.4,6.2l1.5,0.5
		c0.9-2.1,1.6-4.2,2.2-6.4c0.2-0.6,0.3-1.2,0.4-1.8c0.9-0.1,1.9-0.3,2.8-0.5V108.2z M175.8,114.1c-0.1,0.6-0.2,1.2-0.2,1.7
		c0,1.4,1.2,2.1,3.4,2.1c0.9,0,1.8-0.1,2.7-0.2l0-1.4c-0.9,0.2-1.8,0.3-2.8,0.3c-1.8,0-2.1-0.6-2.1-1.2c0-0.4,0.1-0.8,0.2-1.2
		L175.8,114.1z M180.8,106.8c0.4,0.6,0.8,1.3,1.2,1.9l0.9-0.4c-0.3-0.5-0.8-1.4-1.2-1.9L180.8,106.8z M185.6,106.6
		c0,0.3,0,0.7-0.1,1c-0.3,1.8-0.5,3.7-0.5,5.5c0,1.5,0.3,3,0.8,4.4l1.2-0.1c0-0.2,0-0.4,0-0.5c0-0.2,0-0.4,0.1-0.6
		c0.3-1.1,0.6-2.2,0.9-3.2l-0.7-0.5c-0.2,0.6-0.5,1.4-0.7,1.9c-0.3-2.3-0.1-4.6,0.4-6.8c0.1-0.3,0.2-0.7,0.3-1L185.6,106.6z
		 M196.4,109.1c-0.7,0.1-1.4,0.2-2.2,0.3c0-0.8,0-1.6,0-1.9c0-0.3,0-0.6,0.1-0.9h-1.6c0.1,0.3,0.1,0.6,0.1,0.9c0,0.4,0.1,1.2,0.1,2
		c-0.6,0-1.1,0-1.7,0c-0.7,0-1.5,0-2.2-0.1v1.4c0.6,0,1.6,0.1,2.2,0.1c0.5,0,1.1,0,1.7,0v0.4c0,2.5-0.1,3.9-1.4,5.2
		c-0.4,0.4-0.9,0.7-1.5,1l1.3,1c2.9-1.8,3-3.9,3-7.1v-0.5c0.8-0.1,1.6-0.1,2.2-0.2L196.4,109.1z M207.8,110.2l-0.8,0.4
		c0.4,0.6,0.8,1.3,1.1,2l0.9-0.4C208.6,111.5,208.2,110.8,207.8,110.2z M209.3,109.6l-0.8,0.4c0.4,0.6,0.8,1.3,1.2,1.9l0.9-0.4
		C210.2,110.9,209.8,110.2,209.3,109.6L209.3,109.6z M198.6,108.1l0.1,1.5c1.6-0.3,5-0.7,6.2-0.8c-1.5,1-2.3,2.7-2.3,4.5
		c0,3.1,2.8,4.5,5.6,4.6l0.5-1.5c-2.3-0.1-4.6-0.9-4.6-3.5c0.1-1.9,1.3-3.5,3.1-4.2c0.9-0.2,1.8-0.2,2.7-0.2l0-1.4
		c-0.9,0-2.3,0.1-3.8,0.2c-2.5,0.2-5,0.4-6,0.5C199.6,108.1,199.1,108.1,198.6,108.1z M220.8,111.8c0.9,0.7,1.4,1.7,1.5,2.8
		c0,1.3-1.2,2.2-3.2,2.2c-1.5,0-2.2-0.7-2.2-2c0-0.3,0-0.7,0.1-1.2h0.5c0.9,0,1.7,0,2.6-0.1l0-1.3c-0.9,0.1-1.9,0.2-2.8,0.2H217
		c0.1-0.7,0.2-1.5,0.3-2.2h0c0.9,0,1.9,0,2.8-0.1l0-1.3c-0.9,0.1-1.8,0.2-2.7,0.2l0.2-1.3c0.1-0.3,0.1-0.7,0.2-1.1l-1.6-0.1
		c0,0.4,0,0.7,0,1.1c0,0.3-0.1,0.8-0.1,1.3c-1-0.1-2-0.2-3-0.5l-0.1,1.3c0.9,0.2,1.9,0.4,2.9,0.5c-0.1,0.7-0.2,1.5-0.3,2.2
		c-1-0.1-1.9-0.3-2.8-0.6l-0.1,1.3c0.9,0.3,1.8,0.4,2.8,0.5c-0.1,0.6-0.1,1.1-0.1,1.5c0,2.3,1.5,3.2,3.6,3.2c2.9,0,4.7-1.4,4.7-3.4
		c0-1.2-0.5-2.4-1.4-3.3L220.8,111.8z"/>
	<g>
		<path class="st9" d="M-7.5-7.5h345v308h-345V-7.5z"/>
		<path class="st2" d="M-2.5-2.5v298h335v-298H-2.5 M-7.5-7.5h345v308h-345V-7.5z"/>
	</g>
	<g transform="translate(-295.953 -3636.188)">
		<g transform="translate(297.953 3812)">
			<path class="st1" d="M20.7,47.4c-3.6,0-7.1-0.7-10.4-2.1c-3.2-1.3-6-3.3-8.5-5.7c-2.5-2.5-4.4-5.3-5.7-8.5
				C-5.3,27.8-6,24.3-6,20.7s0.7-7.1,2.1-10.4c1.3-3.2,3.3-6,5.7-8.5c2.5-2.5,5.3-4.4,8.5-5.7C13.6-5.3,17.1-6,20.7-6
				s7.1,0.7,10.4,2.1c3.2,1.3,6,3.3,8.5,5.7c2.5,2.5,4.4,5.3,5.7,8.5c1.4,3.3,2.1,6.8,2.1,10.4s-0.7,7.1-2.1,10.4
				c-1.3,3.2-3.3,6-5.7,8.5c-2.5,2.5-5.3,4.4-8.5,5.7C27.8,46.7,24.3,47.4,20.7,47.4z"/>
			<path class="st2" d="M20.7-4.5c-3.4,0-6.7,0.7-9.8,2c-3,1.3-5.7,3.1-8,5.4c-2.3,2.3-4.1,5-5.4,8c-1.3,3.1-2,6.4-2,9.8
				s0.7,6.7,2,9.8c1.3,3,3.1,5.7,5.4,8c2.3,2.3,5,4.1,8,5.4c3.1,1.3,6.4,2,9.8,2s6.7-0.7,9.8-2c3-1.3,5.7-3.1,8-5.4
				c2.3-2.3,4.1-5,5.4-8c1.3-3.1,2-6.4,2-9.8s-0.7-6.7-2-9.8c-1.3-3-3.1-5.7-5.4-8c-2.3-2.3-5-4.1-8-5.4C27.4-3.8,24.1-4.5,20.7-4.5
				 M20.7-7.5c15.6,0,28.2,12.6,28.2,28.2S36.3,48.9,20.7,48.9S-7.5,36.3-7.5,20.7S5.1-7.5,20.7-7.5z"/>
		</g>
		<path class="st1" d="M342.4,3856.3l-13.8-4.8l9.9-9.3L342.4,3856.3z"/>
		<path class="st2" d="M302.7,3831.9c-0.2,0-0.4,0-0.5-0.1c-0.1-0.1-0.2-0.3-0.2-0.5l0-0.3c0-0.2,0-0.4,0.1-0.5
			c0.1-0.1,0.3-0.2,0.5-0.2c1.2-0.1,2.7-0.3,4.3-0.5c0.1,0,0.1,0,0.1-0.1c0-0.1-0.1-0.3-0.1-0.6c0-0.2,0-0.4,0.1-0.5
			c0.1-0.1,0.3-0.2,0.4-0.3l0.5-0.1c0.2,0,0.4,0,0.5,0.1c0.1,0.1,0.2,0.3,0.3,0.4c0,0.3,0.1,0.5,0.1,0.6c0,0.1,0.1,0.1,0.1,0.1
			l2.1-0.3c0.2,0,0.4,0,0.5,0.1c0.1,0.1,0.2,0.3,0.3,0.4l0,0.3c0,0.2,0,0.4-0.1,0.5c-0.1,0.1-0.3,0.2-0.4,0.3l-1.9,0.3
			c-0.1,0-0.1,0-0.1,0.1c0.3,0.8,0.7,1.5,1.2,2.1c0.1,0.1,0.1,0.3,0.1,0.5c0,0.2-0.1,0.3-0.3,0.4l-0.5,0.3c-0.4,0.2-0.8,0.3-1.2,0.1
			c-0.6-0.2-1.3-0.3-2-0.2c-0.4,0-0.8,0.2-1.2,0.4c-0.3,0.2-0.4,0.6-0.3,0.9c0.1,1,1,1.4,2.8,1.2c0.8-0.1,1.5-0.2,2.3-0.5
			c0.2-0.1,0.4,0,0.5,0.1c0.2,0.1,0.3,0.2,0.3,0.4l0.1,0.3c0.1,0.2,0,0.4-0.1,0.5c-0.1,0.2-0.2,0.3-0.4,0.3
			c-0.8,0.2-1.7,0.4-2.6,0.5c-1.2,0.2-2.4,0-3.5-0.5c-0.8-0.5-1.3-1.3-1.4-2.2c-0.1-0.8,0.2-1.5,0.7-2c0.7-0.6,1.5-1,2.5-1
			c0.6-0.1,1.2,0,1.8,0.1l0,0l0,0c-0.3-0.4-0.5-0.9-0.6-1.4c0-0.1-0.1-0.1-0.1-0.1C305.1,3831.6,303.6,3831.8,302.7,3831.9z
			 M315.3,3834.2c-0.2,0-0.3-0.1-0.5-0.3c-0.1-0.1-0.2-0.3-0.2-0.5c0.1-0.8,0.1-1.6,0.1-2.4c0-0.2,0.1-0.4,0.2-0.5
			c0.1-0.1,0.3-0.2,0.5-0.2l0.5,0c0.2,0,0.3,0.1,0.5,0.2c0.1,0.1,0.2,0.3,0.2,0.5c0,0.5,0,1,0,1.4l0,0l0,0c0.9-0.8,2-1.3,3.2-1.4
			c0.9-0.2,1.9,0,2.8,0.4c0.7,0.5,1.1,1.3,1.1,2.1c0.1,1-0.3,2-1.1,2.6c-1.1,0.8-2.4,1.3-3.8,1.3c-0.7,0.1-1.5,0.1-2.2,0.1
			c-0.2,0-0.4-0.1-0.5-0.2c-0.1-0.1-0.2-0.3-0.2-0.5l0-0.3c0-0.2,0.1-0.4,0.2-0.5c0.1-0.1,0.3-0.2,0.5-0.2c0.8,0,1.5-0.1,2.1-0.1
			c0.8,0,1.5-0.3,2.2-0.7c0.5-0.3,0.7-0.8,0.7-1.4c-0.1-0.9-0.7-1.2-1.8-1.1c-1,0.2-2,0.7-2.9,1.3c-0.3,0.3-0.8,0.4-1.2,0.3
			L315.3,3834.2z M316.5,3827.8c1.6,0,3.1-0.1,4.5-0.2c0.2,0,0.4,0,0.5,0.1c0.1,0.1,0.2,0.3,0.2,0.5l0,0.3c0,0.2,0,0.4-0.1,0.5
			c-0.1,0.1-0.3,0.2-0.5,0.2c-1.6,0.1-3.2,0.2-4.7,0.2c-0.2,0-0.4-0.1-0.5-0.2c-0.1-0.1-0.2-0.3-0.2-0.5l0-0.3
			c0-0.2,0.1-0.4,0.2-0.5C316.1,3827.9,316.3,3827.8,316.5,3827.8L316.5,3827.8z M334.4,3826.6c0.2,0,0.4,0,0.5,0.1
			c0.1,0.1,0.2,0.3,0.2,0.5l0,0.3c0,0.2,0,0.4-0.1,0.5c-0.1,0.1-0.3,0.2-0.5,0.2l-3.8,0.4c-0.2,0-0.4,0-0.5-0.1
			c-0.1-0.1-0.2-0.3-0.2-0.5l0-0.3c0-0.2,0-0.4,0.1-0.5c0.1-0.1,0.3-0.2,0.5-0.2L334.4,3826.6z M328,3836.4c-0.2,0-0.4,0-0.5-0.1
			c-0.2-0.1-0.3-0.2-0.3-0.4c-0.5-1.4-0.7-2.8-0.9-4.3c-0.2-1.5-0.2-2.9,0-4.4c0-0.2,0.1-0.4,0.3-0.5c0.1-0.1,0.3-0.2,0.5-0.2l0.6,0
			c0.2,0,0.3,0.1,0.4,0.2c0.1,0.1,0.2,0.3,0.2,0.5c-0.1,1.4-0.1,2.8,0,4.1c0.1,1.4,0.4,2.7,0.8,4.1c0.1,0.2,0,0.4,0,0.5
			c-0.1,0.2-0.2,0.3-0.4,0.3L328,3836.4z M333.4,3835.4c-0.9,0.2-1.9,0-2.8-0.4c-0.7-0.3-1.1-1-1.2-1.7c0-0.4,0-0.7,0.2-1
			c0.2-0.4,0.4-0.8,0.6-1.2c0.1-0.2,0.3-0.3,0.4-0.3c0.2,0,0.4,0,0.5,0.1l0.3,0.2c0.2,0.1,0.3,0.2,0.3,0.4c0,0.2,0,0.4-0.1,0.5
			c-0.2,0.3-0.4,0.6-0.4,1c0,0.3,0.2,0.5,0.5,0.6c0.4,0.1,0.9,0.1,1.4,0.1c0.7-0.1,1.3-0.2,1.9-0.4c0.2-0.1,0.4,0,0.5,0.1
			c0.2,0.1,0.3,0.2,0.3,0.4l0.1,0.3c0.1,0.2,0,0.4-0.1,0.5c-0.1,0.2-0.2,0.3-0.4,0.3C334.9,3835.2,334.2,3835.3,333.4,3835.4z"/>
	</g>
</g>
</svg>
