<svg xmlns="http://www.w3.org/2000/svg" xmlns:xlink="http://www.w3.org/1999/xlink" width="315.38" height="132.78" viewBox="0 0 315.38 132.78"><defs><clipPath id="a"><rect width="246" height="4" fill="none"/></clipPath></defs><g transform="translate(-532.066 -1572)"><g transform="translate(133)"><path d="M1.848-3,1.56-3.552A2.224,2.224,0,0,1,1.68-5.88a22.874,22.874,0,0,0,2.856-6.576q.048-.192-.168-.192H3.24a1.333,1.333,0,0,1-.96-.4,1.275,1.275,0,0,1-.408-.948,1.314,1.314,0,0,1,.408-.96,1.314,1.314,0,0,1,.96-.408H4.872a.191.191,0,0,0,.216-.216v-2.592a1.293,1.293,0,0,1,.4-.948,1.293,1.293,0,0,1,.948-.4h.336a1.293,1.293,0,0,1,.948.4,1.293,1.293,0,0,1,.4.948v2.592a.191.191,0,0,0,.216.216H9.12a1.314,1.314,0,0,1,.96.408,1.314,1.314,0,0,1,.408.96,1.275,1.275,0,0,1-.408.948,1.333,1.333,0,0,1-.96.4H8.76a.115.115,0,0,0-.108.072.1.1,0,0,0,.012.12q.816,1.368,2.424,4.224a.1.1,0,0,0,.072.024q.048,0,.048-.024V-17.52a1.333,1.333,0,0,1,.4-.96,1.275,1.275,0,0,1,.948-.408h9.12a1.314,1.314,0,0,1,.96.408,1.314,1.314,0,0,1,.408.96V.648a1.275,1.275,0,0,1-.408.948,1.333,1.333,0,0,1-.96.4H20.9a.948.948,0,0,1-.7-.288.921.921,0,0,1-.288-.672.127.127,0,0,0-.144-.144h-5.4a.127.127,0,0,0-.144.144.909.909,0,0,1-.288.684.941.941,0,0,1-.672.276h-.72a1.293,1.293,0,0,1-.948-.4,1.293,1.293,0,0,1-.4-.948V-6.264a.042.042,0,0,0-.048-.048.1.1,0,0,0-.072.024,1.373,1.373,0,0,1-.24.264.982.982,0,0,1-.876.24.945.945,0,0,1-.708-.552q-.5-1.056-1.056-2.112a.054.054,0,0,0-.06-.012.055.055,0,0,0-.036.06V.888a1.293,1.293,0,0,1-.4.948,1.293,1.293,0,0,1-.948.4H6.432a1.293,1.293,0,0,1-.948-.4,1.293,1.293,0,0,1-.4-.948V-6.888q-.024-.024-.072.024a19.95,19.95,0,0,1-1.8,3.936.723.723,0,0,1-.7.36A.761.761,0,0,1,1.848-3ZM14.232-16.08V-13.3a.191.191,0,0,0,.216.216H19.7a.191.191,0,0,0,.216-.216V-16.08q0-.192-.216-.192H14.448Q14.232-16.272,14.232-16.08Zm0,5.736V-7.56q0,.192.216.192H19.7q.216,0,.216-.192v-2.784a.191.191,0,0,0-.216-.216H14.448A.191.191,0,0,0,14.232-10.344Zm0,5.712v2.784a.191.191,0,0,0,.216.216H19.7a.191.191,0,0,0,.216-.216V-4.632a.191.191,0,0,0-.216-.216H14.448A.191.191,0,0,0,14.232-4.632Zm32.376-3.7A.656.656,0,0,1,47.016-8a.589.589,0,0,1,.048.516,20.251,20.251,0,0,1-1.152,2.9,1.307,1.307,0,0,1-.8.72,1.51,1.51,0,0,1-1.092-.024l-.048-.024a1.115,1.115,0,0,1-.684-.708,1.177,1.177,0,0,1,.084-1A20.506,20.506,0,0,0,44.52-8.472a.239.239,0,0,0-.12-.312,10.273,10.273,0,0,1-3.816-3.48q-.12-.168-.216-.024A10.335,10.335,0,0,1,35.952-8.52a.058.058,0,0,0-.036.072.107.107,0,0,0,.06.072l.672.144a1.281,1.281,0,0,1,.852.612,1.187,1.187,0,0,1,.132,1.02,24.352,24.352,0,0,1-.864,2.328,1.356,1.356,0,0,1-.756.732,1.488,1.488,0,0,1-1.068.012,1.078,1.078,0,0,1-.7-.684,1.265,1.265,0,0,1,.024-1,17.916,17.916,0,0,0,.984-2.928q0-.072-.072-.048a.7.7,0,0,1-.552-.036.7.7,0,0,1-.36-.42l-.264-.792a1.43,1.43,0,0,1,.06-1.044,1.358,1.358,0,0,1,.756-.732,6.653,6.653,0,0,0,3.1-2.352,6.877,6.877,0,0,0,.912-3.768v-.744a1.314,1.314,0,0,1,.408-.96,1.314,1.314,0,0,1,.96-.408h.312a1.314,1.314,0,0,1,.96.408,1.314,1.314,0,0,1,.408.96v.744a6.684,6.684,0,0,0,.948,3.756,6.985,6.985,0,0,0,3.2,2.388,1.412,1.412,0,0,1,.768.72,1.36,1.36,0,0,1,.072,1.032l-.336.984Q46.512-8.376,46.608-8.328ZM35.3-13.536a1.078,1.078,0,0,1-.7-.672,1.237,1.237,0,0,1,.024-.984,20.649,20.649,0,0,0,.744-2.064,1.38,1.38,0,0,1,.648-.8,1.355,1.355,0,0,1,1.008-.156,1.241,1.241,0,0,1,.84.612,1.211,1.211,0,0,1,.12,1.02,24.354,24.354,0,0,1-.864,2.328,1.311,1.311,0,0,1-.756.72A1.533,1.533,0,0,1,35.3-13.536Zm8.544-.36a1.116,1.116,0,0,1-.684-.72,1.143,1.143,0,0,1,.084-.984,15.511,15.511,0,0,0,.864-1.968,1.471,1.471,0,0,1,.684-.8,1.308,1.308,0,0,1,1.02-.132,1.242,1.242,0,0,1,.816.636,1.265,1.265,0,0,1,.1,1.02,21.29,21.29,0,0,1-.936,2.256,1.307,1.307,0,0,1-.8.72A1.51,1.51,0,0,1,43.9-13.9ZM40.512-9.768a1.314,1.314,0,0,1,.96.408,1.314,1.314,0,0,1,.408.96v1.2a6.511,6.511,0,0,0,.972,3.732A7.146,7.146,0,0,0,46.128-1.08a1.454,1.454,0,0,1,.78.732A1.359,1.359,0,0,1,46.992.7L46.92.864a1.362,1.362,0,0,1-.7.8,1.094,1.094,0,0,1-1.008.012,10.113,10.113,0,0,1-4.608-3.84q-.12-.168-.216-.024A10.092,10.092,0,0,1,35.784,1.68a1.094,1.094,0,0,1-1.008-.012,1.362,1.362,0,0,1-.7-.8L34.008.7a1.43,1.43,0,0,1,.06-1.044,1.358,1.358,0,0,1,.756-.732,6.653,6.653,0,0,0,3.1-2.352A6.877,6.877,0,0,0,38.832-7.2V-8.4a1.314,1.314,0,0,1,.408-.96,1.314,1.314,0,0,1,.96-.408ZM26.64-16.416a1.139,1.139,0,0,1-.852-.36,1.2,1.2,0,0,1-.348-.864,1.159,1.159,0,0,1,.348-.852,1.159,1.159,0,0,1,.852-.348h5.424a1.2,1.2,0,0,1,.864.348,1.139,1.139,0,0,1,.36.852,1.178,1.178,0,0,1-.36.864,1.178,1.178,0,0,1-.864.36Zm-.552,3.6a1.234,1.234,0,0,1-.924-.384,1.266,1.266,0,0,1-.372-.912,1.266,1.266,0,0,1,.372-.912,1.234,1.234,0,0,1,.924-.384h6.456a1.246,1.246,0,0,1,.912.384,1.246,1.246,0,0,1,.384.912,1.246,1.246,0,0,1-.384.912,1.246,1.246,0,0,1-.912.384Zm.72,3.408a1.131,1.131,0,0,1-.828-.348,1.131,1.131,0,0,1-.348-.828,1.131,1.131,0,0,1,.348-.828,1.131,1.131,0,0,1,.828-.348h5.256a1.131,1.131,0,0,1,.828.348,1.131,1.131,0,0,1,.348.828,1.131,1.131,0,0,1-.348.828,1.131,1.131,0,0,1-.828.348Zm0,3.384a1.131,1.131,0,0,1-.828-.348,1.131,1.131,0,0,1-.348-.828,1.092,1.092,0,0,1,.348-.816,1.151,1.151,0,0,1,.828-.336h5.256a1.151,1.151,0,0,1,.828.336,1.092,1.092,0,0,1,.348.816,1.131,1.131,0,0,1-.348.828,1.131,1.131,0,0,1-.828.348ZM25.44,1.008V-3.6a1.314,1.314,0,0,1,.408-.96,1.314,1.314,0,0,1,.96-.408h5.184a1.314,1.314,0,0,1,.96.408,1.314,1.314,0,0,1,.408.96V.12a1.314,1.314,0,0,1-.408.96,1.314,1.314,0,0,1-.96.408h-3.6q-.12,0-.12.1a.739.739,0,0,1-.768.768h-.7a1.333,1.333,0,0,1-.96-.4A1.275,1.275,0,0,1,25.44,1.008Zm2.832-3.456v1.416a.191.191,0,0,0,.216.216h2.064a.191.191,0,0,0,.216-.216V-2.448a.191.191,0,0,0-.216-.216H28.488A.191.191,0,0,0,28.272-2.448ZM50.328-9.792a1.314,1.314,0,0,1-.96-.408,1.314,1.314,0,0,1-.408-.96,1.314,1.314,0,0,1,.408-.96,1.314,1.314,0,0,1,.96-.408h1.1a.17.17,0,0,0,.192-.192.348.348,0,0,0-.168-.288l-1.176-.7a.991.991,0,0,1-.516-.78,1.114,1.114,0,0,1,.276-.9A29.6,29.6,0,0,0,52.9-19.152a2.076,2.076,0,0,1,.9-.756,1.821,1.821,0,0,1,1.14-.132l.528.12a1.013,1.013,0,0,1,.72.588.9.9,0,0,1-.048.9q-.024.024-.072.084a.184.184,0,0,0-.048.084.1.1,0,0,0-.012.12.115.115,0,0,0,.108.072h12.7a1.226,1.226,0,0,1,.9.372,1.226,1.226,0,0,1,.372.9,1.226,1.226,0,0,1-.372.9,1.226,1.226,0,0,1-.9.372h-.216a.191.191,0,0,0-.216.216v2.592q0,.192.216.192h1.08a1.314,1.314,0,0,1,.96.408,1.314,1.314,0,0,1,.408.96,1.314,1.314,0,0,1-.408.96,1.314,1.314,0,0,1-.96.408h-1.08q-.216,0-.216.192v2.784a.191.191,0,0,0,.216.216h.72a1.207,1.207,0,0,1,.888.36,1.207,1.207,0,0,1,.36.888,1.167,1.167,0,0,1-.36.876,1.228,1.228,0,0,1-.888.348H50.688a1.228,1.228,0,0,1-.888-.348,1.167,1.167,0,0,1-.36-.876,1.207,1.207,0,0,1,.36-.888,1.207,1.207,0,0,1,.888-.36h.72a.191.191,0,0,0,.216-.216V-9.6q0-.192-.216-.192Zm13.416-5.52v2.592a.17.17,0,0,0,.192.192h1.152q.216,0,.216-.192v-2.592a.191.191,0,0,0-.216-.216H63.936Q63.744-15.528,63.744-15.312Zm0,5.712v2.784q0,.216.192.216h1.152a.191.191,0,0,0,.216-.216V-9.6q0-.192-.216-.192H63.936A.17.17,0,0,0,63.744-9.6Zm-4.56-5.712v2.592a.17.17,0,0,0,.192.192h1.248a.17.17,0,0,0,.192-.192v-2.592q0-.216-.192-.216H59.376Q59.184-15.528,59.184-15.312Zm0,5.712v2.784q0,.216.192.216h1.248q.192,0,.192-.216V-9.6a.17.17,0,0,0-.192-.192H59.376A.17.17,0,0,0,59.184-9.6ZM54.7-15.312v2.592q0,.192.216.192h1.152a.17.17,0,0,0,.192-.192v-2.592q0-.216-.192-.216H54.912A.191.191,0,0,0,54.7-15.312Zm0,5.712v2.784a.191.191,0,0,0,.216.216h1.152q.192,0,.192-.216V-9.6a.17.17,0,0,0-.192-.192H54.912Q54.7-9.792,54.7-9.6ZM53.424-3.312l.144.072a1.317,1.317,0,0,1,.672.792,1.181,1.181,0,0,1-.12,1.008q-.864,1.464-1.8,2.784a1.414,1.414,0,0,1-.912.564,1.4,1.4,0,0,1-1.056-.2l-.168-.12A1.222,1.222,0,0,1,49.62.756a1.212,1.212,0,0,1,.228-1q.768-1.056,1.656-2.5a1.531,1.531,0,0,1,.852-.648A1.456,1.456,0,0,1,53.424-3.312Zm3.864.168a1.4,1.4,0,0,1,1.044.276,1.385,1.385,0,0,1,.564.9q.1.528.384,2.616a1.228,1.228,0,0,1-.288.984,1.382,1.382,0,0,1-.912.5l-.288.048a1.263,1.263,0,0,1-1-.288A1.365,1.365,0,0,1,56.28.984Q56.04-.7,55.9-1.584a1.258,1.258,0,0,1,.228-1A1.239,1.239,0,0,1,57-3.1Zm4.7-.1a1.61,1.61,0,0,1,1.092.144,1.4,1.4,0,0,1,.708.792q.24.672.912,2.664a1.176,1.176,0,0,1-.108,1,1.208,1.208,0,0,1-.8.588l-.216.072a1.412,1.412,0,0,1-1.056-.18,1.559,1.559,0,0,1-.7-.852q-.456-1.44-.888-2.592A1.148,1.148,0,0,1,61-2.592a1.124,1.124,0,0,1,.78-.6ZM66.6-3.408a1.523,1.523,0,0,1,1.08-.132,1.387,1.387,0,0,1,.888.612q.72,1.032,1.7,2.664a1.271,1.271,0,0,1,.144,1.02,1.246,1.246,0,0,1-.624.8l-.144.072A1.36,1.36,0,0,1,68.6,1.74a1.477,1.477,0,0,1-.852-.636q-.864-1.392-1.7-2.64a1.2,1.2,0,0,1-.192-.984,1.162,1.162,0,0,1,.6-.792Zm20.736-9.648q-1.248-1.32-2.376-2.424a1.274,1.274,0,0,1-.384-.936,1.274,1.274,0,0,1,.384-.936l.12-.1a1.436,1.436,0,0,1,1.02-.408,1.355,1.355,0,0,1,1,.408q.864.816,2.376,2.376a1.23,1.23,0,0,1,.348.96,1.455,1.455,0,0,1-.444.96l-.144.144a1.248,1.248,0,0,1-.948.372A1.29,1.29,0,0,1,87.336-13.056Zm-3.6,1.392.12-.12a1.422,1.422,0,0,1,1.008-.408,1.341,1.341,0,0,1,.984.408q1.248,1.176,2.88,2.88a1.284,1.284,0,0,1,.36.972,1.417,1.417,0,0,1-.432.972l-.144.144a1.248,1.248,0,0,1-.948.372,1.29,1.29,0,0,1-.948-.42Q85.2-8.4,83.712-9.816a1.26,1.26,0,0,1-.384-.924A1.224,1.224,0,0,1,83.736-11.664ZM94.512-6.12a1.167,1.167,0,0,1,1,.216A1.18,1.18,0,0,1,96-5.04,1.52,1.52,0,0,1,95.712-4a1.446,1.446,0,0,1-.912.588l-.744.144A.241.241,0,0,0,93.864-3V.888a1.275,1.275,0,0,1-.408.948,1.333,1.333,0,0,1-.96.4h-.384a1.333,1.333,0,0,1-.96-.4,1.275,1.275,0,0,1-.408-.948v-3.24q0-.216-.192-.168L83.784-1.128a1.167,1.167,0,0,1-1-.216,1.18,1.18,0,0,1-.492-.864,1.52,1.52,0,0,1,.288-1.044A1.446,1.446,0,0,1,83.5-3.84L90.552-5.3a.227.227,0,0,0,.192-.24V-18.168a1.275,1.275,0,0,1,.408-.948,1.333,1.333,0,0,1,.96-.4H92.5a1.333,1.333,0,0,1,.96.4,1.275,1.275,0,0,1,.408.948V-6.192q0,.216.192.168ZM73.68-1.392l-.24-.576A2.244,2.244,0,0,1,73.7-4.3,20.359,20.359,0,0,0,76.128-9.12q.048-.192-.144-.192H74.736a1.246,1.246,0,0,1-.912-.384,1.246,1.246,0,0,1-.384-.912,1.207,1.207,0,0,1,.384-.9,1.266,1.266,0,0,1,.912-.372H76.56a.191.191,0,0,0,.216-.216v-.768q0-.192-.192-.144l-.552.192a1.171,1.171,0,0,1-1.008-.072,1.243,1.243,0,0,1-.624-.792q-.216-.816-.864-2.928a1.231,1.231,0,0,1,.084-.936,1.212,1.212,0,0,1,.708-.624,1.128,1.128,0,0,1,.924.06,1.13,1.13,0,0,1,.588.708q.552,1.776.888,3.192a.021.021,0,0,0,.024.024.021.021,0,0,0,.024-.024v-3.96a1.293,1.293,0,0,1,.4-.948,1.293,1.293,0,0,1,.948-.4h.1a1.293,1.293,0,0,1,.948.4,1.293,1.293,0,0,1,.4.948V-14.3q.024.024.072,0a32.931,32.931,0,0,0,.912-3.168,1.242,1.242,0,0,1,.54-.78,1.21,1.21,0,0,1,.924-.18,1.242,1.242,0,0,1,.78.54,1.136,1.136,0,0,1,.156.924q-.408,1.584-.984,3.336a1.228,1.228,0,0,1-.684.768,1.318,1.318,0,0,1-1.044.048l-.48-.192q-.192-.048-.192.144v.768a.191.191,0,0,0,.216.216h1.44a1.226,1.226,0,0,1,.9.372,1.226,1.226,0,0,1,.372.9,1.266,1.266,0,0,1-.372.912,1.207,1.207,0,0,1-.9.384h-.528a.118.118,0,0,0-.108.06.108.108,0,0,0-.012.108q.6,1.152,1.776,3.5A1.566,1.566,0,0,1,82.5-4.584a1.647,1.647,0,0,1-.54.936.875.875,0,0,1-.816.2.9.9,0,0,1-.648-.54q-.144-.288-.408-.912T79.7-5.808q-.024-.048-.06-.048t-.036.048v6.7a1.275,1.275,0,0,1-.408.948,1.333,1.333,0,0,1-.96.4H78.1a1.333,1.333,0,0,1-.96-.4,1.275,1.275,0,0,1-.408-.948V-4.656q0-.048-.024-.048a.069.069,0,0,0-.048.024A17.657,17.657,0,0,1,75-1.272a.668.668,0,0,1-.684.336A.752.752,0,0,1,73.68-1.392ZM107.856-5.28a1.362,1.362,0,0,1-.984-.4,1.387,1.387,0,0,1-.432-.972l-.36-9.5a1.269,1.269,0,0,1,.36-.96,1.237,1.237,0,0,1,.936-.408h1.3a1.237,1.237,0,0,1,.936.408,1.269,1.269,0,0,1,.36.96l-.36,9.5a1.387,1.387,0,0,1-.432.972,1.362,1.362,0,0,1-.984.4Zm.576,1.92a1.275,1.275,0,0,1,.948.408,1.333,1.333,0,0,1,.4.96v.624a1.333,1.333,0,0,1-.4.96,1.275,1.275,0,0,1-.948.408h-.816a1.275,1.275,0,0,1-.948-.408,1.333,1.333,0,0,1-.4-.96v-.624a1.333,1.333,0,0,1,.4-.96,1.275,1.275,0,0,1,.948-.408Z" transform="translate(573 1596)" fill="#ffd800"/></g><g transform="translate(57)"><rect width="71" height="31" rx="2" transform="translate(571 1572)" fill="#ffd800"/><path d="M6.84-6.18A4.971,4.971,0,0,0,4.72-5.04,2.2,2.2,0,0,0,4-3.46a1.887,1.887,0,0,0,.63,1.39A1.939,1.939,0,0,0,6-1.46a1.026,1.026,0,0,0,.79-.24A1.41,1.41,0,0,0,7-2.6V-6.06Q7-6.22,6.84-6.18ZM6.26.8A4.972,4.972,0,0,1,2.86-.43a3.877,3.877,0,0,1-1.4-3.03A4.308,4.308,0,0,1,2.87-6.58,8.4,8.4,0,0,1,6.84-8.62.2.2,0,0,0,7-8.84v-2.52a.159.159,0,0,0-.18-.18H3.4a1.022,1.022,0,0,1-.75-.31,1.022,1.022,0,0,1-.31-.75,1.022,1.022,0,0,1,.31-.75,1.022,1.022,0,0,1,.75-.31H6.82A.159.159,0,0,0,7-13.84V-15a1.1,1.1,0,0,1,.34-.8,1.1,1.1,0,0,1,.8-.34H8.4a1.1,1.1,0,0,1,.8.34,1.1,1.1,0,0,1,.34.8v1.16q0,.18.16.18h3.16a1.055,1.055,0,0,1,.76.31,1.006,1.006,0,0,1,.32.75,1.006,1.006,0,0,1-.32.75,1.055,1.055,0,0,1-.76.31H9.7q-.16,0-.16.18V-9.2q0,.16.18.16.32-.02,1.02-.02a7.706,7.706,0,0,1,4.78,1.38,4.084,4.084,0,0,1,1.82,3.34q0,4.26-4.6,5.22a1.109,1.109,0,0,1-.88-.17,1.234,1.234,0,0,1-.52-.75L11.32-.1a1.023,1.023,0,0,1,.15-.82,1.086,1.086,0,0,1,.69-.48,3.733,3.733,0,0,0,1.96-1.01,2.576,2.576,0,0,0,.62-1.79,2.081,2.081,0,0,0-1.09-1.73,5.154,5.154,0,0,0-2.91-.73q-.7,0-1.02.02a.159.159,0,0,0-.18.18v4A3.543,3.543,0,0,1,8.82.09,3.617,3.617,0,0,1,6.26.8ZM17-13.58q1.08,1.46,1.88,2.74a1.034,1.034,0,0,1,.13.83,1.018,1.018,0,0,1-.49.67,1.121,1.121,0,0,1-.84.11A1.087,1.087,0,0,1,17-9.72q-.96-1.5-1.76-2.6a1.072,1.072,0,0,1-.2-.8,1,1,0,0,1,.42-.7,1.117,1.117,0,0,1,.83-.19A1.038,1.038,0,0,1,17-13.58ZM21.5.78l-.02-.1a.98.98,0,0,1,.09-.83,1.007,1.007,0,0,1,.67-.49q3.66-.9,4.24-3.1.04-.16-.12-.16H24.08a1.1,1.1,0,0,1-.8-.34,1.1,1.1,0,0,1-.34-.8V-14.7a1.1,1.1,0,0,1,.34-.8,1.1,1.1,0,0,1,.8-.34H36.2a1.1,1.1,0,0,1,.8.34,1.1,1.1,0,0,1,.34.8v9.66a1.1,1.1,0,0,1-.34.8,1.1,1.1,0,0,1-.8.34H33.64q-.16,0-.16.18v2.48q0,.46.1.55a1.212,1.212,0,0,0,.6.11q.08,0,.28.01t.28.01q.1,0,.3-.01t.3-.01a1.089,1.089,0,0,0,.82-.25,3.109,3.109,0,0,0,.26-1.31.989.989,0,0,1,.37-.75,1.077,1.077,0,0,1,.81-.25l.28.02a1.1,1.1,0,0,1,.77.41,1.175,1.175,0,0,1,.29.83q-.06.86-.13,1.38a3.356,3.356,0,0,1-.26.94,2.267,2.267,0,0,1-.37.61,1.347,1.347,0,0,1-.63.31,4.669,4.669,0,0,1-.87.15q-.42.03-1.26.05H33.58a6.13,6.13,0,0,1-2.32-.31Q30.8.98,30.8-.02v-3.7q0-.18-.16-.18H29.4a.189.189,0,0,0-.2.16Q28.46.24,22.98,1.62a1.15,1.15,0,0,1-.9-.13A1.3,1.3,0,0,1,21.5.78ZM25.6-13.5v.98a.159.159,0,0,0,.18.18H34.5a.159.159,0,0,0,.18-.18v-.98q0-.16-.18-.16H25.78Q25.6-13.66,25.6-13.5Zm0,3.18v.96a.159.159,0,0,0,.18.18H34.5a.159.159,0,0,0,.18-.18v-.96a.159.159,0,0,0-.18-.18H25.78A.159.159,0,0,0,25.6-10.32Zm.18,4.3H34.5q.18,0,.18-.16v-.98a.159.159,0,0,0-.18-.18H25.78a.159.159,0,0,0-.18.18v.98Q25.6-6.02,25.78-6.02Zm15.7,4.04-.2-.44a2.21,2.21,0,0,1,.1-2.02,17.914,17.914,0,0,0,1.76-4.42.121.121,0,0,0-.03-.12A.143.143,0,0,0,43-9.04h-.62a1.061,1.061,0,0,1-.78-.32,1.061,1.061,0,0,1-.32-.78,1.061,1.061,0,0,1,.32-.78,1.061,1.061,0,0,1,.78-.32h.66a.141.141,0,0,0,.16-.16v-1.72a.188.188,0,0,0-.05-.12.1.1,0,0,0-.11-.04l-.36.06a1.089,1.089,0,0,1-.79-.23.972.972,0,0,1-.39-.71.975.975,0,0,1,.24-.75,1.108,1.108,0,0,1,.72-.39,29.706,29.706,0,0,0,3.88-.74,1.113,1.113,0,0,1,.79.09,1.016,1.016,0,0,1,.51.59q.04.16.18.08a.983.983,0,0,1,.36-.08H52a.124.124,0,0,0,.14-.14.91.91,0,0,1,.29-.68.959.959,0,0,1,.69-.28h.78a.959.959,0,0,1,.69.28.91.91,0,0,1,.29.68.124.124,0,0,0,.14.14h3.66a.87.87,0,0,1,.64.26.87.87,0,0,1,.26.64.87.87,0,0,1-.26.64.87.87,0,0,1-.64.26H55.04q-.16,0-.16.18v.2q0,.18.16.18h3.34a.694.694,0,0,1,.51.21.694.694,0,0,1,.21.51.694.694,0,0,1-.21.51.694.694,0,0,1-.51.21H55.04a.141.141,0,0,0-.16.16v.2q0,.18.16.18h4.08a.84.84,0,0,1,.6.25.792.792,0,0,1,.26.59.792.792,0,0,1-.26.59.84.84,0,0,1-.6.25H47.92a.814.814,0,0,1-.66-.32q-.08-.12-.16,0a1.03,1.03,0,0,1-1,.62h-.14a.1.1,0,0,0-.09.05.067.067,0,0,0,.01.09q.06.1,1.66,3a.064.064,0,0,0,.06-.04V-7.66a1.1,1.1,0,0,1,.34-.8,1.1,1.1,0,0,1,.8-.34h9.24a1.062,1.062,0,0,1,.79.34,1.111,1.111,0,0,1,.33.8v5.2a1.078,1.078,0,0,1-.33.79,1.078,1.078,0,0,1-.79.33h-1.6q-.02.02,0,.06,1.44.52,2.78,1.14a.973.973,0,0,1,.52.58.941.941,0,0,1-.06.78.9.9,0,0,1-.58.5,1.055,1.055,0,0,1-.78-.06Q56.84.98,55.24.4a1.027,1.027,0,0,1-.62-.58,1.025,1.025,0,0,1,0-.84l.06-.16q.08-.16-.1-.16h-2.7a.1.1,0,0,0-.09.06.079.079,0,0,0,.01.1l.02.04a1.211,1.211,0,0,1,.1.89,1.032,1.032,0,0,1-.54.69,19.875,19.875,0,0,1-3.24,1.32,1.055,1.055,0,0,1-.78-.06,1.132,1.132,0,0,1-.56-.58.852.852,0,0,1-.01-.71.813.813,0,0,1,.53-.47,24.561,24.561,0,0,0,3.02-1.2.068.068,0,0,0,.02-.05q0-.03-.04-.03H48.74a1.111,1.111,0,0,1-.8-.33,1.062,1.062,0,0,1-.34-.79V-4.3a.064.064,0,0,0-.04-.06.04.04,0,0,0-.06.02.46.46,0,0,1-.16.16.718.718,0,0,1-.67.14.784.784,0,0,1-.53-.44q-.22-.48-.46-.98a.068.068,0,0,0-.05-.02q-.03,0-.03.02V.74a1.078,1.078,0,0,1-.33.79,1.078,1.078,0,0,1-.79.33h-.14a1.111,1.111,0,0,1-.8-.33A1.062,1.062,0,0,1,43.2.74V-3.6a.058.058,0,0,0-.04-.02,14.118,14.118,0,0,1-.68,1.7.482.482,0,0,1-.51.29A.551.551,0,0,1,41.48-1.98Zm8.8-5.08v.2a.141.141,0,0,0,.16.16H56.2q.18,0,.18-.16v-.2a.159.159,0,0,0-.18-.18H50.44Q50.28-7.24,50.28-7.06Zm0,1.86V-5q0,.18.16.18H56.2A.159.159,0,0,0,56.38-5v-.2q0-.16-.18-.16H50.44A.141.141,0,0,0,50.28-5.2Zm0,1.88v.2a.141.141,0,0,0,.16.16H56.2q.18,0,.18-.16v-.2a.159.159,0,0,0-.18-.18H50.44Q50.28-3.5,50.28-3.32ZM45.6-13.54v2.14q0,.16.18.16h.32a1.023,1.023,0,0,1,.98.58q.08.1.14,0a.82.82,0,0,1,.7-.36h4.04a.159.159,0,0,0,.18-.18v-.2q0-.16-.18-.16h-3.4a.694.694,0,0,1-.51-.21.694.694,0,0,1-.21-.51.694.694,0,0,1,.21-.51.694.694,0,0,1,.51-.21h3.4a.159.159,0,0,0,.18-.18v-.2a.159.159,0,0,0-.18-.18H48.18a.839.839,0,0,1-.82-.5q-.08-.14-.2-.08a.776.776,0,0,1-.1.04.217.217,0,0,0-.08.04q-.44.14-1.2.32A.2.2,0,0,0,45.6-13.54Z" transform="translate(577 1595)" fill="#454d4c"/></g><rect width="52" height="31" rx="2" transform="translate(571 1572)" fill="#ffd800"/><path d="M2.14-13.26a1.1,1.1,0,0,1-.8-.34A1.1,1.1,0,0,1,1-14.4v-.06a1.1,1.1,0,0,1,.34-.8,1.1,1.1,0,0,1,.8-.34H17.86a1.1,1.1,0,0,1,.8.34,1.1,1.1,0,0,1,.34.8v.06a1.1,1.1,0,0,1-.34.8,1.1,1.1,0,0,1-.8.34H10.84q-.18,0-.18.16v2.04q0,.14.18.22l.02.02a67.538,67.538,0,0,1,6.16,3.54,1.035,1.035,0,0,1,.48.71,1.143,1.143,0,0,1-.18.85l-.14.22a1.1,1.1,0,0,1-.73.47,1.086,1.086,0,0,1-.85-.17q-2.26-1.48-4.8-2.88a.067.067,0,0,0-.09-.01.1.1,0,0,0-.05.09V.4a1.111,1.111,0,0,1-.33.8,1.062,1.062,0,0,1-.79.34H9.06a1.062,1.062,0,0,1-.79-.34A1.111,1.111,0,0,1,7.94.4V-13.1q0-.16-.18-.16ZM21.5.78l-.02-.1a.98.98,0,0,1,.09-.83,1.007,1.007,0,0,1,.67-.49q3.66-.9,4.24-3.1.04-.16-.12-.16H24.08a1.1,1.1,0,0,1-.8-.34,1.1,1.1,0,0,1-.34-.8V-14.7a1.1,1.1,0,0,1,.34-.8,1.1,1.1,0,0,1,.8-.34H36.2a1.1,1.1,0,0,1,.8.34,1.1,1.1,0,0,1,.34.8v9.66a1.1,1.1,0,0,1-.34.8,1.1,1.1,0,0,1-.8.34H33.64q-.16,0-.16.18v2.48q0,.46.1.55a1.212,1.212,0,0,0,.6.11q.08,0,.28.01t.28.01q.1,0,.3-.01t.3-.01a1.089,1.089,0,0,0,.82-.25,3.109,3.109,0,0,0,.26-1.31.989.989,0,0,1,.37-.75,1.077,1.077,0,0,1,.81-.25l.28.02a1.1,1.1,0,0,1,.77.41,1.175,1.175,0,0,1,.29.83q-.06.86-.13,1.38a3.356,3.356,0,0,1-.26.94,2.267,2.267,0,0,1-.37.61,1.347,1.347,0,0,1-.63.31,4.669,4.669,0,0,1-.87.15q-.42.03-1.26.05H33.58a6.13,6.13,0,0,1-2.32-.31Q30.8.98,30.8-.02v-3.7q0-.18-.16-.18H29.4a.189.189,0,0,0-.2.16Q28.46.24,22.98,1.62a1.15,1.15,0,0,1-.9-.13A1.3,1.3,0,0,1,21.5.78ZM25.6-13.5v.98a.159.159,0,0,0,.18.18H34.5a.159.159,0,0,0,.18-.18v-.98q0-.16-.18-.16H25.78Q25.6-13.66,25.6-13.5Zm0,3.18v.96a.159.159,0,0,0,.18.18H34.5a.159.159,0,0,0,.18-.18v-.96a.159.159,0,0,0-.18-.18H25.78A.159.159,0,0,0,25.6-10.32Zm.18,4.3H34.5q.18,0,.18-.16v-.98a.159.159,0,0,0-.18-.18H25.78a.159.159,0,0,0-.18.18v.98Q25.6-6.02,25.78-6.02Z" transform="translate(577 1595)" fill="#454d4c"/><path d="M-153.636-12.978a10.44,10.44,0,0,0-4.452,2.394A4.616,4.616,0,0,0-159.6-7.266a3.962,3.962,0,0,0,1.323,2.919A4.072,4.072,0,0,0-155.4-3.066a2.154,2.154,0,0,0,1.659-.5,2.961,2.961,0,0,0,.441-1.89v-7.266Q-153.3-13.062-153.636-12.978ZM-154.854,1.68A10.441,10.441,0,0,1-161.994-.9a8.143,8.143,0,0,1-2.94-6.363,9.046,9.046,0,0,1,2.961-6.552,17.629,17.629,0,0,1,8.337-4.284.422.422,0,0,0,.336-.462v-5.292a.334.334,0,0,0-.378-.378h-7.182a2.145,2.145,0,0,1-1.575-.651,2.145,2.145,0,0,1-.651-1.575,2.145,2.145,0,0,1,.651-1.575,2.145,2.145,0,0,1,1.575-.651h7.182a.334.334,0,0,0,.378-.378V-31.5a2.3,2.3,0,0,1,.714-1.68,2.3,2.3,0,0,1,1.68-.714h.546a2.3,2.3,0,0,1,1.68.714,2.3,2.3,0,0,1,.714,1.68v2.436q0,.378.336.378h6.636a2.216,2.216,0,0,1,1.6.651,2.112,2.112,0,0,1,.672,1.575,2.112,2.112,0,0,1-.672,1.575,2.216,2.216,0,0,1-1.6.651h-6.636q-.336,0-.336.378v4.536q0,.336.378.336.672-.042,2.142-.042,6.216,0,10.038,2.9a8.575,8.575,0,0,1,3.822,7.014q0,8.946-9.66,10.962a2.328,2.328,0,0,1-1.848-.357,2.592,2.592,0,0,1-1.092-1.575l-.042-.126a2.148,2.148,0,0,1,.315-1.722,2.281,2.281,0,0,1,1.449-1.008,7.838,7.838,0,0,0,4.116-2.121,5.41,5.41,0,0,0,1.3-3.759,4.371,4.371,0,0,0-2.289-3.633,10.824,10.824,0,0,0-6.111-1.533q-1.47,0-2.142.042a.334.334,0,0,0-.378.378v8.4q0,3.864-1.512,5.355T-154.854,1.68Zm22.554-30.2q2.268,3.066,3.948,5.754a2.172,2.172,0,0,1,.273,1.743,2.138,2.138,0,0,1-1.029,1.407,2.354,2.354,0,0,1-1.764.231,2.284,2.284,0,0,1-1.428-1.029q-2.016-3.15-3.7-5.46a2.251,2.251,0,0,1-.42-1.68,2.092,2.092,0,0,1,.882-1.47,2.345,2.345,0,0,1,1.743-.4A2.179,2.179,0,0,1-132.3-28.518ZM-121.086,3.7A2.333,2.333,0,0,1-122.766,3a2.231,2.231,0,0,1-.714-1.659V-31.08a2.3,2.3,0,0,1,.714-1.68,2.3,2.3,0,0,1,1.68-.714h12.432a2.3,2.3,0,0,1,1.68.714,2.3,2.3,0,0,1,.714,1.68V-19.4a2.3,2.3,0,0,1-.714,1.68,2.3,2.3,0,0,1-1.68.714h-9.072a.334.334,0,0,0-.378.378V1.344A2.264,2.264,0,0,1-118.8,3a2.263,2.263,0,0,1-1.659.693Zm2.982-32.55v1.722a.334.334,0,0,0,.378.378h6.426q.336,0,.336-.378v-1.722q0-.378-.336-.378h-6.426A.334.334,0,0,0-118.1-28.854Zm0,6.006v1.722a.334.334,0,0,0,.378.378h6.426q.336,0,.336-.378v-1.722a.3.3,0,0,0-.336-.336h-6.426Q-118.1-23.184-118.1-22.848Zm29.19-10.626a2.3,2.3,0,0,1,1.68.714,2.3,2.3,0,0,1,.714,1.68v27.8q0,1.722-.063,2.709a7.723,7.723,0,0,1-.336,1.848A3.069,3.069,0,0,1-87.57,2.52a3.056,3.056,0,0,1-1.2.651,7.039,7.039,0,0,1-1.764.336q-.945.063-2.583.063-1.764,0-3.318-.084a2.345,2.345,0,0,1-1.638-.735,2.687,2.687,0,0,1-.756-1.7,2.04,2.04,0,0,1,.588-1.575,2,2,0,0,1,1.6-.609q2.52.084,2.646.084a3.385,3.385,0,0,0,1.806-.273q.294-.273.294-1.7V-16.632a.334.334,0,0,0-.378-.378h-9.492a2.3,2.3,0,0,1-1.68-.714,2.3,2.3,0,0,1-.714-1.68V-31.08a2.3,2.3,0,0,1,.714-1.68,2.3,2.3,0,0,1,1.68-.714ZM-91.9-21.126v-1.722q0-.336-.378-.336H-99.12a.3.3,0,0,0-.336.336v1.722q0,.378.336.378h6.846A.334.334,0,0,0-91.9-21.126Zm0-6.006v-1.722a.334.334,0,0,0-.378-.378H-99.12q-.336,0-.336.378v1.722q0,.378.336.378h6.846A.334.334,0,0,0-91.9-27.132ZM-95.844-3.276a2.263,2.263,0,0,1-.693,1.659A2.263,2.263,0,0,1-98.2-.924h-10.668a.223.223,0,0,0-.252.252,1.682,1.682,0,0,1-.5,1.2,1.627,1.627,0,0,1-1.218.525h-.966a2.231,2.231,0,0,1-1.659-.714,2.333,2.333,0,0,1-.693-1.68V-11.886a2.333,2.333,0,0,1,.693-1.68,2.231,2.231,0,0,1,1.659-.714H-98.2a2.231,2.231,0,0,1,1.659.714,2.333,2.333,0,0,1,.693,1.68Zm-5.04-1.848V-10q0-.378-.336-.378h-7.56q-.336,0-.336.378v4.872q0,.378.336.378h7.56Q-100.884-4.746-100.884-5.124Zm25.452-9.282H-49.98a2.333,2.333,0,0,1,1.68.693,2.231,2.231,0,0,1,.714,1.659V1.386a2.3,2.3,0,0,1-.714,1.68,2.3,2.3,0,0,1-1.68.714h-1.512a1.612,1.612,0,0,1-1.176-.5,1.659,1.659,0,0,1-.5-1.218.223.223,0,0,0-.252-.252H-71.988a.223.223,0,0,0-.252.252,1.659,1.659,0,0,1-.5,1.218,1.612,1.612,0,0,1-1.176.5h-1.512a2.3,2.3,0,0,1-1.68-.714,2.3,2.3,0,0,1-.714-1.68v-13.44a2.231,2.231,0,0,1,.714-1.659A2.333,2.333,0,0,1-75.432-14.406ZM-53.172-2.9V-9.576a.334.334,0,0,0-.378-.378H-71.862a.334.334,0,0,0-.378.378V-2.9a.334.334,0,0,0,.378.378H-53.55A.334.334,0,0,0-53.172-2.9ZM-81.06-19.95l-.168-.294a2.476,2.476,0,0,1-.105-1.869,2.55,2.55,0,0,1,1.2-1.449,68.265,68.265,0,0,0,12.18-8.946,5.808,5.808,0,0,1,4.074-1.638h2.352a5.859,5.859,0,0,1,4.116,1.638,70.487,70.487,0,0,0,12.18,8.988,2.463,2.463,0,0,1,1.176,1.428,2.5,2.5,0,0,1-.126,1.848l-.168.294A2.156,2.156,0,0,1-45.7-18.774a2.159,2.159,0,0,1-1.764-.168q-1.386-.756-3.15-1.848-.336-.21-.336.126v.084a2.3,2.3,0,0,1-.714,1.68,2.3,2.3,0,0,1-1.68.714H-72.072a2.3,2.3,0,0,1-1.68-.714,2.3,2.3,0,0,1-.714-1.68v-.084q0-.336-.336-.126-.756.5-3.192,1.89a2.06,2.06,0,0,1-1.743.147A2.231,2.231,0,0,1-81.06-19.95Zm9.408-2.94a.1.1,0,0,0-.063.126.1.1,0,0,0,.1.084H-53.8a.135.135,0,0,0,.126-.084.083.083,0,0,0-.042-.126,65.616,65.616,0,0,1-8.694-7.434.358.358,0,0,0-.546,0A65.616,65.616,0,0,1-71.652-22.89Zm34.776,2.1a2.3,2.3,0,0,1-1.68-.714,2.3,2.3,0,0,1-.714-1.68,2.263,2.263,0,0,1,.693-1.659,2.263,2.263,0,0,1,1.659-.693q.63,0,1.848-.021t1.806-.021a.334.334,0,0,0,.378-.378V-30.24a2.333,2.333,0,0,1,.693-1.68,2.231,2.231,0,0,1,1.659-.714h.588a2.231,2.231,0,0,1,1.659.714,2.333,2.333,0,0,1,.693,1.68V-26q0,.336.378.336,8.694-.168,12.894-.294.336,0,.336-.378v-4.872a2.333,2.333,0,0,1,.693-1.68,2.231,2.231,0,0,1,1.659-.714h.42a2.3,2.3,0,0,1,1.68.714,2.3,2.3,0,0,1,.714,1.68v4.7a.3.3,0,0,0,.336.336l3.192-.126a2.288,2.288,0,0,1,1.7.63,2.279,2.279,0,0,1,.777,1.638,2.253,2.253,0,0,1-.651,1.7,2.35,2.35,0,0,1-1.659.777q-.588.042-1.68.084t-1.68.084a.3.3,0,0,0-.336.336v6.468Q-8.82-11.3-9.933-10a4.776,4.776,0,0,1-3.8,1.3,34.314,34.314,0,0,1-6.552-.924,2.228,2.228,0,0,1-1.491-1.092,2.471,2.471,0,0,1-.315-1.848l.084-.21a2.2,2.2,0,0,1,1.029-1.47,2.4,2.4,0,0,1,1.743-.336,23.223,23.223,0,0,0,4.116.63q.8,0,.966-.294a5.277,5.277,0,0,0,.168-1.806v-4.788a.334.334,0,0,0-.378-.378q-8.484.252-12.894.336a.3.3,0,0,0-.336.336V-8.4a8,8,0,0,0,.609,3.633A3.36,3.36,0,0,0-24.7-3.234a25.294,25.294,0,0,0,5.5.42,93.914,93.914,0,0,0,9.66-.546,2.4,2.4,0,0,1,1.743.525A2.165,2.165,0,0,1-6.93-1.26v.168A2.462,2.462,0,0,1-7.455.693a2.2,2.2,0,0,1-1.617.861A93.912,93.912,0,0,1-19.194,2.1a30.366,30.366,0,0,1-8.568-.9,6.417,6.417,0,0,1-3.99-3.066A14.568,14.568,0,0,1-32.886-8.4V-20.454a.334.334,0,0,0-.378-.378q-.588,0-1.806.021T-36.876-20.79Zm41.37-7.056a2.3,2.3,0,0,1-1.68-.714A2.3,2.3,0,0,1,2.1-30.24v-.126a2.3,2.3,0,0,1,.714-1.68,2.3,2.3,0,0,1,1.68-.714H37.506a2.3,2.3,0,0,1,1.68.714,2.3,2.3,0,0,1,.714,1.68v.126a2.3,2.3,0,0,1-.714,1.68,2.3,2.3,0,0,1-1.68.714H22.764q-.378,0-.378.336v4.284q0,.294.378.462l.042.042a141.831,141.831,0,0,1,12.936,7.434A2.173,2.173,0,0,1,36.75-13.8a2.4,2.4,0,0,1-.378,1.785l-.294.462a2.307,2.307,0,0,1-1.533.987,2.281,2.281,0,0,1-1.785-.357q-4.746-3.108-10.08-6.048a.14.14,0,0,0-.189-.021.206.206,0,0,0-.1.189V.84a2.333,2.333,0,0,1-.693,1.68,2.231,2.231,0,0,1-1.659.714H19.026a2.231,2.231,0,0,1-1.659-.714A2.333,2.333,0,0,1,16.674.84V-27.51q0-.336-.378-.336Zm43.932,4.452a2.263,2.263,0,0,1-1.659-.693,2.263,2.263,0,0,1-.693-1.659,2.313,2.313,0,0,1,.693-1.7,2.313,2.313,0,0,1,1.7-.693q5.166,0,15.582-.252.42,0,.336-.336-.126-1.134-.252-2.394A2.12,2.12,0,0,1,64.7-32.8a2.435,2.435,0,0,1,1.659-.8h.546a2.275,2.275,0,0,1,1.743.588,2.224,2.224,0,0,1,.819,1.638q.042.378.1,1.218t.105,1.26a.4.4,0,0,0,.42.336q4.914-.168,7.476-.294a2.221,2.221,0,0,1,1.68.63,2.311,2.311,0,0,1,.756,1.638,2.253,2.253,0,0,1-.651,1.7,2.35,2.35,0,0,1-1.659.777l-6.8.252q-.336,0-.252.378a33.1,33.1,0,0,0,3.528,8.442,2.255,2.255,0,0,1,.21,1.764,2.046,2.046,0,0,1-1.092,1.386l-.8.378a4.386,4.386,0,0,1-4.158-.084,17.415,17.415,0,0,0-7.728-1.848,8.316,8.316,0,0,0-4.956,1.281,4.062,4.062,0,0,0-1.764,3.465,4.957,4.957,0,0,0,2.6,4.473q2.6,1.575,7.77,1.575a53.372,53.372,0,0,0,7.854-.714,2.326,2.326,0,0,1,1.785.4,2.273,2.273,0,0,1,.987,1.533v.084A2.137,2.137,0,0,1,74.529.42,2.3,2.3,0,0,1,73,1.386,60.876,60.876,0,0,1,64.26,2.1Q56.2,2.1,52.248-.924A9.607,9.607,0,0,1,48.3-8.946a8.128,8.128,0,0,1,3.192-6.72q3.192-2.52,8.862-2.52a19.383,19.383,0,0,1,7.14,1.386h.084a.121.121,0,0,0,.042-.084,30.454,30.454,0,0,1-2.268-6.426.45.45,0,0,0-.5-.336Q56.616-23.394,48.426-23.394Zm68.586,18.48A62.954,62.954,0,0,0,112.686-26a2.217,2.217,0,0,1,.042-1.743,2.024,2.024,0,0,1,1.3-1.155l.588-.168a2.592,2.592,0,0,1,1.911.147,2.7,2.7,0,0,1,1.365,1.365,61.891,61.891,0,0,1,4.7,22.638,2.157,2.157,0,0,1-.672,1.68,2.3,2.3,0,0,1-1.68.714h-.84a2.231,2.231,0,0,1-1.659-.714A2.5,2.5,0,0,1,117.012-4.914ZM97.986,1.974q-3.57,0-6.615-4.872a21.832,21.832,0,0,1-3.045-11.8A52.8,52.8,0,0,1,89.8-27.132a2.567,2.567,0,0,1,1.113-1.575,2.769,2.769,0,0,1,1.911-.441l.714.084a1.862,1.862,0,0,1,1.449.882A2.148,2.148,0,0,1,95.3-26.46,53.376,53.376,0,0,0,93.954-14.7a18.5,18.5,0,0,0,1.491,7.854q1.491,3.192,2.961,3.192.924,0,2.394-1.785a23.03,23.03,0,0,0,2.982-5.187,2.545,2.545,0,0,1,1.323-1.323,2.364,2.364,0,0,1,1.827-.063l.462.168a2.3,2.3,0,0,1,1.344,1.239,2.1,2.1,0,0,1,.042,1.785,23.443,23.443,0,0,1-5.124,7.938Q100.674,1.974,97.986,1.974ZM146.748-9.24a2.383,2.383,0,0,1-1.722-.693,2.428,2.428,0,0,1-.756-1.7l-.63-16.632a2.221,2.221,0,0,1,.63-1.68,2.164,2.164,0,0,1,1.638-.714h2.268a2.164,2.164,0,0,1,1.638.714,2.221,2.221,0,0,1,.63,1.68l-.63,16.632a2.428,2.428,0,0,1-.756,1.7,2.383,2.383,0,0,1-1.722.693Zm1.008,3.36a2.231,2.231,0,0,1,1.659.714,2.333,2.333,0,0,1,.693,1.68v1.092a2.333,2.333,0,0,1-.693,1.68A2.231,2.231,0,0,1,147.756,0h-1.428a2.231,2.231,0,0,1-1.659-.714,2.333,2.333,0,0,1-.693-1.68V-3.486a2.333,2.333,0,0,1,.693-1.68,2.231,2.231,0,0,1,1.659-.714Z" transform="translate(697 1701)" fill="#fff"/><path d="M-63-11.742a9.446,9.446,0,0,0-4.028,2.166,4.176,4.176,0,0,0-1.368,3,3.585,3.585,0,0,0,1.2,2.641,3.684,3.684,0,0,0,2.6,1.159,1.948,1.948,0,0,0,1.5-.456,2.679,2.679,0,0,0,.4-1.71v-6.574Q-62.7-11.818-63-11.742Zm-1.1,13.262a9.446,9.446,0,0,1-6.46-2.337,7.367,7.367,0,0,1-2.66-5.757A8.185,8.185,0,0,1-70.547-12.5,15.95,15.95,0,0,1-63-16.378a.382.382,0,0,0,.3-.418v-4.788a.3.3,0,0,0-.342-.342h-6.5a1.941,1.941,0,0,1-1.425-.589,1.941,1.941,0,0,1-.589-1.425,1.941,1.941,0,0,1,.589-1.425,1.941,1.941,0,0,1,1.425-.589h6.5A.3.3,0,0,0-62.7-26.3v-2.2a2.08,2.08,0,0,1,.646-1.52,2.08,2.08,0,0,1,1.52-.646h.494a2.08,2.08,0,0,1,1.52.646,2.08,2.08,0,0,1,.646,1.52v2.2q0,.342.3.342h6a2,2,0,0,1,1.444.589,1.911,1.911,0,0,1,.608,1.425,1.911,1.911,0,0,1-.608,1.425,2,2,0,0,1-1.444.589h-6q-.3,0-.3.342v4.1q0,.3.342.3.608-.038,1.938-.038a14.641,14.641,0,0,1,9.082,2.622,7.759,7.759,0,0,1,3.458,6.346q0,8.094-8.74,9.918a2.106,2.106,0,0,1-1.672-.323,2.345,2.345,0,0,1-.988-1.425l-.038-.114a1.943,1.943,0,0,1,.285-1.558A2.064,2.064,0,0,1-52.9-2.66a7.092,7.092,0,0,0,3.724-1.919,4.9,4.9,0,0,0,1.178-3.4,3.955,3.955,0,0,0-2.071-3.287,9.793,9.793,0,0,0-5.529-1.387q-1.33,0-1.938.038a.3.3,0,0,0-.342.342v7.6q0,3.5-1.368,4.845T-64.106,1.52ZM-43.7-25.8q2.052,2.774,3.572,5.206a1.965,1.965,0,0,1,.247,1.577,1.934,1.934,0,0,1-.931,1.273,2.13,2.13,0,0,1-1.6.209,2.066,2.066,0,0,1-1.292-.931q-1.824-2.85-3.344-4.94a2.037,2.037,0,0,1-.38-1.52,1.893,1.893,0,0,1,.8-1.33,2.122,2.122,0,0,1,1.577-.361A1.971,1.971,0,0,1-43.7-25.8ZM-2.622-10.526a2.283,2.283,0,0,1,1.482.893A2.312,2.312,0,0,1-.646-7.98,39.6,39.6,0,0,1-1.672-.817a7.088,7.088,0,0,1-1.6,3.306,3.624,3.624,0,0,1-2.508.817q-3.078,0-5.244-3.99t-2.394-12.2a.3.3,0,0,0-.342-.342h-17.48a1.91,1.91,0,0,1-1.406-.57,1.91,1.91,0,0,1-.57-1.406,1.91,1.91,0,0,1,.57-1.406,1.91,1.91,0,0,1,1.406-.57h20.71a2.051,2.051,0,0,1,1.52.665,2.143,2.143,0,0,1,.646,1.539,49.456,49.456,0,0,0,.494,6.878,20.086,20.086,0,0,0,.988,4.275q.532,1.273.988,1.273.19,0,.323-.342a9.926,9.926,0,0,0,.3-1.748q.171-1.406.4-4.142a1.766,1.766,0,0,1,.722-1.368A1.84,1.84,0,0,1-2.622-10.526Zm-32.414-7.486a1.933,1.933,0,0,1-.855-1.349,1.926,1.926,0,0,1,.4-1.539,37.946,37.946,0,0,0,5.016-9.158,2.491,2.491,0,0,1,1.121-1.311,2.514,2.514,0,0,1,1.691-.285l.722.152a1.633,1.633,0,0,1,1.14.8,1.531,1.531,0,0,1,.114,1.368q-.076.266.19.266H-5.586a1.941,1.941,0,0,1,1.425.589,1.941,1.941,0,0,1,.589,1.425,2,2,0,0,1-.589,1.444A1.911,1.911,0,0,1-5.586-25H-27.17a.446.446,0,0,0-.456.266q-.532,1.064-.836,1.6-.152.228.19.228H-7.638a1.715,1.715,0,0,1,1.254.532,1.759,1.759,0,0,1,.532,1.292,1.747,1.747,0,0,1-.513,1.254,1.7,1.7,0,0,1-1.273.532H-26.866a2.111,2.111,0,0,1-1.52-.627,2.018,2.018,0,0,1-.646-1.5v-.38a.088.088,0,0,0-.057-.095.086.086,0,0,0-.095.019,36.792,36.792,0,0,1-2.432,3.572,2.31,2.31,0,0,1-1.482.874,2.186,2.186,0,0,1-1.672-.38Zm.95,17.176a45.74,45.74,0,0,0,7.03-3.914.176.176,0,0,0,.114-.19.176.176,0,0,0-.114-.19q-2.508-1.748-4.1-2.736a1.935,1.935,0,0,1-.893-1.311,1.888,1.888,0,0,1,.323-1.539,2.307,2.307,0,0,1,1.425-.912,2.114,2.114,0,0,1,1.653.3q2.584,1.6,5.244,3.5a.4.4,0,0,0,.494-.038,41.723,41.723,0,0,0,3.458-3.23,2.4,2.4,0,0,1,1.539-.722,2.027,2.027,0,0,1,1.577.532l.114.076a2,2,0,0,1,.741,1.463,1.972,1.972,0,0,1-.551,1.539Q-17.9-6.27-19.266-5.092a.24.24,0,0,0,.038.418q2.508,2.014,4.218,3.5A1.978,1.978,0,0,1-14.269.266a1.947,1.947,0,0,1-.551,1.52,2.4,2.4,0,0,1-1.539.722,2.1,2.1,0,0,1-1.577-.494q-3.04-2.584-4.826-3.952a.368.368,0,0,0-.494,0,49.09,49.09,0,0,1-8.664,4.9,2.269,2.269,0,0,1-1.729.076A2.352,2.352,0,0,1-35,1.9,1.864,1.864,0,0,1-35.131.323,1.9,1.9,0,0,1-34.086-.836Zm54-15.5a26.8,26.8,0,0,0,4.028-1.976q.266-.152.038-.38a31.774,31.774,0,0,1-3.154-3.458,1.866,1.866,0,0,1-.342-1.577,1.971,1.971,0,0,1,.95-1.311l.912-.57a.129.129,0,0,0,.038-.095q0-.057-.076-.057H21.66a1.973,1.973,0,0,1-1.444-.608,1.973,1.973,0,0,1-.608-1.444,2.017,2.017,0,0,1,.608-1.482,1.973,1.973,0,0,1,1.444-.608H33.82a1.973,1.973,0,0,1,1.444.608,2.017,2.017,0,0,1,.608,1.482A8.63,8.63,0,0,1,35-23.9a22.7,22.7,0,0,1-3.534,5.016.339.339,0,0,0-.076.247q0,.171.114.209a29.457,29.457,0,0,0,3.8,1.938,2.163,2.163,0,0,1,1.159,1.159,1.944,1.944,0,0,1,.019,1.615,2.13,2.13,0,0,1-1.2,1.235,2.122,2.122,0,0,1-1.691.019A32.83,32.83,0,0,1,27.93-15.5a.4.4,0,0,0-.532-.038A36.1,36.1,0,0,1,21.47-12.5a2.037,2.037,0,0,1-1.634,0A2.085,2.085,0,0,1,18.7-13.68a1.955,1.955,0,0,1,.057-1.577A2.03,2.03,0,0,1,19.912-16.34ZM23.75-25.5a22.011,22.011,0,0,0,3.724,4.1.345.345,0,0,0,.494-.038,15.876,15.876,0,0,0,2.964-4.028q.152-.3-.19-.3H23.9a.187.187,0,0,0-.171.1A.127.127,0,0,0,23.75-25.5ZM7.6-4.256a.269.269,0,0,0,.3-.3V-6.308q0-.342-.3-.342H4.294a2.018,2.018,0,0,1-1.5-.646,2.111,2.111,0,0,1-.627-1.52V-19.684a2.111,2.111,0,0,1,.627-1.52,2.018,2.018,0,0,1,1.5-.646H7.6q.3,0,.3-.342v-1.634a.269.269,0,0,0-.3-.3H3.344a1.848,1.848,0,0,1-1.387-.57,1.945,1.945,0,0,1-.551-1.406,1.881,1.881,0,0,1,.551-1.387,1.881,1.881,0,0,1,1.387-.551H7.6q.3,0,.3-.342v-.494A2.08,2.08,0,0,1,8.55-30.4a2.08,2.08,0,0,1,1.52-.646h.57a2.08,2.08,0,0,1,1.52.646,2.08,2.08,0,0,1,.646,1.52v.494q0,.342.3.342h3.534a1.945,1.945,0,0,1,1.406.551,1.848,1.848,0,0,1,.57,1.387,1.91,1.91,0,0,1-.57,1.406,1.91,1.91,0,0,1-1.406.57H13.11a.269.269,0,0,0-.3.3v1.634q0,.342.3.342h2.964a2.08,2.08,0,0,1,1.52.646,2.08,2.08,0,0,1,.646,1.52V-8.816a2.08,2.08,0,0,1-.646,1.52,2.08,2.08,0,0,1-1.52.646H13.11q-.3,0-.3.342V-4.56a.269.269,0,0,0,.3.3h3.8a1.91,1.91,0,0,1,1.406.57,1.91,1.91,0,0,1,.57,1.406,1.721,1.721,0,0,1-.114.608.171.171,0,0,0,.019.171q.057.1.133.057a2.233,2.233,0,0,1,.532-.076h5.4a.3.3,0,0,0,.342-.342V-5.89q0-.3-.342-.3H21.47a1.91,1.91,0,0,1-1.406-.57,1.91,1.91,0,0,1-.57-1.406,1.91,1.91,0,0,1,.57-1.406,1.91,1.91,0,0,1,1.406-.57h3.382q.342,0,.342-.3v-.684a2.111,2.111,0,0,1,.627-1.52,2.018,2.018,0,0,1,1.5-.646h.646a2.08,2.08,0,0,1,1.52.646,2.08,2.08,0,0,1,.646,1.52v.684a.269.269,0,0,0,.3.3h3.724a1.91,1.91,0,0,1,1.406.57,1.91,1.91,0,0,1,.57,1.406,1.91,1.91,0,0,1-.57,1.406,1.91,1.91,0,0,1-1.406.57H30.438a.269.269,0,0,0-.3.3v4.028q0,.342.3.342h4.256a2.017,2.017,0,0,1,1.482.608A1.973,1.973,0,0,1,36.784.532a1.973,1.973,0,0,1-.608,1.444,2.017,2.017,0,0,1-1.482.608H19.456a1.973,1.973,0,0,1-1.444-.608A1.973,1.973,0,0,1,17.4.532a2.268,2.268,0,0,1,.114-.722.124.124,0,0,0-.038-.152.124.124,0,0,0-.152-.038A2.1,2.1,0,0,1,16.91-.3h-3.8a.269.269,0,0,0-.3.3V1.52a2.08,2.08,0,0,1-.646,1.52,2.08,2.08,0,0,1-1.52.646h-.57A2.08,2.08,0,0,1,8.55,3.04,2.08,2.08,0,0,1,7.9,1.52V0a.269.269,0,0,0-.3-.3H3.344a1.848,1.848,0,0,1-1.387-.57A1.945,1.945,0,0,1,1.406-2.28a1.945,1.945,0,0,1,.551-1.406,1.848,1.848,0,0,1,1.387-.57Zm5.016-13.68v1.71q0,.342.3.342h1.368q.3,0,.3-.342v-1.71q0-.342-.3-.342H12.92Q12.616-18.278,12.616-17.936Zm0,5.548v1.824q0,.342.3.342h1.368q.3,0,.3-.342v-1.824q0-.342-.3-.342H12.92Q12.616-12.73,12.616-12.388ZM6-17.936v1.71q0,.342.3.342H7.79q.3,0,.3-.342v-1.71q0-.342-.3-.342H6.308Q6-18.278,6-17.936ZM7.79-10.222q.3,0,.3-.342v-1.824q0-.342-.3-.342H6.308q-.3,0-.3.342v1.824q0,.342.3.342ZM57.114-26.486H69.16a2.08,2.08,0,0,1,1.52.646,2.08,2.08,0,0,1,.646,1.52v.114a2.08,2.08,0,0,1-.646,1.52,2.08,2.08,0,0,1-1.52.646H57.114a2.018,2.018,0,0,1-1.5-.646,2.111,2.111,0,0,1-.627-1.52v-.114a2.111,2.111,0,0,1,.627-1.52A2.018,2.018,0,0,1,57.114-26.486ZM46.208,1.824a2.371,2.371,0,0,1-1.672-.4A2.2,2.2,0,0,1,43.586,0,63.861,63.861,0,0,1,42.18-13.68a63.861,63.861,0,0,1,1.406-13.68,2.2,2.2,0,0,1,.95-1.425,2.371,2.371,0,0,1,1.672-.4l.722.076a1.739,1.739,0,0,1,1.33.8,1.9,1.9,0,0,1,.3,1.558,60.434,60.434,0,0,0-1.33,13.072A60.434,60.434,0,0,0,48.564-.608,1.9,1.9,0,0,1,48.26.95a1.739,1.739,0,0,1-1.33.8ZM63.346.494q-5.358,0-8.455-2.071a6.361,6.361,0,0,1-3.1-5.529q0-2.964,3.268-6.65a2.049,2.049,0,0,1,1.558-.7,2.391,2.391,0,0,1,1.634.551l.19.114a1.8,1.8,0,0,1,.722,1.406,2.079,2.079,0,0,1-.532,1.52Q56.81-8.664,56.81-7.3q0,3.23,6.536,3.23a36.564,36.564,0,0,0,6.194-.57,2.048,2.048,0,0,1,1.6.361,2.057,2.057,0,0,1,.874,1.349v.152A2.278,2.278,0,0,1,71.668-1.1,1.975,1.975,0,0,1,70.3-.19,35.372,35.372,0,0,1,63.346.494Z" transform="translate(693 1651)" fill="#fff"/><g transform="translate(570.975 1607.818)" clip-path="url(#a)"><g transform="translate(-15 -247.999)"><path d="M645.258,358.01a5.619,5.619,0,0,0-3.635,1.243,6.648,6.648,0,0,1-8.1,0,5.623,5.623,0,0,0-3.636-1.243s-.008-.874,0-.874a6.5,6.5,0,0,1,4.049,1.375,5.928,5.928,0,0,0,7.272,0,6.315,6.315,0,0,1,4.049-1.375Z" transform="translate(-614.884 -109.135)" fill="#ffd800"/></g><g transform="translate(0 -247.999)"><path d="M645.258,358.01a5.619,5.619,0,0,0-3.635,1.243,6.648,6.648,0,0,1-8.1,0,5.623,5.623,0,0,0-3.636-1.243s-.008-.874,0-.874a6.5,6.5,0,0,1,4.049,1.375,5.928,5.928,0,0,0,7.272,0,6.315,6.315,0,0,1,4.049-1.375Z" transform="translate(-614.884 -109.135)" fill="#ffd800"/></g><g transform="translate(15 -247.999)"><path d="M645.258,358.01a5.619,5.619,0,0,0-3.635,1.243,6.648,6.648,0,0,1-8.1,0,5.623,5.623,0,0,0-3.636-1.243s-.008-.874,0-.874a6.5,6.5,0,0,1,4.049,1.375,5.928,5.928,0,0,0,7.272,0,6.315,6.315,0,0,1,4.049-1.375Z" transform="translate(-614.884 -109.135)" fill="#ffd800"/></g><g transform="translate(30 -247.999)"><path d="M645.258,358.01a5.619,5.619,0,0,0-3.635,1.243,6.648,6.648,0,0,1-8.1,0,5.623,5.623,0,0,0-3.636-1.243s-.008-.874,0-.874a6.5,6.5,0,0,1,4.049,1.375,5.928,5.928,0,0,0,7.272,0,6.315,6.315,0,0,1,4.049-1.375Z" transform="translate(-614.884 -109.135)" fill="#ffd800"/></g><g transform="translate(45 -247.999)"><path d="M645.258,358.01a5.619,5.619,0,0,0-3.635,1.243,6.648,6.648,0,0,1-8.1,0,5.623,5.623,0,0,0-3.636-1.243s-.008-.874,0-.874a6.5,6.5,0,0,1,4.049,1.375,5.928,5.928,0,0,0,7.272,0,6.315,6.315,0,0,1,4.049-1.375Z" transform="translate(-614.884 -109.135)" fill="#ffd800"/></g><g transform="translate(60 -247.999)"><path d="M645.258,358.01a5.619,5.619,0,0,0-3.635,1.243,6.648,6.648,0,0,1-8.1,0,5.623,5.623,0,0,0-3.636-1.243s-.008-.874,0-.874a6.5,6.5,0,0,1,4.049,1.375,5.928,5.928,0,0,0,7.272,0,6.315,6.315,0,0,1,4.049-1.375Z" transform="translate(-614.884 -109.135)" fill="#ffd800"/></g><g transform="translate(75 -247.999)"><path d="M645.258,358.01a5.619,5.619,0,0,0-3.635,1.243,6.648,6.648,0,0,1-8.1,0,5.623,5.623,0,0,0-3.636-1.243s-.008-.874,0-.874a6.5,6.5,0,0,1,4.049,1.375,5.928,5.928,0,0,0,7.272,0,6.315,6.315,0,0,1,4.049-1.375Z" transform="translate(-614.884 -109.135)" fill="#ffd800"/></g><g transform="translate(90 -247.999)"><path d="M645.258,358.01a5.619,5.619,0,0,0-3.635,1.243,6.648,6.648,0,0,1-8.1,0,5.623,5.623,0,0,0-3.636-1.243s-.008-.874,0-.874a6.5,6.5,0,0,1,4.049,1.375,5.928,5.928,0,0,0,7.272,0,6.315,6.315,0,0,1,4.049-1.375Z" transform="translate(-614.884 -109.135)" fill="#ffd800"/></g><g transform="translate(105 -247.999)"><path d="M645.258,358.01a5.619,5.619,0,0,0-3.635,1.243,6.648,6.648,0,0,1-8.1,0,5.623,5.623,0,0,0-3.636-1.243s-.008-.874,0-.874a6.5,6.5,0,0,1,4.049,1.375,5.928,5.928,0,0,0,7.272,0,6.315,6.315,0,0,1,4.049-1.375Z" transform="translate(-614.884 -109.135)" fill="#ffd800"/></g><g transform="translate(120 -247.999)"><path d="M645.258,358.01a5.619,5.619,0,0,0-3.635,1.243,6.648,6.648,0,0,1-8.1,0,5.623,5.623,0,0,0-3.636-1.243s-.008-.874,0-.874a6.5,6.5,0,0,1,4.049,1.375,5.928,5.928,0,0,0,7.272,0,6.315,6.315,0,0,1,4.049-1.375Z" transform="translate(-614.884 -109.135)" fill="#ffd800"/></g><g transform="translate(135 -247.999)"><path d="M645.258,358.01a5.619,5.619,0,0,0-3.635,1.243,6.648,6.648,0,0,1-8.1,0,5.623,5.623,0,0,0-3.636-1.243s-.008-.874,0-.874a6.5,6.5,0,0,1,4.049,1.375,5.928,5.928,0,0,0,7.272,0,6.315,6.315,0,0,1,4.049-1.375Z" transform="translate(-614.884 -109.135)" fill="#ffd800"/></g><g transform="translate(150 -247.999)"><path d="M645.258,358.01a5.619,5.619,0,0,0-3.635,1.243,6.648,6.648,0,0,1-8.1,0,5.623,5.623,0,0,0-3.636-1.243s-.008-.874,0-.874a6.5,6.5,0,0,1,4.049,1.375,5.928,5.928,0,0,0,7.272,0,6.315,6.315,0,0,1,4.049-1.375Z" transform="translate(-614.884 -109.135)" fill="#ffd800"/></g><g transform="translate(165 -247.999)"><path d="M645.258,358.01a5.619,5.619,0,0,0-3.635,1.243,6.648,6.648,0,0,1-8.1,0,5.623,5.623,0,0,0-3.636-1.243s-.008-.874,0-.874a6.5,6.5,0,0,1,4.049,1.375,5.928,5.928,0,0,0,7.272,0,6.315,6.315,0,0,1,4.049-1.375Z" transform="translate(-614.884 -109.135)" fill="#ffd800"/></g><g transform="translate(180 -247.999)"><path d="M645.258,358.01a5.619,5.619,0,0,0-3.635,1.243,6.648,6.648,0,0,1-8.1,0,5.623,5.623,0,0,0-3.636-1.243s-.008-.874,0-.874a6.5,6.5,0,0,1,4.049,1.375,5.928,5.928,0,0,0,7.272,0,6.315,6.315,0,0,1,4.049-1.375Z" transform="translate(-614.884 -109.135)" fill="#ffd800"/></g><g transform="translate(195 -247.999)"><path d="M645.258,358.01a5.619,5.619,0,0,0-3.635,1.243,6.648,6.648,0,0,1-8.1,0,5.623,5.623,0,0,0-3.636-1.243s-.008-.874,0-.874a6.5,6.5,0,0,1,4.049,1.375,5.928,5.928,0,0,0,7.272,0,6.315,6.315,0,0,1,4.049-1.375Z" transform="translate(-614.884 -109.135)" fill="#ffd800"/></g><g transform="translate(210 -247.999)"><path d="M645.258,358.01a5.619,5.619,0,0,0-3.635,1.243,6.648,6.648,0,0,1-8.1,0,5.623,5.623,0,0,0-3.636-1.243s-.008-.874,0-.874a6.5,6.5,0,0,1,4.049,1.375,5.928,5.928,0,0,0,7.272,0,6.315,6.315,0,0,1,4.049-1.375Z" transform="translate(-614.884 -109.135)" fill="#ffd800"/></g><g transform="translate(225 -247.999)"><path d="M645.258,358.01a5.619,5.619,0,0,0-3.635,1.243,6.648,6.648,0,0,1-8.1,0,5.623,5.623,0,0,0-3.636-1.243s-.008-.874,0-.874a6.5,6.5,0,0,1,4.049,1.375,5.928,5.928,0,0,0,7.272,0,6.315,6.315,0,0,1,4.049-1.375Z" transform="translate(-614.884 -109.135)" fill="#ffd800"/></g></g></g></svg>