<svg xmlns="http://www.w3.org/2000/svg" width="311.812" height="73.241" viewBox="0 0 311.812 73.241"><g transform="translate(-149.187 -3960.759)"><g transform="translate(261.253 3960)"><text transform="translate(72.747 63)" fill="#eb6d4e" font-size="38" font-family="Oswald-SemiBold, Oswald" font-weight="600"><tspan x="0" y="0">1</tspan></text><text transform="translate(88.747 62)" fill="#eb6d4e" font-size="22" font-family="Oswald-SemiBold, Oswald" font-weight="600"><tspan x="0" y="0">pt</tspan></text><text transform="translate(109.747 62)" fill="#eb6d4e" font-size="18" font-family="NotoSansJP-Black, Noto Sans JP" font-weight="800"><tspan x="0" y="0">プレゼント</tspan></text><text transform="translate(-51.253 20)" fill="#1a1311" font-size="14" font-family="NotoSansJP-Bold, Noto Sans JP" font-weight="700"><tspan x="0" y="0">ご成約、作業完了時には</tspan></text><text transform="translate(-49.253 43)" fill="#eb6d4e" font-size="14" font-family="NotoSansJP-Black, Noto Sans JP" font-weight="800"><tspan x="0" y="0">ご成約金額合計</tspan><tspan x="0" y="18">100円(税抜)につき</tspan></text></g><g transform="translate(-166.236 3747.79)"><g transform="translate(315.424 212.969)"><rect width="17.046" height="34.102" transform="translate(0 17.046)" fill="#003288"/><path d="M315.424,212.969v17.046H332.47v34.1h17.055v-34.1h17.047V212.969Z" transform="translate(-315.424 -212.969)" fill="#ffed00"/><rect width="17.047" height="34.102" transform="translate(34.102 17.046)" fill="#003288"/></g><g transform="translate(315.424 269.749)"><path d="M675.175,778.026v5.395c-.628-.808-3.707-5.395-3.707-5.395h-1.49v8.037h1.49v-5.357c.625.813,3.7,5.357,3.7,5.357h1.5v-8.037Z" transform="translate(-634.35 -778.026)" fill="#1a1311"/><path d="M461.451,780.567c0-1.227-.8-2.541-3.059-2.541h-2.583v8.037h1.5v-3.015H458.4C460.652,783.04,461.451,781.718,461.451,780.567Zm-4.142-1.215h1.083c1.308,0,1.45.819,1.45,1.16,0,.752-.559,1.205-1.508,1.205h-1.026Z" transform="translate(-441.702 -778.026)" fill="#1a1311"/><rect width="1.562" height="8.044" transform="translate(30.757 0)" fill="#1a1311"/><rect width="4.269" height="1.42" transform="translate(7.242 4.2)" fill="#1a1311"/><path d="M760.512,778.055v1.422h2.42v6.62H764.5v-6.62h2.423v-1.422Z" transform="translate(-715.787 -778.052)" fill="#1a1311"/><path d="M315.424,778.055v1.422h2.42v6.62h1.565v-6.62h2.423v-1.422Z" transform="translate(-315.424 -778.052)" fill="#1a1311"/><path d="M531.4,786.3c-2.393,0-3.561-1.7-3.561-4.086s1.195-4.162,3.6-4.162,3.558,1.752,3.558,4.142C534.994,784.554,533.777,786.3,531.4,786.3Zm0-6.849c-1.476,0-1.991,1.4-1.991,2.707,0,1.357.45,2.751,1.991,2.751s2.027-1.382,2.027-2.751C533.423,780.821,532.911,779.454,531.4,779.454Z" transform="translate(-506.491 -778.052)" fill="#1a1311"/></g></g></g></svg>