<svg xmlns="http://www.w3.org/2000/svg" width="315" height="70" viewBox="0 0 315 70"><g transform="translate(-238 -1300)"><g transform="translate(238 1300)" fill="#f7f3e5" stroke="#eb6d4e" stroke-width="3"><rect width="315" height="70" rx="35" stroke="none"/><rect x="1.5" y="1.5" width="312" height="67" rx="33.5" fill="none"/></g><circle cx="9.5" cy="9.5" r="9.5" transform="translate(523.815 1326)" fill="#eb6d4e"/><g transform="translate(531.598 1331.494)"><path d="M121.793,3.621,118.249.087a.3.3,0,0,0-.419.421l3.333,3.324-3.333,3.324a.3.3,0,0,0,.42.421l3.544-3.534a.3.3,0,0,0,0-.421Z" transform="translate(-117.742 0)" fill="#fff" stroke="#fff" stroke-linecap="round" stroke-width="0.5"/></g><g transform="translate(-459.417 1278.933)"><text transform="translate(759.417 83.068)" fill="#1a1311" font-size="12" font-family="NotoSansJP-Bold, Noto Sans JP" font-weight="700"><tspan x="0" y="0">受付時間　8:30〜17:30【年中無休】</tspan></text><rect width="59" height="5" transform="translate(851.418 36.068)" fill="#ffd800"/><rect width="50" height="5" transform="translate(924.418 36.068)" fill="#ffd800"/><text transform="translate(852.417 37.068)" fill="#ed4c24" font-size="12" font-family="NotoSansJP-Bold, Noto Sans JP" font-weight="700" letter-spacing="0.23em"><tspan x="0" y="0">ささっと</tspan></text><text transform="translate(924.417 37.068)" fill="#ed4c24" font-size="12" font-family="NotoSansJP-Bold, Noto Sans JP" font-weight="700"><tspan x="0" y="0">ゴーゴー</tspan></text><text transform="translate(759.418 67.068)" fill="#ed4c24" font-size="32" font-family="SegoeUI-Bold, Segoe UI" letter-spacing="0.01em" font-weight="700"><tspan x="0" y="0">0120-3310-55</tspan></text></g><g transform="translate(256.344 1317.196)"><circle cx="19" cy="19" r="19" transform="translate(-0.344 -1.197)" fill="#ed4c24"/><path d="M18.16,13.739l-2.608-2.612a1.733,1.733,0,0,0-2.887.652A1.773,1.773,0,0,1,10.617,12.9,8.054,8.054,0,0,1,5.773,8.046,1.69,1.69,0,0,1,6.889,5.994,1.738,1.738,0,0,0,7.54,3.1L4.932.49a1.858,1.858,0,0,0-2.514,0L.649,2.261C-1.12,4.126.837,9.07,5.216,13.455s9.315,6.439,11.177,4.574l1.769-1.772A1.865,1.865,0,0,0,18.16,13.739Z" transform="translate(11.668 7.099) rotate(11)" fill="#fff"/></g><text transform="translate(338 1318)" fill="#ed4c24" font-size="12" font-family="NotoSansJP-Bold, Noto Sans JP" font-weight="700"><tspan x="-36" y="0">通話料無料！</tspan></text></g></svg>