<svg xmlns="http://www.w3.org/2000/svg" width="309.67" height="65.421" viewBox="0 0 309.67 65.421"><g transform="translate(-149.187 -3960.759)"><g transform="translate(261.252 3960)"><path d="M5.358,0h5.89V-30.78H6.65C5.51-29.526,2.128-27.892.912-27.4v4.37c.912-.456,3.534-1.178,4.446-1.672Z" transform="translate(72.747 63)" fill="#eb6d4e"/><path d="M1.144,4.18h3.3V-.968A4.031,4.031,0,0,0,7.04.22C9,.22,9.9-1.562,9.9-3.982V-8.954c0-1.958-.682-3.96-2.75-3.982A4.047,4.047,0,0,0,4.444-11.77v-.946h-3.3ZM5.566-2a2.135,2.135,0,0,1-1.122-.374v-7.986a1.906,1.906,0,0,1,1.144-.484c.748,0,.99.748.99,1.672V-3.85C6.578-2.816,6.358-2,5.566-2ZM15.774.154A14.132,14.132,0,0,0,17.82-.022v-2.6a4.07,4.07,0,0,1-.946.088.991.991,0,0,1-1.122-1.122v-6.886H17.6v-2.178H15.752v-3.828H12.386v3.828H11.132v2.178h1.254v7.216C12.386-1.122,13.09.154,15.774.154Z" transform="translate(88.747 62)" fill="#eb6d4e"/><path d="M15.39-12.4a.96.96,0,0,1-.954-.954.96.96,0,0,1,.954-.954.96.96,0,0,1,.954.954A.96.96,0,0,1,15.39-12.4Zm-11.448-.63c-.594,0-1.782-.09-2.34-.162v3.078c.468-.036,1.458-.09,2.34-.09h7.92a10.112,10.112,0,0,1-1.98,4.644A11.779,11.779,0,0,1,2.808-1.4l2.376,2.61A14.761,14.761,0,0,0,12.51-3.852a18.966,18.966,0,0,0,2.718-6.516c.054-.216.126-.486.216-.756a2.257,2.257,0,0,0,2.178-2.232,2.243,2.243,0,0,0-2.232-2.232,2.243,2.243,0,0,0-2.232,2.232,1.026,1.026,0,0,0,.018.234,9.381,9.381,0,0,1-1.3.09ZM23.31,1.008A4.68,4.68,0,0,1,24.552.432c4.1-1.44,7.866-3.546,10.4-6.516L33.408-8.568a21.217,21.217,0,0,1-8.91,5.85v-8.874a14.136,14.136,0,0,1,.2-2.268h-3.42a11.881,11.881,0,0,1,.234,2.268v9.468a2.715,2.715,0,0,1-.27,1.332ZM53.676-13.356A25.692,25.692,0,0,0,52.254-15.8l-1.692.684a20.078,20.078,0,0,1,1.422,2.484Zm-2.232.882c-.324-.63-.954-1.8-1.4-2.466l-1.692.684a24.386,24.386,0,0,1,1.386,2.5Zm-7.974.756a18.139,18.139,0,0,1,.18-2.3H40.41a18.51,18.51,0,0,1,.162,2.3V-9.45c-1.71.306-3.24.558-4.1.666L36.99-5.94c.774-.18,2.088-.45,3.582-.756v4.608c0,2.34.576,3.384,5.094,3.384A46.365,46.365,0,0,0,51.21.9l.09-2.952a30.956,30.956,0,0,1-5.724.63c-1.872,0-2.106-.378-2.106-1.44V-7.29c2.178-.432,4.158-.828,4.806-.954A14.775,14.775,0,0,1,45.594-4.95l2.394,1.4A24.86,24.86,0,0,0,51.732-8.8c.18-.36.486-.828.666-1.116l-2.106-1.638a6.278,6.278,0,0,1-1.458.486c-.828.2-3.024.648-5.364,1.08Zm15.012-2.25-2.07,2.214A37.517,37.517,0,0,1,60.93-7.812L63.162-10.1A36.318,36.318,0,0,0,58.482-13.968ZM55.818-2.016,57.672.864a19.208,19.208,0,0,0,6.444-2.376,19.465,19.465,0,0,0,7-6.822l-1.692-3.078a17.393,17.393,0,0,1-6.876,7.2A18.523,18.523,0,0,1,55.818-2.016Zm32.04-4.878a59.511,59.511,0,0,0-7.434-2.718v-2.466a21.4,21.4,0,0,1,.18-2.34H77.2a12.575,12.575,0,0,1,.216,2.34V-1.8A20.207,20.207,0,0,1,77.2.918h3.42c-.09-.81-.2-2.232-.2-2.718V-6.426a56.137,56.137,0,0,1,6.192,2.574Z" transform="translate(109.747 62)" fill="#eb6d4e"/><path d="M2.128-4.3a9.257,9.257,0,0,0-.266,2c0,1.9,1.582,2.968,4.76,2.968A22.115,22.115,0,0,0,11.438.21l-.014-1.96A19.66,19.66,0,0,1,6.552-1.2c-2,0-2.828-.644-2.828-1.526a5.705,5.705,0,0,1,.224-1.4ZM9.87-11.032a10.654,10.654,0,0,1,.6,1.008c-1.064.1-2.59.182-3.92.182a35.86,35.86,0,0,1-3.766-.168v1.848c1.12.084,2.324.154,3.78.154,1.316,0,3.038-.1,4-.168V-9.842c.14.28.28.546.392.77l1.134-.49c-.266-.518-.77-1.4-1.12-1.918Zm1.652-.63A14.843,14.843,0,0,1,12.656-9.73l1.106-.476a15.454,15.454,0,0,0-1.134-1.9ZM24.99-7.392a14.171,14.171,0,0,1-1.344,3.108,33.06,33.06,0,0,1-.56-3.836h4.326V-9.772H25.956l.672-.714a11.713,11.713,0,0,0-2.282-1.5l-1.008.994A17.527,17.527,0,0,1,25.13-9.772H22.988c-.028-.686-.042-1.372-.028-2.072H21.21c0,.7.028,1.386.056,2.072H15.554v4.088c0,1.82-.1,4.256-1.162,5.936a7.288,7.288,0,0,1,1.414,1.134C16.954-.322,17.248-3.052,17.3-5.1h1.82a7.921,7.921,0,0,1-.238,2.632.453.453,0,0,1-.42.168c-.224,0-.7-.014-1.2-.056A3.778,3.778,0,0,1,17.724-.8a11.016,11.016,0,0,0,1.61-.042A1.315,1.315,0,0,0,20.3-1.4c.322-.406.406-1.652.448-4.592,0-.2.014-.63.014-.63H17.3v-1.5h4.06a28.921,28.921,0,0,0,.966,5.642A10.7,10.7,0,0,1,19.474-.21a10.974,10.974,0,0,1,1.2,1.372,11.866,11.866,0,0,0,2.366-1.9C23.66.406,24.43,1.106,25.41,1.106c1.3,0,1.862-.616,2.128-3.206a4.528,4.528,0,0,1-1.414-.938c-.07,1.75-.238,2.45-.574,2.45-.448,0-.9-.588-1.3-1.6a16.262,16.262,0,0,0,2.408-4.8Zm4,3.724A10.179,10.179,0,0,1,28.252-.42a8.229,8.229,0,0,1,1.274.6,12.944,12.944,0,0,0,.84-3.612Zm3.122.308a14.249,14.249,0,0,1,.826,2.7l1.316-.462a15.965,15.965,0,0,0-.91-2.632Zm4.368-6.132a16.056,16.056,0,0,0,.686-2l-1.708-.364A11.147,11.147,0,0,1,33.152-7.2l-.1-.168-1.176.518c.168.294.336.63.49.966l-1.414.056a45.069,45.069,0,0,0,2.674-3.794l-1.414-.588a21.891,21.891,0,0,1-1.288,2.3c-.14-.182-.308-.392-.49-.588.5-.784,1.078-1.862,1.582-2.828l-1.47-.518a16.787,16.787,0,0,1-1.022,2.436L29.19-9.7l-.784,1.148a13.189,13.189,0,0,1,1.68,1.918c-.21.308-.434.6-.644.868l-1.036.042.14,1.456,2.072-.14V1.232h1.47V-4.522l.8-.056a7.618,7.618,0,0,1,.2.756l1.26-.588A11.15,11.15,0,0,0,33.25-7.028a10.7,10.7,0,0,1,1.316.924,11.535,11.535,0,0,0,1.19-1.806H39.62c-.154,4.774-.364,6.818-.784,7.252a.691.691,0,0,1-.588.238c-.378,0-1.176,0-2.058-.084a3.98,3.98,0,0,1,.56,1.68,13.364,13.364,0,0,0,2.184-.042,1.735,1.735,0,0,0,1.344-.77c.588-.742.784-2.954.966-9.086.014-.21.014-.77.014-.77Zm1.582,6.4a13.168,13.168,0,0,0-1.82-3.136l-1.33.672a13.225,13.225,0,0,1,1.708,3.234Zm9,2.772a26.242,26.242,0,0,0-3.052-3.066L42.56-2.128A26.276,26.276,0,0,1,45.57.966ZM59.528-11.8a14.565,14.565,0,0,1-3.192,5.236,11.376,11.376,0,0,1,.924,1.778c.28-.308.574-.658.868-1.008v7h1.68v-9.59A21.808,21.808,0,0,0,61.152-11.3ZM69.566-7.994V-9.576H64.134a16.547,16.547,0,0,0,.686-1.736l-1.61-.406A13.9,13.9,0,0,1,60.242-6.44a11.323,11.323,0,0,1,1.274,1.162A15.545,15.545,0,0,0,63.35-7.994h.532V1.218H65.59V-1.89H69.4V-3.43H65.59V-5.012h3.626V-6.524H65.59v-1.47Zm9.156-.224c-.154.378-.322.784-.49,1.12H75.614l.238-.042a6.9,6.9,0,0,0-.476-1.078Zm4.522,6.244V-3.346H77.8v-.616H82v-1.2H77.8V-5.8h4.858V-7.1H79.912c.21-.336.434-.714.658-1.12H83.2V-9.576h-1.82c.322-.49.7-1.12,1.092-1.764l-1.75-.42a11.278,11.278,0,0,1-.882,2.03l.5.154H79.1v-2.282H77.532v2.282H76.5v-2.282H74.942v2.282H73.668l.686-.252A10.594,10.594,0,0,0,73.29-11.8l-1.428.49a12.55,12.55,0,0,1,.868,1.736H70.854v1.358H73.78l-.168.028A6.291,6.291,0,0,1,74.088-7.1h-2.66v1.3H76.16v.63H72.128v1.2H76.16v.616H70.812v1.372H74.83A14.708,14.708,0,0,1,70.406-.336,7.766,7.766,0,0,1,71.47,1.05a13.28,13.28,0,0,0,4.69-2.268V1.218H77.8V-1.3a11.95,11.95,0,0,0,4.7,2.366,7.831,7.831,0,0,1,1.12-1.512,12.507,12.507,0,0,1-4.438-1.526Zm3.472-6.972H95.2V-7.2h1.778v-3.3H91.84v-1.344H90.076V-10.5H85.022v3.3h1.694ZM94.57-6.4V-7.91H87.36V-6.4ZM94-.5c-.5,0-.588-.056-.588-.5V-3.822h3.836V-5.39H84.77v1.568h3.318c-.21,1.736-.714,2.94-3.71,3.584a5.2,5.2,0,0,1,.966,1.484c3.514-.924,4.284-2.66,4.564-5.068h1.82V-.98c0,1.512.392,1.988,2.016,1.988h1.792c1.33,0,1.75-.532,1.932-2.562a5.3,5.3,0,0,1-1.5-.63C95.914-.742,95.844-.5,95.382-.5ZM109.4-10.99l-.406.112H99.442V-9.24h8.12A16.071,16.071,0,0,1,105.14-7.1H104.2V-.756c0,.238-.1.308-.406.308s-1.47.014-2.45-.042A7.29,7.29,0,0,1,102,1.218a9.837,9.837,0,0,0,3.038-.28c.686-.252.924-.7.924-1.666V-5.7a21.45,21.45,0,0,0,4.732-4.326Zm6.342,1.47v2.464H114.45V-9.52ZM114.45-2.968V-5.6h1.288v2.632ZM117.292-11H112.91V-.252h1.54V-1.484h2.842Zm.826,8.344a9.849,9.849,0,0,1,1.6,2.352l1.428-.826a9.66,9.66,0,0,0-1.694-2.3Zm7.406-3.584V-7.7h-3.192V-8.932h2.8v-1.456h-2.8v-1.47h-1.638v1.47h-2.688v1.456h2.688V-7.7H117.53v1.456h4.942v1.2h-4.914V-3.6h4.914v3.01c0,.2-.07.252-.294.252s-.994,0-1.666-.028a5.615,5.615,0,0,1,.532,1.568,6.2,6.2,0,0,0,2.338-.28c.546-.252.7-.672.7-1.47V-3.6h1.344V-5.04h-1.344v-1.2Zm6.748-3.528.014,1.792a38.372,38.372,0,0,0,5.95,0V-9.772A28.289,28.289,0,0,1,132.272-9.772ZM131.8-3.99a8.544,8.544,0,0,0-.238,1.806C131.558-.77,132.692.1,135.086.1a19.271,19.271,0,0,0,3.584-.28l-.042-1.876a15.978,15.978,0,0,1-3.472.364c-1.4,0-1.932-.364-1.932-.98a4.563,4.563,0,0,1,.168-1.162Zm-3.6-6.86a10.359,10.359,0,0,1-.14,1.358A38.441,38.441,0,0,0,127.484-4,17.7,17.7,0,0,0,128.03.532l1.6-.112c-.014-.2-.014-.42-.028-.574a4.072,4.072,0,0,1,.084-.644,33.426,33.426,0,0,1,.994-3.4l-.868-.672c-.2.448-.42.91-.616,1.4a6.69,6.69,0,0,1-.056-.9,34.279,34.279,0,0,1,.672-5.082,11.652,11.652,0,0,1,.336-1.232Zm13.874-.084a10.4,10.4,0,0,1-.126,1.358,41.091,41.091,0,0,0-.574,5.782A16.724,16.724,0,0,0,141.918.63l1.568-.112c-.014-.2-.014-.434-.014-.574a2.737,2.737,0,0,1,.07-.644,33.071,33.071,0,0,1,.994-3.3l-.854-.686c-.21.462-.434.924-.616,1.414a6.418,6.418,0,0,1-.056-.9,36.668,36.668,0,0,1,.658-5.362A11.652,11.652,0,0,1,144-10.766Zm7,8.61c0,.812-.294,1.26-1.148,1.26-.728,0-1.288-.252-1.288-.812,0-.518.532-.84,1.316-.84a4.322,4.322,0,0,1,1.12.154Zm4.382.56a8.8,8.8,0,0,0-2.674-1.792c-.056-.938-.126-2.044-.154-3.388.756-.056,1.484-.14,2.156-.238V-8.9c-.658.14-1.386.238-2.142.322,0-.616.028-1.134.042-1.442a8.851,8.851,0,0,1,.084-.9h-1.988a7.843,7.843,0,0,1,.084.91c.014.294.014.854.028,1.54-.322.014-.658.014-.98.014a22.989,22.989,0,0,1-2.422-.126V-6.93c.826.056,1.61.084,2.422.084.322,0,.658,0,.994-.014.014.98.056,1.988.1,2.842a6.228,6.228,0,0,0-.91-.056c-1.89,0-3.08.966-3.08,2.38,0,1.456,1.2,2.268,3.108,2.268,1.876,0,2.632-.952,2.716-2.268a14.139,14.139,0,0,1,1.68,1.386Z" transform="translate(-51.253 20)" fill="#1a1311"/><path d="M1.918-4.368a9.829,9.829,0,0,0-.266,2.044C1.652-.336,3.22.812,6.594.812A22.732,22.732,0,0,0,11.466.35l-.014-2.38a21.048,21.048,0,0,1-4.942.546c-1.876,0-2.59-.588-2.59-1.372a5.591,5.591,0,0,1,.21-1.316ZM9.7-11.088a7.574,7.574,0,0,1,.532.9c-1.078.084-2.548.154-3.78.154a36.929,36.929,0,0,1-3.836-.168v2.24c1.148.084,2.366.154,3.85.154,1.344,0,3.178-.084,4.158-.168V-9.45l.154.308,1.33-.56c-.252-.49-.742-1.4-1.092-1.918Zm1.722-.672A15.616,15.616,0,0,1,12.53-9.828l1.316-.56a19.982,19.982,0,0,0-1.106-1.9Zm7.5,6.916a6.5,6.5,0,0,1-.2,2.142.476.476,0,0,1-.42.182c-.224,0-.588-.014-1.008-.056.1-.784.154-1.554.182-2.268ZM24.766-7.49A14.366,14.366,0,0,1,23.688-4.8a28.823,28.823,0,0,1-.448-3.22h4.27v-2H26.026l.7-.728a11.847,11.847,0,0,0-2.184-1.456L23.31-10.99a16.744,16.744,0,0,1,1.4.966H23.128c-.028-.644-.028-1.288-.014-1.932H20.972q0,.966.042,1.932H15.358v4.2c0,1.834-.07,4.312-1.106,5.964a8.282,8.282,0,0,1,1.736,1.4,9.918,9.918,0,0,0,1.3-4.06,4.744,4.744,0,0,1,.518,1.848,10.206,10.206,0,0,0,1.61-.084,1.558,1.558,0,0,0,1.05-.63c.336-.448.406-1.736.448-4.592,0-.224.014-.714.014-.714H17.5v-1.33h3.64a27.549,27.549,0,0,0,.938,5.516,9.745,9.745,0,0,1-2.66,2.114,12.507,12.507,0,0,1,1.47,1.68A12.424,12.424,0,0,0,22.96-.378a2.749,2.749,0,0,0,2.282,1.61c1.442,0,2.1-.588,2.408-3.318a5.424,5.424,0,0,1-1.722-1.162C25.858-1.54,25.69-.84,25.41-.84c-.336,0-.686-.462-.994-1.26A17.768,17.768,0,0,0,26.824-7Zm6.44,1.526c.21-.252.406-.518.616-.8.126.238.238.49.35.756Zm5.586-3.71c.224-.6.434-1.218.6-1.848l-2.114-.462a10.57,10.57,0,0,1-2.212,4.606l-1.162.518c.658-.882,1.3-1.834,1.876-2.7l-1.708-.7A24.286,24.286,0,0,1,30.9-8.106c-.084-.112-.2-.238-.294-.364.49-.784,1.064-1.876,1.6-2.87l-1.792-.616A18.378,18.378,0,0,1,29.5-9.6l-.28-.238L28.28-8.428a12.461,12.461,0,0,1,1.6,1.876c-.168.224-.322.448-.49.658l-1.106.042.168,1.75,1.974-.14v.924l-1.638-.294A10.587,10.587,0,0,1,28.14-.378,10.226,10.226,0,0,1,29.666.35a12.7,12.7,0,0,0,.756-3.36V1.33h1.792V-2.534a16.308,16.308,0,0,1,.56,2.03l1.568-.574A19.36,19.36,0,0,0,33.46-3.71L32.214-3.3V-4.382l.546-.042c.07.252.126.49.168.7l1.526-.7a11.022,11.022,0,0,0-.994-2.548,12.566,12.566,0,0,1,1.316.952A10.642,10.642,0,0,0,35.91-7.756h3.472c-.14,4.424-.308,6.412-.714,6.832a.675.675,0,0,1-.6.252c-.378,0-1.162,0-2.016-.07A4.725,4.725,0,0,1,36.736,1.3a11.982,11.982,0,0,0,2.212-.07,2.019,2.019,0,0,0,1.484-.9c.588-.77.756-3.024.938-9.1.014-.252.014-.91.014-.91Zm1.344,6.538a12.624,12.624,0,0,0-1.75-3.122l-1.624.812a13.272,13.272,0,0,1,1.61,3.22Zm9.688-.056V-.77h-1.4l1.022-.448a8.827,8.827,0,0,0-1.092-1.974Zm3.626,0a13.257,13.257,0,0,1-1.162,2.114l.742.308H49.994V-3.192Zm-4.578-4.62a13.086,13.086,0,0,0,2.072-2.226,14.131,14.131,0,0,0,2.128,2.226Zm5.25,4.62H54.04V-4.928H49.994v-1.12h2.492v-.658a20.194,20.194,0,0,0,2.03,1.274A10.3,10.3,0,0,1,55.86-7.266a13.366,13.366,0,0,1-5.936-4.76H47.8A14.445,14.445,0,0,1,42.182-7.1a8.164,8.164,0,0,1,1.274,1.652,19,19,0,0,0,1.96-1.218v.616h2.408v1.12h-4v1.736h1.75l-1.036.434A11.362,11.362,0,0,1,45.584-.77H43.078V.966H54.936V-.77H52.08c.42-.532.91-1.246,1.4-1.932ZM67.228-6.958H64.96v-.588h2.268Zm0,1.96H64.96v-.588h2.268Zm0,1.974H64.96v-.588h2.268ZM60.3-.994H58.982v-.9H60.3ZM59.052-3.416a11.277,11.277,0,0,0,.924-.686c.336.238.658.462.952.686Zm1.26-3.6a9.175,9.175,0,0,1-.546.742l-.742-.476c.07-.084.154-.168.224-.266ZM69.146-9.03H66.822c.1-.238.2-.476.294-.728H69.4V-11.48H62.776v.616h-2.2v-1.05h-1.89v1.05H56.5v2.408h1.61V-9.31h3.024v.854h1.68v-1.3h2.156c-.028.238-.07.49-.112.728H63.14v7.49H64.2A8.767,8.767,0,0,1,62.02-.14V-2.9l.966-1.218c-.448-.336-1.092-.784-1.792-1.232A8.927,8.927,0,0,0,62.58-7.9l-1.148-.518-.294.07H60.13c.084-.168.168-.35.252-.532L58.744-9.3a6.139,6.139,0,0,1-2.59,2.814,9.289,9.289,0,0,1,1.26,1.19c.14-.1.28-.2.42-.308l.7.476a8.533,8.533,0,0,1-2.352,1.218A6.507,6.507,0,0,1,57.2-2.45l.084-.028V1.064h1.694V.532H62.02V.448c.308.294.63.63.84.868a10.24,10.24,0,0,0,3.024-1.89l-1.47-.966h4.732ZM66.192-.616A17.6,17.6,0,0,1,68.32,1.33L69.888.308A20.789,20.789,0,0,0,67.662-1.54ZM79.534-2.73V-.91H74.508V-2.73ZM72.506,1.358h2V.868h5.026v.49h2.1V-4.508H72.506ZM74.55-7.476a13.625,13.625,0,0,0,2.394-2.492,14.063,14.063,0,0,0,2.45,2.492Zm1.246-4.48a14.285,14.285,0,0,1-5.614,4.9A8.7,8.7,0,0,1,71.456-5.4a17.611,17.611,0,0,0,2.072-1.288V-5.7h7v-.924a17.947,17.947,0,0,0,2,1.232,9.587,9.587,0,0,1,1.33-1.834,13.131,13.131,0,0,1-5.936-4.732Zm13.888.392h-4.55v1.512h4.55Zm.532,1.918H84.35v1.582h5.866Zm-2.38,7.49v1.19H86.744v-1.19Zm1.778-1.582h-4.62V1.12h1.75v-.5h2.87ZM85.05-4.2h4.606V-5.712H85.05Zm0-1.932h4.606V-7.644H85.05ZM97.762-7.308h-2.8V-11.9H92.89v4.592H90.132v2.016H92.89V1.33h2.072V-5.292h2.8ZM1.092,18h6.58V15.984H5.8v-8.4H3.962a7.027,7.027,0,0,1-2.576.938v1.54H3.3v5.922H1.092Zm11.69.2c2.2,0,3.7-1.876,3.7-5.46,0-3.556-1.5-5.348-3.7-5.348S9.1,9.152,9.1,12.736,10.584,18.2,12.782,18.2Zm0-1.932c-.742,0-1.33-.672-1.33-3.528s.588-3.43,1.33-3.43,1.344.588,1.344,3.43S13.524,16.264,12.782,16.264ZM21.308,18.2c2.2,0,3.7-1.876,3.7-5.46,0-3.556-1.5-5.348-3.7-5.348s-3.682,1.764-3.682,5.348S19.11,18.2,21.308,18.2Zm0-1.932c-.742,0-1.33-.672-1.33-3.528s.588-3.43,1.33-3.43,1.344.588,1.344,3.43S22.05,16.264,21.308,16.264Zm12.236-4.158V8.9H36.61v3.206ZM28.658,8.9h2.856v3.206H28.658Zm10.01-2.016H26.614V19.316h2.044V14.122H36.61v2.884c0,.252-.1.336-.364.336s-1.19.014-1.918-.042a7.2,7.2,0,0,1,.728,2.03,6.174,6.174,0,0,0,2.758-.378c.644-.336.854-.882.854-1.918ZM42.826,20.87l1.554-.644a13.7,13.7,0,0,1-1.666-6.678A13.735,13.735,0,0,1,44.38,6.87l-1.554-.644a13.509,13.509,0,0,0-2.114,7.322A13.474,13.474,0,0,0,42.826,20.87Zm8.428-7.07c-.252-.294-1.358-1.47-1.736-1.778v-.168h1.344V9.964H49.518V8.214a16.7,16.7,0,0,0,1.61-.5L49.784,6.142A19.392,19.392,0,0,1,45.472,7.3a6.467,6.467,0,0,1,.56,1.554c.49-.056.994-.14,1.512-.224v1.33H45.682v1.89h1.6a12.771,12.771,0,0,1-1.89,3.4,10.909,10.909,0,0,1,.924,1.96A11.21,11.21,0,0,0,47.544,15V19.33h1.974V14.248c.238.42.448.84.588,1.148Zm4.97-1.778h-2.94V10.58h2.94Zm.686,5.306c-.112,0-.126-.042-.126-.5V13.786h1.47V8.816H57.106c.392-.574.854-1.344,1.316-2.128l-2.1-.672A12.8,12.8,0,0,1,55.23,8.41l1.106.406h-3l.854-.378a9.752,9.752,0,0,0-1.288-2.38l-1.68.728a11.123,11.123,0,0,1,1.036,2.03h-.91v4.97H52.3c-.112,1.736-.42,3.094-2.478,3.948a5.343,5.343,0,0,1,1.19,1.624c2.59-1.19,3.108-3.136,3.276-5.572h.532v3.052c0,1.708.294,2.31,1.708,2.31h.784c1.092,0,1.568-.588,1.736-2.688a5.218,5.218,0,0,1-1.722-.77c-.028,1.428-.084,1.638-.238,1.638Zm12.824-4.41a8.559,8.559,0,0,1-.826,2.044,7.876,7.876,0,0,1-1.134-2.044Zm.994-1.862-.336.056h-2.6c.042-.392.056-.784.084-1.19H72.66V8.046H67.928c0-.658.014-1.33.014-2.016H65.968c0,.686,0,1.358-.014,2.016h-1.5V9.922h1.47c-.126,3.234-.616,5.922-2.758,7.756.014-.14.014-.308.014-.49V14.15c.5-.14,1.022-.28,1.512-.434l-.252-1.862-1.26.308v-1.75H64.3V8.536h-1.12V6.016h-2v2.52H59.7v1.876H61.18v2.226c-.658.14-1.274.28-1.778.378l.434,2.086,1.344-.378v2.464c0,.2-.07.252-.266.266s-.756,0-1.246-.028a7.216,7.216,0,0,1,.546,1.862,4.649,4.649,0,0,0,2.282-.364,1.253,1.253,0,0,0,.63-.994A5.747,5.747,0,0,1,64.4,19.274a8.5,8.5,0,0,0,2.6-3.92,9.239,9.239,0,0,0,.728,1.134,5.919,5.919,0,0,1-1.862,1.2A6.9,6.9,0,0,1,67,19.316a8.384,8.384,0,0,0,2.072-1.428,8.421,8.421,0,0,0,2.646,1.442,7.957,7.957,0,0,1,1.288-1.75,8.073,8.073,0,0,1-2.688-1.246,12.3,12.3,0,0,0,1.624-4.942Zm4.8,9.814a13.474,13.474,0,0,0,2.114-7.322A13.509,13.509,0,0,0,75.53,6.226l-1.554.644a13.735,13.735,0,0,1,1.666,6.678,13.7,13.7,0,0,1-1.666,6.678ZM84.994,8.046l.014,2.156a42.1,42.1,0,0,0,6.09,0V8.032A31.68,31.68,0,0,1,84.994,8.046Zm-.49,5.908a8.378,8.378,0,0,0-.252,1.9c0,1.47,1.2,2.38,3.626,2.38a19.909,19.909,0,0,0,3.654-.266L91.49,15.7a16.609,16.609,0,0,1-3.5.364c-1.134,0-1.708-.224-1.708-.84a4.687,4.687,0,0,1,.14-1.106Zm-3.7-6.944c-.014.518-.112,1.148-.168,1.568a39.411,39.411,0,0,0-.546,5.46,17.665,17.665,0,0,0,.56,4.564l1.932-.126c-.014-.224-.014-.476-.014-.63a4.446,4.446,0,0,1,.084-.658,35.827,35.827,0,0,1,1.008-3.57l-1.022-.8c-.182.392-.35.672-.532,1.064a2.588,2.588,0,0,1-.014-.322,36.071,36.071,0,0,1,.658-4.942,13.663,13.663,0,0,1,.392-1.414ZM93.45,10.132l.938,2.352c1.652-.742,4.774-2.044,6.692-2.044a2.081,2.081,0,0,1,2.352,2.128c0,2.184-2.786,3.262-6.608,3.332l.98,2.24c5.236-.252,8.05-2.492,8.05-5.53,0-2.7-2.058-4.2-4.676-4.2A23.271,23.271,0,0,0,95.256,9.7C94.766,9.838,93.954,10.048,93.45,10.132ZM109.3,13.968a7.168,7.168,0,0,0-.35,1.96c0,2.044,1.666,2.94,4.34,2.94a23.831,23.831,0,0,0,3.682-.28l.07-2.142a22.122,22.122,0,0,1-3.808.308c-1.694,0-2.184-.546-2.184-1.288a4.28,4.28,0,0,1,.322-1.316Zm9.338-4.144a16.062,16.062,0,0,1-2.45.672l-.168-.392c-.084-.2-.182-.406-.266-.616a19.477,19.477,0,0,0,2.24-.546l-.35-1.862a16.668,16.668,0,0,1-2.59.63,10.007,10.007,0,0,1-.378-1.3l-2.394.448a8.949,8.949,0,0,1,.63,1.092,27.427,27.427,0,0,1-3.99-.182l.112,1.9a28.2,28.2,0,0,0,4.7.07l.364.84.084.21a28.907,28.907,0,0,1-5.362-.056l.084,1.918a37.221,37.221,0,0,0,6.034-.07c.14.336.294.714.476,1.12-.35-.028-.84-.07-1.316-.112l-.182,1.6c.952.112,2.394.336,3.206.5l.98-1.26c-.406-.77-.77-1.526-1.092-2.2a15.481,15.481,0,0,0,2.016-.518Z" transform="translate(-49.253 43)" fill="#eb6d4e"/></g><g transform="translate(-166.236 3747.79)"><g transform="translate(315.424 212.969)"><rect width="17.046" height="34.102" transform="translate(0 17.046)" fill="#003288"/><path d="M315.424,212.969v17.046H332.47v34.1h17.055v-34.1h17.047V212.969Z" transform="translate(-315.424 -212.969)" fill="#ffed00"/><rect width="17.047" height="34.102" transform="translate(34.102 17.046)" fill="#003288"/></g><g transform="translate(315.424 269.749)"><path d="M675.175,778.026v5.395c-.628-.808-3.707-5.395-3.707-5.395h-1.49v8.037h1.49v-5.357c.625.813,3.7,5.357,3.7,5.357h1.5v-8.037Z" transform="translate(-634.35 -778.026)" fill="#1a1311"/><path d="M461.451,780.567c0-1.227-.8-2.541-3.059-2.541h-2.583v8.037h1.5v-3.015H458.4C460.652,783.04,461.451,781.718,461.451,780.567Zm-4.142-1.215h1.083c1.308,0,1.45.819,1.45,1.16,0,.752-.559,1.205-1.508,1.205h-1.026Z" transform="translate(-441.702 -778.026)" fill="#1a1311"/><rect width="1.562" height="8.044" transform="translate(30.757 0)" fill="#1a1311"/><rect width="4.269" height="1.42" transform="translate(7.242 4.2)" fill="#1a1311"/><path d="M760.512,778.055v1.422h2.42v6.62H764.5v-6.62h2.423v-1.422Z" transform="translate(-715.787 -778.052)" fill="#1a1311"/><path d="M315.424,778.055v1.422h2.42v6.62h1.565v-6.62h2.423v-1.422Z" transform="translate(-315.424 -778.052)" fill="#1a1311"/><path d="M531.4,786.3c-2.393,0-3.561-1.7-3.561-4.086s1.195-4.162,3.6-4.162,3.558,1.752,3.558,4.142C534.994,784.554,533.777,786.3,531.4,786.3Zm0-6.849c-1.476,0-1.991,1.4-1.991,2.707,0,1.357.45,2.751,1.991,2.751s2.027-1.382,2.027-2.751C533.423,780.821,532.911,779.454,531.4,779.454Z" transform="translate(-506.491 -778.052)" fill="#1a1311"/></g></g></g></svg>