<svg xmlns="http://www.w3.org/2000/svg" width="315" height="70" viewBox="0 0 315 70"><g transform="translate(-238 -1300)"><g transform="translate(238 1300)" fill="#f7f3e5" stroke="#eb6d4e" stroke-width="3"><rect width="315" height="70" rx="35" stroke="none"/><rect x="1.5" y="1.5" width="312" height="67" rx="33.5" fill="none"/></g><circle cx="9.5" cy="9.5" r="9.5" transform="translate(523.815 1326)" fill="#eb6d4e"/><g transform="translate(531.598 1331.494)"><path d="M121.793,3.621,118.249.087a.3.3,0,0,0-.419.421l3.333,3.324-3.333,3.324a.3.3,0,0,0,.42.421l3.544-3.534a.3.3,0,0,0,0-.421Z" transform="translate(-117.742 0)" fill="#fff" stroke="#fff" stroke-linecap="round" stroke-width="0.5"/></g><g transform="translate(-459.417 1278.933)"><path d="M5.088-8.22a7.209,7.209,0,0,1,.456,1.488H3.252l.624-.18A6.815,6.815,0,0,0,3.2-8.28c1.02-.048,2.064-.12,3.072-.216ZM2.112-5.5h7.74v1.368h1.392v-2.6H9.54c.276-.444.588-.936.864-1.44L8.88-8.532a13.612,13.612,0,0,1-.78,1.8H6.012L6.9-6.948A6.287,6.287,0,0,0,6.36-8.5c1.6-.144,3.144-.336,4.44-.576l-.96-1.152a67.175,67.175,0,0,1-8.952.816A4.516,4.516,0,0,1,1.212-8.2C1.788-8.208,2.4-8.232,3-8.268l-1.068.3A7.48,7.48,0,0,1,2.5-6.732H.78v2.6H2.112ZM7.644-3.264A5.941,5.941,0,0,1,6.012-1.872,6.983,6.983,0,0,1,4.188-3.264ZM8.832-4.632l-.264.06H2.508v1.308h.564l-.4.168a8.074,8.074,0,0,0,1.9,1.884,16.757,16.757,0,0,1-4.08.876,4.913,4.913,0,0,1,.84,1.26A15.729,15.729,0,0,0,6-.36,14.476,14.476,0,0,0,10.584.9,6.9,6.9,0,0,1,11.46-.432a16.359,16.359,0,0,1-3.972-.816,7.05,7.05,0,0,0,2.3-2.8ZM15.2-10.1A12.562,12.562,0,0,1,12.336-5.52a11.653,11.653,0,0,1,.84,1.488c.276-.288.564-.612.84-.96V1.02H15.48V-7.224a22.042,22.042,0,0,0,1.14-2.424Zm8.388,2.52h-1.32v-2.448H20.784v2.448H16.212v1.44h4.572V-.7c0,.264-.108.36-.408.36-.276.012-1.332.012-2.256-.024a5.684,5.684,0,0,1,.552,1.416A8.53,8.53,0,0,0,21.48.816c.576-.216.792-.588.792-1.512V-6.144h1.32ZM19.668-2.508c-.36-.72-1.1-1.9-1.644-2.772l-1.272.588A28.156,28.156,0,0,1,18.3-1.812ZM27.2-8.16v2.112H26.1V-8.16ZM26.1-2.544V-4.8h1.1v2.256Zm2.436-6.888H24.78V-.216H26.1V-1.272h2.436Zm.708,7.152A8.442,8.442,0,0,1,30.612-.264l1.224-.708A8.28,8.28,0,0,0,30.384-2.94Zm6.348-3.072V-6.6H32.856V-7.656h2.4V-8.9h-2.4v-1.26h-1.4V-8.9h-2.3v1.248h2.3V-6.6H28.74v1.248h4.236V-4.32H28.764v1.236h4.212V-.5c0,.168-.06.216-.252.216s-.852,0-1.428-.024a4.813,4.813,0,0,1,.456,1.344,5.313,5.313,0,0,0,2-.24c.468-.216.6-.576.6-1.26V-3.084h1.152V-4.32H34.356V-5.352Zm4.644-3.324v.636H38.388v-.636ZM38.388-6.4V-7.08h1.848V-6.4Zm3.18,1.02V-9.708h-4.6V1.044h1.416v-6.42Zm2.184-1V-7.08H45.66v.708Zm1.908-2.3v.636H43.752v-.636Zm-4.68,7.56V-1.86h1.98v.744ZM42.96-3.6v.72H40.98V-3.6ZM47.1-9.708H42.4v4.356H45.66V-.66c0,.192-.072.264-.288.264-.156.012-.6.012-1.068,0v-4.26h-4.62V.54h1.3V-.072h2.976a5.284,5.284,0,0,1,.312,1.116,5.185,5.185,0,0,0,2.2-.276C46.944.54,47.1.12,47.1-.648ZM63.528.168c1.8,0,2.988-1.032,2.988-2.376a2.583,2.583,0,0,0-1.488-2.376v-.06a2.586,2.586,0,0,0,1.14-2.028,2.331,2.331,0,0,0-2.58-2.364A2.4,2.4,0,0,0,60.912-6.7a2.53,2.53,0,0,0,1.176,2.112v.06a2.584,2.584,0,0,0-1.524,2.316C60.564-.816,61.836.168,63.528.168Zm.564-5.244c-.936-.372-1.62-.78-1.62-1.62a1.033,1.033,0,0,1,1.08-1.1,1.131,1.131,0,0,1,1.176,1.236A2.127,2.127,0,0,1,64.092-5.076Zm-.516,4A1.361,1.361,0,0,1,62.088-2.4,2.135,2.135,0,0,1,62.9-4.044c1.152.468,1.968.852,1.968,1.776A1.164,1.164,0,0,1,63.576-1.08Zm5.436-3.312a1.1,1.1,0,0,0,1.1-1.14,1.1,1.1,0,0,0-1.1-1.152A1.1,1.1,0,0,0,67.92-5.532,1.092,1.092,0,0,0,69.012-4.392Zm0,4.56a1.105,1.105,0,0,0,1.1-1.152,1.105,1.105,0,0,0-1.1-1.152A1.1,1.1,0,0,0,67.92-.984,1.1,1.1,0,0,0,69.012.168Zm5.244,0c1.692,0,3.12-.948,3.12-2.58A2.219,2.219,0,0,0,75.6-4.6v-.06a2.1,2.1,0,0,0,1.488-2.028c0-1.524-1.164-2.364-2.88-2.364a3.94,3.94,0,0,0-2.664,1.092l.9,1.08a2.534,2.534,0,0,1,1.68-.792,1.061,1.061,0,0,1,1.188,1.116c0,.792-.528,1.356-2.16,1.356v1.272c1.932,0,2.448.54,2.448,1.416,0,.792-.612,1.236-1.512,1.236a2.821,2.821,0,0,1-1.98-.912L71.28-1.068A3.775,3.775,0,0,0,74.256.168Zm7.32,0c1.8,0,3-1.584,3-4.644s-1.2-4.572-3-4.572-3.012,1.5-3.012,4.572S79.764.168,81.576.168Zm0-1.38c-.768,0-1.344-.768-1.344-3.264s.576-3.2,1.344-3.2,1.332.72,1.332,3.2S82.332-1.212,81.576-1.212ZM93.4-2.724A3.709,3.709,0,0,0,96.66-4.932l-1.32-.72a2.344,2.344,0,0,1-1.908,1.44,2.2,2.2,0,0,1-1.788-.864A3.631,3.631,0,0,0,88.812-6.4a3.709,3.709,0,0,0-3.264,2.208l1.32.72a2.344,2.344,0,0,1,1.908-1.44,2.213,2.213,0,0,1,1.788.864A3.631,3.631,0,0,0,93.4-2.724ZM98.088,0h5.34V-1.428H101.76V-8.88h-1.308a5.76,5.76,0,0,1-2.064.744v1.092H100v5.616H98.088ZM106.4,0h1.788c.144-3.48.42-5.292,2.484-7.812V-8.88h-5.9V-7.4h4A12.254,12.254,0,0,0,106.4,0Zm6.78-4.392a1.1,1.1,0,0,0,1.1-1.14,1.1,1.1,0,0,0-1.1-1.152,1.1,1.1,0,0,0-1.092,1.152A1.092,1.092,0,0,0,113.184-4.392Zm0,4.56a1.105,1.105,0,0,0,1.1-1.152,1.105,1.105,0,0,0-1.1-1.152,1.1,1.1,0,0,0-1.092,1.152A1.1,1.1,0,0,0,113.184.168Zm5.244,0c1.692,0,3.12-.948,3.12-2.58A2.219,2.219,0,0,0,119.772-4.6v-.06a2.1,2.1,0,0,0,1.488-2.028c0-1.524-1.164-2.364-2.88-2.364a3.94,3.94,0,0,0-2.664,1.092l.9,1.08a2.534,2.534,0,0,1,1.68-.792,1.061,1.061,0,0,1,1.188,1.116c0,.792-.528,1.356-2.16,1.356v1.272c1.932,0,2.448.54,2.448,1.416,0,.792-.612,1.236-1.512,1.236a2.821,2.821,0,0,1-1.98-.912l-.828,1.116A3.775,3.775,0,0,0,118.428.168Zm7.32,0c1.8,0,3-1.584,3-4.644s-1.2-4.572-3-4.572-3.012,1.5-3.012,4.572S123.936.168,125.748.168Zm0-1.38c-.768,0-1.344-.768-1.344-3.264s.576-3.2,1.344-3.2,1.332.72,1.332,3.2S126.5-1.212,125.748-1.212ZM137.2-10.224V1.1h3.744v-.06a7.435,7.435,0,0,1-2.376-5.6,7.435,7.435,0,0,1,2.376-5.6v-.06Zm7.92,7.344V-4.7h2.076V-2.88Zm7.656,0h-4.1V-4.7h3.168v-1.32h-3.168v-1.44h3.444v-1.38h-6.78a7.66,7.66,0,0,0,.4-.984l-1.452-.372a9.254,9.254,0,0,1-2.52,4,11.044,11.044,0,0,1,1.236.924,10.785,10.785,0,0,0,1.632-2.184h2.568v1.44h-3.5V-2.88h-1.9v1.368h5.4V1.056h1.476V-1.512h4.1ZM160.008-4.1v-2.58h2.712V-4.1Zm-4.212,0v-2.58h2.7V-4.1Zm4.212-3.984v-2.076H158.5v2.076h-4.14V-2.04h1.44V-2.7h2.7V1.044h1.512V-2.7h2.712v.6h1.5V-8.088Zm13.8,1.968H172.9V-7.656h.912Zm0,2.8H172.9V-4.848h.912Zm-5.04-1.524h.864v1.524h-.864Zm2.94,0v1.524h-.888V-4.848ZM170.82-6.12V-7.656h.888V-6.12Zm-2.052-1.536h.864V-6.12h-.864Zm-1.26,1.536H165.9v1.272h1.608v1.524H166.08v1.272h10.428V-3.324h-1.392V-4.848h1.56V-6.12h-1.56V-7.656h1.128v-1.26h-7.2a6.459,6.459,0,0,0,.468-.84l-1.392-.408A7.379,7.379,0,0,1,165.636-7.3a13.216,13.216,0,0,1,1.164.936,8.243,8.243,0,0,0,.708-.624Zm-.372,7.176a6.567,6.567,0,0,0,1.368-2.52l-1.38-.336A5.913,5.913,0,0,1,165.78.5Zm2.136-2.436A15.232,15.232,0,0,1,169.5.912l1.392-.2a15.538,15.538,0,0,0-.288-2.244Zm2.376.024a12.786,12.786,0,0,1,.612,2.28l1.428-.276a13.374,13.374,0,0,0-.7-2.232Zm2.376-.06a15.456,15.456,0,0,1,1.416,2.46L176.9.552a16.276,16.276,0,0,0-1.512-2.4Zm14.712-4.452V-7.26H185.6V-9.972h-1.416V-7.26H181.14v1.392h2.484a11.386,11.386,0,0,1-2.964,4.344V-7.116A18.935,18.935,0,0,0,181.9-9.648L180.48-10.1A12.311,12.311,0,0,1,177.444-5.5a10.361,10.361,0,0,1,.828,1.5,10.876,10.876,0,0,0,.984-1.08v6.1h1.4v-2.4a7.914,7.914,0,0,1,.972,1.056,12.194,12.194,0,0,0,2.556-3.636v5H185.6V-4.2a12.267,12.267,0,0,0,2.424,3.816,5.087,5.087,0,0,1,1.068-1.14,11.737,11.737,0,0,1-2.868-4.344Zm4.62-4.356h-3.744v.06a7.435,7.435,0,0,1,2.376,5.6,7.435,7.435,0,0,1-2.376,5.6V1.1h3.744Z" transform="translate(759.417 83.068)" fill="#1a1311"/><rect width="59" height="5" transform="translate(851.418 36.068)" fill="#ffd800"/><rect width="50" height="5" transform="translate(924.418 36.068)" fill="#ffd800"/><path d="M2.28-3.9a8.055,8.055,0,0,0-.336,1.956C1.944-.288,3.228.612,5.616.612A16.654,16.654,0,0,0,8.82.324l.036-1.572A13.139,13.139,0,0,1,5.616-.9c-1.68,0-2.124-.588-2.124-1.452a5.333,5.333,0,0,1,.324-1.416Zm7.752-4.668a17.384,17.384,0,0,1-2.328.6c-.264-.624-.492-1.188-.7-1.812l-1.68.324a9.225,9.225,0,0,1,.588,1.14c.072.18.156.372.252.564a20.246,20.246,0,0,1-4.44-.12l.048,1.524a26.7,26.7,0,0,0,5,0c.348.744.756,1.572,1.044,2.172-.36-.024-1.008-.1-1.4-.132L6.288-3.084c.876.108,2.052.3,2.7.432l.84-.9C9.312-4.5,8.748-5.628,8.292-6.588c.72-.144,1.416-.312,2.016-.48ZM17.04-3.9A8.055,8.055,0,0,0,16.7-1.944C16.7-.288,17.988.612,20.376.612a16.654,16.654,0,0,0,3.2-.288l.036-1.572a13.139,13.139,0,0,1-3.24.348c-1.68,0-2.124-.588-2.124-1.452a5.333,5.333,0,0,1,.324-1.416Zm7.752-4.668a17.384,17.384,0,0,1-2.328.6c-.264-.624-.492-1.188-.7-1.812l-1.68.324a9.225,9.225,0,0,1,.588,1.14c.072.18.156.372.252.564a20.246,20.246,0,0,1-4.44-.12l.048,1.524a26.7,26.7,0,0,0,5,0c.348.744.756,1.572,1.044,2.172-.36-.024-1.008-.1-1.4-.132l-.132,1.224c.876.108,2.052.3,2.7.432l.84-.9c-.516-.948-1.08-2.076-1.536-3.036.72-.144,1.416-.312,2.016-.48ZM31.284-5.1,31.9-3.54A16.015,16.015,0,0,1,36.66-4.956a1.532,1.532,0,0,1,1.7,1.512c0,1.62-2.016,2.328-4.716,2.4L34.272.432c3.78-.228,5.664-1.7,5.664-3.852A2.839,2.839,0,0,0,36.8-6.336a17.053,17.053,0,0,0-4.26.924A10.154,10.154,0,0,1,31.284-5.1ZM53.172-8.364a8.205,8.205,0,0,1-1.092.72c-.564.312-1.6.84-2.568,1.4a27.861,27.861,0,0,1-1.488-3.288l-1.5.612c.54,1.26,1.116,2.52,1.668,3.54a3.96,3.96,0,0,0-1.968,3.132c0,2.04,1.788,2.7,4.152,2.7A23.242,23.242,0,0,0,54.192.168l.024-1.716a19.876,19.876,0,0,1-3.888.432c-1.644,0-2.472-.456-2.472-1.308,0-.828.66-1.512,1.656-2.16a36.393,36.393,0,0,1,3.312-1.764c.432-.216.816-.42,1.176-.636Z" transform="translate(852.417 37.068)" fill="#ed4c24"/><path d="M10.14-6.984c0-.348.024-.828.036-1.1-.2.012-.7.024-1.044.024h-.06L9.9-8.412a14.687,14.687,0,0,0-.936-1.608l-.984.408a10.819,10.819,0,0,1,.888,1.548H3.084c-.42,0-1.032-.024-1.488-.072v1.668c.336-.024.984-.048,1.488-.048h5.4v4.968H2.94c-.54,0-1.08-.036-1.488-.072V.1C1.848.06,2.52.024,2.988.024H8.472c0,.216,0,.432-.012.624H10.2c-.036-.36-.06-1-.06-1.416ZM9.588-10a14.224,14.224,0,0,1,.96,1.608l1-.432c-.228-.42-.66-1.152-.96-1.584ZM13.1-3.672c.444-.036,1.248-.06,1.932-.06H21.48c.5,0,1.116.048,1.4.06V-5.556c-.312.024-.852.072-1.4.072H15.036c-.624,0-1.5-.036-1.932-.072ZM34.14-6.984c0-.348.024-.828.036-1.1-.2.012-.7.024-1.044.024h-.06l.828-.348a14.688,14.688,0,0,0-.936-1.608l-.984.408a10.819,10.819,0,0,1,.888,1.548H27.084c-.42,0-1.032-.024-1.488-.072v1.668c.336-.024.984-.048,1.488-.048h5.4v4.968H26.94c-.54,0-1.08-.036-1.488-.072V.1c.4-.036,1.068-.072,1.536-.072h5.484c0,.216,0,.432-.012.624H34.2c-.036-.36-.06-1-.06-1.416ZM33.588-10a14.224,14.224,0,0,1,.96,1.608l1-.432c-.228-.42-.66-1.152-.96-1.584ZM37.1-3.672c.444-.036,1.248-.06,1.932-.06H45.48c.5,0,1.116.048,1.4.06V-5.556c-.312.024-.852.072-1.4.072H39.036c-.624,0-1.5-.036-1.932-.072Z" transform="translate(924.417 37.068)" fill="#ed4c24"/><path d="M9.078.391q-8,0-8-11.234,0-5.828,2.164-8.883a7.21,7.21,0,0,1,6.273-3.055q7.813,0,7.813,11.422,0,5.688-2.133,8.719A7.026,7.026,0,0,1,9.078.391ZM9.3-19.016q-3.2,0-3.2,8.047,0,7.578,3.141,7.578,3.062,0,3.063-7.812T9.3-19.016Zm22.429-3.891V0H26.8V-17.344a5.894,5.894,0,0,1-.961.68,9.92,9.92,0,0,1-1.18.578,10.534,10.534,0,0,1-1.3.438,9.472,9.472,0,0,1-1.328.258v-4.156a20.531,20.531,0,0,0,3.625-1.437,20.629,20.629,0,0,0,3.078-1.922ZM44.156-4.094h9.5V0H38.749V-1.687a7.854,7.854,0,0,1,.578-3.086,10.241,10.241,0,0,1,1.453-2.453,12.6,12.6,0,0,1,1.914-1.922q1.039-.836,1.977-1.508.984-.7,1.727-1.344a9.839,9.839,0,0,0,1.25-1.273,4.841,4.841,0,0,0,.758-1.281,3.81,3.81,0,0,0,.25-1.383,2.779,2.779,0,0,0-.812-2.172,3.612,3.612,0,0,0-2.484-.734,8.344,8.344,0,0,0-5.531,2.3v-4.344a11.874,11.874,0,0,1,6.594-1.891,9.738,9.738,0,0,1,3.055.445,6.463,6.463,0,0,1,2.289,1.273,5.431,5.431,0,0,1,1.43,2.008,6.776,6.776,0,0,1,.492,2.633,7.424,7.424,0,0,1-.477,2.75,8.45,8.45,0,0,1-1.266,2.188,11.48,11.48,0,0,1-1.82,1.8q-1.031.82-2.141,1.586-.75.531-1.445,1.055a13.7,13.7,0,0,0-1.227,1.031,5.6,5.6,0,0,0-.844.992A1.713,1.713,0,0,0,44.156-4.094ZM65.257.391q-8,0-8-11.234,0-5.828,2.164-8.883a7.21,7.21,0,0,1,6.273-3.055q7.813,0,7.813,11.422,0,5.688-2.133,8.719A7.026,7.026,0,0,1,65.257.391Zm.219-19.406q-3.2,0-3.2,8.047,0,7.578,3.141,7.578,3.062,0,3.063-7.812T65.476-19.016Zm20.211,12.2H77.139v-3.453h8.547Zm4.3,6.078v-4.3a8.673,8.673,0,0,0,5.25,1.641A4.727,4.727,0,0,0,98.186-4.2a2.7,2.7,0,0,0,1.055-2.266,2.575,2.575,0,0,0-1.3-2.312,6.759,6.759,0,0,0-3.586-.812H92.272v-3.781h1.922q4.375,0,4.375-2.906,0-2.734-3.359-2.734a7.659,7.659,0,0,0-4.375,1.453v-4.031a12.083,12.083,0,0,1,5.5-1.187,8.3,8.3,0,0,1,5.352,1.547,4.923,4.923,0,0,1,1.914,4.016q0,4.391-4.453,5.5v.078a6.054,6.054,0,0,1,3.75,1.727,4.868,4.868,0,0,1,1.375,3.508,6.012,6.012,0,0,1-2.3,4.969A9.931,9.931,0,0,1,95.631.391,12.261,12.261,0,0,1,89.991-.734Zm18.726,0v-4.3a8.673,8.673,0,0,0,5.25,1.641,4.727,4.727,0,0,0,2.945-.812,2.7,2.7,0,0,0,1.055-2.266,2.575,2.575,0,0,0-1.3-2.312,6.759,6.759,0,0,0-3.586-.812H111v-3.781h1.922q4.375,0,4.375-2.906,0-2.734-3.359-2.734a7.659,7.659,0,0,0-4.375,1.453v-4.031a12.083,12.083,0,0,1,5.5-1.187,8.3,8.3,0,0,1,5.352,1.547,4.923,4.923,0,0,1,1.914,4.016q0,4.391-4.453,5.5v.078a6.054,6.054,0,0,1,3.75,1.727A4.868,4.868,0,0,1,123-6.406a6.012,6.012,0,0,1-2.3,4.969A9.931,9.931,0,0,1,114.357.391,12.261,12.261,0,0,1,108.717-.734Zm29.9-22.172V0h-4.922V-17.344a5.894,5.894,0,0,1-.961.68,9.92,9.92,0,0,1-1.18.578,10.534,10.534,0,0,1-1.3.438,9.472,9.472,0,0,1-1.328.258v-4.156a20.531,20.531,0,0,0,3.625-1.437,20.629,20.629,0,0,0,3.078-1.922Zm14.8,23.3q-8,0-8-11.234,0-5.828,2.164-8.883a7.21,7.21,0,0,1,6.273-3.055q7.812,0,7.813,11.422,0,5.688-2.133,8.719A7.026,7.026,0,0,1,153.419.391Zm.219-19.406q-3.2,0-3.2,8.047,0,7.578,3.141,7.578,3.063,0,3.063-7.812T153.638-19.016Zm20.211,12.2H165.3v-3.453h8.547Zm4.7,6.234V-4.8a9.21,9.21,0,0,0,4.891,1.406,4.594,4.594,0,0,0,3.055-.93,3.129,3.129,0,0,0,1.1-2.523q0-3.328-4.7-3.328a34.826,34.826,0,0,0-4,.266l.844-12.5h11.859v4.031H183.5l-.312,4.484q1.2-.094,2.078-.094a7.642,7.642,0,0,1,5.406,1.813A6.329,6.329,0,0,1,192.622-7.3a7.2,7.2,0,0,1-2.328,5.539A8.945,8.945,0,0,1,183.981.391,13.508,13.508,0,0,1,178.544-.578Zm18.726,0V-4.8a9.21,9.21,0,0,0,4.891,1.406,4.594,4.594,0,0,0,3.055-.93,3.129,3.129,0,0,0,1.1-2.523q0-3.328-4.7-3.328a34.826,34.826,0,0,0-4,.266l.844-12.5h11.859v4.031h-8.094l-.312,4.484q1.2-.094,2.078-.094a7.642,7.642,0,0,1,5.406,1.813A6.329,6.329,0,0,1,211.348-7.3a7.2,7.2,0,0,1-2.328,5.539A8.945,8.945,0,0,1,202.708.391,13.508,13.508,0,0,1,197.27-.578Z" transform="translate(759.418 67.068)" fill="#ed4c24"/></g><g transform="translate(256.344 1317.196)"><circle cx="19" cy="19" r="19" transform="translate(-0.344 -1.197)" fill="#ed4c24"/><path d="M18.16,13.739l-2.608-2.612a1.733,1.733,0,0,0-2.887.652A1.773,1.773,0,0,1,10.617,12.9,8.054,8.054,0,0,1,5.773,8.046,1.69,1.69,0,0,1,6.889,5.994,1.738,1.738,0,0,0,7.54,3.1L4.932.49a1.858,1.858,0,0,0-2.514,0L.649,2.261C-1.12,4.126.837,9.07,5.216,13.455s9.315,6.439,11.177,4.574l1.769-1.772A1.865,1.865,0,0,0,18.16,13.739Z" transform="translate(11.668 7.099) rotate(11)" fill="#fff"/></g><path d="M-28.944-6.132v.648h-1.38v-.648Zm2.688.648h-1.416v-.648h1.416Zm-1.416,1.668v-.672h1.416v.672Zm-2.652,0v-.672h1.38v.672Zm0,1.032h1.38v1.752h1.272V-2.784h1.416v.552c0,.12-.036.168-.18.18-.12,0-.54,0-.912-.012A3.9,3.9,0,0,1-27-.948a3.611,3.611,0,0,0,1.62-.2c.384-.192.492-.492.492-1.068V-7.164H-26.34c-.2-.12-.456-.24-.72-.372a13.659,13.659,0,0,0,2.136-1.62l-.852-.684-.276.072H-31.56v1.08h4.272a11.087,11.087,0,0,1-.96.636c-.492-.216-1-.408-1.416-.564l-.924.768c.492.192,1.068.432,1.608.684h-2.688v6.18h1.344Zm-2-5.28a10.278,10.278,0,0,0-2.088-1.848L-35.4-9a9.741,9.741,0,0,1,2,1.956Zm-.36,2.556H-35.58V-4.2h1.524v2.616a16.518,16.518,0,0,1-1.68,1.092l.66,1.428c.672-.5,1.236-.972,1.788-1.44A3.722,3.722,0,0,0-30.18.828c1.464.06,4.008.036,5.484-.036A5.9,5.9,0,0,1-24.252-.6c-1.644.132-4.488.168-5.916.108a2.739,2.739,0,0,1-2.52-1.188Zm13.26-4.284h-3.54v1.08h3.54Zm-1.164,7.86V-.564h-1.284V-1.932ZM-19.38-3.06h-3.7V1.032h1.2V.564h2.5Zm-3.66-.612h3.6v-1.08h-3.6Zm3.6-2.748h-3.6v1.068h3.6ZM-23.6-7.008h4.56V-8.136H-23.6Zm9.348,6.192H-16.98V-2.5h2.724Zm1.908-4.548V-6.7h-2.58V-8.364a18.248,18.248,0,0,0,2.268-.492l-1.008-1.188a26.23,26.23,0,0,1-5.088.876,4.67,4.67,0,0,1,.384,1.2c.636-.048,1.32-.108,1.992-.192V-6.7h-2.58v1.332h2.58V-3.78h-1.956V1.044h1.356V.468h2.724V1h1.428V-3.78h-2.1V-5.364Zm8.976-2.7A9.018,9.018,0,0,0-5.28-9.516l-.684.96A9.655,9.655,0,0,1-4.1-7ZM-6.516-5.532A10.132,10.132,0,0,1-4.548-4.044l.72-1.14a10.541,10.541,0,0,0-2.016-1.38ZM-7.6-9.5A20.409,20.409,0,0,1-8.256-6.7l.9.252c.3-.7.648-1.836.96-2.8ZM-9.924-6.7a12.031,12.031,0,0,0-.612-2.748l-1,.264a11.893,11.893,0,0,1,.54,2.76Zm3.276,3.948c-.252-.336-1.392-1.68-1.74-2.028V-4.86h1.776V-6.192H-8.388v-3.924h-1.32v3.924H-11.52V-4.86h1.368a11.109,11.109,0,0,1-1.584,3.108,8.48,8.48,0,0,1,.648,1.476,12.315,12.315,0,0,0,1.38-2.952V1.008h1.32V-3.2a16.03,16.03,0,0,1,.864,1.56ZM-.3-2.472-.516-3.8l-1.224.228v-6.6H-3.084v6.84L-6.648-2.7l.216,1.332,3.348-.6v3H-1.74v-3.24ZM8.532-6.12H7.62V-7.656h.912Zm0,2.8H7.62V-4.848h.912ZM3.492-4.848h.864v1.524H3.492Zm2.94,0v1.524H5.544V-4.848ZM5.544-6.12V-7.656h.888V-6.12ZM3.492-7.656h.864V-6.12H3.492ZM2.232-6.12H.624v1.272H2.232v1.524H.8v1.272H11.232V-3.324H9.84V-4.848H11.4V-6.12H9.84V-7.656h1.128v-1.26h-7.2a6.46,6.46,0,0,0,.468-.84l-1.392-.408A7.379,7.379,0,0,1,.36-7.3a13.216,13.216,0,0,1,1.164.936,8.246,8.246,0,0,0,.708-.624ZM1.86,1.056a6.567,6.567,0,0,0,1.368-2.52L1.848-1.8A5.913,5.913,0,0,1,.5.5ZM4-1.38A15.233,15.233,0,0,1,4.224.912l1.392-.2a15.539,15.539,0,0,0-.288-2.244Zm2.376.024A12.787,12.787,0,0,1,6.984.924L8.412.648a13.373,13.373,0,0,0-.7-2.232Zm2.376-.06a15.456,15.456,0,0,1,1.416,2.46L11.628.552a16.276,16.276,0,0,0-1.512-2.4Zm11.88-6.648A9.018,9.018,0,0,0,18.72-9.516l-.684.96A9.655,9.655,0,0,1,19.9-7ZM17.484-5.532a10.132,10.132,0,0,1,1.968,1.488l.72-1.14a10.541,10.541,0,0,0-2.016-1.38ZM16.4-9.5a20.409,20.409,0,0,1-.66,2.808l.9.252c.3-.7.648-1.836.96-2.8ZM14.076-6.7a12.031,12.031,0,0,0-.612-2.748l-1,.264a11.893,11.893,0,0,1,.54,2.76Zm3.276,3.948c-.252-.336-1.392-1.68-1.74-2.028V-4.86h1.776V-6.192H15.612v-3.924h-1.32v3.924H12.48V-4.86h1.368a11.109,11.109,0,0,1-1.584,3.108,8.48,8.48,0,0,1,.648,1.476,12.315,12.315,0,0,0,1.38-2.952V1.008h1.32V-3.2a16.03,16.03,0,0,1,.864,1.56Zm6.348.276L23.484-3.8l-1.224.228v-6.6H20.916v6.84L17.352-2.7l.216,1.332,3.348-.6v3H22.26v-3.24Zm5.688-.612h1.236l.42-4.1.06-1.788h-2.2l.048,1.788ZM30,.108a1.174,1.174,0,0,0,1.248-1.176A1.19,1.19,0,0,0,30-2.256a1.19,1.19,0,0,0-1.248,1.188A1.174,1.174,0,0,0,30,.108Z" transform="translate(338 1318)" fill="#ed4c24"/></g></svg>