<svg xmlns="http://www.w3.org/2000/svg" width="236.67" height="65.031" viewBox="0 0 236.67 65.031"><g transform="translate(-186.187 -3959.759)"><g transform="translate(247.252 3960)"><path d="M5.358,0h5.89V-30.78H6.65C5.51-29.526,2.128-27.892.912-27.4v4.37c.912-.456,3.534-1.178,4.446-1.672ZM25.194.532c5.4,0,8.208-3.686,8.208-8.892V-22.154c0-5.4-2.584-9.044-8.208-9.044-5.7,0-8.246,3.648-8.246,9.044V-8.36C16.948-3.116,19.684.532,25.194.532Zm0-5.168c-2.014,0-2.28-2.318-2.28-3.838V-22.04c0-1.634.114-3.99,2.28-3.99,2.09,0,2.242,2.356,2.242,3.99V-8.474C27.436-6.954,27.17-4.636,25.194-4.636ZM45.828.532c5.4,0,8.208-3.686,8.208-8.892V-22.154c0-5.4-2.584-9.044-8.208-9.044-5.7,0-8.246,3.648-8.246,9.044V-8.36C37.582-3.116,40.318.532,45.828.532Zm0-5.168c-2.014,0-2.28-2.318-2.28-3.838V-22.04c0-1.634.114-3.99,2.28-3.99,2.09,0,2.242,2.356,2.242,3.99V-8.474C48.07-6.954,47.8-4.636,45.828-4.636Z" transform="translate(-0.253 58)" fill="#eb6d4e"/><path d="M1.144,4.18h3.3V-.968A4.031,4.031,0,0,0,7.04.22C9,.22,9.9-1.562,9.9-3.982V-8.954c0-1.958-.682-3.96-2.75-3.982A4.047,4.047,0,0,0,4.444-11.77v-.946h-3.3ZM5.566-2a2.135,2.135,0,0,1-1.122-.374v-7.986a1.906,1.906,0,0,1,1.144-.484c.748,0,.99.748.99,1.672V-3.85C6.578-2.816,6.358-2,5.566-2ZM15.774.154A14.132,14.132,0,0,0,17.82-.022v-2.6a4.07,4.07,0,0,1-.946.088.991.991,0,0,1-1.122-1.122v-6.886H17.6v-2.178H15.752v-3.828H12.386v3.828H11.132v2.178h1.254v7.216C12.386-1.122,13.09.154,15.774.154Z" transform="translate(56.747 57)" fill="#eb6d4e"/><path d="M15.39-12.4a.96.96,0,0,1-.954-.954.96.96,0,0,1,.954-.954.96.96,0,0,1,.954.954A.96.96,0,0,1,15.39-12.4Zm-11.448-.63c-.594,0-1.782-.09-2.34-.162v3.078c.468-.036,1.458-.09,2.34-.09h7.92a10.112,10.112,0,0,1-1.98,4.644A11.779,11.779,0,0,1,2.808-1.4l2.376,2.61A14.761,14.761,0,0,0,12.51-3.852a18.966,18.966,0,0,0,2.718-6.516c.054-.216.126-.486.216-.756a2.257,2.257,0,0,0,2.178-2.232,2.243,2.243,0,0,0-2.232-2.232,2.243,2.243,0,0,0-2.232,2.232,1.026,1.026,0,0,0,.018.234,9.381,9.381,0,0,1-1.3.09ZM23.31,1.008A4.68,4.68,0,0,1,24.552.432c4.1-1.44,7.866-3.546,10.4-6.516L33.408-8.568a21.217,21.217,0,0,1-8.91,5.85v-8.874a14.136,14.136,0,0,1,.2-2.268h-3.42a11.881,11.881,0,0,1,.234,2.268v9.468a2.715,2.715,0,0,1-.27,1.332ZM53.676-13.356A25.692,25.692,0,0,0,52.254-15.8l-1.692.684a20.078,20.078,0,0,1,1.422,2.484Zm-2.232.882c-.324-.63-.954-1.8-1.4-2.466l-1.692.684a24.386,24.386,0,0,1,1.386,2.5Zm-7.974.756a18.139,18.139,0,0,1,.18-2.3H40.41a18.51,18.51,0,0,1,.162,2.3V-9.45c-1.71.306-3.24.558-4.1.666L36.99-5.94c.774-.18,2.088-.45,3.582-.756v4.608c0,2.34.576,3.384,5.094,3.384A46.365,46.365,0,0,0,51.21.9l.09-2.952a30.956,30.956,0,0,1-5.724.63c-1.872,0-2.106-.378-2.106-1.44V-7.29c2.178-.432,4.158-.828,4.806-.954A14.775,14.775,0,0,1,45.594-4.95l2.394,1.4A24.86,24.86,0,0,0,51.732-8.8c.18-.36.486-.828.666-1.116l-2.106-1.638a6.278,6.278,0,0,1-1.458.486c-.828.2-3.024.648-5.364,1.08Zm15.012-2.25-2.07,2.214A37.517,37.517,0,0,1,60.93-7.812L63.162-10.1A36.318,36.318,0,0,0,58.482-13.968ZM55.818-2.016,57.672.864a19.208,19.208,0,0,0,6.444-2.376,19.465,19.465,0,0,0,7-6.822l-1.692-3.078a17.393,17.393,0,0,1-6.876,7.2A18.523,18.523,0,0,1,55.818-2.016Zm32.04-4.878a59.511,59.511,0,0,0-7.434-2.718v-2.466a21.4,21.4,0,0,1,.18-2.34H77.2a12.575,12.575,0,0,1,.216,2.34V-1.8A20.207,20.207,0,0,1,77.2.918h3.42c-.09-.81-.2-2.232-.2-2.718V-6.426a56.137,56.137,0,0,1,6.192,2.574Z" transform="translate(87.747 57)" fill="#eb6d4e"/><g transform="translate(54.567)"><path d="M3.906-1.246c-.364,0-1.008-.392-1.008-.812,0-.49.56-1.064,1.414-1.5.028.728.042,1.358.042,1.708C4.354-1.372,4.158-1.246,3.906-1.246ZM5.88-6.23c0-.406,0-.826.014-1.246A26.776,26.776,0,0,0,8.54-7.91L8.5-9.646a18.986,18.986,0,0,1-2.548.518c.014-.35.028-.686.042-.994.028-.35.084-.952.112-1.2H4.2a11.006,11.006,0,0,1,.1,1.218c0,.238,0,.644-.014,1.134-.28.014-.546.028-.8.028a15.189,15.189,0,0,1-1.918-.112L1.6-7.378c.6.056,1.3.07,1.932.07.224,0,.476-.014.742-.028v1.162c0,.322,0,.644.014.966C2.59-4.466,1.176-3.22,1.176-2,1.176-.532,3.094.63,4.452.63c.9,0,1.526-.448,1.526-2.17,0-.476-.042-1.54-.07-2.646a9.842,9.842,0,0,1,2.6-.378c1.2,0,2.044.546,2.044,1.484,0,1.008-.9,1.582-2.016,1.778a10.6,10.6,0,0,1-1.708.1L7.476.574A11.3,11.3,0,0,0,9.3.35c2.2-.546,3.052-1.778,3.052-3.416,0-1.9-1.68-3.038-3.808-3.038a11.284,11.284,0,0,0-2.66.364ZM9.3-8.47a21.061,21.061,0,0,1,3.332,2.016l.84-1.428a30.627,30.627,0,0,0-3.4-1.946Zm8.778,2.94h5.852v.868H18.074Zm0-2.226h5.852v.868H18.074Zm0-2.212h5.852V-9.1H18.074Zm5.88,9.492c-.532,0-.616-.056-.616-.5V-3.206H25.62v-8.218H16.464v8.218h1.708c-.238,1.526-.84,2.464-3.71,3a5.276,5.276,0,0,1,.924,1.484C18.844.49,19.67-.98,19.964-3.206h1.694v2.24c0,1.568.392,2.072,2.058,2.072h1.848c1.386,0,1.82-.574,2-2.786a5.3,5.3,0,0,1-1.526-.658c-.07,1.624-.154,1.862-.63,1.862ZM33.838-4.3c-.238-.294-1.246-1.33-1.694-1.75V-6.5H33.53v-.756h7.924V-8.288H38.276v-.476h2.576V-9.73H38.276v-.476h2.9v-1.008h-2.9v-.63H36.61v.63H33.88v1.008h2.73v.476H34.132v.966H36.61v.476H33.446v.238h-1.3V-9.94a12.741,12.741,0,0,0,1.652-.5L32.69-11.718a18.42,18.42,0,0,1-4.2,1.036,6.591,6.591,0,0,1,.448,1.274c.5-.056,1.036-.126,1.582-.21V-8.05H28.658V-6.5h1.75a13.894,13.894,0,0,1-2.114,3.864,8.264,8.264,0,0,1,.77,1.582,12.5,12.5,0,0,0,1.456-2.6V1.2h1.624v-5.46A14.242,14.242,0,0,1,32.886-3ZM35.8-2.66h3.4v.588H35.8Zm0-1.554h3.4v.6H35.8Zm0-1.54h3.4v.588H35.8Zm4.984,4.718v-5.74H34.314v5.74h1.218A10.887,10.887,0,0,1,32.774.238c.308.294.77.742,1.022,1.036A12.413,12.413,0,0,0,37.156-.42l-.938-.616h2.548l-.868.63a24.249,24.249,0,0,1,2.31,1.638L41.664.448c-.56-.392-1.526-.98-2.38-1.484Zm10.36-4.69A3.849,3.849,0,0,1,52.57-3.038c0,1.148-1.064,2.03-3,2.03-1.372,0-2.072-.63-2.072-1.764,0-.252.028-.6.056-1.008h.56c.854,0,1.666-.056,2.45-.126l.042-1.652a27.5,27.5,0,0,1-2.786.168h-.1c.07-.616.154-1.274.238-1.89a24.845,24.845,0,0,0,2.7-.126l.056-1.652a20.347,20.347,0,0,1-2.548.168c.07-.448.112-.812.154-1.05.056-.364.126-.728.238-1.232l-1.946-.112a8.732,8.732,0,0,1-.028,1.232c-.028.308-.056.686-.112,1.106a12.851,12.851,0,0,1-2.842-.518l-.1,1.61a17.33,17.33,0,0,0,2.758.49c-.084.63-.154,1.274-.238,1.89a11.8,11.8,0,0,1-2.73-.546l-.1,1.68a15.547,15.547,0,0,0,2.66.462c-.056.574-.1,1.064-.1,1.4,0,2.31,1.54,3.262,3.724,3.262,3.038,0,4.914-1.512,4.914-3.6a5.157,5.157,0,0,0-1.344-3.332Zm8.036-5.558c-.014.392-.042.952-.112,1.456a33.622,33.622,0,0,0-.392,4.438,17.935,17.935,0,0,0,.168,2.31l1.722-.112a8.326,8.326,0,0,1-.07-1.47c.07-1.82,1.5-4.284,3.136-4.284,1.148,0,1.862,1.19,1.862,3.332,0,3.36-2.156,4.368-5.236,4.844L61.306.84c3.668-.672,6.076-2.548,6.076-6.468,0-3.052-1.5-4.942-3.43-4.942a4.286,4.286,0,0,0-3.43,2.24,22.636,22.636,0,0,1,.56-2.87Zm21.182,4-1.036.434A10.8,10.8,0,0,1,80.416-4.9l1.064-.476A18.348,18.348,0,0,0,80.36-7.28Zm1.568-.644-1.022.476a12.316,12.316,0,0,1,1.148,1.89l1.05-.5A20.943,20.943,0,0,0,81.928-7.924ZM71.022-9.576l.182,1.9c1.61-.35,4.522-.658,5.726-.784a5.5,5.5,0,0,0-2.044,4.27c0,3.01,2.744,4.578,5.656,4.76l.644-1.918c-2.352-.112-4.48-.938-4.48-3.22a4.208,4.208,0,0,1,2.926-3.878,14.317,14.317,0,0,1,2.674-.182l-.014-1.792c-.98.042-2.492.126-3.92.238-2.534.224-4.83.434-5.992.532C72.114-9.618,71.582-9.59,71.022-9.576Z" transform="translate(-54.82 20)" fill="#1a1311"/></g></g><g transform="translate(-129.236 3746.79)"><g transform="translate(315.424 212.969)"><rect width="17.046" height="34.102" transform="translate(0 17.046)" fill="#003288"/><path d="M315.424,212.969v17.046H332.47v34.1h17.055v-34.1h17.047V212.969Z" transform="translate(-315.424 -212.969)" fill="#ffed00"/><rect width="17.047" height="34.102" transform="translate(34.102 17.046)" fill="#003288"/></g><g transform="translate(315.424 269.749)"><path d="M675.175,778.026v5.395c-.628-.808-3.707-5.395-3.707-5.395h-1.49v8.037h1.49v-5.357c.625.813,3.7,5.357,3.7,5.357h1.5v-8.037Z" transform="translate(-634.35 -778.026)" fill="#1a1311"/><path d="M461.451,780.567c0-1.227-.8-2.541-3.059-2.541h-2.583v8.037h1.5v-3.015H458.4C460.652,783.04,461.451,781.718,461.451,780.567Zm-4.142-1.215h1.083c1.308,0,1.45.819,1.45,1.16,0,.752-.559,1.205-1.508,1.205h-1.026Z" transform="translate(-441.702 -778.026)" fill="#1a1311"/><rect width="1.562" height="8.044" transform="translate(30.757 0)" fill="#1a1311"/><rect width="4.269" height="1.42" transform="translate(7.242 4.2)" fill="#1a1311"/><path d="M760.512,778.055v1.422h2.42v6.62H764.5v-6.62h2.423v-1.422Z" transform="translate(-715.787 -778.052)" fill="#1a1311"/><path d="M315.424,778.055v1.422h2.42v6.62h1.565v-6.62h2.423v-1.422Z" transform="translate(-315.424 -778.052)" fill="#1a1311"/><path d="M531.4,786.3c-2.393,0-3.561-1.7-3.561-4.086s1.195-4.162,3.6-4.162,3.558,1.752,3.558,4.142C534.994,784.554,533.777,786.3,531.4,786.3Zm0-6.849c-1.476,0-1.991,1.4-1.991,2.707,0,1.357.45,2.751,1.991,2.751s2.027-1.382,2.027-2.751C533.423,780.821,532.911,779.454,531.4,779.454Z" transform="translate(-506.491 -778.052)" fill="#1a1311"/></g></g></g></svg>