<svg xmlns="http://www.w3.org/2000/svg" width="28.433" height="28.244" viewBox="0 0 28.433 28.244"><g transform="translate(-1.608 -1.75)"><path d="M12.231,22.461a10.23,10.23,0,1,1,9.45-6.315,10.23,10.23,0,0,1-9.45,6.315Zm0-19.668A9.438,9.438,0,1,0,18.9,5.558a9.437,9.437,0,0,0-6.673-2.765Z" fill="#03a58e" stroke="#03a58e" stroke-width="0.5"/><path d="M15.75,23.667a7.924,7.924,0,1,1,5.606-2.319A7.924,7.924,0,0,1,15.75,23.667Zm0-15.057A7.134,7.134,0,1,0,20.8,10.7,7.134,7.134,0,0,0,15.75,8.61Z" transform="translate(-3.519 -3.512)" fill="#03a58e" stroke="#03a58e" stroke-width="0.5"/><path d="M43.477,46.356,41.472,44.35l.56-.56,1.445,1.445,1.757-1.757L43.79,42.032l.56-.56,2.005,2.005Z" transform="translate(-23.827 -23.828)" fill="#03a58e" stroke="#03a58e" stroke-width="0.5"/><path d="M52.409,55.561a3.118,3.118,0,0,1-2.212-.915l-5.034-5.034a1.489,1.489,0,0,1,0-2.105l2.318-2.318a1.525,1.525,0,0,1,2.106,0l5.033,5.034a3.126,3.126,0,0,1-2.212,5.338ZM48.533,45.543a.692.692,0,0,0-.492.2l-2.318,2.318a.7.7,0,0,0,0,.985l5.034,5.034a2.335,2.335,0,1,0,3.3-3.3l-5.034-5.033a.692.692,0,0,0-.492-.2Z" transform="translate(-25.793 -25.817)" fill="#03a58e" stroke="#03a58e" stroke-width="0.5"/><path d="M0,0H5.463V.793H0Z" transform="translate(23.47 27.337) rotate(-45)" fill="#03a58e" stroke="#03a58e" stroke-width="0.5"/><path d="M22.612,28.115h-.03A2.982,2.982,0,0,1,20.4,26.9a3.949,3.949,0,0,1-.238-.348,3.828,3.828,0,0,1-.447-1.074,1.059,1.059,0,0,1-.515-.949,1.1,1.1,0,0,1,.4-.885v-.221q0-.111.007-.223a.4.4,0,0,1,.793.052c0,.057-.006.114-.006.171v.252a.713.713,0,0,1-.314.6.344.344,0,0,0-.082.253.317.317,0,0,0,.09.245.717.717,0,0,1,.4.487,3.038,3.038,0,0,0,.361.878,3.088,3.088,0,0,0,.191.277,2.183,2.183,0,0,0,1.585.9,2.177,2.177,0,0,0,1.585-.9,3.152,3.152,0,0,0,.194-.281,3.04,3.04,0,0,0,.359-.876.716.716,0,0,1,.394-.486.309.309,0,0,0,.092-.247.439.439,0,0,0-.134-.292.4.4,0,0,1-.113-.546.393.393,0,0,1,.543-.113,1.208,1.208,0,0,1,.492.955,1.06,1.06,0,0,1-.515.948,3.792,3.792,0,0,1-.69,1.427,2.973,2.973,0,0,1-2.18,1.211Z" transform="translate(-10.381 -12.573)" fill="#03a58e" stroke="#03a58e" stroke-width="0.5"/><path d="M33.865,37.184a.4.4,0,0,1-.4-.4V35.646a.476.476,0,0,0-.252-.422,19.594,19.594,0,0,0-3.3-1.143.4.4,0,1,1,.194-.769,19.965,19.965,0,0,1,3.474,1.212,1.266,1.266,0,0,1,.674,1.123v1.141a.4.4,0,0,1-.4.4Z" transform="translate(-16.672 -18.894)" fill="#03a58e" stroke="#03a58e" stroke-width="0.5"/><path d="M14.7,37.184a.4.4,0,0,1-.4-.4V35.646a1.266,1.266,0,0,1,.674-1.123,19.848,19.848,0,0,1,3.472-1.211.4.4,0,1,1,.194.769,19.468,19.468,0,0,0-3.3,1.143.476.476,0,0,0-.252.423v1.141a.4.4,0,0,1-.4.4Z" transform="translate(-7.424 -18.894)" fill="#03a58e" stroke="#03a58e" stroke-width="0.5"/><path d="M25.182,19.838a.4.4,0,0,1-.075-.007.487.487,0,0,1-.357-.359,1.082,1.082,0,0,0-.656-.83,1.2,1.2,0,0,0-1.156.106,4.628,4.628,0,0,1-.919.48,2.988,2.988,0,0,1-1.344.212,2.005,2.005,0,0,1-1.107-.4,1.952,1.952,0,0,1-.656-1.653.4.4,0,0,1,.254-.357.351.351,0,0,1,.4.1c.033.014.273-.01.627-.52A3.119,3.119,0,0,1,23.047,15.4a1.574,1.574,0,0,1,1.176.94,1.2,1.2,0,0,1,.941.2c.577.436.711,1.409.408,2.979a.4.4,0,0,1-.39.32ZM19.741,17.9a.946.946,0,0,0,.319.515,1.238,1.238,0,0,0,.68.231,2.211,2.211,0,0,0,.991-.161,3.88,3.88,0,0,0,.763-.4,1.99,1.99,0,0,1,1.914-.176,1.933,1.933,0,0,1,.524.335c.029-.784-.167-1.015-.246-1.076-.194-.149-.541.014-.544.016a.4.4,0,0,1-.348,0,.4.4,0,0,1-.216-.272.849.849,0,0,0-.687-.735,2.357,2.357,0,0,0-2.052.881,1.774,1.774,0,0,1-1.1.841Z" transform="translate(-10.203 -8.076)" fill="#03a58e" stroke="#03a58e" stroke-width="0.5"/><path d="M34.16,42.1a.4.4,0,0,1-.4-.4l0-2.1a.4.4,0,1,1,.793,0l0,2.1A.4.4,0,0,1,34.16,42.1Z" transform="translate(-19.172 -22.462)" fill="#03a58e" stroke="#03a58e" stroke-width="0.5"/><path d="M20.256,42.111a.4.4,0,0,1-.4-.4V39.626a.4.4,0,0,1,.793,0v2.089A.4.4,0,0,1,20.256,42.111Z" transform="translate(-10.781 -22.474)" fill="#03a58e" stroke="#03a58e" stroke-width="0.5"/></g></svg>