<svg xmlns="http://www.w3.org/2000/svg" width="36.039" height="27.514" viewBox="0 0 36.039 27.514"><g transform="translate(0)"><path d="M-314.844,464.809l.54-3.7c4.513-2.488,7.194-6.417,7.194-10.582,0-7.294-8.084-13.228-18.02-13.228s-18.019,5.934-18.019,13.228,8.083,13.228,18.019,13.228a23.849,23.849,0,0,0,6.449-.871Zm-10.286-25.735c8.956,0,16.242,5.136,16.242,11.449,0,3.612-2.483,7.06-6.642,9.221l-.4.21-.314,2.159-2.26-1.137-.338.1a22.025,22.025,0,0,1-6.284.895c-8.955,0-16.241-5.136-16.241-11.449S-334.085,439.074-325.13,439.074Z" transform="translate(343.149 -437.295)" fill="#03a58e"/></g><g transform="translate(10.361 11.976)"><ellipse cx="1.551" cy="1.551" rx="1.551" ry="1.551" transform="translate(12.215)" fill="#03a58e"/><ellipse cx="1.551" cy="1.551" rx="1.551" ry="1.551" transform="translate(6.107)" fill="#03a58e"/><ellipse cx="1.551" cy="1.551" rx="1.551" ry="1.551" transform="translate(0)" fill="#03a58e"/></g></svg>