<svg xmlns="http://www.w3.org/2000/svg" width="24.094" height="21.363" viewBox="0 0 24.094 21.363"><g transform="translate(-14.9 -19.9)"><path d="M38.894,37.579v-15.2A2.385,2.385,0,0,0,36.512,20H23.185A2.385,2.385,0,0,0,20.8,22.383v4.1H17.212A2.216,2.216,0,0,0,15,28.7v8.882a3.588,3.588,0,0,0,3.584,3.584H35.31A3.588,3.588,0,0,0,38.894,37.579Zm-18.091,0a2.219,2.219,0,0,1-4.437,0V28.7a.846.846,0,0,1,.847-.847H20.8Zm1.365,0v-15.2a1.02,1.02,0,0,1,1.017-1.017H36.512a1.02,1.02,0,0,1,1.017,1.017v15.2A2.223,2.223,0,0,1,35.31,39.8H21.4a3.557,3.557,0,0,0,.771-2.219Z" fill="#03a58e" stroke="#03a58e" stroke-linecap="round" stroke-width="0.2"/><path d="M53.216,32H44.683a.685.685,0,0,0-.683.683v4.1a.685.685,0,0,0,.683.683h8.534a.685.685,0,0,0,.683-.683v-4.1A.685.685,0,0,0,53.216,32Zm-.683,4.1H45.365V33.365h7.168Z" transform="translate(-19.101 -7.904)" fill="#03a58e" stroke="#03a58e" stroke-linecap="round" stroke-width="0.2"/><path d="M53.216,53H44.683a.683.683,0,1,0,0,1.365h8.534a.683.683,0,1,0,0-1.365Z" transform="translate(-19.101 -21.736)" fill="#03a58e" stroke="#03a58e" stroke-linecap="round" stroke-width="0.2"/><path d="M53.216,62H44.683a.683.683,0,1,0,0,1.365h8.534a.683.683,0,1,0,0-1.365Z" transform="translate(-19.101 -27.663)" fill="#03a58e" stroke="#03a58e" stroke-linecap="round" stroke-width="0.2"/></g></svg>