<svg xmlns="http://www.w3.org/2000/svg" width="38.998" height="38.998" viewBox="0 0 38.998 38.998"><g transform="translate(-0.393)"><circle cx="19.499" cy="19.499" r="19.499" transform="translate(0.393 0)" fill="#009c86"/><g transform="translate(9.98 6.113)"><rect width="5.557" height="5.557" transform="translate(11.156 0.37)" fill="#fff"/><path d="M396.388,242.2a.35.35,0,0,0-.359-.339l-14.523.419a3.517,3.517,0,0,0,1.971-5.2l.064-.022,0,0,1.932-.665a.129.129,0,0,0,.079-.164c-.02-.058-.059-.083-.139-.085l-2.276.1-.4-.024a3.524,3.524,0,1,0-3.117,6.119h-.009v.007h0l-.965,9.522-2.738,9.143h0a.238.238,0,0,0,.228.307h5.257a.269.269,0,0,0,.268-.269v-1.023a.269.269,0,0,0-.268-.268h-.564l2.017-6.737,6.165.939v7.027a.33.33,0,0,0,.33.33h5.247a.268.268,0,0,0,.268-.268v-1.024a.268.268,0,0,0-.268-.268h-1.145v-9.007a.7.7,0,0,0-.591-.687l-9.423-1.436.2-1.97,12.536-.362a.349.349,0,0,0,.339-.359Zm-18.322-2.739a2.448,2.448,0,0,1-.061-.5l.3-.1,4.135-1.422a2.459,2.459,0,0,1-1.423,3.875,2.458,2.458,0,0,1-2.947-1.856Z" transform="translate(-375.889 -235.388)" fill="#fff"/></g></g></svg>