<svg xmlns="http://www.w3.org/2000/svg" width="27.143" height="25.904" viewBox="0 0 27.143 25.904"><path d="M23.432.5H3.11A3.114,3.114,0,0,0,0,3.61V20.821a4.152,4.152,0,0,0,4.147,4.147H15.863a1.037,1.037,0,0,0,0-2.074H4.147a2.076,2.076,0,0,1-2.074-2.074V6.773H24.469v9.539a1.037,1.037,0,1,0,2.074,0V3.61A3.114,3.114,0,0,0,23.432.5Zm-4.2,2.074A1.037,1.037,0,1,1,18.2,3.61,1.038,1.038,0,0,1,19.233,2.574ZM24.417,3.61A1.037,1.037,0,1,1,23.38,2.574,1.038,1.038,0,0,1,24.417,3.61Zm-22.343,0A1.038,1.038,0,0,1,3.11,2.574H16.3A3.1,3.1,0,0,0,16.319,4.7H2.074ZM19.952,15a1.037,1.037,0,0,0-.433-.26L15.439,13.5a1.037,1.037,0,0,0-1.3,1.269L15.3,18.958a1.035,1.035,0,0,0,.265.456l5.67,5.68a3.11,3.11,0,0,0,4.4-4.4ZM16.64,16.037l2.028.616L22.5,20.494,21.034,21.96l-3.811-3.818Zm7.525,7.591a1.038,1.038,0,0,1-1.465,0l-.2-.2,1.466-1.466.2.2A1.038,1.038,0,0,1,24.165,23.628Zm0,0" transform="translate(0.2 -0.3)" fill="#03a58e" stroke="#fff" stroke-width="0.4"/></svg>