<svg xmlns="http://www.w3.org/2000/svg" width="22" height="18" viewBox="0 0 22 18"><g transform="translate(-11 -6)"><g transform="translate(33 6) rotate(90)" fill="#fff"><path d="M 16.1683406829834 13.24999809265137 L 1.831670045852661 13.24999809265137 C 1.702600002288818 13.24999809265137 1.638790011405945 13.16841793060303 1.612239956855774 13.11979866027832 C 1.585690021514893 13.07116794586182 1.55157995223999 12.97337818145752 1.621379971504211 12.86480808258057 L 8.789699554443359 1.714068293571472 C 8.853919982910156 1.61417829990387 8.949029922485352 1.599258303642273 9 1.599258303642273 C 9.050970077514648 1.599258303642273 9.146080017089844 1.61417829990387 9.210300445556641 1.714068293571472 L 16.37862968444824 12.86480808258057 C 16.44841957092285 12.97337818145752 16.41431045532227 13.07116794586182 16.38776016235352 13.11979866027832 C 16.36120986938477 13.16842842102051 16.29740905761719 13.24999809265137 16.1683406829834 13.24999809265137 Z" stroke="none"/><path d="M 9.000004768371582 2.773881912231445 L 2.747498512268066 12.49999809265137 L 15.25249671936035 12.49999809265137 L 9.000004768371582 2.773881912231445 M 9 0.8492584228515625 C 9.322179794311523 0.8492584228515625 9.644359588623047 1.002338409423828 9.841179847717285 1.308498382568359 L 17.0095100402832 12.45923805236816 C 17.43733978271484 13.12475776672363 16.95949935913086 13.99999809265137 16.1683292388916 13.99999809265137 L 1.831659317016602 13.99999809265137 C 1.040500640869141 13.99999809265137 0.5626602172851563 13.12475776672363 0.9904899597167969 12.45923805236816 L 8.158820152282715 1.308498382568359 C 8.355640411376953 1.002338409423828 8.677820205688477 0.8492584228515625 9 0.8492584228515625 Z" stroke="none" fill="#03a58e"/></g><g transform="translate(25 6) rotate(90)" fill="#fff"><path d="M 16.1683406829834 13.24999809265137 L 1.831670045852661 13.24999809265137 C 1.702600002288818 13.24999809265137 1.638790011405945 13.16841793060303 1.612239956855774 13.11979866027832 C 1.585690021514893 13.07116794586182 1.55157995223999 12.97337818145752 1.621379971504211 12.86480808258057 L 8.789699554443359 1.714068293571472 C 8.853919982910156 1.61417829990387 8.949029922485352 1.599258303642273 9 1.599258303642273 C 9.050970077514648 1.599258303642273 9.146080017089844 1.61417829990387 9.210300445556641 1.714068293571472 L 16.37862968444824 12.86480808258057 C 16.44841957092285 12.97337818145752 16.41431045532227 13.07116794586182 16.38776016235352 13.11979866027832 C 16.36120986938477 13.16842842102051 16.29740905761719 13.24999809265137 16.1683406829834 13.24999809265137 Z" stroke="none"/><path d="M 9.000004768371582 2.773881912231445 L 2.747498512268066 12.49999809265137 L 15.25249671936035 12.49999809265137 L 9.000004768371582 2.773881912231445 M 9 0.8492584228515625 C 9.322179794311523 0.8492584228515625 9.644359588623047 1.002338409423828 9.841179847717285 1.308498382568359 L 17.0095100402832 12.45923805236816 C 17.43733978271484 13.12475776672363 16.95949935913086 13.99999809265137 16.1683292388916 13.99999809265137 L 1.831659317016602 13.99999809265137 C 1.040500640869141 13.99999809265137 0.5626602172851563 13.12475776672363 0.9904899597167969 12.45923805236816 L 8.158820152282715 1.308498382568359 C 8.355640411376953 1.002338409423828 8.677820205688477 0.8492584228515625 9 0.8492584228515625 Z" stroke="none" fill="#03a58e"/></g></g></svg>