<svg xmlns="http://www.w3.org/2000/svg" width="29.888" height="29.886" viewBox="0 0 29.888 29.886"><g transform="translate(0 -0.009)"><g transform="translate(0 0.009)"><g transform="translate(0 0)"><path d="M14.944.009A14.943,14.943,0,1,0,29.888,14.952,14.96,14.96,0,0,0,14.944.009Zm0,27.974A13.031,13.031,0,1,1,27.975,14.953,13.046,13.046,0,0,1,14.944,27.983Z" transform="translate(0 -0.009)" fill="#03a58e"/><path d="M173.9,134.621a.957.957,0,1,0,0-1.913h-3.45v-.228l3.688-5.212a.956.956,0,1,0-1.561-1.1l-3.074,4.343-2.987-4.333a.956.956,0,1,0-1.575,1.086l3.595,5.215v.234h-3.45a.957.957,0,0,0,0,1.913h3.45v1.933h-3.45a.957.957,0,0,0,0,1.914h3.45v1.539a.956.956,0,1,0,1.913,0v-1.54h3.45a.957.957,0,0,0,0-1.914h-3.45v-1.933Z" transform="translate(-154.545 -118.418)" fill="#03a58e"/></g></g></g></svg>