<svg xmlns="http://www.w3.org/2000/svg" width="19.141" height="26.965" viewBox="0 0 19.141 26.965"><g transform="translate(-54.077 0.2)"><g transform="translate(54.277)"><path d="M63.647,0a9.381,9.381,0,0,0-9.37,9.37c0,6.29,8.591,16.568,8.957,17a.54.54,0,0,0,.411.192h0a.541.541,0,0,0,.411-.189c.366-.427,8.96-10.536,8.96-17.006A9.381,9.381,0,0,0,63.647,0Zm0,25.174c-1.725-2.146-8.292-10.653-8.292-15.8a8.289,8.289,0,1,1,16.578,0C71.937,14.668,65.381,23.053,63.651,25.174Z" transform="translate(-54.277)" fill="#009c86" stroke="#009c86" stroke-width="0.4"/><path d="M132.992,72.293a3.984,3.984,0,1,0,3.984,3.984A3.988,3.988,0,0,0,132.992,72.293Zm0,6.886a2.9,2.9,0,1,1,2.9-2.9A2.906,2.906,0,0,1,132.992,79.179Z" transform="translate(-123.621 -67.082)" fill="#009c86" stroke="#009c86" stroke-width="0.4"/></g></g></svg>