<svg xmlns="http://www.w3.org/2000/svg" width="23.133" height="26.302" viewBox="0 0 23.133 26.302"><g transform="translate(-30.849)"><g transform="translate(30.849 0.981)"><g transform="translate(0)"><path d="M52.226,28.489l-8.716-8.716a2.311,2.311,0,0,0-3.55,2.927l-.012.061a16.126,16.126,0,0,1-4.424,8.267l-4,4a2.31,2.31,0,0,0,0,3.268l2.179,2.179a2.31,2.31,0,0,0,3.268,0l.545-.545,3.813,3.813A2.311,2.311,0,1,0,44.6,40.473l-1.634-1.634.545-.545a2.31,2.31,0,0,0,0-3.268l-.37-.37a16.128,16.128,0,0,1,6.1-2.6l.061-.012a2.314,2.314,0,0,0,2.927-.281h0A2.314,2.314,0,0,0,52.226,28.489ZM35.885,39.383a.77.77,0,0,1-1.089,0L32.616,37.2a.77.77,0,0,1,0-1.089L36.429,32.3,39.7,35.57Zm7.626,2.179a.77.77,0,1,1-1.089,1.089l-3.813-3.813L39.7,37.749Zm-2.724-4.9c.232-.232.578-.586,1.125-1.054l.509.509a.77.77,0,0,1,0,1.089l-.545.545Zm.033-2.146L37.486,31.18a17.641,17.641,0,0,0,3.751-7.144l6.727,6.727A17.641,17.641,0,0,0,40.82,34.514Zm10.317-3.846a.77.77,0,0,1-1.089,0l-8.716-8.716a.77.77,0,0,1,1.089-1.089l8.716,8.716A.771.771,0,0,1,51.137,30.668Z" transform="translate(-30.849 -19.098)" fill="#03a58e"/></g></g><g transform="translate(34.57 16.683)"><g transform="translate(0)"><path d="M105.67,324.988a.77.77,0,0,0-1.089,0l-1.089,1.089a.77.77,0,0,0,1.089,1.089l1.089-1.089A.77.77,0,0,0,105.67,324.988Z" transform="translate(-103.266 -324.762)" fill="#03a58e"/></g></g><g transform="translate(46.278)"><path d="M331.964,0a.77.77,0,0,0-.77.77V2.311a.77.77,0,1,0,1.541,0V.77A.77.77,0,0,0,331.964,0Z" transform="translate(-331.194)" fill="#03a58e"/></g><g transform="translate(50.901 6.163)"><path d="M423.48,119.966h-1.541a.77.77,0,0,0,0,1.541h1.541a.77.77,0,0,0,0-1.541Z" transform="translate(-421.169 -119.966)" fill="#03a58e"/></g><g transform="translate(49.36 1.541)"><path d="M394.034,30.217a.77.77,0,0,0-1.089,0L391.4,31.757a.77.77,0,1,0,1.089,1.089l1.541-1.541A.77.77,0,0,0,394.034,30.217Z" transform="translate(-391.178 -29.991)" fill="#03a58e"/></g></g></svg>