<svg xmlns="http://www.w3.org/2000/svg" width="29.888" height="29.886" viewBox="0 0 29.888 29.886"><g transform="translate(-5 1.952)"><path d="M8.208,2.916l.5-1.764a7.075,7.075,0,0,1-1.458-1.4C8.712-.936,9.27-2.484,9.27-4.572v-5.472c0-2.952-1.08-4.7-4.194-4.7-3.132,0-4.212,1.746-4.212,4.7v5.472C.864-1.62,1.926.2,5.076.2A1.647,1.647,0,0,0,5.382.18,8.8,8.8,0,0,0,8.208,2.916ZM5.076-1.764c-1.314,0-1.512-.972-1.512-2.178v-6.714c0-1.224.2-2.142,1.512-2.142,1.3,0,1.512.918,1.512,2.142v6.714C6.588-2.736,6.372-1.764,5.076-1.764Z" transform="translate(15 20)" fill="#03a58e"/><path d="M14.944.009A14.943,14.943,0,1,0,29.888,14.952,14.96,14.96,0,0,0,14.944.009Zm0,27.974A13.031,13.031,0,1,1,27.975,14.953,13.046,13.046,0,0,1,14.944,27.983Z" transform="translate(5 -1.961)" fill="#03a58e"/></g></svg>