<svg xmlns="http://www.w3.org/2000/svg" width="30.108" height="26.287" viewBox="0 0 30.108 26.287"><g transform="translate(0 -31.05)"><g transform="translate(0 31.05)"><path d="M254.321,263.75H250.23a2.032,2.032,0,0,0-2.03,2.03v3.138a2.032,2.032,0,0,0,2.03,2.03h4.091a2.032,2.032,0,0,0,2.03-2.03V265.78A2.032,2.032,0,0,0,254.321,263.75Zm.554,5.168a.555.555,0,0,1-.554.554H250.23a.555.555,0,0,1-.554-.554V265.78a.555.555,0,0,1,.554-.554h4.091a.555.555,0,0,1,.554.554Z" transform="translate(-232.931 -249.434)" fill="#009c86"/><path d="M30.108,39.663a.685.685,0,0,0-.1-.363l-4.479-7.874a.742.742,0,0,0-.64-.375H5.211a.73.73,0,0,0-.64.375L.1,39.3a.746.746,0,0,0-.1.363,4.319,4.319,0,0,0,2.584,3.95V56.6a.74.74,0,0,0,.738.738H26.779a.74.74,0,0,0,.738-.738V43.7a.325.325,0,0,0-.006-.08A4.331,4.331,0,0,0,30.108,39.663ZM5.641,32.533H24.46l3.5,6.158H2.147Zm15.786,7.628a2.837,2.837,0,0,1-5.586,0Zm-7.155,0a2.841,2.841,0,0,1-5.592,0Zm-12.747,0H7.118a2.841,2.841,0,0,1-5.592,0ZM12.4,55.861H8.157V47.894a1.052,1.052,0,0,1,1.052-1.052h2.147a1.052,1.052,0,0,1,1.052,1.052v7.967Zm13.639,0H13.879V47.894a2.532,2.532,0,0,0-2.528-2.528H9.2a2.532,2.532,0,0,0-2.528,2.528v7.973H4.06V43.975c.086.006.172.006.258.006A4.313,4.313,0,0,0,7.9,42.074a4.315,4.315,0,0,0,7.161,0,4.3,4.3,0,0,0,7.149,0,4.313,4.313,0,0,0,3.58,1.907c.086,0,.166-.006.252-.006V55.861ZM25.789,42.5A2.836,2.836,0,0,1,23,40.167h5.592A2.853,2.853,0,0,1,25.789,42.5Z" transform="translate(0 -31.05)" fill="#009c86"/></g></g></svg>