<svg xmlns="http://www.w3.org/2000/svg" width="30.222" height="30.984" viewBox="0 0 30.222 30.984"><g transform="translate(-4.55 0.356)"><g transform="translate(4.9)"><g transform="translate(0)"><path d="M34.391,7.674a.411.411,0,0,0-.093-.154.284.284,0,0,0-.185-.124L27.041,3.721,19.877.046a.458.458,0,0,0-.4,0l-7.2,3.675L5.178,7.4a.373.373,0,0,0-.216.216c-.031.062-.031.093-.062.154V22.5a.482.482,0,0,0,.247.4l14.3,7.319a.113.113,0,0,0,.093.031h.031c.031,0,.062.031.124.031a.278.278,0,0,0,.154-.031,353.521,353.521,0,0,1,.062-.062L34.175,22.9a.482.482,0,0,0,.247-.4V7.8C34.422,7.736,34.422,7.7,34.391,7.674ZM19.661.942l6.948,3.582L33,7.8l-6.176,3.181L13.485,4.123Zm-.432,28.194L5.8,22.218V8.538l6.516,3.335,6.917,3.551Zm.432-14.483-6.948-3.582L6.32,7.8,12.5,4.617l13.34,6.855Zm13.865,7.6L20.093,29.1V15.425l6.917-3.551,6.516-3.335Z" transform="translate(-4.9 0)" fill="#009c86" stroke="#009c86" stroke-width="0.7"/></g></g><g transform="translate(23.941 12.541)"><path d="M257.79,163.255c.031,0,0-.031,0-.062a1.186,1.186,0,0,0-.71-.679,1.415,1.415,0,0,0-1.112.093l-3.4,1.637a2.05,2.05,0,0,0-.865.834,1.332,1.332,0,0,0-.093,1.081,1.238,1.238,0,0,0,.71.71,1.415,1.415,0,0,0,1.112-.093l3.4-1.637a2.05,2.05,0,0,0,.865-.834A1.389,1.389,0,0,0,257.79,163.255Zm-.9.8a.744.744,0,0,1-.309.309l-3.4,1.637a.538.538,0,0,1-.432.031.438.438,0,0,1-.278-.247v-.031a.6.6,0,0,1,.031-.4.744.744,0,0,1,.309-.309l3.4-1.637a.538.538,0,0,1,.432-.031.415.415,0,0,1,.278.278A.462.462,0,0,1,256.895,164.058Z" transform="translate(-251.54 -162.44)" fill="#009c86" stroke="#009c86" stroke-width="0.7"/></g></g></svg>