<svg xmlns="http://www.w3.org/2000/svg" width="345" height="50" viewBox="0 0 345 50"><g transform="translate(0 -37.375)"><rect width="345" height="50" rx="25" transform="translate(0 37.375)" fill="#fff"/><path d="M-82.558,15.562a.754.754,0,0,1-.553-.231.754.754,0,0,1-.231-.553V14.5a.778.778,0,0,1,.231-.56.744.744,0,0,1,.553-.238h11.116a.744.744,0,0,1,.553.238.778.778,0,0,1,.231.56v.28a.754.754,0,0,1-.231.553.754.754,0,0,1-.553.231Zm13.468.6a.507.507,0,0,1-.42-.14.533.533,0,0,1-.182-.406v-.252a.715.715,0,0,1,.175-.483.6.6,0,0,1,.441-.217.087.087,0,0,0,.1-.1V10.41a.766.766,0,0,1,.238-.56.766.766,0,0,1,.56-.238h.532a.132.132,0,0,0,.14-.112,1.179,1.179,0,0,1,.028-.2,1.179,1.179,0,0,0,.028-.2.806.806,0,0,1,.294-.532.833.833,0,0,1,.588-.2h.182a.763.763,0,0,1,.532.273.7.7,0,0,1,.168.567,1.158,1.158,0,0,1-.014.154,1.139,1.139,0,0,0-.014.14q-.028.1.1.1h.98a.766.766,0,0,1,.56.238.766.766,0,0,1,.238.56v3.7a.049.049,0,0,0,.056.056.349.349,0,0,1,.273.091.332.332,0,0,1,.119.259v.714a.38.38,0,0,1-.112.28.5.5,0,0,1-.28.14q-.056,0-.056.07v3.3q0,.868-.035,1.274a1.258,1.258,0,0,1-.231.665.717.717,0,0,1-.462.3,6.115,6.115,0,0,1-.854.042q-.28,0-.49-.014a.893.893,0,0,1-.574-.266.834.834,0,0,1-.252-.574l-.014-.686a.037.037,0,0,0-.042-.042.3.3,0,0,1-.217-.091.3.3,0,0,1-.091-.217V16.094q0-.112-.126-.112L-67.34,16q-.126,0-.126.112a14.956,14.956,0,0,1-.658,4.578.506.506,0,0,1-.406.343.622.622,0,0,1-.546-.133l-.084-.07a.982.982,0,0,1-.35-.56,1.1,1.1,0,0,1,.042-.672,11.63,11.63,0,0,0,.462-3.36Q-69.006,16.164-69.09,16.164Zm3.766,2.9v-3.15q0-.1-.112-.1l-.252.014q-.112,0-.112.14v3.626a.111.111,0,0,0,.126.126h.028q.238,0,.28-.084A2.045,2.045,0,0,0-65.324,19.062Zm-2.128-7.924v3.248q0,.112.126.112l1.89-.182q.112,0,.112-.126V11.138q0-.126-.112-.126h-1.89A.111.111,0,0,0-67.452,11.138Zm.686,2.324-.476-.952a.652.652,0,0,1-.049-.5.568.568,0,0,1,.329-.378.7.7,0,0,1,.539-.035.716.716,0,0,1,.413.343q.224.406.476.938a.643.643,0,0,1,.028.525.637.637,0,0,1-.35.385.686.686,0,0,1-.518.021A.662.662,0,0,1-66.766,13.462Zm9.912-2.6a.714.714,0,0,1,.462.266.718.718,0,0,1,.168.5q-.042.588-.077.931a2,2,0,0,1-.161.623,1.5,1.5,0,0,1-.231.392.921.921,0,0,1-.42.2,2.544,2.544,0,0,1-.588.091q-.273.007-.861.007a2.407,2.407,0,0,1-1.106-.161.754.754,0,0,1-.252-.679V10.536q0-.112-.126-.112h-1.092q-.126,0-.126.112v.126a4.713,4.713,0,0,1-1.288,3.612q-.028.014-.007.049a.059.059,0,0,0,.049.035H-57.6a.715.715,0,0,1,.525.217.715.715,0,0,1,.217.525,2.936,2.936,0,0,1-.322,1.428A8.755,8.755,0,0,1-58.632,18.5a.1.1,0,0,0-.021.084.075.075,0,0,0,.049.07,14.1,14.1,0,0,0,1.638.812.772.772,0,0,1,.42.42.718.718,0,0,1,0,.588.839.839,0,0,1-.448.455.806.806,0,0,1-.616.021A13.312,13.312,0,0,1-60,19.762a.155.155,0,0,0-.2,0,13.635,13.635,0,0,1-2.366,1.176.819.819,0,0,1-.63,0,.869.869,0,0,1-.476-.434l-.028-.056a.623.623,0,0,1-.014-.56.725.725,0,0,1,.42-.392,10.763,10.763,0,0,0,1.708-.784q.1-.056.014-.14a10.772,10.772,0,0,1-1.176-1.218.706.706,0,0,1-.161-.581.754.754,0,0,1,.329-.525l.462-.336q.028-.028.014-.049a.047.047,0,0,0-.042-.021h-.266a.739.739,0,0,1-.532-.217.7.7,0,0,1-.224-.525v-.434a.3.3,0,0,1,.091-.217.3.3,0,0,1,.217-.091.022.022,0,0,0,.021-.014.023.023,0,0,0-.007-.028l-.518-.532a.794.794,0,0,1-.217-.56,1.183,1.183,0,0,1,.189-.6,5.153,5.153,0,0,0,.56-2.744v-.14a.778.778,0,0,1,.231-.56.744.744,0,0,1,.553-.238h3.01a.766.766,0,0,1,.56.238.766.766,0,0,1,.238.56v2.45a.346.346,0,0,0,.035.2.384.384,0,0,0,.217.035q.252,0,.315-.14a3.948,3.948,0,0,0,.119-.868.572.572,0,0,1,.224-.434A.585.585,0,0,1-56.854,10.858Zm-4.788,4.984a.059.059,0,0,0-.049.035.063.063,0,0,0-.007.063,8.672,8.672,0,0,0,1.526,1.61.136.136,0,0,0,.182,0,6.871,6.871,0,0,0,1.26-1.61.063.063,0,0,0-.007-.063.069.069,0,0,0-.063-.035Zm6.944,4.914-.28-.35a1.349,1.349,0,0,1-.21-1.344,9.794,9.794,0,0,0,.455-2.177q.133-1.253.133-3.465V10.1a.754.754,0,0,1,.231-.553.754.754,0,0,1,.553-.231h4.27a.111.111,0,0,0,.126-.126V9.08a.778.778,0,0,1,.231-.56.744.744,0,0,1,.553-.238h.336a.744.744,0,0,1,.553.238.778.778,0,0,1,.231.56v.112a.111.111,0,0,0,.126.126h4.144a.739.739,0,0,1,.532.217.7.7,0,0,1,.224.525.7.7,0,0,1-.224.525.739.739,0,0,1-.532.217H-52.71a.111.111,0,0,0-.126.126v3.85a14.393,14.393,0,0,1-.994,5.894.439.439,0,0,1-.4.287A.523.523,0,0,1-54.7,20.756Zm11.886-6.174a.891.891,0,0,1,.42.448.75.75,0,0,1,0,.6l-.014.028a.77.77,0,0,1-.441.406.735.735,0,0,1-.6-.028q-.588-.308-.868-.476-.014-.014-.035,0t-.021.028a.329.329,0,0,1-.105.252.348.348,0,0,1-.245.1h-.364a.1.1,0,0,0-.112.112v.686a.111.111,0,0,0,.126.126H-43.2a.7.7,0,0,1,.5.2.665.665,0,0,1,.21.5.687.687,0,0,1-.21.5.687.687,0,0,1-.5.21h-1.862q-.126,0-.126.112v.924q0,.266.063.308a1.213,1.213,0,0,0,.441.042,1.326,1.326,0,0,0,.378-.035q.1-.035.14-.217a1.106,1.106,0,0,1,.315-.539.668.668,0,0,1,.539-.189l.1.014a.8.8,0,0,1,.546.28.785.785,0,0,1,.21.574q-.028.42-.063.672a1.041,1.041,0,0,1-.168.448,1.35,1.35,0,0,1-.245.287.968.968,0,0,1-.434.14,4.771,4.771,0,0,1-.588.056q-.266.007-.868.007a9.732,9.732,0,0,1-1.484-.077.852.852,0,0,1-.574-.28,1.272,1.272,0,0,1-.14-.693V18.39q0-.112-.126-.112h-.994a.132.132,0,0,0-.14.112q-.588,2.086-3.584,2.828a.845.845,0,0,1-.644-.091.96.96,0,0,1-.434-.5.623.623,0,0,1,.042-.56.686.686,0,0,1,.462-.336,3.2,3.2,0,0,0,2.226-1.358q.042-.1-.07-.1h-1.554a.687.687,0,0,1-.5-.21.687.687,0,0,1-.21-.5.665.665,0,0,1,.21-.5.7.7,0,0,1,.5-.2h1.722a.111.111,0,0,0,.126-.126v-.7a.087.087,0,0,0-.1-.1h-.294a.348.348,0,0,1-.245-.1.313.313,0,0,1-.1-.238q0-.056-.042-.028-.616.364-.826.462a.735.735,0,0,1-.6.028.77.77,0,0,1-.441-.406l-.014-.028a.718.718,0,0,1,0-.588.829.829,0,0,1,.42-.434l.259-.119q.231-.1.343-.161t.028-.14q-.266-.294-.8-.854a.632.632,0,0,1-.175-.5.585.585,0,0,1,.259-.455l.14-.1a.607.607,0,0,1,.441-.133.67.67,0,0,1,.427.2.057.057,0,0,0,.042.014.025.025,0,0,0,.028-.028v-.294a.778.778,0,0,1,.231-.56.744.744,0,0,1,.553-.238H-47.6a1.481,1.481,0,0,1,1.232.658q0,.014.028.028t.028.028q.084.084.154.028.042-.042.476-.6a1.016,1.016,0,0,1,.518-.357.863.863,0,0,1,.6.035.57.57,0,0,1,.357.406.588.588,0,0,1-.1.532,11.431,11.431,0,0,1-.812.994q-.084.084.014.168.056.042.168.133t.168.133q.112.084.182-.014.364-.406.658-.8a1.016,1.016,0,0,1,.518-.357.906.906,0,0,1,.616.035.589.589,0,0,1,.35.392.571.571,0,0,1-.084.518q-.434.574-.784.98-.084.084.028.14Q-42.98,14.5-42.812,14.582Zm-7.322-1.134a7.5,7.5,0,0,0,.98-.784.054.054,0,0,0,.014-.063q-.014-.035-.042-.035h-1.806q-.028,0-.042.035t.014.049q.238.252.714.784A.112.112,0,0,0-50.134,13.448Zm3.15,3.29v-.686q0-.112-.126-.112h-.966q-.126,0-.126.112v.686a.111.111,0,0,0,.126.126h.966A.111.111,0,0,0-46.984,16.738Zm1.106-2.17a.045.045,0,0,0,.042-.028.028.028,0,0,0-.014-.042,11.088,11.088,0,0,1-1.61-1.568q-.07-.07-.154.014a10.716,10.716,0,0,1-1.61,1.554.028.028,0,0,0-.014.042.045.045,0,0,0,.042.028Zm5.194.126a.648.648,0,0,1-.476-.2.632.632,0,0,1-.2-.462.632.632,0,0,1,.2-.462.648.648,0,0,1,.476-.2h.756q.112,0,.112-.126v-.406a.1.1,0,0,0-.112-.112h-.252a.622.622,0,0,1-.448-.175.692.692,0,0,1-.21-.441.568.568,0,0,1,.154-.434.548.548,0,0,1,.42-.182q.518,0,1.582-.028a.188.188,0,0,0,.168-.084q.28-.42.406-.63A.047.047,0,0,0-38.1,10.7a.069.069,0,0,0-.063-.035H-40.53a.66.66,0,0,1-.483-.2.66.66,0,0,1-.2-.483.66.66,0,0,1,.2-.483.66.66,0,0,1,.483-.2h4.494a.111.111,0,0,0,.126-.126V9.122a.754.754,0,0,1,.231-.553.755.755,0,0,1,.553-.231h.336a.754.754,0,0,1,.553.231.754.754,0,0,1,.231.553v.042a.111.111,0,0,0,.126.126h4.494a.66.66,0,0,1,.483.2.66.66,0,0,1,.2.483.66.66,0,0,1-.2.483.66.66,0,0,1-.483.2h-1.386q-.028,0-.042.035t.014.049q.756.616,1.442,1.232a.525.525,0,0,1,.189.483.533.533,0,0,1-.3.427l-.574.322q-.056.014-.056.1a.062.062,0,0,0,.07.07h.8a.648.648,0,0,1,.476.2.632.632,0,0,1,.2.462.632.632,0,0,1-.2.462.648.648,0,0,1-.476.2h-.756q-.112,0-.112.126v.91a.744.744,0,0,1-.238.553.778.778,0,0,1-.56.231H-33.88a.111.111,0,0,0-.126.126v.28q0,.112.126.112h4.508a.655.655,0,0,1,.469.2.637.637,0,0,1,.2.476.632.632,0,0,1-.2.462.648.648,0,0,1-.476.2H-32.69q-.028,0-.028.021t.028.035a23.058,23.058,0,0,0,3.626,1.232.607.607,0,0,1,.413.343.594.594,0,0,1,.007.539.92.92,0,0,1-.455.427.834.834,0,0,1-.609.035,19.754,19.754,0,0,1-4.2-1.806.063.063,0,0,0-.063.007.069.069,0,0,0-.035.063v1.19a.754.754,0,0,1-.231.553.754.754,0,0,1-.553.231h-.336A.754.754,0,0,1-35.679,21a.754.754,0,0,1-.231-.553v-1.19a.067.067,0,0,0-.042-.063.055.055,0,0,0-.07.007,20.6,20.6,0,0,1-4.186,1.792.834.834,0,0,1-.609-.035.92.92,0,0,1-.455-.427.608.608,0,0,1,0-.539.587.587,0,0,1,.406-.343A23.173,23.173,0,0,0-37.212,18.4a.04.04,0,0,0,.014-.028q0-.014-.028-.014h-3.318a.648.648,0,0,1-.476-.2.632.632,0,0,1-.2-.462.637.637,0,0,1,.2-.476.655.655,0,0,1,.469-.2h4.508q.126,0,.126-.112v-.28a.111.111,0,0,0-.126-.126h-2.982a.778.778,0,0,1-.56-.231.744.744,0,0,1-.238-.553v-.91q0-.126-.112-.126Zm8.848.574V14.82q0-.126-.112-.126H-33.88a.111.111,0,0,0-.126.126v.448q0,.112.126.112h1.932A.1.1,0,0,0-31.836,15.268Zm.644-2.8a.285.285,0,0,0-.21-.07q-.8.056-2.478.14a.111.111,0,0,0-.126.126v.588a.111.111,0,0,0,.126.126h1.946a.087.087,0,0,0,.1-.1.62.62,0,0,1,.189-.455.62.62,0,0,1,.455-.189h.084q.084,0,.028-.056ZM-36.5,11.32a.047.047,0,0,0-.007.063.069.069,0,0,0,.063.035l3.738-.154a.045.045,0,0,0,.042-.028.046.046,0,0,0-.014-.056q-.1-.084-.28-.224a2.906,2.906,0,0,1-.266-.224.355.355,0,0,0-.21-.07H-35.98a.2.2,0,0,0-.168.1q-.056.084-.175.28T-36.5,11.32Zm-1.582,1.5v.434q0,.126.112.126h1.932a.111.111,0,0,0,.126-.126v-.5q0-.112-.14-.112-.63.028-1.918.056Q-38.08,12.692-38.08,12.818Zm0,2v.448a.1.1,0,0,0,.112.112h1.932q.126,0,.126-.112V14.82a.111.111,0,0,0-.126-.126h-1.932Q-38.08,14.694-38.08,14.82Zm11.669-.294a.679.679,0,0,1-.539.084.737.737,0,0,1-.462-.329.731.731,0,0,1-.112-.553,34.307,34.307,0,0,0,.5-3.864.639.639,0,0,1,.245-.483.7.7,0,0,1,.525-.161.706.706,0,0,1,.483.245.7.7,0,0,1,.175.511q-.014.224-.042.644a.1.1,0,0,0,.112.112h.126a.1.1,0,0,0,.112-.112V9.4a.744.744,0,0,1,.238-.553.778.778,0,0,1,.56-.231h.21a.754.754,0,0,1,.553.231.754.754,0,0,1,.231.553V10.62q0,.112.126.112h.336a.743.743,0,0,1,.546.224.743.743,0,0,1,.224.546.743.743,0,0,1-.224.546.743.743,0,0,1-.546.224h-.336a.111.111,0,0,0-.126.126v2.94q0,.112.112.084.07-.014.2-.056t.2-.056a.629.629,0,0,1,.546.084.573.573,0,0,1,.266.476V16a.047.047,0,0,0,.021.042q.021.014.049-.014A12.206,12.206,0,0,0-19.446,11.7q.028-.1-.084-.1h-.6a.163.163,0,0,0-.168.112,13.471,13.471,0,0,1-1.428,2.45.6.6,0,0,1-.5.259.65.65,0,0,1-.525-.231l-.056-.056a.959.959,0,0,1-.245-.6.955.955,0,0,1,.175-.623,13.567,13.567,0,0,0,1.764-3.78.957.957,0,0,1,.378-.518.855.855,0,0,1,.616-.154l.14.014a.678.678,0,0,1,.5.3.625.625,0,0,1,.077.567q-.028.1-.091.28t-.091.28q-.028.112.084.112h4.088a.778.778,0,0,1,.56.231.7.7,0,0,1,.224.553q-.028,1.9-.07,3.283t-.105,2.5q-.063,1.12-.119,1.841a9.006,9.006,0,0,1-.175,1.253,6.494,6.494,0,0,1-.224.812,1.048,1.048,0,0,1-.294.441.832.832,0,0,1-.357.2,2.286,2.286,0,0,1-.448.035q-.77,0-1.792-.042a.8.8,0,0,1-.567-.259.937.937,0,0,1-.259-.581v-.028a.68.68,0,0,1,.21-.532.656.656,0,0,1,.546-.2q.406.028,1.022.028a.367.367,0,0,0,.329-.259,5.251,5.251,0,0,0,.231-1.232q.112-.973.2-2.905,0-.028-.014-.028a.04.04,0,0,0-.028.014,14.375,14.375,0,0,1-4.06,5.7.792.792,0,0,1-.595.175.89.89,0,0,1-.567-.287l-.1-.1a.687.687,0,0,1-.175-.553.743.743,0,0,1,.273-.511,13.388,13.388,0,0,0,2.933-3.409,16.356,16.356,0,0,0,1.869-4.431q.028-.126-.084-.126H-17.6a.154.154,0,0,0-.154.112,16.856,16.856,0,0,1-1.5,3.276,12.246,12.246,0,0,1-2,2.576.727.727,0,0,1-.567.2.8.8,0,0,1-.553-.259l-.07-.084a.731.731,0,0,1-.2-.518.1.1,0,0,0-.028-.07.046.046,0,0,0-.056-.014,1.03,1.03,0,0,1-.112.042q-.406.126-.532.154a.144.144,0,0,0-.126.154v3.346a.754.754,0,0,1-.231.553.754.754,0,0,1-.553.231h-.21a.778.778,0,0,1-.56-.231.744.744,0,0,1-.238-.553V17.606q0-.112-.112-.084-.21.042-.623.119t-.6.119a.7.7,0,0,1-.56-.126.663.663,0,0,1-.28-.5.839.839,0,0,1,.168-.588.79.79,0,0,1,.518-.322l1.386-.294q.1-.014.1-.14V12.4q0-.126-.112-.126h-.294q-.1,0-.126.126-.154,1.092-.28,1.68A.7.7,0,0,1-26.411,14.526Zm18.641,4.8A10.739,10.739,0,0,0-5.418,17.4a.145.145,0,0,0,.014-.2,15.017,15.017,0,0,1-1.9-4.816.786.786,0,0,1,.112-.609.771.771,0,0,1,.5-.357l.182-.042a.752.752,0,0,1,.581.1.734.734,0,0,1,.343.49,13.971,13.971,0,0,0,1.33,3.724.1.1,0,0,0,.07.028.056.056,0,0,0,.056-.028,12.563,12.563,0,0,0,1.694-4.676q.028-.14-.1-.14h-4.4a.754.754,0,0,1-.553-.231.754.754,0,0,1-.231-.553.778.778,0,0,1,.231-.56A.744.744,0,0,1-6.93,9.29H-1.4a.766.766,0,0,1,.56.238.766.766,0,0,1,.238.56v.784A14.745,14.745,0,0,1-3,17.284a.155.155,0,0,0,0,.2A9.91,9.91,0,0,0-.854,19.3a.831.831,0,0,1,.364.5.776.776,0,0,1-.07.595l-.1.2a.752.752,0,0,1-.469.371.693.693,0,0,1-.6-.091,12.481,12.481,0,0,1-2.408-2q-.084-.112-.168,0a12.082,12.082,0,0,1-2.52,2.016.706.706,0,0,1-.6.091.862.862,0,0,1-.5-.371l-.126-.2a.741.741,0,0,1-.084-.595A.777.777,0,0,1-7.77,19.328Zm-5.936-.588v-.084a.773.773,0,0,1,.147-.546.791.791,0,0,1,.469-.308.121.121,0,0,0,.1-.126V10.438a.766.766,0,0,1,.238-.56.766.766,0,0,1,.56-.238h.084a.766.766,0,0,1,.56.238.766.766,0,0,1,.238.56v6.818q0,.126.112.1.882-.238,1.12-.308a.144.144,0,0,0,.126-.154V9.4a.754.754,0,0,1,.231-.553.754.754,0,0,1,.553-.231h.2a.754.754,0,0,1,.553.231A.754.754,0,0,1-8.19,9.4V20.518a.754.754,0,0,1-.231.553.754.754,0,0,1-.553.231h-.2a.754.754,0,0,1-.553-.231.754.754,0,0,1-.231-.553V18.74q0-.112-.126-.084-1.386.42-2.758.714a.67.67,0,0,1-.567-.119A.723.723,0,0,1-13.706,18.74ZM6.916,21.3a.789.789,0,0,1-.784-.784v-1.33a.082.082,0,0,0-.042-.07q-.042-.028-.07,0a22.9,22.9,0,0,1-4.186,1.638.786.786,0,0,1-.616-.056.822.822,0,0,1-.406-.476l-.028-.07a.7.7,0,0,1,.056-.581A.682.682,0,0,1,1.3,19.23,27.281,27.281,0,0,0,5.18,18.068a.047.047,0,0,0,.014-.035q0-.021-.028-.021H1.5a.66.66,0,0,1-.483-.2.676.676,0,0,1,0-.966.66.66,0,0,1,.483-.2H6.006q.126,0,.126-.112V16.22q0-.112-.126-.112H2.6a.766.766,0,0,1-.56-.238.766.766,0,0,1-.238-.56v-2a.176.176,0,0,0-.1-.182l-.616-.28a.7.7,0,0,1-.28-1.008A15.709,15.709,0,0,0,2.1,9.206a1,1,0,0,1,.427-.5.907.907,0,0,1,.637-.126l.182.028a.617.617,0,0,1,.455.3.6.6,0,0,1,.063.539q-.028.1.07.1h2.66a.154.154,0,0,0,.154-.1q.014-.042.049-.119t.049-.119a1.007,1.007,0,0,1,1.036-.672l.224.014a.606.606,0,0,1,.476.287.613.613,0,0,1,.07.553v.028l-.014.028q-.028.1.07.1H12a.686.686,0,0,1,0,1.372H8.512a.111.111,0,0,0-.126.126v.35a.111.111,0,0,0,.126.126H11.7a.542.542,0,0,1,.4.161.549.549,0,0,1-.007.784.549.549,0,0,1-.392.161H8.512q-.126,0-.126.112V13.1q0,.112.126.112H11.7a.549.549,0,0,1,.392.161.558.558,0,0,1,0,.8.549.549,0,0,1-.392.161H8.512q-.126,0-.126.112v.364q0,.112.126.112H12.1a.6.6,0,0,1,.588.588.588.588,0,0,1-.175.42.554.554,0,0,1-.413.182H8.162q-.126,0-.126.112v.308q0,.112.126.112H12.53a.686.686,0,0,1,0,1.372H9a.045.045,0,0,0-.028.042,26.73,26.73,0,0,0,3.892,1.176.682.682,0,0,1,.462.343.7.7,0,0,1,.056.581l-.028.07a.827.827,0,0,1-.4.476.738.738,0,0,1-.6.056,24.738,24.738,0,0,1-4.214-1.638q-.028-.028-.07,0a.082.082,0,0,0-.042.07v1.33a.789.789,0,0,1-.784.784ZM3.626,11.04v.35a.111.111,0,0,0,.126.126h2.6a.111.111,0,0,0,.126-.126v-.35a.111.111,0,0,0-.126-.126h-2.6A.111.111,0,0,0,3.626,11.04Zm0,1.694V13.1q0,.112.126.112h2.6q.126,0,.126-.112v-.364q0-.112-.126-.112h-2.6Q3.626,12.622,3.626,12.734Zm.126,2.184h2.6q.126,0,.126-.112v-.364q0-.112-.126-.112h-2.6q-.126,0-.126.112v.364Q3.626,14.918,3.752,14.918ZM15.218,9.43a.8.8,0,0,1,.581-.21.777.777,0,0,1,.553.252q.434.448,1.3,1.4a.77.77,0,0,1,.2.581.8.8,0,0,1-.259.553l-.014.028a.727.727,0,0,1-.567.2.8.8,0,0,1-.553-.259q-.644-.714-1.33-1.414a.728.728,0,0,1-.217-.553.708.708,0,0,1,.245-.539Zm.182,5.908a.77.77,0,0,1,0-1.54h1.568a.789.789,0,0,1,.784.784v3.556a.42.42,0,0,0,.07.224,2.161,2.161,0,0,0,1.246.945,12.294,12.294,0,0,0,2.982.3.033.033,0,0,0,.035-.028.034.034,0,0,0-.021-.042.731.731,0,0,1-.266-.588v-.07q0-.112-.126-.112h-2.73a.655.655,0,0,1-.469-.2.66.66,0,0,1,0-.952.655.655,0,0,1,.469-.2h2.73A.111.111,0,0,0,21.8,17.3v-.266q0-.112-.126-.112H19.418a.813.813,0,0,1-.8-.8V13.308a.813.813,0,0,1,.8-.8h2.254a.111.111,0,0,0,.126-.126v-.252a.111.111,0,0,0-.126-.126H19.25a.431.431,0,0,1-.42-.42.049.049,0,0,0-.056-.056h-.042a.6.6,0,0,1-.6-.6V9.64a.813.813,0,0,1,.8-.8H26.39a.813.813,0,0,1,.8.8v1.288a.57.57,0,0,1-.182.427.6.6,0,0,1-.434.175h-.028a.049.049,0,0,0-.056.056.431.431,0,0,1-.42.42H23.716a.111.111,0,0,0-.126.126v.252a.111.111,0,0,0,.126.126H25.9a.813.813,0,0,1,.8.8v2.814a.813.813,0,0,1-.8.8H23.716q-.126,0-.126.112V17.3a.111.111,0,0,0,.126.126h2.842a.655.655,0,0,1,.469.2.66.66,0,0,1,0,.952.655.655,0,0,1-.469.2H23.716q-.126,0-.126.112v.07a.756.756,0,0,1-.28.6q-.028.028-.021.049a.032.032,0,0,0,.035.021h3.3a.682.682,0,0,1,.518.224.658.658,0,0,1,.182.532.743.743,0,0,1-.245.525.779.779,0,0,1-.553.217H23.45a23.929,23.929,0,0,1-4.053-.259,4.2,4.2,0,0,1-2.121-.917.149.149,0,0,0-.182-.014q-.658.574-1.176.966a.714.714,0,0,1-.581.112.68.68,0,0,1-.469-.35l-.056-.1a.828.828,0,0,1-.1-.616.783.783,0,0,1,.35-.518q.308-.21.868-.658a.227.227,0,0,0,.1-.2V15.45q0-.112-.126-.112Zm8.19-4.984v.294q0,.112.126.112h1.666q.126,0,.126-.112v-.294a.111.111,0,0,0-.126-.126H23.716A.111.111,0,0,0,23.59,10.354Zm-1.918.406q.126,0,.126-.112v-.294a.111.111,0,0,0-.126-.126H19.936a.111.111,0,0,0-.126.126v.294q0,.112.126.112Zm3.388,4.886V15.31q0-.112-.126-.112H23.716q-.126,0-.126.112v.336a.111.111,0,0,0,.126.126h1.218A.111.111,0,0,0,25.06,15.646Zm-.126-1.974H23.716q-.126,0-.126.112v.308a.111.111,0,0,0,.126.126h1.218a.111.111,0,0,0,.126-.126v-.308Q25.06,13.672,24.934,13.672Zm-4.676.112v.308q0,.126.112.126h1.3a.111.111,0,0,0,.126-.126v-.308q0-.112-.126-.112h-1.3A.1.1,0,0,0,20.258,13.784Zm.112,1.988h1.3a.111.111,0,0,0,.126-.126V15.31q0-.112-.126-.112h-1.3a.1.1,0,0,0-.112.112v.336Q20.258,15.772,20.37,15.772Zm8.638-3.36a.75.75,0,0,1-.539-.224.761.761,0,0,1,0-1.092.75.75,0,0,1,.539-.224h.126q.126,0,.126-.112V9.4a.744.744,0,0,1,.238-.553.778.778,0,0,1,.56-.231h.084a.778.778,0,0,1,.56.231.744.744,0,0,1,.238.553v1.372a.087.087,0,0,0,.1.1.718.718,0,0,1,.7.7v.154a.649.649,0,0,1-.21.483.683.683,0,0,1-.49.2q-.1,0-.1.112v1.722q0,.1.1.07a.505.505,0,0,1,.427.021.445.445,0,0,1,.245.329q.028.1.084.056a.776.776,0,0,1,.182-.07.049.049,0,0,0,.056-.056V10.41a.813.813,0,0,1,.8-.8h.21a.132.132,0,0,0,.14-.112l.042-.378a.8.8,0,0,1,.3-.532.858.858,0,0,1,.6-.2h.112a.753.753,0,0,1,.532.28.717.717,0,0,1,.168.574.425.425,0,0,0-.014.126A.425.425,0,0,1,34.9,9.5q-.028.112.1.112h.462a.813.813,0,0,1,.8.8v3.64a.037.037,0,0,0,.042.042.253.253,0,0,1,.231.063.278.278,0,0,1,.1.217v.84a.348.348,0,0,1-.1.245.435.435,0,0,1-.238.133q-.042,0-.042.056V19.02q0,.882-.028,1.281a1.421,1.421,0,0,1-.189.658.592.592,0,0,1-.392.3,4.685,4.685,0,0,1-.749.042H34.79a.822.822,0,0,1-.574-.259.935.935,0,0,1-.266-.595l-.042-.63a.025.025,0,0,0-.028-.028.215.215,0,0,1-.21-.21V16.052a.132.132,0,0,0-.035-.084.068.068,0,0,0-.077-.028.137.137,0,0,0-.126.14,13.126,13.126,0,0,1-.826,4.606.471.471,0,0,1-.406.3.5.5,0,0,1-.476-.189l-.14-.154a1.192,1.192,0,0,1-.2-1.33,10.411,10.411,0,0,0,.6-3.122.037.037,0,0,0-.042-.042.3.3,0,0,1-.231-.07.259.259,0,0,1-.1-.21v-.322q0-.028-.021-.028a.047.047,0,0,0-.035.014.993.993,0,0,1-.5.434.163.163,0,0,0-.112.168v2.842q0,.84-.035,1.253a1.351,1.351,0,0,1-.21.665.7.7,0,0,1-.42.308,3.751,3.751,0,0,1-.763.056q-.224,0-.406-.014A.782.782,0,0,1,28.56,21a.882.882,0,0,1-.252-.553.67.67,0,0,1,.686-.686h.056q.154,0,.182-.077a2.9,2.9,0,0,0,.028-.567V16.682q0-.112-.112-.084h-.042a.646.646,0,0,1-.567-.1.606.606,0,0,1-.273-.49v-.042a.955.955,0,0,1,.189-.616.92.92,0,0,1,.525-.364.215.215,0,0,0,.084-.028.215.215,0,0,1,.084-.028.132.132,0,0,0,.112-.14V12.538a.111.111,0,0,0-.126-.126Zm5.88,6.706.014-3.234q0-.126-.126-.1l-.084.014a.125.125,0,0,0-.112.126V19.65a.1.1,0,0,0,.112.112q.14,0,.168-.091A2.924,2.924,0,0,0,34.888,19.118Zm-1.428-7.98v.518a.076.076,0,0,0,.035.056.057.057,0,0,0,.063.014.639.639,0,0,1,.56-.049.652.652,0,0,1,.406.385q.112.294.336.91a.04.04,0,0,0,.028.014q.014,0,.014-.028v-1.82q0-.126-.112-.126H33.572Q33.46,11.012,33.46,11.138Zm0,1.358v1.848q0,.126.112.1l1.2-.154q.126-.028.126-.126V13.77q0-.028-.042-.056a.07.07,0,0,0-.07-.014.654.654,0,0,1-.567.021.7.7,0,0,1-.4-.413q-.168-.448-.336-.84-.014-.014-.021-.007A.055.055,0,0,0,33.46,12.5Zm6.65,1.372a2.168,2.168,0,0,1-1.036-.154q-.224-.154-.224-.686V10.522q0-.112-.126-.112H38.43a.1.1,0,0,0-.112.112v.14a5.232,5.232,0,0,1-1.12,3.612q-.028.056.042.084h3.388a.741.741,0,0,1,.742.742,3.882,3.882,0,0,1-.266,1.442,9.053,9.053,0,0,1-1.036,1.918.106.106,0,0,0,.028.168,8.19,8.19,0,0,0,1.05.686.881.881,0,0,1,.42.469.8.8,0,0,1,0,.623l-.042.07a.742.742,0,0,1-.42.427.668.668,0,0,1-.574-.021,9.377,9.377,0,0,1-1.554-1.036.145.145,0,0,0-.2-.014,8.636,8.636,0,0,1-1.5,1.022.639.639,0,0,1-.574.035.7.7,0,0,1-.406-.427l-.014-.042a.9.9,0,0,1,.028-.623.881.881,0,0,1,.42-.469,8.1,8.1,0,0,0,.91-.6q.112-.084.028-.168a9.454,9.454,0,0,1-.952-1.3.741.741,0,0,1-.084-.6.767.767,0,0,1,.378-.483l.49-.28a.032.032,0,0,0,.007-.035q-.007-.021-.021-.021a.645.645,0,0,1-.644-.644v-.672a.148.148,0,0,1,.168-.168q.014,0,.014-.028l-.462-.6a1.175,1.175,0,0,1-.028-1.288,6.358,6.358,0,0,0,.392-2.562v-.14a.813.813,0,0,1,.8-.8h1.792a.813.813,0,0,1,.8.8V12.2a.8.8,0,0,0,.014.21q.014.028.126.028a.216.216,0,0,0,.231-.154,5.694,5.694,0,0,0,.077-.966.494.494,0,0,1,.182-.364.432.432,0,0,1,.378-.1.616.616,0,0,1,.385.224.57.57,0,0,1,.133.406q-.028.644-.049,1a2.848,2.848,0,0,1-.112.658,1.812,1.812,0,0,1-.168.42.6.6,0,0,1-.315.2,1.488,1.488,0,0,1-.441.091Q40.558,13.868,40.11,13.868Zm-2.254,1.974a.067.067,0,0,0-.063.042.055.055,0,0,0,.007.07,8.914,8.914,0,0,0,.966,1.428q.084.084.14,0a6.922,6.922,0,0,0,.77-1.428q.056-.112-.07-.112Zm5.026,4.648-.028-.056a.594.594,0,0,1-.021-.539.571.571,0,0,1,.413-.343,26.738,26.738,0,0,0,3.6-1.176.04.04,0,0,0,.014-.028q0-.014-.028-.014H43.792a.718.718,0,0,1-.7-.7.649.649,0,0,1,.21-.483.683.683,0,0,1,.49-.2h4.242a.111.111,0,0,0,.126-.126v-.364q0-.112-.126-.112h-3.71a.63.63,0,1,1,0-1.26h3.71a.111.111,0,0,0,.126-.126V14.6q0-.112-.126-.112H43.876a.623.623,0,0,1-.644-.644.637.637,0,0,1,.189-.469.62.62,0,0,1,.455-.189h1.9q.1,0,.07-.112-.182-.49-.448-1.12a.154.154,0,0,0-.154-.112H43.694a.727.727,0,0,1-.525-.21.692.692,0,0,1-.217-.518.741.741,0,0,1,.742-.742h.574q.112,0,.056-.126t-.2-.336a.626.626,0,0,1-.049-.553.609.609,0,0,1,.4-.385l.028-.014a.994.994,0,0,1,.658,0,.866.866,0,0,1,.5.42l.462.882a.174.174,0,0,0,.182.112h.5a.111.111,0,0,0,.126-.126V9.318a.813.813,0,0,1,.8-.8H47.8a.813.813,0,0,1,.8.8v.924q0,.126.112.126h.812q.112,0,.112-.126V9.318a.813.813,0,0,1,.8-.8h.056a.813.813,0,0,1,.8.8v.924a.111.111,0,0,0,.126.126H52a.2.2,0,0,0,.168-.112q.042-.07.21-.364t.252-.462a1,1,0,0,1,.469-.462.844.844,0,0,1,.637-.056.652.652,0,0,1,.427.364.609.609,0,0,1-.007.56q-.182.364-.224.434a.063.063,0,0,0,.007.063.069.069,0,0,0,.063.035h.532a.741.741,0,0,1,.742.742.692.692,0,0,1-.217.518.727.727,0,0,1-.525.21H53.046q-.1,0-.154.126-.168.448-.476,1.12a.063.063,0,0,0,.007.063.069.069,0,0,0,.063.035h1.862a.62.62,0,0,1,.455.189.637.637,0,0,1,.189.469.623.623,0,0,1-.644.644H50.19q-.126,0-.126.112v.364a.111.111,0,0,0,.126.126H53.9a.63.63,0,1,1,0,1.26H50.19q-.126,0-.126.112v.364a.111.111,0,0,0,.126.126h4.242a.683.683,0,0,1,.49.2.649.649,0,0,1,.21.483.718.718,0,0,1-.7.7H51.394q-.014.014,0,.042a27.659,27.659,0,0,0,3.6,1.176.567.567,0,0,1,.4.343.594.594,0,0,1-.021.539l-.028.056a.958.958,0,0,1-.5.441.9.9,0,0,1-.651.021,21.209,21.209,0,0,1-4.018-1.708.055.055,0,0,0-.07-.007.067.067,0,0,0-.042.063v1.218a.789.789,0,0,1-.784.784h-.336a.789.789,0,0,1-.784-.784V19.3a.067.067,0,0,0-.042-.063.055.055,0,0,0-.07.007,21.807,21.807,0,0,1-4.032,1.708.956.956,0,0,1-.644-.028A.929.929,0,0,1,42.882,20.49Zm5.012-7.308h2.45a.174.174,0,0,0,.182-.112,11.311,11.311,0,0,0,.49-1.12q.028-.1-.07-.1h-3.57q-.126,0-.07.112.154.364.434,1.12A.154.154,0,0,0,47.894,13.182Zm20.944,1.526a.789.789,0,0,1,.784.784.778.778,0,0,1-.231.56.744.744,0,0,1-.553.238h-1.5q-.112,0-.112.126v4.046a.813.813,0,0,1-.8.8h-.28a.813.813,0,0,1-.8-.8V16.416q0-.126-.112-.126H62.86a.813.813,0,0,1-.8-.8.744.744,0,0,1,.238-.553.778.778,0,0,1,.56-.231h2.38q.112,0,.112-.126v-3.01a.1.1,0,0,0-.112-.112H64.4a.154.154,0,0,0-.154.1,17.8,17.8,0,0,1-.812,1.988.738.738,0,0,1-.455.413.787.787,0,0,1-.623-.049l-.154-.07a.719.719,0,0,1-.392-.455.81.81,0,0,1,.042-.609A20.241,20.241,0,0,0,63.126,9.15a.873.873,0,0,1,.357-.525.8.8,0,0,1,.609-.133l.168.028a.748.748,0,0,1,.5.315.683.683,0,0,1,.112.567q-.014.07-.049.21l-.049.2q-.028.112.084.112h3.766a.75.75,0,0,1,.539.224.761.761,0,0,1,0,1.092.75.75,0,0,1-.539.224H67.34a.1.1,0,0,0-.112.112v3.01q0,.126.112.126Zm-11.2-5.7h3.4a.693.693,0,0,1,.7.7.7.7,0,0,1-.2.5.665.665,0,0,1-.5.21h-3.4a.665.665,0,0,1-.5-.21.7.7,0,0,1-.2-.5.693.693,0,0,1,.7-.7Zm-.322,3.514a.756.756,0,0,1,0-1.512h4a.715.715,0,0,1,.525.217.778.778,0,0,1,0,1.078.715.715,0,0,1-.525.217Zm.42,1.988a.686.686,0,0,1,0-1.372h3.3a.637.637,0,0,1,.476.2.693.693,0,0,1,0,.966.637.637,0,0,1-.476.2Zm0,1.974a.693.693,0,0,1-.686-.686.637.637,0,0,1,.2-.476.671.671,0,0,1,.483-.2h3.3a.669.669,0,0,1,.672.672.672.672,0,0,1-.2.483.637.637,0,0,1-.476.2ZM61.782,17.9v2.17a.778.778,0,0,1-.231.56.744.744,0,0,1-.553.238H58.7q-.07,0-.07.056a.431.431,0,0,1-.448.448h-.462a.789.789,0,0,1-.784-.784V17.9a.778.778,0,0,1,.231-.56.744.744,0,0,1,.553-.238H61a.744.744,0,0,1,.553.238A.778.778,0,0,1,61.782,17.9Zm-1.554,1.5v-.826a.111.111,0,0,0-.126-.126H58.758a.111.111,0,0,0-.126.126V19.4a.111.111,0,0,0,.126.126H60.1A.111.111,0,0,0,60.228,19.4Zm11.242-8.75a.8.8,0,0,1,0-1.6H82.53a.8.8,0,0,1,0,1.6h-.252q-.126,0-.126.112v8.078q0,.574-.021.9a2.574,2.574,0,0,1-.112.616,1.087,1.087,0,0,1-.21.413.954.954,0,0,1-.4.217,2.43,2.43,0,0,1-.588.112q-.308.021-.854.021t-1.624-.042a.807.807,0,0,1-.553-.245.866.866,0,0,1-.259-.553.648.648,0,0,1,.189-.532.659.659,0,0,1,.525-.21q1.022.042,1.386.042a.947.947,0,0,0,.56-.1.947.947,0,0,0,.1-.56V10.76q0-.112-.126-.112Zm7.28,6.342a.813.813,0,0,1-.8.8h-4.1a.1.1,0,0,0-.112.112v.21a.813.813,0,0,1-.8.8h-.252a.813.813,0,0,1-.8-.8V12.79a.813.813,0,0,1,.8-.8h5.264a.813.813,0,0,1,.8.8Zm-1.792-.756v-2.7q0-.112-.126-.112H73.85a.1.1,0,0,0-.112.112v2.7q0,.126.112.126h2.982A.111.111,0,0,0,76.958,16.234Z" transform="translate(130 58.375)" fill="#eb6d4e"/><path d="M-103.5-5.04a1.185,1.185,0,0,1,.35-.861,1.15,1.15,0,0,1,.854-.357,1.173,1.173,0,0,1,.861.357,1.173,1.173,0,0,1,.357.861,1.173,1.173,0,0,1-.357.861,1.173,1.173,0,0,1-.861.357,1.15,1.15,0,0,1-.854-.357A1.185,1.185,0,0,1-103.5-5.04Zm4.284,4.3a1.173,1.173,0,0,1,.357-.861A1.173,1.173,0,0,1-98-1.96a1.173,1.173,0,0,1,.861.357,1.173,1.173,0,0,1,.357.861,1.15,1.15,0,0,1-.357.854A1.185,1.185,0,0,1-98,.462a1.185,1.185,0,0,1-.861-.35A1.15,1.15,0,0,1-99.218-.742Zm4.3-4.3a1.173,1.173,0,0,1,.357-.861,1.173,1.173,0,0,1,.861-.357,1.15,1.15,0,0,1,.854.357,1.185,1.185,0,0,1,.35.861,1.185,1.185,0,0,1-.35.861,1.15,1.15,0,0,1-.854.357,1.173,1.173,0,0,1-.861-.357A1.173,1.173,0,0,1-94.92-5.04Zm-4.3-4.3a1.15,1.15,0,0,1,.357-.854,1.185,1.185,0,0,1,.861-.35,1.185,1.185,0,0,1,.861.35,1.15,1.15,0,0,1,.357.854,1.173,1.173,0,0,1-.357.861A1.173,1.173,0,0,1-98-8.12a1.173,1.173,0,0,1-.861-.357A1.173,1.173,0,0,1-99.218-9.338Zm-3.836,8.414,4.116-4.1a.105.105,0,0,0,0-.168l-4.116-4.1a.593.593,0,0,1-.182-.434.593.593,0,0,1,.182-.434.592.592,0,0,1,.434-.182.593.593,0,0,1,.434.182l4.1,4.116a.1.1,0,0,0,.168,0l4.1-4.116a.592.592,0,0,1,.434-.182.592.592,0,0,1,.434.182.593.593,0,0,1,.182.434.593.593,0,0,1-.182.434l-4.116,4.1a.105.105,0,0,0,0,.168l4.116,4.1a.593.593,0,0,1,.182.434.593.593,0,0,1-.182.434.592.592,0,0,1-.434.182.592.592,0,0,1-.434-.182l-4.1-4.116a.1.1,0,0,0-.168,0l-4.1,4.116a.592.592,0,0,1-.434.182.592.592,0,0,1-.434-.182.593.593,0,0,1-.182-.434A.593.593,0,0,1-103.054-.924ZM-89.39-7.77a.766.766,0,0,1-.56-.238.766.766,0,0,1-.238-.56V-9.912a.766.766,0,0,1,.238-.56.766.766,0,0,1,.56-.238h4.312a.111.111,0,0,0,.126-.126v-.224a.778.778,0,0,1,.231-.56.744.744,0,0,1,.553-.238h.336a.744.744,0,0,1,.553.238.778.778,0,0,1,.231.56v.224a.111.111,0,0,0,.126.126h4.312a.766.766,0,0,1,.56.238.766.766,0,0,1,.238.56v1.344a.766.766,0,0,1-.238.56.766.766,0,0,1-.56.238h-.308a.13.13,0,0,0-.14.1.76.76,0,0,1-.266.392.705.705,0,0,1-.448.154h-1.68q-.112,0-.084.1a12.217,12.217,0,0,0,.686,2.044q.042.1.126.014.322-.308.966-1.036a.865.865,0,0,1,.553-.294.8.8,0,0,1,.6.154.764.764,0,0,1,.315.518.7.7,0,0,1-.161.574A15.919,15.919,0,0,1-79.912-3.5q-.112.084-.028.182a12.029,12.029,0,0,0,1.9,2.212.855.855,0,0,1,.273.546.812.812,0,0,1-.161.588l-.182.224a.744.744,0,0,1-.525.308.7.7,0,0,1-.581-.182,12.228,12.228,0,0,1-2.569-3.3,13.942,13.942,0,0,1-1.505-4.1.132.132,0,0,0-.14-.112h-.588a.355.355,0,0,0-.21.07q-.056.042-.168.133t-.168.133a.088.088,0,0,0-.014.154A7.416,7.416,0,0,1-82.81-4.221a6.663,6.663,0,0,1,.63,2.793A3.665,3.665,0,0,1-82.579.6a1.5,1.5,0,0,1-1.309.553q-.532,0-1.5-.042a.77.77,0,0,1-.546-.252.847.847,0,0,1-.238-.56.65.65,0,0,1,.217-.525.73.73,0,0,1,.553-.2l.882.028q.322,0,.406-.168a2.522,2.522,0,0,0,.084-.854q0-.35-.014-.532a.069.069,0,0,0-.035-.063.047.047,0,0,0-.063.007A18.281,18.281,0,0,1-88.788.6.748.748,0,0,1-89.4.6a.848.848,0,0,1-.441-.441L-89.852.1a.736.736,0,0,1-.007-.588.651.651,0,0,1,.427-.392A17.862,17.862,0,0,0-84.5-3.458a.142.142,0,0,0,.056-.182l-.21-.462q-.056-.1-.168-.014a18.325,18.325,0,0,1-3.906,2.058.832.832,0,0,1-.609-.007.741.741,0,0,1-.427-.427.638.638,0,0,1,.007-.56.751.751,0,0,1,.427-.392A17.2,17.2,0,0,0-85.61-5.166a.111.111,0,0,0,.014-.168q-.126-.126-.42-.406a.167.167,0,0,0-.2-.014,20.152,20.152,0,0,1-2.45,1.148.8.8,0,0,1-.6-.007.744.744,0,0,1-.427-.413.594.594,0,0,1,.007-.539.7.7,0,0,1,.413-.371,19.472,19.472,0,0,0,2.87-1.148.045.045,0,0,0-.028-.042h-1.806a.705.705,0,0,1-.448-.154.76.76,0,0,1-.266-.392.13.13,0,0,0-.14-.1h-.308Zm1.148-1.484a.111.111,0,0,0-.126.126v.406q0,.112.126.112h8.484q.126,0,.126-.112v-.406a.111.111,0,0,0-.126-.126Zm24.024-1.33a.727.727,0,0,1,.532.224.727.727,0,0,1,.224.532.7.7,0,0,1-.224.525.739.739,0,0,1-.532.217h-9.506q-.126,0-.126.112v3.766A14.01,14.01,0,0,1-74.886.672a.439.439,0,0,1-.4.287.523.523,0,0,1-.469-.2l-.252-.322a1.314,1.314,0,0,1-.21-1.358,9.959,9.959,0,0,0,.476-2.191,32.634,32.634,0,0,0,.14-3.451v-3.22a.766.766,0,0,1,.238-.56.766.766,0,0,1,.56-.238h4.256q.126,0,.126-.112v-.21a.766.766,0,0,1,.238-.56.766.766,0,0,1,.56-.238h.322a.766.766,0,0,1,.56.238.766.766,0,0,1,.238.56v.21a.1.1,0,0,0,.112.112Zm-.014,4.942a.739.739,0,0,1,.539.231.739.739,0,0,1,.231.539.727.727,0,0,1-.224.532.743.743,0,0,1-.546.224h-1.232a.111.111,0,0,0-.126.126v1.358a.111.111,0,0,0,.126.126h1.022a.687.687,0,0,1,.5.21.687.687,0,0,1,.21.5.687.687,0,0,1-.21.5.687.687,0,0,1-.5.21H-68.6a.711.711,0,0,1-.511-.21.676.676,0,0,1-.217-.5.676.676,0,0,1,.217-.5.711.711,0,0,1,.511-.21h1.092a.111.111,0,0,0,.126-.126V-3.99a.111.111,0,0,0-.126-.126H-68.74a.743.743,0,0,1-.546-.224.727.727,0,0,1-.224-.532.739.739,0,0,1,.231-.539.739.739,0,0,1,.539-.231h1.232q.126,0,.126-.112V-6.776q0-.112-.126-.112-.322.028-.966.056a.673.673,0,0,1-.511-.189.758.758,0,0,1-.245-.5.65.65,0,0,1,.175-.518.692.692,0,0,1,.5-.238A38.251,38.251,0,0,0-64.6-8.68a.721.721,0,0,1,.539.133.672.672,0,0,1,.287.469.721.721,0,0,1-.133.539.672.672,0,0,1-.469.287q-.728.112-1.092.154a.137.137,0,0,0-.126.14v1.2q0,.112.126.112ZM-73.584-.434q.154-.126.49-.434a.112.112,0,0,0,.014-.168,8.44,8.44,0,0,1-.644-.994.81.81,0,0,1-.084-.588.843.843,0,0,1,.336-.5.624.624,0,0,1,.518-.105.609.609,0,0,1,.42.329,6.319,6.319,0,0,0,.392.658q.056.084.112,0a4.818,4.818,0,0,0,.5-1.54q.028-.112-.1-.112H-72.73a.637.637,0,0,1-.476-.2.671.671,0,0,1-.2-.483,1.675,1.675,0,0,1,.476-1.162A12.047,12.047,0,0,0-71.9-6.986q.056-.084-.056-.084h-.84a.676.676,0,0,1-.5-.2.676.676,0,0,1-.2-.5.676.676,0,0,1,.2-.5.676.676,0,0,1,.5-.2h2.058a.676.676,0,0,1,.5.2.676.676,0,0,1,.2.5,2.274,2.274,0,0,1-.392,1.288q-.406.588-.868,1.134-.07.1.042.1h.6a.766.766,0,0,1,.56.238.766.766,0,0,1,.238.56v.56a7.327,7.327,0,0,1-.952,2.8.112.112,0,0,0,.042.168,4.9,4.9,0,0,0,1.645.483,20.831,20.831,0,0,0,2.653.133h2.324a.682.682,0,0,1,.518.224.658.658,0,0,1,.182.532A.8.8,0,0,1-63.7.98a.751.751,0,0,1-.532.21h-2.45a17.662,17.662,0,0,1-3.01-.21,5.759,5.759,0,0,1-2-.714.138.138,0,0,0-.2.028,6.476,6.476,0,0,1-.7.616.725.725,0,0,1-.6.154A.779.779,0,0,1-73.71.728l-.042-.056a.794.794,0,0,1-.133-.588A.781.781,0,0,1-73.584-.434Zm21.574-10.6q.07.126.2.371t.2.371a.674.674,0,0,1,.056.5.714.714,0,0,1-.294.42A.115.115,0,0,0-51.9-9.2a.69.69,0,0,1,.1.378V-.742a.744.744,0,0,1-.238.553.778.778,0,0,1-.56.231h-8.26a.754.754,0,0,1-.553-.231.754.754,0,0,1-.231-.553v-.1a.778.778,0,0,1,.231-.56.744.744,0,0,1,.553-.238h7.07q.126,0,.126-.112V-7.812a.111.111,0,0,0-.126-.126h-7.07a.754.754,0,0,1-.553-.231.754.754,0,0,1-.231-.553v-.1a.778.778,0,0,1,.231-.56.744.744,0,0,1,.553-.238h7.826a.069.069,0,0,0,.063-.035.047.047,0,0,0-.007-.063q-.056-.112-.175-.336t-.175-.336a.693.693,0,0,1-.049-.553.706.706,0,0,1,.357-.427.709.709,0,0,1,.567-.042A.779.779,0,0,1-52.01-11.032Zm2.142-.21.2.406.189.378a.694.694,0,0,1,.042.56.726.726,0,0,1-.378.42.709.709,0,0,1-.567.042.778.778,0,0,1-.441-.378q-.126-.252-.406-.756a.731.731,0,0,1-.049-.567.7.7,0,0,1,.371-.427.756.756,0,0,1,.588-.042A.734.734,0,0,1-49.868-11.242ZM-46.592-.476a.838.838,0,0,1-.56-.266.74.74,0,0,1-.21-.56l.014-.28a.8.8,0,0,1,.273-.553.794.794,0,0,1,.581-.2,86.063,86.063,0,0,1,9.142.952.816.816,0,0,1,.525.322.844.844,0,0,1,.175.6l-.028.28a.7.7,0,0,1-.287.518.72.72,0,0,1-.581.14A82.08,82.08,0,0,0-46.592-.476Zm7.938-5.39a.782.782,0,0,1,.518.329.809.809,0,0,1,.154.595l-.028.28a.739.739,0,0,1-.308.518.74.74,0,0,1-.588.14q-3.22-.518-6.5-.714a.727.727,0,0,1-.539-.266.749.749,0,0,1-.189-.574l.028-.266a.8.8,0,0,1,.273-.553.794.794,0,0,1,.581-.2A64.084,64.084,0,0,1-38.654-5.866Zm1.512-2.814a.721.721,0,0,1-.287.525.75.75,0,0,1-.581.161q-4.018-.532-7.994-.7a.76.76,0,0,1-.546-.259.716.716,0,0,1-.2-.567v-.224a.852.852,0,0,1,.266-.553.729.729,0,0,1,.56-.217q3.948.182,8.106.714a.771.771,0,0,1,.525.3.8.8,0,0,1,.175.581Zm8.316.1A4.4,4.4,0,0,0-31.4-7.091,4.254,4.254,0,0,0-32.34-4.3a4,4,0,0,0,.434,1.89q.434.826.826.826a.621.621,0,0,0,.406-.189,2.532,2.532,0,0,0,.469-.686A8.357,8.357,0,0,0-29.7-3.7a19.429,19.429,0,0,0,.5-1.988q.259-1.239.469-2.793a.071.071,0,0,0-.021-.077A.071.071,0,0,0-28.826-8.582ZM-31.08.182a2.641,2.641,0,0,1-2.086-1.3A5.237,5.237,0,0,1-34.118-4.3a5.7,5.7,0,0,1,1.848-4.41A6.868,6.868,0,0,1-27.44-10.4,5.519,5.519,0,0,1-23.457-8.89a5.106,5.106,0,0,1,1.575,3.85A6.076,6.076,0,0,1-22.9-1.421,4.489,4.489,0,0,1-25.676.392a.742.742,0,0,1-.609-.126.844.844,0,0,1-.343-.532l-.028-.126a.7.7,0,0,1,.112-.574.913.913,0,0,1,.49-.364q2.394-.742,2.394-3.71a3.58,3.58,0,0,0-.847-2.415,3.582,3.582,0,0,0-2.219-1.211.114.114,0,0,0-.154.1q-.28,2.114-.63,3.675a16.869,16.869,0,0,1-.735,2.52,5.893,5.893,0,0,1-.861,1.54,2.834,2.834,0,0,1-.938.8A2.407,2.407,0,0,1-31.08.182Zm11.858,1.05A.778.778,0,0,1-19.782,1,.744.744,0,0,1-20.02.448V-10.29a.766.766,0,0,1,.238-.56.766.766,0,0,1,.56-.238H-8.778a.766.766,0,0,1,.56.238.766.766,0,0,1,.238.56V.448A.744.744,0,0,1-8.218,1a.778.778,0,0,1-.56.231H-9.2a.581.581,0,0,1-.427-.175A.581.581,0,0,1-9.8.63a.087.087,0,0,0-.1-.1h-8.2a.087.087,0,0,0-.1.1.581.581,0,0,1-.175.427.581.581,0,0,1-.427.175ZM-18.2-9.422v8.33a.1.1,0,0,0,.112.112h8.176A.1.1,0,0,0-9.8-1.092v-8.33q0-.126-.112-.126h-8.176Q-18.2-9.548-18.2-9.422Zm2.072,7.084a.754.754,0,0,1-.553-.231.754.754,0,0,1-.231-.553V-7.448A.754.754,0,0,1-16.681-8a.754.754,0,0,1,.553-.231h4.256A.754.754,0,0,1-11.319-8a.754.754,0,0,1,.231.553v4.326a.754.754,0,0,1-.231.553.754.754,0,0,1-.553.231h-4.256Zm.868-4.326v2.772a.1.1,0,0,0,.112.112h2.3a.1.1,0,0,0,.112-.112V-6.664q0-.126-.112-.126h-2.3Q-15.26-6.79-15.26-6.664ZM-.77-.672A10.739,10.739,0,0,0,1.582-2.6.145.145,0,0,0,1.6-2.8a15.017,15.017,0,0,1-1.9-4.816A.786.786,0,0,1-.2-8.225a.771.771,0,0,1,.5-.357L.49-8.624a.752.752,0,0,1,.581.1.734.734,0,0,1,.343.49,13.971,13.971,0,0,0,1.33,3.724.1.1,0,0,0,.07.028.056.056,0,0,0,.056-.028A12.563,12.563,0,0,0,4.564-8.988q.028-.14-.1-.14H.07a.754.754,0,0,1-.553-.231.754.754,0,0,1-.231-.553.778.778,0,0,1,.231-.56A.744.744,0,0,1,.07-10.71H5.6a.766.766,0,0,1,.56.238.766.766,0,0,1,.238.56v.784A14.745,14.745,0,0,1,4-2.716a.155.155,0,0,0,0,.2A9.91,9.91,0,0,0,6.146-.7a.831.831,0,0,1,.364.5.776.776,0,0,1-.07.6l-.1.2a.752.752,0,0,1-.469.371.693.693,0,0,1-.6-.091,12.481,12.481,0,0,1-2.408-2q-.084-.112-.168,0A12.082,12.082,0,0,1,.182.882a.706.706,0,0,1-.6.091A.862.862,0,0,1-.924.6l-.126-.2a.741.741,0,0,1-.084-.6A.777.777,0,0,1-.77-.672ZM-6.706-1.26v-.084a.773.773,0,0,1,.147-.546A.791.791,0,0,1-6.09-2.2a.121.121,0,0,0,.1-.126V-9.562a.766.766,0,0,1,.238-.56.766.766,0,0,1,.56-.238h.084a.766.766,0,0,1,.56.238.766.766,0,0,1,.238.56v6.818q0,.126.112.1.882-.238,1.12-.308a.144.144,0,0,0,.126-.154V-10.6a.754.754,0,0,1,.231-.553.754.754,0,0,1,.553-.231h.2a.754.754,0,0,1,.553.231.754.754,0,0,1,.231.553V.518a.754.754,0,0,1-.231.553.754.754,0,0,1-.553.231h-.2a.754.754,0,0,1-.553-.231A.754.754,0,0,1-2.954.518V-1.26q0-.112-.126-.084-1.386.42-2.758.714A.67.67,0,0,1-6.4-.749.723.723,0,0,1-6.706-1.26Zm21.42-1.708q-1.456,0-1.456,1.008,0,1.12,1.456,1.12a1.344,1.344,0,0,0,.994-.315A1.459,1.459,0,0,0,16.016-2.2v-.28A.209.209,0,0,0,15.9-2.66,2.432,2.432,0,0,0,14.714-2.968ZM14.8.742A3.676,3.676,0,0,1,12.39.035a2.445,2.445,0,0,1-.854-2,2.355,2.355,0,0,1,.847-1.918,3.7,3.7,0,0,1,2.415-.7,3.771,3.771,0,0,1,1.106.154q.112.028.112-.084V-7.154a.111.111,0,0,0-.126-.126H12.8a.766.766,0,0,1-.56-.238A.766.766,0,0,1,12-8.078a.744.744,0,0,1,.238-.553.778.778,0,0,1,.56-.231H15.89a.111.111,0,0,0,.126-.126V-10.22a.766.766,0,0,1,.238-.56.766.766,0,0,1,.56-.238H17a.766.766,0,0,1,.56.238.766.766,0,0,1,.238.56v1.232q0,.126.112.126h1.372a.778.778,0,0,1,.56.231.744.744,0,0,1,.238.553.766.766,0,0,1-.238.56.766.766,0,0,1-.56.238H17.906q-.112,0-.112.126v3.7a.282.282,0,0,0,.1.2A23.045,23.045,0,0,1,19.6-1.68a.8.8,0,0,1,.224.567.774.774,0,0,1-.238.567L19.53-.49a.79.79,0,0,1-.56.224A.766.766,0,0,1,18.41-.5q-.224-.238-.63-.644-.084-.084-.112.042Q17.178.742,14.8.742ZM9.66.658A.9.9,0,0,1,9.037.511.8.8,0,0,1,8.68,0a23.528,23.528,0,0,1-.518-5.04,23.528,23.528,0,0,1,.518-5.04.8.8,0,0,1,.357-.511.9.9,0,0,1,.623-.147l.168.014a.691.691,0,0,1,.49.3.683.683,0,0,1,.112.567A22.265,22.265,0,0,0,9.94-5.04a22.265,22.265,0,0,0,.49,4.816.683.683,0,0,1-.112.567.691.691,0,0,1-.49.3ZM23.912.434q-.686-.84-1.568-1.82a.727.727,0,0,1-.2-.567.735.735,0,0,1,.273-.539l.168-.14a.813.813,0,0,1,.574-.2.75.75,0,0,1,.546.266q.728.826,1.666,1.932a.706.706,0,0,1,.168.567.734.734,0,0,1-.308.511l-.168.14a.786.786,0,0,1-.6.147A.844.844,0,0,1,23.912.434Zm12.53-9.016a.744.744,0,0,1-.553-.238.778.778,0,0,1-.231-.56.778.778,0,0,1,.231-.56.744.744,0,0,1,.553-.238h4.41q.126,0,.126-.112v-.448a.754.754,0,0,1,.231-.553.754.754,0,0,1,.553-.231H42.1a.754.754,0,0,1,.553.231.754.754,0,0,1,.231.553v.448q0,.112.126.112h4.55a.744.744,0,0,1,.553.238.778.778,0,0,1,.231.56.778.778,0,0,1-.231.56.744.744,0,0,1-.553.238h-4.55q-.126,0-.126.112v1.218q0,.112.126.112h3.864a.766.766,0,0,1,.56.238.766.766,0,0,1,.238.56V-2.1q0,.574-.021.9a2.83,2.83,0,0,1-.105.616,1.1,1.1,0,0,1-.2.413.883.883,0,0,1-.364.217,2.012,2.012,0,0,1-.539.112q-.287.021-.777.021-.084,0-.952-.028A.809.809,0,0,1,44.149-.1a.908.908,0,0,1-.259-.574.723.723,0,0,1,.21-.546.639.639,0,0,1,.546-.21l.644.028q.406,0,.483-.091a1.163,1.163,0,0,0,.077-.567V-5.432q0-.126-.112-.126h-2.73a.111.111,0,0,0-.126.126V.658a.754.754,0,0,1-.231.553.755.755,0,0,1-.553.231h-.336a.754.754,0,0,1-.553-.231.754.754,0,0,1-.231-.553v-6.09a.111.111,0,0,0-.126-.126H38.276a.111.111,0,0,0-.126.126V-.6a.744.744,0,0,1-.238.553.778.778,0,0,1-.56.231h-.224a.778.778,0,0,1-.56-.231A.744.744,0,0,1,36.33-.6v-5.74a.766.766,0,0,1,.238-.56.766.766,0,0,1,.56-.238h3.724q.126,0,.126-.112V-8.47q0-.112-.126-.112Zm14.616,9.87a.766.766,0,0,1-.56-.238A.766.766,0,0,1,50.26.49V-10.262a.766.766,0,0,1,.238-.56.766.766,0,0,1,.56-.238H61.166a.72.72,0,0,1,.539.224.739.739,0,0,1,.217.532.739.739,0,0,1-.217.532.72.72,0,0,1-.539.224H52.248a.111.111,0,0,0-.126.126V-.98q0,.112.126.112h9.058a.72.72,0,0,1,.539.224.739.739,0,0,1,.217.532.743.743,0,0,1-.224.546.727.727,0,0,1-.532.224h-9.1a.074.074,0,0,0-.084.084.519.519,0,0,1-.161.392.537.537,0,0,1-.385.154ZM52.99-2.52A18.448,18.448,0,0,0,56.2-5.236q.084-.112,0-.182-1.106-.924-2.338-1.764a.662.662,0,0,1-.3-.49.638.638,0,0,1,.175-.532l.084-.084a.927.927,0,0,1,.574-.294.893.893,0,0,1,.616.14,27.1,27.1,0,0,1,2.31,1.736.111.111,0,0,0,.168-.014,22.88,22.88,0,0,0,1.61-2.3.777.777,0,0,1,.483-.364.741.741,0,0,1,.6.084l.224.126a.777.777,0,0,1,.364.483.741.741,0,0,1-.084.6A28.411,28.411,0,0,1,58.87-5.516q-.084.112,0,.168.924.854,2.282,2.282a.7.7,0,0,1,.2.56.773.773,0,0,1-.266.532l-.112.1a.77.77,0,0,1-.581.2.855.855,0,0,1-.567-.259Q58.6-3.22,57.722-4.046q-.07-.07-.154.014a20.625,20.625,0,0,1-3.346,2.87.906.906,0,0,1-.623.14.932.932,0,0,1-.581-.294l-.168-.2a.628.628,0,0,1-.161-.539A.67.67,0,0,1,52.99-2.52ZM64.722-.658a.754.754,0,0,1-.553-.231.754.754,0,0,1-.231-.553V-10.22a.778.778,0,0,1,.231-.56.744.744,0,0,1,.553-.238h5.656a.766.766,0,0,1,.56.238.766.766,0,0,1,.238.56v.112a.111.111,0,0,0,.126.126h4.4a.754.754,0,0,1,.553.231.754.754,0,0,1,.231.553.778.778,0,0,1-.231.56A.744.744,0,0,1,75.7-8.4h-.35a.111.111,0,0,0-.126.126v7.2q0,.588-.014.917A2.451,2.451,0,0,1,75.1.462a1.018,1.018,0,0,1-.21.413,1.071,1.071,0,0,1-.4.217,2.052,2.052,0,0,1-.588.112q-.308.014-.868.014-.322,0-1.274-.042A.809.809,0,0,1,71.2.924.908.908,0,0,1,70.938.35a.712.712,0,0,1,.2-.539.667.667,0,0,1,.539-.217q.49.028,1.022.028a1.074,1.074,0,0,0,.574-.084,1.033,1.033,0,0,0,.084-.56V-8.274q0-.126-.112-.126H71.3a.111.111,0,0,0-.126.126v6.552a.744.744,0,0,1-.238.553.778.778,0,0,1-.56.231h-.2a.62.62,0,0,1-.455-.189.62.62,0,0,1-.189-.455.087.087,0,0,0-.1-.1h-3.6a.111.111,0,0,0-.126.126v.112a.744.744,0,0,1-.238.553.778.778,0,0,1-.56.231ZM68.4-9.352V-7.21a.1.1,0,0,0,.112.112h.9q.126,0,.126-.112V-9.352a.111.111,0,0,0-.126-.126h-.9Q68.4-9.478,68.4-9.352Zm0,3.822v2.282q0,.126.112.126h.9a.111.111,0,0,0,.126-.126V-5.53q0-.112-.126-.112h-.9A.1.1,0,0,0,68.4-5.53ZM65.716-9.352V-7.21q0,.112.126.112h.882q.126,0,.126-.112V-9.352a.111.111,0,0,0-.126-.126h-.882A.111.111,0,0,0,65.716-9.352Zm0,3.822v2.282a.111.111,0,0,0,.126.126h.882a.111.111,0,0,0,.126-.126V-5.53q0-.112-.126-.112h-.882Q65.716-5.642,65.716-5.53Zm24.43-3.892a.778.778,0,0,1,.56.231.744.744,0,0,1,.238.553.766.766,0,0,1-.238.56.766.766,0,0,1-.56.238h-.154a.111.111,0,0,0-.126.126V-1.05q0,.574-.021.9a2.365,2.365,0,0,1-.119.616A1.082,1.082,0,0,1,89.5.882a1.026,1.026,0,0,1-.42.217,2.692,2.692,0,0,1-.63.112q-.336.021-.924.021-.938,0-1.624-.028A.834.834,0,0,1,85.33.952a.893.893,0,0,1-.266-.574.718.718,0,0,1,.21-.553.687.687,0,0,1,.546-.217q.91.042,1.386.042a1.445,1.445,0,0,0,.686-.091Q88-.532,88-1.008V-7.714a.111.111,0,0,0-.126-.126H84.546a.766.766,0,0,1-.56-.238.766.766,0,0,1-.238-.56.744.744,0,0,1,.238-.553.778.778,0,0,1,.56-.231h3.332A.111.111,0,0,0,88-9.548V-10.6a.754.754,0,0,1,.231-.553.754.754,0,0,1,.553-.231h.28a.778.778,0,0,1,.56.231.744.744,0,0,1,.238.553v1.05a.111.111,0,0,0,.126.126Zm-3.738,6.93a.751.751,0,0,1-.609-.035.792.792,0,0,1-.413-.455q-.518-1.33-1.134-2.59a.735.735,0,0,1-.028-.595.719.719,0,0,1,.406-.427l.14-.07a.787.787,0,0,1,.616-.028.763.763,0,0,1,.448.42Q86.478-4.886,87-3.57a.788.788,0,0,1-.021.609.741.741,0,0,1-.441.413ZM80.766,1.3a.778.778,0,0,1-.56-.231.744.744,0,0,1-.238-.553v-4.8q-.014-.014-.042,0a12.223,12.223,0,0,1-.994,2.2.467.467,0,0,1-.427.231.5.5,0,0,1-.427-.245l-.112-.182A1.22,1.22,0,0,1,77.98-3.64a14.925,14.925,0,0,0,1.68-4.074q.028-.126-.084-.126h-.728a.744.744,0,0,1-.553-.238.778.778,0,0,1-.231-.56.754.754,0,0,1,.231-.553.754.754,0,0,1,.553-.231h1.008q.112,0,.112-.126V-10.6a.744.744,0,0,1,.238-.553.778.778,0,0,1,.56-.231h.21a.778.778,0,0,1,.56.231.744.744,0,0,1,.238.553v1.05q0,.126.112.126H82.4a.754.754,0,0,1,.553.231.754.754,0,0,1,.231.553.778.778,0,0,1-.231.56.744.744,0,0,1-.553.238h-.21a.067.067,0,0,0-.063.042.055.055,0,0,0,.007.07q.938,1.61,1.47,2.576a.884.884,0,0,1,.1.623.964.964,0,0,1-.315.553.583.583,0,0,1-.5.126.548.548,0,0,1-.406-.322l-.672-1.3a.04.04,0,0,0-.028-.014q-.014,0-.014.028V.518a.744.744,0,0,1-.238.553.778.778,0,0,1-.56.231ZM97.174-8.582A4.4,4.4,0,0,0,94.6-7.091,4.254,4.254,0,0,0,93.66-4.3a4,4,0,0,0,.434,1.89q.434.826.826.826a.621.621,0,0,0,.406-.189,2.532,2.532,0,0,0,.469-.686A8.358,8.358,0,0,0,96.3-3.7a19.431,19.431,0,0,0,.5-1.988q.259-1.239.469-2.793a.071.071,0,0,0-.021-.077A.071.071,0,0,0,97.174-8.582ZM94.92.182a2.641,2.641,0,0,1-2.086-1.3A5.237,5.237,0,0,1,91.882-4.3a5.7,5.7,0,0,1,1.848-4.41A6.868,6.868,0,0,1,98.56-10.4a5.519,5.519,0,0,1,3.983,1.512,5.106,5.106,0,0,1,1.575,3.85A6.076,6.076,0,0,1,103.1-1.421,4.489,4.489,0,0,1,100.324.392a.742.742,0,0,1-.609-.126.844.844,0,0,1-.343-.532l-.028-.126a.7.7,0,0,1,.112-.574.913.913,0,0,1,.49-.364q2.394-.742,2.394-3.71a3.58,3.58,0,0,0-.847-2.415,3.582,3.582,0,0,0-2.219-1.211.114.114,0,0,0-.154.1q-.28,2.114-.63,3.675a16.868,16.868,0,0,1-.735,2.52,5.893,5.893,0,0,1-.861,1.54,2.834,2.834,0,0,1-.938.8A2.407,2.407,0,0,1,94.92.182ZM51.254,10.7a.72.72,0,0,1-.056-.588.768.768,0,0,1,.392-.462H51.6A.786.786,0,0,1,52.22,9.6a.769.769,0,0,1,.476.392q.154.28.462.868a.751.751,0,0,1,.028.6.769.769,0,0,1-.406.448.787.787,0,0,1-.616.028.823.823,0,0,1-.462-.406Q51.632,11.4,51.254,10.7Zm2.59-1.54A.808.808,0,0,1,54.46,9.1a.744.744,0,0,1,.476.385l.476.91a.765.765,0,0,1-.35,1.05l-.042.028a.824.824,0,0,1-1.078-.364q-.07-.14-.224-.434t-.238-.434a.769.769,0,0,1-.063-.6.7.7,0,0,1,.385-.462ZM43.918,12.9a.789.789,0,0,1-.784-.784.778.778,0,0,1,.231-.56.744.744,0,0,1,.553-.238h1.554a.137.137,0,0,0,.14-.126q.21-.924.378-1.918a.887.887,0,0,1,.329-.525.821.821,0,0,1,.6-.175l.1.014a.7.7,0,0,1,.518.287.72.72,0,0,1,.14.581q-.182,1.064-.308,1.75-.028.112.1.112h1.918a4.164,4.164,0,0,1,.784.084,5.529,5.529,0,0,1,.6.14.92.92,0,0,1,.378.322,1.185,1.185,0,0,1,.252.476q.042.21.112.749a7.713,7.713,0,0,1,.07.987v1.344a9.124,9.124,0,0,1-.651,3.962,1.972,1.972,0,0,1-1.771,1.274,8.11,8.11,0,0,1-2.212-.406.744.744,0,0,1-.469-.392.837.837,0,0,1-.049-.63l.028-.084a.746.746,0,0,1,.385-.455.786.786,0,0,1,.609-.049,5.306,5.306,0,0,0,1.33.28.375.375,0,0,0,.266-.126,1.378,1.378,0,0,0,.252-.413,3.736,3.736,0,0,0,.217-.714,9.031,9.031,0,0,0,.147-1.078q.056-.651.056-1.449v-.959a3.561,3.561,0,0,0-.056-.609,1.908,1.908,0,0,0-.1-.406.491.491,0,0,0-.224-.175.748.748,0,0,0-.329-.091h-1.9a.132.132,0,0,0-.14.112,52.82,52.82,0,0,1-2.2,7.014.808.808,0,0,1-1.036.476l-.1-.028a.672.672,0,0,1-.434-.4.809.809,0,0,1-.014-.609,56.7,56.7,0,0,0,2-6.454q.028-.112-.084-.112Zm10.234.266q.812,2.086,1.316,3.71a.7.7,0,0,1-.063.588.75.75,0,0,1-.469.364l-.168.042a.792.792,0,0,1-.609-.077.856.856,0,0,1-.4-.483q-.588-1.834-1.26-3.542a.809.809,0,0,1,.014-.609.672.672,0,0,1,.434-.4l.168-.056a.81.81,0,0,1,1.036.462Zm6.188-2.9a.663.663,0,0,1-.469-.322.642.642,0,0,1-.063-.56l.014-.042a.974.974,0,0,1,.406-.511.866.866,0,0,1,.63-.133,22.812,22.812,0,0,1,3.752.98.773.773,0,0,1,.448.4.7.7,0,0,1,.014.6l-.056.126a.817.817,0,0,1-1.036.462A24.5,24.5,0,0,0,60.34,10.27Zm-3.248,8.19a.725.725,0,0,1-.462-.364.762.762,0,0,1-.07-.588,28.488,28.488,0,0,0,.784-3.906.8.8,0,0,1,.3-.532.737.737,0,0,1,.581-.168h.084a.806.806,0,0,1,.546.3.737.737,0,0,1,.168.581,25.671,25.671,0,0,1-.8,4.158.769.769,0,0,1-.392.476.863.863,0,0,1-.63.07Zm10-.882q-.056.952-.14,1.533a7.55,7.55,0,0,1-.2.973,1.1,1.1,0,0,1-.35.581,1.475,1.475,0,0,1-.5.266,3.934,3.934,0,0,1-.735.119q-.84.07-1.666.07-.952,0-1.666-.042A3.092,3.092,0,0,1,60.5,20.8a1.213,1.213,0,0,1-.455-.91q-.028-.1-.112-.056-.826.476-1.722.924a.849.849,0,0,1-.623.042.958.958,0,0,1-.511-.378l-.126-.168a.69.69,0,0,1,.294-.994,20.849,20.849,0,0,0,2.66-1.442.2.2,0,0,0,.1-.168v-5.04a.813.813,0,0,1,.8-.8h.322a.813.813,0,0,1,.8.8v3.6a.059.059,0,0,0,.035.049q.035.021.049-.007a17.223,17.223,0,0,0,4.368-6.272.766.766,0,0,1,.427-.434.809.809,0,0,1,.609-.014l.154.056A.743.743,0,0,1,68,9.99a.732.732,0,0,1,.007.6,20.359,20.359,0,0,1-2.52,4.452A17.223,17.223,0,0,1,62.02,18.46a.227.227,0,0,0-.1.2V18.7a1.461,1.461,0,0,0,.084.644q.084.126.448.154.42.042.952.042.448,0,.952-.042a.707.707,0,0,0,.8-.721A10.253,10.253,0,0,0,65.31,17.3a.739.739,0,0,1,.273-.525.648.648,0,0,1,.553-.147l.2.028a.878.878,0,0,1,.553.322A.867.867,0,0,1,67.088,17.578Zm.644-4.522a.773.773,0,0,1,.6.077.75.75,0,0,1,.364.469,48.114,48.114,0,0,1,1.036,4.956.76.76,0,0,1-.14.595.838.838,0,0,1-.518.343l-.154.042a.761.761,0,0,1-.574-.119.716.716,0,0,1-.322-.5,44.613,44.613,0,0,0-1.008-4.844.811.811,0,0,1,.07-.609.721.721,0,0,1,.462-.371Zm6.678,2.506.161-.2.161-.2q.056-.084-.042-.084H72.24a.813.813,0,0,1-.8-.8V11.908a.813.813,0,0,1,.8-.8h2.044a.111.111,0,0,0,.126-.126v-.378q0-.112-.126-.112H71.6a.739.739,0,0,1-.532-.217.76.76,0,0,1,0-1.078.739.739,0,0,1,.532-.217H82.4a.739.739,0,0,1,.532.217.76.76,0,0,1,0,1.078.739.739,0,0,1-.532.217H79.716q-.126,0-.126.112v.378a.111.111,0,0,0,.126.126H81.76a.813.813,0,0,1,.8.8v2.366a.813.813,0,0,1-.8.8H77.028a.188.188,0,0,0-.168.084q-.112.182-.266.406-.07.1.042.1h5.852a.714.714,0,0,1,0,1.428H81.214a.233.233,0,0,0-.182.112,6.159,6.159,0,0,1-1.3,1.47q-.028.014-.021.056a.067.067,0,0,0,.049.056q1.288.42,2.436.854a.63.63,0,0,1,.378.4.563.563,0,0,1-.084.539l-.056.1a.957.957,0,0,1-.539.378.917.917,0,0,1-.651-.042q-1.666-.714-3.164-1.218a.273.273,0,0,0-.224.014,19.37,19.37,0,0,1-5.628,1.316.912.912,0,0,1-.616-.168.957.957,0,0,1-.378-.518.629.629,0,0,1,.084-.546.573.573,0,0,1,.476-.266,22.786,22.786,0,0,0,3.64-.56q.056-.028.014-.056-.336-.084-1.666-.378a.253.253,0,0,0-.182.042,1.045,1.045,0,0,1-1.218.084l-.154-.084a.5.5,0,0,1-.273-.42.516.516,0,0,1,.2-.462q.462-.392.714-.616.028-.056-.042-.084H71.512a.714.714,0,0,1,0-1.428H74.2A.241.241,0,0,0,74.41,15.562Zm.028-1.932V12.5q0-.112-.126-.112h-1.12a.1.1,0,0,0-.112.112V13.63a.1.1,0,0,0,.112.112h1.12Q74.438,13.742,74.438,13.63ZM79.562,12.5V13.63q0,.112.126.112h1.12a.1.1,0,0,0,.112-.112V12.5a.1.1,0,0,0-.112-.112h-1.12Q79.562,12.384,79.562,12.5Zm-3.332-1.89v.378a.111.111,0,0,0,.126.126h1.288a.111.111,0,0,0,.126-.126v-.378q0-.112-.126-.112H76.356Q76.23,10.494,76.23,10.606ZM76.2,12.5V13.63q0,.112.126.112h1.344q.126,0,.126-.112V12.5q0-.112-.126-.112H76.328Q76.2,12.384,76.2,12.5Zm-1.218,4.97a.054.054,0,0,0-.014.063.089.089,0,0,0,.042.049q1.246.238,2.6.588a.291.291,0,0,0,.224-.028,5.09,5.09,0,0,0,1.232-.966.039.039,0,0,0,.007-.056.061.061,0,0,0-.049-.028H75.474a.294.294,0,0,0-.21.1Zm18.7-4.032a.786.786,0,0,1,.616-.056.769.769,0,0,1,.476.392q.154.28.462.868a.751.751,0,0,1,.028.6.769.769,0,0,1-.406.448.787.787,0,0,1-.616.028.823.823,0,0,1-.462-.406q-.07-.126-.448-.826a.72.72,0,0,1-.056-.588.768.768,0,0,1,.392-.462Zm3.332-.168.476.91a.765.765,0,0,1-.35,1.05l-.042.028a.824.824,0,0,1-1.078-.364q-.07-.14-.224-.434t-.238-.434a.769.769,0,0,1-.063-.6.7.7,0,0,1,.385-.462l.042-.014a.808.808,0,0,1,.616-.063A.744.744,0,0,1,97.02,13.266ZM85.75,11.74a.789.789,0,0,1-.784-.784v-.1a.813.813,0,0,1,.8-.8q4.788-.014,9.9-.238a.785.785,0,0,1,.574.21.75.75,0,0,1,.266.546v.1a.794.794,0,0,1-.2.581.855.855,0,0,1-.553.287A9.046,9.046,0,0,0,91.273,13.1a3.54,3.54,0,0,0-1.491,2.87,2.949,2.949,0,0,0,.945,2.324,3.643,3.643,0,0,0,2.513.84,7.446,7.446,0,0,0,.924-.056.815.815,0,0,1,.581.168.747.747,0,0,1,.3.518l.014.126a.808.808,0,0,1-.154.595.732.732,0,0,1-.518.315,12.081,12.081,0,0,1-1.246.07,5.721,5.721,0,0,1-3.906-1.274A4.343,4.343,0,0,1,87.78,16.15a4.444,4.444,0,0,1,.791-2.541,6.151,6.151,0,0,1,2.261-1.953q.014,0,.014-.028h-.014Q88.662,11.712,85.75,11.74Zm19.6,4.123a1.236,1.236,0,0,0,0-1.806,1.6,1.6,0,0,0-2.016,0,1.236,1.236,0,0,0,0,1.806,1.6,1.6,0,0,0,2.016,0ZM99.68,11.6a.741.741,0,0,1-.742-.742.739.739,0,0,1,.217-.532.7.7,0,0,1,.525-.224h5.754q.126,0,.126-.112V9.36a.813.813,0,0,1,.8-.8h.182a.813.813,0,0,1,.8.8v.616q0,.126.112.126h2.87a.7.7,0,0,1,.525.224.739.739,0,0,1,.217.532.741.741,0,0,1-.742.742h-2.87q-.112,0-.112.126V14.26a.6.6,0,0,0,.042.238,4.886,4.886,0,0,1,.322,1.764,4.248,4.248,0,0,1-1.036,3.066,5.959,5.959,0,0,1-3.43,1.456.734.734,0,0,1-.6-.154.9.9,0,0,1-.343-.532v-.056a.71.71,0,0,1,.133-.567.773.773,0,0,1,.511-.315,5.412,5.412,0,0,0,2.156-.679,2.008,2.008,0,0,0,.812-1.267.062.062,0,0,1,.007-.028.062.062,0,0,0,.007-.028v-.014h-.042a2.813,2.813,0,0,1-1.82.574,2.869,2.869,0,0,1-2.079-.777,2.634,2.634,0,0,1-.805-1.981A2.606,2.606,0,0,1,102,12.972a2.971,2.971,0,0,1,2.121-.77,3.144,3.144,0,0,1,1.4.322q.014,0,.014.007s0,.007.014.007a.012.012,0,0,0,.014-.014v-.8a.111.111,0,0,0-.126-.126ZM113.5,14.96a1.185,1.185,0,0,1,.35-.861,1.15,1.15,0,0,1,.854-.357,1.218,1.218,0,0,1,0,2.436,1.15,1.15,0,0,1-.854-.357A1.185,1.185,0,0,1,113.5,14.96Zm4.284,4.3a1.218,1.218,0,0,1,2.436,0,1.15,1.15,0,0,1-.357.854,1.234,1.234,0,0,1-1.722,0A1.15,1.15,0,0,1,117.782,19.258Zm4.3-4.3a1.219,1.219,0,0,1,1.218-1.218,1.15,1.15,0,0,1,.854.357,1.234,1.234,0,0,1,0,1.722,1.15,1.15,0,0,1-.854.357,1.219,1.219,0,0,1-1.218-1.218Zm-4.3-4.3a1.15,1.15,0,0,1,.357-.854,1.234,1.234,0,0,1,1.722,0,1.15,1.15,0,0,1,.357.854,1.218,1.218,0,0,1-2.436,0Zm-3.836,8.414,4.116-4.1a.1.1,0,0,0,0-.168l-4.116-4.1a.614.614,0,1,1,.868-.868l4.1,4.116a.1.1,0,0,0,.168,0l4.1-4.116a.614.614,0,1,1,.868.868l-4.116,4.1a.1.1,0,0,0,0,.168l4.116,4.1a.614.614,0,1,1-.868.868l-4.1-4.116a.1.1,0,0,0-.168,0l-4.1,4.116a.614.614,0,1,1-.868-.868Z" transform="translate(173 58.375)" fill="#454d4c"/></g></svg>