<svg xmlns="http://www.w3.org/2000/svg" width="345" height="71" viewBox="0 0 345 71"><g transform="translate(-15 -402)"><rect width="345" height="61" rx="30.5" transform="translate(15 402)" fill="#fff"/><rect width="168" height="23" transform="translate(172 411)" fill="#ffd800"/><path d="M1.065-5.745l-.2-.2a.81.81,0,0,1-.233-.592A.841.841,0,0,1,.9-7.125,17.789,17.789,0,0,0,4.065-11.28a1.013,1.013,0,0,1,.517-.45.945.945,0,0,1,.683-.015l.2.075a.746.746,0,0,1,.457.428.7.7,0,0,1-.023.607,19.14,19.14,0,0,1-1.89,2.97q-.075.12.045.12h6.9A.065.065,0,0,0,11-7.575a.054.054,0,0,0,.007-.06,19.857,19.857,0,0,1-1.9-3,.7.7,0,0,1-.023-.607.746.746,0,0,1,.458-.428l.195-.075a.945.945,0,0,1,.682.015,1.013,1.013,0,0,1,.517.45A17.788,17.788,0,0,0,14.1-7.125a.841.841,0,0,1,.262.593.81.81,0,0,1-.233.592l-.195.2a.815.815,0,0,1-.6.263.813.813,0,0,1-.615-.248l-.405-.4q-.015-.03-.052-.015t-.038.045v.555q0,1.62-.037,2.678a14.2,14.2,0,0,1-.172,1.853A6.013,6.013,0,0,1,11.708.2a1.5,1.5,0,0,1-.517.668,1.766,1.766,0,0,1-.712.315,5.789,5.789,0,0,1-1,.068q-.645,0-1.665-.06A.843.843,0,0,1,7.207.9.966.966,0,0,1,6.945.27V.225a.731.731,0,0,1,.24-.578.735.735,0,0,1,.6-.218q1.23.06,1.41.06a.7.7,0,0,0,.592-.262,2.791,2.791,0,0,0,.323-1.17,22.445,22.445,0,0,0,.12-2.708V-5.73q0-.12-.135-.12H6.9q-.135,0-.135.12A10.637,10.637,0,0,1,5.693-1.65,7.658,7.658,0,0,1,3.15,1.065a.9.9,0,0,1-.66.135.972.972,0,0,1-.6-.345L1.71.645A.667.667,0,0,1,1.567.06.76.76,0,0,1,1.92-.45a5.973,5.973,0,0,0,2.018-2.1,8.25,8.25,0,0,0,.877-3.18.106.106,0,0,0-.12-.12H2.445a.013.013,0,0,1-.015-.015l-.015.015a.17.17,0,0,1-.06.06.492.492,0,0,0-.075.06.813.813,0,0,1-.615.248A.815.815,0,0,1,1.065-5.745ZM24.6-1.905a.833.833,0,0,1-.6-.247.8.8,0,0,1-.255-.593v-7.8a.821.821,0,0,1,.255-.6.821.821,0,0,1,.6-.255h.12a.821.821,0,0,1,.6.255.821.821,0,0,1,.255.6v7.8a.8.8,0,0,1-.255.593.833.833,0,0,1-.6.247ZM28.155-12a.8.8,0,0,1,.593.255.833.833,0,0,1,.247.6v9.99A10.546,10.546,0,0,1,28.95-.03a3.729,3.729,0,0,1-.142.7.637.637,0,0,1-.36.42,2.5,2.5,0,0,1-.6.165,6.592,6.592,0,0,1-.952.053q-.33,0-1.23-.045a.867.867,0,0,1-.608-.27A.973.973,0,0,1,24.78.375V.33a.751.751,0,0,1,.225-.578A.736.736,0,0,1,25.59-.48l.885.03q.42,0,.51-.1a1.154,1.154,0,0,0,.09-.608v-9.99a.821.821,0,0,1,.255-.6.821.821,0,0,1,.6-.255ZM16,.81,15.87.63a.965.965,0,0,1-.225-.638,1.206,1.206,0,0,1,.21-.683A11.033,11.033,0,0,0,17.31-6.54q0-.105-.12-.105h-.36a.821.821,0,0,1-.6-.255.821.821,0,0,1-.255-.6v-3.45a.821.821,0,0,1,.255-.6.821.821,0,0,1,.6-.255h5a.821.821,0,0,1,.6.255.821.821,0,0,1,.255.6V-7.5a.821.821,0,0,1-.255.6.821.821,0,0,1-.6.255h-2.55q-.135,0-.135.12,0,.3-.03.84,0,.135.12.135h2.6a.814.814,0,0,1,.608.255.851.851,0,0,1,.247.615q-.015,1.725-.067,2.783t-.15,1.74a2.2,2.2,0,0,1-.323.983,1.077,1.077,0,0,1-.472.39,2.123,2.123,0,0,1-.7.09q-.555,0-1.455-.045a.867.867,0,0,1-.607-.27A.973.973,0,0,1,18.63.375V.33a.763.763,0,0,1,.217-.578.714.714,0,0,1,.577-.233q.66.03.825.03a.337.337,0,0,0,.315-.2,3.148,3.148,0,0,0,.172-.93q.068-.728.068-2.2,0-.12-.135-.12h-1.6a.142.142,0,0,0-.15.12A9.673,9.673,0,0,1,17.085.855a.628.628,0,0,1-.54.24A.7.7,0,0,1,16,.81ZM17.85-10.1V-8.25q0,.12.135.12h2.79a.106.106,0,0,0,.12-.12V-10.1q0-.135-.12-.135h-2.79A.119.119,0,0,0,17.85-10.1Zm19.2,6a.821.821,0,0,1-.6-.255.821.821,0,0,1-.255-.6v-.9a.821.821,0,0,1,.255-.6.821.821,0,0,1,.6-.255h.9a.821.821,0,0,1,.6.255.821.821,0,0,1,.255.6v.9a.821.821,0,0,1-.255.6.821.821,0,0,1-.6.255ZM48.465-5.85a.8.8,0,0,1-.592-.255.833.833,0,0,1-.248-.6V-7.95a.074.074,0,0,0-.037-.067.05.05,0,0,0-.068.007q-.06.045-.555.345a.677.677,0,0,1-.608.068.746.746,0,0,1-.442-.428L45.84-8.19a.946.946,0,0,1-.015-.682,1.01,1.01,0,0,1,.435-.533,9.9,9.9,0,0,0,2.43-2.115,1.175,1.175,0,0,1,.593-.4,1.109,1.109,0,0,1,.7.015l.195.06a.674.674,0,0,1,.42.427.6.6,0,0,1-.09.577q-.255.345-.51.645-.075.075.045.075l2.115-.165q.105,0,.075-.135-.075-.225-.195-.675a.7.7,0,0,1,.112-.615.719.719,0,0,1,.548-.315l.3-.03a.95.95,0,0,1,.652.18,1.119,1.119,0,0,1,.413.555q.15.435.285.735a.189.189,0,0,0,.195.1l1.5-.12a.05.05,0,0,0,.045-.023q.015-.023-.015-.052a1.352,1.352,0,0,1-.165-.105l-.15-.1a.557.557,0,0,1-.255-.45.484.484,0,0,1,.225-.45,1.061,1.061,0,0,1,1.305-.06q.765.51,1.44,1a.245.245,0,0,0,.135.03.49.49,0,0,1,.367.12.469.469,0,0,1,.173.33l.03.315a.776.776,0,0,1-.18.585.763.763,0,0,1-.54.285l-2.985.255q-.12,0-.045.12,1.095,1.38,1.95,1.38.21,0,.45-.45a.806.806,0,0,1,.458-.412.777.777,0,0,1,.607.023.9.9,0,0,1,.458.5.821.821,0,0,1-.022.66Q58.62-5.7,57.54-5.7a4.279,4.279,0,0,1-2.347-.78A7.069,7.069,0,0,1,53.13-8.61a.217.217,0,0,0-.195-.09l-2.085.18a.847.847,0,0,1-.637-.2A.881.881,0,0,1,49.89-9.3l-.075-.555q0-.03-.037-.045a.058.058,0,0,0-.068.015.043.043,0,0,1-.015.03l-.03.03a.305.305,0,0,0-.09.225v2.895a.821.821,0,0,1-.255.6.821.821,0,0,1-.6.255Zm-1.62,4.62a.863.863,0,0,1-.66-.053.851.851,0,0,1-.435-.5.7.7,0,0,1,.037-.607.661.661,0,0,1,.488-.353,16.69,16.69,0,0,0,3.51-1.125.051.051,0,0,0,.015-.037q0-.022-.03-.023H46.65a.768.768,0,0,1-.555-.217A.73.73,0,0,1,45.87-4.7.754.754,0,0,1,46.1-5.25a.754.754,0,0,1,.555-.225h4.965q.135,0,.135-.12v-.51A.808.808,0,0,1,52-6.7a.808.808,0,0,1,.592-.247h.36a.808.808,0,0,1,.592.247.808.808,0,0,1,.248.593v.51q0,.12.135.12H58.59a.754.754,0,0,1,.555.225.754.754,0,0,1,.225.555.73.73,0,0,1-.225.548.768.768,0,0,1-.555.217h-.93a.027.027,0,0,0-.03.03.061.061,0,0,0,.015.045l.57.315a.585.585,0,0,1,.322.48.588.588,0,0,1-.2.54A14.276,14.276,0,0,1,56.97-1.41q-.03.015-.03.075a.069.069,0,0,0,.045.075,12.051,12.051,0,0,0,1.995.87.676.676,0,0,1,.42.4.653.653,0,0,1-.03.578L59.325.66a1.108,1.108,0,0,1-.533.473.958.958,0,0,1-.7.023A10.584,10.584,0,0,1,54.45-.96q-.075-.075-.075.045l.045.345a.867.867,0,0,1-.165.645.908.908,0,0,1-.555.36q-2.925.54-6.12.84a.817.817,0,0,1-.593-.173A.8.8,0,0,1,46.853-.03a.738.738,0,0,1,.533-.285q1.02-.09,1.47-.15.12,0,.12-.135V-1.815a.092.092,0,0,0-.037-.075.083.083,0,0,0-.083-.015Q47.97-1.56,46.845-1.23Zm7.56-2.7a.074.074,0,0,0-.067.037.067.067,0,0,0-.007.068A6.782,6.782,0,0,0,55.38-2.46a.136.136,0,0,0,.195.015,11.634,11.634,0,0,0,1.635-1.38q.03-.015.015-.06T57.18-3.93Zm-3.48,1.155V-.84q0,.135.12.105,1.275-.18,2.985-.48.12-.03.03-.12A8.317,8.317,0,0,1,52.35-3.78q-.06-.12-.15-.03a10.379,10.379,0,0,1-1.17.825A.221.221,0,0,0,50.925-2.775ZM66.78-9.27a.8.8,0,0,1-.577-.24.784.784,0,0,1-.247-.585.784.784,0,0,1,.247-.585.8.8,0,0,1,.577-.24h2.265a.119.119,0,0,0,.135-.135v-.45a.808.808,0,0,1,.247-.592.808.808,0,0,1,.593-.248h.3a.833.833,0,0,1,.6.248.8.8,0,0,1,.255.592v.45a.119.119,0,0,0,.135.135h2.415a.8.8,0,0,1,.585.24.8.8,0,0,1,.24.585.8.8,0,0,1-.24.585.8.8,0,0,1-.585.24H71.31q-.135,0-.135.12v1.425q0,.12.135.12h2.115a.754.754,0,0,1,.555.225.754.754,0,0,1,.225.555.754.754,0,0,1-.225.555.754.754,0,0,1-.555.225H67.08a.754.754,0,0,1-.555-.225.754.754,0,0,1-.225-.555.754.754,0,0,1,.225-.555.754.754,0,0,1,.555-.225h1.965q.135,0,.135-.12V-9.15q0-.12-.135-.12ZM67.785,1.305H67.35a.821.821,0,0,1-.6-.255A.821.821,0,0,1,66.5.45v-4.5a.821.821,0,0,1,.255-.6.821.821,0,0,1,.6-.255h5.805a.8.8,0,0,1,.592.255.833.833,0,0,1,.248.6V.45a.833.833,0,0,1-.248.6.8.8,0,0,1-.592.255h-.54a.581.581,0,0,1-.435-.187A.6.6,0,0,1,72,.69.08.08,0,0,0,71.91.6H68.49a.08.08,0,0,0-.09.09.6.6,0,0,1-.18.428A.581.581,0,0,1,67.785,1.305ZM68.4-3.15v2.07a.119.119,0,0,0,.135.135H71.88q.12,0,.12-.135V-3.15a.106.106,0,0,0-.12-.12H68.535Q68.4-3.27,68.4-3.15Zm-6.645-7.11a.712.712,0,0,1-.533-.225.749.749,0,0,1-.217-.54.724.724,0,0,1,.217-.533.724.724,0,0,1,.533-.217H64.74a.749.749,0,0,1,.54.217.712.712,0,0,1,.225.533.736.736,0,0,1-.225.54.736.736,0,0,1-.54.225ZM61.41-8.01a.779.779,0,0,1-.57-.24.779.779,0,0,1-.24-.57.779.779,0,0,1,.24-.57.779.779,0,0,1,.57-.24h3.78a.779.779,0,0,1,.57.24.779.779,0,0,1,.24.57.779.779,0,0,1-.24.57.779.779,0,0,1-.57.24Zm.45,2.13a.707.707,0,0,1-.518-.218.707.707,0,0,1-.217-.517.707.707,0,0,1,.217-.517.707.707,0,0,1,.518-.218h2.88a.707.707,0,0,1,.518.218.707.707,0,0,1,.217.517.707.707,0,0,1-.217.517.707.707,0,0,1-.518.218Zm0,2.115a.707.707,0,0,1-.518-.217.707.707,0,0,1-.217-.517.682.682,0,0,1,.217-.51.719.719,0,0,1,.518-.21h2.88a.719.719,0,0,1,.518.21.682.682,0,0,1,.217.51.707.707,0,0,1-.217.517.707.707,0,0,1-.518.217ZM61.005.645v-2.9a.833.833,0,0,1,.247-.6.8.8,0,0,1,.593-.255h2.85a.821.821,0,0,1,.6.255.821.821,0,0,1,.255.6V.075a.821.821,0,0,1-.255.6.821.821,0,0,1-.6.255h-1.95q-.075,0-.075.06a.462.462,0,0,1-.48.48h-.36a.8.8,0,0,1-.585-.24A.8.8,0,0,1,61.005.645ZM62.67-1.53v.885a.119.119,0,0,0,.135.135H63.93q.12,0,.12-.135V-1.53q0-.135-.12-.135H62.805A.119.119,0,0,0,62.67-1.53Zm16.2-5.1a4.153,4.153,0,0,0-1.125,2.925,2.969,2.969,0,0,0,.337,1.553.966.966,0,0,0,.818.547,2.155,2.155,0,0,0,1.41-.84.179.179,0,0,0,.015-.21.338.338,0,0,1-.06-.12q-.72-2.01-1.275-3.81Q78.96-6.72,78.87-6.63ZM82.8-8.145a6.261,6.261,0,0,0-2.13.345.138.138,0,0,0-.09.18Q81-6.18,81.6-4.38q.03.09.105-.015A21.636,21.636,0,0,0,83.34-8a.114.114,0,0,0-.007-.09.072.072,0,0,0-.068-.045Q83.115-8.145,82.8-8.145Zm-4.1,8.4A2.384,2.384,0,0,1,76.732-.788a4.751,4.751,0,0,1-.787-2.918,6.221,6.221,0,0,1,.615-2.753A6.021,6.021,0,0,1,78.285-8.6a.182.182,0,0,0,.09-.18q-.3-1.11-.435-1.68a.838.838,0,0,1,.112-.645.756.756,0,0,1,.533-.36l.135-.03a.912.912,0,0,1,.645.12.781.781,0,0,1,.375.525q.045.21.15.608t.135.547q.03.105.15.075A7.732,7.732,0,0,1,82.8-10.05a8.4,8.4,0,0,1,1.065.06.122.122,0,0,0,.165-.105q.12-.4.36-1.275a.884.884,0,0,1,.4-.54.842.842,0,0,1,.653-.12l.12.03a.813.813,0,0,1,.533.367.744.744,0,0,1,.1.623q-.21.87-.375,1.395a.126.126,0,0,0,.075.165,5.252,5.252,0,0,1,2.325,1.89,5,5,0,0,1,.84,2.865,5.7,5.7,0,0,1-1.035,3.54A5.135,5.135,0,0,1,85.035.69a.8.8,0,0,1-.653-.105.888.888,0,0,1-.4-.555l-.03-.105a.716.716,0,0,1,.1-.608.867.867,0,0,1,.518-.382A3.374,3.374,0,0,0,87.15-4.7a3.141,3.141,0,0,0-.488-1.725,3.32,3.32,0,0,0-1.372-1.2q-.09-.045-.15.075A18.3,18.3,0,0,1,82.027-1.7,4.684,4.684,0,0,1,78.705.255Zm20.88-2.8v-.06a.175.175,0,0,0-.12-.18,3.392,3.392,0,0,0-1.485-.39,2.024,2.024,0,0,0-1.238.315A1.034,1.034,0,0,0,96.33-2a1.084,1.084,0,0,0,.435.915,1.972,1.972,0,0,0,1.215.33,1.678,1.678,0,0,0,1.26-.375A2.158,2.158,0,0,0,99.585-2.55Zm3.855-7.41a.777.777,0,0,1,.577.315A.851.851,0,0,1,104.19-9a.792.792,0,0,1-.33.555.842.842,0,0,1-.63.165,15.468,15.468,0,0,0-1.62-.12q-.12,0-.12.135V-3.72a.242.242,0,0,0,.09.2,16.846,16.846,0,0,1,2.16,1.62.77.77,0,0,1,.285.585.813.813,0,0,1-.225.615l-.045.045a.884.884,0,0,1-.585.285.816.816,0,0,1-.615-.2q-.225-.195-.615-.5t-.45-.353q-.09-.06-.12.03A2.551,2.551,0,0,1,100.3.308,4.192,4.192,0,0,1,97.98.855a4.006,4.006,0,0,1-2.6-.765A2.547,2.547,0,0,1,94.44-2a2.511,2.511,0,0,1,.923-2.048A4.022,4.022,0,0,1,97.98-4.8a5.233,5.233,0,0,1,1.5.255q.1.03.1-.09V-9.3a.833.833,0,0,1,.248-.6.748.748,0,0,1,.592-.24Q102.345-10.08,103.44-9.96ZM91.575-1.245a.721.721,0,0,1-.465-.42A.847.847,0,0,1,91.1-2.31q1.14-2.895,2.07-6.015.03-.12-.09-.12h-1.11a.8.8,0,0,1-.592-.255.833.833,0,0,1-.247-.6.833.833,0,0,1,.247-.6.8.8,0,0,1,.592-.255h1.59a.151.151,0,0,0,.165-.12q.06-.2.15-.585t.15-.585a.922.922,0,0,1,.39-.548.936.936,0,0,1,.66-.158h.105a.72.72,0,0,1,.533.33.767.767,0,0,1,.112.615q-.15.63-.225.93-.03.12.1.12h1.515a.821.821,0,0,1,.6.255.821.821,0,0,1,.255.6.821.821,0,0,1-.255.6.821.821,0,0,1-.6.255h-1.98a.154.154,0,0,0-.165.135,67.218,67.218,0,0,1-2.235,6.585.909.909,0,0,1-.457.487.838.838,0,0,1-.668.038Zm23.055-10.44a.842.842,0,0,1,.66-.06.824.824,0,0,1,.51.42q.165.3.495.93a.8.8,0,0,1,.03.645.824.824,0,0,1-.435.48.843.843,0,0,1-.66.03.882.882,0,0,1-.5-.435q-.075-.135-.48-.885a.771.771,0,0,1-.06-.63.823.823,0,0,1,.42-.495Zm2.4-.525a.866.866,0,0,1,.66-.068.8.8,0,0,1,.51.413l.51.975a.788.788,0,0,1,.052.645.8.8,0,0,1-.427.48l-.045.03a.844.844,0,0,1-.653.037.851.851,0,0,1-.5-.427q-.075-.15-.24-.465t-.255-.465a.824.824,0,0,1-.067-.645.748.748,0,0,1,.412-.495ZM112.4.9q-5.6,0-5.6-3.5,0-1.98,2.535-3.375.12-.06.03-.15a.851.851,0,0,1-.165-.345q-.57-2.415-.855-4.02a.831.831,0,0,1,.143-.637.812.812,0,0,1,.548-.352l.375-.06a.793.793,0,0,1,.63.15.908.908,0,0,1,.36.555q.39,2.115.825,3.84a.145.145,0,0,0,.06.075.1.1,0,0,0,.09.015,38.583,38.583,0,0,1,4.77-1.41.86.86,0,0,1,.652.113.751.751,0,0,1,.368.532l.03.135a.912.912,0,0,1-.12.645.781.781,0,0,1-.525.375,36.7,36.7,0,0,0-4.583,1.335,8.1,8.1,0,0,0-2.393,1.267A1.761,1.761,0,0,0,108.9-2.6a1.356,1.356,0,0,0,.84,1.275A6.267,6.267,0,0,0,112.4-.9a30.052,30.052,0,0,0,4-.27.819.819,0,0,1,.622.165.8.8,0,0,1,.323.555l.015.1a.85.85,0,0,1-.173.638.809.809,0,0,1-.562.338A30.3,30.3,0,0,1,112.4.9Zm14.22-10.1a4.717,4.717,0,0,0-2.76,1.6,4.558,4.558,0,0,0-1.005,2.992,4.289,4.289,0,0,0,.465,2.025q.465.885.885.885a.665.665,0,0,0,.435-.2,2.713,2.713,0,0,0,.5-.735,8.953,8.953,0,0,0,.54-1.335,20.816,20.816,0,0,0,.54-2.13q.278-1.328.5-2.992a.076.076,0,0,0-.022-.083A.076.076,0,0,0,126.615-9.2ZM124.2.2a2.83,2.83,0,0,1-2.235-1.4,5.611,5.611,0,0,1-1.02-3.4,6.112,6.112,0,0,1,1.98-4.725,7.358,7.358,0,0,1,5.175-1.815,5.914,5.914,0,0,1,4.267,1.62A5.471,5.471,0,0,1,134.055-5.4a6.51,6.51,0,0,1-1.087,3.878A4.81,4.81,0,0,1,129.99.42a.8.8,0,0,1-.653-.135.9.9,0,0,1-.367-.57l-.03-.135a.752.752,0,0,1,.12-.615.979.979,0,0,1,.525-.39Q132.15-2.22,132.15-5.4a3.836,3.836,0,0,0-.908-2.588,3.838,3.838,0,0,0-2.377-1.3.122.122,0,0,0-.165.1q-.3,2.265-.675,3.938a18.073,18.073,0,0,1-.787,2.7,6.314,6.314,0,0,1-.923,1.65,3.036,3.036,0,0,1-1.005.855A2.579,2.579,0,0,1,124.2.2ZM136.479-3.06a.767.767,0,0,1-.561-.238.767.767,0,0,1-.238-.561.787.787,0,0,1,.238-.578.767.767,0,0,1,.561-.238h5.661a.12.12,0,0,0,.136-.136V-5.2q0-.153-.136-.153h-5.1a.705.705,0,0,1-.518-.212.705.705,0,0,1-.212-.518.705.705,0,0,1,.212-.519.705.705,0,0,1,.518-.213h5.1q.136,0,.136-.153v-.272q0-.153-.136-.153h-4.284a.9.9,0,0,1-.672-.289.944.944,0,0,1-.28-.68v-1.5a.944.944,0,0,1,.28-.68.9.9,0,0,1,.672-.289h4.284a.12.12,0,0,0,.136-.136v-.289a.12.12,0,0,0-.136-.136h-5.457a.8.8,0,0,1-.587-.247.8.8,0,0,1-.246-.587.8.8,0,0,1,.246-.587.8.8,0,0,1,.587-.246h5.474q.119,0,.119-.136a.841.841,0,0,1,.264-.629.883.883,0,0,1,.637-.255h.663a.855.855,0,0,1,.629.255.855.855,0,0,1,.255.629.12.12,0,0,0,.136.136h5.457a.8.8,0,0,1,.587.246.8.8,0,0,1,.246.587.8.8,0,0,1-.246.587.8.8,0,0,1-.587.247H144.86a.12.12,0,0,0-.136.136v.289a.12.12,0,0,0,.136.136h4.284a.9.9,0,0,1,.672.289.944.944,0,0,1,.281.68v1.5a.944.944,0,0,1-.281.68.9.9,0,0,1-.672.289H144.86q-.136,0-.136.153v.272q0,.153.136.153h4.471a.944.944,0,0,1,.68.28.9.9,0,0,1,.289.671v1.071q0,.119.136.119h.085a.767.767,0,0,1,.561.238.787.787,0,0,1,.238.578.767.767,0,0,1-.238.561.767.767,0,0,1-.561.238h-.085q-.136,0-.136.119v1.836a.9.9,0,0,1-.289.672.944.944,0,0,1-.68.281h-.578a.63.63,0,0,1-.476-.2.653.653,0,0,1-.187-.467.09.09,0,0,0-.1-.1H144.86a.12.12,0,0,0-.136.136q0,.578-.025.918a2.043,2.043,0,0,1-.145.629,1.087,1.087,0,0,1-.281.425,1.338,1.338,0,0,1-.5.23,3.69,3.69,0,0,1-.748.119q-.408.026-1.088.026-.374,0-1.7-.051a.854.854,0,0,1-.6-.28.948.948,0,0,1-.264-.621.733.733,0,0,1,.238-.587.77.77,0,0,1,.6-.229q.663.034,1.462.034a1.473,1.473,0,0,0,.535-.051q.077-.051.077-.374v-.17q0-.153-.136-.153h-5.117a.686.686,0,0,1-.5-.212.686.686,0,0,1-.212-.5.686.686,0,0,1,.212-.5.686.686,0,0,1,.5-.213h5.117q.136,0,.136-.153v-.425a.12.12,0,0,0-.136-.136ZM144.724-9.3v.493a.12.12,0,0,0,.136.136h2.89a.12.12,0,0,0,.136-.136V-9.3a.12.12,0,0,0-.136-.136h-2.89A.12.12,0,0,0,144.724-9.3Zm0,4.1v.391a.12.12,0,0,0,.136.136h3.094a.12.12,0,0,0,.136-.136V-5.2q0-.153-.136-.153H144.86Q144.724-5.355,144.724-5.2Zm0,2.278V-2.5q0,.153.136.153h3.094q.136,0,.136-.153v-.425a.12.12,0,0,0-.136-.136H144.86A.12.12,0,0,0,144.724-2.924ZM142.14-8.67a.12.12,0,0,0,.136-.136V-9.3a.12.12,0,0,0-.136-.136h-2.89a.12.12,0,0,0-.136.136v.493a.12.12,0,0,0,.136.136Zm11.543-1.955a.841.841,0,0,1-.629-.264.883.883,0,0,1-.255-.638.855.855,0,0,1,.255-.629.855.855,0,0,1,.629-.255h2.907a.083.083,0,0,0,.077-.043.076.076,0,0,0,.008-.077q-.17-.34-.255-.493a.67.67,0,0,1-.017-.638.717.717,0,0,1,.493-.4l.238-.051a1.372,1.372,0,0,1,.824.085,1.2,1.2,0,0,1,.6.544q.289.51.493.952a.2.2,0,0,0,.2.119h2.567a.253.253,0,0,0,.221-.136q.1-.17.255-.476l.2-.408a1.243,1.243,0,0,1,.57-.587,1.246,1.246,0,0,1,.79-.127l.289.068a.745.745,0,0,1,.536.391.642.642,0,0,1,.008.646l-.255.51a.076.076,0,0,0,.008.077.083.083,0,0,0,.077.043h2.788a.855.855,0,0,1,.629.255.855.855,0,0,1,.255.629.883.883,0,0,1-.255.638.841.841,0,0,1-.629.264ZM158.052-.408q.374,0,.442-.1a1.887,1.887,0,0,0,.068-.7V-1.87a.135.135,0,0,0-.153-.153h-2.516a.135.135,0,0,0-.153.153V.51a.944.944,0,0,1-.281.68.9.9,0,0,1-.672.289h-.323a.93.93,0,0,1-.68-.289A.93.93,0,0,1,153.5.51v-9.3a.9.9,0,0,1,.289-.672.944.944,0,0,1,.68-.28h5.185a.916.916,0,0,1,.672.28.916.916,0,0,1,.281.672v7.633q0,.714-.008,1.071a2.987,2.987,0,0,1-.1.706,1.289,1.289,0,0,1-.2.468,1,1,0,0,1-.408.229,1.953,1.953,0,0,1-.612.119q-.306.009-.935.008-.357,0-.612-.017a.922.922,0,0,1-.663-.314,1.061,1.061,0,0,1-.289-.689.787.787,0,0,1,.246-.629.775.775,0,0,1,.637-.221Q157.848-.408,158.052-.408ZM155.74-7.8v1a.135.135,0,0,0,.153.153h2.516a.135.135,0,0,0,.153-.153v-1q0-.136-.153-.136h-2.516Q155.74-7.939,155.74-7.8Zm2.669,4.131a.135.135,0,0,0,.153-.153v-1.02A.135.135,0,0,0,158.409-5h-2.516a.135.135,0,0,0-.153.153v1.02a.135.135,0,0,0,.153.153Zm5.44.9a.9.9,0,0,1-.289.671.944.944,0,0,1-.68.281h-.153a.916.916,0,0,1-.672-.281.916.916,0,0,1-.281-.671v-5.78a.944.944,0,0,1,.281-.68.9.9,0,0,1,.672-.289h.153a.931.931,0,0,1,.68.289.93.93,0,0,1,.289.68Zm-.119,4.2a.983.983,0,0,1-.688-.306,1.1,1.1,0,0,1-.314-.7V.374a.839.839,0,0,1,.263-.655.86.86,0,0,1,.672-.264l1.02.034q.476,0,.569-.111a1.412,1.412,0,0,0,.094-.689V-8.891a.944.944,0,0,1,.281-.68.9.9,0,0,1,.671-.289h.289a.931.931,0,0,1,.68.289.931.931,0,0,1,.289.68v7.582q0,.7-.025,1.1a3.437,3.437,0,0,1-.127.748,1.332,1.332,0,0,1-.238.5,1.139,1.139,0,0,1-.442.272,2.264,2.264,0,0,1-.663.144q-.357.026-.969.026Q164.716,1.479,163.73,1.428Zm10.038-13.659a.879.879,0,0,1-.11.705.927.927,0,0,1-.587.417.971.971,0,0,1-.723-.094q-.425-.238-1.292-.7a.827.827,0,0,1-.425-.519.826.826,0,0,1,.085-.672,1.012,1.012,0,0,1,.587-.459.936.936,0,0,1,.74.068q.323.153,1.292.68A.854.854,0,0,1,173.768-12.231Zm-3.425,3.442a.878.878,0,0,1-.442-.544.843.843,0,0,1,.085-.68.976.976,0,0,1,.57-.451.973.973,0,0,1,.723.059q.782.391,1.564.85a.912.912,0,0,1,.434.587.843.843,0,0,1-.128.706.958.958,0,0,1-.6.408.954.954,0,0,1-.722-.119Q171.142-8.381,170.343-8.789Zm1.513,5.474a1.019,1.019,0,0,1-.731.161.989.989,0,0,1-.646-.382.862.862,0,0,1-.178-.689.923.923,0,0,1,.382-.621A20.656,20.656,0,0,0,172.876-6.7a.843.843,0,0,1,.637-.264.847.847,0,0,1,.62.281.993.993,0,0,1,.281.68.928.928,0,0,1-.264.68A16.065,16.065,0,0,1,171.856-3.315Zm7.055-.442a.135.135,0,0,0-.153.153v.544q0,.136.153.136H184.2a.911.911,0,0,1,.655.272.889.889,0,0,1,.28.663.889.889,0,0,1-.28.663.911.911,0,0,1-.655.272h-5.287a.135.135,0,0,0-.153.153V.8a.916.916,0,0,1-.281.672.916.916,0,0,1-.671.281H177.4a.916.916,0,0,1-.671-.281A.916.916,0,0,1,176.446.8V-.9a.135.135,0,0,0-.153-.153h-5.457a.911.911,0,0,1-.654-.272.889.889,0,0,1-.281-.663.889.889,0,0,1,.281-.663.911.911,0,0,1,.654-.272h5.457q.153,0,.153-.136V-3.6a.135.135,0,0,0-.153-.153h-.731a.93.93,0,0,1-.68-.289.93.93,0,0,1-.289-.68V-7.871a.26.26,0,0,0-.119-.221l-.748-.493a.959.959,0,0,1-.408-.6.954.954,0,0,1,.119-.722,20.971,20.971,0,0,0,1.581-3.2,1.228,1.228,0,0,1,.51-.612,1.074,1.074,0,0,1,.765-.153l.221.034a.749.749,0,0,1,.552.366.728.728,0,0,1,.077.655q-.034.119.1.119h2.4a.186.186,0,0,0,.187-.119q.017-.051.06-.145t.059-.144a1.194,1.194,0,0,1,.484-.621,1.2,1.2,0,0,1,.773-.2l.221.017a.712.712,0,0,1,.57.349.759.759,0,0,1,.076.671l-.017.034v.034q-.034.119.1.119h1.9a.868.868,0,0,1,.637.264.889.889,0,0,1,.264.655.889.889,0,0,1-.264.655.868.868,0,0,1-.637.263H181.8q-.153,0-.153.136v.527q0,.136.153.136h2.074a.712.712,0,0,1,.536.221.755.755,0,0,1,.212.544.755.755,0,0,1-.212.544.712.712,0,0,1-.536.221H181.8q-.153,0-.153.136v.51a.135.135,0,0,0,.153.153h2.074a.712.712,0,0,1,.536.221.755.755,0,0,1,.212.544.726.726,0,0,1-.212.536.726.726,0,0,1-.536.212H181.8a.135.135,0,0,0-.153.153v.51a.135.135,0,0,0,.153.153h2.516a.787.787,0,0,1,.578.238.787.787,0,0,1,.238.578A.815.815,0,0,1,184.9-4a.773.773,0,0,1-.578.246Zm-2.108-6.97v.527q0,.136.153.136h2.4q.153,0,.153-.136v-.527q0-.136-.153-.136h-2.4Q176.8-10.863,176.8-10.727Zm0,2.329v.51a.135.135,0,0,0,.153.153h2.4a.135.135,0,0,0,.153-.153V-8.4q0-.136-.153-.136h-2.4Q176.8-8.534,176.8-8.4Zm.153,2.992h2.4a.135.135,0,0,0,.153-.153v-.51a.135.135,0,0,0-.153-.153h-2.4a.135.135,0,0,0-.153.153v.51A.135.135,0,0,0,176.956-5.406Zm11.764,7a.931.931,0,0,1-.68-.289.931.931,0,0,1-.289-.68V-5.083q0-.034-.026-.034a.058.058,0,0,0-.042.017q-.238.357-.289.425a.4.4,0,0,1-.434.161.392.392,0,0,1-.314-.349l-.17-.867a2.41,2.41,0,0,1,.357-1.751,18.339,18.339,0,0,0,2.125-5.457.967.967,0,0,1,.433-.62.993.993,0,0,1,.74-.162l.2.051a.929.929,0,0,1,.62.391.916.916,0,0,1,.161.714,19.506,19.506,0,0,1-1.207,3.774.732.732,0,0,0-.051.289V.629a.931.931,0,0,1-.289.68.931.931,0,0,1-.68.289Zm2.771-12.869a.835.835,0,0,1-.255-.612.835.835,0,0,1,.255-.612.835.835,0,0,1,.612-.255h1.139a.135.135,0,0,0,.153-.153v-.1a.93.93,0,0,1,.289-.68.93.93,0,0,1,.68-.289h.221a.93.93,0,0,1,.68.289.93.93,0,0,1,.289.68v.1q0,.153.136.153h2.38q.136,0,.136-.153v-.1a.93.93,0,0,1,.289-.68.931.931,0,0,1,.68-.289h.289a.9.9,0,0,1,.671.289.944.944,0,0,1,.281.68v.1a.135.135,0,0,0,.153.153h1a.835.835,0,0,1,.612.255.835.835,0,0,1,.255.612.835.835,0,0,1-.255.612.835.835,0,0,1-.612.255h-1.02q-.136,0-.136.119a.787.787,0,0,1-.238.578.767.767,0,0,1-.561.238h-.6a.773.773,0,0,1-.578-.246.8.8,0,0,1-.238-.569.105.105,0,0,0-.119-.119h-2.414a.105.105,0,0,0-.119.119.8.8,0,0,1-.238.569.773.773,0,0,1-.578.246h-.527a.782.782,0,0,1-.57-.246.782.782,0,0,1-.246-.569.105.105,0,0,0-.119-.119H192.1A.835.835,0,0,1,191.491-11.271ZM193-8.126q-.153,0-.153.136v.374q0,.136.153.136h8.177a.93.93,0,0,1,.68.289.93.93,0,0,1,.289.68V-.6q0,.544-.008.833a2.315,2.315,0,0,1-.085.561,1.06,1.06,0,0,1-.17.383.773.773,0,0,1-.332.2,1.617,1.617,0,0,1-.493.094q-.255.008-.748.008-.051,0-.221-.008t-.289-.009a.981.981,0,0,1-.646-.272.887.887,0,0,1-.289-.629.718.718,0,0,1,.212-.595.733.733,0,0,1,.587-.238h.17q.136,0,.17-.059a1.238,1.238,0,0,0,.034-.4v-.476a.135.135,0,0,0-.153-.153h-1.394a.135.135,0,0,0-.153.153V.425a.936.936,0,0,1-.281.689.936.936,0,0,1-.688.28.931.931,0,0,1-.68-.289.931.931,0,0,1-.289-.68V-1.207q0-.153-.136-.153h-1.326q-.136,0-.136.153V.544a.9.9,0,0,1-.289.672.944.944,0,0,1-.68.281h-.068a.944.944,0,0,1-.68-.281A.9.9,0,0,1,192.8.544v-5.8A16.09,16.09,0,0,1,191.61.493a.527.527,0,0,1-.459.365.588.588,0,0,1-.561-.229L190.3.272a1.741,1.741,0,0,1-.306-1.666,15.041,15.041,0,0,0,.561-2.737,35.333,35.333,0,0,0,.153-3.689V-8.84a.944.944,0,0,1,.281-.68.9.9,0,0,1,.671-.289h10.115a.8.8,0,0,1,.587.247.8.8,0,0,1,.247.587.829.829,0,0,1-.247.595.788.788,0,0,1-.587.255ZM198.342-5.8v.663a.135.135,0,0,0,.153.153h1.394a.135.135,0,0,0,.153-.153V-5.8a.135.135,0,0,0-.153-.153h-1.394A.135.135,0,0,0,198.342-5.8Zm0,2.3v.663a.135.135,0,0,0,.153.153h1.394a.135.135,0,0,0,.153-.153V-3.5a.135.135,0,0,0-.153-.153h-1.394A.135.135,0,0,0,198.342-3.5Zm-3.536-2.3v.663q0,.153.136.153h1.326q.136,0,.136-.153V-5.8q0-.153-.136-.153h-1.326Q194.806-5.95,194.806-5.8Zm0,2.3v.663q0,.153.136.153h1.326q.136,0,.136-.153V-3.5q0-.153-.136-.153h-1.326Q194.806-3.655,194.806-3.5Zm16.459.322q-1.56,0-1.56,1.08,0,1.2,1.56,1.2a1.44,1.44,0,0,0,1.065-.338,1.563,1.563,0,0,0,.33-1.117v-.3a.224.224,0,0,0-.12-.2A2.606,2.606,0,0,0,211.265-3.18ZM211.355.8a3.939,3.939,0,0,1-2.58-.758A2.62,2.62,0,0,1,207.86-2.1a2.523,2.523,0,0,1,.908-2.055,3.961,3.961,0,0,1,2.587-.75,4.041,4.041,0,0,1,1.185.165q.12.03.12-.09V-7.665a.119.119,0,0,0-.135-.135H209.21a.821.821,0,0,1-.6-.255.821.821,0,0,1-.255-.6.8.8,0,0,1,.255-.592.833.833,0,0,1,.6-.247h3.315a.119.119,0,0,0,.135-.135v-1.32a.821.821,0,0,1,.255-.6.821.821,0,0,1,.6-.255h.2a.821.821,0,0,1,.6.255.821.821,0,0,1,.255.6v1.32q0,.135.12.135h1.47a.833.833,0,0,1,.6.247.8.8,0,0,1,.255.592.821.821,0,0,1-.255.6.821.821,0,0,1-.6.255h-1.47q-.12,0-.12.135v3.96a.3.3,0,0,0,.1.21,24.688,24.688,0,0,1,1.83,1.7.856.856,0,0,1,.24.607.83.83,0,0,1-.255.608l-.06.06a.847.847,0,0,1-.6.24.821.821,0,0,1-.6-.255q-.24-.255-.675-.69-.09-.09-.12.045Q213.905.8,211.355.8Zm-5.5-.09a.961.961,0,0,1-.668-.157A.853.853,0,0,1,204.8,0a25.208,25.208,0,0,1-.555-5.4,25.208,25.208,0,0,1,.555-5.4.853.853,0,0,1,.382-.548.961.961,0,0,1,.668-.157l.18.015a.74.74,0,0,1,.525.323.731.731,0,0,1,.12.608,23.855,23.855,0,0,0-.525,5.16,23.855,23.855,0,0,0,.525,5.16.731.731,0,0,1-.12.608.74.74,0,0,1-.525.323Zm13.9-6.094a.916.916,0,0,1-.672-.281.916.916,0,0,1-.281-.672v-.34a.944.944,0,0,1,.281-.68.9.9,0,0,1,.672-.289h13.5a.9.9,0,0,1,.672.289.944.944,0,0,1,.281.68v.34a.916.916,0,0,1-.281.672.916.916,0,0,1-.672.281Zm16.694-1.717a.863.863,0,0,1-.689-.161.823.823,0,0,1-.348-.621,1.077,1.077,0,0,1,.2-.74.959.959,0,0,1,.646-.4l.425-.085a.161.161,0,0,0,.136-.17v-3.3a.93.93,0,0,1,.289-.68.93.93,0,0,1,.68-.289h.221a.93.93,0,0,1,.68.289.93.93,0,0,1,.289.68v2.873q0,.153.136.119l2.72-.544a.887.887,0,0,1,.7.161.815.815,0,0,1,.357.621,1.107,1.107,0,0,1-.2.748.95.95,0,0,1-.646.408l-2.924.561a.171.171,0,0,0-.136.187v3.587a1.243,1.243,0,0,0,.094.655,1.191,1.191,0,0,0,.637.093,4.044,4.044,0,0,0,.561-.025q.153-.025.3-.263a1.484,1.484,0,0,0,.178-.646q.034-.408.051-1.292a.858.858,0,0,1,.289-.621.764.764,0,0,1,.646-.2,1.011,1.011,0,0,1,.655.357.97.97,0,0,1,.246.7,13.825,13.825,0,0,1-.272,2.482.076.076,0,0,0,.008.034q.008.017.025,0a10.2,10.2,0,0,0,1.419-3.375A26.384,26.384,0,0,0,244.4-10.9q0-.153-.136-.153h-2.006a.931.931,0,0,1-.68-.289.93.93,0,0,1-.289-.68.9.9,0,0,1,.289-.672.944.944,0,0,1,.68-.281H250.2a.916.916,0,0,1,.672.281.916.916,0,0,1,.28.672v2.108q0,2.6-.051,4.352a29.545,29.545,0,0,1-.221,3.018,15.142,15.142,0,0,1-.366,1.964,2.453,2.453,0,0,1-.6,1.1,1.845,1.845,0,0,1-.816.51,4.5,4.5,0,0,1-1.113.11A16.6,16.6,0,0,1,246.3,1.02a1.019,1.019,0,0,1-.688-.34,1.114,1.114,0,0,1-.3-.731V-.17a.742.742,0,0,1,.264-.621A.838.838,0,0,1,246.237-1a11.383,11.383,0,0,0,1.292.1.9.9,0,0,0,.816-.434,5.96,5.96,0,0,0,.434-2.091q.161-1.657.161-5.024V-10.9q0-.153-.136-.153h-2.159a.12.12,0,0,0-.136.136,23.255,23.255,0,0,1-1.165,7.149,11.482,11.482,0,0,1-3.238,4.6,1.176,1.176,0,0,1-.757.281,1.147,1.147,0,0,1-.757-.247l-.17-.119a.733.733,0,0,1-.3-.6.689.689,0,0,1,.281-.6,14.622,14.622,0,0,0,1.071-1q.017-.017,0-.043t-.034-.009a6.144,6.144,0,0,1-1.87.187q-.7,0-1.079-.017a3.529,3.529,0,0,1-.74-.111,1.183,1.183,0,0,1-.5-.23,1.207,1.207,0,0,1-.264-.451,2.363,2.363,0,0,1-.145-.671q-.025-.357-.025-.986V-7.038q0-.136-.136-.1Zm27.1-.833q2.21,1.564,4.4,3.434a.952.952,0,0,1,.348.655.962.962,0,0,1-.212.722l-.2.221a.887.887,0,0,1-.629.348.846.846,0,0,1-.68-.212q-2.448-2.125-4.352-3.553a.838.838,0,0,1-.349-.621.944.944,0,0,1,.2-.705l.085-.085a.994.994,0,0,1,.655-.383A.992.992,0,0,1,263.543-7.939ZM253.156-2.958,253-3.213a.988.988,0,0,1-.119-.74.966.966,0,0,1,.408-.621,29.552,29.552,0,0,0,7.089-6.494q.085-.119-.051-.119h-6.154a.9.9,0,0,1-.671-.289.944.944,0,0,1-.281-.68.944.944,0,0,1,.281-.68.9.9,0,0,1,.671-.289h12.818a.9.9,0,0,1,.672.289.945.945,0,0,1,.281.68.945.945,0,0,1-.281.68.9.9,0,0,1-.672.289H263.2a.274.274,0,0,0-.221.1q-.629.952-1.173,1.632a.431.431,0,0,0-.085.255V.476a.931.931,0,0,1-.289.68.93.93,0,0,1-.68.289h-.34a.931.931,0,0,1-.68-.289.931.931,0,0,1-.289-.68V-6.766q0-.034-.043-.051t-.06,0a32.97,32.97,0,0,1-4.9,4.131.835.835,0,0,1-.706.153A.882.882,0,0,1,253.156-2.958Zm21.2-2.431.2-.247.2-.247q.068-.1-.051-.1H271.72a.93.93,0,0,1-.68-.289.931.931,0,0,1-.289-.68V-9.826a.931.931,0,0,1,.289-.68.93.93,0,0,1,.68-.289H274.2a.135.135,0,0,0,.153-.153v-.459q0-.136-.153-.136h-3.264a.9.9,0,0,1-.646-.264.874.874,0,0,1-.272-.655.874.874,0,0,1,.272-.655.9.9,0,0,1,.646-.264h13.124a.9.9,0,0,1,.646.264.874.874,0,0,1,.272.655.874.874,0,0,1-.272.655.9.9,0,0,1-.646.264H280.8q-.153,0-.153.136v.459a.135.135,0,0,0,.153.153h2.482a.93.93,0,0,1,.68.289.931.931,0,0,1,.289.68v2.873a.931.931,0,0,1-.289.68.93.93,0,0,1-.68.289h-5.746a.229.229,0,0,0-.2.1q-.136.221-.323.493-.085.119.051.119h7.106a.835.835,0,0,1,.612.255.835.835,0,0,1,.255.612.835.835,0,0,1-.255.612.835.835,0,0,1-.612.255h-1.547a.283.283,0,0,0-.221.136,7.479,7.479,0,0,1-1.581,1.785q-.034.017-.026.068a.082.082,0,0,0,.06.068q1.564.51,2.958,1.037a.765.765,0,0,1,.459.485.683.683,0,0,1-.1.655L284.1.816a1.163,1.163,0,0,1-.655.459,1.114,1.114,0,0,1-.79-.051q-2.023-.867-3.842-1.479a.331.331,0,0,0-.272.017,23.521,23.521,0,0,1-6.834,1.6,1.107,1.107,0,0,1-.748-.2A1.162,1.162,0,0,1,270.5.527a.764.764,0,0,1,.1-.663.7.7,0,0,1,.578-.323,27.669,27.669,0,0,0,4.42-.68q.068-.034.017-.068-.408-.1-2.023-.459a.308.308,0,0,0-.221.051,1.269,1.269,0,0,1-1.479.1l-.187-.1a.605.605,0,0,1-.332-.51.626.626,0,0,1,.247-.561q.561-.476.867-.748.034-.068-.051-.1h-1.6a.835.835,0,0,1-.612-.255.835.835,0,0,1-.255-.612.835.835,0,0,1,.255-.612.835.835,0,0,1,.612-.255H274.1A.293.293,0,0,0,274.355-5.389Zm.034-2.346V-9.112q0-.136-.153-.136h-1.36a.12.12,0,0,0-.136.136v1.377a.12.12,0,0,0,.136.136h1.36Q274.389-7.6,274.389-7.735Zm6.222-1.377v1.377q0,.136.153.136h1.36a.12.12,0,0,0,.136-.136V-9.112a.12.12,0,0,0-.136-.136h-1.36Q280.611-9.248,280.611-9.112Zm-4.046-2.295v.459a.135.135,0,0,0,.153.153h1.564a.135.135,0,0,0,.153-.153v-.459q0-.136-.153-.136h-1.564Q276.565-11.543,276.565-11.407Zm-.034,2.295v1.377q0,.136.153.136h1.632q.153,0,.153-.136V-9.112q0-.136-.153-.136h-1.632Q276.531-9.248,276.531-9.112Zm-1.479,6.035a.066.066,0,0,0-.017.076.107.107,0,0,0,.051.059q1.513.289,3.162.714a.353.353,0,0,0,.272-.034,6.181,6.181,0,0,0,1.5-1.173.047.047,0,0,0,.009-.068.074.074,0,0,0-.06-.034h-4.318a.357.357,0,0,0-.255.119ZM294.4-3.74a.965.965,0,0,1-.7-.28.983.983,0,0,1-.306-.688l-.255-6.732a.9.9,0,0,1,.255-.68.876.876,0,0,1,.663-.289h.918a.876.876,0,0,1,.663.289.9.9,0,0,1,.255.68l-.255,6.732a.983.983,0,0,1-.306.688.965.965,0,0,1-.7.28Zm.408,1.36a.9.9,0,0,1,.672.289.945.945,0,0,1,.28.68v.442a.945.945,0,0,1-.28.68.9.9,0,0,1-.672.289h-.578a.9.9,0,0,1-.672-.289.945.945,0,0,1-.28-.68v-.442a.945.945,0,0,1,.28-.68.9.9,0,0,1,.672-.289Z" transform="translate(39 429)" fill="#454d4c"/><path d="M5.814-5.253a4.226,4.226,0,0,0-1.8.969A1.868,1.868,0,0,0,3.4-2.941,1.6,1.6,0,0,0,3.936-1.76,1.648,1.648,0,0,0,5.1-1.241a.872.872,0,0,0,.671-.2A1.2,1.2,0,0,0,5.95-2.21V-5.151Q5.95-5.287,5.814-5.253ZM5.321.68A4.226,4.226,0,0,1,2.431-.366a3.3,3.3,0,0,1-1.19-2.576,3.662,3.662,0,0,1,1.2-2.652A7.135,7.135,0,0,1,5.814-7.327a.171.171,0,0,0,.136-.187V-9.656A.135.135,0,0,0,5.8-9.809H2.89a.868.868,0,0,1-.638-.264.868.868,0,0,1-.263-.638.868.868,0,0,1,.263-.637.868.868,0,0,1,.638-.264H5.8a.135.135,0,0,0,.153-.153v-.986a.93.93,0,0,1,.289-.68.931.931,0,0,1,.68-.289H7.14a.93.93,0,0,1,.68.289.93.93,0,0,1,.289.68v.986q0,.153.136.153h2.686a.9.9,0,0,1,.646.264.855.855,0,0,1,.272.637.855.855,0,0,1-.272.638.9.9,0,0,1-.646.264H8.245q-.136,0-.136.153V-7.82q0,.136.153.136.272-.017.867-.017a6.55,6.55,0,0,1,4.063,1.173,3.471,3.471,0,0,1,1.547,2.839q0,3.621-3.91,4.437A.942.942,0,0,1,10.081.6a1.049,1.049,0,0,1-.442-.638L9.622-.085a.869.869,0,0,1,.127-.7.923.923,0,0,1,.587-.408A3.173,3.173,0,0,0,12-2.049a2.19,2.19,0,0,0,.527-1.522A1.769,1.769,0,0,0,11.6-5.041a4.381,4.381,0,0,0-2.474-.62q-.595,0-.867.017a.135.135,0,0,0-.153.153v3.4A3.012,3.012,0,0,1,7.5.077,3.075,3.075,0,0,1,5.321.68ZM14.45-11.543q.918,1.241,1.6,2.329a.879.879,0,0,1,.111.706.865.865,0,0,1-.417.569.953.953,0,0,1-.714.093.924.924,0,0,1-.578-.416q-.816-1.275-1.5-2.21a.911.911,0,0,1-.17-.68.847.847,0,0,1,.357-.6.949.949,0,0,1,.705-.161A.882.882,0,0,1,14.45-11.543ZM32.827-4.709a1.021,1.021,0,0,1,.663.4,1.034,1.034,0,0,1,.221.74,17.717,17.717,0,0,1-.459,3.2,3.171,3.171,0,0,1-.714,1.479,1.621,1.621,0,0,1-1.122.365q-1.377,0-2.346-1.785A12.6,12.6,0,0,1,28-5.763a.135.135,0,0,0-.153-.153h-7.82a.855.855,0,0,1-.629-.255.855.855,0,0,1-.255-.629.855.855,0,0,1,.255-.629.855.855,0,0,1,.629-.255h9.265a.918.918,0,0,1,.68.3.959.959,0,0,1,.289.688,22.125,22.125,0,0,0,.221,3.077,8.986,8.986,0,0,0,.442,1.913q.238.57.442.569.085,0,.145-.153a4.441,4.441,0,0,0,.136-.782q.077-.629.179-1.853a.79.79,0,0,1,.323-.612A.823.823,0,0,1,32.827-4.709Zm-14.5-3.349a.865.865,0,0,1-.382-.6.862.862,0,0,1,.178-.688,16.976,16.976,0,0,0,2.244-4.1,1.114,1.114,0,0,1,.5-.587,1.125,1.125,0,0,1,.757-.128l.323.068a.73.73,0,0,1,.51.357.685.685,0,0,1,.051.612q-.034.119.085.119H31.5a.868.868,0,0,1,.638.264.868.868,0,0,1,.264.638.9.9,0,0,1-.264.646.855.855,0,0,1-.638.272H21.845a.2.2,0,0,0-.2.119q-.238.476-.374.714-.068.1.085.1h9.231a.767.767,0,0,1,.561.238.787.787,0,0,1,.238.578.782.782,0,0,1-.229.561.759.759,0,0,1-.569.238h-8.6a.944.944,0,0,1-.68-.28.9.9,0,0,1-.289-.672v-.17a.039.039,0,0,0-.026-.042.039.039,0,0,0-.042.008,16.46,16.46,0,0,1-1.088,1.6,1.033,1.033,0,0,1-.663.391.978.978,0,0,1-.748-.17Zm.425,7.684A20.463,20.463,0,0,0,21.9-2.125a.079.079,0,0,0,.051-.085A.079.079,0,0,0,21.9-2.3q-1.122-.782-1.836-1.224a.866.866,0,0,1-.4-.586.845.845,0,0,1,.145-.688,1.032,1.032,0,0,1,.638-.408.946.946,0,0,1,.739.136q1.156.714,2.346,1.564a.181.181,0,0,0,.221-.017A18.665,18.665,0,0,0,25.3-4.964a1.076,1.076,0,0,1,.688-.323.907.907,0,0,1,.705.238l.051.034a.892.892,0,0,1,.331.655.882.882,0,0,1-.247.689q-.833.867-1.445,1.394a.107.107,0,0,0,.017.187q1.122.9,1.887,1.564a.885.885,0,0,1,.332.646A.871.871,0,0,1,27.37.8a1.076,1.076,0,0,1-.688.323A.938.938,0,0,1,25.976.9Q24.616-.255,23.817-.867a.165.165,0,0,0-.221,0A21.961,21.961,0,0,1,19.72,1.326a1.015,1.015,0,0,1-.774.034,1.052,1.052,0,0,1-.6-.51.834.834,0,0,1-.059-.706A.849.849,0,0,1,18.751-.374ZM42.908-7.31a11.988,11.988,0,0,0,1.8-.884q.119-.068.017-.17a14.215,14.215,0,0,1-1.411-1.547.835.835,0,0,1-.153-.706.882.882,0,0,1,.425-.587L44-11.458a.058.058,0,0,0,.017-.043q0-.025-.034-.026H43.69a.883.883,0,0,1-.646-.272.883.883,0,0,1-.272-.646.9.9,0,0,1,.272-.663.883.883,0,0,1,.646-.272h5.44a.883.883,0,0,1,.646.272.9.9,0,0,1,.272.663,3.861,3.861,0,0,1-.391,1.751,10.155,10.155,0,0,1-1.581,2.244.152.152,0,0,0-.034.11q0,.077.051.094a13.178,13.178,0,0,0,1.7.867.968.968,0,0,1,.519.518.87.87,0,0,1,.008.722.953.953,0,0,1-.535.553.95.95,0,0,1-.757.008,14.687,14.687,0,0,1-2.533-1.36.177.177,0,0,0-.238-.017A16.15,16.15,0,0,1,43.6-5.593a.911.911,0,0,1-.731,0,.933.933,0,0,1-.51-.527.875.875,0,0,1,.026-.706A.908.908,0,0,1,42.908-7.31Zm1.717-4.1a9.847,9.847,0,0,0,1.666,1.836.154.154,0,0,0,.221-.017,7.1,7.1,0,0,0,1.326-1.8q.068-.136-.085-.136h-3.06a.083.083,0,0,0-.076.043A.057.057,0,0,0,44.625-11.407ZM37.4-1.9a.12.12,0,0,0,.136-.136v-.782q0-.153-.136-.153H35.921a.9.9,0,0,1-.672-.289.944.944,0,0,1-.28-.68V-8.806a.944.944,0,0,1,.28-.68.9.9,0,0,1,.672-.289H37.4q.136,0,.136-.153v-.731A.12.12,0,0,0,37.4-10.8H35.5a.827.827,0,0,1-.62-.255.87.87,0,0,1-.246-.629.841.841,0,0,1,.246-.62.841.841,0,0,1,.62-.247h1.9q.136,0,.136-.153v-.221a.93.93,0,0,1,.289-.68.931.931,0,0,1,.68-.289h.255a.931.931,0,0,1,.68.289.93.93,0,0,1,.289.68v.221q0,.153.136.153h1.581a.87.87,0,0,1,.629.247.827.827,0,0,1,.255.62.855.855,0,0,1-.255.629.855.855,0,0,1-.629.255H39.865a.12.12,0,0,0-.136.136v.731q0,.153.136.153h1.326a.931.931,0,0,1,.68.289.931.931,0,0,1,.289.68v4.862a.931.931,0,0,1-.289.68.931.931,0,0,1-.68.289H39.865q-.136,0-.136.153v.782a.12.12,0,0,0,.136.136h1.7a.855.855,0,0,1,.629.255.855.855,0,0,1,.255.629.77.77,0,0,1-.051.272.076.076,0,0,0,.008.077q.025.043.059.025A1,1,0,0,1,42.7-.68h2.414a.135.135,0,0,0,.153-.153v-1.8q0-.136-.153-.136H43.6a.855.855,0,0,1-.629-.255.855.855,0,0,1-.255-.629.855.855,0,0,1,.255-.629.855.855,0,0,1,.629-.255h1.513q.153,0,.153-.136v-.306a.944.944,0,0,1,.28-.68.9.9,0,0,1,.672-.289h.289a.931.931,0,0,1,.68.289.93.93,0,0,1,.289.68v.306a.12.12,0,0,0,.136.136h1.666a.855.855,0,0,1,.629.255.855.855,0,0,1,.255.629.855.855,0,0,1-.255.629.855.855,0,0,1-.629.255H47.617a.12.12,0,0,0-.136.136v1.8q0,.153.136.153h1.9a.9.9,0,0,1,.663.272.883.883,0,0,1,.272.646.883.883,0,0,1-.272.646.9.9,0,0,1-.663.272H42.7a.883.883,0,0,1-.646-.272.883.883,0,0,1-.272-.646,1.015,1.015,0,0,1,.051-.323.056.056,0,0,0-.017-.068.056.056,0,0,0-.068-.017.937.937,0,0,1-.187.034h-1.7A.12.12,0,0,0,39.729,0V.68a.931.931,0,0,1-.289.68.931.931,0,0,1-.68.289h-.255a.93.93,0,0,1-.68-.289.93.93,0,0,1-.289-.68V0A.12.12,0,0,0,37.4-.136H35.5a.827.827,0,0,1-.62-.255.87.87,0,0,1-.246-.629.87.87,0,0,1,.246-.629A.827.827,0,0,1,35.5-1.9Zm2.244-6.12v.765q0,.153.136.153h.612q.136,0,.136-.153v-.765q0-.153-.136-.153H39.78Q39.644-8.177,39.644-8.024Zm0,2.482v.816q0,.153.136.153h.612q.136,0,.136-.153v-.816q0-.153-.136-.153H39.78Q39.644-5.7,39.644-5.542ZM36.686-8.024v.765q0,.153.136.153h.663q.136,0,.136-.153v-.765q0-.153-.136-.153h-.663Q36.686-8.177,36.686-8.024Zm.8,3.451q.136,0,.136-.153v-.816q0-.153-.136-.153h-.663q-.136,0-.136.153v.816q0,.153.136.153Zm22.066-7.276H64.94a.93.93,0,0,1,.68.289.93.93,0,0,1,.289.68v.051a.93.93,0,0,1-.289.68.93.93,0,0,1-.68.289H59.551a.9.9,0,0,1-.672-.289.944.944,0,0,1-.281-.68v-.051a.944.944,0,0,1,.281-.68A.9.9,0,0,1,59.551-11.849ZM54.672.816a1.061,1.061,0,0,1-.748-.178A.982.982,0,0,1,53.5,0a28.569,28.569,0,0,1-.629-6.12,28.569,28.569,0,0,1,.629-6.12.982.982,0,0,1,.425-.637,1.061,1.061,0,0,1,.748-.178l.323.034a.778.778,0,0,1,.6.357.852.852,0,0,1,.136.7,27.036,27.036,0,0,0-.6,5.848,27.036,27.036,0,0,0,.6,5.848.852.852,0,0,1-.136.7.778.778,0,0,1-.6.357ZM62.339.221a6.73,6.73,0,0,1-3.783-.927,2.846,2.846,0,0,1-1.385-2.474,4.756,4.756,0,0,1,1.462-2.975.917.917,0,0,1,.7-.314,1.07,1.07,0,0,1,.731.246l.085.051a.805.805,0,0,1,.323.629.93.93,0,0,1-.238.68,2.855,2.855,0,0,0-.816,1.6q0,1.445,2.924,1.445a16.357,16.357,0,0,0,2.771-.255.916.916,0,0,1,.714.162.92.92,0,0,1,.391.6v.068a1.019,1.019,0,0,1-.153.748.884.884,0,0,1-.612.408A15.824,15.824,0,0,1,62.339.221ZM79.084-8.653a.955.955,0,0,1,.748-.068.934.934,0,0,1,.578.476q.187.34.561,1.054a.912.912,0,0,1,.034.731.934.934,0,0,1-.493.544.955.955,0,0,1-.748.034,1,1,0,0,1-.561-.493q-.085-.153-.544-1a.874.874,0,0,1-.068-.714.933.933,0,0,1,.476-.561Zm2.839,1.768q-.085-.17-.272-.527t-.289-.527a.934.934,0,0,1-.076-.731.847.847,0,0,1,.467-.561l.051-.017a.982.982,0,0,1,.748-.076.9.9,0,0,1,.578.467q.561,1.071.578,1.105a.894.894,0,0,1,.06.731.9.9,0,0,1-.484.544l-.051.034a.956.956,0,0,1-.74.043A.965.965,0,0,1,81.923-6.885Zm-.493-4.794a.931.931,0,0,1-.289.68.93.93,0,0,1-.68.289H72.369a.93.93,0,0,1-.68-.289.93.93,0,0,1-.289-.68v-.051a.931.931,0,0,1,.289-.68.93.93,0,0,1,.68-.289h8.092a.931.931,0,0,1,.68.289.931.931,0,0,1,.289.68ZM76.381.8A9.438,9.438,0,0,1,71.6-.221a3.068,3.068,0,0,1-1.734-2.72q0-1.581,1.955-3.655a.973.973,0,0,1,.7-.332,1.064,1.064,0,0,1,.748.23l.119.085A.78.78,0,0,1,73.72-6a.847.847,0,0,1-.229.663A3.838,3.838,0,0,0,72.2-3.179a1.591,1.591,0,0,0,1.088,1.411,7.275,7.275,0,0,0,3.094.527A22.6,22.6,0,0,0,81.107-1.8a.925.925,0,0,1,.722.127.854.854,0,0,1,.4.587l.034.136a.975.975,0,0,1-.128.74.907.907,0,0,1-.6.434A25.676,25.676,0,0,1,76.381.8ZM88.009-12.818q.816.782,1.632,1.632a.981.981,0,0,1,.272.7.95.95,0,0,1-.289.7.96.96,0,0,1-.68.272.93.93,0,0,1-.68-.289q-.85-.833-1.683-1.632a.9.9,0,0,1-.3-.655.839.839,0,0,1,.281-.655l.051-.051a.95.95,0,0,1,.7-.289A.981.981,0,0,1,88.009-12.818ZM86.7-5.661a.9.9,0,0,1-.654-.281.9.9,0,0,1-.281-.654.9.9,0,0,1,.281-.655.9.9,0,0,1,.654-.28h2.006a.944.944,0,0,1,.68.28.9.9,0,0,1,.289.671v4.267a.506.506,0,0,0,.068.255,2.446,2.446,0,0,0,1,.952,6.055,6.055,0,0,0,1.929.451,38.138,38.138,0,0,0,3.851.145H100.3a.835.835,0,0,1,.646.28.879.879,0,0,1,.238.655.922.922,0,0,1-.314.663.989.989,0,0,1-.688.272H96.594a28.132,28.132,0,0,1-4.981-.332A5.012,5.012,0,0,1,89.046-.119a.188.188,0,0,0-.238,0q-.7.629-1.479,1.207a.867.867,0,0,1-.706.136A.826.826,0,0,1,86.054.8L85.986.68a.964.964,0,0,1-.1-.748A1.081,1.081,0,0,1,86.326-.7q.612-.442,1.139-.884a.343.343,0,0,0,.119-.238V-5.525q0-.136-.153-.136ZM96.866-11.22a.12.12,0,0,0-.136.136v.442q0,.153.136.153H99.62a.944.944,0,0,1,.68.28.9.9,0,0,1,.289.672v4.08a.931.931,0,0,1-.289.68.93.93,0,0,1-.68.289H96.866a.12.12,0,0,0-.136.136v.476a.12.12,0,0,0,.136.136h3.366a.835.835,0,0,1,.612.255.835.835,0,0,1,.255.612.835.835,0,0,1-.255.612.835.835,0,0,1-.612.255H96.866a.12.12,0,0,0-.136.136v.085a.931.931,0,0,1-.289.68.93.93,0,0,1-.68.289h-.255a.9.9,0,0,1-.671-.289.944.944,0,0,1-.281-.68V-1.87q0-.136-.153-.136H90.967a.835.835,0,0,1-.612-.255.835.835,0,0,1-.255-.612.835.835,0,0,1,.255-.612.835.835,0,0,1,.612-.255H94.4q.153,0,.153-.136v-.476q0-.136-.153-.136H91.6a.9.9,0,0,1-.672-.289.944.944,0,0,1-.281-.68v-4.08a.916.916,0,0,1,.281-.672.916.916,0,0,1,.672-.28H94.4a.135.135,0,0,0,.153-.153v-.442q0-.136-.153-.136H90.848a.841.841,0,0,1-.629-.264.883.883,0,0,1-.255-.638.855.855,0,0,1,.255-.629.855.855,0,0,1,.629-.255h3.57a.12.12,0,0,0,.136-.136.821.821,0,0,1,.246-.6.821.821,0,0,1,.6-.246h.459a.849.849,0,0,1,.612.246.807.807,0,0,1,.255.6.12.12,0,0,0,.136.136H100.2a.883.883,0,0,1,.638.255.841.841,0,0,1,.263.629.868.868,0,0,1-.263.638.868.868,0,0,1-.638.264ZM94.554-6.137V-6.7q0-.136-.153-.136H92.769q-.153,0-.153.136v.561a.135.135,0,0,0,.153.153H94.4A.135.135,0,0,0,94.554-6.137Zm0-2.193v-.527A.135.135,0,0,0,94.4-9.01H92.769a.135.135,0,0,0-.153.153v.527a.135.135,0,0,0,.153.153H94.4A.135.135,0,0,0,94.554-8.33ZM98.6-6.137V-6.7q0-.136-.153-.136H96.866a.12.12,0,0,0-.136.136v.561q0,.153.136.153h1.581A.135.135,0,0,0,98.6-6.137ZM96.866-9.01q-.136,0-.136.153v.527q0,.153.136.153h1.581A.135.135,0,0,0,98.6-8.33v-.527a.135.135,0,0,0-.153-.153Zm6.851,4.165a.914.914,0,0,1-.68-.247.906.906,0,0,1-.306-.655V-5.78a.912.912,0,0,1,.263-.688,1.019,1.019,0,0,1,.672-.332l.7-.034a.26.26,0,0,0,.221-.119A.2.2,0,0,0,104.618-7a.2.2,0,0,1,.034-.051.212.212,0,0,0,0-.255q-.476-.714-1.462-2.108a1.639,1.639,0,0,1-.17-1.666l.136-.272a.552.552,0,0,1,.451-.332.491.491,0,0,1,.5.23q.068.1.136-.017.51-1.122.748-1.7a.908.908,0,0,1,.485-.519.874.874,0,0,1,.705-.026.877.877,0,0,1,.51.485.813.813,0,0,1,0,.688q-.561,1.309-1.326,2.737a.228.228,0,0,0,.017.255q.051.085.178.255t.178.255q.068.1.136,0,.7-1.156,1.326-2.346a1.017,1.017,0,0,1,.544-.476.919.919,0,0,1,.714.017.821.821,0,0,1,.459.493.8.8,0,0,1-.051.663q-.306.578-.952,1.7-.017.068.068.085l.153-.034a.941.941,0,0,1,.74.1.939.939,0,0,1,.451.6l.408,1.632q.034.153.17.085a13.483,13.483,0,0,0,2.346-1.207.079.079,0,0,0,.051-.085.139.139,0,0,0-.034-.1q-.425-.425-.969-1.054a.106.106,0,0,0-.17,0,.557.557,0,0,0-.068.085.831.831,0,0,0-.051.085.873.873,0,0,1-.663.323.894.894,0,0,1-.7-.272l-.153-.136a.923.923,0,0,1-.3-.68,1.109,1.109,0,0,1,.246-.731,15.856,15.856,0,0,0,1.836-2.907,1.3,1.3,0,0,1,.561-.6,1.222,1.222,0,0,1,.8-.136l.17.034a.73.73,0,0,1,.561.374.724.724,0,0,1,.051.663.278.278,0,0,0-.034.042.083.083,0,0,0-.017.043.129.129,0,0,0,.008.1.082.082,0,0,0,.076.051h3.74a.87.87,0,0,1,.629.247.827.827,0,0,1,.255.62,2.823,2.823,0,0,1-.476,1.632,15.27,15.27,0,0,1-2.023,2.346q-.1.1.051.17a14.334,14.334,0,0,0,2.278,1.156,1.186,1.186,0,0,1,.6.51,1.1,1.1,0,0,1,.145.765l-.051.34a.594.594,0,0,1-.306.433.6.6,0,0,1-.527.043.044.044,0,0,0-.06.017.113.113,0,0,0-.025.068V.51a.931.931,0,0,1-.289.68.93.93,0,0,1-.68.289h-.561a.652.652,0,0,1-.476-.2.672.672,0,0,1-.2-.493.09.09,0,0,0-.1-.1h-3.094a.09.09,0,0,0-.1.1.672.672,0,0,1-.2.493.652.652,0,0,1-.476.2h-.561a.93.93,0,0,1-.68-.289.931.931,0,0,1-.289-.68V-4.3q0-.085-.068-.051a.4.4,0,0,1-.348-.026.436.436,0,0,1-.229-.28.139.139,0,0,0-.187-.119l-.153.034a.436.436,0,0,1-.323-.059.4.4,0,0,1-.187-.281q0-.051-.068-.051l-.952.051q-.136,0-.136.153V.629a.9.9,0,0,1-.289.672.944.944,0,0,1-.68.28h-.289a.944.944,0,0,1-.68-.28.9.9,0,0,1-.289-.672V-4.777a.12.12,0,0,0-.136-.136Zm11.764,3.672V-3.145q0-.136-.153-.136h-2.992q-.153,0-.153.136v1.972a.135.135,0,0,0,.153.153h2.992A.135.135,0,0,0,115.481-1.173ZM112.4-10.829q-.051.051-.017.068A12.518,12.518,0,0,0,113.8-9.1a.127.127,0,0,0,.2,0,11,11,0,0,0,1.445-1.649q.085-.136-.051-.136h-2.924A.067.067,0,0,0,112.4-10.829Zm-.9,5.78a.058.058,0,0,0-.017.043q0,.026.034.025h4.658q.034,0,.034-.025a.058.058,0,0,0-.017-.043,13.009,13.009,0,0,1-2.159-1.326.188.188,0,0,0-.238,0A17.675,17.675,0,0,1,111.5-5.049Zm-4.76-2.023q-.068.1.068.1l1.071-.051q.136,0,.1-.153-.017-.068-.323-1.19-.034-.1-.1,0Q107.457-8.194,106.743-7.072ZM103.879.51a.77.77,0,0,1-.587.136.753.753,0,0,1-.51-.306.744.744,0,0,1-.136-.578q.238-1.479.374-3.179a.775.775,0,0,1,.272-.527.769.769,0,0,1,.561-.187.822.822,0,0,1,.536.263.725.725,0,0,1,.2.553q-.119,1.6-.391,3.315A.743.743,0,0,1,103.879.51Zm4.989-.425a.687.687,0,0,1-.544-.17.715.715,0,0,1-.255-.527q-.085-1.666-.221-2.839A.774.774,0,0,1,108-4.012a.682.682,0,0,1,.493-.289.747.747,0,0,1,.552.153.691.691,0,0,1,.281.493q.2,1.564.272,2.924a.725.725,0,0,1-.2.552A.822.822,0,0,1,108.868.085Zm15.4-3.451a15.483,15.483,0,0,1-2.286-1.768,1.936,1.936,0,0,1-.433-1.326,1.969,1.969,0,0,1,.459-1.394,14.8,14.8,0,0,1,2.312-1.683q3.009-1.955,5.253-3.638a1.014,1.014,0,0,1,.731-.2.937.937,0,0,1,.663.365l.17.221a.9.9,0,0,1,.212.7.816.816,0,0,1-.365.612Q128.18-9.4,125.749-7.837q-1.02.646-1.309.884a.658.658,0,0,0-.289.493.669.669,0,0,0,.255.476,11.955,11.955,0,0,0,1.19.867q2.941,1.989,5.916,4.386a.839.839,0,0,1,.332.637A.882.882,0,0,1,131.6.6l-.187.221a.984.984,0,0,1-.68.314A1.038,1.038,0,0,1,130,.9Q127.4-1.207,124.27-3.366Zm23.919-8.347q-.085-.153-.238-.451t-.238-.45a.842.842,0,0,1-.059-.672.858.858,0,0,1,.434-.519.861.861,0,0,1,.688-.051.945.945,0,0,1,.536.459q.085.153.238.45t.238.451a.843.843,0,0,1,.051.68.821.821,0,0,1-.459.493.889.889,0,0,1-.671.043A.858.858,0,0,1,148.189-11.713Zm2.015-1.811a.849.849,0,0,1,.451-.519.918.918,0,0,1,.714-.051.892.892,0,0,1,.544.442l.247.493.229.459a.843.843,0,0,1,.051.68.881.881,0,0,1-.459.51.861.861,0,0,1-.688.051.945.945,0,0,1-.536-.459q-.153-.306-.493-.918A.887.887,0,0,1,150.2-13.524ZM144.458-6.35a.9.9,0,0,1-.331-.638.952.952,0,0,1,.221-.705.9.9,0,0,1,.646-.349q2.652-.272,5.134-.289a.889.889,0,0,1,.663.28.931.931,0,0,1,.272.672.916.916,0,0,1-.281.672.916.916,0,0,1-.671.28q-2.7.051-4.981.289A.89.89,0,0,1,144.458-6.35ZM142.715-2.21a2.945,2.945,0,0,1,1-2.023,1.056,1.056,0,0,1,.705-.314,1.216,1.216,0,0,1,.757.2.656.656,0,0,1,.315.527.756.756,0,0,1-.213.595,1.19,1.19,0,0,0-.425.8q0,.6.808.978a5.223,5.223,0,0,0,2.2.383,17.756,17.756,0,0,0,2.38-.187.928.928,0,0,1,.706.187.907.907,0,0,1,.365.629.983.983,0,0,1-.187.731.9.9,0,0,1-.629.374,19.861,19.861,0,0,1-2.635.187,7.129,7.129,0,0,1-3.749-.859A2.532,2.532,0,0,1,142.715-2.21ZM138.091.884a.85.85,0,0,1-.57-.425.812.812,0,0,1-.059-.714,90.123,90.123,0,0,0,2.482-9.282q.034-.153-.1-.153h-1.207a.93.93,0,0,1-.68-.289.93.93,0,0,1-.289-.68.9.9,0,0,1,.289-.672.944.944,0,0,1,.68-.28h1.581a.161.161,0,0,0,.17-.136q.136-.646.187-.969a1.085,1.085,0,0,1,.4-.655,1,1,0,0,1,.723-.212l.221.017a.849.849,0,0,1,.629.349.874.874,0,0,1,.17.705q-.017.136-.068.374t-.068.374a.1.1,0,0,0,.026.1.122.122,0,0,0,.093.051h4.947a.916.916,0,0,1,.671.28.916.916,0,0,1,.281.672.944.944,0,0,1-.281.68.9.9,0,0,1-.671.289h-5.3a.171.171,0,0,0-.187.136A87.748,87.748,0,0,1,139.6.238a.959.959,0,0,1-.484.587,1.074,1.074,0,0,1-.757.111ZM155.6-9.469a.916.916,0,0,1-.671-.28.916.916,0,0,1-.281-.672.936.936,0,0,1,.281-.688.936.936,0,0,1,.688-.281q2.091,0,6.307-.1.17,0,.136-.136-.051-.459-.1-.969a.858.858,0,0,1,.23-.68.986.986,0,0,1,.671-.323h.221a.921.921,0,0,1,.706.238.9.9,0,0,1,.331.663q.017.153.043.493t.042.51a.161.161,0,0,0,.17.136q1.989-.068,3.026-.119a.9.9,0,0,1,.68.255.935.935,0,0,1,.306.663.912.912,0,0,1-.263.689.951.951,0,0,1-.672.314l-2.754.1q-.136,0-.1.153a13.4,13.4,0,0,0,1.428,3.417.913.913,0,0,1,.085.714.828.828,0,0,1-.442.561l-.323.153a1.775,1.775,0,0,1-1.683-.034,7.049,7.049,0,0,0-3.128-.748,3.366,3.366,0,0,0-2.006.518,1.644,1.644,0,0,0-.714,1.4,2.006,2.006,0,0,0,1.054,1.811,6.186,6.186,0,0,0,3.145.638,21.6,21.6,0,0,0,3.179-.289.941.941,0,0,1,.723.162.92.92,0,0,1,.4.621v.034a.865.865,0,0,1-.145.714.929.929,0,0,1-.62.391A24.64,24.64,0,0,1,162.01.85a7.957,7.957,0,0,1-4.862-1.224,3.889,3.889,0,0,1-1.6-3.247,3.29,3.29,0,0,1,1.292-2.72,5.651,5.651,0,0,1,3.587-1.02,7.846,7.846,0,0,1,2.89.561h.034a.049.049,0,0,0,.017-.034,12.327,12.327,0,0,1-.918-2.6.182.182,0,0,0-.2-.136Q158.916-9.469,155.6-9.469Zm27.761,7.48a25.481,25.481,0,0,0-1.751-8.534.9.9,0,0,1,.017-.705.819.819,0,0,1,.527-.467l.238-.068a1.049,1.049,0,0,1,.773.059,1.094,1.094,0,0,1,.552.553,25.051,25.051,0,0,1,1.9,9.163.873.873,0,0,1-.272.68.93.93,0,0,1-.68.289h-.34a.9.9,0,0,1-.671-.289A1.011,1.011,0,0,1,183.362-1.989ZM175.661.8q-1.445,0-2.677-1.972a8.837,8.837,0,0,1-1.232-4.777,21.37,21.37,0,0,1,.595-5.032,1.039,1.039,0,0,1,.451-.638,1.121,1.121,0,0,1,.774-.178l.289.034a.754.754,0,0,1,.587.357.869.869,0,0,1,.128.7,21.605,21.605,0,0,0-.544,4.76,7.487,7.487,0,0,0,.6,3.179q.6,1.292,1.2,1.292.374,0,.969-.722a9.322,9.322,0,0,0,1.207-2.1,1.03,1.03,0,0,1,.535-.535.957.957,0,0,1,.74-.026l.187.068a.93.93,0,0,1,.544.5.849.849,0,0,1,.017.722,9.489,9.489,0,0,1-2.074,3.213A3.449,3.449,0,0,1,175.661.8ZM195.4-3.74a.965.965,0,0,1-.7-.28.983.983,0,0,1-.306-.688l-.255-6.732a.9.9,0,0,1,.255-.68.876.876,0,0,1,.663-.289h.918a.876.876,0,0,1,.663.289.9.9,0,0,1,.255.68l-.255,6.732a.983.983,0,0,1-.306.688.965.965,0,0,1-.7.28Zm.408,1.36a.9.9,0,0,1,.671.289.944.944,0,0,1,.281.68v.442a.944.944,0,0,1-.281.68.9.9,0,0,1-.671.289h-.578a.9.9,0,0,1-.671-.289.944.944,0,0,1-.281-.68v-.442a.944.944,0,0,1,.281-.68.9.9,0,0,1,.671-.289Z" transform="translate(92 451)" fill="#454d4c"/><path d="M9,0l9,16H0Z" transform="translate(197 473) rotate(180)" fill="#fff"/></g></svg>