<svg xmlns="http://www.w3.org/2000/svg" width="201" height="51" viewBox="0 0 201 51"><g transform="translate(-12 -608)"><text transform="translate(69 630)" fill="#fff" font-size="18" font-family="NotoSansJP-Bold, Noto Sans JP" font-weight="700"><tspan x="0" y="0">お電話で無料相談</tspan></text><text transform="translate(69 653)" fill="#fff" font-size="20" font-family="SegoeUI-Bold, Segoe UI" letter-spacing="0.05em" font-weight="700"><tspan x="0" y="0">0120-3310-55</tspan></text><circle cx="18" cy="18" r="18" transform="translate(19 608)" fill="#fff"/><path d="M20.382,15.393l-2.927-2.927a1.947,1.947,0,0,0-3.241.732,1.992,1.992,0,0,1-2.3,1.254A9.026,9.026,0,0,1,6.478,9.016a1.9,1.9,0,0,1,1.254-2.3,1.947,1.947,0,0,0,.732-3.241L5.537.549a2.088,2.088,0,0,0-2.823,0L.729,2.535C-1.258,4.626.938,10.166,5.851,15.08S16.3,22.293,18.4,20.2l1.986-1.986A2.088,2.088,0,0,0,20.382,15.393Z" transform="translate(29.002 614) rotate(11)" fill="#eb6d4e"/><text transform="translate(37 656)" fill="#fff" font-size="10" font-family="NotoSansJP-Bold, Noto Sans JP" font-weight="700"><tspan x="-25" y="0">通話料無料</tspan></text></g></svg>