<svg xmlns="http://www.w3.org/2000/svg" width="200.294" height="48.88" viewBox="0 0 200.294 48.88"><g transform="translate(-12.22 -608)"><path d="M5.022-1.6c-.468,0-1.3-.5-1.3-1.044,0-.63.72-1.368,1.818-1.926.036.936.054,1.746.054,2.2C5.6-1.764,5.346-1.6,5.022-1.6ZM7.56-8.01c0-.522,0-1.062.018-1.6a34.426,34.426,0,0,0,3.4-.558L10.926-12.4a24.411,24.411,0,0,1-3.276.666c.018-.45.036-.882.054-1.278.036-.45.108-1.224.144-1.548H5.4A14.15,14.15,0,0,1,5.526-13c0,.306,0,.828-.018,1.458-.36.018-.7.036-1.026.036a19.529,19.529,0,0,1-2.466-.144l.036,2.16c.774.072,1.674.09,2.484.09.288,0,.612-.018.954-.036v1.494c0,.414,0,.828.018,1.242-2.178.954-4,2.556-4,4.122C1.512-.684,3.978.81,5.724.81,6.876.81,7.686.234,7.686-1.98c0-.612-.054-1.98-.09-3.4a12.654,12.654,0,0,1,3.348-.486c1.548,0,2.628.7,2.628,1.908,0,1.3-1.152,2.034-2.592,2.286a13.627,13.627,0,0,1-2.2.126L9.612.738A14.523,14.523,0,0,0,11.952.45c2.826-.7,3.924-2.286,3.924-4.392,0-2.448-2.16-3.906-4.9-3.906a14.508,14.508,0,0,0-3.42.468Zm4.392-2.88A27.078,27.078,0,0,1,16.236-8.3l1.08-1.836a39.377,39.377,0,0,0-4.374-2.5Zm9.054-.036h4.9v3.744H27.99v-3.744h4.95v2.232h1.98v-3.654H27.99v-.684h5.616v-1.584H20.34v1.584H25.9v.684H19.116v3.654h1.89Zm7.668,3.564H32.6v-1.17H28.674Zm0-2.952v1.152h3.51v-1.152Zm-3.42,0H21.708v1.152h3.546ZM21.366-7.362h3.888v-1.17H21.366Zm1.44,4.968v-.774h2.988v.774Zm2.988-2.862v.792H22.806v-.792Zm5.31.792H27.846v-.792H31.1Zm-3.258,2.07v-.774H31.1v.774Zm1.3,2.268c-1.1,0-1.3-.108-1.3-.774V-.954h5.382V-6.7H20.772V-.162h2.034V-.954h2.988V-.9c0,1.89.684,2.412,3.15,2.412h3.78c1.962,0,2.538-.594,2.79-2.754a5.474,5.474,0,0,1-1.782-.684c-.126,1.53-.288,1.8-1.188,1.8ZM42.858-14.688h-5.31v1.62h5.31ZM41.112-2.9V-.846H39.186V-2.9ZM42.93-4.59H37.386V1.548h1.8v-.7H42.93Zm-5.49-.918h5.4v-1.62h-5.4Zm5.4-4.122h-5.4v1.6h5.4Zm-6.246-.882h6.84V-12.2h-6.84ZM50.616-1.224H46.53v-2.52h4.086Zm2.862-6.822v-2h-3.87v-2.5a27.373,27.373,0,0,0,3.4-.738L51.5-15.066a39.345,39.345,0,0,1-7.632,1.314,7,7,0,0,1,.576,1.8c.954-.072,1.98-.162,2.988-.288v2.2H43.56v2h3.87V-5.67H44.5V1.566H46.53V.7h4.086v.792h2.142V-5.67h-3.15V-8.046ZM67.32-9.36,65.988-8.8a13.888,13.888,0,0,1,1.4,2.5l1.368-.612A23.591,23.591,0,0,0,67.32-9.36Zm2.016-.828-1.314.612A15.835,15.835,0,0,1,69.5-7.146l1.35-.648A26.923,26.923,0,0,0,69.336-10.188ZM55.314-12.312l.234,2.448c2.07-.45,5.814-.846,7.362-1.008a7.068,7.068,0,0,0-2.628,5.49c0,3.87,3.528,5.886,7.272,6.12l.828-2.466c-3.024-.144-5.76-1.206-5.76-4.14a5.411,5.411,0,0,1,3.762-4.986,18.408,18.408,0,0,1,3.438-.234l-.018-2.3c-1.26.054-3.2.162-5.04.306-3.258.288-6.21.558-7.7.684C56.718-12.366,56.034-12.33,55.314-12.312ZM84.8-9.18H83.43v-2.3H84.8Zm0,4.194H83.43V-7.272H84.8Zm-7.56-2.286h1.3v2.286h-1.3Zm4.41,0v2.286H80.316V-7.272ZM80.316-9.18v-2.3h1.332v2.3Zm-3.078-2.3h1.3v2.3h-1.3Zm-1.89,2.3H72.936v1.908h2.412v2.286H73.206v1.908H88.848V-4.986H86.76V-7.272H89.1V-9.18H86.76v-2.3h1.692v-1.89h-10.8a9.691,9.691,0,0,0,.7-1.26l-2.088-.612a11.069,11.069,0,0,1-3.726,4.3,19.824,19.824,0,0,1,1.746,1.4,12.37,12.37,0,0,0,1.062-.936ZM74.79,1.584A9.851,9.851,0,0,0,76.842-2.2l-2.07-.5A8.87,8.87,0,0,1,72.756.756Zm3.2-3.654a22.85,22.85,0,0,1,.342,3.438l2.088-.306A23.309,23.309,0,0,0,79.992-2.3Zm3.564.036a19.18,19.18,0,0,1,.918,3.42L84.618.972a20.06,20.06,0,0,0-1.044-3.348Zm3.564-.09a23.184,23.184,0,0,1,2.124,3.69l2.2-.738a24.415,24.415,0,0,0-2.268-3.6Zm17.82-9.972a13.527,13.527,0,0,0-2.862-2.178l-1.026,1.44a14.482,14.482,0,0,1,2.79,2.34ZM98.226-8.3a15.2,15.2,0,0,1,2.952,2.232l1.08-1.71a15.812,15.812,0,0,0-3.024-2.07Zm-1.62-5.958a30.614,30.614,0,0,1-.99,4.212l1.35.378c.45-1.044.972-2.754,1.44-4.194Zm-3.492,4.212a18.047,18.047,0,0,0-.918-4.122l-1.494.4a17.839,17.839,0,0,1,.81,4.14Zm4.914,5.922c-.378-.5-2.088-2.52-2.61-3.042V-7.29h2.664v-2H95.418v-5.886h-1.98v5.886H90.72v2h2.052A16.664,16.664,0,0,1,90.4-2.628a12.719,12.719,0,0,1,.972,2.214,18.473,18.473,0,0,0,2.07-4.428V1.512h1.98V-4.806a24.046,24.046,0,0,1,1.3,2.34Zm9.522.414-.324-2-1.836.342v-9.9h-2.016V-5l-5.346.954.324,2,5.022-.9v4.5h2.016v-4.86Zm5.94-5.832h2.25v-2.016h-2.25v-3.69h-2.052v3.69h-2.574V-9.54h2.322a17.515,17.515,0,0,1-2.79,6.012A10.549,10.549,0,0,1,109.4-1.512a15.438,15.438,0,0,0,2.034-4.05v7.11h2.052V-5.94c.5.81,1.026,1.656,1.3,2.232l1.224-1.746c-.36-.45-1.89-2.3-2.52-2.988Zm4.932,7.974v-2.3h4.23v2.3Zm4.23-6.534v2.286h-4.23V-8.1Zm0-4.158v2.232h-4.23v-2.232Zm-6.282-2.016V1.4h2.052V.378h4.23V1.3h2.16v-15.57Zm24.786-.018a15.809,15.809,0,0,1-1.3,2.934l1.584.612c.5-.756,1.152-1.854,1.746-2.9Zm2.2,5.778a37.426,37.426,0,0,0-4.266-2.79,18.991,18.991,0,0,0,.45-3.924h-2.07c-.144,3.564-.432,5.616-4.176,6.786a5.246,5.246,0,0,1,1.188,1.692A6.777,6.777,0,0,0,138.33-9.5a26.95,26.95,0,0,1,3.6,2.61ZM134.8-2.358a6.876,6.876,0,0,0,1.674-3.672L134.6-6.408a5.754,5.754,0,0,1-1.566,3.168Zm.018-11.826a5.826,5.826,0,0,1-1.35,2.97l1.674.72a6.418,6.418,0,0,0,1.422-3.33Zm-2.034-.5h-5.292v1.62h5.292Zm.648,2.412h-6.84v1.692h6.84Zm-.594,2.5h-5.4v1.638h5.4Zm-5.4,4.068h5.4v-1.6h-5.4Zm3.6,2.574v2.07h-1.854v-2.07Zm1.818-1.692h-5.472V1.314h1.8v-.7h3.672Zm8.6,2.034a34.622,34.622,0,0,0,1.89-3.1l-2.106-.648a19.461,19.461,0,0,1-1.422,3.114,3.878,3.878,0,0,1-.342-1.512V-7.65H137.3v2.718c0,1.206-.918,3.564-4.356,4.77a8.971,8.971,0,0,1,1.17,1.746,7.175,7.175,0,0,0,4.284-3.96,6.66,6.66,0,0,0,3.888,3.96,16.911,16.911,0,0,1,1.224-1.818,6.15,6.15,0,0,1-3.69-3.15Z" transform="translate(69 630)" fill="#fff"/><path d="M5.674.244q-5,0-5-7.021a9.554,9.554,0,0,1,1.353-5.552,4.506,4.506,0,0,1,3.921-1.909q4.883,0,4.883,7.139A9.407,9.407,0,0,1,9.5-1.65,4.391,4.391,0,0,1,5.674.244Zm.137-12.129q-2,0-2,5.029,0,4.736,1.963,4.736Q7.686-2.119,7.686-7T5.811-11.885Zm14.818-2.432V0H17.553V-10.84a3.684,3.684,0,0,1-.6.425,6.2,6.2,0,0,1-.737.361,6.584,6.584,0,0,1-.811.273,5.92,5.92,0,0,1-.83.161v-2.6a12.832,12.832,0,0,0,2.266-.9,12.893,12.893,0,0,0,1.924-1.2ZM29.2-2.559h5.938V0H25.818V-1.055a4.909,4.909,0,0,1,.361-1.929,6.4,6.4,0,0,1,.908-1.533,7.878,7.878,0,0,1,1.2-1.2q.649-.522,1.235-.942Q30.135-7.1,30.6-7.5a6.149,6.149,0,0,0,.781-.8,3.026,3.026,0,0,0,.474-.8,2.382,2.382,0,0,0,.156-.864,1.737,1.737,0,0,0-.508-1.357,2.258,2.258,0,0,0-1.553-.459,5.215,5.215,0,0,0-3.457,1.436v-2.715a7.421,7.421,0,0,1,4.121-1.182,6.086,6.086,0,0,1,1.909.278,4.039,4.039,0,0,1,1.431.8,3.4,3.4,0,0,1,.894,1.255,4.235,4.235,0,0,1,.308,1.646,4.64,4.64,0,0,1-.3,1.719,5.281,5.281,0,0,1-.791,1.367A7.175,7.175,0,0,1,32.928-6.05q-.645.513-1.338.991-.469.332-.9.659a8.564,8.564,0,0,0-.767.645,3.5,3.5,0,0,0-.527.62A1.07,1.07,0,0,0,29.2-2.559ZM43.186.244q-5,0-5-7.021a9.554,9.554,0,0,1,1.353-5.552,4.506,4.506,0,0,1,3.921-1.909q4.883,0,4.883,7.139A9.407,9.407,0,0,1,47.009-1.65,4.391,4.391,0,0,1,43.186.244Zm.137-12.129q-2,0-2,5.029,0,4.736,1.963,4.736Q45.2-2.119,45.2-7T43.322-11.885ZM56.754-4.258H51.412V-6.416h5.342Zm3.49,3.8V-3.145a5.421,5.421,0,0,0,3.281,1.025,2.954,2.954,0,0,0,1.841-.508,1.686,1.686,0,0,0,.659-1.416,1.61,1.61,0,0,0-.815-1.445A4.225,4.225,0,0,0,62.969-6h-1.3V-8.359h1.2q2.734,0,2.734-1.816,0-1.709-2.1-1.709a4.787,4.787,0,0,0-2.734.908V-13.5a7.552,7.552,0,0,1,3.438-.742,5.188,5.188,0,0,1,3.345.967,3.077,3.077,0,0,1,1.2,2.51,3.263,3.263,0,0,1-2.783,3.438v.049A3.784,3.784,0,0,1,68.311-6.2,3.043,3.043,0,0,1,69.17-4,3.757,3.757,0,0,1,67.734-.9,6.207,6.207,0,0,1,63.77.244,7.663,7.663,0,0,1,60.244-.459Zm12.5,0V-3.145a5.421,5.421,0,0,0,3.281,1.025,2.954,2.954,0,0,0,1.841-.508,1.686,1.686,0,0,0,.659-1.416,1.61,1.61,0,0,0-.815-1.445A4.225,4.225,0,0,0,75.473-6h-1.3V-8.359h1.2q2.734,0,2.734-1.816,0-1.709-2.1-1.709a4.787,4.787,0,0,0-2.734.908V-13.5a7.552,7.552,0,0,1,3.438-.742,5.188,5.188,0,0,1,3.345.967,3.077,3.077,0,0,1,1.2,2.51,3.263,3.263,0,0,1-2.783,3.438v.049A3.784,3.784,0,0,1,80.814-6.2,3.043,3.043,0,0,1,81.674-4,3.757,3.757,0,0,1,80.238-.9,6.207,6.207,0,0,1,76.273.244,7.663,7.663,0,0,1,72.748-.459ZM92.234-14.316V0H89.158V-10.84a3.684,3.684,0,0,1-.6.425,6.2,6.2,0,0,1-.737.361,6.584,6.584,0,0,1-.811.273,5.92,5.92,0,0,1-.83.161v-2.6a12.832,12.832,0,0,0,2.266-.9,12.893,12.893,0,0,0,1.924-1.2ZM102.287.244q-5,0-5-7.021a9.554,9.554,0,0,1,1.353-5.552,4.506,4.506,0,0,1,3.921-1.909q4.883,0,4.883,7.139A9.407,9.407,0,0,1,106.11-1.65,4.391,4.391,0,0,1,102.287.244Zm.137-12.129q-2,0-2,5.029,0,4.736,1.963,4.736Q104.3-2.119,104.3-7T102.424-11.885Zm13.432,7.627h-5.342V-6.416h5.342Zm3.734,3.9V-3a5.757,5.757,0,0,0,3.057.879,2.871,2.871,0,0,0,1.909-.581,1.956,1.956,0,0,0,.688-1.577q0-2.08-2.939-2.08a21.766,21.766,0,0,0-2.5.166L120.332-14h7.412v2.52h-5.059l-.2,2.8q.752-.059,1.3-.059a4.776,4.776,0,0,1,3.379,1.133,3.956,3.956,0,0,1,1.221,3.047A4.5,4.5,0,0,1,126.934-1.1,5.591,5.591,0,0,1,122.988.244,8.442,8.442,0,0,1,119.59-.361Zm12.5,0V-3a5.757,5.757,0,0,0,3.057.879A2.871,2.871,0,0,0,137.06-2.7a1.956,1.956,0,0,0,.688-1.577q0-2.08-2.939-2.08a21.766,21.766,0,0,0-2.5.166L132.836-14h7.412v2.52h-5.059l-.2,2.8q.752-.059,1.3-.059a4.776,4.776,0,0,1,3.379,1.133,3.956,3.956,0,0,1,1.221,3.047A4.5,4.5,0,0,1,139.438-1.1,5.591,5.591,0,0,1,135.492.244,8.442,8.442,0,0,1,132.094-.361Z" transform="translate(69 653)" fill="#fff"/><circle cx="18" cy="18" r="18" transform="translate(19 608)" fill="#fff"/><path d="M20.382,15.393l-2.927-2.927a1.947,1.947,0,0,0-3.241.732,1.992,1.992,0,0,1-2.3,1.254A9.026,9.026,0,0,1,6.478,9.016a1.9,1.9,0,0,1,1.254-2.3,1.947,1.947,0,0,0,.732-3.241L5.537.549a2.088,2.088,0,0,0-2.823,0L.729,2.535C-1.258,4.626.938,10.166,5.851,15.08S16.3,22.293,18.4,20.2l1.986-1.986A2.088,2.088,0,0,0,20.382,15.393Z" transform="translate(29.002 614) rotate(11)" fill="#eb6d4e"/><path d="M-19.12-5.11v.54h-1.15v-.54Zm2.24.54h-1.18v-.54h1.18Zm-1.18,1.39v-.56h1.18v.56Zm-2.21,0v-.56h1.15v.56Zm0,.86h1.15V-.86h1.06V-2.32h1.18v.46c0,.1-.03.14-.15.15-.1,0-.45,0-.76-.01a3.252,3.252,0,0,1,.29.93,3.009,3.009,0,0,0,1.35-.17c.32-.16.41-.41.41-.89V-5.97h-1.21c-.17-.1-.38-.2-.6-.31a11.382,11.382,0,0,0,1.78-1.35l-.71-.57-.23.06H-21.3v.9h3.56a9.24,9.24,0,0,1-.8.53c-.41-.18-.83-.34-1.18-.47l-.77.64c.41.16.89.36,1.34.57h-2.24V-.82h1.12Zm-1.67-4.4a8.565,8.565,0,0,0-1.74-1.54l-.82.76a8.118,8.118,0,0,1,1.67,1.63Zm-.3,2.13h-2.41V-3.5h1.27v2.18a13.765,13.765,0,0,1-1.4.91l.55,1.19c.56-.42,1.03-.81,1.49-1.2A3.1,3.1,0,0,0-20.15.69c1.22.05,3.34.03,4.57-.03A4.914,4.914,0,0,1-15.21-.5c-1.37.11-3.74.14-4.93.09a2.282,2.282,0,0,1-2.1-.99Zm11.05-3.57h-2.95v.9h2.95Zm-.97,6.55V-.47h-1.07V-1.61Zm1.01-.94h-3.08V.86h1V.47h2.08Zm-3.05-.51h3v-.9h-3Zm3-2.29h-3v.89h3Zm-3.47-.49h3.8v-.94h-3.8ZM-6.88-.68H-9.15v-1.4h2.27Zm1.59-3.79V-5.58H-7.44V-6.97a15.207,15.207,0,0,0,1.89-.41l-.84-.99a21.858,21.858,0,0,1-4.24.73,3.892,3.892,0,0,1,.32,1c.53-.04,1.1-.09,1.66-.16v1.22H-10.8v1.11h2.15v1.32h-1.63V.87h1.13V.39h2.27V.83h1.19V-3.15H-7.44V-4.47ZM2.19-6.72A7.515,7.515,0,0,0,.6-7.93l-.57.8a8.045,8.045,0,0,1,1.55,1.3ZM-.43-4.61A8.443,8.443,0,0,1,1.21-3.37l.6-.95A8.784,8.784,0,0,0,.13-5.47Zm-.9-3.31a17.008,17.008,0,0,1-.55,2.34l.75.21c.25-.58.54-1.53.8-2.33ZM-3.27-5.58a10.026,10.026,0,0,0-.51-2.29l-.83.22a9.91,9.91,0,0,1,.45,2.3ZM-.54-2.29c-.21-.28-1.16-1.4-1.45-1.69v-.07H-.51V-5.16H-1.99V-8.43h-1.1v3.27H-4.6v1.11h1.14A9.258,9.258,0,0,1-4.78-1.46,7.067,7.067,0,0,1-4.24-.23,10.263,10.263,0,0,0-3.09-2.69V.84h1.1V-2.67a13.358,13.358,0,0,1,.72,1.3Zm5.29.23L4.57-3.17l-1.02.19v-5.5H2.43v5.7l-2.97.53.18,1.11,2.79-.5V.86H3.55v-2.7ZM12.11-5.1h-.76V-6.38h.76Zm0,2.33h-.76V-4.04h.76ZM7.91-4.04h.72v1.27H7.91Zm2.45,0v1.27H9.62V-4.04ZM9.62-5.1V-6.38h.74V-5.1ZM7.91-6.38h.72V-5.1H7.91ZM6.86-5.1H5.52v1.06H6.86v1.27H5.67v1.06h8.69V-2.77H13.2V-4.04h1.3V-5.1H13.2V-6.38h.94V-7.43h-6a5.383,5.383,0,0,0,.39-.7L7.37-8.47A6.149,6.149,0,0,1,5.3-6.08a11.013,11.013,0,0,1,.97.78,6.872,6.872,0,0,0,.59-.52ZM6.55.88a5.472,5.472,0,0,0,1.14-2.1L6.54-1.5A4.928,4.928,0,0,1,5.42.42ZM8.33-1.15A12.694,12.694,0,0,1,8.52.76L9.68.59a12.949,12.949,0,0,0-.24-1.87Zm1.98.02a10.656,10.656,0,0,1,.51,1.9L12.01.54a11.144,11.144,0,0,0-.58-1.86Zm1.98-.05A12.88,12.88,0,0,1,13.47.87L14.69.46a13.564,13.564,0,0,0-1.26-2Zm9.9-5.54A7.515,7.515,0,0,0,20.6-7.93l-.57.8a8.045,8.045,0,0,1,1.55,1.3ZM19.57-4.61a8.443,8.443,0,0,1,1.64,1.24l.6-.95a8.784,8.784,0,0,0-1.68-1.15Zm-.9-3.31a17.008,17.008,0,0,1-.55,2.34l.75.21c.25-.58.54-1.53.8-2.33ZM16.73-5.58a10.026,10.026,0,0,0-.51-2.29l-.83.22a9.911,9.911,0,0,1,.45,2.3Zm2.73,3.29c-.21-.28-1.16-1.4-1.45-1.69v-.07h1.48V-5.16H18.01V-8.43h-1.1v3.27H15.4v1.11h1.14a9.258,9.258,0,0,1-1.32,2.59,7.067,7.067,0,0,1,.54,1.23,10.263,10.263,0,0,0,1.15-2.46V.84h1.1V-2.67a13.358,13.358,0,0,1,.72,1.3Zm5.29.23-.18-1.11-1.02.19v-5.5H22.43v5.7l-2.97.53.18,1.11,2.79-.5V.86h1.12v-2.7Z" transform="translate(37 656)" fill="#fff"/></g></svg>