<svg xmlns="http://www.w3.org/2000/svg" width="271" height="67" viewBox="0 0 271 67"><g transform="translate(-283 -1304)"><g transform="translate(-424.417 1283.933)"><text transform="translate(776.417 83.068)" fill="#1a1311" font-size="12" font-family="NotoSansJP-Bold, Noto Sans JP" font-weight="700"><tspan x="0" y="0">受付時間　8:30〜17:30【年中無休】</tspan></text><rect width="68" height="5" transform="translate(846.418 35.068)" fill="#ffd800"/><rect width="55" height="5" transform="translate(921.418 35.068)" fill="#ffd800"/><text transform="translate(847.417 36.068)" fill="#ed4c24" font-size="14" font-family="NotoSansJP-Bold, Noto Sans JP" font-weight="700" letter-spacing="0.23em"><tspan x="0" y="0">ささっと</tspan></text><text transform="translate(921.417 36.068)" fill="#ed4c24" font-size="14" font-family="NotoSansJP-Bold, Noto Sans JP" font-weight="700"><tspan x="0" y="0">ゴーゴー</tspan></text><text transform="translate(759.418 67.068)" fill="#ed4c24" font-size="32" font-family="SegoeUI-Bold, Segoe UI" letter-spacing="0.01em" font-weight="700"><tspan x="0" y="0">0120-3310-55</tspan></text></g><g transform="translate(283.107 1313.96)"><circle cx="23" cy="23" r="23" transform="translate(-0.107 -0.96)" fill="#ed4c24"/><path d="M24.994,18.9,21.4,15.3a2.386,2.386,0,0,0-3.974.9,2.441,2.441,0,0,1-2.82,1.539c-2.564-.642-6.025-3.979-6.667-6.673A2.325,2.325,0,0,1,9.481,8.244a2.39,2.39,0,0,0,.9-3.977L6.788.673a2.558,2.558,0,0,0-3.461,0L.892,3.11c-2.435,2.566.258,9.366,6.284,15.4S20,27.363,22.559,24.8l2.435-2.437A2.564,2.564,0,0,0,24.994,18.9Z" transform="translate(13.013 7.099) rotate(11)" fill="#fff"/></g><text transform="translate(371 1321)" fill="#ed4c24" font-size="12" font-family="NotoSansJP-Bold, Noto Sans JP" font-weight="700"><tspan x="-36" y="0">通話料無料！</tspan></text></g></svg>