<svg xmlns="http://www.w3.org/2000/svg" width="219.948" height="228.787" viewBox="0 0 219.948 228.787"><g transform="translate(-114.342 -27.675)" opacity="0.5"><g transform="translate(116.268 27.675)"><g transform="translate(152.25)"><path d="M661.087,28.1c5.125-.977,10.215,13.759,16.145,16.626,5.246,2.536,12.091,5.736,16.1,4.175,2.865-1.114,4.634-8.12,6.012-5.5.752,1.43-.66,3.5-1.562,6.967-.978,3.762.748,4.788,2.363,6.582s4.542-.162,5.005.964-6.308,3.559-9.772,5.683-7.208-2.218-13,5.495c-4.006,5.334-2.92,10.936-4.691,10.8s-10.5-8.39-15.691-9.8-6.927,5.046-8.528,5.137c-1.478.084-4.639-6.835-7.659-2.38-2.556,3.772,3.492,3.887,5.308,6.092s6.133,3.9,4.039,4.455-4.345-1.281-6.649.321-1.29,4.911-5.19,4.73,1.691-6.267.281-8.354-5.33-4.141-3.487-8.029,4.167-3.881,5.689-5.322c2.569-2.431-1.573-5.929.681-6.887s6.986,4.262,10.422,1.336c1.659-1.414-.359-6.434-.091-7.678.274-1.269,4.523-5.326,4.309-10.022C660.715,34.409,656.409,28.988,661.087,28.1Z" transform="translate(-639.517 -27.938)" fill="#cad9d7"/><path d="M643.347,88.3c-.1,0-.2,0-.3-.007a1.527,1.527,0,0,1-1.328-.593c-.506-.8.1-2.247.75-3.776.661-1.565,1.346-3.184.771-4.035a12.246,12.246,0,0,0-1.4-1.584c-1.646-1.676-3.51-3.575-2.1-6.555a8.451,8.451,0,0,1,4.111-4.281,7.691,7.691,0,0,0,1.6-1.074c1.32-1.25.8-2.787.341-4.143-.4-1.172-.772-2.279.374-2.766a1.724,1.724,0,0,1,.679-.128,8.422,8.422,0,0,1,3.063,1.028,10.882,10.882,0,0,0,4.268,1.328h0a3.533,3.533,0,0,0,2.383-.875c1.044-.889.553-3.321.159-5.275a7.784,7.784,0,0,1-.286-2.341,7.154,7.154,0,0,1,1.078-1.832c1.345-1.946,3.377-4.887,3.228-8.161a43.439,43.439,0,0,0-1.439-8.667c-.656-2.678-1.13-4.614-.385-5.773a2.67,2.67,0,0,1,1.874-1.071,2.745,2.745,0,0,1,.513-.049c2.692,0,5.321,3.912,8.1,8.054,2.425,3.609,4.932,7.341,7.6,8.63,3.77,1.822,9.466,4.576,13.594,4.576a6.68,6.68,0,0,0,2.42-.4c1.284-.5,2.34-2.212,3.273-3.724.816-1.322,1.46-2.366,2.1-2.366.293,0,.546.21.774.642.516.981.068,2.221-.551,3.937-.324.9-.693,1.918-1,3.11-.827,3.184.33,4.382,1.67,5.77.22.228.445.461.668.709a2.432,2.432,0,0,0,1.947.762,9.369,9.369,0,0,0,1.271-.116,7.3,7.3,0,0,1,.934-.092.847.847,0,0,1,.873.443c.315.766-1.746,1.8-5.133,3.411-1.672.8-3.4,1.622-4.683,2.409a5.249,5.249,0,0,1-2.9.687c-.312,0-.63-.011-.953-.022s-.674-.023-1.022-.023c-2.324,0-4.913.584-8.1,4.824a19.4,19.4,0,0,0-3.311,8.1c-.362,1.7-.6,2.813-1.478,2.75-.756-.058-2.633-1.462-5.007-3.241-3.412-2.555-7.657-5.734-10.7-6.56a5.39,5.39,0,0,0-1.4-.2c-2.538,0-4.106,2.1-5.25,3.625-.7.938-1.256,1.679-1.838,1.712h-.033c-.514,0-1.13-.654-1.91-1.483-1-1.067-2.253-2.394-3.513-2.394a2.661,2.661,0,0,0-2.115,1.448,2.407,2.407,0,0,0-.547,1.973c.277.979,1.565,1.56,2.929,2.175a8.142,8.142,0,0,1,2.92,1.81,14.7,14.7,0,0,0,2.8,2.347c1.106.785,1.906,1.352,1.821,1.818-.038.211-.246.365-.637.468a3.531,3.531,0,0,1-.917.112,9.43,9.43,0,0,1-1.756-.227,9.7,9.7,0,0,0-1.815-.233,3.556,3.556,0,0,0-2.126.653,5,5,0,0,0-1.622,2.277C646.1,87.1,645.559,88.3,643.347,88.3Zm3.5-28.718a1.51,1.51,0,0,0-.592.11c-.909.386-.687,1.2-.249,2.489.457,1.349,1.026,3.029-.4,4.377a7.872,7.872,0,0,1-1.647,1.107,8.257,8.257,0,0,0-4.018,4.182c-1.346,2.838.461,4.679,2.056,6.3a12.368,12.368,0,0,1,1.423,1.616c.642.951-.066,2.627-.751,4.247-.6,1.409-1.211,2.865-.767,3.57a1.329,1.329,0,0,0,1.15.489c2.316.105,2.827-1.024,3.423-2.342a5.178,5.178,0,0,1,1.7-2.368,3.768,3.768,0,0,1,2.253-.693,9.834,9.834,0,0,1,1.857.237,9.137,9.137,0,0,0,1.714.223,3.319,3.319,0,0,0,.86-.1c.29-.077.454-.178.475-.292.059-.326-.81-.943-1.731-1.6a14.869,14.869,0,0,1-2.84-2.388A8.01,8.01,0,0,0,647.921,77c-1.412-.637-2.747-1.239-3.052-2.318a2.606,2.606,0,0,1,.577-2.159,2.861,2.861,0,0,1,2.3-1.545c1.356,0,2.642,1.367,3.676,2.464.684.727,1.33,1.413,1.748,1.413.5-.027,1.052-.767,1.693-1.623,1.173-1.568,2.78-3.715,5.429-3.715a5.6,5.6,0,0,1,1.462.2c3.088.836,7.354,4.03,10.78,6.6,2.253,1.687,4.2,3.144,4.89,3.2s.9-.981,1.242-2.574a19.6,19.6,0,0,1,3.351-8.183c3.242-4.318,5.893-4.913,8.275-4.913.351,0,.694.012,1.03.023s.636.022.945.022a5.044,5.044,0,0,0,2.78-.655c1.293-.793,3.027-1.62,4.7-2.42,2.472-1.179,5.273-2.516,5.023-3.125-.088-.213-.287-.3-.667-.3a7.125,7.125,0,0,0-.9.09,9.554,9.554,0,0,1-1.3.118,2.673,2.673,0,0,1-2.113-.835c-.221-.246-.445-.477-.663-.7-1.387-1.436-2.584-2.677-1.725-5.981.313-1.2.682-2.226,1.008-3.13.6-1.663,1.034-2.864.564-3.758-.185-.352-.373-.523-.576-.523-.521,0-1.2,1.1-1.915,2.26-.951,1.541-2.029,3.288-3.382,3.815a6.907,6.907,0,0,1-2.5.419c-4.179,0-9.9-2.767-13.691-4.6-2.721-1.315-5.245-5.073-7.687-8.706-2.748-4.091-5.345-7.955-7.918-7.955a2.522,2.522,0,0,0-.471.044,2.465,2.465,0,0,0-1.728.973c-.693,1.079-.229,2.975.414,5.6a43.669,43.669,0,0,1,1.446,8.71c.152,3.35-1.906,6.328-3.268,8.3a7.4,7.4,0,0,0-1.044,1.752,7.863,7.863,0,0,0,.287,2.249c.406,2.012.911,4.515-.233,5.49a3.75,3.75,0,0,1-2.528.928h0a11.042,11.042,0,0,1-4.362-1.349A8.313,8.313,0,0,0,646.847,59.585Z" transform="translate(-639.241 -27.675)" fill="#fff"/></g><g transform="translate(153.727 58.882)"><path d="M655.933,242.364c.813.727,6.038.691,8.574-.377-1.876-3.892-3.463-7.73-3.291-9.073.314-2.465,1.593-6.245.774-5.984-2.444.776-3.888-1.126-5.575-1.357s-2.156,4.2-1.858,5.414,2.443-1.458,3.582-1.413.475,5.114-.037,5.631-1.7-1.86-2.352-1.649c-.479.156-.677,2.991-2.34,2.5s-.174-5.3-2.455-5.918c-1.4-.377-2.041,1.124-1.976,2.057s-.454,4.044-1.281,4.595-1.308-.207-2.394,1.013a3.01,3.01,0,0,0-.71,2.36C648.57,239.584,652.706,239.475,655.933,242.364Z" transform="translate(-644.469 -225.452)" fill="#cad9d7"/><path d="M658.719,242.7a6.011,6.011,0,0,1-3.125-.523,10.372,10.372,0,0,0-7.345-2.5,26.959,26.959,0,0,0-3.9.327.113.113,0,0,1-.086-.023.112.112,0,0,1-.041-.079,3.124,3.124,0,0,1,.738-2.442,1.926,1.926,0,0,1,1.589-.807,1.421,1.421,0,0,0,.826-.224c.758-.506,1.3-3.538,1.231-4.494a2.486,2.486,0,0,1,.6-1.761,1.461,1.461,0,0,1,1.517-.412c1.306.352,1.446,1.983,1.569,3.423.1,1.178.2,2.291.888,2.5a1.2,1.2,0,0,0,.338.052c.784,0,1.159-.982,1.432-1.7.173-.456.3-.786.5-.853.371-.119.827.38,1.3.918.329.375.7.8.918.8a.12.12,0,0,0,.091-.041,9.663,9.663,0,0,0,.447-5.1c-.087-.221-.2-.336-.335-.341h0a4.013,4.013,0,0,0-1.766.93,3.4,3.4,0,0,1-1.473.8c-.159,0-.365-.07-.447-.4-.244-1,.018-3.9.914-5.04a1.128,1.128,0,0,1,1.067-.511,5.753,5.753,0,0,1,1.821.707,5.547,5.547,0,0,0,2.588.834,3.643,3.643,0,0,0,1.118-.18.271.271,0,0,1,.312.08c.245.306.03,1.328-.371,3.108-.225,1-.458,2.033-.57,2.916-.143,1.123,1.022,4.323,3.281,9.011a.112.112,0,0,1,0,.088.114.114,0,0,1-.061.063A16.106,16.106,0,0,1,658.719,242.7Zm-10.47-3.247a10.717,10.717,0,0,1,7.494,2.558,6.153,6.153,0,0,0,2.976.465,16.207,16.207,0,0,0,5.372-.818c-1.6-3.327-3.438-7.551-3.25-9.029.114-.894.348-1.932.574-2.937.283-1.258.6-2.683.414-2.92-.016-.02-.035-.018-.07-.007a3.909,3.909,0,0,1-1.185.19,5.722,5.722,0,0,1-2.691-.859,5.6,5.6,0,0,0-1.748-.684.919.919,0,0,0-.862.428,7.854,7.854,0,0,0-.873,4.849c.05.205.145.233.23.233a3.556,3.556,0,0,0,1.342-.758,4.068,4.068,0,0,1,1.873-.973h.033c.232.009.411.171.534.482.487,1.237-.021,4.859-.5,5.339a.343.343,0,0,1-.249.107c-.316,0-.673-.406-1.085-.876-.38-.433-.818-.932-1.062-.852-.1.034-.243.4-.365.72-.3.778-.7,1.843-1.64,1.843a1.421,1.421,0,0,1-.4-.061c-.838-.247-.94-1.434-1.047-2.691-.123-1.434-.25-2.916-1.405-3.227a1.23,1.23,0,0,0-1.3.349,2.283,2.283,0,0,0-.54,1.593c.06.853-.421,4.09-1.33,4.7a1.629,1.629,0,0,1-.941.262,1.7,1.7,0,0,0-1.432.732,2.857,2.857,0,0,0-.689,2.158A26.848,26.848,0,0,1,648.25,239.458Z" transform="translate(-644.205 -225.187)" fill="#fff"/></g><g transform="translate(151.493 73.183)"><path d="M646.254,298.617c.551.551,2.2-.551,2.752-.551,1.651-2.2-.55-4.955,0-7.707.939-4.7,1.081-9.391,2.125-14.086a1.313,1.313,0,0,1-.474-.228c-3.227-2.888-7.363-2.78-11.339-2.2.028.409.091.78.1,1.077.023.826,1.331,1.973,1.17,2.8s-.252,4.038-1.559,3.854-2.041,1.423-1.95,2.091a1.2,1.2,0,0,0,1.858.684c.864-.506,1.568.4,1.95,2.982s-.344,3.372-1.514,6.056a10.421,10.421,0,0,0-.555,1.617C641.6,295.963,644.469,296.386,646.254,298.617Z" transform="translate(-636.96 -273.404)" fill="#cad9d7"/><path d="M646.437,298.62h0a.712.712,0,0,1-.524-.187c-1.4-1.748-3.464-2.373-5.649-3.034-.572-.173-1.163-.352-1.745-.553a.112.112,0,0,1-.072-.133,10.606,10.606,0,0,1,.561-1.633c.216-.5.417-.927.6-1.317a6.746,6.746,0,0,0,.907-4.678c-.287-1.948-.784-3.021-1.4-3.021a.771.771,0,0,0-.386.12,1.516,1.516,0,0,1-.772.218,1.236,1.236,0,0,1-1.253-.984,2.329,2.329,0,0,1,.6-1.614,1.6,1.6,0,0,1,1.471-.6.641.641,0,0,0,.091.007h0c.886,0,1.126-2.034,1.256-3.126.031-.265.058-.494.088-.645.079-.4-.253-.926-.573-1.434a3.036,3.036,0,0,1-.6-1.34c0-.156-.025-.34-.046-.533-.019-.169-.04-.35-.052-.539a.111.111,0,0,1,.1-.118,27.189,27.189,0,0,1,3.936-.33,10.717,10.717,0,0,1,7.494,2.558,1.17,1.17,0,0,0,.432.2.112.112,0,0,1,.076.131c-.553,2.488-.858,5.02-1.153,7.468-.261,2.168-.53,4.409-.972,6.616a8.236,8.236,0,0,0,.281,3.417c.35,1.556.68,3.027-.3,4.335a.11.11,0,0,1-.089.045,3.194,3.194,0,0,0-.848.279A4.4,4.4,0,0,1,646.437,298.62Zm-7.748-3.951c.547.186,1.1.354,1.639.517,2.22.672,4.316,1.306,5.751,3.1a.5.5,0,0,0,.358.112,4.288,4.288,0,0,0,1.375-.409,3.772,3.772,0,0,1,.874-.293c.882-1.217.566-2.623.232-4.11a8.419,8.419,0,0,1-.282-3.51c.44-2.2.709-4.435.969-6.6.291-2.421.593-4.924,1.134-7.391a1.233,1.233,0,0,1-.417-.219,10.371,10.371,0,0,0-7.345-2.5,26.667,26.667,0,0,0-3.8.313c.012.148.029.291.044.426.022.2.043.387.048.553a2.972,2.972,0,0,0,.564,1.227,2.537,2.537,0,0,1,.6,1.6c-.028.143-.055.368-.085.629-.147,1.242-.393,3.322-1.477,3.323h0a.848.848,0,0,1-.121-.009,1.423,1.423,0,0,0-1.273.528,2.126,2.126,0,0,0-.551,1.437,1.011,1.011,0,0,0,1.032.791,1.3,1.3,0,0,0,.659-.187.991.991,0,0,1,.5-.15c.759,0,1.3,1.081,1.618,3.212a7,7,0,0,1-.926,4.8c-.181.388-.381.818-.6,1.312A10.443,10.443,0,0,0,638.689,294.669Z" transform="translate(-636.698 -273.141)" fill="#fff"/></g><g transform="translate(149.307 94.675)"><path d="M633.939,359.691c-2.752-1.1-4.4,3.3-2.752,4.955,1.652,1.1,4.955,2.2,7.157,1.1,1.1-.551-1.1-2.753,0-3.854,4.206-2.8,3.651-7.989,3.051-12.523a.528.528,0,0,1-.3-.14c-1.785-2.231-4.654-2.654-7.437-3.613-.447,1.748-.314,3.039-1.279,4.9a18.314,18.314,0,0,1-2.652,3.716C631.922,355.207,633.939,357.111,633.939,359.691Z" transform="translate(-629.615 -345.507)" fill="#cad9d7"/><path d="M635.93,366.052a9.984,9.984,0,0,1-5.07-1.576,3.253,3.253,0,0,1-.392-3.475,2.5,2.5,0,0,1,3.092-1.734c-.073-2.139-1.61-4.072-4.143-5.2a.112.112,0,0,1-.043-.17c.146-.193.314-.386.509-.611a14.549,14.549,0,0,0,2.134-3.089,9.5,9.5,0,0,0,.951-3.223c.083-.521.168-1.061.319-1.651a.112.112,0,0,1,.055-.07.11.11,0,0,1,.089-.007c.579.2,1.167.378,1.737.55,2.22.672,4.316,1.306,5.75,3.1a.422.422,0,0,0,.229.1.112.112,0,0,1,.093.1c.542,4.1,1.285,9.706-3.1,12.63-.5.506-.211,1.308.072,2.083.275.754.535,1.467-.084,1.777A4.886,4.886,0,0,1,635.93,366.052Zm-3.113-6.687a2.441,2.441,0,0,0-2.143,1.721A3.035,3.035,0,0,0,631,364.3a9.752,9.752,0,0,0,4.929,1.525,4.663,4.663,0,0,0,2.1-.444c.412-.206.265-.7-.026-1.5s-.624-1.711,0-2.332c4.259-2.842,3.563-8.32,3.03-12.351a.6.6,0,0,1-.277-.154c-1.4-1.748-3.464-2.372-5.649-3.034-.534-.162-1.085-.328-1.63-.513-.13.535-.209,1.032-.286,1.514a9.692,9.692,0,0,1-.974,3.291,14.77,14.77,0,0,1-2.163,3.133c-.154.178-.292.337-.414.489,2.6,1.2,4.148,3.246,4.148,5.5a.112.112,0,0,1-.153.1A2.2,2.2,0,0,0,632.818,359.365Z" transform="translate(-629.351 -345.243)" fill="#fff"/></g><g transform="translate(157.607 96.122)"><path d="M675.746,350.531a4.462,4.462,0,0,0-4.6,2.146c-1.877,2.815-4.953.832-7.525-.838a3,3,0,0,1-.182.287c-.472,0-1.751.806-2.454.69.6,4.534,1.155,9.718-3.051,12.523a1.152,1.152,0,0,0-.311.956c3.65-.068,5.754,2.653,8.261,1.656-1.282-1.92.91-5.115,2.393-7.008,2.32-2.96,3.825.623,4.4.431s-.16-4.412.531-6.177A31.579,31.579,0,0,1,675.746,350.531Z" transform="translate(-657.506 -350.369)" fill="#cad9d7"/><path d="M664.476,368.021a7.538,7.538,0,0,1-2.837-.809,10.3,10.3,0,0,0-4.145-1.069h-.132a.108.108,0,0,1-.113-.1,1.254,1.254,0,0,1,.343-1.044c4.286-2.86,3.554-8.391,3.019-12.429a.112.112,0,0,1,.129-.125,3.427,3.427,0,0,0,1.5-.4,3.782,3.782,0,0,1,.873-.292c.044-.062.081-.126.119-.19l.027-.046a.111.111,0,0,1,.071-.052.112.112,0,0,1,.086.015c1.613,1.047,3.441,2.233,5.021,2.233h0a2.708,2.708,0,0,0,2.35-1.364,4.588,4.588,0,0,1,4.707-2.194.112.112,0,0,1,.079.171,31.759,31.759,0,0,0-2.525,4.648,12.052,12.052,0,0,0-.295,3.848c.031,1.5.032,2.283-.3,2.394a.258.258,0,0,1-.083.013h0c-.2,0-.423-.223-.725-.532a2.814,2.814,0,0,0-1.8-1.083,2.4,2.4,0,0,0-1.747,1.134c-2.5,3.191-3.3,5.5-2.388,6.877a.111.111,0,0,1,.014.095.112.112,0,0,1-.065.071A3.155,3.155,0,0,1,664.476,368.021Zm-6.982-2.1a10.477,10.477,0,0,1,4.232,1.087,7.4,7.4,0,0,0,2.75.791,2.933,2.933,0,0,0,.977-.165c-.872-1.486-.061-3.785,2.473-7.02a2.6,2.6,0,0,1,1.923-1.219,2.978,2.978,0,0,1,1.956,1.15c.224.229.455.465.565.465.208-.067.183-1.288.165-2.18a12.152,12.152,0,0,1,.31-3.934,31.469,31.469,0,0,1,2.449-4.537,4.358,4.358,0,0,0-4.317,2.118,2.953,2.953,0,0,1-2.536,1.463h0c-1.614,0-3.43-1.159-5.045-2.206a2.172,2.172,0,0,1-.13.2.112.112,0,0,1-.089.044,3.2,3.2,0,0,0-.847.278,4.265,4.265,0,0,1-1.478.424c.54,4.083,1.218,9.6-3.118,12.492a.987.987,0,0,0-.266.751Z" transform="translate(-657.243 -350.106)" fill="#fff"/></g><g transform="translate(126.646 103.341)"><path d="M557.881,399.947c1.652-1.1,3.853-1.651,5.505-3.3.55,1.652,2.753,1.652,2.753,3.854,2.749,0,4.658-1.96,6.526-3.684-.8-1.567-1.244-4.132.081-4.573,3.183-1.592,3.781-4.618,4.9-7.214-1.562-1.691.08-5.987,2.8-4.9,0-2.581-2.017-4.485-4.212-5.459a3.616,3.616,0,0,0-.212.306c-.525.857.157,6.185-3.645,7.927-7.582,3.475-4.96,4.8-7.117,7.778s-8.074,5.792-10.311,6.721a12.07,12.07,0,0,0-1.376.707C554.344,399.816,555.777,401,557.881,399.947Z" transform="translate(-553.468 -374.558)" fill="#cad9d7"/><path d="M565.875,400.346a.112.112,0,0,1-.112-.112,2.6,2.6,0,0,0-1.393-2.247,3.539,3.539,0,0,1-1.292-1.407,12.561,12.561,0,0,1-3.387,2.114,16.592,16.592,0,0,0-2.013,1.083,3.525,3.525,0,0,1-1.575.416h0c-1.2,0-2.225-.818-2.89-2.3a.112.112,0,0,1,.046-.142,12.048,12.048,0,0,1,1.389-.713c2.883-1.2,8.288-3.951,10.263-6.683a6.547,6.547,0,0,0,1.058-2.374c.443-1.621.826-3.021,6.1-5.439,2.767-1.268,3.113-4.5,3.319-6.428a4.447,4.447,0,0,1,.278-1.457,3.672,3.672,0,0,1,.219-.315.112.112,0,0,1,.134-.034c2.679,1.188,4.278,3.267,4.278,5.561a.112.112,0,0,1-.153.1,2.2,2.2,0,0,0-.816-.167,2.42,2.42,0,0,0-2.111,1.649,3.1,3.1,0,0,0,.247,3.237.111.111,0,0,1,.021.12c-.2.467-.391.958-.573,1.433-.854,2.219-1.736,4.513-4.383,5.836a1.01,1.01,0,0,0-.626.614,5.5,5.5,0,0,0,.6,3.809.111.111,0,0,1-.024.132l-.379.351C570.321,398.637,568.483,400.346,565.875,400.346Zm-2.752-4.077a.107.107,0,0,1,.026,0,.111.111,0,0,1,.08.073,3.1,3.1,0,0,0,1.275,1.463,2.841,2.841,0,0,1,1.481,2.313c2.463-.048,4.241-1.7,5.961-3.3l.318-.295a5.575,5.575,0,0,1-.565-3.919,1.211,1.211,0,0,1,.748-.735c2.555-1.279,3.422-3.532,4.26-5.711.175-.455.356-.925.549-1.376a3.361,3.361,0,0,1-.239-3.423,2.479,2.479,0,0,1,3.058-1.657c-.073-2.116-1.578-4.031-4.062-5.16-.059.08-.109.155-.152.226a4.627,4.627,0,0,0-.246,1.364c-.211,1.977-.565,5.286-3.448,6.606-5.182,2.375-5.552,3.729-5.981,5.3a6.741,6.741,0,0,1-1.092,2.446c-2.468,3.413-9.558,6.426-10.358,6.758a11.376,11.376,0,0,0-1.276.65,3.143,3.143,0,0,0,2.644,2.079h0a3.3,3.3,0,0,0,1.463-.386,16.667,16.667,0,0,1,2.028-1.092,11.963,11.963,0,0,0,3.449-2.191A.112.112,0,0,1,563.123,396.269Z" transform="translate(-553.205 -374.295)" fill="#fff"/></g><g transform="translate(108.558 118.259)"><path d="M498.123,444.468c1.591-1.194,3.182-2.384,4.774-3.37-.157-.084-.313-.172-.47-.266-1.273-.848-1.807-6.708.74-8.249a5.56,5.56,0,0,1,.485-1.97c.826-1.768,4.083-2.752,3.693-5.483-.185-1.292-5.72.824-7.258,2.23s.014,2.4-.716,6.441c-.68,3.768-1.832,4.972-4.379,7.57a13.443,13.443,0,0,1-2.191,1.773C494.5,444.613,497.324,445.267,498.123,444.468Z" transform="translate(-492.689 -424.617)" fill="#cad9d7"/><path d="M496.711,444.661h0a7.288,7.288,0,0,1-4.246-1.695.111.111,0,0,1,.01-.177,13.413,13.413,0,0,0,2.173-1.759c2.519-2.571,3.669-3.744,4.349-7.512a12.071,12.071,0,0,0,.082-3.929c-.127-1.067-.21-1.772.668-2.574a14.084,14.084,0,0,1,6.545-2.661c.684,0,.867.271.9.5.254,1.78-1.008,2.86-2.121,3.813a5.849,5.849,0,0,0-1.581,1.733,5.451,5.451,0,0,0-.475,1.929.111.111,0,0,1-.054.089c-1.514.916-1.726,3.256-1.747,4.219-.038,1.751.406,3.438,1.011,3.842.151.09.306.178.461.26a.112.112,0,0,1,.006.193c-1.617,1-3.29,2.257-4.766,3.364A1.71,1.71,0,0,1,496.711,444.661Zm-3.989-1.77a7.022,7.022,0,0,0,3.988,1.547h0a1.511,1.511,0,0,0,1.069-.312c1.442-1.083,3.057-2.295,4.632-3.284q-.153-.085-.306-.176c-.679-.452-1.156-2.186-1.115-4.035.022-.99.242-3.382,1.8-4.374a5.676,5.676,0,0,1,.492-1.952,6,6,0,0,1,1.639-1.809c1.122-.96,2.282-1.953,2.045-3.612-.029-.2-.257-.306-.679-.306a14.03,14.03,0,0,0-6.394,2.6c-.793.725-.723,1.314-.6,2.383a12.26,12.26,0,0,1-.084,3.995c-.692,3.836-1.934,5.1-4.409,7.629A13.3,13.3,0,0,1,492.722,442.891Z" transform="translate(-492.425 -424.354)" fill="#fff"/></g><g transform="translate(98.478 136.379)"><path d="M461.118,499.29c4.4,1.1,6.606-4.955,9.909-6.056,1.1-.551,3.854.551,4.4,0,1.435-2.392,1.207-5.2,1.123-7.7-.742.534-1.483,1.088-2.225,1.644-.8.8-3.62.144-5.322-1.324-1.556,1.049-2.655,1.627-2.386,3.664a6.247,6.247,0,0,1-5.643,7.226,2.672,2.672,0,0,1-2.052-.507A3.682,3.682,0,0,0,461.118,499.29Z" transform="translate(-458.816 -485.422)" fill="#cad9d7"/><path d="M461.9,499.271h0a4.456,4.456,0,0,1-1.077-.136,3.807,3.807,0,0,1-2.274-3.153.112.112,0,0,1,.18-.1,2.57,2.57,0,0,0,1.97.484,6.66,6.66,0,0,0,4.409-2.429,6.124,6.124,0,0,0,1.137-4.671c-.262-1.972.743-2.642,2.133-3.57l.3-.2a.111.111,0,0,1,.135.008,7.019,7.019,0,0,0,4.1,1.641,1.511,1.511,0,0,0,1.07-.312c.762-.572,1.5-1.121,2.239-1.656a.112.112,0,0,1,.177.087l.02.564c.087,2.322.186,4.955-1.16,7.2a.919.919,0,0,1-.7.213,9.584,9.584,0,0,1-1.321-.147,11.056,11.056,0,0,0-1.592-.171,1.888,1.888,0,0,0-.833.147,9.832,9.832,0,0,0-3.545,2.827C465.7,497.556,464.085,499.271,461.9,499.271Zm-3.1-3.064a3.617,3.617,0,0,0,2.1,2.72,4.315,4.315,0,0,0,1,.121c2.086,0,3.67-1.679,5.2-3.3a9.962,9.962,0,0,1,3.623-2.879,2.067,2.067,0,0,1,.918-.165,11.219,11.219,0,0,1,1.627.173,9.427,9.427,0,0,0,1.287.145.781.781,0,0,0,.529-.126c1.294-2.164,1.2-4.761,1.111-7.053l-.013-.355c-.683.495-1.362,1-2.054,1.52a1.712,1.712,0,0,1-1.215.367,7.285,7.285,0,0,1-4.181-1.64l-.231.154c-1.372.916-2.279,1.521-2.036,3.355a6.34,6.34,0,0,1-1.182,4.837,6.887,6.887,0,0,1-4.558,2.514A2.829,2.829,0,0,1,458.8,496.207Z" transform="translate(-458.553 -485.159)" fill="#fff"/></g><g transform="translate(103.198 144.903)"><path d="M483.778,521.664c-1.248-2.123-1.362-5.275-3.059-7.535-1.935,1.483-3.629,4.218-5.93,5.1.541,2.852,1.393,5.55,2.07,8.216C480.239,526.517,482.987,524.53,483.778,521.664Z" transform="translate(-474.677 -514.017)" fill="#cad9d7"/><path d="M476.6,527.292a.111.111,0,0,1-.056-.015.11.11,0,0,1-.052-.069c-.217-.854-.457-1.73-.689-2.577-.5-1.821-1.014-3.7-1.383-5.646a.112.112,0,0,1,.07-.125,11.329,11.329,0,0,0,3.762-3.03,18.97,18.97,0,0,1,2.141-2.053.113.113,0,0,1,.083-.022.112.112,0,0,1,.074.043,13.207,13.207,0,0,1,1.862,4.354,14.209,14.209,0,0,0,1.2,3.192.109.109,0,0,1,.011.086c-.748,2.709-3.3,4.843-7,5.857A.114.114,0,0,1,476.6,527.292Zm-1.943-8.257c.366,1.9.872,3.749,1.361,5.537.222.812.452,1.65.662,2.47,3.541-1,5.984-3.043,6.719-5.625a14.589,14.589,0,0,1-1.2-3.2,13.38,13.38,0,0,0-1.759-4.191,19.8,19.8,0,0,0-2.025,1.959A11.771,11.771,0,0,1,474.652,519.034Z" transform="translate(-474.414 -513.754)" fill="#fff"/></g><g transform="translate(104.413 152.464)"><path d="M490.643,551.007c-.173-.673-4.079-3.381-4.279-3.7s1.658-4.168,2.986-4.657a1.408,1.408,0,0,1,.09-1.086,4.282,4.282,0,0,1-2.794-2.115c-.791,2.866-3.539,4.853-6.919,5.779,1.2,4.712,1.844,9.321-.747,14.5-.368.736.25,1.472,1.193,2.208,1.462-2.6,2.781-5.848,3.453-6.716,1.172-1.515,4.763-1.68,6.211-1.5S490.817,551.681,490.643,551.007Z" transform="translate(-478.76 -539.339)" fill="#cad9d7"/><path d="M479.907,561.789a.112.112,0,0,1-.069-.024c-.8-.627-1.666-1.46-1.223-2.346,2.694-5.387,1.794-10.271.739-14.425a.112.112,0,0,1,.079-.135c3.621-.992,6.115-3.07,6.841-5.7a.111.111,0,0,1,.2-.027,4.16,4.16,0,0,0,2.725,2.063.114.114,0,0,1,.074.062.112.112,0,0,1,0,.1,1.3,1.3,0,0,0-.083,1.006.111.111,0,0,1-.069.135c-1.25.46-3.03,4.1-2.926,4.5.056.086.662.552,1.248,1,1.6,1.228,2.928,2.281,3.04,2.717.143.557.426,1.921-.054,2.54a.843.843,0,0,1-.7.322h0a1.359,1.359,0,0,1-.169-.011,9.193,9.193,0,0,0-1.07-.055c-1.869,0-4.174.4-5.04,1.517a22,22,0,0,0-1.49,2.84c-.586,1.225-1.25,2.613-1.954,3.862a.111.111,0,0,1-.075.055Zm-.31-16.744c1.053,4.171,1.923,9.065-.782,14.475-.28.56.047,1.176,1.059,1.989.676-1.213,1.317-2.551,1.883-3.735a21.392,21.392,0,0,1,1.515-2.88c.915-1.183,3.295-1.6,5.217-1.6a9.377,9.377,0,0,1,1.1.057.673.673,0,0,0,.671-.227c.431-.556.12-1.938.014-2.348s-1.891-1.774-2.959-2.6A10.435,10.435,0,0,1,486,547.105c-.039-.063-.062-.18.071-.571.357-1.05,1.742-3.68,2.878-4.212a1.479,1.479,0,0,1,.066-.946,4.314,4.314,0,0,1-2.6-1.919C485.6,542.026,483.129,544.05,479.6,545.044Z" transform="translate(-478.495 -539.075)" fill="#fff"/></g><g transform="translate(90.938 143.852)"><path d="M445.852,516.744a4.1,4.1,0,0,1-2.531.147,3.682,3.682,0,0,1-2.19-3.053c-1.106-.858-1.461-2.5-2.077-3.071-.462-.427-2.872-.008-5.463.619,2.187,5.322,6.876,8.9,10.28,13.763a1.925,1.925,0,0,1,.484.86,34.352,34.352,0,0,1,3.989.745C447.644,523.5,446.515,520.237,445.852,516.744Z" transform="translate(-433.48 -510.481)" fill="#cad9d7"/><path d="M448.081,526.6a.108.108,0,0,1-.031,0,25.474,25.474,0,0,0-3.16-.617c-.274-.042-.547-.083-.816-.126a.112.112,0,0,1-.09-.08,1.8,1.8,0,0,0-.455-.811,57.554,57.554,0,0,0-4.172-5.088c-2.447-2.76-4.758-5.366-6.133-8.712a.111.111,0,0,1,.077-.151,23.267,23.267,0,0,1,4.672-.8,1.367,1.367,0,0,1,.893.2,4.187,4.187,0,0,1,.723,1.151,5.37,5.37,0,0,0,1.347,1.914.113.113,0,0,1,.043.08,3.586,3.586,0,0,0,2.128,2.962,4.314,4.314,0,0,0,1,.121,3.976,3.976,0,0,0,1.442-.273.112.112,0,0,1,.15.083c.367,1.933.881,3.81,1.378,5.627.412,1.505.8,2.928,1.115,4.382a.112.112,0,0,1-.109.135Zm-3.9-.956c.246.039.494.076.745.115a27.14,27.14,0,0,1,3.009.573c-.305-1.385-.678-2.75-1.073-4.19-.487-1.78-.99-3.619-1.357-5.514a4.231,4.231,0,0,1-2.473.106,3.813,3.813,0,0,1-2.27-3.1,5.658,5.658,0,0,1-1.371-1.959,4.066,4.066,0,0,0-.674-1.087c-.071-.066-.258-.144-.742-.144a22.918,22.918,0,0,0-4.493.759c1.367,3.254,3.639,5.817,6.044,8.528a57.31,57.31,0,0,1,4.175,5.093A1.948,1.948,0,0,1,444.179,525.647Z" transform="translate(-433.217 -510.218)" fill="#fff"/></g><g transform="translate(99.505 159.291)"><path d="M464.579,562.4c.54,1.909-1.2,5.127-2.136,7.949-.507,3.55,2.257,4.3,5.277,4.823,1.914-4.253,1.686-8.134.847-12.026A34.365,34.365,0,0,0,464.579,562.4Z" transform="translate(-462.27 -562.284)" fill="#cad9d7"/><path d="M467.455,575.016l-.019,0c-3.124-.545-5.885-1.333-5.369-4.948.256-.773.568-1.565.869-2.331.814-2.069,1.656-4.208,1.27-5.572a.111.111,0,0,1,.024-.1.114.114,0,0,1,.1-.036c.268.043.54.084.814.126a25.618,25.618,0,0,1,3.188.623.112.112,0,0,1,.079.084c.734,3.409,1.208,7.512-.855,12.1A.111.111,0,0,1,467.455,575.016Zm-2.993-12.746c.3,1.429-.485,3.432-1.318,5.548-.3.763-.611,1.552-.86,2.3-.48,3.371,2.018,4.118,5.1,4.662a18.262,18.262,0,0,0,.819-11.812,25.984,25.984,0,0,0-3.1-.6Z" transform="translate(-462.005 -562.021)" fill="#fff"/></g><g transform="translate(52.377 145.682)"><path d="M324.487,517.054a5.168,5.168,0,0,1-.827-.212c-1.35-.5-4.889.78-6.474,1.422s-2.849,3.119-6.811,6.423a19.839,19.839,0,0,1-6.358,3.622c.74,2.842,1.457,6.564,3.147,4.452,4.146-5.183,9.811-7.329,15.633-9.026C323.924,521.72,324.964,519.335,324.487,517.054Z" transform="translate(-303.905 -516.615)" fill="#cad9d7"/><path d="M305.974,533.23h0c-1.025,0-1.585-2.219-2.127-4.365-.068-.268-.135-.534-.2-.792a.112.112,0,0,1,.068-.133l.1-.039a19.578,19.578,0,0,0,6.224-3.565,39.723,39.723,0,0,0,4.255-4.166,8.414,8.414,0,0,1,2.585-2.274,19.624,19.624,0,0,1,5.729-1.545,2.4,2.4,0,0,1,.827.122,4.99,4.99,0,0,0,.808.207.111.111,0,0,1,.089.087c.5,2.4-.647,4.87-1.7,6.758a.114.114,0,0,1-.066.053c-5.291,1.542-11.295,3.635-15.577,8.989A1.4,1.4,0,0,1,305.974,533.23Zm-2.088-5.116c.059.228.118.462.177.7.5,1.967,1.059,4.2,1.91,4.2h0c.249,0,.532-.195.839-.579,4.311-5.389,10.332-7.5,15.645-9.051,1.02-1.829,2.115-4.206,1.671-6.491a4.9,4.9,0,0,1-.771-.2,2.187,2.187,0,0,0-.749-.108,19.44,19.44,0,0,0-5.645,1.528,8.318,8.318,0,0,0-2.5,2.218,39.953,39.953,0,0,1-4.278,4.188,19.772,19.772,0,0,1-6.287,3.6Z" transform="translate(-303.642 -516.352)" fill="#fff"/></g><g transform="translate(71.157 145.756)"><path d="M382.763,517.015c-.87.256-1.63.493-2.165.671a11.6,11.6,0,0,1-6.642.184c-1.687-.34-3.721-.342-5.144-.613.477,2.282-.564,4.666-1.691,6.681,3.454-1.007,6.962-1.855,10.242-3.086,0,2.24,2.552,2.292,4.69,2.531C382.793,521.319,383.44,519.249,382.763,517.015Z" transform="translate(-367.01 -516.903)" fill="#cad9d7"/><path d="M366.858,523.785a.111.111,0,0,1-.1-.166c1.037-1.854,2.165-4.28,1.679-6.6a.112.112,0,0,1,.13-.132c.657.125,1.445.192,2.28.263a26.015,26.015,0,0,1,2.866.35,15.826,15.826,0,0,0,3.2.4,10.572,10.572,0,0,0,3.385-.577c.571-.19,1.341-.428,2.169-.672a.112.112,0,0,1,.138.075c.674,2.228.048,4.316-.711,6.438a.114.114,0,0,1-.118.074c-.182-.02-.368-.04-.554-.058-1.935-.2-4.121-.423-4.231-2.424-2.32.86-4.791,1.546-7.183,2.209-.959.266-1.95.541-2.921.824A.112.112,0,0,1,366.858,523.785Zm1.831-6.653c.4,2.247-.61,4.548-1.6,6.359.889-.257,1.79-.507,2.663-.749,2.438-.676,4.958-1.376,7.311-2.258a.112.112,0,0,1,.151.1c0,1.948,2.051,2.158,4.034,2.362l.468.049c.748-2.1,1.306-4.013.709-6.109-.784.232-1.51.458-2.054.638a10.784,10.784,0,0,1-3.456.589,16.242,16.242,0,0,1-3.244-.4,25.864,25.864,0,0,0-2.84-.346C370.057,517.3,369.323,517.24,368.689,517.132Z" transform="translate(-366.746 -516.64)" fill="#fff"/></g><g transform="translate(41.736 157.279)"><path d="M282.053,560.1c-1.69,2.112-2.407-1.61-3.147-4.452a8.961,8.961,0,0,0-1.624.736c-1.422.918-1.606,2.844-3.67,2.752s-4.312.826-5.017,1.828-.105,3.324.246,3.641a15.009,15.009,0,0,0,4.546,1.659c1.288.11,3.115-.889,5.088-.883s3.487,2.7,4.55,3.1c.847.316,1.359-3.789,2.577-5.9-.687-1.321-1.454-2.643-2.241-3.965Q282.685,559.311,282.053,560.1Z" transform="translate(-268.153 -555.534)" fill="#cad9d7"/><path d="M282.848,568.343a.375.375,0,0,1-.131-.024,4.9,4.9,0,0,1-1.4-1.152c-.851-.861-1.911-1.933-3.11-1.938a10.979,10.979,0,0,0-2.878.506,7.011,7.011,0,0,1-2.219.377,15.2,15.2,0,0,1-4.612-1.688c-.378-.342-1.012-2.721-.262-3.788.73-1.038,2.893-1.882,4.821-1.882.1,0,.2,0,.292.006,1.242.053,1.752-.63,2.347-1.427a4.992,4.992,0,0,1,1.257-1.307,9.027,9.027,0,0,1,1.645-.747.112.112,0,0,1,.148.076c.068.259.135.526.2.795.5,1.966,1.059,4.195,1.91,4.195.249,0,.532-.195.839-.579.413-.516.855-1.018,1.315-1.494a.11.11,0,0,1,.093-.033.111.111,0,0,1,.083.054c.7,1.182,1.52,2.577,2.244,3.971a.111.111,0,0,1,0,.107,17.342,17.342,0,0,0-1.273,3.364C283.7,567.248,283.363,568.343,282.848,568.343Zm-4.662-3.337c1.312.005,2.408,1.114,3.288,2a4.835,4.835,0,0,0,1.321,1.1.149.149,0,0,0,.053.01c.35,0,.729-1.246,1.1-2.451a17.94,17.94,0,0,1,1.262-3.357c-.689-1.322-1.46-2.644-2.135-3.78-.419.439-.822.9-1.2,1.373a1.4,1.4,0,0,1-1.013.663c-1.025,0-1.585-2.218-2.127-4.364-.057-.226-.114-.452-.171-.672a8.2,8.2,0,0,0-1.487.681,4.816,4.816,0,0,0-1.2,1.253,2.806,2.806,0,0,1-2.536,1.517c-2.1-.1-4.285.877-4.921,1.781-.659.937-.1,3.2.229,3.494a15.244,15.244,0,0,0,4.481,1.631,6.776,6.776,0,0,0,2.141-.37A11.139,11.139,0,0,1,278.187,565.005Z" transform="translate(-267.885 -555.27)" fill="#fff"/></g><g transform="translate(56.832 152.087)"><path d="M335.455,538.229c-5.962,1.66-11.935,3.459-16.469,8.149.787,1.323,1.554,2.644,2.241,3.965a2.485,2.485,0,0,1,1.088-1.123c2.067-.846,1.42,1.626,2.536,2.2s6.073-1.464,8.747-2.251a16.89,16.89,0,0,1,2.84-.561C336.991,545.076,335.159,541.761,335.455,538.229Z" transform="translate(-318.874 -538.117)" fill="#cad9d7"/><path d="M325.147,551.365h0a1.35,1.35,0,0,1-.61-.112,1.992,1.992,0,0,1-.817-1.273c-.2-.583-.363-1.087-.932-1.087a1.907,1.907,0,0,0-.694.166,2.348,2.348,0,0,0-1.034,1.076.111.111,0,0,1-.2,0c-.722-1.389-1.536-2.781-2.237-3.96a.111.111,0,0,1,.015-.134c4.734-4.9,11.269-6.717,16.52-8.179a.111.111,0,0,1,.1.021.112.112,0,0,1,.04.1,17.112,17.112,0,0,0,.526,4.87,15.359,15.359,0,0,1,.455,5.514.113.113,0,0,1-.1.094,16.717,16.717,0,0,0-2.821.557c-.708.209-1.576.5-2.5.818A24.9,24.9,0,0,1,325.147,551.365Zm-2.359-2.7c.73,0,.94.63,1.144,1.239a1.839,1.839,0,0,0,.707,1.146,1.16,1.16,0,0,0,.508.087,24.92,24.92,0,0,0,5.652-1.525c.921-.314,1.791-.611,2.5-.821a16.858,16.858,0,0,1,2.774-.555,15.421,15.421,0,0,0-.465-5.35,17.824,17.824,0,0,1-.542-4.774c-5.176,1.441-11.566,3.255-16.207,8.015.663,1.116,1.422,2.415,2.108,3.721a2.363,2.363,0,0,1,1.039-1A2.084,2.084,0,0,1,322.788,548.67Z" transform="translate(-318.611 -537.854)" fill="#fff"/></g><g transform="translate(73.269 149.606)"><path d="M387.038,532.438c-2.138-.239-4.69-.291-4.69-2.531-2.6.975-5.349,1.711-8.1,2.477-.3,3.532,1.536,6.847.982,10.376a16.848,16.848,0,0,1,4.67.073c1.628.291,3.052-2.254,6-3.421C385.308,536.955,386.228,534.7,387.038,532.438Z" transform="translate(-374.106 -529.795)" fill="#cad9d7"/><path d="M379.9,542.7h0a1.56,1.56,0,0,1-.279-.025,16.964,16.964,0,0,0-4.638-.072.109.109,0,0,1-.093-.034.112.112,0,0,1-.03-.095,15.186,15.186,0,0,0-.452-5.434,17.257,17.257,0,0,1-.53-4.934.111.111,0,0,1,.081-.1l.767-.213c2.441-.677,4.966-1.378,7.322-2.261a.112.112,0,0,1,.151.1c0,1.948,2.051,2.158,4.034,2.362.187.019.373.038.556.058a.112.112,0,0,1,.093.149l-.162.451c-.745,2.064-1.517,4.2-.973,6.459a.112.112,0,0,1-.068.13,12.4,12.4,0,0,0-3.264,2.081A4.534,4.534,0,0,1,379.9,542.7Zm-2.756-.445a14.6,14.6,0,0,1,2.515.2,1.36,1.36,0,0,0,.24.021h0a4.422,4.422,0,0,0,2.373-1.322,12.787,12.787,0,0,1,3.233-2.078c-.516-2.29.255-4.427,1-6.493l.114-.317-.413-.043c-1.935-.2-4.122-.422-4.231-2.425-2.323.861-4.8,1.548-7.194,2.213l-.691.192a17.384,17.384,0,0,0,.533,4.793,15.742,15.742,0,0,1,.476,5.369A19.2,19.2,0,0,1,377.144,542.259Z" transform="translate(-373.844 -529.532)" fill="#fff"/></g><g transform="translate(84.763 144.646)"><path d="M419.015,513.258c-1.425.345-2.9.752-4.14,1.118,1.417,4.683-2.978,8.643-1.848,13.342a7.893,7.893,0,0,1,1.547-.443c4.043-.71,6.1,1.761,7.267,2.182,1.022.368,2.642-1.981,3.83-.7a15.451,15.451,0,0,0,1.479-4.494C424.131,520.673,420.769,517.526,419.015,513.258Z" transform="translate(-412.728 -513.146)" fill="#cad9d7"/><path d="M421.816,529.344a.807.807,0,0,1-.274-.046,5.646,5.646,0,0,1-1.058-.613,7.6,7.6,0,0,0-6.152-1.564,7.779,7.779,0,0,0-1.525.436.113.113,0,0,1-.093,0,.114.114,0,0,1-.057-.073c-.559-2.326.223-4.492.98-6.587.779-2.157,1.585-4.387.87-6.749a.11.11,0,0,1,.009-.085.112.112,0,0,1,.067-.054c1-.294,2.525-.727,4.145-1.119a.109.109,0,0,1,.129.066c1.361,3.311,3.66,5.9,6.094,8.651.668.753,1.358,1.532,2.023,2.322a.112.112,0,0,1,.025.087,15.252,15.252,0,0,1-1.489,4.528.111.111,0,0,1-.084.062.112.112,0,0,1-.1-.034.983.983,0,0,0-.745-.349,3.2,3.2,0,0,0-1.451.587A2.925,2.925,0,0,1,421.816,529.344Zm-6.086-2.572a8.426,8.426,0,0,1,4.878,1.727,5.549,5.549,0,0,0,1.01.589c.353.127.867-.16,1.4-.476a3.349,3.349,0,0,1,1.565-.618,1.176,1.176,0,0,1,.793.308,14.9,14.9,0,0,0,1.395-4.272c-.653-.775-1.331-1.54-1.987-2.28-2.425-2.736-4.717-5.321-6.1-8.625-1.525.371-2.96.776-3.935,1.063.68,2.391-.126,4.623-.906,6.781-.732,2.025-1.488,4.119-1,6.334a7.907,7.907,0,0,1,1.447-.4A8.327,8.327,0,0,1,415.73,526.772Z" transform="translate(-412.468 -512.881)" fill="#fff"/></g><g transform="translate(93.966 155.661)"><path d="M451.02,552.989c-.674-.963-1.4-1.875-2.146-2.761a15.451,15.451,0,0,1-1.479,4.494,2.72,2.72,0,0,1,.484.8c1.193,2.812-3.645,4.141-4.008,4.647a1.009,1.009,0,0,0-.09.673c2.161-.437,4.435-.5,6.418-1.266C451.25,556.911,452.309,554.278,451.02,552.989Z" transform="translate(-443.657 -550.116)" fill="#cad9d7"/><path d="M443.518,560.689a.112.112,0,0,1-.111-.1,1.109,1.109,0,0,1,.11-.748,3.025,3.025,0,0,1,.912-.541c1.478-.728,3.953-1.947,3.084-4a2.644,2.644,0,0,0-.463-.766.112.112,0,0,1-.019-.124,15.043,15.043,0,0,0,1.469-4.461.112.112,0,0,1,.08-.092.113.113,0,0,1,.116.035c.866,1.029,1.55,1.909,2.152,2.769,1.314,1.312.3,3.88-.772,6.6l-.036.091a.11.11,0,0,1-.063.063,18.931,18.931,0,0,1-4.188.911c-.741.1-1.508.211-2.248.361Zm3.746-6.249a2.948,2.948,0,0,1,.454.774c.951,2.244-1.743,3.571-3.191,4.285a3.748,3.748,0,0,0-.829.471.774.774,0,0,0-.079.473c.708-.138,1.434-.24,2.138-.339a19.035,19.035,0,0,0,4.093-.88l.018-.046c1.045-2.649,2.032-5.151.809-6.374-.573-.815-1.206-1.635-1.993-2.579A15.571,15.571,0,0,1,447.264,554.44Z" transform="translate(-443.392 -549.853)" fill="#fff"/></g><g transform="translate(93.902 165.027)"><path d="M454.159,589.363c.115-.229.221-.456.323-.682-3.021-.527-5.784-1.273-5.277-4.823.241-.724.536-1.475.831-2.223-1.983.767-4.257.829-6.418,1.266a6.9,6.9,0,0,1,.05,2.642,5.761,5.761,0,0,0,1.442,5.127c1.391,1.443,4.507,4.244,6.942,4.362,1.04.05,2.209-1.525,3.3-3.461C454.41,590.835,453.792,590.1,454.159,589.363Z" transform="translate(-443.429 -581.523)" fill="#cad9d7"/><path d="M451.848,594.881h-.054c-2.774-.135-6.332-3.685-7.017-4.4a5.9,5.9,0,0,1-1.47-5.232,5.331,5.331,0,0,0,.008-2.143c-.024-.167-.047-.321-.061-.462a.112.112,0,0,1,.089-.12c.747-.151,1.517-.259,2.261-.363a18.787,18.787,0,0,0,4.138-.9.111.111,0,0,1,.144.145c-.272.691-.581,1.474-.829,2.218-.484,3.4,2.064,4.132,5.191,4.677a.112.112,0,0,1,.082.156c-.1.227-.209.456-.325.687-.289.578.069,1.217,1.161,2.07a.111.111,0,0,1,.029.142C453.845,593.762,452.781,594.881,451.848,594.881Zm-8.36-12.154c.013.11.03.227.048.351a5.512,5.512,0,0,1-.012,2.228,5.664,5.664,0,0,0,1.414,5.023c.675.7,4.177,4.2,6.867,4.328h.043c.822,0,1.839-1.087,3.107-3.322-.779-.62-1.577-1.428-1.148-2.287.092-.183.178-.366.262-.547-3.065-.544-5.735-1.363-5.227-4.923.226-.685.5-1.382.746-2.016a20.219,20.219,0,0,1-3.952.823C444.928,582.484,444.2,582.587,443.488,582.726Z" transform="translate(-443.176 -581.259)" fill="#fff"/></g><g transform="translate(114.367 151.168)"><path d="M526.146,537.448c-1.1.551-2.2,0-3.3-.551a.729.729,0,0,1-.212-.52c-2.625.4-4.251-1.667-6.395-1.131-1.516,0-3.95.47-3.918,3.1a5.058,5.058,0,0,0,.615.205,1.407,1.407,0,0,0-.09,1.086.869.869,0,0,1,.176-.054c1.015-.137.636,3.63,1.083,3.7s.943-1.138,1.531-.935,3.2.332,3.441.831-1.411,2.254-.884,2.761c.484.466,1.366-.456,3.4-.834.069-.013.14-.018.21-.029a1.016,1.016,0,0,1-.055-1.02C523.393,541.852,526.7,540.751,526.146,537.448Z" transform="translate(-512.206 -535.045)" fill="#cad9d7"/><path d="M518.259,545.914h0a.561.561,0,0,1-.41-.16c-.355-.341.039-1.034.42-1.7.233-.409.523-.919.441-1.088-.134-.277-1.451-.462-2.238-.572a8.222,8.222,0,0,1-1.139-.2c-.252-.086-.533.208-.779.472s-.478.505-.732.468-.3-.5-.375-1.453c-.071-.92-.187-2.322-.676-2.246a.634.634,0,0,0-.129.039.138.138,0,0,1-.1,0,.122.122,0,0,1-.068-.065,1.516,1.516,0,0,1,.042-1.042c-.185-.054-.353-.118-.5-.174a.113.113,0,0,1-.071-.1,2.87,2.87,0,0,1,.779-2.139,4.7,4.7,0,0,1,3.251-1.072,2.863,2.863,0,0,1,.729-.09,6.247,6.247,0,0,1,2.3.6,7.124,7.124,0,0,0,2.686.672,4.4,4.4,0,0,0,.663-.051.111.111,0,0,1,.089.025.112.112,0,0,1,.04.084.622.622,0,0,0,.167.43,5.435,5.435,0,0,0,2.269.759,2.008,2.008,0,0,0,.918-.216.113.113,0,0,1,.1,0,.111.111,0,0,1,.06.081c.388,2.329-1.116,3.615-2.569,4.86a12.094,12.094,0,0,0-1.856,1.832.912.912,0,0,0,.064.9.111.111,0,0,1-.08.163l-.1.013c-.036,0-.073.009-.109.015a10.009,10.009,0,0,0-2.106.665A2.9,2.9,0,0,1,518.259,545.914Zm-3.025-3.967a.526.526,0,0,1,.172.029,8.318,8.318,0,0,0,1.1.192c1.3.183,2.236.339,2.408.7.133.275-.137.748-.448,1.3s-.689,1.212-.46,1.433a.341.341,0,0,0,.255.1h0a2.878,2.878,0,0,0,.893-.282,10.209,10.209,0,0,1,2.15-.678l.061-.01a1.081,1.081,0,0,1,.014-.98,12.173,12.173,0,0,1,1.9-1.885c1.439-1.231,2.8-2.4,2.516-4.508a2.215,2.215,0,0,1-.879.176,5.64,5.64,0,0,1-2.385-.79.109.109,0,0,1-.029-.021.822.822,0,0,1-.235-.473,4.6,4.6,0,0,1-.578.037,7.288,7.288,0,0,1-2.768-.688A6.086,6.086,0,0,0,516.7,535a2.847,2.847,0,0,0-.7.086,4.536,4.536,0,0,0-3.119,1.009,2.627,2.627,0,0,0-.715,1.9,4.549,4.549,0,0,0,.531.173.111.111,0,0,1,.073.158,1.258,1.258,0,0,0-.112.89.5.5,0,0,1,.083-.019.578.578,0,0,1,.068,0c.669,0,.771,1.3.861,2.455a3.94,3.94,0,0,0,.2,1.253c.151,0,.342-.206.526-.4C514.648,542.231,514.914,541.947,515.234,541.947Z" transform="translate(-511.943 -534.781)" fill="#fff"/></g><g transform="translate(109.128 134.657)"><path d="M503.872,496.318c2.144-.536,3.769,1.531,6.395,1.131a1.232,1.232,0,0,1,1.313-1.131c-1.652-4.4-3.853-8.258.551-12.662.549-1.1-1.092-2.744-1.1-3.846-1.9,1.247-4.288,1.263-6.788-.075-.85.526-1.7,1.114-2.549,1.726.084,2.5.312,5.308-1.123,7.7-.551.551-3.3-.551-4.4,0a5.036,5.036,0,0,0-1.449.81c2.367,3.152,1.657,8.034,5.239,9.445C499.922,496.787,502.357,496.318,503.872,496.318Z" transform="translate(-494.604 -479.624)" fill="#cad9d7"/><path d="M499.691,499.264a.114.114,0,0,1-.041-.008c-2.189-.863-2.806-2.972-3.46-5.2a13.051,13.051,0,0,0-1.828-4.279.112.112,0,0,1,.021-.156,5.105,5.105,0,0,1,1.481-.827,2.067,2.067,0,0,1,.918-.165,11.224,11.224,0,0,1,1.627.173,9.427,9.427,0,0,0,1.287.145.783.783,0,0,0,.529-.126c1.294-2.164,1.2-4.761,1.111-7.053l-.02-.564a.114.114,0,0,1,.046-.095c.993-.715,1.805-1.265,2.555-1.73a.112.112,0,0,1,.111,0c2.414,1.292,4.792,1.318,6.674.08a.111.111,0,0,1,.173.092,3.955,3.955,0,0,0,.568,1.523c.427.826.868,1.68.521,2.373a.111.111,0,0,1-.021.029c-3.908,3.908-2.577,7.3-1.036,11.224.171.435.343.875.51,1.32a.112.112,0,0,1-.1.151,1.266,1.266,0,0,0-.912.359.943.943,0,0,0-.29.659.112.112,0,0,1-.095.112,4.651,4.651,0,0,1-.7.053,7.289,7.289,0,0,1-2.768-.688,6.084,6.084,0,0,0-2.218-.584,2.849,2.849,0,0,0-.7.086,4.536,4.536,0,0,0-3.119,1.009,2.655,2.655,0,0,0-.715,1.979.112.112,0,0,1-.048.093A.111.111,0,0,1,499.691,499.264Zm-5.083-9.534a13.525,13.525,0,0,1,1.8,4.26c.622,2.125,1.211,4.135,3.176,5a2.813,2.813,0,0,1,.778-1.971,4.7,4.7,0,0,1,3.251-1.072,2.907,2.907,0,0,1,.729-.09,6.249,6.249,0,0,1,2.3.6,7.12,7.12,0,0,0,2.685.672,4.407,4.407,0,0,0,.573-.037,1.193,1.193,0,0,1,.35-.719,1.462,1.462,0,0,1,.912-.419c-.15-.4-.3-.786-.456-1.173-1.5-3.828-2.922-7.444,1.073-11.45.281-.591-.13-1.386-.528-2.156a5.034,5.034,0,0,1-.577-1.431,6.581,6.581,0,0,1-6.688-.14c-.719.447-1.5.974-2.439,1.653l.018.5c.087,2.322.186,4.955-1.16,7.2a.92.92,0,0,1-.7.213,9.585,9.585,0,0,1-1.321-.147,11.059,11.059,0,0,0-1.592-.171,1.888,1.888,0,0,0-.833.147A4.82,4.82,0,0,0,494.608,489.73Z" transform="translate(-494.341 -479.36)" fill="#fff"/></g><g transform="translate(123.963 125.359)"><path d="M555.386,466.678c.947-1.419,3.516.4,5.619-.448-.038-.034-.077-.068-.113-.1-2.2-1.652-1.1-5.505-3.853-8.809-1.476-1.476,1-3.391,2.725-5.354-.251-1.81-2.21-1.91-2.725-3.455-1.652,1.652-3.854,2.2-5.506,3.3a3.061,3.061,0,0,1-2,.346,9.13,9.13,0,0,1-3.508,5.718c.008,1.1,1.65,2.747,1.1,3.846-4.4,4.4-2.2,8.258-.551,12.662-1.1,0-1.652,1.1-1.1,1.651,1.1.551,2.2,1.1,3.3.551a4.388,4.388,0,0,1,.052.522C553.174,474.894,552.1,469.967,555.386,466.678Z" transform="translate(-544.437 -448.398)" fill="#cad9d7"/><path d="M548.583,476.957a.108.108,0,0,1-.056-.015.11.11,0,0,1-.056-.091c-.006-.134-.016-.252-.029-.364a2.213,2.213,0,0,1-.878.176,5.639,5.639,0,0,1-2.385-.791.105.105,0,0,1-.029-.021.9.9,0,0,1-.166-1.009,1.4,1.4,0,0,1,1.188-.826c-.15-.4-.3-.786-.456-1.174-1.5-3.828-2.922-7.444,1.073-11.45.281-.591-.13-1.386-.528-2.156a4.067,4.067,0,0,1-.593-1.623.112.112,0,0,1,.05-.094,9.048,9.048,0,0,0,3.461-5.651.11.11,0,0,1,.13-.083,2.97,2.97,0,0,0,1.925-.336,16.7,16.7,0,0,1,2.028-1.091,11.964,11.964,0,0,0,3.449-2.191.112.112,0,0,1,.185.044,3.108,3.108,0,0,0,1.275,1.463,2.962,2.962,0,0,1,1.455,2.012.11.11,0,0,1-.026.089c-.32.364-.668.729-1,1.082-1.467,1.539-2.853,2.993-1.726,4.119a11.165,11.165,0,0,1,2.188,5.2c.329,1.514.612,2.822,1.653,3.6.035.033.061.056.087.079l.034.03a.112.112,0,0,1-.033.186,3.627,3.627,0,0,1-1.384.246,10.2,10.2,0,0,1-1.714-.193,8.283,8.283,0,0,0-1.318-.159,1.24,1.24,0,0,0-1.152.512,11.86,11.86,0,0,0-2.615,4.862c-.77,2.232-1.5,4.34-3.981,5.607A.11.11,0,0,1,548.583,476.957Zm-.052-.745a.114.114,0,0,1,.051.012.111.111,0,0,1,.059.082c.019.114.033.231.043.361,2.283-1.236,2.981-3.26,3.72-5.4a12,12,0,0,1,2.654-4.93,1.446,1.446,0,0,1,1.323-.594,8.413,8.413,0,0,1,1.356.162,10.025,10.025,0,0,0,1.676.19,3.544,3.544,0,0,0,1.129-.166c-1.078-.822-1.367-2.16-1.7-3.707a10.98,10.98,0,0,0-2.136-5.093c-1.274-1.274.185-2.8,1.729-4.424.323-.338.657-.688.964-1.036a2.781,2.781,0,0,0-1.36-1.814,3.542,3.542,0,0,1-1.291-1.407,12.564,12.564,0,0,1-3.387,2.114,16.659,16.659,0,0,0-2.013,1.083,3.253,3.253,0,0,1-1.975.381,9.246,9.246,0,0,1-3.478,5.649,4.28,4.28,0,0,0,.566,1.464c.427.826.868,1.68.521,2.373a.113.113,0,0,1-.021.029c-3.908,3.908-2.577,7.3-1.036,11.224.171.435.343.875.51,1.32a.112.112,0,0,1-.1.151,1.2,1.2,0,0,0-1.14.7.683.683,0,0,0,.106.753,5.439,5.439,0,0,0,2.269.759,2.01,2.01,0,0,0,.918-.216A.111.111,0,0,1,548.531,476.212Z" transform="translate(-544.188 -448.135)" fill="#fff"/></g><g transform="translate(133.172 142.974)"><path d="M578.238,517.592c1.029-3.087,3.982-3.288,6.161-2.4a4.305,4.305,0,0,1-.106-.9c.551-1.1,2.2-1.652,2.2-2.753-.533-2.131-2.61-2.717-3.741-3.751-2.1.852-4.672-.972-5.619.448a8.528,8.528,0,0,0-1.628,2.338c1.077,1.551,1.078,3.46,1.078,5.37C577.136,516.491,578.238,518.142,578.238,517.592Z" transform="translate(-575.396 -507.56)" fill="#cad9d7"/><path d="M577.914,517.551h0c-.181,0-.432-.293-1.006-1.01-.238-.3-.485-.606-.664-.785a.112.112,0,0,1-.032-.079c0-1.859,0-3.782-1.058-5.306a.111.111,0,0,1-.009-.112,8.648,8.648,0,0,1,1.65-2.368,1.445,1.445,0,0,1,1.323-.594,8.407,8.407,0,0,1,1.356.162,10.031,10.031,0,0,0,1.676.19,3.406,3.406,0,0,0,1.3-.23.11.11,0,0,1,.117.021,8.678,8.678,0,0,0,1.163.834,5.052,5.052,0,0,1,2.61,2.972c0,.7-.547,1.167-1.13,1.657a4.156,4.156,0,0,0-1.069,1.149,4.208,4.208,0,0,0,.1.85.112.112,0,0,1-.152.127,5.947,5.947,0,0,0-2.212-.449,3.8,3.8,0,0,0-3.8,2.767.264.264,0,0,1-.03.12A.159.159,0,0,1,577.914,517.551Zm-1.48-1.92c.183.19.419.484.648.77a7.531,7.531,0,0,0,.785.9l0,0a4.007,4.007,0,0,1,4.013-2.936,6.124,6.124,0,0,1,2.106.391,4.073,4.073,0,0,1-.069-.723.114.114,0,0,1,.012-.05,4.226,4.226,0,0,1,1.137-1.244c.542-.456,1.054-.886,1.054-1.459a4.819,4.819,0,0,0-2.511-2.811,9.387,9.387,0,0,1-1.142-.811,3.673,3.673,0,0,1-1.319.221,10.2,10.2,0,0,1-1.714-.193,8.285,8.285,0,0,0-1.318-.159,1.24,1.24,0,0,0-1.152.512,8.48,8.48,0,0,0-1.592,2.267C576.426,511.857,576.435,513.773,576.435,515.631Z" transform="translate(-575.133 -507.296)" fill="#fff"/></g><g transform="translate(123.676 145.886)"><path d="M564.286,525.723a7.98,7.98,0,0,1-2.3-3.69c-2.18-.885-5.132-.684-6.161,2.4,0,.551-1.1-1.1-1.652-1.651,0-1.91,0-3.819-1.078-5.37-1.448,2.97-1.53,6.361-4.926,8.094.136,2.9-2.9,4-4.456,6.084a1.016,1.016,0,0,0,.055,1.021,23.775,23.775,0,0,1,5.382.218c1.387.075,3.047,1.48,3.855,1.1.366-.171.744-5.385,4.736-7.363,1.417-.7,3.854-.425,3.349.584-.376.752-1.766,6.055-.848,6.515s4.3-3.407,4.252-4.74C564.45,527.677,563.813,527.436,564.286,525.723Z" transform="translate(-543.49 -517.302)" fill="#cad9d7"/><path d="M552.422,533.844a4.451,4.451,0,0,1-1.587-.524,5.852,5.852,0,0,0-1.953-.642c-.385-.021-.834-.073-1.31-.128a22.4,22.4,0,0,0-2.592-.2,9.344,9.344,0,0,0-1.456.1.111.111,0,0,1-.115-.057,1.129,1.129,0,0,1-.057-1.124,12.161,12.161,0,0,1,1.9-1.883c1.356-1.162,2.637-2.26,2.548-4.146a.112.112,0,0,1,.061-.1c2.4-1.227,3.118-3.293,3.873-5.481a22.559,22.559,0,0,1,1-2.562.111.111,0,0,1,.192-.015c1.09,1.569,1.1,3.508,1.1,5.388.183.19.419.484.648.77a7.548,7.548,0,0,0,.785.9l0-.005a4.007,4.007,0,0,1,4.013-2.936,6.18,6.18,0,0,1,2.3.465.112.112,0,0,1,.067.08,7.989,7.989,0,0,0,2.27,3.637.111.111,0,0,1,.027.107,3.094,3.094,0,0,0,0,2.055,4.107,4.107,0,0,1,.209,1.116c.03.809-1.057,2.375-2.146,3.5-.4.418-1.409,1.389-2.043,1.39h0a.5.5,0,0,1-.225-.05c-1.067-.534.5-6.065.8-6.664a.364.364,0,0,0,.007-.376,1.813,1.813,0,0,0-1.435-.437,4.127,4.127,0,0,0-1.772.378c-3.016,1.495-3.933,4.845-4.374,6.455-.177.644-.238.851-.364.909A.863.863,0,0,1,552.422,533.844Zm-7.442-1.713a22.448,22.448,0,0,1,2.618.2c.472.055.918.107,1.3.127a6.1,6.1,0,0,1,2.034.661c.722.33,1.405.622,1.768.45a4.392,4.392,0,0,0,.243-.766c.45-1.642,1.385-5.056,4.49-6.6a4.358,4.358,0,0,1,1.871-.4,1.939,1.939,0,0,1,1.625.543.58.58,0,0,1,0,.593c-.462.923-1.67,5.978-.9,6.365a.277.277,0,0,0,.125.026h0a3.9,3.9,0,0,0,1.882-1.321c1.045-1.083,2.109-2.629,2.083-3.341a3.939,3.939,0,0,0-.2-1.06,3.283,3.283,0,0,1-.022-2.117,8.187,8.187,0,0,1-2.271-3.641,5.935,5.935,0,0,0-2.158-.427,3.8,3.8,0,0,0-3.8,2.767c-.009.193-.144.2-.171.2-.181,0-.433-.292-1.007-1.01-.238-.3-.485-.606-.664-.785a.112.112,0,0,1-.032-.079c0-1.794,0-3.647-.951-5.144a24.19,24.19,0,0,0-.909,2.36c-.764,2.213-1.485,4.3-3.918,5.575.057,1.951-1.308,3.122-2.629,4.254a12.124,12.124,0,0,0-1.853,1.831.876.876,0,0,0,.028.831A9.678,9.678,0,0,1,544.98,532.131Z" transform="translate(-543.226 -517.038)" fill="#fff"/></g><g transform="translate(135.992 125.514)"><path d="M599.681,461.279a15.1,15.1,0,0,1-3.139-10.313,2.012,2.012,0,0,1-1.164-.956,3.786,3.786,0,0,1-.632-.932c-1.868,1.724-3.776,3.684-6.526,3.684a2.8,2.8,0,0,0-.027-.4c-1.723,1.962-4.2,3.877-2.725,5.353,1.976,2.371,1.969,5.022,2.622,6.942C591.961,462.667,595.046,460.371,599.681,461.279Z" transform="translate(-584.896 -448.968)" fill="#cad9d7"/><path d="M587.8,464.508a.108.108,0,0,1-.042-.008.113.113,0,0,1-.064-.068,16.916,16.916,0,0,1-.462-1.813,11,11,0,0,0-2.139-5.092c-1.274-1.274.185-2.8,1.729-4.424.335-.351.682-.715,1-1.075a.113.113,0,0,1,.116-.033.111.111,0,0,1,.078.091,2.78,2.78,0,0,1,.026.3c2.463-.048,4.241-1.7,5.961-3.3l.379-.351a.112.112,0,0,1,.175.031,3.664,3.664,0,0,0,.611.9,1.954,1.954,0,0,0,1.11.926.112.112,0,0,1,.086.118,14.908,14.908,0,0,0,3.117,10.236.111.111,0,0,1,.006.126.108.108,0,0,1-.116.05,10.585,10.585,0,0,0-2.029-.2c-2.887,0-5.254,1.286-7.76,2.649-.559.3-1.137.618-1.73.923A.112.112,0,0,1,587.8,464.508Zm.016-12.141c-.271.3-.556.6-.833.889-1.467,1.539-2.853,2.993-1.726,4.119a11.186,11.186,0,0,1,2.192,5.2c.129.593.252,1.156.415,1.666.55-.285,1.088-.577,1.609-.861,2.532-1.376,4.923-2.676,7.867-2.676a10.707,10.707,0,0,1,1.792.155,15.1,15.1,0,0,1-3-10.068A2.216,2.216,0,0,1,595,449.81a3.557,3.557,0,0,1-.57-.812l-.272.252c-1.777,1.653-3.615,3.363-6.223,3.363a.112.112,0,0,1-.112-.112C587.823,452.456,587.822,452.411,587.82,452.367Z" transform="translate(-584.61 -448.705)" fill="#fff"/></g><g transform="translate(139.074 137.522)"><path d="M609.569,496.806a11.342,11.342,0,0,1-.588-4.956,16.628,16.628,0,0,1-2.049-2.258c-4.635-.908-7.721,1.388-11.591,3.38a3.676,3.676,0,0,0,1.232,1.867,12.294,12.294,0,0,0,1.8,1.28C602.234,494.365,605.71,498.063,609.569,496.806Z" transform="translate(-595.229 -489.277)" fill="#cad9d7"/><path d="M607.584,496.921a12.883,12.883,0,0,1-3.65-.723,12.662,12.662,0,0,0-3.566-.711,5.24,5.24,0,0,0-2.216.472.112.112,0,0,1-.108-.009c-.168-.113-.337-.221-.5-.327a7.763,7.763,0,0,1-1.31-.967,3.713,3.713,0,0,1-1.259-1.911.112.112,0,0,1,.055-.135c.59-.3,1.168-.618,1.726-.921,2.531-1.376,4.922-2.676,7.866-2.676a10.819,10.819,0,0,1,2.071.206.111.111,0,0,1,.068.042,16.587,16.587,0,0,0,2.036,2.242.113.113,0,0,1,.035.1,11.169,11.169,0,0,0,.583,4.906.111.111,0,0,1-.007.085.113.113,0,0,1-.065.056A5.582,5.582,0,0,1,607.584,496.921Zm-7.216-1.657a12.835,12.835,0,0,1,3.63.72,12.733,12.733,0,0,0,3.586.714,5.385,5.385,0,0,0,1.581-.228,11.358,11.358,0,0,1-.565-4.839,16.8,16.8,0,0,1-1.994-2.2,10.572,10.572,0,0,0-1.987-.194c-2.888,0-5.254,1.287-7.76,2.649-.532.289-1.082.588-1.644.879a3.449,3.449,0,0,0,1.161,1.723,7.682,7.682,0,0,0,1.285.947c.151.1.3.194.456.3A5.466,5.466,0,0,1,600.368,495.264Z" transform="translate(-594.965 -489.014)" fill="#fff"/></g><g transform="translate(141.957 147.292)"><path d="M607.132,522.167c-.362.823-1.632,1.363-2.1,2.3,0,1.8,1.1,3.228,2.4,4.591.031-.113.067-.232.108-.359.668-2.045,1.324-1.69,2.593-1.938s2.211.9,2.786-.3a18.426,18.426,0,0,1,2.157-2.921A18.509,18.509,0,0,1,607.132,522.167Z" transform="translate(-604.918 -522.056)" fill="#cad9d7"/><path d="M607.17,528.91a.112.112,0,0,1-.081-.034c-1.264-1.323-2.435-2.8-2.435-4.668a.117.117,0,0,1,.012-.05,4.233,4.233,0,0,1,1.135-1.244,3.367,3.367,0,0,0,.964-1.054.113.113,0,0,1,.146-.058,18.142,18.142,0,0,0,7.078,1.387q.409,0,.82-.017a.1.1,0,0,1,.106.064.112.112,0,0,1-.018.122,18.47,18.47,0,0,0-2.139,2.895.911.911,0,0,1-.854.619,2.824,2.824,0,0,1-.7-.131,3.567,3.567,0,0,0-.946-.164,1.889,1.889,0,0,0-.361.034c-.234.046-.45.072-.641.095-.866.1-1.342.161-1.868,1.768-.04.125-.076.243-.107.354a.111.111,0,0,1-.08.079A.106.106,0,0,1,607.17,528.91Zm-2.292-4.676a6.632,6.632,0,0,0,2.239,4.346c.017-.057.036-.115.055-.175.569-1.743,1.16-1.814,2.053-1.921.2-.024.4-.048.624-.092a2.106,2.106,0,0,1,.4-.038,3.807,3.807,0,0,1,1,.171,2.683,2.683,0,0,0,.646.123c.206,0,.445-.058.653-.492a17.774,17.774,0,0,1,2-2.752,18.476,18.476,0,0,1-7.638-1.356,3.906,3.906,0,0,1-.977,1.036A4.168,4.168,0,0,0,604.878,524.234Z" transform="translate(-604.655 -521.793)" fill="#fff"/></g><g transform="translate(142.103 143.779)"><path d="M615.421,515.274a10.144,10.144,0,0,1,2.039-1.852,16.59,16.59,0,0,1-.743-1.864c-3.859,1.257-7.335-2.441-11.2-.685a4.357,4.357,0,0,1,2.057,2.573,1.1,1.1,0,0,1-.1.449A18.511,18.511,0,0,0,615.421,515.274Z" transform="translate(-605.407 -510.278)" fill="#cad9d7"/><path d="M614.332,515.139a18.364,18.364,0,0,1-7.164-1.4.111.111,0,0,1-.059-.148.991.991,0,0,0,.091-.4,4.271,4.271,0,0,0-2.008-2.481.111.111,0,0,1,.016-.194,5.472,5.472,0,0,1,2.309-.492,12.831,12.831,0,0,1,3.63.72,12.735,12.735,0,0,0,3.586.714,5.36,5.36,0,0,0,1.687-.261.111.111,0,0,1,.141.071,16.456,16.456,0,0,0,.737,1.852.111.111,0,0,1-.042.143,9.814,9.814,0,0,0-2.015,1.831.114.114,0,0,1-.079.037Q614.746,515.139,614.332,515.139Zm-6.977-1.568a18.381,18.381,0,0,0,7.75,1.33,10.3,10.3,0,0,1,1.949-1.784,16.741,16.741,0,0,1-.671-1.684,5.6,5.6,0,0,1-1.65.239,12.881,12.881,0,0,1-3.65-.723,12.666,12.666,0,0,0-3.566-.711,5.254,5.254,0,0,0-2.032.393,4.309,4.309,0,0,1,1.935,2.524A1.175,1.175,0,0,1,607.355,513.571Z" transform="translate(-605.143 -510.015)" fill="#fff"/></g><g transform="translate(147.475 124.205)"><path d="M633.949,447.26a4.155,4.155,0,0,0-3.783-2.534c-2.724-.454-4.7,3.581-6.544,3.158a15.513,15.513,0,0,0,5.189,12.57,8.3,8.3,0,0,1,4.658-6.369C634.732,453.243,633.746,450.148,633.949,447.26Z" transform="translate(-623.46 -444.579)" fill="#cad9d7"/><path d="M628.546,460.3a.113.113,0,0,1-.075-.029,15.575,15.575,0,0,1-5.225-12.662.113.113,0,0,1,.046-.081.108.108,0,0,1,.091-.018,1.146,1.146,0,0,0,.252.028,4.453,4.453,0,0,0,2.331-1.373c1.019-.868,2.173-1.851,3.505-1.851a2.7,2.7,0,0,1,.448.037h0a4.247,4.247,0,0,1,3.86,2.595.11.11,0,0,1,.011.058,21.367,21.367,0,0,0,.084,3.076c.133,1.749.249,3.26-.613,3.834a8.19,8.19,0,0,0-4.609,6.291.112.112,0,0,1-.072.09A.115.115,0,0,1,628.546,460.3Zm-5.087-12.551a15.343,15.343,0,0,0,5.007,12.212,8.418,8.418,0,0,1,4.686-6.24c.744-.5.634-1.947.506-3.626a21.76,21.76,0,0,1-.086-3.078,4.037,4.037,0,0,0-3.67-2.445,2.708,2.708,0,0,0-.43-.036c-1.25,0-2.372.955-3.361,1.8C625.186,447.124,624.305,447.861,623.459,447.752Z" transform="translate(-623.195 -444.315)" fill="#fff"/></g><g transform="translate(152.65 126.782)"><path d="M651.059,467.419c-2.1-2.963.128-5.526.887-9.239a7.376,7.376,0,0,1,1.689-3.483,4.071,4.071,0,0,1-.8-.6c-1.651-.55-2.753,0-3.853,1.652-.551.551-1.1-1.1-2.2-.551a7.541,7.541,0,0,0-.621-1.87c-.2,2.888.783,5.983-.48,6.825a8.237,8.237,0,0,0-4.723,7.181c3.159,3.02,8.177,2.641,12.615,3.743C653.084,470.239,652.208,469.038,651.059,467.419Z" transform="translate(-640.847 -453.214)" fill="#cad9d7"/><path d="M653.311,470.924a.12.12,0,0,1-.027,0,41.041,41.041,0,0,0-4.061-.72c-3.273-.468-6.364-.91-8.6-3.051a.111.111,0,0,1-.034-.085,8.415,8.415,0,0,1,4.781-7.275c.744-.5.634-1.947.506-3.626a21.516,21.516,0,0,1-.084-3.109.112.112,0,0,1,.211-.042,7.59,7.59,0,0,1,.6,1.762,1.063,1.063,0,0,1,.368-.068,1.68,1.68,0,0,1,1.022.49c.182.148.354.289.487.289a.223.223,0,0,0,.165-.082c.865-1.3,1.73-1.89,2.788-1.89a3.706,3.706,0,0,1,1.179.212.112.112,0,0,1,.044.027,3.894,3.894,0,0,0,.776.586.112.112,0,0,1,.053.079.113.113,0,0,1-.027.091,7.331,7.331,0,0,0-1.664,3.431,22.44,22.44,0,0,1-.913,3.047c-.772,2.181-1.439,4.065.007,6.1l.569.8c.862,1.212,1.544,2.168,1.952,2.865a.112.112,0,0,1-.1.168Zm-12.5-3.9c2.185,2.062,5.226,2.5,8.445,2.957,1.265.181,2.569.367,3.823.662-.411-.665-1.035-1.542-1.8-2.62l-.569-.8c-1.513-2.133-.829-4.068-.036-6.308a22.278,22.278,0,0,0,.9-3.017,7.575,7.575,0,0,1,1.628-3.434,4.059,4.059,0,0,1-.687-.532,3.481,3.481,0,0,0-1.084-.192c-.976,0-1.783.558-2.616,1.808-.314.323-.619.107-.965-.175a1.486,1.486,0,0,0-.881-.44.886.886,0,0,0-.4.1.112.112,0,0,1-.159-.078,7.785,7.785,0,0,0-.423-1.424,24.934,24.934,0,0,0,.106,2.616c.133,1.749.249,3.26-.613,3.834A8.111,8.111,0,0,0,640.809,467.022Z" transform="translate(-640.584 -452.951)" fill="#fff"/></g><g transform="translate(152.643 140.811)"><path d="M640.944,500.389a13.216,13.216,0,0,0,1.395,6.008c.647-.4,1.229-.518,1.624-.114,1.263,1.293-.289,3.362-1.575,3.868s-1.4,2.189-1.1,4.476-.074,2.988.779,2.805,2.037-2.615,2.692-3.039,1.877-.293,2.956-.791.381-4.52,1.787-6.36,3.961-1.28,4.4-1.756c.2-.216.06-.66-.348-1.353C649.121,503.031,644.1,503.409,640.944,500.389Z" transform="translate(-640.826 -500.277)" fill="#cad9d7"/><path d="M641.586,517.307h0c-.469,0-.487-.4-.525-1.2-.02-.422-.047-1-.144-1.733-.258-1.944-.321-4.01,1.168-4.595a3.5,3.5,0,0,0,1.929-2.241,1.5,1.5,0,0,0-.393-1.445c-.324-.332-.819-.281-1.486.131a.111.111,0,0,1-.16-.047,13.344,13.344,0,0,1-1.406-6.06.112.112,0,0,1,.189-.077c2.188,2.092,5.245,2.529,8.482,2.992a41.424,41.424,0,0,1,4.083.724.111.111,0,0,1,.069.052c.465.792.565,1.236.334,1.486-.176.19-.564.234-1.1.294a4.4,4.4,0,0,0-3.294,1.454,7.884,7.884,0,0,0-1.011,3.79c-.136,1.307-.244,2.339-.818,2.6a6.257,6.257,0,0,1-1.674.433,3.42,3.42,0,0,0-1.268.35,5.683,5.683,0,0,0-.991,1.224c-.587.843-1.195,1.715-1.739,1.831A1.175,1.175,0,0,1,641.586,517.307Zm1.511-11.651a.921.921,0,0,1,.683.284,1.735,1.735,0,0,1,.452,1.647,3.7,3.7,0,0,1-2.066,2.4c-1.07.421-1.378,1.724-1.028,4.358.1.743.126,1.326.146,1.751.039.823.067.984.3.984h0a.959.959,0,0,0,.2-.025c.458-.1,1.066-.971,1.6-1.741a5.552,5.552,0,0,1,1.053-1.283,3.609,3.609,0,0,1,1.355-.384,6.054,6.054,0,0,0,1.614-.415c.459-.211.571-1.286.69-2.424a8.024,8.024,0,0,1,1.056-3.9,4.646,4.646,0,0,1,3.446-1.54,2.069,2.069,0,0,0,.962-.224c.143-.155.032-.541-.339-1.181-1.308-.321-2.684-.518-4.016-.709-3.185-.455-6.2-.886-8.421-2.882a13.264,13.264,0,0,0,1.338,5.6A2.017,2.017,0,0,1,643.1,505.657Z" transform="translate(-640.563 -500.013)" fill="#fff"/></g><g transform="translate(117.12 126.116)"><path d="M522.634,459.371c4.79,2.874,9.278.809,10.766-5.378a3.461,3.461,0,0,1-2.3-2.185c-1.961,1.141-4.167,2.791-5.884,2.458-1.439-.279-1.926-1.7-1.838-3.145C520.827,452.663,521.362,458.523,522.634,459.371Z" transform="translate(-521.459 -451.01)" fill="#cad9d7"/><path d="M526.506,460.494h0a8.173,8.173,0,0,1-4.192-1.291c-.678-.452-1.156-2.186-1.115-4.035.022-1,.247-3.432,1.855-4.405a.112.112,0,0,1,.169.1c-.038.623-.024,2.686,1.748,3.029a2.359,2.359,0,0,0,.447.041c1.291,0,2.824-.941,4.307-1.851.356-.218.708-.435,1.053-.636a.11.11,0,0,1,.09-.01.112.112,0,0,1,.068.06,3.391,3.391,0,0,0,2.224,2.121.114.114,0,0,1,.072.049.111.111,0,0,1,.014.086C532.23,457.975,529.711,460.494,526.506,460.494Zm-3.516-9.422c-1.352.985-1.549,3.176-1.569,4.1-.038,1.751.406,3.438,1.011,3.842a7.948,7.948,0,0,0,4.073,1.257c3.113,0,5.477-2.352,6.5-6.458a3.592,3.592,0,0,1-2.219-2.11c-.31.182-.625.376-.943.571-1.509.926-3.069,1.884-4.424,1.884a2.59,2.59,0,0,1-.489-.045C523.667,453.868,522.952,452.739,522.99,451.072Z" transform="translate(-521.196 -450.746)" fill="#fff"/></g><g transform="translate(144.971 111.964)"><path d="M637.372,418.127a22.8,22.8,0,0,1-.065-3.855c.3-2.1,1.214-6.7-.855-8.528a2.369,2.369,0,0,1-.4-.465c-2.507,1-4.61-1.724-8.261-1.656.085,1.115,1.144,2.48.311,2.9-2.2,1.1-5.506,0-7.157-1.1-.018-.018-.034-.038-.051-.057-1.123,2.6-1.721,5.622-4.9,7.214-1.651.55-.551,4.4.551,5.505,2.2,3.3,4.4-2.753,7.707-2.2,2.2,0,3.854,1.652,4.4,4.4,1.1-.55,1.652,1.1,2.2.551,1.1-1.652,2.2-2.2,3.853-1.652a4.074,4.074,0,0,0,.8.6C636.4,418.77,637.294,418.336,637.372,418.127Z" transform="translate(-615.04 -403.51)" fill="#cad9d7"/><path d="M630.353,420.8a1.114,1.114,0,0,1-.628-.339,1.486,1.486,0,0,0-.881-.44.885.885,0,0,0-.4.1.112.112,0,0,1-.16-.078c-.54-2.7-2.145-4.315-4.295-4.315a2.713,2.713,0,0,0-.43-.036c-1.25,0-2.372.956-3.361,1.8a4.552,4.552,0,0,1-2.476,1.428,1.9,1.9,0,0,1-1.534-1.041,6.315,6.315,0,0,1-1.337-4.637,1.325,1.325,0,0,1,.844-1.036c2.555-1.279,3.421-3.532,4.26-5.711.183-.477.374-.971.577-1.442a.111.111,0,0,1,.185-.031l.048.053A9.76,9.76,0,0,0,625.7,406.6h0a4.663,4.663,0,0,0,2.1-.445c.412-.206.265-.705-.024-1.5a5.06,5.06,0,0,1-.348-1.287.112.112,0,0,1,.029-.084.111.111,0,0,1,.081-.036h.137a10.483,10.483,0,0,1,4.232,1.087,7.39,7.39,0,0,0,2.75.791h0a2.931,2.931,0,0,0,1.1-.212.113.113,0,0,1,.134.042,2.26,2.26,0,0,0,.379.444c1.944,1.717,1.338,5.689.976,8.062-.031.2-.06.393-.085.566a10.6,10.6,0,0,0,.031,3.038,2.178,2.178,0,0,1,.029.84c-.043.113-.192.224-.463.426a8.729,8.729,0,0,0-1.423,1.267.112.112,0,0,1-.141.022,4.3,4.3,0,0,1-.8-.6,3.481,3.481,0,0,0-1.084-.192c-.976,0-1.783.558-2.616,1.808A.46.46,0,0,1,630.353,420.8Zm-1.509-1a1.679,1.679,0,0,1,1.022.49c.182.148.354.288.487.288a.223.223,0,0,0,.165-.082c.865-1.3,1.73-1.89,2.788-1.89a3.708,3.708,0,0,1,1.179.212.112.112,0,0,1,.044.027,3.745,3.745,0,0,0,.7.538,9.055,9.055,0,0,1,1.395-1.228,1.986,1.986,0,0,0,.387-.325,2.369,2.369,0,0,0-.041-.733,10.809,10.809,0,0,1-.031-3.1c.025-.173.054-.363.085-.567.332-2.175.949-6.224-.9-7.861a2.385,2.385,0,0,1-.365-.413,3.151,3.151,0,0,1-1.1.2h0a7.538,7.538,0,0,1-2.837-.809,10.3,10.3,0,0,0-4.145-1.069h-.01a5.634,5.634,0,0,0,.322,1.109c.275.755.535,1.468-.085,1.778a4.887,4.887,0,0,1-2.2.468h0a9.993,9.993,0,0,1-5.016-1.541c-.18.424-.349.865-.514,1.292-.854,2.219-1.736,4.513-4.383,5.836a1.107,1.107,0,0,0-.711.882,6.04,6.04,0,0,0,1.291,4.444c.436.651.877.959,1.362.959a4.45,4.45,0,0,0,2.331-1.375c1.019-.869,2.174-1.854,3.506-1.854a2.694,2.694,0,0,1,.448.037h0c2.208,0,3.875,1.626,4.464,4.357A1.062,1.062,0,0,1,628.845,419.794Z" transform="translate(-614.781 -403.246)" fill="#fff"/></g><g transform="translate(163.337 75.338)"><path d="M684.671,303.7a4.462,4.462,0,0,1,4.6-2.146c.326-.508.626-.95.862-1.269.9-1.211,2.7-8.789,0-13.784-.923-1.7-1.972-3.734-2.944-5.75a16.324,16.324,0,0,1-8.1.6c-1.044,4.7-1.186,9.391-2.125,14.086-.527,2.635,1.458,5.268.182,7.42C679.718,304.53,682.793,306.513,684.671,303.7Z" transform="translate(-676.76 -280.637)" fill="#cad9d7"/><path d="M681.963,304.96h0c-1.647,0-3.5-1.206-5.143-2.27a.112.112,0,0,1-.035-.151c.687-1.16.393-2.48.082-3.877a8.442,8.442,0,0,1-.278-3.508c.44-2.2.709-4.435.969-6.6.3-2.454.6-4.991,1.156-7.49a.112.112,0,0,1,.142-.082,9.789,9.789,0,0,0,2.549.261,15.845,15.845,0,0,0,5.476-.862.112.112,0,0,1,.144.054c.885,1.838,1.93,3.878,2.941,5.745,2.711,5.008.892,12.686-.009,13.9-.234.315-.53.752-.857,1.263a.115.115,0,0,1-.109.05,4.374,4.374,0,0,0-4.492,2.1A2.953,2.953,0,0,1,681.963,304.96Zm-4.933-2.4c1.591,1.032,3.381,2.176,4.933,2.176a2.707,2.707,0,0,0,2.35-1.364,4.578,4.578,0,0,1,4.637-2.2c.315-.489.6-.909.828-1.216.883-1.194,2.661-8.735-.008-13.665-1-1.838-2.023-3.844-2.9-5.66a16.374,16.374,0,0,1-5.464.839,10.514,10.514,0,0,1-2.5-.237c-.537,2.45-.837,4.942-1.127,7.352-.261,2.168-.53,4.409-.972,6.616a8.268,8.268,0,0,0,.277,3.416C677.4,300.02,677.7,301.349,677.031,302.561Z" transform="translate(-676.496 -280.374)" fill="#fff"/></g><g transform="translate(75.892 164.38)"><path d="M394.4,581.476c-1.025-.324-2.674-.216-3.587-.832-1.09-.734-1.673-1.586-4.334-.876-2.445.653-2.192,2.492-3.443,3.627C386.4,584.88,390.782,583.483,394.4,581.476Z" transform="translate(-382.92 -579.39)" fill="#cad9d7"/><path d="M385.924,583.864h0a7.906,7.906,0,0,1-3.2-.629.111.111,0,0,1-.03-.185,4.49,4.49,0,0,0,.939-1.383,3.639,3.639,0,0,1,2.55-2.27,6.9,6.9,0,0,1,1.755-.27,3.4,3.4,0,0,1,2.249.861c.135.1.273.2.421.3a5.2,5.2,0,0,0,2.156.565,8.248,8.248,0,0,1,1.4.252.112.112,0,0,1,.021.2A18.178,18.178,0,0,1,385.924,583.864Zm-2.957-.768a7.767,7.767,0,0,0,2.957.545h0a17.666,17.666,0,0,0,7.911-2.393,11.129,11.129,0,0,0-1.1-.173,5.339,5.339,0,0,1-2.253-.6c-.15-.1-.291-.2-.429-.306a3.171,3.171,0,0,0-2.116-.818,6.682,6.682,0,0,0-1.7.263,3.413,3.413,0,0,0-2.409,2.156A5.124,5.124,0,0,1,382.967,583.1Z" transform="translate(-382.657 -579.127)" fill="#fff"/></g><g transform="translate(57.067 167.387)"><path d="M340.3,593.005a6.662,6.662,0,0,1-.6-2.2,6.975,6.975,0,0,1-1.1-.368,2.735,2.735,0,0,1-.365.285c-1.687,1.084-4.944,2.075-6.119,1.409s-.8-3.321-2.517-2.419-2.613,3.549-3.549,5.083-3.364,2.551-4.548,2.941-2.214,1.162-1.48,1.712,3.492,1.009,2.847,2.661c-.392,1,.143,3.258.906,4.915C327.33,600.414,331.92,592.2,340.3,593.005Z" transform="translate(-319.665 -589.419)" fill="#cad9d7"/><path d="M323.513,606.876h0a.112.112,0,0,1-.1-.065c-.751-1.63-1.325-3.937-.909-5,.435-1.115-.851-1.648-1.884-2.078a4.759,4.759,0,0,1-.927-.453.6.6,0,0,1-.284-.59c.093-.566,1.025-1.063,1.8-1.317.569-.187,3.46-1.209,4.488-2.893.243-.4.483-.872.738-1.373.729-1.438,1.556-3.068,2.854-3.75a1.459,1.459,0,0,1,.669-.2c.621,0,.855.618,1.1,1.272a2.459,2.459,0,0,0,.852,1.346,2.088,2.088,0,0,0,1.01.2h0a11.1,11.1,0,0,0,4.993-1.607,2.623,2.623,0,0,0,.35-.273.113.113,0,0,1,.12-.02,6.8,6.8,0,0,0,1.079.363.111.111,0,0,1,.084.1,6.523,6.523,0,0,0,.592,2.161.111.111,0,0,1-.01.111.113.113,0,0,1-.1.046c-.376-.036-.752-.054-1.119-.054-7.763,0-12.117,8.1-15.3,14.018A.112.112,0,0,1,323.513,606.876Zm6.44-17.5a1.27,1.27,0,0,0-.565.172c-1.235.65-2.044,2.245-2.759,3.654-.257.506-.5.984-.746,1.389-1.042,1.707-3.791,2.719-4.609,2.989-.908.3-1.584.768-1.645,1.14a.388.388,0,0,0,.2.376,4.771,4.771,0,0,0,.878.426c1.064.442,2.521,1.047,2.006,2.365-.363.931.118,3.032.812,4.622,3.2-5.947,7.576-13.936,15.385-13.936.312,0,.631.013.95.039a6.681,6.681,0,0,1-.526-1.981,7.053,7.053,0,0,1-.973-.326,2.715,2.715,0,0,1-.326.248,11.178,11.178,0,0,1-5.114,1.643h0a2.293,2.293,0,0,1-1.12-.23,2.645,2.645,0,0,1-.951-1.461C330.618,589.9,330.421,589.379,329.953,589.379Z" transform="translate(-319.402 -589.156)" fill="#fff"/></g><g transform="translate(61.067 170.867)"><path d="M349.74,601.078c-8.38-.8-12.97,7.409-16.523,14.022.493,1.071,1.081,1.895,1.58,1.967,1.273.184,2.686,1.285,3.676-1.605s1.926-2.673,2.675-3.654,2.562-3.393,4.051-3.779c2.669-.69,5.368-.724,6.584.441s.832,3.321,1.987,3c.985-.274.967-3.142,1.934-4.709C353.209,605.188,350.834,603.443,349.74,601.078Z" transform="translate(-333.105 -600.911)" fill="#cad9d7"/><path d="M336.309,617.272a4.225,4.225,0,0,1-1.087-.2,5.953,5.953,0,0,0-.7-.162c-.68-.1-1.336-1.314-1.666-2.03a.112.112,0,0,1,0-.1c3.205-5.965,7.6-14.136,15.492-14.136.374,0,.757.019,1.14.056a.112.112,0,0,1,.091.064c1.091,2.36,3.491,4.1,5.921,5.635a.112.112,0,0,1,.036.153,9.128,9.128,0,0,0-.865,2.476c-.281,1.133-.523,2.112-1.134,2.281a.922.922,0,0,1-.245.036h0c-.542,0-.717-.574-.919-1.239a4.007,4.007,0,0,0-.93-1.824,4.417,4.417,0,0,0-3.065-.894,13.971,13.971,0,0,0-3.414.481c-1.42.367-3.187,2.685-3.942,3.674l-.049.064a3.626,3.626,0,0,1-.752.7,5.08,5.08,0,0,0-1.906,2.918C337.833,616.643,337.214,617.272,336.309,617.272Zm-3.23-2.432c.515,1.1,1.063,1.794,1.472,1.852a6.247,6.247,0,0,1,.73.168,4.083,4.083,0,0,0,1.029.189c.535,0,1.223-.215,1.8-1.888a5.268,5.268,0,0,1,1.981-3.022,3.475,3.475,0,0,0,.71-.663l.049-.064c.769-1.007,2.568-3.368,4.063-3.755a14.2,14.2,0,0,1,3.47-.487,4.624,4.624,0,0,1,3.219.956,4.236,4.236,0,0,1,.989,1.921c.21.69.346,1.081.705,1.081h0a.709.709,0,0,0,.186-.028c.486-.135.725-1.1.977-2.12a9.819,9.819,0,0,1,.835-2.445c-2.408-1.523-4.773-3.26-5.886-5.614-.354-.032-.709-.048-1.055-.048C340.606,600.87,336.255,608.928,333.078,614.839Z" transform="translate(-332.842 -600.647)" fill="#fff"/></g><g transform="translate(76.988 166.364)"><path d="M397.506,586.373a1.8,1.8,0,0,0-.521-.238c-3.234,1.8-7.077,3.1-10.266,2.288.331,3.551,3.355,5.857,6.565,7.88a2.352,2.352,0,0,1,.6-.681c1.608-1.168,4.4-1.858,4.835-2.845S398.377,587.012,397.506,586.373Z" transform="translate(-386.606 -586.023)" fill="#cad9d7"/><path d="M393.019,596.151a.111.111,0,0,1-.06-.017c-3.019-1.9-6.269-4.244-6.617-7.964a.112.112,0,0,1,.139-.118,8.322,8.322,0,0,0,2.039.242,17.927,17.927,0,0,0,8.146-2.519.108.108,0,0,1,.087-.009,1.86,1.86,0,0,1,.554.255c.93.681,1.709,5.5,1.247,6.539-.27.605-1.287,1.07-2.466,1.609a14.392,14.392,0,0,0-2.405,1.281,2.218,2.218,0,0,0-.57.649.111.111,0,0,1-.07.05A.1.1,0,0,1,393.019,596.151Zm-6.438-7.846c.409,3.492,3.5,5.744,6.4,7.58a2.333,2.333,0,0,1,.568-.618,14.565,14.565,0,0,1,2.444-1.3c1.09-.5,2.12-.968,2.355-1.5.408-.917-.343-5.659-1.176-6.269a1.556,1.556,0,0,0-.443-.207,18.087,18.087,0,0,1-8.212,2.524A8.64,8.64,0,0,1,386.582,588.3Z" transform="translate(-386.342 -585.759)" fill="#fff"/></g><g transform="translate(29.679 192.806)"><path d="M231.024,674.742c-.663.664-1.33,1.282-1.891,1.835-1.954,1.924-.236,5.221.183,6.538s-3.733,3.441,0,5.62,1.907-6.078,5.491-5.964c3.232.1-2.3,10.28,0,9.565,5.434-1.686,2.853-4.989,4.161-5.746.831-.48,1.093.412,1.614,1C239.067,682.233,236.361,676.8,231.024,674.742Z" transform="translate(-227.634 -674.63)" fill="#cad9d7"/><path d="M234.335,692.22a.419.419,0,0,1-.348-.165c-.336-.446,0-1.69.568-3.682.582-2.029,1.306-4.554.668-5.429a.818.818,0,0,0-.684-.326h-.07c-1.569,0-2.017,1.75-2.449,3.443-.38,1.485-.738,2.888-1.872,2.888a2.343,2.343,0,0,1-1.153-.381,2.936,2.936,0,0,1-1.587-1.759,3.287,3.287,0,0,1,.9-2.451c.391-.557.761-1.083.637-1.472-.061-.191-.15-.425-.253-.7-.606-1.594-1.62-4.264.1-5.955.24-.237.5-.486.771-.745.361-.345.741-.71,1.12-1.089a.111.111,0,0,1,.119-.025c4.51,1.736,7.658,5.964,9.625,12.925a.112.112,0,0,1-.191.1,5,5,0,0,1-.344-.456c-.242-.347-.45-.647-.752-.647a.769.769,0,0,0-.379.122c-.375.217-.384.708-.4,1.329-.025,1.3-.062,3.271-3.788,4.427A.826.826,0,0,1,234.335,692.22Zm.135-9.825h.077a1.041,1.041,0,0,1,.857.417c.7.963-.008,3.438-.634,5.621-.438,1.527-.891,3.106-.6,3.486.065.086.177.1.345.045,3.572-1.108,3.606-2.906,3.63-4.218.012-.664.023-1.237.507-1.517a.98.98,0,0,1,.491-.152c.4,0,.648.33.9.693-1.945-6.5-4.976-10.487-9.252-12.162-.363.362-.726.709-1.071,1.041-.27.258-.529.507-.769.743-1.614,1.589-.632,4.173-.046,5.717.1.274.194.51.257.707.157.495-.225,1.038-.667,1.668a3.133,3.133,0,0,0-.865,2.275,2.74,2.74,0,0,0,1.481,1.614,2.164,2.164,0,0,0,1.04.351c.961,0,1.3-1.321,1.656-2.72C232.237,684.312,232.727,682.394,234.47,682.394Z" transform="translate(-227.37 -674.367)" fill="#fff"/></g><g transform="translate(32.957 178.948)"><path d="M250.317,631.411c0-4.017-6.411-3.911-10.044-1.773a24.868,24.868,0,0,1,1.717,6.856c.049,1.955-1.581,3.89-3.229,5.538a12.235,12.235,0,0,1,4.283,2.818C247.093,641.2,250.827,637.014,250.317,631.411Z" transform="translate(-238.649 -628.062)" fill="#cad9d7"/><path d="M242.78,644.7a.111.111,0,0,1-.079-.033,12.177,12.177,0,0,0-4.244-2.793.112.112,0,0,1-.039-.183c1.514-1.513,3.246-3.5,3.2-5.456a24.782,24.782,0,0,0-1.709-6.818.112.112,0,0,1,.047-.138,11.439,11.439,0,0,1,5.563-1.48c2.911,0,4.65,1.252,4.65,3.349.513,5.633-3.21,9.829-7.31,13.522A.111.111,0,0,1,242.78,644.7Zm-4.084-2.971a12.392,12.392,0,0,1,4.087,2.705c4.026-3.636,7.66-7.765,7.159-13.275,0-1.968-1.655-3.136-4.427-3.136a11.236,11.236,0,0,0-5.367,1.4,24.939,24.939,0,0,1,1.689,6.805C241.888,638.207,240.3,640.112,238.7,641.727Z" transform="translate(-238.386 -627.798)" fill="#fff"/></g><g transform="translate(37.24 183.239)"><path d="M253.152,654.979c2.632,2.633,4.234,6.351,5.275,10.033a1.17,1.17,0,0,0,1.312.406c1.723-.483,4.99-13.972,6.136-15.775a48.021,48.021,0,0,0,2.7-4.294c-2.689-.341-5.078-2.62-8.107-2.756C260.457,647.674,256.943,651.563,253.152,654.979Z" transform="translate(-253.04 -642.482)" fill="#cad9d7"/><path d="M259.078,665.326h0a1.3,1.3,0,0,1-1-.5.11.11,0,0,1-.023-.044c-1.256-4.443-2.972-7.709-5.247-9.985a.111.111,0,0,1,0-.162c3.774-3.4,7.268-7.243,7.283-12.3a.111.111,0,0,1,.035-.081.122.122,0,0,1,.082-.031,11.724,11.724,0,0,1,4.544,1.466,11.885,11.885,0,0,0,3.572,1.291.112.112,0,0,1,.085.162,31.6,31.6,0,0,1-2.069,3.347c-.246.36-.465.682-.638.956a41.176,41.176,0,0,0-2,5.7c-1.739,5.556-3.153,9.829-4.2,10.122A1.594,1.594,0,0,1,259.078,665.326Zm-.814-.632a1.049,1.049,0,0,0,.814.409h0a1.365,1.365,0,0,0,.368-.055c1.013-.284,2.766-5.885,4.046-9.974a40.73,40.73,0,0,1,2.025-5.753c.174-.275.4-.6.642-.962a32.569,32.569,0,0,0,1.983-3.184,12.627,12.627,0,0,1-3.484-1.289,11.827,11.827,0,0,0-4.341-1.438c-.067,5.049-3.519,8.883-7.269,12.272C255.307,657.016,257.014,660.28,258.264,664.694Z" transform="translate(-252.777 -642.219)" fill="#fff"/></g><g transform="translate(24.875 174.977)"><path d="M212.281,615.022c-1.134,1.579-.662,5.32-.024,7.127.781,2.216,4.458,3.672,6.058,4.244s.465-1.949-.343-3.944a3.946,3.946,0,0,1-.3-1.406C215.26,619.8,213.59,617.409,212.281,615.022Z" transform="translate(-211.486 -614.91)" fill="#cad9d7"/><path d="M218.452,626.323h0a1.3,1.3,0,0,1-.432-.089c-3.448-1.234-5.566-2.725-6.125-4.312-.694-1.968-1.079-5.674.039-7.23a.107.107,0,0,1,.1-.046.111.111,0,0,1,.091.058c1.056,1.925,2.758,4.639,5.347,5.976a.111.111,0,0,1,.06.1,3.847,3.847,0,0,0,.289,1.366l.173.426c.607,1.486,1.236,3.021.879,3.554A.471.471,0,0,1,218.452,626.323Zm-6.436-11.35c-.949,1.575-.566,5.014.09,6.875.536,1.521,2.607,2.965,5.99,4.176a1.1,1.1,0,0,0,.357.076h0a.247.247,0,0,0,.232-.1c.291-.433-.369-2.048-.9-3.345l-.174-.426a4.077,4.077,0,0,1-.3-1.379C214.77,619.51,213.084,616.9,212.016,614.973Z" transform="translate(-211.229 -614.645)" fill="#fff"/></g><g transform="translate(25.559 172.504)"><path d="M223.5,610.85c0-2.23-2.168-3.015-4.162-4.112a12.05,12.05,0,0,1-4.4,1.772,1.649,1.649,0,0,0-1.03.694c1.309,2.387,2.979,4.774,5.393,6.021a3.732,3.732,0,0,1,1.624-3.132c.335-.224.768.22,1.216,1.031C223.056,612.527,223.917,611.689,223.5,610.85Z" transform="translate(-213.79 -606.627)" fill="#cad9d7"/><path d="M219.031,615.073a.111.111,0,0,1-.051-.013c-2.643-1.365-4.37-4.116-5.44-6.066a.111.111,0,0,1,.007-.119,1.76,1.76,0,0,1,1.1-.738,11.877,11.877,0,0,0,4.368-1.758.114.114,0,0,1,.11,0c.268.148.54.29.809.43,1.747.913,3.4,1.775,3.411,3.754.351.74-.137,1.567-1.413,2.394a.109.109,0,0,1-.087.015.111.111,0,0,1-.071-.054c-.5-.9-.8-1.032-.934-1.032a.216.216,0,0,0-.122.039,3.6,3.6,0,0,0-1.574,3.036.112.112,0,0,1-.112.114Zm-5.261-6.124c1.035,1.88,2.68,4.477,5.15,5.827a3.836,3.836,0,0,1,1.672-3.039c.355-.238.805.072,1.317.965.794-.532,1.606-1.3,1.224-2.065a.113.113,0,0,1-.012-.05c0-1.862-1.6-2.7-3.292-3.581-.252-.132-.506-.265-.757-.4a12.119,12.119,0,0,1-4.383,1.753A1.527,1.527,0,0,0,213.771,608.95Z" transform="translate(-213.527 -606.364)" fill="#fff"/></g><g transform="translate(30.992 168.543)"><path d="M245.443,597.1c-1.528-1.229-1.882-2.965-3.618-3.479-2.684-.793-5.161,1.068-8.029,2.789-.636.382-1.167.7-1.639.981,1.994,1.1,4.162,1.881,4.162,4.112.42.84-.441,1.678-1.362,2.274a13.222,13.222,0,0,1,.677,1.458,11.338,11.338,0,0,1,5.806-1.458C241.269,601.18,243.373,598.889,245.443,597.1Z" transform="translate(-232.045 -593.326)" fill="#cad9d7"/><path d="M235.371,605.088a.107.107,0,0,1-.036-.006.111.111,0,0,1-.068-.064,13.085,13.085,0,0,0-.671-1.445.111.111,0,0,1,.037-.148c.823-.533,1.721-1.335,1.323-2.131a.113.113,0,0,1-.012-.05c0-1.862-1.6-2.7-3.292-3.581-.27-.141-.543-.284-.813-.432a.112.112,0,0,1,0-.194c.368-.216.77-.458,1.229-.735l.409-.246c.345-.207.684-.416,1.02-.622,1.979-1.219,3.848-2.37,5.765-2.37a4.689,4.689,0,0,1,1.333.193,4.3,4.3,0,0,1,2.231,1.895,8.011,8.011,0,0,0,1.426,1.6.111.111,0,0,1,.042.085.112.112,0,0,1-.039.087c-1.787,1.541-4.142,3.9-3.964,6.586a.111.111,0,0,1-.031.085.115.115,0,0,1-.084.034,11.159,11.159,0,0,0-5.746,1.443A.113.113,0,0,1,235.371,605.088Zm-.53-1.533a13.371,13.371,0,0,1,.585,1.261,11.5,11.5,0,0,1,5.633-1.412c-.105-2.683,2.165-5.011,3.948-6.561a8.553,8.553,0,0,1-1.363-1.56,4.072,4.072,0,0,0-2.114-1.813,4.489,4.489,0,0,0-1.27-.184c-1.853,0-3.7,1.135-5.648,2.337-.335.207-.676.416-1.022.624l-.409.246c-.39.235-.74.445-1.062.636.212.114.425.226.637.336,1.747.913,3.4,1.775,3.411,3.754C236.51,601.942,236.053,602.748,234.841,603.555Z" transform="translate(-231.782 -593.063)" fill="#fff"/></g><g transform="translate(40.265 172.219)"><path d="M276.719,615.079c-.6-2.954-4.748-2.3-4.89-3.466-.108-.893,4.081-2.5,2.39-4.354-2.845-3.122-1.56,1.714-6.3-1.091a4.895,4.895,0,0,1-.584-.409c-2.07,1.785-4.175,4.075-4,6.677,2.326.075,4.238,1.038,4.238,3.231.032.357.047.708.046,1.054,3.029.136,5.417,2.415,8.107,2.756A7.094,7.094,0,0,0,276.719,615.079Z" transform="translate(-263.207 -605.647)" fill="#cad9d7"/><path d="M275.456,619.325h-.014a12.064,12.064,0,0,1-3.641-1.311,11.558,11.558,0,0,0-4.456-1.444.112.112,0,0,1-.107-.112c0-.351-.014-.7-.045-1.043,0-2.705-2.889-3.089-4.131-3.129a.112.112,0,0,1-.108-.1c-.184-2.786,2.219-5.2,4.041-6.769a.111.111,0,0,1,.143,0,4.734,4.734,0,0,0,.57.4,5.231,5.231,0,0,0,2.491.9h0a2.054,2.054,0,0,0,1.338-.533,1.408,1.408,0,0,1,.838-.387c.437,0,.95.349,1.663,1.132a1.43,1.43,0,0,1,.428,1.083c-.065.852-.973,1.585-1.773,2.232-.515.415-1.047.845-1.016,1.1.046.377.7.553,1.454.758,1.289.348,3.054.825,3.434,2.7a7.021,7.021,0,0,1-1.01,4.471A.112.112,0,0,1,275.456,619.325Zm-8-2.973a11.972,11.972,0,0,1,4.437,1.46,12.18,12.18,0,0,0,3.494,1.28,6.744,6.744,0,0,0,.954-4.255c-.352-1.739-1.972-2.176-3.274-2.528-.868-.234-1.553-.42-1.617-.946-.046-.379.459-.787,1.1-1.3.728-.588,1.633-1.319,1.691-2.075a1.2,1.2,0,0,0-.371-.916c-.659-.723-1.134-1.06-1.5-1.06a1.232,1.232,0,0,0-.7.342,2.271,2.271,0,0,1-1.473.578h0a5.429,5.429,0,0,1-2.6-.93,4.819,4.819,0,0,1-.524-.36c-1.755,1.522-4.012,3.815-3.9,6.425,2.66.116,4.244,1.359,4.244,3.338C267.443,615.708,267.458,616.029,267.46,616.351Z" transform="translate(-262.944 -605.384)" fill="#fff"/></g><g transform="translate(0 213.728)"><path d="M115.711,738.672c-4.415.629-.058-3.347,1.16-4.785s1.5-3.119,1.945-3.854c.528-.871,2.184.964,2.941.046,1.052-1.274,1.6-4.692,2.918-1.518.982,2.366-2.71,3.982-4.179,4.975S117.1,738.475,115.711,738.672Z" transform="translate(-113.667 -727.137)" fill="#cad9d7"/><path d="M114.626,738.587c-.643,0-1.024-.157-1.165-.48-.366-.839,1.207-2.535,2.355-3.773.285-.307.53-.571.709-.783a8.914,8.914,0,0,0,1.493-2.813,6.564,6.564,0,0,1,.442-1.027.59.59,0,0,1,.537-.3,2.711,2.711,0,0,1,.933.269,2.891,2.891,0,0,0,.987.283.6.6,0,0,0,.493-.224,7.223,7.223,0,0,0,.779-1.361c.394-.81.734-1.51,1.211-1.51.371,0,.726.439,1.117,1.382.856,2.063-1.67,3.57-3.342,4.567-.327.2-.636.38-.878.543a11.324,11.324,0,0,0-2.071,2.4c-.992,1.356-1.93,2.637-2.761,2.755A6.091,6.091,0,0,1,114.626,738.587ZM119,729.64a.366.366,0,0,0-.346.188,6.438,6.438,0,0,0-.423.989A9.234,9.234,0,0,1,116.7,733.7c-.183.216-.43.482-.716.791-1.044,1.125-2.622,2.826-2.314,3.532.143.328.749.426,1.77.281.737-.105,1.69-1.407,2.612-2.666a11.2,11.2,0,0,1,2.126-2.452c.246-.166.558-.352.888-.549,1.7-1.015,4.032-2.406,3.25-4.29-.427-1.028-.731-1.244-.911-1.244-.337,0-.679.7-1.01,1.385a7.37,7.37,0,0,1-.808,1.405.823.823,0,0,1-.665.305,3.042,3.042,0,0,1-1.072-.3A2.581,2.581,0,0,0,119,729.64Z" transform="translate(-113.407 -726.874)" fill="#fff"/></g></g><path d="M101.138,705.46h-.348V692l-8.446-8.446H77.691v-.348H92.416a.174.174,0,0,1,.123.051l8.548,8.548a.173.173,0,0,1,.051.123Z" transform="translate(36.651 -448.997)" fill="#dcdcdc"/></g></svg>