<svg xmlns="http://www.w3.org/2000/svg" width="124.177" height="123.743" viewBox="0 0 124.177 123.743"><g transform="translate(160.11 -133.326)"><path d="M-85.845,198.2c-2.6-2.116-5.185,1.433-6.477,2.732s-4.826,3.91-2.692,6.5,33.37,34.341,36.1,37.282,5.658-.723,7.777-2.855,5.764-5.093,2.8-7.795S-83.242,200.316-85.845,198.2Z" transform="translate(10.196 10.162)" fill="#2c2120" stroke="#2c2120" stroke-linecap="round" stroke-linejoin="round" stroke-width="2.155"/><path d="M-108.174,179.8c-1.525-1.242-3.041.837-3.8,1.6s-2.826,2.289-1.577,3.808S-93.992,205.34-92.4,207.064s3.318-.428,4.559-1.676,3.378-2.981,1.643-4.567S-106.649,181.042-108.174,179.8Z" transform="translate(7.257 7.245)" fill="#a7bdd0" stroke="#a7bdd0" stroke-linecap="round" stroke-linejoin="round" stroke-width="0.862"/><g transform="translate(-159.032 134.404)"><path d="M-86.222,146.819a42.7,42.7,0,0,1,.19,60.4,42.705,42.705,0,0,1-60.4.189,42.71,42.71,0,0,1-.189-60.4A42.705,42.705,0,0,1-86.222,146.819Z" transform="translate(159.032 -134.404)" fill="#a7bdd0" stroke="#a7bdd0" stroke-linecap="round" stroke-linejoin="round" stroke-width="2.155"/><path d="M-111.387,139.5A37.307,37.307,0,0,1-80.2,182.049a37.309,37.309,0,0,1-42.557,31.184,37.306,37.306,0,0,1-31.183-42.555A37.305,37.305,0,0,1-111.387,139.5Z" transform="translate(159.78 -133.655)" fill="#9acff1"/><path d="M-90.78,149.9a37.3,37.3,0,0,1,.166,52.756,37.305,37.305,0,0,1-52.756.165,37.3,37.3,0,0,1-.161-52.756A37.3,37.3,0,0,1-90.78,149.9Z" transform="translate(159.781 -133.655)" fill="none" stroke="#8496a6" stroke-linecap="round" stroke-linejoin="round" stroke-width="2.155"/><path d="M-115.395,146.89a30.3,30.3,0,0,1,25.326,34.563,30.3,30.3,0,0,1-34.561,25.325,30.3,30.3,0,0,1-25.326-34.564A30.3,30.3,0,0,1-115.395,146.89Z" transform="translate(160.435 -132.452)" fill="#b9dff6"/><path d="M-137.4,173.794a7.99,7.99,0,0,1,6.679,9.111,7.991,7.991,0,0,1-9.117,6.674,7.988,7.988,0,0,1-6.674-9.112A7.983,7.983,0,0,1-137.4,173.794Z" transform="translate(161.032 -128.079)" fill="#fff"/></g></g></svg>