<svg xmlns="http://www.w3.org/2000/svg" width="109.384" height="99.845" viewBox="0 0 109.384 99.845"><g transform="translate(7.323 1.922)"><path d="M44.274,99.324C16.259,95.379-3.349,70.063.477,42.779S30.117-3.425,58.131.52a51.341,51.341,0,0,1,42.26,35.893l8.993,6.485-7.032,5.095a48.917,48.917,0,0,1-.425,9.072C98.441,81.927,76.7,99.843,51.669,99.845A52.971,52.971,0,0,1,44.274,99.324Z" transform="translate(102.062 97.923) rotate(180)" fill="#03a58e"/><path d="M-9.59-6.538a.766.766,0,0,1-.238.56.766.766,0,0,1-.56.238h-7.224a.766.766,0,0,1-.56-.238.766.766,0,0,1-.238-.56v-3.78a.744.744,0,0,1,.238-.553.778.778,0,0,1,.56-.231h7.224a.778.778,0,0,1,.56.231.744.744,0,0,1,.238.553Zm-1.918-.728V-9.492q0-.126-.112-.126h-4.76q-.112,0-.112.126v2.226q0,.126.112.126h4.76Q-11.508-7.14-11.508-7.266Zm-7.91,8.484A.744.744,0,0,1-19.971.98.778.778,0,0,1-20.2.42V-4.1a.778.778,0,0,1,.231-.56.744.744,0,0,1,.553-.238h4.13a.766.766,0,0,1,.56.238.766.766,0,0,1,.238.56V.42a.766.766,0,0,1-.238.56.766.766,0,0,1-.56.238h-.5a.424.424,0,0,1-.322-.133A.443.443,0,0,1-16.24.77.062.062,0,0,0-16.31.7h-1.96a.062.062,0,0,0-.07.07.443.443,0,0,1-.126.315.424.424,0,0,1-.322.133Zm1.078-4.55v2.52q0,.112.126.112h1.862a.1.1,0,0,0,.112-.112v-2.52q0-.126-.112-.126h-1.862A.111.111,0,0,0-18.34-3.332ZM-8.582-4.9a.744.744,0,0,1,.553.238A.778.778,0,0,1-7.8-4.1V.42a.778.778,0,0,1-.231.56.744.744,0,0,1-.553.238h-.63a.424.424,0,0,1-.322-.133A.443.443,0,0,1-9.66.77.062.062,0,0,0-9.73.7h-1.96a.062.062,0,0,0-.07.07.443.443,0,0,1-.126.315.424.424,0,0,1-.322.133h-.5a.766.766,0,0,1-.56-.238A.766.766,0,0,1-13.51.42V-4.1a.766.766,0,0,1,.238-.56.766.766,0,0,1,.56-.238ZM-9.66-.812v-2.52a.111.111,0,0,0-.126-.126h-1.862q-.112,0-.112.126v2.52a.1.1,0,0,0,.112.112h1.862Q-9.66-.7-9.66-.812Zm15.5-8.806a.766.766,0,0,1,.56.238.766.766,0,0,1,.238.56v.168a.609.609,0,0,1-.182.448.609.609,0,0,1-.448.182q-.1,0-.1.084A14.239,14.239,0,0,1,4.452-2.2.161.161,0,0,0,4.48-2a7.048,7.048,0,0,0,1.5,1.3.957.957,0,0,1,.378.518A.786.786,0,0,1,6.3.434L6.286.462A.777.777,0,0,1,5.824.84.663.663,0,0,1,5.236.756,8.848,8.848,0,0,1,3.486-.686q-.1-.1-.168-.014A8.563,8.563,0,0,1,1.386.784.772.772,0,0,1,.77.861.862.862,0,0,1,.266.49L.224.406A.749.749,0,0,1,.133-.182.7.7,0,0,1,.49-.644a7.591,7.591,0,0,0,1.848-1.47.19.19,0,0,0,.028-.2A12.637,12.637,0,0,1,1.33-5.362Q1.3-5.418,1.26-5.39t-.084.14q-.056.1-.084.14a.68.68,0,0,1-.469.35.651.651,0,0,1-.567-.126l-.084-.07a.8.8,0,0,1-.336-.672.033.033,0,0,0-.028-.035.058.058,0,0,0-.056.021.656.656,0,0,1-.483.2A.577.577,0,0,1-1.4-5.67q-.28-.322-.574-.616-.014-.028-.049-.014t-.035.042v.406a.754.754,0,0,1-.231.553.754.754,0,0,1-.553.231h-.1A.778.778,0,0,1-3.5-5.3a.744.744,0,0,1-.238-.553V-6.37a.047.047,0,0,0-.021-.042q-.021-.014-.049.014A10.146,10.146,0,0,1-5.082-5.082a.638.638,0,0,1-.546.161.773.773,0,0,1-.5-.3.716.716,0,0,1-.126-.567A.8.8,0,0,1-5.95-6.3,11.749,11.749,0,0,0-4.494-7.546q.028-.056-.042-.084H-5.642a.671.671,0,0,1-.483-.2.637.637,0,0,1-.2-.476.66.66,0,0,1,.2-.483.66.66,0,0,1,.483-.2H-3.85A.1.1,0,0,0-3.738-9.1v-1.568a.744.744,0,0,1,.238-.553.778.778,0,0,1,.56-.231h.1a.754.754,0,0,1,.553.231.754.754,0,0,1,.231.553V-9.1q0,.112.126.112h1.54a.637.637,0,0,1,.476.2.671.671,0,0,1,.2.483.648.648,0,0,1-.2.476.648.648,0,0,1-.476.2H-1.414a.047.047,0,0,0-.042.021q-.014.021.014.049.448.35.98.812a.732.732,0,0,1,.238.476q0,.028.021.028a.047.047,0,0,0,.035-.014,19.988,19.988,0,0,0,1.736-4.606.89.89,0,0,1,.364-.518.855.855,0,0,1,.616-.154l.056.014a.723.723,0,0,1,.511.3.67.67,0,0,1,.119.567q-.07.308-.238.924-.028.112.084.112Zm-2.38,5.67A14.321,14.321,0,0,0,4.27-7.9q0-.126-.112-.126h-1.6a.163.163,0,0,0-.168.112q-.2.532-.308.8-.014.014,0,.042a.045.045,0,0,0,.042.028.514.514,0,0,1,.4.077.464.464,0,0,1,.2.343,15.455,15.455,0,0,0,.644,2.66.063.063,0,0,0,.042.035A.034.034,0,0,0,3.458-3.948Zm-9.2,1.12a.648.648,0,0,1-.476-.2.648.648,0,0,1-.2-.476.648.648,0,0,1,.2-.476.648.648,0,0,1,.476-.2h1.05a.144.144,0,0,0,.14-.1.91.91,0,0,1,.385-.462.923.923,0,0,1,.581-.14l.546.056a.438.438,0,0,1,.322.2.388.388,0,0,1,.042.364q-.028.084.042.084H0a.671.671,0,0,1,.483.2.637.637,0,0,1,.2.476.637.637,0,0,1-.2.476.671.671,0,0,1-.483.2H-.112a.163.163,0,0,0-.168.112A5.315,5.315,0,0,1-1.092-1.2q-.07.1.028.154t.322.14q.21.1.322.154a.652.652,0,0,1,.357.434A.716.716,0,0,1-.14.238.776.776,0,0,1-.616.6.8.8,0,0,1-1.2.546Q-1.666.294-2.254.028a.206.206,0,0,0-.21,0A7.77,7.77,0,0,1-5.25,1.12a.844.844,0,0,1-.588-.105A.865.865,0,0,1-6.23.546a.539.539,0,0,1,.056-.5A.648.648,0,0,1-5.74-.252,8.71,8.71,0,0,0-4.186-.7a.045.045,0,0,0,.028-.042.045.045,0,0,0-.028-.042Q-5-1.064-5.278-1.148a.587.587,0,0,1-.392-.364.566.566,0,0,1,.042-.532q.028-.056.168-.294t.21-.364a.106.106,0,0,0-.007-.084.067.067,0,0,0-.063-.042Zm2.03.658q-.056.1.056.126.532.168.9.308a.142.142,0,0,0,.182-.056,4.149,4.149,0,0,0,.63-.924q.056-.112-.07-.112h-1.2a.163.163,0,0,0-.168.112Q-3.486-2.534-3.71-2.17Zm-.5-7.364a.653.653,0,0,1-.385.392.768.768,0,0,1-.567.007.752.752,0,0,1-.427-.385l-.161-.322q-.105-.21-.161-.308a.628.628,0,0,1-.049-.525A.609.609,0,0,1-5.6-11.06a.8.8,0,0,1,.588-.028.734.734,0,0,1,.448.364l.161.322.161.322A.641.641,0,0,1-4.207-9.534Zm4.039.014a.733.733,0,0,1-.441.364A.829.829,0,0,1-1.19-9.17a.567.567,0,0,1-.357-.371.628.628,0,0,1,.049-.525q.126-.224.322-.658a.788.788,0,0,1,.4-.406.745.745,0,0,1,.567-.028.681.681,0,0,1,.406.364.623.623,0,0,1,0,.546Q.028-9.884-.168-9.52ZM16.254-9.3a.72.72,0,0,1-.056-.588.768.768,0,0,1,.392-.462H16.6a.786.786,0,0,1,.616-.056.769.769,0,0,1,.476.392q.154.28.462.868a.751.751,0,0,1,.028.6.769.769,0,0,1-.406.448.787.787,0,0,1-.616.028A.823.823,0,0,1,16.7-8.47Q16.632-8.6,16.254-9.3Zm2.59-1.54a.808.808,0,0,1,.616-.063.744.744,0,0,1,.476.385l.476.91a.736.736,0,0,1,.049.6.743.743,0,0,1-.4.448l-.042.028a.788.788,0,0,1-.609.035.8.8,0,0,1-.469-.4q-.07-.14-.224-.434t-.238-.434a.769.769,0,0,1-.063-.6.7.7,0,0,1,.385-.462ZM8.918-7.1a.754.754,0,0,1-.553-.231.754.754,0,0,1-.231-.553.778.778,0,0,1,.231-.56.744.744,0,0,1,.553-.238h1.554a.137.137,0,0,0,.14-.126q.21-.924.378-1.918a.887.887,0,0,1,.329-.525.821.821,0,0,1,.595-.175l.1.014a.7.7,0,0,1,.518.287.72.72,0,0,1,.14.581q-.182,1.064-.308,1.75-.028.112.1.112h1.918a4.164,4.164,0,0,1,.784.084,5.529,5.529,0,0,1,.6.14.92.92,0,0,1,.378.322,1.185,1.185,0,0,1,.252.476q.042.21.112.749a7.713,7.713,0,0,1,.07.987v1.344a9.124,9.124,0,0,1-.651,3.962A1.972,1.972,0,0,1,14.154.658,8.11,8.11,0,0,1,11.942.252a.744.744,0,0,1-.469-.392.837.837,0,0,1-.049-.63l.028-.084a.746.746,0,0,1,.385-.455.786.786,0,0,1,.609-.049,5.306,5.306,0,0,0,1.33.28.375.375,0,0,0,.266-.126,1.378,1.378,0,0,0,.252-.413,3.736,3.736,0,0,0,.217-.714,9.031,9.031,0,0,0,.147-1.078q.056-.651.056-1.449v-.959a3.561,3.561,0,0,0-.056-.609,1.908,1.908,0,0,0-.1-.406.491.491,0,0,0-.224-.175.748.748,0,0,0-.329-.091h-1.9a.132.132,0,0,0-.14.112A52.82,52.82,0,0,1,9.772.028a.79.79,0,0,1-.427.455A.788.788,0,0,1,8.736.5l-.1-.028A.672.672,0,0,1,8.2.077.809.809,0,0,1,8.19-.532a56.7,56.7,0,0,0,2-6.454q.028-.112-.084-.112Zm10.234.266q.812,2.086,1.316,3.71a.7.7,0,0,1-.063.588.75.75,0,0,1-.469.364l-.168.042a.792.792,0,0,1-.609-.077.856.856,0,0,1-.4-.483Q18.172-4.522,17.5-6.23a.809.809,0,0,1,.014-.609.672.672,0,0,1,.434-.4l.168-.056a.8.8,0,0,1,.616.021A.8.8,0,0,1,19.152-6.832Zm-34.258,21.12a.66.66,0,0,1,.483.2.66.66,0,0,1,.2.483,2.177,2.177,0,0,1-.364,1.26,10.879,10.879,0,0,1-3.731,3.22,17.982,17.982,0,0,1-5.635,1.862.912.912,0,0,1-.644-.126.941.941,0,0,1-.406-.5l-.014-.028a.625.625,0,0,1,.063-.553.668.668,0,0,1,.469-.315,18.958,18.958,0,0,0,4.116-1.148q.1-.042.014-.126t-.245-.238q-.161-.154-.245-.224a.65.65,0,0,1-.231-.525A.693.693,0,0,1-21.028,17l.042-.042a.839.839,0,0,1,.6-.217.843.843,0,0,1,.581.231l.8.756q.112.084.182.028a9.567,9.567,0,0,0,2.394-2q.07-.1-.042-.1h-3.094a.42.42,0,0,0-.224.07,21.622,21.622,0,0,1-4.032,2.058.9.9,0,0,1-.651.007.956.956,0,0,1-.511-.427.6.6,0,0,1-.049-.539.654.654,0,0,1,.385-.385,17.216,17.216,0,0,0,5.012-2.632,1.366,1.366,0,0,1,1.344-.294l.308.1a.379.379,0,0,1,.252.259.327.327,0,0,1-.1.343.042.042,0,0,0-.007.042.033.033,0,0,0,.035.028Zm-10.822,1.5a.828.828,0,0,1-.6-.112.9.9,0,0,1-.385-.49.6.6,0,0,1,.056-.532.644.644,0,0,1,.448-.308,18.279,18.279,0,0,0,3.738-1.008q.126-.056.042-.14l-.462-.42a.652.652,0,0,1-.217-.511.637.637,0,0,1,.245-.5.946.946,0,0,1,.6-.21.808.808,0,0,1,.574.224q.238.21.742.686a.129.129,0,0,0,.2.014,9.021,9.021,0,0,0,2.184-1.806q.028-.056-.042-.084h-3a.443.443,0,0,0-.224.056,19.988,19.988,0,0,1-3.584,1.778.889.889,0,0,1-.63-.007.91.91,0,0,1-.49-.413.609.609,0,0,1-.028-.539.678.678,0,0,1,.392-.385A17.1,17.1,0,0,0-21.84,8.758a1.37,1.37,0,0,1,1.358-.252l.238.084a.384.384,0,0,1,.266.28.343.343,0,0,1-.112.364.057.057,0,0,0-.014.042.025.025,0,0,0,.028.028h2.6a.62.62,0,0,1,.455.189.62.62,0,0,1,.189.455,1.917,1.917,0,0,1-.364,1.176Q-19.81,14.736-25.928,15.786ZM-3,18.362a20.985,20.985,0,0,0-1.442-7.028.739.739,0,0,1,.014-.581.675.675,0,0,1,.434-.385l.2-.056a.864.864,0,0,1,.637.049.9.9,0,0,1,.455.455,20.63,20.63,0,0,1,1.568,7.546.719.719,0,0,1-.224.56.766.766,0,0,1-.56.238H-2.2a.744.744,0,0,1-.553-.238A.833.833,0,0,1-3,18.362Zm-6.342,2.3q-1.19,0-2.205-1.624A7.277,7.277,0,0,1-12.558,15.1a17.6,17.6,0,0,1,.49-4.144.856.856,0,0,1,.371-.525.923.923,0,0,1,.637-.147l.238.028a.621.621,0,0,1,.483.294.716.716,0,0,1,.105.574,17.792,17.792,0,0,0-.448,3.92,6.166,6.166,0,0,0,.5,2.618q.5,1.064.987,1.064.308,0,.8-.595a7.677,7.677,0,0,0,.994-1.729.848.848,0,0,1,.441-.441A.788.788,0,0,1-6.356,16l.154.056a.766.766,0,0,1,.448.413.7.7,0,0,1,.014.595,7.814,7.814,0,0,1-1.708,2.646A2.84,2.84,0,0,1-9.338,20.658Zm17.052-3.29a2.065,2.065,0,0,0-1.071.21.711.711,0,0,0-.329.644q0,.98,1.3.98a1.194,1.194,0,0,0,.924-.322,1.485,1.485,0,0,0,.294-1.022V17.7a.163.163,0,0,0-.112-.168A2.929,2.929,0,0,0,7.714,17.368ZM7.8,20.8a3.766,3.766,0,0,1-2.4-.658,2.315,2.315,0,0,1-.819-1.918,2.2,2.2,0,0,1,.77-1.771A3.762,3.762,0,0,1,7.8,15.8a4.927,4.927,0,0,1,.91.084q.126.028.126-.1V14.33q0-.112-.126-.112H5.824a.77.77,0,0,1,0-1.54H8.708a.111.111,0,0,0,.126-.126v-1.3q0-.112-.126-.112H5.838a.744.744,0,0,1-.553-.238.794.794,0,0,1,0-1.12.744.744,0,0,1,.553-.238h6.356a.744.744,0,0,1,.553.238.794.794,0,0,1,0,1.12.744.744,0,0,1-.553.238h-1.47q-.126,0-.126.112v1.3a.111.111,0,0,0,.126.126h1.484a.77.77,0,0,1,0,1.54H10.724q-.126,0-.126.112v2.282a.214.214,0,0,0,.1.182,16.345,16.345,0,0,1,1.9,1.666.79.79,0,0,1,.224.56.766.766,0,0,1-.238.56l-.042.056a.773.773,0,0,1-.567.217.8.8,0,0,1-.567-.245q-.56-.56-.812-.784-.07-.07-.1.056a2.327,2.327,0,0,1-.924,1.428A3.029,3.029,0,0,1,7.8,20.8Zm-5.138-.14a.9.9,0,0,1-.623-.147A.8.8,0,0,1,1.68,20a23.528,23.528,0,0,1-.518-5.04A23.528,23.528,0,0,1,1.68,9.92a.8.8,0,0,1,.357-.511.9.9,0,0,1,.623-.147l.168.014a.691.691,0,0,1,.49.3.683.683,0,0,1,.112.567,22.265,22.265,0,0,0-.49,4.816,22.265,22.265,0,0,0,.49,4.816.683.683,0,0,1-.112.567.691.691,0,0,1-.49.3ZM22.988,9.094a.786.786,0,0,1,.616-.056.769.769,0,0,1,.476.392q.154.28.462.868a.751.751,0,0,1,.028.6.769.769,0,0,1-.406.448.787.787,0,0,1-.616.028.823.823,0,0,1-.462-.406q-.07-.126-.448-.826a.72.72,0,0,1-.056-.588.768.768,0,0,1,.392-.462Zm2.24-.49a.808.808,0,0,1,.616-.063.744.744,0,0,1,.476.385l.476.91a.765.765,0,0,1-.35,1.05l-.042.028a.824.824,0,0,1-1.078-.364q-.07-.14-.224-.434t-.238-.434a.769.769,0,0,1-.063-.6.7.7,0,0,1,.385-.462ZM20.9,20.84q-5.222,0-5.222-3.262,0-1.848,2.366-3.15.112-.056.028-.14a.794.794,0,0,1-.154-.322q-.532-2.254-.8-3.752a.775.775,0,0,1,.133-.595.758.758,0,0,1,.511-.329l.35-.056a.74.74,0,0,1,.588.14.847.847,0,0,1,.336.518q.364,1.974.77,3.584a.135.135,0,0,0,.056.07.093.093,0,0,0,.084.014A36.011,36.011,0,0,1,24.4,12.244a.8.8,0,0,1,.609.1.7.7,0,0,1,.343.5l.028.126a.851.851,0,0,1-.112.6.729.729,0,0,1-.49.35A34.252,34.252,0,0,0,20.5,15.17a7.564,7.564,0,0,0-2.233,1.183,1.643,1.643,0,0,0-.63,1.225,1.265,1.265,0,0,0,.784,1.19,5.849,5.849,0,0,0,2.478.392,28.049,28.049,0,0,0,3.738-.252.764.764,0,0,1,.581.154.747.747,0,0,1,.3.518l.014.1a.793.793,0,0,1-.161.6.755.755,0,0,1-.525.315A28.276,28.276,0,0,1,20.9,20.84ZM-35,32.538a.744.744,0,0,1-.553-.238.778.778,0,0,1-.231-.56V31.7a.778.778,0,0,1,.231-.56A.744.744,0,0,1-35,30.9h6.006q.112,0,.112-.126V29.6a.766.766,0,0,1,.238-.56.766.766,0,0,1,.56-.238h.224a.766.766,0,0,1,.56.238.766.766,0,0,1,.238.56v1.176a.111.111,0,0,0,.126.126H-25a.744.744,0,0,1,.553.238.778.778,0,0,1,.231.56v.042a.778.778,0,0,1-.231.56.744.744,0,0,1-.553.238h-1.932q-.126,0-.126.112v5.488a9.858,9.858,0,0,1-.056,1.232,1.123,1.123,0,0,1-.329.672,1.169,1.169,0,0,1-.672.322,9.678,9.678,0,0,1-1.225.056q-.546,0-1.554-.07a.732.732,0,0,1-.553-.273.791.791,0,0,1-.189-.6l.014-.07a.773.773,0,0,1,.266-.532.719.719,0,0,1,.56-.182q.91.07,1.26.07a.854.854,0,0,0,.546-.112.854.854,0,0,0,.112-.546V34.442a.059.059,0,0,0-.035-.049q-.035-.021-.049-.007a32.546,32.546,0,0,1-5.32,4.074.741.741,0,0,1-.595.084.777.777,0,0,1-.483-.364l-.056-.1a.776.776,0,0,1-.07-.6A.777.777,0,0,1-35.126,37a30.425,30.425,0,0,0,5.642-4.4q.07-.07-.042-.07Zm15.82,8.2a.754.754,0,0,1-.553-.231.754.754,0,0,1-.231-.553v-10a.754.754,0,0,1,.231-.553.754.754,0,0,1,.553-.231h.378a.778.778,0,0,1,.56.231.744.744,0,0,1,.238.553v3.024q0,.126.1.14a70.147,70.147,0,0,1,6.776,2.03.8.8,0,0,1,.455.406.764.764,0,0,1,.035.616l-.084.266a.773.773,0,0,1-.4.448.775.775,0,0,1-.6.042q-3.318-1.162-6.188-1.89a.059.059,0,0,0-.07.021.12.12,0,0,0-.028.077v4.816a.744.744,0,0,1-.238.553.778.778,0,0,1-.56.231Zm12.054-5.194-.126-.1a.73.73,0,0,1-.252-.539.775.775,0,0,1,.2-.567,10,10,0,0,0,2.3-4.578.924.924,0,0,1,.329-.546.858.858,0,0,1,.6-.2l.238.014a.753.753,0,0,1,.532.28.655.655,0,0,1,.154.56,2.3,2.3,0,0,1-.07.35q-.028.112.1.112h5.25a.794.794,0,0,1,.574.231.7.7,0,0,1,.224.553q-.1,4.452-2.142,6.671t-6.426,2.737a.8.8,0,0,1-.609-.168.841.841,0,0,1-.329-.546l-.028-.112a.7.7,0,0,1,.14-.567.747.747,0,0,1,.518-.3A8.819,8.819,0,0,0-.931,36.857,7.119,7.119,0,0,0,.9,32.132a.1.1,0,0,0-.112-.112H-3.64a.163.163,0,0,0-.168.112,11.022,11.022,0,0,1-2.17,3.374.74.74,0,0,1-.56.259A.83.83,0,0,1-7.126,35.548Zm18.228,3.5a.057.057,0,0,0,0-.1,8.063,8.063,0,0,1-1.148-.8.509.509,0,0,1-.182-.483.516.516,0,0,1,.308-.413l.35-.168a.047.047,0,0,0,.014-.035q0-.021-.028-.021H9.408a.686.686,0,0,1,0-1.372h7.224a.637.637,0,0,1,.476.2.671.671,0,0,1,.2.483,1.675,1.675,0,0,1-.448,1.218,8.593,8.593,0,0,1-1.666,1.358.057.057,0,0,0,0,.1q1.134.294,2.59.546a.642.642,0,0,1,.462.322.629.629,0,0,1,.056.546l-.014.042a.96.96,0,0,1-.434.5.9.9,0,0,1-.644.1,23.441,23.441,0,0,1-3.934-1.092.309.309,0,0,0-.224,0,23.748,23.748,0,0,1-4.1,1.092.876.876,0,0,1-.644-.112.926.926,0,0,1-.42-.5l-.014-.028a.639.639,0,0,1,.056-.553.6.6,0,0,1,.462-.3A24.167,24.167,0,0,0,11.1,39.048Zm.224-2.016a.045.045,0,0,0-.042.028.046.046,0,0,0,.014.056,6.019,6.019,0,0,0,1.778,1.176.273.273,0,0,0,.21,0,7.544,7.544,0,0,0,1.778-1.176q.028-.056-.042-.084Zm-5.138,3.71-.28-.35a1.274,1.274,0,0,1-.21-1.344,10.383,10.383,0,0,0,.518-2.254,29.083,29.083,0,0,0,.154-3.388V30.214a.813.813,0,0,1,.8-.8h4.27a.1.1,0,0,0,.112-.112v-.21a.813.813,0,0,1,.8-.8h.322a.813.813,0,0,1,.8.8v.21q0,.112.126.112H17.64a.765.765,0,0,1,.756.756.7.7,0,0,1-.224.525.739.739,0,0,1-.532.217H16.268a.047.047,0,0,0-.042.021q-.014.021.014.049a.733.733,0,0,1,.252.574q0,.112.126.112H17.7a.717.717,0,0,1,.714.714.665.665,0,0,1-.21.5.7.7,0,0,1-.5.2H16.618a.111.111,0,0,0-.126.126v1.134a.813.813,0,0,1-.8.8H10.528a.813.813,0,0,1-.8-.8V33.21a.111.111,0,0,0-.126-.126H8.652a.657.657,0,0,1-.406-.126.054.054,0,0,0-.063-.014q-.035.014-.035.042v1.778a13.994,13.994,0,0,1-1.078,5.88.483.483,0,0,1-.413.294A.507.507,0,0,1,6.188,40.742ZM14.63,33.8V33.21a.111.111,0,0,0-.126-.126H11.662q-.112,0-.112.126V33.8a.1.1,0,0,0,.112.112H14.5Q14.63,33.91,14.63,33.8Zm.224-2.884H11.326a.047.047,0,0,0-.042.021q-.014.021.014.049a.733.733,0,0,1,.252.574.1.1,0,0,0,.112.112H14.5q.126,0,.126-.112a.733.733,0,0,1,.252-.574q.028-.028.014-.049A.047.047,0,0,0,14.854,30.914Zm-6.58,0q-.126,0-.126.112v.742q0,.028.035.042a.074.074,0,0,0,.063,0,.65.65,0,0,1,.406-.14H9.6q.126,0,.126-.112a.733.733,0,0,1,.252-.574q.028-.028.014-.049a.047.047,0,0,0-.042-.021Zm19.11,5.446q0,3.78-3.78,3.78t-3.78-3.78V30.578a.813.813,0,0,1,.8-.8h.392a.813.813,0,0,1,.8.8v5.894a2.3,2.3,0,0,0,.441,1.575,1.781,1.781,0,0,0,1.379.483,1.781,1.781,0,0,0,1.379-.483,2.3,2.3,0,0,0,.441-1.575V30.578a.813.813,0,0,1,.8-.8h.336a.813.813,0,0,1,.8.8Zm4-4.984V34.75a.125.125,0,0,0,.112.126,7.94,7.94,0,0,0,1.036.07,2.634,2.634,0,0,0,1.729-.5,1.748,1.748,0,0,0,.595-1.421q0-1.862-2.324-1.862a7.94,7.94,0,0,0-1.036.07A.132.132,0,0,0,31.388,31.376ZM30.24,40a.744.744,0,0,1-.553-.238.778.778,0,0,1-.231-.56V30.648a.909.909,0,0,1,.224-.6.794.794,0,0,1,.56-.294q1.19-.112,2.3-.112a5.007,5.007,0,0,1,3.15.833,2.9,2.9,0,0,1,1.05,2.415,3.343,3.343,0,0,1-1.015,2.646,4.415,4.415,0,0,1-3,.9q-.462,0-1.218-.056a.1.1,0,0,0-.112.112V39.2a.813.813,0,0,1-.8.8Z" transform="translate(47.968 31.536)" fill="#fff"/><path d="M-.1-3.74a.965.965,0,0,1-.7-.28.983.983,0,0,1-.306-.688l-.255-6.732a.9.9,0,0,1,.255-.68.876.876,0,0,1,.663-.289H.476a.876.876,0,0,1,.663.289.9.9,0,0,1,.255.68L1.139-4.709a.983.983,0,0,1-.306.688.965.965,0,0,1-.7.28ZM.306-2.38a.9.9,0,0,1,.672.289.944.944,0,0,1,.28.68v.442a.944.944,0,0,1-.28.68A.9.9,0,0,1,.306,0H-.272A.9.9,0,0,1-.944-.289a.944.944,0,0,1-.281-.68v-.442a.944.944,0,0,1,.281-.68A.9.9,0,0,1-.272-2.38Z" transform="translate(87.635 70.717) rotate(20)" fill="#fff"/></g></svg>