<svg xmlns="http://www.w3.org/2000/svg" width="120" height="117" viewBox="0 0 120 117"><g transform="translate(-0.856 1.922)"><path d="M51.862,116.381C19.033,111.758-3.944,82.092.54,50.12S35.273-4.022,68.1.6a60.879,60.879,0,0,1,32.766,15.392l15.86-1.651L110.149,26.8a57.386,57.386,0,0,1,9.273,40.063c-4.086,29.132-29.568,50.127-58.9,50.13A62.052,62.052,0,0,1,51.862,116.381Z" transform="translate(120.837 115.068) rotate(180)" fill="#03a58e"/><path d="M-10.96-7.472a.876.876,0,0,1-.272.64.876.876,0,0,1-.64.272h-8.256a.876.876,0,0,1-.64-.272.876.876,0,0,1-.272-.64v-4.32a.85.85,0,0,1,.272-.632.889.889,0,0,1,.64-.264h8.256a.889.889,0,0,1,.64.264.85.85,0,0,1,.272.632ZM-13.152-8.3v-2.544q0-.144-.128-.144h-5.44q-.128,0-.128.144V-8.3q0,.144.128.144h5.44Q-13.152-8.16-13.152-8.3Zm-9.04,9.7a.85.85,0,0,1-.632-.272.889.889,0,0,1-.264-.64V-4.688a.889.889,0,0,1,.264-.64.85.85,0,0,1,.632-.272h4.72a.876.876,0,0,1,.64.272.876.876,0,0,1,.272.64V.48a.876.876,0,0,1-.272.64.876.876,0,0,1-.64.272h-.576a.485.485,0,0,1-.368-.152A.506.506,0,0,1-18.56.88.071.071,0,0,0-18.64.8h-2.24a.071.071,0,0,0-.08.08.506.506,0,0,1-.144.36.485.485,0,0,1-.368.152Zm1.232-5.2v2.88q0,.128.144.128h2.128a.113.113,0,0,0,.128-.128v-2.88q0-.144-.128-.144h-2.128A.127.127,0,0,0-20.96-3.808ZM-9.808-5.6a.85.85,0,0,1,.632.272.889.889,0,0,1,.264.64V.48a.889.889,0,0,1-.264.64.85.85,0,0,1-.632.272h-.72A.485.485,0,0,1-10.9,1.24.506.506,0,0,1-11.04.88.071.071,0,0,0-11.12.8h-2.24a.071.071,0,0,0-.08.08.506.506,0,0,1-.144.36.485.485,0,0,1-.368.152h-.576a.876.876,0,0,1-.64-.272A.876.876,0,0,1-15.44.48V-4.688a.876.876,0,0,1,.272-.64.876.876,0,0,1,.64-.272ZM-11.04-.928v-2.88a.127.127,0,0,0-.144-.144h-2.128q-.128,0-.128.144v2.88a.113.113,0,0,0,.128.128h2.128Q-11.04-.8-11.04-.928ZM6.672-10.992a.876.876,0,0,1,.64.272.876.876,0,0,1,.272.64v.192a.7.7,0,0,1-.208.512.7.7,0,0,1-.512.208q-.112,0-.112.1a16.273,16.273,0,0,1-1.664,6.56.184.184,0,0,0,.032.224A8.055,8.055,0,0,0,6.832-.8a1.093,1.093,0,0,1,.432.592A.9.9,0,0,1,7.2.5L7.184.528A.888.888,0,0,1,6.656.96a.757.757,0,0,1-.672-.1,10.112,10.112,0,0,1-2-1.648Q3.872-.9,3.792-.8A9.786,9.786,0,0,1,1.584.9a.883.883,0,0,1-.7.088A.985.985,0,0,1,.3.56L.256.464a.856.856,0,0,1-.1-.672A.8.8,0,0,1,.56-.736a8.676,8.676,0,0,0,2.112-1.68A.218.218,0,0,0,2.7-2.64,14.442,14.442,0,0,1,1.52-6.128q-.032-.064-.08-.032-.032.048-.1.16t-.1.16a.777.777,0,0,1-.536.4.744.744,0,0,1-.648-.144l-.1-.08a.912.912,0,0,1-.384-.768.038.038,0,0,0-.032-.04.066.066,0,0,0-.064.024.75.75,0,0,1-.552.224A.659.659,0,0,1-1.6-6.48q-.32-.368-.656-.7-.016-.032-.056-.016t-.04.048v.464a.862.862,0,0,1-.264.632.862.862,0,0,1-.632.264H-3.36A.889.889,0,0,1-4-6.056a.85.85,0,0,1-.272-.632V-7.28A.054.054,0,0,0-4.3-7.328q-.024-.016-.056.016a11.6,11.6,0,0,1-1.456,1.5.729.729,0,0,1-.624.184.883.883,0,0,1-.576-.344.819.819,0,0,1-.144-.648A.92.92,0,0,1-6.8-7.2,13.427,13.427,0,0,0-5.136-8.624q.032-.064-.048-.1H-6.448A.767.767,0,0,1-7-8.944a.728.728,0,0,1-.232-.544A.754.754,0,0,1-7-10.04a.754.754,0,0,1,.552-.232H-4.4a.113.113,0,0,0,.128-.128v-1.792A.85.85,0,0,1-4-12.824a.889.889,0,0,1,.64-.264h.112a.862.862,0,0,1,.632.264.862.862,0,0,1,.264.632V-10.4q0,.128.144.128h1.76A.728.728,0,0,1,.1-10.04a.767.767,0,0,1,.224.552A.741.741,0,0,1,.1-8.944a.741.741,0,0,1-.544.224H-1.616a.054.054,0,0,0-.048.024q-.016.024.016.056.512.4,1.12.928a.836.836,0,0,1,.272.544q0,.032.024.032a.054.054,0,0,0,.04-.016,22.843,22.843,0,0,0,1.984-5.264,1.017,1.017,0,0,1,.416-.592.977.977,0,0,1,.7-.176l.064.016a.826.826,0,0,1,.584.344.765.765,0,0,1,.136.648q-.08.352-.272,1.056-.032.128.1.128Zm-2.72,6.48A16.367,16.367,0,0,0,4.88-9.024q0-.144-.128-.144H2.928a.187.187,0,0,0-.192.128q-.224.608-.352.912-.016.016,0,.048a.051.051,0,0,0,.048.032.587.587,0,0,1,.456.088.53.53,0,0,1,.232.392,17.663,17.663,0,0,0,.736,3.04.072.072,0,0,0,.048.04A.039.039,0,0,0,3.952-4.512ZM-6.56-3.232A.741.741,0,0,1-7.1-3.456.741.741,0,0,1-7.328-4,.741.741,0,0,1-7.1-4.544a.741.741,0,0,1,.544-.224h1.2A.164.164,0,0,0-5.2-4.88a1.041,1.041,0,0,1,.44-.528,1.055,1.055,0,0,1,.664-.16l.624.064A.5.5,0,0,1-3.1-5.28a.443.443,0,0,1,.048.416q-.032.1.048.1H0a.767.767,0,0,1,.552.224A.728.728,0,0,1,.784-4a.728.728,0,0,1-.232.544A.767.767,0,0,1,0-3.232H-.128A.187.187,0,0,0-.32-3.1a6.074,6.074,0,0,1-.928,1.728q-.08.112.032.176.128.048.368.16t.368.176a.745.745,0,0,1,.408.5A.818.818,0,0,1-.16.272.887.887,0,0,1-.7.688.916.916,0,0,1-1.376.624Q-1.9.336-2.576.032a.236.236,0,0,0-.24,0A8.88,8.88,0,0,1-6,1.28a.964.964,0,0,1-.672-.12A.989.989,0,0,1-7.12.624.616.616,0,0,1-7.056.048a.741.741,0,0,1,.5-.336A9.954,9.954,0,0,0-4.784-.8a.051.051,0,0,0,.032-.048A.051.051,0,0,0-4.784-.9q-.928-.32-1.248-.416a.671.671,0,0,1-.448-.416.647.647,0,0,1,.048-.608q.032-.064.192-.336T-6-3.088a.121.121,0,0,0-.008-.1.077.077,0,0,0-.072-.048Zm2.32.752q-.064.112.064.144.608.192,1.024.352a.163.163,0,0,0,.208-.064A4.741,4.741,0,0,0-2.224-3.1q.064-.128-.08-.128H-3.68a.187.187,0,0,0-.192.128Q-3.984-2.9-4.24-2.48ZM-4.808-10.9a.746.746,0,0,1-.44.448.877.877,0,0,1-.648.008.86.86,0,0,1-.488-.44l-.184-.368q-.12-.24-.184-.352a.718.718,0,0,1-.056-.6.7.7,0,0,1,.408-.44.912.912,0,0,1,.672-.032.839.839,0,0,1,.512.416l.184.368.184.368A.732.732,0,0,1-4.808-10.9Zm4.616.016a.838.838,0,0,1-.5.416.947.947,0,0,1-.664-.016.648.648,0,0,1-.408-.424.718.718,0,0,1,.056-.6q.144-.256.368-.752a.9.9,0,0,1,.456-.464.851.851,0,0,1,.648-.032.778.778,0,0,1,.464.416.712.712,0,0,1,0,.624Q.032-11.3-.192-10.88Zm18.768.256a.823.823,0,0,1-.064-.672.878.878,0,0,1,.448-.528h.016a.9.9,0,0,1,.7-.064.879.879,0,0,1,.544.448q.176.32.528.992a.858.858,0,0,1,.032.688.879.879,0,0,1-.464.512.9.9,0,0,1-.7.032.941.941,0,0,1-.528-.464Q19.008-9.824,18.576-10.624Zm2.96-1.76a.924.924,0,0,1,.7-.072.85.85,0,0,1,.544.44l.544,1.04a.841.841,0,0,1,.056.688.849.849,0,0,1-.456.512l-.048.032a.9.9,0,0,1-.7.04.908.908,0,0,1-.536-.456q-.08-.16-.256-.5t-.272-.5a.879.879,0,0,1-.072-.688.8.8,0,0,1,.44-.528ZM10.192-8.112a.862.862,0,0,1-.632-.264A.862.862,0,0,1,9.3-9.008a.889.889,0,0,1,.264-.64.85.85,0,0,1,.632-.272h1.776a.156.156,0,0,0,.16-.144q.24-1.056.432-2.192a1.014,1.014,0,0,1,.376-.6.938.938,0,0,1,.68-.2l.112.016a.8.8,0,0,1,.592.328.823.823,0,0,1,.16.664q-.208,1.216-.352,2-.032.128.112.128h2.192a4.758,4.758,0,0,1,.9.1,6.319,6.319,0,0,1,.688.16,1.052,1.052,0,0,1,.432.368,1.354,1.354,0,0,1,.288.544q.048.24.128.856a8.815,8.815,0,0,1,.08,1.128v1.536A10.427,10.427,0,0,1,18.2-.7,2.254,2.254,0,0,1,16.176.752,9.269,9.269,0,0,1,13.648.288a.85.85,0,0,1-.536-.448.957.957,0,0,1-.056-.72l.032-.1a.853.853,0,0,1,.44-.52.9.9,0,0,1,.7-.056,6.064,6.064,0,0,0,1.52.32.428.428,0,0,0,.3-.144,1.575,1.575,0,0,0,.288-.472,4.27,4.27,0,0,0,.248-.816A10.321,10.321,0,0,0,16.752-3.9q.064-.744.064-1.656v-1.1a4.07,4.07,0,0,0-.064-.7,2.181,2.181,0,0,0-.112-.464.562.562,0,0,0-.256-.2.855.855,0,0,0-.376-.1H13.84a.151.151,0,0,0-.16.128A60.366,60.366,0,0,1,11.168.032a.9.9,0,0,1-.488.52.9.9,0,0,1-.7.024L9.872.544a.767.767,0,0,1-.5-.456.925.925,0,0,1-.016-.7,64.8,64.8,0,0,0,2.288-7.376q.032-.128-.1-.128Zm11.7.3q.928,2.384,1.5,4.24a.8.8,0,0,1-.072.672.857.857,0,0,1-.536.416l-.192.048a.905.905,0,0,1-.7-.088.978.978,0,0,1-.456-.552Q20.768-5.168,20-7.12a.925.925,0,0,1,.016-.7.767.767,0,0,1,.5-.456l.192-.064a.918.918,0,0,1,.7.024A.909.909,0,0,1,21.888-7.808Zm-39.152,23.28a.754.754,0,0,1,.552.232.754.754,0,0,1,.232.552A2.488,2.488,0,0,1-16.9,17.7a12.433,12.433,0,0,1-4.264,3.68A20.551,20.551,0,0,1-27.6,23.5a1.042,1.042,0,0,1-.736-.144,1.075,1.075,0,0,1-.464-.576l-.016-.032a.715.715,0,0,1,.072-.632.764.764,0,0,1,.536-.36,21.666,21.666,0,0,0,4.7-1.312q.112-.048.016-.144t-.28-.272q-.184-.176-.28-.256a.743.743,0,0,1-.264-.6.792.792,0,0,1,.28-.6l.048-.048a.959.959,0,0,1,.68-.248.963.963,0,0,1,.664.264l.912.864q.128.1.208.032a10.934,10.934,0,0,0,2.736-2.288q.08-.112-.048-.112h-3.536a.48.48,0,0,0-.256.08,24.711,24.711,0,0,1-4.608,2.352,1.023,1.023,0,0,1-.744.008,1.093,1.093,0,0,1-.584-.488.684.684,0,0,1-.056-.616.747.747,0,0,1,.44-.44,19.675,19.675,0,0,0,5.728-3.008,1.561,1.561,0,0,1,1.536-.336l.352.112a.433.433,0,0,1,.288.3.374.374,0,0,1-.112.392.048.048,0,0,0-.008.048.038.038,0,0,0,.04.032Zm-12.368,1.712a.947.947,0,0,1-.68-.128,1.032,1.032,0,0,1-.44-.56.681.681,0,0,1,.064-.608.736.736,0,0,1,.512-.352A20.89,20.89,0,0,0-25.9,14.384q.144-.064.048-.16l-.528-.48a.745.745,0,0,1-.248-.584.728.728,0,0,1,.28-.568,1.081,1.081,0,0,1,.688-.24.923.923,0,0,1,.656.256q.272.24.848.784a.147.147,0,0,0,.224.016,10.309,10.309,0,0,0,2.5-2.064q.032-.064-.048-.1h-3.424a.507.507,0,0,0-.256.064,22.843,22.843,0,0,1-4.1,2.032,1.015,1.015,0,0,1-.72-.008,1.04,1.04,0,0,1-.56-.472.7.7,0,0,1-.032-.616.775.775,0,0,1,.448-.44A19.546,19.546,0,0,0-24.96,9.152a1.566,1.566,0,0,1,1.552-.288l.272.1a.439.439,0,0,1,.3.32.392.392,0,0,1-.128.416.065.065,0,0,0-.016.048.028.028,0,0,0,.032.032h2.976a.709.709,0,0,1,.52.216.709.709,0,0,1,.216.52,2.19,2.19,0,0,1-.416,1.344Q-22.64,15.984-29.632,17.184Zm26.208,2.944A23.983,23.983,0,0,0-5.072,12.1a.845.845,0,0,1,.016-.664.771.771,0,0,1,.5-.44l.224-.064a.988.988,0,0,1,.728.056,1.03,1.03,0,0,1,.52.52A23.578,23.578,0,0,1-1.3,20.128a.822.822,0,0,1-.256.64.876.876,0,0,1-.64.272h-.32a.85.85,0,0,1-.632-.272A.952.952,0,0,1-3.424,20.128Zm-7.248,2.624q-1.36,0-2.52-1.856a8.317,8.317,0,0,1-1.16-4.5,20.112,20.112,0,0,1,.56-4.736.978.978,0,0,1,.424-.6,1.055,1.055,0,0,1,.728-.168l.272.032a.709.709,0,0,1,.552.336.818.818,0,0,1,.12.656,20.334,20.334,0,0,0-.512,4.48,7.046,7.046,0,0,0,.568,2.992q.568,1.216,1.128,1.216.352,0,.912-.68a8.773,8.773,0,0,0,1.136-1.976.969.969,0,0,1,.5-.5.9.9,0,0,1,.7-.024l.176.064a.875.875,0,0,1,.512.472.8.8,0,0,1,.016.68,8.931,8.931,0,0,1-1.952,3.024A3.246,3.246,0,0,1-10.672,22.752Zm19.488-3.76a2.36,2.36,0,0,0-1.224.24.812.812,0,0,0-.376.736q0,1.12,1.488,1.12A1.365,1.365,0,0,0,9.76,20.72a1.7,1.7,0,0,0,.336-1.168v-.176a.187.187,0,0,0-.128-.192A3.347,3.347,0,0,0,8.816,18.992Zm.1,3.92a4.3,4.3,0,0,1-2.744-.752,2.646,2.646,0,0,1-.936-2.192,2.511,2.511,0,0,1,.88-2.024,4.3,4.3,0,0,1,2.8-.744,5.631,5.631,0,0,1,1.04.1q.144.032.144-.112V15.52q0-.128-.144-.128h-3.3a.88.88,0,0,1,0-1.76h3.3a.127.127,0,0,0,.144-.144V12q0-.128-.144-.128H6.672A.85.85,0,0,1,6.04,11.6a.908.908,0,0,1,0-1.28.85.85,0,0,1,.632-.272h7.264a.85.85,0,0,1,.632.272.908.908,0,0,1,0,1.28.85.85,0,0,1-.632.272h-1.68q-.144,0-.144.128v1.488a.127.127,0,0,0,.144.144h1.7a.88.88,0,0,1,0,1.76h-1.7q-.144,0-.144.128v2.608a.245.245,0,0,0,.112.208,18.679,18.679,0,0,1,2.176,1.9.9.9,0,0,1,.256.64.876.876,0,0,1-.272.64l-.048.064a.884.884,0,0,1-.648.248.914.914,0,0,1-.648-.28q-.64-.64-.928-.9-.08-.08-.112.064a2.66,2.66,0,0,1-1.056,1.632A3.462,3.462,0,0,1,8.912,22.912Zm-5.872-.16a1.025,1.025,0,0,1-.712-.168A.91.91,0,0,1,1.92,22a26.889,26.889,0,0,1-.592-5.76,26.889,26.889,0,0,1,.592-5.76A.91.91,0,0,1,2.328,9.9a1.025,1.025,0,0,1,.712-.168l.192.016a.789.789,0,0,1,.56.344.78.78,0,0,1,.128.648,25.446,25.446,0,0,0-.56,5.5,25.446,25.446,0,0,0,.56,5.5.78.78,0,0,1-.128.648.789.789,0,0,1-.56.344ZM26.272,9.536a.9.9,0,0,1,.7-.064.879.879,0,0,1,.544.448q.176.32.528.992a.858.858,0,0,1,.032.688.879.879,0,0,1-.464.512.9.9,0,0,1-.7.032.941.941,0,0,1-.528-.464q-.08-.144-.512-.944a.823.823,0,0,1-.064-.672.878.878,0,0,1,.448-.528Zm2.56-.56a.924.924,0,0,1,.7-.072.85.85,0,0,1,.544.44l.544,1.04a.874.874,0,0,1-.4,1.2l-.048.032a.941.941,0,0,1-1.232-.416q-.08-.16-.256-.5t-.272-.5a.879.879,0,0,1-.072-.688.8.8,0,0,1,.44-.528ZM23.888,22.96q-5.968,0-5.968-3.728,0-2.112,2.7-3.6.128-.064.032-.16a.907.907,0,0,1-.176-.368q-.608-2.576-.912-4.288a.886.886,0,0,1,.152-.68A.866.866,0,0,1,20.3,9.76l.4-.064a.846.846,0,0,1,.672.16.968.968,0,0,1,.384.592q.416,2.256.88,4.1a.154.154,0,0,0,.064.08.106.106,0,0,0,.1.016,41.155,41.155,0,0,1,5.088-1.5.917.917,0,0,1,.7.12.8.8,0,0,1,.392.568l.032.144a.973.973,0,0,1-.128.688.833.833,0,0,1-.56.4,39.145,39.145,0,0,0-4.888,1.424,8.645,8.645,0,0,0-2.552,1.352,1.878,1.878,0,0,0-.72,1.4,1.446,1.446,0,0,0,.9,1.36,6.685,6.685,0,0,0,2.832.448,32.055,32.055,0,0,0,4.272-.288.874.874,0,0,1,.664.176.853.853,0,0,1,.344.592l.016.112a.906.906,0,0,1-.184.68.863.863,0,0,1-.6.36A32.315,32.315,0,0,1,23.888,22.96ZM-40,35.472a.85.85,0,0,1-.632-.272.889.889,0,0,1-.264-.64v-.048a.889.889,0,0,1,.264-.64A.85.85,0,0,1-40,33.6h6.864q.128,0,.128-.144V32.112a.876.876,0,0,1,.272-.64.876.876,0,0,1,.64-.272h.256a.876.876,0,0,1,.64.272.876.876,0,0,1,.272.64v1.344a.127.127,0,0,0,.144.144h2.208a.85.85,0,0,1,.632.272.889.889,0,0,1,.264.64v.048a.889.889,0,0,1-.264.64.85.85,0,0,1-.632.272h-2.208q-.144,0-.144.128v6.272a11.267,11.267,0,0,1-.064,1.408,1.284,1.284,0,0,1-.376.768,1.336,1.336,0,0,1-.768.368,11.061,11.061,0,0,1-1.4.064q-.624,0-1.776-.08a.837.837,0,0,1-.632-.312.9.9,0,0,1-.216-.68l.016-.08a.884.884,0,0,1,.3-.608.821.821,0,0,1,.64-.208q1.04.08,1.44.08a.976.976,0,0,0,.624-.128.976.976,0,0,0,.128-.624V37.648a.067.067,0,0,0-.04-.056q-.04-.024-.056-.008a37.2,37.2,0,0,1-6.08,4.656.847.847,0,0,1-.68.1.888.888,0,0,1-.552-.416l-.064-.112a.887.887,0,0,1-.08-.68.888.888,0,0,1,.416-.552A34.771,34.771,0,0,0-33.7,35.552q.08-.08-.048-.08Zm18.08,9.376a.862.862,0,0,1-.632-.264.862.862,0,0,1-.264-.632V32.528a.862.862,0,0,1,.264-.632.862.862,0,0,1,.632-.264h.432a.889.889,0,0,1,.64.264.85.85,0,0,1,.272.632v3.456q0,.144.112.16a80.168,80.168,0,0,1,7.744,2.32.909.909,0,0,1,.52.464.873.873,0,0,1,.04.7l-.1.3a.883.883,0,0,1-.456.512.885.885,0,0,1-.68.048q-3.792-1.328-7.072-2.16a.067.067,0,0,0-.08.024.138.138,0,0,0-.032.088v5.5a.85.85,0,0,1-.272.632.889.889,0,0,1-.64.264Zm13.776-5.936-.144-.112a.835.835,0,0,1-.288-.616.886.886,0,0,1,.224-.648A11.43,11.43,0,0,0-5.728,32.3a1.056,1.056,0,0,1,.376-.624.981.981,0,0,1,.68-.224l.272.016a.861.861,0,0,1,.608.32.749.749,0,0,1,.176.64,2.625,2.625,0,0,1-.08.4q-.032.128.112.128h6a.908.908,0,0,1,.656.264.8.8,0,0,1,.256.632Q3.216,38.944.88,41.48t-7.344,3.128a.915.915,0,0,1-.7-.192.961.961,0,0,1-.376-.624l-.032-.128a.8.8,0,0,1,.16-.648.853.853,0,0,1,.592-.344q3.952-.528,5.752-2.264a8.136,8.136,0,0,0,2.088-5.4A.113.113,0,0,0,.9,34.88H-4.16a.187.187,0,0,0-.192.128,12.6,12.6,0,0,1-2.48,3.856.846.846,0,0,1-.64.3A.948.948,0,0,1-8.144,38.912Zm20.832,4a.065.065,0,0,0,0-.112,9.215,9.215,0,0,1-1.312-.912.582.582,0,0,1-.208-.552.589.589,0,0,1,.352-.472l.4-.192a.054.054,0,0,0,.016-.04q0-.024-.032-.024H10.752a.784.784,0,0,1,0-1.568h8.256a.728.728,0,0,1,.544.232.767.767,0,0,1,.224.552,1.915,1.915,0,0,1-.512,1.392,9.821,9.821,0,0,1-1.9,1.552.065.065,0,0,0,0,.112q1.3.336,2.96.624a.733.733,0,0,1,.528.368.719.719,0,0,1,.064.624l-.016.048a1.1,1.1,0,0,1-.5.568,1.023,1.023,0,0,1-.736.12,26.79,26.79,0,0,1-4.5-1.248.353.353,0,0,0-.256,0,27.141,27.141,0,0,1-4.688,1.248,1,1,0,0,1-.736-.128,1.058,1.058,0,0,1-.48-.576L8.992,44.5a.731.731,0,0,1,.064-.632.691.691,0,0,1,.528-.344A27.617,27.617,0,0,0,12.688,42.912Zm.256-2.3a.051.051,0,0,0-.048.032.052.052,0,0,0,.016.064,6.879,6.879,0,0,0,2.032,1.344.312.312,0,0,0,.24,0A8.622,8.622,0,0,0,17.216,40.7q.032-.064-.048-.1Zm-5.872,4.24-.32-.4a1.456,1.456,0,0,1-.24-1.536A11.866,11.866,0,0,0,7.1,40.336a33.238,33.238,0,0,0,.176-3.872V32.816a.929.929,0,0,1,.912-.912h4.88a.113.113,0,0,0,.128-.128v-.24a.929.929,0,0,1,.912-.912h.368a.929.929,0,0,1,.912.912v.24q0,.128.144.128H20.16a.874.874,0,0,1,.864.864.8.8,0,0,1-.256.6.844.844,0,0,1-.608.248H18.592a.054.054,0,0,0-.048.024q-.016.024.016.056a.838.838,0,0,1,.288.656q0,.128.144.128h1.232a.819.819,0,0,1,.816.816.76.76,0,0,1-.24.568.8.8,0,0,1-.576.232H18.992a.127.127,0,0,0-.144.144v1.3a.929.929,0,0,1-.912.912h-5.9a.929.929,0,0,1-.912-.912v-1.3a.127.127,0,0,0-.144-.144H9.888a.751.751,0,0,1-.464-.144.062.062,0,0,0-.072-.016q-.04.016-.04.048v2.032a15.993,15.993,0,0,1-1.232,6.72.552.552,0,0,1-.472.336A.58.58,0,0,1,7.072,44.848Zm9.648-7.936V36.24a.127.127,0,0,0-.144-.144H13.328q-.128,0-.128.144v.672a.113.113,0,0,0,.128.128h3.248Q16.72,37.04,16.72,36.912Zm.256-3.3H12.944a.054.054,0,0,0-.048.024q-.016.024.016.056a.838.838,0,0,1,.288.656.113.113,0,0,0,.128.128h3.248q.144,0,.144-.128a.838.838,0,0,1,.288-.656q.032-.032.016-.056A.054.054,0,0,0,16.976,33.616Zm-7.52,0q-.144,0-.144.128v.848q0,.032.04.048a.085.085,0,0,0,.072,0,.742.742,0,0,1,.464-.16h1.088q.144,0,.144-.128a.838.838,0,0,1,.288-.656q.032-.032.016-.056a.054.054,0,0,0-.048-.024ZM31.3,39.84q0,4.32-4.32,4.32t-4.32-4.32V33.232a.929.929,0,0,1,.912-.912h.448a.929.929,0,0,1,.912.912v6.736a2.63,2.63,0,0,0,.5,1.8,2.036,2.036,0,0,0,1.576.552,2.036,2.036,0,0,0,1.576-.552,2.63,2.63,0,0,0,.5-1.8V33.232A.929.929,0,0,1,30,32.32h.384a.929.929,0,0,1,.912.912Zm4.576-5.7V38a.143.143,0,0,0,.128.144,9.074,9.074,0,0,0,1.184.08,3.01,3.01,0,0,0,1.976-.568,2,2,0,0,0,.68-1.624q0-2.128-2.656-2.128a9.074,9.074,0,0,0-1.184.08A.151.151,0,0,0,35.872,34.144ZM34.56,44a.85.85,0,0,1-.632-.272.889.889,0,0,1-.264-.64V33.312a1.039,1.039,0,0,1,.256-.688.907.907,0,0,1,.64-.336q1.36-.128,2.624-.128a5.722,5.722,0,0,1,3.6.952,3.314,3.314,0,0,1,1.2,2.76,3.821,3.821,0,0,1-1.16,3.024,5.045,5.045,0,0,1-3.432,1.024q-.528,0-1.392-.064a.113.113,0,0,0-.128.128v3.1A.929.929,0,0,1,34.96,44Z" transform="translate(57.283 37.879)" fill="#fff"/><path d="M-.12-4.4a1.135,1.135,0,0,1-.82-.33,1.156,1.156,0,0,1-.36-.81l-.3-7.92a1.058,1.058,0,0,1,.3-.8,1.031,1.031,0,0,1,.78-.34H.56a1.031,1.031,0,0,1,.78.34,1.058,1.058,0,0,1,.3.8l-.3,7.92a1.156,1.156,0,0,1-.36.81,1.135,1.135,0,0,1-.82.33ZM.36-2.8a1.062,1.062,0,0,1,.79.34,1.111,1.111,0,0,1,.33.8v.52a1.111,1.111,0,0,1-.33.8A1.062,1.062,0,0,1,.36,0H-.32a1.062,1.062,0,0,1-.79-.34,1.111,1.111,0,0,1-.33-.8v-.52a1.111,1.111,0,0,1,.33-.8A1.062,1.062,0,0,1-.32-2.8Z" transform="translate(102.093 83.276) rotate(20)" fill="#fff"/></g></svg>