<svg xmlns="http://www.w3.org/2000/svg" width="300" height="60" viewBox="0 0 300 60"><g transform="translate(10)"><g transform="translate(-10)" fill="#eb6d4e" stroke="#fff" stroke-width="3"><rect width="300" height="60" rx="30" stroke="none"/><rect x="1.5" y="1.5" width="297" height="57" rx="28.5" fill="none"/></g><circle cx="8" cy="8" r="8" transform="translate(244 22)" fill="#fff"/><g transform="translate(250 26)"><g transform="translate(0 0)"><path d="M121.645,3.489,118.231.084a.286.286,0,1,0-.4.405l3.211,3.2-3.212,3.2a.286.286,0,0,0,.4.405l3.415-3.405a.286.286,0,0,0,0-.405Z" transform="translate(-117.742 0)" fill="#eb6d4e" stroke="#eb6d4e" stroke-linecap="round" stroke-width="1"/></g></g><path d="M5.022-1.6c-.468,0-1.3-.5-1.3-1.044,0-.63.72-1.368,1.818-1.926.036.936.054,1.746.054,2.2C5.6-1.764,5.346-1.6,5.022-1.6ZM7.56-8.01c0-.522,0-1.062.018-1.6a34.426,34.426,0,0,0,3.4-.558L10.926-12.4a24.411,24.411,0,0,1-3.276.666c.018-.45.036-.882.054-1.278.036-.45.108-1.224.144-1.548H5.4A14.15,14.15,0,0,1,5.526-13c0,.306,0,.828-.018,1.458-.36.018-.7.036-1.026.036a19.529,19.529,0,0,1-2.466-.144l.036,2.16c.774.072,1.674.09,2.484.09.288,0,.612-.018.954-.036v1.494c0,.414,0,.828.018,1.242-2.178.954-4,2.556-4,4.122C1.512-.684,3.978.81,5.724.81,6.876.81,7.686.234,7.686-1.98c0-.612-.054-1.98-.09-3.4a12.654,12.654,0,0,1,3.348-.486c1.548,0,2.628.7,2.628,1.908,0,1.3-1.152,2.034-2.592,2.286a13.627,13.627,0,0,1-2.2.126L9.612.738A14.523,14.523,0,0,0,11.952.45c2.826-.7,3.924-2.286,3.924-4.392,0-2.448-2.16-3.906-4.9-3.906a14.508,14.508,0,0,0-3.42.468Zm4.392-2.88A27.078,27.078,0,0,1,16.236-8.3l1.08-1.836a39.377,39.377,0,0,0-4.374-2.5Zm9.054-.036h4.9v3.744H27.99v-3.744h4.95v2.232h1.98v-3.654H27.99v-.684h5.616v-1.584H20.34v1.584H25.9v.684H19.116v3.654h1.89Zm7.668,3.564H32.6v-1.17H28.674Zm0-2.952v1.152h3.51v-1.152Zm-3.42,0H21.708v1.152h3.546ZM21.366-7.362h3.888v-1.17H21.366Zm1.44,4.968v-.774h2.988v.774Zm2.988-2.862v.792H22.806v-.792Zm5.31.792H27.846v-.792H31.1Zm-3.258,2.07v-.774H31.1v.774Zm1.3,2.268c-1.1,0-1.3-.108-1.3-.774V-.954h5.382V-6.7H20.772V-.162h2.034V-.954h2.988V-.9c0,1.89.684,2.412,3.15,2.412h3.78c1.962,0,2.538-.594,2.79-2.754a5.474,5.474,0,0,1-1.782-.684c-.126,1.53-.288,1.8-1.188,1.8ZM42.858-14.688h-5.31v1.62h5.31ZM41.112-2.9V-.846H39.186V-2.9ZM42.93-4.59H37.386V1.548h1.8v-.7H42.93Zm-5.49-.918h5.4v-1.62h-5.4Zm5.4-4.122h-5.4v1.6h5.4Zm-6.246-.882h6.84V-12.2h-6.84ZM50.616-1.224H46.53v-2.52h4.086Zm2.862-6.822v-2h-3.87v-2.5a27.373,27.373,0,0,0,3.4-.738L51.5-15.066a39.345,39.345,0,0,1-7.632,1.314,7,7,0,0,1,.576,1.8c.954-.072,1.98-.162,2.988-.288v2.2H43.56v2h3.87V-5.67H44.5V1.566H46.53V.7h4.086v.792h2.142V-5.67h-3.15V-8.046ZM67.32-9.36,65.988-8.8a13.888,13.888,0,0,1,1.4,2.5l1.368-.612A23.591,23.591,0,0,0,67.32-9.36Zm2.016-.828-1.314.612A15.835,15.835,0,0,1,69.5-7.146l1.35-.648A26.923,26.923,0,0,0,69.336-10.188ZM55.314-12.312l.234,2.448c2.07-.45,5.814-.846,7.362-1.008a7.068,7.068,0,0,0-2.628,5.49c0,3.87,3.528,5.886,7.272,6.12l.828-2.466c-3.024-.144-5.76-1.206-5.76-4.14a5.411,5.411,0,0,1,3.762-4.986,18.408,18.408,0,0,1,3.438-.234l-.018-2.3c-1.26.054-3.2.162-5.04.306-3.258.288-6.21.558-7.7.684C56.718-12.366,56.034-12.33,55.314-12.312ZM84.8-9.18H83.43v-2.3H84.8Zm0,4.194H83.43V-7.272H84.8Zm-7.56-2.286h1.3v2.286h-1.3Zm4.41,0v2.286H80.316V-7.272ZM80.316-9.18v-2.3h1.332v2.3Zm-3.078-2.3h1.3v2.3h-1.3Zm-1.89,2.3H72.936v1.908h2.412v2.286H73.206v1.908H88.848V-4.986H86.76V-7.272H89.1V-9.18H86.76v-2.3h1.692v-1.89h-10.8a9.691,9.691,0,0,0,.7-1.26l-2.088-.612a11.069,11.069,0,0,1-3.726,4.3,19.824,19.824,0,0,1,1.746,1.4,12.37,12.37,0,0,0,1.062-.936ZM74.79,1.584A9.851,9.851,0,0,0,76.842-2.2l-2.07-.5A8.87,8.87,0,0,1,72.756.756Zm3.2-3.654a22.85,22.85,0,0,1,.342,3.438l2.088-.306A23.309,23.309,0,0,0,79.992-2.3Zm3.564.036a19.18,19.18,0,0,1,.918,3.42L84.618.972a20.06,20.06,0,0,0-1.044-3.348Zm3.564-.09a23.184,23.184,0,0,1,2.124,3.69l2.2-.738a24.415,24.415,0,0,0-2.268-3.6Zm17.82-9.972a13.527,13.527,0,0,0-2.862-2.178l-1.026,1.44a14.482,14.482,0,0,1,2.79,2.34ZM98.226-8.3a15.2,15.2,0,0,1,2.952,2.232l1.08-1.71a15.812,15.812,0,0,0-3.024-2.07Zm-1.62-5.958a30.614,30.614,0,0,1-.99,4.212l1.35.378c.45-1.044.972-2.754,1.44-4.194Zm-3.492,4.212a18.047,18.047,0,0,0-.918-4.122l-1.494.4a17.839,17.839,0,0,1,.81,4.14Zm4.914,5.922c-.378-.5-2.088-2.52-2.61-3.042V-7.29h2.664v-2H95.418v-5.886h-1.98v5.886H90.72v2h2.052A16.664,16.664,0,0,1,90.4-2.628a12.719,12.719,0,0,1,.972,2.214,18.473,18.473,0,0,0,2.07-4.428V1.512h1.98V-4.806a24.046,24.046,0,0,1,1.3,2.34Zm9.522.414-.324-2-1.836.342v-9.9h-2.016V-5l-5.346.954.324,2,5.022-.9v4.5h2.016v-4.86Zm5.94-5.832h2.25v-2.016h-2.25v-3.69h-2.052v3.69h-2.574V-9.54h2.322a17.515,17.515,0,0,1-2.79,6.012A10.549,10.549,0,0,1,109.4-1.512a15.438,15.438,0,0,0,2.034-4.05v7.11h2.052V-5.94c.5.81,1.026,1.656,1.3,2.232l1.224-1.746c-.36-.45-1.89-2.3-2.52-2.988Zm4.932,7.974v-2.3h4.23v2.3Zm4.23-6.534v2.286h-4.23V-8.1Zm0-4.158v2.232h-4.23v-2.232Zm-6.282-2.016V1.4h2.052V.378h4.23V1.3h2.16v-15.57Zm24.786-.018a15.809,15.809,0,0,1-1.3,2.934l1.584.612c.5-.756,1.152-1.854,1.746-2.9Zm2.2,5.778a37.426,37.426,0,0,0-4.266-2.79,18.991,18.991,0,0,0,.45-3.924h-2.07c-.144,3.564-.432,5.616-4.176,6.786a5.246,5.246,0,0,1,1.188,1.692A6.777,6.777,0,0,0,138.33-9.5a26.95,26.95,0,0,1,3.6,2.61ZM134.8-2.358a6.876,6.876,0,0,0,1.674-3.672L134.6-6.408a5.754,5.754,0,0,1-1.566,3.168Zm.018-11.826a5.826,5.826,0,0,1-1.35,2.97l1.674.72a6.418,6.418,0,0,0,1.422-3.33Zm-2.034-.5h-5.292v1.62h5.292Zm.648,2.412h-6.84v1.692h6.84Zm-.594,2.5h-5.4v1.638h5.4Zm-5.4,4.068h5.4v-1.6h-5.4Zm3.6,2.574v2.07h-1.854v-2.07Zm1.818-1.692h-5.472V1.314h1.8v-.7h3.672Zm8.6,2.034a34.622,34.622,0,0,0,1.89-3.1l-2.106-.648a19.461,19.461,0,0,1-1.422,3.114,3.878,3.878,0,0,1-.342-1.512V-7.65H137.3v2.718c0,1.206-.918,3.564-4.356,4.77a8.971,8.971,0,0,1,1.17,1.746,7.175,7.175,0,0,0,4.284-3.96,6.66,6.66,0,0,0,3.888,3.96,16.911,16.911,0,0,1,1.224-1.818,6.15,6.15,0,0,1-3.69-3.15Z" transform="translate(86 28)" fill="#fff"/><path d="M4.823.208Q.573.208.573-5.761a8.121,8.121,0,0,1,1.15-4.719A3.831,3.831,0,0,1,5.055-12.1q4.15,0,4.15,6.068A8,8,0,0,1,8.073-1.4,3.732,3.732,0,0,1,4.823.208ZM4.939-10.1q-1.7,0-1.7,4.275Q3.237-1.8,4.906-1.8q1.627,0,1.627-4.15T4.939-10.1Zm12.6-2.067V0H14.92V-9.214a3.131,3.131,0,0,1-.51.361,5.27,5.27,0,0,1-.627.307,5.6,5.6,0,0,1-.689.232,5.032,5.032,0,0,1-.706.137v-2.208a10.907,10.907,0,0,0,1.926-.764,10.959,10.959,0,0,0,1.635-1.021Zm7.283,9.994h5.047V0H21.946V-.9a4.173,4.173,0,0,1,.307-1.639,5.44,5.44,0,0,1,.772-1.3A6.7,6.7,0,0,1,24.042-4.86q.552-.444,1.05-.8.523-.374.917-.714a5.227,5.227,0,0,0,.664-.677,2.572,2.572,0,0,0,.4-.681,2.024,2.024,0,0,0,.133-.735,1.476,1.476,0,0,0-.432-1.154,1.919,1.919,0,0,0-1.32-.39,4.433,4.433,0,0,0-2.938,1.22V-11.1a6.308,6.308,0,0,1,3.5-1,5.173,5.173,0,0,1,1.623.237,3.433,3.433,0,0,1,1.216.677,2.885,2.885,0,0,1,.76,1.067,3.6,3.6,0,0,1,.261,1.4,3.944,3.944,0,0,1-.253,1.461A4.489,4.489,0,0,1,28.956-6.1a6.1,6.1,0,0,1-.967.959q-.548.436-1.137.843-.4.282-.768.56a7.279,7.279,0,0,0-.652.548,2.974,2.974,0,0,0-.448.527A.91.91,0,0,0,24.818-2.175ZM36.708.208q-4.25,0-4.25-5.968a8.121,8.121,0,0,1,1.15-4.719A3.831,3.831,0,0,1,36.94-12.1q4.15,0,4.15,6.068A8,8,0,0,1,39.957-1.4,3.732,3.732,0,0,1,36.708.208Zm.116-10.31q-1.7,0-1.7,4.275,0,4.026,1.668,4.026,1.627,0,1.627-4.15T36.824-10.1ZM48.241-3.619H43.7V-5.454h4.541ZM51.208-.39V-2.673A4.607,4.607,0,0,0,54-1.8a2.511,2.511,0,0,0,1.565-.432,1.433,1.433,0,0,0,.56-1.2,1.368,1.368,0,0,0-.693-1.229A3.591,3.591,0,0,0,53.523-5.1h-1.1V-7.105H53.44q2.324,0,2.324-1.544,0-1.453-1.785-1.453a4.069,4.069,0,0,0-2.324.772v-2.142a6.419,6.419,0,0,1,2.922-.631,4.409,4.409,0,0,1,2.843.822,2.615,2.615,0,0,1,1.017,2.133,2.774,2.774,0,0,1-2.366,2.922v.042a3.216,3.216,0,0,1,1.992.917,2.586,2.586,0,0,1,.73,1.864,3.194,3.194,0,0,1-1.22,2.64A5.276,5.276,0,0,1,54.2.208,6.513,6.513,0,0,1,51.208-.39Zm10.628,0V-2.673a4.607,4.607,0,0,0,2.789.872,2.511,2.511,0,0,0,1.565-.432,1.433,1.433,0,0,0,.56-1.2,1.368,1.368,0,0,0-.693-1.229A3.591,3.591,0,0,0,64.152-5.1h-1.1V-7.105h1.021q2.324,0,2.324-1.544,0-1.453-1.785-1.453a4.069,4.069,0,0,0-2.324.772v-2.142a6.419,6.419,0,0,1,2.922-.631,4.409,4.409,0,0,1,2.843.822,2.615,2.615,0,0,1,1.017,2.133A2.774,2.774,0,0,1,66.7-6.226v.042a3.216,3.216,0,0,1,1.992.917,2.586,2.586,0,0,1,.73,1.864A3.194,3.194,0,0,1,68.2-.764a5.276,5.276,0,0,1-3.37.971A6.513,6.513,0,0,1,61.836-.39ZM78.4-12.169V0H75.784V-9.214a3.132,3.132,0,0,1-.51.361,5.27,5.27,0,0,1-.627.307,5.6,5.6,0,0,1-.689.232,5.032,5.032,0,0,1-.706.137v-2.208a10.907,10.907,0,0,0,1.926-.764,10.959,10.959,0,0,0,1.635-1.021ZM86.944.208q-4.25,0-4.25-5.968a8.121,8.121,0,0,1,1.15-4.719A3.831,3.831,0,0,1,87.176-12.1q4.15,0,4.15,6.068A8,8,0,0,1,90.194-1.4,3.732,3.732,0,0,1,86.944.208ZM87.06-10.1q-1.7,0-1.7,4.275,0,4.026,1.668,4.026,1.627,0,1.627-4.15T87.06-10.1ZM98.477-3.619H93.937V-5.454h4.541Zm3.174,3.312V-2.548a4.893,4.893,0,0,0,2.6.747,2.44,2.44,0,0,0,1.623-.494,1.662,1.662,0,0,0,.585-1.341q0-1.768-2.5-1.768a18.5,18.5,0,0,0-2.125.141l.448-6.641h6.3v2.142h-4.3l-.166,2.382q.639-.05,1.1-.05a4.06,4.06,0,0,1,2.872.963,3.362,3.362,0,0,1,1.038,2.59,3.823,3.823,0,0,1-1.237,2.943A4.752,4.752,0,0,1,104.54.208,7.176,7.176,0,0,1,101.651-.307Zm10.628,0V-2.548a4.893,4.893,0,0,0,2.6.747A2.44,2.44,0,0,0,116.5-2.3a1.662,1.662,0,0,0,.585-1.341q0-1.768-2.5-1.768a18.5,18.5,0,0,0-2.125.141l.448-6.641h6.3v2.142h-4.3l-.166,2.382q.639-.05,1.1-.05a4.06,4.06,0,0,1,2.872.963,3.362,3.362,0,0,1,1.038,2.59,3.823,3.823,0,0,1-1.237,2.943A4.752,4.752,0,0,1,115.168.208,7.176,7.176,0,0,1,112.28-.307Z" transform="translate(87 47)" fill="#fff"/><g transform="translate(30 -593)"><circle cx="15" cy="15" r="15" transform="translate(19 608)" fill="#fff"/><path d="M16.918,12.778l-2.43-2.43a1.616,1.616,0,0,0-2.69.607A1.654,1.654,0,0,1,9.89,12,7.492,7.492,0,0,1,5.377,7.484,1.573,1.573,0,0,1,6.419,5.575a1.616,1.616,0,0,0,.607-2.69L4.6.456a1.733,1.733,0,0,0-2.343,0L.6,2.1C-1.044,3.84.778,8.439,4.857,12.517S13.534,18.5,15.27,16.769l1.649-1.649A1.733,1.733,0,0,0,16.918,12.778Z" transform="translate(27.303 612.98) rotate(11)" fill="#eb6d4e"/></g></g></svg>