<svg xmlns="http://www.w3.org/2000/svg" width="499.582" height="55.138" viewBox="0 0 499.582 55.138"><g transform="translate(-412.509 -13.143)"><path d="M5.936-9.59a8.41,8.41,0,0,1,.532,1.736H3.794l.728-.21a7.951,7.951,0,0,0-.784-1.6c1.19-.056,2.408-.14,3.584-.252ZM2.464-6.412h9.03v1.6h1.624V-7.854H11.13c.322-.518.686-1.092,1.008-1.68l-1.778-.42a15.88,15.88,0,0,1-.91,2.1H7.014L8.05-8.106a7.335,7.335,0,0,0-.63-1.806c1.862-.168,3.668-.392,5.18-.672l-1.12-1.344a78.371,78.371,0,0,1-10.444.952,5.268,5.268,0,0,1,.378,1.414C2.086-9.576,2.8-9.6,3.5-9.646L2.254-9.3a8.727,8.727,0,0,1,.658,1.442h-2v3.038H2.464Zm6.454,2.6a6.932,6.932,0,0,1-1.9,1.624A8.147,8.147,0,0,1,4.886-3.808ZM10.3-5.4,10-5.334H2.926v1.526h.658l-.462.2a9.419,9.419,0,0,0,2.212,2.2A19.55,19.55,0,0,1,.574-.392a5.732,5.732,0,0,1,.98,1.47A18.351,18.351,0,0,0,7-.42a16.889,16.889,0,0,0,5.348,1.47A8.049,8.049,0,0,1,13.37-.5a19.085,19.085,0,0,1-4.634-.952,8.225,8.225,0,0,0,2.688-3.262Zm7.434-6.384A14.655,14.655,0,0,1,14.392-6.44a13.6,13.6,0,0,1,.98,1.736c.322-.336.658-.714.98-1.12V1.19H18.06V-8.428a25.715,25.715,0,0,0,1.33-2.828Zm9.786,2.94h-1.54V-11.7H24.248v2.856H18.914v1.68h5.334V-.812c0,.308-.126.42-.476.42-.322.014-1.554.014-2.632-.028a6.631,6.631,0,0,1,.644,1.652A9.952,9.952,0,0,0,25.06.952c.672-.252.924-.686.924-1.764V-7.168h1.54ZM22.946-2.926c-.42-.84-1.288-2.212-1.918-3.234l-1.484.686a32.849,32.849,0,0,1,1.806,3.36ZM31.738-9.52v2.464H30.45V-9.52ZM30.45-2.968V-5.6h1.288v2.632ZM33.292-11H28.91V-.252h1.54V-1.484h2.842Zm.826,8.344a9.849,9.849,0,0,1,1.6,2.352l1.428-.826a9.66,9.66,0,0,0-1.694-2.3Zm7.406-3.584V-7.7H38.332V-8.932h2.8v-1.456h-2.8v-1.47H36.694v1.47H34.006v1.456h2.688V-7.7H33.53v1.456h4.942v1.2H33.558V-3.6h4.914v3.01c0,.2-.07.252-.294.252s-.994,0-1.666-.028A5.615,5.615,0,0,1,37.044,1.2a6.2,6.2,0,0,0,2.338-.28c.546-.252.7-.672.7-1.47V-3.6h1.344V-5.04H40.082v-1.2Zm5.418-3.878v.742H44.786v-.742Zm-2.156,2.66v-.8h2.156v.8Zm3.71,1.19v-5.054H43.134V1.218h1.652v-7.49Zm2.548-1.162V-8.26H53.27v.826Zm2.226-2.688v.742H51.044v-.742ZM47.81-1.3V-2.17h2.31V-1.3Zm2.31-2.9v.84H47.81V-4.2Zm4.83-7.126H49.462v5.082H53.27V-.77c0,.224-.084.308-.336.308-.182.014-.7.014-1.246,0v-4.97H46.3V.63H47.81V-.084h3.472a6.164,6.164,0,0,1,.364,1.3A6.049,6.049,0,0,0,54.208.9c.56-.266.742-.756.742-1.652ZM4.116,18.2c2.1,0,3.486-1.2,3.486-2.772a3.013,3.013,0,0,0-1.736-2.772v-.07A3.018,3.018,0,0,0,7.2,10.216a2.719,2.719,0,0,0-3.01-2.758c-1.806,0-3.122,1.064-3.122,2.73a2.951,2.951,0,0,0,1.372,2.464v.07a3.015,3.015,0,0,0-1.778,2.7C.658,17.048,2.142,18.2,4.116,18.2Zm.658-6.118c-1.092-.434-1.89-.91-1.89-1.89A1.2,1.2,0,0,1,4.144,8.9a1.32,1.32,0,0,1,1.372,1.442A2.481,2.481,0,0,1,4.774,12.078Zm-.6,4.662A1.588,1.588,0,0,1,2.436,15.2a2.491,2.491,0,0,1,.952-1.918c1.344.546,2.3.994,2.3,2.072A1.358,1.358,0,0,1,4.172,16.74Zm6.342-3.864a1.277,1.277,0,0,0,1.288-1.33,1.282,1.282,0,1,0-2.562,0A1.275,1.275,0,0,0,10.514,12.876Zm0,5.32A1.346,1.346,0,1,0,9.24,16.852,1.289,1.289,0,0,0,10.514,18.2Zm6.118,0c1.974,0,3.64-1.106,3.64-3.01A2.589,2.589,0,0,0,18.2,12.638v-.07A2.454,2.454,0,0,0,19.936,10.2c0-1.778-1.358-2.758-3.36-2.758a4.6,4.6,0,0,0-3.108,1.274l1.05,1.26a2.956,2.956,0,0,1,1.96-.924,1.238,1.238,0,0,1,1.386,1.3c0,.924-.616,1.582-2.52,1.582v1.484c2.254,0,2.856.63,2.856,1.652,0,.924-.714,1.442-1.764,1.442a3.291,3.291,0,0,1-2.31-1.064l-.966,1.3A4.4,4.4,0,0,0,16.632,18.2Zm8.54,0c2.1,0,3.5-1.848,3.5-5.418s-1.4-5.334-3.5-5.334-3.514,1.75-3.514,5.334S23.058,18.2,25.172,18.2Zm0-1.61c-.9,0-1.568-.9-1.568-3.808s.672-3.738,1.568-3.738,1.554.84,1.554,3.738S26.054,16.586,25.172,16.586Zm13.79-1.764a4.327,4.327,0,0,0,3.808-2.576l-1.54-.84A2.735,2.735,0,0,1,39,13.086a2.562,2.562,0,0,1-2.086-1.008,4.236,4.236,0,0,0-3.3-1.54,4.327,4.327,0,0,0-3.808,2.576l1.54.84a2.735,2.735,0,0,1,2.226-1.68,2.581,2.581,0,0,1,2.086,1.008A4.236,4.236,0,0,0,38.962,14.822ZM44.436,18h6.23V16.334H48.72V7.64H47.194a6.72,6.72,0,0,1-2.408.868V9.782h1.876v6.552H44.436Zm9.7,0h2.086c.168-4.06.49-6.174,2.9-9.114V7.64H52.234V9.362H56.9C54.922,12.106,54.32,14.4,54.138,18Zm7.91-5.124a1.277,1.277,0,0,0,1.288-1.33,1.282,1.282,0,1,0-2.562,0A1.275,1.275,0,0,0,62.048,12.876Zm0,5.32a1.346,1.346,0,1,0-1.274-1.344A1.289,1.289,0,0,0,62.048,18.2Zm6.118,0c1.974,0,3.64-1.106,3.64-3.01a2.589,2.589,0,0,0-2.072-2.548v-.07A2.454,2.454,0,0,0,71.47,10.2c0-1.778-1.358-2.758-3.36-2.758A4.6,4.6,0,0,0,65,8.718l1.05,1.26a2.956,2.956,0,0,1,1.96-.924,1.238,1.238,0,0,1,1.386,1.3c0,.924-.616,1.582-2.52,1.582v1.484c2.254,0,2.856.63,2.856,1.652,0,.924-.714,1.442-1.764,1.442a3.291,3.291,0,0,1-2.31-1.064l-.966,1.3A4.4,4.4,0,0,0,68.166,18.2Zm8.54,0c2.1,0,3.5-1.848,3.5-5.418s-1.4-5.334-3.5-5.334-3.514,1.75-3.514,5.334S74.592,18.2,76.706,18.2Zm0-1.61c-.9,0-1.568-.9-1.568-3.808S75.81,9.04,76.706,9.04s1.554.84,1.554,3.738S77.588,16.586,76.706,16.586ZM90.062,6.072V19.288H94.43v-.07a8.675,8.675,0,0,1-2.772-6.538A8.675,8.675,0,0,1,94.43,6.142v-.07ZM99.3,14.64V12.512h2.422V14.64Zm8.932,0h-4.788V12.512h3.7v-1.54h-3.7V9.292h4.018V7.682h-7.91a8.938,8.938,0,0,0,.462-1.148L98.322,6.1a10.8,10.8,0,0,1-2.94,4.662,12.884,12.884,0,0,1,1.442,1.078,12.581,12.581,0,0,0,1.9-2.548h3v1.68H97.636V14.64H95.424v1.6h6.3v3h1.722v-3h4.788Zm8.442-1.428V10.2h3.164v3.01Zm-4.914,0V10.2h3.15v3.01Zm4.914-4.648V6.142h-1.764V8.564h-4.83V15.62h1.68v-.77h3.15v4.368h1.764V14.85h3.164v.7h1.75V8.564Zm16.1,2.3h-1.064V9.068h1.064Zm0,3.262h-1.064V12.344h1.064Zm-5.88-1.778H127.9v1.778H126.9Zm3.43,0v1.778H129.29V12.344ZM129.29,10.86V9.068h1.036V10.86ZM126.9,9.068H127.9V10.86H126.9Zm-1.47,1.792H123.55v1.484h1.876v1.778H123.76v1.484h12.166V14.122H134.3V12.344h1.82V10.86H134.3V9.068h1.316V7.6h-8.4a7.537,7.537,0,0,0,.546-.98l-1.624-.476a8.609,8.609,0,0,1-2.9,3.346A15.418,15.418,0,0,1,124.6,10.58a9.62,9.62,0,0,0,.826-.728Zm-.434,8.372a7.661,7.661,0,0,0,1.6-2.94l-1.61-.392a6.9,6.9,0,0,1-1.568,2.688Zm2.492-2.842a17.772,17.772,0,0,1,.266,2.674l1.624-.238a18.128,18.128,0,0,0-.336-2.618Zm2.772.028a14.919,14.919,0,0,1,.714,2.66l1.666-.322a15.6,15.6,0,0,0-.812-2.6Zm2.772-.07a18.031,18.031,0,0,1,1.652,2.87l1.708-.574a18.989,18.989,0,0,0-1.764-2.8Zm17.164-5.194V9.53h-3.654V6.366h-1.652V9.53H141.33v1.624h2.9a13.284,13.284,0,0,1-3.458,5.068V9.7a22.09,22.09,0,0,0,1.442-2.954l-1.652-.532a14.364,14.364,0,0,1-3.542,5.376,12.088,12.088,0,0,1,.966,1.75,12.689,12.689,0,0,0,1.148-1.26V19.19h1.638v-2.8a9.233,9.233,0,0,1,1.134,1.232,14.226,14.226,0,0,0,2.982-4.242v5.838h1.652V13.1a14.311,14.311,0,0,0,2.828,4.452,5.934,5.934,0,0,1,1.246-1.33,13.694,13.694,0,0,1-3.346-5.068Zm5.39-5.082h-4.368v.07a8.675,8.675,0,0,1,2.772,6.538,8.675,8.675,0,0,1-2.772,6.538v.07h4.368Z" transform="translate(756.509 47.281)" fill="#1a1311"/><rect width="67" height="7" transform="translate(595.509 22.281)" fill="#ffd800"/><rect width="59" height="7" transform="translate(695.509 22.281)" fill="#ffd800"/><path d="M2.66-4.55a9.4,9.4,0,0,0-.392,2.282c0,1.932,1.5,2.982,4.284,2.982A19.43,19.43,0,0,0,10.29.378l.042-1.834a15.329,15.329,0,0,1-3.78.406c-1.96,0-2.478-.686-2.478-1.694A6.222,6.222,0,0,1,4.452-4.4ZM11.7-10a20.281,20.281,0,0,1-2.716.7c-.308-.728-.574-1.386-.812-2.114l-1.96.378A10.762,10.762,0,0,1,6.9-9.7c.084.21.182.434.294.658a23.621,23.621,0,0,1-5.18-.14l.056,1.778a31.149,31.149,0,0,0,5.838,0c.406.868.882,1.834,1.218,2.534-.42-.028-1.176-.112-1.638-.154L7.336-3.6c1.022.126,2.394.35,3.15.5l.98-1.05c-.6-1.106-1.26-2.422-1.792-3.542.84-.168,1.652-.364,2.352-.56ZM19.88-4.55a9.4,9.4,0,0,0-.392,2.282c0,1.932,1.5,2.982,4.284,2.982A19.43,19.43,0,0,0,27.51.378l.042-1.834a15.329,15.329,0,0,1-3.78.406c-1.96,0-2.478-.686-2.478-1.694A6.222,6.222,0,0,1,21.672-4.4ZM28.924-10a20.282,20.282,0,0,1-2.716.7c-.308-.728-.574-1.386-.812-2.114l-1.96.378a10.762,10.762,0,0,1,.686,1.33c.084.21.182.434.294.658a23.621,23.621,0,0,1-5.18-.14l.056,1.778a31.149,31.149,0,0,0,5.838,0c.406.868.882,1.834,1.218,2.534-.42-.028-1.176-.112-1.638-.154L24.556-3.6c1.022.126,2.394.35,3.15.5l.98-1.05c-.6-1.106-1.26-2.422-1.792-3.542.84-.168,1.652-.364,2.352-.56ZM36.5-5.95l.714,1.82c1.19-.5,3.948-1.652,5.558-1.652a1.787,1.787,0,0,1,1.988,1.764c0,1.89-2.352,2.716-5.5,2.8L39.984.5c4.41-.266,6.608-1.988,6.608-4.494,0-2.1-1.47-3.4-3.654-3.4a19.9,19.9,0,0,0-4.97,1.078A11.846,11.846,0,0,1,36.5-5.95ZM62.034-9.758a9.572,9.572,0,0,1-1.274.84c-.658.364-1.862.98-3,1.638a32.5,32.5,0,0,1-1.736-3.836l-1.75.714c.63,1.47,1.3,2.94,1.946,4.13-1.33.98-2.3,2.114-2.3,3.654,0,2.38,2.086,3.15,4.844,3.15A27.115,27.115,0,0,0,63.224.2l.028-2a23.188,23.188,0,0,1-4.536.5c-1.918,0-2.884-.532-2.884-1.526,0-.966.77-1.764,1.932-2.52a42.459,42.459,0,0,1,3.864-2.058c.5-.252.952-.49,1.372-.742Z" transform="translate(596.509 25.281)" fill="#ed4c24"/><path d="M11.83-8.148c0-.406.028-.966.042-1.288-.238.014-.812.028-1.218.028h-.07l.966-.406a17.135,17.135,0,0,0-1.092-1.876l-1.148.476a12.622,12.622,0,0,1,1.036,1.806H3.6c-.49,0-1.2-.028-1.736-.084v1.946C2.254-7.574,3.01-7.6,3.6-7.6H9.9v5.8H3.43c-.63,0-1.26-.042-1.736-.084v2C2.156.07,2.94.028,3.486.028h6.4c0,.252,0,.5-.014.728H11.9c-.042-.42-.07-1.162-.07-1.652Zm-.644-3.514a16.6,16.6,0,0,1,1.12,1.876l1.162-.5c-.266-.49-.77-1.344-1.12-1.848Zm4.1,7.378c.518-.042,1.456-.07,2.254-.07H25.06c.588,0,1.3.056,1.638.07v-2.2c-.364.028-.994.084-1.638.084H17.542c-.728,0-1.75-.042-2.254-.084ZM39.83-8.148c0-.406.028-.966.042-1.288-.238.014-.812.028-1.218.028h-.07l.966-.406a17.135,17.135,0,0,0-1.092-1.876l-1.148.476a12.622,12.622,0,0,1,1.036,1.806H31.6c-.49,0-1.2-.028-1.736-.084v1.946C30.254-7.574,31.01-7.6,31.6-7.6h6.3v5.8H31.43c-.63,0-1.26-.042-1.736-.084v2C30.156.07,30.94.028,31.486.028h6.4c0,.252,0,.5-.014.728H39.9c-.042-.42-.07-1.162-.07-1.652Zm-.644-3.514a16.6,16.6,0,0,1,1.12,1.876l1.162-.5c-.266-.49-.77-1.344-1.12-1.848Zm4.1,7.378c.518-.042,1.456-.07,2.254-.07H53.06c.588,0,1.3.056,1.638.07v-2.2c-.364.028-.994.084-1.638.084H45.542c-.728,0-1.75-.042-2.254-.084Z" transform="translate(697.509 25.281)" fill="#ed4c24"/><path d="M12.482.537q-11,0-11-15.447,0-8.014,2.976-12.214a9.914,9.914,0,0,1,8.626-4.2q10.742,0,10.742,15.705,0,7.82-2.933,11.988A9.66,9.66,0,0,1,12.482.537Zm.3-26.684q-4.4,0-4.4,11.064,0,10.42,4.318,10.42,4.211,0,4.211-10.742T12.783-26.146Zm30.84-5.35V0H36.856V-23.848a8.1,8.1,0,0,1-1.321.935,13.641,13.641,0,0,1-1.622.795,14.484,14.484,0,0,1-1.783.6,13.024,13.024,0,0,1-1.826.354v-5.715a28.23,28.23,0,0,0,4.984-1.977A28.366,28.366,0,0,0,39.52-31.5ZM60.714-5.629H73.776V0H53.28V-2.32a10.8,10.8,0,0,1,.795-4.243,14.081,14.081,0,0,1,2-3.373,17.331,17.331,0,0,1,2.632-2.643q1.429-1.149,2.718-2.073,1.354-.967,2.374-1.848a13.529,13.529,0,0,0,1.719-1.751,6.657,6.657,0,0,0,1.042-1.762,5.24,5.24,0,0,0,.344-1.9A3.821,3.821,0,0,0,65.784-24.9a4.967,4.967,0,0,0-3.416-1.01,11.473,11.473,0,0,0-7.605,3.158v-5.973a16.326,16.326,0,0,1,9.066-2.6,13.39,13.39,0,0,1,4.2.612,8.886,8.886,0,0,1,3.147,1.751A7.468,7.468,0,0,1,73.143-26.2a9.317,9.317,0,0,1,.677,3.62,10.207,10.207,0,0,1-.655,3.781,11.619,11.619,0,0,1-1.74,3.008,15.785,15.785,0,0,1-2.5,2.481q-1.418,1.128-2.943,2.181-1.031.73-1.987,1.45A18.84,18.84,0,0,0,62.3-8.261,7.7,7.7,0,0,0,61.144-6.9,2.355,2.355,0,0,0,60.714-5.629ZM89.728.537q-11,0-11-15.447,0-8.014,2.976-12.214a9.914,9.914,0,0,1,8.626-4.2q10.742,0,10.742,15.705,0,7.82-2.933,11.988A9.66,9.66,0,0,1,89.728.537Zm.3-26.684q-4.4,0-4.4,11.064,0,10.42,4.318,10.42,4.211,0,4.211-10.742T90.029-26.146Zm27.79,16.779H106.067v-4.748h11.752Zm5.919,8.357V-6.918a11.925,11.925,0,0,0,7.219,2.256,6.5,6.5,0,0,0,4.05-1.117,3.709,3.709,0,0,0,1.45-3.115,3.541,3.541,0,0,0-1.794-3.18,9.294,9.294,0,0,0-4.931-1.117h-2.857v-5.2h2.643q6.016,0,6.016-4,0-3.76-4.619-3.76a10.531,10.531,0,0,0-6.016,2v-5.543a16.614,16.614,0,0,1,7.563-1.633q4.727,0,7.358,2.127a6.769,6.769,0,0,1,2.632,5.521q0,6.037-6.123,7.563v.107a8.324,8.324,0,0,1,5.156,2.374,6.694,6.694,0,0,1,1.891,4.823,8.266,8.266,0,0,1-3.158,6.832Q137.057.537,131.493.537A16.858,16.858,0,0,1,123.737-1.01Zm25.749,0V-6.918A11.925,11.925,0,0,0,156.7-4.662a6.5,6.5,0,0,0,4.05-1.117,3.709,3.709,0,0,0,1.45-3.115,3.541,3.541,0,0,0-1.794-3.18,9.294,9.294,0,0,0-4.931-1.117h-2.857v-5.2h2.643q6.016,0,6.016-4,0-3.76-4.619-3.76a10.531,10.531,0,0,0-6.016,2v-5.543a16.614,16.614,0,0,1,7.563-1.633q4.727,0,7.358,2.127a6.769,6.769,0,0,1,2.632,5.521q0,6.037-6.123,7.563v.107a8.324,8.324,0,0,1,5.156,2.374,6.694,6.694,0,0,1,1.891,4.823,8.266,8.266,0,0,1-3.158,6.832Q162.806.537,157.242.537A16.858,16.858,0,0,1,149.486-1.01ZM190.6-31.5V0h-6.768V-23.848a8.1,8.1,0,0,1-1.321.935,13.64,13.64,0,0,1-1.622.795,14.484,14.484,0,0,1-1.783.6,13.024,13.024,0,0,1-1.826.354v-5.715a28.231,28.231,0,0,0,4.984-1.977,28.366,28.366,0,0,0,4.232-2.643ZM210.952.537q-11,0-11-15.447,0-8.014,2.976-12.214a9.914,9.914,0,0,1,8.626-4.2q10.742,0,10.742,15.705,0,7.82-2.933,11.988A9.66,9.66,0,0,1,210.952.537Zm.3-26.684q-4.4,0-4.4,11.064,0,10.42,4.318,10.42,4.211,0,4.211-10.742T211.252-26.146Zm27.79,16.779H227.29v-4.748h11.752ZM245.5-.795V-6.6a12.664,12.664,0,0,0,6.725,1.934,6.317,6.317,0,0,0,4.2-1.278,4.3,4.3,0,0,0,1.515-3.47q0-4.576-6.467-4.576a47.886,47.886,0,0,0-5.5.365l1.16-17.187h16.307v5.543H252.308l-.43,6.166q1.654-.129,2.857-.129a10.507,10.507,0,0,1,7.434,2.492,8.7,8.7,0,0,1,2.686,6.7,9.894,9.894,0,0,1-3.2,7.616q-3.2,2.954-8.68,2.954A18.573,18.573,0,0,1,245.5-.795Zm25.749,0V-6.6a12.664,12.664,0,0,0,6.725,1.934,6.316,6.316,0,0,0,4.2-1.278,4.3,4.3,0,0,0,1.515-3.47q0-4.576-6.467-4.576a47.886,47.886,0,0,0-5.5.365l1.16-17.187h16.307v5.543H278.057l-.43,6.166q1.654-.129,2.857-.129a10.507,10.507,0,0,1,7.434,2.492,8.7,8.7,0,0,1,2.686,6.7,9.894,9.894,0,0,1-3.2,7.616Q284.2.537,278.723.537A18.573,18.573,0,0,1,271.246-.795Z" transform="translate(463.509 64.281)" fill="#ed4c24"/><g transform="translate(411.836 25.46)"><circle cx="21" cy="21" r="21" transform="translate(0.673 0.821)" fill="#ed4c24"/><path d="M22.741,17.181l-3.266-3.267a2.172,2.172,0,0,0-3.616.816,2.222,2.222,0,0,1-2.566,1.4c-2.333-.584-5.482-3.617-6.065-6.067A2.114,2.114,0,0,1,8.627,7.5,2.173,2.173,0,0,0,9.444,3.88L6.178.613a2.329,2.329,0,0,0-3.149,0L.813,2.829c-2.216,2.333.234,8.517,5.716,14s11.664,8.051,14,5.718l2.216-2.217A2.331,2.331,0,0,0,22.741,17.181Z" transform="translate(12.756 8.318) rotate(11)" fill="#fff"/></g><path d="M-28.944-6.132v.648h-1.38v-.648Zm2.688.648h-1.416v-.648h1.416Zm-1.416,1.668v-.672h1.416v.672Zm-2.652,0v-.672h1.38v.672Zm0,1.032h1.38v1.752h1.272V-2.784h1.416v.552c0,.12-.036.168-.18.18-.12,0-.54,0-.912-.012A3.9,3.9,0,0,1-27-.948a3.611,3.611,0,0,0,1.62-.2c.384-.192.492-.492.492-1.068V-7.164H-26.34c-.2-.12-.456-.24-.72-.372a13.659,13.659,0,0,0,2.136-1.62l-.852-.684-.276.072H-31.56v1.08h4.272a11.087,11.087,0,0,1-.96.636c-.492-.216-1-.408-1.416-.564l-.924.768c.492.192,1.068.432,1.608.684h-2.688v6.18h1.344Zm-2-5.28a10.278,10.278,0,0,0-2.088-1.848L-35.4-9a9.741,9.741,0,0,1,2,1.956Zm-.36,2.556H-35.58V-4.2h1.524v2.616a16.518,16.518,0,0,1-1.68,1.092l.66,1.428c.672-.5,1.236-.972,1.788-1.44A3.722,3.722,0,0,0-30.18.828c1.464.06,4.008.036,5.484-.036A5.9,5.9,0,0,1-24.252-.6c-1.644.132-4.488.168-5.916.108a2.739,2.739,0,0,1-2.52-1.188Zm13.26-4.284h-3.54v1.08h3.54Zm-1.164,7.86V-.564h-1.284V-1.932ZM-19.38-3.06h-3.7V1.032h1.2V.564h2.5Zm-3.66-.612h3.6v-1.08h-3.6Zm3.6-2.748h-3.6v1.068h3.6ZM-23.6-7.008h4.56V-8.136H-23.6Zm9.348,6.192H-16.98V-2.5h2.724Zm1.908-4.548V-6.7h-2.58V-8.364a18.248,18.248,0,0,0,2.268-.492l-1.008-1.188a26.23,26.23,0,0,1-5.088.876,4.67,4.67,0,0,1,.384,1.2c.636-.048,1.32-.108,1.992-.192V-6.7h-2.58v1.332h2.58V-3.78h-1.956V1.044h1.356V.468h2.724V1h1.428V-3.78h-2.1V-5.364Zm8.976-2.7A9.018,9.018,0,0,0-5.28-9.516l-.684.96A9.655,9.655,0,0,1-4.1-7ZM-6.516-5.532A10.132,10.132,0,0,1-4.548-4.044l.72-1.14a10.541,10.541,0,0,0-2.016-1.38ZM-7.6-9.5A20.409,20.409,0,0,1-8.256-6.7l.9.252c.3-.7.648-1.836.96-2.8ZM-9.924-6.7a12.031,12.031,0,0,0-.612-2.748l-1,.264a11.893,11.893,0,0,1,.54,2.76Zm3.276,3.948c-.252-.336-1.392-1.68-1.74-2.028V-4.86h1.776V-6.192H-8.388v-3.924h-1.32v3.924H-11.52V-4.86h1.368a11.109,11.109,0,0,1-1.584,3.108,8.48,8.48,0,0,1,.648,1.476,12.315,12.315,0,0,0,1.38-2.952V1.008h1.32V-3.2a16.03,16.03,0,0,1,.864,1.56ZM-.3-2.472-.516-3.8l-1.224.228v-6.6H-3.084v6.84L-6.648-2.7l.216,1.332,3.348-.6v3H-1.74v-3.24ZM8.532-6.12H7.62V-7.656h.912Zm0,2.8H7.62V-4.848h.912ZM3.492-4.848h.864v1.524H3.492Zm2.94,0v1.524H5.544V-4.848ZM5.544-6.12V-7.656h.888V-6.12ZM3.492-7.656h.864V-6.12H3.492ZM2.232-6.12H.624v1.272H2.232v1.524H.8v1.272H11.232V-3.324H9.84V-4.848H11.4V-6.12H9.84V-7.656h1.128v-1.26h-7.2a6.46,6.46,0,0,0,.468-.84l-1.392-.408A7.379,7.379,0,0,1,.36-7.3a13.216,13.216,0,0,1,1.164.936,8.246,8.246,0,0,0,.708-.624ZM1.86,1.056a6.567,6.567,0,0,0,1.368-2.52L1.848-1.8A5.913,5.913,0,0,1,.5.5ZM4-1.38A15.233,15.233,0,0,1,4.224.912l1.392-.2a15.539,15.539,0,0,0-.288-2.244Zm2.376.024A12.787,12.787,0,0,1,6.984.924L8.412.648a13.373,13.373,0,0,0-.7-2.232Zm2.376-.06a15.456,15.456,0,0,1,1.416,2.46L11.628.552a16.276,16.276,0,0,0-1.512-2.4Zm11.88-6.648A9.018,9.018,0,0,0,18.72-9.516l-.684.96A9.655,9.655,0,0,1,19.9-7ZM17.484-5.532a10.132,10.132,0,0,1,1.968,1.488l.72-1.14a10.541,10.541,0,0,0-2.016-1.38ZM16.4-9.5a20.409,20.409,0,0,1-.66,2.808l.9.252c.3-.7.648-1.836.96-2.8ZM14.076-6.7a12.031,12.031,0,0,0-.612-2.748l-1,.264a11.893,11.893,0,0,1,.54,2.76Zm3.276,3.948c-.252-.336-1.392-1.68-1.74-2.028V-4.86h1.776V-6.192H15.612v-3.924h-1.32v3.924H12.48V-4.86h1.368a11.109,11.109,0,0,1-1.584,3.108,8.48,8.48,0,0,1,.648,1.476,12.315,12.315,0,0,0,1.38-2.952V1.008h1.32V-3.2a16.03,16.03,0,0,1,.864,1.56Zm6.348.276L23.484-3.8l-1.224.228v-6.6H20.916v6.84L17.352-2.7l.216,1.332,3.348-.6v3H22.26v-3.24Zm5.688-.612h1.236l.42-4.1.06-1.788h-2.2l.048,1.788ZM30,.108a1.174,1.174,0,0,0,1.248-1.176A1.19,1.19,0,0,0,30-2.256a1.19,1.19,0,0,0-1.248,1.188A1.174,1.174,0,0,0,30,.108Z" transform="translate(502.509 27.281)" fill="#ed4c24"/></g></svg>