<svg xmlns="http://www.w3.org/2000/svg" xmlns:xlink="http://www.w3.org/1999/xlink" width="14" height="13" viewBox="0 0 14 13">
  <defs>
    <clipPath id="clip-path">
      <rect id="長方形_28093" data-name="長方形 28093" width="14" height="13" transform="translate(726 478)" fill="#fff" stroke="#707070" stroke-width="1"/>
    </clipPath>
  </defs>
  <g id="ico_update" transform="translate(-726 -478)" clip-path="url(#clip-path)">
    <g id="グループ_3937" data-name="グループ 3937" transform="translate(693.325 520.845) rotate(-51)">
      <path id="パス_68839" data-name="パス 68839" d="M176.548,3.217A6.2,6.2,0,0,0,173.5,1.542L173.58,0l-3.042,1.6-.813.43-.151.079.24.129,1.136.611,2.411,1.3.068-1.275a4.918,4.918,0,0,1,3.226,6.7l1.2.522a6.23,6.23,0,0,0-1.308-6.878Z" transform="translate(-119.057)" fill="#4b4b4b"/>
      <path id="パス_68840" data-name="パス 68840" d="M54.286,180.019l-2.413-1.3L51.805,180a4.918,4.918,0,0,1-3.226-6.7l-1.2-.522a6.22,6.22,0,0,0,4.357,8.55l-.081,1.544,3.04-1.6.817-.43.148-.079-.238-.129Z" transform="translate(0 -167.635)" fill="#4b4b4b"/>
    </g>
  </g>
</svg>
