<svg xmlns="http://www.w3.org/2000/svg" width="50" height="50" viewBox="0 0 50 50">
  <g id="ico_search" transform="translate(-238.206 -3990.206)">
    <path id="長方形_26874" data-name="長方形 26874" d="M3,0H50a0,0,0,0,1,0,0V50a0,0,0,0,1,0,0H0a0,0,0,0,1,0,0V3A3,3,0,0,1,3,0Z" transform="translate(238.206 3990.206)" fill="#03a58e"/>
    <g id="ico" transform="translate(252.464 4004.958)">
      <path id="パス_63729" data-name="パス 63729" d="M16.66,14.471A9.121,9.121,0,1,0,14.632,16.5l.705.7,2.028-2.028Zm-2.7-.673a6.621,6.621,0,1,1,0-9.363A6.621,6.621,0,0,1,13.958,13.8Z" transform="translate(-0.159 0.001)" fill="#fff"/>
      <path id="パス_63730" data-name="パス 63730" d="M324.589,321.3l-6.85-6.119-2.379,2.379,6.118,6.85c.622.8,1.742.687,2.749-.32S325.394,321.918,324.589,321.3Z" transform="translate(-299.734 -299.552)" fill="#fff"/>
    </g>
  </g>
</svg>
