<svg xmlns="http://www.w3.org/2000/svg" width="13.228" height="12.919" viewBox="0 0 13.228 12.919">
  <g id="ico_last" transform="translate(-873.206 -4328.206)">
    <path id="パス_61680" data-name="パス 61680" d="M124.285,5.848,118.561.14a.48.48,0,0,0-.677.679l5.383,5.368-5.383,5.368a.48.48,0,0,0,.678.679l5.724-5.708a.479.479,0,0,0,0-.679Z" transform="translate(761.758 4328.5)" fill="#03a58e" stroke="#03a58e" stroke-linecap="round" stroke-width="0.5"/>
    <path id="パス_61681" data-name="パス 61681" d="M124.285,5.848,118.561.14a.48.48,0,0,0-.677.679l5.383,5.368-5.383,5.368a.48.48,0,0,0,.678.679l5.724-5.708a.479.479,0,0,0,0-.679Z" transform="translate(755.758 4328.5)" fill="#03a58e" stroke="#03a58e" stroke-linecap="round" stroke-width="0.5"/>
  </g>
</svg>
