<svg xmlns="http://www.w3.org/2000/svg" width="350" height="200" viewBox="0 0 350 200"><g transform="translate(-143 -1765)"><g transform="translate(143 1765)" fill="none"><path d="M0,0H350V200H0Z" stroke="none"/><path d="M 1 1 L 1 199 L 349 199 L 349 1 L 1 1 M 0 0 L 350 0 L 350 200 L 0 200 L 0 0 Z" stroke="none" fill="#dcdcdc"/></g><g transform="translate(-1939.964 541.885)"><g transform="translate(2176.062 1244.314)"><rect width="60.861" height="4.508" transform="translate(4.247 150.18)" fill="#7e7e87"/><g transform="translate(0 0)"><rect width="63.35" height="153.156" transform="translate(5.462)" fill="#f2f0ee"/><rect width="5.462" height="153.156" fill="#e5dfdc"/></g><rect width="67.881" height="1.825" transform="translate(0.466 75.472)" fill="#e5dfdc"/><rect width="67.881" height="1.825" transform="translate(0.466 94.579)" fill="#e5dfdc"/><rect width="0.939" height="18.972" transform="translate(23.971 76.546)" fill="#e5dfdc"/></g><g transform="translate(2261.585 1271.381)"><g transform="translate(0 18.473)"><rect width="58.543" height="4.337" transform="translate(4.086 97.12)" fill="#e5dfdc"/><rect width="66.191" height="93.568" transform="translate(0 6.414)" fill="#f2f0ee"/><path d="M2600.354,1407.475h-66.191l4.721-6.414h56.1Z" transform="translate(-2534.163 -1401.06)" fill="#e5dfdc"/></g><g transform="translate(7.528 30.612)"><path d="M2585.642,1493.98a25.568,25.568,0,1,1,25.568-25.568A25.6,25.6,0,0,1,2585.642,1493.98Z" transform="translate(-2560.074 -1442.845)" fill="#403d42"/></g><rect width="15.9" height="22.767" transform="translate(44.834 91.019)" fill="#e5dfdc"/><rect width="65.295" height="1.756" transform="translate(0.448 87.275)" fill="#e5dfdc"/><rect width="12.196" height="5.15" transform="translate(50.255 27.688)" fill="#7e7e87"/><g transform="translate(10.085 33.169)"><path d="M2618.514,1474.656a23.009,23.009,0,0,0-44.541-8.113l29.643,29.643A23.046,23.046,0,0,0,2618.514,1474.656Z" transform="translate(-2572.491 -1451.645)" fill="#7e7e87"/><path d="M2591.885,1534.048a22.893,22.893,0,0,0,8.114-1.481l-29.643-29.643a23,23,0,0,0,21.53,31.124Z" transform="translate(-2568.874 -1488.026)" fill="#93939e"/></g><rect width="5.421" height="9.396" transform="translate(54.591 51.482)" fill="#bcbcc9"/><g transform="translate(11.117 0)"><rect width="36.984" height="20.915" fill="#f2f0ee"/><rect width="22.19" height="13.518" transform="translate(4.21 4.846)" fill="#403d42"/><rect width="0.638" height="15.878" transform="translate(28.504 2.487)" fill="#e5dfdc"/><rect width="4.464" height="2.496" transform="translate(30.879 2.487)" fill="#7e7e87"/><g transform="translate(30.864 10.618)"><rect width="1.992" height="1.114" fill="#7e7e87"/><rect width="1.992" height="1.114" transform="translate(2.487)" fill="#7e7e87"/></g><g transform="translate(30.864 12.148)"><rect width="1.992" height="1.114" fill="#7e7e87"/><rect width="1.992" height="1.114" transform="translate(2.487)" fill="#7e7e87"/></g><g transform="translate(30.864 13.679)"><rect width="1.992" height="1.114" fill="#7e7e87"/><rect width="1.992" height="1.114" transform="translate(2.487)" fill="#7e7e87"/></g><g transform="translate(30.864 15.209)"><rect width="1.992" height="1.114" fill="#7e7e87"/><rect width="1.992" height="1.114" transform="translate(2.487)" fill="#7e7e87"/></g><path d="M2682.842,1359.645a1.433,1.433,0,1,1-1.434,1.433A1.433,1.433,0,0,1,2682.842,1359.645Z" transform="translate(-2649.746 -1353.205)" fill="#7e7e87"/><path d="M2603.813,1345.036H2580a.542.542,0,1,1,0-1.084h23.816a.542.542,0,0,1,0,1.084Z" transform="translate(-2577.413 -1342.07)" fill="#bcbcc9"/></g></g><path d="M2623.843,1638.02" transform="translate(-336.203 -279.323)" fill="#cda771"/><g transform="translate(2219.405 1334.527)"><rect width="34.36" height="4.632" transform="translate(31.566 35.717)" fill="#d2cecb"/><rect width="97.491" height="3.398" transform="translate(0 39.756)" fill="#cda771"/><rect width="97.491" height="3.398" transform="translate(0 64.527)" fill="#cda771"/><rect width="66.322" height="36.757" transform="translate(15.584)" fill="#d2cecb"/><g transform="translate(17.242 1.858)"><path d="M2611.8,1561.22H2589.94l21.863,21.863Z" transform="translate(-2548.798 -1561.22)" fill="#7e7e87"/><path d="M2448.327,1561.22v33.041h63.006v-3.833l-29.208-29.209Z" transform="translate(-2448.327 -1561.22)" fill="#7e7e87"/><path d="M2572,1561.22h-7.345l29.208,29.209v-7.345Z" transform="translate(-2530.86 -1561.22)" fill="#93939e"/></g><g transform="translate(6.512 49.072)"><rect width="11.453" height="15.459" fill="#d2cecb"/><rect width="10.308" height="12.465" transform="translate(0.573 0.692)" fill="#403d42"/><g transform="translate(73.014)"><rect width="11.453" height="15.459" fill="#d2cecb"/><rect width="10.308" height="12.465" transform="translate(0.573 0.692)" fill="#403d42"/></g></g><g transform="translate(27.623 58.264)"><rect width="36.094" height="1.393" transform="translate(3.076 4.874)" fill="#a9a09c"/><rect width="42.245" height="5.571" fill="#d2cecb"/><rect width="18.57" height="0.493" transform="translate(21.123 2.539)" fill="#93939e"/><rect width="1.509" height="1.509" transform="translate(1.838 1.857)" fill="#a9a09c"/></g></g><g transform="translate(2336.868 1291.651)"><path d="M2834.063,1540.588h-4.478l.3-40.829h3.881Z" transform="translate(-2819.039 -1472.882)" fill="#e5dfdc"/><rect width="7.679" height="6.83" transform="translate(8.946 99.547)" fill="#e5dfdc"/><rect width="24.989" height="4.306" transform="translate(1.997 106.527)" fill="#403d42"/><path d="M2822.558,1771.02H2794.41l-.127-4.673h24.991Z" transform="translate(-2793.993 -1662.018)" fill="#f2f0ee"/><rect width="13.375" height="37.85" rx="6.688" transform="translate(6.098 63.12)" fill="#f2f0ee"/><rect width="11.383" height="1.707" transform="translate(7.094 83.326)" fill="#e5dfdc"/><g transform="translate(0 5.06)"><path d="M2800.084,1480.7l-1.946,3.725-4.652-1.924,1.253-4.012Z" transform="translate(-2793.427 -1462.855)" fill="#93939e"/><path d="M2808.3,1428.091l-7.894,15.81-7.126-2.947,6.736-16.289Z" transform="translate(-2793.285 -1424.665)" fill="#d2cecb"/><rect width="3.746" height="8.593" transform="translate(9.575 5.441) rotate(-39.087)" fill="#d2cecb"/><rect width="3.746" height="8.593" transform="translate(12.284 8.776) rotate(-39.087)" fill="#93939e"/></g><path d="M2824.55,1426.309a2.545,2.545,0,1,1,2.545-2.545A2.548,2.548,0,0,1,2824.55,1426.309Zm0-3.6a1.052,1.052,0,1,0,1.053,1.053A1.054,1.054,0,0,0,2824.55,1422.712Z" transform="translate(-2813.661 -1417.16)" fill="#d2cecb"/><path d="M2830,1413.611a.373.373,0,0,1-.373-.373v-5.617a.373.373,0,0,1,.747,0v5.617A.373.373,0,0,1,2830,1413.611Z" transform="translate(-2819.071 -1407.248)" fill="#93939e"/></g><g transform="translate(2149.964 1362.115)"><path d="M2304.11,1669.02a.945.945,0,0,1-.945-.946v-12.139a4.265,4.265,0,0,0-4.26-4.26h-22.279a4.265,4.265,0,0,0-4.26,4.26v12.139a.946.946,0,1,1-1.891,0v-12.139a6.158,6.158,0,0,1,6.151-6.151H2298.9a6.158,6.158,0,0,1,6.151,6.151v12.139A.945.945,0,0,1,2304.11,1669.02Z" transform="translate(-2235.462 -1649.784)" fill="#d2cecb"/><rect width="31.353" height="31.353" rx="8.504" transform="translate(36.626 8.506)" fill="#e5dfdc"/><rect width="1.112" height="27.684" transform="translate(38.46 18.29) rotate(-90)" fill="#f2f0ee"/><rect width="13.237" height="8.131" transform="translate(45.684 20.511)" fill="#7e7e87"/><g transform="translate(47.946 10.954)"><path d="M2316.83,1687.486a1.836,1.836,0,1,1-1.836,1.836A1.836,1.836,0,0,1,2316.83,1687.486Z" transform="translate(-2314.994 -1687.486)" fill="#7e7e87"/><path d="M2334.178,1687.486a1.836,1.836,0,1,1-1.836,1.836A1.836,1.836,0,0,1,2334.178,1687.486Z" transform="translate(-2327.302 -1687.486)" fill="#7e7e87"/></g><g transform="translate(0 6.288)"><path d="M2156.89,1684.6h18.422l3,29.745h-24.88Z" transform="translate(-2152.425 -1680.771)" fill="#d2cecb"/><rect width="18.19" height="2.862" transform="translate(22.789 2.862) rotate(180)" fill="#d2cecb"/><path d="M2160.179,1695.538l-10.214-10.941h7.62l5.242,4.614Z" transform="translate(-2149.965 -1680.771)" fill="#d2cecb"/><path d="M2224.838,1699.282a1.2,1.2,0,0,1-1.179-1.436c.78-3.9-.436-8.906-.986-10.847H2217a1.2,1.2,0,0,1,0-2.4h7.431l.274.821c.1.3,2.417,7.355,1.309,12.9A1.2,1.2,0,0,1,2224.838,1699.282Z" transform="translate(-2196.673 -1680.771)" fill="#d2cecb"/><rect width="2.012" height="19.061" transform="translate(15.456 11.969)" fill="#93939e"/></g></g></g></g></svg>