<svg xmlns="http://www.w3.org/2000/svg" width="251" height="142" viewBox="0 0 251 142"><g transform="translate(-2322.638 -1228.393)"><rect width="251" height="142" transform="translate(2322.638 1228.393)" fill="#fff" opacity="0"/><g transform="translate(2403.944 1251.435)"><rect width="35.861" height="1.818" transform="translate(0)" fill="#945029"/><rect width="17.255" height="1.818" transform="translate(53.116 1.818) rotate(180)" fill="#894019"/><rect width="15.252" height="47.643" transform="translate(52.114 49.461) rotate(180)" fill="#894019"/><rect width="35.967" height="43.015" transform="translate(0.895 1.818)" fill="#945029"/><rect width="1.002" height="47.643" transform="translate(35.861 1.818)" fill="#592114"/><rect width="34.965" height="21.507" transform="translate(0.895 23.325)" fill="#945029"/><rect width="35.967" height="0.438" transform="translate(0.895 23.106)" fill="#3b1a11"/><rect width="34.965" height="4.629" transform="translate(0.895 44.833)" fill="#592114"/><rect width="35.967" height="0.75" transform="translate(0.895 44.833)" fill="#3b1a11"/><rect width="1.781" height="3.879" transform="translate(35.081 45.583)" fill="#945029"/><rect width="1.781" height="3.879" transform="translate(0.895 45.583)" fill="#945029"/><rect width="51.219" height="0.438" transform="translate(0.895 1.818)" fill="#3b1a11"/><g transform="translate(10.798 11.651)"><path d="M.921,0H12.806a.921.921,0,0,1,.921.921v0a.921.921,0,0,1-.921.921H.921A.921.921,0,0,1,0,.921v0A.921.921,0,0,1,.921,0Z" fill="#ced5d4"/><path d="M2470.947,1284.769h-5.418c-.089,0-.162-.1-.162-.229s.073-.229.162-.229h5.418c.089,0,.162.1.162.229S2471.036,1284.769,2470.947,1284.769Z" transform="translate(-2464.823 -1284.017)" fill="#f5f5f5"/></g><g transform="translate(10.798 33.158)"><path d="M2477.229,1333.5h-12.423c-.36,0-.652-.412-.652-.921h0c0-.509.292-.921.652-.921h12.423c.36,0,.652.412.652.921h0C2477.881,1333.09,2477.589,1333.5,2477.229,1333.5Z" transform="translate(-2464.154 -1331.66)" fill="#ced5d4"/><path d="M2470.947,1332.776h-5.418c-.089,0-.162-.1-.162-.229s.073-.229.162-.229h5.418c.089,0,.162.1.162.229S2471.036,1332.776,2470.947,1332.776Z" transform="translate(-2464.824 -1332.023)" fill="#f5f5f5"/></g></g><g transform="translate(2442.665 1246.393)"><g transform="translate(0.717 4.234)"><rect width="20.022" height="55.124" transform="translate(48.255 55.124) rotate(180)" fill="#3b1a11"/><rect width="20.022" height="55.124" fill="#b56635"/><rect width="45.959" height="13.022" transform="translate(17.604 4.582) rotate(90)" fill="#f6e6d7"/><g transform="translate(14.775 18.415)"><ellipse cx="0.827" cy="3.197" rx="0.827" ry="3.197" fill="#5e2e1d"/><path d="M2562.668,1297.7a8.422,8.422,0,0,1,.335,2.566c0,1.766-.37,3.2-.827,3.2-.132,0-.256-.123-.367-.335.137.395.307.631.492.631.457,0,.827-1.431.827-3.2A7.121,7.121,0,0,0,2562.668,1297.7Z" transform="translate(-2561.474 -1297.363)" fill="#481c10"/></g><g transform="translate(19.955)"><rect width="20.022" height="55.124" transform="translate(20.022 55.124) rotate(180)" fill="#b56635"/><rect width="45.959" height="13.022" transform="translate(15.439 4.582) rotate(90)" fill="#f6e6d7"/><g transform="translate(3.592 18.415)"><ellipse cx="0.827" cy="3.197" rx="0.827" ry="3.197" fill="#5e2e1d"/><path d="M2582.249,1297.7a8.417,8.417,0,0,1,.335,2.566c0,1.766-.37,3.2-.826,3.2-.132,0-.256-.123-.367-.335.137.395.307.631.492.631.457,0,.827-1.431.827-3.2A7.127,7.127,0,0,0,2582.249,1297.7Z" transform="translate(-2581.055 -1297.363)" fill="#481c10"/></g></g><rect width="0.296" height="55.124" transform="translate(19.874)" fill="#3b1a11"/></g><g transform="translate(0)"><path d="M3.405,0H38.072a3.405,3.405,0,0,1,3.405,3.405v0a.829.829,0,0,1-.829.829H.829A.829.829,0,0,1,0,3.405v0A3.405,3.405,0,0,1,3.405,0Z" transform="translate(8.278)" fill="#d5d5d5"/><path d="M3.405,0H38.072a3.405,3.405,0,0,1,3.405,3.405v0a.829.829,0,0,1-.829.829H.829A.829.829,0,0,1,0,3.405v0A3.405,3.405,0,0,1,3.405,0Z" fill="#eff0f1"/></g></g><path d="M2519.377,1478.361c0,.775-30.807,1.4-68.809,1.4s-68.813-.626-68.813-1.4,30.81-1.393,68.813-1.393S2519.377,1477.594,2519.377,1478.361Z" transform="translate(-3.928 -127.276)" fill="#8e8e8f"/><path d="M2487.624,1462.349a1.381,1.381,0,0,1-.175-.041c-.036-.009-.07-.026-.1-.038-.052-.019-.1-.034-.154-.057s-.075-.035-.11-.056-.1-.049-.143-.078-.078-.05-.115-.076-.087-.058-.134-.091l-.117-.1c-.043-.035-.084-.069-.128-.108s-.078-.076-.117-.113-.081-.08-.122-.122-.079-.089-.12-.134-.076-.088-.115-.136-.079-.1-.119-.152-.074-.1-.108-.148-.079-.113-.119-.172-.07-.106-.1-.16-.079-.128-.118-.194-.064-.11-.1-.166-.077-.143-.117-.216l-.09-.174c-.042-.078-.079-.157-.118-.237-.028-.057-.056-.12-.084-.179-.038-.084-.076-.173-.117-.261-.024-.059-.051-.12-.076-.181-.039-.093-.077-.189-.118-.285-.023-.059-.046-.121-.07-.181-.037-.1-.077-.206-.114-.309-.021-.062-.044-.123-.066-.181-.036-.112-.074-.224-.112-.339-.018-.057-.037-.113-.057-.172-.036-.121-.075-.244-.112-.367-.015-.055-.032-.112-.048-.167-.038-.132-.077-.265-.112-.4-.014-.047-.027-.1-.04-.146-.038-.146-.075-.291-.112-.439-.01-.043-.02-.087-.032-.131-.036-.157-.075-.315-.109-.475-.007-.034-.016-.071-.024-.1-.037-.172-.073-.345-.109-.524,0-.019-.009-.041-.012-.063a40.585,40.585,0,0,1-.713-6.992h-6.92c.161,8.2,2.441,14.7,5.231,14.7h6.92a1.9,1.9,0,0,1-.267-.02C2487.682,1462.364,2487.652,1462.355,2487.624,1462.349Z" transform="translate(-55.854 -111.112)" fill="#302d2c"/><g transform="translate(2491.663 1250.526)"><g transform="translate(0)"><path d="M2657.537,1294.9c-.3-2.39-8.036-31.356-8.919-34.55a6.938,6.938,0,0,0-5.843-4.731h-6.558v5.143c3.222.007,5.456.018,6.111.038,1.563.045,2.055,1.145,2.552,2.186s6.747,27.418,7.34,28.771-.07,2.6-2.256,2.6h-13.748v6.586h-.239a.55.55,0,0,1,.548.547v.843a.548.548,0,0,1-.548.549l-.129,0v15.4h21.772c.026,0,.052.008.078.008l0-18.012A22.745,22.745,0,0,0,2657.537,1294.9Z" transform="translate(-2635.85 -1255.619)" fill="#1a1a1a"/></g></g><path d="M2652.674,1298.093c-.592-1.353-6.845-27.73-7.34-28.771s-.99-2.141-2.553-2.186c-.656-.02-2.889-.031-6.111-.038v33.6h13.748C2652.6,1300.7,2653.266,1299.447,2652.674,1298.093Z" transform="translate(-144.64 -11.429)" fill="#fff" opacity="0.4"/><g transform="translate(2375.603 1267.083)"><rect width="17.094" height="12.051" transform="translate(33.859 20.151)" fill="#5e2e1d"/><ellipse cx="3.898" cy="4.752" rx="3.898" ry="4.752" transform="translate(3.577 0)" fill="#b56635"/><path d="M2419.832,1320.5h-25.51l-.375-1.817-.852-4.134-.375-1.827-2.2-10.7-1.3-6.292a2.63,2.63,0,0,1,2.576-3.161h22.284l.006.03.5,2.412,1.587,7.708.41,1.982.955,4.643.7,3.375.153.744,1.413,6.86Z" transform="translate(-2383.622 -1292.576)" fill="#b56635"/><path d="M2426.126,1324.921H2401.67c.048-.85.064-1.749.049-2.689-.009-.561-.028-1.138-.058-1.727q-.039-.81-.1-1.654-.073-.931-.172-1.9c-.142-1.364-.325-2.778-.542-4.226-.666-4.448-1.661-9.215-2.806-13.882q-.087-.356-.176-.711a11.5,11.5,0,0,0-2.705-5.453c-.039-.037-.077-.072-.116-.1h21.807a3.91,3.91,0,0,1,.483.03,4.908,4.908,0,0,1,4.014,4.251l1.925,11.293.25,1.463.531,3.113.2,1.175,1.1,6.429.25,1.472.094.55.413,2.425Z" transform="translate(-2386.864 -1292.576)" fill="#914822"/><path d="M2436.5,1296.857l1.926,11.293a45.958,45.958,0,0,0-3.771-5.321c-.029-.035-.056-.07-.085-.1a43.84,43.84,0,0,0-12.068-10.15h9.979l.006.03A4.907,4.907,0,0,1,2436.5,1296.857Z" transform="translate(-2402.025 -1292.576)" fill="#ab5b30"/><g transform="translate(12.722 5.027)"><path d="M2410.757,1303.8l-.085,2.542.085,2.542.085-2.542Z" transform="translate(-2408.215 -1303.796)" fill="#48261a"/><path d="M2410.271,1309.366l-2.542.085-2.542-.085,2.542-.085Z" transform="translate(-2405.188 -1306.824)" fill="#48261a"/><path d="M2410.806,1309.178a.237.237,0,1,1-.237-.237A.237.237,0,0,1,2410.806,1309.178Z" transform="translate(-2408.027 -1306.636)" fill="#3b1a11"/><g transform="translate(7.427)"><path d="M2427.334,1303.8l-.085,2.542.085,2.542.085-2.542Z" transform="translate(-2424.792 -1303.796)" fill="#48261a"/><path d="M2426.849,1309.366l-2.542.085-2.542-.085,2.542-.085Z" transform="translate(-2421.765 -1306.824)" fill="#48261a"/><path d="M2427.385,1309.178a.237.237,0,1,1-.238-.237A.237.237,0,0,1,2427.385,1309.178Z" transform="translate(-2424.605 -1306.636)" fill="#3b1a11"/></g><g transform="translate(14.854)"><path d="M2443.912,1303.8l-.085,2.542.085,2.542.085-2.542Z" transform="translate(-2441.37 -1303.796)" fill="#48261a"/><path d="M2443.427,1309.366l-2.542.085-2.542-.085,2.542-.085Z" transform="translate(-2438.343 -1306.824)" fill="#48261a"/><path d="M2443.961,1309.178a.237.237,0,1,1-.237-.237A.237.237,0,0,1,2443.961,1309.178Z" transform="translate(-2441.182 -1306.636)" fill="#3b1a11"/></g><g transform="translate(2.247 6.888)"><path d="M2415.773,1319.17l-.085,2.542.085,2.542.085-2.542Z" transform="translate(-2413.231 -1319.17)" fill="#48261a"/><path d="M2415.287,1324.739l-2.542.085-2.542-.085,2.542-.085Z" transform="translate(-2410.204 -1322.197)" fill="#48261a"/><path d="M2415.822,1324.552a.237.237,0,1,1-.237-.238A.237.237,0,0,1,2415.822,1324.552Z" transform="translate(-2413.043 -1322.01)" fill="#3b1a11"/><g transform="translate(7.427)"><path d="M2432.35,1319.17l-.085,2.542.085,2.542.085-2.542Z" transform="translate(-2429.808 -1319.17)" fill="#48261a"/><path d="M2431.865,1324.739l-2.542.085-2.542-.085,2.542-.085Z" transform="translate(-2426.781 -1322.197)" fill="#48261a"/><path d="M2432.4,1324.552a.237.237,0,1,1-.237-.238A.237.237,0,0,1,2432.4,1324.552Z" transform="translate(-2429.621 -1322.01)" fill="#3b1a11"/></g><g transform="translate(14.854)"><path d="M2448.928,1319.17l-.085,2.542.085,2.542.085-2.542Z" transform="translate(-2446.386 -1319.17)" fill="#48261a"/><path d="M2448.442,1324.739l-2.542.085-2.542-.085,2.542-.085Z" transform="translate(-2443.358 -1322.197)" fill="#48261a"/><path d="M2448.977,1324.552a.237.237,0,1,1-.237-.238A.237.237,0,0,1,2448.977,1324.552Z" transform="translate(-2446.198 -1322.01)" fill="#3b1a11"/></g></g><g transform="translate(4.69 13.775)"><path d="M2421.225,1334.544l-.084,2.542.084,2.542.085-2.542Z" transform="translate(-2418.683 -1334.544)" fill="#48261a"/><path d="M2420.74,1340.113l-2.542.085-2.542-.085,2.542-.085Z" transform="translate(-2415.656 -1337.571)" fill="#48261a"/><path d="M2421.275,1339.925a.237.237,0,1,1-.238-.237A.237.237,0,0,1,2421.275,1339.925Z" transform="translate(-2418.496 -1337.383)" fill="#3b1a11"/><g transform="translate(7.427)"><path d="M2437.8,1334.544l-.085,2.542.085,2.542.085-2.542Z" transform="translate(-2435.26 -1334.544)" fill="#48261a"/><path d="M2437.317,1340.113l-2.542.085-2.542-.085,2.542-.085Z" transform="translate(-2432.233 -1337.571)" fill="#48261a"/><path d="M2437.852,1339.925a.237.237,0,1,1-.237-.237A.237.237,0,0,1,2437.852,1339.925Z" transform="translate(-2435.073 -1337.383)" fill="#3b1a11"/></g><g transform="translate(14.854)"><path d="M2454.38,1334.544l-.084,2.542.084,2.542.085-2.542Z" transform="translate(-2451.839 -1334.544)" fill="#48261a"/><path d="M2453.895,1340.113l-2.542.085-2.542-.085,2.542-.085Z" transform="translate(-2448.811 -1337.571)" fill="#48261a"/><path d="M2454.43,1339.925a.237.237,0,1,1-.237-.237A.237.237,0,0,1,2454.43,1339.925Z" transform="translate(-2451.651 -1337.383)" fill="#3b1a11"/></g></g></g><g transform="translate(23.885 14.711)"><path d="M2448.413,1328.327a1.058,1.058,0,0,1-.028.156q-.135.515-.26,1.038s0,.008,0,.011a.028.028,0,0,0,0,.01q-.156.651-.3,1.31-.169.8-.314,1.61c-.184,1.032-.34,2.073-.464,3.115q-.171,1.444-.262,2.879c0,.015,0,.029,0,.044v.023q-.05.816-.073,1.623a1.162,1.162,0,0,1-.022.185v0a.734.734,0,0,1-.1.256.549.549,0,0,1-.117.127.649.649,0,0,1-.668.046c-.249-.1-.5-.194-.749-.287q-1.507-.558-3-.959-.927-.249-1.855-.438l-.113-.023q-1.408-.281-2.833-.429a31.928,31.928,0,0,0-4.436-.141q-.972.036-1.969.126a.861.861,0,0,1-.232,0,.571.571,0,0,1-.393-.221.733.733,0,0,1-.076-.625c.026-.1.051-.2.076-.294a52.705,52.705,0,0,0,1.6-11.367.617.617,0,0,1,.913-.619,32.527,32.527,0,0,0,7.242,1.971l.161.023q1.358.193,2.741.262c.207.011.413.019.619.025a34.541,34.541,0,0,0,4.19-.132.71.71,0,0,1,.549.143.539.539,0,0,1,.107.132A.681.681,0,0,1,2448.413,1328.327Z" transform="translate(-2430.106 -1325.413)" fill="#149bb3"/><g transform="translate(16.099 2.494)"><path d="M2468.248,1331.4c-.1.4-.2.792-.289,1.194,0,0,0,.008,0,.011a.029.029,0,0,0,0,.01q-.15.651-.286,1.31-.165.8-.308,1.611c-.184,1.043-.34,2.095-.467,3.147q-.174,1.425-.273,2.846l0,.043v.023q-.063.909-.1,1.808v.005a.736.736,0,0,1-.1.256.55.55,0,0,1-.117.127c-.026-.153-.049-.305-.071-.458a18.111,18.111,0,0,1-.168-1.8,21.84,21.84,0,0,1,.258-4.374c.092-.581.2-1.143.327-1.681s.263-1.061.41-1.55a20.463,20.463,0,0,1,1.12-2.945Z" transform="translate(-2466.039 -1330.98)" fill="#127f8a"/></g><g transform="translate(1.67 4.365)"><path d="M2453.085,1346.3a.412.412,0,0,1-.187.374.644.644,0,0,1-.538.034q-.824-.251-1.641-.478a63.867,63.867,0,0,0-16.3-2.373c-.428-.005-.679-.274-.559-.612a19.881,19.881,0,0,0,1.243-7.639c-.007-.358.316-.535.724-.408a63.857,63.857,0,0,0,16.42,2.805q.753.031,1.518.046a.844.844,0,0,1,.282.05.42.42,0,0,1,.276.562A19.87,19.87,0,0,0,2453.085,1346.3Z" transform="translate(-2433.834 -1335.155)" fill="#e7b178"/><path d="M2476.08,1350.147v.005c0,.246-.182.5-.3.269-.651-1.273-.186-6.253,1.31-8.18.142-.183.25-.145.263.078a.47.47,0,0,1-.03.188A19.885,19.885,0,0,0,2476.08,1350.147Z" transform="translate(-2456.829 -1339.002)" fill="#be8e5c"/></g></g><path d="M3.189,0h16.6a3.189,3.189,0,0,1,3.189,3.189v0a2.3,2.3,0,0,1-2.3,2.3H2.1A2.1,2.1,0,0,1,0,3.387v-.2A3.189,3.189,0,0,1,3.189,0Z" transform="translate(46.586 33.241) rotate(180)" fill="#48261a"/><path d="M2392.559,1357.212h13.5l-2.662-19.658h-13.816v16.677A2.981,2.981,0,0,0,2392.559,1357.212Z" transform="translate(-2383.85 -1317.403)" fill="#5e2e1d"/><path d="M2404.07,1358.77l1.987,10.153h-13.5a2.981,2.981,0,0,1-2.981-2.981v-7.172Z" transform="translate(-2383.85 -1329.115)" fill="#b56635"/><rect width="3.024" height="8.822" transform="translate(48.403 48.63) rotate(180)" fill="#4b2117"/><rect width="3.024" height="8.822" transform="translate(36.176 48.63) rotate(180)" fill="#4b2117"/><circle cx="4.752" cy="4.752" r="4.752" transform="matrix(0.772, -0.635, 0.635, 0.772, 44.265, 24.251)" fill="#945029"/><circle cx="4.752" cy="4.752" r="4.752" transform="translate(12.548 25.486) rotate(-49.977)" fill="#945029"/><circle cx="4.752" cy="4.752" r="4.752" transform="matrix(0.973, -0.233, 0.233, 0.973, 0, 21.388)" fill="#5e2e1d"/><path d="M2424.37,1348.875v6.641a1.041,1.041,0,0,0,1.041,1.041h20.236a.929.929,0,0,0,.929-.929v-6.753h4.856V1360.4a3.063,3.063,0,0,1-3.063,3.063h-25.792a3.063,3.063,0,0,1-3.063-3.063v-11.523Z" transform="translate(-2400.374 -1323.653)" fill="#945029"/><rect width="1.227" height="8.822" transform="translate(45.379 48.63) rotate(180)" fill="#c27447"/><rect width="1.227" height="8.822" transform="translate(33.125 48.63) rotate(180)" fill="#c27447"/><rect width="3.024" height="8.822" transform="translate(26.293 48.63) rotate(180)" fill="#4b2117"/><rect width="3.024" height="8.822" transform="translate(14.066 48.63) rotate(180)" fill="#4b2117"/><rect width="1.227" height="8.822" transform="translate(23.268 48.63) rotate(180)" fill="#c27447"/><rect width="1.227" height="8.822" transform="translate(11.041 48.63) rotate(180)" fill="#c27447"/></g><g transform="translate(2495.27 1283.511)"><path d="M2650.286,1329.244H2643.9c.111.712.177,1.14.181,1.169a5.462,5.462,0,0,0,.441,2.036h8.526a3.15,3.15,0,0,1,2.192,1.146,4.634,4.634,0,0,0,3.5,1.556,4.96,4.96,0,0,0-.006-1.906c-.05-.444-.165-1.073-.334-1.854h-3.428A7.929,7.929,0,0,0,2650.286,1329.244Z" transform="translate(-2643.902 -1329.244)" fill="#1a1a1a"/></g><g transform="translate(2494.787 1280.357)"><path d="M2642.824,1322.2c.143.927.268,1.746.371,2.415a6.275,6.275,0,0,1,1.819,3.943h1.645A7.557,7.557,0,0,0,2642.824,1322.2Z" transform="translate(-2642.824 -1322.205)"/></g><g transform="translate(2492.031 1250.526)"><path d="M2637.14,1318.288h20.935c.026,0,.052.008.078.008l0-18.012a22.753,22.753,0,0,0-.166-5.384c-.3-2.39-8.037-31.356-8.919-34.55a6.938,6.938,0,0,0-5.842-4.731h-6.558v4.68h8.533c2.238,0,3.061,2.967,3.332,3.942.338,1.214,3.82,14.549,6.066,23.178a47.09,47.09,0,0,1,1.105,5.073c.224,1.9-.019,2.455-.256,2.721a.761.761,0,0,1-.576.262,5.6,5.6,0,0,1-4.289-1.819c-.6-.563-.961-.88-1.528-.88h-8.607c-.929,0-1.23-1.574-1.32-2.9-.018-.115-1.356-8.813-2.461-16.063v17.7c.29,2.15.469,3.479.469,3.479Z" transform="translate(-2636.671 -1255.619)" fill="#999"/></g><g transform="translate(2505.519 1318.014)"><path d="M2666.779,1406.258c.582,1.292,1.068,2.718,1.529,3.909a42.372,42.372,0,0,1,2.154,11.372c-.058.942.264,4-.872,6.081,1.119-.014,2.291-.022,3.421-.022,4.508,0,5.382-21.34,5.382-21.34Z" transform="translate(-2666.779 -1406.258)" fill="#1a1a1a"/></g><path d="M2638.453,1396.212a8.07,8.07,0,0,1,3.455.645c1.121.493,1.977,1.878,2.688,3.465h11.614s-1.384-4.818-3.7-4.818h-25.088a.782.782,0,0,0-.831.711C2630.875,1396.209,2635.38,1396.206,2638.453,1396.212Z" transform="translate(-139.077 -82.307)" fill="#262626"/><path d="M2681.87,1363.643h1v4.348h-1.424v-3.149S2681.482,1363.643,2681.87,1363.643Z" transform="translate(-169.358 -64.721)" fill="#e85400"/><rect width="1.424" height="9.922" transform="translate(2512.093 1303.273)" fill="#c9c9c9"/><path d="M2636.218,1335.754v9.425h-.239a.55.55,0,0,1,.548.547v.843a.548.548,0,0,1-.548.549l-.129,0v15.411h.837v-23.3S2636.508,1337.9,2636.218,1335.754Z" transform="translate(-144.187 -49.327)" fill="#d4d5d5"/><path d="M2657.488,1426.358c0,8.632-2.345,15.63-5.239,15.63s-5.242-7-5.242-15.63,2.346-15.63,5.242-15.63S2657.488,1417.727,2657.488,1426.358Z" transform="translate(-150.345 -90.712)" fill="#474645"/><path d="M2526.32,1416.471a42.379,42.379,0,0,0-2.154-11.372c-1.029-2.654-2.179-6.48-4.217-7.374a8.071,8.071,0,0,0-3.455-.645c-2.084,0-4.829,0-7.713,0v1.007h.178a.549.549,0,0,1,.55.549v1.022a.549.549,0,0,1-.55.547h-31.581a.579.579,0,0,0,.164-.033h-71.893v13.786h3.017a44.351,44.351,0,0,0-.261,4.867c0,8.632,2.347,15.63,5.241,15.63,2.79,0,5.069-6.5,5.23-14.7h25.132c.161,8.2,2.441,14.7,5.231,14.7,2.585,0,4.734-5.588,5.16-12.933h16.914c.43,7.344,2.575,12.933,5.159,12.933h6.923a1.832,1.832,0,0,1-.442-.059c-.018-.006-.037-.009-.055-.014a2.451,2.451,0,0,1-.411-.163c-.023-.015-.047-.025-.07-.039a2.885,2.885,0,0,1-.394-.271c-.022-.017-.041-.034-.062-.051a4.167,4.167,0,0,1-.394-.381l-.029-.035a6.031,6.031,0,0,1-.4-.5l0-.008c-.129-.184-.254-.385-.377-.6-.01-.019-.023-.038-.033-.059-.12-.211-.237-.435-.349-.671-.013-.026-.025-.052-.036-.08-.114-.24-.225-.5-.33-.763l-.021-.052a22.034,22.034,0,0,1-.89-2.918l-.005-.027c-.085-.358-.163-.729-.237-1.11,0-.009,0-.018-.007-.03a38.724,38.724,0,0,1-.618-5.092s0-.006,0-.009c-.052-.876-.08-1.777-.08-2.7,0-8.631,2.348-15.63,5.241-15.63s5.241,7,5.241,15.63c0,1.3-.054,2.552-.153,3.757a.148.148,0,0,1,0,.02h18.532c.566,6.806,2.628,11.853,5.086,11.853h6.921a1.819,1.819,0,0,1-.414-.052.634.634,0,0,1-.068-.017,1.99,1.99,0,0,1-.387-.151.71.71,0,0,1-.074-.034,2.864,2.864,0,0,1-.384-.252.25.25,0,0,1-.029-.023,4.108,4.108,0,0,1-.364-.334c-.015-.016-.032-.031-.049-.049a5.062,5.062,0,0,1-.355-.427c-.021-.026-.041-.054-.061-.081-.118-.162-.234-.331-.345-.516-.012-.019-.022-.039-.035-.057-.114-.192-.223-.393-.333-.607-.005-.008-.009-.019-.014-.026-.109-.219-.217-.452-.32-.694-.015-.032-.027-.064-.04-.095-.1-.243-.2-.5-.3-.76a.756.756,0,0,1-.026-.075q-.3-.832-.547-1.794c-.006-.023-.013-.045-.019-.068-.083-.319-.161-.648-.233-.984-.006-.024-.011-.047-.016-.073-.151-.7-.286-1.438-.4-2.211,0,0,0,0,0-.01-.057-.383-.107-.774-.152-1.172,0-.024-.005-.046-.008-.068a45.005,45.005,0,0,1-.275-5c0-8.631,2.347-15.63,5.242-15.63s5.239,7,5.239,15.63c0,1.3-.054,2.567-.153,3.777h1.317C2526.588,1420.512,2526.263,1417.419,2526.32,1416.471Z" transform="translate(-17.118 -83.176)" fill="#1a1311"/><path d="M2658.839,1433.515c0,5.423-1.336,9.82-2.986,9.82s-2.986-4.4-2.986-9.82,1.337-9.821,2.986-9.821S2658.839,1428.093,2658.839,1433.515Z" transform="translate(-153.58 -97.869)" fill="#ebebeb"/><g transform="translate(2384.367 1320.016)"><path d="M2409.129,1411.364a2.143,2.143,0,0,1,1.756.92,2.966,2.966,0,0,1,2.28-1.556h-4.819c-.083.187-.163.375-.241.57h-3.26c-.024.018-.044.045-.068.065Z" transform="translate(-2401.003 -1410.728)" fill="#302d2c"/><path d="M2403.274,1440.16c0-1.538.075-3.024.215-4.428h-6.917c-.139,1.405-.218,2.889-.218,4.428,0,8.632,2.345,15.63,5.241,15.63h6.92C2405.621,1455.79,2403.274,1448.792,2403.274,1440.16Z" transform="translate(-2396.355 -1424.53)" fill="#302d2c"/></g><path d="M2577.968,1426.358c0,8.632-2.346,15.63-5.24,15.63s-5.241-7-5.241-15.63,2.348-15.63,5.241-15.63S2577.968,1417.727,2577.968,1426.358Z" transform="translate(-106.451 -90.712)" fill="#474645"/><path d="M2579.321,1433.515c0,5.423-1.337,9.82-2.985,9.82s-2.986-4.4-2.986-9.82,1.337-9.821,2.986-9.821S2579.321,1428.093,2579.321,1433.515Z" transform="translate(-109.688 -97.869)" fill="#ebebeb"/><g transform="translate(2459.12 1317.02)"><path d="M2572.143,1404.04h-8.932c1.239,0,2.234,1.285,3,3h4.152c2.141,0,3.98,3.831,4.793,9.315h1.187s.642.021.642-.973C2576.989,1413.655,2575.241,1404.04,2572.143,1404.04Z" transform="translate(-2563.211 -1404.04)" fill="#302d2c"/></g><g transform="translate(2389.403 1317.02)"><path d="M2416.526,1404.04h-8.93c1.237,0,2.232,1.286,3,3h4.125c2.141,0,3.981,3.831,4.794,9.315h1.216s.642.021.642-.973C2421.372,1413.655,2419.624,1404.04,2416.526,1404.04Z" transform="translate(-2407.595 -1404.04)" fill="#302d2c"/></g><path d="M2577.968,1426.358c0,8.632-2.346,15.63-5.24,15.63s-5.241-7-5.241-15.63,2.348-15.63,5.241-15.63S2577.968,1417.727,2577.968,1426.358Z" transform="translate(-106.451 -90.712)" fill="#474645"/><path d="M2579.321,1433.515c0,5.423-1.337,9.82-2.985,9.82s-2.986-4.4-2.986-9.82,1.337-9.821,2.986-9.821S2579.321,1428.093,2579.321,1433.515Z" transform="translate(-109.688 -97.869)" fill="#ebebeb"/><path d="M2659.323,1441.983c0,1.627-.4,2.946-.9,2.946s-.894-1.319-.894-2.946.4-2.947.894-2.947S2659.323,1440.356,2659.323,1441.983Z" transform="translate(-156.156 -106.337)" fill="#474645"/><path d="M2579.8,1441.983c0,1.627-.4,2.946-.894,2.946s-.9-1.319-.9-2.946.4-2.947.9-2.947S2579.8,1440.356,2579.8,1441.983Z" transform="translate(-112.261 -106.337)" fill="#474645"/><path d="M2656.191,1443.716c-1.762,0-2.712-4.214-2.712-8.177s.95-8.179,2.712-8.179,2.711,4.216,2.711,8.179S2657.952,1443.716,2656.191,1443.716Zm0-15.712c-.976,0-2.066,3.222-2.066,7.535s1.09,7.535,2.066,7.535,2.068-3.223,2.068-7.535S2657.166,1428,2656.191,1428Z" transform="translate(-153.918 -99.892)" fill="#1a1311"/><path d="M2576.673,1443.716c-1.762,0-2.712-4.214-2.712-8.177s.949-8.179,2.712-8.179,2.71,4.216,2.71,8.179S2578.433,1443.716,2576.673,1443.716Zm0-15.712c-.865,0-2.069,2.867-2.069,7.535s1.2,7.535,2.069,7.535,2.067-2.866,2.067-7.535S2577.535,1428,2576.673,1428Z" transform="translate(-110.025 -99.892)" fill="#1a1311"/><path d="M2645.162,1354.624a.547.547,0,0,0,.545.547h2.558a.547.547,0,0,0,.545-.547v-1.642a.546.546,0,0,0-.545-.547h-2.558a.546.546,0,0,0-.545.547Z" transform="translate(-149.327 -58.534)" fill="#262626"/><g transform="translate(2452.402 1317.02)"><g transform="translate(0 3.567)"><path d="M2548.24,1412c-.008.02-.016.044-.025.065h.466a2.148,2.148,0,0,1,2.145,2.146v6.274a1.953,1.953,0,0,1-.026.259h3.446a.964.964,0,0,0,1.014-.973A28.2,28.2,0,0,1,2557,1412Z" transform="translate(-2548.215 -1412.001)" fill="#b3b3b3"/></g><path d="M2560.273,1404.04h-8.93c-1.254,0-2.287,1.575-3.073,3.567h8.76C2557.827,1405.615,2558.9,1404.04,2560.273,1404.04Z" transform="translate(-2548.246 -1404.04)" fill="#5f5e5e"/></g><g transform="translate(2382.708 1317.02)"><path d="M2404.656,1404.04h-8.932c-1.253,0-2.287,1.575-3.073,3.567h8.76C2402.207,1405.615,2403.282,1404.04,2404.656,1404.04Z" transform="translate(-2392.651 -1404.04)" fill="#5f5e5e"/></g><g transform="translate(2393.607 1320.974)"><path d="M2464.439,1412.866H2416.98a2.141,2.141,0,0,1,1.032,1.824v6.274a2.142,2.142,0,0,1-1.032,1.825h47.459a2.143,2.143,0,0,1-1.032-1.825v-6.274A2.142,2.142,0,0,1,2464.439,1412.866Z" transform="translate(-2416.98 -1412.866)" fill="#474645"/></g><path d="M2465.42,1422.686a.547.547,0,0,1-.548.547H2435.9a.546.546,0,0,1-.545-.547V1415.7a.548.548,0,0,1,.545-.549h28.969a.549.549,0,0,1,.548.549Z" transform="translate(-33.517 -93.156)" fill="#d9d9d9"/><path d="M2566.2,1358.182a.549.549,0,0,1-.549.549h31.58a.548.548,0,0,0,.548-.549v-.843a.55.55,0,0,0-.548-.547h-31.58a.55.55,0,0,1,.549.547Z" transform="translate(-105.436 -60.939)" fill="#b2b2b3"/><path d="M2566.306,1400.9a.549.549,0,0,1-.55.547h31.581a.549.549,0,0,0,.55-.547v-1.022a.549.549,0,0,0-.55-.549h-31.581a.55.55,0,0,1,.55.549Z" transform="translate(-105.496 -84.418)" fill="#8e8e8f"/><rect width="31.721" height="17.121" transform="translate(2459.942 1297.796)" fill="#a6a7a7"/><rect width="12.213" height="11.587" transform="translate(2476.653 1322.411)" fill="#bdbebf"/><rect width="31.721" height="2.328" transform="translate(2459.942 1297.796)" fill="#8e8e8f"/><path d="M2374.638,1400.9a.548.548,0,0,0,.548.547h85.074a.547.547,0,0,0,.547-.547v-1.022a.548.548,0,0,0-.547-.549h-85.074a.549.549,0,0,0-.548.549Z" transform="translate(0 -84.418)" fill="#bdbebf"/><path d="M2374.987,1358.182a.537.537,0,0,0,.527.549h84.91a.537.537,0,0,0,.526-.549v-.843a.538.538,0,0,0-.526-.547h-84.91a.538.538,0,0,0-.527.547Z" transform="translate(-0.193 -60.939)" fill="#e0e0e0"/><rect width="84.212" height="17.121" transform="translate(2375.73 1297.796)" fill="#e0e0e0"/><rect width="84.212" height="2.328" transform="translate(2375.73 1297.796)" fill="#bdbebf"/><path d="M2654.749,1299.563a43.543,43.543,0,0,0-1.081-4.942c-2.245-8.626-5.726-21.953-6.063-23.161-.6-2.177-1.389-3.235-2.4-3.235h-8.533v6.094c1.036,6.925,3.393,22.226,3.421,22.412a5.453,5.453,0,0,0,.441,2.036h8.526a3.15,3.15,0,0,1,2.192,1.146,4.634,4.634,0,0,0,3.5,1.556A4.948,4.948,0,0,0,2654.749,1299.563Z" transform="translate(-144.64 -12.051)" fill="#fff" opacity="0.2"/><path d="M2655.708,1298.258a47.1,47.1,0,0,0-1.105-5.073c-2.247-8.629-5.729-21.964-6.066-23.178-.27-.975-1.094-3.942-3.332-3.942h-8.533v.967h8.533c1.011,0,1.8,1.057,2.4,3.235.337,1.208,3.818,14.535,6.063,23.161a43.555,43.555,0,0,1,1.081,4.942,4.949,4.949,0,0,1,.005,1.906,4.634,4.634,0,0,1-3.5-1.556,3.15,3.15,0,0,0-2.192-1.146h-8.526a5.452,5.452,0,0,1-.441-2.036c-.028-.187-2.385-15.487-3.421-22.413v6.456c1.105,7.25,2.443,15.948,2.461,16.063.09,1.322.392,2.9,1.32,2.9h8.607c.566,0,.93.318,1.528.88a5.6,5.6,0,0,0,4.289,1.819.762.762,0,0,0,.576-.263C2655.689,1300.713,2655.932,1300.162,2655.708,1298.258Z" transform="translate(-144.64 -10.859)" fill="#1a1311"/><g transform="translate(2379.669 1320.652)"><path d="M2407.143,1415.088a1.506,1.506,0,0,0-1.5-1.5h-7.185v9.278h7.185a1.506,1.506,0,0,0,1.5-1.5Z" transform="translate(-2392.816 -1412.942)" fill="#e12f15"/><g transform="translate(0)"><path d="M2387.306,1421.439a1.494,1.494,0,0,0,1.495,1.425h2.856v-9.278H2388.8a1.5,1.5,0,0,0-1.5,1.438Z" transform="translate(-2386.662 -1412.942)" fill="#f38200"/><path d="M2398.692,1412.147h-10.684a2.142,2.142,0,0,0-2.139,2.071v6.441a2.14,2.14,0,0,0,2.139,2.055h10.684a2.15,2.15,0,0,0,2.147-2.146v-6.274A2.149,2.149,0,0,0,2398.692,1412.147Zm-7.828,9.923h-2.856a1.494,1.494,0,0,1-1.494-1.425v-6.415a1.5,1.5,0,0,1,1.5-1.438h2.856Zm9.332-1.5a1.506,1.506,0,0,1-1.5,1.5h-7.185v-9.278h7.185a1.506,1.506,0,0,1,1.5,1.5Z" transform="translate(-2385.869 -1412.147)"/></g></g><g transform="translate(2440.034 1320.652)"><path d="M2522.047,1421.362a1.507,1.507,0,0,0,1.506,1.5h7.2v-9.278h-7.2a1.506,1.506,0,0,0-1.506,1.5Z" transform="translate(-2521.403 -1412.942)" fill="#e12f15"/><path d="M2547.262,1415.088a1.5,1.5,0,0,0-1.5-1.5h-2.836v9.278h2.836a1.505,1.505,0,0,0,1.5-1.5Z" transform="translate(-2532.927 -1412.942)" fill="#f38200"/><path d="M2533.442,1412.147h-10.684a2.15,2.15,0,0,0-2.15,2.146v6.274a2.151,2.151,0,0,0,2.15,2.146h10.684a2.148,2.148,0,0,0,2.145-2.146v-6.274A2.148,2.148,0,0,0,2533.442,1412.147Zm-3.479,9.923h-7.2a1.507,1.507,0,0,1-1.505-1.5v-6.274a1.506,1.506,0,0,1,1.505-1.5h7.2Zm4.981-1.5a1.505,1.505,0,0,1-1.5,1.5h-2.836v-9.278h2.836a1.5,1.5,0,0,1,1.5,1.5Z" transform="translate(-2520.609 -1412.147)"/></g><path d="M2680.976,1326.541a2.191,2.191,0,0,0,2.192,2.188h4.844a2.189,2.189,0,0,0,2.188-2.188v-8.5a2.189,2.189,0,0,0-2.188-2.189h-4.844a2.191,2.191,0,0,0-2.192,2.189Z" transform="translate(-169.097 -38.343)"/><path d="M2.851,0h.28A2.852,2.852,0,0,1,5.982,2.852V8.2A2.853,2.853,0,0,1,3.13,11.05H2.852A2.852,2.852,0,0,1,0,8.2V2.851A2.851,2.851,0,0,1,2.851,0Z" transform="translate(2513.404 1278.425)" fill="#ebebeb"/></g></svg>