<svg xmlns="http://www.w3.org/2000/svg" width="251" height="142" viewBox="0 0 251 142"><g transform="translate(-827.205 -1055.314)"><rect width="251" height="142" transform="translate(827.205 1055.314)" fill="#fff" opacity="0"/><path d="M1097.95,1457.84c0,.559-47.351,1.012-105.763,1.012s-105.76-.453-105.76-1.012,47.352-1.013,105.76-1.013S1097.95,1457.28,1097.95,1457.84Z" transform="translate(-38.633 -261.923)" fill="#8e8e8f"/><g transform="translate(972.644 1167.146)"><path d="M1277.069,1391.1c0,7.793-2.118,14.11-4.731,14.11s-4.733-6.317-4.733-14.11,2.118-14.111,4.733-14.111S1277.069,1383.3,1277.069,1391.1Z" transform="translate(-1259.934 -1376.985)" fill="#070203"/><path d="M1250.274,1376.985c-2.614,0-4.735,6.318-4.735,14.111s2.121,14.11,4.735,14.11h7.67c-2.615,0-4.733-6.317-4.733-14.11s2.118-14.111,4.733-14.111Z" transform="translate(-1245.539 -1376.985)" fill="#2f2c2b"/></g><g transform="translate(828.828 1061.259)"><path d="M833.124,1173.053h.394v-100.43h-.394v-.209h-1.251v101.293h1.251Z" transform="translate(-831.874 -1072.414)" fill="#2b2726"/></g><path d="M1444.669,1240.792h-29.474V1208.7h23.921Z" transform="translate(-383.568 -100.06)" fill="#fff" opacity="0.4"/><g transform="translate(1048.183 1135.874)"><g transform="translate(14.065 1.752)"><path d="M1503.332,1292.389a2.854,2.854,0,0,0,2.083,2.394,3.466,3.466,0,0,0-2.139-2.709C1503.3,1292.216,1503.321,1292.326,1503.332,1292.389Z" transform="translate(-1503.276 -1292.073)"/></g><path d="M1464.058,1288.22c.187.5,1.519,2.6,2.4,3.986.684,1.075,1.075,1.693,1.167,1.888a3.443,3.443,0,0,0,1.475,1.437,47.107,47.107,0,0,0,4.892.858.339.339,0,0,0,.271-.056.587.587,0,0,0,.075-.4c-.015-.157-.291-1.856-1.195-7.23h-.057a6.165,6.165,0,0,0-3.648-1.669h-6.619A1.938,1.938,0,0,1,1464.058,1288.22Z" transform="translate(-1462.819 -1287.034)"/></g><g transform="translate(1036.051 1112.831)"><path d="M1428.611,1225.26a.863.863,0,0,0,.864-.862v-2.779a.863.863,0,0,0-.864-.863h-.69c.017,1.333.048,2.864.09,4.5Z" transform="translate(-1427.921 -1220.755)"/></g><g transform="translate(1036.715 1130.851)"><path d="M1444.334,1280.195c.687-4.2-2.685-7.608-7.516-7.608a10.958,10.958,0,0,0-6.985,2.574c.017.376.035.743.051,1.091a1.219,1.219,0,0,0,.175.574,8.961,8.961,0,0,1,6.537-2.888c3.657,0,6.29,2.379,6.247,5.448.29.512.739,1.241,1.2,1.973A7.224,7.224,0,0,0,1444.334,1280.195Z" transform="translate(-1429.832 -1272.587)"/></g><path d="M1414.75,1251.395s.206-15.841,0-24.892-.676-28.989-.7-30.8,1.85-4.867,7.025-4.867h2.654l.178-.08h-11.813V1251.4h3.673v-.005Z" transform="translate(-381.545 -88.354)" fill="#d4d5d5"/><path d="M1096.7,1378.353h-.013l-3.394-13.043-.943-.05H1064.7c-2.133,0-2.668-3.042-2.67-3.049h-5.215v.237h.469v2.931h-167.4l-.2,14.648h3.056v7.756h42.949v-.964h47.553v.964h57.525v-.964h34.611l22.823-6.175A8.551,8.551,0,0,1,1096.7,1378.353Z" transform="translate(-40.757 -200.201)" fill="#1a1311"/><path d="M1116.424,1373.708c-1.862,0-1.5.067-.248.067-1.361,0-2.678,1.565-3.467,3.539h-.025a28.081,28.081,0,0,0-1.7,7.649.958.958,0,0,1-1.008.966H1120.6s.636.02.636-.966C1121.234,1383.252,1119.5,1373.708,1116.424,1373.708Z" transform="translate(-184.461 -207.701)" fill="#302d2c"/><g transform="translate(907.104 1189.511)"><path d="M1082.354,1441.313h-3.269c.844,3.858,2.3,6.409,3.965,6.409a2.262,2.262,0,0,0,1.635-.873A12.628,12.628,0,0,1,1082.354,1441.313Z" transform="translate(-1071.414 -1441.313)" fill="#302d2c"/><g transform="translate(0 0)"><path d="M1064.692,1441.313h-7.67c.845,3.858,2.306,6.409,3.966,6.409h7.669C1067,1447.722,1065.537,1445.171,1064.692,1441.313Z" transform="translate(-1057.022 -1441.313)" fill="#1a1311"/></g></g><g transform="translate(918.043 1167.698)"><path d="M1113.549,1378.571a1.65,1.65,0,0,0-.441.063,9.072,9.072,0,0,0-.99,1.852h-.025a28.083,28.083,0,0,0-1.7,7.649.913.913,0,0,1-.239.665l-1.084,8.431c.635,5.561,2.4,9.562,4.48,9.562,2.613,0,4.732-6.317,4.732-14.11S1116.162,1378.571,1113.549,1378.571Z" transform="translate(-1101.914 -1378.571)" fill="#474645"/><g transform="translate(0 18.66)"><path d="M1095.643,1432.243l-.405,3.153h-6.75c.846,3.858,2.306,6.409,3.966,6.409h7.669C1098.042,1441.805,1096.278,1437.8,1095.643,1432.243Z" transform="translate(-1088.488 -1432.243)" fill="#1a1311"/></g><path d="M1120.551,1402.521c0,4.9-1.206,8.866-2.7,8.866s-2.7-3.969-2.7-8.866,1.208-8.868,2.7-8.868S1120.551,1397.624,1120.551,1402.521Z" transform="translate(-1105.886 -1388.41)" fill="#ebebeb"/><path d="M1118.4,1412.722c-1.564,0-2.408-3.783-2.408-7.343s.844-7.345,2.408-7.345,2.408,3.784,2.408,7.345S1119.961,1412.722,1118.4,1412.722Zm0-14.187c-.9,0-1.908,2.811-1.908,6.844s1.005,6.843,1.908,6.843,1.907-2.81,1.907-6.843S1119.3,1398.535,1118.4,1398.535Z" transform="translate(-1106.428 -1391.268)" fill="#1a1311"/><path d="M1122.3,1414.855c0,1.268-.313,2.295-.7,2.295s-.7-1.027-.7-2.295.314-2.295.7-2.295S1122.3,1413.588,1122.3,1414.855Z" transform="translate(-1109.634 -1400.743)" fill="#1a1311"/></g><g transform="translate(858.39 1189.511)"><path d="M942.311,1441.313h-3.343c.844,3.858,2.3,6.409,3.965,6.409a2.293,2.293,0,0,0,1.673-.912A12.782,12.782,0,0,1,942.311,1441.313Z" transform="translate(-931.297 -1441.313)" fill="#1a1311"/><path d="M924.575,1441.313H916.9c.845,3.858,2.306,6.409,3.966,6.409h7.67C926.879,1447.722,925.419,1445.171,924.575,1441.313Z" transform="translate(-916.904 -1441.313)" fill="#302d2c"/></g><g transform="translate(869.404 1181.257)"><path d="M973.759,1423.834v-6.261h-5.314c0,.183,0,.367,0,.552,0,7.793,2.117,14.11,4.733,14.11,1.931,0,3.592-3.454,4.327-8.4Z" transform="translate(-961.537 -1417.573)" fill="#1a1311"/><path d="M955.487,1418.125c0-.185,0-.369,0-.552h-1.956l-1.061,8.254h-3.891c.846,3.858,2.306,6.409,3.966,6.409h7.669C957.6,1432.235,955.487,1425.918,955.487,1418.125Z" transform="translate(-948.584 -1417.573)" fill="#302d2c"/></g><g transform="translate(910.789 1166.073)"><path d="M1067.624,1383.888v8h6.2v.679h8.238a.958.958,0,0,0,1.008-.965,28.043,28.043,0,0,1,1.727-7.715Z" transform="translate(-1067.624 -1380.415)" fill="#302d2c"/><path d="M1067.624,1373.912v3.527h17.168c.789-1.974,2.107-3.539,3.468-3.539C1086.346,1373.9,1067.624,1373.912,1067.624,1373.912Z" transform="translate(-1067.624 -1373.899)" fill="#1a1311"/></g><path d="M935.488,1385.679v-.282h-6.195v-4.641h.219a1.665,1.665,0,0,0,1.663-1.608V1376.5a1.664,1.664,0,0,0-1.663-1.6h-.219v-.964H871.978v.964H856.788a1.665,1.665,0,0,0-1.663,1.608v2.65a1.663,1.663,0,0,0,1.663,1.6h15.189v4.641h-7.466a.425.425,0,0,0-.466.364v3.005c0,.292.675.341.424.341h8.045l-1.061,8.253h20.055l1.061-8.253h31.443l-1.061,8.253h20.055l1.5-11.681Z" transform="translate(-18.213 -207.849)"/><g transform="translate(1035.475 1167.698)"><path d="M1457.8,1392.683c0,7.793-2.118,14.11-4.73,14.11s-4.733-6.317-4.733-14.11,2.118-14.112,4.733-14.112S1457.8,1384.89,1457.8,1392.683Z" transform="translate(-1440.661 -1378.571)" fill="#474645"/><path d="M1431,1378.571c-2.614,0-4.735,6.318-4.735,14.112s2.121,14.11,4.735,14.11h7.669c-2.615,0-4.733-6.317-4.733-14.11s2.118-14.112,4.733-14.112Z" transform="translate(-1426.266 -1378.571)" fill="#1a1311"/><path d="M1460.539,1402.521c0,4.9-1.206,8.866-2.7,8.866s-2.7-3.969-2.7-8.866,1.208-8.868,2.7-8.868S1460.539,1397.624,1460.539,1402.521Z" transform="translate(-1445.106 -1388.41)" fill="#ebebeb"/><path d="M1458.386,1412.722c-1.565,0-2.408-3.783-2.408-7.343s.843-7.345,2.408-7.345,2.408,3.784,2.408,7.345S1459.95,1412.722,1458.386,1412.722Zm0-14.187c-.9,0-1.907,2.811-1.907,6.844s1.005,6.843,1.907,6.843,1.907-2.81,1.907-6.843S1459.288,1398.535,1458.386,1398.535Z" transform="translate(-1445.648 -1391.268)" fill="#1a1311"/><path d="M1462.291,1414.855c0,1.268-.313,2.295-.7,2.295s-.7-1.027-.7-2.295.313-2.295.7-2.295S1462.291,1413.588,1462.291,1414.855Z" transform="translate(-1448.855 -1400.743)" fill="#1a1311"/></g><path d="M1515.155,1258.467h-4.779a2.161,2.161,0,0,0-2.161,2.161v9.518a2.151,2.151,0,0,0,.308,1.108h-5.731a.425.425,0,1,0,0,.851h6.677a2.15,2.15,0,0,0,.907.2h4.779a2.16,2.16,0,0,0,2.16-2.161v-9.518A2.161,2.161,0,0,0,1515.155,1258.467Z" transform="translate(-440.434 -132.525)"/><path d="M3.187,0h0A3.186,3.186,0,0,1,6.373,3.186v6.05a3.185,3.185,0,0,1-3.185,3.185h0A3.188,3.188,0,0,1,0,9.233V3.187A3.187,3.187,0,0,1,3.187,0Z" transform="translate(1068.779 1126.652)" fill="#fff"/><rect width="105.252" height="109.914" transform="translate(830.473 1055.314)" fill="#d4d5d5"/><rect width="102.007" height="100.43" transform="translate(833.719 1061.468)" fill="#5f5e5e"/><rect width="3.245" height="100.43" transform="translate(830.473 1061.468)" fill="#d4d5d5"/><rect width="1.623" height="101.293" transform="translate(827.205 1061.259)" fill="#d4d5d5"/><rect width="101.757" height="3.052" transform="translate(833.968 1162.176)" fill="#bdbebf"/><rect width="105.647" height="6.154" transform="translate(830.079 1055.314)" fill="#bdbebf"/><rect width="5.966" height="2.547" transform="translate(833.231 1058.033)" fill="#f38200"/><rect width="0.896" height="2.547" transform="translate(839.198 1058.033)" fill="#e85400"/><rect width="5.966" height="2.547" transform="translate(924.821 1058.033)" fill="#f38200"/><rect width="0.896" height="2.547" transform="translate(930.787 1058.033)" fill="#e85400"/><path d="M1424.022,1365.216h-22.859s.323,2.918,1.614,2.918h23.667C1426.437,1368.112,1425.561,1365.359,1424.022,1365.216Z" transform="translate(-374.415 -202.161)" fill="#302d2c"/><rect width="95.113" height="3.052" transform="translate(935.726 1162.176)" fill="#767676"/><path d="M1142.375,1061.468H1139.4v-6.154h95.087v6.154h-92.115Z" transform="translate(-203.659 0)" fill="#6c6c6c"/><path d="M1490.335,1409.489h-8.928s.978,3.881,3.1,3.881h6.5V1413A14.88,14.88,0,0,1,1490.335,1409.489Z" transform="translate(-426.761 -231.042)" fill="#302d2c"/><path d="M1448.533,1263.219a41,41,0,0,1,.683-4.54h2.2l-.434-27.916-.256-1.158a.362.362,0,0,1-.088.017h-.7a3.5,3.5,0,0,1-3.155-3.053c-.14-.83-1.632-9-2.948-16.2-1.083-5.927-2.105-11.526-2.187-12.01a2.061,2.061,0,0,1,.474-1.671,2.444,2.444,0,0,1,1.878-.842h.056c-1.944-3.521-6.982-4.857-8.6-4.857h-10.712c-5.175,0-7.049,3.056-7.025,4.867s.5,21.749.7,30.8,0,24.893,0,24.893H1434.7c1.623,0,2.545,2.933,2.545,2.933l2.622,12.523h8.927C1448.662,1265.791,1448.57,1264.449,1448.533,1263.219Zm-3.143-29.027a.992.992,0,0,1-.752.295c-.04,0-.081,0-.125-.005a46.126,46.126,0,0,1-5.091-.9,4.169,4.169,0,0,1-1.9-1.822c-.076-.162-.607-1-1.12-1.806a42.418,42.418,0,0,1-2.471-4.127,1.315,1.315,0,0,0-1.272-.822h-9.437a2.1,2.1,0,0,1-1.994-1.949c-.323-6.736-.768-19.306-.728-24.412.016-1.989.926-2.388,2.39-2.388h14.016a3.2,3.2,0,0,1,2.938,2.448l.3,1.774c3.693,21.7,5.5,32.416,5.519,32.754A1.239,1.239,0,0,1,1445.39,1234.192Z" transform="translate(-385.215 -88.504)" fill="#a6a7a7"/><path d="M1428.609,1234.317a1.341,1.341,0,0,0,1.244,1.234h9.437a2.047,2.047,0,0,1,1.976,1.31c.187.5,1.519,2.6,2.4,3.986.684,1.075,1.075,1.693,1.167,1.888a3.443,3.443,0,0,0,1.475,1.437,47.107,47.107,0,0,0,4.892.858.339.339,0,0,0,.271-.056.586.586,0,0,0,.075-.4c-.029-.3-1.007-6.219-5.51-32.674l-.3-1.775a2.422,2.422,0,0,0-2.2-1.822H1429.52c-1.156,0-1.627.148-1.639,1.643C1427.841,1215.039,1428.286,1227.589,1428.609,1234.317Z" transform="translate(-391.843 -99.802)" fill="#fff" opacity="0.2"/><path d="M1449.856,1244.375h0c-.04,0-.081,0-.124,0a46.169,46.169,0,0,1-5.092-.9,4.17,4.17,0,0,1-1.9-1.822c-.076-.161-.607-1-1.12-1.806a42.406,42.406,0,0,1-2.471-4.127,1.315,1.315,0,0,0-1.272-.822h-9.437a2.1,2.1,0,0,1-1.994-1.949c-.323-6.736-.768-19.306-.728-24.412.016-1.989.926-2.388,2.39-2.388h14.016a3.2,3.2,0,0,1,2.938,2.448l.3,1.774c3.693,21.7,5.5,32.416,5.519,32.754a1.241,1.241,0,0,1-.277.961A.993.993,0,0,1,1449.856,1244.375Zm-21.745-37.48c-1.156,0-1.627.149-1.639,1.643-.04,5.092.405,17.642.728,24.37a1.341,1.341,0,0,0,1.244,1.234h9.437a2.046,2.046,0,0,1,1.976,1.31c.187.5,1.519,2.6,2.4,3.986.684,1.075,1.075,1.693,1.167,1.889a3.444,3.444,0,0,0,1.475,1.436,47.074,47.074,0,0,0,4.892.859.339.339,0,0,0,.271-.056.586.586,0,0,0,.075-.4c-.029-.3-1.008-6.219-5.51-32.673l-.3-1.775a2.421,2.421,0,0,0-2.2-1.822Z" transform="translate(-390.434 -98.392)" fill="#1a1311"/><path d="M1490.5,1206.9l-.257.006a1.7,1.7,0,0,0-1.305.576,1.3,1.3,0,0,0-.307,1.062c.081.479,1.1,6.075,2.185,12,1.317,7.209,2.81,15.379,2.951,16.214a2.739,2.739,0,0,0,2.414,2.427h.614l-.681-3.009s-4.917-26.6-5.5-28.844c-.05-.191-.083-.367-.118-.538Z" transform="translate(-431.463 -98.815)" fill="#fff" opacity="0.4"/><g transform="translate(1056.401 1107.334)"><path d="M1495.472,1238.728h-.7a3.5,3.5,0,0,1-3.155-3.053c-.14-.83-1.632-9-2.948-16.2-1.083-5.927-2.105-11.526-2.187-12.01a2.06,2.06,0,0,1,.474-1.671,2.444,2.444,0,0,1,1.878-.842l.166,0h.075l.016.751-.257.006a1.7,1.7,0,0,0-1.305.576,1.3,1.3,0,0,0-.307,1.061c.081.479,1.1,6.075,2.185,12,1.317,7.209,2.81,15.379,2.951,16.214a2.738,2.738,0,0,0,2.414,2.427h.7a.375.375,0,0,1,0,.751Z" transform="translate(-1486.455 -1204.942)"/></g><path d="M1509.3,1385.7h-2.267a41.034,41.034,0,0,0-.683,4.54c.1,3.386.615,7.617,1.255,7.617h.4c1.54,0,3.638-3.694,3.638-7.617C1511.641,1389.294,1509.3,1385.7,1509.3,1385.7Z" transform="translate(-443.031 -215.521)" fill="#333"/><path d="M1436.484,1314.626a.683.683,0,0,1-.671.694h-3.139a.683.683,0,0,1-.673-.694v-2.08a.683.683,0,0,1,.673-.693h3.139a.682.682,0,0,1,.671.693Z" transform="translate(-394.532 -167.351)"/><path d="M1505.38,1316.77h2.522l.1,6.469h-3.174v-4.684S1504.875,1316.77,1505.38,1316.77Z" transform="translate(-442.043 -170.558)" fill="#e85400"/><path d="M1508.007,1335.4l.24,14.761h-3.414V1335.4Z" transform="translate(-442.043 -182.708)" fill="#d4d5d5"/><rect width="74.343" height="9.011" transform="translate(947.955 1177.448)" fill="#bdbebf"/><path d="M1.225,0H22.158a1.223,1.223,0,0,1,1.223,1.223V5.056A1.225,1.225,0,0,1,22.156,6.28H1.226A1.226,1.226,0,0,1,0,5.055V1.225A1.225,1.225,0,0,1,1.225,0Z" transform="translate(863.187 1168.254)" fill="#d9d9d9"/><g transform="translate(837.156 1167.551)"><path d="M855.827,1381.4v2.518c0,.021.005.041.007.061v-2.64C855.832,1381.356,855.827,1381.375,855.827,1381.4Z" transform="translate(-855.827 -1380.227)" fill="#e33c0b" stroke="#000" stroke-miterlimit="10" stroke-width="1.44"/><rect width="9.243" height="4.856" transform="translate(4.851 0)" fill="#e12f15"/><path d="M856.565,1381.9a1.161,1.161,0,0,0,1.162,1.108h2.931v-4.856h-2.931a1.164,1.164,0,0,0-1.162,1.118Z" transform="translate(-856.308 -1378.148)" fill="#f38200"/><path d="M901.985,1379.317a1.17,1.17,0,0,0-1.168-1.169h-3.011V1383h3.011a1.17,1.17,0,0,0,1.168-1.169Z" transform="translate(-883.212 -1378.148)" fill="#f6f6f6"/></g><g transform="translate(893.944 1167.551)"><rect width="9.244" height="4.856" transform="translate(4.679 0)" fill="#e12f15"/><path d="M1064.752,1379.256a1.163,1.163,0,0,0-1.163-1.108h-2.931V1383h2.931a1.164,1.164,0,0,0,1.163-1.119Z" transform="translate(-1046.234 -1378.148)" fill="#f38200"/><path d="M1019.171,1381.835a1.17,1.17,0,0,0,1.168,1.169h3.01v-4.856h-3.01a1.17,1.17,0,0,0-1.168,1.169Z" transform="translate(-1019.171 -1378.148)" fill="#f6f6f6"/></g><g transform="translate(828.094 1071.297)"><rect width="3.647" height="8.444" transform="translate(0 0.303)" fill="#ebebeb"/><path d="M833.426,1102.159h-.016v8.444h-1.032v0c0-.164-.3-.3-.667-.3s-.668.133-.668.3v0h-1.282v.015l.538.474h3.716v-8.614Z" transform="translate(-829.763 -1101.856)" fill="#8e8e8f"/><path d="M833.449,1101.585c0-.164.3-.3.668-.3s.666.133.666.3v8.447c0-.164-.3-.3-.666-.3s-.668.133-.668.3Z" transform="translate(-832.168 -1101.288)" fill="#fff"/></g><rect width="95.176" height="100.707" transform="translate(935.744 1061.468)" fill="#535453"/><g transform="translate(926.67 1121.813)"><rect width="52.913" height="30.937" transform="translate(2.438 1.759)" fill="#868687"/><g transform="translate(2.905 2.168)"><rect width="51.979" height="14.881" fill="#f5f5f5"/><rect width="12.793" height="49.216" transform="translate(50.598 1.044) rotate(90)" fill="#e9e8e8"/><g transform="translate(23.437 5.261)"><ellipse cx="2.552" cy="2.179" rx="2.552" ry="2.179" fill="#bebebd"/><path d="M1190.328,1271.2a.123.123,0,0,1-.123-.086,1.6,1.6,0,0,1-.044-.374,2.037,2.037,0,0,1,2.174-1.857,2.468,2.468,0,0,1,1.059.235.1.1,0,0,1,.048.146.138.138,0,0,1-.171.041,2.184,2.184,0,0,0-.936-.208,1.8,1.8,0,0,0-1.922,1.641,1.409,1.409,0,0,0,.039.33.109.109,0,0,1-.1.127Z" transform="translate(-1189.782 -1268.564)" fill="#f5f5f5"/><path d="M1194.066,1270.814a1.889,1.889,0,0,1,.161.756,2.388,2.388,0,0,1-2.552,2.179,2.68,2.68,0,0,1-2.14-.993,2.566,2.566,0,0,0,2.391,1.423,2.388,2.388,0,0,0,2.552-2.179A1.948,1.948,0,0,0,1194.066,1270.814Z" transform="translate(-1189.374 -1269.821)" fill="#868687"/></g><g transform="translate(0 15.239)"><rect width="51.979" height="14.881" fill="#f5f5f5"/><rect width="12.793" height="49.216" transform="translate(50.598 1.044) rotate(90)" fill="#e9e8e8"/><g transform="translate(23.437 5.261)"><ellipse cx="2.552" cy="2.179" rx="2.552" ry="2.179" fill="#bebebd"/><path d="M1190.328,1315.035a.123.123,0,0,1-.123-.086,1.6,1.6,0,0,1-.044-.374,2.037,2.037,0,0,1,2.174-1.857,2.469,2.469,0,0,1,1.059.236.1.1,0,0,1,.048.146.138.138,0,0,1-.171.041,2.18,2.18,0,0,0-.936-.208,1.8,1.8,0,0,0-1.922,1.641,1.407,1.407,0,0,0,.039.33.11.11,0,0,1-.1.127Z" transform="translate(-1189.782 -1312.396)" fill="#f5f5f5"/><path d="M1194.066,1314.647a1.888,1.888,0,0,1,.161.756,2.388,2.388,0,0,1-2.552,2.18,2.68,2.68,0,0,1-2.14-.993,2.565,2.565,0,0,0,2.391,1.423,2.388,2.388,0,0,0,2.552-2.179A1.947,1.947,0,0,0,1194.066,1314.647Z" transform="translate(-1189.374 -1313.654)" fill="#868687"/></g></g></g><rect width="57.789" height="1.759" transform="translate(0 0)" fill="#f5f5f5"/><rect width="57.789" height="1.759" transform="translate(0 32.696)" fill="#f5f5f5"/><rect width="1.763" height="30.937" transform="translate(0.675 1.759)" fill="#e9e8e8"/><rect width="1.763" height="30.937" transform="translate(55.351 1.759)" fill="#e9e8e8"/><g transform="translate(0.675 34.455)"><rect width="5.048" height="1.312" fill="#868687"/><path d="M1120.979,1349.469v2.325a1.744,1.744,0,0,1-1.863,1.591h-1.63v-3.916Z" transform="translate(-1116.707 -1348.157)" fill="#bebebd"/></g><g transform="translate(52.065 34.455)"><rect width="5.048" height="1.312" fill="#868687"/><path d="M1268.786,1349.469v3.916h-1.629a1.744,1.744,0,0,1-1.864-1.591v-2.325Z" transform="translate(-1264.517 -1348.157)" fill="#bebebd"/></g><rect width="10.32" height="1.759" transform="translate(68.108 1.759) rotate(180)" fill="#bebebd"/><rect width="10.32" height="1.759" transform="translate(68.108 34.455) rotate(180)" fill="#bebebd"/><rect width="9.614" height="30.937" transform="translate(66.727 32.696) rotate(180)" fill="#868687"/><g transform="translate(10.289 34.455)"><rect width="5.048" height="1.312" fill="#868687"/><path d="M1148.634,1349.469v2.325a1.744,1.744,0,0,1-1.864,1.591h-1.629v-3.916Z" transform="translate(-1144.362 -1348.157)" fill="#bebebd"/></g><g transform="translate(61.679 34.455)"><rect width="5.048" height="1.312" fill="#868687"/><path d="M1296.44,1349.469v3.916h-1.63a1.744,1.744,0,0,1-1.863-1.591v-2.325Z" transform="translate(-1292.171 -1348.157)" fill="#bebebd"/></g><rect width="66.052" height="0.409" transform="translate(0.675 1.759)" fill="#5b5b5a" opacity="0.48" style="mix-blend-mode:multiply;isolation:isolate"/><rect width="3.493" height="0.408" transform="translate(1.454 35.767)" fill="#5b5b5a" style="mix-blend-mode:multiply;isolation:isolate"/><rect width="3.493" height="0.408" transform="translate(11.069 35.767)" fill="#5b5b5a" style="mix-blend-mode:multiply;isolation:isolate"/><rect width="3.493" height="0.408" transform="translate(52.841 35.767)" fill="#5b5b5a" style="mix-blend-mode:multiply;isolation:isolate"/><rect width="3.493" height="0.408" transform="translate(62.455 35.767)" fill="#5b5b5a" style="mix-blend-mode:multiply;isolation:isolate"/></g><g transform="translate(841.767 1084.367)"><rect width="49.192" height="74.3" transform="translate(69.115 77.406) rotate(180)" fill="#b56635"/><rect width="30.072" height="27.546" transform="translate(21.646 75.935) rotate(-90)" fill="#5e2e1d"/><rect width="18.201" height="12.125" transform="translate(49.192 63.81)" fill="#3b1a11"/><rect width="46.512" height="3.105" transform="translate(67.775 3.105) rotate(180)" fill="#5e2e1d"/><rect width="8.973" height="45.746" transform="translate(21.646 54.836) rotate(-90)" fill="#c78660"/><rect width="5.773" height="41.998" transform="translate(23.52 53.236) rotate(-90)" fill="#f6e6d7"/><rect width="19.923" height="74.3" transform="translate(0 3.105)" fill="#3b1a11"/><rect width="19.923" height="3.105" transform="translate(1.34)" fill="#3b1a11"/><rect width="8.973" height="45.746" transform="translate(21.646 63.81) rotate(-90)" fill="#c78660"/><rect width="5.773" height="41.998" transform="translate(23.52 62.21) rotate(-90)" fill="#f6e6d7"/><g transform="translate(42.665 57.703)"><ellipse cx="1.897" cy="1.62" rx="1.897" ry="1.62" transform="translate(0 0)" fill="#3b1a11"/><path d="M997.192,1308.533a.092.092,0,0,1,.092.064,1.211,1.211,0,0,1,.033.278,1.514,1.514,0,0,1-1.616,1.38,1.836,1.836,0,0,1-.787-.175.074.074,0,0,1-.036-.109.1.1,0,0,1,.127-.031,1.622,1.622,0,0,0,.7.154,1.338,1.338,0,0,0,1.429-1.22,1.064,1.064,0,0,0-.029-.245.081.081,0,0,1,.073-.095Z" transform="translate(-993.803 -1307.255)" fill="#c78660"/><path d="M992.117,1307.358a1.4,1.4,0,0,1-.12-.562,1.775,1.775,0,0,1,1.9-1.62,1.992,1.992,0,0,1,1.59.738,1.907,1.907,0,0,0-1.778-1.058,1.775,1.775,0,0,0-1.9,1.62A1.448,1.448,0,0,0,992.117,1307.358Z" transform="translate(-991.81 -1304.856)" fill="#0e0808"/></g><g transform="translate(42.665 48.618)"><ellipse cx="1.897" cy="1.62" rx="1.897" ry="1.62" fill="#3b1a11"/><path d="M997.3,1281.936a.094.094,0,0,1,.089.054,1.191,1.191,0,0,1,.088.449,1.514,1.514,0,0,1-1.616,1.38,1.829,1.829,0,0,1-.7-.135.075.075,0,0,1-.044-.107.1.1,0,0,1,.125-.038,1.612,1.612,0,0,0,.616.119,1.338,1.338,0,0,0,1.429-1.22,1.06,1.06,0,0,0-.078-.4.078.078,0,0,1,.058-.1A.115.115,0,0,1,997.3,1281.936Z" transform="translate(-993.962 -1280.819)" fill="#c78660"/><path d="M992.117,1281.226a1.405,1.405,0,0,1-.12-.562,1.775,1.775,0,0,1,1.9-1.62,1.993,1.993,0,0,1,1.59.738,1.907,1.907,0,0,0-1.778-1.058,1.775,1.775,0,0,0-1.9,1.62A1.448,1.448,0,0,0,992.117,1281.226Z" transform="translate(-991.81 -1278.724)" fill="#0e0808"/></g><rect width="45.746" height="0.231" transform="translate(67.393 54.952) rotate(180)" fill="#3b1a11"/><rect width="39.126" height="22.081" transform="translate(21.646 44.115) rotate(-90)" fill="#c78660"/><rect width="37.142" height="19.852" transform="translate(22.813 43.131) rotate(-90)" fill="#f6e6d7"/><g transform="translate(37.139 23.433)"><ellipse cx="1.897" cy="1.62" rx="1.897" ry="1.62" transform="translate(0)" fill="#3b1a11"/><path d="M981.406,1209.5a.093.093,0,0,1,.089.054,1.19,1.19,0,0,1,.088.45,1.514,1.514,0,0,1-1.616,1.38,1.827,1.827,0,0,1-.7-.135.075.075,0,0,1-.044-.107.1.1,0,0,1,.125-.038,1.614,1.614,0,0,0,.616.119A1.338,1.338,0,0,0,981.4,1210a1.053,1.053,0,0,0-.078-.4.078.078,0,0,1,.058-.1A.11.11,0,0,1,981.406,1209.5Z" transform="translate(-978.069 -1208.379)" fill="#c78660"/><path d="M976.223,1208.786a1.407,1.407,0,0,1-.12-.562,1.775,1.775,0,0,1,1.9-1.62,1.992,1.992,0,0,1,1.591.738,1.907,1.907,0,0,0-1.778-1.058,1.775,1.775,0,0,0-1.9,1.62A1.448,1.448,0,0,0,976.223,1208.786Z" transform="translate(-975.916 -1206.284)" fill="#0e0808"/></g><rect width="39.126" height="22.081" transform="translate(44.986 44.115) rotate(-90)" fill="#c78660"/><rect width="37.142" height="19.852" transform="translate(46.048 43.131) rotate(-90)" fill="#f6e6d7"/><g transform="translate(47.779 23.433)"><ellipse cx="1.897" cy="1.62" rx="1.897" ry="1.62" fill="#3b1a11"/><path d="M1007.5,1209.5a.094.094,0,0,0-.089.054,1.192,1.192,0,0,0-.088.45,1.514,1.514,0,0,0,1.616,1.38,1.827,1.827,0,0,0,.7-.135.075.075,0,0,0,.044-.107.1.1,0,0,0-.125-.038,1.614,1.614,0,0,1-.616.119,1.338,1.338,0,0,1-1.429-1.22,1.054,1.054,0,0,1,.078-.4.078.078,0,0,0-.058-.1A.11.11,0,0,0,1007.5,1209.5Z" transform="translate(-1007.047 -1208.379)" fill="#c78660"/><path d="M1010.232,1208.786a1.406,1.406,0,0,0,.12-.562,1.775,1.775,0,0,0-1.9-1.62,1.991,1.991,0,0,0-1.59.738,1.906,1.906,0,0,1,1.778-1.058,1.775,1.775,0,0,1,1.9,1.62A1.448,1.448,0,0,1,1010.232,1208.786Z" transform="translate(-1006.744 -1206.284)" fill="#0e0808"/></g></g><g transform="translate(939.021 1067.151)"><g transform="translate(0.774 3.902)"><rect width="21.609" height="50.8" transform="translate(52.082 50.8) rotate(180)" fill="#3b1a11"/><rect width="21.609" height="50.8" fill="#b56635"/><rect width="42.354" height="14.055" transform="translate(19 4.223) rotate(90)" fill="#f6e6d7"/><g transform="translate(15.947 16.971)"><ellipse cx="0.893" cy="2.947" rx="0.893" ry="2.947" fill="#5e2e1d"/><path d="M1198.891,1150.288a6.715,6.715,0,0,1,.362,2.365c0,1.627-.4,2.946-.893,2.946-.142,0-.277-.113-.4-.309.148.364.332.582.53.582.493,0,.893-1.319.893-2.947A5.719,5.719,0,0,0,1198.891,1150.288Z" transform="translate(-1197.602 -1149.979)" fill="#481c10"/></g><g transform="translate(21.538 0)"><rect width="21.609" height="50.8" transform="translate(21.609 50.8) rotate(180)" fill="#b56635"/><rect width="42.354" height="14.055" transform="translate(16.664 4.223) rotate(90)" fill="#f6e6d7"/><g transform="translate(3.877 16.971)"><ellipse cx="0.893" cy="2.947" rx="0.893" ry="2.947" fill="#5e2e1d"/><path d="M1226.125,1150.288a6.715,6.715,0,0,1,.362,2.365c0,1.627-.4,2.946-.892,2.946-.143,0-.277-.113-.4-.309.148.364.332.582.531.582.493,0,.893-1.319.893-2.947A5.723,5.723,0,0,0,1226.125,1150.288Z" transform="translate(-1224.836 -1149.979)" fill="#481c10"/></g></g><rect width="0.319" height="50.8" transform="translate(21.45)" fill="#3b1a11"/></g><g transform="translate(0 0)"><path d="M3.138,0h38.49a3.138,3.138,0,0,1,3.138,3.138v0A.764.764,0,0,1,44,3.9H.764A.764.764,0,0,1,0,3.138v0A3.138,3.138,0,0,1,3.138,0Z" transform="translate(8.934)" fill="#d5d5d5"/><path d="M3.138,0h38.49a3.138,3.138,0,0,1,3.138,3.138v0A.764.764,0,0,1,44,3.9H.764A.764.764,0,0,1,0,3.138v0A3.138,3.138,0,0,1,3.138,0Z" fill="#eff0f1"/></g></g><g transform="translate(919.717 1087.751)"><rect width="16.352" height="12.954" transform="translate(0 0)" fill="#f6e6d7"/><rect width="3.649" height="12.954" transform="translate(12.703 0)" fill="#d2b9a6"/><path d="M1113.174,1216.087c-.009-1.648-1.868-2.982-4.159-2.982s-4.149,1.334-4.159,2.982Z" transform="translate(-1100.839 -1181.685)" fill="#3b1a11"/><rect width="2.59" height="3.006" transform="translate(6.881 23.182)" fill="#3b1a11"/><path d="M1111.882,1201.665h0a2.469,2.469,0,0,1-2.631-2.247v-2.59a2.469,2.469,0,0,1,2.631-2.247h0a2.469,2.469,0,0,1,2.631,2.247v2.59A2.469,2.469,0,0,1,1111.882,1201.665Z" transform="translate(-1103.706 -1169.601)" fill="#945029"/><rect width="1.516" height="2.967" transform="translate(7.418 12.954)" fill="#3b1a11"/><ellipse cx="2.053" cy="1.375" rx="2.053" ry="1.375" transform="translate(6.123 15.632)" fill="#945029"/><path d="M1114.474,1176.357l-.628,2.679a1.816,1.816,0,0,1-.7,1.006,3.033,3.033,0,0,1-2.628,0,1.816,1.816,0,0,1-.7-1.006l-.628-2.679a1.223,1.223,0,0,1,.67-1.186,4.552,4.552,0,0,1,3.942,0A1.223,1.223,0,0,1,1114.474,1176.357Z" transform="translate(-1103.657 -1156.646)" fill="#945029"/><path d="M1118.975,1178.7a2,2,0,0,0,1-1.671v-2.936a2.073,2.073,0,0,0-1.336-1.848v-1.8l.019-.008a1.814,1.814,0,0,0,.7-1.006l.628-2.679a1.223,1.223,0,0,0-.67-1.186,4.342,4.342,0,0,0-.937-.331,1.392,1.392,0,0,0,1.02-1.187c0-.58-.537-1.075-1.3-1.277v-2.776h-.48v2.691a1.594,1.594,0,0,1,1.295,1.362,1.391,1.391,0,0,1-1.019,1.187,4.339,4.339,0,0,1,.937.331,1.224,1.224,0,0,1,.67,1.186l-.628,2.679a2.337,2.337,0,0,1-.718,1.2c-.006,0,.006-.184,0-.181v1.643a2.29,2.29,0,0,1,1.336,2.006v2.936a2.173,2.173,0,0,1-.856,1.849c1.48.455,2.377,1.332,2.384,2.563h.48A3.163,3.163,0,0,0,1118.975,1178.7Z" transform="translate(-1109.166 -1147.034)" fill="#945029" opacity="0.44" style="mix-blend-mode:multiply;isolation:isolate"/></g><g transform="translate(956.483 1114.63)"><rect width="28.718" height="13.091" transform="translate(0 0)" fill="#5e2e1d"/><rect width="24.641" height="9.143" transform="translate(2.19 1.87)" fill="#f6e6d7"/><g transform="translate(10.891 5.143)"><g transform="translate(0 0.675)"><path d="M1232.877,1246.923a2.157,2.157,0,1,1,2.494-2.13A2.337,2.337,0,0,1,1232.877,1246.923Zm0-3.948a1.841,1.841,0,1,0,2.129,1.818A1.995,1.995,0,0,0,1232.877,1242.975Z" transform="translate(-1230.382 -1242.663)" fill="#20100e"/></g><ellipse cx="0.973" cy="0.831" rx="0.973" ry="0.831" transform="translate(1.46)" fill="#b56635"/><path d="M1236.653,1240.751a.823.823,0,0,1,.507.729.911.911,0,0,1-.973.831,1.187,1.187,0,0,1-.146-.01,1.1,1.1,0,0,0,.466.1.911.911,0,0,0,.973-.831A.884.884,0,0,0,1236.653,1240.751Z" transform="translate(-1234.074 -1240.741)" fill="#5e2e1d"/></g><rect width="7.605" height="13.091" transform="translate(28.718 0)" fill="#20100e"/><g transform="translate(32.733 13.091)"><rect width="2.19" height="34.079" fill="#b56635"/><rect width="1.399" height="34.079" transform="translate(2.19)" fill="#3b1a11"/></g><g transform="translate(6.206 13.091)"><rect width="2.19" height="34.079" fill="#b56635"/><rect width="1.399" height="34.079" transform="translate(2.19)" fill="#3b1a11"/></g><g transform="translate(0 13.091)"><rect width="2.19" height="34.079" fill="#b56635"/><rect width="1.399" height="34.079" transform="translate(2.19)" fill="#3b1a11"/></g><g transform="translate(26.527 13.091)"><rect width="2.19" height="34.079" fill="#b56635"/><rect width="1.399" height="34.079" transform="translate(2.19)" fill="#3b1a11"/></g><rect width="23.657" height="1.564" transform="translate(2.89 36.322)" fill="#5e2e1d"/><rect width="3.711" height="1.564" transform="translate(30.117 36.322)" fill="#20100e"/></g><g transform="translate(991.175 1072.594)"><rect width="22.27" height="89.462" transform="translate(0 0)" fill="#5e2e1d"/><rect width="6.59" height="89.462" transform="translate(1.501 0)" fill="#3b1a11"/><rect width="8.096" height="89.462" transform="translate(20.94)" fill="#3b1a11"/><rect width="21.251" height="1.573" transform="translate(0.47 46.569)" fill="#945029"/><g transform="translate(0.002 0)"><rect width="1.499" height="89.462" fill="#945029"/><rect width="1.499" height="89.462" transform="translate(20.77)" fill="#945029"/></g><g transform="translate(0 61.496)"><rect width="22.27" height="27.967" fill="#aa6d4a"/><g transform="translate(3.798 3.243)"><rect width="21.481" height="14.675" transform="translate(14.675 0) rotate(90)" fill="#f6e6d7"/><g transform="translate(12.276 5.642)"><path d="M1346.193,1309.3c0,1.02-.25,1.846-.559,1.846s-.559-.826-.559-1.846.25-1.846.559-1.846S1346.193,1308.285,1346.193,1309.3Z" transform="translate(-1345.075 -1307.459)" fill="#5e2e1d"/><path d="M1346.308,1308.016a4.2,4.2,0,0,1,.227,1.482c0,1.019-.25,1.846-.559,1.846-.089,0-.173-.071-.248-.193.093.228.208.364.333.364.309,0,.559-.826.559-1.846A3.579,3.579,0,0,0,1346.308,1308.016Z" transform="translate(-1345.5 -1307.822)" fill="#481c10"/></g></g></g><g transform="translate(0 0)"><rect width="22.27" height="27.967" fill="#aa6d4a"/><g transform="translate(3.798 3.243)"><rect width="21.481" height="14.675" transform="translate(14.675 0) rotate(90)" fill="#f6e6d7"/><g transform="translate(12.276 13.322)"><ellipse cx="0.559" cy="1.846" rx="0.559" ry="1.846" fill="#5e2e1d"/><path d="M1346.308,1153.222a4.207,4.207,0,0,1,.227,1.482c0,1.019-.25,1.846-.559,1.846-.089,0-.173-.071-.248-.194.093.228.208.364.333.364.309,0,.559-.827.559-1.846A3.581,3.581,0,0,0,1346.308,1153.222Z" transform="translate(-1345.5 -1153.029)" fill="#481c10"/></g></g></g></g><g transform="translate(839.373 1117.914)"><rect width="19.147" height="11.525" transform="translate(5.323 19.271)" fill="#5e2e1d"/><ellipse cx="5.323" cy="4.545" rx="5.323" ry="4.545" transform="translate(84.723 0)" fill="#3b1a11"/><path d="M1058.306,1262.083h-28.573l6.442-26.708h24.959c1.866,0,3.262,1.462,2.885,3.023Z" transform="translate(-971.49 -1235.374)" fill="#3b1a11"/><path d="M924.336,1266.308h60.616c-.443-6.64,1.574-16.384,4.268-25.618a10.257,10.257,0,0,1,3.159-5.314H934.732a5.118,5.118,0,0,0-5.036,4.093Z" transform="translate(-902.735 -1235.375)" fill="#914822"/><path d="M1012.659,1235.375c10.118,3.767,23.428,12.2,28.639,30.932h1.271c-.443-6.64,1.574-16.384,4.268-25.618a10.256,10.256,0,0,1,3.159-5.314Z" transform="translate(-960.352 -1235.375)" fill="#ab5b30"/><path d="M1089.963,1309.6h-15.118l2.982-18.8H1093.3v15.949A3.124,3.124,0,0,1,1089.963,1309.6Z" transform="translate(-1000.918 -1271.533)" fill="#5e2e1d"/><path d="M1074.844,1326.66h15.118a3.124,3.124,0,0,0,3.339-2.851v-6.859H1077.07Z" transform="translate(-1000.918 -1288.589)" fill="#3b1a11"/><rect width="3.387" height="5.449" transform="translate(8.421 38.071)" fill="#b56635"/><rect width="3.387" height="5.449" transform="translate(22.116 38.071)" fill="#b56635"/><g transform="translate(24.47 4.339)"><g transform="translate(4.57)"><path d="M953.393,1247.856l-.091,2.324.091,2.324.091-2.324Z" transform="translate(-950.671 -1247.856)" fill="#48261a"/><path d="M951.178,1254.4l-2.722.078-2.722-.078,2.722-.078Z" transform="translate(-945.734 -1252.072)" fill="#48261a"/><ellipse cx="0.254" cy="0.217" rx="0.254" ry="0.217" transform="translate(2.468 2.107)" fill="#3b1a11"/><g transform="translate(7.953)"><path d="M976.27,1247.856l-.091,2.324.091,2.324.091-2.324Z" transform="translate(-973.548 -1247.856)" fill="#48261a"/><path d="M974.055,1254.4l-2.722.078-2.722-.078,2.722-.078Z" transform="translate(-968.611 -1252.072)" fill="#48261a"/><ellipse cx="0.254" cy="0.217" rx="0.254" ry="0.217" transform="translate(2.468 2.107)" fill="#3b1a11"/></g><g transform="translate(15.907)"><path d="M999.147,1247.856l-.091,2.324.091,2.324.091-2.324Z" transform="translate(-996.425 -1247.856)" fill="#48261a"/><path d="M996.932,1254.4l-2.722.078-2.722-.078,2.722-.078Z" transform="translate(-991.488 -1252.072)" fill="#48261a"/><ellipse cx="0.254" cy="0.217" rx="0.254" ry="0.217" transform="translate(2.468 2.107)" fill="#3b1a11"/></g><g transform="translate(23.86)"><path d="M1022.024,1247.856l-.091,2.324.091,2.324.091-2.324Z" transform="translate(-1019.302 -1247.856)" fill="#48261a"/><path d="M1019.809,1254.4l-2.722.078-2.722-.078,2.722-.078Z" transform="translate(-1014.365 -1252.072)" fill="#48261a"/><ellipse cx="0.254" cy="0.217" rx="0.254" ry="0.217" transform="translate(2.468 2.107)" fill="#3b1a11"/></g><g transform="translate(31.814)"><path d="M1044.9,1247.856l-.091,2.324.091,2.324.091-2.324Z" transform="translate(-1042.179 -1247.856)" fill="#48261a"/><path d="M1042.686,1254.4l-2.722.078-2.722-.078,2.722-.078Z" transform="translate(-1037.242 -1252.072)" fill="#48261a"/><ellipse cx="0.254" cy="0.217" rx="0.254" ry="0.217" transform="translate(2.468 2.107)" fill="#3b1a11"/></g><g transform="translate(39.767)"><path d="M1067.778,1247.856l-.091,2.324.091,2.324.091-2.324Z" transform="translate(-1065.056 -1247.856)" fill="#48261a"/><path d="M1065.563,1254.4l-2.722.078-2.722-.078,2.722-.078Z" transform="translate(-1060.119 -1252.072)" fill="#48261a"/><ellipse cx="0.254" cy="0.217" rx="0.254" ry="0.217" transform="translate(2.468 2.107)" fill="#3b1a11"/></g><g transform="translate(47.721)"><path d="M1090.655,1247.856l-.091,2.324.091,2.324.091-2.324Z" transform="translate(-1087.933 -1247.856)" fill="#48261a"/><path d="M1088.44,1254.4l-2.722.078L1083,1254.4l2.722-.078Z" transform="translate(-1082.996 -1252.072)" fill="#48261a"/><ellipse cx="0.254" cy="0.217" rx="0.254" ry="0.217" transform="translate(2.468 2.107)" fill="#3b1a11"/></g></g><g transform="translate(0 14.183)"><path d="M940.247,1288.653l-.091,2.324.091,2.324.091-2.324Z" transform="translate(-937.525 -1288.653)" fill="#48261a"/><path d="M938.032,1295.193l-2.722.078-2.722-.078,2.722-.078Z" transform="translate(-932.588 -1292.868)" fill="#48261a"/><path d="M940.2,1294.931a.257.257,0,1,1-.254-.217A.238.238,0,0,1,940.2,1294.931Z" transform="translate(-937.219 -1292.607)" fill="#3b1a11"/><g transform="translate(7.953)"><path d="M963.124,1288.653l-.091,2.324.091,2.324.091-2.324Z" transform="translate(-960.402 -1288.653)" fill="#48261a"/><path d="M960.909,1295.193l-2.722.078-2.722-.078,2.722-.078Z" transform="translate(-955.465 -1292.868)" fill="#48261a"/><path d="M963.072,1294.931a.257.257,0,1,1-.254-.217A.238.238,0,0,1,963.072,1294.931Z" transform="translate(-960.096 -1292.607)" fill="#3b1a11"/></g><g transform="translate(15.907)"><path d="M986,1288.653l-.091,2.324L986,1293.3l.091-2.324Z" transform="translate(-983.279 -1288.653)" fill="#48261a"/><path d="M983.786,1295.193l-2.722.078-2.722-.078,2.722-.078Z" transform="translate(-978.342 -1292.868)" fill="#48261a"/><path d="M985.949,1294.931a.257.257,0,1,1-.254-.217A.238.238,0,0,1,985.949,1294.931Z" transform="translate(-982.973 -1292.607)" fill="#3b1a11"/></g><g transform="translate(23.86)"><path d="M1008.878,1288.653l-.091,2.324.091,2.324.091-2.324Z" transform="translate(-1006.156 -1288.653)" fill="#48261a"/><path d="M1006.664,1295.193l-2.722.078-2.722-.078,2.722-.078Z" transform="translate(-1001.219 -1292.868)" fill="#48261a"/><path d="M1008.826,1294.931a.257.257,0,1,1-.254-.217A.238.238,0,0,1,1008.826,1294.931Z" transform="translate(-1005.85 -1292.607)" fill="#3b1a11"/></g><g transform="translate(31.814)"><path d="M1031.755,1288.653l-.091,2.324.091,2.324.091-2.324Z" transform="translate(-1029.033 -1288.653)" fill="#48261a"/><path d="M1029.54,1295.193l-2.722.078-2.722-.078,2.722-.078Z" transform="translate(-1024.096 -1292.868)" fill="#48261a"/><path d="M1031.7,1294.931a.257.257,0,1,1-.254-.217A.237.237,0,0,1,1031.7,1294.931Z" transform="translate(-1028.727 -1292.607)" fill="#3b1a11"/></g><g transform="translate(39.767)"><path d="M1054.632,1288.653l-.091,2.324.091,2.324.091-2.324Z" transform="translate(-1051.91 -1288.653)" fill="#48261a"/><path d="M1052.418,1295.193l-2.722.078-2.722-.078,2.722-.078Z" transform="translate(-1046.973 -1292.868)" fill="#48261a"/><path d="M1054.58,1294.931a.257.257,0,1,1-.254-.217A.238.238,0,0,1,1054.58,1294.931Z" transform="translate(-1051.604 -1292.607)" fill="#3b1a11"/></g><g transform="translate(47.721)"><path d="M1077.509,1288.653l-.091,2.324.091,2.324.091-2.324Z" transform="translate(-1074.787 -1288.653)" fill="#48261a"/><path d="M1075.294,1295.193l-2.722.078-2.722-.078,2.722-.078Z" transform="translate(-1069.85 -1292.868)" fill="#48261a"/><path d="M1077.457,1294.931a.257.257,0,1,1-.254-.217A.238.238,0,0,1,1077.457,1294.931Z" transform="translate(-1074.481 -1292.607)" fill="#3b1a11"/></g></g><g transform="translate(1.848 7.092)"><path d="M945.563,1268.254l-.091,2.324.091,2.324.091-2.324Z" transform="translate(-942.841 -1268.254)" fill="#48261a"/><path d="M943.348,1274.794l-2.722.078-2.722-.078,2.722-.078Z" transform="translate(-937.904 -1272.47)" fill="#48261a"/><path d="M945.511,1274.533a.257.257,0,1,1-.254-.217A.238.238,0,0,1,945.511,1274.533Z" transform="translate(-942.535 -1272.209)" fill="#3b1a11"/><g transform="translate(7.953)"><path d="M968.44,1268.254l-.091,2.324.091,2.324.091-2.324Z" transform="translate(-965.718 -1268.254)" fill="#48261a"/><path d="M966.226,1274.794l-2.722.078-2.722-.078,2.722-.078Z" transform="translate(-960.781 -1272.47)" fill="#48261a"/><path d="M968.388,1274.533a.257.257,0,1,1-.254-.217A.238.238,0,0,1,968.388,1274.533Z" transform="translate(-965.412 -1272.209)" fill="#3b1a11"/></g><g transform="translate(15.907)"><path d="M991.318,1268.254l-.091,2.324.091,2.324.091-2.324Z" transform="translate(-988.595 -1268.254)" fill="#48261a"/><path d="M989.1,1274.794l-2.722.078-2.722-.078,2.722-.078Z" transform="translate(-983.658 -1272.47)" fill="#48261a"/><path d="M991.265,1274.533a.257.257,0,1,1-.254-.217A.238.238,0,0,1,991.265,1274.533Z" transform="translate(-988.289 -1272.209)" fill="#3b1a11"/></g><g transform="translate(23.86)"><path d="M1014.195,1268.254l-.091,2.324.091,2.324.091-2.324Z" transform="translate(-1011.472 -1268.254)" fill="#48261a"/><path d="M1011.979,1274.794l-2.722.078-2.722-.078,2.722-.078Z" transform="translate(-1006.535 -1272.47)" fill="#48261a"/><path d="M1014.142,1274.533a.257.257,0,1,1-.254-.217A.238.238,0,0,1,1014.142,1274.533Z" transform="translate(-1011.166 -1272.209)" fill="#3b1a11"/></g><g transform="translate(31.814)"><path d="M1037.071,1268.254l-.091,2.324.091,2.324.091-2.324Z" transform="translate(-1034.349 -1268.254)" fill="#48261a"/><path d="M1034.856,1274.794l-2.722.078-2.722-.078,2.722-.078Z" transform="translate(-1029.412 -1272.47)" fill="#48261a"/><path d="M1037.019,1274.533a.257.257,0,1,1-.254-.217A.238.238,0,0,1,1037.019,1274.533Z" transform="translate(-1034.043 -1272.209)" fill="#3b1a11"/></g><g transform="translate(39.767)"><path d="M1059.949,1268.254l-.091,2.324.091,2.324.091-2.324Z" transform="translate(-1057.226 -1268.254)" fill="#48261a"/><path d="M1057.734,1274.794l-2.722.078-2.722-.078,2.722-.078Z" transform="translate(-1052.289 -1272.47)" fill="#48261a"/><path d="M1059.9,1274.533a.257.257,0,1,1-.254-.217A.238.238,0,0,1,1059.9,1274.533Z" transform="translate(-1056.92 -1272.209)" fill="#3b1a11"/></g><g transform="translate(47.721)"><path d="M1082.825,1268.254l-.091,2.324.091,2.324.091-2.324Z" transform="translate(-1080.103 -1268.254)" fill="#48261a"/><path d="M1080.61,1274.794l-2.722.078-2.722-.078,2.722-.078Z" transform="translate(-1075.166 -1272.47)" fill="#48261a"/><path d="M1082.773,1274.533a.257.257,0,1,1-.254-.217A.238.238,0,0,1,1082.773,1274.533Z" transform="translate(-1079.797 -1272.209)" fill="#3b1a11"/></g></g></g><ellipse cx="5.323" cy="4.545" rx="5.323" ry="4.545" transform="translate(0 19.271)" fill="#945029"/><ellipse cx="5.323" cy="4.545" rx="5.323" ry="4.545" transform="translate(71.923 19.271)" fill="#945029"/><ellipse cx="5.323" cy="4.545" rx="5.323" ry="4.545" transform="translate(87.061 19.271)" fill="#5e2e1d"/><g transform="translate(22.427 12.809)"><path d="M927.067,1279.482c0,4.093-.732,7.56-.1,7.56s1.391-3.319,1.391-7.412-.755-7.412-1.391-7.412S927.067,1275.389,927.067,1279.482Z" transform="translate(-926.712 -1272.218)" fill="#127f8a"/><path d="M927.735,1287.042l9.313-.911a54.1,54.1,0,0,1,10.507,0l9.313.911h0a26.377,26.377,0,0,1,0-14.824h0l-7.475,1.031a51.972,51.972,0,0,1-14.183,0l-7.475-1.031h0a21.863,21.863,0,0,1,0,14.824Z" transform="translate(-927.379 -1272.218)" fill="#149bb3"/><g transform="translate(14.744 4.94)"><path d="M969.359,1291.271c0,2.729-.488,5.041-.064,5.041s.928-2.213.928-4.942-.5-4.942-.928-4.942S969.359,1288.541,969.359,1291.271Z" transform="translate(-969.121 -1286.427)" fill="#bb906a"/><path d="M969.8,1296.312l6.209-.607a36.092,36.092,0,0,1,7.006,0l6.209.607h0a17.584,17.584,0,0,1,0-9.884h0l-4.984.688a34.659,34.659,0,0,1-9.456,0l-4.984-.688h0a14.577,14.577,0,0,1,0,9.884Z" transform="translate(-969.567 -1286.427)" fill="#e7c8ab"/></g></g><path d="M2.007,0H61.676a2.2,2.2,0,0,1,2.2,2.2v0a3.05,3.05,0,0,1-3.05,3.05H3.05A3.05,3.05,0,0,1,0,2.2V2.007A2.007,2.007,0,0,1,2.007,0Z" transform="translate(9.553 26.543)" fill="#48261a"/><rect width="1.375" height="5.449" transform="translate(11.809 38.071)" fill="#3b1a11"/><rect width="1.375" height="5.449" transform="translate(25.534 38.071)" fill="#3b1a11"/><rect width="3.387" height="5.449" transform="translate(69.351 38.071)" fill="#b56635"/><rect width="3.387" height="5.449" transform="translate(83.046 38.071)" fill="#b56635"/><rect width="1.375" height="5.449" transform="translate(72.738 38.071)" fill="#3b1a11"/><rect width="1.375" height="5.449" transform="translate(86.433 38.071)" fill="#3b1a11"/><path d="M943.9,1304.757v6.351a1.091,1.091,0,0,1-1.166,1H883.661a.973.973,0,0,1-1.041-.888v-6.458h-5.439v11.02a3.21,3.21,0,0,0,3.431,2.929h65.294a3.21,3.21,0,0,0,3.43-2.929v-11.02Z" transform="translate(-871.974 -1280.635)" fill="#945029"/><g transform="translate(83.046 38.071)" opacity="0.47" style="mix-blend-mode:multiply;isolation:isolate"><rect width="4.762" height="0.734" fill="#65412b"/></g><g transform="translate(69.351 38.071)" opacity="0.47" style="mix-blend-mode:multiply;isolation:isolate"><rect width="4.753" height="0.734" fill="#65412b"/></g><g transform="translate(22.116 38.071)" opacity="0.47" style="mix-blend-mode:multiply;isolation:isolate"><rect width="4.785" height="0.734" fill="#65412b"/></g><g transform="translate(8.412 38.071)" opacity="0.47" style="mix-blend-mode:multiply;isolation:isolate"><rect width="4.762" height="0.734" fill="#65412b"/></g></g><g transform="translate(922.347 1124.763)"><g transform="translate(4.003 31.954)"><path d="M1123.686,1352.114h-4.4v-5.126h7.6Z" transform="translate(-1116.883 -1346.987)" fill="#070304"/><path d="M1116.782,1352.114h-4.4v-5.126h7.6Z" transform="translate(-1112.38 -1346.987)" fill="#4d4d4e"/><path d="M1243.949,1352.114h4.4v-5.126h-7.6Z" transform="translate(-1196.119 -1346.987)" fill="#070304"/><path d="M1237.046,1352.114h4.4v-5.126h-7.6Z" transform="translate(-1191.615 -1346.987)" fill="#4d4d4e"/></g><path d="M0,0H52.135a8.5,8.5,0,0,1,8.5,8.5V23.45a8.5,8.5,0,0,1-8.5,8.5H8.5A8.5,8.5,0,0,1,0,23.45V0A0,0,0,0,1,0,0Z" transform="translate(12)" fill="#908c8e"/><rect width="60.638" height="31.954" rx="8.504" fill="#a5a1a2"/><rect width="13.243" height="54.234" transform="translate(57.436 2.734) rotate(90)" fill="#4d4d4e"/><rect width="12.423" height="53.274" transform="translate(56.956 3.144) rotate(90)" fill="#e9eef8"/><rect width="13.243" height="54.234" transform="translate(57.436 15.977) rotate(90)" fill="#4d4d4e"/><rect width="12.423" height="53.274" transform="translate(56.956 16.387) rotate(90)" fill="#e9eef8"/><g transform="translate(22.214 8.544)"><rect width="15.81" height="1.88" rx="0.94" transform="translate(1.44)" fill="#070304"/><rect width="15.81" height="1.88" rx="0.94" fill="#4d4d4e"/><path d="M.53,0h0a.53.53,0,0,1,.53.53V14.32a.53.53,0,0,1-.53.53h0A.53.53,0,0,1,0,14.32V.53A.53.53,0,0,1,.53,0Z" transform="translate(15.33 0.41) rotate(90)" fill="#e9eef8"/></g><g transform="translate(22.214 22.069)"><rect width="15.81" height="1.88" rx="0.94" transform="translate(1.44)" fill="#070304"/><rect width="15.81" height="1.88" rx="0.94" fill="#4d4d4e"/><path d="M.53,0h0a.53.53,0,0,1,.53.53V14.32a.53.53,0,0,1-.53.53h0A.53.53,0,0,1,0,14.32V.53A.53.53,0,0,1,.53,0Z" transform="translate(15.33 0.41) rotate(90)" fill="#e9eef8"/></g><g transform="translate(16.722 31.954)"><path d="M1160.273,1352.114h-4.4v-5.126h7.6Z" transform="translate(-1153.47 -1346.987)" fill="#070304"/><path d="M1153.369,1352.114h-4.4v-5.126h7.6Z" transform="translate(-1148.967 -1346.987)" fill="#4d4d4e"/><path d="M1280.536,1352.114h4.4v-5.126h-7.6Z" transform="translate(-1232.706 -1346.987)" fill="#070304"/><path d="M1273.633,1352.114h4.4v-5.126h-7.6Z" transform="translate(-1228.202 -1346.987)" fill="#4d4d4e"/></g></g></g></svg>