<svg xmlns="http://www.w3.org/2000/svg" xmlns:xlink="http://www.w3.org/1999/xlink" width="251" height="142" viewBox="0 0 251 142"><defs><clipPath id="a"><path d="M2139.317,1110.074c.331-7.542,2.155-26.957,2.878-30.762,1.469-7.728,8.862-14.1,14.72-14.1H2191.9c11.429,0,21.643,12.466,23.707,14.722s15.105,23.992,16.979,33.816c.778,4.081.144,37.437.144,37.437l-10.114,6.575c-.825-2.457-.111-9.554-1.7-16.78-1.089-4.973-3.137-9.047-5.687-9.047-7.616,0-9.419,16.177-9.587,26.149h-36.2a68.681,68.681,0,0,0,.376-14.6c-.555-6.025-2.432-11.552-6.508-11.552-6.589,0-8.863,13.417-9.847,21.466a10.9,10.9,0,0,1-1.094,3.195l-12.2-2.756-1.014-2.188S2138.911,1119.332,2139.317,1110.074Zm65.917-5.459c.683.108,20.476,2.032,20.966,2.032,1.376,0,2.381-1.078.877-4.149-.724-1.478-2.075-4.681-3.941-8.176-2.608-4.884-5.8-10.161-6.012-10.517a5.011,5.011,0,0,0-4.064-2.471h-10.553c-1.277,0-1.656,1.228-1.348,2.965.671,3.771,1.657,14.51,2.029,17.742A2.577,2.577,0,0,0,2205.233,1104.615Zm-57.593-20.707c-.063,5.044.378,13.281.6,21.879a2.728,2.728,0,0,0,2.726,2.965c.648,0,46.33-.068,47.034-.068s1.578-.849,1.548-2.284c-.112-5.239-1.46-18.624-1.766-22.795-.086-1.163-.763-2.218-1.565-2.218-.916,0-45.457-.054-46.139-.054A2.8,2.8,0,0,0,2147.64,1083.907Z" transform="translate(-2139.083 -1065.216)" fill="none"/></clipPath><clipPath id="b"><path d="M1813.933,1060.039c-2.571,1.562-4.95,3.02-6.017,5.357-1.7,3.723-1.513,9.842-1.513,9.842l85.559-.027s.7-5.524.851-9.6a25.431,25.431,0,0,1,2.236-7c1.73-2.484,7.861-4.814,14.164-4.944l-70.093.022a100.181,100.181,0,0,0-11.786,1.427A48.1,48.1,0,0,0,1813.933,1060.039Zm74.04,4.556c-.171.368-1.527.666-3.029.667,0,0-18.471.227-36.338.233s-35.32-.211-35.32-.211c-1.5,0-2.248-.049-1.844-.665,1.55-2.366,4.761-4.376,7.837-5.961a8.078,8.078,0,0,1,3.594-.667s17.7-.071,29.625-.075,35.826.055,35.826.055c1.5,0,2.582.3,2.412.665Z" transform="translate(-1806.397 -1053.666)" fill="none"/></clipPath></defs><g transform="translate(-2322.638 -1228.393)"><rect width="251" height="142" transform="translate(2322.638 1228.393)" fill="#fff" opacity="0"/><path d="M2551.036,1478.776c0,1.005-37.894,1.818-84.638,1.818s-84.643-.813-84.643-1.818,37.9-1.808,84.643-1.808S2551.036,1477.78,2551.036,1478.776Z" transform="translate(-15.392 -128.107)" fill="#8e8e8f"/><g transform="translate(2345.747 1242.819)"><path d="M1985.545,1116.837c-2-9.532-17.121-29.948-18.6-32.667-2.578-4.75-8.892-14.31-11.452-14.31h-47.468c-6.271,0-15.578,6.2-19.106,13.7-1.736,3.693-7.1,21.97-9.364,29.287-2.776,8.983,5.6,40.91,5.6,40.91l1.085,2.123,13.052,2.674a9.989,9.989,0,0,0,1.17-3.1c1.049-7.81,3.485-20.828,10.532-20.828,4.361,0,6.368,5.362,6.963,11.208a60.376,60.376,0,0,1-.4,14.163h38.729c.18-9.676,2.109-25.372,10.255-25.372,2.729,0,4.919,3.953,6.083,8.778,1.7,7.011.936,13.9,1.819,16.281l10.82-6.38S1986.378,1120.8,1985.545,1116.837Zm-66.133-27.766c-.117.8-2.719,18.91-2.843,19.691a2.292,2.292,0,0,1-.488,1.139c-11.6.015-25.052.03-26.545.032a2.759,2.759,0,0,1-.069-.887c.384-4.829,3.513-16.5,5.111-20.54a1.836,1.836,0,0,1,.659-.858l24.022.024A1.975,1.975,0,0,1,1919.412,1089.071Zm2.624,0a2.417,2.417,0,0,1,.55-1.4l22.656.023c-.455,3.155-3.418,18.988-3.831,22.046a.322.322,0,0,1-.037.124l-22.007.029a1.831,1.831,0,0,1-.156-1.135C1919.312,1107.981,1921.919,1089.872,1922.036,1089.071Zm24.152-3.5a.979.979,0,0,1,.2.031l-50.776-.051a1.639,1.639,0,0,1,.281-.031C1896.626,1085.523,1945.209,1085.574,1946.188,1085.574Zm32.088,24.51c-.524,0-21.692-.06-22.429-.085-5.716-.2-8.259.685-7.428-4.385.511-3.123,2.083-13.556,2.32-17.215.108-1.686.827-2.877,2.192-2.877h11.291a5.447,5.447,0,0,1,4.347,2.4c.224.346,3.643,5.465,6.432,10.2,2,3.392,3.442,6.5,4.215,7.933C1980.823,1109.038,1979.748,1110.085,1978.276,1110.085Z" transform="translate(-1857.637 -1065.096)" fill="#302d2c"/><g transform="translate(88.086 74.402)"><path d="M2147.587,1323.155c0,9.16-2.491,16.583-5.561,16.583s-5.563-7.424-5.563-16.583,2.49-16.584,5.563-16.584S2147.587,1314,2147.587,1323.155Z" transform="translate(-2127.447 -1306.571)" fill="#1a1311"/><path d="M2111.382,1306.571c-3.073,0-5.566,7.425-5.566,16.584s2.493,16.583,5.566,16.583h9.014c-3.074,0-5.563-7.424-5.563-16.583s2.49-16.584,5.563-16.584Z" transform="translate(-2105.816 -1306.571)" fill="#302d2c"/></g><g transform="translate(36.834 74.402)"><path d="M1973.373,1323.155c0,9.16-2.49,16.583-5.561,16.583s-5.563-7.424-5.563-16.583,2.489-16.584,5.563-16.584S1973.373,1314,1973.373,1323.155Z" transform="translate(-1953.234 -1306.571)" fill="#1a1311"/><path d="M1937.168,1306.571c-3.073,0-5.565,7.425-5.565,16.584s2.492,16.583,5.565,16.583h9.013c-3.074,0-5.563-7.424-5.563-16.583s2.489-16.584,5.563-16.584Z" transform="translate(-1931.603 -1306.571)" fill="#302d2c"/></g><path d="M1878.728,1089.052c-2.365,5.867-4.555,11.344-5.537,20.124-1.567,13.988-1.395,36.983-1.395,36.983h78.71s.641-20.759.786-36.085c.06-6.387,1.611-23.672,2.058-26.3,1.592-9.33,7.48-18.372,13.022-18.562H1901.9a33.1,33.1,0,0,0-10.843,5.349C1887.268,1073.572,1881.506,1082.159,1878.728,1089.052Zm68.111,17.207a2.878,2.878,0,0,1-2.786,2.5s-16.993.834-33.429.834-32.492-.834-32.492-.834c-1.381,0-2.067-.185-1.7-2.5a82.447,82.447,0,0,1,7.211-22.392c.788-1.658,1.925-2.5,3.307-2.5,0,0,16.28-.248,27.253-.248s32.958.248,32.958.248a2.19,2.19,0,0,1,2.218,2.5Z" transform="translate(-1852.552 -1061.818)" fill="#302d2c"/><path d="M4.245,0h0A4.245,4.245,0,0,1,8.491,4.245V6.482a4.245,4.245,0,0,1-4.245,4.245h0A4.246,4.246,0,0,1,0,6.481V4.245A4.245,4.245,0,0,1,4.245,0Z" transform="translate(112.631 35.49)"/><path d="M3.16,0h0a3.16,3.16,0,0,1,3.16,3.16V5.9A3.163,3.163,0,0,1,3.16,9.058h0A3.16,3.16,0,0,1,0,5.9V3.16A3.16,3.16,0,0,1,3.16,0Z" transform="translate(113.966 36.324)" fill="#fff"/><path d="M2199.867,1074.565a108.357,108.357,0,0,0-12.17-4.7h-52.026c4.087.5,12.368,13.981,14.621,18.036,1.428,2.57,9.63,16.2,11.441,18.988a43.775,43.775,0,0,1,4.82,9.728c.468,1.178-.053,21.463-.053,21.463h60.578s.19-19.834.205-21.394-1.5-10.512-2.575-12.759-8.619-14.932-10.482-17.718C2210.45,1080.559,2206.589,1077.97,2199.867,1074.565Zm-45.934,9.074c1.058,0,14.421.277,27.964.277,13.2,0,23.662-.277,25.342-.277s3.542,1.862,4.175,2.6c1,1.163,8.01,13.028,10.236,19.191a2.458,2.458,0,0,1-2.556,3.046c-.979,0-12.751.955-27.716.955a220.472,220.472,0,0,1-22.641-.955c-2.283,0-3.523-1.046-4.073-2.283s-11.522-18.744-12.141-20.172A1.578,1.578,0,0,1,2153.933,1083.639Z" transform="translate(-2038.802 -1065.096)" fill="#302d2c"/><path d="M2193.9,1116.7c1.059,0,14.421.277,27.964.277,13.2,0,23.662-.277,25.343-.277s3.542,1.862,4.175,2.6c1,1.163,8.01,13.028,10.236,19.191a2.458,2.458,0,0,1-2.556,3.047c-.979,0-12.751.955-27.716.955a220.512,220.512,0,0,1-22.641-.955c-2.283,0-3.523-1.046-4.073-2.283s-11.522-18.744-12.14-20.172A1.578,1.578,0,0,1,2193.9,1116.7Z" transform="translate(-2078.77 -1098.153)" fill="#fff" opacity="0.4"/><path d="M1944.517,1131.746c-.117.8-2.719,18.91-2.843,19.691a2.294,2.294,0,0,1-.488,1.139c-11.6.015-25.052.03-26.545.032a2.753,2.753,0,0,1-.069-.887c.384-4.829,3.513-16.5,5.11-20.54a1.837,1.837,0,0,1,.66-.858l24.022.024A1.974,1.974,0,0,1,1944.517,1131.746Z" transform="translate(-1882.742 -1107.771)" fill="#1a1311" opacity="0.5"/><path d="M2018.469,1131.811a2.416,2.416,0,0,1,.55-1.4l22.656.023c-.454,3.155-3.418,18.988-3.831,22.046a.319.319,0,0,1-.037.124l-22.007.029a1.83,1.83,0,0,1-.156-1.135C2015.744,1150.722,2018.352,1132.613,2018.469,1131.811Z" transform="translate(-1954.069 -1107.836)" fill="#1a1311" opacity="0.5"/><path d="M2145.251,1144.438c-1.017,0-25.465.017-36.34.033a2.4,2.4,0,0,1-.156-1.309c.1-.9,2.708-21.784,2.825-22.708a3.034,3.034,0,0,1,.549-1.61c10.849.013,16.917.024,18.447.026" transform="translate(-2019.788 -1099.669)" fill="#1a1311" opacity="0.5"/><path d="M2181.193,1200.361a3.034,3.034,0,0,1,2.834-1.962H2215.6a7.243,7.243,0,0,1,4.287,1.962h3.83c1.671,0,3.183,2.038,3.183,3.706v6.885h-82.565v-6.829c0-1.724.975-3.762,3.287-3.762Z" transform="translate(-2044.919 -1155.82)" fill="#1a1a1a"/><path d="M2255.764,1125.619a1.014,1.014,0,0,0,1.014,1.013h15.336a1.014,1.014,0,0,0,1.015-1.013v-3.266a1.014,1.014,0,0,0-1.015-1.014h-15.336a1.014,1.014,0,0,0-1.014,1.014Z" transform="translate(-2123.565 -1101.43)" fill="#1a1a1a"/><g transform="translate(154.111 36.582)"><path d="M2342.116,1195.9c-5.679,0-10.958-4.011-11.766-8.941s3.156-8.941,8.834-8.941,10.958,4.01,11.766,8.941S2347.794,1195.9,2342.116,1195.9Zm-2.671-16.295c-4.67,0-7.93,3.3-7.264,7.354s5,7.352,9.675,7.352,7.929-3.3,7.264-7.352S2344.116,1179.6,2339.445,1179.6Z" transform="translate(-2330.246 -1178.015)"/></g><g transform="translate(133.282 22.656)"><path d="M2268.27,1139.722a2.377,2.377,0,0,0,2.114,2.433h10.567a2.13,2.13,0,0,0,1.89-2.433l-.971-6.611a2.377,2.377,0,0,0-2.113-2.432h-9.233a2.13,2.13,0,0,0-1.889,2.432Z" transform="translate(-2265.674 -1130.679)" fill="#1a1a1a"/><path d="M2260.385,1188.115l-.916-11.874a2.454,2.454,0,0,1,2.142-2.534h16.913a2.554,2.554,0,0,1,2.393,2l1.228,12.407Z" transform="translate(-2259.445 -1161.048)" fill="#1a1a1a"/><path d="M2268.27,1139.722c.02,1.344.318,2.433.667,2.433h3.332c.349,0,.615-1.089.6-2.433l-.306-6.611c-.019-1.343-.318-2.432-.666-2.432h-2.912c-.348,0-.615,1.089-.6,2.432Z" transform="translate(-2260.674 -1122.679)" fill="#1a1a1a"/></g><g transform="translate(92.08 22.656)"><g transform="translate(0)"><path d="M2128.217,1139.722a2.377,2.377,0,0,0,2.113,2.433H2140.9a2.13,2.13,0,0,0,1.889-2.433l-.97-6.611a2.378,2.378,0,0,0-2.113-2.432h-9.233a2.129,2.129,0,0,0-1.89,2.432Z" transform="translate(-2125.621 -1130.679)" fill="#1a1a1a"/><path d="M2120.332,1188.115l-.916-11.874a2.452,2.452,0,0,1,2.142-2.534h16.912a2.555,2.555,0,0,1,2.394,2l1.228,12.407Z" transform="translate(-2119.391 -1161.048)" fill="#1a1a1a"/></g></g><path d="M2233.464,1307.361l-.174-17.54H2144.41l.345,26.26,26.956,1.88,54.613-1.212Z" transform="translate(-2044.97 -1220.347)" fill="#1a1311"/><g transform="translate(106.943 74.402)"><path d="M2211.683,1323.155c0,9.16-2.489,16.583-5.56,16.583s-5.562-7.424-5.562-16.583,2.489-16.584,5.563-16.584S2211.683,1314,2211.683,1323.155Z" transform="translate(-2191.545 -1306.571)" fill="#474645"/><path d="M2175.479,1306.571c-3.072,0-5.564,7.425-5.564,16.584s2.492,16.583,5.564,16.583h9.014c-3.074,0-5.562-7.424-5.562-16.583s2.488-16.584,5.562-16.584Z" transform="translate(-2169.915 -1306.571)" fill="#1a1311"/><path d="M2216.363,1337.939c0,5.755-1.418,10.42-3.168,10.42s-3.17-4.664-3.17-10.42,1.419-10.422,3.17-10.422S2216.363,1332.184,2216.363,1337.939Z" transform="translate(-2198.225 -1321.355)" fill="#ebebeb"/><path d="M2217.251,1342.939c0,4.6-1.135,8.336-2.535,8.336s-2.536-3.732-2.536-8.336,1.135-8.338,2.536-8.338S2217.251,1338.335,2217.251,1342.939Z" transform="translate(-2199.746 -1326.355)" fill="none" stroke="#1a1311" stroke-miterlimit="10" stroke-width="2"/><path d="M2219.649,1356.472c0,1.49-.367,2.7-.82,2.7s-.822-1.207-.822-2.7.368-2.7.822-2.7S2219.649,1354.982,2219.649,1356.472Z" transform="translate(-2203.859 -1339.887)" fill="none" stroke="#1a1311" stroke-miterlimit="10" stroke-width="1.3"/></g><rect width="41.876" height="10.383" transform="translate(38.765 82.373)" fill="#302d2c"/><g transform="translate(28.811 55.73)"><rect width="35.924" height="25.107" transform="translate(45.714 25.107) rotate(-180)" fill="#b56635"/><rect width="32.834" height="7.926" transform="translate(44.169 9.047) rotate(-180)" fill="#5e2e1d"/><rect width="32.834" height="14.013" transform="translate(44.169 23.795) rotate(-180)" fill="#f6e6d7"/><rect width="16.417" height="14.013" transform="translate(27.752 23.795) rotate(-180)" fill="#c4d6bd"/><g transform="translate(42.08 11.627)"><path d="M1828.576,1336.436h0a.339.339,0,0,0,.338-.338V1333.1a.339.339,0,0,0-.338-.338h0a.339.339,0,0,0-.338.338v2.994A.339.339,0,0,0,1828.576,1336.436Z" transform="translate(-1828.238 -1332.766)" fill="#5e2e1d"/><path d="M1828.576,1332.766a.334.334,0,0,1,.1.016.338.338,0,0,0-.241.322v2.994a.338.338,0,0,0,.241.322.333.333,0,0,1-.435-.322V1333.1A.339.339,0,0,1,1828.576,1332.766Z" transform="translate(-1828.238 -1332.766)" fill="#481c10"/></g><g transform="translate(12.731 11.627)"><path d="M1739.764,1336.436h0a.339.339,0,0,0,.338-.338V1333.1a.339.339,0,0,0-.338-.338h0a.339.339,0,0,0-.338.338v2.994A.339.339,0,0,0,1739.764,1336.436Z" transform="translate(-1739.426 -1332.766)" fill="#5e2e1d"/><path d="M1739.764,1332.766a.332.332,0,0,1,.1.016.339.339,0,0,0-.242.322v2.994a.339.339,0,0,0,.242.322.333.333,0,0,1-.435-.322V1333.1A.339.339,0,0,1,1739.764,1332.766Z" transform="translate(-1739.426 -1332.766)" fill="#481c10"/></g><rect width="9.79" height="25.107" transform="translate(9.79 25.107) rotate(-180)" fill="#3b1a11"/><rect width="3.703" height="3.517" transform="translate(14.921 28.624) rotate(-180)" fill="#b56635"/><rect width="0.837" height="3.517" transform="translate(11.218 25.107)" fill="#3b1a11"/><rect width="3.703" height="3.517" transform="translate(4.186 28.624) rotate(-180)" fill="#b56635"/><rect width="0.837" height="3.517" transform="translate(0.483 25.107)" fill="#3b1a11"/><rect width="3.703" height="3.517" transform="translate(44.487 28.624) rotate(-180)" fill="#b56635"/><rect width="0.837" height="3.517" transform="translate(40.785 25.107)" fill="#3b1a11"/><rect width="3.703" height="3.517" transform="translate(33.753 28.624) rotate(-180)" fill="#b56635"/><rect width="0.837" height="3.517" transform="translate(30.05 25.107)" fill="#3b1a11"/><rect width="9.79" height="7.845" transform="translate(44.233 8.939) rotate(-180)" fill="#3b1a11"/></g><g transform="translate(54.654 39.795)"><rect width="15.584" height="10.986" transform="translate(30.867 18.37)" fill="#5e2e1d"/><ellipse cx="3.554" cy="4.332" rx="3.554" ry="4.332" transform="translate(3.261 0)" fill="#b56635"/><path d="M2417.122,1318.036h-23.256l-.342-1.656-.776-3.769-.342-1.665-2.009-9.752-1.181-5.736a2.4,2.4,0,0,1,2.045-2.862,2.374,2.374,0,0,1,.3-.019h20.315l.006.027.453,2.2,1.447,7.027.374,1.807.87,4.232.634,3.077.14.678,1.288,6.254Z" transform="translate(-2384.112 -1292.576)" fill="#b56635"/><path d="M2423.379,1322.063h-22.3c.044-.775.058-1.594.045-2.452-.008-.511-.026-1.038-.053-1.575q-.037-.739-.1-1.507-.066-.848-.157-1.73c-.129-1.243-.3-2.533-.495-3.853-.607-4.055-1.514-8.4-2.558-12.656q-.08-.324-.16-.648a10.48,10.48,0,0,0-2.466-4.971c-.035-.033-.07-.065-.106-.1h19.88a3.579,3.579,0,0,1,.44.027,4.474,4.474,0,0,1,3.659,3.875l1.755,10.3.228,1.334.484,2.838.183,1.071,1,5.861.228,1.342.086.5.376,2.211Z" transform="translate(-2387.586 -1292.576)" fill="#914822"/><path d="M2435.266,1296.479l1.756,10.3a41.983,41.983,0,0,0-3.437-4.851c-.026-.031-.051-.063-.078-.094a39.969,39.969,0,0,0-11-9.253h9.1l.005.027A4.473,4.473,0,0,1,2435.266,1296.479Z" transform="translate(-2403.834 -1292.576)" fill="#ab5b30"/><g transform="translate(11.598 4.583)"><path d="M2410.749,1303.8l-.077,2.317.077,2.318.077-2.318Z" transform="translate(-2408.432 -1303.796)" fill="#48261a"/><path d="M2409.822,1309.358l-2.317.077-2.318-.077,2.318-.078Z" transform="translate(-2405.187 -1307.041)" fill="#48261a"/><path d="M2410.764,1309.157a.216.216,0,1,1-.216-.216A.216.216,0,0,1,2410.764,1309.157Z" transform="translate(-2408.231 -1306.84)" fill="#3b1a11"/><g transform="translate(6.771)"><path d="M2427.327,1303.8l-.077,2.317.077,2.318.077-2.318Z" transform="translate(-2425.01 -1303.796)" fill="#48261a"/><path d="M2426.4,1309.358l-2.317.077-2.317-.077,2.317-.078Z" transform="translate(-2421.765 -1307.041)" fill="#48261a"/><path d="M2427.342,1309.157a.216.216,0,1,1-.217-.216A.216.216,0,0,1,2427.342,1309.157Z" transform="translate(-2424.809 -1306.84)" fill="#3b1a11"/></g><g transform="translate(13.541)"><path d="M2443.9,1303.8l-.077,2.317.077,2.318.077-2.318Z" transform="translate(-2441.587 -1303.796)" fill="#48261a"/><path d="M2442.977,1309.358l-2.317.077-2.317-.077,2.317-.078Z" transform="translate(-2438.343 -1307.041)" fill="#48261a"/><path d="M2443.919,1309.157a.216.216,0,1,1-.216-.216A.216.216,0,0,1,2443.919,1309.157Z" transform="translate(-2441.386 -1306.84)" fill="#3b1a11"/></g><g transform="translate(2.048 6.279)"><path d="M2415.765,1319.17l-.078,2.317.078,2.317.077-2.317Z" transform="translate(-2413.447 -1319.17)" fill="#48261a"/><path d="M2414.838,1324.732l-2.317.077-2.317-.077,2.317-.077Z" transform="translate(-2410.204 -1322.415)" fill="#48261a"/><path d="M2415.78,1324.531a.216.216,0,1,1-.216-.217A.216.216,0,0,1,2415.78,1324.531Z" transform="translate(-2413.247 -1322.213)" fill="#3b1a11"/><g transform="translate(6.771)"><path d="M2432.343,1319.17l-.078,2.317.078,2.317.077-2.317Z" transform="translate(-2430.025 -1319.17)" fill="#48261a"/><path d="M2431.416,1324.732l-2.317.077-2.317-.077,2.317-.077Z" transform="translate(-2426.781 -1322.415)" fill="#48261a"/><path d="M2432.357,1324.531a.216.216,0,1,1-.216-.217A.216.216,0,0,1,2432.357,1324.531Z" transform="translate(-2429.824 -1322.213)" fill="#3b1a11"/></g><g transform="translate(13.541)"><path d="M2448.92,1319.17l-.077,2.317.077,2.317.078-2.317Z" transform="translate(-2446.603 -1319.17)" fill="#48261a"/><path d="M2447.993,1324.732l-2.317.077-2.317-.077,2.317-.077Z" transform="translate(-2443.358 -1322.415)" fill="#48261a"/><path d="M2448.935,1324.531a.216.216,0,1,1-.217-.217A.216.216,0,0,1,2448.935,1324.531Z" transform="translate(-2446.402 -1322.213)" fill="#3b1a11"/></g></g><g transform="translate(4.275 12.558)"><path d="M2421.217,1334.544l-.077,2.317.077,2.317.078-2.317Z" transform="translate(-2418.9 -1334.544)" fill="#48261a"/><path d="M2420.29,1340.105l-2.317.077-2.317-.077,2.317-.077Z" transform="translate(-2415.656 -1337.788)" fill="#48261a"/><path d="M2421.233,1339.9a.216.216,0,1,1-.217-.216A.216.216,0,0,1,2421.233,1339.9Z" transform="translate(-2418.699 -1337.587)" fill="#3b1a11"/><g transform="translate(6.771)"><path d="M2437.8,1334.544l-.078,2.317.078,2.317.077-2.317Z" transform="translate(-2435.478 -1334.544)" fill="#48261a"/><path d="M2436.868,1340.105l-2.317.077-2.317-.077,2.317-.077Z" transform="translate(-2432.233 -1337.788)" fill="#48261a"/><path d="M2437.81,1339.9a.217.217,0,1,1-.216-.216A.217.217,0,0,1,2437.81,1339.9Z" transform="translate(-2435.276 -1337.587)" fill="#3b1a11"/></g><g transform="translate(13.541)"><path d="M2454.373,1334.544l-.077,2.317.077,2.317.078-2.317Z" transform="translate(-2452.056 -1334.544)" fill="#48261a"/><path d="M2453.445,1340.105l-2.317.077-2.318-.077,2.318-.077Z" transform="translate(-2448.811 -1337.788)" fill="#48261a"/><path d="M2454.388,1339.9a.216.216,0,1,1-.216-.216A.217.217,0,0,1,2454.388,1339.9Z" transform="translate(-2451.854 -1337.587)" fill="#3b1a11"/></g></g></g><g transform="translate(21.774 13.411)"><path d="M2446.8,1328.07a1.033,1.033,0,0,1-.026.142q-.124.47-.238.946a.074.074,0,0,1,0,.01.022.022,0,0,0,0,.009q-.142.593-.269,1.194-.154.729-.286,1.468c-.167.941-.31,1.89-.422,2.84q-.155,1.317-.239,2.625c0,.014,0,.026,0,.04v.021q-.045.744-.067,1.479a1.149,1.149,0,0,1-.02.169v0a.662.662,0,0,1-.1.233.5.5,0,0,1-.106.116.592.592,0,0,1-.61.042c-.227-.09-.456-.177-.683-.261q-1.374-.508-2.733-.874-.844-.227-1.691-.4l-.1-.021q-1.284-.257-2.583-.391a29.093,29.093,0,0,0-4.043-.128q-.886.033-1.8.115a.778.778,0,0,1-.212,0,.521.521,0,0,1-.358-.2.668.668,0,0,1-.07-.57c.024-.089.046-.179.07-.268a48.062,48.062,0,0,0,1.459-10.363.562.562,0,0,1,.833-.564,29.655,29.655,0,0,0,6.6,1.8l.147.021q1.238.176,2.5.239c.188.01.376.017.564.023a31.5,31.5,0,0,0,3.82-.12.647.647,0,0,1,.5.131.5.5,0,0,1,.1.12A.624.624,0,0,1,2446.8,1328.07Z" transform="translate(-2430.106 -1325.413)" fill="#149bb3"/><g transform="translate(14.676 2.274)"><path d="M2468.053,1331.363c-.092.361-.18.722-.264,1.088,0,0,0,.007,0,.01a.038.038,0,0,0,0,.009q-.137.593-.26,1.194-.151.73-.28,1.469c-.167.951-.31,1.91-.426,2.869q-.159,1.3-.249,2.594l0,.04v.021q-.058.829-.088,1.649v0a.668.668,0,0,1-.095.233.5.5,0,0,1-.107.116c-.023-.14-.045-.278-.064-.418a16.489,16.489,0,0,1-.153-1.645,19.923,19.923,0,0,1,.235-3.987c.083-.53.185-1.042.3-1.532s.24-.968.374-1.413a18.67,18.67,0,0,1,1.021-2.685Z" transform="translate(-2466.039 -1330.98)" fill="#127f8a"/></g><g transform="translate(1.523 3.979)"><path d="M2451.384,1345.315a.376.376,0,0,1-.171.341.586.586,0,0,1-.49.031q-.751-.229-1.5-.436a58.227,58.227,0,0,0-14.857-2.164c-.391-.005-.619-.25-.51-.558a18.127,18.127,0,0,0,1.134-6.964c-.007-.326.288-.488.66-.372a58.221,58.221,0,0,0,14.969,2.557q.686.028,1.384.042a.769.769,0,0,1,.257.045.383.383,0,0,1,.252.513A18.115,18.115,0,0,0,2451.384,1345.315Z" transform="translate(-2433.834 -1335.155)" fill="#e7b178"/><path d="M2476.028,1349.438v0c0,.224-.166.457-.274.245-.593-1.161-.169-5.7,1.195-7.457.13-.167.228-.132.239.071a.428.428,0,0,1-.027.172A18.125,18.125,0,0,0,2476.028,1349.438Z" transform="translate(-2458.478 -1339.278)" fill="#be8e5c"/></g></g><path d="M2.907,0h15.13a2.907,2.907,0,0,1,2.907,2.907v0A2.094,2.094,0,0,1,18.851,5H1.913A1.913,1.913,0,0,1,0,3.088v-.18A2.907,2.907,0,0,1,2.907,0Z" transform="translate(42.47 30.303) rotate(180)" fill="#48261a"/><path d="M2392.3,1355.474h12.3l-2.427-17.921h-12.6v15.2A2.717,2.717,0,0,0,2392.3,1355.474Z" transform="translate(-2384.356 -1319.184)" fill="#4b1e0e"/><path d="M2402.789,1358.77l1.811,9.255h-12.3a2.717,2.717,0,0,1-2.718-2.718v-6.538Z" transform="translate(-2384.356 -1331.735)" fill="#b56635"/><rect width="2.757" height="8.043" transform="translate(44.126 44.333) rotate(180)" fill="#4b2117"/><rect width="2.757" height="8.043" transform="translate(32.979 44.333) rotate(180)" fill="#4b2117"/><ellipse cx="4.332" cy="4.332" rx="4.332" ry="4.332" transform="matrix(0.772, -0.635, 0.635, 0.772, 40.353, 22.108)" fill="#945029"/><ellipse cx="4.332" cy="4.332" rx="4.332" ry="4.332" transform="translate(11.439 23.234) rotate(-49.977)" fill="#945029"/><ellipse cx="4.332" cy="4.332" rx="4.332" ry="4.332" transform="matrix(0.973, -0.233, 0.233, 0.973, 0, 19.498)" fill="#4b1e0e"/><path d="M2423.941,1348.875v6.054a.949.949,0,0,0,.949.949h18.448a.847.847,0,0,0,.847-.847v-6.156h4.427v10.5a2.792,2.792,0,0,1-2.792,2.792h-23.513a2.792,2.792,0,0,1-2.792-2.792v-10.5Z" transform="translate(-2402.066 -1325.881)" fill="#945029"/><rect width="1.119" height="8.043" transform="translate(41.369 44.333) rotate(180)" fill="#c27447"/><rect width="1.119" height="8.043" transform="translate(30.198 44.333) rotate(180)" fill="#c27447"/><rect width="2.757" height="8.043" transform="translate(23.969 44.333) rotate(180)" fill="#4b2117"/><rect width="2.757" height="8.043" transform="translate(12.823 44.333) rotate(180)" fill="#4b2117"/><rect width="1.119" height="8.043" transform="translate(21.212 44.333) rotate(180)" fill="#c27447"/><rect width="1.119" height="8.043" transform="translate(10.066 44.333) rotate(180)" fill="#c27447"/></g><g transform="translate(158.195 74.402)"><path d="M2385.9,1323.155c0,9.16-2.491,16.583-5.56,16.583s-5.562-7.424-5.562-16.583,2.488-16.584,5.562-16.584S2385.9,1314,2385.9,1323.155Z" transform="translate(-2365.76 -1306.571)" fill="#474645"/><path d="M2349.693,1306.571c-3.073,0-5.565,7.425-5.565,16.584s2.493,16.583,5.565,16.583h9.013c-3.074,0-5.562-7.424-5.562-16.583s2.488-16.584,5.562-16.584Z" transform="translate(-2344.128 -1306.571)" fill="#1a1311"/><path d="M2390.579,1337.939c0,5.755-1.418,10.42-3.169,10.42s-3.169-4.664-3.169-10.42,1.419-10.422,3.169-10.422S2390.579,1332.184,2390.579,1337.939Z" transform="translate(-2372.44 -1321.355)" fill="#ebebeb"/><path d="M2391.465,1342.939c0,4.6-1.134,8.336-2.536,8.336s-2.535-3.732-2.535-8.336,1.135-8.338,2.535-8.338S2391.465,1338.335,2391.465,1342.939Z" transform="translate(-2373.959 -1326.355)" fill="none" stroke="#1a1311" stroke-miterlimit="10" stroke-width="2"/><path d="M2393.864,1356.472c0,1.49-.368,2.7-.821,2.7s-.821-1.207-.821-2.7.368-2.7.821-2.7S2393.864,1354.982,2393.864,1356.472Z" transform="translate(-2378.074 -1339.887)" fill="none" stroke="#1a1311" stroke-miterlimit="10" stroke-width="1.3"/></g><g transform="translate(97.873 3.398)"><path d="M2139.317,1110.074c.331-7.542,2.155-26.957,2.878-30.762,1.469-7.728,6.654-14.1,12.513-14.1H2191.9c11.429,0,21.643,12.466,23.707,14.722s15.105,23.992,16.979,33.816c.778,4.081.144,37.437.144,37.437l-10.114,6.575c-.825-2.457-.111-9.554-1.7-16.78-1.089-4.973-3.137-9.047-5.687-9.047-7.616,0-9.419,16.177-9.587,26.149h-36.2a68.681,68.681,0,0,0,.376-14.6c-.555-6.025-2.432-11.552-6.508-11.552-6.589,0-8.863,13.417-9.847,21.466a10.9,10.9,0,0,1-1.094,3.195l-12.2-2.756-1.014-2.188S2138.911,1119.332,2139.317,1110.074Zm65.917-5.459c.683.108,20.476,2.032,20.966,2.032,1.376,0,2.381-1.078.877-4.149-.724-1.478-2.075-4.681-3.941-8.176-2.608-4.884-5.8-10.161-6.012-10.517a5.011,5.011,0,0,0-4.064-2.471h-10.553c-1.277,0-1.656,1.228-1.348,2.965.671,3.771,1.657,14.51,2.029,17.742A2.577,2.577,0,0,0,2205.233,1104.615Zm-57.593-20.707c-.063,5.044.378,13.281.6,21.879a2.728,2.728,0,0,0,2.726,2.965c.648,0,46.33-.068,47.034-.068s1.578-.849,1.548-2.284c-.112-5.239-1.46-18.624-1.766-22.795-.086-1.163-.763-2.218-1.565-2.218-.916,0-45.457-.054-46.139-.054A2.8,2.8,0,0,0,2147.64,1083.907Z" transform="translate(-2139.083 -1065.216)" fill="#c5c6c6"/></g><g transform="translate(159.847 19.515)" opacity="0.2"><path d="M2353.919,1143.281c.683.108,20.476,2.032,20.966,2.032,1.376,0,2.381-1.078.877-4.149-.723-1.478-2.075-4.681-3.941-8.176-2.607-4.884-5.8-10.161-6.012-10.517a5.01,5.01,0,0,0-4.064-2.471h-10.553c-1.277,0-1.657,1.228-1.348,2.965.672,3.772,1.657,14.51,2.029,17.742A2.578,2.578,0,0,0,2353.919,1143.281Z" transform="translate(-2349.742 -1119.999)" fill="#fff"/></g><g transform="translate(159.847 19.515)"><path d="M2353.919,1143.281c.683.108,20.476,2.032,20.966,2.032,1.376,0,2.381-1.078.877-4.149-.723-1.478-2.075-4.681-3.941-8.176-2.607-4.884-5.8-10.161-6.012-10.517a5.01,5.01,0,0,0-4.064-2.471h-10.553c-1.277,0-1.657,1.228-1.348,2.965.672,3.772,1.657,14.51,2.029,17.742A2.578,2.578,0,0,0,2353.919,1143.281Z" transform="translate(-2349.742 -1119.999)" fill="none" stroke="#1a1311" stroke-miterlimit="10" stroke-width="3"/></g><path d="M2218.3,1122.271c-.086-1.163-.763-2.218-1.565-2.218-.916,0-45.457-.054-46.139-.054a2.8,2.8,0,0,0-2.437,2.575c-.063,5.044.378,13.281.6,21.879a2.729,2.729,0,0,0,2.726,2.965c.648,0,46.33-.068,47.034-.068s1.578-.849,1.547-2.284C2219.952,1139.827,2218.6,1126.441,2218.3,1122.271Zm-47.375,22.127c-.083-3.227-.195-6.349-.3-9.37-.18-5-.335-9.322-.3-12.427,0-.179.279-.366.429-.434l21.315.025a3.644,3.644,0,0,1,.249,1.125c.065.849,1.552,19.979,1.606,20.8a2.319,2.319,0,0,1-.159,1.1l-22.281.033C2171.281,1145.25,2170.945,1145.25,2170.923,1144.4Zm46.972.785-21.174.031a2.575,2.575,0,0,1-.329-1.092c-.074-.825-1.555-19.956-1.622-20.8a3.377,3.377,0,0,1,.071-1.121l21.26.024a1.171,1.171,0,0,1,.034.21c.093,1.271.281,3.384.5,5.829.5,5.6,1.183,13.264,1.26,16.853Z" transform="translate(-2061.726 -1100.484)" fill="#1a1311"/><path d="M2218.3,1122.271c-.086-1.163-.763-2.218-1.565-2.218-.916,0-45.457-.054-46.139-.054a2.8,2.8,0,0,0-2.437,2.575c-.063,5.044.378,13.281.6,21.879a2.729,2.729,0,0,0,2.726,2.965c.648,0,46.33-.068,47.034-.068s1.578-.849,1.547-2.284C2219.952,1139.827,2218.6,1126.441,2218.3,1122.271Z" transform="translate(-2061.726 -1100.484)" fill="#1a1311" opacity="0.7"/><path d="M2375.885,1093.161h-.131S2375.8,1093.16,2375.885,1093.161Z" transform="translate(-2208.255 -1081.542)" fill="#e2372e"/><path d="M2434.485,1298.181s-.554-5.022-2.774-5.044v0h-6.077v19.678h-4.544s-.239,6.364.961,6.364h8.031a3.249,3.249,0,0,0,1.267-.185C2434.636,1316.982,2434.485,1298.181,2434.485,1298.181Z" transform="translate(-2240.239 -1222.685)" fill="#302d2c"/><path d="M2276.4,1382.255h-36.358l.675-1.342h36.23Z" transform="translate(-2112.465 -1284.64)" fill="#8e8e8f"/><path d="M2364.313,1216.526c.018.448.3.81.631.809l2.789,0c.333,0,.583-.362.566-.811l-.09-2.263c-.018-.447-.3-.809-.629-.809l-2.79,0c-.329,0-.584.364-.566.811Z" transform="translate(-2200.116 -1166.443)"/><g transform="translate(97.873 3.398)"><g clip-path="url(#a)"><g transform="translate(-0.034 13.598)"><path d="M2437.712,1230.2h6.9v6.283h-8.055V1232.3S2436.707,1230.2,2437.712,1230.2Z" transform="translate(-2349.007 -1195.263)" fill="#e85400"/><rect width="8.055" height="12.189" transform="translate(87.547 41.232)" fill="#d4d5d5"/><g transform="translate(0 30.353)"><path d="M2142.841,1216.709l-.084,4.186h-3.166c.076-2.17.186-4.021.331-5.377.031-.287.061-.593.1-.907h1.743C2142.735,1214.612,2142.841,1216.709,2142.841,1216.709Z" transform="translate(-2139.407 -1214.612)" fill="#e85400"/><path d="M2139.15,1236h3.165l-.333,16.417h-3.007C2138.948,1246.6,2138.982,1240.586,2139.15,1236Z" transform="translate(-2138.966 -1229.706)" fill="#dc000c"/></g><line x1="76.89" transform="translate(3.223 0.001)" fill="none" stroke="#5f5e5e" stroke-miterlimit="10" stroke-width="1.6"/><path d="M2343.226,1193.45c3.791-24.629,1.8-63.452-.922-82.014" transform="translate(-2282.484 -1111.436)" fill="none" stroke="#5f5e5e" stroke-miterlimit="10" stroke-width="1.033"/></g></g></g><path d="M1957.743,1144.409a2.878,2.878,0,0,1-2.786,2.5s-16.993.834-33.429.834-32.492-.834-32.492-.834c-1.381,0-2.067-.185-1.7-2.5a82.448,82.448,0,0,1,7.211-22.392c.788-1.658,1.925-2.5,3.307-2.5,0,0,16.28-.248,27.253-.248s32.958.248,32.958.248a2.19,2.19,0,0,1,2.218,2.5Z" transform="translate(-1863.456 -1099.969)" fill="#1a1311" opacity="0.7"/><path d="M2136.6,1342.463c-.043-1.026.141-2.066.551-2.066h4.522l.594,4.805,9.651,1.889s-.558,4.43-1.472,4.148c-2.892-.9-11.833-2.8-12.576-3.118S2136.7,1344.753,2136.6,1342.463Z" transform="translate(-2039.456 -1256.043)" fill="#1a1a1a"/><path d="M4.889,0h0A4.889,4.889,0,0,1,9.779,4.889v.948a4.889,4.889,0,0,1-4.889,4.889h0A4.889,4.889,0,0,1,0,5.838V4.889A4.889,4.889,0,0,1,4.889,0Z" transform="translate(183.197 35.49)"/><path d="M3.39,0h0A3.388,3.388,0,0,1,6.778,3.388V5.67A3.388,3.388,0,0,1,3.39,9.058h0A3.388,3.388,0,0,1,0,5.67V3.39A3.39,3.39,0,0,1,3.39,0Z" transform="translate(184.364 36.324)" fill="#fff"/><path d="M1973.817,1057.178H2037.5c0-1.837-7.359-3.326-9.2-3.326h-53.318S1974.111,1057.472,1973.817,1057.178Z" transform="translate(-1924.563 -1053.797)" fill="#a6a7a7"/><g transform="translate(0 0)"><path d="M1899.818,1074.789c-.171.368-1.527.666-3.029.667,0,0-18.471.227-36.338.233s-35.32-.211-35.32-.211c-1.5,0-2.248-.049-1.844-.665,1.55-2.366,4.761-4.376,7.837-5.961a8.074,8.074,0,0,1,3.594-.667s17.7-.071,29.625-.075,35.826.055,35.826.055c1.5,0,2.582.3,2.411.665Z" transform="translate(-1818.242 -1063.86)" fill="#1a1311" opacity="0.7"/><path d="M1813.933,1060.039c-2.571,1.562-4.95,3.02-6.017,5.357-1.7,3.723-1.513,9.842-1.513,9.842l85.559-.027s.7-5.524.851-9.6a25.431,25.431,0,0,1,2.236-7c1.73-2.484,8.129-4.892,14.154-4.944l-70.084.022a110.606,110.606,0,0,0-11.786,1.427A50.567,50.567,0,0,0,1813.933,1060.039Zm74.04,4.556c-.171.368-1.527.666-3.029.667,0,0-18.471.227-36.338.233s-35.32-.211-35.32-.211c-1.5,0-2.248-.049-1.844-.665,1.55-2.366,4.761-4.376,7.837-5.961a8.078,8.078,0,0,1,3.594-.667s17.7-.071,29.625-.075,35.826.055,35.826.055c1.5,0,2.582.3,2.412.665Z" transform="translate(-1806.397 -1053.666)" fill="#d4d5d5"/><g clip-path="url(#b)"><g transform="translate(-1.085 11.733)"><path d="M2080.145,1093.55h4.816v1.672l-6.8,0v-1.114S2078.418,1093.551,2080.145,1093.55Z" transform="translate(-1997.123 -1093.549)" fill="#e85400"/><rect width="6.805" height="4.369" transform="translate(81.035 1.675)" fill="#dc000c"/><path d="M1807.527,1093.637l-4.817,0v1.672l6.806,0v-1.114S1809.253,1093.637,1807.527,1093.637Z" transform="translate(-1802.71 -1093.611)" fill="#e85400"/><rect width="6.806" height="4.369" transform="translate(0.001 1.701)" fill="#dc000c"/></g></g><path d="M1927.255,1110.949c0,.368-1.217.666-2.72.667l-32.082.01c-1.5,0-2.719-.3-2.72-.665v-2.172c0-.368,1.218-.666,2.719-.667l32.082-.01c1.5,0,2.72.3,2.72.665Z" transform="translate(-1865.216 -1092.095)" fill="#a6a7a7"/><path d="M1889.733,1108.789c0-.368,1.218-.666,2.719-.667l32.082-.01c1.5,0,2.72.3,2.72.665Z" transform="translate(-1865.216 -1092.095)" fill="#fff"/><path d="M1932.608,1113.726c0,.073-.244.133-.544.133l-28.782.009c-.3,0-.544-.059-.544-.133v-1.7c0-.073.244-.133.544-.134l28.782-.009c.3,0,.544.059.544.133Z" transform="translate(-1874.395 -1094.765)" fill="#d9d9d9"/><path d="M1964.357,1064.456a2.01,2.01,0,0,1-1.1.217l-13.292,0c-.51,0-.847-.1-.752-.217l.284-.355a2.011,2.011,0,0,1,1.1-.217l13.292,0c.51,0,.848.1.752.218Z" transform="translate(-1907.188 -1060.875)" fill="#dc000c"/></g><path d="M1906.924,1347.227c-1.981-.022-1.966-.715-1.965-.638.028,2.28-.107-4.289-.107-4.289s-.364-1.9-1.871-1.9h-21.666c-2.754,0-3.439,5.047-3.439,5.047s-.212,5.792,4.594,5.792c.1,0,22.853-.858,22.853-.858Z" transform="translate(-1856.846 -1256.043)" fill="#1a1311"/><g transform="translate(16.721 84.354)"><path d="M1948.275,1346.8l-3.2-6.407h-22.608c-1.507,0-1.87,1.9-1.87,1.9a18.774,18.774,0,0,1-.115,4.13.661.661,0,0,1-.466.558h-30.26s-.464-.148-.464-.559c0-2.489-.115-4.13-.115-4.13s-.365-1.9-1.872-1.9h-21.666c-2.755,0-2.491,3.083-2.291,4.4a16.935,16.935,0,0,0,1.018,3.327h86.683Z" transform="translate(-1863.236 -1340.397)" fill="#333"/><path d="M1871.262,1369.777c.141,0,88.739-.077,89.046,0l-6.538-3.11h-86.683A4.164,4.164,0,0,0,1871.262,1369.777Z" transform="translate(-1865.954 -1358.939)"/></g><g transform="translate(38.765 28.194)"><rect width="11.176" height="10.368" transform="translate(0 0)" fill="#f6e6d7"/><rect width="2.494" height="10.368" transform="translate(8.682 0)" fill="#d2b9a6"/><path d="M1885.2,1262.355a2.886,2.886,0,0,0-5.685,0Z" transform="translate(-1876.774 -1234.819)" fill="#3b1a11"/><rect width="1.77" height="2.406" transform="translate(4.703 18.555)" fill="#3b1a11"/><path d="M1884.477,1250.04h0a1.8,1.8,0,0,1-1.8-1.8v-2.074a1.8,1.8,0,0,1,1.8-1.8h0a1.8,1.8,0,0,1,1.8,1.8v2.074A1.8,1.8,0,0,1,1884.477,1250.04Z" transform="translate(-1878.89 -1224.375)" fill="#945029"/><rect width="1.036" height="2.375" transform="translate(5.07 10.368)" fill="#3b1a11"/><ellipse cx="1.403" cy="1.101" rx="1.403" ry="1.101" transform="translate(4.184 12.512)" fill="#945029"/><path d="M1886.246,1228.956l-.429,2.145a1.475,1.475,0,0,1-.478.806,1.8,1.8,0,0,1-1.8,0,1.479,1.479,0,0,1-.478-.806q-.215-1.073-.429-2.145a1.029,1.029,0,0,1,.458-.95,2.706,2.706,0,0,1,2.694,0A1.027,1.027,0,0,1,1886.246,1228.956Z" transform="translate(-1878.853 -1213.179)" fill="#945029"/><path d="M1889.623,1230.214a1.659,1.659,0,0,0,.682-1.337v-2.35a1.663,1.663,0,0,0-.913-1.48v-1.441l.013-.007a1.476,1.476,0,0,0,.478-.806l.429-2.145a1.026,1.026,0,0,0-.458-.949,2.68,2.68,0,0,0-.64-.265,1.084,1.084,0,0,0,.7-.95,1.14,1.14,0,0,0-.885-1.022v-2.222h-.328v2.154a1.218,1.218,0,0,1,.885,1.09,1.085,1.085,0,0,1-.7.95,2.683,2.683,0,0,1,.64.265,1.027,1.027,0,0,1,.458.949q-.215,1.072-.429,2.145a1.959,1.959,0,0,1-.491.957s0-.148,0-.145v1.315a1.865,1.865,0,0,1,.913,1.606v2.35a1.869,1.869,0,0,1-.585,1.48,2.166,2.166,0,0,1,1.629,2.051h.328A2.429,2.429,0,0,0,1889.623,1230.214Z" transform="translate(-1882.919 -1204.872)" fill="#945029" opacity="0.44" style="mix-blend-mode:multiply;isolation:isolate"/></g></g></g></svg>