<svg xmlns="http://www.w3.org/2000/svg" width="251" height="142" viewBox="0 0 251 142"><g transform="translate(-1654.89 -1120.098)"><rect width="251" height="142" transform="translate(1654.89 1120.098)" fill="#fff" opacity="0"/><path d="M1887.273,1476.951c0,.622-37.636,1.125-84.063,1.125s-84.062-.5-84.062-1.125,37.636-1.127,84.062-1.127S1887.273,1476.328,1887.273,1476.951Z" transform="translate(-25.027 -222.313)" fill="#8e8e8f"/><g transform="translate(1681.106 1132.318)"><path d="M1684.184,1229.859h.3v-88.178h-.3v-.184h-.938v88.935h.938Z" transform="translate(-1683.246 -1141.498)" fill="#2b2726"/></g><path d="M2134.025,1261.545h-30.732v-33.462h24.942Z" transform="translate(-269.92 -64.378)" fill="#fff" opacity="0.4"/><g transform="translate(1850.636 1192.101)"><g transform="translate(14.666 1.827)"><path d="M2191.433,1311.786a2.976,2.976,0,0,0,2.172,2.5,3.611,3.611,0,0,0-2.23-2.825C2191.4,1311.606,2191.422,1311.72,2191.433,1311.786Z" transform="translate(-2191.375 -1311.457)"/></g><path d="M2152.209,1307.654c.194.523,1.585,2.71,2.5,4.156.712,1.121,1.12,1.765,1.216,1.969a3.588,3.588,0,0,0,1.538,1.5,48.976,48.976,0,0,0,5.1.9.354.354,0,0,0,.282-.058.61.61,0,0,0,.078-.417c-.016-.165-.3-1.936-1.246-7.539h-.06a6.425,6.425,0,0,0-3.8-1.74h-6.9A2.02,2.02,0,0,1,2152.209,1307.654Z" transform="translate(-2150.918 -1306.418)"/></g><g transform="translate(1837.986 1168.075)"><path d="M2116.739,1244.836a.9.9,0,0,0,.9-.9v-2.9a.9.9,0,0,0-.9-.9h-.72c.018,1.39.051,2.986.094,4.7Z" transform="translate(-2116.019 -1240.139)"/></g><g transform="translate(1838.679 1186.865)"><path d="M2133.052,1299.9c.716-4.374-2.8-7.933-7.838-7.933a11.425,11.425,0,0,0-7.283,2.683c.018.393.036.775.053,1.137a1.265,1.265,0,0,0,.182.6,9.343,9.343,0,0,1,6.816-3.011c3.813,0,6.558,2.481,6.513,5.68.3.534.771,1.294,1.25,2.057A7.579,7.579,0,0,0,2133.052,1299.9Z" transform="translate(-2117.931 -1291.971)"/></g><g transform="translate(1779.518 1244.988)"><g transform="translate(0 0)"><path d="M1968.1,1453.274v-.961h-2.314c-.012.1-.021.2-.033.294.712,5.514,2.5,9.428,4.606,9.428,2.013,0,3.744-3.6,4.51-8.76Z" transform="translate(-1961.758 -1452.313)" fill="#1a1311"/><g transform="translate(0 0.294)"><path d="M1958.725,1453.124c-.643,4.974-2.165,8.642-4,9.313a1.762,1.762,0,0,0,.606.115h8C1961.228,1462.552,1959.437,1458.638,1958.725,1453.124Z" transform="translate(-1954.727 -1453.124)" fill="#302d2c"/></g></g></g><path d="M2102.962,1273.367s.215-16.517,0-25.955-.706-30.226-.731-32.115,1.929-5.075,7.325-5.075h2.767l.187-.083h-12.318v63.233h3.83v-.005Z" transform="translate(-267.943 -52.939)" fill="#d4d5d5"/><path d="M1940.029,1400.7h-.009l-2.734-13.058v0h-17.427c-1.344,0-1.682-3.034-1.683-3.041h-3.288v.236h.3v2.923H1809.647l-.127,14.61h1.927v7.736h27.076v-.961H1868.5v.961h36.265v-.961h21.82l14.388-6.16A10.117,10.117,0,0,1,1940.029,1400.7Z" transform="translate(-82.64 -164.159)" fill="#1a1311"/><path d="M1947.8,1393.092c-1.942,0-1.567.069-.259.069-1.419,0-2.793,1.632-3.616,3.69h-.026a29.267,29.267,0,0,0-1.774,7.975,1,1,0,0,1-1.052,1.007h11.079s.663.021.663-1.007C1952.813,1403.044,1951.005,1393.092,1947.8,1393.092Z" transform="translate(-166.504 -169.571)" fill="#302d2c"/><g transform="translate(1755.373 1248.027)"><path d="M1913.592,1460.7h-3.409c.88,4.022,2.4,6.682,4.135,6.682a2.358,2.358,0,0,0,1.7-.911A13.162,13.162,0,0,1,1913.592,1460.7Z" transform="translate(-1902.186 -1460.697)" fill="#302d2c"/><path d="M1896.119,1460.7h-8c.881,4.022,2.4,6.682,4.135,6.682h8C1898.521,1467.379,1897,1464.719,1896.119,1460.7Z" transform="translate(-1888.121 -1460.697)" fill="#1a1311"/></g><g transform="translate(1766.78 1225.283)"><path d="M1944.839,1397.955a1.731,1.731,0,0,0-.46.066,9.456,9.456,0,0,0-1.032,1.931h-.026a29.278,29.278,0,0,0-1.774,7.975.955.955,0,0,1-.249.694l-1.13,8.791c.662,5.8,2.5,9.97,4.671,9.97,2.724,0,4.933-6.587,4.933-14.713S1947.563,1397.955,1944.839,1397.955Z" transform="translate(-1932.707 -1397.955)" fill="#474645"/><g transform="translate(0 19.456)"><path d="M1927.047,1451.627l-.423,3.288h-7.038c.881,4.022,2.4,6.682,4.135,6.682h8C1929.549,1461.6,1927.709,1457.425,1927.047,1451.627Z" transform="translate(-1919.587 -1451.627)" fill="#1a1311"/></g><path d="M1951.88,1422.284c0,5.105-1.258,9.244-2.811,9.244s-2.812-4.139-2.812-9.244,1.259-9.247,2.812-9.247S1951.88,1417.177,1951.88,1422.284Z" transform="translate(-1936.589 -1407.57)" fill="#ebebeb"/><path d="M1949.6,1432.733c-1.631,0-2.511-3.944-2.511-7.656s.88-7.658,2.511-7.658,2.51,3.946,2.51,7.658S1951.23,1432.733,1949.6,1432.733Zm0-14.793c-.941,0-1.99,2.931-1.99,7.136s1.049,7.135,1.99,7.135,1.988-2.93,1.988-7.135S1950.539,1417.94,1949.6,1417.94Z" transform="translate(-1937.119 -1410.363)" fill="#1a1311"/><path d="M1953.458,1434.337c0,1.322-.326,2.393-.727,2.393s-.73-1.071-.73-2.393.327-2.393.73-2.393S1953.458,1433.015,1953.458,1434.337Z" transform="translate(-1940.252 -1419.623)" fill="#1a1311"/></g><g transform="translate(1704.58 1248.027)"><path d="M1773.553,1460.7h-3.486c.881,4.022,2.4,6.682,4.135,6.682a2.39,2.39,0,0,0,1.744-.951A13.322,13.322,0,0,1,1773.553,1460.7Z" transform="translate(-1762.068 -1460.697)" fill="#1a1311"/><path d="M1756,1460.7h-8c.882,4.022,2.4,6.682,4.136,6.682h8C1758.4,1467.379,1756.881,1464.719,1756,1460.7Z" transform="translate(-1748.002 -1460.697)" fill="#302d2c"/></g><g transform="translate(1716.065 1239.422)"><path d="M1805.084,1443.485v-6.528h-5.54c0,.191-.005.383-.005.575,0,8.126,2.207,14.713,4.934,14.713,2.014,0,3.745-3.6,4.512-8.76Z" transform="translate(-1792.341 -1436.957)" fill="#1a1311"/><path d="M1786.881,1437.532c0-.193,0-.384.005-.575h-2.039l-1.107,8.605h-4.057c.881,4.023,2.4,6.683,4.136,6.683h8C1789.088,1452.245,1786.881,1445.658,1786.881,1437.532Z" transform="translate(-1779.683 -1436.957)" fill="#302d2c"/></g><g transform="translate(1759.519 1223.59)"><path d="M1899.558,1403.272v8.343h6.459v.708h8.589a1,1,0,0,0,1.052-1.007,29.238,29.238,0,0,1,1.8-8.044Z" transform="translate(-1899.558 -1399.651)" fill="#302d2c"/><path d="M1899.558,1393.3v3.677h17.9c.823-2.058,2.2-3.69,3.615-3.69C1919.078,1393.283,1899.558,1393.3,1899.558,1393.3Z" transform="translate(-1899.558 -1393.283)" fill="#1a1311"/></g><path d="M1770.017,1405.564v-.294h-6.459v-4.839h.228a1.737,1.737,0,0,0,1.734-1.677v-2.764a1.735,1.735,0,0,0-1.734-1.666h-.228v-1.006H1703.8v1.006h-15.837a1.736,1.736,0,0,0-1.734,1.677v2.764a1.734,1.734,0,0,0,1.734,1.666H1703.8v4.839h-7.784a.443.443,0,0,0-.486.38v3.133c0,.3.7.355.442.355h8.388l-1.106,8.606h20.911l1.107-8.606h32.784l-1.106,8.606h20.911l1.566-12.179Z" transform="translate(-4.038 -169.716)"/><g transform="translate(1837.386 1225.283)"><path d="M2146.3,1412.669c0,8.126-2.208,14.713-4.932,14.713s-4.935-6.587-4.935-14.713,2.208-14.714,4.935-14.714S2146.3,1404.543,2146.3,1412.669Z" transform="translate(-2128.432 -1397.955)" fill="#474645"/><path d="M2119.3,1397.955c-2.725,0-4.937,6.588-4.937,14.714s2.212,14.713,4.937,14.713h8c-2.728,0-4.935-6.587-4.935-14.713s2.208-14.714,4.935-14.714Z" transform="translate(-2114.364 -1397.955)" fill="#1a1311"/><path d="M2148.869,1422.284c0,5.105-1.258,9.244-2.811,9.244s-2.812-4.139-2.812-9.244,1.259-9.247,2.812-9.247S2148.869,1417.177,2148.869,1422.284Z" transform="translate(-2132.776 -1407.57)" fill="#ebebeb"/><path d="M2146.587,1432.733c-1.631,0-2.511-3.944-2.511-7.656s.88-7.658,2.511-7.658,2.51,3.946,2.51,7.658S2148.218,1432.733,2146.587,1432.733Zm0-14.793c-.941,0-1.989,2.931-1.989,7.136s1.048,7.135,1.989,7.135,1.988-2.93,1.988-7.135S2147.528,1417.94,2146.587,1417.94Z" transform="translate(-2133.305 -1410.363)" fill="#1a1311"/><path d="M2150.449,1434.337c0,1.322-.326,2.393-.728,2.393s-.729-1.071-.729-2.393.327-2.393.729-2.393S2150.449,1433.015,2150.449,1434.337Z" transform="translate(-2136.439 -1419.623)" fill="#1a1311"/></g><path d="M2203.8,1277.851h-4.983a2.253,2.253,0,0,0-2.253,2.253v9.924a2.239,2.239,0,0,0,.322,1.156h-5.976a.444.444,0,0,0,0,.887h6.962a2.247,2.247,0,0,0,.946.21h4.983a2.252,2.252,0,0,0,2.252-2.253V1280.1A2.253,2.253,0,0,0,2203.8,1277.851Z" transform="translate(-325.493 -96.105)"/><path d="M3.323,0h0A3.322,3.322,0,0,1,6.645,3.322V9.63a3.321,3.321,0,0,1-3.321,3.321h0A3.324,3.324,0,0,1,0,9.627v-6.3A3.323,3.323,0,0,1,3.323,0Z" transform="translate(1872.111 1182.486)" fill="#fff"/><rect width="78.906" height="96.504" transform="translate(1682.34 1127.098)" fill="#d4d5d5"/><rect width="76.473" height="88.178" transform="translate(1684.773 1132.502)" fill="#5f5e5e"/><rect width="2.433" height="88.178" transform="translate(1682.34 1132.502)" fill="#d4d5d5"/><rect width="1.217" height="88.935" transform="translate(1679.89 1132.318)" fill="#d4d5d5"/><rect width="79.201" height="2.923" transform="translate(1682.044 1220.679)" fill="#bdbebf"/><rect width="79.201" height="5.403" transform="translate(1682.044 1127.098)" fill="#bdbebf"/><rect width="4.473" height="2.237" transform="translate(1684.407 1129.486)" fill="#f38200"/><rect width="0.672" height="2.237" transform="translate(1688.88 1129.486)" fill="#e85400"/><rect width="4.473" height="2.237" transform="translate(1753.07 1129.486)" fill="#f38200"/><rect width="0.672" height="2.237" transform="translate(1757.543 1129.486)" fill="#e85400"/><path d="M2125.846,1384.6h-16.584s.336,3.042,1.683,3.042h17.427C2128.365,1387.619,2127.451,1384.749,2125.846,1384.6Z" transform="translate(-273.726 -164.158)" fill="#302d2c"/><rect width="71.285" height="2.923" transform="translate(1761.259 1220.679)" fill="#767676"/><path d="M1906.586,1132.5h-2.228v-5.4h71.285v5.4h-69.057Z" transform="translate(-143.099)" fill="#6c6c6c"/><path d="M2178.815,1428.873h-9.309s1.02,4.046,3.233,4.046h6.775v-.389A15.577,15.577,0,0,1,2178.815,1428.873Z" transform="translate(-312.131 -192.382)" fill="#302d2c"/><path d="M2137.946,1285.685a42.813,42.813,0,0,1,.713-4.734h2.289l-.453-29.107-.267-1.207a.376.376,0,0,1-.092.019h-.729a3.648,3.648,0,0,1-3.29-3.183c-.146-.866-1.7-9.382-3.074-16.9-1.129-6.18-2.2-12.018-2.281-12.522a2.147,2.147,0,0,1,.495-1.742,2.546,2.546,0,0,1,1.958-.878h.059c-2.027-3.671-7.28-5.064-8.962-5.064h-11.17c-5.4,0-7.349,3.186-7.324,5.075s.516,22.677.731,32.114,0,25.955,0,25.955h16.974c1.692,0,2.653,3.058,2.653,3.058l2.734,13.058h9.309C2138.081,1288.367,2137.985,1286.969,2137.946,1285.685Zm-3.276-30.265a1.034,1.034,0,0,1-.784.307c-.042,0-.085,0-.129-.005a48.143,48.143,0,0,1-5.309-.941,4.345,4.345,0,0,1-1.977-1.9c-.079-.169-.633-1.04-1.169-1.883a44.23,44.23,0,0,1-2.576-4.3,1.372,1.372,0,0,0-1.326-.857h-9.84a2.192,2.192,0,0,1-2.079-2.032c-.336-7.024-.8-20.13-.759-25.454.017-2.073.966-2.49,2.492-2.49h14.615a3.334,3.334,0,0,1,3.063,2.553l.314,1.849c3.851,22.628,5.733,33.8,5.754,34.152A1.3,1.3,0,0,1,2134.669,1255.42Z" transform="translate(-271.53 -53.085)" fill="#a6a7a7"/><path d="M2116.738,1254.811a1.4,1.4,0,0,0,1.3,1.286h9.84a2.133,2.133,0,0,1,2.06,1.366c.195.523,1.585,2.71,2.5,4.156.712,1.121,1.12,1.766,1.216,1.969a3.591,3.591,0,0,0,1.538,1.5,49.061,49.061,0,0,0,5.1.9.352.352,0,0,0,.282-.058.61.61,0,0,0,.078-.418c-.03-.314-1.051-6.484-5.745-34.068l-.315-1.851a2.525,2.525,0,0,0-2.292-1.9h-14.614c-1.2,0-1.7.155-1.709,1.713C2115.938,1234.711,2116.4,1247.8,2116.738,1254.811Z" transform="translate(-278.006 -64.126)" fill="#fff" opacity="0.2"/><path d="M2138.985,1265.391h0q-.062,0-.13-.005a48.1,48.1,0,0,1-5.309-.941,4.347,4.347,0,0,1-1.977-1.9c-.079-.169-.633-1.04-1.168-1.883a44.232,44.232,0,0,1-2.576-4.3,1.371,1.371,0,0,0-1.326-.857h-9.84a2.191,2.191,0,0,1-2.079-2.032c-.337-7.024-.8-20.13-.759-25.454.017-2.073.966-2.49,2.492-2.49h14.615a3.334,3.334,0,0,1,3.064,2.553l.314,1.849c3.851,22.628,5.733,33.8,5.755,34.152a1.3,1.3,0,0,1-.289,1A1.034,1.034,0,0,1,2138.985,1265.391Zm-22.673-39.08c-1.2,0-1.7.155-1.709,1.713-.042,5.309.422,18.395.759,25.41a1.4,1.4,0,0,0,1.3,1.286h9.84a2.134,2.134,0,0,1,2.06,1.366c.195.523,1.584,2.71,2.5,4.156.713,1.121,1.12,1.765,1.217,1.969a3.585,3.585,0,0,0,1.538,1.5,49.025,49.025,0,0,0,5.1.895.354.354,0,0,0,.283-.058.609.609,0,0,0,.078-.417c-.03-.314-1.051-6.485-5.745-34.068l-.315-1.851a2.525,2.525,0,0,0-2.291-1.9Z" transform="translate(-276.629 -62.749)" fill="#1a1311"/><path d="M2178.679,1226.288l-.268.007a1.767,1.767,0,0,0-1.361.6,1.348,1.348,0,0,0-.32,1.107c.084.5,1.15,6.334,2.278,12.512,1.373,7.516,2.929,16.035,3.076,16.906a2.856,2.856,0,0,0,2.517,2.531h.64l-.71-3.138s-5.127-27.738-5.732-30.075c-.052-.2-.087-.382-.124-.561Z" transform="translate(-316.725 -63.162)" fill="#fff" opacity="0.4"/><g transform="translate(1859.205 1162.343)"><path d="M2183.955,1259.554h-.729a3.648,3.648,0,0,1-3.29-3.183c-.145-.866-1.7-9.382-3.073-16.9-1.129-6.18-2.2-12.018-2.281-12.522a2.147,2.147,0,0,1,.494-1.742,2.546,2.546,0,0,1,1.958-.878l.173,0h.077l.017.783-.268.007a1.768,1.768,0,0,0-1.361.6,1.349,1.349,0,0,0-.32,1.107c.084.5,1.15,6.334,2.278,12.512,1.373,7.516,2.929,16.036,3.076,16.906a2.855,2.855,0,0,0,2.517,2.531h.729a.392.392,0,1,1,0,.783Z" transform="translate(-2174.554 -1224.326)"/></g><path d="M2197.523,1405.08h-2.364a42.689,42.689,0,0,0-.713,4.734c.108,3.531.642,7.942,1.309,7.942h.416c1.606,0,3.794-3.852,3.794-7.942C2199.965,1408.831,2197.523,1405.08,2197.523,1405.08Z" transform="translate(-328.03 -177.214)" fill="#333"/><path d="M2124.774,1334.128a.712.712,0,0,1-.7.724H2120.8a.712.712,0,0,1-.7-.724v-2.168a.712.712,0,0,1,.7-.723h3.273a.712.712,0,0,1,.7.723Z" transform="translate(-280.635 -130.139)"/><path d="M2193.5,1336.154h2.63l.109,6.745h-3.309v-4.884S2192.976,1336.154,2193.5,1336.154Z" transform="translate(-327.065 -133.273)" fill="#e85400"/><path d="M2196.241,1354.78l.25,15.391h-3.56V1354.78Z" transform="translate(-327.065 -145.147)" fill="#d4d5d5"/><rect width="25.013" height="9.396" transform="translate(1798.633 1235.087)" fill="#bdbebf"/><path d="M1.225,0H23.156a1.223,1.223,0,0,1,1.223,1.223v4.1a1.225,1.225,0,0,1-1.225,1.225H1.226A1.226,1.226,0,0,1,0,5.323v-4.1A1.225,1.225,0,0,1,1.225,0Z" transform="translate(1709.582 1225.863)" fill="#d9d9d9"/><g transform="translate(1682.44 1225.13)"><path d="M1686.926,1400.783v2.625c0,.022.005.042.006.064v-2.753C1686.931,1400.741,1686.926,1400.76,1686.926,1400.783Z" transform="translate(-1686.926 -1399.564)" fill="#e33c0b" stroke="#000" stroke-miterlimit="10" stroke-width="1.44"/><rect width="9.637" height="5.063" transform="translate(5.058 0)" fill="#e12f15"/><path d="M1687.664,1401.44a1.211,1.211,0,0,0,1.212,1.155h3.056v-5.063h-3.056a1.213,1.213,0,0,0-1.212,1.166Z" transform="translate(-1687.396 -1397.532)" fill="#f38200"/><path d="M1733.262,1398.751a1.22,1.22,0,0,0-1.218-1.219h-3.139v5.063h3.139a1.22,1.22,0,0,0,1.218-1.219Z" transform="translate(-1713.688 -1397.532)" fill="#f6f6f6"/></g><g transform="translate(1741.652 1225.13)"><rect width="9.638" height="5.063" transform="translate(4.879 0)" fill="#e12f15"/><path d="M1896.025,1398.687a1.212,1.212,0,0,0-1.212-1.155h-3.056v5.063h3.056a1.213,1.213,0,0,0,1.212-1.167Z" transform="translate(-1876.718 -1397.532)" fill="#f38200"/><g transform="translate(0 0)"><path d="M1850.269,1401.376a1.22,1.22,0,0,0,1.219,1.219h3.139v-5.063h-3.139a1.22,1.22,0,0,0-1.219,1.219Z" transform="translate(-1850.269 -1397.532)" fill="#f6f6f6"/></g></g><g transform="translate(1680.556 1141.132)"><rect width="2.734" height="7.414" transform="translate(0 0.266)" fill="#ebebeb"/><path d="M1684.475,1166.545h-.012v7.414h-.773v0c0-.145-.224-.261-.5-.261s-.5.116-.5.261v0h-.962v.013l.4.416h2.786v-7.562Z" transform="translate(-1681.728 -1166.279)" fill="#8e8e8f"/><path d="M1684.379,1166.072c0-.144.224-.261.5-.261s.5.117.5.261v7.417c0-.145-.224-.261-.5-.261s-.5.116-.5.261Z" transform="translate(-1683.418 -1165.811)" fill="#fff"/></g><rect width="71.352" height="88.178" transform="translate(1761.259 1132.502)" fill="#535453"/><g transform="translate(1764.32 1172.314)"><rect width="31.001" height="2.058" transform="translate(0)" fill="#b56635"/><rect width="7.13" height="2.058" transform="translate(31.001)" fill="#3b1a11"/><g transform="translate(8.604 2.526)"><rect width="1.4" height="10.783" transform="translate(1.25)" fill="#3b1a11"/><rect width="1.4" height="10.783" fill="#5e2e1d"/></g><g transform="translate(33.293 2.526)"><rect width="1.4" height="10.783" transform="translate(1.25)" fill="#3b1a11"/><rect width="1.4" height="10.783" fill="#5e2e1d"/></g><g transform="translate(27.236 2.526)"><rect width="1.4" height="10.783" transform="translate(1.25)" fill="#3b1a11"/><rect width="1.4" height="10.783" fill="#5e2e1d"/></g><rect width="4.043" height="0.69" transform="translate(29.887 11.364)" fill="#24100d"/><g transform="translate(2.546 2.526)"><rect width="1.4" height="10.783" transform="translate(1.25)" fill="#3b1a11"/><rect width="1.4" height="10.783" fill="#5e2e1d"/></g><rect width="22.684" height="0.69" transform="translate(4.552 11.364)" fill="#24100d"/><rect width="4.043" height="0.69" transform="translate(29.887 5.325)" fill="#24100d"/><rect width="22.684" height="0.69" transform="translate(4.552 5.325)" fill="#24100d"/><rect width="7.667" height="0.593" transform="translate(29.064 2.058)" fill="#3b1a11"/><rect width="27.363" height="0.593" transform="translate(1.91 2.058)" fill="#5e2e1d"/></g><g transform="translate(1754.457 1185.485)"><rect width="39.668" height="27.163" transform="translate(1.828 1.545)" fill="#868687"/><g transform="translate(2.178 1.903)"><rect width="38.968" height="13.066" fill="#f5f5f5"/><rect width="11.232" height="36.896" transform="translate(37.932 0.917) rotate(90)" fill="#e9e8e8"/><g transform="translate(17.57 4.619)"><circle cx="1.913" cy="1.913" r="1.913" fill="#bebebd"/><path d="M1940.978,1308.974a.1.1,0,0,1-.092-.075,1.659,1.659,0,0,1-.033-.328,1.629,1.629,0,0,1,2.423-1.423.094.094,0,1,1-.092.165,1.441,1.441,0,0,0-2.113,1.548.094.094,0,0,1-.073.111Z" transform="translate(-1940.569 -1306.657)" fill="#f5f5f5"/><path d="M1943.8,1308.564a1.912,1.912,0,0,1-3.4,1.705,1.912,1.912,0,1,0,3.4-1.705Z" transform="translate(-1940.283 -1307.692)" fill="#868687"/></g><g transform="translate(0 13.38)"><rect width="38.968" height="13.066" fill="#f5f5f5"/><rect width="11.232" height="36.896" transform="translate(37.932 0.917) rotate(90)" fill="#e9e8e8"/><g transform="translate(17.57 4.619)"><circle cx="1.913" cy="1.913" r="1.913" fill="#bebebd"/><path d="M1940.978,1345.884a.1.1,0,0,1-.092-.075,1.66,1.66,0,0,1-.033-.328,1.629,1.629,0,0,1,2.423-1.423.094.094,0,1,1-.092.165,1.441,1.441,0,0,0-2.113,1.548.1.1,0,0,1-.073.112Z" transform="translate(-1940.569 -1343.567)" fill="#f5f5f5"/><path d="M1943.8,1345.474a1.912,1.912,0,0,1-3.4,1.705,1.912,1.912,0,1,0,3.4-1.705Z" transform="translate(-1940.283 -1344.602)" fill="#868687"/></g></g></g><rect width="43.323" height="1.545" transform="translate(0 0)" fill="#f5f5f5"/><rect width="43.323" height="1.544" transform="translate(0 28.707)" fill="#f5f5f5"/><rect width="1.322" height="27.163" transform="translate(0.506 1.545)" fill="#e9e8e8"/><rect width="1.322" height="27.163" transform="translate(41.495 1.545)" fill="#e9e8e8"/><g transform="translate(0.506 30.252)"><rect width="3.785" height="1.152" fill="#868687"/><path d="M1891.219,1374.8v2.042a1.4,1.4,0,0,1-1.4,1.4H1888.6V1374.8Z" transform="translate(-1888.016 -1373.644)" fill="#bebebd"/></g><g transform="translate(39.032 30.252)"><rect width="3.785" height="1.152" fill="#868687"/><path d="M1997.492,1374.8v3.438h-1.222a1.4,1.4,0,0,1-1.4-1.4V1374.8Z" transform="translate(-1994.291 -1373.644)" fill="#bebebd"/></g><rect width="7.737" height="1.545" transform="translate(51.06 1.545) rotate(180)" fill="#bebebd"/><rect width="7.737" height="1.545" transform="translate(51.06 30.252) rotate(180)" fill="#bebebd"/><rect width="7.207" height="27.163" transform="translate(50.024 28.707) rotate(180)" fill="#868687"/><g transform="translate(7.714 30.252)"><rect width="3.785" height="1.152" fill="#868687"/><path d="M1911.1,1374.8v2.042a1.4,1.4,0,0,1-1.4,1.4h-1.222V1374.8Z" transform="translate(-1907.9 -1373.644)" fill="#bebebd"/></g><g transform="translate(46.239 30.252)"><rect width="3.785" height="1.152" fill="#868687"/><path d="M2017.375,1374.8v3.438h-1.222a1.4,1.4,0,0,1-1.4-1.4V1374.8Z" transform="translate(-2014.175 -1373.644)" fill="#bebebd"/></g><rect width="49.518" height="0.359" transform="translate(0.506 1.545)" fill="#5b5b5a" opacity="0.48" style="mix-blend-mode:multiply;isolation:isolate"/><rect width="2.619" height="0.359" transform="translate(1.09 31.403)" fill="#5b5b5a" style="mix-blend-mode:multiply;isolation:isolate"/><rect width="2.619" height="0.359" transform="translate(8.298 31.403)" fill="#5b5b5a" style="mix-blend-mode:multiply;isolation:isolate"/><rect width="2.619" height="0.359" transform="translate(39.614 31.403)" fill="#5b5b5a" style="mix-blend-mode:multiply;isolation:isolate"/><rect width="2.619" height="0.359" transform="translate(46.821 31.403)" fill="#5b5b5a" style="mix-blend-mode:multiply;isolation:isolate"/></g><g transform="translate(1753.244 1154.676)"><rect width="12.259" height="11.373" transform="translate(0 0)" fill="#f6e6d7"/><rect width="2.735" height="11.373" transform="translate(9.523 0)" fill="#d2b9a6"/><path d="M1885.756,1262.587a3.166,3.166,0,0,0-6.236,0Z" transform="translate(-1876.508 -1232.382)" fill="#3b1a11"/><rect width="1.942" height="2.639" transform="translate(5.158 20.354)" fill="#3b1a11"/><path d="M1884.652,1250.59h0a1.979,1.979,0,0,1-1.973-1.973v-2.275a1.979,1.979,0,0,1,1.973-1.973h0a1.979,1.979,0,0,1,1.973,1.973v2.275A1.979,1.979,0,0,1,1884.652,1250.59Z" transform="translate(-1878.522 -1222.437)" fill="#945029"/><rect width="1.137" height="2.605" transform="translate(5.561 11.373)" fill="#3b1a11"/><ellipse cx="1.539" cy="1.207" rx="1.539" ry="1.207" transform="translate(4.59 13.725)" fill="#945029"/><path d="M1886.6,1229.083l-.47,2.353a1.618,1.618,0,0,1-.524.884,1.978,1.978,0,0,1-1.97,0,1.618,1.618,0,0,1-.524-.884q-.236-1.176-.47-2.353a1.127,1.127,0,0,1,.5-1.042,2.968,2.968,0,0,1,2.955,0A1.127,1.127,0,0,1,1886.6,1229.083Z" transform="translate(-1878.488 -1211.777)" fill="#945029"/><path d="M1889.713,1231.666a1.82,1.82,0,0,0,.748-1.467v-2.578a1.824,1.824,0,0,0-1-1.623v-1.581l.014-.007a1.619,1.619,0,0,0,.524-.884q.235-1.176.47-2.352a1.126,1.126,0,0,0-.5-1.042,2.949,2.949,0,0,0-.7-.291,1.19,1.19,0,0,0,.765-1.042,1.251,1.251,0,0,0-.971-1.121v-2.437h-.36v2.363a1.336,1.336,0,0,1,.971,1.2,1.189,1.189,0,0,1-.764,1.042,2.948,2.948,0,0,1,.7.291,1.127,1.127,0,0,1,.5,1.042q-.235,1.176-.47,2.352a2.149,2.149,0,0,1-.539,1.05s0-.162,0-.159v1.442a2.046,2.046,0,0,1,1,1.762v2.578a2.051,2.051,0,0,1-.642,1.623,2.376,2.376,0,0,1,1.787,2.25h.36A2.665,2.665,0,0,0,1889.713,1231.666Z" transform="translate(-1882.359 -1203.867)" fill="#945029" opacity="0.44" style="mix-blend-mode:multiply;isolation:isolate"/></g><g transform="translate(1802.814 1142.271)"><rect width="16.696" height="78.548" transform="translate(0 0)" fill="#5e2e1d"/><rect width="4.94" height="78.548" transform="translate(1.125 0)" fill="#3b1a11"/><rect width="6.069" height="78.548" transform="translate(15.698)" fill="#3b1a11"/><rect width="15.931" height="1.381" transform="translate(0.352 40.888)" fill="#945029"/><g transform="translate(0.001 0)"><rect width="1.124" height="78.548" fill="#945029"/><rect width="1.124" height="78.548" transform="translate(15.571)" fill="#945029"/></g><g transform="translate(0 53.994)"><rect width="16.696" height="24.555" fill="#aa6d4a"/><g transform="translate(2.847 2.847)"><rect width="18.86" height="11.001" transform="translate(11.001 0) rotate(90)" fill="#f6e6d7"/><g transform="translate(9.203 4.954)"><path d="M2053.074,1341.042c0,.9-.188,1.62-.42,1.62s-.419-.725-.419-1.62.188-1.621.419-1.621S2053.074,1340.146,2053.074,1341.042Z" transform="translate(-2052.236 -1339.421)" fill="#5e2e1d"/><path d="M2053.14,1339.89a4.286,4.286,0,0,1,.169,1.3c0,.9-.187,1.621-.419,1.621-.067,0-.13-.062-.186-.17.069.2.155.32.249.32.231,0,.419-.725.419-1.621A3.622,3.622,0,0,0,2053.14,1339.89Z" transform="translate(-2052.535 -1339.72)" fill="#481c10"/></g></g></g><g transform="translate(0 0)"><rect width="16.696" height="24.555" fill="#aa6d4a"/><g transform="translate(2.847 2.847)"><rect width="18.86" height="11.001" transform="translate(11.001 0) rotate(90)" fill="#f6e6d7"/><g transform="translate(9.203 11.697)"><ellipse cx="0.419" cy="1.621" rx="0.419" ry="1.621" fill="#5e2e1d"/><path d="M2053.14,1209.544a4.284,4.284,0,0,1,.169,1.3c0,.9-.187,1.621-.419,1.621-.067,0-.13-.062-.186-.17.069.2.155.32.249.32.231,0,.419-.726.419-1.621A3.621,3.621,0,0,0,2053.14,1209.544Z" transform="translate(-2052.535 -1209.374)" fill="#481c10"/></g></g></g></g><g transform="translate(1687.506 1188.898)"><rect width="39.406" height="27.541" transform="translate(50.145 27.541) rotate(-180)" fill="#b56635"/><rect width="36.016" height="8.694" transform="translate(48.45 9.923) rotate(-180)" fill="#5e2e1d"/><rect width="36.016" height="15.371" transform="translate(48.45 26.102) rotate(-180)" fill="#f6e6d7"/><rect width="18.008" height="15.371" transform="translate(30.442 26.102) rotate(-180)" fill="#c4d6bd"/><g transform="translate(46.159 12.754)"><path d="M1828.608,1336.792h0a.372.372,0,0,0,.371-.371v-3.284a.372.372,0,0,0-.371-.371h0a.372.372,0,0,0-.371.371v3.284A.372.372,0,0,0,1828.608,1336.792Z" transform="translate(-1828.238 -1332.766)" fill="#5e2e1d"/><path d="M1828.608,1332.766a.368.368,0,0,1,.106.017.371.371,0,0,0-.265.353v3.284a.371.371,0,0,0,.265.353.365.365,0,0,1-.477-.353v-3.284A.372.372,0,0,1,1828.608,1332.766Z" transform="translate(-1828.238 -1332.766)" fill="#481c10"/></g><g transform="translate(13.965 12.754)"><path d="M1739.8,1336.792h0a.372.372,0,0,0,.371-.371v-3.284a.372.372,0,0,0-.371-.371h0a.372.372,0,0,0-.371.371v3.284A.372.372,0,0,0,1739.8,1336.792Z" transform="translate(-1739.426 -1332.766)" fill="#5e2e1d"/><path d="M1739.8,1332.766a.366.366,0,0,1,.106.017.371.371,0,0,0-.265.353v3.284a.371.371,0,0,0,.265.353.365.365,0,0,1-.477-.353v-3.284A.372.372,0,0,1,1739.8,1332.766Z" transform="translate(-1739.426 -1332.766)" fill="#481c10"/></g><rect width="10.739" height="27.541" transform="translate(10.739 27.541) rotate(-180)" fill="#3b1a11"/><rect width="4.062" height="3.858" transform="translate(16.367 31.398) rotate(-180)" fill="#b56635"/><rect width="0.918" height="3.858" transform="translate(12.305 27.541)" fill="#3b1a11"/><rect width="4.062" height="3.858" transform="translate(4.591 31.398) rotate(-180)" fill="#b56635"/><rect width="0.918" height="3.858" transform="translate(0.53 27.541)" fill="#3b1a11"/><rect width="4.062" height="3.858" transform="translate(48.8 31.398) rotate(-180)" fill="#b56635"/><rect width="0.918" height="3.858" transform="translate(44.738 27.541)" fill="#3b1a11"/><rect width="4.062" height="3.858" transform="translate(37.024 31.398) rotate(-180)" fill="#b56635"/><rect width="0.918" height="3.858" transform="translate(32.963 27.541)" fill="#3b1a11"/><rect width="10.739" height="8.606" transform="translate(48.521 9.806) rotate(-180)" fill="#3b1a11"/></g><g transform="translate(1715.854 1171.418)"><rect width="17.094" height="12.051" transform="translate(33.859 20.151)" fill="#5e2e1d"/><ellipse cx="3.898" cy="4.752" rx="3.898" ry="4.752" transform="translate(3.577 0)" fill="#b56635"/><path d="M2419.832,1320.5h-25.51l-.375-1.817-.852-4.134-.375-1.827-2.2-10.7-1.3-6.292a2.63,2.63,0,0,1,2.576-3.161h22.284l.006.03.5,2.412,1.587,7.708.41,1.982.955,4.643.7,3.375.153.744,1.413,6.86Z" transform="translate(-2383.622 -1292.576)" fill="#b56635"/><path d="M2426.126,1324.921H2401.67c.048-.85.064-1.749.049-2.689-.009-.561-.028-1.138-.058-1.727q-.039-.81-.1-1.654-.073-.931-.172-1.9c-.142-1.364-.325-2.778-.542-4.226-.666-4.448-1.661-9.215-2.806-13.882q-.087-.356-.176-.711a11.5,11.5,0,0,0-2.705-5.453c-.039-.037-.077-.072-.116-.1h21.807a3.91,3.91,0,0,1,.483.03,4.908,4.908,0,0,1,4.014,4.251l1.925,11.293.25,1.463.531,3.113.2,1.175,1.1,6.429.25,1.472.094.55.413,2.425Z" transform="translate(-2386.864 -1292.576)" fill="#914822"/><path d="M2436.5,1296.857l1.926,11.293a45.958,45.958,0,0,0-3.771-5.321c-.029-.035-.056-.07-.085-.1a43.84,43.84,0,0,0-12.068-10.15h9.979l.006.03A4.907,4.907,0,0,1,2436.5,1296.857Z" transform="translate(-2402.025 -1292.576)" fill="#ab5b30"/><g transform="translate(12.722 5.027)"><path d="M2410.757,1303.8l-.085,2.542.085,2.542.085-2.542Z" transform="translate(-2408.215 -1303.796)" fill="#48261a"/><path d="M2410.271,1309.366l-2.542.085-2.542-.085,2.542-.085Z" transform="translate(-2405.188 -1306.824)" fill="#48261a"/><path d="M2410.806,1309.178a.237.237,0,1,1-.237-.237A.237.237,0,0,1,2410.806,1309.178Z" transform="translate(-2408.027 -1306.636)" fill="#3b1a11"/><g transform="translate(7.427)"><path d="M2427.334,1303.8l-.085,2.542.085,2.542.085-2.542Z" transform="translate(-2424.792 -1303.796)" fill="#48261a"/><path d="M2426.849,1309.366l-2.542.085-2.542-.085,2.542-.085Z" transform="translate(-2421.765 -1306.824)" fill="#48261a"/><path d="M2427.385,1309.178a.237.237,0,1,1-.238-.237A.237.237,0,0,1,2427.385,1309.178Z" transform="translate(-2424.605 -1306.636)" fill="#3b1a11"/></g><g transform="translate(14.854)"><path d="M2443.912,1303.8l-.085,2.542.085,2.542.085-2.542Z" transform="translate(-2441.37 -1303.796)" fill="#48261a"/><path d="M2443.427,1309.366l-2.542.085-2.542-.085,2.542-.085Z" transform="translate(-2438.343 -1306.824)" fill="#48261a"/><path d="M2443.961,1309.178a.237.237,0,1,1-.237-.237A.237.237,0,0,1,2443.961,1309.178Z" transform="translate(-2441.182 -1306.636)" fill="#3b1a11"/></g><g transform="translate(2.247 6.888)"><path d="M2415.773,1319.17l-.085,2.542.085,2.542.085-2.542Z" transform="translate(-2413.231 -1319.17)" fill="#48261a"/><path d="M2415.287,1324.739l-2.542.085-2.542-.085,2.542-.085Z" transform="translate(-2410.204 -1322.197)" fill="#48261a"/><path d="M2415.822,1324.552a.237.237,0,1,1-.237-.238A.237.237,0,0,1,2415.822,1324.552Z" transform="translate(-2413.043 -1322.01)" fill="#3b1a11"/><g transform="translate(7.427)"><path d="M2432.35,1319.17l-.085,2.542.085,2.542.085-2.542Z" transform="translate(-2429.808 -1319.17)" fill="#48261a"/><path d="M2431.865,1324.739l-2.542.085-2.542-.085,2.542-.085Z" transform="translate(-2426.781 -1322.197)" fill="#48261a"/><path d="M2432.4,1324.552a.237.237,0,1,1-.237-.238A.237.237,0,0,1,2432.4,1324.552Z" transform="translate(-2429.621 -1322.01)" fill="#3b1a11"/></g><g transform="translate(14.854)"><path d="M2448.928,1319.17l-.085,2.542.085,2.542.085-2.542Z" transform="translate(-2446.386 -1319.17)" fill="#48261a"/><path d="M2448.442,1324.739l-2.542.085-2.542-.085,2.542-.085Z" transform="translate(-2443.358 -1322.197)" fill="#48261a"/><path d="M2448.977,1324.552a.237.237,0,1,1-.237-.238A.237.237,0,0,1,2448.977,1324.552Z" transform="translate(-2446.198 -1322.01)" fill="#3b1a11"/></g></g><g transform="translate(4.69 13.775)"><path d="M2421.225,1334.544l-.084,2.542.084,2.542.085-2.542Z" transform="translate(-2418.683 -1334.544)" fill="#48261a"/><path d="M2420.74,1340.113l-2.542.085-2.542-.085,2.542-.085Z" transform="translate(-2415.656 -1337.571)" fill="#48261a"/><path d="M2421.275,1339.925a.237.237,0,1,1-.238-.237A.237.237,0,0,1,2421.275,1339.925Z" transform="translate(-2418.496 -1337.383)" fill="#3b1a11"/><g transform="translate(7.427)"><path d="M2437.8,1334.544l-.085,2.542.085,2.542.085-2.542Z" transform="translate(-2435.26 -1334.544)" fill="#48261a"/><path d="M2437.317,1340.113l-2.542.085-2.542-.085,2.542-.085Z" transform="translate(-2432.233 -1337.571)" fill="#48261a"/><path d="M2437.852,1339.925a.237.237,0,1,1-.237-.237A.237.237,0,0,1,2437.852,1339.925Z" transform="translate(-2435.073 -1337.383)" fill="#3b1a11"/></g><g transform="translate(14.854)"><path d="M2454.38,1334.544l-.084,2.542.084,2.542.085-2.542Z" transform="translate(-2451.839 -1334.544)" fill="#48261a"/><path d="M2453.895,1340.113l-2.542.085-2.542-.085,2.542-.085Z" transform="translate(-2448.811 -1337.571)" fill="#48261a"/><path d="M2454.43,1339.925a.237.237,0,1,1-.237-.237A.237.237,0,0,1,2454.43,1339.925Z" transform="translate(-2451.651 -1337.383)" fill="#3b1a11"/></g></g></g><g transform="translate(23.885 14.711)"><path d="M2448.413,1328.327a1.058,1.058,0,0,1-.028.156q-.135.515-.26,1.038s0,.008,0,.011a.028.028,0,0,0,0,.01q-.156.651-.3,1.31-.169.8-.314,1.61c-.184,1.032-.34,2.073-.464,3.115q-.171,1.444-.262,2.879c0,.015,0,.029,0,.044v.023q-.05.816-.073,1.623a1.162,1.162,0,0,1-.022.185v0a.734.734,0,0,1-.1.256.549.549,0,0,1-.117.127.649.649,0,0,1-.668.046c-.249-.1-.5-.194-.749-.287q-1.507-.558-3-.959-.927-.249-1.855-.438l-.113-.023q-1.408-.281-2.833-.429a31.928,31.928,0,0,0-4.436-.141q-.972.036-1.969.126a.861.861,0,0,1-.232,0,.571.571,0,0,1-.393-.221.733.733,0,0,1-.076-.625c.026-.1.051-.2.076-.294a52.705,52.705,0,0,0,1.6-11.367.617.617,0,0,1,.913-.619,32.527,32.527,0,0,0,7.242,1.971l.161.023q1.358.193,2.741.262c.207.011.413.019.619.025a34.541,34.541,0,0,0,4.19-.132.71.71,0,0,1,.549.143.539.539,0,0,1,.107.132A.681.681,0,0,1,2448.413,1328.327Z" transform="translate(-2430.106 -1325.413)" fill="#149bb3"/><g transform="translate(16.099 2.494)"><path d="M2468.248,1331.4c-.1.4-.2.792-.289,1.194,0,0,0,.008,0,.011a.029.029,0,0,0,0,.01q-.15.651-.286,1.31-.165.8-.308,1.611c-.184,1.043-.34,2.095-.467,3.147q-.174,1.425-.273,2.846l0,.043v.023q-.063.909-.1,1.808v.005a.736.736,0,0,1-.1.256.55.55,0,0,1-.117.127c-.026-.153-.049-.305-.071-.458a18.111,18.111,0,0,1-.168-1.8,21.84,21.84,0,0,1,.258-4.374c.092-.581.2-1.143.327-1.681s.263-1.061.41-1.55a20.463,20.463,0,0,1,1.12-2.945Z" transform="translate(-2466.039 -1330.98)" fill="#127f8a"/></g><g transform="translate(1.67 4.365)"><path d="M2453.085,1346.3a.412.412,0,0,1-.187.374.644.644,0,0,1-.538.034q-.824-.251-1.641-.478a63.867,63.867,0,0,0-16.3-2.373c-.428-.005-.679-.274-.559-.612a19.881,19.881,0,0,0,1.243-7.639c-.007-.358.316-.535.724-.408a63.857,63.857,0,0,0,16.42,2.805q.753.031,1.518.046a.844.844,0,0,1,.282.05.42.42,0,0,1,.276.562A19.87,19.87,0,0,0,2453.085,1346.3Z" transform="translate(-2433.834 -1335.155)" fill="#e7b178"/><path d="M2476.08,1350.147v.005c0,.246-.182.5-.3.269-.651-1.273-.186-6.253,1.31-8.18.142-.183.25-.145.263.078a.47.47,0,0,1-.03.188A19.885,19.885,0,0,0,2476.08,1350.147Z" transform="translate(-2456.829 -1339.002)" fill="#be8e5c"/></g></g><path d="M3.189,0h16.6a3.189,3.189,0,0,1,3.189,3.189v0a2.3,2.3,0,0,1-2.3,2.3H2.1A2.1,2.1,0,0,1,0,3.387v-.2A3.189,3.189,0,0,1,3.189,0Z" transform="translate(46.586 33.241) rotate(180)" fill="#48261a"/><path d="M2392.559,1357.212h13.5l-2.662-19.658h-13.816v16.677A2.981,2.981,0,0,0,2392.559,1357.212Z" transform="translate(-2383.85 -1317.403)" fill="#4b1e0e"/><path d="M2404.07,1358.77l1.987,10.153h-13.5a2.981,2.981,0,0,1-2.981-2.981v-7.172Z" transform="translate(-2383.85 -1329.115)" fill="#b56635"/><rect width="3.024" height="8.822" transform="translate(48.403 48.63) rotate(180)" fill="#4b2117"/><rect width="3.024" height="8.822" transform="translate(36.176 48.63) rotate(180)" fill="#4b2117"/><circle cx="4.752" cy="4.752" r="4.752" transform="matrix(0.772, -0.635, 0.635, 0.772, 44.265, 24.251)" fill="#945029"/><circle cx="4.752" cy="4.752" r="4.752" transform="translate(12.548 25.486) rotate(-49.977)" fill="#945029"/><circle cx="4.752" cy="4.752" r="4.752" transform="matrix(0.973, -0.233, 0.233, 0.973, 0, 21.388)" fill="#4b1e0e"/><path d="M2424.37,1348.875v6.641a1.041,1.041,0,0,0,1.041,1.041h20.236a.929.929,0,0,0,.929-.929v-6.753h4.856V1360.4a3.063,3.063,0,0,1-3.063,3.063h-25.792a3.063,3.063,0,0,1-3.063-3.063v-11.523Z" transform="translate(-2400.374 -1323.653)" fill="#945029"/><rect width="1.227" height="8.822" transform="translate(45.379 48.63) rotate(180)" fill="#c27447"/><rect width="1.227" height="8.822" transform="translate(33.125 48.63) rotate(180)" fill="#c27447"/><rect width="3.024" height="8.822" transform="translate(26.293 48.63) rotate(180)" fill="#4b2117"/><rect width="3.024" height="8.822" transform="translate(14.066 48.63) rotate(180)" fill="#4b2117"/><rect width="1.227" height="8.822" transform="translate(23.268 48.63) rotate(180)" fill="#c27447"/><rect width="1.227" height="8.822" transform="translate(11.041 48.63) rotate(180)" fill="#c27447"/></g></g></svg>