<svg xmlns="http://www.w3.org/2000/svg" xmlns:xlink="http://www.w3.org/1999/xlink" width="244" height="149" viewBox="0 0 244 149">
  <defs>
    <clipPath id="clip-path">
      <rect id="長方形_29610" data-name="長方形 29610" width="121" height="114" transform="translate(207 3948)" fill="#fff" stroke="#707070" stroke-width="1"/>
    </clipPath>
    <linearGradient id="linear-gradient" x1="0.851" y1="-11.911" x2="0.851" y2="-12.911" gradientUnits="objectBoundingBox">
      <stop offset="0" stop-color="#a6a8ab"/>
      <stop offset="0.277" stop-color="#bbbdbf"/>
      <stop offset="0.715" stop-color="#e6e7e7"/>
      <stop offset="1" stop-color="#bbbdbf"/>
    </linearGradient>
    <radialGradient id="radial-gradient" cx="0.5" cy="0.5" r="0.5" gradientTransform="translate(0)" gradientUnits="objectBoundingBox">
      <stop offset="0.224" stop-color="#fff"/>
      <stop offset="0.475" stop-color="#fcfafb"/>
      <stop offset="0.757" stop-color="#f4ecf2"/>
      <stop offset="1" stop-color="#ebdbe7"/>
    </radialGradient>
  </defs>
  <g id="ico_flow04" transform="translate(-138 -3933)">
    <rect id="長方形_30467" data-name="長方形 30467" width="244" height="149" transform="translate(138 3933)" fill="#fff"/>
    <g id="マスクグループ_67" data-name="マスクグループ 67" transform="translate(6 2)" clip-path="url(#clip-path)">
      <g id="グループ_7175" data-name="グループ 7175" transform="translate(173.892 3881.318) rotate(14)">
        <g id="グループ_7167" data-name="グループ 7167" transform="translate(50 39.062)">
          <g id="グループ_7161" data-name="グループ 7161" transform="translate(0 0)">
            <g id="グループ_7155" data-name="グループ 7155">
              <path id="パス_77064" data-name="パス 77064" d="M79.019,166.191a1.369,1.369,0,0,1-1.665-.976L50.044,60.585a1.368,1.368,0,0,1,.976-1.665l75.914-19.814a1.369,1.369,0,0,1,1.665.976l27.309,104.63a1.368,1.368,0,0,1-.976,1.665Z" transform="translate(-50 -39.062)" fill="#423836"/>
              <g id="グループ_7154" data-name="グループ 7154" transform="translate(19.354 5.036)">
                <g id="グループ_7150" data-name="グループ 7150">
                  <path id="パス_77065" data-name="パス 77065" d="M193.743,94.925a1.274,1.274,0,0,1-1.55-.908l-1.855-7.109a1.274,1.274,0,0,1,.908-1.55l37.348-9.748a1.274,1.274,0,0,1,1.55.908L232,83.627a1.275,1.275,0,0,1-.908,1.55Z" transform="translate(-190.297 -75.569)" fill="#d0d2d3"/>
                  <path id="パス_77066" data-name="パス 77066" d="M192.61,94.261l-1.855-7.109a1.274,1.274,0,0,1,.908-1.55l37.348-9.748a1.262,1.262,0,0,1,.742.032,1.27,1.27,0,0,0-1.159-.276l-37.348,9.748a1.274,1.274,0,0,0-.908,1.55l1.855,7.109a1.272,1.272,0,0,0,.807.876A1.263,1.263,0,0,1,192.61,94.261Z" transform="translate(-190.297 -75.569)" fill="#d0d2d3" opacity="0.5" style="mix-blend-mode: screen;isolation: isolate"/>
                  <path id="パス_77067" data-name="パス 77067" d="M245.582,77.511a1.281,1.281,0,0,0-.243-.057,1.255,1.255,0,0,1,.221.445l1.855,7.109a1.274,1.274,0,0,1-.908,1.55l-37.348,9.748a1.257,1.257,0,0,1-.5.025.664.664,0,0,0,.913.219L246.923,86.8a1.275,1.275,0,0,0,.908-1.55l-1.856-7.109A1.257,1.257,0,0,0,245.582,77.511Z" transform="translate(-206.129 -77.194)" fill="#d0d2d3" style="mix-blend-mode: multiply;isolation: isolate"/>
                </g>
                <g id="グループ_7153" data-name="グループ 7153" transform="translate(11.654 6.823)">
                  <g id="グループ_7151" data-name="グループ 7151" transform="translate(0 4.307)">
                    <path id="パス_77068" data-name="パス 77068" d="M276.849,157.039a1.052,1.052,0,1,1-1.283-.752A1.052,1.052,0,0,1,276.849,157.039Z" transform="translate(-274.779 -156.253)" fill="#a6a8ab"/>
                    <path id="パス_77069" data-name="パス 77069" d="M277.224,157.5a.981.981,0,1,1-1.2-.7A.98.98,0,0,1,277.224,157.5Z" transform="translate(-275.224 -156.698)" fill="#d8d8d8"/>
                    <path id="パス_77070" data-name="パス 77070" d="M275.745,158.476a1.062,1.062,0,0,1,.759-1.3c.024-.006.048-.01.073-.015a.914.914,0,0,0-.907,1.156.905.905,0,0,0,.1.227C275.76,158.523,275.752,158.5,275.745,158.476Z" transform="translate(-275.522 -157.038)" fill="#d8d8d8" opacity="0.5" style="mix-blend-mode: screen;isolation: isolate"/>
                    <path id="パス_77071" data-name="パス 77071" d="M277.168,159.915l-.011,0a1.051,1.051,0,0,0,1.454-1.517A1.988,1.988,0,0,1,277.168,159.915Z" transform="translate(-276.829 -158.105)" fill="#d8d8d8" opacity="0.3" style="mix-blend-mode: multiply;isolation: isolate"/>
                  </g>
                  <g id="グループ_7152" data-name="グループ 7152" transform="translate(16.503)">
                    <path id="パス_77072" data-name="パス 77072" d="M396.478,125.814a1.052,1.052,0,1,1-1.283-.752A1.052,1.052,0,0,1,396.478,125.814Z" transform="translate(-394.408 -125.028)" fill="#a6a8ab"/>
                    <path id="パス_77073" data-name="パス 77073" d="M396.857,126.278a.981.981,0,1,1-1.2-.7A.981.981,0,0,1,396.857,126.278Z" transform="translate(-394.856 -125.473)" fill="#d8d8d8"/>
                    <path id="パス_77074" data-name="パス 77074" d="M395.376,127.251a1.062,1.062,0,0,1,.76-1.3c.024-.006.048-.01.073-.015a.907.907,0,0,0-.245.026.914.914,0,0,0-.565,1.356C395.39,127.3,395.382,127.276,395.376,127.251Z" transform="translate(-395.152 -125.814)" fill="#d8d8d8" opacity="0.5" style="mix-blend-mode: screen;isolation: isolate"/>
                    <path id="パス_77075" data-name="パス 77075" d="M396.8,128.692l-.011,0a1.05,1.05,0,0,0,1.454-1.517A1.986,1.986,0,0,1,396.8,128.692Z" transform="translate(-396.459 -126.881)" fill="#d8d8d8" opacity="0.3" style="mix-blend-mode: multiply;isolation: isolate"/>
                  </g>
                </g>
              </g>
            </g>
            <rect id="長方形_29604" data-name="長方形 29604" width="71.635" height="101.313" transform="translate(5.943 23.862) rotate(-14.628)" fill="#9b7d63" opacity="0.5" style="mix-blend-mode: multiply;isolation: isolate"/>
            <rect id="長方形_29605" data-name="長方形 29605" width="71.635" height="101.313" transform="matrix(0.968, -0.253, 0.253, 0.968, 5.527, 23.618)" fill="#fff"/>
            <g id="グループ_7160" data-name="グループ 7160" transform="translate(20.915 5.543)">
              <g id="グループ_7157" data-name="グループ 7157" transform="translate(0 1.097)">
                <g id="グループ_7156" data-name="グループ 7156">
                  <path id="パス_77076" data-name="パス 77076" d="M205.122,103.665a1.274,1.274,0,0,1-1.55-.908l-1.166-4.469a1.274,1.274,0,0,1,.908-1.55l34.707-9.059a1.274,1.274,0,0,1,1.55.908l1.166,4.468a1.274,1.274,0,0,1-.908,1.55Z" transform="translate(-202.261 -87.577)" fill="none" stroke="#929496" stroke-width="7.418"/>
                  <path id="パス_77077" data-name="パス 77077" d="M205.122,103.665a1.274,1.274,0,0,1-1.55-.908l-1.166-4.469a1.274,1.274,0,0,1,.908-1.55l34.707-9.059a1.274,1.274,0,0,1,1.55.908l1.166,4.468a1.274,1.274,0,0,1-.908,1.55Z" transform="translate(-202.261 -87.577)" fill="none" stroke="#bbbdbf" stroke-width="4.946"/>
                  <path id="パス_77078" data-name="パス 77078" d="M204.367,103.222a1.274,1.274,0,0,1-1.55-.908l-1.166-4.469a1.274,1.274,0,0,1,.908-1.55l34.707-9.059a1.275,1.275,0,0,1,1.55.909l1.166,4.468a1.274,1.274,0,0,1-.908,1.55Z" transform="translate(-201.61 -87.195)" fill="none" stroke="#d0d2d3" stroke-width="1.236"/>
                </g>
              </g>
              <g id="グループ_7159" data-name="グループ 7159" transform="translate(1.17 0)">
                <rect id="長方形_29606" data-name="長方形 29606" width="34.914" height="2.729" transform="translate(0.001 8.817) rotate(-14.628)" fill="url(#linear-gradient)"/>
                <g id="グループ_7158" data-name="グループ 7158" transform="translate(0 0.005)">
                  <rect id="長方形_29607" data-name="長方形 29607" width="34.914" height="0.349" transform="matrix(0.967, -0.253, 0.253, 0.967, 0.218, 9.645)" fill="#d0d2d3" opacity="0.4" style="mix-blend-mode: screen;isolation: isolate"/>
                  <rect id="長方形_29608" data-name="長方形 29608" width="34.914" height="0.442" transform="matrix(0.968, -0.252, 0.252, 0.968, 0, 8.808)" fill="#d0d2d3" opacity="0.3" style="mix-blend-mode: multiply;isolation: isolate"/>
                  <rect id="長方形_29609" data-name="長方形 29609" width="34.914" height="0.786" transform="matrix(0.968, -0.253, 0.253, 0.968, 0.492, 10.695)" fill="#d0d2d3" opacity="0.5" style="mix-blend-mode: multiply;isolation: isolate"/>
                </g>
              </g>
            </g>
          </g>
          <g id="グループ_7164" data-name="グループ 7164" transform="translate(27.17 27.844)">
            <g id="グループ_7162" data-name="グループ 7162" transform="translate(1.927)">
              <path id="パス_77079" data-name="パス 77079" d="M266.648,290.218c1.028.877,2.623.974,4.365.726l.027.1a.887.887,0,0,0-.415.829,4.755,4.755,0,0,1-4.2-1.6l-.2.053c-.048,1.217-.738,2.275-3.555,3.622l-.12-.156c2.125-1.236,2.794-2.19,2.871-3.256l-3.308.863-.135-.251,3.456-.9a6.694,6.694,0,0,0-.167-1.21l1.117-.183c.015.134-.041.257-.249.331a5.813,5.813,0,0,1,.085.856l2.772-.723.321-.735s.672.268,1.087.5c0,.109-.072.177-.2.211Zm-5.146-.848c.355-.152.929-.411,1.628-.721l-.3-1.136-1.276.333-.146-.258,1.349-.352-.258-.989-1.432.374-.144-.249,1.506-.393-.256-.98,1.071-.171c.006.136-.046.239-.267.336l.164.629.545-.143.288-.637s.579.253.945.444c0,.109-.072.177-.2.211l-1.506.393.258.989.49-.128.286-.608s.553.231.922.431c0,.109-.072.177-.2.211l-1.423.371.263,1.007c.5-.239,1.047-.49,1.591-.751l.057.143c-.664.479-1.647,1.14-3.071,2.035a.385.385,0,0,1-.145.275Zm3.429-4.182-.153-.246,3.013-.786.279-.517.924.44a.589.589,0,0,1-.315.23c.456,2.013.543,3.027.26,3.456a1.41,1.41,0,0,1-.856.539.66.66,0,0,0-.276-.451,1.657,1.657,0,0,0-.767-.066l-.032-.16c.3-.049.833-.138,1-.182s.217-.077.272-.17c.165-.24.044-1.2-.326-2.876l-1.137.3a4.017,4.017,0,0,1-1.846,4.538l-.156-.107a3.883,3.883,0,0,0,1.207-4.224Z" transform="translate(-260.926 -277.743)" fill="#221e1f"/>
              <path id="パス_77080" data-name="パス 77080" d="M352.674,273.38a10.679,10.679,0,0,0,0-2.733l1,0c-.008.12-.081.219-.282.281a6.368,6.368,0,0,1-.544,2.491Zm1.4-5.331c2.135.39,1.875,1.889,1.1,1.52a3.324,3.324,0,0,0-.405-.644l-.65.347,1.078,4.13c.014.056-.173.282-.515.372l-.12.031-1.093-4.186c-.323.163-.68.345-1.064.535a.319.319,0,0,1-.19.257l-.436-.725c.231-.06.6-.175,1.032-.319a20.88,20.88,0,0,0,.775-3.232l1.1.137c-.02.114-.121.219-.331.244a15.307,15.307,0,0,1-1.255,2.756c.462-.16.979-.335,1.514-.514a5.587,5.587,0,0,0-.637-.624Zm-.662-2.65c-.011.111-.109.226-.308.258a9.046,9.046,0,0,1-.708,1.636c.935.368.721,1.213.124,1a3.175,3.175,0,0,0-1.264-1.062l.062-.1a2.909,2.909,0,0,1,.811.084,15.255,15.255,0,0,0,.161-1.917Zm1.313,4.652c2.061.6,1.736,2.113.956,1.7a5.294,5.294,0,0,0-1.052-1.611Zm5.1-4.37a.591.591,0,0,1-.356.261c.713,3.071,1.066,5.219.719,5.892a1.61,1.61,0,0,1-1.1.771.674.674,0,0,0-.336-.495,3.319,3.319,0,0,0-1.189-.055l-.029-.15c.511-.084,1.325-.217,1.565-.28a.463.463,0,0,0,.343-.238c.285-.42-.1-2.609-.73-5.366l-2.68.7a6.693,6.693,0,0,1-.666,1.763l-.151-.049a13.323,13.323,0,0,0,.224-3.908l1.156.044a.346.346,0,0,1-.291.283,13.412,13.412,0,0,1-.2,1.563l2.44-.637.307-.564Zm-3.477,2.26c2.46.463,2.2,2.259,1.314,1.819a4.258,4.258,0,0,0-1.4-1.727Z" transform="translate(-338.797 -261.267)" fill="#221e1f"/>
              <path id="パス_77081" data-name="パス 77081" d="M444.671,244.016l-.094-.36-1.673.436.186.711,2.079-.543.3-.64s.6.24.973.437c.008.107-.072.177-.2.211l-3.077.8.191.73,2.624-.685.3-.661a10.77,10.77,0,0,1,1.017.455c0,.109-.072.177-.2.211l-8.067,2.106-.155-.256,3.743-.977-.19-.73-2.939.767-.144-.249,3.013-.786-.186-.711-2.643.69-.153-.246,2.726-.712-.2-.748-3.715.969-.153-.246,3.8-.991-.191-.73-2.587.675-.151-.237,2.67-.7-.21-.8,1.1-.169c.015.134-.044.248-.265.346l.113.434,1.58-.412.273-.505.963.4a.678.678,0,0,1-.331.284l.157.6.434-.113.269-.633s.579.253.927.449c.008.107-.072.177-.193.208l-1.368.357.3,1.146c.008.067-.3.325-.54.388Zm.815,1.761,1.007.418a.711.711,0,0,1-.34.286l.569,2.181a1.166,1.166,0,0,1-.566.365l-.12.031-.126-.48-4.047,1.056.07.268c.019.074-.252.323-.557.4l-.111.029-.82-3.142.879.116,3.89-1.015Zm-4.153,1.824.188.721,4.047-1.056-.188-.721Zm4.508.709-.2-.776-4.047,1.056.2.776Zm-3.272-5.5,1.673-.436-.191-.73-1.673.437Zm1.938.58-.2-.749-1.673.437.2.748Z" transform="translate(-413.6 -240.901)" fill="#221e1f"/>
            </g>
            <g id="グループ_7163" data-name="グループ 7163" transform="translate(0 15.236)">
              <line id="線_414" data-name="線 414" y1="11.458" x2="43.898" fill="none" stroke="#221e1f" stroke-width="2.473"/>
              <line id="線_415" data-name="線 415" y1="11.458" x2="43.898" transform="translate(1.292 4.951)" fill="none" stroke="#221e1f" stroke-width="2.473"/>
              <line id="線_416" data-name="線 416" y1="11.458" x2="43.898" transform="translate(2.584 9.902)" fill="none" stroke="#221e1f" stroke-width="2.473"/>
              <line id="線_417" data-name="線 417" y1="11.458" x2="43.898" transform="translate(3.877 14.853)" fill="none" stroke="#221e1f" stroke-width="2.473"/>
              <line id="線_418" data-name="線 418" y1="11.458" x2="43.899" transform="translate(5.169 19.804)" fill="none" stroke="#221e1f" stroke-width="2.473"/>
              <line id="線_419" data-name="線 419" y1="11.458" x2="43.899" transform="translate(6.461 24.755)" fill="none" stroke="#221e1f" stroke-width="2.473"/>
              <line id="線_420" data-name="線 420" y1="11.458" x2="43.899" transform="translate(7.753 29.706)" fill="none" stroke="#221e1f" stroke-width="2.473"/>
            </g>
            <line id="線_421" data-name="線 421" y1="4.379" x2="16.775" transform="translate(38.753 59.795)" fill="none" stroke="#221e1f" stroke-width="2.473"/>
          </g>
          <g id="グループ_7166" data-name="グループ 7166" transform="translate(77.789 80.803)">
            <path id="パス_77082" data-name="パス 77082" d="M619.188,633.126a4.23,4.23,0,1,1,3.024-5.161,4.234,4.234,0,0,1-3.024,5.161Zm-2.035-7.8a3.829,3.829,0,1,0,4.672,2.738,3.834,3.834,0,0,0-4.672-2.738Z" transform="translate(-613.89 -624.803)" fill="#e23036"/>
            <g id="グループ_7165" data-name="グループ 7165" transform="translate(1.225 1.246)">
              <path id="パス_77083" data-name="パス 77083" d="M625,634.515a13.4,13.4,0,0,1-1.645,1.117l.289,1.108,1.7-.444.115.44-1.7.444.391,1.5,1.739-.454.116.446-1.739.454.137.526-.464.121-1.175-4.5.314.037a10.529,10.529,0,0,0,1.432-1.075Zm3.714,2.983c.071.272.062.44-.114.578a3.1,3.1,0,0,1-.955.342,1.868,1.868,0,0,0-.307-.442c.382-.08.721-.175.82-.2s.12-.071.1-.164l-.837-3.206-1.529.4,1.237,4.74-.452.118-1.355-5.192,2.438-.636Z" transform="translate(-622.766 -633.835)" fill="#e23036"/>
            </g>
          </g>
        </g>
        <g id="グループ_7171" data-name="グループ 7171" transform="translate(163.695 111.69)">
          <g id="グループ_7168" data-name="グループ 7168" transform="translate(0)">
            <path id="パス_77084" data-name="パス 77084" d="M898.428,577.666A12.128,12.128,0,1,1,886.3,565.538,12.128,12.128,0,0,1,898.428,577.666Z" transform="translate(-874.173 -565.538)" fill="#161414"/>
            <path id="パス_77085" data-name="パス 77085" d="M900.432,580.055a11.746,11.746,0,1,1-11.746-11.746A11.746,11.746,0,0,1,900.432,580.055Z" transform="translate(-876.558 -567.927)" fill="#2d2827"/>
            <path id="パス_77086" data-name="パス 77086" d="M898.994,620.8a11.746,11.746,0,0,0,18.5-14.374A25.49,25.49,0,0,1,898.994,620.8Z" transform="translate(-895.57 -600.79)" fill="#2d2827" opacity="0.1" style="mix-blend-mode: screen;isolation: isolate"/>
            <path id="パス_77087" data-name="パス 77087" d="M959.459,663.019c.121,0,.241.006.362.006a11.746,11.746,0,0,0,11.746-11.746c0-.117,0-.232-.006-.348A12.479,12.479,0,0,1,959.459,663.019Z" transform="translate(-947.694 -639.152)" fill="#2d2827" style="mix-blend-mode: screen;isolation: isolate"/>
            <path id="パス_77088" data-name="パス 77088" d="M877.067,580.356a11.928,11.928,0,0,1,15.978-11.211,11.751,11.751,0,0,0-15.269,15.269A11.9,11.9,0,0,1,877.067,580.356Z" transform="translate(-876.558 -567.927)" fill="#fff"/>
            <path id="パス_77089" data-name="パス 77089" d="M907.227,588.143a10.451,10.451,0,1,1-10.451-10.451A10.451,10.451,0,0,1,907.227,588.143Z" transform="translate(-884.648 -576.015)" fill="#161414"/>
            <path id="パス_77090" data-name="パス 77090" d="M908.34,589.47A10.239,10.239,0,1,1,898.1,579.231,10.239,10.239,0,0,1,908.34,589.47Z" transform="translate(-885.974 -577.342)" fill="#0c0b0b"/>
          </g>
          <g id="グループ_7169" data-name="グループ 7169" transform="translate(2.037 2.038)">
            <path id="パス_77091" data-name="パス 77091" d="M909.122,590.4a10.091,10.091,0,1,1-10.091-10.09A10.091,10.091,0,0,1,909.122,590.4Z" transform="translate(-888.941 -580.308)" fill="#c92834"/>
            <path id="パス_77092" data-name="パス 77092" d="M910.627,592.188a9.8,9.8,0,1,1-9.8-9.8A9.8,9.8,0,0,1,910.627,592.188Z" transform="translate(-890.732 -582.098)" fill="#e23036"/>
            <path id="パス_77093" data-name="パス 77093" d="M909.122,590.4a10.091,10.091,0,1,1-10.091-10.09A10.091,10.091,0,0,1,909.122,590.4Z" transform="translate(-888.941 -580.308)" fill="url(#radial-gradient)" style="mix-blend-mode: multiply;isolation: isolate"/>
          </g>
          <g id="グループ_7170" data-name="グループ 7170" transform="translate(4.308 4.681)">
            <path id="パス_77094" data-name="パス 77094" d="M922.853,600.577c.889,1.247-.02,2.3-1.379,3.272s-2.653,1.486-3.543.238a3.034,3.034,0,0,1,4.923-3.51Z" transform="translate(-915.788 -599.471)" fill="#e23024" opacity="0.3" style="mix-blend-mode: screen;isolation: isolate"/>
            <circle id="楕円形_449" data-name="楕円形 449" cx="1.353" cy="1.353" r="1.353" transform="translate(0 5.918)" fill="#e23024" opacity="0.3" style="mix-blend-mode: screen;isolation: isolate"/>
          </g>
        </g>
        <g id="グループ_7174" data-name="グループ 7174" transform="translate(141.387 101.541)">
          <path id="パス_77095" data-name="パス 77095" d="M729.942,492.52c-1.461-.766-2.994-.725-3.424.094l-13.243,25.252,5.294,2.776,13.243-25.252C732.241,494.571,731.4,493.287,729.942,492.52Z" transform="translate(-713.164 -491.972)" fill="#2d2827"/>
          <path id="パス_77096" data-name="パス 77096" d="M756.211,502.627,742.3,529.151l1.29.676,13.243-25.252C757.116,504.035,756.847,503.291,756.211,502.627Z" transform="translate(-738.185 -501.157)" fill="#161414"/>
          <path id="パス_77097" data-name="パス 77097" d="M727.34,492.454a1.206,1.206,0,0,0-.821.576l-13.243,25.252.407.214Z" transform="translate(-713.164 -492.387)" fill="#161414" opacity="0.5"/>
          <path id="パス_77098" data-name="パス 77098" d="M717.867,678.439c-.429.818-1.962.86-3.424.094s-2.3-2.052-1.87-2.87,1.962-.86,3.424-.094S718.3,677.621,717.867,678.439Z" transform="translate(-712.461 -649.769)" fill="#383130"/>
          <g id="グループ_7172" data-name="グループ 7172" transform="translate(6.426 1.876)">
            <path id="パス_77099" data-name="パス 77099" d="M765.464,519.633a.4.4,0,0,1-.169-.543l6.976-13.3a.4.4,0,1,1,.713.374l-6.976,13.3a.4.4,0,0,1-.543.169Z" transform="translate(-764.392 -505.572)" fill="#2d2827" style="mix-blend-mode: screen;isolation: isolate"/>
            <path id="パス_77100" data-name="パス 77100" d="M759.8,614.379a.4.4,0,1,1-.17-.546A.4.4,0,0,1,759.8,614.379Z" transform="translate(-759.04 -598.858)" fill="#2d2827" style="mix-blend-mode: screen;isolation: isolate"/>
          </g>
          <path id="パス_77101" data-name="パス 77101" d="M722.109,687.627c.283-.541.014-1.285-.622-1.948a4.358,4.358,0,0,1-4.1,1.06,4.821,4.821,0,0,0,1.3.981C720.147,688.487,721.68,688.445,722.109,687.627Z" transform="translate(-716.703 -658.957)" fill="#383130" opacity="0.3" style="mix-blend-mode: multiply;isolation: isolate"/>
          <g id="グループ_7173" data-name="グループ 7173" transform="translate(0.613 25.76)">
            <path id="パス_77102" data-name="パス 77102" d="M724.075,679.383c-.018.3-.322.314-.693.248s-.666-.186-.648-.487.333-.493.7-.427A.718.718,0,0,1,724.075,679.383Z" transform="translate(-721.93 -678.704)" fill="#383130" opacity="0.3" style="mix-blend-mode: screen;isolation: isolate"/>
            <path id="パス_77103" data-name="パス 77103" d="M717.439,682.2a.321.321,0,0,1-.422-.013.259.259,0,0,1-.048-.384.319.319,0,0,1,.422.012A.259.259,0,0,1,717.439,682.2Z" transform="translate(-716.904 -681.31)" fill="#383130" opacity="0.3" style="mix-blend-mode: screen;isolation: isolate"/>
          </g>
        </g>
      </g>
    </g>
  </g>
</svg>
