<svg xmlns="http://www.w3.org/2000/svg" xmlns:xlink="http://www.w3.org/1999/xlink" width="244" height="149.001" viewBox="0 0 244 149.001">
  <defs>
    <clipPath id="clip-path">
      <rect id="長方形_29603" data-name="長方形 29603" width="209" height="136" transform="translate(164 3954.349)" fill="#fff" stroke="#707070" stroke-width="1"/>
    </clipPath>
  </defs>
  <g id="ico_flow02" transform="translate(-137 -3933)">
    <rect id="長方形_30465" data-name="長方形 30465" width="244" height="149" transform="translate(137 3933)" fill="#fff"/>
    <g id="マスクグループ_66" data-name="マスクグループ 66" transform="translate(-4 -8.348)" clip-path="url(#clip-path)">
      <g id="グループ_7149" data-name="グループ 7149" transform="translate(164 3953.667)">
        <g id="グループ_7127" data-name="グループ 7127" transform="translate(0 47.234)">
          <g id="グループ_7116" data-name="グループ 7116" transform="translate(0 8.074)">
            <g id="グループ_7115" data-name="グループ 7115">
              <g id="グループ_7110" data-name="グループ 7110" transform="translate(0 61.601)">
                <path id="パス_77001" data-name="パス 77001" d="M98.233,465.543v84.091h5.488V471.561H244.9v78.073h5.375V465.543Z" transform="translate(-96.004 -460.786)" fill="#474241"/>
                <path id="パス_77002" data-name="パス 77002" d="M252,462.08H97.719c-.613,0-1.109.68-1.109,1.517v1.767c0,.838.5,1.516,1.109,1.516H252c.613,0,1.109-.679,1.109-1.516V463.6C253.111,462.76,252.615,462.08,252,462.08Z" transform="translate(-96.61 -462.08)" fill="#b2a396"/>
              </g>
              <g id="グループ_7114" data-name="グループ 7114" transform="translate(78.258)">
                <g id="グループ_7111" data-name="グループ 7111" transform="translate(29.815 50.92)">
                  <rect id="長方形_29596" data-name="長方形 29596" width="16.75" height="1.517" fill="#5e584f"/>
                  <rect id="長方形_29597" data-name="長方形 29597" width="16.75" height="4.179" transform="translate(0 1.517)" fill="#726e68"/>
                  <rect id="長方形_29598" data-name="長方形 29598" width="16.75" height="1.672" transform="translate(0 5.695)" fill="#898683"/>
                </g>
                <g id="グループ_7113" data-name="グループ 7113">
                  <path id="パス_77003" data-name="パス 77003" d="M153.581,417.235v50.92h76.38v-50.92Zm73.085,46.135H156.878V421.414h69.788Z" transform="translate(-153.581 -417.235)" fill="#3a3835"/>
                  <rect id="長方形_29599" data-name="長方形 29599" width="69.788" height="41.956" transform="translate(3.296 4.179)" fill="#24a89e"/>
                  <g id="グループ_7112" data-name="グループ 7112" transform="translate(13.907 6.739)">
                    <path id="パス_77004" data-name="パス 77004" d="M181.6,435.883v17.959h22.132a1.855,1.855,0,0,0,1.854-1.854v-16.1Z" transform="translate(-157.019 -417.006)" fill="#7ccbc5"/>
                    <path id="パス_77005" data-name="パス 77005" d="M163.811,435.891a.214.214,0,0,1-.106-.029V452a1.855,1.855,0,0,0,1.854,1.854h22.264V435.891Z" transform="translate(-163.705 -417.014)" fill="#e2f0ef"/>
                    <path id="パス_77006" data-name="パス 77006" d="M165.559,422.141A1.855,1.855,0,0,0,163.7,424v16.59a.229.229,0,0,1,.106-.029h24.013V422.141Z" transform="translate(-163.705 -422.141)" fill="#7ccbc5"/>
                    <path id="パス_77007" data-name="パス 77007" d="M203.731,422.141H181.6v18.415h23.987V424A1.855,1.855,0,0,0,203.731,422.141Z" transform="translate(-157.019 -422.141)" fill="#f4f9f9"/>
                    <path id="パス_77008" data-name="パス 77008" d="M196.748,449.86l-3.107-1.117V446.6a4.9,4.9,0,0,0,2.2-4.206c0-2.631-1.848-4.761-4.126-4.761s-4.125,2.131-4.125,4.761a4.816,4.816,0,0,0,2.539,4.393v1.955l-2.6,1.085a2.867,2.867,0,0,0-1.617,1.739l-.54,1.62h13.649l-.512-1.537A2.866,2.866,0,0,0,196.748,449.86Z" transform="translate(-155.613 -416.352)" fill="#f4f9f9"/>
                    <path id="パス_77009" data-name="パス 77009" d="M196.748,436.451l-3.107-1.117v-2.142a4.9,4.9,0,0,0,2.2-4.206c0-2.629-1.848-4.761-4.126-4.761s-4.125,2.132-4.125,4.761a4.816,4.816,0,0,0,2.539,4.393v1.955l-2.6,1.085a2.867,2.867,0,0,0-1.617,1.739l-.54,1.619h13.649l-.512-1.536A2.865,2.865,0,0,0,196.748,436.451Z" transform="translate(-155.613 -421.362)" fill="#7ccbc5"/>
                    <path id="パス_77010" data-name="パス 77010" d="M178.9,436.472l-3.109-1.117v-2.141a4.9,4.9,0,0,0,2.2-4.207c0-2.629-1.848-4.761-4.126-4.761s-4.126,2.132-4.126,4.761a4.818,4.818,0,0,0,2.54,4.394v1.955l-2.6,1.085a2.867,2.867,0,0,0-1.617,1.739l-.54,1.619h13.649l-.512-1.537A2.863,2.863,0,0,0,178.9,436.472Z" transform="translate(-162.281 -421.355)" fill="#f4f9f9"/>
                    <path id="パス_77011" data-name="パス 77011" d="M178.9,449.86l-3.109-1.117V446.6a4.895,4.895,0,0,0,2.2-4.206c0-2.631-1.848-4.761-4.126-4.761s-4.126,2.131-4.126,4.761a4.817,4.817,0,0,0,2.54,4.393v1.955l-2.6,1.085a2.867,2.867,0,0,0-1.617,1.739l-.54,1.62h13.649l-.512-1.537A2.866,2.866,0,0,0,178.9,449.86Z" transform="translate(-162.281 -416.352)" fill="#7ccbc5"/>
                  </g>
                </g>
                <rect id="長方形_29600" data-name="長方形 29600" width="20.894" height="3.35" transform="translate(27.744 58.211)" fill="#3a3835"/>
                <rect id="長方形_29601" data-name="長方形 29601" width="57.624" height="2.391" transform="translate(8.848 59.211)" fill="#3a3835"/>
              </g>
            </g>
          </g>
          <g id="グループ_7117" data-name="グループ 7117" transform="translate(71.507 113.207)">
            <path id="パス_77012" data-name="パス 77012" d="M166.967,531.875c-.352-.356-1.3-.978-3.86-1.9v1.9h-5.713v.341h.087l9.688.022S167.209,532.119,166.967,531.875Z" transform="translate(-145.405 -480.245)" fill="#324979"/>
            <path id="パス_77013" data-name="パス 77013" d="M160.825,530.025v-.071l0-2.074-3.949.354c.291,1.562.527,3.019.547,3.076a2.076,2.076,0,0,0,2.3,1.347H163.3v-1.9C162.688,530.531,160.825,530.025,160.825,530.025Z" transform="translate(-145.6 -481.027)" fill="#ff8764"/>
            <path id="パス_77014" data-name="パス 77014" d="M158.423,541.114l1.515-.136,3.949-.354,1.033-.092-.532-46.7c-3.554-.019-9.886-.051-15.723-.065Z" transform="translate(-148.666 -493.771)" fill="#373463"/>
          </g>
          <g id="グループ_7122" data-name="グループ 7122" transform="translate(20.757 49.763)">
            <g id="グループ_7120" data-name="グループ 7120" transform="translate(0 67.463)">
              <g id="グループ_7119" data-name="グループ 7119" transform="translate(0 6.877)">
                <path id="パス_77015" data-name="パス 77015" d="M115.354,531.752a3.6,3.6,0,0,1,1.038.152V530L138.9,519.877V510.7h9.352v9.525L169.98,530v2.242a3.638,3.638,0,1,1-.589.424l-18.822-4.9-5.676-1.478H141.48l-23.906,6.224a3.632,3.632,0,1,1-2.22-.758Z" transform="translate(-111.721 -498.342)" fill="#f4eeea"/>
                <g id="グループ_7118" data-name="グループ 7118" transform="translate(29.331)">
                  <path id="パス_77016" data-name="パス 77016" d="M142.2,523.525l2,2.212v1.907a3.63,3.63,0,1,1-.849.376l-9.243-5.864v-.108h2.415Z" transform="translate(-132.686 -494.102)" fill="#d8d3ce"/>
                  <rect id="長方形_29602" data-name="長方形 29602" width="5.047" height="12.359" fill="#d8d3ce"/>
                </g>
              </g>
              <path id="パス_77017" data-name="パス 77017" d="M121.994,496.762l15.22-.027,5.047-.01,15.22-.027-4.022,6.876H127.248C127.508,503.573,121.994,496.762,121.994,496.762Z" transform="translate(-107.883 -496.697)" fill="#f4eeea"/>
            </g>
            <g id="グループ_7121" data-name="グループ 7121" transform="translate(1.11)">
              <path id="パス_77018" data-name="パス 77018" d="M116.793,449.642l8.228,39.05-1.977,21.5,5.269.008,1.442-20.912a15.728,15.728,0,0,0-.28-4.223l-6.942-34.028a3.682,3.682,0,0,0-3.265-2.93l-4.067-.382A2.658,2.658,0,0,1,116.793,449.642Z" transform="translate(-111.53 -447.53)" fill="#f4d487"/>
              <path id="パス_77019" data-name="パス 77019" d="M167.259,510.309l-37.947-.05-5.269-.008,1.977-21.5-8.228-39.05a2.66,2.66,0,0,0-5.2,1.1l8.062,38.266L118.5,512.419a2.885,2.885,0,0,0,2.87,3.148l45.88.062a2.66,2.66,0,0,0,.008-5.32Z" transform="translate(-112.529 -447.585)" fill="#f2c233"/>
            </g>
          </g>
          <g id="グループ_7126" data-name="グループ 7126" transform="translate(37.397)">
            <g id="グループ_7123" data-name="グループ 7123" transform="translate(0.927 92.071)">
              <path id="パス_77020" data-name="パス 77020" d="M179.8,531.875c-.35-.356-1.3-.978-3.86-1.9v1.9h-5.712v.341h.087l9.688.022S180.044,532.119,179.8,531.875Z" transform="translate(-107.425 -459.109)" fill="#324979"/>
              <path id="パス_77021" data-name="パス 77021" d="M173.751,530.1v-.072l-.027-2.368-4.187.364-.069.007c.492,1.9.845,3.26.879,3.353a2.074,2.074,0,0,0,2.3,1.348h3.581v-1.9C175.614,530.612,173.751,530.1,173.751,530.1Z" transform="translate(-107.71 -459.97)" fill="#ff8764"/>
              <path id="パス_77022" data-name="パス 77022" d="M190.3,496.891a7.825,7.825,0,0,0-5.462-7.2l-29.046-11.3h0c-1.674.639-4.383,2.043-15.557,4.482-5.074.989-10.555,1.522-15.246.754q-.241-.035-.478-.078c.073,6.492,2.731,16.39,18.977,16.061h.091c-.04-.089,6.213-.1,13.177-.082,5.835.014,12.168.045,15.723.065l2.839.018,5.146,24.65,4.653,22.3,1.151-.1.069-.007,4.187-.364.21-.018,1.176-.1Z" transform="translate(-124.509 -478.384)" fill="#485782"/>
            </g>
            <g id="グループ_7124" data-name="グループ 7124" transform="translate(0 23.693)">
              <path id="パス_77023" data-name="パス 77023" d="M161.16,460.322c.071.023.209.058.39.1l2.3.148.416-.181.9-.4c.408-.179.879-.387,1.367-.6l-.68-.3-.444-.886,1.424.554.162.429c.423-.189.848-.38,1.242-.559a1.8,1.8,0,0,0-.614-1.014,19.787,19.787,0,0,0-3.245-.992h0a2.711,2.711,0,0,0-2.365-.486c-.42.229-1.68.8-2.952,1.372l2.247.42Z" transform="translate(-110.672 -418.367)" fill="#d8a982"/>
              <path id="パス_77024" data-name="パス 77024" d="M176.741,462.475a1.776,1.776,0,0,0-.729-1.165,6.626,6.626,0,0,0-.462-1.962,1.245,1.245,0,0,0-.427-.538,19.625,19.625,0,0,0-3.246-.99h0a2.72,2.72,0,0,0-2.365-.486c-.288.158-.973.478-1.783.846-.394.179-.819.369-1.242.559l-.463.206c-.488.216-.959.425-1.367.6l-.9.4-.416.181-2.3-.148-.4-.025-.128,2.054-.1,1.625,3.966.121,3.644.177a11.356,11.356,0,0,0,2.962-.541,7.148,7.148,0,0,1,2.51-.442c1.477,0,4.282,1.37,4.282.591C177.781,463.077,177.345,462.737,176.741,462.475Z" transform="translate(-110.165 -417.919)" fill="#edbf98"/>
              <path id="パス_77025" data-name="パス 77025" d="M152.733,460.684c.212-6.4-2.812-19.224-4.271-24.808l-12.1-4.361a52.751,52.751,0,0,0-5.625,10.736,142.981,142.981,0,0,0-5.228,20.175s-1.776,4.242-1.666,18v20.445c.3.07.611.126.922.184.157.029.319.052.478.078,4.691.768,10.172.235,15.246-.754,11.173-2.44,13.882-3.844,15.557-4.482h0c.56-.214.871-.341.871-.341S152.731,460.737,152.733,460.684Z" transform="translate(-123.834 -427.519)" fill="#ede3dd"/>
              <path id="パス_77026" data-name="パス 77026" d="M168.444,465.607,152.38,462.6l-2.056-.385-.974-.183s-3.812-26.591-9.44-27.614c-5.14-.934-6.231,6.322-5.911,13.372.146,3.185,1.61,12.08,2.635,18.014a7.185,7.185,0,0,0,6.72,5.951l9.177.464,17.719.894.059-.938.1-1.625.128-2.054.005-.077.148-2.393Z" transform="translate(-120.056 -426.465)" fill="#e2d5cc"/>
              <path id="パス_77027" data-name="パス 77027" d="M145.013,432.491l-10.151-3.746-.331-.14-1.91,3.819.455.177,12.1,4.361.722.26Z" transform="translate(-120.551 -428.606)" fill="#e2d5cc"/>
            </g>
            <g id="グループ_7125" data-name="グループ 7125" transform="translate(11.366)">
              <path id="パス_77028" data-name="パス 77028" d="M143.237,419.545a2.822,2.822,0,0,1-.37.9,2.771,2.771,0,0,1-1.387,1.107.942.942,0,0,0-.477.927,2.828,2.828,0,0,0,.01.3c.008.1.019.2.033.306.025.2.055.4.07.569l.364,1.405-1.092.352a9.606,9.606,0,0,0-1.091-2.459c-.364-1.054-3.639,0-.728,4.214l-3.749,2.089h0a5.283,5.283,0,0,1-.018,1.352l-.391,2.654,8.679,2.988.345-4.131s1.228.174,2.776.437c1.555.2,1.765-1.493,1.959-3.243l.176-1.754,1.17-.446c.76-.253.584-.606,0-1.555l-1.17-1.857c.128-2.235,1.6-2.927.54-6.144a9.192,9.192,0,0,1-5.011,1.919A2.357,2.357,0,0,1,143.237,419.545Z" transform="translate(-131.249 -409.042)" fill="#edbf98"/>
              <path id="パス_77029" data-name="パス 77029" d="M149.936,417.051c1.184,0,2.084-2.316.045-2.316a7.1,7.1,0,0,1-4.367-1.054c-.125-.073-.249-.14-.372-.2-6.306-5.111-8.01.625-8.361.625h.025l-.067.041c-1.736.378-4.942,1.724-4.416,5.5-.823,3.916.115,4.687,1.184,6.47a15.348,15.348,0,0,1,1.545,3.614l.529,1.846h0l3.749-2.089c-2.911-4.214.364-5.268.728-4.214a9.606,9.606,0,0,1,1.091,2.459l1.092-.352-.364-1.405c-.015-.172-.045-.367-.07-.569-.014-.1-.025-.2-.033-.306a2.824,2.824,0,0,1-.01-.3c0-.049,0-.1.007-.147a.872.872,0,0,1,.47-.78,2.858,2.858,0,0,0,1.157-.8,2.6,2.6,0,0,0,.231-.312,2.821,2.821,0,0,0,.37-.9c.221-.021.431-.045.637-.071a9.192,9.192,0,0,0,5.011-1.919c.207-.176.367-.334.488-.455C150.7,418.868,152.008,417.641,149.936,417.051Z" transform="translate(-132.109 -411.357)" fill="#222"/>
            </g>
          </g>
          <path id="パス_77030" data-name="パス 77030" d="M152.287,480.093a1.685,1.685,0,0,0-1.442-.838c-.073,0-7.354-.066-14.621-.1-3.062-.014-5.51-.021-7.473-.021-7.666,0-7.908.1-8.261.238a1.689,1.689,0,0,0-1.054,1.407l-1.83,19.138a1.687,1.687,0,0,0,1.679,1.848h20.871a1.684,1.684,0,0,0,1.473-.865l1.346-2.412.2-.356,8.811-15.8.319-.57A1.689,1.689,0,0,0,152.287,480.093Zm-12.977,18.04-.144.26H121.141l1.515-15.842c3.99-.078,16.147-.019,25.315.053Z" transform="translate(-88.768 -386.032)" fill="#f9f4f2"/>
        </g>
        <g id="グループ_7137" data-name="グループ 7137" transform="translate(145.536 11.49)">
          <g id="グループ_7128" data-name="グループ 7128" transform="translate(0 5.607)">
            <path id="パス_77031" data-name="パス 77031" d="M197.888,394.637a2.336,2.336,0,0,0,2.333,2.333h45.326a2.336,2.336,0,0,0,2.333-2.333V369.26H197.888Z" transform="translate(-197.888 -362.759)" fill="#4bbcb1"/>
            <path id="パス_77032" data-name="パス 77032" d="M245.547,361.634H200.221a2.333,2.333,0,0,0-2.333,2.333v4.168H247.88v-4.168A2.336,2.336,0,0,0,245.547,361.634Z" transform="translate(-197.888 -361.634)" fill="#24a89e"/>
          </g>
          <g id="グループ_7129" data-name="グループ 7129" transform="translate(36.926 7.901)">
            <ellipse id="楕円形_443" data-name="楕円形 443" cx="0.959" cy="0.959" rx="0.959" ry="0.959" fill="#f9f0ea"/>
            <ellipse id="楕円形_444" data-name="楕円形 444" cx="0.959" cy="0.959" rx="0.959" ry="0.959" transform="translate(3.838)" fill="#71dbd3"/>
            <ellipse id="楕円形_445" data-name="楕円形 445" cx="0.959" cy="0.959" rx="0.959" ry="0.959" transform="translate(7.675)" fill="#1b7e77"/>
          </g>
          <path id="パス_77033" data-name="パス 77033" d="M224.206,399.856c-.307,0-6.44,18.4-6.44,18.4v-18.4Z" transform="translate(-200.819 -361.664)" fill="#4bbcb1"/>
          <g id="グループ_7136" data-name="グループ 7136" transform="translate(4.79 0)">
            <g id="グループ_7133" data-name="グループ 7133">
              <path id="パス_77034" data-name="パス 77034" d="M228.975,369.93h0c-1.029-.519-3.511-2.547-10.115-6.5-2.22,2.953-3.155,3.813-4.507,6.5-.835-.835-2.453-1.071-2.435.836s3.042,2.821,3.042,2.821a8.42,8.42,0,0,0,4.125,5.619l-1.113,5.772-.1.011.483,4.1-.043-.364a5.164,5.164,0,0,0,3.365,1.117,5.407,5.407,0,0,0,3.291-1.016l-.035.308.48-4.238-.078-.008c-.2-1.007-1.1-5.679-1.1-5.68a8.423,8.423,0,0,0,4.126-5.619s3.023-.92,3.042-2.821S229.811,369.1,228.975,369.93Z" transform="translate(-204.747 -356.292)" fill="#edbf98"/>
              <g id="グループ_7132" data-name="グループ 7132" transform="translate(0 28.289)">
                <g id="グループ_7130" data-name="グループ 7130">
                  <path id="パス_77035" data-name="パス 77035" d="M216.587,388.239c-.772.135-8.153,2.171-9.654,3.3-1.843,1.049-3.426,6.987-3.426,6.987h11.211l-1.857-1.679a.265.265,0,0,1-.078-.26l1.709-6.7a.263.263,0,0,1,.51.13l-1.67,6.552,1.954,1.767a.259.259,0,0,1,.086.2H217.8Z" transform="translate(-203.507 -388.239)" fill="#222"/>
                  <path id="パス_77036" data-name="パス 77036" d="M228.862,398.332l1.954-1.767-1.67-6.552a.263.263,0,0,1,.51-.13l1.709,6.7a.263.263,0,0,1-.078.26l-1.856,1.679h11.289s-1.583-5.939-3.426-6.987c-1.5-1.13-8.929-3.166-9.7-3.3l-1.166,10.288h2.35A.261.261,0,0,1,228.862,398.332Z" transform="translate(-206.887 -388.239)" fill="#222"/>
                </g>
                <g id="グループ_7131" data-name="グループ 7131" transform="translate(9.268 1.446)">
                  <path id="パス_77037" data-name="パス 77037" d="M216.889,398.582l-1.954-1.767,1.67-6.552a.263.263,0,0,0-.51-.13l-1.709,6.7a.265.265,0,0,0,.078.26l1.857,1.679h.654A.259.259,0,0,0,216.889,398.582Z" transform="translate(-214.378 -389.935)" fill="#3c3c3c"/>
                  <path id="パス_77038" data-name="パス 77038" d="M231.693,397.1a.263.263,0,0,0,.078-.26l-1.709-6.7a.263.263,0,0,0-.51.13l1.67,6.552-1.954,1.767a.261.261,0,0,0-.085.2h.654Z" transform="translate(-216.561 -389.935)" fill="#3c3c3c"/>
                </g>
                <path id="パス_77039" data-name="パス 77039" d="M222.788,394.215a5.164,5.164,0,0,1-3.365-1.117l.724,6.145h5.246l.685-6.044A5.407,5.407,0,0,1,222.788,394.215Z" transform="translate(-205.854 -388.956)" fill="#f1e1d4"/>
              </g>
              <path id="パス_77040" data-name="パス 77040" d="M231.739,364.434A15.28,15.28,0,0,0,229.828,360a9.623,9.623,0,0,0-14.127-3.058c-3.081.9-4.585,5.593-5.489,8.55a21.864,21.864,0,0,0-.032,13.01l8.507-.529a8.42,8.42,0,0,1-4.125-5.619s-3.024-.92-3.042-2.821,1.6-1.671,2.435-.835c1.352-2.684,2.287-3.543,4.507-6.5,6.079,3.818,9.086,5.977,10.115,6.5.835-.835,2.454-1.071,2.436.835s-3.042,2.821-3.042,2.821a8.423,8.423,0,0,1-4.126,5.619l8.552.529A33.909,33.909,0,0,0,231.739,364.434Z" transform="translate(-204.35 -355.057)" fill="#222"/>
            </g>
            <g id="グループ_7135" data-name="グループ 7135" transform="translate(27.467 14.351)">
              <path id="パス_77041" data-name="パス 77041" d="M244.816,384.235c.681-1.364,1.581-2.356.576-3.228-.341-.34-.992-1.554-1.662-1.41-.373.08-.342-.675-1.016-1.03-.583-.306-.859.016-.859.016l.036-4.089c0-1.023.163-2.613-.577-2.6-.87.012-1.169.7-1.219,3.257l-.327,4.573-1.47,1.633c-.748-1.519-1.581-2.873-2.286-2.286s0,1.633,1,3.306l2.13,4.3-.581,9.438h5.553l-1.3-8.432A32.81,32.81,0,0,0,244.816,384.235Z" transform="translate(-235.726 -371.891)" fill="#edbf98"/>
              <g id="グループ_7134" data-name="グループ 7134" transform="translate(2.662 8.242)">
                <path id="パス_77042" data-name="パス 77042" d="M239.166,383.493a.237.237,0,0,0-.163.444c.02.008,1.99.749,2.113,2.287a.237.237,0,0,0,.235.217h.019a.237.237,0,0,0,.217-.254C241.441,384.35,239.259,383.528,239.166,383.493Z" transform="translate(-238.848 -381.842)" fill="#bc7f4c"/>
                <path id="パス_77043" data-name="パス 77043" d="M243.829,381.6a.236.236,0,0,0-.33.054l-1.419,1.986a.237.237,0,0,0,.055.33.238.238,0,0,0,.33-.055l1.419-1.985A.237.237,0,0,0,243.829,381.6Z" transform="translate(-239.318 -381.559)" fill="#bc7f4c"/>
                <path id="パス_77044" data-name="パス 77044" d="M245.1,382.459a.236.236,0,0,0-.331.044l-1.387,1.818a.237.237,0,0,0,.188.38.239.239,0,0,0,.188-.093l1.387-1.818A.236.236,0,0,0,245.1,382.459Z" transform="translate(-239.51 -381.685)" fill="#bc7f4c"/>
                <path id="パス_77045" data-name="パス 77045" d="M246.171,383.469a.235.235,0,0,0-.331.044l-1.156,1.515a.235.235,0,0,0,.044.331.231.231,0,0,0,.143.049.236.236,0,0,0,.188-.093l1.155-1.515A.235.235,0,0,0,246.171,383.469Z" transform="translate(-239.701 -381.833)" fill="#bc7f4c"/>
              </g>
              <path id="パス_77046" data-name="パス 77046" d="M238.33,399.334h6.722l-.707-4.9a.725.725,0,0,0-.71-.582h-4.344a.722.722,0,0,0-.72.685Z" transform="translate(-236.11 -375.129)" fill="#222"/>
            </g>
          </g>
        </g>
        <g id="グループ_7148" data-name="グループ 7148" transform="translate(78.251 0)">
          <g id="グループ_7138" data-name="グループ 7138" transform="translate(0 8.224)">
            <path id="パス_77047" data-name="パス 77047" d="M130.282,377.916a2.293,2.293,0,0,0,2.29,2.29H177.05a2.292,2.292,0,0,0,2.289-2.29v-24.9H130.282Z" transform="translate(-130.282 -346.633)" fill="#4bbcb1"/>
            <path id="パス_77048" data-name="パス 77048" d="M177.05,345.387H132.572a2.289,2.289,0,0,0-2.29,2.29v4.09h49.057v-4.09A2.292,2.292,0,0,0,177.05,345.387Z" transform="translate(-130.282 -345.387)" fill="#24a89e"/>
          </g>
          <g id="グループ_7139" data-name="グループ 7139" transform="translate(36.236 10.475)">
            <ellipse id="楕円形_446" data-name="楕円形 446" cx="0.942" cy="0.941" rx="0.942" ry="0.941" fill="#f9f0ea"/>
            <ellipse id="楕円形_447" data-name="楕円形 447" cx="0.942" cy="0.941" rx="0.942" ry="0.941" transform="translate(3.766)" fill="#71dbd3"/>
            <ellipse id="楕円形_448" data-name="楕円形 448" cx="0.942" cy="0.941" rx="0.942" ry="0.941" transform="translate(7.532)" fill="#1b7e77"/>
          </g>
          <path id="パス_77049" data-name="パス 77049" d="M148.721,383.609c.408,0,8.568,12.122,8.568,12.122V383.609Z" transform="translate(-133.295 -343.409)" fill="#4bbcb1"/>
          <g id="グループ_7147" data-name="グループ 7147" transform="translate(2.255 0)">
            <g id="グループ_7142" data-name="グループ 7142" transform="translate(0 28.618)">
              <path id="パス_77050" data-name="パス 77050" d="M158.007,373.5l-1.655-1.549-1.038.972-.616.577.319,2.19-.311,6.346H158l-.311-6.346Z" transform="translate(-136.527 -370.122)" fill="#355797"/>
              <path id="パス_77051" data-name="パス 77051" d="M161.089,371.14l-1.545-1.376-.3.087-3.642,1.065-3.633-1.063-.306-.089-1.545,1.376h0l.073,10.536h3.765l.311-6.346-.319-2.19.428-.4.188-.176,1.038-.972,1.226,1.148.428.4-.319,2.19.311,6.346h3.765l.074-10.536Z" transform="translate(-135.779 -369.765)" fill="#f1e1d4"/>
              <g id="グループ_7140" data-name="グループ 7140" transform="translate(0 1.376)">
                <path id="パス_77052" data-name="パス 77052" d="M168.169,381.945h9.444c-1.276-4.057-2.761-7.518-4.269-8.332a5.8,5.8,0,0,0-2.547-.494,24.792,24.792,0,0,0-7.58-1.711h0l-.073,10.535h4.482l.006-.032-.086-.051-2.325-1.355a.214.214,0,0,1-.113-.177.21.21,0,0,1,.107-.181l2.1-1.3.149-.093-.132-.413-1.769-5.511a.22.22,0,0,1,.19-.27.277.277,0,0,1,.327.157l1.389,4.327.56,1.742a.2.2,0,0,1-.1.233l-.613.38-1.491.924,1.632.952.615.359a.207.207,0,0,1,.11.216Z" transform="translate(-137.907 -371.409)" fill="#222"/>
                <path id="パス_77053" data-name="パス 77053" d="M147.318,371.409a24.78,24.78,0,0,0-7.574,1.708,5.843,5.843,0,0,0-2.5.5c-1.509.813-2.994,4.275-4.269,8.332h9.389l-.019-.1a.205.205,0,0,1,.11-.216l.675-.393,1.573-.918-1.437-.89-.667-.413a.2.2,0,0,1-.1-.233l.595-1.853,1.353-4.216a.278.278,0,0,1,.327-.157.221.221,0,0,1,.191.27l-1.723,5.366-.18.559.2.127,2.049,1.269a.212.212,0,0,1,.107.181.215.215,0,0,1-.114.177l-2.264,1.32-.147.086.007.032h4.482l-.074-10.536Z" transform="translate(-132.978 -371.409)" fill="#222"/>
              </g>
              <g id="グループ_7141" data-name="グループ 7141" transform="translate(9.366 2.517)">
                <path id="パス_77054" data-name="パス 77054" d="M168.461,381.854l-.615-.359-1.632-.952,1.491-.924.613-.38a.2.2,0,0,0,.1-.233l-.56-1.742-1.389-4.327a.277.277,0,0,0-.327-.157.22.22,0,0,0-.19.27l1.769,5.512.132.413-.149.093-2.1,1.3a.21.21,0,0,0-.107.181.214.214,0,0,0,.113.177l2.325,1.355.086.051-.006.032h.542l.019-.1A.207.207,0,0,0,168.461,381.854Z" transform="translate(-147.657 -372.773)" fill="#3c3c3c"/>
                <path id="パス_77055" data-name="パス 77055" d="M147.15,380.372,145.1,379.1l-.2-.127.18-.559,1.723-5.366a.221.221,0,0,0-.191-.27.278.278,0,0,0-.327.157l-1.353,4.216-.595,1.853a.2.2,0,0,0,.1.233l.667.413,1.437.89-1.573.918-.675.393a.205.205,0,0,0-.11.216l.019.1h.542l-.007-.032.147-.086,2.264-1.32a.215.215,0,0,0,.114-.177A.212.212,0,0,0,147.15,380.372Z" transform="translate(-144.174 -372.773)" fill="#3c3c3c"/>
              </g>
            </g>
            <g id="グループ_7143" data-name="グループ 7143" transform="translate(10.4)">
              <path id="パス_77056" data-name="パス 77056" d="M162.656,350.074a18.446,18.446,0,0,1-.955,2.058l-.245-.678s.142-.709.284-1.987c.063-.564,0-1.277-.425-1.418a1.519,1.519,0,0,1-.852-1.419c-.024-.305,0-2.7-1.7-2.838-1.523-.127-3.263,1.135-5.675.426-.852-.426-1.809-.6-2.271-.852L149.2,344.5a2.077,2.077,0,0,0-.715,1.37l-.121,1.213a1.356,1.356,0,0,1-.627,1.114c-.489.349-.32,1.015-.182,1.7.264,1.308.284,1.561.284,1.561l-.122.678a8.136,8.136,0,0,1-.887-2.106c-.6-.121-1.418-.029-1.418,1.385a3.179,3.179,0,0,0,2.511,2.9c.711,3.244,2.393,4.925,3.427,5.442l-.146,5.783,3.633,1.063,3.642-1.065-.146-5.781c1.035-.517,2.716-2.2,3.427-5.442a3.178,3.178,0,0,0,2.511-2.9C164.267,349.836,163.25,349.9,162.656,350.074Z" transform="translate(-145.409 -336.833)" fill="#edbf98"/>
              <path id="パス_77057" data-name="パス 77057" d="M157.824,337.125c-7.236-4.114-9.505,1.135-9.648,1.419a4.614,4.614,0,0,0-2.412,4.114,18.333,18.333,0,0,0,1.119,6.092,8.135,8.135,0,0,0,.887,2.106l.122-.678s-.019-.253-.284-1.561c-.138-.683-.308-1.349.182-1.7a1.356,1.356,0,0,0,.627-1.114l.121-1.213a2.077,2.077,0,0,1,.715-1.37l1.618-1.13c.462.254,1.419.426,2.271.852,2.412.709,4.152-.553,5.675-.426,1.7.142,1.678,2.532,1.7,2.838a1.519,1.519,0,0,0,.852,1.419c.425.141.488.854.425,1.418-.141,1.277-.284,1.987-.284,1.987l.245.678a18.453,18.453,0,0,0,.955-2.058,7.606,7.606,0,0,0,.644-3.019C163.931,345.034,165.2,337.125,157.824,337.125Z" transform="translate(-145.466 -335.556)" fill="#222"/>
            </g>
            <g id="グループ_7146" data-name="グループ 7146" transform="translate(35.944 22.964)">
              <path id="パス_77058" data-name="パス 77058" d="M182.123,373.973a3.036,3.036,0,0,0,1.29-2.967,8.927,8.927,0,0,0,.129-2.194c-.087-.347-.12-1.1-.258-1.806-.119-.607-.516-.9-1.806-.774a15.6,15.6,0,0,0-1.935.516c.258-2.194.515-3.612-1.032-3.741-.86-.072-.258,2.451-1.032,5.16a7.832,7.832,0,0,0,.259,3.741L176.6,380.62h4.7l-.593-4.582C180.743,376,181.791,374.5,182.123,373.973Z" transform="translate(-176.051 -363.006)" fill="#edbf98"/>
              <g id="グループ_7145" data-name="グループ 7145" transform="translate(3.592 4.413)">
                <g id="グループ_7144" data-name="グループ 7144">
                  <path id="パス_77059" data-name="パス 77059" d="M180.46,369.188a.231.231,0,0,0,.047-.005l2.151-.462a.222.222,0,1,0-.094-.434l-2.151.461a.223.223,0,0,0,.047.44Z" transform="translate(-180.237 -368.281)" fill="#bc7f4c"/>
                  <path id="パス_77060" data-name="パス 77060" d="M180.724,370.3a.223.223,0,0,0,.044.441.266.266,0,0,0,.044,0l2.025-.407a.222.222,0,1,0-.087-.436Z" transform="translate(-180.287 -368.544)" fill="#bc7f4c"/>
                  <path id="パス_77061" data-name="パス 77061" d="M182.781,371.47l-1.861.383a.222.222,0,0,0,.044.44.209.209,0,0,0,.045-.005l1.861-.382a.223.223,0,0,0-.09-.436Z" transform="translate(-180.32 -368.802)" fill="#bc7f4c"/>
                  <path id="パス_77062" data-name="パス 77062" d="M183.128,373.174a.222.222,0,0,0-.264-.172c-.013,0-.07.015-.156.039H182.7l-1.639.348a.222.222,0,0,0,.046.44h0a2.159,2.159,0,0,0-.871,1.714.223.223,0,0,0,.445,0c0-1.6,2.252-2.1,2.275-2.1A.223.223,0,0,0,183.128,373.174Z" transform="translate(-180.237 -369.052)" fill="#bc7f4c"/>
                </g>
              </g>
              <path id="パス_77063" data-name="パス 77063" d="M175.943,383.464l.419-2.518a.638.638,0,0,1,.68-.531l3.591.291a.827.827,0,0,1,.737.632l.506,2.126Z" transform="translate(-175.943 -365.851)" fill="#222"/>
            </g>
          </g>
        </g>
      </g>
    </g>
  </g>
</svg>
