<svg xmlns="http://www.w3.org/2000/svg" xmlns:xlink="http://www.w3.org/1999/xlink" width="244" height="149" viewBox="0 0 244 149">
  <defs>
    <clipPath id="clip-path">
      <rect id="長方形_29595" data-name="長方形 29595" width="162" height="132" transform="translate(943.503 1742.012)" fill="#fff" stroke="#707070" stroke-width="1"/>
    </clipPath>
  </defs>
  <g id="ico_flow03" transform="translate(-136 -3933)">
    <rect id="長方形_30466" data-name="長方形 30466" width="244" height="149" transform="translate(136 3933)" fill="#fff"/>
    <g id="マスクグループ_65" data-name="マスクグループ 65" transform="translate(-766.503 2207.988)" clip-path="url(#clip-path)">
      <g id="グループ_7109" data-name="グループ 7109" transform="translate(951.29 1741.888)">
        <g id="グループ_7102" data-name="グループ 7102" transform="translate(67.244 0)">
          <g id="グループ_7097" data-name="グループ 7097" transform="translate(0 44.342)">
            <path id="パス_76969" data-name="パス 76969" d="M191.143-130.354s-5.458.556-6.2,1.113a11.379,11.379,0,0,0-1.59,1.271c-.015.019-.023.042-.044.055-2.659,1.694-2.177,2.367-1.546,2.647,1.431.636,3.118-.909,3.338-.954,1.59-.318,1.908.159,3.021-.318,0,0,3.712,3.191,4.482,3.993l1.559-3.675,5.284-1.817-1.949-5.383Z" transform="translate(-179.062 178.224)" fill="#dd9f76"/>
            <path id="パス_76970" data-name="パス 76970" d="M185.735-117.632a1.17,1.17,0,0,0,.1-1.346,1.769,1.769,0,0,0-1.619-.593,1.065,1.065,0,0,0-.17-.993,2.3,2.3,0,0,0-2.746-.141,1.631,1.631,0,0,0-.429-.693c-.585-.576-1.265-.265-1.818.127l-.071.05a1.182,1.182,0,0,0,.081,1.84,2,2,0,0,0,.934.519.267.267,0,0,1,.225.278,1.018,1.018,0,0,0,.216.764,1.551,1.551,0,0,0,1.147.508.279.279,0,0,1,.288.248.971.971,0,0,0,.168.579,1.6,1.6,0,0,0,1.274.6c.153.008.224.129.266.252a.836.836,0,0,0,.245.409,2.165,2.165,0,0,0,1.8-.031c1.032-.379,1.961-1.207,1.489-2.034A1.168,1.168,0,0,0,185.735-117.632Z" transform="translate(-178.582 176.132)" fill="#dd9f76"/>
            <path id="パス_76971" data-name="パス 76971" d="M236.476-186.474c-4.381,4.635-15.548,31.893-15.548,31.893L200.839-143.6l.156.43,1.949,5.383,1.234,3.406,25.5-8.356a12.111,12.111,0,0,0,3.043-2.883c2.251-3.162,12.918-21.7,14.314-24.407C251.364-178.436,243.916-192.6,236.476-186.474Z" transform="translate(-182.558 187.969)" fill="#535a68"/>
          </g>
          <g id="グループ_7098" data-name="グループ 7098" transform="translate(40.338 32.682)">
            <path id="パス_76972" data-name="パス 76972" d="M249.808-98.341s-16.706,3.488-16.687-7.326c0-.4,0-.822,0-1.257-1.191.094-3.08.233-3.653.225.906,33.187,3.719,35.149,3.719,35.149s32.854,6.571,30.129-38.394h0C259.05-103.531,255.373-98.086,249.808-98.341Z" transform="translate(-228.011 185.689)" fill="#39364e"/>
            <path id="パス_76973" data-name="パス 76973" d="M228.907-112.947l4.155-.354c0,.062,0,.122,0,.182-.018,2.048-.031,3.939-.037,5.594-1.392.109-3.742.283-3.824.209h0C229.077-107.428,228.907-112.947,228.907-112.947Z" transform="translate(-227.91 186.288)" fill="#1a1c1e"/>
            <path id="パス_76974" data-name="パス 76974" d="M228.847-128.468h0c-.032-.649-.246-3.447-.278-4.119.1-.566.8-5.294.8-5.294l.386-28.22,3.832-20.548,1.826-4.779-1.63.354-.563.122.224-1.464.673-4.391.275-.1,9.312-3.275a11.571,11.571,0,0,0-2.238,1.811,19.618,19.618,0,0,0-3.853,6.462c-2.992,10.851-3.384,23.049-3.9,28.313-.663,6.753-.6,23.2-.7,34.77,0,.062,0,.122,0,.182h0c0-.061,0-.121,0-.182Z" transform="translate(-227.85 201.809)" fill="#f1e1d4"/>
            <path id="パス_76975" data-name="パス 76975" d="M233.622-189.385l1.63-.354-1.826,4.779-3.832,20.548-.386,28.22s-.693,4.728-.8,5.294v0c-.03.163-.127-2.1-.248-5.5-.077-1.8.032-1.495-.035-3.335-.14-3.871-.253-7.77-.313-11.441-.015-.926-.026-1.832-.035-2.724-.014-.687-.026-1.343-.038-1.975-.044-2.488-.063-4.507-.041-5.637a93.572,93.572,0,0,1,2.177-15.924l2.866-12.608.537-.682-.224,1.464Z" transform="translate(-227.694 200.121)" fill="#373463"/>
            <path id="パス_76976" data-name="パス 76976" d="M233.915-122.143c0-.4,0-.822,0-1.257.006-1.655.019-3.547.037-5.594,0-.061,0-.121,0-.182.105-11.571.042-28.017.7-34.77.517-5.263.908-17.462,3.9-28.313a19.616,19.616,0,0,1,3.853-6.462,11.569,11.569,0,0,1,2.238-1.811c1.241-.87,2.477-1.632,2.477-1.632a43.5,43.5,0,0,1,3.667,5.233A95.216,95.216,0,0,1,257-185.463c7.823,18.3,7.805,40.91,7.805,40.91l2.326,13.681c-5.723,8.107-9.708,16.369-16.533,16.056C250.6-114.816,233.9-111.328,233.915-122.143Z" transform="translate(-228.805 202.164)" fill="#535a68"/>
            <path id="パス_76977" data-name="パス 76977" d="M234.457-140.593l5.6-41.56-2.267-2.54a.348.348,0,0,1-.067-.352.345.345,0,0,1,.278-.224l2.956-.419,2.806-10.221a.348.348,0,0,1,.428-.243.347.347,0,0,1,.243.427l-2.867,10.442a.348.348,0,0,1-.287.252l-2.539.359,1.941,2.176a.349.349,0,0,1,.085.278L235.147-140.5a.351.351,0,0,1-.315.3.342.342,0,0,1-.076,0A.347.347,0,0,1,234.457-140.593Z" transform="translate(-228.901 201.092)" fill="#293142"/>
          </g>
          <g id="グループ_7100" data-name="グループ 7100" transform="translate(8.628 42.232)">
            <path id="パス_76978" data-name="パス 76978" d="M205.725-118.16c-4.483-1.154-7.725,1.1-10.5,2.241-1.779.729.223,1.794,2.122.927-2.536,1.157-4.421,1.933-7.123,3.009-1.911.819-.595,1.815.577,1.427l.176-.068a1.437,1.437,0,0,1-.176.068c-1.276.5-2.113.886-1.53,1.667.347.465.944.364,1.517.108-.55.43-.3,1.524,1.421,1.35a2.3,2.3,0,0,0,.946-.224,2.079,2.079,0,0,0,1.547.265,48.967,48.967,0,0,0,11.443-3.579c.9-.467,3.555-2.03,6.54-3.809l-2.825-5.461C207.879-118.76,206.4-117.761,205.725-118.16Z" transform="translate(-189.086 177.979)" fill="#edbf98"/>
            <g id="グループ_7099" data-name="グループ 7099" transform="translate(2.489 65.236)">
              <path id="パス_76979" data-name="パス 76979" d="M192.484-107.649a.226.226,0,0,1,.107-.36l3.621-1.429a.415.415,0,0,1,.465.134.226.226,0,0,1,.013.269.265.265,0,0,1-.119.09l-3.621,1.429A.415.415,0,0,1,192.484-107.649Z" transform="translate(-192.172 110.817)" fill="#dd9f76"/>
              <path id="パス_76980" data-name="パス 76980" d="M196.372-110.684a.26.26,0,0,1-.119.09l-3.621,1.429a.414.414,0,0,1-.464-.134.225.225,0,0,1,.106-.36l3.62-1.429a.415.415,0,0,1,.465.134A.224.224,0,0,1,196.372-110.684Z" transform="translate(-192.116 111.112)" fill="#dd9f76"/>
              <path id="パス_76981" data-name="パス 76981" d="M194.348-106.177a.226.226,0,0,1,.106-.36l2.816-1.028a.415.415,0,0,1,.465.134.225.225,0,0,1,.013.269.263.263,0,0,1-.12.09l-2.816,1.028A.416.416,0,0,1,194.348-106.177Z" transform="translate(-192.505 110.483)" fill="#dd9f76"/>
            </g>
            <path id="パス_76982" data-name="パス 76982" d="M241.982-189.622c-5.623,5.232-5.328,35.311-5.328,35.311l-23,20.348.6,1.163,2.825,5.461,1,1.928,26.772-18.555a11.415,11.415,0,0,0,4.529-6.479c1.865-7.069,2.726-17.229,3.2-20.085C254.134-179.862,250.4-194.32,241.982-189.622Z" transform="translate(-193.475 190.537)" fill="#3e444e"/>
          </g>
          <g id="グループ_7101" data-name="グループ 7101" transform="translate(33.231)">
            <path id="パス_76983" data-name="パス 76983" d="M236.953-221.784a12.461,12.461,0,0,0-1.007,3.243l-1.376-.306.259-1.819c-.018-.876.213-2.264-.72-2.615a3.518,3.518,0,0,1-2.54-2.873s-.278-2.177-2.7-.167a12.9,12.9,0,0,1-3.9,2.42,45.417,45.417,0,0,0,.9,4.7l-1.135,2.3c-.563,1.174-.726,1.6.188,1.807l1.414.377.416,2.016c.438,2.009.885,3.945,2.669,3.531,1.767-.492,3.172-.844,3.172-.844l1.559,8.105,8.78-3.088c.658-.462,1.313-.891,1.785-1.194l-2.424-7.292c-.543-.223-3.9-3.069-3.9-3.069C241.385-222.246,237.258-223.161,236.953-221.784Z" transform="translate(-219.976 239.315)" fill="#edbf98"/>
            <path id="パス_76984" data-name="パス 76984" d="M245.79-231.139c.379-5.192-4.921-7.487-7.193-7.756l-.087-.043.029,0c-.426.044-3.255-6.984-10.264.269-.143.1-.285.2-.428.3a8.444,8.444,0,0,1-5.179,1.884c-2.483.258-1.1,1.835,1.074,1.607-1.08.882-2.251,3.774-3.18,3.99-3.5.812-.166,2.707,2.05,2.476-1.68,1.071-2.825,2.983.231,2.217a12.078,12.078,0,0,0,1.19-.351,12.9,12.9,0,0,0,3.9-2.42c2.426-2.011,2.7.167,2.7.167a3.518,3.518,0,0,0,2.54,2.873c.932.352.7,1.74.72,2.615l-.259,1.819,1.376.306a12.458,12.458,0,0,1,1.007-3.243c.3-1.377,4.432-.462,1.44,5.229,0,0,3.356,2.847,3.9,3.069.208-.3,2.009-3.952,3.449-7.169A12.346,12.346,0,0,0,245.79-231.139Z" transform="translate(-219.041 241.955)" fill="#222"/>
          </g>
        </g>
        <g id="グループ_7108" data-name="グループ 7108" transform="translate(0 1.599)">
          <g id="グループ_7104" data-name="グループ 7104" transform="translate(37.303 88.207)">
            <path id="パス_76985" data-name="パス 76985" d="M163.657-101.516c-1.919-2.186-2.427-3.257-4.882-6.36,3.429,2,6.544,1.044,2.766-1.18-2.9-1.705-2.628-2.922-7.147-3.931a9.625,9.625,0,0,1-3.615-3.311l-4.946,4.5c1.514,1.826,2.731,3.326,3.179,3.956a103.5,103.5,0,0,0,7.637,8.548c.758.746.879,1.323,2.094,1.371.577-.121.634-.721,1.078-.435,1.451.935,2.174.075,1.879-.558.394.489.88.849,1.4.593.874-.43.3-1.156-.607-2.18a1.586,1.586,0,0,1-.126-.14l.126.14C163.362-99.629,164.987-99.919,163.657-101.516Z" transform="translate(-142.79 129.7)" fill="#edbf98"/>
            <g id="グループ_7103" data-name="グループ 7103" transform="translate(11.348 20.929)">
              <path id="パス_76986" data-name="パス 76986" d="M163.725-97.348a.226.226,0,0,0,.068-.369l-2.577-2.918a.415.415,0,0,0-.475-.092.226.226,0,0,0-.134.234.256.256,0,0,0,.066.135l2.576,2.918A.416.416,0,0,0,163.725-97.348Z" transform="translate(-156.777 105.996)" fill="#dd9f76"/>
              <path id="パス_76987" data-name="パス 76987" d="M161.638-101.818a.262.262,0,0,0,.066.135l2.577,2.918a.415.415,0,0,0,.475.092.226.226,0,0,0,.069-.369l-2.577-2.918a.415.415,0,0,0-.475-.092A.225.225,0,0,0,161.638-101.818Z" transform="translate(-156.961 106.233)" fill="#dd9f76"/>
              <path id="パス_76988" data-name="パス 76988" d="M161.551-96.8a.226.226,0,0,0,.069-.369l-2.042-2.2a.415.415,0,0,0-.475-.092.226.226,0,0,0-.134.234.26.26,0,0,0,.065.135l2.042,2.2A.415.415,0,0,0,161.551-96.8Z" transform="translate(-156.484 105.77)" fill="#dd9f76"/>
              <path id="パス_76989" data-name="パス 76989" d="M160.581-106.239a.293.293,0,0,0-.348-.228,6.572,6.572,0,0,1-3.856-.632.3.3,0,0,0-.4.122.294.294,0,0,0,.122.4,7.551,7.551,0,0,0,3.206.793,5.163,5.163,0,0,0,1.047-.1A.3.3,0,0,0,160.581-106.239Z" transform="translate(-155.944 107.134)" fill="#dd9f76"/>
            </g>
            <path id="パス_76990" data-name="パス 76990" d="M142.831-132.615q-.052,1.629-.111,3.262c-.067,1.841.042,1.539-.035,3.335-.121,3.407-.219,5.666-.249,5.5v0c-.032.672-.246,3.47-.278,4.119,0,0-.012.374-.031.926l2.126,1.588.917-.834,4.946-4.5.624-.568Z" transform="translate(-142.128 132.615)" fill="#6b6662"/>
          </g>
          <g id="グループ_7105" data-name="グループ 7105" transform="translate(0 31.084)">
            <path id="パス_76991" data-name="パス 76991" d="M129.783-107.685c0,.435,0,.856,0,1.257C129.805-95.613,113.1-99.1,113.1-99.1c-5.565.255-8.74-8.685-13.01-15.1L97.832-90.569c2.145,27.716,31.824,24.829,31.824,24.829s3.13-16.718,3.778-41.719C132.862-107.452,130.974-107.591,129.783-107.685Z" transform="translate(-96.565 186.449)" fill="#6b6662"/>
            <path id="パス_76992" data-name="パス 76992" d="M141.262-112.947l-4.156-.354c0,.062,0,.122,0,.182.019,2.048.031,3.939.038,5.594,1.391.109,3.742.283,3.824.209h0C141.091-107.428,141.262-112.947,141.262-112.947Z" transform="translate(-103.928 186.288)" fill="#1a1c1e"/>
            <path id="パス_76993" data-name="パス 76993" d="M138.935-128.468h0c.032-.649.246-3.447.278-4.119-.1-.566-.8-5.294-.8-5.294l-.387-28.22L134.2-186.649l-1.826-4.779,1.63.354.563.122-.224-1.464-.673-4.391-.274-.1-9.312-3.275a11.561,11.561,0,0,1,2.237,1.811,19.59,19.59,0,0,1,3.853,6.462c2.993,10.851,3.385,23.049,3.9,28.313.663,6.753.6,23.2.7,34.77,0,.062,0,.122,0,.182h0c0-.061,0-.121,0-.182Z" transform="translate(-101.601 201.809)" fill="#f1e1d4"/>
            <path id="パス_76994" data-name="パス 76994" d="M135.808-189.385l-1.63-.354L136-184.96l3.831,20.548.387,28.22s.693,4.728.8,5.294v0c.03.163.128-2.1.249-5.5.076-1.8-.032-1.495.034-3.335.14-3.871.252-7.77.312-11.441.016-.926.026-1.832.034-2.724.015-.687.026-1.343.039-1.975.044-2.488.062-4.507.04-5.637a93.614,93.614,0,0,0-2.176-15.924l-2.867-12.608-.537-.682.224,1.464Z" transform="translate(-103.405 200.121)" fill="#e86f4f"/>
            <path id="パス_76995" data-name="パス 76995" d="M129.932-122.143c0-.4,0-.822,0-1.257-.007-1.655-.019-3.547-.038-5.594,0-.061,0-.121,0-.182-.105-11.571-.041-28.017-.7-34.77-.517-5.263-.908-17.462-3.9-28.313a19.589,19.589,0,0,0-3.853-6.462,11.561,11.561,0,0,0-2.237-1.811c-1.242-.87-2.478-1.632-2.478-1.632a43.5,43.5,0,0,0-3.666,5.233,95.329,95.329,0,0,0-6.206,11.468c-7.823,18.3-7.805,40.91-7.805,40.91l-2.327,13.681c5.723,8.107,9.708,16.369,16.533,16.056C113.245-114.816,129.951-111.328,129.932-122.143Z" transform="translate(-96.711 202.164)" fill="#898683"/>
            <path id="パス_76996" data-name="パス 76996" d="M134.442-140.593l-5.6-41.56,2.267-2.54a.348.348,0,0,0,.067-.352.348.348,0,0,0-.278-.224l-2.955-.419-2.807-10.221a.347.347,0,0,0-.427-.243.347.347,0,0,0-.244.427l2.867,10.442a.347.347,0,0,0,.287.252l2.538.359-1.941,2.176a.346.346,0,0,0-.085.278l5.621,41.719a.349.349,0,0,0,.315.3.339.339,0,0,0,.076,0A.348.348,0,0,0,134.442-140.593Z" transform="translate(-101.667 201.092)" fill="#6b6661"/>
          </g>
          <g id="グループ_7106" data-name="グループ 7106" transform="translate(10.757 44.528)">
            <path id="パス_76997" data-name="パス 76997" d="M191.576-121.625l-.287-.3c-.77-.8-4.482-3.993-4.482-3.993-1.113.477-1.431,0-3.021.318-.22.044-1.907,1.589-3.338.954-.631-.28-1.113-.954,1.546-2.647a10.834,10.834,0,0,1-2.048-.814l-3.861-1.832-2.179,5.556,4.1,1.371.217.271c.553-.393,1.233-.7,1.818-.127a1.631,1.631,0,0,1,.429.693,2.3,2.3,0,0,1,2.746.141,1.065,1.065,0,0,1,.17.993,1.769,1.769,0,0,1,1.619.593,1.17,1.17,0,0,1-.1,1.346,1.168,1.168,0,0,1,1.386.339c.472.827-.457,1.656-1.489,2.034a2.02,2.02,0,0,0,.739.19,6.318,6.318,0,0,0,1.749-.636c.8-.318,1.59.159,2.263-.544.848-.888.277-1.587.277-1.587s.637.72,1.615-.186A1.759,1.759,0,0,0,191.576-121.625Z" transform="translate(-121.259 175.816)" fill="#edbf98"/>
            <path id="パス_76998" data-name="パス 76998" d="M139.348-154.193s-13.5-24.123-17.883-28.758c-9.168-9.548-14.721,7.223-9.855,16.691,1.392,2.711,13.7,17.869,15.946,21.031a12.112,12.112,0,0,0,3.043,2.883l31.086,9.946.77-1.963,2.179-5.556.231-.588Z" transform="translate(-109.807 185.795)" fill="#7f7b77"/>
          </g>
          <g id="グループ_7107" data-name="グループ 7107" transform="translate(18.296)">
            <path id="パス_76999" data-name="パス 76999" d="M135.875-229.086c-1.788-.927-2.43,1.224-2.43,1.224s-.817,2.375-2.226,3.031c-.922.367-.271,2.326-.273,3.2l.412,1.466-.645,1.213a12.4,12.4,0,0,0-1.062-3.209c-.329-1.364-4.42-.376-1.337,5.232,0,0-3.288,2.9-3.823,3.128l-2.3,7.377c.444.287,1,.655,1.555,1.046l9.024,3.174,1.441-8.324s1.405.324,3.174.781c1.782.379,2.192-1.557,2.591-3.565l.376-2.015,1.4-.4c.907-.218.737-.645.154-1.8l-1.172-2.267c.506-2.554,1.1-4.962.755-7.1a1.034,1.034,0,0,1-.227-.138C138.905-226.7,138-227.983,135.875-229.086Z" transform="translate(-119.559 238.099)" fill="#edbf98"/>
            <path id="パス_77000" data-name="パス 77000" d="M137-236.218c-7.179-8.126-12.386-.658-12.386-.658-1.933-.032-5.185,2.062-5.388,6.3a12.3,12.3,0,0,0,1.125,7.789c1.493,3.175,3.354,6.775,3.567,7.072.536-.232,3.823-3.128,3.823-3.128-3.083-5.608,1.008-6.6,1.337-5.232a12.4,12.4,0,0,1,1.062,3.209l.645-1.213-.412-1.466c0-.871-.649-2.83.273-3.2,1.409-.655,2.226-3.031,2.226-3.031s.642-2.151,2.43-1.224c2.129,1.1,3.031,2.383,5.386,2.046a1.034,1.034,0,0,0,.227.138C142.5-228.112,145.326-231.781,137-236.218Z" transform="translate(-118.986 240.009)" fill="#222"/>
          </g>
        </g>
      </g>
    </g>
  </g>
</svg>
