<svg xmlns="http://www.w3.org/2000/svg" xmlns:xlink="http://www.w3.org/1999/xlink" width="244" height="149" viewBox="0 0 244 149">
  <defs>
    <clipPath id="clip-path">
      <rect id="長方形_29611" data-name="長方形 29611" width="137" height="136" transform="translate(190 3946)" fill="#fff" stroke="#707070" stroke-width="1"/>
    </clipPath>
  </defs>
  <g id="ico_flow01" transform="translate(-138 -3933)">
    <rect id="長方形_30464" data-name="長方形 30464" width="244" height="149" transform="translate(138 3933)" fill="#fff"/>
    <g id="マスクグループ_68" data-name="マスクグループ 68" transform="translate(1)" clip-path="url(#clip-path)">
      <g id="グループ_7176" data-name="グループ 7176" transform="translate(-446.343 3440.054)">
        <path id="パス_77104" data-name="パス 77104" d="M675.32,1080.689l-.59,31.368H664.463l-2.305-32.29Z" transform="translate(-5.521 -123.766)" fill="#fa7c75"/>
        <path id="パス_77105" data-name="パス 77105" d="M660.143,1114.316a20.33,20.33,0,0,0-.425,2.784c-.349,2.671-1.377,9.07,2.594,10.207,1.343.384,2.519-.211,3.781.462a17.858,17.858,0,0,1,2.748,2.382,27.53,27.53,0,0,0,3.03,2.821c1.755,1.117,3.524,1.079,5.563,1.361a26.282,26.282,0,0,0,10.089-.1c1.976-.417,6.021-.771,7.291-2.342,2.622-3.244-7.744-6.318-9.882-7.771a16.36,16.36,0,0,1-5.208-6.512c-1.361-2.609-1.518-4.018-4-6.08a8.184,8.184,0,0,0-2.482-1.892,7.134,7.134,0,0,0-5.558.626c-1.031.659-1.533,1.918-2.816,2.281-1.168.326-2.6-.584-3.682.02A2.767,2.767,0,0,0,660.143,1114.316Z" transform="translate(-4.913 -130.144)" fill="#cdd8d8"/>
        <path id="パス_77106" data-name="パス 77106" d="M747.742,1080.689l.512,31.368H737.987l-3.406-32.29Z" transform="translate(-21.142 -123.766)" fill="#fa7c75"/>
        <path id="パス_77107" data-name="パス 77107" d="M734.483,1110.547a2.914,2.914,0,0,0-1.156.041c-1.22.317-1.242,1.625-1.347,3.376a54.541,54.541,0,0,0,.295,8.078c.292,3.216,2.3,3.324,4.617,3.935a10.347,10.347,0,0,0,5.769.117c.572-.25.955-.968,1.462-1.376.859-.692,1.163-.347,2.036.036,1.773.776,15.231,3.707,20.9,3.707,2.565,0,5.081-.154,7.415-1.583,1.129-.692,2.878-.97,3.316-2.714.529-2.094-1.184-3.913-2.6-4.52-1.231-.53-2.647-.233-3.926-.5a18.029,18.029,0,0,1-4.882-1.942c-3.984-2.176-11.3-6.016-14.333-9.773-2.3-2.848-5.308-.2-7.3,2.193-1.131,1.356-1.747,1.359-3.315,1.358C739.081,1110.979,735.544,1110.68,734.483,1110.547Z" transform="translate(-20.57 -129.466)" fill="#cdd8d8"/>
        <path id="パス_77108" data-name="パス 77108" d="M658.264,800.326s-.163,70.449,1.2,113.884.4,108.4.4,108.4l16.693.638,25.813-194.05,14,193.088,16.146.259s4.7-77.558,5.458-82.3,6.375-137.485,6.375-137.485S658.973,798.3,658.264,800.326Z" transform="translate(-4.68 -63.38)" fill="#4d5455"/>
        <path id="パス_77109" data-name="パス 77109" d="M660.36,713.154c0-.012-4.954-102.251-4.954-102.251l4.915-3.661s27.3-11.025,27.307-10.389l32.059,1.783,23.794,12.649-2.929,93.637c1.09,15,3.769,48.36,4.065,55.189.2,4.535-46.151,4.9-56.99,3.561-10.672-1.321-18.7-2.144-30.275-5.642C657.947,741.407,660.852,727.551,660.36,713.154Z" transform="translate(-4.065 -19.602)" fill="#ede3dd"/>
        <path id="パス_77110" data-name="パス 77110" d="M730.821,525.823c1.18,2.037,1.4,4.505,1.545,7.049.383,6.841.868,13.677,1.2,20.522.176,3.469.31,6.939.373,10.413.057,3.044-.9,4.569-2.875,6.854a24.609,24.609,0,0,1-4.64,4.591c-1.69,1.12-4.462,1.3-6.449,1.4a12.024,12.024,0,0,1-5.393-1.353c-1.433-.635-2.875-1-4.29-1.616a22.191,22.191,0,0,1-5.829-3.619c-4.308-3.813-6.05-9.438-6.685-15a134.68,134.68,0,0,1-.716-24.343c1.391-.221,2.783,0,4.133-.327a18.369,18.369,0,0,0,5.111-2.384c3.114-1.917,5.974-4.349,9.416-5.685,3.693-1.434,8.852-1.426,12.295.68A7.907,7.907,0,0,1,730.821,525.823Z" transform="translate(-12.998 -3.317)" fill="#edbf98"/>
        <path id="パス_77111" data-name="パス 77111" d="M687.713,549c-.174,3.636,3.4,6.738,7.983,6.93s8.427-2.6,8.6-6.231-3.411-6.739-7.983-6.935S687.882,545.359,687.713,549Z" transform="translate(-11.032 -7.938)" fill="#edbf98"/>
        <path id="パス_77112" data-name="パス 77112" d="M689.322,521.808c4.031-9.647,12.817-7.223,19.944-2.478,4.44,2.956,7.783,6.333,3.151,10.947-1.539,1.534-2.9,1.664-4.758,2.365-3.674,1.385-5.458,7.451-6.215,10.821a59.475,59.475,0,0,0,0,7.064h-2.861c.132-3.75,0-12.543-5.807-12.34-1.529.052-2.5.615-3.287-.721a15,15,0,0,1-1.415-5.22,20.451,20.451,0,0,1,.567-8.507A17.589,17.589,0,0,1,689.322,521.808Z" transform="translate(-11.067 -1.99)" fill="#201d1b"/>
        <path id="パス_77113" data-name="パス 77113" d="M730.451,513.075a16.474,16.474,0,0,1,3.578,7.322,18.053,18.053,0,0,1-.122,7.64c-.284,1.013-3.2,4.913-2.571,5.632-1.3-1.488-1.514-3.379-3.609-3.86-1.492-.342-3.856.361-5.626.035A42.318,42.318,0,0,1,709.39,525c-3.337-1.86-7.146-4.439-11.113-4.522-2.415-.05-5.764,2.529-7.109.092a3.644,3.644,0,0,1-.2-.453c-1.726-4.647,4.013-7.6,7.481-8.937a36.154,36.154,0,0,1,7.506-1.975,16.466,16.466,0,0,1,3.151-.3,13.118,13.118,0,0,1,2.343.217c.165.038,2.4.489,2.4.478a4.482,4.482,0,0,0-.657-2.059c-.385-.625-.99-1.486-1.783-1.6a36.482,36.482,0,0,1,4.169.961,13.288,13.288,0,0,1,2.854,1.082,6.08,6.08,0,0,1,3.311,4.7,10.874,10.874,0,0,0-1.954-6.067c.15.223.9.429,1.145.568.386.211.76.438,1.126.685a12.455,12.455,0,0,1,2.038,1.714,10.157,10.157,0,0,1,2.195,4.051c.272-1.816-.988-4.136-2.217-5.4.643,0,1.127.617,1.633.914A17.864,17.864,0,0,1,730.451,513.075Z" transform="translate(-11.667)" fill="#201d1b"/>
        <path id="パス_77114" data-name="パス 77114" d="M721.663,582.091l4.562,12.437-13.283,10.615-17.587-12.1,6.943-16.629Z" transform="translate(-12.682 -15.199)" fill="#edbf98"/>
        <path id="パス_77117" data-name="パス 77117" d="M698.222,537.234a.537.537,0,0,1-.169-.044.517.517,0,0,1-.248-.682c.184-.383.368-.747.56-1.085a.5.5,0,0,1,.691-.2.511.511,0,0,1,.2.695c-.177.318-.354.664-.524,1.026A.51.51,0,0,1,698.222,537.234Zm2.254-3.462a.517.517,0,0,1-.3-.136.507.507,0,0,1-.027-.72,11.073,11.073,0,0,1,.892-.866.51.51,0,1,1,.668.772,10.791,10.791,0,0,0-.809.787A.512.512,0,0,1,700.477,533.772Zm3.312-2.465a.511.511,0,0,1-.183-.963c.35-.18.723-.353,1.107-.515a.512.512,0,0,1,.672.274.518.518,0,0,1-.277.67c-.362.15-.711.313-1.041.48A.513.513,0,0,1,703.789,531.307Z" transform="translate(-13.2 -5.143)" fill="#201d1b"/>
        <path id="パス_77118" data-name="パス 77118" d="M691.43,536.644a.518.518,0,0,1-.465-.526q.013-.266.034-.529c.022-.237.057-.479.1-.721a.522.522,0,0,1,.594-.416.51.51,0,0,1,.415.591c-.038.215-.068.431-.087.642-.015.154-.027.31-.03.465a.509.509,0,0,1-.524.495Zm1.033-4a.658.658,0,0,1-.168-.042.514.514,0,0,1-.25-.68c.163-.357.348-.726.552-1.092a.511.511,0,0,1,.9.494c-.191.345-.365.69-.517,1.024A.513.513,0,0,1,692.463,532.648Zm2.155-3.539a.513.513,0,0,1-.361-.818c.242-.321.495-.639.755-.948a.51.51,0,1,1,.783.655c-.249.3-.491.6-.721.911A.514.514,0,0,1,694.618,529.109Z" transform="translate(-11.735 -4.575)" fill="#201d1b"/>
        <path id="パス_77119" data-name="パス 77119" d="M717.5,589.248h-.03a34.974,34.974,0,0,1-6.448-1.343c-4.377-1.227-7.817-7.245-7.962-7.5a.478.478,0,0,1,.832-.47c.034.06,3.391,5.93,7.387,7.052a34.643,34.643,0,0,0,6.253,1.307.477.477,0,0,1-.032.954Z" transform="translate(-14.33 -15.906)" fill="#bc7f4c"/>
        <path id="パス_77121" data-name="パス 77121" d="M737.21,549.388a1.715,1.715,0,1,1-1.717-1.715A1.717,1.717,0,0,1,737.21,549.388Z" transform="translate(-20.969 -9)"/>
        <path id="パス_77122" data-name="パス 77122" d="M720.13,551.748A1.754,1.754,0,1,1,718.375,550,1.754,1.754,0,0,1,720.13,551.748Z" transform="translate(-17.269 -9.501)"/>
        <path id="パス_77123" data-name="パス 77123" d="M724.407,580.526a7,7,0,0,0,1.973-.283,7.687,7.687,0,0,0,4.716-4.133.587.587,0,0,0-.365-.814c-.358-.136-12,.366-12.375.475a.6.6,0,0,0-.442.787,6.247,6.247,0,0,0,3.391,3.262A7.221,7.221,0,0,0,724.407,580.526Z" transform="translate(-17.539 -14.953)" fill="#c34b61"/>
        <path id="パス_77124" data-name="パス 77124" d="M723.118,555.919a.292.292,0,0,1-.282-.278.3.3,0,0,1,.253-.338l5.415-.6c-1.181-3.553-3.02-8.929-3.307-9.4a.334.334,0,0,1-.033-.395.271.271,0,0,1,.4-.078c.088.067.36.269,3.6,10.037a.336.336,0,0,1-.026.269.28.28,0,0,1-.211.144l-5.779.636Z" transform="translate(-16.105 -0.774)"/>
        <path id="パス_77125" data-name="パス 77125" d="M721.362,544.532c-.753-1.322-3.46-1.609-4.445-1.689a24.488,24.488,0,0,0-3.826.449l-.46,1.408A45.577,45.577,0,0,1,721.362,544.532Z" transform="translate(-16.408 -7.957)" fill="#201d1b"/>
        <path id="パス_77126" data-name="パス 77126" d="M730.415,543.747c.361-1.475,2.841-2.486,3.751-2.827a23.36,23.36,0,0,1,3.733-.6l.806,1.232A40.979,40.979,0,0,0,730.415,543.747Z" transform="translate(-20.244 -7.414)" fill="#201d1b"/>
        <path id="パス_77127" data-name="パス 77127" d="M767.7,610.071s24.528,59.119,27.026,68.176c.393,1.42,4.034,13.754,4.525,16.971,1.165,7.623-.873,8.343-1.442,10.235-1.9,6.3-4.611,5.767-9.118,6.171-7.186.643-29.373-52.148-29.373-52.148Z" transform="translate(-26.478 -22.458)" fill="#e2d5cc"/>
        <g id="左腕" transform="translate(636.673 590.504)">
          <path id="パス_77128" data-name="パス 77128" d="M652.591,614.112s12.93,12.178,14.948,19.074c1.141,3.9.62,23.26-1.051,40.907-.618,6.532.026,17.861-4.221,23.321-3.839,4.935-10.413,10.31-17.019,10.716-4.661.29-7.315,4.683-8.286.228-.787-3.619.486-9.972.455-12.373,0-.133,0-.74,0-.9.036-2.431.37-4.9.544-7.317.834-11.505,1.737-23.008,2.835-34.492.817-8.528.751-18.362,3.651-26.556C650.209,610.447,652.591,614.112,652.591,614.112Z" transform="translate(-636.705 -613.758)" fill="#e2d5cc"/>
          <path id="パス_77129" data-name="パス 77129" d="M671.205,674.6h-.044a.614.614,0,0,1-.569-.656c.009-.137.965-14.009.965-37.542,0-6.414-8.358-17.241-12.624-20.058a.614.614,0,1,1,.677-1.024c4.395,2.9,13.175,14.054,13.175,21.082,0,23.582-.96,37.489-.969,37.628A.613.613,0,0,1,671.205,674.6Z" transform="translate(-641.44 -614.074)" fill="#e2d5cc"/>
        </g>
        <path id="パス_77130" data-name="パス 77130" d="M749.858,622.8c-.578-.6-1.529-.213-2.3-.159-1.38.1-5.895-.245-7.311-.264a60.74,60.74,0,0,0-9.639,1.4c-1.186.347-2.239.917-3.4,1.3a6.784,6.784,0,0,0-1.98.666c-1.029.84-1.164,2.687-1.7,3.824a26.346,26.346,0,0,1-3.323,4.655c-.343.432-.687.86-1.036,1.287a131.24,131.24,0,0,1-10.231,11.109c-1.448,1.409-14.207,12.211-14.238,14.067-.02,1.216,1.941,3.4,2.736,4.224a19.048,19.048,0,0,0,8.23,4.691c.609.147,2.522-3.223,3.678-4.784,1.348-1.822,6.677-9.372,6.783-9.639.493-1.25,1.221-.917,2.333-1.029,2.172-.227,4.82-1.742,6.591-2.951,1.358-.929,2.534-3.086,4.009-3.845.936-.484,1.832-.055,2.7-.371a27.8,27.8,0,0,0,2.748-.909,2.725,2.725,0,0,0,1.362-4.136c2.349-.9,4.075-1.765,3.124-4.5a2.387,2.387,0,0,0,2.284-1.526,3.553,3.553,0,0,0-.6-2.939c-.949-.847-6.116-2.846-7.169-3.984.168.176,3.02-1.263,3.6-1.364,1.8-.323,3.616-.948,5.4-1.165,1.7-.211,6.751.077,7.558-1.962A1.493,1.493,0,0,0,749.858,622.8Z" transform="translate(-12.54 -25.113)" fill="#edbf98"/>
        <path id="パス_77131" data-name="パス 77131" d="M765.792,658.784c-.444-.932-.211-1.982-.781-2.941a8.613,8.613,0,0,1-1.256-3.725c-.4-4.7-.183-15.887-.377-18.034-.275-2.97.151-7,2.064-9.352,1.526,2.911,4.7,3.043,7.548,3.768a6.129,6.129,0,0,1,4.9,4.772c.334,1.285-.016,2.809.5,4.018.686,1.625,2.181,2.3,2.367,4.267.173,1.884-1.158,3.424-1.728,5.123-.636,1.906-1.42,3.754-2.084,5.659-.3.859-1.038,2.219-.969,3.126.141,1.892,6.075,15.474,7,18.035,1.024,2.826-.294,1.284-3.131,2.475-2.454,1.029-8.547.572-10.9-.817C767.81,674.5,766.034,659.293,765.792,658.784Z" transform="translate(-27.337 -25.62)" fill="#edbf98"/>
        <path id="パス_77132" data-name="パス 77132" d="M780.054,638.44c-.546.854-4.47,2.4-5.344,2.474-1.823.139-1.978-1.524-2.427.24-.114.455-.1.921-.256,1.368a10.774,10.774,0,0,1-.748,1.474c-.336.628-.6,1.274-.9,1.921-.662,1.474-.694,2.99-1.855,4.207a5.765,5.765,0,0,1-3,1.509,1.676,1.676,0,0,1-1.664-.442c-.644-.847-.463-2.294-.362-3.263a31.27,31.27,0,0,1,2.677-9.414,5.81,5.81,0,0,1,1.362-2.223C769.447,634.823,782.215,635.028,780.054,638.44Z" transform="translate(-27.356 -27.927)" fill="#bc7f4c"/>
        <path id="パス_77133" data-name="パス 77133" d="M754.655,594.146c1.6-1.172,13.658-1.851,18.448-2.035a7.758,7.758,0,0,1,3.31,1.111c2.713,1.11-1.989,3.535-2.733,4.9-1.453,2.688-15.688,32.559-16.985,34.578-1.882,2.931-3.157,3.262-6.838,3.481-1.275.076-10.455.9-11.64.472-.982-.357-2.267-1.447-1.679-2.912,1.178-2.938,15.686-35.9,16.836-38.1A4.327,4.327,0,0,1,754.655,594.146Z" transform="translate(-17.203 -11.058)" fill="#8f9d92"/>
        <path id="パス_77134" data-name="パス 77134" d="M756.551,595.478c2.124-1.558,18.821-2.214,19.612-2.117,2.845.357.741,3.941-.027,5.355-1.5,2.778-16.208,33.64-17.548,35.726-1.945,3.028-3.55,2.921-7.351,3.149-1.319.078-10.8.927-12.027.486-1.014-.366-2.056-1.047-1.448-2.559,1.216-3.035,16.277-36.215,17.464-38.485A4.455,4.455,0,0,1,756.551,595.478Z" transform="translate(-17.611 -11.483)" fill="#34a891"/>
        <path id="パス_77135" data-name="パス 77135" d="M772.235,642.739c-.207,1.127-.144,3.355,1.1,3.911,1.742.777,2.653-1.609,3.4-2.677.633-.905,1.526-1.59,1.75-2.726.141-.75.019-.96.675-1.486,1.387-1.106,2.034-1.973,1.731-3.752-.166-1-.077-1.069.482-1.933a3.516,3.516,0,0,0,.661-2.177,4.128,4.128,0,0,0-.834-1.88,7.777,7.777,0,0,1-.668-1.557A14.072,14.072,0,0,1,779.5,625.2a4.958,4.958,0,0,0-.187-1.555c-.471-.967-1.268-1.907-1.722-2.955-.522-1.2-2.461-4.932-2.865-6.146-.228-.678-.23-1.63-.97-1.911a1.472,1.472,0,0,0-1.578.437c-1.375,1.285,1.355,8.577,1.933,9.4-.987-1.346-2.773-.854-4.105-1.143-.714-.154-1.481-.859-2.26-.743-.735.111-.673.942-.624,1.614.154,2.007.9,3.344,3,3.658a7.323,7.323,0,0,1,2.1.393c.555.28.741.775,1.151,1.227.585.65,2.206,1.275,2.324,2.17a29.6,29.6,0,0,0-4.969-1.18c-.657-.033-1.315.084-1.991.037a14.294,14.294,0,0,0-2.688-.322c-1.849.253-.953,2.668.064,3.387a5.145,5.145,0,0,0,2.828.992c.931.057,2.384.2,3.307.286,1.044.095,3.164,1.429,4.059,1.971.539.33.083.333.228.925.122.489-4.116-1.242-5.842-1.846a21.7,21.7,0,0,0-2.176-.482,6.442,6.442,0,0,0-2.29-.4c-1.353.23-1.176,2.678-.274,3.468a7.61,7.61,0,0,0,3.547,1.438,4.247,4.247,0,0,1,2.151.778,2.888,2.888,0,0,1,1.018,1.691C772.831,641.2,772.406,641.863,772.235,642.739Z" transform="translate(-27.696 -22.993)" fill="#edbf98"/>
        <path id="パス_77136" data-name="パス 77136" d="M691.883,656.126l11.315,11.69s-44.893,54.313-46.249,55.027c-3.7,3.377-12.666,3.415-16.785.239-4.243-3.278-4.195-4.724-2.631-14.682.058-.272,2.877-7.282,11.486-17.146C661.176,677.318,691.883,656.126,691.883,656.126Z" transform="translate(0 -32.392)" fill="#e2d5cc"/>
        <path id="パス_77137" data-name="パス 77137" d="M765.1,671.27c2.694-.123,6.087,1.276,8.587.336,2.915-1.093,3.319-2.9,5.458-4.719,2.676,3.726,4.784,8.314,7.06,12.38a141.2,141.2,0,0,1,7.986,16.34c1.893,4.726,5.693,8.838,6.342,14.077a21.236,21.236,0,0,1-1.114,8.729c-1.489,4.66-5,8.989-11.07,8.267-9.606-1.138-14.077-10.259-16.948-18.066C768.63,701.107,762.413,671.387,765.1,671.27Z" transform="translate(-27.582 -34.713)" fill="#e2d5cc"/>
        <path id="パス_77138" data-name="パス 77138" d="M769.349,658.3l-.591-2.126c-.409-1.471,1.042-4.518,2.7-7.778a17.211,17.211,0,0,0,.954-2.025c0-.284-.349-.313-.455-.315l0-.755h0a1.567,1.567,0,0,1,.561.118,1.013,1.013,0,0,1,.644.968,8.562,8.562,0,0,1-1.033,2.35c-1.125,2.216-3.008,5.923-2.644,7.234l.592,2.126Z" transform="translate(-28.499 -30.056)" fill="#bc7f4c"/>
        <path id="パス_77139" data-name="パス 77139" d="M652.352,695.778a.613.613,0,0,1-.555-.875c2.853-6.089,39.522-36.446,41.082-37.736a.614.614,0,1,1,.782.946c-.379.314-38.014,31.47-40.753,37.311A.615.615,0,0,1,652.352,695.778Z" transform="translate(-3.275 -32.586)" fill="#e2d5cc"/>
        <path id="パス_77140" data-name="パス 77140" d="M666.537,724.1a.607.607,0,0,1-.383-.134.613.613,0,0,1-.1-.863l41.295-51.666a.614.614,0,1,1,.958.766l-41.295,51.666A.61.61,0,0,1,666.537,724.1Z" transform="translate(-6.334 -35.646)" fill="#e2d5cc"/>
        <path id="パス_77141" data-name="パス 77141" d="M799.5,698.576a.61.61,0,0,1-.486-.244c-.572-.763-14.147-24.682-15.693-27.406a.614.614,0,1,1,1.067-.606c6.016,10.6,15.139,26.619,15.609,27.279a.617.617,0,0,1-.5.977Z" transform="translate(-31.639 -35.386)" fill="#e2d5cc"/>
        <path id="パス_77142" data-name="パス 77142" d="M791.458,598.367a1.1,1.1,0,0,0-.988-.9l-2.9.2a1.055,1.055,0,0,0-.974,1.09,1.153,1.153,0,0,0,1.3.924c.092-.007,2.655-.24,2.738-.264l.053,0V599.4A1.015,1.015,0,0,0,791.458,598.367Z" transform="translate(-34.378 -12.891)" fill="#504f50"/>
        <path id="パス_77143" data-name="パス 77143" d="M781.857,631.329a.378.378,0,0,1-.377-.359c-.038-.8-2.82-3.713-4.782-5.522a.378.378,0,0,1,.512-.555c.826.763,4.955,4.639,5.024,6.042a.377.377,0,0,1-.359.394Z" transform="translate(-30.2 -25.634)" fill="#bc7f4c"/>
        <path id="パス_77144" data-name="パス 77144" d="M781.722,637.312a.376.376,0,0,1-.376-.358c-.036-.773-1.958-2.28-3.307-3.1a.377.377,0,0,1,.392-.644c.6.366,3.6,2.264,3.67,3.711a.378.378,0,0,1-.359.4Z" transform="translate(-30.477 -27.436)" fill="#bc7f4c"/>
        <path id="パス_77145" data-name="パス 77145" d="M778.466,643.7a.376.376,0,0,1-.371-.312c-.168-.953-1.99-1.813-2.678-2.063a.377.377,0,0,1,.258-.708c.295.107,2.889,1.092,3.164,2.641a.378.378,0,0,1-.305.437A.337.337,0,0,1,778.466,643.7Z" transform="translate(-29.897 -29.043)" fill="#bc7f4c"/>
      </g>
      <path id="パス_77146" data-name="パス 77146" d="M235.939,4018.223l3.43-6.819,14.816,18.367s-6.762,10.881-6.947,9.77S235.939,4018.223,235.939,4018.223Z" fill="#e2d5cc"/>
      <path id="パス_77147" data-name="パス 77147" d="M265.57,4016.8l-11.441,12.961,6.106,8.51,8.289-19.262Z" fill="#e2d5cc"/>
    </g>
  </g>
</svg>
