<svg xmlns="http://www.w3.org/2000/svg" width="245.442" height="129.871" viewBox="0 0 245.442 129.871">
  <g id="teikei_lead_sp" transform="translate(-28 -370.129)">
    <rect id="長方形_30413" data-name="長方形 30413" width="96" height="11" rx="2" transform="translate(122 461)" fill="#ffd800"/>
    <rect id="長方形_30414" data-name="長方形 30414" width="73" height="11" rx="2" transform="translate(28 489)" fill="#ffd800"/>
    <path id="パス_90270" data-name="パス 90270" d="M20.57,19.444a36.684,36.684,0,0,0-6.2-5.61l-1.54,1.76a34.147,34.147,0,0,1,5.808,5.72Zm-.2-8.36V8.752H1.694v2.332h9.064a16.348,16.348,0,0,1-2.97,3.872A20.6,20.6,0,0,1,1.21,19.2L2.9,21.4A26.8,26.8,0,0,0,9.68,16.76V27.1h2.64V14.67c0-.132.044-.176.374-.462a.348.348,0,0,0,.132-.242c0-.2-.2-.264-.308-.286a18.3,18.3,0,0,0,1.716-2.6ZM40.92,24.966V8.6H25.278c.2,2.31.286,4.62.286,6.93,0,5.5-.308,8.03-1.76,10.516l2.288.814a16.767,16.767,0,0,0,1.8-7.282h4.07v6.27h2.486v-6.27h3.96v4.356c0,.616-.286.792-1.188.792a5.4,5.4,0,0,1-1.012-.088l1.21,2.4C40.9,26.792,40.92,26.132,40.92,24.966Zm-2.508-12.1h-3.96V10.732h3.96Zm0,4.642h-3.96V14.934h3.96Zm-6.446-4.642h-3.96c0-.814,0-1.342-.022-2.134h3.982Zm0,4.642H27.984c0-.44.022-.66.044-2.574h3.938ZM60.214,16.32V8.664H49.632V16.32Zm-2.552-2.244H52.1V10.908h5.566Zm6.226,12.5v-8.91H55.374v8.91H57.75v-.638h3.718v.638Zm-2.42-2.86H57.75V19.928h3.718Zm-7.436,2.86v-8.91H45.98v8.91h2.332V26H51.7v.572ZM51.7,23.712H48.312V19.928H51.7Zm34.452,3.124V8.664H67.76V26.836h2.662v-.572H83.578v.572Zm-2.574-2.86H70.422V10.952H83.578Zm-1.87-1.76V13.042H72.094v9.174H74.6v-.682h4.62v.682Zm-2.486-2.9H74.6V15.264h4.62ZM108.944,24.9a12.939,12.939,0,0,1-4.334-3.322c2.09-3.5,2.97-6.622,3.806-11.44l-.572-.616h-9.79v2.31h7.37a21.206,21.206,0,0,1-2.354,7.48,20.349,20.349,0,0,1-2.42-7.172l-2.244.7a23.284,23.284,0,0,0,3.08,8.646,16.423,16.423,0,0,1-4.576,3.5V9.3c0-.088.022-.176.242-.374.2-.154.242-.264.242-.352,0-.176-.11-.2-1.034-.242l-1.936-.11v11.66c-1.012.264-1.144.286-1.716.44V11.26c0-.088.11-.2.176-.264a.537.537,0,0,0,.242-.374c0-.22-.66-.286-.946-.308l-1.958-.154V20.94c-.4.11-.484.132-1.254.308l.55,2.486c.022.11.022.44.286.44.2,0,.286-.242.44-.55.968-.33,2.794-.946,4.18-1.474v4.818H96.91V25.1l1.826,1.826a17.943,17.943,0,0,0,4.29-3.344,19.479,19.479,0,0,0,4.026,3.366Zm19.272-12.056V10.292a15.368,15.368,0,0,1-5.214.9,19.378,19.378,0,0,1-2.816-.242v2.42c1.166.11,2.178.11,2.354.11A29.547,29.547,0,0,0,128.216,12.844Zm1.056,11.55V21.666a17.946,17.946,0,0,1-5.016.682c-2.222,0-2.442-.594-2.464-2.684l-2.4.33c.066,3.718.9,4.8,4.906,4.8A30.071,30.071,0,0,0,129.272,24.394Zm-11.506-3.916-1.3-.7c-.484.858-.616,1.078-.88,1.54a12.1,12.1,0,0,1-.308-3.014c0-3.322.946-7.3,1.276-7.5.044-.022.33-.132.374-.154a.261.261,0,0,0,.11-.2c0-.176-.418-.33-.572-.4l-2.244-.814a43.361,43.361,0,0,0-.924,5.016,38.915,38.915,0,0,0-.33,4.334,19.167,19.167,0,0,0,.9,5.786,6.734,6.734,0,0,0,.814,1.738l1.738-.682A19.518,19.518,0,0,1,117.766,20.478Zm34.21,4.2V8.532h-8.184v6.6h5.852v8.954c0,.55-.2.77-.748.77a7,7,0,0,1-1.254-.11l.946,2.442h1.254C151.69,27.188,151.976,25.912,151.976,24.68Zm-2.332-13.552h-3.476V10.27h3.476Zm0,2.266h-3.476v-.858h3.476Zm-7.436,1.738v-6.6h-8.25V27.188H136.4V15.132Zm-2.332-4H136.4V10.27h3.476Zm0,2.266H136.4v-.858h3.476Zm8.844,8.624V20.236h-4.906c.022-.286.044-.572.066-1.122h3.982V17.332h-1.628c.066-.11.44-.682.462-.7.044-.044.33-.132.374-.176a.235.235,0,0,0,.132-.2c0-.11-.11-.176-.2-.2l-2.09-.7a11.857,11.857,0,0,1-.968,1.98H141.46l.726-.286a14.682,14.682,0,0,0-1.078-1.738l-1.936.858a4.7,4.7,0,0,1,.836,1.166H138.27v1.782h3.388a10.5,10.5,0,0,1-.066,1.122h-4.2v1.782h3.718c-.748,1.452-1.606,2.222-3.872,2.948l1.584,1.628a7.191,7.191,0,0,0,4-3.278,8.057,8.057,0,0,0,3.5,3.058l1.408-1.738a6.6,6.6,0,0,1-3.322-2.618Zm24.552-8.756V10.886c-2.244.176-2.926.242-5.984.418V9.038c0-.088.022-.132.176-.264s.2-.2.2-.33c0-.22-.132-.286-.638-.308l-2.442-.154c.132,1.606.132,2.772.154,3.454-4.62.22-6.512.22-8.008.22v2.552c2.794-.352,6.116-.55,8.074-.66l.044,1.65a2.9,2.9,0,0,0-1.034-.176c-2.244,0-3.454,1.672-3.454,4.092a3.937,3.937,0,0,0,1.144,3.058,2.77,2.77,0,0,0,1.8.682,4.424,4.424,0,0,0,1.188-.22,7.02,7.02,0,0,1-3.146,3.608l2.464,1.276a15.263,15.263,0,0,0,2.992-4.092,9.864,9.864,0,0,0,1.122-4.246,5.674,5.674,0,0,0-.638-2.684v-3.08C170.148,13.306,171.6,13.262,173.272,13.262Zm-8.008,5.566c0,1.562-1.056,2.046-1.518,2.046-.506,0-1.21-.506-1.21-1.826,0-1.166.616-1.936,1.5-1.936a1.145,1.145,0,0,1,.814.308A2.052,2.052,0,0,1,165.264,18.828Zm28.864,1.364a4.849,4.849,0,0,0-4.884-4.862,17.517,17.517,0,0,0-2.134.132,54.394,54.394,0,0,1,4.884-4.708L190.85,8.972a24.933,24.933,0,0,1-6.666,1.1c-.682,0-1.936-.088-2.464-.132l.506,2.464a20.538,20.538,0,0,0,5.148-.55,43.432,43.432,0,0,1-8.14,7.942l1.848,1.936a24.835,24.835,0,0,1,4.532-3.938,5.966,5.966,0,0,1,2.508-.55c1.43,0,3.564.7,3.564,2.882a3.875,3.875,0,0,1-1.452,2.926c-.616-.77-2.046-2.574-4.334-2.574a3.081,3.081,0,0,0-3.234,2.926c0,1.628,1.408,3.014,4.158,3.014C190.7,26.418,194.128,23.844,194.128,20.192Zm-5.94,3.938a6.255,6.255,0,0,1-1.5.2c-.792,0-1.8-.22-1.8-.99a.969.969,0,0,1,1.1-.924C187.242,22.414,187.9,23.624,188.188,24.13ZM19.272,41.262V38.886c-2.244.176-2.926.242-5.984.418V37.038c0-.088.022-.132.176-.264s.2-.2.2-.33c0-.22-.132-.286-.638-.308l-2.442-.154c.132,1.606.132,2.772.154,3.454-4.62.22-6.512.22-8.008.22v2.552c2.794-.352,6.116-.55,8.074-.66l.044,1.65a2.9,2.9,0,0,0-1.034-.176c-2.244,0-3.454,1.672-3.454,4.092A3.937,3.937,0,0,0,7.5,50.172a2.77,2.77,0,0,0,1.8.682,4.424,4.424,0,0,0,1.188-.22,7.02,7.02,0,0,1-3.146,3.608l2.464,1.276A15.263,15.263,0,0,0,12.8,51.426a9.865,9.865,0,0,0,1.122-4.246,5.674,5.674,0,0,0-.638-2.684v-3.08C16.148,41.306,17.6,41.262,19.272,41.262Zm-8.008,5.566c0,1.562-1.056,2.046-1.518,2.046-.506,0-1.21-.506-1.21-1.826,0-1.166.616-1.936,1.5-1.936a1.145,1.145,0,0,1,.814.308A2.052,2.052,0,0,1,11.264,46.828Zm30.778-8.074a7.457,7.457,0,0,0-1.914-1.716L39.05,38.072a7.649,7.649,0,0,1,1.914,1.716ZM39.864,40.69A7.069,7.069,0,0,0,37.994,39L36.916,40.03a6.749,6.749,0,0,1,1.87,1.694Zm2.486,8.734a20.373,20.373,0,0,1-3.256-2.64c-1.254-1.21-3.674-3.674-5.148-5.346-1.452-1.65-1.914-2.156-2.926-2.156-1.166,0-1.848.924-2.75,2.2-2.6,3.608-2.97,4.136-4.774,5.874l2.4,1.386a55.689,55.689,0,0,0,4.136-5.434c.616-.88,1.166-.88,1.276-.88a1.563,1.563,0,0,1,1.034.616,49.977,49.977,0,0,0,8.14,8.624Zm20.5-9.834V36.95A66.6,66.6,0,0,1,46.816,39l.44,2.6a84.123,84.123,0,0,1,8.382-.946c-1.034.968-4.268,4-4.268,7.766,0,4.906,5.5,6.05,7.282,6.424l.77-2.772a6.53,6.53,0,0,1-3.828-1.056,3.77,3.77,0,0,1-1.628-3.08c0-2.2,1.826-4.642,3.762-6.2A8.515,8.515,0,0,1,62.854,39.59Zm23.1,6.006c0-4.906-3.608-8.008-8.184-8.008a9.489,9.489,0,0,0-9.7,9.328c0,3.938,3.608,5.918,4.4,5.918,1.144,0,2.156-1.848,2.816-3.212a31.235,31.235,0,0,0,2.728-9.79,5.628,5.628,0,0,1,3.74,1.474,5.187,5.187,0,0,1,1.584,3.85,6.883,6.883,0,0,1-1.584,4.378,7.41,7.41,0,0,1-3.96,2.354l1.628,2.266a10.621,10.621,0,0,0,5.126-3.872A8.22,8.22,0,0,0,85.954,45.6Zm-10.56-5.368c-.44,3.432-2.332,9.174-3.476,9.174-.4,0-1.408-.924-1.408-2.706a7.2,7.2,0,0,1,2.2-4.884A6.5,6.5,0,0,1,75.394,40.228Zm33.682-2.772V35.19h-7.788V55.98h2.244V37.456Zm21.032,17.512V36.8H111.8V55.1h2.486v-.66h13.376v.528Zm-2.442-2.684H114.29V38.952h13.376Zm-.176-3.3c-.814-.506-3.74-2.332-4.73-5.06h4.268V41.878H122.21v-1.43c0-.066.022-.088.264-.242.2-.154.242-.242.242-.33,0-.308-.528-.352-.748-.374l-2.134-.11v2.486H115.06v2.046h4.246a12.662,12.662,0,0,1-4.686,5.368l1.738,1.716a17.154,17.154,0,0,0,3.476-4.07V51.6h2.376V46.718a14.839,14.839,0,0,0,3.872,4.136Zm22.726-1.65c0-3.5-2.464-4.972-5.192-4.972a13.585,13.585,0,0,0-3.542.594,37.787,37.787,0,0,1-5.9,1.386l1.078,2.31c2.09-.748,3.52-1.21,3.96-1.342a20.77,20.77,0,0,1,4.29-1.012,2.9,2.9,0,0,1,3.168,2.9c0,3.322-4.532,4.136-6.358,4.136-.352,0-.792-.022-1.606-.088l1.144,2.31C145,53.142,150.216,52.284,150.216,47.334Zm22.7-1.342V43.66a25.265,25.265,0,0,0-2.9-.132c-1.166,0-2.266.066-3.41.154v2.31a26.962,26.962,0,0,1,3.3-.242A23.909,23.909,0,0,1,172.92,45.992Zm-4.972-4.422V39.128a17.207,17.207,0,0,1-3.5,1.3c.154-.616.33-1.408.528-2.4.044-.22.088-.242.374-.374.2-.088.264-.154.264-.308,0-.242-.506-.352-.55-.352l-2.706-.638a26.716,26.716,0,0,1-.748,4.664,15.962,15.962,0,0,1-2.178.132,8.877,8.877,0,0,1-1.782-.132l.176,2.288a29.005,29.005,0,0,0,3.278-.264,36.628,36.628,0,0,1-4.466,10.472l2.684.814a62.392,62.392,0,0,0,4.532-11.7A26.552,26.552,0,0,0,167.948,41.57Zm5.324,12.584-.22-2.552a14.483,14.483,0,0,1-3.872.484c-.506,0-2.178-.022-2.794-.594a.755.755,0,0,1-.264-.66,4.159,4.159,0,0,1,.088-.814l-2.178-.462a5.1,5.1,0,0,0-.264,1.584c0,2.244,1.694,3.344,5.654,3.344A21.279,21.279,0,0,0,173.272,54.154Zm11.44,1.936V35.3h-2.244V53.824h-5.544V56.09ZM18.678,73.442l-.748-2.508c-1.034.462-1.32.594-3.894,1.8a2.949,2.949,0,0,0-2.992-2.222,4.254,4.254,0,0,0-1.892.462c.374-.572.55-.88,1.254-2.178a46.31,46.31,0,0,0,5.258-.836l.154-2.464a18.576,18.576,0,0,1-4.312,1.122c.11-.242.66-1.474.682-1.5.022,0,.462-.2.506-.22.132-.044.22-.11.22-.242,0-.154-.374-.2-.44-.22l-2.75-.484a17.06,17.06,0,0,1-1.1,2.926,30.944,30.944,0,0,1-4.2-.088l.264,2.288c.924,0,1.606-.022,2.86-.088a29.251,29.251,0,0,1-4.334,6.05L5.368,76.39c1.21-1.98,2.53-3.982,4.686-3.982a1.524,1.524,0,0,1,1.672,1.452C8.426,75.554,6.4,76.588,6.4,79.316a3.008,3.008,0,0,0,.836,2.156c1.386,1.474,3.938,1.474,5.17,1.474a36.409,36.409,0,0,0,5.236-.33V80.13a25.436,25.436,0,0,1-5.61.7c-1.606,0-3.3-.286-3.3-1.716,0-1.54,2.288-2.684,3.124-3.1-.022.968-.044,2.046-.11,3.3H14.3c0-.748-.044-3.476-.044-4.334C15.884,74.366,16.94,73.992,18.678,73.442ZM32.6,81.3V69.152H30.36l1.628-2.662-.55-.77h-3.52c.154-.374.176-.418.374-.462.132-.044.286-.088.286-.264s-.176-.242-.572-.308l-1.914-.33a20.782,20.782,0,0,1-3.19,5.39l1.914.836a30.669,30.669,0,0,1,.154,3.19c0,4.818-.946,6.644-1.8,8.36l2.024.748a16.245,16.245,0,0,0,1.474-4.906H30.8v2.4c0,.66-.616.792-1.144.792-.132,0-.374-.022-.66-.044l.616,1.87C30.58,82.968,32.6,82.924,32.6,81.3Zm-4.642-8.6H26.8V71.066h1.166Zm2.838,0H29.59V71.066H30.8Zm0,3.388H29.59v-1.65H30.8Zm-2.838,0H26.84v-1.65h1.122Zm.836-8.558-1.012,1.628H26a14.069,14.069,0,0,0,.99-1.628ZM42.57,64.906H33.528V66.6H35.42a4.958,4.958,0,0,1-2.772,3.828l1.716,1.364a8.775,8.775,0,0,1-1.716,3.5l1.672,1.188a13.661,13.661,0,0,0,.858-1.43h2.2v1.914h-3.74v1.914h3.74v4h2.178v-4H42.35V76.962H39.556V75.048h2.552V73.112H39.556v-.4a.61.61,0,0,1,.22-.374.692.692,0,0,0,.176-.33c0-.154-.528-.242-.836-.308,2.024-.132,3.388-.66,3.432-4.576ZM40.216,66.6c-.022,1.452-.044,2.948-1.54,2.948a4.672,4.672,0,0,1-.66-.044l.9,2.178-1.54-.176v1.606H36.014l.044-.2c.264-.132.33-.154.33-.308s-.528-.33-.792-.44l-.858-.33A8.647,8.647,0,0,0,37.862,66.6ZM64.922,81.054a11.7,11.7,0,0,1-6.182-5.786h6.094V73.046H63.272l.286-5.39h-5.28c0-.4-.022-2.112-.022-2.442,0-.2.044-.22.33-.44.066-.044.154-.11.154-.2,0-.264-.4-.308-.638-.308L55.55,64.18c.11,1.342.132,2.2.154,3.476H51.876v2.2h3.85c0,2.024,0,2.266-.044,3.19H50.974v2.222h4.444a8.646,8.646,0,0,1-6.072,5.94l1.694,2.068a10.893,10.893,0,0,0,6.138-6.028,13.5,13.5,0,0,0,2.574,3.432,13.89,13.89,0,0,0,3.586,2.53Zm-3.982-11.2-.132,3.19h-2.64c.066-2.068.066-2.288.066-3.19ZM50.468,66.138a14.746,14.746,0,0,0-2.9-2.046l-1.3,1.738a12.8,12.8,0,0,1,2.9,2.068Zm-1.738,5.61a16.5,16.5,0,0,0-2.9-1.87l-1.342,1.87a17.627,17.627,0,0,1,2.926,1.87Zm1.276,5.082-2-1.342A24.728,24.728,0,0,1,45.3,82.022l1.87,1.122a1.893,1.893,0,0,0,.55.22c.066,0,.11-.022.11-.176a4.588,4.588,0,0,1,0-.55c.022-.066.858-2,1.012-2.4C49.324,78.92,49.654,77.952,50.006,76.83Zm43.516-.44a18.7,18.7,0,0,0-3.608-9.35l-2.266,1.1a20.458,20.458,0,0,1,3.234,8.932Zm-9.7-.33-1.826-1.628c-.418,1.056-1.32,3.388-2.112,3.388-.44,0-1.5-.792-1.5-5.082a22.805,22.805,0,0,1,.418-4.906c.374-.132.638-.22.638-.462,0-.264-.352-.374-.506-.418l-2.42-.66a21.426,21.426,0,0,0-.66,5.72c0,4.18.7,6.754,2.244,8.25a2.4,2.4,0,0,0,1.628.726C81.51,80.988,82.61,78.656,83.82,76.06Zm30.426-2.068V71.66a25.264,25.264,0,0,0-2.9-.132c-1.166,0-2.266.066-3.41.154v2.31a26.964,26.964,0,0,1,3.3-.242A23.91,23.91,0,0,1,114.246,73.992Zm-4.972-4.422V67.128a17.206,17.206,0,0,1-3.5,1.3c.154-.616.33-1.408.528-2.4.044-.22.088-.242.374-.374.2-.088.264-.154.264-.308,0-.242-.506-.352-.55-.352l-2.706-.638a26.715,26.715,0,0,1-.748,4.664,15.962,15.962,0,0,1-2.178.132,8.876,8.876,0,0,1-1.782-.132l.176,2.288a29.006,29.006,0,0,0,3.278-.264,36.628,36.628,0,0,1-4.466,10.472l2.684.814a62.392,62.392,0,0,0,4.532-11.7A26.552,26.552,0,0,0,109.274,69.57ZM114.6,82.154l-.22-2.552a14.483,14.483,0,0,1-3.872.484c-.506,0-2.178-.022-2.794-.594a.755.755,0,0,1-.264-.66,4.16,4.16,0,0,1,.088-.814l-2.178-.462a5.1,5.1,0,0,0-.264,1.584c0,2.244,1.694,3.344,5.654,3.344A21.279,21.279,0,0,0,114.6,82.154Zm21.648-5.522L134.09,74.85c-2.156,4.224-5.1,4.994-6.336,4.994a2.121,2.121,0,0,1-1.936-.924c-.418-.748-.418-2.882-.418-3.894a83.151,83.151,0,0,1,.616-8.8c.352-.286.616-.462.616-.638,0-.132-.2-.286-.726-.352l-2.926-.418c.066,1.474-.11,8.008-.11,9.35,0,5.28.352,6.4,1.386,7.3a4.894,4.894,0,0,0,3.212,1.122,7.952,7.952,0,0,0,4.378-1.408A16.415,16.415,0,0,0,136.246,76.632Zm21.032,2.794a18.289,18.289,0,0,0-5.566-2.486c-.066-1.3-.066-1.518-.11-2.618a47.291,47.291,0,0,0,4.708-.55v-2.4c-2.024.374-2.838.506-4.752.748v-2.6c1.1-.022,3.146-.066,5.588-.066l.088-2.332c-2.068.154-2.816.2-5.632.33.022-1.144.044-1.562.044-1.584a.715.715,0,0,1,.286-.4c.242-.2.286-.22.286-.308,0-.154-.132-.22-.55-.264l-2.684-.264.066,2.926c-1.958.044-3.146.088-5.654.088l.044,2.376c1.892-.22,3.146-.308,5.676-.418l.044,2.75a15.1,15.1,0,0,1-1.518.044c-.374,0-.836,0-.836-.308,0-.286.33-.528.726-.814l-1.254-1.078c-.858.616-2.354,1.65-2.354,2.728,0,.858,1.012,1.584,3.036,1.584.638,0,1.848-.044,2.244-.066l.044,2.112-.616-.022c-4.95-.176-5.17,2.376-5.17,3.014,0,1.782,1.892,2.86,4.928,2.86,2.816,0,3.344-.88,3.432-3.124a16.584,16.584,0,0,1,4.026,2.178Zm-8.008-.77c.022,1.232-.066,1.628-1.5,1.628-.264,0-1.672,0-1.672-.748,0-.572.7-.946,2.134-.946A5.7,5.7,0,0,1,149.27,78.656ZM180.6,69.262V66.886c-2.244.176-2.926.242-5.984.418V65.038c0-.088.022-.132.176-.264s.2-.2.2-.33c0-.22-.132-.286-.638-.308l-2.442-.154c.132,1.606.132,2.772.154,3.454-4.62.22-6.512.22-8.008.22v2.552c2.794-.352,6.116-.55,8.074-.66l.044,1.65a2.9,2.9,0,0,0-1.034-.176c-2.244,0-3.454,1.672-3.454,4.092a3.937,3.937,0,0,0,1.144,3.058,2.77,2.77,0,0,0,1.8.682,4.424,4.424,0,0,0,1.188-.22,7.02,7.02,0,0,1-3.146,3.608l2.464,1.276a15.263,15.263,0,0,0,2.992-4.092,9.864,9.864,0,0,0,1.122-4.246,5.674,5.674,0,0,0-.638-2.684v-3.08C177.474,69.306,178.926,69.262,180.6,69.262Zm-8.008,5.566c0,1.562-1.056,2.046-1.518,2.046-.506,0-1.21-.506-1.21-1.826,0-1.166.616-1.936,1.5-1.936a1.145,1.145,0,0,1,.814.308A2.052,2.052,0,0,1,172.59,74.828Z" transform="translate(30 412.422)" fill="#222"/>
    <g id="shine" transform="matrix(0.996, 0.087, -0.087, 0.996, 216.069, 369)">
      <path id="パス_61348" data-name="パス 61348" d="M8.75.546l-.187.569-.144.568-.246.53L8,2.77l-.136.575-.284.514-.118.576-.274.522-.264.521-.12.574-.231.535-.118.575-.288.513-.127.576L5.8,8.785l-.215.541-.134.57-.265.525-.147.567-.246.53-.234.538-.138.571-.2.547-.241.537-.1.583-.245.538-.285.516-.074.591-.241.535-.186.553-.2.549-.214.541-.23.541-.228.54-.127.572-.2.551-.159.563-.187.556-.276.521-.142.571-.247.533-.22.545-.138.576L0,24.754l.63.072.587.043.582.1.573.115.571.121.592.027.547.253.581.086.578.1.588.033.559.186.595.006L7.557,26l.582.069.577.121.573.131.617.118.107-.623-.123-.6.162-.577-.063-.594.165-.576.043-.589-.039-.593.178-.57-.047-.592.163-.571.008-.589.056-.583-.034-.589.112-.582.117-.579-.04-.591-.006-.593.1-.583-.009-.586.081-.584.113-.578.032-.59.046-.584.049-.589.074-.583,0-.588.057-.589.056-.584.121-.58.015-.592.065-.583.087-.585-.063-.59.069-.591.048-.587.131-.579,0-.59.046-.59.084-.582-.079-.6.077-.591.077-.582.054-.589L12.16.626l0-.626-.589.1-.56.082L10.473.4,9.889.351,9.331.473Z" transform="matrix(-0.875, -0.485, 0.485, -0.875, 33.89, 37.744)" fill="#ffdd7f"/>
      <path id="パス_61349" data-name="パス 61349" d="M18.733,0l-.462.351-.36.464-.506.306-.379.451-.4.419-.387.442-.5.322-.376.45-.428.389-.429.392-.442.379-.428.394-.4.426-.386.442-.491.328-.433.392-.408.417-.408.416-.443.379-.4.428-.489.328-.4.432-.416.41-.367.46-.428.4-.47.353-.4.427-.431.4-.446.374L6.022,12l-.42.4-.394.429-.469.35-.422.406-.451.376-.366.461-.44.389-.467.358-.433.4-.415.408-.414.413L.908,16.8l-.467.365-.44.44.505.356.493.32.454.368.485.329.433.394.547.24.4.434.436.4.487.328.5.309.413.421.468.367.572.2.409.43.45.384.522.286.47.35.346-.472.247-.535.344-.483.261-.526.355-.473.28-.518.356-.467.309-.5.264-.525.293-.508.321-.49.347-.472.243-.54.368-.459.34-.483.271-.526.219-.556.391-.448.322-.489.282-.514.31-.5.333-.484.337-.484.317-.5.242-.539.324-.493.335-.484.349-.478.23-.549.321-.493.358-.469.363-.475.155-.592.392-.45.256-.532.408-.437.275-.525.286-.516.3-.506.266-.535.38-.453.237-.547.382-.457.342-.487.28-.537L21.418.913l-.5-.305L20.331.593,19.805.366,19.263.192Z" transform="matrix(-0.875, -0.485, 0.485, -0.875, 48.917, 51.786)" fill="#ffdd7f"/>
      <path id="パス_61350" data-name="パス 61350" d="M0,2.546.207,3.1l.185.548.161.563.186.554L.965,5.3l.223.539.173.556.2.551.15.561.3.509.051.6.237.537.243.53.267.524.123.576.221.542.081.587.255.529.148.564.208.547.164.566.3.509.135.567.208.549.236.536.126.575.23.538.159.565.228.536.213.547L6,19.6l.177.552.231.533.26.531.1.582.242.532.238.538.134.575L7.584,24l.168.564.161.563.237.538.068.6.308.466.5-.212.489-.326.524-.26.5-.3L11,25.273l.566-.188.525-.258.494-.318.46-.372.554-.211.535-.247.475-.35.5-.312.558-.2.5-.307.519-.278.511-.338-.322-.517-.36-.46-.4-.435-.351-.475-.228-.551-.361-.468-.27-.525-.316-.5-.429-.413-.284-.517-.28-.515-.349-.473-.431-.417-.225-.554-.367-.463-.325-.491-.362-.465-.284-.519-.348-.47-.318-.5-.413-.427-.318-.5-.3-.508L9.3,10.21l-.332-.491-.4-.435-.26-.535-.373-.459-.311-.5-.359-.464-.317-.5-.32-.492-.391-.447-.25-.536-.4-.445L5.286,4.4l-.273-.529L4.574,3.46l-.358-.474-.266-.53-.3-.5-.362-.47-.31-.5L2.625.5,2.291,0l-.3.5-.5.308-.251.536-.5.318-.33.47Z" transform="matrix(-0.875, -0.485, 0.485, -0.875, 15.045, 31.718)" fill="#ffdd7f"/>
      <path id="パス_61351" data-name="パス 61351" d="M0,2.6C1.16,2.025,1.5,1.562,1.929,0c.425,1.562.769,2.025,1.929,2.6-1.16.572-1.5,1.035-1.929,2.6C1.5,3.632,1.16,3.169,0,2.6" transform="matrix(-0.875, -0.485, 0.485, -0.875, 12.081, 21.267)" fill="#ffc449"/>
      <path id="パス_61352" data-name="パス 61352" d="M0,4.433C1.98,3.457,2.568,2.666,3.292,0,4.017,2.666,4.6,3.457,6.585,4.433,4.6,5.409,4.017,6.2,3.292,8.865,2.568,6.2,1.98,5.409,0,4.433" transform="matrix(-0.875, -0.485, 0.485, -0.875, 12.607, 16.615)" fill="#ffc449"/>
      <path id="パス_61353" data-name="パス 61353" d="M0,1.732C1.24,1.59,1.7,1.281,2.6,0c-.123,1.558.039,2.091.908,2.988-1.24.142-1.7.451-2.6,1.732C1.03,3.163.868,2.629,0,1.732" transform="matrix(-0.875, -0.485, 0.485, -0.875, 39.969, 44.205)" fill="#ffc449"/>
    </g>
    <path id="パス_90271" data-name="パス 90271" d="M13.8-7.065V-8.79H9.78v-2.73c.24-.255.39-.33.39-.5,0-.12-.21-.18-.33-.18L7.92-12.27v3.48H4.455c0-.285-.045-1.305-.045-1.95v-.375c0-.24,0-.3.18-.435.105-.09.18-.15.18-.24,0-.18-.225-.225-.54-.225l-1.74-.03A41.48,41.48,0,0,1,2.715-7.53c0,4.155-.4,5.3-1.83,7.425L2.655.78a11.236,11.236,0,0,0,1.7-4.83H8.88V.81h1.995V-5.745H4.455v-1.32ZM29-7.245V-8.91h-1.74v-2.58c0-.06.045-.12.165-.225.1-.09.15-.135.15-.2,0-.12-.135-.165-.375-.18l-1.785-.12v3.3H20.265v1.665H25.41V-1.56c0,.63-.21.69-.66.69-.15,0-.81-.06-.945-.075L24.435.87h1.23a1.417,1.417,0,0,0,1.59-1.62v-6.5ZM24.33-3.24a16.176,16.176,0,0,0-1.815-3.15l-1.65,1.035a10.966,10.966,0,0,1,1.8,3.045Zm-3.57-8.145c0-.165-.255-.24-.375-.285l-1.68-.555A13.094,13.094,0,0,1,15.48-6.48l1.425,1.215a6,6,0,0,0,.69-.87V.78h1.77V-8.4c0-.045.015-.06.165-.18.1-.06.15-.105.15-.18,0-.1-.1-.15-.345-.27a15.984,15.984,0,0,0,.975-2.1c.03-.06.06-.075.24-.1C20.7-11.265,20.76-11.3,20.76-11.385ZM43.32-7.86l-.06-1.725a13.707,13.707,0,0,1-2.04.72c-.06-.75-.135-1.635-.135-1.695-.015-.075-.045-.39-.045-.465s.03-.135.135-.27c.045-.06.135-.165.135-.225,0-.18-.255-.18-.39-.18l-1.755-.06A26.451,26.451,0,0,1,39.6-8.52a18.747,18.747,0,0,1-2.415.165c-.27,0-.48,0-.96-.03L36.57-6.66a20.863,20.863,0,0,0,3.1-.225v.8a7.476,7.476,0,0,1-.555,3.285A8.307,8.307,0,0,1,37.65-.3l1.695.87a11.1,11.1,0,0,0,2.01-6.885c0-.255,0-.45-.015-.9A17.152,17.152,0,0,0,43.32-7.86ZM35.73-3.93,34.6-4.71c-.3.675-.39.885-.6,1.44a11.065,11.065,0,0,1-.3-2.835c0-2.055.4-4.575.72-4.83.195-.15.24-.18.24-.24,0-.15-.39-.255-.435-.27l-1.515-.435a27.2,27.2,0,0,0-.6,5.325,14.353,14.353,0,0,0,1.2,6.39l1.44-.225A13.84,13.84,0,0,1,35.73-3.93ZM58.755-6.765v-3.2h-2.94c.15-.165.3-.345.42-.495.27-.345.315-.39.36-.45.24-.03.465-.075.465-.255,0-.15-.1-.165-.27-.255l-1.305-.69a8.423,8.423,0,0,1-1.335,1.59l.93.555H53.385v-1.47c0-.075.015-.135.135-.24s.15-.15.15-.255c0-.165-.075-.18-.81-.21l-1.35-.06V-9.96H50.16l.615-.48a10.032,10.032,0,0,0-1.545-1.545l-1.29.945a4.447,4.447,0,0,1,.99,1.08h-2.7v3.3H47.9V-8.505H57.09v1.74ZM58.665.69V-.78H53.46V-1.845h4.11V-3.27H53.46v-.945h2.835v-3.72h-7.6v3.72h2.82v.945H47.445v1.425H51.51V-.78H46.335V.69Zm-4.1-6.33H50.4v-.885h4.17ZM73.8-2.175a12.006,12.006,0,0,0-2.58-1.41,36.85,36.85,0,0,1-.21-4.02,14.014,14.014,0,0,0,1.875-.42v-1.62a6.549,6.549,0,0,1-1.86.615,17.3,17.3,0,0,1,.21-1.86c.15-.09.285-.165.285-.24s-.045-.165-.36-.21l-1.68-.27c-.03,1.485-.03,1.65-.06,2.775a11.874,11.874,0,0,1-1.395.09,7.808,7.808,0,0,1-1.35-.09L66.69-7.29A16.674,16.674,0,0,0,69.4-7.41c.03,1.02.075,1.65.195,3.435-.3-.03-.615-.06-.915-.06-1.455,0-2.64.585-2.64,1.935C66.045.06,68.565.06,69,.06c2.04,0,2.34-.78,2.37-1.935A8.025,8.025,0,0,1,72.945-.69ZM65.235-3.5,64.29-4.14l-.615.9A14.779,14.779,0,0,1,63.6-4.815a38.114,38.114,0,0,1,.555-4.65,4.288,4.288,0,0,1,.33-1.02,2.308,2.308,0,0,0,.285-.12.13.13,0,0,0,.06-.105c0-.15-.315-.285-.36-.3l-1.455-.57A28.436,28.436,0,0,0,62.1-4.56,16.137,16.137,0,0,0,62.67.09l1.38-.225A13.174,13.174,0,0,1,65.235-3.5Zm4.455.945c.03.78.06,1.125-.93,1.125-.885,0-1.32-.315-1.32-.66s.48-.6,1.185-.6A5.16,5.16,0,0,1,69.69-2.55Zm19.125-.405V-4.32H83.31v-.645h3.915V-6.18H83.31v-.645h4.77v-1.29H85.32c.195-.3.345-.54.54-.9H88.8V-10.26H86.61c.09-.12.51-.75.54-.78a1.323,1.323,0,0,1,.3-.135.184.184,0,0,0,.09-.135.145.145,0,0,0-.105-.12l-1.5-.75a10.37,10.37,0,0,1-.855,1.665l.495.255H84.63v-1.245c0-.075.075-.135.12-.165.075-.045.12-.09.12-.15,0-.09-.09-.12-.165-.135l-1.62-.21v1.905h-1.05v-1.17a.322.322,0,0,1,.15-.24c.045-.045.12-.1.12-.195A.158.158,0,0,0,82.17-12L80.5-12.225v1.965H79.32l.63-.39a8.94,8.94,0,0,0-1.275-1.59l-1.245.78a9.457,9.457,0,0,1,.975,1.2H76.2v1.245h2.94c.15.21.195.285.57.9H76.9v1.29H81.69v.645H77.85v1.215h3.84v.645H76.2v1.365H80.5A13.051,13.051,0,0,1,76.2-.405L77.565.81A15.963,15.963,0,0,0,81.69-2.01V.66h1.62V-2.175A11.114,11.114,0,0,0,87.6.66L88.74-.645a8.72,8.72,0,0,1-4.14-2.31Zm-4.74-6.06a7.189,7.189,0,0,1-.45.9H81.39c-.255-.48-.27-.525-.465-.9Zm20.55,2.565a6.634,6.634,0,0,1-3.075-.975,8.888,8.888,0,0,0,1.44-2.295h.975v-1.4h-4.17a3.2,3.2,0,0,1,.195-.33,1.132,1.132,0,0,1,.255-.15.2.2,0,0,0,.075-.15c0-.075-.1-.1-.15-.12l-1.59-.375a7.053,7.053,0,0,1-2.37,3.225l1.245.8a9.811,9.811,0,0,0,.825-.885,6.557,6.557,0,0,0,1.08,1.83,4.465,4.465,0,0,1-2.37.96,6.183,6.183,0,0,0,.315-.93l-.72-.78H95.07l.345-.66a2.08,2.08,0,0,0-.5-.3c.885-.84,1.335-1.29,2.28-2.325l-.525-.51H91.29v1.335h3.27a4.888,4.888,0,0,1-.84.885,15.229,15.229,0,0,0-1.425-.6L91.65-9.075c.78.36,1.395.675,2.04,1.05H91v1.5h1.92a12.86,12.86,0,0,1-2.385,3.96l1.5.66A14.787,14.787,0,0,0,93.33-3.96v2.82c0,.39-.195.45-.5.45-.075,0-.9-.03-1.035-.03L92.385.825C94.545.81,94.92.615,94.92-1.02V-6.525h.81a7.088,7.088,0,0,1-.69,1.4l1.11.57a9.064,9.064,0,0,0,.78-1.65l1.1,1.14a7.642,7.642,0,0,0,1.245-.57,6.413,6.413,0,0,1-.015,1.23H96.99v1.455h1.95A4.864,4.864,0,0,1,96.09-.21L97.4.84A6.266,6.266,0,0,0,99.39-.735a7.051,7.051,0,0,0,1.26-2.22h1.485a6.324,6.324,0,0,1-.27,1.92c-.09.21-.225.27-.54.27-.195,0-1.02-.015-1.2-.03L100.74.66c1.35-.015,2.175-.15,2.505-.855A15.126,15.126,0,0,0,103.8-4.41h-2.85c0-.06.015-.42.015-.45.015-.09.075-.12.27-.285a.172.172,0,0,0,.09-.135c0-.06-.075-.105-.15-.12l-1.83-.27a6.4,6.4,0,0,0,1.1-.69,6.266,6.266,0,0,0,3.12,1.17ZM101.28-9.72a4.2,4.2,0,0,1-.87,1.44,3.494,3.494,0,0,1-.75-1.44Zm17.01,2.535V-12.09h-6.825v4.905ZM116.7-10.17h-3.645v-.645H116.7Zm0,1.725h-3.645v-.66H116.7Zm2.475,7.41a23.969,23.969,0,0,1-3.75.18v-1.8h2.79V-4.17h-2.79v-.975h3.555v-1.47h-7.935v1.47h2.715V-1.32a2.359,2.359,0,0,1-.975-1.23c.03-.15.135-.9.15-.975.015-.06.045-.105.21-.24.12-.075.18-.135.18-.255,0-.09-.045-.2-.45-.225L111.39-4.38a4.969,4.969,0,0,1-1.935,4.32l1.395,1a6.5,6.5,0,0,0,1.5-2.16,3.455,3.455,0,0,0,.885,1.08,4.568,4.568,0,0,0,3.1.915h2.22ZM110.94-8.46v-1.575h-1.47V-11.58c0-.075.045-.12.15-.21.075-.075.135-.135.135-.225s0-.18-.57-.195l-1.35-.045v2.22H106.05V-8.46h1.785v2.3c-1.1.36-1.53.465-1.83.54L106.08-3.9c.015.345.015.465.225.465.12,0,.135,0,.3-.255.075-.12.135-.135.585-.3.1-.03.36-.135.645-.255V-1.29c0,.285-.06.36-.18.39-.1.03-1.11,0-1.32,0l.6,1.74c.54-.015,2.535-.03,2.535-1.11V-4.95c.825-.345,1.05-.435,1.365-.57V-7.275c-.33.12-.975.375-1.365.54V-8.46Zm22.965,3.7v-1.11H131.04v-.66h1.98V-7.41h-1.98v-.57h2.01v-.885h-2.01V-9.39h2.775V-10.5h-2.6c.2-.27.375-.555.495-.735.045-.06.18-.075.255-.09.12,0,.225-.03.225-.18,0-.105-.15-.165-.24-.2l-1.71-.42a13.315,13.315,0,0,1-.84,1.62H128.16c.06-.09.285-.555.3-.57.045-.06.165-.105.42-.18.06-.03.165-.06.165-.18,0-.135-.195-.21-.27-.225l-1.665-.51a10.912,10.912,0,0,1-1.44,3.045v-.885h-1.5V-11.4c0-.075.045-.135.21-.24.075-.06.18-.135.18-.24s-.1-.165-.345-.18L122.49-12.2v2.19h-1.38v1.68h1.38V-6c-.66.195-.885.27-1.545.45l.165,1.785c0,.105.03.36.18.36.075,0,.12-.075.255-.255.06-.09.15-.135.945-.45v2.715c0,.315-.12.42-.465.42a8.647,8.647,0,0,1-.99-.09L121.98.8c1.875,0,2.19-.33,2.19-1.65V-4.83c.96-.435,1.14-.51,1.41-.645l-.045-1.485c-.285.1-.915.3-1.365.45V-8.325h.84a6.151,6.151,0,0,1-.585.525l1.455.735a6.07,6.07,0,0,0,.48-.57v2.88ZM129.45-7.41h-1.485v-.57h1.485Zm0-1.455h-1.485V-9.39h1.485Zm0,3h-1.485v-.66h1.485Zm4.47,2.925h-2.085l.315-.99-.39-.4h-6.39V-3H127.1c-.315,1.5-1.2,2.265-2.805,2.955l1.785.99A5.223,5.223,0,0,0,128.82-3h1.26l-.57,1.545,1.7.165.165-.375h.6c-.03.315-.075.9-1.305.9a4.866,4.866,0,0,1-1.32-.21l.96,1.71C132.615.69,133.74.57,133.92-2.94Zm13.815-2.9-.51-1.71c-.705.315-.9.4-2.655,1.23a2.01,2.01,0,0,0-2.04-1.515,2.9,2.9,0,0,0-1.29.315c.255-.39.375-.6.855-1.485a31.574,31.574,0,0,0,3.585-.57l.105-1.68a12.666,12.666,0,0,1-2.94.765c.075-.165.45-1.005.465-1.02s.315-.135.345-.15c.09-.03.15-.075.15-.165,0-.1-.255-.135-.3-.15l-1.875-.33a11.633,11.633,0,0,1-.75,2,21.1,21.1,0,0,1-2.865-.06l.18,1.56c.63,0,1.095-.015,1.95-.06A19.944,19.944,0,0,1,137.19-4.74l1.47.915c.825-1.35,1.725-2.715,3.195-2.715a1.039,1.039,0,0,1,1.14.99c-2.25,1.155-3.63,1.86-3.63,3.72a2.051,2.051,0,0,0,.57,1.47C140.88.645,142.62.645,143.46.645A24.825,24.825,0,0,0,147.03.42V-1.275a17.343,17.343,0,0,1-3.825.48c-1.1,0-2.25-.195-2.25-1.17,0-1.05,1.56-1.83,2.13-2.115-.015.66-.03,1.4-.075,2.25h1.74c0-.51-.03-2.37-.03-2.955C145.83-5.2,146.55-5.46,147.735-5.835ZM163.155-2.7V-8.61h-2.13l.21-.285c-.075-.045-.4-.225-.48-.255,1.185-1.08,1.815-1.725,2.16-2.085l-.465-.585h-6.9v1.44h1.53l-.435.78c.66.3,1.29.63,1.92.99H155.49v7h1.56v-2h1.485v1.845h1.545V-3.6H161.6v.525c0,.375-.1.375-1.035.36l.525,1.275h.795A1.231,1.231,0,0,0,163.155-2.7ZM161.6-6.585H160.08v-.78H161.6Zm0,1.86H160.08v-.81H161.6Zm-3.06-1.86H157.05v-.78h1.485Zm0,1.86H157.05v-.81h1.485Zm1.335-5.655a4.365,4.365,0,0,1-.465.54c-.18-.075-1.005-.465-1.2-.54Zm-5.325.255a9.7,9.7,0,0,0-2.115-1.785l-1,1.155a9.867,9.867,0,0,1,2.07,1.77ZM164.37-1.23c-2.25.21-4.515.315-6.78.315-1.2,0-3.345,0-3.345-1.5V-6.75H151.17v1.5h1.47v3.225a12.206,12.206,0,0,1-1.845.99L151.6.54c.045.075.09.18.18.18s.135-.2.225-.39a14.383,14.383,0,0,0,1.515-1.365c.48.6,1.215,1.47,3.555,1.47h6.69Zm13.605-8.715a9.487,9.487,0,0,0-1.4-1.29l-.63.7a9.986,9.986,0,0,1,1.38,1.29Zm-1.365,1.32a9.085,9.085,0,0,0-1.4-1.29l-.63.7a9.427,9.427,0,0,1,1.38,1.29Zm1.155,4.89L176.34-4.92c-1.215,2.565-3.03,3.45-4.23,3.45a1.486,1.486,0,0,1-1.215-.54c-.21-.255-.36-.66-.36-2.82a41.2,41.2,0,0,1,.36-5.88c.09-.09.345-.27.345-.4,0-.165-.42-.21-.465-.21l-1.92-.225c.015.93,0,5.085,0,5.94,0,3.645.315,4.59.945,5.175a3.273,3.273,0,0,0,2.205.765C174.885.33,176.67-2.115,177.765-3.735Zm15.09-6.09v-1.8a45.412,45.412,0,0,1-10.935,1.4l.3,1.77a57.356,57.356,0,0,1,5.715-.645c-.705.66-2.91,2.73-2.91,5.3,0,3.345,3.75,4.125,4.965,4.38l.525-1.89a4.452,4.452,0,0,1-2.61-.72,2.57,2.57,0,0,1-1.11-2.1c0-1.5,1.245-3.165,2.565-4.23A5.806,5.806,0,0,1,192.855-9.825Z" transform="translate(30 398.422)" fill="#222"/>
  </g>
</svg>
