<svg xmlns="http://www.w3.org/2000/svg" width="594.98" height="180.571" viewBox="0 0 594.98 180.571">
  <g id="teikei_lead" transform="translate(-418 -1297.429)">
    <rect id="長方形_30413" data-name="長方形 30413" width="355" height="27" rx="2" transform="translate(418 1451)" fill="#ffd800"/>
    <path id="パス_90269" data-name="パス 90269" d="M-136.42-11.3v-2.76h-6.432v-4.368c.384-.408.624-.528.624-.792,0-.192-.336-.288-.528-.288l-3.072-.12v5.568h-5.544c0-.456-.072-2.088-.072-3.12v-.6c0-.384,0-.48.288-.7.168-.144.288-.24.288-.384,0-.288-.36-.36-.864-.36l-2.784-.048a66.366,66.366,0,0,1,.36,7.224c0,6.648-.648,8.472-2.928,11.88l2.832,1.416A17.977,17.977,0,0,0-151.54-6.48h7.248V1.3h3.192V-9.192h-10.272V-11.3Zm24.312-.288v-2.664h-2.784v-4.128c0-.1.072-.192.264-.36.168-.144.24-.216.24-.312,0-.192-.216-.264-.6-.288l-2.856-.192v5.28h-8.232v2.664h8.232v9.1c0,1.008-.336,1.1-1.056,1.1-.24,0-1.3-.1-1.512-.12l1.008,2.9h1.968A2.267,2.267,0,0,0-114.892-1.2V-11.592Zm-7.464,6.408a25.882,25.882,0,0,0-2.9-5.04l-2.64,1.656a17.545,17.545,0,0,1,2.88,4.872Zm-5.712-13.032c0-.264-.408-.384-.6-.456l-2.688-.888a20.95,20.95,0,0,1-5.16,9.192l2.28,1.944a9.6,9.6,0,0,0,1.1-1.392V1.248h2.832V-13.44c0-.072.024-.1.264-.288.168-.1.24-.168.24-.288,0-.168-.168-.24-.552-.432a25.575,25.575,0,0,0,1.56-3.36c.048-.1.1-.12.384-.168C-125.38-18.024-125.284-18.072-125.284-18.216Zm36.1,5.64-.1-2.76a21.93,21.93,0,0,1-3.264,1.152c-.1-1.2-.216-2.616-.216-2.712-.024-.12-.072-.624-.072-.744s.048-.216.216-.432c.072-.1.216-.264.216-.36,0-.288-.408-.288-.624-.288l-2.808-.1a42.321,42.321,0,0,1,.7,5.184A30,30,0,0,1-99-13.368c-.432,0-.768,0-1.536-.048l.552,2.76a33.38,33.38,0,0,0,4.968-.36v1.272a11.962,11.962,0,0,1-.888,5.256A13.291,13.291,0,0,1-98.26-.48L-95.548.912A17.754,17.754,0,0,0-92.332-10.1c0-.408,0-.72-.024-1.44A27.444,27.444,0,0,0-89.188-12.576Zm-12.144,6.288-1.8-1.248c-.48,1.08-.624,1.416-.96,2.3a17.7,17.7,0,0,1-.48-4.536c0-3.288.648-7.32,1.152-7.728.312-.24.384-.288.384-.384,0-.24-.624-.408-.7-.432l-2.424-.7a43.513,43.513,0,0,0-.96,8.52c0,5.88,1.272,8.736,1.92,10.224l2.3-.36A22.143,22.143,0,0,1-101.332-6.288Zm36.84-4.536v-5.112h-4.7c.24-.264.48-.552.672-.792.432-.552.5-.624.576-.72.384-.048.744-.12.744-.408,0-.24-.168-.264-.432-.408l-2.088-1.1a13.476,13.476,0,0,1-2.136,2.544l1.488.888h-2.712v-2.352c0-.12.024-.216.216-.384.216-.168.24-.24.24-.408,0-.264-.12-.288-1.3-.336l-2.16-.1v3.576h-2.16l.984-.768a16.051,16.051,0,0,0-2.472-2.472L-81.8-17.664a7.115,7.115,0,0,1,1.584,1.728h-4.32v5.28h2.664v-2.952h14.712v2.784ZM-64.636,1.1V-1.248h-8.328v-1.7h6.576v-2.28h-6.576V-6.744h4.536V-12.7H-80.6v5.952h4.512v1.512h-6.5v2.28h6.5v1.7h-8.28V1.1ZM-71.188-9.024H-77.86V-10.44h6.672ZM-44.1-2.9a16.008,16.008,0,0,0-3.44-1.88,49.134,49.134,0,0,1-.28-5.36,18.685,18.685,0,0,0,2.5-.56v-2.16a8.732,8.732,0,0,1-2.48.82,23.072,23.072,0,0,1,.28-2.48c.2-.12.38-.22.38-.32,0-.12-.06-.22-.48-.28l-2.24-.36c-.04,1.98-.04,2.2-.08,3.7a15.832,15.832,0,0,1-1.86.12,10.411,10.411,0,0,1-1.8-.12l.02,2.06a22.232,22.232,0,0,0,3.62-.16c.04,1.36.1,2.2.26,4.58-.4-.04-.82-.08-1.22-.08-1.94,0-3.52.78-3.52,2.58C-54.44.08-51.08.08-50.5.08c2.72,0,3.12-1.04,3.16-2.58a10.7,10.7,0,0,1,2.1,1.58ZM-55.52-4.66l-1.26-.86-.82,1.2a19.7,19.7,0,0,1-.1-2.1,50.819,50.819,0,0,1,.74-6.2,5.717,5.717,0,0,1,.44-1.36,3.077,3.077,0,0,0,.38-.16.173.173,0,0,0,.08-.14c0-.2-.42-.38-.48-.4l-1.94-.76A37.915,37.915,0,0,0-59.7-6.08a21.515,21.515,0,0,0,.76,6.2l1.84-.3A17.566,17.566,0,0,1-55.52-4.66Zm5.94,1.26c.04,1.04.08,1.5-1.24,1.5-1.18,0-1.76-.42-1.76-.88s.64-.8,1.58-.8A6.879,6.879,0,0,1-49.58-3.4ZM-20.4-4.728V-6.912H-29.2V-7.944h6.264V-9.888H-29.2V-10.92h7.632v-2.064h-4.416c.312-.48.552-.864.864-1.44h4.7v-1.992h-3.5c.144-.192.816-1.2.864-1.248a2.116,2.116,0,0,1,.48-.216.294.294,0,0,0,.144-.216.233.233,0,0,0-.168-.192l-2.4-1.2a16.592,16.592,0,0,1-1.368,2.664l.792.408h-1.512v-1.992c0-.12.12-.216.192-.264.12-.072.192-.144.192-.24,0-.144-.144-.192-.264-.216l-2.592-.336v3.048h-1.68v-1.872a.515.515,0,0,1,.24-.384c.072-.072.192-.168.192-.312a.253.253,0,0,0-.216-.216l-2.664-.36v3.144h-1.9l1.008-.624a14.3,14.3,0,0,0-2.04-2.544l-1.992,1.248a15.132,15.132,0,0,1,1.56,1.92H-40.58v1.992h4.7c.24.336.312.456.912,1.44h-4.488v2.064H-31.8v1.032H-37.94v1.944H-31.8v1.032H-40.58v2.184h6.888A20.882,20.882,0,0,1-40.58-.648L-38.4,1.3a25.541,25.541,0,0,0,6.6-4.512V1.056H-29.2V-3.48A17.782,17.782,0,0,0-22.34,1.056l1.824-2.088a13.952,13.952,0,0,1-6.624-3.7Zm-7.584-9.7a11.5,11.5,0,0,1-.72,1.44h-3.576c-.408-.768-.432-.84-.744-1.44ZM4.9-10.32A10.615,10.615,0,0,1-.02-11.88a14.221,14.221,0,0,0,2.3-3.672h1.56v-2.232H-2.828a5.126,5.126,0,0,1,.312-.528,1.81,1.81,0,0,1,.408-.24.312.312,0,0,0,.12-.24c0-.12-.168-.168-.24-.192l-2.544-.6a11.284,11.284,0,0,1-3.792,5.16l1.992,1.272a15.7,15.7,0,0,0,1.32-1.416A10.491,10.491,0,0,0-3.524-11.64,7.144,7.144,0,0,1-7.316-10.1a9.9,9.9,0,0,0,.5-1.488L-7.964-12.84h-2.424l.552-1.056a3.328,3.328,0,0,0-.792-.48C-9.212-15.72-8.492-16.44-6.98-18.1l-.84-.816h-8.616v2.136H-11.2a7.821,7.821,0,0,1-1.344,1.416,24.366,24.366,0,0,0-2.28-.96l-1.032,1.8c1.248.576,2.232,1.08,3.264,1.68h-4.3v2.4h3.072A20.575,20.575,0,0,1-17.636-4.1l2.4,1.056a23.659,23.659,0,0,0,2.064-3.288v4.512c0,.624-.312.72-.792.72-.12,0-1.44-.048-1.656-.048l.936,2.472c3.456-.024,4.056-.336,4.056-2.952V-10.44h1.3a11.341,11.341,0,0,1-1.1,2.232L-8.66-7.3a14.5,14.5,0,0,0,1.248-2.64L-5.66-8.112a12.227,12.227,0,0,0,1.992-.912,10.26,10.26,0,0,1-.024,1.968H-7.316v2.328H-4.2A7.782,7.782,0,0,1-8.756-.336l2.088,1.68a10.025,10.025,0,0,0,3.192-2.52A11.282,11.282,0,0,0-1.46-4.728H.916A10.118,10.118,0,0,1,.484-1.656c-.144.336-.36.432-.864.432-.312,0-1.632-.024-1.92-.048l.984,2.328c2.16-.024,3.48-.24,4.008-1.368A24.2,24.2,0,0,0,3.58-7.056H-.98c0-.1.024-.672.024-.72.024-.144.12-.192.432-.456A.276.276,0,0,0-.38-8.448c0-.1-.12-.168-.24-.192l-2.928-.432a10.243,10.243,0,0,0,1.752-1.1A10.025,10.025,0,0,0,3.2-8.3ZM-.452-15.552a6.724,6.724,0,0,1-1.392,2.3,5.59,5.59,0,0,1-1.2-2.3ZM26.764-11.5v-7.848H15.844V-11.5ZM24.22-16.272H18.388V-17.3H24.22Zm0,2.76H18.388v-1.056H24.22ZM28.18-1.656a38.351,38.351,0,0,1-6,.288v-2.88h4.464V-6.672H22.18v-1.56h5.688v-2.352h-12.7v2.352h4.344v6.12a3.774,3.774,0,0,1-1.56-1.968c.048-.24.216-1.44.24-1.56.024-.1.072-.168.336-.384.192-.12.288-.216.288-.408,0-.144-.072-.312-.72-.36l-2.376-.216c-.048,3.6-1.128,5.232-3.1,6.912L14.86,1.512a10.394,10.394,0,0,0,2.4-3.456A5.529,5.529,0,0,0,18.676-.216a7.309,7.309,0,0,0,4.968,1.464H27.2ZM15-13.536v-2.52H12.652v-2.472c0-.12.072-.192.24-.336.12-.12.216-.216.216-.36s0-.288-.912-.312l-2.16-.072v3.552H7.18v2.52h2.856v3.672C8.284-9.288,7.588-9.12,7.108-9l.12,2.76c.024.552.024.744.36.744.192,0,.216,0,.48-.408.12-.192.216-.216.936-.48.168-.048.576-.216,1.032-.408v4.728c0,.456-.1.576-.288.624-.168.048-1.776,0-2.112,0L8.6,1.344C9.46,1.32,12.652,1.3,12.652-.432V-7.92c1.32-.552,1.68-.7,2.184-.912V-11.64c-.528.192-1.56.6-2.184.864v-2.76ZM51.748-7.608V-9.384H47.164V-10.44h3.168v-1.416H47.164v-.912H50.38v-1.416H47.164v-.84H51.6V-16.8H47.452c.312-.432.6-.888.792-1.176.072-.1.288-.12.408-.144.192,0,.36-.048.36-.288,0-.168-.24-.264-.384-.312l-2.736-.672A21.3,21.3,0,0,1,44.548-16.8H42.556c.1-.144.456-.888.48-.912.072-.1.264-.168.672-.288.1-.048.264-.1.264-.288,0-.216-.312-.336-.432-.36l-2.664-.816a17.458,17.458,0,0,1-2.3,4.872v-1.416h-2.4V-18.24c0-.12.072-.216.336-.384.12-.1.288-.216.288-.384s-.168-.264-.552-.288l-2.76-.216v3.5H31.276v2.688h2.208V-9.6c-1.056.312-1.416.432-2.472.72l.264,2.856c0,.168.048.576.288.576.12,0,.192-.12.408-.408.1-.144.24-.216,1.512-.72v4.344c0,.5-.192.672-.744.672A13.835,13.835,0,0,1,31.156-1.7l1.512,2.976c3,0,3.5-.528,3.5-2.64v-6.36c1.536-.7,1.824-.816,2.256-1.032l-.072-2.376c-.456.168-1.464.48-2.184.72v-2.9h1.344a9.841,9.841,0,0,1-.936.84L38.908-11.3a9.711,9.711,0,0,0,.768-.912v4.608ZM44.62-11.856H42.244v-.912H44.62Zm0-2.328H42.244v-.84H44.62Zm0,4.8H42.244V-10.44H44.62ZM51.772-4.7H48.436l.5-1.584-.624-.648H38.092V-4.8h2.76c-.5,2.4-1.92,3.624-4.488,4.728L39.22,1.512A8.356,8.356,0,0,0,43.612-4.8h2.016l-.912,2.472,2.712.264.264-.6h.96c-.048.5-.12,1.44-2.088,1.44a7.786,7.786,0,0,1-2.112-.336l1.536,2.736C49.684,1.1,51.484.912,51.772-4.7ZM71.329-8.169l-.714-2.394c-.987.441-1.26.567-3.717,1.722a2.815,2.815,0,0,0-2.856-2.121,4.061,4.061,0,0,0-1.806.441c.357-.546.525-.84,1.2-2.079a44.2,44.2,0,0,0,5.019-.8L68.6-15.75a17.732,17.732,0,0,1-4.116,1.071c.1-.231.63-1.407.651-1.428.021,0,.441-.189.483-.21.126-.042.21-.105.21-.231,0-.147-.357-.189-.42-.21l-2.625-.462a16.285,16.285,0,0,1-1.05,2.793,29.537,29.537,0,0,1-4.011-.084l.252,2.184c.882,0,1.533-.021,2.73-.084a27.922,27.922,0,0,1-4.137,5.775l2.058,1.281c1.155-1.89,2.415-3.8,4.473-3.8a1.455,1.455,0,0,1,1.6,1.386c-3.15,1.617-5.082,2.6-5.082,5.208a2.871,2.871,0,0,0,.8,2.058C61.732.9,64.168.9,65.344.9a34.755,34.755,0,0,0,5-.315V-1.785a24.28,24.28,0,0,1-5.355.672c-1.533,0-3.15-.273-3.15-1.638,0-1.47,2.184-2.562,2.982-2.961-.021.924-.042,1.953-.1,3.15H67.15c0-.714-.042-3.318-.042-4.137C68.662-7.287,69.67-7.644,71.329-8.169ZM92.917-3.78v-8.274H89.935l.294-.4c-.105-.063-.567-.315-.672-.357,1.659-1.512,2.541-2.415,3.024-2.919l-.651-.819H82.27v2.016h2.142L83.8-13.44c.924.42,1.806.882,2.688,1.386H82.186v9.807H84.37V-5.04h2.079v2.583h2.163V-5.04h2.121v.735c0,.525-.147.525-1.449.5l.735,1.785h1.113A1.724,1.724,0,0,0,92.917-3.78ZM90.733-9.219H88.612v-1.092h2.121Zm0,2.6H88.612V-7.749h2.121Zm-4.284-2.6H84.37v-1.092h2.079Zm0,2.6H84.37V-7.749h2.079Zm1.869-7.917a6.113,6.113,0,0,1-.651.756c-.252-.105-1.407-.651-1.68-.756Zm-7.455.357a13.578,13.578,0,0,0-2.961-2.5L76.5-15.057a13.813,13.813,0,0,1,2.9,2.478ZM94.618-1.722c-3.15.294-6.321.441-9.492.441-1.68,0-4.683,0-4.683-2.1V-9.45H76.138v2.1H78.2v4.515a17.089,17.089,0,0,1-2.583,1.386L76.747.756c.063.1.126.252.252.252.105,0,.189-.273.315-.546a20.137,20.137,0,0,0,2.121-1.911c.672.84,1.7,2.058,4.977,2.058h9.366Zm19.047-12.2a13.28,13.28,0,0,0-1.953-1.806l-.882.987a13.98,13.98,0,0,1,1.932,1.806Zm-1.911,1.848a12.719,12.719,0,0,0-1.953-1.806l-.882.987a13.2,13.2,0,0,1,1.932,1.806Zm1.617,6.846-2-1.659c-1.7,3.591-4.242,4.83-5.922,4.83a2.081,2.081,0,0,1-1.7-.756c-.294-.357-.5-.924-.5-3.948,0-2.625.273-7.98.5-8.232.126-.126.483-.378.483-.567,0-.231-.588-.294-.651-.294L100.9-16.17c.021,1.3,0,7.119,0,8.316,0,5.1.441,6.426,1.323,7.245A4.583,4.583,0,0,0,105.307.462C109.339.462,111.838-2.961,113.371-5.229ZM134.5-13.755v-2.52a63.577,63.577,0,0,1-15.309,1.953l.42,2.478a80.3,80.3,0,0,1,8-.9c-.987.924-4.074,3.822-4.074,7.413,0,4.683,5.25,5.775,6.951,6.132l.735-2.646a6.233,6.233,0,0,1-3.654-1.008,3.6,3.6,0,0,1-1.554-2.94c0-2.1,1.743-4.431,3.591-5.922A8.128,8.128,0,0,1,134.5-13.755Zm4.3,10.311a17.266,17.266,0,0,1,4.053,4.662l2.184-1.743a12.352,12.352,0,0,0-4.662-4.557Z" transform="translate(696 1354)" fill="#222"/>
    <path id="パス_90268" data-name="パス 90268" d="M-205.9-11.026a61.7,61.7,0,0,0-10.434-9.435l-2.59,2.96a57.429,57.429,0,0,1,9.768,9.62Zm-.333-14.06v-3.922h-31.413v3.922h15.244a27.5,27.5,0,0,1-4.995,6.512,34.637,34.637,0,0,1-11.063,7.141l2.849,3.7a45.078,45.078,0,0,0,11.4-7.807V1.85h4.44V-19.055c0-.222.074-.3.629-.777a.585.585,0,0,0,.222-.407c0-.333-.333-.444-.518-.481a30.778,30.778,0,0,0,2.886-4.366ZM-171.68-1.739V-29.267h-26.307c.333,3.885.481,7.77.481,11.655,0,9.25-.518,13.5-2.96,17.686l3.848,1.369c2-4.144,2.664-6.771,3.034-12.247h6.845V-.259h4.181V-10.8h6.66v7.326c0,1.036-.481,1.332-2,1.332a9.077,9.077,0,0,1-1.7-.148l2.035,4.033C-171.717,1.332-171.68.222-171.68-1.739Zm-4.218-20.35h-6.66v-3.589h6.66Zm0,7.807h-6.66v-4.329h6.66Zm-10.841-7.807h-6.66c0-1.369,0-2.257-.037-3.589h6.7Zm0,7.807h-6.7c0-.74.037-1.11.074-4.329h6.623Zm47.508-2V-29.156h-17.8V-16.28Zm-4.292-3.774h-9.361v-5.328h9.361ZM-133.052.962V-14.023h-14.319V.962h4V-.111h6.253V.962Zm-4.07-4.81h-6.253v-6.364h6.253ZM-149.628.962V-14.023H-163.17V.962h3.922V0h5.7V.962Zm-3.922-4.81h-5.7v-6.364h5.7Zm57.942,5.254V-29.156H-126.54V1.406h4.477V.444h22.126v.962ZM-99.937-3.4h-22.126v-21.9h22.126Zm-3.145-2.96V-21.793h-16.169V-6.364h4.218V-7.511h7.77v1.147Zm-4.181-4.884h-7.77v-6.808h7.77Zm49.987,9.4a21.76,21.76,0,0,1-7.289-5.587c3.515-5.883,5-11.137,6.4-19.24l-.962-1.036H-75.591v3.885h12.4a35.665,35.665,0,0,1-3.959,12.58,34.223,34.223,0,0,1-4.07-12.062L-75-22.126c1.073,5.624,2.183,9.62,5.18,14.541a27.621,27.621,0,0,1-7.7,5.883V-28.083c0-.148.037-.3.407-.629.333-.259.407-.444.407-.592,0-.3-.185-.333-1.739-.407L-81.7-29.9v19.61c-1.7.444-1.924.481-2.886.74V-24.79c0-.148.185-.333.3-.444a.9.9,0,0,0,.407-.629c0-.37-1.11-.481-1.591-.518l-3.293-.259V-8.51c-.666.185-.814.222-2.109.518l.925,4.181c.037.185.037.74.481.74.333,0,.481-.407.74-.925,1.628-.555,4.7-1.591,7.03-2.479v8.1h4.181V-1.517l3.071,3.071A30.177,30.177,0,0,0-67.229-4.07a32.761,32.761,0,0,0,6.771,5.661Zm32.412-20.276v-4.292A25.847,25.847,0,0,1-33.633-24.9a32.591,32.591,0,0,1-4.736-.407v4.07c1.961.185,3.663.185,3.959.185A49.692,49.692,0,0,0-24.864-22.126ZM-23.088-2.7V-7.289a30.182,30.182,0,0,1-8.436,1.147c-3.737,0-4.107-1-4.144-4.514L-39.7-10.1c.111,6.253,1.517,8.066,8.251,8.066A50.574,50.574,0,0,0-23.088-2.7ZM-42.439-9.287l-2.183-1.184c-.814,1.443-1.036,1.813-1.48,2.59a20.352,20.352,0,0,1-.518-5.069c0-5.587,1.591-12.284,2.146-12.617.074-.037.555-.222.629-.259a.439.439,0,0,0,.185-.333c0-.3-.7-.555-.962-.666L-48.4-28.194a72.925,72.925,0,0,0-1.554,8.436,65.448,65.448,0,0,0-.555,7.289,32.236,32.236,0,0,0,1.517,9.731A11.325,11.325,0,0,0-47.619.185L-44.7-.962A32.826,32.826,0,0,1-42.439-9.287ZM15.1-2.22V-29.378H1.332v11.1h9.842V-3.219c0,.925-.333,1.3-1.258,1.3a11.767,11.767,0,0,1-2.109-.185L9.4,2h2.109C14.615,2,15.1-.148,15.1-2.22ZM11.174-25.012H5.328v-1.443h5.846Zm0,3.811H5.328v-1.443h5.846ZM-1.332-18.278v-11.1H-15.207V2H-11.1V-18.278Zm-3.922-6.734H-11.1v-1.443h5.846Zm0,3.811H-11.1v-1.443h5.846ZM9.62-6.7v-3H1.369c.037-.481.074-.962.111-1.887h6.7v-3H5.439c.111-.185.74-1.147.777-1.184.074-.074.555-.222.629-.3a.4.4,0,0,0,.222-.333c0-.185-.185-.3-.333-.333L3.219-17.908a19.94,19.94,0,0,1-1.628,3.33H-2.59l1.221-.481a24.689,24.689,0,0,0-1.813-2.923l-3.256,1.443a7.91,7.91,0,0,1,1.406,1.961H-7.955v3h5.7a17.658,17.658,0,0,1-.111,1.887H-9.435v3h6.253C-4.44-4.255-5.883-2.96-9.694-1.739L-7.03,1A12.094,12.094,0,0,0-.3-4.514,13.55,13.55,0,0,0,5.587.629L7.955-2.294A11.1,11.1,0,0,1,2.368-6.7ZM50.912-21.423v-4c-3.774.3-4.921.407-10.064.7v-3.811c0-.148.037-.222.3-.444s.333-.333.333-.555c0-.37-.222-.481-1.073-.518L36.3-30.3c.222,2.7.222,4.662.259,5.809-7.77.37-10.952.37-13.468.37v4.292c4.7-.592,10.286-.925,13.579-1.11l.074,2.775a4.88,4.88,0,0,0-1.739-.3c-3.774,0-5.809,2.812-5.809,6.882a6.621,6.621,0,0,0,1.924,5.143,4.659,4.659,0,0,0,3.034,1.147,7.44,7.44,0,0,0,2-.37c-.814,2.7-3.071,4.625-5.291,6.068L35,2.553a25.67,25.67,0,0,0,5.032-6.882,16.59,16.59,0,0,0,1.887-7.141,9.543,9.543,0,0,0-1.073-4.514v-5.18C45.658-21.349,48.1-21.423,50.912-21.423ZM37.444-12.062c0,2.627-1.776,3.441-2.553,3.441-.851,0-2.035-.851-2.035-3.071,0-1.961,1.036-3.256,2.516-3.256a1.925,1.925,0,0,1,1.369.518A3.45,3.45,0,0,1,37.444-12.062ZM85.988-9.768a8.156,8.156,0,0,0-8.214-8.177,29.46,29.46,0,0,0-3.589.222c5.365-5.476,5.994-6.068,8.214-7.918l-1.924-3c-3.515,1.369-9.805,1.85-11.211,1.85-1.147,0-3.256-.148-4.144-.222l.851,4.144a34.542,34.542,0,0,0,8.658-.925,73.046,73.046,0,0,1-13.69,13.357l3.108,3.256c2.072-2.109,5.328-5.4,7.622-6.623a10.034,10.034,0,0,1,4.218-.925c2.4,0,5.994,1.184,5.994,4.847a6.518,6.518,0,0,1-2.442,4.921C78.4-6.253,76-9.287,72.15-9.287a5.182,5.182,0,0,0-5.439,4.921C66.711-1.628,69.079.7,73.7.7,80.216.7,85.988-3.626,85.988-9.768ZM76-3.145a10.519,10.519,0,0,1-2.516.333c-1.332,0-3.034-.37-3.034-1.665A1.63,1.63,0,0,1,72.3-6.031C74.407-6.031,75.517-4,76-3.145Zm48.914-18.278v-4c-3.774.3-4.921.407-10.064.7v-3.811c0-.148.037-.222.3-.444s.333-.333.333-.555c0-.37-.222-.481-1.073-.518L110.3-30.3c.222,2.7.222,4.662.259,5.809-7.77.37-10.952.37-13.468.37v4.292c4.7-.592,10.286-.925,13.579-1.11l.074,2.775a4.88,4.88,0,0,0-1.739-.3c-3.774,0-5.809,2.812-5.809,6.882a6.621,6.621,0,0,0,1.924,5.143,4.659,4.659,0,0,0,3.034,1.147,7.44,7.44,0,0,0,2-.37c-.814,2.7-3.071,4.625-5.291,6.068L109,2.553a25.67,25.67,0,0,0,5.032-6.882,16.59,16.59,0,0,0,1.887-7.141,9.543,9.543,0,0,0-1.073-4.514v-5.18C119.658-21.349,122.1-21.423,124.912-21.423Zm-13.468,9.361c0,2.627-1.776,3.441-2.553,3.441-.851,0-2.035-.851-2.035-3.071,0-1.961,1.036-3.256,2.516-3.256a1.925,1.925,0,0,1,1.369.518A3.45,3.45,0,0,1,111.444-12.062Zm51.763-13.579a12.541,12.541,0,0,0-3.219-2.886l-1.813,1.739a12.864,12.864,0,0,1,3.219,2.886Zm-3.663,3.256a11.89,11.89,0,0,0-3.145-2.849L154.586-23.5a11.351,11.351,0,0,1,3.145,2.849ZM163.725-7.7a34.264,34.264,0,0,1-5.476-4.44c-2.109-2.035-6.179-6.179-8.658-8.991-2.442-2.775-3.219-3.626-4.921-3.626-1.961,0-3.108,1.554-4.625,3.7-4.366,6.068-4.995,6.956-8.029,9.879l4.033,2.331a93.659,93.659,0,0,0,6.956-9.139c1.036-1.48,1.961-1.48,2.146-1.48a2.628,2.628,0,0,1,1.739,1.036c4.514,5.661,7.733,9.62,13.69,14.5Zm34.484-16.539v-4.44c-7.215,2.109-18.278,3.367-26.973,3.441l.74,4.366a141.478,141.478,0,0,1,14.1-1.591C184.334-20.831,178.9-15.725,178.9-9.4c0,8.251,9.25,10.175,12.247,10.8l1.295-4.662A10.982,10.982,0,0,1,186-5.032a6.34,6.34,0,0,1-2.738-5.18c0-3.7,3.071-7.807,6.327-10.434A14.32,14.32,0,0,1,198.209-24.235Zm38.85,10.1c0-8.251-6.068-13.468-13.764-13.468a15.958,15.958,0,0,0-16.317,15.688c0,6.623,6.068,9.953,7.4,9.953,1.924,0,3.626-3.108,4.736-5.4,1.221-2.479,3.4-7.659,4.588-16.465a9.466,9.466,0,0,1,6.29,2.479,8.723,8.723,0,0,1,2.664,6.475,11.576,11.576,0,0,1-2.664,7.363,12.462,12.462,0,0,1-6.66,3.959L226.07.259a17.862,17.862,0,0,0,8.621-6.512A13.825,13.825,0,0,0,237.059-14.134ZM219.3-23.162c-.74,5.772-3.922,15.429-5.846,15.429-.666,0-2.368-1.554-2.368-4.551a12.117,12.117,0,0,1,3.7-8.214A10.924,10.924,0,0,1,219.3-23.162Zm-455.69,47.314V19.1h-17.346V65.41h5V24.152Zm46.844,39V22.682h-40.768V63.45h5.537V61.98h29.792v1.176Zm-5.439-5.978h-29.792V27.484h29.792Zm-.392-7.35c-1.813-1.127-8.33-5.194-10.535-11.27h9.506V34h-10.731V30.816c0-.147.049-.2.588-.539.441-.343.539-.539.539-.735,0-.686-1.176-.784-1.666-.833l-4.753-.245V34h-10.633v4.557h9.457a28.2,28.2,0,0,1-10.437,11.956l3.871,3.822a38.207,38.207,0,0,0,7.742-9.065V55.659h5.292V44.781a33.05,33.05,0,0,0,8.624,9.212Zm50.617-3.675c0-7.791-5.488-11.074-11.564-11.074a30.257,30.257,0,0,0-7.889,1.323,84.161,84.161,0,0,1-13.132,3.087l2.4,5.145c4.655-1.666,7.84-2.695,8.82-2.989,2.5-.784,7.35-2.254,9.555-2.254,2.548,0,7.056,1.225,7.056,6.468,0,7.4-10.094,9.212-14.161,9.212-.784,0-1.764-.049-3.577-.2l2.548,5.145C-156.374,59.089-144.761,57.178-144.761,46.153Zm50.568-2.989V37.97a56.27,56.27,0,0,0-6.468-.294c-2.6,0-5.047.147-7.595.343v5.145a60.053,60.053,0,0,1,7.35-.539A53.252,53.252,0,0,1-94.193,43.164Zm-11.074-9.849V27.876a38.324,38.324,0,0,1-7.791,2.891c.343-1.372.735-3.136,1.176-5.341.1-.49.2-.539.833-.833.441-.2.588-.343.588-.686,0-.539-1.127-.784-1.225-.784l-6.027-1.421a59.5,59.5,0,0,1-1.666,10.388,35.551,35.551,0,0,1-4.851.294,19.77,19.77,0,0,1-3.969-.294l.392,5.1a64.6,64.6,0,0,0,7.3-.588c-3.871,13.279-7.007,18.571-9.947,23.324l5.978,1.813a138.964,138.964,0,0,0,10.094-26.068A59.139,59.139,0,0,0-105.267,33.315Zm11.858,28.028-.49-5.684a32.259,32.259,0,0,1-8.624,1.078c-1.127,0-4.851-.049-6.223-1.323a1.682,1.682,0,0,1-.588-1.47,9.265,9.265,0,0,1,.2-1.813l-4.851-1.029a11.356,11.356,0,0,0-.588,3.528c0,5,3.773,7.448,12.593,7.448A47.394,47.394,0,0,0-93.409,61.343Zm25.48,4.312V19.35h-5V60.608H-85.275v5.047Zm46.358-19.048-1.258-4.218c-1.739.777-2.22,1-6.549,3.034a4.959,4.959,0,0,0-5.032-3.737,7.155,7.155,0,0,0-3.182.777c.629-.962.925-1.48,2.109-3.663a77.884,77.884,0,0,0,8.843-1.406l.259-4.144a31.242,31.242,0,0,1-7.252,1.887c.185-.407,1.11-2.479,1.147-2.516.037,0,.777-.333.851-.37.222-.074.37-.185.37-.407,0-.259-.629-.333-.74-.37l-4.625-.814a28.693,28.693,0,0,1-1.85,4.921,52.041,52.041,0,0,1-7.067-.148l.444,3.848c1.554,0,2.7-.037,4.81-.148a49.2,49.2,0,0,1-7.289,10.175l3.626,2.257c2.035-3.33,4.255-6.7,7.881-6.7a2.563,2.563,0,0,1,2.812,2.442c-5.55,2.849-8.954,4.588-8.954,9.176a5.058,5.058,0,0,0,1.406,3.626c2.331,2.479,6.623,2.479,8.695,2.479a61.234,61.234,0,0,0,8.806-.555V57.855a42.779,42.779,0,0,1-9.435,1.184c-2.7,0-5.55-.481-5.55-2.886,0-2.59,3.848-4.514,5.254-5.217-.037,1.628-.074,3.441-.185,5.55h4.292c0-1.258-.074-5.846-.074-7.289C-26.27,48.161-24.494,47.532-21.571,46.607Zm29.2,12.825V32.384h-5l3.626-5.929L5.037,24.74H-2.8c.343-.833.392-.931.833-1.029.294-.1.637-.2.637-.588s-.392-.539-1.274-.686L-6.87,21.7a46.288,46.288,0,0,1-7.105,12.005l4.263,1.862a68.308,68.308,0,0,1,.343,7.105c0,10.731-2.107,14.8-4.018,18.62l4.508,1.666A36.181,36.181,0,0,0-5.6,52.033H3.616v5.341c0,1.47-1.372,1.764-2.548,1.764-.294,0-.833-.049-1.47-.1L.97,63.205C3.126,63.156,7.634,63.058,7.634,59.432ZM-2.705,40.273H-5.3V36.647h2.6Zm6.321,0H.921V36.647H3.616Zm0,7.546H.921V44.144H3.616Zm-6.321,0H-5.2V44.144h2.5ZM-.843,28.758-3.1,32.384H-7.066a31.336,31.336,0,0,0,2.205-3.626Zm30.674-5.831H9.692V26.7h4.214c-1.029,5.292-3.577,7.007-6.174,8.526l3.822,3.038a19.545,19.545,0,0,1-3.822,7.791L11.456,48.7a30.429,30.429,0,0,0,1.911-3.185h4.9v4.263H9.937v4.263h8.33V62.96h4.851V54.042h6.223V49.779H23.118V45.516H28.8V41.2H23.118v-.882a1.358,1.358,0,0,1,.49-.833A1.542,1.542,0,0,0,24,38.754c0-.343-1.176-.539-1.862-.686,4.508-.294,7.546-1.47,7.644-10.192ZM24.588,26.7c-.049,3.234-.1,6.566-3.43,6.566a10.407,10.407,0,0,1-1.47-.1L21.7,38.019l-3.43-.392V41.2H15.229l.1-.441c.588-.294.735-.343.735-.686s-1.176-.735-1.764-.98l-1.911-.735A19.259,19.259,0,0,0,19.345,26.7ZM79.615,58.893c-5.978-2.646-11.172-6.958-13.769-12.887H79.419V41.057H75.94l.637-12H64.817c0-.882-.049-4.7-.049-5.439,0-.441.1-.49.735-.98.147-.1.343-.245.343-.441,0-.588-.882-.686-1.421-.686l-5.684-.2c.245,2.989.294,4.9.343,7.742H50.558v4.9h8.575c0,4.508,0,5.047-.1,7.105H48.549v4.949h9.9c-1.862,6.958-7.252,11.221-13.524,13.23L48.7,63.842c9.163-3.92,12.348-10.241,13.671-13.426A30.076,30.076,0,0,0,68.1,58.06a30.936,30.936,0,0,0,7.987,5.635ZM70.746,33.952l-.294,7.105h-5.88c.147-4.606.147-5.1.147-7.105ZM47.422,25.671a32.844,32.844,0,0,0-6.468-4.557l-2.891,3.871a28.5,28.5,0,0,1,6.468,4.606Zm-3.871,12.5A36.754,36.754,0,0,0,37.083,34l-2.989,4.165a39.259,39.259,0,0,1,6.517,4.165Zm2.842,11.319L41.934,46.5a55.075,55.075,0,0,1-6.027,14.553l4.165,2.5a4.217,4.217,0,0,0,1.225.49c.147,0,.245-.049.245-.392a10.218,10.218,0,0,1,0-1.225c.049-.147,1.911-4.459,2.254-5.341C44.874,54.14,45.609,51.984,46.393,49.485Zm85.906,2.08a31.455,31.455,0,0,0-6.068-15.725l-3.811,1.85a34.407,34.407,0,0,1,5.439,15.022Zm-16.317-.555-3.071-2.738c-.7,1.776-2.22,5.7-3.552,5.7-.74,0-2.516-1.332-2.516-8.547a38.354,38.354,0,0,1,.7-8.251c.629-.222,1.073-.37,1.073-.777,0-.444-.592-.629-.851-.7l-4.07-1.11a36.035,36.035,0,0,0-1.11,9.62c0,7.03,1.184,11.359,3.774,13.875A4.035,4.035,0,0,0,109.1,59.3C112.1,59.3,113.947,55.376,115.982,51.01Zm51.171-3.478V43.61a42.491,42.491,0,0,0-4.884-.222c-1.961,0-3.811.111-5.735.259v3.885a45.347,45.347,0,0,1,5.55-.407A40.211,40.211,0,0,1,167.153,47.532ZM158.791,40.1V35.988a28.938,28.938,0,0,1-5.883,2.183c.259-1.036.555-2.368.888-4.033.074-.37.148-.407.629-.629.333-.148.444-.259.444-.518,0-.407-.851-.592-.925-.592l-4.551-1.073a44.931,44.931,0,0,1-1.258,7.844,26.845,26.845,0,0,1-3.663.222,14.928,14.928,0,0,1-3-.222l.3,3.848a48.781,48.781,0,0,0,5.513-.444c-2.923,10.027-5.291,14.023-7.511,17.612l4.514,1.369a104.931,104.931,0,0,0,7.622-19.684A44.657,44.657,0,0,0,158.791,40.1Zm8.954,21.164-.37-4.292a24.359,24.359,0,0,1-6.512.814c-.851,0-3.663-.037-4.7-1a1.27,1.27,0,0,1-.444-1.11,7,7,0,0,1,.148-1.369l-3.663-.777a8.575,8.575,0,0,0-.444,2.664c0,3.774,2.849,5.624,9.509,5.624A35.788,35.788,0,0,0,167.745,61.259Zm36.408-9.287-3.626-3c-3.626,7.1-8.584,8.4-10.656,8.4a3.568,3.568,0,0,1-3.256-1.554c-.7-1.258-.7-4.847-.7-6.549a139.845,139.845,0,0,1,1.036-14.8c.592-.481,1.036-.777,1.036-1.073,0-.222-.333-.481-1.221-.592l-4.921-.7c.111,2.479-.185,13.468-.185,15.725,0,8.88.592,10.767,2.331,12.284A8.23,8.23,0,0,0,189.39,62a13.374,13.374,0,0,0,7.363-2.368A27.606,27.606,0,0,0,204.153,51.972Zm35.372,4.7a30.759,30.759,0,0,0-9.361-4.181c-.111-2.183-.111-2.553-.185-4.4a79.533,79.533,0,0,0,7.918-.925V43.129c-3.4.629-4.773.851-7.992,1.258V40.021c1.85-.037,5.291-.111,9.4-.111l.148-3.922c-3.478.259-4.736.333-9.472.555.037-1.924.074-2.627.074-2.664a1.2,1.2,0,0,1,.481-.666c.407-.333.481-.37.481-.518,0-.259-.222-.37-.925-.444l-4.514-.444.111,4.921c-3.293.074-5.291.148-9.509.148l.074,4c3.182-.37,5.291-.518,9.546-.7l.074,4.625a25.392,25.392,0,0,1-2.553.074c-.629,0-1.406,0-1.406-.518,0-.481.555-.888,1.221-1.369l-2.109-1.813c-1.443,1.036-3.959,2.775-3.959,4.588,0,1.443,1.7,2.664,5.106,2.664,1.073,0,3.108-.074,3.774-.111l.074,3.552-1.036-.037c-8.325-.3-8.7,4-8.7,5.069,0,3,3.182,4.81,8.288,4.81,4.736,0,5.624-1.48,5.772-5.254a27.891,27.891,0,0,1,6.771,3.663Zm-13.468-1.3c.037,2.072-.111,2.738-2.516,2.738-.444,0-2.812,0-2.812-1.258,0-.962,1.184-1.591,3.589-1.591A9.578,9.578,0,0,1,226.057,55.376Zm52.688-15.8v-4c-3.774.3-4.921.407-10.064.7V32.473c0-.148.037-.222.3-.444s.333-.333.333-.555c0-.37-.222-.481-1.073-.518L264.13,30.7c.222,2.7.222,4.662.259,5.809-7.77.37-10.952.37-13.468.37v4.292c4.7-.592,10.286-.925,13.579-1.11l.074,2.775a4.88,4.88,0,0,0-1.739-.3c-3.774,0-5.809,2.812-5.809,6.882a6.621,6.621,0,0,0,1.924,5.143,4.659,4.659,0,0,0,3.034,1.147,7.44,7.44,0,0,0,2-.37c-.814,2.7-3.071,4.625-5.291,6.068l4.144,2.146a25.67,25.67,0,0,0,5.032-6.882,16.59,16.59,0,0,0,1.887-7.141,9.543,9.543,0,0,0-1.073-4.514v-5.18C273.491,39.651,275.933,39.577,278.745,39.577Zm-13.468,9.361c0,2.627-1.776,3.441-2.553,3.441-.851,0-2.035-.851-2.035-3.071,0-1.961,1.036-3.256,2.516-3.256a1.925,1.925,0,0,1,1.369.518A3.45,3.45,0,0,1,265.277,48.938Z" transform="translate(681 1405)" fill="#222"/>
    <g id="shine" transform="matrix(0.996, 0.087, -0.087, 0.996, 902.474, 1295.254)">
      <path id="パス_61348" data-name="パス 61348" d="M16.853,1.052l-.359,1.1-.277,1.094-.473,1.022-.338,1.071-.263,1.107-.547.989-.228,1.109-.528,1-.508,1L13.1,11.654l-.444,1.03-.228,1.108-.554.989-.245,1.11-.46,1.029-.414,1.042-.258,1.1-.511,1.011L9.7,21.163,9.23,22.184,8.779,23.22l-.265,1.1-.379,1.053L7.67,26.406l-.191,1.123-.471,1.037-.548.993L6.318,30.7l-.465,1.03-.359,1.065L5.1,33.849,4.687,34.89l-.444,1.042L3.8,36.973l-.245,1.1-.38,1.061-.306,1.084L2.513,41.29l-.532,1-.274,1.1L1.231,44.42.808,45.469.543,46.578,0,47.678l1.213.138,1.13.083,1.12.186,1.1.221,1.1.233,1.14.052,1.053.488,1.118.166,1.113.184,1.133.063,1.077.359,1.145.011,1.111.216,1.121.133,1.111.233,1.1.252,1.189.227.206-1.2-.236-1.146.311-1.111-.12-1.145.317-1.109.083-1.135-.075-1.143.342-1.1-.09-1.139.314-1.1.016-1.135.108-1.124L20.19,36.2l.215-1.121.224-1.116-.078-1.138-.012-1.143.183-1.123-.017-1.129.157-1.125.217-1.114.061-1.137.088-1.125.095-1.135.142-1.123-.009-1.133.111-1.135.107-1.125.233-1.116.028-1.14.125-1.123.168-1.127-.122-1.137.132-1.138.093-1.131.253-1.115-.007-1.136.089-1.136.162-1.121-.152-1.149.149-1.139.148-1.122.1-1.135.344-1.11L23.426,0,22.292.2,21.212.354,20.171.768,19.047.677,17.972.911Z" transform="matrix(-0.875, -0.485, 0.485, -0.875, 65.276, 72.699)" fill="#ffdd7f"/>
      <path id="パス_61349" data-name="パス 61349" d="M36.082,0l-.89.677L34.5,1.57l-.976.59-.73.868-.78.807-.745.852-.958.619-.725.867-.825.75-.827.755-.852.729-.825.758-.772.82-.744.852-.946.632-.833.754-.785.8-.787.8-.854.73-.765.825-.943.632-.769.832-.8.789-.707.886-.824.772-.906.68-.772.822-.829.763-.859.72-.76.84-.809.777-.759.827-.9.675-.814.782-.868.725-.7.888-.847.749-.9.689-.835.763-.8.786-.8.8-.815.793-.9.7L0,33.917l.973.686.949.616.875.708.935.635.834.759,1.053.462.78.835.84.766.939.632.962.595.8.811.9.707,1.1.393.787.828.867.739,1,.552.906.674.667-.91.476-1.03.662-.931.5-1.012.685-.912.539-1,.686-.9.595-.963.509-1.011.564-.979.619-.944.669-.91.468-1.039.71-.885.655-.93.522-1.013.423-1.07.753-.864.621-.942.543-.99.6-.962.642-.933.649-.931.611-.957.465-1.039.625-.949.645-.933.672-.92.443-1.057.619-.949.69-.9.7-.914.3-1.14.754-.867.493-1.025.787-.843.529-1.011.552-.995.577-.974.512-1.03.732-.873.457-1.054.736-.881L41.813,3l.54-1.034-1.1-.21-.959-.588L39.16,1.141,38.147.7,37.1.37Z" transform="matrix(-0.875, -0.485, 0.485, -0.875, 94.219, 99.745)" fill="#ffdd7f"/>
      <path id="パス_61350" data-name="パス 61350" d="M0,4.9.4,5.977.755,7.034l.31,1.084.358,1.066.434,1.034.43,1.038.334,1.071L3,13.387l.288,1.081.587.98.1,1.15.456,1.035L4.9,18.653l.514,1.009.237,1.11.426,1.043.157,1.13.491,1.018L7,25.051,7.4,26.1l.316,1.091.576.98.26,1.091.4,1.057.455,1.032.242,1.107L10.1,33.5l.305,1.088.439,1.033.41,1.054.314,1.086.34,1.064.444,1.028.5,1.023L13.05,42l.467,1.025.459,1.037.258,1.107.373,1.065.323,1.085.31,1.084.456,1.036.132,1.154.592.9.959-.408.941-.629,1.01-.5.958-.582.907-.687,1.09-.362,1.011-.5.952-.612.887-.716,1.068-.407,1.03-.476.916-.674.958-.6,1.075-.384.967-.591,1-.536.983-.652-.621-1-.693-.886-.767-.837-.675-.915-.439-1.062-.7-.9-.52-1.011-.609-.961-.826-.8-.548-1-.54-.992-.671-.911-.831-.8-.433-1.066-.707-.893-.625-.946-.7-.9-.547-1-.671-.905-.613-.956-.795-.822L19,21.664l-.577-.978-.5-1.02-.64-.945-.775-.837-.5-1.03-.718-.884-.6-.966-.691-.894-.611-.962-.616-.949-.752-.861L11.53,10.3l-.761-.857-.588-.973L9.655,7.457l-.844-.793-.69-.913L7.608,4.729l-.586-.97-.7-.905-.6-.971L5.057.955,4.413,0l-.58.971-.961.593L2.388,2.6l-.958.613-.637.906Z" transform="matrix(-0.875, -0.485, 0.485, -0.875, 28.978, 61.093)" fill="#ffdd7f"/>
      <path id="パス_61351" data-name="パス 61351" d="M0,5C2.235,3.9,2.9,3.008,3.716,0,4.533,3.008,5.2,3.9,7.431,5,5.2,6.1,4.533,7,3.716,10,2.9,7,2.235,6.1,0,5" transform="matrix(-0.875, -0.485, 0.485, -0.875, 23.27, 40.962)" fill="#ffc449"/>
      <path id="パス_61352" data-name="パス 61352" d="M0,8.538C3.813,6.658,4.945,5.135,6.341,0c1.4,5.135,2.528,6.658,6.342,8.538-3.814,1.88-4.946,3.4-6.342,8.537C4.945,11.94,3.813,10.418,0,8.538" transform="matrix(-0.875, -0.485, 0.485, -0.875, 24.283, 32.002)" fill="#ffc449"/>
      <path id="パス_61353" data-name="パス 61353" d="M0,3.337C2.389,3.063,3.282,2.468,5,0c-.236,3,.076,4.027,1.748,5.755-2.389.274-3.282.869-5,3.337.236-3-.076-4.027-1.749-5.755" transform="matrix(-0.875, -0.485, 0.485, -0.875, 76.984, 85.143)" fill="#ffc449"/>
    </g>
  </g>
</svg>
