<svg xmlns="http://www.w3.org/2000/svg" width="140" height="140" viewBox="0 0 140 140">
  <g id="trouble_obj02" transform="translate(0 -0.477)">
    <circle id="楕円形_23" data-name="楕円形 23" cx="70" cy="70" r="70" transform="translate(0 0.477)" fill="#fff"/>
    <path id="パス_71610" data-name="パス 71610" d="M3666.388,1082.238l7.333,3.869a.638.638,0,0,0,.926-.671l-1.39-8.174a.636.636,0,0,1,.184-.564l5.946-5.778a.638.638,0,0,0-.352-1.088l-8.2-1.2a.636.636,0,0,1-.479-.35l-3.659-7.44a.637.637,0,0,0-1.143,0l-3.681,7.429a.636.636,0,0,1-.481.348l-8.207,1.18a.637.637,0,0,0-.355,1.087l5.929,5.8a.638.638,0,0,1,.182.564l-1.413,8.17a.638.638,0,0,0,.924.673l7.345-3.847A.637.637,0,0,1,3666.388,1082.238Z" transform="translate(-3627.655 -1020.914)" fill="#ffd809"/>
    <path id="パス_71611" data-name="パス 71611" d="M4092.128,1082.238l7.334,3.869a.637.637,0,0,0,.926-.671l-1.39-8.174a.64.64,0,0,1,.184-.564l5.947-5.778a.638.638,0,0,0-.352-1.088l-8.2-1.2a.64.64,0,0,1-.48-.35l-3.658-7.44a.638.638,0,0,0-1.144,0l-3.681,7.429a.637.637,0,0,1-.48.348l-8.207,1.18a.637.637,0,0,0-.355,1.087l5.928,5.8a.637.637,0,0,1,.183.564l-1.414,8.17a.637.637,0,0,0,.924.673l7.345-3.847A.636.636,0,0,1,4092.128,1082.238Z" transform="translate(-4021.848 -1020.914)" fill="#ffd809"/>
    <path id="パス_71612" data-name="パス 71612" d="M4517.867,1082.238l7.334,3.869a.637.637,0,0,0,.925-.671l-1.388-8.174a.633.633,0,0,1,.184-.564l5.945-5.778a.638.638,0,0,0-.353-1.088l-8.2-1.2a.636.636,0,0,1-.479-.35l-3.659-7.44a.638.638,0,0,0-1.144,0l-3.68,7.429a.638.638,0,0,1-.48.348l-8.208,1.18a.637.637,0,0,0-.354,1.087l5.929,5.8a.641.641,0,0,1,.182.564l-1.414,8.17a.638.638,0,0,0,.924.673l7.345-3.847A.636.636,0,0,1,4517.867,1082.238Z" transform="translate(-4416.041 -1020.914)" fill="#ffd809"/>
    <path id="パス_71613" data-name="パス 71613" d="M3666.388,1515.645l7.333,3.869a.638.638,0,0,0,.926-.671l-1.39-8.174a.636.636,0,0,1,.184-.564l5.946-5.778a.637.637,0,0,0-.352-1.088l-8.2-1.2a.637.637,0,0,1-.479-.349l-3.659-7.441a.637.637,0,0,0-1.143,0l-3.681,7.43a.637.637,0,0,1-.481.348l-8.207,1.18a.637.637,0,0,0-.355,1.087l5.929,5.8a.638.638,0,0,1,.182.564l-1.413,8.17a.638.638,0,0,0,.924.674l7.345-3.848A.637.637,0,0,1,3666.388,1515.645Z" transform="translate(-3627.655 -1422.209)" fill="#ffd809"/>
    <path id="パス_71614" data-name="パス 71614" d="M4092.128,1515.645l7.334,3.869a.637.637,0,0,0,.926-.671l-1.39-8.174a.641.641,0,0,1,.184-.564l5.947-5.778a.637.637,0,0,0-.352-1.088l-8.2-1.2a.641.641,0,0,1-.48-.349l-3.658-7.441a.638.638,0,0,0-1.144,0l-3.681,7.43a.637.637,0,0,1-.48.348l-8.207,1.18a.637.637,0,0,0-.355,1.087l5.928,5.8a.637.637,0,0,1,.183.564l-1.414,8.17a.638.638,0,0,0,.924.674l7.345-3.848A.637.637,0,0,1,4092.128,1515.645Z" transform="translate(-4021.848 -1422.209)" fill="#ffd809"/>
    <path id="パス_71615" data-name="パス 71615" d="M4530.867,1504.327a.637.637,0,0,0-.353-1.088l-8.2-1.2a.637.637,0,0,1-.479-.349l-3.659-7.441a.638.638,0,0,0-1.144,0l-3.68,7.43a.639.639,0,0,1-.48.348l-8.208,1.18a.637.637,0,0,0-.354,1.087l5.929,5.8a.64.64,0,0,1,.182.564l-1.414,8.17a.638.638,0,0,0,.924.673l7.345-3.847a.637.637,0,0,1,.593,0l7.334,3.869a.637.637,0,0,0,.925-.671l-1.388-8.174a.634.634,0,0,1,.184-.564Z" transform="translate(-4416.041 -1422.209)" fill="#e6dec2"/>
  </g>
</svg>
