<svg xmlns="http://www.w3.org/2000/svg" xmlns:xlink="http://www.w3.org/1999/xlink" width="140" height="140" viewBox="0 0 140 140">
  <defs>
    <clipPath id="clip-path">
      <circle id="楕円形_25" data-name="楕円形 25" cx="70" cy="70" r="70" transform="translate(0 0.477)" fill="#f7f3e5"/>
    </clipPath>
  </defs>
  <g id="trouble_obj03" transform="translate(0 -0.477)">
    <circle id="楕円形_23" data-name="楕円形 23" cx="70" cy="70" r="70" transform="translate(0 0.477)" fill="#fff"/>
    <g id="マスクグループ_4" data-name="マスクグループ 4" clip-path="url(#clip-path)">
      <g id="グループ_7040" data-name="グループ 7040" transform="translate(-89.211 -2173.017)">
        <path id="パス_71679" data-name="パス 71679" d="M742,2410.879c-1.7.9-1.979,2.157-4.036,2.072-1.97-.082-3.978-1.19-5.8-1.85a37.822,37.822,0,0,1-11-6.492c-2.3-1.846-4.7-3.724-6.319-6.234-2.1-3.257.231-5.9,2.045-8.836,1.193-1.934,2.294-4.277,3.3-6.278,2.109.231,4.1,1.654,5.919,2.687a29.237,29.237,0,0,0,4.436,2.313,23.678,23.678,0,0,0,3.769,1.461c1.549.242,3.153-.429,4.7-.354.925,3.182,12.259,3.554,13.146,6.754.586,2.117,1.349,4.146,2.123,6.2.3.81,1.573,3.05,1.413,3.919-.235,1.283-12.574,4.137-13.518,4.552C742.116,2410.819,742.057,2410.848,742,2410.879Z" transform="translate(-548.598 -158.855)" fill="#d99969"/>
        <g id="グループ_7039" data-name="グループ 7039" transform="translate(105.932 2222.877)">
          <path id="パス_71680" data-name="パス 71680" d="M348.64,2405.151a4.62,4.62,0,0,1-3.373,1.743c-.381.013-3.82-.624-3.814-.557a4.684,4.684,0,0,0,.753,2.386,3.211,3.211,0,0,1,.3,3.135c-.9,1.678-1.619,2.909-3.677,3.2a5.358,5.358,0,0,1-2.785-.407c-.353-.139-2.314-.98-2.324-1.282a23.014,23.014,0,0,1,.085,2.69c-.165,1.624-3.107,3.068-4.573,2.881-1.01-.126-2-1.284-2.919-1.162.017,1.022-.2,2.611-1.015,3.309a6.435,6.435,0,0,1-3.531.645,8.058,8.058,0,0,1-4.575-2.138,16.029,16.029,0,0,0-3.457-1.836c-2.467-1.286-4.991-2.414-7.517-3.6-.933-.439-1.8-1.069-2.712-1.6a8.026,8.026,0,0,0-1.665-.75,9.829,9.829,0,0,1-3.265-1.351,48.073,48.073,0,0,1-7.767-5.979,15.292,15.292,0,0,0-6.9-3.488c-1.723-.371-3.374-.954-5.084-1.43a72.35,72.35,0,0,0-8.5-1.87c-1.555-.234-4.507-.107-5.7-1.43-1.3-1.45.437-4.409,1.062-5.8.856-1.9,1.856-3.714,2.534-5.7.573-1.683.952-3.424,1.614-5.073.527-1.313,1.255-3.635,2.778-4.139,1.672-.55,4.629.115,6.234.729a42.2,42.2,0,0,0,8.157,1.773q5.441.933,10.887,1.9c2.978.531,5.863-.76,8.6-1.8a43.829,43.829,0,0,0,4.589-2.106c1.41-.73,2.682-2.094,4.211-2.517a38.1,38.1,0,0,1,5.207-.923c2.509-.321,7.748-2.2,9.378.55.018.029.031.058.049.086.585,1.071,1.86,3.344,1.436,4.6-.348,1.018-1.988,1.521-2.734,2.318-1.081,1.147-1.938,2.512-3.067,3.6-.04.043-.081.083-.122.122,0,.016.352.236.862.55l0,0c1.319.812,3.71,2.242,3.936,2.369a33.866,33.866,0,0,1,4.978,2.91,58.961,58.961,0,0,0,5.3,3.788c1.5.973,2.758,2.349,4.341,3.19a11.4,11.4,0,0,1,3.87,3.013,3.764,3.764,0,0,1,.632,1.216A4.75,4.75,0,0,1,348.64,2405.151Z" transform="translate(-264.155 -2371.696)" fill="#edbf98"/>
        </g>
        <path id="パス_71681" data-name="パス 71681" d="M503.206,2630.421a2.664,2.664,0,0,1-1.2-1.653,32.614,32.614,0,0,1-1.38-3.918c-.421-2.063.966-3.041,2.942-2.428,2.342.727,4.47,3.342,4.046,5.829a3.02,3.02,0,0,1-4.147,2.287A2.187,2.187,0,0,1,503.206,2630.421Z" transform="translate(-363.363 -366.237)" fill="#d99969"/>
        <path id="パス_71682" data-name="パス 71682" d="M553.474,2630.4c2.708-.043,4.932,3.833,4.922,6.22-.016,3.732-3.843,6.24-6.717,3.324-1.362-1.382-.706-2.782-.259-4.437a10.672,10.672,0,0,0,.676-3.333C552.072,2631.051,552.112,2630.423,553.474,2630.4Z" transform="translate(-407.021 -373.317)" fill="#d99969"/>
        <path id="パス_71683" data-name="パス 71683" d="M604.644,2673.473c-1.4.875-2.581-.159-3.092-1.485a3.882,3.882,0,0,1,.136-2.921c.291-.713,1.283-2.717,1.94-3.121a2.342,2.342,0,0,1,3.584,1.348c.921,2.606-.789,5.727-2.821,6.272Z" transform="translate(-450.812 -403.798)" fill="#d99969"/>
        <path id="パス_71684" data-name="パス 71684" d="M646.432,2690.328c-1.4.875-2.582-.158-3.092-1.485a3.879,3.879,0,0,1,.136-2.921c.292-.713,1.284-2.717,1.941-3.121a2.341,2.341,0,0,1,3.583,1.348c.922,2.606-.789,5.727-2.82,6.272Z" transform="translate(-487.074 -418.425)" fill="#d99969"/>
        <path id="パス_71685" data-name="パス 71685" d="M598.414,2388.721c-1.081,1.147-1.938,2.513-3.068,3.6a9.737,9.737,0,0,0-1.269-1.208c-.269-.133-1.2.111-1.468.128-1.063.065-2.136.083-3.2.105-.964.02-2.322-.452-3.237-.237-1.169.278-2.03,2.038-3.039,2.7-1.424.932-4.168,2.155-5.9,1.667-1.164-.322-2.672-1.668-2.025-3.015.3-.618,1.082-.882,1.623-1.248a22.051,22.051,0,0,0,2.659-2.152c1.562-1.469,2.615-4.51,4.912-4.775,1.884-.217,3.706-.168,5.589-.524a39.229,39.229,0,0,0,6.437-1.916,5.628,5.628,0,0,1,3.232-.136c.018.029.031.058.049.087.585,1.071,1.86,3.344,1.436,4.6C600.8,2387.422,599.16,2387.925,598.414,2388.721Z" transform="translate(-428.013 -157.368)" fill="#d99969"/>
        <path id="パス_71686" data-name="パス 71686" d="M900.861,2403.452l-6.915,2.255s10.09,26.174,11.143,27.226,7.2-3.026,7.045-3.477S900.861,2403.452,900.861,2403.452Z" transform="translate(-704.74 -176.376)" fill="#fff"/>
        <path id="パス_71687" data-name="パス 71687" d="M940.107,2225.905l12.66,34.441,40.736-14.431-2.438-45.715Z" transform="translate(-744.797 0)" fill="#474f51"/>
        <path id="パス_71688" data-name="パス 71688" d="M339.092,2407.342l6.56,2.233s-8.316,26.566-9.477,27.5-11.326-4.68-11.127-5.112S339.092,2407.342,339.092,2407.342Z" transform="translate(-211.062 -179.752)" fill="#fff"/>
        <path id="パス_71689" data-name="パス 71689" d="M128.269,2242.739l-3.749,11.249-6.472,19.415-36.225-13.078v-41.938Z" transform="translate(0 -15.782)" fill="#1d2628"/>
        <path id="パス_71690" data-name="パス 71690" d="M616.782,2406.957a.377.377,0,0,1-.295-.142l-.874-1.093c-.615-.769-8.2-6.093-13.151-9.49l-9.342-5.413a.384.384,0,0,1-.089-.071l-1.631-1.779a5.038,5.038,0,0,0-.83.1c-.175.032-.313.057-.411.063-.99.06-1.994.081-2.966.1l-.247.005a8.174,8.174,0,0,1-1.394-.147,5.136,5.136,0,0,0-1.764-.1,3.955,3.955,0,0,0-1.648,1.4,6.725,6.725,0,0,1-1.27,1.256c-1.281.838-4.226,2.274-6.214,1.715a3.719,3.719,0,0,1-2.261-1.853,1.938,1.938,0,0,1,0-1.689,2.811,2.811,0,0,1,1.294-1.126c.166-.092.323-.18.458-.271a21.653,21.653,0,0,0,2.613-2.115,11.541,11.541,0,0,0,1.414-1.785c.992-1.423,2.017-2.894,3.713-3.09.755-.087,1.506-.132,2.232-.176a26.068,26.068,0,0,0,3.33-.344,38.4,38.4,0,0,0,6.376-1.9,5.945,5.945,0,0,1,3.445-.151.377.377,0,1,1-.163.737,5.22,5.22,0,0,0-3.019.122,39.113,39.113,0,0,1-6.5,1.933,26.958,26.958,0,0,1-3.425.356c-.717.043-1.457.088-2.192.172-1.358.157-2.284,1.486-3.18,2.771a12.265,12.265,0,0,1-1.517,1.9,22.374,22.374,0,0,1-2.706,2.189c-.163.11-.342.21-.515.306a2.25,2.25,0,0,0-.981.794,1.191,1.191,0,0,0,.008,1.05,3,3,0,0,0,1.777,1.439c1.6.451,4.225-.721,5.6-1.619a6.129,6.129,0,0,0,1.11-1.115,4.4,4.4,0,0,1,2.048-1.641,5.6,5.6,0,0,1,2.058.089,7.677,7.677,0,0,0,1.259.138l.246-.005c.964-.02,1.961-.041,2.934-.1.054,0,.191-.029.324-.052a2.441,2.441,0,0,1,1.335-.037.377.377,0,0,1,.11.083l1.668,1.819,9.3,5.391.024.015c1.271.871,12.442,8.543,13.326,9.648l.874,1.093a.378.378,0,0,1-.294.613Z" transform="translate(-425.538 -154.884)" fill="#d99969"/>
        <path id="パス_71691" data-name="パス 71691" d="M736.247,2642.65a.373.373,0,0,1-.135-.025,9.247,9.247,0,0,1-2.931-2.173c-.264-.255-.514-.5-.765-.72s-.61-.486-.981-.754c-1.143-.825-2.439-1.76-2.583-3.055a.377.377,0,1,1,.75-.084c.108.963,1.259,1.794,2.275,2.528.388.28.754.544,1.043.8.261.234.528.491.785.74a8.716,8.716,0,0,0,2.677,2.01.377.377,0,0,1-.135.73Z" transform="translate(-561.473 -377.745)" fill="#8c3b2d"/>
        <path id="パス_71692" data-name="パス 71692" d="M699.492,2688a.374.374,0,0,1-.183-.048,9.7,9.7,0,0,1-2.028-1.588,30.4,30.4,0,0,0-3.146-2.628.377.377,0,0,1,.446-.608,30.975,30.975,0,0,1,3.216,2.687,8.993,8.993,0,0,0,1.878,1.479.377.377,0,0,1-.184.707Z" transform="translate(-531.215 -419.007)" fill="#8c3b2d"/>
        <path id="パス_71693" data-name="パス 71693" d="M793.952,2580.615a.377.377,0,0,1-.322-.181,13.552,13.552,0,0,0-2.848-2.55c-2.417-1.852-4.916-3.768-4.088-5.56a.377.377,0,0,1,.685.317c-.575,1.244,1.885,3.129,3.862,4.644a13.7,13.7,0,0,1,3.033,2.755.378.378,0,0,1-.322.574Z" transform="translate(-611.528 -322.73)" fill="#8c3b2d"/>
        <path id="パス_71694" data-name="パス 71694" d="M726.866,2532.868a.374.374,0,0,1-.206-.062c-.334-.219-.626-.446-.909-.666a3.076,3.076,0,0,0-2.793-.956.377.377,0,1,1-.146-.74,3.794,3.794,0,0,1,3.4,1.1c.271.211.552.428.86.631a.377.377,0,0,1-.207.693Z" transform="translate(-555.97 -286.51)" fill="#8c3b2d"/>
        <path id="パス_71695" data-name="パス 71695" d="M689.367,2602.856a.376.376,0,0,1-.282-.126,4.516,4.516,0,0,0-2.7-1.344.377.377,0,1,1,.1-.747,5.216,5.216,0,0,1,3.164,1.59.377.377,0,0,1-.281.628Z" transform="translate(-524.338 -347.486)" fill="#8c3b2d"/>
        <path id="パス_71696" data-name="パス 71696" d="M779.826,2585.751a.369.369,0,0,1-.054,0l-1.467-.209a.378.378,0,0,1,.107-.748l1.467.21a.377.377,0,0,1-.053.751Z" transform="translate(-604.108 -333.733)" fill="#8c3b2d"/>
        <path id="パス_71697" data-name="パス 71697" d="M722.769,2642.807a.365.365,0,0,1-.054,0l-1.467-.21a.377.377,0,1,1,.107-.747l1.467.209a.377.377,0,0,1-.053.751Z" transform="translate(-554.596 -383.246)" fill="#8c3b2d"/>
        <path id="パス_71698" data-name="パス 71698" d="M504.875,2627.014a.373.373,0,0,1-.165-.039.377.377,0,0,1-.173-.5,2.76,2.76,0,0,0,.239-.746c.4-2.368-1.671-4.75-3.786-5.406a2.157,2.157,0,0,0-2.089.2,1.844,1.844,0,0,0-.372,1.792,9,9,0,0,0,.285,1.032.377.377,0,1,1-.716.238,9.713,9.713,0,0,1-.308-1.119,2.552,2.552,0,0,1,.6-2.5,2.867,2.867,0,0,1,2.818-.361c2.413.749,4.776,3.5,4.306,6.253a3.519,3.519,0,0,1-.3.95A.378.378,0,0,1,504.875,2627.014Z" transform="translate(-360.893 -363.773)" fill="#d99969"/>
        <path id="パス_71699" data-name="パス 71699" d="M556.406,2637.839a.377.377,0,0,1-.28-.63,4.571,4.571,0,0,0,1.139-3.064,7.436,7.436,0,0,0-2.124-4.695,3.5,3.5,0,0,0-2.415-1.147,1.231,1.231,0,0,0-.834.214c-.18.187-.186.605-.174,1.176a7.934,7.934,0,0,1-.461,2.652c-.075.25-.153.509-.228.787-.055.2-.114.406-.171.6-.042.146-.084.289-.124.432a.377.377,0,1,1-.727-.2c.04-.145.083-.292.126-.44.056-.193.113-.389.167-.589.078-.288.157-.552.234-.808a7.229,7.229,0,0,0,.429-2.418,2.321,2.321,0,0,1,.385-1.716,1.837,1.837,0,0,1,1.365-.445,4.157,4.157,0,0,1,2.957,1.365,8.149,8.149,0,0,1,2.348,5.234,5.323,5.323,0,0,1-1.334,3.567A.377.377,0,0,1,556.406,2637.839Z" transform="translate(-406.269 -370.842)" fill="#d99969"/>
        <path id="パス_71700" data-name="パス 71700" d="M603.486,2670.5a.377.377,0,0,1-.27-.641,4.978,4.978,0,0,0,1.184-4.918,2.279,2.279,0,0,0-1.318-1.419,1.942,1.942,0,0,0-1.713.267,9.566,9.566,0,0,0-1.789,2.942,4.189,4.189,0,0,0-.331,1.435.377.377,0,1,1-.754-.027,4.938,4.938,0,0,1,.387-1.694c.218-.533,1.276-2.8,2.092-3.3a2.667,2.667,0,0,1,2.359-.335,3.037,3.037,0,0,1,1.778,1.878,5.759,5.759,0,0,1-1.355,5.7A.376.376,0,0,1,603.486,2670.5Z" transform="translate(-448.355 -401.322)" fill="#d99969"/>
        <path id="パス_71701" data-name="パス 71701" d="M644.478,2687.986a.377.377,0,0,1-.2-.7,4.945,4.945,0,0,0,1.89-5.487,2.278,2.278,0,0,0-1.317-1.418,1.941,1.941,0,0,0-1.713.267,9.611,9.611,0,0,0-1.789,2.942,4.028,4.028,0,0,0-.331,1.674.377.377,0,0,1-.362.391.373.373,0,0,1-.392-.362,4.776,4.776,0,0,1,.386-1.989c.219-.534,1.279-2.8,2.093-3.3a2.668,2.668,0,0,1,2.359-.335,3.036,3.036,0,0,1,1.777,1.878,5.675,5.675,0,0,1-2.209,6.383A.377.377,0,0,1,644.478,2687.986Z" transform="translate(-484.601 -415.95)" fill="#d99969"/>
        <path id="パス_71702" data-name="パス 71702" d="M208.953,2540.83c-.44,1.072-1.988,1.452-3.457.848s-2.3-1.961-1.863-3.033,1.988-1.452,3.457-.848S209.393,2539.758,208.953,2540.83Z" transform="translate(-105.601 -292.708)" fill="#586265"/>
        <path id="パス_71703" data-name="パス 71703" d="M285.029,2569.358c-.44,1.072-1.988,1.452-3.457.848s-2.3-1.961-1.863-3.033,1.988-1.452,3.457-.848S285.47,2568.287,285.029,2569.358Z" transform="translate(-171.619 -317.464)" fill="#586265"/>
      </g>
    </g>
  </g>
</svg>
