<svg xmlns="http://www.w3.org/2000/svg" xmlns:xlink="http://www.w3.org/1999/xlink" width="140" height="140" viewBox="0 0 140 140">
  <defs>
    <clipPath id="clip-path">
      <circle id="楕円形_25" data-name="楕円形 25" cx="70" cy="70" r="70" transform="translate(0 0.477)" fill="#f7f3e5"/>
    </clipPath>
  </defs>
  <g id="trouble_obj01" transform="translate(0 -0.477)">
    <circle id="楕円形_23" data-name="楕円形 23" cx="70" cy="70" r="70" transform="translate(0 0.477)" fill="#fff"/>
    <g id="マスクグループ_4" data-name="マスクグループ 4" clip-path="url(#clip-path)">
      <g id="グループ_5049" data-name="グループ 5049" transform="translate(-406.272 -249.98)">
        <path id="パス_71616" data-name="パス 71616" d="M588.189,1283.775c5.416-2.089,2.849-5.764,1.92-9.793-.963-4.177,1.789-10.77-2.407-13.68-3.467-2.406-7.611.717-7.865,4.387-.216,3.127-.734,4.367-1.956,7.416-.658,1.643-3.788,6.646-3.592,8.169C574.891,1284.967,585.168,1284.94,588.189,1283.775Z" transform="translate(-159.384 -729.816)" fill="#060606"/>
        <path id="パス_71617" data-name="パス 71617" d="M746.284,1280.914c-.393-.246-.786-.506-1.184-.788-1.724-1.219-4.048-2.792-5.165-4.587-.871-1.4-.386-3.388-1.333-4.647-2.528-3.361-9.526-.937-9.714,2.736-.28,5.455-.387,6.8,3.485,8.526a8.349,8.349,0,0,1,3.378,3.191c.615,1.209.762,2.9,1.946,3.614,2.067,1.242,8.671.882,10.823.229,1.621-.493,2.411-.5,3.269-2.08.992-1.823-1.069-3.888-2.593-4.616A28.5,28.5,0,0,1,746.284,1280.914Z" transform="translate(-274.618 -737.152)" fill="#060606"/>
        <path id="パス_71618" data-name="パス 71618" d="M888.34,597.274a7.816,7.816,0,0,0,.1-1.881,21.341,21.341,0,0,0-.859-3.346c-.643-2.554-1.415-5.333-3.281-7.256-.569-.588-1.883-1.62-2.2-.35a11.748,11.748,0,0,0,0,2.369,25.111,25.111,0,0,0,.215,3.6c.242,1.819.79,3.618.939,5.444a4.61,4.61,0,0,0,1.768,3.777,1.739,1.739,0,0,0,2.17.151A4.605,4.605,0,0,0,888.34,597.274Z" transform="translate(-388.934 -225.871)" fill="#060606"/>
        <path id="パス_71619" data-name="パス 71619" d="M879.384,546.146a6.623,6.623,0,0,0-.471.593,11.359,11.359,0,0,0-1.447,3.445,3.805,3.805,0,0,1-.967,1.55,14.031,14.031,0,0,0-1.565,2.239,3.369,3.369,0,0,0-.642,1.743,6.444,6.444,0,0,0,.67,1.881,7.246,7.246,0,0,0,.725,1.525c.5.808,1.065,1.235,1.991.737a7.978,7.978,0,0,0,1.923-1.887,18.6,18.6,0,0,1,1.844-1.624,6.354,6.354,0,0,1,3.755-1.531c2.028-.233,4.024-.632,6.08-.741,2.641-.139,5.241-.5,7.865-.879,1.507-.215,3-.15,4.515-.332.885-.107,2.96-.409,2.511-1.768.651-.27,1.855-.1,2.319-.707.543-.712-.338-1.453-1.252-1.614,1.4,0,3.01-.914,2.178-1.638a6.122,6.122,0,0,0-3.138-1.111c-.324-2.66-6.061-1.613-7.748-1.766-1.8-.163-6.961.217-7.213.131s-.685-.642-.57-.938c.075-.193.5-.307.66-.4.414-.247.831-.462,1.253-.7a12.75,12.75,0,0,0,2.688-1.994c.579-.57,1.2-1.249.917-2.122-.2-.607-.781-.548-1.3-.346-.877.345-1.72.99-2.587,1.4-.927.442-1.836.9-2.781,1.307-1.086.465-2.159.974-3.269,1.38-.8.293-1.645.407-2.43.76A14.363,14.363,0,0,0,879.384,546.146Z" transform="translate(-383.162 -191.497)" fill="#edbf98"/>
        <path id="パス_71620" data-name="パス 71620" d="M879.751,600.167c.518.927,1.118,1.808,2.029.835.479-.511,1.236-1.64.81-2.37-.125-.213-.429-.306-.62-.442a2.63,2.63,0,0,1-.818-1.035,13.506,13.506,0,0,1-1.506-6.276c0-.35.3-1.461-.27-1.509-.921-.077-1.091,2.13-1.116,2.638A15.73,15.73,0,0,0,879.751,600.167Z" transform="translate(-386.101 -229.999)" fill="#fff"/>
        <path id="パス_71621" data-name="パス 71621" d="M728.315,1095.463l-.963,53.843h-5.661l-4.37-53.508Z" transform="translate(-266.078 -607.494)" fill="#060606"/>
        <path id="パス_71622" data-name="パス 71622" d="M773.656,471.021s9.669.708,10,9.514,7.546,45.939.967,46.117-9.542-6.694-9.514-8.546-.714-32.762-.714-32.762Z" transform="translate(-308.098 -141.723)" fill="#060606"/>
        <path id="パス_71623" data-name="パス 71623" d="M621.752,435.65,608.2,448.2l18.742,47.292,21.271-46.054-13.431-13.812Z" transform="translate(-184.683 -115.319)" fill="#fff"/>
        <path id="パス_71624" data-name="パス 71624" d="M595.31,793.6l.646,123.544,9.349-.668L620.387,805.6l7.958,110.207,12.1-.825,1.429-120.95S595.7,792.5,595.31,793.6Z" transform="translate(-175.07 -382.04)" fill="#060606"/>
        <path id="パス_71625" data-name="パス 71625" d="M672.7,409.2l1.18,7.087-6.9,6.171-7.025-5.758,1.815-8.545Z" transform="translate(-223.284 -94.831)" fill="#edbf98"/>
        <path id="パス_71626" data-name="パス 71626" d="M646.283,313.336a4.528,4.528,0,0,1,1.476-1.775,28.448,28.448,0,0,1,15.146-1.009,4.5,4.5,0,0,1,1.7,1.563,7.422,7.422,0,0,1,.814,3.855c.086,3.729.236,7.456.292,11.187.029,1.89.037,3.782,0,5.673-.032,1.659-.671,2.478-1.968,3.7a15.207,15.207,0,0,1-3.026,2.449,14.253,14.253,0,0,1-7.006.467,15.228,15.228,0,0,1-3.325-2.026c-1.447-1.043-2.189-1.77-2.442-3.41-.289-1.869-.533-3.745-.756-5.622-.437-3.705-.784-7.42-1.193-11.127A7.438,7.438,0,0,1,646.283,313.336Z" transform="translate(-212.782 -21.295)" fill="#edbf98"/>
        <path id="パス_71627" data-name="パス 71627" d="M632.385,355.693c.121,1.977,2.261,3.444,4.783,3.274s4.465-1.908,4.345-3.884-2.267-3.443-4.785-3.275S632.261,353.715,632.385,355.693Z" transform="translate(-202.72 -52.793)" fill="#edbf98"/>
        <path id="パス_71628" data-name="パス 71628" d="M702.4,348.1c-.153,1.975,1.769,3.721,4.291,3.9s4.684-1.279,4.833-3.254-1.775-3.72-4.293-3.9S702.545,346.124,702.4,348.1Z" transform="translate(-254.94 -47.597)" fill="#edbf98"/>
        <path id="パス_71629" data-name="パス 71629" d="M629.709,289.6a9.247,9.247,0,0,1,5.292-5.49c.779-.355,1.527-.107,2.116-.574a11.243,11.243,0,0,1,2.7-2.033c3.2-1.348,8.006.386,10.793,2.073a10.1,10.1,0,0,1,4.9,6.143,6.457,6.457,0,0,1,.286,2.507c-.567-.619-.9-1.14-1.358-1.625a7.381,7.381,0,0,0,.372,1.734,8.837,8.837,0,0,1,.608,5.9c-1.4-.762-1.8-.107-1.85,1.263-.012.242-.2,2.893-.195,2.895-.143-.125-.764.223-.764.223.361-.2-.446-3.923-.462-4.421a4.169,4.169,0,0,0-3.192-3.7c-.693-.223-1.425-.325-2.132-.545-.584-.182-1.471-.691-2.076-.52a6,6,0,0,0,.923,1.877c-1.376.261-3.452-.435-4.8-.778-1.246-.318-2.959-.586-3.734-1.708a4.99,4.99,0,0,0-1.569,3.311c-.163,1.405-.613,2.793-.707,4.223a30,30,0,0,0,.211,3.129c-.511.173-.99.3-.99.3s-.744-2.969-.879-3.194c-.541-.919-.943-.87-1.87-.4-.041.021-1.957-6.627-1.976-7.236a10.715,10.715,0,0,1,.227-2.939C629.627,289.874,629.666,289.734,629.709,289.6Z" transform="translate(-200.462 0)" fill="#613622"/>
        <path id="パス_71634" data-name="パス 71634" d="M642.84,329.576a.39.39,0,0,1-.107.006.311.311,0,0,1-.27-.344c.034-.254.074-.5.119-.727a.313.313,0,0,1,.367-.245.31.31,0,0,1,.245.361c-.044.214-.082.445-.113.686A.313.313,0,0,1,642.84,329.576Zm.658-2.406a.321.321,0,0,1-.2-.02.3.3,0,0,1-.153-.408,6.387,6.387,0,0,1,.355-.663.312.312,0,0,1,.426-.108.307.307,0,0,1,.108.423,6.254,6.254,0,0,0-.321.6A.324.324,0,0,1,643.5,327.17Zm1.458-2.034a.31.31,0,0,1-.288-.082.3.3,0,0,1,0-.436c.168-.168.354-.337.546-.5a.314.314,0,0,1,.44.033.306.306,0,0,1-.032.434c-.181.155-.355.313-.514.471A.313.313,0,0,1,644.955,325.135Z" transform="translate(-210.24 -32.09)" fill="#ab6533"/>
        <path id="パス_71635" data-name="パス 71635" d="M636.142,313.985a.31.31,0,0,1-.248-.343c.013-.106.031-.211.052-.315.027-.141.063-.285.1-.427a.314.314,0,0,1,.384-.211.31.31,0,0,1,.217.38c-.037.125-.067.254-.092.378-.018.091-.032.184-.044.276a.31.31,0,0,1-.349.264Zm.866-2.328a.3.3,0,0,1-.1-.038.3.3,0,0,1-.111-.42c.121-.205.258-.414.4-.621a.315.315,0,0,1,.434-.078.307.307,0,0,1,.079.429c-.134.194-.264.39-.377.583A.313.313,0,0,1,637.008,311.657Zm1.522-1.987a.313.313,0,0,1-.151-.077.3.3,0,0,1-.016-.435c.164-.176.336-.351.514-.521a.314.314,0,0,1,.44.006.3.3,0,0,1-.005.436c-.168.162-.333.33-.492.5A.312.312,0,0,1,638.53,309.671Z" transform="translate(-205.34 -20.537)" fill="#ab6533"/>
        <path id="パス_71636" data-name="パス 71636" d="M701.637,318.581a.3.3,0,0,1,.021-.1.313.313,0,0,1,.4-.171c.238.1.468.195.68.3a.308.308,0,1,1-.264.556c-.2-.1-.417-.191-.645-.28A.311.311,0,0,1,701.637,318.581Zm2.193,1.238a.311.311,0,0,1,.509-.226,7.4,7.4,0,0,1,.559.506.3.3,0,0,1,0,.437.312.312,0,0,1-.44-.006,6.536,6.536,0,0,0-.511-.459A.323.323,0,0,1,703.83,319.819Zm1.634,1.912a.3.3,0,0,1,.15-.257.317.317,0,0,1,.428.111c.123.205.242.424.356.652a.3.3,0,0,1-.139.413.315.315,0,0,1-.417-.141c-.107-.213-.219-.419-.335-.612A.3.3,0,0,1,705.464,321.732Z" transform="translate(-254.379 -27.797)" fill="#ab6533"/>
        <path id="パス_71637" data-name="パス 71637" d="M685.933,304.2a.306.306,0,0,1,.272-.324c.106-.012.214-.021.319-.027.146-.008.3-.012.444-.007a.317.317,0,0,1,.306.317.305.305,0,0,1-.314.3c-.134,0-.265,0-.395.006-.095.005-.189.013-.283.025a.315.315,0,0,1-.348-.27C685.934,304.21,685.933,304.2,685.933,304.2Zm2.5.256a.314.314,0,0,1,.01-.1.31.31,0,0,1,.383-.212c.231.066.469.144.709.231a.308.308,0,1,1-.209.578c-.227-.082-.451-.155-.666-.216A.31.31,0,0,1,688.433,304.455Zm2.335.968a.307.307,0,0,1,.035-.164.312.312,0,0,1,.422-.124c.215.114.43.237.642.363a.308.308,0,1,1-.319.526c-.2-.12-.41-.237-.616-.348A.309.309,0,0,1,690.768,305.422Z" transform="translate(-242.665 -17.022)" fill="#ab6533"/>
        <path id="パス_71638" data-name="パス 71638" d="M698.62,354.594a1.023,1.023,0,1,1-.995-1.039A1.017,1.017,0,0,1,698.62,354.594Z" transform="translate(-250.602 -54.105)"/>
        <path id="パス_71639" data-name="パス 71639" d="M671.185,356.955a1.023,1.023,0,1,1-.994-1.038A1.016,1.016,0,0,1,671.185,356.955Z" transform="translate(-230.139 -55.867)"/>
        <path id="パス_71640" data-name="パス 71640" d="M680.733,361.684a.265.265,0,0,1-.21-.267.255.255,0,0,1,.189-.3l4.052-.293c-.873-3.3-2.228-8.3-2.442-8.745a.359.359,0,0,1-.022-.359.178.178,0,0,1,.295-.055c.067.066.269.264,2.661,9.338a.38.38,0,0,1-.021.245.2.2,0,0,1-.158.121l-4.323.313Z" transform="translate(-238.63 -52.655)"/>
        <path id="パス_71641" data-name="パス 71641" d="M822.489,599.919c.187-.258-.118-.442-.533-.712a4.955,4.955,0,0,1-1.263-1.043,16.722,16.722,0,0,1-3.337-8.352,10.823,10.823,0,0,1,.149-3.476c.1-.54.558-1.447.353-1.986-.162-.429-.395-.2-.706-.019q-1.068.612-2.128,1.237c-3.526,2.079-7.011,4.243-10.364,6.593a53.733,53.733,0,0,0-4.841,3.734,9.734,9.734,0,0,0-2.677,3.131c-4.213,9.882-1.286,13.063,4.644,11.653.236-.056.47-.12.7-.19,4.224-1.266,8.207-3.618,12.024-5.774q2.726-1.54,5.406-3.161.881-.531,1.757-1.071c.184-.113.37-.224.551-.341A.984.984,0,0,0,822.489,599.919Z" transform="translate(-324.135 -226.074)" fill="#060606"/>
        <path id="パス_71642" data-name="パス 71642" d="M672.024,423.329a7.619,7.619,0,0,1-3.042-.285,11.018,11.018,0,0,1-2.344-1.324.293.293,0,1,1,.335-.48,10.514,10.514,0,0,0,2.218,1.258,14.115,14.115,0,0,0,6.765-.426,8.624,8.624,0,0,0,1.395-.961.293.293,0,1,1,.373.452,9.1,9.1,0,0,1-1.491,1.024,8.83,8.83,0,0,1-3.6.7C672.435,423.3,672.232,423.316,672.024,423.329Z" transform="translate(-228.18 -104.446)" fill="#b35d55"/>
        <path id="パス_71643" data-name="パス 71643" d="M689.756,406.78a.9.9,0,1,1-.978-.916A.951.951,0,0,1,689.756,406.78Z" transform="translate(-244.185 -93.121)" fill="#d21337"/>
        <path id="パス_71644" data-name="パス 71644" d="M691.779,530.036c2.021-1.408-3.394-25.627-3.341-29.308,0-.043,9.862-49.817,9.862-49.817l-4.359-2.79-18.9-9.773.042,17.632L661.723,504.29c.084,7.263,6.336,26.237,8.015,27.16C670.5,531.872,690.865,530.671,691.779,530.036Z" transform="translate(-224.607 -117.353)" fill="#060606"/>
        <path id="パス_71645" data-name="パス 71645" d="M713.254,433.185l.57,24.33s4.011-10.986,4.011-12.9a29.372,29.372,0,0,0-2.79-9.416A6.787,6.787,0,0,0,713.254,433.185Z" transform="translate(-263.044 -113.502)" fill="#060606"/>
        <path id="パス_71646" data-name="パス 71646" d="M956.582,572.813a.445.445,0,0,1-.328-.746c.855-.936.469-3.84.284-5.236l-.035-.266a.445.445,0,0,1,.883-.115l.035.264c.3,2.28.538,4.808-.51,5.954A.444.444,0,0,1,956.582,572.813Z" transform="translate(-444.211 -212.614)" fill="#b35d55"/>
        <path id="パス_71647" data-name="パス 71647" d="M968.909,570.34a.444.444,0,0,1-.315-.131c-.644-.34-5.13-.1-7.294.02-1.016.055-1.818.1-2.233.1a.445.445,0,0,1,0-.891c.392,0,1.223-.045,2.185-.1,5.85-.317,7.57-.258,8,.273a.445.445,0,0,1-.345.726Z" transform="translate(-446.063 -214.915)" fill="#b35d55"/>
        <path id="パス_71648" data-name="パス 71648" d="M959.738,580.279h-.011c-.348-.008-.782-.019-.782-.472s.35-.466,1.048-.515c.386-.027.907-.056,1.447-.083,1.068-.054,2.231-.1,2.532-.109.012,0,.275,0,.7,0,1.213.006,3.753.017,5.382.017a.445.445,0,0,1,0,.891c-1.631,0-4.172-.011-5.386-.017l-.684,0c-.587.015-2.918.119-3.975.192A.443.443,0,0,1,959.738,580.279Z" transform="translate(-446.305 -222.339)" fill="#b35d55"/>
        <path id="パス_71649" data-name="パス 71649" d="M970.27,588.429a.445.445,0,0,1-.386-.223,3.69,3.69,0,0,0-1.173-.027c-.162.013-.3.023-.4.023h-2.644c-.343,0-.692.012-1.03.023-.355.012-.732.022-1.088.023-.135,0-.3-.013-.478-.026a3.31,3.31,0,0,0-1.12.029.445.445,0,0,1-.539-.708,2.721,2.721,0,0,1,1.726-.208c.176.013.327.024.449.024.338,0,.685-.011,1.021-.023s.7-.023,1.06-.023h2.644c.078,0,.192-.01.325-.02a3.18,3.18,0,0,1,1.723.163.446.446,0,0,1,.385.485.456.456,0,0,1-.081.285.491.491,0,0,1-.4.2Z" transform="translate(-448.017 -228.421)" fill="#b35d55"/>
        <path id="パス_71650" data-name="パス 71650" d="M560.954,471.021s-9.669.708-10,9.514-7.546,45.939-.968,46.117,9.542-6.694,9.514-8.546.714-32.762.714-32.762Z" transform="translate(-139.209 -141.723)" fill="#060606"/>
        <path id="パス_71651" data-name="パス 71651" d="M575.741,530.036c-2.021-1.408,3.394-25.627,3.341-29.308,0-.043-9.862-49.817-9.862-49.817l4.36-2.79,18.9-9.773-.041,17.632L605.8,504.29c-.084,7.263-6.337,26.237-8.014,27.16C597.015,531.872,576.654,530.671,575.741,530.036Z" transform="translate(-155.609 -117.353)" fill="#060606"/>
        <path id="パス_71652" data-name="パス 71652" d="M648.187,433.185l-.57,24.33s-4.011-10.986-4.011-12.9a29.37,29.37,0,0,1,2.79-9.416A6.781,6.781,0,0,1,648.187,433.185Z" transform="translate(-211.094 -113.502)" fill="#060606"/>
        <path id="パス_71653" data-name="パス 71653" d="M623.027,463.3a.332.332,0,0,1-.106-.017l-2.9-.966a.334.334,0,0,1-.156-.524l1.835-2.318a.334.334,0,1,1,.523.415l-1.539,1.944,2.445.815a.334.334,0,0,1-.105.651Z" transform="translate(-193.334 -133.018)" fill="#222325"/>
        <path id="パス_71654" data-name="パス 71654" d="M624.234,512.428a.334.334,0,0,1-.3-.2c-3.433-7.619-8.329-19.691-11.9-28.5-2.173-5.358-4.054-10-4.34-10.476a.349.349,0,0,1-.1-.209c-.032-.3-.042-.39,4.6-2.748,2.192-1.115,4.417-2.212,4.439-2.223a.334.334,0,1,1,.3.6c-2.931,1.446-7.571,3.787-8.57,4.418.394.764,1.344,3.091,4.3,10.388,3.572,8.809,8.465,20.874,11.893,28.481a.334.334,0,0,1-.3.471Z" transform="translate(-184.22 -139.497)" fill="#222325"/>
        <path id="パス_71655" data-name="パス 71655" d="M742.967,463.094a.334.334,0,0,1-.12-.646l2.1-.806-2-2.809a.334.334,0,1,1,.544-.388l2.251,3.16a.334.334,0,0,1-.152.505l-2.5.961A.338.338,0,0,1,742.967,463.094Z" transform="translate(-284.958 -132.239)" fill="#222325"/>
        <path id="パス_71656" data-name="パス 71656" d="M678.616,519.882a.349.349,0,0,1-.283-.146.334.334,0,0,1,.085-.464.328.328,0,0,1,.076-.039c.171-.156.961-1.065,4.1-6.3,2.594-4.323,9.045-19.131,13.314-28.93,2.866-6.58,3.815-8.736,4.213-9.464-.986-.6-5.234-2.65-7.923-3.919a.334.334,0,1,1,.285-.6c.021.01,2.087.985,4.124,1.979,4.325,2.11,4.316,2.2,4.287,2.5a.35.35,0,0,1-.115.22c-.291.451-2.132,4.676-4.258,9.557-4.276,9.814-10.737,24.646-13.354,29.007-3.953,6.589-4.322,6.6-4.542,6.608Z" transform="translate(-236.953 -140.947)" fill="#222325"/>
        <path id="パス_71657" data-name="パス 71657" d="M580.642,523.25h-.026a.334.334,0,0,1-.307-.359l.223-2.894c.216-2.808-4.177-20.862-4.222-21.044a.334.334,0,0,1,.649-.158c.182.748,4.462,18.34,4.238,21.254l-.223,2.894A.334.334,0,0,1,580.642,523.25Z" transform="translate(-160.891 -162.249)" fill="#222325"/>
        <path id="パス_71658" data-name="パス 71658" d="M782.755,523.251a.334.334,0,0,1-.333-.308l-.223-2.894c-.224-2.914,4.056-20.506,4.238-21.254a.334.334,0,1,1,.649.158c-.044.182-4.438,18.236-4.221,21.044l.223,2.894a.334.334,0,0,1-.307.359Z" transform="translate(-314.465 -162.25)" fill="#222325"/>
        <path id="パス_71659" data-name="パス 71659" d="M890.587,631.584a.341.341,0,0,1-.074-.008,6.444,6.444,0,0,1-2.64-2.274c-.085-.152-.146-.287-.217-.442a10.028,10.028,0,0,0-.477-.938.334.334,0,1,1,.58-.331,10.8,10.8,0,0,1,.506.993c.067.148.12.265.191.392a6.107,6.107,0,0,0,2.2,1.948.334.334,0,0,1-.073.66Z" transform="translate(-392.742 -258.383)" fill="#222325"/>
        <path id="パス_71660" data-name="パス 71660" d="M466.795,597.274a7.81,7.81,0,0,1-.1-1.881,21.428,21.428,0,0,1,.858-3.346c.643-2.554,1.415-5.333,3.281-7.256.57-.588,1.884-1.62,2.2-.35a11.755,11.755,0,0,1,0,2.369,25.076,25.076,0,0,1-.215,3.6c-.242,1.819-.789,3.618-.939,5.444a4.61,4.61,0,0,1-1.768,3.777,1.74,1.74,0,0,1-2.171.151A4.608,4.608,0,0,1,466.795,597.274Z" transform="translate(-79.12 -225.871)" fill="#060606"/>
        <path id="パス_71661" data-name="パス 71661" d="M390.86,546.146a6.535,6.535,0,0,1,.471.593,11.361,11.361,0,0,1,1.447,3.445,3.81,3.81,0,0,0,.966,1.55,13.981,13.981,0,0,1,1.565,2.239,3.364,3.364,0,0,1,.642,1.743,6.458,6.458,0,0,1-.67,1.881,7.265,7.265,0,0,1-.726,1.525c-.5.808-1.064,1.235-1.99.737a7.982,7.982,0,0,1-1.923-1.887,18.632,18.632,0,0,0-1.845-1.624,6.351,6.351,0,0,0-3.755-1.531c-2.028-.233-4.024-.632-6.08-.741-2.641-.139-5.242-.5-7.865-.879-1.507-.215-3-.15-4.515-.332-.885-.107-2.96-.409-2.511-1.768-.651-.27-1.855-.1-2.319-.707-.542-.712.339-1.453,1.252-1.614-1.4,0-3.01-.914-2.178-1.638a6.119,6.119,0,0,1,3.137-1.111c.325-2.66,6.061-1.613,7.749-1.766,1.8-.163,6.961.217,7.213.131s.685-.642.57-.938c-.075-.193-.5-.307-.661-.4-.414-.247-.831-.462-1.253-.7a12.746,12.746,0,0,1-2.688-1.994c-.579-.57-1.2-1.249-.917-2.122.2-.607.78-.548,1.3-.346.878.345,1.72.99,2.587,1.4.927.442,1.836.9,2.781,1.307,1.086.465,2.159.974,3.27,1.38.8.293,1.644.407,2.43.76A14.37,14.37,0,0,1,390.86,546.146Z" transform="translate(0 -191.497)" fill="#fa7c75"/>
        <path id="パス_71662" data-name="パス 71662" d="M481.1,600.167c-.518.927-1.118,1.808-2.029.835-.479-.511-1.236-1.64-.809-2.37.125-.213.429-.306.62-.442a2.633,2.633,0,0,0,.818-1.035,13.517,13.517,0,0,0,1.507-6.276c0-.35-.3-1.461.269-1.509.921-.077,1.092,2.13,1.117,2.638A15.729,15.729,0,0,1,481.1,600.167Z" transform="translate(-87.673 -229.999)" fill="#fff"/>
        <path id="パス_71663" data-name="パス 71663" d="M471.129,599.919c-.187-.258.118-.442.533-.712a4.949,4.949,0,0,0,1.263-1.043,16.72,16.72,0,0,0,3.337-8.352,10.823,10.823,0,0,0-.149-3.476c-.1-.54-.557-1.447-.353-1.986.162-.429.395-.2.706-.019q1.068.612,2.128,1.237c3.526,2.079,7.011,4.243,10.364,6.593A53.794,53.794,0,0,1,493.8,595.9a9.746,9.746,0,0,1,2.677,3.131c4.212,9.882,1.286,13.063-4.644,11.653-.236-.056-.469-.12-.7-.19-4.224-1.266-8.207-3.618-12.025-5.774q-2.726-1.54-5.406-3.161-.881-.531-1.758-1.071c-.184-.113-.369-.224-.551-.341A.979.979,0,0,1,471.129,599.919Z" transform="translate(-82.401 -226.074)" fill="#060606"/>
        <path id="パス_71664" data-name="パス 71664" d="M412.913,572.812a.444.444,0,0,1-.329-.145c-1.048-1.147-.813-3.675-.51-5.955l.035-.264a.445.445,0,0,1,.883.115l-.035.266c-.185,1.4-.571,4.3.285,5.237a.445.445,0,0,1-.329.746Z" transform="translate(-38.203 -212.614)" fill="#d1595f"/>
        <path id="パス_71665" data-name="パス 71665" d="M373.606,570.34a.445.445,0,0,1-.345-.726c.432-.532,2.152-.591,8-.273.962.052,1.793.1,2.185.1a.445.445,0,1,1,0,.891c-.415,0-1.218-.043-2.233-.1-2.163-.117-6.649-.36-7.293-.021A.445.445,0,0,1,373.606,570.34Z" transform="translate(-9.369 -214.915)" fill="#d1595f"/>
        <path id="パス_71666" data-name="パス 71666" d="M380.35,580.28a.442.442,0,0,1-.276-.1c-1.057-.073-3.389-.177-3.981-.193l-.677,0c-1.214.005-3.755.017-5.386.017a.445.445,0,1,1,0-.891c1.629,0,4.169-.011,5.382-.017l.7,0c.3.008,1.465.055,2.533.109.54.027,1.061.056,1.447.083.7.049,1.048.073,1.048.515s-.434.464-.782.472Z" transform="translate(-6.702 -222.34)" fill="#d1595f"/>
        <path id="パス_71667" data-name="パス 71667" d="M375.83,588.427a.474.474,0,0,1-.063,0,.479.479,0,0,1-.334-.2.456.456,0,0,1-.082-.287.446.446,0,0,1,.385-.483,3.171,3.171,0,0,1,1.723-.163c.134.01.247.02.326.02h2.644c.358,0,.715.012,1.06.023s.707.027,1.056.023c.111,0,.254-.012.413-.024a2.722,2.722,0,0,1,1.726.208.445.445,0,1,1-.541.707,3.333,3.333,0,0,0-1.118-.027c-.176.013-.343.026-.478.026-.365,0-.733-.011-1.088-.023-.338-.011-.688-.023-1.031-.023h-2.644c-.1,0-.234-.01-.4-.023a3.7,3.7,0,0,0-1.173.027A.445.445,0,0,1,375.83,588.427Z" transform="translate(-11.002 -228.42)" fill="#d1595f"/>
        <path id="パス_71668" data-name="パス 71668" d="M472.319,631.586a.334.334,0,0,1-.073-.66,6.105,6.105,0,0,0,2.2-1.948c.071-.127.124-.244.191-.391a10.681,10.681,0,0,1,.507-.995.334.334,0,1,1,.58.332,10.1,10.1,0,0,0-.478.939c-.07.155-.131.289-.216.441a6.448,6.448,0,0,1-2.64,2.274A.344.344,0,0,1,472.319,631.586Z" transform="translate(-83.082 -258.384)" fill="#222325"/>
        <path id="パス_71669" data-name="パス 71669" d="M687.151,688.515a1.395,1.395,0,1,1-1.39-1.272A1.335,1.335,0,0,1,687.151,688.515Z" transform="translate(-241.501 -303.003)" fill="#222325"/>
        <path id="パス_71670" data-name="パス 71670" d="M672.694,744.809a1.395,1.395,0,1,1-1.389-1.272A1.335,1.335,0,0,1,672.694,744.809Z" transform="translate(-230.718 -344.993)" fill="#222325"/>
        <path id="パス_71671" data-name="パス 71671" d="M679.354,485.764c0-1.119-2.557-11.587-2.557-11.587l1.278-5.594-2.027-1.2-.929-.55-.929.55-2.028,1.2,1.279,5.594s-2.557,10.468-2.557,11.587v1.119l4.235,15.023h0l4.19-15.329S679.354,486.883,679.354,485.764Z" transform="translate(-231.441 -138.6)" fill="#224b73"/>
        <path id="パス_71672" data-name="パス 71672" d="M662.526,468.967a.339.339,0,0,1-.114-.02.335.335,0,0,1-.207-.222l-.8-2.8a.334.334,0,0,1,.642-.184l.672,2.352,5.132-3.5a.335.335,0,0,1,.37,0l5.239,3.395.482-3.165a.334.334,0,1,1,.66.1l-.56,3.676a.334.334,0,0,1-.512.23l-5.487-3.555-5.331,3.631A.332.332,0,0,1,662.526,468.967Z" transform="translate(-224.361 -136.892)" fill="#a0a6b1"/>
        <path id="パス_71673" data-name="パス 71673" d="M618.18,775.218c-1.163,0-2.549-.037-4.206-.123-4.642-.241-9.21-.758-9.256-.763a.334.334,0,0,1,.076-.663c7.46.85,18.27,1.428,18.947.053.514-1.045,1.124-4.622,1.716-10.073a.334.334,0,1,1,.664.072c-.425,3.909-1.079,8.868-1.781,10.3C624.164,774.372,623.747,775.218,618.18,775.218Z" transform="translate(-181.867 -359.772)" fill="#222325"/>
        <path id="パス_71674" data-name="パス 71674" d="M683.926,711.637a7.722,7.722,0,0,1-1.58-.126c-.572-.127-2.091-.465-5.389-17.04-1.61-8.095-2.87-16.212-2.882-16.293a.334.334,0,0,1,.66-.1c.012.081,1.27,8.186,2.878,16.266,2.981,14.982,4.488,16.43,4.879,16.517,2.9.646,14.771-1.649,14.89-1.672a.334.334,0,0,1,.128.656C697.079,709.926,688.224,711.637,683.926,711.637Z" transform="translate(-233.817 -295.955)" fill="#222325"/>
        <path id="パス_71675" data-name="パス 71675" d="M603.742,1270.3a.222.222,0,0,1-.2-.124.79.79,0,0,1,.041-.762A4.091,4.091,0,0,1,606.1,1268c1.382-.126,3.708.343,4.557,1.777a.219.219,0,0,1,.031.107.313.313,0,0,1-.1.268.263.263,0,0,1-.239.042.222.222,0,0,1-.206-.386,4.952,4.952,0,0,0-4-1.365,3.728,3.728,0,0,0-2.168,1.192.343.343,0,0,0-.03.347.222.222,0,0,1-.1.3A.22.22,0,0,1,603.742,1270.3Z" transform="translate(-181.151 -736.175)" fill="#141516"/>
        <path id="パス_71676" data-name="パス 71676" d="M737.371,1273.076a.793.793,0,0,1-.726-.47.223.223,0,1,1,.392-.212.375.375,0,0,0,.273.231c.486.079,1.391-.757,2.121-1.431.929-.858,1.523-1.377,2.006-1.291a.223.223,0,1,1-.079.438c-.288-.055-1.03.631-1.625,1.18C738.9,1272.287,738.05,1273.076,737.371,1273.076Z" transform="translate(-280.472 -737.603)" fill="#141516"/>
        <path id="パス_71677" data-name="パス 71677" d="M750.282,1310.229c-.239,0-.477-.006-.712-.013s-.463-.012-.692-.012a13.308,13.308,0,0,1-3.424-.3,7.44,7.44,0,0,1-3.833-2.485,8.268,8.268,0,0,1-.915-1.474,7.911,7.911,0,0,0-.824-1.343,6.7,6.7,0,0,0-2.014-1.448,12.625,12.625,0,0,1-1.245-.748,9.6,9.6,0,0,1-3.1-3.317.223.223,0,0,1,.4-.2,9.174,9.174,0,0,0,2.961,3.159,12.158,12.158,0,0,0,1.2.721,7.02,7.02,0,0,1,2.144,1.557,8.361,8.361,0,0,1,.872,1.417,7.929,7.929,0,0,0,.864,1.4,6.994,6.994,0,0,0,3.6,2.339,17.306,17.306,0,0,0,4.015.3,13.2,13.2,0,0,0,1.352-.01,6.806,6.806,0,0,0,1.629-.4,7.868,7.868,0,0,1,1.539-.4.223.223,0,1,1,.053.442,7.42,7.42,0,0,0-1.451.377,7.3,7.3,0,0,1-1.735.419C750.742,1310.224,750.512,1310.229,750.282,1310.229Z" transform="translate(-278.146 -759.136)" fill="#141516"/>
        <path id="パス_71678" data-name="パス 71678" d="M587.385,1345a12.355,12.355,0,0,1-1.346-.071,14.205,14.205,0,0,1-4.383-1.511c-.424-.2-.825-.388-1.229-.564a.223.223,0,0,1,.178-.408c.41.179.833.377,1.241.57a13.881,13.881,0,0,0,4.242,1.471c2.456.27,5.8-.263,7.451-1.8a.223.223,0,0,1,.3.326C592.328,1344.425,589.664,1345,587.385,1345Z" transform="translate(-163.869 -791.704)" fill="#141516"/>
      </g>
      <g id="グループ_7038" data-name="グループ 7038" transform="translate(57.249 28.711)">
        <path id="合体_14" data-name="合体 14" d="M24.256,35.041A18.067,18.067,0,1,1,27.8,33.289l.16,4.088Z" transform="translate(0 -0.001)" fill="#15a58e"/>
        <text id="A_" data-name="A?" transform="translate(9.855 24.266)" fill="#fff" font-size="17" font-family="Oswald-SemiBold, Oswald" font-weight="600"><tspan x="0" y="0">A?</tspan></text>
      </g>
      <g id="グループ_7037" data-name="グループ 7037" transform="translate(96.487 47.011)">
        <path id="合体_15" data-name="合体 15" d="M8.516,33.4a18.072,18.072,0,1,1,3.57,1.712l-3.13,2.65Z" transform="translate(0 -0.002)" fill="#15a58e"/>
        <text id="B_" data-name="B?" transform="translate(9.901 24.792)" fill="#fff" font-size="17" font-family="Oswald-SemiBold, Oswald" font-weight="600"><tspan x="0" y="0">B?</tspan></text>
      </g>
    </g>
  </g>
</svg>
