<svg xmlns="http://www.w3.org/2000/svg" xmlns:xlink="http://www.w3.org/1999/xlink" width="140" height="140" viewBox="0 0 140 140">
  <defs>
    <clipPath id="clip-path">
      <circle id="楕円形_25" data-name="楕円形 25" cx="70" cy="70" r="70" transform="translate(0 0.477)" fill="#f7f3e5"/>
    </clipPath>
  </defs>
  <g id="trouble_obj04" transform="translate(0 -0.477)">
    <circle id="楕円形_23" data-name="楕円形 23" cx="70" cy="70" r="70" transform="translate(0 0.477)" fill="#fff"/>
    <g id="マスクグループ_4" data-name="マスクグループ 4" clip-path="url(#clip-path)">
      <g id="グループ_15833" data-name="グループ 15833" transform="translate(-1092.448 -47.984)">
        <g id="グループ_15827" data-name="グループ 15827" transform="translate(1154.657 68.311)">
          <g id="グループ_15825" data-name="グループ 15825">
            <path id="パス_90149" data-name="パス 90149" d="M1202.863,184.148c-3.255.867-8.065,2.2-9.124,3.288-.815.838-5.653,17.993-5.7,38.519-.018,8.063.521,22.057.788,28.474l16.255-.036.052-22.448Z" transform="translate(-1175.82 -134.279)" fill="#393330"/>
            <path id="パス_90150" data-name="パス 90150" d="M1222.1,251.65l6.208-.016,19.246-68.681c-3.966-1.31-8.464-2.708-9.071-2.952-1.38-.551-4.1-.694-6.684-.666l-.024.576a20.952,20.952,0,0,0-6.538.666c-.338.136-1.5.434-2.976.828Z" transform="translate(-1195.215 -131.536)" fill="#fff"/>
            <path id="パス_90151" data-name="パス 90151" d="M1230.761,143.9s-1.623,10.2-2.5,10.778a3.238,3.238,0,0,1-1.623.577s6.509,5.146,7.445,5.339,15.237-4.334,14.731-5.077c-.824-1.21-3.341-13.594-3.341-13.594l.26-9.25Z" transform="translate(-1197.805 -104.967)" fill="#edbf98"/>
            <path id="パス_90152" data-name="パス 90152" d="M1209.824,255.441l34.137-.058.368-24.1s3.129-41.491,2.292-42.222a55.809,55.809,0,0,0-7.564-3.049l-29.479,46.746Z" transform="translate(-1188.086 -135.343)" fill="#393330"/>
            <path id="パス_90153" data-name="パス 90153" d="M1217.574,225.443l-1.962-41.3c-1.352.36-2.383.6-3.892,1.072l-.858,1.519a30.324,30.324,0,0,0-.4,6.621l.851,17.186Z" transform="translate(-1188.569 -134.279)" fill="#2d2725"/>
            <path id="パス_90154" data-name="パス 90154" d="M1242.211,175.568a.275.275,0,0,1-.179-.067.294.294,0,0,1-.036-.406h0s.179-.353-.173-1.389a5.72,5.72,0,0,1,.253-3.28.277.277,0,0,1,.363-.163.291.291,0,0,1,.158.373,5.228,5.228,0,0,0-.246,2.879c.466,1.368.145,1.862.075,1.948A.276.276,0,0,1,1242.211,175.568Z" transform="translate(-1206.357 -126.361)" fill="#c05343"/>
            <path id="パス_90155" data-name="パス 90155" d="M1275.136,235.628c-1.548,4.952-2.893,9.973-6.6,13.717-1.57,1.588-2.7,2.989-5.037,2.84-2.462-.158-5.462-1.616-6.668-3.917-1.978-3.773-.088-10.149.751-13.97,1.458-6.65,2.671-13.277,4.564-19.825,1.822-6.3,5.857-24.766,8.547-23.761,4.108,1.536,8.295,4.087,9.335,6.335,2.23,4.819,1.682,12.094.188,18.62C1278.658,222.492,1277.211,228.991,1275.136,235.628Z" transform="translate(-1214.502 -137.995)" fill="#393330"/>
            <path id="パス_90156" data-name="パス 90156" d="M1180.165,189.427s-8.5,1.92-10.643,7.583c-1.9,5.012-10.363,35.754-9.522,36.761s5.881,4.127,5.881,3.7,15.684-29.227,15.684-29.227Z" transform="translate(-1159.818 -137.286)" fill="#393330"/>
            <path id="パス_90157" data-name="パス 90157" d="M1222.679,85.567a39.469,39.469,0,0,0-1.385,5.4c-.5,3.7-1.306,9.761-1.941,14.722-.442,3.442,1.052,6.924,1.679,8.864,1.218,3.774,2.742,6.17,8.474,6.037a20.442,20.442,0,0,0,7.637-3.64c2.424-1.886,3.673-4.169,4.469-8.325a148.454,148.454,0,0,0,1.98-20.464Z" transform="translate(-1193.608 -78.138)" fill="#edbf98"/>
            <path id="パス_90158" data-name="パス 90158" d="M1235.764,126.944a.3.3,0,0,0,.283-.281.323.323,0,0,0-.206-.387l-4.957-1.068c1.4-3.753,3.552-9.426,3.857-9.917a.408.408,0,0,0,.067-.424.231.231,0,0,0-.357-.118c-.09.068-.359.265-4.19,10.583a.419.419,0,0,0,0,.295.263.263,0,0,0,.184.169l5.29,1.141C1235.745,126.939,1235.753,126.943,1235.764,126.944Z" transform="translate(-1199.85 -94.731)" fill="#0d0002"/>
            <path id="パス_90159" data-name="パス 90159" d="M1245.906,118.841a1.222,1.222,0,0,0,.467,1.565,1.017,1.017,0,0,0,1.419-.527,1.22,1.22,0,0,0-.471-1.563A1.018,1.018,0,0,0,1245.906,118.841Z" transform="translate(-1208.71 -96.72)" fill="#0d0002"/>
            <path id="パス_90160" data-name="パス 90160" d="M1228.762,117.62a1.222,1.222,0,0,0,.467,1.565,1.018,1.018,0,0,0,1.418-.526,1.226,1.226,0,0,0-.47-1.565A1.015,1.015,0,0,0,1228.762,117.62Z" transform="translate(-1198.947 -96.023)" fill="#0d0002"/>
            <path id="パス_90161" data-name="パス 90161" d="M1249.976,112.473c-.915-.359-2.047-.564-5.4-.624-.232,0,.171-.49.365-.607a3.993,3.993,0,0,1,2.034-.353c1.351.021,2.948.3,3.582,1.732A4.935,4.935,0,0,1,1249.976,112.473Z" transform="translate(-1207.978 -92.558)" fill="#48332b"/>
            <path id="パス_90162" data-name="パス 90162" d="M1228.921,109.907c-.915-.359-2.047-.564-5.4-.624-.233,0,.17-.49.365-.607a4,4,0,0,1,2.035-.353c1.351.022,2.949.3,3.582,1.731A4.881,4.881,0,0,1,1228.921,109.907Z" transform="translate(-1195.987 -91.097)" fill="#48332b"/>
            <path id="パス_90163" data-name="パス 90163" d="M1251.337,155.595a.365.365,0,0,1-.35-.275.375.375,0,0,1,.254-.46,10.318,10.318,0,0,0,6.7-5.595.36.36,0,0,1,.471-.212.377.377,0,0,1,.207.483,10.863,10.863,0,0,1-7.182,6.045A.357.357,0,0,1,1251.337,155.595Z" transform="translate(-1211.661 -114.279)" fill="#c05343"/>
            <path id="パス_90164" data-name="パス 90164" d="M1264.685,109.5a23.935,23.935,0,0,0-.191,3.169c.628-.127,1.165.315,1.793.207a11.019,11.019,0,0,1,1.57-4.2,2.075,2.075,0,0,1,2.871-.846c.546.248.862.665,1.263.224a2.747,2.747,0,0,0,.354-1.394c-.123-.342-.8-.654-1.078-.864-.711-.537-1.464-1-2.217-1.472-.936-.585-1.833-1.231-2.743-1.858a12.549,12.549,0,0,1-2.364-1.706c.023,1.156-1.05,2.345-.859,3.485C1264.871,104.9,1264.685,108.047,1264.685,109.5Z" transform="translate(-1218.544 -86.789)" fill="#5b4237"/>
            <path id="パス_90165" data-name="パス 90165" d="M1225.229,69.311a12.834,12.834,0,0,0-4.843,3.364,34.071,34.071,0,0,0-2.558,3.164c-.535.75-1.311,1.377-1.8,2.126,1.127-.46,1.76-.667,2.88-1.163-.258.687-.749.815-1.142,1.533a31.687,31.687,0,0,1-2.077,3.344,14.094,14.094,0,0,0,2.749-1.425,3.876,3.876,0,0,0-.418,2.551c.047,1.07.487,2.162.619,3.179,1.007-2.119,1.262-4.358,2.884-5.25a13.415,13.415,0,0,1,11.162-.805c.743.257,1.538.441,2.288.657,1.062.306,2.12.042,2.063,1.51a3.031,3.031,0,0,1-.151.972c-.062.172,8.208,6.851,8.208,6.852-.046-.037.729-2.138.792-2.382a12.5,12.5,0,0,0,.411-2.654,9.14,9.14,0,0,0-1.206-5.141c-.06-.1-.121-.189-.184-.281-.629-.924-1.87-2.456-3.091-2.393a9.85,9.85,0,0,0-5.186-7.243,13.7,13.7,0,0,0-6.483-1.511,13.984,13.984,0,0,0-4.813.96Z" transform="translate(-1191.565 -68.311)" fill="#48332b"/>
            <path id="パス_90166" data-name="パス 90166" d="M1270.142,116.632c.454,0,2.143-2.62,4.166-.691,1.223,1.167.332,7.24-1.64,10-1.287,1.8-4.88,2.519-4.91,2.605Z" transform="translate(-1221.219 -95.033)" fill="#edbf98"/>
            <path id="パス_90167" data-name="パス 90167" d="M1272.092,126.545a.357.357,0,0,1-.056,0,.368.368,0,0,1-.3-.421c.161-1.061,1.05-6.384,2.729-6.992a1.127,1.127,0,0,1,1.207.324.377.377,0,0,1,.023.521.352.352,0,0,1-.507.024c-.269-.251-.426-.195-.485-.173-.938.339-1.885,3.952-2.258,6.409A.362.362,0,0,1,1272.092,126.545Z" transform="translate(-1223.482 -97.215)" fill="#c05343"/>
            <path id="パス_90168" data-name="パス 90168" d="M1273.022,133.785a.37.37,0,0,1-.017-.738c.794-.039,1.223-.357,1.311-.973a3.182,3.182,0,0,0-.868-2.374.357.357,0,0,1-.4-.176.374.374,0,0,1,.135-.5.627.627,0,0,1,.759.141,3.76,3.76,0,0,1,1,3.365,1.868,1.868,0,0,1-1.907,1.257Z" transform="translate(-1224.013 -102.844)" fill="#c05343"/>
            <path id="パス_90169" data-name="パス 90169" d="M1241.239,87.115a.356.356,0,0,1-.347-.3,4.287,4.287,0,0,0-.976-2.227c-3.078-3.215-6.893-4.559-10.207-3.594l-.171.049c-1.4.407-3.329.965-4.042,2.228a.347.347,0,0,1-.483.132.368.368,0,0,1-.128-.5c.856-1.518,2.939-2.122,4.461-2.563l.17-.049c3.564-1.039,7.641.376,10.9,3.783a4.991,4.991,0,0,1,1.167,2.6.362.362,0,0,1-.281.424A.348.348,0,0,1,1241.239,87.115Z" transform="translate(-1196.777 -74.948)" fill="#35241d"/>
            <path id="パス_90170" data-name="パス 90170" d="M1238.48,91.043a.352.352,0,0,1-.311-.189c-.725-1.375-2.941-1.689-4.132-1.858-2.6-.369-5.023.723-7.286,1.872a.349.349,0,0,1-.473-.165.367.367,0,0,1,.16-.486c2.362-1.2,4.9-2.337,7.7-1.94,1.314.186,3.76.533,4.656,2.23a.368.368,0,0,1-.142.492A.34.34,0,0,1,1238.48,91.043Z" transform="translate(-1197.576 -79.636)" fill="#35241d"/>
            <path id="パス_90171" data-name="パス 90171" d="M1262.523,83.735a.348.348,0,0,1-.284-.147.37.37,0,0,1,.074-.508c.245-.186.256-1.147.261-1.51l0-.209a5.967,5.967,0,0,0-2.8-5.208.369.369,0,0,1-.108-.5.348.348,0,0,1,.488-.111,6.688,6.688,0,0,1,3.122,5.84l0,.2c-.008.671-.021,1.685-.547,2.084A.342.342,0,0,1,1262.523,83.735Z" transform="translate(-1216.584 -72.396)" fill="#35241d"/>
            <path id="パス_90172" data-name="パス 90172" d="M1270.03,99.864a.357.357,0,0,1-.35-.323,4,4,0,0,0-2.169-2.661.364.364,0,0,1-.235-.452.351.351,0,0,1,.44-.242,4.668,4.668,0,0,1,2.666,3.276.361.361,0,0,1-.312.4Z" transform="translate(-1220.936 -84.176)" fill="#35241d"/>
            <path id="パス_90173" data-name="パス 90173" d="M1274.274,97.036a.353.353,0,0,1-.328-.228c-.37-.947-3.028-2.589-4.181-2.143a.351.351,0,0,1-.455-.212.366.366,0,0,1,.206-.468c1.561-.6,4.59,1.288,5.085,2.552a.367.367,0,0,1-.2.472A.34.34,0,0,1,1274.274,97.036Z" transform="translate(-1222.09 -82.867)" fill="#35241d"/>
            <path id="パス_90174" data-name="パス 90174" d="M1192.391,211.6h-.013a.457.457,0,0,1-.437-.475l.179-6.441h0a39.931,39.931,0,0,1,.414-5.525.444.444,0,0,1,.6-.208.468.468,0,0,1,.2.62c-.126.437-.357,4.665-.323,5.076a.506.506,0,0,1,0,.064l-.179,6.441A.456.456,0,0,1,1192.391,211.6Z" transform="translate(-1178.042 -142.683)" fill="#272220"/>
            <path id="パス_90175" data-name="パス 90175" d="M1249.186,181.107l-1.165-3.973-13.444,6.784-6.52-4.592-1,7.306,3.453,5.55Z" transform="translate(-1198.038 -130.285)" fill="#fff"/>
            <path id="パス_90176" data-name="パス 90176" d="M1248.862,178.289l-14.746,24.194-5.87,11.739,3.866,2s8.417-10.817,10.651-13.855l2.234-3.038-2.859-2.636,4.736-.67s4.665-7.157,4.709-10.151-.555-3.844-.555-3.844Z" transform="translate(-1198.718 -130.943)" fill="#2d2725"/>
            <path id="パス_90177" data-name="パス 90177" d="M1224.512,157.839a.409.409,0,0,1-.4-.361,5.172,5.172,0,0,0-.992-2.775,2.436,2.436,0,0,0-.848-.488.419.419,0,0,1-.248-.53.4.4,0,0,1,.515-.255,3.182,3.182,0,0,1,1.16.692,5.8,5.8,0,0,1,1.216,3.246.414.414,0,0,1-.348.467A.384.384,0,0,1,1224.512,157.839Z" transform="translate(-1195.16 -116.772)" fill="#c05343"/>
            <path id="パス_90178" data-name="パス 90178" d="M1234.916,200.563l-1.9-3.029-3.922,2.893-.542,7.314s-3.589,8.6-3.589,8.8-.2,12.528-.2,12.528l5.688-12.325-.338-8.8Z" transform="translate(-1196.731 -141.903)" fill="#183358"/>
            <path id="パス_90179" data-name="パス 90179" d="M1248.655,204.3a.429.429,0,0,1-.357-.189l-3.86-5.688a.43.43,0,1,1,.712-.483l3.86,5.688a.43.43,0,0,1-.356.672Z" transform="translate(-1207.896 -142.025)" fill="#8daed9"/>
            <path id="パス_90180" data-name="パス 90180" d="M1191.263,245.3a17.672,17.672,0,0,0-5.125-4.365c-2.844-1.819-5.983-3.558-8.7-5.542-.654-.476-1.374-1.583-2.119-1.754a13.538,13.538,0,0,0-3.144.275c-1.492.316-3.493,2.806-4.074,4.294-.372.95-.155,1.2.246,1.1-.161.149-.32.291-.472.414-.836.677-3.593,3.219-1.163,3.312a2.232,2.232,0,0,0,1.119-.259c-.569.564-.93,1.132-.627,1.522.915,1.175,4.33-1.364,5-1.744.7-.393,2.565-.59,2.885.311-1.428.028-7.227,1.378-6.161,3.416.537,1.028,2.671.093,3.378-.014a7.156,7.156,0,0,1,3.132.575c2.466.727,4.49,2.685,7.062,3.064,1.428.211,2.358-.273,3.369.8.617.652.847,1.824,1.808,1.926.917.1,2.392-1.341,3.042-1.923A3.959,3.959,0,0,0,1191.263,245.3ZM1172.1,239.56a5.933,5.933,0,0,0-1.9,1.3c-.192.142-1.053.858-1.539,1.215.434-.476,1.3-1.364,1.688-1.713,1.394-1.244,2.633-1.051,4.412-1.082A16.933,16.933,0,0,0,1172.1,239.56Z" transform="translate(-1163.115 -162.444)" fill="#edbf98"/>
            <path id="パス_90181" data-name="パス 90181" d="M1174.252,241.882a.259.259,0,0,1-.2-.092.274.274,0,0,1,.025-.379c.442-.4,2.7-2.378,3.722-2.271.963.1,1.878.292,1.917.3a.269.269,0,0,1,.2.317.261.261,0,0,1-.309.209c-.01,0-.928-.2-1.863-.292-.613-.062-2.367,1.28-3.326,2.141A.255.255,0,0,1,1174.252,241.882Z" transform="translate(-1167.819 -165.594)" fill="#c05343"/>
            <path id="パス_90182" data-name="パス 90182" d="M1219.879,260.506s-5.413,7.483-4.441,8.916c.749,1.1,2.207,1.6,2.823,2.812a21.537,21.537,0,0,0,2.213,3.938c2.18,2.772,5.624,4.569,8.5,6.457a37.383,37.383,0,0,0,8,3.787c1.591.572,3.9,1.8,5.634,1.729,1.569-.061,2.748-1.425,3.823-2.474a14.678,14.678,0,0,0,2.334-2.782c1.788-2.89,2.443-6.521.676-9.6-1.2-2.087-4.2-3.225-6.184-4.316a61.842,61.842,0,0,0-7.212-3.168c-4.108-1.614-8.594-.974-12.59-2.831A33.6,33.6,0,0,1,1219.879,260.506Z" transform="translate(-1191.356 -177.765)" fill="#393330"/>
            <path id="パス_90183" data-name="パス 90183" d="M1241.146,300.677a8.6,8.6,0,0,1-2.915-.509c-4.154-1.485-22.744-18.493-23.533-19.217a.471.471,0,0,1-.036-.653.44.44,0,0,1,.634-.037c.192.176,19.245,17.609,23.23,19.034a8.408,8.408,0,0,0,7.117-.865.441.441,0,0,1,.624.121.47.47,0,0,1-.117.642A9.357,9.357,0,0,1,1241.146,300.677Z" transform="translate(-1190.916 -188.948)" fill="#272220"/>
            <path id="パス_90184" data-name="パス 90184" d="M1252.554,275.89a.453.453,0,0,1-.44-.371c-.682-1.377-16.227-9.087-25.863-13.614a.467.467,0,0,1-.222-.612.445.445,0,0,1,.6-.229c.064.031,6.519,3.066,12.934,6.287,13.169,6.613,13.35,7.541,13.436,7.987a.461.461,0,0,1-.352.544A.453.453,0,0,1,1252.554,275.89Z" transform="translate(-1197.432 -178.059)" fill="#272220"/>
            <path id="パス_90185" data-name="パス 90185" d="M1272.969,237.6a.449.449,0,0,1-.413-.279c-.283-.567-3.883-1.366-7.862-1.747a.445.445,0,0,1-.314-.178.472.472,0,0,1-.088-.357c.48-3.017,4.8-29.544,8.807-31.976l3.938-2.392a.443.443,0,0,1,.616.162.47.47,0,0,1-.159.633l-3.937,2.392c-3.022,1.836-6.936,22.425-8.3,30.842,2.592.268,7.581.95,8.125,2.255a.467.467,0,0,1-.236.607A.438.438,0,0,1,1272.969,237.6Z" transform="translate(-1219.242 -143.651)" fill="#272220"/>
            <path id="パス_90186" data-name="パス 90186" d="M1227.875,171.628a11.781,11.781,0,0,0,1.582-1.532c.522-.59,1.655-1.5,1.509-2.392-.064-.384-.359-.549-.289-.908.057-.3.446-.571.49-.919a3.023,3.023,0,0,0-1.046-2.144c-.56-.581-.2-.6.2-1.262a1.186,1.186,0,0,0-.191-1.632c-.359-.356-1.437-.72-1.356-1.234.1-.635,1.183-1.225,1.6-1.6.611-.556.9-1.613-.049-1.975-1.128-.43-2.358.242-3.344.764-1.255.666-2.477,1.37-3.68,2.13-.607.385-1.283.632-1.9,1-.4.238-.835.635-1.286.208-.337-.32-.394-1.285-.438-1.714a6.435,6.435,0,0,0-1.179-3.671c-.455-.48-1.98-1.123-2.558-.5s.392,1.56.624,2.117a8.176,8.176,0,0,1,.474,3.182c-.036,1.417-.824,2.651-1.086,4.034-.329,1.732.319,3.327.273,5.048-.06,2.269-1.684,4.723-2.732,6.681-.623,1.164,1.286,1.05,2.448,1.691,1.07.589,3.43,2.215,4.649,2.422.583.1,1.8-3.56,2.632-4.556,1.152-1.376,2.919-2,4.346-3C1227.667,171.786,1227.772,171.708,1227.875,171.628Z" transform="translate(-1190.242 -117.102)" fill="#edbf98"/>
            <path id="パス_90187" data-name="パス 90187" d="M1183.5,201.109l7.148,3.94s.527.338-.006,1.669c-.233.582-.869,2.626-1.11,3.267-.517,1.376-5.941,18.964-8.6,24.718-1.927,4.172-2.549,9.268-6.408,11.985-2.366,1.665-8.633,3.886-11.517,2.413-1.49-.763-2.007-2.337-2.427-3.84-.653-2.336-1.419-4.67-.514-7.093,1.133-3.032,3.521-5.407,4.273-8.6.729-3.1,2.453-5.257,4.05-8.053,2.092-3.663,4.219-8.846,7.314-11.764,1.68-1.584,4.847-9.583,5.406-9.583A10.469,10.469,0,0,1,1183.5,201.109Z" transform="translate(-1159.656 -143.401)" fill="#393330"/>
            <path id="パス_90188" data-name="パス 90188" d="M1165.365,232.943a.437.437,0,0,1-.224-.062.469.469,0,0,1-.164-.632l18.615-33.125a.442.442,0,0,1,.59-.182l2.506,1.288a.469.469,0,0,1,.2.62.444.444,0,0,1-.6.207l-2.128-1.093-18.4,32.748A.448.448,0,0,1,1165.365,232.943Z" transform="translate(-1162.651 -142.677)" fill="#272220"/>
            <path id="パス_90189" data-name="パス 90189" d="M1196.548,252.333a.44.44,0,0,1-.285-.105.471.471,0,0,1-.061-.651,46.962,46.962,0,0,0,3.355-4.715c.688-1.274,7.815-23.149,11.542-34.705l-.1-.2a.469.469,0,0,1,.2-.62.443.443,0,0,1,.6.207l.179.368a.477.477,0,0,1,.025.352c-.439,1.362-10.763,33.369-11.668,35.044a46.464,46.464,0,0,1-3.447,4.854A.443.443,0,0,1,1196.548,252.333Z" transform="translate(-1180.41 -149.737)" fill="#272220"/>
            <path id="パス_90190" data-name="パス 90190" d="M1238.706,174.638a.4.4,0,0,1-.347-.2.423.423,0,0,1,.139-.57c.189-.117.375-.237.554-.364.1-.073.2-.148.3-.223a11.428,11.428,0,0,0,1.528-1.48c.1-.118.232-.248.368-.387.475-.484,1.125-1.146,1.041-1.656a.83.83,0,0,0-.115-.267,1.089,1.089,0,0,1-.173-.791,5.563,5.563,0,0,1,.2-.655,5.743,5.743,0,0,0,.188-.624,1.374,1.374,0,0,0-.137-1.072.422.422,0,0,0-.356-.148.579.579,0,0,1-.587-.277c-.172-.317.025-.621.275-1.007.073-.112.155-.239.237-.377a1.192,1.192,0,0,0-.252-1.418,3.9,3.9,0,0,0-.382-.3c-.443-.325-.861-.631-.855-1.052a.6.6,0,0,1,.276-.493,7.425,7.425,0,0,0,1.276-1.462,1.641,1.641,0,0,0,.3-1.14.41.41,0,0,0-.284-.274c-1.05-.4-2.763.507-3.407.849-.812.431-2.151,1.254-3.037,1.8-.559.343-.831.511-.926.558a.4.4,0,0,1-.54-.195.421.421,0,0,1,.189-.555c.07-.035.473-.282.862-.521.895-.55,2.246-1.38,3.081-1.824,1.246-.66,2.833-1.359,4.059-.89a1.231,1.231,0,0,1,.775.806,2.431,2.431,0,0,1-.411,1.867,9.408,9.408,0,0,1-1.3,1.53c.12.107.3.238.412.32a4.362,4.362,0,0,1,.475.381,2.044,2.044,0,0,1,.38,2.448c-.089.15-.177.286-.255.406l-.02.031a1.188,1.188,0,0,1,.629.4,2.128,2.128,0,0,1,.318,1.77,6.019,6.019,0,0,1-.218.741,5.165,5.165,0,0,0-.166.542c-.009.044,0,.069.08.216a1.611,1.611,0,0,1,.211.543c.154.937-.669,1.775-1.269,2.386-.126.128-.243.248-.339.356a12.152,12.152,0,0,1-1.637,1.583c-.108.084-.219.167-.333.247-.192.136-.392.266-.595.391A.4.4,0,0,1,1238.706,174.638Z" transform="translate(-1201.964 -119.083)" fill="#c05343"/>
            <ellipse id="楕円形_499" data-name="楕円形 499" cx="0.813" cy="0.88" rx="0.813" ry="0.88" transform="translate(25.454 102.678)" fill="#2d2725"/>
            <ellipse id="楕円形_500" data-name="楕円形 500" cx="0.813" cy="0.88" rx="0.813" ry="0.88" transform="translate(25.454 114.8)" fill="#2d2725"/>
          </g>
          <g id="グループ_15826" data-name="グループ 15826" transform="translate(40.942 66.218)">
            <rect id="長方形_30459" data-name="長方形 30459" width="6.487" height="3.956" transform="translate(0.705 0) rotate(10.268)" fill="#fff"/>
            <path id="パス_90191" data-name="パス 90191" d="M1262.343,226l-.03,0-3.723-.692a.166.166,0,1,1,.061-.326l3.722.692a.166.166,0,0,1-.03.329Z" transform="translate(-1256.863 -223.751)" fill="#9fa0a0"/>
            <path id="パス_90192" data-name="パス 90192" d="M1261.814,228.934l-.031,0-3.722-.692a.166.166,0,1,1,.06-.326l3.722.692a.166.166,0,0,1-.03.329Z" transform="translate(-1256.562 -225.42)" fill="#9fa0a0"/>
          </g>
        </g>
        <ellipse id="楕円形_501" data-name="楕円形 501" cx="0.645" cy="0.806" rx="0.645" ry="0.806" transform="translate(1192.471 103.243)" fill="#c1143a"/>
      </g>
      <g id="グループ_15843" data-name="グループ 15843" transform="translate(-525.89 -97.262)">
        <g id="グループ_15837" data-name="グループ 15837" transform="translate(550.496 133.739)">
          <path id="パス_90197" data-name="パス 90197" d="M602.591,221.03c-.68-.623-4.711-2.495-5.971-4.19-3.07-4.13-1.535-11.7-1.535-11.7l-4.429.324-4.429-.324s1.535,7.573-1.535,11.7c-1.26,1.695-4.942,3.768-5.622,4.391-.2.179,5.832,8.657,12.395,8.973C595.647,230.405,602.786,221.21,602.591,221.03Z" transform="translate(-558.955 -168.85)" fill="#edbf98"/>
          <path id="パス_90198" data-name="パス 90198" d="M587.366,133.739a10.078,10.078,0,0,1,4.113,1.181c4.468,2.171,7.624,6.343,9.477,10.859,2.2,5.355,4.773,12.519,1.706,17.9-1.675,2.938-5.525,5.534-8.652,6.822-6.691,2.757-15.192.954-21.251-3.088-2.657-1.773-5.168-4.159-5.868-7.276-1.414-6.3,2.43-13.134,5.955-18.032,2.309-3.21,5.6-7.763,10.258-6.428A4.887,4.887,0,0,1,587.366,133.739Z" transform="translate(-552.82 -133.739)" fill="#4a4032"/>
          <path id="パス_90199" data-name="パス 90199" d="M553.054,312.909a18.976,18.976,0,0,1-.763,5.089c-1.236,3.184-4.3,7.17-6.233,7.569-1.844.381-6.3.048-6.543-3.09-.191-2.48,1.081-9.13,1.081-9.413,0-3.1,3.971-4.988,6.607-4.988S553.054,309.812,553.054,312.909Z" transform="translate(-539.496 -219.47)" fill="#d9c3af"/>
          <path id="パス_90200" data-name="パス 90200" d="M557.974,237.85s-6.41,1.314-7.735,3.025c-2.917,3.768-8.751,37.8-8.751,37.8l10.1,3.815,7.285-27.394Z" transform="translate(-540.475 -184.936)" fill="#d9c3af"/>
          <path id="パス_90201" data-name="パス 90201" d="M630.482,238.78s5.232.758,6.441,2.552c3.525,5.226,5.834,52.653,5.834,52.653l-9.723-.121-4.74-38.311Z" transform="translate(-583.164 -185.394)" fill="#d9c3af"/>
          <path id="パス_90202" data-name="パス 90202" d="M602.811,238.52c-1.823-2.187-11.687-5.707-11.687-5.707l-8.551.84-8.551-.84s-9.864,3.519-11.687,5.707,2.431,25.28,2.917,27.711,2.8,12.518,2.8,12.518l-1.094,12.014,15.2.23v.013l.423-.006.423.006v-.013l15.2-.23L597.1,278.749s2.309-10.088,2.8-12.518S604.634,240.707,602.811,238.52Z" transform="translate(-550.505 -182.459)" fill="#d9c3af"/>
          <path id="パス_90203" data-name="パス 90203" d="M603.67,156.66c-2.028-3.15-7.176-5.833-11.5-6.722l-.019.219.009-.22c-4.4.332-9.846,2.339-12.258,5.206-1.984,2.358-1.471,9.47-1.61,12.795-.311,7.3,4.739,13.781,10.928,15.123l-.011.13c.278.018.556.021.834.018.275.039.551.071.829.088l.005-.13c6.31-.544,12.142-6.334,12.762-13.611C603.925,166.241,605.338,159.252,603.67,156.66Z" transform="translate(-558.568 -141.705)" fill="#edbf98"/>
          <path id="パス_90204" data-name="パス 90204" d="M571.394,181.3c-.024,1.967,2.2,4.784,4.161,5.188s1.225-1.832,1.623-3.82a3.654,3.654,0,0,0-2.823-4.312C572.394,177.959,571.42,179.273,571.394,181.3Z" transform="translate(-555.182 -155.646)" fill="#edbf98"/>
          <path id="パス_90205" data-name="パス 90205" d="M630.884,185.192c-.226,1.955-2.791,4.465-4.787,4.617s-.982-1.972-1.124-4a3.653,3.653,0,0,1,3.348-3.918C630.318,181.747,631.117,183.174,630.884,185.192Z" transform="translate(-581.464 -157.415)" fill="#edbf98"/>
          <path id="パス_90206" data-name="パス 90206" d="M588.127,145.8a14.645,14.645,0,0,0,3.45-2.427,5.072,5.072,0,0,0,.816-1.074c1.726-3.109-1.443-4.979-3.957-5.063a11.945,11.945,0,0,0-3.648.255A10.378,10.378,0,0,0,581.5,139.3a39.289,39.289,0,0,0-3.856,3.281,20.8,20.8,0,0,0-2.927,4.062,18.728,18.728,0,0,0-2.183,4.834,20.139,20.139,0,0,0-.648,3.555c-.044.445-.191.855-.244,1.284-.071.575.124,1.145.078,1.724-.05.641-.506,1.344-1.148,1.307a7.085,7.085,0,0,0,3.931-1.1c.107.63-.625,1.522-1.255,1.873a.081.081,0,0,0,.029.149c1.683.279,3.853-2.172,5.2-3.952,1.188-1.568,1.949-3.421,3.074-5.035a15.619,15.619,0,0,1,4.2-4.091C586.519,146.682,587.327,146.245,588.127,145.8Z" transform="translate(-554.779 -135.445)" fill="#4a4032"/>
          <path id="パス_90207" data-name="パス 90207" d="M591.715,182.071a1.434,1.434,0,0,1-.837,1.794,1.328,1.328,0,0,1-1.715-.861,1.434,1.434,0,0,1,.845-1.793A1.326,1.326,0,0,1,591.715,182.071Z" transform="translate(-563.885 -157.045)" fill="#0d0002"/>
          <path id="パス_90208" data-name="パス 90208" d="M614.567,183.529a1.435,1.435,0,0,1-.839,1.794,1.329,1.329,0,0,1-1.715-.861,1.437,1.437,0,0,1,.845-1.793A1.328,1.328,0,0,1,614.567,183.529Z" transform="translate(-575.122 -157.762)" fill="#0d0002"/>
          <g id="グループ_15834" data-name="グループ 15834" transform="translate(39.667 27.274)">
            <path id="パス_90209" data-name="パス 90209" d="M620.93,189.2a1.695,1.695,0,1,1-1.585-1.8A1.694,1.694,0,0,1,620.93,189.2Z" transform="translate(-617.544 -187.402)" fill="#e9706e"/>
            <path id="パス_90210" data-name="パス 90210" d="M618.943,190.6a.321.321,0,0,1-.214-.1c-.4-.428-1.053-1.205-.847-1.6a.534.534,0,0,1,.328-.268c.389-.118.954.121,1.683.519l.1.056.075.037-.04-.061-.1-.158c-.185-.291-.576-.9-.858-.9a.331.331,0,0,1-.315-.334.326.326,0,0,1,.335-.315h.029c.616.04,1.062.739,1.357,1.2.035.054.067.1.1.148.244.37.483.79.228,1.074s-.7.089-1.1-.115l-.117-.064a4.913,4.913,0,0,0-.991-.447,6.814,6.814,0,0,0,.608.778.325.325,0,0,1-.257.547Z" transform="translate(-617.691 -187.436)" fill="#e55a65"/>
          </g>
          <g id="グループ_15835" data-name="グループ 15835" transform="translate(21.256 26.099)">
            <path id="パス_90211" data-name="パス 90211" d="M584.7,186.892a1.695,1.695,0,1,1-1.585-1.8A1.693,1.693,0,0,1,584.7,186.892Z" transform="translate(-581.319 -185.091)" fill="#e9706e"/>
            <path id="パス_90212" data-name="パス 90212" d="M582.718,188.288a.323.323,0,0,1-.214-.1c-.4-.428-1.053-1.205-.847-1.6a.538.538,0,0,1,.328-.268c.389-.118.954.121,1.683.519l.1.056.075.038c-.012-.02-.026-.041-.04-.062l-.1-.158c-.185-.291-.576-.9-.858-.9a.33.33,0,0,1-.315-.334.324.324,0,0,1,.334-.315h.029c.617.039,1.062.739,1.357,1.2.035.054.066.1.1.148.244.371.482.79.228,1.074s-.7.089-1.1-.114l-.117-.064a4.911,4.911,0,0,0-.991-.448,6.829,6.829,0,0,0,.608.778.325.325,0,0,1-.257.547Z" transform="translate(-581.466 -185.125)" fill="#e55a65"/>
          </g>
          <path id="パス_90213" data-name="パス 90213" d="M601.951,204.814a.4.4,0,0,1-.139-.025,4.119,4.119,0,0,0-1.746-.3,4.935,4.935,0,0,0-1.064.228.4.4,0,1,1-.247-.768,5.672,5.672,0,0,1,1.242-.264,4.907,4.907,0,0,1,2.094.343.4.4,0,0,1-.139.783Z" transform="translate(-568.498 -168.131)" fill="#c1143a"/>
          <path id="パス_90214" data-name="パス 90214" d="M610.018,158.235a19.864,19.864,0,0,1,.389,12.171.39.39,0,0,0,.613.433,15.848,15.848,0,0,0,4.588-6.866,28.818,28.818,0,0,0,1.786-11.793,20.7,20.7,0,0,0-4.448-10.972c-1.978-2.173-4.624-4.013-7.725-3.565-2.567.371-5.1,1.639-5.171,4.678a5.375,5.375,0,0,0,.415,2.134c.75,1.849,1.789,2.526,3.1,3.965C605.642,150.7,609.14,155.664,610.018,158.235Z" transform="translate(-569.273 -135.626)" fill="#4a4032"/>
          <path id="パス_90215" data-name="パス 90215" d="M588.184,174.9a.2.2,0,0,1,.1.012,3.846,3.846,0,0,0,3.355-.4.2.2,0,1,1,.231.334,4.186,4.186,0,0,1-3.738.447.2.2,0,0,1,.047-.389Z" transform="translate(-563.353 -153.771)" fill="#4a4032"/>
          <path id="パス_90216" data-name="パス 90216" d="M614.465,177.4a.207.207,0,0,1-.094-.049,3.847,3.847,0,0,0-3.28-.815.2.2,0,1,1-.1-.394,4.19,4.19,0,0,1,3.652.91.2.2,0,0,1-.182.347Z" transform="translate(-574.58 -154.537)" fill="#4a4032"/>
          <path id="パス_90217" data-name="パス 90217" d="M601.676,191.075a.414.414,0,0,1-.279-.107l-1.24-1.114a.415.415,0,0,1-.127-.41l1.3-5.3a.417.417,0,1,1,.81.2L600.9,189.4l1.054.947a.417.417,0,0,1-.279.727Z" transform="translate(-569.259 -158.372)" fill="#0d0002"/>
          <path id="パス_90218" data-name="パス 90218" d="M599.268,214.2a6.953,6.953,0,0,1-.907-.058,10.569,10.569,0,0,1-2.663-.723.373.373,0,0,1,.286-.689,9.813,9.813,0,0,0,2.475.672,7.93,7.93,0,0,0,3.257-.332.373.373,0,1,1,.21.716A9.466,9.466,0,0,1,599.268,214.2Z" transform="translate(-567.021 -172.568)" fill="#cb6362"/>
          <path id="パス_90219" data-name="パス 90219" d="M572.621,161.25a.308.308,0,0,1-.061-.008.221.221,0,0,1-.125-.1.224.224,0,0,1-.013-.163c.085-.268.2-.6.349-.982a.208.208,0,0,1,.272-.117.2.2,0,0,1,.13.195.244.244,0,0,1-.012.073c-.15.385-.264.706-.341.958A.2.2,0,0,1,572.621,161.25Zm.819-2.13a.181.181,0,0,1-.081-.016.207.207,0,0,1-.11-.272c.163-.381.337-.767.511-1.152a.217.217,0,0,1,.276-.1.214.214,0,0,1,.121.187.2.2,0,0,1-.016.085s0,0,0,0a.021.021,0,0,1-.009.016c-.17.378-.336.755-.5,1.124A.2.2,0,0,1,573.44,159.12Zm1.043-2.276h0a.225.225,0,0,1-.089-.02.205.205,0,0,1-.1-.28c.195-.4.377-.771.556-1.124,0,0,0,0,0,0a.21.21,0,0,1,.276-.089.213.213,0,0,1,.114.191.2.2,0,0,1-.02.085v0c0,.008-.008.012-.008.016-.191.377-.378.75-.548,1.1A.2.2,0,0,1,574.483,156.844Zm1.132-2.231a.2.2,0,0,1-.1-.024.209.209,0,0,1-.1-.126.2.2,0,0,1,.016-.158c.2-.377.4-.751.6-1.1v0a.209.209,0,0,1,.389.11.217.217,0,0,1-.024.1,0,0,0,0,0,0,0l0,.008c-.2.357-.4.723-.592,1.084A.208.208,0,0,1,575.615,154.613Zm1.221-2.187a.2.2,0,0,1-.105-.028.216.216,0,0,1-.1-.126.211.211,0,0,1,.024-.158c.223-.377.442-.738.658-1.075a.217.217,0,0,1,.288-.065.207.207,0,0,1,.094.182.193.193,0,0,1-.029.106c-.207.328-.426.686-.653,1.063A.2.2,0,0,1,576.836,152.426Zm1.343-2.11a.209.209,0,0,1-.17-.329l.036-.049a.225.225,0,0,1,.028-.037,8.916,8.916,0,0,1,.73-.917.213.213,0,0,1,.292-.012.2.2,0,0,1,.069.154.208.208,0,0,1-.053.138,8.729,8.729,0,0,0-.7.876l-.061.085A.213.213,0,0,1,578.179,150.316Zm1.672-1.855a.218.218,0,0,1-.159-.073.211.211,0,0,1,.02-.292,12.435,12.435,0,0,1,1-.787.216.216,0,0,1,.292.049.189.189,0,0,1,.037.113.191.191,0,0,1-.085.175,11.163,11.163,0,0,0-.966.762A.225.225,0,0,1,579.851,148.461Zm2.032-1.453a.207.207,0,0,1-.178-.105.22.22,0,0,1-.024-.159.215.215,0,0,1,.1-.126c.353-.207.73-.41,1.116-.6h.008a.21.21,0,0,1,.272.1.237.237,0,0,1,.02.089.207.207,0,0,1-.113.187h0s-.009,0-.012.008c-.365.179-.73.374-1.079.576A.2.2,0,0,1,581.884,147.009Zm2.248-1.1a.211.211,0,0,1-.195-.134.215.215,0,0,1,.117-.272c.743-.292,1.205-.422,1.205-.422a.217.217,0,0,1,.256.146.2.2,0,0,1-.021.158.18.18,0,0,1-.126.1h0s0,0-.008,0c-.15.045-.564.171-1.153.406A.232.232,0,0,1,584.131,145.909Z" transform="translate(-555.682 -139.313)" fill="#3e3529"/>
          <path id="パス_90220" data-name="パス 90220" d="M616.318,167.892a.21.21,0,0,1-.045-.008.183.183,0,0,1-.13-.089.194.194,0,0,1-.029-.158c.085-.389.154-.787.219-1.217a.2.2,0,0,1,.235-.174.209.209,0,0,1,.178.207v.028c-.065.418-.138.836-.227,1.246A.208.208,0,0,1,616.318,167.892Zm.365-2.475h-.016a.212.212,0,0,1-.191-.227c.037-.4.061-.811.073-1.238a.206.206,0,0,1,.207-.2h.008a.206.206,0,0,1,.2.2v.012c-.012.418-.04.844-.073,1.258A.212.212,0,0,1,616.683,165.417Zm.089-2.5h0a.207.207,0,0,1-.207-.2c0-.4-.02-.819-.045-1.242v-.012a.209.209,0,0,1,.418-.013c.024.426.037.848.045,1.258a.208.208,0,0,1-.207.211Zm-.146-2.495a.21.21,0,0,1-.207-.191c-.041-.422-.089-.84-.142-1.233v-.033a.2.2,0,0,1,.178-.2.21.21,0,0,1,.235.175v.008c.057.426.106.844.146,1.246a.208.208,0,0,1-.049.154.2.2,0,0,1-.142.073S616.634,160.422,616.626,160.422Zm-.329-2.479a.209.209,0,0,1-.207-.174c-.069-.41-.142-.82-.223-1.225a.146.146,0,0,1-.008-.041.209.209,0,0,1,.17-.2.206.206,0,0,1,.243.162c.081.4.159.816.231,1.238a.216.216,0,0,1-.17.239C616.322,157.939,616.31,157.943,616.3,157.943Zm-.491-2.455a.213.213,0,0,1-.207-.162c-.1-.422-.2-.828-.3-1.205v0a.236.236,0,0,1-.008-.053.208.208,0,0,1,.41-.053c.113.426.21.828.3,1.221a.214.214,0,0,1-.158.252C615.835,155.484,615.819,155.488,615.806,155.488Zm-.637-2.422a.206.206,0,0,1-.2-.15c-.117-.4-.247-.8-.385-1.173a.217.217,0,0,1-.013-.073.206.206,0,0,1,.134-.195.215.215,0,0,1,.272.121c.138.382.272.787.393,1.2a.213.213,0,0,1-.146.26A.24.24,0,0,1,615.17,153.066Zm-.86-2.345a.211.211,0,0,1-.191-.121c-.174-.382-.361-.751-.556-1.1a.22.22,0,0,1-.024-.1.2.2,0,0,1,.109-.183.211.211,0,0,1,.28.081c.207.365.4.747.572,1.132a.21.21,0,0,1,0,.158.223.223,0,0,1-.11.118A.212.212,0,0,1,614.309,150.721Zm-1.217-2.179a.2.2,0,0,1-.17-.094c-.235-.345-.483-.677-.734-.982,0,0,0,0,0,0a.2.2,0,0,1-.048-.13.206.206,0,0,1,.077-.162.214.214,0,0,1,.292.028c.268.321.523.666.763,1.019a.213.213,0,0,1-.057.288A.211.211,0,0,1,613.092,148.542Zm-1.586-1.927h0a.209.209,0,0,1-.15-.061c-.292-.288-.6-.568-.913-.82a.208.208,0,0,1-.077-.162.2.2,0,0,1,.049-.13.214.214,0,0,1,.292-.033c.325.264.645.552.945.848a.21.21,0,0,1,0,.3A.205.205,0,0,1,611.506,146.615Zm-1.943-1.57a.232.232,0,0,1-.113-.033,11.025,11.025,0,0,0-1.063-.613.2.2,0,0,1-.114-.191.23.23,0,0,1,.02-.089.214.214,0,0,1,.28-.093,11.481,11.481,0,0,1,1.1.637.208.208,0,0,1,.061.288A.213.213,0,0,1,609.562,145.045Zm-2.232-1.124a.192.192,0,0,1-.069-.012,6.585,6.585,0,0,0-1.168-.332.224.224,0,0,1-.138-.081.211.211,0,0,1-.037-.155.214.214,0,0,1,.239-.178,7.611,7.611,0,0,1,1.246.357.207.207,0,0,1-.073.4Z" transform="translate(-572.159 -138.372)" fill="#3e3529"/>
          <path id="パス_90221" data-name="パス 90221" d="M627.82,162.774a.208.208,0,0,1-.207-.207v-.309c0-.28,0-.56-.012-.836v-.012a.206.206,0,0,1,.2-.2h0a.208.208,0,0,1,.207.2c.012.28.016.564.016.848,0,.053,0,.1,0,.154v.154A.208.208,0,0,1,627.82,162.774Zm-.077-2.4a.208.208,0,0,1-.207-.191c-.028-.4-.065-.8-.113-1.242v-.02a.2.2,0,0,1,.182-.207.211.211,0,0,1,.231.182c.049.426.085.848.114,1.254a.209.209,0,0,1-.191.223Zm-.276-2.487a.2.2,0,0,1-.2-.178c-.056-.385-.121-.787-.2-1.225a.166.166,0,0,1,0-.045.212.212,0,0,1,.174-.2.209.209,0,0,1,.24.162v0a.044.044,0,0,1,0,.02c.073.406.142.816.2,1.221a.214.214,0,0,1-.175.239Zm-.442-2.463a.2.2,0,0,1-.2-.162c-.081-.378-.166-.763-.275-1.213v-.008a.151.151,0,0,1-.009-.049.21.21,0,0,1,.414-.045c.1.43.195.832.276,1.225a.2.2,0,0,1-.029.159.194.194,0,0,1-.13.089A.164.164,0,0,1,627.025,155.426Zm-.588-2.43a.212.212,0,0,1-.2-.154c-.081-.292-.15-.544-.2-.706-.053-.178-.1-.337-.146-.487a.164.164,0,0,1-.012-.061.21.21,0,0,1,.41-.065c.049.155.1.317.15.5.065.224.13.462.2.71a.208.208,0,0,1-.146.256A.126.126,0,0,1,626.437,153Zm-.767-2.378a.223.223,0,0,1-.2-.134c-.15-.382-.317-.763-.495-1.124v0a.246.246,0,0,1-.024-.094.217.217,0,0,1,.117-.187.212.212,0,0,1,.28.1c.179.361.353.751.511,1.156a.207.207,0,0,1-.117.272A.237.237,0,0,1,625.67,150.618Zm-1.1-2.243a.212.212,0,0,1-.179-.1c-.21-.357-.438-.7-.677-1.031a.194.194,0,0,1-.04-.126.213.213,0,0,1,.085-.167.216.216,0,0,1,.292.049c.243.333.479.69.7,1.059a.213.213,0,0,1-.182.317Zm-1.469-2.021a.212.212,0,0,1-.159-.069,11.856,11.856,0,0,0-.86-.88.209.209,0,0,1-.012-.292.214.214,0,0,1,.3-.012,11.729,11.729,0,0,1,.889.909.2.2,0,0,1,.053.15.207.207,0,0,1-.069.142A.223.223,0,0,1,623.1,146.354Z" transform="translate(-580.075 -139.299)" fill="#3e3529"/>
          <path id="パス_90222" data-name="パス 90222" d="M566.9,273.432a.373.373,0,0,1-.367-.311c-.016-.1-1.634-9.856-.928-16.37.59-5.431.9-5.677,1.056-5.794a.4.4,0,0,1,.29-.08.372.372,0,0,1,.219.627c-.068.158-.358,1.039-.823,5.328-.7,6.411.906,16.069.922,16.166a.375.375,0,0,1-.368.435Zm-.049-21.817a.36.36,0,0,0,.155-.012A.378.378,0,0,1,566.853,251.615Z" transform="translate(-552.249 -191.341)" fill="#cab0a1"/>
          <path id="パス_90223" data-name="パス 90223" d="M634.2,281.116a.349.349,0,0,1-.051,0,.372.372,0,0,1-.319-.419c.025-.183,2.481-18.414,1.577-23.841l-.924-5.546a.373.373,0,1,1,.735-.122l.924,5.546c.923,5.538-1.471,23.309-1.574,24.063A.373.373,0,0,1,634.2,281.116Z" transform="translate(-585.882 -191.341)" fill="#cab0a1"/>
          <path id="パス_90224" data-name="パス 90224" d="M576.7,192.216a2.191,2.191,0,0,0,.085-.735.187.187,0,0,0-.151-.131.26.26,0,0,0-.2.114,2.028,2.028,0,0,0-.27.4c-.095-.129-.105-.336-.255-.392a.251.251,0,0,0-.283.125.73.73,0,0,0-.077.323.726.726,0,0,1-.273-.123.3.3,0,0,0-.286-.035.236.236,0,0,0-.088.265.693.693,0,0,0,.157.254.787.787,0,0,0-.38.048.133.133,0,0,0-.082.065.252.252,0,0,0,.072.236c.155.1.335.116.491.214a.774.774,0,0,0-.441.287.131.131,0,0,0-.035.118c.018.047.076.061.125.068l.356.051a.459.459,0,0,0-.265.308.23.23,0,0,0,.046.226.248.248,0,0,0,.2.042.666.666,0,0,0,.371-.188.652.652,0,0,0,.027.34.234.234,0,0,0,.28.138.347.347,0,0,0,.151-.175l.186-.358a.528.528,0,0,0,.4.223.3.3,0,0,0,.167-.007.214.214,0,0,0,.107-.223.634.634,0,0,0-.1-.242c.175,0,.387-.03.458-.191s-.081-.365-.256-.431a.863.863,0,0,0,.355-.466C577.378,192.125,576.7,192.216,576.7,192.216Z" transform="translate(-556.756 -162.069)" fill="#d7dce2"/>
          <path id="パス_90225" data-name="パス 90225" d="M577.022,193.382c.054.147.49-.013.2-.161a.149.149,0,0,0-.2.094A.121.121,0,0,0,577.022,193.382Z" transform="translate(-557.947 -162.983)" fill="#977243"/>
          <path id="パス_90226" data-name="パス 90226" d="M576.5,193.957c.054.148.489-.013.2-.161a.149.149,0,0,0-.2.094A.114.114,0,0,0,576.5,193.957Z" transform="translate(-557.692 -163.266)" fill="#977243"/>
          <path id="パス_90227" data-name="パス 90227" d="M576.893,194.617c.054.148.489-.013.2-.161a.148.148,0,0,0-.2.093A.116.116,0,0,0,576.893,194.617Z" transform="translate(-557.883 -163.591)" fill="#977243"/>
          <path id="パス_90228" data-name="パス 90228" d="M577.691,194.439c.054.148.489-.013.2-.161a.149.149,0,0,0-.2.093A.116.116,0,0,0,577.691,194.439Z" transform="translate(-558.276 -163.503)" fill="#977243"/>
          <path id="パス_90229" data-name="パス 90229" d="M577.684,193.754c.054.148.489-.013.2-.161a.149.149,0,0,0-.2.094A.115.115,0,0,0,577.684,193.754Z" transform="translate(-558.272 -163.166)" fill="#977243"/>
          <path id="パス_90230" data-name="パス 90230" d="M603.541,231.534s-2.9-4-4.127-3.225-4.836,3.16-8.513,2.773-5.546-3.869-6.707-3.289a10.446,10.446,0,0,0-3.418,3.547c-.322.838,6.321,9.545,9.094,9.8a13.539,13.539,0,0,0,8.448-2.193C600.381,237.4,603.541,231.534,603.541,231.534Z" transform="translate(-559.79 -179.959)" fill="#d9c3af"/>
          <path id="パス_90231" data-name="パス 90231" d="M593.219,241.642c-4.826,0-10.622-3.518-10.888-3.681a.373.373,0,1,1,.39-.635c.069.042,6.923,4.205,11.67,3.488a21.61,21.61,0,0,0,8.405-3.287.373.373,0,0,1,.435.606,21.972,21.972,0,0,1-8.73,3.418A8.642,8.642,0,0,1,593.219,241.642Z" transform="translate(-560.473 -184.651)" fill="#cab0a1"/>
          <path id="パス_90232" data-name="パス 90232" d="M542.931,285.886a.2.2,0,0,1-.2-.252c1.3-5.278,2.582-11.384,3.822-17.288,1.4-6.673,2.85-13.572,4.363-19.488a6.039,6.039,0,0,1,1.3-2.84.2.2,0,1,1,.289.286,5.641,5.641,0,0,0-1.2,2.655c-1.51,5.908-2.959,12.8-4.359,19.471-1.241,5.908-2.523,12.017-3.825,17.3A.2.2,0,0,1,542.931,285.886Z" transform="translate(-541.085 -188.924)" fill="#e9d7d0"/>
          <path id="パス_90233" data-name="パス 90233" d="M548.244,285.691a.2.2,0,0,1-.061-.01.2.2,0,0,1-.132-.255,11.467,11.467,0,0,0,.422-2.627,11.794,11.794,0,0,1,.44-2.718c.94-2.95,1.911-6,2.621-9.065.477-2.058.851-4.185,1.213-6.241A59.453,59.453,0,0,1,555.82,252.5a.2.2,0,1,1,.376.153,59.148,59.148,0,0,0-3.049,12.188c-.363,2.061-.738,4.193-1.218,6.262-.714,3.08-1.688,6.139-2.63,9.1a11.493,11.493,0,0,0-.422,2.627,11.768,11.768,0,0,1-.44,2.718A.2.2,0,0,1,548.244,285.691Z" transform="translate(-543.698 -192.081)" fill="#e9d7d0"/>
          <path id="パス_90234" data-name="パス 90234" d="M554.474,292.995a.206.206,0,0,1-.1-.026.2.2,0,0,1-.078-.276c1.435-2.561,2.529-7.653,3.494-12.145.457-2.125.888-4.133,1.33-5.781a.2.2,0,0,1,.392.1c-.439,1.639-.87,3.641-1.325,5.761-.971,4.521-2.073,9.644-3.536,12.258A.2.2,0,0,1,554.474,292.995Z" transform="translate(-546.761 -203.017)" fill="#e9d7d0"/>
          <path id="パス_90235" data-name="パス 90235" d="M571.607,265.921a.2.2,0,0,1-.2-.2c-.161-4.9-.318-17.12,1.686-24.853a.2.2,0,0,1,.393.1c-1.99,7.683-1.833,19.859-1.673,24.738a.2.2,0,0,1-.2.209Z" transform="translate(-555.144 -186.347)" fill="#e9d7d0"/>
          <path id="パス_90236" data-name="パス 90236" d="M577.37,264.348a.2.2,0,0,1-.2-.182c-.657-6.555.734-15.572,2.255-21.826a.2.2,0,0,1,.394.1c-1.513,6.221-2.9,15.185-2.245,21.689a.2.2,0,0,1-.181.222Z" transform="translate(-557.939 -187.068)" fill="#e9d7d0"/>
          <path id="パス_90237" data-name="パス 90237" d="M580.124,327.711a.2.2,0,0,1-.2-.2c-.021-2.147.131-5.559.28-8.858s.3-6.7.279-8.836a.2.2,0,0,1,.2-.2h0a.2.2,0,0,1,.2.2c.021,2.147-.132,5.559-.28,8.858s-.3,6.7-.279,8.836a.2.2,0,0,1-.2.2Z" transform="translate(-559.374 -220.226)" fill="#e9d7d0"/>
          <path id="パス_90238" data-name="パス 90238" d="M587.3,297.141a.2.2,0,0,1-.2-.181c-.613-5.655-.992-11.632-1.127-17.763-.1-4.626.11-9.326.316-13.871l.789-17.446a.19.19,0,0,1,.211-.194.2.2,0,0,1,.194.211l-.788,17.437c-.205,4.547-.417,9.239-.315,13.853.135,6.121.513,12.085,1.125,17.729a.2.2,0,0,1-.18.224Z" transform="translate(-562.338 -189.773)" fill="#e9d7d0"/>
          <path id="パス_90239" data-name="パス 90239" d="M596.439,297.5a.2.2,0,0,1-.2-.178l-.087-.7a.2.2,0,0,1,.076-.184c-.088-7.656-.226-15.973-.36-24.026-.139-8.357-.281-17-.369-24.892a.2.2,0,0,1,.2-.2.2.2,0,0,1,.205.2c.088,7.892.231,16.534.37,24.89s.282,17,.37,24.892a.2.2,0,0,1-.19.2Z" transform="translate(-567.035 -189.59)" fill="#e9d7d0"/>
          <path id="パス_90240" data-name="パス 90240" d="M605.958,297.705a.218.218,0,0,1-.142-.052.2.2,0,0,1-.03-.27c.032-.2.044-.916.049-1.2,0-.149,0-.258.007-.285.684-7.691.2-16.172-.262-24.374a187.817,187.817,0,0,1-.39-22.555.21.21,0,0,1,.216-.189.2.2,0,0,1,.189.217,187.459,187.459,0,0,0,.39,22.5c.466,8.216.947,16.712.261,24.433,0,.026,0,.123-.006.256-.025,1.42-.055,1.433-.2,1.5A.205.205,0,0,1,605.958,297.705Z" transform="translate(-571.698 -190.312)" fill="#e9d7d0"/>
          <path id="パス_90241" data-name="パス 90241" d="M615.693,296.725h-.007a.2.2,0,0,1-.2-.209c.044-1.3.17-3.291.316-5.594.3-4.757.715-11.271.64-15.911q-.019-1.19-.035-2.381c-.056-3.965-.113-8.065-.384-12.084-.065-.962-.142-1.925-.219-2.887a64.607,64.607,0,0,1-.27-10.358.207.207,0,0,1,.219-.186.2.2,0,0,1,.186.219,64.322,64.322,0,0,0,.27,10.293c.077.965.154,1.929.219,2.892.271,4.031.328,8.136.384,12.106q.017,1.191.035,2.381c.075,4.655-.339,11.18-.641,15.943-.145,2.3-.271,4.285-.315,5.581A.2.2,0,0,1,615.693,296.725Z" transform="translate(-576.833 -189.492)" fill="#e9d7d0"/>
          <path id="パス_90242" data-name="パス 90242" d="M623.192,294.9h-.009a.2.2,0,0,1-.194-.211c.437-9.8.572-19.733.4-29.529-.029-1.674-.011-3.529.008-5.493.05-5.365.108-11.446-.783-15.957a.2.2,0,1,1,.4-.078c.9,4.551.841,10.654.79,16.039-.019,1.961-.036,3.814-.008,5.482.169,9.8.033,19.748-.4,29.554A.2.2,0,0,1,623.192,294.9Z" transform="translate(-580.37 -187.699)" fill="#e9d7d0"/>
          <path id="パス_90243" data-name="パス 90243" d="M644.414,296.181a.2.2,0,0,1-.172-.1c-.977-1.575-1.213-5.137-1.37-7.494-.026-.4-.051-.764-.076-1.074-.344-4.262-.445-9.564-.551-15.178-.2-10.494-.4-21.345-2.214-26.957a.2.2,0,1,1,.386-.125c1.829,5.669,2.035,16.55,2.235,27.073.106,5.607.206,10.9.549,15.153.025.312.05.677.077,1.079.154,2.317.387,5.818,1.31,7.307a.2.2,0,0,1-.066.279A.2.2,0,0,1,644.414,296.181Z" transform="translate(-588.93 -188.51)" fill="#e9d7d0"/>
          <path id="パス_90244" data-name="パス 90244" d="M640.189,318.485a.2.2,0,0,1-.2-.171,167,167,0,0,1-1.251-29.035.212.212,0,0,1,.217-.188.2.2,0,0,1,.188.217,166.392,166.392,0,0,0,1.247,28.942.2.2,0,0,1-.168.232A.178.178,0,0,1,640.189,318.485Z" transform="translate(-588.205 -210.135)" fill="#e9d7d0"/>
          <path id="パス_90245" data-name="パス 90245" d="M650.261,302.035a.2.2,0,0,1-.2-.177c-.151-1.192-.421-2.791-.707-4.484a73.485,73.485,0,0,1-1.272-10.031c0-4.712-.725-23.515-1.281-29.912a.2.2,0,0,1,.185-.22.2.2,0,0,1,.22.184c.557,6.405,1.287,25.231,1.282,29.949a73.389,73.389,0,0,0,1.266,9.964c.287,1.7.557,3.3.71,4.5a.2.2,0,0,1-.176.227Z" transform="translate(-592.263 -194.457)" fill="#e9d7d0"/>
          <path id="パス_90246" data-name="パス 90246" d="M616.351,236.046a.2.2,0,0,1-.2-.156,13.889,13.889,0,0,0-1.241-3.285.2.2,0,1,1,.358-.191,14.334,14.334,0,0,1,1.277,3.381.2.2,0,0,1-.15.244A.191.191,0,0,1,616.351,236.046Z" transform="translate(-576.571 -182.211)" fill="#e9d7d0"/>
          <path id="パス_90247" data-name="パス 90247" d="M619.48,234.389a.189.189,0,0,1-.182-.138,10.926,10.926,0,0,0-1.237-2.818.188.188,0,1,1,.32-.2,11.339,11.339,0,0,1,1.28,2.915.189.189,0,0,1-.131.232A.194.194,0,0,1,619.48,234.389Z" transform="translate(-578.117 -181.64)" fill="#e9d7d0"/>
          <path id="パス_90248" data-name="パス 90248" d="M611.884,237.437a.2.2,0,0,1-.2-.193,12.12,12.12,0,0,0-.539-3,.2.2,0,1,1,.387-.121,12.51,12.51,0,0,1,.556,3.1.2.2,0,0,1-.192.213Z" transform="translate(-574.724 -183.033)" fill="#e9d7d0"/>
          <path id="パス_90249" data-name="パス 90249" d="M607.187,238.7a.2.2,0,0,1-.2-.2l-.1-2.886a.2.2,0,0,1,.2-.21.208.208,0,0,1,.21.2l.1,2.886a.2.2,0,0,1-.2.209Z" transform="translate(-572.634 -183.733)" fill="#e9d7d0"/>
          <path id="パス_90250" data-name="パス 90250" d="M601.623,238.984a.218.218,0,0,1-.037,0,.2.2,0,0,1-.164-.236,11.668,11.668,0,0,0,.14-3.117.2.2,0,0,1,.4-.036,12.093,12.093,0,0,1-.144,3.225A.2.2,0,0,1,601.623,238.984Z" transform="translate(-569.947 -183.735)" fill="#e9d7d0"/>
          <path id="パス_90251" data-name="パス 90251" d="M596.21,237.824a.2.2,0,0,1-.089-.02.2.2,0,0,1-.093-.271,7.3,7.3,0,0,0,.738-3.206.2.2,0,0,1,.2-.2h0a.2.2,0,0,1,.2.2,7.7,7.7,0,0,1-.779,3.385A.2.2,0,0,1,596.21,237.824Z" transform="translate(-567.286 -183.104)" fill="#e9d7d0"/>
          <path id="パス_90252" data-name="パス 90252" d="M591.75,236.08a.2.2,0,0,1-.144-.346,3.172,3.172,0,0,0,.907-2.486.2.2,0,0,1,.4-.035,3.581,3.581,0,0,1-1.024,2.808A.2.2,0,0,1,591.75,236.08Z" transform="translate(-565.092 -182.564)" fill="#e9d7d0"/>
          <path id="パス_90253" data-name="パス 90253" d="M587.219,234.847a.2.2,0,0,1-.183-.29c.448-.944.941-1.88,1.466-2.782a.2.2,0,1,1,.35.2c-.519.891-1.007,1.817-1.45,2.751A.2.2,0,0,1,587.219,234.847Z" transform="translate(-562.864 -181.9)" fill="#e9d7d0"/>
          <path id="パス_90254" data-name="パス 90254" d="M583.79,233.12h-.018a.2.2,0,0,1-.185-.22c.115-1.335,1.239-3.633,2.233-3.723a.2.2,0,1,1,.036.4c-.654.059-1.751,2.034-1.865,3.354A.2.2,0,0,1,583.79,233.12Z" transform="translate(-561.178 -180.671)" fill="#e9d7d0"/>
          <path id="パス_90255" data-name="パス 90255" d="M629.294,275.934a.2.2,0,0,1-.2-.179,54.478,54.478,0,0,1,.478-12.594c.248-2.14.505-4.354.62-6.53.18-3.4-.626-8.292-1.274-12.224-.161-.973-.312-1.891-.437-2.721a.2.2,0,1,1,.4-.061c.126.828.277,1.745.437,2.716.651,3.951,1.462,8.869,1.279,12.312-.115,2.188-.373,4.408-.622,6.555a54.2,54.2,0,0,0-.479,12.5.2.2,0,0,1-.177.226Z" transform="translate(-583.253 -186.708)" fill="#e9d7d0"/>
          <path id="パス_90256" data-name="パス 90256" d="M574.281,306.714a.373.373,0,0,1-.3-.6l8.1-10.616a.373.373,0,1,1,.593.452l-8.1,10.616A.372.372,0,0,1,574.281,306.714Z" transform="translate(-556.418 -213.214)" fill="#cab0a1"/>
          <g id="グループ_15836" data-name="グループ 15836" transform="translate(20.724 50.642)">
            <path id="パス_90257" data-name="パス 90257" d="M590.186,271.339a.388.388,0,0,1-.359-.24c-6.162-14.876-9.518-37.051-9.551-37.273a.388.388,0,0,1,.768-.115c.033.222,3.376,22.3,9.5,37.091a.389.389,0,0,1-.358.537Z" transform="translate(-580.271 -233.38)" fill="#1a2847"/>
            <path id="パス_90258" data-name="パス 90258" d="M603.075,272.19a.381.381,0,0,1-.146-.029.388.388,0,0,1-.212-.506,200,200,0,0,0,10.733-36.642.388.388,0,1,1,.765.132,200.847,200.847,0,0,1-10.78,36.8A.388.388,0,0,1,603.075,272.19Z" transform="translate(-591.294 -234.024)" fill="#1a2847"/>
            <rect id="長方形_30460" data-name="長方形 30460" width="14.643" height="9.907" transform="matrix(1, -0.024, 0.024, 1, 3.799, 37.713)" fill="#1a2847"/>
            <rect id="長方形_30461" data-name="長方形 30461" width="12.178" height="7.929" transform="matrix(1, -0.024, 0.024, 1, 5.055, 38.672)" fill="#fff"/>
            <rect id="長方形_30462" data-name="長方形 30462" width="3.91" height="5.755" transform="matrix(1, -0.024, 0.024, 1, 6.046, 39.842)" fill="#e2e2e3"/>
            <path id="パス_90259" data-name="パス 90259" d="M602.6,313.476a.194.194,0,0,1-.005-.388l4.2-.1h.005a.194.194,0,0,1,0,.388l-4.2.1Z" transform="translate(-591.155 -272.527)" fill="#9fa0a0"/>
            <path id="パス_90260" data-name="パス 90260" d="M602.673,316.6a.194.194,0,0,1,0-.388l4.2-.1h0a.194.194,0,0,1,.005.388l-4.2.1Z" transform="translate(-591.192 -274.062)" fill="#9fa0a0"/>
            <rect id="長方形_30463" data-name="長方形 30463" width="1.202" height="1.622" transform="translate(14.285 43.459) rotate(-1.374)" fill="#e2e2e3"/>
          </g>
          <path id="パス_90261" data-name="パス 90261" d="M583.3,261.6a17.4,17.4,0,0,1,.561-2.368,5.921,5.921,0,0,0,.3-2.723c-.076-.516-.694-1.9-1.33-1.029a1.4,1.4,0,0,0-.2.552,35.855,35.855,0,0,1-1.605,5.449,43.141,43.141,0,0,0-1.875,4.567,15.632,15.632,0,0,0-.2,2.6,3.93,3.93,0,0,1-.857,1.958,12.775,12.775,0,0,1-3.09,3.748,3.182,3.182,0,0,0-.7,1.209c-.073.714,1.891,5.487,4.2,3.18,2.735-2.735,3.879-4.381,4.58-4.77,1.145-.636,3.162-1.9,3.244-1.971,3.562-3.181,6.89-6.112,10.265-9.7.51-.543,1.06-1.232.861-1.95-1.036-.887-4.01,3.018-6.091,4.5,1.031-1.274,5.289-5.365,5.61-5.89a.829.829,0,0,0-.127-.856c-.382-.238-1.01.011-1.589.476-.782.628-4.269,3.9-5.516,4.7,1.213-1.7,7.158-7.446,6.517-8.9a.482.482,0,0,0-.612-.306,5.263,5.263,0,0,0-1.473.693s.263-1.05-.512-.877a2.878,2.878,0,0,0-.957.387C589.459,256.357,584.094,261.018,583.3,261.6Z" transform="translate(-556.613 -192.807)" fill="#edbf98"/>
          <path id="パス_90262" data-name="パス 90262" d="M545.148,306.733l17.783-21.823,6.053,5.587L552.4,311.249Z" transform="translate(-542.275 -208.078)" fill="#d9c3af"/>
          <path id="パス_90263" data-name="パス 90263" d="M600.355,262.76a.373.373,0,0,1-.267-.633l6.037-6.212a.373.373,0,0,1,.535.519l-6.036,6.212A.372.372,0,0,1,600.355,262.76Z" transform="translate(-569.241 -193.765)" fill="#cb6362"/>
          <path id="パス_90264" data-name="パス 90264" d="M546.064,304.735a.373.373,0,0,1-.273-.627l17.228-18.531a.373.373,0,1,1,.546.507l-17.228,18.531A.37.37,0,0,1,546.064,304.735Z" transform="translate(-542.542 -208.348)" fill="#cab0a1"/>
          <path id="パス_90265" data-name="パス 90265" d="M542.029,312.643a.2.2,0,0,1-.072-.014.2.2,0,0,1-.117-.262,14.594,14.594,0,0,1,3.97-5.062l.135-.128a195.993,195.993,0,0,0,16.312-17.827.2.2,0,1,1,.318.253,196.563,196.563,0,0,1-16.35,17.868l-.136.129a14.3,14.3,0,0,0-3.871,4.913A.2.2,0,0,1,542.029,312.643Z" transform="translate(-540.642 -210.225)" fill="#e9d7d0"/>
          <path id="パス_90266" data-name="パス 90266" d="M546.89,315.379a.2.2,0,0,1-.127-.045.2.2,0,0,1-.031-.285c5.96-7.389,13.9-16.464,19.506-22.775a.2.2,0,0,1,.3.269c-5.606,6.308-13.539,15.377-19.493,22.76A.2.2,0,0,1,546.89,315.379Z" transform="translate(-543.032 -211.667)" fill="#e9d7d0"/>
          <path id="パス_90267" data-name="パス 90267" d="M550.99,318.284a.2.2,0,0,1-.148-.341c2.836-3.057,5.946-7.134,8.955-11.077,3.177-4.165,6.462-8.471,9.486-11.666a.2.2,0,1,1,.295.279c-3.009,3.179-6.288,7.477-9.458,11.633-3.014,3.951-6.13,8.036-8.98,11.107A.2.2,0,0,1,550.99,318.284Z" transform="translate(-545.048 -213.108)" fill="#e9d7d0"/>
        </g>
      </g>
      <g id="グループ_1786" data-name="グループ 1786" transform="matrix(-0.914, 0.407, -0.407, -0.914, 34.036, 83.342)">
        <path id="パス_63449" data-name="パス 63449" d="M0,0S20.381,3.947,16.526,7.138C13.382,9.739,0,0,0,0Z" transform="translate(0.628 0.627)" fill="#fff"/>
        <path id="パス_63450" data-name="パス 63450" d="M.259,1.134A.627.627,0,0,1,.746.012c.041.008,4.131.8,8.26,1.951,7.757,2.156,8.974,3.656,9.214,4.6a1.594,1.594,0,0,1-.667,1.688,2.9,2.9,0,0,1-1.9.585h0C10.892,8.834.69,1.449.259,1.134Zm15.4,6.446a1.71,1.71,0,0,0,1.1-.3c.293-.243.261-.37.25-.412-.063-.248-.763-1.594-8.328-3.7C6.856,2.667,5.044,2.23,3.589,1.9,6.932,4.108,12.667,7.58,15.654,7.58Z" transform="translate(0 0)" fill="#0d0002"/>
      </g>
      <g id="グループ_1787" data-name="グループ 1787" transform="matrix(-0.914, 0.407, -0.407, -0.914, 25.728, 77.179)">
        <path id="パス_63451" data-name="パス 63451" d="M0,0S17.245,11.555,12.453,13C8.546,14.174,0,0,0,0Z" transform="translate(0.627 0.627)" fill="#fff"/>
        <path id="パス_63452" data-name="パス 63452" d="M.09.951A.627.627,0,0,1,.976.106c.035.023,3.494,2.346,6.852,5.007,6.309,5,6.847,6.855,6.7,7.815a1.6,1.6,0,0,1-1.27,1.3,2.333,2.333,0,0,1-.67.1h0C8.276,14.321.915,2.319.09.951Zm12.5,12.116a1.076,1.076,0,0,0,.308-.043c.365-.11.384-.239.39-.282.038-.253-.083-1.765-6.236-6.642-1.491-1.182-3-2.3-4.218-3.168C5.948,7.606,10.322,13.067,12.592,13.067Z" transform="translate(0 0)" fill="#0d0002"/>
      </g>
      <g id="グループ_1788" data-name="グループ 1788" transform="matrix(-0.914, 0.407, -0.407, -0.914, 35.32, 70.586)">
        <path id="パス_63453" data-name="パス 63453" d="M0,0S17.245,11.555,12.453,13C8.546,14.175,0,0,0,0Z" transform="translate(0.627 0.627)" fill="#fff"/>
        <path id="パス_63454" data-name="パス 63454" d="M.09.951A.627.627,0,0,1,.975.106C1.01.129,4.47,2.451,7.827,5.113c6.309,5,6.848,6.856,6.7,7.817a1.6,1.6,0,0,1-1.271,1.3,2.3,2.3,0,0,1-.668.1h0C8.276,14.323.915,2.319.09.951Zm12.5,12.118a1.087,1.087,0,0,0,.308-.043c.364-.11.384-.241.39-.283.038-.254-.084-1.766-6.237-6.643-1.491-1.182-3-2.3-4.218-3.168C5.948,7.607,10.321,13.069,12.592,13.069Z" transform="translate(0 0)" fill="#0d0002"/>
      </g>
    </g>
  </g>
</svg>
