<svg xmlns="http://www.w3.org/2000/svg" width="315" height="94" viewBox="0 0 315 94"><g transform="translate(-253 -1278)"><g transform="translate(253 1300)" fill="#f7f3e5"><path d="M 279 70.5 L 36 70.5 C 31.34187507629395 70.5 26.82387542724609 69.58804321289063 22.57150077819824 67.78941345214844 C 18.46345901489258 66.05187225341797 14.77370834350586 63.56408309936523 11.60483360290527 60.39516830444336 C 8.435916900634766 57.22629165649414 5.948124885559082 53.53654098510742 4.210583209991455 49.42850112915039 C 2.41195821762085 45.17612457275391 1.5 40.65812683105469 1.5 36 C 1.5 31.34187507629395 2.41195821762085 26.82387542724609 4.210583209991455 22.57150077819824 C 5.948124885559082 18.46345901489258 8.435916900634766 14.77370834350586 11.60483360290527 11.60483360290527 C 14.77370834350586 8.435916900634766 18.46345901489258 5.948124885559082 22.57150077819824 4.210583209991455 C 26.82387542724609 2.41195821762085 31.34187507629395 1.5 36 1.5 L 279 1.5 C 283.6581115722656 1.5 288.1761169433594 2.41195821762085 292.4284973144531 4.210583209991455 C 296.5365295410156 5.948124885559082 300.2262878417969 8.435916900634766 303.3951721191406 11.60483360290527 C 306.5640869140625 14.77370834350586 309.0518798828125 18.46345901489258 310.7894287109375 22.57150077819824 C 312.5880432128906 26.82387542724609 313.5 31.34187507629395 313.5 36 C 313.5 40.65812683105469 312.5880432128906 45.17612457275391 310.7894287109375 49.42850112915039 C 309.0518798828125 53.53654098510742 306.5640869140625 57.22629165649414 303.3951721191406 60.39516830444336 C 300.2262878417969 63.56408309936523 296.5365295410156 66.05187225341797 292.4284973144531 67.78941345214844 C 288.1761169433594 69.58804321289063 283.6581115722656 70.5 279 70.5 Z" stroke="none"/><path d="M 36 3 C 31.543701171875 3 27.2222900390625 3.872085571289063 23.15582275390625 5.592086791992188 C 19.22659301757813 7.253997802734375 15.69711303710938 9.633834838867188 12.66546630859375 12.66545867919922 C 9.633819580078125 15.69712448120117 7.253997802734375 19.22658157348633 5.592071533203125 23.15583419799805 C 3.8720703125 27.2222900390625 3 31.54370880126953 3 36 C 3 40.45629119873047 3.8720703125 44.7777099609375 5.592071533203125 48.84416580200195 C 7.253997802734375 52.77341461181641 9.633819580078125 56.30287551879883 12.66546630859375 59.33454132080078 C 15.69711303710938 62.36616516113281 19.22659301757813 64.74600219726563 23.15582275390625 66.40791320800781 C 27.2222900390625 68.12791442871094 31.543701171875 69 36 69 L 279 69 C 283.456298828125 69 287.7777099609375 68.12791442871094 291.8441772460938 66.40791320800781 C 295.7734069824219 64.74600219726563 299.3028869628906 62.36616516113281 302.3345336914063 59.33454132080078 C 305.3661804199219 56.30287551879883 307.7460021972656 52.77341461181641 309.4079284667969 48.84416580200195 C 311.1279296875 44.7777099609375 312 40.45629119873047 312 36 C 312 31.54370880126953 311.1279296875 27.2222900390625 309.4079284667969 23.15583419799805 C 307.7460021972656 19.22658157348633 305.3661804199219 15.69712448120117 302.3345336914063 12.66545867919922 C 299.3028869628906 9.633834838867188 295.7734069824219 7.253997802734375 291.8441772460938 5.592086791992188 C 287.7777099609375 3.872085571289063 283.456298828125 3 279 3 L 36 3 M 36 0 L 279 0 C 298.8822631835938 0 315 16.11774826049805 315 36 C 315 55.88224792480469 298.8822631835938 72 279 72 L 36 72 C 16.11773681640625 72 0 55.88224792480469 0 36 C 0 16.11774826049805 16.11773681640625 0 36 0 Z" stroke="none" fill="#eb6d4e"/></g><g transform="translate(313.846 1310)"><path d="M0,0H63V5H0Z" transform="translate(93 15)" fill="#ffd800"/><path d="M0,0H52V5H0Z" transform="translate(161 15)" fill="#ffd800"/><path d="M2.47-4.225a8.726,8.726,0,0,0-.364,2.119C2.106-.312,3.5.663,6.084.663A18.042,18.042,0,0,0,9.555.351l.039-1.7a14.234,14.234,0,0,1-3.51.377c-1.82,0-2.3-.637-2.3-1.573a5.777,5.777,0,0,1,.351-1.534Zm8.4-5.057a18.833,18.833,0,0,1-2.522.65c-.286-.676-.533-1.287-.754-1.963l-1.82.351a9.993,9.993,0,0,1,.637,1.235c.078.195.169.4.273.611a21.934,21.934,0,0,1-4.81-.13l.052,1.651a28.924,28.924,0,0,0,5.421,0c.377.806.819,1.7,1.131,2.353-.39-.026-1.092-.1-1.521-.143L6.812-3.341c.949.117,2.223.325,2.925.468l.91-.975C10.088-4.875,9.477-6.1,8.983-7.137c.78-.156,1.534-.338,2.184-.52ZM18.46-4.225A8.726,8.726,0,0,0,18.1-2.106C18.1-.312,19.487.663,22.074.663A18.042,18.042,0,0,0,25.545.351l.039-1.7a14.234,14.234,0,0,1-3.51.377c-1.82,0-2.3-.637-2.3-1.573a5.777,5.777,0,0,1,.351-1.534Zm8.4-5.057a18.833,18.833,0,0,1-2.522.65c-.286-.676-.533-1.287-.754-1.963l-1.82.351A9.993,9.993,0,0,1,22.4-9.009c.078.195.169.4.273.611a21.934,21.934,0,0,1-4.81-.13l.052,1.651a28.924,28.924,0,0,0,5.421,0c.377.806.819,1.7,1.131,2.353-.39-.026-1.092-.1-1.521-.143L22.8-3.341c.949.117,2.223.325,2.925.468l.91-.975c-.559-1.027-1.17-2.249-1.664-3.289.78-.156,1.534-.338,2.184-.52Zm7.033,3.757.663,1.69a17.35,17.35,0,0,1,5.161-1.534,1.66,1.66,0,0,1,1.846,1.638c0,1.755-2.184,2.522-5.109,2.6l.676,1.6c4.1-.247,6.136-1.846,6.136-4.173a3.076,3.076,0,0,0-3.393-3.159,18.474,18.474,0,0,0-4.615,1A11,11,0,0,1,33.891-5.525ZM57.6-9.061a8.889,8.889,0,0,1-1.183.78c-.611.338-1.729.91-2.782,1.521a30.183,30.183,0,0,1-1.612-3.562L50.4-9.659c.585,1.365,1.209,2.73,1.807,3.835a4.29,4.29,0,0,0-2.132,3.393c0,2.21,1.937,2.925,4.5,2.925A25.179,25.179,0,0,0,58.708.182l.026-1.859a21.532,21.532,0,0,1-4.212.468c-1.781,0-2.678-.494-2.678-1.417,0-.9.715-1.638,1.794-2.34a39.427,39.427,0,0,1,3.588-1.911c.468-.234.884-.455,1.274-.689Z" transform="translate(94 16)" fill="#ed4c24"/><path d="M10.985-7.566c0-.377.026-.9.039-1.2-.221.013-.754.026-1.131.026H9.828l.9-.377a15.911,15.911,0,0,0-1.014-1.742l-1.066.442a11.721,11.721,0,0,1,.962,1.677H3.341c-.455,0-1.118-.026-1.612-.078v1.807c.364-.026,1.066-.052,1.612-.052h5.85v5.382H3.185c-.585,0-1.17-.039-1.612-.078V.1C2,.065,2.73.026,3.237.026H9.178c0,.234,0,.468-.013.676H11.05c-.039-.39-.065-1.079-.065-1.534Zm-.6-3.263a15.409,15.409,0,0,1,1.04,1.742l1.079-.468c-.247-.455-.715-1.248-1.04-1.716ZM14.2-3.978c.481-.039,1.352-.065,2.093-.065H23.27c.546,0,1.209.052,1.521.065V-6.019c-.338.026-.923.078-1.521.078H16.289c-.676,0-1.625-.039-2.093-.078ZM36.985-7.566c0-.377.026-.9.039-1.2-.221.013-.754.026-1.131.026h-.065l.9-.377a15.91,15.91,0,0,0-1.014-1.742l-1.066.442a11.721,11.721,0,0,1,.962,1.677H29.341c-.455,0-1.118-.026-1.612-.078v1.807c.364-.026,1.066-.052,1.612-.052h5.85v5.382H29.185c-.585,0-1.17-.039-1.612-.078V.1C28,.065,28.73.026,29.237.026h5.941c0,.234,0,.468-.013.676H37.05c-.039-.39-.065-1.079-.065-1.534Zm-.6-3.263a15.41,15.41,0,0,1,1.04,1.742l1.079-.468c-.247-.455-.715-1.248-1.04-1.716ZM40.2-3.978c.481-.039,1.352-.065,2.093-.065H49.27c.546,0,1.209.052,1.521.065V-6.019c-.338.026-.923.078-1.521.078H42.289c-.676,0-1.625-.039-2.093-.078Z" transform="translate(161 16)" fill="#ed4c24"/><path d="M8.794.378q-7.75,0-7.75-10.883,0-5.646,2.1-8.605a6.985,6.985,0,0,1,6.077-2.959q7.568,0,7.568,11.065,0,5.51-2.066,8.446A6.806,6.806,0,0,1,8.794.378Zm.212-18.8q-3.1,0-3.1,7.8,0,7.341,3.042,7.341,2.967,0,2.967-7.568T9.006-18.421ZM30.735-22.19V0H25.967V-16.8a5.71,5.71,0,0,1-.931.658,9.61,9.61,0,0,1-1.143.56,10.2,10.2,0,0,1-1.256.424,9.176,9.176,0,0,1-1.287.25v-4.026a19.89,19.89,0,0,0,3.512-1.393,19.985,19.985,0,0,0,2.982-1.862ZM42.776-3.966h9.2V0H37.538V-1.635a7.609,7.609,0,0,1,.56-2.99A9.92,9.92,0,0,1,39.506-7,12.211,12.211,0,0,1,41.36-8.863q1.007-.81,1.915-1.461.954-.681,1.673-1.3a9.531,9.531,0,0,0,1.211-1.234,4.69,4.69,0,0,0,.734-1.241,3.691,3.691,0,0,0,.242-1.34,2.692,2.692,0,0,0-.787-2.1,3.5,3.5,0,0,0-2.407-.711,8.084,8.084,0,0,0-5.358,2.225v-4.208a11.5,11.5,0,0,1,6.388-1.832,9.434,9.434,0,0,1,2.959.431A6.261,6.261,0,0,1,50.147-20.4a5.262,5.262,0,0,1,1.385,1.945,6.564,6.564,0,0,1,.477,2.551,7.192,7.192,0,0,1-.462,2.664,8.186,8.186,0,0,1-1.226,2.119,11.122,11.122,0,0,1-1.763,1.748q-1,.795-2.074,1.536-.727.515-1.4,1.022a13.274,13.274,0,0,0-1.188,1,5.423,5.423,0,0,0-.817.961A1.659,1.659,0,0,0,42.776-3.966ZM63.218.378q-7.75,0-7.75-10.883,0-5.646,2.1-8.605a6.985,6.985,0,0,1,6.077-2.959q7.568,0,7.568,11.065,0,5.51-2.066,8.446A6.806,6.806,0,0,1,63.218.378Zm.212-18.8q-3.1,0-3.1,7.8,0,7.341,3.042,7.341,2.967,0,2.967-7.568T63.43-18.421ZM83.009-6.6h-8.28V-9.945h8.28Zm4.17,5.888V-4.874a8.4,8.4,0,0,0,5.086,1.589,4.579,4.579,0,0,0,2.853-.787,2.613,2.613,0,0,0,1.022-2.195,2.5,2.5,0,0,0-1.264-2.24A6.548,6.548,0,0,0,91.4-9.294H89.388v-3.663H91.25q4.238,0,4.238-2.815,0-2.649-3.254-2.649A7.42,7.42,0,0,0,88-17.014v-3.905a11.705,11.705,0,0,1,5.328-1.15,8.041,8.041,0,0,1,5.184,1.5,4.769,4.769,0,0,1,1.854,3.89q0,4.253-4.314,5.328v.076A5.865,5.865,0,0,1,99.681-9.6a4.716,4.716,0,0,1,1.332,3.4,5.824,5.824,0,0,1-2.225,4.813A9.621,9.621,0,0,1,92.643.378,11.877,11.877,0,0,1,87.178-.711Zm18.141,0V-4.874a8.4,8.4,0,0,0,5.086,1.589,4.579,4.579,0,0,0,2.853-.787,2.613,2.613,0,0,0,1.022-2.195,2.5,2.5,0,0,0-1.264-2.24,6.548,6.548,0,0,0-3.474-.787h-2.013v-3.663h1.862q4.238,0,4.238-2.815,0-2.649-3.254-2.649a7.42,7.42,0,0,0-4.238,1.408v-3.905a11.705,11.705,0,0,1,5.328-1.15,8.041,8.041,0,0,1,5.184,1.5,4.769,4.769,0,0,1,1.854,3.89q0,4.253-4.314,5.328v.076A5.865,5.865,0,0,1,117.822-9.6a4.716,4.716,0,0,1,1.332,3.4,5.824,5.824,0,0,1-2.225,4.813A9.621,9.621,0,0,1,110.784.378,11.877,11.877,0,0,1,105.319-.711ZM134.283-22.19V0h-4.768V-16.8a5.711,5.711,0,0,1-.931.658,9.61,9.61,0,0,1-1.143.56,10.2,10.2,0,0,1-1.256.424,9.176,9.176,0,0,1-1.287.25v-4.026a19.889,19.889,0,0,0,3.512-1.393,19.985,19.985,0,0,0,2.982-1.862ZM148.625.378q-7.75,0-7.75-10.883,0-5.646,2.1-8.605a6.985,6.985,0,0,1,6.077-2.959q7.568,0,7.568,11.065,0,5.51-2.066,8.446A6.806,6.806,0,0,1,148.625.378Zm.212-18.8q-3.1,0-3.1,7.8,0,7.341,3.042,7.341,2.967,0,2.967-7.568T148.837-18.421ZM168.416-6.6h-8.28V-9.945h8.28Zm4.548,6.04V-4.647A8.923,8.923,0,0,0,177.7-3.285a4.45,4.45,0,0,0,2.959-.9,3.032,3.032,0,0,0,1.067-2.445q0-3.224-4.556-3.224A33.738,33.738,0,0,0,173.3-9.6l.817-12.109H185.6V-17.8h-7.841l-.3,4.344q1.166-.091,2.013-.091a7.4,7.4,0,0,1,5.237,1.756A6.131,6.131,0,0,1,186.6-7.069,6.971,6.971,0,0,1,184.347-1.7,8.666,8.666,0,0,1,178.232.378,13.086,13.086,0,0,1,172.964-.56Zm18.141,0V-4.647a8.923,8.923,0,0,0,4.738,1.362,4.45,4.45,0,0,0,2.959-.9,3.032,3.032,0,0,0,1.067-2.445q0-3.224-4.556-3.224a33.738,33.738,0,0,0-3.875.257l.817-12.109h11.489V-17.8H195.9l-.3,4.344q1.166-.091,2.013-.091a7.4,7.4,0,0,1,5.237,1.756,6.131,6.131,0,0,1,1.892,4.723A6.971,6.971,0,0,1,202.488-1.7,8.666,8.666,0,0,1,196.373.378,13.086,13.086,0,0,1,191.105-.56Z" transform="translate(9 47)" fill="#ed4c24"/></g><path d="M9.5,0A9.5,9.5,0,1,1,0,9.5,9.5,9.5,0,0,1,9.5,0Z" transform="translate(535.018 1328)" fill="#eb6d4e"/><g transform="translate(542.801 1333.494)"><path d="M121.793,3.621,118.249.087a.3.3,0,0,0-.419.421l3.333,3.324-3.333,3.324a.3.3,0,0,0,.42.421l3.544-3.534a.3.3,0,0,0,0-.421Z" transform="translate(-117.742 0)" fill="#fff" stroke="#fff" stroke-linecap="round" stroke-width="0.5"/></g><g transform="translate(273.355 1318)"><path d="M19.805,0A19.805,19.805,0,1,1,0,19.805,19.805,19.805,0,0,1,19.805,0Z" fill="#ed4c24"/><path d="M21.523,16.272l-3.091-3.094a2.054,2.054,0,0,0-3.422.773,2.1,2.1,0,0,1-2.428,1.325c-2.208-.553-5.188-3.426-5.741-5.746A2,2,0,0,1,8.165,7.1a2.058,2.058,0,0,0,.772-3.425L5.846.58a2.2,2.2,0,0,0-2.98,0l-2.1,2.1c-2.1,2.209.222,8.065,5.411,13.259s11.039,7.625,13.246,5.416l2.1-2.1A2.208,2.208,0,0,0,21.523,16.272Z" transform="translate(11.714 6.939) rotate(11)" fill="#fff"/></g><path d="M-26.532-5.621v.594H-27.8v-.594Zm2.464.594h-1.3v-.594h1.3Zm-1.3,1.529v-.616h1.3V-3.5Zm-2.431,0v-.616h1.265V-3.5Zm0,.946h1.265V-.946h1.166V-2.552h1.3v.506c0,.11-.033.154-.165.165-.11,0-.5,0-.836-.011A3.577,3.577,0,0,1-24.75-.869a3.31,3.31,0,0,0,1.485-.187c.352-.176.451-.451.451-.979V-6.567h-1.331c-.187-.11-.418-.22-.66-.341a12.52,12.52,0,0,0,1.958-1.485l-.781-.627-.253.066H-28.93v.99h3.916a10.163,10.163,0,0,1-.88.583c-.451-.2-.913-.374-1.3-.517l-.847.7c.451.176.979.4,1.474.627h-2.464V-.9H-27.8Zm-1.837-4.84a9.422,9.422,0,0,0-1.914-1.694l-.9.836a8.929,8.929,0,0,1,1.837,1.793Zm-.33,2.343h-2.651v1.2h1.4v2.4a15.141,15.141,0,0,1-1.54,1l.6,1.309c.616-.462,1.133-.891,1.639-1.32A3.412,3.412,0,0,0-27.665.759c1.342.055,3.674.033,5.027-.033A5.405,5.405,0,0,1-22.231-.55c-1.507.121-4.114.154-5.423.1a2.511,2.511,0,0,1-2.31-1.089Zm12.155-3.927h-3.245v.99h3.245Zm-1.067,7.205V-.517h-1.177V-1.771Zm1.111-1.034h-3.388V.946h1.1V.517h2.288Zm-3.355-.561h3.3v-.99h-3.3Zm3.3-2.519h-3.3v.979h3.3Zm-3.817-.539h4.18V-7.458h-4.18Zm8.569,5.676h-2.5v-1.54h2.5Zm1.749-4.169V-6.138h-2.365V-7.667A16.728,16.728,0,0,0-11.6-8.118l-.924-1.089a24.044,24.044,0,0,1-4.664.8,4.281,4.281,0,0,1,.352,1.1c.583-.044,1.21-.1,1.826-.176v1.342H-17.38v1.221h2.365v1.452h-1.793V.957h1.243V.429h2.5V.913h1.309V-3.465h-1.925V-4.917Zm8.228-2.475A8.266,8.266,0,0,0-4.84-8.723l-.627.88a8.85,8.85,0,0,1,1.705,1.43ZM-5.973-5.071a9.288,9.288,0,0,1,1.8,1.364l.66-1.045A9.663,9.663,0,0,0-5.357-6.017Zm-.99-3.641a18.708,18.708,0,0,1-.605,2.574l.825.231c.275-.638.594-1.683.88-2.563ZM-9.1-6.138a11.029,11.029,0,0,0-.561-2.519l-.913.242a10.9,10.9,0,0,1,.495,2.53Zm3,3.619c-.231-.308-1.276-1.54-1.595-1.859v-.077h1.628V-5.676H-7.689v-3.6H-8.9v3.6H-10.56v1.221h1.254a10.183,10.183,0,0,1-1.452,2.849,7.773,7.773,0,0,1,.594,1.353A11.289,11.289,0,0,0-8.9-2.959V.924h1.21V-2.937A14.694,14.694,0,0,1-6.9-1.507Zm5.819.253-.2-1.221-1.122.209v-6.05H-2.827v6.27l-3.267.583.2,1.221,3.069-.55V.946h1.232v-2.97Zm8.1-3.344H6.985V-7.018h.836Zm0,2.563H6.985v-1.4h.836ZM3.2-4.444h.792v1.4H3.2Zm2.695,0v1.4H5.082v-1.4ZM5.082-5.61V-7.018H5.9V-5.61ZM3.2-7.018h.792V-5.61H3.2ZM2.046-5.61H.572v1.166H2.046v1.4H.737v1.166H10.3V-3.047H9.02v-1.4h1.43V-5.61H9.02V-7.018h1.034V-8.173h-6.6a5.922,5.922,0,0,0,.429-.77L2.607-9.317A6.764,6.764,0,0,1,.33-6.688,12.114,12.114,0,0,1,1.4-5.83,7.559,7.559,0,0,0,2.046-6.4ZM1.705.968a6.02,6.02,0,0,0,1.254-2.31L1.694-1.65A5.42,5.42,0,0,1,.462.462ZM3.663-1.265a13.963,13.963,0,0,1,.209,2.1L5.148.649a14.244,14.244,0,0,0-.264-2.057Zm2.178.022A11.722,11.722,0,0,1,6.4.847L7.711.594a12.258,12.258,0,0,0-.638-2.046ZM8.019-1.3A14.168,14.168,0,0,1,9.317.957L10.659.506a14.92,14.92,0,0,0-1.386-2.2Zm10.89-6.094A8.266,8.266,0,0,0,17.16-8.723l-.627.88a8.85,8.85,0,0,1,1.7,1.43ZM16.027-5.071a9.288,9.288,0,0,1,1.8,1.364l.66-1.045a9.663,9.663,0,0,0-1.848-1.265Zm-.99-3.641a18.709,18.709,0,0,1-.605,2.574l.825.231c.275-.638.594-1.683.88-2.563ZM12.9-6.138a11.029,11.029,0,0,0-.561-2.519l-.913.242a10.9,10.9,0,0,1,.495,2.53Zm3,3.619c-.231-.308-1.276-1.54-1.595-1.859v-.077h1.628V-5.676H14.311v-3.6H13.1v3.6H11.44v1.221h1.254a10.183,10.183,0,0,1-1.452,2.849,7.773,7.773,0,0,1,.594,1.353A11.289,11.289,0,0,0,13.1-2.959V.924h1.21V-2.937a14.7,14.7,0,0,1,.792,1.43Zm5.819.253-.2-1.221-1.122.209v-6.05H19.173v6.27l-3.267.583.2,1.221,3.069-.55V.946h1.232v-2.97Zm5.214-.561h1.133l.385-3.762.055-1.639H26.5l.044,1.639ZM27.5.1A1.076,1.076,0,0,0,28.644-.979,1.091,1.091,0,0,0,27.5-2.068,1.091,1.091,0,0,0,26.356-.979,1.076,1.076,0,0,0,27.5.1Z" transform="translate(359.242 1327)" fill="#ed4c24"/><path d="M5,0H249a5,5,0,0,1,5,5V25H0V5A5,5,0,0,1,5,0Z" transform="translate(283 1278)" fill="#eb6d4e"/><path d="M9.4-4.394H1.95v1.469H8.619C8.125-1.794,7.462-.4,6.89.715l1.638.455C9.334-.481,10.27-2.509,10.907-4.1L9.672-4.459ZM4.16-7.059A14.763,14.763,0,0,0,6.448-9.581,15.493,15.493,0,0,0,8.814-7.059ZM5.6-11.089A15.472,15.472,0,0,1,.338-6.175,6.071,6.071,0,0,1,1.313-4.94,17.621,17.621,0,0,0,3.718-6.669v1.04H9.23V-6.708a18.516,18.516,0,0,0,2.457,1.742A7.348,7.348,0,0,1,12.7-6.318,15.054,15.054,0,0,1,7.15-11.089ZM18.239-4.277a.961.961,0,0,1,.988-1.014.918.918,0,0,1,.845.455c.169,1.118-.312,1.521-.845,1.521A.957.957,0,0,1,18.239-4.277ZM25.1-8.944c-.676-.013-2.431,0-3.731,0,0-.156.013-.286.013-.39.013-.208.052-.9.091-1.1H19.6a8.711,8.711,0,0,1,.117,1.118,3.3,3.3,0,0,1,.013.39c-1.729.026-4.069.091-5.538.091l.039,1.56c1.586-.091,3.575-.169,5.525-.2l.013.858a3.089,3.089,0,0,0-.507-.039,2.424,2.424,0,0,0-2.574,2.4,2.268,2.268,0,0,0,2.223,2.366A2.78,2.78,0,0,0,19.5-1.95,5.885,5.885,0,0,1,16.354-.481L17.719.9C20.865.013,21.853-2.119,21.853-3.8a3.175,3.175,0,0,0-.481-1.781c0-.559,0-1.261-.013-1.911,1.742,0,2.951.026,3.731.065Zm9.412,1.43-1.04.416a22.263,22.263,0,0,1,1.066,1.963l1.066-.455C35.36-6.058,34.853-7.033,34.515-7.514Zm1.573-.624L35.022-7.7A21.79,21.79,0,0,1,36.14-5.772l1.053-.442C36.933-6.7,36.426-7.657,36.088-8.138ZM33.8-10.673a7.938,7.938,0,0,1-.988,1.079c-.871.858-2.626,2.288-3.64,3.107-1.287,1.066-1.391,1.781-.1,2.86,1.17,1,3.133,2.678,3.848,3.419.364.39.767.793,1.118,1.2L35.529-.39c-1.274-1.235-3.744-3.2-4.719-4.017-.689-.6-.7-.741-.013-1.326.858-.741,2.548-2.054,3.38-2.73.312-.234.728-.572,1.144-.871Zm7.371,2.782h3.536v2.7h1.508v-2.7H49.79v1.612h1.43V-8.918H46.215v-.494h4.056v-1.144H40.69v1.144h4.017v.494h-4.9v2.639h1.365Zm5.538,2.574h2.834v-.845H46.709Zm0-2.132v.832h2.535v-.832Zm-2.47,0H41.678v.832h2.561ZM41.431-5.317h2.808v-.845H41.431Zm1.04,3.588v-.559h2.158v.559ZM44.629-3.8v.572H42.471V-3.8Zm3.835.572H46.111V-3.8h2.353Zm-2.353,1.5v-.559h2.353v.559Zm.936,1.638c-.793,0-.936-.078-.936-.559V-.689H50V-4.836H41V-.117h1.469V-.689h2.158V-.65c0,1.365.494,1.742,2.275,1.742h2.73c1.417,0,1.833-.429,2.015-1.989a3.953,3.953,0,0,1-1.287-.494c-.091,1.105-.208,1.3-.858,1.3Zm9.906-10.517H53.118v1.17h3.835ZM55.692-2.093V-.611H54.3V-2.093Zm1.313-1.222H53V1.118h1.3V.611h2.7ZM53.04-3.978h3.9v-1.17h-3.9Zm3.9-2.977h-3.9V-5.8h3.9Zm-4.511-.637h4.94V-8.814h-4.94ZM62.556-.884H59.6V-2.7h2.951Zm2.067-4.927V-7.254H61.828V-9.061a19.769,19.769,0,0,0,2.457-.533l-1.092-1.287a28.415,28.415,0,0,1-5.512.949,5.059,5.059,0,0,1,.416,1.3c.689-.052,1.43-.117,2.158-.208v1.586h-2.8v1.443h2.8V-4.1H58.136V1.131H59.6V.507h2.951v.572H64.1V-4.1H61.828V-5.811ZM73.1-1.872c-.013-.585-.039-1.534-.052-2.249.793-.364,1.521-.65,2.093-.871a13.65,13.65,0,0,1,1.534-.546l-.65-1.495c-.468.221-.923.442-1.417.663-.533.234-1.079.455-1.742.767a1.754,1.754,0,0,0-1.716-1,4.029,4.029,0,0,0-1.456.26,7.864,7.864,0,0,0,.741-1.3,41.939,41.939,0,0,0,4.2-.338l.013-1.508a29.729,29.729,0,0,1-3.64.377c.156-.52.247-.962.312-1.274l-1.69-.143a7.164,7.164,0,0,1-.26,1.469h-.624A16.517,16.517,0,0,1,66.482-9.2V-7.7c.7.065,1.651.091,2.171.091h.156a12.584,12.584,0,0,1-2.834,3.536l1.378,1.027a16.486,16.486,0,0,1,1.2-1.417,3.186,3.186,0,0,1,2.015-.884,1.006,1.006,0,0,1,.9.442c-1.469.754-3.029,1.794-3.029,3.432C68.432.2,69.953.676,71.968.676a35.619,35.619,0,0,0,3.64-.208l.052-1.677a19.691,19.691,0,0,1-3.653.377c-1.261,0-1.872-.2-1.872-.91,0-.637.52-1.144,1.469-1.664-.013.559-.026,1.157-.052,1.534Zm9-8.554a14.253,14.253,0,0,1-.273,2.73c-.65.052-1.261.091-1.664.1a11.953,11.953,0,0,1-1.365,0l.143,1.742c.4-.065,1.066-.156,1.43-.2.247-.039.65-.091,1.105-.143a19.136,19.136,0,0,1-2.6,6.019l1.69.676A27.342,27.342,0,0,0,83.174-6.37c.364-.026.676-.052.884-.052.819,0,1.261.143,1.261,1.17a9.522,9.522,0,0,1-.533,3.523.936.936,0,0,1-.962.559,7.408,7.408,0,0,1-1.573-.273l.286,1.7a7.186,7.186,0,0,0,1.534.182A2.067,2.067,0,0,0,86.19-.741a12.585,12.585,0,0,0,.728-4.693c0-1.846-.962-2.457-2.327-2.457-.26,0-.65.026-1.079.052.091-.468.195-.936.26-1.326.065-.325.156-.728.234-1.066Zm4.8,2.054a14.869,14.869,0,0,1,2.184,4.9L90.7-4.238a23.2,23.2,0,0,0-2.249-4.784Zm5.876-1.9a6.745,6.745,0,0,1-.078,1.118,33.667,33.667,0,0,0-.429,5.135A14.352,14.352,0,0,0,93,.156L94.445.013c-.013-.182-.026-.4-.039-.533a3.009,3.009,0,0,1,.091-.624,32.3,32.3,0,0,1,.871-3.146L94.549-4.8c-.208.468-.429,1.092-.6,1.482a16.717,16.717,0,0,1,.429-5.72,9.952,9.952,0,0,1,.3-1.04Zm10.179,2.262a16.843,16.843,0,0,1-1.937.234c0-.7,0-1.365.013-1.651a6.547,6.547,0,0,1,.065-.871H99.2a5.713,5.713,0,0,1,.143.884c.026.351.052,1.014.065,1.729-.494.013-.988.026-1.456.026A13.52,13.52,0,0,1,96-7.787v1.638c.637.026,1.43.065,1.989.065.468,0,.962-.013,1.443-.026v.468c0,2.171-.208,3.315-1.2,4.342A5,5,0,0,1,96.733-.273L98.228.9c2.561-1.638,2.8-3.5,2.8-6.539v-.533c.728-.039,1.391-.091,1.911-.156ZM110.383-.78c-.754,0-1.3-.325-1.3-.806,0-.325.312-.611.793-.611.7,0,1.183.546,1.261,1.378A6.787,6.787,0,0,1,110.383-.78Zm2.834-9.282a6.209,6.209,0,0,1-.988.13c-.728.065-3.484.13-4.16.13-.364,0-.806-.026-1.17-.065l.052,1.677a8.5,8.5,0,0,1,1.053-.1c.676-.052,2.444-.13,3.107-.143-.637.559-1.976,1.638-2.691,2.236-.767.624-2.314,1.937-3.224,2.678l1.17,1.209c1.378-1.56,2.665-2.613,4.641-2.613,1.495,0,2.665.78,2.665,1.937a1.877,1.877,0,0,1-1.053,1.755,2.592,2.592,0,0,0-2.743-2.2,2.163,2.163,0,0,0-2.314,2c0,1.287,1.352,2.106,3.146,2.106,3.107,0,4.654-1.612,4.654-3.64,0-1.872-1.664-3.237-3.848-3.237a4.329,4.329,0,0,0-1.209.143c.806-.65,2.158-1.794,2.847-2.275q.429-.292.9-.585Zm9.62,6.721h1.339l.455-4.446.065-1.937h-2.379l.052,1.937ZM123.5.117a1.272,1.272,0,0,0,1.352-1.274A1.29,1.29,0,0,0,123.5-2.444a1.29,1.29,0,0,0-1.352,1.287A1.272,1.272,0,0,0,123.5.117Z" transform="translate(345 1296)" fill="#fff"/></g></svg>