<svg xmlns="http://www.w3.org/2000/svg" width="80" height="80.592" viewBox="0 0 80 80.592"><g transform="translate(-325.16 -1910.012)"><g transform="translate(325 1910)"><path d="M7.641,0l7.641,14.324H0Z" transform="translate(79.176 69.247) rotate(132)" fill="#03a58e"/><circle cx="40" cy="40" r="40" transform="translate(0.16 0.012)" fill="#03a58e"/><path d="M-2.414-9.01A.9.9,0,0,1-3.085-9.3a.944.944,0,0,1-.281-.68v-.561q0-.136-.153-.136h-9.962q-.153,0-.153.136v.561a.944.944,0,0,1-.281.68.9.9,0,0,1-.672.289h-.2a.93.93,0,0,1-.68-.289.93.93,0,0,1-.289-.68v-1.5a.931.931,0,0,1,.289-.68.93.93,0,0,1,.68-.289h4.981q.153,0,.153-.136v-.51a.944.944,0,0,1,.281-.68.9.9,0,0,1,.672-.289H-8.3a.9.9,0,0,1,.672.289.944.944,0,0,1,.28.68v.51q0,.136.153.136H-2.21a.931.931,0,0,1,.68.289.931.931,0,0,1,.289.68v1.5a.931.931,0,0,1-.289.68.93.93,0,0,1-.68.289Zm-12.75,2.5a.9.9,0,0,1-.655-.28.9.9,0,0,1-.28-.655.9.9,0,0,1,.28-.654.9.9,0,0,1,.655-.281h3.485a.211.211,0,0,0,.221-.136q.085-.187.247-.561t.2-.425a1.309,1.309,0,0,1,.535-.612,1.293,1.293,0,0,1,.79-.187l.357.034a.735.735,0,0,1,.578.349.678.678,0,0,1,.068.655q-.2.51-.306.748-.068.136.085.136h7.072a.9.9,0,0,1,.655.281A.9.9,0,0,1-.9-7.446a.9.9,0,0,1-.281.655.9.9,0,0,1-.655.28H-3.281q-.119,0-.187.153a10.631,10.631,0,0,1-2.21,3.791q-.1.1.051.17,1.734.8,3.587,1.819a.8.8,0,0,1,.417.561.83.83,0,0,1-.145.68l-.119.153a1.1,1.1,0,0,1-.646.408,1.023,1.023,0,0,1-.748-.119Q-5.474-.153-7.344-1.02A.228.228,0,0,0-7.6-1a18.857,18.857,0,0,1-6.613,2.261.991.991,0,0,1-.765-.144,1.1,1.1,0,0,1-.476-.638.839.839,0,0,1,.1-.7.833.833,0,0,1,.578-.391,18.987,18.987,0,0,0,4.76-1.394.079.079,0,0,0,.042-.059A.049.049,0,0,0-10-2.125q-1.411-.51-2.584-.85a.194.194,0,0,0-.2.051.951.951,0,0,1-.561.28.936.936,0,0,1-.612-.128l-.272-.17a.707.707,0,0,1-.365-.561.8.8,0,0,1,.2-.646,19.831,19.831,0,0,0,1.734-2.244.057.057,0,0,0,.008-.076.083.083,0,0,0-.076-.043Zm3.876,1.836a.089.089,0,0,0-.017.094.1.1,0,0,0,.068.076q1.734.51,3.213,1.088a.216.216,0,0,0,.238-.051A8.2,8.2,0,0,0-5.78-6.392q.068-.119-.085-.119H-9.894a.247.247,0,0,0-.2.119Q-10.523-5.695-11.288-4.675Zm16.83-7.038a.87.87,0,0,1-.6-.391.821.821,0,0,1-.111-.7l.017-.034a1.122,1.122,0,0,1,.459-.62,1,1,0,0,1,.748-.161A36.314,36.314,0,0,1,12.189-12a.966.966,0,0,1,.553.493.928.928,0,0,1,.042.748l-.034.119a.938.938,0,0,1-.484.544.891.891,0,0,1-.723.034A35.568,35.568,0,0,0,5.542-11.713ZM1.275-.629a.9.9,0,0,1-.553-.476,1.036,1.036,0,0,1-.076-.748,33.545,33.545,0,0,0,.986-5.593.886.886,0,0,1,.34-.637.942.942,0,0,1,.7-.213l.2.017a.944.944,0,0,1,.655.34.909.909,0,0,1,.23.7,30.661,30.661,0,0,1-1.02,6.086A.876.876,0,0,1,2.287-.6a.885.885,0,0,1-.74.051ZM6.392-9.86a.93.93,0,0,1,.68.289.93.93,0,0,1,.289.68v7.31a2.086,2.086,0,0,0,.085.8q.085.136.476.17.51.051,1.139.051.527,0,1.122-.051a.965.965,0,0,0,.6-.2,1.479,1.479,0,0,0,.263-.723,17.948,17.948,0,0,0,.17-2.023.824.824,0,0,1,.315-.62.812.812,0,0,1,.688-.179l.238.034a1.087,1.087,0,0,1,.68.4,1,1,0,0,1,.238.74q-.085,1.564-.187,2.38A3.39,3.39,0,0,1,12.81.493a1.268,1.268,0,0,1-.612.6,4.67,4.67,0,0,1-1.045.187q-.986.085-1.989.085-1.122,0-1.989-.051Q5.746,1.241,5.389.8a3.892,3.892,0,0,1-.357-2.108V-8.891a.931.931,0,0,1,.289-.68A.93.93,0,0,1,6-9.86Zm7.752,1.173a.921.921,0,0,1,.74.11,1.039,1.039,0,0,1,.468.6,53.741,53.741,0,0,1,1.343,6.035.974.974,0,0,1-.17.74.933.933,0,0,1-.629.416l-.221.051a.9.9,0,0,1-.7-.153.9.9,0,0,1-.391-.612,52.368,52.368,0,0,0-1.292-6,.9.9,0,0,1,.094-.714.857.857,0,0,1,.587-.425ZM-2.414,12.99a.9.9,0,0,1-.671-.289.944.944,0,0,1-.281-.68V11.46q0-.136-.153-.136h-9.962q-.153,0-.153.136v.561a.944.944,0,0,1-.281.68.9.9,0,0,1-.672.289h-.2a.93.93,0,0,1-.68-.289.93.93,0,0,1-.289-.68v-1.5a.931.931,0,0,1,.289-.68.93.93,0,0,1,.68-.289h4.981q.153,0,.153-.136V8.91a.944.944,0,0,1,.281-.68A.9.9,0,0,1-8.7,7.941H-8.3a.9.9,0,0,1,.672.289.944.944,0,0,1,.28.68v.51q0,.136.153.136H-2.21a.931.931,0,0,1,.68.289.931.931,0,0,1,.289.68v1.5a.931.931,0,0,1-.289.68.93.93,0,0,1-.68.289Zm-12.75,2.5a.9.9,0,0,1-.655-.281.9.9,0,0,1-.28-.655.9.9,0,0,1,.28-.654.9.9,0,0,1,.655-.281h3.485a.211.211,0,0,0,.221-.136q.085-.187.247-.561t.2-.425a1.309,1.309,0,0,1,.535-.612,1.293,1.293,0,0,1,.79-.187l.357.034a.735.735,0,0,1,.578.349.678.678,0,0,1,.068.655q-.2.51-.306.748-.068.136.085.136h7.072a.9.9,0,0,1,.655.281.9.9,0,0,1,.281.654.9.9,0,0,1-.281.655.9.9,0,0,1-.655.281H-3.281q-.119,0-.187.153a10.631,10.631,0,0,1-2.21,3.791q-.1.1.051.17,1.734.8,3.587,1.819a.8.8,0,0,1,.417.561.83.83,0,0,1-.145.68l-.119.153a1.1,1.1,0,0,1-.646.408,1.023,1.023,0,0,1-.748-.119q-2.193-1.258-4.063-2.125A.228.228,0,0,0-7.6,21a18.857,18.857,0,0,1-6.613,2.261.991.991,0,0,1-.765-.144,1.1,1.1,0,0,1-.476-.638.839.839,0,0,1,.1-.7.833.833,0,0,1,.578-.391,18.987,18.987,0,0,0,4.76-1.394.079.079,0,0,0,.042-.059A.049.049,0,0,0-10,19.875q-1.411-.51-2.584-.85a.194.194,0,0,0-.2.051.951.951,0,0,1-.561.281.936.936,0,0,1-.612-.128l-.272-.17a.707.707,0,0,1-.365-.561.8.8,0,0,1,.2-.646,19.831,19.831,0,0,0,1.734-2.244.057.057,0,0,0,.008-.076.083.083,0,0,0-.076-.042Zm3.876,1.836a.089.089,0,0,0-.017.093.1.1,0,0,0,.068.076q1.734.51,3.213,1.088a.216.216,0,0,0,.238-.051A8.2,8.2,0,0,0-5.78,15.608q.068-.119-.085-.119H-9.894a.247.247,0,0,0-.2.119Q-10.523,16.3-11.288,17.325Zm12.223-3.4-.051-.119a1.031,1.031,0,0,1-.051-.757.933.933,0,0,1,.476-.569A30.015,30.015,0,0,0,6.477,8.825a2.446,2.446,0,0,1,1.666-.646H9.1a2.446,2.446,0,0,1,1.666.646,29.422,29.422,0,0,0,5.185,3.655,1.036,1.036,0,0,1,.425,1.326l-.068.119a.9.9,0,0,1-.553.485.869.869,0,0,1-.722-.059q-.714-.391-1.411-.833a.047.047,0,0,0-.06.008q-.026.026-.008.043a.963.963,0,0,1,.051.306.9.9,0,0,1-.9.9H9.928a.135.135,0,0,0-.153.153v1.853a.135.135,0,0,0,.153.153h3.655a.9.9,0,1,1,0,1.8H9.928a.135.135,0,0,0-.153.153v2.3q0,.136.153.136h5.151a.911.911,0,0,1,.655.272.924.924,0,0,1,0,1.326.911.911,0,0,1-.655.272H2.159a.911.911,0,0,1-.655-.272.924.924,0,0,1,0-1.326.911.911,0,0,1,.655-.272H7.31q.153,0,.153-.136v-2.3a.135.135,0,0,0-.153-.153H3.655a.9.9,0,1,1,0-1.8H7.31a.135.135,0,0,0,.153-.153V14.928a.135.135,0,0,0-.153-.153H4.59a.9.9,0,0,1-.9-.9.757.757,0,0,1,.068-.34.047.047,0,0,0-.009-.059q-.025-.026-.043-.009-.663.425-1.5.884a.869.869,0,0,1-.723.059A.9.9,0,0,1,.935,13.925Zm7.582-4.2A28.88,28.88,0,0,1,4.59,12.888a.058.058,0,0,0-.017.043q0,.025.017.026h8.024a.069.069,0,0,0,.034-.068A27.194,27.194,0,0,1,8.721,9.726.128.128,0,0,0,8.517,9.726Z" transform="translate(36.159 35.013)" fill="#fff"/><path d="M-.078-2.86a.738.738,0,0,1-.533-.214A.751.751,0,0,1-.845-3.6L-1.04-8.749a.687.687,0,0,1,.195-.52A.67.67,0,0,1-.338-9.49h.7a.67.67,0,0,1,.507.221.687.687,0,0,1,.2.52L.871-3.6a.751.751,0,0,1-.234.526A.738.738,0,0,1,.1-2.86ZM.234-1.82A.691.691,0,0,1,.748-1.6a.722.722,0,0,1,.214.52v.338a.722.722,0,0,1-.214.52A.691.691,0,0,1,.234,0H-.208A.691.691,0,0,1-.721-.221a.722.722,0,0,1-.214-.52v-.338A.722.722,0,0,1-.721-1.6.691.691,0,0,1-.208-1.82Z" transform="translate(56.625 54.44) rotate(20)" fill="#fff"/></g></g></svg>