<svg xmlns="http://www.w3.org/2000/svg" width="24" height="24" viewBox="0 0 24 24"><g transform="translate(-238 -3990)"><path d="M3,0H24a0,0,0,0,1,0,0V24a0,0,0,0,1,0,0H0a0,0,0,0,1,0,0V3A3,3,0,0,1,3,0Z" transform="translate(238 3990)" fill="#03a58e"/><g transform="translate(244.763 3997.16)"><path d="M8.043,6.914a4.358,4.358,0,1,0-.969.969l.337.336L8.38,7.25ZM6.752,6.592a3.163,3.163,0,1,1,0-4.474A3.164,3.164,0,0,1,6.752,6.592Z" transform="translate(0 0)" fill="#fff"/><path d="M319.77,318.1l-3.273-2.923-1.137,1.137,2.923,3.273c.3.385.832.328,1.313-.153S320.155,318.4,319.77,318.1Z" transform="translate(-307.735 -307.713)" fill="#fff"/></g></g></svg>