<svg xmlns="http://www.w3.org/2000/svg" width="44.474" height="35.262" viewBox="0 0 44.474 35.262"><g transform="translate(-424.841 -46.137)"><path d="M1.451,0h0A1.452,1.452,0,0,1,2.9,1.452V2.6A1.451,1.451,0,0,1,1.452,4.053h0A1.451,1.451,0,0,1,0,2.6V1.451A1.451,1.451,0,0,1,1.451,0Z" transform="translate(425.024 58.178)"/><path d="M594.251,46.137h-9.842a2.3,2.3,0,0,1,2.3,2.3V63.952h9.842V48.435A2.3,2.3,0,0,0,594.251,46.137Z" transform="translate(-127.234)" fill="#325f44"/><path d="M467.148,63.952V48.435a2.3,2.3,0,0,1,2.3-2.3h21.464a2.3,2.3,0,0,1,2.3,2.3V63.952Z" transform="translate(-33.734)" fill="#3e7457"/><path d="M3.048,0H6.881A3.048,3.048,0,0,1,9.929,3.048v0A3.048,3.048,0,0,1,6.881,6.1H3.048A3.048,3.048,0,0,1,0,3.048v0A3.048,3.048,0,0,1,3.048,0Z" transform="translate(441.324 51.996)" fill="#fff" opacity="0.4"/><g transform="translate(436.072 50.563)"><g transform="translate(0)"><path d="M502.041,79.469H482.047l-.112-.115V71.722a3.148,3.148,0,0,1,3.113-3.176h13.994a3.149,3.149,0,0,1,3.113,3.176v7.626Zm-19.426-.608h18.859l.084-.086V71.722a2.546,2.546,0,0,0-2.517-2.568H485.048a2.546,2.546,0,0,0-2.517,2.568v7.046Z" transform="translate(-481.597 -68.431)" fill="#a6a7a7"/><path d="M500.374,78.9H480.38l-.112-.115V71.156a3.148,3.148,0,0,1,3.113-3.176h13.994a3.148,3.148,0,0,1,3.113,3.176v7.626Zm-19.426-.608h18.859l.085-.086V71.156a2.546,2.546,0,0,0-2.517-2.568H483.381a2.546,2.546,0,0,0-2.517,2.568V78.2Z" transform="translate(-480.268 -67.98)" fill="#ebebeb"/></g><g transform="translate(6.581 0.61)"><rect width="0.188" height="9.726" transform="translate(0.35)" fill="#7a7a7a"/><rect width="0.349" height="9.726" fill="#ccc"/></g><g transform="translate(12.938 0.61)"><rect width="0.188" height="9.726" transform="translate(0.35)" fill="#7a7a7a"/><rect width="0.349" height="9.726" fill="#ccc"/></g></g><path d="M463.533,76.035H431.811l4.508-10.956a3.084,3.084,0,0,1,2.769-1.441H460.2a2.187,2.187,0,0,1,1.948,1.679C462.365,66.224,463.533,76.035,463.533,76.035Zm-3.754-8.828a1.149,1.149,0,0,0-1.149-1.149H445.069a1.149,1.149,0,0,0-1.149,1.149v5.372a1.149,1.149,0,0,0,1.149,1.149H458.63a1.149,1.149,0,0,0,1.149-1.149Zm-19.09-1.678h-2.673a1.318,1.318,0,0,0-1.27.741c-.236.475-3.2,8.109-3.584,8.893s.086.8.227.8,5.146.018,5.814.018.69-.342.7-.551,1.084-8.69,1.164-9.255S440.854,65.529,440.689,65.529Z" transform="translate(-5.558 -13.955)" fill="#302d2c"/><path d="M445.426,72.969h-2.673a1.318,1.318,0,0,0-1.27.741c-.236.475-3.2,8.109-3.584,8.893s.086.8.227.8,5.146.018,5.814.018.69-.342.7-.551,1.084-8.69,1.164-9.255S445.591,72.969,445.426,72.969Z" transform="translate(-10.295 -21.395)" fill="#fff" opacity="0.2"/><g transform="translate(437.209 55.8)"><path d="M498.11,96.386a.738.738,0,0,1-.728.689h-3.639a.645.645,0,0,1-.651-.689l.334-1.873a.738.738,0,0,1,.728-.689h3.18a.645.645,0,0,1,.651.689Z" transform="translate(-491.629 -93.823)" fill="#1a1a1a"/><path d="M489.7,112.432a1.045,1.045,0,0,1,.976.675h2.508l.062-.424a.845.845,0,0,0-.738-.873H486.68a.88.88,0,0,0-.8.622Z" transform="translate(-485.876 -108.165)" fill="#1a1a1a"/></g><g transform="translate(436.463 53.536)"><path d="M491.034,106.355a.168.168,0,0,0-.009-.035,2.008,2.008,0,0,0-1.3-.826,4.387,4.387,0,0,0-.468-.119.86.86,0,0,0-.3-.271,2.443,2.443,0,0,1-.035.306c-.089.38-.567.4-1.159.978a3.321,3.321,0,0,1-.161-1.074c0-.069.009-.139.014-.209l-.011,0c-.166.069-.174.136-.356.265h0a3.491,3.491,0,0,0-1.386.414.97.97,0,0,0-.325.284,4.037,4.037,0,0,1-.982,1.012h4.089a1.045,1.045,0,0,1,.976.675h1.28a5.008,5.008,0,0,0,.2-1.039A.8.8,0,0,0,491.034,106.355Z" transform="translate(-484.071 -100.555)" fill="#005d50"/><path d="M484.824,97.332c-.456-.622-1.2-1.766-1.566-2.329l.087-.051a.14.14,0,0,0,.049-.193l-.181-.3a.141.141,0,0,0-.193-.049l-.755.45a.14.14,0,0,0-.049.193l.181.3a.141.141,0,0,0,.193.049l.071-.042c.361.559,1.125,1.731,1.6,2.384.637.869,2.62,2.915,2.7,3l.5-.483C487.446,100.24,485.434,98.163,484.824,97.332Z" transform="translate(-482.196 -92.008)" fill="#1a1311"/><path d="M496.285,91.037a13.138,13.138,0,0,1-1.388.054c-.277-.058-.386-.239-.643-.4a1.358,1.358,0,0,0-.189.478h-.006a2.647,2.647,0,0,0-.051.4A1.793,1.793,0,0,0,495.16,93.5c-.01.108-.018.22-.022.328A3.322,3.322,0,0,0,495.3,94.9c.592-.58,1.07-.6,1.159-.978a5.185,5.185,0,0,0,.053-.626,2.808,2.808,0,0,0,.927-1.552C497.42,91.388,496.681,91.069,496.285,91.037Z" transform="translate(-491.612 -89.064)" fill="#da944d"/><path d="M493.227,84.086a1.506,1.506,0,0,0-1.072-1.3,1.958,1.958,0,0,0-1.809.188,1.682,1.682,0,0,0-.682,1.015l-1.11.024.082,0-.031,0c-.3.027-.069.5.246.628a2.252,2.252,0,0,0,.8.115,1.358,1.358,0,0,1,.189-.478c.256.159.366.341.643.4a13.139,13.139,0,0,0,1.388-.054c.4.032,1.14.353,1.154.707A2.7,2.7,0,0,0,493.227,84.086Z" transform="translate(-487.198 -82.653)" fill="#005d50"/></g><g transform="translate(447.195 55.8)"><path d="M548.077,96.386a.738.738,0,0,1-.728.689H543.71a.645.645,0,0,1-.651-.689l.334-1.873a.738.738,0,0,1,.728-.689h3.18a.645.645,0,0,1,.651.689Z" transform="translate(-541.456 -93.823)" fill="#1a1a1a"/><path d="M541.924,111.81H536.1a.88.88,0,0,0-.824.689l-.119.608h3.713c-.014.256-.022.426-.026.479a.612.612,0,0,1-.364.552h3.969l.214-1.455A.845.845,0,0,0,541.924,111.81Z" transform="translate(-535.156 -108.165)" fill="#1a1a1a"/></g><path d="M562.328,64.821a1.6,1.6,0,0,0-1.51-1.183H559.47a1.9,1.9,0,0,0-1.756,1.679c-.111.907-.424,10.308-.424,10.308l-.046.6v7.141H560.4a.253.253,0,0,1,.264.245,1.209,1.209,0,0,1,.415-.08c.5,0,.892.411,1.186,1.03h1.651V76.035Zm.683,10.457a.6.6,0,0,1-.5.217,6.892,6.892,0,0,0-2.665.489,2.36,2.36,0,0,1-.776.2h-.439a.834.834,0,0,1-.629-.225.911.911,0,0,1-.205-.7c.023-.508.063-1.5.11-2.648.111-2.744.25-6.16.292-6.505a1.228,1.228,0,0,1,1.141-.991h1.774a.742.742,0,0,1,.738.642l1.27,8.8A.935.935,0,0,1,563.011,75.278Z" transform="translate(-105.574 -13.955)" fill="#a6a7a7"/><path d="M565.285,80.349l-1.27-8.8a.742.742,0,0,0-.738-.642H561.5a1.228,1.228,0,0,0-1.141.991c-.042.345-.18,3.761-.292,6.505-.047,1.149-.087,2.14-.11,2.648a.91.91,0,0,0,.205.7.834.834,0,0,0,.629.225h.439a2.36,2.36,0,0,0,.776-.2,6.892,6.892,0,0,1,2.665-.489.6.6,0,0,0,.5-.217A.935.935,0,0,0,565.285,80.349Zm-.348.54a.309.309,0,0,1-.261.1,7.253,7.253,0,0,0-2.77.507,2.193,2.193,0,0,1-.671.182H560.8a.549.549,0,0,1-.409-.131.644.644,0,0,1-.122-.48c.023-.508.063-1.5.11-2.649.105-2.595.249-6.148.29-6.481.078-.638.836-.722.853-.724h1.76a.442.442,0,0,1,.437.382l1.273,8.813A.664.664,0,0,1,564.937,80.889Z" transform="translate(-107.739 -19.752)" fill="#1a1311"/><path d="M564.911,72.791a.442.442,0,0,0-.437-.382h-1.76c-.017,0-.775.087-.853.724-.041.333-.185,3.887-.29,6.481-.047,1.15-.087,2.141-.11,2.649a.644.644,0,0,0,.122.48.549.549,0,0,0,.41.131h.439a2.192,2.192,0,0,0,.671-.182,7.253,7.253,0,0,1,2.77-.507.309.309,0,0,0,.261-.1.665.665,0,0,0,.05-.481Z" transform="translate(-108.935 -20.948)" fill="#fff" opacity="0.2"/><g transform="translate(452.221 51.157)"><path d="M561.235,81.982H560.8a.834.834,0,0,1-.629-.225.91.91,0,0,1-.205-.7c.023-.508.063-1.5.11-2.648.112-2.744.25-6.16.292-6.505a1.228,1.228,0,0,1,1.141-.991h1.774a.742.742,0,0,1,.738.642l1.27,8.8a.935.935,0,0,1-.108.727.6.6,0,0,1-.5.217,6.892,6.892,0,0,0-2.665.489A2.36,2.36,0,0,1,561.235,81.982Zm.283-10.769c-.017,0-.775.087-.853.724-.041.333-.185,3.887-.29,6.481-.047,1.15-.087,2.141-.11,2.649a.644.644,0,0,0,.122.48.549.549,0,0,0,.409.131h.439a2.193,2.193,0,0,0,.671-.182,7.253,7.253,0,0,1,2.77-.507.309.309,0,0,0,.261-.1.664.664,0,0,0,.05-.481L563.715,71.6a.442.442,0,0,0-.437-.382Z" transform="translate(-559.96 -70.909)" fill="#1a1311"/></g><g transform="translate(433.63 58.733)"><path d="M468.841,109.631a2,2,0,0,1,1.667-.827,2.722,2.722,0,0,1,1.9.827h.626a3.36,3.36,0,0,0-2.6-1.334,2.41,2.41,0,0,0-2.221,1.334Z" transform="translate(-468.215 -108.297)"/></g><g transform="translate(432.961 59.417)"><path d="M466.36,112.324a.574.574,0,0,0-.367-.522l-.228-.088a.575.575,0,0,0-.743.328l-.109.282Z" transform="translate(-464.913 -111.675)" fill="#da944d"/><path d="M488.544,112.882l-.039-.086c-.132-.289-.41-.514-.7-.383l-.469.274a.343.343,0,0,0-.187.195Z" transform="translate(-482.644 -112.232)" fill="#da944d"/></g><g transform="translate(427.191 60.067)"><path d="M436.467,116.513c.069.121.259.188.535.188h22.143c.625,0,.956-.225.982-.668,0-.053.012-.223.026-.479h-8.9a1.045,1.045,0,0,0-.976-.675H439.4a2.5,2.5,0,0,0-1.477.675h-1.148c-.123.288-.206.473-.241.532A.443.443,0,0,0,436.467,116.513Z" transform="translate(-436.436 -114.879)" fill="#1a1a1a"/></g><path d="M.749,0H4.17a.75.75,0,0,1,.75.75v0a.75.75,0,0,1-.75.75H.749A.749.749,0,0,1,0,.75v0A.749.749,0,0,1,.749,0Z" transform="translate(437.491 51.92)" fill="#1a1a1a"/><path d="M613.068,171.592c-.911,0-1.65,2.2-1.65,4.92s.739,4.92,1.65,4.92h2.178c-.911,0-1.65-2.2-1.65-4.92s.739-4.92,1.65-4.92Z" transform="translate(-148.77 -100.033)" fill="#1a1311"/><path d="M.305,0H9.979a.305.305,0,0,1,.305.305v0A.305.305,0,0,1,9.979.61H.305A.305.305,0,0,1,0,.305v0A.305.305,0,0,1,.305,0Z" transform="translate(458.727 63.952)" fill="#b2b2b3"/><path d="M590.144,134.662h.566a.172.172,0,0,1-.172-.172v-.266a.172.172,0,0,1,.172-.172h-.566Z" transform="translate(-131.807 -70.1)" fill="#767676"/><path d="M.333,0H9.951a.333.333,0,0,1,.333.333v0A.333.333,0,0,1,9.95.666H.333A.333.333,0,0,1,0,.333v0A.333.333,0,0,1,.333,0Z" transform="translate(458.727 69.951)" fill="#8e8e8f"/><path d="M624.882,166.935h-1.14c-.333,0-.611.3-.835.719l.01.021c.034.065.068.133.1.2h1.391c.674,0,1.253,1.205,1.509,2.932h.29s.2.006.2-.306C626.407,169.962,625.857,166.935,624.882,166.935Z" transform="translate(-157.93 -96.32)" fill="#2b2726"/><path d="M625.469,176.512c0,2.717-.739,4.92-1.65,4.92s-1.65-2.2-1.65-4.92.739-4.92,1.65-4.92S625.469,173.795,625.469,176.512Z" transform="translate(-157.342 -100.033)" fill="#474645"/><path d="M628.126,183.7c0,1.707-.421,3.091-.94,3.091s-.94-1.384-.94-3.091.421-3.092.94-3.092S628.126,182,628.126,183.7Z" transform="translate(-160.593 -107.226)" fill="#ebebeb"/><path d="M458.7,201.629c.176,2.154.827,3.753,1.6,3.753s1.427-1.6,1.6-3.753Z" transform="translate(-27.001 -123.984)" fill="#1a1311"/><path d="M450.132,201.629h-2.178c.176,2.154.826,3.753,1.6,3.753h2.178C450.959,205.382,450.308,203.783,450.132,201.629Z" transform="translate(-18.43 -123.984)" fill="#302d2c"/><path d="M514,201.629c.176,2.154.826,3.753,1.6,3.753s1.427-1.6,1.6-3.753Z" transform="translate(-71.091 -123.984)" fill="#1a1311"/><path d="M505.426,201.629h-2.178c.176,2.154.827,3.753,1.6,3.753h2.178C506.252,205.382,505.6,203.783,505.426,201.629Z" transform="translate(-62.518 -123.984)" fill="#302d2c"/><path d="M570.124,176.512c0,2.717-.738,4.92-1.649,4.92s-1.65-2.2-1.65-4.92.739-4.92,1.65-4.92S570.124,173.795,570.124,176.512Z" transform="translate(-113.213 -100.033)" fill="#474645"/><path d="M572.782,183.7c0,1.707-.421,3.091-.94,3.091s-.94-1.384-.94-3.091.421-3.092.94-3.092S572.782,182,572.782,183.7Z" transform="translate(-116.464 -107.226)" fill="#ebebeb"/><path d="M566.865,168.711c0-2.717.739-4.92,1.65-4.92h-1.393c-.035-.077-.069-.154-.107-.225-.038.071-.074.147-.109.225h0c-.026.058-.052.118-.076.179a8.886,8.886,0,0,0-.548,2.447.3.3,0,0,1-.32.306h-2.246s-.2.007-.2-.306a9.168,9.168,0,0,1,.558-2.447c.247-.626.572-1.122.967-1.122l-6.314-.008c-.293-.619-.685-1.021-1.186-1.03-1.049-.02-1.437,1.457-1.741,3.023a14.561,14.561,0,0,1-.734,2.955,4.279,4.279,0,0,1-1.566,1.783v.006a3.174,3.174,0,0,1-.687.339,3.912,3.912,0,0,0,.749.366c.22,1.946.835,3.35,1.562,3.35H557.3c-.683,0-1.27-1.24-1.52-3.007h0a13.74,13.74,0,0,1-.13-1.913c0-2.717.739-4.92,1.65-4.92.391,0,.75.406,1.032,1.084h0a6.062,6.062,0,0,1,.254.759l0,.007c.037.136.071.278.1.425l0,.02q.047.223.087.46v.005q.039.241.07.5c0,.005,0,.011,0,.016q.029.243.049.5c0,.015,0,.031,0,.047.013.164.022.332.029.5,0,.015,0,.03,0,.044q.01.274.01.555,0,.229-.007.453c0,.062-.005.122-.008.183,0,.106-.009.212-.016.315.023-.032.043-.067.064-.1h3.876a.694.694,0,0,0,.692-.557h1.139c.051,2.581.768,4.628,1.647,4.628h2.178C567.6,173.631,566.865,171.428,566.865,168.711Z" transform="translate(-102.039 -92.233)" fill="#1a1311"/><path d="M570.124,176.512c0,2.717-.738,4.92-1.649,4.92s-1.65-2.2-1.65-4.92.739-4.92,1.65-4.92S570.124,173.795,570.124,176.512Z" transform="translate(-113.213 -100.033)" fill="#474645"/><path d="M572.782,183.7c0,1.707-.421,3.091-.94,3.091s-.94-1.384-.94-3.091.421-3.092.94-3.092S572.782,182,572.782,183.7Z" transform="translate(-116.464 -107.226)" fill="#ebebeb"/><path d="M630.058,192.22c0,.512-.126.927-.282.927s-.282-.415-.282-.927.126-.927.282-.927S630.058,191.708,630.058,192.22Z" transform="translate(-163.183 -115.742)" fill="#474645"/><path d="M574.714,192.22c0,.512-.126.927-.282.927s-.282-.415-.282-.927.126-.927.282-.927S574.714,191.708,574.714,192.22Z" transform="translate(-119.054 -115.742)" fill="#474645"/><path d="M627.528,188.314c-.555,0-.854-1.326-.854-2.574s.3-2.575.854-2.575.853,1.327.853,2.575S628.082,188.314,627.528,188.314Zm0-4.946c-.307,0-.651,1.014-.651,2.372s.344,2.371.651,2.371.651-1.014.651-2.371S627.835,183.368,627.528,183.368Z" transform="translate(-160.935 -109.261)" fill="#1a1311"/><path d="M572.184,188.314c-.554,0-.854-1.326-.854-2.574s.3-2.575.854-2.575.854,1.327.854,2.575S572.738,188.314,572.184,188.314Zm0-4.946c-.272,0-.651.9-.651,2.372s.379,2.371.651,2.371.651-.9.651-2.371S572.456,183.368,572.184,183.368Z" transform="translate(-116.805 -109.261)" fill="#1a1311"/><path d="M546.531,168.477s-.54,6.718-1.081,6.718h1.583a4.166,4.166,0,0,0,2.161-2.091c.516-1.076.661-3.22,1.153-4.627Z" transform="translate(-96.169 -97.55)" fill="#1a1a1a"/><path d="M555.243,160.992H552l-1.216,1.517H554.6a2,2,0,0,1,.907-1.271A.253.253,0,0,0,555.243,160.992Z" transform="translate(-100.422 -91.581)" fill="#262626"/><path d="M424.841,168.477s-.012,6.718,2.014,6.718h22.425c.54,0,1.081-6.718,1.081-6.718Z" transform="translate(0 -97.55)" fill="#333"/><path d="M424.841,162.509l.731-1.517h26l-1.216,1.517Z" transform="translate(0 -91.581)" fill="#4d4d4d"/><path d="M557.793,138.818h-.549v1.369h.777V139.2S558,138.818,557.793,138.818Z" transform="translate(-105.574 -73.901)" fill="#e85400"/><rect width="0.777" height="3.123" transform="translate(451.67 66.288)" fill="#d4d5d5"/><path d="M435.944,63.638c-2.364,0-2.912,1.441-2.912,1.441s-4.249,10.163-4.425,10.546a2.611,2.611,0,0,0-.107,1.07l-.051,2.177h3.318c1.191,0,1.194,1.369,1.194,1.369h0v3.123h21.586V76.225l.046-.6s.313-9.4.424-10.308a1.9,1.9,0,0,1,1.756-1.679Zm18.118,11.556c-.017.287-.176.954-1.285.954H430.634c-.5,0-.711-.186-.8-.342a.718.718,0,0,1,.071-.732c.127-.214,1.116-2.66,1.989-4.817,1.093-2.7,1.764-4.355,1.869-4.521l.013-.02a1.255,1.255,0,0,1,1.05-.759c.5-.014,2.373-.021,5.561-.021,3.123,0,7.386.007,12.674.02h.5a1.035,1.035,0,0,1,.718.325.915.915,0,0,1,.259.679C454.51,66.485,454.089,74.76,454.063,75.194Z" transform="translate(-2.878 -13.955)" fill="#d9d9d9"/><path d="M460.6,72.238a.61.61,0,0,0-.176-.454.732.732,0,0,0-.5-.23h-.5c-5.287-.014-9.551-.02-12.673-.02-3.186,0-5.054.007-5.553.021-.418.012-.6.293-.8.618l-.013.021c-.1.16-1.026,2.451-1.843,4.472-1.129,2.794-1.88,4.642-2.01,4.859a.443.443,0,0,0-.068.426c.069.121.259.188.535.188h22.143c.625,0,.956-.225.982-.668S460.574,72.764,460.6,72.238Z" transform="translate(-9.246 -20.249)" fill="#fff" opacity="0.4"/><path d="M457.947,81.245H435.8c-.5,0-.711-.186-.8-.342a.718.718,0,0,1,.071-.732c.127-.214,1.116-2.66,1.989-4.817,1.093-2.7,1.764-4.355,1.869-4.521l.013-.02a1.255,1.255,0,0,1,1.05-.759c.5-.014,2.373-.021,5.561-.021,3.123,0,7.386.007,12.674.02h.5a1.035,1.035,0,0,1,.718.325.915.915,0,0,1,.259.679c-.026.526-.447,8.8-.473,9.235C459.215,80.579,459.056,81.245,457.947,81.245Zm-12.389-10.91c-3.186,0-5.054.007-5.553.021-.418.012-.6.293-.8.618l-.013.021c-.1.16-1.026,2.451-1.843,4.472-1.129,2.794-1.88,4.642-2.01,4.859a.443.443,0,0,0-.068.426c.069.121.259.188.535.188h22.143c.625,0,.956-.225.982-.668s.447-8.706.473-9.232a.61.61,0,0,0-.176-.454.732.732,0,0,0-.5-.23h-.5C452.943,70.343,448.68,70.336,445.558,70.336Z" transform="translate(-8.047 -19.053)"/><path d="M431.768,138.818H428.45v1.369h4.512S432.959,138.818,431.768,138.818Z" transform="translate(-2.878 -73.901)" fill="#f38200"/><rect width="4.512" height="3.123" transform="translate(425.572 66.288)" fill="#fff"/><rect width="2.903" height="4.053" rx="1.451" transform="translate(453.34 58.178)"/><path d="M536.04,138.818h3.345v1.369h-4.539S534.849,138.818,536.04,138.818Z" transform="translate(-87.714 -73.901)" fill="#f38200"/><rect width="4.539" height="3.123" transform="translate(447.132 66.288)" fill="#fff"/><path d="M.836,0H22.771a.836.836,0,0,1,.836.836v0a.836.836,0,0,1-.836.836H.836A.836.836,0,0,1,0,.836v0A.836.836,0,0,1,.836,0Z" transform="translate(425.775 71.704)"/><path d="M.836,0H2.589a.836.836,0,0,1,.836.836v0a.836.836,0,0,1-.836.836H.836A.836.836,0,0,1,0,.836v0A.836.836,0,0,1,.836,0Z" transform="translate(425.775 71.704)" fill="#bdbebf"/><rect width="3.425" height="1.672" rx="0.836" transform="translate(445.998 71.704)" fill="#bdbebf"/><path d="M.851,0H8.613a.851.851,0,0,1,.851.851v.841a.85.85,0,0,1-.85.85H.85A.85.85,0,0,1,0,1.692V.851A.851.851,0,0,1,.851,0Z" transform="translate(432.656 72.74)" fill="#d9d9d9"/><path d="M.431,0H.718a.431.431,0,0,1,.431.431v0A.431.431,0,0,1,.718.862H.431A.431.431,0,0,1,0,.431v0A.431.431,0,0,1,.431,0Z" transform="translate(456.515 63.337)" fill="#262626"/><rect width="10.387" height="5.389" transform="translate(458.338 64.564)" fill="#a6a7a7"/><path d="M590.673,146a.17.17,0,0,1-.136-.165v-.322a.172.172,0,0,1,.172-.172h-.334v-4.654h-.23v4.654h0V146Z" transform="translate(-131.807 -75.392)" fill="#767676"/><rect width="2.077" height="3.647" transform="translate(458.523 73.781)" fill="#bdbebf"/><g transform="translate(461.475 70.615)"><path d="M605.628,174.921c0,.313.2.306.2.306h2.246a.3.3,0,0,0,.32-.306,8.887,8.887,0,0,1,.548-2.447h-2.757A9.165,9.165,0,0,0,605.628,174.921Z" transform="translate(-605.628 -171.352)" fill="#b3b3b3"/><path d="M612.161,166.935H609.35c-.394,0-.72.5-.967,1.122h2.757C611.391,167.431,611.73,166.935,612.161,166.935Z" transform="translate(-607.825 -166.935)" fill="#5f5e5e"/></g><rect width="10.387" height="0.733" transform="translate(458.338 64.564)" fill="#8e8e8f"/><g transform="translate(460.088 47.419)"><path d="M614.683,52.468s.533.806,1,.806c.561,0,1.035-.868,1.035-.806s-.4,1.152-1.035,1.152S614.672,52.584,614.683,52.468Z" transform="translate(-611.462 -52.465)" fill="#3e7457"/><path d="M630.5,52.468s.532.806,1,.806c.561,0,1.035-.868,1.035-.806s-.4,1.152-1.035,1.152S630.487,52.584,630.5,52.468Z" transform="translate(-624.073 -52.465)" fill="#3e7457"/><path d="M598.787,52.468s.533.806,1,.806c.561,0,1.035-.868,1.035-.806s-.4,1.152-1.035,1.152S598.775,52.584,598.787,52.468Z" transform="translate(-598.787 -52.465)" fill="#3e7457"/></g><g transform="translate(460.089 47.343)"><path d="M614.684,52.131c0-.183.532.417,1,.417.561,0,1.035-.625,1.035-.417a1.224,1.224,0,0,1-1.035.792C615.044,52.923,614.684,52.173,614.684,52.131Z" transform="translate(-611.463 -52.089)" fill="#25533c"/><path d="M630.5,52.131c0-.183.533.417,1,.417.561,0,1.035-.625,1.035-.417a1.224,1.224,0,0,1-1.035.792C630.86,52.923,630.5,52.173,630.5,52.131Z" transform="translate(-624.074 -52.089)" fill="#25533c"/><path d="M598.788,52.131c0-.183.533.417,1,.417.561,0,1.035-.625,1.035-.417a1.225,1.225,0,0,1-1.035.792C599.148,52.923,598.788,52.173,598.788,52.131Z" transform="translate(-598.788 -52.089)" fill="#25533c"/></g><g transform="translate(463.542 62.465)"><path d="M619.048,129.558c0-.078-.111.183-.239.39-.158.254-.23.215-.231.293s.124.034.253-.154A1.355,1.355,0,0,0,619.048,129.558Z" transform="translate(-618.021 -128.971)" fill="#3e7457"/><path d="M618.954,126.727c0-.074-.12.236-.238.572a3.1,3.1,0,0,0-.2.572c0,.08.126-.1.245-.419A3.164,3.164,0,0,0,618.954,126.727Z" transform="translate(-617.974 -126.716)" fill="#25533c"/><path d="M615.83,129.558c0-.078.111.183.24.39.158.254.23.215.231.293s-.124.034-.254-.154A1.364,1.364,0,0,1,615.83,129.558Z" transform="translate(-615.83 -128.971)" fill="#3e7457"/><path d="M616.062,126.727c0-.074.12.236.238.572a3.05,3.05,0,0,1,.2.572c0,.08-.126-.1-.245-.419A3.174,3.174,0,0,1,616.062,126.727Z" transform="translate(-616.015 -126.716)" fill="#25533c"/></g><g transform="translate(467.555 62.465)"><path d="M638.851,129.558c0-.078-.111.183-.24.39-.158.254-.23.215-.231.293s.123.034.253-.154A1.365,1.365,0,0,0,638.851,129.558Z" transform="translate(-637.824 -128.971)" fill="#3e7457"/><path d="M638.756,126.727c0-.074-.12.236-.238.572a3.1,3.1,0,0,0-.2.572c0,.08.126-.1.245-.419A3.178,3.178,0,0,0,638.756,126.727Z" transform="translate(-637.776 -126.716)" fill="#25533c"/><path d="M635.632,129.558c0-.078.111.183.239.39.158.254.23.215.231.293s-.124.034-.253-.154A1.358,1.358,0,0,1,635.632,129.558Z" transform="translate(-635.632 -128.971)" fill="#3e7457"/><path d="M635.864,126.727c0-.074.12.236.238.572a3.106,3.106,0,0,1,.2.572c0,.08-.126-.1-.245-.419A3.184,3.184,0,0,1,635.864,126.727Z" transform="translate(-635.817 -126.716)" fill="#25533c"/></g><g transform="translate(460.028 62.465)"><path d="M601.706,129.558c0-.078-.111.183-.24.39-.158.254-.23.215-.231.293s.124.034.253-.154A1.364,1.364,0,0,0,601.706,129.558Z" transform="translate(-600.678 -128.971)" fill="#3e7457"/><path d="M601.612,126.727c0-.074-.12.236-.238.572a3.034,3.034,0,0,0-.2.572c0,.08.126-.1.245-.419A3.172,3.172,0,0,0,601.612,126.727Z" transform="translate(-600.632 -126.716)" fill="#25533c"/><path d="M598.487,129.558c0-.078.111.183.24.39.158.254.23.215.231.293s-.124.034-.253-.154A1.364,1.364,0,0,1,598.487,129.558Z" transform="translate(-598.487 -128.971)" fill="#3e7457"/><path d="M598.72,126.727c0-.074.12.236.238.572a3.082,3.082,0,0,1,.2.572c0,.08-.126-.1-.245-.419A3.175,3.175,0,0,1,598.72,126.727Z" transform="translate(-598.673 -126.716)" fill="#25533c"/></g><path d="M599.175,140.547h0a.061.061,0,0,1-.058-.064l.325-6.754a.061.061,0,0,1,.061-.058h0a.061.061,0,0,1,.058.064l-.325,6.754A.061.061,0,0,1,599.175,140.547Z" transform="translate(-138.959 -69.796)" fill="#5f5e5e"/><path d="M618.616,140.547a.061.061,0,0,1-.061-.058l-.3-6.754a.061.061,0,0,1,.122-.005l.3,6.754a.061.061,0,0,1-.058.064Z" transform="translate(-154.218 -69.796)" fill="#5f5e5e"/><path d="M636.647,140.547h0a.061.061,0,0,1-.058-.064l.325-6.755a.057.057,0,0,1,.064-.058.061.061,0,0,1,.058.063l-.325,6.755A.061.061,0,0,1,636.647,140.547Z" transform="translate(-168.839 -69.796)" fill="#5f5e5e"/></g></svg>