<svg xmlns="http://www.w3.org/2000/svg" width="41.955" height="33.616" viewBox="0 0 41.955 33.616"><g transform="translate(-6200.638 -346.121)" style="isolation:isolate"><path d="M6868.983,533.1l-.789.814-.207,2.034,1.785-1.579Z" transform="translate(-636.51 -178.334)" fill="#ffbfb0"/><path d="M6884.626,495.221l-1.785,1.922a3.8,3.8,0,0,0,.893,1.349Z" transform="translate(-650.677 -142.209)" fill="#69a39c"/><path d="M6407.346,545.511l1.71,1.539.1-1.853-1.115-.961Z" transform="translate(-197.155 -188.959)" fill="#ffad94"/><path d="M6385.27,505.618l.128.112,1.947,1.747a1.424,1.424,0,0,1-1.183,1.3Z" transform="translate(-176.1 -152.126)" fill="#ea9b3d"/><path d="M6405.184,538.461l.379.449a4.148,4.148,0,0,0,.776-1.641l-.367-.415-.008.036a3.95,3.95,0,0,1-.436,1.1,2.759,2.759,0,0,1-.229.335C6405.263,538.37,6405.225,538.416,6405.184,538.461Z" transform="translate(-195.093 -181.918)" fill="#538d96"/><g transform="translate(6210.764 346.121)"><path d="M6445.74,864.858l-.163,1.836.532.047.672-1.79Z" transform="translate(-6444.383 -840.886)" fill="#e2bfaf"/><path d="M6789.79,895.151l-.164,1.835-.532-.047-.346-1.881Z" transform="translate(-6771.696 -869.69)" fill="#e2bfaf"/><g transform="translate(0 0)"><path d="M6437.907,348.206l.087-.984-12.378-1.1-.087.984-3.716-.33-2.063,23.2,19.5,1.681,2.063-23.2Z" transform="translate(-6419.75 -346.121)" fill="#f4dace"/></g><g transform="translate(10.601 2.793)"><path d="M6659.417,423.842l1.173-13.195a1.549,1.549,0,0,1-1.405-1.68c0-.018,0-.035.006-.053l-5.324-.473c0,.018,0,.035,0,.053a1.55,1.55,0,0,1-1.681,1.406l-1.156,13a1.748,1.748,0,0,1,1.587,1.9l5.121.455A1.55,1.55,0,0,1,6659.417,423.842Z" transform="translate(-6650.941 -408.353)" fill="#f4dace"/><path d="M6656.017,423.536l-5.281-.47.007-.08a1.671,1.671,0,0,0-1.514-1.81l-.081-.007,1.17-13.155.08.007a1.471,1.471,0,0,0,1.594-1.333c0-.014,0-.028,0-.041l.005-.092,5.489.488-.012.091c0,.014,0,.027,0,.041a1.47,1.47,0,0,0,1.333,1.593l.08.007-1.187,13.355-.08-.007a1.472,1.472,0,0,0-1.594,1.333Zm-5.109-.615,4.965.442a1.631,1.631,0,0,1,1.678-1.4l1.16-13.039a1.631,1.631,0,0,1-1.4-1.731l-5.162-.459a1.631,1.631,0,0,1-1.684,1.457l-1.142,12.84A1.832,1.832,0,0,1,6650.908,422.921Z" transform="translate(-6649.148 -406.555)" fill="#e2bfaf"/></g><g transform="translate(1.614 1.94)"><path d="M6464.948,405.39l1.173-13.2a1.549,1.549,0,0,1-1.406-1.68c0-.018,0-.035.006-.053l-5.323-.473c0,.018,0,.036,0,.053a1.549,1.549,0,0,1-1.68,1.406l-1.156,13a1.748,1.748,0,0,1,1.587,1.9l5.122.455A1.549,1.549,0,0,1,6464.948,405.39Z" transform="translate(-6456.472 -389.901)" fill="#f4dace"/><path d="M6461.546,405.083l-5.281-.47.007-.08a1.672,1.672,0,0,0-1.515-1.81l-.08-.007,1.169-13.155.08.007a1.472,1.472,0,0,0,1.594-1.333c0-.014,0-.028,0-.041l0-.092,5.489.488-.012.091c0,.014,0,.027,0,.041a1.47,1.47,0,0,0,1.333,1.593l.08.007-1.187,13.355-.08-.007a1.471,1.471,0,0,0-1.593,1.333Zm-5.109-.615,4.965.442a1.632,1.632,0,0,1,1.678-1.4l1.16-13.039a1.632,1.632,0,0,1-1.4-1.731l-5.161-.459a1.631,1.631,0,0,1-1.685,1.457l-1.142,12.84A1.831,1.831,0,0,1,6456.437,404.468Z" transform="translate(-6454.678 -388.102)" fill="#e2bfaf"/></g><g transform="translate(9.755 19.554)"><g transform="translate(0 2.501)"><rect width="8.627" height="2.003" transform="matrix(0.996, 0.089, -0.089, 0.996, 0.264, 0.087)" fill="#f4dace"/><path d="M6639.592,826.3l-8.753-.778.191-2.155,8.752.778Zm-8.579-.924,8.433.75.163-1.836-8.433-.75Z" transform="translate(-6630.839 -823.365)" fill="#e2bfaf"/></g><g transform="translate(0.222)"><rect width="8.627" height="2.003" transform="translate(0.264 0.087) rotate(5.081)" fill="#f4dace"/><path d="M6644.4,772.186l-8.752-.778.192-2.155,8.752.778Zm-8.578-.924,8.433.75.164-1.836-8.433-.75Z" transform="translate(-6635.649 -769.253)" fill="#e2bfaf"/></g></g><g transform="translate(0.662 18.692)"><g transform="translate(0 2.501)"><rect width="8.627" height="2.003" transform="translate(0.264 0.087) rotate(5.081)" fill="#f4dace"/><path d="M6442.818,807.64l-8.753-.778.192-2.155,8.752.778Zm-8.579-.924,8.434.75.163-1.836-8.434-.75Z" transform="translate(-6434.065 -804.707)" fill="#e2bfaf"/></g><g transform="translate(0.222)"><rect width="8.627" height="2.003" transform="matrix(0.996, 0.089, -0.089, 0.996, 0.264, 0.087)" fill="#f4dace"/><path d="M6447.628,753.528l-8.751-.778.191-2.155,8.752.778Zm-8.578-.924,8.433.75.164-1.836-8.433-.75Z" transform="translate(-6438.877 -750.595)" fill="#e2bfaf"/></g></g><path d="M6616.234,578.832a.481.481,0,1,1-.436-.521A.481.481,0,0,1,6616.234,578.832Z" transform="translate(-6606.239 -567.578)" fill="#e2bfaf"/><path d="M6677.779,584.885a.481.481,0,1,1-.437-.521A.481.481,0,0,1,6677.779,584.885Z" transform="translate(-6664.94 -573.352)" fill="#e2bfaf"/><path d="M6456.264,760.48l-8.087-.719.132-1.49,8.087.719Zm-8.029-.768,7.98.71.124-1.383-7.981-.71Z" transform="translate(-6446.863 -739.224)" fill="#fff"/><path d="M6651.989,777.884l-8.088-.719.133-1.49,8.087.719Zm-8.029-.768,7.98.71.123-1.383-7.98-.71Z" transform="translate(-6633.542 -755.824)" fill="#fff"/><path d="M6647.075,833.147l-8.087-.719.132-1.49,8.087.719Zm-8.03-.768,7.981.71.123-1.383-7.981-.71Z" transform="translate(-6628.856 -808.533)" fill="#fff"/><path d="M6451.453,814.592l-8.087-.719.132-1.49,8.088.719Zm-8.029-.768,7.981.71.124-1.383-7.981-.71Z" transform="translate(-6442.275 -790.836)" fill="#fff"/><path d="M6528.206,778.521a.214.214,0,1,1-.194-.232A.214.214,0,0,1,6528.206,778.521Z" transform="translate(-6522.787 -758.317)" fill="#e2bfaf"/><path d="M6523.5,831.481a.214.214,0,1,1-.194-.232A.214.214,0,0,1,6523.5,831.481Z" transform="translate(-6518.296 -808.829)" fill="#e2bfaf"/><path d="M6728.535,796.334a.213.213,0,1,1-.194-.232A.213.213,0,0,1,6728.535,796.334Z" transform="translate(-6713.859 -775.307)" fill="#e2bfaf"/><path d="M6723.416,853.9a.213.213,0,1,1-.193-.232A.213.213,0,0,1,6723.416,853.9Z" transform="translate(-6708.977 -830.212)" fill="#e2bfaf"/><rect width="0.534" height="11.004" transform="translate(6.483 0.993) rotate(-84.918)" fill="#e2bfaf"/></g><path d="M6871.984,375.716c0-.356.356-1.138.143-1.778a1.929,1.929,0,0,0-3.2-.913.9.9,0,0,0-.146.15,3.823,3.823,0,0,0-.495,1.4,2.512,2.512,0,0,0,.039.937h0l.231.728a2.254,2.254,0,0,0,.619.931c.355.213.6-.107.889-.036s.783,1,.783,1l1.6-1.292A3.526,3.526,0,0,1,6871.984,375.716Z" transform="translate(-636.767 -25.119)" fill="#ffbfb0"/><g transform="translate(6200.638 374.092)"><g transform="translate(0)"><path d="M6221.369,952.475a7.175,7.175,0,0,0,1.037-1.032c.139-.275,1.136.313,1.17.588s-.623,1.067-.8,1.411S6221.23,953.1,6221.369,952.475Z" transform="translate(-6220.402 -951.372)" fill="#ffad94"/><path d="M6204.1,975.653a.292.292,0,0,1-.3.1,15.255,15.255,0,0,1-1.961-1.417c-.306-.281-1.239-.968-1.2-1.209a.3.3,0,0,1,.077-.134,1.559,1.559,0,0,1,.188-.18,7.025,7.025,0,0,1,.613-.444h0c.094-.062.157-.1.157-.1a.38.38,0,0,1,.172.173c.034.1.791.829.963.657s.413.035.482.415.893,1.312.892,1.829A.528.528,0,0,1,6204.1,975.653Z" transform="translate(-6200.638 -971.301)" fill="#214e6f"/><path d="M6204.1,990.626a.292.292,0,0,1-.3.1,15.243,15.243,0,0,1-1.961-1.417c-.306-.281-1.239-.968-1.2-1.209a.3.3,0,0,1,.077-.134A15.9,15.9,0,0,0,6204.1,990.626Z" transform="translate(-6200.638 -986.274)" fill="#b5d7e2"/><path d="M6207.128,974.758l-.449.378-.287-.247a7.015,7.015,0,0,1,.614-.444h0Z" transform="translate(-6206.126 -973.379)" fill="#b5d7e2"/><path d="M6258.885,1028.124l-.066-.039a.827.827,0,0,1,.72-.391l0,.077A.763.763,0,0,0,6258.885,1028.124Z" transform="translate(-6256.13 -1024.166)" fill="#b5d7e2"/></g><path d="M6255.572,1004.2l-.049-.049a.423.423,0,0,0,.163-.347l.067-.013A.485.485,0,0,1,6255.572,1004.2Z" transform="translate(-6252.987 -1001.366)" fill="#fff"/><path d="M6260.686,1010.222l-.057-.038a.419.419,0,0,0,.095-.306l.066-.019A.466.466,0,0,1,6260.686,1010.222Z" transform="translate(-6257.856 -1007.156)" fill="#fff"/><path d="M6251.858,995.437l-.048-.049a.714.714,0,0,0,.2-.592l.067-.013A.77.77,0,0,1,6251.858,995.437Z" transform="translate(-6249.445 -992.778)" fill="#fff"/></g><path d="M6347.393,386.172a3.641,3.641,0,0,0,.343-.961c0-.275-.412-1.716.137-2.334s1.991-1.1,2.746-.343a3.06,3.06,0,0,1,.48,2.677c-.137.549-.412,1.373-.686,1.51s-.687-.137-.824,0-.616.7-.583.832S6347.736,386.24,6347.393,386.172Z" transform="translate(-139.973 -34.361)" fill="#ffad94"/><g transform="translate(6206.702 376.143)"><path d="M6343.669,997.354a7.17,7.17,0,0,0,.462-1.387c0-.308,1.156-.231,1.311,0s-.078,1.233-.078,1.618S6343.823,997.97,6343.669,997.354Z" transform="translate(-6343.123 -995.763)" fill="#ffad94"/><path d="M6336.089,1028.778a.292.292,0,0,1-.224.223,15.25,15.25,0,0,1-2.389-.385c-.4-.114-1.541-.308-1.619-.539a.321.321,0,0,1,.009-.154,1.754,1.754,0,0,1,.087-.246,7.237,7.237,0,0,1,.349-.672h0c.057-.1.095-.16.095-.16a.381.381,0,0,1,.231.077c.077.077,1.079.385,1.155.154s.386-.154.616.154,1.388.771,1.619,1.233A.53.53,0,0,1,6336.089,1028.778Z" transform="translate(-6331.852 -1025.408)" fill="#214e6f"/><path d="M6336.089,1051.045a.292.292,0,0,1-.224.224,15.263,15.263,0,0,1-2.389-.385c-.4-.114-1.541-.308-1.619-.54a.32.32,0,0,1,.009-.154A15.9,15.9,0,0,0,6336.089,1051.045Z" transform="translate(-6331.852 -1047.675)" fill="#b5d7e2"/><path d="M6376.442,1037.806l-.059-.035a1.142,1.142,0,0,1,.618-.5l.018.066A1.1,1.1,0,0,0,6376.442,1037.806Z" transform="translate(-6374.325 -1035.35)" fill="#fff"/><path d="M6384.818,1041.056l-.055-.041a1.515,1.515,0,0,1,.442-.423l.032.061A1.476,1.476,0,0,0,6384.818,1041.056Z" transform="translate(-6382.318 -1038.521)" fill="#fff"/><path d="M6391.424,1044.231l-.061-.031a1.333,1.333,0,0,1,.375-.355l.038.057A1.3,1.3,0,0,0,6391.424,1044.231Z" transform="translate(-6388.613 -1041.624)" fill="#fff"/><path d="M6334.662,1030.538l-.231.539-.367-.092a6.992,6.992,0,0,1,.349-.672h0Z" transform="translate(-6333.961 -1028.716)" fill="#b5d7e2"/><path d="M6404.391,1054.014l-.077-.005a.824.824,0,0,1,.467-.672l.032.071A.759.759,0,0,0,6404.391,1054.014Z" transform="translate(-6400.965 -1050.676)" fill="#b5d7e2"/></g><path d="M6233.887,731.382l.687,5.011a24.637,24.637,0,0,0-3.775,5.148s.755,1.3,1.784,1.441c0,0,4.277-5.213,4.394-5.628s.411-2.2.411-2.2Z" transform="translate(-28.767 -367.457)" fill="#4c7f84"/><path d="M6307.1,476.9s-3.566-.962-3.531-1.2a2.326,2.326,0,0,0,.48-1.441c0-.892-.755-4.667-.343-5.628a5.863,5.863,0,0,1,1.195-1.795,1.425,1.425,0,0,1,.311-.233.508.508,0,0,1,.073-.031l.309-.309a12.523,12.523,0,0,1,1.373,1.167c.274.343.206.343.412.618a6.95,6.95,0,0,1,.813,1.975C6308.343,470.72,6308.816,475.526,6307.1,476.9Z" transform="translate(-98.178 -114.585)" fill="#fdab3f"/><path d="M6296.473,671.652a1.146,1.146,0,0,0-.206.618c0,.343,1.922,4.393,1.922,5.7s-1.373,8.168-1.373,8.168c-.824.549-2.4-.343-2.4-.343.48-3.5.97-7.35.97-7.35l-1.3-1.991a14.28,14.28,0,0,1-1.793-2.946,4.454,4.454,0,0,1,.412-3.02l.558.172" transform="translate(-87.302 -309.374)" fill="#61a1af"/><path d="M6321.4,565.03s.171,1.956.309,2.437,4.015,2.917,4.015,2.917l.584-.789s-2.917-2.162-2.917-2.711-.069-1.853-.069-1.853A4.282,4.282,0,0,1,6321.4,565.03Z" transform="translate(-115.183 -208.792)" fill="#ffad94"/><path d="M6317.938,494.01a1.092,1.092,0,0,0-1.615.809q-.005.036-.007.073c-.068.892,0,2.4,0,2.4a2.33,2.33,0,0,0,2.2-.069s.137-2.471-.412-3.089A.651.651,0,0,0,6317.938,494.01Z" transform="translate(-110.304 -140.92)" fill="#fdab3f"/><path d="M6317.533,561.066a3.835,3.835,0,0,0,2.336-.316l-.1.479a3.6,3.6,0,0,1-2.187.294Z" transform="translate(-111.493 -204.71)" fill="#61a1af"/><path d="M6351.1,423.243s.006.675.006,1.018-.107.532.049.506.363.112.569-.094,0-.755.48-.892.48.686.48.755.343.069.343-.069a1.508,1.508,0,0,1,.456-.991C6353.849,423.163,6351.1,423.243,6351.1,423.243Z" transform="translate(-143.477 -73.549)" fill="#1e3954"/><path d="M6341.714,381.6a4.128,4.128,0,0,1,.082-2.313c.431-1.007.883-.725,1.391-.9s.919-.3,1.308-.016,1.184.463,1.325.816-.114.917-.153,1.319-.4.023-.715.176-.785-.073-.917.156a2.369,2.369,0,0,0-.141.805l-.4.023s.226-.676-.018-.895-.762.058-.747.414.241.57.1.836S6341.694,382.008,6341.714,381.6Z" transform="translate(-134.43 -30.598)" fill="#133952"/><g transform="translate(6230.47 375.954)"><path d="M6905.252,993.644s.256-1.19.3-1.615,1.039-.4,1.315-.3.135,1.585.172,1.945S6905.255,994.359,6905.252,993.644Z" transform="translate(-6902.521 -991.666)" fill="#ffbfb0"/><path d="M6850.889,1030.163c-.1.347-4.444.148-4.714-.02a.831.831,0,0,1,.018-.211.43.43,0,0,1,.249-.335c.105-.041.4-.163.749-.306l.134-.054a14.227,14.227,0,0,1,1.491-.557c.29-.044.142.014.482.189a1.125,1.125,0,0,0,1-.047c.155-.128.388-.32.445-.172,0,0,0,0,0,0a4.388,4.388,0,0,1,.128.661c.017.132.032.268.039.4A1.487,1.487,0,0,1,6850.889,1030.163Z" transform="translate(-6846.174 -1026.888)" fill="#214e6f"/><path d="M6850.889,1053.146c-.1.347-4.444.148-4.714-.02a.83.83,0,0,1,.018-.211h0a17.284,17.284,0,0,0,4.72-.221A1.486,1.486,0,0,1,6850.889,1053.146Z" transform="translate(-6846.174 -1049.872)" fill="#b5d7e2"/><path d="M6940.2,1030.484l-.345.1a2.489,2.489,0,0,1-.024-.5c.012-.121.136-.208.241-.26A4.536,4.536,0,0,1,6940.2,1030.484Z" transform="translate(-6935.5 -1028.06)" fill="#090962"/><path d="M6862.867,1042.495s-.3.14-.341.706l-.071,0a1.006,1.006,0,0,1,.263-.679l.134-.054Z" transform="translate(-6861.703 -1040.116)" fill="#090962"/><g transform="translate(1.465 2.076)"><path d="M6877.92,1037.134l-.053-.013c.119-.493.272-.525.289-.527l.007.054,0-.027,0,.027S6878.029,1036.68,6877.92,1037.134Z" transform="translate(-6877.867 -1036.594)" fill="#090962"/></g><g transform="translate(1.761 1.962)"><path d="M6884.34,1034.653l-.053-.013c.119-.493.271-.525.289-.527l.006.054,0-.027,0,.027S6884.449,1034.2,6884.34,1034.653Z" transform="translate(-6884.287 -1034.113)" fill="#090962"/></g><g transform="translate(2.058 1.847)"><path d="M6890.761,1032.172l-.053-.013c.118-.493.271-.525.289-.527l.006.054,0-.027,0,.027S6890.87,1031.718,6890.761,1032.172Z" transform="translate(-6890.708 -1031.632)" fill="#090962"/></g></g><g transform="translate(6238.486 374.717)"><path d="M7057.552,967.051s-.152-1.1-.251-1.478.766-.669,1.032-.672.612,1.317.757,1.615S7057.778,967.662,7057.552,967.051Z" transform="translate(-7055.553 -964.901)" fill="#ffbfb0"/><path d="M7023.751,995.584c.019.331-3.765,1.518-4.049,1.458a.785.785,0,0,1-.05-.187.39.39,0,0,1,.108-.365c.077-.068.292-.265.546-.5l.1-.089a13.174,13.174,0,0,1,1.1-.944c.235-.128.125-.033.473.011a1.027,1.027,0,0,0,.847-.355c.093-.158.232-.4.328-.287v0a4.166,4.166,0,0,1,.316.527c.057.107.111.22.158.327A1.348,1.348,0,0,1,7023.751,995.584Z" transform="translate(-7019.645 -992.944)" fill="#214e6f"/><path d="M7023.886,1013.833c.019.331-3.765,1.518-4.048,1.458a.77.77,0,0,1-.051-.187v0a15.772,15.772,0,0,0,3.978-1.667A1.334,1.334,0,0,1,7023.886,1013.833Z" transform="translate(-7019.781 -1011.192)" fill="#b5d7e2"/><path d="M7093.273,995.478l-.264.195a2.3,2.3,0,0,1-.177-.423.348.348,0,0,1,.125-.3A4.12,4.12,0,0,1,7093.273,995.478Z" transform="translate(-7089.445 -993.562)" fill="#090962"/><path d="M7032.7,1029s-.215.214-.071.712l-.062.018a.916.916,0,0,1,.013-.665l.1-.089Z" transform="translate(-7031.916 -1026.015)" fill="#090962"/><g transform="translate(1.094 2.538)"><path d="M7043.325,1020.358c-.053-.462.07-.538.083-.545l.026.048s-.1.07-.056.491Z" transform="translate(-7043.312 -1019.813)" fill="#090962"/></g><g transform="translate(1.312 2.346)"><path d="M7048.055,1016.221c-.052-.462.07-.538.084-.545l.025.048-.012-.024.013.024s-.1.07-.056.491Z" transform="translate(-7048.042 -1015.676)" fill="#090962"/></g><g transform="translate(1.531 2.155)"><path d="M7052.786,1012.084c-.053-.462.069-.538.083-.545l.025.048-.013-.024.013.024s-.1.07-.056.491Z" transform="translate(-7052.772 -1011.539)" fill="#090962"/></g></g><path d="M6968.9,725.536a18.587,18.587,0,0,0,1,3.311c.355.446,2.631,4.9,2.631,4.9s1.778.318,2.348-.764l-2.561-5.221-.925-6.43Z" transform="translate(-732.761 -357.873)" fill="#256077"/><path d="M6901.236,477.751c-.513-.642-.866-4.009-1.214-5.115-.111-.356-.2-.669-.269-.9s-.108-.388-.108-.388a8.342,8.342,0,0,1,.569-2.063c.355-.64,1.066-1.849,1.92-1.992.741-.124,1.321.557,1.6,1.018.042.07.077.135.105.191.04.08.08.172.119.274h0a4.949,4.949,0,0,1,.308,1.646c0,.711-.213,5.05.143,5.477S6902.09,478.817,6901.236,477.751Z" transform="translate(-666.705 -115.561)" fill="#7cc5be"/><path d="M6888.406,653.963l.261-.134a3.262,3.262,0,0,1,.592.711l0,0a8.69,8.69,0,0,1,.542.941,1.606,1.606,0,0,1,.137.976,7.385,7.385,0,0,1-1.132,2.27c-.142.382-2.49,4.393-2.561,4.648s.178,6.844.178,6.844l-.364.184a2.3,2.3,0,0,1-1.937.056l-.26-.113s-.854-7.322-.711-7.894,1.778-4.648,2.134-5.348a2.722,2.722,0,0,0,.2-1.43h-.027" transform="translate(-650.96 -293.488)" fill="#2d7396"/><path d="M6851.165,555.014s3.521-1.387,3.734-1.6a12.491,12.491,0,0,0,.213-2.7l1.885.462s0,2.845-.632,3.562c-.667.758-4.952,1.1-4.952,1.1Z" transform="translate(-620.465 -195.135)" fill="#ffbfb0"/><path d="M6931.526,488.927s-.213-2.7.711-2.987,1.28.213,1.351,1,.213,2.347.213,2.347A2.19,2.19,0,0,1,6931.526,488.927Z" transform="translate(-697.092 -133.28)" fill="#7cc5be"/><path d="M6868.5,403.918s-.019.268.408.268.711-.356,1.066-.213.072,1.138.143,1.138h.285s-.071-.64.213-.782a.389.389,0,0,1,.569.356c0,.284-.071.711.213.711s.5-.285.641-.213.142.142.285-.213.355-1.636,0-1.849S6868.5,403.918,6868.5,403.918Z" transform="translate(-637 -54.336)" fill="#ffbfb0"/><path d="M6869.486,373.434a4.3,4.3,0,0,0,.242-2.4c-.3-1.1-.81-.874-1.312-1.128s-.907-.44-1.35-.2-1.288.312-1.484.657.084,1.188.069,1.609.242-.97.546-.768a4.07,4.07,0,0,1,1,1.117,2.475,2.475,0,0,1,.033.852l.41.081s-.138-.731.144-.923.78.167.714.534.317.174.428.47A.333.333,0,0,0,6869.486,373.434Z" transform="translate(-634.149 -22.386)" fill="#611112"/><path d="M6416.506,664.522l-.521-.182c-.076-.039-.166-.083-.26-.129h0c.154-.173.945-.1.945-.238s-.824-.069-.824-.069l-.555.1c-.244-.114-.441-.2-.441-.2l-.618.755s.5.5.79.721l.127.086a5.87,5.87,0,0,0,1.034.259c.259,0,.259.065.259-.065s-.711-.259-.711-.259l-.161-.056.016-.011a6.682,6.682,0,0,0,.986.2c.259,0,.259.065.259-.065s-.711-.259-.711-.259l-.268-.094.042-.042a6.831,6.831,0,0,0,1,.2c.259,0,.259.065.259-.065s-.711-.259-.711-.259l-.342-.119c.009-.013.019-.026.026-.039a5.453,5.453,0,0,0,.833.158c.259,0,.259.065.259-.065S6416.506,664.522,6416.506,664.522Z" transform="translate(-203.723 -302.999)" fill="#ffad94"/><path d="M6802.044,633.839l-.047-.005h0l-.465-.292s-.77-.324-.7-.118.383.143.531.381a2.1,2.1,0,0,0-.35.031h-.73s-.481-.069-.481,0,0,.137.206.206a3.882,3.882,0,0,0,.729.063l0,.005h-.589s-.48-.069-.48,0,0,.137.206.206a4.48,4.48,0,0,0,.82.065.008.008,0,0,0,0,0h-.339s-.48-.069-.48,0,0,.137.207.206a1.347,1.347,0,0,0,.264.04c-.1-.005-.2,0-.2.029,0,.069,0,.137.206.206a2.2,2.2,0,0,0,.436.052c1.28.017,1.614-.3,1.614-.3Zm-1.418.82s-.085-.012-.184-.021c.077,0,.158.009.237.012a.062.062,0,0,0,0,.01Z" transform="translate(-571.344 -273.96)" fill="#ffbfb0"/></g></svg>