<svg xmlns="http://www.w3.org/2000/svg" width="40" height="40" viewBox="0 0 40 40"><g transform="translate(-373 -4007)"><rect width="40" height="40" rx="20" transform="translate(373 4007)" fill="#eb6d4e"/><g transform="translate(349.15 4013.521)"><g transform="translate(30.849 1.025)"><g transform="translate(0)"><path d="M53.182,28.909,44.077,19.8a2.415,2.415,0,0,0-3.709,3.058l-.013.063a16.847,16.847,0,0,1-4.622,8.636l-4.176,4.176a2.413,2.413,0,0,0,0,3.415l2.276,2.276a2.413,2.413,0,0,0,3.415,0l.569-.569L41.8,44.843a2.414,2.414,0,0,0,3.414-3.414l-1.707-1.707.569-.569a2.413,2.413,0,0,0,0-3.414l-.387-.387a16.849,16.849,0,0,1,6.371-2.721l.064-.013a2.417,2.417,0,0,0,3.057-.294h0A2.417,2.417,0,0,0,53.182,28.909ZM36.11,40.291a.8.8,0,0,1-1.138,0L32.7,38.014a.8.8,0,0,1,0-1.138l3.984-3.984,3.415,3.415Zm7.967,2.276a.8.8,0,0,1-1.138,1.138l-3.984-3.984,1.138-1.138Zm-2.845-5.122c.242-.242.6-.613,1.176-1.1l.532.532a.8.8,0,0,1,0,1.138l-.569.569Zm.034-2.242L37.783,31.72A18.43,18.43,0,0,0,41.7,24.257l7.028,7.028A18.429,18.429,0,0,0,41.266,35.2Zm10.778-4.018a.8.8,0,0,1-1.138,0L41.8,22.08a.8.8,0,1,1,1.138-1.138l9.105,9.105A.806.806,0,0,1,52.044,31.185Z" transform="translate(-30.849 -19.098)" fill="#fff"/></g></g><g transform="translate(34.736 17.43)"><g transform="translate(0)"><path d="M105.778,325a.8.8,0,0,0-1.138,0l-1.138,1.138a.8.8,0,0,0,1.138,1.138l1.138-1.138A.8.8,0,0,0,105.778,325Z" transform="translate(-103.266 -324.762)" fill="#fff"/></g></g><g transform="translate(46.969)"><path d="M332,0a.8.8,0,0,0-.8.8v1.61a.8.8,0,1,0,1.61,0V.8A.8.8,0,0,0,332,0Z" transform="translate(-331.194)" fill="#fff"/></g><g transform="translate(51.797 6.438)"><path d="M423.583,119.966h-1.61a.8.8,0,0,0,0,1.61h1.61a.8.8,0,0,0,0-1.61Z" transform="translate(-421.169 -119.966)" fill="#fff"/></g><g transform="translate(50.188 1.61)"><path d="M394.162,30.227a.8.8,0,0,0-1.138,0l-1.61,1.61a.8.8,0,1,0,1.138,1.138l1.61-1.61A.8.8,0,0,0,394.162,30.227Z" transform="translate(-391.178 -29.991)" fill="#fff"/></g></g></g></svg>