<svg xmlns="http://www.w3.org/2000/svg" xmlns:xlink="http://www.w3.org/1999/xlink" width="171" height="167" viewBox="0 0 171 167"><defs><clipPath id="a"><circle cx="83.5" cy="83.5" r="83.5" transform="translate(0 -0.193)" fill="#f3f3f3"/></clipPath></defs><g transform="translate(-228 -3792.807)"><circle cx="83.5" cy="83.5" r="83.5" transform="translate(232 3792.807)" fill="#f7f3e5"/><g transform="translate(228 3793)" clip-path="url(#a)"><g transform="translate(-7.678 -265.87) rotate(45)"><path d="M319.32,202.609l35.093-35.093a1.165,1.165,0,0,0,0-1.687h0a1.183,1.183,0,0,0-1.652,0l-36.508,36.542a1.124,1.124,0,0,0,0,1.652h0a1.185,1.185,0,0,0,1.653,0Z" transform="translate(7.778 -7.778)" fill="#4e4c42" fill-rule="evenodd"/><path d="M300.434,161.113l.31-.723a2.92,2.92,0,0,1,3.786-1.446l.758.344.344-.757,4.992,2.237-.345.758,1.446.619a2.921,2.921,0,0,1,1.446,3.787l-.344.689Z" transform="translate(-4.243 4.243)" fill="#313130" fill-rule="evenodd"/><path d="M314.479,168.136l13.977,13.976a8.041,8.041,0,0,1,0,11.361L304.7,217.227a8,8,0,0,1-11.327,0L279.4,203.25h0a24.817,24.817,0,1,1,35.079-35.114Z" transform="translate(-4.243 4.243)" fill="#fcc900" fill-rule="evenodd"/><path d="M284.667,173.4a17.35,17.35,0,0,1,28.849,17.385l7.47,7.47a1.933,1.933,0,0,1,0,2.685l-8.813,8.813a1.933,1.933,0,0,1-2.685,0l-7.471-7.47a17.357,17.357,0,0,1-17.35-28.883Z" transform="translate(-4.243 4.243)" fill="#313130" fill-rule="evenodd"/><path d="M289.934,178.67a9.481,9.481,0,1,1,0,13.426,9.494,9.494,0,0,1,0-13.426Z" transform="translate(-4.243 4.243)" fill="#e6b802" fill-rule="evenodd"/><path d="M354.069,164.521l4.1,4.1a1.1,1.1,0,0,0,1.583,0h0a1.1,1.1,0,0,0,0-1.583l-4.888-4.889h0a1.1,1.1,0,0,0-1.584,0h0l-8.847,8.848a1.1,1.1,0,0,0,0,1.583h0a1.1,1.1,0,0,0,1.583,0Z" transform="translate(7.778 -7.778)" fill="#252d31" fill-rule="evenodd"/></g></g></g></svg>