<svg xmlns="http://www.w3.org/2000/svg" xmlns:xlink="http://www.w3.org/1999/xlink" width="167" height="167" viewBox="0 0 167 167"><defs><clipPath id="a"><circle cx="83.5" cy="83.5" r="83.5" transform="translate(0 0.29)" fill="#f7f3e5"/></clipPath></defs><g transform="translate(-232 -3793.29)"><circle cx="83.5" cy="83.5" r="83.5" transform="translate(232 3793.29)" fill="#f7f3e5"/><g transform="translate(232 3793)" clip-path="url(#a)"><g transform="translate(-12.87 25.737)"><g transform="translate(-2120.835 -1240.439)"><g transform="translate(2168.299 1280.843)"><path d="M2155.221,1684.6h9.525l1.552,15.381h-12.865Z" transform="translate(-2152.911 -1682.619)" fill="#d2cecb"/><rect width="9.406" height="1.48" transform="translate(11.784 1.48) rotate(180)" fill="#d2cecb"/><path d="M2155.246,1690.254l-5.282-5.657h3.94l2.711,2.386Z" transform="translate(-2149.965 -1682.619)" fill="#d2cecb"/><path d="M2220.474,1692.191a.621.621,0,0,1-.61-.743,13.543,13.543,0,0,0-.51-5.609h-2.933a.621.621,0,0,1,0-1.242h3.843l.142.425a15.478,15.478,0,0,1,.677,6.67A.621.621,0,0,1,2220.474,1692.191Z" transform="translate(-2205.91 -1682.619)" fill="#d2cecb"/><rect width="1.04" height="9.856" transform="translate(7.992 6.189)" fill="#93939e"/></g><g transform="translate(2189.899 1240.483)"><rect width="27.418" height="2.031" transform="translate(1.743 68.933)" fill="#7e7e87"/><g transform="translate(0 0)"><rect width="28.54" height="68.998" transform="translate(0.074 1.275)" fill="#8d8d8d"/><rect width="2.461" height="70.273" transform="translate(28.614 0)" fill="#767676"/><path d="M2562.753,1402.315h-28.591l2.072-1.255h29Z" transform="translate(-2534.163 -1401.06)" fill="#8e8e8e"/></g><rect width="30.581" height="0.822" transform="translate(0.284 35.276)" fill="#767676"/><rect width="30.581" height="0.822" transform="translate(0.284 43.884)" fill="#767676"/><rect width="0.423" height="8.547" transform="translate(19.852 35.76)" fill="#767676"/></g><g transform="translate(2218.285 1254.054)"><g transform="translate(0 0)"><rect width="2.361" height="46.717" transform="translate(31.225 0)" fill="#ddd8d6"/><rect width="27.649" height="2.048" transform="translate(1.93 44.88)" fill="#e5dfdc"/><rect width="31.262" height="44.191" transform="translate(0 2.04)" fill="#f2f0ee"/><path d="M2565.424,1403.1h-31.261l2.23-2.04h31.22Z" transform="translate(-2534.163 -1401.06)" fill="#e5dfdc"/></g><g transform="translate(3.555 4.744)"><path d="M2572.15,1467a12.075,12.075,0,1,1,12.075-12.075A12.089,12.089,0,0,1,2572.15,1467Z" transform="translate(-2560.074 -1442.845)" fill="#403d42"/></g><rect width="7.51" height="10.752" transform="translate(21.175 33.274)" fill="#e5dfdc"/><rect width="30.838" height="0.829" transform="translate(0.212 31.506)" fill="#e5dfdc"/><rect width="5.76" height="2.432" transform="translate(23.735 3.363)" fill="#7e7e87"/><g transform="translate(4.763 5.952)"><path d="M2595.009,1462.513a10.867,10.867,0,0,0-21.036-3.832l14,14A10.884,10.884,0,0,0,2595.009,1462.513Z" transform="translate(-2573.274 -1451.645)" fill="#7e7e87"/><path d="M2579.742,1517.624a10.81,10.81,0,0,0,3.832-.7l-14-14a10.864,10.864,0,0,0,10.168,14.7Z" transform="translate(-2568.874 -1495.888)" fill="#93939e"/></g><rect width="2.56" height="4.438" transform="translate(25.783 14.601)" fill="#bcbcc9"/></g><path d="M2623.843,1638.02" transform="translate(-397.603 -343.731)" fill="#cda771"/><g transform="translate(2180.082 1248.943)"><g transform="translate(4.741 43.882)"><path d="M1165.1,739.375a8.058,8.058,0,0,0-.081,1.075h1.914a8.057,8.057,0,0,0-.081-1.075,2.042,2.042,0,0,1-1.752,0Z" transform="translate(-1165.016 -738.695)" fill="#bab9b9"/><path d="M1167.151,728.771h-.757s-.063.279-.119.68a2.043,2.043,0,0,0,1.752,0c-.055-.4-.119-.68-.119-.68Z" transform="translate(-1166.194 -728.771)" fill="#a6a5a5"/></g><path d="M0,0H.649a0,0,0,0,1,0,0V0A.189.189,0,0,1,.461.189H.189A.189.189,0,0,1,0,0V0A0,0,0,0,1,0,0Z" transform="translate(0.589 48.83)" fill="#8c8c8c"/><path d="M.189,0H.461A.189.189,0,0,1,.649.189v0a0,0,0,0,1,0,0H0a0,0,0,0,1,0,0v0A.189.189,0,0,1,.189,0Z" transform="translate(10.807 49.019) rotate(180)" fill="#8c8c8c"/><path d="M0,0H.649a0,0,0,0,1,0,0V0A.189.189,0,0,1,.461.189H.189A.189.189,0,0,1,0,0V0A0,0,0,0,1,0,0Z" transform="translate(2.503 48.83)" fill="#8c8c8c"/><path d="M0,0H.649a0,0,0,0,1,0,0V0A.189.189,0,0,1,.461.189H.189A.189.189,0,0,1,0,0V0A0,0,0,0,1,0,0Z" transform="translate(4.416 48.83)" fill="#8c8c8c"/><path d="M0,0H.649a0,0,0,0,1,0,0V0A.189.189,0,0,1,.461.189H.189A.189.189,0,0,1,0,0V0A0,0,0,0,1,0,0Z" transform="translate(6.33 48.83)" fill="#8c8c8c"/><path d="M0,0H.649a0,0,0,0,1,0,0V0A.189.189,0,0,1,.461.189H.189A.189.189,0,0,1,0,0V0A0,0,0,0,1,0,0Z" transform="translate(8.243 48.83)" fill="#8c8c8c"/><path d="M1102.12,796.787h-10.6c-.2,0-.362-.051-.4-.227v.183a.408.408,0,0,0,.407.416h10.582a.408.408,0,0,0,.407-.416v-.183C1102.482,796.737,1102.315,796.787,1102.12,796.787Z" transform="translate(-1091.122 -748.329)" fill="#bab9b9"/><g transform="translate(2.679 34.043)"><path d="M1153.294,709.207a2.722,2.722,0,0,1-1.826-.647c.282.962.9,1.7,1.826,1.7s1.544-.739,1.826-1.7A2.722,2.722,0,0,1,1153.294,709.207Z" transform="translate(-1150.275 -700.018)" fill="#c44823"/><path d="M1138.908,575.987h-.712l-.276-.31a.728.728,0,0,0-.544-.244h-2.959a.728.728,0,0,0-.544.244l-.276.31h-.711a39.186,39.186,0,0,0,1.136,7.808q.022.091.048.179a2.9,2.9,0,0,0,3.652,0q.026-.089.048-.179A39.178,39.178,0,0,0,1138.908,575.987Z" transform="translate(-1132.879 -575.433)" fill="#9f3718"/></g><path d="M1146.3,601.071c.575,0,1.177-.246,1.281-.545a48.677,48.677,0,0,0,1.02-6.046.816.816,0,0,0-.812-.9h-2.979a.816.816,0,0,0-.812.9,48.742,48.742,0,0,0,1.02,6.046c.1.3.707.545,1.282.545Z" transform="translate(-1140.599 -558.372)" fill="#6d6d6d"/><path d="M.221,0h.62a.221.221,0,0,1,.221.221v0A.221.221,0,0,1,.841.443H.221A.221.221,0,0,1,0,.221v0A.221.221,0,0,1,.221,0Z" transform="translate(5.167 34.388)" fill="#f0f0f0"/><g transform="translate(2.687)"><path d="M1164.432,45.315a.35.35,0,0,0-.049-.149.625.625,0,0,0-1.093,0,.346.346,0,0,0-.049.149c-.066,2.25-.32,13.072-.508,20.661h2.207C1164.752,58.387,1164.5,47.565,1164.432,45.315Z" transform="translate(-1160.826 -44.844)" fill="#c44823"/><path d="M1137.878,459.225a4,4,0,0,1-.547-2.224c-.01-.043-.038-.979-.079-2.487h-2.469c-.04,1.508-.069,2.444-.079,2.487a4,4,0,0,1-.547,2.224,5.472,5.472,0,0,0-1.15,3.6h.712l.275-.31a.728.728,0,0,1,.544-.244h2.959a.728.728,0,0,1,.544.244l.276.31h.712A5.472,5.472,0,0,0,1137.878,459.225Z" transform="translate(-1133.007 -428.229)" fill="#c44823"/><path d="M1163.193,380.586h-2.227c-.041,1.657-.079,3.145-.11,4.333h2.447C1163.272,383.731,1163.234,382.243,1163.193,380.586Z" transform="translate(-1159.069 -359.044)" fill="#c44823"/><path d="M1163.144,448.126H1160.7q-.006.211-.011.41h2.469Q1163.15,448.337,1163.144,448.126Z" transform="translate(-1158.91 -422.251)" fill="#bab9b9"/><path d="M1164.792,374.2h-2.206q-.005.207-.01.41h2.227Q1164.8,374.406,1164.792,374.2Z" transform="translate(-1160.678 -353.067)" fill="#bab9b9"/></g><path d="M1174.311,103.1a.386.386,0,0,1-.385-.385v-.672a.385.385,0,0,1,.77,0v.672A.386.386,0,0,1,1174.311,103.1Z" transform="translate(-1168.613 -98.015)" fill="#666"/><g transform="translate(5.46 3.793)"><path d="M1176.7,104.195a.238.238,0,0,0-.476,0v.336h.476Z" transform="translate(-1176.222 -103.957)" fill="gray"/><path d="M1176.222,112.9v.336a.238.238,0,0,0,.476,0V112.9Z" transform="translate(-1176.222 -112.322)" fill="#666"/></g><path d="M1173.944,430.358a.391.391,0,1,1,.391.391A.391.391,0,0,1,1173.944,430.358Z" transform="translate(-1168.63 -405.257)" fill="#666"/><circle cx="0.236" cy="0.236" r="0.236" transform="translate(5.469 24.865)" fill="#bab9b9"/><g transform="translate(3.886 35.701)"><path d="M1161.227,629.264c.1.523.214,1.07.344,1.633a.4.4,0,0,0,.239.281,1.671,1.671,0,0,0,1.233,0,.4.4,0,0,0,.239-.281c.4-1.734.652-3.32.806-4.492Z" transform="translate(-1160.615 -624.793)" fill="#1f1f1f"/><path d="M1155.309,601.632a.322.322,0,0,0-.321-.356h-2.979a.323.323,0,0,0-.321.356c.087.846.269,2.338.61,4.116l2.862-2.859C1155.228,602.386,1155.276,601.96,1155.309,601.632Z" transform="translate(-1151.687 -601.276)" fill="#515151"/></g><path d="M1102.507,753.667l-.194-.95a1.384,1.384,0,0,0-.909-.985l-3.1-.888a.461.461,0,0,0-.524.187.34.34,0,0,1-.3.131h-1.315a.34.34,0,0,1-.3-.131.461.461,0,0,0-.523-.187l-3.1.888a1.384,1.384,0,0,0-.91.985l-.194.95c-.061.249.131.316.387.316h10.6C1102.376,753.984,1102.568,753.916,1102.507,753.667Z" transform="translate(-1091.122 -705.525)" fill="#c44823"/></g></g><rect width="194" height="110" transform="translate(-0.131 -0.447)" fill="#fff" opacity="0"/><path d="M2488.041,1478.044c0,.6-23.792,1.082-53.141,1.082s-53.145-.484-53.145-1.082,23.794-1.076,53.145-1.076S2488.041,1477.451,2488.041,1478.044Z" transform="translate(-2338.88 -1383.573)" fill="#8e8e8f"/><path d="M2484.937,1459.01a1.081,1.081,0,0,1-.135-.031c-.027-.007-.054-.02-.08-.029s-.08-.026-.119-.044-.058-.027-.085-.043-.075-.038-.111-.06-.06-.039-.089-.059-.068-.045-.1-.07l-.09-.075c-.033-.027-.065-.053-.1-.083s-.06-.058-.09-.088-.062-.062-.094-.094l-.093-.1c-.028-.034-.059-.068-.088-.105s-.061-.078-.092-.118-.057-.075-.083-.114-.061-.087-.092-.133-.054-.082-.08-.124-.061-.1-.091-.149-.05-.085-.076-.128-.06-.11-.09-.167-.046-.089-.07-.134-.061-.121-.092-.183c-.021-.044-.043-.092-.065-.138-.029-.065-.059-.134-.091-.2l-.058-.14c-.03-.072-.06-.146-.091-.22-.018-.045-.035-.093-.054-.139-.029-.078-.059-.159-.088-.239-.017-.048-.034-.095-.051-.14-.028-.086-.057-.173-.087-.262-.014-.044-.028-.087-.044-.132-.028-.094-.058-.188-.087-.284-.011-.042-.025-.087-.037-.129-.029-.1-.06-.2-.086-.31-.011-.037-.021-.075-.031-.113-.03-.113-.058-.225-.086-.339-.008-.033-.015-.067-.025-.1-.028-.121-.058-.243-.084-.367,0-.026-.012-.055-.018-.081-.029-.132-.056-.266-.084-.405,0-.015-.007-.031-.01-.049a31.351,31.351,0,0,1-.551-5.4h-5.344c.124,6.332,1.885,11.355,4.04,11.355h5.344a1.452,1.452,0,0,1-.206-.015C2484.982,1459.022,2484.959,1459.015,2484.937,1459.01Z" transform="translate(-2400.403 -1364.422)" fill="#302d2c"/><g transform="translate(130.79 16.809)"><g transform="translate(0)"><path d="M2652.6,1285.956c-.231-1.846-6.207-24.216-6.888-26.683a5.359,5.359,0,0,0-4.512-3.654h-5.065v3.972c2.489.005,4.213.014,4.72.029,1.207.035,1.587.884,1.971,1.688s5.211,21.175,5.668,22.22-.054,2.01-1.742,2.01h-10.617v5.087h-.185a.424.424,0,0,1,.423.423v.651a.423.423,0,0,1-.423.424l-.1,0v11.893h16.814c.02,0,.04.006.06.006l0-13.911A17.555,17.555,0,0,0,2652.6,1285.956Z" transform="translate(-2635.85 -1255.619)" fill="#1a1a1a"/></g></g><path d="M2649.031,1291.035c-.458-1.045-5.287-21.416-5.668-22.22s-.764-1.653-1.971-1.688c-.507-.015-2.231-.024-4.72-.029v25.947h10.617C2648.976,1293.045,2649.487,1292.081,2649.031,1291.035Z" transform="translate(-2505.596 -1246.317)" fill="#fff" opacity="0.4"/><g transform="translate(133.576 42.283)"><path d="M2648.833,1329.244h-4.93c.086.55.136.88.14.9a4.218,4.218,0,0,0,.341,1.572h6.584a2.433,2.433,0,0,1,1.693.885,3.579,3.579,0,0,0,2.706,1.2,3.833,3.833,0,0,0,0-1.472c-.039-.343-.127-.829-.258-1.432h-2.647A6.123,6.123,0,0,0,2648.833,1329.244Z" transform="translate(-2643.902 -1329.244)" fill="#1a1a1a"/></g><g transform="translate(133.203 39.847)"><path d="M2642.824,1322.2c.11.716.207,1.349.286,1.865a4.845,4.845,0,0,1,1.405,3.045h1.27A5.837,5.837,0,0,0,2642.824,1322.2Z" transform="translate(-2642.824 -1322.205)"/></g><g transform="translate(131.074 16.809)"><path d="M2637.033,1304.019H2653.2c.02,0,.04.006.06.006l0-13.911a17.577,17.577,0,0,0-.128-4.158c-.231-1.846-6.207-24.216-6.888-26.683a5.359,5.359,0,0,0-4.512-3.654h-5.065v3.615h6.59c1.728,0,2.364,2.291,2.573,3.044.261.937,2.95,11.236,4.685,17.9a36.3,36.3,0,0,1,.854,3.918c.173,1.47-.014,1.9-.2,2.1a.589.589,0,0,1-.445.2,4.327,4.327,0,0,1-3.312-1.4c-.461-.435-.742-.68-1.18-.68h-6.647c-.718,0-.95-1.216-1.02-2.236-.014-.089-1.047-6.806-1.9-12.406v13.672c.224,1.661.362,2.687.362,2.687Z" transform="translate(-2636.671 -1255.619)" fill="#999"/></g><g transform="translate(141.492 68.929)"><path d="M2666.779,1406.258c.449,1,.825,2.1,1.181,3.019a32.733,32.733,0,0,1,1.664,8.783c-.045.727.2,3.086-.674,4.7.864-.01,1.769-.017,2.642-.017,3.481,0,4.157-16.481,4.157-16.481Z" transform="translate(-2666.779 -1406.258)" fill="#1a1a1a"/></g><path d="M2635.753,1396.05a6.235,6.235,0,0,1,2.668.5,5.066,5.066,0,0,1,2.076,2.676h8.97s-1.069-3.721-2.856-3.721h-19.376a.6.6,0,0,0-.642.549C2629.9,1396.048,2633.379,1396.046,2635.753,1396.05Z" transform="translate(-2499.005 -1330.295)" fill="#262626"/><path d="M2681.775,1363.643h.776V1367h-1.1v-2.432S2681.475,1363.643,2681.775,1363.643Z" transform="translate(-2534.883 -1309.458)" fill="#e85400"/><rect width="1.1" height="7.663" transform="translate(146.568 57.545)" fill="#c9c9c9"/><path d="M2636.134,1335.754v7.279h-.185a.424.424,0,0,1,.423.423v.651a.423.423,0,0,1-.423.424l-.1,0v11.9h.646v-17.995S2636.358,1337.415,2636.134,1335.754Z" transform="translate(-2505.06 -1291.219)" fill="#d4d5d5"/><path d="M2655.1,1422.8c0,6.666-1.811,12.071-4.046,12.071s-4.049-5.4-4.049-12.071,1.812-12.071,4.049-12.071S2655.1,1416.134,2655.1,1422.8Z" transform="translate(-2512.356 -1340.252)" fill="#474645"/><path d="M2498.843,1412.055a32.726,32.726,0,0,0-1.664-8.783c-.795-2.05-1.682-5-3.256-5.7a6.236,6.236,0,0,0-2.668-.5c-1.61,0-3.73,0-5.957,0v.778h.138a.424.424,0,0,1,.425.424v.79a.424.424,0,0,1-.425.422h-24.39a.445.445,0,0,0,.126-.026h-55.523v10.647h2.33a34.283,34.283,0,0,0-.2,3.759c0,6.666,1.813,12.071,4.048,12.071,2.155,0,3.915-5.023,4.04-11.355h19.409c.124,6.332,1.885,11.355,4.04,11.355,2,0,3.656-4.316,3.985-9.988h13.062c.332,5.672,1.989,9.988,3.984,9.988h5.347a1.41,1.41,0,0,1-.342-.046c-.014,0-.028-.007-.043-.011a1.9,1.9,0,0,1-.317-.126c-.018-.012-.036-.019-.054-.03a2.222,2.222,0,0,1-.3-.21c-.017-.013-.032-.027-.048-.04a3.223,3.223,0,0,1-.3-.294l-.022-.027a4.651,4.651,0,0,1-.305-.386l0-.006c-.1-.142-.2-.3-.291-.462-.008-.015-.018-.03-.025-.046-.093-.163-.183-.336-.269-.518-.01-.02-.02-.04-.028-.062-.088-.186-.173-.383-.254-.59l-.017-.04a17.046,17.046,0,0,1-.687-2.254l0-.021c-.066-.276-.126-.563-.183-.857a.208.208,0,0,1-.005-.023,29.856,29.856,0,0,1-.478-3.932s0,0,0-.007c-.04-.677-.062-1.372-.062-2.083,0-6.666,1.813-12.071,4.048-12.071s4.047,5.405,4.047,12.071c0,1-.042,1.971-.118,2.9a.117.117,0,0,1,0,.016h14.313c.437,5.256,2.03,9.154,3.928,9.154h5.345a1.408,1.408,0,0,1-.32-.04.523.523,0,0,1-.053-.013,1.544,1.544,0,0,1-.3-.117.564.564,0,0,1-.057-.027,2.228,2.228,0,0,1-.3-.195.21.21,0,0,1-.022-.018,3.181,3.181,0,0,1-.281-.258c-.011-.013-.025-.024-.038-.038a3.959,3.959,0,0,1-.274-.33c-.016-.02-.032-.042-.047-.063-.091-.125-.181-.255-.267-.4a.506.506,0,0,0-.027-.044c-.088-.148-.172-.3-.257-.469,0-.006-.007-.015-.01-.02-.084-.169-.167-.349-.247-.536-.011-.025-.021-.049-.031-.073-.078-.188-.154-.382-.229-.587a.591.591,0,0,1-.02-.058q-.23-.643-.423-1.385c0-.018-.01-.035-.014-.053-.064-.246-.125-.5-.18-.76,0-.018-.009-.037-.012-.056-.117-.541-.221-1.111-.307-1.708a.036.036,0,0,1,0-.008c-.044-.3-.083-.6-.118-.905,0-.018,0-.035-.006-.053a34.822,34.822,0,0,1-.213-3.858c0-6.666,1.812-12.071,4.048-12.071s4.046,5.405,4.046,12.071c0,1.007-.042,1.982-.118,2.917h1.017C2499.05,1415.176,2498.8,1412.787,2498.843,1412.055Z" transform="translate(-2354.507 -1331.324)" fill="#1a1311"/><path d="M2657.479,1431.279c0,4.188-1.032,7.584-2.306,7.584s-2.306-3.4-2.306-7.584,1.033-7.585,2.306-7.585S2657.479,1427.091,2657.479,1431.279Z" transform="translate(-2516.189 -1348.732)" fill="#ebebeb"/><g transform="translate(47.926 70.476)"><path d="M2408.137,1411.219a1.656,1.656,0,0,1,1.356.711,2.291,2.291,0,0,1,1.76-1.2h-3.722c-.063.145-.126.289-.186.441h-2.518c-.018.014-.034.035-.053.05Z" transform="translate(-2401.862 -1410.728)" fill="#302d2c"/><path d="M2401.7,1439.152c0-1.188.058-2.336.166-3.42h-5.342c-.107,1.085-.168,2.231-.168,3.42,0,6.666,1.811,12.071,4.048,12.071h5.344C2403.511,1451.223,2401.7,1445.818,2401.7,1439.152Z" transform="translate(-2396.355 -1427.081)" fill="#302d2c"/></g><path d="M2575.581,1422.8c0,6.666-1.812,12.071-4.047,12.071s-4.048-5.4-4.048-12.071,1.813-12.071,4.048-12.071S2575.581,1416.134,2575.581,1422.8Z" transform="translate(-2460.349 -1340.252)" fill="#474645"/><path d="M2577.961,1431.279c0,4.188-1.032,7.584-2.305,7.584s-2.306-3.4-2.306-7.584,1.032-7.585,2.306-7.585S2577.961,1427.091,2577.961,1431.279Z" transform="translate(-2464.185 -1348.732)" fill="#ebebeb"/><g transform="translate(105.657 68.162)"><path d="M2570.109,1404.04h-6.9c.957,0,1.725.993,2.321,2.314h3.207c1.653,0,3.074,2.958,3.7,7.194h.917s.5.016.5-.751C2573.852,1411.466,2572.5,1404.04,2570.109,1404.04Z" transform="translate(-2563.211 -1404.04)" fill="#302d2c"/></g><g transform="translate(51.815 68.162)"><path d="M2414.492,1404.04h-6.9c.955,0,1.723.993,2.316,2.314h3.186c1.653,0,3.074,2.958,3.7,7.194h.939s.5.016.5-.751C2418.235,1411.466,2416.885,1404.04,2414.492,1404.04Z" transform="translate(-2407.595 -1404.04)" fill="#302d2c"/></g><path d="M2575.581,1422.8c0,6.666-1.812,12.071-4.047,12.071s-4.048-5.4-4.048-12.071,1.813-12.071,4.048-12.071S2575.581,1416.134,2575.581,1422.8Z" transform="translate(-2460.349 -1340.252)" fill="#474645"/><path d="M2577.961,1431.279c0,4.188-1.032,7.584-2.305,7.584s-2.306-3.4-2.306-7.584,1.032-7.585,2.306-7.585S2577.961,1427.091,2577.961,1431.279Z" transform="translate(-2464.185 -1348.732)" fill="#ebebeb"/><path d="M2658.916,1441.312c0,1.256-.31,2.275-.692,2.275s-.69-1.019-.69-2.275.31-2.276.69-2.276S2658.916,1440.055,2658.916,1441.312Z" transform="translate(-2519.241 -1358.766)" fill="#474645"/><path d="M2579.4,1441.312c0,1.256-.31,2.275-.691,2.275s-.692-1.019-.692-2.275.31-2.276.692-2.276S2579.4,1440.055,2579.4,1441.312Z" transform="translate(-2467.234 -1358.766)" fill="#474645"/><path d="M2655.574,1439.991c-1.361,0-2.094-3.254-2.094-6.315s.734-6.317,2.094-6.317,2.094,3.256,2.094,6.317S2656.934,1439.991,2655.574,1439.991Zm0-12.134c-.754,0-1.6,2.488-1.6,5.819s.842,5.819,1.6,5.819,1.6-2.49,1.6-5.819S2656.327,1427.857,2655.574,1427.857Z" transform="translate(-2516.589 -1351.129)" fill="#1a1311"/><path d="M2576.056,1439.991c-1.361,0-2.094-3.254-2.094-6.315s.733-6.317,2.094-6.317,2.093,3.256,2.093,6.317S2577.415,1439.991,2576.056,1439.991Zm0-12.134c-.668,0-1.6,2.214-1.6,5.819s.93,5.819,1.6,5.819,1.6-2.213,1.6-5.819S2576.721,1427.857,2576.056,1427.857Z" transform="translate(-2464.584 -1351.129)" fill="#1a1311"/><path d="M2645.162,1354.126a.422.422,0,0,0,.421.422h1.975a.422.422,0,0,0,.421-.422v-1.268a.421.421,0,0,0-.421-.422h-1.975a.422.422,0,0,0-.421.422Z" transform="translate(-2511.15 -1302.128)" fill="#262626"/><g transform="translate(100.469 68.162)"><g transform="translate(0 2.754)"><path d="M2548.235,1412c-.006.016-.012.034-.019.05h.36a1.659,1.659,0,0,1,1.656,1.658v4.845a1.524,1.524,0,0,1-.02.2h2.661a.745.745,0,0,0,.783-.752,21.784,21.784,0,0,1,1.344-6Z" transform="translate(-2548.215 -1412.001)" fill="#b3b3b3"/></g><path d="M2557.541,1404.04h-6.9c-.969,0-1.766,1.216-2.373,2.755h6.766C2555.651,1405.257,2556.481,1404.04,2557.541,1404.04Z" transform="translate(-2548.252 -1404.04)" fill="#5f5e5e"/></g><g transform="translate(46.645 68.162)"><path d="M2401.922,1404.04h-6.9c-.968,0-1.766,1.216-2.373,2.755h6.766C2400.031,1405.257,2400.862,1404.04,2401.922,1404.04Z" transform="translate(-2392.651 -1404.04)" fill="#5f5e5e"/></g><g transform="translate(55.062 71.216)"><path d="M2453.633,1412.866H2416.98a1.654,1.654,0,0,1,.8,1.409v4.845a1.655,1.655,0,0,1-.8,1.409h36.653a1.654,1.654,0,0,1-.8-1.409v-4.845A1.654,1.654,0,0,1,2453.633,1412.866Z" transform="translate(-2416.98 -1412.866)" fill="#474645"/></g><path d="M2458.575,1420.971a.423.423,0,0,1-.423.423h-22.373a.422.422,0,0,1-.421-.423v-5.391a.423.423,0,0,1,.421-.424h22.373a.424.424,0,0,1,.423.424Z" transform="translate(-2373.937 -1343.148)" fill="#d9d9d9"/><path d="M2566.072,1357.865a.424.424,0,0,1-.424.424h24.389a.423.423,0,0,0,.424-.424v-.651a.425.425,0,0,0-.424-.423h-24.389a.425.425,0,0,1,.424.423Z" transform="translate(-2459.148 -1304.977)" fill="#b2b2b3"/><path d="M2566.181,1400.541a.424.424,0,0,1-.425.422h24.39a.424.424,0,0,0,.425-.422v-.79a.424.424,0,0,0-.425-.424h-24.39a.425.425,0,0,1,.425.424Z" transform="translate(-2459.218 -1332.796)" fill="#8e8e8f"/><rect width="24.498" height="13.223" transform="translate(106.292 53.315)" fill="#a6a7a7"/><rect width="9.432" height="8.949" transform="translate(119.198 72.325)" fill="#bdbebf"/><rect width="24.498" height="1.798" transform="translate(106.292 53.315)" fill="#8e8e8f"/><path d="M2374.638,1400.541a.423.423,0,0,0,.423.422h65.7a.423.423,0,0,0,.422-.422v-.79a.423.423,0,0,0-.422-.424h-65.7a.424.424,0,0,0-.423.424Z" transform="translate(-2334.226 -1332.796)" fill="#bdbebf"/><path d="M2374.987,1357.865a.414.414,0,0,0,.407.424h65.576a.414.414,0,0,0,.406-.424v-.651a.416.416,0,0,0-.406-.423h-65.576a.416.416,0,0,0-.407.423Z" transform="translate(-2334.454 -1304.977)" fill="#e0e0e0"/><rect width="65.037" height="13.223" transform="translate(41.256 53.315)" fill="#e0e0e0"/><rect width="65.037" height="1.798" transform="translate(41.256 53.315)" fill="#bdbebf"/><path d="M2650.633,1292.427a33.693,33.693,0,0,0-.835-3.817c-1.734-6.662-4.423-16.954-4.683-17.887-.467-1.682-1.073-2.5-1.854-2.5h-6.59v4.706c.8,5.348,2.62,17.165,2.642,17.309a4.215,4.215,0,0,0,.341,1.572h6.584a2.433,2.433,0,0,1,1.693.885,3.579,3.579,0,0,0,2.706,1.2A3.826,3.826,0,0,0,2650.633,1292.427Z" transform="translate(-2505.596 -1247.055)" fill="#fff" opacity="0.2"/><path d="M2651.373,1290.928a36.325,36.325,0,0,0-.854-3.918c-1.735-6.664-4.424-16.963-4.685-17.9-.208-.753-.844-3.044-2.573-3.044h-6.59v.747h6.59c.781,0,1.386.817,1.854,2.5.26.933,2.948,11.225,4.683,17.887a33.693,33.693,0,0,1,.835,3.817,3.826,3.826,0,0,1,0,1.472,3.579,3.579,0,0,1-2.706-1.2,2.433,2.433,0,0,0-1.693-.885h-6.584a4.215,4.215,0,0,1-.341-1.572c-.022-.144-1.842-11.961-2.642-17.309v4.986c.854,5.6,1.887,12.317,1.9,12.406.069,1.021.3,2.236,1.02,2.236h6.647c.437,0,.718.245,1.18.68a4.327,4.327,0,0,0,3.313,1.4.589.589,0,0,0,.445-.2C2651.358,1292.824,2651.546,1292.4,2651.373,1290.928Z" transform="translate(-2505.596 -1245.642)" fill="#1a1311"/><g transform="translate(44.298 70.967)"><path d="M2405.165,1414.746a1.163,1.163,0,0,0-1.162-1.16h-5.549v7.165H2404a1.163,1.163,0,0,0,1.162-1.16Z" transform="translate(-2394.1 -1413.089)" fill="#e12f15"/><g transform="translate(0)"><path d="M2387.306,1419.651a1.154,1.154,0,0,0,1.155,1.1h2.206v-7.165h-2.206a1.156,1.156,0,0,0-1.155,1.111Z" transform="translate(-2386.808 -1413.089)" fill="#f38200"/><path d="M2395.772,1412.147h-8.252a1.654,1.654,0,0,0-1.652,1.6v4.974a1.652,1.652,0,0,0,1.652,1.587h8.252a1.661,1.661,0,0,0,1.658-1.657V1413.8A1.66,1.66,0,0,0,2395.772,1412.147Zm-6.046,7.663h-2.206a1.153,1.153,0,0,1-1.154-1.1v-4.954a1.155,1.155,0,0,1,1.155-1.11h2.206Zm7.207-1.16a1.163,1.163,0,0,1-1.161,1.16h-5.549v-7.165h5.549a1.162,1.162,0,0,1,1.161,1.16Z" transform="translate(-2385.869 -1412.147)"/></g></g><g transform="translate(90.918 70.967)"><path d="M2522.047,1419.591a1.164,1.164,0,0,0,1.163,1.16h5.564v-7.165h-5.564a1.163,1.163,0,0,0-1.163,1.16Z" transform="translate(-2521.55 -1413.089)" fill="#e12f15"/><path d="M2546.274,1414.746a1.162,1.162,0,0,0-1.16-1.16h-2.19v7.165h2.19a1.162,1.162,0,0,0,1.16-1.16Z" transform="translate(-2535.203 -1413.089)" fill="#f38200"/><path d="M2530.52,1412.147h-8.251a1.66,1.66,0,0,0-1.66,1.658v4.845a1.661,1.661,0,0,0,1.66,1.657h8.251a1.659,1.659,0,0,0,1.656-1.657V1413.8A1.658,1.658,0,0,0,2530.52,1412.147Zm-2.687,7.663h-5.564a1.163,1.163,0,0,1-1.162-1.16V1413.8a1.163,1.163,0,0,1,1.162-1.16h5.564Zm3.847-1.16a1.163,1.163,0,0,1-1.16,1.16h-2.19v-7.165h2.19a1.162,1.162,0,0,1,1.16,1.16Z" transform="translate(-2520.609 -1412.147)"/></g><path d="M2680.976,1324.108a1.692,1.692,0,0,0,1.693,1.69h3.74a1.691,1.691,0,0,0,1.69-1.69v-6.561a1.691,1.691,0,0,0-1.69-1.691h-3.74a1.692,1.692,0,0,0-1.693,1.691Z" transform="translate(-2534.573 -1278.205)"/><path d="M2.309,0h0A2.31,2.31,0,0,1,4.62,2.31V6.223A2.311,2.311,0,0,1,2.31,8.534h0A2.31,2.31,0,0,1,0,6.224V2.309A2.309,2.309,0,0,1,2.309,0Z" transform="translate(147.58 38.355)" fill="#ebebeb"/></g></g></g></svg>