<svg xmlns="http://www.w3.org/2000/svg" xmlns:xlink="http://www.w3.org/1999/xlink" width="167" height="167" viewBox="0 0 167 167"><defs><clipPath id="a"><circle cx="83.5" cy="83.5" r="83.5" transform="translate(0 -0.299)" fill="#f7f3e5"/></clipPath></defs><g transform="translate(-232 -3792.701)"><circle cx="83.5" cy="83.5" r="83.5" transform="translate(232 3792.701)" fill="#f7f3e5"/><g transform="translate(232 3793)" clip-path="url(#a)"><g transform="translate(29.92 56.534)"><g transform="translate(10.595 10.595)"><g transform="translate(0 0)"><rect width="91.784" height="45.399" transform="translate(0.42 0.42)" fill="#fff"/><path d="M727.377-919.774H634.753v-46.239h92.624Zm-91.784-.84h90.944v-44.558H635.593Z" transform="translate(-634.753 966.013)" fill="#bfbfbf"/></g><g transform="translate(2.99 1.907)"><rect width="38.447" height="18.751" rx="9.375" fill="#e3e3e3"/></g><g transform="translate(1.964 32.191)"><path d="M670.772-787.358h71.189c.962,0,1.924,0,2.886,0h.126c.647,0,1.266.2,1.237.435s-.543.435-1.237.435H673.784c-.962,0-1.924,0-2.886,0h-.126c-.647,0-1.266-.2-1.237-.435s.543-.435,1.237-.435Z" transform="translate(-669.534 787.36)" fill="#1e70f4"/></g><g transform="translate(1.964 29.459)"><path d="M670.772-800.358h71.189c.962,0,1.924,0,2.886,0h.126c.647,0,1.266.2,1.237.435s-.543.435-1.237.435H673.784c-.962,0-1.924,0-2.886,0h-.126c-.647,0-1.266-.2-1.237-.435s.543-.435,1.237-.435Z" transform="translate(-669.534 800.36)" fill="#1e70f4"/></g><g transform="translate(53.158 3.192)"><rect width="24.244" height="7.906" fill="#1e70f4"/></g></g><g transform="translate(0 0)"><rect width="91.784" height="45.399" transform="translate(0.42 0.42)" fill="#fff"/><path d="M702.377-944.774H609.753v-46.239h92.625Zm-91.784-.84h90.944v-44.558H610.593Z" transform="translate(-609.753 991.013)" fill="#bfbfbf"/></g><g transform="translate(8.333 7.25)"><rect width="38.447" height="18.751" rx="3" transform="translate(0 0)" fill="#e3e3e3"/></g><g transform="translate(8.568 35.643)"><path d="M651.772-821.358h71.189c.962,0,1.924,0,2.886,0h.126c.647,0,1.266.2,1.237.435s-.543.435-1.237.435H654.784c-.962,0-1.924,0-2.886,0h-.126c-.647,0-1.266-.2-1.237-.435s.543-.435,1.237-.435Z" transform="translate(-650.534 821.36)" fill="#12a58e"/></g><g transform="translate(8.568 38.374)"><path d="M651.772-808.358h71.189c.962,0,1.924,0,2.886,0h.126c.647,0,1.266.2,1.237.435s-.543.435-1.237.435H654.784c-.962,0-1.924,0-2.886,0h-.126c-.647,0-1.266-.2-1.237-.435s.543-.435,1.237-.435Z" transform="translate(-650.534 808.36)" fill="#12a58e"/></g><g transform="translate(8.568 32.911)"><path d="M651.772-834.358h71.189c.962,0,1.924,0,2.886,0h.126c.647,0,1.266.2,1.237.435s-.543.435-1.237.435H654.784c-.962,0-1.924,0-2.886,0h-.126c-.647,0-1.266-.2-1.237-.435s.543-.435,1.237-.435Z" transform="translate(-650.534 834.36)" fill="#12a58e"/></g><g transform="translate(58.501 8.535)"><rect width="24.244" height="3.631" transform="translate(0)" fill="#12a58e"/><rect width="24.244" height="3.631" transform="translate(0 4.274)" fill="#12a58e"/></g></g></g></g></svg>