<svg xmlns="http://www.w3.org/2000/svg" xmlns:xlink="http://www.w3.org/1999/xlink" width="167" height="167" viewBox="0 0 167 167"><defs><clipPath id="a"><circle cx="83.5" cy="83.5" r="83.5" transform="translate(0 0.095)" fill="#f7f3e5"/></clipPath></defs><g transform="translate(-232 -3793.095)"><circle cx="83.5" cy="83.5" r="83.5" transform="translate(232 3793.095)" fill="#f7f3e5"/><g transform="translate(232 3793)" clip-path="url(#a)"><g transform="translate(-45.457 -318.812)"><path d="M1831.977,873.939l-59.731,43.4,38.171,15.461,22.649-55.487A2.435,2.435,0,0,0,1831.977,873.939Z" transform="translate(-1650.357 -494.264)" fill="#c2c3c3"/><g transform="translate(121.533 365.31)"><g transform="translate(0 0)"><path d="M1759.614,421.626l22.514-55.017a2.09,2.09,0,0,1,2.72-1.146l34.3,13.885a2.1,2.1,0,0,1,1.152,2.723l-22.513,55.016Z" transform="translate(-1759.614 -365.31)" fill="#d6d7d8"/><path d="M1992.866,2097.34a2.093,2.093,0,0,0-1.145-2.717l-2.772-1.121a2.094,2.094,0,0,0-2.715,1.153h0a2.092,2.092,0,0,0,1.148,2.717l2.769,1.123a2.088,2.088,0,0,0,2.714-1.155Z" transform="translate(-1979.684 -2044.546)" fill="#726d7c"/><path d="M2286.7,2216.271a2.1,2.1,0,0,0-1.154-2.721l-2.769-1.124a2.1,2.1,0,0,0-2.718,1.154v0a2.1,2.1,0,0,0,1.153,2.721l2.764,1.116a2.094,2.094,0,0,0,2.723-1.147Z" transform="translate(-2265.214 -2160.113)" fill="#726d7c"/><path d="M2580.336,2335.25a2.091,2.091,0,0,0-1.147-2.716l-2.774-1.128a2.1,2.1,0,0,0-2.717,1.155l0,0a2.1,2.1,0,0,0,1.156,2.719l2.77,1.122a2.093,2.093,0,0,0,2.716-1.154Z" transform="translate(-2550.554 -2275.732)" fill="#726d7c"/><path d="M2876.49,2248.64a2.094,2.094,0,0,0-1.15-2.717l-2.769-1.122a2.093,2.093,0,0,0-2.72,1.149l-2.352,5.81a2.087,2.087,0,0,0,1.146,2.716l2.775,1.127a2.1,2.1,0,0,0,2.716-1.155Z" transform="translate(-2836.059 -2191.571)" fill="#33374b"/><path d="M2076.133,1891.793a2.089,2.089,0,0,0-1.147-2.714l-2.765-1.117a2.1,2.1,0,0,0-2.722,1.148h0a2.1,2.1,0,0,0,1.152,2.724l2.768,1.115a2.086,2.086,0,0,0,2.714-1.156Z" transform="translate(-2060.599 -1844.808)" fill="#726d7c"/><path d="M2369.892,2010.637a2.1,2.1,0,0,0-1.154-2.719l-2.768-1.124a2.1,2.1,0,0,0-2.719,1.156h0a2.1,2.1,0,0,0,1.154,2.72l2.764,1.117a2.1,2.1,0,0,0,2.723-1.151Z" transform="translate(-2346.054 -1960.288)" fill="#726d7c"/><path d="M2663.655,2129.691a2.094,2.094,0,0,0-1.148-2.714l-2.77-1.123a2.1,2.1,0,0,0-2.724,1.149h0a2.093,2.093,0,0,0,1.154,2.72l2.771,1.122a2.094,2.094,0,0,0,2.717-1.155Z" transform="translate(-2631.519 -2075.982)" fill="#726d7c"/><path d="M2159.378,1686.089a2.1,2.1,0,0,0-1.153-2.723l-2.77-1.122a2.1,2.1,0,0,0-2.718,1.154h0a2.1,2.1,0,0,0,1.155,2.72l2.77,1.122a2.093,2.093,0,0,0,2.715-1.152Z" transform="translate(-2141.489 -1644.904)" fill="#726d7c"/><path d="M2453.143,1805.123a2.1,2.1,0,0,0-1.152-2.722l-2.769-1.117a2.1,2.1,0,0,0-2.721,1.151h0a2.1,2.1,0,0,0,1.155,2.719l2.769,1.125a2.1,2.1,0,0,0,2.718-1.156Z" transform="translate(-2426.956 -1760.581)" fill="#726d7c"/><path d="M2746.929,1924.02a2.092,2.092,0,0,0-1.144-2.718l-2.771-1.121a2.1,2.1,0,0,0-2.724,1.15h0a2.1,2.1,0,0,0,1.152,2.722l2.77,1.123a2.1,2.1,0,0,0,2.716-1.156Z" transform="translate(-2712.446 -1876.119)" fill="#726d7c"/><path d="M3040.754,2042.951a2.1,2.1,0,0,0-1.15-2.723l-2.771-1.12a2.1,2.1,0,0,0-2.717,1.154h0a2.1,2.1,0,0,0,1.152,2.722l2.771,1.123a2.093,2.093,0,0,0,2.717-1.156Z" transform="translate(-2997.974 -1991.689)" fill="#282b36"/><path d="M2242.66,1480.489a2.1,2.1,0,0,0-1.144-2.718l-2.772-1.121a2.1,2.1,0,0,0-2.724,1.149h0a2.1,2.1,0,0,0,1.154,2.721l2.769,1.124a2.1,2.1,0,0,0,2.717-1.155Z" transform="translate(-2222.421 -1445.113)" fill="#726d7c"/><path d="M2536.431,1599.4a2.094,2.094,0,0,0-1.151-2.723l-2.767-1.117a2.083,2.083,0,0,0-2.717,1.157h0a2.087,2.087,0,0,0,1.148,2.715l2.77,1.123a2.086,2.086,0,0,0,2.718-1.155Z" transform="translate(-2507.894 -1560.666)" fill="#726d7c"/><path d="M2830.145,1718.381a2.1,2.1,0,0,0-1.152-2.723l-2.768-1.123a2.1,2.1,0,0,0-2.724,1.151h0a2.1,2.1,0,0,0,1.152,2.721l2.77,1.124a2.1,2.1,0,0,0,2.723-1.15Z" transform="translate(-2793.306 -1676.281)" fill="#726d7c"/><path d="M3124.08,1837.318a2.089,2.089,0,0,0-1.147-2.719l-2.771-1.121a2.08,2.08,0,0,0-2.714,1.157h0a2.089,2.089,0,0,0,1.146,2.716l2.775,1.13a2.088,2.088,0,0,0,2.711-1.162Z" transform="translate(-3078.95 -1791.864)" fill="#282b36"/><path d="M2325.87,1274.941a2.1,2.1,0,0,0-1.146-2.717l-2.77-1.123a2.1,2.1,0,0,0-2.719,1.153h0a2.091,2.091,0,0,0,1.148,2.718l2.77,1.121a2.093,2.093,0,0,0,2.716-1.152Z" transform="translate(-2303.281 -1245.372)" fill="#726d7c"/><path d="M2619.757,1393.784a2.089,2.089,0,0,0-1.148-2.718l-2.77-1.124a2.093,2.093,0,0,0-2.716,1.157h0a2.1,2.1,0,0,0,1.152,2.723l2.764,1.115a2.084,2.084,0,0,0,2.717-1.154Z" transform="translate(-2588.869 -1360.857)" fill="#726d7c"/><path d="M2913.486,1512.87a2.1,2.1,0,0,0-1.148-2.72l-2.774-1.125a2.1,2.1,0,0,0-2.719,1.151h0a2.092,2.092,0,0,0,1.15,2.716l2.771,1.123a2.1,2.1,0,0,0,2.721-1.146Z" transform="translate(-2874.297 -1476.576)" fill="#726d7c"/><path d="M3207.305,1631.729a2.1,2.1,0,0,0-1.152-2.722l-2.77-1.122a2.091,2.091,0,0,0-2.716,1.156h0a2.088,2.088,0,0,0,1.147,2.714l2.775,1.129a2.094,2.094,0,0,0,2.715-1.156Z" transform="translate(-3159.82 -1592.079)" fill="#282b36"/><path d="M2416.943,1065.1l-2.766-1.119a1.632,1.632,0,1,0-1.182,2.9l2.769,1.121a1.632,1.632,0,1,0,1.179-2.9Z" transform="translate(-2393.149 -1044.059)" fill="#282b36"/><path d="M2710.809,1184.06l-2.763-1.118a1.632,1.632,0,1,0-1.176,2.9l2.769,1.124a1.632,1.632,0,1,0,1.171-2.911Z" transform="translate(-2678.72 -1159.658)" fill="#282b36"/><path d="M3004.466,1303.029l-2.771-1.122a1.632,1.632,0,1,0-1.182,2.9l2.778,1.125a1.631,1.631,0,1,0,1.175-2.9Z" transform="translate(-2964.074 -1275.263)" fill="#282b36"/><path d="M3298.4,1421.9l-2.761-1.117a1.632,1.632,0,1,0-1.177,2.9l2.771,1.12a1.631,1.631,0,1,0,1.167-2.908Z" transform="translate(-3249.721 -1390.78)" fill="#282b36"/><g transform="translate(33.674 56.447)"><path d="M2989.124,2364.311l-.965-.389-1.716,4.239.963.39Z" transform="translate(-2985.468 -2363.922)" fill="#fff"/><path d="M2952.3,2398.316l-.391.965,4.242,1.718.391-.964Z" transform="translate(-2951.913 -2397.345)" fill="#fff"/></g><g transform="translate(39.941 42.16)"><path d="M3203.082,1858.071l-.808.35,1.521,3.6.819-.352Z" transform="translate(-3201.469 -1858.071)" fill="#fff"/><path d="M3173.786,1887.963l.346.821,3.6-1.518-.352-.823Z" transform="translate(-3173.786 -1885.642)" fill="#fff"/></g><g transform="translate(37.211 48.68)"><path d="M3077.516,2088.911l-.392.969,4.241,1.718.4-.968Z" transform="translate(-3077.123 -2088.911)" fill="#fff"/></g><g transform="translate(42.262 36.73)"><path d="M3256.3,1683.281l-.335.833,3.635,1.471.332-.831Z" transform="translate(-3255.965 -1682.787)" fill="#fff"/><path d="M3319.485,1666.1a.5.5,0,0,0,.279.64.489.489,0,1,0-.279-.64Z" transform="translate(-3317.66 -1665.797)" fill="#fff"/><path d="M3288.47,1742.639a.49.49,0,0,0,.909.369.49.49,0,1,0-.909-.369Z" transform="translate(-3287.517 -1740.17)" fill="#fff"/></g><path d="M2535.195,608.185a.845.845,0,0,0-.46-1.114L2504.8,594.949a.881.881,0,0,0-1.134.469l-3.173,7.461a.844.844,0,0,0,.46,1.114l29.937,12.122a.881.881,0,0,0,1.134-.469Z" transform="translate(-2479.501 -588.402)" fill="#678797"/><path d="M2534.734,629.142l-4.266-1.727a19.421,19.421,0,0,1-4.154,1.134c-3.495.59-7.152,1.035-10.649.214a15.31,15.31,0,0,1-4.791-2.085,18.77,18.77,0,0,1-3.985-3.41,15.733,15.733,0,0,1-1.553-2.09,20.522,20.522,0,0,1-1.089-2.072c-.223-.478-.446-.984-.631-1.506l-3.126,7.351a.844.844,0,0,0,.46,1.114l29.937,12.122a.881.881,0,0,0,1.134-.469l3.172-7.461A.845.845,0,0,0,2534.734,629.142Z" transform="translate(-2479.501 -610.474)" fill="#517384"/></g><rect width="2.293" height="10.481" transform="matrix(0.388, -0.922, 0.922, 0.388, 46.599, 13.565)" fill="#33374b"/><path d="M3429.92,788.878l-1.8-.76-.6,1.428,1.567.66C3429.367,789.767,3429.651,789.327,3429.92,788.878Z" transform="translate(-3380.408 -776.177)" fill="#1b2a3e"/><path d="M3497.183,821.238l.1-.2L3495,820.08c-.269.449-.552.89-.838,1.329l2.49,1.049C3496.817,822.047,3496.985,821.636,3497.183,821.238Z" transform="translate(-3445.171 -807.236)" fill="#1b2a3e"/><path d="M3597.28,859.943l-1.993-.839c-.056.114-.112.228-.166.342-.167.353-.314.714-.462,1.075l1.958.825A5.681,5.681,0,0,0,3597.28,859.943Z" transform="translate(-3542.832 -845.157)" fill="#1b2a3e"/><path d="M3675.722,893.554a5.9,5.9,0,0,1-.661,1.4l1.934.815.6-1.428Z" transform="translate(-3620.963 -878.635)" fill="#1b2a3e"/></g><path d="M1250.718,938.335l.324-3.157.015,0a5.222,5.222,0,0,1-2.018-.811,5.8,5.8,0,0,1-2.433-4.17l-3.137.482a8.852,8.852,0,0,0,3.977,6.438A8.157,8.157,0,0,0,1250.718,938.335Z" transform="translate(-1136.514 -548.934)" fill="#bfdce4"/><path d="M79.909,1706.134a3.876,3.876,0,1,1-3.876,3.876A3.876,3.876,0,0,1,79.909,1706.134Zm-1.938,3.876a1.938,1.938,0,1,0,1.938-1.938A1.938,1.938,0,0,0,77.971,1710.01Z" transform="translate(-2.05 -1302.955)" fill="#aacdd6"/><path d="M276.815,1081.181c-.508-3.916-1.523-9.4-6.6-13.313-4.372-3.372-10.687-3.394-19.8-3.394s-15.427.022-19.8,3.394c-5.077,3.916-6.092,9.4-6.6,13.313a26.872,26.872,0,0,0,.761,9.658l25.383-.261h.508l25.383.261A26.869,26.869,0,0,0,276.815,1081.181Z" transform="translate(-145.697 -679.419)" fill="#aacdd6"/><path d="M637.438,1072.818a45.684,45.684,0,0,0,2.729,10.133,37.7,37.7,0,0,0,2.2,4.747,20.335,20.335,0,0,0,1.96,2.95l6.729-.069h.508l10.714.11a10.916,10.916,0,0,0,.346-1.922,32.547,32.547,0,0,0,.022-4.3,49.034,49.034,0,0,1,.058-5.669c.077-.967.194-1.931.364-2.886.177-.993.427-1.97.641-2.955.391-1.8.728-3.62,1.19-5.408.19-.737.4-1.467.648-2.186-3.756-.88-8.428-.889-14.236-.889-6.161,0-11.043.01-14.911,1.059C636.9,1067.932,637.1,1070.392,637.438,1072.818Z" transform="translate(-546.584 -679.419)" fill="#bfdce4"/><path d="M332.727,1183.737h-.532l-23.47.241a23.242,23.242,0,0,1-.3-6.948,24.1,24.1,0,0,1,1.432-6.068,13.209,13.209,0,0,1,4.259-5.664,13.861,13.861,0,0,1,6.975-2.485,93.728,93.728,0,0,1,11.367-.412,93.727,93.727,0,0,1,11.367.412,13.862,13.862,0,0,1,6.975,2.485,13.209,13.209,0,0,1,4.259,5.664,24.107,24.107,0,0,1,1.432,6.068,23.125,23.125,0,0,1-.295,6.948Z" transform="translate(-227.741 -774.58)" fill="#b99d5f"/><path d="M1162.255,751.228a3.756,3.756,0,1,1-3.756-3.756A3.756,3.756,0,0,1,1162.255,751.228Z" transform="translate(-1050.294 -371.369)" fill="#bfdce4"/><circle cx="3.005" cy="3.005" r="3.005" transform="translate(103.681 379.676) rotate(-45)" fill="#dbecf0"/><path d="M1278.21,817.349a1.076,1.076,0,1,0,1.076-1.076A1.076,1.076,0,0,0,1278.21,817.349Z" transform="translate(-1170.274 -438.227)" fill="#fff"/><path d="M134.292,1267.095c-2.285-4.734-5.347-9.03-6.346-12.333-2.411-7.973-8.63-11.461-11.8-11.461H93.3c-3.173,0-9.392,3.488-11.8,11.461-1,3.3-4.061,7.6-6.346,12.333-1.371,2.842-3.173,14.326,4.442,17.565a49.023,49.023,0,0,0,4.909,1.821c3.721,2.908,11.434,4.906,20.347,4.906,9.043,0,16.853-2.057,20.508-5.036,1.4-.445,2.867-1,4.494-1.692C137.465,1281.421,135.664,1269.936,134.292,1267.095Z" transform="translate(-0.001 -853.194)" fill="#ffce00"/><g transform="translate(73.923 390.107)"><path d="M134.543,2107.277c-2.615,9.081-14.972,15.957-29.823,15.957s-27.208-6.876-29.823-15.957c-1.3,3.594-2.46,13.915,4.694,16.958a49.051,49.051,0,0,0,4.909,1.821c3.721,2.908,11.434,4.906,20.347,4.906,9.043,0,16.852-2.057,20.508-5.035,1.4-.445,2.867-1,4.494-1.691C137,2121.192,135.846,2110.872,134.543,2107.277Z" transform="translate(-73.923 -2082.876)" fill="#edbf00"/><path d="M458.794,1250.087c-2.928-4.679-7.232-6.785-9.7-6.785H426.252c-2.465,0-6.77,2.106-9.7,6.785,5.461-3.414,12.91-5.516,21.12-5.516S453.333,1246.672,458.794,1250.087Z" transform="translate(-406.877 -1243.301)" fill="#d92d1b"/></g><path d="M763.051,1051.971l-.324-3.157h-.015a5.219,5.219,0,0,0,2.018-.811,5.8,5.8,0,0,0,2.433-4.171l3.137.482a8.853,8.853,0,0,1-3.976,6.438A8.16,8.16,0,0,1,763.051,1051.971Z" transform="translate(-669.335 -659.36)" fill="#bfdce4"/><g transform="translate(77.711 389.063)"><path d="M223.614,1211.38h22.845a13.174,13.174,0,0,1,11.8,9.254,17.673,17.673,0,0,0,3.873,5.963c.222-1.49-.417-3.663-.7-5.546-.508-3.383-1.534-8.4-6.611-11.787-4.372-2.913-10.4-2.92-19.513-2.92s-15.627.007-20,2.92c-5.077,3.383-6.165,8.4-6.673,11.787-.283,1.883-.778,3.892-.556,5.382a12.754,12.754,0,0,0,3.729-5.8A13.174,13.174,0,0,1,223.614,1211.38Z" transform="translate(-208.027 -1206.344)" fill="#bfdce4"/></g><g transform="translate(95.64 380.959)"><path d="M842.854,923.144a3.756,3.756,0,1,0,3.756-3.756A3.756,3.756,0,0,0,842.854,923.144Z" transform="translate(-842.854 -919.388)" fill="#bfdce4"/><circle cx="3.005" cy="3.005" r="3.005" transform="translate(0.814 0.772) rotate(-5.204)" fill="#dbecf0"/><path d="M992.085,986.4a1.076,1.076,0,1,0,1.076-1.076A1.076,1.076,0,0,0,992.085,986.4Z" transform="translate(-987.87 -983.467)" fill="#fff"/></g></g></g></g></svg>