<svg xmlns="http://www.w3.org/2000/svg" xmlns:xlink="http://www.w3.org/1999/xlink" width="167" height="167" viewBox="0 0 167 167"><defs><clipPath id="a"><circle cx="83.5" cy="83.5" r="83.5" transform="translate(0 -0.327)" fill="#f7f3e5"/></clipPath></defs><g transform="translate(-232 -3792.673)"><circle cx="83.5" cy="83.5" r="83.5" transform="translate(232 3792.673)" fill="#f7f3e5"/><g transform="translate(232 3793)" clip-path="url(#a)"><g transform="translate(-2123.37 -1205.955)"><g transform="translate(2163.459 1244.314)"><rect width="31.47" height="2.331" transform="translate(2.196 77.656)" fill="#7e7e87"/><g transform="translate(0 0)"><rect width="32.758" height="79.195" transform="translate(2.824)" fill="#8d8d8d"/><rect width="2.824" height="79.195" fill="#767676"/></g><rect width="35.1" height="0.944" transform="translate(0.241 39.026)" fill="#767676"/><rect width="35.1" height="0.944" transform="translate(0.241 48.906)" fill="#767676"/><rect width="0.486" height="9.81" transform="translate(12.395 39.581)" fill="#767676"/></g><g transform="translate(2207.682 1258.31)"><g transform="translate(0 9.552)"><rect width="30.272" height="2.242" transform="translate(2.113 50.22)" fill="#e5dfdc"/><rect width="34.227" height="48.383" transform="translate(0 3.317)" fill="#f0ddce"/><path d="M2568.39,1404.377h-34.227l2.441-3.317h29.011Z" transform="translate(-2534.163 -1401.06)" fill="#efe3db"/></g><g transform="translate(3.893 15.829)"><path d="M2573.295,1469.287a13.221,13.221,0,1,1,13.221-13.221A13.236,13.236,0,0,1,2573.295,1469.287Z" transform="translate(-2560.074 -1442.845)" fill="#8d7a71"/></g><rect width="8.222" height="11.772" transform="translate(23.183 47.065)" fill="#8d7a71"/><rect width="33.764" height="0.908" transform="translate(0.232 45.129)" fill="#8d7a71"/><rect width="6.307" height="2.663" transform="translate(25.986 14.317)" fill="#8d7a71"/><g transform="translate(5.215 17.151)"><path d="M2597,1463.544a11.9,11.9,0,0,0-23.032-4.2l15.328,15.328A11.917,11.917,0,0,0,2597,1463.544Z" transform="translate(-2573.207 -1451.645)" fill="#879999"/><path d="M2580.773,1519.018a11.84,11.84,0,0,0,4.2-.766l-15.328-15.328a11.894,11.894,0,0,0,11.133,16.094Z" transform="translate(-2568.874 -1495.22)" fill="#afc9c8"/></g><rect width="2.803" height="4.858" transform="translate(28.229 26.621)" fill="#8d7a71"/><g transform="translate(5.749 0)"><rect width="19.124" height="10.815" fill="#8d8d8d"/><rect width="11.474" height="6.99" transform="translate(2.177 2.506)" fill="#403d42"/><rect width="0.33" height="8.21" transform="translate(14.739 1.286)" fill="#e5dfdc"/><rect width="2.308" height="1.291" transform="translate(15.967 1.286)" fill="#fff"/><g transform="translate(15.959 5.49)"><rect width="1.03" height="0.576" fill="#fff"/><rect width="1.03" height="0.576" transform="translate(1.286)" fill="#fff"/></g><g transform="translate(15.959 6.282)"><rect width="1.03" height="0.576" fill="#fff"/><rect width="1.03" height="0.576" transform="translate(1.286)" fill="#fff"/></g><g transform="translate(15.959 7.073)"><rect width="1.03" height="0.576" fill="#fff"/><rect width="1.03" height="0.576" transform="translate(1.286)" fill="#fff"/></g><g transform="translate(15.959 7.864)"><rect width="1.03" height="0.576" fill="#fff"/><rect width="1.03" height="0.576" transform="translate(1.286)" fill="#fff"/></g><path d="M2682.149,1359.645a.741.741,0,1,1-.741.741A.741.741,0,0,1,2682.149,1359.645Z" transform="translate(-2665.036 -1356.315)" fill="#fff"/><path d="M2592.05,1344.512h-12.315a.28.28,0,1,1,0-.561h12.315a.28.28,0,0,1,0,.561Z" transform="translate(-2578.399 -1342.978)" fill="#fff"/></g></g><path d="M2623.843,1638.02" transform="translate(-402.688 -334.559)" fill="#cda771"/><g transform="translate(2185.872 1290.962)"><rect width="17.767" height="2.395" transform="translate(16.322 18.469)" fill="#d2cecb"/><rect width="50.412" height="1.757" transform="translate(0 20.558)" fill="#cda771"/><rect width="50.412" height="1.757" transform="translate(0 33.366)" fill="#cda771"/><rect width="34.294" height="19.007" transform="translate(8.059)" fill="#d2cecb"/><g transform="translate(8.916 0.961)"><path d="M2601.245,1561.22H2589.94l11.305,11.305Z" transform="translate(-2568.666 -1561.22)" fill="#403d42"/><path d="M2448.327,1561.22v17.085h32.58v-1.982l-15.1-15.1Z" transform="translate(-2448.327 -1561.22)" fill="#403d42"/><path d="M2568.456,1561.22h-3.8l15.1,15.1v-3.8Z" transform="translate(-2547.181 -1561.22)" fill="#524d55"/></g><g transform="translate(3.367 25.375)"><rect width="5.922" height="7.994" fill="#d2cecb"/><rect width="5.33" height="6.446" transform="translate(0.296 0.358)" fill="#403d42"/><g transform="translate(37.755)"><rect width="5.922" height="7.994" fill="#d2cecb"/><rect width="5.33" height="6.446" transform="translate(0.296 0.358)" fill="#403d42"/></g></g><g transform="translate(14.283 30.128)"><rect width="18.664" height="0.72" transform="translate(1.59 2.521)" fill="#a9a09c"/><rect width="21.845" height="2.881" fill="#d2cecb"/><rect width="9.602" height="0.255" transform="translate(10.922 1.313)" fill="#93939e"/><rect width="0.78" height="0.78" transform="translate(0.95 0.96)" fill="#a9a09c"/></g></g><g transform="translate(2149.964 1305.228)"><path d="M2287.867,1659.731a.489.489,0,0,1-.489-.489v-6.277a2.206,2.206,0,0,0-2.2-2.2h-11.52a2.205,2.205,0,0,0-2.2,2.2v6.277a.489.489,0,1,1-.978,0v-6.277a3.184,3.184,0,0,1,3.181-3.181h11.52a3.184,3.184,0,0,1,3.181,3.181v6.277A.489.489,0,0,1,2287.867,1659.731Z" transform="translate(-2252.369 -1649.784)" fill="#d2cecb"/><rect width="16.212" height="16.212" rx="8.106" transform="translate(18.939 4.398)" fill="#e5dfdc"/><rect width="0.575" height="14.315" transform="translate(19.889 9.458) rotate(-90)" fill="#f2f0ee"/><rect width="6.845" height="4.205" transform="translate(23.623 10.606)" fill="#7e7e87"/><g transform="translate(24.793 5.664)"><path d="M2315.943,1687.486a.949.949,0,1,1-.95.95A.949.949,0,0,1,2315.943,1687.486Z" transform="translate(-2314.994 -1687.486)" fill="#7e7e87"/><path d="M2333.292,1687.486a.949.949,0,1,1-.949.95A.95.95,0,0,1,2333.292,1687.486Z" transform="translate(-2329.736 -1687.486)" fill="#7e7e87"/></g><g transform="translate(0 3.252)"><path d="M2155.221,1684.6h9.525l1.552,15.381h-12.865Z" transform="translate(-2152.911 -1682.619)" fill="#d2cecb"/><rect width="9.406" height="1.48" transform="translate(11.784 1.48) rotate(180)" fill="#d2cecb"/><path d="M2155.246,1690.254l-5.282-5.657h3.94l2.711,2.386Z" transform="translate(-2149.965 -1682.619)" fill="#d2cecb"/><path d="M2220.474,1692.191a.621.621,0,0,1-.61-.743,13.543,13.543,0,0,0-.51-5.609h-2.933a.621.621,0,0,1,0-1.242h3.843l.142.425a15.478,15.478,0,0,1,.677,6.67A.621.621,0,0,1,2220.474,1692.191Z" transform="translate(-2205.91 -1682.619)" fill="#d2cecb"/><rect width="1.04" height="9.856" transform="translate(7.992 6.189)" fill="#93939e"/></g></g><g transform="translate(2246.609 1269.825)"><g transform="translate(5.443 50.38)"><path d="M1165.109,739.375a9.248,9.248,0,0,0-.093,1.235h2.2a9.246,9.246,0,0,0-.093-1.235,2.345,2.345,0,0,1-2.012,0Z" transform="translate(-1165.016 -738.594)" fill="#bab9b9"/><path d="M1167.281,728.771h-.869s-.073.321-.136.781a2.346,2.346,0,0,0,2.011,0c-.063-.46-.136-.781-.136-.781Z" transform="translate(-1166.182 -728.771)" fill="#a6a5a5"/></g><path d="M0,0H.746a0,0,0,0,1,0,0V0A.217.217,0,0,1,.529.217H.217A.217.217,0,0,1,0,0V0A0,0,0,0,1,0,0Z" transform="translate(0.677 56.061)" fill="#8c8c8c"/><path d="M.217,0H.529A.217.217,0,0,1,.746.217v0a0,0,0,0,1,0,0H0a0,0,0,0,1,0,0v0A.217.217,0,0,1,.217,0Z" transform="translate(12.407 56.277) rotate(180)" fill="#8c8c8c"/><path d="M0,0H.746a0,0,0,0,1,0,0V0A.217.217,0,0,1,.529.217H.217A.217.217,0,0,1,0,0V0A0,0,0,0,1,0,0Z" transform="translate(2.874 56.061)" fill="#8c8c8c"/><path d="M0,0H.746a0,0,0,0,1,0,0V0A.217.217,0,0,1,.529.217H.217A.217.217,0,0,1,0,0V0A0,0,0,0,1,0,0Z" transform="translate(5.07 56.061)" fill="#8c8c8c"/><path d="M0,0H.746a0,0,0,0,1,0,0V0A.217.217,0,0,1,.529.217H.217A.217.217,0,0,1,0,0V0A0,0,0,0,1,0,0Z" transform="translate(7.267 56.061)" fill="#8c8c8c"/><path d="M0,0H.746a0,0,0,0,1,0,0V0A.217.217,0,0,1,.529.217H.217A.217.217,0,0,1,0,0V0A0,0,0,0,1,0,0Z" transform="translate(9.464 56.061)" fill="#8c8c8c"/><path d="M1103.748,796.821h-12.169c-.224,0-.416-.058-.457-.261v.21a.469.469,0,0,0,.467.477h12.149a.468.468,0,0,0,.467-.477v-.21C1104.164,796.763,1103.972,796.821,1103.748,796.821Z" transform="translate(-1091.122 -741.187)" fill="#bab9b9"/><g transform="translate(3.076 39.084)"><path d="M1153.564,709.3a3.125,3.125,0,0,1-2.1-.743c.323,1.1,1.031,1.953,2.1,1.953s1.773-.848,2.1-1.953A3.125,3.125,0,0,1,1153.564,709.3Z" transform="translate(-1150.099 -698.753)" fill="#c44823"/><path d="M1139.8,576.069h-.817l-.316-.356a.836.836,0,0,0-.624-.28h-3.4a.835.835,0,0,0-.624.28l-.317.356h-.817c-.125,2.576,1.039,7.873,1.3,8.964.017.07.035.138.055.206a3.329,3.329,0,0,0,4.193,0c.02-.068.039-.136.056-.206C1138.762,583.943,1139.926,578.645,1139.8,576.069Z" transform="translate(-1132.879 -575.433)" fill="#9f3718"/></g><path d="M1146.638,602.18c.66,0,1.351-.283,1.471-.625a55.875,55.875,0,0,0,1.171-6.941.937.937,0,0,0-.932-1.033h-3.42a.937.937,0,0,0-.932,1.033,55.94,55.94,0,0,0,1.171,6.941c.12.343.812.625,1.471.625Z" transform="translate(-1140.096 -553.159)" fill="#6d6d6d"/><path d="M.254,0H.966A.254.254,0,0,1,1.22.254v0A.254.254,0,0,1,.966.508H.254A.254.254,0,0,1,0,.254v0A.254.254,0,0,1,.254,0Z" transform="translate(5.932 39.48)" fill="#f0f0f0"/><g transform="translate(3.085)"><path d="M1164.683,45.384a.4.4,0,0,0-.056-.171.718.718,0,0,0-1.255,0,.4.4,0,0,0-.056.171c-.076,2.583-.367,15.008-.583,23.721h2.533C1165.051,60.392,1164.76,47.967,1164.683,45.384Z" transform="translate(-1160.543 -44.844)" fill="#c44823"/><path d="M1138.6,459.923a4.6,4.6,0,0,1-.628-2.554c-.011-.049-.044-1.124-.09-2.855h-2.835c-.046,1.732-.079,2.806-.09,2.855a4.6,4.6,0,0,1-.628,2.554,6.282,6.282,0,0,0-1.32,4.134h.817l.316-.356a.836.836,0,0,1,.624-.28h3.4a.836.836,0,0,1,.624.28l.316.356h.817A6.283,6.283,0,0,0,1138.6,459.923Z" transform="translate(-1133.007 -424.337)" fill="#c44823"/><path d="M1163.539,380.586h-2.556c-.047,1.9-.091,3.61-.127,4.975h2.81C1163.629,384.2,1163.586,382.489,1163.539,380.586Z" transform="translate(-1158.804 -355.854)" fill="#c44823"/><path d="M1163.508,448.126h-2.81q-.007.243-.013.471h2.835Q1163.515,448.369,1163.508,448.126Z" transform="translate(-1158.647 -418.419)" fill="#bab9b9"/><path d="M1165.12,374.2h-2.533q-.006.237-.011.47h2.557Q1165.126,374.436,1165.12,374.2Z" transform="translate(-1160.397 -349.938)" fill="#bab9b9"/></g><path d="M1174.368,103.315a.443.443,0,0,1-.442-.442V102.1a.442.442,0,0,1,.884,0v.771A.443.443,0,0,1,1174.368,103.315Z" transform="translate(-1167.826 -97.475)" fill="#666"/><g transform="translate(6.269 4.354)"><path d="M1176.768,104.23a.273.273,0,0,0-.546,0v.385h.546Z" transform="translate(-1176.222 -103.957)" fill="gray"/><path d="M1176.222,112.9v.386a.273.273,0,0,0,.546,0V112.9Z" transform="translate(-1176.222 -112.238)" fill="#666"/></g><path d="M1173.944,430.416a.449.449,0,1,1,.449.449A.449.449,0,0,1,1173.944,430.416Z" transform="translate(-1167.843 -401.598)" fill="#666"/><circle cx="0.271" cy="0.271" r="0.271" transform="translate(6.279 28.547)" fill="#bab9b9"/><g transform="translate(4.461 40.988)"><path d="M1161.227,629.687c.115.6.246,1.228.4,1.874a.46.46,0,0,0,.275.323,1.919,1.919,0,0,0,1.415,0,.46.46,0,0,0,.275-.323c.458-1.991.749-3.812.926-5.157Z" transform="translate(-1160.524 -624.554)" fill="#1f1f1f"/><path d="M1155.846,601.684a.37.37,0,0,0-.368-.408h-3.42a.37.37,0,0,0-.368.408c.1.971.308,2.684.7,4.725l3.286-3.282C1155.752,602.551,1155.807,602.061,1155.846,601.684Z" transform="translate(-1151.687 -601.276)" fill="#515151"/></g><path d="M1104.192,754.088,1103.97,753a1.589,1.589,0,0,0-1.044-1.13l-3.557-1.02a.529.529,0,0,0-.6.215.39.39,0,0,1-.349.151h-1.509a.39.39,0,0,1-.349-.151.529.529,0,0,0-.6-.215l-3.557,1.02a1.589,1.589,0,0,0-1.044,1.13l-.222,1.091c-.07.286.15.363.444.363h12.168C1104.042,754.452,1104.262,754.374,1104.192,754.088Z" transform="translate(-1091.122 -698.818)" fill="#c44823"/></g></g></g></g></svg>