<svg xmlns="http://www.w3.org/2000/svg" width="250" height="167" viewBox="0 0 250 167"><g transform="translate(-138 -1688)"><path d="M15,0H235a15,15,0,0,1,15,15V167a0,0,0,0,1,0,0H0a0,0,0,0,1,0,0V15A15,15,0,0,1,15,0Z" transform="translate(138 1688)" fill="#fff"/><g transform="translate(189.1 1722.363)"><rect width="53.632" height="7.23" transform="translate(49.271 55.751)" fill="#d2cecb"/><rect width="152.173" height="5.303" transform="translate(0 62.055)" fill="#cda771"/><rect width="152.173" height="5.303" transform="translate(0 100.72)" fill="#cda771"/><rect width="103.522" height="57.374" transform="translate(24.326)" fill="#d2cecb"/><g transform="translate(26.914 2.9)"><path d="M2624.066,1561.221H2589.94l34.126,34.126Z" transform="translate(-2525.721 -1561.221)" fill="#7e7e87"/><path d="M2448.327,1561.221v51.574h98.346v-5.982l-45.591-45.592Z" transform="translate(-2448.327 -1561.221)" fill="#7e7e87"/><path d="M2576.123,1561.221h-11.465l45.592,45.592v-11.465Z" transform="translate(-2511.903 -1561.221)" fill="#93939e"/></g><g transform="translate(10.164 76.597)"><rect width="17.877" height="24.131" fill="#d2cecb"/><rect width="16.09" height="19.457" transform="translate(0.894 1.081)" fill="#403d42"/><g transform="translate(113.968)"><rect width="17.877" height="24.131" fill="#d2cecb"/><rect width="16.09" height="19.457" transform="translate(0.894 1.081)" fill="#403d42"/></g></g><g transform="translate(43.116 90.945)"><rect width="56.339" height="2.174" transform="translate(4.801 7.609)" fill="#a9a09c"/><rect width="65.94" height="8.695" fill="#d2cecb"/><rect width="28.985" height="0.77" transform="translate(32.97 3.963)" fill="#93939e"/><rect width="2.355" height="2.355" transform="translate(2.868 2.898)" fill="#a9a09c"/></g></g></g></svg>