<svg xmlns="http://www.w3.org/2000/svg" width="69.732" height="76.839" viewBox="0 0 69.732 76.839"><g transform="translate(-13214 304.667) rotate(-90)"><path d="M35.915,67.509-.477,38.1a1,1,0,0,1,.629-1.778H9.392V0H62.834V36.319h10.1a1,1,0,0,1,.629,1.778L37.173,67.509a1,1,0,0,1-1.257,0Z" transform="translate(229.703 13215)" fill="#15aac7" stroke="#fff" stroke-width="2"/><path d="M.32,0H2.544l.528-2.992H5.328L5.84,0H8.032L5.44-12.96H2.912ZM3.312-4.5l.88-5.44.88,5.44ZM9.328,0H11.68V-5.9h2.432V-7.552H11.68v-3.776h2.976V-12.96H9.328Zm7.9,0H19.6V-11.216h2.016V-12.96H15.168v1.744h2.064ZM22.8,0h5.472V-1.616h-3.12v-4.3h2.432V-7.568H25.152V-11.3H28.24V-12.96H22.8Zm6.848,0H32V-5.936h1.12L34.672,0H37.04L35.232-6.384c1.216-.5,1.6-1.584,1.6-3.136,0-2.608-1.472-3.44-4.064-3.44h-3.12ZM32-7.408v-3.936h.88c1.36,0,1.728.64,1.728,1.952,0,1.392-.5,1.984-1.856,1.984Z" transform="translate(259.909 13224.424) rotate(90)" fill="#fff"/></g></svg>