<svg xmlns="http://www.w3.org/2000/svg" xmlns:xlink="http://www.w3.org/1999/xlink" width="240" height="217" viewBox="0 0 240 217"><defs><clipPath id="a"><rect width="240" height="217" transform="translate(829 1498)" fill="#fff" stroke="#707070" stroke-width="1"/></clipPath></defs><g transform="translate(-829 -1498)" clip-path="url(#a)"><path d="M8.34,0l8.34,15.85H0Z" transform="translate(1025.009 1587.475) rotate(-158)" fill="#fff"/><path d="M8.34,0l8.34,15.85H0Z" transform="translate(880.548 1603.764) rotate(177)" fill="#fff"/><ellipse cx="34.566" cy="34.566" rx="34.566" ry="34.566" transform="translate(990.06 1526.779) rotate(-21)" fill="#fff"/><ellipse cx="34.566" cy="34.566" rx="34.566" ry="34.566" transform="translate(828.643 1582.62) rotate(-73)" fill="#fff"/><path d="M9.892,0l9.892,18.8H0Z" transform="translate(929.851 1585.254) rotate(-150)" fill="#03a58e"/><circle cx="41" cy="41" r="41" transform="translate(898.82 1508.192) rotate(-13)" fill="#009c86"/><text transform="matrix(0.985, 0.174, -0.174, 0.985, 864.604, 1572.391)" fill="#b99f6e" font-size="32" font-family="Oswald-SemiBold, Oswald" font-weight="600" opacity="0.4"><tspan x="0" y="0">?</tspan></text><text transform="translate(861.442 1571.862) rotate(-20)" fill="#b99f6e" font-size="24" font-family="Oswald-SemiBold, Oswald" font-weight="600" opacity="0.4"><tspan x="0" y="0">?</tspan></text><text transform="matrix(0.985, 0.174, -0.174, 0.985, 1024.102, 1559.697)" fill="#897a7a" font-size="32" font-family="Oswald-SemiBold, Oswald" font-weight="600" opacity="0.4"><tspan x="0" y="0">?</tspan></text><text transform="matrix(0.985, 0.174, -0.174, 0.985, 944.604, 1547.391)" fill="#fff" font-size="32" font-family="Oswald-SemiBold, Oswald" font-weight="600" opacity="0.9"><tspan x="0" y="0">?</tspan></text><text transform="matrix(0.985, -0.174, 0.174, 0.985, 935.639, 1555.169)" fill="#fff" font-size="32" font-family="Oswald-SemiBold, Oswald" font-weight="600" opacity="0.9"><tspan x="0" y="0">?</tspan></text><g transform="translate(913.687 1559.669)"><g transform="translate(0 0)"><path d="M1213.211,184.148c-5.527,1.472-13.7,3.735-15.493,5.584-1.385,1.423-9.6,30.554-9.677,65.408-.031,13.692.884,37.454,1.338,48.351l27.6-.061.088-38.119Z" transform="translate(-1167.29 -99.467)" fill="#393330"/><path d="M1222.1,302.134l10.542-.027,32.682-116.626c-6.734-2.224-14.372-4.6-15.4-5.013-2.344-.936-6.965-1.179-11.35-1.132l-.04.978c-4.309-.037-8.8.213-11.1,1.132-.573.23-2.54.736-5.053,1.406Z" transform="translate(-1176.45 -98.172)" fill="#fff"/><path d="M1233.635,151.742s-2.755,17.321-4.237,18.3a5.5,5.5,0,0,1-2.755.98s11.053,8.739,12.642,9.066,25.874-7.359,25.014-8.622c-1.4-2.054-5.673-23.084-5.673-23.084l.441-15.707Z" transform="translate(-1177.673 -85.623)" fill="#edbf98"/><path d="M1210,303.905l57.967-.1.625-40.916s5.314-70.454,3.891-71.7c-.642-.561-7.632-3.456-12.845-5.178l-50.057,79.378Z" transform="translate(-1173.083 -99.97)" fill="#393330"/><path d="M1222.563,254.27l-3.331-70.122c-2.3.612-4.047,1.021-6.609,1.82l-1.458,2.58a51.479,51.479,0,0,0-.677,11.243l1.445,29.184Z" transform="translate(-1173.311 -99.467)" fill="#2d2725"/><path d="M1242.594,179.285a.467.467,0,0,1-.3-.113.5.5,0,0,1-.061-.689h0s.3-.6-.294-2.359c-.791-2.324.38-5.438.43-5.57a.47.47,0,0,1,.616-.276.494.494,0,0,1,.269.634c-.011.029-1.09,2.91-.418,4.889.791,2.323.246,3.162.128,3.307A.468.468,0,0,1,1242.594,179.285Z" transform="translate(-1181.712 -95.728)" fill="#c05343"/><path d="M1288.521,267.01c-2.628,8.408-4.913,16.934-11.2,23.293-2.666,2.7-4.588,5.076-8.553,4.823-4.181-.268-9.275-2.744-11.322-6.651-3.359-6.407-.149-17.234,1.275-23.723,2.477-11.292,4.536-22.546,7.75-33.665,3.094-10.7,9.945-42.055,14.514-40.347,6.976,2.608,14.085,6.94,15.852,10.757,3.788,8.183,2.855,20.536.319,31.619C1294.5,244.7,1292.044,255.739,1288.521,267.01Z" transform="translate(-1185.559 -101.223)" fill="#393330"/><path d="M1194.282,189.427s-14.426,3.26-18.073,12.876c-3.227,8.511-17.6,60.713-16.169,62.424s9.986,7.008,9.986,6.275,26.632-49.63,26.632-49.63Z" transform="translate(-1159.733 -100.887)" fill="#393330"/><path d="M1225.057,85.567a67,67,0,0,0-2.351,9.171c-.844,6.275-2.217,16.575-3.3,25-.75,5.845,1.787,11.757,2.852,15.052,2.069,6.409,4.656,10.478,14.39,10.252,1.487-.034,8.252-2.508,12.968-6.18,4.116-3.2,6.237-7.08,7.59-14.136,2.911-15.158,3.362-34.749,3.362-34.749Z" transform="translate(-1175.691 -72.952)" fill="#edbf98"/><path d="M1239.622,135.489a.505.505,0,0,0,.481-.477.548.548,0,0,0-.349-.656l-8.417-1.814c2.374-6.373,6.031-16.006,6.55-16.84a.693.693,0,0,0,.113-.719.393.393,0,0,0-.606-.2c-.154.115-.609.45-7.115,17.971a.713.713,0,0,0,0,.5.447.447,0,0,0,.312.287l8.982,1.938C1239.592,135.48,1239.6,135.487,1239.622,135.489Z" transform="translate(-1178.639 -80.789)" fill="#0d0002"/><path d="M1245.984,119.291a2.075,2.075,0,0,0,.792,2.658,1.727,1.727,0,0,0,2.409-.894,2.071,2.071,0,0,0-.8-2.654A1.728,1.728,0,0,0,1245.984,119.291Z" transform="translate(-1182.824 -81.728)" fill="#0d0002"/><path d="M1228.841,118.072a2.075,2.075,0,0,0,.792,2.657,1.728,1.728,0,0,0,2.409-.893,2.082,2.082,0,0,0-.8-2.658A1.724,1.724,0,0,0,1228.841,118.072Z" transform="translate(-1178.213 -81.399)" fill="#0d0002"/><path d="M1253.794,113.579c-1.553-.61-3.476-.958-9.168-1.059-.395-.007.29-.832.62-1.03a6.78,6.78,0,0,1,3.454-.6c2.295.036,5.007.512,6.083,2.94A8.38,8.38,0,0,1,1253.794,113.579Z" transform="translate(-1182.478 -79.763)" fill="#48332b"/><path d="M1232.738,111.013c-1.553-.61-3.475-.957-9.167-1.059-.395-.007.29-.832.619-1.03a6.784,6.784,0,0,1,3.455-.6c2.294.037,5.007.512,6.083,2.94A8.294,8.294,0,0,1,1232.738,111.013Z" transform="translate(-1176.815 -79.073)" fill="#48332b"/><path d="M1251.591,160.179a.621.621,0,0,1-.595-.466.637.637,0,0,1,.431-.781,17.52,17.52,0,0,0,11.372-9.5.612.612,0,0,1,.8-.36.64.64,0,0,1,.352.82,18.446,18.446,0,0,1-12.2,10.265A.606.606,0,0,1,1251.591,160.179Z" transform="translate(-1184.217 -90.021)" fill="#c05343"/><path d="M1265.819,115.6c0,1.748-.568,3.706-.325,5.38,1.067-.215,1.978.534,3.044.352.037-2.033,1.611-5.36,2.666-7.133a3.523,3.523,0,0,1,4.876-1.436c.927.42,1.463,1.129,2.144.381a4.666,4.666,0,0,0,.6-2.368c-.208-.58-1.359-1.11-1.831-1.466-1.208-.912-2.486-1.7-3.764-2.5-1.589-.994-3.112-2.09-4.657-3.154a21.309,21.309,0,0,1-4.013-2.9c.039,1.963-1.783,3.981-1.459,5.918C1266.135,107.787,1265.819,113.136,1265.819,115.6Z" transform="translate(-1187.468 -77.038)" fill="#5b4237"/><path d="M1231.891,70.009a21.8,21.8,0,0,0-8.224,5.712,57.891,57.891,0,0,0-4.344,5.373c-.908,1.273-2.227,2.339-3.061,3.61,1.914-.781,2.988-1.132,4.891-1.975-.438,1.166-1.271,1.385-1.939,2.6a53.756,53.756,0,0,1-3.527,5.679,23.931,23.931,0,0,0,4.668-2.42c-.871,1.835-.8,2.187-.709,4.331.081,1.817.827,3.671,1.051,5.4,1.711-3.6,2.143-7.4,4.9-8.915a22.779,22.779,0,0,1,18.954-1.368c1.261.437,2.611.749,3.885,1.116,1.8.52,3.6.072,3.5,2.564a5.148,5.148,0,0,1-.256,1.651c-.106.292,13.937,11.633,13.938,11.634-.077-.063,1.238-3.631,1.344-4.044a21.223,21.223,0,0,0,.7-4.507,15.523,15.523,0,0,0-2.048-8.73c-.1-.162-.206-.321-.313-.477-1.068-1.569-3.176-4.171-5.248-4.063-1.179-5.47-3.758-9.706-8.807-12.3a23.272,23.272,0,0,0-11.008-2.566,23.745,23.745,0,0,0-8.173,1.631Z" transform="translate(-1174.726 -68.311)" fill="#48332b"/><path d="M1271.806,117.609c.77.008,3.638-4.45,7.074-1.173,2.077,1.982.564,12.295-2.785,16.975-2.186,3.054-8.287,4.277-8.337,4.424Z" transform="translate(-1188.731 -80.932)" fill="#edbf98"/><path d="M1272.343,131.767a.6.6,0,0,1-.1-.008.624.624,0,0,1-.508-.716c.273-1.8,1.782-10.841,4.633-11.873a1.914,1.914,0,0,1,2.05.55.64.64,0,0,1,.04.885.6.6,0,0,1-.861.041c-.456-.427-.723-.33-.823-.294-1.592.576-3.2,6.712-3.834,10.884A.615.615,0,0,1,1272.343,131.767Z" transform="translate(-1189.801 -81.962)" fill="#c05343"/><path d="M1273.272,137.16a.628.628,0,0,1-.028-1.253c1.348-.066,2.076-.606,2.226-1.652a5.4,5.4,0,0,0-1.474-4.031.605.605,0,0,1-.679-.3.635.635,0,0,1,.229-.854,1.064,1.064,0,0,1,1.29.24,6.384,6.384,0,0,1,1.705,5.715c-.295.915-1.1,2.029-3.239,2.134Z" transform="translate(-1190.051 -84.621)" fill="#c05343"/><path d="M1252.687,92.106a.6.6,0,0,1-.589-.5,7.282,7.282,0,0,0-1.657-3.782c-5.226-5.46-11.705-7.741-17.332-6.1l-.29.084c-2.385.692-5.653,1.639-6.863,3.784a.59.59,0,0,1-.82.224.625.625,0,0,1-.217-.842c1.454-2.577,4.991-3.6,7.575-4.352l.288-.083c6.053-1.764,12.974.638,18.513,6.424a8.476,8.476,0,0,1,1.981,4.419.615.615,0,0,1-.478.719A.59.59,0,0,1,1252.687,92.106Z" transform="translate(-1177.188 -71.446)" fill="#35241d"/><path d="M1247.023,93.03a.6.6,0,0,1-.527-.322c-1.232-2.335-4.995-2.869-7.016-3.155-4.407-.627-8.529,1.228-12.373,3.179a.592.592,0,0,1-.8-.28.624.624,0,0,1,.272-.825c4.011-2.036,8.324-3.968,13.067-3.295,2.231.317,6.385.905,7.906,3.787a.626.626,0,0,1-.241.836A.578.578,0,0,1,1247.023,93.03Z" transform="translate(-1177.565 -73.66)" fill="#35241d"/><path d="M1264.551,89.494a.59.59,0,0,1-.482-.25.628.628,0,0,1,.126-.862c.415-.315.435-1.948.443-2.564l.006-.355a10.132,10.132,0,0,0-4.748-8.844.627.627,0,0,1-.183-.851.591.591,0,0,1,.828-.188,11.356,11.356,0,0,1,5.3,9.916l-.006.337c-.014,1.139-.035,2.861-.929,3.539A.581.581,0,0,1,1264.551,89.494Z" transform="translate(-1186.542 -70.241)" fill="#35241d"/><path d="M1271.964,102.443a.606.606,0,0,1-.6-.549,6.794,6.794,0,0,0-3.683-4.519.619.619,0,0,1-.4-.768.6.6,0,0,1,.748-.41,7.926,7.926,0,0,1,4.527,5.562.613.613,0,0,1-.531.68C1272.008,102.441,1271.985,102.443,1271.964,102.443Z" transform="translate(-1188.597 -75.804)" fill="#35241d"/><path d="M1277.755,99.246a.6.6,0,0,1-.556-.387c-.629-1.608-5.142-4.4-7.1-3.638a.6.6,0,0,1-.772-.36.621.621,0,0,1,.35-.794c2.65-1.026,7.794,2.187,8.634,4.333a.623.623,0,0,1-.333.8A.578.578,0,0,1,1277.755,99.246Z" transform="translate(-1189.143 -75.186)" fill="#35241d"/><path d="M1192.7,220.466h-.022a.777.777,0,0,1-.742-.807l.3-10.938h0c-.013-1.085.3-8.545.7-9.381a.753.753,0,0,1,1.024-.354.8.8,0,0,1,.344,1.052c-.215.741-.607,7.922-.548,8.62a.845.845,0,0,1,0,.108l-.3,10.937A.775.775,0,0,1,1192.7,220.466Z" transform="translate(-1168.339 -103.436)" fill="#272220"/><path d="M1264.636,183.881l-1.978-6.746-22.829,11.519-11.071-7.8-1.7,12.406,5.864,9.425Z" transform="translate(-1177.783 -97.581)" fill="#fff"/><path d="M1263.253,178.289l-25.04,41.083-9.967,19.934,6.564,3.4s14.292-18.368,18.086-23.527l3.793-5.159-4.856-4.476,8.041-1.138s7.921-12.153,8-17.237-.942-6.527-.942-6.527Z" transform="translate(-1178.104 -97.892)" fill="#2d2725"/><path d="M1226.265,160.933a.694.694,0,0,1-.68-.613c-.189-1.461-.569-3.539-1.685-4.712a4.136,4.136,0,0,0-1.439-.828.71.71,0,0,1-.422-.9.684.684,0,0,1,.875-.434,5.4,5.4,0,0,1,1.969,1.175c1.386,1.457,1.832,3.711,2.064,5.513a.7.7,0,0,1-.591.793A.649.649,0,0,1,1226.265,160.933Z" transform="translate(-1176.424 -91.199)" fill="#c05343"/><path d="M1242.007,202.677l-3.229-5.143-6.661,4.913-.919,12.419s-6.095,14.6-6.095,14.949-.345,21.274-.345,21.274l9.659-20.929-.574-14.949Z" transform="translate(-1177.166 -103.068)" fill="#183358"/><path d="M1251.651,208.87a.729.729,0,0,1-.605-.32l-6.555-9.659a.731.731,0,1,1,1.209-.821l6.555,9.659a.731.731,0,0,1-.6,1.141Z" transform="translate(-1182.439 -103.126)" fill="#8daed9"/><path d="M1209.086,253.46c-2.318-3.206-5.448-5.333-8.7-7.412-4.829-3.089-10.159-6.042-14.78-9.411-1.11-.809-2.333-2.689-3.6-2.978a22.988,22.988,0,0,0-5.339.467c-2.534.536-5.931,4.766-6.918,7.291-.632,1.613-.264,2.039.418,1.875-.274.252-.544.494-.8.7-1.42,1.15-6.1,5.467-1.974,5.625a3.79,3.79,0,0,0,1.9-.439c-.967.958-1.58,1.922-1.064,2.584,1.554,1.995,7.352-2.316,8.5-2.961,1.189-.668,4.355-1,4.9.528-2.425.048-12.272,2.34-10.462,5.8.912,1.745,4.535.158,5.736-.023,1.907-.287,3.631.479,5.318.977,4.188,1.235,7.625,4.559,11.992,5.2,2.425.358,4-.464,5.721,1.352,1.048,1.108,1.438,3.1,3.071,3.27,1.557.165,4.062-2.278,5.165-3.265A6.723,6.723,0,0,0,1209.086,253.46Zm-32.547-9.742c-1.382.385-2.106,1.388-3.221,2.207-.327.241-1.789,1.457-2.613,2.064.736-.808,2.2-2.317,2.866-2.91,2.367-2.113,4.472-1.784,7.492-1.838A28.75,28.75,0,0,0,1176.539,243.718Z" transform="translate(-1161.289 -112.769)" fill="#edbf98"/><path d="M1174.434,243.8a.439.439,0,0,1-.335-.156.466.466,0,0,1,.042-.644c.751-.676,4.579-4.038,6.32-3.857,1.635.169,3.189.5,3.255.51a.456.456,0,0,1,.345.539.443.443,0,0,1-.524.355c-.016,0-1.576-.332-3.164-.5-1.041-.106-4.02,2.173-5.647,3.636A.433.433,0,0,1,1174.434,243.8Z" transform="translate(-1163.511 -114.257)" fill="#c05343"/><path d="M1223.06,260.506s-9.192,12.708-7.541,15.14c1.272,1.874,3.748,2.712,4.793,4.775a36.562,36.562,0,0,0,3.759,6.687c3.7,4.706,9.55,7.759,14.438,10.965a63.482,63.482,0,0,0,13.581,6.431c2.7.971,6.619,3.051,9.566,2.937,2.664-.1,4.666-2.42,6.491-4.2a24.914,24.914,0,0,0,3.963-4.725c3.037-4.908,4.149-11.073,1.149-16.3-2.033-3.543-7.132-5.477-10.5-7.329a105,105,0,0,0-12.247-5.379c-6.976-2.74-14.594-1.654-21.378-4.807A57.066,57.066,0,0,1,1223.06,260.506Z" transform="translate(-1174.628 -120.005)" fill="#393330"/><path d="M1259.713,315.01a14.6,14.6,0,0,1-4.95-.864c-7.053-2.522-38.621-31.4-39.961-32.631a.8.8,0,0,1-.061-1.108.748.748,0,0,1,1.077-.064c.326.3,32.678,29.9,39.446,32.321a14.279,14.279,0,0,0,12.085-1.469.75.75,0,0,1,1.06.206.8.8,0,0,1-.2,1.09A15.888,15.888,0,0,1,1259.713,315.01Z" transform="translate(-1174.42 -125.287)" fill="#272220"/><path d="M1271.1,286.27a.768.768,0,0,1-.748-.631c-1.159-2.338-27.555-15.43-43.917-23.118a.793.793,0,0,1-.377-1.04.755.755,0,0,1,1.012-.388c.109.052,11.07,5.206,21.963,10.676,22.361,11.229,22.668,12.8,22.815,13.562a.784.784,0,0,1-.6.923A.768.768,0,0,1,1271.1,286.27Z" transform="translate(-1177.497 -120.144)" fill="#272220"/><path d="M1279.03,263.423a.763.763,0,0,1-.7-.474c-.481-.962-6.593-2.32-13.351-2.966a.755.755,0,0,1-.533-.3.8.8,0,0,1-.15-.607c.815-5.122,8.156-50.167,14.954-54.3l6.686-4.062a.753.753,0,0,1,1.046.276.8.8,0,0,1-.27,1.075l-6.686,4.062c-5.131,3.117-11.778,38.079-14.092,52.373,4.4.456,12.874,1.613,13.8,3.828a.793.793,0,0,1-.4,1.031A.745.745,0,0,1,1279.03,263.423Z" transform="translate(-1187.797 -103.894)" fill="#272220"/><path d="M1238,183.944a20.011,20.011,0,0,0,2.687-2.6c.887-1,2.811-2.543,2.562-4.062-.108-.653-.609-.932-.491-1.542.1-.517.757-.969.833-1.561.167-1.329-.926-2.758-1.776-3.641-.95-.986-.336-1.018.331-2.143a2.014,2.014,0,0,0-.324-2.772c-.609-.605-2.439-1.223-2.3-2.1.169-1.078,2.008-2.081,2.711-2.722,1.037-.944,1.53-2.738-.083-3.354-1.915-.73-4,.41-5.679,1.3-2.13,1.131-4.206,2.327-6.248,3.617-1.031.654-2.178,1.073-3.224,1.693-.677.4-1.418,1.079-2.184.354-.573-.543-.669-2.181-.744-2.91-.206-2.018-.547-4.7-2-6.234-.773-.815-3.363-1.907-4.343-.841-.961,1.051.666,2.649,1.06,3.594a13.882,13.882,0,0,1,.8,5.4c-.062,2.406-1.4,4.5-1.844,6.85-.559,2.941.542,5.649.464,8.571-.1,3.853-2.86,8.019-4.639,11.346-1.058,1.977,2.184,1.783,4.156,2.872,1.817,1,5.825,3.761,7.894,4.112.99.168,3.053-6.045,4.469-7.736,1.956-2.337,4.957-3.39,7.38-5.1C1237.653,184.213,1237.831,184.079,1238,183.944Z" transform="translate(-1174.101 -91.355)" fill="#edbf98"/><path d="M1200.15,201.768l12.137,6.69s.9.573-.01,2.834c-.4.988-1.476,4.459-1.885,5.548-.878,2.337-10.088,32.2-14.6,41.974-3.273,7.084-4.329,15.738-10.881,20.351-4.017,2.828-14.66,6.6-19.557,4.1-2.53-1.3-3.409-3.968-4.121-6.52-1.109-3.967-2.41-7.929-.873-12.044,1.924-5.149,5.98-9.182,7.256-14.609,1.238-5.26,4.166-8.927,6.878-13.675,3.552-6.22,7.164-15.022,12.42-19.976,2.853-2.689,8.23-16.272,9.18-16.272S1200.15,201.768,1200.15,201.768Z" transform="translate(-1159.656 -103.776)" fill="#393330"/><path d="M1165.678,256.712a.743.743,0,0,1-.381-.105.8.8,0,0,1-.279-1.072l31.61-56.248a.75.75,0,0,1,1-.309l4.256,2.187a.8.8,0,0,1,.342,1.053.754.754,0,0,1-1.024.351l-3.614-1.857-31.249,55.609A.76.76,0,0,1,1165.678,256.712Z" transform="translate(-1161.07 -103.434)" fill="#272220"/><path d="M1196.861,280.983a.747.747,0,0,1-.484-.178.8.8,0,0,1-.1-1.105,79.731,79.731,0,0,0,5.7-8.006c1.168-2.163,13.271-39.309,19.6-58.932l-.163-.335a.8.8,0,0,1,.343-1.053.752.752,0,0,1,1.023.352l.3.624a.809.809,0,0,1,.042.6c-.746,2.312-18.277,56.663-19.814,59.507a78.94,78.94,0,0,1-5.853,8.242A.752.752,0,0,1,1196.861,280.983Z" transform="translate(-1169.458 -106.768)" fill="#272220"/><path d="M1242.028,186.626a.68.68,0,0,1-.589-.343.718.718,0,0,1,.235-.969c.322-.2.637-.4.942-.618.177-.124.346-.251.51-.379a19.406,19.406,0,0,0,2.594-2.513c.177-.2.394-.422.626-.658.806-.822,1.909-1.946,1.768-2.812a1.408,1.408,0,0,0-.194-.453,1.85,1.85,0,0,1-.294-1.344,9.458,9.458,0,0,1,.331-1.113,9.756,9.756,0,0,0,.319-1.06,2.332,2.332,0,0,0-.233-1.821.716.716,0,0,0-.6-.251.983.983,0,0,1-1-.47c-.292-.539.043-1.055.468-1.709.124-.191.264-.405.4-.64a2.024,2.024,0,0,0-.428-2.407,6.592,6.592,0,0,0-.649-.512c-.752-.551-1.462-1.072-1.451-1.786a1.017,1.017,0,0,1,.469-.837,12.608,12.608,0,0,0,2.166-2.482,2.787,2.787,0,0,0,.511-1.936.7.7,0,0,0-.483-.465c-1.783-.681-4.692.861-5.785,1.442-1.379.733-3.652,2.129-5.157,3.054-.949.583-1.412.867-1.572.947a.68.68,0,0,1-.917-.33.715.715,0,0,1,.321-.943c.119-.059.8-.48,1.463-.885,1.519-.934,3.814-2.344,5.232-3.1,2.115-1.121,4.81-2.307,6.893-1.511a2.089,2.089,0,0,1,1.316,1.368,4.128,4.128,0,0,1-.7,3.171,15.973,15.973,0,0,1-2.208,2.6c.2.181.507.4.7.544a7.4,7.4,0,0,1,.807.647,3.471,3.471,0,0,1,.645,4.157c-.151.254-.3.485-.433.69-.011.018-.023.035-.034.053a2.018,2.018,0,0,1,1.067.673,3.613,3.613,0,0,1,.54,3.006,10.233,10.233,0,0,1-.37,1.259,8.779,8.779,0,0,0-.281.921c-.015.075,0,.117.136.366a2.74,2.74,0,0,1,.358.922c.261,1.591-1.135,3.013-2.155,4.052-.213.218-.412.42-.575.6a20.629,20.629,0,0,1-2.78,2.689c-.183.143-.371.284-.565.42-.326.231-.665.451-1.01.664A.67.67,0,0,1,1242.028,186.626Z" transform="translate(-1179.637 -92.291)" fill="#c05343"/><ellipse cx="1.38" cy="1.495" rx="1.38" ry="1.495" transform="translate(43.222 174.354)" fill="#2d2725"/><ellipse cx="1.38" cy="1.495" rx="1.38" ry="1.495" transform="translate(43.222 194.938)" fill="#2d2725"/><g transform="translate(69.523 112.443)"><rect width="11.016" height="6.717" transform="translate(1.197 0) rotate(10.268)" fill="#fff"/><path d="M1265.057,226.718a.307.307,0,0,1-.051-.005l-6.321-1.175a.281.281,0,1,1,.1-.553l6.321,1.175a.282.282,0,0,1-.051.559Z" transform="translate(-1255.752 -222.893)" fill="#9fa0a0"/><path d="M1264.528,229.648a.323.323,0,0,1-.052-.005l-6.32-1.175a.281.281,0,1,1,.1-.553l6.321,1.175a.282.282,0,0,1-.051.558Z" transform="translate(-1255.61 -223.681)" fill="#9fa0a0"/></g></g><ellipse cx="1.095" cy="1.369" rx="1.095" ry="1.369" transform="translate(64.21 59.316)" fill="#c1143a"/></g><g transform="translate(849.833 1587.093)"><g transform="translate(0 0)"><path d="M619.013,232.125c-1.155-1.058-8-4.237-10.139-7.115-5.214-7.014-2.606-19.873-2.606-19.873l-7.52.551-7.521-.551S593.833,218,588.62,225.01c-2.139,2.878-8.391,6.4-9.546,7.457-.332.3,9.9,14.7,21.048,15.237C607.221,248.044,619.345,232.429,619.013,232.125Z" transform="translate(-544.915 -143.518)" fill="#edbf98"/><path d="M601.869,133.74a17.113,17.113,0,0,1,6.984,2.006c7.587,3.687,12.945,10.771,16.092,18.439,3.731,9.094,8.106,21.258,2.9,30.392-2.844,4.988-9.382,9.4-14.691,11.584-11.363,4.681-25.8,1.62-36.087-5.243-4.512-3.01-8.776-7.063-9.964-12.355-2.4-10.7,4.127-22.3,10.112-30.62,3.922-5.45,9.517-13.182,17.419-10.915C596.44,134.342,599.528,133.708,601.869,133.74Z" transform="translate(-543.207 -133.739)" fill="#4a4032"/><path d="M562.519,316.283c0,1.326-.329,6.148-1.3,8.641-2.1,5.407-7.307,12.175-10.584,12.853-3.132.647-10.7.082-11.11-5.247-.325-4.212,1.836-15.5,1.836-15.984,0-5.26,6.744-8.471,11.219-8.471S562.519,311.024,562.519,316.283Z" transform="translate(-539.495 -157.618)" fill="#d9c3af"/><path d="M569.482,237.85s-10.884,2.231-13.134,5.137c-4.953,6.4-14.86,64.184-14.86,64.184l17.143,6.479L571,267.133Z" transform="translate(-539.768 -147.999)" fill="#d9c3af"/><path d="M632.009,238.78s8.884,1.288,10.938,4.334c5.985,8.875,9.907,89.408,9.907,89.408l-16.511-.206L628.3,267.261Z" transform="translate(-551.659 -148.126)" fill="#d9c3af"/><path d="M631.383,242.5c-3.1-3.714-19.846-9.69-19.846-9.69l-14.521,1.426-14.52-1.426s-16.751,5.976-19.846,9.69,4.128,42.927,4.954,47.055,4.747,21.257,4.747,21.257l-1.857,20.4,25.805.391v.022l.718-.01.718.01v-.022l25.805-.391-1.857-20.4s3.922-17.129,4.747-21.257S634.478,246.218,631.383,242.5Z" transform="translate(-542.562 -147.309)" fill="#d9c3af"/><path d="M621.394,161.353c-3.444-5.348-12.185-9.9-19.523-11.414l-.033.372.015-.373c-7.471.564-16.72,3.973-20.815,8.84-3.369,4-2.5,16.081-2.734,21.727-.527,12.391,8.047,23.4,18.557,25.679l-.019.22c.472.03.944.035,1.415.03.467.066.936.12,1.408.15l.009-.221c10.714-.924,20.619-10.755,21.671-23.112C621.828,177.621,624.227,165.754,621.394,161.353Z" transform="translate(-544.808 -135.958)" fill="#edbf98"/><path d="M571.394,183.41c-.041,3.341,3.737,8.123,7.066,8.81,3.329.671,2.08-3.11,2.756-6.487a6.2,6.2,0,0,0-4.794-7.322C573.092,177.73,571.438,179.96,571.394,183.41Z" transform="translate(-543.865 -139.841)" fill="#edbf98"/><path d="M635.1,187.5c-.383,3.32-4.739,7.583-8.128,7.841s-1.668-3.349-1.909-6.785a6.2,6.2,0,0,1,5.686-6.653C634.142,181.651,635.5,184.074,635.1,187.5Z" transform="translate(-551.185 -140.333)" fill="#edbf98"/><path d="M600.38,151.794a24.866,24.866,0,0,0,5.858-4.121,8.611,8.611,0,0,0,1.386-1.824c2.932-5.28-2.451-8.455-6.72-8.6a20.283,20.283,0,0,0-6.194.432,17.622,17.622,0,0,0-5.579,3.068,66.707,66.707,0,0,0-6.548,5.572,35.311,35.311,0,0,0-4.971,6.9,31.8,31.8,0,0,0-3.707,8.208,34.2,34.2,0,0,0-1.1,6.036c-.074.755-.324,1.452-.415,2.181-.121.976.21,1.944.133,2.927-.085,1.089-.859,2.282-1.949,2.22a12.032,12.032,0,0,0,6.675-1.872c.181,1.07-1.061,2.584-2.132,3.18a.137.137,0,0,0,.05.254c2.858.474,6.543-3.689,8.834-6.711,2.018-2.662,3.309-5.81,5.22-8.55a26.522,26.522,0,0,1,7.13-6.947C597.649,153.3,599.021,152.553,600.38,151.794Z" transform="translate(-543.753 -134.214)" fill="#4a4032"/><path d="M593.546,182.727a2.436,2.436,0,0,1-1.421,3.046,2.255,2.255,0,0,1-2.912-1.463,2.435,2.435,0,0,1,1.434-3.045A2.252,2.252,0,0,1,593.546,182.727Z" transform="translate(-546.289 -140.23)" fill="#0d0002"/><path d="M616.4,184.185a2.436,2.436,0,0,1-1.424,3.046,2.257,2.257,0,0,1-2.913-1.463,2.441,2.441,0,0,1,1.434-3.045A2.256,2.256,0,0,1,616.4,184.185Z" transform="translate(-549.419 -140.43)" fill="#0d0002"/><g transform="translate(67.358 46.313)"><path d="M623.293,190.461a2.878,2.878,0,1,1-2.691-3.053A2.876,2.876,0,0,1,623.293,190.461Z" transform="translate(-617.544 -187.402)" fill="#e9706e"/><path d="M619.711,192.782a.545.545,0,0,1-.364-.171c-.687-.728-1.788-2.046-1.438-2.712a.907.907,0,0,1,.558-.455c.66-.2,1.621.206,2.857.881l.175.095.128.063c-.021-.035-.044-.068-.068-.1-.052-.08-.11-.17-.172-.268-.315-.494-.978-1.534-1.458-1.536a.562.562,0,0,1-.535-.567.553.553,0,0,1,.569-.535l.048,0c1.047.067,1.8,1.256,2.305,2.045.059.092.113.178.162.252.415.629.82,1.341.387,1.824s-1.193.151-1.871-.2c-.048-.025-.116-.063-.2-.108a8.342,8.342,0,0,0-1.682-.759,11.566,11.566,0,0,0,1.033,1.321.551.551,0,0,1-.437.929Z" transform="translate(-617.585 -187.412)" fill="#e55a65"/></g><g transform="translate(36.095 44.319)"><path d="M587.068,188.15a2.878,2.878,0,1,1-2.691-3.053A2.874,2.874,0,0,1,587.068,188.15Z" transform="translate(-581.319 -185.091)" fill="#e9706e"/><path d="M583.486,190.47a.548.548,0,0,1-.364-.171c-.687-.728-1.788-2.046-1.438-2.712a.914.914,0,0,1,.558-.455c.66-.2,1.621.206,2.858.881l.174.095.128.064c-.021-.035-.044-.069-.068-.105-.052-.079-.109-.169-.172-.268-.314-.494-.978-1.534-1.458-1.536a.56.56,0,0,1-.534-.567.55.55,0,0,1,.568-.534.475.475,0,0,1,.049,0c1.047.066,1.8,1.256,2.305,2.044.059.092.112.178.162.252.414.629.819,1.341.386,1.824s-1.192.151-1.87-.194l-.2-.108a8.34,8.34,0,0,0-1.682-.76,11.594,11.594,0,0,0,1.033,1.321.551.551,0,0,1-.437.929Z" transform="translate(-581.36 -185.101)" fill="#e55a65"/></g><path d="M604.378,205.609a.687.687,0,0,1-.236-.042,7,7,0,0,0-2.964-.5,8.379,8.379,0,0,0-1.807.387.685.685,0,1,1-.42-1.3,9.631,9.631,0,0,1,2.108-.448,8.332,8.332,0,0,1,3.557.582.686.686,0,0,1-.237,1.33Z" transform="translate(-547.574 -143.318)" fill="#c1143a"/><path d="M616.978,172.656c3.032,8.873,1.965,17.1.66,20.668a.663.663,0,0,0,1.041.735c3.563-2.783,6.362-7.608,7.791-11.659a48.936,48.936,0,0,0,3.033-20.026c-.426-5.9-3.478-14.155-7.553-18.631-3.359-3.689-7.852-6.814-13.118-6.053-4.358.63-8.66,2.783-8.781,7.943a9.129,9.129,0,0,0,.705,3.623c1.274,3.14,3.038,4.289,5.265,6.732C609.547,159.858,615.486,168.29,616.978,172.656Z" transform="translate(-547.789 -134.264)" fill="#4a4032"/><path d="M588.306,175.2a.34.34,0,0,1,.177.021,6.532,6.532,0,0,0,5.7-.687.345.345,0,1,1,.392.567,7.109,7.109,0,0,1-6.347.759.344.344,0,0,1,.08-.66Z" transform="translate(-546.141 -139.318)" fill="#4a4032"/><path d="M617,178.362a.353.353,0,0,1-.159-.083,6.533,6.533,0,0,0-5.57-1.383.344.344,0,1,1-.164-.669,7.116,7.116,0,0,1,6.2,1.546.345.345,0,0,1-.309.589Z" transform="translate(-549.268 -139.532)" fill="#4a4032"/><path d="M602.832,196.133a.7.7,0,0,1-.473-.181l-2.1-1.892a.705.705,0,0,1-.215-.7l2.214-9a.708.708,0,1,1,1.375.338l-2.113,8.583,1.789,1.608a.708.708,0,0,1-.473,1.235Z" transform="translate(-547.786 -140.6)" fill="#0d0002"/><path d="M601.92,215.24a11.807,11.807,0,0,1-1.54-.1,17.946,17.946,0,0,1-4.521-1.227.633.633,0,0,1,.486-1.169,16.662,16.662,0,0,0,4.2,1.142,13.465,13.465,0,0,0,5.53-.564.633.633,0,1,1,.357,1.215A16.074,16.074,0,0,1,601.92,215.24Z" transform="translate(-547.162 -144.554)" fill="#cb6362"/><path d="M572.767,172.542a.524.524,0,0,1-.1-.014.375.375,0,0,1-.213-.172.38.38,0,0,1-.022-.276c.145-.455.345-1.019.593-1.667a.353.353,0,0,1,.462-.2.344.344,0,0,1,.22.331.416.416,0,0,1-.02.124c-.255.654-.449,1.2-.579,1.626A.347.347,0,0,1,572.767,172.542Zm1.391-3.617a.307.307,0,0,1-.137-.028.352.352,0,0,1-.186-.462c.276-.647.572-1.3.868-1.956a.369.369,0,0,1,.469-.173.364.364,0,0,1,.206.318.341.341,0,0,1-.028.144s0,.007-.006.007a.037.037,0,0,1-.015.028c-.289.641-.571,1.282-.847,1.908A.347.347,0,0,1,574.158,168.925Zm1.771-3.865h0a.383.383,0,0,1-.151-.034.349.349,0,0,1-.166-.476c.331-.683.64-1.309.944-1.908,0,0,0-.008.006-.008a.356.356,0,0,1,.469-.151.361.361,0,0,1,.193.324.345.345,0,0,1-.034.145v.007c-.007.014-.014.021-.014.028-.324.64-.641,1.274-.93,1.874A.341.341,0,0,1,575.929,165.059Zm1.922-3.789a.333.333,0,0,1-.166-.041.354.354,0,0,1-.172-.214.333.333,0,0,1,.028-.268c.337-.64.682-1.275,1.02-1.874v-.008a.356.356,0,0,1,.661.186.368.368,0,0,1-.041.166.007.007,0,0,0-.007.007l-.007.013c-.337.607-.676,1.227-1.005,1.84A.353.353,0,0,1,577.851,161.271Zm2.074-3.714a.332.332,0,0,1-.179-.048.366.366,0,0,1-.166-.214.358.358,0,0,1,.041-.268c.379-.64.751-1.254,1.117-1.826a.368.368,0,0,1,.489-.11.352.352,0,0,1,.159.31.328.328,0,0,1-.049.18c-.351.557-.723,1.164-1.108,1.8A.345.345,0,0,1,579.925,157.557Zm2.281-3.582a.355.355,0,0,1-.289-.558l.061-.083a.382.382,0,0,1,.048-.062,15.132,15.132,0,0,1,1.24-1.557.362.362,0,0,1,.5-.021.345.345,0,0,1,.117.261.353.353,0,0,1-.09.235,14.812,14.812,0,0,0-1.185,1.488c-.035.048-.069.1-.1.145A.362.362,0,0,1,582.206,153.975Zm2.839-3.149a.371.371,0,0,1-.269-.123.358.358,0,0,1,.034-.5,21.115,21.115,0,0,1,1.7-1.337.366.366,0,0,1,.5.083.32.32,0,0,1,.062.192.324.324,0,0,1-.145.3,18.96,18.96,0,0,0-1.64,1.295A.383.383,0,0,1,585.044,150.825Zm3.451-2.467a.351.351,0,0,1-.3-.179.374.374,0,0,1-.041-.269.365.365,0,0,1,.166-.213c.6-.351,1.24-.7,1.9-1.02h.013a.356.356,0,0,1,.462.166.4.4,0,0,1,.035.151.352.352,0,0,1-.193.318h0c-.008.007-.015.007-.021.013-.621.3-1.24.634-1.833.979A.343.343,0,0,1,588.5,148.359Zm3.817-1.867a.358.358,0,0,1-.331-.228.365.365,0,0,1,.2-.462c1.261-.5,2.046-.716,2.046-.716a.369.369,0,0,1,.435.249.335.335,0,0,1-.035.268.305.305,0,0,1-.213.165h0c0,.007-.007.007-.014.007-.255.076-.958.29-1.957.69A.394.394,0,0,1,592.313,146.492Z" transform="translate(-544.004 -135.291)" fill="#3e3529"/><path d="M623.579,185.157a.354.354,0,0,1-.076-.014.31.31,0,0,1-.22-.152.33.33,0,0,1-.048-.268c.144-.661.261-1.337.372-2.067a.347.347,0,0,1,.4-.3.354.354,0,0,1,.3.351v.048c-.11.709-.234,1.419-.386,2.115A.353.353,0,0,1,623.579,185.157Zm.62-4.2h-.028a.36.36,0,0,1-.324-.386c.063-.675.1-1.377.124-2.1a.35.35,0,0,1,.351-.337h.014a.35.35,0,0,1,.344.344v.021c-.02.709-.068,1.434-.124,2.136A.36.36,0,0,1,624.2,180.954Zm.151-4.244h-.007a.351.351,0,0,1-.351-.344c-.007-.682-.034-1.391-.076-2.108v-.02a.355.355,0,0,1,.709-.022c.042.724.063,1.44.076,2.136a.354.354,0,0,1-.351.358Zm-.248-4.237a.357.357,0,0,1-.351-.325c-.069-.716-.152-1.426-.241-2.094V170a.344.344,0,0,1,.3-.345.356.356,0,0,1,.4.3v.014c.1.723.18,1.433.249,2.115a.353.353,0,0,1-.083.262.332.332,0,0,1-.242.124C624.13,172.473,624.116,172.473,624.1,172.473Zm-.558-4.21a.356.356,0,0,1-.351-.3c-.117-.7-.242-1.392-.379-2.081a.249.249,0,0,1-.014-.069.354.354,0,0,1,.289-.344.351.351,0,0,1,.413.275c.138.675.269,1.385.393,2.1a.366.366,0,0,1-.289.406C623.586,168.256,623.565,168.263,623.544,168.263Zm-.834-4.168a.361.361,0,0,1-.351-.275c-.165-.716-.337-1.406-.5-2.046v-.007a.4.4,0,0,1-.013-.09.353.353,0,0,1,.7-.09c.193.724.357,1.406.516,2.074a.364.364,0,0,1-.268.427C622.759,164.088,622.731,164.094,622.71,164.094Zm-1.081-4.113a.35.35,0,0,1-.338-.255c-.2-.675-.419-1.351-.653-1.991a.37.37,0,0,1-.022-.124.35.35,0,0,1,.228-.331.366.366,0,0,1,.462.206c.234.648.462,1.337.668,2.039a.362.362,0,0,1-.249.441A.407.407,0,0,1,621.629,159.981ZM620.168,156a.358.358,0,0,1-.324-.206c-.3-.648-.613-1.275-.944-1.868a.373.373,0,0,1-.041-.172.346.346,0,0,1,.186-.311.358.358,0,0,1,.475.138c.351.62.675,1.268.971,1.922a.357.357,0,0,1,.008.268.378.378,0,0,1-.187.2A.361.361,0,0,1,620.168,156Zm-2.067-3.7a.347.347,0,0,1-.289-.159c-.4-.585-.82-1.15-1.247-1.667,0,0-.007,0-.007-.006a.344.344,0,0,1-.082-.221.35.35,0,0,1,.13-.275.363.363,0,0,1,.5.047c.456.545.889,1.131,1.3,1.73a.362.362,0,0,1-.1.489A.357.357,0,0,1,618.1,152.3Zm-2.693-3.273h0a.355.355,0,0,1-.255-.1c-.5-.489-1.019-.964-1.55-1.392a.352.352,0,0,1-.13-.275.338.338,0,0,1,.083-.22.363.363,0,0,1,.5-.055c.551.448,1.1.937,1.605,1.44a.357.357,0,0,1,0,.5A.348.348,0,0,1,615.408,149.027Zm-3.3-2.666a.4.4,0,0,1-.193-.055,18.7,18.7,0,0,0-1.805-1.041.341.341,0,0,1-.193-.324.39.39,0,0,1,.034-.152.363.363,0,0,1,.476-.158,19.5,19.5,0,0,1,1.874,1.081.354.354,0,0,1,.1.489A.361.361,0,0,1,612.107,146.361Zm-3.79-1.909a.325.325,0,0,1-.117-.021,11.181,11.181,0,0,0-1.984-.564.381.381,0,0,1-.234-.138.358.358,0,0,1-.062-.262.363.363,0,0,1,.407-.3,12.923,12.923,0,0,1,2.115.607.352.352,0,0,1-.124.682Z" transform="translate(-548.593 -135.029)" fill="#3e3529"/><path d="M631.874,175.149a.353.353,0,0,1-.351-.351v-.524c0-.475-.007-.951-.021-1.42v-.02a.35.35,0,0,1,.344-.345h.007a.353.353,0,0,1,.352.345c.02.475.028.957.028,1.44,0,.09,0,.172-.008.262v.262A.353.353,0,0,1,631.874,175.149Zm-.13-4.072a.354.354,0,0,1-.352-.324c-.047-.683-.11-1.364-.192-2.108v-.035a.34.34,0,0,1,.31-.351.359.359,0,0,1,.393.31c.083.723.145,1.44.193,2.129a.355.355,0,0,1-.324.379Zm-.47-4.224a.343.343,0,0,1-.344-.3c-.1-.654-.206-1.337-.344-2.081a.281.281,0,0,1-.007-.076.36.36,0,0,1,.3-.337.355.355,0,0,1,.407.275v.007a.075.075,0,0,1,.007.035c.123.689.241,1.385.337,2.074a.363.363,0,0,1-.3.406Zm-.751-4.182a.348.348,0,0,1-.344-.275c-.138-.641-.282-1.3-.468-2.06v-.014a.257.257,0,0,1-.015-.083.357.357,0,0,1,.7-.076c.172.731.33,1.413.469,2.081a.338.338,0,0,1-.049.269.33.33,0,0,1-.22.151A.278.278,0,0,1,630.523,162.672Zm-1-4.127a.361.361,0,0,1-.344-.261c-.138-.5-.255-.923-.337-1.2-.091-.3-.166-.572-.249-.827a.28.28,0,0,1-.021-.1.356.356,0,0,1,.7-.11c.083.262.166.538.255.847.11.38.22.785.337,1.206a.353.353,0,0,1-.249.434A.214.214,0,0,1,629.525,158.545Zm-1.3-4.037a.378.378,0,0,1-.337-.227c-.255-.648-.538-1.3-.841-1.909v-.006a.42.42,0,0,1-.041-.159.369.369,0,0,1,.2-.317.36.36,0,0,1,.476.165c.3.614.6,1.275.868,1.963a.352.352,0,0,1-.2.462A.4.4,0,0,1,628.223,154.507Zm-1.874-3.809a.359.359,0,0,1-.3-.173c-.357-.607-.744-1.192-1.15-1.75a.329.329,0,0,1-.068-.213.361.361,0,0,1,.144-.283.367.367,0,0,1,.5.083c.413.565.813,1.171,1.192,1.8a.362.362,0,0,1-.31.538Zm-2.494-3.431a.36.36,0,0,1-.269-.117,20.125,20.125,0,0,0-1.46-1.495.356.356,0,0,1-.021-.5.363.363,0,0,1,.5-.021,19.924,19.924,0,0,1,1.51,1.543.343.343,0,0,1,.09.255.352.352,0,0,1-.117.241A.379.379,0,0,1,623.855,147.267Z" transform="translate(-550.798 -135.288)" fill="#3e3529"/><path d="M567.931,289.179a.633.633,0,0,1-.623-.528c-.028-.167-2.775-16.736-1.575-27.8,1-9.221,1.535-9.639,1.792-9.839a.686.686,0,0,1,.493-.136.632.632,0,0,1,.371,1.064c-.116.268-.608,1.764-1.4,9.048-1.182,10.886,1.538,27.286,1.566,27.451a.637.637,0,0,1-.626.738Zm-.084-37.047a.612.612,0,0,0,.264-.02A.642.642,0,0,1,567.847,252.132Z" transform="translate(-543.048 -149.783)" fill="#cab0a1"/><path d="M634.456,302.227a.588.588,0,0,1-.086-.006.632.632,0,0,1-.541-.712c.042-.312,4.213-31.268,2.677-40.483l-1.569-9.417a.633.633,0,1,1,1.249-.208l1.569,9.417c1.567,9.4-2.5,39.581-2.672,40.861A.633.633,0,0,1,634.456,302.227Z" transform="translate(-552.416 -149.783)" fill="#cab0a1"/><path d="M578.171,192.821a3.72,3.72,0,0,0,.145-1.248.318.318,0,0,0-.256-.223.442.442,0,0,0-.331.194,3.444,3.444,0,0,0-.459.679c-.161-.219-.179-.571-.433-.666a.425.425,0,0,0-.481.211,1.239,1.239,0,0,0-.13.549,1.232,1.232,0,0,1-.464-.209.505.505,0,0,0-.485-.06.4.4,0,0,0-.15.45,1.178,1.178,0,0,0,.267.431,1.336,1.336,0,0,0-.645.081.226.226,0,0,0-.139.11.428.428,0,0,0,.122.4c.263.166.57.2.834.364a1.314,1.314,0,0,0-.749.487.223.223,0,0,0-.059.2c.03.079.129.1.213.115l.605.086a.78.78,0,0,0-.45.523.39.39,0,0,0,.078.383.421.421,0,0,0,.347.071,1.13,1.13,0,0,0,.63-.319,1.109,1.109,0,0,0,.047.577.4.4,0,0,0,.476.235.589.589,0,0,0,.256-.3l.316-.608a.9.9,0,0,0,.685.379.5.5,0,0,0,.284-.011.364.364,0,0,0,.181-.379,1.076,1.076,0,0,0-.175-.411c.3-.006.657-.052.778-.324.129-.291-.137-.621-.435-.733a1.465,1.465,0,0,0,.6-.791C579.32,192.667,578.171,192.821,578.171,192.821Z" transform="translate(-544.303 -141.63)" fill="#d7dce2"/><path d="M577.026,193.5c.091.25.832-.022.343-.274a.252.252,0,0,0-.344.159A.206.206,0,0,0,577.026,193.5Z" transform="translate(-544.635 -141.884)" fill="#977243"/><path d="M576.507,194.079c.091.251.831-.022.343-.273a.252.252,0,0,0-.344.159A.193.193,0,0,0,576.507,194.079Z" transform="translate(-544.564 -141.963)" fill="#977243"/><path d="M576.9,194.739c.092.251.831-.022.343-.273a.252.252,0,0,0-.344.158A.2.2,0,0,0,576.9,194.739Z" transform="translate(-544.617 -142.053)" fill="#977243"/><path d="M577.694,194.561c.091.251.831-.022.343-.273a.252.252,0,0,0-.344.158A.2.2,0,0,0,577.694,194.561Z" transform="translate(-544.726 -142.029)" fill="#977243"/><path d="M577.688,193.876c.091.251.831-.022.343-.274a.253.253,0,0,0-.344.159A.2.2,0,0,0,577.688,193.876Z" transform="translate(-544.725 -141.935)" fill="#977243"/><path d="M619.441,234.19s-4.928-6.79-7.009-5.476-8.213,5.366-14.455,4.709-9.417-6.57-11.389-5.585a17.739,17.739,0,0,0-5.8,6.023c-.547,1.423,10.733,16.208,15.442,16.645s10.841-1.1,14.345-3.723S619.441,234.19,619.441,234.19Z" transform="translate(-545.148 -146.613)" fill="#d9c3af"/><path d="M600.944,244.694c-8.194,0-18.037-5.974-18.489-6.251a.633.633,0,1,1,.662-1.079c.117.072,11.756,7.141,19.816,5.923a36.7,36.7,0,0,0,14.273-5.582.633.633,0,0,1,.739,1.029,37.311,37.311,0,0,1-14.823,5.8A14.677,14.677,0,0,1,600.944,244.694Z" transform="translate(-545.338 -147.92)" fill="#cab0a1"/><path d="M543.072,313.758a.34.34,0,0,1-.082-.01.344.344,0,0,1-.252-.417c2.207-8.963,4.384-19.33,6.49-29.356,2.38-11.331,4.84-23.046,7.409-33.093a10.254,10.254,0,0,1,2.21-4.822.345.345,0,1,1,.49.485,9.579,9.579,0,0,0-2.033,4.508c-2.565,10.032-5.025,21.741-7.4,33.063-2.107,10.032-4.285,20.405-6.5,29.379A.345.345,0,0,1,543.072,313.758Z" transform="translate(-539.938 -149.11)" fill="#e9d7d0"/><path d="M548.385,308.945a.331.331,0,0,1-.1-.016.345.345,0,0,1-.224-.433,19.469,19.469,0,0,0,.717-4.46,20.03,20.03,0,0,1,.746-4.615c1.6-5.01,3.245-10.19,4.451-15.393.81-3.5,1.446-7.106,2.06-10.6,1.226-6.97,2.495-14.177,5.219-20.837a.345.345,0,1,1,.638.261c-2.7,6.592-3.958,13.762-5.177,20.7-.617,3.5-1.254,7.12-2.068,10.633-1.213,5.23-2.866,10.424-4.465,15.447a19.514,19.514,0,0,0-.717,4.46,19.979,19.979,0,0,1-.747,4.615A.345.345,0,0,1,548.385,308.945Z" transform="translate(-540.666 -149.989)" fill="#e9d7d0"/><path d="M554.615,305.824a.35.35,0,0,1-.168-.044.344.344,0,0,1-.132-.469c2.436-4.349,4.294-13,5.932-20.624.776-3.609,1.509-7.017,2.258-9.816a.345.345,0,0,1,.666.178c-.746,2.782-1.477,6.183-2.25,9.782-1.649,7.677-3.519,16.377-6.005,20.815A.346.346,0,0,1,554.615,305.824Z" transform="translate(-541.519 -153.035)" fill="#e9d7d0"/><path d="M571.809,283.514a.345.345,0,0,1-.344-.333c-.273-8.314-.539-29.07,2.863-42.2a.345.345,0,0,1,.667.173c-3.38,13.046-3.113,33.723-2.841,42.007a.344.344,0,0,1-.333.356Z" transform="translate(-543.854 -148.392)" fill="#e9d7d0"/><path d="M577.628,279.82a.346.346,0,0,1-.343-.31c-1.116-11.13,1.246-26.443,3.828-37.062a.345.345,0,0,1,.67.163c-2.569,10.563-4.92,25.786-3.813,36.83a.344.344,0,0,1-.308.377Z" transform="translate(-544.633 -148.593)" fill="#e9d7d0"/><path d="M580.267,340.345a.344.344,0,0,1-.344-.341c-.036-3.646.223-9.439.475-15.041s.509-11.376.474-15a.345.345,0,0,1,.341-.348h0a.344.344,0,0,1,.344.341c.036,3.646-.224,9.439-.475,15.041s-.509,11.377-.474,15a.345.345,0,0,1-.341.348Z" transform="translate(-545.032 -157.828)" fill="#e9d7d0"/><path d="M588.246,331.664a.343.343,0,0,1-.342-.307c-1.041-9.6-1.685-19.751-1.914-30.164-.173-7.856.187-15.837.536-23.554l1.339-29.624a.322.322,0,0,1,.359-.329.344.344,0,0,1,.329.359l-1.339,29.61c-.349,7.721-.708,15.689-.535,23.523.229,10.393.871,20.522,1.91,30.1a.345.345,0,0,1-.305.38A.282.282,0,0,1,588.246,331.664Z" transform="translate(-545.858 -149.346)" fill="#e9d7d0"/><path d="M597.1,332.536a.345.345,0,0,1-.342-.3l-.148-1.192a.345.345,0,0,1,.128-.313c-.15-13-.384-27.123-.611-40.8-.236-14.19-.478-28.864-.627-42.268a.345.345,0,0,1,.34-.348.34.34,0,0,1,.349.34c.149,13.4.393,28.075.628,42.264s.478,28.864.627,42.268a.345.345,0,0,1-.322.348Z" transform="translate(-547.166 -149.295)" fill="#e9d7d0"/><path d="M606.641,331.858a.371.371,0,0,1-.242-.089.345.345,0,0,1-.052-.459c.054-.342.074-1.556.083-2.034,0-.254.008-.438.012-.483,1.161-13.06.344-27.462-.444-41.389-.728-12.863-1.482-26.164-.663-38.3a.356.356,0,0,1,.367-.321.346.346,0,0,1,.321.368c-.816,12.094-.065,25.373.663,38.215.791,13.952,1.609,28.379.443,41.488,0,.045-.006.21-.009.435-.042,2.41-.093,2.433-.339,2.542A.349.349,0,0,1,606.641,331.858Z" transform="translate(-548.465 -149.496)" fill="#e9d7d0"/><path d="M615.883,331.357h-.012a.345.345,0,0,1-.333-.356c.074-2.212.288-5.589.537-9.5.513-8.077,1.214-19.139,1.087-27.018q-.032-2.021-.06-4.042c-.095-6.732-.193-13.695-.652-20.52-.11-1.634-.241-3.268-.371-4.9a109.707,109.707,0,0,1-.458-17.589.351.351,0,0,1,.371-.316.344.344,0,0,1,.315.371,109.224,109.224,0,0,0,.459,17.479c.131,1.638.261,3.275.372,4.911.46,6.845.557,13.815.652,20.556q.029,2.022.06,4.042c.127,7.905-.576,18.984-1.089,27.072-.247,3.905-.461,7.277-.534,9.478A.345.345,0,0,1,615.883,331.357Z" transform="translate(-549.895 -149.268)" fill="#e9d7d0"/><path d="M623.6,330.8h-.016a.344.344,0,0,1-.329-.359c.741-16.638.972-33.508.686-50.143-.048-2.842-.019-5.992.013-9.328.085-9.11.183-19.436-1.329-27.1a.344.344,0,1,1,.676-.133c1.526,7.728,1.428,18.092,1.342,27.235-.032,3.33-.061,6.476-.013,9.309.286,16.649.055,33.534-.687,50.185A.344.344,0,0,1,623.6,330.8Z" transform="translate(-550.88 -148.768)" fill="#e9d7d0"/><path d="M647.481,331.827a.343.343,0,0,1-.293-.163c-1.659-2.674-2.06-8.723-2.327-12.725-.045-.68-.086-1.3-.129-1.824-.584-7.236-.755-16.24-.936-25.773-.337-17.819-.687-36.245-3.76-45.774a.344.344,0,1,1,.655-.211c3.105,9.627,3.455,28.1,3.795,45.973.181,9.522.351,18.516.932,25.731.043.529.084,1.15.13,1.833.261,3.935.657,9.879,2.224,12.409a.344.344,0,0,1-.111.474A.339.339,0,0,1,647.481,331.827Z" transform="translate(-553.264 -148.994)" fill="#e9d7d0"/><path d="M641.335,339a.344.344,0,0,1-.34-.29c-1.967-12.338-3.02-36.759-2.125-49.3a.361.361,0,0,1,.368-.319.345.345,0,0,1,.319.369c-.892,12.5.156,36.847,2.118,49.146a.343.343,0,0,1-.286.393A.3.3,0,0,1,641.335,339Z" transform="translate(-553.063 -155.018)" fill="#e9d7d0"/><path d="M652.678,333.326a.345.345,0,0,1-.342-.3c-.257-2.024-.716-4.739-1.2-7.614-1.015-6.015-2.165-12.833-2.16-17.034.008-8-1.231-39.931-2.175-50.793a.343.343,0,0,1,.313-.373.347.347,0,0,1,.373.312c.946,10.877,2.185,42.843,2.178,50.855,0,4.142,1.141,10.93,2.151,16.919.487,2.882.946,5.6,1.206,7.64a.345.345,0,0,1-.3.386Z" transform="translate(-554.193 -150.651)" fill="#e9d7d0"/><path d="M617.371,238.656a.344.344,0,0,1-.335-.264,23.583,23.583,0,0,0-2.107-5.579.345.345,0,0,1,.608-.324,24.344,24.344,0,0,1,2.168,5.742.344.344,0,0,1-.255.415A.323.323,0,0,1,617.371,238.656Z" transform="translate(-549.822 -147.24)" fill="#e9d7d0"/><path d="M620.49,236.653a.32.32,0,0,1-.309-.234,18.548,18.548,0,0,0-2.1-4.785.319.319,0,1,1,.544-.336,19.257,19.257,0,0,1,2.174,4.95.321.321,0,0,1-.223.394A.328.328,0,0,1,620.49,236.653Z" transform="translate(-550.253 -147.081)" fill="#e9d7d0"/><path d="M612.409,239.851a.345.345,0,0,1-.344-.327,20.582,20.582,0,0,0-.916-5.1.344.344,0,1,1,.658-.205,21.24,21.24,0,0,1,.945,5.269.343.343,0,0,1-.326.362Z" transform="translate(-549.308 -147.469)" fill="#e9d7d0"/><path d="M607.4,241a.346.346,0,0,1-.345-.333l-.169-4.9a.345.345,0,0,1,.332-.356.353.353,0,0,1,.356.333l.17,4.9a.345.345,0,0,1-.332.356Z" transform="translate(-548.726 -147.664)" fill="#e9d7d0"/><path d="M601.765,241.481a.37.37,0,0,1-.062-.005.345.345,0,0,1-.278-.4,19.814,19.814,0,0,0,.237-5.292.344.344,0,0,1,.686-.061,20.533,20.533,0,0,1-.245,5.476A.344.344,0,0,1,601.765,241.481Z" transform="translate(-547.977 -147.664)" fill="#e9d7d0"/><path d="M596.352,240.408a.34.34,0,0,1-.152-.035.345.345,0,0,1-.158-.461,12.39,12.39,0,0,0,1.253-5.444.345.345,0,0,1,.344-.345h0a.345.345,0,0,1,.344.344,13.08,13.08,0,0,1-1.323,5.748A.344.344,0,0,1,596.352,240.408Z" transform="translate(-547.236 -147.488)" fill="#e9d7d0"/><path d="M591.892,238.211a.344.344,0,0,1-.244-.588,5.387,5.387,0,0,0,1.541-4.222.344.344,0,1,1,.686-.06,6.08,6.08,0,0,1-1.739,4.768A.343.343,0,0,1,591.892,238.211Z" transform="translate(-546.625 -147.338)" fill="#e9d7d0"/><path d="M587.361,237.061a.345.345,0,0,1-.312-.492c.76-1.6,1.6-3.192,2.49-4.723a.344.344,0,1,1,.595.347c-.881,1.514-1.71,3.086-2.462,4.672A.344.344,0,0,1,587.361,237.061Z" transform="translate(-546.004 -147.153)" fill="#e9d7d0"/><path d="M583.932,235.874h-.03a.346.346,0,0,1-.314-.373c.2-2.267,2.1-6.17,3.792-6.323a.344.344,0,1,1,.061.686c-1.11.1-2.974,3.454-3.167,5.7A.344.344,0,0,1,583.932,235.874Z" transform="translate(-545.535 -146.811)" fill="#e9d7d0"/><path d="M629.864,300a.344.344,0,0,1-.342-.3c-.841-7.125,0-14.375.812-21.386.421-3.634.858-7.394,1.053-11.088.306-5.77-1.063-14.08-2.164-20.758-.273-1.652-.529-3.211-.742-4.62a.344.344,0,1,1,.68-.1c.214,1.406.47,2.963.742,4.612,1.105,6.709,2.482,15.061,2.171,20.906-.2,3.715-.634,7.485-1.056,11.13-.808,6.972-1.643,14.18-.813,21.225a.344.344,0,0,1-.3.383A.322.322,0,0,1,629.864,300Z" transform="translate(-551.683 -148.492)" fill="#e9d7d0"/><path d="M574.541,314.645a.633.633,0,0,1-.5-1.017L587.8,295.6a.633.633,0,1,1,1.006.768L575.045,314.4A.632.632,0,0,1,574.541,314.645Z" transform="translate(-544.209 -155.875)" fill="#cab0a1"/><g transform="translate(35.191 85.993)"><path d="M597.107,297.837a.659.659,0,0,1-.609-.407c-10.464-25.261-16.163-62.916-16.219-63.293a.659.659,0,0,1,1.3-.2c.056.376,5.732,37.873,16.133,62.983a.66.66,0,0,1-.608.912Z" transform="translate(-580.271 -233.38)" fill="#1a2847"/><path d="M603.345,298.367a.647.647,0,0,1-.249-.049.658.658,0,0,1-.361-.86,339.606,339.606,0,0,0,18.225-62.221.659.659,0,1,1,1.3.224,341.053,341.053,0,0,1-18.3,62.5A.659.659,0,0,1,603.345,298.367Z" transform="translate(-583.342 -233.559)" fill="#1a2847"/><rect width="24.865" height="16.823" transform="matrix(1, -0.024, 0.024, 1, 6.451, 64.039)" fill="#1a2847"/><rect width="20.679" height="13.464" transform="matrix(1, -0.024, 0.024, 1, 8.584, 65.668)" fill="#fff"/><rect width="6.639" height="9.772" transform="matrix(1, -0.024, 0.024, 1, 10.266, 67.654)" fill="#e2e2e3"/><path d="M602.734,313.817a.329.329,0,0,1-.009-.659l7.124-.172h.009a.33.33,0,0,1,.008.659l-7.124.171Z" transform="translate(-583.303 -244.284)" fill="#9fa0a0"/><path d="M602.808,316.938a.33.33,0,0,1-.008-.659l7.124-.171h.008a.33.33,0,0,1,.009.659l-7.124.171Z" transform="translate(-583.313 -244.711)" fill="#9fa0a0"/><rect width="2.04" height="2.754" transform="translate(24.258 73.796) rotate(-1.374)" fill="#e2e2e3"/></g><path d="M589.58,267a29.552,29.552,0,0,1,.953-4.021,10.055,10.055,0,0,0,.514-4.623c-.129-.877-1.178-3.224-2.258-1.747a2.385,2.385,0,0,0-.338.938,60.888,60.888,0,0,1-2.726,9.253c-.973,2.538-2.523,5.132-3.184,7.754a26.543,26.543,0,0,0-.345,4.411,6.673,6.673,0,0,1-1.455,3.325c-1.535,2.374-2.946,4.721-5.246,6.365a5.405,5.405,0,0,0-1.188,2.052c-.124,1.213,3.211,9.317,7.128,5.4,4.644-4.644,6.588-7.439,7.777-8.1,1.944-1.08,5.369-3.223,5.508-3.348,6.048-5.4,11.7-10.378,17.431-16.477.866-.922,1.8-2.093,1.462-3.311-1.759-1.506-6.81,5.125-10.344,7.633,1.751-2.164,8.982-9.11,9.527-10a1.407,1.407,0,0,0-.216-1.454c-.648-.4-1.716.018-2.7.809-1.328,1.067-7.249,6.62-9.366,7.974,2.06-2.893,12.155-12.644,11.067-15.117a.819.819,0,0,0-1.039-.52,8.936,8.936,0,0,0-2.5,1.177s.446-1.782-.87-1.49a4.887,4.887,0,0,0-1.625.657C600.038,258.1,590.929,266.018,589.58,267Z" transform="translate(-544.263 -150.191)" fill="#edbf98"/><path d="M545.148,321.967l30.2-37.058,10.278,9.488-28.163,35.238Z" transform="translate(-540.27 -154.445)" fill="#d9c3af"/><path d="M600.616,267.617a.634.634,0,0,1-.454-1.074l10.251-10.548a.633.633,0,0,1,.908.882l-10.25,10.548A.631.631,0,0,1,600.616,267.617Z" transform="translate(-547.78 -150.458)" fill="#cb6362"/><path d="M546.325,318.192a.633.633,0,0,1-.464-1.064l29.254-31.467a.633.633,0,1,1,.927.861L546.788,317.99A.628.628,0,0,1,546.325,318.192Z" transform="translate(-540.344 -154.52)" fill="#cab0a1"/><path d="M542.17,328.956a.338.338,0,0,1-.122-.023.344.344,0,0,1-.2-.444c1.326-3.456,4.079-6.069,6.741-8.6l.229-.217a332.809,332.809,0,0,0,27.7-30.271.345.345,0,1,1,.54.429A333.772,333.772,0,0,1,549.3,320.174l-.23.218c-2.607,2.474-5.3,5.033-6.573,8.343A.345.345,0,0,1,542.17,328.956Z" transform="translate(-539.815 -155.043)" fill="#e9d7d0"/><path d="M547.031,331.556a.339.339,0,0,1-.216-.077.344.344,0,0,1-.053-.484c10.121-12.548,23.6-27.957,33.122-38.673a.345.345,0,0,1,.515.457c-9.519,10.711-22.989,26.111-33.1,38.648A.345.345,0,0,1,547.031,331.556Z" transform="translate(-540.481 -155.444)" fill="#e9d7d0"/><path d="M551.131,334.443a.344.344,0,0,1-.252-.578c4.817-5.19,10.1-12.114,15.206-18.81,5.395-7.073,10.973-14.385,16.108-19.81a.345.345,0,1,1,.5.474c-5.11,5.4-10.677,12.7-16.061,19.754-5.118,6.708-10.41,13.646-15.249,18.861A.344.344,0,0,1,551.131,334.443Z" transform="translate(-541.042 -155.846)" fill="#e9d7d0"/></g></g></g></svg>