<svg xmlns="http://www.w3.org/2000/svg" xmlns:xlink="http://www.w3.org/1999/xlink" width="350" height="200" viewBox="0 0 350 200"><defs><clipPath id="a"><rect width="350" height="200" transform="translate(508 1451)" fill="#f7f3e5"/></clipPath></defs><g transform="translate(-508 -1451)"><rect width="350" height="200" transform="translate(508 1451)" fill="#f7f3e5"/><g clip-path="url(#a)"><rect width="101.117" height="42.404" transform="translate(591.147 1608.828) rotate(-90)" fill="#8fccc2"/><rect width="148.08" height="42.404" transform="translate(722.144 1608.828) rotate(-90)" fill="#03a58e"/><rect width="260.947" height="2.952" transform="translate(547.373 1605.876)" fill="#a2a2a2"/><g transform="translate(597.646 1479.259)"><g transform="translate(1.34 0)"><path d="M1054.011,1116.438s-42.817,59.882-105.2,80.284c0,0,50.391,9.656,120.954-60.849Z" transform="translate(-948.809 -1086.111)" fill="#fff"/><path d="M2349.823,661.451l53.071-18.2-10.31,65.911Z" transform="translate(-2260.031 -643.252)" fill="#fff"/></g><g transform="translate(0 0)"><path d="M1033.964,1017.413s-43.811,65.773-106.057,86.6c0,0,51.857,3.712,121.94-67.27Z" transform="translate(-927.907 -993.433)" fill="#eb6d4e"/><path d="M2349.823,661.451l52.574-18.2-12.7,58.375Z" transform="translate(-2258.692 -643.252)" fill="#eb6d4e"/></g></g><g transform="translate(539.031 1571.288)"><path d="M434.624-160.491v-11.063l-23.445,11.063v-11.063l-16.8,7.927v-17.881h-3.061v19.326l-3.586,1.692v28.432h70.336v-39.5Z" transform="translate(-387.733 181.509)" fill="#b4b4b5"/><g transform="translate(57.353 20.911)"><rect width="2.113" height="2.497" transform="translate(5.332)" fill="#eeeeef"/><rect width="2.113" height="2.497" transform="translate(2.666)" fill="#eeeeef"/><rect width="2.113" height="2.497" fill="#eeeeef"/></g><g transform="translate(35.481 20.911)"><rect width="2.113" height="2.497" transform="translate(5.332)" fill="#eeeeef"/><rect width="2.113" height="2.497" transform="translate(2.666)" fill="#eeeeef"/><rect width="2.113" height="2.497" fill="#eeeeef"/></g><g transform="translate(11.171 20.911)"><rect width="2.113" height="2.497" transform="translate(5.332)" fill="#eeeeef"/><rect width="2.113" height="2.497" transform="translate(2.666)" fill="#eeeeef"/><rect width="2.113" height="2.497" fill="#eeeeef"/></g><g transform="translate(57.353 24.725)"><rect width="2.113" height="2.497" transform="translate(5.332 0)" fill="#eeeeef"/><rect width="2.113" height="2.497" transform="translate(2.666 0)" fill="#eeeeef"/><rect width="2.113" height="2.497" transform="translate(0 0)" fill="#eeeeef"/></g><g transform="translate(35.481 24.725)"><rect width="2.113" height="2.497" transform="translate(5.332 0)" fill="#eeeeef"/><rect width="2.113" height="2.497" transform="translate(2.666 0)" fill="#eeeeef"/><rect width="2.113" height="2.497" transform="translate(0 0)" fill="#eeeeef"/></g><g transform="translate(11.171 24.725)"><rect width="2.113" height="2.497" transform="translate(5.332 0)" fill="#eeeeef"/><rect width="2.113" height="2.497" transform="translate(2.666 0)" fill="#eeeeef"/><rect width="2.113" height="2.497" transform="translate(0 0)" fill="#eeeeef"/></g><g transform="translate(57.353 28.54)"><rect width="2.113" height="2.497" transform="translate(5.332)" fill="#eeeeef"/><rect width="2.113" height="2.497" transform="translate(2.666)" fill="#eeeeef"/><rect width="2.113" height="2.497" fill="#eeeeef"/></g><g transform="translate(35.481 28.54)"><rect width="2.113" height="2.497" transform="translate(5.332)" fill="#eeeeef"/><rect width="2.113" height="2.497" transform="translate(2.666)" fill="#eeeeef"/><rect width="2.113" height="2.497" fill="#eeeeef"/></g><g transform="translate(11.171 28.54)"><rect width="2.113" height="2.497" transform="translate(5.332)" fill="#eeeeef"/><rect width="2.113" height="2.497" transform="translate(2.666)" fill="#eeeeef"/><rect width="2.113" height="2.497" fill="#eeeeef"/></g><g transform="translate(57.353 39.902)"><rect width="2.113" height="4.186" transform="translate(5.332)" fill="#eeeeef"/><rect width="2.113" height="4.186" transform="translate(2.666)" fill="#eeeeef"/><rect width="2.113" height="4.186" fill="#eeeeef"/></g><g transform="translate(35.481 39.902)"><rect width="2.113" height="4.186" transform="translate(5.332)" fill="#eeeeef"/><rect width="2.113" height="4.186" transform="translate(2.666)" fill="#eeeeef"/><rect width="2.113" height="4.186" fill="#eeeeef"/></g><g transform="translate(11.171 39.902)"><rect width="2.113" height="4.186" transform="translate(5.332)" fill="#eeeeef"/><rect width="2.113" height="4.186" transform="translate(2.666)" fill="#eeeeef"/><rect width="2.113" height="4.186" fill="#eeeeef"/></g><rect width="70.336" height="0.99" transform="translate(0 34.793)" fill="#3e3a39"/><rect width="11.413" height="9.548" transform="translate(21.035 39.902)" fill="#3e3a39"/></g><g transform="translate(669.747 1567.859)"><g transform="translate(0.001 0.001)"><path d="M2.3,0h0a2.3,2.3,0,0,1,2.3,2.3V4.115A2.295,2.295,0,0,1,2.3,6.409h0A2.3,2.3,0,0,1,0,4.114V2.3A2.3,2.3,0,0,1,2.3,0Z" transform="translate(0.289 19.043)"/><path d="M3783.678,4464.266c0,.384-15.338.694-34.258.694s-34.257-.31-34.257-.694,15.338-.7,34.257-.7S3783.678,4463.881,3783.678,4464.266Z" transform="translate(-3714.143 -4408.653)" fill="#9e9e9f"/><path d="M3955.441,4217.338h-15.565a3.634,3.634,0,0,1,3.634,3.633v24.541h15.565v-24.541A3.634,3.634,0,0,0,3955.441,4217.338Z" transform="translate(-3888.739 -4217.338)" fill="#397156"/><path d="M3771.383,4245.512v-24.541a3.634,3.634,0,0,1,3.635-3.633h33.944a3.634,3.634,0,0,1,3.633,3.633v24.541Z" transform="translate(-3757.825 -4217.338)" fill="#47856b"/><rect width="15.703" height="9.642" rx="4.821" transform="translate(26.068 9.266)" fill="#fff" opacity="0.4"/><g transform="translate(17.762 7)"><path d="M3824.427,4266.813h-31.619l-.178-.182v-12.069a4.98,4.98,0,0,1,4.922-5.023h22.132a4.98,4.98,0,0,1,4.923,5.023v12.06Zm-30.721-.962h29.825l.134-.136v-11.153a4.026,4.026,0,0,0-3.98-4.062h-22.132a4.026,4.026,0,0,0-3.98,4.062v11.144Z" transform="translate(-3792.096 -4249.356)" fill="#b4b4b5"/><path d="M3822.032,4266h-31.62l-.178-.182v-12.07a4.979,4.979,0,0,1,4.923-5.022h22.132a4.979,4.979,0,0,1,4.923,5.022v12.06Zm-30.721-.963h29.825l.134-.136v-11.153a4.026,4.026,0,0,0-3.98-4.061h-22.132a4.026,4.026,0,0,0-3.98,4.061v11.145Z" transform="translate(-3790.235 -4248.724)" fill="#eeeeef"/><g transform="translate(10.408 0.965)"><rect width="0.296" height="15.381" transform="translate(0.554)" fill="#7a7a7a"/><rect width="0.552" height="15.381" fill="#ccc"/></g><g transform="translate(20.462 0.965)"><rect width="0.297" height="15.381" transform="translate(0.553)" fill="#7a7a7a"/><rect width="0.552" height="15.381" fill="#ccc"/></g></g><path d="M3770.778,4262.089h-50.169l7.128-17.326a4.879,4.879,0,0,1,4.38-2.279h33.394a3.459,3.459,0,0,1,3.08,2.656C3768.93,4246.575,3770.778,4262.089,3770.778,4262.089Zm-5.938-13.961a1.817,1.817,0,0,0-1.817-1.817h-21.446a1.817,1.817,0,0,0-1.818,1.817v8.5a1.817,1.817,0,0,0,1.818,1.817h21.446a1.817,1.817,0,0,0,1.817-1.817Zm-30.191-2.653h-4.227a2.084,2.084,0,0,0-2.008,1.173c-.374.751-5.064,12.823-5.668,14.065s.135,1.272.358,1.272,8.138.027,9.195.027,1.092-.542,1.11-.872,1.715-13.743,1.841-14.636S3734.91,4245.475,3734.648,4245.475Z" transform="translate(-3718.375 -4236.876)" fill="#3e3a39"/><path d="M3741.281,4255.895h-4.227a2.084,2.084,0,0,0-2.009,1.172c-.374.751-5.064,12.823-5.667,14.064s.135,1.272.358,1.272,8.139.028,9.2.028,1.092-.542,1.11-.873,1.715-13.743,1.841-14.636S3741.542,4255.895,3741.281,4255.895Z" transform="translate(-3725.008 -4247.295)" fill="#fff" opacity="0.2"/><g transform="translate(19.56 15.282)"><path d="M3816.6,4289.911a1.167,1.167,0,0,1-1.151,1.09h-5.755a1.02,1.02,0,0,1-1.03-1.09l.529-2.962a1.167,1.167,0,0,1,1.151-1.09h5.028a1.02,1.02,0,0,1,1.03,1.09Z" transform="translate(-3806.347 -4285.859)" fill="#1a1a1a"/><path d="M3804.335,4312.686a1.653,1.653,0,0,1,1.544,1.068h3.966l.1-.67a1.337,1.337,0,0,0-1.167-1.381h-9.211a1.391,1.391,0,0,0-1.272.983Z" transform="translate(-3798.294 -4305.939)" fill="#1a1a1a"/></g><g transform="translate(35.352 15.282)"><path d="M3888.4,4289.911a1.167,1.167,0,0,1-1.15,1.09h-5.756a1.02,1.02,0,0,1-1.029-1.09l.529-2.962a1.167,1.167,0,0,1,1.152-1.09h5.028a1.019,1.019,0,0,1,1.029,1.09Z" transform="translate(-3877.925 -4285.859)" fill="#1a1a1a"/><path d="M3879.807,4311.7h-9.212a1.39,1.39,0,0,0-1.3,1.09l-.189.961h5.872c-.021.405-.036.674-.04.757a.97.97,0,0,1-.575.874h6.276l.338-2.3A1.336,1.336,0,0,0,3879.807,4311.7Z" transform="translate(-3869.102 -4305.939)" fill="#1a1a1a"/></g><path d="M3908.88,4244.356a2.524,2.524,0,0,0-2.388-1.872h-2.131a3,3,0,0,0-2.777,2.656c-.175,1.435-.67,16.3-.67,16.3l-.074.948v11.293h4.984a.4.4,0,0,1,.417.388,1.945,1.945,0,0,1,.656-.125c.792,0,1.411.65,1.875,1.628h2.611v-13.485Zm1.08,16.538a.946.946,0,0,1-.792.343,10.9,10.9,0,0,0-4.214.772,3.757,3.757,0,0,1-1.228.318h-.694a1.322,1.322,0,0,1-1-.356,1.444,1.444,0,0,1-.325-1.113c.036-.8.1-2.37.174-4.187.176-4.34.4-9.742.461-10.289a1.943,1.943,0,0,1,1.8-1.566h2.806a1.174,1.174,0,0,1,1.167,1.015l2.008,13.915A1.474,1.474,0,0,1,3909.96,4260.894Z" transform="translate(-3858.408 -4236.876)" fill="#b4b4b5"/><path d="M3913.164,4267.864l-2.008-13.915a1.172,1.172,0,0,0-1.167-1.016h-2.805a1.942,1.942,0,0,0-1.8,1.566c-.066.547-.285,5.948-.462,10.289-.073,1.818-.137,3.384-.173,4.187a1.447,1.447,0,0,0,.325,1.113,1.32,1.32,0,0,0,1,.356h.693a3.754,3.754,0,0,0,1.228-.318,10.885,10.885,0,0,1,4.214-.772.945.945,0,0,0,.792-.343A1.47,1.47,0,0,0,3913.164,4267.864Zm-.55.853a.491.491,0,0,1-.413.158,11.481,11.481,0,0,0-4.38.8,3.462,3.462,0,0,1-1.062.288h-.693a.872.872,0,0,1-.648-.206,1.025,1.025,0,0,1-.192-.759c.037-.8.1-2.371.174-4.19.167-4.1.395-9.722.459-10.25.122-1.008,1.321-1.141,1.349-1.146h2.782a.7.7,0,0,1,.692.6l2.012,13.938A1.053,1.053,0,0,1,3912.615,4268.717Z" transform="translate(-3861.442 -4244.995)" fill="#231815"/><path d="M3912.358,4255.693a.7.7,0,0,0-.692-.6h-2.782c-.028,0-1.227.137-1.349,1.146-.064.526-.292,6.146-.459,10.25-.074,1.818-.137,3.385-.173,4.19a1.02,1.02,0,0,0,.192.758.872.872,0,0,0,.647.207h.694a3.463,3.463,0,0,0,1.062-.288,11.475,11.475,0,0,1,4.381-.8.49.49,0,0,0,.413-.158,1.051,1.051,0,0,0,.08-.761Z" transform="translate(-3863.118 -4246.669)" fill="#fff" opacity="0.2"/><g transform="translate(43.301 7.939)"><path d="M3906.759,4270.446h-.693a1.32,1.32,0,0,1-1-.356,1.447,1.447,0,0,1-.325-1.113c.036-.8.1-2.369.173-4.187.177-4.34.4-9.742.462-10.289a1.942,1.942,0,0,1,1.8-1.566h2.805a1.172,1.172,0,0,1,1.167,1.016l2.008,13.915a1.47,1.47,0,0,1-.171,1.148.945.945,0,0,1-.792.343,10.885,10.885,0,0,0-4.214.772A3.754,3.754,0,0,1,3906.759,4270.446Zm.448-17.032c-.027,0-1.227.138-1.349,1.146-.064.528-.292,6.147-.459,10.25-.075,1.819-.137,3.386-.174,4.19a1.025,1.025,0,0,0,.192.759.872.872,0,0,0,.648.206h.693a3.462,3.462,0,0,0,1.062-.288,11.481,11.481,0,0,1,4.38-.8.491.491,0,0,0,.413-.158,1.053,1.053,0,0,0,.079-.761l-2.012-13.938a.7.7,0,0,0-.692-.6Z" transform="translate(-3904.743 -4252.933)" fill="#231815"/></g><g transform="translate(13.9 19.921)"><path d="M3773.907,4308.765a3.167,3.167,0,0,1,2.636-1.308,4.3,4.3,0,0,1,3.009,1.308h.99a5.317,5.317,0,0,0-4.113-2.109,3.811,3.811,0,0,0-3.512,2.109Z" transform="translate(-3772.917 -4306.656)"/></g><g transform="translate(3.716 22.03)"><path d="M3727.3,4318.7c.109.192.41.3.846.3h35.02c.988,0,1.51-.354,1.552-1.055,0-.084.019-.353.04-.758h-14.078a1.653,1.653,0,0,0-1.544-1.068h-17.2a3.95,3.95,0,0,0-2.335,1.068h-1.815c-.195.456-.325.748-.382.842A.7.7,0,0,0,3727.3,4318.7Z" transform="translate(-3727.254 -4316.112)" fill="#1a1a1a"/></g><path d="M1.187,0H6.6A1.186,1.186,0,0,1,7.781,1.186v0A1.186,1.186,0,0,1,6.6,2.372H1.185A1.185,1.185,0,0,1,0,1.187v0A1.187,1.187,0,0,1,1.187,0Z" transform="translate(20.005 9.146)" fill="#1a1a1a"/><path d="M3981.293,4397.6c-1.441,0-2.609,3.483-2.609,7.781s1.168,7.781,2.609,7.781h3.445c-1.441,0-2.61-3.483-2.61-7.781s1.169-7.781,2.61-7.781Z" transform="translate(-3918.892 -4357.398)" fill="#231815"/><path d="M.483,0h15.3a.483.483,0,0,1,.483.483v0a.483.483,0,0,1-.483.483H.482A.482.482,0,0,1,0,.483v0A.483.483,0,0,1,.483,0Z" transform="translate(53.59 28.174)" fill="#bebfbf"/><path d="M3948.114,4344.628h.9a.272.272,0,0,1-.272-.272v-.421a.272.272,0,0,1,.272-.271h-.9Z" transform="translate(-3895.14 -4315.489)" fill="#888"/><path d="M.525,0H15.737a.526.526,0,0,1,.526.526v0a.527.527,0,0,1-.527.527H.525A.525.525,0,0,1,0,.528v0A.525.525,0,0,1,.525,0Z" transform="translate(53.59 37.661)" fill="#9e9e9f"/><path d="M3998.315,4390.911h-1.8c-.527,0-.966.468-1.322,1.136l.016.035c.055.1.107.21.158.322h2.2c1.065,0,1.981,1.906,2.387,4.637h.458s.319.01.319-.484C4000.727,4395.7,3999.856,4390.911,3998.315,4390.911Z" transform="translate(-3931.717 -4352.199)" fill="#383231"/><path d="M3999.349,4405.384c0,4.3-1.168,7.781-2.609,7.781s-2.609-3.483-2.609-7.781,1.168-7.781,2.609-7.781S3999.349,4401.086,3999.349,4405.384Z" transform="translate(-3930.894 -4357.398)" fill="#595757"/><path d="M4002.964,4415.456c0,2.7-.666,4.889-1.487,4.889s-1.487-2.188-1.487-4.889.666-4.89,1.487-4.89S4002.964,4412.756,4002.964,4415.456Z" transform="translate(-3935.447 -4367.47)" fill="#eeeeef"/><path d="M3759.251,4440.763c.278,3.406,1.307,5.936,2.534,5.936s2.258-2.53,2.535-5.936Z" transform="translate(-3748.399 -4390.933)" fill="#231815"/><path d="M3747.249,4440.763H3743.8c.278,3.406,1.306,5.936,2.534,5.936h3.445C3748.556,4446.7,3747.527,4444.169,3747.249,4440.763Z" transform="translate(-3736.397 -4390.933)" fill="#3e3a39"/><path d="M3838.7,4440.763c.278,3.406,1.307,5.936,2.534,5.936s2.256-2.53,2.535-5.936Z" transform="translate(-3810.13 -4390.933)" fill="#231815"/><path d="M3826.7,4440.763h-3.446c.279,3.406,1.308,5.936,2.536,5.936h3.445C3828,4446.7,3826.975,4444.169,3826.7,4440.763Z" transform="translate(-3798.125 -4390.933)" fill="#3e3a39"/><path d="M3919.827,4405.384c0,4.3-1.167,7.781-2.608,7.781s-2.609-3.483-2.609-7.781,1.168-7.781,2.609-7.781S3919.827,4401.086,3919.827,4405.384Z" transform="translate(-3869.107 -4357.398)" fill="#595757"/><path d="M3923.44,4415.456c0,2.7-.666,4.889-1.487,4.889s-1.487-2.188-1.487-4.889.667-4.89,1.487-4.89S3923.44,4412.756,3923.44,4415.456Z" transform="translate(-3873.658 -4367.47)" fill="#eeeeef"/><path d="M3916.7,4394.462c0-4.3,1.168-7.781,2.609-7.781h-2.2c-.055-.122-.111-.245-.17-.356-.06.113-.116.232-.173.356h0c-.04.092-.081.186-.119.282a14.049,14.049,0,0,0-.867,3.87.481.481,0,0,1-.505.484h-3.553s-.319.009-.319-.484a14.5,14.5,0,0,1,.883-3.87c.391-.99.9-1.775,1.529-1.775l-9.985-.013c-.464-.979-1.083-1.614-1.875-1.629-1.659-.031-2.272,2.3-2.754,4.78a23.059,23.059,0,0,1-1.16,4.675,6.764,6.764,0,0,1-2.478,2.819.067.067,0,0,1,0,.01,5.058,5.058,0,0,1-1.087.535,6.188,6.188,0,0,0,1.184.58c.348,3.078,1.321,5.3,2.471,5.3h3.445c-1.081,0-2.009-1.961-2.4-4.756h0a21.707,21.707,0,0,1-.2-3.024c0-4.3,1.168-7.781,2.609-7.781.618,0,1.186.642,1.632,1.713h0a9.621,9.621,0,0,1,.4,1.2s0,.007,0,.009c.059.216.111.44.162.673,0,.01,0,.021.007.032.05.234.1.478.136.728a.051.051,0,0,1,0,.008q.062.381.111.785c0,.009,0,.018,0,.026.03.256.056.519.078.788l.006.073c.02.26.036.526.047.794,0,.024,0,.046,0,.071q.017.432.017.878c0,.242,0,.481-.012.715,0,.1-.008.193-.012.29-.008.167-.014.335-.025.5.036-.051.068-.107.1-.162h6.13a1.1,1.1,0,0,0,1.094-.881h1.8c.08,4.083,1.215,7.32,2.6,7.32h3.446C3917.867,4402.243,3916.7,4398.759,3916.7,4394.462Z" transform="translate(-3853.462 -4346.478)" fill="#231815"/><path d="M3919.827,4405.384c0,4.3-1.167,7.781-2.608,7.781s-2.609-3.483-2.609-7.781,1.168-7.781,2.609-7.781S3919.827,4401.086,3919.827,4405.384Z" transform="translate(-3869.107 -4357.398)" fill="#595757"/><path d="M3923.44,4415.456c0,2.7-.666,4.889-1.487,4.889s-1.487-2.188-1.487-4.889.667-4.89,1.487-4.89S3923.44,4412.756,3923.44,4415.456Z" transform="translate(-3873.658 -4367.47)" fill="#eeeeef"/><path d="M4005.55,4427.381c0,.81-.2,1.466-.446,1.466s-.445-.656-.445-1.466.2-1.466.445-1.466S4005.55,4426.57,4005.55,4427.381Z" transform="translate(-3939.073 -4379.396)" fill="#595757"/><path d="M3926.024,4427.381c0,.81-.2,1.466-.445,1.466s-.446-.656-.446-1.466.2-1.466.446-1.466S3926.024,4426.57,3926.024,4427.381Z" transform="translate(-3877.284 -4379.396)" fill="#595757"/><path d="M4001.955,4422.375c-.877,0-1.35-2.1-1.35-4.07s.473-4.072,1.35-4.072,1.349,2.1,1.349,4.072S4002.832,4422.375,4001.955,4422.375Zm0-7.822c-.486,0-1.03,1.6-1.03,3.752s.544,3.751,1.03,3.751,1.029-1.6,1.029-3.751S4002.44,4414.552,4001.955,4414.552Z" transform="translate(-3935.924 -4370.319)" fill="#231815"/><path d="M3922.431,4422.375c-.877,0-1.35-2.1-1.35-4.07s.473-4.072,1.35-4.072,1.35,2.1,1.35,4.072S3923.308,4422.375,3922.431,4422.375Zm0-7.822c-.43,0-1.03,1.428-1.03,3.752s.6,3.751,1.03,3.751,1.029-1.427,1.029-3.751S3922.861,4414.552,3922.431,4414.552Z" transform="translate(-3874.136 -4370.319)" fill="#231815"/><path d="M3885.6,4393.127s-.854,10.624-1.709,10.624h2.5a6.587,6.587,0,0,0,3.419-3.306c.816-1.7,1.045-5.094,1.823-7.318Z" transform="translate(-3845.242 -4353.92)" fill="#1a1a1a"/><path d="M3898.61,4382.372h-5.131l-1.923,2.4h6.037a3.149,3.149,0,0,1,1.435-2.011A.4.4,0,0,0,3898.61,4382.372Z" transform="translate(-3851.196 -4345.564)" fill="#262626"/><path d="M3710.593,4393.127s-.019,10.624,3.186,10.624h35.465c.856,0,1.709-10.624,1.709-10.624Z" transform="translate(-3710.593 -4353.92)" fill="#333"/><path d="M3710.593,4384.77l1.157-2.4h41.126l-1.924,2.4Z" transform="translate(-3710.593 -4345.564)" fill="#4d4d4d"/><path d="M3901.708,4350.512h-.869v2.165h1.229v-1.568S3902.041,4350.512,3901.708,4350.512Z" transform="translate(-3858.408 -4320.811)" fill="#ec6c00"/><rect width="1.229" height="4.939" transform="translate(42.43 31.868)" fill="#dbdcdc"/><path d="M3727.634,4242.484c-3.739,0-4.606,2.279-4.606,2.279s-6.719,16.071-7,16.679a4.139,4.139,0,0,0-.168,1.692l-.08,3.443h5.246c1.884,0,1.889,2.165,1.889,2.165v4.941h34.137v-11.293l.074-.948s.495-14.867.67-16.3a3,3,0,0,1,2.777-2.656Zm28.654,18.275c-.028.454-.279,1.508-2.032,1.508h-35.02c-.791,0-1.124-.293-1.264-.54a1.135,1.135,0,0,1,.112-1.159c.2-.338,1.765-4.206,3.145-7.618,1.729-4.274,2.79-6.889,2.955-7.15l.021-.032a1.983,1.983,0,0,1,1.661-1.2c.793-.023,3.752-.034,8.8-.034,4.938,0,11.681.011,20.042.031l.785,0a1.636,1.636,0,0,1,1.135.513,1.449,1.449,0,0,1,.41,1.074C3756.994,4246.987,3756.329,4260.074,3756.288,4260.76Z" transform="translate(-3714.624 -4236.876)" fill="#e2e2e2"/><path d="M3765.469,4254.945a.968.968,0,0,0-.278-.719,1.158,1.158,0,0,0-.788-.365h-.786c-8.361-.021-15.1-.032-20.042-.032-5.039,0-7.993.012-8.782.034-.662.02-.944.463-1.269.978l-.021.032c-.157.253-1.623,3.877-2.915,7.073-1.787,4.418-2.973,7.34-3.178,7.685a.7.7,0,0,0-.107.673c.109.193.41.3.846.3h35.02c.988,0,1.51-.354,1.552-1.055C3764.762,4268.858,3765.428,4255.776,3765.469,4254.945Z" transform="translate(-3723.538 -4245.689)" fill="#fff" opacity="0.4"/><path d="M3761.491,4269.408h-35.02c-.791,0-1.124-.294-1.264-.541a1.135,1.135,0,0,1,.113-1.158c.2-.338,1.765-4.206,3.145-7.618,1.729-4.274,2.79-6.889,2.956-7.15l.021-.033a1.98,1.98,0,0,1,1.661-1.2c.793-.023,3.752-.034,8.8-.034,4.938,0,11.681.01,20.043.031l.785,0a1.633,1.633,0,0,1,1.135.513,1.449,1.449,0,0,1,.411,1.074c-.041.831-.707,13.918-.748,14.6C3763.5,4268.354,3763.245,4269.408,3761.491,4269.408Zm-19.594-17.253c-5.039,0-7.993.012-8.782.034-.662.019-.944.463-1.269.977l-.021.033c-.157.253-1.623,3.876-2.915,7.072-1.787,4.419-2.973,7.341-3.178,7.685a.7.7,0,0,0-.107.675c.11.191.41.3.847.3h35.02c.988,0,1.51-.354,1.553-1.055.041-.686.707-13.768.748-14.6a.965.965,0,0,0-.278-.718,1.155,1.155,0,0,0-.788-.365l-.787,0C3753.577,4252.166,3746.834,4252.155,3741.9,4252.155Z" transform="translate(-3721.86 -4244.017)"/><path d="M3721.028,4350.512h-5.246v2.165h7.136S3722.912,4350.512,3721.028,4350.512Z" transform="translate(-3714.624 -4320.811)" fill="#f29600"/><rect width="7.135" height="4.939" transform="translate(1.157 31.868)" fill="#fff"/><path d="M2.3,0h0a2.3,2.3,0,0,1,2.3,2.3V4.114a2.3,2.3,0,0,1-2.3,2.3h0A2.3,2.3,0,0,1,0,4.113V2.3A2.3,2.3,0,0,1,2.3,0Z" transform="translate(45.072 19.043)"/><path d="M3870.546,4350.512h5.289v2.165h-7.177S3868.663,4350.512,3870.546,4350.512Z" transform="translate(-3833.405 -4320.811)" fill="#f29600"/><rect width="7.178" height="4.939" transform="translate(35.253 31.868)" fill="#fff"/><path d="M3754.55,4400.188a1.09,1.09,0,0,1-1.091,1.089h-35.154a1.089,1.089,0,0,1-1.09-1.089v-.465a1.089,1.089,0,0,1,1.09-1.09h35.154a1.091,1.091,0,0,1,1.091,1.09Z" transform="translate(-3715.738 -4358.199)"/><path d="M1.322,0H4.094A1.322,1.322,0,0,1,5.416,1.322v0A1.322,1.322,0,0,1,4.094,2.644H1.322A1.322,1.322,0,0,1,0,1.322v0A1.322,1.322,0,0,1,1.322,0Z" transform="translate(1.477 40.434)" fill="#c8c9ca"/><path d="M1.322,0H4.094A1.322,1.322,0,0,1,5.416,1.322v0A1.322,1.322,0,0,1,4.094,2.644H1.322A1.322,1.322,0,0,1,0,1.322v0A1.322,1.322,0,0,1,1.322,0Z" transform="translate(33.46 40.434)" fill="#c8c9ca"/><path d="M1.223,0H13.745a1.222,1.222,0,0,1,1.222,1.222V2.8a1.222,1.222,0,0,1-1.222,1.222H1.223A1.223,1.223,0,0,1,0,2.8V1.223A1.223,1.223,0,0,1,1.223,0Z" transform="translate(12.359 42.073)" fill="#d9d9d9"/><path d="M3935.193,4340.39a.272.272,0,0,0,.272.272h1.271a.272.272,0,0,0,.272-.272v-.818a.272.272,0,0,0-.272-.272h-1.271a.273.273,0,0,0-.272.272Z" transform="translate(-3885.101 -4312.098)" fill="#262626"/><rect width="16.427" height="8.523" transform="translate(52.977 29.142)" fill="#b4b4b5"/><path d="M3948.951,4361.6a.268.268,0,0,1-.214-.261v-.508a.272.272,0,0,1,.272-.273h-.528v-7.361h-.364v7.361h0v1.041Z" transform="translate(-3895.14 -4322.895)" fill="#888"/><rect width="3.285" height="5.768" transform="translate(53.268 43.719)" fill="#c8c9ca"/><g transform="translate(57.936 38.712)"><path d="M3970.364,4402.738c0,.495.319.484.319.484h3.553a.481.481,0,0,0,.506-.484,14.043,14.043,0,0,1,.866-3.87h-4.361A14.52,14.52,0,0,0,3970.364,4402.738Z" transform="translate(-3970.364 -4397.093)" fill="#b3b3b3"/><path d="M3980.3,4390.911h-4.448c-.623,0-1.137.785-1.528,1.774h4.36C3979.079,4391.7,3979.615,4390.911,3980.3,4390.911Z" transform="translate(-3973.439 -4390.911)" fill="#717071"/></g><rect width="16.427" height="1.158" transform="translate(52.977 29.142)" fill="#9e9e9f"/><g transform="translate(55.744 2.028)"><path d="M3983.373,4226.438s.843,1.274,1.575,1.274c.887,0,1.636-1.373,1.636-1.274,0,.12-.631,1.821-1.636,1.821S3983.355,4226.62,3983.373,4226.438Z" transform="translate(-3978.279 -4226.433)" fill="#47856b"/><path d="M4006.1,4226.438s.841,1.274,1.574,1.274c.887,0,1.636-1.373,1.636-1.274,0,.12-.631,1.821-1.636,1.821S4006.084,4226.62,4006.1,4226.438Z" transform="translate(-3995.939 -4226.433)" fill="#47856b"/><path d="M3960.535,4226.438s.842,1.274,1.575,1.274c.886,0,1.637-1.373,1.637-1.274,0,.12-.632,1.821-1.637,1.821S3960.517,4226.62,3960.535,4226.438Z" transform="translate(-3960.534 -4226.433)" fill="#47856b"/></g><g transform="translate(55.744 1.908)"><path d="M3983.374,4225.958c0-.289.843.659,1.575.659.887,0,1.637-.987,1.637-.659a1.937,1.937,0,0,1-1.637,1.253C3983.944,4227.21,3983.374,4226.025,3983.374,4225.958Z" transform="translate(-3978.281 -4225.891)" fill="#27654d"/><path d="M4006.1,4225.958c0-.289.842.659,1.575.659.887,0,1.636-.987,1.636-.659a1.936,1.936,0,0,1-1.636,1.253C4006.673,4227.21,4006.1,4226.025,4006.1,4225.958Z" transform="translate(-3995.94 -4225.891)" fill="#27654d"/><path d="M3960.536,4225.958c0-.289.842.659,1.575.659.886,0,1.637-.987,1.637-.659a1.937,1.937,0,0,1-1.637,1.253C3961.105,4227.21,3960.536,4226.025,3960.536,4225.958Z" transform="translate(-3960.536 -4225.891)" fill="#27654d"/></g><g transform="translate(61.206 25.823)"><path d="M3989.716,4337.207c0-.124-.175.29-.378.616-.25.4-.364.339-.365.463s.2.054.4-.244A2.149,2.149,0,0,0,3989.716,4337.207Z" transform="translate(-3988.092 -4336.277)" fill="#47856b"/><path d="M3989.575,4333.137c0-.116-.19.373-.377.9a4.934,4.934,0,0,0-.312.9c.005.127.2-.157.388-.663A5,5,0,0,0,3989.575,4333.137Z" transform="translate(-3988.025 -4333.12)" fill="#27654d"/><path d="M3985.024,4337.207c0-.124.175.29.378.616.25.4.365.339.365.463s-.2.054-.4-.244A2.159,2.159,0,0,1,3985.024,4337.207Z" transform="translate(-3985.024 -4336.277)" fill="#47856b"/><path d="M3985.356,4333.137c0-.116.19.373.377.9a4.826,4.826,0,0,1,.312.9c-.006.127-.2-.157-.389-.663A5.023,5.023,0,0,1,3985.356,4333.137Z" transform="translate(-3985.282 -4333.12)" fill="#27654d"/></g><g transform="translate(67.552 25.823)"><path d="M4018.169,4337.207c0-.124-.175.29-.379.616-.25.4-.364.339-.365.463s.195.054.4-.244A2.17,2.17,0,0,0,4018.169,4337.207Z" transform="translate(-4016.545 -4336.277)" fill="#47856b"/><path d="M4018.028,4333.137c0-.116-.19.373-.377.9a4.842,4.842,0,0,0-.312.9c.006.127.2-.157.388-.663A5.051,5.051,0,0,0,4018.028,4333.137Z" transform="translate(-4016.478 -4333.12)" fill="#27654d"/><path d="M4013.477,4337.207c0-.124.175.29.378.616.25.4.364.339.365.463s-.2.054-.4-.244A2.159,2.159,0,0,1,4013.477,4337.207Z" transform="translate(-4013.477 -4336.277)" fill="#47856b"/><path d="M4013.81,4333.137c0-.116.19.373.376.9a4.871,4.871,0,0,1,.312.9c-.005.127-.2-.157-.388-.663A5.012,5.012,0,0,1,4013.81,4333.137Z" transform="translate(-4013.736 -4333.12)" fill="#27654d"/></g><g transform="translate(55.648 25.823)"><path d="M3964.795,4337.207c0-.124-.175.29-.378.616-.25.4-.365.339-.366.463s.2.054.4-.244A2.154,2.154,0,0,0,3964.795,4337.207Z" transform="translate(-3963.171 -4336.277)" fill="#47856b"/><path d="M3964.654,4333.137c0-.116-.189.373-.376.9a4.9,4.9,0,0,0-.312.9c.006.127.2-.157.388-.663A5,5,0,0,0,3964.654,4333.137Z" transform="translate(-3963.104 -4333.12)" fill="#27654d"/><path d="M3960.1,4337.207c0-.124.175.29.378.616.25.4.364.339.365.463s-.195.054-.4-.244A2.146,2.146,0,0,1,3960.1,4337.207Z" transform="translate(-3960.104 -4336.277)" fill="#47856b"/><path d="M3960.437,4333.137c0-.116.19.373.377.9a4.934,4.934,0,0,1,.312.9c-.006.127-.2-.157-.389-.663A5.012,5.012,0,0,1,3960.437,4333.137Z" transform="translate(-3960.363 -4333.12)" fill="#27654d"/></g><path d="M3961.1,4353.987h0a.1.1,0,0,1-.091-.1l.514-10.683a.1.1,0,0,1,.1-.092h0a.1.1,0,0,1,.091.1l-.514,10.682A.1.1,0,0,1,3961.1,4353.987Z" transform="translate(-3905.155 -4315.061)" fill="#717071"/><path d="M3989.078,4353.987a.1.1,0,0,1-.1-.092l-.483-10.682a.1.1,0,0,1,.092-.1.1.1,0,0,1,.1.092l.482,10.683a.1.1,0,0,1-.091.1Z" transform="translate(-3926.519 -4315.061)" fill="#717071"/><path d="M4014.944,4353.987h-.005a.1.1,0,0,1-.091-.1l.513-10.684a.092.092,0,0,1,.1-.092.1.1,0,0,1,.091.1l-.513,10.683A.1.1,0,0,1,4014.944,4353.987Z" transform="translate(-3946.99 -4315.061)" fill="#717071"/></g><g transform="translate(9.177 28.426)"><g transform="translate(0 0.119)"><rect width="1.114" height="1.114" transform="translate(5.34 3.876)" fill="#03a58e"/><path d="M3755.964,4348.087v-1.114h.885l-2.557-1.647-2.556,1.647h.885v3.343h1.114V4349.2h1.114v-1.114h1.112v1.114h-1.112v1.114h1.114V4349.2h1.112v-1.114Z" transform="translate(-3751.737 -4345.326)" fill="#03a58e"/></g><rect width="1.097" height="1.097" transform="translate(9.221 0.071)" fill="#03a58e"/><g transform="translate(7.02)"><path d="M3787.185,4346.066l-2.865.083a.7.7,0,0,0,.459-.868.646.646,0,0,0-.071-.158l.013,0h0l.381-.13a.027.027,0,0,0,.016-.033h0c0-.012-.011-.016-.028-.017l-.449.019-.08,0a.7.7,0,1,0-.893,1.066.709.709,0,0,0,.277.143h0l-.19,1.878-.467,1.558h0l-.012.04-.062.207h0a.047.047,0,0,0,.031.059h1.051a.052.052,0,0,0,.053-.052h0v-.2a.052.052,0,0,0-.053-.052h-.111l.4-1.331,1.217.186v1.387a.065.065,0,0,0,.065.065h1.036a.053.053,0,0,0,.053-.053h0v-.2a.052.052,0,0,0-.053-.052h-.226v-1.78a.136.136,0,0,0-.116-.135l-1.86-.284.04-.389,2.474-.071a.07.07,0,0,0,.067-.07l-.021-.737a.07.07,0,0,0-.072-.067Zm-3.544-.474a.5.5,0,0,1-.012-.1l.059-.02.816-.281a.485.485,0,0,1-.1.68.471.471,0,0,1-.184.085.484.484,0,0,1-.581-.364h0Z" transform="translate(-3783.211 -4344.792)" fill="#1a1311"/><path d="M3813.059,4349.432h-.543v-.752a.073.073,0,0,0-.073-.074h-.667a.074.074,0,0,0-.074.073h0v.752h-1a.073.073,0,0,0-.073.074v.667a.074.074,0,0,0,.073.074h1v2.334h-.2a.062.062,0,0,0-.062.062v.163a.063.063,0,0,0,.063.062h.947a.065.065,0,0,0,.065-.065h0v-2.556h.542a.074.074,0,0,0,.074-.074h0v-.667A.073.073,0,0,0,3813.059,4349.432Z" transform="translate(-3804.514 -4347.755)" fill="#1a1311"/><path d="M3831.691,4350.386h-.488v-.49a.062.062,0,0,0-.062-.061h-.611a.061.061,0,0,0-.061.061h0v.49h-.8a.061.061,0,0,0-.061.062h0v.692a.061.061,0,0,0,.061.06h.8v1.194a.687.687,0,0,1-.687.687h-.12a.056.056,0,0,0-.057.056h0v.62a.057.057,0,0,0,.057.056h.12a1.42,1.42,0,0,0,1.42-1.42h0V4351.2h.489a.061.061,0,0,0,.061-.062h0v-.691A.062.062,0,0,0,3831.691,4350.386Z" transform="translate(-3819.258 -4348.71)" fill="#1a1311"/><path d="M3843.856,4350.368h.7a.075.075,0,0,0,.074-.075v-.736h.659a.042.042,0,0,0,.042-.042h0V4348.3a.069.069,0,0,0-.069-.069h-.046v0h-1.525v-.628a.065.065,0,0,0-.065-.065h-.647a.065.065,0,0,0-.065.065h0v.628h-1.572a.069.069,0,0,0-.069.069v1.192a.065.065,0,0,0,.065.065h.635v.736a.075.075,0,0,0,.074.075h.866v.171h-1.093a.064.064,0,0,0-.065.065v.474a.065.065,0,0,0,.065.066h1.093v.16h-1.575a.066.066,0,0,0-.066.066h0v.474a.066.066,0,0,0,.066.066h3.928a.066.066,0,0,0,.066-.066v-.474a.066.066,0,0,0-.066-.066h-1.575v-.159h1.093a.066.066,0,0,0,.066-.066v-.475a.065.065,0,0,0-.066-.065h-1.093v-.171Zm-1.8-1.33v-.143h2.5v.143Zm.7.673v-.017a.074.074,0,0,1,.074-.074h.955a.074.074,0,0,1,.074.074v.017a.074.074,0,0,1-.074.074h-.956a.074.074,0,0,1-.074-.074Z" transform="translate(-3828.325 -4346.924)" fill="#1a1311"/><path d="M3824.74,4354.986h-.167v-2.618a.061.061,0,0,0-.061-.061h-.617a.061.061,0,0,0-.062.061h0v2.8a.079.079,0,0,0,.079.079h.827a.068.068,0,0,0,.068-.068h0v-.124a.068.068,0,0,0-.067-.069Z" transform="translate(-3814.774 -4350.63)" fill="#1a1311"/><path d="M3811.7,4359.168a.385.385,0,1,0,.385.386h0A.386.386,0,0,0,3811.7,4359.168Z" transform="translate(-3805.044 -4355.961)" fill="#1a1311"/><path d="M3844.349,4347.649a.385.385,0,1,0-.386-.385h0A.386.386,0,0,0,3844.349,4347.649Z" transform="translate(-3830.414 -4346.413)" fill="#1a1311"/><path d="M3853.719,4347.649a.385.385,0,1,0-.386-.385h0A.386.386,0,0,0,3853.719,4347.649Z" transform="translate(-3837.695 -4346.413)" fill="#1a1311"/><path d="M3803.93,4349.025l-.6-.3a.07.07,0,0,0-.093.03h0l-.567,1.133h0l-.246.493a.07.07,0,0,0,.031.093l.492.245v2.162a.075.075,0,0,0,.075.075h.664a.075.075,0,0,0,.075-.075v-2.387a.1.1,0,0,0-.057-.09l-.3-.151.566-1.13a.068.068,0,0,0-.031-.092Z" transform="translate(-3798.128 -4347.839)" fill="#1a1311"/></g><g transform="translate(5.04 5.69)"><path d="M3793.891,4370.524h-.184v.144h.169v.582h-.141v-.039h-.373v.045h-.133v-.588h.161v-.144h-.169v-.105c-.017.049-.036.1-.057.143l.034.011a.035.035,0,0,1-.029.021v.68h-.139v-.464a.842.842,0,0,1-.051.069c-.017-.052-.037-.1-.059-.156a1.218,1.218,0,0,0,.188-.405l.157.052c0,.009-.014.014-.03.013l0,.011h.66Zm-.528.271v.292h.042v-.292Zm.206,0h-.043v.292h.043Zm0-.127v-.144h-.042v.144Zm.166.418v-.292h-.044v.292Z" transform="translate(-3788.776 -4370.313)" fill="#1a1311"/><path d="M3799.588,4370.406l.094.043a.031.031,0,0,1-.015.017.752.752,0,0,1-.143.256.65.65,0,0,0,.215.1.639.639,0,0,0-.082.107v.326h-.141v-.027h-.172v.03h-.135v-.311l-.045.018a.432.432,0,0,0-.042-.069l-.039.054c-.008-.024-.022-.055-.038-.087v.4h-.139v-.332a.716.716,0,0,1-.081.162.771.771,0,0,0-.065-.134.9.9,0,0,0,.137-.313h-.113v-.135h.123v-.2l.167.01c0,.01-.01.017-.029.021v.173h.1v.061a.8.8,0,0,0,.163-.266l.157.051a.028.028,0,0,1-.029.012c-.006.015-.013.03-.021.044h.147Zm-.543.238v.033c.023.028.08.108.107.149a.775.775,0,0,0,.174-.1.948.948,0,0,1-.059-.081.758.758,0,0,1-.067.07.65.65,0,0,0-.071-.067Zm.464.234a.638.638,0,0,1-.083-.061.7.7,0,0,1-.083.061Zm-.165.229h.172V4371h-.172Zm0-.572a.64.64,0,0,0,.074.1.6.6,0,0,0,.067-.1Z" transform="translate(-3793.313 -4370.304)" fill="#1a1311"/><path d="M3804.827,4371.959a.14.14,0,1,1-.14-.141A.14.14,0,0,1,3804.827,4371.959Z" transform="translate(-3797.808 -4371.48)" fill="#1a1311"/><path d="M3807.824,4370.962a.788.788,0,0,1,.253.116.319.319,0,0,1-.072.158.631.631,0,0,0-.174-.12v0c0,.1-.073.167-.218.167s-.255-.067-.255-.182c0-.1.1-.17.255-.17l.059,0,0-.081c-.089,0-.179,0-.247,0a.5.5,0,0,1-.026-.152,1.553,1.553,0,0,0,.178.012h.09v-.1c-.07,0-.14,0-.209-.006a.484.484,0,0,1-.023-.143,1.248,1.248,0,0,0,.165.014h.07v-.012a.994.994,0,0,0,0-.108.765.765,0,0,1,.16.012c0,.033-.005.067-.006.1a1.11,1.11,0,0,0,.165-.022.464.464,0,0,1,0,.14,1.3,1.3,0,0,1-.168.02c0,.03,0,.06,0,.09v.005a1.453,1.453,0,0,0,.205-.031.55.55,0,0,1,0,.15,1.577,1.577,0,0,1-.2.023Zm-.147.1a.6.6,0,0,0-.083-.007c-.05,0-.085.015-.085.042s.024.044.082.044.087-.021.087-.08Z" transform="translate(-3799.992 -4370.347)" fill="#1a1311"/><path d="M3812.012,4370.925a.189.189,0,0,0-.029.09c0,.045.031.091.177.091a.863.863,0,0,0,.333-.063.456.456,0,0,1,.041.167,1,1,0,0,1-.367.058c-.215,0-.356-.079-.356-.216a.442.442,0,0,1,.047-.18A.6.6,0,0,1,3812.012,4370.925Zm-.118-.467a1.781,1.781,0,0,0,.527.006.714.714,0,0,1,0,.158,2.071,2.071,0,0,1-.516,0,.713.713,0,0,1-.008-.164Zm.671.087a.3.3,0,0,1-.081.033.737.737,0,0,0-.058-.137.39.39,0,0,1,.078-.033.687.687,0,0,1,.061.137Zm.112-.048a.328.328,0,0,1-.08.034.6.6,0,0,0-.059-.132.476.476,0,0,1,.078-.033.513.513,0,0,1,.062.131Z" transform="translate(-3803.452 -4370.353)" fill="#1a1311"/><path d="M3816.862,4371.243a.188.188,0,0,0-.029.091c0,.045.031.091.176.091a.85.85,0,0,0,.333-.063.481.481,0,0,1,.04.167,1.02,1.02,0,0,1-.367.058c-.215,0-.356-.078-.356-.216a.428.428,0,0,1,.047-.18A.58.58,0,0,1,3816.862,4371.243Zm-.118-.466a2.009,2.009,0,0,0,.557,0,.744.744,0,0,1,0,.158,2.328,2.328,0,0,1-.547,0A.794.794,0,0,1,3816.744,4370.777Z" transform="translate(-3807.219 -4370.672)" fill="#1a1311"/><path d="M3821.227,4370.515a2.29,2.29,0,0,0,.36-.03.413.413,0,0,1,.061.108,2.865,2.865,0,0,0-.257.236.363.363,0,0,1,.112-.017.267.267,0,0,1,.288.245v.011c0,.2-.153.347-.5.312a.5.5,0,0,1-.052-.17c.221.04.381,0,.381-.145,0-.065-.05-.127-.162-.127a.445.445,0,0,0-.348.242.47.47,0,0,1-.116-.13c.106-.118.308-.314.4-.407-.046.008-.153.019-.225.023a.554.554,0,0,1-.037-.153C3821.154,4370.514,3821.189,4370.515,3821.227,4370.515Z" transform="translate(-3810.59 -4370.444)" fill="#1a1311"/><path d="M3774.8,4370.962a.781.781,0,0,1,.252.116.31.31,0,0,1-.072.158.629.629,0,0,0-.174-.12v0c0,.1-.074.167-.219.167s-.255-.067-.255-.182c0-.1.1-.17.255-.17l.06,0,0-.081c-.089,0-.178,0-.247,0a.484.484,0,0,1-.026-.152,1.537,1.537,0,0,0,.178.012h.091v-.1c-.07,0-.14,0-.209-.006a.455.455,0,0,1-.024-.143,1.247,1.247,0,0,0,.165.014h.07v-.012c0-.055,0-.077,0-.108a.765.765,0,0,1,.16.012c0,.033,0,.067-.006.1a1.1,1.1,0,0,0,.165-.022.449.449,0,0,1,0,.14,1.3,1.3,0,0,1-.168.02c0,.03,0,.06,0,.09v.005a1.453,1.453,0,0,0,.205-.031.514.514,0,0,1,0,.15,1.556,1.556,0,0,1-.2.023Zm-.147.1a.6.6,0,0,0-.083-.007c-.05,0-.086.015-.086.042s.024.044.082.044.087-.021.088-.08Z" transform="translate(-3774.333 -4370.347)" fill="#1a1311"/><path d="M3778.991,4370.925a.189.189,0,0,0-.029.09c0,.045.031.091.177.091a.863.863,0,0,0,.333-.063.455.455,0,0,1,.04.167,1,1,0,0,1-.367.058c-.215,0-.356-.079-.356-.216a.442.442,0,0,1,.047-.18A.6.6,0,0,1,3778.991,4370.925Zm-.118-.467a1.781,1.781,0,0,0,.527.006.745.745,0,0,1,0,.158,2.074,2.074,0,0,1-.516,0,.713.713,0,0,1-.008-.164Zm.671.087a.3.3,0,0,1-.081.033.737.737,0,0,0-.058-.137.4.4,0,0,1,.077-.033.662.662,0,0,1,.062.137Zm.112-.048a.333.333,0,0,1-.079.034.653.653,0,0,0-.06-.132.085.085,0,0,1,.139.1Z" transform="translate(-3777.795 -4370.353)" fill="#1a1311"/><path d="M3783.841,4371.243a.194.194,0,0,0-.029.091c0,.045.031.091.177.091a.847.847,0,0,0,.333-.063.47.47,0,0,1,.04.167,1.022,1.022,0,0,1-.367.058c-.215,0-.356-.078-.356-.216a.421.421,0,0,1,.047-.18A.58.58,0,0,1,3783.841,4371.243Zm-.118-.466a2.012,2.012,0,0,0,.558,0,.744.744,0,0,1,0,.158,2.332,2.332,0,0,1-.547,0A.794.794,0,0,1,3783.723,4370.777Z" transform="translate(-3781.563 -4370.672)" fill="#1a1311"/><path d="M3788.205,4370.515a2.281,2.281,0,0,0,.36-.03.415.415,0,0,1,.062.108,2.8,2.8,0,0,0-.257.236.363.363,0,0,1,.111-.017.267.267,0,0,1,.288.245v.011c0,.2-.153.347-.5.312a.513.513,0,0,1-.052-.17c.221.04.381,0,.381-.145,0-.065-.05-.127-.162-.127a.446.446,0,0,0-.348.242.461.461,0,0,1-.116-.13c.106-.118.308-.314.4-.407-.046.008-.153.019-.225.023a.571.571,0,0,1-.036-.153C3788.132,4370.514,3788.168,4370.515,3788.205,4370.515Z" transform="translate(-3784.934 -4370.444)" fill="#1a1311"/><path d="M3826.74,4371.544a.394.394,0,0,1-.125.125,1.712,1.712,0,0,0-.239-.269,1.186,1.186,0,0,1-.367.263.75.75,0,0,1-.124-.14.986.986,0,0,0,.4-.259.7.7,0,0,0,.145-.215c-.122,0-.361.008-.433.011a1.078,1.078,0,0,1-.019-.158c.032,0,.072,0,.1,0,.053,0,.351,0,.415-.008.026,0,.051,0,.076-.007a.379.379,0,0,1,.085.084,1.688,1.688,0,0,1-.181.3A1.919,1.919,0,0,1,3826.74,4371.544Z" transform="translate(-3814.388 -4370.761)" fill="#1a1311"/><path d="M3831.5,4370.548a.515.515,0,0,0,.077-.007.447.447,0,0,1,.092.074,1.062,1.062,0,0,1-.169.347c.031.026.061.053.089.081a.32.32,0,0,1-.112.123c-.024-.026-.052-.054-.083-.083a.894.894,0,0,1-.354.224.478.478,0,0,1-.137-.134.829.829,0,0,0,.374-.189c-.049-.038-.1-.074-.153-.108a.818.818,0,0,1,.1-.1,1.494,1.494,0,0,1,.157.1.6.6,0,0,0,.1-.19l-.254,0a1,1,0,0,1-.235.229.358.358,0,0,1-.135-.106.775.775,0,0,0,.356-.423.412.412,0,0,1,.153.069.66.66,0,0,1-.05.1c.157,0,.187,0,.187,0Z" transform="translate(-3818.252 -4370.367)" fill="#1a1311"/><path d="M3835.724,4371.785a.578.578,0,0,1-.128.059,1.815,1.815,0,0,0-.094-.194c.026-.015.1-.047.126-.058A1.6,1.6,0,0,1,3835.724,4371.785Zm.472-.16a.9.9,0,0,1-.138.327.656.656,0,0,1-.3.22.5.5,0,0,1-.117-.118.539.539,0,0,0,.292-.185.585.585,0,0,0,.114-.309.537.537,0,0,1,.146.065Zm-.26.085a.661.661,0,0,1-.131.056,1.71,1.71,0,0,0-.086-.2,1.14,1.14,0,0,1,.129-.054,1.991,1.991,0,0,1,.088.194Z" transform="translate(-3821.859 -4371.246)" fill="#1a1311"/><path d="M3840.3,4371.418a.833.833,0,0,1-.395.307.5.5,0,0,1-.143-.15.65.65,0,0,0,.372-.212.572.572,0,0,0,.118-.262l-.565.008a1.149,1.149,0,0,1-.015-.168c.047,0,.1.007.135.007l.475-.005a.5.5,0,0,0,.076-.006.415.415,0,0,1,.1.077A1.161,1.161,0,0,1,3840.3,4371.418Z" transform="translate(-3825.101 -4370.795)" fill="#1a1311"/></g></g></g><g transform="translate(743.934 1484.618) rotate(7)"><path d="M110.609,33.2l-7.57,7.652,6.639,8.465L99.494,52.893,102.3,63.3l-10.805-.127L91.079,73.96,80.689,70.977l-2.995,10.38-9.46-5.23-5.125,9.515-8.188-7.054-6.965,8.267-6.508-8.623-8.636,6.5-4.244-9.926L18.521,78.787l-1.1-10.722-10.789.3L9.805,58.091,0,53.651,7.57,46,.931,37.534l10.185-3.573L8.31,23.555l10.805.127.415-10.787L29.92,15.878,32.915,5.5l9.46,5.23L47.5,1.213l8.188,7.053L62.654,0l6.508,8.623,8.636-6.5,4.244,9.926L92.089,8.067l1.1,10.722,10.789-.3L100.8,28.764Z" transform="translate(19.538 0) rotate(13)" fill="#ffd809"/><path d="M19.573,23.993V17.806H7.387v7.356h3.189V23.993ZM25.7,25.13V13.891H.979V27.277H4.515V16.416H22.131v7.1c0,.979-.221,1.042-1.2,1.042-.379,0-1.358-.063-1.61-.063l1.421,3.189h1.7C24.467,27.687,25.7,26.582,25.7,25.13Zm-9.345-3.5H10.576v-1.7h5.777Zm4.609-9V6.346H5.714v6.282Zm-3.5-2.241H9.25V8.619h8.208Zm9.282-5.3V2.273H15.406V1.389c0-.126.095-.221.316-.379.189-.095.347-.221.347-.379,0-.284-.631-.316-.758-.316L11.491,0V2.273H0v2.81Z" transform="translate(50.286 48.734)" fill="#1a1311"/><path d="M-8.22-.75a8.822,8.822,0,0,1-2.955-2.265,20.711,20.711,0,0,0,2.595-7.8l-.39-.42h-6.675V-9.66h5.025a14.459,14.459,0,0,1-1.605,5.1,13.874,13.874,0,0,1-1.65-4.89l-1.53.48a15.875,15.875,0,0,0,2.1,5.9A11.2,11.2,0,0,1-16.425-.69v-10.7c0-.06.015-.12.165-.255.135-.105.165-.18.165-.24,0-.12-.075-.135-.7-.165l-1.32-.075v7.95c-.69.18-.78.2-1.17.3v-6.18c0-.06.075-.135.12-.18A.366.366,0,0,0-19-10.485c0-.15-.45-.195-.645-.21l-1.335-.1v7.35c-.27.075-.33.09-.855.21l.375,1.695c.015.075.015.3.195.3.135,0,.195-.165.3-.375.66-.225,1.9-.645,2.85-1.005V.66h1.695V-.615L-15.18.63a12.234,12.234,0,0,0,2.925-2.28A13.281,13.281,0,0,0-9.51.645ZM6.69-4.86A11.317,11.317,0,0,1,2.505-8.115H6.18V-9.66H2.64A12.6,12.6,0,0,0,3.6-11.1c.06-.105.075-.135.27-.15.15-.015.27-.045.27-.165,0-.15-.18-.21-.3-.24l-1.665-.5A18.647,18.647,0,0,1,.66-9.66H-1.89l.6-.48a10.527,10.527,0,0,0-1.38-2.01l-1.335.96a13.2,13.2,0,0,1,1.1,1.53h-3.2v1.545h3.42A9.009,9.009,0,0,1-6.7-4.755l1.11,1.23A4.8,4.8,0,0,0-4.77-4.02v2.91H-6.42V.3H6.42V-1.11H4.7V-4.065a6.8,6.8,0,0,0,.72.405ZM3.42-5.04H-3.435A18.967,18.967,0,0,0-.645-8.115H.51A20.842,20.842,0,0,0,3.42-5.04ZM.405-1.11H-.6v-2.6H.405Zm2.625,0H1.995v-2.6H3.03Zm-5.22,0h-.975v-2.6h.975ZM21.5.285v-1.56H17.9v-2.73H20.55V-5.55H17.9V-7.815h3.4v-1.6H17.9v-1.965c0-.075.12-.18.225-.27a.426.426,0,0,0,.2-.315c0-.135-.12-.18-.54-.2l-1.635-.06V-9.42h-.78c.045-.12.165-.7.24-.84a1.281,1.281,0,0,1,.21-.165c.105-.06.165-.135.165-.21,0-.165-.12-.195-.4-.27L14-11.3a13.216,13.216,0,0,1-.54,2.4A7.128,7.128,0,0,0,12.6-9.93l-.54.33v-1.74c0-.09.075-.15.21-.24.1-.06.21-.135.21-.27s-.21-.195-.555-.21l-1.605-.075V-9.12c-.06-.045-.075-.06-.27-.09L8.64-9.42a13.409,13.409,0,0,1-.42,3.645l1.575.24a16.026,16.026,0,0,0,.39-3.255.4.4,0,0,0,.135-.09V.69h1.74V-8.19a2.968,2.968,0,0,1,.7.855,4.377,4.377,0,0,1-.6.975l1.71.57a8.754,8.754,0,0,0,.975-2.025h1.29V-5.55H13.755v1.545H16.14v2.73H12.855V.285Z" transform="translate(63.333 44.81)" fill="#1a1311"/></g><path d="M-25.456.64V-.8H-30.24V-2.032h2.848V-3.424H-30.24v-1.12h3.84V-5.936h-3.84v-.432c0-.08.112-.16.144-.176.048-.032.128-.08.128-.144,0-.128-.208-.16-.368-.192l-1.632-.256v1.2h-1.408c.176-.368.208-.416.256-.432s.288-.048.32-.1c.016,0,.016-.032.016-.064,0-.064-.064-.128-.272-.24l-1.264-.624h8.736V-8.816h-3.2a7.379,7.379,0,0,0,.7-1.424h2.272v-1.408h-5.184v-.56c0-.128.144-.24.192-.272s.144-.1.144-.176c0-.176-.3-.208-.384-.208l-1.952-.144v1.36H-38.16v1.408h2.48a8.449,8.449,0,0,1,.736,1.424h-3.2C-38-7.024-38-5.808-38-5.536A10.125,10.125,0,0,1-39.568.416l1.68.7a12.358,12.358,0,0,0,1.536-5.312l1.552.736c.272-.4.48-.752.672-1.088h2.16v1.12h-2.608v1.392h2.608V-.8h-4.64V.64ZM-30.08-10.24a7.734,7.734,0,0,1-.688,1.424H-32.9a7.95,7.95,0,0,0-.752-1.424Zm-4.5,2.848a6.416,6.416,0,0,1-1.776,2.944c.016-.656.032-1.3.048-2.944Zm25.312,4.24V-4.608h-5.872V-5.3h4.176v-1.3h-4.176V-7.28h5.088V-8.656h-2.944c.208-.32.368-.576.576-.96H-9.28v-1.328h-2.336c.1-.128.544-.8.576-.832a1.411,1.411,0,0,1,.32-.144.2.2,0,0,0,.1-.144.155.155,0,0,0-.112-.128l-1.6-.8a11.062,11.062,0,0,1-.912,1.776l.528.272h-1.008v-1.328c0-.08.08-.144.128-.176.08-.048.128-.1.128-.16,0-.1-.1-.128-.176-.144l-1.728-.224v2.032H-16.5v-1.248a.343.343,0,0,1,.16-.256c.048-.048.128-.112.128-.208a.169.169,0,0,0-.144-.144l-1.776-.24v2.1h-1.264l.672-.416a9.536,9.536,0,0,0-1.36-1.7l-1.328.832a10.088,10.088,0,0,1,1.04,1.28H-22.72v1.328h3.136c.16.224.208.3.608.96h-2.992V-7.28h5.1v.688h-4.1v1.3h4.1v.688H-22.72v1.456h4.592A13.922,13.922,0,0,1-22.72-.432l1.456,1.3a17.027,17.027,0,0,0,4.4-3.008V.7h1.728V-2.32A11.855,11.855,0,0,0-10.56.7L-9.344-.688A9.3,9.3,0,0,1-13.76-3.152ZM-14.32-9.616a7.669,7.669,0,0,1-.48.96h-2.384c-.272-.512-.288-.56-.5-.96ZM6.928-5.856a7.187,7.187,0,0,1-1.872-.976c.24-.176.608-.432,1.072-.8A.287.287,0,0,1,6.336-7.7c.128,0,.224,0,.224-.1,0-.08-.208-.24-.24-.272L5.28-8.912A6.868,6.868,0,0,1,4.032-7.728a4.766,4.766,0,0,1-.464-.528,7.289,7.289,0,0,0,.816-.64c.128-.1.192-.144.288-.224.208,0,.3,0,.3-.1,0-.112-.176-.272-.208-.3l-.88-.736a4.827,4.827,0,0,1-1.056.992,7.089,7.089,0,0,1-.56-1.088l-1.264.96a10.494,10.494,0,0,0,2,2.944H-1.04A11.188,11.188,0,0,0,.752-9.264l-.48-.544H-4.016V-8.32h2.352a4.828,4.828,0,0,1-.608.912,8.1,8.1,0,0,0-1.3-.9l-.9,1.072a10.722,10.722,0,0,1,1.2.816,5.965,5.965,0,0,1-1.3.784c.032-.832.032-1.568.032-1.7,0-.4-.032-1.808-.112-3.088h11.5v-1.44H1.12v-.464c0-.064.016-.08.192-.208a.324.324,0,0,0,.112-.208c0-.176-.208-.224-.5-.24L-1.12-13.04v1.184H-6.448c.08,1.536.16,3.392.16,4.72A19.133,19.133,0,0,1-7.6.672l1.792.5A18.283,18.283,0,0,0-4.592-5.12l.992.88A9.27,9.27,0,0,0-2.16-5.312v.384h.512v1.1H-4.224v1.568h2.432a2.068,2.068,0,0,1-.9,1.424,4.176,4.176,0,0,1-1.84.656L-3.28,1.3C-.432.32-.24-1.44-.144-2.256H.912v1.84C.912.832,2.16.9,2.5.9H4.7C6.1.9,6.5.176,6.64-1.248l-1.552-.72C5.008-1.392,4.912-.7,4.24-.7H3.232c-.256,0-.528-.08-.528-.48V-2.256H5.856V-3.824H2.7v-1.1h1.1v-.816A6.9,6.9,0,0,0,5.584-4.656ZM.912-3.824H-.1v-1.1H.912Zm22,1.536V-3.7H16.96v-.672h3.456V-6.336h2.5V-7.648h-2.5V-9.072c.432.368.592.5.832.736l1.136-1.056a18.873,18.873,0,0,0-1.872-1.552h2.336v-1.28h-5.9c0-.24,0-.256.144-.368.16-.144.192-.16.192-.24,0-.192-.256-.208-.368-.208l-1.872-.048v.864h-5.9v1.28H13.3a6.3,6.3,0,0,1-.56.88c-.416.016-1.968.048-3.424.048l.336,1.472c.064.256.128.32.208.32s.1-.032.32-.256a.351.351,0,0,1,.288-.1c.32-.016.4-.016,1.168-.048v.976h-2.5v1.312h2.5v1.968H15.12V-3.7H9.136v1.408H13.76A12.53,12.53,0,0,1,9.232-.448l1.1,1.28A15.627,15.627,0,0,0,15.12-1.584V.832h1.84v-2.56A11.989,11.989,0,0,0,21.7.72l.912-1.408a9.886,9.886,0,0,1-4.16-1.6ZM18.8-7.648H16.96V-8.912c1.232-.08,1.376-.08,1.84-.128Zm0,2.048H16.96v-.736H18.8ZM15.12-7.648h-1.9V-8.72c.688-.016,1.184-.048,1.9-.08Zm0,2.048h-1.9v-.736h1.9Zm3.648-4.672c-1.536.08-3.008.128-4.112.16a7.924,7.924,0,0,0,.608-.832h2.864l-.192.208C18.144-10.624,18.368-10.512,18.768-10.272ZM38.544-10.3H32.992a14.779,14.779,0,0,0,.48-1.568.467.467,0,0,1,.272-.352c.08-.048.176-.128.176-.208,0-.064-.064-.112-.144-.128l-1.9-.272a13.6,13.6,0,0,1-1.024,3.264V-10.4H29.52v-1.872c0-.08.1-.144.176-.176a.22.22,0,0,0,.128-.176c0-.1-.1-.128-.176-.128l-1.856-.128v2.48h-.64c.016-.1.112-.72.112-.752.032-.08.048-.08.256-.24a.268.268,0,0,0,.1-.176c0-.08-.1-.144-.192-.16l-1.728-.24A13.79,13.79,0,0,1,24.848-7.7l1.584.5c.144-.48.24-.816.416-1.6h.944v2.944c-1.024.3-1.568.448-2.464.64l.3,1.9c.016.144.032.24.144.24.08,0,.24-.208.352-.368a2.744,2.744,0,0,1,.416-.16c.1-.016.768-.272,1.248-.464V.7H29.52V-4.688c.688-.256.848-.32,1.264-.512l.032-1.632c-.56.24-.912.368-1.3.5V-8.8h.944a4.787,4.787,0,0,1-.672.96l1.5.768A7.858,7.858,0,0,0,32.352-8.8h.4a7.655,7.655,0,0,1-.96,2.512,10.569,10.569,0,0,1-2.16,2.768l1.376.88A13.808,13.808,0,0,0,34.432-8.8h.608a11.436,11.436,0,0,1-1.808,4.736,13.1,13.1,0,0,1-3.52,3.68L31.216.7a14.417,14.417,0,0,0,5.472-9.5h.1a26.452,26.452,0,0,1-.3,5.92c-.256,1.264-.5,1.536-1.2,1.536-.128,0-.7-.016-1.248-.064L34.848.544c2.256-.016,2.832-.768,3.2-2.352A47.809,47.809,0,0,0,38.544-10.3Z" transform="translate(595 1641.583)" fill="#1a1311"/><path d="M-25.04-4.768a26.68,26.68,0,0,0-4.512-4.08l-1.12,1.28a24.834,24.834,0,0,1,4.224,4.16Zm-.144-6.08v-1.7H-38.768v1.7h6.592a11.89,11.89,0,0,1-2.16,2.816A14.978,14.978,0,0,1-39.12-4.944l1.232,1.6A19.493,19.493,0,0,0-32.96-6.72V.8h1.92V-8.24c0-.1.032-.128.272-.336a.253.253,0,0,0,.1-.176c0-.144-.144-.192-.224-.208a13.31,13.31,0,0,0,1.248-1.888ZM-10.24-.752v-11.9H-21.616c.144,1.68.208,3.36.208,5.04,0,4-.224,5.84-1.28,7.648l1.664.592a12.194,12.194,0,0,0,1.312-5.3h2.96v4.56h1.808v-4.56h2.88V-1.5c0,.448-.208.576-.864.576a3.925,3.925,0,0,1-.736-.064l.88,1.744C-10.256.576-10.24.1-10.24-.752Zm-1.824-8.8h-2.88V-11.1h2.88Zm0,3.376h-2.88V-8.048h2.88Zm-4.688-3.376h-2.88c0-.592,0-.976-.016-1.552h2.9Zm0,3.376h-2.9c0-.32.016-.48.032-1.872h2.864ZM3.792-7.04v-5.568H-3.9V-7.04ZM1.936-8.672H-2.112v-2.3H1.936ZM6.464.416v-6.48H.272V.416H2V-.048H4.7V.416ZM4.7-1.664H2V-4.416H4.7ZM-.7.416v-6.48H-6.56V.416h1.7V0H-2.4V.416Zm-1.7-2.08H-4.864V-4.416H-2.4ZM22.656.608V-12.608H9.28V.608h1.936V.192h9.568V.608Zm-1.872-2.08H11.216v-9.472h9.568Zm-1.36-1.28V-9.424H12.432v6.672h1.824v-.5h3.36v.5ZM17.616-4.864h-3.36V-7.808h3.36ZM39.232-.8A9.41,9.41,0,0,1,36.08-3.216a22.092,22.092,0,0,0,2.768-8.32l-.416-.448h-7.12v1.68h5.36a15.423,15.423,0,0,1-1.712,5.44A14.8,14.8,0,0,1,33.2-10.08l-1.632.512a16.934,16.934,0,0,0,2.24,6.288A11.944,11.944,0,0,1,30.48-.736V-12.144c0-.064.016-.128.176-.272.144-.112.176-.192.176-.256,0-.128-.08-.144-.752-.176l-1.408-.08v8.48c-.736.192-.832.208-1.248.32V-10.72c0-.064.08-.144.128-.192a.39.39,0,0,0,.176-.272c0-.16-.48-.208-.688-.224l-1.424-.112v7.84c-.288.08-.352.1-.912.224l.4,1.808c.016.08.016.32.208.32.144,0,.208-.176.32-.4.7-.24,2.032-.688,3.04-1.072V.7H30.48V-.656L31.808.672a13.049,13.049,0,0,0,3.12-2.432A14.167,14.167,0,0,0,37.856.688Z" transform="translate(725 1641.583)" fill="#1a1311"/></g></g></svg>