<svg xmlns="http://www.w3.org/2000/svg" xmlns:xlink="http://www.w3.org/1999/xlink" width="350" height="200" viewBox="0 0 350 200"><defs><linearGradient id="a" x1="0.342" y1="1.31" x2="1.341" y2="-0.655" gradientUnits="objectBoundingBox"><stop offset="0.072" stop-color="#e3e3e3"/><stop offset="0.105" stop-color="#e1e3e4"/><stop offset="0.301" stop-color="#dee4e7"/><stop offset="0.338" stop-color="#cbd7dd"/><stop offset="0.394" stop-color="#b7c9d4"/><stop offset="0.449" stop-color="#abc1ce"/><stop offset="0.503" stop-color="#a7bfcc"/><stop offset="0.724" stop-color="#7f888c"/><stop offset="0.988" stop-color="#f2f2f2"/></linearGradient><linearGradient id="b" x1="-1.233" y1="1.988" x2="1.657" y2="-0.167" gradientUnits="objectBoundingBox"><stop offset="0.074" stop-color="#c38361"/><stop offset="0.115" stop-color="#d2956a"/><stop offset="0.173" stop-color="#e2a773"/><stop offset="0.233" stop-color="#ebb279"/><stop offset="0.301" stop-color="#efb67b"/><stop offset="0.361" stop-color="#da945c"/><stop offset="0.426" stop-color="#c87743"/><stop offset="0.491" stop-color="#bc6330"/><stop offset="0.556" stop-color="#b45725"/><stop offset="0.619" stop-color="#b25322"/><stop offset="0.79" stop-color="#c56c27"/><stop offset="0.988" stop-color="#f2d4af"/></linearGradient><linearGradient id="c" x1="-0.034" y1="1.667" x2="1.427" y2="-0.449" gradientUnits="objectBoundingBox"><stop offset="0.069" stop-color="#6c3e00"/><stop offset="0.078" stop-color="#744406"/><stop offset="0.118" stop-color="#955d1f"/><stop offset="0.16" stop-color="#af7032"/><stop offset="0.204" stop-color="#c17e40"/><stop offset="0.249" stop-color="#cc8648"/><stop offset="0.299" stop-color="#d0894b"/><stop offset="0.3" stop-color="#cf884a"/><stop offset="0.408" stop-color="#c57e36"/><stop offset="0.514" stop-color="#bf782a"/><stop offset="0.619" stop-color="#bd7726"/></linearGradient></defs><g transform="translate(-883 -1671)"><rect width="350" height="200" transform="translate(883 1671)" fill="#f7f3e5"/><g transform="translate(728.905 499.74)"><g transform="translate(322.698 1301.279)"><rect width="49.847" height="36.176" transform="translate(0 15.985)" fill="#86d8cc"/><rect width="60.784" height="52.16" transform="translate(49.847 0)" fill="#03a58e"/><rect width="50.057" height="29.866" transform="translate(110.631 22.294)" fill="#7bd3c6"/><g transform="translate(0 15.985)"><path d="M322.7,1780.647h25.226l13.789-36.176H322.7Z" transform="translate(-322.698 -1744.471)" fill="none"/><path d="M442.307,1780.647h24.621v-36.176H456.1Z" transform="translate(-417.081 -1744.471)" fill="url(#a)" style="mix-blend-mode:multiply;isolation:isolate"/></g><g transform="translate(138.998 22.294)"><path d="M981.75,1804.255h21.69v-29.866H993.134Z" transform="translate(-981.75 -1774.389)" opacity="0.15" fill="url(#b)" style="mix-blend-mode:multiply;isolation:isolate"/></g></g><g transform="translate(396.705 1301.279)"><path d="M673.6,1720.842h36.624v-52.16H693.478Z" transform="translate(-673.597 -1668.681)" opacity="0.55" fill="url(#c)" style="mix-blend-mode:multiply;isolation:isolate"/></g><g transform="translate(376.089 1309.776)"><g transform="translate(3.593 3.65)"><path d="M594.965,1745.866c-1.538-7.91,1.8-15.466,9.554-19.594-8.318,3.96-13.094,11.721-11.237,19.735,1.646,7.1,6.472,11.374,14.565,13.463C607.76,1759.4,597.029,1756.481,594.965,1745.866Z" transform="translate(-592.884 -1726.272)" fill="#ffbe00"/></g><g transform="translate(11.361 0)"><path d="M629.895,1711.034a1.775,1.775,0,0,0,.526,2.242c.44.37.49.583.473.789a6.617,6.617,0,0,1,.174-.658,13.567,13.567,0,0,1,.728-1.154,2.084,2.084,0,0,0,.414-1.209,6.35,6.35,0,0,0-.637-2.077A7.53,7.53,0,0,0,629.895,1711.034Z" transform="translate(-629.718 -1708.967)" fill="#ffbe00"/><path d="M634.744,1715.812a14.578,14.578,0,0,0,.382-1.9c.072-.58.2-1.378.2-1.378a6.272,6.272,0,0,0-.588,1.938A7.2,7.2,0,0,0,634.744,1715.812Z" transform="translate(-633.661 -1711.785)" fill="#ffbe00"/></g><g transform="translate(7.885 2.402)"><path d="M614.52,1720.357a7.042,7.042,0,0,0-1.252,2.283,1.842,1.842,0,0,0,.955,2.133c.506.3.6.5.62.708a6.49,6.49,0,0,1,.044-.674,12.777,12.777,0,0,1,.493-1.244,2.027,2.027,0,0,0,.173-1.252A6.671,6.671,0,0,0,614.52,1720.357Z" transform="translate(-613.234 -1720.357)" fill="#ffbe00"/><path d="M618.319,1724.006a6.09,6.09,0,0,0-.2,2,7.344,7.344,0,0,0,.262,1.318,14.333,14.333,0,0,0,.007-1.926C618.343,1724.812,618.319,1724.006,618.319,1724.006Z" transform="translate(-617.069 -1723.236)" fill="#ffbe00"/></g><g transform="translate(13.049 4.653)"><path d="M639.95,1731.175c-.379.052-.943.334-1.453.377-.271.023-.778.011-.778.011.236.028.465.114.792.565a2.4,2.4,0,0,0,2.42.912,9.219,9.219,0,0,0,2.68-.995,8.734,8.734,0,0,0-2.211-.972A3.048,3.048,0,0,0,639.95,1731.175Z" transform="translate(-637.719 -1731.029)" fill="#ffbe00"/><path d="M643.351,1734.978a10.882,10.882,0,0,0,1.508.279,9.25,9.25,0,0,0,2.308-.1s-.927-.053-1.6-.113A22,22,0,0,0,643.351,1734.978Z" transform="translate(-642.163 -1734.142)" fill="#ffbe00"/></g><g transform="translate(15.022 0.707)"><path d="M649.777,1712.925a2.855,2.855,0,0,0-1.321.528,7.134,7.134,0,0,0-1.38,1.786,9.774,9.774,0,0,0,2.9-.27c.991-.413,1.54-.846,1.6-1.822.03-.531.182-.7.371-.828,0,0-.436.225-.685.32C650.788,1712.817,650.136,1712.81,649.777,1712.925Z" transform="translate(-647.076 -1712.318)" fill="#ffbe00"/><path d="M650.75,1717.73a8.64,8.64,0,0,0,2.067-.895,9.258,9.258,0,0,0,1.157-.883,19.821,19.821,0,0,0-1.9,1C651.529,1717.29,650.75,1717.73,650.75,1717.73Z" transform="translate(-649.975 -1715.186)" fill="#ffbe00"/></g><g transform="translate(9.952 7.106)"><path d="M625.268,1742.8c-.379.052-.943.334-1.453.378-.271.023-.778.011-.778.011.236.028.465.114.792.565a2.4,2.4,0,0,0,2.42.912,9.215,9.215,0,0,0,2.68-.994,8.73,8.73,0,0,0-2.211-.972A3.053,3.053,0,0,0,625.268,1742.8Z" transform="translate(-623.037 -1742.658)" fill="#ffbe00"/><path d="M628.67,1746.606a10.856,10.856,0,0,0,1.508.279,9.245,9.245,0,0,0,2.308-.1s-.927-.053-1.6-.112A21.954,21.954,0,0,0,628.67,1746.606Z" transform="translate(-627.482 -1745.77)" fill="#ffbe00"/></g><g transform="translate(4.933 5.667)"><path d="M600.489,1735.835a7.01,7.01,0,0,0-1.224,2.294,1.847,1.847,0,0,0,.981,2.124c.51.3.6.5.628.7a6.442,6.442,0,0,1,.036-.674,12.761,12.761,0,0,1,.477-1.248,2.024,2.024,0,0,0,.158-1.254A6.7,6.7,0,0,0,600.489,1735.835Z" transform="translate(-599.237 -1735.835)" fill="#ffbe00"/><path d="M604.277,1739.485a6.085,6.085,0,0,0-.178,2,7.376,7.376,0,0,0,.278,1.315,14.343,14.343,0,0,0-.016-1.926C604.311,1740.29,604.277,1739.485,604.277,1739.485Z" transform="translate(-603.051 -1738.715)" fill="#ffbe00"/></g><g transform="translate(7.658 9.91)"><path d="M614.383,1756.112c-.378.055-.939.343-1.448.391-.271.025-.778.018-.778.018.236.026.466.11.8.558a2.4,2.4,0,0,0,2.431.89,9.189,9.189,0,0,0,2.668-1.019,8.749,8.749,0,0,0-2.223-.951A3.05,3.05,0,0,0,614.383,1756.112Z" transform="translate(-612.157 -1755.957)" fill="#ffbe00"/><path d="M617.806,1759.975a10.9,10.9,0,0,0,1.511.265,9.243,9.243,0,0,0,2.306-.118s-.928-.044-1.6-.1A21.956,21.956,0,0,0,617.806,1759.975Z" transform="translate(-616.615 -1759.12)" fill="#ffbe00"/></g><g transform="translate(2.403 9.787)"><path d="M589.569,1758.3a2.037,2.037,0,0,0-.188-1.251,7.373,7.373,0,0,0-1.556-1.673,6.556,6.556,0,0,0-.565,2.48,2,2,0,0,0,1.532,1.863c.576.183.72.36.8.554a6.583,6.583,0,0,1-.149-.662A12.237,12.237,0,0,1,589.569,1758.3Z" transform="translate(-587.242 -1755.373)" fill="#ffbe00"/><path d="M590.878,1758.945a6.118,6.118,0,0,0,.37,1.977,7.845,7.845,0,0,0,.628,1.221,14.737,14.737,0,0,0-.54-1.868C591.13,1759.72,590.878,1758.945,590.878,1758.945Z" transform="translate(-590.111 -1758.192)" fill="#ffbe00"/></g><g transform="translate(5.614 12.968)"><path d="M605.9,1770.457a2.952,2.952,0,0,0-1.377.407c-.353.131-.819.526-1.3.676-.257.08-.751.177-.751.177a1.167,1.167,0,0,1,.927.378,2.512,2.512,0,0,0,2.6.367,8.457,8.457,0,0,0,2.315-1.536A9.252,9.252,0,0,0,605.9,1770.457Z" transform="translate(-602.468 -1770.454)" fill="#ffbe00"/><path d="M608.332,1774.234a11.068,11.068,0,0,0,1.541-.052,8.93,8.93,0,0,0,2.209-.587s-.914.147-1.579.232A21.6,21.6,0,0,0,608.332,1774.234Z" transform="translate(-607.095 -1772.933)" fill="#ffbe00"/></g><g transform="translate(0.541 14.149)"><path d="M581.011,1778.491a2.165,2.165,0,0,0-.552-1.167,8.214,8.214,0,0,0-2-1.271,6.432,6.432,0,0,0,.189,2.523,2.2,2.2,0,0,0,2.032,1.459c.611.049.8.187.939.357,0,0-.241-.387-.34-.607A12.359,12.359,0,0,1,581.011,1778.491Z" transform="translate(-578.414 -1776.053)" fill="#ffbe00"/><path d="M580.534,1779.312a6.519,6.519,0,0,0,.944,1.829,8.711,8.711,0,0,0,.968,1.04,15.994,15.994,0,0,0-1.075-1.685C581.008,1780.005,580.534,1779.312,580.534,1779.312Z" transform="translate(-580.087 -1778.625)" fill="#ffbe00"/></g><g transform="translate(0 18.882)"><path d="M578.772,1800.592a2.281,2.281,0,0,0-.737-1.087,8.646,8.646,0,0,0-2.187-1.012,6.539,6.539,0,0,0,.6,2.474,2.307,2.307,0,0,0,2.251,1.195c.613-.027.825.087.988.238,0,0-.3-.353-.436-.559A12.784,12.784,0,0,1,578.772,1800.592Z" transform="translate(-575.848 -1798.493)" fill="#ffbe00"/><path d="M578.263,1801.485a6.879,6.879,0,0,0,1.233,1.694,9.267,9.267,0,0,0,1.129.911,16.951,16.951,0,0,0-1.34-1.536C578.846,1802.113,578.263,1801.485,578.263,1801.485Z" transform="translate(-577.754 -1800.854)" fill="#ffbe00"/></g><g transform="translate(0.659 24.136)"><path d="M582.292,1825.007a2.457,2.457,0,0,0-.954-.952,9.1,9.1,0,0,0-2.363-.648,6.846,6.846,0,0,0,1.111,2.337,2.427,2.427,0,0,0,2.464.818c.6-.124.83-.046,1.021.077,0,0-.371-.3-.546-.48A13.584,13.584,0,0,1,582.292,1825.007Z" transform="translate(-578.974 -1823.407)" fill="#ffbe00"/><path d="M581.978,1825.966a7.429,7.429,0,0,0,1.57,1.47,9.951,9.951,0,0,0,1.3.716,18.393,18.393,0,0,0-1.641-1.3C582.683,1826.491,581.978,1825.966,581.978,1825.966Z" transform="translate(-581.344 -1825.426)" fill="#ffbe00"/></g><g transform="translate(2.78 28.886)"><path d="M592.636,1846.953a2.656,2.656,0,0,0-1.146-.777,9.371,9.371,0,0,0-2.463-.247,7.351,7.351,0,0,0,1.6,2.111,2.51,2.51,0,0,0,2.6.4,1.23,1.23,0,0,1,1.019-.093s-.43-.233-.642-.381C593.21,1847.682,592.919,1847.177,592.636,1846.953Z" transform="translate(-589.028 -1845.929)" fill="#ffbe00"/><path d="M592.539,1847.946a8.049,8.049,0,0,0,1.864,1.184,10.546,10.546,0,0,0,1.435.488,19.76,19.76,0,0,0-1.9-1C593.347,1848.345,592.539,1847.946,592.539,1847.946Z" transform="translate(-591.799 -1847.521)" fill="#ffbe00"/></g><g transform="translate(5.363 16.221)"><path d="M604.218,1786a2.73,2.73,0,0,0-1.21.7c-.3.205-.636.69-1.057.943-.224.135-.673.338-.673.338a1.224,1.224,0,0,1,1.008.159,2.528,2.528,0,0,0,2.626-.225,7.587,7.587,0,0,0,1.783-2A9.4,9.4,0,0,0,604.218,1786Z" transform="translate(-601.278 -1785.879)" fill="#ffbe00"/><path d="M607,1789.292a10.756,10.756,0,0,0,1.474-.393,8.27,8.27,0,0,0,1.961-1.059s-.84.345-1.458.576A20.27,20.27,0,0,0,607,1789.292Z" transform="translate(-605.792 -1787.426)" fill="#ffbe00"/></g><g transform="translate(5.381 19.378)"><path d="M602.661,1802.417a13.646,13.646,0,0,1-.746,1.145c-.178.179-.552.476-.552.476.193-.121.427-.2,1.022-.068a2.433,2.433,0,0,0,2.474-.8,6.876,6.876,0,0,0,1.139-2.327,9.1,9.1,0,0,0-2.371.627A2.471,2.471,0,0,0,602.661,1802.417Z" transform="translate(-601.362 -1800.847)" fill="#ffbe00"/><path d="M606.564,1805.537a9.97,9.97,0,0,0,1.311-.7,7.456,7.456,0,0,0,1.587-1.456s-.711.519-1.242.878A18.427,18.427,0,0,0,606.564,1805.537Z" transform="translate(-605.467 -1802.843)" fill="#ffbe00"/></g><g transform="translate(6.977 22.854)"><path d="M609.878,1819.384a12.811,12.811,0,0,1-.5,1.241c-.138.2-.447.552-.447.552.165-.148.38-.259.992-.223a2.32,2.32,0,0,0,2.274-1.161,6.56,6.56,0,0,0,.649-2.465,8.686,8.686,0,0,0-2.207.979A2.3,2.3,0,0,0,609.878,1819.384Z" transform="translate(-608.929 -1817.329)" fill="#ffbe00"/><path d="M614.942,1821.338a17.058,17.058,0,0,0-1.37,1.516,9.323,9.323,0,0,0,1.147-.894,6.93,6.93,0,0,0,1.266-1.676S615.391,1820.9,614.942,1821.338Z" transform="translate(-612.593 -1819.661)" fill="#ffbe00"/></g><g transform="translate(9.208 26.193)"><path d="M620.14,1834.67a2.08,2.08,0,0,0-.351,1.224,12.152,12.152,0,0,1-.049,1.314,6.775,6.775,0,0,1-.235.643c.106-.185.273-.346.869-.471a2.082,2.082,0,0,0,1.766-1.7,6.448,6.448,0,0,0-.236-2.52A7.732,7.732,0,0,0,620.14,1834.67Z" transform="translate(-619.506 -1833.161)" fill="#ffbe00"/><path d="M622.855,1839.7a8.194,8.194,0,0,0,.784-1.151,6.25,6.25,0,0,0,.627-1.928s-.353.745-.63,1.277A15.219,15.219,0,0,0,622.855,1839.7Z" transform="translate(-622.149 -1835.894)" fill="#ffbe00"/></g></g><g transform="translate(396.103 1316.035)"><g transform="translate(0.798 0.798)" opacity="0.68" style="mix-blend-mode:multiply;isolation:isolate"><g transform="translate(0)"><path d="M683.284,1760.936v-18.508a36.847,36.847,0,0,1-8.624,2.653v1.327c2.388,0,3.682.1,4.544.531.4.2.531.862.531,1.758v12.339c0,3.151-.464,3.449-5.208,3.483v1.426h13.632v-1.426c-2.421-.033-3.383-.133-4.08-.531C683.35,1763.589,683.284,1763.291,683.284,1760.936Z" transform="translate(-674.527 -1742.428)" fill="#480b0f"/></g><path d="M683.283,1760.937v-18.508a36.868,36.868,0,0,1-8.624,2.653v1.327c2.388,0,3.682.1,4.544.531.4.2.531.863.531,1.758v12.339c0,3.151-.464,3.449-5.207,3.482v1.427h13.632v-1.427c-2.421-.033-3.383-.133-4.08-.531C683.349,1763.59,683.283,1763.292,683.283,1760.937Z" transform="translate(-674.526 -1742.429)" fill="#480c0f"/></g><g transform="translate(0 0)"><g transform="translate(0)"><path d="M679.5,1757.153v-18.508a36.847,36.847,0,0,1-8.624,2.654v1.327c2.388,0,3.682.1,4.544.531.4.2.531.863.531,1.758v12.339c0,3.151-.464,3.449-5.208,3.483v1.426h13.632v-1.426c-2.421-.033-3.383-.133-4.08-.531C679.567,1759.806,679.5,1759.508,679.5,1757.153Z" transform="translate(-670.744 -1738.645)" fill="#480b0f"/></g><g transform="translate(0 0)"><path d="M679.5,1757.154v-18.508a36.869,36.869,0,0,1-8.624,2.653v1.327c2.388,0,3.682.1,4.544.531.4.2.531.863.531,1.758v12.339c0,3.151-.464,3.449-5.207,3.482v1.426h13.632v-1.426c-2.421-.033-3.383-.133-4.08-.531C679.566,1759.807,679.5,1759.509,679.5,1757.154Z" transform="translate(-670.743 -1738.646)" fill="#fff"/></g></g></g><g transform="translate(408.447 1309.776)"><g transform="translate(1.332 3.65)"><path d="M738.913,1726.272c7.755,4.127,11.092,11.684,9.555,19.594-2.064,10.616-12.795,13.536-12.882,13.6,8.092-2.089,12.918-6.358,14.565-13.463C752.007,1737.993,747.231,1730.232,738.913,1726.272Z" transform="translate(-735.585 -1726.272)" fill="#ffbe00"/></g><g transform="translate(6.034 0)"><path d="M758.516,1708.967a6.352,6.352,0,0,0-.637,2.077,2.088,2.088,0,0,0,.414,1.209,13.612,13.612,0,0,1,.728,1.154,6.635,6.635,0,0,1,.174.658c-.017-.206.032-.418.473-.789a1.775,1.775,0,0,0,.526-2.242A7.529,7.529,0,0,0,758.516,1708.967Z" transform="translate(-757.879 -1708.967)" fill="#ffbe00"/><path d="M761.78,1712.538s.133.8.2,1.378a14.572,14.572,0,0,0,.382,1.9,7.208,7.208,0,0,0,0-1.337A6.278,6.278,0,0,0,761.78,1712.538Z" transform="translate(-760.957 -1711.785)" fill="#ffbe00"/></g><g transform="translate(9.651 2.402)"><path d="M776.1,1720.357a6.68,6.68,0,0,0-1.032,1.954,2.026,2.026,0,0,0,.173,1.252,12.809,12.809,0,0,1,.493,1.244,6.478,6.478,0,0,1,.044.674c.024-.205.113-.407.62-.708a1.842,1.842,0,0,0,.955-2.133A7.042,7.042,0,0,0,776.1,1720.357Z" transform="translate(-775.03 -1720.357)" fill="#ffbe00"/><path d="M779.833,1725.394a14.333,14.333,0,0,0,.007,1.926A7.344,7.344,0,0,0,780.1,1726a6.09,6.09,0,0,0-.2-2S779.875,1724.812,779.833,1725.394Z" transform="translate(-778.797 -1723.236)" fill="#ffbe00"/></g><g transform="translate(0.948 4.653)"><path d="M738.877,1731.553c-.51-.043-1.074-.326-1.453-.377a3.047,3.047,0,0,0-1.45-.1,8.731,8.731,0,0,0-2.211.972,9.219,9.219,0,0,0,2.68.995,2.4,2.4,0,0,0,2.42-.912c.326-.45.556-.536.792-.565C739.656,1731.564,739.149,1731.576,738.877,1731.553Z" transform="translate(-733.764 -1731.029)" fill="#ffbe00"/><path d="M739.572,1735.047c-.669.059-1.6.113-1.6.113a9.25,9.25,0,0,0,2.308.1,10.882,10.882,0,0,0,1.508-.279A21.994,21.994,0,0,0,739.572,1735.047Z" transform="translate(-737.087 -1734.142)" fill="#ffbe00"/></g><g transform="translate(0 0.707)"><path d="M732.757,1713.453a2.855,2.855,0,0,0-1.321-.528c-.36-.116-1.011-.108-1.48-.287-.25-.1-.685-.32-.685-.32.19.125.341.3.372.828.055.977.6,1.41,1.6,1.822a9.772,9.772,0,0,0,2.9.27A7.135,7.135,0,0,0,732.757,1713.453Z" transform="translate(-729.271 -1712.318)" fill="#ffbe00"/><path d="M733.378,1715.952a9.275,9.275,0,0,0,1.158.883,8.636,8.636,0,0,0,2.067.895s-.779-.44-1.329-.776A19.809,19.809,0,0,0,733.378,1715.952Z" transform="translate(-732.512 -1715.186)" fill="#ffbe00"/></g><g transform="translate(4.044 7.106)"><path d="M753.559,1743.181c-.51-.043-1.074-.326-1.453-.378a3.053,3.053,0,0,0-1.45-.1,8.728,8.728,0,0,0-2.211.972,9.216,9.216,0,0,0,2.68.994,2.4,2.4,0,0,0,2.42-.912c.326-.45.556-.536.792-.565C754.338,1743.193,753.831,1743.2,753.559,1743.181Z" transform="translate(-748.446 -1742.658)" fill="#ffbe00"/><path d="M754.254,1746.675c-.669.059-1.6.112-1.6.112a9.245,9.245,0,0,0,2.308.1,10.858,10.858,0,0,0,1.508-.279A21.953,21.953,0,0,0,754.254,1746.675Z" transform="translate(-751.769 -1745.77)" fill="#ffbe00"/></g><g transform="translate(12.608 5.667)"><path d="M790.148,1735.835a6.7,6.7,0,0,0-1.056,1.945,2.024,2.024,0,0,0,.158,1.254,12.758,12.758,0,0,1,.477,1.248,6.5,6.5,0,0,1,.035.674c.026-.205.118-.406.628-.7a1.847,1.847,0,0,0,.982-2.124A7.01,7.01,0,0,0,790.148,1735.835Z" transform="translate(-789.053 -1735.835)" fill="#ffbe00"/><path d="M793.822,1740.872a14.361,14.361,0,0,0-.016,1.926,7.353,7.353,0,0,0,.278-1.315,6.084,6.084,0,0,0-.178-2S793.871,1740.29,793.822,1740.872Z" transform="translate(-792.784 -1738.715)" fill="#ffbe00"/></g><g transform="translate(6.333 9.91)"><path d="M764.419,1756.5c-.509-.048-1.069-.336-1.448-.391a3.05,3.05,0,0,0-1.448-.114,8.753,8.753,0,0,0-2.223.951,9.188,9.188,0,0,0,2.668,1.019,2.4,2.4,0,0,0,2.431-.89c.332-.448.562-.531.8-.558C765.2,1756.521,764.69,1756.528,764.419,1756.5Z" transform="translate(-759.3 -1755.957)" fill="#ffbe00"/><path d="M765.109,1760.024c-.67.053-1.6.1-1.6.1a9.245,9.245,0,0,0,2.306.118,10.907,10.907,0,0,0,1.511-.265A21.953,21.953,0,0,0,765.109,1760.024Z" transform="translate(-762.623 -1759.12)" fill="#ffbe00"/></g><g transform="translate(15.134 9.787)"><path d="M801.241,1757.046a2.035,2.035,0,0,0-.188,1.251,12.269,12.269,0,0,1,.124,1.311,6.613,6.613,0,0,1-.149.662c.081-.194.226-.371.8-.554a2,2,0,0,0,1.532-1.863,6.552,6.552,0,0,0-.565-2.48A7.366,7.366,0,0,0,801.241,1757.046Z" transform="translate(-801.028 -1755.373)" fill="#ffbe00"/><path d="M803.808,1762.144a7.845,7.845,0,0,0,.628-1.221,6.115,6.115,0,0,0,.37-1.977s-.252.776-.458,1.331A14.718,14.718,0,0,0,803.808,1762.144Z" transform="translate(-803.222 -1758.192)" fill="#ffbe00"/></g><g transform="translate(8.427 12.968)"><path d="M773.022,1770.863a2.952,2.952,0,0,0-1.377-.407,9.254,9.254,0,0,0-2.419.47,8.455,8.455,0,0,0,2.316,1.536,2.512,2.512,0,0,0,2.6-.367,1.167,1.167,0,0,1,.928-.378s-.495-.1-.751-.177C773.84,1771.389,773.374,1770.995,773.022,1770.863Z" transform="translate(-769.226 -1770.454)" fill="#ffbe00"/><path d="M773.307,1773.6a8.932,8.932,0,0,0,2.209.587,11.067,11.067,0,0,0,1.541.052,21.6,21.6,0,0,0-2.171-.406C774.221,1773.743,773.307,1773.6,773.307,1773.6Z" transform="translate(-772.446 -1772.933)" fill="#ffbe00"/></g><g transform="translate(16.141 14.149)"><path d="M806.965,1777.324a2.166,2.166,0,0,0-.552,1.167,12.417,12.417,0,0,1-.268,1.294c-.1.22-.34.607-.34.607.136-.169.328-.308.939-.357a2.2,2.2,0,0,0,2.032-1.459,6.429,6.429,0,0,0,.188-2.523A8.215,8.215,0,0,0,806.965,1777.324Z" transform="translate(-805.805 -1776.053)" fill="#ffbe00"/><path d="M809.819,1782.181a8.727,8.727,0,0,0,.969-1.04,6.526,6.526,0,0,0,.944-1.829s-.474.693-.838,1.184A16.01,16.01,0,0,0,809.819,1782.181Z" transform="translate(-808.972 -1778.625)" fill="#ffbe00"/></g><g transform="translate(16.051 18.882)"><path d="M806.287,1800.592a12.706,12.706,0,0,1-.477,1.248c-.134.206-.436.559-.436.559.162-.151.375-.265.988-.238a2.307,2.307,0,0,0,2.25-1.195,6.535,6.535,0,0,0,.6-2.474,8.643,8.643,0,0,0-2.187,1.012A2.281,2.281,0,0,0,806.287,1800.592Z" transform="translate(-805.374 -1798.493)" fill="#ffbe00"/><path d="M809.955,1804.089a9.267,9.267,0,0,0,1.129-.911,6.881,6.881,0,0,0,1.233-1.694s-.582.628-1.023,1.069A16.932,16.932,0,0,0,809.955,1804.089Z" transform="translate(-808.989 -1800.854)" fill="#ffbe00"/></g><g transform="translate(14.632 24.136)"><path d="M799.929,1825.007a13.546,13.546,0,0,1-.732,1.151c-.175.181-.547.48-.547.48.192-.123.425-.2,1.021-.077a2.427,2.427,0,0,0,2.464-.818,6.85,6.85,0,0,0,1.111-2.337,9.1,9.1,0,0,0-2.363.648A2.458,2.458,0,0,0,799.929,1825.007Z" transform="translate(-798.65 -1823.407)" fill="#ffbe00"/><path d="M803.824,1828.152a9.935,9.935,0,0,0,1.3-.716,7.423,7.423,0,0,0,1.57-1.47s-.705.525-1.231.889A18.386,18.386,0,0,0,803.824,1828.152Z" transform="translate(-802.733 -1825.426)" fill="#ffbe00"/></g><g transform="translate(11.887 28.886)"><path d="M788.39,1846.176a2.654,2.654,0,0,0-1.145.777c-.283.224-.574.73-.972,1.01-.212.149-.642.381-.642.381a1.231,1.231,0,0,1,1.02.093,2.51,2.51,0,0,0,2.6-.4,7.352,7.352,0,0,0,1.6-2.111A9.371,9.371,0,0,0,788.39,1846.176Z" transform="translate(-785.631 -1845.929)" fill="#ffbe00"/><path d="M791.237,1849.618a10.533,10.533,0,0,0,1.435-.488,8.043,8.043,0,0,0,1.864-1.184s-.807.4-1.4.67A19.786,19.786,0,0,0,791.237,1849.618Z" transform="translate(-790.055 -1847.521)" fill="#ffbe00"/></g><g transform="translate(9.108 16.221)"><path d="M776.143,1786.7a2.731,2.731,0,0,0-1.21-.7,9.4,9.4,0,0,0-2.477-.085,7.585,7.585,0,0,0,1.783,2,2.528,2.528,0,0,0,2.626.225,1.224,1.224,0,0,1,1.008-.159s-.449-.2-.673-.338C776.778,1787.392,776.445,1786.907,776.143,1786.7Z" transform="translate(-772.456 -1785.879)" fill="#ffbe00"/><path d="M776.132,1787.84a8.276,8.276,0,0,0,1.961,1.059,10.766,10.766,0,0,0,1.474.393,20.287,20.287,0,0,0-1.977-.876C776.972,1788.185,776.132,1787.84,776.132,1787.84Z" transform="translate(-775.357 -1787.426)" fill="#ffbe00"/></g><g transform="translate(9.872 19.378)"><path d="M779.415,1802.417a2.471,2.471,0,0,0-.966-.943,9.1,9.1,0,0,0-2.371-.627,6.874,6.874,0,0,0,1.139,2.327,2.434,2.434,0,0,0,2.474.8c.6-.129.829-.053,1.022.068,0,0-.375-.3-.553-.476C779.828,1803.224,779.647,1802.681,779.415,1802.417Z" transform="translate(-776.078 -1800.847)" fill="#ffbe00"/><path d="M779.113,1803.377a7.462,7.462,0,0,0,1.588,1.456,9.97,9.97,0,0,0,1.311.7,18.4,18.4,0,0,0-1.656-1.282C779.824,1803.9,779.113,1803.377,779.113,1803.377Z" transform="translate(-778.473 -1802.843)" fill="#ffbe00"/></g><g transform="translate(8.997 22.854)"><path d="M774.9,1819.384a2.3,2.3,0,0,0-.759-1.076,8.692,8.692,0,0,0-2.207-.979,6.559,6.559,0,0,0,.648,2.465,2.32,2.32,0,0,0,2.274,1.161c.612-.036.827.074.992.223,0,0-.309-.349-.447-.552A12.9,12.9,0,0,1,774.9,1819.384Z" transform="translate(-771.93 -1817.329)" fill="#ffbe00"/><path d="M775.447,1821.338c-.449-.434-1.044-1.053-1.044-1.053a6.928,6.928,0,0,0,1.267,1.676,9.315,9.315,0,0,0,1.147.894A17.083,17.083,0,0,0,775.447,1821.338Z" transform="translate(-773.881 -1819.661)" fill="#ffbe00"/></g><g transform="translate(7.976 26.193)"><path d="M769.512,1835.894a2.079,2.079,0,0,0-.351-1.224,7.737,7.737,0,0,0-1.765-1.509,6.449,6.449,0,0,0-.236,2.52,2.083,2.083,0,0,0,1.766,1.7c.6.125.763.287.869.471a6.752,6.752,0,0,1-.235-.643A12.131,12.131,0,0,1,769.512,1835.894Z" transform="translate(-767.09 -1833.161)" fill="#ffbe00"/><path d="M769.872,1836.625a6.256,6.256,0,0,0,.627,1.928,8.213,8.213,0,0,0,.784,1.151,15.171,15.171,0,0,0-.781-1.8C770.225,1837.37,769.872,1836.625,769.872,1836.625Z" transform="translate(-769.285 -1835.894)" fill="#ffbe00"/></g></g><g transform="translate(450.594 1328.208)"><g transform="translate(0.743 0.743)" opacity="0.68" style="mix-blend-mode:multiply;isolation:isolate"><g transform="translate(0 0)"><path d="M941.066,1810.238c3.336-.525,5.56-2.595,5.56-5.251,0-2.966-2.78-5.1-6.549-5.1-3.583,0-6.672,1.946-6.672,4.263a2,2,0,0,0,1.884,2.1,1.972,1.972,0,0,0,1.853-2.131,3.944,3.944,0,0,0-.031-.556,3.972,3.972,0,0,1-.031-.556c0-.9.8-1.823,2.533-1.823,2.162,0,3.429,1.39,3.429,3.892,0,2.749-1.576,4.479-4.016,4.479a3.01,3.01,0,0,1-.525-.031c-.309-.031-.649-.031-.834-.031a.741.741,0,0,0-.834.8.733.733,0,0,0,.834.772,4.334,4.334,0,0,0,.618-.031c.432-.031.834-.062,1.2-.062,2.44,0,4.077,1.885,4.077,4.819,0,3.058-1.637,4.911-4.232,4.911-2.317,0-2.842-1.019-2.842-1.946a3.533,3.533,0,0,1,.031-.587c.031-.247.062-.463.062-.587a2.11,2.11,0,0,0-2.008-2.008,2,2,0,0,0-1.946,2.1c0,2.564,2.811,4.324,6.8,4.324,4.664,0,7.846-2.5,7.846-6.147C947.275,1813.049,945.082,1810.392,941.066,1810.238Z" transform="translate(-932.633 -1799.89)" fill="#480b0f"/></g><path d="M941.067,1810.237c3.336-.525,5.56-2.594,5.56-5.251,0-2.965-2.78-5.1-6.549-5.1-3.583,0-6.672,1.946-6.672,4.263a2,2,0,0,0,1.884,2.1,1.972,1.972,0,0,0,1.853-2.132,3.974,3.974,0,0,0-.031-.556,3.952,3.952,0,0,1-.031-.556c0-.9.8-1.823,2.533-1.823,2.162,0,3.429,1.39,3.429,3.892,0,2.75-1.576,4.479-4.016,4.479a2.986,2.986,0,0,1-.525-.031c-.309-.031-.648-.031-.834-.031a.741.741,0,0,0-.834.8.733.733,0,0,0,.834.772,4.345,4.345,0,0,0,.618-.031c.433-.031.834-.062,1.2-.062,2.44,0,4.077,1.884,4.077,4.819,0,3.058-1.637,4.911-4.232,4.911-2.317,0-2.842-1.019-2.842-1.946a3.511,3.511,0,0,1,.031-.587c.031-.247.062-.463.062-.587a2.111,2.111,0,0,0-2.008-2.008,2,2,0,0,0-1.946,2.1c0,2.564,2.811,4.325,6.8,4.325,4.664,0,7.846-2.5,7.846-6.147C947.276,1813.048,945.083,1810.391,941.067,1810.237Z" transform="translate(-932.634 -1799.889)" fill="#480c0f"/></g><g transform="translate(0)"><path d="M937.542,1806.713c3.336-.525,5.56-2.595,5.56-5.251,0-2.965-2.78-5.1-6.549-5.1-3.583,0-6.672,1.946-6.672,4.263a2,2,0,0,0,1.884,2.1,1.971,1.971,0,0,0,1.853-2.131,3.972,3.972,0,0,0-.031-.556,3.954,3.954,0,0,1-.031-.556c0-.9.8-1.823,2.533-1.823,2.162,0,3.429,1.39,3.429,3.892,0,2.749-1.575,4.479-4.016,4.479a2.988,2.988,0,0,1-.525-.031c-.309-.031-.649-.031-.834-.031a.741.741,0,0,0-.834.8.733.733,0,0,0,.834.772,4.367,4.367,0,0,0,.618-.031c.433-.031.834-.062,1.2-.062,2.44,0,4.077,1.884,4.077,4.819,0,3.058-1.637,4.912-4.232,4.912-2.317,0-2.842-1.02-2.842-1.946a3.531,3.531,0,0,1,.031-.587c.031-.247.062-.463.062-.587a2.11,2.11,0,0,0-2.008-2.008,2,2,0,0,0-1.946,2.1c0,2.564,2.811,4.325,6.8,4.325,4.664,0,7.846-2.5,7.846-6.147C943.751,1809.524,941.558,1806.867,937.542,1806.713Z" transform="translate(-929.109 -1796.365)" fill="#480b0f"/><g transform="translate(0)"><path d="M937.543,1806.713c3.336-.525,5.56-2.595,5.56-5.251,0-2.965-2.78-5.1-6.549-5.1-3.583,0-6.672,1.946-6.672,4.263a2,2,0,0,0,1.884,2.1,1.972,1.972,0,0,0,1.853-2.132,3.97,3.97,0,0,0-.031-.556,3.949,3.949,0,0,1-.031-.556c0-.9.8-1.823,2.533-1.823,2.162,0,3.429,1.39,3.429,3.892,0,2.75-1.575,4.479-4.016,4.479a2.974,2.974,0,0,1-.525-.031c-.309-.031-.649-.031-.834-.031a.741.741,0,0,0-.834.8.733.733,0,0,0,.834.772,4.381,4.381,0,0,0,.618-.031c.433-.031.834-.062,1.2-.062,2.44,0,4.077,1.885,4.077,4.819,0,3.058-1.637,4.911-4.232,4.911-2.317,0-2.842-1.019-2.842-1.946a3.533,3.533,0,0,1,.031-.587c.031-.247.062-.463.062-.587a2.111,2.111,0,0,0-2.008-2.008,2,2,0,0,0-1.946,2.1c0,2.564,2.811,4.325,6.8,4.325,4.664,0,7.846-2.5,7.846-6.147C943.752,1809.524,941.558,1806.868,937.543,1806.713Z" transform="translate(-929.11 -1796.365)" fill="#fff"/></g></g></g><g transform="translate(340.815 1326.651)"><g transform="translate(0.833 0.834)" opacity="0.68" style="mix-blend-mode:multiply;isolation:isolate"><g transform="translate(0)"><path d="M421.578,1811.269H415.5a25.559,25.559,0,0,1,5.4-4.623c4.654-3.32,6.081-5.182,6.081-8.036,0-3.382-2.762-5.678-6.826-5.678-3.785,0-6.857,2.389-6.857,5.43a2.249,2.249,0,0,0,2.048,2.358,1.978,1.978,0,0,0,1.862-2.017,2.912,2.912,0,0,0-.248-1.055,3.055,3.055,0,0,1-.217-1.086c0-1.3,1.272-2.265,2.979-2.265,2.172,0,3.475,1.427,3.475,3.754,0,2.761-1.117,4.623-5.4,8.843a32.806,32.806,0,0,0-5.244,6.082v1.675H425.7l1.52-6.671-1.117-.31C424.991,1810.8,424.37,1811.269,421.578,1811.269Z" transform="translate(-412.549 -1792.932)" fill="#480b0f"/></g><path d="M421.576,1811.269h-6.082a25.565,25.565,0,0,1,5.4-4.624c4.654-3.32,6.081-5.182,6.081-8.036,0-3.382-2.762-5.678-6.826-5.678-3.786,0-6.857,2.389-6.857,5.43a2.249,2.249,0,0,0,2.048,2.358,1.978,1.978,0,0,0,1.862-2.017,2.911,2.911,0,0,0-.248-1.055,3.058,3.058,0,0,1-.217-1.086c0-1.3,1.272-2.265,2.979-2.265,2.172,0,3.475,1.427,3.475,3.755,0,2.761-1.117,4.623-5.4,8.843a32.822,32.822,0,0,0-5.244,6.082v1.675H425.7l1.52-6.671-1.117-.31C424.989,1810.8,424.369,1811.269,421.576,1811.269Z" transform="translate(-412.547 -1792.932)" fill="#480c0f"/></g><g transform="translate(0 0)"><g transform="translate(0)"><path d="M417.626,1807.317h-6.081a25.555,25.555,0,0,1,5.4-4.623c4.654-3.32,6.081-5.182,6.081-8.036,0-3.382-2.761-5.678-6.826-5.678-3.785,0-6.857,2.389-6.857,5.43a2.249,2.249,0,0,0,2.048,2.358,1.978,1.978,0,0,0,1.862-2.017A2.91,2.91,0,0,0,413,1793.7a3.057,3.057,0,0,1-.217-1.086c0-1.3,1.272-2.265,2.979-2.265,2.172,0,3.475,1.427,3.475,3.754,0,2.761-1.117,4.623-5.4,8.843a32.8,32.8,0,0,0-5.244,6.081v1.675h13.156l1.52-6.671-1.117-.31C421.039,1806.852,420.418,1807.317,417.626,1807.317Z" transform="translate(-408.597 -1788.98)" fill="#480b0f"/></g><g transform="translate(0 0)"><path d="M417.625,1807.318h-6.081a25.562,25.562,0,0,1,5.4-4.623c4.654-3.32,6.081-5.182,6.081-8.036,0-3.382-2.761-5.678-6.826-5.678-3.786,0-6.857,2.389-6.857,5.43a2.248,2.248,0,0,0,2.048,2.358,1.978,1.978,0,0,0,1.862-2.017A2.916,2.916,0,0,0,413,1793.7a3.053,3.053,0,0,1-.218-1.086c0-1.3,1.272-2.265,2.979-2.265,2.172,0,3.475,1.427,3.475,3.754,0,2.762-1.117,4.623-5.4,8.843a32.8,32.8,0,0,0-5.244,6.082v1.675h13.156l1.52-6.671-1.117-.31C421.038,1806.853,420.418,1807.318,417.625,1807.318Z" transform="translate(-408.596 -1788.981)" fill="#fff"/></g></g></g><g transform="translate(331.377 1307.664)"><path d="M620.518,1731.627c-.3,4.517-.54,4.91-3.319,5.394,2.78.484,3.021.877,3.319,5.394.3-4.517.54-4.91,3.319-5.394C621.059,1736.536,620.817,1736.144,620.518,1731.627Z" transform="translate(-563.766 -1724.736)" fill="#fff"/><path d="M986.647,1825.126c-.351,5.313-.635,5.775-3.9,6.345,3.269.57,3.554,1.032,3.9,6.344.351-5.312.635-5.775,3.9-6.344C987.283,1830.9,987,1830.438,986.647,1825.126Z" transform="translate(-852.214 -1798.516)" fill="#fff"/><path d="M511.182,1751.824c-3.929-.2-4.651.426-1.2-3.282-3.708,3.45-3.085,2.628-3.282-2.041-.2,4.668.575,5.59-3.133,2.14,3.45,3.708,2.579,2.986-1.35,3.183,3.929.2,4.5-.277,1.052,3.432,3.708-3.45,3.234-2.769,3.431,1.9.2-4.668-.277-5.3,3.431-1.849C506.68,1751.6,507.253,1752.022,511.182,1751.824Z" transform="translate(-473.033 -1736.474)" fill="#fff"/><path d="M412.05,1766.089c-3.022-.152-3.577.328-.924-2.524-2.852,2.654-2.373,2.021-2.524-1.569-.152,3.59.443,4.3-2.41,1.646,2.654,2.852,1.984,2.3-1.038,2.448,3.022.151,3.462-.213.809,2.639,2.852-2.653,2.488-2.13,2.639,1.46.152-3.59-.213-4.076,2.639-1.422C408.588,1765.914,409.028,1766.24,412.05,1766.089Z" transform="translate(-396.442 -1748.699)" fill="#fff"/><path d="M953.193,1723.894c-3.929-.2-4.651.426-1.2-3.282-3.709,3.45-3.085,2.628-3.282-2.041-.2,4.668.575,5.59-3.133,2.14,3.45,3.708,2.579,2.986-1.35,3.183,3.929.2,4.5-.277,1.052,3.431,3.708-3.45,3.234-2.769,3.431,1.9.2-4.668-.277-5.3,3.431-1.849C948.691,1723.667,949.264,1724.091,953.193,1723.894Z" transform="translate(-821.821 -1714.434)" fill="#fff"/><path d="M875.9,1782.432c-3.022-.152-3.577.328-.924-2.524-2.852,2.653-2.373,2.021-2.525-1.569-.152,3.59.443,4.3-2.41,1.646,2.653,2.852,1.983,2.3-1.038,2.448,3.022.152,3.462-.213.809,2.639,2.852-2.654,2.488-2.13,2.639,1.461.152-3.59-.213-4.076,2.639-1.422C872.435,1782.257,872.875,1782.583,875.9,1782.432Z" transform="translate(-762.461 -1761.596)" fill="#fff"/><path d="M793.584,1706.782c-3.929-.2-4.651.426-1.2-3.282-3.709,3.45-3.085,2.628-3.282-2.041-.2,4.668.575,5.59-3.133,2.14,3.45,3.709,2.579,2.986-1.35,3.183,3.929.2,4.5-.277,1.052,3.432,3.709-3.45,3.234-2.769,3.431,1.9.2-4.668-.277-5.3,3.431-1.849C789.082,1706.555,789.655,1706.98,793.584,1706.782Z" transform="translate(-695.875 -1700.932)" fill="#fff"/><g transform="translate(47.877 0)"><path d="M640.64,1809.755c-.357,5.406-.646,5.876-3.973,6.456,3.327.58,3.616,1.05,3.973,6.456.357-5.406.646-5.876,3.973-6.456C641.286,1815.631,641,1815.161,640.64,1809.755Z" transform="translate(-627.004 -1786.387)" fill="#fff"/><path d="M742.42,1855.381c-.229,3.474-.415,3.776-2.553,4.149,2.138.373,2.324.675,2.553,4.149.229-3.474.415-3.776,2.553-4.149C742.835,1859.157,742.649,1858.855,742.42,1855.381Z" transform="translate(-708.439 -1822.39)" fill="#fff"/><path d="M771.044,1820.089c-.264,3.992-.477,4.339-2.934,4.767,2.457.428,2.67.776,2.934,4.767.264-3.992.477-4.339,2.934-4.767C771.521,1824.428,771.307,1824.081,771.044,1820.089Z" transform="translate(-730.725 -1794.541)" fill="#fff"/></g></g><g transform="translate(344.66 1203.082)"><g transform="translate(0 0)"><g transform="translate(0 7.557)"><path d="M624.565,1605.52c-11.1,0-18.51,3.6-19.616,7.832a18.856,18.856,0,0,0-.736,4.217c.49,1.2-1.226,3.414,20.352,3.414s19.862-2.209,20.352-3.414a18.856,18.856,0,0,0-.736-4.217C643.075,1609.123,635.67,1605.52,624.565,1605.52Z" transform="translate(-566.802 -1528.2)" fill="#ffd809"/><path d="M658.435,1494.016c1.707,6.828,3.414,6.614,5.379,6.578,1.965.036,3.672.25,5.379-6.578.967-3.868,4.483-26.3,4.483-26.3H653.952S657.468,1490.148,658.435,1494.016Z" transform="translate(-606.05 -1419.461)" fill="#ffd809"/><path d="M840.957,1239.323c-4.687,1.137-8.5,4.37-9.49,8.045-.553,2.055-.406,6.866,2.439,9.206,1.086.893,3.458,2.122,7.143.308a2.464,2.464,0,0,0-2.177-4.421c-.416.2-1.427.644-1.836.307-.794-.654-1.09-3.08-.81-4.118.51-1.9,3.044-3.846,5.893-4.538a7.215,7.215,0,0,1,7.246,1.906c2.018,2.215,2.768,4.438,2.292,6.8-.809,4.01-5.052,7.6-8.9,9.387a20.929,20.929,0,0,1-7.621,1.88c-2.6.244-5.279.5-7.568,3.255-3.235,3.9-2.618,7.512-1.68,9.167a8.44,8.44,0,0,0,7.645,4.779h.011a8.5,8.5,0,0,0,7.8-5.334,2.464,2.464,0,0,0-4.5-2.014,3.57,3.57,0,0,1-3.307,2.42h-.005a3.548,3.548,0,0,1-3.215-2.011.944.944,0,0,0-.133-.263c-.121-.29-.5-1.576,1.176-3.6.938-1.132,1.821-1.267,4.234-1.494a25.828,25.828,0,0,0,9.233-2.315c7.369-3.415,10.854-8.9,11.658-12.885.547-2.715.388-6.842-3.481-11.088A11.972,11.972,0,0,0,840.957,1239.323Z" transform="translate(-741.131 -1238.91)" fill="#ffd809"/><path d="M448.411,1264.08a20.928,20.928,0,0,1-7.621-1.88c-3.848-1.783-8.091-5.377-8.9-9.387-.475-2.357.275-4.58,2.293-6.8a7.215,7.215,0,0,1,7.246-1.906c2.85.692,5.383,2.642,5.893,4.538.28,1.038-.016,3.464-.811,4.118-.41.337-1.42-.1-1.836-.307a2.464,2.464,0,1,0-2.177,4.421c3.685,1.814,6.057.585,7.143-.308,2.846-2.34,2.993-7.15,2.439-9.206-.989-3.675-4.8-6.909-9.49-8.045a11.972,11.972,0,0,0-12.05,3.376c-3.868,4.246-4.028,8.373-3.481,11.088.8,3.99,4.29,9.47,11.658,12.885a25.828,25.828,0,0,0,9.233,2.315c2.413.227,3.3.362,4.234,1.494,1.677,2.023,1.3,3.308,1.176,3.6a.955.955,0,0,0-.133.263,3.547,3.547,0,0,1-3.215,2.011h0a3.569,3.569,0,0,1-3.307-2.42,2.464,2.464,0,0,0-4.5,2.014,8.5,8.5,0,0,0,7.8,5.334h.011a8.44,8.44,0,0,0,7.645-4.779c.937-1.654,1.555-5.265-1.68-9.167C453.69,1264.575,451.006,1264.323,448.411,1264.08Zm4.981,9.958h0Z" transform="translate(-426.828 -1238.91)" fill="#ffd809"/><path d="M649.242,1575.559c-7.506,0-12.511,2.973-13.259,6.464a18.758,18.758,0,0,0-.5,3.481c.332.994-.829,2.818,13.756,2.818S662.667,1586.5,663,1585.5a18.758,18.758,0,0,0-.5-3.481C661.754,1578.532,656.748,1575.559,649.242,1575.559Z" transform="translate(-591.479 -1504.558)" fill="#ffd809"/></g><g transform="translate(18.783)"><path d="M546.334,1276.356c6.928,4.605,17.126,4.53,17.126,4.53s10.2.075,17.126-4.53c18.618-12.375,19.557-52.595,19.557-52.595H526.777S527.716,1263.98,546.334,1276.356Z" transform="translate(-524.48 -1219.4)" fill="#ffd809"/><ellipse cx="38.981" cy="4.443" rx="38.981" ry="4.443" fill="#ffcd00"/><ellipse cx="35.431" cy="2.563" rx="35.431" ry="2.563" transform="translate(3.549 1.86)" fill="#ebbd00"/><g transform="translate(2.297 4.361)"><path d="M572.037,1256.88c-13.387-4.342-20.951-19.1-18.548-33.119H526.777s.939,40.219,19.557,52.595c6.928,4.605,17.126,4.53,17.126,4.53s10.2.075,17.126-4.53a25.286,25.286,0,0,0,4.209-3.548C584.746,1266.108,580.711,1259.693,572.037,1256.88Z" transform="translate(-526.777 -1223.761)" fill="none"/><path d="M670.326,1256.88c8.674,2.813,12.709,9.228,12.759,15.927,14.554-15.121,15.349-49.047,15.349-49.047H651.779C649.375,1237.781,656.939,1252.538,670.326,1256.88Z" transform="translate(-625.066 -1223.761)" fill="#ffd809" opacity="0.3" style="mix-blend-mode:multiply;isolation:isolate"/></g></g></g><path d="M535.463,1362.818c-.357,5.406-.646,5.876-3.973,6.456,3.327.58,3.616,1.05,3.973,6.456.357-5.406.646-5.876,3.973-6.456C536.109,1368.694,535.82,1368.224,535.463,1362.818Z" transform="translate(-509.416 -1329.129)" fill="#fff"/><path d="M754.08,1454.4c-.3,4.517-.54,4.91-3.319,5.394,2.78.485,3.021.878,3.319,5.394.3-4.516.54-4.909,3.319-5.394C754.621,1459.313,754.379,1458.92,754.08,1454.4Z" transform="translate(-723.007 -1450.792)" fill="#fff"/><path d="M806.481,1247.017c-3.929-.2-4.651.426-1.2-3.282-3.709,3.45-3.085,2.628-3.282-2.041-.2,4.668.575,5.59-3.133,2.14,3.45,3.709,2.579,2.986-1.35,3.183,3.929.2,4.5-.277,1.052,3.431,3.708-3.45,3.234-2.769,3.431,1.9.2-4.668-.277-5.3,3.431-1.849C801.979,1246.789,802.552,1247.214,806.481,1247.017Z" transform="translate(-719.335 -1233.55)" fill="#fff"/><path d="M634.966,1427.214c-.351,5.313-.635,5.775-3.9,6.345,3.269.57,3.554,1.032,3.9,6.344.351-5.312.635-5.775,3.9-6.344C635.6,1432.989,635.317,1432.526,634.966,1427.214Z" transform="translate(-597.988 -1421.107)" fill="#fff"/><ellipse cx="35.431" cy="2.563" rx="35.431" ry="2.563" transform="translate(22.332 1.86)" fill="#ebbd00"/></g><g transform="translate(381.194 1287.192)"><path d="M622.309,1615.1c-9.754-.489-11.546,1.058-2.981-8.148-9.206,8.565-7.659,6.524-8.148-5.065-.489,11.589,1.428,13.877-7.778,5.312,8.565,9.206,6.4,7.412-3.351,7.9,9.754.49,11.175-.688,2.611,8.518,9.206-8.565,8.029-6.875,8.518,4.714.49-11.589-.688-13.156,8.519-4.591C611.134,1614.538,612.556,1615.592,622.309,1615.1Z" transform="translate(-612.051 -1601.889)" fill="#fff"/></g></g><path d="M3.782,0h7.812V-30.008L23.87,0h6.076V-50.22H22.382v28.644L10.168-50.22H3.782ZM47.864.558C55.676.558,59.4-3.968,59.4-11.9V-23.932c0-7.936-3.72-12.462-11.532-12.462s-11.47,4.526-11.47,12.462V-11.9C36.394-3.968,40.052.558,47.864.558Zm.062-5.828C45.012-5.27,44.7-8,44.7-11.284V-24.49c0-3.348.31-6.076,3.224-6.076,2.852,0,3.162,2.728,3.162,6.076v13.206C51.088-7.936,50.778-5.27,47.926-5.27ZM64.914,0H73.1V-8.494H64.914Zm19.9,0h8.618V-50.22H86.8c-2.108,2.48-7.44,4.712-9.734,5.518v6.386c1.054-.5,6.758-1.8,7.75-2.418Z" transform="translate(907.603 1782)" fill="#03a58e"/><path d="M28.836,1.3V-28.332H7.02V1.4h4.248V.18h13.32V1.3ZM24.588-11.952H11.268v-4.5h13.32Zm0-8.208H11.268v-4.392h13.32Zm0,16.56H11.268V-8.28h13.32ZM68.22,1.692v-15.84h-16.6V1.908h3.96V.612h8.6v1.08ZM64.188-8.532h-8.6V-10.98h8.6Zm0,5.832h-8.6V-5.472h8.6ZM50.976-20.232v-3.744H47.484v-3.276c0-.252.072-.324.54-.756a.488.488,0,0,0,.216-.4c0-.18-.18-.288-.432-.288l-4.32-.252v4.968H38.664v3.744h4.824v6.048a48.284,48.284,0,0,1-5.724,1.224L38.7-8.244c0,.108.144.216.288.216.108,0,.216-.144.4-.432.216-.324.5-.432,1.548-.756.288-.108,1.656-.612,2.556-.936v6.84c0,.972-.288,1.26-1.224,1.26a15.031,15.031,0,0,1-2.232-.18l1.4,3.888c3.312-.036,6.048-.216,6.048-3.816v-9.612A34.183,34.183,0,0,0,50.8-13.356l.072-3.348c-1.368.576-2.016.864-3.384,1.332v-4.86Zm19.692-.648-3.42-2.2c-.432,2.952-.756,4.032-3.024,4.032H57.816c-.648,0-1.584-.108-1.584-.972v-1.332a75.224,75.224,0,0,0,10.044-3.708,1.056,1.056,0,0,1,.576-.144c.144,0,.792.108.9.108.072,0,.36,0,.36-.18a.5.5,0,0,0-.18-.4l-3.1-3.384a28.024,28.024,0,0,1-8.6,4.32v-2.52c0-.36.324-.54.5-.648.18-.144.36-.252.36-.432,0-.252-.288-.324-.5-.36l-4.248-.432v10.908c0,1.368,1.656,2.628,3.816,2.628h8.676C69.228-15.588,70.128-17.892,70.668-20.88Zm33.552,3.6-.036-3.96c-3.312.54-4.464.684-6.48.972l.18-5.364c.036-.144.036-.252.324-.432.324-.216.4-.288.4-.468,0-.216,0-.432-1.188-.576l-3.672-.432a54.151,54.151,0,0,1,.324,7.74c-4.14.576-5.472.72-7.632.972,0-4.14.036-4.356.072-4.932,0-.072.036-.288.36-.54.54-.36.612-.4.612-.576,0-.468-.468-.5-1.224-.612l-4.068-.54c.18,2.52.216,6.228.216,7.7-2.7.288-3.78.4-6.624.648l.144,3.96c3.24-.5,3.6-.54,6.48-.972l.036,4.932c.036,6.7,1.008,9.216,9.108,9.216a80.944,80.944,0,0,0,9.648-.54l.324-4.32a30.808,30.808,0,0,1-9.252,1.26c-5.328,0-5.976-1.044-5.976-5.148,0-.216,0-2.376.072-5.976,3.24-.432,3.852-.54,7.668-1.008,0,3.924-.108,4.572-2.3,4.572a8.658,8.658,0,0,1-2.124-.252l.9,3.78a12.577,12.577,0,0,0,2.088.144c2.7,0,3.852-.792,4.392-2.3.36-1.008.432-2.088.612-6.336C100.98-17.064,102.636-17.208,104.22-17.28ZM137.664-9.5a7.935,7.935,0,0,0-7.992-7.956,28.664,28.664,0,0,0-3.492.216c5.22-5.328,5.832-5.9,7.992-7.7L132.3-27.864c-3.42,1.332-9.54,1.8-10.908,1.8-1.116,0-3.168-.144-4.032-.216l.828,4.032a33.608,33.608,0,0,0,8.424-.9,71.072,71.072,0,0,1-13.32,13l3.024,3.168c2.016-2.052,5.184-5.256,7.416-6.444a9.763,9.763,0,0,1,4.1-.9c2.34,0,5.832,1.152,5.832,4.716a6.342,6.342,0,0,1-2.376,4.788c-1.008-1.26-3.348-4.212-7.092-4.212a5.042,5.042,0,0,0-5.292,4.788c0,2.664,2.3,4.932,6.8,4.932C132.048.684,137.664-3.528,137.664-9.5Zm-9.72,6.444a10.235,10.235,0,0,1-2.448.324c-1.3,0-2.952-.36-2.952-1.62a1.586,1.586,0,0,1,1.8-1.512C126.4-5.868,127.476-3.888,127.944-3.06Z" transform="translate(907.603 1822)" fill="#272626"/><path d="M8.274-22.134V-30.66H2.6v8.526l1.47,13.86H6.846ZM8.274,0V-5.67H2.6V0Z" transform="translate(1049.483 1819.617) rotate(20)" fill="#272626"/><path d="M25.47-11.67l-1.02-3.42c-1.41.63-1.8.81-5.31,2.46a4.021,4.021,0,0,0-4.08-3.03,5.8,5.8,0,0,0-2.58.63c.51-.78.75-1.2,1.71-2.97a63.15,63.15,0,0,0,7.17-1.14l.21-3.36a25.331,25.331,0,0,1-5.88,1.53c.15-.33.9-2.01.93-2.04.03,0,.63-.27.69-.3.18-.06.3-.15.3-.33,0-.21-.51-.27-.6-.3l-3.75-.66a23.264,23.264,0,0,1-1.5,3.99,42.2,42.2,0,0,1-5.73-.12l.36,3.12c1.26,0,2.19-.03,3.9-.12A39.888,39.888,0,0,1,4.38-9.48L7.32-7.65c1.65-2.7,3.45-5.43,6.39-5.43a2.078,2.078,0,0,1,2.28,1.98c-4.5,2.31-7.26,3.72-7.26,7.44A4.1,4.1,0,0,0,9.87-.72c1.89,2.01,5.37,2.01,7.05,2.01A49.649,49.649,0,0,0,24.06.84V-2.55a34.686,34.686,0,0,1-7.65.96c-2.19,0-4.5-.39-4.5-2.34,0-2.1,3.12-3.66,4.26-4.23-.03,1.32-.06,2.79-.15,4.5H19.5c0-1.02-.06-4.74-.06-5.91C21.66-10.41,23.1-10.92,25.47-11.67Z" transform="translate(1005.294 1781.052)" fill="#272626"/><path d="M3.685,27.957l.2-.615.155-.613.265-.573.19-.6.147-.62.306-.555.128-.622.3-.563.285-.562.13-.62.249-.578.128-.621.311-.554.137-.622.258-.577.232-.584.145-.615.287-.567.158-.612.266-.572.253-.581.149-.616.212-.59.261-.58.107-.629.264-.581.307-.557.079-.638.261-.577.2-.6.221-.593.231-.584.249-.584L11,7.821l.138-.617.213-.595L11.522,6l.2-.6.3-.563.154-.616.267-.575.237-.588.149-.622.3-.617-.68-.077L11.819,1.7l-.628-.1-.618-.124-.616-.131-.639-.029-.59-.274L8.1.941l-.624-.1L6.841.8l-.6-.2L5.6.6,4.973.474,4.344.4,3.721.268,3.1.127,2.436,0,2.321.673l.132.643-.175.623.067.642L2.169,3.2l-.046.636.042.641L1.973,5.1l.051.639-.176.617-.009.636-.06.63.037.636-.121.628-.126.626.043.638.006.641-.1.63.01.633-.088.63-.122.624-.034.638-.049.631-.053.636-.08.63.005.635-.062.636-.06.631-.13.626L.835,19l-.07.63-.094.632L.74,20.9l-.074.638-.052.634L.472,22.8l0,.637-.05.637L.335,24.7l.085.644-.084.638-.083.629L.2,27.248,0,27.871l0,.676.636-.11.605-.088.583-.232.631.051.6-.131Z" transform="matrix(0.719, 0.695, -0.695, 0.719, 1023.466, 1708.415)" fill="#ffdd7f"/><path d="M3.515,25.4l.5-.379.389-.5.547-.331L5.36,23.7l.437-.452.418-.478.537-.347.406-.486.462-.42.464-.423.478-.409.463-.425.433-.459.417-.478.53-.354.467-.423.44-.45.441-.449.479-.409.429-.462.528-.354.431-.466.449-.442.4-.5.462-.433.508-.381.433-.461.465-.428.482-.4.426-.471.454-.435.426-.463.506-.378.456-.438.486-.406.395-.5.475-.42.5-.386.468-.428.448-.441.448-.446.457-.444.5-.394.475-.475L23.2,6l-.532-.346-.49-.4-.524-.356-.468-.426-.59-.259-.437-.468-.471-.429-.526-.354-.539-.334-.446-.455-.505-.4-.617-.22L16.609,1.1,16.123.687,15.56.378,15.052,0l-.374.51-.267.577-.371.522-.282.567-.384.511-.3.56-.385.5-.333.54-.285.567-.316.549-.347.529-.375.51-.263.583-.4.5L10,8.046l-.292.568-.237.6L9.052,9.7l-.348.528-.3.555-.335.539-.36.523-.364.522L7,12.9l-.261.582-.35.532-.362.523-.376.516-.249.592-.347.532-.387.507-.392.512-.168.639-.423.486-.276.575-.441.472-.3.567-.309.558-.324.546-.287.577-.411.489-.256.591-.412.494L.3,23.719,0,24.3l.616.118.538.33.635.016.568.245.586.188Z" transform="matrix(0.719, 0.695, -0.695, 0.719, 1028.932, 1724.27)" fill="#ffdd7f"/><path d="M18.573,26.112l-.224-.6-.2-.592-.174-.607-.2-.6-.244-.58-.241-.582-.187-.6-.211-.594-.162-.606L16.4,20.2l-.055-.644-.255-.58-.263-.572-.288-.566-.133-.622-.239-.585L15.082,16l-.275-.571-.159-.609-.224-.59-.177-.611-.323-.55-.146-.612-.225-.593-.255-.579-.136-.62-.249-.58-.171-.61L12.5,8.894l-.23-.591-.176-.609L11.9,7.1l-.249-.576-.28-.574-.112-.629L11,4.745l-.257-.581-.144-.62-.209-.6L10.2,2.338,10.03,1.73,9.774,1.15,9.7.5,9.368,0,8.831.229,8.3.581,7.737.862,7.2,1.188l-.508.385-.611.2-.567.278L4.98,2.4l-.5.4-.6.228-.577.267-.513.378-.537.337-.6.215-.542.331-.561.3L0,5.221l.348.559.388.5.43.469.379.513.246.6.39.505.292.567.342.539.463.446.307.558.3.556.376.511.466.45.243.6.4.5.351.53.391.5.307.56.376.507.343.536.446.461.343.538.324.548.282.572.359.53.434.469.281.577.4.5.336.541.388.5.342.539.346.532.422.483.27.579.427.48.33.545.3.571.473.445.387.512.287.572.328.544.391.508.335.544.375.52.361.535.325-.544.539-.332.271-.579.537-.343.357-.508Z" transform="matrix(0.719, 0.695, -0.695, 0.719, 999.651, 1689.938)" fill="#ffdd7f"/><path d="M4.166,2.8c-1.253.617-1.625,1.118-2.083,2.8C1.624,3.922,1.253,3.421,0,2.8,1.253,2.187,1.624,1.686,2.083,0c.458,1.686.83,2.187,2.083,2.8" transform="matrix(0.719, 0.695, -0.695, 0.719, 993.691, 1704.946)" fill="#ffc449"/><path d="M7.11,4.786C4.972,5.839,4.337,6.693,3.555,9.572,2.773,6.693,2.138,5.839,0,4.786,2.138,3.732,2.773,2.878,3.555,0,4.337,2.878,4.972,3.732,7.11,4.786" transform="matrix(0.719, 0.695, -0.695, 0.719, 996.176, 1695.344)" fill="#ffc449"/><path d="M3.785,3.226C2.446,3.379,1.945,3.713.98,5.1,1.112,3.415.937,2.839,0,1.87,1.339,1.717,1.84,1.383,2.805,0c-.132,1.682.043,2.257.98,3.226" transform="matrix(0.719, 0.695, -0.695, 0.719, 1021.968, 1742.333)" fill="#ffc449"/></g></svg>