<svg xmlns="http://www.w3.org/2000/svg" xmlns:xlink="http://www.w3.org/1999/xlink" width="350" height="200" viewBox="0 0 350 200"><defs><clipPath id="a"><rect width="350" height="200" transform="translate(133 1671)" fill="#f7f3e5"/></clipPath></defs><g transform="translate(-133 -1671)"><rect width="350" height="200" transform="translate(133 1671)" fill="#f7f3e5"/><g clip-path="url(#a)"><path d="M168.452,50.567,156.923,62.22l10.111,12.892-15.511,5.441L155.8,96.4l-16.456-.194-.632,16.428-15.823-4.543L118.324,123.9l-14.408-7.965-7.805,14.49-12.47-10.742-10.608,12.59-9.911-13.133-13.153,9.9-6.464-15.117-15.3,6.064L26.53,103.66l-16.431.464,4.833-15.654L0,81.708,11.529,70.055,1.418,57.163l15.511-5.441L12.656,35.873l16.456.194.632-16.429,15.822,4.543L50.128,8.373l14.408,7.965,7.805-14.49L84.81,12.59,95.418,0l9.911,13.133,13.153-9.9,6.464,15.117,15.3-6.064,1.676,16.329,16.431-.464-4.833,15.655Z" transform="translate(115.984 1677.044) rotate(-6)" fill="#eb6d4e"/><g transform="translate(175.955 1720.791)"><g transform="translate(114.522 0)"><path d="M4.793,0h0A4.795,4.795,0,0,1,9.587,4.795v3.8A4.792,4.792,0,0,1,4.8,13.384h0A4.793,4.793,0,0,1,0,8.591v-3.8A4.793,4.793,0,0,1,4.793,0Z" transform="translate(0.604 39.766)"/><path d="M3858.236,4465.024c0,.8-32.028,1.448-71.537,1.448s-71.536-.647-71.536-1.448,32.028-1.454,71.536-1.454S3858.236,4464.22,3858.236,4465.024Z" transform="translate(-3713.034 -4348.894)" fill="#9e9e9f"/><path d="M3972.378,4217.338h-32.5a7.587,7.587,0,0,1,7.588,7.587v51.245h32.5v-51.245A7.588,7.588,0,0,0,3972.378,4217.338Z" transform="translate(-3833.092 -4217.338)" fill="#397156"/><path d="M3771.383,4276.171v-51.245a7.589,7.589,0,0,1,7.589-7.587h70.882a7.588,7.588,0,0,1,7.588,7.587v51.245Z" transform="translate(-3743.072 -4217.338)" fill="#47856b"/><rect width="32.79" height="20.133" rx="10.067" transform="translate(54.436 19.349)" fill="#fff" opacity="0.4"/><g transform="translate(37.091 14.617)"><path d="M3859.029,4285.61H3793l-.372-.38v-25.2a10.4,10.4,0,0,1,10.279-10.49h46.217a10.4,10.4,0,0,1,10.279,10.49v25.182Zm-64.152-2.009h62.281l.279-.285v-23.289a8.408,8.408,0,0,0-8.311-8.483h-46.217a8.408,8.408,0,0,0-8.312,8.483V4283.3Z" transform="translate(-3791.514 -4249.16)" fill="#b4b4b5"/><path d="M3856.634,4284.8h-66.028l-.372-.38v-25.2a10.4,10.4,0,0,1,10.28-10.489h46.216a10.4,10.4,0,0,1,10.281,10.489V4284.4Zm-64.152-2.01h62.281l.28-.284v-23.29a8.408,8.408,0,0,0-8.313-8.481h-46.216a8.409,8.409,0,0,0-8.312,8.481v23.27Z" transform="translate(-3790.234 -4248.725)" fill="#eeeeef"/><g transform="translate(21.733 2.015)"><rect width="0.619" height="32.118" transform="translate(1.156)" fill="#7a7a7a"/><rect width="1.153" height="32.118" fill="#ccc"/></g><g transform="translate(42.728 2.015)"><rect width="0.619" height="32.118" transform="translate(1.156)" fill="#7a7a7a"/><rect width="1.152" height="32.118" fill="#ccc"/></g></g><path d="M3825.371,4283.424H3720.609l14.885-36.18s2.47-4.759,9.146-4.759h69.731a7.224,7.224,0,0,1,6.431,5.546C3821.513,4251.026,3825.371,4283.424,3825.371,4283.424Zm-12.4-29.153a3.794,3.794,0,0,0-3.794-3.794h-44.784a3.794,3.794,0,0,0-3.795,3.794v17.74a3.793,3.793,0,0,0,3.795,3.793h44.784a3.793,3.793,0,0,0,3.794-3.793Zm-63.046-5.541H3741.1a4.353,4.353,0,0,0-4.194,2.448c-.781,1.57-10.575,26.778-11.835,29.371s.282,2.656.748,2.656,16.994.059,19.2.059,2.279-1.131,2.318-1.821,3.582-28.7,3.844-30.563S3750.472,4248.73,3749.926,4248.73Z" transform="translate(-3715.944 -4230.773)" fill="#3e3a39"/><path d="M3754.486,4255.894h-8.826a4.355,4.355,0,0,0-4.194,2.448c-.78,1.569-10.575,26.778-11.835,29.371s.281,2.657.748,2.657,17,.058,19.2.058,2.279-1.131,2.318-1.821,3.582-28.7,3.844-30.563S3755.032,4255.894,3754.486,4255.894Z" transform="translate(-3720.505 -4237.938)" fill="#fff" opacity="0.2"/><g transform="translate(40.845 31.912)"><path d="M3825.234,4294.321a2.437,2.437,0,0,1-2.4,2.276h-12.018a2.131,2.131,0,0,1-2.15-2.276l1.1-6.187a2.436,2.436,0,0,1,2.4-2.276h10.5a2.13,2.13,0,0,1,2.15,2.276Z" transform="translate(-3803.832 -4285.859)" fill="#1a1a1a"/><path d="M3810.91,4313.756a3.45,3.45,0,0,1,3.223,2.23h8.283l.206-1.4a2.791,2.791,0,0,0-2.437-2.883H3800.95a2.9,2.9,0,0,0-2.656,2.053Z" transform="translate(-3798.294 -4299.667)" fill="#1a1a1a"/></g><g transform="translate(73.822 31.912)"><path d="M3897.032,4294.321a2.438,2.438,0,0,1-2.4,2.276h-12.02a2.131,2.131,0,0,1-2.15-2.276l1.1-6.187a2.436,2.436,0,0,1,2.4-2.276h10.5a2.129,2.129,0,0,1,2.149,2.276Z" transform="translate(-3875.168 -4285.859)" fill="#1a1a1a"/><path d="M3891.455,4311.7h-19.237a2.9,2.9,0,0,0-2.721,2.276l-.4,2.007h12.26c-.044.846-.073,1.407-.083,1.582a2.022,2.022,0,0,1-1.2,1.823h13.107l.706-4.805A2.789,2.789,0,0,0,3891.455,4311.7Z" transform="translate(-3869.102 -4299.667)" fill="#1a1a1a"/></g><path d="M3917.63,4246.394s-.99-3.909-4.987-3.909h-4.451a6.266,6.266,0,0,0-5.8,5.546c-.365,3-1.4,34.041-1.4,34.041l-.155,1.979v23.583h10.407a.834.834,0,0,1,.871.81,4.029,4.029,0,0,1,1.371-.263c1.652,0,2.947,1.357,3.915,3.4h5.453v-28.158Zm2.256,34.533a1.974,1.974,0,0,1-1.653.717,22.729,22.729,0,0,0-8.8,1.614,7.83,7.83,0,0,1-2.563.663h-1.449a2.757,2.757,0,0,1-2.078-.743,3.02,3.02,0,0,1-.678-2.324c.076-1.676.209-4.947.362-8.743.369-9.063.826-20.343.964-21.485.284-2.327,2.589-3.157,3.768-3.271l5.858,0a2.449,2.449,0,0,1,2.436,2.12l4.193,29.056A3.073,3.073,0,0,1,3919.885,4280.926Z" transform="translate(-3812.236 -4230.773)" fill="#b4b4b5"/><path d="M3922.329,4284.11l-4.193-29.057a2.45,2.45,0,0,0-2.436-2.12l-5.858,0c-1.178.114-3.483.944-3.768,3.271-.138,1.142-.594,12.422-.963,21.485-.154,3.795-.287,7.067-.363,8.743a3.024,3.024,0,0,0,.678,2.325,2.762,2.762,0,0,0,2.079.743h1.448a7.833,7.833,0,0,0,2.564-.663,22.74,22.74,0,0,1,8.8-1.613,1.973,1.973,0,0,0,1.653-.718A3.073,3.073,0,0,0,3922.329,4284.11Zm-1.148,1.783a1.025,1.025,0,0,1-.863.329,23.99,23.99,0,0,0-9.147,1.674,7.21,7.21,0,0,1-2.217.6h-1.448a1.824,1.824,0,0,1-1.353-.432,2.141,2.141,0,0,1-.4-1.585c.076-1.679.208-4.951.363-8.749.348-8.567.824-20.3.959-21.4.255-2.106,2.759-2.383,2.816-2.392h5.811a1.461,1.461,0,0,1,1.444,1.262l4.2,29.1A2.2,2.2,0,0,1,3921.181,4285.893Z" transform="translate(-3814.322 -4236.355)" fill="#231815"/><path d="M3918.3,4256.35a1.461,1.461,0,0,0-1.444-1.261h-5.811c-.057.009-2.561.286-2.817,2.392-.135,1.1-.61,12.835-.958,21.4-.155,3.8-.286,7.07-.362,8.75a2.132,2.132,0,0,0,.4,1.584,1.822,1.822,0,0,0,1.352.432h1.449a7.246,7.246,0,0,0,2.217-.6,23.963,23.963,0,0,1,9.148-1.675,1.026,1.026,0,0,0,.863-.329,2.2,2.2,0,0,0,.165-1.589Z" transform="translate(-3815.474 -4237.507)" fill="#fff" opacity="0.2"/><g transform="translate(90.421 16.578)"><path d="M3908.954,4289.5h-1.448a2.762,2.762,0,0,1-2.079-.743,3.024,3.024,0,0,1-.678-2.325c.076-1.676.209-4.948.363-8.743.369-9.063.825-20.344.963-21.485.284-2.327,2.589-3.157,3.768-3.271l5.858,0a2.45,2.45,0,0,1,2.436,2.12l4.193,29.057a3.073,3.073,0,0,1-.358,2.4,1.973,1.973,0,0,1-1.653.718,22.74,22.74,0,0,0-8.8,1.613A7.833,7.833,0,0,1,3908.954,4289.5Zm.936-35.565c-.057.009-2.561.286-2.816,2.392-.135,1.1-.611,12.835-.959,21.4-.155,3.8-.286,7.07-.363,8.749a2.141,2.141,0,0,0,.4,1.585,1.824,1.824,0,0,0,1.353.432h1.448a7.21,7.21,0,0,0,2.217-.6,23.99,23.99,0,0,1,9.147-1.674,1.025,1.025,0,0,0,.863-.329,2.2,2.2,0,0,0,.165-1.59l-4.2-29.1a1.461,1.461,0,0,0-1.444-1.262Z" transform="translate(-3904.742 -4252.933)" fill="#231815"/></g><g transform="translate(29.026 41.597)"><path d="M3774.984,4311.059a6.611,6.611,0,0,1,5.5-2.73,8.987,8.987,0,0,1,6.283,2.73h2.067a11.1,11.1,0,0,0-8.588-4.4,7.956,7.956,0,0,0-7.333,4.4Z" transform="translate(-3772.917 -4306.655)"/></g><g transform="translate(7.76 46.001)"><path d="M3727.355,4321.507c.229.4.857.62,1.768.62h73.128c2.064,0,3.154-.74,3.242-2.2.009-.173.039-.735.084-1.582h-29.4a3.45,3.45,0,0,0-3.223-2.229h-35.913a8.242,8.242,0,0,0-4.876,2.229h-3.791c-.406.953-.678,1.561-.8,1.757A1.468,1.468,0,0,0,3727.355,4321.507Z" transform="translate(-3727.254 -4316.112)" fill="#1a1a1a"/></g><path d="M2.039,0H14.211a2.038,2.038,0,0,1,2.038,2.038v.877a2.038,2.038,0,0,1-2.038,2.038H2.036A2.036,2.036,0,0,1,0,2.917V2.039A2.039,2.039,0,0,1,2.039,0Z" transform="translate(41.775 19.099)" fill="#1a1a1a"/><path d="M3984.132,4397.6c-3.01,0-5.449,7.273-5.449,16.248s2.439,16.249,5.449,16.249h7.195c-3.01,0-5.449-7.276-5.449-16.249s2.439-16.248,5.449-16.248Z" transform="translate(-3853.826 -4313.649)" fill="#231815"/><path d="M1.009,0H32.953a1.008,1.008,0,0,1,1.008,1.008v0a1.008,1.008,0,0,1-1.008,1.008H1.006A1.006,1.006,0,0,1,0,1.009v0A1.009,1.009,0,0,1,1.009,0Z" transform="translate(111.906 58.832)" fill="#bebfbf"/><path d="M3948.114,4345.679h1.869a.569.569,0,0,1-.568-.57v-.878a.567.567,0,0,1,.568-.567h-1.869Z" transform="translate(-3837.494 -4284.831)" fill="#888"/><path d="M1.1,0H32.863a1.1,1.1,0,0,1,1.1,1.1v0a1.1,1.1,0,0,1-1.1,1.1H1.1A1.1,1.1,0,0,1,0,1.1V1.1A1.1,1.1,0,0,1,1.1,0Z" transform="translate(111.906 78.643)" fill="#9e9e9f"/><path d="M4001.715,4390.911h-3.766c-1.1,0-2.017.978-2.76,2.374.012.023.023.049.034.071.113.216.223.438.329.672h4.594c2.224,0,4.137,3.98,4.984,9.683h.955s.667.02.667-1.012C4006.751,4400.907,4004.934,4390.911,4001.715,4390.911Z" transform="translate(-3862.645 -4310.074)" fill="#383231"/><path d="M4005.028,4413.85c0,8.973-2.44,16.249-5.447,16.249s-5.45-7.276-5.45-16.249,2.44-16.248,5.45-16.248S4005.028,4404.875,4005.028,4413.85Z" transform="translate(-3862.079 -4313.649)" fill="#595757"/><path d="M4006.2,4420.776c0,5.638-1.39,10.208-3.1,10.208s-3.1-4.57-3.1-10.208,1.389-10.21,3.1-10.21S4006.2,4415.139,4006.2,4420.776Z" transform="translate(-3865.21 -4320.575)" fill="#eeeeef"/><path d="M3759.251,4440.763c.58,7.113,2.729,12.4,5.292,12.4s4.714-5.284,5.293-12.4Z" transform="translate(-3736.59 -4336.709)" fill="#231815"/><path d="M3751,4440.763H3743.8c.58,7.113,2.727,12.4,5.292,12.4h7.194C3753.728,4453.16,3751.578,4447.876,3751,4440.763Z" transform="translate(-3728.337 -4336.709)" fill="#3e3a39"/><path d="M3838.7,4440.763c.579,7.113,2.729,12.4,5.292,12.4s4.711-5.284,5.293-12.4Z" transform="translate(-3779.039 -4336.709)" fill="#231815"/><path d="M3830.447,4440.763h-7.2c.583,7.113,2.731,12.4,5.3,12.4h7.194C3833.176,4453.16,3831.027,4447.876,3830.447,4440.763Z" transform="translate(-3770.783 -4336.709)" fill="#3e3a39"/><path d="M3925.5,4413.85c0,8.973-2.438,16.249-5.447,16.249s-5.448-7.276-5.448-16.249,2.439-16.248,5.448-16.248S3925.5,4404.875,3925.5,4413.85Z" transform="translate(-3819.593 -4313.649)" fill="#595757"/><path d="M3926.676,4420.776c0,5.638-1.39,10.208-3.105,10.208s-3.1-4.57-3.1-10.208,1.391-10.21,3.1-10.21S3926.676,4415.139,3926.676,4420.776Z" transform="translate(-3822.722 -4320.575)" fill="#eeeeef"/><path d="M3940.886,4406.34c0-8.974,2.44-16.248,5.449-16.248h-4.6c-.115-.256-.231-.509-.354-.744-.125.237-.244.485-.361.744h0q-.128.289-.25.589a29.36,29.36,0,0,0-1.809,8.083,1,1,0,0,1-1.056,1.011h-7.419s-.666.021-.666-1.011a30.277,30.277,0,0,1,1.844-8.083c.817-2.067,1.89-3.706,3.192-3.706l-20.851-.028c-.968-2.043-2.262-3.37-3.915-3.4-3.464-.066-4.745,4.81-5.749,9.982-.726,3.652-1.316,7.45-2.425,9.76a14.131,14.131,0,0,1-5.172,5.887.14.14,0,0,1,0,.02,10.393,10.393,0,0,1-2.27,1.118,12.937,12.937,0,0,0,2.474,1.211c.725,6.425,2.758,11.064,5.159,11.064h7.194c-2.257,0-4.2-4.1-5.021-9.933h0a45.467,45.467,0,0,1-.427-6.315c0-8.974,2.439-16.248,5.448-16.248,1.291,0,2.476,1.341,3.409,3.579h0a19.949,19.949,0,0,1,.84,2.506c0,.007,0,.016.006.021.122.449.233.919.337,1.405.005.021.01.043.015.065q.156.735.285,1.521a.15.15,0,0,0,0,.016q.13.8.231,1.641c0,.017,0,.036.007.054.063.535.117,1.085.162,1.646,0,.05.008.1.013.153.04.542.073,1.1.1,1.658,0,.051,0,.1,0,.148q.035.9.036,1.834,0,.757-.025,1.495c-.006.2-.017.4-.024.6-.017.35-.03.7-.053,1.04.075-.105.142-.223.211-.336h12.8a2.294,2.294,0,0,0,2.286-1.84h3.762c.167,8.524,2.538,15.286,5.438,15.286h7.194C3943.325,4422.589,3940.886,4415.312,3940.886,4406.34Z" transform="translate(-3808.834 -4306.139)" fill="#231815"/><path d="M3925.5,4413.85c0,8.973-2.438,16.249-5.447,16.249s-5.448-7.276-5.448-16.249,2.439-16.248,5.448-16.248S3925.5,4404.875,3925.5,4413.85Z" transform="translate(-3819.593 -4313.649)" fill="#595757"/><path d="M3926.676,4420.776c0,5.638-1.39,10.208-3.105,10.208s-3.1-4.57-3.1-10.208,1.391-10.21,3.1-10.21S3926.676,4415.139,3926.676,4420.776Z" transform="translate(-3822.722 -4320.575)" fill="#eeeeef"/><path d="M4006.521,4428.977c0,1.691-.418,3.061-.933,3.061s-.93-1.37-.93-3.061.417-3.062.93-3.062S4006.521,4427.284,4006.521,4428.977Z" transform="translate(-3867.704 -4328.775)" fill="#595757"/><path d="M3926.994,4428.977c0,1.691-.417,3.061-.93,3.061s-.932-1.37-.932-3.061.418-3.062.932-3.062S3926.994,4427.284,3926.994,4428.977Z" transform="translate(-3825.215 -4328.775)" fill="#595757"/><path d="M4003.423,4431.234c-1.831,0-2.818-4.379-2.818-8.5s.988-8.5,2.818-8.5,2.818,4.381,2.818,8.5S4005.255,4431.234,4003.423,4431.234Zm0-16.333c-1.014,0-2.149,3.35-2.149,7.834s1.135,7.832,2.149,7.832,2.149-3.351,2.149-7.832S4004.438,4414.9,4003.423,4414.9Z" transform="translate(-3865.539 -4322.533)" fill="#231815"/><path d="M3923.9,4431.234c-1.831,0-2.818-4.379-2.818-8.5s.988-8.5,2.818-8.5,2.819,4.381,2.819,8.5S3925.73,4431.234,3923.9,4431.234Zm0-16.333c-.9,0-2.15,2.979-2.15,7.834s1.252,7.832,2.15,7.832,2.149-2.98,2.149-7.832S3924.8,4414.9,3923.9,4414.9Z" transform="translate(-3823.051 -4322.533)" fill="#231815"/><path d="M3887.462,4393.127s-1.783,22.186-3.568,22.186h5.228a13.762,13.762,0,0,0,7.139-6.9c1.706-3.555,2.184-10.636,3.807-15.281Z" transform="translate(-3803.183 -4311.258)" fill="#1a1a1a"/><path d="M3906.286,4382.372h-10.714l-4.017,5.009h12.606c.713-2.042,1.616-3.609,3-4.2A.834.834,0,0,0,3906.286,4382.372Z" transform="translate(-3807.276 -4305.511)" fill="#262626"/><path d="M3710.593,4393.127s-.04,22.186,6.653,22.186H3791.3c1.787,0,3.57-22.186,3.57-22.186Z" transform="translate(-3710.593 -4311.258)" fill="#333"/><path d="M3710.593,4387.379l2.416-5.009h85.879l-4.016,5.009Z" transform="translate(-3710.593 -4305.51)" fill="#4d4d4d"/><path d="M3902.652,4350.512h-1.813v4.52h2.567v-3.273S3903.348,4350.512,3902.652,4350.512Z" transform="translate(-3812.236 -4288.49)" fill="#ec6c00"/><rect width="2.566" height="10.314" transform="translate(88.603 66.546)" fill="#dbdcdc"/><path d="M3740.531,4242.484c-7.808,0-9.618,4.759-9.618,4.759s-14.031,33.561-14.613,34.828a8.631,8.631,0,0,0-.351,3.535l-.167,7.189h10.955c3.934,0,3.946,4.52,3.946,4.52v10.318h71.286v-23.583l.154-1.979s1.034-31.046,1.4-34.041a6.267,6.267,0,0,1,5.8-5.546Zm59.834,38.161c-.057.948-.581,3.149-4.243,3.149h-73.128c-1.651,0-2.348-.612-2.64-1.128a2.369,2.369,0,0,1,.234-2.418c.421-.706,3.686-8.784,6.567-15.909,3.61-8.925,5.826-14.384,6.172-14.93l.044-.068c.728-1.15,1.553-2.453,3.469-2.506,1.656-.048,7.836-.072,18.367-.072,10.312,0,24.392.023,41.853.066l1.64.005a3.415,3.415,0,0,1,2.371,1.072,3.026,3.026,0,0,1,.857,2.242C3801.841,4251.886,3800.451,4279.214,3800.365,4280.646Z" transform="translate(-3713.365 -4230.773)" fill="#e2e2e2"/><path d="M3807.054,4256.16a2.013,2.013,0,0,0-.58-1.5,2.415,2.415,0,0,0-1.646-.762l-1.642,0c-17.46-.045-31.54-.067-41.851-.067-10.523,0-16.692.024-18.338.071-1.382.039-1.971.967-2.65,2.04l-.045.069c-.328.527-3.388,8.094-6.087,14.768-3.731,9.226-6.209,15.328-6.637,16.047a1.467,1.467,0,0,0-.224,1.408c.229.4.857.62,1.768.62h73.128c2.064,0,3.154-.74,3.242-2.2C3805.578,4285.215,3806.969,4257.9,3807.054,4256.16Z" transform="translate(-3719.494 -4236.833)" fill="#fff" opacity="0.4"/><path d="M3801.1,4288.7h-73.128c-1.651,0-2.348-.613-2.64-1.128a2.369,2.369,0,0,1,.234-2.418c.421-.706,3.686-8.784,6.567-15.909,3.61-8.925,5.825-14.384,6.172-14.93l.044-.067c.727-1.15,1.553-2.453,3.469-2.507,1.656-.048,7.835-.071,18.366-.071,10.312,0,24.392.022,41.853.066l1.64.005a3.415,3.415,0,0,1,2.371,1.072,3.029,3.029,0,0,1,.857,2.243c-.086,1.736-1.476,29.064-1.562,30.5C3805.283,4286.5,3804.759,4288.7,3801.1,4288.7Zm-40.916-36.028c-10.522,0-16.691.024-18.337.072-1.383.039-1.971.967-2.651,2.041l-.044.068c-.329.528-3.388,8.094-6.087,14.768-3.731,9.227-6.209,15.328-6.637,16.046a1.469,1.469,0,0,0-.223,1.409c.229.4.857.62,1.768.62H3801.1c2.064,0,3.154-.74,3.242-2.2.085-1.432,1.475-28.749,1.561-30.486a2.014,2.014,0,0,0-.58-1.5,2.417,2.417,0,0,0-1.646-.762l-1.642-.005C3784.572,4252.7,3770.492,4252.677,3760.181,4252.677Z" transform="translate(-3718.34 -4235.683)"/><path d="M3726.736,4350.512h-10.955v4.52h14.9S3730.67,4350.512,3726.736,4350.512Z" transform="translate(-3713.365 -4288.49)" fill="#f29600"/><rect width="14.9" height="10.314" transform="translate(2.417 66.546)" fill="#fff"/><path d="M4.793,0h0A4.792,4.792,0,0,1,9.587,4.792v3.8a4.793,4.793,0,0,1-4.793,4.793h0A4.794,4.794,0,0,1,0,8.589v-3.8A4.793,4.793,0,0,1,4.793,0Z" transform="translate(94.118 39.766)"/><path d="M3872.6,4350.512h11.045v4.52h-14.988S3868.668,4350.512,3872.6,4350.512Z" transform="translate(-3795.042 -4288.49)" fill="#f29600"/><rect width="14.988" height="10.314" transform="translate(73.614 66.546)" fill="#fff"/><path d="M3795.178,4401.879a2.277,2.277,0,0,1-2.277,2.275h-73.41a2.275,2.275,0,0,1-2.276-2.275v-.969a2.276,2.276,0,0,1,2.276-2.277h73.41a2.278,2.278,0,0,1,2.277,2.277Z" transform="translate(-3714.131 -4314.199)"/><path d="M2.76,0H8.55a2.76,2.76,0,0,1,2.76,2.76v0a2.76,2.76,0,0,1-2.76,2.76H2.76A2.76,2.76,0,0,1,0,2.76v0A2.76,2.76,0,0,1,2.76,0Z" transform="translate(3.084 84.434)" fill="#c8c9ca"/><path d="M2.76,0H8.549a2.76,2.76,0,0,1,2.76,2.76v0A2.761,2.761,0,0,1,8.548,5.521H2.76A2.76,2.76,0,0,1,0,2.76v0A2.76,2.76,0,0,1,2.76,0Z" transform="translate(69.87 84.434)" fill="#c8c9ca"/><path d="M1.223,0h28.81a1.222,1.222,0,0,1,1.222,1.222V7.174A1.222,1.222,0,0,1,30.032,8.4H1.223A1.223,1.223,0,0,1,0,7.173V1.223A1.223,1.223,0,0,1,1.223,0Z" transform="translate(25.808 87.855)" fill="#d9d9d9"/><path d="M3935.193,4341.577a.568.568,0,0,0,.568.57h2.656a.568.568,0,0,0,.567-.57v-1.708a.568.568,0,0,0-.567-.569h-2.656a.569.569,0,0,0-.568.569Z" transform="translate(-3830.591 -4282.499)" fill="#262626"/><rect width="34.303" height="17.798" transform="translate(110.626 60.853)" fill="#b4b4b5"/><path d="M3949.863,4370.742a.56.56,0,0,1-.448-.544v-1.06a.567.567,0,0,1,.568-.57h-1.1v-15.372h-.759v15.372h-.005v2.173Z" transform="translate(-3837.494 -4289.923)" fill="#888"/><rect width="6.86" height="12.046" transform="translate(111.233 91.293)" fill="#c8c9ca"/><g transform="translate(120.982 80.837)"><path d="M3970.364,4406.95c0,1.032.666,1.012.666,1.012h7.418a1,1,0,0,0,1.056-1.012,29.367,29.367,0,0,1,1.809-8.082h-9.106A30.289,30.289,0,0,0,3970.364,4406.95Z" transform="translate(-3970.364 -4395.163)" fill="#b3b3b3"/><path d="M3986.8,4390.911h-9.286c-1.3,0-2.376,1.639-3.193,3.707h9.106C3984.255,4392.551,3985.375,4390.911,3986.8,4390.911Z" transform="translate(-3972.478 -4390.911)" fill="#717071"/></g><rect width="34.303" height="2.419" transform="translate(110.626 60.853)" fill="#9e9e9f"/><g transform="translate(116.404 4.236)"><path d="M3983.373,4226.443s1.76,2.661,3.29,2.661c1.851,0,3.417-2.866,3.417-2.661,0,.251-1.319,3.8-3.417,3.8S3983.336,4226.824,3983.373,4226.443Z" transform="translate(-3972.736 -4226.433)" fill="#47856b"/><path d="M4006.1,4226.443s1.758,2.661,3.289,2.661c1.851,0,3.416-2.866,3.416-2.661,0,.251-1.316,3.8-3.416,3.8S4006.064,4226.824,4006.1,4226.443Z" transform="translate(-3984.879 -4226.433)" fill="#47856b"/><path d="M3960.534,4226.443s1.76,2.661,3.289,2.661c1.851,0,3.418-2.866,3.418-2.661,0,.251-1.319,3.8-3.418,3.8S3960.5,4226.824,3960.534,4226.443Z" transform="translate(-3960.534 -4226.433)" fill="#47856b"/></g><g transform="translate(116.405 3.983)"><path d="M3983.374,4226.029c0-.6,1.76,1.377,3.289,1.377,1.852,0,3.417-2.06,3.417-1.377a4.044,4.044,0,0,1-3.417,2.616C3984.564,4228.646,3983.374,4226.17,3983.374,4226.029Z" transform="translate(-3972.738 -4225.891)" fill="#27654d"/><path d="M4006.1,4226.029c0-.6,1.757,1.377,3.288,1.377,1.852,0,3.417-2.06,3.417-1.377a4.041,4.041,0,0,1-3.417,2.616C4007.292,4228.646,4006.1,4226.17,4006.1,4226.029Z" transform="translate(-3984.881 -4225.891)" fill="#27654d"/><path d="M3960.536,4226.029c0-.6,1.759,1.377,3.289,1.377,1.851,0,3.418-2.06,3.418-1.377a4.046,4.046,0,0,1-3.418,2.616C3961.725,4228.646,3960.536,4226.17,3960.536,4226.029Z" transform="translate(-3960.536 -4225.891)" fill="#27654d"/></g><g transform="translate(127.81 53.922)"><path d="M3990.525,4337.231c0-.258-.365.6-.789,1.286-.522.838-.761.709-.764.967s.41.113.836-.51A4.462,4.462,0,0,0,3990.525,4337.231Z" transform="translate(-3987.133 -4335.291)" fill="#47856b"/><path d="M3990.323,4333.155c0-.243-.4.779-.786,1.889a10.389,10.389,0,0,0-.651,1.887c.012.265.416-.327.81-1.383A10.362,10.362,0,0,0,3990.323,4333.155Z" transform="translate(-3987.087 -4333.119)" fill="#27654d"/><path d="M3985.024,4337.231c0-.258.365.6.79,1.286.523.838.761.709.762.967s-.408.113-.836-.51A4.5,4.5,0,0,1,3985.024,4337.231Z" transform="translate(-3985.024 -4335.291)" fill="#47856b"/><path d="M3985.356,4333.155c.006-.243.4.779.788,1.889a10.266,10.266,0,0,1,.651,1.887c-.012.265-.416-.327-.812-1.383A10.513,10.513,0,0,1,3985.356,4333.155Z" transform="translate(-3985.201 -4333.119)" fill="#27654d"/></g><g transform="translate(141.061 53.922)"><path d="M4018.978,4337.231c0-.258-.365.6-.791,1.286-.521.838-.761.709-.762.967s.408.113.838-.51A4.53,4.53,0,0,0,4018.978,4337.231Z" transform="translate(-4015.586 -4335.291)" fill="#47856b"/><path d="M4018.777,4333.155c0-.243-.4.779-.787,1.889a10.145,10.145,0,0,0-.65,1.887c.012.265.416-.327.81-1.383A10.519,10.519,0,0,0,4018.777,4333.155Z" transform="translate(-4015.541 -4333.119)" fill="#27654d"/><path d="M4013.477,4337.231c0-.258.365.6.79,1.286.521.838.759.709.762.967s-.408.113-.838-.51A4.493,4.493,0,0,1,4013.477,4337.231Z" transform="translate(-4013.477 -4335.291)" fill="#47856b"/><path d="M4013.809,4333.155c.005-.243.4.779.786,1.889a10.28,10.28,0,0,1,.651,1.887c-.011.265-.416-.327-.811-1.383A10.516,10.516,0,0,1,4013.809,4333.155Z" transform="translate(-4013.655 -4333.119)" fill="#27654d"/></g><g transform="translate(116.204 53.922)"><path d="M3965.6,4337.231c0-.258-.365.6-.789,1.286-.522.838-.761.709-.764.967s.409.113.837-.51A4.48,4.48,0,0,0,3965.6,4337.231Z" transform="translate(-3962.213 -4335.291)" fill="#47856b"/><path d="M3965.4,4333.155c-.007-.243-.4.779-.786,1.889a10.2,10.2,0,0,0-.653,1.887c.012.265.417-.327.811-1.383A10.453,10.453,0,0,0,3965.4,4333.155Z" transform="translate(-3962.167 -4333.119)" fill="#27654d"/><path d="M3960.1,4337.231c0-.258.365.6.79,1.286.523.838.76.709.762.967s-.407.113-.836-.51A4.494,4.494,0,0,1,3960.1,4337.231Z" transform="translate(-3960.104 -4335.291)" fill="#47856b"/><path d="M3960.437,4333.155c.006-.243.4.779.786,1.889a10.2,10.2,0,0,1,.651,1.887c-.011.265-.415-.327-.811-1.383A10.489,10.489,0,0,1,3960.437,4333.155Z" transform="translate(-3960.282 -4333.119)" fill="#27654d"/></g><path d="M3961.2,4365.819h-.011a.2.2,0,0,1-.191-.208l1.074-22.309a.2.2,0,0,1,.2-.19h.01a.2.2,0,0,1,.19.212l-1.073,22.306A.2.2,0,0,1,3961.2,4365.819Z" transform="translate(-3844.38 -4284.536)" fill="#717071"/><path d="M3989.708,4365.819a.2.2,0,0,1-.2-.19l-1.008-22.307a.2.2,0,0,1,.191-.21.2.2,0,0,1,.21.192l1.007,22.308a.2.2,0,0,1-.19.207Z" transform="translate(-3859.071 -4284.536)" fill="#717071"/><path d="M4015.049,4365.819h-.011a.2.2,0,0,1-.191-.207l1.071-22.31a.192.192,0,0,1,.213-.19.2.2,0,0,1,.189.21l-1.072,22.308A.2.2,0,0,1,4015.049,4365.819Z" transform="translate(-3873.148 -4284.536)" fill="#717071"/></g><g transform="translate(30 35.773)"><path d="M3573.082,4465.325c0,.8-23.977,1.444-53.551,1.444s-53.551-.646-53.551-1.444,23.976-1.444,53.551-1.444S3573.082,4464.529,3573.082,4465.325Z" transform="translate(-3465.381 -4369.833)" fill="#b4b4b5"/><g transform="translate(73.965 88.197)"><path d="M3634.273,4463.932s-4.977.228-6.2.226-3.824.031-4.217-.361a2.167,2.167,0,0,1-.244-.3,2.165,2.165,0,0,0,.592,1.123c.393.392,2.651.359,3.869.362s6.2-.228,6.2-.228,2.745-.3,2.886-1.108a4.673,4.673,0,0,0,.059-.733C3636.749,4463.606,3634.273,4463.932,3634.273,4463.932Z" transform="translate(-3623.567 -4457.512)" fill="#dbdcdc"/><path d="M3630.1,4452.142a5.742,5.742,0,0,1-2.879,1.669c-2.33.79-2.828.992-3.449,2.09a1.836,1.836,0,0,0-.213,1.4,2.055,2.055,0,0,0,.244.3c.393.393,3,.359,4.217.361s6.2-.226,6.2-.226,2.475-.326,2.945-1.021a23.821,23.821,0,0,0-.872-5.4C3635.04,4452.307,3631.97,4452.536,3630.1,4452.142Z" transform="translate(-3623.509 -4451.318)" fill="#f5f6f7"/></g><g transform="translate(78.659 91.212)"><path d="M3634.3,4460.211l-.716.465a3.551,3.551,0,0,1,.852,2.019c.258-.007.543-.017.842-.027A3.94,3.94,0,0,0,3634.3,4460.211Z" transform="translate(-3633.589 -4459.083)" fill="#00254d"/><path d="M3636.434,4458.607a7.173,7.173,0,0,1,1.189,2.736c.584-.021,1.175-.046,1.706-.069a7.636,7.636,0,0,0-1.371-3.483Z" transform="translate(-3635.109 -4457.791)" fill="#00254d"/></g><g transform="translate(97.532 81.768)"><path d="M3682.365,4440.325c-.128-.126-.249-.238-.37-.348a5.854,5.854,0,0,1,.042,3.222,51.971,51.971,0,0,1-1.68,5.436c-.552,1.1-1.575,3.03-2.109,3.195a2.246,2.246,0,0,1-1.867-.151,2.069,2.069,0,0,0,2.344.568,7.718,7.718,0,0,0,2.295-2.841,51.891,51.891,0,0,0,1.681-5.437S3683.386,4441.344,3682.365,4440.325Z" transform="translate(-3675.323 -4438.83)" fill="#dbdcdc"/><path d="M3680.783,4438.661a6.811,6.811,0,0,0-1.649-1.147c-.292,1.66-2.043,4.989-5.022,4.759a7.787,7.787,0,0,1,.559,3.167c-.176,2.5-.3,3.738.422,4.829.022.032.05.064.074.094a2.241,2.241,0,0,0,1.867.15c.534-.164,1.558-2.1,2.11-3.193a52.129,52.129,0,0,0,1.68-5.437A5.854,5.854,0,0,0,3680.783,4438.661Z" transform="translate(-3674.112 -4437.513)" fill="#f5f6f7"/></g><g transform="translate(72.719 45.539)"><path d="M3629.963,4378.527c-.355-4.275-.338-9.362-.786-11.707-.167-.872-.375-.212-.417-1.916a42.5,42.5,0,0,0,6.917-.494c6.736-1.349,7.184-3.513,7.184-3.513s.042.185.084.45a5.078,5.078,0,0,0-.415-1.624c-1.217,3.7-8.575,4.091-12.507,4.012-3.556-.07-5.3-.877-6.559-2.315a162.274,162.274,0,0,0-2.627,19.576c-.118,5.191,6.144,21.1,6.391,21.506.834,1.34,7.6,1.242,8.152-.847.486-1.835-4.954-14.954-5.131-17.274C3630.1,4382.454,3629.927,4380.208,3629.963,4378.527Z" transform="translate(-3620.836 -4359.724)" fill="#ccc6ac"/></g><path d="M3650.048,4385.238c-1.271-1.093,0-6.271.66-11.487.428-3.4,1.231-6.28,1.424-9.783a7.582,7.582,0,0,0-.179-1.724s-.448,2.164-7.184,3.513a42.513,42.513,0,0,1-6.917.494c.042,1.7.25,1.044.417,1.916.579,3.033.379,10.66,1.217,15.175.565,3.047,3.323,8.085,8.022,12.724,2.708,2.676,5.838,5.839,7.09,5.982,3.831.439,5.69-5,5.1-5.6C3658.243,4394.944,3653.252,4387.987,3650.048,4385.238Z" transform="translate(-3557.207 -4315.531)" fill="#e2dcc3"/><path d="M3621.846,4323.489c-1.453-9.456-2.219-15.97-6.255-23.8a4.716,4.716,0,0,0-.911-1.172,5.739,5.739,0,0,0-3.229-2.1,14.372,14.372,0,0,0-2.65-.914,11.048,11.048,0,0,0-2.108-.25,3.543,3.543,0,0,1-.582,1.723,8.523,8.523,0,0,1-2.637,1.664,3.125,3.125,0,0,1-1.65-2.265,5.781,5.781,0,0,1-1.539-.132c-.177-.039-.346-.091-.515-.143a10.692,10.692,0,0,0-3.575,2.1,7.023,7.023,0,0,0-2.177,3.344c-1.371,5.644-1.263,7.707-2.067,9.386-.922,1.913-6.032,5.088-10.053,6.894l1.892-.113c1.167.148,2.723.989,2.572,2.156l-.057,1.348a2.012,2.012,0,0,1-.468,1c3.767-1.71,9.654-4.324,11.011-7.141a17.474,17.474,0,0,0,.69-1.694c.488,1.35.843,2.6,1.149,3.783-.594.33-1.132.621-1.576.855,1.172.13,2.737.936,2.61,2.106l-.035,1.35a2.8,2.8,0,0,1-2.807,2.14l-1.1-.068a5.018,5.018,0,0,0,4.165-.3c.072-.04.227-.114.436-.212a16.059,16.059,0,0,0,.872,1.842c1.531,2.752,2.942,4.319,7.971,4.418C3613.712,4329.383,3622.674,4328.864,3621.846,4323.489Z" transform="translate(-3527.313 -4279.74)" fill="#00254d"/><path d="M3629.89,4295.68c-.551-1.209-1.5-1.254-1.471-1.512l-.007.075c-.017.187-.031.391-.059.606,0,.022,0,.044-.008.066-.009.063-.021.125-.032.19-.005.028-.009.055-.015.084-.013.062-.03.126-.047.19-.008.031-.015.063-.024.094-.019.065-.043.13-.068.2-.012.034-.022.067-.035.1-.028.069-.063.141-.1.211-.015.032-.028.063-.044.1a3.575,3.575,0,0,1-.189.317,8.542,8.542,0,0,1-2.637,1.664,3.125,3.125,0,0,1-1.65-2.265,5.837,5.837,0,0,1-.9-.03,7.661,7.661,0,0,0,.111,3.222c.253.851,1.256,4.074,2.194,4.179.362.04,3.527-3.382,4.108-4.388C3629.448,4298.038,3630.266,4296.509,3629.89,4295.68Z" transform="translate(-3548.993 -4279.159)" fill="#00254d"/><path d="M3623.549,4278.787c-.054-1.312-2.814-2.5-4.289-2.622-1.806-.147-3.55.535-5.16.2-1.061-.222-1.456-.932-2.475-1.537a9.157,9.157,0,0,0-.617,1.832c-.883,4,.922,7.835,4.713,8.672a5.847,5.847,0,0,0,1.539.133,3.128,3.128,0,0,0,1.651,2.264,8.529,8.529,0,0,0,2.637-1.665,4.082,4.082,0,0,0,.62-2.163l-.381-1.2a12.318,12.318,0,0,0,1.594-3.305C3623.447,4279.188,3623.5,4278.987,3623.549,4278.787Z" transform="translate(-3542.747 -4268.826)" fill="#fbd6a0"/><path d="M3619.519,4267.27a5.6,5.6,0,0,0-3.984-4.831,7.287,7.287,0,0,0-6.725.7,6.261,6.261,0,0,0-2.533,3.771l-2.371.05c-.676.009-1.215.02-1.456.031l-.3.006.179,0c-1.081.112-.242,1.863.923,2.332a8.384,8.384,0,0,0,2.969.43,5.057,5.057,0,0,1,.7-1.771c.959.594,1.36,1.272,2.392,1.487,1.61.337,3.354-.346,5.16-.2,1.476.118,4.24,1.312,4.29,2.625A10.049,10.049,0,0,0,3619.519,4267.27Z" transform="translate(-3537.962 -4261.941)" fill="#00254d"/><g transform="translate(50.138 37.972)"><g transform="translate(0 3.504)"><path d="M3573.991,4351.087l0-.087a5.983,5.983,0,0,0-1.486,2.31c-.045.126-.1.271-.157.421v4.254c.3-.867.69-1.875,1.021-2.72.218-.557.414-1.06.552-1.441a4.647,4.647,0,0,1,.769-1.356A1.32,1.32,0,0,1,3573.991,4351.087Z" transform="translate(-3572.35 -4351)" fill="#dbdcdc"/></g><path d="M3583.07,4346.979a2.809,2.809,0,0,1-2.849,2.089l-2.242-.183c-1.172-.15-2.274-.647-2.121-1.819l.052-2.017c.152-1.171,1.41-1.6,2.582-1.451l2.063-.124c1.168.148,2.724.989,2.573,2.156Z" transform="translate(-3574.217 -4343.475)" fill="#fbd6a0"/></g><g transform="translate(56.871 38.28)"><path d="M3611.814,4347.593a2.8,2.8,0,0,1-2.807,2.14l-2.246-.14c-1.174-.125-2.285-.605-2.156-1.775l.018-2.019c.128-1.175,1.379-1.63,2.552-1.5l2.058-.161c1.173.128,2.743.935,2.615,2.106Z" transform="translate(-3596.31 -4344.137)" fill="#fbd6a0"/><path d="M3587.559,4348.16a.753.753,0,1,0,0,1.506h7.544l.014-1.506Z" transform="translate(-3586.805 -4346.287)" fill="#dbdcdc"/><g transform="translate(11.353 2.564)"><path d="M3611.919,4412.749h-.737v16.1h1.507V4412.42A1.064,1.064,0,0,1,3611.919,4412.749Z" transform="translate(-3611.182 -4383.184)" fill="#dbdcdc"/><path d="M3614.96,4349.915a.753.753,0,1,0-1.157.964,1.961,1.961,0,0,1,.3,1.721c-.152.448-.4,1.089-.669,1.767-.406,1.032-.864,2.2-1.145,3.125l-.034.114a19.6,19.6,0,0,0-1.074,5.5v5.525h.737a1.064,1.064,0,0,1,.77.33v-5.855a18.12,18.12,0,0,1,1.009-5.067l.035-.116c.262-.865.71-2,1.1-3.012.273-.694.53-1.351.693-1.832A3.451,3.451,0,0,0,3614.96,4349.915Z" transform="translate(-3611.182 -4349.644)" fill="#dbdcdc"/></g></g><path d="M3609.259,4390.423H3606.2V4401h3.055a1.069,1.069,0,0,0,1.068-1.068v-8.439A1.068,1.068,0,0,0,3609.259,4390.423Z" transform="translate(-3540.299 -4330.587)" fill="#69757c"/><g transform="translate(5.22 89.46)"><g transform="translate(1.653 1.892)"><path d="M3480.2,4459.233a3.388,3.388,0,0,1,.385-1.14h-1.128A2.435,2.435,0,0,1,3480.2,4459.233Z" transform="translate(-3479.453 -4458.093)" fill="#23456d"/></g><g transform="translate(2.342 1.403)"><path d="M3486.928,4457.043a8.321,8.321,0,0,1,.251,2.157c0,1.033-.456,1.582-1.017,1.582a.537.537,0,0,1-.075-.012.462.462,0,0,1-.075.012c-.362,0-.636-.32-.862-.747-.245-.468-.446-1.187-.722-1.753a3.964,3.964,0,0,0-.13,1.016c0,1.476.767,2.668,1.714,2.668s1.717-1.192,1.717-2.668A3.206,3.206,0,0,0,3486.928,4457.043Z" transform="translate(-3482.73 -4457.043)" fill="#3e3a39"/><g transform="translate(0 0.488)"><path d="M3482.506,4459.86a3.985,3.985,0,0,1,.127-1.01,1.836,1.836,0,0,0-.575-.757h-.688a3.579,3.579,0,0,0-.44,1.767c0,1.475.77,2.667,1.716,2.667h1.472a.4.4,0,0,0,.05-.007C3483.245,4462.479,3482.506,4461.307,3482.506,4459.86Z" transform="translate(-3480.931 -4458.093)" fill="#231815"/></g></g><path d="M3482.6,4454.03h-2.8a6.084,6.084,0,0,0,1.654,1.892c.633.405.908,1.768,1.293,2.5.226.428.5.746.862.746a.534.534,0,0,0,.075-.011.592.592,0,0,0,.074.011c.561,0,1.018-.547,1.018-1.582,0-2.689-.923-3.56-.923-3.56Z" transform="translate(-3477.985 -4454.03)" fill="#4878b2"/><path d="M3477.556,4455.922a6.065,6.065,0,0,1-1.653-1.892h1.814a6.076,6.076,0,0,0,1.654,1.892Z" transform="translate(-3475.903 -4454.03)" fill="#3e699d"/><path d="M3487.487,4459.613c-.372,0-.677.472-.677,1.055s.306,1.056.677,1.056c.093,0,.888-.009.888-1.056S3487.58,4459.613,3487.487,4459.613Z" transform="translate(-3481.73 -4457.013)" fill="#bebfbf"/></g><g transform="translate(31.312 89.46)"><g transform="translate(2.012)"><path d="M3538.534,4454.03h-2.286l.255,3.56c0,.873.455,1.582,1.017,1.582a.6.6,0,0,0,.073-.011.521.521,0,0,0,.074.011c.562,0,1.017-.708,1.017-1.582v-3.56Z" transform="translate(-3536.248 -4454.03)" fill="#4878b2"/></g><path d="M3534.447,4454.03h-1.569l.12,1.685a1.448,1.448,0,0,1,1.151-.7h.369Z" transform="translate(-3532.435 -4454.03)" fill="#23456d"/><g transform="translate(0 0.988)"><path d="M3538.175,4457.666v1.856c0,.873-.455,1.582-1.017,1.582a.42.42,0,0,1-.074-.012.447.447,0,0,1-.073.012c-.562,0-1.017-.709-1.017-1.582l-.135-1.876a3.464,3.464,0,0,0-.564,1.976c0,1.475.768,2.667,1.716,2.667s1.715-1.192,1.715-2.667A3.478,3.478,0,0,0,3538.175,4457.666Z" transform="translate(-3533.726 -4456.95)" fill="#3e3a39"/><path d="M3533.5,4458.824a3.449,3.449,0,0,1,.561-1.966l-.051-.7h-.368c-.948,0-1.715,1.2-1.715,2.67s.767,2.667,1.715,2.667h1.473a.354.354,0,0,0,.049-.007C3534.241,4461.444,3533.5,4460.27,3533.5,4458.824Z" transform="translate(-3531.927 -4456.153)" fill="#231815"/></g><path d="M3538.482,4459.613c-.373,0-.678.472-.678,1.055s.306,1.056.678,1.056c.094,0,.886-.009.886-1.056S3538.575,4459.613,3538.482,4459.613Z" transform="translate(-3535.067 -4457.013)" fill="#bebfbf"/></g><g transform="translate(37.235 91.352)"><path d="M3545.389,4459.233a3.382,3.382,0,0,1,.385-1.14h-1.128A2.435,2.435,0,0,1,3545.389,4459.233Z" transform="translate(-3544.645 -4458.093)" fill="#23456d"/></g><g transform="translate(37.924 90.864)"><path d="M3552.121,4457.043a8.314,8.314,0,0,1,.251,2.157c0,1.033-.456,1.582-1.017,1.582a.5.5,0,0,1-.074-.012.48.48,0,0,1-.076.012c-.362,0-.636-.32-.861-.747-.245-.468-.447-1.187-.722-1.753a3.953,3.953,0,0,0-.13,1.016c0,1.476.767,2.668,1.713,2.668s1.718-1.192,1.718-2.668A3.209,3.209,0,0,0,3552.121,4457.043Z" transform="translate(-3547.923 -4457.043)" fill="#595757"/><g transform="translate(0 0.488)"><path d="M3547.7,4459.86a3.973,3.973,0,0,1,.128-1.01,1.825,1.825,0,0,0-.574-.757h-.688a3.585,3.585,0,0,0-.439,1.767c0,1.475.769,2.667,1.715,2.667h1.471a.413.413,0,0,0,.051-.007C3548.438,4462.479,3547.7,4461.307,3547.7,4459.86Z" transform="translate(-3546.124 -4458.093)" fill="#231815"/></g></g><path d="M3547.8,4454.03h-2.805a6.075,6.075,0,0,0,1.654,1.892c.632.405.908,1.768,1.294,2.5.225.428.5.746.861.746a.527.527,0,0,0,.076-.011.572.572,0,0,0,.074.011c.562,0,1.017-.547,1.017-1.582,0-2.689-.921-3.56-.921-3.56Z" transform="translate(-3507.595 -4364.57)" fill="#4878b2"/><path d="M3542.748,4455.922a6.069,6.069,0,0,1-1.653-1.892h1.815a6.074,6.074,0,0,0,1.655,1.892Z" transform="translate(-3505.513 -4364.57)" fill="#3e699d"/><path d="M3552.681,4459.613c-.372,0-.678.472-.678,1.055s.306,1.056.678,1.056c.092,0,.888-.009.888-1.056S3552.773,4459.613,3552.681,4459.613Z" transform="translate(-3511.341 -4367.553)" fill="#bebfbf"/><path d="M3497.109,4449.592v-.821a1.07,1.07,0,0,1,1.068-1.068H3465.76a1.069,1.069,0,0,0-1.066,1.068v.821a1.07,1.07,0,0,0,1.066,1.067h32.417A1.07,1.07,0,0,1,3497.109,4449.592Z" transform="translate(-3464.694 -4361.19)" fill="#00447d"/><g transform="translate(32.415 86.513)"><path d="M1.477,0H38.091a1.477,1.477,0,0,1,1.477,1.477v0a1.479,1.479,0,0,1-1.479,1.479H1.479A1.479,1.479,0,0,1,0,1.477v0A1.477,1.477,0,0,1,1.477,0Z" fill="#00579b"/></g><g transform="translate(61.67 89.46)"><path d="M3600.35,4454.03h-2.287l.254,3.56c0,.873.455,1.582,1.017,1.582a.526.526,0,0,0,.073-.011.643.643,0,0,0,.073.011c.564,0,1.02-.708,1.02-1.582v-3.56Z" transform="translate(-3597.62 -4454.03)" fill="#2d527e"/><g transform="translate(0 0.988)"><path d="M3603.906,4458.824c0,1.475-.767,2.667-1.713,2.667s-1.717-1.192-1.717-2.667.77-2.67,1.717-2.67S3603.906,4457.35,3603.906,4458.824Z" transform="translate(-3598.909 -4456.153)" fill="#595757"/><path d="M3598.684,4458.824c0-1.447.741-2.619,1.666-2.661a.463.463,0,0,0-.051-.01h-1.472c-.947,0-1.716,1.2-1.716,2.67s.769,2.667,1.716,2.667h1.472a.365.365,0,0,0,.051-.007C3599.425,4461.444,3598.684,4460.27,3598.684,4458.824Z" transform="translate(-3597.111 -4456.153)" fill="#231815"/></g><path d="M3603.72,4454.03h-2.287l.254,3.56c0,.873.454,1.582,1.016,1.582a.546.546,0,0,0,.073-.011.571.571,0,0,0,.073.011c.562,0,1.017-.708,1.017-1.582v-3.56Z" transform="translate(-3599.42 -4454.03)" fill="#5084c4"/><path d="M3603.669,4459.613c-.377,0-.679.472-.679,1.055s.3,1.056.679,1.056c.091,0,.886-.009.886-1.056S3603.76,4459.613,3603.669,4459.613Z" transform="translate(-3600.252 -4457.013)" fill="#dbdcdc"/></g><g transform="translate(6.717 53.962)"><path d="M3479.595,4377.906h31.494v0a.424.424,0,0,0-.4.413H3479.17A.428.428,0,0,1,3479.595,4377.906Z" transform="translate(-3479.145 -4377.86)" fill="#fbd6a0"/><path d="M3546.839,4378.324a.425.425,0,0,1,.424-.417h26.783a.425.425,0,0,1,.425.417Z" transform="translate(-3515.299 -4377.86)" fill="#b09060"/><path d="M3479.595,4447.249h31.494v0a.423.423,0,0,1-.4-.412H3479.17A.428.428,0,0,0,3479.595,4447.249Z" transform="translate(-3479.145 -4414.686)" fill="#cea75f"/><path d="M3546.839,4446.832a.425.425,0,0,0,.424.417h26.783a.424.424,0,0,0,.425-.417Z" transform="translate(-3515.299 -4414.686)" fill="#90764d"/><rect width="27.682" height="31.682" transform="translate(31.506 0.463)" fill="#c4a064"/><rect width="31.506" height="31.682" transform="translate(0 0.463)" fill="#eabe6c"/><rect width="4.19" height="2.792" transform="translate(43.411)" fill="#eabe6c"/><rect width="4.19" height="2.793" transform="translate(43.411 29.769)" fill="#eabe6c"/></g><g transform="translate(10.083 56.972)"><path d="M3487.275,4384.272a.211.211,0,0,1-.061.138.225.225,0,0,1-.157.068.249.249,0,0,1-.157-.068.211.211,0,0,1-.061-.138h-.494v7.636h.488a.207.207,0,0,1,.067-.159.221.221,0,0,1,.314,0,.2.2,0,0,1,.068.159h14.411v-7.636Zm-.218,7.274a.23.23,0,0,1,0-.46.23.23,0,0,1,0,.46Zm0-.6a.226.226,0,0,1-.225-.225.231.231,0,0,1,.225-.229.227.227,0,0,1,.225.229A.222.222,0,0,1,3487.057,4390.95Zm0-.588a.226.226,0,0,1-.225-.224.231.231,0,0,1,.225-.229.226.226,0,0,1,.225.229A.221.221,0,0,1,3487.057,4390.362Zm0-.588a.226.226,0,0,1,0-.451.226.226,0,0,1,0,.451Zm0-.587a.231.231,0,0,1-.225-.227.226.226,0,0,1,.225-.225.221.221,0,0,1,.225.225A.226.226,0,0,1,3487.057,4389.188Zm0-.588a.231.231,0,0,1-.225-.226.225.225,0,0,1,.225-.226.221.221,0,0,1,.225.226A.226.226,0,0,1,3487.057,4388.6Zm0-.6a.226.226,0,0,1-.225-.226.232.232,0,0,1,.225-.227.227.227,0,0,1,.225.227A.221.221,0,0,1,3487.057,4388Zm0-.587a.225.225,0,0,1-.225-.225.231.231,0,0,1,.225-.227.226.226,0,0,1,.225.227A.221.221,0,0,1,3487.057,4387.417Zm0-.588a.225.225,0,0,1-.225-.225.231.231,0,0,1,.225-.227.226.226,0,0,1,.225.227A.22.22,0,0,1,3487.057,4386.829Zm0-.588a.226.226,0,0,1,0-.452.226.226,0,0,1,0,.452Zm0-.586a.231.231,0,0,1-.225-.227.225.225,0,0,1,.225-.226.22.22,0,0,1,.225.226A.226.226,0,0,1,3487.057,4385.655Zm0-.589a.23.23,0,0,1-.225-.226.225.225,0,0,1,.225-.226.22.22,0,0,1,.225.226A.226.226,0,0,1,3487.057,4385.066Z" transform="translate(-3486.345 -4384.272)" fill="#fff"/><g transform="translate(2.07 0.945)"><path d="M3497.549,4390.958h-4.066a.249.249,0,0,1,0-.5h4.066a.249.249,0,0,1,0,.5Z" transform="translate(-3492.095 -4388.523)" fill="#c8c9ca"/><path d="M3495.1,4386.8h-4.067a.25.25,0,0,1,0-.5h4.067a.25.25,0,0,1,0,.5Z" transform="translate(-3490.789 -4386.301)" fill="#c8c9ca"/><path d="M3497.018,4388.621h-5.979a.249.249,0,0,1,0-.5h5.979a.249.249,0,0,1,0,.5Z" transform="translate(-3490.789 -4387.274)" fill="#c8c9ca"/><path d="M3511.274,4390.958h-2.615a.249.249,0,1,1,0-.5h2.615a.249.249,0,1,1,0,.5Z" transform="translate(-3500.203 -4388.523)" fill="#c8c9ca"/><g transform="translate(0 3.318)"><path d="M3497.549,4398.079h-4.066a.249.249,0,1,1,0-.5h4.066a.249.249,0,1,1,0,.5Z" transform="translate(-3492.095 -4395.646)" fill="#c8c9ca"/><path d="M3495.1,4393.925h-4.067a.249.249,0,0,1,0-.5h4.067a.249.249,0,1,1,0,.5Z" transform="translate(-3490.789 -4393.426)" fill="#c8c9ca"/><path d="M3497.018,4395.741h-5.979a.249.249,0,0,1,0-.5h5.979a.249.249,0,0,1,0,.5Z" transform="translate(-3490.789 -4394.396)" fill="#c8c9ca"/></g></g><path d="M3502.149,4385.089h-12.3a.666.666,0,0,0-.665.666v5.553a.666.666,0,0,0,.665.665h12.3a.666.666,0,0,0,.665-.665v-5.553A.666.666,0,0,0,3502.149,4385.089Zm.466.666v1.066h-5.4v-1.532h4.936A.466.466,0,0,1,3502.615,4385.755Zm-5.4,4.417v-1.234h5.4v1.234Zm0-1.333v-1.918h5.4v1.918Zm-7.36-3.55h7.161v3.185h-7.628v-2.718A.467.467,0,0,1,3489.853,4385.289Zm-.466,6.02v-2.734h7.628v3.2h-7.161A.466.466,0,0,1,3489.387,4391.309Z" transform="translate(-3487.864 -4384.708)" fill="#ed85a7"/></g><g transform="translate(71.259 22.634)"><path d="M3625.729,4320.078c1.563-2.32,2.256-5.979,2.49-8.155a13.521,13.521,0,0,0,.052-1.38,18.022,18.022,0,0,0-.869,3.2c-.433,2.167-1.189,5.6-3.1,6.96a69.74,69.74,0,0,1-6.6,4.141s.05.168.137.474C3620.769,4323.69,3625.016,4321.137,3625.729,4320.078Z" transform="translate(-3617.701 -4310.542)" fill="#fff"/><path d="M3637.346,4312.9a18.727,18.727,0,0,1-3.393,11.179c-2.177,2.84-3.554,3.46-5.6,4.9a54.776,54.776,0,0,1-6.7,3.468c.108.292.183.488.183.488a46.837,46.837,0,0,0,8.177-4.423,16.822,16.822,0,0,0,4.6-4.478C3637.663,4319.342,3637.865,4315.939,3637.346,4312.9Z" transform="translate(-3619.81 -4311.803)" fill="#fff"/></g><g transform="translate(100.645 86.33)"><path d="M3681.309,4453.919a3.627,3.627,0,0,1,2.3-.2c.083-.267.168-.545.248-.825a3.888,3.888,0,0,0-2.556.086C3681.319,4453.309,3681.323,4453.627,3681.309,4453.919Z" transform="translate(-3681.069 -4450.194)" fill="#00254d"/><path d="M3683.83,4449.185c.192-.675.359-1.287.462-1.668a6.42,6.42,0,0,0-3.495.1c.062.442.143,1.1.2,1.791A6.3,6.3,0,0,1,3683.83,4449.185Z" transform="translate(-3680.797 -4447.308)" fill="#00254d"/></g><path d="M3635.82,4297.924a3.636,3.636,0,0,1-1.4,1.863s5.258.972,5,4.225c0,0,2.581-.465,3.355.723C3642.778,4304.735,3643.11,4299.684,3635.82,4297.924Z" transform="translate(-3555.375 -4281.166)" fill="#fff"/><path d="M3615.034,4298.253s-3.717,1.651-4.44,2.943l-.465-.516s.672-1.549,4.181-3.1C3614.311,4297.582,3615.086,4298.2,3615.034,4298.253Z" transform="translate(-3542.397 -4280.984)" fill="#fff"/><path d="M3630.636,4311.637s-.775,7.588.206,9.756l.465.1,1.5-1.5a48.549,48.549,0,0,1-.1-6.3l1.859.257.258-2.117S3631.1,4311.533,3630.636,4311.637Z" transform="translate(-3553.197 -4288.481)" fill="#fff"/><path d="M3613.435,4311.392a26.266,26.266,0,0,1,4.884.024s.3,9.223-.4,10.37l-1.773-.105.18-8.544-2.832.034Z" transform="translate(-3544.163 -4288.299)" fill="#fff"/><path d="M3640.617,4331.195l-2.684-1.91s-2.84,4.853-6.3,6.143l1.961,2.891,3.252-2.479,2.375-2.426Z" transform="translate(-3553.886 -4297.922)" fill="#fff"/><path d="M3600.346,4323.19a10.149,10.149,0,0,1-.727,2.668,10.779,10.779,0,0,1-3.37,3.148l.889.79c5.059-2.323,4.75-6.4,4.75-6.4Z" transform="translate(-3534.981 -4294.665)" fill="#fff"/><path d="M3620.68,4262.439a7.288,7.288,0,0,0-6.726.7,6.026,6.026,0,0,0-2.475,3.61l-.02.176a19.989,19.989,0,0,1,9.034.413,3.474,3.474,0,0,1,2.941-3.069A5.573,5.573,0,0,0,3620.68,4262.439Z" transform="translate(-3543.107 -4261.941)" fill="#fff"/><g transform="translate(7.419 31.828)"><rect width="3.36" height="1.475" rx="0.738" transform="translate(2.469 20.58)" fill="#3d3d3d"/><rect width="3.36" height="1.475" rx="0.738" transform="translate(29.375 20.58)" fill="#3d3d3d"/><path d="M361.464,1362.278a1.167,1.167,0,0,0-1.167,1.167v18.41a1.167,1.167,0,0,0,1.167,1.167h26.479v-20.745Z" transform="translate(-359.996 -1362.236)" fill="#4d4d4d"/><path d="M3.091,0H18.719a3.092,3.092,0,0,1,3.092,3.092V9.451a3.091,3.091,0,0,1-3.091,3.091H3.091A3.091,3.091,0,0,1,0,9.451V3.091A3.091,3.091,0,0,1,3.091,0Z" transform="translate(3.219 5.191)" fill="#e6e6e6"/><path d="M602.6,1362.278h-5.925v20.745H602.6a1.167,1.167,0,0,0,1.167-1.167v-18.41A1.167,1.167,0,0,0,602.6,1362.278Z" transform="translate(-568.73 -1362.236)" fill="#333"/><g transform="translate(28.542 3.97)"><g transform="translate(0 0)"><ellipse cx="2.457" cy="2.457" rx="2.457" ry="2.457" transform="translate(0 4.784) rotate(-76.838)" fill="#4d4d4d"/><ellipse cx="2.102" cy="2.102" rx="2.102" ry="2.102" transform="translate(0.425 4.519) rotate(-76.821)" fill="#333"/><ellipse cx="1.951" cy="1.951" rx="1.951" ry="1.951" transform="translate(0.59 4.379) rotate(-76.168)" fill="#4d4d4d"/><path d="M622.375,1402.787h-.562a6.6,6.6,0,0,0-.035,4.267h.6A7.693,7.693,0,0,0,622.375,1402.787Z" transform="translate(-619.155 -1401.978)" fill="#333"/></g><g transform="translate(0 6.985)"><ellipse cx="2.457" cy="2.457" rx="2.457" ry="2.457" transform="translate(0 4.784) rotate(-76.838)" fill="#4d4d4d"/><ellipse cx="2.102" cy="2.102" rx="2.102" ry="2.102" transform="translate(0.425 4.519) rotate(-76.821)" fill="#333"/><ellipse cx="1.951" cy="1.951" rx="1.951" ry="1.951" transform="translate(0.607 4.406) rotate(-76.813)" fill="#4d4d4d"/><path d="M613.1,1476.2v-.562a6.6,6.6,0,0,0-4.267-.035v.6A7.692,7.692,0,0,0,613.1,1476.2Z" transform="translate(-608.005 -1472.983)" fill="#333"/></g></g><rect width="21.112" height="1.678" transform="translate(3.569)" fill="#4d4d4d"/><path d="M385.62,1364.7H382.4a49.756,49.756,0,0,1-21.111,0h-3.217a.351.351,0,0,1-.351-.351V1362.3a.378.378,0,0,1,.378-.378h3.191a46.911,46.911,0,0,0,21.111,0h3.191a.378.378,0,0,1,.378.378v2.052A.351.351,0,0,1,385.62,1364.7Z" transform="translate(-357.723 -1361.921)" fill="#333"/><g transform="translate(4.257 8.922)"><path d="M404.057,1444.408h9.6a.33.33,0,0,0,.31-.46l-1.936-4.4a.326.326,0,0,1-.027-.13v-.883a.334.334,0,0,0-.337-.33H396.449a.334.334,0,0,0-.337.33v.878a.323.323,0,0,1-.027.13l-1.936,4.408a.33.33,0,0,0,.31.46Z" transform="translate(-394.12 -1438.202)" fill="none" stroke="#b3b3b3" stroke-linecap="round" stroke-linejoin="round" stroke-width="1"/><line y2="6.206" transform="translate(9.937 0)" fill="none" stroke="#b3b3b3" stroke-linecap="round" stroke-linejoin="round" stroke-width="1"/><path d="M461.226,1438.2v1.276l-.6,4.93" transform="translate(-452.845 -1438.202)" fill="none" stroke="#b3b3b3" stroke-linecap="round" stroke-linejoin="round" stroke-width="1"/><path d="M443.9,1438.2v1.287l-1.241,4.919" transform="translate(-436.984 -1438.202)" fill="none" stroke="#b3b3b3" stroke-linecap="round" stroke-linejoin="round" stroke-width="1"/><path d="M427.554,1438.2v1.276l-1.576,4.93" transform="translate(-422.252 -1438.202)" fill="none" stroke="#b3b3b3" stroke-linecap="round" stroke-linejoin="round" stroke-width="1"/><path d="M410.906,1438.2v1.276l-1.958,4.93" transform="translate(-407.214 -1438.202)" fill="none" stroke="#b3b3b3" stroke-linecap="round" stroke-linejoin="round" stroke-width="1"/><path d="M492.4,1438.2v1.276l.6,4.93" transform="translate(-480.901 -1438.202)" fill="none" stroke="#b3b3b3" stroke-linecap="round" stroke-linejoin="round" stroke-width="1"/><path d="M504.9,1438.2v1.287l1.241,4.919" transform="translate(-491.943 -1438.202)" fill="none" stroke="#b3b3b3" stroke-linecap="round" stroke-linejoin="round" stroke-width="1"/><path d="M518.715,1438.2v1.276l1.576,4.93" transform="translate(-504.142 -1438.202)" fill="none" stroke="#b3b3b3" stroke-linecap="round" stroke-linejoin="round" stroke-width="1"/><path d="M532.476,1438.2v1.276l1.958,4.93" transform="translate(-516.295 -1438.202)" fill="none" stroke="#b3b3b3" stroke-linecap="round" stroke-linejoin="round" stroke-width="1"/></g></g><g transform="translate(42.349 14.165)"><g transform="translate(7.017 64.949)"><path d="M1165.136,739.375a11.906,11.906,0,0,0-.12,1.592h2.832a11.908,11.908,0,0,0-.119-1.592,3.022,3.022,0,0,1-2.593,0Z" transform="translate(-1165.016 -738.368)" fill="#bab9b9"/><path d="M1167.572,728.771h-1.121s-.094.413-.176,1.007a3.022,3.022,0,0,0,2.593,0c-.082-.594-.176-1.007-.176-1.007Z" transform="translate(-1166.155 -728.771)" fill="#a6a5a5"/></g><path d="M0,0H.961a0,0,0,0,1,0,0V0A.279.279,0,0,1,.682.279h-.4A.279.279,0,0,1,0,0V0A0,0,0,0,1,0,0Z" transform="translate(0.872 72.273)" fill="#8c8c8c"/><path d="M.279,0h.4A.279.279,0,0,1,.961.279v0a0,0,0,0,1,0,0H0a0,0,0,0,1,0,0v0A.279.279,0,0,1,.279,0Z" transform="translate(15.995 72.552) rotate(180)" fill="#8c8c8c"/><path d="M0,0H.961a0,0,0,0,1,0,0V0A.279.279,0,0,1,.682.279h-.4A.279.279,0,0,1,0,0V0A0,0,0,0,1,0,0Z" transform="translate(3.705 72.273)" fill="#8c8c8c"/><path d="M0,0H.961a0,0,0,0,1,0,0V0A.279.279,0,0,1,.682.279h-.4A.279.279,0,0,1,0,0V0A0,0,0,0,1,0,0Z" transform="translate(6.537 72.273)" fill="#8c8c8c"/><path d="M0,0H.961a0,0,0,0,1,0,0V0A.279.279,0,0,1,.682.279h-.4A.279.279,0,0,1,0,0V0A0,0,0,0,1,0,0Z" transform="translate(9.369 72.273)" fill="#8c8c8c"/><path d="M0,0H.961a0,0,0,0,1,0,0V0A.279.279,0,0,1,.682.279h-.4A.279.279,0,0,1,0,0V0A0,0,0,0,1,0,0Z" transform="translate(12.201 72.273)" fill="#8c8c8c"/><path d="M1107.4,796.9h-15.688c-.289,0-.536-.075-.59-.336v.271a.6.6,0,0,0,.6.615h15.663a.6.6,0,0,0,.6-.615v-.271C1107.936,796.821,1107.688,796.9,1107.4,796.9Z" transform="translate(-1091.122 -725.174)" fill="#bab9b9"/><g transform="translate(3.965 50.387)"><path d="M1154.171,709.518a4.029,4.029,0,0,1-2.7-.958c.417,1.424,1.329,2.517,2.7,2.517s2.286-1.094,2.7-2.517A4.03,4.03,0,0,1,1154.171,709.518Z" transform="translate(-1149.703 -695.918)" fill="#c44823"/><path d="M1141.8,576.253h-1.053l-.408-.459a1.078,1.078,0,0,0-.8-.361h-4.38a1.078,1.078,0,0,0-.8.361l-.408.459h-1.053c-.162,3.321,1.339,10.15,1.682,11.557q.033.135.072.266a4.292,4.292,0,0,0,5.405,0q.038-.131.071-.266C1140.463,586.4,1141.965,579.575,1141.8,576.253Z" transform="translate(-1132.879 -575.433)" fill="#9f3718"/></g><path d="M1147.4,604.667c.851,0,1.742-.365,1.9-.806a72.006,72.006,0,0,0,1.51-8.949,1.208,1.208,0,0,0-1.2-1.332H1145.2a1.208,1.208,0,0,0-1.2,1.332,72.094,72.094,0,0,0,1.51,8.949c.155.442,1.046.806,1.9.806Z" transform="translate(-1138.97 -541.47)" fill="#6d6d6d"/><path d="M.328,0h.918a.328.328,0,0,1,.328.328v0a.328.328,0,0,1-.328.328H.328A.328.328,0,0,1,0,.328v0A.328.328,0,0,1,.328,0Z" transform="translate(7.647 50.897)" fill="#f0f0f0"/><g transform="translate(3.978)"><path d="M1165.247,45.541a.513.513,0,0,0-.072-.22.925.925,0,0,0-1.618,0,.51.51,0,0,0-.072.22c-.1,3.33-.474,19.348-.751,30.581H1166C1165.721,64.888,1165.346,48.871,1165.247,45.541Z" transform="translate(-1159.91 -44.844)" fill="#c44823"/><path d="M1140.217,461.487a5.921,5.921,0,0,1-.81-3.292c-.014-.064-.056-1.449-.116-3.681h-3.655c-.06,2.232-.1,3.617-.116,3.681a5.921,5.921,0,0,1-.81,3.292c-.729,1.036-1.54,2.008-1.7,5.33h1.053l.408-.459a1.077,1.077,0,0,1,.8-.361h4.38a1.077,1.077,0,0,1,.8.361l.408.459h1.053C1141.757,463.5,1140.946,462.523,1140.217,461.487Z" transform="translate(-1133.007 -415.61)" fill="#c44823"/><path d="M1164.315,380.586h-3.3c-.061,2.453-.117,4.654-.163,6.414h3.622C1164.432,385.24,1164.376,383.039,1164.315,380.586Z" transform="translate(-1158.211 -348.703)" fill="#c44823"/><path d="M1164.324,448.126H1160.7q-.008.313-.016.607h3.655Q1164.333,448.439,1164.324,448.126Z" transform="translate(-1158.057 -409.829)" fill="#bab9b9"/><path d="M1165.856,374.2h-3.266q-.008.306-.015.607h3.3Q1165.863,374.5,1165.856,374.2Z" transform="translate(-1159.767 -342.922)" fill="#bab9b9"/></g><path d="M1174.5,103.794a.571.571,0,0,1-.57-.57v-.994a.57.57,0,0,1,1.14,0v.994A.571.571,0,0,1,1174.5,103.794Z" transform="translate(-1166.063 -96.265)" fill="#666"/><g transform="translate(8.082 5.614)"><path d="M1176.926,104.309a.352.352,0,0,0-.7,0v.5h.7Z" transform="translate(-1176.222 -103.957)" fill="gray"/><path d="M1176.222,112.9v.5a.352.352,0,0,0,.7,0v-.5Z" transform="translate(-1176.222 -112.047)" fill="#666"/></g><path d="M1173.944,430.546a.579.579,0,1,1,.579.579A.579.579,0,0,1,1173.944,430.546Z" transform="translate(-1166.079 -393.394)" fill="#666"/><ellipse cx="0.349" cy="0.349" rx="0.349" ry="0.349" transform="translate(8.095 36.803)" fill="#bab9b9"/><g transform="translate(5.752 52.841)"><path d="M1161.227,630.637c.148.773.318,1.583.509,2.417a.592.592,0,0,0,.354.416,2.473,2.473,0,0,0,1.825,0,.593.593,0,0,0,.354-.416c.591-2.567.965-4.914,1.194-6.648Z" transform="translate(-1160.321 -624.019)" fill="#1f1f1f"/><path d="M1157.048,601.8a.477.477,0,0,0-.475-.526h-4.409a.477.477,0,0,0-.475.526c.129,1.252.4,3.46.9,6.091l4.236-4.231C1156.927,602.919,1157,602.289,1157.048,601.8Z" transform="translate(-1151.687 -601.276)" fill="#515151"/></g><path d="M1107.972,755.033l-.287-1.406a2.048,2.048,0,0,0-1.346-1.457l-4.586-1.315a.682.682,0,0,0-.775.277.5.5,0,0,1-.45.194h-1.946a.5.5,0,0,1-.45-.194.682.682,0,0,0-.775-.277l-4.586,1.315a2.049,2.049,0,0,0-1.346,1.457l-.286,1.406c-.091.369.193.468.573.468H1107.4C1107.779,755.5,1108.063,755.4,1107.972,755.033Z" transform="translate(-1091.122 -683.779)" fill="#c44823"/></g></g><g transform="translate(133.683 59.358)"><g transform="translate(0 0.249)"><rect width="2.327" height="2.327" transform="translate(11.15 8.094)" fill="#03a58e"/><path d="M3760.564,4351.093v-2.328h1.848l-5.338-3.439-5.338,3.439h1.848v6.981h2.326v-2.326h2.327v-2.327h2.322v2.327h-2.322v2.326h2.326v-2.326h2.322v-2.327Z" transform="translate(-3751.736 -4345.326)" fill="#03a58e"/></g><rect width="2.29" height="2.29" transform="translate(19.255 0.148)" fill="#03a58e"/><g transform="translate(14.659)"><path d="M3791.509,4347.454l-5.984.173a1.45,1.45,0,0,0,.96-1.812,1.428,1.428,0,0,0-.148-.33l.027-.008h0l.8-.274a.054.054,0,0,0,.033-.068h0c-.009-.023-.025-.034-.059-.034l-.939.04-.167-.01a1.452,1.452,0,1,0-1.284,2.522h0v0h0l-.4,3.924-.973,3.251h0l-.025.084-.129.432h0a.1.1,0,0,0,.065.122.144.144,0,0,0,.029,0h2.166a.11.11,0,0,0,.111-.11h0v-.421a.111.111,0,0,0-.111-.111h-.232l.831-2.776,2.541.388v2.9a.136.136,0,0,0,.136.137h2.163a.11.11,0,0,0,.11-.111h0v-.421a.11.11,0,0,0-.11-.11h-.472v-3.716a.286.286,0,0,0-.243-.283l-3.883-.592.083-.811,5.166-.149a.146.146,0,0,0,.14-.148l-.044-1.538a.144.144,0,0,0-.149-.14Zm-7.4-.988a.979.979,0,0,1-.026-.206l.122-.042,1.7-.587a1.012,1.012,0,0,1-.2,1.418.993.993,0,0,1-.384.178,1.013,1.013,0,0,1-1.213-.762v0Z" transform="translate(-3783.211 -4344.791)" fill="#1a1311"/><path d="M3815.7,4350.33h-1.134v-1.57a.152.152,0,0,0-.153-.154h-1.393a.153.153,0,0,0-.154.153h0v1.57h-2.086a.154.154,0,0,0-.154.153v1.392a.154.154,0,0,0,.154.154h2.086v4.874h-.412a.131.131,0,0,0-.13.13v.34a.13.13,0,0,0,.13.129h1.977a.135.135,0,0,0,.136-.135h0v-5.338h1.134a.154.154,0,0,0,.154-.154h0v-1.392A.153.153,0,0,0,3815.7,4350.33Z" transform="translate(-3797.859 -4346.829)" fill="#1a1311"/><path d="M3833.961,4350.986h-1.021v-1.023a.128.128,0,0,0-.128-.128h-1.276a.127.127,0,0,0-.128.127h0v1.023h-1.676a.128.128,0,0,0-.128.128h0v1.445a.127.127,0,0,0,.127.127h1.677v2.493a1.434,1.434,0,0,1-1.434,1.435h-.252a.117.117,0,0,0-.117.118h0v1.294a.118.118,0,0,0,.117.117h.251a2.967,2.967,0,0,0,2.967-2.966h0v-2.493h1.02a.128.128,0,0,0,.127-.127h0v-1.446A.127.127,0,0,0,3833.961,4350.986Z" transform="translate(-3807.998 -4347.486)" fill="#1a1311"/><path d="M3846.665,4353.447h1.471a.155.155,0,0,0,.154-.155v-1.538h1.376a.086.086,0,0,0,.087-.085h0v-2.534a.144.144,0,0,0-.144-.144h-.1v0h-3.185v-1.313a.136.136,0,0,0-.136-.136h-1.352a.136.136,0,0,0-.136.136h0v1.313h-3.283a.145.145,0,0,0-.144.144v2.488a.136.136,0,0,0,.137.136h1.326v1.538a.155.155,0,0,0,.155.155h1.809v.357h-2.281a.136.136,0,0,0-.138.136v.991a.137.137,0,0,0,.138.137h2.281v.334h-3.289a.137.137,0,0,0-.138.137h0v.989a.139.139,0,0,0,.138.138h8.2a.139.139,0,0,0,.138-.138v-.989a.138.138,0,0,0-.138-.137h-3.288v-.333h2.281a.138.138,0,0,0,.139-.138v-.991a.137.137,0,0,0-.139-.136h-2.281v-.357Zm-3.765-2.776v-.3h5.227v.3Zm1.463,1.405v-.036a.155.155,0,0,1,.154-.154h1.994a.155.155,0,0,1,.155.154v.036a.155.155,0,0,1-.155.154h-1.995a.154.154,0,0,1-.154-.154Z" transform="translate(-3814.233 -4346.258)" fill="#1a1311"/><path d="M3825.726,4357.9h-.349v-5.468a.127.127,0,0,0-.128-.127h-1.289a.127.127,0,0,0-.127.127h0v5.846a.165.165,0,0,0,.165.165h1.728a.142.142,0,0,0,.142-.142h0v-.259a.143.143,0,0,0-.142-.142Z" transform="translate(-3804.915 -4348.807)" fill="#1a1311"/><path d="M3812.116,4359.168a.805.805,0,1,0,.805.805h0A.8.8,0,0,0,3812.116,4359.168Z" transform="translate(-3798.225 -4352.472)" fill="#1a1311"/><path d="M3844.768,4348.488a.805.805,0,1,0-.805-.8h0A.8.8,0,0,0,3844.768,4348.488Z" transform="translate(-3815.669 -4345.906)" fill="#1a1311"/><path d="M3854.139,4348.488a.805.805,0,1,0-.805-.8h0A.8.8,0,0,0,3854.139,4348.488Z" transform="translate(-3820.676 -4345.906)" fill="#1a1311"/><path d="M3805.584,4349.366l-1.261-.637a.145.145,0,0,0-.194.063h0l-1.186,2.366-.005,0-.513,1.03a.146.146,0,0,0,.065.194l1.027.511v4.513a.157.157,0,0,0,.157.156h1.387a.157.157,0,0,0,.156-.156v-4.983a.213.213,0,0,0-.117-.19l-.632-.314,1.183-2.359a.143.143,0,0,0-.065-.192Z" transform="translate(-3793.468 -4346.887)" fill="#1a1311"/></g><g transform="translate(10.524 11.882)"><path d="M3794.947,4370.751h-.383v.3h.353v1.215h-.294v-.082h-.776v.1h-.28v-1.229h.337v-.3h-.353v-.221c-.035.1-.075.2-.119.3l.071.022a.07.07,0,0,1-.06.042v1.42h-.29v-.969c-.036.053-.072.1-.107.145a3.475,3.475,0,0,0-.124-.327,2.591,2.591,0,0,0,.392-.847l.328.109c-.009.019-.03.03-.063.027l-.009.023h1.379Zm-1.1.564v.609h.086v-.609Zm.43,0h-.09v.609h.09Zm0-.264v-.3h-.088v.3Zm.347.873v-.609h-.093v.609Z" transform="translate(-3784.264 -4370.311)" fill="#1a1311"/><path d="M3800.488,4370.516l.2.091a.071.071,0,0,1-.032.035,1.571,1.571,0,0,1-.3.535,1.353,1.353,0,0,0,.449.213,1.387,1.387,0,0,0-.171.225v.681h-.293v-.056h-.36v.063h-.281v-.649l-.093.039a.976.976,0,0,0-.088-.146l-.081.114c-.019-.05-.047-.116-.079-.182v.825h-.289v-.692a1.549,1.549,0,0,1-.17.338,1.6,1.6,0,0,0-.136-.28,1.877,1.877,0,0,0,.286-.655h-.235v-.28h.257v-.425l.348.02c0,.022-.021.035-.06.043v.362h.214v.127a1.667,1.667,0,0,0,.34-.555l.327.107a.055.055,0,0,1-.06.025c-.012.03-.027.062-.042.091h.306Zm-1.134.5v.069c.049.058.167.226.224.311a1.615,1.615,0,0,0,.365-.215,1.886,1.886,0,0,1-.124-.168,1.314,1.314,0,0,1-.141.145,1.9,1.9,0,0,0-.146-.141Zm.969.492a1.366,1.366,0,0,1-.174-.126,1.729,1.729,0,0,1-.172.126Zm-.345.477h.359v-.223h-.359Zm.006-1.2a1.378,1.378,0,0,0,.153.2,1.208,1.208,0,0,0,.141-.2Z" transform="translate(-3787.384 -4370.304)" fill="#1a1311"/><path d="M3805.132,4372.112a.293.293,0,1,1-.293-.294A.294.294,0,0,1,3805.132,4372.112Z" transform="translate(-3790.475 -4371.113)" fill="#1a1311"/><path d="M3808.332,4371.618a1.671,1.671,0,0,1,.528.244.661.661,0,0,1-.151.33,1.3,1.3,0,0,0-.364-.25v0c0,.209-.153.349-.456.349-.323,0-.533-.138-.533-.378,0-.205.2-.355.533-.355.042,0,.084,0,.124,0l-.008-.168c-.187,0-.372,0-.515-.006a1.082,1.082,0,0,1-.054-.317,3.5,3.5,0,0,0,.372.026c.057,0,.122,0,.189,0v-.2c-.146,0-.292,0-.437-.013a1.011,1.011,0,0,1-.05-.3,2.4,2.4,0,0,0,.344.029H3808v-.026c0-.113,0-.161,0-.227a1.708,1.708,0,0,1,.334.025c-.007.069-.011.141-.013.214a2.637,2.637,0,0,0,.344-.046.963.963,0,0,1,0,.292,2.94,2.94,0,0,1-.352.04c0,.063,0,.124,0,.187v.011a2.954,2.954,0,0,0,.428-.063,1.129,1.129,0,0,1,0,.313,3.337,3.337,0,0,1-.411.048Zm-.306.221a.993.993,0,0,0-.174-.015c-.105,0-.179.029-.179.088s.051.092.171.092.18-.045.182-.166Z" transform="translate(-3791.976 -4370.334)" fill="#1a1311"/><path d="M3812.232,4371.532a.376.376,0,0,0-.061.189c0,.094.065.189.369.189a1.757,1.757,0,0,0,.7-.133.96.96,0,0,1,.083.349,2.1,2.1,0,0,1-.766.122c-.45,0-.743-.164-.743-.452a.926.926,0,0,1,.1-.375A1.221,1.221,0,0,1,3812.232,4371.532Zm-.246-.975a3.744,3.744,0,0,0,1.1.013,1.519,1.519,0,0,1-.006.33,4.323,4.323,0,0,1-1.077,0,1.491,1.491,0,0,1-.016-.342Zm1.4.182a.607.607,0,0,1-.169.07,1.461,1.461,0,0,0-.121-.286.9.9,0,0,1,.162-.069,1.467,1.467,0,0,1,.128.286Zm.235-.1a.691.691,0,0,1-.166.071,1.29,1.29,0,0,0-.124-.275.907.907,0,0,1,.162-.07,1.023,1.023,0,0,1,.128.273Z" transform="translate(-3794.356 -4370.337)" fill="#1a1311"/><path d="M3817.082,4371.751a.393.393,0,0,0-.06.189c0,.093.065.188.369.188a1.775,1.775,0,0,0,.695-.132.964.964,0,0,1,.084.349,2.144,2.144,0,0,1-.767.121c-.45,0-.743-.164-.743-.452a.886.886,0,0,1,.1-.375A1.183,1.183,0,0,1,3817.082,4371.751Zm-.245-.974a4.182,4.182,0,0,0,1.163.012,1.638,1.638,0,0,1-.006.33,4.86,4.86,0,0,1-1.143,0A1.593,1.593,0,0,1,3816.837,4370.777Z" transform="translate(-3796.947 -4370.557)" fill="#1a1311"/><path d="M3821.476,4370.548a4.788,4.788,0,0,0,.751-.063.8.8,0,0,1,.128.225,5.764,5.764,0,0,0-.536.494.739.739,0,0,1,.233-.036.557.557,0,0,1,.6.512l0,.021c0,.411-.319.725-1.038.653a1.07,1.07,0,0,1-.109-.356c.462.082.8.009.8-.3,0-.136-.105-.266-.338-.266a.933.933,0,0,0-.726.505.946.946,0,0,1-.242-.273c.22-.246.642-.657.832-.849-.1.017-.32.04-.469.048a1.163,1.163,0,0,1-.076-.319C3821.324,4370.545,3821.4,4370.548,3821.476,4370.548Z" transform="translate(-3799.265 -4370.401)" fill="#1a1311"/><path d="M3775.309,4371.618a1.684,1.684,0,0,1,.528.244.669.669,0,0,1-.151.33,1.285,1.285,0,0,0-.364-.25v0c0,.209-.153.349-.455.349-.323,0-.534-.138-.534-.378,0-.205.2-.355.534-.355.042,0,.083,0,.124,0l-.009-.168c-.187,0-.372,0-.515-.006a1.067,1.067,0,0,1-.055-.317,3.51,3.51,0,0,0,.372.026c.057,0,.122,0,.189,0v-.2q-.219,0-.437-.013a1.011,1.011,0,0,1-.05-.3,2.4,2.4,0,0,0,.344.029h.146v-.026c0-.113,0-.161,0-.227a1.7,1.7,0,0,1,.334.025c-.006.069-.011.141-.013.214a2.633,2.633,0,0,0,.345-.046.963.963,0,0,1,0,.292,2.946,2.946,0,0,1-.352.04c0,.063,0,.124,0,.187v.011a2.957,2.957,0,0,0,.429-.063,1.1,1.1,0,0,1,0,.313,3.335,3.335,0,0,1-.411.048Zm-.307.221a.981.981,0,0,0-.174-.015c-.1,0-.178.029-.178.088s.051.092.17.092.182-.045.184-.166Z" transform="translate(-3774.333 -4370.334)" fill="#1a1311"/><path d="M3779.211,4371.532a.4.4,0,0,0-.061.189c0,.094.066.189.37.189a1.758,1.758,0,0,0,.7-.133.981.981,0,0,1,.084.349,2.1,2.1,0,0,1-.766.122c-.45,0-.744-.164-.744-.452a.914.914,0,0,1,.1-.375A1.2,1.2,0,0,1,3779.211,4371.532Zm-.245-.975a3.745,3.745,0,0,0,1.1.013,1.55,1.55,0,0,1-.007.33,4.323,4.323,0,0,1-1.077,0,1.505,1.505,0,0,1-.017-.342Zm1.4.182a.6.6,0,0,1-.168.07,1.509,1.509,0,0,0-.122-.286.932.932,0,0,1,.161-.069,1.424,1.424,0,0,1,.128.286Zm.235-.1a.669.669,0,0,1-.166.071,1.34,1.34,0,0,0-.124-.275.9.9,0,0,1,.162-.07,1.021,1.021,0,0,1,.128.273Z" transform="translate(-3776.714 -4370.337)" fill="#1a1311"/><path d="M3784.061,4371.751a.393.393,0,0,0-.06.189c0,.093.064.188.369.188a1.78,1.78,0,0,0,.7-.132.973.973,0,0,1,.083.349,2.139,2.139,0,0,1-.766.121c-.45,0-.744-.164-.744-.452a.9.9,0,0,1,.1-.375A1.187,1.187,0,0,1,3784.061,4371.751Zm-.246-.974a4.189,4.189,0,0,0,1.164.012,1.57,1.57,0,0,1-.007.33,4.86,4.86,0,0,1-1.143,0A1.675,1.675,0,0,1,3783.815,4370.777Z" transform="translate(-3779.304 -4370.557)" fill="#1a1311"/><path d="M3788.455,4370.548a4.8,4.8,0,0,0,.752-.063.834.834,0,0,1,.128.225,5.923,5.923,0,0,0-.536.494.743.743,0,0,1,.233-.036.558.558,0,0,1,.6.512v.021c0,.411-.319.725-1.038.653a1.069,1.069,0,0,1-.109-.356c.462.082.8.009.8-.3,0-.136-.1-.266-.338-.266a.933.933,0,0,0-.727.505.946.946,0,0,1-.242-.273c.221-.246.642-.657.831-.849-.1.017-.319.04-.469.048a1.21,1.21,0,0,1-.076-.319C3788.3,4370.545,3788.375,4370.548,3788.455,4370.548Z" transform="translate(-3781.622 -4370.401)" fill="#1a1311"/><path d="M3827.669,4372.254a.825.825,0,0,1-.26.26,3.664,3.664,0,0,0-.5-.562,2.481,2.481,0,0,1-.767.55,1.5,1.5,0,0,1-.259-.292,2.049,2.049,0,0,0,.838-.54,1.486,1.486,0,0,0,.3-.45c-.254,0-.754.017-.906.024a2.2,2.2,0,0,1-.039-.33c.067.006.151.01.218.01.111,0,.734-.01.867-.016a1.306,1.306,0,0,0,.158-.015.767.767,0,0,1,.178.176,3.522,3.522,0,0,1-.378.63A4.12,4.12,0,0,1,3827.669,4372.254Z" transform="translate(-3801.876 -4370.618)" fill="#1a1311"/><path d="M3832.207,4370.725a1.2,1.2,0,0,0,.162-.015.871.871,0,0,1,.191.155,2.234,2.234,0,0,1-.351.725c.064.055.125.111.184.167a.662.662,0,0,1-.234.258c-.051-.055-.109-.113-.172-.172a1.9,1.9,0,0,1-.74.467,1.012,1.012,0,0,1-.286-.281,1.728,1.728,0,0,0,.781-.395,3.3,3.3,0,0,0-.319-.226,1.637,1.637,0,0,1,.212-.219,3.494,3.494,0,0,1,.328.208,1.2,1.2,0,0,0,.2-.4l-.531.009a2.1,2.1,0,0,1-.491.48.74.74,0,0,1-.281-.222,1.607,1.607,0,0,0,.743-.882.873.873,0,0,1,.319.142,1.537,1.537,0,0,1-.1.2c.327,0,.388-.006.388-.006Z" transform="translate(-3804.533 -4370.347)" fill="#1a1311"/><path d="M3835.966,4372.077a1.183,1.183,0,0,1-.269.124,3.969,3.969,0,0,0-.2-.406c.054-.029.206-.1.263-.12A3.5,3.5,0,0,1,3835.966,4372.077Zm.985-.334a1.9,1.9,0,0,1-.287.683,1.383,1.383,0,0,1-.62.459,1.05,1.05,0,0,1-.243-.248,1.131,1.131,0,0,0,.609-.387,1.23,1.23,0,0,0,.238-.646,1.12,1.12,0,0,1,.3.138Zm-.542.179a1.384,1.384,0,0,1-.273.117,3.781,3.781,0,0,0-.18-.411,2.466,2.466,0,0,1,.269-.111,4.16,4.16,0,0,1,.185.406Z" transform="translate(-3807.014 -4370.952)" fill="#1a1311"/><path d="M3840.986,4371.943a1.736,1.736,0,0,1-.823.638,1.022,1.022,0,0,1-.3-.311,1.361,1.361,0,0,0,.777-.442,1.2,1.2,0,0,0,.246-.549c-.214,0-1,.013-1.179.017a2.433,2.433,0,0,1-.032-.353c.1.009.21.015.282.015.138,0,.851-.008.991-.011a1.082,1.082,0,0,0,.159-.012.877.877,0,0,1,.2.162A2.448,2.448,0,0,1,3840.986,4371.943Z" transform="translate(-3809.242 -4370.642)" fill="#1a1311"/></g></g></g><path d="M3793.191,4465.024c0,.8-17.467,1.448-39.015,1.448s-39.014-.647-39.014-1.448,17.467-1.454,39.014-1.454S3793.191,4464.22,3793.191,4465.024Z" transform="translate(-3329.146 -2620.918)" fill="#9e9e9f"/><g transform="translate(420.141 1752.34)"><g transform="translate(0.005 0)"><path d="M908.79,207.323H881.761l-4.322,4.331h35.771Z" transform="translate(-877.439 -207.323)" fill="#e5cfad"/></g><g transform="translate(0 4.313)"><rect width="34.08" height="86.352" transform="translate(0.897 0.512)" fill="#8f661e"/><g transform="translate(2.134 2.048)"><rect width="31.522" height="15.999" transform="translate(0 0.007)" fill="#d0a86a"/><path d="M1034.935,275.465l.78,1.163h4.756l.83-1.177Z" transform="translate(-1022.357 -275.451)" fill="#0d0f11"/></g><g transform="translate(2.134 18.854)"><rect width="31.522" height="15.999" transform="translate(0 0.007)" fill="#d0a86a"/><path d="M1034.935,455.449l.78,1.162h4.756l.83-1.177Z" transform="translate(-1022.357 -455.435)" fill="#0d0f11"/></g><g transform="translate(2.134 35.661)"><rect width="31.522" height="15.999" transform="translate(0 0.007)" fill="#d0a86a"/><path d="M1034.935,635.433l.78,1.162h4.756l.83-1.177Z" transform="translate(-1022.357 -635.419)" fill="#0d0f11"/></g><g transform="translate(2.134 52.467)"><rect width="31.522" height="15.999" transform="translate(0 0.007)" fill="#d0a86a"/><path d="M1034.935,815.417l.78,1.162h4.756l.83-1.177Z" transform="translate(-1022.357 -815.403)" fill="#0d0f11"/></g><g transform="translate(2.134 69.274)"><rect width="31.522" height="15.999" transform="translate(0 0.007)" fill="#d0a86a"/><path d="M1034.935,995.4l.78,1.162h4.756l.83-1.176Z" transform="translate(-1022.357 -995.391)" fill="#0d0f11"/></g><g transform="translate(0 0)"><path d="M913.175,340.9H877.387V253.519h35.788Zm-34.506-1.281h33.225V254.8H878.669Z" transform="translate(-877.387 -253.519)" fill="#d0a86a"/></g></g></g><g transform="translate(394.036 1775.866)"><rect width="2.262" height="27.797" transform="translate(17.512 18.546)" fill="#f0f0f0"/><path d="M2.183,0h0A2.183,2.183,0,0,1,4.366,2.183v15.71a0,0,0,0,1,0,0H0a0,0,0,0,1,0,0V2.183A2.183,2.183,0,0,1,2.183,0Z" transform="translate(16.46 46.343)" fill="#f0f0f0"/><rect width="2.262" height="0.93" transform="translate(17.512 45.413)" fill="#e8e8e8"/><g transform="translate(4.413 63.756)"><path d="M776.444,1294.64a1.282,1.282,0,0,0-.911-1.228,52.429,52.429,0,0,0-26.637,0,1.28,1.28,0,0,0-.829,1.676h28.3A1.281,1.281,0,0,0,776.444,1294.64Z" transform="translate(-747.985 -1291.692)" fill="#f0f0f0"/><path d="M748.5,1313.029a1.283,1.283,0,0,0,1.2.836h25.893a1.283,1.283,0,0,0,1.2-.836Z" transform="translate(-748.417 -1309.633)" fill="#e0e0e0"/></g><path d="M832.736,1199.27a.742.742,0,1,1,.742.742A.742.742,0,0,1,832.736,1199.27Z" transform="translate(-814.835 -1149.598)" fill="#cfcfcf"/><path d="M832.736,1216.69a.742.742,0,1,1,.742.742A.742.742,0,0,1,832.736,1216.69Z" transform="translate(-814.835 -1164.246)" fill="#cfcfcf"/><path d="M832.736,1234.109a.742.742,0,1,1,.742.742A.742.742,0,0,1,832.736,1234.109Z" transform="translate(-814.835 -1178.893)" fill="#cfcfcf"/><g transform="translate(3.364 3.301)"><path d="M806.413,925.428a18.4,18.4,0,0,1,.626-5.642c1.144-3.517,3.76-3.366,3.656-5.336-.469-3.014-9.445-3.709-11.641-.664-1.736,2.408,5.354,12.115,5.354,12.115Z" transform="translate(-789.648 -911.818)" fill="#d9d9d9"/><path d="M755.277,958.648l.169-2.053a18.4,18.4,0,0,1-5.172-2.339c-2.991-2.174-2.039-4.616-3.945-5.126-3.012-.485-6.446,7.836-4.228,10.866C743.854,962.391,755.277,958.648,755.277,958.648Z" transform="translate(-741.393 -943.174)" fill="#d9d9d9"/><path d="M769.928,1011.985a18.4,18.4,0,0,1-3.823,4.2c-2.992,2.173-5.02.513-6.094,2.167-1.392,2.714,5.461,8.552,9.028,7.38,2.82-.927,2.79-12.948,2.79-12.948Z" transform="translate(-756.893 -996.044)" fill="#d9d9d9"/><path d="M837.727,1013.155l-1.344,1.561a18.4,18.4,0,0,1,2.81,4.932c1.142,3.518-1.063,4.933.178,6.466,2.151,2.163,9.821-2.551,9.808-6.305C849.169,1016.841,837.727,1013.155,837.727,1013.155Z" transform="translate(-821.266 -997.028)" fill="#d9d9d9"/><path d="M854.016,947.02c-2.826-.907-9.867,8.835-9.867,8.835l1.07,1.76a18.4,18.4,0,0,1,5.56-1.148c3.7,0,4.363,2.536,6.2,1.829C859.7,956.919,857.592,948.167,854.016,947.02Z" transform="translate(-827.796 -941.367)" fill="#d9d9d9"/></g><g transform="translate(0 0)"><path d="M738.9,891.075a18.643,18.643,0,1,0,18.643,18.643A18.643,18.643,0,0,0,738.9,891.075Zm0,35.764a17.121,17.121,0,1,1,17.121-17.121A17.121,17.121,0,0,1,738.9,926.839Z" transform="translate(-720.254 -891.075)" fill="#e8e8e8"/></g><g transform="translate(1.101 1.101)"><line y1="17.541" transform="translate(17.542 0)" fill="none" stroke="#e8e8e8" stroke-miterlimit="10" stroke-width="2.051"/><line x1="3.046" y1="17.275" transform="translate(14.496 0.266)" fill="none" stroke="#e8e8e8" stroke-miterlimit="10" stroke-width="2.051"/><line x1="6" y1="16.484" transform="translate(11.542 1.058)" fill="none" stroke="#e8e8e8" stroke-miterlimit="10" stroke-width="2.051"/><line x1="8.771" y1="15.191" transform="translate(8.771 2.35)" fill="none" stroke="#e8e8e8" stroke-miterlimit="10" stroke-width="2.051"/><line x1="11.276" y1="13.438" transform="translate(6.266 4.104)" fill="none" stroke="#e8e8e8" stroke-miterlimit="10" stroke-width="2.051"/><line x1="13.438" y1="11.275" transform="translate(4.104 6.266)" fill="none" stroke="#e8e8e8" stroke-miterlimit="10" stroke-width="2.051"/><line x1="15.191" y1="8.771" transform="translate(2.35 8.771)" fill="none" stroke="#e8e8e8" stroke-miterlimit="10" stroke-width="2.051"/><line x1="16.484" y1="6" transform="translate(1.058 11.542)" fill="none" stroke="#e8e8e8" stroke-miterlimit="10" stroke-width="2.051"/><line x1="17.275" y1="3.046" transform="translate(0.267 14.495)" fill="none" stroke="#e8e8e8" stroke-miterlimit="10" stroke-width="2.051"/><line x1="17.542" transform="translate(0 17.541)" fill="none" stroke="#e8e8e8" stroke-miterlimit="10" stroke-width="2.051"/><line x1="17.275" y2="3.046" transform="translate(0.267 17.541)" fill="none" stroke="#e8e8e8" stroke-miterlimit="10" stroke-width="2.051"/><line x1="16.484" y2="6" transform="translate(1.058 17.541)" fill="none" stroke="#e8e8e8" stroke-miterlimit="10" stroke-width="2.051"/><line x1="15.191" y2="8.771" transform="translate(2.35 17.541)" fill="none" stroke="#e8e8e8" stroke-miterlimit="10" stroke-width="2.051"/><line x1="13.438" y2="11.275" transform="translate(4.104 17.541)" fill="none" stroke="#e8e8e8" stroke-miterlimit="10" stroke-width="2.051"/><line x1="11.276" y2="13.438" transform="translate(6.266 17.541)" fill="none" stroke="#e8e8e8" stroke-miterlimit="10" stroke-width="2.051"/><line x1="8.771" y2="15.191" transform="translate(8.771 17.541)" fill="none" stroke="#e8e8e8" stroke-miterlimit="10" stroke-width="2.051"/><line x1="6" y2="16.484" transform="translate(11.542 17.541)" fill="none" stroke="#e8e8e8" stroke-miterlimit="10" stroke-width="2.051"/><line x1="3.046" y2="17.275" transform="translate(14.496 17.541)" fill="none" stroke="#e8e8e8" stroke-miterlimit="10" stroke-width="2.051"/><line y2="17.542" transform="translate(17.542 17.541)" fill="none" stroke="#e8e8e8" stroke-miterlimit="10" stroke-width="2.051"/><line x2="3.046" y2="17.275" transform="translate(17.542 17.541)" fill="none" stroke="#e8e8e8" stroke-miterlimit="10" stroke-width="2.051"/><line x2="6" y2="16.484" transform="translate(17.542 17.541)" fill="none" stroke="#e8e8e8" stroke-miterlimit="10" stroke-width="2.051"/><line x2="8.771" y2="15.191" transform="translate(17.542 17.541)" fill="none" stroke="#e8e8e8" stroke-miterlimit="10" stroke-width="2.051"/><line x2="11.276" y2="13.438" transform="translate(17.542 17.541)" fill="none" stroke="#e8e8e8" stroke-miterlimit="10" stroke-width="2.051"/><line x2="13.438" y2="11.275" transform="translate(17.542 17.541)" fill="none" stroke="#e8e8e8" stroke-miterlimit="10" stroke-width="2.051"/><line x2="15.191" y2="8.771" transform="translate(17.542 17.541)" fill="none" stroke="#e8e8e8" stroke-miterlimit="10" stroke-width="2.051"/><line x2="16.484" y2="6" transform="translate(17.542 17.541)" fill="none" stroke="#e8e8e8" stroke-miterlimit="10" stroke-width="2.051"/><line x2="17.275" y2="3.046" transform="translate(17.542 17.541)" fill="none" stroke="#e8e8e8" stroke-miterlimit="10" stroke-width="2.051"/><line x2="17.542" transform="translate(17.542 17.541)" fill="none" stroke="#e8e8e8" stroke-miterlimit="10" stroke-width="2.051"/><line y1="3.046" x2="17.275" transform="translate(17.542 14.495)" fill="none" stroke="#e8e8e8" stroke-miterlimit="10" stroke-width="2.051"/><line y1="6" x2="16.484" transform="translate(17.542 11.542)" fill="none" stroke="#e8e8e8" stroke-miterlimit="10" stroke-width="2.051"/><line y1="8.771" x2="15.191" transform="translate(17.542 8.771)" fill="none" stroke="#e8e8e8" stroke-miterlimit="10" stroke-width="2.051"/><line y1="11.275" x2="13.438" transform="translate(17.542 6.266)" fill="none" stroke="#e8e8e8" stroke-miterlimit="10" stroke-width="2.051"/><line y1="13.438" x2="11.276" transform="translate(17.542 4.104)" fill="none" stroke="#e8e8e8" stroke-miterlimit="10" stroke-width="2.051"/><line y1="15.191" x2="8.771" transform="translate(17.542 2.35)" fill="none" stroke="#e8e8e8" stroke-miterlimit="10" stroke-width="2.051"/><line y1="16.484" x2="6" transform="translate(17.542 1.058)" fill="none" stroke="#e8e8e8" stroke-miterlimit="10" stroke-width="2.051"/><line y1="17.275" x2="3.046" transform="translate(17.542 0.266)" fill="none" stroke="#e8e8e8" stroke-miterlimit="10" stroke-width="2.051"/></g><g transform="translate(13.722 13.722)"><path d="M807.468,982.218a3.928,3.928,0,0,1,6.705-2.777l.7-.7a4.921,4.921,0,1,0-6.96,6.959l.7-.7A3.915,3.915,0,0,1,807.468,982.218Z" transform="translate(-806.475 -977.297)" fill="#d6d6d6"/><path d="M816.235,1025.67l-.7.7h0l.7-.7Z" transform="translate(-814.091 -1017.972)" fill="#ccc"/><path d="M854.849,987.056l.7-.7h0l-.7.7Z" transform="translate(-847.15 -984.912)" fill="#ccc"/><path d="M821.789,987.056a3.928,3.928,0,1,1-5.555,5.555l-.7.7a4.921,4.921,0,0,0,6.96-6.959Z" transform="translate(-814.091 -984.913)" fill="#ccc"/><path d="M822.723,997.472a3.928,3.928,0,0,0,2.777-6.705l-5.555,5.555A3.915,3.915,0,0,0,822.723,997.472Z" transform="translate(-817.802 -988.623)" fill="#e8e8e8"/><path d="M816.645,983.539a3.928,3.928,0,0,0-2.777,6.7l5.555-5.555A3.916,3.916,0,0,0,816.645,983.539Z" transform="translate(-811.724 -982.546)" fill="#f0f0f0"/><path d="M819.946,996.322h0l5.555-5.555h0Z" transform="translate(-817.802 -988.624)" fill="#e8e8e8"/></g></g><path d="M22.775-11.225V-16.85H13.8v-1.075h8.025v-2.1H3.1v2.1h8.1v1.075H2.275v5.675h2.65V-15H11.2v4.5h2.6V-15h6.35v3.775Zm-3.5.2v-1.25H14.5v1.25Zm-8.9,0v-1.25H5.85v1.25Zm8.9-2.025V-14.3H14.5v1.25Zm-8.9.075v-1.25H5.85v1.25Zm13.1,5.125V-10H1.55v2.15h8.625L9.45-6.9H2.95V1.25H5.575v-6H8.55V.85H11v-5.6h2.9V.85h2.45v-5.6h3.075v2.325c0,.725-.125,1.025-.975,1.025a12.264,12.264,0,0,1-1.65-.15l.875,2.85c3.9-.025,4.4-.7,4.4-2.475V-6.9h-9.6l.875-.95Zm-.3,14.35V4.25H1.85V6.5H8.775V7.9H3.725v6.425h6.55A12.717,12.717,0,0,1,9,16.075H1.9V18.15H7.075a25.4,25.4,0,0,1-2.3,2L7.25,21.675c.375-.3.675-.575,1-.875.875.175,1.875.45,2.675.675-2.1,1-3.9,1.375-8.825,1.4L3.3,25.35c5.175-.45,7.625-1.225,10.575-2.825a35.735,35.735,0,0,1,6.4,3.025l1.675-2.3c-1.8-.8-3.375-1.475-5.95-2.4a12.483,12.483,0,0,0,2.25-2.7h4.875V16.075H12.55c.525-.65.9-1.125,1.325-1.75H21.5V7.9H16.4V6.5ZM13.75,12.325h-2.3V9.9h2.3Zm5.175,0H16.4V9.9h2.525ZM13.75,7.9h-2.3V6.5h2.3ZM8.775,12.325H6.4V9.9H8.775ZM14.95,18.15a7.517,7.517,0,0,1-1.625,1.775,34.389,34.389,0,0,0-3.35-.875c.325-.35.425-.425.825-.9Z" transform="translate(153 1733)" fill="#fff"/><path d="M11.229-30.039V-41.61h-7.7v11.571l2,18.81H9.291ZM11.229,0V-7.7h-7.7V0Z" transform="translate(243 1757)" fill="#fff"/><path d="M15.282.594c9.774,0,12.312-5.562,12.312-14.742V-43.74H19.872v30.51c0,4.158-.486,7.884-4.59,7.884-4.05,0-4.536-3.726-4.536-7.884V-43.74H2.97v29.592C2.97-4.968,5.454.594,15.282.594ZM33.858,0H41.8V-19.44H46.17c7.074,0,11.718-3.294,11.718-11.88,0-7.884-3.348-12.42-11.178-12.42H33.858ZM41.8-25.056V-38.124h3.078c4.914,0,5.508,2.052,5.508,6.75,0,4.644-1.134,6.318-5.508,6.318Z" transform="translate(180.393 1755.82)" fill="#fff"/></g></g></svg>