<svg xmlns="http://www.w3.org/2000/svg" width="601.274" height="57.894" viewBox="0 0 601.274 57.894"><g transform="translate(-333.308 -474.728)"><path d="M5.936-9.59a8.41,8.41,0,0,1,.532,1.736H3.794l.728-.21a7.951,7.951,0,0,0-.784-1.6c1.19-.056,2.408-.14,3.584-.252ZM2.464-6.412h9.03v1.6h1.624V-7.854H11.13c.322-.518.686-1.092,1.008-1.68l-1.778-.42a15.88,15.88,0,0,1-.91,2.1H7.014L8.05-8.106a7.335,7.335,0,0,0-.63-1.806c1.862-.168,3.668-.392,5.18-.672l-1.12-1.344a78.371,78.371,0,0,1-10.444.952,5.268,5.268,0,0,1,.378,1.414C2.086-9.576,2.8-9.6,3.5-9.646L2.254-9.3a8.727,8.727,0,0,1,.658,1.442h-2v3.038H2.464Zm6.454,2.6a6.932,6.932,0,0,1-1.9,1.624A8.147,8.147,0,0,1,4.886-3.808ZM10.3-5.4,10-5.334H2.926v1.526h.658l-.462.2a9.419,9.419,0,0,0,2.212,2.2A19.55,19.55,0,0,1,.574-.392a5.732,5.732,0,0,1,.98,1.47A18.351,18.351,0,0,0,7-.42a16.889,16.889,0,0,0,5.348,1.47A8.049,8.049,0,0,1,13.37-.5a19.085,19.085,0,0,1-4.634-.952,8.225,8.225,0,0,0,2.688-3.262Zm7.434-6.384A14.655,14.655,0,0,1,14.392-6.44a13.6,13.6,0,0,1,.98,1.736c.322-.336.658-.714.98-1.12V1.19H18.06V-8.428a25.715,25.715,0,0,0,1.33-2.828Zm9.786,2.94h-1.54V-11.7H24.248v2.856H18.914v1.68h5.334V-.812c0,.308-.126.42-.476.42-.322.014-1.554.014-2.632-.028a6.631,6.631,0,0,1,.644,1.652A9.952,9.952,0,0,0,25.06.952c.672-.252.924-.686.924-1.764V-7.168h1.54ZM22.946-2.926c-.42-.84-1.288-2.212-1.918-3.234l-1.484.686a32.849,32.849,0,0,1,1.806,3.36ZM31.738-9.52v2.464H30.45V-9.52ZM30.45-2.968V-5.6h1.288v2.632ZM33.292-11H28.91V-.252h1.54V-1.484h2.842Zm.826,8.344a9.849,9.849,0,0,1,1.6,2.352l1.428-.826a9.66,9.66,0,0,0-1.694-2.3Zm7.406-3.584V-7.7H38.332V-8.932h2.8v-1.456h-2.8v-1.47H36.694v1.47H34.006v1.456h2.688V-7.7H33.53v1.456h4.942v1.2H33.558V-3.6h4.914v3.01c0,.2-.07.252-.294.252s-.994,0-1.666-.028A5.615,5.615,0,0,1,37.044,1.2a6.2,6.2,0,0,0,2.338-.28c.546-.252.7-.672.7-1.47V-3.6h1.344V-5.04H40.082v-1.2Zm5.418-3.878v.742H44.786v-.742Zm-2.156,2.66v-.8h2.156v.8Zm3.71,1.19v-5.054H43.134V1.218h1.652v-7.49Zm2.548-1.162V-8.26H53.27v.826Zm2.226-2.688v.742H51.044v-.742ZM47.81-1.3V-2.17h2.31V-1.3Zm2.31-2.9v.84H47.81V-4.2Zm4.83-7.126H49.462v5.082H53.27V-.77c0,.224-.084.308-.336.308-.182.014-.7.014-1.246,0v-4.97H46.3V.63H47.81V-.084h3.472a6.164,6.164,0,0,1,.364,1.3A6.049,6.049,0,0,0,54.208.9c.56-.266.742-.756.742-1.652ZM4.116,18.2c2.1,0,3.486-1.2,3.486-2.772a3.013,3.013,0,0,0-1.736-2.772v-.07A3.018,3.018,0,0,0,7.2,10.216a2.719,2.719,0,0,0-3.01-2.758c-1.806,0-3.122,1.064-3.122,2.73a2.951,2.951,0,0,0,1.372,2.464v.07a3.015,3.015,0,0,0-1.778,2.7C.658,17.048,2.142,18.2,4.116,18.2Zm.658-6.118c-1.092-.434-1.89-.91-1.89-1.89A1.2,1.2,0,0,1,4.144,8.9a1.32,1.32,0,0,1,1.372,1.442A2.481,2.481,0,0,1,4.774,12.078Zm-.6,4.662A1.588,1.588,0,0,1,2.436,15.2a2.491,2.491,0,0,1,.952-1.918c1.344.546,2.3.994,2.3,2.072A1.358,1.358,0,0,1,4.172,16.74Zm6.342-3.864a1.277,1.277,0,0,0,1.288-1.33,1.282,1.282,0,1,0-2.562,0A1.275,1.275,0,0,0,10.514,12.876Zm0,5.32A1.346,1.346,0,1,0,9.24,16.852,1.289,1.289,0,0,0,10.514,18.2Zm6.118,0c1.974,0,3.64-1.106,3.64-3.01A2.589,2.589,0,0,0,18.2,12.638v-.07A2.454,2.454,0,0,0,19.936,10.2c0-1.778-1.358-2.758-3.36-2.758a4.6,4.6,0,0,0-3.108,1.274l1.05,1.26a2.956,2.956,0,0,1,1.96-.924,1.238,1.238,0,0,1,1.386,1.3c0,.924-.616,1.582-2.52,1.582v1.484c2.254,0,2.856.63,2.856,1.652,0,.924-.714,1.442-1.764,1.442a3.291,3.291,0,0,1-2.31-1.064l-.966,1.3A4.4,4.4,0,0,0,16.632,18.2Zm8.54,0c2.1,0,3.5-1.848,3.5-5.418s-1.4-5.334-3.5-5.334-3.514,1.75-3.514,5.334S23.058,18.2,25.172,18.2Zm0-1.61c-.9,0-1.568-.9-1.568-3.808s.672-3.738,1.568-3.738,1.554.84,1.554,3.738S26.054,16.586,25.172,16.586Zm13.79-1.764a4.327,4.327,0,0,0,3.808-2.576l-1.54-.84A2.735,2.735,0,0,1,39,13.086a2.562,2.562,0,0,1-2.086-1.008,4.236,4.236,0,0,0-3.3-1.54,4.327,4.327,0,0,0-3.808,2.576l1.54.84a2.735,2.735,0,0,1,2.226-1.68,2.581,2.581,0,0,1,2.086,1.008A4.236,4.236,0,0,0,38.962,14.822ZM44.436,18h6.23V16.334H48.72V7.64H47.194a6.72,6.72,0,0,1-2.408.868V9.782h1.876v6.552H44.436Zm9.7,0h2.086c.168-4.06.49-6.174,2.9-9.114V7.64H52.234V9.362H56.9C54.922,12.106,54.32,14.4,54.138,18Zm7.91-5.124a1.277,1.277,0,0,0,1.288-1.33,1.282,1.282,0,1,0-2.562,0A1.275,1.275,0,0,0,62.048,12.876Zm0,5.32a1.346,1.346,0,1,0-1.274-1.344A1.289,1.289,0,0,0,62.048,18.2Zm6.118,0c1.974,0,3.64-1.106,3.64-3.01a2.589,2.589,0,0,0-2.072-2.548v-.07A2.454,2.454,0,0,0,71.47,10.2c0-1.778-1.358-2.758-3.36-2.758A4.6,4.6,0,0,0,65,8.718l1.05,1.26a2.956,2.956,0,0,1,1.96-.924,1.238,1.238,0,0,1,1.386,1.3c0,.924-.616,1.582-2.52,1.582v1.484c2.254,0,2.856.63,2.856,1.652,0,.924-.714,1.442-1.764,1.442a3.291,3.291,0,0,1-2.31-1.064l-.966,1.3A4.4,4.4,0,0,0,68.166,18.2Zm8.54,0c2.1,0,3.5-1.848,3.5-5.418s-1.4-5.334-3.5-5.334-3.514,1.75-3.514,5.334S74.592,18.2,76.706,18.2Zm0-1.61c-.9,0-1.568-.9-1.568-3.808S75.81,9.04,76.706,9.04s1.554.84,1.554,3.738S77.588,16.586,76.706,16.586ZM90.062,6.072V19.288H94.43v-.07a8.675,8.675,0,0,1-2.772-6.538A8.675,8.675,0,0,1,94.43,6.142v-.07ZM99.3,14.64V12.512h2.422V14.64Zm8.932,0h-4.788V12.512h3.7v-1.54h-3.7V9.292h4.018V7.682h-7.91a8.938,8.938,0,0,0,.462-1.148L98.322,6.1a10.8,10.8,0,0,1-2.94,4.662,12.884,12.884,0,0,1,1.442,1.078,12.581,12.581,0,0,0,1.9-2.548h3v1.68H97.636V14.64H95.424v1.6h6.3v3h1.722v-3h4.788Zm8.442-1.428V10.2h3.164v3.01Zm-4.914,0V10.2h3.15v3.01Zm4.914-4.648V6.142h-1.764V8.564h-4.83V15.62h1.68v-.77h3.15v4.368h1.764V14.85h3.164v.7h1.75V8.564Zm16.1,2.3h-1.064V9.068h1.064Zm0,3.262h-1.064V12.344h1.064Zm-5.88-1.778H127.9v1.778H126.9Zm3.43,0v1.778H129.29V12.344ZM129.29,10.86V9.068h1.036V10.86ZM126.9,9.068H127.9V10.86H126.9Zm-1.47,1.792H123.55v1.484h1.876v1.778H123.76v1.484h12.166V14.122H134.3V12.344h1.82V10.86H134.3V9.068h1.316V7.6h-8.4a7.537,7.537,0,0,0,.546-.98l-1.624-.476a8.609,8.609,0,0,1-2.9,3.346A15.418,15.418,0,0,1,124.6,10.58a9.62,9.62,0,0,0,.826-.728Zm-.434,8.372a7.661,7.661,0,0,0,1.6-2.94l-1.61-.392a6.9,6.9,0,0,1-1.568,2.688Zm2.492-2.842a17.772,17.772,0,0,1,.266,2.674l1.624-.238a18.128,18.128,0,0,0-.336-2.618Zm2.772.028a14.919,14.919,0,0,1,.714,2.66l1.666-.322a15.6,15.6,0,0,0-.812-2.6Zm2.772-.07a18.031,18.031,0,0,1,1.652,2.87l1.708-.574a18.989,18.989,0,0,0-1.764-2.8Zm17.164-5.194V9.53h-3.654V6.366h-1.652V9.53H141.33v1.624h2.9a13.284,13.284,0,0,1-3.458,5.068V9.7a22.09,22.09,0,0,0,1.442-2.954l-1.652-.532a14.364,14.364,0,0,1-3.542,5.376,12.088,12.088,0,0,1,.966,1.75,12.689,12.689,0,0,0,1.148-1.26V19.19h1.638v-2.8a9.233,9.233,0,0,1,1.134,1.232,14.226,14.226,0,0,0,2.982-4.242v5.838h1.652V13.1a14.311,14.311,0,0,0,2.828,4.452,5.934,5.934,0,0,1,1.246-1.33,13.694,13.694,0,0,1-3.346-5.068Zm5.39-5.082h-4.368v.07a8.675,8.675,0,0,1,2.772,6.538,8.675,8.675,0,0,1-2.772,6.538v.07h4.368Z" transform="translate(779 506)" fill="#1a1311"/><g transform="translate(430.667 471.034)"><rect width="62" height="7" transform="translate(270.333 11.966)" fill="#ffd800"/><rect width="71" height="7" transform="translate(158.333 11.966)" fill="#ffd800"/><path d="M2.47-4.225a8.726,8.726,0,0,0-.364,2.119C2.106-.312,3.5.663,6.084.663A18.042,18.042,0,0,0,9.555.351l.039-1.7a14.234,14.234,0,0,1-3.51.377c-1.82,0-2.3-.637-2.3-1.573a5.777,5.777,0,0,1,.351-1.534Zm8.4-5.057a18.833,18.833,0,0,1-2.522.65c-.286-.676-.533-1.287-.754-1.963l-1.82.351a9.993,9.993,0,0,1,.637,1.235c.078.195.169.4.273.611a21.934,21.934,0,0,1-4.81-.13l.052,1.651a28.924,28.924,0,0,0,5.421,0c.377.806.819,1.7,1.131,2.353-.39-.026-1.092-.1-1.521-.143L6.812-3.341c.949.117,2.223.325,2.925.468l.91-.975C10.088-4.875,9.477-6.1,8.983-7.137c.78-.156,1.534-.338,2.184-.52ZM17.42-4.225a8.726,8.726,0,0,0-.364,2.119c0,1.794,1.391,2.769,3.978,2.769A18.042,18.042,0,0,0,24.505.351l.039-1.7a14.234,14.234,0,0,1-3.51.377c-1.82,0-2.3-.637-2.3-1.573a5.777,5.777,0,0,1,.351-1.534Zm8.4-5.057a18.833,18.833,0,0,1-2.522.65c-.286-.676-.533-1.287-.754-1.963l-1.82.351a9.993,9.993,0,0,1,.637,1.235c.078.195.169.4.273.611a21.934,21.934,0,0,1-4.81-.13l.052,1.651a28.924,28.924,0,0,0,5.421,0c.377.806.819,1.7,1.131,2.353-.39-.026-1.092-.1-1.521-.143l-.143,1.326c.949.117,2.223.325,2.925.468l.91-.975c-.559-1.027-1.17-2.249-1.664-3.289.78-.156,1.534-.338,2.184-.52Zm5.993,3.757.663,1.69a17.35,17.35,0,0,1,5.161-1.534,1.66,1.66,0,0,1,1.846,1.638c0,1.755-2.184,2.522-5.109,2.6l.676,1.6c4.095-.247,6.136-1.846,6.136-4.173a3.076,3.076,0,0,0-3.393-3.159,18.474,18.474,0,0,0-4.615,1A11,11,0,0,1,31.811-5.525ZM54.483-9.061a8.889,8.889,0,0,1-1.183.78c-.611.338-1.729.91-2.782,1.521a30.183,30.183,0,0,1-1.612-3.562l-1.625.663c.585,1.365,1.209,2.73,1.807,3.835a4.29,4.29,0,0,0-2.132,3.393c0,2.21,1.937,2.925,4.5,2.925A25.179,25.179,0,0,0,55.588.182l.026-1.859a21.532,21.532,0,0,1-4.212.468c-1.781,0-2.678-.494-2.678-1.417,0-.9.715-1.638,1.794-2.34a39.427,39.427,0,0,1,3.588-1.911c.468-.234.884-.455,1.274-.689Z" transform="translate(165.333 14.965)" fill="#ed4c24"/><path d="M10.985-7.566c0-.377.026-.9.039-1.2-.221.013-.754.026-1.131.026H9.828l.9-.377a15.911,15.911,0,0,0-1.014-1.742l-1.066.442a11.721,11.721,0,0,1,.962,1.677H3.341c-.455,0-1.118-.026-1.612-.078v1.807c.364-.026,1.066-.052,1.612-.052h5.85v5.382H3.185c-.585,0-1.17-.039-1.612-.078V.1C2,.065,2.73.026,3.237.026H9.178c0,.234,0,.468-.013.676H11.05c-.039-.39-.065-1.079-.065-1.534Zm-.6-3.263a15.409,15.409,0,0,1,1.04,1.742l1.079-.468c-.247-.455-.715-1.248-1.04-1.716ZM14.2-3.978c.481-.039,1.352-.065,2.093-.065H23.27c.546,0,1.209.052,1.521.065V-6.019c-.338.026-.923.078-1.521.078H16.289c-.676,0-1.625-.039-2.093-.078ZM36.985-7.566c0-.377.026-.9.039-1.2-.221.013-.754.026-1.131.026h-.065l.9-.377a15.91,15.91,0,0,0-1.014-1.742l-1.066.442a11.721,11.721,0,0,1,.962,1.677H29.341c-.455,0-1.118-.026-1.612-.078v1.807c.364-.026,1.066-.052,1.612-.052h5.85v5.382H29.185c-.585,0-1.17-.039-1.612-.078V.1C28,.065,28.73.026,29.237.026h5.941c0,.234,0,.468-.013.676H37.05c-.039-.39-.065-1.079-.065-1.534Zm-.6-3.263a15.41,15.41,0,0,1,1.04,1.742l1.079-.468c-.247-.455-.715-1.248-1.04-1.716ZM40.2-3.978c.481-.039,1.352-.065,2.093-.065H49.27c.546,0,1.209.052,1.521.065V-6.019c-.338.026-.923.078-1.521.078H42.289c-.676,0-1.625-.039-2.093-.078Z" transform="translate(276.333 14.965)" fill="#ed4c24"/><path d="M14.468.623q-12.75,0-12.75-17.9,0-9.289,3.449-14.157t10-4.868q12.451,0,12.451,18.2,0,9.064-3.4,13.9A11.2,11.2,0,0,1,14.468.623Zm.349-30.929q-5.1,0-5.1,12.825Q9.712-5.4,14.717-5.4,19.6-5.4,19.6-17.855T14.817-30.306Zm35.747-6.2V0H42.719V-27.642a9.394,9.394,0,0,1-1.531,1.083,15.811,15.811,0,0,1-1.88.921,16.788,16.788,0,0,1-2.067.7,15.1,15.1,0,0,1-2.117.411v-6.624A32.722,32.722,0,0,0,40.9-33.444a32.878,32.878,0,0,0,4.906-3.063ZM70.373-6.524H85.514V0H61.757V-2.689a12.518,12.518,0,0,1,.921-4.918,16.321,16.321,0,0,1,2.316-3.91,20.088,20.088,0,0,1,3.051-3.063q1.656-1.332,3.15-2.4,1.569-1.121,2.752-2.142a15.681,15.681,0,0,0,1.992-2.03A7.716,7.716,0,0,0,77.146-23.2a6.073,6.073,0,0,0,.4-2.2,4.429,4.429,0,0,0-1.295-3.461,5.757,5.757,0,0,0-3.959-1.17,13.3,13.3,0,0,0-8.815,3.661v-6.923a18.923,18.923,0,0,1,10.509-3.013,15.52,15.52,0,0,1,4.868.71,10.3,10.3,0,0,1,3.648,2.03,8.656,8.656,0,0,1,2.279,3.2,10.8,10.8,0,0,1,.784,4.2,11.831,11.831,0,0,1-.76,4.383A13.468,13.468,0,0,1,82.787-18.3a18.3,18.3,0,0,1-2.9,2.876Q78.242-14.12,76.474-12.9q-1.2.847-2.3,1.681a21.838,21.838,0,0,0-1.955,1.644,8.921,8.921,0,0,0-1.345,1.581A2.729,2.729,0,0,0,70.373-6.524ZM104,.623q-12.75,0-12.75-17.9,0-9.289,3.449-14.157t10-4.868q12.451,0,12.451,18.2,0,9.064-3.4,13.9A11.2,11.2,0,0,1,104,.623Zm.349-30.929q-5.1,0-5.1,12.825,0,12.078,5.005,12.078,4.881,0,4.881-12.451T104.352-30.306Zm32.211,19.449H122.941v-5.5h13.622Zm6.86,9.687V-8.019A13.822,13.822,0,0,0,151.79-5.4,7.533,7.533,0,0,0,156.484-6.7a4.3,4.3,0,0,0,1.681-3.611A4.1,4.1,0,0,0,156.085-14a10.773,10.773,0,0,0-5.715-1.295h-3.312v-6.026h3.063q6.973,0,6.973-4.632,0-4.358-5.354-4.358a12.206,12.206,0,0,0-6.973,2.316v-6.425a19.257,19.257,0,0,1,8.766-1.893q5.479,0,8.529,2.465a7.846,7.846,0,0,1,3.051,6.4q0,7-7.1,8.766v.125a9.649,9.649,0,0,1,5.977,2.752,7.759,7.759,0,0,1,2.191,5.591,9.581,9.581,0,0,1-3.661,7.919Q158.862.623,152.412.623A19.54,19.54,0,0,1,143.423-1.17Zm29.845,0V-8.019A13.822,13.822,0,0,0,181.635-5.4,7.533,7.533,0,0,0,186.329-6.7a4.3,4.3,0,0,0,1.681-3.611A4.1,4.1,0,0,0,185.93-14a10.773,10.773,0,0,0-5.715-1.295H176.9v-6.026h3.063q6.973,0,6.973-4.632,0-4.358-5.354-4.358a12.206,12.206,0,0,0-6.973,2.316v-6.425a19.257,19.257,0,0,1,8.766-1.893q5.479,0,8.529,2.465a7.846,7.846,0,0,1,3.051,6.4q0,7-7.1,8.766v.125a9.649,9.649,0,0,1,5.977,2.752,7.759,7.759,0,0,1,2.191,5.591,9.581,9.581,0,0,1-3.661,7.919Q188.707.623,182.257.623A19.54,19.54,0,0,1,173.268-1.17Zm47.65-35.336V0h-7.844V-27.642a9.394,9.394,0,0,1-1.531,1.083,15.81,15.81,0,0,1-1.88.921,16.788,16.788,0,0,1-2.067.7,15.1,15.1,0,0,1-2.117.411v-6.624a32.722,32.722,0,0,0,5.777-2.291,32.878,32.878,0,0,0,4.906-3.063ZM244.512.623q-12.75,0-12.75-17.9,0-9.289,3.449-14.157t10-4.868q12.451,0,12.451,18.2,0,9.064-3.4,13.9A11.2,11.2,0,0,1,244.512.623Zm.349-30.929q-5.1,0-5.1,12.825,0,12.078,5.005,12.078,4.881,0,4.881-12.451T244.861-30.306Zm32.211,19.449H263.45v-5.5h13.622Zm7.483,9.936V-7.645A14.679,14.679,0,0,0,292.349-5.4a7.321,7.321,0,0,0,4.868-1.482,4.987,4.987,0,0,0,1.756-4.022q0-5.3-7.5-5.3a55.5,55.5,0,0,0-6.375.423l1.345-19.922h18.9v6.425h-12.9l-.5,7.147q1.917-.149,3.312-.149,5.5,0,8.616,2.889a10.087,10.087,0,0,1,3.113,7.77,11.468,11.468,0,0,1-3.71,8.828Q299.57.623,293.22.623A21.528,21.528,0,0,1,284.554-.921Zm29.845,0V-7.645A14.679,14.679,0,0,0,322.194-5.4a7.321,7.321,0,0,0,4.868-1.482,4.987,4.987,0,0,0,1.756-4.022q0-5.3-7.5-5.3a55.5,55.5,0,0,0-6.375.423l1.345-19.922h18.9v6.425h-12.9l-.5,7.147q1.917-.149,3.312-.149,5.5,0,8.616,2.889a10.087,10.087,0,0,1,3.113,7.77,11.468,11.468,0,0,1-3.71,8.828Q329.415.623,323.065.623A21.528,21.528,0,0,1,314.4-.921Z" transform="translate(0.333 60.965)" fill="#ed4c24"/></g><g transform="translate(386 497.334)"><circle cx="17.5" cy="17.5" r="17.5" transform="translate(0 -0.333)" fill="#ed4c24"/><path d="M18.511,13.986l-2.659-2.659a1.768,1.768,0,0,0-2.943.665,1.809,1.809,0,0,1-2.089,1.14A8.2,8.2,0,0,1,5.884,8.192,1.721,1.721,0,0,1,7.023,6.1a1.769,1.769,0,0,0,.664-2.944L5.029.5A1.9,1.9,0,0,0,2.465.5L.662,2.3c-1.8,1.9.19,6.933,4.653,11.4s9.495,6.554,11.393,4.654l1.8-1.8A1.9,1.9,0,0,0,18.511,13.986Z" transform="translate(10.074 6.341) rotate(11)" fill="#fff"/></g><path d="M-12.768-7.154V-6.4h-1.61v-.756Zm3.136.756h-1.652v-.756h1.652Zm-1.652,1.946v-.784h1.652v.784Zm-3.094,0v-.784h1.61v.784Zm0,1.2h1.61V-1.2h1.484V-3.248h1.652V-2.6c0,.14-.042.2-.21.21-.14,0-.63,0-1.064-.014a4.552,4.552,0,0,1,.406,1.3,4.213,4.213,0,0,0,1.89-.238c.448-.224.574-.574.574-1.246V-8.358H-9.73c-.238-.14-.532-.28-.84-.434a15.935,15.935,0,0,0,2.492-1.89l-.994-.8-.322.084H-15.82v1.26h4.984a12.935,12.935,0,0,1-1.12.742c-.574-.252-1.162-.476-1.652-.658l-1.078.9c.574.224,1.246.5,1.876.8h-3.136v7.21h1.568Zm-2.338-6.16a11.991,11.991,0,0,0-2.436-2.156L-20.3-10.5a11.365,11.365,0,0,1,2.338,2.282Zm-.42,2.982H-20.51V-4.9h1.778v3.052a19.27,19.27,0,0,1-1.96,1.274l.77,1.666C-19.138.5-18.48-.042-17.836-.588A4.343,4.343,0,0,0-14.21.966c1.708.07,4.676.042,6.4-.042A6.879,6.879,0,0,1-7.294-.7c-1.918.154-5.236.2-6.9.126a3.2,3.2,0,0,1-2.94-1.386Zm15.47-5H-5.8v1.26h4.13Zm-1.358,9.17v1.6h-1.5v-1.6ZM-1.61-3.57H-5.922V1.2h1.4V.658H-1.61Zm-4.27-.714h4.2v-1.26h-4.2Zm4.2-3.206h-4.2v1.246h4.2Zm-4.858-.686h5.32V-9.492h-5.32ZM4.368-.952H1.19v-1.96H4.368ZM6.594-6.258V-7.812H3.584V-9.758a21.29,21.29,0,0,0,2.646-.574L5.054-11.718A30.6,30.6,0,0,1-.882-10.7,5.448,5.448,0,0,1-.434-9.3c.742-.056,1.54-.126,2.324-.224v1.708H-1.12v1.554H1.89V-4.41H-.392V1.218H1.19V.546H4.368v.616H6.034V-4.41H3.584V-6.258Zm10.472-3.15A10.521,10.521,0,0,0,14.84-11.1l-.8,1.12a11.264,11.264,0,0,1,2.17,1.82ZM13.4-6.454a11.821,11.821,0,0,1,2.3,1.736l.84-1.33a12.3,12.3,0,0,0-2.352-1.61Zm-1.26-4.634a23.811,23.811,0,0,1-.77,3.276l1.05.294c.35-.812.756-2.142,1.12-3.262ZM9.422-7.812a14.037,14.037,0,0,0-.714-3.206l-1.162.308a13.875,13.875,0,0,1,.63,3.22Zm3.822,4.606c-.294-.392-1.624-1.96-2.03-2.366v-.1h2.072V-7.224H11.214V-11.8H9.674v4.578H7.56V-5.67h1.6A12.961,12.961,0,0,1,7.308-2.044,9.893,9.893,0,0,1,8.064-.322a14.368,14.368,0,0,0,1.61-3.444V1.176h1.54V-3.738a18.7,18.7,0,0,1,1.008,1.82Zm7.406.322L20.4-4.438l-1.428.266v-7.7H17.4v7.98l-4.158.742L13.5-1.6,17.4-2.3V1.2H18.97v-3.78ZM-11.046,9.86H-12.11V8.068h1.064Zm0,3.262H-12.11V11.344h1.064Zm-5.88-1.778h1.008v1.778h-1.008Zm3.43,0v1.778h-1.036V11.344ZM-14.532,9.86V8.068H-13.5V9.86Zm-2.394-1.792h1.008V9.86h-1.008ZM-18.4,9.86h-1.876v1.484H-18.4v1.778h-1.666v1.484H-7.9V13.122H-9.52V11.344H-7.7V9.86H-9.52V8.068H-8.2V6.6h-8.4a7.537,7.537,0,0,0,.546-.98l-1.624-.476a8.609,8.609,0,0,1-2.9,3.346A15.418,15.418,0,0,1-19.222,9.58a9.62,9.62,0,0,0,.826-.728Zm-.434,8.372a7.661,7.661,0,0,0,1.6-2.94l-1.61-.392a6.9,6.9,0,0,1-1.568,2.688Zm2.492-2.842a17.772,17.772,0,0,1,.266,2.674l1.624-.238a18.129,18.129,0,0,0-.336-2.618Zm2.772.028a14.919,14.919,0,0,1,.714,2.66l1.666-.322a15.6,15.6,0,0,0-.812-2.6Zm2.772-.07a18.032,18.032,0,0,1,1.652,2.87l1.708-.574a18.989,18.989,0,0,0-1.764-2.8ZM3.066,7.592A10.521,10.521,0,0,0,.84,5.9l-.8,1.12a11.264,11.264,0,0,1,2.17,1.82ZM-.6,10.546a11.821,11.821,0,0,1,2.3,1.736l.84-1.33A12.3,12.3,0,0,0,.182,9.342Zm-1.26-4.634a23.811,23.811,0,0,1-.77,3.276l1.05.294c.35-.812.756-2.142,1.12-3.262ZM-4.578,9.188a14.037,14.037,0,0,0-.714-3.206l-1.162.308a13.875,13.875,0,0,1,.63,3.22Zm3.822,4.606c-.294-.392-1.624-1.96-2.03-2.366v-.1H-.714V9.776H-2.786V5.2h-1.54V9.776H-6.44V11.33h1.6a12.961,12.961,0,0,1-1.848,3.626,9.893,9.893,0,0,1,.756,1.722,14.368,14.368,0,0,0,1.61-3.444v4.942h1.54V13.262a18.7,18.7,0,0,1,1.008,1.82Zm7.406.322L6.4,12.562l-1.428.266v-7.7H3.4v7.98l-4.158.742L-.5,15.4,3.4,14.7v3.5H4.97v-3.78Zm6.636-.714h1.442l.49-4.788.07-2.086H12.726l.056,2.086ZM14,17.126a1.369,1.369,0,0,0,1.456-1.372,1.458,1.458,0,0,0-2.912,0A1.369,1.369,0,0,0,14,17.126Z" transform="translate(354 512)" fill="#ed4c24"/></g></svg>