<svg xmlns="http://www.w3.org/2000/svg" width="237.534" height="64.508" viewBox="0 0 237.534 64.508"><g transform="translate(-378 -478.596)"><path d="M5.088-8.22a7.209,7.209,0,0,1,.456,1.488H3.252l.624-.18A6.815,6.815,0,0,0,3.2-8.28c1.02-.048,2.064-.12,3.072-.216ZM2.112-5.5h7.74v1.368h1.392v-2.6H9.54c.276-.444.588-.936.864-1.44L8.88-8.532a13.612,13.612,0,0,1-.78,1.8H6.012L6.9-6.948A6.287,6.287,0,0,0,6.36-8.5c1.6-.144,3.144-.336,4.44-.576l-.96-1.152a67.175,67.175,0,0,1-8.952.816A4.516,4.516,0,0,1,1.212-8.2C1.788-8.208,2.4-8.232,3-8.268l-1.068.3A7.48,7.48,0,0,1,2.5-6.732H.78v2.6H2.112ZM7.644-3.264A5.941,5.941,0,0,1,6.012-1.872,6.983,6.983,0,0,1,4.188-3.264ZM8.832-4.632l-.264.06H2.508v1.308h.564l-.4.168a8.074,8.074,0,0,0,1.9,1.884,16.757,16.757,0,0,1-4.08.876,4.913,4.913,0,0,1,.84,1.26A15.729,15.729,0,0,0,6-.36,14.476,14.476,0,0,0,10.584.9,6.9,6.9,0,0,1,11.46-.432a16.359,16.359,0,0,1-3.972-.816,7.05,7.05,0,0,0,2.3-2.8ZM15.2-10.1A12.562,12.562,0,0,1,12.336-5.52a11.653,11.653,0,0,1,.84,1.488c.276-.288.564-.612.84-.96V1.02H15.48V-7.224a22.042,22.042,0,0,0,1.14-2.424Zm8.388,2.52h-1.32v-2.448H20.784v2.448H16.212v1.44h4.572V-.7c0,.264-.108.36-.408.36-.276.012-1.332.012-2.256-.024a5.684,5.684,0,0,1,.552,1.416A8.53,8.53,0,0,0,21.48.816c.576-.216.792-.588.792-1.512V-6.144h1.32ZM19.668-2.508c-.36-.72-1.1-1.9-1.644-2.772l-1.272.588A28.156,28.156,0,0,1,18.3-1.812ZM27.2-8.16v2.112H26.1V-8.16ZM26.1-2.544V-4.8h1.1v2.256Zm2.436-6.888H24.78V-.216H26.1V-1.272h2.436Zm.708,7.152A8.442,8.442,0,0,1,30.612-.264l1.224-.708A8.28,8.28,0,0,0,30.384-2.94Zm6.348-3.072V-6.6H32.856V-7.656h2.4V-8.9h-2.4v-1.26h-1.4V-8.9h-2.3v1.248h2.3V-6.6H28.74v1.248h4.236V-4.32H28.764v1.236h4.212V-.5c0,.168-.06.216-.252.216s-.852,0-1.428-.024a4.813,4.813,0,0,1,.456,1.344,5.313,5.313,0,0,0,2-.24c.468-.216.6-.576.6-1.26V-3.084h1.152V-4.32H34.356V-5.352Zm4.644-3.324v.636H38.388v-.636ZM38.388-6.4V-7.08h1.848V-6.4Zm3.18,1.02V-9.708h-4.6V1.044h1.416v-6.42Zm2.184-1V-7.08H45.66v.708Zm1.908-2.3v.636H43.752v-.636Zm-4.68,7.56V-1.86h1.98v.744ZM42.96-3.6v.72H40.98V-3.6ZM47.1-9.708H42.4v4.356H45.66V-.66c0,.192-.072.264-.288.264-.156.012-.6.012-1.068,0v-4.26h-4.62V.54h1.3V-.072h2.976a5.284,5.284,0,0,1,.312,1.116,5.185,5.185,0,0,0,2.2-.276C46.944.54,47.1.12,47.1-.648ZM56.976.168c1.8,0,2.988-1.032,2.988-2.376a2.583,2.583,0,0,0-1.488-2.376v-.06a2.586,2.586,0,0,0,1.14-2.028,2.331,2.331,0,0,0-2.58-2.364A2.4,2.4,0,0,0,54.36-6.7a2.53,2.53,0,0,0,1.176,2.112v.06a2.584,2.584,0,0,0-1.524,2.316C54.012-.816,55.284.168,56.976.168Zm.564-5.244c-.936-.372-1.62-.78-1.62-1.62A1.033,1.033,0,0,1,57-7.8a1.131,1.131,0,0,1,1.176,1.236A2.127,2.127,0,0,1,57.54-5.076Zm-.516,4A1.361,1.361,0,0,1,55.536-2.4a2.135,2.135,0,0,1,.816-1.644c1.152.468,1.968.852,1.968,1.776A1.164,1.164,0,0,1,57.024-1.08ZM62.46-4.392a1.1,1.1,0,0,0,1.1-1.14,1.1,1.1,0,0,0-1.1-1.152,1.1,1.1,0,0,0-1.092,1.152A1.092,1.092,0,0,0,62.46-4.392Zm0,4.56a1.105,1.105,0,0,0,1.1-1.152,1.105,1.105,0,0,0-1.1-1.152A1.1,1.1,0,0,0,61.368-.984,1.1,1.1,0,0,0,62.46.168Zm5.244,0c1.692,0,3.12-.948,3.12-2.58A2.219,2.219,0,0,0,69.048-4.6v-.06a2.1,2.1,0,0,0,1.488-2.028c0-1.524-1.164-2.364-2.88-2.364a3.94,3.94,0,0,0-2.664,1.092l.9,1.08a2.534,2.534,0,0,1,1.68-.792A1.061,1.061,0,0,1,68.76-6.552c0,.792-.528,1.356-2.16,1.356v1.272c1.932,0,2.448.54,2.448,1.416,0,.792-.612,1.236-1.512,1.236a2.821,2.821,0,0,1-1.98-.912l-.828,1.116A3.775,3.775,0,0,0,67.7.168Zm7.32,0c1.8,0,3-1.584,3-4.644s-1.2-4.572-3-4.572-3.012,1.5-3.012,4.572S73.212.168,75.024.168Zm0-1.38c-.768,0-1.344-.768-1.344-3.264s.576-3.2,1.344-3.2,1.332.72,1.332,3.2S75.78-1.212,75.024-1.212Zm11.82-1.512a3.709,3.709,0,0,0,3.264-2.208l-1.32-.72a2.344,2.344,0,0,1-1.908,1.44,2.2,2.2,0,0,1-1.788-.864A3.631,3.631,0,0,0,82.26-6.4,3.709,3.709,0,0,0,79-4.188l1.32.72a2.344,2.344,0,0,1,1.908-1.44,2.213,2.213,0,0,1,1.788.864A3.631,3.631,0,0,0,86.844-2.724ZM91.536,0h5.34V-1.428H95.208V-8.88H93.9a5.76,5.76,0,0,1-2.064.744v1.092h1.608v5.616H91.536Zm8.316,0h1.788c.144-3.48.42-5.292,2.484-7.812V-8.88h-5.9V-7.4h4A12.254,12.254,0,0,0,99.852,0Zm6.78-4.392a1.1,1.1,0,0,0,1.1-1.14,1.1,1.1,0,0,0-1.1-1.152,1.1,1.1,0,0,0-1.092,1.152A1.092,1.092,0,0,0,106.632-4.392Zm0,4.56a1.105,1.105,0,0,0,1.1-1.152,1.105,1.105,0,0,0-1.1-1.152A1.1,1.1,0,0,0,105.54-.984,1.1,1.1,0,0,0,106.632.168Zm5.244,0c1.692,0,3.12-.948,3.12-2.58A2.219,2.219,0,0,0,113.22-4.6v-.06a2.1,2.1,0,0,0,1.488-2.028c0-1.524-1.164-2.364-2.88-2.364a3.94,3.94,0,0,0-2.664,1.092l.9,1.08a2.534,2.534,0,0,1,1.68-.792,1.061,1.061,0,0,1,1.188,1.116c0,.792-.528,1.356-2.16,1.356v1.272c1.932,0,2.448.54,2.448,1.416,0,.792-.612,1.236-1.512,1.236a2.821,2.821,0,0,1-1.98-.912L108.9-1.068A3.775,3.775,0,0,0,111.876.168Zm7.32,0c1.8,0,3-1.584,3-4.644s-1.2-4.572-3-4.572-3.012,1.5-3.012,4.572S117.384.168,119.2.168Zm0-1.38c-.768,0-1.344-.768-1.344-3.264s.576-3.2,1.344-3.2,1.332.72,1.332,3.2S119.952-1.212,119.2-1.212Zm11.448-9.012V1.1h3.744v-.06a7.435,7.435,0,0,1-2.376-5.6,7.435,7.435,0,0,1,2.376-5.6v-.06Zm7.92,7.344V-4.7h2.076V-2.88Zm7.656,0h-4.1V-4.7h3.168v-1.32h-3.168v-1.44h3.444v-1.38h-6.78a7.66,7.66,0,0,0,.4-.984l-1.452-.372a9.254,9.254,0,0,1-2.52,4,11.044,11.044,0,0,1,1.236.924,10.785,10.785,0,0,0,1.632-2.184h2.568v1.44h-3.5V-2.88h-1.9v1.368h5.4V1.056h1.476V-1.512h4.1ZM153.456-4.1v-2.58h2.712V-4.1Zm-4.212,0v-2.58h2.7V-4.1Zm4.212-3.984v-2.076h-1.512v2.076H147.8V-2.04h1.44V-2.7h2.7V1.044h1.512V-2.7h2.712v.6h1.5V-8.088Zm13.8,1.968h-.912V-7.656h.912Zm0,2.8h-.912V-4.848h.912Zm-5.04-1.524h.864v1.524h-.864Zm2.94,0v1.524h-.888V-4.848Zm-.888-1.272V-7.656h.888V-6.12Zm-2.052-1.536h.864V-6.12h-.864Zm-1.26,1.536h-1.608v1.272h1.608v1.524h-1.428v1.272h10.428V-3.324h-1.392V-4.848h1.56V-6.12h-1.56V-7.656h1.128v-1.26h-7.2a6.459,6.459,0,0,0,.468-.84l-1.392-.408A7.379,7.379,0,0,1,159.084-7.3a13.216,13.216,0,0,1,1.164.936,8.243,8.243,0,0,0,.708-.624Zm-.372,7.176a6.567,6.567,0,0,0,1.368-2.52l-1.38-.336A5.913,5.913,0,0,1,159.228.5ZM162.72-1.38a15.232,15.232,0,0,1,.228,2.292l1.392-.2a15.538,15.538,0,0,0-.288-2.244Zm2.376.024a12.786,12.786,0,0,1,.612,2.28l1.428-.276a13.374,13.374,0,0,0-.7-2.232Zm2.376-.06a15.456,15.456,0,0,1,1.416,2.46l1.464-.492a16.276,16.276,0,0,0-1.512-2.4Zm14.712-4.452V-7.26h-3.132V-9.972h-1.416V-7.26h-3.048v1.392h2.484a11.386,11.386,0,0,1-2.964,4.344V-7.116a18.935,18.935,0,0,0,1.236-2.532l-1.416-.456A12.311,12.311,0,0,1,170.892-5.5,10.361,10.361,0,0,1,171.72-4a10.876,10.876,0,0,0,.984-1.08v6.1h1.4v-2.4a7.914,7.914,0,0,1,.972,1.056,12.194,12.194,0,0,0,2.556-3.636v5h1.416V-4.2a12.267,12.267,0,0,0,2.424,3.816,5.087,5.087,0,0,1,1.068-1.14,11.737,11.737,0,0,1-2.868-4.344Zm4.62-4.356H183.06v.06a7.435,7.435,0,0,1,2.376,5.6,7.435,7.435,0,0,1-2.376,5.6V1.1H186.8Z" transform="translate(424 542)" fill="#1a1311"/><g transform="translate(423.667 472)"><rect width="52" height="5" transform="translate(139.333 15)" fill="#ffd800"/><rect width="54" height="5" transform="translate(79.333 16)" fill="#ffd800"/><path d="M2.28-3.9a8.055,8.055,0,0,0-.336,1.956C1.944-.288,3.228.612,5.616.612A16.654,16.654,0,0,0,8.82.324l.036-1.572A13.139,13.139,0,0,1,5.616-.9c-1.68,0-2.124-.588-2.124-1.452a5.333,5.333,0,0,1,.324-1.416Zm7.752-4.668a17.384,17.384,0,0,1-2.328.6c-.264-.624-.492-1.188-.7-1.812l-1.68.324a9.225,9.225,0,0,1,.588,1.14c.072.18.156.372.252.564a20.246,20.246,0,0,1-4.44-.12l.048,1.524a26.7,26.7,0,0,0,5,0c.348.744.756,1.572,1.044,2.172-.36-.024-1.008-.1-1.4-.132L6.288-3.084c.876.108,2.052.3,2.7.432l.84-.9C9.312-4.5,8.748-5.628,8.292-6.588c.72-.144,1.416-.312,2.016-.48ZM14.28-3.9a8.055,8.055,0,0,0-.336,1.956c0,1.656,1.284,2.556,3.672,2.556a16.654,16.654,0,0,0,3.2-.288l.036-1.572a13.139,13.139,0,0,1-3.24.348c-1.68,0-2.124-.588-2.124-1.452a5.333,5.333,0,0,1,.324-1.416Zm7.752-4.668a17.384,17.384,0,0,1-2.328.6c-.264-.624-.492-1.188-.7-1.812l-1.68.324a9.225,9.225,0,0,1,.588,1.14c.072.18.156.372.252.564a20.246,20.246,0,0,1-4.44-.12l.048,1.524a26.7,26.7,0,0,0,5,0c.348.744.756,1.572,1.044,2.172-.36-.024-1.008-.1-1.4-.132l-.132,1.224c.876.108,2.052.3,2.7.432l.84-.9c-.516-.948-1.08-2.076-1.536-3.036.72-.144,1.416-.312,2.016-.48ZM25.764-5.1l.612,1.56A16.015,16.015,0,0,1,31.14-4.956a1.532,1.532,0,0,1,1.7,1.512c0,1.62-2.016,2.328-4.716,2.4L28.752.432c3.78-.228,5.664-1.7,5.664-3.852a2.839,2.839,0,0,0-3.132-2.916,17.053,17.053,0,0,0-4.26.924A10.154,10.154,0,0,1,25.764-5.1ZM44.892-8.364a8.205,8.205,0,0,1-1.092.72c-.564.312-1.6.84-2.568,1.4a27.861,27.861,0,0,1-1.488-3.288l-1.5.612c.54,1.26,1.116,2.52,1.668,3.54a3.96,3.96,0,0,0-1.968,3.132c0,2.04,1.788,2.7,4.152,2.7A23.242,23.242,0,0,0,45.912.168l.024-1.716a19.876,19.876,0,0,1-3.888.432c-1.644,0-2.472-.456-2.472-1.308,0-.828.66-1.512,1.656-2.16a36.393,36.393,0,0,1,3.312-1.764c.432-.216.816-.42,1.176-.636Z" transform="translate(81.333 18)" fill="#ed4c24"/><path d="M10.14-6.984c0-.348.024-.828.036-1.1-.2.012-.7.024-1.044.024h-.06L9.9-8.412a14.687,14.687,0,0,0-.936-1.608l-.984.408a10.819,10.819,0,0,1,.888,1.548H3.084c-.42,0-1.032-.024-1.488-.072v1.668c.336-.024.984-.048,1.488-.048h5.4v4.968H2.94c-.54,0-1.08-.036-1.488-.072V.1C1.848.06,2.52.024,2.988.024H8.472c0,.216,0,.432-.012.624H10.2c-.036-.36-.06-1-.06-1.416ZM9.588-10a14.224,14.224,0,0,1,.96,1.608l1-.432c-.228-.42-.66-1.152-.96-1.584ZM13.1-3.672c.444-.036,1.248-.06,1.932-.06H21.48c.5,0,1.116.048,1.4.06V-5.556c-.312.024-.852.072-1.4.072H15.036c-.624,0-1.5-.036-1.932-.072ZM34.14-6.984c0-.348.024-.828.036-1.1-.2.012-.7.024-1.044.024h-.06l.828-.348a14.688,14.688,0,0,0-.936-1.608l-.984.408a10.819,10.819,0,0,1,.888,1.548H27.084c-.42,0-1.032-.024-1.488-.072v1.668c.336-.024.984-.048,1.488-.048h5.4v4.968H26.94c-.54,0-1.08-.036-1.488-.072V.1c.4-.036,1.068-.072,1.536-.072h5.484c0,.216,0,.432-.012.624H34.2c-.036-.36-.06-1-.06-1.416ZM33.588-10a14.224,14.224,0,0,1,.96,1.608l1-.432c-.228-.42-.66-1.152-.96-1.584ZM37.1-3.672c.444-.036,1.248-.06,1.932-.06H45.48c.5,0,1.116.048,1.4.06V-5.556c-.312.024-.852.072-1.4.072H39.036c-.624,0-1.5-.036-1.932-.072Z" transform="translate(142.333 17)" fill="#ed4c24"/><path d="M8.227.354Q.977.354.977-9.827q0-5.282,1.961-8.05a6.534,6.534,0,0,1,5.685-2.768q7.08,0,7.08,10.351,0,5.154-1.933,7.9A6.367,6.367,0,0,1,8.227.354Zm.2-17.587q-2.9,0-2.9,7.292,0,6.868,2.846,6.868,2.775,0,2.775-7.08T8.425-17.233Zm20.327-3.526V0h-4.46V-15.718a5.342,5.342,0,0,1-.871.616,8.99,8.99,0,0,1-1.069.524,9.546,9.546,0,0,1-1.175.4,8.584,8.584,0,0,1-1.2.234v-3.767a18.606,18.606,0,0,0,3.285-1.3,18.7,18.7,0,0,0,2.79-1.742ZM40.016-3.71h8.609V0H35.117V-1.529a7.118,7.118,0,0,1,.524-2.8,9.281,9.281,0,0,1,1.317-2.223,11.423,11.423,0,0,1,1.735-1.742q.942-.758,1.791-1.366.892-.637,1.565-1.218a8.916,8.916,0,0,0,1.133-1.154,4.387,4.387,0,0,0,.687-1.161,3.453,3.453,0,0,0,.227-1.253,2.519,2.519,0,0,0-.736-1.968,3.273,3.273,0,0,0-2.251-.666A7.562,7.562,0,0,0,36.094-15v-3.937a10.76,10.76,0,0,1,5.976-1.713,8.825,8.825,0,0,1,2.768.4,5.857,5.857,0,0,1,2.074,1.154,4.922,4.922,0,0,1,1.3,1.82,6.141,6.141,0,0,1,.446,2.386,6.728,6.728,0,0,1-.432,2.492,7.658,7.658,0,0,1-1.147,1.982,10.4,10.4,0,0,1-1.65,1.635q-.935.743-1.94,1.437-.68.481-1.31.956a12.417,12.417,0,0,0-1.112.935,5.073,5.073,0,0,0-.765.9A1.552,1.552,0,0,0,40.016-3.71ZM59.139.354q-7.25,0-7.25-10.181,0-5.282,1.961-8.05a6.534,6.534,0,0,1,5.685-2.768q7.08,0,7.08,10.351,0,5.154-1.933,7.9A6.367,6.367,0,0,1,59.139.354Zm.2-17.587q-2.9,0-2.9,7.292,0,6.868,2.846,6.868,2.775,0,2.775-7.08T59.337-17.233ZM77.653-6.174H69.908V-9.3h7.746Zm3.9,5.508V-4.56a7.86,7.86,0,0,0,4.758,1.487,4.283,4.283,0,0,0,2.669-.736,2.445,2.445,0,0,0,.956-2.053,2.334,2.334,0,0,0-1.182-2.1,6.126,6.126,0,0,0-3.25-.736H83.621v-3.427h1.742q3.965,0,3.965-2.634,0-2.478-3.044-2.478a6.941,6.941,0,0,0-3.965,1.317v-3.653A10.95,10.95,0,0,1,87.3-20.646a7.522,7.522,0,0,1,4.85,1.4A4.461,4.461,0,0,1,93.888-15.6q0,3.979-4.036,4.984v.071a5.486,5.486,0,0,1,3.4,1.565A4.412,4.412,0,0,1,94.5-5.806a5.448,5.448,0,0,1-2.082,4.5A9,9,0,0,1,86.666.354,11.111,11.111,0,0,1,81.554-.666Zm16.971,0V-4.56a7.86,7.86,0,0,0,4.758,1.487,4.283,4.283,0,0,0,2.669-.736,2.445,2.445,0,0,0,.956-2.053,2.334,2.334,0,0,0-1.182-2.1,6.126,6.126,0,0,0-3.25-.736h-1.883v-3.427h1.742q3.965,0,3.965-2.634,0-2.478-3.044-2.478a6.941,6.941,0,0,0-3.965,1.317v-3.653a10.95,10.95,0,0,1,4.984-1.076,7.522,7.522,0,0,1,4.85,1.4,4.461,4.461,0,0,1,1.735,3.639q0,3.979-4.036,4.984v.071a5.486,5.486,0,0,1,3.4,1.565,4.412,4.412,0,0,1,1.246,3.179,5.448,5.448,0,0,1-2.082,4.5A9,9,0,0,1,103.636.354,11.111,11.111,0,0,1,98.525-.666Zm27.1-20.093V0h-4.46V-15.718a5.342,5.342,0,0,1-.871.616,8.99,8.99,0,0,1-1.069.524,9.546,9.546,0,0,1-1.175.4,8.584,8.584,0,0,1-1.2.234v-3.767a18.606,18.606,0,0,0,3.285-1.3,18.7,18.7,0,0,0,2.79-1.742ZM139.036.354q-7.25,0-7.25-10.181,0-5.282,1.961-8.05a6.534,6.534,0,0,1,5.685-2.768q7.08,0,7.08,10.351,0,5.154-1.933,7.9A6.367,6.367,0,0,1,139.036.354Zm.2-17.587q-2.9,0-2.9,7.292,0,6.868,2.846,6.868,2.775,0,2.775-7.08T139.235-17.233ZM157.55-6.174H149.8V-9.3h7.746Zm4.255,5.65V-4.347a8.347,8.347,0,0,0,4.432,1.274,4.163,4.163,0,0,0,2.768-.843A2.836,2.836,0,0,0,170-6.2q0-3.016-4.262-3.016a31.561,31.561,0,0,0-3.625.241l.765-11.328h10.748v3.653h-7.335l-.283,4.064q1.09-.085,1.883-.085a6.925,6.925,0,0,1,4.9,1.643,5.736,5.736,0,0,1,1.77,4.418,6.521,6.521,0,0,1-2.11,5.02A8.107,8.107,0,0,1,166.733.354,12.241,12.241,0,0,1,161.805-.524Zm16.971,0V-4.347a8.347,8.347,0,0,0,4.432,1.274,4.163,4.163,0,0,0,2.768-.843,2.836,2.836,0,0,0,1-2.287q0-3.016-4.262-3.016a31.561,31.561,0,0,0-3.625.241l.765-11.328H190.6v3.653h-7.335l-.283,4.064q1.09-.085,1.883-.085a6.925,6.925,0,0,1,4.9,1.643,5.736,5.736,0,0,1,1.77,4.418,6.521,6.521,0,0,1-2.11,5.02A8.107,8.107,0,0,1,183.7.354,12.241,12.241,0,0,1,178.776-.524Z" transform="translate(0.333 48)" fill="#ed4c24"/></g><g transform="translate(378.117 482.451)"><circle cx="20" cy="20" r="20" transform="translate(-0.117 -0.451)" fill="#ed4c24"/><path d="M21.094,15.937l-3.029-3.03a2.014,2.014,0,0,0-3.354.757,2.061,2.061,0,0,1-2.38,1.3A9.345,9.345,0,0,1,6.7,9.334,1.961,1.961,0,0,1,8,6.954,2.016,2.016,0,0,0,8.76,3.6L5.73.568a2.16,2.16,0,0,0-2.921,0L.754,2.624c-2.055,2.164.217,7.9,5.3,12.987s10.819,7.468,12.983,5.3l2.055-2.056A2.162,2.162,0,0,0,21.094,15.937Z" transform="translate(11.48 7.272) rotate(11)" fill="#fff"/></g><path d="M-26.532-5.621v.594H-27.8v-.594Zm2.464.594h-1.3v-.594h1.3Zm-1.3,1.529v-.616h1.3V-3.5Zm-2.431,0v-.616h1.265V-3.5Zm0,.946h1.265V-.946h1.166V-2.552h1.3v.506c0,.11-.033.154-.165.165-.11,0-.5,0-.836-.011A3.577,3.577,0,0,1-24.75-.869a3.31,3.31,0,0,0,1.485-.187c.352-.176.451-.451.451-.979V-6.567h-1.331c-.187-.11-.418-.22-.66-.341a12.52,12.52,0,0,0,1.958-1.485l-.781-.627-.253.066H-28.93v.99h3.916a10.163,10.163,0,0,1-.88.583c-.451-.2-.913-.374-1.3-.517l-.847.7c.451.176.979.4,1.474.627h-2.464V-.9H-27.8Zm-1.837-4.84a9.422,9.422,0,0,0-1.914-1.694l-.9.836a8.929,8.929,0,0,1,1.837,1.793Zm-.33,2.343h-2.651v1.2h1.4v2.4a15.141,15.141,0,0,1-1.54,1l.6,1.309c.616-.462,1.133-.891,1.639-1.32A3.412,3.412,0,0,0-27.665.759c1.342.055,3.674.033,5.027-.033A5.405,5.405,0,0,1-22.231-.55c-1.507.121-4.114.154-5.423.1a2.511,2.511,0,0,1-2.31-1.089Zm12.155-3.927h-3.245v.99h3.245Zm-1.067,7.205V-.517h-1.177V-1.771Zm1.111-1.034h-3.388V.946h1.1V.517h2.288Zm-3.355-.561h3.3v-.99h-3.3Zm3.3-2.519h-3.3v.979h3.3Zm-3.817-.539h4.18V-7.458h-4.18Zm8.569,5.676h-2.5v-1.54h2.5Zm1.749-4.169V-6.138h-2.365V-7.667A16.728,16.728,0,0,0-11.6-8.118l-.924-1.089a24.044,24.044,0,0,1-4.664.8,4.281,4.281,0,0,1,.352,1.1c.583-.044,1.21-.1,1.826-.176v1.342H-17.38v1.221h2.365v1.452h-1.793V.957h1.243V.429h2.5V.913h1.309V-3.465h-1.925V-4.917Zm8.228-2.475A8.266,8.266,0,0,0-4.84-8.723l-.627.88a8.85,8.85,0,0,1,1.705,1.43ZM-5.973-5.071a9.288,9.288,0,0,1,1.8,1.364l.66-1.045A9.663,9.663,0,0,0-5.357-6.017Zm-.99-3.641a18.708,18.708,0,0,1-.605,2.574l.825.231c.275-.638.594-1.683.88-2.563ZM-9.1-6.138a11.029,11.029,0,0,0-.561-2.519l-.913.242a10.9,10.9,0,0,1,.495,2.53Zm3,3.619c-.231-.308-1.276-1.54-1.595-1.859v-.077h1.628V-5.676H-7.689v-3.6H-8.9v3.6H-10.56v1.221h1.254a10.183,10.183,0,0,1-1.452,2.849,7.773,7.773,0,0,1,.594,1.353A11.289,11.289,0,0,0-8.9-2.959V.924h1.21V-2.937A14.694,14.694,0,0,1-6.9-1.507Zm5.819.253-.2-1.221-1.122.209v-6.05H-2.827v6.27l-3.267.583.2,1.221,3.069-.55V.946h1.232v-2.97Zm8.1-3.344H6.985V-7.018h.836Zm0,2.563H6.985v-1.4h.836ZM3.2-4.444h.792v1.4H3.2Zm2.695,0v1.4H5.082v-1.4ZM5.082-5.61V-7.018H5.9V-5.61ZM3.2-7.018h.792V-5.61H3.2ZM2.046-5.61H.572v1.166H2.046v1.4H.737v1.166H10.3V-3.047H9.02v-1.4h1.43V-5.61H9.02V-7.018h1.034V-8.173h-6.6a5.922,5.922,0,0,0,.429-.77L2.607-9.317A6.764,6.764,0,0,1,.33-6.688,12.114,12.114,0,0,1,1.4-5.83,7.559,7.559,0,0,0,2.046-6.4ZM1.705.968a6.02,6.02,0,0,0,1.254-2.31L1.694-1.65A5.42,5.42,0,0,1,.462.462ZM3.663-1.265a13.963,13.963,0,0,1,.209,2.1L5.148.649a14.244,14.244,0,0,0-.264-2.057Zm2.178.022A11.722,11.722,0,0,1,6.4.847L7.711.594a12.258,12.258,0,0,0-.638-2.046ZM8.019-1.3A14.168,14.168,0,0,1,9.317.957L10.659.506a14.92,14.92,0,0,0-1.386-2.2Zm10.89-6.094A8.266,8.266,0,0,0,17.16-8.723l-.627.88a8.85,8.85,0,0,1,1.7,1.43ZM16.027-5.071a9.288,9.288,0,0,1,1.8,1.364l.66-1.045a9.663,9.663,0,0,0-1.848-1.265Zm-.99-3.641a18.709,18.709,0,0,1-.605,2.574l.825.231c.275-.638.594-1.683.88-2.563ZM12.9-6.138a11.029,11.029,0,0,0-.561-2.519l-.913.242a10.9,10.9,0,0,1,.495,2.53Zm3,3.619c-.231-.308-1.276-1.54-1.595-1.859v-.077h1.628V-5.676H14.311v-3.6H13.1v3.6H11.44v1.221h1.254a10.183,10.183,0,0,1-1.452,2.849,7.773,7.773,0,0,1,.594,1.353A11.289,11.289,0,0,0,13.1-2.959V.924h1.21V-2.937a14.7,14.7,0,0,1,.792,1.43Zm5.819.253-.2-1.221-1.122.209v-6.05H19.173v6.27l-3.267.583.2,1.221,3.069-.55V.946h1.232v-2.97Zm5.214-.561h1.133l.385-3.762.055-1.639H26.5l.044,1.639ZM27.5.1A1.076,1.076,0,0,0,28.644-.979,1.091,1.091,0,0,0,27.5-2.068,1.091,1.091,0,0,0,26.356-.979,1.076,1.076,0,0,0,27.5.1Z" transform="translate(462 491)" fill="#ed4c24"/></g></svg>