<svg xmlns="http://www.w3.org/2000/svg" width="82.362" height="110.831" viewBox="0 0 82.362 110.831">
  <g id="ico-arrow-pin" transform="translate(-13191.075 335.186) rotate(-90)">
    <path id="合体_7" data-name="合体 7" d="M55.106,82.193.692,45.862a1,1,0,0,1,.555-1.832H15.707V0h78.64V44.031h15.728a1,1,0,0,1,.555,1.832L56.217,82.193a1,1,0,0,1-1.111,0Z" transform="translate(224.109 13191.075)" fill="#e288b1"/>
    <path id="パス_90272" data-name="パス 90272" d="M.4,0H3.18l.66-3.74H6.66L7.3,0h2.74L6.8-16.2H3.64ZM4.14-5.62l1.1-6.8,1.1,6.8ZM11.66,0H14.6V-7.38h3.04V-9.44H14.6v-4.72h3.72V-16.2H11.66Zm9.88,0H24.5V-14.02h2.52V-16.2H18.96v2.18h2.58ZM28.5,0h6.84V-2.02h-3.9V-7.4h3.04V-9.46H31.44v-4.66H35.3V-16.2H28.5Zm8.56,0H40V-7.42h1.4L43.34,0H46.3L44.04-7.98c1.52-.62,2-1.98,2-3.92,0-3.26-1.84-4.3-5.08-4.3h-3.9ZM40-9.26v-4.92h1.1c1.7,0,2.16.8,2.16,2.44,0,1.74-.62,2.48-2.32,2.48Z" transform="translate(270.629 13201.531) rotate(90)" fill="#fff"/>
  </g>
</svg>
