<svg xmlns="http://www.w3.org/2000/svg" xmlns:xlink="http://www.w3.org/1999/xlink" width="514" height="416.972" viewBox="0 0 514 416.972"><defs><clipPath id="a"><rect width="111.577" height="168.11" transform="translate(-8.727 0)" fill="#fff" stroke="#707070" stroke-width="1"/></clipPath></defs><g transform="translate(-15 -4435)"><rect width="513.256" height="416.556" transform="translate(15 4435)" fill="#fff" opacity="0"/><line x2="514" transform="translate(15 4454.422)" fill="none" stroke="#dcdcdc" stroke-width="1" stroke-dasharray="4 5"/><g transform="translate(416.679 4435)" clip-path="url(#a)"><g transform="translate(-523.897 -150.908)"><g transform="translate(514.171 150.908)"><g transform="translate(0 0)"><path d="M544.469,626.117s-6.554.059-16.429,17.771-12.959,69.483-12.959,69.483l11.34-.668Z" transform="translate(-514.826 -492.787)" fill="#e4a643"/><path d="M670.128,245.806c-.433,5.21-4.839,31.512-4.839,31.512L603.464,274.3a182.841,182.841,0,0,1-1.974-28.7,84.153,84.153,0,0,1,1.3-13.966c.954-4.967,2.526-9.282,4.932-12.182,5.829-7.03,14.709-10.02,21.707-11.283a57.382,57.382,0,0,1,7.927-.832c1.726-.065,2.774,0,2.774,0l.155.03,6.815,1.786a27.054,27.054,0,0,1,2.621,1.36C656.1,214.139,671.822,225.239,670.128,245.806Z" transform="translate(-576.97 -191.476)" fill="#c6654d"/><path d="M669.1,315.319c.339,14.959-11.84,27.37-27.2,27.714s-28.083-11.511-28.411-26.467,11.836-27.364,27.2-27.706C656.043,288.5,668.765,300.355,669.1,315.319Z" transform="translate(-585.616 -250.15)" fill="#edbf98"/><path d="M813.886,360.427a8.809,8.809,0,1,1-9.009-8.617A8.812,8.812,0,0,1,813.886,360.427Z" transform="translate(-717.121 -295.441)" fill="#edbf98"/><path d="M610.17,261.375a50.081,50.081,0,0,0-2.051,8.837c-.215,1.71-1.219,5.772.041,7.172,1.789-2.429,2.541-5.59,4.63-7.9a73.5,73.5,0,0,1,8.977-8.585,16.025,16.025,0,0,1-1.274,5.482c3.925-1.692,7.7-5.539,10.626-8.568,2.721,4.234,8.14,7.178,12.2,9.776,3.566,2.28,8.874,5.877,13.1,6.533-1.548-3.56-4.087-6.75-4.572-10.763,2.678,3.123,4.164,7.37,6.948,10.6,2.446,2.844,4.488,5.581,7.815,7.207,2.983-6.243,5.363-11.939,3.941-19.287-1.07-5.5-4.4-10.556-8.036-14.558-3.586-3.947-8.51-6-13.568-7.208-1.668-.4-4.069.1-5.651-.785a8.278,8.278,0,0,0-4.431-1.022c-7.913.077-15.072,3.625-20.978,8.944C613.611,251.1,611.921,255.8,610.17,261.375Z" transform="translate(-581.341 -213.785)" fill="#c6654d"/><path d="M662.961,353.163a2.793,2.793,0,0,1-1.346,3.544,2.452,2.452,0,0,1-3.294-1.442,2.79,2.79,0,0,1,1.361-3.54A2.453,2.453,0,0,1,662.961,353.163Z" transform="translate(-617.74 -295.231)" fill="#0d0002"/><path d="M734.432,353.163a2.8,2.8,0,0,1-1.346,3.544,2.454,2.454,0,0,1-3.3-1.442,2.793,2.793,0,0,1,1.358-3.54A2.459,2.459,0,0,1,734.432,353.163Z" transform="translate(-669.156 -295.231)" fill="#0d0002"/><path d="M700.524,372.973a.651.651,0,0,1-.476-.206c-.236-.251-.5-.487-.758-.716a3.992,3.992,0,0,1-1.779-3.175,26.347,26.347,0,0,1,1.728-5.574c.411-1.105.8-2.15.915-2.61a.654.654,0,1,1,1.268.321c-.134.528-.515,1.555-.957,2.744a30.936,30.936,0,0,0-1.647,5.157c-.025.9.469,1.381,1.343,2.16.277.247.564.5.839.8a.654.654,0,0,1-.476,1.1Z" transform="translate(-646.07 -301.478)" fill="#0d0002"/><path d="M667.89,202.616l-2.067,7.278c-.431-1.266-.955-2.53-1.419-3.609a84.665,84.665,0,0,0-4.531-9.528c-3.67-6.658-8.451-13.474-15.3-17.387-11.006-6.29-24.2-.956-32.4,7.552a32.506,32.506,0,0,0-4.381,5.643,71.421,71.421,0,0,0-5.086,9.59c-.4.923-.772,1.882-1.143,2.868a60.039,60.039,0,0,1,1.3-11.82c1.325-2.064,5.823-10.75,13.719-15.933a36.919,36.919,0,0,1,9.558-4.314c2.13-.649,6.477-1.419,8.544-.279a13.648,13.648,0,0,1-5.182-5.085.776.776,0,0,1-.184-.25c-2.959-4.993-3.423-11.65-.465-16.432,3.365,2.711,6.077,8.108,7.619,12.055a18.315,18.315,0,0,1,.9,3.3,2.82,2.82,0,0,1,.061.494,58.081,58.081,0,0,0,1.232,7.058,22.966,22.966,0,0,1,1.7-7.027,21.526,21.526,0,0,1,1.632-3.242c2.777-4.53,13.94-10.419,13.94-10.419s2.219-2.806,0,8.852a10.994,10.994,0,0,1-3.486,5.949,16.727,16.727,0,0,1-2.651,2.006,30.234,30.234,0,0,1-8.356,3.421c8.88-1.482,16.588,8.448,20.412,14.859A60.874,60.874,0,0,1,667.89,202.616Z" transform="translate(-577.043 -150.908)" fill="#4c8fc4"/><path d="M680.159,508.817l15.1-.694-4.208-3.961c-4.207-3.962-6.191-31.936-6.191-31.936h-5.2v.053l0-.053h-5.2s-1.982,27.974-6.19,31.936l-4.209,3.961,15.1.694v.047l.494-.021.494.021Z" transform="translate(-622.009 -382.073)" fill="#edbf98"/><path d="M639.3,789.06,621.353,621.489l-25.725-24.243-31.864.512-23.134,25.7L526.206,787.59Z" transform="translate(-522.829 -472.017)" fill="#e4a643"/><path d="M751.806,597.246s-14.834,92.037-5.34,103.767,42.448,8.936,42.448,8.936-4.12-80.641-11.17-92.157S751.806,597.246,751.806,597.246Z" transform="translate(-679.008 -472.017)" fill="#e4a643"/><path d="M577.789,597.246s14.833,92.037,5.34,103.767S543.96,711.5,543.96,711.5s2.059-81.535,7.891-93.712C557.87,605.225,577.789,597.246,577.789,597.246Z" transform="translate(-535.602 -472.017)" fill="#e4a643"/><path d="M718.436,274.883a.792.792,0,0,1-.507-.183,10.842,10.842,0,0,1-1.4-1.419.8.8,0,1,1,1.225-1.021,9.289,9.289,0,0,0,1.194,1.211.8.8,0,0,1-.509,1.412Zm-3.82-5.186a.8.8,0,0,1-.7-.412c-.173-.314-.339-.62-.5-.911l-.392-.722a.8.8,0,1,1,1.4-.757l.39.719c.156.288.319.59.491.9a.8.8,0,0,1-.7,1.183Zm-2.835-5.817a.8.8,0,0,1-.745-.511c-.232-.6-.443-1.208-.625-1.8a.8.8,0,1,1,1.523-.472c.172.555.371,1.126.591,1.7a.8.8,0,0,1-.744,1.084Zm-1.518-6.273a.8.8,0,0,1-.794-.73c-.044-.523-.067-1.05-.067-1.566q0-.183,0-.366a.8.8,0,0,1,1.594.034q0,.166,0,.333c0,.471.021.953.062,1.431a.8.8,0,0,1-.727.862C710.308,257.606,710.285,257.608,710.263,257.608Z" transform="translate(-654.626 -225.194)" fill="#e17632"/><path d="M755.722,289.5a.8.8,0,0,1-.5-.175c-.1-.084-.206-.171-.3-.26a.8.8,0,1,1,1.071-1.182c.075.068.152.134.232.2a.8.8,0,0,1-.5,1.419Zm-2.586-4.172a.8.8,0,0,1-.753-.536c-.195-.561-.369-1.129-.537-1.68l-.034-.111a.8.8,0,1,1,1.525-.467l.034.112c.164.536.334,1.091.519,1.624a.8.8,0,0,1-.753,1.059Zm-2.083-6.13a.8.8,0,0,1-.749-.523c-.211-.574-.425-1.147-.646-1.717a.8.8,0,1,1,1.486-.578c.225.579.443,1.162.658,1.746a.8.8,0,0,1-.749,1.072Zm-2.534-5.953a.8.8,0,0,1-.717-.446q-.427-.813-.857-1.6a.8.8,0,0,1,1.4-.768q.438.8.87,1.622l.021.041a.8.8,0,0,1-.715,1.149Zm-3.234-5.606a.8.8,0,0,1-.67-.364c-.335-.518-.678-1.025-1.017-1.507a.8.8,0,1,1,1.3-.919c.352.5.706,1.024,1.052,1.559a.8.8,0,0,1-.668,1.231Zm-3.906-5.156a.794.794,0,0,1-.594-.265c-.4-.45-.82-.893-1.24-1.318a.8.8,0,1,1,1.134-1.121c.439.444.875.907,1.294,1.376a.8.8,0,0,1-.594,1.329Z" transform="translate(-676.145 -229.062)" fill="#e17632"/><path d="M618.181,295.523c-.025,0-.05,0-.075,0a.8.8,0,0,1-.719-.868,19.107,19.107,0,0,1,.282-1.911.8.8,0,0,1,1.564.309,17.5,17.5,0,0,0-.259,1.75A.8.8,0,0,1,618.181,295.523Zm1.562-6.269a.8.8,0,0,1-.747-1.076c.214-.575.45-1.165.7-1.754a.8.8,0,1,1,1.467.625c-.241.566-.468,1.133-.673,1.685A.8.8,0,0,1,619.742,289.254Zm2.712-5.879a.8.8,0,0,1-.7-1.18c.3-.547.613-1.1.932-1.633a.8.8,0,0,1,1.37.816c-.31.52-.613,1.052-.9,1.582A.8.8,0,0,1,622.455,283.376Zm3.465-5.469a.8.8,0,0,1-.643-1.268c.377-.516.763-1.02,1.147-1.5a.8.8,0,0,1,1.244,1c-.369.46-.74.945-1.1,1.443A.8.8,0,0,1,625.92,277.906Zm4.261-4.87a.8.8,0,0,1-.539-1.385,19.246,19.246,0,0,1,1.483-1.236.8.8,0,1,1,.954,1.278c-.44.328-.9.71-1.36,1.133A.794.794,0,0,1,630.181,273.037Z" transform="translate(-588.424 -236.771)" fill="#e17632"/><path d="M766.364,379.48a3.191,3.191,0,1,1-3.192-3.191A3.191,3.191,0,0,1,766.364,379.48Z" transform="translate(-691.015 -313.054)" fill="#e9706e"/><path d="M630.286,379.48a3.189,3.189,0,1,1-3.191-3.191A3.189,3.189,0,0,1,630.286,379.48Z" transform="translate(-593.118 -313.054)" fill="#e9706e"/><path d="M763.24,382.578a.609.609,0,0,1-.417-.165c-.81-.758-2.119-2.141-1.784-2.9a1.011,1.011,0,0,1,.586-.544c.722-.271,1.813.114,3.231.775l.2.09.148.063-.086-.116c-.063-.082-.132-.177-.207-.28-.38-.52-1.165-1.6-1.7-1.6h-.038a.611.611,0,0,1-.022-1.222c1.182-.039,2.13,1.244,2.752,2.1.071.1.136.186.2.265.5.669,1,1.429.557,1.993s-1.309.253-2.083-.084c-.056-.024-.131-.06-.223-.1a9.228,9.228,0,0,0-1.921-.724,12.922,12.922,0,0,0,1.239,1.389.611.611,0,0,1-.418,1.057Z" transform="translate(-691.736 -313.339)" fill="#e55a65"/><path d="M628.125,382.577a.61.61,0,0,1-.416-.163c-.652-.607-2.133-2.1-1.789-2.893a1.013,1.013,0,0,1,.587-.548c.72-.272,1.815.114,3.237.776l.193.089.145.062-.085-.115c-.062-.082-.129-.174-.2-.274-.383-.527-1.184-1.631-1.726-1.6a.611.611,0,1,1-.046-1.221c1.194-.045,2.137,1.249,2.76,2.105.068.094.132.181.19.258.5.667,1,1.427.557,1.991s-1.309.254-2.083-.083c-.055-.024-.129-.058-.219-.1a9.22,9.22,0,0,0-1.924-.726,12.92,12.92,0,0,0,1.237,1.387.611.611,0,0,1-.416,1.059Z" transform="translate(-594.53 -313.339)" fill="#e55a65"/><path d="M814.811,626.117s7.418-.16,17.289,17.552S843.44,709.7,843.44,709.7l-8.105,3.669Z" transform="translate(-730.46 -492.787)" fill="#e4a643"/><g transform="translate(4.983 68.69)"><path d="M579.924,426.02c-2.136,1.72-3.5,4.089-5.467,5.881-1.275,1.159-1.945-.52-2.663-1.77a53.213,53.213,0,0,1-3.661-8.063c-2.268-6.116-9.47-20.472-10.707-18.535a10.031,10.031,0,0,1-.533.86c-1.019-2.638-2.2-6.1-4.57-7.764-1.622.8,1.574,7.657,1.91,9.1a11.985,11.985,0,0,0-2.017-1.877c-.779.634-.265,1.672.022,2.444,1.329,3.569,2.336,6.109,3.682,9.672.7,1.851,1.229,3.757,1.8,5.653.123.406.932,2.039.238,2.289-.586.213-1.6-1.5-1.865-1.943a12.385,12.385,0,0,1-1.317-3.514c-.38-1.773-1.035-4.7-2.892-5.521-1.593-.7-.965.87-.677,2.021.356,1.432.843,2.8,1.118,4.239a35.319,35.319,0,0,0,.406,3.555c.537,1.753,2.116,3.774,3.04,5.378,1.249,2.169,2.614,4.207,3.66,6.48.663,1.447,1.7,2.728,2.046,4.308.349,1.561.67,3.179.994,4.769a45.388,45.388,0,0,1,.817,6.069,17.924,17.924,0,0,1-.254,4.062l-31.1,89.173L544.88,546.6l27.6-96.766a6.544,6.544,0,0,1,.721-1.4c.848-1.183,2.123-1.848,3-2.916.793-.97.9-2.467,1.173-3.656.328-1.409.606-2.818.982-4.232.746-2.818.809-5.843,2.091-8.5C580.906,428.18,582.46,423.977,579.924,426.02Z" transform="translate(-531.931 -396.377)" fill="#edbf98"/><path d="M768.779,537.952l-32.034-84.565a18.019,18.019,0,0,1-.461-4.042,45.415,45.415,0,0,1,.51-6.105c.244-1.6.485-3.239.753-4.813.271-1.593,1.238-2.929,1.824-4.4.93-2.324,2.192-4.431,3.331-6.658.842-1.647,2.316-3.749,2.764-5.527a35.431,35.431,0,0,0,.224-3.568c.206-1.452.619-2.844.9-4.29.23-1.168.777-2.761-.777-1.985-1.815.914-2.322,3.867-2.612,5.657a12.532,12.532,0,0,1-1.135,3.582c-.243.449-1.171,2.216-1.768,2.031-.7-.216.022-1.884.125-2.3.469-1.92.9-3.851,1.509-5.734,1.163-3.628,2.042-6.213,3.188-9.847.247-.784.708-1.844-.1-2.444a11.9,11.9,0,0,0-1.92,1.98c.265-1.462,3.111-8.467,1.449-9.189-2.281,1.778-3.287,5.3-4.17,7.988-.135-.109-.4-.6-.577-.832-1.333-1.875-7.8,12.827-9.757,19.049a53.043,53.043,0,0,1-3.247,8.24c-.655,1.281-1.239,2.991-2.571,1.9-2.058-1.69-3.537-3.987-5.759-5.6-2.635-1.914-.87,2.205-.364,3.135,1.418,2.6,1.631,5.61,2.52,8.386.446,1.392.8,2.786,1.193,4.179.334,1.173.517,2.661,1.358,3.593.923,1.018,2.23,1.621,3.14,2.76a6.542,6.542,0,0,1,.788,1.356l28.927,92.328Z" transform="translate(-665.117 -395.73)" fill="#edbf98"/></g><g transform="translate(24.441 68.212)"><path d="M621.8,451.292a.484.484,0,0,1-.121-.016.478.478,0,0,1-.342-.584l.575-2.2a.476.476,0,0,1,.018-.056,7.105,7.105,0,0,1,.776-1.5,9.374,9.374,0,0,1,1.706-1.7A9.575,9.575,0,0,0,625.723,444a5.893,5.893,0,0,0,.906-2.613c.055-.292.109-.577.171-.847.111-.479.217-.957.322-1.435.2-.92.413-1.871.664-2.813.263-.992.444-2.039.619-3.051a20.636,20.636,0,0,1,1.5-5.536,8.646,8.646,0,0,0,.848-2.952,2.739,2.739,0,0,0-.639.417,21.367,21.367,0,0,0-2.967,3.136,25.782,25.782,0,0,1-2.478,2.726,1.591,1.591,0,0,1-1.337.5c-.829-.139-1.333-1.057-1.82-1.946-.081-.148-.162-.295-.243-.437a52.954,52.954,0,0,1-3.695-8.135,108.71,108.71,0,0,0-5.221-11.311c-3.175-5.987-4.394-6.92-4.679-7.065-.057.09-.117.2-.176.3a2.252,2.252,0,0,1-.4.593.478.478,0,0,1-.76-.188l-.233-.608c-.88-2.3-1.962-5.136-3.818-6.671a1.633,1.633,0,0,0-.051.378.486.486,0,0,1-.494.463.478.478,0,0,1-.463-.494,1.507,1.507,0,0,1,.72-1.432.478.478,0,0,1,.489.036c2.222,1.561,3.435,4.572,4.4,7.082l.041-.061a.807.807,0,0,1,.784-.377c.382.041,1.545.165,5.466,7.548a109.8,109.8,0,0,1,5.3,11.472,52.079,52.079,0,0,0,3.627,7.99c.085.148.169.3.253.454.342.623.767,1.4,1.138,1.462a.788.788,0,0,0,.536-.261,24.772,24.772,0,0,0,2.384-2.627,22.061,22.061,0,0,1,3.105-3.272c.334-.269,1.221-.984,1.844-.49,1.018.807-.575,4.152-.591,4.185a19.628,19.628,0,0,0-1.422,5.284c-.179,1.033-.364,2.1-.637,3.134-.246.924-.454,1.864-.655,2.774-.106.481-.213.962-.325,1.444-.059.257-.11.529-.162.808a6.661,6.661,0,0,1-1.106,3.042,10.451,10.451,0,0,1-1.436,1.367,8.535,8.535,0,0,0-1.541,1.525,6.174,6.174,0,0,0-.655,1.267l-.567,2.173A.479.479,0,0,1,621.8,451.292Z" transform="translate(-601.282 -394.672)" fill="#b35d55"/><path d="M726.447,450.847a.478.478,0,0,1-.456-.334l-.532-1.677a6.078,6.078,0,0,0-.717-1.232,8.589,8.589,0,0,0-1.62-1.447,10.5,10.5,0,0,1-1.5-1.288,6.682,6.682,0,0,1-1.26-2.982c-.067-.276-.132-.546-.2-.8-.133-.465-.26-.931-.388-1.4-.249-.909-.506-1.848-.8-2.767-.326-1.018-.564-2.074-.795-3.1a19.591,19.591,0,0,0-1.689-5.207c-.019-.033-1.776-3.293-.8-4.149.6-.524,1.519.146,1.866.4a22.079,22.079,0,0,1,3.27,3.113,24.746,24.746,0,0,0,2.511,2.5.77.77,0,0,0,.547.231c.367-.081.752-.873,1.061-1.509.078-.16.155-.319.234-.473a51.879,51.879,0,0,0,3.216-8.165,109.854,109.854,0,0,1,4.711-11.723c3.543-7.571,4.7-7.753,5.078-7.813a.82.82,0,0,1,.815.354l.032.042c.832-2.558,1.891-5.629,4.032-7.3a.479.479,0,0,1,.485-.061c.982.427,1.063,1.886.27,4.878a.478.478,0,0,1-.925-.245c.606-2.284.547-3.184.425-3.535-1.777,1.626-2.714,4.515-3.476,6.863l-.2.615a.479.479,0,0,1-.756.223,2.3,2.3,0,0,1-.417-.555c-.067-.107-.141-.225-.2-.306-.275.157-1.445,1.144-4.318,7.291a108.818,108.818,0,0,0-4.643,11.558,52.784,52.784,0,0,1-3.277,8.314c-.075.148-.15.3-.225.455-.441.907-.9,1.845-1.716,2.026a1.59,1.59,0,0,1-1.359-.426,25.864,25.864,0,0,1-2.611-2.6,21.344,21.344,0,0,0-3.125-2.984,2.748,2.748,0,0,0-.659-.385,8.692,8.692,0,0,0,1,2.9,20.586,20.586,0,0,1,1.782,5.455c.226,1,.46,2.037.773,3.014.3.938.56,1.888.812,2.807.126.462.253.925.385,1.387.076.267.144.55.214.839a5.917,5.917,0,0,0,1.039,2.565,9.631,9.631,0,0,0,1.365,1.166,9.449,9.449,0,0,1,1.792,1.616,7.08,7.08,0,0,1,.85,1.456.423.423,0,0,1,.021.054l.54,1.705a.478.478,0,0,1-.311.6A.472.472,0,0,1,726.447,450.847Zm12.128-49.226-.362.313a.089.089,0,0,0,.025.019Z" transform="translate(-683.377 -394.026)" fill="#b35d55"/></g><path d="M533.523,897.119c0,5.834-5.4,19.1-10.366,19.1s-8.986-4.73-8.986-10.563,4.023-10.562,8.986-10.562S533.523,891.286,533.523,897.119Z" transform="translate(-514.171 -685.42)" fill="#edbf98"/><path d="M848.186,878.1c0,5.834,5.4,19.1,10.367,19.1s8.985-4.733,8.985-10.565-4.022-10.564-8.985-10.564S848.186,872.262,848.186,878.1Z" transform="translate(-754.471 -671.733)" fill="#edbf98"/></g></g><path d="M692.5,421.8c-1.639,4.119-3.054,6.023-6.163,8.177-2.76,1.92-6.264,3.026-9.236,1.573-2.524-1.237-6.761-5.145-7.8-8.6Z" transform="translate(-111.607 -194.89)" fill="#c1143a"/><path d="M833.979,680.457a.819.819,0,0,1-.11-.008.8.8,0,0,1-.681-.9l1.335-9.672a.8.8,0,0,1,1.58.218l-1.335,9.673A.8.8,0,0,1,833.979,680.457Z" transform="translate(-229.504 -372.867)" fill="#d18700"/><path d="M590.447,680.456a.8.8,0,0,1-.789-.688l-1.333-9.673a.8.8,0,0,1,1.58-.218l1.333,9.673a.8.8,0,0,1-.681.9A.814.814,0,0,1,590.447,680.456Z" transform="translate(-53.343 -372.866)" fill="#d18700"/></g></g><line x2="65.96" transform="translate(239.885 4850.75)" fill="none" stroke="#00c5e6" stroke-width="1" stroke-dasharray="5 3"/><line x2="71.479" y2="107.316" transform="translate(237.341 4599.19)" fill="none" stroke="#00c5e6" stroke-width="1" stroke-dasharray="5 3"/><g transform="translate(26.902 4599.063)"><rect width="209.766" height="252.909" transform="translate(0.098 0)" fill="#00c5e6"/><path d="M10.44.6c6.48,0,8.88-4.2,8.88-10.12,0-4.64-1.72-6.64-3.96-7.48,2.2-.6,3.96-3.32,3.96-7.12,0-5.76-3.36-8.76-8.96-8.76-5.52,0-8.84,3.2-8.84,9.04v1.96H8.2v-1.68c0-2.36.4-4,2.16-4,1.8,0,2.36,1.36,2.36,3.88,0,3.28-.72,4.76-3.56,4.76H8.08v4.6H9.32c2.76.08,3.4,1.76,3.4,4.96,0,2.92-.36,4.32-2.16,4.32C8.72-5.04,8.2-6.32,8.2-9.56v-1.16H1.52v1.16C1.52-3.52,3.64.6,10.44.6ZM31,.6c6.48,0,8.88-4.2,8.88-10.12,0-4.64-1.72-6.64-3.96-7.48,2.2-.6,3.96-3.32,3.96-7.12,0-5.76-3.36-8.76-8.96-8.76-5.52,0-8.84,3.2-8.84,9.04v1.96h6.68v-1.68c0-2.36.4-4,2.16-4,1.8,0,2.36,1.36,2.36,3.88,0,3.28-.72,4.76-3.56,4.76H28.64v4.6h1.24c2.76.08,3.4,1.76,3.4,4.96,0,2.92-.36,4.32-2.16,4.32-1.84,0-2.36-1.28-2.36-4.52v-1.16H22.08v1.16C22.08-3.52,24.2.6,31,.6Zm12.84,5c3.44-.28,5.16-2.48,5.2-6.44V-6.16h-6.2V0h3.44a3.306,3.306,0,0,1-2.84,3.48Zm17.8-5c5.76,0,8.8-3.84,8.8-9.28V-23.36c0-5.68-2.76-9.52-8.8-9.52-6.08,0-8.84,3.84-8.84,9.52V-8.68C52.8-3.16,55.8.6,61.64.6Zm0-5.96c-1.84,0-2-2.24-2-3.48V-23.2c0-1.32-.04-3.72,2-3.72,2,0,2,2.4,2,3.72V-8.84C63.64-7.6,63.52-5.36,61.64-5.36ZM83.64.6c5.76,0,8.8-3.84,8.8-9.28V-23.36c0-5.68-2.76-9.52-8.8-9.52-6.08,0-8.84,3.84-8.84,9.52V-8.68C74.8-3.16,77.8.6,83.64.6Zm0-5.96c-1.84,0-2-2.24-2-3.48V-23.2c0-1.32-.04-3.72,2-3.72,2,0,2,2.4,2,3.72V-8.84C85.64-7.6,85.52-5.36,83.64-5.36Zm22,5.96c5.76,0,8.8-3.84,8.8-9.28V-23.36c0-5.68-2.76-9.52-8.8-9.52-6.08,0-8.84,3.84-8.84,9.52V-8.68C96.8-3.16,99.8.6,105.64.6Zm0-5.96c-1.84,0-2-2.24-2-3.48V-23.2c0-1.32-.04-3.72,2-3.72,2,0,2,2.4,2,3.72V-8.84C107.64-7.6,107.52-5.36,105.64-5.36Z" transform="translate(39.042 189.227)" fill="#fff"/><path d="M7.228-5.382V-8.658h3.25v3.276Zm-4.6-3.276H5.694v3.276H2.626Zm9.412-1.534H1.066V1.118h1.56V-3.848h7.852V-.7c0,.221-.091.3-.338.312s-1.1.013-1.846-.039a6.319,6.319,0,0,1,.559,1.547A6.006,6.006,0,0,0,11.31.832c.546-.247.728-.676.728-1.521Z" transform="translate(157.921 184.182)" fill="#fff"/><rect width="148.77" height="34.217" rx="17.109" transform="translate(30.098 111.162)" fill="#fff"/><path d="M-41.363-15.409v2.033h7.657c.038,7.239.19,11.8,2.812,11.8,1.178,0,1.577-.874,1.786-2.793a10.02,10.02,0,0,1-1.254-1.691c-.038,1.159-.171,2.147-.361,2.147-.8,0-.817-4.541-.722-11.5ZM-38.8-1.71h2.166V-7.315h2.6V-9.348h-2.6v-3.439H-38.8v3.439h-2.755v2.033H-38.8Zm-2.945-11.077a15.215,15.215,0,0,0-3.173-2.869l-1.672,1.368a14.378,14.378,0,0,1,3.059,3Zm-.475,4.066h-4.389V-6.65h2.185v4.009a24.952,24.952,0,0,1-2.6,1.748l1.1,2.356c1.045-.8,1.881-1.539,2.717-2.28,1.235,1.482,2.793,2.014,5.13,2.109,2.261.1,6.08.057,8.36-.057a11.834,11.834,0,0,1,.7-2.28c-2.527.19-6.8.247-9.025.152-1.976-.076-3.4-.589-4.18-1.862ZM-13.395-9.8v1.653H-15.5V-9.8Zm-6.308,0h1.995v1.653H-19.7Zm1.995-1.729h-4.085v5.092h3.078A11.217,11.217,0,0,1-22.9-3.4a8.217,8.217,0,0,1,1.425,1.71,12.117,12.117,0,0,0,3.762-3.173v3.477h2.2V-4.731A14.459,14.459,0,0,0-11.8-1.748a10.371,10.371,0,0,1,1.52-1.767,13.813,13.813,0,0,1-4.446-2.926h3.534v-5.092H-15.5v-1.026h4.959V-14.44H-15.5v-1.634h-2.2v1.634h-4.674v1.881h4.674Zm-5.035-1.254a15.215,15.215,0,0,0-3.173-2.869l-1.672,1.368a14.378,14.378,0,0,1,3.059,3Zm-.475,4.066h-4.389V-6.65h2.185v4.009A26.955,26.955,0,0,1-28.006-.893l1.1,2.356c1.026-.8,1.862-1.539,2.7-2.28,1.235,1.482,2.793,2.014,5.13,2.109,2.261.1,6.08.057,8.36-.057a11.834,11.834,0,0,1,.7-2.28c-2.527.19-6.8.247-9.025.152-1.976-.076-3.4-.589-4.18-1.862Zm28.937-4.94a1.1,1.1,0,0,1,1.1-1.1,1.1,1.1,0,0,1,1.1,1.1,1.1,1.1,0,0,1-1.1,1.083A1.1,1.1,0,0,1,5.719-13.661Zm-1.178,0A2.283,2.283,0,0,0,6.821-11.4,2.283,2.283,0,0,0,9.1-13.661a2.287,2.287,0,0,0-2.28-2.28A2.287,2.287,0,0,0,4.541-13.661ZM-5.852-5.909A22.892,22.892,0,0,1-8.816-.627L-6.156.494A26.123,26.123,0,0,0-3.344-4.94a47.509,47.509,0,0,0,1.615-5.719c.076-.418.285-1.349.456-1.9l-2.774-.57A27.377,27.377,0,0,1-5.852-5.909Zm9.386-.4A58.707,58.707,0,0,1,5.51.4L8.322-.513C7.79-2.394,6.783-5.434,6.1-7.144c-.7-1.843-2.014-4.75-2.793-6.232l-2.527.817A53.225,53.225,0,0,1,3.534-6.308Zm15.561-5-2.261.741a31.647,31.647,0,0,1,1.539,4.218l2.28-.8C20.387-8.018,19.456-10.488,19.1-11.305Zm4.332.532a12.805,12.805,0,0,1-2.413,6.517A12.784,12.784,0,0,1,14.706-.285L16.7,1.748a14.838,14.838,0,0,0,6.365-4.712A15.32,15.32,0,0,0,25.65-8.531c.114-.38.228-.779.456-1.387Zm-8.74.475-2.28.817a38.377,38.377,0,0,1,1.729,4.389l2.318-.874C16.074-7.03,15.162-9.329,14.687-10.3Zm28.956-2.717a6.092,6.092,0,0,1-1.653.228H38.171l.057-.1c.228-.418.7-1.273,1.159-1.938l-2.774-.912a9.141,9.141,0,0,1-.855,1.995A16.73,16.73,0,0,1,29.83-7.619l2.128,1.577a21.657,21.657,0,0,0,4.788-4.6h5.339a13.506,13.506,0,0,1-2.7,5.187A15.142,15.142,0,0,1,31.73-.76l2.242,2.014A17.9,17.9,0,0,0,41.648-4.1a19.824,19.824,0,0,0,3.306-6.346,7.607,7.607,0,0,1,.627-1.368Z" transform="translate(104.098 135.688)" fill="#1a1311"/><path d="M-36.765-8.778v-1.976a19.137,19.137,0,0,0,1.1-1.748h5.909V-14.82H-46.227V-12.5h7.581a19.93,19.93,0,0,1-8.189,7.467,13.574,13.574,0,0,1,1.558,2.052,22.7,22.7,0,0,0,6.042-4.674V1.615h2.47V-8.227a44.375,44.375,0,0,1,5.814,5.149l1.919-1.729a49.36,49.36,0,0,0-6.327-5.149Zm19.1,2.755V-8.36h4.009v2.337Zm-5.909,0c.038-.7.057-1.387.057-2V-8.36h3.572v2.337Zm3.629-6.65v2.2h-3.572v-2.2Zm6.289,2.2H-17.67v-2.2h4.009Zm2.242-4.351H-25.764v6.783c0,2.66-.171,6.042-2.242,8.322A8.346,8.346,0,0,1-26.22,1.748,10.881,10.881,0,0,0-23.826-3.9h3.876v5.3h2.28V-3.9h4.009v2.85c0,.342-.133.456-.494.456-.342,0-1.6.019-2.66-.038a8.542,8.542,0,0,1,.722,2.166,8.823,8.823,0,0,0,3.648-.4c.76-.342,1.026-.95,1.026-2.166Zm14.744,4.2h-6.65v-2.565h6.65Zm2.3-4.731H-5.51v6.878H5.624ZM-3.154-4.731v3.268H-5.985V-4.731ZM-8.132,1.653h2.147V.7h2.831v.855H-.893V-6.9H-8.132ZM2.888-1.463V-4.731H5.909v3.268ZM.722-6.9v8.55H2.888V.7H5.909v.874h2.28V-6.9ZM20.539-5.643H17.195V-8.93h3.344Zm-5.472-5.263v7.22h7.752v-7.22ZM13.243-1.482V-13.148H24.662V-1.482ZM10.887-15.466v17.1h2.356V.627H24.662V1.634h2.47v-17.1Zm33.972.57-.38.076H36.727V-12.6h7.087a21.94,21.94,0,0,1-2.2,6.574A24.194,24.194,0,0,1,39.5-12.464l-2.166.4A28.938,28.938,0,0,0,40.166-3.8a12.163,12.163,0,0,1-4.1,3.439V-15.979h-2.2V-5.358l-1.444.342v-8.873H30.305v9.367c-.475.1-.912.19-1.311.266l.513,2.318c1.292-.342,2.831-.741,4.351-1.178v4.75h2.2V-.3a8.586,8.586,0,0,1,1.5,1.919,15.138,15.138,0,0,0,4.009-3.287,12.7,12.7,0,0,0,3.914,3.306A8.17,8.17,0,0,1,47.1-.342a11.03,11.03,0,0,1-4.047-3.363A26.11,26.11,0,0,0,46.4-14.459Z" transform="translate(104.098 87.436)" fill="#fff"/><line x2="112.073" transform="translate(48.598 101.719)" fill="none" stroke="#fff" stroke-width="1" stroke-dasharray="4 5"/></g><g transform="translate(309.564 4704.273)"><rect width="209.766" height="147.282" transform="translate(0.436 0)" fill="#00c5e6"/><path d="M1.64,0H18.56V-5.24H9.08L15-14.08c2.32-3.4,4.44-6.28,4.44-10.2,0-5.36-3-8.56-8.8-8.56-6.52,0-9.08,4.28-9.08,10v1.72H8.04v-1.6c0-2.48.52-4.44,2.72-4.44,1.28,0,2.08.92,2.08,2.76,0,2.8-1.72,5.12-3.44,7.76L1.64-4.72ZM31,.6c6.48,0,8.88-4.2,8.88-10.12,0-4.64-1.72-6.64-3.96-7.48,2.2-.6,3.96-3.32,3.96-7.12,0-5.76-3.36-8.76-8.96-8.76-5.52,0-8.84,3.2-8.84,9.04v1.96h6.68v-1.68c0-2.36.4-4,2.16-4,1.8,0,2.36,1.36,2.36,3.88,0,3.28-.72,4.76-3.56,4.76H28.64v4.6h1.24c2.76.08,3.4,1.76,3.4,4.96,0,2.92-.36,4.32-2.16,4.32-1.84,0-2.36-1.28-2.36-4.52v-1.16H22.08v1.16C22.08-3.52,24.2.6,31,.6Zm12.84,5c3.44-.28,5.16-2.48,5.2-6.44V-6.16h-6.2V0h3.44a3.306,3.306,0,0,1-2.84,3.48Zm17.8-5c5.76,0,8.8-3.84,8.8-9.28V-23.36c0-5.68-2.76-9.52-8.8-9.52-6.08,0-8.84,3.84-8.84,9.52V-8.68C52.8-3.16,55.8.6,61.64.6Zm0-5.96c-1.84,0-2-2.24-2-3.48V-23.2c0-1.32-.04-3.72,2-3.72,2,0,2,2.4,2,3.72V-8.84C63.64-7.6,63.52-5.36,61.64-5.36ZM83.64.6c5.76,0,8.8-3.84,8.8-9.28V-23.36c0-5.68-2.76-9.52-8.8-9.52-6.08,0-8.84,3.84-8.84,9.52V-8.68C74.8-3.16,77.8.6,83.64.6Zm0-5.96c-1.84,0-2-2.24-2-3.48V-23.2c0-1.32-.04-3.72,2-3.72,2,0,2,2.4,2,3.72V-8.84C85.64-7.6,85.52-5.36,83.64-5.36Zm22,5.96c5.76,0,8.8-3.84,8.8-9.28V-23.36c0-5.68-2.76-9.52-8.8-9.52-6.08,0-8.84,3.84-8.84,9.52V-8.68C96.8-3.16,99.8.6,105.64.6Zm0-5.96c-1.84,0-2-2.24-2-3.48V-23.2c0-1.32-.04-3.72,2-3.72,2,0,2,2.4,2,3.72V-8.84C107.64-7.6,107.52-5.36,105.64-5.36Z" transform="translate(39.33 130.78)" fill="#fff"/><path d="M7.228-5.382V-8.658h3.25v3.276Zm-4.6-3.276H5.694v3.276H2.626Zm9.412-1.534H1.066V1.118h1.56V-3.848h7.852V-.7c0,.221-.091.3-.338.312s-1.1.013-1.846-.039a6.319,6.319,0,0,1,.559,1.547A6.006,6.006,0,0,0,11.31.832c.546-.247.728-.676.728-1.521Z" transform="translate(158.798 125.09)" fill="#fff"/><path d="M17.852,0H132.405a17.852,17.852,0,0,1,0,35.7H17.852a17.852,17.852,0,0,1,0-35.7Z" transform="translate(30.436 53.557)" fill="#fff"/><path d="M-41.363-15.409v2.033h7.657c.038,7.239.19,11.8,2.812,11.8,1.178,0,1.577-.874,1.786-2.793a10.02,10.02,0,0,1-1.254-1.691c-.038,1.159-.171,2.147-.361,2.147-.8,0-.817-4.541-.722-11.5ZM-38.8-1.71h2.166V-7.315h2.6V-9.348h-2.6v-3.439H-38.8v3.439h-2.755v2.033H-38.8Zm-2.945-11.077a15.215,15.215,0,0,0-3.173-2.869l-1.672,1.368a14.378,14.378,0,0,1,3.059,3Zm-.475,4.066h-4.389V-6.65h2.185v4.009a24.952,24.952,0,0,1-2.6,1.748l1.1,2.356c1.045-.8,1.881-1.539,2.717-2.28,1.235,1.482,2.793,2.014,5.13,2.109,2.261.1,6.08.057,8.36-.057a11.834,11.834,0,0,1,.7-2.28c-2.527.19-6.8.247-9.025.152-1.976-.076-3.4-.589-4.18-1.862ZM-13.395-9.8v1.653H-15.5V-9.8Zm-6.308,0h1.995v1.653H-19.7Zm1.995-1.729h-4.085v5.092h3.078A11.217,11.217,0,0,1-22.9-3.4a8.217,8.217,0,0,1,1.425,1.71,12.117,12.117,0,0,0,3.762-3.173v3.477h2.2V-4.731A14.459,14.459,0,0,0-11.8-1.748a10.371,10.371,0,0,1,1.52-1.767,13.813,13.813,0,0,1-4.446-2.926h3.534v-5.092H-15.5v-1.026h4.959V-14.44H-15.5v-1.634h-2.2v1.634h-4.674v1.881h4.674Zm-5.035-1.254a15.215,15.215,0,0,0-3.173-2.869l-1.672,1.368a14.378,14.378,0,0,1,3.059,3Zm-.475,4.066h-4.389V-6.65h2.185v4.009A26.955,26.955,0,0,1-28.006-.893l1.1,2.356c1.026-.8,1.862-1.539,2.7-2.28,1.235,1.482,2.793,2.014,5.13,2.109,2.261.1,6.08.057,8.36-.057a11.834,11.834,0,0,1,.7-2.28c-2.527.19-6.8.247-9.025.152-1.976-.076-3.4-.589-4.18-1.862Zm28.937-4.94a1.1,1.1,0,0,1,1.1-1.1,1.1,1.1,0,0,1,1.1,1.1,1.1,1.1,0,0,1-1.1,1.083A1.1,1.1,0,0,1,5.719-13.661Zm-1.178,0A2.283,2.283,0,0,0,6.821-11.4,2.283,2.283,0,0,0,9.1-13.661a2.287,2.287,0,0,0-2.28-2.28A2.287,2.287,0,0,0,4.541-13.661ZM-5.852-5.909A22.892,22.892,0,0,1-8.816-.627L-6.156.494A26.123,26.123,0,0,0-3.344-4.94a47.509,47.509,0,0,0,1.615-5.719c.076-.418.285-1.349.456-1.9l-2.774-.57A27.377,27.377,0,0,1-5.852-5.909Zm9.386-.4A58.707,58.707,0,0,1,5.51.4L8.322-.513C7.79-2.394,6.783-5.434,6.1-7.144c-.7-1.843-2.014-4.75-2.793-6.232l-2.527.817A53.225,53.225,0,0,1,3.534-6.308Zm15.561-5-2.261.741a31.647,31.647,0,0,1,1.539,4.218l2.28-.8C20.387-8.018,19.456-10.488,19.1-11.305Zm4.332.532a12.805,12.805,0,0,1-2.413,6.517A12.784,12.784,0,0,1,14.706-.285L16.7,1.748a14.838,14.838,0,0,0,6.365-4.712A15.32,15.32,0,0,0,25.65-8.531c.114-.38.228-.779.456-1.387Zm-8.74.475-2.28.817a38.377,38.377,0,0,1,1.729,4.389l2.318-.874C16.074-7.03,15.162-9.329,14.687-10.3Zm28.956-2.717a6.092,6.092,0,0,1-1.653.228H38.171l.057-.1c.228-.418.7-1.273,1.159-1.938l-2.774-.912a9.141,9.141,0,0,1-.855,1.995A16.73,16.73,0,0,1,29.83-7.619l2.128,1.577a21.657,21.657,0,0,0,4.788-4.6h5.339a13.506,13.506,0,0,1-2.7,5.187A15.142,15.142,0,0,1,31.73-.76l2.242,2.014A17.9,17.9,0,0,0,41.648-4.1a19.824,19.824,0,0,0,3.306-6.346,7.607,7.607,0,0,1,.627-1.368Z" transform="translate(104.436 78.854)" fill="#1a1311"/><path d="M-36.765-8.778v-1.976a19.137,19.137,0,0,0,1.1-1.748h5.909V-14.82H-46.227V-12.5h7.581a19.93,19.93,0,0,1-8.189,7.467,13.574,13.574,0,0,1,1.558,2.052,22.7,22.7,0,0,0,6.042-4.674V1.615h2.47V-8.227a44.375,44.375,0,0,1,5.814,5.149l1.919-1.729a49.36,49.36,0,0,0-6.327-5.149Zm19.1,2.755V-8.36h4.009v2.337Zm-5.909,0c.038-.7.057-1.387.057-2V-8.36h3.572v2.337Zm3.629-6.65v2.2h-3.572v-2.2Zm6.289,2.2H-17.67v-2.2h4.009Zm2.242-4.351H-25.764v6.783c0,2.66-.171,6.042-2.242,8.322A8.346,8.346,0,0,1-26.22,1.748,10.881,10.881,0,0,0-23.826-3.9h3.876v5.3h2.28V-3.9h4.009v2.85c0,.342-.133.456-.494.456-.342,0-1.6.019-2.66-.038a8.542,8.542,0,0,1,.722,2.166,8.823,8.823,0,0,0,3.648-.4c.76-.342,1.026-.95,1.026-2.166Zm14.744,4.2h-6.65v-2.565h6.65Zm2.3-4.731H-5.51v6.878H5.624ZM-3.154-4.731v3.268H-5.985V-4.731ZM-8.132,1.653h2.147V.7h2.831v.855H-.893V-6.9H-8.132ZM2.888-1.463V-4.731H5.909v3.268ZM.722-6.9v8.55H2.888V.7H5.909v.874h2.28V-6.9ZM20.539-5.643H17.195V-8.93h3.344Zm-5.472-5.263v7.22h7.752v-7.22ZM13.243-1.482V-13.148H24.662V-1.482ZM10.887-15.466v17.1h2.356V.627H24.662V1.634h2.47v-17.1Zm33.972.57-.38.076H36.727V-12.6h7.087a21.94,21.94,0,0,1-2.2,6.574A24.194,24.194,0,0,1,39.5-12.464l-2.166.4A28.938,28.938,0,0,0,40.166-3.8a12.163,12.163,0,0,1-4.1,3.439V-15.979h-2.2V-5.358l-1.444.342v-8.873H30.305v9.367c-.475.1-.912.19-1.311.266l.513,2.318c1.292-.342,2.831-.741,4.351-1.178v4.75h2.2V-.3a8.586,8.586,0,0,1,1.5,1.919,15.138,15.138,0,0,0,4.009-3.287,12.7,12.7,0,0,0,3.914,3.306A8.17,8.17,0,0,1,47.1-.342a11.03,11.03,0,0,1-4.047-3.363A26.11,26.11,0,0,0,46.4-14.459Z" transform="translate(104.436 30.602)" fill="#fff"/><line x2="112.073" transform="translate(48.936 44.884)" fill="none" stroke="#fff" stroke-width="1" stroke-dasharray="4 5"/></g><g transform="translate(309.564 4598.647)"><rect width="209.766" height="105.627" transform="translate(0.436 0)" fill="#e288b1"/><path d="M2.5-11.661H12.6v-4.056H2.5ZM20.241,0h6.513V-31.59H21.645c-1.053,1.092-4.6,2.925-5.733,3.51v4.836c1.209-.624,3.2-1.287,4.329-1.911ZM40.95.585c5.616,0,8.58-3.744,8.58-9.048V-22.776c0-5.538-2.691-9.282-8.58-9.282-5.928,0-8.619,3.744-8.619,9.282V-8.463C32.331-3.081,35.256.585,40.95.585Zm0-5.811C39.156-5.226,39-7.41,39-8.619v-14c0-1.287-.039-3.627,1.95-3.627,1.95,0,1.95,2.34,1.95,3.627v14C42.9-7.41,42.783-5.226,40.95-5.226ZM54.327,5.46c3.354-.273,5.031-2.418,5.07-6.279V-6.006H53.352V0h3.354a3.223,3.223,0,0,1-2.769,3.393ZM71.682.585c5.616,0,8.58-3.744,8.58-9.048V-22.776c0-5.538-2.691-9.282-8.58-9.282-5.928,0-8.619,3.744-8.619,9.282V-8.463C63.063-3.081,65.988.585,71.682.585Zm0-5.811c-1.794,0-1.95-2.184-1.95-3.393v-14c0-1.287-.039-3.627,1.95-3.627,1.95,0,1.95,2.34,1.95,3.627v14C73.632-7.41,73.515-5.226,71.682-5.226ZM93.132.585c5.616,0,8.58-3.744,8.58-9.048V-22.776c0-5.538-2.691-9.282-8.58-9.282-5.928,0-8.619,3.744-8.619,9.282V-8.463C84.513-3.081,87.438.585,93.132.585Zm0-5.811c-1.794,0-1.95-2.184-1.95-3.393v-14c0-1.287-.039-3.627,1.95-3.627,1.95,0,1.95,2.34,1.95,3.627v14C95.082-7.41,94.965-5.226,93.132-5.226ZM114.582.585c5.616,0,8.58-3.744,8.58-9.048V-22.776c0-5.538-2.691-9.282-8.58-9.282-5.928,0-8.619,3.744-8.619,9.282V-8.463C105.963-3.081,108.888.585,114.582.585Zm0-5.811c-1.794,0-1.95-2.184-1.95-3.393v-14c0-1.287-.039-3.627,1.95-3.627,1.95,0,1.95,2.34,1.95,3.627v14C116.532-7.41,116.415-5.226,114.582-5.226Z" transform="translate(35.522 80.6)" fill="#fff"/><path d="M7.228-5.382V-8.658h3.25v3.276Zm-4.6-3.276H5.694v3.276H2.626Zm9.412-1.534H1.066V1.118h1.56V-3.848h7.852V-.7c0,.221-.091.3-.338.312s-1.1.013-1.846-.039a6.319,6.319,0,0,1,.559,1.547A6.006,6.006,0,0,0,11.31.832c.546-.247.728-.676.728-1.521Z" transform="translate(162.349 75.996)" fill="#fff"/><path d="M-59.565-12.559h-1.9v-.931h1.9Zm-4.18,0h-1.824v-.931h1.824Zm-4.1,0h-1.805v-.931h1.805ZM-56.886-15.5H-72.2v4.959h15.314ZM-68.438-3.8H-60.8v.665h-7.638Zm0-2.223H-60.8v.646h-7.638Zm0-2.223H-60.8V-7.6h-7.638Zm10.545,6.783V-9.937H-71.212v8.474h2.546a23.025,23.025,0,0,1-4.94,1.349A18.72,18.72,0,0,1-71.554,1.9,23.441,23.441,0,0,0-65.36-.7l-1.691-.76h4.864L-63.821-.437a36.89,36.89,0,0,1,5.244,2.261l3.04-1.349c-1.216-.532-3.173-1.292-5.016-1.938Zm12.2-11.229h.551v1.482h5.187A23.369,23.369,0,0,1-41.23-6.4a23.2,23.2,0,0,1-1.406-4.769l-2.641.513A27.823,27.823,0,0,0-42.826-3.4,9.9,9.9,0,0,1-45.7-.7ZM-50.5-3.287v-1.6h2.147v1.311Zm0-5.548h2.147v1.5H-50.5Zm2.147-3.857v1.406H-50.5v-1.406Zm9.6-1.292-.475.076h-5.339v-1.33H-54.34v2.546h1.216v9.728c-.608.076-1.178.133-1.691.19L-54.3-.019c1.71-.285,3.857-.608,5.947-.969V1.824h2.66V-.133a11.526,11.526,0,0,1,1.425,1.9,12.946,12.946,0,0,0,3.078-2.66,12.335,12.335,0,0,0,2.983,2.622,10.458,10.458,0,0,1,1.9-2.28A10.163,10.163,0,0,1-39.5-3.4a26.3,26.3,0,0,0,2.546-10.146Zm6.688-1.5a18.925,18.925,0,0,1-.152,2.166,45.186,45.186,0,0,0-.494,6A21.851,21.851,0,0,0-32.471-4.1l2.812-.19a15.449,15.449,0,0,1-.114-1.8c0-2.47,1.824-5.776,3.971-5.776,1.33,0,2.28,1.33,2.28,4.18,0,4.465-2.793,5.681-7.03,6.346l1.729,2.641c5.168-.95,8.417-3.61,8.417-8.987,0-4.256-2.166-6.84-4.864-6.84A5.75,5.75,0,0,0-29.659-12.2a28.278,28.278,0,0,1,.684-3.154ZM-12.692,3.9l2.109-.874a18.588,18.588,0,0,1-2.261-9.063,18.64,18.64,0,0,1,2.261-9.063l-2.109-.874a18.334,18.334,0,0,0-2.869,9.937A18.287,18.287,0,0,0-12.692,3.9Zm6.574-15.3h4.712v3.762h2.7V-11.4h4.75v2.2H8.588v-3.99h-7.3v-.456H7.068v-1.995H-7.144v1.995h5.738v.456H-8.55V-9.2h2.432ZM1.843-7.676H5.795V-9.12H1.843Zm0-3.306v1.425H5.358v-1.425Zm-3.762,0h-3.61v1.425h3.61ZM-5.871-7.676h3.952V-9.12H-5.871ZM-4.1-3.23h2.546v.57H-4.1ZM-1.558-5.4v.589H-4.1V-5.4Zm5.491.589H1.083V-5.4h2.85ZM1.083-2.66v-.57h2.85v.57ZM2.413-.266C1.425-.266,1.14-.342,1.1-.855H6.669V-7.2H-6.745V-.1H-4.1v-.76h2.546c.057,2.052.893,2.66,3.7,2.66H5.909c2.242,0,2.983-.627,3.287-2.926a7,7,0,0,1-2.28-.855C6.783-.532,6.593-.266,5.681-.266ZM14.592-16.017A20.009,20.009,0,0,1,9.557-8.74a20.389,20.389,0,0,1,1.577,2.964A18.416,18.416,0,0,0,12.673-7.41V1.767h2.774V-11.362a31.349,31.349,0,0,0,1.881-3.743ZM22.23-.95c-.855,0-.95-.152-.95-1.33V-6.669a47.406,47.406,0,0,0,6.346-3.439L25.593-12.54A35.526,35.526,0,0,1,21.28-9.519v-6.213H18.487V-2.3c0,3.021.741,3.914,3.363,3.914h2.907c2.394,0,3.116-1.292,3.42-4.674a8.113,8.113,0,0,1-2.546-1.159c-.152,2.641-.3,3.268-1.159,3.268ZM45.98-16.112H43.491v7.391c0,.228-.1.3-.361.3-.266.019-1.2.019-1.938-.019a8.817,8.817,0,0,1,.779,2.147,7.681,7.681,0,0,0,3.04-.361c.76-.342.969-.893.969-2.014Zm-4.009.646H39.52v6.327h2.451ZM35.929-2.432A12.236,12.236,0,0,0,37.867-3.61a9.276,9.276,0,0,0,1.311,2.09c-1.083.152-2.185.285-3.249.4ZM43.6-3.876a20.619,20.619,0,0,1-2.166,1.33,6.921,6.921,0,0,1-1.14-1.33ZM31.16-12.863a6.007,6.007,0,0,0,.342-.513h1.577v.513ZM44.84-3.876h1.805V-6.023H39.387v-.931H37.81A1.971,1.971,0,0,0,38-7.03c.532-.266.684-.646.684-1.482v-2.071H35.416v-.475h3.42v-1.805h-3.42v-.513h3v-1.71h-3v-1.159H33.079v1.159h-.7c.1-.209.171-.437.247-.646l-2-.494a7.459,7.459,0,0,1-1.463,2.641c.323.171.855.456,1.273.722h-1.1v1.805h3.743v.475H30.02v3.857h2.052V-8.968h1.007v2.641h2.337V-8.968H36.5v.475c0,.152-.057.19-.209.19-.133,0-.551,0-.874-.019a7.454,7.454,0,0,1,.627,1.539h.57v.76H29.355v2.147h4.807a22.377,22.377,0,0,1-5.13,1.14A9.992,9.992,0,0,1,30.476-.779a21.669,21.669,0,0,0,2.812-.627v.589c-.684.076-1.311.133-1.862.19l.38,2.223C33.934,1.311,36.8.95,39.5.589l-.076-1.824a10.219,10.219,0,0,0,6.137,3.078A8.531,8.531,0,0,1,47.044-.342a13.368,13.368,0,0,1-3.667-.969A22.73,22.73,0,0,0,46.17-2.888Zm15.219-7.049H53.884v-1.957h6.175Zm2.831-4.6H51.224V-8.3H62.89Zm-9.4,11.21v2.565H51.3V-4.313ZM48.7,1.805h2.6V.893h2.185v.836H56.24V-6.954H48.7ZM60.23-1.748V-4.313h2.318v2.565ZM57.589-6.954V1.805H60.23V.893h2.318v.836h2.774V-6.954ZM69.692,3.9a18.287,18.287,0,0,0,2.869-9.937,18.334,18.334,0,0,0-2.869-9.937l-2.109.874a18.64,18.64,0,0,1,2.261,9.063,18.588,18.588,0,0,1-2.261,9.063Z" transform="translate(105.436 32.759)" fill="#fff"/></g><path d="M20.34-16.632v-3.744a36.26,36.26,0,0,0,2.088-3.312h11.2V-28.08H2.412v4.392H16.776A37.762,37.762,0,0,1,1.26-9.54,25.72,25.72,0,0,1,4.212-5.652,43,43,0,0,0,15.66-14.508V3.06h4.68V-15.588C24.228-12.6,29.124-8.5,31.356-5.832l3.636-3.276C32.4-11.952,26.856-16.092,23-18.864Zm36.18,5.22V-15.84h7.6v4.428Zm-11.2,0c.072-1.332.108-2.628.108-3.78v-.648H52.2v4.428Zm6.876-12.6v4.176H45.432v-4.176Zm11.916,4.176h-7.6v-4.176h7.6Zm4.248-8.244H41.184v12.852c0,5.04-.324,11.448-4.248,15.768A15.813,15.813,0,0,1,40.32,3.312C42.912.5,44.208-3.456,44.856-7.38H52.2V2.664h4.32V-7.38h7.6v5.4c0,.648-.252.864-.936.864-.648,0-3.024.036-5.04-.072a16.185,16.185,0,0,1,1.368,4.1c3.24.036,5.436-.036,6.912-.756,1.44-.648,1.944-1.8,1.944-4.1ZM96.3-20.124H83.7v-4.86H96.3Zm4.356-8.964H79.56v13.032h21.1ZM84.024-8.964v6.192H78.66V-8.964Zm-9.432,12.1H78.66v-1.8h5.364v1.62h4.284v-16.02H74.592Zm20.88-5.9V-8.964H101.2v6.192Zm-4.1-10.3v16.2h4.1v-1.8H101.2V2.988h4.32V-13.068Zm44.82-10.26h-4.536v-2.484h4.536Zm-8.1,0h-4.356v-2.484h4.356Zm-7.92,0h-4.32v-2.484h4.32Zm20.16-5.688h-28.44v8.856h28.44ZM118.152-7.38H133.92v1.8H118.152Zm0-4.32H133.92v1.8H118.152Zm0-4.284H133.92v1.764H118.152ZM138.42-2.88v-15.8H113.832v15.8h5.544A43.79,43.79,0,0,1,109.368.144a28.936,28.936,0,0,1,3.168,3.132A45.356,45.356,0,0,0,124.02-1.476l-3.132-1.4h10.044l-2.916,1.872a77.038,77.038,0,0,1,10.116,4.176l4.644-2.124c-2.52-1.116-6.66-2.7-10.476-3.924Zm23-21.636h1.26v2.808H173.3a40.832,40.832,0,0,1-3.1,10.728A43.412,43.412,0,0,1,166.9-21.636l-4.1.828a51.007,51.007,0,0,0,4.86,14.256,19.518,19.518,0,0,1-6.228,5.724ZM152.172-9.828h5.112v3.24c-1.728.216-3.456.468-5.112.684Zm0-7.416h5.112v3.6h-5.112Zm5.112-7.272v3.42h-5.112v-3.42Zm17.928-1.512-.72.108H163.728v-2.556H145.656v3.96H148.1V-5.4c-1.224.144-2.34.252-3.312.36l.828,4.284c3.312-.5,7.524-1.152,11.664-1.872v5.76h4.14V-.252A17.124,17.124,0,0,1,163.8,2.88a24.662,24.662,0,0,0,6.408-5.508A22.711,22.711,0,0,0,176.4,2.88a15.54,15.54,0,0,1,2.952-3.528,19.8,19.8,0,0,1-6.516-5.832c2.7-4.824,4.428-11.016,5.184-18.864Z" transform="translate(26.902 4518.655)" fill="#dd669c"/><path d="M24.505-16.878c0-.841.058-2,.087-2.668-.493.029-1.682.058-2.523.058h-.145l2-.841a35.494,35.494,0,0,0-2.262-3.886l-2.378.986a26.146,26.146,0,0,1,2.146,3.741H7.453c-1.015,0-2.494-.058-3.6-.174v4.031c.812-.058,2.378-.116,3.6-.116H20.5V-3.741H7.105c-1.3,0-2.61-.087-3.6-.174V.232C4.466.145,6.09.058,7.221.058H20.474c0,.522,0,1.044-.029,1.508h4.2c-.087-.87-.145-2.407-.145-3.422Zm-1.334-7.279a34.375,34.375,0,0,1,2.32,3.886L27.9-21.315c-.551-1.015-1.6-2.784-2.32-3.828Zm14.094,1.45L35.9-19.285A99.488,99.488,0,0,1,51.591-15.66l1.479-3.625A105.9,105.9,0,0,0,37.265-22.707Zm-1.334,7.8L34.6-11.4a100.825,100.825,0,0,1,15.08,3.654L51.1-11.368A119.55,119.55,0,0,0,35.931-14.906ZM34.452-6.612,33-2.958c4.64.7,13.8,2.7,17.719,4.321l1.6-3.625A116.726,116.726,0,0,0,34.452-6.612ZM76.386-19.691h2.436v12.47c0,2.639.493,3.509,2.726,3.509h1.566c1.74,0,2.465-1.015,2.7-3.973a8.621,8.621,0,0,1-2.523-1.131c-.058,2.175-.145,2.726-.464,2.726h-.609c-.319,0-.377-.116-.377-1.131v-15.37H73.225v5.365c0,3.538-.2,8.584-2.61,12.151a11.345,11.345,0,0,1,2.755,1.74c2.581-3.886,3.016-9.8,3.016-13.862Zm-8.468,2.726a38.047,38.047,0,0,1-1.6,7.83,26.509,26.509,0,0,1-1.972-5.8c.174-.667.348-1.334.493-2.03Zm1.363-2.987-.609.087H65.424c.232-1.392.435-2.784.609-4.2l-3.422-.406c-.551,5.742-1.74,11.31-4.06,14.674a21.671,21.671,0,0,1,2.581,2.581,19.9,19.9,0,0,0,1.682-3.132,26.3,26.3,0,0,0,2,4.7A13.222,13.222,0,0,1,59.479-.087a11.928,11.928,0,0,1,2.059,2.813,16.526,16.526,0,0,0,5.423-5.365C70.325,1.073,74.733,2.03,79.692,2.03H84.97a12.587,12.587,0,0,1,1.276-3.335c-1.421.058-5.191.058-6.38.058-4.379-.029-8.323-.87-11.31-4.379A42.893,42.893,0,0,0,71.34-19.633ZM97.411-6.525c-.928.319-1.885.609-2.842.9v-5.8h2.61v-3.161h-2.61v-5.1h3.1V-22.91H88.1v3.219h3.19v5.1H88.363v3.161h2.929v6.815c-1.334.377-2.523.7-3.538.957l.783,3.509c2.784-.9,6.264-2,9.454-3.132Zm4.466-8.758h2.987v2.494h-2.987Zm0-5.133h2.987v2.407h-2.987Zm8.758,2.407h-2.871v-2.407h2.871Zm0,5.22h-2.871v-2.494h2.871ZM108.083-1.508V-4.263h6.148v-3.1h-6.148V-9.86h5.829V-23.345H98.774V-9.86h5.8v2.494h-6v3.1h6v2.755h-8V1.624h18.647V-1.508Zm35.409-18.183a26.194,26.194,0,0,0-4.176-4.669l-2.581,1.595a24.674,24.674,0,0,1,3.973,4.872Zm-19.227-4.64a30.312,30.312,0,0,1-7.917,11.31,22.149,22.149,0,0,1,1.914,3.509,27.327,27.327,0,0,0,3.016-3.248V2.465h3.6V-17.922a46.074,46.074,0,0,0,2.7-5.336ZM143.927-13.92l-.493-3.248-8.265,1.073c-.2-2.465-.319-5.191-.377-8.033h-3.509c.087,3.045.261,5.887.464,8.5l-5.858.783.493,3.335L132.1-12.3c1.044,8.845,3.335,14.3,8.236,14.761,1.624.087,3.19-1.247,3.915-6.844a11.865,11.865,0,0,1-2.813-1.972c-.232,3.219-.58,4.669-1.247,4.611-2.32-.29-3.857-4.582-4.669-11.02Zm23.613-2.87a27.219,27.219,0,0,0-1.863-3.128l-1.817.759a22.947,22.947,0,0,1,1.863,3.174Zm-15.456-1.495a25.217,25.217,0,0,1-.483,4.83c-1.15.092-2.231.161-2.944.184a21.148,21.148,0,0,1-2.415,0l.253,3.082c.713-.115,1.886-.276,2.53-.345.437-.069,1.15-.161,1.955-.253-.8,3.105-2.369,7.659-4.577,10.649l2.967,1.2c2.093-3.358,3.749-8.717,4.646-12.167.644-.046,1.2-.092,1.564-.092,1.426,0,2.208.253,2.208,2.07a17.39,17.39,0,0,1-.92,6.233,1.674,1.674,0,0,1-1.7.989,13.29,13.29,0,0,1-2.806-.483l.506,3.013a12.9,12.9,0,0,0,2.714.322c1.748,0,2.99-.506,3.749-2.093.966-1.978,1.288-5.612,1.288-8.3,0-3.266-1.7-4.347-4.117-4.347-.46,0-1.15.046-1.909.092.161-.828.345-1.656.483-2.346.115-.575.253-1.288.391-1.886ZM164.8-15.732c-.46-.851-1.265-2.3-1.84-3.151l-1.817.759a25.429,25.429,0,0,1,1.564,2.714l-2.116.9a25.793,25.793,0,0,1,3.841,8.579l2.9-1.357a45.258,45.258,0,0,0-3.7-7.935Z" transform="translate(235.106 4518.237)" fill="#1a1311"/><path d="M5.32-9.1a18.794,18.794,0,0,0-.784,4.564c0,3.864,3,5.964,8.568,5.964A38.86,38.86,0,0,0,20.58.756l.084-3.668A30.658,30.658,0,0,1,13.1-2.1c-3.92,0-4.956-1.372-4.956-3.388a12.444,12.444,0,0,1,.756-3.3ZM23.408-19.992a40.563,40.563,0,0,1-5.432,1.4c-.616-1.456-1.148-2.772-1.624-4.228l-3.92.756A21.524,21.524,0,0,1,13.8-19.4c.168.42.364.868.588,1.316a47.242,47.242,0,0,1-10.36-.28l.112,3.556a62.3,62.3,0,0,0,11.676,0c.812,1.736,1.764,3.668,2.436,5.068-.84-.056-2.352-.224-3.276-.308L14.672-7.2c2.044.252,4.788.7,6.3,1.008l1.96-2.1c-1.2-2.212-2.52-4.844-3.584-7.084,1.68-.336,3.3-.728,4.7-1.12Zm13.1.9c2.156.56,8.344,1.848,11.144,2.212L48.5-20.3a87.784,87.784,0,0,1-11.088-2.156Zm1.064,2.212-3.752-.5A100.962,100.962,0,0,1,32.452-5.824l3.22.812a6.01,6.01,0,0,1,1.036-1.624,9.721,9.721,0,0,1,7.644-3.248c2.436,0,4.144,1.316,4.144,3.108,0,3.528-4.4,5.572-12.712,4.4l1.064,3.64c11.536,1.008,15.54-2.884,15.54-7.952,0-3.36-2.828-6.356-7.7-6.356a13.6,13.6,0,0,0-8.148,2.632C36.736-12.012,37.212-15.344,37.576-16.884Zm30.968-2.66.028,3.584a76.743,76.743,0,0,0,11.9,0v-3.584A56.578,56.578,0,0,1,68.544-19.544ZM67.592-7.98a17.088,17.088,0,0,0-.476,3.612C67.116-1.54,69.384.2,74.172.2a38.542,38.542,0,0,0,7.168-.56l-.084-3.752a31.957,31.957,0,0,1-6.944.728c-2.8,0-3.864-.728-3.864-1.96a9.125,9.125,0,0,1,.336-2.324ZM60.4-21.7a20.719,20.719,0,0,1-.28,2.716A76.882,76.882,0,0,0,58.968-8.008,35.4,35.4,0,0,0,60.06,1.064L63.252.84C63.224.448,63.224,0,63.2-.308A8.146,8.146,0,0,1,63.364-1.6a66.854,66.854,0,0,1,1.988-6.8L63.616-9.744c-.392.9-.84,1.82-1.232,2.8a13.382,13.382,0,0,1-.112-1.792A68.557,68.557,0,0,1,63.616-18.9a23.3,23.3,0,0,1,.672-2.464Zm30.534-.98H112v4.375h4.445V-26.53H103.6v-3.115H99.19v3.115h-12.5v8.225H90.93Zm15.5,9.94a13.886,13.886,0,0,1-3.675,6.475c-2.31-.84-4.585-1.61-6.685-2.2.7-1.365,1.47-2.8,2.205-4.27Zm10.64,0v-3.92H100.24c.735-1.47,1.435-2.905,2.065-4.27l-4.375-.91c-.7,1.61-1.54,3.4-2.45,5.18H85.96v3.92h7.525c-1.5,2.835-2.975,5.495-4.235,7.525l4.375,1.19.63-1.12c1.47.455,2.975,1.015,4.515,1.575C95.62-2.065,91.63-1.225,86.73-.735a17,17,0,0,1,2.38,3.78C94.99,2.2,99.75.84,103.46-1.645a60.109,60.109,0,0,1,8.89,4.62l3.325-3.4a64.328,64.328,0,0,0-8.75-4.235,21.239,21.239,0,0,0,4.34-8.085ZM140.56-28.735a23.939,23.939,0,0,1-2.66,2.9c-2.345,2.31-7.1,6.16-9.8,8.365-3.465,2.87-3.745,4.795-.315,7.7,3.185,2.7,8.47,7.21,10.36,9.205.98,1.05,2.065,2.135,3.045,3.22l4.025-3.71c-3.43-3.325-10.115-8.61-12.705-10.815-1.89-1.61-1.925-1.995-.07-3.57,2.31-1.995,6.9-5.53,9.135-7.35.805-.63,1.96-1.54,3.045-2.345Zm46.48,9.625a62.367,62.367,0,0,0-8.54-4.69l-2.24,3.43a46.213,46.213,0,0,1,8.33,4.935Zm-13.055-5.32a36.611,36.611,0,0,1-4.655,1.085c.49-1.855.91-3.6,1.19-4.725l-4.795-.49a29.511,29.511,0,0,1-.945,5.81c-1.05.07-2.1.105-3.115.105a44.058,44.058,0,0,1-4.62-.245l.315,4.06c1.505.07,2.9.105,4.34.105.6,0,1.19,0,1.785-.035a52.883,52.883,0,0,1-7.07,12.25l4.235,2.135a63.98,63.98,0,0,0,7.42-14.84,50.792,50.792,0,0,0,6.02-1.19Zm.84,19.285c0,1.855-.77,3.22-3.115,3.22-1.89,0-2.975-.875-2.975-2.17,0-1.225,1.295-2.065,3.29-2.065a12.267,12.267,0,0,1,2.8.35Zm-.56-12.145c.1,2.1.28,5.145.385,7.735-.735-.07-1.54-.14-2.345-.14-4.83,0-7.665,2.625-7.665,6.02,0,3.815,3.4,5.74,7.7,5.74,4.935,0,6.685-2.52,6.685-5.74V-3.99a30.855,30.855,0,0,1,4.69,3.675l2.31-3.71A23.09,23.09,0,0,0,178.85-8.47c-.105-1.715-.175-3.4-.21-4.375-.035-1.54-.1-2.975,0-4.445ZM206.185-2.1c-2.03,0-3.5-.875-3.5-2.17,0-.875.84-1.645,2.135-1.645,1.89,0,3.185,1.47,3.395,3.71A18.272,18.272,0,0,1,206.185-2.1Zm7.63-24.99a16.715,16.715,0,0,1-2.66.35c-1.96.175-9.38.35-11.2.35-.98,0-2.17-.07-3.15-.175l.14,4.515a22.872,22.872,0,0,1,2.835-.28c1.82-.14,6.58-.35,8.365-.385-1.715,1.505-5.32,4.41-7.245,6.02-2.065,1.68-6.23,5.215-8.68,7.21l3.15,3.255c3.71-4.2,7.175-7.035,12.5-7.035,4.025,0,7.175,2.1,7.175,5.215a5.053,5.053,0,0,1-2.835,4.725c-.525-3.29-3.115-5.915-7.385-5.915-3.675,0-6.23,2.59-6.23,5.39,0,3.465,3.64,5.67,8.47,5.67,8.365,0,12.53-4.34,12.53-9.8,0-5.04-4.48-8.715-10.36-8.715a11.655,11.655,0,0,0-3.255.385c2.17-1.75,5.81-4.83,7.665-6.125q1.155-.787,2.415-1.575Zm14.98,18.27h3.36l.735-12.915.175-4.865h-5.18l.175,4.865Zm1.68,9.31a3.245,3.245,0,0,0,3.22-3.36,3.245,3.245,0,0,0-3.22-3.36,3.217,3.217,0,0,0-3.185,3.36A3.217,3.217,0,0,0,230.475.49Z" transform="translate(26.902 4568.237)" fill="#1a1311"/><path d="M17.02-11.96l-1.7.713a17.746,17.746,0,0,1,1.794,3.2l1.748-.782A30.143,30.143,0,0,0,17.02-11.96ZM19.6-13.018l-1.679.782a20.234,20.234,0,0,1,1.886,3.1l1.725-.828A34.4,34.4,0,0,0,19.6-13.018ZM1.679-15.732l.3,3.128c2.645-.575,7.429-1.081,9.407-1.288A9.032,9.032,0,0,0,8.027-6.877c0,4.945,4.508,7.521,9.292,7.82l1.058-3.151c-3.864-.184-7.36-1.541-7.36-5.29a6.914,6.914,0,0,1,4.807-6.371,23.521,23.521,0,0,1,4.393-.3l-.023-2.944c-1.61.069-4.094.207-6.44.391-4.163.368-7.935.713-9.844.874C3.473-15.8,2.6-15.755,1.679-15.732Z" transform="translate(206.901 4518.655)" fill="#1a1311"/></g></svg>