<svg xmlns="http://www.w3.org/2000/svg" xmlns:xlink="http://www.w3.org/1999/xlink" width="140" height="140" viewBox="0 0 140 140">
  <defs>
    <clipPath id="clip-path">
      <circle id="楕円形_25" data-name="楕円形 25" cx="70" cy="70" r="70" transform="translate(0 0.477)" fill="#f7f3e5"/>
    </clipPath>
  </defs>
  <g id="merit_01" transform="translate(0 -0.477)">
    <circle id="楕円形_23" data-name="楕円形 23" cx="70" cy="70" r="70" transform="translate(0 0.477)" fill="#f7f3e5"/>
    <g id="マスクグループ_4" data-name="マスクグループ 4" clip-path="url(#clip-path)">
      <g id="グループ_6900" data-name="グループ 6900" transform="translate(-226.074 -145.571)">
        <g id="グループ_6820" data-name="グループ 6820" transform="translate(222.165 162.803)">
          <g id="グループ_6819" data-name="グループ 6819" transform="translate(0 0)">
            <g id="グループ_6816" data-name="グループ 6816">
              <g id="グループ_6785" data-name="グループ 6785" transform="translate(25.266 42.101)">
                <path id="パス_76738" data-name="パス 76738" d="M432.351,461.075l23.979,13.617-4.117,98.683-51.042-.028,2.5-98.015,12.919-12.051Z" transform="translate(-401.171 -461.075)" fill="#080724"/>
              </g>
              <g id="グループ_6815" data-name="グループ 6815">
                <g id="グループ_6786" data-name="グループ 6786" transform="translate(0 52.901)">
                  <path id="パス_76739" data-name="パス 76739" d="M247.816,537.59a11.552,11.552,0,0,0-6.452,7.689c-.69,2.809-19.2,93.112-19.2,93.112l14.327.457,24.905-77.3Z" transform="translate(-222.165 -537.59)" fill="#5462ab"/>
                </g>
                <g id="グループ_6787" data-name="グループ 6787" transform="translate(56.685 42.947)">
                  <path id="パス_76740" data-name="パス 76740" d="M645.93,541.986c.666,8.3,2.273,33.885,3.925,37.391-4.266.183-8.61,1.673-12.829.024-3.055-1.193-5.816-1.315-8.13-3.667-3.443-3.5-4.54-2.1-5.057-10.282-.278-4.407.316-8.841.473-13.253q.541-15.1,1.08-30.189c.663-18.572,1.119-36.363,1.783-54.935l17.553,8.725Z" transform="translate(-623.766 -467.075)" fill="#5462ab"/>
                </g>
                <g id="グループ_6788" data-name="グループ 6788" transform="translate(20.039 44.902)">
                  <path id="パス_76741" data-name="パス 76741" d="M381.179,588.338c-3.738,4.518-11.113,2.472-17.04,1.155l6.2-39.663-.872-60.7,12.522-6.7,3.629-1.506.294,70.224q-.131,11.764-.262,23.529c-.065,5.775-.122,6.173-2.946,11.38A14.046,14.046,0,0,1,381.179,588.338Z" transform="translate(-364.139 -480.922)" fill="#5462ab"/>
                </g>
                <g id="グループ_6789" data-name="グループ 6789" transform="translate(35.403 7.819)">
                  <path id="パス_76742" data-name="パス 76742" d="M475.368,220.936a9.884,9.884,0,0,0-1.051,4.432c-.313,4.313-.692,8.62-.979,12.935-.145,2.186-.268,4.374-.346,6.564a5.631,5.631,0,0,0,1.742,4.357,15.5,15.5,0,0,0,2.878,2.944,8.768,8.768,0,0,0,4.054.951,7.573,7.573,0,0,0,3.418-.8c.908-.385,1.823-.6,2.723-.974a13.991,13.991,0,0,0,3.716-2.22c2.759-2.361,3.917-5.89,4.378-9.391a85.087,85.087,0,0,0,.71-15.348c-.875-.155-1.756-.03-2.6-.252a11.563,11.563,0,0,1-3.2-1.558c-1.944-1.243-3.724-2.806-5.88-3.685a9.4,9.4,0,0,0-7.764.3A4.984,4.984,0,0,0,475.368,220.936Z" transform="translate(-472.988 -218.199)" fill="#eabf98"/>
                </g>
                <g id="グループ_6790" data-name="グループ 6790" transform="translate(41.512 34.394)">
                  <path id="パス_76743" data-name="パス 76743" d="M518.265,408.475a18.882,18.882,0,0,1,5.464.742" transform="translate(-517.983 -408.193)" fill="#fff"/>
                  <path id="パス_76744" data-name="パス 76744" d="M522.012,407.782a.284.284,0,0,1-.1-.02,18.773,18.773,0,0,0-5.359-.722h0a.282.282,0,0,1,0-.565,18.9,18.9,0,0,1,5.57.761.282.282,0,0,1-.1.545Z" transform="translate(-516.265 -406.476)" fill="#b35d55"/>
                </g>
                <g id="グループ_6791" data-name="グループ 6791" transform="translate(53.073 18.67)">
                  <path id="パス_76745" data-name="パス 76745" d="M608.643,299.1c.071,2.294-2.217,4.214-5.11,4.285s-5.29-1.729-5.357-4.021,2.222-4.216,5.111-4.291S608.575,296.806,608.643,299.1Z" transform="translate(-598.175 -295.075)" fill="#eabf98"/>
                </g>
                <g id="グループ_6792" data-name="グループ 6792" transform="translate(33.534)">
                  <path id="パス_76746" data-name="パス 76746" d="M489.4,173.31a11.234,11.234,0,0,0-.411-1.225,7.81,7.81,0,0,0-3.935-4.483,41.241,41.241,0,0,0-3.917-1.293,1.6,1.6,0,0,1-.879-.727c-1.556-2.1-2.763-2.926-5.481-2.758a20.511,20.511,0,0,0-8.885,2.391,14.147,14.147,0,0,0-5.018,4.558,5.714,5.714,0,0,0-.824,5.275,2.6,2.6,0,0,1,1.434-1.959,10.064,10.064,0,0,0-.449,4.057,9.655,9.655,0,0,0,1.567,3.663,13.837,13.837,0,0,1,5.846-6.218c1.541-.739,2.532-.281,4.2-.386a5.874,5.874,0,0,0,1.678,2.977,6.8,6.8,0,0,0,2.977,1.543c2.3.912,3.364,4.758,3.806,6.893.161.769.821,4.522.821,4.522l2.083-.015c-.044-2.368-1.038-7.933,2.62-7.744.965.051,1.57.415,2.081-.419a9.443,9.443,0,0,0,.948-3.278A12.936,12.936,0,0,0,489.4,173.31Z" transform="translate(-459.745 -162.803)" fill="#331618"/>
                </g>
                <g id="グループ_6793" data-name="グループ 6793" transform="translate(41.304 35.278)">
                  <path id="パス_76747" data-name="パス 76747" d="M516.375,416.113l-1.585,6.506,9.183,5.212,7.916-7.031-3.237-8.062Z" transform="translate(-514.79 -412.737)" fill="#eabf98"/>
                </g>
                <g id="グループ_6794" data-name="グループ 6794" transform="translate(51.691 8.883)">
                  <path id="パス_76748" data-name="パス 76748" d="M592.516,231.18c-.091-.264-.187-.517-.285-.752a.357.357,0,1,1,.659-.275c.1.249.2.517.3.8a.356.356,0,0,1-.223.452.367.367,0,0,1-.121.021A.358.358,0,0,1,592.516,231.18Zm-1.248-2.48a6.92,6.92,0,0,0-.5-.61.357.357,0,0,1,.526-.484,8.277,8.277,0,0,1,.549.669.356.356,0,0,1-.293.568A.36.36,0,0,1,591.268,228.7Zm-2.017-1.879c-.215-.142-.444-.282-.684-.415a.357.357,0,0,1,.346-.624c.256.142.5.291.732.442a.357.357,0,0,1,.1.5.354.354,0,0,1-.3.159A.366.366,0,0,1,589.251,226.821Z" transform="translate(-588.384 -225.738)" fill="#71382d"/>
                </g>
                <g id="グループ_6795" data-name="グループ 6795" transform="translate(57.431 8.072)">
                  <path id="パス_76749" data-name="パス 76749" d="M631.444,226.877a.36.36,0,0,1-.327-.384c.01-.11.015-.218.017-.327,0-.147,0-.3-.012-.451a.358.358,0,0,1,.714-.045c.011.171.015.343.011.509,0,.123-.008.247-.017.37a.359.359,0,0,1-.363.33Zm-.718-3.1c-.08-.245-.175-.5-.281-.751a.357.357,0,0,1,.659-.274c.113.27.213.54.3.8a.358.358,0,0,1-.228.451.44.44,0,0,1-.118.019A.361.361,0,0,1,630.726,223.781Zm-1.191-2.553c-.137-.229-.281-.462-.431-.687a.357.357,0,0,1,.6-.393c.155.235.305.475.449.716a.358.358,0,0,1-.124.49.36.36,0,0,1-.489-.126Z" transform="translate(-629.046 -219.988)" fill="#71382d"/>
                </g>
                <g id="グループ_6796" data-name="グループ 6796" transform="translate(39.693 7.499)">
                  <path id="パス_76750" data-name="パス 76750" d="M509.93,216.7c-.277-.027-.549-.044-.8-.052a.357.357,0,0,1,.021-.714c.27.008.555.027.849.055a.357.357,0,0,1,.322.39.34.34,0,0,1-.032.118A.357.357,0,0,1,509.93,216.7Zm-2.775.112a7.319,7.319,0,0,0-.76.205.358.358,0,0,1-.225-.679,8.409,8.409,0,0,1,.836-.225.357.357,0,0,1,.424.274.367.367,0,0,1-.026.227A.357.357,0,0,1,507.154,216.808Zm-2.543,1.062c-.218.138-.44.29-.659.453a.358.358,0,0,1-.426-.575c.235-.172.472-.335.7-.482a.357.357,0,0,1,.514.453A.351.351,0,0,1,504.611,217.869Z" transform="translate(-503.382 -215.93)" fill="#71382d"/>
                </g>
                <g id="グループ_6797" data-name="グループ 6797" transform="translate(41.322 3.484)">
                  <path id="パス_76751" data-name="パス 76751" d="M522.069,188.876a.358.358,0,0,1-.486.139c-.095-.052-.191-.1-.29-.148-.134-.063-.273-.122-.415-.176a.355.355,0,0,1-.208-.461.362.362,0,0,1,.461-.206c.16.06.316.127.467.2.113.054.223.11.329.169a.36.36,0,0,1,.151.466A.106.106,0,0,0,522.069,188.876Zm-3.116-.621c-.256-.029-.524-.047-.8-.055a.358.358,0,0,1,.024-.715c.292.01.58.03.853.06a.358.358,0,0,1,.318.393.363.363,0,0,1-.034.115A.358.358,0,0,1,518.953,188.255Zm-2.816.031c-.266.028-.536.065-.8.108a.357.357,0,1,1-.112-.705c.277-.045.558-.083.838-.112a.355.355,0,0,1,.393.315.343.343,0,0,1-.033.191A.35.35,0,0,1,516.137,188.286Z" transform="translate(-514.92 -187.485)" fill="#71382d"/>
                </g>
                <g id="グループ_6798" data-name="グループ 6798" transform="translate(46.649 37.187)">
                  <path id="パス_76752" data-name="パス 76752" d="M552.929,431.581h.017a20.2,20.2,0,0,0,3.692-.7c2.508-.659,4.528-4.057,4.612-4.2a.272.272,0,1,0-.47-.275c-.018.032-1.992,3.348-4.28,3.95a20.086,20.086,0,0,1-3.581.686.272.272,0,0,0,.009.544Z" transform="translate(-552.662 -426.266)" fill="#b35d55"/>
                </g>
                <g id="グループ_6799" data-name="グループ 6799" transform="translate(31.972 44.226)">
                  <path id="パス_76753" data-name="パス 76753" d="M458.052,476.133l-4.911,2.115-3.308,8.794,5.639,1.359-6.79,4.31s-.323,20.435,3.931,26.406,6.034,7.083,6.034,7.083Z" transform="translate(-448.676 -476.133)" fill="#374071"/>
                </g>
                <g id="グループ_6800" data-name="グループ 6800" transform="translate(57.751 41.532)">
                  <path id="パス_76754" data-name="パス 76754" d="M631.441,457.049l4.93,2.069,3.391,8.763-5.629,1.412,6.832,4.246s.514,20.43-3.683,26.443-5.968,7.137-5.968,7.137Z" transform="translate(-631.315 -457.049)" fill="#374071"/>
                </g>
                <g id="グループ_6801" data-name="グループ 6801" transform="translate(40.583 38.613)">
                  <path id="パス_76755" data-name="パス 76755" d="M513.594,437.523c-.177.1,1.36,2.46.9,2.93-.729.74-3.038.182-3.777-.249-1.517-.887-1.161-2.7-.19-3.84.4.526.553,1.232.992,1.729a3.254,3.254,0,0,1,.785-1.352c.24.526.456,1.094.675,1.63C513.168,438.1,513.261,437.72,513.594,437.523Z" transform="translate(-509.686 -436.363)" fill="#331618"/>
                </g>
                <g id="グループ_6802" data-name="グループ 6802" transform="translate(38.074 20.398)">
                  <path id="パス_76756" data-name="パス 76756" d="M491.912,308.465a1.171,1.171,0,1,0,1.189-1.15A1.171,1.171,0,0,0,491.912,308.465Z" transform="translate(-491.912 -307.315)"/>
                </g>
                <g id="グループ_6803" data-name="グループ 6803" transform="translate(46.625 21.527)">
                  <path id="パス_76757" data-name="パス 76757" d="M552.492,316.471a1.171,1.171,0,1,0,1.191-1.151A1.17,1.17,0,0,0,552.492,316.471Z" transform="translate(-552.492 -315.32)"/>
                </g>
                <g id="グループ_6804" data-name="グループ 6804" transform="translate(35.757 18.019)">
                  <path id="パス_76758" data-name="パス 76758" d="M491.912,295.474h.006a.5.5,0,0,0,.5-.508,2.326,2.326,0,0,0-1.053-1.859,9.14,9.14,0,0,0-6.34-1,4.021,4.021,0,0,0-.616.252,1.554,1.554,0,0,1-.522.185,4.149,4.149,0,0,1-1.014-.114c-.194-.038-.381-.073-.558-.1-.443-.057-.443-.057-.657-.317l-.118-.141a2.956,2.956,0,0,0-1.5-.99c-.025-.008-2.531-.877-3.824-.1a1.47,1.47,0,0,0-.718,1.065.5.5,0,1,0,.995.156.459.459,0,0,1,.24-.357c.616-.369,2.139-.105,2.973.188a1.978,1.978,0,0,1,1.062.688l.113.135a1.485,1.485,0,0,0,1.3.674c.158.02.327.053.5.087a4.755,4.755,0,0,0,1.293.127,2.4,2.4,0,0,0,.866-.278,3.186,3.186,0,0,1,.476-.2,8.181,8.181,0,0,1,5.452.847,1.323,1.323,0,0,1,.64,1.058A.5.5,0,0,0,491.912,295.474Z" transform="translate(-475.492 -290.465)"/>
                </g>
                <g id="グループ_6805" data-name="グループ 6805" transform="translate(51.868 20.533)">
                  <path id="パス_76759" data-name="パス 76759" d="M596.083,308.277l-6.247,1.065-.2.983,6.185-1.252Z" transform="translate(-589.636 -308.277)"/>
                </g>
                <g id="グループ_6806" data-name="グループ 6806" transform="translate(44.153 21.733)">
                  <path id="パス_76760" data-name="パス 76760" d="M539.13,320.471a4.9,4.9,0,0,0,2.946-.81,1.877,1.877,0,0,0,.708-1.345.166.166,0,0,0-.153-.18.158.158,0,0,0-.181.153,1.548,1.548,0,0,1-.587,1.112,5.141,5.141,0,0,1-3.389.7,3.84,3.84,0,0,1-2.7-1.226,2.454,2.454,0,0,1-.426-1.908.166.166,0,0,0-.141-.189.164.164,0,0,0-.19.142,2.768,2.768,0,0,0,.492,2.159,4.139,4.139,0,0,0,2.927,1.355A6.15,6.15,0,0,0,539.13,320.471Z" transform="translate(-534.977 -316.777)" fill="#fff"/>
                </g>
                <g id="グループ_6807" data-name="グループ 6807" transform="translate(35.697 20.452)">
                  <path id="パス_76761" data-name="パス 76761" d="M478.863,311.077a4.486,4.486,0,0,0,2.691-.739,1.72,1.72,0,0,0,.647-1.229.152.152,0,0,0-.141-.165.147.147,0,0,0-.164.14,1.425,1.425,0,0,1-.538,1.016,4.7,4.7,0,0,1-3.1.638,3.494,3.494,0,0,1-2.466-1.118,2.236,2.236,0,0,1-.391-1.742.152.152,0,0,0-.13-.173.148.148,0,0,0-.174.13,2.532,2.532,0,0,0,.453,1.972,3.776,3.776,0,0,0,2.673,1.235A5.31,5.31,0,0,0,478.863,311.077Z" transform="translate(-475.069 -307.703)" fill="#fff"/>
                </g>
                <g id="グループ_6808" data-name="グループ 6808" transform="translate(38.998 19.422)">
                  <path id="パス_76762" data-name="パス 76762" d="M505.444,312.276a.328.328,0,0,0,.045-.653l-6.247-.738c1.43-3.747,3.649-9.417,3.99-9.914a.332.332,0,0,0,.045-.418.328.328,0,0,0-.455-.09c-.1.068-.42.279-4.343,10.581a.33.33,0,0,0,.269.443l6.665.787Z" transform="translate(-498.457 -300.406)"/>
                </g>
                <g id="グループ_6809" data-name="グループ 6809" transform="translate(36.185 42.387)">
                  <path id="パス_76763" data-name="パス 76763" d="M497.054,486.824a14.917,14.917,0,0,1-.864-2.192c-.579-1.855-.855-3.8-1.271-5.693a12.114,12.114,0,0,1-.257-3.984c.121-1.151.019-2.27.051-3.426a7.639,7.639,0,0,0,.047-1.658,5.506,5.506,0,0,0-2.234-3.018,40.955,40.955,0,0,0-3.595-2.866c-.657-.426-2.361-1.351-2.9-.591-.7.987.847,2.482,1.721,3.095a31.906,31.906,0,0,1,2.554,1.932c1.074.93.9,2.927,1.148,4.247a22.057,22.057,0,0,0-1.973-4.112,7.611,7.611,0,0,0-2.193-2.347,19.129,19.129,0,0,0-1.608-1.126c-.719-.473-1.234-1.217-1.989-1.626-.856-.463-1.529,0-1.876.895-.47,1.194.653,2.1,1.443,2.825a18.249,18.249,0,0,0,2.575,1.922,3.886,3.886,0,0,1,1.3,1.257,6.231,6.231,0,0,1,.83,1.926,5.167,5.167,0,0,0,.276,1.63c-.886-1.5-1.946-3.624-3.7-4.239a19.065,19.065,0,0,1-2.759-1.128,10.166,10.166,0,0,0-2.36-1.045c-.567-.121-.715-.06-.8.532a2.083,2.083,0,0,0,.234,1.578c.723.945,2.144,1.091,2.85,1.953a5.09,5.09,0,0,0-2.311-1.1c-.9-.045-1.011,1.454-.733,2.031.361.751,1.227,1.163,1.867,1.634.664.493,1.228,1.1,1.9,1.592a5.25,5.25,0,0,1,1.572,1.319,8.266,8.266,0,0,1,.673,2.695c.49,2.187.922,4.373,1.571,6.516a6.665,6.665,0,0,0,2.21,2.995,24.429,24.429,0,0,1,2.393,2.729,12.581,12.581,0,0,0,2.595,2.394c1.181.791,1.889.975,3.074.2,1.3-.85,3.775-2.7,2.482-4.475A22.188,22.188,0,0,1,497.054,486.824Z" transform="translate(-478.524 -463.107)" fill="#eabf98"/>
                </g>
                <g id="グループ_6810" data-name="グループ 6810" transform="translate(36.981 49.777)">
                  <path id="パス_76764" data-name="パス 76764" d="M484.165,515.833a.379.379,0,0,0,.261.371,23.432,23.432,0,0,1,3.93,1.725,4.671,4.671,0,0,1,1.82,1.908.381.381,0,1,0,.7-.289,5.385,5.385,0,0,0-2.122-2.265,23.492,23.492,0,0,0-4.092-1.8.381.381,0,0,0-.483.241A.465.465,0,0,0,484.165,515.833Z" transform="translate(-484.165 -515.463)" fill="#b35d55"/>
                </g>
                <g id="グループ_6811" data-name="グループ 6811" transform="translate(49.031 51.45)">
                  <path id="パス_76765" data-name="パス 76765" d="M597.527,527.313s9.547,6.026,9.724,10.7c.584,15.393.074,36.164-4.616,48.811-2.249,6.059-9.62,7.2-12.509,4.424-8.916-8.579-20.587-41.227-20.587-41.227l8.534-6.178s13.73,22.989,13.741,22.357S597.527,527.313,597.527,527.313Z" transform="translate(-569.539 -527.313)" fill="#5462ab"/>
                </g>
                <g id="グループ_6812" data-name="グループ 6812" transform="translate(65.311 80.822)">
                  <path id="パス_76766" data-name="パス 76766" d="M697.539,749.963a.5.5,0,0,0,.374-.838l-12.159-13.55a.5.5,0,0,0-.75.673l12.16,13.549A.5.5,0,0,0,697.539,749.963Z" transform="translate(-684.876 -735.407)" fill="#374071"/>
                </g>
                <g id="グループ_6813" data-name="グループ 6813" transform="translate(70.867 53.682)">
                  <path id="パス_76767" data-name="パス 76767" d="M724.743,576.493a.5.5,0,0,0,.5-.42l5.394-32.361a.5.5,0,0,0-.994-.165l-5.392,32.36a.5.5,0,0,0,.414.579A.539.539,0,0,0,724.743,576.493Z" transform="translate(-724.24 -543.128)" fill="#374071"/>
                </g>
                <g id="グループ_6814" data-name="グループ 6814" transform="translate(59.282 98.279)">
                  <path id="パス_76768" data-name="パス 76768" d="M658.367,877.309a2.562,2.562,0,0,0,.828-.113.5.5,0,0,0-.338-.947c-.055.018-2.562.735-6.337-3.757-4.063-4.834-9.379-13.091-9.431-13.172a.5.5,0,1,0-.847.543c.054.083,5.4,8.392,9.509,13.276C654.784,876.748,657.174,877.309,658.367,877.309Z" transform="translate(-642.163 -859.087)" fill="#374071"/>
                </g>
              </g>
            </g>
            <g id="グループ_6817" data-name="グループ 6817" transform="translate(41.794 43.243)">
              <path id="パス_76769" data-name="パス 76769" d="M523.877,474.665a.3.3,0,0,0,.044,0,.334.334,0,0,0,.289-.371c-.008-.054-.185-1.342-2.123-2.859a24.263,24.263,0,0,0-3.332-2.228.336.336,0,0,0-.311.6,23.61,23.61,0,0,1,3.229,2.16,4.492,4.492,0,0,1,1.871,2.415A.338.338,0,0,0,523.877,474.665Z" transform="translate(-518.265 -469.167)" fill="#b35d55"/>
            </g>
            <g id="グループ_6818" data-name="グループ 6818" transform="translate(46.23 42.905)">
              <path id="パス_76770" data-name="パス 76770" d="M555.3,472.272a.28.28,0,0,0,.045,0,.334.334,0,0,0,.29-.37c-.008-.053-.184-1.341-2.122-2.859a24.06,24.06,0,0,0-3.334-2.228.336.336,0,0,0-.31.6,23.7,23.7,0,0,1,3.23,2.16,4.482,4.482,0,0,1,1.87,2.416A.336.336,0,0,0,555.3,472.272Z" transform="translate(-549.69 -466.773)" fill="#b35d55"/>
            </g>
          </g>
        </g>
        <g id="グループ_6852" data-name="グループ 6852" transform="translate(307.936 181.162)">
          <g id="グループ_6821" data-name="グループ 6821" transform="translate(9.342 0)">
            <path id="パス_76771" data-name="パス 76771" d="M926.167,309.781c-.19,2.287-2.125,13.837-2.125,13.837L896.9,322.291a80.346,80.346,0,0,1-.87-12.6,37.106,37.106,0,0,1,.57-6.133,12.019,12.019,0,0,1,2.167-5.346c2.559-3.088,6.457-4.4,9.532-4.956a25.2,25.2,0,0,1,3.48-.365c.757-.029,1.216,0,1.216,0l.069.014,2.992.783a11.984,11.984,0,0,1,1.15.6C920.007,295.876,926.911,300.75,926.167,309.781Z" transform="translate(-896.015 -292.872)" fill="#4a2816"/>
          </g>
          <g id="グループ_6822" data-name="グループ 6822" transform="translate(10.342 9.858)">
            <path id="パス_76772" data-name="パス 76772" d="M927.522,374.33a12.217,12.217,0,1,1-12.479-11.617A12.059,12.059,0,0,1,927.522,374.33Z" transform="translate(-903.099 -362.71)" fill="#eabf98"/>
          </g>
          <g id="グループ_6823" data-name="グループ 6823" transform="translate(20.208 28.005)">
            <path id="パス_76773" data-name="パス 76773" d="M977.731,492.337a.392.392,0,0,1-.078-.008c-2.827-.574-4.087-.033-4.1-.028a.393.393,0,0,1-.33-.713c.058-.028,1.466-.663,4.586-.029a.393.393,0,0,1-.078.778Z" transform="translate(-972.998 -491.279)" fill="#b35d55"/>
          </g>
          <g id="グループ_6824" data-name="グループ 6824" transform="translate(32.351 17.996)">
            <path id="パス_76774" data-name="パス 76774" d="M1066.76,424.151a3.868,3.868,0,1,1-3.955-3.782A3.867,3.867,0,0,1,1066.76,424.151Z" transform="translate(-1059.024 -420.368)" fill="#eabf98"/>
          </g>
          <g id="グループ_6825" data-name="グループ 6825" transform="translate(7.195 18.542)">
            <path id="パス_76775" data-name="パス 76775" d="M887.624,427.576a3.412,3.412,0,1,1-3.488-3.338A3.413,3.413,0,0,1,887.624,427.576Z" transform="translate(-880.8 -424.238)" fill="#eabf98"/>
          </g>
          <g id="グループ_6826" data-name="グループ 6826" transform="translate(9.401 3.105)">
            <path id="パス_76776" data-name="パス 76776" d="M897.352,325a22.169,22.169,0,0,0-.9,3.882,6.336,6.336,0,0,0,.764,3.422c.382-1.657,3.922-6.519,5.23-7.51a6.99,6.99,0,0,1-.56,2.406,16.5,16.5,0,0,0,4.667-3.761c1.2,1.859,3.574,3.152,5.357,4.292,1.567,1,3.9,2.581,5.752,2.869-.681-1.563-1.8-2.963-2.009-4.725,1.175,1.37,1.828,3.235,3.05,4.651a11.168,11.168,0,0,0,3.432,3.164c1.31-2.739,2.356-5.241,1.73-8.468a13.834,13.834,0,0,0-3.529-6.393,11.36,11.36,0,0,0-5.957-3.165c-.733-.174-1.787.045-2.481-.344a3.651,3.651,0,0,0-1.947-.449,14.025,14.025,0,0,0-9.21,3.928C898.862,320.487,898.121,322.551,897.352,325Z" transform="translate(-896.433 -314.87)" fill="#4a2816"/>
          </g>
          <g id="グループ_6827" data-name="グループ 6827" transform="translate(15.853 17.791)">
            <path id="パス_76777" data-name="パス 76777" d="M944.264,419.637a1.229,1.229,0,0,1-.593,1.557,1.077,1.077,0,0,1-1.445-.634,1.224,1.224,0,0,1,.6-1.555A1.079,1.079,0,0,1,944.264,419.637Z" transform="translate(-942.142 -418.913)"/>
          </g>
          <g id="グループ_6828" data-name="グループ 6828" transform="translate(24.658 17.791)">
            <path id="パス_76778" data-name="パス 76778" d="M1006.643,419.637a1.229,1.229,0,0,1-.592,1.557,1.08,1.08,0,0,1-1.447-.634,1.227,1.227,0,0,1,.6-1.555A1.079,1.079,0,0,1,1006.643,419.637Z" transform="translate(-1004.521 -418.913)"/>
          </g>
          <g id="グループ_6829" data-name="グループ 6829" transform="translate(20.705 18.86)">
            <path id="パス_76779" data-name="パス 76779" d="M977.839,432.1a.278.278,0,0,1-.208-.091c-.1-.109-.221-.214-.334-.314a1.756,1.756,0,0,1-.781-1.392,11.367,11.367,0,0,1,.759-2.448c.18-.486.351-.946.4-1.148a.288.288,0,0,1,.557.142c-.06.232-.227.684-.421,1.207a13.5,13.5,0,0,0-.724,2.262c-.011.392.207.606.589.949.123.107.249.22.371.349a.288.288,0,0,1-.21.484Z" transform="translate(-976.516 -426.492)"/>
          </g>
          <g id="グループ_6830" data-name="グループ 6830" transform="translate(16.255 32.448)">
            <path id="パス_76780" data-name="パス 76780" d="M951.729,544.1l6.962-5.579-1.848-1.739c-1.847-1.74-2.719-14.023-2.719-14.023H951.84v0h-2.282s-.869,12.282-2.717,14.023l-1.849,1.739,6.3,5.579v.022l.214-.008.22.008Z" transform="translate(-944.992 -522.758)" fill="#eabf98"/>
          </g>
          <g id="グループ_6831" data-name="グループ 6831" transform="translate(1.254 47.85)">
            <path id="パス_76781" data-name="パス 76781" d="M882.215,720.331l-17.536.181-3.968.042H860.6l-.707.008-2.229.024-3.945.042-15.006.154,4.958-77.392,9.8-11.286,6.881,4.162,6.619-4.387,10.9,10.644Z" transform="translate(-838.714 -631.878)" fill="#f0deda"/>
          </g>
          <g id="グループ_6832" data-name="グループ 6832" transform="translate(26.016 47.85)">
            <path id="パス_76782" data-name="パス 76782" d="M1017.882,631.878s-6.514,67.947-2.344,73.1,18.638,3.924,18.638,3.924l-2.727-23.332s-.519-41.957-2.178-44.667C1026.177,635.842,1017.882,631.878,1017.882,631.878Z" transform="translate(-1014.144 -631.878)" fill="#f95670"/>
          </g>
          <g id="グループ_6833" data-name="グループ 6833" transform="translate(0.019 47.85)">
            <path id="パス_76783" data-name="パス 76783" d="M846.26,631.878s6.515,67.947,2.345,73.1-18.639,3.924-18.639,3.924l2.985-20.951s.005-43.923,1.919-47.048C837.965,635.842,846.26,631.878,846.26,631.878Z" transform="translate(-829.966 -631.878)" fill="#f95670"/>
          </g>
          <g id="グループ_6834" data-name="グループ 6834" transform="translate(22.407 3.243)">
            <path id="パス_76784" data-name="パス 76784" d="M992.541,324.941a.355.355,0,0,1-.223-.079,4.883,4.883,0,0,1-.616-.624.35.35,0,1,1,.538-.448,4.034,4.034,0,0,0,.525.532.352.352,0,0,1,.048.494A.357.357,0,0,1,992.541,324.941Zm-1.677-2.278a.349.349,0,0,1-.306-.18l-.224-.411-.166-.307a.35.35,0,0,1,.617-.331l.166.3c.069.129.142.265.219.405a.35.35,0,0,1-.135.477A.355.355,0,0,1,990.863,322.664Zm-1.245-2.555a.351.351,0,0,1-.327-.225c-.1-.267-.195-.53-.275-.789a.351.351,0,1,1,.67-.207c.074.242.161.492.258.745a.35.35,0,0,1-.2.453A.329.329,0,0,1,989.618,320.109Zm-.667-2.753a.353.353,0,0,1-.349-.321c-.019-.232-.028-.464-.028-.689,0-.053,0-.106,0-.159a.348.348,0,0,1,.348-.342h.008a.349.349,0,0,1,.343.356c0,.05,0,.1,0,.146,0,.207.01.419.026.63a.346.346,0,0,1-.318.378Z" transform="translate(-988.575 -315.845)" fill="#733f22"/>
          </g>
          <g id="グループ_6835" data-name="グループ 6835" transform="translate(26.091 3.903)">
            <path id="パス_76785" data-name="パス 76785" d="M1021.884,333.682a.356.356,0,0,1-.218-.076c-.047-.037-.09-.075-.134-.115a.35.35,0,0,1,.47-.519c.033.03.067.059.1.088a.349.349,0,0,1-.22.623Zm-1.136-1.832a.351.351,0,0,1-.33-.235c-.086-.248-.162-.5-.239-.749l-.011-.038a.349.349,0,1,1,.668-.2l.012.036c.074.24.149.485.233.724a.352.352,0,0,1-.215.446A.387.387,0,0,1,1020.748,331.851Zm-.913-2.691a.35.35,0,0,1-.329-.231c-.093-.252-.186-.5-.284-.752a.35.35,0,1,1,.652-.254c.1.254.194.51.288.766a.351.351,0,0,1-.209.45A.378.378,0,0,1,1019.835,329.159Zm-1.12-2.619a.342.342,0,0,1-.3-.173s-.01-.018-.011-.022c-.124-.235-.247-.469-.374-.7a.35.35,0,1,1,.614-.336c.126.234.254.47.381.711a.353.353,0,0,1-.14.474A.338.338,0,0,1,1018.715,326.54Zm-1.415-2.458a.347.347,0,0,1-.293-.159c-.148-.228-.3-.45-.448-.661a.351.351,0,0,1,.573-.4c.154.218.308.45.463.685a.353.353,0,0,1-.1.485A.358.358,0,0,1,1017.3,324.082Zm-1.714-2.263a.345.345,0,0,1-.26-.118c-.177-.2-.36-.393-.546-.578a.351.351,0,0,1,.5-.494c.19.2.382.4.567.6a.351.351,0,0,1-.261.585Z" transform="translate(-1014.68 -320.527)" fill="#733f22"/>
          </g>
          <g id="グループ_6836" data-name="グループ 6836" transform="translate(11.068 5.224)">
            <path id="パス_76786" data-name="パス 76786" d="M908.593,340.975h-.033a.353.353,0,0,1-.317-.381,8.364,8.364,0,0,1,.126-.838.35.35,0,0,1,.686.134c-.052.269-.092.527-.114.769A.349.349,0,0,1,908.593,340.975Zm.685-2.753a.342.342,0,0,1-.122-.022.352.352,0,0,1-.207-.45c.1-.253.2-.511.309-.769a.351.351,0,0,1,.645.275q-.16.372-.295.739A.354.354,0,0,1,909.278,338.222Zm1.193-2.58a.372.372,0,0,1-.17-.042.351.351,0,0,1-.138-.477c.132-.24.267-.481.409-.716a.349.349,0,1,1,.6.357c-.136.228-.27.462-.4.7A.351.351,0,0,1,910.472,335.641Zm1.52-2.4a.343.343,0,0,1-.205-.067.347.347,0,0,1-.077-.488c.164-.228.334-.449.5-.659a.35.35,0,1,1,.546.437c-.162.2-.325.416-.484.633A.349.349,0,0,1,911.991,333.24Zm1.871-2.138a.348.348,0,0,1-.258-.114.351.351,0,0,1,.021-.495,8.4,8.4,0,0,1,.652-.542.35.35,0,0,1,.419.561,7.671,7.671,0,0,0-.6.5A.348.348,0,0,1,913.862,331.1Z" transform="translate(-908.241 -329.881)" fill="#733f22"/>
          </g>
          <g id="グループ_6837" data-name="グループ 6837" transform="translate(21.292 33.327)">
            <path id="パス_76787" data-name="パス 76787" d="M983.922,529.684H981.03a.35.35,0,0,1,0-.7h2.892a.35.35,0,0,1,0,.7Z" transform="translate(-980.68 -528.984)" fill="#b35d55"/>
          </g>
          <g id="グループ_6838" data-name="グループ 6838" transform="translate(0 54.716)">
            <path id="パス_76788" data-name="パス 76788" d="M837.119,680.523s-5.789,2.788-7.143,11.586,7.009,38.587,7.009,38.587l7.108-4.062Z" transform="translate(-829.829 -680.523)" fill="#f95670"/>
          </g>
          <g id="グループ_6839" data-name="グループ 6839" transform="translate(32.213 55.062)">
            <path id="パス_76789" data-name="パス 76789" d="M1065.171,682.971s5.258,1.559,6.37,14.733c.749,8.875-6.384,35.095-6.384,35.095l-7.105-4.062Z" transform="translate(-1058.052 -682.971)" fill="#f95670"/>
          </g>
          <g id="グループ_6840" data-name="グループ 6840" transform="translate(22.833 47.85)">
            <path id="パス_76790" data-name="パス 76790" d="M998.515,631.878l-6.921,4.147s2.346,5.536,2.888,5.234,5.777-8.485,5.777-8.485Z" transform="translate(-991.594 -631.878)" fill="#ccbdb9"/>
          </g>
          <g id="グループ_6841" data-name="グループ 6841" transform="translate(14.829 47.85)">
            <path id="パス_76791" data-name="パス 76791" d="M936.634,631.878l6.921,4.147s-2.347,5.536-2.889,5.234-5.777-8.485-5.777-8.485Z" transform="translate(-934.889 -631.878)" fill="#ccbdb9"/>
          </g>
          <g id="グループ_6842" data-name="グループ 6842" transform="translate(25.16 101.324)">
            <path id="パス_76792" data-name="パス 76792" d="M1015.96,1010.727l-7.877,25.263,4.219,1.157,7.84-24.274Z" transform="translate(-1008.083 -1010.727)" fill="#eabf98"/>
          </g>
          <g id="グループ_6843" data-name="グループ 6843" transform="translate(20.205 123.105)">
            <path id="パス_76793" data-name="パス 76793" d="M982.536,1167.548c-.047,2.379-1.095,4.707-1.789,6.944a21.06,21.06,0,0,0-.757,3.926l-3.968.042h-.11l-.707.008-2.229.024c.092-1.276.27-2.544.413-3.481a6.45,6.45,0,0,1,1.255-2.779,21.475,21.475,0,0,1,1.543-1.847,28.1,28.1,0,0,0,2.583-3.777C980.349,1164.253,982.6,1164.536,982.536,1167.548Z" transform="translate(-972.976 -1165.039)" fill="#eabf98"/>
          </g>
          <g id="グループ_6846" data-name="グループ 6846" transform="translate(9.764 100.902)">
            <g id="グループ_6844" data-name="グループ 6844">
              <path id="パス_76794" data-name="パス 76794" d="M903.43,1007.733l5.245,26.148-4.219.635-5.453-25.2Z" transform="translate(-899.004 -1007.733)" fill="#eabf98"/>
            </g>
            <g id="グループ_6845" data-name="グループ 6845" transform="translate(5.332 22.268)">
              <path id="パス_76795" data-name="パス 76795" d="M944.932,1178.853h-.11l-.707.008-2.229.024-3.945.042a20.818,20.818,0,0,0-.239-4.011c-.393-2.312-1.132-4.756-.872-7.122.333-2.991,2.6-2.98,3.861-.439a28.218,28.218,0,0,0,2.066,4.081c.273.393.543.788.8,1.189a7.461,7.461,0,0,1,1.376,3.758C944.945,1177.075,944.958,1177.942,944.932,1178.853Z" transform="translate(-936.776 -1165.497)" fill="#eabf98"/>
            </g>
          </g>
          <g id="グループ_6847" data-name="グループ 6847" transform="translate(21.597 130.77)">
            <path id="パス_76796" data-name="パス 76796" d="M984.382,1225.1l-.707.008-.833-5.361a.351.351,0,0,1,.293-.4.347.347,0,0,1,.4.293Z" transform="translate(-982.838 -1219.345)" fill="#d1595f"/>
          </g>
          <g id="グループ_6848" data-name="グループ 6848" transform="translate(31.417 65.828)">
            <path id="パス_76797" data-name="パス 76797" d="M1052.887,794.484a.548.548,0,0,1-.07,0,.476.476,0,0,1-.4-.541l5.078-34.285a.476.476,0,0,1,.942.14l-5.079,34.285A.475.475,0,0,1,1052.887,794.484Z" transform="translate(-1052.411 -759.248)" fill="#a9394b"/>
          </g>
          <g id="グループ_6849" data-name="グループ 6849" transform="translate(38.083 89.16)">
            <path id="パス_76798" data-name="パス 76798" d="M1100.116,938.673a.487.487,0,0,1-.147-.023.476.476,0,0,1-.305-.6l4.285-13.174a.476.476,0,1,1,.906.295l-4.286,13.174A.476.476,0,0,1,1100.116,938.673Z" transform="translate(-1099.64 -924.545)" fill="#a9394b"/>
          </g>
          <g id="グループ_6850" data-name="グループ 6850" transform="translate(8.401 64.241)">
            <path id="パス_76799" data-name="パス 76799" d="M894.9,783.236a.476.476,0,0,1-.471-.406l-5.08-34.285a.476.476,0,0,1,.942-.139l5.08,34.285a.476.476,0,0,1-.472.545Z" transform="translate(-889.346 -748)" fill="#a9394b"/>
          </g>
          <g id="グループ_6851" data-name="グループ 6851" transform="translate(3.377 89.954)">
            <path id="パス_76800" data-name="パス 76800" d="M857.668,941.919a.477.477,0,0,1-.454-.331l-3.437-10.793a.476.476,0,0,1,.908-.29l3.437,10.793a.477.477,0,0,1-.309.6A.485.485,0,0,1,857.668,941.919Z" transform="translate(-853.754 -930.174)" fill="#1e233b"/>
          </g>
        </g>
        <g id="グループ_6898" data-name="グループ 6898" transform="translate(252.067 207.847)">
          <g id="グループ_6897" data-name="グループ 6897" transform="translate(11.669 0)">
            <g id="グループ_6859" data-name="グループ 6859" transform="translate(43.593 23.579)">
              <path id="パス_76806" data-name="パス 76806" d="M827.536,650.473s5.248,3.4,6.1,8.061l.855,4.665s-7.134-2.233-8.225-7.581-.649-6.643-.649-6.643Z" transform="translate(-825.53 -648.975)" fill="#833b20"/>
            </g>
            <g id="グループ_6860" data-name="グループ 6860" transform="translate(17.993 23.579)">
              <path id="パス_76807" data-name="パス 76807" d="M651.116,650.473s-5.249,3.4-6.1,8.061l-.854,4.665s7.135-2.233,8.226-7.581.649-6.643.649-6.643Z" transform="translate(-644.16 -648.975)" fill="#833b20"/>
            </g>
            <g id="グループ_6879" data-name="グループ 6879" transform="translate(9.473)">
              <g id="グループ_6861" data-name="グループ 6861" transform="translate(10.065)">
                <path id="パス_76808" data-name="パス 76808" d="M685,498.805a11.322,11.322,0,0,1-.8,2.1,16.439,16.439,0,0,1-.858,1.8c-.59,1.057-1.271,2.065-1.884,3.11-1.119,1.907-3.486,3.14-4.656,5.016a10.25,10.25,0,0,1-1.683,1.2l-15.745-1.082s-4.394-5.935-4.26-12.234c.068-3.525.309-7.423,2.158-10.529a9.332,9.332,0,0,1,1.946-2.285,16.4,16.4,0,0,1,8.9-3.9,14.668,14.668,0,0,1,7.53,1.155,18.937,18.937,0,0,1,5.141,3.951,15.418,15.418,0,0,1,3.813,6.623,13.249,13.249,0,0,1,.425,4.938C685.018,498.709,685.013,498.757,685,498.805Z" transform="translate(-655.114 -481.927)" fill="#833b20"/>
              </g>
              <g id="グループ_6862" data-name="グループ 6862" transform="translate(11.524 10.074)">
                <path id="パス_76809" data-name="パス 76809" d="M689.675,564.824a12.12,12.12,0,1,1-12.38-11.524A11.962,11.962,0,0,1,689.675,564.824Z" transform="translate(-665.447 -553.296)" fill="#eabf98"/>
              </g>
              <g id="グループ_6863" data-name="グループ 6863" transform="translate(33.862 17.768)">
                <path id="パス_76810" data-name="パス 76810" d="M831.379,611.563a3.836,3.836,0,1,1-3.924-3.754A3.837,3.837,0,0,1,831.379,611.563Z" transform="translate(-823.707 -607.809)" fill="#eabf98"/>
              </g>
              <g id="グループ_6864" data-name="グループ 6864" transform="translate(10.798 3.897)">
                <path id="パス_76811" data-name="パス 76811" d="M661.448,519.583a21.917,21.917,0,0,0-.893,3.849c-.094.745-.53,2.514.017,3.124.781-1.059,1.108-2.435,2.018-3.441a31.86,31.86,0,0,1,3.911-3.739,7,7,0,0,1-.555,2.388,16.388,16.388,0,0,0,4.628-3.732c1.185,1.844,3.545,3.127,5.314,4.258,1.552.994,3.865,2.559,5.7,2.845-.675-1.551-1.78-2.941-1.992-4.687,1.166,1.359,1.813,3.209,3.027,4.615a11.089,11.089,0,0,0,3.4,3.139c1.3-2.718,2.335-5.2,1.716-8.4a13.734,13.734,0,0,0-3.5-6.342,11.264,11.264,0,0,0-5.909-3.139c-.726-.174-1.771.043-2.461-.342a3.6,3.6,0,0,0-1.93-.446,13.923,13.923,0,0,0-9.138,3.9C662.948,515.107,662.212,517.155,661.448,519.583Z" transform="translate(-660.302 -509.534)" fill="#833b20"/>
              </g>
              <g id="グループ_6865" data-name="グループ 6865" transform="translate(21.792 19.601)">
                <path id="パス_76812" data-name="パス 76812" d="M739.509,625.549a.288.288,0,0,1-.208-.09c-.1-.109-.217-.211-.329-.311a1.742,1.742,0,0,1-.777-1.384,6.988,6.988,0,0,1,.572-1.825,9.848,9.848,0,0,0,.342-.932.285.285,0,0,1,.552.141,9.51,9.51,0,0,1-.366,1,7.207,7.207,0,0,0-.53,1.631c-.01.39.2.6.586.942.121.108.245.218.365.345a.283.283,0,0,1-.012.4A.28.28,0,0,1,739.509,625.549Z" transform="translate(-738.194 -620.792)"/>
              </g>
              <g id="グループ_6866" data-name="グループ 6866" transform="translate(18.723 29.685)">
                <path id="パス_76813" data-name="パス 76813" d="M722.579,710.543l5.752-4.635-1.6-1.509c-1.6-1.509-2.358-12.163-2.358-12.163h-1.979v.02l0-.02H720.41s-.755,10.655-2.357,12.163l-1.6,1.509,5.752,4.635v.017l.189-.008.188.008Z" transform="translate(-716.45 -692.236)" fill="#eabf98"/>
              </g>
              <g id="グループ_6867" data-name="グループ 6867" transform="translate(22.74 27.749)">
                <circle id="楕円形_432" data-name="楕円形 432" cx="1.017" cy="1.017" r="1.017" transform="translate(0.282 0.282)" fill="#fff"/>
                <path id="パス_76814" data-name="パス 76814" d="M746.208,681.12a1.3,1.3,0,1,1,1.3-1.3A1.3,1.3,0,0,1,746.208,681.12Zm0-2.034a.735.735,0,1,0,.734.735A.735.735,0,0,0,746.208,679.087Z" transform="translate(-744.909 -678.522)" fill="#b35d55"/>
              </g>
              <g id="グループ_6868" data-name="グループ 6868" transform="translate(9.485 43.044)">
                <path id="パス_76815" data-name="パス 76815" d="M681.445,836.806l.3-40.693-9.8-9.233-5.953,4.209-5.766-4.058L651,796.865l.876,39.937Z" transform="translate(-651.002 -786.88)" fill="#fff"/>
              </g>
              <g id="グループ_6869" data-name="グループ 6869" transform="translate(6.653 43.044)">
                <path id="パス_76816" data-name="パス 76816" d="M666.716,855.108l-1.945-21.514s1.161-36.505-.3-38.89c-2.685-4.386-9.878-7.825-9.878-7.825l-5.768,26.448-5.769-26.448s-7.193,3.439-9.878,7.825c-1.46,2.385-.3,38.89-.3,38.89l-1.942,21.474Z" transform="translate(-630.937 -786.88)" fill="#72646b"/>
              </g>
              <g id="グループ_6870" data-name="グループ 6870" transform="translate(43.697 91.045)">
                <path id="パス_76817" data-name="パス 76817" d="M893.384,1127.152l2.092,17.328,3.672-.957-1.692-16.568Z" transform="translate(-893.384 -1126.956)" fill="#fa7c75"/>
              </g>
              <g id="グループ_6871" data-name="グループ 6871" transform="translate(0 46.129)">
                <path id="パス_76818" data-name="パス 76818" d="M597.8,808.739s-2.5.023-6.256,6.768-7.739,32.046-7.739,32.046l6.179,1.951Z" transform="translate(-583.804 -808.739)" fill="#72646b"/>
              </g>
              <g id="グループ_6872" data-name="グループ 6872" transform="translate(34.782 46.129)">
                <path id="パス_76819" data-name="パス 76819" d="M841.63,873.715l-11.4-64.976s2.5.023,6.256,6.768c3.017,5.415,9.4,43.583,11.8,58.435Z" transform="translate(-830.229 -808.739)" fill="#72646b"/>
              </g>
              <g id="グループ_6873" data-name="グループ 6873" transform="translate(7.099 56.762)">
                <path id="パス_76820" data-name="パス 76820" d="M635.3,901.681a.3.3,0,0,1-.3-.288l-.9-17a.3.3,0,0,1,.606-.033l.9,17a.3.3,0,0,1-.288.32Z" transform="translate(-634.097 -884.069)" fill="#373134"/>
              </g>
              <g id="グループ_6874" data-name="グループ 6874" transform="translate(39.434 56.762)">
                <path id="パス_76821" data-name="パス 76821" d="M863.488,901.681h-.016a.3.3,0,0,1-.287-.32l.9-17a.3.3,0,0,1,.607.032l-.9,17A.3.3,0,0,1,863.488,901.681Z" transform="translate(-863.184 -884.069)" fill="#373134"/>
              </g>
              <g id="グループ_6875" data-name="グループ 6875" transform="translate(23.268 5.857)">
                <path id="パス_76822" data-name="パス 76822" d="M752.135,531.985a.326.326,0,0,1-.241-.108,6.754,6.754,0,0,1-.491-.621.325.325,0,0,1,.531-.374,6.011,6.011,0,0,0,.444.561.325.325,0,0,1-.242.542Zm-1.432-2.209a.324.324,0,0,1-.286-.17l-.128-.235c-.08-.144-.155-.289-.231-.436a.325.325,0,1,1,.577-.3c.073.142.147.282.224.421l.129.238a.326.326,0,0,1-.13.44A.333.333,0,0,1,750.7,529.776Zm-1.117-2.386a.324.324,0,0,1-.3-.213c-.09-.247-.171-.495-.242-.736a.325.325,0,1,1,.624-.182c.067.228.143.462.229.695a.323.323,0,0,1-.306.436ZM749,524.827a.325.325,0,0,1-.322-.3c-.017-.211-.025-.422-.025-.628,0-.051,0-.1,0-.156a.324.324,0,0,1,.324-.319h.007a.325.325,0,0,1,.318.331c0,.048,0,.1,0,.144,0,.189.008.383.023.578a.325.325,0,0,1-.3.348Z" transform="translate(-748.655 -523.425)" fill="#ab6533"/>
              </g>
              <g id="グループ_6876" data-name="グループ 6876" transform="translate(26.925 6.514)">
                <path id="パス_76823" data-name="パス 76823" d="M781.449,540.869a.326.326,0,0,1-.233-.1,3.43,3.43,0,0,1-.5-.664.325.325,0,0,1,.562-.327,2.7,2.7,0,0,0,.4.539.325.325,0,0,1-.233.55Zm-1.131-2.353a.325.325,0,0,1-.311-.23c-.068-.222-.145-.474-.226-.7a.324.324,0,1,1,.611-.216c.087.243.166.5.236.73a.323.323,0,0,1-.215.4A.3.3,0,0,1,780.317,538.516Zm-.879-2.485a.326.326,0,0,1-.3-.208c-.089-.233-.18-.464-.275-.693a.325.325,0,0,1,.6-.248c.1.234.191.471.281.708a.325.325,0,0,1-.187.42A.332.332,0,0,1,779.438,536.031Zm-1.09-2.4a.323.323,0,0,1-.286-.172q-.178-.331-.36-.654a.325.325,0,0,1,.566-.319q.185.329.366.667a.324.324,0,0,1-.286.478Zm-1.341-2.268a.325.325,0,0,1-.271-.145c-.137-.208-.279-.413-.421-.609a.325.325,0,1,1,.527-.38c.147.2.293.415.436.63a.325.325,0,0,1-.271.5Zm-1.607-2.087a.325.325,0,0,1-.242-.107c-.165-.183-.335-.363-.506-.537a.325.325,0,1,1,.46-.457c.179.181.357.369.528.56a.324.324,0,0,1-.241.542Z" transform="translate(-774.56 -528.079)" fill="#ab6533"/>
              </g>
              <g id="グループ_6877" data-name="グループ 6877" transform="translate(12.137 7.824)">
                <path id="パス_76824" data-name="パス 76824" d="M670.119,547.537a.352.352,0,0,1-.062-.006.324.324,0,0,1-.257-.381c.047-.241.107-.5.176-.756a.325.325,0,1,1,.628.169c-.067.246-.122.485-.166.711A.326.326,0,0,1,670.119,547.537Zm.787-2.514a.334.334,0,0,1-.124-.024.324.324,0,0,1-.176-.425c.1-.232.2-.469.307-.7a.325.325,0,0,1,.59.272c-.1.226-.2.454-.3.678A.323.323,0,0,1,670.906,545.023Zm1.165-2.364a.317.317,0,0,1-.16-.044.323.323,0,0,1-.121-.443c.125-.22.257-.441.39-.657a.325.325,0,0,1,.553.34c-.13.211-.258.427-.38.639A.326.326,0,0,1,672.071,542.659Zm1.445-2.205a.325.325,0,0,1-.26-.52c.156-.207.315-.41.474-.6a.324.324,0,0,1,.5.411c-.152.186-.307.382-.457.583A.324.324,0,0,1,673.516,540.454Zm1.754-1.967a.324.324,0,0,1-.218-.565c.2-.185.407-.353.6-.5a.324.324,0,0,1,.388.52c-.18.135-.368.29-.557.461A.321.321,0,0,1,675.27,538.486Z" transform="translate(-669.793 -537.357)" fill="#ab6533"/>
              </g>
              <g id="グループ_6878" data-name="グループ 6878" transform="translate(22.702 33.354)">
                <path id="パス_76825" data-name="パス 76825" d="M747.859,718.928h-2.867a.347.347,0,1,1,0-.694h2.867a.347.347,0,1,1,0,.694Z" transform="translate(-744.644 -718.234)" fill="#b35d55"/>
              </g>
            </g>
            <g id="グループ_6880" data-name="グループ 6880" transform="translate(26.493 18.329)">
              <path id="パス_76826" data-name="パス 76826" d="M706.76,612.611a1.368,1.368,0,0,1-.686,1.726,1.2,1.2,0,0,1-1.6-.731,1.368,1.368,0,0,1,.692-1.725A1.2,1.2,0,0,1,706.76,612.611Z" transform="translate(-704.386 -611.785)"/>
            </g>
            <g id="グループ_6881" data-name="グループ 6881" transform="translate(35.508 18.329)">
              <path id="パス_76827" data-name="パス 76827" d="M770.624,612.611a1.367,1.367,0,0,1-.685,1.726,1.2,1.2,0,0,1-1.6-.731,1.365,1.365,0,0,1,.691-1.725A1.2,1.2,0,0,1,770.624,612.611Z" transform="translate(-768.252 -611.785)"/>
            </g>
            <g id="グループ_6882" data-name="グループ 6882" transform="translate(22.498 44.782)">
              <path id="パス_76828" data-name="パス 76828" d="M679.222,808.217a.305.305,0,0,1-.254-.136l-2.838-4.294a.305.305,0,0,1,.014-.354l3.222-4.122a.3.3,0,1,1,.478.374l-3.087,3.951,2.718,4.111a.3.3,0,0,1-.086.419A.3.3,0,0,1,679.222,808.217Z" transform="translate(-676.08 -799.194)" fill="#373134"/>
            </g>
            <g id="グループ_6883" data-name="グループ 6883" transform="translate(24.173 50.45)">
              <path id="パス_76829" data-name="パス 76829" d="M696.12,862.7a.306.306,0,0,1-.208-.082,16.749,16.749,0,0,1-1.88-2.249c-3.486-4.79-5.974-15.431-6.078-15.882a.3.3,0,0,1,.047-.243l3.35-4.766a.3.3,0,1,1,.5.349l-3.271,4.655c.3,1.254,2.737,11.12,5.946,15.53a16.118,16.118,0,0,0,1.805,2.164.3.3,0,0,1-.208.525Z" transform="translate(-687.945 -839.353)" fill="#373134"/>
            </g>
            <g id="グループ_6884" data-name="グループ 6884" transform="translate(41.435 44.782)">
              <path id="パス_76830" data-name="パス 76830" d="M810.927,808.217a.3.3,0,0,1-.167-.051.3.3,0,0,1-.086-.419l2.717-4.111-3.086-3.951a.3.3,0,1,1,.478-.374l3.22,4.122a.3.3,0,0,1,.015.354l-2.838,4.294A.307.307,0,0,1,810.927,808.217Z" transform="translate(-810.241 -799.194)" fill="#373134"/>
            </g>
            <g id="グループ_6885" data-name="グループ 6885" transform="translate(35.11 50.45)">
              <path id="パス_76831" data-name="パス 76831" d="M765.733,862.706a.3.3,0,0,1-.208-.525,15.98,15.98,0,0,0,1.806-2.163c3.21-4.41,5.646-14.274,5.948-15.53l-3.272-4.656a.3.3,0,1,1,.5-.348l3.35,4.766a.313.313,0,0,1,.048.243c-.1.45-2.592,11.092-6.079,15.882a16.721,16.721,0,0,1-1.882,2.249A.3.3,0,0,1,765.733,862.706Z" transform="translate(-765.429 -839.355)" fill="#373134"/>
            </g>
            <g id="グループ_6886" data-name="グループ 6886" transform="translate(17.327 97.272)">
              <path id="パス_76832" data-name="パス 76832" d="M640.164,1171.609c.6,0,10.7-.534,10.7-.534l-.842,2.539-10.582,1.47Z" transform="translate(-639.442 -1171.075)" fill="#60545a"/>
            </g>
            <g id="グループ_6887" data-name="グループ 6887" transform="translate(39.227 97.272)">
              <path id="パス_76833" data-name="パス 76833" d="M805.3,1171.609c-.6,0-10.7-.534-10.7-.534l.842,2.539,10.581,1.47Z" transform="translate(-794.597 -1171.075)" fill="#60545a"/>
            </g>
            <g id="グループ_6889" data-name="グループ 6889" transform="translate(10.904 77.244)">
              <path id="パス_76835" data-name="パス 76835" d="M595.965,1034.7a.3.3,0,0,1-.286-.2l-1.721-4.913a.3.3,0,0,1,.573-.2l1.721,4.912a.3.3,0,0,1-.186.387A.309.309,0,0,1,595.965,1034.7Z" transform="translate(-593.941 -1029.182)" fill="#373134"/>
            </g>
            <g id="グループ_6890" data-name="グループ 6890" transform="translate(32.642 79.022)">
              <path id="パス_76836" data-name="パス 76836" d="M750.424,1043.018a1.238,1.238,0,1,1-1.238-1.238A1.237,1.237,0,0,1,750.424,1043.018Z" transform="translate(-747.948 -1041.78)" fill="#a1acb9"/>
            </g>
            <g id="グループ_6891" data-name="グループ 6891" transform="translate(32.642 91.182)">
              <path id="パス_76837" data-name="パス 76837" d="M750.424,1129.163a1.238,1.238,0,1,1-1.238-1.238A1.237,1.237,0,0,1,750.424,1129.163Z" transform="translate(-747.948 -1127.925)" fill="#a1acb9"/>
            </g>
            <g id="グループ_6892" data-name="グループ 6892" transform="translate(32.642 103.587)">
              <path id="パス_76838" data-name="パス 76838" d="M750.424,1217.052a1.238,1.238,0,1,1-1.238-1.238A1.238,1.238,0,0,1,750.424,1217.052Z" transform="translate(-747.948 -1215.815)" fill="#a1acb9"/>
            </g>
            <g id="グループ_6893" data-name="グループ 6893" transform="translate(40.271 66.808)">
              <path id="パス_76839" data-name="パス 76839" d="M809.8,955.327l-7.484-.084-.32,5.97,3.458,2.088,4.1-1.567Z" transform="translate(-801.996 -955.243)" fill="#60545a"/>
            </g>
            <g id="グループ_6894" data-name="グループ 6894" transform="translate(26.677 44.582)">
              <path id="パス_76840" data-name="パス 76840" d="M713.112,800.169,706.1,797.95l-.412,5.632,7.424-2.219,7.425,2.133.082-5.716Z" transform="translate(-705.687 -797.779)" fill="#1e4852"/>
            </g>
            <g id="グループ_6895" data-name="グループ 6895" transform="translate(27.035 47.554)">
              <path id="パス_76841" data-name="パス 76841" d="M714.017,818.833l-5.794,7.278,3.829,1.444L713.5,829.7l1.708-10.81Z" transform="translate(-708.223 -818.833)" fill="#1e4852"/>
            </g>
            <g id="グループ_6896" data-name="グループ 6896" transform="translate(33.76 47.554)">
              <path id="パス_76842" data-name="パス 76842" d="M757.057,818.833l5.794,7.278-3.828,1.444-1.449,2.141-1.708-10.81Z" transform="translate(-755.866 -818.833)" fill="#1e4852"/>
            </g>
          </g>
        </g>
        <g id="グループ_6899" data-name="グループ 6899" transform="translate(244.473 221.817)">
          <path id="パス_76843" data-name="パス 76843" d="M383.221,637.568l-.046,0a.393.393,0,0,1-.344-.436l1.392-11.833-4.012-43.964a.393.393,0,0,1,.783-.071l4.016,44a.4.4,0,0,1,0,.082l-1.4,11.874A.393.393,0,0,1,383.221,637.568Z" transform="translate(-380.208 -580.904)" fill="#374071"/>
        </g>
      </g>
    </g>
  </g>
</svg>
