<svg xmlns="http://www.w3.org/2000/svg" xmlns:xlink="http://www.w3.org/1999/xlink" width="140" height="140" viewBox="0 0 140 140">
  <defs>
    <clipPath id="clip-path">
      <circle id="楕円形_25" data-name="楕円形 25" cx="70" cy="70" r="70" transform="translate(0 0.477)" fill="#f7f3e5"/>
    </clipPath>
  </defs>
  <g id="merit_03" transform="translate(0 -0.477)">
    <circle id="楕円形_23" data-name="楕円形 23" cx="70" cy="70" r="70" transform="translate(0 0.477)" fill="#f7f3e5"/>
    <g id="マスクグループ_4" data-name="マスクグループ 4" clip-path="url(#clip-path)">
      <g id="グループ_6776" data-name="グループ 6776" transform="translate(-20.079 -1.523)">
        <rect id="長方形_29317" data-name="長方形 29317" width="187.482" height="187.482" fill="none"/>
        <g id="グループ_6777" data-name="グループ 6777" transform="translate(-27.23 36.592)">
          <g id="グループ_6624" data-name="グループ 6624">
            <path id="パス_76451" data-name="パス 76451" d="M587.576,1308.7c5.178-2,2.724-5.51,1.835-9.361-.921-3.993,1.71-10.3-2.3-13.076-3.314-2.3-7.275.686-7.518,4.193a19.062,19.062,0,0,1-1.87,7.089c-.629,1.571-3.621,6.353-3.433,7.808C574.864,1309.842,584.688,1309.817,587.576,1308.7Z" transform="translate(-522.378 -1047.795)" fill="#060606"/>
            <path id="パス_76452" data-name="パス 76452" d="M745.511,1306.4c-.376-.235-.751-.484-1.131-.753-1.648-1.165-3.869-2.669-4.937-4.385-.833-1.338-.369-3.238-1.274-4.442-2.416-3.213-9.106-.9-9.285,2.616-.267,5.214-.37,6.5,3.331,8.149a7.983,7.983,0,0,1,3.23,3.05c.588,1.156.728,2.774,1.86,3.455,1.976,1.187,8.289.844,10.346.218,1.55-.471,2.3-.481,3.125-1.988.948-1.743-1.022-3.717-2.479-4.413A27.17,27.17,0,0,1,745.511,1306.4Z" transform="translate(-639.342 -1055.241)" fill="#060606"/>
            <path id="パス_76453" data-name="パス 76453" d="M888.062,622.681a7.47,7.47,0,0,0,.1-1.8,20.428,20.428,0,0,0-.821-3.2c-.614-2.441-1.353-5.1-3.136-6.936-.544-.562-1.8-1.549-2.106-.334a11.221,11.221,0,0,0,0,2.265,23.985,23.985,0,0,0,.205,3.438c.231,1.739.755,3.459.9,5.2a4.405,4.405,0,0,0,1.69,3.611,1.663,1.663,0,0,0,2.075.145A4.4,4.4,0,0,0,888.062,622.681Z" transform="translate(-755.375 -536.281)" fill="#060606"/>
            <path id="パス_76454" data-name="パス 76454" d="M879.16,571.775a6.324,6.324,0,0,0-.45.567,10.86,10.86,0,0,0-1.383,3.293,3.635,3.635,0,0,1-.924,1.482,13.429,13.429,0,0,0-1.5,2.141,3.221,3.221,0,0,0-.614,1.666,6.165,6.165,0,0,0,.64,1.8,6.939,6.939,0,0,0,.693,1.457c.479.772,1.018,1.181,1.9.7a7.628,7.628,0,0,0,1.838-1.8,17.792,17.792,0,0,1,1.763-1.553,6.073,6.073,0,0,1,3.59-1.463c1.939-.223,3.847-.6,5.812-.709,2.524-.133,5.01-.482,7.518-.84,1.441-.206,2.868-.144,4.316-.318.846-.1,2.829-.391,2.4-1.69.622-.258,1.773-.093,2.217-.675.519-.681-.323-1.389-1.2-1.543,1.336,0,2.878-.874,2.082-1.566a5.85,5.85,0,0,0-3-1.062c-.31-2.543-5.794-1.542-7.407-1.688-1.723-.156-6.654.208-6.9.125s-.654-.614-.545-.9c.072-.184.477-.294.631-.386.4-.236.795-.441,1.2-.665a12.183,12.183,0,0,0,2.569-1.906c.554-.545,1.148-1.194.877-2.029-.19-.58-.746-.524-1.239-.331-.839.33-1.643.946-2.473,1.342-.886.423-1.755.863-2.659,1.249-1.038.444-2.064.931-3.125,1.319-.767.28-1.572.389-2.323.726A13.728,13.728,0,0,0,879.16,571.775Z" transform="translate(-749.517 -501.391)" fill="#eabf98"/>
            <path id="パス_76455" data-name="パス 76455" d="M879.684,625.691c.5.886,1.068,1.728,1.94.8.458-.489,1.181-1.568.774-2.265-.12-.2-.411-.292-.593-.423a2.515,2.515,0,0,1-.782-.99,12.912,12.912,0,0,1-1.44-6c0-.335.285-1.4-.258-1.442-.88-.074-1.043,2.036-1.067,2.522A15.038,15.038,0,0,0,879.684,625.691Z" transform="translate(-752.5 -540.47)" fill="#fff"/>
            <path id="パス_76456" data-name="パス 76456" d="M727.83,1121.463l-.921,51.469H721.5l-4.177-51.149Z" transform="translate(-630.674 -923.636)" fill="#060606"/>
            <path id="パス_76457" data-name="パス 76457" d="M773.656,497.021s9.243.677,9.557,9.095,7.213,43.914.925,44.084-10.509-5.937-10.482-7.708.705-31.78.705-31.78Z" transform="translate(-673.326 -450.87)" fill="#060606"/>
            <path id="パス_76458" data-name="パス 76458" d="M621.155,461.649,608.2,473.641l17.916,45.206,20.334-44.024-12.839-13.2Z" transform="translate(-548.057 -424.068)" fill="#fff"/>
            <path id="パス_76459" data-name="パス 76459" d="M595.31,819.585l.618,118.1,8.937-.639,14.383-99.63,7.641,98.992,11.57-.788L639.825,820S595.682,818.533,595.31,819.585Z" transform="translate(-538.299 -694.796)" fill="#060606"/>
            <path id="パス_76460" data-name="パス 76460" d="M672.133,435.155l1.128,6.774-6.6,5.9-6.715-5.5,1.735-8.168Z" transform="translate(-587.237 -403.273)" fill="#eabf98"/>
            <path id="パス_76461" data-name="パス 76461" d="M646.265,339.17a4.328,4.328,0,0,1,1.411-1.7,27.193,27.193,0,0,1,14.478-.964A4.3,4.3,0,0,1,663.778,338a7.1,7.1,0,0,1,.778,3.685c.082,3.564.226,7.127.279,10.694.028,1.806.035,3.615,0,5.423-.031,1.586-.641,2.369-1.882,3.54a14.535,14.535,0,0,1-2.893,2.341,13.623,13.623,0,0,1-6.7.446,14.554,14.554,0,0,1-3.178-1.936c-1.383-1-2.092-1.692-2.335-3.26-.277-1.786-.51-3.58-.723-5.374-.418-3.542-.749-7.093-1.141-10.636A7.111,7.111,0,0,1,646.265,339.17Z" transform="translate(-576.578 -328.632)" fill="#eabf98"/>
            <path id="パス_76462" data-name="パス 76462" d="M632.384,381.521c.116,1.89,2.162,3.292,4.572,3.13s4.268-1.824,4.153-3.712-2.167-3.291-4.574-3.131S632.266,379.631,632.384,381.521Z" transform="translate(-566.365 -360.604)" fill="#eabf98"/>
            <path id="パス_76463" data-name="パス 76463" d="M702.4,373.956c-.146,1.888,1.691,3.557,4.1,3.724s4.477-1.223,4.619-3.11-1.7-3.556-4.1-3.726S702.538,372.067,702.4,373.956Z" transform="translate(-619.37 -355.33)" fill="#eabf98"/>
            <path id="パス_76464" data-name="パス 76464" d="M629.693,315.218a8.84,8.84,0,0,1,5.059-5.248c.745-.339,1.46-.1,2.023-.548a10.745,10.745,0,0,1,2.585-1.944c3.056-1.288,7.653.369,10.318,1.982a9.654,9.654,0,0,1,4.684,5.872,6.174,6.174,0,0,1,.274,2.4c-.542-.592-.861-1.09-1.3-1.553a7.057,7.057,0,0,0,.356,1.657,8.447,8.447,0,0,1,.581,5.64c-1.337-.728-1.717-.1-1.768,1.207-.011.232-.189,2.766-.186,2.767-.136-.119-.73.213-.73.213.345-.193-.426-3.75-.442-4.226A3.985,3.985,0,0,0,648.1,319.9c-.662-.213-1.362-.311-2.038-.521-.559-.174-1.406-.66-1.985-.5a5.74,5.74,0,0,0,.882,1.794c-1.315.25-3.3-.416-4.587-.744-1.191-.3-2.829-.561-3.569-1.633a4.769,4.769,0,0,0-1.5,3.165c-.156,1.343-.586,2.67-.676,4.037a28.68,28.68,0,0,0,.2,2.992c-.489.165-.947.287-.947.287s-.711-2.838-.84-3.053c-.518-.879-.9-.831-1.788-.382-.04.02-1.871-6.335-1.889-6.917a10.236,10.236,0,0,1,.217-2.81C629.615,315.483,629.652,315.35,629.693,315.218Z" transform="translate(-564.073 -307.018)" fill="#613622"/>
            <g id="グループ_6622" data-name="グループ 6622" transform="translate(72.725 20.625)">
              <path id="パス_76465" data-name="パス 76465" d="M662.678,393.308a1.337,1.337,0,1,1-1.276-1.378A1.326,1.326,0,0,1,662.678,393.308Z" transform="translate(-660.006 -391.929)" fill="#db6b69"/>
            </g>
            <g id="グループ_6623" data-name="グループ 6623" transform="translate(83.455 19.641)">
              <path id="パス_76466" data-name="パス 76466" d="M706.853,389.256a1.337,1.337,0,1,1-1.277-1.378A1.327,1.327,0,0,1,706.853,389.256Z" transform="translate(-704.181 -387.877)" fill="#db6b69"/>
            </g>
            <path id="パス_76467" data-name="パス 76467" d="M642.823,355.332a.372.372,0,0,1-.1.006.3.3,0,0,1-.258-.328c.032-.243.071-.476.113-.694a.3.3,0,0,1,.351-.234.3.3,0,0,1,.235.345c-.042.2-.078.426-.107.655A.3.3,0,0,1,642.823,355.332Zm.629-2.3a.307.307,0,0,1-.19-.019.29.29,0,0,1-.146-.39,6.12,6.12,0,0,1,.34-.633.3.3,0,0,1,.407-.1.293.293,0,0,1,.1.4,6.031,6.031,0,0,0-.307.575A.309.309,0,0,1,643.452,353.032Zm1.393-1.945a.3.3,0,0,1-.276-.078.291.291,0,0,1,0-.417c.161-.161.338-.322.522-.481a.3.3,0,0,1,.42.031.293.293,0,0,1-.031.415c-.173.148-.339.3-.491.45A.3.3,0,0,1,644.845,351.087Z" transform="translate(-573.997 -339.59)" fill="#ab6533"/>
            <path id="パス_76468" data-name="パス 76468" d="M636.131,339.745a.3.3,0,0,1-.237-.328c.013-.1.03-.2.049-.3.026-.135.06-.272.1-.408a.3.3,0,0,1,.367-.2.3.3,0,0,1,.207.364c-.035.12-.064.242-.088.362-.018.087-.03.175-.042.264a.3.3,0,0,1-.334.253Zm.828-2.225a.285.285,0,0,1-.092-.036.291.291,0,0,1-.107-.4c.116-.2.246-.4.383-.593a.3.3,0,0,1,.415-.075.293.293,0,0,1,.076.41c-.128.186-.252.373-.36.557A.3.3,0,0,1,636.959,337.52Zm1.455-1.9a.3.3,0,0,1-.144-.073.291.291,0,0,1-.015-.416c.157-.168.322-.335.491-.5a.3.3,0,0,1,.42.006.291.291,0,0,1,0,.417c-.161.154-.318.315-.471.478A.3.3,0,0,1,638.414,335.621Z" transform="translate(-569.024 -327.863)" fill="#ab6533"/>
            <path id="パス_76469" data-name="パス 76469" d="M701.637,344.568a.289.289,0,0,1,.02-.1.3.3,0,0,1,.387-.163c.228.092.448.186.65.283a.294.294,0,1,1-.252.532c-.192-.092-.4-.182-.616-.268A.3.3,0,0,1,701.637,344.568Zm2.1,1.184a.3.3,0,0,1,.487-.216,7.066,7.066,0,0,1,.534.484.291.291,0,0,1,0,.418.3.3,0,0,1-.421-.006,6.229,6.229,0,0,0-.488-.439A.309.309,0,0,1,703.733,345.752Zm1.562,1.828a.29.29,0,0,1,.144-.245.3.3,0,0,1,.409.106c.118.2.232.4.34.623a.291.291,0,0,1-.132.395.3.3,0,0,1-.4-.135c-.1-.2-.209-.4-.32-.585A.286.286,0,0,1,705.295,347.58Z" transform="translate(-618.8 -335.232)" fill="#ab6533"/>
            <path id="パス_76470" data-name="パス 76470" d="M685.933,330.182a.293.293,0,0,1,.26-.31c.1-.012.2-.02.305-.026.14-.008.283-.011.424-.007a.3.3,0,0,1,.293.3.291.291,0,0,1-.3.287c-.129,0-.253,0-.377.006-.091,0-.181.013-.27.024a.3.3,0,0,1-.333-.258C685.934,330.194,685.933,330.188,685.933,330.182Zm2.39.245a.293.293,0,0,1,.01-.1.3.3,0,0,1,.366-.2c.221.063.449.137.678.221a.294.294,0,1,1-.2.553c-.217-.079-.431-.148-.637-.206A.3.3,0,0,1,688.323,330.427Zm2.232.925a.3.3,0,0,1,.034-.157.3.3,0,0,1,.4-.118c.206.109.411.226.614.347a.294.294,0,1,1-.305.5c-.193-.115-.392-.226-.589-.332A.3.3,0,0,1,690.555,331.352Z" transform="translate(-606.91 -324.295)" fill="#ab6533"/>
            <path id="パス_76471" data-name="パス 76471" d="M698.529,380.548a.978.978,0,1,1-.951-.993A.972.972,0,0,1,698.529,380.548Z" transform="translate(-614.966 -361.935)"/>
            <path id="パス_76472" data-name="パス 76472" d="M671.095,382.909a.978.978,0,1,1-.95-.993A.972.972,0,0,1,671.095,382.909Z" transform="translate(-594.196 -363.723)"/>
            <path id="パス_76473" data-name="パス 76473" d="M680.724,387.24a.253.253,0,0,1-.2-.255.244.244,0,0,1,.181-.285l3.874-.28c-.835-3.156-2.13-7.932-2.335-8.36a.343.343,0,0,1-.021-.343.17.17,0,0,1,.282-.053c.064.063.257.253,2.543,8.927a.362.362,0,0,1-.02.235.189.189,0,0,1-.151.116l-4.133.3Z" transform="translate(-602.814 -360.463)"/>
            <path id="パス_76474" data-name="パス 76474" d="M821.284,625.222c.179-.246-.113-.422-.509-.681a4.728,4.728,0,0,1-1.207-1,15.984,15.984,0,0,1-3.189-7.984,10.337,10.337,0,0,1,.143-3.323c.1-.516.533-1.383.337-1.9-.155-.41-.378-.189-.675-.018q-1.021.585-2.034,1.182c-3.371,1.988-6.7,4.056-9.907,6.3a51.294,51.294,0,0,0-4.628,3.57,9.3,9.3,0,0,0-2.559,2.993c-4.027,9.446-1.229,12.487,4.439,11.139.226-.054.449-.115.671-.181,4.038-1.21,7.845-3.459,11.494-5.52q2.606-1.472,5.168-3.021.842-.508,1.68-1.024c.176-.108.354-.214.527-.326A.935.935,0,0,0,821.284,625.222Z" transform="translate(-689.603 -536.487)" fill="#060606"/>
            <path id="パス_76475" data-name="パス 76475" d="M671.781,449.228a7.282,7.282,0,0,1-2.908-.273,10.533,10.533,0,0,1-2.24-1.265.28.28,0,1,1,.321-.459,10.054,10.054,0,0,0,2.121,1.2,13.492,13.492,0,0,0,6.466-.407,8.245,8.245,0,0,0,1.333-.919.28.28,0,1,1,.357.432,8.706,8.706,0,0,1-1.425.979,8.441,8.441,0,0,1-3.445.665C672.174,449.2,671.98,449.215,671.781,449.228Z" transform="translate(-592.207 -413.032)" fill="#b35d55"/>
            <path id="パス_76476" data-name="パス 76476" d="M690.454,551.993c1.932-1.346-3.245-24.5-3.194-28.016,0-.041,9.427-47.62,9.427-47.62l-4.167-2.667-18.068-9.342.04,16.854-12.768,46.179c.081,6.943,6.057,25.08,7.661,25.963C670.118,553.748,689.581,552.6,690.454,551.993Z" transform="translate(-588.581 -426.134)" fill="#060606"/>
            <path id="パス_76477" data-name="パス 76477" d="M713.254,459.185l.545,23.257s3.834-10.5,3.834-12.335a28.076,28.076,0,0,0-2.667-9A6.491,6.491,0,0,0,713.254,459.185Z" transform="translate(-627.595 -422.224)" fill="#060606"/>
            <path id="パス_76478" data-name="パス 76478" d="M956.563,598.514a.426.426,0,0,1-.314-.713c.818-.894.449-3.671.272-5.005l-.034-.254a.426.426,0,1,1,.844-.11l.033.252c.289,2.179.515,4.6-.488,5.692A.425.425,0,0,1,956.563,598.514Z" transform="translate(-811.483 -522.825)" fill="#b35d55"/>
            <path id="パス_76479" data-name="パス 76479" d="M968.455,596.288a.424.424,0,0,1-.3-.125c-.615-.325-4.9-.092-6.972.02-.971.053-1.737.094-2.135.094a.426.426,0,0,1,0-.852c.374,0,1.169-.043,2.089-.093,5.592-.3,7.236-.247,7.65.261a.426.426,0,0,1-.33.694Z" transform="translate(-813.363 -525.161)" fill="#b35d55"/>
            <path id="パス_76480" data-name="パス 76480" d="M959.7,606.227h-.01c-.333-.008-.747-.018-.748-.451s.335-.445,1-.492c.369-.026.867-.054,1.384-.079,1.021-.052,2.133-.1,2.42-.1.011,0,.263,0,.673,0,1.16.005,3.587.016,5.145.016a.426.426,0,0,1,0,.851c-1.559,0-3.988-.011-5.149-.016l-.654,0c-.561.014-2.789.114-3.8.184A.422.422,0,0,1,959.7,606.227Z" transform="translate(-813.608 -532.696)" fill="#b35d55"/>
            <path id="パス_76481" data-name="パス 76481" d="M969.872,614.377a.426.426,0,0,1-.369-.214,3.523,3.523,0,0,0-1.121-.025c-.155.012-.288.022-.379.022h-2.528c-.327,0-.662.011-.985.022-.34.011-.7.021-1.04.022-.13,0-.289-.012-.457-.025a3.163,3.163,0,0,0-1.071.027.426.426,0,0,1-.516-.677,2.6,2.6,0,0,1,1.65-.2c.168.013.313.023.429.023.323,0,.655-.011.976-.022s.671-.022,1.013-.022H968c.075,0,.183-.009.311-.019a3.04,3.04,0,0,1,1.647.156.431.431,0,0,1,.16.055.426.426,0,0,1,.208.409.434.434,0,0,1-.078.273.46.46,0,0,1-.319.191A.48.48,0,0,1,969.872,614.377Z" transform="translate(-815.346 -538.869)" fill="#b35d55"/>
            <path id="パス_76482" data-name="パス 76482" d="M560.349,497.021s-9.243.677-9.557,9.095-7.214,43.914-.925,44.084,9.121-6.4,9.094-8.169.682-31.318.682-31.318Z" transform="translate(-501.9 -450.87)" fill="#060606"/>
            <path id="パス_76483" data-name="パス 76483" d="M575.454,551.993c-1.932-1.346,3.244-24.5,3.194-28.016,0-.041-9.428-47.62-9.428-47.62l4.167-2.667,18.068-9.342-.039,16.854,12.768,46.179c-.081,6.943-6.057,25.08-7.661,25.963C595.79,553.748,576.327,552.6,575.454,551.993Z" transform="translate(-518.547 -426.134)" fill="#060606"/>
            <path id="パス_76484" data-name="パス 76484" d="M647.986,459.185l-.545,23.257s-3.834-10.5-3.834-12.335a28.075,28.075,0,0,1,2.667-9A6.483,6.483,0,0,1,647.986,459.185Z" transform="translate(-574.865 -422.224)" fill="#060606"/>
            <path id="パス_76485" data-name="パス 76485" d="M622.884,489.127a.318.318,0,0,1-.1-.017l-2.769-.923a.319.319,0,0,1-.149-.5l1.754-2.216a.319.319,0,0,1,.5.4l-1.471,1.858,2.337.779a.319.319,0,0,1-.1.622Z" transform="translate(-556.838 -442.033)" fill="#222325"/>
            <path id="パス_76486" data-name="パス 76486" d="M623.5,536.471a.319.319,0,0,1-.291-.188c-3.282-7.283-7.962-18.822-11.378-27.248-2.077-5.122-3.875-9.556-4.148-10.014a.334.334,0,0,1-.1-.2c-.031-.286-.04-.373,4.393-2.627,2.1-1.066,4.222-2.115,4.243-2.125a.319.319,0,1,1,.282.572c-2.8,1.382-7.237,3.62-8.192,4.223.376.73,1.285,2.955,4.114,9.93,3.415,8.421,8.092,19.954,11.368,27.226a.319.319,0,0,1-.291.45Z" transform="translate(-547.587 -448.61)" fill="#222325"/>
            <path id="パス_76487" data-name="パス 76487" d="M742.952,488.883a.319.319,0,0,1-.115-.617l2-.77-1.913-2.686a.319.319,0,1,1,.52-.371l2.152,3.021a.319.319,0,0,1-.146.483l-2.388.918A.323.323,0,0,1,742.952,488.883Z" transform="translate(-649.838 -441.243)" fill="#222325"/>
            <path id="パス_76488" data-name="パス 76488" d="M678.6,543.682a.333.333,0,0,1-.27-.14.319.319,0,0,1,.153-.481c.164-.149.918-1.018,3.922-6.024,2.48-4.133,8.646-18.288,12.727-27.655,2.74-6.29,3.647-8.351,4.027-9.047-.943-.569-5-2.533-7.574-3.747a.319.319,0,0,1,.272-.577c.02.009,1.995.942,3.942,1.892,4.134,2.017,4.126,2.1,4.1,2.387a.334.334,0,0,1-.11.211c-.278.431-2.038,4.47-4.07,9.136-4.087,9.382-10.264,23.56-12.765,27.728-3.779,6.3-4.131,6.31-4.342,6.316Z" transform="translate(-601.111 -450.082)" fill="#222325"/>
            <path id="パス_76489" data-name="パス 76489" d="M580.45,548.161h-.025a.319.319,0,0,1-.294-.343l.213-2.766c.206-2.685-3.993-19.943-4.035-20.117a.319.319,0,0,1,.62-.151c.174.715,4.266,17.532,4.052,20.317l-.213,2.767A.319.319,0,0,1,580.45,548.161Z" transform="translate(-523.907 -471.704)" fill="#222325"/>
            <path id="パス_76490" data-name="パス 76490" d="M782.73,548.162a.319.319,0,0,1-.318-.295L782.2,545.1c-.214-2.785,3.877-19.6,4.052-20.317a.319.319,0,0,1,.62.151c-.043.174-4.242,17.432-4.035,20.117l.213,2.767a.319.319,0,0,1-.294.343Z" transform="translate(-679.788 -471.704)" fill="#222325"/>
            <path id="パス_76491" data-name="パス 76491" d="M890.435,657.4a.335.335,0,0,1-.07-.008,6.162,6.162,0,0,1-2.523-2.174c-.081-.145-.14-.274-.207-.423a9.61,9.61,0,0,0-.456-.9.319.319,0,1,1,.554-.317,10.346,10.346,0,0,1,.484.949c.064.141.115.253.183.375a5.833,5.833,0,0,0,2.106,1.863.319.319,0,0,1-.07.631Z" transform="translate(-759.241 -569.281)" fill="#222325"/>
            <path id="パス_76492" data-name="パス 76492" d="M466.789,622.681a7.459,7.459,0,0,1-.1-1.8,20.48,20.48,0,0,1,.82-3.2c.615-2.441,1.353-5.1,3.136-6.936.545-.562,1.8-1.549,2.107-.334a11.225,11.225,0,0,1,0,2.265,23.972,23.972,0,0,1-.205,3.438c-.231,1.739-.754,3.459-.9,5.2a4.407,4.407,0,0,1-1.69,3.611,1.663,1.663,0,0,1-2.075.145A4.405,4.405,0,0,1,466.789,622.681Z" transform="translate(-440.908 -536.281)" fill="#060606"/>
            <path id="パス_76493" data-name="パス 76493" d="M389.525,571.775a6.262,6.262,0,0,1,.45.567,10.861,10.861,0,0,1,1.383,3.293,3.641,3.641,0,0,0,.924,1.482,13.381,13.381,0,0,1,1.5,2.141,3.216,3.216,0,0,1,.614,1.666,6.176,6.176,0,0,1-.64,1.8,6.941,6.941,0,0,1-.694,1.457c-.479.772-1.017,1.181-1.9.7a7.631,7.631,0,0,1-1.838-1.8,17.816,17.816,0,0,0-1.763-1.553,6.07,6.07,0,0,0-3.589-1.463c-1.939-.223-3.847-.6-5.812-.709-2.524-.133-5.01-.482-7.518-.84-1.44-.206-2.868-.144-4.316-.318-.846-.1-2.829-.391-2.4-1.69-.622-.258-1.773-.093-2.217-.675-.519-.681.324-1.389,1.2-1.543-1.336,0-2.878-.874-2.082-1.566a5.847,5.847,0,0,1,3-1.062c.31-2.543,5.794-1.542,7.407-1.688,1.723-.156,6.654.208,6.9.125s.655-.614.545-.9c-.072-.184-.478-.294-.632-.386-.4-.236-.795-.441-1.2-.665a12.192,12.192,0,0,1-2.569-1.906c-.554-.545-1.147-1.194-.876-2.029.189-.58.746-.524,1.238-.331.839.33,1.644.946,2.473,1.342.886.423,1.755.863,2.658,1.249,1.038.444,2.064.931,3.126,1.319.767.28,1.572.389,2.323.726A13.737,13.737,0,0,1,389.525,571.775Z" transform="translate(-360.6 -501.391)" fill="#eabf98"/>
            <path id="パス_76494" data-name="パス 76494" d="M480.974,625.691c-.5.886-1.068,1.728-1.94.8-.458-.489-1.181-1.568-.773-2.265.119-.2.41-.292.593-.423a2.516,2.516,0,0,0,.782-.99,12.92,12.92,0,0,0,1.44-6c0-.335-.286-1.4.257-1.442.88-.074,1.043,2.036,1.068,2.522A15.038,15.038,0,0,1,480.974,625.691Z" transform="translate(-449.59 -540.47)" fill="#fff"/>
            <path id="パス_76495" data-name="パス 76495" d="M471.126,625.222c-.179-.246.113-.422.51-.681a4.726,4.726,0,0,0,1.207-1,15.983,15.983,0,0,0,3.189-7.984,10.344,10.344,0,0,0-.143-3.323c-.1-.516-.533-1.383-.337-1.9.155-.41.377-.189.675-.018q1.021.585,2.035,1.182c3.37,1.988,6.7,4.056,9.907,6.3a51.394,51.394,0,0,1,4.628,3.57,9.312,9.312,0,0,1,2.559,2.993c4.026,9.446,1.229,12.487-4.439,11.139-.226-.054-.449-.115-.671-.181-4.038-1.21-7.845-3.459-11.494-5.52q-2.606-1.472-5.168-3.021-.842-.508-1.68-1.024c-.176-.108-.353-.214-.527-.326A.933.933,0,0,1,471.126,625.222Z" transform="translate(-444.239 -536.487)" fill="#060606"/>
            <path id="パス_76496" data-name="パス 76496" d="M412.865,598.515a.425.425,0,0,1-.314-.138c-1-1.1-.777-3.513-.488-5.693l.033-.252a.426.426,0,0,1,.844.11l-.033.254c-.177,1.335-.546,4.111.272,5.006a.426.426,0,0,1-.314.713Z" transform="translate(-399.377 -522.825)" fill="#b35d55"/>
            <path id="パス_76497" data-name="パス 76497" d="M373.586,596.287a.426.426,0,0,1-.33-.694c.413-.508,2.057-.565,7.65-.261.92.05,1.714.093,2.089.093a.426.426,0,1,1,0,.851c-.4,0-1.164-.042-2.135-.094-2.068-.112-6.356-.344-6.972-.02A.426.426,0,0,1,373.586,596.287Z" transform="translate(-370.11 -525.16)" fill="#b35d55"/>
            <path id="パス_76498" data-name="パス 76498" d="M379.876,606.228a.422.422,0,0,1-.263-.092c-1.01-.07-3.24-.17-3.806-.184l-.648,0c-1.161.005-3.59.016-5.148.016a.426.426,0,1,1,0-.851c1.557,0,3.985-.011,5.144-.016l.673,0c.288.007,1.4.053,2.421.1.516.026,1.014.054,1.384.079.667.046,1,.07,1,.492s-.415.443-.747.451Z" transform="translate(-367.402 -532.697)" fill="#b35d55"/>
            <path id="パス_76499" data-name="パス 76499" d="M375.809,614.376a.488.488,0,0,1-.06,0,.459.459,0,0,1-.32-.191.437.437,0,0,1-.078-.275.427.427,0,0,1,.368-.462,3.032,3.032,0,0,1,1.647-.156c.128.01.236.019.311.019H380.2c.342,0,.683.011,1.014.022s.676.027,1.009.022c.106,0,.243-.011.4-.023a2.6,2.6,0,0,1,1.65.2.426.426,0,0,1-.517.676,3.174,3.174,0,0,0-1.069-.026c-.169.013-.328.025-.457.025-.349,0-.7-.011-1.04-.022-.323-.011-.657-.022-.985-.022h-2.527c-.091,0-.224-.01-.379-.022a3.531,3.531,0,0,0-1.121.025A.425.425,0,0,1,375.809,614.376Z" transform="translate(-371.767 -538.868)" fill="#b35d55"/>
            <path id="パス_76500" data-name="パス 76500" d="M472.3,657.4a.319.319,0,0,1-.07-.631,5.835,5.835,0,0,0,2.106-1.863c.068-.122.118-.233.183-.374a10.167,10.167,0,0,1,.484-.951.319.319,0,1,1,.554.317,9.637,9.637,0,0,0-.457.9c-.067.148-.126.277-.207.422a6.163,6.163,0,0,1-2.523,2.174A.334.334,0,0,1,472.3,657.4Z" transform="translate(-444.93 -569.283)" fill="#222325"/>
            <path id="パス_76501" data-name="パス 76501" d="M687.029,714.459a1.334,1.334,0,1,1-1.328-1.216A1.276,1.276,0,0,1,687.029,714.459Z" transform="translate(-605.728 -614.572)" fill="#222325"/>
            <path id="パス_76502" data-name="パス 76502" d="M672.572,770.753a1.334,1.334,0,1,1-1.328-1.216A1.276,1.276,0,0,1,672.572,770.753Z" transform="translate(-594.783 -657.192)" fill="#222325"/>
            <path id="パス_76503" data-name="パス 76503" d="M678.981,510.93c0-1.069-2.444-11.076-2.444-11.076l1.222-5.347-1.938-1.147-.888-.526-.888.526-1.938,1.147,1.222,5.347s-2.445,10.007-2.445,11.076V512l4.049,14.36h0L678.981,512Z" transform="translate(-595.517 -447.7)" fill="#224b73"/>
            <path id="パス_76504" data-name="パス 76504" d="M662.477,494.772a.324.324,0,0,1-.109-.019.32.32,0,0,1-.2-.212l-.764-2.674a.319.319,0,0,1,.614-.176l.642,2.249,4.906-3.341a.32.32,0,0,1,.353,0l5.008,3.245.461-3.025a.319.319,0,1,1,.631.1l-.535,3.514a.319.319,0,0,1-.489.22l-5.245-3.4-5.1,3.471A.318.318,0,0,1,662.477,494.772Z" transform="translate(-588.331 -445.966)" fill="#a0a6b1"/>
            <path id="パス_76505" data-name="パス 76505" d="M617.574,800.694c-1.112,0-2.437-.035-4.021-.117-4.437-.23-8.8-.724-8.847-.729a.319.319,0,0,1,.072-.634c7.131.813,17.464,1.365,18.111.05.492-1,1.074-4.419,1.641-9.628a.319.319,0,1,1,.635.069c-.406,3.737-1.031,8.477-1.7,9.841C623.294,799.887,622.9,800.694,617.574,800.694Z" transform="translate(-545.199 -672.193)" fill="#222325"/>
            <path id="パス_76506" data-name="パス 76506" d="M683.492,736.145a7.37,7.37,0,0,1-1.51-.121c-.547-.122-2-.444-5.152-16.289-1.539-7.738-2.743-15.5-2.755-15.574a.319.319,0,1,1,.631-.1c.012.077,1.214,7.825,2.751,15.549,2.85,14.322,4.29,15.706,4.664,15.789,2.775.618,14.119-1.576,14.233-1.6a.319.319,0,1,1,.122.626C696.065,734.509,687.6,736.145,683.492,736.145Z" transform="translate(-597.929 -607.417)" fill="#222325"/>
            <path id="パス_76507" data-name="パス 76507" d="M603.729,1296.2a.213.213,0,0,1-.191-.119.755.755,0,0,1,.039-.728,3.909,3.909,0,0,1,2.4-1.355c1.321-.121,3.545.328,4.356,1.7a.21.21,0,0,1,.03.1.3.3,0,0,1-.1.257.252.252,0,0,1-.228.04.213.213,0,0,1-.2-.369,4.734,4.734,0,0,0-3.825-1.305,3.564,3.564,0,0,0-2.072,1.14.327.327,0,0,0-.029.332.213.213,0,0,1-.191.307Z" transform="translate(-544.472 -1054.25)" fill="#141516"/>
            <path id="パス_76508" data-name="パス 76508" d="M737.338,1298.936a.792.792,0,0,1-.128-.01.781.781,0,0,1-.566-.439.213.213,0,1,1,.375-.2c.094.175.194.21.261.221.465.081,1.33-.724,2.027-1.368.888-.819,1.456-1.315,1.917-1.234a.213.213,0,1,1-.075.419c-.276-.049-.984.6-1.553,1.128C738.8,1298.182,737.987,1298.936,737.338,1298.936Z" transform="translate(-645.285 -1055.699)" fill="#141516"/>
            <path id="パス_76509" data-name="パス 76509" d="M749.542,1335.724c-.228,0-.456-.006-.68-.012s-.443-.012-.662-.012a12.722,12.722,0,0,1-3.273-.288,7.115,7.115,0,0,1-3.664-2.375,7.931,7.931,0,0,1-.875-1.409,7.555,7.555,0,0,0-.787-1.284,6.4,6.4,0,0,0-1.925-1.385,12.089,12.089,0,0,1-1.19-.715,9.175,9.175,0,0,1-2.961-3.171.213.213,0,1,1,.378-.2,8.773,8.773,0,0,0,2.831,3.019,11.691,11.691,0,0,0,1.148.689,6.707,6.707,0,0,1,2.05,1.488,8,8,0,0,1,.834,1.355,7.584,7.584,0,0,0,.826,1.334,6.685,6.685,0,0,0,3.445,2.235,16.524,16.524,0,0,0,3.838.287,12.668,12.668,0,0,0,1.293-.009,6.511,6.511,0,0,0,1.557-.38,7.543,7.543,0,0,1,1.471-.379.213.213,0,1,1,.05.423,7.1,7.1,0,0,0-1.387.36,6.97,6.97,0,0,1-1.658.4C749.981,1335.719,749.761,1335.724,749.542,1335.724Z" transform="translate(-642.923 -1077.556)" fill="#141516"/>
            <path id="パス_76510" data-name="パス 76510" d="M587.072,1370.886a11.785,11.785,0,0,1-1.286-.068,13.577,13.577,0,0,1-4.19-1.445c-.405-.191-.788-.371-1.175-.539a.213.213,0,0,1,.17-.39c.392.171.8.361,1.186.545a13.281,13.281,0,0,0,4.055,1.406c2.348.258,5.548-.251,7.122-1.722a.213.213,0,0,1,.291.311C591.8,1370.337,589.251,1370.886,587.072,1370.886Z" transform="translate(-526.93 -1110.613)" fill="#141516"/>
          </g>
          <path id="パス_76511" data-name="パス 76511" d="M689.678,432.739a.86.86,0,1,1-.935-.875A.909.909,0,0,1,689.678,432.739Z" transform="translate(-608.45 -401.537)" fill="#d21337"/>
        </g>
        <g id="グループ_6627" data-name="グループ 6627" transform="matrix(0.966, 0.259, -0.259, 0.966, 79.933, 45.785)">
          <g id="グループ_6626" data-name="グループ 6626" transform="translate(0 0)">
            <path id="パス_76512" data-name="パス 76512" d="M.016,1.188A.487.487,0,0,0,.487,1.8a6.01,6.01,0,0,0,1.422.063,2.143,2.143,0,0,0,.531-.1A.854.854,0,0,0,2.568,1.7c.043-.025.358-.3.3-.3a.9.9,0,0,1-.141,0c.213,0,.6-.074.448-.34.535-.285-.109-.4-.348-.4C3.073.032,2.4.391,2.09.365,2.048.216,1.922.183,1.761.227c.067-.018-.116-.2-.138-.209-.109-.06-.268.052-.374.054C.971.079.6-.039.431.273a.546.546,0,0,0,.111.57C.243.887.086.86.016,1.188Z" transform="translate(39.308 25.453)" fill="#60a53e"/>
            <path id="パス_76513" data-name="パス 76513" d="M.206,4.475c-.187.087-.343.405-.016.482a1.185,1.185,0,0,0-.022.157c.114,0,.251.062.38.032-.043.2-.37.3-.3.532.048.154.416.17.5.388A1.13,1.13,0,0,0,1.3,5.9c.037.123.136.256.169.383a3.4,3.4,0,0,1,.6.037,1.818,1.818,0,0,0,.586-.065c.437-.054.887.252,1.347.212a3.267,3.267,0,0,0,.724-.242c.386-.119.47.158.772.137.149-.01.264-.209.418-.242.069-.014.227.114.349.091.242-.043.391-.259.673-.286.321-.031.557.087.884-.076A.832.832,0,0,0,7.541,5.4c.462-.132.236-.638-.038-.521l-.131-.034c.435.018.461-.9-.116-.765.376-.034.31-.379.273-.658-.147.033-.22-.043-.342-.069.073-.317.532-.411.344-.7-.1-.16-.483-.089-.6-.358-.039-.091.089-.215.073-.3-.1-.568-.489-.56-.975-.457.04-.459-.3-.516-.684-.511-.082-.5.033-1.207-.742-.98a1.056,1.056,0,0,0-.477.292c-.085.105-.025.27-.061.309A1.245,1.245,0,0,1,3.063.8a1.015,1.015,0,0,0-.109.56.3.3,0,0,0-.534.219c-.259.015-.834-.155-.808.255-.274.012-.588-.18-.753.109s.1.783.387.77c-.14.08-.423.186-.494.346-.11.25.106.357.117.565C.88,3.85.6,4.293.88,4.476.681,4.505.379,4.4.206,4.475Z" transform="translate(36.025 18.674)" fill="#4e7024"/>
            <path id="パス_76514" data-name="パス 76514" d="M2.83.674C3.073.032,2.4.391,2.089.365,2.048.216,1.923.183,1.762.227c.066-.018-.117-.2-.139-.209-.108-.06-.267.052-.374.054C.971.079.6-.039.43.274A.551.551,0,0,0,.541.843C.243.887.086.86.016,1.188A.486.486,0,0,0,.487,1.8a6.015,6.015,0,0,0,1.422.063,2.158,2.158,0,0,0,.531-.1A.852.852,0,0,0,2.568,1.7c.043-.025.358-.3.3-.3a.93.93,0,0,1-.141,0c.213,0,.6-.074.448-.34C3.713.786,3.068.671,2.83.674Z" transform="translate(1.542 28.016)" fill="#60a53e"/>
            <path id="パス_76515" data-name="パス 76515" d="M6.306,4.909,6.2,4.873c.366.022.378-.9-.105-.766.316-.03.257-.376.222-.655-.123.031-.185-.045-.288-.073.058-.316.443-.4.281-.7-.088-.161-.406-.095-.5-.364-.033-.091.074-.214.059-.3-.091-.569-.417-.565-.823-.467.029-.459-.258-.519-.58-.518C4.381.531,4.47-.178,3.82.041a.848.848,0,0,0-.4.286C3.352.431,3.4.6,3.375.635c-.18.227-.6.2-.845.145a1.155,1.155,0,0,0-.085.559c-.2-.211-.427-.1-.446.214-.217.012-.7-.164-.677.246-.23.009-.5-.186-.631.1s.089.784.334.774c-.117.078-.355.181-.412.34-.09.248.093.358.1.566.013.225-.215.664.018.85-.167.027-.421-.086-.566-.008s-.283.4-.008.481a1.379,1.379,0,0,0-.017.157c.1,0,.211.065.32.036-.034.2-.308.293-.244.529.042.155.352.174.422.393.174.024.307-.091.46-.163.032.123.116.257.145.385a2.419,2.419,0,0,1,.5.044c.223.035.277-.03.492-.058.367-.049.748.262,1.134.226a2.392,2.392,0,0,0,.605-.234c.323-.114.4.163.65.146.125-.009.22-.206.349-.237.058-.014.191.116.294.1.2-.041.327-.254.562-.279.269-.027.469.093.742-.066a.9.9,0,0,0-.234-.445C6.73,5.3,6.534,4.794,6.306,4.909Z" transform="translate(0 21.175)" fill="#4e7024"/>
            <g id="グループ_6625" data-name="グループ 6625" transform="translate(1.965 0)">
              <rect id="長方形_29318" data-name="長方形 29318" width="13.327" height="13.932" transform="matrix(0.998, -0.068, 0.068, 0.998, 0.435, 15.978)" fill="#d7d4c9"/>
              <rect id="長方形_29319" data-name="長方形 29319" width="13.386" height="1.727" transform="matrix(0.998, -0.068, 0.068, 0.998, 0, 14.484)" fill="#4e556a"/>
              <path id="パス_76516" data-name="パス 76516" d="M9.182,0,0,11.529l.554,8.159,20.164-1.369L19.783,4.542Z" transform="translate(17.888 9.009)" fill="#b2afa2"/>
              <path id="パス_76517" data-name="パス 76517" d="M9.615,4.587,0,0,.174,2.559,9.789,7.145Z" transform="translate(28.643 8.379)" fill="#4e556a"/>
              <path id="パス_76518" data-name="パス 76518" d="M0,7.976.8,19.761,19.435,18.5,18.554,5.5,8.668,0Z" transform="translate(10.281 2.476)" fill="#d7d4c9"/>
              <path id="パス_76519" data-name="パス 76519" d="M0,5.764l.554,8.159,20.165-1.368-.61-9L9.573,0Z" transform="translate(10.232 15.294)" fill="#d7d4c9"/>
              <path id="パス_76520" data-name="パス 76520" d="M11.5,3.462,11.261,0,0,9.878l.235,3.464Z" transform="translate(7.749 0)" fill="#4d4f7d"/>
              <path id="パス_76521" data-name="パス 76521" d="M0,0,.235,3.463l12.493,8.267-.235-3.464Z" transform="translate(18.969 0.003)" fill="#4d4f7d"/>
              <rect id="長方形_29320" data-name="長方形 29320" width="1.818" height="2.121" transform="translate(13.693 11.536) rotate(-3.884)" fill="#4d4f7d"/>
              <rect id="長方形_29321" data-name="長方形 29321" width="1.818" height="2.121" transform="matrix(0.998, -0.068, 0.068, 0.998, 16.313, 11.358)" fill="#4d4f7d"/>
              <rect id="長方形_29322" data-name="長方形 29322" width="1.818" height="2.12" transform="translate(13.912 14.759) rotate(-3.881)" fill="#4d4f7d"/>
              <rect id="長方形_29323" data-name="長方形 29323" width="1.818" height="2.12" transform="translate(16.532 14.582) rotate(-3.881)" fill="#4d4f7d"/>
              <rect id="長方形_29324" data-name="長方形 29324" width="1.312" height="9.894" transform="translate(19.649 9.817) rotate(-3.882)" fill="#74bab3"/>
              <rect id="長方形_29325" data-name="長方形 29325" width="1.313" height="9.894" transform="translate(22.267 9.639) rotate(-3.882)" fill="#74bab3"/>
              <rect id="長方形_29326" data-name="長方形 29326" width="1.313" height="9.894" transform="translate(24.887 9.461) rotate(-3.882)" fill="#74bab3"/>
              <rect id="長方形_29327" data-name="長方形 29327" width="21.001" height="2.12" transform="translate(9.915 19.99) rotate(-3.885)" fill="#939085"/>
              <rect id="長方形_29328" data-name="長方形 29328" width="1.616" height="2.524" transform="translate(1.954 17.494) rotate(-3.879)" fill="#74bab3"/>
              <rect id="長方形_29329" data-name="長方形 29329" width="1.615" height="2.524" transform="translate(4.876 17.295) rotate(-3.879)" fill="#74bab3"/>
              <rect id="長方形_29330" data-name="長方形 29330" width="1.615" height="2.524" transform="translate(7.796 17.097) rotate(-3.883)" fill="#74bab3"/>
              <rect id="長方形_29331" data-name="長方形 29331" width="1.292" height="3.357" transform="translate(31.818 15.909) rotate(-3.881)" fill="#4d4f7d"/>
              <rect id="長方形_29332" data-name="長方形 29332" width="1.293" height="3.357" transform="translate(34.222 15.746) rotate(-3.881)" fill="#4d4f7d"/>
              <rect id="長方形_29333" data-name="長方形 29333" width="7.774" height="0.707" transform="matrix(0.998, -0.068, 0.068, 0.998, 1.804, 21.249)" fill="#e9e7de"/>
              <rect id="長方形_29334" data-name="長方形 29334" width="7.774" height="0.706" transform="translate(1.92 22.961) rotate(-3.886)" fill="#e9e7de"/>
              <rect id="長方形_29335" data-name="長方形 29335" width="7.774" height="0.707" transform="matrix(0.998, -0.068, 0.068, 0.998, 2.036, 24.673)" fill="#e9e7de"/>
              <rect id="長方形_29336" data-name="長方形 29336" width="7.774" height="0.706" transform="matrix(0.998, -0.068, 0.068, 0.998, 2.152, 26.385)" fill="#e9e7de"/>
              <rect id="長方形_29337" data-name="長方形 29337" width="2.195" height="4.801" transform="translate(12.524 23.933) rotate(-3.882)" fill="#939085"/>
            </g>
            <rect id="長方形_29338" data-name="長方形 29338" width="9.545" height="5.439" transform="matrix(0.998, -0.068, 0.068, 0.998, 21.091, 23.15)" fill="#939085"/>
            <rect id="長方形_29339" data-name="長方形 29339" width="7.902" height="0.513" transform="translate(22.001 24.425) rotate(-3.882)" fill="#d7d4c9"/>
            <rect id="長方形_29340" data-name="長方形 29340" width="7.902" height="0.513" transform="translate(22.071 25.45) rotate(-3.882)" fill="#d7d4c9"/>
            <rect id="長方形_29341" data-name="長方形 29341" width="7.902" height="0.513" transform="translate(22.14 26.473) rotate(-3.882)" fill="#d7d4c9"/>
            <path id="パス_76522" data-name="パス 76522" d="M.185.078,0,0A.317.317,0,0,0,.185.078Z" transform="translate(5.629 29.112)" fill="#92c56c"/>
            <path id="パス_76523" data-name="パス 76523" d="M2.981,1.341c-.094-.119-.4-.014-.509-.14s0-.225-.029-.337C2.4.7,2.5.581,2.415.4,2.357.288,2.1.289,2.027.089,1.848.109,1.5-.071,1.371.032c-.146.119.073.417-.019.558C1.225.785,1.113.653.968.748.808.854.79.739.626.922c-.1.108-.024.317-.12.44-.124.16-.388.006-.482.253a.286.286,0,0,0,.265.411c.1.312-.532.972.307.788-.032.121.009.232-.065.349.15.136,1.23.618,1.163.09.061.475.992-.092.931-.431L2.6,2.811a.317.317,0,0,1-.185-.078l.185.078a.228.228,0,0,0,.228-.155c.121-.288-.232-.235-.249-.437C2.547,1.794,3.293,1.733,2.981,1.341Z" transform="translate(3.212 26.379)" fill="#92c56c"/>
            <path id="パス_76524" data-name="パス 76524" d="M7,4.554l-.123-.032c.407.017.43-.841-.108-.714.35-.031.29-.353.254-.613-.137.031-.2-.04-.319-.065.069-.294.5-.383.321-.655-.1-.15-.45-.084-.555-.334-.035-.085.083-.2.068-.284-.094-.531-.455-.523-.908-.426C5.666,1,5.349.949,4.99.954,4.913.491,5.02-.171,4.3.04a.984.984,0,0,0-.445.272C3.773.41,3.829.564,3.8.6a1.163,1.163,0,0,1-.939.146.942.942,0,0,0-.1.521.283.283,0,0,0-.5.205c-.241.015-.778-.145-.754.238-.256.011-.548-.168-.7.1s.089.73.36.718c-.131.075-.4.174-.462.323-.1.233.1.333.109.527S.563,4,.82,4.174C.635,4.2.353,4.1.191,4.173s-.319.378-.015.449a1.349,1.349,0,0,0-.021.147c.107,0,.234.059.355.029-.039.186-.345.277-.276.5.044.143.388.158.462.361A1.057,1.057,0,0,0,1.209,5.5c.034.113.127.239.156.358a3.164,3.164,0,0,1,.558.034,1.676,1.676,0,0,0,.547-.059c.408-.051.828.235,1.257.2A3.016,3.016,0,0,0,4.4,5.8c.359-.111.438.147.72.128.139-.009.246-.194.39-.225.065-.014.211.106.324.086.227-.042.366-.242.628-.268.3-.029.52.081.824-.07a.784.784,0,0,0-.255-.413C7.464,4.917,7.252,4.445,7,4.554Z" transform="translate(5.173 23.975)" fill="#4e7024"/>
            <path id="パス_76525" data-name="パス 76525" d="M.177.075,0,0A.3.3,0,0,0,.177.075Z" transform="translate(14.177 28.331)" fill="#b8d56b"/>
            <path id="パス_76526" data-name="パス 76526" d="M2.834,1.275c-.09-.113-.386-.014-.484-.133s0-.214-.027-.319c-.045-.154.054-.27-.028-.436C2.24.273,2,.275,1.926.084c-.17.02-.5-.152-.623-.053-.139.114.069.4-.018.531C1.165.746,1.058.62.92.711.767.812.751.7.595.877c-.093.1-.023.3-.113.417-.118.153-.371.006-.458.241a.272.272,0,0,0,.252.39c.091.3-.506.923.292.749-.031.114.007.22-.063.332.143.128,1.171.587,1.105.085.058.451.943-.088.885-.411l-.02-.009A.3.3,0,0,1,2.3,2.6l.177.075a.217.217,0,0,0,.216-.147c.115-.274-.221-.224-.237-.415C2.421,1.7,3.13,1.646,2.834,1.275Z" transform="translate(11.88 25.734)" fill="#b8d56b"/>
            <rect id="長方形_29342" data-name="長方形 29342" width="8.239" height="1.087" transform="translate(12.17 28.53) rotate(-3.888)" fill="#b2afa2"/>
          </g>
        </g>
        <g id="グループ_6726" data-name="グループ 6726" transform="translate(102.422 17.065) rotate(13)">
          <g id="グループ_6718" data-name="グループ 6718" transform="translate(5.099 0)">
            <g id="グループ_6657" data-name="グループ 6657" transform="translate(3.109 8.662)">
              <g id="グループ_6628" data-name="グループ 6628" transform="translate(0 0)">
                <path id="パス_76527" data-name="パス 76527" d="M21.291,7.637l-.372.238-.35.251-.35.251-.353.247-.341.267-.362.236-.356.245-.334.274-.355.244-.355.244-.351.249-.356.243-.356.243-.338.269-.354.248-.348.258-.352.25-.368.228-.35.252-.347.257-.357.243-.345.262-.351.253-.362.236-.35.25-.347.254-.355.241-.34.264-.345.258-.362.238-.354.251-.355.247-.354.248-.343.265-.359.244-.358.244-.354.252-.351.257-.354.249-.348.261-.365.235-.345.266-.354.257-.362.247-.355.244-.27-.342-.239-.372-.248-.365L4.4,17.464l-.263-.356-.266-.356-.254-.367-.257-.362L3.1,15.662l-.25-.368-.251-.37-.255-.365L2.075,14.2l-.257-.366-.252-.366L1.3,13.111l-.256-.365L.78,12.384l-.258-.367-.27-.36L0,11.287l.354-.239L.7,10.789l.36-.239.337-.269.35-.255L2.1,9.78l.362-.236L2.814,9.3l.351-.25.345-.258.343-.261L4.2,8.277l.361-.236.349-.254.359-.241.339-.269.353-.25.37-.224.342-.263L7.034,6.3l.336-.272.367-.232.338-.27.352-.25.365-.229.338-.266.353-.245.354-.244.344-.259.35-.254.355-.251.371-.224.342-.266.348-.257.364-.238.354-.251.358-.245.348-.263.345-.261.354-.252.359-.244.35-.261.366-.239.361-.247L15.858,0,16.1.381l.278.344.232.376.281.342.233.378.265.357.269.356.259.361.251.366.253.366L18.67,4l.268.357.248.37.274.354.267.355.249.371.253.367.265.361.271.358.24.381Z" fill="#f6e3ca"/>
              </g>
              <g id="グループ_6629" data-name="グループ 6629" transform="translate(1.305 1.494)">
                <path id="パス_76528" data-name="パス 76528" d="M18.555,5.863l-.369.256-.358.254-.367.241-.347.27-.355.258L16.4,7.4l-.361.25-.364.245-.357.257-.349.269-.37.241-.358.257-.356.258-.362.249-.347.272-.366.244-.367.246-.355.261-.358.254-.353.261-.361.247-.36.25-.351.261-.35.265-.369.243-.355.264-.37.24-.359.255-.352.266-.365.251-.354.265-.366.248-.365.251-.356.259-.361.256-.362.253-.36.26-.36.261-.361.262-.367.27-.243-.355-.251-.34-.235-.353L3.2,14.7l-.25-.339L2.7,14.016l-.231-.357-.24-.348-.245-.345-.251-.343-.247-.343-.257-.338-.238-.35-.248-.345L.49,10.9l-.249-.348L0,10.2l.362-.252L.72,9.692l.356-.257.357-.255.362-.248.358-.254.363-.247.358-.254.354-.261.348-.271L3.939,7.4,4.3,7.139l.363-.248.355-.26.363-.248.358-.255L6.1,5.875l.349-.268L6.8,5.351l.37-.235.351-.262L7.879,4.6l.361-.247.354-.259.368-.243.351-.268.355-.262.371-.237.348-.27.359-.26.357-.259.374-.239.359-.259.36-.252.36-.259.353-.266.365-.253L13.644.51,14,.242,14.366,0l.247.33.254.339.229.357.253.338L15.6,1.7l.235.351.247.346.241.348.258.336.233.355.243.346.248.344.237.35.252.344.246.348.242.353Z" transform="translate(0 0)" fill="#b6a180"/>
              </g>
              <g id="グループ_6630" data-name="グループ 6630" transform="translate(3.304 10.386)">
                <path id="パス_76529" data-name="パス 76529" d="M3.179.732l.216.4.1.449-.017.458-.135.438-.24.39-.338.31L2.356,3.4l-.447.1-.459-.015-.438-.133L.628,3.1.312,2.768.1,2.361,0,1.914l.012-.458.135-.438L.392.631.727.317,1.133.1,1.58,0l.459.017.437.138L2.864.4Z" transform="translate(0 0)" fill="#a58e69"/>
              </g>
              <g id="グループ_6636" data-name="グループ 6636" transform="translate(0.76 9.615)">
                <g id="グループ_6631" data-name="グループ 6631" transform="translate(0 1.473)">
                  <path id="パス_76530" data-name="パス 76530" d="M.853,1.222.542.785.23.348h0L.169.539,0,.383.092.106.237,0,.5.366.759.733l.263.367Z" transform="translate(0 0)" fill="#7a6b5e"/>
                </g>
                <g id="グループ_6632" data-name="グループ 6632" transform="translate(0.588 1.156)">
                  <path id="パス_76531" data-name="パス 76531" d="M.2.756,0,.387.051,0,.427.073.7.381.907.747l-.051.388L.479,1.063ZM.534.51.2.2.371.627l.342.3Z" fill="#7a6b5e"/>
                </g>
                <g id="グループ_6633" data-name="グループ 6633" transform="translate(1.118 0.77)">
                  <path id="パス_76532" data-name="パス 76532" d="M.2.756,0,.387.053,0,.428.073.7.381l.2.368-.048.387L.481,1.063ZM.534.511.2.2.373.627l.341.3Z" fill="#7a6b5e"/>
                </g>
                <g id="グループ_6634" data-name="グループ 6634" transform="translate(1.648 0.385)">
                  <path id="パス_76533" data-name="パス 76533" d="M.2.755,0,.387.054,0,.429.073.7.38l.2.368-.05.387L.482,1.063ZM.535.51.2.205.374.628l.342.3Z" transform="translate(0 0)" fill="#7a6b5e"/>
                </g>
                <g id="グループ_6635" data-name="グループ 6635" transform="translate(2.18 0)">
                  <path id="パス_76534" data-name="パス 76534" d="M.2.755,0,.386.052,0,.428.072.7.381l.2.367-.05.387L.48,1.063ZM.534.51.2.2.373.627l.34.3Z" fill="#7a6b5e"/>
                </g>
              </g>
              <g id="グループ_6642" data-name="グループ 6642" transform="translate(13.13 0.825)">
                <g id="グループ_6637" data-name="グループ 6637" transform="translate(0 1.47)">
                  <path id="パス_76535" data-name="パス 76535" d="M.853,1.223.541.787.229.349v0L.168.541,0,.385.092.107.238,0,.5.367.759.735l.263.366Z" transform="translate(0 0)" fill="#7a6b5e"/>
                </g>
                <g id="グループ_6638" data-name="グループ 6638" transform="translate(0.588 1.154)">
                  <path id="パス_76536" data-name="パス 76536" d="M.2.755,0,.386.051,0,.426.072.7.381l.2.366-.051.387L.479,1.062ZM.532.511.2.2.372.628l.341.3Z" transform="translate(0 0)" fill="#7a6b5e"/>
                </g>
                <g id="グループ_6639" data-name="グループ 6639" transform="translate(1.118 0.769)">
                  <path id="パス_76537" data-name="パス 76537" d="M.2.755,0,.387.053,0,.427.072.7.381.9.748l-.049.387L.48,1.063ZM.534.51.2.2.371.627l.342.3Z" fill="#7a6b5e"/>
                </g>
                <g id="グループ_6640" data-name="グループ 6640" transform="translate(1.648 0.384)">
                  <path id="パス_76538" data-name="パス 76538" d="M.2.754,0,.386.054,0,.428.072.7.38l.2.367-.051.388L.481,1.061ZM.534.509.2.2.373.628l.342.3Z" transform="translate(0 0)" fill="#7a6b5e"/>
                </g>
                <g id="グループ_6641" data-name="グループ 6641" transform="translate(2.18 0)">
                  <path id="パス_76539" data-name="パス 76539" d="M.2.753,0,.385.052,0,.426.071.7.379l.2.367-.048.386L.48,1.061ZM.534.507.2.2.37.627l.344.3Z" transform="translate(0)" fill="#7a6b5e"/>
                </g>
              </g>
              <g id="グループ_6643" data-name="グループ 6643" transform="translate(3.697 2.964)">
                <path id="パス_76540" data-name="パス 76540" d="M9.912.824l-.365.248-.357.255-.359.253-.357.257-.356.255-.351.261-.36.247-.355.254L6.7,3.11l-.364.244-.355.259-.361.254-.353.263-.357.255-.364.246-.357.26-.362.251L3.467,5.4l-.357.261-.362.25-.356.261-.36.254-.359.262-.361.257L.948,7.2l-.365.258L.291,7.035,0,6.622.354,6.37l.359-.252.352-.264.36-.253.354-.256.36-.248.352-.258.355-.253.364-.242.357-.253.357-.258.36-.254.358-.255L5,3.066l.358-.256.364-.25L6.076,2.3l.354-.262L6.8,1.793l.357-.255.356-.261.362-.251L8.228.761l.367-.25L8.954.25,9.317,0l.3.407Z" transform="translate(0 0)" fill="#7a6b5e"/>
              </g>
              <g id="グループ_6644" data-name="グループ 6644" transform="translate(15.953 2.035)">
                <path id="パス_76541" data-name="パス 76541" d="M4.223,5.55l-.279.2L3.7,5.4l-.246-.347L3.206,4.71l-.242-.348-.247-.344L2.47,3.672l-.25-.344-.246-.347-.246-.348-.24-.348-.253-.343-.24-.351L.741,1.247.494.9.248.546,0,.2.275,0,.518.348l.25.344.248.344.245.344.245.347.247.347.241.35.247.346.249.347.244.346.25.345.247.345.247.349.244.351.25.349Z" fill="#7a6b5e"/>
              </g>
              <g id="グループ_6645" data-name="グループ 6645" transform="translate(1.567 12.257)">
                <path id="パス_76542" data-name="パス 76542" d="M4.223,5.554l-.277.2L3.7,5.406l-.243-.349-.249-.343-.241-.347-.244-.347-.253-.343-.244-.348-.244-.347-.246-.348-.251-.341-.242-.35L.992,1.6l-.246-.35L.5.9.251.548,0,.2.277,0,.526.345.773.693l.242.348.244.346.248.344.249.345L2,2.424l.245.348.247.347.243.347.247.347.25.343.25.347.248.348.246.352Z" transform="translate(0 0)" fill="#7a6b5e"/>
              </g>
              <g id="グループ_6646" data-name="グループ 6646" transform="translate(8.036 7.022)">
                <path id="パス_76543" data-name="パス 76543" d="M4.451,1.262l.232.386.176.413.118.433.046.447L5,3.389l-.1.438-.185.409L4.448,4.6l-.337.295-.389.223-.429.131-.447.041L2.4,5.234l-.432-.121-.408-.188-.371-.254-.332-.3L.572,4.019.338,3.634.161,3.222.042,2.789,0,2.342l.02-.449.105-.436L.313,1.05.574.686l.332-.3L1.3.171,1.73.035,2.177,0l.447.045.432.122.4.2.371.251.333.3Z" transform="translate(0 0)" fill="#a58e69"/>
              </g>
              <g id="グループ_6647" data-name="グループ 6647" transform="translate(3.376 13.062)">
                <path id="パス_76544" data-name="パス 76544" d="M1.4.8l-.414.3-.415.294L.284.988,0,.588.414.294.829,0l.284.4Z" fill="#493c33"/>
              </g>
              <g id="グループ_6648" data-name="グループ 6648" transform="translate(4.758 12.078)">
                <path id="パス_76545" data-name="パス 76545" d="M1.4.8l-.415.295-.415.3L.284.99,0,.592.414.3.83,0l.283.4Z" fill="#493c33"/>
              </g>
              <g id="グループ_6649" data-name="グループ 6649" transform="translate(6.14 11.096)">
                <path id="パス_76546" data-name="パス 76546" d="M1.4.8l-.415.3-.416.295L.285.989,0,.589.416.3.831,0l.284.4Z" fill="#493c33"/>
              </g>
              <g id="グループ_6650" data-name="グループ 6650" transform="translate(2.861 10.483)">
                <path id="パス_76547" data-name="パス 76547" d="M3.69.217,3.338.468,2.986.719,2.632.97l-.351.251-.354.25-.354.247-.354.252-.353.255L.511,2.48.154,2.73,0,2.513l.353-.251.354-.248.354-.252.35-.251.353-.25.353-.25L2.47.759,2.824.506l.358-.25L3.536,0Z" fill="#493c33"/>
              </g>
              <g id="グループ_6651" data-name="グループ 6651" transform="translate(7.882 12.169)">
                <path id="パス_76548" data-name="パス 76548" d="M1.5.346l.148.4-.071.423L1.3,1.5l-.4.15L.48,1.581.149,1.308,0,.9.071.481.343.148.748,0l.423.072Z" transform="translate(0 0)" fill="#bb514c"/>
              </g>
              <g id="グループ_6652" data-name="グループ 6652" transform="translate(11.816 3.394)">
                <path id="パス_76549" data-name="パス 76549" d="M3.97,4.41l-.058-.383.041-.387.029-.388-.039-.384-.185-.311-.241-.275-.189-.305-.14-.4-.16-.39L2.809.826,2.53.51,2.191.259,1.8.074,1.371,0,.941.059.547.237.237.54.05.93,0,1.359l.063.429.17.442.23.411.3.365.357.306.4.242.42.225L2.15,4.2l.254.4.314.352.354.314.394.262.455.074.195-.355-.041-.423Z" fill="#c6b599"/>
              </g>
              <g id="グループ_6653" data-name="グループ 6653" transform="translate(12.93 3.148)">
                <path id="パス_76550" data-name="パス 76550" d="M1.374.608l0,.637-.3-.433L.675.465.314.4,0,.241.173,0,.541.033.883.172l.281.241.285.233Z" fill="#6c544f"/>
              </g>
              <g id="グループ_6654" data-name="グループ 6654" transform="translate(8.313 7.31)">
                <path id="パス_76551" data-name="パス 76551" d="M3.944,1.137l.232.387.168.418.1.439.023.451-.066.445L4.25,3.7l-.245.376-.327.308-.4.207L2.843,4.7l-.451.007-.441-.09-.418-.169L1.15,4.215l-.336-.3L.523,3.569.294,3.18.123,2.764l-.1-.439L0,1.874l.066-.445.152-.423L.46.627l.334-.3.4-.215L1.627,0l.45,0,.44.089.417.168.385.234.335.3Z" fill="#ddccb8"/>
              </g>
              <g id="グループ_6655" data-name="グループ 6655" transform="translate(12.972 5.517)">
                <path id="パス_76552" data-name="パス 76552" d="M3.87.2,3.4.222,2.948.115,2.568,0,2.516.384,2.49.777l-.018.394-.019.392L2.4,2.051l-.055.492L2.167,3,1.782,2.73l-.391-.256-.353-.3L.706,2.5.422,2.87l-.231.41L.02,3.718,0,4.181l.192.44.258.411L.762,5.4l.459.071L1.642,5.2l.39-.252L2.42,4.7l.392-.25.4-.241.4-.233.4-.236.376-.2.383-.187.376-.2L5.5,2.91l.315-.253.285-.29.181-.36-.009-.47-.214-.422L5.743.757,5.4.423,5.087.15l-.4-.106-.41.07Z" fill="#866f67"/>
              </g>
              <g id="グループ_6656" data-name="グループ 6656" transform="translate(5.074 6.752)">
                <path id="パス_76553" data-name="パス 76553" d="M15.11.834l-.357.258-.363.238-.343.264-.354.25-.358.241-.348.257-.349.255-.363.235-.355.247-.34.269-.354.25-.354.253-.357.246-.354.251-.36.243-.343.264L9.1,5.093l-.354.251-.35.258-.353.252-.351.25-.352.248L6.98,6.6l-.354.246-.343.264-.354.253L5.565,7.6l-.354.251-.349.257-.353.254-.361.246L3.8,8.871l-.363.24-.348.265-.351.255-.355.253-.365.237-.347.267-.367.241L.95,10.89l-.357.254L.3,10.729,0,10.315l.363-.243L.7,9.8l.364-.235.348-.257.358-.243.344-.261.357-.245.353-.248.349-.257.355-.248.354-.251.357-.247.342-.268.355-.249L5.3,6.558,5.65,6.3l.357-.246.348-.26.364-.237.346-.261.351-.252.354-.247.347-.255L8.473,4.3l.358-.242.349-.259.359-.247.342-.267.363-.239.349-.258.361-.244.347-.265.364-.239.358-.251.346-.263.364-.242.344-.266.359-.25L13.793.51l.361-.252L14.512,0l.29.421Z" transform="translate(0 0)" fill="#7a6b5e"/>
              </g>
            </g>
            <g id="グループ_6687" data-name="グループ 6687" transform="translate(0 7.705)">
              <g id="グループ_6658" data-name="グループ 6658" transform="translate(0 0)">
                <path id="パス_76554" data-name="パス 76554" d="M20.776,9.205l-.416.086-.425.065-.423.081-.427.06-.424.086-.429.056-.422.09-.428.056-.421.093-.426.064-.425.07-.423.084-.423.084-.429.051-.422.093-.426.074-.425.083-.427.066-.429.056-.422.1-.428.058-.425.077L11,10.9l-.425.082-.425.083-.426.075L9.3,11.2l-.419.1-.426.062-.426.074-.43.058-.422.1-.424.078-.429.06-.429.069-.425.087-.428.066-.428.08-.428.072-.429.063-.425.08-.429.074-.431.062-.427.1-.426.058-.074-.43-.1-.433-.052-.439L1.3,10.8l-.056-.439-.07-.439-.076-.439L.988,9.054l-.059-.44-.062-.44L.79,7.734.695,7.3.615,6.86.533,6.421.472,5.979.383,5.541.325,5.1l-.1-.436L.159,4.219.093,3.775,0,3.329l.433-.056.42-.095.428-.056L1.7,3.037l.426-.072L2.557,2.9l.423-.09.426-.067.425-.068.425-.067.425-.072.424-.076.422-.09L5.953,2.3l.424-.084L6.8,2.147l.428-.065.426-.068.422-.094.426-.067.424-.088.426-.074.431-.05.423-.09L10.64,1.5l.425-.08.424-.066.421-.087.426-.064.425-.078.428-.074.422-.092L14.037.88l.426-.073.432-.051L15.32.675,15.747.6l.426-.087L16.6.434,17.032.38,17.458.3l.428-.083.429-.078.429-.08L19.175,0l.1.43.063.441.084.433.053.439.074.437.075.438.1.434.073.438.049.442.091.435.076.44.083.438.06.442.089.438.063.442.1.435.072.439.077.441.072.442.069.444Z" fill="#f6e3ca"/>
              </g>
              <g id="グループ_6659" data-name="グループ 6659" transform="translate(1.023 1.241)">
                <path id="パス_76555" data-name="パス 76555" d="M18.589,7.1l-.435.062-.428.1-.434.07-.433.069-.432.077-.434.068-.431.082-.434.064L14.7,7.78l-.433.079-.434.08-.433.077-.437.056-.433.074-.43.094-.438.052-.431.091-.433.087-.434.076-.439.047-.433.078-.428.089-.434.064-.43.082-.434.077-.437.065-.43.093-.435.067-.434.074-.438.065-.432.094L4.719,9.5l-.432.1-.439.055-.434.082-.435.072-.437.081-.435.088-.438.08-.44.061L1.15,9.709l-.076-.416L1,8.877.933,8.46.858,8.045.78,7.629.711,7.211.633,6.795l-.05-.421L.5,5.958.434,5.539l-.07-.418L.28,4.706.2,4.288.123,3.869.058,3.447,0,3.031l.422-.1.437-.055.433-.071.429-.09.432-.078.435-.056.432-.076.43-.09.433-.076.432-.081.434-.079.435-.077.434-.069.434-.069.435-.061.429-.1.435-.071.435-.075.435-.07.434-.076.434-.075.429-.083.433-.064.429-.09.437-.058.437-.068.431-.092L12.118.9l.435-.072.435-.08.439-.06.435-.073.433-.091.436-.073.434-.08L15.6.3l.436-.079.441-.059.439-.077L17.356,0l.079.415L17.5.833l.061.419.08.414.082.414.072.416.077.417.058.419.07.418.078.417.062.419L18.217,5l.069.418.1.414.064.421.082.419Z" transform="translate(0 0)" fill="#b6a180"/>
              </g>
              <g id="グループ_6660" data-name="グループ 6660" transform="translate(2.451 4.526)">
                <path id="パス_76556" data-name="パス 76556" d="M3.479,1.451l.022.458-.1.447-.212.407L2.875,3.1l-.386.248-.44.133L1.592,3.5l-.447-.1L.739,3.188.4,2.874.158,2.488.023,2.051,0,1.593l.1-.447.214-.4L.624.4,1.012.158,1.449.025,1.907,0l.448.1.406.213L3.1.627l.249.385Z" transform="translate(0 0)" fill="#a58e69"/>
              </g>
              <g id="グループ_6666" data-name="グループ 6666" transform="translate(0.603 3.12)">
                <g id="グループ_6661" data-name="グループ 6661" transform="translate(0 0.468)">
                  <path id="パス_76557" data-name="パス 76557" d="M.408,1.368.316.84.223.311h0L.084.458,0,.244.2.033.379,0,.458.443.535.887l.078.444Z" transform="translate(0 0)" fill="#7a6b5e"/>
                </g>
                <g id="グループ_6662" data-name="グループ 6662" transform="translate(0.665 0.355)">
                  <path id="パス_76558" data-name="パス 76558" d="M.022.744,0,.326.213,0,.52.228l.116.4.026.419L.45,1.371.141,1.143ZM.43.668.256.246.234.7l.176.421Z" transform="translate(0 0)" fill="#7a6b5e"/>
                </g>
                <g id="グループ_6663" data-name="グループ 6663" transform="translate(1.311 0.238)">
                  <path id="パス_76559" data-name="パス 76559" d="M.024.745,0,.325.214,0,.521.226l.116.4.026.419L.45,1.37.141,1.143Zm.4-.08L.256.246.231.7l.178.42Z" fill="#7a6b5e"/>
                </g>
                <g id="グループ_6664" data-name="グループ 6664" transform="translate(1.956 0.118)">
                  <path id="パス_76560" data-name="パス 76560" d="M.023.746,0,.326.214,0,.521.227l.116.4.025.419L.45,1.371.141,1.143Zm.4-.078L.254.245.234.7l.176.419Z" fill="#7a6b5e"/>
                </g>
                <g id="グループ_6665" data-name="グループ 6665" transform="translate(2.601 0)">
                  <path id="パス_76561" data-name="パス 76561" d="M.022.745,0,.325.213,0,.52.226l.118.4.024.419L.449,1.37.141,1.141ZM.429.667.255.245.232.7l.179.422Z" fill="#7a6b5e"/>
                </g>
              </g>
              <g id="グループ_6672" data-name="グループ 6672" transform="translate(15.552 0.515)">
                <g id="グループ_6667" data-name="グループ 6667" transform="translate(0 0.47)">
                  <path id="パス_76562" data-name="パス 76562" d="M.409,1.369.318.84.225.31h0L.087.456,0,.242.2.033.382,0,.46.442.538.887l.077.444Z" transform="translate(0 0)" fill="#7a6b5e"/>
                </g>
                <g id="グループ_6668" data-name="グループ 6668" transform="translate(0.665 0.358)">
                  <path id="パス_76563" data-name="パス 76563" d="M.025.746,0,.326.216,0,.523.227l.116.4.024.418L.45,1.37.144,1.143Zm.4-.08L.257.247.234.7l.176.42Z" transform="translate(0 0)" fill="#7a6b5e"/>
                </g>
                <g id="グループ_6669" data-name="グループ 6669" transform="translate(1.311 0.239)">
                  <path id="パス_76564" data-name="パス 76564" d="M.023.747,0,.327.214,0,.521.227l.115.4.027.419-.212.33L.143,1.143Zm.4-.08L.256.246.233.7l.176.419Z" fill="#7a6b5e"/>
                </g>
                <g id="グループ_6670" data-name="グループ 6670" transform="translate(1.955 0.121)">
                  <path id="パス_76565" data-name="パス 76565" d="M.024.746,0,.326.216,0,.522.227l.118.4.023.418-.211.33L.143,1.143ZM.429.667.257.245.233.7l.177.421Z" transform="translate(0 0)" fill="#7a6b5e"/>
                </g>
                <g id="グループ_6671" data-name="グループ 6671" transform="translate(2.601 0)">
                  <path id="パス_76566" data-name="パス 76566" d="M.024.746,0,.326.214,0,.522.228l.116.4.023.419L.45,1.371.141,1.144Zm.4-.078L.256.247.233.7l.178.421Z" fill="#7a6b5e"/>
                </g>
              </g>
              <g id="グループ_6673" data-name="グループ 6673" transform="translate(4.081 1.431)">
                <path id="パス_76567" data-name="パス 76567" d="M11.443,1l-.437.073-.433.067-.432.078L9.706,1.3l-.431.084-.432.08-.433.076-.429.073-.431.069-.432.068-.433.073-.432.088-.432.078-.435.061-.432.081L4.519,2.2l-.434.074-.434.074-.432.092-.435.076-.434.075-.435.07-.438.065-.434.084L.6,2.882.171,2.96.09,2.46,0,1.963l.427-.071L.857,1.8l.432-.077.434-.069.435-.067.43-.091.435-.06.427-.089.431-.07.433-.066.431-.086.434-.078L5.613.986,6.046.916,6.478.838,6.913.76,7.345.677,7.781.613,8.213.521,8.647.446,9.083.374,9.517.3l.437-.07L10.39.156l.435-.089L11.263,0l.086.5Z" transform="translate(0 0)" fill="#7a6b5e"/>
              </g>
              <g id="グループ_6674" data-name="グループ 6674" transform="translate(18.308 1.98)">
                <path id="パス_76568" data-name="パス 76568" d="M1.5,6.708l-.328.06L1.1,6.352l-.076-.418-.064-.42L.88,5.1.8,4.681.734,4.26.655,3.842l-.063-.42L.516,3l-.07-.42L.371,2.163.3,1.745l-.08-.419L.147.905.072.483,0,.059.338,0,.41.419l.07.42.073.416.07.418L.7,2.09l.072.419.073.419.07.419.075.42.072.419.073.419.076.418.066.422.08.42.075.422Z" transform="translate(0 0)" fill="#7a6b5e"/>
              </g>
              <g id="グループ_6675" data-name="グループ 6675" transform="translate(0.923 5.008)">
                <path id="パス_76569" data-name="パス 76569" d="M1.5,6.706l-.328.058L1.1,6.35l-.079-.418-.07-.418L.87,5.1.8,4.679.727,4.26.655,3.841.587,3.422.506,3l-.07-.42L.364,2.164.293,1.746.221,1.325.148.9.072.481,0,.06.333,0,.406.418l.07.42.075.417.079.416.064.419.076.419.074.419.069.419.073.42.078.419.069.419.073.418.077.42.07.422.074.422Z" fill="#7a6b5e"/>
              </g>
              <g id="グループ_6676" data-name="グループ 6676" transform="translate(7.84 3.666)">
                <path id="パス_76570" data-name="パス 76570" d="M4.731,2.342l.051.447-.024.448-.075.443L4.526,4.1l-.213.4-.285.347-.341.29-.394.212-.429.129-.449.032L1.97,5.437l-.42-.158-.382-.236-.336-.3L.549,4.4.322,4.012.151,3.6.046,3.158,0,2.711l.016-.449L.1,1.819.246,1.4.466,1,.745.653,1.088.362,1.482.148,1.914.031,2.362,0,2.8.069l.423.151.38.238.339.295.281.351.227.386.17.416Z" transform="translate(0 0)" fill="#a58e69"/>
              </g>
              <g id="グループ_6677" data-name="グループ 6677" transform="translate(2.036 6.749)">
                <path id="パス_76571" data-name="パス 76571" d="M1.172.965l-.5.088-.5.087L.085.658,0,.175.5.088,1,0l.085.483Z" fill="#493c33"/>
              </g>
              <g id="グループ_6678" data-name="グループ 6678" transform="translate(3.708 6.456)">
                <path id="パス_76572" data-name="パス 76572" d="M1.171.966l-.5.089-.5.087L.085.659,0,.176.5.089,1,0l.084.484Z" transform="translate(0 0)" fill="#493c33"/>
              </g>
              <g id="グループ_6679" data-name="グループ 6679" transform="translate(5.382 6.167)">
                <path id="パス_76573" data-name="パス 76573" d="M1.17.966l-.5.087-.5.087L.083.657,0,.176.5.088,1,0l.084.482Z" fill="#493c33"/>
              </g>
              <g id="グループ_6680" data-name="グループ 6680" transform="translate(1.859 5.365)">
                <path id="パス_76574" data-name="パス 76574" d="M4.314.26,3.891.339,3.465.414,3.037.487,2.61.559,2.184.636,1.759.71,1.33.78.9.854.473.934.044,1,0,.748.424.67.85.6l.428-.07L1.7.453,2.13.377,2.556.305,2.984.229,3.412.154,3.841.079,4.272,0Z" transform="translate(0 0)" fill="#493c33"/>
              </g>
              <g id="グループ_6681" data-name="グループ 6681" transform="translate(6.312 7.814)">
                <path id="パス_76575" data-name="パス 76575" d="M1.636.673,1.6,1.1l-.247.352-.39.18L.532,1.595.181,1.349,0,.958.04.531.287.18.677,0,1.1.038l.351.246Z" transform="translate(0 0)" fill="#bb514c"/>
              </g>
              <g id="グループ_6682" data-name="グループ 6682" transform="translate(13.317 1.759)">
                <path id="パス_76576" data-name="パス 76576" d="M2.433,5.236l.123-.368.193-.337.2-.334.121-.364-.024-.359-.1-.352-.04-.357.045-.421.021-.421L2.943,1.5l-.121-.4-.2-.371L2.351.387,2,.137,1.584,0H1.151L.739.134.4.405.165.768l-.119.419L0,1.659l.034.47.1.46.194.429.257.4.29.379.005.469.061.467.135.452.179.439.248.4.377.256.323-.233.151-.4Z" fill="#c6b599"/>
              </g>
              <g id="グループ_6683" data-name="グループ 6683" transform="translate(15.083 1.638)">
                <path id="パス_76577" data-name="パス 76577" d="M1.081,1.066.8,1.64.716,1.118.511.638.214.425,0,.144.26,0,.578.189.825.462.975.8l.156.333Z" fill="#6c544f"/>
              </g>
              <g id="グループ_6684" data-name="グループ 6684" transform="translate(8.121 3.943)">
                <path id="パス_76578" data-name="パス 76578" d="M4.175,2.114l.042.45-.026.45-.1.439-.176.415-.244.379-.325.31L2.965,4.8l-.431.13-.45.02-.44-.092-.408-.19L.874,4.4l-.3-.332L.332,3.684.153,3.27.044,2.832,0,2.383l.026-.449.093-.442L.3,1.076.546.7.868.389,1.25.151,1.682.022,2.131,0l.442.089L2.98.281l.361.267.3.335.239.38.179.414Z" transform="translate(0 0)" fill="#ddccb8"/>
              </g>
              <g id="グループ_6685" data-name="グループ 6685" transform="translate(12.388 4.823)">
                <path id="パス_76579" data-name="パス 76579" d="M5.221.746,4.792.562,4.426.272,4.133,0,3.922.329,3.733.675l-.184.351-.195.336-.259.418-.26.421-.355.332-.23-.406-.243-.4L1.818,1.3l-.444.143-.409.229L.575,1.94l-.34.324-.229.4L0,3.149l.047.483.135.461.379.27.495-.057.46-.064.46-.06.461-.054L2.9,4.076l.462-.041.463-.041.427-.017.426-.009L5.1,3.954l.42-.065.392-.1L6.3,3.659l.319-.244.194-.428L6.8,2.516l-.126-.46-.162-.448-.167-.384L6.028.957,5.63.843Z" fill="#866f67"/>
              </g>
              <g id="グループ_6686" data-name="グループ 6686" transform="translate(2.102 7.686)">
                <path id="パス_76580" data-name="パス 76580" d="M17.707,1l-.423.089-.43.059-.426.078L16,1.3l-.424.086-.428.062-.425.075L14.3,1.6l-.429.056-.424.088-.427.075-.426.086-.428.072-.429.059-.423.094-.429.062-.426.079-.431.06L9.6,2.407l-.427.076-.425.084-.428.075-.425.066-.426.065-.422.1-.429.066-.427.084-.432.053-.427.075-.424.091-.43.072-.429.072-.428.078-.43.077-.432.055-.427.091-.429.07-.43.076-.431.077-.432.078-.439.079L.1,3.554l-.1-.5.425-.074.425-.089.429-.064.427-.069.424-.086.429-.055.422-.093.427-.066.426-.08.429-.057.425-.09.427-.084.429-.06L5.97,2,6.4,1.93l.43-.051.424-.093.428-.076.429-.07.428-.072.43-.061.424-.093.427-.061.423-.083.425-.079.43-.062.425-.092.427-.077.43-.053L12.8.826,13.234.75l.43-.066L14.093.61l.431-.073.428-.085.43-.069.428-.074.427-.1.435-.055L17.1.082,17.535,0l.1.5Z" transform="translate(0 0)" fill="#7a6b5e"/>
              </g>
            </g>
            <g id="グループ_6717" data-name="グループ 6717" transform="translate(2.359 0)">
              <g id="グループ_6688" data-name="グループ 6688" transform="translate(0 0)">
                <path id="パス_76581" data-name="パス 76581" d="M18.972,13.381l-.415-.082-.42-.094-.42-.1-.419-.1-.426-.078-.422-.091-.415-.12-.42-.1-.422-.086-.419-.1-.425-.073-.416-.11-.422-.09-.425-.078-.42-.1-.424-.089-.42-.1-.424-.086-.419-.1-.417-.115-.425-.082-.425-.082-.419-.108-.422-.095-.423-.089-.418-.1-.418-.1-.424-.077-.415-.117-.424-.089-.422-.1L5.5,10.376l-.422-.091-.42-.109-.423-.1L3.809,10l-.416-.123L2.967,9.79,2.541,9.7l-.426-.082-.424-.092-.421-.116L.844,9.321l-.426-.1L0,9.126.076,8.7l.106-.432L.29,7.837.361,7.4l.107-.429.1-.433L.653,6.1l.109-.431.1-.431.111-.431.086-.439.08-.438L1.266,3.5l.088-.438.1-.435.1-.433.083-.438.084-.44L1.838.883,1.922.441,2.032,0l.424.1L2.873.2,3.293.3l.424.086.422.089.424.085.415.124L5.4.765l.424.077.421.091.414.125.424.078.421.095.419.1.425.078.42.1.422.1.424.084.419.1.421.1.425.08.418.114.422.1.424.088.426.072.415.113.418.1.419.1.422.09.425.083.42.106.422.1.425.078.418.114.429.075.423.1.424.092.418.123.425.1.426.08.42.106.428.085.428.083.422.121.431.08-.091.436-.091.435-.1.429-.1.431-.093.433-.127.427-.072.44-.106.432-.115.429-.1.434-.085.438-.092.436-.09.437-.095.436-.1.436-.119.43-.089.436-.1.435-.091.439-.095.439Z" fill="#f6e3ca"/>
              </g>
              <g id="グループ_6689" data-name="グループ 6689" transform="translate(1.024 1.256)">
                <path id="パス_76582" data-name="パス 76582" d="M17.2,10.876l-.425-.088-.427-.1-.428-.094-.43-.088-.429-.091-.426-.1-.432-.082-.427-.1-.428-.1-.427-.106-.43-.1-.433-.083-.43-.092-.43-.092-.426-.11-.433-.081-.428-.1-.43-.1-.426-.114-.432-.083L8.2,8.855l-.43-.079L7.342,8.67l-.428-.1-.431-.088-.431-.1-.428-.1-.429-.1-.433-.08-.431-.1L3.9,7.9l-.429-.1L3.035,7.72,2.609,7.6l-.435-.082-.429-.1-.431-.1-.432-.1-.44-.076L0,7.034.109,6.62.179,6.2.3,5.8l.086-.414.081-.414.084-.414.114-.409.1-.412.07-.418.1-.413.09-.415.108-.41.089-.414.1-.414.1-.414L1.5.417,1.586,0l.427.1.433.078.428.1L3.3.4l.431.085.431.083.427.1.426.11.431.087L5.87.966l.43.095.432.083.428.1.431.089.425.112.429.1.433.082.427.112.43.093.429.1.432.086.429.085.423.112.43.09.428.1.43.1.429.1.433.078.431.093.427.117.437.074.428.1.43.109.437.074.428.108.433.085.432.1.43.118.434.1.432.093-.1.4-.086.414-.093.414-.072.417-.112.406-.086.414-.084.416-.1.41-.107.411-.088.416-.08.417-.088.414-.1.412-.1.413-.09.417-.094.417Z" fill="#b6a180"/>
              </g>
              <g id="グループ_6690" data-name="グループ 6690" transform="translate(3.027 2.575)">
                <path id="パス_76583" data-name="パス 76583" d="M3.472,2.142l-.158.431-.265.374-.354.291-.416.193-.451.08-.456-.043L.942,3.31.564,3.05.274,2.7l-.2-.415L0,1.829l.043-.456L.2.942.467.57.819.276l.414-.2L1.684,0,2.14.046,2.57.2l.374.264.3.349.191.417.077.451Z" fill="#a58e69"/>
              </g>
              <g id="グループ_6696" data-name="グループ 6696" transform="translate(2.342 0.587)">
                <g id="グループ_6691" data-name="グループ 6691">
                  <path id="パス_76584" data-name="パス 76584" d="M0,1.314.117.79.235.266h0L.051.348l0-.229L.322,0,.5.039.4.478.3.918l-.1.44Z" fill="#7a6b5e"/>
                </g>
                <g id="グループ_6692" data-name="グループ 6692" transform="translate(0.499 0.127)">
                  <path id="パス_76585" data-name="パス 76585" d="M.041.616.18.219.5,0,.7.327.656.738l-.138.4L.2,1.358,0,1.029ZM.446.7V.244l-.2.413,0,.457Z" transform="translate(0 0)" fill="#7a6b5e"/>
                </g>
                <g id="グループ_6693" data-name="グループ 6693" transform="translate(1.139 0.263)">
                  <path id="パス_76586" data-name="パス 76586" d="M.043.615.183.22.505,0,.7.328.658.739l-.137.4L.2,1.357,0,1.028ZM.447.7l0-.458-.2.416,0,.457Z" fill="#7a6b5e"/>
                </g>
                <g id="グループ_6694" data-name="グループ 6694" transform="translate(1.782 0.401)">
                  <path id="パス_76587" data-name="パス 76587" d="M.042.615l.139-.4L.5,0,.7.327.656.738l-.136.4L.2,1.355,0,1.028ZM.447.7l0-.455-.2.415v.455Z" transform="translate(0 0)" fill="#7a6b5e"/>
                </g>
                <g id="グループ_6695" data-name="グループ 6695" transform="translate(2.422 0.538)">
                  <path id="パス_76588" data-name="パス 76588" d="M.042.615l.14-.4L.505,0,.7.327.659.738l-.139.4L.2,1.356,0,1.028ZM.446.7l0-.456-.2.414v.456Z" fill="#7a6b5e"/>
                </g>
              </g>
              <g id="グループ_6702" data-name="グループ 6702" transform="translate(17.151 3.908)">
                <g id="グループ_6697" data-name="グループ 6697">
                  <path id="パス_76589" data-name="パス 76589" d="M0,1.312.116.788.234.264h0L.049.347l0-.23L.322,0,.5.037.4.475.3.916l-.1.44Z" fill="#7a6b5e"/>
                </g>
                <g id="グループ_6698" data-name="グループ 6698" transform="translate(0.498 0.126)">
                  <path id="パス_76590" data-name="パス 76590" d="M.041.615l.14-.4L.5,0,.7.326.656.737l-.137.4L.2,1.354,0,1.028ZM.445.7l0-.454-.2.411,0,.459Z" fill="#7a6b5e"/>
                </g>
                <g id="グループ_6699" data-name="グループ 6699" transform="translate(1.138 0.261)">
                  <path id="パス_76591" data-name="パス 76591" d="M.043.616.183.22.505,0,.7.326.657.737l-.136.4L.2,1.357,0,1.029ZM.446.7l0-.456-.2.413v.459Z" transform="translate(0 0)" fill="#7a6b5e"/>
                </g>
                <g id="グループ_6700" data-name="グループ 6700" transform="translate(1.78 0.398)">
                  <path id="パス_76592" data-name="パス 76592" d="M.043.616.182.22.5,0,.7.328.657.739l-.137.4L.2,1.357,0,1.029ZM.448.7l0-.456-.2.415v.456Z" fill="#7a6b5e"/>
                </g>
                <g id="グループ_6701" data-name="グループ 6701" transform="translate(2.421 0.535)">
                  <path id="パス_76593" data-name="パス 76593" d="M.043.617l.141-.4L.505,0,.7.328.658.739l-.139.4L.2,1.358,0,1.029ZM.447.7l0-.456-.2.415,0,.458Z" fill="#7a6b5e"/>
                </g>
              </g>
              <g id="グループ_6703" data-name="グループ 6703" transform="translate(5.555 1.625)">
                <path id="パス_76594" data-name="パス 76594" d="M11.151,3.481l-.422-.09-.428-.1L9.872,3.2l-.43-.088-.429-.094L8.588,2.9l-.43-.086-.426-.095-.424-.1-.428-.089-.428-.1-.429-.1-.428-.1-.43-.092-.427-.1L4.3,1.95l-.429-.1-.431-.093-.43-.1-.43-.095-.43-.1-.432-.088-.433-.09-.432-.1-.43-.109L0,.983.1.488.221,0l.42.1.43.088.428.1L1.931.37l.428.1.426.1.429.093.427.089.425.1.425.108.431.083.43.1.429.091.428.1.428.1.429.1.429.1.43.1.43.1.43.1.43.1.43.09.434.086.429.108.434.1.433.095-.108.5Z" transform="translate(0 0)" fill="#7a6b5e"/>
              </g>
              <g id="グループ_6704" data-name="グループ 6704" transform="translate(17.945 5.817)">
                <path id="パス_76595" data-name="パス 76595" d="M.333,6.721,0,6.649l.092-.417.093-.415.1-.412.088-.414.1-.413.092-.416L.65,3.747l.1-.413.087-.418L.927,2.5l.1-.413.087-.415.1-.417L1.3.838,1.4.42,1.491,0l.33.078L1.728.489,1.64.905l-.1.413-.087.414-.1.412-.09.416-.091.415-.09.415L.99,3.807.9,4.222l-.1.414-.088.415-.1.416-.09.418-.1.418Z" fill="#7a6b5e"/>
              </g>
              <g id="グループ_6705" data-name="グループ 6705" transform="translate(0.728 1.955)">
                <path id="パス_76596" data-name="パス 76596" d="M.331,6.723,0,6.647l.089-.414.1-.414.094-.413.087-.414.1-.413.1-.415.087-.417.092-.414.091-.417.1-.414.094-.414.1-.414.094-.416L1.3.84,1.394.421,1.485,0l.332.078L1.732.492,1.637.907l-.094.413-.1.412-.091.414-.087.417-.093.415-.1.414L.98,3.805l-.086.418-.1.414-.1.414-.095.416L.52,5.886l-.1.418Z" fill="#7a6b5e"/>
              </g>
              <g id="グループ_6706" data-name="グループ 6706" transform="translate(7.907 4.023)">
                <path id="パス_76597" data-name="パス 76597" d="M4.715,3.266l-.13.43L4.394,4.1l-.239.38-.307.328L3.5,5.1l-.4.214-.426.139L2.232,5.5l-.446-.053-.423-.148L.978,5.064l-.331-.3L.383,4.4l-.2-.4-.129-.43L0,3.12l0-.45L.07,2.225.2,1.793l.189-.408.243-.378L.933.677,1.282.393,1.677.181,2.1.044,2.551,0,3,.047,3.42.193l.386.229.33.306.265.363.191.406.135.429.056.445,0,.45Z" fill="#a58e69"/>
              </g>
              <g id="グループ_6707" data-name="グループ 6707" transform="translate(2.321 4.1)">
                <path id="パス_76598" data-name="パス 76598" d="M.994,1.179.5,1.067,0,.956.109.479.216,0l.5.11.5.112L1.1.7Z" fill="#493c33"/>
              </g>
              <g id="グループ_6708" data-name="グループ 6708" transform="translate(3.978 4.473)">
                <path id="パス_76599" data-name="パス 76599" d="M.992,1.178.5,1.068,0,.954.108.477.216,0l.5.111.5.111L1.1.7Z" transform="translate(0 0)" fill="#493c33"/>
              </g>
              <g id="グループ_6709" data-name="グループ 6709" transform="translate(5.634 4.843)">
                <path id="パス_76600" data-name="パス 76600" d="M.993,1.179.5,1.07,0,.957.106.479.213,0l.5.111.5.112L1.1.7Z" fill="#493c33"/>
              </g>
              <g id="グループ_6710" data-name="グループ 6710" transform="translate(2.623 3.285)">
                <path id="パス_76601" data-name="パス 76601" d="M4.234,1.206l-.422-.1-.423-.089-.422-.1L2.544.823,2.121.733,1.7.639l-.423-.1L.852.446.426.349,0,.256.058,0,.479.094.9.186l.423.095.422.1L2.169.47l.421.1.425.091.424.1.425.1.424.094Z" transform="translate(0 0)" fill="#493c33"/>
              </g>
              <g id="グループ_6711" data-name="グループ 6711" transform="translate(5.777 6.817)">
                <path id="パス_76602" data-name="パス 76602" d="M1.618.992l-.2.382L1.058,1.6.628,1.62l-.381-.2L.018,1.058,0,.628.2.248.563.018.992,0l.381.2L1.6.563Z" transform="translate(0 0)" fill="#bb514c"/>
              </g>
              <g id="グループ_6712" data-name="グループ 6712" transform="translate(13.945 4.056)">
                <path id="パス_76603" data-name="パス 76603" d="M1.24,5.365l.246-.3L1.8,4.832,2.111,4.6l.255-.291.1-.347L2.513,3.6l.1-.344.206-.371L3,2.508l.126-.4.044-.419-.04-.42L3.007.851,2.782.48,2.451.2,2.051.03,1.619,0,1.2.118.848.366.58.709l-.219.418L.2,1.571l-.073.465.011.471L.23,2.97l.117.463-.17.437-.125.454L0,4.793l0,.474.071.468.253.384.39-.094.291-.309Z" transform="translate(0 0)" fill="#c6b599"/>
              </g>
              <g id="グループ_6713" data-name="グループ 6713" transform="translate(16.557 4.312)">
                <path id="パス_76604" data-name="パス 76604" d="M.646,1.3l-.477.426.118-.517,0-.523L.09.374,0,.034.293,0,.515.3.642.643l.008.371.014.368Z" fill="#6c544f"/>
              </g>
              <g id="グループ_6714" data-name="グループ 6714" transform="translate(8.186 4.3)">
                <path id="パス_76605" data-name="パス 76605" d="M4.162,2.927l-.133.431-.2.4-.256.37-.322.316L2.876,4.7l-.417.17-.444.066-.447-.045-.423-.152L.772,4.49.464,4.162.234,3.775.081,3.35,0,2.906l0-.451.066-.446L.2,1.577.39,1.17.652.8.972.484,1.348.236,1.765.07,2.208,0l.447.04.424.154.372.253.305.329.229.387.158.422.08.444,0,.452Z" transform="translate(0 0)" fill="#ddccb8"/>
              </g>
              <g id="グループ_6715" data-name="グループ 6715" transform="translate(11.496 7.704)">
                <path id="パス_76606" data-name="パス 76606" d="M5.945,1.107,5.615.776,5.386.367,5.226,0,4.9.221,4.6.473,4.288.721,3.98.957l-.4.291-.4.284-.453.176-.059-.464L2.6.783,2.583.319,2.121.281,1.654.329,1.2.437.756.6.393.886.2,1.328.07,1.794,0,2.269l.255.395.48.13.45.116.448.122.445.135.445.131.445.13.44.148.4.142.4.157.4.148.411.11.4.054.405.022.389-.1.35-.318.165-.446.059-.473.02-.476-.016-.417-.182-.366L6.28,1.358Z" transform="translate(0 0)" fill="#866f67"/>
              </g>
              <g id="グループ_6716" data-name="グループ 6716" transform="translate(0.912 7.646)">
                <path id="パス_76607" data-name="パス 76607" d="M17.367,4.891l-.421-.1L16.521,4.7,16.1,4.6l-.421-.1-.422-.093-.427-.075-.418-.111-.42-.1-.425-.086-.42-.1-.427-.08-.425-.09-.422-.1-.426-.081-.421-.1-.419-.113-.426-.082L9.756,3.2l-.422-.107-.426-.084-.418-.117-.425-.073-.421-.093-.417-.108L6.8,2.532l-.42-.112-.426-.091-.422-.1-.426-.08-.424-.095-.425-.1-.422-.1-.427-.088-.428-.086-.422-.114-.426-.09-.425-.1-.429-.08L.858,1.177.425,1.1,0,1,.122.5l.1-.5L.643.108l.425.084.426.083.419.106.421.1L2.76.56l.419.105L3.6.77l.423.087.425.082.421.1.425.089.424.09.423.094.422.1.42.109.425.088.422.1.425.091.421.108L9.1,2l.422.083.421.1.422.088.418.11.426.085.425.1.423.1.425.087.422.105.425.1.425.1.426.09.424.105.429.079.425.1.423.1.428.089.423.113.429.092.437.083-.119.5Z" fill="#7a6b5e"/>
              </g>
            </g>
          </g>
          <g id="グループ_6719" data-name="グループ 6719" transform="translate(32.501 14.082)">
            <path id="パス_76608" data-name="パス 76608" d="M3.9,1.563,3.949,2l-.058.438-.152.415-.24.371-.314.312-.378.23-.421.14-.44.042L1.507,3.9,1.094,3.74.722,3.5l-.31-.315L.181,2.811l-.139-.42L0,1.951l.053-.439L.207,1.1.445.725.761.415,1.139.187l.42-.14L2,0l.439.058.415.151.373.238.307.318.232.376Z" fill="#818384"/>
          </g>
          <g id="グループ_6720" data-name="グループ 6720" transform="translate(27.969 11.032)">
            <path id="パス_76609" data-name="パス 76609" d="M3.9,1.561,3.944,2l-.056.438-.149.416-.242.37-.315.311-.38.226L2.384,3.9l-.44.043-.438-.052L1.091,3.74.72,3.5.41,3.188l-.227-.38L.041,2.389,0,1.95.052,1.51.2,1.1.446.726.762.418,1.137.183l.42-.138L2,0l.439.058.416.148.369.244L3.53.766l.231.377Z" fill="#8e4427"/>
          </g>
          <g id="グループ_6721" data-name="グループ 6721" transform="translate(26.411 16.075)">
            <path id="パス_76610" data-name="パス 76610" d="M5.194,2.078l.057.455-.021.457-.1.446-.177.422L4.7,4.243l-.314.334-.363.278-.41.206L3.179,5.2l-.455.057-.458-.02-.444-.109L1.4,4.949,1.012,4.7.678,4.39.4,4.027.192,3.618.061,3.179,0,2.725l.028-.457.1-.447L.306,1.4l.248-.385L.867.679,1.233.405,1.641.2,2.078.058,2.533,0,2.99.028l.446.1.42.182.387.244.336.311.274.366.206.408Z" transform="translate(0 0)" fill="#818384"/>
          </g>
          <g id="グループ_6722" data-name="グループ 6722" transform="translate(27.298 16.961)">
            <path id="パス_76611" data-name="パス 76611" d="M3.445,1.377l.04.453L3.4,2.278l-.194.412-.294.348-.375.26-.429.153-.455.035L1.205,3.4.793,3.208.445,2.914.189,2.537.035,2.108,0,1.654l.081-.448L.278.8.571.448.947.192,1.376.04,1.83,0l.447.085L2.69.277l.347.295.257.376Z" transform="translate(0 0)" fill="#b3b5b5"/>
          </g>
          <g id="グループ_6723" data-name="グループ 6723" transform="translate(4.459 22.389)">
            <path id="パス_76612" data-name="パス 76612" d="M3.9,1.557,3.949,2l-.058.439-.154.414L3.5,3.222l-.317.308L2.8,3.762l-.42.137-.439.045-.439-.052L1.091,3.74.72,3.5.414,3.181.183,2.8l-.14-.419L0,1.946l.057-.438.152-.414.24-.37L.761.411,1.137.18,1.559.046,2,0l.439.055L2.853.2l.371.241.308.317.23.377Z" fill="#8e4427"/>
          </g>
          <g id="グループ_6724" data-name="グループ 6724" transform="translate(0 17.754)">
            <path id="パス_76613" data-name="パス 76613" d="M5.19,2.071l.057.455-.023.457-.1.447-.18.421L4.7,4.237l-.315.331-.361.28-.408.21-.439.132-.455.06-.457-.022-.445-.107-.422-.177L1.009,4.7.676,4.383.4,4.019.189,3.612.054,3.175,0,2.721l.017-.458.1-.446L.3,1.4l.244-.388L.862.677,1.226.4,1.632.187l.44-.128L2.525,0l.457.021.447.1.419.184.383.25.34.306.278.363.206.409Z" transform="translate(0 0)" fill="#818384"/>
          </g>
          <g id="グループ_6725" data-name="グループ 6725" transform="translate(0.879 18.637)">
            <path id="パス_76614" data-name="パス 76614" d="M3.447,1.374l.037.454-.079.45-.2.409-.294.348-.375.258-.429.151-.454.04L1.205,3.4l-.412-.2-.347-.3L.187,2.537l-.152-.43L0,1.652.08,1.2l.2-.41.3-.347L.948.186l.43-.15L1.831,0l.448.079.412.2L3.038.57l.257.376Z" fill="#b3b5b5"/>
          </g>
        </g>
        <g id="グループ_6775" data-name="グループ 6775" transform="translate(120.782 49.312) rotate(13)">
          <path id="パス_76651" data-name="パス 76651" d="M.813.876c-.054.458-.278.8-.5.778s-.356-.417-.3-.874.278-.8.5-.778S.867.42.813.876Z" transform="translate(0.118 6.945)" fill="#ffa513"/>
          <g id="グループ_6774" data-name="グループ 6774" transform="translate(0 0)">
            <path id="パス_76652" data-name="パス 76652" d="M29.319,7.365l-1.148,6.564L2.184,10.787S.429,10.165.05,9.105,1.564,5.836,2.41,5.125c.795-.663,5.326-.739,5.916-.747H8.39S12.48,1.214,13.485.472c.013-.01.026-.02.039-.028a2.786,2.786,0,0,1,2.193-.36c.029,0,.059.006.087.009q3.056.368,6.107.74,1.849.223,3.7.448c1.136.136,2.328.354,2.675,1.67.157.608.285,1.227.429,1.84Q29.017,6.077,29.319,7.365Z" transform="translate(0.044 0)" fill="#ccd9dc"/>
            <path id="パス_76653" data-name="パス 76653" d="M0,4.175,15.015,5.763s.423-.088.334-1.247a9.61,9.61,0,0,0-.624-3.2C14.471,1.146,4.134,0,4.134,0s-.1.113-.983.926S0,4.175,0,4.175Z" transform="translate(12.73 1.1)" fill="#6faac6"/>
            <path id="パス_76654" data-name="パス 76654" d="M1.447.159S.8-.327.5.4A12.647,12.647,0,0,0,0,2.471l1.2.145Z" transform="translate(28.028 7.119)" fill="#fe100b"/>
            <path id="パス_76655" data-name="パス 76655" d="M0,.587,1.442,0,4.5.37s.614.378.306,1.66S4.555,4.49,3.475,4.612a9.078,9.078,0,0,1-2.8-.389Z" transform="translate(24.684 9.36)" fill="#a3adaf"/>
            <path id="パス_76656" data-name="パス 76656" d="M4.507.657,3.536.286.658.043s-.6-.33-.6.843S-.255,3.061.652,3.4a8.116,8.116,0,0,0,2.5.257Z" transform="translate(0 7.205)" fill="#a3adaf"/>
            <path id="パス_76657" data-name="パス 76657" d="M12.13,1.578,1.952.4.659.043S.06-.288.053.885-.255,3.061.654,3.4,11.187,4.537,11.187,4.537Z" transform="translate(7.306 8.09)" fill="#a3adaf"/>
            <path id="パス_76658" data-name="パス 76658" d="M8.731,1.629,0,.6.072,0,8.8,1.029Z" transform="translate(9.311 11.244)" fill="#747b7d"/>
            <g id="グループ_6768" data-name="グループ 6768" transform="translate(20.831 1.065)">
              <path id="パス_76659" data-name="パス 76659" d="M.6,5.613,0,5.545.716,0l.6.067Z" fill="#ccd9dc"/>
            </g>
            <g id="グループ_6769" data-name="グループ 6769" transform="translate(8.371 0.444)">
              <path id="パス_76660" data-name="パス 76660" d="M7.382.365S3.8,4.212,3.486,4.386A17.843,17.843,0,0,1,0,3.933H.064S4.153.77,5.159.028C5.172.018,5.185.008,5.2,0Z" transform="translate(0 0)" fill="#6faac6"/>
            </g>
            <g id="グループ_6770" data-name="グループ 6770" transform="translate(1.097 6.736)">
              <path id="パス_76661" data-name="パス 76661" d="M1.121,3.716A3.283,3.283,0,0,1,4.9,1.035a3.283,3.283,0,0,1,3.029,3.5,2.8,2.8,0,0,1-.135.585L8.9,5.258a3.913,3.913,0,0,0,.123-.585,4.342,4.342,0,0,0-4-4.636A4.341,4.341,0,0,0,.023,3.583,3.968,3.968,0,0,0,0,4.18l1.109.135A2.9,2.9,0,0,1,1.121,3.716Z" transform="translate(0 0)" fill="#747b7d"/>
            </g>
            <g id="グループ_6771" data-name="グループ 6771" transform="translate(17.882 8.26)">
              <path id="パス_76662" data-name="パス 76662" d="M1.179,4.156A3.536,3.536,0,0,1,5.17,1.146,3.357,3.357,0,0,1,8.109,5a6.493,6.493,0,0,1-.259.916l1.5-.108a4.235,4.235,0,0,0,.132-.651A4.674,4.674,0,0,0,5.3.036,4.677,4.677,0,0,0,.027,4.016,4.648,4.648,0,0,0,0,4.679l1.165.142A3.429,3.429,0,0,1,1.179,4.156Z" transform="translate(0 0)" fill="#747b7d"/>
            </g>
            <path id="パス_76663" data-name="パス 76663" d="M.951,0,0,1.174l2.325.058s.959-.8.883-1.011S.951,0,.951,0Z" transform="translate(0.757 5.848)" fill="#ffcc15"/>
            <g id="グループ_6772" data-name="グループ 6772" transform="translate(2.032 7.581)">
              <path id="パス_76664" data-name="パス 76664" d="M7.28,4.093A3.653,3.653,0,1,1,4.093.027,3.653,3.653,0,0,1,7.28,4.093Z" transform="translate(0 0)" fill="#110807"/>
              <path id="パス_76665" data-name="パス 76665" d="M4.63,2.6A2.323,2.323,0,1,1,2.6.017,2.323,2.323,0,0,1,4.63,2.6Z" transform="translate(1.241 1.38)" fill="#c6c5bf"/>
              <path id="パス_76666" data-name="パス 76666" d="M4.007,2.252A2.011,2.011,0,1,1,2.251.015,2.012,2.012,0,0,1,4.007,2.252Z" transform="translate(1.555 1.693)" fill="#88807f"/>
              <path id="パス_76667" data-name="パス 76667" d="M.426,4.441,0,4.39.532,0,.956.051Z" transform="translate(3.039 1.477)" fill="#c6c5bf"/>
              <path id="パス_76668" data-name="パス 76668" d="M3.065,3.479l-.337.264L0,.263.337,0Z" transform="translate(1.985 1.827)" fill="#c6c5bf"/>
              <path id="パス_76669" data-name="パス 76669" d="M4.441.532,4.39.956,0,.424.053,0Z" transform="translate(1.296 3.221)" fill="#c6c5bf"/>
              <path id="パス_76670" data-name="パス 76670" d="M3.48,0l.265.336L.265,3.065,0,2.727Z" transform="translate(1.645 2.166)" fill="#c6c5bf"/>
              <path id="パス_76671" data-name="パス 76671" d="M2.6,1.464A1.307,1.307,0,1,1,1.464.009,1.305,1.305,0,0,1,2.6,1.464Z" transform="translate(2.258 2.397)" fill="#fff"/>
              <path id="パス_76672" data-name="パス 76672" d="M2.223,1.252A1.116,1.116,0,1,1,1.25.008,1.113,1.113,0,0,1,2.223,1.252Z" transform="translate(2.449 2.586)" fill="#c6c5bf"/>
            </g>
            <g id="グループ_6773" data-name="グループ 6773" transform="translate(18.879 9.153)">
              <path id="パス_76673" data-name="パス 76673" d="M7.279,4.091A3.652,3.652,0,1,1,4.091.027,3.655,3.655,0,0,1,7.279,4.091Z" transform="translate(0 0)" fill="#110807"/>
              <path id="パス_76674" data-name="パス 76674" d="M4.63,2.6A2.323,2.323,0,1,1,2.6.017,2.325,2.325,0,0,1,4.63,2.6Z" transform="translate(1.33 1.33)" fill="#c6c5bf"/>
              <path id="パス_76675" data-name="パス 76675" d="M4.007,2.253A2.01,2.01,0,1,1,2.253.015,2.011,2.011,0,0,1,4.007,2.253Z" transform="translate(1.642 1.642)" fill="#88807f"/>
              <rect id="長方形_29359" data-name="長方形 29359" width="4.421" height="0.428" transform="translate(3.127 5.816) rotate(-83.096)" fill="#c6c5bf"/>
              <rect id="長方形_29360" data-name="長方形 29360" width="0.429" height="4.421" transform="matrix(0.787, -0.617, 0.617, 0.787, 2.073, 2.04)" fill="#c6c5bf"/>
              <rect id="長方形_29361" data-name="長方形 29361" width="0.428" height="4.422" transform="translate(1.384 3.593) rotate(-83.078)" fill="#c6c5bf"/>
              <path id="パス_76676" data-name="パス 76676" d="M3.479,0l.265.337L.264,3.066,0,2.729Z" transform="translate(1.734 2.114)" fill="#c6c5bf"/>
              <path id="パス_76677" data-name="パス 76677" d="M2.6,1.464A1.307,1.307,0,1,1,1.464.009,1.308,1.308,0,0,1,2.6,1.464Z" transform="translate(2.347 2.346)" fill="#fff"/>
              <path id="パス_76678" data-name="パス 76678" d="M2.225,1.252A1.117,1.117,0,1,1,1.25.008,1.116,1.116,0,0,1,2.225,1.252Z" transform="translate(2.537 2.536)" fill="#c6c5bf"/>
            </g>
          </g>
        </g>
      </g>
    </g>
  </g>
</svg>
