<svg xmlns="http://www.w3.org/2000/svg" xmlns:xlink="http://www.w3.org/1999/xlink" width="140" height="140" viewBox="0 0 140 140">
  <defs>
    <clipPath id="clip-path">
      <circle id="楕円形_25" data-name="楕円形 25" cx="70" cy="70" r="70" transform="translate(0 0.477)" fill="#f7f3e5"/>
    </clipPath>
  </defs>
  <g id="tips_01" transform="translate(0 -0.477)">
    <circle id="楕円形_23" data-name="楕円形 23" cx="70" cy="70" r="70" transform="translate(0 0.477)" fill="#f7f3e5"/>
    <g id="マスクグループ_4" data-name="マスクグループ 4" clip-path="url(#clip-path)">
      <g id="グループ_6784" data-name="グループ 6784" transform="translate(-523.771 -81.106)">
        <path id="パス_76679" data-name="パス 76679" d="M802.441,344.323s9.6,3.955,14.672,17.057,6.622,60.409,6.622,60.409l-13.437.721Z" transform="translate(-193.864 -162.146)" fill="#e2a441"/>
        <path id="パス_76680" data-name="パス 76680" d="M732.1,1231.509V1253.2l5.184-2.119,2.523-20.061Z" transform="translate(-148.56 -733.262)" fill="#ec7e7c"/>
        <path id="パス_76681" data-name="パス 76681" d="M697.324,1285.945l-5.556-.435s-31.663,18.9-20,20.678C684.274,1308.095,697.324,1285.945,697.324,1285.945Z" transform="translate(-108.036 -768.362)" fill="#e2a441"/>
        <path id="パス_76682" data-name="パス 76682" d="M697.564,803.089s5.291,69.547,7.53,102.49c1.742,25.638,2.981,51.435,2.981,51.435l10.509-1.514c2.373-.337,8.476-154.1,8.476-154.1Z" transform="translate(-126.313 -456.545)" fill="#7ba6a0"/>
        <path id="パス_76683" data-name="パス 76683" d="M837.559,1205.674l9.413,19.539,3.752-4.162-6.435-19.169Z" transform="translate(-216.483 -714.497)" fill="#ec7e7c"/>
        <path id="パス_76684" data-name="パス 76684" d="M843.756,1254.469l-5.2,2.021s-20.316,30.777-9.042,27.312C841.613,1280.092,843.756,1254.469,843.756,1254.469Z" transform="translate(-209.11 -748.368)" fill="#e2a441"/>
        <path id="パス_76685" data-name="パス 76685" d="M765.1,803.089s-.843,69.9,6.213,102.153c2.9,13.242,20.435,50.943,20.435,50.943l10.508-1.514c.9-.127-12.385-48.6-12.385-48.6L794.6,801.4Z" transform="translate(-169.794 -456.545)" fill="#7ba6a0"/>
        <path id="パス_76686" data-name="パス 76686" d="M698.375,330.842,676.3,331.2,662.479,342.49l3.229,60.487L648.512,517.3l83.242-1.1L711,362.553l.047-20.916Z" transform="translate(-94.719 -153.463)" fill="#e2a441"/>
        <path id="パス_76687" data-name="パス 76687" d="M708.231,241.836c-2.012,1.8,3.181,2.9,4.281,2.764,2.768-.337,6.145-3.353,7.306-5.857,2.288-4.946-.749-14-5.392-16.582a10.481,10.481,0,0,0-8.08-1.1,3.186,3.186,0,0,0-1.671,4.7c-3.667-3.04-6.867.784-7.414,2.492-.647,2.015-.162,5.926,2.664,5.733-1.581.561-1.139,3.548-.6,4.768,1.462,3.315,5.7,3.794,8.781,3.355C708.124,242.147,708.252,241.818,708.231,241.836Z" transform="translate(-125.955 -82.506)" fill="#ce5c4a"/>
        <path id="パス_76688" data-name="パス 76688" d="M688.552,150.264c2.583,11.177,14.6,20.71,14.6,20.71l22.917-1.745s9.466-10.036,8.563-20.019a58.586,58.586,0,0,0-1.564-9.594,19.016,19.016,0,0,0-3.993-8.184c-4.364-4.583-10.645-6.221-15.545-6.761a39.862,39.862,0,0,0-5.52-.195c-1.2.035-1.917.132-1.917.132l-.1.03-4.625,1.556a18.632,18.632,0,0,0-1.749,1.064C695.375,130.079,685.33,136.334,688.552,150.264Z" transform="translate(-120.105 -20.527)" fill="#ce5c4a"/>
        <path id="パス_76689" data-name="パス 76689" d="M706.072,187.815a19.28,19.28,0,1,0,18.382-19.649A19.028,19.028,0,0,0,706.072,187.815Z" transform="translate(-131.78 -48.67)" fill="#eabf98"/>
        <path id="パス_76690" data-name="パス 76690" d="M680.278,213.274a6.1,6.1,0,1,0,5.818-6.388A6.108,6.108,0,0,0,680.278,213.274Z" transform="translate(-115.175 -73.619)" fill="#eabf98"/>
        <path id="パス_76691" data-name="パス 76691" d="M734.193,155.491a35.214,35.214,0,0,1,1.841,6.009c.228,1.172,1.117,3.934.313,4.964-1.353-1.6-2.024-3.747-3.579-5.244a50.67,50.67,0,0,0-6.617-5.5,11.012,11.012,0,0,0,1.143,3.726c-2.8-.982-5.589-3.459-7.758-5.415-1.678,3.059-5.28,5.354-7.966,7.342-2.355,1.744-5.854,4.488-8.741,5.145.9-2.537,2.5-4.863,2.648-7.659-1.7,2.284-2.527,5.293-4.3,7.657-1.555,2.082-2.836,4.071-5.058,5.355-2.361-4.174-4.28-8-3.649-13.142a21.855,21.855,0,0,1,4.862-10.453,17.923,17.923,0,0,1,9.034-5.631c1.136-.356,2.818-.126,3.87-.811a5.728,5.728,0,0,1,3.015-.919c5.471-.326,10.593,1.785,14.927,5.179C731.322,148.55,732.715,151.721,734.193,155.491Z" transform="translate(-122.956 -31.111)" fill="#ce5c4a"/>
        <path id="パス_76692" data-name="パス 76692" d="M779.3,204.544a1.931,1.931,0,0,0,1.1,2.385,1.7,1.7,0,0,0,2.206-1.153,1.927,1.927,0,0,0-1.107-2.382A1.693,1.693,0,0,0,779.3,204.544Z" transform="translate(-178.902 -71.307)" fill="#090406"/>
        <path id="パス_76693" data-name="パス 76693" d="M740.349,207.238a1.934,1.934,0,0,0,1.1,2.385,1.7,1.7,0,0,0,2.209-1.153,1.934,1.934,0,0,0-1.109-2.382A1.7,1.7,0,0,0,740.349,207.238Z" transform="translate(-153.814 -73.042)" fill="#090406"/>
        <path id="パス_76694" data-name="パス 76694" d="M764.387,215.839a.459.459,0,0,0,.319-.165c.151-.184.321-.361.489-.53a2.769,2.769,0,0,0,1.081-2.281,18.392,18.392,0,0,0-1.462-3.771c-.339-.745-.655-1.449-.758-1.761a.454.454,0,0,0-.862.284c.118.357.431,1.05.794,1.851a21.543,21.543,0,0,1,1.387,3.486c.06.618-.259.977-.826,1.558-.182.182-.366.373-.542.588a.452.452,0,0,0,.062.638A.458.458,0,0,0,764.387,215.839Z" transform="translate(-168.571 -73.71)" fill="#090406"/>
        <g id="グループ_6778" data-name="グループ 6778" transform="translate(587.58 142.849)">
          <path id="パス_76695" data-name="パス 76695" d="M751.434,241.314c.254,0,.5-.022.745-.049a7.119,7.119,0,0,0,6.372-6.791.591.591,0,1,0-1.176-.119,5.984,5.984,0,0,1-5.33,5.735,7.035,7.035,0,0,1-7.449-4.81.591.591,0,1,0-1.117.385A8.2,8.2,0,0,0,751.434,241.314Z" transform="translate(-743.445 -233.823)" fill="#c11232"/>
        </g>
        <path id="パス_76696" data-name="パス 76696" d="M690,130.192l1.779,4.933c.237-.895.538-1.795.808-2.562a58.2,58.2,0,0,1,2.676-6.8c2.218-4.78,5.2-9.717,9.742-12.752,7.31-4.874,16.688-1.817,22.763,3.671a22.515,22.515,0,0,1,3.3,3.692,49.237,49.237,0,0,1,3.976,6.386c.322.62.624,1.264.926,1.928a41.649,41.649,0,0,0-1.462-8.109c-1.017-1.363-4.537-7.15-10.246-10.359a25.494,25.494,0,0,0-6.812-2.524c-1.5-.349-4.546-.672-5.92.215a9.47,9.47,0,0,0,3.339-3.763.505.505,0,0,0,.116-.18c1.806-3.594,1.807-8.221-.464-11.382-2.2,2.036-3.814,5.894-4.69,8.694a12.639,12.639,0,0,0-.462,2.327,1.785,1.785,0,0,0-.02.346,40.158,40.158,0,0,1-.515,4.934,15.793,15.793,0,0,0-1.507-4.772,14.651,14.651,0,0,0-1.287-2.166c-2.133-3-10.13-6.538-10.13-6.538s-1.671-1.833.422,6.12a7.592,7.592,0,0,0,2.692,3.947,11.388,11.388,0,0,0,1.928,1.258,20.933,20.933,0,0,0,5.939,1.968c-6.208-.6-11.062,6.632-13.4,11.248A42.335,42.335,0,0,0,690,130.192Z" transform="translate(-121.441 0)" fill="#6590b8"/>
        <path id="パス_76697" data-name="パス 76697" d="M739.909,287.9l11.175-.229s-.711-.252-3.623-3-4.292-22.128-4.292-22.128h-3.6v.037l0-.037h-3.6s-1.372,19.383-4.289,22.128l-2.917,2.745,10.468.48v.034l.342-.016.342.016Z" transform="translate(-146.405 -109.476)" fill="#eabf98"/>
        <path id="パス_76698" data-name="パス 76698" d="M740.732,163.9a.554.554,0,0,1,.021-.782,6.372,6.372,0,0,0,.767-.893.552.552,0,1,1,.9.646,7.424,7.424,0,0,1-.9,1.048.543.543,0,0,1-.341.15A.557.557,0,0,1,740.732,163.9Zm2.562-3.649a.554.554,0,0,1-.269-.735c.1-.221.2-.438.3-.645l.235-.514a.553.553,0,1,1,1.009.452l-.238.52c-.094.209-.194.428-.3.654a.557.557,0,0,1-.464.317A.538.538,0,0,1,743.294,160.249Zm1.75-4.13a.553.553,0,0,1-.363-.691c.124-.406.234-.808.327-1.2a.553.553,0,1,1,1.076.254c-.1.415-.216.845-.349,1.273a.553.553,0,0,1-.49.387A.546.546,0,0,1,745.044,156.12Zm.907-4.386a.55.55,0,0,1-.544-.561c0-.333,0-.668-.027-.995-.006-.075-.012-.15-.017-.228a.547.547,0,0,1,.5-.6l.011,0a.554.554,0,0,1,.589.5c.007.082.013.165.019.249.025.356.034.724.028,1.088a.553.553,0,0,1-.513.543A.209.209,0,0,1,745.951,151.734Z" transform="translate(-154.02 -36.564)" fill="#eb702f"/>
        <path id="パス_76699" data-name="パス 76699" d="M711.547,174.693a.555.555,0,0,1,.032-.781l.152-.148a.552.552,0,0,1,.8.766c-.065.067-.129.13-.2.193a.55.55,0,0,1-.336.147A.56.56,0,0,1,711.547,174.693Zm1.85-2.851a.553.553,0,0,1-.386-.68c.1-.38.193-.769.281-1.153l.017-.07a.553.553,0,1,1,1.076.251l-.017.07c-.092.4-.185.8-.294,1.2a.553.553,0,0,1-.494.405A.588.588,0,0,1,713.4,171.842Zm1.14-4.34a.552.552,0,0,1-.377-.685q.18-.621.371-1.239a.552.552,0,1,1,1.055.328q-.186.607-.366,1.22a.552.552,0,0,1-.683.375Zm1.39-4.276a.56.56,0,0,1-.267-.731c.172-.394.345-.781.525-1.161a.552.552,0,0,1,1,.463c-.174.377-.345.757-.51,1.132-.007.012-.018.042-.024.054a.536.536,0,0,1-.447.3A.557.557,0,0,1,715.927,163.227Zm1.93-4.038a.555.555,0,0,1-.215-.752c.21-.38.429-.755.653-1.127a.553.553,0,1,1,.947.573c-.22.357-.429.722-.633,1.091a.549.549,0,0,1-.445.282A.537.537,0,0,1,717.857,159.188Zm2.381-3.8a.556.556,0,0,1-.1-.777c.27-.345.549-.685.828-1.012a.553.553,0,0,1,.839.721c-.27.314-.537.64-.794.97a.537.537,0,0,1-.4.214A.579.579,0,0,1,720.238,155.391Z" transform="translate(-135.227 -39.18)" fill="#eb702f"/>
        <path id="パス_76700" data-name="パス 76700" d="M789.114,172.814a11.219,11.219,0,0,0-.263-1.2.553.553,0,0,1,1.067-.289,12.8,12.8,0,0,1,.288,1.306.555.555,0,0,1-.457.636l-.052.005A.555.555,0,0,1,789.114,172.814Zm-1.339-4.12c-.17-.372-.352-.753-.545-1.134a.553.553,0,1,1,.985-.5c.2.4.393.789.566,1.178a.552.552,0,0,1-.274.732.533.533,0,0,1-.19.049A.551.551,0,0,1,787.775,168.694Zm-2.12-3.864c-.226-.357-.458-.706-.7-1.052a.552.552,0,1,1,.906-.629c.249.357.491.718.723,1.085a.551.551,0,0,1-.426.847A.555.555,0,0,1,785.655,164.83Zm-2.614-3.557c-.272-.324-.552-.641-.831-.946a.552.552,0,1,1,.813-.746c.291.313.579.644.863.979a.554.554,0,0,1-.065.781.563.563,0,0,1-.317.128A.555.555,0,0,1,783.041,161.273Zm-3.1-3.086c-.339-.272-.673-.512-.992-.721a.552.552,0,0,1,.6-.928c.349.227.715.49,1.084.784a.551.551,0,0,1,.087.776.532.532,0,0,1-.393.206A.552.552,0,0,1,779.942,158.186Z" transform="translate(-178.57 -41.138)" fill="#eb702f"/>
        <path id="パス_76701" data-name="パス 76701" d="M722.072,220.493a2.212,2.212,0,1,0,2.053-2.357A2.209,2.209,0,0,0,722.072,220.493Z" transform="translate(-142.096 -80.866)" fill="#db6b69"/>
        <path id="パス_76702" data-name="パス 76702" d="M796.233,215.361A2.21,2.21,0,1,0,798.285,213,2.208,2.208,0,0,0,796.233,215.361Z" transform="translate(-189.862 -77.56)" fill="#db6b69"/>
        <path id="パス_76703" data-name="パス 76703" d="M752.73,273.322l4.552-.314a.553.553,0,1,0-.078-1.1l-4.55.314a.553.553,0,1,0,.076,1.1Z" transform="translate(-161.465 -115.501)" fill="#b35d55"/>
        <path id="パス_76704" data-name="パス 76704" d="M642.393,543.037c0,4.043-3.747,13.234-7.185,13.234s-6.227-3.276-6.227-7.316,2.789-7.321,6.227-7.321S642.393,538.992,642.393,543.037Z" transform="translate(-82.139 -288.688)" fill="#eabf98"/>
        <path id="パス_76705" data-name="パス 76705" d="M659.873,350.453s-3.769-.414-10.609,11.863-13.985,58.5-13.985,58.5l11.243,3.548Z" transform="translate(-86.196 -166.093)" fill="#e2a441"/>
        <g id="グループ_6779" data-name="グループ 6779" transform="translate(501.455 189.232)">
          <path id="パス_76706" data-name="パス 76706" d="M520.922,371.472c-3.827-2.406-13.839-7.263-13.7-5.676,0,.2.091.582.068.7-1.671-1.021-3.785-2.429-5.788-2.343-.552,1.126,4.094,3.546,4.889,4.2a8.3,8.3,0,0,0-1.9-.184c-.159.679.562,1.031,1.045,1.335,2.234,1.4,3.858,2.372,6.1,3.767,1.166.724,2.26,1.546,3.374,2.349.241.175,1.37.729,1.1,1.161-.236.367-1.518-.152-1.846-.282a8.512,8.512,0,0,1-2.207-1.377c-.958-.818-2.551-2.148-3.919-1.815-1.169.288-.164.882.48,1.4.8.635,1.643,1.184,2.4,1.86.6.534,1.087,1.331,1.719,1.782a21.771,21.771,0,0,0,3.94,1.674c1.6.667,3.212,1.21,4.748,2.022a15.485,15.485,0,0,1,2.941,1.5c.847.713,1.709,1.469,2.557,2.2a30.99,30.99,0,0,1,3.01,2.993c1.742,1.99,2.646,4.747,3.743,7.08,1.413-.953,3.432-.953,5.065-1.513a34.562,34.562,0,0,0-1.738-4.48,14.7,14.7,0,0,1-1.273-2.734,16.7,16.7,0,0,1-.9-3.257c-.031-1.006.387-1.915.416-2.868a6.1,6.1,0,0,0-.9-2.5c-.416-.913-.856-1.8-1.247-2.741-.778-1.864-2.017-3.548-2.434-5.555-.15-.72-1.067-3.686-1.6-1.493-.448,1.846-.2,3.723-.526,5.536-.214,1.173-1.287.537-2.211.152A36.656,36.656,0,0,1,520.922,371.472Z" transform="translate(-501.455 -364.147)" fill="#eabf98"/>
          <path id="パス_76707" data-name="パス 76707" d="M600.9,475.3l-16.824-49.8,3.875-4.942,21.592,51.274Z" transform="translate(-554.671 -400.478)" fill="#eabf98"/>
        </g>
        <path id="パス_76708" data-name="パス 76708" d="M529.024,383.041a.549.549,0,0,1-.237-.055l-13.738-6.559a.553.553,0,0,1,.477-1l13.738,6.561a.553.553,0,0,1-.239,1.051Z" transform="translate(-8.553 -182.147)" fill="#b35d55"/>
        <path id="パス_76709" data-name="パス 76709" d="M534.012,378.678a.58.58,0,0,1-.237-.054l-13.738-6.558a.553.553,0,0,1,.476-1l13.739,6.559a.549.549,0,0,1,.26.736A.555.555,0,0,1,534.012,378.678Z" transform="translate(-11.766 -179.337)" fill="#b35d55"/>
        <path id="パス_76710" data-name="パス 76710" d="M821.17,447.392a.62.62,0,0,1-.618-.571L816.22,391.11a.618.618,0,1,1,1.233-.1l4.333,55.712a.618.618,0,0,1-.568.665Z" transform="translate(-202.738 -191.852)" fill="#d18310"/>
        <path id="パス_76711" data-name="パス 76711" d="M766.441,909.788a.929.929,0,0,1-.886-.908l-1.7-47.412a.93.93,0,1,1,1.859-.044l1.706,47.41a.931.931,0,0,1-.909.953A.532.532,0,0,1,766.441,909.788Z" transform="translate(-169.008 -494.624)" fill="#557385"/>
        <g id="グループ_6783" data-name="グループ 6783" transform="translate(613.329 158.037)">
          <path id="パス_76712" data-name="パス 76712" d="M830.841,330.931c1.284,3.667.55,8.11-.642,11.684a23.056,23.056,0,0,0-1.109,6.438c-.114,2.187-.369,9.983-1.406,11.859-.41.742-1.8-7.929-1.8-9.89,0-2.08-1.553-4.291-2.449-6.095-1.69-3.408-.994-6.863-1.7-10.4-.532-2.652-3.272-5.315-.146-7.581C824.266,325.006,829.808,327.982,830.841,330.931Z" transform="translate(-818.578 -308.592)" fill="#eabf98"/>
          <g id="グループ_6781" data-name="グループ 6781" transform="translate(7.177 38.93)">
            <g id="グループ_6780" data-name="グループ 6780">
              <path id="パス_76713" data-name="パス 76713" d="M851.378,443.329l-9.226-55.556-6.192-1.893,3.054,57.932Z" transform="translate(-835.961 -385.879)" fill="#eabf98"/>
            </g>
          </g>
          <g id="グループ_6782" data-name="グループ 6782" transform="translate(0 0)">
            <path id="パス_76714" data-name="パス 76714" d="M835.372,310.478l-14.583-.1s-1.677-24.819-2.063-30.353h20C838.168,285.341,835.372,310.478,835.372,310.478Z" transform="translate(-817.683 -278.77)" fill="#e0ded9"/>
            <path id="パス_76715" data-name="パス 76715" d="M838.794,291.131c-.138,0-.844,7.4-.9,7.868q-.615,5.39-1.23,10.775l-.1.931a21.353,21.353,0,0,1-.574,4.6,1.656,1.656,0,0,1-.5.768,6.327,6.327,0,0,1-3.116.5c-.66,0-1.309-.012-1.833-.022-.106,0-.2,0-.3,0h-5.306c-1.279-.016-2.181-.226-2.313-1.985q-.158-2.092-.317-4.186c-.03-.4-.061-.79-.09-1.185q-.37-4.913-.744-9.828-.311-4.114-.622-8.229Z" transform="translate(-819.05 -285.922)" fill="#e5d282"/>
            <path id="パス_76716" data-name="パス 76716" d="M837.489,280.3c0,.571-4.856,1.036-10.845,1.036S815.8,280.872,815.8,280.3c0-.1-.034-1.221.209-1.308a41.8,41.8,0,0,0,10.637,1.183A42.653,42.653,0,0,0,837.3,279.03C837.542,279.118,837.489,280.205,837.489,280.3Z" transform="translate(-815.795 -278.104)" fill="#ceccc6"/>
            <path id="パス_76717" data-name="パス 76717" d="M838.273,314.355c-.629.576-2.894.405-3.955.405h-3.2c-1.262,0-2.206.121-2.325-1.685q-.116-1.776-.232-3.553-.308-4.673-.615-9.347-.229-3.489-.457-6.982h13.219c-.1,0-.621,6.282-.66,6.676q-.493,4.969-.983,9.936a20.954,20.954,0,0,1-.422,3.9A1.469,1.469,0,0,1,838.273,314.355Z" transform="translate(-823.328 -287.25)" fill="#e1d883"/>
            <path id="パス_76718" data-name="パス 76718" d="M839.14,342.452l-.105.931a21.352,21.352,0,0,1-.574,4.6,1.657,1.657,0,0,1-.5.768,6.327,6.327,0,0,1-3.116.5c-.676,0-1.316-.017-1.833-.022-.106,0-.2,0-.3,0h-5.306c-1.279-.016-2.181-.226-2.313-1.985q-.158-2.092-.317-4.186c-.03-.4-.061-.79-.09-1.185a2.381,2.381,0,0,1,.238.078c.674.248.92.949,1.676,1.2a17.03,17.03,0,0,0,9.975-.146A6.326,6.326,0,0,1,839.14,342.452Z" transform="translate(-821.521 -318.601)" fill="#eabf98"/>
            <path id="パス_76719" data-name="パス 76719" d="M838.969,289.985c0,.748-4.038,1.353-9.02,1.353s-9.019-.6-9.019-1.353,4.038-1.351,9.019-1.351S838.969,289.239,838.969,289.985Z" transform="translate(-819.103 -284.314)" fill="#e5d282"/>
            <path id="パス_76720" data-name="パス 76720" d="M837.181,290.1c.213.146-1.3.982-1.458,1.037a7.518,7.518,0,0,1-1.723.319,4.377,4.377,0,0,1-3.275-.6c-1-.887.533-.66,1.195-1.012.87-.463,1.053-1.223,2.1-.889.5.16.89.478,1.442.6A4.83,4.83,0,0,1,837.181,290.1Z" transform="translate(-825.2 -284.464)" fill="#f6f7f5" opacity="0.84"/>
            <path id="パス_76721" data-name="パス 76721" d="M835.552,290.839l-.05-.048c-.184-.189-.255-.774-.524-.87-.323-.115-1.181.686-1.612.863-.259.107,1.229.409,1.361.433.445.081,1.508.6,1.835.034A1.8,1.8,0,0,1,835.552,290.839Z" transform="translate(-827.093 -285.136)" fill="#e5d282"/>
            <path id="パス_76722" data-name="パス 76722" d="M839.815,303.545c.612-.583-1.123-2.785-1.209-2.869-.908-.858-2.186-.6-3.15-.569-1.045.026-2.207.59-3.233.36-1.377-.315-2.593-2.181-4.037-1.518-2.2,1.011-1.061,6,.159,8.6,1.123,2.4,2.832,2.818,4.344,1.609,1.246-1,2.092-3.439,3.4-4.23C837.305,304.2,838.623,304.683,839.815,303.545Z" transform="translate(-822.974 -290.867)" fill="#efe9c2" opacity="0.36"/>
            <path id="パス_76723" data-name="パス 76723" d="M829.4,293.092c.287.832-3.97.21-5.734-.309-.6-.175-1.861-.524-1.146-1.432.525-.667,2.547-.738,1.82.985C825.884,292.589,827.861,293.478,829.4,293.092Z" transform="translate(-819.989 -285.783)" fill="#dcba54"/>
            <path id="パス_76724" data-name="パス 76724" d="M850.748,296.712c1.191.056,3.918.162,4.719-.572-.006.006-1.545-.1-1.764-.1-.889,0-1.763.135-2.649.135-.279,0-1.479-.105-1.544.129C849.441,296.559,849.977,296.676,850.748,296.712Z" transform="translate(-837.507 -289.086)" fill="#dcba54"/>
            <path id="パス_76725" data-name="パス 76725" d="M851.3,291.192c.3.632,1.529.219,2.014.169a17.376,17.376,0,0,0,2.653-.156c.354-.091.624-.044.609-.458-.01-.291-.509-.727-.76-.814-.619-.215-.818.144-1.33.441A10.379,10.379,0,0,1,851.3,291.192Z" transform="translate(-838.663 -285.109)" fill="#f6f7f5" opacity="0.66"/>
            <path id="パス_76726" data-name="パス 76726" d="M837.492,277.531c0,.1-.132.184-.375.271-1.242.442-5.461.765-10.47.765s-9.229-.323-10.472-.765c-.243-.087-.374-.175-.374-.271,0-.57,4.856-1.035,10.846-1.035S837.492,276.96,837.492,277.531Z" transform="translate(-815.798 -276.496)" fill="#e0ded9"/>
            <path id="パス_76727" data-name="パス 76727" d="M838.66,278.216c0,.052-.038.1-.106.144-.683-.465-4.585-.821-9.295-.821s-8.614.356-9.3.821c-.069-.046-.106-.093-.106-.144,0-.533,4.211-.964,9.4-.964S838.66,277.683,838.66,278.216Z" transform="translate(-818.411 -276.983)" fill="#fcfcfb"/>
            <path id="パス_76728" data-name="パス 76728" d="M839.182,334.712c0,.679-3.5,1.232-7.813,1.232s-7.814-.553-7.814-1.232c0-.114-.025-.717.15-.822a19.079,19.079,0,0,0,7.664,1.406,19.4,19.4,0,0,0,7.679-1.361C839.221,334.04,839.182,334.6,839.182,334.712Z" transform="translate(-820.792 -313.463)" fill="#e0ded9"/>
            <path id="パス_76729" data-name="パス 76729" d="M839.182,342.211c0,.679-3.5,1.233-7.813,1.233s-7.814-.554-7.814-1.233c0-.114-.025-.719.15-.822a19.1,19.1,0,0,0,7.664,1.405,19.4,19.4,0,0,0,7.679-1.361C839.221,341.537,839.182,342.1,839.182,342.211Z" transform="translate(-820.792 -318.293)" fill="#e0ded9"/>
            <path id="パス_76730" data-name="パス 76730" d="M839.429,349.7c0,.68-3.227,1.234-7.208,1.234s-7.206-.554-7.206-1.234c0-.114-.023-.718.139-.822a16.389,16.389,0,0,0,7.067,1.408,16.684,16.684,0,0,0,7.081-1.362C839.463,349.031,839.429,349.589,839.429,349.7Z" transform="translate(-821.734 -323.118)" fill="#e0ded9"/>
            <path id="パス_76731" data-name="パス 76731" d="M839.322,355.961c0,.493-2.859.893-6.386.893s-6.386-.4-6.386-.893c0-.083-.021-.52.123-.6a17.323,17.323,0,0,0,6.263,1.019,17.627,17.627,0,0,0,6.275-.987C839.354,355.475,839.322,355.879,839.322,355.961Z" transform="translate(-822.722 -327.296)" fill="#dcba54"/>
            <path id="パス_76732" data-name="パス 76732" d="M844.933,358.247c1.43-.247,2.648-.68,2.831-1.172-1.188-.349-2.619.469-3.8.615-1.272.156-2.9-.549-4.123-.033C840.156,358.567,842.784,358.617,844.933,358.247Z" transform="translate(-831.284 -328.341)" fill="#ecd771"/>
            <path id="パス_76733" data-name="パス 76733" d="M829.8,357.448c.537.226,1.3.073,1.668.578-.482.411-2.254.235-2.552-.447C828.608,356.864,829.513,357.326,829.8,357.448Z" transform="translate(-824.207 -328.47)" fill="#ecd771"/>
          </g>
          <path id="パス_76734" data-name="パス 76734" d="M851,313.517a12.65,12.65,0,0,0,.59-4.1c0-1.4-1.55-4.3-3.453-6.15-1.082-1.049-2.132-2.152-3.184-3.221-.432-.439-1.276-.833-1.524-.063a3.029,3.029,0,0,0,.778,2.463c-.979-.725-1.8-1.634-2.782-2.351-.408-.3-1.038-.915-1.564-.607-.406.238-.408.856-.332,1.244a7.167,7.167,0,0,0,1.775,2.975c.818,1.024.541.695,3.111,4.05a26.154,26.154,0,0,1,.83,4.441,18.738,18.738,0,0,0-2.1-2.928c-.685-.587-.829-.83-1.806-1.659-.634-.539-3.779-2.727-3.9-1.189a3.535,3.535,0,0,0,.929,2.019,27.194,27.194,0,0,0,3.269,2.879s1.771,2.8,2.294,3.9c-1.306-.683-1.969-1.8-3.209-2.55-.988-.6-2.062-1.311-3.088-1.845-1.211-.631-1.075.944-.583,1.615a6.5,6.5,0,0,0,2.391,1.852c.235.148,1.162,1.31,1.367,1.513a4.036,4.036,0,0,1,.882,3.722,35.408,35.408,0,0,1-1.892,4.04c-1.256,2.5-2.683,5.311-2.076,8.2.289,1.378.956,4.921,2.165,5.818,1.969,1.461,2.976-4.529,3.42-5.828C845.034,326.713,850.575,314.712,851,313.517Z" transform="translate(-829.255 -291.249)" fill="#eabf98"/>
          <path id="パス_76735" data-name="パス 76735" d="M817.828,316.217a7.091,7.091,0,0,1,1.408,1.989c.311.774.36,5.917-1.252,5.338-.514-.184-.5-3.405-.685-4.034-.2-.663-1.151-2.52-.929-3.173C816.662,315.477,817.254,315.682,817.828,316.217Z" transform="translate(-816.144 -301.782)" fill="#eabf98"/>
          <path id="パス_76736" data-name="パス 76736" d="M861.413,316.458h-.02a.337.337,0,0,1-.316-.356,19.687,19.687,0,0,0-.19-4.014c-.26-1.3-2.976-4.236-4-5.258a.337.337,0,1,1,.476-.478c.157.156,3.833,3.837,4.185,5.6a19.92,19.92,0,0,1,.2,4.185A.337.337,0,0,1,861.413,316.458Z" transform="translate(-842.198 -295.662)" fill="#b95353"/>
        </g>
        <path id="パス_76737" data-name="パス 76737" d="M851.539,542.97c.766,3.532-1.5,10.559-6.44,10.109a8.342,8.342,0,0,1-6.744-4.5l-2.022-5.844,11.014-1.125Z" transform="translate(-215.693 -289.221)" fill="#eabf98"/>
      </g>
    </g>
    <circle id="楕円形_433" data-name="楕円形 433" cx="7" cy="7" r="7" transform="translate(104 37.477)" fill="#fff"/>
    <circle id="楕円形_434" data-name="楕円形 434" cx="7" cy="7" r="7" transform="translate(26.012 87.066) rotate(-160)" fill="#fff"/>
    <circle id="楕円形_435" data-name="楕円形 435" cx="5.853" cy="5.853" r="5.853" transform="translate(41.801 94.568) rotate(-160)" fill="#fff"/>
    <circle id="楕円形_436" data-name="楕円形 436" cx="3.5" cy="3.5" r="3.5" transform="translate(115 56.477)" fill="#fff"/>
    <circle id="楕円形_437" data-name="楕円形 437" cx="3.5" cy="3.5" r="3.5" transform="translate(22.172 65.449) rotate(-160)" fill="#fff"/>
  </g>
</svg>
