<svg xmlns="http://www.w3.org/2000/svg" width="140" height="140" viewBox="0 0 140 140">
  <g id="trouble_04" transform="translate(0 -0.477)">
    <circle id="楕円形_23" data-name="楕円形 23" cx="70" cy="70" r="70" transform="translate(0 0.477)" fill="#fff"/>
    <g id="グループ_6905" data-name="グループ 6905" transform="translate(-1312.776 -1669)">
      <g id="グループ_6902" data-name="グループ 6902" transform="translate(1344.343 1745.249)">
        <path id="パス_76844" data-name="パス 76844" d="M1361.1,1778.116a16.758,16.758,0,1,0,16.758,16.758A16.758,16.758,0,0,0,1361.1,1778.116Zm0,30.181a13.423,13.423,0,1,1,13.423-13.423A13.423,13.423,0,0,1,1361.1,1808.3Z" transform="translate(-1344.343 -1778.116)" fill="#e6e6e6"/>
      </g>
      <g id="グループ_6904" data-name="グループ 6904" transform="translate(1349.854 1730.186)">
        <g id="グループ_6903" data-name="グループ 6903" transform="translate(0)">
          <path id="パス_76845" data-name="パス 76845" d="M1385.738,1736.154l3.749-5.968,3.749,5.968Z" transform="translate(-1378.24 -1730.186)" fill="#ea4e4e"/>
          <path id="パス_76846" data-name="パス 76846" d="M1373.809,1730.186l3.749,5.968,3.749-5.968Z" transform="translate(-1370.06 -1730.186)" fill="#cc4c4c"/>
          <path id="パス_76847" data-name="パス 76847" d="M1397.668,1730.186l3.749,5.968,3.749-5.968Z" transform="translate(-1386.421 -1730.186)" fill="#cc4c4c"/>
          <path id="パス_76848" data-name="パス 76848" d="M1361.88,1736.154l3.749-5.968,3.749,5.968Z" transform="translate(-1361.88 -1730.186)" fill="#ea4e4e"/>
          <path id="パス_76849" data-name="パス 76849" d="M1409.6,1736.154l3.749-5.968,3.749,5.968Z" transform="translate(-1394.601 -1730.186)" fill="#cc4c4c"/>
          <path id="パス_76850" data-name="パス 76850" d="M1361.88,1749.177l11.247,12.429-3.749-12.429Z" transform="translate(-1361.88 -1743.209)" fill="#b73030"/>
          <path id="パス_76851" data-name="パス 76851" d="M1408.915,1749.177l-11.247,12.429,3.749-12.429Z" transform="translate(-1386.421 -1743.209)" fill="#b73030"/>
          <path id="パス_76852" data-name="パス 76852" d="M1385.738,1749.177l3.749,12.429,3.749-12.429Z" transform="translate(-1378.24 -1743.209)" fill="#ba3e3e"/>
        </g>
      </g>
    </g>
    <g id="グループ_6906" data-name="グループ 6906" transform="translate(-937.409 -1033.87)">
      <path id="長方形_29362" data-name="長方形 29362" d="M0,0H.75A1.38,1.38,0,0,1,2.13,1.38v0A1.38,1.38,0,0,1,.75,2.76H0a0,0,0,0,1,0,0V0A0,0,0,0,1,0,0Z" transform="translate(1049.369 1117.402)" fill="#595959"/>
      <rect id="長方形_29363" data-name="長方形 29363" width="1.067" height="0.19" transform="translate(1049.822 1117.885)" fill="#676767"/>
      <rect id="長方形_29364" data-name="長方形 29364" width="1.067" height="0.19" transform="translate(1049.822 1118.43)" fill="#676767"/>
      <rect id="長方形_29365" data-name="長方形 29365" width="1.067" height="0.19" transform="translate(1049.822 1118.975)" fill="#676767"/>
      <rect id="長方形_29366" data-name="長方形 29366" width="1.067" height="0.19" transform="translate(1049.822 1119.52)" fill="#676767"/>
      <path id="長方形_29367" data-name="長方形 29367" d="M5.192,0h5.24a5.192,5.192,0,0,1,5.192,5.192v0a0,0,0,0,1,0,0H0a0,0,0,0,1,0,0v0A5.192,5.192,0,0,1,5.192,0Z" transform="translate(1041.559 1143.635) rotate(180)" fill="#5a5a5a"/>
      <path id="パス_76853" data-name="パス 76853" d="M1072.24,1250.527v.925a.609.609,0,0,0,.609.609h10a.609.609,0,0,0,.609-.609v-.925h2.2v-9.01h-15.623v9.01Z" transform="translate(-44.101 -112.084)" fill="#5f5f5f"/>
      <path id="長方形_29368" data-name="長方形 29368" d="M1.677,0h0a0,0,0,0,1,0,0V9.01a0,0,0,0,1,0,0H0a0,0,0,0,1,0,0V1.677A1.677,1.677,0,0,1,1.677,0Z" transform="translate(1043.236 1138.443) rotate(180)" fill="#5a5a5a"/>
      <path id="長方形_29369" data-name="長方形 29369" d="M0,0H0A1.677,1.677,0,0,1,1.677,1.677V9.01a0,0,0,0,1,0,0H0a0,0,0,0,1,0,0V0A0,0,0,0,1,0,0Z" transform="translate(1025.935 1138.443) rotate(-180)" fill="#5a5a5a"/>
      <path id="長方形_29370" data-name="長方形 29370" d="M5.192,0h5.24a5.192,5.192,0,0,1,5.192,5.192v0a0,0,0,0,1,0,0H0a0,0,0,0,1,0,0v0A5.192,5.192,0,0,1,5.192,0Z" transform="translate(1025.935 1095.056)" fill="#5a5a5a"/>
      <path id="パス_76854" data-name="パス 76854" d="M1083.455,1112.176v-.925a.609.609,0,0,0-.609-.609h-10a.609.609,0,0,0-.609.609v.925h-2.2v9.01h15.623v-9.01Z" transform="translate(-44.101 -11.927)" fill="#5f5f5f"/>
      <path id="長方形_29371" data-name="長方形 29371" d="M1.677,0h0a0,0,0,0,1,0,0V9.01a0,0,0,0,1,0,0H0a0,0,0,0,1,0,0V1.677A1.677,1.677,0,0,1,1.677,0Z" transform="translate(1024.258 1100.248)" fill="#5a5a5a"/>
      <path id="長方形_29372" data-name="長方形 29372" d="M0,0H0A1.677,1.677,0,0,1,1.677,1.677V9.01a0,0,0,0,1,0,0H0a0,0,0,0,1,0,0V0A0,0,0,0,1,0,0Z" transform="translate(1041.559 1100.248)" fill="#5a5a5a"/>
      <circle id="楕円形_438" data-name="楕円形 438" cx="16.16" cy="16.16" r="16.16" transform="translate(1015.29 1132.046) rotate(-80.978)" fill="#595959"/>
      <circle id="楕円形_439" data-name="楕円形 439" cx="15.114" cy="15.114" r="15.114" transform="translate(1012.409 1118.621) rotate(-45)" fill="#f8f8f8"/>
      <rect id="長方形_29373" data-name="長方形 29373" width="0.508" height="4.072" transform="translate(1033.53 1104.559)" fill="#919191"/>
      <rect id="長方形_29374" data-name="長方形 29374" width="0.508" height="4.073" transform="translate(1026.533 1106.57) rotate(-29.995)" fill="#919191"/>
      <rect id="長方形_29375" data-name="長方形 29375" width="0.508" height="4.072" transform="matrix(0.5, -0.866, 0.866, 0.5, 1021.479, 1111.81)" fill="#919191"/>
      <rect id="長方形_29376" data-name="長方形 29376" width="0.508" height="4.073" transform="translate(1019.722 1118.875) rotate(-90)" fill="#919191"/>
      <rect id="長方形_29377" data-name="長方形 29377" width="0.508" height="4.072" transform="matrix(-0.5, -0.866, 0.866, -0.5, 1021.733, 1125.871)" fill="#919191"/>
      <rect id="長方形_29378" data-name="長方形 29378" width="0.508" height="4.073" transform="matrix(-0.866, -0.5, 0.5, -0.866, 1026.973, 1130.925)" fill="#919191"/>
      <rect id="長方形_29379" data-name="長方形 29379" width="0.508" height="4.073" transform="translate(1034.038 1132.682) rotate(180)" fill="#919191"/>
      <rect id="長方形_29380" data-name="長方形 29380" width="0.508" height="4.072" transform="matrix(-0.866, 0.5, -0.5, -0.866, 1041.035, 1130.671)" fill="#919191"/>
      <rect id="長方形_29381" data-name="長方形 29381" width="0.508" height="4.073" transform="translate(1046.089 1125.431) rotate(120.002)" fill="#919191"/>
      <rect id="長方形_29382" data-name="長方形 29382" width="0.508" height="4.072" transform="translate(1047.846 1118.366) rotate(90)" fill="#919191"/>
      <rect id="長方形_29383" data-name="長方形 29383" width="0.508" height="4.072" transform="matrix(0.5, 0.866, -0.866, 0.5, 1045.835, 1111.37)" fill="#919191"/>
      <rect id="長方形_29384" data-name="長方形 29384" width="0.508" height="4.072" transform="translate(1040.595 1106.316) rotate(29.995)" fill="#919191"/>
      <rect id="長方形_29385" data-name="長方形 29385" width="1.798" height="0.322" transform="translate(1035.649 1118.22) rotate(164.44)" fill="#787878"/>
      <path id="パス_76855" data-name="パス 76855" d="M1120.317,1178.573l-11.071,3.084.218.783,11.071-3.084.336-.531Z" transform="translate(-74.107 -63.914)" fill="#858585"/>
      <rect id="長方形_29386" data-name="長方形 29386" width="1.626" height="0.323" transform="matrix(-0.69, 0.724, -0.724, -0.69, 1033.708, 1118.869)" fill="#787878"/>
      <path id="パス_76856" data-name="パス 76856" d="M1076.068,1204.847l5.221-5.475-.59-.562-5.221,5.476-.017.63Z" transform="translate(-48.252 -79.4)" fill="#858585"/>
      <path id="パス_76857" data-name="パス 76857" d="M1099.282,1192.242a.984.984,0,1,1,.984.984A.984.984,0,0,1,1099.282,1192.242Z" transform="translate(-66.482 -73.621)" fill="#858585"/>
      <path id="パス_76858" data-name="パス 76858" d="M1101.868,1194.221a.377.377,0,1,1,.377.377A.377.377,0,0,1,1101.868,1194.221Z" transform="translate(-68.461 -75.6)" fill="#a6a6a6"/>
    </g>
    <g id="グループ_6907" data-name="グループ 6907" transform="translate(-943.659 -865.447)">
      <rect id="長方形_29387" data-name="長方形 29387" width="47.856" height="32.967" rx="2" transform="translate(992.178 884.743)" fill="#308ecc"/>
      <rect id="長方形_29388" data-name="長方形 29388" width="47.856" height="25.408" rx="2" transform="translate(992.178 884.743)" fill="#fafa00"/>
      <path id="パス_76859" data-name="パス 76859" d="M999.77,911.821h0a1.119,1.119,0,0,1-.7-.252.149.149,0,1,1,.189-.231.807.807,0,0,0,.514.184.149.149,0,0,1,0,.3Zm43.207,0h-.362a.149.149,0,1,1,0-.3h.362a.814.814,0,0,0,.247-.038.149.149,0,1,1,.09.285A1.122,1.122,0,0,1,1042.977,911.821Zm-1.022,0h-.659a.149.149,0,1,1,0-.3h.659a.149.149,0,0,1,0,.3Zm-1.318,0h-.659a.149.149,0,1,1,0-.3h.659a.149.149,0,0,1,0,.3Zm-1.318,0h-.659a.149.149,0,0,1,0-.3h.659a.149.149,0,0,1,0,.3Zm-1.318,0h-.659a.149.149,0,0,1,0-.3H1038a.149.149,0,0,1,0,.3Zm-1.318,0h-.659a.149.149,0,0,1,0-.3h.659a.149.149,0,0,1,0,.3Zm-1.318,0h-.659a.149.149,0,0,1,0-.3h.659a.149.149,0,0,1,0,.3Zm-1.318,0h-.659a.149.149,0,0,1,0-.3h.659a.149.149,0,0,1,0,.3Zm-1.318,0h-.659a.149.149,0,0,1,0-.3h.659a.149.149,0,1,1,0,.3Zm-1.318,0h-.659a.149.149,0,0,1,0-.3h.659a.149.149,0,0,1,0,.3Zm-1.318,0h-.659a.149.149,0,0,1,0-.3h.659a.149.149,0,1,1,0,.3Zm-1.318,0h-.659a.149.149,0,0,1,0-.3h.659a.149.149,0,0,1,0,.3Zm-1.318,0h-.659a.149.149,0,1,1,0-.3h.659a.149.149,0,1,1,0,.3Zm-1.318,0h-.659a.149.149,0,0,1,0-.3h.659a.149.149,0,0,1,0,.3Zm-1.319,0h-.659a.149.149,0,1,1,0-.3h.659a.149.149,0,0,1,0,.3Zm-1.318,0h-.659a.149.149,0,1,1,0-.3h.659a.149.149,0,0,1,0,.3Zm-1.318,0h-.659a.149.149,0,0,1,0-.3h.659a.149.149,0,0,1,0,.3Zm-1.318,0h-.659a.149.149,0,0,1,0-.3h.659a.149.149,0,0,1,0,.3Zm-1.318,0h-.659a.149.149,0,0,1,0-.3h.659a.149.149,0,0,1,0,.3Zm-1.318,0h-.659a.149.149,0,0,1,0-.3h.659a.149.149,0,0,1,0,.3Zm-1.318,0h-.659a.149.149,0,0,1,0-.3h.659a.149.149,0,0,1,0,.3Zm-1.318,0h-.659a.149.149,0,1,1,0-.3h.659a.149.149,0,0,1,0,.3Zm-1.318,0h-.659a.149.149,0,0,1,0-.3h.659a.149.149,0,0,1,0,.3Zm-1.318,0h-.659a.149.149,0,0,1,0-.3h.659a.149.149,0,0,1,0,.3Zm-1.318,0h-.659a.149.149,0,0,1,0-.3h.659a.149.149,0,0,1,0,.3Zm-1.318,0h-.659a.149.149,0,0,1,0-.3h.659a.149.149,0,0,1,0,.3Zm-1.318,0h-.659a.149.149,0,1,1,0-.3H1009a.149.149,0,0,1,0,.3Zm-1.318,0h-.659a.149.149,0,1,1,0-.3h.659a.149.149,0,0,1,0,.3Zm-1.318,0h-.659a.149.149,0,1,1,0-.3h.659a.149.149,0,0,1,0,.3Zm-1.318,0h-.659a.149.149,0,1,1,0-.3h.659a.149.149,0,0,1,0,.3Zm-1.318,0h-.659a.149.149,0,1,1,0-.3h.659a.149.149,0,0,1,0,.3Zm-1.318,0h-.659a.149.149,0,0,1,0-.3h.659a.149.149,0,0,1,0,.3Zm-1.318,0h-.659a.149.149,0,0,1,0-.3h.659a.149.149,0,0,1,0,.3Zm42.7-.435a.149.149,0,0,1-.124-.232.815.815,0,0,0,.135-.451v-.094a.149.149,0,1,1,.3,0v.094a1.11,1.11,0,0,1-.185.616A.148.148,0,0,1,1043.784,911.387Zm-44.958-.336a.149.149,0,0,1-.146-.119,1.112,1.112,0,0,1-.023-.228v-.46a.149.149,0,0,1,.3,0v.461a.8.8,0,0,0,.017.167.149.149,0,0,1-.116.177A.144.144,0,0,1,998.826,911.051Zm45.119-.95a.149.149,0,0,1-.149-.149v-.659a.149.149,0,1,1,.3,0v.659A.149.149,0,0,1,1043.945,910.1Zm-45.138-.367a.149.149,0,0,1-.149-.149v-.659a.149.149,0,0,1,.3,0v.659A.149.149,0,0,1,998.806,909.734Zm45.138-.951a.149.149,0,0,1-.149-.149v-.659a.149.149,0,1,1,.3,0v.659A.149.149,0,0,1,1043.945,908.782Zm-45.138-.367a.149.149,0,0,1-.149-.149v-.659a.149.149,0,0,1,.3,0v.659A.149.149,0,0,1,998.806,908.415Zm45.138-.951a.149.149,0,0,1-.149-.149v-.659a.149.149,0,1,1,.3,0v.659A.149.149,0,0,1,1043.945,907.464Zm-45.138-.367a.148.148,0,0,1-.149-.146v-.645a.149.149,0,0,1,.3,0v.645A.148.148,0,0,1,998.806,907.1Zm45.138-.952a.149.149,0,0,1-.149-.149v-.659a.149.149,0,0,1,.3,0V906A.149.149,0,0,1,1043.945,906.145Zm-45.138-.337a.148.148,0,0,1-.149-.146v-.645a.149.149,0,0,1,.3,0v.645A.148.148,0,0,1,998.806,905.808Zm45.138-.981a.149.149,0,0,1-.149-.149v-.659a.149.149,0,0,1,.3,0v.659A.149.149,0,0,1,1043.945,904.827Zm-45.138-.308a.148.148,0,0,1-.149-.146v-.645a.149.149,0,0,1,.3,0v.645A.148.148,0,0,1,998.806,904.519Zm45.138-1.01a.149.149,0,0,1-.149-.149V902.7a.149.149,0,1,1,.3,0v.659A.149.149,0,0,1,1043.945,903.509Zm-45.138-.279a.148.148,0,0,1-.149-.146v-.644a.149.149,0,0,1,.3,0v.644A.148.148,0,0,1,998.806,903.23Zm45.138-1.039a.149.149,0,0,1-.149-.149v-.659a.149.149,0,1,1,.3,0v.659A.149.149,0,0,1,1043.945,902.191Zm-45.138-.249a.148.148,0,0,1-.149-.146v-.645a.149.149,0,0,1,.3,0v.645A.148.148,0,0,1,998.806,901.941Zm45.138-1.069a.149.149,0,0,1-.149-.149v-.659a.149.149,0,1,1,.3,0v.659A.149.149,0,0,1,1043.945,900.872Zm-45.138-.22a.148.148,0,0,1-.149-.146v-.645a.149.149,0,0,1,.3,0v.645A.148.148,0,0,1,998.806,900.652Zm45.138-1.1a.149.149,0,0,1-.149-.149v-.659a.149.149,0,1,1,.3,0v.659A.149.149,0,0,1,1043.945,899.554Zm-45.138-.191a.148.148,0,0,1-.149-.146v-.645a.149.149,0,0,1,.3,0v.645A.148.148,0,0,1,998.806,899.363Zm45.138-1.128a.149.149,0,0,1-.149-.149v-.659a.149.149,0,1,1,.3,0v.659A.149.149,0,0,1,1043.945,898.236Zm-45.138-.161a.148.148,0,0,1-.149-.146v-.644a.149.149,0,0,1,.3,0v.644A.148.148,0,0,1,998.806,898.074Zm45.138-1.157a.149.149,0,0,1-.149-.149v-.659a.149.149,0,0,1,.3,0v.659A.149.149,0,0,1,1043.945,896.918Zm-45.138-.132a.148.148,0,0,1-.149-.146v-.644a.149.149,0,0,1,.3,0v.644A.148.148,0,0,1,998.806,896.785Zm45.138-1.186a.149.149,0,0,1-.149-.149v-.659a.149.149,0,0,1,.3,0v.659A.149.149,0,0,1,1043.945,895.6Zm-45.138-.1a.148.148,0,0,1-.149-.146v-.644a.149.149,0,0,1,.3,0v.644A.148.148,0,0,1,998.806,895.5Zm45.138-1.216a.149.149,0,0,1-.149-.149v-.659a.149.149,0,0,1,.3,0v.659A.149.149,0,0,1,1043.945,894.281Zm-45.138-.073a.148.148,0,0,1-.149-.146v-.645a.149.149,0,0,1,.3,0v.645A.148.148,0,0,1,998.806,894.208Zm45.138-1.245a.149.149,0,0,1-.149-.149v-.659a.149.149,0,1,1,.3,0v.659A.149.149,0,0,1,1043.945,892.963Zm-45.138-.044a.148.148,0,0,1-.149-.146v-.644a.149.149,0,0,1,.3,0v.644A.148.148,0,0,1,998.806,892.918Zm45.138-1.274a.149.149,0,0,1-.149-.149v-.659a.149.149,0,1,1,.3,0v.659A.149.149,0,0,1,1043.945,891.644Zm-45.138-.015a.148.148,0,0,1-.149-.146v-.645a.149.149,0,0,1,.3,0v.645A.148.148,0,0,1,998.806,891.63Zm45.138-1.3a.149.149,0,0,1-.149-.149v-.659a.149.149,0,1,1,.3,0v.659A.149.149,0,0,1,1043.945,890.326Zm-45.138.015a.148.148,0,0,1-.149-.146v-.644a.149.149,0,0,1,.3,0v.644A.148.148,0,0,1,998.806,890.341Zm0-1.258a.148.148,0,0,1-.149-.146v-.645a.149.149,0,0,1,.3,0v.645A.148.148,0,0,1,998.806,889.083Zm45.138-.075a.149.149,0,0,1-.149-.149V888.4a.815.815,0,0,0-.018-.17.149.149,0,0,1,.292-.061,1.135,1.135,0,0,1,.024.232v.457A.149.149,0,0,1,1043.945,889.008Z" transform="translate(-5.269 -2.691)" fill="#638da8"/>
      <circle id="楕円形_440" data-name="楕円形 440" cx="2.247" cy="2.247" r="2.247" transform="translate(1012.969 903.559) rotate(-35.809)" fill="#62aede"/>
    </g>
  </g>
</svg>
