<svg xmlns="http://www.w3.org/2000/svg" xmlns:xlink="http://www.w3.org/1999/xlink" width="140" height="140.001" viewBox="0 0 140 140.001">
  <defs>
    <clipPath id="clip-path">
      <circle id="楕円形_25" data-name="楕円形 25" cx="70" cy="70" r="70" transform="translate(0 -0.001)" fill="#f7f3e5"/>
    </clipPath>
  </defs>
  <g id="trouble_03" transform="translate(0 -0.476)">
    <circle id="楕円形_23" data-name="楕円形 23" cx="70" cy="70" r="70" transform="translate(0 0.477)" fill="#fff"/>
    <g id="マスクグループ_4" data-name="マスクグループ 4" transform="translate(0 0.477)" clip-path="url(#clip-path)">
      <g id="グループ_4311" data-name="グループ 4311" transform="translate(22.39 18.006)">
        <g id="グループ_4307" data-name="グループ 4307" transform="translate(13.125)">
          <path id="パス_69957" data-name="パス 69957" d="M1064.889,1955.446s7.812,2.1,12.812,15.013-4.1,43.832-4.1,43.832l-7.784,3.687Z" transform="translate(-1005.084 -1865.441)" fill="#f0ac40"/>
          <path id="パス_69958" data-name="パス 69958" d="M995.258,2047.239l-1.871-74.562.047-20.615-12.49-10.64-21.762.351-13.62,11.129,3.182,59.622-1.914,26.554Z" transform="translate(-925.991 -1856.145)" fill="#f0ac40"/>
          <path id="パス_69959" data-name="パス 69959" d="M1025.263,1840.205c2.429,1.261-2.4,3.64-3.508,3.786-2.8.364-6.873-1.75-8.643-3.919-3.486-4.281-2.776-13.933,1.134-17.631a10.619,10.619,0,0,1,7.656-3.108,3.228,3.228,0,0,1,2.822,4.2c2.837-3.9,6.937-.951,7.9.586,1.142,1.817,1.645,5.78-1.178,6.3,1.7.153,2.01,3.2,1.788,4.53-.6,3.622-4.648,5.156-7.778,5.5C1025.448,1840.481,1025.239,1840.191,1025.263,1840.205Z" transform="translate(-969.275 -1775.216)" fill="#d1684e"/>
          <path id="パス_69960" data-name="パス 69960" d="M980.665,1743.917c.267,11.621-9.137,24-9.137,24l-22.939,4.032s-11.811-7.477-13.429-17.506a59.207,59.207,0,0,1-.869-9.809,19.251,19.251,0,0,1,1.865-9.039c3.135-5.592,8.892-8.78,13.566-10.539a40.721,40.721,0,0,1,5.37-1.576c1.182-.266,1.915-.351,1.915-.351l.111,0,4.931.369a19.527,19.527,0,0,1,1.984.606C968.9,1725.812,980.331,1729.431,980.665,1743.917Z" transform="translate(-918.519 -1711.454)" fill="#d1684e"/>
          <path id="パス_69961" data-name="パス 69961" d="M985.843,1786.846a19.537,19.537,0,1,1-22.976-14.681A19.283,19.283,0,0,1,985.843,1786.846Z" transform="translate(-927.077 -1743.678)" fill="#edbf98"/>
          <path id="パス_69962" data-name="パス 69962" d="M1064.869,1801.462a6.185,6.185,0,1,1-7.312-4.812A6.19,6.19,0,0,1,1064.869,1801.462Z" transform="translate(-996.954 -1760.1)" fill="#edbf98"/>
          <path id="パス_69963" data-name="パス 69963" d="M942.58,1762.266a35.527,35.527,0,0,0-.3,6.362c.069,1.21-.11,4.144.937,4.953.929-1.909,1.048-4.186,2.2-6.045a51.325,51.325,0,0,1,5.117-7.064,11.208,11.208,0,0,1-.189,3.947c2.5-1.667,4.619-4.8,6.258-7.264,2.414,2.583,6.529,3.93,9.664,5.21,2.749,1.122,6.872,2.937,9.873,2.859-1.521-2.263-3.676-4.148-4.52-6.855,2.245,1.817,3.807,4.563,6.138,6.44,2.049,1.654,3.805,3.286,6.31,3.989,1.271-4.689,2.195-8.925.285-13.818a22.156,22.156,0,0,0-7.394-9.042c-2.977-2.271-6.637-3.07-10.282-3.263-1.2-.065-2.8.585-4,.176a5.828,5.828,0,0,0-3.192-.149c-5.453,1.056-9.951,4.411-13.357,8.833C943.658,1754.733,943.086,1758.193,942.58,1762.266Z" transform="translate(-923.789 -1724.327)" fill="#d1684e"/>
          <path id="パス_69964" data-name="パス 69964" d="M974.35,1814.344a1.961,1.961,0,0,1-.48,2.618,1.722,1.722,0,0,1-2.456-.579,1.954,1.954,0,0,1,.489-2.616A1.719,1.719,0,0,1,974.35,1814.344Z" transform="translate(-942.929 -1771.336)" fill="#0d0002"/>
          <path id="パス_69965" data-name="パス 69965" d="M1015.43,1806.823a1.962,1.962,0,0,1-.482,2.619,1.726,1.726,0,0,1-2.458-.579,1.961,1.961,0,0,1,.49-2.617A1.722,1.722,0,0,1,1015.43,1806.823Z" transform="translate(-970.157 -1766.351)" fill="#0d0002"/>
          <path id="パス_69966" data-name="パス 69966" d="M999.557,1822.952a.461.461,0,0,1-.354-.082c-.195-.142-.407-.271-.613-.4a2.812,2.812,0,0,1-1.634-1.969,18.478,18.478,0,0,1,.491-4.071c.144-.816.28-1.585.3-1.918a.459.459,0,1,1,.915.062c-.026.382-.16,1.138-.314,2.016a21.862,21.862,0,0,0-.488,3.772c.1.623.5.894,1.2,1.322.222.135.453.275.679.441a.459.459,0,0,1,.1.642A.453.453,0,0,1,999.557,1822.952Z" transform="translate(-960.042 -1771.744)" fill="#0d0002"/>
          <path id="パス_69967" data-name="パス 69967" d="M981.195,1721.442l-.508,5.289c-.457-.819-.98-1.629-1.435-2.312a59.089,59.089,0,0,0-4.335-6.01c-3.376-4.136-7.54-8.237-12.763-10.077-8.4-2.953-16.839,2.4-21.427,9.315a22.822,22.822,0,0,0-2.312,4.453,49.8,49.8,0,0,0-2.3,7.267c-.161.69-.3,1.4-.427,2.124a42.192,42.192,0,0,1-.6-8.325c.656-1.6,2.661-8.162,7.461-12.742a25.922,25.922,0,0,1,6.057-4.188c1.386-.719,4.292-1.8,5.865-1.273a9.594,9.594,0,0,1-4.222-2.858c-.072-.031-.105-.093-.159-.147-2.675-3.075-3.838-7.616-2.4-11.292,2.667,1.448,5.223,4.831,6.786,7.361a12.7,12.7,0,0,1,1.037,2.167,2.07,2.07,0,0,1,.106.335,40.673,40.673,0,0,0,1.743,4.719,16.058,16.058,0,0,1,.283-5.066,15.005,15.005,0,0,1,.717-2.447c1.344-3.481,8.31-8.962,8.31-8.962s1.178-2.217,1.119,6.115a7.7,7.7,0,0,1-1.653,4.55,11.475,11.475,0,0,1-1.578,1.719,21.114,21.114,0,0,1-5.339,3.421c5.946-2.144,12.526,3.738,15.978,7.682A42.8,42.8,0,0,1,981.195,1721.442Z" transform="translate(-919.046 -1688.503)" fill="#4a98d4"/>
          <path id="パス_69968" data-name="パス 69968" d="M999.217,1895.361l11.016-.227s-.7-.248-3.572-2.955-4.23-21.811-4.23-21.811h-3.549v.037l0-.037H995.33s-1.354,19.106-4.227,21.811l-2.875,2.707,10.317.475v.033l.337-.017.335.017Z" transform="translate(-954.271 -1809.049)" fill="#edbf98"/>
          <path id="パス_69969" data-name="パス 69969" d="M998.466,1766.1a.548.548,0,0,1-.372-.062,7.565,7.565,0,0,1-1.15-.8.56.56,0,0,1,.717-.861,6.554,6.554,0,0,0,.978.685.56.56,0,0,1-.173,1.04Zm-3.294-3.1a.559.559,0,0,1-.533-.2l-.459-.565-.362-.451a.56.56,0,1,1,.875-.7l.359.446c.144.18.3.366.453.559a.56.56,0,0,1-.079.788A.568.568,0,0,1,995.172,1763Zm-2.693-3.66a.56.56,0,0,1-.578-.258c-.238-.387-.46-.779-.661-1.163a.56.56,0,1,1,.992-.519c.19.361.4.73.623,1.1a.561.561,0,0,1-.376.844Zm-1.843-4.14a.561.561,0,0,1-.641-.4c-.1-.358-.179-.719-.245-1.076-.016-.084-.03-.167-.043-.25a.56.56,0,0,1,.451-.641l.011,0a.561.561,0,0,1,.643.463c.012.077.025.153.039.229.06.325.135.656.224.984a.558.558,0,0,1-.393.686Z" transform="translate(-955.247 -1731.134)" fill="#ef7b30"/>
          <path id="パス_69970" data-name="パス 69970" d="M1022.485,1771.49a.556.556,0,0,1-.369-.058c-.082-.045-.162-.092-.241-.141a.56.56,0,0,1,.59-.952c.061.039.123.074.186.108a.56.56,0,0,1-.166,1.043Zm-2.314-2.556a.557.557,0,0,1-.587-.274c-.206-.362-.4-.734-.589-1.1l-.034-.064a.56.56,0,0,1,.994-.517l.034.065c.183.355.369.713.567,1.064a.56.56,0,0,1-.209.763A.554.554,0,0,1,1020.171,1768.935Zm-2.215-3.97a.562.562,0,0,1-.583-.266c-.218-.37-.438-.739-.663-1.1a.56.56,0,0,1,.953-.588c.229.372.453.748.675,1.123a.56.56,0,0,1-.2.767A.581.581,0,0,1,1017.956,1764.965Zm-2.515-3.8a.544.544,0,0,1-.512-.179c-.008-.009-.03-.036-.037-.046-.257-.327-.521-.658-.785-.983a.56.56,0,1,1,.868-.707c.269.33.536.666.805,1.009a.564.564,0,0,1-.339.906Zm-2.932-3.46a.554.554,0,0,1-.508-.167q-.439-.465-.893-.912a.56.56,0,1,1,.785-.8q.47.461.924.945a.558.558,0,0,1-.024.791A.541.541,0,0,1,1012.509,1757.709Zm-3.349-3.067a.555.555,0,0,1-.444-.108c-.336-.26-.68-.514-1.022-.754a.56.56,0,0,1,.64-.918c.358.25.718.515,1.069.788a.559.559,0,0,1,.1.786A.551.551,0,0,1,1009.16,1754.643Z" transform="translate(-967.015 -1731.096)" fill="#ef7b30"/>
          <path id="パス_69971" data-name="パス 69971" d="M947.945,1785.871l-.052.008a.561.561,0,0,1-.607-.509,13.036,13.036,0,0,1-.045-1.355.56.56,0,1,1,1.119.015,12.018,12.018,0,0,0,.042,1.241A.56.56,0,0,1,947.945,1785.871Zm.288-4.527a.59.59,0,0,1-.2,0,.56.56,0,0,1-.453-.649c.076-.425.165-.862.263-1.3a.56.56,0,1,1,1.092.246c-.095.421-.18.842-.253,1.249A.56.56,0,0,1,948.233,1781.344Zm1.13-4.4a.559.559,0,0,1-.631-.727c.138-.417.284-.834.438-1.245a.559.559,0,1,1,1.048.39c-.148.4-.288.8-.424,1.207A.557.557,0,0,1,949.363,1776.941Zm1.7-4.216a.55.55,0,0,1-.344-.047.558.558,0,0,1-.26-.746c.195-.4.4-.8.6-1.181a.56.56,0,1,1,.986.531c-.2.367-.393.749-.58,1.136A.562.562,0,0,1,951.065,1772.725Zm2.326-3.9a.559.559,0,0,1-.548-.888c.29-.381.582-.732.869-1.041a.56.56,0,0,1,.821.763,11.859,11.859,0,0,0-.8.953A.549.549,0,0,1,953.391,1768.822Z" transform="translate(-927.102 -1740.344)" fill="#ef7b30"/>
          <path id="パス_69972" data-name="パス 69972" d="M1036.876,1818.553a2.241,2.241,0,1,1-2.608-1.8A2.241,2.241,0,0,1,1036.876,1818.553Z" transform="translate(-983.57 -1773.487)" fill="#e9706e"/>
          <path id="パス_69973" data-name="パス 69973" d="M958.666,1832.873a2.239,2.239,0,1,1-2.606-1.8A2.238,2.238,0,0,1,958.666,1832.873Z" transform="translate(-931.732 -1782.979)" fill="#e9706e"/>
          <path id="パス_69974" data-name="パス 69974" d="M1035.023,1821.336a.43.43,0,0,1-.307-.059c-.529-.338-1.743-1.186-1.6-1.777a.709.709,0,0,1,.334-.448,3.444,3.444,0,0,1,2.33.127l.146.037.11.023c-.024-.02-.047-.044-.073-.068-.055-.049-.115-.106-.179-.168-.329-.311-1.009-.957-1.383-.889l-.023.005a.429.429,0,0,1-.169-.842c.821-.168,1.628.593,2.167,1.1l.168.158c.432.4.871.857.636,1.3s-.871.344-1.449.21l-.167-.043a6.586,6.586,0,0,0-1.419-.257,8.972,8.972,0,0,0,1.027.8.429.429,0,0,1,.133.593A.435.435,0,0,1,1035.023,1821.336Z" transform="translate(-984.018 -1773.843)" fill="#e55a65"/>
          <path id="パス_69975" data-name="パス 69975" d="M957.36,1835.551a.426.426,0,0,1-.305-.061c-.413-.258-1.749-1.154-1.605-1.772a.715.715,0,0,1,.338-.453,3.438,3.438,0,0,1,2.325.125l.151.039.108.024-.072-.066-.174-.164c-.332-.316-1.016-.97-1.4-.893a.429.429,0,0,1-.182-.839c.812-.178,1.633.6,2.172,1.111l.161.153c.432.4.873.855.638,1.3s-.872.342-1.449.208l-.171-.043a6.477,6.477,0,0,0-1.414-.257,8.7,8.7,0,0,0,1.028.8.431.431,0,0,1-.151.786Z" transform="translate(-932.538 -1783.262)" fill="#e55a65"/>
          <path id="パス_69976" data-name="パス 69976" d="M1016.042,1881.361l-4.547.832a.56.56,0,0,1-.2-1.1l4.547-.832a.56.56,0,0,1,.2,1.1Z" transform="translate(-969.255 -1815.599)" fill="#d77d75"/>
          <path id="パス_69977" data-name="パス 69977" d="M899.917,2164.472c0,3.985-2.72,19.177-6.109,19.177a6.311,6.311,0,0,1-6.291-6.616c0-3.983,2.748-7.216,6.137-7.216S899.917,2160.487,899.917,2164.472Z" transform="translate(-887.517 -2003.334)" fill="#ed8981"/>
          <path id="パス_69978" data-name="パス 69978" d="M917.151,1958.182s-5.653.823-12.395,12.92-13.783,57.658-13.783,57.658l11.08,3.5Z" transform="translate(-889.808 -1867.254)" fill="#f0ac40"/>
          <g id="グループ_4306" data-name="グループ 4306" transform="translate(45.382 143.879)">
            <path id="パス_69981" data-name="パス 69981" d="M1029.686,2154.608l15.976-35.229-12.458-4.152-11.089,36.259Z" transform="translate(-1022.114 -2115.228)" fill="#ed8981"/>
          </g>
          <path id="パス_69986" data-name="パス 69986" d="M1050.52,2030.516a.594.594,0,0,1-.075,0,.682.682,0,0,1-.6-.753l4.1-37.277a.683.683,0,0,1,1.357.148l-4.1,37.278A.683.683,0,0,1,1050.52,2030.516Z" transform="translate(-995.107 -1889.585)" fill="#e6812d"/>
        </g>
        <path id="パス_69987" data-name="パス 69987" d="M1122.839,1739.145c-1.971-.077-3.739-.726-4.433-1.728a1.835,1.835,0,0,1-.075-2.017.781.781,0,0,1,1.358.773.276.276,0,0,0,0,.354c.44.637,2.555,1.327,4.866.96,1.2-.19,3.3-.82,3.92-2.9a6.1,6.1,0,0,0-.7-4.082,16.81,16.81,0,0,1-6.663-3.244.78.78,0,0,1-.021-1.191,3.783,3.783,0,0,1,4.8-.155,9.618,9.618,0,0,1,2.915,3.223,8.574,8.574,0,0,0,4.54-.317,5.527,5.527,0,0,0,2.541-1.959c-4.963-.867-15.578-4.756-19.255-10.372a7.232,7.232,0,0,1-1.119-5.994c.991-3.752,3.852-5.433,7.848-4.614,3.434.7,7.548,3.258,10.736,6.663,3.464,3.7,5.183,7.64,4.716,10.81a11.908,11.908,0,0,1-.543,2.242c7.176.674,15.529-1.048,18.488-6.637,3.3-6.234-.445-13.719-2.973-17.626a45.566,45.566,0,0,0-12.08-12.328c-4.836-3.314-9.526-5.007-13.2-4.77a.781.781,0,1,1-.1-1.559c4.025-.261,9.063,1.529,14.186,5.04a47.178,47.178,0,0,1,12.509,12.768c4.686,7.243,5.766,14.063,3.042,19.206-3.394,6.408-11.924,7.816-18.283,7.568-.8-.031-1.556-.088-2.27-.164a7.164,7.164,0,0,1-3.677,3.182,9.538,9.538,0,0,1-4.31.521,6.786,6.786,0,0,1,.375,4.235c-.632,2.117-2.517,3.573-5.172,4A10.027,10.027,0,0,1,1122.839,1739.145Zm.2-12.395a15.6,15.6,0,0,0,3.441,1.763,6.6,6.6,0,0,0-1.433-1.283A2.592,2.592,0,0,0,1123.041,1726.75Zm-1.356-19.511c-2.429-.1-3.994,1.13-4.662,3.656a5.658,5.658,0,0,0,.917,4.74c3.568,5.451,14.55,9.126,18.529,9.74l.207.031a10.085,10.085,0,0,0,.592-2.278c.866-5.879-7.737-14.387-14.221-15.716A8.447,8.447,0,0,0,1121.685,1707.239Z" transform="translate(-1028.034 -1679.23)" fill="#0d0002"/>
        <path id="パス_69988" data-name="パス 69988" d="M1006.02,1786.339a4.049,4.049,0,0,1-1.978-2.188.625.625,0,1,1,1.156-.476,2.674,2.674,0,0,0,2.711,1.8,2.287,2.287,0,0,1-.11-2.222c.254-.424.92-1.078,2.521-.695,1.437.343,1.633,1.132,1.622,1.573a2.608,2.608,0,0,1-1.637,1.975,6.681,6.681,0,0,0,2.779.326,11.077,11.077,0,0,1,1.891.075.625.625,0,0,1-.2,1.235,9.994,9.994,0,0,0-1.673-.06c-1.43.023-3.033.049-4.286-1.055l-.067.012A4.392,4.392,0,0,1,1006.02,1786.339Zm4.442-2.419a2.112,2.112,0,0,0-.433-.145c-.585-.14-1.028-.094-1.157.121a1.412,1.412,0,0,0,.348,1.325c.919-.334,1.465-.895,1.472-1.122C1010.692,1784.082,1010.643,1784.006,1010.462,1783.919Z" transform="translate(-951.598 -1750.769)" fill="#0d0002"/>
        <path id="パス_69989" data-name="パス 69989" d="M1008.948,1856.473a.977.977,0,1,1-.947-1.217A1.108,1.108,0,0,1,1008.948,1856.473Z" transform="translate(-953.625 -1799.032)" fill="#c1143a"/>
        <g id="グループ_4308" data-name="グループ 4308" transform="translate(1.655 61.678)">
          <path id="パス_69990" data-name="パス 69990" d="M876.323,1873.682s-24.648,4.774-19.985,8.633C860.139,1885.46,876.323,1873.682,876.323,1873.682Z" transform="translate(-854.991 -1872.923)" fill="#fff"/>
          <path id="パス_69991" data-name="パス 69991" d="M856.657,1882.116h0a3.508,3.508,0,0,1-2.3-.708,1.928,1.928,0,0,1-.806-2.042c.291-1.138,1.762-2.953,11.142-5.56,4.993-1.388,9.938-2.35,9.988-2.36a.758.758,0,0,1,.591,1.358C874.754,1873.184,862.416,1882.116,856.657,1882.116Zm14.629-8.41c-8.182,1.828-15.831,4.351-16.261,6.036-.013.05-.052.2.3.5a2.064,2.064,0,0,0,1.329.36C860.281,1880.6,867.25,1876.372,871.286,1873.705Z" transform="translate(-853.498 -1871.432)" fill="#0d0002"/>
        </g>
        <g id="グループ_4309" data-name="グループ 4309" transform="translate(0 72.571)">
          <path id="パス_69992" data-name="パス 69992" d="M866.92,1905.989s-20.854,13.974-15.06,15.718C856.585,1923.131,866.92,1905.989,866.92,1905.989Z" transform="translate(-850.083 -1905.23)" fill="#fff"/>
          <path id="パス_69993" data-name="パス 69993" d="M850.958,1921.059h0a2.813,2.813,0,0,1-.81-.116,1.926,1.926,0,0,1-1.535-1.568c-.174-1.161.476-3.4,8.106-9.451,4.061-3.219,8.244-6.027,8.286-6.056a.758.758,0,0,1,1.072,1.021C865.079,1906.545,856.177,1921.059,850.958,1921.059Zm11.825-13.812c-6.842,4.87-12.929,10.181-12.67,11.9.007.052.031.208.472.341a1.282,1.282,0,0,0,.373.052C853.71,1919.543,859.017,1912.908,862.783,1907.246Z" transform="translate(-848.59 -1903.74)" fill="#0d0002"/>
        </g>
        <g id="グループ_4310" data-name="グループ 4310" transform="translate(13.84 75.136)">
          <path id="パス_69994" data-name="パス 69994" d="M907.967,1913.594s-20.855,13.975-15.06,15.721C897.631,1930.738,907.967,1913.594,907.967,1913.594Z" transform="translate(-891.13 -1912.836)" fill="#fff"/>
          <path id="パス_69995" data-name="パス 69995" d="M892,1928.667h0a2.8,2.8,0,0,1-.809-.116,1.927,1.927,0,0,1-1.535-1.569c-.174-1.162.477-3.406,8.107-9.453,4.061-3.218,8.243-6.027,8.285-6.055a.758.758,0,0,1,1.072,1.021C906.125,1914.151,897.223,1928.667,892,1928.667Zm11.825-13.814c-6.841,4.87-12.929,10.182-12.67,11.9.008.051.031.208.473.342a1.274,1.274,0,0,0,.371.052C894.755,1927.151,900.062,1920.516,903.83,1914.853Z" transform="translate(-889.637 -1911.346)" fill="#0d0002"/>
        </g>
        <path id="パス_69996" data-name="パス 69996" d="M1046.208,1822.909s1.655,17.494-1.856,15.124C1041.49,1836.1,1046.208,1822.909,1046.208,1822.909Z" transform="translate(-977.736 -1777.591)" fill="#fff"/>
      </g>
    </g>
  </g>
</svg>
