<svg xmlns="http://www.w3.org/2000/svg" xmlns:xlink="http://www.w3.org/1999/xlink" width="140" height="140" viewBox="0 0 140 140">
  <defs>
    <clipPath id="clip-path">
      <circle id="楕円形_25" data-name="楕円形 25" cx="70" cy="70" r="70" transform="translate(0 0.477)" fill="#f7f3e5"/>
    </clipPath>
  </defs>
  <g id="trouble_01" transform="translate(0 -0.477)">
    <circle id="楕円形_23" data-name="楕円形 23" cx="70" cy="70" r="70" transform="translate(0 0.477)" fill="#fff"/>
    <g id="マスクグループ_4" data-name="マスクグループ 4" clip-path="url(#clip-path)">
      <g id="グループ_4667" data-name="グループ 4667" transform="translate(-786.045 -468.309)">
        <g id="グループ_4661" data-name="グループ 4661" transform="translate(799.211 489.625)">
          <g id="グループ_4660" data-name="グループ 4660">
            <g id="グループ_4656" data-name="グループ 4656" transform="translate(33.256)">
              <g id="グループ_4655" data-name="グループ 4655">
                <path id="パス_71365" data-name="パス 71365" d="M1007.1,686.551c.925,11.194,1.6,20.143,1.6,20.143l-11.763.005-3.942-18.415Z" transform="translate(-924.21 -586.198)" fill="#fa7c75"/>
                <path id="パス_71366" data-name="パス 71366" d="M867.405,686.561c-.925,11.194-1.753,20.135-1.753,20.135l11.633-.042,4.226-18.359Z" transform="translate(-863.923 -586.203)" fill="#fa7c75"/>
                <path id="パス_71367" data-name="パス 71367" d="M931.711,518.677c-.625-2.945-2.686-5.251-4.359-7.623-.544-.77-.936-1.633-1.439-2.438a9.237,9.237,0,0,1-1.208-2.41,6.619,6.619,0,0,1-.19-1.949,9.235,9.235,0,0,1,1.105-4.232,6.464,6.464,0,0,1,3.168-2.874,16.743,16.743,0,0,1,3.058-.9,18.25,18.25,0,0,1,10.615,1.3,10.6,10.6,0,0,1,5.3,4.563c.942,1.72.562,2.521.9,3.393.682,1.745,2.562,2.43,3.285,4.133a6.814,6.814,0,0,1,.673,3.951c-.234,1.174-1.018,2.126-1.136,3.337-.18,1.841.916,3.31,1.046,5.069a5.132,5.132,0,0,1-.554,2.71c-.465.9-1.315,1.355-1.847,2.166-.4.617-.108,1.015.148,1.577a2.806,2.806,0,0,1-1,3.436,4.339,4.339,0,0,1-1.77.8,7.129,7.129,0,0,0-2.04.382,1.02,1.02,0,0,0-.535,1.229c.121.262.381.42.561.642s.252.608.016.766c-.1.064-.223.034-.33.075a3.684,3.684,0,0,1-4.014-.558c-.6-.641-.89-2.022-1.419-2.724-2.019-2.679-7.233-1.206-8.411-4.834a6.261,6.261,0,0,1,.128-3.148A14.459,14.459,0,0,0,931.711,518.677Z" transform="translate(-891.788 -495.972)" fill="#211919"/>
                <path id="パス_71368" data-name="パス 71368" d="M947.534,597.845s-2.879,56.376-3.009,61.254l-47.64-.041-2.547-65.641,14.97-6.856,20.182-.429c1.031-.706,14.1,5.041,14.1,5.041Z" transform="translate(-877.504 -538.628)" fill="#7a94b0"/>
                <path id="パス_71369" data-name="パス 71369" d="M881.78,647.236l.1-13.759s-1.768-26.5-1.859-34.114c0,0-7.139,2.514-9.151,8.417-3.051,8.947-5.776,22.57-8.5,37.1Z" transform="translate(-862.368 -544.921)" fill="#7a94b0"/>
                <path id="パス_71370" data-name="パス 71370" d="M989.371,645.41l-.831-13.7s-1.063-28.468-.972-36.079c0,0,9.939,4.377,11.952,10.28,3.051,8.947,5.806,22.672,8.531,37.2Z" transform="translate(-921.639 -543.154)" fill="#7a94b0"/>
                <path id="パス_71371" data-name="パス 71371" d="M931.746,510.305c-2.045-1.317-3.942-2.942-6.212-3.848a9.884,9.884,0,0,0-8.348.474,5.445,5.445,0,0,0-1.9,1.963,11.177,11.177,0,0,0-1.048,4.916c-.261,4.77-.589,9.537-.818,14.308-.119,2.419-.21,4.839-.253,7.26-.038,2.123.612,3.187,1.952,4.78a16.886,16.886,0,0,0,3.149,3.2,9.245,9.245,0,0,0,4.379.974,7.976,7.976,0,0,0,3.661-.943c.972-.443,1.952-.7,2.913-1.127a14.979,14.979,0,0,0,3.956-2.523c2.925-2.659,4.108-6.581,4.54-10.456.392-3.507.565-6.685.626-9.317Z" transform="translate(-886.417 -500.606)" fill="#edbf98"/>
                <path id="パス_71372" data-name="パス 71372" d="M956.583,540.512c3.385-2.607,5.759,1.4,5.855,3.559.119,2.535-2.74,6.309-7.019,6.38a2.8,2.8,0,0,1-1.1-.206Z" transform="translate(-905.902 -516.655)" fill="#edbf98"/>
                <path id="パス_71373" data-name="パス 71373" d="M935.917,513.439a8.376,8.376,0,0,0-2.566-4.247,9.439,9.439,0,0,1-1.182-1.077,9.13,9.13,0,0,1-1.245-3.441,7.02,7.02,0,0,0-2.762-4.031,4.415,4.415,0,0,0-4.654-.19,1.329,1.329,0,0,1-.481.232c-.412.062-.737-.329-1.006-.655-1.761-2.144-4.158-2.6-6.779-1.813s-5.353,2.74-5.92,5.485a5.588,5.588,0,0,1-1.374,3.068c-1.116,1.073-2.005,1.812-1.889,3.564.068,1.037.853,1.985.823,2.991a2.4,2.4,0,0,1-2.961,2.166,2.7,2.7,0,0,0,3.779,1.651c-.631.28-.479,1.264-.254,1.932a17.763,17.763,0,0,0,1.776,2.824.338.338,0,0,0,.61-.19,9.256,9.256,0,0,1,1.278-4.838,5.606,5.606,0,0,1,.938-1.143c.385-.3.834-.511,1.208-.826,1.012-.848,1.164-2.1,1.372-3.336a4.97,4.97,0,0,1,1.459-2.9,2.2,2.2,0,0,1,2.077-.058,6.052,6.052,0,0,0,1.309.527,1.022,1.022,0,0,0,1.167-.573,6.628,6.628,0,0,0,.729,4.276,6.4,6.4,0,0,0,2.15,2.282,4.4,4.4,0,0,0,3.3.434,6.1,6.1,0,0,0,.517,4.741c.693,1.218,1.8,2.154,2.448,3.4a5.546,5.546,0,0,1,.545,3.426.378.378,0,0,0,.551.4,4.284,4.284,0,0,0,2.343-3.155,13.37,13.37,0,0,1,.166-2.391,6.855,6.855,0,0,1,1.365-2.13,7.533,7.533,0,0,0,1.111-2.665A6.762,6.762,0,0,0,935.917,513.439Z" transform="translate(-882.04 -496.863)" fill="#211919"/>
                <path id="パス_71374" data-name="パス 71374" d="M921.892,562.106l.387,5.18v.015a6.018,6.018,0,0,1-1.568,4.838l-1.053.755,11.819,8.8,11.813-9.732s-3.075-2.166-2.991-7.232c.01-.669-.087-1.27-.13-1.939l.26-7.128Z" transform="translate(-889.49 -524.229)" fill="#edbf98"/>
                <path id="パス_71375" data-name="パス 71375" d="M942.775,548.313a1.722,1.722,0,1,0,1.7-1.8A1.742,1.742,0,0,0,942.775,548.313Z" transform="translate(-900.435 -519.901)" fill="#db6b69"/>
                <path id="パス_71376" data-name="パス 71376" d="M944.726,549.89a.319.319,0,0,0,.225-.093c.272-.264,1.144-1.161.944-1.618a.548.548,0,0,0-.321-.3c-.388-.143-.968.076-1.724.449l-.118.057-.079.037c.013-.021.029-.041.044-.063l.107-.156c.2-.3.618-.914.916-.9a.338.338,0,0,0,.015-.676c-.64-.006-1.142.71-1.47,1.187l-.1.148c-.265.374-.53.8-.284,1.108s.708.13,1.124-.064c.029-.014.076-.038.133-.064a4.9,4.9,0,0,1,1.015-.411,7.009,7.009,0,0,1-.654.777.345.345,0,0,0-.014.479A.325.325,0,0,0,944.726,549.89Z" transform="translate(-900.439 -519.953)" fill="#db6b69"/>
                <path id="パス_71377" data-name="パス 71377" d="M937.751,571.773l.02,0a23.332,23.332,0,0,0,4.258-1.407c2.865-1.174,4.755-5.6,4.834-5.787a.336.336,0,0,0-.169-.437.321.321,0,0,0-.427.173c-.018.044-1.864,4.362-4.478,5.434a23.428,23.428,0,0,1-4.128,1.37.331.331,0,0,0-.264.383A.326.326,0,0,0,937.751,571.773Z" transform="translate(-897.887 -528.231)" fill="#b35d55"/>
                <path id="パス_71378" data-name="パス 71378" d="M929.912,573.923c-.178.137,1.986,2.025,1.553,2.573-.682.862-3.385.85-4.3.607-1.871-.5-1.806-2.3-.924-3.594.543.409.849,1.044,1.435,1.416a3.081,3.081,0,0,1,.633-1.457c.368.445.715.934,1.062,1.393C929.541,574.566,929.576,574.183,929.912,573.923Z" transform="translate(-892.327 -532.662)" fill="#211919"/>
                <path id="パス_71379" data-name="パス 71379" d="M919.235,541.125a1.166,1.166,0,1,0,1.165-1.2A1.181,1.181,0,0,0,919.235,541.125Z" transform="translate(-889.291 -516.783)"/>
                <path id="パス_71380" data-name="パス 71380" d="M936.487,543.565a1.191,1.191,0,1,0,1.19-1.223A1.207,1.207,0,0,0,936.487,543.565Z" transform="translate(-897.458 -517.925)"/>
                <path id="パス_71381" data-name="パス 71381" d="M928.591,548.753a.337.337,0,0,0,.321-.326.35.35,0,0,0-.289-.4l-6.186-.7c1.351-4.167,3.45-10.473,3.778-11.028a.4.4,0,0,0,.037-.463.3.3,0,0,0-.451-.092c-.1.079-.412.316-4.115,11.774a.4.4,0,0,0,.029.316.324.324,0,0,0,.242.167l6.6.747Z" transform="translate(-890.443 -514.773)"/>
                <path id="パス_71382" data-name="パス 71382" d="M935.109,534.185c-.328-.654,2.134-.18,2.779.008a15.117,15.117,0,0,1,2.436,1.088c.379.285.367.42.367.42-.026.448-.229.552-.64.4C938.537,535.533,935.2,534.363,935.109,534.185Z" transform="translate(-896.792 -513.905)" fill="#211919"/>
                <path id="パス_71383" data-name="パス 71383" d="M922.1,533.217c.4-.6-2.065-.489-2.721-.4a14.639,14.639,0,0,0-2.524.716c-.408.225-.413.361-.413.361-.033.445.154.577.575.485C918.568,534.044,921.989,533.38,922.1,533.217Z" transform="translate(-887.965 -513.383)" fill="#211919"/>
                <path id="パス_71384" data-name="パス 71384" d="M929.738,602.61a.7.7,0,0,1-.444-.157l-13.127-10.585a.708.708,0,1,1,.889-1.1l12.662,10.211,13.182-11.6a.709.709,0,0,1,.936,1.064l-13.63,11.989A.71.71,0,0,1,929.738,602.61Z" transform="translate(-887.713 -540.111)" fill="#54677a"/>
                <path id="パス_71385" data-name="パス 71385" d="M990.361,650.725h-.017a.708.708,0,0,1-.691-.725l.3-12.5c.036-1.52.41-7.61.6-9.173l2.457-18.207a.709.709,0,0,1,1.4.19l-2.456,18.2c-.18,1.484-.554,7.566-.589,9.026l-.3,12.5A.708.708,0,0,1,990.361,650.725Z" transform="translate(-922.628 -549.725)" fill="#54677a"/>
                <path id="パス_71386" data-name="パス 71386" d="M894.037,650.863a.708.708,0,0,1-.708-.682l-.373-10.321c-.028-.795-.085-1.6-.167-2.394l-2.768-26.5a.708.708,0,0,1,.631-.778.7.7,0,0,1,.778.631l2.768,26.5c.086.826.145,1.664.174,2.49l.373,10.32a.709.709,0,0,1-.682.734Z" transform="translate(-875.458 -550.042)" fill="#54677a"/>
              </g>
              <path id="パス_71387" data-name="パス 71387" d="M959.161,549.2a.259.259,0,0,1-.044-.013.291.291,0,0,1-.165-.377c.308-.789,1.915-4.737,3.349-4.912a.932.932,0,0,1,.9.46.291.291,0,1,1-.475.336c-.17-.241-.3-.224-.355-.218-.8.1-2.164,2.717-2.877,4.546A.291.291,0,0,1,959.161,549.2Z" transform="translate(-908.085 -518.66)" fill="#b35d55"/>
              <path id="パス_71388" data-name="パス 71388" d="M959.245,553.173a.291.291,0,0,1,.112-.571c.636.108,1.029-.062,1.2-.521a2.475,2.475,0,0,0-.285-1.981.291.291,0,0,1-.094-.57.52.52,0,0,1,.578.242,2.916,2.916,0,0,1,.225,2.769,1.514,1.514,0,0,1-1.725.636Z" transform="translate(-908.124 -521.319)" fill="#b35d55"/>
              <path id="パス_71389" data-name="パス 71389" d="M1019.271,673.929l-5.968.942.628,3.612,5.968-.942Z" transform="translate(-933.826 -580.223)" fill="#211919"/>
            </g>
            <g id="グループ_4659" data-name="グループ 4659" transform="translate(0 23.212)">
              <path id="パス_71390" data-name="パス 71390" d="M872.848,585.784a.389.389,0,0,1-.027-.777,4.25,4.25,0,0,0,3.339-2.679,9.74,9.74,0,0,0,.458-4.665,24,24,0,0,0-1.959-7.368c-.07-.157-.142-.315-.215-.474a8.2,8.2,0,0,1-1.01-3.536.39.39,0,0,1,.389-.381h.008a.39.39,0,0,1,.381.4,7.618,7.618,0,0,0,.939,3.2c.073.161.146.321.218.48a24.794,24.794,0,0,1,2.023,7.607,10.456,10.456,0,0,1-.516,5.046,4.94,4.94,0,0,1-4,3.151Z" transform="translate(-833.889 -552.292)" fill="#362028"/>
              <path id="パス_71391" data-name="パス 71391" d="M826.194,630.8a6.155,6.155,0,0,1-3.24.761,7.47,7.47,0,0,1-2.145-.475,8.76,8.76,0,0,1-4.555-3.606,6.381,6.381,0,0,1-.5-5.684c1.456-3.382,5.92-4.676,7.377-8.058a18.938,18.938,0,0,0,.806-3.141,13.244,13.244,0,0,1,.928-2.624c.614-1.286,1.626-2.589,3.045-2.716,1.7-.152,2.507,1.48,3.225,2.722a5.641,5.641,0,0,1,.736,4.727c-.323.919-.9,1.731-1.251,2.638a11.677,11.677,0,0,0-.614,3.31,12.216,12.216,0,0,0,.1,3.847,8.105,8.105,0,0,1-1.794,6.562A7.123,7.123,0,0,1,826.194,630.8Z" transform="translate(-806.828 -570.916)" fill="#362028"/>
              <g id="グループ_4658" data-name="グループ 4658">
                <g id="グループ_4657" data-name="グループ 4657">
                  <path id="パス_71392" data-name="パス 71392" d="M869.052,640.032s5.447.845,7.6,4.179c3.049,4.726,10.989,25.447,14.005,33.443a6.5,6.5,0,0,1-.707,5.947l-1.139,1.676-9.589.055s-10.832-23.836-10.832-24.31S869.052,640.032,869.052,640.032Z" transform="translate(-831.961 -587.386)" fill="#5d5f30"/>
                  <path id="パス_71393" data-name="パス 71393" d="M842.493,638.694s3.324.949,3.324,1.234c0,1.045,5.983,16.905,5.888,19.565s-.57,25.073-.57,25.073l-33.431-.095s.765-33.652.285-35.33a37.7,37.7,0,0,0-2.28-6.743c-.392-.783,8.833-3.989,8.833-3.989Z" transform="translate(-807.016 -586.618)" fill="#5d5f30"/>
                  <path id="パス_71394" data-name="パス 71394" d="M837.808,574.8q2.16-1.38,4.406-2.619c2.078-1.147,4.4-2.265,5.923-4.151,1.472-1.823,2.189-5.229,2.365-7.533.391-5.108-2.352-11.591-6.067-15.12a19.505,19.505,0,0,0-2.95-2.215,20.849,20.849,0,0,0-5.5-2.69,9.143,9.143,0,0,0-6.021.186c-.411.174-1.241.5-1.241.5s-1.073.1-1.613.128c-3.73.2-6.166,3.26-7.832,6.287-1.837,3.338-2.882,7.033-4.195,10.6-2.528,6.866.886,10.849.886,10.849a10.081,10.081,0,0,0,.488,3.089c2.208,4.9,8.025,8.309,13.26,6.236.763-.3,1.48-.728,2.265-.971.7-.216,1.44-.164,2.127-.389A17.784,17.784,0,0,0,837.808,574.8Z" transform="translate(-806.286 -540.053)" fill="#362028"/>
                  <path id="パス_71395" data-name="パス 71395" d="M822.282,576.018a.2.2,0,0,1-.2-.179c-.035-.362-.085-.743-.16-1.171v-.031a.192.192,0,0,1,.163-.2.2.2,0,0,1,.23.156l0,0v.02c.074.432.124.82.159,1.182a.188.188,0,0,1-.043.144.194.194,0,0,1-.136.074Zm-.381-2.361a.2.2,0,0,1-.2-.16c-.027-.14-.054-.276-.085-.416-.051-.252-.1-.506-.152-.758a.118.118,0,0,1,0-.038.2.2,0,0,1,.393-.039c.055.268.109.54.167.8.023.125.046.245.074.366a.205.205,0,0,1-.155.237A.123.123,0,0,1,821.9,573.657Zm-.451-2.35h0a.2.2,0,0,1-.2-.171c-.062-.393-.116-.8-.159-1.194v-.019a.189.189,0,0,1,.175-.2.2.2,0,0,1,.222.175c.043.393.093.786.155,1.178a.2.2,0,0,1-.167.225A.071.071,0,0,1,821.449,571.308Zm-.264-2.38a.2.2,0,0,1-.2-.187c-.023-.4-.043-.809-.047-1.2a.2.2,0,0,1,.055-.144.191.191,0,0,1,.14-.058h0a.2.2,0,0,1,.2.194c.008.389.023.789.051,1.186a.211.211,0,0,1-.051.144.209.209,0,0,1-.136.066Zm-.043-2.392h-.007a.187.187,0,0,1-.136-.062.212.212,0,0,1-.054-.14c.012-.4.031-.805.058-1.205a.2.2,0,0,1,.4.019v.007c-.027.4-.047.8-.058,1.186A.2.2,0,0,1,821.142,566.536Zm.171-2.384a.053.053,0,0,1-.023,0,.2.2,0,0,1-.175-.218c.047-.4.1-.8.163-1.194a.2.2,0,0,1,.4.031.086.086,0,0,1,0,.031c-.062.389-.117.786-.159,1.175A.2.2,0,0,1,821.313,564.152Zm.378-2.365a.126.126,0,0,1-.039,0,.185.185,0,0,1-.129-.086.2.2,0,0,1-.027-.147c.077-.389.167-.786.264-1.175a.2.2,0,0,1,.245-.144.193.193,0,0,1,.148.191.251.251,0,0,1,0,.051c-.1.377-.183.766-.265,1.155A.2.2,0,0,1,821.691,561.788Zm.579-2.318a.215.215,0,0,1-.054-.008.2.2,0,0,1-.136-.248c.116-.389.241-.774.369-1.147a.2.2,0,0,1,.253-.124.207.207,0,0,1,.136.186.209.209,0,0,1-.012.066c-.128.373-.253.755-.366,1.132A.2.2,0,0,1,822.27,559.47Zm.782-2.263a.239.239,0,0,1-.074-.012.186.186,0,0,1-.109-.108.183.183,0,0,1,0-.152c.152-.377.307-.751.466-1.108l0,0a.2.2,0,0,1,.261-.1.2.2,0,0,1,.121.183.179.179,0,0,1-.02.078c-.16.362-.315.731-.459,1.1A.2.2,0,0,1,823.052,557.206Zm.976-2.182a.18.18,0,0,1-.089-.024.2.2,0,0,1-.1-.113.213.213,0,0,1,.012-.155c.183-.358.37-.716.568-1.062a.2.2,0,0,1,.268-.078.185.185,0,0,1,.1.175.217.217,0,0,1-.023.1c-.191.338-.378.692-.557,1.046A.2.2,0,0,1,824.028,555.025Zm1.166-2.089a.205.205,0,0,1-.1-.031.2.2,0,0,1-.062-.272c.206-.334.428-.673.657-1.011l0,0a.2.2,0,0,1,.362.117.186.186,0,0,1-.035.113c-.225.327-.443.661-.65,1A.2.2,0,0,1,825.194,552.936Zm1.354-1.971a.2.2,0,0,1-.121-.043.2.2,0,0,1-.039-.28l.054-.07c.245-.319.474-.607.7-.871a.206.206,0,0,1,.284-.023.194.194,0,0,1,.019.28c-.222.264-.447.544-.684.856l-.054.07A.2.2,0,0,1,826.548,550.965Zm1.556-1.817a.217.217,0,0,1-.14-.058.2.2,0,0,1-.058-.144.2.2,0,0,1,.058-.14,10.918,10.918,0,0,1,.906-.812s0,0,0,0a.206.206,0,0,1,.276.035.2.2,0,0,1-.031.28,11.16,11.16,0,0,0-.875.786A.2.2,0,0,1,828.1,549.148Z" transform="translate(-809.498 -543.792)" fill="#27171d"/>
                  <path id="パス_71396" data-name="パス 71396" d="M843.412,627.1a4.2,4.2,0,0,1-1.531.137c-2.263-.22-8.912-4.378-10.267-5.22a.309.309,0,0,1-.007-.521,12.728,12.728,0,0,0,2.667-1.955c2.247-2.155.6-16.827.6-16.827l5.8.92v.027l0-.027,5.013.318s-1.7,13.446.648,15.131c2.142,1.536,3.224,2.3,3.675,2.611a.3.3,0,0,1,.058.438C849.177,622.917,844.934,626.685,843.412,627.1Z" transform="translate(-814.482 -569.72)" fill="#edbf98"/>
                  <path id="パス_71397" data-name="パス 71397" d="M809.586,643.806s-4.284-.614-6.335,8.361c-1.52,6.648-4.04,34.856-4.04,34.856h11.828l1.8-32.2Z" transform="translate(-799.211 -589.169)" fill="#5d5f30"/>
                  <path id="パス_71398" data-name="パス 71398" d="M827.9,573.954c-.169,7.483,7.9,13.382,15.533,14.3,4.648.561,9.54-3.51,10.983-12.405.3-1.823.573-9.737,0-11.434-1.752-5.186-6.881-6.744-12.672-6.873C834.062,557.365,828.068,566.467,827.9,573.954Z" transform="translate(-812.793 -548.332)" fill="#edbf98"/>
                  <path id="パス_71399" data-name="パス 71399" d="M820.085,587.311c-.056,2.432,4.369,6.242,6.805,6.3s.911-3.163.965-5.6a4.4,4.4,0,0,0-4.306-4.5C821.113,583.456,820.138,584.868,820.085,587.311Z" transform="translate(-809.093 -560.627)" fill="#edbf98"/>
                  <path id="パス_71400" data-name="パス 71400" d="M826.917,561.468c-.065.179-.136.355-.215.527a4.039,4.039,0,0,0-.6,2.437,1.508,1.508,0,0,0,.471,1.056,2.324,2.324,0,0,0,.734.307,3.568,3.568,0,0,1,2.179,2.031.851.851,0,0,0,.794.509c.36-.052.566-.427.716-.758.6-1.325,1.373-2.509,1.893-3.861s1-2.7,1.56-4.025a17.88,17.88,0,0,1,4.669-7.077,1.9,1.9,0,0,1,1.683-.568c1.072-.019,8.21,3.17,9.916,6.015a34.393,34.393,0,0,1,2.237,4.118c.554,1.311.685,5.565.891,7.01.092-.048.689-3.018.771-3.079a4.56,4.56,0,0,0,1.374-2.994c.834-5.921-3.57-11.371-7.993-14.772-1.98-1.523-4.436-2.786-6.89-2.314a6.951,6.951,0,0,1-1.075.186c-.342.011-.682-.061-1.025-.068-1.565-.036-2.937,1.339-4.227,2.073-1.6.912-2.539,2.736-3.571,4.2a29.335,29.335,0,0,0-3.47,6.319C827.408,559.622,827.237,560.584,826.917,561.468Z" transform="translate(-811.932 -542.836)" fill="#362028"/>
                  <path id="パス_71401" data-name="パス 71401" d="M867.516,583.1a1.4,1.4,0,0,0,.672,1.773,1.228,1.228,0,0,0,1.648-.721,1.4,1.4,0,0,0-.68-1.772A1.225,1.225,0,0,0,867.516,583.1Z" transform="translate(-831.503 -560.042)"/>
                  <path id="パス_71402" data-name="パス 71402" d="M849.906,584.04a1.4,1.4,0,0,0,.674,1.773,1.229,1.229,0,0,0,1.649-.721,1.4,1.4,0,0,0-.681-1.772A1.227,1.227,0,0,0,849.906,584.04Z" transform="translate(-823.166 -560.487)"/>
                  <path id="パス_71403" data-name="パス 71403" d="M862.168,593.047a.324.324,0,0,0,.237-.1c.119-.125.25-.243.38-.357a2,2,0,0,0,.891-1.589,13.126,13.126,0,0,0-.864-2.786c-.207-.554-.4-1.078-.46-1.309a.327.327,0,1,0-.634.16c.066.265.258.781.48,1.378a15.363,15.363,0,0,1,.825,2.575c.011.449-.235.692-.674,1.082-.139.123-.281.251-.418.4a.325.325,0,0,0,.013.462A.32.32,0,0,0,862.168,593.047Z" transform="translate(-828.8 -562.117)"/>
                  <path id="パス_71404" data-name="パス 71404" d="M841.308,590.018a1.6,1.6,0,1,0,1.6-1.594A1.6,1.6,0,0,0,841.308,590.018Z" transform="translate(-819.141 -562.953)" fill="#db6b69"/>
                  <path id="パス_71405" data-name="パス 71405" d="M871.724,589.849a1.6,1.6,0,1,0,1.6-1.594A1.6,1.6,0,0,0,871.724,589.849Z" transform="translate(-833.541 -562.873)" fill="#db6b69"/>
                  <path id="パス_71406" data-name="パス 71406" d="M843.35,591.474a.3.3,0,0,0,.207-.082c.408-.378,1.062-1.069.893-1.45a.5.5,0,0,0-.293-.271,2.448,2.448,0,0,0-1.613.386l-.1.046-.073.032.04-.056c.033-.042.068-.09.106-.142.19-.262.6-.814.859-.8a.308.308,0,0,0,.316-.295.3.3,0,0,0-.294-.316h-.028c-.582,0-1.043.63-1.349,1.05-.036.049-.067.094-.1.134-.251.334-.5.712-.279.995s.656.126,1.043-.041l.115-.053a4.575,4.575,0,0,1,.958-.362,6.8,6.8,0,0,1-.619.7.3.3,0,0,0,.208.529Z" transform="translate(-819.26 -563.002)" fill="#db6b69"/>
                  <path id="パス_71407" data-name="パス 71407" d="M873.511,591.3a.306.306,0,0,0,.208-.081c.255-.235,1.076-1.035.9-1.45a.5.5,0,0,0-.294-.273c-.36-.135-.9.056-1.61.385l-.1.047-.07.029.04-.054.1-.138c.188-.262.584-.8.855-.8h.017a.306.306,0,0,0,.011-.612c-.6-.021-1.067.627-1.378,1.055l-.1.13c-.252.333-.5.711-.28.995s.655.127,1.041-.041l.117-.053a4.554,4.554,0,0,1,.956-.36,6.22,6.22,0,0,1-.617.693.306.306,0,0,0-.019.432A.3.3,0,0,0,873.511,591.3Z" transform="translate(-833.54 -562.921)" fill="#db6b69"/>
                  <path id="パス_71408" data-name="パス 71408" d="M846.463,578.483a.207.207,0,0,1-.136-.375,6,6,0,0,1,4.637-.854.207.207,0,1,1-.105.4,5.675,5.675,0,0,0-4.293.792A.216.216,0,0,1,846.463,578.483Z" transform="translate(-821.476 -557.586)" fill="#362028"/>
                  <path id="パス_71409" data-name="パス 71409" d="M865.869,577.65a.2.2,0,0,1-.147-.14.216.216,0,0,1,.124-.27,5.46,5.46,0,0,1,4.528.508.221.221,0,0,1,.067.292.192.192,0,0,1-.274.072,5.159,5.159,0,0,0-4.191-.469A.189.189,0,0,1,865.869,577.65Z" transform="translate(-830.694 -557.528)" fill="#362028"/>
                  <path id="パス_71410" data-name="パス 71410" d="M849.377,613.625a14.119,14.119,0,0,1-6.982-2.534.356.356,0,0,1,.385-.6,13.627,13.627,0,0,0,6.6,2.42.357.357,0,0,1,0,.714Z" transform="translate(-819.578 -573.374)" fill="#b35d55"/>
                  <path id="パス_71411" data-name="パス 71411" d="M823.96,688.915h-.008a.414.414,0,0,1-.406-.421c0-.256.475-25.658.475-28.485,0-4.049-3.072-11.64-3.1-11.716a.414.414,0,1,1,.767-.312c.129.317,3.165,7.816,3.165,12.028,0,2.834-.47,28.243-.475,28.5A.414.414,0,0,1,823.96,688.915Z" transform="translate(-809.473 -591.027)" fill="#484623"/>
                  <path id="パス_71412" data-name="パス 71412" d="M881.2,676.9a.413.413,0,0,1-.413-.407c-.043-2.807.079-6.395.178-9.278.063-1.836.113-3.287.1-3.93-.092-3.883-2.951-12.587-2.98-12.674a.414.414,0,0,1,.786-.259c.119.362,2.927,8.91,3.022,12.914.016.668-.034,2.128-.1,3.978-.1,2.874-.221,6.45-.177,9.236a.414.414,0,0,1-.408.42Z" transform="translate(-836.542 -592.138)" fill="#484623"/>
                  <path id="パス_71413" data-name="パス 71413" d="M830.459,566.3a.2.2,0,0,1-.144-.063.193.193,0,0,1-.055-.14c0-.4.02-.8.043-1.206a.2.2,0,0,1,.4.012v.012c-.023.409-.039.809-.043,1.186A.2.2,0,0,1,830.459,566.3Zm.14-2.392h-.023a.2.2,0,0,1-.175-.218c.043-.412.094-.813.148-1.2a.2.2,0,0,1,.4.031v.027c-.058.4-.109.789-.147,1.178A.2.2,0,0,1,830.6,563.9Zm.346-2.365a.1.1,0,0,1-.035,0,.2.2,0,0,1-.16-.233c.078-.4.163-.8.253-1.178v0a.2.2,0,0,1,.393.046c0,.016,0,.035,0,.051l0,.008c-.089.377-.171.766-.245,1.151A.2.2,0,0,1,830.945,561.54Zm.552-2.33a.128.128,0,0,1-.054-.008.19.19,0,0,1-.121-.093.206.206,0,0,1-.016-.152c.109-.385.226-.77.35-1.147v0a.2.2,0,0,1,.253-.129.2.2,0,0,1,.136.194.319.319,0,0,1-.007.058c-.125.37-.241.75-.35,1.136A.2.2,0,0,1,831.5,559.211Zm.747-2.272a.231.231,0,0,1-.07-.011.2.2,0,0,1-.109-.105.205.205,0,0,1-.007-.152c.144-.378.3-.751.451-1.12a.2.2,0,0,1,.261-.1.2.2,0,0,1,.121.186.169.169,0,0,1-.015.074q-.234.549-.443,1.1A.2.2,0,0,1,832.244,556.939Zm.941-2.2a.16.16,0,0,1-.085-.019.193.193,0,0,1-.1-.113.186.186,0,0,1,.008-.152c.167-.35.35-.712.54-1.073a.205.205,0,0,1,.272-.086.2.2,0,0,1,.105.175.229.229,0,0,1-.02.089s0,0,0,.008,0,0,0,.008c-.186.35-.365.7-.533,1.05A.193.193,0,0,1,833.185,554.738Zm1.124-2.108a.191.191,0,0,1-.1-.031.2.2,0,0,1-.07-.272c.2-.342.416-.685.634-1.023a.2.2,0,0,1,.276-.058.2.2,0,0,1,.093.163.2.2,0,0,1-.035.113c-.21.323-.42.665-.626,1.007A.2.2,0,0,1,834.309,552.63Zm1.307-2.007a.183.183,0,0,1-.117-.039.192.192,0,0,1-.082-.128.2.2,0,0,1,.035-.147c.234-.327.479-.654.724-.965a.2.2,0,1,1,.315.245c-.245.315-.486.634-.715.953A.2.2,0,0,1,835.616,550.623Z" transform="translate(-813.911 -544.416)" fill="#27171d"/>
                  <path id="パス_71414" data-name="パス 71414" d="M832.085,607.3h-.008a.2.2,0,0,1-.194-.2c0-.074,0-.171,0-.272,0-.292-.012-.583-.039-.871a.2.2,0,0,1,.4-.039c.027.307.039.61.039.91v.28A.2.2,0,0,1,832.085,607.3Z" transform="translate(-814.661 -571.149)" fill="#27171d"/>
                  <path id="パス_71415" data-name="パス 71415" d="M865.546,561.643a.2.2,0,0,1-.195-.167c-.012-.047-.019-.1-.027-.144a.153.153,0,0,1,0-.043.2.2,0,0,1,.163-.191.205.205,0,0,1,.234.16c0,.027.007.051.012.074a.5.5,0,0,0,.016.077.2.2,0,0,1-.164.23A.113.113,0,0,1,865.546,561.643Zm-.288-1.318a.2.2,0,0,1-.194-.148c-.1-.373-.21-.755-.339-1.132a.194.194,0,0,1-.012-.066.208.208,0,0,1,.136-.186.2.2,0,0,1,.253.124c.132.385.249.774.35,1.159a.194.194,0,0,1-.195.249Zm-.77-2.264a.2.2,0,0,1-.183-.121c-.156-.369-.323-.731-.5-1.073v0a.2.2,0,0,1-.019-.082.208.208,0,0,1,.109-.183.2.2,0,0,1,.269.09c.179.358.35.727.51,1.1a.2.2,0,0,1-.109.26A.17.17,0,0,1,864.488,558.062Zm-1.077-2.131a.2.2,0,0,1-.171-.1c-.2-.339-.416-.673-.642-1a.21.21,0,0,1-.035-.108.2.2,0,0,1,.085-.167.2.2,0,0,1,.276.051c.225.323.447.665.657,1.015a.2.2,0,0,1-.171.3Zm-1.365-1.964a.2.2,0,0,1-.156-.074c-.241-.3-.5-.6-.774-.895a.213.213,0,0,1-.054-.132.188.188,0,0,1,.066-.148.2.2,0,0,1,.276,0l0,0,.012.012c.264.284.529.591.781.906a.185.185,0,0,1,.043.144.191.191,0,0,1-.074.136A.2.2,0,0,1,862.046,553.966Zm-1.63-1.75a.2.2,0,0,1-.136-.054c-.28-.261-.583-.521-.894-.77a.2.2,0,0,1-.074-.156.208.208,0,0,1,.043-.124.2.2,0,0,1,.28-.031c.323.256.63.521.918.789a.189.189,0,0,1,.062.14.2.2,0,0,1-.05.144A.213.213,0,0,1,860.416,552.216Zm-1.867-1.5a.2.2,0,0,1-.113-.035c-.323-.222-.658-.435-1-.638a.2.2,0,0,1-.1-.167.23.23,0,0,1,.027-.1.2.2,0,0,1,.272-.07h0l.012.008c.342.2.68.42,1.007.646a.206.206,0,0,1,.082.128.216.216,0,0,1-.031.147A.2.2,0,0,1,858.55,550.719Zm-2.057-1.217a.249.249,0,0,1-.09-.019c-.346-.175-.708-.342-1.074-.494a.2.2,0,0,1-.124-.183.274.274,0,0,1,.016-.078.208.208,0,0,1,.26-.108c.366.155.739.323,1.1.506a.2.2,0,0,1-.09.377Zm-2.205-.918a.175.175,0,0,1-.062-.012c-.373-.124-.755-.238-1.136-.339a.2.2,0,0,1-.148-.191.189.189,0,0,1,0-.051.2.2,0,0,1,.245-.144c.393.1.782.218,1.159.346a.2.2,0,0,1,.117.1.188.188,0,0,1,.007.152A.2.2,0,0,1,854.287,548.584Zm-2.314-.6h-.035c-.385-.074-.778-.132-1.171-.175a.192.192,0,0,1-.136-.074.189.189,0,0,1-.039-.144.2.2,0,0,1,.218-.179c.4.047.8.105,1.2.179a.2.2,0,0,1,.16.23A.193.193,0,0,1,851.973,547.981Z" transform="translate(-823.536 -543.535)" fill="#27171d"/>
                  <path id="パス_71416" data-name="パス 71416" d="M841.916,650.429c-3.921,0-10.6-4.854-10.9-5.071a.414.414,0,1,1,.489-.668c.074.054,7.428,5.4,10.886,4.879s7.4-5.484,7.443-5.534a.414.414,0,1,1,.651.511c-.169.215-4.181,5.273-7.971,5.842A4.063,4.063,0,0,1,841.916,650.429Z" transform="translate(-814.188 -589.206)" fill="#484623"/>
                  <path id="パス_71417" data-name="パス 71417" d="M871.031,665.376l6.542-2.676,11.005,26.688-8.06,2.756Z" transform="translate(-833.213 -598.118)" fill="#5d5f30"/>
                </g>
              </g>
              <path id="パス_71418" data-name="パス 71418" d="M830.445,575.093a3.729,3.729,0,0,1-1.007-.135.389.389,0,0,1,.211-.749,3.643,3.643,0,0,0,2.6-.353,6.467,6.467,0,0,0,2.913-3.247,11.688,11.688,0,0,0,.862-4.457,16.341,16.341,0,0,1,.6-3.916l.05-.205a11.669,11.669,0,0,1,3.2-5.392c1.054-1.017,3.573-.827,4.688-.5a.389.389,0,1,1-.22.746c-1.126-.331-3.216-.373-3.928.313a10.85,10.85,0,0,0-2.98,5.013l-.049.205a15.535,15.535,0,0,0-.583,3.753,12.422,12.422,0,0,1-.927,4.751,7.245,7.245,0,0,1-3.275,3.63A4.824,4.824,0,0,1,830.445,575.093Z" transform="translate(-813.387 -547.545)" fill="#362028"/>
              <path id="パス_71419" data-name="パス 71419" d="M834.865,587.235a.388.388,0,0,1-.342-.2c-.912-1.674-.965-3.824-.156-6.393.248-.788.552-1.565.847-2.318a22.565,22.565,0,0,0,1.171-3.561.389.389,0,0,1,.761.158,23.079,23.079,0,0,1-1.208,3.687c-.29.74-.589,1.505-.829,2.268-.51,1.621-.908,3.942.1,5.786a.389.389,0,0,1-.341.575Z" transform="translate(-815.586 -556.338)" fill="#362028"/>
              <path id="パス_71420" data-name="パス 71420" d="M809.886,631.114c-.052,0-.1,0-.157-.005a1.755,1.755,0,0,1-1.545-1.044.389.389,0,0,1,.725-.282,1.007,1.007,0,0,0,.874.55,2.5,2.5,0,0,0,1.268-.325,6.621,6.621,0,0,0,3.539-4.669,13.568,13.568,0,0,0,.159-1.491,14.854,14.854,0,0,1,.156-1.5A7.7,7.7,0,0,1,817,618.276a14.822,14.822,0,0,1,1.336-1.153,14.8,14.8,0,0,0,1.214-1.039,3.513,3.513,0,0,0,1.207-2.649.389.389,0,0,1,.774-.082,4.26,4.26,0,0,1-1.434,3.284,15.607,15.607,0,0,1-1.277,1.095,14.056,14.056,0,0,0-1.267,1.092,6.913,6.913,0,0,0-1.881,3.654,14.038,14.038,0,0,0-.147,1.424,14.144,14.144,0,0,1-.17,1.578,7.41,7.41,0,0,1-3.961,5.227A3.493,3.493,0,0,1,809.886,631.114Z" transform="translate(-803.447 -574.591)" fill="#362028"/>
              <path id="パス_71421" data-name="パス 71421" d="M831.022,604.195a1.18,1.18,0,0,1-.533-.13,2.057,2.057,0,0,1-.848-2.348.389.389,0,1,1,.763.153,1.357,1.357,0,0,0,.434,1.5.411.411,0,0,0,.521-.13c.864-.959-.425-2.339-.48-2.4a.389.389,0,0,1,.563-.537c.642.672,1.572,2.259.5,3.455A1.231,1.231,0,0,1,831.022,604.195Z" transform="translate(-813.588 -568.521)" fill="#d6ab47"/>
              <path id="パス_71422" data-name="パス 71422" d="M866.223,642.4a14.635,14.635,0,0,0-.674-2.582,20.707,20.707,0,0,0-1.326-2.952s-.526-.456-.8-.647a2.809,2.809,0,0,1-1.058-2.191q.19-1.821.464-3.631a4.36,4.36,0,0,0,.182-1.32c-.041-.216-.051-.928-.051-.928l-1.294.4a11.722,11.722,0,0,1,.311,2.3,3.827,3.827,0,0,1-.6,1.838.469.469,0,0,1-.775.086.777.777,0,0,1-.1-.325,26.254,26.254,0,0,0-.811-3.674,1.856,1.856,0,0,1-.075-1.275c.212-.544.766-.879,1.061-1.383l-.472-.531a2.028,2.028,0,0,1-.583-1.269c-.02-.761.839-1.2.839-1.2s-.135-.209-.215-.307a1.382,1.382,0,0,1-.083-1.5,2.179,2.179,0,0,1,1.226-.961,13.882,13.882,0,0,1,2.591-.438,12.014,12.014,0,0,1,1.633-.229,4.371,4.371,0,0,0-1.882-2.306,5.1,5.1,0,0,0-1.262-.3,13.743,13.743,0,0,1-2.787-.762,3.259,3.259,0,0,1-.979-.536,1.3,1.3,0,0,1-.482-.974.559.559,0,0,1,.339-.543.765.765,0,0,1,.354.012q1.666.324,3.352.531a7.756,7.756,0,0,1,2.956.591,3.5,3.5,0,0,1,.8.727,26.25,26.25,0,0,1,2.723,3.578,6.922,6.922,0,0,1,.716,3.721,95.493,95.493,0,0,1-.9,10.047l4.236,6.77Z" transform="translate(-827.149 -575.183)" fill="#edbf98"/>
              <path id="パス_71423" data-name="パス 71423" d="M857.9,615.1a.382.382,0,0,1-.055,0,.357.357,0,0,1-.3-.407c.043-.279.084-.542,2.835-.581h.006a.356.356,0,0,1,0,.713,13.4,13.4,0,0,0-2.235.169A.359.359,0,0,1,857.9,615.1Zm.352-.3Zm0,0h0Z" transform="translate(-826.829 -575.115)" fill="#b35d55"/>
              <path id="パス_71424" data-name="パス 71424" d="M862.161,630.027a.357.357,0,0,1-.258-.6c.73-.763,3.441-1.1,3.976-1.155a.357.357,0,0,1,.078.709c-1.141.126-3.111.492-3.539.939A.358.358,0,0,1,862.161,630.027Z" transform="translate(-828.845 -581.816)" fill="#b35d55"/>
              <path id="パス_71425" data-name="パス 71425" d="M860.919,638.779a.357.357,0,0,1-.353-.309c-.088-.653-.372-2.808-.34-3.133a2.883,2.883,0,0,1,.734-1.463,17.126,17.126,0,0,1,4.018-1.038.357.357,0,0,1,.138.7,29.781,29.781,0,0,0-3.706.89,2.368,2.368,0,0,0-.474.983c-.013.2.162,1.663.337,2.966a.356.356,0,0,1-.305.4A.3.3,0,0,1,860.919,638.779Z" transform="translate(-828.096 -583.976)" fill="#b35d55"/>
              <path id="パス_71426" data-name="パス 71426" d="M876.467,688.383a.412.412,0,0,1-.323-.155c-.328-.41-3.827-13.151-5.883-20.71a.414.414,0,1,1,.8-.217c2.13,7.83,5.411,19.7,5.758,20.449a.414.414,0,0,1-.35.634Z" transform="translate(-832.841 -600.152)" fill="#484623"/>
              <path id="パス_71427" data-name="パス 71427" d="M896.594,686.983a.413.413,0,0,1-.414-.413c-.024-1.107-6.031-14.992-9.812-23.483a.414.414,0,0,1,.756-.336c1.012,2.272,9.883,22.243,9.883,23.82A.413.413,0,0,1,896.594,686.983Z" transform="translate(-840.457 -598.026)" fill="#484623"/>
            </g>
          </g>
          <path id="パス_71428" data-name="パス 71428" d="M860.459,604.7a.983.983,0,0,1-.871,1.063.951.951,0,0,1-.968-.948.983.983,0,0,1,.87-1.063A.951.951,0,0,1,860.459,604.7Z" transform="translate(-827.336 -546.996)" fill="#d21337"/>
          <path id="パス_71429" data-name="パス 71429" d="M929.823,567.377a5.833,5.833,0,0,1,3.055,1.719.521.521,0,0,1,.033.614.294.294,0,0,1-.482.043,5.017,5.017,0,0,0-3.151-1.553,4.022,4.022,0,0,0-2.959,1.036.3.3,0,0,1-.483-.041.522.522,0,0,1,.03-.612,4.535,4.535,0,0,1,3.422-1.254A3.875,3.875,0,0,1,929.823,567.377Z" transform="translate(-859.119 -529.754)" fill="#d21337"/>
        </g>
        <g id="グループ_4672" data-name="グループ 4672" transform="translate(-22.405 5.587)">
          <g id="グループ_4669" data-name="グループ 4669" transform="translate(851.819 482.567)">
            <g id="グループ_4668" data-name="グループ 4668">
              <path id="パス_71430" data-name="パス 71430" d="M862.326,500.345a.67.67,0,0,1-.876-.138,15.524,15.524,0,0,1-1.375-2.227,4.58,4.58,0,0,1,.019-4.51c.632-1.473,1.778-3.488.581-5a1.991,1.991,0,0,0-2.22-.782,2.489,2.489,0,0,0-1.558,2.424,24.046,24.046,0,0,0,.475,3.9,38.711,38.711,0,0,1-3.931.446,17.528,17.528,0,0,1-.614-4.2,6.177,6.177,0,0,1,2.317-5.2,5.914,5.914,0,0,1,2.6-1.328,6.689,6.689,0,0,1,4.034.361c2.02.822,3.158,3.421,2.768,5.82-.054.335-1.108,4.226-1.187,4.631-.322,1.648.829,2.109,1.469,3.119a.884.884,0,0,1-.258,1.206C863.9,499.318,862.919,499.97,862.326,500.345Z" transform="translate(-852.413 -483.161)" fill="#03a58e"/>
              <path id="パス_71431" data-name="パス 71431" d="M861.374,500.261a1.079,1.079,0,0,1-.831-.389,15.9,15.9,0,0,1-1.429-2.312,4.949,4.949,0,0,1,.013-4.844c.073-.169.151-.345.233-.527.614-1.366,1.311-2.915.4-4.064a1.587,1.587,0,0,0-1.77-.649,2.068,2.068,0,0,0-1.285,2.069,23.981,23.981,0,0,0,.469,3.791.406.406,0,0,1-.339.479c-4.249.629-4.265.566-4.381.154a17.621,17.621,0,0,1-.62-4.11l-.008-.18a6.563,6.563,0,0,1,2.455-5.524,6.308,6.308,0,0,1,2.776-1.418,7.086,7.086,0,0,1,4.278.381c2.121.863,3.447,3.613,3.016,6.261-.03.182-.259,1.063-.635,2.491-.243.925-.519,1.974-.554,2.153a1.993,1.993,0,0,0,.746,2,5.814,5.814,0,0,1,.667.826,1.282,1.282,0,0,1-.374,1.76c-.572.384-1.625,1.088-2.254,1.486h0A1.075,1.075,0,0,1,861.374,500.261Z" transform="translate(-851.819 -482.567)" fill="#03a58e"/>
            </g>
          </g>
          <g id="グループ_4671" data-name="グループ 4671" transform="translate(862.368 499.406)">
            <g id="グループ_4670" data-name="グループ 4670" transform="translate(0 0)">
              <path id="パス_71432" data-name="パス 71432" d="M881.3,529.52a1.956,1.956,0,0,1-2.359-1.3,2.692,2.692,0,0,1,.187-2.14,1.972,1.972,0,0,1,1.274-.993,2.056,2.056,0,0,1,.665-.038,2.382,2.382,0,0,1,1.913,2.464A2.106,2.106,0,0,1,881.3,529.52Z" transform="translate(-878.396 -524.637)" fill="#03a58e"/>
              <path id="パス_71433" data-name="パス 71433" d="M880.219,529.388a2.305,2.305,0,0,1-2.256-1.626,3.1,3.1,0,0,1,.217-2.468,2.371,2.371,0,0,1,1.537-1.19,2.47,2.47,0,0,1,.8-.046,2.765,2.765,0,0,1,2.277,2.884,2.5,2.5,0,0,1-1.994,2.381A2.573,2.573,0,0,1,880.219,529.388Z" transform="translate(-877.802 -524.044)" fill="#03a58e"/>
            </g>
          </g>
        </g>
      </g>
    </g>
  </g>
</svg>
