<svg xmlns="http://www.w3.org/2000/svg" xmlns:xlink="http://www.w3.org/1999/xlink" width="45" height="45" viewBox="0 0 45 45">
  <defs>
    <clipPath id="clip-path">
      <rect id="長方形_27043" data-name="長方形 27043" width="45" height="45" rx="22.5" transform="translate(431 4036)" fill="#f7f3e5"/>
    </clipPath>
  </defs>
  <g id="ico_person" transform="translate(-431 -4036)">
    <rect id="長方形_27042" data-name="長方形 27042" width="45" height="45" rx="22.5" transform="translate(431 4036)" fill="#cae4d3"/>
    <g id="マスクグループ_37" data-name="マスクグループ 37" clip-path="url(#clip-path)">
      <g id="グループ_1981" data-name="グループ 1981" transform="translate(917.957 2324.834)">
        <path id="パス_63778" data-name="パス 63778" d="M-471.371,1993.964l-8.809,3.221-2.582,3.46.119,3.455,2.747,4.168,19.8-.663,11.556.379,3.789-1.421-1.437-5.917-2.826-3.554-9.333-3.924Z" transform="translate(-0.03 -249.252)" fill="#fff"/>
        <path id="パス_63779" data-name="パス 63779" d="M-335.44,1939.6l-.037,4.009,3.81,4.854,4.246-5.491v-5.269l-8.186.825Z" transform="translate(-133.215 -199.058)" fill="#fff"/>
        <g id="グループ_1980" data-name="グループ 1980" transform="translate(-482.795 1717.766)">
          <g id="グループ_1967" data-name="グループ 1967" transform="translate(0 25.591)">
            <path id="パス_63780" data-name="パス 63780" d="M-482.233,1995.956a.5.5,0,0,1-.06,0,.563.563,0,0,1-.5-.619,6.976,6.976,0,0,1,1.721-3.3c.889-1.083,3.517-1.952,6.057-2.793,1.613-.534,3.822-1.265,4.133-1.707a.561.561,0,0,1,.781-.136.561.561,0,0,1,.136.781c-.5.709-2.11,1.27-4.7,2.126-2.165.717-4.86,1.608-5.543,2.44a6.168,6.168,0,0,0-1.472,2.709A.558.558,0,0,1-482.233,1995.956Z" transform="translate(482.795 -1987.298)" fill="#1a1311"/>
          </g>
          <g id="グループ_1968" data-name="グループ 1968" transform="translate(13.543 20.322)">
            <path id="パス_63781" data-name="パス 63781" d="M-339.592,1938.267a.561.561,0,0,1-.561-.561v-5.345a.561.561,0,0,1,.561-.561.561.561,0,0,1,.561.561v5.345A.561.561,0,0,1-339.592,1938.267Z" transform="translate(340.153 -1931.8)" fill="#1a1311"/>
          </g>
          <g id="グループ_1969" data-name="グループ 1969" transform="translate(22.161 20.322)">
            <path id="パス_63782" data-name="パス 63782" d="M-248.832,1938.191a.561.561,0,0,1-.561-.561v-5.269a.561.561,0,0,1,.561-.561.561.561,0,0,1,.561.561v5.269A.561.561,0,0,1-248.832,1938.191Z" transform="translate(249.393 -1931.8)" fill="#1a1311"/>
          </g>
          <g id="グループ_1970" data-name="グループ 1970" transform="translate(11.388 25.012)">
            <path id="パス_63783" data-name="パス 63783" d="M-357.2,1985.276l4.8,6.125-5.577,2.179-.949-7.686a.342.342,0,0,1,.225-.321l1.11-.407A.343.343,0,0,1-357.2,1985.276Z" transform="translate(359.294 -1984.771)" fill="#fff"/>
            <path id="パス_63784" data-name="パス 63784" d="M-361.534,1990.387a.373.373,0,0,1-.191-.053.373.373,0,0,1-.18-.275l-.949-7.686a.375.375,0,0,1,0-.046.719.719,0,0,1,.47-.672l1.11-.407a.715.715,0,0,1,.81.23l4.8,6.125a.374.374,0,0,1,.066.329.374.374,0,0,1-.225.25l-5.577,2.179A.375.375,0,0,1-361.534,1990.387Zm-.57-8.04.882,7.142,4.66-1.821-4.48-5.711Zm1.048-.407h0Z" transform="translate(362.857 -1981.204)" fill="#1a1311"/>
          </g>
          <g id="グループ_1971" data-name="グループ 1971" transform="translate(23.644 25.591)">
            <path id="パス_63785" data-name="パス 63785" d="M-221.4,1995.953a.561.561,0,0,1-.557-.5,6.185,6.185,0,0,0-1.472-2.7c-.683-.832-3.378-1.724-5.543-2.44-2.587-.856-4.2-1.417-4.7-2.126a.561.561,0,0,1,.136-.781.561.561,0,0,1,.781.136c.311.442,2.52,1.173,4.133,1.707,2.541.841,5.168,1.71,6.057,2.793a6.974,6.974,0,0,1,1.72,3.3.56.56,0,0,1-.5.616A.545.545,0,0,1-221.4,1995.953Z" transform="translate(233.772 -1987.298)" fill="#1a1311"/>
          </g>
          <g id="グループ_1972" data-name="グループ 1972" transform="translate(17.914 25.083)">
            <path id="パス_63786" data-name="パス 63786" d="M-285.541,1986.164l-4.637,5.911,5.577,2.179.949-7.867a.084.084,0,0,0-.055-.078l-1.024-.375A.717.717,0,0,0-285.541,1986.164Z" transform="translate(290.552 -1985.516)" fill="#fff"/>
            <path id="パス_63787" data-name="パス 63787" d="M-288.164,1991.06a.372.372,0,0,1-.136-.026l-5.577-2.179a.374.374,0,0,1-.225-.25.374.374,0,0,1,.066-.329l4.637-5.911h0a1.088,1.088,0,0,1,1.233-.351l1.024.375a.459.459,0,0,1,.3.429.368.368,0,0,1,0,.045l-.949,7.867a.374.374,0,0,1-.179.276A.375.375,0,0,1-288.164,1991.06Zm-4.973-2.718,4.659,1.82.863-7.149-.808-.3a.342.342,0,0,0-.388.11Z" transform="translate(294.115 -1981.948)" fill="#1a1311"/>
          </g>
          <g id="グループ_1973" data-name="グループ 1973" transform="translate(9.883 0.403)">
            <path id="パス_63788" data-name="パス 63788" d="M-357.334,1740.071c1.4-8.036-3.043-12.156-7.576-12.156s-8.981,4.12-7.576,12.156Z" transform="translate(373.316 -1727.354)" fill="#1a1311"/>
            <path id="パス_63789" data-name="パス 63789" d="M-362.721,1735.286h-15.152a.561.561,0,0,1-.552-.464c-.905-5.178.584-8.263,1.992-9.939a8.005,8.005,0,0,1,6.136-2.874,8.005,8.005,0,0,1,6.136,2.874c1.408,1.676,2.9,4.76,1.992,9.939A.561.561,0,0,1-362.721,1735.286Zm-14.675-1.121h14.2c.668-4.47-.608-7.116-1.821-8.56a6.887,6.887,0,0,0-5.278-2.474,6.887,6.887,0,0,0-5.278,2.474C-376.788,1727.049-378.064,1729.694-377.4,1734.164Z" transform="translate(378.702 -1722.009)" fill="#1a1311"/>
          </g>
          <g id="グループ_1974" data-name="グループ 1974" transform="translate(9.694 8.225)">
            <path id="パス_63790" data-name="パス 63790" d="M-358.789,1815.222c-.319-.638-.638-.766-1.435-.317l-.01.03a8.1,8.1,0,0,0-.024-1.054c-3.746.575-8.257-1.915-9.754-3.575a8.818,8.818,0,0,1-3.227,3.575,8.062,8.062,0,0,0-.024,1.054l-.01-.03c-.8-.45-1.115-.322-1.435.317s.468,2.483,1.085,2.937a.853.853,0,0,0,.853-.026c.869,3.369,2.871,6.985,6.021,6.985s5.152-3.616,6.021-6.985a.853.853,0,0,0,.853.026C-359.257,1817.7-358.47,1815.86-358.789,1815.222Z" transform="translate(375.342 -1809.745)" fill="#fff"/>
            <path id="パス_63791" data-name="パス 63791" d="M-372.1,1820.332a5.44,5.44,0,0,1-4.313-2.452,13.9,13.9,0,0,1-2.1-4.409,1.177,1.177,0,0,1-.792-.207,4.173,4.173,0,0,1-1.084-1.646,2.7,2.7,0,0,1-.171-1.993,1.5,1.5,0,0,1,.852-.845,1.185,1.185,0,0,1,.539-.03q.008-.138.02-.268a.561.561,0,0,1,.282-.435,8.258,8.258,0,0,0,3-3.337.561.561,0,0,1,.426-.305.559.559,0,0,1,.492.18c1.332,1.476,5.683,3.945,9.253,3.4a.561.561,0,0,1,.429.112.561.561,0,0,1,.214.389q.013.13.02.268a1.186,1.186,0,0,1,.539.03,1.5,1.5,0,0,1,.852.845h0a2.7,2.7,0,0,1-.171,1.993,4.171,4.171,0,0,1-1.084,1.646,1.177,1.177,0,0,1-.792.207,13.9,13.9,0,0,1-2.1,4.409A5.44,5.44,0,0,1-372.1,1820.332Zm-6.021-8.107a.56.56,0,0,1,.232.05.561.561,0,0,1,.311.371c.818,3.174,2.687,6.565,5.478,6.565s4.66-3.391,5.478-6.565a.56.56,0,0,1,.311-.371.561.561,0,0,1,.484.01.516.516,0,0,0,.279.068,3.08,3.08,0,0,0,.682-1.116,2.1,2.1,0,0,0,.222-1.111.849.849,0,0,0-.178-.272h0a.937.937,0,0,0-.37.136.56.56,0,0,1-.49.152.561.561,0,0,1-.463-.573c.005-.142.007-.279.006-.41a12.051,12.051,0,0,1-5.41-1.057,14.293,14.293,0,0,1-3.679-2.227,9.323,9.323,0,0,1-2.825,2.991c-.011.217-.011.452,0,.7a.561.561,0,0,1-.463.572.56.56,0,0,1-.491-.152,1.016,1.016,0,0,0-.371-.136.857.857,0,0,0-.179.273,2.1,2.1,0,0,0,.223,1.11,3.081,3.081,0,0,0,.682,1.116.517.517,0,0,0,.279-.068A.561.561,0,0,1-378.12,1812.225Zm12.58.126h0Z" transform="translate(380.693 -1804.398)" fill="#1a1311"/>
          </g>
          <g id="グループ_1975" data-name="グループ 1975" transform="translate(9.492 0)">
            <path id="パス_63792" data-name="パス 63792" d="M-368.671,1729.784l8.248,2.176-.015-.492c.374-7.671-6.237-7.8-8.232-7.8s-8.607.125-8.233,7.8l-.015.492Z" transform="translate(377.479 -1723.111)" fill="#fff"/>
            <path id="パス_63793" data-name="パス 63793" d="M-365.769,1727.176a.56.56,0,0,1-.143-.019l-8.1-2.139-8.1,2.139a.561.561,0,0,1-.492-.1.561.561,0,0,1-.211-.456l.015-.47a7.85,7.85,0,0,1,1.86-6.021c2.229-2.34,5.77-2.34,6.933-2.34s4.7,0,6.933,2.34a7.85,7.85,0,0,1,1.86,6.021l.015.47a.561.561,0,0,1-.211.456A.561.561,0,0,1-365.769,1727.176Zm-8.248-8.288c-1.045,0-4.224,0-6.121,1.992a6.68,6.68,0,0,0-1.56,5.006l7.538-1.989a.563.563,0,0,1,.286,0l7.538,1.989a6.681,6.681,0,0,0-1.56-5.006C-369.792,1718.887-372.972,1718.887-374.016,1718.887Z" transform="translate(382.825 -1717.766)" fill="#1a1311"/>
          </g>
          <g id="グループ_1976" data-name="グループ 1976" transform="translate(8.759 5.239)">
            <path id="パス_63794" data-name="パス 63794" d="M-375.659,1780.408c2.931,0,4.3,1.5,5.738,2.12s1.746.936,3.243,0a14.413,14.413,0,0,0-8.981-3.68c-3.372,0-7.671,2.183-8.981,3.68,1.5.936,1.809.624,3.243,0S-378.59,1780.408-375.659,1780.408Z" transform="translate(385.201 -1778.288)" fill="#fff"/>
            <path id="パス_63795" data-name="パス 63795" d="M-373.531,1778.336a3.927,3.927,0,0,1-1.578-.47c-.118-.053-.245-.109-.382-.169a10.6,10.6,0,0,1-1.255-.689,7.523,7.523,0,0,0-4.259-1.385,7.523,7.523,0,0,0-4.26,1.385,10.6,10.6,0,0,1-1.255.689c-.137.06-.264.116-.382.169a2.8,2.8,0,0,1-3.382-.208.561.561,0,0,1-.258-.394.561.561,0,0,1,.133-.451c1.349-1.541,5.787-3.871,9.4-3.871,3.672,0,8.022,2.293,9.4,3.871a.561.561,0,0,1,.133.451.561.561,0,0,1-.258.394A3.453,3.453,0,0,1-373.531,1778.336ZM-381,1774.5a8.582,8.582,0,0,1,4.842,1.548,9.818,9.818,0,0,0,1.12.619c.141.061.271.12.393.174.822.368,1.108.5,1.7.222a14.507,14.507,0,0,0-8.052-3,14.8,14.8,0,0,0-8.05,3c.589.273.875.145,1.7-.223.122-.055.252-.113.393-.174a9.816,9.816,0,0,0,1.12-.619A8.582,8.582,0,0,1-381,1774.5Z" transform="translate(390.546 -1772.942)" fill="#1a1311"/>
          </g>
          <g id="グループ_1977" data-name="グループ 1977" transform="translate(5.559 34.356)">
            <path id="パス_63796" data-name="パス 63796" d="M-418.044,2082.266h-5.829a.374.374,0,0,1-.374-.374v-1.9a.374.374,0,0,1,.374-.374h5.829a.374.374,0,0,1,.374.374v1.9A.374.374,0,0,1-418.044,2082.266Zm-5.455-.748h5.081v-1.157H-423.5Z" transform="translate(424.247 -2079.614)" fill="#1a1311"/>
          </g>
          <g id="グループ_1978" data-name="グループ 1978" transform="translate(24.441 34.356)">
            <path id="パス_63797" data-name="パス 63797" d="M-219.17,2082.266H-225a.374.374,0,0,1-.374-.374v-1.9a.374.374,0,0,1,.374-.374h5.829a.374.374,0,0,1,.374.374v1.9A.374.374,0,0,1-219.17,2082.266Zm-5.455-.748h5.081v-1.157h-5.081Z" transform="translate(225.373 -2079.614)" fill="#1a1311"/>
          </g>
          <g id="グループ_1979" data-name="グループ 1979" transform="translate(17.914 31.269)">
            <path id="パス_63798" data-name="パス 63798" d="M-293.741,2052.675a.374.374,0,0,1-.374-.374v-4.83a.374.374,0,0,1,.374-.374.374.374,0,0,1,.374.374v4.83A.374.374,0,0,1-293.741,2052.675Z" transform="translate(294.115 -2047.097)" fill="#1a1311"/>
          </g>
        </g>
      </g>
    </g>
  </g>
</svg>
