<svg xmlns="http://www.w3.org/2000/svg" xmlns:xlink="http://www.w3.org/1999/xlink" width="45" height="45" viewBox="0 0 45 45">
  <defs>
    <clipPath id="clip-path">
      <rect id="長方形_27043" data-name="長方形 27043" width="45" height="45" rx="22.5" transform="translate(431 4036)" fill="#f7f3e5"/>
    </clipPath>
  </defs>
  <g id="ico_money" transform="translate(-431 -4036)">
    <rect id="長方形_27042" data-name="長方形 27042" width="45" height="45" rx="22.5" transform="translate(431 4036)" fill="#cae4d3"/>
    <g id="マスクグループ_37" data-name="マスクグループ 37" clip-path="url(#clip-path)">
      <g id="グループ_1983" data-name="グループ 1983" transform="translate(1831.888 3419.084)">
        <path id="パス_63799" data-name="パス 63799" d="M-1366.508,645.447v.007c0,.01,0,.021,0,.031a.021.021,0,0,1,0,.01,6.6,6.6,0,0,1-3.059,5.583,15.047,15.047,0,0,1-7.363,2.044c-4.426.247-10.074-.516-12.318-4.109-2.334-3.737-.319-8.579,2.635-11.663a13.249,13.249,0,0,1,1.708-1.5,1.819,1.819,0,0,1-.653-.918,1.938,1.938,0,0,1,.256-1.676c-.18-.162-.351-.328-.513-.5a3.414,3.414,0,0,1-1.048-2.2,2.664,2.664,0,0,1,1.295-2.25,2.908,2.908,0,0,1,2.376-.119,7.106,7.106,0,0,1,1.182.532c.163.091.543.42.751.351.224-.076.132-.691.149-.857a3.781,3.781,0,0,1,.3-1.243,2.33,2.33,0,0,1,2.19-1.3,2.848,2.848,0,0,1,2.325.743,4.018,4.018,0,0,1,.708,2.417c.033.211.054.274.3.213a7.243,7.243,0,0,0,1.075-.593,3.743,3.743,0,0,1,2.446-.392,2.6,2.6,0,0,1,1.8,1.843,2.749,2.749,0,0,1-.53,2.343,6.225,6.225,0,0,1-.913,1,2.092,2.092,0,0,1,.209,1.751,1.787,1.787,0,0,1-.625.85,12.473,12.473,0,0,1,5.316,9.555C-1366.508,645.414-1366.508,645.43-1366.508,645.447Zm-3.8,4.279a5.231,5.231,0,0,0,2.066-4.279,10.308,10.308,0,0,0-2.165-5.942,11.863,11.863,0,0,0-3.374-3.129h-9.1a11.653,11.653,0,0,0-3.32,2.961c-2.057,2.7-3.577,6.988-.914,9.779a9,9,0,0,0,4.842,2.277,21.672,21.672,0,0,0,6.65.185A11.076,11.076,0,0,0-1370.31,649.726Zm-1.309-19.02c.062-.431-.233-1.249-.745-1.294a3.792,3.792,0,0,0-1.879.766,2.263,2.263,0,0,1-2.495-.113c-.723-.565-.521-1.36-.658-2.092a1.208,1.208,0,0,0-.352-.775.863.863,0,0,0-.567-.1,1.094,1.094,0,0,0-.676.1,1.183,1.183,0,0,0-.344.741c-.147.727.063,1.507-.621,2.089a2.248,2.248,0,0,1-2.429.217,5.4,5.4,0,0,0-1.835-.832c-.48-.056-.814.505-.891.926-.138.741.429,1.444,1.124,2.03a3,3,0,0,1,.679-.1c.714-.02,1.433,0,2.148,0h7.056a6.526,6.526,0,0,1,1.308.1A3.034,3.034,0,0,0-1371.619,630.705Zm-1.2,3.617a.724.724,0,0,0-.075-.345c-.124-.242-.4-.273-.677-.274l-8.879-.028a2.538,2.538,0,0,0-1.224.12.635.635,0,0,0-.241.52.666.666,0,0,0,.121.431.518.518,0,0,0,.347.181l10.21.031c-.016-.01,0,0-.016-.01A.6.6,0,0,0-1372.819,634.322Z" transform="translate(0)" fill="#14100e"/>
        <path id="パス_63800" data-name="パス 63800" d="M-1348.535,767.77a5.231,5.231,0,0,1-2.066,4.279,11.078,11.078,0,0,1-5.318,1.853,21.669,21.669,0,0,1-6.65-.185,9,9,0,0,1-4.842-2.277c-2.663-2.791-1.142-7.075.914-9.779a11.655,11.655,0,0,1,3.321-2.961h9.1a11.856,11.856,0,0,1,3.374,3.129A10.305,10.305,0,0,1-1348.535,767.77Z" transform="translate(-19.708 -122.324)" fill="#fff"/>
        <path id="パス_63801" data-name="パス 63801" d="M-1313.709,645.7c.513.044.807.863.745,1.294a3.034,3.034,0,0,1-1.179,1.667,6.526,6.526,0,0,0-1.308-.1h-7.056c-.715,0-1.434-.02-2.148,0a2.99,2.99,0,0,0-.679.1c-.695-.586-1.261-1.289-1.124-2.03.077-.42.411-.982.891-.926a5.4,5.4,0,0,1,1.835.831,2.248,2.248,0,0,0,2.429-.217c.683-.582.473-1.362.621-2.089a1.182,1.182,0,0,1,.344-.741,1.094,1.094,0,0,1,.676-.1.862.862,0,0,1,.567.1,1.207,1.207,0,0,1,.352.775c.138.733-.064,1.527.658,2.092a2.262,2.262,0,0,0,2.495.113A3.793,3.793,0,0,1-1313.709,645.7Z" transform="translate(-58.656 -16.293)" fill="#fff"/>
        <path id="パス_63802" data-name="パス 63802" d="M-1300.315,725.269a.722.722,0,0,1,.075.345.6.6,0,0,1-.433.626c.018.009,0,0,.016.01l-10.21-.031a.518.518,0,0,1-.347-.181.667.667,0,0,1-.121-.432.635.635,0,0,1,.241-.52,2.54,2.54,0,0,1,1.224-.12l8.879.028C-1300.718,725-1300.438,725.026-1300.315,725.269Z" transform="translate(-72.58 -91.292)" fill="#14100e"/>
        <text id="_" data-name="¥" transform="translate(-1382.889 648.916)" fill="#1a1311" font-size="12" font-family="SegoeUI, Segoe UI"><tspan x="0" y="0">¥</tspan></text>
      </g>
    </g>
  </g>
</svg>
