<svg xmlns="http://www.w3.org/2000/svg" xmlns:xlink="http://www.w3.org/1999/xlink" width="45" height="45" viewBox="0 0 45 45">
  <defs>
    <clipPath id="clip-path">
      <rect id="長方形_27043" data-name="長方形 27043" width="45" height="45" rx="22.5" transform="translate(431 4036)" fill="#f7f3e5"/>
    </clipPath>
  </defs>
  <g id="ico_time" transform="translate(-431 -4036)">
    <rect id="長方形_27042" data-name="長方形 27042" width="45" height="45" rx="22.5" transform="translate(431 4036)" fill="#cae4d3"/>
    <g id="マスクグループ_37" data-name="マスクグループ 37" clip-path="url(#clip-path)">
      <g id="グループ_1982" data-name="グループ 1982" transform="translate(-199.303 3787.445)">
        <g id="グループ_1965" data-name="グループ 1965" transform="translate(638.522 256.775)">
          <g id="グループ_1951" data-name="グループ 1951" transform="translate(0 0)">
            <circle id="楕円形_331" data-name="楕円形 331" cx="14.5" cy="14.5" r="14.5" transform="translate(-0.22 -0.22)" fill="#fff"/>
            <g id="グループ_1948" data-name="グループ 1948" transform="translate(0)">
              <path id="パス_63762" data-name="パス 63762" d="M652.9,285.436a14.237,14.237,0,1,1,5.559-1.122A14.191,14.191,0,0,1,652.9,285.436Zm0-27.911a13.588,13.588,0,1,0,5.306,1.071A13.544,13.544,0,0,0,652.9,257.524Z" transform="translate(-638.623 -256.875)" fill="#1a1311"/>
            </g>
            <g id="グループ_1949" data-name="グループ 1949" transform="translate(13.949 6.913)">
              <path id="パス_63763" data-name="パス 63763" d="M1068.571,476.115a.323.323,0,0,1-.323-.323l0-7.016a.323.323,0,0,1,.323-.323h0a.323.323,0,0,1,.323.322l0,7.016a.323.323,0,0,1-.323.323Z" transform="translate(-1068.245 -468.453)" fill="#1a1311"/>
            </g>
            <g id="グループ_1950" data-name="グループ 1950" transform="translate(13.953 13.93)">
              <path id="パス_63764" data-name="パス 63764" d="M1072.571,688.731a.32.32,0,0,1-.157-.041l-3.889-2.177a.323.323,0,1,1,.315-.563l3.889,2.177a.323.323,0,0,1-.158.6Z" transform="translate(-1068.36 -685.909)" fill="#1a1311"/>
            </g>
          </g>
          <g id="グループ_1964" data-name="グループ 1964" transform="translate(2.2 2.177)">
            <g id="グループ_1952" data-name="グループ 1952" transform="translate(11.758)">
              <path id="パス_63765" data-name="パス 63765" d="M1068.841,323.229a.323.323,0,0,1-.323-.323v-.915a.323.323,0,0,1,.645,0v.915A.323.323,0,0,1,1068.841,323.229Z" transform="translate(-1068.518 -321.669)" fill="#1a1311"/>
            </g>
            <g id="グループ_1953" data-name="グループ 1953" transform="translate(5.881 1.572)">
              <path id="パス_63766" data-name="パス 63766" d="M887.155,371.826a.322.322,0,0,1-.28-.161l-.457-.792a.323.323,0,0,1,.559-.323l.457.792a.323.323,0,0,1-.279.484Z" transform="translate(-886.375 -370.388)" fill="#1a1311"/>
            </g>
            <g id="グループ_1954" data-name="グループ 1954" transform="translate(1.577 5.872)">
              <path id="パス_63767" data-name="パス 63767" d="M754.111,504.756a.321.321,0,0,1-.161-.043l-.792-.457a.323.323,0,0,1,.323-.559l.792.457a.323.323,0,0,1-.162.6Z" transform="translate(-752.996 -503.653)" fill="#1a1311"/>
            </g>
            <g id="グループ_1955" data-name="グループ 1955" transform="translate(0 11.747)">
              <path id="パス_63768" data-name="パス 63768" d="M705.359,686.4h-.915a.323.323,0,0,1,0-.645h.915a.323.323,0,0,1,0,.645Z" transform="translate(-704.121 -685.753)" fill="#1a1311"/>
            </g>
            <g id="グループ_1956" data-name="グループ 1956" transform="translate(1.572 17.167)">
              <path id="パス_63769" data-name="パス 63769" d="M753.163,854.818a.323.323,0,0,1-.162-.6l.792-.457a.323.323,0,1,1,.323.559l-.792.457A.321.321,0,0,1,753.163,854.818Z" transform="translate(-752.84 -853.716)" fill="#1a1311"/>
            </g>
            <g id="グループ_1957" data-name="グループ 1957" transform="translate(5.872 21.136)">
              <path id="パス_63770" data-name="パス 63770" d="M886.427,978.155a.323.323,0,0,1-.279-.484l.457-.792a.323.323,0,1,1,.559.323l-.457.792A.322.322,0,0,1,886.427,978.155Z" transform="translate(-886.104 -976.717)" fill="#1a1311"/>
            </g>
            <g id="グループ_1958" data-name="グループ 1958" transform="translate(11.747 22.59)">
              <path id="パス_63771" data-name="パス 63771" d="M1068.528,1023.357a.323.323,0,0,1-.323-.323v-.915a.323.323,0,0,1,.645,0v.915A.323.323,0,0,1,1068.528,1023.357Z" transform="translate(-1068.205 -1021.797)" fill="#1a1311"/>
            </g>
            <g id="グループ_1959" data-name="グループ 1959" transform="translate(17.167 21.141)">
              <path id="パス_63772" data-name="パス 63772" d="M1236.949,978.311a.323.323,0,0,1-.28-.161l-.457-.792a.323.323,0,0,1,.559-.323l.457.792a.323.323,0,0,1-.279.484Z" transform="translate(-1236.168 -976.873)" fill="#1a1311"/>
            </g>
            <g id="グループ_1960" data-name="グループ 1960" transform="translate(21.136 17.176)">
              <path id="パス_63773" data-name="パス 63773" d="M1360.284,855.091a.322.322,0,0,1-.161-.043l-.792-.457a.323.323,0,1,1,.323-.559l.792.457a.323.323,0,0,1-.162.6Z" transform="translate(-1359.169 -853.988)" fill="#1a1311"/>
            </g>
            <g id="グループ_1961" data-name="グループ 1961" transform="translate(22.59 11.758)">
              <path id="パス_63774" data-name="パス 63774" d="M1405.487,686.711h-.915a.323.323,0,1,1,0-.645h.915a.323.323,0,1,1,0,.645Z" transform="translate(-1404.249 -686.066)" fill="#1a1311"/>
            </g>
            <g id="グループ_1962" data-name="グループ 1962" transform="translate(21.141 5.881)">
              <path id="パス_63775" data-name="パス 63775" d="M1359.648,505.026a.323.323,0,0,1-.162-.6l.792-.457a.323.323,0,1,1,.323.559l-.792.457A.322.322,0,0,1,1359.648,505.026Z" transform="translate(-1359.325 -503.923)" fill="#1a1311"/>
            </g>
            <g id="グループ_1963" data-name="グループ 1963" transform="translate(17.176 1.577)">
              <path id="パス_63776" data-name="パス 63776" d="M1236.762,371.982a.323.323,0,0,1-.279-.484l.457-.792a.323.323,0,0,1,.559.323l-.458.792A.323.323,0,0,1,1236.762,371.982Z" transform="translate(-1236.439 -370.545)" fill="#1a1311"/>
            </g>
          </g>
        </g>
        <g id="グループ_1966" data-name="グループ 1966" transform="translate(651.74 269.964)">
          <circle id="楕円形_330" data-name="楕円形 330" cx="0.692" cy="0.692" r="0.692" transform="translate(0.371 0.371)" fill="#1a1311"/>
          <path id="パス_63777" data-name="パス 63777" d="M1046.639,665.094a1.063,1.063,0,1,1,1.063-1.063A1.064,1.064,0,0,1,1046.639,665.094Zm0-1.384a.321.321,0,1,0,.321.321A.321.321,0,0,0,1046.639,663.71Z" transform="translate(-1045.576 -662.968)" fill="#1a1311"/>
        </g>
      </g>
    </g>
  </g>
</svg>
