<svg xmlns="http://www.w3.org/2000/svg" width="223.412" height="24.753" viewBox="0 0 223.412 24.753"><path d="M9.646.415q-8.5,0-8.5-11.937,0-6.192,2.3-9.438a7.661,7.661,0,0,1,6.666-3.246q8.3,0,8.3,12.136,0,6.043-2.266,9.264A7.465,7.465,0,0,1,9.646.415ZM9.878-20.2q-3.4,0-3.4,8.55Q6.475-3.6,9.812-3.6q3.254,0,3.254-8.3T9.878-20.2Zm23.831-4.134V0H28.48V-18.428a6.263,6.263,0,0,1-1.021.722,10.54,10.54,0,0,1-1.253.614,11.192,11.192,0,0,1-1.378.465,10.064,10.064,0,0,1-1.411.274v-4.416A21.815,21.815,0,0,0,27.268-22.3a21.919,21.919,0,0,0,3.271-2.042ZM46.915-4.35H57.009V0H41.171V-1.793a8.345,8.345,0,0,1,.614-3.279,10.88,10.88,0,0,1,1.544-2.606A13.392,13.392,0,0,1,45.363-9.72q1.1-.888,2.1-1.6,1.046-.747,1.834-1.428A10.453,10.453,0,0,0,50.626-14.1a5.144,5.144,0,0,0,.805-1.361,4.049,4.049,0,0,0,.266-1.469,2.953,2.953,0,0,0-.863-2.308,3.838,3.838,0,0,0-2.64-.78,8.866,8.866,0,0,0-5.877,2.44V-22.2a12.616,12.616,0,0,1,7.006-2.009,10.347,10.347,0,0,1,3.246.473A6.867,6.867,0,0,1,55-22.379a5.771,5.771,0,0,1,1.519,2.133,7.2,7.2,0,0,1,.523,2.8,7.887,7.887,0,0,1-.506,2.922A8.978,8.978,0,0,1,55.191-12.2a12.2,12.2,0,0,1-1.934,1.917q-1.1.872-2.274,1.685-.8.564-1.536,1.121a14.558,14.558,0,0,0-1.3,1.1,5.948,5.948,0,0,0-.9,1.054A1.82,1.82,0,0,0,46.915-4.35ZM69.335.415q-8.5,0-8.5-11.937,0-6.192,2.3-9.438A7.661,7.661,0,0,1,69.8-24.205q8.3,0,8.3,12.136,0,6.043-2.266,9.264A7.465,7.465,0,0,1,69.335.415ZM69.568-20.2q-3.4,0-3.4,8.55Q66.165-3.6,69.5-3.6q3.254,0,3.254-8.3T69.568-20.2ZM91.042-7.238H81.961v-3.669h9.081ZM95.615-.78V-5.346A9.215,9.215,0,0,0,101.193-3.6a5.022,5.022,0,0,0,3.129-.863,2.866,2.866,0,0,0,1.121-2.407,2.736,2.736,0,0,0-1.386-2.457,7.182,7.182,0,0,0-3.81-.863H98.039v-4.018h2.042q4.648,0,4.648-3.088,0-2.905-3.569-2.905a8.138,8.138,0,0,0-4.648,1.544v-4.283a12.838,12.838,0,0,1,5.844-1.262,8.819,8.819,0,0,1,5.686,1.644,5.231,5.231,0,0,1,2.034,4.267q0,4.665-4.731,5.844v.083a6.432,6.432,0,0,1,3.984,1.834,5.172,5.172,0,0,1,1.461,3.727,6.387,6.387,0,0,1-2.44,5.279,10.552,10.552,0,0,1-6.74,1.942A13.027,13.027,0,0,1,95.615-.78Zm19.9,0V-5.346A9.215,9.215,0,0,0,121.09-3.6a5.022,5.022,0,0,0,3.129-.863,2.866,2.866,0,0,0,1.121-2.407,2.736,2.736,0,0,0-1.386-2.457,7.182,7.182,0,0,0-3.81-.863h-2.208v-4.018h2.042q4.648,0,4.648-3.088,0-2.905-3.569-2.905a8.138,8.138,0,0,0-4.648,1.544v-4.283a12.838,12.838,0,0,1,5.844-1.262,8.819,8.819,0,0,1,5.686,1.644,5.231,5.231,0,0,1,2.034,4.267q0,4.665-4.731,5.844v.083a6.432,6.432,0,0,1,3.984,1.834,5.172,5.172,0,0,1,1.461,3.727,6.387,6.387,0,0,1-2.44,5.279A10.552,10.552,0,0,1,121.5.415,13.027,13.027,0,0,1,115.512-.78Zm31.767-23.558V0h-5.229V-18.428a6.263,6.263,0,0,1-1.021.722,10.54,10.54,0,0,1-1.253.614,11.192,11.192,0,0,1-1.378.465,10.064,10.064,0,0,1-1.411.274v-4.416a21.814,21.814,0,0,0,3.852-1.527,21.919,21.919,0,0,0,3.271-2.042ZM163.008.415q-8.5,0-8.5-11.937,0-6.192,2.3-9.438a7.661,7.661,0,0,1,6.666-3.246q8.3,0,8.3,12.136,0,6.043-2.266,9.264A7.465,7.465,0,0,1,163.008.415ZM163.24-20.2q-3.4,0-3.4,8.55,0,8.052,3.337,8.052,3.254,0,3.254-8.3T163.24-20.2ZM184.714-7.238h-9.081v-3.669h9.081ZM189.7-.614V-5.1A9.786,9.786,0,0,0,194.9-3.6a4.881,4.881,0,0,0,3.246-.988,3.325,3.325,0,0,0,1.17-2.681q0-3.536-5-3.536a37,37,0,0,0-4.25.282l.9-13.281h12.6v4.283h-8.6l-.332,4.765q1.278-.1,2.208-.1a8.119,8.119,0,0,1,5.744,1.926,6.725,6.725,0,0,1,2.075,5.18,7.645,7.645,0,0,1-2.474,5.885A9.5,9.5,0,0,1,195.48.415,14.352,14.352,0,0,1,189.7-.614Zm19.9,0V-5.1A9.786,9.786,0,0,0,214.8-3.6a4.881,4.881,0,0,0,3.246-.988,3.325,3.325,0,0,0,1.17-2.681q0-3.536-5-3.536a37,37,0,0,0-4.25.282l.9-13.281h12.6v4.283h-8.6l-.332,4.765q1.278-.1,2.208-.1a8.119,8.119,0,0,1,5.744,1.926,6.725,6.725,0,0,1,2.075,5.18,7.645,7.645,0,0,1-2.474,5.885A9.5,9.5,0,0,1,215.377.415,14.352,14.352,0,0,1,209.6-.614Z" transform="translate(-1.146 24.338)" fill="#fff"/></svg>