<svg xmlns="http://www.w3.org/2000/svg" xmlns:xlink="http://www.w3.org/1999/xlink" width="344" height="265" viewBox="0 0 344 265"><defs><clipPath id="a"><rect width="344" height="265" transform="translate(846.086 669.35)" fill="#fff" stroke="#707070" stroke-width="1"/></clipPath></defs><g transform="translate(-846.086 -669.35)" clip-path="url(#a)"><g transform="translate(846 669.349)"><g transform="translate(0 0)"><path d="M931.7,1682.173a19.683,19.683,0,0,0-10.328,7.944c-4.423,6.465-43.7,110.174-43.7,110.174l12.249-.34,34.631-14.5Z" transform="translate(-713.149 -1566.336)" fill="#4a98d4"/><path d="M1047.016,1628.836c10.982,6.913,25.388,18.385,36.373,25.293,17.094,10.749,20.575,23.229,24.131,42.227,6.249,32.367-4.809,61.937-13.479,92.784q-7,24.929-14.01,49.857l-116.017-.152,16.824-187.864,25.287-16.7Z" transform="translate(-765.264 -1534.144)" fill="#4a98d4"/><path d="M1073.686,1588.063l1.46,12.459,12.254,2.85,21.845-11.667-3.261-13.694Z" transform="translate(-831.458 -1503.467)" fill="#e2a775"/><g transform="translate(239.523 86.042)"><path d="M1072.37,1615.078l14.383,3.734,20.207-9.761,4.11,7.568s-7.972,17.062-23.379,14.606S1068.94,1624,1068.94,1624Z" transform="translate(-1068.117 -1608.243)" fill="#fff"/><path d="M1086.3,1630.793c-15.567-2.487-19.147-7.351-19.292-7.558a.8.8,0,0,1-.093-.744l3.434-8.924a.828.828,0,0,1,.981-.5l14.085,3.657,19.932-9.629a.827.827,0,0,1,1.084.343l4.108,7.567a.8.8,0,0,1,.021.719c-.08.169-8.058,16.845-23.234,15.2h0C1086.99,1630.893,1086.646,1630.847,1086.3,1630.793Zm19.055-21.9-19.5,9.418a.836.836,0,0,1-.573.056l-13.664-3.546-2.995,7.787c1.049,1.044,5.421,4.595,17.942,6.594.318.051.635.094.944.127h0c12.805,1.386,20.169-11.591,21.379-13.917Z" transform="translate(-1066.865 -1607.014)" fill="#50bef1"/></g><g transform="translate(257.659 96.401)"><path d="M1119.131,1646.227a.816.816,0,0,0,.828-1.163l-5.793-11.473a.827.827,0,0,0-1.1-.36.806.806,0,0,0-.369,1.084l5.791,11.472A.814.814,0,0,0,1119.131,1646.227Z" transform="translate(-1112.609 -1633.146)" fill="#50bef1"/></g><g transform="translate(253.459 95.694)"><path d="M1102.746,1644.707a.823.823,0,0,0,.885-.6c1.357-5.1,3.032-10.776,3.483-11.43a.79.79,0,0,0-.107-1.13.845.845,0,0,0-1.166.113c-.782.917-2.918,8.729-3.8,12.045a.8.8,0,0,0,.586.982A.763.763,0,0,0,1102.746,1644.707Z" transform="translate(-1102.017 -1631.363)" fill="#50bef1"/></g><path d="M1185.5,1821.011a.913.913,0,0,0,.254.065.887.887,0,0,0,.992-.744c.017-.135,5.643-31.763,14.292-54.823,8.492-22.642,16.337-26.374,16.415-26.408a.83.83,0,0,0,.43-1.122.914.914,0,0,0-1.18-.418c-.343.146-8.535,3.862-17.354,27.382-8.721,23.267-14.37,55.06-14.387,55.2A.846.846,0,0,0,1185.5,1821.011Z" transform="translate(-898.619 -1599.72)" fill="#3874aa"/><path d="M1106.774,1673.193a25.629,25.629,0,0,0,5.532-.185c16.88-2,25.832-12.249,26.206-12.684a.8.8,0,0,0-.1-1.138.831.831,0,0,0-1.156.1,41.614,41.614,0,0,1-25.144,12.119c-5.349.635-6.543-.1-6.728-.244a.823.823,0,0,0-1.611.226,1.33,1.33,0,0,0,.51.977A4.586,4.586,0,0,0,1106.774,1673.193Z" transform="translate(-849.619 -1552.348)" fill="#339458"/><path d="M1019.777,1451.454s7.229,46.475,8.92,54.826,17.812,14.717,28.775,8.077,19.628-13.6,17.719-33.02a184.346,184.346,0,0,0-6.131-33.146Z" transform="translate(-798.921 -1425.114)" fill="#e2a775"/><path d="M1145.054,1479.443c1.3,4.864-2.683,10.163-8.891,11.836s-12.281-.917-13.574-5.777,2.7-10.168,8.889-11.841C1137.688,1471.981,1143.763,1474.572,1145.054,1479.443Z" transform="translate(-860.827 -1440.177)" fill="#e2a775"/><path d="M1067.11,1404.039c-3.252-4.5-20.116-15.95-33.982-13.793-3.547.556-7.933,1.362-10.671,3.75-4.391,3.826-5.55,6.278-5.55,6.278s-.792-7.1.693-8.2a16.477,16.477,0,0,0-5.785,6.762c-1.066,2.564-.5,4.061-.081,6.563-1.752-.729-2.632-2.214-3.688-3.723-1.388,1.779-1.8,5.918-1.425,8.085.647,3.737,2.719,8.776,6.028,10.967,2.581,1.706,7.646,2.129,10.757,1.58,2.524-.452,4.877-1.29,7.361-1.829a25.069,25.069,0,0,1,12.7.241c6.375,1.933,10.315,7.42,13.063,13.311.726,1.563,4.03,9.226,4.03,9.226l4.491-1.127s-3.44-13.529-3.081-15.816a3.647,3.647,0,0,1,1.382-2.372,7.075,7.075,0,0,1,2.874-.369S1072.282,1411.193,1067.11,1404.039Z" transform="translate(-790.9 -1389.978)" fill="#69452e"/><path d="M1071.775,1516.961a.734.734,0,0,0,.569-.792.716.716,0,0,0-.8-.626l-13.854,1.7c1.218-8.755,3.173-22.025,3.66-23.266a.71.71,0,0,0-.11-.914.73.73,0,0,0-1.026.043c-.191.2-.77.817-4.092,24.875a.71.71,0,0,0,.2.6.721.721,0,0,0,.6.208l14.78-1.82A.593.593,0,0,0,1071.775,1516.961Z" transform="translate(-820.852 -1452.084)" fill="#0d0002"/><path d="M1084.745,1495.563a3.028,3.028,0,0,0,2.341,3.447,2.76,2.76,0,0,0,3.206-2.407,3.026,3.026,0,0,0-2.355-3.436A2.762,2.762,0,0,0,1084.745,1495.563Z" transform="translate(-838.113 -1452.231)" fill="#0d0002"/><path d="M1044.492,1505.294a3.032,3.032,0,0,0,2.339,3.447,2.76,2.76,0,0,0,3.206-2.407,3.028,3.028,0,0,0-2.351-3.441A2.764,2.764,0,0,0,1044.492,1505.294Z" transform="translate(-813.818 -1458.103)" fill="#0d0002"/><path d="M1111.986,1510.3a3.487,3.487,0,0,0,4.247,2.578,3.574,3.574,0,0,0,2.665-4.249,3.5,3.5,0,0,0-4.252-2.585A3.568,3.568,0,0,0,1111.986,1510.3Z" transform="translate(-854.52 -1459.969)" fill="#e9706e"/><path d="M1116.923,1512.493a.679.679,0,0,0,.417-.284c.438-.635,1.816-2.771,1.223-3.568a1.122,1.122,0,0,0-.773-.434c-.838-.1-1.919.588-3.283,1.652-.086.071-.161.128-.214.166s-.1.073-.144.106c.02-.043.041-.089.061-.139.047-.1.1-.225.154-.355.286-.662.859-2.053,1.468-2.164a.7.7,0,0,0,.541-.8.672.672,0,0,0-.8-.524c-1.288.28-2,1.895-2.461,2.973l-.143.332c-.38.846-.733,1.791-.11,2.278s1.483-.071,2.235-.635c.057-.04.138-.107.242-.187a10.487,10.487,0,0,1,1.876-1.256,14.524,14.524,0,0,1-.992,1.8.667.667,0,0,0,.175.935A.674.674,0,0,0,1116.923,1512.493Z" transform="translate(-854.898 -1460.088)" fill="#e55a65"/><path d="M1056.394,1425.126c-.391-.249-.78-.494-1.163-.733l-.06-.039a.777.777,0,0,1-.234-1.082.8.8,0,0,1,1.094-.25l.059.038c.388.245.779.491,1.173.743a.781.781,0,0,1,.228,1.085.809.809,0,0,1-.5.34A.774.774,0,0,1,1056.394,1425.126Zm-5.052-3.364c-.527-.415-1-.819-1.433-1.236a.781.781,0,0,1-.011-1.109.8.8,0,0,1,1.119-.027,16.727,16.727,0,0,0,1.314,1.134.777.777,0,0,1,.122,1.1.8.8,0,0,1-1.112.137Zm-4.28-5.065c-.1-.191-.191-.388-.282-.592-.173-.385-.33-.778-.468-1.163a.8.8,0,0,1,1.5-.541c.122.35.263.7.42,1.052.08.18.165.357.249.528a.789.789,0,0,1-.354,1.057.795.795,0,0,1-1.06-.342Zm-.677-5.72a.777.777,0,0,1-.581-.941,4.421,4.421,0,0,1,1.031-1.954.8.8,0,0,1,1.119-.057.78.78,0,0,1,.044,1.107,2.787,2.787,0,0,0-.658,1.257.8.8,0,0,1-.955.588Z" transform="translate(-814.617 -1400.748)" fill="#ab6d39"/><path d="M1103.288,1437.473c-.327-.515-.659-1-.991-1.453a.794.794,0,0,1,1.283-.934c.353.475.7.994,1.05,1.54a.788.788,0,0,1-.253,1.085.9.9,0,0,1-.255.106A.783.783,0,0,1,1103.288,1437.473Zm-3.931-4.641a15.437,15.437,0,0,0-1.385-1.036.774.774,0,0,1-.208-1.087.8.8,0,0,1,1.1-.222,17.433,17.433,0,0,1,1.523,1.139.793.793,0,0,1-1.029,1.206Zm-5.287-2.954c-.535-.19-1.1-.366-1.687-.524a.772.772,0,0,1-.542-.964.8.8,0,0,1,.979-.549c.619.167,1.226.357,1.8.558a.775.775,0,0,1,.467,1,.807.807,0,0,1-.579.5A.783.783,0,0,1,1094.069,1429.878Z" transform="translate(-842.396 -1412.814)" fill="#ab6d39"/><path d="M1130.5,1429.5a.78.78,0,0,1-.9-.647c-.034-.236-.077-.472-.127-.706-.069-.315-.152-.637-.25-.957a.794.794,0,0,1,1.516-.469c.108.359.2.72.281,1.076.057.266.1.533.144.8a.791.791,0,0,1-.616.889A.344.344,0,0,1,1130.5,1429.5Zm-3.1-6.23c-.3-.478-.626-.969-.98-1.456a.793.793,0,0,1,1.286-.93c.376.517.729,1.04,1.046,1.552a.79.79,0,0,1-.268,1.083.828.828,0,0,1-.242.1A.779.779,0,0,1,1127.4,1423.267Zm-3.848-4.824c-.408-.418-.838-.836-1.271-1.24a.778.778,0,0,1-.03-1.108.8.8,0,0,1,1.12-.046c.451.42.9.856,1.324,1.295a.777.777,0,0,1-.025,1.111.8.8,0,0,1-.378.2A.788.788,0,0,1,1123.555,1418.443Z" transform="translate(-860.641 -1405.588)" fill="#ab6d39"/><path d="M1106.663,1593.884a.384.384,0,0,1,.043-.011,53.935,53.935,0,0,0,9.175-4.141c6.118-3.278,9.326-13.293,9.461-13.718a.709.709,0,0,0-.476-.9.739.739,0,0,0-.911.484c-.03.1-3.161,9.87-8.749,12.863a53.891,53.891,0,0,1-8.89,4.024.732.732,0,0,0-.5.9A.717.717,0,0,0,1106.663,1593.884Z" transform="translate(-850.833 -1501.703)" fill="#cb6362"/><path d="M1063.8,1747.369a14.507,14.507,0,0,0-2.194-3.773c-2.562-3.055-6.211-5.269-9.711-7.089-5.552-2.888-11.336-6-17.294-7.9-1.382-.439-3.262-1.441-4.406-.3-.733.733-1.185,2.161-1.893,3.018a20.754,20.754,0,0,0-3.079,4c-.955,2-.145,3.168.85,4.979,3.434,6.249,9.448,11.445,14.8,16.013a55.724,55.724,0,0,0,8.017,5.823c6.353,3.671,13.121-.373,15.607-6.819C1065.362,1753.067,1064.869,1750,1063.8,1747.369Z" transform="translate(-801.949 -1593.864)" fill="#efe1de"/><path d="M990.906,1709.617c-.243-.332-.474-.67-.7-1.007-.638-.955-1.054-2.1-1.716-3.034-.835-1.175-2.243-1.965-2.76-3.408,1.074-.443,2.214.334,3.2.732-.2-1.245-2.152-3.191-.87-4.358,1.132.862,2.25,2.224,3.518,2.773.106-1.245-.825-3.494.291-4.394,1.312,1.126,2.028,2.895,3.36,3.977.681-.815,1.417-4.313,2.939-2.706,1.188,1.255.328,4.091,1.265,5.564.649,1.02,2.321,1.441,3.358,2.013,2.182,1.2,5.255,2.615,6.35,5.023,1.38,3.039-4.134,9.87-7.456,8.106a22.236,22.236,0,0,1-4.023-3.142c-.886-.775-1.351-1.926-2.266-2.643-.6-.475-1.442-.652-2.082-1.072A9.533,9.533,0,0,1,990.906,1709.617Z" transform="translate(-778.372 -1575.237)" fill="#f0c0ae"/><g transform="translate(219.253 136.558)"><path d="M1088.262,1810.528c1.507-6.369,1.379-13.453,1.152-19.679-.352-9.6-.7-19.758-5.276-28.4-3.508-6.622-8.721-12.214-16.649-11.847l-14.917.689q-2.863,1.447-5.734,2.889c-2.111,1.066-3.318,5.934-4.073,7.907a84.657,84.657,0,0,0-3.841,12.317c-1.056,4.886,1.74,10.89-2.327,14.906-2.713,2.678-7.641,2.382-10.965,4.148-5.313,2.829-10.087,9.68-9.893,15.85.378,11.91,16.278,11.28,24.224,14.163,4.033,1.464,7.939,3.159,11.963,4.656,3.683,1.371,7.1,3.642,11.193,2.854a48.86,48.86,0,0,0,14.764-5.373C1083.808,1822.207,1086.8,1816.7,1088.262,1810.528Z" transform="translate(-1015.733 -1744.183)" fill="#efe1de"/><path d="M1085.3,1739.748a12.479,12.479,0,0,1,1.81-3.089c2.173-2.629,4.51-2.375,7.6-1.956a113.52,113.52,0,0,1,15.028,2.752c3.487.968,6.854.849,7.567,4.811.564,3.126-.07,6.437-.36,9.557-.345,3.718-1.24,6.1-4.124,8.728-3.009,2.737-6.365,3.531-10.109,4.058-7.367,1.035-15.74.7-19.61-6.619C1080.245,1752.581,1083.129,1744.87,1085.3,1739.748Z" transform="translate(-1055.672 -1734.439)" fill="#9381ba"/></g><path d="M1105.407,1654.53s20.218-24.383,43.784-1.858c19.973,19.1-5.547,41.94-4.452,40.48Z" transform="translate(-850.604 -1542.765)" fill="#aa593b"/><path d="M1127.955,1698c-8.153,11.552-24.4,14.184-36.3,5.867s-14.93-24.421-6.775-35.962c8.149-11.566,24.385-14.182,36.28-5.871S1136.1,1686.448,1127.955,1698Z" transform="translate(-835.455 -1551.25)" fill="#f0c0ae"/><path d="M1196.412,1753.62a8.32,8.32,0,1,1-2.023-11.575A8.274,8.274,0,0,1,1196.412,1753.62Z" transform="translate(-896.383 -1601.565)" fill="#f0c0ae"/><path d="M1149.9,1730.712a3.422,3.422,0,0,1-3.909,2.506,2.986,2.986,0,0,1-2.194-3.8,3.433,3.433,0,0,1,3.911-2.5A3,3,0,0,1,1149.9,1730.712Z" transform="translate(-873.707 -1593.304)" fill="#0d0002"/><path d="M1166.279,1648.819a14.251,14.251,0,0,0-1.239-.916c-2.338-1.532-7.152-3.606-9.791-1.858-2.15,1.425-1.706,4.341-1.569,6.566.345,5.691,1.845,13.615,7.063,16.959a39.672,39.672,0,0,1-.009-5.924c2.27,3.408,4.285,7.292,6.825,10.587,1.488,1.931,8.35,9.24,11.362,6.454.818-.76-1.3-3.909-1.167-4.969C1178.939,1666.557,1173.318,1654.625,1166.279,1648.819Z" transform="translate(-879.66 -1544.128)" fill="#aa593b"/><path d="M1109.633,1704.2a3.425,3.425,0,0,1-3.908,2.507,2.99,2.99,0,0,1-2.2-3.8,3.431,3.431,0,0,1,3.914-2.5A2.993,2.993,0,0,1,1109.633,1704.2Z" transform="translate(-849.401 -1577.301)" fill="#0d0002"/><path d="M1155.387,1746.113a4.653,4.653,0,1,0,5.906-2.92A4.628,4.628,0,0,0,1155.387,1746.113Z" transform="translate(-880.621 -1603.018)" fill="#ec8d9a"/><path d="M1104.771,1734.882l13.985,7.989s-6.557,7.6-12.482,2.96C1102.248,1742.68,1104.771,1734.882,1104.771,1734.882Z" transform="translate(-849.749 -1598.148)" fill="#c1143a"/><path d="M1117.685,1729.905a1.03,1.03,0,0,0,.826-.868c.046-.334.153-.506.214-.536.04-.023.225-.035.575.148a1.029,1.029,0,0,0,.951-1.826,2.583,2.583,0,0,0-2.47-.149,2.62,2.62,0,0,0-1.308,2.078,1.028,1.028,0,0,0,.876,1.162A1.039,1.039,0,0,0,1117.685,1729.905Z" transform="translate(-857.277 -1593.048)" fill="#0d0002"/><path d="M1187.91,1677.786c-.488-.659-.955-1.325-1.386-1.985a.6.6,0,0,1,1-.653c.42.639.871,1.288,1.346,1.927a.6.6,0,1,1-.959.711Zm-3.228-5.115c-.128-.248-.256-.5-.382-.753-.231-.466-.46-.938-.682-1.41a.6.6,0,1,1,1.078-.507c.221.465.446.93.673,1.386.12.247.245.491.369.731a.6.6,0,0,1-.249.8.61.61,0,0,1-.164.058A.6.6,0,0,1,1184.682,1672.671Zm-2.5-5.478c-.306-.765-.587-1.527-.837-2.265a.6.6,0,0,1,.373-.756.592.592,0,0,1,.755.374c.245.719.518,1.462.817,2.207a.6.6,0,0,1-.334.775.74.74,0,0,1-.109.034A.6.6,0,0,1,1182.178,1667.193Zm-1-5.343a.594.594,0,0,1-.637-.55c-.049-.685-.057-1.366-.063-2.09l0-.331a.6.6,0,1,1,1.192-.014l0,.336c0,.7.015,1.366.058,2.013a.6.6,0,0,1-.484.629A.325.325,0,0,1,1181.18,1661.849Z" transform="translate(-895.913 -1551.911)" fill="#b66f50"/><path d="M1210.209,1693.536a.6.6,0,0,1-.608-.586c-.01-.764-.059-1.546-.144-2.325a.595.595,0,1,1,1.183-.13c.09.815.142,1.634.155,2.436a.6.6,0,0,1-.483.594A.465.465,0,0,1,1210.209,1693.536Zm-1.362-6.355c-.182-.745-.4-1.5-.642-2.247a.6.6,0,1,1,1.132-.373c.254.775.48,1.562.667,2.339a.6.6,0,0,1-.438.72l-.031.006A.6.6,0,0,1,1208.848,1687.181Zm-1.921-5.518c-.321-.705-.672-1.41-1.045-2.095a.6.6,0,1,1,1.046-.571c.388.71.75,1.442,1.082,2.173a.593.593,0,0,1-.3.789.744.744,0,0,1-.135.044A.6.6,0,0,1,1206.927,1681.663Zm-2.874-5.1c-.443-.646-.907-1.284-1.387-1.89a.6.6,0,1,1,.938-.739c.495.63.977,1.29,1.434,1.955a.6.6,0,0,1-.158.83.573.573,0,0,1-.224.092A.594.594,0,0,1,1204.053,1676.567Z" transform="translate(-909.228 -1561.228)" fill="#b66f50"/><path d="M1031.611,1878.585c-1.091-5.615-5.12-8.539-10.288-10.25-4.522-1.5-9.5-2-14.037-.284-3.156,1.194-5.674,2.824-6.2,6.332-.549,3.637.289,8.161,2.713,11.007,2.788,3.268,6.856,4.6,10.594,6.346a42.846,42.846,0,0,0,6.279,2.741,38.793,38.793,0,0,1,6,2.153c2.115,1.021,3.847,2.288,6.226,1.2,3.172-1.453,4.365-4.63,4.513-7.9.13-2.948-1.649-4-3.62-6.035C1032.138,1882.193,1032.057,1880.882,1031.611,1878.585Z" transform="translate(-787.539 -1677.871)" fill="#f0c0ae"/><path d="M1048.925,1894.148a.619.619,0,0,0,.545-.969c-.341-.491-8.406-12.045-14.6-12.414a.618.618,0,0,0-.075,1.233c5.6.333,13.576,11.769,13.656,11.884A.613.613,0,0,0,1048.925,1894.148Z" transform="translate(-807.636 -1686.197)" fill="#cb6362"/><path d="M1040.6,1940.824a6.829,6.829,0,0,1,.476-3.357c.99-2.557,4.048-5.033,3.033-8.028-.758-2.24-4.293-3.033-4.275-5.679.02-2.9,5.428-4.21,7.2-5.588,1.795-1.4,3.772-6.711,6.471-5.884,1.179.361,1.483,2.075,2.176,2.955a19.675,19.675,0,0,0,3.09,2.863c7.449,6.057,3.854,11.892-1.763,17.73-2.786,2.894-6.728,8.315-10.99,8.629C1042.742,1944.707,1040.913,1943.114,1040.6,1940.824Z" transform="translate(-811.025 -1705.171)" fill="#7c72b1"/><path d="M1145.886,1879.355a.447.447,0,0,0,.288-.083.452.452,0,0,0,.109-.63c-3-4.245-12.082-5.326-16.418-3.005a.453.453,0,1,0,.428.8c3.992-2.138,12.555-1.087,15.251,2.728A.453.453,0,0,0,1145.886,1879.355Z" transform="translate(-865.222 -1682.38)" fill="#b3a8a4"/><path d="M1071.327,1911.176c2.341.923,5.115,1.642,6.507-.517,1.073-1.666,2.67-2.788,3.966-4.294.354-.411,3.876-5.125,3.463-5.4a10.378,10.378,0,0,0,7.923,1.946c12.418-1.9,5.648-17.789.229-23.311-2.8-2.851-6.235-5.042-10.355-4.119-5.111,1.149-7.442,6.231-10.238,10.114a45,45,0,0,0-3.907,6.495c-.747,1.537-.986,3.281-1.651,4.85a15.746,15.746,0,0,1-3.688,5.583c-3.043,3.029,3.317,6.811,5.606,7.754C1069.8,1910.53,1070.539,1910.865,1071.327,1911.176Z" transform="translate(-824.868 -1682.879)" fill="#f0c0ae"/><path d="M1024.309,1913.317a.659.659,0,0,1-.639-.39l-2.305-5.2a.658.658,0,0,1,1.2-.532l2.3,5.2a.657.657,0,0,1-.334.867A.649.649,0,0,1,1024.309,1913.317Z" transform="translate(-799.844 -1701.911)" fill="#cb6362"/><path d="M1009.479,1721.469a.5.5,0,0,0,.229-.826,5.1,5.1,0,0,1-.994-2.789.669.669,0,0,1,.142-.449.3.3,0,0,1,.263-.079c.312.041,1.029.4,2.353,2.361a.5.5,0,0,0,.829-.559c-1.21-1.793-2.18-2.681-3.052-2.794a1.3,1.3,0,0,0-1.05.319,1.564,1.564,0,0,0-.485,1.155,6.1,6.1,0,0,0,1.268,3.524A.5.5,0,0,0,1009.479,1721.469Z" transform="translate(-791.637 -1586.946)" fill="#ec7a5f"/><path d="M969.209,1946.634c7.1,1.887,13.976,5.187,21.237,5.108a24.761,24.761,0,0,0,8.028-1.412c1.724-.628,3.5-1.793,5.311-2.121,3.735-.67,3.428,3.49,1.4,5.478a19.641,19.641,0,0,1-10.516,5.4c2.588,1.205,15.793,5.5,12.974,9.808-2.655,4.064-8.79-.284-11.933.076-.06,1.586.673,3.424.025,4.932-1.273,2.955-3.357.568-5.547.454-.414,1.516-1.182,5.22-3.151,5.539-1.409.229-3.558-1.745-5.022-2.232.181.062-2.454,2.259-3.3,2.261-1.418,0-2.714-1.067-3.779-1.9-2.745-2.138-5.631-4.085-8.4-6.25-2.713-2.126-5.573-4.092-8.117-6.378a14.563,14.563,0,0,0-6.834-3.458c-1.472-.3-3.1-.1-4.6-.286-1.554-.191-5.734-.1-7.036-1.234-1.062-.923-.572-3.014-.631-4.37-.092-2.071-1.192-6.322-.2-8.247,1.319-2.556,9.835-1.615,12.513-1.868,2.643-.25,5.321-.444,7.986-.551A32.1,32.1,0,0,1,969.209,1946.634Z" transform="translate(-749.99 -1725.185)" fill="#e2a775"/><g transform="translate(174.862 202.591)"><g transform="translate(0 0)"><path d="M1004.73,1942.652l9.491-17.381s-42.434-19.521-53.309-21.372c-11.814-2.009-13.469-1.361-25.184-2.585a74.09,74.09,0,0,0-22.665,1.544c-2.5.524-8.5,1.057-9.219,4.277-.756,3.39,3.774,3.6,4,6.593.12,1.571-2.631,2.767-2.491,4.665.18,2.477,3.367,2.251,3.922,4.216s-3.015,3.577-1.449,5.732c.621.855,4.069,1.154,5.128,1.39-.564,3.727-.367,5.765,3.073,6.967s7.359,1.039,10.723,2.4c1.043-3.654-3.369-5.881-6.093-6.656-.06-1.193-.126-2.47-.181-3.561,4.276-1.691,9.765-.019,14.347-.784a84.933,84.933,0,0,0,11.428-3.119c6.433-2.035,10.936-4.284,17.826-2.569,4.662,1.16,8.543,4.065,12.811,6.158C986.241,1933.146,995.651,1937.523,1004.73,1942.652Z" transform="translate(-903.759 -1901.005)" fill="#edbf98"/></g></g><path d="M890.353,1915.376a.7.7,0,0,0,.072.022c1.566.376,5.045-1.635,5.841-2.209.411-.3.672-.553.7-.92a.727.727,0,0,0-1.368-.4c-.62.593-4.023,2.312-4.839,2.116a.726.726,0,0,0-.41,1.391Z" transform="translate(-720.512 -1704.737)" fill="#cb6362"/><path d="M896.946,1935.986a.726.726,0,0,0,.559-.032,19.231,19.231,0,0,0,5.721-4.709.726.726,0,1,0-1.232-.767,18.414,18.414,0,0,1-5.123,4.17.727.727,0,0,0,.076,1.339Z" transform="translate(-724.492 -1715.995)" fill="#cb6362"/><path d="M905.473,1954.729a.729.729,0,0,0,.874-.33,11.957,11.957,0,0,1,1.863-2.06c1.1-1.055,1.654-1.584,1.5-2.228a.869.869,0,0,0-.593-.619.729.729,0,0,0-.911.477.747.747,0,0,0-.021.335c-.22.256-.649.668-.982.986a12.393,12.393,0,0,0-2.126,2.4.728.728,0,0,0,.278.991A.848.848,0,0,0,905.473,1954.729Z" transform="translate(-729.638 -1727.659)" fill="#cb6362"/><path d="M1104.242,1950.772a11.563,11.563,0,0,1-5.142,5.526,22.259,22.259,0,0,1-6.426,1.691,14.488,14.488,0,0,1-10.755-2.117c-2.674-1.637-5.441-3.139-8.154-4.708-6.619-3.828-14.305-5.741-20.9-9.6-4.815-2.819-9.63-5.644-14.405-8.532-1.091-.657-13.109-5.34-13.491-6.705-.287-1.024,9.473-20.76,9.473-20.76.313.107,7.912,2.929,8.224,3.034l41.8,14.236a25.959,25.959,0,0,0,5.866,1.73,17.293,17.293,0,0,1,5.591,1.368,27.41,27.41,0,0,1,9.506,7.26C1108.983,1937.342,1106.4,1946.465,1104.242,1950.772Z" transform="translate(-802.049 -1701.165)" fill="#4a98d4"/><g transform="translate(225.974 134.428)"><path d="M1077.019,1777.266c-6.129-2.177-12.5.859-14.235,6.784s1.832,12.485,7.961,14.661,12.5-.867,14.23-6.784S1083.142,1779.44,1077.019,1777.266Zm-4.687,16.022a6.078,6.078,0,0,1-3.933-7.245,5.3,5.3,0,0,1,7.034-3.352,6.071,6.071,0,0,1,3.927,7.243A5.3,5.3,0,0,1,1072.332,1793.287Z" transform="translate(-1050.589 -1757.732)" fill="#38b1bf"/><g transform="translate(0 0)"><path d="M1064.457,1748.317c2.854,5.064.362,11.4-5.553,14.156s-13.024.906-15.875-4.148-.364-11.39,5.554-14.15S1061.613,1743.268,1064.457,1748.317Z" transform="translate(-1038.216 -1737.411)" fill="#4eb6bf"/><g transform="translate(14.038)"><path d="M1075.954,1732.445c-.081,1.912-2.2,9.01-4.37,9.059s-3.559-6.969-3.482-8.881a4.02,4.02,0,0,1,4.071-3.556A3.444,3.444,0,0,1,1075.954,1732.445Z" transform="translate(-1068.098 -1729.066)" fill="#4eb6bf"/></g><g transform="translate(0 6.925)"><path d="M1037.314,1746.949c1.741.985,7.593,6.294,6.909,8.285s-7.648-.085-9.386-1.069a4.647,4.647,0,0,1-1.914-5.393A2.98,2.98,0,0,1,1037.314,1746.949Z" transform="translate(-1032.688 -1746.533)" fill="#4eb6bf"/></g><path d="M1073.738,1768.561c1.073,1.953-.622,4.772-3.787,6.305s-6.6,1.185-7.669-.768.627-4.771,3.792-6.3S1072.671,1766.609,1073.738,1768.561Z" transform="translate(-1050.356 -1751.865)" fill="#fff"/><path d="M1055.176,1766.354a1.449,1.449,0,0,1-.58,2.046,1.65,1.65,0,0,1-2.116-.739,1.455,1.455,0,0,1,.584-2.047A1.635,1.635,0,0,1,1055.176,1766.354Z" transform="translate(-1044.512 -1751.036)" fill="#42373b"/><path d="M1079.863,1754.431a1.456,1.456,0,0,1-.583,2.042,1.651,1.651,0,0,1-2.114-.74,1.449,1.449,0,0,1,.586-2.046A1.636,1.636,0,0,1,1079.863,1754.431Z" transform="translate(-1059.41 -1743.838)" fill="#42373b"/><path d="M1073.986,1777.324a.565.565,0,0,0,.188.11.478.478,0,0,0,.63-.3l.467-1.638,1.694.592a.474.474,0,0,0,.628-.3.543.543,0,0,0-.357-.647l-2.186-.762a.505.505,0,0,0-.389.017.46.46,0,0,0-.24.285l-.606,2.114A.535.535,0,0,0,1073.986,1777.324Z" transform="translate(-1057.501 -1756.391)" fill="#42373b"/><path d="M1074.661,1771.8c.274.482-.276,1.255-1.226,1.714s-1.937.431-2.207-.065.282-1.254,1.23-1.71S1074.39,1771.3,1074.661,1771.8Z" transform="translate(-1055.908 -1754.62)" fill="#42373b"/></g></g><path d="M1085.115,1820.493c3.382,5.6,12.629,1.606,13.861-4.507.286-1.415.508-2.168-.327-3.564-.277-.469-3.047-3.127-3.589-2.479-1.111,1.329.24,2.231.446,3.66a14.342,14.342,0,0,0-4.557-2.6c-.889-.223-.968-1.427-1.768.055a1.369,1.369,0,0,0,.785,2.165c-2.73-1.506-4.508-.853-2.375,2.014-2.474-2.322-2.665.5-1.1,2.173-2.007-1.713-2.625-.47-2.216,1.063A7.81,7.81,0,0,0,1085.115,1820.493Z" transform="translate(-837.779 -1643.391)" fill="#f0c0ae"/><path d="M1121.831,1846.3a17.959,17.959,0,0,0,2.928-.233,21.96,21.96,0,0,0,13.746-7.9.536.536,0,1,0-.855-.648,21.169,21.169,0,0,1-13.067,7.488,20.213,20.213,0,0,1-9.94-1.078,17.709,17.709,0,0,1-4.562-2.728c-.758-.562-1.541-1.145-2.37-1.659a.536.536,0,0,0-.566.911c.791.491,1.556,1.059,2.3,1.607a18.779,18.779,0,0,0,4.84,2.878A22.521,22.521,0,0,0,1121.831,1846.3Z" transform="translate(-851.5 -1659.968)" fill="#b3a8a4"/><path d="M1129.353,1823.138a.527.527,0,0,0,.375-.152.537.537,0,0,0,.009-.759c-1.444-1.477-5.488-1.877-7.22-1.838a.537.537,0,0,0,.023,1.073c2.031-.048,5.4.458,6.429,1.515A.534.534,0,0,0,1129.353,1823.138Z" transform="translate(-860.615 -1649.756)" fill="#b3a8a4"/><path d="M1138.673,1808.677a.545.545,0,0,0,.3-.09,48,48,0,0,0,5.089-4.091,38.929,38.929,0,0,1,8.441-6.126.536.536,0,0,0-.482-.959,39.793,39.793,0,0,0-8.669,6.28,46.828,46.828,0,0,1-4.974,4,.536.536,0,0,0,.3.982Z" transform="translate(-870.358 -1635.854)" fill="#b3a8a4"/><path d="M1114.345,1962.975c-7.343,0-18.533-3.854-33.4-11.514-13.981-7.205-26.257-15.292-26.38-15.373a1.142,1.142,0,1,1,1.259-1.905c.121.08,12.31,8.107,26.183,15.255,18.114,9.335,30.805,12.976,36.7,10.528,14.589-6.056,31.918-48.763,32.092-49.194a1.142,1.142,0,1,1,2.12.852c-.722,1.795-17.865,44.03-33.336,50.452A13.7,13.7,0,0,1,1114.345,1962.975Z" transform="translate(-819.609 -1703.875)" fill="#3874aa"/><path d="M864.795,1790s14.287,5.886,21.835,25.385,9.856,89.9,9.856,89.9l-20,1.074Z" transform="translate(-705.38 -1631.417)" fill="#e4a643"/><path d="M794.684,1925.349l-14.342-106.166.07-31.125-18.857-16.065-32.857.526-20.562,16.807,4.8,90.015-7.065,46.969Z" transform="translate(-609.462 -1620.547)" fill="#e4a643"/><path d="M740.639,1656.3c-2.994,2.676,4.734,4.309,6.372,4.113,4.118-.5,9.144-4.99,10.872-8.717,3.405-7.359-1.114-20.834-8.024-24.677a15.6,15.6,0,0,0-12.024-1.637,4.741,4.741,0,0,0-2.487,7c-5.457-4.524-10.219,1.168-11.033,3.709-.964,3-.241,8.819,3.964,8.532-2.353.835-1.7,5.28-.9,7.1,2.177,4.934,8.488,5.646,13.068,4.993C740.479,1656.762,740.669,1656.273,740.639,1656.3Z" transform="translate(-620.363 -1531.715)" fill="#c6654d"/><path d="M712.733,1534.668c3.845,16.634,21.726,30.82,21.726,30.82l34.1-2.6s14.087-14.935,12.744-29.791a87.167,87.167,0,0,0-2.327-14.278c-1.336-5.037-3.262-9.366-5.942-12.179-6.494-6.82-15.841-9.258-23.134-10.062a59.274,59.274,0,0,0-8.214-.29c-1.78.051-2.853.2-2.853.2l-.155.045-6.883,2.316a27.808,27.808,0,0,0-2.6,1.584C722.888,1504.629,707.94,1513.937,712.733,1534.668Z" transform="translate(-613.039 -1454.122)" fill="#c6654d"/><path d="M736.051,1583.9c.716,15.41,14.129,27.313,29.958,26.572s28.072-13.837,27.344-29.247-14.124-27.307-29.947-26.566C747.576,1555.384,735.33,1568.478,736.051,1583.9Z" transform="translate(-627.656 -1489.353)" fill="#edbf98"/><path d="M701.587,1615.893a9.083,9.083,0,1,0,8.657-9.505A9.09,9.09,0,0,0,701.587,1615.893Z" transform="translate(-606.868 -1520.589)" fill="#edbf98"/><path d="M779.982,1539.946a52.441,52.441,0,0,1,2.739,8.942c.34,1.745,1.662,5.855.466,7.387-2.013-2.378-3.011-5.576-5.327-7.8a75.335,75.335,0,0,0-9.847-8.187,16.381,16.381,0,0,0,1.7,5.544c-4.161-1.462-8.318-5.147-11.546-8.058-2.5,4.554-7.858,7.968-11.855,10.926-3.505,2.6-8.711,6.679-13.009,7.658,1.339-3.776,3.722-7.237,3.941-11.4-2.534,3.4-3.761,7.878-6.393,11.4-2.315,3.1-4.22,6.058-7.528,7.969-3.514-6.211-6.37-11.9-5.431-19.557.708-5.74,3.773-11.178,7.235-15.556,3.411-4.316,8.325-6.781,13.444-8.38,1.691-.53,4.194-.187,5.76-1.207a8.515,8.515,0,0,1,4.487-1.368c8.142-.485,15.764,2.656,22.215,7.708C775.71,1529.616,777.782,1534.334,779.982,1539.946Z" transform="translate(-616.609 -1467.371)" fill="#c6654d"/><path d="M833.893,1603.448a2.875,2.875,0,0,0,1.635,3.55,2.528,2.528,0,0,0,3.283-1.716,2.869,2.869,0,0,0-1.647-3.546A2.522,2.522,0,0,0,833.893,1603.448Z" transform="translate(-686.648 -1517.693)" fill="#0d0608"/><path d="M781.854,1607.047a2.878,2.878,0,0,0,1.636,3.549,2.531,2.531,0,0,0,3.288-1.716,2.877,2.877,0,0,0-1.65-3.545A2.524,2.524,0,0,0,781.854,1607.047Z" transform="translate(-655.24 -1519.866)" fill="#0d0608"/><path d="M814.14,1619.689a.682.682,0,0,0,.475-.245c.224-.273.478-.537.728-.788a4.124,4.124,0,0,0,1.608-3.394,27.378,27.378,0,0,0-2.176-5.612c-.5-1.109-.975-2.156-1.128-2.621a.676.676,0,0,0-1.283.423c.176.532.642,1.564,1.181,2.756a32.038,32.038,0,0,1,2.064,5.188c.09.919-.386,1.455-1.229,2.319-.27.271-.546.556-.807.873a.675.675,0,0,0,.092.951A.682.682,0,0,0,814.14,1619.689Z" transform="translate(-673.714 -1520.701)" fill="#0d0608"/><path d="M714.574,1509.646l2.646,7.341c.354-1.332.8-2.671,1.2-3.814a86.459,86.459,0,0,1,3.982-10.126c3.3-7.114,7.737-14.46,14.5-18.977,10.878-7.253,24.835-2.7,33.876,5.462a33.517,33.517,0,0,1,4.906,5.495,73.3,73.3,0,0,1,5.917,9.5c.479.923.929,1.88,1.378,2.869a61.959,61.959,0,0,0-2.177-12.068c-1.513-2.029-6.752-10.641-15.248-15.416a37.959,37.959,0,0,0-10.138-3.756c-2.236-.519-6.765-1-8.81.32a14.1,14.1,0,0,0,4.969-5.6.766.766,0,0,0,.173-.268c2.687-5.348,2.689-12.234-.691-16.939-3.269,3.031-5.676,8.771-6.979,12.939a18.851,18.851,0,0,0-.688,3.463,2.678,2.678,0,0,0-.029.515,59.842,59.842,0,0,1-.766,7.343,23.53,23.53,0,0,0-2.242-7.1,21.752,21.752,0,0,0-1.914-3.224c-3.175-4.464-15.075-9.731-15.075-9.731s-2.487-2.727.629,9.109A11.29,11.29,0,0,0,728,1472.86a16.962,16.962,0,0,0,2.87,1.872,31.177,31.177,0,0,0,8.838,2.929c-9.238-.892-16.463,9.869-19.94,16.738A63.049,63.049,0,0,0,714.574,1509.646Z" transform="translate(-614.712 -1428.422)" fill="#4c8fc4"/><path d="M782.95,1718.484l16.63-.34s-1.058-.374-5.392-4.46-6.387-32.931-6.387-32.931h-5.361v.056l0-.056h-5.359s-2.042,28.845-6.382,32.931l-4.341,4.086,15.578.714v.051l.508-.023.509.023Z" transform="translate(-645.965 -1565.479)" fill="#edbf98"/><path d="M782.376,1551.167a.824.824,0,0,1,.032-1.164,9.488,9.488,0,0,0,1.141-1.329.821.821,0,1,1,1.332.961,11.067,11.067,0,0,1-1.343,1.56.81.81,0,0,1-.508.222A.825.825,0,0,1,782.376,1551.167Zm3.813-5.429a.825.825,0,0,1-.4-1.094c.154-.328.3-.652.44-.96l.35-.763a.822.822,0,1,1,1.5.672l-.354.774c-.14.311-.288.637-.443.973a.832.832,0,0,1-.692.472A.8.8,0,0,1,786.189,1545.738Zm2.6-6.146a.821.821,0,0,1-.539-1.028c.184-.6.347-1.2.486-1.787a.823.823,0,1,1,1.6.378c-.146.618-.321,1.256-.519,1.894a.824.824,0,0,1-.729.577A.811.811,0,0,1,788.792,1539.592Zm1.35-6.526a.819.819,0,0,1-.81-.835c.006-.5-.006-.993-.04-1.48-.009-.112-.018-.223-.026-.339a.815.815,0,0,1,.746-.889.126.126,0,0,0,.017-.005.825.825,0,0,1,.876.75c.011.122.02.245.028.371.037.531.051,1.078.042,1.619a.824.824,0,0,1-.764.808A.375.375,0,0,1,790.142,1533.066Z" transform="translate(-655.499 -1474.198)" fill="#e17632"/><path d="M743.384,1566.615a.827.827,0,0,1,.048-1.163c.075-.072.15-.146.226-.221a.822.822,0,0,1,1.184,1.14c-.1.1-.192.195-.3.288a.819.819,0,0,1-.5.219A.834.834,0,0,1,743.384,1566.615Zm2.753-4.244a.822.822,0,0,1-.576-1.011c.154-.565.287-1.144.419-1.717l.026-.1a.822.822,0,1,1,1.6.374l-.025.1c-.137.589-.276,1.19-.437,1.779a.824.824,0,0,1-.735.6A.836.836,0,0,1,746.137,1562.371Zm1.7-6.457a.821.821,0,0,1-.56-1.019q.268-.924.552-1.844a.822.822,0,1,1,1.57.488q-.278.905-.545,1.817a.82.82,0,0,1-1.016.558Zm2.069-6.363a.833.833,0,0,1-.4-1.087c.255-.586.514-1.161.78-1.729a.822.822,0,0,1,1.492.69c-.26.561-.514,1.126-.759,1.684-.01.017-.027.063-.036.08a.8.8,0,0,1-.665.44A.837.837,0,0,1,749.9,1549.551Zm2.871-6.01a.826.826,0,0,1-.32-1.12q.47-.848.972-1.677a.823.823,0,1,1,1.409.852c-.327.532-.638,1.076-.943,1.625a.816.816,0,0,1-.662.42A.8.8,0,0,1,752.774,1543.541Zm3.544-5.651a.827.827,0,0,1-.144-1.156c.4-.514.817-1.019,1.233-1.507a.823.823,0,0,1,1.247,1.073c-.4.467-.8.952-1.182,1.443a.8.8,0,0,1-.593.319A.862.862,0,0,1,756.318,1537.89Z" transform="translate(-631.971 -1477.473)" fill="#e17632"/><path d="M848.576,1563.356a16.766,16.766,0,0,0-.391-1.782.828.828,0,0,1,.579-1.009.82.82,0,0,1,1.009.579,19.06,19.06,0,0,1,.429,1.943.826.826,0,0,1-.68.946.735.735,0,0,1-.077.007A.826.826,0,0,1,848.576,1563.356Zm-1.992-6.131c-.254-.554-.524-1.121-.812-1.687a.822.822,0,1,1,1.466-.746c.3.588.584,1.175.843,1.753a.822.822,0,0,1-.408,1.089.791.791,0,0,1-.283.073A.82.82,0,0,1,846.584,1557.225Zm-3.155-5.75c-.336-.531-.682-1.051-1.04-1.567a.821.821,0,1,1,1.349-.935c.37.531.73,1.069,1.076,1.614a.82.82,0,0,1-.635,1.262A.825.825,0,0,1,843.429,1551.474Zm-3.891-5.294c-.4-.483-.822-.954-1.235-1.408a.821.821,0,1,1,1.209-1.111c.432.466.862.958,1.285,1.456a.823.823,0,0,1-1.258,1.062Zm-4.612-4.593c-.5-.4-1-.761-1.476-1.072a.822.822,0,0,1,.89-1.381c.52.338,1.064.73,1.613,1.167a.819.819,0,0,1,.129,1.155.792.792,0,0,1-.584.307A.82.82,0,0,1,834.926,1541.587Z" transform="translate(-686.233 -1479.924)" fill="#e17632"/><path d="M757.424,1624.926a3.291,3.291,0,1,0,3.055-3.507A3.286,3.286,0,0,0,757.424,1624.926Z" transform="translate(-640.57 -1529.661)" fill="#db6b69"/><path d="M856.5,1618.067a3.289,3.289,0,1,0,3.054-3.509A3.286,3.286,0,0,0,856.5,1618.067Z" transform="translate(-700.37 -1525.521)" fill="#db6b69"/><path d="M762.087,1627.637a.627.627,0,0,0,.417-.2c.627-.671,2.048-2.319,1.626-3.107a1.039,1.039,0,0,0-.637-.517c-.759-.231-1.859.245-3.27,1.026l-.195.106-.148.077c.027-.042.053-.082.081-.127.059-.089.125-.191.193-.3.355-.563,1.087-1.729,1.641-1.766l.038,0a.63.63,0,0,0-.065-1.258c-1.23.057-2.1,1.434-2.682,2.356l-.179.287c-.471.721-.93,1.538-.432,2.084s1.364.172,2.137-.228l.219-.12a9.5,9.5,0,0,1,1.925-.883,13.207,13.207,0,0,1-1.169,1.514.628.628,0,0,0,.028.892A.639.639,0,0,0,762.087,1627.637Z" transform="translate(-641.079 -1529.757)" fill="#d55861"/><path d="M860.462,1620.831a.622.622,0,0,0,.413-.2c.494-.519,2.071-2.276,1.641-3.107a1.048,1.048,0,0,0-.646-.52c-.761-.229-1.856.248-3.264,1.024l-.2.111c-.05.026-.1.048-.145.074.024-.04.05-.081.076-.125l.187-.3c.36-.569,1.095-1.75,1.667-1.778a.63.63,0,0,0-.047-1.259c-1.221.037-2.107,1.446-2.688,2.368l-.17.278c-.473.72-.933,1.536-.438,2.084s1.364.171,2.136-.229l.232-.125a9.319,9.319,0,0,1,1.917-.878,12.678,12.678,0,0,1-1.173,1.511.63.63,0,0,0,.5,1.062Z" transform="translate(-700.455 -1525.647)" fill="#d55861"/><path d="M798.47,1695.36l6.774-.468a.822.822,0,1,0-.115-1.64l-6.771.467a.823.823,0,1,0,.113,1.641Z" transform="translate(-664.818 -1573.021)" fill="#b35d55"/><path d="M653.01,2055.827c0,6.017-5.576,19.694-10.691,19.694s-9.268-4.873-9.268-10.886,4.151-10.9,9.268-10.9S653.01,2049.809,653.01,2055.827Z" transform="translate(-565.508 -1789.837)" fill="#edbf98"/><path d="M951.591,2081.877c0,6.017-5.575,19.7-10.69,19.7s-9.268-4.875-9.268-10.888,4.151-10.894,9.268-10.894S951.591,2075.858,951.591,2081.877Z" transform="translate(-745.721 -1805.56)" fill="#e2847c"/><path d="M678.066,1798.191s-5.608-.615-15.787,17.654-20.812,87.055-20.812,87.055l16.732,5.28Z" transform="translate(-570.588 -1636.358)" fill="#e4a643"/><g transform="translate(0 169.085)"><path d="M491.647,1827.387c-5.694-3.581-20.594-10.808-20.39-8.448.006.3.135.867.1,1.04-2.487-1.52-5.632-3.614-8.613-3.487-.821,1.677,6.093,5.277,7.276,6.252a12.376,12.376,0,0,0-2.83-.272c-.236,1.01.836,1.534,1.556,1.987,3.324,2.088,5.742,3.53,9.079,5.605,1.736,1.077,3.363,2.3,5.021,3.5.358.259,2.039,1.084,1.634,1.726-.351.547-2.259-.226-2.748-.419a12.653,12.653,0,0,1-3.284-2.05c-1.425-1.216-3.8-3.2-5.832-2.7-1.739.429-.244,1.312.715,2.079,1.192.945,2.445,1.763,3.578,2.768.891.794,1.618,1.981,2.558,2.651,1.544,1.1,4.1,1.759,5.864,2.491,2.382.992,4.78,1.8,7.066,3.009,1.447.761,3.1,1.168,4.377,2.236,1.26,1.061,2.542,2.186,3.8,3.28a45.922,45.922,0,0,1,4.478,4.454c2.592,2.961,3.938,7.064,5.571,10.536,2.1-1.419,5.107-1.419,7.537-2.251a51.521,51.521,0,0,0-2.586-6.668c-.666-1.47-1.512-2.479-1.9-4.068s-1.281-3.178-1.336-4.847c-.047-1.5.576-2.851.618-4.268.043-1.292-.808-2.578-1.332-3.729-.619-1.358-1.274-2.685-1.856-4.079-1.157-2.773-3-5.28-3.623-8.266-.223-1.071-1.587-5.485-2.382-2.221-.667,2.746-.294,5.54-.783,8.24-.318,1.746-1.915.8-3.291.226A54.549,54.549,0,0,1,491.647,1827.387Z" transform="translate(-462.678 -1816.487)" fill="#edbf98"/><path d="M598.1,1973.315,573.06,1899.2l5.767-7.355,32.132,76.3Z" transform="translate(-529.3 -1861.97)" fill="#edbf98"/></g><path d="M501.683,1842.9a.809.809,0,0,1-.353-.082l-20.445-9.76a.823.823,0,0,1,.709-1.485l20.444,9.764a.822.822,0,0,1-.356,1.564Z" transform="translate(-473.385 -1656.456)" fill="#c06060"/><path d="M508.349,1837.067a.87.87,0,0,1-.353-.08l-20.445-9.76a.823.823,0,0,1,.707-1.487L508.7,1835.5a.815.815,0,0,1,.386,1.094A.824.824,0,0,1,508.349,1837.067Z" transform="translate(-477.407 -1652.939)" fill="#c06060"/><path d="M890.569,1936.369a.922.922,0,0,1-.919-.849l-6.446-82.908a.921.921,0,1,1,1.836-.143l6.447,82.908a.921.921,0,0,1-.846.99Z" transform="translate(-716.489 -1668.606)" fill="#d18700"/><path d="M994.436,1794.046a1.059,1.059,0,0,1-1.058-1.032l-1.361-53.08a1.059,1.059,0,0,1,1.032-1.086h.028a1.06,1.06,0,0,1,1.059,1.032l1.361,53.08a1.059,1.059,0,0,1-1.032,1.086Z" transform="translate(-782.166 -1600.542)" fill="#3874aa"/><path d="M813.045,1660.825c0,1.251-.71,2.266-1.586,2.266s-1.587-1.015-1.587-2.266.711-2.267,1.587-2.267S813.045,1659.573,813.045,1660.825Z" transform="translate(-672.23 -1552.082)" fill="#b31938"/><path d="M1083.542,1581.981a.755.755,0,0,1-.752-.7c-.01-.129-.016-.26-.016-.391a4.679,4.679,0,1,1,9.355-.22.755.755,0,1,1-1.508.064,3.17,3.17,0,1,0-6.336.156c0,.092,0,.184.011.274a.755.755,0,0,1-.694.811Z" transform="translate(-836.944 -1502.283)" fill="#c1143a"/></g><g transform="matrix(-0.485, 0.875, -0.875, -0.485, 218.468, 99.053)"><path d="M0,0S26.7,5.172,21.653,9.353C17.533,12.761,0,0,0,0Z" transform="translate(0.822 0.822)" fill="#fff"/><path d="M.339,1.486A.821.821,0,0,1,.977.015C1.031.026,6.39,1.069,11.8,2.572,21.962,5.4,23.557,7.362,23.871,8.6A2.088,2.088,0,0,1,23,10.808a3.8,3.8,0,0,1-2.486.767h0C14.271,11.574.9,1.9.339,1.486ZM20.511,9.931a2.24,2.24,0,0,0,1.44-.39c.384-.318.342-.485.328-.54-.083-.325-1-2.089-10.912-4.844C8.983,3.495,6.608,2.922,4.7,2.49,9.083,5.382,16.6,9.932,20.511,9.931Z" transform="translate(0 0)" fill="#0d0002"/></g><g transform="matrix(-0.485, 0.875, -0.875, -0.485, 204.914, 99.155)"><path d="M0,0S22.6,15.14,16.316,17.029C11.2,18.571,0,0,0,0Z" transform="translate(0.821 0.821)" fill="#fff"/><path d="M.118,1.246A.821.821,0,0,1,1.278.139c.046.031,4.577,3.073,8.977,6.56,8.266,6.551,8.971,8.982,8.783,10.239a2.089,2.089,0,0,1-1.664,1.7,3.057,3.057,0,0,1-.877.126h0C10.844,18.763,1.2,3.039.118,1.246ZM16.5,17.12a1.41,1.41,0,0,0,.4-.056c.478-.144.5-.314.511-.37.05-.332-.109-2.313-8.171-8.7C7.289,6.443,5.308,4.984,3.715,3.842,7.793,9.966,13.524,17.12,16.5,17.12Z" transform="translate(0 0)" fill="#0d0002"/></g><g transform="matrix(-0.485, 0.875, -0.875, -0.485, 209.755, 84.694)"><path d="M0,0S22.594,15.14,16.316,17.033C11.2,18.573,0,0,0,0Z" transform="translate(0.822 0.821)" fill="#fff"/><path d="M.118,1.245A.821.821,0,0,1,1.278.139c.046.03,4.578,3.073,8.977,6.56,8.267,6.551,8.972,8.982,8.784,10.241a2.09,2.09,0,0,1-1.665,1.7,3.017,3.017,0,0,1-.875.126h0C10.844,18.766,1.2,3.039.118,1.245ZM16.5,17.123a1.424,1.424,0,0,0,.4-.056c.477-.144.5-.315.511-.371.049-.332-.11-2.314-8.172-8.7C7.288,6.443,5.307,4.983,3.714,3.841,7.793,9.967,13.523,17.123,16.5,17.123Z" transform="translate(0 0)" fill="#0d0002"/></g><path d="M2705.323,322.632c-.637,1.7-3.538,3.258-6.6,3.533-3.042.275-5.522-.8-6.8-2.946a7.871,7.871,0,0,1-.739-5.008,11.025,11.025,0,0,1-5.142.71,8.173,8.173,0,0,1-5.016-2.558c-6.96,2.6-18.8,4.583-25.118-2.405-4.482-4.962-5.195-12.878-2-22.292,4.561-13.47,15.695-25.8,24.815-27.488a.756.756,0,0,1,.278,1.487c-8.642,1.6-19.254,13.481-23.663,26.486-3,8.872-2.4,16.255,1.7,20.793,5,5.531,15.046,5.051,22.994,2.18a13.361,13.361,0,0,1-1.341-2.494c-2.987-7.188,4.679-20.137,12.327-23.829,4.174-2.015,7.795-.962,9.929,2.893a8.246,8.246,0,0,1,.434,6.931c-2.556,7.411-13.6,14.86-18.822,17.126a6.571,6.571,0,0,0,3.674,1.67,10.121,10.121,0,0,0,5.326-.974,11.083,11.083,0,0,1,2.348-4.454c1.572-1.678,3.437-2.088,5.252-1.157a.756.756,0,0,1,.264,1.123,19.351,19.351,0,0,1-6.567,5.524,7.273,7.273,0,0,0,.372,4.962c1.33,2.229,3.932,2.345,5.366,2.215,2.585-.232,4.942-1.54,5.321-2.555a.462.462,0,0,0-.13-.555.756.756,0,1,1,1.091-1.046,1.962,1.962,0,0,1,.455,2.13Zm-25.243-10.583a11.663,11.663,0,0,0,1.4,2.513l.335-.139c4.311-1.827,15.655-9.109,18.129-16.29a6.779,6.779,0,0,0-.328-5.706c-1.767-3.194-4.443-3.956-7.949-2.265-6.167,2.978-12.6,12.831-12.123,19.5A7.667,7.667,0,0,0,2680.081,312.049Zm17.46-.163a2.971,2.971,0,0,0-2.54,1.141,8.2,8.2,0,0,0-1.484,2.354A18.2,18.2,0,0,0,2697.541,311.886Z" transform="translate(-2629.207 -193.642)" fill="#0d0002"/></g></g></svg>