<svg xmlns="http://www.w3.org/2000/svg" width="132.5" height="115.198" viewBox="0 0 132.5 115.198"><g transform="translate(197.13 -176.423)"><ellipse cx="57.599" cy="57.599" rx="57.599" ry="57.599" transform="translate(-197.13 176.423)" fill="red"/><path d="M-28.992-14.122a1.278,1.278,0,0,1-.92-.379,1.222,1.222,0,0,1-.391-.909v-.069a1.259,1.259,0,0,1,.391-.92,1.259,1.259,0,0,1,.92-.391h9.8a1.259,1.259,0,0,1,.92.391,1.259,1.259,0,0,1,.391.92v.069a1.222,1.222,0,0,1-.391.909,1.278,1.278,0,0,1-.92.379h-3.082q-.184,0-.184.207v12.6a1.259,1.259,0,0,1-.391.92,1.259,1.259,0,0,1-.92.391h-.644a1.259,1.259,0,0,1-.92-.391,1.259,1.259,0,0,1-.391-.92v-12.6q0-.207-.184-.207Zm17.871,12.88-4.761-14.306a.889.889,0,0,1,.115-.851.879.879,0,0,1,.759-.391h.828a1.743,1.743,0,0,1,1.058.357,1.581,1.581,0,0,1,.621.908L-8.982-3.174a.02.02,0,0,0,.023.023.02.02,0,0,0,.023-.023l3.565-12.374a1.661,1.661,0,0,1,.633-.9,1.731,1.731,0,0,1,1.046-.345h.736A.879.879,0,0,1-2.2-16.4a.889.889,0,0,1,.115.851L-6.843-1.242a1.786,1.786,0,0,1-.656.9A1.766,1.766,0,0,1-8.568,0H-9.4a1.731,1.731,0,0,1-1.047-.345A1.925,1.925,0,0,1-11.121-1.242ZM6.359.23A7.564,7.564,0,0,1,.6-2.013,8.914,8.914,0,0,1-1.53-8.4a9.119,9.119,0,0,1,2.059-6.36A7.389,7.389,0,0,1,6.29-17.02a16.477,16.477,0,0,1,2.852.207,1.454,1.454,0,0,1,.92.552,1.614,1.614,0,0,1,.368,1.035v.184a.872.872,0,0,1-.4.759,1.024,1.024,0,0,1-.863.161,9.874,9.874,0,0,0-2.53-.3,4.4,4.4,0,0,0-3.577,1.564A6.8,6.8,0,0,0,1.759-8.4,6.652,6.652,0,0,0,3.1-3.945,4.494,4.494,0,0,0,6.7-2.369a10.63,10.63,0,0,0,2.6-.276,1.024,1.024,0,0,1,.863.161.872.872,0,0,1,.4.759v.161a1.6,1.6,0,0,1-.356,1.024A1.44,1.44,0,0,1,9.28,0,16.976,16.976,0,0,1,6.359.23ZM15.4,0a1.259,1.259,0,0,1-.92-.391,1.259,1.259,0,0,1-.391-.92V-15.479a1.259,1.259,0,0,1,.391-.92,1.259,1.259,0,0,1,.92-.391h.575a2.016,2.016,0,0,1,1.1.322,1.882,1.882,0,0,1,.736.851l4.025,8.694a.02.02,0,0,0,.023.023.02.02,0,0,0,.023-.023l4.025-8.694a1.882,1.882,0,0,1,.736-.851,2.016,2.016,0,0,1,1.1-.322h.667a1.259,1.259,0,0,1,.92.391,1.259,1.259,0,0,1,.391.92V-1.311a1.259,1.259,0,0,1-.391.92,1.259,1.259,0,0,1-.92.391H27.91a1.259,1.259,0,0,1-.92-.391,1.259,1.259,0,0,1-.391-.92v-10a.02.02,0,0,0-.023-.023.02.02,0,0,0-.023.023l-2.76,5.911a2.083,2.083,0,0,1-.771.863,1.984,1.984,0,0,1-1.093.333h-.138A1.984,1.984,0,0,1,20.7-4.543a2.083,2.083,0,0,1-.771-.863l-2.76-5.911a.02.02,0,0,0-.023-.023.02.02,0,0,0-.023.023v10a1.259,1.259,0,0,1-.391.92,1.259,1.259,0,0,1-.92.391Z" transform="translate(-146.13 229.87)" fill="#fff"/><path d="M-14.687-13.053a1.04,1.04,0,0,1,.76.323,1.04,1.04,0,0,1,.323.76v.171a.879.879,0,0,1-.266.646.858.858,0,0,1-.627.266q-.152,0-.152.114-.342,5.149-2.109,7.809a.175.175,0,0,0,.019.266A10.974,10.974,0,0,0-14.5-.912a1.019,1.019,0,0,1,.485.655,1.035,1.035,0,0,1-.124.808l-.057.1a1.093,1.093,0,0,1-.665.5,1,1,0,0,1-.817-.1A12.6,12.6,0,0,1-18.3-.988a.152.152,0,0,0-.228-.019,16.074,16.074,0,0,1-3.5,2.147A1.23,1.23,0,0,1-22.9,1.2a1.3,1.3,0,0,1-.7-.513l-.114-.152a.854.854,0,0,1-.095-.76.917.917,0,0,1,.513-.57A12.524,12.524,0,0,0-19.931-2.85a.185.185,0,0,0,.038-.266,15.327,15.327,0,0,1-1.558-4.218.12.12,0,0,0-.067-.057q-.047-.019-.066.019-.228.418-.342.608a.848.848,0,0,1-.636.427.909.909,0,0,1-.75-.2l-.209-.171q-.114-.076-.114.076-.038,3.8-.247,5.51a4.909,4.909,0,0,1-.589,2.176,1.5,1.5,0,0,1-1.235.465q-.4,0-1.406-.1a1.139,1.139,0,0,1-.769-.38,1.223,1.223,0,0,1-.333-.8V.133a.82.82,0,0,1,.3-.694A.965.965,0,0,1-27.17-.8q.342.038.38.038a.464.464,0,0,0,.38-.161,2.089,2.089,0,0,0,.247-.808,14.73,14.73,0,0,0,.152-1.957q.038-1.311.038-3.61a.134.134,0,0,0-.152-.152h-1.463a.151.151,0,0,0-.171.171,32.67,32.67,0,0,1-.513,4.769A15.257,15.257,0,0,1-29.355.912a.757.757,0,0,1-.58.437.805.805,0,0,1-.713-.19l-.3-.285a1.376,1.376,0,0,1-.437-.789,1.622,1.622,0,0,1,.076-.922q1.2-3.116,1.2-10.317,0-.152-.171-.152h-.152a1.009,1.009,0,0,1-.751-.323,1.056,1.056,0,0,1-.313-.76,1.024,1.024,0,0,1,.313-.75,1.024,1.024,0,0,1,.751-.313h1.672a.151.151,0,0,0,.171-.171V-14.63a1.04,1.04,0,0,1,.323-.76,1.04,1.04,0,0,1,.76-.323h.3a1.04,1.04,0,0,1,.76.323,1.04,1.04,0,0,1,.323.76v1.007a.151.151,0,0,0,.171.171h1.691a1.056,1.056,0,0,1,.76.313,1.009,1.009,0,0,1,.323.75,1.04,1.04,0,0,1-.323.76,1.04,1.04,0,0,1-.76.323h-3.249q-.171,0-.171.152v1.406a.134.134,0,0,0,.152.152H-24.7a1.045,1.045,0,0,1,.694.247,1.069,1.069,0,0,1,.37.627.034.034,0,0,0,.038.038.061.061,0,0,0,.057-.038,26.738,26.738,0,0,0,2.318-6.023,1.2,1.2,0,0,1,.5-.7,1.192,1.192,0,0,1,.846-.209l.19.019a.981.981,0,0,1,.693.408.909.909,0,0,1,.162.769l-.342,1.254q-.038.152.114.152Zm-3.534,7.885a15.6,15.6,0,0,0,1.2-5.548q0-.171-.152-.171h-2.6a.222.222,0,0,0-.228.152q-.3.76-.456,1.121-.019.019.01.057a.082.082,0,0,0,.066.038.84.84,0,0,1,.656.161.949.949,0,0,1,.37.6,15.292,15.292,0,0,0,1.007,3.572.089.089,0,0,0,.066.048A.054.054,0,0,0-18.221-5.168ZM-10.887,1.2a1.056,1.056,0,0,1-.76-.313A1.009,1.009,0,0,1-11.97.133V-13.68a1.04,1.04,0,0,1,.323-.76,1.04,1.04,0,0,1,.76-.323h3.42a1.009,1.009,0,0,1,.75.323,1.056,1.056,0,0,1,.313.76v6.916q0,.038.048.057t.067-.019a.832.832,0,0,1,.551-.209q.114,0,.114-.133v-5.054a1.04,1.04,0,0,1,.323-.76,1.04,1.04,0,0,1,.76-.323h2.66q.152,0,.152-.171V-14.63a1.04,1.04,0,0,1,.323-.76,1.04,1.04,0,0,1,.76-.323h.323a1.009,1.009,0,0,1,.75.323,1.056,1.056,0,0,1,.314.76v1.254a.151.151,0,0,0,.171.171H3.591a1.04,1.04,0,0,1,.76.323,1.04,1.04,0,0,1,.323.76V-7.03a.084.084,0,0,0,.1.095.692.692,0,0,1,.494.2.645.645,0,0,1,.209.484v.361a1.018,1.018,0,0,1-.3.731.993.993,0,0,1-.741.313H1.254q-.152,0-.114.152A7.236,7.236,0,0,0,4.617-.855a1.078,1.078,0,0,1,.542.637,1.069,1.069,0,0,1-.048.827L5.016.8a1.079,1.079,0,0,1-.627.542.911.911,0,0,1-.8-.086A10.67,10.67,0,0,1-.361-3q-.076-.114-.152-.019A11.345,11.345,0,0,1-5,1.311a.993.993,0,0,1-.826.057A1.116,1.116,0,0,1-6.46.817L-6.574.589A.977.977,0,0,1-6.622-.2,1.08,1.08,0,0,1-6.08-.817,7.468,7.468,0,0,0-2.166-4.693q.038-.152-.095-.152H-5.529a1,1,0,0,1-.779-.342q-.038-.038-.066-.019a.064.064,0,0,0-.029.057v4.2a1.056,1.056,0,0,1-.313.76,1.009,1.009,0,0,1-.75.323H-9.538a.118.118,0,0,0-.133.133.9.9,0,0,1-.276.656A.9.9,0,0,1-10.6,1.2ZM.741-10.887v3.781a.151.151,0,0,0,.171.171H2.128q.152,0,.152-.171v-3.781q0-.171-.152-.171H.912A.151.151,0,0,0,.741-10.887Zm-3.99,0v3.781q0,.171.152.171h1.2a.151.151,0,0,0,.171-.171v-3.781q0-.171-.152-.171H-3.1Q-3.249-11.058-3.249-10.887Zm-6.422-1.558v3.762q0,.171.152.171h.855a.151.151,0,0,0,.171-.171v-3.762q0-.152-.171-.152h-.855A.134.134,0,0,0-9.671-12.445Zm0,6.175v4.142q0,.171.152.171h.855a.151.151,0,0,0,.171-.171V-6.27q0-.152-.171-.152h-.855A.134.134,0,0,0-9.671-6.27ZM8.4-2.717a1.04,1.04,0,0,1-.76-.323,1.04,1.04,0,0,1-.323-.76v-7.7a1.04,1.04,0,0,1,.323-.76,1.04,1.04,0,0,1,.76-.323h5.529q.171,0,.171-.152v-1.843a1.024,1.024,0,0,1,.314-.751,1.024,1.024,0,0,1,.75-.313h.456a1.024,1.024,0,0,1,.75.313,1.024,1.024,0,0,1,.313.751v1.843q0,.152.171.152h5.529a1.04,1.04,0,0,1,.76.323,1.04,1.04,0,0,1,.323.76v7.7a1.04,1.04,0,0,1-.323.76,1.04,1.04,0,0,1-.76.323H22A.911.911,0,0,1,21.337-3a.911.911,0,0,1-.285-.665.118.118,0,0,0-.133-.133H16.853a.151.151,0,0,0-.171.171V.893a1.024,1.024,0,0,1-.313.751,1.024,1.024,0,0,1-.75.314h-.456a1.024,1.024,0,0,1-.75-.314A1.024,1.024,0,0,1,14.1.893V-3.629a.151.151,0,0,0-.171-.171H9.861a.118.118,0,0,0-.133.133A.911.911,0,0,1,9.443-3a.911.911,0,0,1-.665.285Zm12.5-7.7H16.853q-.171,0-.171.152v4.218q0,.152.171.152H20.9a.134.134,0,0,0,.152-.152V-10.26A.134.134,0,0,0,20.9-10.412ZM9.728-10.26v4.218a.134.134,0,0,0,.152.152h4.047q.171,0,.171-.152V-10.26q0-.152-.171-.152H9.88A.134.134,0,0,0,9.728-10.26ZM28.386-4.18a1.078,1.078,0,0,1-.779-.313,1.1,1.1,0,0,1-.342-.769l-.285-7.524a1,1,0,0,1,.285-.76.979.979,0,0,1,.741-.323h1.026a.979.979,0,0,1,.741.323,1,1,0,0,1,.285.76l-.285,7.524a1.1,1.1,0,0,1-.342.769,1.078,1.078,0,0,1-.779.313Zm.456,1.52a1.009,1.009,0,0,1,.75.323,1.056,1.056,0,0,1,.313.76v.494a1.056,1.056,0,0,1-.313.76,1.009,1.009,0,0,1-.75.323H28.2a1.009,1.009,0,0,1-.75-.323,1.056,1.056,0,0,1-.313-.76v-.494a1.056,1.056,0,0,1,.313-.76,1.009,1.009,0,0,1,.75-.323Z" transform="translate(-145.13 253.87)" fill="#fff"/><g transform="translate(-117.976 172.353) rotate(-9)"><g transform="translate(0 64)"><path d="M38.028,73.979a1.614,1.614,0,0,0-1.451-.223l-7.553,2.519v-.988a1.613,1.613,0,0,0-1.612-1.612H24.9a6.383,6.383,0,0,0,.9-3.225,6.422,6.422,0,0,0-11.287-4.22A6.415,6.415,0,0,0,4.121,73.675H1.612A1.613,1.613,0,0,0,0,75.287V91.412a1.613,1.613,0,0,0,1.612,1.613h25.8a1.613,1.613,0,0,0,1.612-1.612v-.987l7.553,2.517a1.628,1.628,0,0,0,.51.082A1.615,1.615,0,0,0,38.7,91.412V75.287A1.608,1.608,0,0,0,38.028,73.979ZM9.675,67.225A3.225,3.225,0,1,1,6.45,70.45,3.228,3.228,0,0,1,9.675,67.225ZM6.45,81.737a1.613,1.613,0,0,1,1.612-1.612h6.45a1.612,1.612,0,1,1,0,3.225H8.062A1.613,1.613,0,0,1,6.45,81.737Zm14.512,6.45h-6.45a1.612,1.612,0,0,1,0-3.225h6.45a1.612,1.612,0,0,1,0,3.225ZM19.349,73.675a3.225,3.225,0,1,1,3.225-3.225A3.228,3.228,0,0,1,19.349,73.675Zm16.125,15.5-6.45-2.149V79.675l6.45-2.151Z" transform="translate(0 -64)" fill="#454d4c" stroke="#fff" stroke-width="1"/></g></g></g></svg>