<svg xmlns="http://www.w3.org/2000/svg" width="88.153" height="112.08" viewBox="0 0 88.153 112.08"><g transform="translate(-315.424 -212.969)"><g transform="translate(315.424 212.969)"><rect width="29.379" height="58.774" transform="translate(0 29.379)" fill="#003288"/><path d="M315.424,212.969v29.379H344.8v58.774H374.2V242.348h29.379V212.969Z" transform="translate(-315.424 -212.969)" fill="#ffed00"/><rect width="29.379" height="58.774" transform="translate(58.774 29.379)" fill="#003288"/></g><g transform="translate(315.424 310.828)"><path d="M678.935,778.026v9.3c-1.083-1.393-6.389-9.3-6.389-9.3h-2.568v13.851h2.568v-9.232c1.078,1.4,6.373,9.232,6.373,9.232h2.58V778.026Z" transform="translate(-608.574 -778.026)" fill="#1a1311"/><path d="M465.533,782.405c0-2.114-1.377-4.379-5.272-4.379h-4.452v13.851h2.585v-5.2h1.874C464.156,786.667,465.533,784.389,465.533,782.405Zm-7.139-2.093h1.867c2.255,0,2.5,1.411,2.5,2,0,1.3-.963,2.078-2.6,2.078h-1.768Z" transform="translate(-431.496 -778.026)" fill="#1a1311"/><rect width="2.692" height="13.864" transform="translate(53.01 0)" fill="#1a1311"/><rect width="7.358" height="2.447" transform="translate(12.482 7.238)" fill="#1a1311"/><path d="M760.512,778.055v2.45h4.171v11.409h2.7V780.5h4.176v-2.45Z" transform="translate(-683.429 -778.05)" fill="#1a1311"/><path d="M315.424,778.055v2.45h4.171v11.409h2.7V780.5h4.176v-2.45Z" transform="translate(-315.424 -778.05)" fill="#1a1311"/><path d="M533.972,792.271c-4.124,0-6.137-2.932-6.137-7.043s2.059-7.173,6.207-7.173,6.132,3.02,6.132,7.139C540.174,789.256,538.075,792.271,533.972,792.271Zm0-11.8c-2.544,0-3.432,2.421-3.432,4.666,0,2.338.776,4.741,3.432,4.741s3.494-2.383,3.494-4.741C537.466,782.822,536.583,780.466,533.972,780.466Z" transform="translate(-491.048 -778.05)" fill="#1a1311"/></g></g></svg>