<svg xmlns="http://www.w3.org/2000/svg" width="92.823" height="137.859" viewBox="0 0 92.823 137.859"><g transform="translate(-676.374 -191)"><rect width="92.823" height="118.616" rx="2" transform="translate(676.374 210.243)" fill="#7189aa"/><path d="M840.547,870.333h80.893V977.627H850.383l-9.836-9.836Z" transform="translate(-158.207 -654.648)" fill="#fbfaf7"/><path d="M848.511,3561.074l-9.836-9.836h9.836Z" transform="translate(-156.404 -3238.14)" fill="#d3d2cd"/><path d="M1465.1,204.98h-8.215v-2.354a6.818,6.818,0,1,0-9.666,0v2.354H1439a5.866,5.866,0,0,0-5.865,5.866V217.9h37.828v-7.057A5.865,5.865,0,0,0,1465.1,204.98Zm-13.048-4.8a2.359,2.359,0,1,1,2.359-2.359A2.36,2.36,0,0,1,1452.049,200.177Z" transform="translate(-729.263 0)" fill="#c8c8c8"/><rect width="62.408" height="6.538" transform="translate(691.524 228.575)" fill="#4d4d4d"/><rect width="61.872" height="2.792" transform="translate(753.396 251.014) rotate(180)" fill="#4d4d4d"/><rect width="49.798" height="2.792" transform="translate(741.322 257.688) rotate(180)" fill="#4d4d4d"/><rect width="24.899" height="2.792" transform="translate(716.423 264.363) rotate(180)" fill="#4d4d4d"/><rect width="55.629" height="2.792" transform="translate(747.153 271.038) rotate(180)" fill="#4d4d4d"/><rect width="61.872" height="2.792" transform="translate(753.396 277.713) rotate(180)" fill="#4d4d4d"/><rect width="49.798" height="2.792" transform="translate(741.322 284.387) rotate(180)" fill="#4d4d4d"/><rect width="37.828" height="2.494" transform="translate(703.872 215.408)" fill="#b1b1b1"/><path d="M1303.458,3273.086c.525.513,1.613-.212,2.065-.478,1.452-.853,1.984-1.369,3.562-2.412,1.485-.982,3.07-1.8,4.521-2.831.586-.417,1.586-.811,1.919-1.52a2.275,2.275,0,0,0-1.6,1.535,2.551,2.551,0,0,0-.163,1.274c.093.537.62.788,1.084,1.011,1.466.707,3.482-.631,4.784-1.18s2.489-1.21,3.738-1.83a5.149,5.149,0,0,0,1.8-1.025c-.8-.049-1.358.928-1.333,1.634.038,1.107.935,1.462,1.883,1.6a9.344,9.344,0,0,0,5.244-.932c.9-.382,2.193-.989,2.585-1.981a1.952,1.952,0,0,0-.473,2.192c.842,1.29,2.948.51,4.038.13a59.99,59.99,0,0,1,8.843-1.9,43,43,0,0,1,7.808-.755" transform="translate(-604.298 -2962.902)" fill="none" stroke="#4d4d4d" stroke-miterlimit="10" stroke-width="1"/></g></svg>