<svg xmlns="http://www.w3.org/2000/svg" xmlns:xlink="http://www.w3.org/1999/xlink" width="422.923" height="265.518" viewBox="0 0 422.923 265.518"><defs><clipPath id="a"><path d="M3847.049,4251.27c0,96.834-93.19,90.082-208.146,90.082s-208.146,6.752-208.146-90.082,93.19-175.335,208.146-175.335S3847.049,4154.435,3847.049,4251.27Z" transform="translate(-3430.757 -4075.935)" fill="none"/></clipPath><linearGradient id="b" x1="0.502" y1="-1006.689" x2="0.502" y2="125.605" gradientUnits="objectBoundingBox"><stop offset="0" stop-color="#acddf7"/><stop offset="1" stop-color="#fff"/></linearGradient><linearGradient id="c" x1="0.5" y1="0" x2="0.5" y2="1" xlink:href="#b"/><linearGradient id="d" x1="0.5" y1="-3.262" x2="0.5" y2="1.538" xlink:href="#b"/><linearGradient id="e" x1="0.5" y1="-3978.964" x2="0.5" y2="3978.979" xlink:href="#b"/></defs><g transform="translate(-3430.757 -4075.935)"><g transform="translate(3430.757 4075.935)"><g clip-path="url(#a)"><g transform="translate(-3.825 -38.517)"><path d="M3439.488,4165.61c26.791-86.365,107.313-149.091,202.486-149.091,92.269,0,170.755,58.962,199.872,141.259h0c-29.114-82.3-107.6-141.269-199.875-141.269-95.178,0-175.7,62.73-202.489,149.1Z" transform="translate(-3430.003 -4016.508)" fill="none"/><path d="M4078.622,4358.112c0,.074-.009.146-.013.22C4078.613,4358.258,4078.618,4358.186,4078.622,4358.112Z" transform="translate(-3654.89 -4136.707)" fill="url(#b)"/><path d="M3467.757,4265.533h18.291l.2-22.219a8.025,8.025,0,1,1-9.318-12.952,6.884,6.884,0,0,1,.778-.687c-.037.111-.068.227-.1.341.162-.072.326-.142.494-.2a8.3,8.3,0,0,1-1.321-14.608,6.214,6.214,0,0,1,4.208-6.849,7.122,7.122,0,1,1,13.676-2.839,5.813,5.813,0,0,1-.417,3.99,7.848,7.848,0,0,1,4.79,12.781,6.277,6.277,0,0,1,1.307,10.769,8.21,8.21,0,0,1,.518,2.865c0,.223-.017.442-.033.661a7.847,7.847,0,0,1-12.021,9.746h0l.18,19.205h30.888l.2-22.219a8.025,8.025,0,1,1-9.319-12.952,6.889,6.889,0,0,1,.779-.687c-.037.111-.068.227-.1.341.162-.072.326-.142.494-.2a8.3,8.3,0,0,1-1.322-14.608,6.223,6.223,0,0,1,4.208-6.849,7.122,7.122,0,1,1,13.676-2.839,5.81,5.81,0,0,1-.417,3.99,7.848,7.848,0,0,1,4.791,12.781,6.278,6.278,0,0,1,1.307,10.769,8.225,8.225,0,0,1,.517,2.865c0,.223-.016.442-.033.661a7.846,7.846,0,0,1-12.021,9.746h0l.18,19.205h20.806v-98.415h.521l4.709-16.089h53.885l4.711,16.089h.8v98.415h25.933v-99.917h47.173v99.917h24.207v-99.917h4.177v-11.057h21.862v11.057h53.006v99.917h17.335l.2-22.219a8.025,8.025,0,1,1-9.319-12.952,6.932,6.932,0,0,1,.779-.687c-.038.111-.069.227-.1.341.162-.072.325-.142.493-.2a8.3,8.3,0,0,1-1.322-14.608,6.369,6.369,0,0,1-.071-.894,6.277,6.277,0,0,1,4.278-5.955,7.122,7.122,0,1,1,13.677-2.839,5.81,5.81,0,0,1-.417,3.99,7.848,7.848,0,0,1,4.791,12.781,6.278,6.278,0,0,1,1.307,10.769,8.219,8.219,0,0,1,.517,2.865c0,.223-.016.442-.033.661a7.847,7.847,0,0,1-12.021,9.746h0l.18,19.205h20.189v-98.076l16.761-9.674c-29.117-82.3-107.6-141.259-199.872-141.259-95.173,0-175.695,62.726-202.486,149.091h28.267Z" transform="translate(-3430.005 -4016.514)" fill="url(#c)"/><path d="M4075.752,4301.352q.648,7.29.8,14.713c.029,1.431.054,2.864.054,4.3q0,4.606-.2,9.165.2-4.551.2-9.152a212.9,212.9,0,0,0-4.308-42.725c.316,1.544.61,3.1.892,4.653Q4074.9,4291.691,4075.752,4301.352Z" transform="translate(-3652.671 -4108.397)" fill="url(#d)"/><path d="M3821.7,4400.718H3429.874v.009h417.434v-.009H3821.7Z" transform="translate(-3426.622 -4151.699)" fill="url(#e)"/><path d="M3876.064,4240.554V4229.5H3854.2v11.057h-4.177v99.917h6.054v-22.305H3866.4v22.305h3.954v-22.305h53.1v22.305h5.625v-99.917Zm-8.814,64.624h-11.327v-15.513a5.664,5.664,0,0,1,11.327,0Zm0-33.422h-11.327V4256.24a5.664,5.664,0,0,1,11.327,0Zm13.807,33.422h-11.326v-15.513a5.663,5.663,0,0,1,11.326,0Zm0-33.422h-11.326V4256.24a5.663,5.663,0,0,1,11.326,0Zm13.813,33.422h-11.322v-15.513a5.661,5.661,0,1,1,11.322,0Zm0-33.422h-11.322V4256.24a5.661,5.661,0,1,1,11.322,0Zm13.815,33.422h-11.329v-15.513a5.665,5.665,0,0,1,11.329,0Zm0-33.422h-11.329V4256.24a5.665,5.665,0,0,1,11.329,0Zm13.81,33.422h-11.321v-15.513a5.66,5.66,0,1,1,11.321,0Zm0-33.422h-11.321V4256.24a5.66,5.66,0,1,1,11.321,0Z" transform="translate(-3574.458 -4091.452)" fill="#fff"/><path d="M3663.992,4240.14l-4.71-16.089H3605.4l-4.709,16.089h-.521v98.415h5.978v-22.306h52.45v22.306h6.2V4240.14Zm-57.848,14.786h7.934v15.024h-7.934Zm7.934,49.115h-7.934v-15.022h7.934Zm8.9,0h-7.937v-15.022h7.937Zm8.9,0h-7.938v-15.022h7.938Zm8.9,0h-7.936v-15.022h7.936Zm8.9,0h-7.939v-15.022h7.939Zm8.9,0h-7.939v-15.022h7.939Zm.019-16.08h-52.45v-5.471h52.45Zm-43.554-18.011v-15.024h7.937v15.024Zm8.9,0v-15.024h7.938v15.024Zm8.9,0v-15.024h7.936v15.024Zm8.9,0v-15.024h7.939v15.024Zm8.9,0v-15.024h7.939v15.024Zm7.958-16.079h-52.45v-5.47h52.45Z" transform="translate(-3486.542 -4089.535)" fill="#fff"/><rect width="52.45" height="22.306" transform="translate(119.603 226.714)" fill="#c1dae7"/><path d="M3739.893,4246.556v99.917h6.057v-22.306h34.914v22.306h6.2v-99.917Zm40.971,58.566H3745.95v-14.713h34.914Zm-34.914-33.757v-14.709h34.914v14.709Z" transform="translate(-3535.707 -4097.454)" fill="#fff"/><rect width="34.913" height="22.306" transform="translate(210.244 226.714)" fill="#c1dae7"/><rect width="34.913" height="14.713" transform="translate(210.244 192.955)" fill="#c1dae7"/><rect width="7.934" height="15.022" transform="translate(119.603 199.484)" fill="#c1dae7"/><rect width="7.937" height="15.022" transform="translate(128.498 199.484)" fill="#c1dae7"/><rect width="7.938" height="15.022" transform="translate(137.4 199.484)" fill="#c1dae7"/><rect width="7.936" height="15.022" transform="translate(146.301 199.484)" fill="#c1dae7"/><rect width="7.939" height="15.022" transform="translate(155.199 199.484)" fill="#c1dae7"/><rect width="7.939" height="15.022" transform="translate(164.095 199.484)" fill="#c1dae7"/><rect width="52.45" height="5.471" transform="translate(119.603 192.955)" fill="#c1dae7"/><rect width="7.934" height="15.025" transform="translate(119.603 165.39)" fill="#c1dae7"/><rect width="7.937" height="15.025" transform="translate(128.498 165.39)" fill="#c1dae7"/><rect width="7.938" height="15.025" transform="translate(137.4 165.39)" fill="#c1dae7"/><rect width="7.936" height="15.025" transform="translate(146.301 165.39)" fill="#c1dae7"/><rect width="7.939" height="15.025" transform="translate(155.199 165.39)" fill="#c1dae7"/><rect width="7.939" height="15.025" transform="translate(164.095 165.39)" fill="#c1dae7"/><rect width="52.45" height="5.469" transform="translate(119.603 158.866)" fill="#c1dae7"/><rect width="34.913" height="14.709" transform="translate(210.244 159.202)" fill="#c1dae7"/><path d="M4078.155,4363.54q.174-2.537.293-5.089-.116,2.553-.3,5.089Z" transform="translate(-3654.729 -4136.826)" fill="#fff"/><path d="M4078.637,4357.7c0,.09,0,.18-.008.27C4078.632,4357.876,4078.633,4357.786,4078.637,4357.7Z" transform="translate(-3654.897 -4136.561)" fill="#fff"/><path d="M4065.757,4252.4h0c-1.56-6.09-3.4-12.068-5.471-17.934h0Q4063.4,4243.268,4065.757,4252.4Z" transform="translate(-3648.442 -4093.202)" fill="#fff"/><path d="M4063.227,4300.871h-22.744v-14.713h21.94q-.859-9.65-2.555-19.044h-19.385V4252.4h16.175q-2.341-9.135-5.472-17.932l-16.761,9.674v98.076h6.059v-22.306h22.283q.177-2.537.3-5.089c0-.073.009-.146.013-.22,0-.09,0-.18.009-.27q.194-4.559.2-9.165C4063.281,4303.734,4063.256,4302.3,4063.227,4300.871Z" transform="translate(-3639.343 -4093.202)" fill="#fff"/><path d="M4073.933,4388.608h.018a212.9,212.9,0,0,0,2.719-22.305h0A214.019,214.019,0,0,1,4073.933,4388.608Z" transform="translate(-3653.244 -4139.589)" fill="#c1dae7"/><path d="M4043.772,4366.3v22.305h19.548a213.953,213.953,0,0,0,2.734-22.305Z" transform="translate(-3642.632 -4139.589)" fill="#c1dae7"/><path d="M4043.772,4328.93h22.744q-.147-7.424-.8-14.713h-21.94Z" transform="translate(-3642.632 -4121.262)" fill="#c1dae7"/><path d="M4071.046,4272.2q-1.037-5.073-2.318-10.056h0Q4070.005,4267.123,4071.046,4272.2Z" transform="translate(-3651.413 -4102.938)" fill="#c1dae7"/><path d="M4043.772,4262.14v14.708h19.385c-.282-1.556-.575-3.108-.892-4.653q-1.037-5.073-2.318-10.056Z" transform="translate(-3642.632 -4102.938)" fill="#c1dae7"/><rect width="53.096" height="22.306" transform="translate(295.892 226.714)" fill="#c1dae7"/><rect width="10.317" height="22.306" transform="translate(281.62 226.714)" fill="#c1dae7"/><path d="M3864.784,4313.593a5.655,5.655,0,0,0-5.659,5.662v15.513h11.327v-15.513A5.664,5.664,0,0,0,3864.784,4313.593Z" transform="translate(-3577.661 -4121.042)" fill="#c1dae7"/><path d="M3886.086,4313.593a5.66,5.66,0,0,0-5.657,5.662v15.513h11.326v-15.513A5.657,5.657,0,0,0,3886.086,4313.593Z" transform="translate(-3585.157 -4121.042)" fill="#c1dae7"/><path d="M3907.414,4313.593a5.658,5.658,0,0,0-5.666,5.662v15.513h11.322v-15.513A5.657,5.657,0,0,0,3907.414,4313.593Z" transform="translate(-3592.658 -4121.042)" fill="#c1dae7"/><path d="M3928.719,4313.593a5.663,5.663,0,0,0-5.667,5.662v15.513h11.329v-15.513A5.658,5.658,0,0,0,3928.719,4313.593Z" transform="translate(-3600.154 -4121.042)" fill="#c1dae7"/><path d="M3950.034,4313.593a5.658,5.658,0,0,0-5.663,5.662v15.513h11.321v-15.513A5.66,5.66,0,0,0,3950.034,4313.593Z" transform="translate(-3607.656 -4121.042)" fill="#c1dae7"/><path d="M3864.784,4262.023a5.66,5.66,0,0,0-5.659,5.662V4283.2h11.327v-15.515A5.668,5.668,0,0,0,3864.784,4262.023Z" transform="translate(-3577.661 -4102.896)" fill="#c1dae7"/><path d="M3886.086,4262.023a5.664,5.664,0,0,0-5.657,5.662V4283.2h11.326v-15.515A5.662,5.662,0,0,0,3886.086,4262.023Z" transform="translate(-3585.157 -4102.896)" fill="#c1dae7"/><path d="M3907.414,4262.023a5.663,5.663,0,0,0-5.666,5.662V4283.2h11.322v-15.515A5.661,5.661,0,0,0,3907.414,4262.023Z" transform="translate(-3592.658 -4102.896)" fill="#c1dae7"/><path d="M3928.719,4262.023a5.667,5.667,0,0,0-5.667,5.662V4283.2h11.329v-15.515A5.662,5.662,0,0,0,3928.719,4262.023Z" transform="translate(-3600.154 -4102.896)" fill="#c1dae7"/><path d="M3950.034,4262.023a5.663,5.663,0,0,0-5.663,5.662V4283.2h11.321v-15.515A5.664,5.664,0,0,0,3950.034,4262.023Z" transform="translate(-3607.656 -4102.896)" fill="#c1dae7"/><path d="M3437.922,4246.556h0q-1.567,5.052-2.885,10.211h0Q3436.354,4251.61,3437.922,4246.556Z" transform="translate(-3428.437 -4097.454)" fill="#fff"/><path d="M3428.717,4285.008h0q-1.687,9.33-2.534,18.931h0Q3427.036,4294.346,3428.717,4285.008Z" transform="translate(-3425.322 -4110.984)" fill="#fff"/><path d="M3424.856,4337.029c0-4.042.125-8.054.348-12.04v-.017c-.224,3.987-.348,8-.348,12.044q0,7.435.513,14.744h.006Q3424.867,4344.459,3424.856,4337.029Z" transform="translate(-3424.856 -4125.046)" fill="#fff"/><path d="M3432.756,4256.768v14.71h-4.505q-1.687,9.329-2.535,18.931h7.04v14.713H3425.2V4297.4c-.223,3.985-.348,8-.348,12.039q0,7.43.519,14.731h8.19v22.306h4.649v-22.306h19.6v22.306h4.792v-99.917h-28.267q-1.567,5.052-2.886,10.211Zm18.29,0h7.558v14.71h-7.558Zm0,33.642h7.558v14.713h-7.558Zm-8.55-33.642h7.557v14.71H3442.5Zm0,33.642h7.557v14.713H3442.5Zm-8.747-33.642h7.56v14.71h-7.56Zm0,33.642h7.56v14.713h-7.56Z" transform="translate(-3424.856 -4097.454)" fill="#fff"/><path d="M3425.647,4366.3a212.769,212.769,0,0,0,2.72,22.305h.019a214.018,214.018,0,0,1-2.733-22.305Z" transform="translate(-3425.134 -4139.589)" fill="#c1dae7"/><path d="M3433.847,4366.3h-8.19a214.084,214.084,0,0,0,2.733,22.305h5.457Z" transform="translate(-3425.137 -4139.589)" fill="#c1dae7"/><rect width="19.601" height="22.306" transform="translate(13.358 226.714)" fill="#c1dae7"/><path d="M3425.905,4314.217h0q-.308,3.47-.51,6.971v.018Q3425.589,4317.695,3425.905,4314.217Z" transform="translate(-3425.045 -4121.262)" fill="#c1dae7"/><path d="M3432.945,4328.93v-14.713h-7.04q-.309,3.48-.512,6.988v7.725Z" transform="translate(-3425.045 -4121.262)" fill="#c1dae7"/><rect width="7.559" height="14.713" transform="translate(8.893 192.955)" fill="#c1dae7"/><rect width="7.558" height="14.713" transform="translate(17.639 192.955)" fill="#c1dae7"/><rect width="7.557" height="14.713" transform="translate(26.19 192.955)" fill="#c1dae7"/><path d="M3433.3,4262.311h0q-1.856,7.257-3.2,14.71h0Q3431.439,4269.573,3433.3,4262.311Z" transform="translate(-3426.698 -4102.998)" fill="#c1dae7"/><path d="M3434.6,4262.311h-1.3q-1.856,7.257-3.2,14.71h4.505Z" transform="translate(-3426.699 -4102.998)" fill="#c1dae7"/><rect width="7.559" height="14.711" transform="translate(8.893 159.313)" fill="#c1dae7"/><rect width="7.558" height="14.711" transform="translate(17.639 159.313)" fill="#c1dae7"/><rect width="7.557" height="14.711" transform="translate(26.19 159.313)" fill="#c1dae7"/><path d="M3506.928,4362.417a7.845,7.845,0,0,0,12.021-9.746,8.238,8.238,0,0,1-14.932,4.12,6.86,6.86,0,0,1-8.969-10.339,8.025,8.025,0,1,0,9.318,12.952l-.2,22.219h2.944l-.18-19.205Z" transform="translate(-3448.123 -4132.604)" fill="#cae2ad"/><path d="M3501.537,4336.245a5.88,5.88,0,0,0,1.415-.182c.114-.028.228-.053.338-.087.13-.041.255-.09.381-.138.11-.043.224-.08.331-.128.078-.036.151-.083.227-.12a6.053,6.053,0,0,0,.746-.451,5.973,5.973,0,0,0,1.786-1.995,5.905,5.905,0,0,0-2.167-7.925,6.577,6.577,0,1,1-6.342-11.379,6.264,6.264,0,0,0,4.066,7.489,6.623,6.623,0,0,0,.946.242c.035.007.07.011.105.016a6.117,6.117,0,0,0,.985.084,6.268,6.268,0,0,0,.834-.061c.1-.013.191-.033.286-.051.174-.031.344-.07.513-.114.109-.03.218-.062.325-.1.153-.051.3-.109.452-.171.1-.042.2-.08.3-.125.183-.087.358-.188.53-.292a6.218,6.218,0,0,1-1.57-9.276,5.9,5.9,0,0,1-.135-11.548,4.159,4.159,0,1,0,6.565,3.391c0-.084-.02-.163-.025-.245a5.973,5.973,0,0,1,.442,1.2,7.121,7.121,0,1,0-13.676,2.839,6.216,6.216,0,0,0-4.208,6.849,8.3,8.3,0,0,0,1.322,14.608c-.168.062-.332.132-.494.2a5.918,5.918,0,0,0,5.726,7.463Z" transform="translate(-3448.206 -4115.279)" fill="#cae2ad"/><path d="M3516.162,4317.533a4.059,4.059,0,0,0-.254,1.4,4.154,4.154,0,0,0,8.309,0,4.112,4.112,0,0,0-.242-1.346,6.23,6.23,0,0,1-6.359,9.928,6.462,6.462,0,0,1-2.582,11.691,6.6,6.6,0,0,1,.055.763,6.843,6.843,0,0,1-.511,2.6,6.03,6.03,0,1,0,6.855-9.763,8.261,8.261,0,0,1,5.336,5.027,6.277,6.277,0,0,0-1.307-10.769,7.848,7.848,0,0,0-4.79-12.781A5.92,5.92,0,0,1,3516.162,4317.533Z" transform="translate(-3456.426 -4121.282)" fill="#cae2ad"/><path d="M3532.884,4354.134c.017-.218.033-.437.033-.66a8.216,8.216,0,0,0-.517-2.865,6.274,6.274,0,0,1-1.818.964A7.921,7.921,0,0,1,3532.884,4354.134Z" transform="translate(-3462.057 -4134.067)" fill="#a6d18c"/><path d="M3522.87,4312.026c.243.016.483.044.719.082a5.81,5.81,0,0,0,.417-3.99c0,.02,0,.038,0,.058A7.065,7.065,0,0,1,3522.87,4312.026Z" transform="translate(-3459.344 -4119.116)" fill="#a6d18c"/><path d="M3498.036,4345.393a6.928,6.928,0,0,0-.778.686c.219-.125.447-.24.679-.345C3497.968,4345.62,3498,4345.5,3498.036,4345.393Z" transform="translate(-3450.332 -4132.231)" fill="#a6d18c"/><path d="M3501.036,4342.312a6.818,6.818,0,0,0,4.1-1.369,8.238,8.238,0,0,0,14.932-4.12,7.921,7.921,0,0,0-2.3-2.561,6.275,6.275,0,0,0,1.818-.965,8.263,8.263,0,0,0-5.336-5.027,6.031,6.031,0,1,1-6.855,9.763,6.841,6.841,0,0,0,.511-2.595,6.6,6.6,0,0,0-.055-.763,6.462,6.462,0,0,0,2.582-11.691,6.239,6.239,0,0,0,6.359-9.928,4.109,4.109,0,0,1,.242,1.346,4.154,4.154,0,0,1-8.309,0,4.058,4.058,0,0,1,.254-1.395,5.922,5.922,0,0,0,4.51-3.26c-.237-.037-.476-.066-.719-.082a7.062,7.062,0,0,0,1.139-3.85c0-.02,0-.039,0-.058a5.977,5.977,0,0,0-.442-1.2c.005.083.025.161.025.245a4.165,4.165,0,1,1-6.565-3.391,5.9,5.9,0,0,0,.135,11.548,6.218,6.218,0,0,0,1.57,9.277c-.172.1-.347.2-.53.292-.1.046-.2.083-.3.125-.148.062-.3.12-.452.171-.107.035-.216.067-.325.1-.169.044-.339.083-.513.114-.095.018-.189.038-.286.051a6.268,6.268,0,0,1-.834.061,6.117,6.117,0,0,1-.985-.084c-.035-.005-.07-.009-.105-.016a6.624,6.624,0,0,1-.946-.243,6.263,6.263,0,0,1-4.066-7.489,6.578,6.578,0,1,0,6.342,11.379,5.91,5.91,0,0,1,.381,9.92,6.176,6.176,0,0,1-.746.451c-.076.037-.149.083-.227.12-.107.048-.22.085-.331.128-.126.048-.251.1-.381.138-.111.034-.225.059-.338.087a5.913,5.913,0,0,1-7.141-7.281c-.232.1-.459.22-.679.345a6.857,6.857,0,0,0,4.87,11.708Z" transform="translate(-3449.24 -4116.756)" fill="#a6d18c"/><path d="M3553.736,4336.245a5.878,5.878,0,0,0,1.414-.182c.113-.028.228-.053.338-.087.129-.041.255-.09.381-.138.11-.043.223-.08.331-.128.079-.036.151-.083.228-.12a6.033,6.033,0,0,0,2.531-2.446,5.906,5.906,0,0,0-2.167-7.925,6.577,6.577,0,1,1-6.342-11.379,6.264,6.264,0,0,0,4.066,7.489,6.628,6.628,0,0,0,.946.242c.035.007.071.011.105.016a6.109,6.109,0,0,0,.984.084,6.268,6.268,0,0,0,.834-.061c.1-.013.191-.033.286-.051.174-.031.345-.07.513-.114.109-.03.218-.062.325-.1.154-.051.3-.109.452-.171.1-.042.2-.08.3-.125.182-.087.357-.188.529-.292a6.217,6.217,0,0,1-1.569-9.276,5.9,5.9,0,0,1-.136-11.548,4.159,4.159,0,1,0,6.565,3.391c0-.084-.02-.163-.025-.245a5.915,5.915,0,0,1,.442,1.2,7.12,7.12,0,1,0-13.676,2.839,6.223,6.223,0,0,0-4.208,6.849,8.3,8.3,0,0,0,1.322,14.608c-.168.062-.332.132-.494.2a5.917,5.917,0,0,0,5.727,7.463Z" transform="translate(-3466.573 -4115.279)" fill="#cae2ad"/><path d="M3568.36,4317.533a4.059,4.059,0,0,0-.255,1.4,4.155,4.155,0,0,0,8.31,0,4.1,4.1,0,0,0-.243-1.346,6.23,6.23,0,0,1-6.359,9.928,6.462,6.462,0,0,1-2.582,11.691,6.55,6.55,0,0,1,.055.763,6.847,6.847,0,0,1-.51,2.6,5.986,5.986,0,0,0,4.135,1.663,6.032,6.032,0,0,0,2.719-11.426,8.262,8.262,0,0,1,5.337,5.027,6.278,6.278,0,0,0-1.307-10.769,7.848,7.848,0,0,0-4.791-12.781A5.92,5.92,0,0,1,3568.36,4317.533Z" transform="translate(-3474.793 -4121.282)" fill="#cae2ad"/><path d="M3559.126,4362.417a7.844,7.844,0,0,0,12.021-9.746,8.238,8.238,0,0,1-14.931,4.12,6.861,6.861,0,0,1-8.97-10.339,8.025,8.025,0,1,0,9.319,12.952l-.2,22.219h2.944l-.18-19.205Z" transform="translate(-3466.49 -4132.604)" fill="#cae2ad"/><path d="M3575.069,4312.026c.243.016.482.044.719.082a5.811,5.811,0,0,0,.417-3.99c0,.02,0,.038,0,.058A7.071,7.071,0,0,1,3575.069,4312.026Z" transform="translate(-3477.711 -4119.116)" fill="#a6d18c"/><path d="M3550.234,4345.393a6.957,6.957,0,0,0-.779.686q.33-.187.68-.345C3550.166,4345.62,3550.2,4345.5,3550.234,4345.393Z" transform="translate(-3468.698 -4132.231)" fill="#a6d18c"/><path d="M3585.083,4354.134c.018-.218.033-.437.033-.66a8.223,8.223,0,0,0-.518-2.865,6.275,6.275,0,0,1-1.817.964A7.921,7.921,0,0,1,3585.083,4354.134Z" transform="translate(-3480.424 -4134.067)" fill="#a6d18c"/><path d="M3553.234,4342.312a6.819,6.819,0,0,0,4.1-1.369,8.238,8.238,0,0,0,14.931-4.12,7.921,7.921,0,0,0-2.3-2.561,6.279,6.279,0,0,0,1.817-.965,8.263,8.263,0,0,0-5.337-5.027,6.031,6.031,0,1,1-6.854,9.763,6.84,6.84,0,0,0,.51-2.595,6.6,6.6,0,0,0-.054-.763,6.462,6.462,0,0,0,2.582-11.691,6.238,6.238,0,0,0,6.359-9.928,4.1,4.1,0,0,1,.242,1.346,4.155,4.155,0,0,1-8.309,0,4.059,4.059,0,0,1,.255-1.395,5.922,5.922,0,0,0,4.51-3.26c-.237-.037-.476-.066-.719-.082a7.068,7.068,0,0,0,1.139-3.85c0-.02,0-.039,0-.058a5.933,5.933,0,0,0-.442-1.2c0,.083.025.161.025.245a4.165,4.165,0,1,1-6.565-3.391,5.9,5.9,0,0,0,.136,11.548,6.218,6.218,0,0,0,1.569,9.277c-.172.1-.347.2-.53.292-.1.046-.2.083-.3.125-.148.062-.3.12-.452.171-.107.035-.215.067-.325.1-.168.044-.339.083-.512.114-.095.018-.189.038-.286.051a6.269,6.269,0,0,1-.835.061,6.111,6.111,0,0,1-.984-.084c-.034-.005-.07-.009-.105-.016a6.624,6.624,0,0,1-.946-.243,6.264,6.264,0,0,1-4.066-7.489,6.578,6.578,0,1,0,6.342,11.379,5.91,5.91,0,0,1,.381,9.92,6.142,6.142,0,0,1-.745.451c-.077.037-.15.083-.228.12-.108.048-.22.085-.331.128-.126.048-.251.1-.381.138-.111.034-.225.059-.338.087a5.875,5.875,0,0,1-1.414.183,5.918,5.918,0,0,1-5.727-7.464q-.349.157-.68.345a6.857,6.857,0,0,0,4.871,11.708Z" transform="translate(-3467.607 -4116.756)" fill="#a6d18c"/><path d="M4003.569,4317.533a4.071,4.071,0,0,0-.254,1.4,4.155,4.155,0,0,0,8.309,0,4.1,4.1,0,0,0-.243-1.346,6.23,6.23,0,0,1-6.359,9.928,6.461,6.461,0,0,1-2.582,11.691,6.55,6.55,0,0,1,.055.763,6.857,6.857,0,0,1-.51,2.6,5.982,5.982,0,0,0,4.134,1.663,6.032,6.032,0,0,0,2.719-11.426,8.26,8.26,0,0,1,5.337,5.027,6.278,6.278,0,0,0-1.307-10.769,7.848,7.848,0,0,0-4.791-12.781A5.92,5.92,0,0,1,4003.569,4317.533Z" transform="translate(-3627.928 -4121.282)" fill="#cae2ad"/><path d="M3988.946,4336.245a5.874,5.874,0,0,0,1.414-.182c.114-.028.228-.053.339-.087.129-.041.254-.09.381-.138.109-.043.222-.08.329-.128.079-.036.152-.083.229-.12a6.053,6.053,0,0,0,.745-.451,5.957,5.957,0,0,0,1.786-1.995,5.9,5.9,0,0,0-2.166-7.925,6.577,6.577,0,1,1-6.342-11.379,6.375,6.375,0,0,0-.2,1.536,6.3,6.3,0,0,0,4.262,5.953,6.625,6.625,0,0,0,.947.242c.035.007.071.011.1.016a6.128,6.128,0,0,0,.984.084,6.262,6.262,0,0,0,.834-.061c.1-.013.191-.033.287-.051.173-.031.344-.07.512-.114.11-.03.218-.062.325-.1.154-.051.3-.109.453-.171.1-.042.2-.08.3-.125.182-.087.357-.188.529-.292a6.216,6.216,0,0,1-1.568-9.276,5.9,5.9,0,0,1-.136-11.548,4.159,4.159,0,1,0,6.564,3.391c0-.084-.02-.163-.024-.245a5.942,5.942,0,0,1,.442,1.2,7.121,7.121,0,1,0-13.677,2.839,6.276,6.276,0,0,0-4.278,5.955,6.369,6.369,0,0,0,.071.894,8.3,8.3,0,0,0,1.321,14.608c-.168.062-.331.132-.493.2a5.821,5.821,0,0,0-.207,1.526A5.936,5.936,0,0,0,3988.946,4336.245Z" transform="translate(-3619.709 -4115.279)" fill="#cae2ad"/><path d="M3994.335,4362.417a7.845,7.845,0,0,0,12.021-9.746,8.238,8.238,0,0,1-14.932,4.12,6.861,6.861,0,0,1-8.969-10.339,8.025,8.025,0,1,0,9.319,12.952l-.2,22.219h2.945l-.18-19.205Z" transform="translate(-3619.625 -4132.604)" fill="#cae2ad"/><path d="M4010.279,4312.026c.243.016.482.044.719.082a5.811,5.811,0,0,0,.417-3.99c0,.02,0,.038,0,.058A7.076,7.076,0,0,1,4010.279,4312.026Z" transform="translate(-3630.847 -4119.116)" fill="#a6d18c"/><path d="M4020.292,4354.134c.017-.218.033-.437.033-.66a8.219,8.219,0,0,0-.517-2.865,6.293,6.293,0,0,1-1.818.964A7.921,7.921,0,0,1,4020.292,4354.134Z" transform="translate(-3633.56 -4134.067)" fill="#a6d18c"/><path d="M3985.444,4345.393a7,7,0,0,0-.779.686q.331-.187.681-.345C3985.375,4345.62,3985.406,4345.5,3985.444,4345.393Z" transform="translate(-3621.834 -4132.231)" fill="#a6d18c"/><path d="M3988.443,4342.312a6.819,6.819,0,0,0,4.1-1.369,8.238,8.238,0,0,0,14.932-4.12,7.921,7.921,0,0,0-2.3-2.561,6.3,6.3,0,0,0,1.818-.965,8.262,8.262,0,0,0-5.337-5.027,6.031,6.031,0,1,1-6.854,9.763,6.854,6.854,0,0,0,.51-2.595,6.542,6.542,0,0,0-.055-.763,6.461,6.461,0,0,0,2.582-11.691,6.238,6.238,0,0,0,6.359-9.928,4.1,4.1,0,0,1,.243,1.346,4.155,4.155,0,0,1-8.309,0,4.07,4.07,0,0,1,.254-1.395,5.921,5.921,0,0,0,4.51-3.26c-.236-.037-.476-.066-.719-.082a7.074,7.074,0,0,0,1.138-3.85c0-.02,0-.039,0-.058a5.947,5.947,0,0,0-.442-1.2c0,.083.023.161.023.245a4.165,4.165,0,1,1-6.564-3.391,5.9,5.9,0,0,0,.136,11.548,6.217,6.217,0,0,0,1.568,9.277c-.172.1-.347.2-.529.292-.1.046-.2.083-.3.125-.148.062-.3.12-.452.171-.107.035-.215.067-.325.1-.168.044-.34.083-.513.114-.1.018-.188.038-.287.051a6.261,6.261,0,0,1-.834.061,6.123,6.123,0,0,1-.984-.084c-.035-.005-.07-.009-.105-.016a6.659,6.659,0,0,1-.947-.243,6.261,6.261,0,0,1-4.065-7.489,6.578,6.578,0,1,0,6.342,11.379,5.911,5.911,0,0,1,.381,9.92,6.221,6.221,0,0,1-.745.451c-.077.037-.149.083-.229.12-.107.048-.22.085-.329.128-.127.048-.252.1-.381.138-.111.034-.226.059-.34.087a5.87,5.87,0,0,1-1.413.183,5.937,5.937,0,0,1-5.933-5.937,5.822,5.822,0,0,1,.207-1.526q-.35.157-.681.345a6.857,6.857,0,0,0,4.87,11.708Z" transform="translate(-3620.742 -4116.756)" fill="#a6d18c"/></g></g></g><g transform="translate(3452.753 4167.583)"><g transform="translate(159.375)"><path d="M4.887,0H8.454a4.889,4.889,0,0,1,4.889,4.889V13.74a4.886,4.886,0,0,1-4.886,4.886H4.887A4.887,4.887,0,0,1,0,13.739V4.887A4.887,4.887,0,0,1,4.887,0Z" transform="translate(0.84 55.341)"/><path d="M3914.272,4465.593c0,1.114-44.572,2.016-99.556,2.016s-99.554-.9-99.554-2.016,44.571-2.023,99.554-2.023S3914.272,4464.475,3914.272,4465.593Z" transform="translate(-3712.201 -4303.979)" fill="#9e9e9f"/><path d="M3985.108,4217.338h-45.233a10.56,10.56,0,0,1,10.56,10.56v71.315h45.234V4227.9A10.56,10.56,0,0,0,3985.108,4217.338Z" transform="translate(-3791.27 -4217.338)" fill="#397156"/><path d="M3771.383,4299.213V4227.9a10.561,10.561,0,0,1,10.562-10.56h98.644a10.56,10.56,0,0,1,10.56,10.56v71.315Z" transform="translate(-3731.983 -4217.338)" fill="#47856b"/><rect width="45.633" height="28.019" rx="14.009" transform="translate(75.756 26.927)" fill="#fff" opacity="0.4"/><g transform="translate(51.619 20.342)"><path d="M3885.036,4299.739h-91.888l-.518-.529v-35.075a14.47,14.47,0,0,1,14.305-14.6h64.318a14.469,14.469,0,0,1,14.3,14.6v35.046Zm-89.278-2.8h86.674l.389-.4v-32.412a11.7,11.7,0,0,0-11.567-11.8h-64.318a11.7,11.7,0,0,0-11.566,11.8v32.384Z" transform="translate(-3791.078 -4249.011)" fill="#b4b4b5"/><path d="M3882.641,4298.924h-91.889l-.517-.528v-35.074a14.471,14.471,0,0,1,14.305-14.6h64.317a14.471,14.471,0,0,1,14.307,14.6v35.046Zm-89.278-2.8h86.675l.389-.395v-32.412a11.7,11.7,0,0,0-11.568-11.8H3804.54a11.7,11.7,0,0,0-11.568,11.8v32.385Z" transform="translate(-3790.235 -4248.724)" fill="#eeeeef"/><g transform="translate(30.245 2.804)"><rect width="0.861" height="44.698" transform="translate(1.609)" fill="#7a7a7a"/><rect width="1.605" height="44.698" fill="#ccc"/></g><g transform="translate(59.462 2.804)"><rect width="0.862" height="44.698" transform="translate(1.608)" fill="#7a7a7a"/><rect width="1.603" height="44.698" fill="#ccc"/></g></g><path d="M3866.4,4299.458H3720.609l20.715-50.351s3.438-6.623,12.728-6.623H3851.1s7.214.389,8.949,7.718C3861.033,4254.371,3866.4,4299.458,3866.4,4299.458Zm-17.256-40.572a5.279,5.279,0,0,0-5.28-5.279h-62.324a5.279,5.279,0,0,0-5.281,5.279v24.688a5.279,5.279,0,0,0,5.281,5.28h62.324a5.279,5.279,0,0,0,5.28-5.28Zm-87.738-7.71h-12.283a6.059,6.059,0,0,0-5.836,3.406c-1.086,2.185-14.717,37.267-16.471,40.875s.392,3.7,1.041,3.7,23.651.081,26.722.081,3.172-1.574,3.227-2.534,4.984-39.938,5.35-42.533S3762.168,4251.176,3761.408,4251.176Z" transform="translate(-3714.117 -4226.186)" fill="#3e3a39"/><path d="M3764.412,4255.894h-12.284a6.06,6.06,0,0,0-5.836,3.407c-1.086,2.184-14.716,37.266-16.47,40.874s.392,3.7,1.04,3.7,23.652.081,26.722.081,3.172-1.574,3.226-2.534,4.984-39.938,5.35-42.533S3765.171,4255.894,3764.412,4255.894Z" transform="translate(-3717.121 -4230.904)" fill="#fff" opacity="0.2"/><g transform="translate(56.842 44.411)"><path d="M3831.727,4297.636a3.393,3.393,0,0,1-3.346,3.168h-16.724a2.965,2.965,0,0,1-2.993-3.168l1.537-8.61a3.391,3.391,0,0,1,3.345-3.167h14.613a2.964,2.964,0,0,1,2.992,3.167Z" transform="translate(-3801.941 -4285.859)" fill="#1a1a1a"/><path d="M3815.851,4314.561a4.8,4.8,0,0,1,4.486,3.1h11.526l.287-1.947c.342-1.75-1.641-4.013-3.392-4.013H3801.99a4.042,4.042,0,0,0-3.7,2.857Z" transform="translate(-3798.294 -4294.953)" fill="#1a1a1a"/></g><g transform="translate(102.735 44.411)"><path d="M3903.525,4297.636a3.393,3.393,0,0,1-3.344,3.168h-16.727a2.965,2.965,0,0,1-2.991-3.168l1.537-8.61a3.39,3.39,0,0,1,3.346-3.167h14.613a2.962,2.962,0,0,1,2.991,3.167Z" transform="translate(-3873.098 -4285.859)" fill="#1a1a1a"/><path d="M3900.21,4311.7H3873.44a4.041,4.041,0,0,0-3.788,3.168l-.55,2.792h17.062c-.062,1.177-.1,1.959-.116,2.2a2.814,2.814,0,0,1-1.672,2.538h18.241l.982-6.686C3903.943,4313.966,3901.96,4311.7,3900.21,4311.7Z" transform="translate(-3869.102 -4294.953)" fill="#1a1a1a"/></g><path d="M3924.206,4247.924s-1.377-5.439-6.94-5.439h-6.194s-7.177.389-8.07,7.718c-.508,4.169-1.947,47.375-1.947,47.375l-.215,2.755v32.818h14.483a1.161,1.161,0,0,1,1.212,1.127,5.6,5.6,0,0,1,1.908-.366c2.3,0,4.1,1.89,5.449,4.733h7.588v-39.187Zm3.139,48.059a2.748,2.748,0,0,1-2.3,1,31.631,31.631,0,0,0-12.247,2.246,10.892,10.892,0,0,1-3.568.922h-2.016a3.841,3.841,0,0,1-2.893-1.035,4.2,4.2,0,0,1-.944-3.234c.106-2.332.291-6.886.5-12.167.513-12.613,1.149-28.312,1.341-29.9.4-3.239,3.6-4.394,5.243-4.552l8.152,0a3.409,3.409,0,0,1,3.39,2.95l5.835,40.437A4.277,4.277,0,0,1,3927.345,4295.982Z" transform="translate(-3777.534 -4226.186)" fill="#b4b4b5"/><path d="M3929.217,4296.32l-5.835-40.437a3.409,3.409,0,0,0-3.39-2.95l-8.152,0c-1.64.158-4.847,1.313-5.243,4.552-.192,1.589-.828,17.287-1.341,29.9-.213,5.281-.4,9.835-.5,12.167a4.2,4.2,0,0,0,.944,3.234,3.841,3.841,0,0,0,2.893,1.034h2.016a10.892,10.892,0,0,0,3.568-.922,31.631,31.631,0,0,1,12.247-2.246,2.747,2.747,0,0,0,2.3-1A4.276,4.276,0,0,0,3929.217,4296.32Zm-1.6,2.481a1.425,1.425,0,0,1-1.2.458,33.354,33.354,0,0,0-12.73,2.331,10.069,10.069,0,0,1-3.085.836h-2.016a2.536,2.536,0,0,1-1.882-.6,2.973,2.973,0,0,1-.557-2.206c.106-2.336.289-6.89.5-12.175.485-11.924,1.146-28.253,1.334-29.786.356-2.93,3.84-3.316,3.92-3.329h8.086a2.033,2.033,0,0,1,2.01,1.755l5.848,40.5A3.06,3.06,0,0,1,3927.619,4298.8Z" transform="translate(-3778.908 -4229.863)" fill="#231815"/><path d="M3922.76,4256.844a2.033,2.033,0,0,0-2.01-1.755h-8.086c-.08.012-3.564.4-3.92,3.328-.187,1.533-.849,17.862-1.334,29.786-.216,5.286-.4,9.839-.5,12.176a2.971,2.971,0,0,0,.557,2.205,2.536,2.536,0,0,0,1.882.6h2.016a10.08,10.08,0,0,0,3.085-.836,33.354,33.354,0,0,1,12.73-2.331,1.426,1.426,0,0,0,1.2-.458,3.06,3.06,0,0,0,.231-2.211Z" transform="translate(-3779.667 -4230.621)" fill="#fff" opacity="0.2"/><g transform="translate(125.835 23.07)"><path d="M3910.6,4303.824h-2.016a3.841,3.841,0,0,1-2.893-1.034,4.2,4.2,0,0,1-.944-3.234c.106-2.332.291-6.886.5-12.167.513-12.614,1.149-28.312,1.341-29.9.4-3.239,3.6-4.394,5.243-4.552l8.152,0a3.409,3.409,0,0,1,3.39,2.95l5.835,40.437a4.276,4.276,0,0,1-.5,3.338,2.747,2.747,0,0,1-2.3,1,31.631,31.631,0,0,0-12.247,2.246A10.892,10.892,0,0,1,3910.6,4303.824Zm1.3-49.494c-.08.013-3.564.4-3.92,3.329-.187,1.533-.849,17.862-1.334,29.786-.216,5.285-.4,9.839-.5,12.175a2.973,2.973,0,0,0,.557,2.206,2.536,2.536,0,0,0,1.882.6h2.016a10.069,10.069,0,0,0,3.085-.836,33.354,33.354,0,0,1,12.73-2.331,1.425,1.425,0,0,0,1.2-.458,3.06,3.06,0,0,0,.231-2.211l-5.848-40.5a2.033,2.033,0,0,0-2.01-1.755Z" transform="translate(-3904.742 -4252.933)" fill="#231815"/></g><g transform="translate(40.394 57.89)"><path d="M3775.793,4312.784a9.2,9.2,0,0,1,7.66-3.8,12.5,12.5,0,0,1,8.744,3.8h2.876a15.445,15.445,0,0,0-11.951-6.128,11.074,11.074,0,0,0-10.206,6.128Z" transform="translate(-3772.917 -4306.656)"/></g><g transform="translate(10.799 64.019)"><path d="M3727.395,4323.62c.318.559,1.193.863,2.46.863h101.77c2.872,0,4.389-1.03,4.512-3.067.013-.242.054-1.024.116-2.2h-40.912a4.8,4.8,0,0,0-4.486-3.1h-49.979c-2.052,0-4.752,1.292-6.787,3.1h-5.275c-.565,1.326-.944,2.172-1.108,2.445A2.043,2.043,0,0,0,3727.395,4323.62Z" transform="translate(-3727.254 -4316.112)" fill="#1a1a1a"/></g><path d="M2.039,0H20.575a2.038,2.038,0,0,1,2.038,2.038V4.856a2.038,2.038,0,0,1-2.038,2.038H2.036A2.036,2.036,0,0,1,0,4.858V2.039A2.039,2.039,0,0,1,2.039,0Z" transform="translate(58.137 26.579)" fill="#1a1a1a"/><path d="M3986.267,4397.6c-4.189,0-7.583,10.123-7.583,22.611s3.394,22.612,7.583,22.612h10.012c-4.188,0-7.583-10.126-7.583-22.612s3.4-22.611,7.583-22.611Z" transform="translate(-3804.925 -4280.767)" fill="#231815"/><path d="M1.224,0H46.04a1.223,1.223,0,0,1,1.223,1.223v.36A1.223,1.223,0,0,1,46.04,2.805H1.221A1.221,1.221,0,0,1,0,1.584V1.224A1.224,1.224,0,0,1,1.224,0Z" transform="translate(155.736 81.875)" fill="#bebfbf"/><path d="M3948.114,4346.468h2.6a.791.791,0,0,1-.789-.793v-1.223a.789.789,0,0,1,.789-.789h-2.6Z" transform="translate(-3794.169 -4261.788)" fill="#888"/><path d="M1.22,0H46.04a1.223,1.223,0,0,1,1.223,1.223v.613A1.225,1.225,0,0,1,46.038,3.06H1.221A1.221,1.221,0,0,1,0,1.84V1.22A1.22,1.22,0,0,1,1.22,0Z" transform="translate(155.736 109.446)" fill="#9e9e9f"/><path d="M4004.271,4390.911h-5.241c-1.531,0-2.807,1.361-3.841,3.3.017.032.032.068.047.1.158.3.311.61.458.936h6.393c3.1,0,5.759,5.541,6.936,13.475h1.33s.927.028.927-1.408C4011.28,4404.822,4008.751,4390.911,4004.271,4390.911Z" transform="translate(-3810.733 -4278.413)" fill="#383231"/><path d="M4009.3,4420.214c0,12.486-3.4,22.612-7.581,22.612s-7.583-10.126-7.583-22.612,3.4-22.611,7.583-22.611S4009.3,4407.726,4009.3,4420.214Z" transform="translate(-3810.36 -4280.767)" fill="#595757"/><path d="M4008.632,4424.775c0,7.846-1.935,14.206-4.321,14.206s-4.321-6.36-4.321-14.206,1.933-14.209,4.321-14.209S4008.632,4416.929,4008.632,4424.775Z" transform="translate(-3812.422 -4285.328)" fill="#eeeeef"/><path d="M3759.251,4440.763c.808,9.9,3.8,17.25,7.365,17.25s6.559-7.352,7.366-17.25Z" transform="translate(-3727.714 -4295.954)" fill="#231815"/><path d="M3753.816,4440.763H3743.8c.807,9.9,3.8,17.25,7.365,17.25h10.012C3757.614,4458.013,3754.623,4450.661,3753.816,4440.763Z" transform="translate(-3722.279 -4295.954)" fill="#3e3a39"/><path d="M3838.7,4440.763c.807,9.9,3.8,17.25,7.365,17.25s6.557-7.352,7.366-17.25Z" transform="translate(-3755.67 -4295.954)" fill="#231815"/><path d="M3833.266,4440.763h-10.015c.81,9.9,3.8,17.25,7.369,17.25h10.011C3837.063,4458.013,3834.072,4450.661,3833.266,4440.763Z" transform="translate(-3750.234 -4295.954)" fill="#3e3a39"/><path d="M3929.771,4420.214c0,12.486-3.393,22.612-7.581,22.612s-7.582-10.126-7.582-22.612,3.4-22.611,7.582-22.611S3929.771,4407.726,3929.771,4420.214Z" transform="translate(-3782.379 -4280.767)" fill="#595757"/><path d="M3929.108,4424.775c0,7.846-1.934,14.206-4.321,14.206s-4.321-6.36-4.321-14.206,1.936-14.209,4.321-14.209S3929.108,4416.929,3929.108,4424.775Z" transform="translate(-3784.44 -4285.328)" fill="#eeeeef"/><path d="M3959.064,4415.269c0-12.489,3.4-22.612,7.583-22.612h-6.4c-.16-.355-.32-.709-.493-1.036-.174.33-.339.676-.5,1.036h0c-.118.268-.235.541-.348.82a40.834,40.834,0,0,0-2.518,11.247,1.4,1.4,0,0,1-1.47,1.408h-10.324s-.927.028-.927-1.408a42.145,42.145,0,0,1,2.565-11.247c1.137-2.877,2.631-5.157,4.443-5.157.852,0-29.018-.04-29.018-.04-1.348-2.844-3.149-4.689-5.449-4.733-4.821-.091-6.6,6.694-8,13.891-1.009,5.083-1.831,10.369-3.374,13.584a19.67,19.67,0,0,1-7.2,8.193.174.174,0,0,1,0,.027,14.521,14.521,0,0,1-3.159,1.556,17.972,17.972,0,0,0,3.443,1.686c1.009,8.943,3.838,15.4,7.18,15.4H3915.1c-3.141,0-5.838-5.7-6.987-13.823h0a63.191,63.191,0,0,1-.594-8.789c0-12.489,3.4-22.612,7.582-22.612,1.8,0,3.446,1.867,4.745,4.981h0a27.871,27.871,0,0,1,1.169,3.488c0,.011.005.021.008.03q.253.938.469,1.955c.007.03.013.061.021.092q.218,1.022.4,2.116a.19.19,0,0,0,.006.022q.18,1.11.322,2.283c0,.024,0,.051.01.075q.132,1.118.226,2.291c.006.069.011.143.018.213.056.755.1,1.527.135,2.309,0,.069,0,.135.006.206q.048,1.255.05,2.552,0,1.054-.035,2.08c-.008.283-.023.561-.034.841-.023.486-.042.974-.074,1.448.1-.147.2-.31.294-.469h17.813a3.191,3.191,0,0,0,3.181-2.561h5.236c.232,11.863,3.532,21.273,7.569,21.273h10.012C3962.46,4437.88,3959.064,4427.754,3959.064,4415.269Z" transform="translate(-3775.293 -4275.821)" fill="#231815"/><path d="M3929.771,4420.214c0,12.486-3.393,22.612-7.581,22.612s-7.582-10.126-7.582-22.612,3.4-22.611,7.582-22.611S3929.771,4407.726,3929.771,4420.214Z" transform="translate(-3782.379 -4280.767)" fill="#595757"/><path d="M3929.108,4424.775c0,7.846-1.934,14.206-4.321,14.206s-4.321-6.36-4.321-14.206,1.936-14.209,4.321-14.209S3929.108,4416.929,3929.108,4424.775Z" transform="translate(-3784.44 -4285.328)" fill="#eeeeef"/><path d="M4007.25,4430.176c0,2.354-.582,4.26-1.3,4.26s-1.3-1.906-1.3-4.26.58-4.261,1.3-4.261S4007.25,4427.82,4007.25,4430.176Z" transform="translate(-3814.064 -4290.729)" fill="#595757"/><path d="M3927.724,4430.176c0,2.354-.581,4.26-1.295,4.26s-1.3-1.906-1.3-4.26.582-4.261,1.3-4.261S3927.724,4427.82,3927.724,4430.176Z" transform="translate(-3786.082 -4290.729)" fill="#595757"/><path d="M4004.527,4437.895c-2.548,0-3.922-6.094-3.922-11.829s1.375-11.833,3.922-11.833,3.922,6.1,3.922,11.833S4007.077,4437.895,4004.527,4437.895Zm0-22.732c-1.412,0-2.991,4.663-2.991,10.9s1.58,10.9,2.991,10.9,2.991-4.662,2.991-10.9S4005.939,4415.163,4004.527,4415.163Z" transform="translate(-3812.638 -4286.618)" fill="#231815"/><path d="M3925,4437.895c-2.548,0-3.923-6.094-3.923-11.829s1.375-11.833,3.923-11.833,3.923,6.1,3.923,11.833S3927.552,4437.895,3925,4437.895Zm0-22.732c-1.25,0-2.992,4.147-2.992,10.9s1.742,10.9,2.992,10.9,2.99-4.147,2.99-10.9S3926.254,4415.163,3925,4415.163Z" transform="translate(-3784.657 -4286.618)" fill="#231815"/><path d="M3888.86,4393.127s-2.481,30.875-4.967,30.875h7.276a19.153,19.153,0,0,0,9.936-9.608c2.374-4.948,3.039-14.8,5.3-21.266Z" transform="translate(-3771.572 -4279.192)" fill="#1a1a1a"/><path d="M3912.056,4382.372h-14.91l-5.59,6.971H3909.1c.992-2.842,2.249-5.022,4.169-5.843A1.161,1.161,0,0,0,3912.056,4382.372Z" transform="translate(-3774.268 -4275.408)" fill="#262626"/><path d="M3710.593,4393.127s-.055,30.875,9.259,30.875h103.063c2.486,0,4.967-30.875,4.967-30.875Z" transform="translate(-3710.593 -4279.192)" fill="#333"/><path d="M3710.593,4389.342l3.363-6.971h119.515l-5.589,6.971Z" transform="translate(-3710.593 -4275.407)" fill="#4d4d4d"/><path d="M3903.362,4350.512h-2.523v6.29h3.572v-4.556S3904.331,4350.512,3903.362,4350.512Z" transform="translate(-3777.534 -4264.197)" fill="#ec6c00"/><rect width="3.572" height="14.354" transform="translate(123.305 92.61)" fill="#dbdcdc"/><path d="M3750.224,4242.484c-10.865,0-13.385,6.623-13.385,6.623s-19.527,46.705-20.336,48.47-.488,4.918-.488,4.918l-.232,10.006h15.245c5.475,0,5.491,6.29,5.491,6.29v14.359h99.206v-32.818l.215-2.755s1.439-43.206,1.947-47.375c.893-7.329,8.07-7.718,8.07-7.718Zm83.27,53.107c-.079,1.319-.809,4.383-5.9,4.383h-101.77c-2.3,0-3.267-.853-3.674-1.57a3.3,3.3,0,0,1,.327-3.365c.585-.982,5.129-12.224,9.139-22.139,5.023-12.421,8.107-20.019,8.588-20.778l.061-.095c1.013-1.6,2.162-3.414,4.828-3.488,2.305-.066,10.9-.1,25.56-.1,14.351,0,33.945.03,58.245.091l2.282.008a4.753,4.753,0,0,1,3.3,1.492,4.21,4.21,0,0,1,1.193,3.12C3835.547,4255.568,3833.613,4293.6,3833.493,4295.592Z" transform="translate(-3712.419 -4226.186)" fill="#e2e2e2"/><path d="M3838.309,4257.074a2.8,2.8,0,0,0-.807-2.087,3.365,3.365,0,0,0-2.29-1.06l-2.285-.006c-24.3-.062-43.893-.093-58.242-.093-14.644,0-23.229.034-25.52.1-1.923.054-2.742,1.346-3.689,2.84l-.062.095c-.457.734-4.715,11.265-8.472,20.552-5.192,12.841-8.641,21.332-9.237,22.332a2.043,2.043,0,0,0-.311,1.96c.318.559,1.193.863,2.46.863h101.77c2.872,0,4.389-1.03,4.512-3.067C3836.255,4297.509,3838.19,4259.492,3838.309,4257.074Z" transform="translate(-3716.456 -4230.177)" fill="#fff" opacity="0.4"/><path d="M3830.865,4303.208h-101.77c-2.3,0-3.267-.853-3.674-1.57a3.3,3.3,0,0,1,.327-3.365c.585-.983,5.129-12.224,9.139-22.139,5.023-12.421,8.107-20.019,8.588-20.777l.061-.095c1.012-1.6,2.161-3.414,4.827-3.488,2.305-.066,10.9-.1,25.56-.1,14.35,0,33.945.03,58.245.091l2.282.008a4.751,4.751,0,0,1,3.3,1.492,4.209,4.209,0,0,1,1.193,3.12c-.12,2.417-2.054,40.448-2.174,42.44C3836.691,4300.145,3835.961,4303.208,3830.865,4303.208Zm-56.941-50.139c-14.644,0-23.229.034-25.52.1-1.923.054-2.742,1.346-3.689,2.84l-.062.095c-.457.734-4.715,11.265-8.472,20.552-5.192,12.841-8.641,21.332-9.237,22.332a2.043,2.043,0,0,0-.311,1.96c.318.559,1.193.863,2.46.863h101.77c2.872,0,4.389-1.03,4.512-3.067.118-1.992,2.053-40.009,2.172-42.427a2.8,2.8,0,0,0-.807-2.087,3.365,3.365,0,0,0-2.29-1.06l-2.285-.006C3807.867,4253.1,3788.273,4253.069,3773.924,4253.069Z" transform="translate(-3715.695 -4229.42)"/><path d="M3731.027,4350.512h-15.245v6.29h20.736S3736.5,4350.512,3731.027,4350.512Z" transform="translate(-3712.419 -4264.197)" fill="#f29600"/><rect width="20.736" height="14.354" transform="translate(3.363 92.61)" fill="#fff"/><path d="M4.887,0H8.456a4.886,4.886,0,0,1,4.886,4.886V13.74a4.886,4.886,0,0,1-4.886,4.886H4.888A4.888,4.888,0,0,1,0,13.738V4.887A4.887,4.887,0,0,1,4.887,0Z" transform="translate(130.981 55.341)"/><path d="M3874.145,4350.512h15.371v6.29h-20.858S3868.673,4350.512,3874.145,4350.512Z" transform="translate(-3766.21 -4264.197)" fill="#f29600"/><rect width="20.859" height="14.354" transform="translate(102.446 92.61)" fill="#fff"/><path d="M3825.713,4403.15a3.17,3.17,0,0,1-3.169,3.167H3720.382a3.166,3.166,0,0,1-3.167-3.167V4401.8a3.167,3.167,0,0,1,3.167-3.168h102.161a3.17,3.17,0,0,1,3.169,3.168Z" transform="translate(-3712.923 -4281.13)"/><path d="M3.842,0H11.9A3.841,3.841,0,0,1,15.74,3.841v0A3.841,3.841,0,0,1,11.9,7.683H3.842A3.842,3.842,0,0,1,0,3.842v0A3.842,3.842,0,0,1,3.842,0Z" transform="translate(4.292 117.504)" fill="#c8c9ca"/><path d="M3.841,0H11.9a3.841,3.841,0,0,1,3.841,3.841v0A3.842,3.842,0,0,1,11.9,7.683H3.842A3.842,3.842,0,0,1,0,3.842v0A3.841,3.841,0,0,1,3.841,0Z" transform="translate(97.235 117.504)" fill="#c8c9ca"/><path d="M1.223,0H42.274A1.222,1.222,0,0,1,43.5,1.222v9.241a1.222,1.222,0,0,1-1.222,1.222H1.223A1.223,1.223,0,0,1,0,10.462V1.223A1.223,1.223,0,0,1,1.223,0Z" transform="translate(35.917 122.265)" fill="#d9d9d9"/><path d="M3935.193,4342.469a.79.79,0,0,0,.791.792h3.7a.789.789,0,0,0,.79-.792v-2.377a.792.792,0,0,0-.79-.793h-3.7a.793.793,0,0,0-.791.793Z" transform="translate(-3789.622 -4260.252)" fill="#262626"/><rect width="47.738" height="24.768" transform="translate(153.953 84.687)" fill="#b4b4b5"/><path d="M3950.548,4377.615a.78.78,0,0,1-.622-.758v-1.477a.789.789,0,0,1,.789-.793h-1.536v-21.393h-1.057v21.393h-.008v3.025Z" transform="translate(-3794.169 -4265.142)" fill="#888"/><rect width="9.547" height="16.763" transform="translate(154.799 127.05)" fill="#c8c9ca"/><g transform="translate(168.366 112.499)"><path d="M3970.364,4410.115c0,1.436.927,1.408.927,1.408h10.324a1.4,1.4,0,0,0,1.47-1.408,40.847,40.847,0,0,1,2.517-11.247h-12.673A42.164,42.164,0,0,0,3970.364,4410.115Z" transform="translate(-3970.364 -4393.711)" fill="#b3b3b3"/><path d="M3991.688,4390.911h-12.923c-1.812,0-3.306,2.28-4.443,5.157h12.673C3988.146,4393.192,3989.7,4390.911,3991.688,4390.911Z" transform="translate(-3971.757 -4390.911)" fill="#717071"/></g><rect width="47.738" height="3.367" transform="translate(153.953 84.687)" fill="#9e9e9f"/><g transform="translate(161.995 5.895)"><path d="M3983.374,4226.447s2.449,3.7,4.578,3.7c2.576,0,4.756-3.99,4.756-3.7,0,.35-1.835,5.293-4.756,5.293S3983.322,4226.978,3983.374,4226.447Z" transform="translate(-3968.57 -4226.433)" fill="#47856b"/><path d="M4006.1,4226.447s2.446,3.7,4.576,3.7c2.576,0,4.754-3.99,4.754-3.7,0,.35-1.832,5.293-4.754,5.293S4006.049,4226.978,4006.1,4226.447Z" transform="translate(-3976.568 -4226.433)" fill="#47856b"/><path d="M3960.535,4226.447s2.448,3.7,4.577,3.7c2.576,0,4.756-3.99,4.756-3.7,0,.35-1.836,5.293-4.756,5.293S3960.483,4226.978,3960.535,4226.447Z" transform="translate(-3960.534 -4226.433)" fill="#47856b"/></g><g transform="translate(161.996 5.544)"><path d="M3983.374,4226.084c0-.84,2.449,1.916,4.578,1.916,2.576,0,4.756-2.868,4.756-1.916,0,.489-1.835,3.64-4.756,3.64S3983.374,4226.28,3983.374,4226.084Z" transform="translate(-3968.572 -4225.891)" fill="#27654d"/><path d="M4006.1,4226.084c0-.84,2.446,1.916,4.576,1.916,2.576,0,4.754-2.868,4.754-1.916,0,.489-1.832,3.64-4.754,3.64S4006.1,4226.28,4006.1,4226.084Z" transform="translate(-3976.569 -4225.891)" fill="#27654d"/><path d="M3960.536,4226.084c0-.84,2.448,1.916,4.577,1.916,2.576,0,4.756-2.868,4.756-1.916,0,.489-1.836,3.64-4.756,3.64S3960.536,4226.28,3960.536,4226.084Z" transform="translate(-3960.536 -4225.891)" fill="#27654d"/></g><g transform="translate(177.868 75.042)"><path d="M3991.133,4337.25c0-.359-.508.841-1.1,1.79-.727,1.167-1.058.988-1.062,1.346s.57.157,1.164-.709A6.222,6.222,0,0,0,3991.133,4337.25Z" transform="translate(-3986.413 -4334.55)" fill="#47856b"/><path d="M3990.886,4333.169c-.006-.338-.552,1.084-1.094,2.628a14.4,14.4,0,0,0-.906,2.627c.016.369.578-.456,1.128-1.925A14.4,14.4,0,0,0,3990.886,4333.169Z" transform="translate(-3986.383 -4333.119)" fill="#27654d"/><path d="M3985.024,4337.25c0-.359.508.841,1.1,1.79.728,1.167,1.059.988,1.061,1.346s-.568.157-1.165-.709A6.256,6.256,0,0,1,3985.024,4337.25Z" transform="translate(-3985.024 -4334.55)" fill="#47856b"/><path d="M3985.356,4333.169c.008-.338.553,1.084,1.1,2.628a14.108,14.108,0,0,1,.905,2.627c-.017.369-.579-.456-1.129-1.925A14.6,14.6,0,0,1,3985.356,4333.169Z" transform="translate(-3985.141 -4333.119)" fill="#27654d"/></g><g transform="translate(196.309 75.042)"><path d="M4019.586,4337.25c0-.359-.508.841-1.1,1.79-.725,1.167-1.058.988-1.06,1.346s.568.157,1.165-.709A6.291,6.291,0,0,0,4019.586,4337.25Z" transform="translate(-4014.866 -4334.55)" fill="#47856b"/><path d="M4019.34,4333.169c-.006-.338-.552,1.084-1.1,2.628a14.145,14.145,0,0,0-.906,2.627c.017.369.579-.456,1.128-1.925A14.647,14.647,0,0,0,4019.34,4333.169Z" transform="translate(-4014.836 -4333.119)" fill="#27654d"/><path d="M4013.477,4337.25c0-.359.507.841,1.1,1.79.726,1.167,1.057.988,1.061,1.346s-.568.157-1.166-.709A6.243,6.243,0,0,1,4013.477,4337.25Z" transform="translate(-4013.477 -4334.55)" fill="#47856b"/><path d="M4013.81,4333.169c.006-.338.553,1.084,1.094,2.628a14.274,14.274,0,0,1,.906,2.627c-.016.369-.579-.456-1.128-1.925A14.576,14.576,0,0,1,4013.81,4333.169Z" transform="translate(-4013.594 -4333.119)" fill="#27654d"/></g><g transform="translate(161.716 75.042)"><path d="M3966.212,4337.25c0-.359-.508.841-1.1,1.79-.726,1.167-1.059.988-1.063,1.346s.57.157,1.165-.709A6.247,6.247,0,0,0,3966.212,4337.25Z" transform="translate(-3961.493 -4334.55)" fill="#47856b"/><path d="M3965.967,4333.169c-.009-.338-.552,1.084-1.093,2.628a14.13,14.13,0,0,0-.908,2.627c.017.369.579-.456,1.128-1.925A14.483,14.483,0,0,0,3965.967,4333.169Z" transform="translate(-3961.463 -4333.119)" fill="#27654d"/><path d="M3960.1,4337.25c0-.359.509.841,1.1,1.79.728,1.167,1.059.988,1.061,1.346s-.566.157-1.163-.709A6.245,6.245,0,0,1,3960.1,4337.25Z" transform="translate(-3960.104 -4334.55)" fill="#47856b"/><path d="M3960.437,4333.169c.009-.338.553,1.084,1.095,2.628a14.2,14.2,0,0,1,.906,2.627c-.016.369-.577-.456-1.129-1.925A14.633,14.633,0,0,1,3960.437,4333.169Z" transform="translate(-3960.221 -4333.119)" fill="#27654d"/></g><path d="M3961.284,4374.714h-.015a.278.278,0,0,1-.266-.291l1.494-31.046a.282.282,0,0,1,.28-.266h.014a.282.282,0,0,1,.265.294l-1.493,31.043A.279.279,0,0,1,3961.284,4374.714Z" transform="translate(-3798.704 -4261.593)" fill="#717071"/><path d="M3990.181,4374.714a.278.278,0,0,1-.278-.265l-1.4-31.043a.283.283,0,0,1,.267-.293.278.278,0,0,1,.292.269l1.4,31.044a.277.277,0,0,1-.266.29Z" transform="translate(-3808.379 -4261.593)" fill="#717071"/><path d="M4015.128,4374.714h-.015a.277.277,0,0,1-.265-.29l1.491-31.047a.268.268,0,0,1,.3-.266.28.28,0,0,1,.264.293l-1.492,31.044A.279.279,0,0,1,4015.128,4374.714Z" transform="translate(-3817.65 -4261.593)" fill="#717071"/></g><g transform="translate(0 28.909)"><path d="M3615.029,4465.891c0,1.109-33.366,2.009-74.524,2.009s-74.525-.9-74.525-2.009,33.366-2.009,74.525-2.009S3615.029,4464.782,3615.029,4465.891Z" transform="translate(-3465.146 -4332.998)" fill="#b4b4b5"/><g transform="translate(102.934 122.741)"><path d="M3638.447,4464.332s-6.926.317-8.623.315-5.321.043-5.868-.5a2.892,2.892,0,0,1-.339-.42,3.015,3.015,0,0,0,.824,1.564c.547.545,3.689.5,5.383.5s8.623-.316,8.623-.316,3.82-.417,4.017-1.543a6.521,6.521,0,0,0,.082-1.02C3641.892,4463.878,3638.447,4464.332,3638.447,4464.332Z" transform="translate(-3623.547 -4455.397)" fill="#dbdcdc"/><path d="M3632.682,4452.466c-.55.68-1.484,1.468-4.007,2.323-3.243,1.1-3.935,1.379-4.8,2.907a2.558,2.558,0,0,0-.3,1.948,2.909,2.909,0,0,0,.339.42c.547.546,4.174.5,5.868.5s8.624-.315,8.624-.315,3.445-.453,4.1-1.421a33.19,33.19,0,0,0-1.213-7.514C3639.557,4452.694,3635.284,4453.013,3632.682,4452.466Z" transform="translate(-3623.509 -4451.318)" fill="#f5f6f7"/></g><g transform="translate(109.467 126.936)"><path d="M3634.586,4460.212l-1,.646a4.933,4.933,0,0,1,1.186,2.81c.359-.01.757-.023,1.172-.038A5.487,5.487,0,0,0,3634.586,4460.212Z" transform="translate(-3633.589 -4458.643)" fill="#00254d"/><path d="M3636.434,4458.927a9.991,9.991,0,0,1,1.655,3.808c.813-.03,1.635-.064,2.374-.1-.011-2.048-1.7-4.547-1.908-4.848Z" transform="translate(-3634.59 -4457.791)" fill="#00254d"/></g><g transform="translate(135.731 113.794)"><path d="M3684.709,4440.461c-.178-.176-.347-.332-.515-.484.8,1.641.059,4.483.059,4.483a72.35,72.35,0,0,1-2.339,7.565c-.769,1.525-2.192,4.216-2.936,4.445a3.119,3.119,0,0,1-2.6-.209,2.879,2.879,0,0,0,3.262.791c.743-.229,2.426-2.428,3.194-3.954a72.232,72.232,0,0,0,2.339-7.566S3686.13,4441.879,3684.709,4440.461Z" transform="translate(-3674.91 -4438.38)" fill="#dbdcdc"/><path d="M3683.4,4439.11a9.455,9.455,0,0,0-2.294-1.6c-.406,2.31-2.844,6.944-6.99,6.623a10.826,10.826,0,0,1,.778,4.407c-.244,3.481-.411,5.2.589,6.721.031.045.07.089.1.131a3.118,3.118,0,0,0,2.6.208c.743-.229,2.167-2.92,2.936-4.445a72.432,72.432,0,0,0,2.339-7.565S3684.194,4440.751,3683.4,4439.11Z" transform="translate(-3674.112 -4437.513)" fill="#f5f6f7"/></g><g transform="translate(101.201 63.376)"><path d="M3633.537,4385.891c-.495-5.949-.47-13.028-1.093-16.291-.232-1.214-.522-.295-.58-2.667a59.137,59.137,0,0,0,9.626-.687c9.375-1.877,10-4.889,10-4.889s.057.257.117.626a7.083,7.083,0,0,0-.578-2.259c-1.694,5.154-11.933,5.693-17.406,5.583-4.948-.1-7.375-1.22-9.128-3.222-1.052,4.261-3.522,21.445-3.656,27.243-.164,7.224,8.55,29.366,8.894,29.929,1.161,1.865,10.579,1.729,11.345-1.178.676-2.555-6.894-20.81-7.14-24.041C3633.729,4391.355,3633.488,4388.23,3633.537,4385.891Z" transform="translate(-3620.836 -4359.724)" fill="#ccc6ac"/></g><path d="M3654.825,4394.244c-1.769-1.521,0-8.727.919-15.987.595-4.733,1.713-8.739,1.981-13.613a10.569,10.569,0,0,0-.25-2.4s-.624,3.011-10,4.889a59.137,59.137,0,0,1-9.626.687c.058,2.372.348,1.453.58,2.667.806,4.221.528,14.834,1.693,21.118.786,4.241,4.625,11.252,11.164,17.708,3.768,3.724,8.125,8.125,9.867,8.325,5.332.611,7.919-6.96,7.1-7.8C3666.23,4407.751,3659.283,4398.07,3654.825,4394.244Z" transform="translate(-3525.622 -4297.235)" fill="#e2dcc3"/><path d="M3637.493,4334.547c-2.023-13.16-3.088-22.225-8.705-33.123a6.535,6.535,0,0,0-1.268-1.632,7.986,7.986,0,0,0-4.493-2.918,20.04,20.04,0,0,0-3.688-1.271,15.274,15.274,0,0,0-2.933-.348,4.933,4.933,0,0,1-.809,2.4c-.7,1.047-3.67,2.316-3.67,2.316a4.348,4.348,0,0,1-2.3-3.151,8.1,8.1,0,0,1-2.142-.184c-.247-.055-.482-.127-.717-.2a14.869,14.869,0,0,0-4.976,2.923,9.772,9.772,0,0,0-3.029,4.654c-1.909,7.854-1.757,10.725-2.876,13.063-1.283,2.661-8.395,7.08-13.991,9.592l2.633-.158c1.625.207,3.79,1.377,3.58,3l-.08,1.876a2.8,2.8,0,0,1-.651,1.393c5.242-2.38,13.435-6.019,15.324-9.938a24.327,24.327,0,0,0,.961-2.356c.679,1.878,1.172,3.619,1.6,5.264-.827.46-1.575.865-2.193,1.191,1.631.181,3.809,1.3,3.632,2.93l-.049,1.878a3.9,3.9,0,0,1-3.906,2.979l-1.536-.1a6.982,6.982,0,0,0,5.8-.424c.1-.056.316-.159.607-.295a22.394,22.394,0,0,0,1.213,2.563c2.132,3.83,4.095,6.011,11.093,6.148C3626.173,4342.749,3638.644,4342.027,3637.493,4334.547Z" transform="translate(-3505.934 -4273.664)" fill="#00254d"/><path d="M3632.793,4296.272c-.767-1.684-2.084-1.746-2.047-2.1,0,.033-.007.07-.01.1-.024.261-.044.544-.082.845,0,.031-.006.061-.011.092-.012.087-.029.175-.045.265-.007.04-.013.077-.021.117-.018.087-.042.176-.066.265-.012.044-.021.088-.034.132-.026.089-.06.181-.094.273-.017.047-.031.093-.049.139-.038.1-.087.2-.135.294-.021.044-.038.088-.062.134a4.92,4.92,0,0,1-.262.441c-.7,1.047-3.67,2.316-3.67,2.316a4.349,4.349,0,0,1-2.3-3.151,8.161,8.161,0,0,1-1.252-.042,10.666,10.666,0,0,0,.155,4.483c.353,1.185,1.748,5.67,3.053,5.816.5.055,4.909-4.707,5.717-6.107C3632.178,4299.554,3633.317,4297.425,3632.793,4296.272Z" transform="translate(-3520.212 -4273.281)" fill="#00254d"/><path d="M3628.547,4280.337c-.076-1.826-3.917-3.485-5.969-3.649-2.514-.205-4.94.746-7.181.277-1.477-.308-2.026-1.3-3.444-2.138a12.7,12.7,0,0,0-.859,2.549c-1.229,5.563,1.283,10.9,6.559,12.069a8.1,8.1,0,0,0,2.142.184,4.349,4.349,0,0,0,2.3,3.151s2.971-1.269,3.67-2.316a5.679,5.679,0,0,0,.863-3.01l-.53-1.673a17.152,17.152,0,0,0,2.219-4.6C3628.406,4280.9,3628.477,4280.617,3628.547,4280.337Z" transform="translate(-3516.099 -4266.476)" fill="#fbd6a0"/><path d="M3626.446,4269.356a7.788,7.788,0,0,0-5.544-6.721c-4.008-1.275-6.686-.7-9.359.973-2.375,1.488-2.888,3.531-3.526,5.249l-3.3.07c-.94.013-1.69.027-2.027.043l-.415.008c.086,0,.165,0,.25,0-1.5.156-.336,2.593,1.284,3.246a11.683,11.683,0,0,0,4.132.6,7.032,7.032,0,0,1,.974-2.463c1.335.826,1.893,1.771,3.329,2.069,2.241.469,4.667-.481,7.181-.276,2.054.163,5.9,1.825,5.97,3.652A13.976,13.976,0,0,0,3626.446,4269.356Z" transform="translate(-3512.948 -4261.942)" fill="#00254d"/><g transform="translate(69.775 52.844)"><g transform="translate(0 4.877)"><path d="M3574.634,4351.121l0-.122a8.329,8.329,0,0,0-2.067,3.215c-.063.176-.139.376-.219.585v5.92c.414-1.207.96-2.608,1.421-3.785.3-.775.576-1.475.769-2.005a6.473,6.473,0,0,1,1.069-1.887A1.835,1.835,0,0,1,3574.634,4351.121Z" transform="translate(-3572.35 -4350.999)" fill="#dbdcdc"/></g><path d="M3585.9,4348.353a3.908,3.908,0,0,1-3.965,2.906l-3.12-.253c-1.631-.209-3.165-.9-2.952-2.531l.073-2.808c.211-1.629,1.962-2.231,3.594-2.018l2.871-.173c1.625.207,3.79,1.377,3.58,3Z" transform="translate(-3573.579 -4343.475)" fill="#fbd6a0"/></g><g transform="translate(79.145 53.274)"><path d="M3614.641,4348.947a3.9,3.9,0,0,1-3.906,2.979l-3.125-.194c-1.633-.176-3.18-.843-3-2.472l.025-2.809c.178-1.636,1.918-2.27,3.552-2.091l2.864-.223c1.631.178,3.817,1.3,3.639,2.931Z" transform="translate(-3593.065 -4344.137)" fill="#fbd6a0"/><path d="M3587.854,4348.16a1.048,1.048,0,1,0,0,2.1h10.5l.019-2.1Z" transform="translate(-3586.806 -4345.553)" fill="#dbdcdc"/><g transform="translate(15.799 3.569)"><path d="M3612.208,4412.878h-1.026v22.41h2.1v-22.869A1.478,1.478,0,0,1,3612.208,4412.878Z" transform="translate(-3611.182 -4371.732)" fill="#dbdcdc"/><path d="M3616.44,4350.021a1.049,1.049,0,0,0-1.611,1.343,2.729,2.729,0,0,1,.419,2.4c-.211.623-.561,1.514-.931,2.458-.564,1.436-1.2,3.063-1.593,4.348l-.048.159a27.274,27.274,0,0,0-1.495,7.661v7.689h1.026a1.479,1.479,0,0,1,1.071.459v-8.148a25.219,25.219,0,0,1,1.4-7.052l.049-.16c.365-1.2.988-2.79,1.537-4.191.38-.967.738-1.88.965-2.549A4.805,4.805,0,0,0,3616.44,4350.021Z" transform="translate(-3611.182 -4349.644)" fill="#dbdcdc"/></g></g><path d="M3610.456,4390.423H3606.2v14.716h4.252a1.488,1.488,0,0,0,1.486-1.487v-11.744A1.487,1.487,0,0,0,3610.456,4390.423Z" transform="translate(-3514.487 -4307.15)" fill="#69757c"/><g transform="translate(7.265 124.499)"><g transform="translate(2.301 2.633)"><path d="M3480.487,4459.68a4.711,4.711,0,0,1,.535-1.587h-1.57A3.39,3.39,0,0,1,3480.487,4459.68Z" transform="translate(-3479.453 -4458.093)" fill="#23456d"/></g><g transform="translate(3.259 1.953)"><path d="M3487.958,4457.044a11.577,11.577,0,0,1,.35,3c0,1.438-.635,2.2-1.416,2.2a.726.726,0,0,1-.1-.017.663.663,0,0,1-.1.017c-.5,0-.885-.444-1.2-1.038-.341-.651-.621-1.652-1-2.441a5.518,5.518,0,0,0-.181,1.414c0,2.054,1.068,3.713,2.384,3.713s2.39-1.66,2.39-3.713A4.463,4.463,0,0,0,3487.958,4457.044Z" transform="translate(-3482.116 -4457.044)" fill="#3e3a39"/><g transform="translate(0 0.68)"><path d="M3483.122,4460.551a5.532,5.532,0,0,1,.177-1.4,2.546,2.546,0,0,0-.8-1.054h-.957a4.979,4.979,0,0,0-.612,2.458c0,2.053,1.071,3.713,2.388,3.713h2.048a.538.538,0,0,0,.07-.011C3484.151,4464.2,3483.122,4462.565,3483.122,4460.551Z" transform="translate(-3480.931 -4458.093)" fill="#231815"/></g></g><path d="M3483.7,4454.031h-3.9a8.469,8.469,0,0,0,2.3,2.633c.88.564,1.263,2.46,1.8,3.485.314.594.7,1.038,1.2,1.038a.672.672,0,0,0,.1-.017.723.723,0,0,0,.1.017c.781,0,1.417-.763,1.417-2.2,0-3.742-1.284-4.954-1.284-4.954Z" transform="translate(-3477.274 -4454.031)" fill="#4878b2"/><path d="M3478.2,4456.664a8.448,8.448,0,0,1-2.3-2.633h2.525a8.462,8.462,0,0,0,2.3,2.633Z" transform="translate(-3475.903 -4454.031)" fill="#3e699d"/><path d="M3487.753,4459.613c-.518,0-.943.658-.943,1.468s.425,1.469.943,1.469c.129,0,1.235-.012,1.235-1.469S3487.882,4459.613,3487.753,4459.613Z" transform="translate(-3479.741 -4455.995)" fill="#bebfbf"/></g><g transform="translate(43.576 124.499)"><g transform="translate(2.801)"><path d="M3539.43,4454.031h-3.182l.355,4.954c0,1.215.633,2.2,1.416,2.2a.726.726,0,0,0,.1-.017.657.657,0,0,0,.1.017c.782,0,1.416-.986,1.416-2.2v-4.954Z" transform="translate(-3536.248 -4454.031)" fill="#4878b2"/></g><path d="M3535.062,4454.031h-2.184l.167,2.344a2.013,2.013,0,0,1,1.6-.969h.513Z" transform="translate(-3532.262 -4454.031)" fill="#23456d"/><g transform="translate(0 1.375)"><path d="M3539.3,4457.674v2.583c0,1.216-.633,2.2-1.416,2.2a.719.719,0,0,1-.1-.017.805.805,0,0,1-.1.017c-.782,0-1.416-.986-1.416-2.2l-.187-2.611a4.814,4.814,0,0,0-.786,2.748c0,2.053,1.069,3.713,2.388,3.713s2.387-1.66,2.387-3.713A4.844,4.844,0,0,0,3539.3,4457.674Z" transform="translate(-3533.112 -4456.678)" fill="#3e3a39"/><path d="M3534.116,4459.869a4.8,4.8,0,0,1,.781-2.735l-.07-.981h-.513c-1.319,0-2.387,1.667-2.387,3.716s1.067,3.713,2.387,3.713h2.05a.582.582,0,0,0,.068-.011C3535.147,4463.515,3534.116,4461.883,3534.116,4459.869Z" transform="translate(-3531.927 -4456.153)" fill="#231815"/></g><path d="M3538.748,4459.613c-.52,0-.944.658-.944,1.468s.425,1.469.944,1.469c.13,0,1.233-.012,1.233-1.469S3538.876,4459.613,3538.748,4459.613Z" transform="translate(-3533.995 -4455.995)" fill="#bebfbf"/></g><g transform="translate(51.819 127.132)"><path d="M3545.68,4459.68a4.7,4.7,0,0,1,.535-1.587h-1.57A3.394,3.394,0,0,1,3545.68,4459.68Z" transform="translate(-3544.645 -4458.093)" fill="#23456d"/></g><g transform="translate(52.777 126.452)"><path d="M3553.151,4457.044a11.614,11.614,0,0,1,.349,3c0,1.438-.635,2.2-1.416,2.2a.7.7,0,0,1-.1-.017.668.668,0,0,1-.106.017c-.5,0-.885-.444-1.2-1.038-.341-.651-.622-1.652-1.005-2.441a5.518,5.518,0,0,0-.18,1.414c0,2.054,1.067,3.713,2.384,3.713s2.39-1.66,2.39-3.713A4.467,4.467,0,0,0,3553.151,4457.044Z" transform="translate(-3547.309 -4457.044)" fill="#595757"/><g transform="translate(0 0.68)"><path d="M3548.315,4460.551a5.532,5.532,0,0,1,.177-1.4,2.539,2.539,0,0,0-.8-1.054h-.957a4.979,4.979,0,0,0-.611,2.458c0,2.053,1.07,3.713,2.387,3.713h2.048a.539.539,0,0,0,.071-.011C3549.344,4464.2,3548.315,4462.565,3548.315,4460.551Z" transform="translate(-3546.124 -4458.093)" fill="#231815"/></g></g><path d="M3548.9,4454.031h-3.9a8.462,8.462,0,0,0,2.3,2.633c.879.564,1.263,2.46,1.8,3.485.313.594.695,1.038,1.2,1.038a.66.66,0,0,0,.105-.017.7.7,0,0,0,.1.017c.781,0,1.416-.763,1.416-2.2,0-3.742-1.283-4.954-1.283-4.954Z" transform="translate(-3492.948 -4329.532)" fill="#4878b2"/><path d="M3543.4,4456.664a8.44,8.44,0,0,1-2.3-2.633h2.526a8.458,8.458,0,0,0,2.3,2.633Z" transform="translate(-3491.577 -4329.532)" fill="#3e699d"/><path d="M3552.946,4459.613c-.518,0-.943.658-.943,1.468s.425,1.469.943,1.469c.129,0,1.235-.012,1.235-1.469S3553.075,4459.613,3552.946,4459.613Z" transform="translate(-3495.415 -4331.496)" fill="#bebfbf"/><path d="M3509.8,4450.332v-1.142a1.489,1.489,0,0,1,1.487-1.487h-45.113a1.489,1.489,0,0,0-1.484,1.487v1.142a1.488,1.488,0,0,0,1.484,1.484h45.113A1.488,1.488,0,0,1,3509.8,4450.332Z" transform="translate(-3464.694 -4327.305)" fill="#00447d"/><g transform="translate(45.11 120.398)"><path d="M2.056,0H53.01a2.056,2.056,0,0,1,2.056,2.056v0a2.058,2.058,0,0,1-2.058,2.058H2.058A2.058,2.058,0,0,1,0,2.056v0A2.056,2.056,0,0,1,2.056,0Z" fill="#00579b"/></g><g transform="translate(85.824 124.499)"><path d="M3601.246,4454.031h-3.183l.353,4.954c0,1.215.634,2.2,1.416,2.2a.661.661,0,0,0,.1-.017.782.782,0,0,0,.1.017c.785,0,1.418-.986,1.418-2.2v-4.954Z" transform="translate(-3597.446 -4454.031)" fill="#2d527e"/><g transform="translate(0 1.375)"><path d="M3605.25,4459.869c0,2.053-1.067,3.713-2.385,3.713s-2.389-1.66-2.389-3.713,1.071-3.716,2.389-3.716S3605.25,4457.819,3605.25,4459.869Z" transform="translate(-3598.295 -4456.153)" fill="#595757"/><path d="M3599.3,4459.869c0-2.013,1.032-3.644,2.319-3.7-.025,0-.047-.014-.072-.014H3599.5c-1.318,0-2.387,1.667-2.387,3.716s1.069,3.713,2.387,3.713h2.049a.607.607,0,0,0,.072-.011C3600.332,4463.515,3599.3,4461.883,3599.3,4459.869Z" transform="translate(-3597.111 -4456.153)" fill="#231815"/></g><path d="M3604.617,4454.031h-3.184l.354,4.954c0,1.215.632,2.2,1.414,2.2a.657.657,0,0,0,.1-.017.717.717,0,0,0,.1.017c.782,0,1.416-.986,1.416-2.2v-4.954Z" transform="translate(-3598.632 -4454.031)" fill="#5084c4"/><path d="M3603.935,4459.613c-.524,0-.945.658-.945,1.468s.421,1.469.945,1.469c.127,0,1.233-.012,1.233-1.469S3604.062,4459.613,3603.935,4459.613Z" transform="translate(-3599.179 -4455.995)" fill="#dbdcdc"/></g><g transform="translate(9.348 75.097)"><path d="M3479.761,4377.906h43.829v.006a.589.589,0,0,0-.561.574h-43.858A.594.594,0,0,1,3479.761,4377.906Z" transform="translate(-3479.136 -4377.842)" fill="#fbd6a0"/><path d="M3546.839,4378.486a.592.592,0,0,1,.59-.581H3584.7a.591.591,0,0,1,.591.581Z" transform="translate(-3502.946 -4377.842)" fill="#b09060"/><path d="M3479.761,4447.412h43.829v-.006a.589.589,0,0,1-.561-.574h-43.858A.593.593,0,0,0,3479.761,4447.412Z" transform="translate(-3479.136 -4402.095)" fill="#cea75f"/><path d="M3546.839,4446.832a.591.591,0,0,0,.59.58H3584.7a.59.59,0,0,0,.591-.58Z" transform="translate(-3502.946 -4402.095)" fill="#90764d"/><rect width="38.524" height="44.091" transform="translate(43.845 0.644)" fill="#c4a064"/><rect width="43.845" height="44.091" transform="translate(0 0.644)" fill="#eabe6c"/><rect width="5.831" height="3.885" transform="translate(60.413)" fill="#eabe6c"/><rect width="5.831" height="3.887" transform="translate(60.413 41.429)" fill="#eabe6c"/></g><g transform="translate(14.033 79.286)"><path d="M3487.64,4384.272a.3.3,0,0,1-.085.192.319.319,0,0,1-.218.1.352.352,0,0,1-.219-.1.3.3,0,0,1-.085-.192h-.688V4394.9h.679v0a.288.288,0,0,1,.094-.22.307.307,0,0,1,.437,0,.278.278,0,0,1,.1.22v0h20.056v-10.627Zm-.3,10.123a.32.32,0,0,1,0-.641.32.32,0,0,1,0,.641Zm0-.829a.315.315,0,0,1-.313-.313.322.322,0,0,1,.313-.317.315.315,0,0,1,.313.317A.308.308,0,0,1,3487.336,4393.565Zm0-.818a.315.315,0,0,1-.313-.312.322.322,0,0,1,.313-.317.315.315,0,0,1,.313.317A.309.309,0,0,1,3487.336,4392.748Zm0-.818a.314.314,0,0,1,0-.629.314.314,0,0,1,0,.629Zm0-.818a.321.321,0,0,1-.313-.314.314.314,0,0,1,.313-.312.307.307,0,0,1,.313.313A.314.314,0,0,1,3487.336,4391.111Zm0-.817a.323.323,0,0,1-.313-.314.313.313,0,0,1,.313-.314.307.307,0,0,1,.313.314A.315.315,0,0,1,3487.336,4390.294Zm0-.829a.315.315,0,0,1-.313-.314.324.324,0,0,1,.313-.315.316.316,0,0,1,.313.315A.308.308,0,0,1,3487.336,4389.466Zm0-.816a.314.314,0,0,1-.313-.313.322.322,0,0,1,.313-.316.315.315,0,0,1,.313.316A.308.308,0,0,1,3487.336,4388.649Zm0-.819a.313.313,0,0,1-.313-.313.322.322,0,0,1,.313-.315.315.315,0,0,1,.313.315A.307.307,0,0,1,3487.336,4387.83Zm0-.818a.314.314,0,0,1,0-.629.314.314,0,0,1,0,.629Zm0-.815a.322.322,0,0,1-.313-.316.314.314,0,0,1,.313-.314.307.307,0,0,1,.313.314A.315.315,0,0,1,3487.336,4386.2Zm0-.819a.321.321,0,0,1-.313-.313.313.313,0,0,1,.313-.314.307.307,0,0,1,.313.314A.313.313,0,0,1,3487.336,4385.377Z" transform="translate(-3486.345 -4384.272)" fill="#fff"/><g transform="translate(2.88 1.316)"><path d="M3499.24,4391.154h-5.659a.347.347,0,0,1,0-.694h5.659a.347.347,0,0,1,0,.694Z" transform="translate(-3491.649 -4387.765)" fill="#c8c9ca"/><path d="M3496.8,4387h-5.659a.347.347,0,0,1,0-.694h5.659a.347.347,0,0,1,0,.694Z" transform="translate(-3490.789 -4386.302)" fill="#c8c9ca"/><path d="M3499.457,4388.816h-8.321a.347.347,0,0,1,0-.693h8.321a.347.347,0,0,1,0,.693Z" transform="translate(-3490.789 -4386.942)" fill="#c8c9ca"/><path d="M3512.4,4391.154h-3.639a.347.347,0,1,1,0-.694h3.639a.347.347,0,0,1,0,.694Z" transform="translate(-3496.989 -4387.765)" fill="#c8c9ca"/><g transform="translate(0 4.617)"><path d="M3499.24,4398.274h-5.659a.347.347,0,0,1,0-.693h5.659a.347.347,0,0,1,0,.693Z" transform="translate(-3491.649 -4394.888)" fill="#c8c9ca"/><path d="M3496.8,4394.12h-5.659a.347.347,0,0,1,0-.694h5.659a.347.347,0,0,1,0,.694Z" transform="translate(-3490.789 -4393.426)" fill="#c8c9ca"/><path d="M3499.457,4395.937h-8.321a.347.347,0,0,1,0-.693h8.321a.347.347,0,0,1,0,.693Z" transform="translate(-3490.789 -4394.065)" fill="#c8c9ca"/></g></g><path d="M3507.226,4385.09h-17.112a.927.927,0,0,0-.926.926v7.729a.927.927,0,0,0,.926.926h17.112a.927.927,0,0,0,.926-.926v-7.729A.927.927,0,0,0,3507.226,4385.09Zm.648.926v1.484h-7.517v-2.133h6.869A.649.649,0,0,1,3507.874,4386.016Zm-7.517,6.147v-1.716h7.517v1.716Zm0-1.855v-2.669h7.517v2.669Zm-10.242-4.941h9.966v4.433h-10.615v-3.784A.649.649,0,0,1,3490.114,4385.367Zm-.649,8.378v-3.806h10.615v4.454h-9.966A.649.649,0,0,1,3489.465,4393.745Z" transform="translate(-3487.345 -4384.56)" fill="#ed85a7"/></g><g transform="translate(99.169 31.499)"><path d="M3628.872,4323.813c2.176-3.229,3.141-8.322,3.466-11.35a19.029,19.029,0,0,0,.071-1.921,25.084,25.084,0,0,0-1.209,4.46c-.6,3.016-1.655,7.8-4.321,9.687a97.044,97.044,0,0,1-9.179,5.763s.069.233.19.659C3621.97,4328.84,3627.881,4325.286,3628.872,4323.813Z" transform="translate(-3617.701 -4310.542)" fill="#fff"/><path d="M3643.494,4312.9c.1,4.835-1.314,11.111-4.722,15.558-3.03,3.951-4.947,4.814-7.8,6.814a76.165,76.165,0,0,1-9.327,4.826c.15.407.255.68.255.68a65.3,65.3,0,0,0,11.38-6.155,23.431,23.431,0,0,0,6.4-6.231C3643.935,4321.865,3644.217,4317.129,3643.494,4312.9Z" transform="translate(-3619.09 -4311.372)" fill="#fff"/></g><g transform="translate(140.064 120.142)"><path d="M3681.31,4454.392a5.051,5.051,0,0,1,3.207-.28c.116-.372.234-.758.346-1.147a5.4,5.4,0,0,0-3.558.12C3681.325,4453.544,3681.33,4453.987,3681.31,4454.392Z" transform="translate(-3680.976 -4449.209)" fill="#00254d"/><path d="M3685.018,4449.919c.266-.939.5-1.791.642-2.322a8.942,8.942,0,0,0-4.864.146c.087.615.2,1.535.272,2.493A8.776,8.776,0,0,1,3685.018,4449.919Z" transform="translate(-3680.797 -4447.309)" fill="#00254d"/></g><path d="M3636.368,4297.924a5.06,5.06,0,0,1-1.945,2.592s7.317,1.353,6.958,5.879c0,0,3.592-.646,4.669,1.006C3646.05,4307.4,3646.513,4300.373,3636.368,4297.924Z" transform="translate(-3524.416 -4274.603)" fill="#fff"/><path d="M3616.955,4298.516s-5.173,2.3-6.179,4.1l-.647-.719s.934-2.155,5.82-4.311C3615.949,4297.582,3617.027,4298.444,3616.955,4298.516Z" transform="translate(-3515.868 -4274.482)" fill="#fff"/></g><path d="M3630.75,4311.644s-1.078,10.561.287,13.578l.647.144,2.083-2.083a67.6,67.6,0,0,1-.144-8.765l2.587.359.359-2.946S3631.4,4311.5,3630.75,4311.644Z" transform="translate(-3522.982 -4250.511)" fill="#fff"/><path d="M3613.435,4311.438s5.573-.387,6.8.033c0,0,.419,12.836-.552,14.431l-2.468-.145.25-11.891-3.941.046Z" transform="translate(-3517.031 -4250.391)" fill="#fff"/><path d="M3644.135,4331.943l-3.736-2.658s-3.952,6.753-8.765,8.549l2.73,4.023,4.526-3.449,3.3-3.377Z" transform="translate(-3523.435 -4256.729)" fill="#fff"/><path d="M3601.952,4323.19a14.141,14.141,0,0,1-1.012,3.713c-.584,1.211-2.382,2.787-4.689,4.381l1.237,1.1c7.041-3.233,6.61-8.909,6.61-8.909Z" transform="translate(-3510.984 -4254.583)" fill="#fff"/><path d="M3624.292,4262.635c-4.009-1.275-6.687-.7-9.359.973-2.273,1.424-2.84,3.355-3.444,5.024l-.027.245s4.885-1.294,12.572.574a4.832,4.832,0,0,1,4.093-4.27A7.745,7.745,0,0,0,3624.292,4262.635Z" transform="translate(-3516.336 -4233.033)" fill="#fff"/><g transform="translate(-347.398 -1288.717)"><rect width="4.676" height="2.053" rx="1.027" transform="translate(361.16 1390.562)" fill="#3d3d3d"/><rect width="4.676" height="2.053" rx="1.027" transform="translate(398.603 1390.562)" fill="#3d3d3d"/><path d="M361.922,1362.278a1.625,1.625,0,0,0-1.625,1.625v25.621a1.625,1.625,0,0,0,1.625,1.625h36.85v-28.87Z" transform="translate(-2.155 -0.299)" fill="#4d4d4d"/><path d="M3.091,0h24.17a3.092,3.092,0,0,1,3.092,3.092V14.363a3.091,3.091,0,0,1-3.091,3.091H3.091A3.091,3.091,0,0,1,0,14.363V3.091A3.091,3.091,0,0,1,3.091,0Z" transform="translate(362.203 1369.145)" fill="#e6e6e6"/><path d="M604.923,1362.278h-8.246v28.87h8.246a1.625,1.625,0,0,0,1.625-1.625V1363.9A1.625,1.625,0,0,0,604.923,1362.278Z" transform="translate(-200.061 -0.299)" fill="#333"/><g transform="translate(397.444 1367.446)"><g transform="translate(0 0)"><circle cx="3.419" cy="3.419" r="3.419" transform="translate(0 6.658) rotate(-76.838)" fill="#4d4d4d"/><circle cx="2.926" cy="2.926" r="2.926" transform="translate(0.592 6.289) rotate(-76.821)" fill="#333"/><circle cx="2.715" cy="2.715" r="2.715" transform="translate(0.822 6.095) rotate(-76.168)" fill="#4d4d4d"/><path d="M622.734,1402.787h-.782a9.186,9.186,0,0,0-.049,5.938h.836A10.707,10.707,0,0,0,622.734,1402.787Z" transform="translate(-618.252 -1401.661)" fill="#333"/></g><g transform="translate(0 9.721)"><circle cx="3.419" cy="3.419" r="3.419" transform="translate(0 6.658) rotate(-76.838)" fill="#4d4d4d"/><circle cx="2.926" cy="2.926" r="2.926" transform="translate(0.592 6.289) rotate(-76.821)" fill="#333"/><circle cx="2.715" cy="2.715" r="2.715" transform="translate(0.844 6.132) rotate(-76.813)" fill="#4d4d4d"/><path d="M614.77,1476.562v-.782a9.187,9.187,0,0,0-5.938-.049v.836A10.7,10.7,0,0,0,614.77,1476.562Z" transform="translate(-607.681 -1472.081)" fill="#333"/></g></g><rect width="29.381" height="2.336" transform="translate(362.689 1361.921)" fill="#4d4d4d"/><path d="M396.547,1365.791h-4.477a69.248,69.248,0,0,1-29.38,0h-4.477a.489.489,0,0,1-.489-.489v-2.856a.525.525,0,0,1,.526-.526h4.441a65.284,65.284,0,0,0,29.38,0h4.441a.526.526,0,0,1,.526.526v2.856A.489.489,0,0,1,396.547,1365.791Z" transform="translate(0)" fill="#333"/><g transform="translate(363.647 1374.337)"><path d="M407.949,1446.839h13.359a.46.46,0,0,0,.431-.64l-2.695-6.128a.453.453,0,0,1-.038-.181v-1.229a.464.464,0,0,0-.47-.459H397.361a.464.464,0,0,0-.47.459v1.222a.448.448,0,0,1-.038.181l-2.695,6.135a.46.46,0,0,0,.431.64Z" transform="translate(-394.12 -1438.202)" fill="none" stroke="#b3b3b3" stroke-linecap="round" stroke-linejoin="round" stroke-width="1"/><line y2="8.637" transform="translate(13.829 0)" fill="none" stroke="#b3b3b3" stroke-linecap="round" stroke-linejoin="round" stroke-width="1"/><path d="M461.461,1438.2v1.775l-.838,6.861" transform="translate(-449.799 -1438.202)" fill="none" stroke="#b3b3b3" stroke-linecap="round" stroke-linejoin="round" stroke-width="1"/><path d="M444.388,1438.2v1.791l-1.726,6.846" transform="translate(-434.76 -1438.202)" fill="none" stroke="#b3b3b3" stroke-linecap="round" stroke-linejoin="round" stroke-width="1"/><path d="M428.171,1438.2v1.775l-2.193,6.861" transform="translate(-420.792 -1438.202)" fill="none" stroke="#b3b3b3" stroke-linecap="round" stroke-linejoin="round" stroke-width="1"/><path d="M411.673,1438.2v1.775l-2.725,6.861" transform="translate(-406.535 -1438.202)" fill="none" stroke="#b3b3b3" stroke-linecap="round" stroke-linejoin="round" stroke-width="1"/><path d="M492.4,1438.2v1.775l.838,6.861" transform="translate(-476.4 -1438.202)" fill="none" stroke="#b3b3b3" stroke-linecap="round" stroke-linejoin="round" stroke-width="1"/><path d="M504.9,1438.2v1.791l1.726,6.846" transform="translate(-486.869 -1438.202)" fill="none" stroke="#b3b3b3" stroke-linecap="round" stroke-linejoin="round" stroke-width="1"/><path d="M518.715,1438.2v1.775l2.193,6.861" transform="translate(-498.435 -1438.202)" fill="none" stroke="#b3b3b3" stroke-linecap="round" stroke-linejoin="round" stroke-width="1"/><path d="M532.476,1438.2v1.775l2.725,6.861" transform="translate(-509.957 -1438.202)" fill="none" stroke="#b3b3b3" stroke-linecap="round" stroke-linejoin="round" stroke-width="1"/></g></g><g transform="translate(-1032.187 3.777)"><g transform="translate(1100.888 135.231)"><path d="M1165.182,739.375a16.574,16.574,0,0,0-.166,2.215h3.942a16.576,16.576,0,0,0-.166-2.215,4.205,4.205,0,0,1-3.609,0Z" transform="translate(-1165.016 -737.974)" fill="#bab9b9"/><path d="M1168.079,728.771h-1.56s-.131.575-.245,1.4a4.205,4.205,0,0,0,3.609,0c-.114-.826-.245-1.4-.245-1.4Z" transform="translate(-1166.109 -728.771)" fill="#a6a5a5"/></g><path d="M0,0H1.338a0,0,0,0,1,0,0V0A.389.389,0,0,1,.949.389H.389A.389.389,0,0,1,0,0V0A0,0,0,0,1,0,0Z" transform="translate(1092.336 145.424)" fill="#8c8c8c"/><path d="M.389,0h.56a.389.389,0,0,1,.389.389v0a0,0,0,0,1,0,0H0a0,0,0,0,1,0,0v0A.389.389,0,0,1,.389,0Z" transform="translate(1113.381 145.813) rotate(180)" fill="#8c8c8c"/><path d="M0,0H1.338a0,0,0,0,1,0,0V0A.389.389,0,0,1,.949.389H.389A.389.389,0,0,1,0,0V0A0,0,0,0,1,0,0Z" transform="translate(1096.277 145.424)" fill="#8c8c8c"/><path d="M0,0H1.338a0,0,0,0,1,0,0V0A.389.389,0,0,1,.949.389H.389A.389.389,0,0,1,0,0V0A0,0,0,0,1,0,0Z" transform="translate(1100.219 145.424)" fill="#8c8c8c"/><path d="M0,0H1.338a0,0,0,0,1,0,0V0A.389.389,0,0,1,.949.389H.389A.389.389,0,0,1,0,0V0A0,0,0,0,1,0,0Z" transform="translate(1104.16 145.424)" fill="#8c8c8c"/><path d="M0,0H1.338a0,0,0,0,1,0,0V0A.389.389,0,0,1,.949.389H.389A.389.389,0,0,1,0,0V0A0,0,0,0,1,0,0Z" transform="translate(1108.102 145.424)" fill="#8c8c8c"/><path d="M1113.774,797.028h-21.832c-.4,0-.746-.1-.821-.468v.377a.841.841,0,0,0,.838.856h21.8a.841.841,0,0,0,.838-.856v-.377C1114.521,796.924,1114.177,797.028,1113.774,797.028Z" transform="translate(0 -652.37)" fill="#bab9b9"/><g transform="translate(1096.64 114.966)"><path d="M1155.229,709.893a5.607,5.607,0,0,1-3.761-1.333c.58,1.981,1.849,3.5,3.761,3.5s3.181-1.522,3.761-3.5A5.607,5.607,0,0,1,1155.229,709.893Z" transform="translate(-1149.011 -690.966)" fill="#c44823"/><path d="M1145.3,576.574h-1.466l-.568-.638a1.5,1.5,0,0,0-1.12-.5h-6.1a1.5,1.5,0,0,0-1.12.5l-.568.638H1132.9c-.225,4.622,1.864,14.126,2.34,16.083q.046.187.1.369a5.973,5.973,0,0,0,7.523,0q.053-.182.1-.369C1143.434,590.7,1145.523,581.2,1145.3,576.574Z" transform="translate(-1132.879 -575.433)" fill="#9f3718"/></g><path d="M1148.74,609.009c1.184,0,2.424-.507,2.64-1.122a100.251,100.251,0,0,0,2.1-12.454,1.681,1.681,0,0,0-1.673-1.853h-6.135a1.681,1.681,0,0,0-1.673,1.853,100.269,100.269,0,0,0,2.1,12.454c.216.615,1.456,1.122,2.64,1.122Z" transform="translate(-45.882 -476.215)" fill="#6d6d6d"/><path d="M.456,0H1.733a.456.456,0,0,1,.456.456v0a.456.456,0,0,1-.456.456H.456A.456.456,0,0,1,0,.456v0A.456.456,0,0,1,.456,0Z" transform="translate(1101.764 115.676)" fill="#f0f0f0"/><g transform="translate(1096.657 44.844)"><path d="M1166.232,45.813a.716.716,0,0,0-.1-.307,1.288,1.288,0,0,0-2.252,0,.718.718,0,0,0-.1.307c-.137,4.634-.659,26.925-1.046,42.558h4.545C1166.891,72.739,1166.369,50.448,1166.232,45.813Z" transform="translate(-1158.804 -44.844)" fill="#c44823"/><path d="M1143.041,464.219c-1.015-1.441-1.015-2.956-1.127-4.582-.02-.089-.079-2.016-.162-5.123h-5.086c-.083,3.107-.142,5.034-.162,5.123-.113,1.626-.113,3.141-1.127,4.582s-2.143,2.795-2.369,7.417h1.466l.568-.638a1.5,1.5,0,0,1,1.12-.5h6.1a1.5,1.5,0,0,1,1.12.5l.567.638h1.466C1145.184,467.013,1144.055,465.66,1143.041,464.219Z" transform="translate(-1133.007 -400.372)" fill="#c44823"/><path d="M1165.67,380.586h-4.587c-.085,3.414-.162,6.477-.227,8.926h5.041C1165.832,387.063,1165.755,384,1165.67,380.586Z" transform="translate(-1157.175 -336.215)" fill="#c44823"/><path d="M1165.75,448.126h-5.041q-.011.436-.022.844h5.086Q1165.761,448.561,1165.75,448.126Z" transform="translate(-1157.028 -394.829)" fill="#bab9b9"/><path d="M1167.141,374.2H1162.6q-.01.425-.021.844h4.587Q1167.151,374.625,1167.141,374.2Z" transform="translate(-1158.667 -330.672)" fill="#bab9b9"/></g><path d="M1174.719,104.63a.794.794,0,0,1-.793-.793v-1.384a.793.793,0,1,1,1.586,0v1.384A.794.794,0,0,1,1174.719,104.63Z" transform="translate(-71.861 -49.307)" fill="#666"/><g transform="translate(1102.369 52.657)"><path d="M1177.2,104.447a.49.49,0,0,0-.98,0v.692h.98Z" transform="translate(-1176.222 -103.957)" fill="gray"/><path d="M1176.222,112.9v.692a.49.49,0,0,0,.98,0V112.9Z" transform="translate(-1176.222 -111.715)" fill="#666"/></g><path d="M1173.944,430.772a.805.805,0,1,1,.805.805A.805.805,0,0,1,1173.944,430.772Z" transform="translate(-71.876 -334.225)" fill="#666"/><circle cx="0.486" cy="0.486" r="0.486" transform="translate(1102.387 96.061)" fill="#bab9b9"/><g transform="translate(1099.126 118.382)"><path d="M1161.227,632.294c.207,1.077.442,2.2.709,3.363a.825.825,0,0,0,.493.579,3.441,3.441,0,0,0,2.539,0,.825.825,0,0,0,.493-.58c.823-3.572,1.344-6.839,1.661-9.252Z" transform="translate(-1159.966 -623.084)" fill="#1f1f1f"/><path d="M1159.148,602.008a.664.664,0,0,0-.661-.732h-6.136a.664.664,0,0,0-.661.733c.179,1.743.553,4.815,1.257,8.477l5.9-5.889C1158.98,603.563,1159.079,602.685,1159.148,602.008Z" transform="translate(-1151.687 -601.276)" fill="#515151"/></g><path d="M1114.572,756.683l-.4-1.957a2.851,2.851,0,0,0-1.874-2.028l-6.382-1.83a.948.948,0,0,0-1.078.386.7.7,0,0,1-.626.27H1101.5a.7.7,0,0,1-.626-.27.948.948,0,0,0-1.078-.386l-6.382,1.83a2.851,2.851,0,0,0-1.874,2.028l-.4,1.957c-.126.513.269.652.8.652h21.832C1114.3,757.335,1114.7,757.2,1114.572,756.683Z" transform="translate(0 -612.676)" fill="#c44823"/></g><g transform="translate(186.042 82.607)"><g transform="translate(0 0.347)"><rect width="3.238" height="3.238" transform="translate(15.518 11.264)" fill="#03a58e"/><path d="M3764.022,4353.351v-3.238h2.572l-7.429-4.786-7.429,4.786h2.572v9.715h3.237v-3.238h3.238v-3.239h3.231v3.238h-3.231v3.238h3.238v-3.238h3.232v-3.238Z" transform="translate(-3751.736 -4345.326)" fill="#03a58e"/></g><rect width="3.187" height="3.187" transform="translate(26.796 0.206)" fill="#03a58e"/><g transform="translate(20.4)"><path d="M3794.759,4348.5l-8.327.241a2.018,2.018,0,0,0,1.337-2.521,1.977,1.977,0,0,0-.207-.459l.037-.012h0l1.107-.382a.074.074,0,0,0,.046-.094h0c-.012-.033-.034-.047-.082-.048l-1.307.056-.231-.014a2.021,2.021,0,1,0-1.788,3.51h0v0h0l-.554,5.46-1.355,4.525h0l-.035.118-.18.6h0a.137.137,0,0,0,.131.175h3.015a.153.153,0,0,0,.154-.154h0v-.586a.154.154,0,0,0-.154-.154h-.323l1.157-3.864,3.536.54v4.029a.189.189,0,0,0,.189.19h3.009a.154.154,0,0,0,.153-.154h0v-.586a.153.153,0,0,0-.153-.153h-.657v-5.17a.4.4,0,0,0-.338-.395l-5.4-.823.115-1.129,7.189-.208a.2.2,0,0,0,.194-.206l-.062-2.14a.2.2,0,0,0-.207-.195Zm-10.3-1.375a1.4,1.4,0,0,1-.035-.286l.169-.058,2.372-.816a1.41,1.41,0,0,1-.282,1.975,1.4,1.4,0,0,1-.534.247,1.41,1.41,0,0,1-1.689-1.06v0Z" transform="translate(-3783.211 -4344.791)" fill="#1a1311"/><path d="M3817.69,4351h-1.578v-2.185a.213.213,0,0,0-.213-.214h-1.938a.214.214,0,0,0-.214.213h0V4351h-2.9a.214.214,0,0,0-.214.214v1.938a.214.214,0,0,0,.214.214h2.9v6.783h-.573a.181.181,0,0,0-.18.181v.473a.18.18,0,0,0,.18.18h2.751a.188.188,0,0,0,.189-.188h0v-7.429h1.578a.214.214,0,0,0,.214-.214h0v-1.937A.214.214,0,0,0,3817.69,4351Z" transform="translate(-3792.859 -4346.133)" fill="#1a1311"/><path d="M3835.667,4351.438h-1.42v-1.425a.177.177,0,0,0-.178-.178h-1.776a.177.177,0,0,0-.178.176h0v1.425h-2.333a.177.177,0,0,0-.178.177h0v2.011a.177.177,0,0,0,.177.177h2.334v3.47a2,2,0,0,1-2,2h-.351a.163.163,0,0,0-.164.163h0v1.8a.164.164,0,0,0,.164.164h.349a4.129,4.129,0,0,0,4.129-4.129h0V4353.8h1.419a.177.177,0,0,0,.177-.177h0v-2.012A.177.177,0,0,0,3835.667,4351.438Z" transform="translate(-3799.536 -4346.566)" fill="#1a1311"/><path d="M3848.776,4355.761h2.047a.216.216,0,0,0,.215-.215v-2.141h1.916a.12.12,0,0,0,.12-.119h0v-3.526a.2.2,0,0,0-.2-.2h-.135v-.006h-4.433v-1.827a.19.19,0,0,0-.19-.189h-1.881a.19.19,0,0,0-.19.189h0v1.827h-4.569a.2.2,0,0,0-.2.2v3.462a.19.19,0,0,0,.19.189h1.845v2.141a.215.215,0,0,0,.215.215h2.518v.5h-3.175a.191.191,0,0,0-.191.191v1.377a.191.191,0,0,0,.191.191h3.176v.464h-4.577a.191.191,0,0,0-.192.19h0v1.376a.192.192,0,0,0,.192.192h11.415a.193.193,0,0,0,.192-.192v-1.376a.192.192,0,0,0-.192-.191h-4.577v-.463h3.175a.192.192,0,0,0,.192-.191v-1.378a.191.191,0,0,0-.192-.191h-3.175v-.5Zm-5.24-3.864v-.415h7.275v.415Zm2.036,1.956v-.049a.215.215,0,0,1,.215-.215h2.775a.216.216,0,0,1,.215.215v.049a.216.216,0,0,1-.215.215h-2.776a.214.214,0,0,1-.214-.215Z" transform="translate(-3803.642 -4345.757)" fill="#1a1311"/><path d="M3826.467,4360.093h-.485v-7.608a.178.178,0,0,0-.178-.177h-1.793a.177.177,0,0,0-.177.177h0v8.136a.229.229,0,0,0,.229.229h2.4a.2.2,0,0,0,.2-.2h0v-.361a.2.2,0,0,0-.2-.2Z" transform="translate(-3797.505 -4347.436)" fill="#1a1311"/><path d="M3812.431,4359.168a1.121,1.121,0,1,0,1.121,1.121h0A1.121,1.121,0,0,0,3812.431,4359.168Z" transform="translate(-3793.099 -4349.85)" fill="#1a1311"/><path d="M3845.083,4349.118a1.12,1.12,0,1,0-1.121-1.12h0A1.12,1.12,0,0,0,3845.083,4349.118Z" transform="translate(-3804.588 -4345.525)" fill="#1a1311"/><path d="M3854.455,4349.118a1.12,1.12,0,1,0-1.121-1.12h0A1.12,1.12,0,0,0,3854.455,4349.118Z" transform="translate(-3807.885 -4345.525)" fill="#1a1311"/><path d="M3806.827,4349.62l-1.755-.885a.2.2,0,0,0-.27.088h0l-1.65,3.293-.007,0-.714,1.433a.2.2,0,0,0,.09.27l1.428.711v6.28a.218.218,0,0,0,.219.218h1.93a.218.218,0,0,0,.218-.218v-6.934a.3.3,0,0,0-.163-.264l-.88-.438,1.646-3.283a.2.2,0,0,0-.09-.268Z" transform="translate(-3789.966 -4346.171)" fill="#1a1311"/></g><g transform="translate(14.646 16.536)"><path d="M3795.74,4370.921h-.533v.418h.49v1.691h-.409v-.114h-1.081v.132h-.389v-1.709h.468v-.418h-.49v-.307c-.05.141-.1.278-.166.415l.1.032a.1.1,0,0,1-.084.059v1.976h-.4v-1.348q-.075.11-.149.2a4.616,4.616,0,0,0-.172-.456,3.6,3.6,0,0,0,.546-1.178l.456.152c-.012.026-.041.041-.088.038l-.012.032h1.918Zm-1.534.786v.848h.12v-.848Zm.6,0h-.125v.848h.125Zm0-.367v-.418h-.122v.418Zm.482,1.215v-.847h-.128v.847Z" transform="translate(-3780.874 -4370.308)" fill="#1a1311"/><path d="M3801.165,4370.6l.275.126a.1.1,0,0,1-.044.049,2.171,2.171,0,0,1-.417.743.369.369,0,1,1,.386.61v.947h-.408V4373h-.5v.088h-.391v-.9l-.131.053a1.376,1.376,0,0,0-.123-.2l-.112.158c-.026-.07-.067-.161-.111-.254v1.148h-.4v-.964a2.126,2.126,0,0,1-.237.471,2.223,2.223,0,0,0-.19-.389,2.625,2.625,0,0,0,.4-.911h-.327v-.392h.356v-.591l.485.026c0,.032-.029.049-.084.061v.5h.3v.178a2.326,2.326,0,0,0,.473-.771l.455.149a.081.081,0,0,1-.084.035c-.018.041-.038.085-.058.126h.426Zm-1.578.69v.1c.067.081.231.315.31.432a2.276,2.276,0,0,0,.509-.3,2.507,2.507,0,0,1-.172-.234,1.839,1.839,0,0,1-.2.2,2.341,2.341,0,0,0-.2-.2Zm1.347.684a1.973,1.973,0,0,1-.243-.175,2.29,2.29,0,0,1-.24.175Zm-.479.664h.5v-.31h-.5Zm.008-1.663a1.891,1.891,0,0,0,.213.281,1.62,1.62,0,0,0,.2-.281Z" transform="translate(-3782.928 -4370.304)" fill="#1a1311"/><path d="M3805.363,4372.228a.408.408,0,1,1-.408-.409A.409.409,0,0,1,3805.363,4372.228Z" transform="translate(-3784.964 -4370.837)" fill="#1a1311"/><path d="M3808.714,4372.111a2.333,2.333,0,0,1,.735.339.92.92,0,0,1-.21.459,1.78,1.78,0,0,0-.506-.348v.006c0,.29-.212.486-.634.486-.449,0-.742-.193-.742-.526,0-.286.28-.494.742-.494.058,0,.117,0,.172.006l-.012-.234c-.26.006-.518,0-.716-.009a1.475,1.475,0,0,1-.076-.441,4.953,4.953,0,0,0,.517.036c.079,0,.17,0,.263,0v-.28c-.2,0-.406,0-.608-.019a1.388,1.388,0,0,1-.07-.415,3.287,3.287,0,0,0,.479.041c.061,0,.131,0,.2,0v-.036c0-.158,0-.225-.005-.315a2.284,2.284,0,0,1,.465.035q-.014.144-.018.3a3.45,3.45,0,0,0,.479-.063,1.356,1.356,0,0,1-.006.407,4.123,4.123,0,0,1-.489.056c0,.087,0,.172,0,.26v.015a4.083,4.083,0,0,0,.6-.088,1.549,1.549,0,0,1,0,.436,4.8,4.8,0,0,1-.572.067Zm-.426.308a1.353,1.353,0,0,0-.242-.021c-.146,0-.249.041-.249.123s.07.129.237.129.251-.063.254-.23Z" transform="translate(-3785.953 -4370.324)" fill="#1a1311"/><path d="M3812.4,4371.988a.537.537,0,0,0-.085.263c0,.131.09.263.514.263a2.469,2.469,0,0,0,.968-.184,1.345,1.345,0,0,1,.117.485,2.938,2.938,0,0,1-1.067.169c-.625,0-1.034-.228-1.034-.628a1.292,1.292,0,0,1,.137-.523A1.722,1.722,0,0,1,3812.4,4371.988Zm-.342-1.356a5.192,5.192,0,0,0,1.531.018,2.122,2.122,0,0,1-.009.459,6.016,6.016,0,0,1-1.5,0,2.079,2.079,0,0,1-.023-.477Zm1.95.254a.87.87,0,0,1-.234.1,2.1,2.1,0,0,0-.169-.4,1.223,1.223,0,0,1,.225-.1,2,2,0,0,1,.178.4Zm.327-.14a.933.933,0,0,1-.231.1,1.8,1.8,0,0,0-.172-.383,1.276,1.276,0,0,1,.225-.1,1.412,1.412,0,0,1,.179.38Z" transform="translate(-3787.52 -4370.326)" fill="#1a1311"/><path d="M3817.247,4372.133a.546.546,0,0,0-.084.263c0,.131.09.263.514.263a2.461,2.461,0,0,0,.967-.184,1.351,1.351,0,0,1,.117.485,2.94,2.94,0,0,1-1.067.169c-.625,0-1.035-.228-1.035-.628a1.251,1.251,0,0,1,.138-.523A1.71,1.71,0,0,1,3817.247,4372.133Zm-.341-1.356a5.8,5.8,0,0,0,1.619.018,2.186,2.186,0,0,1-.009.459,6.764,6.764,0,0,1-1.59,0A2.257,2.257,0,0,1,3816.906,4370.777Z" transform="translate(-3789.226 -4370.471)" fill="#1a1311"/><path d="M3821.664,4370.573a6.655,6.655,0,0,0,1.046-.088,1.128,1.128,0,0,1,.178.313,8.2,8.2,0,0,0-.746.687,1.048,1.048,0,0,1,.325-.05.776.776,0,0,1,.834.711l0,.031c0,.571-.444,1.008-1.444.909a1.5,1.5,0,0,1-.151-.5c.643.114,1.107.012,1.107-.421,0-.19-.146-.371-.471-.371a1.3,1.3,0,0,0-1.011.7,1.327,1.327,0,0,1-.336-.38c.307-.341.895-.914,1.158-1.181-.134.023-.444.056-.653.067a1.643,1.643,0,0,1-.105-.444C3821.452,4370.568,3821.556,4370.573,3821.664,4370.573Z" transform="translate(-3790.752 -4370.368)" fill="#1a1311"/><path d="M3775.691,4372.111a2.337,2.337,0,0,1,.735.339.927.927,0,0,1-.211.459,1.775,1.775,0,0,0-.506-.348v.006c0,.29-.213.486-.634.486-.449,0-.743-.193-.743-.526,0-.286.281-.494.743-.494.058,0,.117,0,.173.006l-.012-.234c-.26.006-.517,0-.716-.009a1.467,1.467,0,0,1-.076-.441,4.954,4.954,0,0,0,.517.036c.079,0,.17,0,.263,0v-.28q-.3.005-.608-.019a1.381,1.381,0,0,1-.07-.415,3.286,3.286,0,0,0,.479.041c.062,0,.132,0,.2,0v-.036c0-.158,0-.225-.005-.315a2.282,2.282,0,0,1,.465.035q-.014.144-.018.3a3.44,3.44,0,0,0,.479-.063,1.332,1.332,0,0,1-.006.407,4.117,4.117,0,0,1-.489.056c0,.087,0,.172,0,.26v.015a4.1,4.1,0,0,0,.6-.088,1.522,1.522,0,0,1-.006.436,4.782,4.782,0,0,1-.572.067Zm-.427.308a1.342,1.342,0,0,0-.242-.021c-.146,0-.248.041-.248.123s.07.129.237.129.253-.063.255-.23Z" transform="translate(-3774.333 -4370.324)" fill="#1a1311"/><path d="M3779.377,4371.988a.557.557,0,0,0-.085.263c0,.131.091.263.515.263a2.468,2.468,0,0,0,.967-.184,1.345,1.345,0,0,1,.117.485,2.933,2.933,0,0,1-1.066.169c-.626,0-1.035-.228-1.035-.628a1.288,1.288,0,0,1,.137-.523A1.706,1.706,0,0,1,3779.377,4371.988Zm-.342-1.356a5.19,5.19,0,0,0,1.531.018,2.169,2.169,0,0,1-.009.459,6.021,6.021,0,0,1-1.5,0,2.065,2.065,0,0,1-.023-.477Zm1.949.254a.861.861,0,0,1-.234.1,2.07,2.07,0,0,0-.169-.4,1.265,1.265,0,0,1,.225-.1,1.984,1.984,0,0,1,.178.4Zm.327-.14a.92.92,0,0,1-.231.1,1.836,1.836,0,0,0-.172-.383,1.281,1.281,0,0,1,.226-.1,1.43,1.43,0,0,1,.177.38Z" transform="translate(-3775.901 -4370.326)" fill="#1a1311"/><path d="M3784.226,4372.133a.551.551,0,0,0-.084.263c0,.131.09.263.514.263a2.461,2.461,0,0,0,.968-.184,1.35,1.35,0,0,1,.117.485,2.938,2.938,0,0,1-1.067.169c-.625,0-1.034-.228-1.034-.628a1.243,1.243,0,0,1,.137-.523A1.707,1.707,0,0,1,3784.226,4372.133Zm-.342-1.356a5.805,5.805,0,0,0,1.62.018,2.219,2.219,0,0,1-.009.459,6.762,6.762,0,0,1-1.59,0A2.241,2.241,0,0,1,3783.884,4370.777Z" transform="translate(-3777.607 -4370.471)" fill="#1a1311"/><path d="M3788.642,4370.573a6.655,6.655,0,0,0,1.047-.088,1.149,1.149,0,0,1,.178.313,8.2,8.2,0,0,0-.745.687,1.046,1.046,0,0,1,.324-.05.775.775,0,0,1,.834.712l0,.03c0,.571-.445,1.008-1.444.909a1.512,1.512,0,0,1-.152-.5c.643.114,1.108.012,1.108-.421,0-.19-.146-.371-.47-.371a1.3,1.3,0,0,0-1.011.7,1.327,1.327,0,0,1-.336-.38c.307-.341.894-.914,1.157-1.181-.134.023-.444.056-.653.067a1.671,1.671,0,0,1-.106-.444C3788.429,4370.568,3788.532,4370.573,3788.642,4370.573Z" transform="translate(-3779.134 -4370.368)" fill="#1a1311"/><path d="M3828.368,4372.787a1.156,1.156,0,0,1-.362.362,5.077,5.077,0,0,0-.693-.783,3.438,3.438,0,0,1-1.067.765,2.072,2.072,0,0,1-.36-.407,2.844,2.844,0,0,0,1.166-.751,2.067,2.067,0,0,0,.421-.625c-.354,0-1.049.023-1.26.032a3.085,3.085,0,0,1-.055-.458c.093.008.21.014.3.014.155,0,1.021-.014,1.207-.023a1.838,1.838,0,0,0,.22-.021,1.063,1.063,0,0,1,.248.245,4.881,4.881,0,0,1-.526.877A5.73,5.73,0,0,1,3828.368,4372.787Z" transform="translate(-3792.472 -4370.511)" fill="#1a1311"/><path d="M3832.736,4370.858a1.519,1.519,0,0,0,.225-.021,1.228,1.228,0,0,1,.266.216,3.113,3.113,0,0,1-.489,1.009c.09.076.175.154.256.233a.925.925,0,0,1-.326.36c-.071-.077-.152-.158-.24-.24a2.634,2.634,0,0,1-1.029.649,1.391,1.391,0,0,1-.4-.389,2.412,2.412,0,0,0,1.087-.549,4.7,4.7,0,0,0-.444-.315,2.235,2.235,0,0,1,.3-.3,4.874,4.874,0,0,1,.456.289,1.7,1.7,0,0,0,.277-.555l-.739.012a2.913,2.913,0,0,1-.684.668,1.03,1.03,0,0,1-.392-.309,2.236,2.236,0,0,0,1.035-1.228,1.21,1.21,0,0,1,.444.2,2.11,2.11,0,0,1-.144.281c.456,0,.541-.008.541-.008Z" transform="translate(-3794.223 -4370.333)" fill="#1a1311"/><path d="M3836.148,4372.3a1.666,1.666,0,0,1-.375.171,5.539,5.539,0,0,0-.271-.564c.076-.041.286-.134.367-.167A4.932,4.932,0,0,1,3836.148,4372.3Zm1.371-.466a2.633,2.633,0,0,1-.4.95,1.914,1.914,0,0,1-.863.64,1.445,1.445,0,0,1-.338-.345,1.575,1.575,0,0,0,.847-.538,1.708,1.708,0,0,0,.331-.9,1.54,1.54,0,0,1,.423.191Zm-.754.249a1.982,1.982,0,0,1-.38.164,5.179,5.179,0,0,0-.251-.572,3.485,3.485,0,0,1,.374-.155,5.937,5.937,0,0,1,.257.564Z" transform="translate(-3795.856 -4370.73)" fill="#1a1311"/><path d="M3841.5,4372.338a2.416,2.416,0,0,1-1.146.888,1.417,1.417,0,0,1-.417-.433,1.9,1.9,0,0,0,1.081-.616,1.675,1.675,0,0,0,.342-.763c-.3,0-1.392.018-1.642.023a3.356,3.356,0,0,1-.044-.49c.138.012.292.021.392.021.193,0,1.186-.012,1.379-.015a1.469,1.469,0,0,0,.222-.017,1.242,1.242,0,0,1,.284.225A3.414,3.414,0,0,1,3841.5,4372.338Z" transform="translate(-3797.324 -4370.526)" fill="#1a1311"/></g></g></g><path d="M3823.752,4465.593c0,1.114-24.309,2.016-54.3,2.016s-54.295-.9-54.295-2.016,24.308-2.023,54.295-2.023S3823.752,4464.475,3823.752,4465.593Z" transform="translate(29.927 -126.396)" fill="#9e9e9f"/><g transform="translate(2915.189 4004.165)"><g transform="translate(877.394 207.323)"><path d="M921.069,207.323H883.454l-6.015,6.028h49.781Z" transform="translate(-877.439 -207.323)" fill="#e5cfad"/></g><g transform="translate(877.387 213.326)"><rect width="47.427" height="120.173" transform="translate(1.249 0.713)" fill="#8f661e"/><g transform="translate(2.97 2.85)"><rect width="43.868" height="22.265" transform="translate(0 0.009)" fill="#d0a86a"/><path d="M1034.935,275.47l1.086,1.618h6.619l1.155-1.637Z" transform="translate(-1017.431 -275.451)" fill="#0d0f11"/></g><g transform="translate(2.97 26.239)"><rect width="43.868" height="22.265" transform="translate(0 0.01)" fill="#d0a86a"/><path d="M1034.935,455.455l1.086,1.618h6.619l1.155-1.637Z" transform="translate(-1017.431 -455.435)" fill="#0d0f11"/></g><g transform="translate(2.97 49.628)"><rect width="43.868" height="22.265" transform="translate(0 0.01)" fill="#d0a86a"/><path d="M1034.935,635.439l1.086,1.618h6.619l1.155-1.637Z" transform="translate(-1017.431 -635.419)" fill="#0d0f11"/></g><g transform="translate(2.97 73.017)"><rect width="43.868" height="22.265" transform="translate(0 0.01)" fill="#d0a86a"/><path d="M1034.935,815.423l1.086,1.618h6.619l1.155-1.637Z" transform="translate(-1017.431 -815.403)" fill="#0d0f11"/></g><g transform="translate(2.97 96.407)"><rect width="43.868" height="22.265" transform="translate(0 0.009)" fill="#d0a86a"/><path d="M1034.935,995.41l1.086,1.618h6.619l1.155-1.637Z" transform="translate(-1017.431 -995.391)" fill="#0d0f11"/></g><g transform="translate(0 0)"><path d="M927.192,375.118h-49.8v-121.6h49.8Zm-48.021-1.783h46.238V255.3H879.17Z" transform="translate(-877.387 -253.519)" fill="#d0a86a"/></g></g></g><g transform="translate(3035.994 3353.155)"><rect width="3.148" height="38.684" transform="translate(744.625 916.885)" fill="#f0f0f0"/><path d="M3.038,0h0A3.038,3.038,0,0,1,6.076,3.038V24.9a0,0,0,0,1,0,0H0a0,0,0,0,1,0,0V3.038A3.038,3.038,0,0,1,3.038,0Z" transform="translate(743.161 955.569)" fill="#f0f0f0"/><rect width="3.148" height="1.294" transform="translate(744.625 954.275)" fill="#e8e8e8"/><g transform="translate(726.396 979.803)"><path d="M787.591,1295.795a1.784,1.784,0,0,0-1.268-1.709,72.961,72.961,0,0,0-37.07,0,1.781,1.781,0,0,0-1.154,2.332h39.378A1.782,1.782,0,0,0,787.591,1295.795Z" transform="translate(-747.985 -1291.692)" fill="#f0f0f0"/><path d="M748.5,1313.029a1.785,1.785,0,0,0,1.672,1.163H786.2a1.785,1.785,0,0,0,1.672-1.163Z" transform="translate(-748.385 -1308.303)" fill="#e0e0e0"/></g><path d="M832.736,1199.561a1.032,1.032,0,1,1,1.032,1.032A1.032,1.032,0,0,1,832.736,1199.561Z" transform="translate(-87.57 -239.359)" fill="#cfcfcf"/><path d="M832.736,1216.98a1.032,1.032,0,1,1,1.032,1.033A1.032,1.032,0,0,1,832.736,1216.98Z" transform="translate(-87.57 -252.921)" fill="#cfcfcf"/><path d="M832.736,1234.4a1.032,1.032,0,1,1,1.032,1.032A1.032,1.032,0,0,1,832.736,1234.4Z" transform="translate(-87.57 -266.482)" fill="#cfcfcf"/><g transform="translate(724.936 895.669)"><path d="M809.4,930.758a25.6,25.6,0,0,1,.872-7.852c1.592-4.894,5.232-4.684,5.089-7.425-.653-4.2-13.144-5.162-16.2-.924-2.416,3.351,7.451,16.859,7.451,16.859Z" transform="translate(-786.071 -911.818)" fill="#d9d9d9"/><path d="M760.715,962.384l.236-2.857a25.608,25.608,0,0,1-7.2-3.255c-4.163-3.026-2.838-6.424-5.489-7.134-4.191-.675-8.971,10.905-5.885,15.122C744.818,967.593,760.715,962.384,760.715,962.384Z" transform="translate(-741.393 -940.85)" fill="#d9d9d9"/><path d="M773.884,1011.985a25.611,25.611,0,0,1-5.32,5.84c-4.164,3.024-6.986.714-8.481,3.016-1.938,3.778,7.6,11.9,12.563,10.27,3.924-1.291,3.882-18.019,3.882-18.019Z" transform="translate(-755.744 -989.8)" fill="#d9d9d9"/><path d="M838.254,1013.155l-1.87,2.173a25.61,25.61,0,0,1,3.91,6.865c1.589,4.895-1.48,6.865.248,9,2.994,3.01,13.668-3.55,13.649-8.775C854.176,1018.284,838.254,1013.155,838.254,1013.155Z" transform="translate(-815.345 -990.711)" fill="#d9d9d9"/><path d="M857.881,947.043c-3.933-1.263-13.732,12.3-13.732,12.3l1.489,2.45a25.607,25.607,0,0,1,7.737-1.6c5.146,0,6.071,3.529,8.634,2.545C865.8,960.819,862.857,948.64,857.881,947.043Z" transform="translate(-821.391 -939.177)" fill="#d9d9d9"/></g><g transform="translate(720.254 891.075)"><path d="M746.2,891.075a25.945,25.945,0,1,0,25.945,25.945A25.945,25.945,0,0,0,746.2,891.075Zm0,49.772a23.827,23.827,0,1,1,23.827-23.827A23.827,23.827,0,0,1,746.2,940.847Z" transform="translate(-720.254 -891.075)" fill="#e8e8e8"/></g><g transform="translate(721.787 892.608)"><line y1="24.412" transform="translate(24.412 0)" fill="none" stroke="#e8e8e8" stroke-miterlimit="10" stroke-width="2.051"/><line x1="4.239" y1="24.041" transform="translate(20.173 0.371)" fill="none" stroke="#e8e8e8" stroke-miterlimit="10" stroke-width="2.051"/><line x1="8.349" y1="22.94" transform="translate(16.063 1.472)" fill="none" stroke="#e8e8e8" stroke-miterlimit="10" stroke-width="2.051"/><line x1="12.206" y1="21.141" transform="translate(12.206 3.271)" fill="none" stroke="#e8e8e8" stroke-miterlimit="10" stroke-width="2.051"/><line x1="15.692" y1="18.701" transform="translate(8.72 5.711)" fill="none" stroke="#e8e8e8" stroke-miterlimit="10" stroke-width="2.051"/><line x1="18.701" y1="15.692" transform="translate(5.711 8.72)" fill="none" stroke="#e8e8e8" stroke-miterlimit="10" stroke-width="2.051"/><line x1="21.141" y1="12.206" transform="translate(3.271 12.206)" fill="none" stroke="#e8e8e8" stroke-miterlimit="10" stroke-width="2.051"/><line x1="22.94" y1="8.349" transform="translate(1.472 16.063)" fill="none" stroke="#e8e8e8" stroke-miterlimit="10" stroke-width="2.051"/><line x1="24.041" y1="4.239" transform="translate(0.371 20.173)" fill="none" stroke="#e8e8e8" stroke-miterlimit="10" stroke-width="2.051"/><line x1="24.412" transform="translate(0 24.412)" fill="none" stroke="#e8e8e8" stroke-miterlimit="10" stroke-width="2.051"/><line x1="24.041" y2="4.239" transform="translate(0.371 24.412)" fill="none" stroke="#e8e8e8" stroke-miterlimit="10" stroke-width="2.051"/><line x1="22.94" y2="8.349" transform="translate(1.472 24.412)" fill="none" stroke="#e8e8e8" stroke-miterlimit="10" stroke-width="2.051"/><line x1="21.141" y2="12.206" transform="translate(3.271 24.412)" fill="none" stroke="#e8e8e8" stroke-miterlimit="10" stroke-width="2.051"/><line x1="18.701" y2="15.692" transform="translate(5.711 24.412)" fill="none" stroke="#e8e8e8" stroke-miterlimit="10" stroke-width="2.051"/><line x1="15.692" y2="18.701" transform="translate(8.72 24.412)" fill="none" stroke="#e8e8e8" stroke-miterlimit="10" stroke-width="2.051"/><line x1="12.206" y2="21.141" transform="translate(12.206 24.412)" fill="none" stroke="#e8e8e8" stroke-miterlimit="10" stroke-width="2.051"/><line x1="8.349" y2="22.94" transform="translate(16.063 24.412)" fill="none" stroke="#e8e8e8" stroke-miterlimit="10" stroke-width="2.051"/><line x1="4.239" y2="24.041" transform="translate(20.173 24.412)" fill="none" stroke="#e8e8e8" stroke-miterlimit="10" stroke-width="2.051"/><line y2="24.412" transform="translate(24.412 24.412)" fill="none" stroke="#e8e8e8" stroke-miterlimit="10" stroke-width="2.051"/><line x2="4.239" y2="24.041" transform="translate(24.412 24.412)" fill="none" stroke="#e8e8e8" stroke-miterlimit="10" stroke-width="2.051"/><line x2="8.349" y2="22.94" transform="translate(24.412 24.412)" fill="none" stroke="#e8e8e8" stroke-miterlimit="10" stroke-width="2.051"/><line x2="12.206" y2="21.141" transform="translate(24.412 24.412)" fill="none" stroke="#e8e8e8" stroke-miterlimit="10" stroke-width="2.051"/><line x2="15.692" y2="18.701" transform="translate(24.412 24.412)" fill="none" stroke="#e8e8e8" stroke-miterlimit="10" stroke-width="2.051"/><line x2="18.701" y2="15.692" transform="translate(24.412 24.412)" fill="none" stroke="#e8e8e8" stroke-miterlimit="10" stroke-width="2.051"/><line x2="21.141" y2="12.206" transform="translate(24.412 24.412)" fill="none" stroke="#e8e8e8" stroke-miterlimit="10" stroke-width="2.051"/><line x2="22.94" y2="8.349" transform="translate(24.412 24.412)" fill="none" stroke="#e8e8e8" stroke-miterlimit="10" stroke-width="2.051"/><line x2="24.041" y2="4.239" transform="translate(24.412 24.412)" fill="none" stroke="#e8e8e8" stroke-miterlimit="10" stroke-width="2.051"/><line x2="24.412" transform="translate(24.412 24.412)" fill="none" stroke="#e8e8e8" stroke-miterlimit="10" stroke-width="2.051"/><line y1="4.239" x2="24.041" transform="translate(24.412 20.173)" fill="none" stroke="#e8e8e8" stroke-miterlimit="10" stroke-width="2.051"/><line y1="8.349" x2="22.94" transform="translate(24.412 16.063)" fill="none" stroke="#e8e8e8" stroke-miterlimit="10" stroke-width="2.051"/><line y1="12.206" x2="21.141" transform="translate(24.412 12.206)" fill="none" stroke="#e8e8e8" stroke-miterlimit="10" stroke-width="2.051"/><line y1="15.692" x2="18.701" transform="translate(24.412 8.72)" fill="none" stroke="#e8e8e8" stroke-miterlimit="10" stroke-width="2.051"/><line y1="18.701" x2="15.692" transform="translate(24.412 5.711)" fill="none" stroke="#e8e8e8" stroke-miterlimit="10" stroke-width="2.051"/><line y1="21.141" x2="12.206" transform="translate(24.412 3.271)" fill="none" stroke="#e8e8e8" stroke-miterlimit="10" stroke-width="2.051"/><line y1="22.94" x2="8.349" transform="translate(24.412 1.472)" fill="none" stroke="#e8e8e8" stroke-miterlimit="10" stroke-width="2.051"/><line y1="24.041" x2="4.239" transform="translate(24.412 0.371)" fill="none" stroke="#e8e8e8" stroke-miterlimit="10" stroke-width="2.051"/></g><g transform="translate(739.35 910.171)"><path d="M807.857,984.146a5.466,5.466,0,0,1,9.331-3.865l.977-.977a6.849,6.849,0,1,0-9.685,9.685l.978-.978A5.449,5.449,0,0,1,807.857,984.146Z" transform="translate(-806.475 -977.297)" fill="#d6d6d6"/><path d="M816.51,1025.67l-.978.978h0l.978-.978Z" transform="translate(-813.526 -1014.957)" fill="#ccc"/><path d="M854.849,987.331l.978-.978h0l-.978.978Z" transform="translate(-844.135 -984.348)" fill="#ccc"/><path d="M824.24,987.331a5.466,5.466,0,1,1-7.73,7.73l-.978.978a6.849,6.849,0,1,0,9.685-9.685Z" transform="translate(-813.526 -984.348)" fill="#ccc"/><path d="M823.811,1000.1a5.466,5.466,0,0,0,3.865-9.331l-7.73,7.73A5.448,5.448,0,0,0,823.811,1000.1Z" transform="translate(-816.962 -987.784)" fill="#e8e8e8"/><path d="M818.183,983.539a5.466,5.466,0,0,0-3.865,9.331l7.73-7.73A5.45,5.45,0,0,0,818.183,983.539Z" transform="translate(-811.335 -982.157)" fill="#f0f0f0"/><path d="M819.946,998.5h0l7.73-7.73h0Z" transform="translate(-816.962 -987.784)" fill="#e8e8e8"/></g></g></g></svg>