<svg xmlns="http://www.w3.org/2000/svg" xmlns:xlink="http://www.w3.org/1999/xlink" width="244.303" height="204.762" viewBox="0 0 244.303 204.762"><defs><clipPath id="a"><rect width="229.007" height="185.509" transform="translate(0 0)" fill="none"/></clipPath></defs><g transform="translate(-5.913 6.215)"><g transform="translate(234.048 198.547) rotate(-175)" clip-path="url(#a)"><path d="M16.731,123.793c.669.268,2.33.354,3.007.585-.312.387-1.953-.42-2.231,0-1.208,1.817-1.755,5.282-2.487,7.352a23.031,23.031,0,0,0-1.646,7.737,23.608,23.608,0,0,0,1.682,9.062,23.985,23.985,0,0,0,5.011,7.807,23.8,23.8,0,0,0,7.912,4.756,23.178,23.178,0,0,0,8.957,1.85,23.437,23.437,0,0,0,13-3.714c.219-.144-.015-3.185.2-3.337.069.459.6,3.806.686,4.256a28.412,28.412,0,0,0,3.017,8.393,29.925,29.925,0,0,0,6.34,8.283c2.607,2.246,5.969,3.492,9.255,4.713a28.828,28.828,0,0,0,10.088,2.036,28.748,28.748,0,0,0,9.571-1.913,28.654,28.654,0,0,0,8.535-4.651,30.922,30.922,0,0,0,5.893-6.043c.269-.376,1.865-2.409,2.111-2.8.22.231-1.952,1.394-.666,2.341,2.045,1.5,3.817,3.5,6.156,4.506a21.509,21.509,0,0,0,8.421,1.589,20.838,20.838,0,0,0,8.063-2.031,28.311,28.311,0,0,0,6.75-4.453c.365-.327-1.451-1.887-1.115-2.231.332.44,2.039,2.728,2.4,3.157a29.4,29.4,0,0,0,5.378,5.032,28.615,28.615,0,0,0,7.713,4.3c2.751.876,5.74.791,8.781.791,3.231,0,6.39,0,9.289-.981a28.59,28.59,0,0,0,8.043-4.776,28.729,28.729,0,0,0,6.59-6.6,29.062,29.062,0,0,0,3.449-6.947c.169-.505.924-4.053,1.064-4.572.479.053-1.1,2.375,0,3.346.7.617,2.666.054,3.634.054a38.474,38.474,0,0,0,9.95-1.791,37.756,37.756,0,0,0,9.215-3.933,40.786,40.786,0,0,0,18.526-23.1c.855-3.2.747-6.631.747-10.1,0-3.376.155-6.725-.657-9.846-.839-3.229-2.65-6.063-4.244-8.906a38.461,38.461,0,0,0-5.694-7.966,39.01,39.01,0,0,0-7.466-6.44,38.009,38.009,0,0,0-6.217-3.134c-.81-.315-2.986-.99-3.849-1.253.3-.406,2.257.987,2.51.558,1.516-2.572,1.887-6.965,1.887-10.218a16.915,16.915,0,0,0-2.594-8.475,15.1,15.1,0,0,0-14.679-8.535,18.083,18.083,0,0,0-6.909,1.05c-.449.182-2.368.834-2.8,1.079-.194-.657,2.224-.236,1.952-.837-1.1-2.43-3.948-5.94-5.72-7.979a20.849,20.849,0,0,0-17.818-8c-3.143,0-7.752.223-10.485,1.2-.475.171,1.02,1.731.558,1.952-.274-.5-.864-2.375-1.169-2.843a32.841,32.841,0,0,0-6.242-6.879A29.777,29.777,0,0,0,118,28.965c-3.268,0-6.543-.221-9.5.709a31.992,31.992,0,0,0-8.626,4.244,33.577,33.577,0,0,0-6.792,6.24c-.23.3,1.62,2.218,1.394,2.51-1.475-2.4-4.385-6.887-6.354-9.614-1.7-2.357-3.437-4.952-5.542-7.465-1.9-2.265-3.945-4.621-6.191-6.948-2.07-2.146-4.524-4.08-6.908-6.229C67.256,10.4,65.11,8.124,62.6,6.152,60.23,4.295,55.248,1.838,52.645,0c4.741,3.346,4.637,4.306,8.288,9.671,1.731,2.543,3.859,5.452,5.912,8.827,1.732,2.848,3.635,5.886,5.386,9.17,1.623,3.043,3.273,6.222,4.753,9.52,1.442,3.214,2.493,6.63,3.656,9.979-.166,0-.183-.38-.35-.38a20.964,20.964,0,0,0-8.542,2.141,21.691,21.691,0,0,0-5.958,3.824q-.573.535-1.1,1.129-.507-.413-1.028-.8a20.55,20.55,0,0,0-5.375-2.921,22.479,22.479,0,0,0-7.5-1.024A22.433,22.433,0,0,0,31.671,60.187a28.646,28.646,0,0,0-2.94,10.9c-.036.591,2.163-.015,2.163.588,0,.012-2.163-.6-2.163-.588-.426-.02-.856.222-1.287.222A27.09,27.09,0,0,0,17,73.47a27.38,27.38,0,0,0-8.989,5.777A27.313,27.313,0,0,0,2.32,88.27,27.023,27.023,0,0,0,0,98.676a26.946,26.946,0,0,0,2.585,10.915,27.481,27.481,0,0,0,6.169,9.423,26.028,26.028,0,0,0,7.976,4.778" transform="translate(0.466 0.98)" fill="#fff"/><path d="M17.589,123.8c.972.33,2.025.3,3.007.585.415.121-.4,1.713-.6,1.861-.484.355-1.1.1-1.644,0-.449-.085-.5-.11-.706.333a12.515,12.515,0,0,0-.6,1.715c-.622,2.106-1.245,4.2-1.886,6.3a21.7,21.7,0,0,0,1.79,16.133A20.857,20.857,0,0,0,21.625,157a24.17,24.17,0,0,0,6.491,3.8A24.467,24.467,0,0,0,43.7,162.262a22.85,22.85,0,0,0,3.914-1.326q.936-.417,1.829-.918a4.217,4.217,0,0,1,.641-.375q.891-.693-.073.954a2.028,2.028,0,0,0,.017-.219,6.872,6.872,0,0,1,.667-4.267c.128-.189.333-.32.378-.023a38.443,38.443,0,0,0,2.94,11.09c2.281,4.768,5.6,9.373,10.36,11.879a48.712,48.712,0,0,0,7.261,2.962,28.161,28.161,0,0,0,8.106,1.552,30.133,30.133,0,0,0,15.8-4.545,34.45,34.45,0,0,0,10.535-10.466c.035-.053.4-.587.475-.326.211.7-.38,1.607-.819,2.1a3.03,3.03,0,0,1-.371.376q-.432.551.2-.478a1.7,1.7,0,0,0,.409.388c.6.513,1.237.991,1.841,1.5a18.484,18.484,0,0,0,3.84,2.742,17.751,17.751,0,0,0,4.8,1.425,19.509,19.509,0,0,0,10.483-1.121,24.268,24.268,0,0,0,4.188-2.056q1.058-.663,2.059-1.41a8.73,8.73,0,0,0,1.66-1.268l-.442,1.365c0-.556-.817-1.1-1.052-1.585a1.9,1.9,0,0,1,.215-1.714c.06-.12.4-.809.6-.547a36.808,36.808,0,0,0,7.723,8.126,32.977,32.977,0,0,0,6.193,3.733,19.19,19.19,0,0,0,7.283,1.349c4.99.1,10.2.31,14.749-2.051a38.585,38.585,0,0,0,6.032-4.1,28.781,28.781,0,0,0,5.174-5.037,23.03,23.03,0,0,0,3.705-7.064c.391-1.4.615-2.845.975-4.252.048-.185.459-1.529.816-1.368.553.25-.191,1.759-.261,2.138-.358,1.943,1.885,1.467,3.073,1.33,1.949-.225,3.876-.237,5.814-.635,1.968-.4,3.934-.917,5.857-1.5a45.561,45.561,0,0,0,10.506-5,31.583,31.583,0,0,0,9.025-8.092,41.811,41.811,0,0,0,6.08-10.976c1.428-4.1,1.1-8.523,1.123-12.8a39.763,39.763,0,0,0-.292-6.232,19.927,19.927,0,0,0-1.92-5.8,64.134,64.134,0,0,0-5.847-9.809,37.91,37.91,0,0,0-9.6-9.164,41.21,41.21,0,0,0-10.4-4.6c-.417-.128.4-1.709.6-1.86.673-.505,1.467.417,2.15.487.4.041.187.131.423-.224a3.69,3.69,0,0,0,.332-.963,18.428,18.428,0,0,0,.548-2.805,19.305,19.305,0,0,0-1.007-10.266,20.036,20.036,0,0,0-6.063-8.236,16.385,16.385,0,0,0-9.857-2.8,21.12,21.12,0,0,0-9.628,2.123c-.123.062-.156-.1-.163-.179a2.522,2.522,0,0,1,.84-1.969c.494-.322,1.355,0,1.782-.369l-.468.785.028-.077-.186,1.013c-.277-1.257-1.472-2.64-2.205-3.656-.936-1.3-1.94-2.547-2.975-3.766a24.989,24.989,0,0,0-8.258-6.733,24.632,24.632,0,0,0-10.828-1.858c-1.7.019-3.393.095-5.079.277-.794.086-1.587.194-2.371.344a6.226,6.226,0,0,0-2.156.551l.562-1.046c.2-.7.269-.158.486.241a2.214,2.214,0,0,1,.337.818,2.57,2.57,0,0,1-.758,1.887c-.07.064-.183.133-.241.016-.313-.629-.518-1.311-.775-1.964a9.8,9.8,0,0,0-1.4-2.309A34.481,34.481,0,0,0,138.75,38.5a30.673,30.673,0,0,0-11.723-6.468,44.012,44.012,0,0,0-14.438-1.081c-4.757.292-9.4,2.567-13.187,5.367q-1.492,1.1-2.87,2.351c-.493.446-.975.9-1.44,1.38-.182.186-.362.374-.538.565-.193.21-.617.9-.871,1l.355-1.116.07.134a2.942,2.942,0,0,1,.322.489c.21.305.448.593.651.9a1.461,1.461,0,0,1,.221,1.466c-.036.12-.582,1.423-.8,1.063A147.426,147.426,0,0,0,81.282,25.92a88.779,88.779,0,0,0-9.443-9.558c-3.2-2.76-6.078-5.967-9.468-8.489-3.031-2.255-6.55-3.767-9.65-5.922L53.5.011A20.481,20.481,0,0,1,58.68,4.933c1.788,2.565,3.449,5.221,5.23,7.793A163.013,163.013,0,0,1,76.337,33.939a116.416,116.416,0,0,1,5.218,13.3c.1.284-.536,2.115-.839,1.877a3.43,3.43,0,0,1-.35-.38,6.186,6.186,0,0,0-1.561.084,17.41,17.41,0,0,0-2.006.342,25.072,25.072,0,0,0-4.355,1.471,21.3,21.3,0,0,0-7.493,5.118.2.2,0,0,1-.186.079,19.844,19.844,0,0,0-9.627-4.487,24.19,24.19,0,0,0-11.084.876C37.633,54.384,32.3,59.366,30.569,66c-.248.956-.458,1.923-.617,2.9-.067.409-.5,1.991-.282,2.309.366.529,1.937-.261,2.136.541.083.336-.327,1.982-.839,1.877s-1-.274-1.5-.41a7.5,7.5,0,0,0-2.361.047,26.972,26.972,0,0,0-7.75,1.341c-4.85,1.589-9.567,4.313-12.727,8.393A27.711,27.711,0,0,0,.977,97.612c-.342,5.323,1.55,10.512,4.008,15.15a22.552,22.552,0,0,0,5.2,6.77,27.06,27.06,0,0,0,7.4,4.272c.378.154-.4,2.1-.783,1.94a27.1,27.1,0,0,1-7.4-4.272,22.3,22.3,0,0,1-4.949-6.229C1.778,110.451-.222,105,.02,99.444A33.548,33.548,0,0,1,5.08,84.011,25.768,25.768,0,0,1,17.062,73.792,28.529,28.529,0,0,1,26.175,71.4c.777-.064,1.6-.006,2.366-.12a4.062,4.062,0,0,1,1.152-.165c.7.092,1.37.421,2.058.562l-.839,1.877c-.109-.439-1.283-.186-1.622-.248-.767-.141-.56-.72-.5-1.4a33.71,33.71,0,0,1,1.382-6.729A22.658,22.658,0,0,1,51.246,49.151a22.046,22.046,0,0,1,8.268,1.155,19.857,19.857,0,0,1,3.432,1.711c.485.3.958.624,1.42.961.215.157.6.586.843.64.547.12.6-.148.971-.507A22.9,22.9,0,0,1,73.6,48.478a23.808,23.808,0,0,1,4.207-1.327,16.949,16.949,0,0,1,2.1-.3,5.833,5.833,0,0,1,.822-.046c.681.049.332.034.764.374l-.839,1.877A116.731,116.731,0,0,0,76.281,37.5c-1.758-3.748-3.673-7.443-5.748-11.025C66.814,20.054,62.546,14.031,58.5,7.82A21.207,21.207,0,0,0,52.72,1.95c-.417-.3.546-2.1.783-1.939C56.342,1.984,59.5,3.454,62.365,5.38c3.363,2.258,6.078,5.4,9.116,8.053a98.807,98.807,0,0,1,9.328,9.1c2.972,3.379,5.608,6.946,8.227,10.6,2.237,3.121,4.341,6.345,6.354,9.614l-.8,1.063c-.218.72-.217.3-.525-.138-.172-.247-.358-.483-.529-.73a1.575,1.575,0,0,1-.36-1.579c.538-1.8,2.577-3.4,3.92-4.605a32.152,32.152,0,0,1,12.57-7.177,26.961,26.961,0,0,1,7.5-.614,50.2,50.2,0,0,1,7.5.441,29.661,29.661,0,0,1,13.4,5.935,36.974,36.974,0,0,1,5.5,5.269,14.848,14.848,0,0,1,2.13,2.944c.4.82.6,1.722,1.011,2.537l-.241.016.067-.061-.63,1.289c-.079.328-.244-.193-.323-.337a4.118,4.118,0,0,1-.359-.663,1.924,1.924,0,0,1,.15-1.342c.541-1.338,2.215-1.389,3.482-1.6a44.083,44.083,0,0,1,11.054-.38,20.029,20.029,0,0,1,11.153,4.563,41.957,41.957,0,0,1,7.135,8.069c.838,1.184,2.409,2.854,1.813,4.38a1.65,1.65,0,0,1-.846,1.061,3.171,3.171,0,0,1-.789.107,2.3,2.3,0,0,1-.371.045c-.343-.03-.423.4-.089-.324l.322-1.143c0,.035.006.07.008.105l-.162-.179a20.988,20.988,0,0,1,9.171-2.131c4.063-.06,8.176.728,11.316,3.471a21.178,21.178,0,0,1,5.95,9.318c1.09,3.454.831,7.333.17,10.853a13.794,13.794,0,0,1-1.788,5.131.752.752,0,0,1-1.054.368c-.27-.082-1.437-.806-1.69-.615l.6-1.861a42.2,42.2,0,0,1,9.888,4.277,38.133,38.133,0,0,1,9.01,8.073,58.744,58.744,0,0,1,6.605,10.462,21.955,21.955,0,0,1,2.253,5.974,32.495,32.495,0,0,1,.461,6.311c0,4.271.31,8.74-.754,12.917a42.04,42.04,0,0,1-5.082,11.1,35.027,35.027,0,0,1-7.866,9.4,48.717,48.717,0,0,1-10.631,6.335,44.9,44.9,0,0,1-6.755,2.231,36.243,36.243,0,0,1-6.932,1.273c-1.05.066-2.08.15-3.127.24-.663.057-1.476.143-1.951-.416a2.079,2.079,0,0,1-.279-1.638,6.961,6.961,0,0,1,.2-.917c.04-.146.079-.294.127-.438.021-.067.043-.135.064-.2q.1-.38.036.012l.816-1.367c-.347,1.356-.6,2.736-.936,4.094a25.62,25.62,0,0,1-2.495,5.966c-2.466,4.5-6.054,7.785-10.177,10.754a23.424,23.424,0,0,1-6.65,3.569,26.6,26.6,0,0,1-7.732.863,44.975,44.975,0,0,1-8.242-.349,19.73,19.73,0,0,1-7.2-3.148,34.877,34.877,0,0,1-6.883-5.7c-1.184-1.306-2.207-2.742-3.265-4.148l.6-.547-.038.078q.161-.572.322-1.144c.038.739,1.092,1.213,1.2,1.978.153,1.106-.844,1.984-1.587,2.588a27.682,27.682,0,0,1-7.988,4.583,19.481,19.481,0,0,1-10.3.894,16.818,16.818,0,0,1-4.917-1.554,21.605,21.605,0,0,1-3.8-2.817c-.928-.786-2.436-1.4-2.124-2.809a4.422,4.422,0,0,1,.664-1.5,4.985,4.985,0,0,1,.481-.592c.322-.348.427-.7.084.156q-.092.506-.185,1.013c-.005-.017-.01-.033-.015-.05l.475-.326a38.972,38.972,0,0,1-8.856,9.635,31.873,31.873,0,0,1-15.09,6.007c-5.78.684-11.436-1.158-16.67-3.449a20.329,20.329,0,0,1-6.654-4.467,32.087,32.087,0,0,1-4.618-6.346c-2.423-4.222-3.386-8.7-4.107-13.448l.379-.023c1.065-1.572.4-1.456.468-.841a5.95,5.95,0,0,1,0,.629c0,.37.008.74,0,1.11a4.45,4.45,0,0,1-.4,2A5.081,5.081,0,0,1,48.17,162.3a22.3,22.3,0,0,1-3.808,1.544,24.518,24.518,0,0,1-16.67-.95,23.8,23.8,0,0,1-7.276-4.338,22.443,22.443,0,0,1-4.706-6.708,23.164,23.164,0,0,1-1.43-16.367c.421-1.47.976-2.893,1.372-4.37.337-1.256.651-2.52,1.086-3.747a6.932,6.932,0,0,1,1.44-2.893c.666-.544,1.665.415,2.231,0q-.3.93-.6,1.86c-.983-.287-2.035-.256-3.007-.585-.357-.121.364-2.082.783-1.94" transform="translate(0 0)"/></g><g transform="translate(-934.839 -4583.859)"><path d="M4.258,0S8.515,6.925,8.515,9.277A4.258,4.258,0,0,1,0,9.277C0,6.925,4.258,0,4.258,0Z" transform="translate(1142.473 4685.114) rotate(-56)" fill="#8fdcf8"/><path d="M3.656,0S7.313,5.947,7.313,7.966A3.656,3.656,0,0,1,0,7.966C0,5.947,3.656,0,3.656,0Z" transform="translate(1145.231 4681.411) rotate(-113)" fill="#8fdcf8"/></g><path d="M-33.168,1.392l-.84-1.128a1.992,1.992,0,0,1-.1-2.256,12.934,12.934,0,0,0,1.356-3.924,34.253,34.253,0,0,0,.4-5.868V-18a1.314,1.314,0,0,1,.408-.96,1.314,1.314,0,0,1,.96-.408H-30a1.314,1.314,0,0,1,.96.408,1.314,1.314,0,0,1,.408.96v3.648q0,.216.192.216h5.64a.191.191,0,0,0,.216-.216V-18.24a1.333,1.333,0,0,1,.4-.96,1.275,1.275,0,0,1,.948-.408h1.1a1.314,1.314,0,0,1,.96.408,1.314,1.314,0,0,1,.408.96v3.888q0,.216.192.216h4.92a1.314,1.314,0,0,1,.96.408,1.314,1.314,0,0,1,.408.96v.48a1.314,1.314,0,0,1-.408.96,1.314,1.314,0,0,1-.96.408H-28.44q-.192,0-.192.216V-8.28q0,.216.192.216h10.3a1.314,1.314,0,0,1,.96.408,1.314,1.314,0,0,1,.408.96V.96a1.314,1.314,0,0,1-.408.96,1.314,1.314,0,0,1-.96.408h-1.08a1.314,1.314,0,0,1-.96-.408,1.314,1.314,0,0,1-.408-.96V-4.632a.191.191,0,0,0-.216-.216h-7.944q-.192,0-.24.24a14.583,14.583,0,0,1-2.52,6,.944.944,0,0,1-.828.42A1.023,1.023,0,0,1-33.168,1.392ZM.864.792.84.288A1.142,1.142,0,0,1,1.188-.66a1.185,1.185,0,0,1,.924-.372Q3.7-.96,4.488-.96a2.782,2.782,0,0,0,1.164-.132q.18-.132.18-.852V-12.816q0-.192-.216-.192h-8.28a1.314,1.314,0,0,1-.96-.408,1.314,1.314,0,0,1-.408-.96v-.5a1.314,1.314,0,0,1,.408-.96,1.314,1.314,0,0,1,.96-.408h8.28q.216,0,.216-.192v-1.8a1.314,1.314,0,0,1,.408-.96,1.314,1.314,0,0,1,.96-.408H8.28a1.314,1.314,0,0,1,.96.408,1.314,1.314,0,0,1,.408.96v1.8a.17.17,0,0,0,.192.192h.312a1.275,1.275,0,0,1,.948.408,1.333,1.333,0,0,1,.4.96v.5a1.333,1.333,0,0,1-.4.96,1.275,1.275,0,0,1-.948.408H9.84a.17.17,0,0,0-.192.192v10.7q0,1.1-.036,1.728A4.8,4.8,0,0,1,9.4.8a1.807,1.807,0,0,1-.432.792A2.259,2.259,0,0,1,8.148,2a4.83,4.83,0,0,1-1.2.216q-.636.036-1.764.036-1.032,0-2.9-.072a1.409,1.409,0,0,1-.972-.42A1.508,1.508,0,0,1,.864.792ZM1.872-4.152a1.294,1.294,0,0,1-1.02.108,1.288,1.288,0,0,1-.8-.636q-1.08-1.92-2.5-4.008a1.282,1.282,0,0,1-.2-1.008,1.312,1.312,0,0,1,.564-.864l.624-.408a1.267,1.267,0,0,1,1.02-.192,1.363,1.363,0,0,1,.876.576Q1.848-8.424,3.048-6.36a1.228,1.228,0,0,1,.12,1.032,1.335,1.335,0,0,1-.648.816ZM-10.752-6.6l-.408-1.824a3.128,3.128,0,0,1,.48-2.448,22.694,22.694,0,0,0,2.952-7.512,1.358,1.358,0,0,1,.576-.864,1.32,1.32,0,0,1,1.008-.216l.84.144a1.3,1.3,0,0,1,.876.564,1.329,1.329,0,0,1,.228,1.02,28.627,28.627,0,0,1-.888,3.312,1.292,1.292,0,0,0-.072.408V.96a1.333,1.333,0,0,1-.4.96,1.275,1.275,0,0,1-.948.408H-7.44a1.275,1.275,0,0,1-.948-.408,1.333,1.333,0,0,1-.4-.96V-7.392a.042.042,0,0,0-.048-.048.1.1,0,0,0-.072.024q-.48.768-.72,1.1a.544.544,0,0,1-.636.228A.652.652,0,0,1-10.752-6.6Zm33.144-4.608a1.293,1.293,0,0,1-.948-.4,1.293,1.293,0,0,1-.4-.948v-.576a1.293,1.293,0,0,1,.4-.948,1.293,1.293,0,0,1,.948-.4h5.16a.191.191,0,0,0,.216-.216V-17.52a1.333,1.333,0,0,1,.4-.96,1.275,1.275,0,0,1,.948-.408h.96a1.314,1.314,0,0,1,.96.408,1.314,1.314,0,0,1,.408.96v2.832a.191.191,0,0,0,.216.216h1.752a1.293,1.293,0,0,1,.948.4,1.293,1.293,0,0,1,.4.948v.576a1.293,1.293,0,0,1-.4.948,1.293,1.293,0,0,1-.948.4H31.656a.191.191,0,0,0-.216.216v2.3q0,4.512-1.272,6.54T25.368.984a1.413,1.413,0,0,1-1.08-.1,1.393,1.393,0,0,1-.72-.816L23.3-.648a1.2,1.2,0,0,1,.06-1.008,1.287,1.287,0,0,1,.78-.648,10.956,10.956,0,0,0,1.62-.66,4.516,4.516,0,0,0,1.044-.744,2.419,2.419,0,0,0,.624-1.14A9.068,9.068,0,0,0,27.7-6.42q.072-.852.072-2.268v-2.3a.191.191,0,0,0-.216-.216ZM16.824,1.224A1.466,1.466,0,0,1,15.768.96a1.431,1.431,0,0,1-.6-.912A40.787,40.787,0,0,1,14.28-8.64a40.787,40.787,0,0,1,.888-8.688,1.431,1.431,0,0,1,.6-.912,1.466,1.466,0,0,1,1.056-.264l1.128.12a1.107,1.107,0,0,1,.84.492,1.212,1.212,0,0,1,.192,1,39.689,39.689,0,0,0-.816,8.256,39.689,39.689,0,0,0,.816,8.256,1.212,1.212,0,0,1-.192,1,1.107,1.107,0,0,1-.84.492Zm-73.416,13.96a1.348,1.348,0,0,1,1.056-.1,1.318,1.318,0,0,1,.816.672q.264.48.792,1.488a1.288,1.288,0,0,1,.048,1.032,1.318,1.318,0,0,1-.7.768,1.349,1.349,0,0,1-1.056.048,1.411,1.411,0,0,1-.792-.7q-.12-.216-.768-1.416a1.234,1.234,0,0,1-.1-1.008,1.317,1.317,0,0,1,.672-.792Zm5.712-.288q.792,1.512.816,1.56a1.262,1.262,0,0,1,.084,1.032,1.274,1.274,0,0,1-.684.768l-.072.048a1.35,1.35,0,0,1-1.044.06,1.362,1.362,0,0,1-.8-.684q-.12-.24-.384-.744t-.408-.744a1.319,1.319,0,0,1-.108-1.032,1.2,1.2,0,0,1,.66-.792l.072-.024a1.386,1.386,0,0,1,1.056-.108A1.276,1.276,0,0,1-50.88,14.9ZM-60.312,35.56q-8.928,0-8.928-5.808,0-3.072,3.792-5.3.144-.072.048-.264a2.255,2.255,0,0,1-.168-.408q-.864-3.72-1.368-6.5a1.269,1.269,0,0,1,.24-1.008,1.355,1.355,0,0,1,.888-.552l1.272-.192a1.269,1.269,0,0,1,1.008.24,1.452,1.452,0,0,1,.576.888q.528,2.9,1.272,5.88.048.216.24.12a67.786,67.786,0,0,1,7.32-2.112,1.261,1.261,0,0,1,1,.18,1.3,1.3,0,0,1,.588.852l.168.816a1.313,1.313,0,0,1-.192,1.032,1.333,1.333,0,0,1-.864.6,60.258,60.258,0,0,0-7.164,2.052A12.417,12.417,0,0,0-64.2,27.916a2.454,2.454,0,0,0-.96,1.836A1.862,1.862,0,0,0-64.02,31.5a8.758,8.758,0,0,0,3.708.576,46.46,46.46,0,0,0,6.624-.48,1.274,1.274,0,0,1,.984.264,1.294,1.294,0,0,1,.5.888l.1.768a1.361,1.361,0,0,1-.276,1.032,1.324,1.324,0,0,1-.924.528A49.864,49.864,0,0,1-60.312,35.56Zm15.528-10.536-.192-.744a1.376,1.376,0,0,1,.18-1.044,1.281,1.281,0,0,1,.852-.612,44.362,44.362,0,0,1,9.792-1.3,9.248,9.248,0,0,1,5.628,1.428A4.654,4.654,0,0,1-26.64,26.68a6.727,6.727,0,0,1-3.072,5.688q-3.072,2.208-9.264,2.832A1.407,1.407,0,0,1-40,34.9a1.531,1.531,0,0,1-.564-.924l-.12-.72a1.2,1.2,0,0,1,.24-.984,1.294,1.294,0,0,1,.888-.5q9.024-1.176,9.024-4.9a1.653,1.653,0,0,0-.936-1.572,6.517,6.517,0,0,0-2.9-.492,47.835,47.835,0,0,0-8.784,1.248,1.313,1.313,0,0,1-1.032-.192A1.325,1.325,0,0,1-44.784,25.024Zm4.632-9.7q4.464.5,8.736.576a1.427,1.427,0,0,1,.96.42,1.275,1.275,0,0,1,.408.948v.768a1.333,1.333,0,0,1-.4.96,1.2,1.2,0,0,1-.948.384q-4.3-.12-9.192-.672a1.322,1.322,0,0,1-.9-.516,1.286,1.286,0,0,1-.276-1l.072-.7a1.267,1.267,0,0,1,.528-.888A1.438,1.438,0,0,1-40.152,15.328Zm27.72,20.064a9.534,9.534,0,0,1-4.428-.84,4.952,4.952,0,0,1-2.292-2.868,17.826,17.826,0,0,1-.72-5.724q0-4.872.24-9.288a1.437,1.437,0,0,1,.456-.96,1.3,1.3,0,0,1,.984-.36l1.272.024a1.28,1.28,0,0,1,.924.432,1.29,1.29,0,0,1,.348.96q-.264,4.7-.264,9.192,0,3.48.756,4.62a3.026,3.026,0,0,0,2.724,1.14,5.34,5.34,0,0,0,3.456-1.272,11.5,11.5,0,0,0,2.88-4.1A1.4,1.4,0,0,1-5.34,25.6,1.387,1.387,0,0,1-4.3,25.576l.936.36a1.269,1.269,0,0,1,.78.708,1.223,1.223,0,0,1-.012,1.044Q-5.9,35.392-12.432,35.392ZM8.592,28.768q-2.544,0-2.544,1.7a1.571,1.571,0,0,0,.6,1.368,3.391,3.391,0,0,0,1.944.432,1.691,1.691,0,0,0,1.4-.5,3.126,3.126,0,0,0,.4-1.848v-.792a.235.235,0,0,0-.216-.24A11.227,11.227,0,0,0,8.592,28.768Zm0,6.792a6.957,6.957,0,0,1-4.656-1.38,4.637,4.637,0,0,1-1.608-3.708A4.474,4.474,0,0,1,3.948,26.8a7.185,7.185,0,0,1,4.644-1.32q.816,0,1.584.072.216.048.216-.168V16.192a1.275,1.275,0,0,1,.408-.948,1.333,1.333,0,0,1,.96-.4h1.152a1.333,1.333,0,0,1,.96.4,1.275,1.275,0,0,1,.408.948v2.04a.191.191,0,0,0,.216.216H19.92a1.333,1.333,0,0,1,.96.4,1.275,1.275,0,0,1,.408.948v.576a1.275,1.275,0,0,1-.408.948,1.333,1.333,0,0,1-.96.4H14.5a.191.191,0,0,0-.216.216v4.608a.282.282,0,0,0,.168.288A35.949,35.949,0,0,1,20.64,30.9a1.222,1.222,0,0,1,.48.9,1.249,1.249,0,0,1-.312.972l-.552.648a1.432,1.432,0,0,1-.948.492,1.358,1.358,0,0,1-1.02-.3q-2.592-2.04-3.84-2.856a.125.125,0,0,0-.132-.024.1.1,0,0,0-.084.1A5,5,0,0,1,12.624,34.4,6.134,6.134,0,0,1,8.592,35.56ZM27.216,25.024l-.192-.744a1.376,1.376,0,0,1,.18-1.044,1.281,1.281,0,0,1,.852-.612,44.362,44.362,0,0,1,9.792-1.3,9.248,9.248,0,0,1,5.628,1.428A4.654,4.654,0,0,1,45.36,26.68a6.727,6.727,0,0,1-3.072,5.688q-3.072,2.208-9.264,2.832A1.407,1.407,0,0,1,32,34.9a1.531,1.531,0,0,1-.564-.924l-.12-.72a1.2,1.2,0,0,1,.24-.984,1.294,1.294,0,0,1,.888-.5q9.024-1.176,9.024-4.9a1.653,1.653,0,0,0-.936-1.572,6.517,6.517,0,0,0-2.9-.492,47.835,47.835,0,0,0-8.784,1.248,1.392,1.392,0,0,1-1.632-1.032Zm4.632-9.7q4.464.5,8.736.576a1.427,1.427,0,0,1,.96.42,1.275,1.275,0,0,1,.408.948v.768a1.333,1.333,0,0,1-.4.96,1.2,1.2,0,0,1-.948.384q-4.3-.12-9.192-.672a1.322,1.322,0,0,1-.9-.516,1.286,1.286,0,0,1-.276-1l.072-.7a1.267,1.267,0,0,1,.528-.888A1.438,1.438,0,0,1,31.848,15.328Zm21.816,3.72-.12-.552a1.407,1.407,0,0,1,.168-1.044,1.241,1.241,0,0,1,.84-.612,27.267,27.267,0,0,1,5.616-.6,8.946,8.946,0,0,1,4.968,1.176,3.55,3.55,0,0,1,1.776,3.072,4.846,4.846,0,0,1-.24,1.584,3.287,3.287,0,0,1-.8,1.26,8.926,8.926,0,0,1-.972.864q-.408.3-1.224.828a6.9,6.9,0,0,0-2.424,2.136,2.051,2.051,0,0,1-1.728,1.272H58.488a1.264,1.264,0,0,1-.96-.408.887.887,0,0,1-.216-.936,4.313,4.313,0,0,1,.5-1.164A5.015,5.015,0,0,1,58.7,24.88a9.707,9.707,0,0,1,.876-.732q.324-.228,1.02-.732.7-.48,1.044-.756a3.675,3.675,0,0,0,.672-.72,1.516,1.516,0,0,0,.324-.9q0-1.584-3.072-1.584a18.4,18.4,0,0,0-4.3.576,1.336,1.336,0,0,1-1.02-.168A1.25,1.25,0,0,1,53.664,19.048ZM59.712,30.4a1.394,1.394,0,0,1,1.368,1.368v.864A1.394,1.394,0,0,1,59.712,34h-1.44a1.275,1.275,0,0,1-.948-.408,1.333,1.333,0,0,1-.4-.96v-.864a1.333,1.333,0,0,1,.4-.96,1.275,1.275,0,0,1,.948-.408Z" transform="translate(135.161 69.141)" fill="#454d4c"/></g></svg>