<?xml version="1.0" encoding="utf-8"?>
<!-- Generator: Adobe Illustrator 25.2.0, SVG Export Plug-In . SVG Version: 6.00 Build 0)  -->
<svg version="1.1" id="レイヤー_1" xmlns="http://www.w3.org/2000/svg" xmlns:xlink="http://www.w3.org/1999/xlink" x="0px"
	 y="0px" viewBox="0 0 800 200" style="enable-background:new 0 0 800 200;" xml:space="preserve">
<style type="text/css">
	.st0{filter:url(#a);}
	.st1{fill:#FFFFFF;}
	.st2{fill:#004099;}
	.st3{fill:#FFF20E;}
	.st4{fill:#003288;}
	.st5{fill:#FFED00;}
	.st6{fill:#1A1311;}
	.st7{clip-path:url(#SVGID_2_);}
	.st8{fill:none;}
	.st9{clip-path:url(#SVGID_4_);}
</style>
<filter  filterUnits="userSpaceOnUse" height="215" id="a" width="815" x="0" y="0">
	<feOffset  input="SourceAlpha"></feOffset>
	<feGaussianBlur  result="b" stdDeviation="2.5"></feGaussianBlur>
	<feFlood  flood-opacity="0.161"></feFlood>
	<feComposite  in2="b" operator="in"></feComposite>
	<feComposite  in="SourceGraphic" operator="over"></feComposite>
</filter>
<g transform="translate(7.5 7.5)">
	<g transform="matrix(1, 0, 0, 1, -7.5, -7.5)" class="st0">
		<path class="st1" d="M0,0h800v200H0V0z"/>
	</g>
	<path class="st2" d="M1.5,65.5h388v118H1.5V65.5z"/>
	<path class="st2" d="M395.5,65.5h388v118h-388V65.5z"/>
	<path class="st3" d="M-7.5-7.5h800v68h-800V-7.5z"/>
	<g transform="translate(-283 -5815)">
		<path class="st2" d="M457.7,5854.9l-0.5-0.6c-0.6-0.7-0.7-1.6-0.2-2.4c0.7-1.4,1.2-2.9,1.5-4.5c0.3-2.1,0.5-4.3,0.5-6.4v-6.9
			c0-0.4,0.2-0.8,0.4-1c0.3-0.3,0.6-0.4,1-0.4h0.4c0.4,0,0.8,0.2,1,0.4c0.3,0.3,0.4,0.6,0.4,1v4.2c0,0.1,0.1,0.2,0.2,0.2
			c0,0,0,0,0.1,0h6.7c0.1,0,0.2-0.1,0.2-0.2v-4.4c0-0.4,0.2-0.8,0.4-1c0.3-0.3,0.6-0.4,1-0.4h0.5c0.4,0,0.8,0.2,1,0.4
			c0.3,0.3,0.4,0.6,0.4,1v4.4c0,0.2,0.1,0.2,0.2,0.2h5.7c0.4,0,0.8,0.2,1,0.4c0.3,0.3,0.4,0.6,0.4,1c0,0.4-0.2,0.8-0.4,1
			c-0.3,0.3-0.6,0.4-1,0.4h-16.3c-0.1,0-0.2,0.1-0.2,0.2c0,0,0,0,0,0.1v1.8c0,0.6,0,1,0,1.2c0,0.1,0.1,0.2,0.2,0.2c0,0,0,0,0.1,0
			h11.2c0.4,0,0.8,0.2,1,0.4c0.3,0.3,0.4,0.6,0.4,1v8.1c0,0.4-0.2,0.8-0.4,1c-0.3,0.3-0.6,0.4-1,0.4h-0.5c-0.4,0-0.8-0.2-1-0.4
			c-0.3-0.3-0.4-0.6-0.4-1v-6.4c0-0.1-0.1-0.2-0.2-0.2h-9.2c-0.1,0-0.2,0.1-0.3,0.2c-0.4,2.4-1.2,4.7-2.5,6.8
			c-0.2,0.3-0.5,0.5-0.9,0.5C458.2,5855.3,457.9,5855.1,457.7,5854.9z M491.2,5838.9c-0.4,0-0.8-0.2-1-0.4c-0.3-0.3-0.4-0.6-0.4-1
			c0-0.4,0.2-0.8,0.4-1c0.3-0.3,0.6-0.4,1-0.4h9.5c0.1,0,0.2-0.1,0.2-0.2c0,0,0,0,0-0.1v-2c0-0.4,0.2-0.8,0.4-1
			c0.3-0.3,0.6-0.4,1-0.4h0.5c0.4,0,0.8,0.2,1,0.4c0.3,0.3,0.4,0.6,0.4,1v2c0,0.1,0.1,0.2,0.2,0.2c0,0,0,0,0.1,0h0.5
			c0.4,0,0.8,0.2,1,0.4c0.3,0.3,0.4,0.6,0.4,1c0,0.4-0.2,0.8-0.4,1c-0.3,0.3-0.6,0.4-1,0.4h-0.5c-0.1,0-0.2,0.1-0.2,0.2
			c0,0,0,0,0,0.1v12.4c0,0.7,0,1.3,0,1.7c0,0.4-0.1,0.8-0.2,1.1c-0.1,0.3-0.2,0.5-0.4,0.8c-0.2,0.2-0.5,0.3-0.8,0.4
			c-0.4,0.1-0.8,0.2-1.2,0.2c-0.4,0-1,0-1.7,0c-1.2,0-2.2,0-3-0.1c-0.4,0-0.8-0.2-1.1-0.5c-0.3-0.3-0.5-0.7-0.5-1.1
			c0-0.4,0.1-0.8,0.4-1c0.3-0.3,0.6-0.4,1-0.4c1.1,0.1,2,0.1,2.6,0.1c0.4,0,0.9,0,1.3-0.2c0.1-0.1,0.2-0.5,0.2-1.1v-12.5
			c0-0.1-0.1-0.2-0.2-0.2c0,0,0,0-0.1,0H491.2z M496.7,5848.7l-0.2,0.1c-0.3,0.2-0.7,0.2-1.1,0.1c-0.4-0.1-0.7-0.3-0.9-0.7
			c-0.9-1.6-1.8-3.1-2.8-4.4c-0.2-0.3-0.3-0.7-0.2-1.1c0.1-0.4,0.3-0.7,0.6-0.9l0.2-0.1c0.3-0.2,0.7-0.3,1.1-0.2
			c0.4,0.1,0.7,0.3,0.9,0.6c1.2,1.8,2.1,3.3,2.9,4.6c0.2,0.3,0.3,0.7,0.1,1.1C497.3,5848.2,497.1,5848.5,496.7,5848.7z M482.6,5846
			l-0.3-1.1c-0.2-0.9-0.1-1.9,0.4-2.6c1.6-2.6,2.8-5.5,3.4-8.5c0.1-0.4,0.3-0.7,0.6-0.9c0.3-0.2,0.7-0.3,1.1-0.2l0.3,0.1
			c0.4,0.1,0.7,0.3,0.9,0.6c0.2,0.3,0.3,0.7,0.2,1.1c-0.3,1.3-0.6,2.6-1,3.8c0,0.1-0.1,0.3-0.1,0.4v15.9c0,0.4-0.2,0.8-0.4,1
			c-0.3,0.3-0.6,0.4-1,0.4h-0.4c-0.4,0-0.8-0.2-1-0.4c-0.3-0.3-0.4-0.6-0.4-1v-9.6c0,0,0-0.1,0-0.1c0,0,0,0-0.1,0
			c-0.3,0.5-0.6,0.9-0.9,1.4c-0.2,0.2-0.4,0.3-0.7,0.3C482.9,5846.5,482.7,5846.3,482.6,5846L482.6,5846z M518.7,5840.9
			c-0.4,0-0.8-0.2-1-0.4c-0.3-0.3-0.4-0.6-0.4-1c0-0.4,0.2-0.8,0.4-1c0.3-0.3,0.6-0.4,1-0.4h6.1c0.1,0,0.2-0.1,0.2-0.2
			c0,0,0,0,0-0.1v-3.2c0-0.4,0.2-0.8,0.4-1c0.3-0.3,0.6-0.4,1-0.4h0.3c0.4,0,0.8,0.2,1,0.4c0.3,0.3,0.4,0.6,0.4,1v3.2
			c0,0.1,0.1,0.2,0.2,0.2h2.1c0.4,0,0.8,0.2,1,0.4c0.3,0.3,0.4,0.6,0.4,1c0,0.4-0.2,0.8-0.4,1c-0.3,0.3-0.6,0.4-1,0.4h-2.1
			c-0.2,0-0.2,0.1-0.2,0.2v2.9c0,3.3-0.4,5.7-1.3,7.1c-0.9,1.4-2.5,2.6-5,3.3c-0.4,0.1-0.8,0.1-1.1-0.1c-0.4-0.2-0.6-0.5-0.8-0.9
			l-0.1-0.2c-0.1-0.3-0.1-0.7,0.1-1.1c0.2-0.3,0.5-0.6,0.8-0.7c0.7-0.2,1.4-0.5,2.1-0.9c0.5-0.3,0.9-0.8,1.2-1.3
			c0.3-0.6,0.5-1.3,0.6-2c0.1-1.1,0.1-2.1,0.1-3.2v-2.9c0-0.1-0.1-0.2-0.2-0.2c0,0,0,0-0.1,0L518.7,5840.9z M512.9,5854.7
			c-0.4,0.1-0.8,0-1.1-0.3c-0.3-0.2-0.6-0.6-0.6-1c-0.7-3.1-1-6.2-1-9.4c0-3.1,0.3-6.3,1-9.4c0.1-0.4,0.3-0.8,0.6-1
			c0.3-0.2,0.7-0.3,1.1-0.3l0.5,0.1c0.4,0,0.7,0.2,0.9,0.5c0.2,0.3,0.3,0.7,0.2,1.1c-0.6,2.9-0.9,5.9-0.9,8.9c0,3,0.3,6,0.9,8.9
			c0.1,0.4,0,0.8-0.2,1.1c-0.2,0.3-0.5,0.5-0.9,0.5L512.9,5854.7z M536.5,5842.6c-0.4,0-0.8-0.2-1-0.4c-0.3-0.3-0.4-0.6-0.4-1v-4.2
			c0-0.4,0.2-0.8,0.4-1c0.3-0.3,0.6-0.4,1-0.4h2.4c0.1,0,0.1,0,0.1-0.1c0,0,0-0.1,0-0.1c-0.4-0.6-0.6-1-0.6-1
			c-0.2-0.3-0.2-0.7-0.1-1c0.1-0.3,0.4-0.6,0.7-0.6l0.2,0c0.4-0.1,0.9,0,1.3,0.1c0.4,0.2,0.7,0.4,0.9,0.8c0.3,0.5,0.6,1,1,1.7
			c0.1,0.1,0.2,0.2,0.3,0.2h1.7c0.1,0,0.2-0.1,0.2-0.2c0,0,0,0,0-0.1v-1.8c0-0.4,0.2-0.8,0.4-1c0.3-0.3,0.6-0.4,1-0.4h0.6
			c0.4,0,0.8,0.2,1,0.4c0.3,0.3,0.4,0.6,0.4,1v1.9c0,0.1,0.1,0.2,0.2,0.2c0,0,0,0,0,0h1.8c0.1,0,0.3-0.1,0.3-0.2
			c0.5-0.8,0.8-1.4,1-1.8c0.2-0.4,0.5-0.7,0.9-0.8c0.4-0.2,0.8-0.2,1.2-0.1l0.1,0c0.4,0.1,0.6,0.3,0.8,0.6c0.2,0.3,0.2,0.7,0,1
			c-0.3,0.6-0.5,0.9-0.6,1c0,0,0,0.1,0,0.1c0,0,0.1,0.1,0.1,0.1h2.4c0.4,0,0.8,0.2,1,0.4c0.3,0.3,0.4,0.6,0.4,1v4.2
			c0,0.4-0.2,0.8-0.4,1c-0.3,0.3-0.6,0.4-1,0.4h-0.4c-0.6,0-1.1-0.3-1.4-0.9l0,0c0,0,0,0,0,0v3.4c0,0.4-0.2,0.8-0.4,1
			c-0.3,0.3-0.6,0.4-1,0.4h-4.7c-0.1,0-0.2,0.1-0.2,0.2c0,0,0,0,0,0.1v1.1c0,0.1,0.1,0.2,0.2,0.2c0,0,0,0,0.1,0h6.3
			c0.3,0,0.7,0.1,0.9,0.4c0.2,0.2,0.4,0.6,0.4,0.9c0,0.3-0.1,0.7-0.4,0.9c-0.2,0.3-0.6,0.4-0.9,0.4h-6.3c-0.2,0-0.2,0.1-0.2,0.2v1.3
			c0,0.1,0.1,0.2,0.2,0.2h8c0.4,0,0.7,0.1,1,0.4c0.3,0.3,0.4,0.6,0.4,1c0,0.4-0.1,0.7-0.4,1c-0.3,0.3-0.6,0.4-1,0.4h-20
			c-0.4,0-0.7-0.1-1-0.4c-0.3-0.3-0.4-0.6-0.4-1c0-0.4,0.1-0.7,0.4-1c0.3-0.3,0.6-0.4,1-0.4h8c0.2,0,0.2-0.1,0.2-0.2v-1.3
			c0-0.1-0.1-0.2-0.2-0.2h-6.3c-0.3,0-0.7-0.1-0.9-0.4c-0.2-0.2-0.4-0.6-0.4-0.9c0-0.3,0.1-0.7,0.4-0.9c0.2-0.2,0.6-0.4,0.9-0.4h6.3
			c0.1,0,0.2-0.1,0.2-0.2c0,0,0,0,0-0.1v-1.1c0-0.1-0.1-0.2-0.2-0.2c0,0,0,0-0.1,0h-4.7c-0.4,0-0.8-0.2-1-0.4
			c-0.3-0.3-0.4-0.6-0.4-1v-3.4c0,0,0,0-0.1,0c-0.2,0.6-0.8,0.9-1.4,0.9H536.5z M551.2,5843.9v-2.2c0-0.1-0.1-0.2-0.2-0.2H542
			c-0.1,0-0.2,0.1-0.2,0.2c0,0,0,0,0,0.1v2.2c0,0.2,0.1,0.2,0.2,0.2h8.9C551.1,5844.2,551.2,5844.1,551.2,5843.9
			C551.2,5843.9,551.2,5843.9,551.2,5843.9z M538.6,5838.1c-0.2,0-0.2,0.1-0.2,0.2v1.6c0,0,0,0,0,0c0,0,0,0,0.1,0
			c0.2-0.6,0.8-0.9,1.4-0.9h13.4c0.6,0,1.1,0.3,1.4,0.9c0,0,0,0,0.1,0c0,0,0,0,0,0v-1.6c0-0.1-0.1-0.2-0.2-0.2H538.6z M563.1,5838
			c-0.4,0-0.7-0.1-1-0.4c-0.3-0.3-0.4-0.6-0.4-1c0-0.4,0.1-0.7,0.4-1c0.3-0.3,0.6-0.4,1-0.4h4c0.1,0,0.2-0.1,0.3-0.2l0.5-1.2
			c0.1-0.4,0.4-0.7,0.8-0.9c0.3-0.2,0.8-0.3,1.2-0.2l0.4,0.1c0.4,0.1,0.7,0.3,0.9,0.6c0.2,0.3,0.2,0.7,0.1,1c0,0.1-0.1,0.2-0.1,0.4
			c-0.1,0.1-0.1,0.2-0.1,0.3c0,0.2,0,0.2,0.2,0.2h9.2c0.4,0,0.7,0.1,1,0.4c0.3,0.3,0.4,0.6,0.4,1c0,0.4-0.1,0.7-0.4,1
			c-0.3,0.3-0.6,0.4-1,0.4h-10.3c-0.1,0-0.3,0.1-0.3,0.2c-0.2,0.6-0.5,1.2-0.9,1.9c0,0,0,0.1,0,0.1h0c0.8-0.3,1.7-0.5,2.7-0.5
			c2-0.1,3.9,1,4.6,2.9c0,0.1,0.2,0.2,0.3,0.2c0,0,0,0,0,0c1.4-0.3,2.7-0.5,3.8-0.6c0.4-0.1,0.7,0,1,0.3c0.3,0.2,0.5,0.6,0.5,1
			c0,0.4-0.1,0.8-0.3,1.1c-0.2,0.3-0.6,0.5-1,0.5c-1.5,0.2-2.7,0.4-3.5,0.6c-0.2,0-0.2,0.1-0.2,0.3c0.1,0.9,0.2,1.7,0.2,2.3
			c0,0.4-0.1,0.8-0.4,1c-0.3,0.3-0.6,0.4-1,0.4H575c-0.4,0-0.8-0.2-1-0.4c-0.3-0.3-0.5-0.6-0.5-1c0-0.5,0-0.9-0.1-1.4
			c0-0.2-0.1-0.2-0.2-0.2c-2.8,1-4.2,2-4.2,3.1c0,0.4,0.1,0.9,0.4,1.2c0.5,0.4,1.1,0.7,1.7,0.8c1.2,0.2,2.4,0.3,3.6,0.3
			c1.7,0,3.4-0.2,5-0.4c0.4-0.1,0.8,0.1,1.1,0.3c0.3,0.2,0.5,0.6,0.5,1c0,0.4-0.1,0.8-0.3,1.1c-0.2,0.3-0.6,0.5-1,0.6
			c-1.8,0.2-3.5,0.3-5.3,0.3c-3.3,0-5.6-0.4-7-1.2c-1.4-0.7-2.2-2.1-2.2-3.6c0-2.7,2.3-4.8,7-6.3c0.2,0,0.2-0.1,0.1-0.3
			c-0.4-0.7-1.3-1.2-2.1-1.1c-1.6,0-3.5,1.4-5.6,4.1c-0.2,0.3-0.6,0.5-1,0.6c-0.4,0.1-0.8,0-1.1-0.2l-0.2-0.1
			c-0.3-0.2-0.5-0.5-0.6-0.9c-0.1-0.4,0-0.8,0.2-1.1c1.5-2.1,2.7-4.3,3.8-6.6c0-0.1,0-0.1,0-0.2c0,0-0.1-0.1-0.1-0.1L563.1,5838z
			 M602.5,5840.3c0.4-0.2,0.8-0.2,1.1-0.1c0.4,0.1,0.7,0.4,0.9,0.7c0.2,0.3,0.5,0.9,0.9,1.6c0.2,0.3,0.2,0.8,0.1,1.1
			c-0.1,0.4-0.4,0.7-0.8,0.8c-0.4,0.2-0.8,0.2-1.1,0c-0.4-0.1-0.7-0.4-0.9-0.8c-0.1-0.2-0.4-0.7-0.8-1.5c-0.2-0.3-0.2-0.7-0.1-1.1
			C601.8,5840.7,602.1,5840.4,602.5,5840.3L602.5,5840.3z M606.8,5843c-0.1-0.2-0.2-0.4-0.4-0.8c-0.2-0.4-0.3-0.6-0.4-0.8
			c-0.2-0.3-0.2-0.7-0.1-1.1c0.1-0.4,0.4-0.7,0.7-0.9l0.1,0c0.4-0.2,0.8-0.2,1.1-0.1c0.4,0.1,0.7,0.4,0.9,0.7
			c0.6,1.1,0.9,1.7,0.9,1.7c0.2,0.3,0.2,0.7,0.1,1.1c-0.1,0.4-0.4,0.7-0.7,0.8l-0.1,0.1c-0.4,0.2-0.8,0.2-1.1,0.1
			C607.3,5843.6,607,5843.3,606.8,5843L606.8,5843z M606,5835.6c0,0.4-0.2,0.8-0.4,1c-0.3,0.3-0.6,0.4-1,0.4h-12.4
			c-0.4,0-0.8-0.2-1-0.4c-0.3-0.3-0.4-0.6-0.4-1v-0.1c0-0.4,0.2-0.8,0.4-1c0.3-0.3,0.6-0.4,1-0.4h12.4c0.4,0,0.8,0.2,1,0.4
			C605.9,5834.8,606,5835.2,606,5835.6L606,5835.6z M598.3,5854.7c-2.5,0.1-5-0.4-7.3-1.6c-1.6-0.8-2.6-2.4-2.7-4.2
			c0-1.6,1-3.5,3-5.6c0.3-0.3,0.7-0.5,1.1-0.5c0.4,0,0.8,0.1,1.1,0.4l0.2,0.1c0.3,0.2,0.5,0.6,0.5,0.9c0,0.4-0.1,0.7-0.4,1
			c-1.3,1.4-2,2.5-2,3.3c0.1,1,0.7,1.9,1.7,2.2c1.5,0.6,3.1,0.9,4.7,0.8c2.4,0,4.9-0.3,7.2-0.9c0.4-0.1,0.8,0,1.1,0.2
			c0.3,0.2,0.5,0.5,0.6,0.9l0.1,0.2c0.1,0.4,0,0.8-0.2,1.1c-0.2,0.3-0.5,0.6-0.9,0.7C603.6,5854.4,601,5854.7,598.3,5854.7z
			 M612.9,5851.3c-0.5-0.7-0.5-1.7,0.1-2.4c1.4-1.9,2.5-4,3.3-6.2c0-0.1,0-0.2-0.2-0.2h-2c-0.4,0-0.7-0.2-1-0.4
			c-0.3-0.3-0.4-0.6-0.4-1c0-0.4,0.2-0.7,0.4-1c0.3-0.3,0.6-0.4,1-0.4h2.8c0.1,0,0.2-0.1,0.2-0.2v-3c0-0.1-0.1-0.2-0.2-0.2
			c-0.5,0.1-1.3,0.1-2.3,0.2c-0.4,0-0.7-0.1-1-0.3c-0.3-0.2-0.5-0.6-0.5-0.9c0-0.3,0.1-0.7,0.3-1c0.2-0.3,0.5-0.4,0.9-0.5
			c2.8-0.2,5.6-0.6,8.4-1.1c0.4-0.1,0.8,0,1.1,0.2c0.3,0.2,0.6,0.5,0.7,0.8c0.1,0.3,0.1,0.7-0.1,1c-0.2,0.3-0.5,0.5-0.8,0.6
			c-1,0.2-2,0.4-3,0.5c-0.1,0-0.2,0.1-0.2,0.3v3.4c0,0.1,0.1,0.2,0.2,0.2c0,0,0,0,0.1,0h3c0.4,0,0.8,0.1,1,0.4
			c0.3,0.3,0.4,0.6,0.4,1c0,0.4-0.1,0.7-0.4,1c-0.3,0.3-0.6,0.4-1,0.4h-2.1c-0.1,0-0.1,0-0.1,0.1c0,0,0,0.1,0,0.1
			c1.9,3,3,4.6,3.1,4.8c0.2,0.3,0.3,0.8,0.2,1.2c-0.1,0.4-0.3,0.8-0.6,1l-0.1,0c-0.3,0.2-0.6,0.3-1,0.2c-0.3-0.1-0.6-0.3-0.8-0.6
			l-1.9-3.6c0,0,0,0-0.1,0c0,0,0,0,0,0.1v8.7c0,0.4-0.2,0.8-0.4,1c-0.3,0.3-0.6,0.4-1,0.4h-0.3c-0.4,0-0.8-0.2-1-0.4
			c-0.3-0.3-0.4-0.6-0.4-1v-7.2c0,0,0,0-0.1,0c-0.6,1.6-1.3,3.1-2.3,4.4c-0.2,0.3-0.5,0.4-0.8,0.4c-0.3,0-0.6-0.2-0.8-0.5
			L612.9,5851.3z M627.7,5850.2c-0.4,0-0.8-0.2-1-0.4c-0.3-0.3-0.4-0.6-0.4-1v-13.5c0-0.4,0.2-0.8,0.4-1c0.3-0.3,0.6-0.4,1-0.4h0.2
			c0.4,0,0.8,0.2,1,0.4c0.3,0.3,0.4,0.6,0.4,1v13.5c0,0.4-0.2,0.8-0.4,1c-0.3,0.3-0.6,0.4-1,0.4H627.7z M634.3,5832.7
			c0.4,0,0.8,0.2,1,0.4c0.3,0.3,0.4,0.6,0.4,1v17.3c0,0.7,0,1.3-0.1,2c0,0.4-0.1,0.8-0.2,1.2c-0.1,0.3-0.3,0.6-0.6,0.7
			c-0.3,0.1-0.7,0.2-1,0.3c-0.5,0.1-1.1,0.1-1.7,0.1c-0.4,0-1.2,0-2.4-0.1c-0.4,0-0.8-0.2-1.1-0.5c-0.3-0.3-0.5-0.7-0.5-1.1v-0.1
			c0-0.4,0.1-0.7,0.4-1c0.3-0.3,0.6-0.4,1-0.4c0.6,0,1.2,0.1,1.8,0.1c0.5,0,0.8-0.1,0.9-0.2c0.1-0.3,0.2-0.7,0.2-1.1v-17.3
			c0-0.4,0.2-0.8,0.4-1c0.3-0.3,0.6-0.4,1-0.4H634.3z M639.2,5854.8c-0.3-0.2-0.5-0.6-0.6-1c-0.1-0.4,0-0.8,0.2-1.2
			c0.7-1.3,1.2-2.6,1.4-4.1c0.3-2,0.4-4.1,0.4-6.1v-8.1c0-0.4,0.2-0.8,0.4-1c0.3-0.3,0.6-0.4,1-0.4h17.8c0.4,0,0.8,0.2,1,0.4
			c0.3,0.3,0.4,0.6,0.4,1v17.4c0,0.8,0,1.6-0.1,2.3c0,0.5-0.2,0.9-0.6,1.2c-0.3,0.3-0.7,0.5-1.2,0.6c-0.7,0.1-1.4,0.1-2.2,0.1
			c-0.7,0-1.4,0-1.9-0.1c-0.4,0-0.8-0.2-1-0.5c-0.3-0.3-0.4-0.6-0.5-1c0-0.4,0.1-0.7,0.4-1c0.3-0.3,0.6-0.4,1-0.4
			c1,0,1.5,0.1,1.5,0.1c0.4,0,0.7,0,1-0.2c0.2-0.3,0.2-0.7,0.2-1v-3.4c0-0.2-0.1-0.2-0.2-0.2h-5.2c-0.1,0-0.2,0.1-0.2,0.2
			c0,0,0,0,0,0.1v5.4c0,0.4-0.2,0.8-0.4,1c-0.3,0.3-0.6,0.4-1,0.4h-0.3c-0.4,0-0.8-0.2-1-0.4c-0.3-0.3-0.4-0.6-0.4-1v-5.4
			c0-0.2-0.1-0.2-0.2-0.2h-4.8c-0.1,0-0.2,0.1-0.3,0.2c-0.2,2.3-1,4.4-2.1,6.4c-0.2,0.3-0.5,0.5-0.9,0.6c-0.4,0.1-0.8,0-1.1-0.3
			L639.2,5854.8z M652.3,5835.8v3.1c0,0.1,0.1,0.2,0.2,0.2h5.2c0.1,0,0.2-0.1,0.2-0.2c0,0,0,0,0-0.1v-3.1c0-0.1-0.1-0.2-0.2-0.2
			c0,0,0,0-0.1,0h-5.2C652.4,5835.6,652.3,5835.7,652.3,5835.8z M652.3,5842v3.4c0,0.1,0.1,0.2,0.2,0.2c0,0,0,0,0.1,0h5.2
			c0.1,0,0.2-0.1,0.2-0.2v-3.4c0-0.2-0.1-0.2-0.2-0.2h-5.2C652.4,5841.8,652.3,5841.9,652.3,5842C652.3,5842,652.3,5842,652.3,5842z
			 M644.1,5835.8v3.1c0,0.1,0.1,0.2,0.2,0.2c0,0,0,0,0.1,0h4.5c0.1,0,0.2-0.1,0.2-0.2c0,0,0,0,0-0.1v-3.1c0-0.1-0.1-0.2-0.2-0.2
			c0,0,0,0-0.1,0h-4.5C644.2,5835.6,644.1,5835.7,644.1,5835.8C644,5835.8,644,5835.8,644.1,5835.8z M644.1,5843.9
			c0,0.7,0,1.2,0,1.5c0,0.1,0.1,0.2,0.2,0.2c0,0,0,0,0.1,0h4.6c0.1,0,0.2-0.1,0.2-0.2v-3.4c0-0.2-0.1-0.2-0.2-0.2h-4.5
			c-0.1,0-0.2,0.1-0.2,0.2V5843.9z M681.5,5841.3c0.4-0.2,0.8-0.2,1.1-0.1c0.4,0.1,0.7,0.4,0.9,0.7c0.2,0.3,0.5,0.9,0.9,1.6
			c0.2,0.3,0.2,0.8,0.1,1.1c-0.1,0.4-0.4,0.7-0.8,0.8c-0.4,0.2-0.8,0.2-1.1,0.1c-0.4-0.1-0.7-0.4-0.9-0.8c-0.1-0.2-0.4-0.7-0.8-1.5
			c-0.2-0.3-0.2-0.7-0.1-1.1C680.9,5841.8,681.1,5841.5,681.5,5841.3L681.5,5841.3z M687.7,5841c0.6,1.1,0.9,1.7,0.9,1.7
			c0.2,0.3,0.2,0.7,0.1,1.1c-0.1,0.4-0.4,0.7-0.7,0.8l-0.1,0.1c-0.4,0.2-0.8,0.2-1.1,0.1c-0.4-0.1-0.7-0.4-0.9-0.7
			c-0.1-0.2-0.2-0.4-0.4-0.8c-0.2-0.4-0.3-0.6-0.4-0.8c-0.2-0.3-0.2-0.7-0.1-1.1c0.1-0.4,0.4-0.7,0.7-0.9l0.1,0
			c0.4-0.2,0.8-0.2,1.1-0.1C687.2,5840.4,687.5,5840.6,687.7,5841L687.7,5841z M666.8,5838.2c-0.4,0-0.8-0.2-1-0.4
			c-0.3-0.3-0.4-0.6-0.4-1v-0.2c0-0.4,0.2-0.8,0.4-1c0.3-0.3,0.6-0.4,1-0.4c5.9,0,12.1-0.2,18.4-0.4c0.4,0,0.8,0.1,1.1,0.4
			c0.3,0.3,0.5,0.6,0.5,1v0.2c0,0.4-0.1,0.8-0.4,1.1c-0.3,0.3-0.6,0.5-1,0.5c-3.7,0.5-6.5,1.4-8.3,2.9c-1.7,1.2-2.8,3.2-2.8,5.3
			c-0.1,1.6,0.6,3.2,1.8,4.3c1.3,1.1,3,1.6,4.7,1.6c0.6,0,1.1,0,1.7-0.1c0.4,0,0.8,0.1,1.1,0.3c0.3,0.2,0.5,0.6,0.6,1l0,0.2
			c0.1,0.4-0.1,0.8-0.3,1.1c-0.2,0.3-0.6,0.5-1,0.6c-0.8,0.1-1.5,0.1-2.3,0.1c-2.6,0.1-5.2-0.7-7.3-2.4c-1.8-1.6-2.8-4-2.7-6.4
			c0-1.7,0.5-3.3,1.5-4.7c1.1-1.5,2.5-2.8,4.2-3.6c0,0,0,0,0-0.1h0C673.5,5838.1,670.4,5838.1,666.8,5838.2z M692.4,5837.5
			c-0.4,0-0.8-0.2-1-0.4c-0.3-0.3-0.4-0.6-0.4-1v-0.1c0-0.4,0.2-0.8,0.4-1c0.3-0.3,0.6-0.4,1-0.4h11.1c0.4,0,0.8,0.2,1,0.4
			c0.3,0.3,0.4,0.6,0.4,1v0.1c0,0.4-0.2,0.8-0.4,1c-0.3,0.3-0.6,0.4-1,0.4H700c-0.1,0-0.2,0.1-0.2,0.2v14.2c0,0.4-0.2,0.8-0.4,1
			c-0.3,0.3-0.6,0.4-1,0.4h-0.7c-0.4,0-0.8-0.2-1-0.4c-0.3-0.3-0.4-0.6-0.4-1v-14.2c0-0.2-0.1-0.2-0.2-0.2H692.4z M708.8,5851.8
			c-0.4-0.1-0.6-0.4-0.8-0.8c-0.1-0.4-0.1-0.8,0.1-1.1c1-2.1,2-4.2,2.9-6.4c0.1-0.4,0.4-0.7,0.8-0.8c0.4-0.2,0.8-0.2,1.1-0.1
			l0.4,0.1c0.4,0.1,0.7,0.4,0.8,0.7c0.2,0.3,0.2,0.7,0,1.1c-0.8,2-1.8,4.3-3,6.7c-0.2,0.4-0.5,0.6-0.8,0.8c-0.4,0.1-0.8,0.1-1.2,0
			L708.8,5851.8z M728.9,5852.1c-0.4,0.1-0.8,0.1-1.1,0c-0.4-0.1-0.7-0.4-0.8-0.8c-0.6-1.5-1.6-3.8-2.9-6.8c-0.2-0.4-0.2-0.7,0-1.1
			c0.1-0.4,0.4-0.6,0.8-0.8l0.3-0.1c0.4-0.2,0.8-0.2,1.2,0c0.4,0.1,0.7,0.4,0.8,0.8c1,2.1,2,4.3,3,6.8c0.2,0.4,0.2,0.8,0,1.1
			c-0.2,0.4-0.4,0.6-0.8,0.8L728.9,5852.1z M727,5836.5c0.3,0.3,0.7,0.5,1.2,0.5c0.5,0,0.9-0.2,1.2-0.5c0.3-0.3,0.5-0.7,0.5-1.2
			c0-0.5-0.2-0.9-0.5-1.2c-0.3-0.3-0.7-0.5-1.2-0.5c-0.5,0-0.9,0.2-1.2,0.5c-0.3,0.3-0.5,0.7-0.5,1.2
			C726.5,5835.8,726.7,5836.2,727,5836.5z M725.4,5832.5c0.7-0.7,1.7-1.2,2.8-1.1c1,0,2,0.4,2.8,1.1c0.7,0.7,1.2,1.7,1.1,2.8
			c0,0.7-0.2,1.4-0.6,2c-0.4,0.6-0.9,1.1-1.5,1.4c-0.1,0.1-0.2,0.2-0.2,0.3c0,0.2-0.1,0.5-0.3,0.6c-0.2,0.2-0.4,0.3-0.6,0.3h-7.5
			c-0.1,0-0.2,0.1-0.2,0.2v10.9c0,1.7-0.2,2.8-0.6,3.3c-0.4,0.4-1.5,0.6-3.2,0.6c-0.7,0-1.7-0.1-2.7-0.2c-0.4,0-0.7-0.2-1-0.5
			c-0.2-0.3-0.4-0.7-0.3-1.1v-0.1c0-0.4,0.2-0.7,0.5-1c0.3-0.3,0.7-0.4,1.1-0.3c0.9,0.1,1.4,0.1,1.6,0.1c0.5,0,0.8-0.1,0.9-0.2
			c0.1-0.3,0.2-0.7,0.1-1.1v-10.4c0-0.1-0.1-0.2-0.2-0.2c0,0,0,0-0.1,0h-7.5c-0.4,0-0.8-0.2-1-0.4c-0.3-0.3-0.4-0.6-0.4-1v-0.2
			c0-0.4,0.2-0.8,0.4-1c0.3-0.3,0.6-0.4,1-0.4h7.5c0.1,0,0.2-0.1,0.2-0.2c0,0,0,0,0-0.1v-2.3c0-0.4,0.2-0.8,0.4-1
			c0.3-0.3,0.6-0.4,1-0.4h0.7c0.4,0,0.8,0.2,1,0.4c0.3,0.3,0.4,0.6,0.4,1v2.3c0,0.2,0.1,0.2,0.2,0.2h3c0.1,0,0.2-0.1,0.2-0.2
			c-0.2-0.4-0.3-0.9-0.3-1.4C724.3,5834.3,724.7,5833.3,725.4,5832.5L725.4,5832.5z M734.9,5844.8l-0.1-0.3c-0.1-0.4,0-0.8,0.2-1.1
			c0.2-0.3,0.6-0.5,0.9-0.6c3.2-0.6,6.3-1.6,9.2-3c2.8-1.3,5.4-3,7.7-5c0.3-0.3,0.7-0.4,1-0.4c0.4,0,0.7,0.2,1,0.5l0.2,0.2
			c0.3,0.3,0.4,0.7,0.4,1.1c0,0.4-0.2,0.8-0.5,1c-1.9,1.7-4,3.1-6.3,4.4c-0.1,0.1-0.2,0.2-0.2,0.3c0,0,0,0,0,0.1s0,0,0,0.1v11.2
			c0,0.4-0.2,0.8-0.4,1c-0.3,0.3-0.6,0.4-1,0.4h-0.8c-0.4,0-0.8-0.2-1-0.4c-0.3-0.3-0.4-0.6-0.4-1v-9.5c0-0.1-0.1-0.2-0.2-0.1
			c-2.6,1.1-5.3,1.9-8.1,2.4c-0.4,0.1-0.8,0-1.1-0.3C735.2,5845.6,735,5845.2,734.9,5844.8L734.9,5844.8z M763,5837.7
			c-0.4-0.2-0.6-0.5-0.7-0.8c-0.1-0.4-0.1-0.8,0.1-1.1l0.3-0.5c0.2-0.4,0.5-0.6,0.9-0.7c0.4-0.1,0.8-0.1,1.2,0.1
			c1.7,0.8,3.5,1.8,5.4,2.8c0.3,0.2,0.6,0.5,0.7,0.9c0.1,0.4,0.1,0.8-0.1,1.1l-0.3,0.5c-0.2,0.3-0.5,0.6-0.9,0.7
			c-0.4,0.1-0.8,0.1-1.1-0.1C766.4,5839.4,764.6,5838.5,763,5837.7L763,5837.7z M781.1,5836.9c0.4,0.1,0.7,0.3,0.9,0.6
			c0.2,0.3,0.3,0.7,0.2,1.1c-0.8,4.1-2.9,7.7-6,10.5c-3,2.5-7,4.1-12,4.7c-0.4,0.1-0.8-0.1-1.1-0.3c-0.3-0.2-0.5-0.6-0.6-1l-0.1-0.5
			c-0.1-0.4,0-0.8,0.3-1.1c0.2-0.3,0.6-0.5,1-0.6c4.3-0.6,7.6-1.9,10.1-3.9c2.6-2.2,4.4-5.3,5.1-8.6c0.1-0.4,0.3-0.7,0.7-0.9
			c0.3-0.2,0.7-0.3,1.1-0.2L781.1,5836.9z M791.7,5854.9c-0.4,0-0.8-0.2-1-0.4c-0.3-0.3-0.4-0.6-0.4-1v-18.6c0-0.4,0.2-0.8,0.4-1
			c0.3-0.3,0.6-0.4,1-0.4h0.7c0.4,0,0.8,0.2,1,0.4c0.3,0.3,0.4,0.6,0.4,1v5.6c0,0.2,0.1,0.2,0.2,0.3c4.3,1,8.5,2.3,12.6,3.8
			c0.4,0.1,0.7,0.4,0.8,0.8c0.2,0.4,0.2,0.8,0.1,1.1l-0.2,0.5c-0.1,0.4-0.4,0.7-0.7,0.8c-0.3,0.2-0.7,0.2-1.1,0.1
			c-4.1-1.4-7.9-2.6-11.5-3.5c0,0-0.1,0-0.1,0c0,0-0.1,0.1-0.1,0.1v8.9c0,0.4-0.2,0.8-0.4,1c-0.3,0.3-0.6,0.4-1,0.4H791.7z
			 M827.4,5836.2c-0.2-0.3-0.2-0.7-0.1-1.1c0.1-0.4,0.4-0.7,0.7-0.9h0c0.4-0.2,0.8-0.2,1.1-0.1c0.4,0.1,0.7,0.4,0.9,0.7
			c0.2,0.3,0.5,0.9,0.9,1.6c0.2,0.3,0.2,0.8,0.1,1.1c-0.1,0.4-0.4,0.7-0.8,0.8c-0.4,0.2-0.8,0.2-1.1,0.1c-0.4-0.1-0.7-0.4-0.9-0.8
			C828.2,5837.6,827.9,5837.1,827.4,5836.2z M832.2,5833.4c0.4-0.2,0.8-0.2,1.1-0.1c0.4,0.1,0.7,0.4,0.9,0.7
			c0.6,1.1,0.9,1.7,0.9,1.7c0.2,0.3,0.2,0.7,0.1,1.1c-0.1,0.4-0.4,0.7-0.7,0.8l-0.1,0.1c-0.4,0.2-0.8,0.2-1.1,0.1
			c-0.4-0.1-0.7-0.4-0.9-0.7c-0.1-0.2-0.2-0.4-0.4-0.8c-0.2-0.4-0.3-0.6-0.4-0.8c-0.2-0.3-0.2-0.7-0.1-1.1
			C831.5,5833.9,831.8,5833.6,832.2,5833.4L832.2,5833.4z M813.8,5840.3c-0.4,0-0.8-0.1-1-0.4c-0.3-0.3-0.4-0.6-0.4-1
			c0-0.4,0.2-0.8,0.4-1c0.3-0.3,0.6-0.4,1-0.4h2.9c0.1,0,0.2-0.1,0.3-0.2c0.3-1.1,0.5-2.3,0.7-3.6c0.1-0.4,0.3-0.7,0.6-1
			c0.3-0.2,0.7-0.4,1.1-0.3l0.2,0c0.4,0,0.7,0.2,1,0.5c0.2,0.3,0.3,0.7,0.3,1.1c-0.2,1.3-0.4,2.4-0.6,3.3c0,0.1,0,0.2,0.2,0.2h3.6
			c0.5,0,1,0.1,1.5,0.2c0.4,0.1,0.8,0.2,1.1,0.3c0.3,0.1,0.5,0.3,0.7,0.6c0.2,0.3,0.4,0.6,0.5,0.9c0.1,0.3,0.1,0.7,0.2,1.4
			c0.1,0.6,0.1,1.2,0.1,1.8v2.5c0,3.3-0.4,5.8-1.2,7.4c-0.5,1.4-1.8,2.3-3.3,2.4c-1.4-0.1-2.8-0.3-4.1-0.8c-0.4-0.1-0.7-0.4-0.9-0.7
			c-0.2-0.4-0.2-0.8-0.1-1.2l0.1-0.2c0.1-0.4,0.4-0.7,0.7-0.8c0.3-0.2,0.8-0.2,1.1-0.1c0.8,0.3,1.6,0.5,2.5,0.5
			c0.2,0,0.4-0.1,0.5-0.2c0.2-0.2,0.4-0.5,0.5-0.8c0.2-0.4,0.3-0.9,0.4-1.3c0.1-0.7,0.2-1.3,0.3-2c0.1-0.8,0.1-1.7,0.1-2.7v-1.8
			c0-0.4,0-0.8-0.1-1.1c0-0.3-0.1-0.5-0.2-0.8c-0.1-0.1-0.2-0.3-0.4-0.3c-0.2-0.1-0.4-0.2-0.6-0.2h-3.5c-0.1,0-0.2,0.1-0.3,0.2
			c-1.1,4.4-2.4,8.8-4.1,13c-0.1,0.4-0.4,0.7-0.8,0.8c-0.4,0.2-0.8,0.2-1.1,0l-0.2-0.1c-0.4-0.1-0.7-0.4-0.8-0.7
			c-0.2-0.4-0.2-0.8,0-1.1c1.5-3.9,2.7-7.9,3.7-12c0-0.1,0-0.2-0.2-0.2L813.8,5840.3z M832.8,5840.8c1,2.6,1.8,4.9,2.4,6.9
			c0.1,0.4,0.1,0.8-0.1,1.1c-0.2,0.3-0.5,0.6-0.9,0.7l-0.3,0.1c-0.4,0.1-0.8,0.1-1.1-0.1c-0.4-0.2-0.6-0.5-0.7-0.9
			c-0.7-2.3-1.5-4.5-2.3-6.6c-0.1-0.4-0.1-0.8,0-1.1c0.1-0.4,0.4-0.6,0.8-0.7l0.3-0.1c0.4-0.1,0.8-0.1,1.1,0
			C832.4,5840.2,832.7,5840.4,832.8,5840.8z M850.4,5843.9c-0.4,0-0.7-0.1-1-0.3c-0.3-0.2-0.5-0.6-0.5-1c0-0.4,0.1-0.8,0.3-1.1
			c0.2-0.3,0.6-0.5,1-0.5c2.7-0.3,5.3-0.4,7.9-0.4c0.4,0,0.8,0.1,1,0.4c0.3,0.3,0.4,0.6,0.4,1c0,0.4-0.2,0.8-0.4,1
			c-0.3,0.3-0.6,0.4-1,0.4C855.2,5843.5,852.7,5843.6,850.4,5843.9z M858.2,5851.3c0.4-0.1,0.8,0,1.1,0.3c0.3,0.2,0.5,0.6,0.6,1
			c0.1,0.4,0,0.8-0.3,1.1c-0.2,0.3-0.6,0.5-1,0.6c-1.3,0.2-2.7,0.3-4,0.3c-2,0.1-4-0.4-5.7-1.3c-1.3-0.6-2.1-1.9-2.1-3.4
			c0.1-1.2,0.6-2.3,1.5-3.1c0.3-0.3,0.7-0.5,1.1-0.5c0.4,0,0.8,0.1,1.2,0.3c0.3,0.2,0.5,0.5,0.5,0.8c0,0.3-0.1,0.7-0.3,0.9
			c-0.4,0.3-0.6,0.7-0.7,1.2c0,0.6,0.4,1.1,1.2,1.5c1.1,0.4,2.2,0.6,3.4,0.6C855.8,5851.6,857,5851.5,858.2,5851.3z M839.6,5854.6
			c-0.4-0.1-0.7-0.3-0.9-0.6c-0.2-0.3-0.2-0.7-0.1-1.1c1.5-4.7,2.8-9.4,3.8-14.2c0-0.2,0-0.2-0.2-0.2h-1.9c-0.4,0-0.8-0.2-1-0.4
			c-0.3-0.3-0.4-0.6-0.4-1c0-0.4,0.2-0.8,0.4-1c0.3-0.3,0.6-0.4,1-0.4h2.4c0.1,0,0.2-0.1,0.3-0.2c0.1-0.7,0.2-1.2,0.3-1.5
			c0.1-0.4,0.3-0.8,0.6-1c0.3-0.2,0.7-0.4,1.1-0.3l0.3,0c0.4,0,0.7,0.2,1,0.5c0.2,0.3,0.3,0.7,0.3,1.1c0,0.1-0.1,0.3-0.1,0.6
			s-0.1,0.4-0.1,0.6c0,0.1,0,0.1,0,0.2c0,0,0.1,0.1,0.1,0.1h7.4c0.4,0,0.8,0.2,1,0.4c0.3,0.3,0.4,0.6,0.4,1c0,0.4-0.2,0.8-0.4,1
			c-0.3,0.3-0.6,0.4-1,0.4h-7.9c-0.1,0-0.3,0.1-0.3,0.2c-1,5.1-2.3,10.1-3.9,15c-0.1,0.4-0.4,0.7-0.7,0.9c-0.4,0.2-0.8,0.3-1.2,0.2
			L839.6,5854.6z M872.5,5852.1c0.8,0.1,1.7-0.1,2.4-0.6c0.5-0.6,0.8-1.4,0.7-2.2c0-0.1-0.1-0.3-0.2-0.3c-0.8-0.3-1.6-0.5-2.5-0.5
			c-0.8-0.1-1.5,0.1-2.2,0.4c-0.4,0.3-0.7,0.8-0.7,1.3c0,0.6,0.2,1.1,0.7,1.4C871.2,5852,871.8,5852.2,872.5,5852.1L872.5,5852.1z
			 M866.7,5838.2c-0.4,0-0.8-0.2-1-0.4c-0.3-0.3-0.4-0.6-0.4-1c0-0.4,0.2-0.8,0.4-1c0.3-0.3,0.6-0.4,1-0.4h8.6
			c0.1,0,0.2-0.1,0.2-0.2c0,0,0,0,0-0.1v-0.8c0-0.4,0.2-0.8,0.4-1c0.3-0.3,0.6-0.4,1-0.4h0.4c0.4,0,0.8,0.2,1,0.4
			c0.3,0.3,0.4,0.6,0.4,1v0.8c0,0.1,0.1,0.2,0.2,0.2c0,0,0,0,0.1,0h5c0.4,0,0.8,0.2,1,0.4c0.3,0.3,0.4,0.6,0.4,1
			c0,0.4-0.2,0.8-0.4,1c-0.3,0.3-0.6,0.4-1,0.4h-5c-0.2,0-0.2,0.1-0.2,0.2v1.8c0,0.1,0.1,0.2,0.2,0.2c0,0,0,0,0.1,0h4.1
			c0.4,0,0.7,0.1,1,0.4c0.3,0.3,0.4,0.6,0.4,1c0,0.4-0.1,0.8-0.4,1c-0.3,0.3-0.6,0.4-1,0.4H879c-0.1,0-0.2,0.1-0.2,0.2
			c0,0,0,0,0,0.1v3.7c0,0.1,0.1,0.3,0.2,0.3c1.7,1,3.4,2.2,4.9,3.5c0.3,0.2,0.5,0.6,0.5,1c0,0.4-0.1,0.8-0.4,1.1l-0.1,0.1
			c-0.3,0.3-0.6,0.5-1,0.5c-0.4,0-0.8-0.1-1-0.4c-1.1-1-2.1-1.7-2.9-2.4c-0.1-0.1-0.2-0.1-0.2,0.1c-0.2,1.2-0.9,2.3-1.9,3
			c-1.3,0.7-2.8,1-4.3,0.9c-1.5,0.1-3.1-0.4-4.3-1.3c-1.1-0.9-1.6-2.2-1.6-3.6c0-1.3,0.5-2.5,1.4-3.3c1.3-0.9,2.9-1.4,4.5-1.3
			c1,0,1.9,0.1,2.8,0.4c0.1,0,0.2,0,0.2-0.2v-2.3c0-0.1-0.1-0.2-0.2-0.2c0,0,0,0-0.1,0h-7.7c-0.4,0-0.7-0.1-1-0.4
			c-0.3-0.3-0.4-0.6-0.4-1c0-0.4,0.1-0.8,0.4-1c0.3-0.3,0.6-0.4,1-0.4h7.7c0.1,0,0.2-0.1,0.2-0.2c0,0,0,0,0-0.1v-1.8
			c0-0.1-0.1-0.2-0.2-0.2c0,0,0,0-0.1,0H866.7z M901.9,5852c0.2-0.5,0.3-0.9,0.4-1.4c0-0.5-0.2-1-0.6-1.2c-0.7-0.3-1.5-0.5-2.2-0.4
			c-0.7,0-1.4,0.1-2,0.4c-0.4,0.2-0.7,0.6-0.7,1.1c0,1.2,1.5,1.8,4.4,1.8h0.5C901.7,5852.2,901.9,5852.1,901.9,5852L901.9,5852z
			 M893.3,5846.1c-0.3,0.2-0.7,0.2-1,0.1c-0.3-0.1-0.6-0.4-0.8-0.7c-0.2-0.3-0.2-0.7-0.1-1.1c0.1-0.4,0.3-0.7,0.7-0.8l11-6.6l0,0
			l0,0h-8.9c-0.4,0-0.7-0.1-1-0.4c-0.3-0.3-0.4-0.6-0.4-1c0-0.4,0.1-0.8,0.4-1c0.3-0.3,0.6-0.4,1-0.4h13.7c0.4,0,0.8,0.2,1.1,0.4
			c0.3,0.3,0.5,0.6,0.5,1c0.1,0.9-0.4,1.8-1.3,2.2l-7.3,4v0h0.1c1-0.2,2.1-0.3,3.1-0.3c2-0.1,4,0.4,5.6,1.5c1.3,1.1,2,2.7,1.9,4.4
			c0.1,2.2-0.9,4.4-2.7,5.7c-1.8,1.3-4.3,2-7.6,2c-2,0.1-4-0.3-5.8-1.2c-1.2-0.7-2-2-1.9-3.4c0-1.2,0.6-2.3,1.6-2.9
			c1.3-0.9,2.9-1.3,4.5-1.2c1.5-0.1,3,0.2,4.3,1c0.9,0.7,1.4,1.8,1.3,2.9c0,0.4-0.1,0.8-0.1,1.2c0,0,0,0.1,0,0.1c0,0,0.1,0,0.1,0
			c1.6-0.6,2.7-2.2,2.6-3.9c0.1-1.1-0.4-2.1-1.3-2.7c-1.2-0.7-2.6-1-4-0.9C899.3,5844,896.2,5844.7,893.3,5846.1L893.3,5846.1z
			 M927.2,5847.8c-0.4,0-0.8-0.1-1.1-0.4c-0.3-0.3-0.5-0.7-0.5-1.1l-0.4-10.3c0-0.4,0.1-0.8,0.4-1c0.3-0.3,0.6-0.4,1-0.4h1.4
			c0.4,0,0.8,0.2,1,0.4c0.3,0.3,0.4,0.7,0.4,1l-0.4,10.3c0,0.4-0.2,0.8-0.5,1.1c-0.3,0.3-0.7,0.4-1.1,0.4H927.2z M927.8,5849.9
			c0.4,0,0.8,0.2,1,0.4c0.3,0.3,0.4,0.6,0.4,1v0.7c0,0.4-0.2,0.8-0.4,1c-0.3,0.3-0.6,0.4-1,0.4h-0.9c-0.4,0-0.8-0.2-1-0.4
			c-0.3-0.3-0.4-0.6-0.4-1v-0.7c0-0.4,0.2-0.8,0.4-1c0.3-0.3,0.6-0.4,1-0.4H927.8z"/>
		<path class="st1" d="M411.5,5822.5h36v43h-36V5822.5z"/>
		<g transform="translate(105.764 5618.79)">
			<g transform="translate(315.424 212.969)">
				<path class="st4" d="M-7.5,2.8H2.8v20.7H-7.5V2.8z"/>
				<path class="st5" d="M-7.5-7.5V2.8H2.8v20.7h10.3V2.8h10.3V-7.5H-7.5z"/>
				<path class="st4" d="M13.2,2.8h10.3v20.7H13.2V2.8z"/>
			</g>
			<g transform="translate(315.424 247.423)">
				<path class="st6" d="M17.3-7.5v3.3C16.9-4.7,15-7.5,15-7.5h-0.9v4.9H15v-3.3c0.4,0.5,2.2,3.3,2.2,3.3h0.9v-4.9L17.3-7.5z"/>
				<path class="st6" d="M4.5-6c0-0.7-0.5-1.5-1.9-1.5H1.1v4.9H2v-1.8h0.7C4-4.5,4.5-5.3,4.5-6z M2-6.7h0.7c0.8,0,0.9,0.5,0.9,0.7
					c0,0.5-0.3,0.7-0.9,0.7H2V-6.7z"/>
				<path class="st6" d="M11.2-7.5h0.9v4.9h-0.9V-7.5z"/>
				<path class="st6" d="M-3.1-5h2.6v0.9h-2.6V-5z"/>
				<path class="st6" d="M19.6-7.5v0.9h1.5v4h1v-4h1.5v-0.9H19.6z"/>
				<path class="st6" d="M-7.5-7.5v0.9H-6v4h1v-4h1.5v-0.9H-7.5z"/>
				<path class="st6" d="M7.6-2.5c-1.5,0-2.2-1-2.2-2.5s0.7-2.5,2.2-2.5S9.8-6.4,9.8-5C9.8-3.6,9.1-2.5,7.6-2.5z M7.6-6.6
					C6.7-6.6,6.4-5.8,6.4-5c0,0.8,0.3,1.7,1.2,1.7S8.8-4.2,8.8-5C8.8-5.8,8.5-6.7,7.6-6.6L7.6-6.6z"/>
			</g>
		</g>
	</g>
	<g transform="translate(-283 -5828)">
		<g>
			<defs>
				<rect id="SVGID_1_" x="715.2" y="5985.3" width="312.8" height="6.1"/>
			</defs>
			<clipPath id="SVGID_2_">
				<use xlink:href="#SVGID_1_"  style="overflow:visible;"/>
			</clipPath>
			<g transform="translate(722.698 5992.761)" class="st7">
				<g transform="translate(-15 -247.999)">
					<path class="st3" d="M22.9,241.4c-1.3,0-2.6,0.4-3.6,1.2c-2.4,1.8-5.7,1.8-8.1,0c-1-0.8-2.3-1.3-3.6-1.2c0,0,0-0.9,0-0.9
						c1.5,0,2.9,0.5,4,1.4c2.1,1.7,5.1,1.7,7.3,0c1.1-0.9,2.6-1.4,4-1.4L22.9,241.4z"/>
				</g>
				<g transform="translate(0 -247.999)">
					<path class="st3" d="M22.9,241.4c-1.3,0-2.6,0.4-3.6,1.2c-2.4,1.8-5.7,1.8-8.1,0c-1-0.8-2.3-1.3-3.6-1.2c0,0,0-0.9,0-0.9
						c1.5,0,2.9,0.5,4,1.4c2.1,1.7,5.1,1.7,7.3,0c1.1-0.9,2.6-1.4,4-1.4L22.9,241.4z"/>
				</g>
				<g transform="translate(15 -247.999)">
					<path class="st3" d="M22.9,241.4c-1.3,0-2.6,0.4-3.6,1.2c-2.4,1.8-5.7,1.8-8.1,0c-1-0.8-2.3-1.3-3.6-1.2c0,0,0-0.9,0-0.9
						c1.5,0,2.9,0.5,4,1.4c2.1,1.7,5.1,1.7,7.3,0c1.1-0.9,2.6-1.4,4-1.4L22.9,241.4z"/>
				</g>
				<g transform="translate(30 -247.999)">
					<path class="st3" d="M22.9,241.4c-1.3,0-2.6,0.4-3.6,1.2c-2.4,1.8-5.7,1.8-8.1,0c-1-0.8-2.3-1.3-3.6-1.2c0,0,0-0.9,0-0.9
						c1.5,0,2.9,0.5,4,1.4c2.1,1.7,5.1,1.7,7.3,0c1.1-0.9,2.6-1.4,4-1.4L22.9,241.4z"/>
				</g>
				<g transform="translate(45 -247.999)">
					<path class="st3" d="M22.9,241.4c-1.3,0-2.6,0.4-3.6,1.2c-2.4,1.8-5.7,1.8-8.1,0c-1-0.8-2.3-1.3-3.6-1.2c0,0,0-0.9,0-0.9
						c1.5,0,2.9,0.5,4,1.4c2.1,1.7,5.1,1.7,7.3,0c1.1-0.9,2.6-1.4,4-1.4L22.9,241.4z"/>
				</g>
				<g transform="translate(60 -247.999)">
					<path class="st3" d="M22.9,241.4c-1.3,0-2.6,0.4-3.6,1.2c-2.4,1.8-5.7,1.8-8.1,0c-1-0.8-2.3-1.3-3.6-1.2c0,0,0-0.9,0-0.9
						c1.5,0,2.9,0.5,4,1.4c2.1,1.7,5.1,1.7,7.3,0c1.1-0.9,2.6-1.4,4-1.4L22.9,241.4z"/>
				</g>
				<g transform="translate(75 -247.999)">
					<path class="st3" d="M22.9,241.4c-1.3,0-2.6,0.4-3.6,1.2c-2.4,1.8-5.7,1.8-8.1,0c-1-0.8-2.3-1.3-3.6-1.2c0,0,0-0.9,0-0.9
						c1.5,0,2.9,0.5,4,1.4c2.1,1.7,5.1,1.7,7.3,0c1.1-0.9,2.6-1.4,4-1.4L22.9,241.4z"/>
				</g>
				<g transform="translate(90 -247.999)">
					<path class="st3" d="M22.9,241.4c-1.3,0-2.6,0.4-3.6,1.2c-2.4,1.8-5.7,1.8-8.1,0c-1-0.8-2.3-1.3-3.6-1.2c0,0,0-0.9,0-0.9
						c1.5,0,2.9,0.5,4,1.4c2.1,1.7,5.1,1.7,7.3,0c1.1-0.9,2.6-1.4,4-1.4L22.9,241.4z"/>
				</g>
				<g transform="translate(105 -247.999)">
					<path class="st3" d="M22.9,241.4c-1.3,0-2.6,0.4-3.6,1.2c-2.4,1.8-5.7,1.8-8.1,0c-1-0.8-2.3-1.3-3.6-1.2c0,0,0-0.9,0-0.9
						c1.5,0,2.9,0.5,4,1.4c2.1,1.7,5.1,1.7,7.3,0c1.1-0.9,2.6-1.4,4-1.4L22.9,241.4z"/>
				</g>
				<g transform="translate(120 -247.999)">
					<path class="st3" d="M22.9,241.4c-1.3,0-2.6,0.4-3.6,1.2c-2.4,1.8-5.7,1.8-8.1,0c-1-0.8-2.3-1.3-3.6-1.2c0,0,0-0.9,0-0.9
						c1.5,0,2.9,0.5,4,1.4c2.1,1.7,5.1,1.7,7.3,0c1.1-0.9,2.6-1.4,4-1.4L22.9,241.4z"/>
				</g>
				<g transform="translate(135 -247.999)">
					<path class="st3" d="M22.9,241.4c-1.3,0-2.6,0.4-3.6,1.2c-2.4,1.8-5.7,1.8-8.1,0c-1-0.8-2.3-1.3-3.6-1.2c0,0,0-0.9,0-0.9
						c1.5,0,2.9,0.5,4,1.4c2.1,1.7,5.1,1.7,7.3,0c1.1-0.9,2.6-1.4,4-1.4L22.9,241.4z"/>
				</g>
				<g transform="translate(150 -247.999)">
					<path class="st3" d="M22.9,241.4c-1.3,0-2.6,0.4-3.6,1.2c-2.4,1.8-5.7,1.8-8.1,0c-1-0.8-2.3-1.3-3.6-1.2c0,0,0-0.9,0-0.9
						c1.5,0,2.9,0.5,4,1.4c2.1,1.7,5.1,1.7,7.3,0c1.1-0.9,2.6-1.4,4-1.4L22.9,241.4z"/>
				</g>
				<g transform="translate(165 -247.999)">
					<path class="st3" d="M22.9,241.4c-1.3,0-2.6,0.4-3.6,1.2c-2.4,1.8-5.7,1.8-8.1,0c-1-0.8-2.3-1.3-3.6-1.2c0,0,0-0.9,0-0.9
						c1.5,0,2.9,0.5,4,1.4c2.1,1.7,5.1,1.7,7.3,0c1.1-0.9,2.6-1.4,4-1.4L22.9,241.4z"/>
				</g>
				<g transform="translate(180 -247.999)">
					<path class="st3" d="M22.9,241.4c-1.3,0-2.6,0.4-3.6,1.2c-2.4,1.8-5.7,1.8-8.1,0c-1-0.8-2.3-1.3-3.6-1.2c0,0,0-0.9,0-0.9
						c1.5,0,2.9,0.5,4,1.4c2.1,1.7,5.1,1.7,7.3,0c1.1-0.9,2.6-1.4,4-1.4L22.9,241.4z"/>
				</g>
				<g transform="translate(195 -247.999)">
					<path class="st3" d="M22.9,241.4c-1.3,0-2.6,0.4-3.6,1.2c-2.4,1.8-5.7,1.8-8.1,0c-1-0.8-2.3-1.3-3.6-1.2c0,0,0-0.9,0-0.9
						c1.5,0,2.9,0.5,4,1.4c2.1,1.7,5.1,1.7,7.3,0c1.1-0.9,2.6-1.4,4-1.4L22.9,241.4z"/>
				</g>
				<g transform="translate(210 -247.999)">
					<path class="st3" d="M22.9,241.4c-1.3,0-2.6,0.4-3.6,1.2c-2.4,1.8-5.7,1.8-8.1,0c-1-0.8-2.3-1.3-3.6-1.2c0,0,0-0.9,0-0.9
						c1.5,0,2.9,0.5,4,1.4c2.1,1.7,5.1,1.7,7.3,0c1.1-0.9,2.6-1.4,4-1.4L22.9,241.4z"/>
				</g>
				<g transform="translate(225 -247.999)">
					<path class="st3" d="M22.9,241.4c-1.3,0-2.6,0.4-3.6,1.2c-2.4,1.8-5.7,1.8-8.1,0c-1-0.8-2.3-1.3-3.6-1.2c0,0,0-0.9,0-0.9
						c1.5,0,2.9,0.5,4,1.4c2.1,1.7,5.1,1.7,7.3,0c1.1-0.9,2.6-1.4,4-1.4L22.9,241.4z"/>
				</g>
				<g transform="translate(240 -247.999)">
					<path class="st3" d="M22.9,241.4c-1.3,0-2.6,0.4-3.6,1.2c-2.4,1.8-5.7,1.8-8.1,0c-1-0.8-2.3-1.3-3.6-1.2c0,0,0-0.9,0-0.9
						c1.5,0,2.9,0.5,4,1.4c2.1,1.7,5.1,1.7,7.3,0c1.1-0.9,2.6-1.4,4-1.4L22.9,241.4z"/>
				</g>
				<g transform="translate(255 -247.999)">
					<path class="st3" d="M22.9,241.4c-1.3,0-2.6,0.4-3.6,1.2c-2.4,1.8-5.7,1.8-8.1,0c-1-0.8-2.3-1.3-3.6-1.2c0,0,0-0.9,0-0.9
						c1.5,0,2.9,0.5,4,1.4c2.1,1.7,5.1,1.7,7.3,0c1.1-0.9,2.6-1.4,4-1.4L22.9,241.4z"/>
				</g>
				<g transform="translate(270 -247.999)">
					<path class="st3" d="M22.9,241.4c-1.3,0-2.6,0.4-3.6,1.2c-2.4,1.8-5.7,1.8-8.1,0c-1-0.8-2.3-1.3-3.6-1.2c0,0,0-0.9,0-0.9
						c1.5,0,2.9,0.5,4,1.4c2.1,1.7,5.1,1.7,7.3,0c1.1-0.9,2.6-1.4,4-1.4L22.9,241.4z"/>
				</g>
				<g transform="translate(285 -247.999)">
					<path class="st3" d="M22.9,241.4c-1.3,0-2.6,0.4-3.6,1.2c-2.4,1.8-5.7,1.8-8.1,0c-1-0.8-2.3-1.3-3.6-1.2c0,0,0-0.9,0-0.9
						c1.5,0,2.9,0.5,4,1.4c2.1,1.7,5.1,1.7,7.3,0c1.1-0.9,2.6-1.4,4-1.4L22.9,241.4z"/>
				</g>
			</g>
		</g>
		<path class="st3" d="M849,5946.3c-0.9,0.4-1.9,0.8-2.9,1.1c-1.3,0.4-2.1,0.7-2.4,0.9v-5.2c1.3-0.5,2.5-1.1,3.7-1.8
			c1.1-0.6,2.2-1.3,3.1-2.2h5.4v36.5h-7V5946.3z"/>
		<path class="st3" d="M722.1,5952.1c-0.8,0.3-1.5,0.6-2.3,0.9c-1,0.3-1.6,0.6-1.9,0.7v-4.1c1-0.4,2-0.9,3-1.4
			c0.9-0.5,1.7-1.1,2.5-1.8h4.4v29.2h-5.6V5952.1z M742.6,5976c-2.2,0.1-4.3-0.7-5.8-2.3c-1.4-1.7-2.1-3.9-2-6.1v-13.1
			c-0.1-2.3,0.6-4.5,1.9-6.3c1.3-1.5,3.3-2.3,5.9-2.3c2.2-0.2,4.3,0.7,5.8,2.3c1.4,1.8,2.1,4,1.9,6.3v13.1c0.1,2.2-0.6,4.4-2,6.1
			C746.9,5975.3,744.7,5976.1,742.6,5976z M742.6,5971.1c1.4,0,2.1-1.2,2.1-3.6v-12.8c0-0.9-0.1-1.8-0.4-2.7c-0.3-0.7-1-1.2-1.7-1.1
			c-0.8-0.1-1.5,0.3-1.8,1.1c-0.3,0.9-0.4,1.8-0.4,2.7v12.9C740.4,5969.9,741.1,5971.1,742.6,5971.1L742.6,5971.1z M761.5,5976
			c-2.2,0.1-4.3-0.7-5.8-2.3c-1.4-1.7-2.1-3.9-2-6.1v-13.1c-0.1-2.3,0.6-4.5,1.9-6.3c1.3-1.5,3.3-2.3,5.9-2.3
			c2.2-0.2,4.3,0.7,5.8,2.3c1.4,1.8,2.1,4,1.9,6.3v13.1c0.1,2.2-0.6,4.4-2,6.1C765.8,5975.3,763.7,5976.1,761.5,5976z M761.5,5971.1
			c1.4,0,2.1-1.2,2.1-3.6v-12.8c0-0.9-0.1-1.8-0.4-2.7c-0.3-0.7-1-1.2-1.7-1.1c-0.8-0.1-1.5,0.3-1.8,1.1c-0.3,0.9-0.4,1.8-0.4,2.7
			v12.9C759.4,5969.9,760.1,5971.1,761.5,5971.1L761.5,5971.1z"/>
		<path class="st3" d="M862.1,5959.2h4.5v1.3c1-1,2.3-1.6,3.7-1.6c1.2,0,2.3,0.6,2.8,1.6c0.6,1.2,0.9,2.5,0.9,3.8v6.8
			c0.1,1.5-0.3,2.9-1,4.2c-0.6,1-1.7,1.6-2.9,1.6c-1.3-0.1-2.6-0.7-3.5-1.6v7h-4.5V5959.2z M868.1,5973.8c0.9,0,1.4-0.8,1.4-2.5
			v-7.3c0-0.6-0.1-1.1-0.3-1.7c-0.2-0.4-0.6-0.6-1-0.6c-0.6,0-1.1,0.3-1.6,0.7v10.9C867,5973.6,867.5,5973.7,868.1,5973.8z
			 M881.7,5976.7c-1.3,0.1-2.6-0.5-3.4-1.6c-0.7-1.3-1-2.8-0.9-4.3v-8.7h-1.7v-3h1.7v-5.2h4.6v5.2h2.5v3H882v9.4
			c0,0.4,0.1,0.9,0.4,1.2c0.4,0.3,0.8,0.4,1.3,0.4c0.4,0,0.7,0,1.1-0.1v3.5c-0.1,0-0.5,0.1-1,0.2
			C883.1,5976.7,882.4,5976.8,881.7,5976.7z"/>
		<path class="st3" d="M781.7,5966.9v-4.1h3.9v4.1H781.7z M775.5,5962.8h3.7v4.1h-3.7V5962.8z M788.3,5960.2h-15.5v16h2.6v-6.7h10.2
			v3.7c0,0.3-0.1,0.4-0.5,0.4s-1.5,0-2.5-0.1c0.4,0.8,0.8,1.7,0.9,2.6c1.2,0.1,2.4-0.1,3.5-0.5c0.8-0.4,1.1-1.1,1.1-2.5
			L788.3,5960.2z"/>
		<path class="st3" d="M773.8,5956.5l1.1-0.5c-0.8-1.5-1.2-3.1-1.2-4.8c0-1.7,0.4-3.3,1.2-4.8l-1.1-0.5c-1,1.6-1.5,3.4-1.5,5.2
			C772.3,5953.2,772.8,5955,773.8,5956.5z M779.8,5951.5c-0.2-0.2-1-1-1.2-1.3v-0.1h1v-1.4h-1v-1.3c0.4-0.1,0.8-0.2,1.2-0.4l-1-1.1
			c-1,0.4-2,0.7-3.1,0.8c0.2,0.4,0.3,0.7,0.4,1.1c0.4,0,0.7-0.1,1.1-0.2v0.9h-1.3v1.4h1.1c-0.3,0.9-0.8,1.7-1.3,2.4
			c0.3,0.4,0.5,0.9,0.7,1.4c0.4-0.5,0.6-1,0.9-1.6v3.1h1.4v-3.6c0.2,0.3,0.3,0.6,0.4,0.8L779.8,5951.5z M783.4,5950.2h-2.1v-1h2.1
			V5950.2z M783.9,5954c-0.1,0-0.1,0-0.1-0.4v-2.2h1.1v-3.6H784c0.3-0.4,0.6-1,0.9-1.5l-1.5-0.5c-0.2,0.6-0.5,1.2-0.8,1.7l0.8,0.3
			h-2.1l0.6-0.3c-0.2-0.6-0.5-1.2-0.9-1.7l-1.2,0.5c0.3,0.5,0.5,0.9,0.7,1.4h-0.7v3.6h0.7c0.1,1.2-0.6,2.4-1.8,2.8
			c0.4,0.3,0.6,0.7,0.8,1.2c1.9-0.9,2.2-2.2,2.3-4h0.4v2.2c0,1.2,0.2,1.6,1.2,1.6h0.6c0.8,0,1.1-0.4,1.2-1.9
			c-0.4-0.1-0.9-0.3-1.2-0.5c0,1-0.1,1.2-0.2,1.2H783.9z M793,5950.9c-0.1,0.5-0.3,1-0.6,1.5c-0.3-0.4-0.6-0.9-0.8-1.5H793z
			 M793.8,5949.5l-0.2,0h-1.9c0-0.3,0-0.6,0.1-0.9h3.4v-1.3h-3.4c0-0.5,0-1,0-1.4h-1.4c0,0.5,0,1,0,1.4h-1.1v1.3h1
			c-0.1,2.3-0.4,4.2-2,5.5c0-0.1,0-0.2,0-0.4v-2.2c0.4-0.1,0.7-0.2,1.1-0.3l-0.2-1.3l-0.9,0.2v-1.3h0.8v-1.3h-0.8v-1.8h-1.4v1.8
			h-1.1v1.3h1.1v1.6c-0.5,0.1-0.9,0.2-1.3,0.3l0.3,1.5l1-0.3v1.8c0,0.1,0,0.2-0.2,0.2c-0.1,0-0.5,0-0.9,0c0.2,0.4,0.3,0.9,0.4,1.3
			c0.6,0.1,1.1,0,1.6-0.3c0.3-0.1,0.4-0.4,0.5-0.7c0.4,0.3,0.7,0.6,0.9,1c0.9-0.7,1.5-1.7,1.9-2.8c0.2,0.3,0.3,0.6,0.5,0.8
			c-0.4,0.4-0.8,0.7-1.3,0.9c0.3,0.3,0.6,0.7,0.8,1.2c0.5-0.3,1-0.6,1.5-1c0.6,0.5,1.2,0.8,1.9,1c0.2-0.5,0.6-0.9,0.9-1.3
			c-0.7-0.2-1.3-0.5-1.9-0.9c0.6-1.1,1-2.3,1.2-3.5L793.8,5949.5z M797.2,5956.5c1-1.6,1.5-3.4,1.5-5.2c0-1.9-0.5-3.7-1.5-5.2
			l-1.1,0.5c0.8,1.5,1.2,3.1,1.2,4.8c0,1.7-0.4,3.3-1.2,4.8L797.2,5956.5z"/>
		<path class="st3" d="M798.6,5962.1l0,2.5c2.3,0.2,4.6,0.2,7,0v-2.5C803.3,5962.3,800.9,5962.3,798.6,5962.1z M798,5968.9
			c-0.2,0.7-0.3,1.4-0.3,2.2c0,1.7,1.4,2.7,4.1,2.7c1.4,0,2.8-0.1,4.2-0.3l0-2.6c-1.3,0.3-2.7,0.4-4,0.4c-1.3,0-2-0.3-2-1
			c0-0.4,0.1-0.9,0.2-1.3L798,5968.9z M793.8,5960.9c0,0.6-0.1,1.3-0.2,1.8c-0.4,2.1-0.6,4.1-0.6,6.2c0,1.8,0.2,3.5,0.6,5.2l2.2-0.1
			c0-0.3,0-0.5,0-0.7c0-0.3,0-0.5,0.1-0.8c0.3-1.4,0.7-2.7,1.2-4.1l-1.2-0.9c-0.2,0.4-0.4,0.8-0.6,1.2c0-0.1,0-0.2,0-0.4
			c0.1-1.9,0.4-3.8,0.8-5.6c0.1-0.5,0.3-1.1,0.4-1.6L793.8,5960.9z M808.3,5964.5l1.1,2.7c1.9-0.9,5.5-2.3,7.6-2.3
			c1.3-0.2,2.5,0.7,2.7,2c0,0.1,0,0.3,0,0.4c0,2.5-3.2,3.7-7.6,3.8l1.1,2.6c6-0.3,9.2-2.8,9.2-6.3c0-3.1-2.4-4.8-5.3-4.8
			c-2.3,0.2-4.6,0.7-6.8,1.5C809.8,5964.2,808.8,5964.4,808.3,5964.5z M826.4,5968.9c-0.2,0.7-0.4,1.5-0.4,2.2c0,2.3,1.9,3.4,5,3.4
			c1.4,0,2.8-0.1,4.2-0.3l0.1-2.4c-1.4,0.2-2.9,0.4-4.4,0.4c-1.9,0-2.5-0.6-2.5-1.5c0-0.5,0.2-1,0.4-1.5L826.4,5968.9z
			 M837.1,5964.2c-0.9,0.3-1.8,0.6-2.8,0.8l-0.2-0.4c-0.1-0.2-0.2-0.5-0.3-0.7c0.9-0.2,1.7-0.4,2.6-0.6l-0.4-2.1c-1,0.3-2,0.6-3,0.7
			c-0.2-0.5-0.3-1-0.4-1.5l-2.7,0.5c0.3,0.4,0.5,0.8,0.7,1.2c-1.5,0-3,0-4.6-0.2l0.1,2.2c1.8,0.2,3.6,0.2,5.4,0.1l0.4,1l0.1,0.2
			c-2,0.2-4.1,0.1-6.1-0.1l0.1,2.2c2.3,0.2,4.6,0.1,6.9-0.1c0.2,0.4,0.3,0.8,0.5,1.3c-0.4,0-1-0.1-1.5-0.1l-0.2,1.8
			c1.1,0.1,2.7,0.4,3.7,0.6l1.1-1.4c-0.5-0.9-0.9-1.7-1.2-2.5c0.8-0.1,1.6-0.3,2.3-0.6L837.1,5964.2z"/>
		<path class="st3" d="M914.4,5955.2c-0.8,0-1.5-0.7-1.5-1.5c0-0.8,0.7-1.5,1.5-1.5c0.8,0,1.5,0.7,1.5,1.5
			C915.9,5954.5,915.3,5955.2,914.4,5955.2z M896.6,5954.2c-0.9,0-2.8-0.1-3.6-0.3v4.8c0.7-0.1,2.3-0.1,3.6-0.1H909
			c-0.4,2.6-1.5,5.1-3.1,7.2c-2.2,2.7-5.4,5.2-11,6.5l3.7,4.1c4.5-1.4,8.5-4.1,11.4-7.9c2.4-3.2,3.6-7.5,4.2-10.1
			c0.1-0.3,0.2-0.8,0.3-1.2c1.9-0.1,3.4-1.6,3.4-3.5c0-1.9-1.6-3.5-3.5-3.5c-1.9,0-3.5,1.6-3.5,3.5c0,0.1,0,0.2,0,0.4
			c-0.7,0.1-1.3,0.1-2,0.1H896.6z M926.8,5976.1c0.6-0.4,1.2-0.7,1.9-0.9c6.4-2.2,12.2-5.5,16.2-10.1l-2.4-3.9
			c-3.8,4.2-8.5,7.3-13.9,9.1v-13.8c0-1.2,0.1-2.4,0.3-3.5h-5.3c0.2,1.2,0.4,2.3,0.4,3.5v14.7c0,0.7-0.1,1.4-0.4,2.1L926.8,5976.1z
			 M974,5953.7c-0.7-1.3-1.4-2.6-2.2-3.8l-2.6,1.1c0.8,1.2,1.6,2.5,2.2,3.9L974,5953.7z M970.5,5955.1c-0.5-1-1.5-2.8-2.2-3.8
			l-2.6,1.1c0.8,1.3,1.5,2.6,2.2,3.9L970.5,5955.1z M958.1,5956.3c0-1.2,0.1-2.4,0.3-3.6h-5c0.2,1.2,0.2,2.4,0.3,3.6v3.5
			c-2.7,0.5-5,0.9-6.4,1l0.8,4.4c1.2-0.3,3.2-0.7,5.6-1.2v7.2c0,3.6,0.9,5.3,7.9,5.3c2.9,0,5.8-0.2,8.6-0.6l0.1-4.6
			c-2.9,0.6-5.9,0.9-8.9,1c-2.9,0-3.3-0.6-3.3-2.2v-6.9c3.4-0.7,6.5-1.3,7.5-1.5c-1.1,1.9-2.5,3.6-4.2,5.1l3.7,2.2
			c2.3-2.5,4.2-5.2,5.8-8.2c0.3-0.6,0.8-1.3,1-1.7l-3.3-2.5c-0.7,0.3-1.5,0.6-2.3,0.8c-1.3,0.3-4.7,1-8.3,1.7L958.1,5956.3z
			 M981.5,5952.8l-3.2,3.4c2.5,1.9,4.9,3.9,7,6.1l3.5-3.6C986.5,5956.6,984.1,5954.6,981.5,5952.8L981.5,5952.8z M977.3,5971.4
			l2.9,4.5c3.5-0.6,6.9-1.9,10-3.7c4.5-2.6,8.2-6.2,10.9-10.6l-2.6-4.8c-2.4,4.7-6.1,8.6-10.7,11.2
			C984.6,5969.7,981,5970.9,977.3,5971.4z M1027.2,5963.8c-3.8-1.7-7.6-3.1-11.6-4.2v-3.8c0-1.2,0.1-2.4,0.3-3.6h-5.3
			c0.2,1.2,0.3,2.4,0.3,3.6v16c0,1.4-0.1,2.8-0.3,4.2h5.3c-0.1-1.3-0.3-3.5-0.3-4.2v-7.2c3.3,1.1,6.5,2.5,9.6,4L1027.2,5963.8z"/>
	</g>
	<path class="st1" d="M533.1,85.3l-1.3,0.5c0.6,0.9,1.1,1.8,1.6,2.8l1.3-0.6C534.3,87.1,533.7,86.2,533.1,85.3z M535.4,84.5
		l-1.3,0.5c0.6,0.9,1.2,1.8,1.7,2.8l1.3-0.6C536.6,86.2,536,85.3,535.4,84.5z M521.7,89.6c1.6,0.1,3.3,0.2,5.3,0.2
		c1.8,0,4.1-0.1,5.5-0.2v-2.1c-1.5,0.1-3.6,0.3-5.5,0.3c-1.8,0-3.5-0.1-5.3-0.3V89.6z M520.8,95.5c-0.2,0.9-0.4,1.9-0.4,2.8
		c0,2.6,2.3,4,6.6,4c2.3,0,4.6-0.2,6.8-0.7l0-2.2c-2.2,0.6-4.5,0.8-6.8,0.8c-3,0-4.4-1-4.4-2.4c0-0.7,0.2-1.4,0.4-2.1L520.8,95.5z
		 M553.9,91.1c-0.5,1.8-1.3,3.4-2.3,5c-0.5-2.1-0.8-4.2-1-6.3h6.3v-1.8h-2l1-1c-1.1-0.9-2.2-1.6-3.5-2.2l-1.1,1.1
		c1.1,0.6,2.2,1.3,3.1,2.1h-3.9c-0.1-1-0.1-2.1-0.1-3.2h-2c0,1.1,0,2.1,0.1,3.2h-8.2v5.7c0,2.6-0.1,6-1.7,8.4
		c0.6,0.4,1.1,0.8,1.6,1.3c1.8-2.6,2.1-6.6,2.1-9.4h3.2c-0.1,3-0.2,4.2-0.4,4.4c-0.2,0.2-0.4,0.3-0.6,0.2c-0.3,0-1.1,0-1.9-0.1
		c0.3,0.5,0.5,1.1,0.5,1.7c0.8,0.1,1.6,0,2.4,0c0.5,0,1-0.3,1.3-0.6c0.4-0.6,0.5-2.3,0.6-6.6v-0.7h-5v-2.4h6.4
		c0.2,2.8,0.6,5.6,1.4,8.2c-1.2,1.4-2.7,2.6-4.4,3.5c0.5,0.5,1,1,1.4,1.5c1.4-0.8,2.7-1.9,3.8-3.1c0.9,1.9,2.1,3,3.5,3
		c1.6,0,2.3-0.9,2.6-4.5c-0.6-0.2-1.1-0.6-1.6-1c-0.1,2.6-0.4,3.6-0.9,3.6c-0.8,0-1.6-1-2.3-2.7c1.5-2,2.7-4.3,3.5-6.8L553.9,91.1z
		 M560,96.2c-0.1,1.6-0.5,3.2-1.2,4.7c0.5,0.2,1,0.4,1.4,0.7c0.7-1.6,1.1-3.3,1.3-5.1L560,96.2z M564.4,96.5
		c0.5,1.2,0.9,2.5,1.2,3.8l1.5-0.5c-0.3-1.3-0.8-2.6-1.3-3.8L564.4,96.5z M564,91.7c0.3,0.5,0.6,1.1,0.8,1.6l-2.7,0.1
		c1.4-1.8,2.8-3.7,4-5.7l-1.6-0.7c-0.6,1.2-1.3,2.4-2,3.5c-0.3-0.4-0.6-0.8-1-1.2c0.7-1.1,1.6-2.7,2.3-4l-1.7-0.6
		c-0.4,1.3-1,2.5-1.6,3.6l-0.5-0.5l-0.9,1.2c0.9,0.9,1.8,1.8,2.5,2.8c-0.4,0.6-0.8,1.1-1.2,1.6l-1.4,0l0.2,1.6
		c0.9-0.1,2-0.1,3.1-0.2v8.1h1.7v-8.2l1.5-0.1c0.1,0.4,0.3,0.7,0.4,1.1l1.4-0.7c-0.5-1.4-1.1-2.8-1.9-4.1L564,91.7z M577.1,88.2H570
		c0.4-1,0.8-2,1.1-3.1l-1.9-0.4c-0.6,2.5-1.8,4.9-3.5,6.8c0.6,0.3,1.1,0.7,1.6,1.1c0.7-0.8,1.3-1.7,1.8-2.7h6.1
		c-0.3,7.3-0.6,10.3-1.2,10.9c-0.2,0.3-0.5,0.4-0.9,0.3c-0.5,0-1.7,0-3-0.1c0.4,0.6,0.6,1.2,0.6,1.9c1,0.1,2.1,0.1,3.1,0
		c0.7,0,1.4-0.3,1.8-0.9c0.8-1,1.1-4.1,1.4-13V88.2z M572.6,97.2c-0.7-1.6-1.6-3.1-2.7-4.5l-1.5,0.7c1.1,1.4,1.9,3,2.6,4.6
		L572.6,97.2z M584.5,90.7c1.6-1.2,3-2.6,4.1-4.2c1.3,1.6,2.7,3,4.3,4.2H584.5z M589.6,96.3h6.5v-1.6h-6.5v-2.4h4.1v-1.1
		c1,0.7,2.1,1.4,3.2,2c0.3-0.6,0.7-1.1,1.2-1.7c-3.4-1.5-6.3-3.9-8.6-6.8h-1.9c-2.1,3-4.9,5.5-8.2,7.1c0.5,0.4,0.8,1,1.2,1.5
		c1.1-0.6,2.1-1.2,3.1-2v1h3.9v2.4h-6.4v1.6h6.4v4.5h-7.3v1.6h16.9v-1.6h-7.6V96.3z M582.7,97.2c0.8,1.1,1.4,2.3,1.8,3.6l1.6-0.7
		c-0.4-1.2-1.1-2.4-1.9-3.4L582.7,97.2z M592.3,100.8c0.9-1.1,1.7-2.3,2.4-3.5l-1.8-0.7c-0.6,1.2-1.2,2.4-2,3.6L592.3,100.8z
		 M615.7,91.9h-4.6v-1.6h4.6V91.9z M615.7,94.8h-4.6v-1.6h4.6V94.8z M615.7,97.8h-4.6v-1.7h4.6V97.8z M609.4,88.8v10.4h8.1V88.8
		h-3.7c0.2-0.5,0.4-1.1,0.6-1.7h3.7v-1.6h-9.2v1.6h3.6c-0.1,0.5-0.2,1.1-0.3,1.7H609.4z M601.7,87.9h5.3v1.5h1.6v-3h-3.3v-1.7h-1.7
		v1.7h-3.3v3h1.5V87.9z M605.8,100.4h-2.9V98h2.9V100.4z M602.8,96.5c0.7-0.5,1.4-1,2.1-1.6c0.8,0.6,1.5,1.1,2.1,1.6H602.8z
		 M605.8,91c-0.3,0.6-0.7,1.2-1.1,1.8c-0.6-0.4-1.2-0.8-1.7-1.1c0.2-0.2,0.3-0.4,0.5-0.6H605.8z M607.4,97l0.3,0.3l1.1-1.3
		c-0.7-0.6-1.7-1.4-2.8-2.2c0.9-1.1,1.5-2.3,2-3.6l-1.1-0.5l-0.3,0.1h-2.3c0.2-0.3,0.4-0.7,0.5-1.1l-1.5-0.4c-0.8,1.8-2,3.3-3.6,4.3
		c0.4,0.3,0.8,0.7,1.2,1.1c0.4-0.3,0.8-0.6,1.1-0.9c0.5,0.4,1.1,0.8,1.6,1.2c-1.2,1.1-2.5,1.9-4,2.4c0.4,0.4,0.7,0.9,1,1.3
		c0.2-0.1,0.5-0.2,0.7-0.3v5.3h1.6v-0.9h4.3c0.4,0.3,0.9,0.9,1.2,1.2c1.5-0.6,2.9-1.5,4.2-2.6l-1.5-0.9c-1,1-2.3,1.8-3.6,2.3V97z
		 M613.9,100.4c1.1,0.8,2.2,1.7,3.2,2.7l1.4-1c-1-0.9-2.1-1.8-3.3-2.5L613.9,100.4z M627.7,89.2V91c2.5,0.2,5,0.2,7.5,0v-1.8
		C632.6,89.5,630.1,89.5,627.7,89.2z M627,96.5c-0.2,0.7-0.3,1.5-0.3,2.2c0,1.7,1.4,2.8,4.4,2.8c1.5,0,3-0.1,4.5-0.4l0-1.9
		c-1.5,0.3-3,0.5-4.4,0.5c-2.2,0-2.8-0.6-2.8-1.4c0-0.5,0.1-1.1,0.2-1.6L627,96.5z M622.6,87.7c0,0.5-0.1,1-0.2,1.5
		c-0.4,2.3-0.7,4.7-0.8,7.1c0,1.9,0.2,3.9,0.7,5.8l1.6-0.1c0-0.2,0-0.5,0-0.7c0-0.3,0-0.5,0.1-0.8c0.3-1.4,0.8-2.8,1.3-4.2l-0.9-0.7
		c-0.3,0.6-0.6,1.5-0.9,2.2c-0.1-0.6-0.1-1.2-0.1-1.9c0.1-2.3,0.4-4.5,0.9-6.7c0.1-0.3,0.3-1,0.4-1.4L622.6,87.7z M641.7,90.2h13.2
		v-1.6h-6.7v-2.2h-1.7v2.2H640v4.6c0,2.6-0.1,6.2-1.6,8.8c0.5,0.3,1,0.6,1.4,1c1.6-2.8,1.8-6.9,1.8-9.7V90.2z M651.1,93.2
		c-1.3-1-2.7-1.9-4.2-2.6l-1.1,1.1c1.5,0.8,2.9,1.7,4.2,2.8L651.1,93.2z M643.1,101.3c0.9-1.8,1.4-3.8,1.5-5.8l-1.5-0.3
		c-0.1,1.9-0.6,3.7-1.5,5.4L643.1,101.3z M647.9,101.1c-0.6,0-0.7-0.1-0.7-0.7v-6.6h-1.6v6.6c0,1.7,0.4,2.3,2.1,2.3h2.3
		c1.6,0,2-0.8,2.2-3.8c-0.5-0.2-1-0.4-1.5-0.7c-0.1,2.5-0.2,3-0.8,3H647.9z M651.3,95.3c1.1,1.8,1.9,3.8,2.4,5.9l1.6-0.7
		c-0.5-2.1-1.4-4.1-2.5-5.8L651.3,95.3z M667.2,88.9l-1.3,0.5c0.6,0.9,1.2,1.9,1.7,2.9l1.3-0.6C668.4,90.8,667.8,89.9,667.2,88.9
		L667.2,88.9z M669.5,88l-1.2,0.6c0.7,0.9,1.2,1.8,1.7,2.8l1.3-0.6C670.8,89.8,670.2,88.9,669.5,88L669.5,88z M660.1,87.5
		c0.1,0.7,0.2,1.4,0.2,2.1c0,1.7-0.2,6.3-0.2,8.9c0,3,1.8,4.1,4.5,4.1c3,0,5.9-1.5,7.6-4l-1.3-1.6c-1.3,2.3-3.7,3.7-6.3,3.7
		c-1.5,0-2.7-0.6-2.7-2.5c0-2.5,0.1-6.6,0.2-8.6c0-0.6,0.1-1.4,0.2-2L660.1,87.5z M676.1,89.4l0.2,2c2-0.4,6.4-0.8,7.9-1
		c-1.9,1.3-3,3.5-3,5.8c0,3.9,3.7,5.8,7.2,6l0.6-1.9c-2.9-0.1-6-1.2-6-4.5c0.1-2.4,1.6-4.6,3.9-5.3c1.1-0.2,2.3-0.3,3.5-0.3v-1.8
		c-1.2,0-3,0.1-4.9,0.3c-3.3,0.3-6.4,0.6-7.8,0.7C677.4,89.3,676.8,89.3,676.1,89.4L676.1,89.4z"/>
	<g transform="translate(-700 -5826)">
		<path class="st3" d="M778,5946.3c-0.9,0.4-1.9,0.8-2.9,1.1c-1.3,0.4-2.1,0.7-2.4,0.9v-5.2c1.3-0.5,2.5-1.1,3.7-1.8
			c1.1-0.6,2.2-1.3,3.1-2.2h5.4v36.5h-7V5946.3z M803.6,5976.1c-3.2,0-5.6-1-7.3-2.9c-1.8-2.2-2.6-4.9-2.5-7.7v-16.3
			c0-3.3,0.8-5.9,2.4-7.9s4.1-2.9,7.3-2.9c3.2,0,5.7,1,7.3,2.9s2.4,4.5,2.4,7.9v16.3c0.1,2.8-0.8,5.5-2.5,7.6
			C809,5975.2,806.3,5976.3,803.6,5976.1z M803.6,5970c1.8,0,2.7-1.5,2.7-4.5v-16.1c0-1.1-0.1-2.3-0.5-3.4c-0.3-0.9-1.2-1.4-2.1-1.4
			c-0.9-0.1-1.9,0.4-2.2,1.3c-0.4,1.1-0.5,2.2-0.5,3.4v16.1C800.9,5968.5,801.8,5970,803.6,5970z M827.3,5976.1
			c-3.2,0-5.6-1-7.3-2.9c-1.8-2.2-2.6-4.9-2.5-7.7v-16.3c0-3.3,0.8-5.9,2.4-7.9s4.1-2.9,7.3-2.9c3.2,0,5.7,1,7.3,2.9
			s2.4,4.5,2.4,7.9v16.3c0.1,2.8-0.8,5.5-2.5,7.6C832.6,5975.2,830,5976.3,827.3,5976.1z M827.3,5970c1.8,0,2.7-1.5,2.7-4.5v-16.1
			c0-1.1-0.1-2.3-0.5-3.4c-0.3-0.9-1.2-1.4-2.1-1.4c-1-0.1-1.9,0.4-2.2,1.3c-0.4,1.1-0.5,2.2-0.5,3.4v16.1
			C824.6,5968.5,825.5,5970,827.3,5970z"/>
		<path class="st3" d="M844.1,5959.2h4.5v1.3c1-1,2.3-1.6,3.7-1.6c1.2,0,2.3,0.6,2.8,1.6c0.6,1.2,0.9,2.5,0.9,3.8v6.8
			c0.1,1.5-0.3,2.9-1,4.2c-0.6,1-1.7,1.6-2.9,1.6c-1.3-0.1-2.6-0.7-3.5-1.6v7h-4.5V5959.2z M850.1,5973.8c0.9,0,1.4-0.8,1.4-2.5
			v-7.3c0-0.6-0.1-1.1-0.3-1.7c-0.2-0.4-0.6-0.6-1-0.6c-0.6,0-1.1,0.3-1.6,0.7v10.9C849,5973.6,849.5,5973.7,850.1,5973.8z
			 M863.7,5976.7c-1.3,0.1-2.6-0.5-3.4-1.6c-0.7-1.3-1-2.8-0.9-4.3v-8.7h-1.7v-3h1.7v-5.2h4.6v5.2h2.5v3H864v9.4
			c0,0.4,0.1,0.9,0.4,1.2c0.4,0.3,0.8,0.4,1.3,0.4c0.4,0,0.7,0,1.1-0.1v3.5c-0.1,0-0.5,0.1-1,0.2
			C865.1,5976.7,864.4,5976.8,863.7,5976.7z"/>
		<path class="st3" d="M899.4,5955.2c-0.8,0-1.5-0.7-1.5-1.5c0-0.8,0.7-1.5,1.5-1.5c0.8,0,1.5,0.7,1.5,1.5
			C900.9,5954.5,900.3,5955.2,899.4,5955.2z M881.6,5954.2c-0.9,0-2.8-0.1-3.6-0.3v4.8c0.7-0.1,2.3-0.1,3.6-0.1H894
			c-0.4,2.6-1.5,5.1-3.1,7.2c-2.2,2.7-5.4,5.2-11,6.5l3.7,4.1c4.5-1.4,8.5-4.1,11.4-7.9c2.4-3.2,3.6-7.5,4.2-10.1
			c0.1-0.3,0.2-0.8,0.3-1.2c1.9-0.1,3.4-1.6,3.4-3.5c0-1.9-1.6-3.5-3.5-3.5c-1.9,0-3.5,1.6-3.5,3.5c0,0.1,0,0.2,0,0.4
			c-0.7,0.1-1.3,0.1-2,0.1H881.6z M911.8,5976.1c0.6-0.4,1.2-0.7,1.9-0.9c6.4-2.2,12.2-5.5,16.2-10.1l-2.4-3.9
			c-3.8,4.2-8.5,7.3-13.9,9.1v-13.8c0-1.2,0.1-2.4,0.3-3.5h-5.3c0.2,1.2,0.4,2.3,0.4,3.5v14.7c0,0.7-0.1,1.4-0.4,2.1L911.8,5976.1z
			 M959,5953.7c-0.7-1.3-1.4-2.6-2.2-3.8l-2.6,1.1c0.8,1.2,1.6,2.5,2.2,3.9L959,5953.7z M955.5,5955.1c-0.5-1-1.5-2.8-2.2-3.8
			l-2.6,1.1c0.8,1.3,1.5,2.6,2.2,3.9L955.5,5955.1z M943.1,5956.3c0-1.2,0.1-2.4,0.3-3.6h-5c0.2,1.2,0.2,2.4,0.3,3.6v3.5
			c-2.7,0.5-5,0.9-6.4,1l0.8,4.4c1.2-0.3,3.2-0.7,5.6-1.2v7.2c0,3.6,0.9,5.3,7.9,5.3c2.9,0,5.8-0.2,8.6-0.6l0.1-4.6
			c-2.9,0.6-5.9,0.9-8.9,1c-2.9,0-3.3-0.6-3.3-2.2v-6.9c3.4-0.7,6.5-1.3,7.5-1.5c-1.1,1.9-2.5,3.6-4.2,5.1l3.7,2.2
			c2.3-2.5,4.2-5.2,5.8-8.2c0.3-0.6,0.8-1.3,1-1.7l-3.3-2.5c-0.7,0.3-1.5,0.6-2.3,0.8c-1.3,0.3-4.7,1-8.3,1.7L943.1,5956.3z
			 M966.5,5952.8l-3.2,3.4c2.5,1.9,4.9,3.9,7,6.1l3.5-3.6C971.5,5956.6,969.1,5954.6,966.5,5952.8L966.5,5952.8z M962.3,5971.4
			l2.9,4.5c3.5-0.6,6.9-1.9,10-3.7c4.5-2.6,8.2-6.2,10.9-10.6l-2.6-4.8c-2.4,4.7-6.1,8.6-10.7,11.2
			C969.6,5969.7,966,5970.9,962.3,5971.4z M1012.2,5963.8c-3.8-1.7-7.6-3.1-11.6-4.2v-3.8c0-1.2,0.1-2.4,0.3-3.6h-5.3
			c0.2,1.2,0.3,2.4,0.3,3.6v16c0,1.4-0.1,2.8-0.3,4.2h5.3c-0.1-1.3-0.3-3.5-0.3-4.2v-7.2c3.3,1.1,6.5,2.5,9.6,4L1012.2,5963.8z"/>
	</g>
	<path class="st1" d="M124.3,102.1c-0.7,0-1.8-0.7-1.8-1.5c0-0.8,1-1.8,2.4-2.5c0,1.3,0.1,2.4,0.1,3
		C124.9,101.8,124.7,102.1,124.3,102.1z M126.6,94.9c0-0.7,0-1.5,0-2.3c1.3-0.2,2.7-0.4,4-0.7l0-2c-1.3,0.4-2.6,0.6-3.9,0.8
		c0-0.7,0.1-1.3,0.1-1.8c0-0.5,0.1-1.1,0.1-1.5h-2.2c0.1,0.5,0.1,1,0.1,1.6c0,0.4,0,1.1,0,2c-0.5,0-0.9,0-1.4,0
		c-0.9,0-1.8,0-2.6-0.2l0.1,1.9c0.8,0.1,1.7,0.1,2.6,0.1c0.4,0,0.8,0,1.3-0.1c0,0.7,0,1.5,0,2.2v1.2c-2.3,1-4.4,2.8-4.4,4.4
		c0,1.9,2.6,3.5,4.4,3.5c1.2,0,1.9-0.6,1.9-2.7c0-0.8-0.1-2.4-0.1-4.1c1.3-0.4,2.7-0.7,4.1-0.7c1.8,0,3.2,0.8,3.2,2.4
		c0,1.7-1.5,2.6-3.1,2.9c-0.8,0.1-1.6,0.2-2.4,0.1l0.7,2c0.8,0,1.7-0.1,2.5-0.3c2.9-0.7,4.3-2.3,4.3-4.7c0-2.5-2.2-4.1-5.2-4.1
		c-1.4,0-2.8,0.2-4.1,0.6V94.9z M132,91.2c1.6,0.8,3.1,1.8,4.6,2.9l1-1.6c-1.5-1.1-3.1-2-4.7-2.8L132,91.2z M144,95.5h9v1.7h-9V95.5
		z M144,92.2h9v1.7h-9V92.2z M144,89h9v1.7h-9V89z M152.5,103.1c-0.8,0-0.9-0.1-0.9-0.7v-3.6h3.4V87.4h-12.7v11.5h2.6
		c-0.4,2.4-1.4,3.8-5.5,4.6c0.4,0.5,0.8,1,1.1,1.6c4.7-1.1,5.9-3.1,6.4-6.3h2.9v3.6c0,1.9,0.5,2.4,2.6,2.4h3c1.8,0,2.3-0.7,2.5-3.7
		c-0.6-0.1-1.2-0.4-1.7-0.8c-0.1,2.4-0.2,2.7-1,2.7H152.5z M166.8,97.5c-0.4-0.4-1.9-2-2.5-2.6v-1h2.1v-0.9h11.2v-1.2h-4.8V91h3.9
		v-1.2h-3.9v-0.9h4.3v-1.2h-4.3v-1H171v1h-4.1v1.2h4.1v0.9h-3.7V91h3.7v0.9h-4.7v0.3h-2v-3c0.8-0.2,1.7-0.4,2.5-0.7l-1.3-1.4
		c-2,0.7-4,1.2-6,1.5c0.2,0.5,0.4,0.9,0.5,1.4c0.8-0.1,1.7-0.2,2.5-0.4v2.7h-2.9v1.7h2.7c-0.7,2.2-1.8,4.2-3.3,6
		c0.4,0.5,0.7,1.1,0.9,1.7c1-1.4,1.8-2.9,2.5-4.5v7.9h1.8v-8.2c0.5,0.7,1,1.4,1.5,2.2L166.8,97.5z M174.8,96.2h-5.6v-1.1h5.6V96.2z
		 M174.8,98.4h-5.6v-1.1h5.6V98.4z M174.8,100.7h-5.6v-1.1h5.6V100.7z M176.6,93.9h-9v8h2.1c-1.3,0.9-2.8,1.6-4.3,2.1
		c0.4,0.4,0.8,0.8,1.2,1.2c1.7-0.5,3.3-1.3,4.8-2.4l-1.4-0.9h6.7V93.9z M172.8,102.8c1.2,0.8,2.6,1.7,3.4,2.3l1.6-0.9
		c-0.9-0.6-2.5-1.6-3.8-2.3L172.8,102.8z M183.3,87.6c0,0.5-0.1,1.2-0.2,1.9c-0.3,2.1-0.5,4.2-0.6,6.4c0,1.1,0.1,2.1,0.2,3.2
		l1.9-0.1c-0.1-0.8-0.1-1.5-0.1-2.3c0.2-2.6,2.4-6.2,4.8-6.2c1.9,0,2.9,2,2.9,5.1c0,4.9-3.2,6.5-7.6,7.2l1.2,1.8
		c5-0.9,8.5-3.5,8.5-9c0-4.3-2-6.9-4.7-6.9c-2.4,0-4.3,2.1-5.2,3.9c0.2-1.7,0.5-3.3,0.9-4.9L183.3,87.6z M213.6,92.5
		c-0.4-0.9-0.9-1.7-1.5-2.5l-1.2,0.5c0.5,0.8,1,1.6,1.4,2.5L213.6,92.5z M207.6,96.6c1.1-0.1,2.2-0.2,3.4-0.2c1,0,2,0.1,3,0.2
		l0.1-1.7c-1-0.1-2.1-0.2-3.1-0.2c-1.2,0-2.4,0.1-3.3,0.2V96.6z M208.9,91.5c-1.1,0.3-2.1,0.5-3.2,0.6l0.2-1
		c0.1-0.4,0.2-1.1,0.3-1.5l-2.2-0.2c0,0.5,0,1.1-0.1,1.6c0,0.3-0.1,0.8-0.2,1.3c-0.6,0.1-1.2,0.1-1.8,0.1c-0.7,0-1.5,0-2.2-0.1
		l0,1.8c0.6,0.1,1.3,0.1,2.1,0.1c0.5,0,0.9,0,1.4,0c-0.1,0.6-0.3,1.2-0.4,1.7c-0.7,2.8-1.7,5.4-3,8l2,0.7c1.2-2.7,2.1-5.4,2.8-8.2
		c0.2-0.8,0.4-1.5,0.6-2.3c1.2-0.1,2.4-0.3,3.6-0.6V91.5z M206.6,99.2c-0.2,0.7-0.3,1.5-0.3,2.2c0,1.8,1.5,2.7,4.4,2.7
		c1.2,0,2.4-0.1,3.5-0.3l0.1-1.8c-1.2,0.2-2.4,0.3-3.6,0.4c-2.3,0-2.7-0.7-2.7-1.5c0-0.5,0.1-1,0.3-1.5L206.6,99.2z M213,89.7
		c0.6,0.8,1.1,1.6,1.5,2.5l1.2-0.5c-0.3-0.6-1-1.8-1.5-2.5L213,89.7z M219.3,89.5c0,0.4,0,0.9-0.1,1.3c-0.4,2.4-0.6,4.7-0.6,7.1
		c0,1.9,0.4,3.9,1,5.7l1.5-0.2c0-0.2,0-0.5,0-0.7c0-0.3,0-0.5,0.1-0.8c0.3-1.4,0.7-2.8,1.2-4.1l-0.9-0.6c-0.3,0.8-0.6,1.8-0.9,2.4
		c-0.6-2.6,0-6.4,0.5-8.7c0.1-0.4,0.2-0.9,0.4-1.3L219.3,89.5z M233,92.6c-0.9,0.2-1.9,0.3-2.8,0.4c0-1.1,0-2.1,0-2.5
		c0-0.4,0-0.7,0.1-1.1h-2.1c0.1,0.4,0.1,0.7,0.2,1.1c0,0.5,0.1,1.5,0.1,2.6c-0.7,0-1.5,0-2.1,0c-0.9,0-1.9-0.1-2.8-0.2v1.8
		c0.8,0.1,2,0.1,2.8,0.1c0.7,0,1.4,0,2.1,0v0.6c0,3.3-0.2,5.1-1.9,6.6c-0.5,0.5-1.2,1-1.9,1.3l1.7,1.3c3.7-2.3,3.8-5,3.8-9.2v-0.7
		c1-0.1,2-0.2,2.8-0.3V92.6z M247.7,94.1l-1.1,0.5c0.6,0.8,1,1.6,1.4,2.5l1.1-0.5C248.8,95.8,248.3,94.9,247.7,94.1z M249.7,93.4
		l-1.1,0.5c0.6,0.8,1.1,1.6,1.5,2.5l1.1-0.5C250.8,95,250.3,94.1,249.7,93.4L249.7,93.4z M235.9,91.5l0.2,2c2-0.4,6.4-0.9,7.9-1
		c-1.9,1.3-3,3.5-3,5.8c0,3.9,3.7,5.8,7.1,6l0.6-1.9c-2.9-0.1-6-1.2-6-4.5c0.1-2.4,1.6-4.5,3.9-5.3c1.1-0.2,2.3-0.3,3.5-0.3l0-1.8
		c-1.2,0-3,0.1-4.9,0.3c-3.3,0.3-6.5,0.6-7.8,0.7C237.2,91.4,236.6,91.4,235.9,91.5L235.9,91.5z M264.5,96.2
		c1.1,0.9,1.8,2.2,1.9,3.6c0,1.7-1.6,2.8-4.2,2.8c-1.9,0-2.8-1-2.8-2.6c0-0.4,0-0.9,0.1-1.5h0.7c1.1,0,2.2-0.1,3.3-0.2l0.1-1.7
		c-1.2,0.2-2.4,0.2-3.7,0.2h-0.3c0.1-0.9,0.2-1.9,0.4-2.8h0c1.2,0,2.4-0.1,3.6-0.2l0.1-1.7c-1.1,0.2-2.3,0.3-3.5,0.2l0.2-1.6
		c0.1-0.4,0.1-0.8,0.3-1.4l-2-0.1c0,0.5,0,0.9,0,1.4c0,0.4-0.1,1-0.2,1.7c-1.3-0.1-2.6-0.3-3.8-0.7l-0.1,1.7
		c1.2,0.3,2.4,0.5,3.7,0.6c-0.1,0.9-0.3,1.9-0.4,2.9c-1.2-0.1-2.5-0.3-3.7-0.7l-0.1,1.7c1.2,0.3,2.4,0.5,3.6,0.6
		c-0.1,0.8-0.1,1.5-0.1,1.9c0,2.9,2,4.1,4.6,4.1c3.7,0,6.1-1.8,6.1-4.4c0-1.6-0.7-3.1-1.8-4.2L264.5,96.2z"/>
	<g transform="translate(150.047 -3753.188)">
		<g transform="translate(312.432 3812)">
			<path class="st1" d="M20.7,47.4c-3.6,0-7.1-0.7-10.4-2.1c-3.2-1.3-6-3.3-8.5-5.7c-2.5-2.5-4.4-5.3-5.7-8.5
				C-5.3,27.8-6,24.3-6,20.7s0.7-7.1,2.1-10.4c1.3-3.2,3.3-6,5.7-8.5c2.5-2.5,5.3-4.4,8.5-5.7C13.6-5.3,17.1-6,20.7-6
				s7.1,0.7,10.4,2.1c3.2,1.3,6,3.3,8.5,5.7c2.5,2.5,4.4,5.3,5.7,8.5c1.4,3.3,2.1,6.8,2.1,10.4s-0.7,7.1-2.1,10.4
				c-1.3,3.2-3.3,6-5.7,8.5c-2.5,2.5-5.3,4.4-8.5,5.7C27.8,46.7,24.3,47.4,20.7,47.4z"/>
			<path class="st2" d="M20.7-4.5c-3.4,0-6.7,0.7-9.8,2c-3,1.3-5.7,3.1-8,5.4c-2.3,2.3-4.1,5-5.4,8c-1.3,3.1-2,6.4-2,9.8
				s0.7,6.7,2,9.8c1.3,3,3.1,5.7,5.4,8c2.3,2.3,5,4.1,8,5.4c3.1,1.3,6.4,2,9.8,2s6.7-0.7,9.8-2c3-1.3,5.7-3.1,8-5.4
				c2.3-2.3,4.1-5,5.4-8c1.3-3.1,2-6.4,2-9.8s-0.7-6.7-2-9.8c-1.3-3-3.1-5.7-5.4-8c-2.3-2.3-5-4.1-8-5.4C27.4-3.8,24.1-4.5,20.7-4.5
				 M20.7-7.5c15.6,0,28.2,12.6,28.2,28.2S36.3,48.9,20.7,48.9S-7.5,36.3-7.5,20.7S5.1-7.5,20.7-7.5z"/>
		</g>
		<path class="st1" d="M357.4,3856.3l-13.8-4.8l9.9-9.3L357.4,3856.3z"/>
		<path class="st2" d="M317.1,3831.9c-0.2,0-0.4,0-0.5-0.1c-0.1-0.1-0.2-0.3-0.2-0.5l0-0.3c0-0.2,0-0.4,0.1-0.5
			c0.1-0.1,0.3-0.2,0.5-0.2c1.2-0.1,2.7-0.3,4.3-0.5c0.1,0,0.1,0,0.1-0.1c0-0.1-0.1-0.3-0.1-0.6c0-0.2,0-0.4,0.1-0.5
			c0.1-0.1,0.3-0.2,0.4-0.3l0.5-0.1c0.2,0,0.4,0,0.5,0.1c0.1,0.1,0.2,0.3,0.3,0.4c0,0.3,0.1,0.5,0.1,0.6c0,0.1,0.1,0.1,0.1,0.1
			l2.1-0.3c0.2,0,0.4,0,0.5,0.1c0.1,0.1,0.2,0.3,0.3,0.4l0,0.3c0,0.2,0,0.4-0.1,0.5c-0.1,0.1-0.3,0.2-0.4,0.3l-1.9,0.3
			c-0.1,0-0.1,0-0.1,0.1c0.3,0.8,0.7,1.5,1.2,2.1c0.1,0.1,0.1,0.3,0.1,0.5c0,0.2-0.1,0.3-0.3,0.4l-0.5,0.3c-0.4,0.2-0.8,0.3-1.2,0.1
			c-0.6-0.2-1.3-0.3-2-0.2c-0.4,0-0.8,0.2-1.2,0.4c-0.3,0.2-0.4,0.6-0.3,0.9c0.1,1,1,1.4,2.8,1.2c0.8-0.1,1.5-0.2,2.3-0.5
			c0.2-0.1,0.4,0,0.5,0.1c0.2,0.1,0.3,0.2,0.3,0.4l0.1,0.3c0.1,0.2,0,0.4-0.1,0.5c-0.1,0.2-0.2,0.3-0.4,0.3
			c-0.8,0.2-1.7,0.4-2.6,0.5c-1.2,0.2-2.4,0-3.5-0.5c-0.8-0.5-1.3-1.3-1.4-2.2c-0.1-0.8,0.2-1.5,0.7-2c0.7-0.6,1.5-1,2.5-1
			c0.6-0.1,1.2,0,1.8,0.1l0,0l0,0c-0.3-0.4-0.5-0.9-0.6-1.4c0-0.1-0.1-0.1-0.1-0.1C319.6,3831.6,318.1,3831.8,317.1,3831.9z
			 M329.8,3834.2c-0.2,0-0.3-0.1-0.5-0.3c-0.1-0.1-0.2-0.3-0.2-0.5c0.1-0.8,0.1-1.6,0.1-2.4c0-0.2,0.1-0.4,0.2-0.5
			c0.1-0.1,0.3-0.2,0.5-0.2l0.5,0c0.2,0,0.3,0.1,0.5,0.2c0.1,0.1,0.2,0.3,0.2,0.5c0,0.5,0,1,0,1.4l0,0l0,0c0.9-0.8,2-1.3,3.2-1.4
			c0.9-0.2,1.9,0,2.8,0.4c0.7,0.5,1.1,1.3,1.1,2.1c0.1,1-0.3,2-1.1,2.6c-1.1,0.8-2.4,1.3-3.8,1.3c-0.7,0.1-1.5,0.1-2.2,0.1
			c-0.2,0-0.4-0.1-0.5-0.2c-0.1-0.1-0.2-0.3-0.2-0.5l0-0.3c0-0.2,0.1-0.4,0.2-0.5c0.1-0.1,0.3-0.2,0.5-0.2c0.8,0,1.5-0.1,2.1-0.1
			c0.8,0,1.5-0.3,2.2-0.7c0.5-0.3,0.7-0.8,0.7-1.4c-0.1-0.9-0.7-1.2-1.8-1.1c-1,0.2-2,0.7-2.9,1.3c-0.3,0.3-0.8,0.4-1.2,0.3
			L329.8,3834.2z M330.9,3827.8c1.6,0,3.1-0.1,4.5-0.2c0.2,0,0.4,0,0.5,0.1c0.1,0.1,0.2,0.3,0.2,0.5l0,0.3c0,0.2,0,0.4-0.1,0.5
			c-0.1,0.1-0.3,0.2-0.5,0.2c-1.6,0.1-3.2,0.2-4.7,0.2c-0.2,0-0.4-0.1-0.5-0.2c-0.1-0.1-0.2-0.3-0.2-0.5l0-0.3
			c0-0.2,0.1-0.4,0.2-0.5C330.6,3827.9,330.8,3827.8,330.9,3827.8L330.9,3827.8z M348.9,3826.6c0.2,0,0.4,0,0.5,0.1
			c0.1,0.1,0.2,0.3,0.2,0.5l0,0.3c0,0.2,0,0.4-0.1,0.5c-0.1,0.1-0.3,0.2-0.5,0.2l-3.8,0.4c-0.2,0-0.4,0-0.5-0.1
			c-0.1-0.1-0.2-0.3-0.2-0.5l0-0.3c0-0.2,0-0.4,0.1-0.5c0.1-0.1,0.3-0.2,0.5-0.2L348.9,3826.6z M342.5,3836.4c-0.2,0-0.4,0-0.5-0.1
			c-0.2-0.1-0.3-0.2-0.3-0.4c-0.5-1.4-0.7-2.8-0.9-4.3c-0.2-1.5-0.2-2.9,0-4.4c0-0.2,0.1-0.4,0.3-0.5c0.1-0.1,0.3-0.2,0.5-0.2l0.6,0
			c0.2,0,0.3,0.1,0.4,0.2c0.1,0.1,0.2,0.3,0.2,0.5c-0.1,1.4-0.1,2.8,0,4.1c0.1,1.4,0.4,2.7,0.8,4.1c0.1,0.2,0,0.4,0,0.5
			c-0.1,0.2-0.2,0.3-0.4,0.3L342.5,3836.4z M347.9,3835.4c-0.9,0.2-1.9,0-2.8-0.4c-0.7-0.3-1.1-1-1.2-1.7c0-0.4,0-0.7,0.2-1
			c0.2-0.4,0.4-0.8,0.6-1.2c0.1-0.2,0.3-0.3,0.4-0.3c0.2,0,0.4,0,0.5,0.1l0.3,0.2c0.2,0.1,0.3,0.2,0.3,0.4c0,0.2,0,0.4-0.1,0.5
			c-0.2,0.3-0.4,0.6-0.4,1c0,0.3,0.2,0.5,0.5,0.6c0.4,0.1,0.9,0.1,1.4,0.1c0.7-0.1,1.3-0.2,1.9-0.4c0.2-0.1,0.4,0,0.5,0.1
			c0.2,0.1,0.3,0.2,0.3,0.4l0.1,0.3c0.1,0.2,0,0.4-0.1,0.5c-0.1,0.2-0.2,0.3-0.4,0.3C349.4,3835.2,348.7,3835.3,347.9,3835.4z"/>
	</g>
	<g>
		<path class="st8" d="M-7.5-7.5h800v200h-800V-7.5z"/>
		<path class="st2" d="M-2.5-2.5v190h790v-190H-2.5 M-7.5-7.5h800v200h-800V-7.5z"/>
	</g>
	<g>
		<defs>
			<rect id="SVGID_3_" x="74.2" y="157.3" width="240.8" height="6.1"/>
		</defs>
		<clipPath id="SVGID_4_">
			<use xlink:href="#SVGID_3_"  style="overflow:visible;"/>
		</clipPath>
		<g transform="translate(81.697 164.761)" class="st9">
			<g transform="translate(-15 -247.999)">
				<path class="st3" d="M22.9,241.4c-1.3,0-2.6,0.4-3.6,1.2c-2.4,1.8-5.7,1.8-8.1,0c-1-0.8-2.3-1.3-3.6-1.2c0,0,0-0.9,0-0.9
					c1.5,0,2.9,0.5,4,1.4c2.1,1.7,5.1,1.7,7.3,0c1.1-0.9,2.6-1.4,4-1.4L22.9,241.4z"/>
			</g>
			<g transform="translate(0 -247.999)">
				<path class="st3" d="M22.9,241.4c-1.3,0-2.6,0.4-3.6,1.2c-2.4,1.8-5.7,1.8-8.1,0c-1-0.8-2.3-1.3-3.6-1.2c0,0,0-0.9,0-0.9
					c1.5,0,2.9,0.5,4,1.4c2.1,1.7,5.1,1.7,7.3,0c1.1-0.9,2.6-1.4,4-1.4L22.9,241.4z"/>
			</g>
			<g transform="translate(15 -247.999)">
				<path class="st3" d="M22.9,241.4c-1.3,0-2.6,0.4-3.6,1.2c-2.4,1.8-5.7,1.8-8.1,0c-1-0.8-2.3-1.3-3.6-1.2c0,0,0-0.9,0-0.9
					c1.5,0,2.9,0.5,4,1.4c2.1,1.7,5.1,1.7,7.3,0c1.1-0.9,2.6-1.4,4-1.4L22.9,241.4z"/>
			</g>
			<g transform="translate(30 -247.999)">
				<path class="st3" d="M22.9,241.4c-1.3,0-2.6,0.4-3.6,1.2c-2.4,1.8-5.7,1.8-8.1,0c-1-0.8-2.3-1.3-3.6-1.2c0,0,0-0.9,0-0.9
					c1.5,0,2.9,0.5,4,1.4c2.1,1.7,5.1,1.7,7.3,0c1.1-0.9,2.6-1.4,4-1.4L22.9,241.4z"/>
			</g>
			<g transform="translate(45 -247.999)">
				<path class="st3" d="M22.9,241.4c-1.3,0-2.6,0.4-3.6,1.2c-2.4,1.8-5.7,1.8-8.1,0c-1-0.8-2.3-1.3-3.6-1.2c0,0,0-0.9,0-0.9
					c1.5,0,2.9,0.5,4,1.4c2.1,1.7,5.1,1.7,7.3,0c1.1-0.9,2.6-1.4,4-1.4L22.9,241.4z"/>
			</g>
			<g transform="translate(60 -247.999)">
				<path class="st3" d="M22.9,241.4c-1.3,0-2.6,0.4-3.6,1.2c-2.4,1.8-5.7,1.8-8.1,0c-1-0.8-2.3-1.3-3.6-1.2c0,0,0-0.9,0-0.9
					c1.5,0,2.9,0.5,4,1.4c2.1,1.7,5.1,1.7,7.3,0c1.1-0.9,2.6-1.4,4-1.4L22.9,241.4z"/>
			</g>
			<g transform="translate(75 -247.999)">
				<path class="st3" d="M22.9,241.4c-1.3,0-2.6,0.4-3.6,1.2c-2.4,1.8-5.7,1.8-8.1,0c-1-0.8-2.3-1.3-3.6-1.2c0,0,0-0.9,0-0.9
					c1.5,0,2.9,0.5,4,1.4c2.1,1.7,5.1,1.7,7.3,0c1.1-0.9,2.6-1.4,4-1.4L22.9,241.4z"/>
			</g>
			<g transform="translate(90 -247.999)">
				<path class="st3" d="M22.9,241.4c-1.3,0-2.6,0.4-3.6,1.2c-2.4,1.8-5.7,1.8-8.1,0c-1-0.8-2.3-1.3-3.6-1.2c0,0,0-0.9,0-0.9
					c1.5,0,2.9,0.5,4,1.4c2.1,1.7,5.1,1.7,7.3,0c1.1-0.9,2.6-1.4,4-1.4L22.9,241.4z"/>
			</g>
			<g transform="translate(105 -247.999)">
				<path class="st3" d="M22.9,241.4c-1.3,0-2.6,0.4-3.6,1.2c-2.4,1.8-5.7,1.8-8.1,0c-1-0.8-2.3-1.3-3.6-1.2c0,0,0-0.9,0-0.9
					c1.5,0,2.9,0.5,4,1.4c2.1,1.7,5.1,1.7,7.3,0c1.1-0.9,2.6-1.4,4-1.4L22.9,241.4z"/>
			</g>
			<g transform="translate(120 -247.999)">
				<path class="st3" d="M22.9,241.4c-1.3,0-2.6,0.4-3.6,1.2c-2.4,1.8-5.7,1.8-8.1,0c-1-0.8-2.3-1.3-3.6-1.2c0,0,0-0.9,0-0.9
					c1.5,0,2.9,0.5,4,1.4c2.1,1.7,5.1,1.7,7.3,0c1.1-0.9,2.6-1.4,4-1.4L22.9,241.4z"/>
			</g>
			<g transform="translate(135 -247.999)">
				<path class="st3" d="M22.9,241.4c-1.3,0-2.6,0.4-3.6,1.2c-2.4,1.8-5.7,1.8-8.1,0c-1-0.8-2.3-1.3-3.6-1.2c0,0,0-0.9,0-0.9
					c1.5,0,2.9,0.5,4,1.4c2.1,1.7,5.1,1.7,7.3,0c1.1-0.9,2.6-1.4,4-1.4L22.9,241.4z"/>
			</g>
			<g transform="translate(150 -247.999)">
				<path class="st3" d="M22.9,241.4c-1.3,0-2.6,0.4-3.6,1.2c-2.4,1.8-5.7,1.8-8.1,0c-1-0.8-2.3-1.3-3.6-1.2c0,0,0-0.9,0-0.9
					c1.5,0,2.9,0.5,4,1.4c2.1,1.7,5.1,1.7,7.3,0c1.1-0.9,2.6-1.4,4-1.4L22.9,241.4z"/>
			</g>
			<g transform="translate(165 -247.999)">
				<path class="st3" d="M22.9,241.4c-1.3,0-2.6,0.4-3.6,1.2c-2.4,1.8-5.7,1.8-8.1,0c-1-0.8-2.3-1.3-3.6-1.2c0,0,0-0.9,0-0.9
					c1.5,0,2.9,0.5,4,1.4c2.1,1.7,5.1,1.7,7.3,0c1.1-0.9,2.6-1.4,4-1.4L22.9,241.4z"/>
			</g>
			<g transform="translate(180 -247.999)">
				<path class="st3" d="M22.9,241.4c-1.3,0-2.6,0.4-3.6,1.2c-2.4,1.8-5.7,1.8-8.1,0c-1-0.8-2.3-1.3-3.6-1.2c0,0,0-0.9,0-0.9
					c1.5,0,2.9,0.5,4,1.4c2.1,1.7,5.1,1.7,7.3,0c1.1-0.9,2.6-1.4,4-1.4L22.9,241.4z"/>
			</g>
			<g transform="translate(195 -247.999)">
				<path class="st3" d="M22.9,241.4c-1.3,0-2.6,0.4-3.6,1.2c-2.4,1.8-5.7,1.8-8.1,0c-1-0.8-2.3-1.3-3.6-1.2c0,0,0-0.9,0-0.9
					c1.5,0,2.9,0.5,4,1.4c2.1,1.7,5.1,1.7,7.3,0c1.1-0.9,2.6-1.4,4-1.4L22.9,241.4z"/>
			</g>
			<g transform="translate(210 -247.999)">
				<path class="st3" d="M22.9,241.4c-1.3,0-2.6,0.4-3.6,1.2c-2.4,1.8-5.7,1.8-8.1,0c-1-0.8-2.3-1.3-3.6-1.2c0,0,0-0.9,0-0.9
					c1.5,0,2.9,0.5,4,1.4c2.1,1.7,5.1,1.7,7.3,0c1.1-0.9,2.6-1.4,4-1.4L22.9,241.4z"/>
			</g>
			<g transform="translate(225 -247.999)">
				<path class="st3" d="M22.9,241.4c-1.3,0-2.6,0.4-3.6,1.2c-2.4,1.8-5.7,1.8-8.1,0c-1-0.8-2.3-1.3-3.6-1.2c0,0,0-0.9,0-0.9
					c1.5,0,2.9,0.5,4,1.4c2.1,1.7,5.1,1.7,7.3,0c1.1-0.9,2.6-1.4,4-1.4L22.9,241.4z"/>
			</g>
		</g>
	</g>
</g>
</svg>
