<svg xmlns="http://www.w3.org/2000/svg" xmlns:xlink="http://www.w3.org/1999/xlink" width="450" height="90" viewBox="0 0 450 90"><defs><clipPath id="a"><rect width="348" height="80" transform="translate(138 13719)" fill="#fff" stroke="#00aac7" stroke-width="3"/></clipPath><clipPath id="b"><rect width="353" height="90" transform="translate(507 13714)" fill="#fff" stroke="#00aac7" stroke-width="3"/></clipPath><clipPath id="c"><circle cx="56" cy="56" r="56" transform="translate(513 13703)" fill="#00aac7"/></clipPath><clipPath id="d"><rect width="116.83" height="70.335" fill="none"/></clipPath></defs><g transform="translate(-133 -13714)"><rect width="450" height="90" transform="translate(133 13714)" fill="#afafaf"/><g clip-path="url(#a)"><g transform="translate(-401)" clip-path="url(#b)"><circle cx="56" cy="56" r="56" transform="translate(513 13703)" fill="#007083"/></g><g transform="translate(-401)" clip-path="url(#c)"><g transform="translate(512.639 13723.742)"><g transform="translate(-4)" clip-path="url(#d)"><path d="M648.734,409.046c-1,.53-1.17,1.275-2.386,1.225a12.316,12.316,0,0,1-3.428-1.094,22.362,22.362,0,0,1-6.5-3.838,16.4,16.4,0,0,1-3.736-3.685c-1.243-1.926.137-3.486,1.209-5.224.705-1.143,1.356-2.528,1.95-3.711a9.878,9.878,0,0,1,3.5,1.588,17.271,17.271,0,0,0,2.623,1.367,14,14,0,0,0,2.228.864,26.476,26.476,0,0,0,2.781-.209c.547,1.881,7.247,2.1,7.771,3.993.346,1.251.8,2.451,1.255,3.665.18.479.93,1.8.835,2.317-.139.759-7.433,2.446-7.991,2.691-.036.016-.071.033-.106.051" transform="translate(-563.685 -356.551)" fill="#f9b686"/><path d="M232.277,400.932a2.733,2.733,0,0,1-1.994,1.03c-.225.007-2.258-.369-2.255-.33a2.769,2.769,0,0,0,.445,1.411,1.9,1.9,0,0,1,.175,1.854c-.532.992-.957,1.72-2.174,1.894a3.167,3.167,0,0,1-1.647-.24c-.209-.082-1.368-.58-1.374-.758a13.616,13.616,0,0,1,.05,1.59c-.1.96-1.837,1.814-2.7,1.7-.6-.074-1.18-.759-1.725-.687a2.738,2.738,0,0,1-.6,1.956,3.8,3.8,0,0,1-2.087.381,4.764,4.764,0,0,1-2.7-1.264,9.464,9.464,0,0,0-2.044-1.085c-1.458-.76-2.95-1.427-4.444-2.129-.551-.259-1.065-.632-1.6-.944a4.74,4.74,0,0,0-.984-.443,5.811,5.811,0,0,1-1.93-.8,28.405,28.405,0,0,1-4.592-3.535,9.043,9.043,0,0,0-4.079-2.062c-1.019-.219-1.994-.564-3.005-.845a42.785,42.785,0,0,0-5.027-1.106c-.919-.138-2.665-.063-3.367-.845-.767-.857.258-2.607.628-3.427.506-1.125,1.1-2.2,1.5-3.367.339-1,.563-2.024.954-3,.312-.776.742-2.149,1.642-2.447a6.8,6.8,0,0,1,3.686.431,24.944,24.944,0,0,0,4.822,1.048q3.217.552,6.436,1.123c1.761.314,3.466-.449,5.082-1.063a25.938,25.938,0,0,0,2.713-1.245,14.687,14.687,0,0,1,2.489-1.488,22.523,22.523,0,0,1,3.078-.545c1.483-.19,4.58-1.3,5.544.325.011.017.018.034.029.051.346.633,1.1,1.977.849,2.719-.206.6-1.175.9-1.616,1.37-.639.678-1.146,1.486-1.813,2.13-.024.026-.048.049-.072.072,0,.01.208.139.509.325l0,0c.779.48,2.193,1.326,2.327,1.4a20.027,20.027,0,0,1,2.943,1.72,34.832,34.832,0,0,0,3.133,2.239c.884.576,1.63,1.389,2.566,1.886a6.74,6.74,0,0,1,2.288,1.781,2.228,2.228,0,0,1,.373.719,2.808,2.808,0,0,1-.423,2.491" transform="translate(-148.992 -345.89)" fill="#f5a272"/><path d="M420.3,636.536a1.576,1.576,0,0,1-.708-.977,19.308,19.308,0,0,1-.816-2.316c-.249-1.219.571-1.8,1.739-1.435a3.391,3.391,0,0,1,2.392,3.446,1.785,1.785,0,0,1-2.451,1.352,1.308,1.308,0,0,1-.156-.07" transform="translate(-366.912 -576.851)" fill="#f9b686"/><path d="M470.583,639.86c1.6-.025,2.916,2.266,2.91,3.677-.009,2.206-2.272,3.689-3.971,1.965-.805-.817-.418-1.645-.153-2.623a6.307,6.307,0,0,0,.4-1.97c-.014-.665.01-1.036.815-1.049" transform="translate(-413.289 -584.372)" fill="#f9b686"/><path d="M521.465,679.682c-.827.517-1.526-.094-1.828-.878a2.294,2.294,0,0,1,.081-1.727,5.664,5.664,0,0,1,1.147-1.845,1.384,1.384,0,0,1,2.119.8,3.015,3.015,0,0,1-1.667,3.708Z" transform="translate(-459.808 -616.752)" fill="#f9b686"/><path d="M563.253,696.537c-.827.517-1.526-.093-1.828-.878a2.293,2.293,0,0,1,.08-1.727,5.674,5.674,0,0,1,1.147-1.845,1.384,1.384,0,0,1,2.118.8,3.015,3.015,0,0,1-1.667,3.708Z" transform="translate(-498.329 -632.289)" fill="#f9b686"/><path d="M507.041,395.246c-.639.678-1.146,1.486-1.813,2.13a5.75,5.75,0,0,0-.75-.714c-.159-.079-.712.066-.868.076-.629.038-1.263.049-1.89.062a10.859,10.859,0,0,0-1.914-.14c-.691.164-1.2,1.2-1.8,1.6-.842.551-2.464,1.274-3.49.985-.688-.19-1.58-.986-1.2-1.783.176-.365.64-.522.96-.738a13.063,13.063,0,0,0,1.572-1.272c.923-.868,1.546-2.667,2.9-2.823,1.114-.128,2.191-.1,3.3-.31a23.188,23.188,0,0,0,3.806-1.132,3.329,3.329,0,0,1,1.911-.081c.011.017.018.034.029.051.346.633,1.1,1.977.849,2.719-.206.6-1.175.9-1.616,1.37" transform="translate(-435.589 -354.97)" fill="#f9b686"/><path d="M816.211,412.91l-4.088,1.333s5.965,15.473,6.587,16.1,4.254-1.789,4.165-2.055-6.664-15.373-6.664-15.373" transform="translate(-729.554 -375.163)" fill="#a7dcf8"/><path d="M858.284,224.855l7.484,20.361,24.082-8.531-1.442-27.025Z" transform="translate(-772.107 -187.8)" fill="#545f64"/><path d="M251.526,416.8l3.878,1.32s-4.916,15.706-5.6,16.256-6.7-2.766-6.578-3.022,8.3-14.554,8.3-14.554" transform="translate(-205.123 -378.748)" fill="#a7dcf8"/><path d="M27.457,242.241l-2.216,6.65-3.826,11.478L0,252.638V227.845Z" transform="translate(19.087 -204.564)" fill="#28363e"/><path d="M516.733,404.857a.223.223,0,0,1-.174-.084l-.517-.646c-.364-.455-4.846-3.6-7.775-5.61l-5.522-3.2a.223.223,0,0,1-.053-.042l-.964-1.052a2.992,2.992,0,0,0-.49.062c-.1.019-.185.034-.243.037-.585.035-1.179.048-1.753.06l-.146,0a4.805,4.805,0,0,1-.824-.087,3.04,3.04,0,0,0-1.043-.059,2.338,2.338,0,0,0-.974.826,3.97,3.97,0,0,1-.751.742c-.757.5-2.5,1.345-3.674,1.014a2.2,2.2,0,0,1-1.337-1.1,1.146,1.146,0,0,1,0-1,1.662,1.662,0,0,1,.765-.666c.1-.055.191-.106.271-.16a12.8,12.8,0,0,0,1.545-1.25,6.836,6.836,0,0,0,.836-1.055c.586-.841,1.192-1.711,2.195-1.827.446-.051.89-.078,1.32-.1a15.392,15.392,0,0,0,1.969-.2,22.7,22.7,0,0,0,3.77-1.122,3.515,3.515,0,0,1,2.037-.089.223.223,0,1,1-.1.435,3.085,3.085,0,0,0-1.785.072,23.107,23.107,0,0,1-3.842,1.142,15.978,15.978,0,0,1-2.025.211c-.424.025-.862.052-1.3.1-.8.093-1.35.879-1.88,1.639a7.245,7.245,0,0,1-.9,1.126,13.235,13.235,0,0,1-1.6,1.294c-.1.065-.2.124-.3.181a1.327,1.327,0,0,0-.58.47.7.7,0,0,0,0,.62,1.772,1.772,0,0,0,1.051.85c.948.266,2.5-.426,3.309-.957a3.626,3.626,0,0,0,.656-.659,2.6,2.6,0,0,1,1.211-.97,3.312,3.312,0,0,1,1.216.053,4.539,4.539,0,0,0,.744.081l.146,0c.57-.012,1.159-.024,1.735-.059.032,0,.113-.017.191-.031a1.442,1.442,0,0,1,.789-.022.223.223,0,0,1,.065.049l.986,1.075,5.5,3.187.014.009c.751.515,7.356,5.051,7.878,5.7l.517.646a.223.223,0,0,1-.174.362" transform="translate(-432.959 -352.332)" fill="#914533"/><path d="M651.4,649.186a.223.223,0,0,1-.08-.015,5.469,5.469,0,0,1-1.733-1.284c-.156-.151-.3-.293-.452-.426s-.361-.287-.58-.446c-.676-.488-1.442-1.041-1.527-1.806a.223.223,0,0,1,.443-.049c.064.569.744,1.061,1.345,1.494.229.166.446.322.617.475.154.138.312.29.464.437a5.152,5.152,0,0,0,1.582,1.189.223.223,0,0,1-.08.431" transform="translate(-577.362 -589.075)" fill="#914533"/><path d="M615.416,695.434a.223.223,0,0,1-.108-.028,5.739,5.739,0,0,1-1.2-.939,17.936,17.936,0,0,0-1.86-1.554.223.223,0,1,1,.264-.36,18.354,18.354,0,0,1,1.9,1.588,5.312,5.312,0,0,0,1.111.874.223.223,0,0,1-.109.418" transform="translate(-545.219 -632.908)" fill="#914533"/><path d="M709.095,586.594a.223.223,0,0,1-.191-.107,8.008,8.008,0,0,0-1.684-1.507c-1.429-1.1-2.906-2.227-2.417-3.287a.223.223,0,0,1,.4.187c-.34.735,1.115,1.85,2.283,2.746a8.1,8.1,0,0,1,1.793,1.629.223.223,0,0,1-.19.339" transform="translate(-630.535 -530.633)" fill="#914533"/><path d="M643.261,541.3a.223.223,0,0,1-.122-.036c-.2-.129-.37-.264-.537-.394a1.818,1.818,0,0,0-1.651-.565.223.223,0,0,1-.086-.438,2.244,2.244,0,0,1,2.011.651c.16.125.326.253.508.373a.223.223,0,0,1-.122.409" transform="translate(-571.516 -492.157)" fill="#914533"/><path d="M606.19,611.406a.222.222,0,0,1-.167-.075,2.669,2.669,0,0,0-1.6-.795.223.223,0,1,1,.061-.442,3.083,3.083,0,0,1,1.871.94.223.223,0,0,1-.166.371" transform="translate(-537.913 -556.932)" fill="#914533"/><path d="M697.248,594.814l-.032,0-.867-.124a.223.223,0,0,1,.063-.442l.867.124a.223.223,0,0,1-.031.444" transform="translate(-622.653 -542.323)" fill="#914533"/><path d="M640.192,651.87l-.032,0-.867-.124a.223.223,0,1,1,.063-.442l.867.124a.223.223,0,0,1-.031.444" transform="translate(-570.057 -594.919)" fill="#914533"/><path d="M420.122,633.361a.223.223,0,0,1-.2-.321,1.634,1.634,0,0,0,.141-.441,3.156,3.156,0,0,0-2.238-3.2,1.275,1.275,0,0,0-1.235.119,1.09,1.09,0,0,0-.22,1.059,5.311,5.311,0,0,0,.168.61.223.223,0,1,1-.423.141,5.738,5.738,0,0,1-.182-.662,1.509,1.509,0,0,1,.358-1.479,1.7,1.7,0,0,1,1.666-.214,3.624,3.624,0,0,1,2.546,3.7,2.081,2.081,0,0,1-.18.562.223.223,0,0,1-.2.125" transform="translate(-364.288 -574.234)" fill="#914533"/><path d="M471.962,643.09a.223.223,0,0,1-.165-.373,2.7,2.7,0,0,0,.673-1.811,4.4,4.4,0,0,0-1.255-2.775,2.07,2.07,0,0,0-1.428-.678.729.729,0,0,0-.493.126c-.107.111-.11.358-.1.7a4.692,4.692,0,0,1-.272,1.568c-.045.148-.091.3-.135.465-.033.121-.067.24-.1.356-.025.086-.05.171-.073.255a.223.223,0,1,1-.43-.12c.024-.086.049-.172.075-.26.033-.114.067-.23.1-.348.046-.171.093-.327.139-.478a4.276,4.276,0,0,0,.253-1.43,1.371,1.371,0,0,1,.227-1.014,1.086,1.086,0,0,1,.807-.263,2.458,2.458,0,0,1,1.748.807,4.817,4.817,0,0,1,1.388,3.095,3.148,3.148,0,0,1-.789,2.109.223.223,0,0,1-.165.073" transform="translate(-412.489 -581.742)" fill="#914533"/><path d="M519.622,676.759a.223.223,0,0,1-.16-.379,2.943,2.943,0,0,0,.7-2.907,1.347,1.347,0,0,0-.779-.839,1.149,1.149,0,0,0-1.012.158,5.657,5.657,0,0,0-1.058,1.739,2.48,2.48,0,0,0-.2.848.223.223,0,1,1-.446-.016,2.922,2.922,0,0,1,.229-1,5.791,5.791,0,0,1,1.237-1.95,1.578,1.578,0,0,1,1.394-.2,1.8,1.8,0,0,1,1.051,1.111,3.4,3.4,0,0,1-.8,3.368.222.222,0,0,1-.16.067" transform="translate(-457.197 -614.122)" fill="#914533"/><path d="M560.932,693.987a.223.223,0,0,1-.116-.414,2.924,2.924,0,0,0,1.117-3.244,1.347,1.347,0,0,0-.779-.839,1.148,1.148,0,0,0-1.012.158,5.68,5.68,0,0,0-1.058,1.739,2.384,2.384,0,0,0-.2.99.223.223,0,0,1-.446.018,2.824,2.824,0,0,1,.229-1.176,5.812,5.812,0,0,1,1.237-1.951,1.578,1.578,0,0,1,1.395-.2,1.8,1.8,0,0,1,1.05,1.11,3.355,3.355,0,0,1-1.306,3.774.222.222,0,0,1-.116.033" transform="translate(-495.702 -629.661)" fill="#914533"/><path d="M124.907,548.93a1.526,1.526,0,0,1-2.044.5c-.868-.357-1.361-1.16-1.1-1.793a1.525,1.525,0,0,1,2.044-.5c.869.357,1.361,1.16,1.1,1.793" transform="translate(-93.093 -498.742)" fill="#647177"/><path d="M200.984,577.459a1.526,1.526,0,0,1-2.044.5c-.868-.357-1.361-1.159-1.1-1.793a1.525,1.525,0,0,1,2.044-.5c.869.357,1.361,1.16,1.1,1.793" transform="translate(-163.224 -525.04)" fill="#647177"/><path d="M582.761,22.844l.165-.5.127-.5.217-.468.155-.491.12-.507.25-.453.1-.508.242-.46.233-.459.106-.506.2-.472.1-.507.254-.453.112-.508.211-.472.19-.477.118-.5.234-.463.13-.5.217-.467.207-.474.121-.5.173-.482.213-.474.087-.514.216-.475.251-.455.065-.521.213-.472.164-.488.181-.484.189-.477.2-.477.2-.477.112-.5.174-.486.14-.5.165-.491.243-.46.125-.5.218-.47.194-.481.122-.508.249-.5-.555-.063-.518-.038-.513-.085-.505-.1-.5-.107-.522-.024-.482-.224L586.369.77l-.51-.084L585.34.656l-.493-.164-.525,0-.509-.1L583.3.327,582.791.22,582.286.1l-.545-.1-.094.55.108.525-.143.509.055.524-.145.508-.038.52.034.523-.157.5.041.522-.144.5-.007.52-.049.515.03.519-.1.513-.1.511.036.521.005.523-.084.514.008.517-.072.515-.1.51-.028.521-.04.515-.043.52-.065.515,0,.519-.051.52-.049.515-.107.511-.013.522-.057.515-.077.516.056.521-.061.521-.042.518-.116.511,0,.52-.041.52-.074.513.07.526-.068.522-.068.514-.048.52-.158.508,0,.552.52-.09.494-.072.477-.19.515.042.492-.107Z" transform="translate(-515.346 5.47)" fill="#ffdd7f"/><path d="M738.85,100.289l.408-.31.318-.409.447-.27.335-.4.357-.369.341-.39.439-.284.332-.4.378-.343.379-.346.39-.334.378-.347.354-.375.341-.39.433-.289.382-.345.36-.368.36-.367.391-.334.35-.378.432-.29.352-.381.367-.361.324-.406.377-.354.415-.312.354-.376.38-.35.394-.33.348-.385.371-.356.348-.379.414-.309.373-.358.4-.332.323-.407.388-.343.412-.316.382-.349.366-.36.366-.364.373-.363.412-.322.389-.388-.446-.314-.435-.282-.4-.324-.428-.291-.382-.348-.482-.212-.357-.382-.385-.351-.43-.289-.441-.272-.364-.372-.413-.324-.5-.18-.361-.379-.4-.339-.46-.253-.415-.309-.306.417-.218.472-.3.426-.23.464-.314.418-.247.457-.314.412-.272.441-.233.463-.258.448-.284.432-.306.417-.215.476-.325.405-.3.426-.239.464-.194.49-.345.4-.284.431-.249.454-.274.441-.294.427-.3.427-.28.438-.213.476-.286.435-.3.427-.308.422-.2.484-.284.435-.316.414-.32.419-.137.522-.346.4-.226.47-.36.386-.242.463-.253.456-.264.446-.234.472-.335.4-.209.483-.337.4-.3.43-.247.473.5.1.439.269.519.013.464.2.478.153Z" transform="translate(-659.361 -67.846)" fill="#ffdd7f"/><path d="M281.7,55.318l-.183-.491-.163-.484-.142-.5-.164-.488-.2-.474-.2-.475-.153-.491-.172-.486-.132-.495-.269-.449-.045-.527-.209-.474-.215-.467-.235-.462-.108-.509-.195-.478-.072-.517-.225-.466-.13-.5-.183-.482-.145-.5-.264-.449-.119-.5-.184-.484-.208-.473-.111-.507-.2-.474-.14-.5-.2-.473-.188-.483-.144-.5-.156-.487-.2-.471-.229-.469-.092-.514-.214-.469-.21-.475-.118-.507-.171-.488-.148-.5-.142-.5-.209-.474-.06-.529-.271-.411-.439.187-.431.288-.463.23-.439.266-.415.315-.5.166-.463.227-.436.28-.406.328-.489.186-.472.218-.419.309-.439.275-.492.176-.443.271-.458.246-.45.3.284.456.317.406.351.383.309.419.2.486.318.413.238.463.279.44.378.365.251.456.247.454.308.417.381.368.2.488.324.409.286.433.32.41.251.458.307.415.281.438.364.376.28.44.264.448.23.467.293.433.355.383.23.472.329.4.274.442.317.41.28.441.282.434.345.395.221.473.349.392.269.446.241.466.387.363.316.418.235.468.268.444.32.415.274.445.307.425.295.438.266-.445.44-.272.222-.473.439-.281.292-.415Z" transform="translate(-226.608 -25.856)" fill="#ffdd7f"/><path d="M334.093,192.385c-1.024.5-1.327.913-1.7,2.291-.375-1.378-.678-1.787-1.7-2.291,1.023-.5,1.327-.913,1.7-2.291.374,1.378.678,1.787,1.7,2.291" transform="translate(-285.753 -169.764)" fill="#ffc449"/><path d="M285.463,103.781c-1.746.861-2.265,1.559-2.9,3.911-.639-2.352-1.158-3.05-2.9-3.911,1.747-.861,2.265-1.558,2.9-3.91.639,2.352,1.158,3.049,2.9,3.91" transform="translate(-238.707 -86.593)" fill="#ffc449"/><path d="M817.859,268.539c-1.094.125-1.5.4-2.292,1.528a2.689,2.689,0,0,0-.8-2.636c1.094-.125,1.5-.4,2.292-1.528a2.689,2.689,0,0,0,.8,2.636" transform="translate(-731.991 -239.647)" fill="#ffc449"/></g></g></g></g><path d="M5.46-9.82H17.94v-1.92h-5.2v-5.02H10.76v5.02H5.46V-16.3H3.52v6.64c0,3.4-.28,7.08-2.76,9.82A7.217,7.217,0,0,1,2.2,1.64,11.747,11.747,0,0,0,5.16-5h8V1.58H15.2V-6.94H5.38c.06-.9.08-1.82.08-2.72ZM25.7-16.66A21.642,21.642,0,0,1,20.76-8.8a12.709,12.709,0,0,1,1.12,1.9,18.228,18.228,0,0,0,1.76-2.06V1.54h1.88v-13.4a31.361,31.361,0,0,0,2.02-4.22Zm13.4,4.24H36.72v-4.14H34.8v4.14H26.98v1.86H34.8V-.8c0,.44-.18.58-.64.6-.48.02-2.14.04-3.76-.04a7.6,7.6,0,0,1,.72,1.86,15.047,15.047,0,0,0,4.42-.32c.84-.28,1.18-.8,1.18-2.1v-9.76H39.1Zm-6.54,8.4c-.6-1.2-1.9-3.22-2.86-4.72l-1.62.76a49.764,49.764,0,0,1,2.74,4.9Zm10.5-11.56a14.179,14.179,0,0,1-.12,1.48,54.317,54.317,0,0,0-.7,7.92A21.878,21.878,0,0,0,43.32.16l1.72-.2c0-.24-.04-.54-.04-.74a3.752,3.752,0,0,1,.1-.9,46.784,46.784,0,0,1,1.32-4.58l-1.04-.66c-.34.88-.72,1.96-1,2.7-.64-2.9.04-7.14.6-9.7.1-.4.26-1.02.4-1.44Zm15.3,3.52a28.491,28.491,0,0,1-3.1.42c-.02-1.18-.04-2.34-.02-2.78a11.751,11.751,0,0,1,.08-1.24h-2.3a9.472,9.472,0,0,1,.2,1.24c.04.52.08,1.7.1,2.9-.8.02-1.62.04-2.38.04a21.635,21.635,0,0,1-3.1-.2v2c.92.06,2.22.12,3.14.12.78,0,1.58-.02,2.38-.04v.62c0,3.62-.2,5.64-2.06,7.36a7.017,7.017,0,0,1-2.1,1.4l1.84,1.44c4.08-2.5,4.24-5.58,4.24-10.18V-9.7c1.16-.08,2.22-.18,3.08-.3Zm4.76-.02H76.86V-9.2h1.78v-4.5h-3.5a20.718,20.718,0,0,0,1.9-2.36l-1.94-.62a18.653,18.653,0,0,1-1.72,2.64l.94.34H70.9v-3.1H69.02v3.1H65.84l.74-.34a11.954,11.954,0,0,0-1.72-2.56l-1.66.66a13.832,13.832,0,0,1,1.46,2.24H61.42v4.5h1.7Zm3.12,2.82h7.48v1.9H66.24ZM70.9-.58V-2.6h6.3V-4.22H70.9V-5.9h4.66v-4.82H64.52V-5.9h4.5v1.68H63.1V-2.6h5.92V-.58H61.34V1.06H78.72V-.58ZM12.74,12.18a18.661,18.661,0,0,1-.88,1.9H7.64l.58-.12a8.414,8.414,0,0,0-.86-1.78Zm6.02,8.76V19.38H10.88V18.16h6.14v-1.4H10.88v-1.2h7.08V14.08H13.72c.34-.56.74-1.22,1.12-1.9H18.7V10.62H15.82A31.292,31.292,0,0,0,17.48,7.9l-1.92-.48a17.432,17.432,0,0,1-1.4,2.96l.76.24H12.76V7.2H11v3.42H9.02V7.2H7.28v3.42H5.08l1.02-.38A13.9,13.9,0,0,0,4.5,7.38l-1.62.54a15,15,0,0,1,1.46,2.7H1.38v1.56H5.92l-.48.08a9.908,9.908,0,0,1,.84,1.82H2.18v1.48H9.06v1.2H3.16v1.4h5.9v1.22H1.3v1.56H7.48A19.4,19.4,0,0,1,.74,23.72,8.346,8.346,0,0,1,1.96,25.3a19.866,19.866,0,0,0,7.1-3.6v3.88h1.82V21.56a17.841,17.841,0,0,0,7.16,3.76,8.352,8.352,0,0,1,1.24-1.66,18.367,18.367,0,0,1-6.78-2.72Zm15.26-2.62c.1-.62.18-1.24.24-1.9H32.42c-.06.66-.14,1.28-.24,1.9h-3.2v1.56h2.8a6.612,6.612,0,0,1-4.44,4.26,5.51,5.51,0,0,1,1.1,1.44,8,8,0,0,0,5.24-5.7h2.9c-.26,2.34-.54,3.36-.88,3.66a.766.766,0,0,1-.64.22c-.34,0-1.08-.02-1.86-.1a4.85,4.85,0,0,1,.5,1.72,20.176,20.176,0,0,0,2.22,0,2.123,2.123,0,0,0,1.34-.6c.56-.6.92-2.14,1.26-5.72.04-.26.06-.74.06-.74Zm1.5-7.5a7.24,7.24,0,0,1-1.68,2.2,9.09,9.09,0,0,1-2.02-2.2Zm3.42,0V9.26h-6.3a16.919,16.919,0,0,0,.82-1.58L31.72,7.2a11.928,11.928,0,0,1-3.8,4.82,10.994,10.994,0,0,1,1.54,1.06,12.915,12.915,0,0,0,1.2-1.16,11.8,11.8,0,0,0,1.78,2.1,13.249,13.249,0,0,1-3.06,1.26c.06-.28.12-.54.18-.8l-1.12-.4-.28.1H26.92l.86-.94a13.855,13.855,0,0,0-1.6-1.06A14.043,14.043,0,0,0,29.3,8.84L28.1,8.1l-.3.06H21.22V9.74h5.26a11.387,11.387,0,0,1-1.72,1.68c-.6-.3-1.24-.58-1.8-.8l-1.16,1.2a24.779,24.779,0,0,1,4.28,2.36h-5.1V15.8h2.78a13.227,13.227,0,0,1-3.06,4.8,8.925,8.925,0,0,1,.94,1.78,14.141,14.141,0,0,0,2.7-4.34v5.42c0,.24-.08.28-.32.3s-1.04.02-1.84-.02a6.594,6.594,0,0,1,.54,1.76,6.915,6.915,0,0,0,2.64-.3c.6-.32.74-.82.74-1.72V15.8h1.54a21.988,21.988,0,0,1-.88,3l1.28.64a27.229,27.229,0,0,0,1.1-3.22,5.328,5.328,0,0,1,.52.82,16.586,16.586,0,0,0,4.22-1.88,14.211,14.211,0,0,0,4.34,1.92,6.883,6.883,0,0,1,1.16-1.56,14.081,14.081,0,0,1-4.04-1.5,9.657,9.657,0,0,0,2.22-3.2Zm17.04-.28H49.9V9.22h6.08Zm0,2.58H49.9V11.8h6.08Zm1.78-5.26H48.2V14.5h9.56ZM47.04,17.48l-.26-1.68-1.92.56V12.84h2.12V11.12H44.86V7.26h-1.7v3.86H40.84v1.72h2.32v4.02c-.94.26-1.82.5-2.52.68l.42,1.8,2.1-.64v4.64c0,.28-.1.36-.34.36-.22,0-.96,0-1.76-.02a5.937,5.937,0,0,1,.5,1.72,5.667,5.667,0,0,0,2.6-.36c.52-.28.7-.78.7-1.7V18.16ZM53.8,20.8h4V19.32h-4V17.24h5V15.72H47.26v1.52h4.8v5.84a4.529,4.529,0,0,1-2.24-2.76,20.718,20.718,0,0,0,.38-2.1l-1.68-.2c-.32,2.82-1.18,5.06-2.92,6.44A8,8,0,0,1,47,25.58a8.68,8.68,0,0,0,2.26-3.42c1.3,2.64,3.38,3.14,6.16,3.14h3.44a5.814,5.814,0,0,1,.52-1.64c-.74.02-3.34.02-3.92.02a11.219,11.219,0,0,1-1.66-.1Zm18.96-9.12H70.02V10.64h2.74Zm0,2.2H70.02V12.82h2.74Zm0,2.26H70.02V15.02h2.74Zm-5.92-.62-1.92.6v-3.3h2v-.14a6.291,6.291,0,0,1,.54.6,11.449,11.449,0,0,0,.96-1v5.2H78.8V16.14H74.42V15.02h3.64V13.88H74.42V12.82h3.64V11.68H74.42V10.64H78.6V9.32H74.7c.3-.52.6-1.08.88-1.64l-1.8-.42a16.58,16.58,0,0,1-.84,2.06h-2.6a18.223,18.223,0,0,0,.7-1.72l-1.6-.4a10.959,10.959,0,0,1-2.52,4.22V11.1h-2V7.24h-1.7V11.1H60.9v1.72h2.32v3.8c-.98.28-1.88.54-2.6.72l.42,1.8,2.18-.68v5.06c0,.28-.1.34-.36.34-.22.02-.96.02-1.76,0a5.937,5.937,0,0,1,.5,1.72,5.966,5.966,0,0,0,2.6-.34c.54-.3.72-.8.72-1.72v-5.6c.72-.22,1.46-.46,2.18-.7Zm8.54,4.6c.12-.56.24-1.12.36-1.66H67.26v1.5h2.58a5.089,5.089,0,0,1-3.66,4.34,6.221,6.221,0,0,1,1.2,1.34,6.663,6.663,0,0,0,4.28-5.68h2.12c-.18.78-.38,1.56-.54,2.18l1.58.24c.08-.26.16-.58.24-.9h2.12a4.986,4.986,0,0,1-.66,2.44.958.958,0,0,1-.68.16c-.38,0-1.34-.02-2.28-.1a3.366,3.366,0,0,1,.52,1.54,19.4,19.4,0,0,0,2.44,0,1.977,1.977,0,0,0,1.38-.5c.48-.5.76-1.66,1.02-4.22.04-.24.08-.68.08-.68ZM95.82,9.86A1.264,1.264,0,0,1,97.06,8.6a1.281,1.281,0,0,1,1.26,1.26,1.264,1.264,0,0,1-1.26,1.24A1.246,1.246,0,0,1,95.82,9.86Zm-1.06,0a2.31,2.31,0,0,0,4.62,0,2.31,2.31,0,0,0-4.62,0ZM84.14,17.9a26.13,26.13,0,0,1-3.1,5.48l2.18.92a29.013,29.013,0,0,0,2.94-5.58,42.635,42.635,0,0,0,1.76-6.16c.1-.44.28-1.2.42-1.7l-2.28-.46A29.314,29.314,0,0,1,84.14,17.9ZM94,17.28a68.226,68.226,0,0,1,2.18,6.96l2.28-.74c-.54-1.88-1.6-5-2.36-6.92-.8-2.02-2.14-4.92-2.94-6.42l-2.06.68A56.671,56.671,0,0,1,94,17.28Zm7.96.26c.66-.04,1.84-.08,2.96-.08H115.8c.88,0,1.78.06,2.22.08V15.08c-.48.04-1.26.12-2.24.12H104.92c-1.08,0-2.32-.06-2.96-.12Zm35.18-.62a69.015,69.015,0,0,0-8.46-3.2V10.6c0-.7.08-1.58.14-2.24h-2.46a14.478,14.478,0,0,1,.18,2.24V22.16a20.936,20.936,0,0,1-.16,2.56h2.46a23.436,23.436,0,0,1-.16-2.56V15.98a53.319,53.319,0,0,1,7.56,3.12Zm14.48-3.94V10.52a14.89,14.89,0,0,1,.14-2.16h-2.52a10.391,10.391,0,0,1,.22,2.16v2.46h-5.58c-.76,0-1.54-.06-2.02-.1v2.16c.5-.04,1.26-.06,2.06-.06h5.54c-.1,3.76-1.56,6.7-5.42,8.48L146,24.92c4.16-2.46,5.54-5.72,5.62-9.94h4.94c.7,0,1.58.02,1.94.06V12.9c-.36.04-1.14.08-1.92.08Zm10.34,4.56c.66-.04,1.84-.08,2.96-.08H175.8c.88,0,1.78.06,2.22.08V15.08c-.48.04-1.26.12-2.24.12H164.92c-1.08,0-2.32-.06-2.96-.12Z" transform="translate(236 13754)" fill="#3b3533" stroke="#3b3533" stroke-linecap="round" stroke-width="0.3"/><g transform="translate(523 13714)" fill="#007083" stroke="#007083" stroke-width="3"><rect width="60" height="90" stroke="none"/><rect x="1.5" y="1.5" width="57" height="87" fill="none"/></g><path d="M4.608-10.56h1.44v-.7h3.84v.7H11.36v-.7h3.488v-1.184H11.36v-.976H9.888v.976H6.048v-.976H4.608v.976H1.152v1.184H4.608ZM8.16-2.7a9.382,9.382,0,0,0,.192-1.008H6.912A6.615,6.615,0,0,1,6.688-2.7H4.208A9.588,9.588,0,0,0,5.76-3.984h4.448A8.391,8.391,0,0,0,11.616-2.7ZM4.176-7.7h7.68v.864H4.176Zm0-1.712h7.68v.848H4.176Zm10.9,5.424V-5.152H6.736a7.387,7.387,0,0,0,.448-.768h6.16v-4.416H2.752V-5.92H5.6a4.581,4.581,0,0,1-.512.768H.944v1.168h2.88a11.19,11.19,0,0,1-3.28,1.6,3.912,3.912,0,0,1,.848,1.056A14.851,14.851,0,0,0,3.28-2.16v.56h2.9C5.536-.752,4.4-.176,2.24.192a4.155,4.155,0,0,1,.736,1.152C5.776.768,7.1-.176,7.792-1.6h3.184a2.936,2.936,0,0,1-.384,1.52.757.757,0,0,1-.512.128c-.272,0-.96-.016-1.648-.08a3.265,3.265,0,0,1,.368,1.2,18.071,18.071,0,0,0,1.888,0,1.6,1.6,0,0,0,1.072-.4c.336-.352.528-1.136.688-2.912a9.427,9.427,0,0,0,2.128.976,5.664,5.664,0,0,1,.96-1.168,10.833,10.833,0,0,1-3.584-1.648ZM4.176,13.36H7.6v.928H4.176ZM7.6,10.448H4.176v-.88H7.6Zm0,1.92H4.176v-.912H7.6Zm7.5,5.12v-1.2H8.7V15.44h5.968V14.288H9.024V13.36h4.432v-.992H9.024v-.912h4.4V10.448h-4.4v-.88h5.1V8.384H9.1c.3-.48.608-1.04.9-1.6L8.352,6.576a14.068,14.068,0,0,1-.784,1.808H4.848c.352-.512.656-1.04.944-1.536l-1.552-.3A13.3,13.3,0,0,1,.48,11.072,5.239,5.239,0,0,1,1.536,12.08a14.378,14.378,0,0,0,1.248-1.152V15.44H7.232v.848H.9v1.2H6.08a17.849,17.849,0,0,1-5.616,2.4,8.663,8.663,0,0,1,.96,1.216,18.028,18.028,0,0,0,5.808-2.976v3.12H8.7V18.1a18.471,18.471,0,0,0,5.824,2.928,6.04,6.04,0,0,1,.912-1.216,17.924,17.924,0,0,1-5.52-2.32ZM2.576,27.616c-.016.416-.08.912-.128,1.312a47.709,47.709,0,0,0-.7,6.64,18.839,18.839,0,0,0,.624,5.024l1.408-.1c-.016-.192-.016-.432-.032-.592a3.815,3.815,0,0,1,.08-.72c.176-.816.72-2.432,1.136-3.616l-.816-.64c-.24.576-.576,1.344-.8,2a11.788,11.788,0,0,1-.112-1.664A39.545,39.545,0,0,1,4,28.992a10.447,10.447,0,0,1,.32-1.216Zm8.032,9.84c0,.992-.368,1.584-1.536,1.584-1.008,0-1.712-.368-1.712-1.1,0-.656.72-1.12,1.776-1.12a5.639,5.639,0,0,1,1.472.208Zm4.624.72a10.487,10.487,0,0,0-3.1-2.064c-.048-1.216-.144-2.64-.176-4.224.912-.064,1.808-.16,2.624-.288V30.048a24.806,24.806,0,0,1-2.624.352c.016-.72.032-1.392.048-1.792.016-.32.048-.656.1-.976H10.288a5.639,5.639,0,0,1,.1,1.008c0,.4.016,1.072.016,1.856-.448.016-.88.032-1.328.032-.944,0-1.824-.048-2.736-.128l.016,1.5c.928.048,1.792.1,2.7.1.448,0,.9-.016,1.344-.032.032,1.232.1,2.592.144,3.7a8.154,8.154,0,0,0-1.28-.1c-2.112,0-3.376,1.088-3.376,2.544,0,1.52,1.248,2.416,3.392,2.416,2.208,0,2.912-1.248,2.912-2.72V37.76a13.792,13.792,0,0,1,2.192,1.728Z" transform="translate(552 13745)" fill="#fff"/><path d="M3.68-9.728c1.264.112,2.624.176,4.256.176,1.472,0,3.312-.112,4.4-.192v-1.664c-1.184.128-2.88.224-4.416.224a40.1,40.1,0,0,1-4.24-.192ZM2.992-4.992a9.653,9.653,0,0,0-.32,2.24c0,2.064,1.84,3.2,5.232,3.2A23.608,23.608,0,0,0,13.36-.1L13.344-1.84a21.68,21.68,0,0,1-5.488.608c-2.416,0-3.52-.784-3.52-1.888a6.1,6.1,0,0,1,.288-1.728ZM12.56,8.848a37.838,37.838,0,0,1-6.032.736l.144-.7a12.548,12.548,0,0,1,.32-1.456L5.2,7.344a7.442,7.442,0,0,1-.064,1.424q-.048.36-.144.864H4.928a19.849,19.849,0,0,1-3.12-.272v1.568c.864.08,1.856.128,2.9.144a25.548,25.548,0,0,1-1.824,5.5l1.488.528a4.631,4.631,0,0,1,.464-.72,5.78,5.78,0,0,1,4.56-1.872c1.712,0,2.624.848,2.624,1.92,0,2.5-3.536,3.024-7.12,2.5l.448,1.616c4.944.528,8.336-.736,8.336-4.144,0-1.936-1.568-3.264-4.112-3.264a7.248,7.248,0,0,0-4.224,1.216,30.344,30.344,0,0,0,.88-3.312,56.522,56.522,0,0,0,6.352-.672ZM4.976,28.88c1.216.32,4.7,1.04,6.256,1.248l.368-1.552A45.925,45.925,0,0,1,5.376,27.36Zm.256,1.488-1.7-.224a58.91,58.91,0,0,1-.8,6.512l1.472.352a3.625,3.625,0,0,1,.528-.848,5.945,5.945,0,0,1,4.672-1.984c1.52,0,2.608.816,2.608,1.984,0,2.1-2.48,3.408-7.376,2.784l.5,1.648c6.176.512,8.608-1.536,8.608-4.4,0-1.872-1.632-3.456-4.208-3.456a7.648,7.648,0,0,0-4.912,1.728C4.752,33.488,5.024,31.36,5.232,30.368Z" transform="translate(534 13745)" fill="#fff"/><path d="M122.894,4.6,118.387.11a.378.378,0,0,0-.533.535l4.239,4.227L117.853,9.1a.378.378,0,0,0,.534.535l4.507-4.494a.378.378,0,0,0,0-.535Z" transform="translate(454.434 13753.976)" fill="#fff" stroke="#fff" stroke-linecap="round" stroke-width="0.5"/></g></svg>