<svg xmlns="http://www.w3.org/2000/svg" xmlns:xlink="http://www.w3.org/1999/xlink" width="450" height="90" viewBox="0 0 450 90"><defs><clipPath id="a"><rect width="348" height="80" transform="translate(138 13719)" fill="#fff" stroke="#00aac7" stroke-width="3"/></clipPath><clipPath id="b"><rect width="353" height="90" transform="translate(507 13714)" fill="#fff" stroke="#00aac7" stroke-width="3"/></clipPath><clipPath id="c"><circle cx="56" cy="56" r="56" transform="translate(513 13703)" fill="#00aac7"/></clipPath><clipPath id="d"><rect width="116.83" height="70.335" fill="none"/></clipPath></defs><g transform="translate(6 -13714)"><rect width="450" height="90" transform="translate(-6 13714)" fill="#afafaf"/><path d="M5.46-9.82H17.94v-1.92h-5.2v-5.02H10.76v5.02H5.46V-16.3H3.52v6.64c0,3.4-.28,7.08-2.76,9.82A7.217,7.217,0,0,1,2.2,1.64,11.747,11.747,0,0,0,5.16-5h8V1.58H15.2V-6.94H5.38c.06-.9.08-1.82.08-2.72ZM25.7-16.66A21.642,21.642,0,0,1,20.76-8.8a12.709,12.709,0,0,1,1.12,1.9,18.228,18.228,0,0,0,1.76-2.06V1.54h1.88v-13.4a31.361,31.361,0,0,0,2.02-4.22Zm13.4,4.24H36.72v-4.14H34.8v4.14H26.98v1.86H34.8V-.8c0,.44-.18.58-.64.6-.48.02-2.14.04-3.76-.04a7.6,7.6,0,0,1,.72,1.86,15.047,15.047,0,0,0,4.42-.32c.84-.28,1.18-.8,1.18-2.1v-9.76H39.1Zm-6.54,8.4c-.6-1.2-1.9-3.22-2.86-4.72l-1.62.76a49.764,49.764,0,0,1,2.74,4.9Zm10.5-11.56a14.179,14.179,0,0,1-.12,1.48,54.317,54.317,0,0,0-.7,7.92A21.878,21.878,0,0,0,43.32.16l1.72-.2c0-.24-.04-.54-.04-.74a3.752,3.752,0,0,1,.1-.9,46.784,46.784,0,0,1,1.32-4.58l-1.04-.66c-.34.88-.72,1.96-1,2.7-.64-2.9.04-7.14.6-9.7.1-.4.26-1.02.4-1.44Zm15.3,3.52a28.491,28.491,0,0,1-3.1.42c-.02-1.18-.04-2.34-.02-2.78a11.751,11.751,0,0,1,.08-1.24h-2.3a9.472,9.472,0,0,1,.2,1.24c.04.52.08,1.7.1,2.9-.8.02-1.62.04-2.38.04a21.635,21.635,0,0,1-3.1-.2v2c.92.06,2.22.12,3.14.12.78,0,1.58-.02,2.38-.04v.62c0,3.62-.2,5.64-2.06,7.36a7.017,7.017,0,0,1-2.1,1.4l1.84,1.44c4.08-2.5,4.24-5.58,4.24-10.18V-9.7c1.16-.08,2.22-.18,3.08-.3Zm4.76-.02H76.86V-9.2h1.78v-4.5h-3.5a20.718,20.718,0,0,0,1.9-2.36l-1.94-.62a18.653,18.653,0,0,1-1.72,2.64l.94.34H70.9v-3.1H69.02v3.1H65.84l.74-.34a11.954,11.954,0,0,0-1.72-2.56l-1.66.66a13.832,13.832,0,0,1,1.46,2.24H61.42v4.5h1.7Zm3.12,2.82h7.48v1.9H66.24ZM70.9-.58V-2.6h6.3V-4.22H70.9V-5.9h4.66v-4.82H64.52V-5.9h4.5v1.68H63.1V-2.6h5.92V-.58H61.34V1.06H78.72V-.58ZM15.92,9.7a5.1,5.1,0,0,1-1.28.14H4.94a17.936,17.936,0,0,1-2.16-.16v2.24c.5-.04,1.3-.08,2.16-.08h9.82a13.811,13.811,0,0,1-2.5,6.14,13.2,13.2,0,0,1-7.8,4.76l1.7,1.88a15.53,15.53,0,0,0,7.96-5.42,19.828,19.828,0,0,0,2.98-7.34,6.077,6.077,0,0,1,.36-1.16Zm20.46,3.84a3.968,3.968,0,0,1-1.28.18H24.86c-.58,0-1.34-.06-2.12-.14v2.08c.76-.06,1.64-.08,2.12-.08H35.04a9.427,9.427,0,0,1-2.22,4,13.534,13.534,0,0,1-7,3.6l1.56,1.8a14.779,14.779,0,0,0,7.16-4.26,14.352,14.352,0,0,0,2.94-5.62,5.97,5.97,0,0,1,.3-.68ZM24.56,10.98c.56-.04,1.28-.06,1.9-.06h7.78c.68,0,1.48.02,1.98.06V8.92a19.107,19.107,0,0,1-1.96.1h-7.8a18.5,18.5,0,0,1-1.9-.1ZM44.66,9.1,43.2,10.66a45.469,45.469,0,0,1,5,4.24l1.58-1.62A40.5,40.5,0,0,0,44.66,9.1ZM42.6,22.48l1.34,2.06a22.051,22.051,0,0,0,7.66-2.98,20.613,20.613,0,0,0,7.02-7.24L57.4,12.14a19.042,19.042,0,0,1-6.94,7.54A20.781,20.781,0,0,1,42.6,22.48Zm28.78-7.72V11.22a37.681,37.681,0,0,0,3.7-.74c.32-.08.76-.18,1.3-.32l-1.3-1.74a24.03,24.03,0,0,1-5.1,1.16,43.89,43.89,0,0,1-6.78.32l.5,1.84c1.46-.02,3.64-.08,5.62-.28v3.3H63.48a15.97,15.97,0,0,1-1.8-.1v2.06c.5-.04,1.2-.06,1.82-.06h5.76a7.953,7.953,0,0,1-5.04,6.94l2,1.36a9.754,9.754,0,0,0,5.12-8.3h5.4c.52,0,1.16.02,1.64.06V14.68c-.44.04-1.26.08-1.68.08Zm21.58,5.72a28.973,28.973,0,0,0,4.28-6.02l-1.28-.9a3.616,3.616,0,0,1-.86.28c-.72.16-3.86.76-6.56,1.28l-.6-2.18c-.12-.5-.24-.98-.3-1.38l-2.14.52a5.876,5.876,0,0,1,.52,1.28c.12.42.34,1.18.58,2.12-1.08.2-1.92.36-2.2.4-.64.1-1.16.18-1.74.22l.48,1.92c.56-.12,2.14-.46,3.94-.82.74,2.8,1.64,6.16,1.92,7.14a9.628,9.628,0,0,1,.32,1.58l2.16-.54c-.14-.38-.38-1.12-.48-1.48-.3-.94-1.22-4.28-2-7.1,2.52-.52,4.96-1,5.44-1.1a18.921,18.921,0,0,1-3.22,3.9Zm18.94-6.5a33.176,33.176,0,0,0,5.34-4.3l-1.7-1.54a21.878,21.878,0,0,1-5.22,4.48,31.408,31.408,0,0,1-9.02,3.64l1.14,1.94a38.337,38.337,0,0,0,7.24-2.94v7.12a23.177,23.177,0,0,1-.12,2.36h2.48a15.04,15.04,0,0,1-.14-2.36Zm23-3.18,1.14-.5a30.292,30.292,0,0,0-1.6-2.74l-1.3.54a22.976,22.976,0,0,1,1.44,2.48l-.78-.6a5.931,5.931,0,0,1-1.74.22h-7.42a21.4,21.4,0,0,1-2.18-.14v2.26c.32-.02,1.4-.12,2.18-.12h7.34a16.455,16.455,0,0,1-3.18,5.28,22.432,22.432,0,0,1-8.22,5.84l1.62,1.7a25.6,25.6,0,0,0,7.7-5.74,44.556,44.556,0,0,1,5.28,5.82l1.78-1.54a53.16,53.16,0,0,0-5.72-5.86,27.878,27.878,0,0,0,3.28-5.72,6.6,6.6,0,0,1,.58-1.02Zm.64-3.4a22.182,22.182,0,0,1,1.62,2.76l1.3-.58a26.55,26.55,0,0,0-1.64-2.72Zm9.22,3.48c.02-1.1.02-2.24.02-3.38h-1.84c0,1.16,0,2.28-.02,3.38h-2.58V12.7h2.54c-.14,4.84-.7,8.96-3.06,11.56a6.178,6.178,0,0,1,1.38,1.32c2.64-2.92,3.32-7.54,3.5-12.88h2.6c-.16,7.2-.32,9.82-.74,10.36a.644.644,0,0,1-.68.34c-.34,0-1.14-.02-2.02-.06a4.159,4.159,0,0,1,.54,1.86,14.563,14.563,0,0,0,2.36-.04,1.84,1.84,0,0,0,1.42-.88c.62-.9.76-3.86.92-12.5.02-.24.02-.9.02-.9Zm7.54,11.14V11.4h3.28V22.02ZM150.52,9.6V25.24h1.78V23.8h3.28v1.28h1.88V9.6Zm24.74-.3v1.5h-4.12V9.3Zm-4.22,4.34a13.517,13.517,0,0,0,.1-1.52h4.12v1.52Zm4.22,1.34v1.36c0,.26-.1.34-.38.34-.26,0-1.16.02-2.12-.02a5.689,5.689,0,0,1,.68,1.56,8.191,8.191,0,0,0,2.86-.3c.6-.26.8-.7.8-1.58V7.82h-7.66v4.06c0,1.76-.22,3.9-2.18,5.38a6.278,6.278,0,0,1,1.3,1.22,6.356,6.356,0,0,0,2.22-3.5ZM166,9.6v1.82h-3.12V9.6Zm-3.12,5.06V12.84H166v1.82Zm0,1.46h4.8V8.14h-6.5v9.02h1.7Zm1.24,4.08h2.24v3.2h-2.24Zm6.2,0v3.2h-2.26V20.2Zm3.96,0v3.2h-2.26V20.2Zm1.82,3.2V18.74H162.38V23.4h-2.32v1.62H178.3V23.4Z" transform="translate(92 13754)" fill="#3b3533" stroke="#3b3533" stroke-linecap="round" stroke-width="0.3"/><g transform="translate(384 13714)" fill="#006456" stroke="#006456" stroke-width="3"><rect width="60" height="90" stroke="none"/><rect x="1.5" y="1.5" width="57" height="87" fill="none"/></g><path d="M4.608-10.56h1.44v-.7h3.84v.7H11.36v-.7h3.488v-1.184H11.36v-.976H9.888v.976H6.048v-.976H4.608v.976H1.152v1.184H4.608ZM8.16-2.7a9.382,9.382,0,0,0,.192-1.008H6.912A6.615,6.615,0,0,1,6.688-2.7H4.208A9.588,9.588,0,0,0,5.76-3.984h4.448A8.391,8.391,0,0,0,11.616-2.7ZM4.176-7.7h7.68v.864H4.176Zm0-1.712h7.68v.848H4.176Zm10.9,5.424V-5.152H6.736a7.387,7.387,0,0,0,.448-.768h6.16v-4.416H2.752V-5.92H5.6a4.581,4.581,0,0,1-.512.768H.944v1.168h2.88a11.19,11.19,0,0,1-3.28,1.6,3.912,3.912,0,0,1,.848,1.056A14.851,14.851,0,0,0,3.28-2.16v.56h2.9C5.536-.752,4.4-.176,2.24.192a4.155,4.155,0,0,1,.736,1.152C5.776.768,7.1-.176,7.792-1.6h3.184a2.936,2.936,0,0,1-.384,1.52.757.757,0,0,1-.512.128c-.272,0-.96-.016-1.648-.08a3.265,3.265,0,0,1,.368,1.2,18.071,18.071,0,0,0,1.888,0,1.6,1.6,0,0,0,1.072-.4c.336-.352.528-1.136.688-2.912a9.427,9.427,0,0,0,2.128.976,5.664,5.664,0,0,1,.96-1.168,10.833,10.833,0,0,1-3.584-1.648ZM4.176,13.36H7.6v.928H4.176ZM7.6,10.448H4.176v-.88H7.6Zm0,1.92H4.176v-.912H7.6Zm7.5,5.12v-1.2H8.7V15.44h5.968V14.288H9.024V13.36h4.432v-.992H9.024v-.912h4.4V10.448h-4.4v-.88h5.1V8.384H9.1c.3-.48.608-1.04.9-1.6L8.352,6.576a14.068,14.068,0,0,1-.784,1.808H4.848c.352-.512.656-1.04.944-1.536l-1.552-.3A13.3,13.3,0,0,1,.48,11.072,5.239,5.239,0,0,1,1.536,12.08a14.378,14.378,0,0,0,1.248-1.152V15.44H7.232v.848H.9v1.2H6.08a17.849,17.849,0,0,1-5.616,2.4,8.663,8.663,0,0,1,.96,1.216,18.028,18.028,0,0,0,5.808-2.976v3.12H8.7V18.1a18.471,18.471,0,0,0,5.824,2.928,6.04,6.04,0,0,1,.912-1.216,17.924,17.924,0,0,1-5.52-2.32ZM2.576,27.616c-.016.416-.08.912-.128,1.312a47.709,47.709,0,0,0-.7,6.64,18.839,18.839,0,0,0,.624,5.024l1.408-.1c-.016-.192-.016-.432-.032-.592a3.815,3.815,0,0,1,.08-.72c.176-.816.72-2.432,1.136-3.616l-.816-.64c-.24.576-.576,1.344-.8,2a11.788,11.788,0,0,1-.112-1.664A39.545,39.545,0,0,1,4,28.992a10.447,10.447,0,0,1,.32-1.216Zm8.032,9.84c0,.992-.368,1.584-1.536,1.584-1.008,0-1.712-.368-1.712-1.1,0-.656.72-1.12,1.776-1.12a5.639,5.639,0,0,1,1.472.208Zm4.624.72a10.487,10.487,0,0,0-3.1-2.064c-.048-1.216-.144-2.64-.176-4.224.912-.064,1.808-.16,2.624-.288V30.048a24.806,24.806,0,0,1-2.624.352c.016-.72.032-1.392.048-1.792.016-.32.048-.656.1-.976H10.288a5.639,5.639,0,0,1,.1,1.008c0,.4.016,1.072.016,1.856-.448.016-.88.032-1.328.032-.944,0-1.824-.048-2.736-.128l.016,1.5c.928.048,1.792.1,2.7.1.448,0,.9-.016,1.344-.032.032,1.232.1,2.592.144,3.7a8.154,8.154,0,0,0-1.28-.1c-2.112,0-3.376,1.088-3.376,2.544,0,1.52,1.248,2.416,3.392,2.416,2.208,0,2.912-1.248,2.912-2.72V37.76a13.792,13.792,0,0,1,2.192,1.728Z" transform="translate(413 13745)" fill="#fff"/><path d="M3.68-9.728c1.264.112,2.624.176,4.256.176,1.472,0,3.312-.112,4.4-.192v-1.664c-1.184.128-2.88.224-4.416.224a40.1,40.1,0,0,1-4.24-.192ZM2.992-4.992a9.653,9.653,0,0,0-.32,2.24c0,2.064,1.84,3.2,5.232,3.2A23.608,23.608,0,0,0,13.36-.1L13.344-1.84a21.68,21.68,0,0,1-5.488.608c-2.416,0-3.52-.784-3.52-1.888a6.1,6.1,0,0,1,.288-1.728ZM12.56,8.848a37.838,37.838,0,0,1-6.032.736l.144-.7a12.548,12.548,0,0,1,.32-1.456L5.2,7.344a7.442,7.442,0,0,1-.064,1.424q-.048.36-.144.864H4.928a19.849,19.849,0,0,1-3.12-.272v1.568c.864.08,1.856.128,2.9.144a25.548,25.548,0,0,1-1.824,5.5l1.488.528a4.631,4.631,0,0,1,.464-.72,5.78,5.78,0,0,1,4.56-1.872c1.712,0,2.624.848,2.624,1.92,0,2.5-3.536,3.024-7.12,2.5l.448,1.616c4.944.528,8.336-.736,8.336-4.144,0-1.936-1.568-3.264-4.112-3.264a7.248,7.248,0,0,0-4.224,1.216,30.344,30.344,0,0,0,.88-3.312,56.522,56.522,0,0,0,6.352-.672ZM4.976,28.88c1.216.32,4.7,1.04,6.256,1.248l.368-1.552A45.925,45.925,0,0,1,5.376,27.36Zm.256,1.488-1.7-.224a58.91,58.91,0,0,1-.8,6.512l1.472.352a3.625,3.625,0,0,1,.528-.848,5.945,5.945,0,0,1,4.672-1.984c1.52,0,2.608.816,2.608,1.984,0,2.1-2.48,3.408-7.376,2.784l.5,1.648c6.176.512,8.608-1.536,8.608-4.4,0-1.872-1.632-3.456-4.208-3.456a7.648,7.648,0,0,0-4.912,1.728C4.752,33.488,5.024,31.36,5.232,30.368Z" transform="translate(395 13745)" fill="#fff"/><path d="M122.894,4.6,118.387.11a.378.378,0,0,0-.533.535l4.239,4.227L117.853,9.1a.378.378,0,0,0,.534.535l4.507-4.494a.378.378,0,0,0,0-.535Z" transform="translate(315.434 13753.976)" fill="#fff" stroke="#fff" stroke-linecap="round" stroke-width="0.5"/><g transform="translate(-138)" clip-path="url(#a)"><g transform="translate(-401)" clip-path="url(#b)"><circle cx="56" cy="56" r="56" transform="translate(513 13703)" fill="#006456"/></g><g transform="translate(-401)" clip-path="url(#c)"><g transform="translate(512.639 13725.742)"><g transform="translate(-4)" clip-path="url(#d)"><g transform="translate(38.067 5.039)"><path d="M2.6,0h0A2.606,2.606,0,0,1,5.21,2.606V4.669a2.6,2.6,0,0,1-2.6,2.6h0A2.6,2.6,0,0,1,0,4.669V2.6A2.6,2.6,0,0,1,2.6,0Z" transform="translate(0.328 21.612)"/><path d="M3957.54,4217.338h-17.665a4.124,4.124,0,0,1,4.124,4.124v27.85h17.665v-27.85A4.124,4.124,0,0,0,3957.54,4217.338Z" transform="translate(-3881.842 -4217.338)" fill="#397156"/><path d="M3771.383,4249.312v-27.85a4.125,4.125,0,0,1,4.125-4.124h38.522a4.124,4.124,0,0,1,4.124,4.124v27.85Z" transform="translate(-3755.996 -4217.338)" fill="#47856b"/><rect width="17.82" height="10.942" rx="5.471" transform="translate(29.584 10.515)" fill="#fff" opacity="0.4"/><g transform="translate(20.158 7.944)"><path d="M3828.716,4269.143h-35.884l-.2-.207v-13.7a5.651,5.651,0,0,1,5.587-5.7h25.117a5.651,5.651,0,0,1,5.586,5.7v13.686Zm-34.864-1.092H3827.7l.152-.155v-12.657a4.569,4.569,0,0,0-4.518-4.61h-25.117a4.569,4.569,0,0,0-4.517,4.61v12.646Z" transform="translate(-3792.024 -4249.333)" fill="#b4b4b5"/><path d="M3826.321,4268.328h-35.884l-.2-.206v-13.7a5.651,5.651,0,0,1,5.586-5.7h25.117a5.651,5.651,0,0,1,5.587,5.7v13.686Zm-34.865-1.092H3825.3l.152-.154v-12.657a4.569,4.569,0,0,0-4.518-4.609h-25.117a4.57,4.57,0,0,0-4.518,4.609v12.646Z" transform="translate(-3790.235 -4248.725)" fill="#eeeeef"/><g transform="translate(11.811 1.095)"><rect width="0.336" height="17.455" transform="translate(0.628)" fill="#7a7a7a"/><rect width="0.627" height="17.455" fill="#ccc"/></g><g transform="translate(23.221 1.095)"><rect width="0.337" height="17.455" transform="translate(0.628)" fill="#7a7a7a"/><rect width="0.626" height="17.455" fill="#ccc"/></g></g><path d="M3777.543,4264.733h-56.935l8.089-19.663a5.538,5.538,0,0,1,4.971-2.586h37.9a3.925,3.925,0,0,1,3.5,3.015C3775.447,4247.126,3777.543,4264.733,3777.543,4264.733Zm-6.739-15.844a2.061,2.061,0,0,0-2.062-2.062H3744.4a2.061,2.061,0,0,0-2.062,2.062v9.641a2.061,2.061,0,0,0,2.062,2.063h24.339a2.061,2.061,0,0,0,2.062-2.062Zm-34.263-3.011h-4.8a2.365,2.365,0,0,0-2.279,1.33c-.424.853-5.747,14.553-6.432,15.962s.153,1.444.406,1.444,9.236.031,10.436.031,1.238-.615,1.26-.99,1.946-15.6,2.089-16.609S3736.838,4245.879,3736.542,4245.879Z" transform="translate(-3718.074 -4236.119)" fill="#3e3a39"/><path d="M3742.918,4255.895h-4.8a2.367,2.367,0,0,0-2.279,1.33c-.424.853-5.747,14.553-6.432,15.963s.153,1.443.406,1.443,9.237.031,10.436.031,1.239-.615,1.26-.989,1.947-15.6,2.089-16.61S3743.214,4255.895,3742.918,4255.895Z" transform="translate(-3724.45 -4246.135)" fill="#fff" opacity="0.2"/><g transform="translate(22.198 17.343)"><path d="M3817.668,4290.458a1.325,1.325,0,0,1-1.307,1.237h-6.531a1.158,1.158,0,0,1-1.169-1.237l.6-3.362a1.323,1.323,0,0,1,1.306-1.237h5.707a1.157,1.157,0,0,1,1.168,1.237Z" transform="translate(-3806.035 -4285.859)" fill="#1a1a1a"/><path d="M3805.151,4312.819a1.876,1.876,0,0,1,1.751,1.212h4.5l.112-.76a1.517,1.517,0,0,0-1.325-1.567h-10.453a1.578,1.578,0,0,0-1.444,1.116Z" transform="translate(-3798.294 -4305.162)" fill="#1a1a1a"/></g><g transform="translate(40.12 17.343)"><path d="M3889.466,4290.458a1.326,1.326,0,0,1-1.306,1.237h-6.532a1.159,1.159,0,0,1-1.168-1.237l.6-3.362a1.323,1.323,0,0,1,1.306-1.237h5.707a1.157,1.157,0,0,1,1.168,1.237Z" transform="translate(-3877.583 -4285.859)" fill="#1a1a1a"/><path d="M3881.25,4311.7H3870.8a1.578,1.578,0,0,0-1.479,1.237l-.215,1.09h6.663c-.024.46-.041.765-.045.859a1.1,1.1,0,0,1-.653.991h7.124l.383-2.611A1.516,1.516,0,0,0,3881.25,4311.7Z" transform="translate(-3869.102 -4305.162)" fill="#1a1a1a"/></g><path d="M3909.964,4244.608a2.864,2.864,0,0,0-2.71-2.124h-2.418a3.405,3.405,0,0,0-3.152,3.015c-.2,1.627-.76,18.5-.76,18.5l-.084,1.076v12.816h5.656a.453.453,0,0,1,.474.44,2.169,2.169,0,0,1,.745-.144c.9,0,1.6.738,2.128,1.849h2.963v-15.3Zm1.226,18.768a1.073,1.073,0,0,1-.9.391,12.365,12.365,0,0,0-4.783.876,4.247,4.247,0,0,1-1.394.361h-.787a1.5,1.5,0,0,1-1.13-.405,1.641,1.641,0,0,1-.369-1.263c.042-.91.114-2.689.2-4.751.2-4.926.449-11.057.524-11.677a2.2,2.2,0,0,1,2.047-1.777l3.184,0a1.333,1.333,0,0,1,1.324,1.152l2.278,15.791A1.669,1.669,0,0,1,3911.19,4263.376Z" transform="translate(-3852.687 -4236.119)" fill="#b4b4b5"/><path d="M3914.3,4269.876l-2.279-15.792a1.331,1.331,0,0,0-1.324-1.152h-3.184a2.205,2.205,0,0,0-2.047,1.777c-.075.621-.323,6.751-.524,11.677-.083,2.063-.155,3.84-.2,4.751a1.64,1.64,0,0,0,.369,1.263,1.5,1.5,0,0,0,1.129.4h.788a4.258,4.258,0,0,0,1.394-.36,12.352,12.352,0,0,1,4.783-.877,1.071,1.071,0,0,0,.9-.39A1.668,1.668,0,0,0,3914.3,4269.876Zm-.625.969a.557.557,0,0,1-.468.179,13.036,13.036,0,0,0-4.972.91,3.923,3.923,0,0,1-1.2.327h-.788a.992.992,0,0,1-.735-.234,1.159,1.159,0,0,1-.217-.861c.041-.913.112-2.69.2-4.755.189-4.656.448-11.033.521-11.632.139-1.144,1.5-1.294,1.531-1.3h3.158a.794.794,0,0,1,.785.686l2.284,15.818A1.2,1.2,0,0,1,3913.676,4270.846Z" transform="translate(-3855.602 -4243.924)" fill="#231815"/><path d="M3913.094,4255.774a.794.794,0,0,0-.785-.686h-3.157c-.031,0-1.392.155-1.531,1.3-.073.6-.332,6.976-.521,11.632-.084,2.064-.156,3.842-.2,4.755a1.165,1.165,0,0,0,.218.861.992.992,0,0,0,.735.234h.788a3.969,3.969,0,0,0,1.2-.326,13.019,13.019,0,0,1,4.971-.91.56.56,0,0,0,.469-.179,1.2,1.2,0,0,0,.09-.864Z" transform="translate(-3857.213 -4245.534)" fill="#fff" opacity="0.2"/><g transform="translate(49.141 9.009)"><path d="M3907.031,4272.807h-.788a1.5,1.5,0,0,1-1.129-.4,1.64,1.64,0,0,1-.369-1.263c.042-.911.114-2.689.2-4.751.2-4.926.449-11.056.524-11.677a2.205,2.205,0,0,1,2.047-1.777h3.184a1.331,1.331,0,0,1,1.324,1.152l2.279,15.792a1.668,1.668,0,0,1-.195,1.3,1.071,1.071,0,0,1-.9.39,12.352,12.352,0,0,0-4.783.877A4.258,4.258,0,0,1,3907.031,4272.807Zm.508-19.329c-.031.005-1.392.156-1.531,1.3-.073.6-.332,6.976-.521,11.632-.084,2.064-.156,3.842-.2,4.755a1.159,1.159,0,0,0,.217.861.992.992,0,0,0,.735.234h.788a3.923,3.923,0,0,0,1.2-.327,13.036,13.036,0,0,1,4.972-.91.557.557,0,0,0,.468-.179,1.2,1.2,0,0,0,.09-.864l-2.284-15.818a.794.794,0,0,0-.785-.686Z" transform="translate(-3904.742 -4252.933)" fill="#231815"/></g><g transform="translate(15.775 22.607)"><path d="M3774.04,4309.049a3.593,3.593,0,0,1,2.992-1.484,4.883,4.883,0,0,1,3.415,1.484h1.124a6.033,6.033,0,0,0-4.667-2.393,4.325,4.325,0,0,0-3.985,2.393Z" transform="translate(-3772.917 -4306.656)"/></g><g transform="translate(4.217 25)"><path d="M3727.309,4319.044c.124.219.466.337.961.337h39.743c1.122,0,1.714-.4,1.762-1.2,0-.095.021-.4.045-.86h-15.977a1.876,1.876,0,0,0-1.752-1.212h-19.517a4.482,4.482,0,0,0-2.65,1.212h-2.06c-.221.518-.369.849-.433.955A.8.8,0,0,0,3727.309,4319.044Z" transform="translate(-3727.254 -4316.112)" fill="#1a1a1a"/></g><path d="M1.347,0H7.485A1.346,1.346,0,0,1,8.831,1.346v0A1.346,1.346,0,0,1,7.485,2.692H1.345A1.345,1.345,0,0,1,0,1.347v0A1.347,1.347,0,0,1,1.347,0Z" transform="translate(22.703 10.38)" fill="#1a1a1a"/><path d="M3981.645,4397.6c-1.636,0-2.962,3.953-2.962,8.83s1.326,8.831,2.962,8.831h3.91c-1.635,0-2.961-3.954-2.961-8.831s1.326-8.83,2.961-8.83Z" transform="translate(-3910.827 -4351.976)" fill="#231815"/><path d="M.548,0H17.909a.548.548,0,0,1,.548.548v0a.548.548,0,0,1-.548.548H.547A.547.547,0,0,1,0,.549v0A.548.548,0,0,1,.548,0Z" transform="translate(60.818 31.974)" fill="#bebfbf"/><path d="M3948.114,4344.758h1.016a.309.309,0,0,1-.308-.31v-.478a.308.308,0,0,1,.308-.308h-1.016Z" transform="translate(-3887.996 -4311.689)" fill="#888"/><path d="M.6,0H17.86a.6.6,0,0,1,.6.6v0a.6.6,0,0,1-.6.6H.6A.6.6,0,0,1,0,.6v0A.6.6,0,0,1,.6,0Z" transform="translate(60.818 42.74)" fill="#9e9e9f"/><path d="M3998.737,4390.912h-2.047c-.6,0-1.1.532-1.5,1.29.007.013.013.026.019.039.062.118.121.238.178.366h2.5c1.208,0,2.249,2.163,2.708,5.262h.519s.362.011.362-.55C4001.473,4396.344,4000.486,4390.912,3998.737,4390.912Z" transform="translate(-3923.156 -4346.979)" fill="#383231"/><path d="M4000.053,4406.433c0,4.876-1.326,8.831-2.96,8.831s-2.962-3.954-2.962-8.831,1.326-8.83,2.962-8.83S4000.053,4401.556,4000.053,4406.433Z" transform="translate(-3922.365 -4351.976)" fill="#595757"/><path d="M4003.365,4416.115c0,3.063-.756,5.547-1.687,5.547s-1.687-2.484-1.687-5.547.755-5.549,1.688-5.549S4003.365,4413.051,4003.365,4416.115Z" transform="translate(-3926.741 -4361.659)" fill="#eeeeef"/><path d="M3759.251,4440.763c.315,3.866,1.483,6.737,2.876,6.737s2.561-2.871,2.876-6.737Z" transform="translate(-3746.936 -4384.212)" fill="#231815"/><path d="M3747.714,4440.763h-3.91c.315,3.866,1.482,6.737,2.876,6.737h3.91C3749.2,4447.5,3748.029,4444.629,3747.714,4440.763Z" transform="translate(-3735.398 -4384.212)" fill="#3e3a39"/><path d="M3838.7,4440.763c.315,3.866,1.483,6.737,2.876,6.737s2.561-2.871,2.876-6.737Z" transform="translate(-3806.277 -4384.212)" fill="#231815"/><path d="M3827.162,4440.763h-3.911c.316,3.866,1.484,6.737,2.877,6.737h3.91C3828.645,4447.5,3827.477,4444.629,3827.162,4440.763Z" transform="translate(-3794.737 -4384.212)" fill="#3e3a39"/><path d="M3920.53,4406.433c0,4.876-1.325,8.831-2.96,8.831s-2.96-3.954-2.96-8.831,1.326-8.83,2.96-8.83S3920.53,4401.556,3920.53,4406.433Z" transform="translate(-3862.971 -4351.976)" fill="#595757"/><path d="M3923.841,4416.115c0,3.063-.755,5.547-1.687,5.547s-1.688-2.484-1.688-5.547.756-5.549,1.688-5.549S3923.841,4413.051,3923.841,4416.115Z" transform="translate(-3867.345 -4361.659)" fill="#eeeeef"/><path d="M3919.7,4395.935c0-4.877,1.326-8.83,2.961-8.83h-2.5c-.062-.139-.125-.277-.192-.4-.068.129-.132.264-.2.4h0c-.046.1-.092.211-.136.32a15.936,15.936,0,0,0-.983,4.392.546.546,0,0,1-.574.55h-4.032s-.362.011-.362-.55a16.464,16.464,0,0,1,1-4.392c.444-1.123,1.027-2.014,1.735-2.014l-11.332-.016c-.526-1.111-1.229-1.832-2.127-1.849-1.883-.036-2.579,2.614-3.125,5.425a26.21,26.21,0,0,1-1.317,5.3,7.681,7.681,0,0,1-2.812,3.2.08.08,0,0,1,0,.011,5.643,5.643,0,0,1-1.234.607,7.045,7.045,0,0,0,1.345.658c.394,3.493,1.5,6.013,2.8,6.013h3.909c-1.226,0-2.279-2.226-2.729-5.4h0a24.723,24.723,0,0,1-.232-3.432c0-4.877,1.326-8.83,2.96-8.83.7,0,1.346.729,1.853,1.944h0a10.839,10.839,0,0,1,.457,1.362.09.09,0,0,0,0,.012q.1.366.183.764l.008.036c.057.266.108.542.155.826,0,0,0,.006,0,.009q.07.434.125.892c0,.01,0,.02,0,.029.034.291.063.59.088.895,0,.027,0,.056.007.083.022.295.041.6.053.9,0,.026,0,.052,0,.08.013.326.02.659.02,1,0,.274,0,.546-.013.812,0,.111-.009.22-.014.329-.009.19-.016.381-.029.565.041-.058.077-.121.115-.183h6.956a1.247,1.247,0,0,0,1.242-1h2.045c.09,4.634,1.379,8.308,2.956,8.308h3.91C3921.022,4404.765,3919.7,4400.811,3919.7,4395.935Z" transform="translate(-3847.93 -4341.478)" fill="#231815"/><path d="M3920.53,4406.433c0,4.876-1.325,8.831-2.96,8.831s-2.96-3.954-2.96-8.831,1.326-8.83,2.96-8.83S3920.53,4401.556,3920.53,4406.433Z" transform="translate(-3862.971 -4351.976)" fill="#595757"/><path d="M3923.841,4416.115c0,3.063-.755,5.547-1.687,5.547s-1.688-2.484-1.688-5.547.756-5.549,1.688-5.549S3923.841,4413.051,3923.841,4416.115Z" transform="translate(-3867.345 -4361.659)" fill="#eeeeef"/><path d="M4005.671,4427.58c0,.918-.227,1.664-.507,1.664s-.506-.745-.506-1.664.227-1.665.506-1.665S4005.671,4426.659,4005.671,4427.58Z" transform="translate(-3930.228 -4373.123)" fill="#595757"/><path d="M3926.144,4427.58c0,.918-.227,1.664-.505,1.664s-.507-.745-.507-1.664.227-1.665.507-1.665S3926.144,4426.659,3926.144,4427.58Z" transform="translate(-3870.831 -4373.123)" fill="#595757"/><path d="M4002.137,4423.473c-1,0-1.532-2.38-1.532-4.62s.537-4.622,1.532-4.622,1.532,2.381,1.532,4.622S4003.132,4423.473,4002.137,4423.473Zm0-8.878c-.551,0-1.168,1.821-1.168,4.258s.617,4.256,1.168,4.256,1.168-1.821,1.168-4.256S4002.688,4414.6,4002.137,4414.6Z" transform="translate(-3927.201 -4364.396)" fill="#231815"/><path d="M3922.613,4423.473c-1,0-1.532-2.38-1.532-4.62s.537-4.622,1.532-4.622,1.532,2.381,1.532,4.622S3923.608,4423.473,3922.613,4423.473Zm0-8.878c-.488,0-1.168,1.62-1.168,4.258s.68,4.256,1.168,4.256,1.167-1.62,1.167-4.256S3923.1,4414.6,3922.613,4414.6Z" transform="translate(-3867.805 -4364.396)" fill="#231815"/><path d="M3885.833,4393.127s-.969,12.057-1.939,12.057h2.841a7.477,7.477,0,0,0,3.88-3.752c.927-1.933,1.187-5.78,2.069-8.3Z" transform="translate(-3840.03 -4348.633)" fill="#1a1a1a"/><path d="M3899.562,4382.372h-5.823l-2.183,2.723h6.851a3.574,3.574,0,0,1,1.628-2.282A.453.453,0,0,0,3899.562,4382.372Z" transform="translate(-3845.753 -4340.601)" fill="#262626"/><path d="M3710.593,4393.127s-.021,12.057,3.616,12.057h40.248c.971,0,1.94-12.057,1.94-12.057Z" transform="translate(-3710.593 -4348.633)" fill="#333"/><path d="M3710.593,4385.094l1.313-2.723h46.672l-2.183,2.723Z" transform="translate(-3710.593 -4340.6)" fill="#4d4d4d"/><path d="M3901.825,4350.512h-.985v2.457h1.4v-1.779S3902.2,4350.512,3901.825,4350.512Z" transform="translate(-3852.687 -4316.805)" fill="#ec6c00"/><rect width="1.395" height="5.605" transform="translate(48.153 36.166)" fill="#dbdcdc"/><path d="M3729.232,4242.484c-4.243,0-5.227,2.586-5.227,2.586s-7.625,18.24-7.942,18.929a4.688,4.688,0,0,0-.191,1.921l-.09,3.907h5.954c2.138,0,2.144,2.456,2.144,2.456v5.608h38.742v-12.816l.084-1.076s.562-16.873.761-18.5a3.4,3.4,0,0,1,3.151-3.015Zm32.518,20.739c-.031.516-.315,1.712-2.306,1.712H3719.7c-.9,0-1.276-.333-1.435-.613a1.289,1.289,0,0,1,.127-1.314c.229-.383,2-4.773,3.569-8.646,1.961-4.851,3.166-7.817,3.354-8.114l.023-.037a2.25,2.25,0,0,1,1.885-1.361c.9-.026,4.259-.039,9.982-.039,5.6,0,13.256.012,22.746.036l.891,0a1.858,1.858,0,0,1,1.289.582,1.647,1.647,0,0,1,.466,1.219C3762.552,4247.594,3761.8,4262.446,3761.75,4263.224Z" transform="translate(-3714.469 -4236.119)" fill="#e2e2e2"/><path d="M3770.623,4255.1a1.1,1.1,0,0,0-.315-.815,1.315,1.315,0,0,0-.895-.414l-.892,0c-9.489-.024-17.141-.037-22.745-.037-5.719,0-9.071.013-9.966.039-.751.021-1.071.526-1.441,1.109l-.023.037c-.179.287-1.842,4.4-3.309,8.026-2.027,5.015-3.375,8.331-3.607,8.721a.8.8,0,0,0-.121.766c.124.218.466.337.961.337h39.743c1.122,0,1.714-.4,1.762-1.2C3769.821,4270.886,3770.576,4256.04,3770.623,4255.1Z" transform="translate(-3723.037 -4244.592)" fill="#fff" opacity="0.4"/><path d="M3766.4,4271.8h-39.743c-.9,0-1.276-.333-1.435-.613a1.287,1.287,0,0,1,.127-1.314c.229-.384,2-4.774,3.569-8.646,1.961-4.851,3.166-7.818,3.354-8.114l.024-.037a2.248,2.248,0,0,1,1.885-1.362c.9-.026,4.258-.039,9.981-.039,5.6,0,13.256.012,22.746.035l.891,0a1.853,1.853,0,0,1,1.289.583,1.643,1.643,0,0,1,.466,1.218c-.047.944-.8,15.8-.849,16.574C3768.675,4270.6,3768.39,4271.8,3766.4,4271.8Zm-22.236-19.58c-5.718,0-9.071.013-9.966.039-.751.021-1.071.525-1.44,1.109l-.024.037c-.178.287-1.841,4.4-3.309,8.026-2.027,5.014-3.374,8.33-3.607,8.721a.8.8,0,0,0-.122.765c.125.218.466.337.961.337H3766.4c1.122,0,1.714-.4,1.762-1.2.046-.778.8-15.625.848-16.568a1.093,1.093,0,0,0-.315-.815,1.315,1.315,0,0,0-.894-.414l-.893,0C3757.419,4252.232,3749.767,4252.219,3744.163,4252.219Z" transform="translate(-3721.424 -4242.984)"/><path d="M3721.736,4350.512h-5.954v2.457h8.1S3723.873,4350.512,3721.736,4350.512Z" transform="translate(-3714.469 -4316.805)" fill="#f29600"/><rect width="8.098" height="5.605" transform="translate(1.313 36.166)" fill="#fff"/><path d="M2.605,0h0a2.6,2.6,0,0,1,2.6,2.6V4.669a2.6,2.6,0,0,1-2.6,2.6h0A2.606,2.606,0,0,1,0,4.668V2.605A2.605,2.605,0,0,1,2.605,0Z" transform="translate(51.15 21.612)"/><path d="M3870.8,4350.512h6v2.457h-8.146S3868.664,4350.512,3870.8,4350.512Z" transform="translate(-3828.65 -4316.805)" fill="#f29600"/><rect width="8.146" height="5.605" transform="translate(40.007 36.166)" fill="#fff"/><path d="M3759.585,4400.4a1.238,1.238,0,0,1-1.238,1.237h-39.9a1.237,1.237,0,0,1-1.237-1.237v-.526a1.237,1.237,0,0,1,1.237-1.237h39.9a1.238,1.238,0,0,1,1.238,1.237Z" transform="translate(-3715.539 -4352.747)"/><path d="M1.5,0H4.647a1.5,1.5,0,0,1,1.5,1.5v0A1.5,1.5,0,0,1,4.647,3H1.5A1.5,1.5,0,0,1,0,1.5v0A1.5,1.5,0,0,1,1.5,0Z" transform="translate(1.676 45.888)" fill="#c8c9ca"/><path d="M1.5,0H4.646a1.5,1.5,0,0,1,1.5,1.5v0A1.5,1.5,0,0,1,4.646,3H1.5A1.5,1.5,0,0,1,0,1.5v0A1.5,1.5,0,0,1,1.5,0Z" transform="translate(37.972 45.888)" fill="#c8c9ca"/><path d="M1.223,0H15.764a1.222,1.222,0,0,1,1.222,1.222V3.341a1.222,1.222,0,0,1-1.222,1.222H1.223A1.223,1.223,0,0,1,0,3.34V1.223A1.223,1.223,0,0,1,1.223,0Z" transform="translate(14.026 47.747)" fill="#d9d9d9"/><path d="M3935.193,4340.537a.309.309,0,0,0,.309.31h1.443a.308.308,0,0,0,.308-.31v-.928a.309.309,0,0,0-.308-.31H3935.5a.31.31,0,0,0-.309.31Z" transform="translate(-3878.345 -4308.43)" fill="#262626"/><rect width="18.643" height="9.672" transform="translate(60.122 33.072)" fill="#b4b4b5"/><path d="M3949.064,4362.731a.3.3,0,0,1-.243-.3v-.576a.309.309,0,0,1,.308-.31h-.6v-8.354h-.413v8.354h0v1.182Z" transform="translate(-3887.996 -4318.809)" fill="#888"/><rect width="3.728" height="6.546" transform="translate(60.452 49.615)" fill="#c8c9ca"/><g transform="translate(65.75 43.933)"><path d="M3970.364,4403.261c0,.561.362.55.362.55h4.032a.546.546,0,0,0,.574-.55,15.953,15.953,0,0,1,.983-4.393h-4.949A16.475,16.475,0,0,0,3970.364,4403.261Z" transform="translate(-3970.364 -4396.854)" fill="#b3b3b3"/><path d="M3981.1,4390.912h-5.047c-.708,0-1.291.891-1.735,2.014h4.949C3979.721,4391.8,3980.329,4390.912,3981.1,4390.912Z" transform="translate(-3973.321 -4390.912)" fill="#717071"/></g><rect width="18.643" height="1.315" transform="translate(60.122 33.072)" fill="#9e9e9f"/><g transform="translate(63.262 2.302)"><path d="M3983.373,4226.438s.957,1.447,1.788,1.447c1.006,0,1.857-1.558,1.857-1.447,0,.137-.716,2.067-1.857,2.067S3983.353,4226.646,3983.373,4226.438Z" transform="translate(-3977.592 -4226.432)" fill="#47856b"/><path d="M4006.1,4226.438s.955,1.447,1.787,1.447c1.006,0,1.856-1.558,1.856-1.447,0,.137-.715,2.067-1.856,2.067S4006.081,4226.646,4006.1,4226.438Z" transform="translate(-3994.568 -4226.432)" fill="#47856b"/><path d="M3960.534,4226.438s.956,1.447,1.787,1.447c1.006,0,1.858-1.558,1.858-1.447,0,.137-.717,2.067-1.858,2.067S3960.514,4226.646,3960.534,4226.438Z" transform="translate(-3960.534 -4226.432)" fill="#47856b"/></g><g transform="translate(63.262 2.165)"><path d="M3983.374,4225.967c0-.329.957.748,1.788.748,1.006,0,1.857-1.119,1.857-.748a2.2,2.2,0,0,1-1.857,1.421C3984.021,4227.389,3983.374,4226.043,3983.374,4225.967Z" transform="translate(-3977.594 -4225.892)" fill="#27654d"/><path d="M4006.1,4225.967c0-.329.956.748,1.788.748,1.006,0,1.856-1.119,1.856-.748a2.2,2.2,0,0,1-1.856,1.421C4006.75,4227.389,4006.1,4226.043,4006.1,4225.967Z" transform="translate(-3994.57 -4225.892)" fill="#27654d"/><path d="M3960.536,4225.967c0-.329.956.748,1.788.748,1.005,0,1.857-1.119,1.857-.748a2.2,2.2,0,0,1-1.857,1.421C3961.182,4227.389,3960.536,4226.043,3960.536,4225.967Z" transform="translate(-3960.536 -4225.892)" fill="#27654d"/></g><g transform="translate(69.461 29.305)"><path d="M3989.816,4337.21c0-.141-.2.328-.429.7-.284.456-.414.386-.415.526s.223.061.455-.277A2.425,2.425,0,0,0,3989.816,4337.21Z" transform="translate(-3987.973 -4336.156)" fill="#47856b"/><path d="M3989.667,4333.139c0-.133-.216.423-.427,1.026a5.671,5.671,0,0,0-.354,1.026c.006.144.226-.178.44-.752A5.61,5.61,0,0,0,3989.667,4333.139Z" transform="translate(-3987.908 -4333.119)" fill="#27654d"/><path d="M3985.024,4337.21c0-.141.2.328.429.7.285.456.413.386.415.526s-.222.061-.455-.277A2.445,2.445,0,0,1,3985.024,4337.21Z" transform="translate(-3985.024 -4336.156)" fill="#47856b"/><path d="M3985.356,4333.139c0-.133.216.423.428,1.026a5.548,5.548,0,0,1,.354,1.026c-.007.144-.226-.178-.441-.752A5.68,5.68,0,0,1,3985.356,4333.139Z" transform="translate(-3985.272 -4333.119)" fill="#27654d"/></g><g transform="translate(76.662 29.305)"><path d="M4018.269,4337.21c0-.141-.2.328-.43.7-.283.456-.413.386-.414.526s.222.061.456-.277A2.461,2.461,0,0,0,4018.269,4337.21Z" transform="translate(-4016.426 -4336.156)" fill="#47856b"/><path d="M4018.121,4333.139c0-.133-.215.423-.428,1.026a5.474,5.474,0,0,0-.353,1.026c.006.144.226-.178.44-.752A5.691,5.691,0,0,0,4018.121,4333.139Z" transform="translate(-4016.362 -4333.119)" fill="#27654d"/><path d="M4013.477,4337.21c0-.141.2.328.43.7.283.456.413.386.414.526s-.222.061-.455-.277A2.445,2.445,0,0,1,4013.477,4337.21Z" transform="translate(-4013.477 -4336.156)" fill="#47856b"/><path d="M4013.81,4333.139c0-.133.216.423.427,1.026a5.594,5.594,0,0,1,.354,1.026c-.006.144-.226-.178-.44-.752A5.653,5.653,0,0,1,4013.81,4333.139Z" transform="translate(-4013.726 -4333.119)" fill="#27654d"/></g><g transform="translate(63.153 29.305)"><path d="M3964.9,4337.21c0-.141-.2.328-.429.7-.284.456-.414.386-.415.526s.222.061.455-.277A2.44,2.44,0,0,0,3964.9,4337.21Z" transform="translate(-3963.052 -4336.156)" fill="#47856b"/><path d="M3964.748,4333.139c0-.133-.215.423-.427,1.026a5.515,5.515,0,0,0-.354,1.026c.006.144.226-.178.44-.752A5.664,5.664,0,0,0,3964.748,4333.139Z" transform="translate(-3962.989 -4333.119)" fill="#27654d"/><path d="M3960.1,4337.21c0-.141.2.328.429.7.285.456.414.386.415.526s-.221.061-.454-.277A2.443,2.443,0,0,1,3960.1,4337.21Z" transform="translate(-3960.104 -4336.156)" fill="#47856b"/><path d="M3960.437,4333.139c0-.133.216.423.428,1.026a5.548,5.548,0,0,1,.354,1.026c-.006.144-.226-.178-.441-.752A5.735,5.735,0,0,1,3960.437,4333.139Z" transform="translate(-3960.353 -4333.119)" fill="#27654d"/></g><path d="M3961.113,4355.453h-.006a.109.109,0,0,1-.1-.114l.583-12.124a.11.11,0,0,1,.109-.1h.006a.11.11,0,0,1,.1.115l-.583,12.123A.109.109,0,0,1,3961.113,4355.453Z" transform="translate(-3897.623 -4311.277)" fill="#717071"/><path d="M3989.157,4355.453a.109.109,0,0,1-.108-.1l-.548-12.123a.111.111,0,0,1,.1-.114.109.109,0,0,1,.114.1l.547,12.123a.108.108,0,0,1-.1.113Z" transform="translate(-3918.16 -4311.277)" fill="#717071"/><path d="M4014.957,4355.453h-.006a.109.109,0,0,1-.1-.113l.582-12.124a.105.105,0,0,1,.115-.1.109.109,0,0,1,.1.114l-.583,12.123A.109.109,0,0,1,4014.957,4355.453Z" transform="translate(-3937.838 -4311.277)" fill="#717071"/></g><g transform="translate(47.881 37.865)"><rect width="1.29" height="1.29" transform="translate(6.181 4.486)" fill="#03a58e"/><path d="M194.26,218.543v-1.29h1.025l-2.96-1.906-2.96,1.906h1.025v3.869h1.29v-1.29h1.29v-1.29h1.287v1.29h-1.287v1.29h1.29v-1.29h1.287v-1.29Z" transform="translate(-189.366 -215.347)" fill="#03a58e"/></g><g transform="translate(56.006 37.724)"><path d="M330.026,214.455l-3.317.1a.8.8,0,0,0,.45-1.187l.015-.005h0l.441-.152a.029.029,0,0,0,.018-.038c0-.013-.014-.019-.032-.02l-.52.022-.092-.006a.8.8,0,1,0-.712,1.4h0v0h0l-.221,2.175-.54,1.8h0l-.014.047-.072.239h0a.054.054,0,0,0,.052.07h1.2a.061.061,0,0,0,.061-.061V218.6a.061.061,0,0,0-.061-.061h-.129l.461-1.539,1.408.215v1.605a.075.075,0,0,0,.075.075h1.2a.061.061,0,0,0,.061-.061V218.6a.061.061,0,0,0-.061-.061h-.262v-2.058a.159.159,0,0,0-.135-.157L327.146,216l.046-.45,2.864-.083a.08.08,0,0,0,.078-.082l-.025-.852A.08.08,0,0,0,330.026,214.455Zm-4.1-.548a.566.566,0,0,1-.014-.113l.068-.023.945-.325a.562.562,0,0,1-.325.885.562.562,0,0,1-.673-.424Z" transform="translate(-325.426 -212.977)" fill="#1a1311"/><path d="M446.773,230.467h-.629v-.87a.085.085,0,0,0-.085-.085h-.772a.085.085,0,0,0-.085.085v.87h-1.156a.085.085,0,0,0-.085.085v.772a.085.085,0,0,0,.085.085H445.2v2.7h-.229a.072.072,0,0,0-.072.072v.188a.072.072,0,0,0,.072.072h1.1a.075.075,0,0,0,.075-.075V231.41h.629a.085.085,0,0,0,.085-.085v-.772A.085.085,0,0,0,446.773,230.467Z" transform="translate(-436.882 -228.524)" fill="#1a1311"/><path d="M528.414,235.46h-.565v-.568a.071.071,0,0,0-.071-.071h-.708a.071.071,0,0,0-.071.071v.568h-.929a.071.071,0,0,0-.071.071v.8a.071.071,0,0,0,.071.071H527v1.382a.8.8,0,0,1-.8.8h-.139a.066.066,0,0,0-.066.066v.718a.065.065,0,0,0,.066.066h.139a1.644,1.644,0,0,0,1.644-1.644V236.4h.565a.071.071,0,0,0,.071-.071v-.8A.071.071,0,0,0,528.414,235.46Z" transform="translate(-514.021 -233.517)" fill="#1a1311"/><path d="M579.435,228.163h.815a.086.086,0,0,0,.086-.086v-.853h.763a.048.048,0,0,0,.048-.048v-1.4a.08.08,0,0,0-.08-.08h-.054v0h-1.766v-.728a.076.076,0,0,0-.076-.076h-.749a.076.076,0,0,0-.076.076v.728h-1.82a.08.08,0,0,0-.08.08v1.379a.076.076,0,0,0,.076.076h.735v.853a.086.086,0,0,0,.086.086h1v.2h-1.265a.076.076,0,0,0-.076.076v.548a.076.076,0,0,0,.076.076h1.265v.184h-1.823a.076.076,0,0,0-.076.076v.548a.076.076,0,0,0,.076.076h4.547a.076.076,0,0,0,.076-.076v-.548a.076.076,0,0,0-.076-.076h-1.823v-.184h1.265a.076.076,0,0,0,.076-.076v-.548a.076.076,0,0,0-.076-.076h-1.265v-.2Zm-2.087-1.539v-.165h2.9v.165Zm.811.779v-.019a.086.086,0,0,1,.086-.086h1.1a.086.086,0,0,1,.086.086v.019a.086.086,0,0,1-.086.086h-1.1A.086.086,0,0,1,578.159,227.4Z" transform="translate(-561.456 -224.176)" fill="#1a1311"/><path d="M502.1,248.609H501.9v-3.031a.071.071,0,0,0-.071-.071h-.714a.071.071,0,0,0-.071.071v3.241a.091.091,0,0,0,.092.091h.958a.079.079,0,0,0,.079-.079v-.144A.079.079,0,0,0,502.1,248.609Z" transform="translate(-490.561 -243.565)" fill="#1a1311"/><path d="M447.356,275.167a.446.446,0,1,0,.446.446A.446.446,0,0,0,447.356,275.167Z" transform="translate(-439.655 -271.453)" fill="#1a1311"/><path d="M588.512,222.931a.446.446,0,1,0-.446-.446A.446.446,0,0,0,588.512,222.931Z" transform="translate(-572.381 -221.497)" fill="#1a1311"/><path d="M629.02,222.931a.446.446,0,1,0-.446-.446A.446.446,0,0,0,629.02,222.931Z" transform="translate(-610.47 -221.497)" fill="#1a1311"/><path d="M410.193,230.332l-.7-.353a.08.08,0,0,0-.107.035l-.657,1.312h0l-.285.571a.08.08,0,0,0,.036.107l.568.283v2.5a.087.087,0,0,0,.087.087h.768a.087.087,0,0,0,.087-.087v-2.762a.118.118,0,0,0-.065-.105l-.35-.174.655-1.308A.08.08,0,0,0,410.193,230.332Z" transform="translate(-403.476 -228.956)" fill="#1a1311"/></g></g></g></g></g></g></svg>