<svg xmlns="http://www.w3.org/2000/svg" xmlns:xlink="http://www.w3.org/1999/xlink" width="815" height="215" viewBox="0 0 815 215"><defs><filter id="a" x="0" y="0" width="815" height="215" filterUnits="userSpaceOnUse"><feOffset input="SourceAlpha"/><feGaussianBlur stdDeviation="2.5" result="b"/><feFlood flood-opacity="0.161"/><feComposite operator="in" in2="b"/><feComposite in="SourceGraphic"/></filter><clipPath id="c"><rect width="312.821" height="6.078" fill="none"/></clipPath><clipPath id="d"><rect width="240.821" height="6.078" fill="none"/></clipPath></defs><g transform="translate(7.5 7.5)"><g transform="matrix(1, 0, 0, 1, -7.5, -7.5)" filter="url(#a)"><path d="M0,0H800V200H0Z" transform="translate(7.5 7.5)" fill="#fff"/></g><path d="M0,0H388V118H0Z" transform="translate(9 73)" fill="#004099"/><path d="M0,0H388V118H0Z" transform="translate(403 73)" fill="#004099"/><path d="M0,0H800V68H0Z" fill="#fff20e"/><g transform="translate(-283 -5815)"><path d="M2.184,1.352l-.468-.6a2,2,0,0,1-.182-2.392,15.431,15.431,0,0,0,1.508-4.5,36.332,36.332,0,0,0,.468-6.4v-6.89a1.381,1.381,0,0,1,.442-1.027,1.444,1.444,0,0,1,1.04-.429h.416a1.444,1.444,0,0,1,1.04.429,1.381,1.381,0,0,1,.442,1.027v4.16a.207.207,0,0,0,.234.234H13.78q.208,0,.208-.234v-4.42a1.381,1.381,0,0,1,.442-1.027,1.444,1.444,0,0,1,1.04-.429h.52a1.444,1.444,0,0,1,1.04.429,1.381,1.381,0,0,1,.442,1.027v4.42q0,.234.208.234H23.4a1.444,1.444,0,0,1,1.04.429,1.381,1.381,0,0,1,.442,1.027,1.423,1.423,0,0,1-.442,1.04,1.423,1.423,0,0,1-1.04.442H7.124a.207.207,0,0,0-.234.234v1.768q0,.832-.026,1.248a.184.184,0,0,0,.208.208h11.18a1.381,1.381,0,0,1,1.027.442,1.444,1.444,0,0,1,.429,1.04V.962a1.4,1.4,0,0,1-.429,1.027,1.4,1.4,0,0,1-1.027.429h-.52a1.444,1.444,0,0,1-1.04-.429A1.381,1.381,0,0,1,16.25.962V-5.46q0-.208-.234-.208H6.786a.246.246,0,0,0-.26.208A17.824,17.824,0,0,1,3.978,1.326a1,1,0,0,1-.884.468A1.086,1.086,0,0,1,2.184,1.352ZM35.672-14.56A1.423,1.423,0,0,1,34.632-15a1.423,1.423,0,0,1-.442-1.04,1.381,1.381,0,0,1,.442-1.027,1.444,1.444,0,0,1,1.04-.429h9.516a.207.207,0,0,0,.234-.234v-1.95a1.4,1.4,0,0,1,.429-1.027,1.4,1.4,0,0,1,1.027-.429h.52a1.444,1.444,0,0,1,1.04.429,1.381,1.381,0,0,1,.442,1.027v1.95a.207.207,0,0,0,.234.234h.494a1.444,1.444,0,0,1,1.04.429,1.381,1.381,0,0,1,.442,1.027A1.423,1.423,0,0,1,50.648-15a1.423,1.423,0,0,1-1.04.442h-.494a.207.207,0,0,0-.234.234V-1.95q0,1.066-.039,1.677A4.391,4.391,0,0,1,48.62.871a2.009,2.009,0,0,1-.416.767,1.906,1.906,0,0,1-.78.4,5,5,0,0,1-1.17.208q-.624.039-1.716.039-1.742,0-3.016-.052a1.549,1.549,0,0,1-1.066-.468A1.658,1.658,0,0,1,39.962.7a1.334,1.334,0,0,1,.39-1.027,1.276,1.276,0,0,1,1.014-.4q1.69.078,2.574.078a2.683,2.683,0,0,0,1.274-.169q.208-.169.208-1.053V-14.326a.207.207,0,0,0-.234-.234ZM41.21-4.784l-.182.1a1.429,1.429,0,0,1-1.118.117,1.4,1.4,0,0,1-.884-.689Q37.648-7.644,36.27-9.646a1.486,1.486,0,0,1-.234-1.105,1.345,1.345,0,0,1,.624-.923l.182-.13a1.412,1.412,0,0,1,1.1-.221,1.428,1.428,0,0,1,.949.611q1.768,2.626,2.886,4.628a1.33,1.33,0,0,1,.13,1.118A1.446,1.446,0,0,1,41.21-4.784Zm-14.066-2.7-.312-1.144a3.183,3.183,0,0,1,.442-2.626,26.4,26.4,0,0,0,3.406-8.528,1.492,1.492,0,0,1,.65-.949,1.479,1.479,0,0,1,1.118-.247l.286.052a1.471,1.471,0,0,1,.936.624,1.43,1.43,0,0,1,.234,1.092,29.391,29.391,0,0,1-1.04,3.822,1.316,1.316,0,0,0-.052.442V.962a1.381,1.381,0,0,1-.442,1.027,1.444,1.444,0,0,1-1.04.429h-.39a1.444,1.444,0,0,1-1.04-.429A1.381,1.381,0,0,1,29.458.962V-8.632q0-.052-.039-.052a.088.088,0,0,0-.065.026q-.416.7-.936,1.43a.675.675,0,0,1-.715.273A.705.705,0,0,1,27.144-7.488Zm36.036-5.07A1.423,1.423,0,0,1,62.14-13a1.423,1.423,0,0,1-.442-1.04,1.423,1.423,0,0,1,.442-1.04,1.423,1.423,0,0,1,1.04-.442h6.11a.184.184,0,0,0,.208-.208V-18.9a1.381,1.381,0,0,1,.442-1.027,1.444,1.444,0,0,1,1.04-.429h.338a1.444,1.444,0,0,1,1.04.429A1.381,1.381,0,0,1,72.8-18.9v3.172q0,.208.234.208H75.14a1.423,1.423,0,0,1,1.04.442,1.423,1.423,0,0,1,.442,1.04A1.423,1.423,0,0,1,76.18-13a1.423,1.423,0,0,1-1.04.442H73.034q-.234,0-.234.208v2.912q0,4.94-1.3,7.111T66.508.988a1.46,1.46,0,0,1-1.144-.1A1.526,1.526,0,0,1,64.61,0l-.078-.182A1.244,1.244,0,0,1,64.6-1.248a1.5,1.5,0,0,1,.845-.728,10.042,10.042,0,0,0,2.119-.9A3.4,3.4,0,0,0,68.77-4.2a5.541,5.541,0,0,0,.6-2.015,30.434,30.434,0,0,0,.13-3.224V-12.35a.184.184,0,0,0-.208-.208ZM57.356,1.248A1.622,1.622,0,0,1,56.212.975,1.5,1.5,0,0,1,55.562,0,43.694,43.694,0,0,1,54.6-9.36a43.694,43.694,0,0,1,.962-9.36,1.5,1.5,0,0,1,.65-.975,1.622,1.622,0,0,1,1.144-.273l.494.052a1.19,1.19,0,0,1,.91.546,1.3,1.3,0,0,1,.208,1.066,41.349,41.349,0,0,0-.91,8.944,41.349,41.349,0,0,0,.91,8.944A1.3,1.3,0,0,1,58.76.65a1.19,1.19,0,0,1-.91.546ZM80.99-10.92a1.423,1.423,0,0,1-1.04-.442,1.423,1.423,0,0,1-.442-1.04v-4.186a1.423,1.423,0,0,1,.442-1.04,1.423,1.423,0,0,1,1.04-.442h2.418a.125.125,0,0,0,.117-.078.1.1,0,0,0-.013-.13q-.546-.962-.6-1.04a1,1,0,0,1-.065-.975.983.983,0,0,1,.741-.611l.182-.026a2.163,2.163,0,0,1,1.261.117,1.9,1.9,0,0,1,.949.819q.416.676.962,1.716a.322.322,0,0,0,.338.208H89a.207.207,0,0,0,.234-.234V-20.15a1.444,1.444,0,0,1,.429-1.04,1.381,1.381,0,0,1,1.027-.442h.624a1.381,1.381,0,0,1,1.027.442,1.444,1.444,0,0,1,.429,1.04V-18.3A.207.207,0,0,0,93-18.07h1.82a.4.4,0,0,0,.338-.182q.676-1.2.988-1.768a1.741,1.741,0,0,1,.858-.832,1.889,1.889,0,0,1,1.2-.13l.1.026a1.174,1.174,0,0,1,.806.637,1.028,1.028,0,0,1,0,1q-.468.884-.572,1.04a.1.1,0,0,0-.013.13.125.125,0,0,0,.117.078h2.366a1.423,1.423,0,0,1,1.04.442,1.423,1.423,0,0,1,.442,1.04V-12.4a1.423,1.423,0,0,1-.442,1.04,1.423,1.423,0,0,1-1.04.442h-.442a1.371,1.371,0,0,1-1.352-.884l-.039-.039q-.013-.013-.039.013V-8.4a1.444,1.444,0,0,1-.429,1.04,1.381,1.381,0,0,1-1.027.442H93a.207.207,0,0,0-.234.234v1.118A.207.207,0,0,0,93-5.33H99.32a1.255,1.255,0,0,1,.923.377,1.255,1.255,0,0,1,.377.923,1.3,1.3,0,0,1-.377.936,1.234,1.234,0,0,1-.923.39H93q-.234,0-.234.208v1.3q0,.208.234.208h8.008a1.38,1.38,0,0,1,1.014.416A1.38,1.38,0,0,1,102.44.442a1.38,1.38,0,0,1-.416,1.014,1.38,1.38,0,0,1-1.014.416H80.99a1.38,1.38,0,0,1-1.014-.416A1.38,1.38,0,0,1,79.56.442a1.38,1.38,0,0,1,.416-1.014A1.38,1.38,0,0,1,80.99-.988H89q.234,0,.234-.208V-2.5q0-.208-.234-.208H82.68a1.234,1.234,0,0,1-.923-.39,1.3,1.3,0,0,1-.377-.936,1.255,1.255,0,0,1,.377-.923,1.255,1.255,0,0,1,.923-.377H89a.207.207,0,0,0,.234-.234V-6.682A.207.207,0,0,0,89-6.916h-4.68a1.381,1.381,0,0,1-1.027-.442,1.444,1.444,0,0,1-.429-1.04V-11.83q0-.052-.078.026a1.371,1.371,0,0,1-1.352.884ZM95.68-9.594v-2.158q0-.208-.234-.208H86.528a.184.184,0,0,0-.208.208v2.158q0,.234.208.234h8.918A.207.207,0,0,0,95.68-9.594Zm-12.558-5.8q-.234,0-.234.208v1.638q0,.026.026.013a.2.2,0,0,0,.052-.039,1.371,1.371,0,0,1,1.352-.884H97.682a1.371,1.371,0,0,1,1.352.884.2.2,0,0,0,.052.039q.026.013.026-.013v-1.638q0-.208-.234-.208Zm24.44-.13a1.372,1.372,0,0,1-.988-.4,1.308,1.308,0,0,1-.416-.975,1.308,1.308,0,0,1,.416-.975,1.372,1.372,0,0,1,.988-.4h3.978q.182,0,.286-.234l.468-1.248a1.689,1.689,0,0,1,.754-.923,1.68,1.68,0,0,1,1.17-.221l.442.1a1.284,1.284,0,0,1,.858.611,1.187,1.187,0,0,1,.1,1.027q-.052.13-.143.351t-.117.3q-.052.234.156.234h9.2a1.328,1.328,0,0,1,.975.4,1.328,1.328,0,0,1,.4.975,1.328,1.328,0,0,1-.4.975,1.328,1.328,0,0,1-.975.4H114.374a.3.3,0,0,0-.312.208q-.364.858-.884,1.95,0,.052.026.052h.026a7.188,7.188,0,0,1,2.652-.546,4.611,4.611,0,0,1,4.6,2.912.26.26,0,0,0,.338.156q2.08-.416,3.848-.65a1.339,1.339,0,0,1,1.04.286,1.313,1.313,0,0,1,.52.962,1.47,1.47,0,0,1-.312,1.066,1.4,1.4,0,0,1-.962.546q-2.262.338-3.484.6-.234.052-.182.26.156,1.378.182,2.34a1.354,1.354,0,0,1-.4,1.04,1.381,1.381,0,0,1-1.027.442h-.52a1.444,1.444,0,0,1-1.04-.429,1.476,1.476,0,0,1-.468-1.027q-.026-.7-.078-1.43,0-.234-.208-.182-4.186,1.456-4.186,3.146a1.754,1.754,0,0,0,.39,1.183,3.324,3.324,0,0,0,1.69.767,16.43,16.43,0,0,0,3.64.312,40.914,40.914,0,0,0,5.018-.39,1.393,1.393,0,0,1,1.079.3,1.34,1.34,0,0,1,.533.975,1.524,1.524,0,0,1-.325,1.1,1.451,1.451,0,0,1-1,.559,44.917,44.917,0,0,1-5.3.312q-4.888,0-7.046-1.157a3.821,3.821,0,0,1-2.158-3.6q0-4,7.02-6.344.234-.052.13-.26a2.193,2.193,0,0,0-2.106-1.092q-2.444,0-5.642,4.108a1.635,1.635,0,0,1-1.014.611,1.584,1.584,0,0,1-1.144-.2l-.208-.13a1.365,1.365,0,0,1-.624-.884,1.3,1.3,0,0,1,.208-1.066,46.352,46.352,0,0,0,3.822-6.578.2.2,0,0,0-.013-.156.125.125,0,0,0-.117-.078Zm39.39,2.288a1.46,1.46,0,0,1,1.144-.1,1.428,1.428,0,0,1,.884.728q.286.52.858,1.612a1.4,1.4,0,0,1,.052,1.118,1.428,1.428,0,0,1-.754.832A1.461,1.461,0,0,1,147.992-9a1.529,1.529,0,0,1-.858-.754q-.13-.234-.832-1.534a1.337,1.337,0,0,1-.1-1.092,1.426,1.426,0,0,1,.728-.858Zm4.342,2.7q-.13-.26-.416-.806t-.442-.806a1.429,1.429,0,0,1-.117-1.118,1.3,1.3,0,0,1,.715-.858l.078-.026a1.5,1.5,0,0,1,1.144-.117,1.382,1.382,0,0,1,.884.715q.858,1.638.884,1.69a1.367,1.367,0,0,1,.091,1.118,1.38,1.38,0,0,1-.741.832l-.078.052a1.463,1.463,0,0,1-1.131.065A1.476,1.476,0,0,1,151.294-10.53Zm-.754-7.332a1.423,1.423,0,0,1-.442,1.04,1.423,1.423,0,0,1-1.04.442H136.682a1.423,1.423,0,0,1-1.04-.442,1.423,1.423,0,0,1-.442-1.04v-.078a1.423,1.423,0,0,1,.442-1.04,1.423,1.423,0,0,1,1.04-.442h12.376a1.423,1.423,0,0,1,1.04.442,1.423,1.423,0,0,1,.442,1.04ZM142.818,1.222a14.435,14.435,0,0,1-7.306-1.56A4.691,4.691,0,0,1,132.86-4.5q0-2.418,2.99-5.59a1.489,1.489,0,0,1,1.066-.507,1.627,1.627,0,0,1,1.144.351l.182.13a1.193,1.193,0,0,1,.507.936,1.3,1.3,0,0,1-.351,1.014q-1.976,2.106-1.976,3.3A2.434,2.434,0,0,0,138.086-2.7a11.126,11.126,0,0,0,4.732.806,34.559,34.559,0,0,0,7.228-.858,1.415,1.415,0,0,1,1.1.2,1.306,1.306,0,0,1,.611.9l.052.208a1.491,1.491,0,0,1-.195,1.131,1.388,1.388,0,0,1-.923.663A39.269,39.269,0,0,1,142.818,1.222Zm14.534-3.458a1.958,1.958,0,0,1,.13-2.392,22.023,22.023,0,0,0,3.25-6.214q.052-.208-.156-.208h-2.028a1.372,1.372,0,0,1-1-.429,1.372,1.372,0,0,1-.429-1,1.372,1.372,0,0,1,.429-1,1.372,1.372,0,0,1,1-.429h2.834q.208,0,.208-.234v-2.99q0-.208-.234-.208-.78.078-2.34.182A1.346,1.346,0,0,1,158-17.472a1.322,1.322,0,0,1-.494-.936,1.251,1.251,0,0,1,.3-.962,1.291,1.291,0,0,1,.9-.468,77.614,77.614,0,0,0,8.424-1.118,1.564,1.564,0,0,1,1.079.182,1.568,1.568,0,0,1,.715.832,1.2,1.2,0,0,1-.091,1.014,1.14,1.14,0,0,1-.819.6q-1.43.312-2.99.546a.254.254,0,0,0-.234.26v3.38a.207.207,0,0,0,.234.234h3.016a1.359,1.359,0,0,1,1.014.429,1.393,1.393,0,0,1,.416,1,1.393,1.393,0,0,1-.416,1,1.359,1.359,0,0,1-1.014.429h-2.054a.125.125,0,0,0-.117.078.1.1,0,0,0,.013.13q2.912,4.524,3.094,4.836a1.583,1.583,0,0,1,.234,1.157,1.588,1.588,0,0,1-.6,1.027l-.052.026a1.084,1.084,0,0,1-.988.234,1.18,1.18,0,0,1-.806-.624l-1.872-3.588a.088.088,0,0,0-.065-.026q-.039,0-.039.052V.962a1.4,1.4,0,0,1-.429,1.027,1.4,1.4,0,0,1-1.027.429h-.26a1.444,1.444,0,0,1-1.04-.429A1.381,1.381,0,0,1,161.59.962V-6.214q-.026-.026-.078,0a20.159,20.159,0,0,1-2.262,4.446.894.894,0,0,1-.845.4,1.013,1.013,0,0,1-.819-.481ZM172.2-3.3a1.4,1.4,0,0,1-1.027-.429,1.4,1.4,0,0,1-.429-1.027v-13.52a1.444,1.444,0,0,1,.429-1.04,1.381,1.381,0,0,1,1.027-.442h.234a1.381,1.381,0,0,1,1.027.442,1.444,1.444,0,0,1,.429,1.04v13.52a1.4,1.4,0,0,1-.429,1.027,1.4,1.4,0,0,1-1.027.429Zm6.6-17.5a1.381,1.381,0,0,1,1.027.442,1.444,1.444,0,0,1,.429,1.04V-2a18.278,18.278,0,0,1-.078,1.95,6.462,6.462,0,0,1-.247,1.209,1.1,1.1,0,0,1-.624.728,4.325,4.325,0,0,1-1.04.286,11.425,11.425,0,0,1-1.651.091q-.572,0-2.366-.078a1.549,1.549,0,0,1-1.066-.468A1.658,1.658,0,0,1,172.692.65V.572a1.3,1.3,0,0,1,.39-1,1.276,1.276,0,0,1,1.014-.4q.936.052,1.794.052.728,0,.884-.169A2,2,0,0,0,176.93-2V-19.318a1.423,1.423,0,0,1,.442-1.04,1.423,1.423,0,0,1,1.04-.442Zm4.94,22.074a1.58,1.58,0,0,1-.6-1.014,1.721,1.721,0,0,1,.208-1.17,13.009,13.009,0,0,0,1.417-4.069,36.44,36.44,0,0,0,.4-6.123V-19.24a1.444,1.444,0,0,1,.429-1.04,1.381,1.381,0,0,1,1.027-.442h17.784a1.381,1.381,0,0,1,1.027.442,1.444,1.444,0,0,1,.429,1.04V-1.82a21.184,21.184,0,0,1-.091,2.327,2.118,2.118,0,0,1-.559,1.235,1.887,1.887,0,0,1-1.157.585,18.409,18.409,0,0,1-2.171.091q-1.092,0-1.95-.052a1.476,1.476,0,0,1-1.027-.468,1.661,1.661,0,0,1-.481-1.04,1.243,1.243,0,0,1,.377-.975,1.243,1.243,0,0,1,.975-.377q1.456.052,1.508.052a1.8,1.8,0,0,0,1.027-.169,1.8,1.8,0,0,0,.169-1.027v-3.38q0-.234-.208-.234h-5.226a.207.207,0,0,0-.234.234V.338a1.423,1.423,0,0,1-.442,1.04,1.423,1.423,0,0,1-1.04.442H195a1.423,1.423,0,0,1-1.04-.442,1.423,1.423,0,0,1-.442-1.04V-5.018q0-.234-.208-.234h-4.758a.254.254,0,0,0-.26.234,16.37,16.37,0,0,1-2.08,6.4,1.239,1.239,0,0,1-.9.585,1.318,1.318,0,0,1-1.053-.273ZM196.82-17.68v3.12q0,.208.234.208h5.226a.184.184,0,0,0,.208-.208v-3.12a.184.184,0,0,0-.208-.208h-5.226Q196.82-17.888,196.82-17.68Zm0,6.214v3.354a.207.207,0,0,0,.234.234h5.226q.208,0,.208-.234v-3.354q0-.234-.208-.234h-5.226A.207.207,0,0,0,196.82-11.466Zm-8.268-6.214v3.12a.184.184,0,0,0,.208.208h4.55a.184.184,0,0,0,.208-.208v-3.12a.184.184,0,0,0-.208-.208h-4.55A.184.184,0,0,0,188.552-17.68Zm0,8.06q0,1.04-.026,1.534a.184.184,0,0,0,.208.208h4.576q.208,0,.208-.234v-3.354q0-.234-.208-.234h-4.55q-.208,0-.208.234Zm37.44-2.574a1.46,1.46,0,0,1,1.144-.1,1.428,1.428,0,0,1,.884.728q.286.52.858,1.612a1.4,1.4,0,0,1,.052,1.118,1.428,1.428,0,0,1-.754.832,1.461,1.461,0,0,1-1.144.052,1.529,1.529,0,0,1-.858-.754q-.13-.234-.832-1.534a1.337,1.337,0,0,1-.1-1.092,1.426,1.426,0,0,1,.728-.858Zm6.188-.312q.858,1.638.884,1.69a1.367,1.367,0,0,1,.091,1.118,1.38,1.38,0,0,1-.741.832l-.078.052a1.463,1.463,0,0,1-1.131.065,1.476,1.476,0,0,1-.871-.741q-.13-.26-.416-.806t-.442-.806a1.429,1.429,0,0,1-.117-1.118,1.3,1.3,0,0,1,.715-.858l.078-.026a1.5,1.5,0,0,1,1.144-.117A1.382,1.382,0,0,1,232.18-12.506ZM211.25-15.34a1.4,1.4,0,0,1-1.027-.429,1.4,1.4,0,0,1-.429-1.027v-.182a1.423,1.423,0,0,1,.442-1.04,1.423,1.423,0,0,1,1.04-.442q8.892-.026,18.382-.442a1.458,1.458,0,0,1,1.066.39,1.393,1.393,0,0,1,.494,1.014v.182a1.475,1.475,0,0,1-.377,1.079,1.588,1.588,0,0,1-1.027.533q-5.538.7-8.307,2.886a6.574,6.574,0,0,0-2.769,5.33,5.476,5.476,0,0,0,1.755,4.316,6.765,6.765,0,0,0,4.667,1.56,13.827,13.827,0,0,0,1.716-.1,1.514,1.514,0,0,1,1.079.312,1.386,1.386,0,0,1,.559.962l.026.234a1.5,1.5,0,0,1-.286,1.1,1.359,1.359,0,0,1-.962.585,22.436,22.436,0,0,1-2.314.13,10.625,10.625,0,0,1-7.254-2.366,8.066,8.066,0,0,1-2.7-6.4,8.252,8.252,0,0,1,1.469-4.719,11.424,11.424,0,0,1,4.2-3.627q.026,0,.026-.052h-.026Q216.658-15.392,211.25-15.34Zm25.636-.624a1.444,1.444,0,0,1-1.04-.429,1.381,1.381,0,0,1-.442-1.027V-17.5a1.423,1.423,0,0,1,.442-1.04,1.423,1.423,0,0,1,1.04-.442h11.076a1.423,1.423,0,0,1,1.04.442,1.423,1.423,0,0,1,.442,1.04v.078A1.381,1.381,0,0,1,249-16.393a1.444,1.444,0,0,1-1.04.429h-3.484q-.208,0-.208.234V-1.482a1.423,1.423,0,0,1-.442,1.04,1.423,1.423,0,0,1-1.04.442h-.728a1.423,1.423,0,0,1-1.04-.442,1.423,1.423,0,0,1-.442-1.04V-15.73q0-.234-.208-.234ZM253.344-1.716a1.335,1.335,0,0,1-.754-.806,1.4,1.4,0,0,1,.052-1.118q1.508-3.146,2.86-6.4a1.516,1.516,0,0,1,.806-.832,1.546,1.546,0,0,1,1.144-.078l.39.13a1.34,1.34,0,0,1,.832.715,1.24,1.24,0,0,1,.026,1.079q-1.222,3.042-2.964,6.682a1.571,1.571,0,0,1-.845.793,1.529,1.529,0,0,1-1.157-.013Zm20.046.286a1.5,1.5,0,0,1-1.131-.026,1.422,1.422,0,0,1-.793-.806q-.936-2.288-2.938-6.76a1.363,1.363,0,0,1,0-1.1,1.334,1.334,0,0,1,.78-.767l.338-.13a1.528,1.528,0,0,1,1.157-.013,1.464,1.464,0,0,1,.845.793q1.456,3.12,2.99,6.76a1.39,1.39,0,0,1-.013,1.131,1.376,1.376,0,0,1-.819.767ZM271.492-17a1.629,1.629,0,0,0,1.2.494,1.629,1.629,0,0,0,1.2-.494,1.629,1.629,0,0,0,.494-1.2,1.629,1.629,0,0,0-.494-1.2,1.629,1.629,0,0,0-1.2-.494,1.629,1.629,0,0,0-1.2.494A1.629,1.629,0,0,0,271-18.2,1.629,1.629,0,0,0,271.492-17Zm-1.56-3.952a3.757,3.757,0,0,1,2.756-1.144,3.756,3.756,0,0,1,2.756,1.144,3.757,3.757,0,0,1,1.144,2.756,3.864,3.864,0,0,1-.559,2.041,3.744,3.744,0,0,1-1.521,1.417.305.305,0,0,0-.182.312.873.873,0,0,1-.273.637.873.873,0,0,1-.637.273h-7.54q-.208,0-.208.234V-2.418q0,2.6-.637,3.25t-3.185.65q-1.118,0-2.73-.156a1.326,1.326,0,0,1-.975-.546,1.527,1.527,0,0,1-.325-1.092v-.13a1.382,1.382,0,0,1,.533-.988,1.457,1.457,0,0,1,1.079-.338q1.3.1,1.638.1.754,0,.884-.169a2.354,2.354,0,0,0,.13-1.053v-10.4a.207.207,0,0,0-.234-.234h-7.54a1.381,1.381,0,0,1-1.027-.442A1.444,1.444,0,0,1,252.85-15v-.156a1.444,1.444,0,0,1,.429-1.04,1.381,1.381,0,0,1,1.027-.442h7.54a.207.207,0,0,0,.234-.234v-2.288a1.4,1.4,0,0,1,.429-1.027,1.4,1.4,0,0,1,1.027-.429h.65a1.445,1.445,0,0,1,1.04.429,1.381,1.381,0,0,1,.442,1.027v2.288q0,.234.208.234h3.016q.208,0,.156-.182a4.1,4.1,0,0,1-.26-1.378A3.757,3.757,0,0,1,269.932-20.956Zm9.464,12.3-.052-.286a1.356,1.356,0,0,1,.247-1.066,1.521,1.521,0,0,1,.949-.624,37.911,37.911,0,0,0,9.217-2.977,31.536,31.536,0,0,0,7.709-5.005,1.375,1.375,0,0,1,1.04-.39,1.343,1.343,0,0,1,.988.468l.208.234a1.448,1.448,0,0,1,.377,1.092,1.464,1.464,0,0,1-.507,1.04,34.611,34.611,0,0,1-6.266,4.368.337.337,0,0,0-.182.312.214.214,0,0,0,.013.065.214.214,0,0,1,.013.065V-.182a1.423,1.423,0,0,1-.442,1.04,1.423,1.423,0,0,1-1.04.442h-.78a1.423,1.423,0,0,1-1.04-.442,1.423,1.423,0,0,1-.442-1.04V-9.724q0-.182-.182-.13a40.887,40.887,0,0,1-8.138,2.418,1.374,1.374,0,0,1-1.092-.26A1.468,1.468,0,0,1,279.4-8.658Zm28.106-7.1a1.335,1.335,0,0,1-.728-.832,1.337,1.337,0,0,1,.1-1.092l.26-.52a1.427,1.427,0,0,1,.871-.728,1.577,1.577,0,0,1,1.157.078q2.574,1.248,5.434,2.808a1.4,1.4,0,0,1,.689.884,1.429,1.429,0,0,1-.117,1.118l-.286.52a1.4,1.4,0,0,1-.884.689,1.429,1.429,0,0,1-1.118-.117Q309.842-14.612,307.5-15.756Zm18.1-.832a1.444,1.444,0,0,1,.936.65,1.423,1.423,0,0,1,.208,1.118,18.673,18.673,0,0,1-5.993,10.452Q316.29-.6,308.724.364a1.434,1.434,0,0,1-1.105-.3,1.549,1.549,0,0,1-.585-1l-.052-.468a1.337,1.337,0,0,1,.26-1.079,1.386,1.386,0,0,1,.962-.559q6.4-.884,10.062-3.9a15.955,15.955,0,0,0,5.122-8.606,1.546,1.546,0,0,1,.676-.936,1.422,1.422,0,0,1,1.118-.208ZM336.206,1.378a1.4,1.4,0,0,1-1.027-.429,1.4,1.4,0,0,1-.429-1.027V-18.642a1.4,1.4,0,0,1,.429-1.027,1.4,1.4,0,0,1,1.027-.429h.7a1.445,1.445,0,0,1,1.04.429,1.381,1.381,0,0,1,.442,1.027v5.616q0,.234.182.26A130.274,130.274,0,0,1,351.156-9a1.477,1.477,0,0,1,.845.754,1.419,1.419,0,0,1,.065,1.144l-.156.494a1.435,1.435,0,0,1-.741.832,1.438,1.438,0,0,1-1.105.078Q343.9-7.852,338.572-9.2a.109.109,0,0,0-.13.039.224.224,0,0,0-.052.143V-.078a1.381,1.381,0,0,1-.442,1.027,1.445,1.445,0,0,1-1.04.429ZM371.93-17.264a1.337,1.337,0,0,1-.1-1.092,1.426,1.426,0,0,1,.728-.858h.026a1.46,1.46,0,0,1,1.144-.1,1.428,1.428,0,0,1,.884.728q.286.52.858,1.612a1.4,1.4,0,0,1,.052,1.118,1.428,1.428,0,0,1-.754.832,1.461,1.461,0,0,1-1.144.052,1.529,1.529,0,0,1-.858-.754Q372.632-15.964,371.93-17.264Zm4.81-2.86a1.5,1.5,0,0,1,1.144-.117,1.382,1.382,0,0,1,.884.715q.858,1.638.884,1.69a1.367,1.367,0,0,1,.091,1.118,1.38,1.38,0,0,1-.741.832l-.078.052a1.463,1.463,0,0,1-1.131.065,1.476,1.476,0,0,1-.871-.741q-.13-.26-.416-.806t-.442-.806a1.429,1.429,0,0,1-.117-1.118,1.3,1.3,0,0,1,.715-.858Zm-18.434,6.942a1.4,1.4,0,0,1-1.027-.429,1.4,1.4,0,0,1-.429-1.027,1.445,1.445,0,0,1,.429-1.04,1.381,1.381,0,0,1,1.027-.442h2.886a.254.254,0,0,0,.26-.234q.39-1.716.7-3.562a1.648,1.648,0,0,1,.611-.975,1.524,1.524,0,0,1,1.105-.325l.182.026a1.3,1.3,0,0,1,.962.533,1.337,1.337,0,0,1,.26,1.079q-.338,1.976-.572,3.25-.052.208.182.208h3.562a7.732,7.732,0,0,1,1.456.156,10.266,10.266,0,0,1,1.118.26,1.709,1.709,0,0,1,.7.6,2.2,2.2,0,0,1,.468.884q.078.39.208,1.391a14.323,14.323,0,0,1,.13,1.833v2.5q0,4.992-1.209,7.358a3.663,3.663,0,0,1-3.289,2.366,15.062,15.062,0,0,1-4.108-.754,1.382,1.382,0,0,1-.871-.728,1.555,1.555,0,0,1-.091-1.17l.052-.156a1.386,1.386,0,0,1,.715-.845,1.46,1.46,0,0,1,1.131-.091,9.855,9.855,0,0,0,2.47.52.7.7,0,0,0,.494-.234A2.559,2.559,0,0,0,368.29-3a6.939,6.939,0,0,0,.4-1.326,16.77,16.77,0,0,0,.273-2q.1-1.209.1-2.691V-10.8a6.613,6.613,0,0,0-.1-1.131,3.544,3.544,0,0,0-.182-.754.913.913,0,0,0-.416-.325,1.389,1.389,0,0,0-.611-.169h-3.523a.246.246,0,0,0-.26.208A98.1,98.1,0,0,1,359.892.052,1.467,1.467,0,0,1,359.1.9a1.464,1.464,0,0,1-1.131.039l-.182-.052a1.247,1.247,0,0,1-.806-.741,1.5,1.5,0,0,1-.026-1.131,105.292,105.292,0,0,0,3.718-11.986q.052-.208-.156-.208Zm19.006.494q1.508,3.874,2.444,6.89a1.307,1.307,0,0,1-.117,1.092,1.393,1.393,0,0,1-.871.676l-.312.078a1.471,1.471,0,0,1-1.131-.143,1.59,1.59,0,0,1-.741-.9q-1.092-3.406-2.34-6.578a1.5,1.5,0,0,1,.026-1.131,1.247,1.247,0,0,1,.806-.741l.312-.1a1.492,1.492,0,0,1,1.144.039A1.477,1.477,0,0,1,377.312-12.688Zm17.55,3.042a1.361,1.361,0,0,1-1.027-.325,1.372,1.372,0,0,1-.507-.975,1.457,1.457,0,0,1,.338-1.079,1.382,1.382,0,0,1,.988-.533q4-.416,7.852-.442a1.359,1.359,0,0,1,1.014.429,1.423,1.423,0,0,1,.416,1.027,1.4,1.4,0,0,1-.429,1.027,1.4,1.4,0,0,1-1.027.429Q398.346-10.01,394.862-9.646Zm7.826,7.462a1.42,1.42,0,0,1,1.079.286,1.387,1.387,0,0,1,.559.962A1.5,1.5,0,0,1,404.04.182a1.372,1.372,0,0,1-.962.572,30.376,30.376,0,0,1-4.03.286,10.9,10.9,0,0,1-5.733-1.313A3.873,3.873,0,0,1,391.17-3.64,4.5,4.5,0,0,1,392.7-6.734a1.615,1.615,0,0,1,1.079-.481,1.86,1.86,0,0,1,1.157.3,1,1,0,0,1,.481.806,1.156,1.156,0,0,1-.325.91,1.82,1.82,0,0,0-.65,1.222q0,.91,1.235,1.495a7.989,7.989,0,0,0,3.367.585A27.156,27.156,0,0,0,402.688-2.184ZM384.1,1.092a1.3,1.3,0,0,1-.871-.65,1.242,1.242,0,0,1-.091-1.092,137.833,137.833,0,0,0,3.8-14.2q.052-.234-.156-.234H384.93a1.423,1.423,0,0,1-1.04-.442,1.423,1.423,0,0,1-.442-1.04,1.381,1.381,0,0,1,.442-1.027,1.445,1.445,0,0,1,1.04-.429h2.418a.246.246,0,0,0,.26-.208q.208-.988.286-1.482a1.659,1.659,0,0,1,.611-1,1.524,1.524,0,0,1,1.1-.325l.338.026a1.3,1.3,0,0,1,.962.533,1.337,1.337,0,0,1,.26,1.079q-.026.208-.1.572t-.1.572A.157.157,0,0,0,391-18.1a.186.186,0,0,0,.143.078h7.384a1.445,1.445,0,0,1,1.04.429,1.381,1.381,0,0,1,.442,1.027,1.423,1.423,0,0,1-.442,1.04,1.423,1.423,0,0,1-1.04.442H390.6a.261.261,0,0,0-.286.208A134.208,134.208,0,0,1,386.412.1a1.467,1.467,0,0,1-.741.9,1.643,1.643,0,0,1-1.157.169Zm32.89-2.47a3.594,3.594,0,0,0,2.366-.585,2.971,2.971,0,0,0,.676-2.2.286.286,0,0,0-.208-.286,7.005,7.005,0,0,0-2.5-.546,4.323,4.323,0,0,0-2.2.416,1.4,1.4,0,0,0-.663,1.274,1.682,1.682,0,0,0,.663,1.417A3,3,0,0,0,416.988-1.378Zm-5.8-13.962a1.423,1.423,0,0,1-1.04-.442,1.423,1.423,0,0,1-.442-1.04,1.381,1.381,0,0,1,.442-1.027,1.444,1.444,0,0,1,1.04-.429H419.8a.207.207,0,0,0,.234-.234v-.806a1.445,1.445,0,0,1,.429-1.04,1.381,1.381,0,0,1,1.027-.442h.364a1.381,1.381,0,0,1,1.027.442,1.444,1.444,0,0,1,.429,1.04v.806a.207.207,0,0,0,.234.234h4.966a1.444,1.444,0,0,1,1.04.429,1.381,1.381,0,0,1,.442,1.027,1.423,1.423,0,0,1-.442,1.04,1.423,1.423,0,0,1-1.04.442H423.54q-.234,0-.234.208v1.82a.207.207,0,0,0,.234.234H427.6a1.38,1.38,0,0,1,1.014.416,1.38,1.38,0,0,1,.416,1.014,1.423,1.423,0,0,1-.416,1.027,1.359,1.359,0,0,1-1.014.429H423.54a.207.207,0,0,0-.234.234v3.744a.4.4,0,0,0,.182.338A31.918,31.918,0,0,1,428.35-2.34a1.335,1.335,0,0,1,.494,1.014,1.408,1.408,0,0,1-.39,1.066l-.078.078A1.492,1.492,0,0,1,427.349.3,1.349,1.349,0,0,1,426.3-.078q-1.638-1.43-2.938-2.366-.182-.13-.234.078a4.346,4.346,0,0,1-1.885,3,8.041,8.041,0,0,1-4.251.923A6.645,6.645,0,0,1,412.659.273,4.364,4.364,0,0,1,411.086-3.3a4.19,4.19,0,0,1,1.443-3.315,6.648,6.648,0,0,1,4.459-1.261,10.175,10.175,0,0,1,2.834.39q.208.052.208-.156V-9.958a.207.207,0,0,0-.234-.234h-7.7a1.38,1.38,0,0,1-1.014-.416,1.38,1.38,0,0,1-.416-1.014,1.423,1.423,0,0,1,.416-1.027,1.359,1.359,0,0,1,1.014-.429h7.7a.207.207,0,0,0,.234-.234v-1.794a.207.207,0,0,0-.234-.234Zm35.2,13.832a4,4,0,0,0,.364-1.43,1.407,1.407,0,0,0-.624-1.235A4.186,4.186,0,0,0,443.9-4.6a3.788,3.788,0,0,0-1.989.429,1.237,1.237,0,0,0-.689,1.053q0,1.82,4.42,1.82h.468A.317.317,0,0,0,446.394-1.508Zm-8.632-5.928a1.326,1.326,0,0,1-1.027.052,1.365,1.365,0,0,1-.767-.676,1.384,1.384,0,0,1-.1-1.053,1.363,1.363,0,0,1,.65-.845l10.972-6.63.026-.026-.026-.026h-8.918a1.393,1.393,0,0,1-1-.416,1.359,1.359,0,0,1-.429-1.014,1.359,1.359,0,0,1,.429-1.014,1.393,1.393,0,0,1,1-.416h13.65a1.489,1.489,0,0,1,1.053.429,1.363,1.363,0,0,1,.455,1.027,2.278,2.278,0,0,1-1.274,2.184L445.2-11.83v.026h.052a16.381,16.381,0,0,1,3.146-.338,8.841,8.841,0,0,1,5.629,1.534,5.278,5.278,0,0,1,1.911,4.368,6.722,6.722,0,0,1-2.678,5.707q-2.678,2.015-7.618,2.015A11.278,11.278,0,0,1,439.842.3a3.783,3.783,0,0,1-1.924-3.419,3.487,3.487,0,0,1,1.638-2.9A7.6,7.6,0,0,1,444.08-7.2a7.28,7.28,0,0,1,4.29.988A3.4,3.4,0,0,1,449.7-3.3a6.643,6.643,0,0,1-.13,1.17.089.089,0,0,0,.039.117.117.117,0,0,0,.117.013A3.964,3.964,0,0,0,452.3-5.928a3.119,3.119,0,0,0-1.261-2.7,6.962,6.962,0,0,0-4.017-.91A22.065,22.065,0,0,0,437.762-7.436Zm33.9,1.716a1.475,1.475,0,0,1-1.066-.429,1.5,1.5,0,0,1-.468-1.053l-.39-10.3a1.375,1.375,0,0,1,.39-1.04,1.34,1.34,0,0,1,1.014-.442h1.4a1.34,1.34,0,0,1,1.014.442,1.375,1.375,0,0,1,.39,1.04l-.39,10.3a1.5,1.5,0,0,1-.468,1.053,1.475,1.475,0,0,1-1.066.429Zm.624,2.08a1.381,1.381,0,0,1,1.027.442,1.444,1.444,0,0,1,.429,1.04v.676a1.444,1.444,0,0,1-.429,1.04A1.381,1.381,0,0,1,472.29,0h-.884a1.381,1.381,0,0,1-1.027-.442,1.444,1.444,0,0,1-.429-1.04v-.676a1.444,1.444,0,0,1,.429-1.04,1.381,1.381,0,0,1,1.027-.442Z" transform="translate(463 5861)" fill="#004099"/><path d="M0,0H36V43H0Z" transform="translate(419 5830)" fill="#fff"/><g transform="translate(105.764 5618.79)"><g transform="translate(315.424 212.969)"><path d="M0,0H10.344V20.693H0Z" transform="translate(0 10.344)" fill="#003288"/><path d="M315.424,212.969v10.344h10.344v20.693h10.349V223.313h10.344V212.969Z" transform="translate(-315.424 -212.969)" fill="#ffed00"/><path d="M0,0H10.344V20.693H0Z" transform="translate(20.693 10.344)" fill="#003288"/></g><g transform="translate(315.424 247.423)"><path d="M673.131,778.026V781.3c-.381-.49-2.249-3.274-2.249-3.274h-.9V782.9h.9v-3.25c.379.493,2.244,3.25,2.244,3.25h.908v-4.877Z" transform="translate(-648.359 -778.026)" fill="#1a1311"/><path d="M459.233,779.568c0-.744-.485-1.542-1.856-1.542h-1.568V782.9h.91v-1.83h.66C458.748,781.068,459.233,780.266,459.233,779.568Zm-2.513-.737h.657c.794,0,.88.5.88.7,0,.457-.339.731-.915.731h-.622Z" transform="translate(-447.249 -778.026)" fill="#1a1311"/><path d="M0,0H.948V4.881H0Z" transform="translate(18.664 0)" fill="#1a1311"/><path d="M0,0H2.591V.862H0Z" transform="translate(4.395 2.548)" fill="#1a1311"/><path d="M760.512,778.055v.863h1.469v4.017h.95v-4.017h1.47v-.863Z" transform="translate(-733.372 -778.053)" fill="#1a1311"/><path d="M315.424,778.055v.863h1.469v4.017h.95v-4.017h1.47v-.863Z" transform="translate(-315.424 -778.053)" fill="#1a1311"/><path d="M530,783.06c-1.452,0-2.161-1.032-2.161-2.48s.725-2.526,2.185-2.526,2.159,1.063,2.159,2.514C532.179,782,531.44,783.06,530,783.06Zm0-4.156c-.9,0-1.208.852-1.208,1.643,0,.823.273,1.669,1.208,1.669s1.23-.839,1.23-1.669C531.226,779.734,530.915,778.9,530,778.9Z" transform="translate(-514.883 -778.053)" fill="#1a1311"/></g></g></g><g transform="translate(-283 -5828)"><g transform="translate(722.698 5992.761)" clip-path="url(#c)"><g transform="translate(-15 -247.999)"><path d="M645.258,358.01a5.619,5.619,0,0,0-3.635,1.243,6.648,6.648,0,0,1-8.1,0,5.623,5.623,0,0,0-3.636-1.243s-.008-.874,0-.874a6.5,6.5,0,0,1,4.049,1.375,5.928,5.928,0,0,0,7.272,0,6.315,6.315,0,0,1,4.049-1.375Z" transform="translate(-614.884 -109.135)" fill="#fff20e"/></g><g transform="translate(0 -247.999)"><path d="M645.258,358.01a5.619,5.619,0,0,0-3.635,1.243,6.648,6.648,0,0,1-8.1,0,5.623,5.623,0,0,0-3.636-1.243s-.008-.874,0-.874a6.5,6.5,0,0,1,4.049,1.375,5.928,5.928,0,0,0,7.272,0,6.315,6.315,0,0,1,4.049-1.375Z" transform="translate(-614.884 -109.135)" fill="#fff20e"/></g><g transform="translate(15 -247.999)"><path d="M645.258,358.01a5.619,5.619,0,0,0-3.635,1.243,6.648,6.648,0,0,1-8.1,0,5.623,5.623,0,0,0-3.636-1.243s-.008-.874,0-.874a6.5,6.5,0,0,1,4.049,1.375,5.928,5.928,0,0,0,7.272,0,6.315,6.315,0,0,1,4.049-1.375Z" transform="translate(-614.884 -109.135)" fill="#fff20e"/></g><g transform="translate(30 -247.999)"><path d="M645.258,358.01a5.619,5.619,0,0,0-3.635,1.243,6.648,6.648,0,0,1-8.1,0,5.623,5.623,0,0,0-3.636-1.243s-.008-.874,0-.874a6.5,6.5,0,0,1,4.049,1.375,5.928,5.928,0,0,0,7.272,0,6.315,6.315,0,0,1,4.049-1.375Z" transform="translate(-614.884 -109.135)" fill="#fff20e"/></g><g transform="translate(45 -247.999)"><path d="M645.258,358.01a5.619,5.619,0,0,0-3.635,1.243,6.648,6.648,0,0,1-8.1,0,5.623,5.623,0,0,0-3.636-1.243s-.008-.874,0-.874a6.5,6.5,0,0,1,4.049,1.375,5.928,5.928,0,0,0,7.272,0,6.315,6.315,0,0,1,4.049-1.375Z" transform="translate(-614.884 -109.135)" fill="#fff20e"/></g><g transform="translate(60 -247.999)"><path d="M645.258,358.01a5.619,5.619,0,0,0-3.635,1.243,6.648,6.648,0,0,1-8.1,0,5.623,5.623,0,0,0-3.636-1.243s-.008-.874,0-.874a6.5,6.5,0,0,1,4.049,1.375,5.928,5.928,0,0,0,7.272,0,6.315,6.315,0,0,1,4.049-1.375Z" transform="translate(-614.884 -109.135)" fill="#fff20e"/></g><g transform="translate(75 -247.999)"><path d="M645.258,358.01a5.619,5.619,0,0,0-3.635,1.243,6.648,6.648,0,0,1-8.1,0,5.623,5.623,0,0,0-3.636-1.243s-.008-.874,0-.874a6.5,6.5,0,0,1,4.049,1.375,5.928,5.928,0,0,0,7.272,0,6.315,6.315,0,0,1,4.049-1.375Z" transform="translate(-614.884 -109.135)" fill="#fff20e"/></g><g transform="translate(90 -247.999)"><path d="M645.258,358.01a5.619,5.619,0,0,0-3.635,1.243,6.648,6.648,0,0,1-8.1,0,5.623,5.623,0,0,0-3.636-1.243s-.008-.874,0-.874a6.5,6.5,0,0,1,4.049,1.375,5.928,5.928,0,0,0,7.272,0,6.315,6.315,0,0,1,4.049-1.375Z" transform="translate(-614.884 -109.135)" fill="#fff20e"/></g><g transform="translate(105 -247.999)"><path d="M645.258,358.01a5.619,5.619,0,0,0-3.635,1.243,6.648,6.648,0,0,1-8.1,0,5.623,5.623,0,0,0-3.636-1.243s-.008-.874,0-.874a6.5,6.5,0,0,1,4.049,1.375,5.928,5.928,0,0,0,7.272,0,6.315,6.315,0,0,1,4.049-1.375Z" transform="translate(-614.884 -109.135)" fill="#fff20e"/></g><g transform="translate(120 -247.999)"><path d="M645.258,358.01a5.619,5.619,0,0,0-3.635,1.243,6.648,6.648,0,0,1-8.1,0,5.623,5.623,0,0,0-3.636-1.243s-.008-.874,0-.874a6.5,6.5,0,0,1,4.049,1.375,5.928,5.928,0,0,0,7.272,0,6.315,6.315,0,0,1,4.049-1.375Z" transform="translate(-614.884 -109.135)" fill="#fff20e"/></g><g transform="translate(135 -247.999)"><path d="M645.258,358.01a5.619,5.619,0,0,0-3.635,1.243,6.648,6.648,0,0,1-8.1,0,5.623,5.623,0,0,0-3.636-1.243s-.008-.874,0-.874a6.5,6.5,0,0,1,4.049,1.375,5.928,5.928,0,0,0,7.272,0,6.315,6.315,0,0,1,4.049-1.375Z" transform="translate(-614.884 -109.135)" fill="#fff20e"/></g><g transform="translate(150 -247.999)"><path d="M645.258,358.01a5.619,5.619,0,0,0-3.635,1.243,6.648,6.648,0,0,1-8.1,0,5.623,5.623,0,0,0-3.636-1.243s-.008-.874,0-.874a6.5,6.5,0,0,1,4.049,1.375,5.928,5.928,0,0,0,7.272,0,6.315,6.315,0,0,1,4.049-1.375Z" transform="translate(-614.884 -109.135)" fill="#fff20e"/></g><g transform="translate(165 -247.999)"><path d="M645.258,358.01a5.619,5.619,0,0,0-3.635,1.243,6.648,6.648,0,0,1-8.1,0,5.623,5.623,0,0,0-3.636-1.243s-.008-.874,0-.874a6.5,6.5,0,0,1,4.049,1.375,5.928,5.928,0,0,0,7.272,0,6.315,6.315,0,0,1,4.049-1.375Z" transform="translate(-614.884 -109.135)" fill="#fff20e"/></g><g transform="translate(180 -247.999)"><path d="M645.258,358.01a5.619,5.619,0,0,0-3.635,1.243,6.648,6.648,0,0,1-8.1,0,5.623,5.623,0,0,0-3.636-1.243s-.008-.874,0-.874a6.5,6.5,0,0,1,4.049,1.375,5.928,5.928,0,0,0,7.272,0,6.315,6.315,0,0,1,4.049-1.375Z" transform="translate(-614.884 -109.135)" fill="#fff20e"/></g><g transform="translate(195 -247.999)"><path d="M645.258,358.01a5.619,5.619,0,0,0-3.635,1.243,6.648,6.648,0,0,1-8.1,0,5.623,5.623,0,0,0-3.636-1.243s-.008-.874,0-.874a6.5,6.5,0,0,1,4.049,1.375,5.928,5.928,0,0,0,7.272,0,6.315,6.315,0,0,1,4.049-1.375Z" transform="translate(-614.884 -109.135)" fill="#fff20e"/></g><g transform="translate(210 -247.999)"><path d="M645.258,358.01a5.619,5.619,0,0,0-3.635,1.243,6.648,6.648,0,0,1-8.1,0,5.623,5.623,0,0,0-3.636-1.243s-.008-.874,0-.874a6.5,6.5,0,0,1,4.049,1.375,5.928,5.928,0,0,0,7.272,0,6.315,6.315,0,0,1,4.049-1.375Z" transform="translate(-614.884 -109.135)" fill="#fff20e"/></g><g transform="translate(225 -247.999)"><path d="M645.258,358.01a5.619,5.619,0,0,0-3.635,1.243,6.648,6.648,0,0,1-8.1,0,5.623,5.623,0,0,0-3.636-1.243s-.008-.874,0-.874a6.5,6.5,0,0,1,4.049,1.375,5.928,5.928,0,0,0,7.272,0,6.315,6.315,0,0,1,4.049-1.375Z" transform="translate(-614.884 -109.135)" fill="#fff20e"/></g><g transform="translate(240 -247.999)"><path d="M645.258,358.01a5.619,5.619,0,0,0-3.635,1.243,6.648,6.648,0,0,1-8.1,0,5.623,5.623,0,0,0-3.636-1.243s-.008-.874,0-.874a6.5,6.5,0,0,1,4.049,1.375,5.928,5.928,0,0,0,7.272,0,6.315,6.315,0,0,1,4.049-1.375Z" transform="translate(-614.884 -109.135)" fill="#fff20e"/></g><g transform="translate(255 -247.999)"><path d="M645.258,358.01a5.619,5.619,0,0,0-3.635,1.243,6.648,6.648,0,0,1-8.1,0,5.623,5.623,0,0,0-3.636-1.243s-.008-.874,0-.874a6.5,6.5,0,0,1,4.049,1.375,5.928,5.928,0,0,0,7.272,0,6.315,6.315,0,0,1,4.049-1.375Z" transform="translate(-614.884 -109.135)" fill="#fff20e"/></g><g transform="translate(270 -247.999)"><path d="M645.258,358.01a5.619,5.619,0,0,0-3.635,1.243,6.648,6.648,0,0,1-8.1,0,5.623,5.623,0,0,0-3.636-1.243s-.008-.874,0-.874a6.5,6.5,0,0,1,4.049,1.375,5.928,5.928,0,0,0,7.272,0,6.315,6.315,0,0,1,4.049-1.375Z" transform="translate(-614.884 -109.135)" fill="#fff20e"/></g><g transform="translate(285 -247.999)"><path d="M645.258,358.01a5.619,5.619,0,0,0-3.635,1.243,6.648,6.648,0,0,1-8.1,0,5.623,5.623,0,0,0-3.636-1.243s-.008-.874,0-.874a6.5,6.5,0,0,1,4.049,1.375,5.928,5.928,0,0,0,7.272,0,6.315,6.315,0,0,1,4.049-1.375Z" transform="translate(-614.884 -109.135)" fill="#fff20e"/></g></g><path d="M9.45-29.25a30.093,30.093,0,0,1-2.88,1.125q-1.89.63-2.385.855v-5.175a29.867,29.867,0,0,0,3.713-1.8A12.521,12.521,0,0,0,10.98-36.45h5.445V0H9.45Z" transform="translate(847 5983)" fill="#fff20e"/><path d="M7.56-23.4a24.074,24.074,0,0,1-2.3.9q-1.512.5-1.908.684v-4.14a23.893,23.893,0,0,0,2.97-1.44A10.017,10.017,0,0,0,8.784-29.16H13.14V0H7.56ZM28.08.5a7.307,7.307,0,0,1-5.814-2.286,9,9,0,0,1-2-6.138V-20.988a9.391,9.391,0,0,1,1.944-6.282q1.944-2.286,5.868-2.286a7.23,7.23,0,0,1,5.832,2.286,9.391,9.391,0,0,1,1.944,6.282V-7.92A8.961,8.961,0,0,1,33.84-1.8,7.244,7.244,0,0,1,28.08.5Zm0-4.9q2.124,0,2.124-3.636V-20.88a7.6,7.6,0,0,0-.414-2.7,1.649,1.649,0,0,0-1.71-1.08A1.673,1.673,0,0,0,26.316-23.6a7.887,7.887,0,0,0-.4,2.718V-8.028Q25.92-4.392,28.08-4.392ZM47.016.5A7.307,7.307,0,0,1,41.2-1.782a9,9,0,0,1-2-6.138V-20.988a9.391,9.391,0,0,1,1.944-6.282q1.944-2.286,5.868-2.286a7.23,7.23,0,0,1,5.832,2.286,9.391,9.391,0,0,1,1.944,6.282V-7.92A8.961,8.961,0,0,1,52.776-1.8,7.244,7.244,0,0,1,47.016.5Zm0-4.9q2.124,0,2.124-3.636V-20.88a7.6,7.6,0,0,0-.414-2.7,1.649,1.649,0,0,0-1.71-1.08A1.673,1.673,0,0,0,45.252-23.6a7.887,7.887,0,0,0-.4,2.718V-8.028Q44.856-4.392,47.016-4.392Z" transform="translate(722 5983)" fill="#fff20e"/><path d="M1.56-17.34h4.5v1.29a5.409,5.409,0,0,1,3.69-1.59,3.181,3.181,0,0,1,2.85,1.6,7.493,7.493,0,0,1,.9,3.825v6.78a7.721,7.721,0,0,1-.99,4.155A3.223,3.223,0,0,1,9.6.3,5.452,5.452,0,0,1,6.06-1.32V5.7H1.56ZM7.59-2.73q1.38,0,1.38-2.52v-7.26a3.7,3.7,0,0,0-.315-1.65,1.051,1.051,0,0,0-1.005-.63,2.72,2.72,0,0,0-1.59.66V-3.24A2.9,2.9,0,0,0,7.59-2.73ZM21.15.21a3.742,3.742,0,0,1-3.375-1.6A8.466,8.466,0,0,1,16.89-5.64v-8.73H15.18v-2.97h1.71v-5.22h4.59v5.22H24v2.97H21.48v9.39a1.436,1.436,0,0,0,.435,1.17,1.958,1.958,0,0,0,1.275.36,5.687,5.687,0,0,0,1.11-.12V-.03q-.18.03-1.05.165A10.58,10.58,0,0,1,21.15.21Z" transform="translate(868 5984)" fill="#fff20e"/><path d="M10.242-7.578V-11.7h3.942v4.122ZM3.96-11.7H7.632v4.122H3.96Zm12.87-2.592H1.332V1.692H3.96V-4.986H14.184v3.708c0,.324-.126.432-.468.432S12.186-.828,11.25-.9a9.255,9.255,0,0,1,.936,2.61,7.938,7.938,0,0,0,3.546-.486c.828-.432,1.1-1.134,1.1-2.466Z" transform="translate(779 5982)" fill="#fff20e"/><path d="M2.32,2.05l1.11-.46A9.783,9.783,0,0,1,2.24-3.18,9.811,9.811,0,0,1,3.43-7.95L2.32-8.41A9.65,9.65,0,0,0,.81-3.18,9.624,9.624,0,0,0,2.32,2.05ZM8.34-3c-.18-.21-.97-1.05-1.24-1.27v-.12h.96V-5.74H7.1V-6.99a11.932,11.932,0,0,0,1.15-.36L7.29-8.47a13.851,13.851,0,0,1-3.08.83,4.619,4.619,0,0,1,.4,1.11c.35-.04.71-.1,1.08-.16v.95H4.36v1.35H5.5A9.122,9.122,0,0,1,4.15-1.96a7.792,7.792,0,0,1,.66,1.4,8.007,8.007,0,0,0,.88-1.58V.95H7.1V-2.68c.17.3.32.6.42.82Zm3.55-1.27H9.79V-5.3h2.1Zm.49,3.79c-.08,0-.09-.03-.09-.36V-3.01h1.05V-6.56h-.82c.28-.41.61-.96.94-1.52l-1.5-.48a9.142,9.142,0,0,1-.78,1.71l.79.29H9.83l.61-.27a6.966,6.966,0,0,0-.92-1.7l-1.2.52a7.945,7.945,0,0,1,.74,1.45H8.41v3.55h.68A2.723,2.723,0,0,1,7.32-.19,3.816,3.816,0,0,1,8.17.97c1.85-.85,2.22-2.24,2.34-3.98h.38V-.83c0,1.22.21,1.65,1.22,1.65h.56c.78,0,1.12-.42,1.24-1.92a3.728,3.728,0,0,1-1.23-.55c-.02,1.02-.06,1.17-.17,1.17Zm9.16-3.15a6.114,6.114,0,0,1-.59,1.46,5.626,5.626,0,0,1-.81-1.46Zm.71-1.33-.24.04H20.15c.03-.28.04-.56.06-.85h3.42V-7.11H20.25c0-.47.01-.95.01-1.44H18.85c0,.49,0,.97-.01,1.44H17.77v1.34h1.05c-.09,2.31-.44,4.23-1.97,5.54.01-.1.01-.22.01-.35V-2.75c.36-.1.73-.2,1.08-.31l-.18-1.33-.9.22V-5.42h.8V-6.76h-.8v-1.8H15.43v1.8H14.37v1.34h1.06v1.59c-.47.1-.91.2-1.27.27l.31,1.49.96-.27V-.58c0,.14-.05.18-.19.19s-.54,0-.89-.02A5.154,5.154,0,0,1,14.74.92,3.321,3.321,0,0,0,16.37.66a.9.9,0,0,0,.45-.71,4.105,4.105,0,0,1,.91.96,6.074,6.074,0,0,0,1.86-2.8,6.6,6.6,0,0,0,.52.81,4.228,4.228,0,0,1-1.33.86A4.932,4.932,0,0,1,19.59.94,5.989,5.989,0,0,0,21.07-.08,6.015,6.015,0,0,0,22.96.95,5.684,5.684,0,0,1,23.88-.3a5.767,5.767,0,0,1-1.92-.89,8.789,8.789,0,0,0,1.16-3.53Zm3.43,7.01a9.624,9.624,0,0,0,1.51-5.23,9.65,9.65,0,0,0-1.51-5.23l-1.11.46a9.811,9.811,0,0,1,1.19,4.77,9.783,9.783,0,0,1-1.19,4.77Z" transform="translate(779 5962)" fill="#fff20e"/><path d="M7.1-11.376,7.12-8.912a48.12,48.12,0,0,0,6.96,0v-2.48A36.206,36.206,0,0,1,7.1-11.376Zm-.56,6.752a9.575,9.575,0,0,0-.288,2.176c0,1.68,1.376,2.72,4.144,2.72a22.753,22.753,0,0,0,4.176-.3l-.048-2.592a18.981,18.981,0,0,1-4,.416c-1.3,0-1.952-.256-1.952-.96a5.357,5.357,0,0,1,.16-1.264ZM2.32-12.56c-.016.592-.128,1.312-.192,1.792A45.041,45.041,0,0,0,1.5-4.528,20.188,20.188,0,0,0,2.144.688L4.352.544C4.336.288,4.336,0,4.336-.176a5.082,5.082,0,0,1,.1-.752,40.944,40.944,0,0,1,1.152-4.08L4.416-5.92c-.208.448-.4.768-.608,1.216a2.957,2.957,0,0,1-.016-.368,41.224,41.224,0,0,1,.752-5.648,15.614,15.614,0,0,1,.448-1.616ZM16.768-8.992,17.84-6.3C19.728-7.152,23.3-8.64,25.488-8.64a2.379,2.379,0,0,1,2.688,2.432c0,2.5-3.184,3.728-7.552,3.808L21.744.16c5.984-.288,9.2-2.848,9.2-6.32,0-3.088-2.352-4.8-5.344-4.8a26.6,26.6,0,0,0-6.768,1.472C18.272-9.328,17.344-9.088,16.768-8.992ZM34.88-4.608a8.192,8.192,0,0,0-.4,2.24c0,2.336,1.9,3.36,4.96,3.36a27.236,27.236,0,0,0,4.208-.32l.08-2.448a25.282,25.282,0,0,1-4.352.352c-1.936,0-2.5-.624-2.5-1.472a4.891,4.891,0,0,1,.368-1.5ZM45.552-9.344a18.357,18.357,0,0,1-2.8.768l-.192-.448c-.1-.224-.208-.464-.3-.7a22.259,22.259,0,0,0,2.56-.624l-.4-2.128a19.049,19.049,0,0,1-2.96.72,11.434,11.434,0,0,1-.432-1.488l-2.736.512a10.226,10.226,0,0,1,.72,1.248,31.345,31.345,0,0,1-4.56-.208l.128,2.176a32.233,32.233,0,0,0,5.376.08l.416.96.1.24A33.037,33.037,0,0,1,34.336-8.3l.1,2.192a42.539,42.539,0,0,0,6.9-.08c.16.384.336.816.544,1.28-.4-.032-.96-.08-1.5-.128L40.16-3.216c1.088.128,2.736.384,3.664.576l1.12-1.44c-.464-.88-.88-1.744-1.248-2.512A17.693,17.693,0,0,0,46-7.184Z" transform="translate(799 5981)" fill="#fff20e"/><path d="M23.94-19.292a1.494,1.494,0,0,1-1.484-1.484A1.494,1.494,0,0,1,23.94-22.26a1.494,1.494,0,0,1,1.484,1.484A1.494,1.494,0,0,1,23.94-19.292Zm-17.808-.98c-.924,0-2.772-.14-3.64-.252v4.788c.728-.056,2.268-.14,3.64-.14h12.32a15.729,15.729,0,0,1-3.08,7.224C13.16-5.908,10-3.444,4.368-2.184l3.7,4.06a22.961,22.961,0,0,0,11.4-7.868c2.408-3.248,3.556-7.5,4.228-10.136.084-.336.2-.756.336-1.176a3.511,3.511,0,0,0,3.388-3.472,3.489,3.489,0,0,0-3.472-3.472,3.489,3.489,0,0,0-3.472,3.472,1.6,1.6,0,0,0,.028.364,14.594,14.594,0,0,1-2.016.14ZM36.26,1.568a7.28,7.28,0,0,1,1.932-.9c6.384-2.24,12.236-5.516,16.184-10.136l-2.408-3.864a33,33,0,0,1-13.86,9.1v-13.8a21.989,21.989,0,0,1,.308-3.528H33.1a18.481,18.481,0,0,1,.364,3.528V-3.3a4.224,4.224,0,0,1-.42,2.072ZM83.5-20.776a39.965,39.965,0,0,0-2.212-3.808L78.652-23.52a31.232,31.232,0,0,1,2.212,3.864ZM80.024-19.4c-.5-.98-1.484-2.8-2.184-3.836l-2.632,1.064a37.933,37.933,0,0,1,2.156,3.892Zm-12.4,1.176a28.217,28.217,0,0,1,.28-3.584H62.86a28.794,28.794,0,0,1,.252,3.584V-14.7c-2.66.476-5.04.868-6.384,1.036L57.54-9.24c1.2-.28,3.248-.7,5.572-1.176v7.168c0,3.64.9,5.264,7.924,5.264A72.124,72.124,0,0,0,79.66,1.4l.14-4.592a48.154,48.154,0,0,1-8.9.98c-2.912,0-3.276-.588-3.276-2.24V-11.34c3.388-.672,6.468-1.288,7.476-1.484A22.983,22.983,0,0,1,70.924-7.7l3.724,2.184a38.671,38.671,0,0,0,5.824-8.176c.28-.56.756-1.288,1.036-1.736l-3.276-2.548a9.766,9.766,0,0,1-2.268.756c-1.288.308-4.7,1.008-8.344,1.68Zm23.352-3.5-3.22,3.444a58.36,58.36,0,0,1,7.028,6.132l3.472-3.556A56.5,56.5,0,0,0,90.972-21.728ZM86.828-3.136l2.884,4.48a29.879,29.879,0,0,0,10.024-3.7,30.279,30.279,0,0,0,10.892-10.612L108-17.752a27.057,27.057,0,0,1-10.7,11.2A28.814,28.814,0,0,1,86.828-3.136Zm49.84-7.588A92.573,92.573,0,0,0,125.1-14.952v-3.836a33.289,33.289,0,0,1,.28-3.64h-5.292a19.561,19.561,0,0,1,.336,3.64V-2.8a31.434,31.434,0,0,1-.336,4.228h5.32c-.14-1.26-.308-3.472-.308-4.228V-10a87.323,87.323,0,0,1,9.632,4Z" transform="translate(898 5982)" fill="#fff20e"/></g><path d="M15.62-16.2l-1.3.54a20.371,20.371,0,0,1,1.6,2.78l1.32-.58A28.983,28.983,0,0,0,15.62-16.2Zm2.28-.84-1.3.54a19.05,19.05,0,0,1,1.66,2.76l1.3-.58A31.035,31.035,0,0,0,17.9-17.04ZM4.2-11.94c1.6.12,3.3.22,5.32.22,1.84,0,4.14-.14,5.5-.24v-2.08c-1.46.14-3.58.28-5.52.28a44.827,44.827,0,0,1-5.3-.26Zm-.86,5.9a12.066,12.066,0,0,0-.4,2.8C2.94-.64,5.24.78,9.5.78a29.141,29.141,0,0,0,6.8-.7L16.28-2.1a26.042,26.042,0,0,1-6.84.78c-3.04,0-4.42-1-4.42-2.38A7.546,7.546,0,0,1,5.4-5.84Zm33.04-4.38A20.268,20.268,0,0,1,34.1-5.44a38.983,38.983,0,0,1-.98-6.32H39.4v-1.82H37.36l.96-1.02a21.123,21.123,0,0,0-3.46-2.22l-1.12,1.14a21.422,21.422,0,0,1,3.14,2.1H33.02q-.09-1.56-.06-3.18H31c0,1.06.04,2.14.1,3.18H22.88v5.66c0,2.58-.14,6.02-1.74,8.42A7.939,7.939,0,0,1,22.7,1.78C24.46-.8,24.8-4.8,24.82-7.64h3.2c-.06,3.02-.18,4.16-.4,4.44a.712.712,0,0,1-.62.24c-.32,0-1.1-.02-1.92-.1a4.465,4.465,0,0,1,.5,1.74,14.251,14.251,0,0,0,2.36-.04A1.772,1.772,0,0,0,29.22-2c.42-.56.52-2.28.62-6.62v-.72H24.82v-2.42h6.4a37.584,37.584,0,0,0,1.42,8.24,15.785,15.785,0,0,1-4.36,3.5A9.631,9.631,0,0,1,29.64,1.5a18.38,18.38,0,0,0,3.78-3.06c.9,1.88,2.06,3,3.52,3,1.64,0,2.32-.94,2.62-4.46a4.883,4.883,0,0,1-1.6-1.04c-.12,2.58-.36,3.6-.88,3.6-.84,0-1.62-1.04-2.3-2.74a22.722,22.722,0,0,0,3.48-6.76Zm6.14,5.08A15.115,15.115,0,0,1,41.34-.66a7.817,7.817,0,0,1,1.42.7,18.518,18.518,0,0,0,1.34-5.1Zm4.38.36a21.6,21.6,0,0,1,1.22,3.84l1.48-.52a21.811,21.811,0,0,0-1.3-3.78Zm-.44-4.84a17.2,17.2,0,0,1,.84,1.6l-2.66.1a62.777,62.777,0,0,0,3.98-5.68l-1.58-.68A37.272,37.272,0,0,1,45.02-11a11.652,11.652,0,0,0-.98-1.16c.72-1.08,1.56-2.66,2.28-4.02l-1.68-.6A23.063,23.063,0,0,1,43-13.16l-.54-.48-.9,1.24a21.523,21.523,0,0,1,2.52,2.8c-.4.56-.78,1.08-1.16,1.56L41.52-8l.16,1.64c.92-.06,1.98-.12,3.12-.18V1.6h1.66V-6.64l1.48-.1a10.075,10.075,0,0,1,.36,1.12l1.42-.68a16.9,16.9,0,0,0-1.92-4.1ZM59.58-13.3H52.5a26.481,26.481,0,0,0,1.1-3.06l-1.9-.44a16.734,16.734,0,0,1-3.46,6.84,13.9,13.9,0,0,1,1.64,1.12,15.546,15.546,0,0,0,1.76-2.68h6.1c-.26,7.34-.58,10.3-1.22,10.94a.959.959,0,0,1-.86.34c-.48,0-1.68-.02-2.98-.12A4.189,4.189,0,0,1,53.3,1.5a19.117,19.117,0,0,0,3.08-.02A2.136,2.136,0,0,0,58.14.56c.84-1.02,1.1-4.14,1.44-12.96Zm-4.5,8.96a18.868,18.868,0,0,0-2.7-4.5l-1.5.74a19.65,19.65,0,0,1,2.56,4.6Zm11.9-6.46A21.423,21.423,0,0,0,71.12-15a22.372,22.372,0,0,0,4.34,4.2Zm5.1,5.62H78.6v-1.6H72.08V-9.16h4.06V-10.3a25.252,25.252,0,0,0,3.2,1.98,10.587,10.587,0,0,1,1.2-1.66,22.019,22.019,0,0,1-8.56-6.84h-1.9a21.468,21.468,0,0,1-8.16,7.08,7.207,7.207,0,0,1,1.16,1.5A28.12,28.12,0,0,0,66.2-10.2v1.04h3.92v2.38H63.74v1.6h6.38V-.64H62.78V.98H79.64V-.64H72.08Zm-6.88.9A13.027,13.027,0,0,1,66.96-.72l1.62-.72a13.019,13.019,0,0,0-1.86-3.44ZM74.78-.72A35.491,35.491,0,0,0,77.2-4.24L75.42-4.9A22.128,22.128,0,0,1,73.4-1.34Zm23.46-8.9H93.6v-1.62h4.64Zm0,2.96H93.6V-8.3h4.64Zm0,2.98H93.6V-5.34h4.64Zm-6.32-8.98V-2.28H100V-12.66H96.26c.18-.52.38-1.1.56-1.66h3.66v-1.6H91.24v1.6h3.6c-.1.54-.22,1.14-.34,1.66Zm-7.68-.9H89.5v1.52h1.58v-3.02H87.76v-1.68H86.02v1.68h-3.3v3.02h1.52ZM88.32-1.12H85.4V-3.54h2.92Zm-3-3.86a12.576,12.576,0,0,0,2.06-1.64c.76.58,1.48,1.14,2.06,1.64Zm3.02-5.48A9.134,9.134,0,0,1,87.2-8.7c-.58-.4-1.16-.78-1.7-1.14.16-.2.32-.4.48-.62Zm1.6,5.92.28.26L91.3-5.56c-.68-.62-1.72-1.42-2.84-2.24a11.8,11.8,0,0,0,1.96-3.56l-1.06-.48-.28.08H86.82a10.559,10.559,0,0,0,.54-1.06l-1.54-.4A9.975,9.975,0,0,1,82.18-8.9a9.115,9.115,0,0,1,1.2,1.1,11.916,11.916,0,0,0,1.1-.94c.52.36,1.08.76,1.64,1.18a12.236,12.236,0,0,1-3.98,2.42A6.86,6.86,0,0,1,83.1-3.8c.24-.1.48-.22.72-.32V1.22H85.4V.32h4.34c.38.34.92.88,1.22,1.22a13.484,13.484,0,0,0,4.16-2.62l-1.54-.94A10.691,10.691,0,0,1,89.94.24Zm6.48,3.48A26.539,26.539,0,0,1,99.66,1.6L101.1.62a23.585,23.585,0,0,0-3.32-2.54Zm13.734-11.252v1.818a45.005,45.005,0,0,0,7.47,0V-12.33A33.4,33.4,0,0,1,110.154-12.312Zm-.612,7.272a10.9,10.9,0,0,0-.306,2.2c0,1.728,1.4,2.772,4.428,2.772a24.12,24.12,0,0,0,4.518-.36l-.036-1.908a20.034,20.034,0,0,1-4.446.468c-2.16,0-2.754-.63-2.754-1.44a6.772,6.772,0,0,1,.216-1.584Zm-4.482-8.73a13.218,13.218,0,0,1-.162,1.476,50.7,50.7,0,0,0-.774,7.11,22.259,22.259,0,0,0,.684,5.76l1.62-.108c-.018-.216-.036-.486-.036-.666a3.283,3.283,0,0,1,.09-.81,35.277,35.277,0,0,1,1.278-4.158l-.936-.72c-.27.648-.63,1.512-.9,2.232a13.262,13.262,0,0,1-.126-1.872,42.206,42.206,0,0,1,.882-6.714c.072-.324.252-1.026.378-1.368Zm19.152,2.484h13.23v-1.62h-6.678v-2.2h-1.746v2.2h-6.48v4.572c0,2.574-.126,6.228-1.584,8.784a8.532,8.532,0,0,1,1.422.954c1.566-2.754,1.836-6.93,1.836-9.738Zm9.378,2.97a22.4,22.4,0,0,0-4.23-2.628l-1.134,1.1a22.2,22.2,0,0,1,4.158,2.772Zm-8.028,8.1a15.585,15.585,0,0,0,1.494-5.76l-1.53-.342a13.6,13.6,0,0,1-1.458,5.436ZM130.4-.432c-.612,0-.738-.108-.738-.738V-7.776h-1.638V-1.17c0,1.71.432,2.25,2.124,2.25h2.34c1.584,0,2.016-.828,2.178-3.816a5.267,5.267,0,0,1-1.476-.684c-.09,2.538-.18,2.988-.828,2.988Zm3.4-5.724a19.845,19.845,0,0,1,2.376,5.94L137.82-.9a19.237,19.237,0,0,0-2.538-5.85Zm15.858-6.408-1.26.54a19.206,19.206,0,0,1,1.674,2.916l1.3-.558A26.163,26.163,0,0,0,149.664-12.564Zm2.376-.936-1.242.576a19.9,19.9,0,0,1,1.728,2.844l1.278-.612A27.8,27.8,0,0,0,152.04-13.5Zm-9.468-.486a10.177,10.177,0,0,1,.2,2.052c0,1.728-.18,6.318-.18,8.856,0,2.952,1.8,4.122,4.518,4.122a9.074,9.074,0,0,0,7.578-4l-1.278-1.566a7.261,7.261,0,0,1-6.264,3.672c-1.53,0-2.718-.648-2.718-2.52,0-2.484.144-6.588.216-8.568.036-.63.108-1.386.2-2.034Zm16,1.854.2,1.962c1.98-.414,6.354-.846,7.92-1.026a7.08,7.08,0,0,0-3.024,5.778c0,3.942,3.672,5.814,7.164,5.994l.648-1.926C168.528-1.476,165.5-2.556,165.5-5.8a5.867,5.867,0,0,1,3.942-5.346,15.728,15.728,0,0,1,3.456-.27v-1.8c-1.224.036-3.006.144-4.914.288-3.276.288-6.444.594-7.758.7C159.888-12.186,159.276-12.15,158.574-12.132Z" transform="translate(525 109)" fill="#fff"/><g transform="translate(-700 -5826)"><path d="M9.45-29.25a30.093,30.093,0,0,1-2.88,1.125q-1.89.63-2.385.855v-5.175a29.867,29.867,0,0,0,3.713-1.8A12.521,12.521,0,0,0,10.98-36.45h5.445V0H9.45ZM35.1.63q-4.77,0-7.267-2.857a11.247,11.247,0,0,1-2.5-7.672V-26.235q0-4.995,2.43-7.853T35.1-36.945q4.86,0,7.29,2.857t2.43,7.853V-9.9A11.2,11.2,0,0,1,42.3-2.25,9.055,9.055,0,0,1,35.1.63Zm0-6.12q2.655,0,2.655-4.545V-26.1a9.5,9.5,0,0,0-.518-3.375,2.061,2.061,0,0,0-2.138-1.35A2.091,2.091,0,0,0,32.9-29.5a9.859,9.859,0,0,0-.495,3.4v16.065Q32.4-5.49,35.1-5.49ZM58.77.63Q54,.63,51.5-2.227a11.247,11.247,0,0,1-2.5-7.672V-26.235q0-4.995,2.43-7.853t7.335-2.857q4.86,0,7.29,2.857t2.43,7.853V-9.9a11.2,11.2,0,0,1-2.52,7.65A9.055,9.055,0,0,1,58.77.63Zm0-6.12q2.655,0,2.655-4.545V-26.1a9.5,9.5,0,0,0-.517-3.375,2.061,2.061,0,0,0-2.138-1.35A2.091,2.091,0,0,0,56.565-29.5a9.859,9.859,0,0,0-.495,3.4v16.065Q56.07-5.49,58.77-5.49Z" transform="translate(776 5983)" fill="#fff20e"/><path d="M1.56-17.34h4.5v1.29a5.409,5.409,0,0,1,3.69-1.59,3.181,3.181,0,0,1,2.85,1.6,7.493,7.493,0,0,1,.9,3.825v6.78a7.721,7.721,0,0,1-.99,4.155A3.223,3.223,0,0,1,9.6.3,5.452,5.452,0,0,1,6.06-1.32V5.7H1.56ZM7.59-2.73q1.38,0,1.38-2.52v-7.26a3.7,3.7,0,0,0-.315-1.65,1.051,1.051,0,0,0-1.005-.63,2.72,2.72,0,0,0-1.59.66V-3.24A2.9,2.9,0,0,0,7.59-2.73ZM21.15.21a3.742,3.742,0,0,1-3.375-1.6A8.466,8.466,0,0,1,16.89-5.64v-8.73H15.18v-2.97h1.71v-5.22h4.59v5.22H24v2.97H21.48v9.39a1.436,1.436,0,0,0,.435,1.17,1.958,1.958,0,0,0,1.275.36,5.687,5.687,0,0,0,1.11-.12V-.03q-.18.03-1.05.165A10.58,10.58,0,0,1,21.15.21Z" transform="translate(850 5984)" fill="#fff20e"/><path d="M23.94-19.292a1.494,1.494,0,0,1-1.484-1.484A1.494,1.494,0,0,1,23.94-22.26a1.494,1.494,0,0,1,1.484,1.484A1.494,1.494,0,0,1,23.94-19.292Zm-17.808-.98c-.924,0-2.772-.14-3.64-.252v4.788c.728-.056,2.268-.14,3.64-.14h12.32a15.729,15.729,0,0,1-3.08,7.224C13.16-5.908,10-3.444,4.368-2.184l3.7,4.06a22.961,22.961,0,0,0,11.4-7.868c2.408-3.248,3.556-7.5,4.228-10.136.084-.336.2-.756.336-1.176a3.511,3.511,0,0,0,3.388-3.472,3.489,3.489,0,0,0-3.472-3.472,3.489,3.489,0,0,0-3.472,3.472,1.6,1.6,0,0,0,.028.364,14.594,14.594,0,0,1-2.016.14ZM36.26,1.568a7.28,7.28,0,0,1,1.932-.9c6.384-2.24,12.236-5.516,16.184-10.136l-2.408-3.864a33,33,0,0,1-13.86,9.1v-13.8a21.989,21.989,0,0,1,.308-3.528H33.1a18.481,18.481,0,0,1,.364,3.528V-3.3a4.224,4.224,0,0,1-.42,2.072ZM83.5-20.776a39.965,39.965,0,0,0-2.212-3.808L78.652-23.52a31.232,31.232,0,0,1,2.212,3.864ZM80.024-19.4c-.5-.98-1.484-2.8-2.184-3.836l-2.632,1.064a37.933,37.933,0,0,1,2.156,3.892Zm-12.4,1.176a28.217,28.217,0,0,1,.28-3.584H62.86a28.794,28.794,0,0,1,.252,3.584V-14.7c-2.66.476-5.04.868-6.384,1.036L57.54-9.24c1.2-.28,3.248-.7,5.572-1.176v7.168c0,3.64.9,5.264,7.924,5.264A72.124,72.124,0,0,0,79.66,1.4l.14-4.592a48.154,48.154,0,0,1-8.9.98c-2.912,0-3.276-.588-3.276-2.24V-11.34c3.388-.672,6.468-1.288,7.476-1.484A22.983,22.983,0,0,1,70.924-7.7l3.724,2.184a38.671,38.671,0,0,0,5.824-8.176c.28-.56.756-1.288,1.036-1.736l-3.276-2.548a9.766,9.766,0,0,1-2.268.756c-1.288.308-4.7,1.008-8.344,1.68Zm23.352-3.5-3.22,3.444a58.36,58.36,0,0,1,7.028,6.132l3.472-3.556A56.5,56.5,0,0,0,90.972-21.728ZM86.828-3.136l2.884,4.48a29.879,29.879,0,0,0,10.024-3.7,30.279,30.279,0,0,0,10.892-10.612L108-17.752a27.057,27.057,0,0,1-10.7,11.2A28.814,28.814,0,0,1,86.828-3.136Zm49.84-7.588A92.573,92.573,0,0,0,125.1-14.952v-3.836a33.289,33.289,0,0,1,.28-3.64h-5.292a19.561,19.561,0,0,1,.336,3.64V-2.8a31.434,31.434,0,0,1-.336,4.228h5.32c-.14-1.26-.308-3.472-.308-4.228V-10a87.323,87.323,0,0,1,9.632,4Z" transform="translate(883 5982)" fill="#fff20e"/></g><path d="M5.76-1.42c-.68,0-1.84-.68-1.84-1.46,0-.8,1-1.8,2.44-2.5.02,1.28.06,2.42.06,3.04C6.42-1.68,6.18-1.42,5.76-1.42ZM8.14-8.56c0-.7.02-1.48.04-2.28a39.3,39.3,0,0,0,3.98-.66l-.04-1.96a24.084,24.084,0,0,1-3.9.76c.04-.7.06-1.34.08-1.82s.08-1.14.12-1.52H6.26a12.669,12.669,0,0,1,.12,1.56c0,.36-.02,1.08-.02,1.98-.48.02-.94.04-1.36.04a19.661,19.661,0,0,1-2.62-.16l.06,1.92c.78.08,1.72.1,2.6.1.38,0,.82-.02,1.3-.06-.02.74-.02,1.48-.02,2.18v1.24C3.98-6.22,1.96-4.48,1.96-2.8,1.96-.88,4.6.68,6.32.68c1.16,0,1.94-.6,1.94-2.7,0-.78-.06-2.44-.08-4.08a13.276,13.276,0,0,1,4.06-.66c1.8,0,3.18.84,3.18,2.36,0,1.68-1.46,2.56-3.12,2.86a13.247,13.247,0,0,1-2.38.14l.72,2a13.263,13.263,0,0,0,2.5-.28c2.92-.7,4.28-2.34,4.28-4.7,0-2.54-2.22-4.12-5.16-4.12a15.27,15.27,0,0,0-4.12.62Zm5.36-3.78a29.321,29.321,0,0,1,4.58,2.92l.98-1.6a36.569,36.569,0,0,0-4.68-2.84ZM25.48-8.02h9.04V-6.3H25.48Zm0-3.24h9.04v1.7H25.48Zm0-3.2h9.04v1.68H25.48ZM33.96-.36c-.8,0-.94-.08-.94-.68V-4.66H36.4V-16.12H23.68V-4.66h2.58C25.88-2.28,24.9-.82,20.8-.02a5.76,5.76,0,0,1,1.06,1.64c4.68-1.06,5.92-3.1,6.38-6.28h2.88v3.62c0,1.88.52,2.44,2.62,2.44H36.7c1.8,0,2.32-.74,2.54-3.74A5.238,5.238,0,0,1,37.5-3.1c-.08,2.42-.2,2.74-.98,2.74ZM48.28-6c-.36-.44-1.88-2.02-2.54-2.6v-.98h2.14v-.86H59.12v-1.22h-4.8v-.88h3.86V-13.7H54.32v-.86h4.34v-1.2H54.32v-1.02H52.46v1.02H48.38v1.2h4.08v.86H48.78v1.16h3.68v.88h-4.7v.34H45.74v-3.04a20.1,20.1,0,0,0,2.46-.74l-1.28-1.42a27.86,27.86,0,0,1-6.04,1.46,5.733,5.733,0,0,1,.54,1.44c.8-.1,1.66-.22,2.52-.38v2.68H41.06v1.74H43.8A20.494,20.494,0,0,1,40.54-3.6a10.1,10.1,0,0,1,.92,1.72A20.922,20.922,0,0,0,43.94-6.4V1.54h1.8V-6.7A21.761,21.761,0,0,1,47.2-4.54Zm8.04-1.3H50.74V-8.38h5.58Zm0,2.24H50.74v-1.1h5.58Zm0,2.24H50.74v-1.1h5.58Zm1.74-6.76h-9v7.96h2.12A13.7,13.7,0,0,1,46.84.46a9.519,9.519,0,0,1,1.18,1.2,16.632,16.632,0,0,0,4.76-2.4L51.4-1.62h6.66ZM54.32-.72C55.54.04,56.94,1,57.72,1.6L59.34.7c-.92-.62-2.46-1.56-3.78-2.32Zm10.52-15.2c-.02.52-.08,1.2-.16,1.86a51.8,51.8,0,0,0-.6,6.38,23.866,23.866,0,0,0,.24,3.2l1.94-.14A8.962,8.962,0,0,1,66.2-6.9c.16-2.6,2.36-6.16,4.76-6.16,1.9,0,2.92,2.02,2.92,5.1,0,4.9-3.24,6.5-7.58,7.18l1.2,1.8C72.54.1,76-2.44,76-7.96c0-4.26-2-6.92-4.7-6.92-2.38,0-4.3,2.12-5.16,3.94a34.442,34.442,0,0,1,.86-4.9ZM95.12-11a26.369,26.369,0,0,0-1.458-2.484L92.492-13a21.869,21.869,0,0,1,1.44,2.5Zm-6.03,4.1a29.228,29.228,0,0,1,3.366-.18,25.673,25.673,0,0,1,3.024.216l.054-1.71A29.812,29.812,0,0,0,92.42-8.73c-1.152,0-2.376.09-3.33.18Zm1.26-5.112a30.539,30.539,0,0,1-3.2.612l.216-1.044c.072-.36.216-1.08.342-1.53l-2.178-.162a8.549,8.549,0,0,1-.054,1.62c-.036.324-.126.792-.216,1.314-.63.054-1.224.072-1.782.072a16.512,16.512,0,0,1-2.178-.144L81.332-9.5c.648.054,1.3.072,2.124.072.45,0,.918-.018,1.422-.036-.126.576-.27,1.17-.432,1.71A38.724,38.724,0,0,1,81.422.234L83.4.9A53.441,53.441,0,0,0,86.21-7.308c.2-.756.4-1.548.558-2.322a35.39,35.39,0,0,0,3.582-.594ZM88.1-4.32a11.813,11.813,0,0,0-.27,2.232C87.83-.324,89.324.63,92.222.63A24.531,24.531,0,0,0,95.75.378L95.8-1.44a19.943,19.943,0,0,1-3.564.36c-2.268,0-2.7-.72-2.7-1.53a6.717,6.717,0,0,1,.252-1.548Zm6.444-9.45a20.409,20.409,0,0,1,1.494,2.5l1.17-.522c-.342-.648-1.026-1.782-1.494-2.466Zm6.21-.252a12.759,12.759,0,0,1-.108,1.332,48.886,48.886,0,0,0-.63,7.128,19.69,19.69,0,0,0,.972,5.706l1.548-.18c0-.216-.036-.486-.036-.666a3.377,3.377,0,0,1,.09-.81,42.105,42.105,0,0,1,1.188-4.122l-.936-.594c-.306.792-.648,1.764-.9,2.43-.576-2.61.036-6.426.54-8.73.09-.36.234-.918.36-1.3Zm13.77,3.168a25.642,25.642,0,0,1-2.79.378c-.018-1.062-.036-2.106-.018-2.5a10.574,10.574,0,0,1,.072-1.116h-2.07a8.525,8.525,0,0,1,.18,1.116c.036.468.072,1.53.09,2.61-.72.018-1.458.036-2.142.036a19.472,19.472,0,0,1-2.79-.18v1.8c.828.054,2,.108,2.826.108.7,0,1.422-.018,2.142-.036v.558c0,3.258-.18,5.076-1.854,6.624A6.315,6.315,0,0,1,106.28-.2l1.656,1.3c3.672-2.25,3.816-5.022,3.816-9.162V-8.73c1.044-.072,2-.162,2.772-.27ZM129.23-9.36l-1.08.468a17.02,17.02,0,0,1,1.44,2.52l1.116-.5A25.126,25.126,0,0,0,129.23-9.36Zm2-.774-1.08.486a16.893,16.893,0,0,1,1.512,2.484l1.1-.54A28.163,28.163,0,0,0,131.228-10.134Zm-13.806-1.908.18,1.962c2-.432,6.372-.864,7.92-1.026a7.061,7.061,0,0,0-3.006,5.778c0,3.924,3.654,5.8,7.146,5.976l.648-1.908c-2.934-.144-5.958-1.206-5.958-4.464a5.893,5.893,0,0,1,3.924-5.346,17.086,17.086,0,0,1,3.474-.252l-.018-1.818c-1.206.036-3.006.144-4.9.306-3.276.27-6.462.576-7.758.7C118.718-12.1,118.106-12.06,117.422-12.042Zm28.584,4.7A4.906,4.906,0,0,1,147.9-3.78c0,1.692-1.566,2.826-4.176,2.826-1.908,0-2.844-.954-2.844-2.556,0-.378.036-.918.09-1.548h.684a28.818,28.818,0,0,0,3.33-.18l.054-1.692a28.383,28.383,0,0,1-3.654.216h-.252c.108-.936.234-1.926.36-2.844h.036a34.148,34.148,0,0,0,3.582-.18l.054-1.692a21.12,21.12,0,0,1-3.456.234l.216-1.62c.072-.432.144-.846.27-1.4l-2.016-.108a7.258,7.258,0,0,1-.018,1.4c-.036.45-.09,1.026-.162,1.674a16.99,16.99,0,0,1-3.8-.684l-.09,1.656a22.179,22.179,0,0,0,3.69.63c-.126.936-.252,1.926-.36,2.862a14.776,14.776,0,0,1-3.654-.72l-.09,1.728a18.926,18.926,0,0,0,3.564.63c-.072.792-.126,1.458-.126,1.926,0,2.934,1.98,4.086,4.572,4.086,3.672,0,6.084-1.764,6.084-4.428a6.227,6.227,0,0,0-1.8-4.194Z" transform="translate(126 111)" fill="#fff"/><g transform="translate(150.047 -3753.188)"><g transform="translate(312.432 3812)" fill="#fff"><path d="M 28.19801139831543 54.89603805541992 C 24.59314155578613 54.89603805541992 21.09690093994141 54.19035720825195 17.8064022064209 52.79858779907227 C 14.62740135192871 51.45398712158203 11.77205181121826 49.52875900268555 9.319671630859375 47.07637023925781 C 6.867281436920166 44.62398910522461 4.942051410675049 41.76863861083984 3.597451448440552 38.58963775634766 C 2.205681324005127 35.29914093017578 1.500001430511475 31.80288887023926 1.500001430511475 28.19801902770996 C 1.500001430511475 24.59314918518066 2.205681324005127 21.09690856933594 3.597451448440552 17.80640983581543 C 4.942051410675049 14.62740898132324 6.867281436920166 11.77205944061279 9.319671630859375 9.319668769836426 C 11.77205181121826 6.867289066314697 14.62740135192871 4.942049026489258 17.8064022064209 3.597449064254761 C 21.09690093994141 2.205678939819336 24.59314155578613 1.499999046325684 28.19801139831543 1.499999046325684 C 31.80288124084473 1.499999046325684 35.29912185668945 2.205678939819336 38.58962249755859 3.597449064254761 C 41.76861953735352 4.942049026489258 44.62397003173828 6.867289066314697 47.07635116577148 9.319668769836426 C 49.52873992919922 11.77205944061279 51.45397186279297 14.62740898132324 52.7985725402832 17.80640983581543 C 54.19034194946289 21.09690856933594 54.89602279663086 24.59314918518066 54.89602279663086 28.19801902770996 C 54.89602279663086 31.80288887023926 54.19034194946289 35.29914093017578 52.7985725402832 38.58963775634766 C 51.45397186279297 41.76863861083984 49.52873992919922 44.62398910522461 47.07635116577148 47.07637023925781 C 44.62397003173828 49.52875900268555 41.76861953735352 51.45398712158203 38.58962249755859 52.79858779907227 C 35.29912185668945 54.19035720825195 31.80288124084473 54.89603805541992 28.19801139831543 54.89603805541992 Z" stroke="none"/><path d="M 28.19801139831543 3 C 24.79498100280762 3 21.49533081054688 3.665817260742188 18.39073181152344 4.978950500488281 C 15.39052963256836 6.247928619384766 12.69544219970703 8.065219879150391 10.38033294677734 10.38032913208008 C 8.065219879150391 12.69543838500977 6.247932434082031 15.39052963256836 4.978950500488281 18.39072799682617 C 3.665821075439453 21.49533843994141 3 24.79498863220215 3 28.19801902770996 C 3 31.60104942321777 3.665821075439453 34.90069961547852 4.978950500488281 38.00531005859375 C 6.247932434082031 41.00550842285156 8.065219879150391 43.70059967041016 10.38033294677734 46.01570892333984 C 12.69544219970703 48.33081817626953 15.39052963256836 50.14810943603516 18.39073181152344 51.41708755493164 C 21.49533081054688 52.73022079467773 24.79498100280762 53.39603805541992 28.19801139831543 53.39603805541992 C 31.60104179382324 53.39603805541992 34.90069198608398 52.73022079467773 38.00529098510742 51.41708755493164 C 41.0054931640625 50.14810943603516 43.70058059692383 48.33081817626953 46.01569366455078 46.01570892333984 C 48.33080291748047 43.70059967041016 50.14809036254883 41.00550842285156 51.41707229614258 38.00531005859375 C 52.73020172119141 34.90069961547852 53.39602279663086 31.60104942321777 53.39602279663086 28.19801902770996 C 53.39602279663086 24.79498863220215 52.73020172119141 21.49533843994141 51.41707229614258 18.39072799682617 C 50.14809036254883 15.39052963256836 48.33080291748047 12.69543838500977 46.01569366455078 10.38032913208008 C 43.70058059692383 8.065219879150391 41.0054931640625 6.247928619384766 38.00529098510742 4.978950500488281 C 34.90069198608398 3.665817260742188 31.60104179382324 3 28.19801139831543 3 M 28.19801139831543 0 C 43.77133941650391 0 56.39602279663086 12.62467956542969 56.39602279663086 28.19801902770996 C 56.39602279663086 43.77135848999023 43.77133941650391 56.39603805541992 28.19801139831543 56.39603805541992 C 12.62467956542969 56.39603805541992 0 43.77135848999023 0 28.19801902770996 C 0 12.62467956542969 12.62467956542969 0 28.19801139831543 0 Z" stroke="none" fill="#004099"/></g><path d="M6.8,0l6.8,12.93H0Z" transform="translate(369.906 3859.163) rotate(137)" fill="#fff"/><path d="M1.8-6.516a.657.657,0,0,1-.48-.2.657.657,0,0,1-.2-.48v-.276a.657.657,0,0,1,.2-.48.657.657,0,0,1,.48-.2q1.884,0,4.284-.06.084,0,.084-.108Q6.144-8.5,6.12-8.9a.645.645,0,0,1,.174-.48.685.685,0,0,1,.462-.228l.48-.036a.665.665,0,0,1,.486.174.675.675,0,0,1,.234.462Q7.98-8.6,8-8.388q0,.1.12.1L10.2-8.364a.635.635,0,0,1,.48.18.66.66,0,0,1,.216.468l.012.276a.654.654,0,0,1-.18.486.651.651,0,0,1-.468.222L8.388-6.66q-.1,0-.072.108A9.753,9.753,0,0,0,9.276-4.3a.59.59,0,0,1,.054.486.6.6,0,0,1-.318.378l-.528.252A1.4,1.4,0,0,1,7.26-3.216,4.616,4.616,0,0,0,5.3-3.66a1.985,1.985,0,0,0-1.2.312,1,1,0,0,0-.42.852q0,1.512,2.676,1.512A14.46,14.46,0,0,0,8.652-1.2a.647.647,0,0,1,.5.114.7.7,0,0,1,.288.438l.06.3a.665.665,0,0,1-.114.51.649.649,0,0,1-.438.282A16.807,16.807,0,0,1,6.36.66,5.677,5.677,0,0,1,2.91-.222,2.828,2.828,0,0,1,1.74-2.6a2.4,2.4,0,0,1,.912-1.962A3.941,3.941,0,0,1,5.2-5.3a5.344,5.344,0,0,1,1.74.3l.024-.012v-.012A9.107,9.107,0,0,1,6.468-6.48a.123.123,0,0,0-.132-.108Q3.288-6.516,1.8-6.516ZM14.172-2.9a.666.666,0,0,1-.432-.3.7.7,0,0,1-.108-.516q.216-1.2.384-2.388a.749.749,0,0,1,.264-.468.671.671,0,0,1,.5-.156l.54.048a.625.625,0,0,1,.45.24.625.625,0,0,1,.138.492q-.1.744-.192,1.356v.012h.024A6.167,6.167,0,0,1,19.1-5.676a4.2,4.2,0,0,1,2.7.708,2.709,2.709,0,0,1,.852,2.208A2.864,2.864,0,0,1,21.294-.252,7.006,7.006,0,0,1,17.388.66q-1.116,0-2.244-.108a.638.638,0,0,1-.456-.246.672.672,0,0,1-.156-.5l.024-.288A.638.638,0,0,1,14.8-.936a.672.672,0,0,1,.5-.156q1.26.108,2.088.108a4.449,4.449,0,0,0,2.268-.48,1.457,1.457,0,0,0,.8-1.3q0-1.284-1.644-1.284a6.574,6.574,0,0,0-2.988,1.02,1.694,1.694,0,0,1-1.248.2Zm1.788-6.2q2.4.252,4.524.288a.717.717,0,0,1,.486.2.641.641,0,0,1,.2.48v.276a.647.647,0,0,1-.2.474.647.647,0,0,1-.474.2q-2.448-.036-4.74-.276a.631.631,0,0,1-.456-.252.649.649,0,0,1-.144-.5l.036-.288a.654.654,0,0,1,.264-.45A.7.7,0,0,1,15.96-9.108Zm17.928.636a.657.657,0,0,1,.48.2.657.657,0,0,1,.2.48v.324a.657.657,0,0,1-.2.48.657.657,0,0,1-.48.2H30.06a.657.657,0,0,1-.48-.2.657.657,0,0,1-.2-.48v-.324a.657.657,0,0,1,.2-.48.657.657,0,0,1,.48-.2ZM26.532.612A.733.733,0,0,1,26,.48a.716.716,0,0,1-.3-.456A20.394,20.394,0,0,1,25.26-4.32,20.394,20.394,0,0,1,25.7-8.664.716.716,0,0,1,26-9.12a.733.733,0,0,1,.528-.132l.564.06a.554.554,0,0,1,.42.246.606.606,0,0,1,.1.5A19.845,19.845,0,0,0,27.2-4.32a19.845,19.845,0,0,0,.408,4.128.606.606,0,0,1-.1.5.554.554,0,0,1-.42.246ZM32.016.228a4.7,4.7,0,0,1-2.7-.672,2.1,2.1,0,0,1-.972-1.812A2.436,2.436,0,0,1,28.62-3.27a5.246,5.246,0,0,1,.756-1.146.622.622,0,0,1,.474-.228.766.766,0,0,1,.522.168l.276.2a.587.587,0,0,1,.234.444.7.7,0,0,1-.15.492,1.846,1.846,0,0,0-.492.96.689.689,0,0,0,.42.654,3.224,3.224,0,0,0,1.356.21,11.755,11.755,0,0,0,1.968-.18.66.66,0,0,1,.5.108.635.635,0,0,1,.276.432l.048.348a.7.7,0,0,1-.114.528.644.644,0,0,1-.438.288A11.538,11.538,0,0,1,32.016.228Z" transform="matrix(0.995, -0.105, 0.105, 0.995, 323.522, 3846.045)" fill="#004099"/></g><g fill="none"><path d="M0,0H800V200H0Z" stroke="none"/><path d="M 5 5 L 5 195 L 795 195 L 795 5 L 5 5 M 0 0 L 800 0 L 800 200 L 0 200 L 0 0 Z" stroke="none" fill="#004099"/></g><g transform="translate(81.697 164.761)" clip-path="url(#d)"><g transform="translate(-15 -247.999)"><path d="M645.258,358.01a5.619,5.619,0,0,0-3.635,1.243,6.648,6.648,0,0,1-8.1,0,5.623,5.623,0,0,0-3.636-1.243s-.008-.874,0-.874a6.5,6.5,0,0,1,4.049,1.375,5.928,5.928,0,0,0,7.272,0,6.315,6.315,0,0,1,4.049-1.375Z" transform="translate(-614.884 -109.135)" fill="#fff20e"/></g><g transform="translate(0 -247.999)"><path d="M645.258,358.01a5.619,5.619,0,0,0-3.635,1.243,6.648,6.648,0,0,1-8.1,0,5.623,5.623,0,0,0-3.636-1.243s-.008-.874,0-.874a6.5,6.5,0,0,1,4.049,1.375,5.928,5.928,0,0,0,7.272,0,6.315,6.315,0,0,1,4.049-1.375Z" transform="translate(-614.884 -109.135)" fill="#fff20e"/></g><g transform="translate(15 -247.999)"><path d="M645.258,358.01a5.619,5.619,0,0,0-3.635,1.243,6.648,6.648,0,0,1-8.1,0,5.623,5.623,0,0,0-3.636-1.243s-.008-.874,0-.874a6.5,6.5,0,0,1,4.049,1.375,5.928,5.928,0,0,0,7.272,0,6.315,6.315,0,0,1,4.049-1.375Z" transform="translate(-614.884 -109.135)" fill="#fff20e"/></g><g transform="translate(30 -247.999)"><path d="M645.258,358.01a5.619,5.619,0,0,0-3.635,1.243,6.648,6.648,0,0,1-8.1,0,5.623,5.623,0,0,0-3.636-1.243s-.008-.874,0-.874a6.5,6.5,0,0,1,4.049,1.375,5.928,5.928,0,0,0,7.272,0,6.315,6.315,0,0,1,4.049-1.375Z" transform="translate(-614.884 -109.135)" fill="#fff20e"/></g><g transform="translate(45 -247.999)"><path d="M645.258,358.01a5.619,5.619,0,0,0-3.635,1.243,6.648,6.648,0,0,1-8.1,0,5.623,5.623,0,0,0-3.636-1.243s-.008-.874,0-.874a6.5,6.5,0,0,1,4.049,1.375,5.928,5.928,0,0,0,7.272,0,6.315,6.315,0,0,1,4.049-1.375Z" transform="translate(-614.884 -109.135)" fill="#fff20e"/></g><g transform="translate(60 -247.999)"><path d="M645.258,358.01a5.619,5.619,0,0,0-3.635,1.243,6.648,6.648,0,0,1-8.1,0,5.623,5.623,0,0,0-3.636-1.243s-.008-.874,0-.874a6.5,6.5,0,0,1,4.049,1.375,5.928,5.928,0,0,0,7.272,0,6.315,6.315,0,0,1,4.049-1.375Z" transform="translate(-614.884 -109.135)" fill="#fff20e"/></g><g transform="translate(75 -247.999)"><path d="M645.258,358.01a5.619,5.619,0,0,0-3.635,1.243,6.648,6.648,0,0,1-8.1,0,5.623,5.623,0,0,0-3.636-1.243s-.008-.874,0-.874a6.5,6.5,0,0,1,4.049,1.375,5.928,5.928,0,0,0,7.272,0,6.315,6.315,0,0,1,4.049-1.375Z" transform="translate(-614.884 -109.135)" fill="#fff20e"/></g><g transform="translate(90 -247.999)"><path d="M645.258,358.01a5.619,5.619,0,0,0-3.635,1.243,6.648,6.648,0,0,1-8.1,0,5.623,5.623,0,0,0-3.636-1.243s-.008-.874,0-.874a6.5,6.5,0,0,1,4.049,1.375,5.928,5.928,0,0,0,7.272,0,6.315,6.315,0,0,1,4.049-1.375Z" transform="translate(-614.884 -109.135)" fill="#fff20e"/></g><g transform="translate(105 -247.999)"><path d="M645.258,358.01a5.619,5.619,0,0,0-3.635,1.243,6.648,6.648,0,0,1-8.1,0,5.623,5.623,0,0,0-3.636-1.243s-.008-.874,0-.874a6.5,6.5,0,0,1,4.049,1.375,5.928,5.928,0,0,0,7.272,0,6.315,6.315,0,0,1,4.049-1.375Z" transform="translate(-614.884 -109.135)" fill="#fff20e"/></g><g transform="translate(120 -247.999)"><path d="M645.258,358.01a5.619,5.619,0,0,0-3.635,1.243,6.648,6.648,0,0,1-8.1,0,5.623,5.623,0,0,0-3.636-1.243s-.008-.874,0-.874a6.5,6.5,0,0,1,4.049,1.375,5.928,5.928,0,0,0,7.272,0,6.315,6.315,0,0,1,4.049-1.375Z" transform="translate(-614.884 -109.135)" fill="#fff20e"/></g><g transform="translate(135 -247.999)"><path d="M645.258,358.01a5.619,5.619,0,0,0-3.635,1.243,6.648,6.648,0,0,1-8.1,0,5.623,5.623,0,0,0-3.636-1.243s-.008-.874,0-.874a6.5,6.5,0,0,1,4.049,1.375,5.928,5.928,0,0,0,7.272,0,6.315,6.315,0,0,1,4.049-1.375Z" transform="translate(-614.884 -109.135)" fill="#fff20e"/></g><g transform="translate(150 -247.999)"><path d="M645.258,358.01a5.619,5.619,0,0,0-3.635,1.243,6.648,6.648,0,0,1-8.1,0,5.623,5.623,0,0,0-3.636-1.243s-.008-.874,0-.874a6.5,6.5,0,0,1,4.049,1.375,5.928,5.928,0,0,0,7.272,0,6.315,6.315,0,0,1,4.049-1.375Z" transform="translate(-614.884 -109.135)" fill="#fff20e"/></g><g transform="translate(165 -247.999)"><path d="M645.258,358.01a5.619,5.619,0,0,0-3.635,1.243,6.648,6.648,0,0,1-8.1,0,5.623,5.623,0,0,0-3.636-1.243s-.008-.874,0-.874a6.5,6.5,0,0,1,4.049,1.375,5.928,5.928,0,0,0,7.272,0,6.315,6.315,0,0,1,4.049-1.375Z" transform="translate(-614.884 -109.135)" fill="#fff20e"/></g><g transform="translate(180 -247.999)"><path d="M645.258,358.01a5.619,5.619,0,0,0-3.635,1.243,6.648,6.648,0,0,1-8.1,0,5.623,5.623,0,0,0-3.636-1.243s-.008-.874,0-.874a6.5,6.5,0,0,1,4.049,1.375,5.928,5.928,0,0,0,7.272,0,6.315,6.315,0,0,1,4.049-1.375Z" transform="translate(-614.884 -109.135)" fill="#fff20e"/></g><g transform="translate(195 -247.999)"><path d="M645.258,358.01a5.619,5.619,0,0,0-3.635,1.243,6.648,6.648,0,0,1-8.1,0,5.623,5.623,0,0,0-3.636-1.243s-.008-.874,0-.874a6.5,6.5,0,0,1,4.049,1.375,5.928,5.928,0,0,0,7.272,0,6.315,6.315,0,0,1,4.049-1.375Z" transform="translate(-614.884 -109.135)" fill="#fff20e"/></g><g transform="translate(210 -247.999)"><path d="M645.258,358.01a5.619,5.619,0,0,0-3.635,1.243,6.648,6.648,0,0,1-8.1,0,5.623,5.623,0,0,0-3.636-1.243s-.008-.874,0-.874a6.5,6.5,0,0,1,4.049,1.375,5.928,5.928,0,0,0,7.272,0,6.315,6.315,0,0,1,4.049-1.375Z" transform="translate(-614.884 -109.135)" fill="#fff20e"/></g><g transform="translate(225 -247.999)"><path d="M645.258,358.01a5.619,5.619,0,0,0-3.635,1.243,6.648,6.648,0,0,1-8.1,0,5.623,5.623,0,0,0-3.636-1.243s-.008-.874,0-.874a6.5,6.5,0,0,1,4.049,1.375,5.928,5.928,0,0,0,7.272,0,6.315,6.315,0,0,1,4.049-1.375Z" transform="translate(-614.884 -109.135)" fill="#fff20e"/></g></g></g></svg>