<svg xmlns="http://www.w3.org/2000/svg" xmlns:xlink="http://www.w3.org/1999/xlink" width="158.804" height="59.817" viewBox="0 0 158.804 59.817"><defs><clipPath id="a"><rect width="125.194" height="34.776" rx="6.775" fill="none"/></clipPath></defs><g transform="translate(-173.516 -63.168)"><rect width="125.194" height="34.776" rx="6.775" transform="translate(190.32 63.168)" fill="#b1b5ba"/><g transform="translate(173.516 79.166)"><path d="M338.542,125.317H197.937a9.11,9.11,0,0,1-9.1-9.1V90.6a9.108,9.108,0,0,1,9.1-9.1H338.542a9.11,9.11,0,0,1,9.1,9.1v25.62A9.113,9.113,0,0,1,338.542,125.317ZM197.937,84.281a6.323,6.323,0,0,0-6.315,6.315v25.62a6.324,6.324,0,0,0,6.315,6.318H338.542a6.324,6.324,0,0,0,6.318-6.318V90.6a6.324,6.324,0,0,0-6.318-6.315Z" transform="translate(-188.839 -81.498)" fill="#b1b5ba"/></g><g transform="translate(190.32 63.477)" opacity="0.57"><g clip-path="url(#a)"><path d="M283.859,59.716l-37.1,63.864L361.3,87.537,346,33.621,299.162,41.04Z" transform="translate(-213.016 -59.716)" fill="#fff" opacity="0.74"/></g></g></g></svg>