<svg xmlns="http://www.w3.org/2000/svg" xmlns:xlink="http://www.w3.org/1999/xlink" width="587.491" height="122.462" viewBox="0 0 587.491 122.462"><defs><clipPath id="a"><rect width="373.821" height="6.078" fill="none"/></clipPath></defs><g transform="translate(-485.092 -1573.89)"><g transform="translate(802.574 1570.767)"><path d="M2.7-4.375l-.42-.805A3.243,3.243,0,0,1,2.45-8.575a33.358,33.358,0,0,0,4.165-9.59q.07-.28-.245-.28H4.725a1.944,1.944,0,0,1-1.4-.578,1.859,1.859,0,0,1-.6-1.382,1.916,1.916,0,0,1,.6-1.4,1.916,1.916,0,0,1,1.4-.6h2.38a.278.278,0,0,0,.315-.315V-26.5A1.886,1.886,0,0,1,8-27.878a1.886,1.886,0,0,1,1.382-.577h.49a1.886,1.886,0,0,1,1.383.577A1.886,1.886,0,0,1,11.83-26.5v3.78a.278.278,0,0,0,.315.315H13.3a1.916,1.916,0,0,1,1.4.6,1.916,1.916,0,0,1,.595,1.4,1.859,1.859,0,0,1-.595,1.382,1.944,1.944,0,0,1-1.4.578h-.525a.168.168,0,0,0-.158.1.139.139,0,0,0,.018.175q1.19,1.995,3.535,6.16a.143.143,0,0,0,.105.035q.07,0,.07-.035V-25.55a1.944,1.944,0,0,1,.577-1.4,1.859,1.859,0,0,1,1.382-.6h13.3a1.916,1.916,0,0,1,1.4.6,1.916,1.916,0,0,1,.6,1.4V.945a1.859,1.859,0,0,1-.6,1.383,1.944,1.944,0,0,1-1.4.578h-1.12a1.383,1.383,0,0,1-1.015-.42,1.343,1.343,0,0,1-.42-.98.186.186,0,0,0-.21-.21H20.965a.186.186,0,0,0-.21.21,1.326,1.326,0,0,1-.42,1,1.372,1.372,0,0,1-.98.4h-1.05a1.886,1.886,0,0,1-1.382-.578A1.886,1.886,0,0,1,16.345.945V-9.135a.062.062,0,0,0-.07-.07.143.143,0,0,0-.105.035,2,2,0,0,1-.35.385,1.432,1.432,0,0,1-1.278.35,1.378,1.378,0,0,1-1.033-.8q-.735-1.54-1.54-3.08a.079.079,0,0,0-.087-.017.081.081,0,0,0-.052.087V1.3a1.886,1.886,0,0,1-.578,1.383,1.886,1.886,0,0,1-1.383.577H9.38A1.886,1.886,0,0,1,8,2.678,1.886,1.886,0,0,1,7.42,1.3v-11.34q-.035-.035-.105.035A29.094,29.094,0,0,1,4.69-4.27a1.054,1.054,0,0,1-1.015.525A1.11,1.11,0,0,1,2.7-4.375ZM20.755-23.45v4.06a.278.278,0,0,0,.315.315h7.665a.278.278,0,0,0,.315-.315v-4.06q0-.28-.315-.28H21.07Q20.755-23.73,20.755-23.45Zm0,8.365v4.06q0,.28.315.28h7.665q.315,0,.315-.28v-4.06a.278.278,0,0,0-.315-.315H21.07A.278.278,0,0,0,20.755-15.085Zm0,8.33V-2.7a.278.278,0,0,0,.315.315h7.665A.278.278,0,0,0,29.05-2.7v-4.06a.278.278,0,0,0-.315-.315H21.07A.278.278,0,0,0,20.755-6.755Zm47.215-5.39a.957.957,0,0,1,.6.472.859.859,0,0,1,.07.753,29.534,29.534,0,0,1-1.68,4.235,1.906,1.906,0,0,1-1.173,1.05A2.2,2.2,0,0,1,64.19-5.67L64.12-5.7a1.626,1.626,0,0,1-1-1.033,1.717,1.717,0,0,1,.123-1.453,29.9,29.9,0,0,0,1.68-4.165.349.349,0,0,0-.175-.455,14.981,14.981,0,0,1-5.565-5.075q-.175-.245-.315-.035a15.072,15.072,0,0,1-6.44,5.495.085.085,0,0,0-.052.105.157.157,0,0,0,.087.105l.98.21a1.868,1.868,0,0,1,1.243.892,1.731,1.731,0,0,1,.193,1.488A35.514,35.514,0,0,1,53.62-6.23a1.978,1.978,0,0,1-1.1,1.067,2.17,2.17,0,0,1-1.558.018,1.572,1.572,0,0,1-1.015-1A1.845,1.845,0,0,1,49.98-7.6a26.128,26.128,0,0,0,1.435-4.27q0-.1-.1-.07a1.016,1.016,0,0,1-.805-.053,1.016,1.016,0,0,1-.525-.612L49.6-13.755a2.086,2.086,0,0,1,.088-1.523,1.981,1.981,0,0,1,1.1-1.068,9.7,9.7,0,0,0,4.515-3.43,10.029,10.029,0,0,0,1.33-5.5v-1.085a1.916,1.916,0,0,1,.6-1.4,1.916,1.916,0,0,1,1.4-.6h.455a1.916,1.916,0,0,1,1.4.6,1.916,1.916,0,0,1,.6,1.4v1.085a9.748,9.748,0,0,0,1.382,5.478A10.186,10.186,0,0,0,67.13-16.31a2.059,2.059,0,0,1,1.12,1.05,1.984,1.984,0,0,1,.105,1.505l-.49,1.435Q67.83-12.215,67.97-12.145ZM51.485-19.74a1.572,1.572,0,0,1-1.015-.98,1.8,1.8,0,0,1,.035-1.435,30.115,30.115,0,0,0,1.085-3.01,2.012,2.012,0,0,1,.945-1.173,1.975,1.975,0,0,1,1.47-.228,1.81,1.81,0,0,1,1.225.892,1.766,1.766,0,0,1,.175,1.488,35.515,35.515,0,0,1-1.26,3.4,1.911,1.911,0,0,1-1.1,1.05A2.235,2.235,0,0,1,51.485-19.74Zm12.46-.525a1.627,1.627,0,0,1-1-1.05,1.667,1.667,0,0,1,.122-1.435,22.621,22.621,0,0,0,1.26-2.87,2.145,2.145,0,0,1,1-1.172,1.908,1.908,0,0,1,1.488-.193,1.811,1.811,0,0,1,1.19.927,1.845,1.845,0,0,1,.14,1.487,31.051,31.051,0,0,1-1.365,3.29,1.906,1.906,0,0,1-1.173,1.05,2.2,2.2,0,0,1-1.592-.035Zm-4.865,6.02a1.916,1.916,0,0,1,1.4.595,1.916,1.916,0,0,1,.6,1.4v1.75a9.495,9.495,0,0,0,1.417,5.443A10.421,10.421,0,0,0,67.27-1.575,2.121,2.121,0,0,1,68.408-.507a1.983,1.983,0,0,1,.122,1.522l-.1.245A1.986,1.986,0,0,1,67.41,2.433a1.6,1.6,0,0,1-1.47.017,14.748,14.748,0,0,1-6.72-5.6q-.175-.245-.315-.035a14.718,14.718,0,0,1-6.72,5.635,1.6,1.6,0,0,1-1.47-.017A1.986,1.986,0,0,1,49.7,1.26l-.1-.245a2.086,2.086,0,0,1,.088-1.522,1.981,1.981,0,0,1,1.1-1.068A9.7,9.7,0,0,0,55.3-5.005,10.029,10.029,0,0,0,56.63-10.5v-1.75a1.916,1.916,0,0,1,.6-1.4,1.916,1.916,0,0,1,1.4-.595Zm-20.23-9.7a1.662,1.662,0,0,1-1.243-.525,1.748,1.748,0,0,1-.507-1.26,1.69,1.69,0,0,1,.507-1.243,1.69,1.69,0,0,1,1.243-.507h7.91a1.748,1.748,0,0,1,1.26.507,1.662,1.662,0,0,1,.525,1.243,1.718,1.718,0,0,1-.525,1.26,1.718,1.718,0,0,1-1.26.525Zm-.805,5.25a1.8,1.8,0,0,1-1.347-.56,1.846,1.846,0,0,1-.542-1.33,1.846,1.846,0,0,1,.542-1.33,1.8,1.8,0,0,1,1.347-.56H47.46a1.817,1.817,0,0,1,1.33.56,1.817,1.817,0,0,1,.56,1.33,1.817,1.817,0,0,1-.56,1.33,1.817,1.817,0,0,1-1.33.56Zm1.05,4.97a1.649,1.649,0,0,1-1.208-.507,1.649,1.649,0,0,1-.507-1.208,1.649,1.649,0,0,1,.507-1.207A1.649,1.649,0,0,1,39.1-17.15H46.76a1.649,1.649,0,0,1,1.207.507,1.649,1.649,0,0,1,.507,1.207,1.649,1.649,0,0,1-.507,1.208,1.649,1.649,0,0,1-1.207.507Zm0,4.935a1.649,1.649,0,0,1-1.208-.507A1.649,1.649,0,0,1,37.38-10.5a1.592,1.592,0,0,1,.507-1.19,1.679,1.679,0,0,1,1.208-.49H46.76a1.679,1.679,0,0,1,1.207.49,1.592,1.592,0,0,1,.507,1.19,1.649,1.649,0,0,1-.507,1.207,1.649,1.649,0,0,1-1.207.507ZM37.1,1.47V-5.25a1.916,1.916,0,0,1,.6-1.4,1.916,1.916,0,0,1,1.4-.6h7.56a1.916,1.916,0,0,1,1.4.6,1.916,1.916,0,0,1,.6,1.4V.175a1.916,1.916,0,0,1-.6,1.4,1.916,1.916,0,0,1-1.4.6H41.4q-.175,0-.175.14a1.078,1.078,0,0,1-1.12,1.12H39.1a1.944,1.944,0,0,1-1.4-.578A1.859,1.859,0,0,1,37.1,1.47Zm4.13-5.04V-1.5a.278.278,0,0,0,.315.315h3.01A.278.278,0,0,0,44.87-1.5V-3.57a.278.278,0,0,0-.315-.315h-3.01A.278.278,0,0,0,41.23-3.57ZM73.395-14.28a1.916,1.916,0,0,1-1.4-.595,1.916,1.916,0,0,1-.6-1.4,1.916,1.916,0,0,1,.6-1.4,1.916,1.916,0,0,1,1.4-.6H75a.247.247,0,0,0,.28-.28.508.508,0,0,0-.245-.42l-1.715-1.015a1.444,1.444,0,0,1-.752-1.137,1.624,1.624,0,0,1,.4-1.313,43.17,43.17,0,0,0,4.165-5.5,3.028,3.028,0,0,1,1.313-1.1,2.656,2.656,0,0,1,1.662-.193l.77.175a1.477,1.477,0,0,1,1.05.858,1.318,1.318,0,0,1-.07,1.313q-.035.035-.1.122a.268.268,0,0,0-.07.122.139.139,0,0,0-.018.175.168.168,0,0,0,.158.1h18.515a1.788,1.788,0,0,1,1.313.543A1.788,1.788,0,0,1,102.2-24.5a1.788,1.788,0,0,1-.542,1.313,1.788,1.788,0,0,1-1.312.542h-.315a.278.278,0,0,0-.315.315v3.78q0,.28.315.28h1.575a1.916,1.916,0,0,1,1.4.6,1.916,1.916,0,0,1,.6,1.4,1.916,1.916,0,0,1-.6,1.4,1.916,1.916,0,0,1-1.4.595H100.03q-.315,0-.315.28v4.06a.278.278,0,0,0,.315.315h1.05a1.76,1.76,0,0,1,1.295.525,1.76,1.76,0,0,1,.525,1.3,1.7,1.7,0,0,1-.525,1.277,1.791,1.791,0,0,1-1.295.508H73.92a1.791,1.791,0,0,1-1.295-.508A1.7,1.7,0,0,1,72.1-7.805a1.76,1.76,0,0,1,.525-1.3,1.76,1.76,0,0,1,1.295-.525h1.05a.278.278,0,0,0,.315-.315V-14q0-.28-.315-.28ZM92.96-22.33v3.78a.247.247,0,0,0,.28.28h1.68q.315,0,.315-.28v-3.78a.278.278,0,0,0-.315-.315H93.24Q92.96-22.645,92.96-22.33Zm0,8.33v4.06q0,.315.28.315h1.68a.278.278,0,0,0,.315-.315V-14q0-.28-.315-.28H93.24A.247.247,0,0,0,92.96-14Zm-6.65-8.33v3.78a.247.247,0,0,0,.28.28h1.82a.247.247,0,0,0,.28-.28v-3.78q0-.315-.28-.315H86.59Q86.31-22.645,86.31-22.33Zm0,8.33v4.06q0,.315.28.315h1.82q.28,0,.28-.315V-14a.247.247,0,0,0-.28-.28H86.59A.247.247,0,0,0,86.31-14Zm-6.545-8.33v3.78q0,.28.315.28h1.68a.247.247,0,0,0,.28-.28v-3.78q0-.315-.28-.315H80.08A.278.278,0,0,0,79.765-22.33Zm0,8.33v4.06a.278.278,0,0,0,.315.315h1.68q.28,0,.28-.315V-14a.247.247,0,0,0-.28-.28H80.08Q79.765-14.28,79.765-14ZM77.91-4.83l.21.105A1.92,1.92,0,0,1,79.1-3.57a1.722,1.722,0,0,1-.175,1.47Q77.665.035,76.3,1.96a2.063,2.063,0,0,1-1.33.823,2.037,2.037,0,0,1-1.54-.3l-.245-.175A1.782,1.782,0,0,1,72.363,1.1,1.768,1.768,0,0,1,72.695-.35q1.12-1.54,2.415-3.64a2.233,2.233,0,0,1,1.243-.945A2.123,2.123,0,0,1,77.91-4.83Zm5.635.245a2.04,2.04,0,0,1,1.523.4A2.019,2.019,0,0,1,85.89-2.87q.14.77.56,3.815a1.791,1.791,0,0,1-.42,1.435,2.015,2.015,0,0,1-1.33.735l-.42.07a1.842,1.842,0,0,1-1.452-.42,1.99,1.99,0,0,1-.753-1.33q-.35-2.45-.56-3.745a1.835,1.835,0,0,1,.333-1.453,1.807,1.807,0,0,1,1.277-.753Zm6.86-.14A2.348,2.348,0,0,1,92-4.515,2.047,2.047,0,0,1,93.03-3.36q.35.98,1.33,3.885A1.716,1.716,0,0,1,94.2,1.978a1.762,1.762,0,0,1-1.173.857l-.315.105a2.059,2.059,0,0,1-1.54-.263A2.274,2.274,0,0,1,90.16,1.435q-.665-2.1-1.295-3.78a1.675,1.675,0,0,1,.087-1.435,1.639,1.639,0,0,1,1.137-.875Zm6.72-.245A2.221,2.221,0,0,1,98.7-5.163,2.023,2.023,0,0,1,100-4.27q1.05,1.505,2.485,3.885a1.854,1.854,0,0,1,.21,1.487,1.817,1.817,0,0,1-.91,1.173l-.21.105a1.983,1.983,0,0,1-1.522.158,2.153,2.153,0,0,1-1.243-.928Q97.545-.42,96.32-2.24a1.754,1.754,0,0,1-.28-1.435,1.694,1.694,0,0,1,.875-1.155Zm30.24-14.07q-1.82-1.925-3.465-3.535a1.857,1.857,0,0,1-.56-1.365,1.857,1.857,0,0,1,.56-1.365l.175-.14a2.1,2.1,0,0,1,1.488-.595,1.976,1.976,0,0,1,1.452.595q1.26,1.19,3.465,3.465a1.794,1.794,0,0,1,.508,1.4,2.121,2.121,0,0,1-.648,1.4l-.21.21a1.82,1.82,0,0,1-1.383.542A1.882,1.882,0,0,1,127.365-19.04Zm-5.25,2.03.175-.175a2.074,2.074,0,0,1,1.47-.595,1.956,1.956,0,0,1,1.435.595q1.82,1.715,4.2,4.2a1.873,1.873,0,0,1,.525,1.418,2.067,2.067,0,0,1-.63,1.417l-.21.21A1.82,1.82,0,0,1,127.7-9.4a1.882,1.882,0,0,1-1.382-.613q-2.065-2.24-4.235-4.305a1.837,1.837,0,0,1-.56-1.347A1.785,1.785,0,0,1,122.115-17.01ZM137.83-8.925a1.7,1.7,0,0,1,1.452.315A1.721,1.721,0,0,1,140-7.35a2.217,2.217,0,0,1-.42,1.523,2.109,2.109,0,0,1-1.33.857l-1.085.21a.352.352,0,0,0-.28.385V1.3a1.859,1.859,0,0,1-.6,1.383,1.944,1.944,0,0,1-1.4.577h-.56a1.944,1.944,0,0,1-1.4-.577,1.859,1.859,0,0,1-.6-1.383V-3.43q0-.315-.28-.245l-9.87,2.03a1.7,1.7,0,0,1-1.452-.315,1.721,1.721,0,0,1-.717-1.26,2.217,2.217,0,0,1,.42-1.523,2.109,2.109,0,0,1,1.33-.858l10.29-2.135a.331.331,0,0,0,.28-.35V-26.5a1.859,1.859,0,0,1,.6-1.382,1.944,1.944,0,0,1,1.4-.577h.56a1.944,1.944,0,0,1,1.4.577,1.859,1.859,0,0,1,.6,1.382V-9.03q0,.315.28.245Zm-30.38,6.9-.35-.84a3.273,3.273,0,0,1,.385-3.4A29.691,29.691,0,0,0,111.02-13.3q.07-.28-.21-.28h-1.82a1.817,1.817,0,0,1-1.33-.56,1.817,1.817,0,0,1-.56-1.33,1.76,1.76,0,0,1,.56-1.312,1.846,1.846,0,0,1,1.33-.542h2.66a.278.278,0,0,0,.315-.315v-1.12q0-.28-.28-.21l-.805.28a1.708,1.708,0,0,1-1.47-.1,1.813,1.813,0,0,1-.91-1.155q-.315-1.19-1.26-4.27a1.8,1.8,0,0,1,.123-1.365,1.767,1.767,0,0,1,1.032-.91,1.645,1.645,0,0,1,1.348.087,1.648,1.648,0,0,1,.857,1.033q.805,2.59,1.3,4.655a.031.031,0,0,0,.035.035.031.031,0,0,0,.035-.035V-26.5a1.886,1.886,0,0,1,.577-1.382,1.886,1.886,0,0,1,1.382-.577h.14a1.886,1.886,0,0,1,1.382.577,1.886,1.886,0,0,1,.577,1.382v5.635q.035.035.105,0a48.02,48.02,0,0,0,1.33-4.62,1.812,1.812,0,0,1,.787-1.137,1.765,1.765,0,0,1,1.348-.263,1.812,1.812,0,0,1,1.137.788,1.657,1.657,0,0,1,.228,1.347q-.6,2.31-1.435,4.865a1.791,1.791,0,0,1-1,1.12,1.922,1.922,0,0,1-1.522.07l-.7-.28q-.28-.07-.28.21v1.12a.278.278,0,0,0,.315.315h2.1a1.788,1.788,0,0,1,1.313.542,1.788,1.788,0,0,1,.542,1.312,1.846,1.846,0,0,1-.542,1.33,1.76,1.76,0,0,1-1.312.56h-.77a.172.172,0,0,0-.158.087.157.157,0,0,0-.017.158q.875,1.68,2.59,5.11a2.284,2.284,0,0,1,.228,1.54,2.4,2.4,0,0,1-.787,1.365,1.276,1.276,0,0,1-1.19.3,1.318,1.318,0,0,1-.945-.788q-.21-.42-.6-1.33t-.56-1.33q-.035-.07-.088-.07t-.052.07V1.3a1.859,1.859,0,0,1-.6,1.383,1.944,1.944,0,0,1-1.4.577h-.21a1.944,1.944,0,0,1-1.4-.577A1.859,1.859,0,0,1,111.9,1.3V-6.79q0-.07-.035-.07a.1.1,0,0,0-.07.035,25.75,25.75,0,0,1-2.415,4.97.974.974,0,0,1-1,.49A1.1,1.1,0,0,1,107.45-2.03ZM157.29-7.7a1.986,1.986,0,0,1-1.435-.577,2.023,2.023,0,0,1-.63-1.418l-.525-13.86a1.851,1.851,0,0,1,.525-1.4,1.8,1.8,0,0,1,1.365-.595h1.89a1.8,1.8,0,0,1,1.365.595,1.851,1.851,0,0,1,.525,1.4L159.845-9.7a2.023,2.023,0,0,1-.63,1.418,1.986,1.986,0,0,1-1.435.577Zm.84,2.8a1.859,1.859,0,0,1,1.382.595,1.944,1.944,0,0,1,.577,1.4V-2a1.944,1.944,0,0,1-.577,1.4,1.859,1.859,0,0,1-1.382.6h-1.19a1.859,1.859,0,0,1-1.383-.6A1.944,1.944,0,0,1,154.98-2v-.91a1.944,1.944,0,0,1,.577-1.4A1.859,1.859,0,0,1,156.94-4.9Z" transform="translate(0.16 38.123)" fill="#ffd800"/></g><g transform="translate(683.781 1574.227)"><rect width="108" height="45" rx="2" transform="translate(-0.047 -0.337)" fill="#ffd800"/><path d="M9.576-8.652a6.96,6.96,0,0,0-2.968,1.6A3.077,3.077,0,0,0,5.6-4.844,2.641,2.641,0,0,0,6.482-2.9,2.715,2.715,0,0,0,8.4-2.044,1.436,1.436,0,0,0,9.506-2.38,1.974,1.974,0,0,0,9.8-3.64V-8.484Q9.8-8.708,9.576-8.652ZM8.764,1.12A6.961,6.961,0,0,1,4-.6a5.428,5.428,0,0,1-1.96-4.242A6.031,6.031,0,0,1,4.018-9.212a11.752,11.752,0,0,1,5.558-2.856.281.281,0,0,0,.224-.308V-15.9a.223.223,0,0,0-.252-.252H4.76a1.43,1.43,0,0,1-1.05-.434,1.43,1.43,0,0,1-.434-1.05,1.43,1.43,0,0,1,.434-1.05,1.43,1.43,0,0,1,1.05-.434H9.548a.223.223,0,0,0,.252-.252V-21a1.533,1.533,0,0,1,.476-1.12A1.533,1.533,0,0,1,11.4-22.6h.364a1.533,1.533,0,0,1,1.12.476A1.533,1.533,0,0,1,13.356-21v1.624q0,.252.224.252H18a1.477,1.477,0,0,1,1.064.434,1.408,1.408,0,0,1,.448,1.05,1.408,1.408,0,0,1-.448,1.05A1.477,1.477,0,0,1,18-16.156H13.58q-.224,0-.224.252v3.024q0,.224.252.224.448-.028,1.428-.028a10.788,10.788,0,0,1,6.692,1.932,5.717,5.717,0,0,1,2.548,4.676q0,5.964-6.44,7.308A1.552,1.552,0,0,1,16.6.994a1.728,1.728,0,0,1-.728-1.05L15.848-.14a1.432,1.432,0,0,1,.21-1.148,1.521,1.521,0,0,1,.966-.672,5.226,5.226,0,0,0,2.744-1.414,3.607,3.607,0,0,0,.868-2.506A2.914,2.914,0,0,0,19.11-8.3a7.216,7.216,0,0,0-4.074-1.022q-.98,0-1.428.028a.223.223,0,0,0-.252.252v5.6q0,2.576-1.008,3.57A5.064,5.064,0,0,1,8.764,1.12ZM23.8-19.012q1.512,2.044,2.632,3.836a1.448,1.448,0,0,1,.182,1.162,1.425,1.425,0,0,1-.686.938,1.57,1.57,0,0,1-1.176.154,1.522,1.522,0,0,1-.952-.686q-1.344-2.1-2.464-3.64a1.5,1.5,0,0,1-.28-1.12,1.4,1.4,0,0,1,.588-.98,1.564,1.564,0,0,1,1.162-.266A1.453,1.453,0,0,1,23.8-19.012Zm6.3,20.1-.028-.14A1.372,1.372,0,0,1,30.2-.21,1.41,1.41,0,0,1,31.136-.9q5.124-1.26,5.936-4.34.056-.224-.168-.224H33.712a1.533,1.533,0,0,1-1.12-.476,1.533,1.533,0,0,1-.476-1.12V-20.58a1.533,1.533,0,0,1,.476-1.12,1.533,1.533,0,0,1,1.12-.476H50.68a1.533,1.533,0,0,1,1.12.476,1.533,1.533,0,0,1,.476,1.12V-7.056a1.533,1.533,0,0,1-.476,1.12,1.533,1.533,0,0,1-1.12.476H47.1q-.224,0-.224.252v3.472q0,.644.14.77a1.7,1.7,0,0,0,.84.154q.112,0,.392.014t.392.014q.14,0,.42-.014t.42-.014a1.525,1.525,0,0,0,1.148-.35A4.353,4.353,0,0,0,50.988-3a1.384,1.384,0,0,1,.518-1.05A1.507,1.507,0,0,1,52.64-4.4l.392.028a1.536,1.536,0,0,1,1.078.574,1.645,1.645,0,0,1,.406,1.162q-.084,1.2-.182,1.932A4.7,4.7,0,0,1,53.97.616a3.174,3.174,0,0,1-.518.854,1.886,1.886,0,0,1-.882.434,6.537,6.537,0,0,1-1.218.21q-.588.042-1.764.07H47.012a8.582,8.582,0,0,1-3.248-.434q-.644-.378-.644-1.778v-5.18q0-.252-.224-.252H41.16a.265.265,0,0,0-.28.224q-1.036,5.572-8.708,7.5a1.61,1.61,0,0,1-1.26-.182A1.819,1.819,0,0,1,30.1,1.092ZM35.84-18.9v1.372a.223.223,0,0,0,.252.252H48.3a.223.223,0,0,0,.252-.252V-18.9q0-.224-.252-.224H36.092Q35.84-19.124,35.84-18.9Zm0,4.452V-13.1a.223.223,0,0,0,.252.252H48.3a.223.223,0,0,0,.252-.252v-1.344A.223.223,0,0,0,48.3-14.7H36.092A.223.223,0,0,0,35.84-14.448Zm.252,6.02H48.3q.252,0,.252-.224v-1.372a.223.223,0,0,0-.252-.252H36.092a.223.223,0,0,0-.252.252v1.372Q35.84-8.428,36.092-8.428Zm21.98,5.656-.28-.616a3.094,3.094,0,0,1,.14-2.828A25.079,25.079,0,0,0,60.4-12.4a.169.169,0,0,0-.042-.168.2.2,0,0,0-.154-.084h-.868A1.486,1.486,0,0,1,58.24-13.1a1.486,1.486,0,0,1-.448-1.092,1.486,1.486,0,0,1,.448-1.092,1.486,1.486,0,0,1,1.092-.448h.924a.2.2,0,0,0,.224-.224v-2.408a.263.263,0,0,0-.07-.168.135.135,0,0,0-.154-.056l-.5.084a1.525,1.525,0,0,1-1.106-.322,1.361,1.361,0,0,1-.546-.994,1.365,1.365,0,0,1,.336-1.05,1.551,1.551,0,0,1,1.008-.546,41.589,41.589,0,0,0,5.432-1.036,1.558,1.558,0,0,1,1.106.126,1.422,1.422,0,0,1,.714.826q.056.224.252.112a1.376,1.376,0,0,1,.5-.112H72.8a.173.173,0,0,0,.2-.2,1.274,1.274,0,0,1,.406-.952,1.343,1.343,0,0,1,.966-.392H75.46a1.343,1.343,0,0,1,.966.392,1.274,1.274,0,0,1,.406.952.173.173,0,0,0,.2.2h5.124a1.218,1.218,0,0,1,.9.364,1.218,1.218,0,0,1,.364.9,1.218,1.218,0,0,1-.364.9,1.218,1.218,0,0,1-.9.364h-5.1q-.224,0-.224.252v.28q0,.252.224.252h4.676a.972.972,0,0,1,.714.294.972.972,0,0,1,.294.714.972.972,0,0,1-.294.714.972.972,0,0,1-.714.294H77.056a.2.2,0,0,0-.224.224v.28q0,.252.224.252h5.712a1.176,1.176,0,0,1,.84.35,1.109,1.109,0,0,1,.364.826,1.109,1.109,0,0,1-.364.826,1.176,1.176,0,0,1-.84.35H67.088a1.14,1.14,0,0,1-.924-.448q-.112-.168-.224,0a1.443,1.443,0,0,1-1.4.868h-.2a.138.138,0,0,0-.126.07.094.094,0,0,0,.014.126q.084.14,2.324,4.2a.09.09,0,0,0,.084-.056v-2.408a1.533,1.533,0,0,1,.476-1.12,1.533,1.533,0,0,1,1.12-.476H81.172a1.487,1.487,0,0,1,1.106.476,1.556,1.556,0,0,1,.462,1.12v7.28a1.509,1.509,0,0,1-.462,1.106,1.509,1.509,0,0,1-1.106.462h-2.24q-.028.028,0,.084,2.016.728,3.892,1.6a1.362,1.362,0,0,1,.728.812,1.318,1.318,0,0,1-.084,1.092,1.265,1.265,0,0,1-.812.7,1.478,1.478,0,0,1-1.092-.084Q79.576,1.372,77.336.56a1.437,1.437,0,0,1-.868-.812,1.435,1.435,0,0,1,0-1.176l.084-.224q.112-.224-.14-.224h-3.78a.135.135,0,0,0-.126.084.111.111,0,0,0,.014.14l.028.056a1.7,1.7,0,0,1,.14,1.246,1.445,1.445,0,0,1-.756.966A27.825,27.825,0,0,1,67.4,2.464,1.478,1.478,0,0,1,66.3,2.38a1.585,1.585,0,0,1-.784-.812,1.193,1.193,0,0,1-.014-.994,1.139,1.139,0,0,1,.742-.658,34.385,34.385,0,0,0,4.228-1.68.1.1,0,0,0,.028-.07q0-.042-.056-.042H68.236a1.556,1.556,0,0,1-1.12-.462,1.487,1.487,0,0,1-.476-1.106V-6.02a.09.09,0,0,0-.056-.084.055.055,0,0,0-.084.028.643.643,0,0,1-.224.224,1,1,0,0,1-.938.2,1.1,1.1,0,0,1-.742-.616q-.308-.672-.644-1.372a.1.1,0,0,0-.07-.028q-.042,0-.042.028v8.68a1.509,1.509,0,0,1-.462,1.106,1.509,1.509,0,0,1-1.106.462h-.2a1.556,1.556,0,0,1-1.12-.462,1.487,1.487,0,0,1-.476-1.106V-5.04a.081.081,0,0,0-.056-.028,19.766,19.766,0,0,1-.952,2.38.675.675,0,0,1-.714.406A.772.772,0,0,1,58.072-2.772Zm12.32-7.112v.28a.2.2,0,0,0,.224.224H78.68q.252,0,.252-.224v-.28a.223.223,0,0,0-.252-.252H70.616Q70.392-10.136,70.392-9.884Zm0,2.6V-7q0,.252.224.252H78.68A.223.223,0,0,0,78.932-7v-.28q0-.224-.252-.224H70.616A.2.2,0,0,0,70.392-7.28Zm0,2.632v.28a.2.2,0,0,0,.224.224H78.68q.252,0,.252-.224v-.28A.223.223,0,0,0,78.68-4.9H70.616Q70.392-4.9,70.392-4.648ZM63.84-18.956v3q0,.224.252.224h.448a1.432,1.432,0,0,1,1.372.812q.112.14.2,0a1.148,1.148,0,0,1,.98-.5h5.656A.223.223,0,0,0,73-15.68v-.28q0-.224-.252-.224h-4.76a.972.972,0,0,1-.714-.294.972.972,0,0,1-.294-.714.972.972,0,0,1,.294-.714.972.972,0,0,1,.714-.294h4.76A.223.223,0,0,0,73-18.452v-.28a.223.223,0,0,0-.252-.252H67.452a1.175,1.175,0,0,1-1.148-.7q-.112-.2-.28-.112a1.086,1.086,0,0,1-.14.056.3.3,0,0,0-.112.056q-.616.2-1.68.448A.274.274,0,0,0,63.84-18.956Z" transform="translate(8.953 32.663)" fill="#454d4c"/></g><g transform="translate(597.281 1574.227)"><rect width="78" height="45" rx="2" transform="translate(0.453 -0.337)" fill="#ffd800"/><path d="M3.1-19.227a1.587,1.587,0,0,1-1.16-.493,1.587,1.587,0,0,1-.493-1.16v-.087a1.587,1.587,0,0,1,.493-1.16A1.587,1.587,0,0,1,3.1-22.62H25.9a1.587,1.587,0,0,1,1.16.493,1.587,1.587,0,0,1,.493,1.16v.087a1.587,1.587,0,0,1-.493,1.16,1.587,1.587,0,0,1-1.16.493H15.718q-.261,0-.261.232v2.958q0,.2.261.319l.029.029a97.931,97.931,0,0,1,8.932,5.133,1.5,1.5,0,0,1,.7,1.03,1.658,1.658,0,0,1-.261,1.232l-.2.319a1.593,1.593,0,0,1-1.059.681A1.575,1.575,0,0,1,22.62-7.54q-3.277-2.146-6.96-4.176a.1.1,0,0,0-.13-.014.142.142,0,0,0-.072.13V.58a1.611,1.611,0,0,1-.479,1.16,1.54,1.54,0,0,1-1.145.493h-.7a1.54,1.54,0,0,1-1.146-.493A1.611,1.611,0,0,1,11.513.58V-19q0-.232-.261-.232ZM31.175,1.131,31.146.986a1.422,1.422,0,0,1,.131-1.2,1.46,1.46,0,0,1,.972-.711q5.307-1.305,6.148-4.5.058-.232-.174-.232H34.916a1.587,1.587,0,0,1-1.16-.493,1.587,1.587,0,0,1-.493-1.16V-21.315a1.587,1.587,0,0,1,.493-1.16,1.587,1.587,0,0,1,1.16-.493H52.49a1.587,1.587,0,0,1,1.16.493,1.587,1.587,0,0,1,.493,1.16V-7.308a1.587,1.587,0,0,1-.493,1.16,1.587,1.587,0,0,1-1.16.493H48.778q-.232,0-.232.261v3.6q0,.667.145.8a1.758,1.758,0,0,0,.87.16q.116,0,.406.014t.406.015q.145,0,.435-.015t.435-.014A1.579,1.579,0,0,0,52.432-1.2a4.508,4.508,0,0,0,.377-1.9,1.433,1.433,0,0,1,.537-1.088,1.561,1.561,0,0,1,1.174-.362l.406.029a1.59,1.59,0,0,1,1.117.594,1.7,1.7,0,0,1,.42,1.2q-.087,1.247-.189,2A4.866,4.866,0,0,1,55.9.638a3.287,3.287,0,0,1-.537.884,1.954,1.954,0,0,1-.913.45,6.77,6.77,0,0,1-1.262.217q-.609.043-1.827.072H48.691a8.889,8.889,0,0,1-3.364-.45q-.667-.392-.667-1.842V-5.394q0-.261-.232-.261h-1.8a.274.274,0,0,0-.29.232Q41.267.348,33.321,2.349a1.668,1.668,0,0,1-1.305-.188A1.884,1.884,0,0,1,31.175,1.131ZM37.12-19.575v1.421a.231.231,0,0,0,.261.261H50.025a.231.231,0,0,0,.261-.261v-1.421q0-.232-.261-.232H37.381Q37.12-19.807,37.12-19.575Zm0,4.611v1.392a.231.231,0,0,0,.261.261H50.025a.231.231,0,0,0,.261-.261v-1.392a.231.231,0,0,0-.261-.261H37.381A.231.231,0,0,0,37.12-14.964Zm.261,6.235H50.025q.261,0,.261-.232v-1.421a.231.231,0,0,0-.261-.261H37.381a.231.231,0,0,0-.261.261v1.421Q37.12-8.729,37.381-8.729Z" transform="translate(10.453 33.663)" fill="#454d4c"/></g><path d="M-193.874-16.377a13.174,13.174,0,0,0-5.618,3.021A5.824,5.824,0,0,0-201.4-9.169a5,5,0,0,0,1.669,3.684,5.138,5.138,0,0,0,3.63,1.616,2.718,2.718,0,0,0,2.094-.636,3.736,3.736,0,0,0,.557-2.385v-9.169Q-193.45-16.483-193.874-16.377Zm-1.537,18.5a13.175,13.175,0,0,1-9.01-3.26,10.275,10.275,0,0,1-3.71-8.03,11.415,11.415,0,0,1,3.736-8.268q3.736-3.71,10.521-5.406a.533.533,0,0,0,.424-.583V-30.1a.422.422,0,0,0-.477-.477h-9.063a2.707,2.707,0,0,1-1.987-.822,2.707,2.707,0,0,1-.822-1.988,2.707,2.707,0,0,1,.822-1.987,2.707,2.707,0,0,1,1.987-.821h9.063a.422.422,0,0,0,.477-.477V-39.75a2.9,2.9,0,0,1,.9-2.12,2.9,2.9,0,0,1,2.12-.9h.689a2.9,2.9,0,0,1,2.12.9,2.9,2.9,0,0,1,.9,2.12v3.074q0,.477.424.477h8.374a2.8,2.8,0,0,1,2.014.821,2.665,2.665,0,0,1,.848,1.987,2.665,2.665,0,0,1-.848,1.988,2.8,2.8,0,0,1-2.014.822h-8.374q-.424,0-.424.477v5.724q0,.424.477.424.848-.053,2.7-.053,7.844,0,12.667,3.657t4.823,8.851q0,11.289-12.19,13.833a2.938,2.938,0,0,1-2.332-.451,3.271,3.271,0,0,1-1.378-1.988L-182-.265a2.711,2.711,0,0,1,.4-2.173,2.879,2.879,0,0,1,1.828-1.272,9.891,9.891,0,0,0,5.194-2.677,6.827,6.827,0,0,0,1.643-4.743q0-2.65-2.889-4.585a13.658,13.658,0,0,0-7.712-1.934q-1.855,0-2.7.053a.422.422,0,0,0-.477.477v10.6q0,4.876-1.908,6.758T-195.411,2.12Zm28.461-38.107q2.862,3.869,4.982,7.261a2.74,2.74,0,0,1,.344,2.2,2.7,2.7,0,0,1-1.3,1.776,2.971,2.971,0,0,1-2.226.291,2.882,2.882,0,0,1-1.8-1.3q-2.544-3.975-4.664-6.89a2.841,2.841,0,0,1-.53-2.12,2.64,2.64,0,0,1,1.113-1.855,2.96,2.96,0,0,1,2.2-.5A2.749,2.749,0,0,1-166.95-35.987ZM-152.8,4.664a2.944,2.944,0,0,1-2.12-.875,2.815,2.815,0,0,1-.9-2.094V-39.22a2.9,2.9,0,0,1,.9-2.12,2.9,2.9,0,0,1,2.12-.9h15.688a2.9,2.9,0,0,1,2.12.9,2.9,2.9,0,0,1,.9,2.12v14.734a2.9,2.9,0,0,1-.9,2.12,2.9,2.9,0,0,1-2.12.9h-11.448a.422.422,0,0,0-.477.477V1.7a2.856,2.856,0,0,1-.874,2.094A2.856,2.856,0,0,1-152,4.664Zm3.763-41.075v2.173a.422.422,0,0,0,.477.477h8.109q.424,0,.424-.477v-2.173q0-.477-.424-.477h-8.109A.422.422,0,0,0-149.036-36.411Zm0,7.579v2.173a.422.422,0,0,0,.477.477h8.109q.424,0,.424-.477v-2.173a.375.375,0,0,0-.424-.424h-8.109Q-149.036-29.256-149.036-28.832ZM-112.2-42.241a2.9,2.9,0,0,1,2.12.9,2.9,2.9,0,0,1,.9,2.12V-4.134q0,2.173-.08,3.419a9.745,9.745,0,0,1-.424,2.332A3.872,3.872,0,0,1-110.5,3.18a3.857,3.857,0,0,1-1.51.822,8.883,8.883,0,0,1-2.226.424q-1.192.079-3.259.079-2.226,0-4.187-.106a2.96,2.96,0,0,1-2.067-.927,3.391,3.391,0,0,1-.954-2.147,2.574,2.574,0,0,1,.742-1.988,2.52,2.52,0,0,1,2.014-.768q3.18.106,3.339.106a4.272,4.272,0,0,0,2.279-.344q.371-.345.371-2.147V-20.988a.422.422,0,0,0-.477-.477h-11.978a2.9,2.9,0,0,1-2.12-.9,2.9,2.9,0,0,1-.9-2.12V-39.22a2.9,2.9,0,0,1,.9-2.12,2.9,2.9,0,0,1,2.12-.9Zm-3.763,15.582v-2.173q0-.424-.477-.424h-8.639a.375.375,0,0,0-.424.424v2.173q0,.477.424.477h8.639A.422.422,0,0,0-115.964-26.659Zm0-7.579v-2.173a.422.422,0,0,0-.477-.477h-8.639q-.424,0-.424.477v2.173q0,.477.424.477h8.639A.422.422,0,0,0-115.964-34.238Zm-4.982,30.1a2.856,2.856,0,0,1-.874,2.094,2.856,2.856,0,0,1-2.094.875h-13.462a.281.281,0,0,0-.318.318A2.122,2.122,0,0,1-138.33.663a2.053,2.053,0,0,1-1.537.663h-1.219a2.815,2.815,0,0,1-2.094-.9,2.945,2.945,0,0,1-.874-2.12V-15a2.945,2.945,0,0,1,.874-2.12,2.815,2.815,0,0,1,2.094-.9h17.172a2.815,2.815,0,0,1,2.094.9,2.944,2.944,0,0,1,.874,2.12Zm-6.36-2.332v-6.148q0-.477-.424-.477h-9.54q-.424,0-.424.477v6.148q0,.477.424.477h9.54Q-127.306-5.989-127.306-6.466Zm32.118-11.713H-63.07a2.944,2.944,0,0,1,2.12.875,2.815,2.815,0,0,1,.9,2.094V1.749a2.9,2.9,0,0,1-.9,2.12,2.9,2.9,0,0,1-2.12.9h-1.908a2.034,2.034,0,0,1-1.484-.636A2.094,2.094,0,0,1-67.1,2.6a.281.281,0,0,0-.318-.318H-90.842a.281.281,0,0,0-.318.318A2.094,2.094,0,0,1-91.8,4.134a2.034,2.034,0,0,1-1.484.636h-1.908a2.9,2.9,0,0,1-2.12-.9,2.9,2.9,0,0,1-.9-2.12v-16.96a2.815,2.815,0,0,1,.9-2.094A2.944,2.944,0,0,1-95.188-18.179ZM-67.1-3.657v-8.427a.422.422,0,0,0-.477-.477H-90.683a.422.422,0,0,0-.477.477v8.427a.422.422,0,0,0,.477.477h23.108A.422.422,0,0,0-67.1-3.657ZM-102.29-25.175l-.212-.371a3.124,3.124,0,0,1-.132-2.359,3.217,3.217,0,0,1,1.51-1.828,86.145,86.145,0,0,0,15.37-11.289,7.33,7.33,0,0,1,5.141-2.067h2.968a7.393,7.393,0,0,1,5.194,2.067A88.949,88.949,0,0,0-57.081-29.68a3.108,3.108,0,0,1,1.484,1.8,3.151,3.151,0,0,1-.159,2.332l-.212.371a2.721,2.721,0,0,1-1.7,1.484A2.725,2.725,0,0,1-59.89-23.9q-1.749-.954-3.975-2.332-.424-.265-.424.159v.106a2.9,2.9,0,0,1-.9,2.12,2.9,2.9,0,0,1-2.12.9H-90.948a2.9,2.9,0,0,1-2.12-.9,2.9,2.9,0,0,1-.9-2.12v-.106q0-.424-.424-.159-.954.636-4.028,2.385a2.6,2.6,0,0,1-2.2.185A2.815,2.815,0,0,1-102.29-25.175Zm11.872-3.71a.129.129,0,0,0-.079.159.125.125,0,0,0,.132.106h22.472a.17.17,0,0,0,.159-.106.1.1,0,0,0-.053-.159,82.8,82.8,0,0,1-10.971-9.381.452.452,0,0,0-.689,0A82.8,82.8,0,0,1-90.418-28.885Zm43.884,2.65a2.9,2.9,0,0,1-2.12-.9,2.9,2.9,0,0,1-.9-2.12,2.856,2.856,0,0,1,.875-2.094,2.856,2.856,0,0,1,2.094-.875q.795,0,2.332-.026t2.279-.027a.422.422,0,0,0,.477-.477V-38.16a2.944,2.944,0,0,1,.875-2.12,2.815,2.815,0,0,1,2.094-.9h.742a2.815,2.815,0,0,1,2.094.9,2.944,2.944,0,0,1,.875,2.12v5.353q0,.424.477.424,10.971-.212,16.271-.371.424,0,.424-.477v-6.148a2.944,2.944,0,0,1,.875-2.12,2.815,2.815,0,0,1,2.094-.9h.53a2.9,2.9,0,0,1,2.12.9,2.9,2.9,0,0,1,.9,2.12v5.936a.375.375,0,0,0,.424.424l4.028-.159a2.887,2.887,0,0,1,2.146.8,2.876,2.876,0,0,1,.98,2.067,2.843,2.843,0,0,1-.821,2.146,2.965,2.965,0,0,1-2.094.981q-.742.053-2.12.106t-2.12.106a.375.375,0,0,0-.424.424v8.162q0,4.134-1.4,5.777t-4.8,1.643A43.3,43.3,0,0,1-25.6-12.137a2.811,2.811,0,0,1-1.882-1.378,3.118,3.118,0,0,1-.4-2.332l.106-.265a2.78,2.78,0,0,1,1.3-1.855,3.032,3.032,0,0,1,2.2-.424,29.3,29.3,0,0,0,5.194.8q1.007,0,1.219-.371a6.659,6.659,0,0,0,.212-2.279v-6.042a.422.422,0,0,0-.477-.477q-10.706.318-16.271.424a.375.375,0,0,0-.424.424V-10.6a10.1,10.1,0,0,0,.769,4.584,4.24,4.24,0,0,0,2.889,1.935,31.918,31.918,0,0,0,6.943.53,118.51,118.51,0,0,0,12.19-.689,3.025,3.025,0,0,1,2.2.663A2.731,2.731,0,0,1-8.745-1.59v.212A3.107,3.107,0,0,1-9.407.874a2.775,2.775,0,0,1-2.041,1.086,118.508,118.508,0,0,1-12.773.689,38.319,38.319,0,0,1-10.812-1.14,8.1,8.1,0,0,1-5.035-3.869Q-41.5-5.088-41.5-10.6V-25.811a.422.422,0,0,0-.477-.477q-.742,0-2.279.027T-46.534-26.235Zm52.205-8.9a2.9,2.9,0,0,1-2.12-.9,2.9,2.9,0,0,1-.9-2.12v-.159a2.9,2.9,0,0,1,.9-2.12,2.9,2.9,0,0,1,2.12-.9H47.329a2.9,2.9,0,0,1,2.12.9,2.9,2.9,0,0,1,.9,2.12v.159a2.9,2.9,0,0,1-.9,2.12,2.9,2.9,0,0,1-2.12.9h-18.6q-.477,0-.477.424v5.406q0,.371.477.583l.053.053A178.976,178.976,0,0,1,45.1-19.292a2.742,2.742,0,0,1,1.272,1.882,3.03,3.03,0,0,1-.477,2.252l-.371.583a2.912,2.912,0,0,1-1.934,1.246,2.878,2.878,0,0,1-2.253-.451Q35.351-17.7,28.62-21.412a.177.177,0,0,0-.238-.026.26.26,0,0,0-.132.238V1.06a2.944,2.944,0,0,1-.875,2.12,2.815,2.815,0,0,1-2.093.9H24.009a2.815,2.815,0,0,1-2.094-.9,2.944,2.944,0,0,1-.875-2.12V-34.715q0-.424-.477-.424Zm55.438,5.618a2.856,2.856,0,0,1-2.094-.875,2.856,2.856,0,0,1-.875-2.094,2.918,2.918,0,0,1,.875-2.146,2.918,2.918,0,0,1,2.147-.875q6.519,0,19.663-.318.53,0,.424-.424-.159-1.431-.318-3.021a2.676,2.676,0,0,1,.715-2.12A3.073,3.073,0,0,1,83.74-42.4h.689a2.87,2.87,0,0,1,2.2.742,2.806,2.806,0,0,1,1.034,2.067q.053.477.132,1.537t.132,1.59a.5.5,0,0,0,.53.424q6.2-.212,9.434-.371a2.8,2.8,0,0,1,2.12.8,2.916,2.916,0,0,1,.954,2.067,2.843,2.843,0,0,1-.821,2.146,2.965,2.965,0,0,1-2.093.981l-8.586.318q-.424,0-.318.477A41.769,41.769,0,0,0,93.6-18.974a2.846,2.846,0,0,1,.265,2.226A2.582,2.582,0,0,1,92.485-15l-1.007.477a5.535,5.535,0,0,1-5.247-.106,21.977,21.977,0,0,0-9.752-2.332,10.5,10.5,0,0,0-6.254,1.616A5.126,5.126,0,0,0,68-10.971a6.255,6.255,0,0,0,3.286,5.645q3.286,1.988,9.805,1.987A67.351,67.351,0,0,0,91-4.24a2.935,2.935,0,0,1,2.253.5A2.868,2.868,0,0,1,94.5-1.8V-1.7A2.7,2.7,0,0,1,94.049.53a2.9,2.9,0,0,1-1.935,1.219,76.82,76.82,0,0,1-11.024.9q-10.176,0-15.158-3.816A12.123,12.123,0,0,1,60.95-11.289a10.257,10.257,0,0,1,4.028-8.48q4.028-3.18,11.183-3.18a24.46,24.46,0,0,1,9.01,1.749h.106a.153.153,0,0,0,.053-.106,38.431,38.431,0,0,1-2.862-8.109.568.568,0,0,0-.636-.424Q71.444-29.521,61.109-29.521ZM147.658-6.2A79.443,79.443,0,0,0,142.2-32.807a2.8,2.8,0,0,1,.053-2.2,2.554,2.554,0,0,1,1.643-1.457l.742-.212a3.271,3.271,0,0,1,2.411.186,3.411,3.411,0,0,1,1.723,1.722A78.1,78.1,0,0,1,154.707-6.2a2.722,2.722,0,0,1-.848,2.12,2.9,2.9,0,0,1-2.12.9h-1.06a2.815,2.815,0,0,1-2.093-.9A3.152,3.152,0,0,1,147.658-6.2ZM123.649,2.491q-4.505,0-8.348-6.148a27.55,27.55,0,0,1-3.842-14.893,66.622,66.622,0,0,1,1.855-15.688,3.24,3.24,0,0,1,1.4-1.987,3.494,3.494,0,0,1,2.411-.556l.9.106a2.35,2.35,0,0,1,1.828,1.113,2.711,2.711,0,0,1,.4,2.173,67.356,67.356,0,0,0-1.7,14.84,23.341,23.341,0,0,0,1.881,9.911q1.882,4.028,3.737,4.028,1.166,0,3.021-2.253a29.062,29.062,0,0,0,3.763-6.546,3.211,3.211,0,0,1,1.67-1.669,2.984,2.984,0,0,1,2.305-.08l.583.212a2.9,2.9,0,0,1,1.7,1.564,2.648,2.648,0,0,1,.053,2.252A29.583,29.583,0,0,1,130.8-1.113Q127.041,2.491,123.649,2.491ZM185.182-11.66a3.007,3.007,0,0,1-2.173-.874,3.063,3.063,0,0,1-.954-2.147l-.8-20.988a2.8,2.8,0,0,1,.8-2.12,2.731,2.731,0,0,1,2.067-.9h2.862a2.731,2.731,0,0,1,2.067.9,2.8,2.8,0,0,1,.8,2.12l-.8,20.988a3.063,3.063,0,0,1-.954,2.147,3.007,3.007,0,0,1-2.173.874Zm1.272,4.24a2.815,2.815,0,0,1,2.094.9,2.945,2.945,0,0,1,.874,2.12v1.378a2.945,2.945,0,0,1-.874,2.12,2.815,2.815,0,0,1-2.094.9h-1.8a2.815,2.815,0,0,1-2.094-.9,2.945,2.945,0,0,1-.874-2.12V-4.4a2.945,2.945,0,0,1,.874-2.12,2.815,2.815,0,0,1,2.094-.9Z" transform="translate(882.734 1690.89)" fill="#fff"/><path d="M-76.268-14.214a11.434,11.434,0,0,0-4.876,2.622A5.055,5.055,0,0,0-82.8-7.958a4.34,4.34,0,0,0,1.449,3.2,4.46,4.46,0,0,0,3.151,1.4,2.359,2.359,0,0,0,1.817-.552A3.242,3.242,0,0,0-75.9-5.98v-7.958Q-75.9-14.306-76.268-14.214ZM-77.6,1.84a11.435,11.435,0,0,1-7.82-2.829,8.918,8.918,0,0,1-3.22-6.969A9.908,9.908,0,0,1-85.4-15.134a19.308,19.308,0,0,1,9.131-4.692.462.462,0,0,0,.368-.506v-5.8a.366.366,0,0,0-.414-.414H-84.18a2.35,2.35,0,0,1-1.725-.713,2.35,2.35,0,0,1-.713-1.725,2.35,2.35,0,0,1,.713-1.725,2.35,2.35,0,0,1,1.725-.713h7.866a.366.366,0,0,0,.414-.414V-34.5a2.518,2.518,0,0,1,.782-1.84,2.518,2.518,0,0,1,1.84-.782h.6a2.518,2.518,0,0,1,1.84.782,2.518,2.518,0,0,1,.782,1.84v2.668q0,.414.368.414h7.268a2.427,2.427,0,0,1,1.748.713,2.313,2.313,0,0,1,.736,1.725,2.313,2.313,0,0,1-.736,1.725,2.427,2.427,0,0,1-1.748.713H-69.69q-.368,0-.368.414v4.968q0,.368.414.368.736-.046,2.346-.046,6.808,0,10.994,3.174t4.186,7.682q0,9.8-10.58,12.006a2.55,2.55,0,0,1-2.024-.391,2.839,2.839,0,0,1-1.2-1.725l-.046-.138a2.353,2.353,0,0,1,.345-1.886,2.5,2.5,0,0,1,1.587-1.1,8.585,8.585,0,0,0,4.508-2.323A5.926,5.926,0,0,0-58.1-9.66,4.787,4.787,0,0,0-60.6-13.639,11.854,11.854,0,0,0-67.3-15.318q-1.61,0-2.346.046a.366.366,0,0,0-.414.414v9.2q0,4.232-1.656,5.865T-77.6,1.84Zm24.7-33.074q2.484,3.358,4.324,6.3a2.378,2.378,0,0,1,.3,1.909A2.341,2.341,0,0,1-49.4-21.482a2.579,2.579,0,0,1-1.932.253A2.5,2.5,0,0,1-52.9-22.356q-2.208-3.45-4.048-5.98a2.466,2.466,0,0,1-.46-1.84,2.291,2.291,0,0,1,.966-1.61,2.569,2.569,0,0,1,1.909-.437A2.386,2.386,0,0,1-52.9-31.234ZM-3.174-12.742A2.764,2.764,0,0,1-1.38-11.661a2.8,2.8,0,0,1,.6,2A47.94,47.94,0,0,1-2.024-.989a8.581,8.581,0,0,1-1.932,4A4.386,4.386,0,0,1-6.992,4q-3.726,0-6.348-4.83t-2.9-14.766a.366.366,0,0,0-.414-.414h-21.16a2.313,2.313,0,0,1-1.7-.69,2.313,2.313,0,0,1-.69-1.7,2.313,2.313,0,0,1,.69-1.7,2.313,2.313,0,0,1,1.7-.69h25.07a2.483,2.483,0,0,1,1.84.805,2.594,2.594,0,0,1,.782,1.863,59.868,59.868,0,0,0,.6,8.326,24.314,24.314,0,0,0,1.2,5.175q.644,1.541,1.2,1.541.23,0,.391-.414a12.016,12.016,0,0,0,.368-2.116q.207-1.7.483-5.014a2.138,2.138,0,0,1,.874-1.656A2.227,2.227,0,0,1-3.174-12.742ZM-42.412-21.8a2.34,2.34,0,0,1-1.035-1.633,2.332,2.332,0,0,1,.483-1.863,45.935,45.935,0,0,0,6.072-11.086,3.016,3.016,0,0,1,1.357-1.587,3.043,3.043,0,0,1,2.047-.345l.874.184a1.976,1.976,0,0,1,1.38.966,1.853,1.853,0,0,1,.138,1.656q-.092.322.23.322h24.1a2.35,2.35,0,0,1,1.725.713,2.35,2.35,0,0,1,.713,1.725A2.427,2.427,0,0,1-5.037-31a2.313,2.313,0,0,1-1.725.736H-32.89a.54.54,0,0,0-.552.322q-.644,1.288-1.012,1.932-.184.276.23.276H-9.246a2.077,2.077,0,0,1,1.518.644,2.129,2.129,0,0,1,.644,1.564A2.115,2.115,0,0,1-7.7-24.012a2.054,2.054,0,0,1-1.541.644H-32.522a2.556,2.556,0,0,1-1.84-.759,2.443,2.443,0,0,1-.782-1.817v-.46a.106.106,0,0,0-.069-.115.1.1,0,0,0-.115.023,44.538,44.538,0,0,1-2.944,4.324,2.8,2.8,0,0,1-1.794,1.058,2.646,2.646,0,0,1-2.024-.46Zm1.15,20.792a55.37,55.37,0,0,0,8.51-4.738.213.213,0,0,0,.138-.23.213.213,0,0,0-.138-.23q-3.036-2.116-4.968-3.312A2.342,2.342,0,0,1-38.8-11.109a2.286,2.286,0,0,1,.391-1.863,2.793,2.793,0,0,1,1.725-1.1,2.559,2.559,0,0,1,2,.368q3.128,1.932,6.348,4.232a.489.489,0,0,0,.6-.046,50.507,50.507,0,0,0,4.186-3.91,2.911,2.911,0,0,1,1.863-.874,2.453,2.453,0,0,1,1.909.644l.138.092a2.415,2.415,0,0,1,.9,1.771,2.387,2.387,0,0,1-.667,1.863q-2.254,2.346-3.91,3.772a.29.29,0,0,0,.046.506Q-20.24-3.22-18.17-1.426a2.394,2.394,0,0,1,.9,1.748,2.357,2.357,0,0,1-.667,1.84,2.911,2.911,0,0,1-1.863.874,2.537,2.537,0,0,1-1.909-.6q-3.68-3.128-5.842-4.784a.446.446,0,0,0-.6,0A59.425,59.425,0,0,1-38.64,3.588a2.747,2.747,0,0,1-2.093.092A2.847,2.847,0,0,1-42.366,2.3,2.256,2.256,0,0,1-42.527.391,2.3,2.3,0,0,1-41.262-1.012ZM24.1-19.78a32.438,32.438,0,0,0,4.876-2.392q.322-.184.046-.46a38.463,38.463,0,0,1-3.818-4.186,2.259,2.259,0,0,1-.414-1.909,2.386,2.386,0,0,1,1.15-1.587l1.1-.69a.156.156,0,0,0,.046-.115q0-.069-.092-.069H26.22a2.388,2.388,0,0,1-1.748-.736,2.388,2.388,0,0,1-.736-1.748,2.441,2.441,0,0,1,.736-1.794A2.388,2.388,0,0,1,26.22-36.2H40.94a2.388,2.388,0,0,1,1.748.736,2.441,2.441,0,0,1,.736,1.794,10.447,10.447,0,0,1-1.058,4.738,27.48,27.48,0,0,1-4.278,6.072.411.411,0,0,0-.092.3q0,.207.138.253a35.658,35.658,0,0,0,4.6,2.346,2.619,2.619,0,0,1,1.4,1.4,2.353,2.353,0,0,1,.023,1.955,2.578,2.578,0,0,1-1.449,1.5,2.569,2.569,0,0,1-2.047.023,39.742,39.742,0,0,1-6.854-3.68.478.478,0,0,0-.644-.046,43.7,43.7,0,0,1-7.176,3.68,2.466,2.466,0,0,1-1.978,0,2.524,2.524,0,0,1-1.38-1.426,2.366,2.366,0,0,1,.069-1.909A2.457,2.457,0,0,1,24.1-19.78ZM28.75-30.866A26.645,26.645,0,0,0,33.258-25.9a.418.418,0,0,0,.6-.046,19.218,19.218,0,0,0,3.588-4.876q.184-.368-.23-.368h-8.28a.226.226,0,0,0-.207.115A.154.154,0,0,0,28.75-30.866ZM9.2-5.152a.325.325,0,0,0,.368-.368V-7.636q0-.414-.368-.414h-4a2.443,2.443,0,0,1-1.817-.782,2.556,2.556,0,0,1-.759-1.84V-23.828a2.556,2.556,0,0,1,.759-1.84A2.443,2.443,0,0,1,5.2-26.45h4q.368,0,.368-.414v-1.978A.325.325,0,0,0,9.2-29.21H4.048a2.237,2.237,0,0,1-1.679-.69A2.354,2.354,0,0,1,1.7-31.6a2.277,2.277,0,0,1,.667-1.679,2.277,2.277,0,0,1,1.679-.667H9.2q.368,0,.368-.414v-.6a2.518,2.518,0,0,1,.782-1.84,2.518,2.518,0,0,1,1.84-.782h.69a2.518,2.518,0,0,1,1.84.782,2.518,2.518,0,0,1,.782,1.84v.6q0,.414.368.414h4.278a2.354,2.354,0,0,1,1.7.667,2.237,2.237,0,0,1,.69,1.679,2.313,2.313,0,0,1-.69,1.7,2.313,2.313,0,0,1-1.7.69H15.87a.325.325,0,0,0-.368.368v1.978q0,.414.368.414h3.588a2.518,2.518,0,0,1,1.84.782,2.518,2.518,0,0,1,.782,1.84v13.156a2.518,2.518,0,0,1-.782,1.84,2.518,2.518,0,0,1-1.84.782H15.87q-.368,0-.368.414V-5.52a.325.325,0,0,0,.368.368h4.6a2.313,2.313,0,0,1,1.7.69,2.313,2.313,0,0,1,.69,1.7,2.083,2.083,0,0,1-.138.736.207.207,0,0,0,.023.207q.069.115.161.069a2.7,2.7,0,0,1,.644-.092h6.532a.366.366,0,0,0,.414-.414V-7.13q0-.368-.414-.368H25.99a2.313,2.313,0,0,1-1.7-.69,2.313,2.313,0,0,1-.69-1.7,2.313,2.313,0,0,1,.69-1.7,2.313,2.313,0,0,1,1.7-.69h4.094q.414,0,.414-.368v-.828a2.556,2.556,0,0,1,.759-1.84,2.443,2.443,0,0,1,1.817-.782h.782a2.518,2.518,0,0,1,1.84.782,2.518,2.518,0,0,1,.782,1.84v.828a.325.325,0,0,0,.368.368h4.508a2.313,2.313,0,0,1,1.7.69,2.313,2.313,0,0,1,.69,1.7,2.313,2.313,0,0,1-.69,1.7,2.313,2.313,0,0,1-1.7.69H36.846a.325.325,0,0,0-.368.368v4.876q0,.414.368.414H42a2.441,2.441,0,0,1,1.794.736A2.388,2.388,0,0,1,44.528.644a2.388,2.388,0,0,1-.736,1.748A2.441,2.441,0,0,1,42,3.128H23.552A2.388,2.388,0,0,1,21.8,2.392,2.388,2.388,0,0,1,21.068.644a2.746,2.746,0,0,1,.138-.874.15.15,0,0,0-.046-.184.15.15,0,0,0-.184-.046,2.536,2.536,0,0,1-.506.092h-4.6A.325.325,0,0,0,15.5,0V1.84a2.518,2.518,0,0,1-.782,1.84,2.518,2.518,0,0,1-1.84.782h-.69a2.518,2.518,0,0,1-1.84-.782,2.518,2.518,0,0,1-.782-1.84V0A.325.325,0,0,0,9.2-.368H4.048a2.237,2.237,0,0,1-1.679-.69A2.354,2.354,0,0,1,1.7-2.76a2.354,2.354,0,0,1,.667-1.7,2.237,2.237,0,0,1,1.679-.69Zm6.072-16.56v2.07q0,.414.368.414H17.3q.368,0,.368-.414v-2.07q0-.414-.368-.414H15.64Q15.272-22.126,15.272-21.712Zm0,6.716v2.208q0,.414.368.414H17.3q.368,0,.368-.414V-15q0-.414-.368-.414H15.64Q15.272-15.41,15.272-15Zm-8-6.716v2.07q0,.414.368.414H9.43q.368,0,.368-.414v-2.07q0-.414-.368-.414H7.636Q7.268-22.126,7.268-21.712ZM9.43-12.374q.368,0,.368-.414V-15q0-.414-.368-.414H7.636q-.368,0-.368.414v2.208q0,.414.368.414ZM69.138-32.062H83.72a2.518,2.518,0,0,1,1.84.782,2.518,2.518,0,0,1,.782,1.84v.138a2.518,2.518,0,0,1-.782,1.84,2.518,2.518,0,0,1-1.84.782H69.138a2.443,2.443,0,0,1-1.817-.782,2.556,2.556,0,0,1-.759-1.84v-.138a2.556,2.556,0,0,1,.759-1.84A2.443,2.443,0,0,1,69.138-32.062Zm-13.2,34.27a2.87,2.87,0,0,1-2.024-.483A2.657,2.657,0,0,1,52.762,0a77.305,77.305,0,0,1-1.7-16.56,77.305,77.305,0,0,1,1.7-16.56,2.657,2.657,0,0,1,1.15-1.725,2.87,2.87,0,0,1,2.024-.483l.874.092a2.105,2.105,0,0,1,1.61.966,2.305,2.305,0,0,1,.368,1.886,73.157,73.157,0,0,0-1.61,15.824A73.157,73.157,0,0,0,58.788-.736,2.305,2.305,0,0,1,58.42,1.15a2.105,2.105,0,0,1-1.61.966ZM76.682.6Q70.2.6,66.447-1.909A7.7,7.7,0,0,1,62.7-8.6q0-3.588,3.956-8.05A2.481,2.481,0,0,1,68.54-17.5a2.9,2.9,0,0,1,1.978.667l.23.138a2.179,2.179,0,0,1,.874,1.7,2.516,2.516,0,0,1-.644,1.84Q68.77-10.488,68.77-8.832q0,3.91,7.912,3.91a44.261,44.261,0,0,0,7.5-.69,2.479,2.479,0,0,1,1.932.437A2.49,2.49,0,0,1,87.17-3.542v.184a2.758,2.758,0,0,1-.414,2.024A2.391,2.391,0,0,1,85.1-.23,42.818,42.818,0,0,1,76.682.6Z" transform="translate(573.734 1691.89)" fill="#fff"/><g transform="translate(597.432 1627.651)" clip-path="url(#a)"><g transform="translate(-15 -247.999)"><path d="M645.258,358.01a5.619,5.619,0,0,0-3.635,1.243,6.648,6.648,0,0,1-8.1,0,5.623,5.623,0,0,0-3.636-1.243s-.008-.874,0-.874a6.5,6.5,0,0,1,4.049,1.375,5.928,5.928,0,0,0,7.272,0,6.315,6.315,0,0,1,4.049-1.375Z" transform="translate(-614.884 -109.135)" fill="#ffd800"/></g><g transform="translate(0 -247.999)"><path d="M645.258,358.01a5.619,5.619,0,0,0-3.635,1.243,6.648,6.648,0,0,1-8.1,0,5.623,5.623,0,0,0-3.636-1.243s-.008-.874,0-.874a6.5,6.5,0,0,1,4.049,1.375,5.928,5.928,0,0,0,7.272,0,6.315,6.315,0,0,1,4.049-1.375Z" transform="translate(-614.884 -109.135)" fill="#ffd800"/></g><g transform="translate(15 -247.999)"><path d="M645.258,358.01a5.619,5.619,0,0,0-3.635,1.243,6.648,6.648,0,0,1-8.1,0,5.623,5.623,0,0,0-3.636-1.243s-.008-.874,0-.874a6.5,6.5,0,0,1,4.049,1.375,5.928,5.928,0,0,0,7.272,0,6.315,6.315,0,0,1,4.049-1.375Z" transform="translate(-614.884 -109.135)" fill="#ffd800"/></g><g transform="translate(30 -247.999)"><path d="M645.258,358.01a5.619,5.619,0,0,0-3.635,1.243,6.648,6.648,0,0,1-8.1,0,5.623,5.623,0,0,0-3.636-1.243s-.008-.874,0-.874a6.5,6.5,0,0,1,4.049,1.375,5.928,5.928,0,0,0,7.272,0,6.315,6.315,0,0,1,4.049-1.375Z" transform="translate(-614.884 -109.135)" fill="#ffd800"/></g><g transform="translate(45 -247.999)"><path d="M645.258,358.01a5.619,5.619,0,0,0-3.635,1.243,6.648,6.648,0,0,1-8.1,0,5.623,5.623,0,0,0-3.636-1.243s-.008-.874,0-.874a6.5,6.5,0,0,1,4.049,1.375,5.928,5.928,0,0,0,7.272,0,6.315,6.315,0,0,1,4.049-1.375Z" transform="translate(-614.884 -109.135)" fill="#ffd800"/></g><g transform="translate(60 -247.999)"><path d="M645.258,358.01a5.619,5.619,0,0,0-3.635,1.243,6.648,6.648,0,0,1-8.1,0,5.623,5.623,0,0,0-3.636-1.243s-.008-.874,0-.874a6.5,6.5,0,0,1,4.049,1.375,5.928,5.928,0,0,0,7.272,0,6.315,6.315,0,0,1,4.049-1.375Z" transform="translate(-614.884 -109.135)" fill="#ffd800"/></g><g transform="translate(75 -247.999)"><path d="M645.258,358.01a5.619,5.619,0,0,0-3.635,1.243,6.648,6.648,0,0,1-8.1,0,5.623,5.623,0,0,0-3.636-1.243s-.008-.874,0-.874a6.5,6.5,0,0,1,4.049,1.375,5.928,5.928,0,0,0,7.272,0,6.315,6.315,0,0,1,4.049-1.375Z" transform="translate(-614.884 -109.135)" fill="#ffd800"/></g><g transform="translate(90 -247.999)"><path d="M645.258,358.01a5.619,5.619,0,0,0-3.635,1.243,6.648,6.648,0,0,1-8.1,0,5.623,5.623,0,0,0-3.636-1.243s-.008-.874,0-.874a6.5,6.5,0,0,1,4.049,1.375,5.928,5.928,0,0,0,7.272,0,6.315,6.315,0,0,1,4.049-1.375Z" transform="translate(-614.884 -109.135)" fill="#ffd800"/></g><g transform="translate(105 -247.999)"><path d="M645.258,358.01a5.619,5.619,0,0,0-3.635,1.243,6.648,6.648,0,0,1-8.1,0,5.623,5.623,0,0,0-3.636-1.243s-.008-.874,0-.874a6.5,6.5,0,0,1,4.049,1.375,5.928,5.928,0,0,0,7.272,0,6.315,6.315,0,0,1,4.049-1.375Z" transform="translate(-614.884 -109.135)" fill="#ffd800"/></g><g transform="translate(120 -247.999)"><path d="M645.258,358.01a5.619,5.619,0,0,0-3.635,1.243,6.648,6.648,0,0,1-8.1,0,5.623,5.623,0,0,0-3.636-1.243s-.008-.874,0-.874a6.5,6.5,0,0,1,4.049,1.375,5.928,5.928,0,0,0,7.272,0,6.315,6.315,0,0,1,4.049-1.375Z" transform="translate(-614.884 -109.135)" fill="#ffd800"/></g><g transform="translate(135 -247.999)"><path d="M645.258,358.01a5.619,5.619,0,0,0-3.635,1.243,6.648,6.648,0,0,1-8.1,0,5.623,5.623,0,0,0-3.636-1.243s-.008-.874,0-.874a6.5,6.5,0,0,1,4.049,1.375,5.928,5.928,0,0,0,7.272,0,6.315,6.315,0,0,1,4.049-1.375Z" transform="translate(-614.884 -109.135)" fill="#ffd800"/></g><g transform="translate(150 -247.999)"><path d="M645.258,358.01a5.619,5.619,0,0,0-3.635,1.243,6.648,6.648,0,0,1-8.1,0,5.623,5.623,0,0,0-3.636-1.243s-.008-.874,0-.874a6.5,6.5,0,0,1,4.049,1.375,5.928,5.928,0,0,0,7.272,0,6.315,6.315,0,0,1,4.049-1.375Z" transform="translate(-614.884 -109.135)" fill="#ffd800"/></g><g transform="translate(165 -247.999)"><path d="M645.258,358.01a5.619,5.619,0,0,0-3.635,1.243,6.648,6.648,0,0,1-8.1,0,5.623,5.623,0,0,0-3.636-1.243s-.008-.874,0-.874a6.5,6.5,0,0,1,4.049,1.375,5.928,5.928,0,0,0,7.272,0,6.315,6.315,0,0,1,4.049-1.375Z" transform="translate(-614.884 -109.135)" fill="#ffd800"/></g><g transform="translate(180 -247.999)"><path d="M645.258,358.01a5.619,5.619,0,0,0-3.635,1.243,6.648,6.648,0,0,1-8.1,0,5.623,5.623,0,0,0-3.636-1.243s-.008-.874,0-.874a6.5,6.5,0,0,1,4.049,1.375,5.928,5.928,0,0,0,7.272,0,6.315,6.315,0,0,1,4.049-1.375Z" transform="translate(-614.884 -109.135)" fill="#ffd800"/></g><g transform="translate(195 -247.999)"><path d="M645.258,358.01a5.619,5.619,0,0,0-3.635,1.243,6.648,6.648,0,0,1-8.1,0,5.623,5.623,0,0,0-3.636-1.243s-.008-.874,0-.874a6.5,6.5,0,0,1,4.049,1.375,5.928,5.928,0,0,0,7.272,0,6.315,6.315,0,0,1,4.049-1.375Z" transform="translate(-614.884 -109.135)" fill="#ffd800"/></g><g transform="translate(210 -247.999)"><path d="M645.258,358.01a5.619,5.619,0,0,0-3.635,1.243,6.648,6.648,0,0,1-8.1,0,5.623,5.623,0,0,0-3.636-1.243s-.008-.874,0-.874a6.5,6.5,0,0,1,4.049,1.375,5.928,5.928,0,0,0,7.272,0,6.315,6.315,0,0,1,4.049-1.375Z" transform="translate(-614.884 -109.135)" fill="#ffd800"/></g><g transform="translate(225 -247.999)"><path d="M645.258,358.01a5.619,5.619,0,0,0-3.635,1.243,6.648,6.648,0,0,1-8.1,0,5.623,5.623,0,0,0-3.636-1.243s-.008-.874,0-.874a6.5,6.5,0,0,1,4.049,1.375,5.928,5.928,0,0,0,7.272,0,6.315,6.315,0,0,1,4.049-1.375Z" transform="translate(-614.884 -109.135)" fill="#ffd800"/></g><g transform="translate(240 -247.999)"><path d="M645.258,358.01a5.619,5.619,0,0,0-3.635,1.243,6.648,6.648,0,0,1-8.1,0,5.623,5.623,0,0,0-3.636-1.243s-.008-.874,0-.874a6.5,6.5,0,0,1,4.049,1.375,5.928,5.928,0,0,0,7.272,0,6.315,6.315,0,0,1,4.049-1.375Z" transform="translate(-614.884 -109.135)" fill="#ffd800"/></g><g transform="translate(255 -247.999)"><path d="M645.258,358.01a5.619,5.619,0,0,0-3.635,1.243,6.648,6.648,0,0,1-8.1,0,5.623,5.623,0,0,0-3.636-1.243s-.008-.874,0-.874a6.5,6.5,0,0,1,4.049,1.375,5.928,5.928,0,0,0,7.272,0,6.315,6.315,0,0,1,4.049-1.375Z" transform="translate(-614.884 -109.135)" fill="#ffd800"/></g><g transform="translate(270 -247.999)"><path d="M645.258,358.01a5.619,5.619,0,0,0-3.635,1.243,6.648,6.648,0,0,1-8.1,0,5.623,5.623,0,0,0-3.636-1.243s-.008-.874,0-.874a6.5,6.5,0,0,1,4.049,1.375,5.928,5.928,0,0,0,7.272,0,6.315,6.315,0,0,1,4.049-1.375Z" transform="translate(-614.884 -109.135)" fill="#ffd800"/></g><g transform="translate(285 -247.999)"><path d="M645.258,358.01a5.619,5.619,0,0,0-3.635,1.243,6.648,6.648,0,0,1-8.1,0,5.623,5.623,0,0,0-3.636-1.243s-.008-.874,0-.874a6.5,6.5,0,0,1,4.049,1.375,5.928,5.928,0,0,0,7.272,0,6.315,6.315,0,0,1,4.049-1.375Z" transform="translate(-614.884 -109.135)" fill="#ffd800"/></g><g transform="translate(300 -247.999)"><path d="M645.258,358.01a5.619,5.619,0,0,0-3.635,1.243,6.648,6.648,0,0,1-8.1,0,5.623,5.623,0,0,0-3.636-1.243s-.008-.874,0-.874a6.5,6.5,0,0,1,4.049,1.375,5.928,5.928,0,0,0,7.272,0,6.315,6.315,0,0,1,4.049-1.375Z" transform="translate(-614.884 -109.135)" fill="#ffd800"/></g><g transform="translate(315 -247.999)"><path d="M645.258,358.01a5.619,5.619,0,0,0-3.635,1.243,6.648,6.648,0,0,1-8.1,0,5.623,5.623,0,0,0-3.636-1.243s-.008-.874,0-.874a6.5,6.5,0,0,1,4.049,1.375,5.928,5.928,0,0,0,7.272,0,6.315,6.315,0,0,1,4.049-1.375Z" transform="translate(-614.884 -109.135)" fill="#ffd800"/></g><g transform="translate(330 -247.999)"><path d="M645.258,358.01a5.619,5.619,0,0,0-3.635,1.243,6.648,6.648,0,0,1-8.1,0,5.623,5.623,0,0,0-3.636-1.243s-.008-.874,0-.874a6.5,6.5,0,0,1,4.049,1.375,5.928,5.928,0,0,0,7.272,0,6.315,6.315,0,0,1,4.049-1.375Z" transform="translate(-614.884 -109.135)" fill="#ffd800"/></g><g transform="translate(345 -247.999)"><path d="M645.258,358.01a5.619,5.619,0,0,0-3.635,1.243,6.648,6.648,0,0,1-8.1,0,5.623,5.623,0,0,0-3.636-1.243s-.008-.874,0-.874a6.5,6.5,0,0,1,4.049,1.375,5.928,5.928,0,0,0,7.272,0,6.315,6.315,0,0,1,4.049-1.375Z" transform="translate(-614.884 -109.135)" fill="#ffd800"/></g></g></g></svg>