<svg xmlns="http://www.w3.org/2000/svg" width="127.87" height="125.005" viewBox="0 0 127.87 125.005"><g transform="translate(7.689 6.921)"><path d="M10.736,0,21.472,20.126H0Z" transform="matrix(-0.559, 0.829, -0.829, -0.559, 115.975, 88.326)" fill="#03a58e"/><ellipse cx="56.815" cy="55.132" rx="56.815" ry="55.132" transform="translate(-7.689 8.893) rotate(-8)" fill="#03a58e"/><path d="M-13.064-13.041q-.6,6.141-2.553,9.292a.245.245,0,0,0,.023.3,10.981,10.981,0,0,0,2.507,2.3,1.515,1.515,0,0,1,.609.851,1.328,1.328,0,0,1-.1,1.012L-12.6.759a1.233,1.233,0,0,1-.759.609,1.117,1.117,0,0,1-.966-.149,14.207,14.207,0,0,1-2.99-2.553q-.138-.138-.253-.023A16.351,16.351,0,0,1-21.758,1.38a1.383,1.383,0,0,1-1.035.057,1.492,1.492,0,0,1-.828-.655l-.023-.046A1.066,1.066,0,0,1-23.759-.2a1.191,1.191,0,0,1,.621-.7A13.7,13.7,0,0,0-19.09-3.68q.092-.092.023-.3a20.474,20.474,0,0,1-1.541-4.6.1.1,0,0,0-.069-.057.056.056,0,0,0-.069.035q-.069.115-.2.345t-.2.345a.942.942,0,0,1-.736.494.931.931,0,0,1-.828-.311l-.23-.253a1.583,1.583,0,0,1-.437-.989,1.8,1.8,0,0,1,.23-1.058,32.852,32.852,0,0,0,2.99-7.82,1.462,1.462,0,0,1,.6-.851,1.4,1.4,0,0,1,1.012-.253l.092.023a1.188,1.188,0,0,1,.84.495,1.1,1.1,0,0,1,.2.931q-.115.506-.391,1.518-.046.184.138.184h4.347a1.222,1.222,0,0,1,.909.391,1.278,1.278,0,0,1,.379.92v.391a.89.89,0,0,1-.264.656.863.863,0,0,1-.632.265A.122.122,0,0,0-13.064-13.041Zm-4.117,6.417a21.541,21.541,0,0,0,1.4-6.371q0-.184-.161-.184h-2.576a.253.253,0,0,0-.253.184q-.161.437-.529,1.311-.046.092.069.092a.833.833,0,0,1,.6.138.7.7,0,0,1,.322.506,25.024,25.024,0,0,0,1.012,4.3.1.1,0,0,0,.058.058Q-17.2-6.578-17.181-6.624Zm-15.341-4.14a1.137,1.137,0,0,1-.851-.356,1.2,1.2,0,0,1-.345-.863,1.156,1.156,0,0,1,.345-.851,1.156,1.156,0,0,1,.851-.345h2.162a.183.183,0,0,0,.207-.207V-14.95q0-.184-.207-.184h-1.4a1.11,1.11,0,0,1-.816-.333,1.11,1.11,0,0,1-.333-.816,1.11,1.11,0,0,1,.333-.817,1.11,1.11,0,0,1,.816-.333h1.4a.183.183,0,0,0,.207-.207v-.115a1.24,1.24,0,0,1,.379-.909,1.24,1.24,0,0,1,.909-.38h.345a1.278,1.278,0,0,1,.92.38,1.222,1.222,0,0,1,.391.909v.115a.183.183,0,0,0,.207.207h1.012a1.24,1.24,0,0,1,.909.379,1.24,1.24,0,0,1,.379.909v.046a.041.041,0,0,0,.046.046.094.094,0,0,0,.069-.023q.368-.575.644-1.081a1.425,1.425,0,0,1,.748-.655,1.366,1.366,0,0,1,1-.012,1.186,1.186,0,0,1,.69.656,1.048,1.048,0,0,1-.023.931,24.848,24.848,0,0,1-1.794,2.921q-.023.023,0,.081t.046.057a.909.909,0,0,1,.667.276.883.883,0,0,1,.276.644v.276a1.175,1.175,0,0,1-.356.863,1.175,1.175,0,0,1-.863.356h-1.679a.435.435,0,0,0-.322.115q-.207.207-1.242,1.2-.046.023-.023.08t.069.057h2.254A1.057,1.057,0,0,1-23.736-9a1.027,1.027,0,0,1,.322.771A2.712,2.712,0,0,1-24.15-6.3q-.483.506-.966.966-.046.046-.035.08a.053.053,0,0,0,.058.035q.3-.023,1.173-.081t1.311-.1a1.039,1.039,0,0,1,.816.265,1.055,1.055,0,0,1,.379.77,1.188,1.188,0,0,1-.288.851,1.142,1.142,0,0,1-.793.414q-1.472.138-3.128.276a.183.183,0,0,0-.207.207v1.2q0,2.254-.506,2.783T-29,1.886q-.253,0-1.541-.046a1.3,1.3,0,0,1-.885-.4,1.423,1.423,0,0,1-.425-.908A1.053,1.053,0,0,1-31.533-.3,1.053,1.053,0,0,1-30.7-.621q1.012.046,1.15.046.6,0,.7-.138a2.287,2.287,0,0,0,.1-.943v-.805q0-.184-.207-.184l-1.61.08q-1.15.057-1.794.081a1.1,1.1,0,0,1-.851-.311,1.29,1.29,0,0,1-.391-.839,1.052,1.052,0,0,1,.276-.84,1.116,1.116,0,0,1,.805-.379q.69-.023,1.92-.081l1.713-.081a.122.122,0,0,0,.138-.138.909.909,0,0,1,.276-.667.909.909,0,0,1,.667-.276h.069a.483.483,0,0,0,.253-.069q.3-.253.943-.828a.075.075,0,0,0,.023-.092.074.074,0,0,0-.069-.046H-29.6a.658.658,0,0,0-.345.115q-.529.345-1.633.943a1.278,1.278,0,0,1-.966.08A1.233,1.233,0,0,1-33.3-6.6a1.141,1.141,0,0,1-.115-.92,1.12,1.12,0,0,1,.575-.713,25.449,25.449,0,0,0,3.473-2.415q.115-.115-.069-.115Zm5.244-4.186v1.564q0,.207.184.207h.115a.464.464,0,0,0,.322-.161q.506-.575,1.311-1.656.092-.138-.069-.138h-1.679A.163.163,0,0,0-27.278-14.95ZM-8.441.092l-.115-.184A1.253,1.253,0,0,1-8.8-1.058a1.255,1.255,0,0,1,.517-.851L2.99-10.143a.02.02,0,0,0,.023-.023q0-.023-.046-.023H-6.371a1.259,1.259,0,0,1-.92-.391,1.259,1.259,0,0,1-.391-.92,1.259,1.259,0,0,1,.391-.92,1.259,1.259,0,0,1,.92-.391H5.865a1.259,1.259,0,0,1,.92.391,1.259,1.259,0,0,1,.391.92v.391A2.491,2.491,0,0,1,6.141-9.016L2.346-6.187v.023q0,.023.046.023h.023a1.2,1.2,0,0,1,.966.541A5.552,5.552,0,0,1,4.14-3.7a3.366,3.366,0,0,0,.7,1.61,2.466,2.466,0,0,0,1.506.322A11.207,11.207,0,0,0,7.82-1.886a1.422,1.422,0,0,1,.989.218,1.165,1.165,0,0,1,.529.794l.023.046a1.21,1.21,0,0,1-.207.989A1.273,1.273,0,0,1,8.3.713,16.218,16.218,0,0,1,6.049.92,5.868,5.868,0,0,1,2.921.265a3.532,3.532,0,0,1-1.4-2.243,6.077,6.077,0,0,0-.633-1.7.894.894,0,0,0-.747-.46,2.943,2.943,0,0,0-1.345.6q-.909.6-5.417,3.91A1.272,1.272,0,0,1-7.6.61,1.184,1.184,0,0,1-8.441.092ZM-3.91-17.917q3.7.46,8.119.575a1.368,1.368,0,0,1,.92.4,1.222,1.222,0,0,1,.391.909v.092a1.278,1.278,0,0,1-.379.92,1.147,1.147,0,0,1-.909.368q-4.071-.115-8.487-.667a1.253,1.253,0,0,1-.863-.506,1.267,1.267,0,0,1-.265-.966,1.253,1.253,0,0,1,.506-.862A1.267,1.267,0,0,1-3.91-17.917ZM14.835-13.57a1.24,1.24,0,0,1-.908-.38,1.24,1.24,0,0,1-.38-.908v-.161a1.259,1.259,0,0,1,.391-.92,1.259,1.259,0,0,1,.92-.391q7.866-.023,16.261-.391a1.29,1.29,0,0,1,.943.345,1.232,1.232,0,0,1,.437.9v.161a1.3,1.3,0,0,1-.333.954,1.405,1.405,0,0,1-.909.471,15.145,15.145,0,0,0-7.337,2.519,5.581,5.581,0,0,0-2.461,4.519A4.526,4.526,0,0,0,23.023-3.22,6.126,6.126,0,0,0,27.14-1.886a12.232,12.232,0,0,0,1.518-.092,1.339,1.339,0,0,1,.955.276,1.227,1.227,0,0,1,.494.851l.023.207a1.328,1.328,0,0,1-.253.977,1.2,1.2,0,0,1-.851.518,19.847,19.847,0,0,1-2.047.115,9.536,9.536,0,0,1-6.417-2.047A6.841,6.841,0,0,1,18.17-6.555a6.859,6.859,0,0,1,1.311-3.979,10.4,10.4,0,0,1,3.7-3.174q.023,0,.023-.046h-.023Q19.619-13.616,14.835-13.57Z" transform="translate(50.316 64.574)" fill="#fff"/><path d="M-.156-5.72a1.475,1.475,0,0,1-1.066-.429A1.5,1.5,0,0,1-1.69-7.2l-.39-10.3a1.375,1.375,0,0,1,.39-1.04A1.34,1.34,0,0,1-.676-18.98h1.4a1.34,1.34,0,0,1,1.014.442,1.375,1.375,0,0,1,.39,1.04L1.742-7.2a1.5,1.5,0,0,1-.468,1.053A1.475,1.475,0,0,1,.208-5.72ZM.468-3.64A1.381,1.381,0,0,1,1.5-3.2a1.444,1.444,0,0,1,.429,1.04v.676A1.444,1.444,0,0,1,1.5-.442,1.381,1.381,0,0,1,.468,0H-.416A1.381,1.381,0,0,1-1.443-.442a1.444,1.444,0,0,1-.429-1.04v-.676A1.444,1.444,0,0,1-1.443-3.2,1.381,1.381,0,0,1-.416-3.64Z" transform="translate(89.056 64.97) rotate(20)" fill="#fff"/></g></svg>