<svg xmlns="http://www.w3.org/2000/svg" width="231.324" height="64.691" viewBox="0 0 231.324 64.691"><g transform="translate(-147.574 -4102.597)"><path d="M5.936-9.59a8.41,8.41,0,0,1,.532,1.736H3.794l.728-.21a7.951,7.951,0,0,0-.784-1.6c1.19-.056,2.408-.14,3.584-.252ZM2.464-6.412h9.03v1.6h1.624V-7.854H11.13c.322-.518.686-1.092,1.008-1.68l-1.778-.42a15.88,15.88,0,0,1-.91,2.1H7.014L8.05-8.106a7.335,7.335,0,0,0-.63-1.806c1.862-.168,3.668-.392,5.18-.672l-1.12-1.344a78.371,78.371,0,0,1-10.444.952,5.268,5.268,0,0,1,.378,1.414C2.086-9.576,2.8-9.6,3.5-9.646L2.254-9.3a8.727,8.727,0,0,1,.658,1.442h-2v3.038H2.464Zm6.454,2.6a6.932,6.932,0,0,1-1.9,1.624A8.147,8.147,0,0,1,4.886-3.808ZM10.3-5.4,10-5.334H2.926v1.526h.658l-.462.2a9.419,9.419,0,0,0,2.212,2.2A19.55,19.55,0,0,1,.574-.392a5.732,5.732,0,0,1,.98,1.47A18.351,18.351,0,0,0,7-.42a16.889,16.889,0,0,0,5.348,1.47A8.049,8.049,0,0,1,13.37-.5a19.085,19.085,0,0,1-4.634-.952,8.225,8.225,0,0,0,2.688-3.262Zm7.434-6.384A14.655,14.655,0,0,1,14.392-6.44a13.6,13.6,0,0,1,.98,1.736c.322-.336.658-.714.98-1.12V1.19H18.06V-8.428a25.715,25.715,0,0,0,1.33-2.828Zm9.786,2.94h-1.54V-11.7H24.248v2.856H18.914v1.68h5.334V-.812c0,.308-.126.42-.476.42-.322.014-1.554.014-2.632-.028a6.631,6.631,0,0,1,.644,1.652A9.952,9.952,0,0,0,25.06.952c.672-.252.924-.686.924-1.764V-7.168h1.54ZM22.946-2.926c-.42-.84-1.288-2.212-1.918-3.234l-1.484.686a32.849,32.849,0,0,1,1.806,3.36ZM31.738-9.52v2.464H30.45V-9.52ZM30.45-2.968V-5.6h1.288v2.632ZM33.292-11H28.91V-.252h1.54V-1.484h2.842Zm.826,8.344a9.849,9.849,0,0,1,1.6,2.352l1.428-.826a9.66,9.66,0,0,0-1.694-2.3Zm7.406-3.584V-7.7H38.332V-8.932h2.8v-1.456h-2.8v-1.47H36.694v1.47H34.006v1.456h2.688V-7.7H33.53v1.456h4.942v1.2H33.558V-3.6h4.914v3.01c0,.2-.07.252-.294.252s-.994,0-1.666-.028A5.615,5.615,0,0,1,37.044,1.2a6.2,6.2,0,0,0,2.338-.28c.546-.252.7-.672.7-1.47V-3.6h1.344V-5.04H40.082v-1.2Zm5.418-3.878v.742H44.786v-.742Zm-2.156,2.66v-.8h2.156v.8Zm3.71,1.19v-5.054H43.134V1.218h1.652v-7.49Zm2.548-1.162V-8.26H53.27v.826Zm2.226-2.688v.742H51.044v-.742ZM47.81-1.3V-2.17h2.31V-1.3Zm2.31-2.9v.84H47.81V-4.2Zm4.83-7.126H49.462v5.082H53.27V-.77c0,.224-.084.308-.336.308-.182.014-.7.014-1.246,0v-4.97H46.3V.63H47.81V-.084h3.472a6.164,6.164,0,0,1,.364,1.3A6.049,6.049,0,0,0,54.208.9c.56-.266.742-.756.742-1.652ZM74.116.2c2.1,0,3.486-1.2,3.486-2.772a3.013,3.013,0,0,0-1.736-2.772v-.07A3.018,3.018,0,0,0,77.2-7.784a2.719,2.719,0,0,0-3.01-2.758c-1.806,0-3.122,1.064-3.122,2.73a2.951,2.951,0,0,0,1.372,2.464v.07a3.015,3.015,0,0,0-1.778,2.7C70.658-.952,72.142.2,74.116.2Zm.658-6.118c-1.092-.434-1.89-.91-1.89-1.89A1.2,1.2,0,0,1,74.144-9.1a1.32,1.32,0,0,1,1.372,1.442A2.481,2.481,0,0,1,74.774-5.922Zm-.6,4.662A1.588,1.588,0,0,1,72.436-2.8a2.491,2.491,0,0,1,.952-1.918c1.344.546,2.3.994,2.3,2.072A1.358,1.358,0,0,1,74.172-1.26Zm6.342-3.864A1.277,1.277,0,0,0,81.8-6.454,1.281,1.281,0,0,0,80.514-7.8,1.278,1.278,0,0,0,79.24-6.454,1.275,1.275,0,0,0,80.514-5.124Zm0,5.32A1.289,1.289,0,0,0,81.8-1.148a1.289,1.289,0,0,0-1.288-1.344A1.287,1.287,0,0,0,79.24-1.148,1.287,1.287,0,0,0,80.514.2Zm6.118,0c1.974,0,3.64-1.106,3.64-3.01A2.589,2.589,0,0,0,88.2-5.362v-.07A2.454,2.454,0,0,0,89.936-7.8c0-1.778-1.358-2.758-3.36-2.758a4.6,4.6,0,0,0-3.108,1.274l1.05,1.26a2.956,2.956,0,0,1,1.96-.924,1.238,1.238,0,0,1,1.386,1.3c0,.924-.616,1.582-2.52,1.582v1.484c2.254,0,2.856.63,2.856,1.652,0,.924-.714,1.442-1.764,1.442a3.291,3.291,0,0,1-2.31-1.064l-.966,1.3A4.4,4.4,0,0,0,86.632.2Zm8.54,0c2.1,0,3.5-1.848,3.5-5.418s-1.4-5.334-3.5-5.334-3.514,1.75-3.514,5.334S93.058.2,95.172.2Zm0-1.61c-.9,0-1.568-.9-1.568-3.808s.672-3.738,1.568-3.738,1.554.84,1.554,3.738S96.054-1.414,95.172-1.414Zm13.79-1.764a4.327,4.327,0,0,0,3.808-2.576l-1.54-.84A2.735,2.735,0,0,1,109-4.914a2.562,2.562,0,0,1-2.086-1.008,4.236,4.236,0,0,0-3.3-1.54,4.327,4.327,0,0,0-3.808,2.576l1.54.84a2.735,2.735,0,0,1,2.226-1.68,2.581,2.581,0,0,1,2.086,1.008A4.236,4.236,0,0,0,108.962-3.178ZM114.436,0h6.23V-1.666H118.72V-10.36h-1.526a6.72,6.72,0,0,1-2.408.868v1.274h1.876v6.552h-2.226Zm9.7,0h2.086c.168-4.06.49-6.174,2.9-9.114V-10.36h-6.888v1.722H126.9C124.922-5.894,124.32-3.6,124.138,0Zm7.91-5.124a1.277,1.277,0,0,0,1.288-1.33A1.281,1.281,0,0,0,132.048-7.8a1.278,1.278,0,0,0-1.274,1.344A1.275,1.275,0,0,0,132.048-5.124Zm0,5.32a1.289,1.289,0,0,0,1.288-1.344,1.289,1.289,0,0,0-1.288-1.344,1.287,1.287,0,0,0-1.274,1.344A1.287,1.287,0,0,0,132.048.2Zm6.118,0c1.974,0,3.64-1.106,3.64-3.01a2.589,2.589,0,0,0-2.072-2.548v-.07A2.454,2.454,0,0,0,141.47-7.8c0-1.778-1.358-2.758-3.36-2.758A4.6,4.6,0,0,0,135-9.282l1.05,1.26a2.956,2.956,0,0,1,1.96-.924,1.238,1.238,0,0,1,1.386,1.3c0,.924-.616,1.582-2.52,1.582v1.484c2.254,0,2.856.63,2.856,1.652,0,.924-.714,1.442-1.764,1.442a3.291,3.291,0,0,1-2.31-1.064l-.966,1.3A4.4,4.4,0,0,0,138.166.2Zm8.54,0c2.1,0,3.5-1.848,3.5-5.418s-1.4-5.334-3.5-5.334-3.514,1.75-3.514,5.334S144.592.2,146.706.2Zm0-1.61c-.9,0-1.568-.9-1.568-3.808s.672-3.738,1.568-3.738,1.554.84,1.554,3.738S147.588-1.414,146.706-1.414Zm13.356-10.514V1.288h4.368v-.07a8.675,8.675,0,0,1-2.772-6.538,8.675,8.675,0,0,1,2.772-6.538v-.07ZM169.3-3.36V-5.488h2.422V-3.36Zm8.932,0h-4.788V-5.488h3.7v-1.54h-3.7v-1.68h4.018v-1.61h-7.91a8.938,8.938,0,0,0,.462-1.148l-1.694-.434a10.8,10.8,0,0,1-2.94,4.662,12.885,12.885,0,0,1,1.442,1.078,12.582,12.582,0,0,0,1.9-2.548h3v1.68h-4.088V-3.36h-2.212v1.6h6.3v3h1.722v-3h4.788Zm8.442-1.428V-7.8h3.164v3.01Zm-4.914,0V-7.8h3.15v3.01Zm4.914-4.648v-2.422h-1.764v2.422h-4.83V-2.38h1.68v-.77h3.15V1.218h1.764V-3.15h3.164v.7h1.75V-9.436Zm16.1,2.3h-1.064V-8.932h1.064Zm0,3.262h-1.064V-5.656h1.064ZM196.9-5.656H197.9v1.778H196.9Zm3.43,0v1.778H199.29V-5.656ZM199.29-7.14V-8.932h1.036V-7.14ZM196.9-8.932H197.9V-7.14H196.9Zm-1.47,1.792H193.55v1.484h1.876v1.778H193.76v1.484h12.166V-3.878H204.3V-5.656h1.82V-7.14H204.3V-8.932h1.316V-10.4h-8.4a7.537,7.537,0,0,0,.546-.98l-1.624-.476a8.609,8.609,0,0,1-2.9,3.346A15.417,15.417,0,0,1,194.6-7.42a9.62,9.62,0,0,0,.826-.728Zm-.434,8.372a7.661,7.661,0,0,0,1.6-2.94l-1.61-.392A6.9,6.9,0,0,1,193.41.588Zm2.492-2.842a17.773,17.773,0,0,1,.266,2.674l1.624-.238a18.13,18.13,0,0,0-.336-2.618Zm2.772.028a14.919,14.919,0,0,1,.714,2.66l1.666-.322a15.6,15.6,0,0,0-.812-2.6Zm2.772-.07a18.032,18.032,0,0,1,1.652,2.87l1.708-.574a18.988,18.988,0,0,0-1.764-2.8Zm17.164-5.194V-8.47h-3.654v-3.164h-1.652V-8.47H211.33v1.624h2.9a13.284,13.284,0,0,1-3.458,5.068V-8.3a22.09,22.09,0,0,0,1.442-2.954l-1.652-.532a14.364,14.364,0,0,1-3.542,5.376,12.088,12.088,0,0,1,.966,1.75,12.689,12.689,0,0,0,1.148-1.26V1.19h1.638v-2.8A9.233,9.233,0,0,1,211.9-.378a14.226,14.226,0,0,0,2.982-4.242V1.218h1.652V-4.9a14.311,14.311,0,0,0,2.828,4.452,5.934,5.934,0,0,1,1.246-1.33,13.694,13.694,0,0,1-3.346-5.068Zm5.39-5.082h-4.368v.07a8.675,8.675,0,0,1,2.772,6.538,8.675,8.675,0,0,1-2.772,6.538v.07h4.368Z" transform="translate(147 4166)" fill="#1a1311"/><g transform="translate(-564.418 4073.933)"><rect width="57" height="5" transform="translate(831.418 38.068)" fill="#ffd800"/><rect width="50" height="5" transform="translate(891.418 38.068)" fill="#ffd800"/><path d="M2.28-3.9a8.055,8.055,0,0,0-.336,1.956C1.944-.288,3.228.612,5.616.612A16.654,16.654,0,0,0,8.82.324l.036-1.572A13.139,13.139,0,0,1,5.616-.9c-1.68,0-2.124-.588-2.124-1.452a5.333,5.333,0,0,1,.324-1.416Zm7.752-4.668a17.384,17.384,0,0,1-2.328.6c-.264-.624-.492-1.188-.7-1.812l-1.68.324a9.225,9.225,0,0,1,.588,1.14c.072.18.156.372.252.564a20.246,20.246,0,0,1-4.44-.12l.048,1.524a26.7,26.7,0,0,0,5,0c.348.744.756,1.572,1.044,2.172-.36-.024-1.008-.1-1.4-.132L6.288-3.084c.876.108,2.052.3,2.7.432l.84-.9C9.312-4.5,8.748-5.628,8.292-6.588c.72-.144,1.416-.312,2.016-.48ZM17.04-3.9A8.055,8.055,0,0,0,16.7-1.944C16.7-.288,17.988.612,20.376.612a16.654,16.654,0,0,0,3.2-.288l.036-1.572a13.139,13.139,0,0,1-3.24.348c-1.68,0-2.124-.588-2.124-1.452a5.333,5.333,0,0,1,.324-1.416Zm7.752-4.668a17.384,17.384,0,0,1-2.328.6c-.264-.624-.492-1.188-.7-1.812l-1.68.324a9.225,9.225,0,0,1,.588,1.14c.072.18.156.372.252.564a20.246,20.246,0,0,1-4.44-.12l.048,1.524a26.7,26.7,0,0,0,5,0c.348.744.756,1.572,1.044,2.172-.36-.024-1.008-.1-1.4-.132l-.132,1.224c.876.108,2.052.3,2.7.432l.84-.9c-.516-.948-1.08-2.076-1.536-3.036.72-.144,1.416-.312,2.016-.48ZM31.284-5.1,31.9-3.54A16.015,16.015,0,0,1,36.66-4.956a1.532,1.532,0,0,1,1.7,1.512c0,1.62-2.016,2.328-4.716,2.4L34.272.432c3.78-.228,5.664-1.7,5.664-3.852A2.839,2.839,0,0,0,36.8-6.336a17.053,17.053,0,0,0-4.26.924A10.154,10.154,0,0,1,31.284-5.1ZM53.172-8.364a8.205,8.205,0,0,1-1.092.72c-.564.312-1.6.84-2.568,1.4a27.861,27.861,0,0,1-1.488-3.288l-1.5.612c.54,1.26,1.116,2.52,1.668,3.54a3.96,3.96,0,0,0-1.968,3.132c0,2.04,1.788,2.7,4.152,2.7A23.242,23.242,0,0,0,54.192.168l.024-1.716a19.876,19.876,0,0,1-3.888.432c-1.644,0-2.472-.456-2.472-1.308,0-.828.66-1.512,1.656-2.16a36.393,36.393,0,0,1,3.312-1.764c.432-.216.816-.42,1.176-.636Z" transform="translate(831.417 39.068)" fill="#ed4c24"/><path d="M10.14-6.984c0-.348.024-.828.036-1.1-.2.012-.7.024-1.044.024h-.06L9.9-8.412a14.687,14.687,0,0,0-.936-1.608l-.984.408a10.819,10.819,0,0,1,.888,1.548H3.084c-.42,0-1.032-.024-1.488-.072v1.668c.336-.024.984-.048,1.488-.048h5.4v4.968H2.94c-.54,0-1.08-.036-1.488-.072V.1C1.848.06,2.52.024,2.988.024H8.472c0,.216,0,.432-.012.624H10.2c-.036-.36-.06-1-.06-1.416ZM9.588-10a14.224,14.224,0,0,1,.96,1.608l1-.432c-.228-.42-.66-1.152-.96-1.584ZM13.1-3.672c.444-.036,1.248-.06,1.932-.06H21.48c.5,0,1.116.048,1.4.06V-5.556c-.312.024-.852.072-1.4.072H15.036c-.624,0-1.5-.036-1.932-.072ZM34.14-6.984c0-.348.024-.828.036-1.1-.2.012-.7.024-1.044.024h-.06l.828-.348a14.688,14.688,0,0,0-.936-1.608l-.984.408a10.819,10.819,0,0,1,.888,1.548H27.084c-.42,0-1.032-.024-1.488-.072v1.668c.336-.024.984-.048,1.488-.048h5.4v4.968H26.94c-.54,0-1.08-.036-1.488-.072V.1c.4-.036,1.068-.072,1.536-.072h5.484c0,.216,0,.432-.012.624H34.2c-.036-.36-.06-1-.06-1.416ZM33.588-10a14.224,14.224,0,0,1,.96,1.608l1-.432c-.228-.42-.66-1.152-.96-1.584ZM37.1-3.672c.444-.036,1.248-.06,1.932-.06H45.48c.5,0,1.116.048,1.4.06V-5.556c-.312.024-.852.072-1.4.072H39.036c-.624,0-1.5-.036-1.932-.072Z" transform="translate(891.417 39.068)" fill="#ed4c24"/><path d="M8.511.366q-7.5,0-7.5-10.532,0-5.464,2.029-8.328a6.76,6.76,0,0,1,5.881-2.864q7.324,0,7.324,10.708,0,5.332-2,8.174A6.587,6.587,0,0,1,8.511.366Zm.205-18.193q-3,0-3,7.544,0,7.1,2.944,7.1,2.871,0,2.871-7.324T8.716-17.827ZM28.9-21.475V0H24.289V-16.26a5.526,5.526,0,0,1-.9.637,9.3,9.3,0,0,1-1.106.542,9.875,9.875,0,0,1-1.216.41,8.88,8.88,0,0,1-1.245.242v-3.9a19.248,19.248,0,0,0,3.4-1.348,19.34,19.34,0,0,0,2.886-1.8ZM39.716-3.838h8.906V0H34.648V-1.582a7.364,7.364,0,0,1,.542-2.893,9.6,9.6,0,0,1,1.362-2.3,11.817,11.817,0,0,1,1.794-1.8Q39.32-9.36,40.2-9.99q.923-.659,1.619-1.26a9.224,9.224,0,0,0,1.172-1.194,4.539,4.539,0,0,0,.71-1.2,3.572,3.572,0,0,0,.234-1.3,2.605,2.605,0,0,0-.762-2.036,3.386,3.386,0,0,0-2.329-.688,7.823,7.823,0,0,0-5.186,2.153v-4.072a11.131,11.131,0,0,1,6.182-1.772,9.129,9.129,0,0,1,2.864.417,6.059,6.059,0,0,1,2.146,1.194,5.092,5.092,0,0,1,1.34,1.882,6.352,6.352,0,0,1,.461,2.468,6.96,6.96,0,0,1-.447,2.578,7.922,7.922,0,0,1-1.187,2.051,10.763,10.763,0,0,1-1.707,1.692q-.967.769-2.007,1.487-.7.5-1.355.989a12.846,12.846,0,0,0-1.15.967,5.248,5.248,0,0,0-.791.93A1.606,1.606,0,0,0,39.716-3.838ZM58.658.366q-7.5,0-7.5-10.532,0-5.464,2.029-8.328a6.76,6.76,0,0,1,5.881-2.864q7.324,0,7.324,10.708,0,5.332-2,8.174A6.587,6.587,0,0,1,58.658.366Zm.205-18.193q-3,0-3,7.544,0,7.1,2.944,7.1,2.871,0,2.871-7.324T58.863-17.827ZM76.971-6.387H68.958V-9.624h8.013Zm3.2,5.7V-4.717a8.131,8.131,0,0,0,4.922,1.538,4.431,4.431,0,0,0,2.761-.762,2.529,2.529,0,0,0,.989-2.124,2.414,2.414,0,0,0-1.223-2.168,6.337,6.337,0,0,0-3.362-.762H82.3v-3.545h1.8q4.1,0,4.1-2.725,0-2.563-3.149-2.563a7.18,7.18,0,0,0-4.1,1.362v-3.779a11.328,11.328,0,0,1,5.156-1.113,7.781,7.781,0,0,1,5.017,1.45,4.615,4.615,0,0,1,1.794,3.765q0,4.116-4.175,5.156v.073a5.676,5.676,0,0,1,3.516,1.619,4.564,4.564,0,0,1,1.289,3.289A5.636,5.636,0,0,1,91.4-1.348,9.31,9.31,0,0,1,85.454.366,11.494,11.494,0,0,1,80.166-.688Zm16.716,0V-4.717A8.131,8.131,0,0,0,101.8-3.179a4.431,4.431,0,0,0,2.761-.762,2.529,2.529,0,0,0,.989-2.124,2.414,2.414,0,0,0-1.223-2.168,6.337,6.337,0,0,0-3.362-.762H99.021v-3.545h1.8q4.1,0,4.1-2.725,0-2.563-3.149-2.563a7.18,7.18,0,0,0-4.1,1.362v-3.779a11.328,11.328,0,0,1,5.156-1.113,7.781,7.781,0,0,1,5.017,1.45,4.615,4.615,0,0,1,1.794,3.765q0,4.116-4.175,5.156v.073a5.676,5.676,0,0,1,3.516,1.619,4.564,4.564,0,0,1,1.289,3.289,5.636,5.636,0,0,1-2.153,4.658A9.31,9.31,0,0,1,102.17.366,11.494,11.494,0,0,1,96.882-.688Zm27.189-20.786V0h-4.614V-16.26a5.526,5.526,0,0,1-.9.637,9.3,9.3,0,0,1-1.106.542,9.875,9.875,0,0,1-1.216.41,8.88,8.88,0,0,1-1.245.242v-3.9a19.248,19.248,0,0,0,3.4-1.348,19.34,19.34,0,0,0,2.886-1.8ZM137.111.366q-7.5,0-7.5-10.532,0-5.464,2.029-8.328a6.76,6.76,0,0,1,5.881-2.864q7.324,0,7.324,10.708,0,5.332-2,8.174A6.587,6.587,0,0,1,137.111.366Zm.205-18.193q-3,0-3,7.544,0,7.1,2.944,7.1,2.871,0,2.871-7.324T137.316-17.827Zm18.107,11.44H147.41V-9.624h8.013Zm3.562,5.845V-4.5a8.635,8.635,0,0,0,4.585,1.318,4.307,4.307,0,0,0,2.864-.872,2.934,2.934,0,0,0,1.033-2.366q0-3.12-4.409-3.12a32.649,32.649,0,0,0-3.75.249l.791-11.719h11.118v3.779h-7.588l-.293,4.2q1.128-.088,1.948-.088a7.164,7.164,0,0,1,5.068,1.7,5.934,5.934,0,0,1,1.831,4.57A6.746,6.746,0,0,1,170-1.648,8.386,8.386,0,0,1,164.082.366,12.663,12.663,0,0,1,158.985-.542Zm16.716,0V-4.5a8.635,8.635,0,0,0,4.585,1.318,4.307,4.307,0,0,0,2.864-.872,2.934,2.934,0,0,0,1.033-2.366q0-3.12-4.409-3.12a32.649,32.649,0,0,0-3.75.249l.791-11.719h11.118v3.779h-7.588l-.293,4.2q1.128-.088,1.948-.088a7.164,7.164,0,0,1,5.068,1.7,5.934,5.934,0,0,1,1.831,4.57,6.746,6.746,0,0,1-2.183,5.193A8.386,8.386,0,0,1,180.8.366,12.663,12.663,0,0,1,175.7-.542Z" transform="translate(754.418 67.068)" fill="#ed4c24"/><g transform="translate(713.992 34.532)"><ellipse cx="18.5" cy="19" rx="18.5" ry="19" transform="translate(0.426 -0.465)" fill="#ed4c24"/><path d="M19.795,14.956l-2.843-2.844a1.89,1.89,0,0,0-3.147.711,1.934,1.934,0,0,1-2.233,1.219A8.769,8.769,0,0,1,6.292,8.76,1.841,1.841,0,0,1,7.51,6.525a1.892,1.892,0,0,0,.71-3.148L5.377.533a2.027,2.027,0,0,0-2.741,0L.707,2.463c-1.929,2.031.2,7.414,4.976,12.187s10.153,7.008,12.183,4.977L19.8,17.7A2.029,2.029,0,0,0,19.795,14.956Z" transform="translate(10.773 6.781) rotate(11)" fill="#fff"/></g><path d="M-21.708-4.6v.486h-1.035V-4.6Zm2.016.486h-1.062V-4.6h1.062Zm-1.062,1.251v-.5h1.062v.5Zm-1.989,0v-.5h1.035v.5Zm0,.774h1.035V-.774h.954V-2.088h1.062v.414c0,.09-.027.126-.135.135-.09,0-.405,0-.684-.009a2.926,2.926,0,0,1,.261.837,2.709,2.709,0,0,0,1.215-.153c.288-.144.369-.369.369-.8V-5.373h-1.089c-.153-.09-.342-.18-.54-.279a10.244,10.244,0,0,0,1.6-1.215l-.639-.513-.207.054H-23.67v.81h3.2a8.316,8.316,0,0,1-.72.477c-.369-.162-.747-.306-1.062-.423l-.693.576c.369.144.8.324,1.206.513h-2.016V-.738h1.008Zm-1.5-3.96a7.709,7.709,0,0,0-1.566-1.386l-.738.684a7.306,7.306,0,0,1,1.5,1.467Zm-.27,1.917h-2.169v.981h1.143v1.962a12.388,12.388,0,0,1-1.26.819l.5,1.071c.5-.378.927-.729,1.341-1.08a2.792,2.792,0,0,0,2.331,1c1.1.045,3.006.027,4.113-.027A4.423,4.423,0,0,1-18.189-.45c-1.233.1-3.366.126-4.437.081a2.054,2.054,0,0,1-1.89-.891Zm9.945-3.213h-2.655v.81h2.655Zm-.873,5.9V-.423h-.963V-1.449Zm.909-.846h-2.772V.774h.9V.423h1.872Zm-2.745-.459h2.7v-.81h-2.7Zm2.7-2.061h-2.7v.8h2.7ZM-17.7-5.256h3.42V-6.1H-17.7Zm7.011,4.644h-2.043v-1.26h2.043Zm1.431-3.411v-1H-11.2V-6.273a13.686,13.686,0,0,0,1.7-.369l-.756-.891a19.672,19.672,0,0,1-3.816.657,3.5,3.5,0,0,1,.288.9c.477-.036.99-.081,1.494-.144v1.1H-14.22v1h1.935v1.188h-1.467V.783h1.017V.351h2.043v.4h1.071V-2.835H-11.2V-4.023Zm6.732-2.025A6.763,6.763,0,0,0-3.96-7.137l-.513.72a7.241,7.241,0,0,1,1.395,1.17Zm-2.358,1.9A7.6,7.6,0,0,1-3.411-3.033l.54-.855A7.906,7.906,0,0,0-4.383-4.923ZM-5.7-7.128a15.307,15.307,0,0,1-.5,2.106l.675.189c.225-.522.486-1.377.72-2.1ZM-7.443-5.022A9.024,9.024,0,0,0-7.9-7.083l-.747.2a8.919,8.919,0,0,1,.405,2.07Zm2.457,2.961c-.189-.252-1.044-1.26-1.3-1.521v-.063h1.332v-1H-6.291V-7.587h-.99v2.943H-8.64v1h1.026A8.332,8.332,0,0,1-8.8-1.314,6.36,6.36,0,0,1-8.316-.207,9.237,9.237,0,0,0-7.281-2.421V.756h.99V-2.4a12.023,12.023,0,0,1,.648,1.17Zm4.761.207-.162-1-.918.171v-4.95H-2.313V-2.5l-2.673.477.162,1,2.511-.45V.774H-1.3v-2.43ZM6.4-4.59H5.715V-5.742H6.4Zm0,2.1H5.715V-3.636H6.4ZM2.619-3.636h.648v1.143H2.619Zm2.205,0v1.143H4.158V-3.636ZM4.158-4.59V-5.742h.666V-4.59ZM2.619-5.742h.648V-4.59H2.619ZM1.674-4.59H.468v.954H1.674v1.143H.6v.954H8.424v-.954H7.38V-3.636H8.55V-4.59H7.38V-5.742h.846v-.945h-5.4a4.845,4.845,0,0,0,.351-.63L2.133-7.623A5.534,5.534,0,0,1,.27-5.472a9.912,9.912,0,0,1,.873.7,6.184,6.184,0,0,0,.531-.468ZM1.395.792A4.925,4.925,0,0,0,2.421-1.1L1.386-1.35A4.435,4.435,0,0,1,.378.378ZM3-1.035A11.425,11.425,0,0,1,3.168.684L4.212.531A11.654,11.654,0,0,0,4-1.152Zm1.782.018A9.59,9.59,0,0,1,5.238.693L6.309.486a10.03,10.03,0,0,0-.522-1.674Zm1.782-.045A11.592,11.592,0,0,1,7.623.783l1.1-.369a12.207,12.207,0,0,0-1.134-1.8Zm8.91-4.986A6.763,6.763,0,0,0,14.04-7.137l-.513.72a7.241,7.241,0,0,1,1.4,1.17Zm-2.358,1.9a7.6,7.6,0,0,1,1.476,1.116l.54-.855a7.906,7.906,0,0,0-1.512-1.035ZM12.3-7.128a15.307,15.307,0,0,1-.495,2.106l.675.189c.225-.522.486-1.377.72-2.1ZM10.557-5.022A9.024,9.024,0,0,0,10.1-7.083l-.747.2a8.919,8.919,0,0,1,.405,2.07Zm2.457,2.961c-.189-.252-1.044-1.26-1.3-1.521v-.063h1.332v-1H11.709V-7.587h-.99v2.943H9.36v1h1.026A8.332,8.332,0,0,1,9.2-1.314,6.36,6.36,0,0,1,9.684-.207a9.237,9.237,0,0,0,1.035-2.214V.756h.99V-2.4a12.023,12.023,0,0,1,.648,1.17Zm4.761.207-.162-1-.918.171v-4.95H15.687V-2.5l-2.673.477.162,1,2.511-.45V.774h1.008v-2.43Zm4.266-.459h.927l.315-3.078.045-1.341H21.681l.036,1.341ZM22.5.081A.88.88,0,0,0,23.436-.8a.893.893,0,0,0-.936-.891.893.893,0,0,0-.936.891A.88.88,0,0,0,22.5.081Z" transform="translate(783.417 40.067)" fill="#ed4c24"/></g></g></svg>