<svg xmlns="http://www.w3.org/2000/svg" width="217.14" height="79.469" viewBox="0 0 217.14 79.469"><g transform="translate(-153.432 -4100.395)"><g transform="translate(0 2)"><path d="M5.922,0h6.51V-34.02H7.35c-1.26,1.386-5,3.192-6.342,3.738v4.83c1.008-.5,3.906-1.3,4.914-1.848Z" transform="translate(335 4160)" fill="#eb6d4e"/><path d="M1.144,4.18h3.3V-.968A4.031,4.031,0,0,0,7.04.22C9,.22,9.9-1.562,9.9-3.982V-8.954c0-1.958-.682-3.96-2.75-3.982A4.047,4.047,0,0,0,4.444-11.77v-.946h-3.3ZM5.566-2a2.135,2.135,0,0,1-1.122-.374v-7.986a1.906,1.906,0,0,1,1.144-.484c.748,0,.99.748.99,1.672V-3.85C6.578-2.816,6.358-2,5.566-2ZM15.774.154A14.132,14.132,0,0,0,17.82-.022v-2.6a4.07,4.07,0,0,1-.946.088.991.991,0,0,1-1.122-1.122v-6.886H17.6v-2.178H15.752v-3.828H12.386v3.828H11.132v2.178h1.254v7.216C12.386-1.122,13.09.154,15.774.154Z" transform="translate(351 4160)" fill="#eb6d4e"/><path d="M10.26-8.268A.64.64,0,0,1,9.624-8.9a.64.64,0,0,1,.636-.636A.64.64,0,0,1,10.9-8.9.64.64,0,0,1,10.26-8.268Zm-7.632-.42c-.4,0-1.188-.06-1.56-.108v2.052c.312-.024.972-.06,1.56-.06h5.28a6.741,6.741,0,0,1-1.32,3.1A7.853,7.853,0,0,1,1.872-.936L3.456.8A9.841,9.841,0,0,0,8.34-2.568a12.644,12.644,0,0,0,1.812-4.344c.036-.144.084-.324.144-.5A1.5,1.5,0,0,0,11.748-8.9a1.5,1.5,0,0,0-1.488-1.488A1.5,1.5,0,0,0,8.772-8.9a.684.684,0,0,0,.012.156,6.254,6.254,0,0,1-.864.06ZM15.54.672a3.12,3.12,0,0,1,.828-.384A15.989,15.989,0,0,0,23.3-4.056L22.272-5.712a14.145,14.145,0,0,1-5.94,3.9V-7.728a9.424,9.424,0,0,1,.132-1.512h-2.28a7.921,7.921,0,0,1,.156,1.512v6.312a1.81,1.81,0,0,1-.18.888ZM35.784-8.9a17.126,17.126,0,0,0-.948-1.632l-1.128.456a13.385,13.385,0,0,1,.948,1.656ZM34.3-8.316c-.216-.42-.636-1.2-.936-1.644L32.232-9.5a16.258,16.258,0,0,1,.924,1.668Zm-5.316.5a12.093,12.093,0,0,1,.12-1.536H26.94a12.34,12.34,0,0,1,.108,1.536V-6.3c-1.14.2-2.16.372-2.736.444l.348,1.9c.516-.12,1.392-.3,2.388-.5v3.072c0,1.56.384,2.256,3.4,2.256A30.91,30.91,0,0,0,34.14.6l.06-1.968a20.638,20.638,0,0,1-3.816.42c-1.248,0-1.4-.252-1.4-.96V-4.86c1.452-.288,2.772-.552,3.2-.636A9.85,9.85,0,0,1,30.4-3.3l1.6.936a16.573,16.573,0,0,0,2.5-3.5c.12-.24.324-.552.444-.744L33.528-7.7a4.185,4.185,0,0,1-.972.324c-.552.132-2.016.432-3.576.72Zm10.008-1.5-1.38,1.476A25.011,25.011,0,0,1,40.62-5.208l1.488-1.524A24.212,24.212,0,0,0,38.988-9.312ZM37.212-1.344,38.448.576a12.805,12.805,0,0,0,4.3-1.584,12.977,12.977,0,0,0,4.668-4.548L46.284-7.608a11.6,11.6,0,0,1-4.584,4.8A12.349,12.349,0,0,1,37.212-1.344ZM58.572-4.6a39.674,39.674,0,0,0-4.956-1.812V-8.052a14.267,14.267,0,0,1,.12-1.56H51.468a8.383,8.383,0,0,1,.144,1.56V-1.2A13.471,13.471,0,0,1,51.468.612h2.28c-.06-.54-.132-1.488-.132-1.812V-4.284a37.425,37.425,0,0,1,4.128,1.716Z" transform="translate(312 4177)" fill="#eb6d4e"/><g transform="translate(0 11)"><path d="M2.128-4.3a9.257,9.257,0,0,0-.266,2c0,1.9,1.582,2.968,4.76,2.968A22.115,22.115,0,0,0,11.438.21l-.014-1.96A19.66,19.66,0,0,1,6.552-1.2c-2,0-2.828-.644-2.828-1.526a5.705,5.705,0,0,1,.224-1.4ZM9.87-11.032a10.654,10.654,0,0,1,.6,1.008c-1.064.1-2.59.182-3.92.182a35.86,35.86,0,0,1-3.766-.168v1.848c1.12.084,2.324.154,3.78.154,1.316,0,3.038-.1,4-.168V-9.842c.14.28.28.546.392.77l1.134-.49c-.266-.518-.77-1.4-1.12-1.918Zm1.652-.63A14.843,14.843,0,0,1,12.656-9.73l1.106-.476a15.454,15.454,0,0,0-1.134-1.9ZM24.15-7.392a14.171,14.171,0,0,1-1.344,3.108,33.06,33.06,0,0,1-.56-3.836h4.326V-9.772H25.116l.672-.714a11.713,11.713,0,0,0-2.282-1.5L22.5-10.99A17.527,17.527,0,0,1,24.29-9.772H22.148c-.028-.686-.042-1.372-.028-2.072H20.37c0,.7.028,1.386.056,2.072H14.714v4.088c0,1.82-.1,4.256-1.162,5.936a7.288,7.288,0,0,1,1.414,1.134c1.148-1.708,1.442-4.438,1.5-6.482h1.82a7.921,7.921,0,0,1-.238,2.632.453.453,0,0,1-.42.168c-.224,0-.7-.014-1.2-.056A3.778,3.778,0,0,1,16.884-.8a11.016,11.016,0,0,0,1.61-.042,1.315,1.315,0,0,0,.966-.56c.322-.406.406-1.652.448-4.592,0-.2.014-.63.014-.63H16.464v-1.5h4.06a28.921,28.921,0,0,0,.966,5.642A10.7,10.7,0,0,1,18.634-.21a10.974,10.974,0,0,1,1.2,1.372A11.866,11.866,0,0,0,22.2-.742C22.82.406,23.59,1.106,24.57,1.106c1.3,0,1.862-.616,2.128-3.206a4.528,4.528,0,0,1-1.414-.938c-.07,1.75-.238,2.45-.574,2.45-.448,0-.9-.588-1.3-1.6a16.262,16.262,0,0,0,2.408-4.8Zm3.164,3.724A10.179,10.179,0,0,1,26.572-.42a8.229,8.229,0,0,1,1.274.6,12.944,12.944,0,0,0,.84-3.612Zm3.122.308a14.249,14.249,0,0,1,.826,2.7l1.316-.462a15.965,15.965,0,0,0-.91-2.632ZM34.8-9.492a16.056,16.056,0,0,0,.686-2l-1.708-.364A11.147,11.147,0,0,1,31.472-7.2l-.1-.168L30.2-6.846c.168.294.336.63.49.966l-1.414.056a45.07,45.07,0,0,0,2.674-3.794l-1.414-.588a21.891,21.891,0,0,1-1.288,2.3c-.14-.182-.308-.392-.49-.588.5-.784,1.078-1.862,1.582-2.828l-1.47-.518a16.787,16.787,0,0,1-1.022,2.436L27.51-9.7l-.784,1.148a13.189,13.189,0,0,1,1.68,1.918c-.21.308-.434.6-.644.868l-1.036.042.14,1.456,2.072-.14V1.232h1.47V-4.522l.8-.056a7.618,7.618,0,0,1,.2.756l1.26-.588A11.15,11.15,0,0,0,31.57-7.028a10.7,10.7,0,0,1,1.316.924,11.535,11.535,0,0,0,1.19-1.806H37.94c-.154,4.774-.364,6.818-.784,7.252a.691.691,0,0,1-.588.238c-.378,0-1.176,0-2.058-.084a3.98,3.98,0,0,1,.56,1.68,13.364,13.364,0,0,0,2.184-.042A1.735,1.735,0,0,0,38.6.364c.588-.742.784-2.954.966-9.086.014-.21.014-.77.014-.77Zm1.582,6.4a13.168,13.168,0,0,0-1.82-3.136l-1.33.672a13.225,13.225,0,0,1,1.708,3.234ZM44.548-.322A26.242,26.242,0,0,0,41.5-3.388L40.04-2.128A26.276,26.276,0,0,1,43.05.966ZM56.168-11.8a14.565,14.565,0,0,1-3.192,5.236A11.376,11.376,0,0,1,53.9-4.788c.28-.308.574-.658.868-1.008v7h1.68v-9.59A21.808,21.808,0,0,0,57.792-11.3ZM66.206-7.994V-9.576H60.774a16.547,16.547,0,0,0,.686-1.736l-1.61-.406A13.9,13.9,0,0,1,56.882-6.44a11.323,11.323,0,0,1,1.274,1.162A15.545,15.545,0,0,0,59.99-7.994h.532V1.218H62.23V-1.89h3.808V-3.43H62.23V-5.012h3.626V-6.524H62.23v-1.47Zm8.316-.224c-.154.378-.322.784-.49,1.12H71.414l.238-.042a6.9,6.9,0,0,0-.476-1.078Zm4.522,6.244V-3.346H73.6v-.616h4.2v-1.2H73.6V-5.8h4.858V-7.1H75.712c.21-.336.434-.714.658-1.12H79V-9.576h-1.82c.322-.49.7-1.12,1.092-1.764l-1.75-.42a11.278,11.278,0,0,1-.882,2.03l.5.154H74.9v-2.282H73.332v2.282H72.3v-2.282H70.742v2.282H69.468l.686-.252A10.594,10.594,0,0,0,69.09-11.8l-1.428.49a12.55,12.55,0,0,1,.868,1.736H66.654v1.358H69.58l-.168.028A6.291,6.291,0,0,1,69.888-7.1h-2.66v1.3H71.96v.63H67.928v1.2H71.96v.616H66.612v1.372H70.63A14.708,14.708,0,0,1,66.206-.336,7.766,7.766,0,0,1,67.27,1.05a13.28,13.28,0,0,0,4.69-2.268V1.218H73.6V-1.3a11.95,11.95,0,0,0,4.7,2.366,7.831,7.831,0,0,1,1.12-1.512,12.507,12.507,0,0,1-4.438-1.526Zm2.632-6.972H90.16V-7.2h1.778v-3.3H86.8v-1.344H85.036V-10.5H79.982v3.3h1.694ZM89.53-6.4V-7.91H82.32V-6.4ZM88.956-.5c-.5,0-.588-.056-.588-.5V-3.822H92.2V-5.39H79.73v1.568h3.318c-.21,1.736-.714,2.94-3.71,3.584A5.2,5.2,0,0,1,80.3,1.246c3.514-.924,4.284-2.66,4.564-5.068h1.82V-.98c0,1.512.392,1.988,2.016,1.988H90.5c1.33,0,1.75-.532,1.932-2.562a5.3,5.3,0,0,1-1.5-.63C90.874-.742,90.8-.5,90.342-.5Zm14.56-10.486-.406.112H93.562V-9.24h8.12A16.071,16.071,0,0,1,99.26-7.1h-.938V-.756c0,.238-.1.308-.406.308s-1.47.014-2.45-.042a7.29,7.29,0,0,1,.658,1.708,9.837,9.837,0,0,0,3.038-.28c.686-.252.924-.7.924-1.666V-5.7a21.45,21.45,0,0,0,4.732-4.326Zm5.5,1.47v2.464H107.73V-9.52ZM107.73-2.968V-5.6h1.288v2.632ZM110.572-11H106.19V-.252h1.54V-1.484h2.842ZM111.4-2.66a9.849,9.849,0,0,1,1.6,2.352l1.428-.826a9.66,9.66,0,0,0-1.694-2.3ZM118.8-6.244V-7.7h-3.192V-8.932h2.8v-1.456h-2.8v-1.47h-1.638v1.47h-2.688v1.456h2.688V-7.7H110.81v1.456h4.942v1.2h-4.914V-3.6h4.914v3.01c0,.2-.07.252-.294.252s-.994,0-1.666-.028a5.615,5.615,0,0,1,.532,1.568,6.2,6.2,0,0,0,2.338-.28c.546-.252.7-.672.7-1.47V-3.6h1.344V-5.04h-1.344v-1.2Zm5.908-3.528.014,1.792a38.372,38.372,0,0,0,5.95,0V-9.772A28.289,28.289,0,0,1,124.712-9.772Zm-.476,5.782A8.544,8.544,0,0,0,124-2.184C124-.77,125.132.1,127.526.1a19.271,19.271,0,0,0,3.584-.28l-.042-1.876a15.979,15.979,0,0,1-3.472.364c-1.4,0-1.932-.364-1.932-.98a4.563,4.563,0,0,1,.168-1.162Zm-3.6-6.86a10.359,10.359,0,0,1-.14,1.358A38.441,38.441,0,0,0,119.924-4,17.7,17.7,0,0,0,120.47.532l1.6-.112c-.014-.2-.014-.42-.028-.574a4.073,4.073,0,0,1,.084-.644,33.425,33.425,0,0,1,.994-3.4l-.868-.672c-.2.448-.42.91-.616,1.4a6.691,6.691,0,0,1-.056-.9,34.279,34.279,0,0,1,.672-5.082,11.652,11.652,0,0,1,.336-1.232Zm13.034-.084a10.4,10.4,0,0,1-.126,1.358,41.091,41.091,0,0,0-.574,5.782A16.724,16.724,0,0,0,133.518.63l1.568-.112c-.014-.2-.014-.434-.014-.574a2.736,2.736,0,0,1,.07-.644,33.071,33.071,0,0,1,.994-3.3l-.854-.686c-.21.462-.434.924-.616,1.414a6.418,6.418,0,0,1-.056-.9,36.666,36.666,0,0,1,.658-5.362,11.652,11.652,0,0,1,.336-1.232Zm7,8.61c0,.812-.294,1.26-1.148,1.26-.728,0-1.288-.252-1.288-.812,0-.518.532-.84,1.316-.84a4.322,4.322,0,0,1,1.12.154Zm4.382.56a8.8,8.8,0,0,0-2.674-1.792c-.056-.938-.126-2.044-.154-3.388.756-.056,1.484-.14,2.156-.238V-8.9c-.658.14-1.386.238-2.142.322,0-.616.028-1.134.042-1.442a8.851,8.851,0,0,1,.084-.9h-1.988a7.843,7.843,0,0,1,.084.91c.014.294.014.854.028,1.54-.322.014-.658.014-.98.014a22.989,22.989,0,0,1-2.422-.126V-6.93c.826.056,1.61.084,2.422.084.322,0,.658,0,.994-.014.014.98.056,1.988.1,2.842a6.228,6.228,0,0,0-.91-.056c-1.89,0-3.08.966-3.08,2.38,0,1.456,1.2,2.268,3.108,2.268,1.876,0,2.632-.952,2.716-2.268a14.139,14.139,0,0,1,1.68,1.386Z" transform="translate(218 4106)" fill="#1a1311"/><path d="M1.918-4.368a9.829,9.829,0,0,0-.266,2.044C1.652-.336,3.22.812,6.594.812A22.732,22.732,0,0,0,11.466.35l-.014-2.38a21.048,21.048,0,0,1-4.942.546c-1.876,0-2.59-.588-2.59-1.372a5.591,5.591,0,0,1,.21-1.316ZM9.7-11.088a7.574,7.574,0,0,1,.532.9c-1.078.084-2.548.154-3.78.154a36.929,36.929,0,0,1-3.836-.168v2.24c1.148.084,2.366.154,3.85.154,1.344,0,3.178-.084,4.158-.168V-9.45l.154.308,1.33-.56c-.252-.49-.742-1.4-1.092-1.918Zm1.722-.672A15.616,15.616,0,0,1,12.53-9.828l1.316-.56a19.982,19.982,0,0,0-1.106-1.9Zm7.5,6.916a6.5,6.5,0,0,1-.2,2.142.476.476,0,0,1-.42.182c-.224,0-.588-.014-1.008-.056.1-.784.154-1.554.182-2.268ZM24.766-7.49A14.366,14.366,0,0,1,23.688-4.8a28.823,28.823,0,0,1-.448-3.22h4.27v-2H26.026l.7-.728a11.847,11.847,0,0,0-2.184-1.456L23.31-10.99a16.744,16.744,0,0,1,1.4.966H23.128c-.028-.644-.028-1.288-.014-1.932H20.972q0,.966.042,1.932H15.358v4.2c0,1.834-.07,4.312-1.106,5.964a8.282,8.282,0,0,1,1.736,1.4,9.918,9.918,0,0,0,1.3-4.06,4.744,4.744,0,0,1,.518,1.848,10.206,10.206,0,0,0,1.61-.084,1.558,1.558,0,0,0,1.05-.63c.336-.448.406-1.736.448-4.592,0-.224.014-.714.014-.714H17.5v-1.33h3.64a27.549,27.549,0,0,0,.938,5.516,9.745,9.745,0,0,1-2.66,2.114,12.507,12.507,0,0,1,1.47,1.68A12.424,12.424,0,0,0,22.96-.378a2.749,2.749,0,0,0,2.282,1.61c1.442,0,2.1-.588,2.408-3.318a5.424,5.424,0,0,1-1.722-1.162C25.858-1.54,25.69-.84,25.41-.84c-.336,0-.686-.462-.994-1.26A17.768,17.768,0,0,0,26.824-7Zm6.44,1.526c.21-.252.406-.518.616-.8.126.238.238.49.35.756Zm5.586-3.71c.224-.6.434-1.218.6-1.848l-2.114-.462a10.57,10.57,0,0,1-2.212,4.606l-1.162.518c.658-.882,1.3-1.834,1.876-2.7l-1.708-.7A24.286,24.286,0,0,1,30.9-8.106c-.084-.112-.2-.238-.294-.364.49-.784,1.064-1.876,1.6-2.87l-1.792-.616A18.378,18.378,0,0,1,29.5-9.6l-.28-.238L28.28-8.428a12.461,12.461,0,0,1,1.6,1.876c-.168.224-.322.448-.49.658l-1.106.042.168,1.75,1.974-.14v.924l-1.638-.294A10.587,10.587,0,0,1,28.14-.378,10.226,10.226,0,0,1,29.666.35a12.7,12.7,0,0,0,.756-3.36V1.33h1.792V-2.534a16.308,16.308,0,0,1,.56,2.03l1.568-.574A19.36,19.36,0,0,0,33.46-3.71L32.214-3.3V-4.382l.546-.042c.07.252.126.49.168.7l1.526-.7a11.022,11.022,0,0,0-.994-2.548,12.566,12.566,0,0,1,1.316.952A10.642,10.642,0,0,0,35.91-7.756h3.472c-.14,4.424-.308,6.412-.714,6.832a.675.675,0,0,1-.6.252c-.378,0-1.162,0-2.016-.07A4.725,4.725,0,0,1,36.736,1.3a11.982,11.982,0,0,0,2.212-.07,2.019,2.019,0,0,0,1.484-.9c.588-.77.756-3.024.938-9.1.014-.252.014-.91.014-.91Zm1.344,6.538a12.624,12.624,0,0,0-1.75-3.122l-1.624.812a13.272,13.272,0,0,1,1.61,3.22Zm9.688-.056V-.77h-1.4l1.022-.448a8.827,8.827,0,0,0-1.092-1.974Zm3.626,0a13.257,13.257,0,0,1-1.162,2.114l.742.308H49.994V-3.192Zm-4.578-4.62a13.086,13.086,0,0,0,2.072-2.226,14.131,14.131,0,0,0,2.128,2.226Zm5.25,4.62H54.04V-4.928H49.994v-1.12h2.492v-.658a20.194,20.194,0,0,0,2.03,1.274A10.3,10.3,0,0,1,55.86-7.266a13.366,13.366,0,0,1-5.936-4.76H47.8A14.445,14.445,0,0,1,42.182-7.1a8.164,8.164,0,0,1,1.274,1.652,19,19,0,0,0,1.96-1.218v.616h2.408v1.12h-4v1.736h1.75l-1.036.434A11.362,11.362,0,0,1,45.584-.77H43.078V.966H54.936V-.77H52.08c.42-.532.91-1.246,1.4-1.932ZM67.228-6.958H64.96v-.588h2.268Zm0,1.96H64.96v-.588h2.268Zm0,1.974H64.96v-.588h2.268ZM60.3-.994H58.982v-.9H60.3ZM59.052-3.416a11.277,11.277,0,0,0,.924-.686c.336.238.658.462.952.686Zm1.26-3.6a9.175,9.175,0,0,1-.546.742l-.742-.476c.07-.084.154-.168.224-.266ZM69.146-9.03H66.822c.1-.238.2-.476.294-.728H69.4V-11.48H62.776v.616h-2.2v-1.05h-1.89v1.05H56.5v2.408h1.61V-9.31h3.024v.854h1.68v-1.3h2.156c-.028.238-.07.49-.112.728H63.14v7.49H64.2A8.767,8.767,0,0,1,62.02-.14V-2.9l.966-1.218c-.448-.336-1.092-.784-1.792-1.232A8.927,8.927,0,0,0,62.58-7.9l-1.148-.518-.294.07H60.13c.084-.168.168-.35.252-.532L58.744-9.3a6.139,6.139,0,0,1-2.59,2.814,9.289,9.289,0,0,1,1.26,1.19c.14-.1.28-.2.42-.308l.7.476a8.533,8.533,0,0,1-2.352,1.218A6.507,6.507,0,0,1,57.2-2.45l.084-.028V1.064h1.694V.532H62.02V.448c.308.294.63.63.84.868a10.24,10.24,0,0,0,3.024-1.89l-1.47-.966h4.732ZM66.192-.616A17.6,17.6,0,0,1,68.32,1.33L69.888.308A20.789,20.789,0,0,0,67.662-1.54ZM79.534-2.73V-.91H74.508V-2.73ZM72.506,1.358h2V.868h5.026v.49h2.1V-4.508H72.506ZM74.55-7.476a13.625,13.625,0,0,0,2.394-2.492,14.063,14.063,0,0,0,2.45,2.492Zm1.246-4.48a14.285,14.285,0,0,1-5.614,4.9A8.7,8.7,0,0,1,71.456-5.4a17.611,17.611,0,0,0,2.072-1.288V-5.7h7v-.924a17.947,17.947,0,0,0,2,1.232,9.587,9.587,0,0,1,1.33-1.834,13.131,13.131,0,0,1-5.936-4.732Zm13.888.392h-4.55v1.512h4.55Zm.532,1.918H84.35v1.582h5.866Zm-2.38,7.49v1.19H86.744v-1.19Zm1.778-1.582h-4.62V1.12h1.75v-.5h2.87ZM85.05-4.2h4.606V-5.712H85.05Zm0-1.932h4.606V-7.644H85.05ZM97.762-7.308h-2.8V-11.9H92.89v4.592H90.132v2.016H92.89V1.33h2.072V-5.292h2.8ZM1.092,20h6.58V17.984H5.8v-8.4H3.962a7.027,7.027,0,0,1-2.576.938v1.54H3.3v5.922H1.092Zm11.69.2c2.2,0,3.7-1.876,3.7-5.46,0-3.556-1.5-5.348-3.7-5.348S9.1,11.152,9.1,14.736,10.584,20.2,12.782,20.2Zm0-1.932c-.742,0-1.33-.672-1.33-3.528s.588-3.43,1.33-3.43,1.344.588,1.344,3.43S13.524,18.264,12.782,18.264ZM21.308,20.2c2.2,0,3.7-1.876,3.7-5.46,0-3.556-1.5-5.348-3.7-5.348s-3.682,1.764-3.682,5.348S19.11,20.2,21.308,20.2Zm0-1.932c-.742,0-1.33-.672-1.33-3.528s.588-3.43,1.33-3.43,1.344.588,1.344,3.43S22.05,18.264,21.308,18.264Zm12.236-4.158V10.9H36.61v3.206ZM28.658,10.9h2.856v3.206H28.658Zm10.01-2.016H26.614V21.316h2.044V16.122H36.61v2.884c0,.252-.1.336-.364.336s-1.19.014-1.918-.042a7.2,7.2,0,0,1,.728,2.03,6.174,6.174,0,0,0,2.758-.378c.644-.336.854-.882.854-1.918ZM42.362,22.46l1.332-.552a11.74,11.74,0,0,1-1.428-5.724,11.773,11.773,0,0,1,1.428-5.724l-1.332-.552a11.775,11.775,0,0,0,0,12.552Zm7.224-6.06c-.216-.252-1.164-1.26-1.488-1.524v-.144H49.25v-1.62H48.1v-1.5a14.318,14.318,0,0,0,1.38-.432L48.326,9.836a16.622,16.622,0,0,1-3.7,1,5.543,5.543,0,0,1,.48,1.332c.42-.048.852-.12,1.3-.192v1.14h-1.6v1.62h1.368a10.947,10.947,0,0,1-1.62,2.916,9.351,9.351,0,0,1,.792,1.68,9.608,9.608,0,0,0,1.056-1.9V21.14H48.1V16.784c.2.36.384.72.5.984Zm4.26-1.524h-2.52V13.64h2.52Zm.588,4.548c-.1,0-.108-.036-.108-.432v-2.6h1.26v-4.26H54.6c.336-.492.732-1.152,1.128-1.824l-1.8-.576a10.971,10.971,0,0,1-.936,2.052l.948.348H51.374l.732-.324A8.359,8.359,0,0,0,51,9.764l-1.44.624a9.534,9.534,0,0,1,.888,1.74h-.78v4.26h.816c-.1,1.488-.36,2.652-2.124,3.384a4.579,4.579,0,0,1,1.02,1.392c2.22-1.02,2.664-2.688,2.808-4.776h.456V19c0,1.464.252,1.98,1.464,1.98h.672c.936,0,1.344-.5,1.488-2.3a4.473,4.473,0,0,1-1.476-.66c-.024,1.224-.072,1.4-.2,1.4Zm10.992-3.78a7.337,7.337,0,0,1-.708,1.752,6.751,6.751,0,0,1-.972-1.752Zm.852-1.6-.288.048H63.758c.036-.336.048-.672.072-1.02h4.1V11.468H63.878c0-.564.012-1.14.012-1.728H62.2c0,.588,0,1.164-.012,1.728H60.9v1.608h1.26c-.108,2.772-.528,5.076-2.364,6.648.012-.12.012-.264.012-.42V16.7c.432-.12.876-.24,1.3-.372l-.216-1.6L59.81,15V13.5h.96V11.888h-.96V9.728H58.094v2.16H56.822V13.5h1.272V15.4c-.564.12-1.092.24-1.524.324l.372,1.788,1.152-.324V19.3c0,.168-.06.216-.228.228s-.648,0-1.068-.024a6.185,6.185,0,0,1,.468,1.6,3.985,3.985,0,0,0,1.956-.312,1.074,1.074,0,0,0,.54-.852,4.926,4.926,0,0,1,1.092,1.152,7.289,7.289,0,0,0,2.232-3.36,7.919,7.919,0,0,0,.624.972,5.074,5.074,0,0,1-1.6,1.032,5.918,5.918,0,0,1,.972,1.392A7.187,7.187,0,0,0,64.862,19.9,7.218,7.218,0,0,0,67.13,21.14a6.82,6.82,0,0,1,1.1-1.5,6.92,6.92,0,0,1-2.3-1.068,10.546,10.546,0,0,0,1.392-4.236Zm4.116,8.412a11.775,11.775,0,0,0,0-12.552l-1.332.552a11.773,11.773,0,0,1,1.428,5.724,11.74,11.74,0,0,1-1.428,5.724Zm9-12.414.014,2.156a42.1,42.1,0,0,0,6.09,0v-2.17A31.68,31.68,0,0,1,79.394,10.046Zm-.49,5.908a8.378,8.378,0,0,0-.252,1.9c0,1.47,1.2,2.38,3.626,2.38a19.909,19.909,0,0,0,3.654-.266L85.89,17.7a16.609,16.609,0,0,1-3.5.364c-1.134,0-1.708-.224-1.708-.84a4.687,4.687,0,0,1,.14-1.106Zm-3.7-6.944c-.014.518-.112,1.148-.168,1.568a39.411,39.411,0,0,0-.546,5.46,17.665,17.665,0,0,0,.56,4.564l1.932-.126c-.014-.224-.014-.476-.014-.63a4.446,4.446,0,0,1,.084-.658,35.827,35.827,0,0,1,1.008-3.57l-1.022-.8c-.182.392-.35.672-.532,1.064a2.588,2.588,0,0,1-.014-.322,36.071,36.071,0,0,1,.658-4.942,13.663,13.663,0,0,1,.392-1.414ZM87.85,12.132l.938,2.352c1.652-.742,4.774-2.044,6.692-2.044a2.081,2.081,0,0,1,2.352,2.128c0,2.184-2.786,3.262-6.608,3.332l.98,2.24c5.236-.252,8.05-2.492,8.05-5.53,0-2.7-2.058-4.2-4.676-4.2A23.271,23.271,0,0,0,89.656,11.7C89.166,11.838,88.354,12.048,87.85,12.132ZM103.7,15.968a7.168,7.168,0,0,0-.35,1.96c0,2.044,1.666,2.94,4.34,2.94a23.831,23.831,0,0,0,3.682-.28l.07-2.142a22.122,22.122,0,0,1-3.808.308c-1.694,0-2.184-.546-2.184-1.288a4.28,4.28,0,0,1,.322-1.316Zm9.338-4.144a16.062,16.062,0,0,1-2.45.672l-.168-.392c-.084-.2-.182-.406-.266-.616a19.477,19.477,0,0,0,2.24-.546l-.35-1.862a16.668,16.668,0,0,1-2.59.63,10.007,10.007,0,0,1-.378-1.3l-2.394.448a8.949,8.949,0,0,1,.63,1.092,27.427,27.427,0,0,1-3.99-.182l.112,1.9a28.2,28.2,0,0,0,4.7.07l.364.84.084.21a28.907,28.907,0,0,1-5.362-.056l.084,1.918a37.221,37.221,0,0,0,6.034-.07c.14.336.294.714.476,1.12-.35-.028-.84-.07-1.316-.112l-.182,1.6c.952.112,2.394.336,3.206.5l.98-1.26c-.406-.77-.77-1.526-1.092-2.2a15.481,15.481,0,0,0,2.016-.518Z" transform="translate(218 4126)" fill="#eb6d4e"/></g></g><g transform="translate(-161.992 3887.426)"><g transform="translate(315.424 212.969)"><rect width="19.858" height="39.727" transform="translate(0 19.858)" fill="#003288"/><path d="M315.424,212.969v19.858h19.858v39.727h19.869V232.827H375.01V212.969Z" transform="translate(-315.424 -212.969)" fill="#ffed00"/><rect width="19.859" height="39.727" transform="translate(39.727 19.858)" fill="#003288"/></g><g transform="translate(315.424 279.115)"><path d="M676.032,778.026v6.285c-.732-.942-4.318-6.285-4.318-6.285h-1.735v9.362h1.735v-6.24c.728.947,4.308,6.24,4.308,6.24h1.744v-9.362Z" transform="translate(-628.473 -778.026)" fill="#1a1311"/><path d="M462.382,780.986c0-1.429-.931-2.96-3.564-2.96h-3.009v9.362h1.747v-3.513h1.267C461.451,783.867,462.382,782.327,462.382,780.986Zm-4.825-1.415h1.262c1.524,0,1.69.954,1.69,1.352,0,.877-.651,1.4-1.757,1.4h-1.195Z" transform="translate(-439.375 -778.026)" fill="#1a1311"/><rect width="1.82" height="9.371" transform="translate(35.831 0)" fill="#1a1311"/><rect width="4.973" height="1.654" transform="translate(8.437 4.892)" fill="#1a1311"/><path d="M760.512,778.055v1.656h2.819v7.712h1.823v-7.712h2.823v-1.656Z" transform="translate(-708.409 -778.051)" fill="#1a1311"/><path d="M315.424,778.055v1.656h2.819v7.712h1.823v-7.712h2.823v-1.656Z" transform="translate(-315.424 -778.051)" fill="#1a1311"/><path d="M531.983,787.664c-2.788,0-4.148-1.982-4.148-4.76s1.392-4.849,4.2-4.849,4.145,2.041,4.145,4.826C536.175,785.626,534.757,787.664,531.983,787.664Zm0-7.979c-1.719,0-2.319,1.637-2.319,3.154,0,1.58.524,3.2,2.319,3.2s2.362-1.61,2.362-3.2C534.345,781.277,533.748,779.685,531.983,779.685Z" transform="translate(-502.97 -778.052)" fill="#1a1311"/></g></g></g></svg>