<svg xmlns="http://www.w3.org/2000/svg" width="213" height="76" viewBox="0 0 213 76"><g transform="translate(-154 -4100)"><g transform="translate(-7 1)"><text transform="translate(241 4163)" fill="#eb6d4e" font-size="40" font-family="Oswald-SemiBold, Oswald" font-weight="600"><tspan x="0" y="0">100</tspan></text><text transform="translate(304 4147)" fill="#eb6d4e" font-size="16" font-family="Oswald-SemiBold, Oswald" font-weight="600"><tspan x="0" y="0">pt</tspan></text><text transform="translate(304 4165)" fill="#eb6d4e" font-size="14" font-family="NotoSansJP-Black, Noto Sans JP" font-weight="800"><tspan x="0" y="0">プレゼント</tspan></text><g transform="translate(0 5)"><text transform="translate(241 4116)" fill="#1a1311" font-size="14" font-family="NotoSansJP-Bold, Noto Sans JP" font-weight="700"><tspan x="0" y="0">お見積もりで</tspan></text></g></g><g transform="translate(-161.424 3887.031)"><g transform="translate(315.424 212.969)"><rect width="19.858" height="39.727" transform="translate(0 19.858)" fill="#003288"/><path d="M315.424,212.969v19.858h19.858v39.727h19.869V232.827H375.01V212.969Z" transform="translate(-315.424 -212.969)" fill="#ffed00"/><rect width="19.859" height="39.727" transform="translate(39.727 19.858)" fill="#003288"/></g><g transform="translate(315.424 279.115)"><path d="M676.032,778.026v6.285c-.732-.942-4.318-6.285-4.318-6.285h-1.735v9.362h1.735v-6.24c.728.947,4.308,6.24,4.308,6.24h1.744v-9.362Z" transform="translate(-628.473 -778.026)" fill="#1a1311"/><path d="M462.382,780.986c0-1.429-.931-2.96-3.564-2.96h-3.009v9.362h1.747v-3.513h1.267C461.451,783.867,462.382,782.327,462.382,780.986Zm-4.825-1.415h1.262c1.524,0,1.69.954,1.69,1.352,0,.877-.651,1.4-1.757,1.4h-1.195Z" transform="translate(-439.375 -778.026)" fill="#1a1311"/><rect width="1.82" height="9.371" transform="translate(35.831 0)" fill="#1a1311"/><rect width="4.973" height="1.654" transform="translate(8.437 4.892)" fill="#1a1311"/><path d="M760.512,778.055v1.656h2.819v7.712h1.823v-7.712h2.823v-1.656Z" transform="translate(-708.409 -778.051)" fill="#1a1311"/><path d="M315.424,778.055v1.656h2.819v7.712h1.823v-7.712h2.823v-1.656Z" transform="translate(-315.424 -778.051)" fill="#1a1311"/><path d="M531.983,787.664c-2.788,0-4.148-1.982-4.148-4.76s1.392-4.849,4.2-4.849,4.145,2.041,4.145,4.826C536.175,785.626,534.757,787.664,531.983,787.664Zm0-7.979c-1.719,0-2.319,1.637-2.319,3.154,0,1.58.524,3.2,2.319,3.2s2.362-1.61,2.362-3.2C534.345,781.277,533.748,779.685,531.983,779.685Z" transform="translate(-502.97 -778.052)" fill="#1a1311"/></g></g></g></svg>