<svg xmlns="http://www.w3.org/2000/svg" width="211.334" height="75.759" viewBox="0 0 211.334 75.759"><g transform="translate(-154 -4100)"><g transform="translate(-7 1)"><path d="M5.64,0h6.2V-32.4H7C5.8-31.08,2.24-29.36.96-28.84v4.6c.96-.48,3.72-1.24,4.68-1.76ZM26.52.56c5.68,0,8.64-3.88,8.64-9.36V-23.32c0-5.68-2.72-9.52-8.64-9.52-6,0-8.68,3.84-8.68,9.52V-8.8C17.84-3.28,20.72.56,26.52.56Zm0-5.44c-2.12,0-2.4-2.44-2.4-4.04V-23.2c0-1.72.12-4.2,2.4-4.2,2.2,0,2.36,2.48,2.36,4.2V-8.92C28.88-7.32,28.6-4.88,26.52-4.88ZM48.24.56c5.68,0,8.64-3.88,8.64-9.36V-23.32c0-5.68-2.72-9.52-8.64-9.52-6,0-8.68,3.84-8.68,9.52V-8.8C39.56-3.28,42.44.56,48.24.56Zm0-5.44c-2.12,0-2.4-2.44-2.4-4.04V-23.2c0-1.72.12-4.2,2.4-4.2,2.2,0,2.36,2.48,2.36,4.2V-8.92C50.6-7.32,50.32-4.88,48.24-4.88Z" transform="translate(241 4163)" fill="#eb6d4e"/><path d="M.832,3.04h2.4V-.7A2.932,2.932,0,0,0,5.12.16C6.544.16,7.2-1.136,7.2-2.9V-6.512c0-1.424-.5-2.88-2-2.9a2.943,2.943,0,0,0-1.968.848v-.688H.832Zm3.216-4.5a1.553,1.553,0,0,1-.816-.272V-7.536a1.386,1.386,0,0,1,.832-.352c.544,0,.72.544.72,1.216V-2.8C4.784-2.048,4.624-1.456,4.048-1.456ZM11.472.112A10.278,10.278,0,0,0,12.96-.016V-1.9a2.96,2.96,0,0,1-.688.064.721.721,0,0,1-.816-.816V-7.664H12.8V-9.248H11.456v-2.784H9.008v2.784H8.1v1.584h.912v5.248C9.008-.816,9.52.112,11.472.112Z" transform="translate(304 4147)" fill="#eb6d4e"/><path d="M11.97-9.646a.747.747,0,0,1-.742-.742.747.747,0,0,1,.742-.742.747.747,0,0,1,.742.742A.747.747,0,0,1,11.97-9.646Zm-8.9-.49c-.462,0-1.386-.07-1.82-.126v2.394c.364-.028,1.134-.07,1.82-.07h6.16a7.865,7.865,0,0,1-1.54,3.612,9.162,9.162,0,0,1-5.5,3.234L4.032.938A11.481,11.481,0,0,0,9.73-3a14.751,14.751,0,0,0,2.114-5.068c.042-.168.1-.378.168-.588a1.755,1.755,0,0,0,1.694-1.736,1.745,1.745,0,0,0-1.736-1.736,1.745,1.745,0,0,0-1.736,1.736.8.8,0,0,0,.014.182,7.3,7.3,0,0,1-1.008.07ZM18.13.784A3.64,3.64,0,0,1,19.1.336a18.654,18.654,0,0,0,8.092-5.068l-1.2-1.932a16.5,16.5,0,0,1-6.93,4.55v-6.9a10.994,10.994,0,0,1,.154-1.764h-2.66a9.241,9.241,0,0,1,.182,1.764v7.364a2.112,2.112,0,0,1-.21,1.036ZM41.748-10.388a19.982,19.982,0,0,0-1.106-1.9l-1.316.532a15.616,15.616,0,0,1,1.106,1.932ZM40.012-9.7c-.252-.49-.742-1.4-1.092-1.918l-1.316.532a18.967,18.967,0,0,1,1.078,1.946Zm-6.2.588a14.109,14.109,0,0,1,.14-1.792H31.43a14.4,14.4,0,0,1,.126,1.792V-7.35c-1.33.238-2.52.434-3.192.518L28.77-4.62c.6-.14,1.624-.35,2.786-.588v3.584c0,1.82.448,2.632,3.962,2.632A36.062,36.062,0,0,0,39.83.7l.07-2.3a24.077,24.077,0,0,1-4.452.49c-1.456,0-1.638-.294-1.638-1.12V-5.67c1.694-.336,3.234-.644,3.738-.742A11.492,11.492,0,0,1,35.462-3.85l1.862,1.092a19.336,19.336,0,0,0,2.912-4.088c.14-.28.378-.644.518-.868L39.116-8.988a4.883,4.883,0,0,1-1.134.378c-.644.154-2.352.5-4.172.84Zm11.676-1.75-1.61,1.722A29.18,29.18,0,0,1,47.39-6.076l1.736-1.778A28.247,28.247,0,0,0,45.486-10.864Zm-2.072,9.3L44.856.672a14.94,14.94,0,0,0,5.012-1.848,15.14,15.14,0,0,0,5.446-5.306L54-8.876a13.528,13.528,0,0,1-5.348,5.6A14.407,14.407,0,0,1,43.414-1.568Zm24.92-3.794a46.286,46.286,0,0,0-5.782-2.114V-9.394a16.645,16.645,0,0,1,.14-1.82H60.046a9.78,9.78,0,0,1,.168,1.82V-1.4A15.717,15.717,0,0,1,60.046.714h2.66c-.07-.63-.154-1.736-.154-2.114V-5a43.661,43.661,0,0,1,4.816,2Z" transform="translate(304 4165)" fill="#eb6d4e"/><g transform="translate(0 5)"><path d="M3.906-1.246c-.364,0-1.008-.392-1.008-.812,0-.49.56-1.064,1.414-1.5.028.728.042,1.358.042,1.708C4.354-1.372,4.158-1.246,3.906-1.246ZM5.88-6.23c0-.406,0-.826.014-1.246A26.776,26.776,0,0,0,8.54-7.91L8.5-9.646a18.986,18.986,0,0,1-2.548.518c.014-.35.028-.686.042-.994.028-.35.084-.952.112-1.2H4.2a11.006,11.006,0,0,1,.1,1.218c0,.238,0,.644-.014,1.134-.28.014-.546.028-.8.028a15.189,15.189,0,0,1-1.918-.112L1.6-7.378c.6.056,1.3.07,1.932.07.224,0,.476-.014.742-.028v1.162c0,.322,0,.644.014.966C2.59-4.466,1.176-3.22,1.176-2,1.176-.532,3.094.63,4.452.63c.9,0,1.526-.448,1.526-2.17,0-.476-.042-1.54-.07-2.646a9.842,9.842,0,0,1,2.6-.378c1.2,0,2.044.546,2.044,1.484,0,1.008-.9,1.582-2.016,1.778a10.6,10.6,0,0,1-1.708.1L7.476.574A11.3,11.3,0,0,0,9.3.35c2.2-.546,3.052-1.778,3.052-3.416,0-1.9-1.68-3.038-3.808-3.038a11.284,11.284,0,0,0-2.66.364ZM9.3-8.47a21.061,21.061,0,0,1,3.332,2.016l.84-1.428a30.627,30.627,0,0,0-3.4-1.946Zm8.778,2.94h5.852v.868H18.074Zm0-2.226h5.852v.868H18.074Zm0-2.212h5.852V-9.1H18.074Zm5.88,9.492c-.532,0-.616-.056-.616-.5V-3.206H25.62v-8.218H16.464v8.218h1.708c-.238,1.526-.84,2.464-3.71,3a5.276,5.276,0,0,1,.924,1.484C18.844.49,19.67-.98,19.964-3.206h1.694v2.24c0,1.568.392,2.072,2.058,2.072h1.848c1.386,0,1.82-.574,2-2.786a5.3,5.3,0,0,1-1.526-.658c-.07,1.624-.154,1.862-.63,1.862ZM33.838-4.3c-.238-.294-1.246-1.33-1.694-1.75V-6.5H33.53v-.756h7.924V-8.288H38.276v-.476h2.576V-9.73H38.276v-.476h2.9v-1.008h-2.9v-.63H36.61v.63H33.88v1.008h2.73v.476H34.132v.966H36.61v.476H33.446v.238h-1.3V-9.94a12.741,12.741,0,0,0,1.652-.5L32.69-11.718a18.42,18.42,0,0,1-4.2,1.036,6.591,6.591,0,0,1,.448,1.274c.5-.056,1.036-.126,1.582-.21V-8.05H28.658V-6.5h1.75a13.894,13.894,0,0,1-2.114,3.864,8.264,8.264,0,0,1,.77,1.582,12.5,12.5,0,0,0,1.456-2.6V1.2h1.624v-5.46A14.242,14.242,0,0,1,32.886-3ZM35.8-2.66h3.4v.588H35.8Zm0-1.554h3.4v.6H35.8Zm0-1.54h3.4v.588H35.8Zm4.984,4.718v-5.74H34.314v5.74h1.218A10.887,10.887,0,0,1,32.774.238c.308.294.77.742,1.022,1.036A12.413,12.413,0,0,0,37.156-.42l-.938-.616h2.548l-.868.63a24.249,24.249,0,0,1,2.31,1.638L41.664.448c-.56-.392-1.526-.98-2.38-1.484Zm10.36-4.69A3.849,3.849,0,0,1,52.57-3.038c0,1.148-1.064,2.03-3,2.03-1.372,0-2.072-.63-2.072-1.764,0-.252.028-.6.056-1.008h.56c.854,0,1.666-.056,2.45-.126l.042-1.652a27.5,27.5,0,0,1-2.786.168h-.1c.07-.616.154-1.274.238-1.89a24.845,24.845,0,0,0,2.7-.126l.056-1.652a20.347,20.347,0,0,1-2.548.168c.07-.448.112-.812.154-1.05.056-.364.126-.728.238-1.232l-1.946-.112a8.732,8.732,0,0,1-.028,1.232c-.028.308-.056.686-.112,1.106a12.851,12.851,0,0,1-2.842-.518l-.1,1.61a17.33,17.33,0,0,0,2.758.49c-.084.63-.154,1.274-.238,1.89a11.8,11.8,0,0,1-2.73-.546l-.1,1.68a15.547,15.547,0,0,0,2.66.462c-.056.574-.1,1.064-.1,1.4,0,2.31,1.54,3.262,3.724,3.262,3.038,0,4.914-1.512,4.914-3.6a5.157,5.157,0,0,0-1.344-3.332Zm8.036-5.558c-.014.392-.042.952-.112,1.456a33.622,33.622,0,0,0-.392,4.438,17.935,17.935,0,0,0,.168,2.31l1.722-.112a8.326,8.326,0,0,1-.07-1.47c.07-1.82,1.5-4.284,3.136-4.284,1.148,0,1.862,1.19,1.862,3.332,0,3.36-2.156,4.368-5.236,4.844L61.306.84c3.668-.672,6.076-2.548,6.076-6.468,0-3.052-1.5-4.942-3.43-4.942a4.286,4.286,0,0,0-3.43,2.24,22.636,22.636,0,0,1,.56-2.87Zm21.182,4-1.036.434A10.8,10.8,0,0,1,80.416-4.9l1.064-.476A18.348,18.348,0,0,0,80.36-7.28Zm1.568-.644-1.022.476a12.316,12.316,0,0,1,1.148,1.89l1.05-.5A20.943,20.943,0,0,0,81.928-7.924ZM71.022-9.576l.182,1.9c1.61-.35,4.522-.658,5.726-.784a5.5,5.5,0,0,0-2.044,4.27c0,3.01,2.744,4.578,5.656,4.76l.644-1.918c-2.352-.112-4.48-.938-4.48-3.22a4.208,4.208,0,0,1,2.926-3.878,14.317,14.317,0,0,1,2.674-.182l-.014-1.792c-.98.042-2.492.126-3.92.238-2.534.224-4.83.434-5.992.532C72.114-9.618,71.582-9.59,71.022-9.576Z" transform="translate(241 4116)" fill="#1a1311"/></g></g><g transform="translate(-161.424 3887.031)"><g transform="translate(315.424 212.969)"><rect width="19.858" height="39.727" transform="translate(0 19.858)" fill="#003288"/><path d="M315.424,212.969v19.858h19.858v39.727h19.869V232.827H375.01V212.969Z" transform="translate(-315.424 -212.969)" fill="#ffed00"/><rect width="19.859" height="39.727" transform="translate(39.727 19.858)" fill="#003288"/></g><g transform="translate(315.424 279.115)"><path d="M676.032,778.026v6.285c-.732-.942-4.318-6.285-4.318-6.285h-1.735v9.362h1.735v-6.24c.728.947,4.308,6.24,4.308,6.24h1.744v-9.362Z" transform="translate(-628.473 -778.026)" fill="#1a1311"/><path d="M462.382,780.986c0-1.429-.931-2.96-3.564-2.96h-3.009v9.362h1.747v-3.513h1.267C461.451,783.867,462.382,782.327,462.382,780.986Zm-4.825-1.415h1.262c1.524,0,1.69.954,1.69,1.352,0,.877-.651,1.4-1.757,1.4h-1.195Z" transform="translate(-439.375 -778.026)" fill="#1a1311"/><rect width="1.82" height="9.371" transform="translate(35.831 0)" fill="#1a1311"/><rect width="4.973" height="1.654" transform="translate(8.437 4.892)" fill="#1a1311"/><path d="M760.512,778.055v1.656h2.819v7.712h1.823v-7.712h2.823v-1.656Z" transform="translate(-708.409 -778.051)" fill="#1a1311"/><path d="M315.424,778.055v1.656h2.819v7.712h1.823v-7.712h2.823v-1.656Z" transform="translate(-315.424 -778.051)" fill="#1a1311"/><path d="M531.983,787.664c-2.788,0-4.148-1.982-4.148-4.76s1.392-4.849,4.2-4.849,4.145,2.041,4.145,4.826C536.175,785.626,534.757,787.664,531.983,787.664Zm0-7.979c-1.719,0-2.319,1.637-2.319,3.154,0,1.58.524,3.2,2.319,3.2s2.362-1.61,2.362-3.2C534.345,781.277,533.748,779.685,531.983,779.685Z" transform="translate(-502.97 -778.052)" fill="#1a1311"/></g></g></g></svg>