<svg xmlns="http://www.w3.org/2000/svg" width="235" height="71" viewBox="0 0 235 71"><g transform="translate(-147 -4099)"><text transform="translate(147 4166)" fill="#1a1311" font-size="14" font-family="NotoSansJP-Bold, Noto Sans JP" font-weight="700"><tspan x="0" y="0">受付時間　8:30〜17:30【年中無休】</tspan></text><g transform="translate(-564.418 4073.933)"><rect width="57" height="5" transform="translate(831.418 38.068)" fill="#ffd800"/><rect width="50" height="5" transform="translate(891.418 38.068)" fill="#ffd800"/><text transform="translate(831.417 39.068)" fill="#ed4c24" font-size="12" font-family="NotoSansJP-Bold, Noto Sans JP" font-weight="700" letter-spacing="0.23em"><tspan x="0" y="0">ささっと</tspan></text><text transform="translate(891.417 39.068)" fill="#ed4c24" font-size="12" font-family="NotoSansJP-Bold, Noto Sans JP" font-weight="700"><tspan x="0" y="0">ゴーゴー</tspan></text><text transform="translate(754.418 67.068)" fill="#ed4c24" font-size="30" font-family="SegoeUI-Bold, Segoe UI" letter-spacing="-0.018em" font-weight="700"><tspan x="0" y="0">0120-3310-55</tspan></text><g transform="translate(713.992 34.532)"><ellipse cx="18.5" cy="19" rx="18.5" ry="19" transform="translate(0.426 -0.465)" fill="#ed4c24"/><path d="M19.795,14.956l-2.843-2.844a1.89,1.89,0,0,0-3.147.711,1.934,1.934,0,0,1-2.233,1.219A8.769,8.769,0,0,1,6.292,8.76,1.841,1.841,0,0,1,7.51,6.525a1.892,1.892,0,0,0,.71-3.148L5.377.533a2.027,2.027,0,0,0-2.741,0L.707,2.463c-1.929,2.031.2,7.414,4.976,12.187s10.153,7.008,12.183,4.977L19.8,17.7A2.029,2.029,0,0,0,19.795,14.956Z" transform="translate(10.773 6.781) rotate(11)" fill="#fff"/></g><text transform="translate(783.417 40.067)" fill="#ed4c24" font-size="9" font-family="NotoSansJP-Bold, Noto Sans JP" font-weight="700"><tspan x="-27" y="0">通話料無料！</tspan></text></g></g></svg>