<svg xmlns="http://www.w3.org/2000/svg" width="275" height="67" viewBox="0 0 275 67"><g transform="translate(-637 -3)"><rect width="59" height="3" transform="translate(785 19)" fill="#ffd800"/><rect width="49" height="3" transform="translate(859 19)" fill="#ffd800"/><text transform="translate(685 66)" fill="#fff" font-size="12" font-family="NotoSansJP-Bold, Noto Sans JP" font-weight="700"><tspan x="0" y="0">受付時間　8:30〜17:30【年中無休】</tspan></text><text transform="translate(637 17)" fill="#fff" font-size="12" font-family="NotoSansJP-Bold, Noto Sans JP" font-weight="700"><tspan x="0" y="0">無料見積り受付中！</tspan></text><text transform="translate(685 50)" fill="#fff" font-size="34" font-family="SegoeUI-Bold, Segoe UI" letter-spacing="0.01em" font-weight="700"><tspan x="0" y="0">0120-3310-55</tspan></text><text transform="translate(787 17)" fill="#fff" font-size="12" font-family="NotoSansJP-Bold, Noto Sans JP" font-weight="700" letter-spacing="0.23em"><tspan x="0" y="0">ささっと</tspan></text><text transform="translate(860 17)" fill="#fff" font-size="12" font-family="NotoSansJP-Bold, Noto Sans JP" font-weight="700"><tspan x="0" y="0">ゴーゴー</tspan></text><g transform="translate(625.863 -583.137)"><circle cx="17" cy="17" r="17" transform="translate(19.137 608.137)" fill="#fff"/><path d="M18.948,14.312l-2.721-2.722a1.81,1.81,0,0,0-3.013.68,1.852,1.852,0,0,1-2.138,1.166A8.392,8.392,0,0,1,6.023,8.383,1.762,1.762,0,0,1,7.189,6.245a1.81,1.81,0,0,0,.68-3.013L5.148.51a1.941,1.941,0,0,0-2.624,0L.677,2.357C-1.169,4.3.872,9.452,5.44,14.021s9.719,6.707,11.662,4.763l1.846-1.847A1.941,1.941,0,0,0,18.948,14.312Z" transform="translate(28.721 614) rotate(11)" fill="#eb6d4e"/></g></g></svg>