<svg xmlns="http://www.w3.org/2000/svg" xmlns:xlink="http://www.w3.org/1999/xlink" width="240" height="217" viewBox="0 0 240 217"><defs><clipPath id="a"><rect width="240" height="217" transform="translate(829 1498)" fill="#fff" stroke="#707070" stroke-width="1"/></clipPath></defs><g transform="translate(-829 -1498)" clip-path="url(#a)"><path d="M8.34,0l8.34,15.85H0Z" transform="translate(1025.009 1587.475) rotate(-158)" fill="#fff"/><path d="M8.34,0l8.34,15.85H0Z" transform="translate(897.952 1592.447) rotate(150)" fill="#fff"/><ellipse cx="34.566" cy="34.566" rx="34.566" ry="34.566" transform="translate(990.06 1526.779) rotate(-21)" fill="#fff"/><ellipse cx="34.566" cy="34.566" rx="34.566" ry="34.566" transform="translate(828.643 1582.62) rotate(-73)" fill="#fff"/><path d="M9.892,0l9.892,18.8H0Z" transform="translate(929.851 1585.254) rotate(-150)" fill="#03a58e"/><circle cx="41" cy="41" r="41" transform="translate(898.82 1508.192) rotate(-13)" fill="#009c86"/><g transform="translate(578.155 1291.965)"><circle cx="27.935" cy="27.935" r="27.935" transform="translate(341.398 218.587)" fill="#009c86"/><g transform="translate(353.369 224.418)"><rect width="9.217" height="9.217" transform="translate(18.501 0.613)" fill="#fff"/><path d="M409.887,246.683a.58.58,0,0,0-.6-.562l-24.085.7a5.833,5.833,0,0,0,3.269-8.619l.106-.036,0-.005,3.2-1.1a.214.214,0,0,0,.131-.273c-.033-.1-.1-.138-.23-.142l-3.775.162-.671-.041a5.844,5.844,0,1,0-5.169,10.148h-.015v.011h0l-1.6,15.791-4.542,15.163h0a.4.4,0,0,0,.378.508H385a.446.446,0,0,0,.445-.446v-1.7A.445.445,0,0,0,385,275.8h-.935l3.345-11.172,10.224,1.558v11.654a.547.547,0,0,0,.547.548h8.7a.445.445,0,0,0,.445-.445v-1.7a.445.445,0,0,0-.445-.445h-1.9V260.857a1.153,1.153,0,0,0-.979-1.14l-15.627-2.382.331-3.267,20.791-.6a.579.579,0,0,0,.563-.6ZM379.5,242.14a4.064,4.064,0,0,1-.1-.822l.49-.169,6.859-2.358a4.079,4.079,0,0,1-2.36,6.427,4.077,4.077,0,0,1-4.887-3.078Z" transform="translate(-375.889 -235.388)" fill="#fff"/></g></g><path d="M.546,0h4.03l.806-4.628H8.71L9.49,0h3.952L9.386-21.06H4.628ZM5.772-7.28,7.02-15.756,8.294-7.28ZM17.524-5.486h3.562V-8.034c2.834-2.184,4.55-4.784,4.55-7.982,0-3.38-1.95-5.3-5.408-5.3-3.38,0-5.278,1.846-5.278,4.836a6.787,6.787,0,0,0,.39,2.262l3.562-.806a4.2,4.2,0,0,1-.26-1.4,1.413,1.413,0,0,1,1.508-1.534c1.066,0,1.638.676,1.638,2.028,0,2.782-1.872,5.226-4.264,7.124ZM17.394,0h3.848V-3.77H17.394Z" transform="translate(858 1570)" fill="#b99f6e" opacity="0.4"/><path d="M1.586,0H7.878c3.978,0,6.136-1.976,6.136-6.188,0-2.99-1.222-4.758-3.692-5.122,1.95-.338,3.068-1.742,3.068-4.29,0-4.446-2.808-5.46-6.448-5.46H1.586ZM5.85-12.558v-5.564h.806c2,0,2.99.7,2.99,2.626s-.52,2.938-2.7,2.938Zm0,9.542V-9.672H6.994c2.158,0,2.912,1.014,2.912,3.406,0,2.184-.676,3.25-2.834,3.25Zm12.636-2.47h3.562V-8.034c2.834-2.184,4.55-4.784,4.55-7.982,0-3.38-1.95-5.3-5.408-5.3-3.38,0-5.278,1.846-5.278,4.836a6.787,6.787,0,0,0,.39,2.262l3.562-.806a4.2,4.2,0,0,1-.26-1.4,1.413,1.413,0,0,1,1.508-1.534c1.066,0,1.638.676,1.638,2.028,0,2.782-1.872,5.226-4.264,7.124ZM18.356,0H22.2V-3.77H18.356Z" transform="translate(1021 1558)" fill="#897a7a" opacity="0.4"/><g transform="translate(368.064 171.483)"><path d="M911.656,1682.173a12.383,12.383,0,0,0-6.5,5c-2.782,4.067-27.492,69.308-27.492,69.308l7.705-.214,21.786-9.124Z" transform="translate(-311.494 -219.323)" fill="#4a98d4"/><path d="M1016.229,1628.836c6.909,4.349,15.971,11.566,22.882,15.911,10.753,6.762,12.943,14.613,15.18,26.564,3.932,20.362-3.025,38.963-8.479,58.369q-4.406,15.682-8.813,31.364l-72.984-.1L974.6,1642.767l15.908-10.5Z" transform="translate(-376.307 -179.288)" fill="#4a98d4"/><path d="M1073.686,1584.334l.918,7.838,7.709,1.792,13.742-7.339L1094,1578.01Z" transform="translate(-458.627 -141.138)" fill="#e2a775"/><g transform="translate(613.358 1444.105)"><path d="M1071.1,1612.843l9.048,2.349,12.712-6.141,2.586,4.761s-5.015,10.733-14.708,9.189-11.8-4.544-11.8-4.544Z" transform="translate(-1068.422 -1608.543)" fill="#fff"/><path d="M1079.092,1621.973c-9.793-1.565-12.045-4.625-12.136-4.755a.5.5,0,0,1-.059-.468l2.16-5.614a.521.521,0,0,1,.617-.314l8.861,2.3,12.539-6.057a.52.52,0,0,1,.682.216l2.584,4.76a.5.5,0,0,1,.013.453c-.051.106-5.069,10.6-14.616,9.564h0C1079.525,1622.036,1079.308,1622.007,1079.092,1621.973Zm11.987-13.779-12.265,5.925a.525.525,0,0,1-.36.035l-8.6-2.231-1.884,4.9c.66.657,3.411,2.891,11.287,4.148.2.032.4.059.594.08h0c8.055.872,12.688-7.291,13.449-8.755Z" transform="translate(-1066.864 -1607.014)" fill="#50bef1"/></g><g transform="translate(624.766 1450.622)"><path d="M1116.712,1641.375a.513.513,0,0,0,.287-.051.506.506,0,0,0,.234-.682l-3.644-7.217a.52.52,0,0,0-.693-.226.507.507,0,0,0-.232.682l3.643,7.217A.512.512,0,0,0,1116.712,1641.375Z" transform="translate(-1112.609 -1633.145)" fill="#50bef1"/></g><g transform="translate(622.124 1450.178)"><path d="M1102.476,1639.757a.519.519,0,0,0,.557-.379,63.976,63.976,0,0,1,2.191-7.191.5.5,0,0,0-.068-.71.531.531,0,0,0-.733.071c-.492.577-1.835,5.491-2.389,7.577a.5.5,0,0,0,.369.618A.463.463,0,0,0,1102.476,1639.757Z" transform="translate(-1102.017 -1631.363)" fill="#50bef1"/></g><path d="M1185.3,1790.03a.57.57,0,0,0,.16.041.558.558,0,0,0,.624-.468c.011-.085,3.55-19.981,8.991-34.488,5.342-14.244,10.277-16.591,10.326-16.613a.523.523,0,0,0,.271-.706.575.575,0,0,0-.742-.263c-.216.091-5.369,2.429-10.917,17.225-5.487,14.637-9.04,34.637-9.051,34.723A.532.532,0,0,0,1185.3,1790.03Z" transform="translate(-542.151 -260.841)" fill="#3874aa"/><path d="M1105.662,1667.928a16.146,16.146,0,0,0,3.48-.116,26.73,26.73,0,0,0,16.485-7.979.5.5,0,0,0-.061-.716.522.522,0,0,0-.727.062,26.182,26.182,0,0,1-15.818,7.624c-3.365.4-4.116-.061-4.232-.153a.518.518,0,0,0-1.013.142.836.836,0,0,0,.321.615A2.886,2.886,0,0,0,1105.662,1667.928Z" transform="translate(-481.213 -201.928)" fill="#339458"/><path d="M1019.777,1450.244s4.548,29.236,5.612,34.49,11.2,9.258,18.1,5.081,12.347-8.553,11.147-20.772a115.951,115.951,0,0,0-3.857-20.851Z" transform="translate(-418.163 -43.696)" fill="#e2a775"/><path d="M1136.631,1477.108c.817,3.06-1.688,6.393-5.593,7.446s-7.726-.577-8.539-3.634,1.7-6.4,5.592-7.449S1135.819,1474.044,1136.631,1477.108Z" transform="translate(-495.152 -62.429)" fill="#e2a775"/><path d="M1044.624,1398.824c-2.046-2.83-12.655-10.034-21.377-8.677-2.232.35-4.991.857-6.713,2.359a14.433,14.433,0,0,0-3.491,3.95s-.5-4.469.436-5.159a10.366,10.366,0,0,0-3.639,4.254c-.671,1.613-.312,2.554-.051,4.128a5.646,5.646,0,0,1-2.32-2.342c-.873,1.119-1.133,3.723-.9,5.086.407,2.351,1.711,5.521,3.792,6.9,1.624,1.073,4.81,1.339,6.767.994,1.587-.284,3.068-.811,4.631-1.151a15.769,15.769,0,0,1,7.987.152c4.011,1.216,6.489,4.668,8.217,8.374.457.983,2.535,5.8,2.535,5.8l2.825-.709s-2.164-8.511-1.938-9.95a2.3,2.3,0,0,1,.869-1.492,4.449,4.449,0,0,1,1.808-.232S1047.878,1403.324,1044.624,1398.824Z" transform="translate(-408.188)" fill="#69452e"/><path d="M1065.966,1508.028a.461.461,0,0,0,.358-.5.45.45,0,0,0-.505-.394l-8.715,1.072c.766-5.507,2-13.855,2.3-14.636a.447.447,0,0,0-.069-.575.459.459,0,0,0-.645.027c-.12.126-.484.514-2.574,15.649a.448.448,0,0,0,.126.376.454.454,0,0,0,.378.131l9.3-1.145A.385.385,0,0,0,1065.966,1508.028Z" transform="translate(-445.437 -77.237)" fill="#0d0002"/><path d="M1084.733,1494.657a1.905,1.905,0,0,0,1.472,2.168,1.737,1.737,0,0,0,2.017-1.514,1.9,1.9,0,0,0-1.481-2.161A1.737,1.737,0,0,0,1084.733,1494.657Z" transform="translate(-466.904 -77.42)" fill="#0d0002"/><path d="M1044.481,1504.387a1.907,1.907,0,0,0,1.471,2.168,1.736,1.736,0,0,0,2.017-1.514,1.905,1.905,0,0,0-1.479-2.165A1.738,1.738,0,0,0,1044.481,1504.387Z" transform="translate(-436.69 -84.722)" fill="#0d0002"/><path d="M1111.952,1508.682a2.194,2.194,0,0,0,2.672,1.622,2.248,2.248,0,0,0,1.676-2.673,2.2,2.2,0,0,0-2.674-1.626A2.244,2.244,0,0,0,1111.952,1508.682Z" transform="translate(-487.307 -87.043)" fill="#e9706e"/><path d="M1115.291,1510.136a.426.426,0,0,0,.262-.179c.276-.4,1.143-1.743.77-2.245a.706.706,0,0,0-.487-.273c-.527-.063-1.208.37-2.065,1.04-.054.045-.1.081-.134.1s-.061.046-.09.067c.012-.027.026-.056.038-.087.03-.066.063-.141.1-.223.18-.416.541-1.292.923-1.361a.439.439,0,0,0,.34-.5.423.423,0,0,0-.5-.33c-.811.176-1.258,1.192-1.548,1.871l-.09.209c-.239.532-.461,1.126-.069,1.433s.933-.045,1.406-.4c.035-.026.087-.067.152-.118a6.58,6.58,0,0,1,1.18-.79,9.16,9.16,0,0,1-.624,1.135.42.42,0,0,0,.44.649Z" transform="translate(-487.778 -87.191)" fill="#e55a65"/><path d="M1052.458,1418.708c-.246-.157-.491-.311-.732-.461l-.038-.024a.489.489,0,0,1-.148-.681.505.505,0,0,1,.689-.157l.037.024c.244.154.49.309.738.467a.491.491,0,0,1,.143.682.509.509,0,0,1-.312.214A.488.488,0,0,1,1052.458,1418.708Zm-3.178-2.116c-.331-.261-.627-.515-.9-.778a.492.492,0,0,1-.007-.7.5.5,0,0,1,.7-.017,10.494,10.494,0,0,0,.827.713.489.489,0,0,1,.077.693.5.5,0,0,1-.7.086Zm-2.692-3.186c-.061-.12-.12-.244-.177-.372-.109-.242-.208-.489-.294-.731a.5.5,0,0,1,.941-.34c.077.22.166.443.264.662.051.113.1.225.157.332a.5.5,0,0,1-.223.665.481.481,0,0,1-.118.042A.49.49,0,0,1,1046.588,1413.405Zm-.426-3.6a.488.488,0,0,1-.365-.592,2.784,2.784,0,0,1,.649-1.229.5.5,0,0,1,.7-.036.491.491,0,0,1,.028.7,1.751,1.751,0,0,0-.414.791.5.5,0,0,1-.6.37Z" transform="translate(-437.682 -13.394)" fill="#ab6d39"/><path d="M1099.03,1433.89c-.206-.324-.415-.632-.624-.914a.5.5,0,0,1,.807-.587c.222.3.443.625.66.969a.5.5,0,0,1-.159.683.574.574,0,0,1-.16.067A.492.492,0,0,1,1099.03,1433.89Zm-2.473-2.92a9.72,9.72,0,0,0-.872-.652.487.487,0,0,1-.131-.684.5.5,0,0,1,.692-.14,10.96,10.96,0,0,1,.958.717.5.5,0,0,1-.647.759Zm-3.326-1.858c-.337-.119-.7-.23-1.061-.33a.485.485,0,0,1-.341-.606.5.5,0,0,1,.615-.345c.39.105.772.224,1.132.351a.487.487,0,0,1,.294.63.508.508,0,0,1-.364.317A.494.494,0,0,1,1093.231,1429.112Z" transform="translate(-472.23 -28.399)" fill="#ab6d39"/><path d="M1127.361,1424.432a.49.49,0,0,1-.567-.407c-.021-.149-.048-.3-.08-.444-.043-.2-.1-.4-.157-.6a.5.5,0,0,1,.954-.295c.068.226.128.453.176.677q.054.251.09.5a.5.5,0,0,1-.388.56A.193.193,0,0,1,1127.361,1424.432Zm-1.948-3.919c-.187-.3-.394-.609-.617-.916a.5.5,0,0,1,.809-.585c.237.325.459.654.658.977a.5.5,0,0,1-.169.681.516.516,0,0,1-.152.062A.49.49,0,0,1,1125.412,1420.513Zm-2.421-3.035c-.257-.263-.527-.526-.8-.78a.49.49,0,0,1-.018-.7.5.5,0,0,1,.7-.029c.284.264.565.539.833.815a.489.489,0,0,1-.016.7.5.5,0,0,1-.7-.007Z" transform="translate(-494.92 -19.413)" fill="#ab6d39"/><path d="M1106.338,1586.912l.027-.007a33.942,33.942,0,0,0,5.772-2.605c3.849-2.062,5.867-8.362,5.952-8.63a.446.446,0,0,0-.3-.563.464.464,0,0,0-.573.3c-.019.061-1.989,6.209-5.5,8.092a33.9,33.9,0,0,1-5.593,2.531.46.46,0,0,0-.315.565A.451.451,0,0,0,1106.338,1586.912Z" transform="translate(-482.721 -138.944)" fill="#cb6362"/><path d="M1049.331,1740.1a9.127,9.127,0,0,0-1.38-2.374,19.731,19.731,0,0,0-6.109-4.46,71.15,71.15,0,0,0-10.879-4.968c-.869-.276-2.052-.907-2.772-.188-.461.461-.745,1.359-1.191,1.9a13.048,13.048,0,0,0-1.937,2.514c-.6,1.259-.091,1.993.535,3.132,2.16,3.931,5.944,7.2,9.309,10.074a35.045,35.045,0,0,0,5.043,3.663c4,2.309,8.254-.235,9.818-4.29A7.238,7.238,0,0,0,1049.331,1740.1Z" transform="translate(-421.929 -253.559)" fill="#efe1de"/><path d="M988.987,1704.908c-.153-.209-.3-.421-.44-.633-.4-.6-.663-1.323-1.079-1.908-.526-.739-1.411-1.236-1.737-2.144.675-.279,1.393.209,2.011.46-.123-.783-1.354-2.007-.547-2.741a12.824,12.824,0,0,0,2.213,1.745c.066-.783-.519-2.2.183-2.764.826.708,1.276,1.821,2.114,2.5.428-.513.892-2.713,1.849-1.7.747.79.207,2.574.8,3.5.409.641,1.46.906,2.112,1.266,1.372.757,3.306,1.645,3.995,3.16.868,1.912-2.6,6.209-4.691,5.1a13.988,13.988,0,0,1-2.531-1.977c-.557-.488-.85-1.212-1.425-1.663-.38-.3-.907-.41-1.31-.674A5.992,5.992,0,0,1,988.987,1704.908Z" transform="translate(-392.608 -230.394)" fill="#f0c0ae"/><g transform="translate(600.606 1475.884)"><path d="M1061.359,1788.293a47.515,47.515,0,0,0,.725-12.38c-.221-6.036-.438-12.43-3.319-17.866-2.207-4.166-5.486-7.684-10.474-7.453l-9.384.433q-1.8.91-3.607,1.818c-1.328.67-2.087,3.733-2.562,4.974a53.21,53.21,0,0,0-2.416,7.748c-.664,3.073,1.094,6.851-1.464,9.377-1.707,1.685-4.807,1.5-6.9,2.61-3.342,1.779-6.346,6.089-6.224,9.971.237,7.493,10.24,7.1,15.239,8.91,2.537.921,4.994,1.987,7.526,2.929,2.317.862,4.468,2.291,7.042,1.8a30.747,30.747,0,0,0,9.288-3.38C1058.557,1795.641,1060.442,1792.179,1061.359,1788.293Z" transform="translate(-1015.733 -1746.557)" fill="#efe1de"/><path d="M1084.041,1737.779a7.847,7.847,0,0,1,1.139-1.944c1.367-1.654,2.837-1.494,4.782-1.23a71.438,71.438,0,0,1,9.454,1.731c2.194.609,4.312.534,4.76,3.027a22.577,22.577,0,0,1-.227,6.012,7.4,7.4,0,0,1-2.594,5.491,10.974,10.974,0,0,1-6.359,2.553c-4.635.651-9.9.443-12.337-4.164C1080.861,1745.852,1082.675,1741,1084.041,1737.779Z" transform="translate(-1065.403 -1734.439)" fill="#9381ba"/></g><path d="M1105.407,1650.3s12.719-15.339,27.544-1.168c12.565,12.016-3.49,26.384-2.8,25.465Z" transform="translate(-482.437 -190.011)" fill="#aa593b"/><path d="M1110.282,1682.859a16.409,16.409,0,0,1-22.834,3.69,16.107,16.107,0,1,1,22.834-3.69Z" transform="translate(-463.598 -200.563)" fill="#f0c0ae"/><path d="M1190.79,1748.769a5.234,5.234,0,1,1-1.273-7.281A5.2,5.2,0,0,1,1190.79,1748.769Z" transform="translate(-539.369 -263.136)" fill="#f0c0ae"/><path d="M1147.6,1729.282a2.152,2.152,0,0,1-2.459,1.577,1.879,1.879,0,0,1-1.38-2.387,2.16,2.16,0,0,1,2.46-1.574A1.886,1.886,0,0,1,1147.6,1729.282Z" transform="translate(-511.168 -252.863)" fill="#0d0002"/><path d="M1161.557,1647.543a9.017,9.017,0,0,0-.78-.576c-1.471-.964-4.5-2.268-6.159-1.169-1.352.9-1.073,2.731-.987,4.131.217,3.58,1.161,8.565,4.443,10.669a24.985,24.985,0,0,1-.006-3.727c1.428,2.144,2.7,4.587,4.293,6.66.936,1.215,5.253,5.813,7.148,4.06.515-.478-.82-2.459-.734-3.126C1169.522,1658.7,1165.985,1651.2,1161.557,1647.543Z" transform="translate(-518.573 -191.706)" fill="#aa593b"/><path d="M1107.327,1702.766a2.154,2.154,0,0,1-2.458,1.577,1.881,1.881,0,0,1-1.382-2.388,2.158,2.158,0,0,1,2.462-1.572A1.883,1.883,0,0,1,1107.327,1702.766Z" transform="translate(-480.941 -232.961)" fill="#0d0002"/><path d="M1155.3,1744.94a2.927,2.927,0,1,0,3.715-1.837A2.912,2.912,0,0,0,1155.3,1744.94Z" transform="translate(-519.767 -264.943)" fill="#ec8d9a"/><path d="M1104.481,1734.882l8.8,5.026s-4.125,4.78-7.852,1.862C1102.894,1739.787,1104.481,1734.882,1104.481,1734.882Z" transform="translate(-481.374 -258.887)" fill="#c1143a"/><path d="M1117.232,1728.616a.648.648,0,0,0,.52-.546c.029-.21.1-.318.135-.337s.141-.022.362.093a.647.647,0,0,0,.6-1.148,1.625,1.625,0,0,0-1.554-.094,1.65,1.65,0,0,0-.823,1.307.647.647,0,0,0,.551.731A.655.655,0,0,0,1117.232,1728.616Z" transform="translate(-490.736 -252.543)" fill="#0d0002"/><path d="M1185.153,1670.549c-.307-.415-.6-.834-.872-1.249a.375.375,0,0,1,.629-.411c.264.4.548.81.847,1.212a.376.376,0,0,1-.078.525.372.372,0,0,1-.525-.077Zm-2.031-3.218c-.08-.156-.161-.314-.241-.474-.146-.293-.29-.59-.429-.887a.375.375,0,1,1,.678-.319c.139.293.28.585.423.872.076.156.154.309.232.46a.374.374,0,0,1-.157.506.385.385,0,0,1-.1.037A.378.378,0,0,1,1183.122,1667.331Zm-1.576-3.446c-.192-.481-.369-.961-.527-1.425a.376.376,0,0,1,.235-.476.372.372,0,0,1,.475.235c.154.452.326.92.514,1.388a.376.376,0,0,1-.21.487.464.464,0,0,1-.069.021A.377.377,0,0,1,1181.547,1663.885Zm-.628-3.362a.373.373,0,0,1-.4-.346c-.031-.431-.036-.86-.04-1.314v-.208a.375.375,0,1,1,.75-.009l0,.211c0,.442.009.859.037,1.266a.377.377,0,0,1-.3.4A.181.181,0,0,1,1180.919,1660.523Z" transform="translate(-538.785 -201.385)" fill="#b66f50"/><path d="M1207.364,1686.182a.376.376,0,0,1-.383-.369c-.006-.481-.037-.972-.09-1.463a.374.374,0,1,1,.744-.082c.056.513.089,1.028.1,1.533a.375.375,0,0,1-.3.374A.317.317,0,0,1,1207.364,1686.182Zm-.857-4c-.115-.469-.25-.944-.4-1.413a.375.375,0,1,1,.712-.234c.16.488.3.983.42,1.471a.376.376,0,0,1-.276.453l-.019,0A.374.374,0,0,1,1206.507,1682.184Zm-1.208-3.471c-.2-.444-.423-.887-.657-1.318a.375.375,0,1,1,.658-.359c.244.447.472.907.681,1.367a.373.373,0,0,1-.186.5.48.48,0,0,1-.085.028A.376.376,0,0,1,1205.3,1678.713Zm-1.808-3.206c-.278-.406-.571-.808-.873-1.189a.376.376,0,1,1,.59-.465c.311.4.614.812.9,1.23a.377.377,0,0,1-.1.522.359.359,0,0,1-.141.058A.374.374,0,0,1,1203.491,1675.507Z" transform="translate(-555.344 -212.971)" fill="#b66f50"/><path d="M1020.227,1874.276c-.686-3.532-3.221-5.371-6.472-6.448a13.233,13.233,0,0,0-8.831-.179c-1.985.751-3.569,1.777-3.9,3.984a9.126,9.126,0,0,0,1.707,6.925c1.754,2.056,4.313,2.9,6.664,3.992a26.919,26.919,0,0,0,3.95,1.724,24.421,24.421,0,0,1,3.776,1.355c1.331.642,2.42,1.439,3.917.753,2-.914,2.746-2.913,2.839-4.97.081-1.855-1.038-2.518-2.277-3.8C1020.559,1876.546,1020.507,1875.721,1020.227,1874.276Z" transform="translate(-404.008 -358.032)" fill="#f0c0ae"/><path d="M1043.469,1889.184a.39.39,0,0,0,.343-.609c-.214-.309-5.288-7.577-9.183-7.81a.389.389,0,0,0-.047.776c3.521.21,8.541,7.4,8.591,7.476A.385.385,0,0,0,1043.469,1889.184Z" transform="translate(-429.001 -368.387)" fill="#cb6362"/><path d="M1040.313,1930.207a4.3,4.3,0,0,1,.3-2.112c.622-1.609,2.547-3.166,1.908-5.05-.477-1.409-2.7-1.908-2.689-3.573.012-1.824,3.414-2.648,4.53-3.516s2.373-4.222,4.071-3.7c.742.227.933,1.306,1.369,1.859a12.378,12.378,0,0,0,1.944,1.8c4.686,3.81,2.424,7.481-1.109,11.154-1.753,1.821-4.232,5.231-6.914,5.429C1041.663,1932.65,1040.512,1931.648,1040.313,1930.207Z" transform="translate(-433.216 -391.984)" fill="#7c72b1"/><path d="M1139.856,1877.532a.285.285,0,0,0,.25-.448c-1.887-2.67-7.6-3.351-10.328-1.89a.285.285,0,1,0,.269.5c2.512-1.344,7.9-.684,9.595,1.717A.285.285,0,0,0,1139.856,1877.532Z" transform="translate(-500.617 -363.64)" fill="#b3a8a4"/><path d="M1068.152,1897.856c1.472.581,3.218,1.033,4.094-.325a26.343,26.343,0,0,1,2.495-2.7c.223-.259,2.438-3.224,2.178-3.4a6.53,6.53,0,0,0,4.984,1.224c7.812-1.195,3.553-11.191.144-14.665-1.758-1.793-3.922-3.172-6.514-2.591-3.215.723-4.682,3.92-6.441,6.363a28.306,28.306,0,0,0-2.458,4.086c-.47.967-.62,2.064-1.038,3.051a9.907,9.907,0,0,1-2.32,3.512c-1.914,1.906,2.087,4.285,3.527,4.878C1067.192,1897.45,1067.656,1897.66,1068.152,1897.856Z" transform="translate(-450.431 -364.261)" fill="#f0c0ae"/><path d="M1023.2,1910.9a.415.415,0,0,1-.4-.246l-1.45-3.274a.414.414,0,0,1,.757-.335l1.449,3.274a.413.413,0,0,1-.21.545A.406.406,0,0,1,1023.2,1910.9Z" transform="translate(-419.311 -387.929)" fill="#cb6362"/><path d="M1008.823,1719.559a.311.311,0,0,0,.131-.074.314.314,0,0,0,.012-.445,3.212,3.212,0,0,1-.625-1.755.42.42,0,0,1,.089-.282.191.191,0,0,1,.165-.05c.2.026.647.252,1.48,1.485a.314.314,0,0,0,.521-.352c-.761-1.128-1.371-1.687-1.92-1.758a.817.817,0,0,0-.661.2.984.984,0,0,0-.3.726,3.835,3.835,0,0,0,.8,2.217A.315.315,0,0,0,1008.823,1719.559Z" transform="translate(-409.105 -244.955)" fill="#ec7a5f"/><path d="M957.9,1946.162c4.468,1.187,8.792,3.263,13.36,3.213a15.583,15.583,0,0,0,5.05-.888,22.123,22.123,0,0,1,3.341-1.335c2.35-.421,2.157,2.2.878,3.446a12.358,12.358,0,0,1-6.616,3.395c1.628.758,9.935,3.461,8.162,6.17-1.67,2.557-5.529-.179-7.507.048-.038,1,.424,2.154.016,3.1-.8,1.859-2.112.358-3.49.286-.26.953-.744,3.283-1.982,3.484-.886.144-2.238-1.1-3.159-1.4a5.279,5.279,0,0,1-2.076,1.422,4.264,4.264,0,0,1-2.377-1.195c-1.727-1.345-3.542-2.569-5.284-3.932-1.707-1.338-3.506-2.574-5.106-4.013a9.158,9.158,0,0,0-4.3-2.175c-.926-.186-1.951-.065-2.891-.18-.978-.12-3.607-.065-4.426-.776-.668-.581-.36-1.9-.4-2.749-.058-1.3-.75-3.977-.125-5.188.83-1.608,6.187-1.016,7.872-1.175,1.663-.158,3.347-.279,5.024-.347A20.209,20.209,0,0,1,957.9,1946.162Z" transform="translate(-357.311 -416.874)" fill="#e2a775"/><g transform="translate(572.68 1517.425)"><g transform="translate(0 0)"><path d="M967.278,1927.2l5.971-10.934s-26.695-12.28-33.536-13.445c-7.432-1.263-8.473-.856-15.843-1.626a46.6,46.6,0,0,0-14.258.971c-1.573.329-5.348.665-5.8,2.691-.476,2.132,2.374,2.266,2.518,4.147.075.989-1.655,1.74-1.567,2.935.113,1.558,2.118,1.416,2.467,2.652s-1.9,2.25-.912,3.606c.391.538,2.56.726,3.226.874-.355,2.345-.231,3.626,1.933,4.383s4.629.653,6.746,1.507c.656-2.3-2.119-3.7-3.833-4.187-.038-.75-.079-1.554-.114-2.24,2.69-1.063,6.143-.012,9.025-.493a53.416,53.416,0,0,0,7.189-1.962c4.047-1.28,6.88-2.695,11.214-1.616,2.933.73,5.374,2.557,8.059,3.874C955.647,1921.224,961.567,1923.978,967.278,1927.2Z" transform="translate(-903.759 -1901.004)" fill="#edbf98"/></g></g><path d="M890.173,1913.931a.431.431,0,0,0,.045.014c.985.237,3.174-1.029,3.675-1.39.259-.186.423-.348.442-.579a.458.458,0,0,0-.86-.252,7.389,7.389,0,0,1-3.044,1.332.457.457,0,0,0-.258.875Z" transform="translate(-320.652 -391.444)" fill="#cb6362"/><path d="M896.766,1933.816a.456.456,0,0,0,.352-.021,12.1,12.1,0,0,0,3.6-2.963.457.457,0,1,0-.775-.483,11.584,11.584,0,0,1-3.223,2.623.457.457,0,0,0,.048.842Z" transform="translate(-325.6 -405.445)" fill="#cb6362"/><path d="M905.293,1952.775a.458.458,0,0,0,.55-.208,7.526,7.526,0,0,1,1.172-1.3c.693-.664,1.04-1,.945-1.4a.546.546,0,0,0-.373-.39.458.458,0,0,0-.573.3.469.469,0,0,0-.013.211c-.138.161-.408.42-.618.621a7.787,7.787,0,0,0-1.338,1.507.458.458,0,0,0,.175.623A.583.583,0,0,0,905.293,1952.775Z" transform="translate(-332 -419.951)" fill="#cb6362"/><path d="M1074.835,1934a7.274,7.274,0,0,1-3.235,3.476,13.994,13.994,0,0,1-4.042,1.063,9.113,9.113,0,0,1-6.765-1.332c-1.682-1.03-3.423-1.974-5.13-2.962-4.164-2.408-9-3.612-13.15-6.041-3.029-1.773-6.058-3.551-9.062-5.367-.686-.413-8.246-3.359-8.487-4.218-.181-.644,5.959-13.06,5.959-13.06.2.067,4.977,1.842,5.173,1.908l26.294,8.956a16.333,16.333,0,0,0,3.69,1.088,10.876,10.876,0,0,1,3.517.86,17.246,17.246,0,0,1,5.98,4.567C1077.817,1925.555,1076.191,1931.294,1074.835,1934Z" transform="translate(-422.053 -387.002)" fill="#4a98d4"/><g transform="translate(604.834 1474.544)"><path d="M1071.577,1777a6.749,6.749,0,0,0-8.955,4.268,7.737,7.737,0,0,0,5.008,9.223,6.75,6.75,0,0,0,8.952-4.268A7.735,7.735,0,0,0,1071.577,1777Zm-2.949,10.079a3.824,3.824,0,0,1-2.474-4.557,3.334,3.334,0,0,1,4.425-2.109,3.819,3.819,0,0,1,2.47,4.557A3.333,3.333,0,0,1,1068.628,1787.083Z" transform="translate(-1054.95 -1764.716)" fill="#38b1bf"/><g transform="translate(0 0)"><path d="M1056.07,1746.305c1.8,3.186.228,7.17-3.494,8.905s-8.193.57-9.987-2.609-.229-7.165,3.495-8.9S1054.281,1743.129,1056.07,1746.305Z" transform="translate(-1039.563 -1739.445)" fill="#4eb6bf"/><g transform="translate(8.831)"><path d="M1073.04,1731.191c-.051,1.2-1.386,5.668-2.749,5.7s-2.239-4.385-2.191-5.587a2.529,2.529,0,0,1,2.561-2.237A2.167,2.167,0,0,1,1073.04,1731.191Z" transform="translate(-1068.098 -1729.065)" fill="#4eb6bf"/></g><g transform="translate(0 4.356)"><path d="M1035.6,1746.8c1.1.62,4.777,3.959,4.347,5.212s-4.812-.053-5.9-.673a2.923,2.923,0,0,1-1.2-3.392A1.875,1.875,0,0,1,1035.6,1746.8Z" transform="translate(-1032.688 -1746.533)" fill="#4eb6bf"/></g><path d="M1069.37,1767.922c.675,1.229-.392,3-2.382,3.966s-4.153.745-4.825-.483.395-3,2.386-3.964S1068.7,1766.695,1069.37,1767.922Z" transform="translate(-1054.661 -1757.42)" fill="#fff"/><path d="M1054.1,1766.026a.912.912,0,0,1-.365,1.287,1.038,1.038,0,0,1-1.332-.465.915.915,0,0,1,.367-1.288A1.028,1.028,0,0,1,1054.1,1766.026Z" transform="translate(-1047.393 -1756.389)" fill="#42373b"/><path d="M1078.787,1754.1a.916.916,0,0,1-.366,1.285,1.038,1.038,0,0,1-1.33-.465.912.912,0,0,1,.369-1.287A1.029,1.029,0,0,1,1078.787,1754.1Z" transform="translate(-1065.921 -1747.436)" fill="#42373b"/><path d="M1073.917,1776.216a.357.357,0,0,0,.118.07.3.3,0,0,0,.4-.192l.294-1.03,1.066.372a.3.3,0,0,0,.4-.192.342.342,0,0,0-.224-.407l-1.375-.479a.316.316,0,0,0-.245.011.288.288,0,0,0-.151.18l-.381,1.329A.336.336,0,0,0,1073.917,1776.216Z" transform="translate(-1063.546 -1763.047)" fill="#42373b"/><path d="M1073.363,1771.652c.172.3-.174.789-.772,1.078s-1.219.271-1.388-.04.177-.789.774-1.076S1073.192,1771.339,1073.363,1771.652Z" transform="translate(-1061.566 -1760.846)" fill="#42373b"/></g></g><path d="M1084.76,1816.542c2.128,3.525,7.945,1.01,8.72-2.835a2.534,2.534,0,0,0-.206-2.242c-.175-.295-1.917-1.967-2.258-1.559-.7.836.151,1.4.281,2.3a9.014,9.014,0,0,0-2.867-1.637c-.559-.141-.609-.9-1.112.034a.862.862,0,0,0,.494,1.362c-1.718-.948-2.836-.537-1.494,1.267-1.556-1.461-1.677.315-.69,1.367-1.262-1.077-1.652-.3-1.394.668A4.9,4.9,0,0,0,1084.76,1816.542Z" transform="translate(-466.488 -315.153)" fill="#f0c0ae"/><path d="M1116.29,1842.963a11.267,11.267,0,0,0,1.842-.147,13.813,13.813,0,0,0,8.647-4.968.337.337,0,1,0-.538-.407,13.315,13.315,0,0,1-8.22,4.71,12.712,12.712,0,0,1-6.253-.678,11.146,11.146,0,0,1-2.87-1.716c-.476-.354-.969-.72-1.491-1.043a.337.337,0,0,0-.355.574c.5.308.978.666,1.444,1.011a11.8,11.8,0,0,0,3.045,1.81A14.157,14.157,0,0,0,1116.29,1842.963Z" transform="translate(-483.552 -335.768)" fill="#b3a8a4"/><path d="M1126.623,1822.118a.331.331,0,0,0,.236-.1.338.338,0,0,0,.006-.477c-.908-.929-3.452-1.18-4.542-1.156a.338.338,0,0,0,.015.675c1.277-.03,3.394.288,4.044.953A.336.336,0,0,0,1126.623,1822.118Z" transform="translate(-494.887 -323.068)" fill="#b3a8a4"/><path d="M1138.475,1804.477a.34.34,0,0,0,.187-.057,30.136,30.136,0,0,0,3.2-2.574,24.5,24.5,0,0,1,5.31-3.854.337.337,0,0,0-.3-.6,25.026,25.026,0,0,0-5.453,3.95,29.437,29.437,0,0,1-3.13,2.519.337.337,0,0,0,.188.618Z" transform="translate(-507.005 -305.779)" fill="#b3a8a4"/><path d="M1091.982,1943.346c-4.62,0-11.659-2.425-21.01-7.243-8.8-4.533-16.518-9.62-16.595-9.671a.718.718,0,1,1,.792-1.2c.076.051,7.744,5.1,16.471,9.6,11.4,5.872,19.379,8.163,23.089,6.623,9.178-3.81,20.079-30.676,20.189-30.947a.719.719,0,1,1,1.333.536c-.454,1.129-11.239,27.7-20.971,31.738A8.608,8.608,0,0,1,1091.982,1943.346Z" transform="translate(-443.891 -390.373)" fill="#3874aa"/><path d="M864.795,1790s8.988,3.7,13.736,15.969,6.2,56.553,6.2,56.553l-12.58.675Z" transform="translate(-301.832 -300.261)" fill="#e4a643"/><path d="M761.743,1868.467l-9.022-66.787.044-19.581L740.9,1771.993l-20.67.331L707.3,1782.9l3.023,56.627-4.444,29.547Z" transform="translate(-182.546 -286.743)" fill="#e4a643"/><path d="M734.443,1644.621c-1.884,1.684,2.978,2.711,4.008,2.587,2.591-.316,5.752-3.139,6.84-5.484,2.142-4.63-.7-13.106-5.048-15.524a9.813,9.813,0,0,0-7.564-1.03,2.983,2.983,0,0,0-1.564,4.4c-3.433-2.846-6.429.734-6.941,2.333-.606,1.887-.151,5.548,2.493,5.367-1.48.525-1.066,3.321-.564,4.464,1.369,3.1,5.34,3.552,8.221,3.141C734.343,1644.911,734.462,1644.6,734.443,1644.621Z" transform="translate(-196.102 -176.268)" fill="#c6654d"/><path d="M712.388,1520.419c2.419,10.464,13.667,19.389,13.667,19.389l21.454-1.634s8.862-9.4,8.017-18.741a54.84,54.84,0,0,0-1.464-8.982,17.793,17.793,0,0,0-3.738-7.662c-4.085-4.29-9.965-5.824-14.553-6.33a37.312,37.312,0,0,0-5.167-.182c-1.12.032-1.795.124-1.795.124l-.1.028-4.33,1.457a17.5,17.5,0,0,0-1.637,1C718.776,1501.522,709.372,1507.378,712.388,1520.419Z" transform="translate(-186.994 -79.771)" fill="#c6654d"/><path d="M736.04,1573.042a18.05,18.05,0,1,0,17.209-18.4A17.813,17.813,0,0,0,736.04,1573.042Z" transform="translate(-205.173 -123.586)" fill="#edbf98"/><path d="M701.583,1612.364a5.714,5.714,0,1,0,5.446-5.98A5.718,5.718,0,0,0,701.583,1612.364Z" transform="translate(-179.32 -162.431)" fill="#edbf98"/><path d="M756.886,1531.882a33,33,0,0,1,1.723,5.625c.214,1.1,1.045,3.684.293,4.647-1.266-1.5-1.894-3.508-3.351-4.909a47.4,47.4,0,0,0-6.195-5.15,10.307,10.307,0,0,0,1.071,3.488c-2.618-.919-5.233-3.238-7.263-5.069-1.571,2.865-4.943,5.012-7.458,6.873-2.2,1.634-5.48,4.2-8.184,4.817.842-2.375,2.341-4.552,2.479-7.17-1.594,2.139-2.366,4.956-4.021,7.169-1.456,1.949-2.655,3.811-4.736,5.013-2.21-3.907-4.007-7.488-3.416-12.3a20.459,20.459,0,0,1,4.551-9.786,16.78,16.78,0,0,1,8.457-5.272c1.064-.333,2.638-.117,3.623-.759a5.357,5.357,0,0,1,2.822-.861c5.122-.3,9.917,1.671,13.975,4.849C754.2,1525.384,755.5,1528.352,756.886,1531.882Z" transform="translate(-191.433 -96.248)" fill="#c6654d"/><path d="M833.843,1602.756a1.809,1.809,0,0,0,1.028,2.233,1.591,1.591,0,0,0,2.066-1.08,1.8,1.8,0,0,0-1.036-2.231A1.587,1.587,0,0,0,833.843,1602.756Z" transform="translate(-278.536 -158.831)" fill="#0d0608"/><path d="M781.8,1606.354a1.811,1.811,0,0,0,1.029,2.233,1.592,1.592,0,0,0,2.068-1.079,1.81,1.81,0,0,0-1.038-2.23A1.588,1.588,0,0,0,781.8,1606.354Z" transform="translate(-239.476 -161.532)" fill="#0d0608"/><path d="M813.469,1614.821a.43.43,0,0,0,.3-.154c.141-.172.3-.338.458-.5a2.594,2.594,0,0,0,1.012-2.135,17.222,17.222,0,0,0-1.369-3.531c-.317-.7-.613-1.356-.709-1.649a.425.425,0,0,0-.807.266c.11.335.4.984.743,1.733a20.177,20.177,0,0,1,1.3,3.264c.056.578-.243.915-.773,1.459-.17.171-.343.349-.508.55a.424.424,0,0,0,.356.693Z" transform="translate(-262.452 -162.572)" fill="#0d0608"/><path d="M714.574,1488.885l1.664,4.618c.223-.838.5-1.68.757-2.4a54.437,54.437,0,0,1,2.505-6.37c2.076-4.475,4.867-9.1,9.12-11.938,6.843-4.563,15.623-1.7,21.311,3.437a21.08,21.08,0,0,1,3.086,3.457,46.113,46.113,0,0,1,3.722,5.979c.3.581.584,1.183.867,1.805a38.984,38.984,0,0,0-1.369-7.592c-.952-1.276-4.248-6.694-9.592-9.7a23.88,23.88,0,0,0-6.378-2.363c-1.407-.326-4.256-.63-5.542.2a8.87,8.87,0,0,0,3.126-3.523.479.479,0,0,0,.109-.169c1.69-3.364,1.691-7.7-.435-10.656-2.057,1.906-3.571,5.518-4.391,8.14a11.867,11.867,0,0,0-.432,2.178,1.684,1.684,0,0,0-.018.324,37.631,37.631,0,0,1-.482,4.619,14.792,14.792,0,0,0-1.411-4.467,13.687,13.687,0,0,0-1.2-2.028c-2-2.808-9.484-6.121-9.484-6.121s-1.564-1.716.4,5.73a7.1,7.1,0,0,0,2.52,3.695,10.657,10.657,0,0,0,1.805,1.177,19.6,19.6,0,0,0,5.56,1.842c-5.812-.561-10.356,6.208-12.544,10.53A39.667,39.667,0,0,0,714.574,1488.885Z" transform="translate(-189.075 -47.81)" fill="#4c8fc4"/><path d="M776.795,1704.49l10.462-.214s-.666-.236-3.392-2.806-4.018-20.716-4.018-20.716h-3.372v.035l0-.035H773.1s-1.285,18.146-4.015,20.716l-2.731,2.57,9.8.449v.032l.32-.015.32.015Z" transform="translate(-227.942 -218.258)" fill="#edbf98"/><path d="M782.292,1543.136a.518.518,0,0,1,.02-.732,5.966,5.966,0,0,0,.718-.837.517.517,0,1,1,.838.6,6.948,6.948,0,0,1-.845.982.509.509,0,0,1-.319.14A.52.52,0,0,1,782.292,1543.136Zm2.4-3.415a.519.519,0,0,1-.252-.688c.1-.207.19-.41.277-.6l.22-.48a.517.517,0,1,1,.944.423l-.222.487c-.088.2-.181.4-.278.612a.523.523,0,0,1-.435.3A.505.505,0,0,1,784.691,1539.721Zm1.638-3.866a.517.517,0,0,1-.339-.647c.116-.38.218-.756.306-1.124a.518.518,0,1,1,1.008.238c-.092.389-.2.79-.326,1.191a.52.52,0,0,1-.648.342Zm.849-4.106a.515.515,0,0,1-.51-.525c0-.312,0-.625-.025-.931-.006-.071-.011-.14-.016-.213a.512.512,0,0,1,.469-.559l.011,0a.519.519,0,0,1,.551.471c.007.077.012.155.018.233.023.334.032.678.027,1.019a.519.519,0,0,1-.481.508A.205.205,0,0,1,787.178,1531.749Z" transform="translate(-239.799 -104.738)" fill="#e17632"/><path d="M743.3,1554.867a.52.52,0,0,1,.03-.732l.142-.139a.517.517,0,0,1,.745.717c-.061.063-.121.123-.186.181a.516.516,0,0,1-.315.138A.525.525,0,0,1,743.3,1554.867Zm1.732-2.67a.517.517,0,0,1-.362-.636c.1-.355.181-.719.263-1.08l.016-.065a.517.517,0,1,1,1.008.235l-.016.066c-.086.371-.174.748-.275,1.119a.519.519,0,0,1-.462.379A.537.537,0,0,1,745.036,1552.2Zm1.067-4.062a.516.516,0,0,1-.353-.641q.169-.581.347-1.16a.517.517,0,1,1,.987.307q-.175.569-.343,1.143a.515.515,0,0,1-.639.351Zm1.3-4a.524.524,0,0,1-.25-.684c.161-.369.323-.73.491-1.087a.517.517,0,0,1,.938.434c-.163.353-.323.708-.477,1.06-.006.011-.017.04-.023.05a.5.5,0,0,1-.418.277A.523.523,0,0,1,747.4,1544.132Zm1.806-3.781a.52.52,0,0,1-.2-.7q.3-.533.612-1.055a.518.518,0,1,1,.886.536c-.205.335-.4.677-.593,1.022a.514.514,0,0,1-.417.264A.5.5,0,0,1,749.211,1540.352Zm2.23-3.555a.521.521,0,0,1-.091-.728c.252-.323.514-.641.776-.948a.517.517,0,0,1,.785.675c-.252.294-.5.6-.743.908a.505.505,0,0,1-.373.2A.542.542,0,0,1,751.441,1536.8Z" transform="translate(-210.538 -108.811)" fill="#e17632"/><path d="M842.825,1554.323a10.581,10.581,0,0,0-.246-1.121.518.518,0,0,1,1-.27,12.006,12.006,0,0,1,.27,1.223.52.52,0,0,1-.428.6c-.016,0-.034,0-.048,0A.519.519,0,0,1,842.825,1554.323Zm-1.253-3.857c-.16-.349-.329-.705-.511-1.061a.517.517,0,1,1,.922-.469c.188.37.367.739.53,1.1a.517.517,0,0,1-.257.685.493.493,0,0,1-.178.046A.516.516,0,0,1,841.572,1550.466Zm-1.985-3.617c-.211-.334-.429-.661-.654-.986a.516.516,0,1,1,.849-.588c.233.334.46.672.677,1.015a.516.516,0,0,1-.4.794A.519.519,0,0,1,839.587,1546.849Zm-2.448-3.33c-.255-.3-.517-.6-.777-.885a.516.516,0,1,1,.76-.7c.272.293.542.6.808.916a.518.518,0,1,1-.791.668Zm-2.9-2.889c-.316-.254-.63-.479-.928-.675a.517.517,0,0,1,.56-.869c.327.213.669.459,1.015.734a.515.515,0,0,1,.081.726.5.5,0,0,1-.367.193A.516.516,0,0,1,834.238,1540.629Z" transform="translate(-278.021 -111.859)" fill="#e17632"/><path d="M757.421,1623.622a2.07,2.07,0,1,0,1.922-2.206A2.067,2.067,0,0,0,757.421,1623.622Z" transform="translate(-221.233 -173.714)" fill="#db6b69"/><path d="M856.5,1616.762a2.069,2.069,0,1,0,1.921-2.207A2.067,2.067,0,0,0,856.5,1616.762Z" transform="translate(-295.602 -168.565)" fill="#db6b69"/><path d="M760.668,1625.386a.393.393,0,0,0,.263-.124c.394-.422,1.288-1.459,1.023-1.954a.654.654,0,0,0-.4-.325c-.477-.145-1.169.154-2.057.645l-.123.067-.093.048c.017-.026.034-.052.051-.08.037-.056.079-.12.121-.192.223-.354.684-1.088,1.032-1.111h.024a.4.4,0,0,0-.041-.791c-.774.036-1.322.9-1.687,1.482l-.113.181c-.3.454-.585.968-.272,1.311s.858.108,1.344-.143l.138-.076a5.983,5.983,0,0,1,1.211-.555,8.3,8.3,0,0,1-.736.952.4.4,0,0,0,.017.561A.4.4,0,0,0,760.668,1625.386Z" transform="translate(-221.866 -173.833)" fill="#d55861"/><path d="M859.043,1618.579a.392.392,0,0,0,.26-.123c.31-.326,1.3-1.432,1.032-1.954a.659.659,0,0,0-.406-.327c-.479-.144-1.167.156-2.054.644l-.125.07c-.032.016-.064.03-.091.047l.048-.079.117-.186c.226-.358.689-1.1,1.048-1.119a.4.4,0,0,0-.03-.792c-.768.023-1.325.91-1.691,1.49l-.107.175c-.3.453-.587.966-.275,1.311s.858.108,1.344-.144l.146-.079a5.851,5.851,0,0,1,1.206-.552,8,8,0,0,1-.738.951.4.4,0,0,0,.316.668Z" transform="translate(-295.708 -168.722)" fill="#d55861"/><path d="M798.144,1694.577l4.261-.294a.517.517,0,1,0-.073-1.032l-4.259.294a.517.517,0,1,0,.071,1.032Z" transform="translate(-251.389 -227.638)" fill="#b35d55"/><path d="M645.607,2054.585c0,3.785-3.508,12.389-6.726,12.389s-5.83-3.066-5.83-6.849,2.612-6.854,5.83-6.854S645.607,2050.8,645.607,2054.585Z" transform="translate(-127.884 -497.277)" fill="#e2847c"/><path d="M944.188,2080.635c0,3.785-3.507,12.39-6.725,12.39s-5.83-3.067-5.83-6.85,2.611-6.854,5.83-6.854S944.188,2076.849,944.188,2080.635Z" transform="translate(-352.001 -516.831)" fill="#e2847c"/><path d="M664.491,1798.19s-3.528-.387-9.931,11.106-13.092,54.765-13.092,54.765l10.526,3.322Z" transform="translate(-134.201 -306.406)" fill="#e4a643"/><g transform="translate(462.678 1496.347)"><path d="M480.9,1823.344c-3.582-2.253-12.956-6.8-12.827-5.314,0,.192.085.545.064.654-1.564-.956-3.543-2.273-5.418-2.193-.517,1.054,3.833,3.32,4.577,3.933a7.765,7.765,0,0,0-1.78-.171c-.148.635.526.965.979,1.25,2.091,1.314,3.612,2.221,5.712,3.526,1.092.677,2.116,1.448,3.159,2.2.225.163,1.283.682,1.028,1.086-.221.344-1.421-.142-1.729-.264a7.967,7.967,0,0,1-2.066-1.289c-.9-.765-2.388-2.011-3.669-1.7-1.094.27-.154.825.45,1.308.75.595,1.538,1.109,2.251,1.741.561.5,1.018,1.246,1.609,1.668a20.359,20.359,0,0,0,3.689,1.567c1.5.624,3.007,1.133,4.445,1.893a14.489,14.489,0,0,1,2.753,1.406c.793.668,1.6,1.375,2.394,2.063a28.95,28.95,0,0,1,2.817,2.8c1.631,1.863,2.477,4.444,3.5,6.628,1.323-.893,3.213-.893,4.741-1.417a32.417,32.417,0,0,0-1.627-4.195,13.79,13.79,0,0,1-1.192-2.559,15.654,15.654,0,0,1-.84-3.049c-.029-.942.363-1.793.389-2.685a5.715,5.715,0,0,0-.838-2.345c-.39-.855-.8-1.689-1.167-2.566-.728-1.745-1.889-3.322-2.279-5.2-.14-.674-1-3.451-1.5-1.4-.419,1.728-.185,3.485-.493,5.183-.2,1.1-1.205.5-2.07.142A34.329,34.329,0,0,1,480.9,1823.344Z" transform="translate(-462.678 -1816.487)" fill="#edbf98"/><path d="M588.81,1943.1l-15.751-46.624,3.628-4.627,20.214,48Z" transform="translate(-545.531 -1873.052)" fill="#edbf98"/></g><path d="M493.8,1838.665a.508.508,0,0,1-.222-.052l-12.861-6.14a.518.518,0,0,1,.446-.934l12.861,6.142a.517.517,0,0,1-.224.984Z" transform="translate(-13.316 -331.401)" fill="#c06060"/><path d="M500.461,1832.836a.542.542,0,0,1-.222-.05l-12.861-6.139a.518.518,0,0,1,.445-.935l12.862,6.141a.513.513,0,0,1,.243.689A.519.519,0,0,1,500.461,1832.836Z" transform="translate(-18.319 -327.026)" fill="#c06060"/><path d="M887.836,1904.934a.58.58,0,0,1-.578-.534l-4.055-52.156a.579.579,0,1,1,1.155-.09l4.056,52.156a.579.579,0,0,1-.532.623Z" transform="translate(-315.648 -346.511)" fill="#d18700"/><path d="M924.31,2054.852c.718,3.307-1.4,9.885-6.029,9.464a7.812,7.812,0,0,1-6.314-4.208l-1.893-5.472,10.311-1.053Z" transform="translate(-335.819 -498.106)" fill="#e2847c"/><path d="M993.538,1773.572a.666.666,0,0,1-.666-.649l-.856-33.392a.666.666,0,0,1,.649-.683h.017a.667.667,0,0,1,.666.649l.856,33.392a.666.666,0,0,1-.649.683Z" transform="translate(-397.325 -261.863)" fill="#3874aa"/><path d="M811.868,1659.984c0,.787-.447,1.426-1,1.426s-1-.638-1-1.426.447-1.426,1-1.426S811.868,1659.2,811.868,1659.984Z" transform="translate(-260.607 -201.598)" fill="#b31938"/><path d="M1083.258,1579.781a.475.475,0,0,1-.473-.438c-.006-.081-.01-.163-.01-.246a2.943,2.943,0,1,1,5.885-.139.475.475,0,1,1-.949.041,1.994,1.994,0,1,0-3.986.1c0,.058,0,.116.007.173a.475.475,0,0,1-.437.51Z" transform="translate(-465.449 -139.666)" fill="#c1143a"/></g></g></svg>