<svg xmlns="http://www.w3.org/2000/svg" xmlns:xlink="http://www.w3.org/1999/xlink" width="45.22" height="37.837" viewBox="0 0 45.22 37.837">
  <defs>
    <clipPath id="clip-path">
      <rect id="長方形_29541" data-name="長方形 29541" width="18" height="7" transform="translate(13.609 61.512)" fill="#fff" stroke="#707070" stroke-width="1"/>
    </clipPath>
  </defs>
  <g id="ico-online" transform="translate(0 -41.797)">
    <path id="パス_76968" data-name="パス 76968" d="M43.117,41.8H2.1A2.11,2.11,0,0,0,0,43.9V71.453a2.11,2.11,0,0,0,2.1,2.1H15.561V77.62H12.82v2.013H32.4V77.62H29.659V73.556H43.117a2.11,2.11,0,0,0,2.1-2.1V43.9A2.11,2.11,0,0,0,43.117,41.8Zm-.632,28.185H2.734V44.532H42.484Z" fill="#fff"/>
    <circle id="楕円形_441" data-name="楕円形 441" cx="5" cy="5" r="5" transform="translate(17.609 49.512)" fill="#fff"/>
    <g id="マスクグループ_64" data-name="マスクグループ 64" clip-path="url(#clip-path)">
      <circle id="楕円形_442" data-name="楕円形 442" cx="9" cy="9" r="9" transform="translate(13.609 61.512)" fill="#fff"/>
    </g>
  </g>
</svg>
