<svg xmlns="http://www.w3.org/2000/svg" width="45.783" height="32.641" viewBox="0 0 45.783 32.641"><g transform="translate(-793.416 -178.779)"><rect width="34.853" height="21.906" transform="translate(793.416 189.513)" fill="#dfa249"/><path d="M1084.853,211.42l10.93-10.735V178.779l-10.93,10.735Z" transform="translate(-256.584)" fill="#c68b37"/><path d="M804.347,178.779H839.2l-10.93,10.735H793.416Z" fill="#ebae5a"/><path d="M827.592,215.049h34.853l2.756-2.707H830.348Z" transform="translate(-30.089 -29.55)" fill="#fdca77"/><path d="M1119.029,215.049v6.721l2.756-2.707v-6.721Z" transform="translate(-286.672 -29.55)" fill="#f0ab47"/><path d="M1119.029,375.271l2.756-2.707v-3.119l-2.756,2.707Z" transform="translate(-286.672 -167.865)" fill="#f0ab47"/><path d="M850.638,222.605l1.721-.042,1.721-.034,3.443-.068h18.325c2.3.048,4.591.085,6.886.142-2.3.058-4.591.094-6.886.142H857.524l-3.443-.068-1.721-.034Z" transform="translate(-50.379 -38.459)" fill="#e19a46"/></g></svg>