<svg xmlns="http://www.w3.org/2000/svg" width="76.603" height="70.559" viewBox="0 0 76.603 70.559"><g transform="translate(0 0)"><path d="M11.282.7l-.24.734-.185.732-.317.684-.227.717-.176.741-.366.662-.153.742-.353.673-.34.671L8.77,7.8l-.3.69-.153.742L7.95,9.9l-.164.743-.308.689-.277.7-.173.735-.342.677-.189.73-.318.683-.3.693L5.7,16.28l-.254.7-.311.692-.128.751-.316.694-.367.665-.095.762-.311.689-.24.713-.264.708-.276.7-.3.7-.294.7-.164.737-.255.71-.2.726-.24.717-.356.672-.183.736-.319.687-.283.7-.178.742L0,31.917l.812.092.757.056.75.125.738.148.736.156.763.035.7.327.749.111.745.123.758.042.721.24L9,33.379l.743.145.75.089.744.156.738.169.8.152.138-.8-.158-.767.208-.744-.081-.766.212-.743.055-.76-.05-.765.229-.735-.061-.763.21-.737.011-.76.072-.752-.044-.759.144-.75.15-.747-.052-.762-.008-.765.123-.752-.011-.755.1-.753.146-.746.041-.761.059-.753.064-.76.1-.752-.006-.758.074-.759.072-.753.156-.747.019-.763.084-.752.112-.755L14.8,9.129l.089-.762.062-.757.169-.746,0-.76.059-.76.108-.75-.1-.769.1-.762.1-.751.07-.76.23-.743,0-.807-.759.131L14.2.237l-.7.277L12.75.453l-.72.157Z" transform="translate(41.917 50.832) rotate(-146)" fill="#ffdd7f"/><path d="M24.154,0l-.6.453-.465.6-.653.4-.489.581-.522.54-.5.57-.641.415-.485.58-.552.5-.554.505-.57.488-.552.507-.517.549-.5.571-.633.423-.558.5-.526.538-.527.536-.572.488-.512.552-.631.423-.515.557-.536.528-.473.593-.551.517-.606.455-.517.55-.555.511-.575.482-.509.562L7.223,16l-.508.553-.6.452-.545.523-.581.485-.472.595-.567.5-.6.461-.559.511L2.25,20.6l-.534.533-.545.531-.6.471L0,22.7l.651.459.635.413.586.474.626.425.558.508.7.309.522.559.562.513.629.423.644.4.532.543.6.474.737.263.527.554.581.5.673.369.606.451.447-.609.318-.689.443-.623.336-.678.458-.61.361-.668.459-.6.4-.645.341-.677.377-.655.414-.632.448-.609.314-.7.475-.592.438-.623.349-.678.283-.716.5-.578.416-.631.363-.663.4-.644.43-.625.435-.624.409-.641.312-.7.418-.635.432-.624.45-.616.3-.707.414-.635.462-.605.468-.612.2-.763.5-.58.33-.686.527-.564.354-.677.369-.666.387-.652.342-.69.49-.584.306-.706.493-.59.44-.628.361-.692-.736-.141L26.974.784l-.759-.02L25.536.472l-.7-.224Z" transform="translate(59.64 70.559) rotate(-146)" fill="#ffdd7f"/><path d="M0,3.283.267,4l.238.707.208.725.24.714.291.692.288.695.224.717.252.71.193.723.393.656.065.77.305.693.314.683.344.676.158.743.285.7.1.756.329.681.19.728.268.7.211.73.385.656.174.731L6,20.3l.3.691.162.741.3.693.2.729.294.692.275.706.21.727.228.712.3.688.335.685.134.751.312.686.307.694.173.741.25.713.216.727.208.725.305.693.088.773.4.6.642-.273.63-.421.676-.336.641-.389.607-.46.73-.243.677-.332.638-.41.594-.479.715-.272.69-.318.613-.451.641-.4.72-.257.647-.4.669-.359.658-.436-.415-.667L21.3,26.97l-.514-.56-.452-.612-.294-.711-.465-.6-.348-.677-.408-.643-.553-.533-.367-.666-.361-.664-.45-.61-.556-.537-.29-.714-.473-.6-.419-.633-.467-.6-.366-.669-.449-.606-.41-.64-.532-.55-.41-.643-.387-.655-.337-.683-.428-.633-.519-.56-.336-.689-.48-.592-.4-.646-.463-.6L8.957,8.8l-.413-.635-.5-.577L7.718,6.9l-.509-.574-.394-.651-.352-.681L5.9,4.461,5.436,3.85l-.343-.684L4.7,2.517l-.467-.606-.4-.65L3.385.639,2.954,0,2.566.65l-.644.4L1.6,1.738l-.641.41-.426.606Z" transform="translate(18.387 40.976) rotate(-146)" fill="#ffdd7f"/></g></svg>