<svg xmlns="http://www.w3.org/2000/svg" width="17.94" height="17.611" viewBox="0 0 17.94 17.611"><g transform="matrix(-0.695, 0.719, -0.719, -0.695, 19.166, 12.095)"><path d="M6.155,1.131A1.132,1.132,0,0,1,5.024,2.263H1.131A1.132,1.132,0,0,1,1.131,0H5.024A1.131,1.131,0,0,1,6.155,1.131Z" transform="translate(0 8.488)" fill="#ffce00"/><path d="M5.173,2.19,1.533,3.571a1.132,1.132,0,1,1-.8-2.116L4.37.074a1.131,1.131,0,1,1,.8,2.116Z" transform="translate(1.765 15.595)" fill="#ffce00"/><path d="M4.369,3.571.73,2.19a1.131,1.131,0,1,1,.8-2.116L5.173,1.455a1.132,1.132,0,0,1-.8,2.116Z" transform="translate(1.765 0)" fill="#ffce00"/></g></svg>