<svg xmlns="http://www.w3.org/2000/svg" width="77.632" height="27.261" viewBox="0 0 77.632 27.261"><g transform="translate(278 -180.218)"><g transform="translate(-294 180.218)"><g transform="translate(16)"><path d="M36.765,17.677a4.788,4.788,0,0,0-3.854,1.947L25.39,15.78a4.792,4.792,0,0,0-.156-3.148L33.117,7.9a4.772,4.772,0,1,0-.82-1.371l-7.9,4.748a4.791,4.791,0,1,0,.294,5.943l7.5,3.833a4.792,4.792,0,1,0,4.577-3.371Zm0-16.08A3.195,3.195,0,1,1,33.57,4.792,3.2,3.2,0,0,1,36.765,1.6ZM20.792,17.624a3.195,3.195,0,1,1,3.195-3.195A3.2,3.2,0,0,1,20.792,17.624Zm15.973,8.04a3.195,3.195,0,1,1,3.195-3.195A3.2,3.2,0,0,1,36.765,25.663Z" transform="translate(-16)" fill="#b4b4b4"/></g></g><path d="M4.572.162A3.283,3.283,0,0,0,8.064-3.312,5.4,5.4,0,0,0,5.976-7.4L3.51-9.558a2.311,2.311,0,0,1-.954-1.98,1.443,1.443,0,0,1,1.6-1.6c1.512,0,1.836,1.224,1.944,2.664l1.728-.468C7.6-13.5,6.48-14.706,4.158-14.706A3.118,3.118,0,0,0,.738-11.34a3.835,3.835,0,0,0,1.4,3.222L4.59-5.958A3.5,3.5,0,0,1,6.174-3.15c0,1.116-.558,1.71-1.6,1.71C3.006-1.44,2.61-3.006,2.5-4.572L.7-4.086C.846-1.566,2.034.162,4.572.162ZM9.648,0h2.034V-6.822h3.744V0H17.46V-14.58H15.426v6.3H11.682v-6.3H9.648Zm9.306,0h1.908l.7-3.672h2.97L25.2,0h1.926L24.012-14.58H22.05Zm2.88-5.13L23.04-11.7l1.224,6.57ZM28.6,0h2.034V-6.84H32.22L34.128,0H36.09L34.02-7.308c1.3-.432,1.8-1.692,1.8-3.4,0-2.772-1.368-3.87-4.284-3.87H28.6Zm2.034-8.3v-4.824h.9c1.854,0,2.322.7,2.322,2.412,0,1.872-.738,2.412-2.448,2.412ZM37.944,0h5.688V-1.458H39.978V-6.8h2.934v-1.44H39.978v-4.824H43.6V-14.58H37.944Z" transform="translate(-244 201.479)" fill="#b4b4b4"/></g></svg>