<svg xmlns="http://www.w3.org/2000/svg" width="31.075" height="29.609" viewBox="0 0 31.075 29.609"><g transform="translate(0 0)"><path d="M408.134,269.514c0-6.952-6.97-12.609-15.537-12.609s-15.538,5.657-15.538,12.609c0,6.233,5.528,11.453,12.994,12.44.506.109,1.195.334,1.369.766a3.2,3.2,0,0,1,.05,1.405s-.182,1.1-.222,1.33c-.068.393-.312,1.536,1.346.838s8.948-5.269,12.208-9.021h0a11.218,11.218,0,0,0,3.33-7.758" transform="translate(-377.059 -256.905)" fill="#fff"/><g transform="translate(5.097 9.249)"><path d="M409.35,282.914h-1.09a.3.3,0,0,0-.3.3v6.77a.3.3,0,0,0,.3.3h1.09a.3.3,0,0,0,.3-.3v-6.77a.3.3,0,0,0-.3-.3" transform="translate(-402.066 -282.914)" fill="#00b900"/><path d="M421.842,282.914h-1.09a.3.3,0,0,0-.3.3v4.022l-3.1-4.19a.343.343,0,0,0-.023-.031l0,0L417.3,283l-.006,0-.016-.014-.008-.006-.016-.011-.009-.005-.016-.009-.01,0-.017-.007-.01,0-.018-.006-.011,0-.017,0-.013,0-.016,0h-1.116a.3.3,0,0,0-.3.3v6.77a.3.3,0,0,0,.3.3h1.09a.3.3,0,0,0,.3-.3v-4.021l3.106,4.2a.306.306,0,0,0,.077.075l0,0,.018.011.009,0,.014.007.015.006.009,0,.021.007h0a.309.309,0,0,0,.078.01h1.09a.3.3,0,0,0,.3-.3v-6.77a.3.3,0,0,0-.3-.3" transform="translate(-407.057 -282.914)" fill="#00b900"/><path d="M396.048,288.592h-2.961v-5.377a.3.3,0,0,0-.3-.3h-1.09a.3.3,0,0,0-.3.3v6.769h0a.3.3,0,0,0,.085.209l0,0,0,0a.3.3,0,0,0,.209.084h4.354a.3.3,0,0,0,.3-.3v-1.09a.3.3,0,0,0-.3-.3" transform="translate(-391.392 -282.913)" fill="#00b900"/><path d="M441.454,284.609a.3.3,0,0,0,.3-.3v-1.09a.3.3,0,0,0-.3-.3H437.1a.3.3,0,0,0-.21.085l0,0-.005.005a.3.3,0,0,0-.084.208h0v6.769h0a.3.3,0,0,0,.085.209l0,0,0,0a.3.3,0,0,0,.209.085h4.354a.3.3,0,0,0,.3-.3V288.9a.3.3,0,0,0-.3-.3h-2.961v-1.144h2.961a.3.3,0,0,0,.3-.3v-1.09a.3.3,0,0,0-.3-.3h-2.961v-1.144Z" transform="translate(-420.65 -282.914)" fill="#00b900"/></g></g></svg>