<svg xmlns="http://www.w3.org/2000/svg" width="34" height="27" viewBox="0 0 34 27"><g transform="translate(-141 -2518)"><rect width="34" height="27" transform="translate(141 2518)" fill="#fff"/><path d="M5.588-18.454c5.563,3.251,8.6,7.874,8.6,14.3,0,4.623-1.951,7.3-5.129,7.3A4.042,4.042,0,0,1,4.866-1.26a4,4,0,0,1,4.19-4.118,2.227,2.227,0,0,1,.722.072c-.072-4.623-2.1-7.3-6.068-10.042Zm14.159,0c5.563,3.251,8.6,7.874,8.6,14.3,0,4.623-1.878,7.3-5.057,7.3A4.06,4.06,0,0,1,19.025-1.26a4.016,4.016,0,0,1,4.262-4.118,2.458,2.458,0,0,1,.722.072c-.072-4.623-2.1-7.3-6.141-10.042Z" transform="translate(174.562 2523.753) rotate(180)" fill="#989898"/></g></svg>