<svg xmlns="http://www.w3.org/2000/svg" width="61.148" height="51.976" viewBox="0 0 61.148 51.976"><g transform="translate(-256.181 -1883.84)"><path d="M28.85,2.931a2,2,0,0,1,3.448,0L59.375,48.962a2,2,0,0,1-1.724,3.014H3.5a2,2,0,0,1-1.724-3.014Z" transform="translate(256.181 1883.84)" fill="#ed4c24"/><path d="M6.882-8.51a2.037,2.037,0,0,1-1.5-.611,2.325,2.325,0,0,1-.684-1.5L3.959-24.9a1.957,1.957,0,0,1,.555-1.48,1.907,1.907,0,0,1,1.443-.629h3.33a1.965,1.965,0,0,1,1.462.629,1.813,1.813,0,0,1,.536,1.48l-.7,14.282a2.107,2.107,0,0,1-.685,1.5,2.163,2.163,0,0,1-1.535.611Zm1.85,2.96a2.025,2.025,0,0,1,1.48.629,2.025,2.025,0,0,1,.629,1.48v1.332a2.025,2.025,0,0,1-.629,1.48A2.025,2.025,0,0,1,8.732,0H6.512a2.025,2.025,0,0,1-1.48-.629A2.025,2.025,0,0,1,4.4-2.109V-3.441a2.025,2.025,0,0,1,.629-1.48,2.025,2.025,0,0,1,1.48-.629Z" transform="translate(279.111 1929.955)" fill="#fff"/></g></svg>