<svg xmlns="http://www.w3.org/2000/svg" width="97.968" height="90.121" viewBox="0 0 97.968 90.121"><g transform="translate(-0.002 -0.5)"><path d="M9.09,47.875.064,115.348c-.542,4.05,2.5,7.335,6.8,7.335h61.07a8.923,8.923,0,0,0,8.764-7.335l9.027-67.473Zm0,0" transform="translate(0 -38.31)" fill="#c9b77d"/><path d="M136.348,121.074,124.231,47.867H47.6l12.117,73.207a9.543,9.543,0,0,0,8.985,7.85h61.262C134.206,128.925,137.065,125.41,136.348,121.074Zm0,0" transform="translate(-38.489 -38.304)" fill="#ffeead"/><path d="M124.231,47.867H47.6l3.156,19.065h76.633Zm0,0" transform="translate(-38.489 -38.304)" fill="#03a58e"/><path d="M403.083,208.754h-6.751l1.141,6.9h6.751Zm0,0" transform="translate(-320.495 -168.406)" fill="#ff6f69"/><g transform="translate(22.454 40.348)"><path d="M356.583,208.754h-6.751l1.141,6.9h6.751Zm0,0" transform="translate(-305.347 -208.754)" fill="#96ceb4"/><path d="M310.083,208.754h-6.751l1.141,6.9h6.752Zm0,0" transform="translate(-267.744 -208.754)" fill="#96ceb4"/><path d="M263.591,208.754H256.84l1.141,6.9h6.751Zm0,0" transform="translate(-230.148 -208.754)" fill="#96ceb4"/><path d="M217.091,208.754H210.34l1.141,6.9h6.751Zm0,0" transform="translate(-192.546 -208.754)" fill="#96ceb4"/><path d="M170.591,208.754H163.84l1.141,6.9h6.752Zm0,0" transform="translate(-154.943 -208.754)" fill="#96ceb4"/><path d="M124.095,208.754h-6.751l1.141,6.9h6.751Zm0,0" transform="translate(-117.344 -208.754)" fill="#96ceb4"/></g><path d="M410.764,255.176h-6.752l1.141,6.9h6.752Zm0,0" transform="translate(-326.705 -205.945)" fill="#ff6f69"/><path d="M364.27,255.176H357.52l1.141,6.9h6.751Zm0,0" transform="translate(-289.109 -205.945)" fill="#96ceb4"/><path d="M317.77,255.176H311.02l1.141,6.9h6.751Zm0,0" transform="translate(-251.506 -205.945)" fill="#96ceb4"/><path d="M271.271,255.176H264.52l1.142,6.9h6.751Zm0,0" transform="translate(-213.904 -205.945)" fill="#96ceb4"/><path d="M224.774,255.176h-6.751l1.141,6.9h6.751Zm0,0" transform="translate(-176.304 -205.945)" fill="#96ceb4"/><path d="M178.274,255.176h-6.751l1.141,6.9h6.751Zm0,0" transform="translate(-138.702 -205.945)" fill="#96ceb4"/><path d="M131.776,255.176h-6.752l1.142,6.9h6.752Zm0,0" transform="translate(-101.099 -205.945)" fill="#96ceb4"/><path d="M418.45,301.6H411.7l1.141,6.9h6.751Zm0,0" transform="translate(-332.921 -243.487)" fill="#ff6f69"/><path d="M371.951,301.6H365.2l1.142,6.9h6.751Zm0,0" transform="translate(-295.319 -243.487)" fill="#96ceb4"/><path d="M325.454,301.6H318.7l1.141,6.9H326.6Zm0,0" transform="translate(-257.72 -243.487)" fill="#96ceb4"/><path d="M278.954,301.6H272.2l1.141,6.9H280.1Zm0,0" transform="translate(-220.117 -243.487)" fill="#96ceb4"/><path d="M232.456,301.6H225.7l1.142,6.9H233.6Zm0,0" transform="translate(-182.515 -243.487)" fill="#96ceb4"/><path d="M185.959,301.6h-6.752l1.141,6.9H187.1Zm0,0" transform="translate(-144.915 -243.487)" fill="#96ceb4"/><path d="M139.459,301.6h-6.752l1.141,6.9H140.6Zm0,0" transform="translate(-107.313 -243.487)" fill="#96ceb4"/><path d="M426.134,348.023h-6.751l1.141,6.9h6.751Zm0,0" transform="translate(-339.135 -281.027)" fill="#ff6f69"/><path d="M379.634,348.023h-6.751l1.141,6.9h6.751Zm0,0" transform="translate(-301.532 -281.027)" fill="#96ceb4"/><path d="M333.138,348.023h-6.752l1.141,6.9h6.752Zm0,0" transform="translate(-263.933 -281.027)" fill="#96ceb4"/><path d="M286.638,348.023h-6.752l1.141,6.9h6.752Zm0,0" transform="translate(-226.331 -281.027)" fill="#96ceb4"/><path d="M240.138,348.023h-6.752l1.141,6.9h6.752Zm0,0" transform="translate(-188.728 -281.027)" fill="#96ceb4"/><path d="M193.645,348.023h-6.751l1.141,6.9h6.751Zm0,0" transform="translate(-151.132 -281.027)" fill="#96ceb4"/><path d="M147.145,348.023h-6.751l1.141,6.9h6.751Zm0,0" transform="translate(-113.529 -281.027)" fill="#96ceb4"/><path d="M388.324,78.91c-1.2,0-2.119,1.22-2.055,2.724a2.629,2.629,0,0,0,2.289,2.724,2.373,2.373,0,0,0,2.055-2.724A2.629,2.629,0,0,0,388.324,78.91Zm0,0" transform="translate(-312.354 -63.407)" fill="#025035"/><path d="M381.4,70.262c-2.091,0-3.707,1.964-3.6,4.379s1.889,4.379,3.979,4.379,3.707-1.964,3.6-4.379S383.5,70.262,381.4,70.262Zm.3,7.1a2.629,2.629,0,0,1-2.289-2.724c-.064-1.5.855-2.724,2.055-2.724a2.629,2.629,0,0,1,2.289,2.724C383.828,76.144,382.909,77.364,381.708,77.364Zm0,0" transform="translate(-305.505 -56.413)" fill="#016e48"/><path d="M361.412.5c-3.361,0-5.855,3.917-5.876,9.063h3.071c.059-3.435,1.529-5.755,2.947-5.755,1.523,0,3.333,2.683,3.5,6.533.137,3.185-.922,5.571-2.153,6.3a1.575,1.575,0,0,0-.732,1.443,1.6,1.6,0,0,0,2.248,1.511c2.36-1.36,3.893-4.942,3.708-9.254C367.885,4.823,364.939.5,361.412.5Zm0,0" transform="translate(-287.504)" fill="#c9b77d"/><path d="M316.28,78.91a2.373,2.373,0,0,0-2.055,2.724,2.629,2.629,0,0,0,2.289,2.724,2.374,2.374,0,0,0,2.055-2.724A2.629,2.629,0,0,0,316.28,78.91Zm0,0" transform="translate(-254.096 -63.407)" fill="#025035"/><path d="M309.354,70.262c-2.091,0-3.707,1.964-3.6,4.379s1.889,4.379,3.979,4.379,3.707-1.964,3.6-4.379S311.446,70.262,309.354,70.262Zm.3,7.1a2.629,2.629,0,0,1-2.289-2.724c-.064-1.5.855-2.724,2.055-2.724a2.628,2.628,0,0,1,2.289,2.724A2.374,2.374,0,0,1,309.659,77.364Zm0,0" transform="translate(-247.241 -56.413)" fill="#016e48"/><path d="M289.369.5c-3.361,0-5.855,3.917-5.876,9.063h3.071c.059-3.435,1.529-5.755,2.948-5.755,1.523,0,3.333,2.683,3.5,6.533.136,3.185-.922,5.571-2.153,6.3a1.574,1.574,0,0,0-.733,1.443,1.6,1.6,0,0,0,2.248,1.511c2.36-1.36,3.893-4.942,3.708-9.254C295.842,4.823,292.895.5,289.369.5Zm0,0" transform="translate(-229.246)" fill="#c9b77d"/><path d="M244.233,78.91a2.372,2.372,0,0,0-2.055,2.724,2.628,2.628,0,0,0,2.288,2.724,2.373,2.373,0,0,0,2.055-2.724A2.626,2.626,0,0,0,244.233,78.91Zm0,0" transform="translate(-195.834 -63.407)" fill="#025035"/><path d="M237.311,70.262c-2.091,0-3.707,1.964-3.6,4.379s1.889,4.379,3.979,4.379,3.707-1.964,3.6-4.379S239.4,70.262,237.311,70.262Zm.3,7.1a2.628,2.628,0,0,1-2.289-2.724,2.371,2.371,0,0,1,2.055-2.724,2.629,2.629,0,0,1,2.289,2.724A2.374,2.374,0,0,1,237.616,77.364Zm0,0" transform="translate(-188.983 -56.413)" fill="#016e48"/><path d="M217.326.5c-3.361,0-5.855,3.917-5.876,9.063h3.071c.059-3.435,1.529-5.755,2.948-5.755,1.523,0,3.333,2.683,3.5,6.533.137,3.185-.922,5.571-2.153,6.3a1.575,1.575,0,0,0-.732,1.443,1.6,1.6,0,0,0,2.248,1.511c2.36-1.36,3.893-4.942,3.708-9.254C223.8,4.823,220.851.5,217.326.5Zm0,0" transform="translate(-170.988)" fill="#c9b77d"/><path d="M172.187,78.91a2.373,2.373,0,0,0-2.055,2.724,2.629,2.629,0,0,0,2.289,2.724,2.372,2.372,0,0,0,2.055-2.724A2.627,2.627,0,0,0,172.187,78.91Zm0,0" transform="translate(-137.574 -63.407)" fill="#025035"/><path d="M165.268,70.262c-2.091,0-3.707,1.964-3.6,4.379s1.889,4.379,3.979,4.379,3.707-1.964,3.6-4.379S167.359,70.262,165.268,70.262Zm.3,7.1a2.629,2.629,0,0,1-2.289-2.724c-.064-1.5.856-2.724,2.055-2.724a2.628,2.628,0,0,1,2.289,2.724A2.372,2.372,0,0,1,165.571,77.364Zm0,0" transform="translate(-130.725 -56.413)" fill="#016e48"/><path d="M145.278.5c-3.361,0-5.855,3.917-5.876,9.063h3.071c.058-3.435,1.528-5.755,2.948-5.755,1.523,0,3.333,2.683,3.5,6.533.136,3.185-.922,5.571-2.153,6.3a1.572,1.572,0,0,0-.732,1.443,1.6,1.6,0,0,0,2.249,1.511c2.36-1.36,3.893-4.942,3.708-9.254C151.753,4.823,148.805.5,145.278.5Zm0,0" transform="translate(-112.727)" fill="#c9b77d"/><path d="M100.144,78.91c-1.2,0-2.119,1.22-2.055,2.724a2.629,2.629,0,0,0,2.289,2.724,2.373,2.373,0,0,0,2.055-2.724A2.627,2.627,0,0,0,100.144,78.91Zm0,0" transform="translate(-79.316 -63.407)" fill="#025035"/><path d="M93.225,70.262c-2.091,0-3.707,1.964-3.6,4.379s1.889,4.379,3.979,4.379,3.707-1.964,3.6-4.379S95.316,70.262,93.225,70.262Zm.3,7.1A2.629,2.629,0,0,1,91.24,74.64c-.064-1.5.856-2.724,2.055-2.724a2.628,2.628,0,0,1,2.289,2.724A2.373,2.373,0,0,1,93.528,77.364Zm0,0" transform="translate(-72.467 -56.413)" fill="#016e48"/><path d="M73.232.5c-3.361,0-5.855,3.917-5.876,9.063h3.072c.058-3.435,1.528-5.755,2.948-5.755,1.522,0,3.333,2.683,3.5,6.533.136,3.185-.922,5.571-2.153,6.3a1.574,1.574,0,0,0-.733,1.443,1.6,1.6,0,0,0,2.25,1.511c2.36-1.36,3.893-4.942,3.708-9.254C79.705,4.823,76.759.5,73.232.5Zm0,0" transform="translate(-54.466)" fill="#c9b77d"/></g></svg>