<svg xmlns="http://www.w3.org/2000/svg" width="19.528" height="24.001" viewBox="0 0 19.528 24.001"><g transform="translate(-47.706)"><path d="M63.208,0H54.616l-.437.437L48.143,6.474l-.437.437V19.974A4.031,4.031,0,0,0,51.733,24H63.208a4.031,4.031,0,0,0,4.026-4.026V4.027A4.031,4.031,0,0,0,63.208,0Zm2.535,19.974a2.535,2.535,0,0,1-2.535,2.536H51.733A2.535,2.535,0,0,1,49.2,19.974V7.528h3.924a2.113,2.113,0,0,0,2.113-2.113V1.491h7.974a2.535,2.535,0,0,1,2.535,2.536Z" fill="#0058ff"/><path d="M136.477,252.785h-1.337a.383.383,0,0,0-.407.414v3.457a.469.469,0,1,0,.935,0v-1.05a.034.034,0,0,1,.039-.038h.77a1.4,1.4,0,1,0,0-2.782Zm-.058,1.974h-.713a.034.034,0,0,1-.039-.038v-1.089a.034.034,0,0,1,.039-.038h.713a.584.584,0,1,1,0,1.165Z" transform="translate(-82.946 -240.935)" fill="#0058ff"/><path d="M221.069,252.785h-1.025a.383.383,0,0,0-.407.414v3.508a.378.378,0,0,0,.407.408h1.025c.923,0,1.5-.293,1.726-1a5.382,5.382,0,0,0,0-2.33C222.566,253.078,221.992,252.785,221.069,252.785Zm.828,3.005c-.109.344-.42.49-.854.49h-.433a.034.034,0,0,1-.039-.038v-2.585a.034.034,0,0,1,.039-.038h.433c.433,0,.745.147.854.49a4.689,4.689,0,0,1,0,1.681Z" transform="translate(-163.871 -240.935)" fill="#0058ff"/><path d="M310.163,252.785h-2.1a.383.383,0,0,0-.408.414v3.457a.469.469,0,1,0,.936,0v-1.235a.034.034,0,0,1,.038-.038h1.223a.4.4,0,1,0,0-.8h-1.223a.034.034,0,0,1-.038-.038v-.911a.034.034,0,0,1,.038-.038h1.534a.405.405,0,1,0,0-.808Z" transform="translate(-247.763 -240.935)" fill="#0058ff"/></g></svg>