<svg xmlns="http://www.w3.org/2000/svg" xmlns:xlink="http://www.w3.org/1999/xlink" width="40" height="40" viewBox="0 0 40 40"><defs><clipPath id="a"><path d="M35.313-1H4.688A4.7,4.7,0,0,0,0,3.688V34.313A4.7,4.7,0,0,0,4.688,39H35.313A4.7,4.7,0,0,0,40,34.313V3.688A4.7,4.7,0,0,0,35.313-1Z" transform="translate(0 1)" fill="none"/></clipPath></defs><g transform="translate(0 1)"><g transform="translate(0 -1)" clip-path="url(#a)"><rect width="40" height="40" fill="#0078c2"/><g transform="translate(8.597 10.264)"><path d="M125.017,141.839a4.529,4.529,0,0,0-.935-1.42,4.851,4.851,0,0,0-1.362-.969l-.137-.064q.053-.037.1-.076a4.668,4.668,0,0,0,1.053-1.1,4.594,4.594,0,0,0,.624-1.369,5.671,5.671,0,0,0,.2-1.488,4.212,4.212,0,0,0-1.981-3.79,10.163,10.163,0,0,0-5.461-1.183h-7.072v19.473h6.717a11.137,11.137,0,0,0,6.285-1.509,5.325,5.325,0,0,0,2.312-4.684A4.674,4.674,0,0,0,125.017,141.839Zm-10.076-.1h1.793a4.848,4.848,0,0,1,2.676.574,1.574,1.574,0,0,1,.733,1.4,1.89,1.89,0,0,1-.729,1.516,2.86,2.86,0,0,1-.959.483,4.933,4.933,0,0,1-1.429.185h-2.085Zm4.4-4.993a1.5,1.5,0,0,1-.43.6,2.356,2.356,0,0,1-.847.447,4.69,4.69,0,0,1-1.392.177h-1.731v-3.722h1.731a5.9,5.9,0,0,1,1.411.145,2.511,2.511,0,0,1,.855.366,1.172,1.172,0,0,1,.406.483,1.756,1.756,0,0,1,.138.713A2.2,2.2,0,0,1,119.34,136.748Z" transform="translate(-110.046 -130.379)" fill="#fff"/><path d="M341.784,316.9a2.55,2.55,0,1,1-2.551-2.55A2.551,2.551,0,0,1,341.784,316.9Z" transform="translate(-318.978 -299.978)" fill="#fff"/><rect width="4.91" height="12.947" transform="translate(17.801)" fill="#fff"/></g></g></g></svg>