<svg xmlns="http://www.w3.org/2000/svg" xmlns:xlink="http://www.w3.org/1999/xlink" width="134.288" height="123.797" viewBox="0 0 134.288 123.797"><defs><linearGradient id="a" x1="0.851" y1="-11.911" x2="0.851" y2="-12.911" gradientUnits="objectBoundingBox"><stop offset="0" stop-color="#a6a8ab"/><stop offset="0.277" stop-color="#bbbdbf"/><stop offset="0.715" stop-color="#e6e7e7"/><stop offset="1" stop-color="#bbbdbf"/></linearGradient><radialGradient id="b" cx="0.5" cy="0.5" r="0.5" gradientTransform="translate(0)" gradientUnits="objectBoundingBox"><stop offset="0.224" stop-color="#fff"/><stop offset="0.475" stop-color="#fcfafb"/><stop offset="0.757" stop-color="#f4ecf2"/><stop offset="1" stop-color="#ebdbe7"/></radialGradient></defs><g transform="translate(0 0)"><g transform="translate(0 0)"><path d="M78.248,162.816a1.332,1.332,0,0,1-1.621-.95L50.043,60.014a1.332,1.332,0,0,1,.95-1.621l73.9-19.288a1.332,1.332,0,0,1,1.621.95L153.1,141.907a1.332,1.332,0,0,1-.95,1.621Z" transform="translate(-50 -39.062)" fill="#423836"/><g transform="translate(18.84 4.902)"><path d="M193.652,94.411a1.24,1.24,0,0,1-1.509-.884l-1.806-6.92a1.24,1.24,0,0,1,.884-1.509l36.357-9.489a1.24,1.24,0,0,1,1.508.884l1.806,6.92a1.241,1.241,0,0,1-.884,1.509Z" transform="translate(-190.297 -75.569)" fill="#d0d2d3"/><path d="M192.548,93.765l-1.806-6.92a1.24,1.24,0,0,1,.884-1.509l36.357-9.489a1.229,1.229,0,0,1,.723.031,1.237,1.237,0,0,0-1.128-.269L191.221,85.1a1.24,1.24,0,0,0-.884,1.509l1.806,6.92a1.238,1.238,0,0,0,.786.853A1.229,1.229,0,0,1,192.548,93.765Z" transform="translate(-190.297 -75.569)" fill="#d0d2d3" opacity="0.5" style="mix-blend-mode:screen;isolation:isolate"/><path d="M244.6,77.509a1.247,1.247,0,0,0-.237-.055,1.221,1.221,0,0,1,.215.434l1.806,6.92a1.24,1.24,0,0,1-.884,1.509l-36.357,9.489a1.224,1.224,0,0,1-.483.024,1.239,1.239,0,0,0,.164.18,1.225,1.225,0,0,0,.725.033l36.356-9.489a1.241,1.241,0,0,0,.884-1.509l-1.806-6.92A1.224,1.224,0,0,0,244.6,77.509Z" transform="translate(-206.196 -77.201)" fill="#d0d2d3" style="mix-blend-mode:multiply;isolation:isolate"/><g transform="translate(11.345 6.642)"><g transform="translate(0 4.193)"><path d="M276.794,157.018a1.024,1.024,0,1,1-1.249-.732A1.024,1.024,0,0,1,276.794,157.018Z" transform="translate(-274.779 -156.253)" fill="#a6a8ab"/><path d="M277.173,157.482a.954.954,0,1,1-1.164-.682A.954.954,0,0,1,277.173,157.482Z" transform="translate(-275.226 -156.699)" fill="#d8d8d8"/><path d="M275.743,158.441a1.034,1.034,0,0,1,.739-1.262c.024-.006.047-.01.071-.015a.889.889,0,0,0-.883,1.125.88.88,0,0,0,.094.221C275.756,158.487,275.749,158.464,275.743,158.441Z" transform="translate(-275.525 -157.042)" fill="#d8d8d8" opacity="0.5" style="mix-blend-mode:screen;isolation:isolate"/><path d="M277.168,159.875l-.011,0a1.023,1.023,0,0,0,1.415-1.477A1.936,1.936,0,0,1,277.168,159.875Z" transform="translate(-276.838 -158.113)" fill="#d8d8d8" opacity="0.3" style="mix-blend-mode:multiply;isolation:isolate"/></g><g transform="translate(16.065)"><path d="M396.423,125.793a1.024,1.024,0,1,1-1.249-.732A1.024,1.024,0,0,1,396.423,125.793Z" transform="translate(-394.408 -125.028)" fill="#a6a8ab"/><path d="M396.806,126.258a.955.955,0,1,1-1.165-.682A.955.955,0,0,1,396.806,126.258Z" transform="translate(-394.858 -125.475)" fill="#d8d8d8"/><path d="M395.373,127.217a1.034,1.034,0,0,1,.74-1.262c.023-.006.047-.01.071-.015a.882.882,0,0,0-.238.026.89.89,0,0,0-.551,1.32C395.387,127.263,395.38,127.24,395.373,127.217Z" transform="translate(-395.155 -125.818)" fill="#d8d8d8" opacity="0.5" style="mix-blend-mode:screen;isolation:isolate"/><path d="M396.8,128.652l-.011,0a1.023,1.023,0,0,0,1.415-1.476A1.933,1.933,0,0,1,396.8,128.652Z" transform="translate(-396.468 -126.889)" fill="#d8d8d8" opacity="0.3" style="mix-blend-mode:multiply;isolation:isolate"/></g></g></g><rect width="69.733" height="98.623" transform="translate(5.785 23.228) rotate(-14.628)" fill="#9b7d63" opacity="0.5" style="mix-blend-mode:multiply;isolation:isolate"/><rect width="69.733" height="98.623" transform="matrix(0.968, -0.253, 0.253, 0.968, 5.38, 22.991)" fill="#fff"/><g transform="translate(19.962 5.395)"><g transform="translate(0 0.629)"><path d="M201.524,100.563a1.738,1.738,0,0,1-1.679-1.3l-1.135-4.35a1.737,1.737,0,0,1,1.24-2.116l33.786-8.818a1.738,1.738,0,0,1,2.116,1.24l1.135,4.35a1.738,1.738,0,0,1-1.24,2.117l-33.786,8.818A1.733,1.733,0,0,1,201.524,100.563Zm32.649-15.641a.738.738,0,0,0-.185.024L200.2,93.764a.739.739,0,0,0-.528.9l1.135,4.35a.74.74,0,0,0,.9.528L235.5,90.724a.742.742,0,0,0,.528-.9l-1.135-4.35a.744.744,0,0,0-.716-.552Z" transform="translate(-198.653 -83.925)" fill="#929496"/><path d="M202.594,101.468a1.572,1.572,0,0,1-1.518-1.173l-1.135-4.35a1.571,1.571,0,0,1,1.122-1.914l33.786-8.818a1.572,1.572,0,0,1,1.914,1.122l1.135,4.35a1.572,1.572,0,0,1-1.121,1.914l-33.786,8.818A1.567,1.567,0,0,1,202.594,101.468Zm32.649-15.641a.9.9,0,0,0-.227.029L201.23,94.674a.906.906,0,0,0-.647,1.1l1.135,4.35a.906.906,0,0,0,1.1.647l33.786-8.818a.908.908,0,0,0,.647-1.1L236.12,86.5a.91.91,0,0,0-.876-.676Z" transform="translate(-199.724 -84.996)" fill="#bbbdbf"/><path d="M203.445,102.382a1.326,1.326,0,0,1-1.277-.986l-1.135-4.35a1.323,1.323,0,0,1,.943-1.61l33.786-8.819a1.321,1.321,0,0,1,1.61.944l1.135,4.35a1.321,1.321,0,0,1-.944,1.61l-33.786,8.818A1.311,1.311,0,0,1,203.445,102.382Zm32.65-15.641a1.156,1.156,0,0,0-.291.037L202.018,95.6A1.157,1.157,0,0,0,201.193,97l1.135,4.35a1.157,1.157,0,0,0,1.407.825l33.786-8.818a1.155,1.155,0,0,0,.825-1.407l-1.135-4.35A1.156,1.156,0,0,0,236.095,86.74Z" transform="translate(-200.676 -86.219)" fill="#d0d2d3"/></g><g transform="translate(1.536)"><rect width="33.987" height="2.657" transform="translate(0.001 8.583) rotate(-14.628)" fill="url(#a)"/><g transform="translate(0 0.005)"><rect width="33.987" height="0.339" transform="matrix(0.967, -0.253, 0.253, 0.967, 0.212, 9.388)" fill="#d0d2d3" opacity="0.4" style="mix-blend-mode:screen;isolation:isolate"/><rect width="33.987" height="0.431" transform="matrix(0.968, -0.252, 0.252, 0.968, 0, 8.574)" fill="#d0d2d3" opacity="0.3" style="mix-blend-mode:multiply;isolation:isolate"/><rect width="33.987" height="0.765" transform="matrix(0.968, -0.253, 0.253, 0.968, 0.479, 10.411)" fill="#d0d2d3" opacity="0.5" style="mix-blend-mode:multiply;isolation:isolate"/></g></g></g></g><g transform="translate(23.058 27.977)"><g transform="translate(0 0)"><rect width="44.164" height="0.332" transform="matrix(0.968, -0.253, 0.253, 0.968, 3.349, 24.953)" fill="#221e1f"/><rect width="44.164" height="0.332" transform="matrix(0.968, -0.253, 0.253, 0.968, 0, 11.154)" fill="#221e1f"/><rect width="44.164" height="0.332" transform="matrix(0.968, -0.253, 0.253, 0.968, 4.607, 29.772)" fill="#221e1f"/><rect width="44.164" height="0.332" transform="matrix(0.968, -0.253, 0.253, 0.968, 5.865, 34.592)" fill="#221e1f"/><rect width="44.164" height="0.332" transform="matrix(0.968, -0.253, 0.253, 0.968, 7.123, 39.411)" fill="#221e1f"/><rect width="44.165" height="0.332" transform="matrix(0.968, -0.253, 0.253, 0.968, 8.381, 44.231)" fill="#221e1f"/><rect width="44.165" height="0.332" transform="matrix(0.968, -0.253, 0.253, 0.968, 9.639, 49.051)" fill="#221e1f"/><rect width="44.165" height="0.332" transform="translate(10.895 53.866) rotate(-14.618)" fill="#221e1f"/></g><rect width="16.877" height="0.332" transform="matrix(0.968, -0.253, 0.253, 0.968, 41.074, 61.439)" fill="#221e1f"/></g><g transform="translate(75.724 78.658)"><path d="M619.047,632.9a4.117,4.117,0,1,1,2.944-5.024,4.122,4.122,0,0,1-2.944,5.024Zm-1.981-7.591a3.728,3.728,0,1,0,4.548,2.665,3.732,3.732,0,0,0-4.548-2.665Z" transform="translate(-613.89 -624.803)" fill="#e23036"/><g transform="translate(1.192 1.213)"><path d="M624.942,634.5a13.058,13.058,0,0,1-1.6,1.087l.282,1.078,1.657-.433.112.428-1.657.432.381,1.458,1.693-.442.113.434-1.693.442.134.512-.451.118-1.144-4.38.306.036a10.233,10.233,0,0,0,1.394-1.046Zm3.615,2.9c.069.265.06.428-.111.563a3.026,3.026,0,0,1-.93.333,1.812,1.812,0,0,0-.3-.43c.372-.078.7-.17.8-.2s.117-.069.094-.16l-.814-3.12-1.488.388,1.2,4.615-.44.115-1.319-5.054,2.373-.619Z" transform="translate(-622.766 -633.835)" fill="#e23036"/></g></g></g><g transform="translate(110.676 70.699)"><g transform="translate(0 0)"><path d="M897.784,577.344a11.806,11.806,0,1,1-11.806-11.806A11.806,11.806,0,0,1,897.784,577.344Z" transform="translate(-874.173 -565.538)" fill="#161414"/><path d="M899.808,579.743a11.434,11.434,0,1,1-11.434-11.434A11.434,11.434,0,0,1,899.808,579.743Z" transform="translate(-876.568 -567.937)" fill="#2d2827"/><path d="M898.994,620.423A11.434,11.434,0,0,0,917,606.431,24.813,24.813,0,0,1,898.994,620.423Z" transform="translate(-895.661 -600.94)" fill="#2d2827" opacity="0.1" style="mix-blend-mode:screen;isolation:isolate"/><path d="M959.459,662.7c.117,0,.234.006.353.006a11.434,11.434,0,0,0,11.434-11.434c0-.113,0-.226-.006-.338A12.148,12.148,0,0,1,959.459,662.7Z" transform="translate(-948.006 -639.465)" fill="#2d2827" style="mix-blend-mode:screen;isolation:isolate"/><path d="M877.064,580.036a11.611,11.611,0,0,1,15.554-10.913,11.439,11.439,0,0,0-14.863,14.864A11.583,11.583,0,0,1,877.064,580.036Z" transform="translate(-876.568 -567.937)" fill="#fff"/><path d="M906.672,587.866A10.174,10.174,0,1,1,896.5,577.692,10.174,10.174,0,0,1,906.672,587.866Z" transform="translate(-884.692 -576.06)" fill="#161414"/><path d="M907.8,589.2a9.967,9.967,0,1,1-9.967-9.967A9.967,9.967,0,0,1,907.8,589.2Z" transform="translate(-886.024 -577.392)" fill="#0c0b0b"/></g><g transform="translate(1.983 1.983)"><path d="M908.586,590.13a9.823,9.823,0,1,1-9.823-9.822A9.823,9.823,0,0,1,908.586,590.13Z" transform="translate(-888.941 -580.308)" fill="#c92834"/><path d="M910.106,591.927a9.544,9.544,0,1,1-9.544-9.544A9.544,9.544,0,0,1,910.106,591.927Z" transform="translate(-890.74 -582.105)" fill="#e23036"/><path d="M908.586,590.13a9.823,9.823,0,1,1-9.823-9.822A9.823,9.823,0,0,1,908.586,590.13Z" transform="translate(-888.941 -580.308)" fill="url(#b)" style="mix-blend-mode:multiply;isolation:isolate"/></g><g transform="translate(4.194 4.557)"><path d="M922.71,600.547c.866,1.214-.019,2.242-1.343,3.185s-2.583,1.446-3.449.232a2.954,2.954,0,0,1,4.792-3.417Z" transform="translate(-915.832 -599.471)" fill="#e23024" opacity="0.3" style="mix-blend-mode:screen;isolation:isolate"/><circle cx="1.317" cy="1.317" r="1.317" transform="translate(0 5.761)" fill="#e23024" opacity="0.3" style="mix-blend-mode:screen;isolation:isolate"/></g></g><g transform="translate(88.961 60.82)"><path d="M729.5,492.506c-1.423-.746-2.915-.706-3.333.091l-12.891,24.582,5.153,2.7L731.32,495.3C731.738,494.5,730.923,493.252,729.5,492.506Z" transform="translate(-713.167 -491.972)" fill="#2d2827"/><path d="M755.841,502.627,742.3,528.447l1.255.658,12.891-24.581C756.723,504,756.461,503.273,755.841,502.627Z" transform="translate(-738.294 -501.196)" fill="#161414"/><path d="M726.967,492.454a1.174,1.174,0,0,0-.8.56L713.276,517.6l.4.208Z" transform="translate(-713.167 -492.389)" fill="#161414" opacity="0.5"/><path d="M717.724,678.348c-.418.8-1.91.837-3.333.091s-2.238-2-1.82-2.793,1.91-.838,3.333-.091S718.142,677.552,717.724,678.348Z" transform="translate(-712.461 -650.439)" fill="#383130"/><g transform="translate(6.255 1.826)"><path d="M765.458,519.259a.392.392,0,0,1-.165-.529l6.79-12.949a.392.392,0,1,1,.694.364l-6.79,12.949a.392.392,0,0,1-.529.165Z" transform="translate(-764.415 -505.572)" fill="#2d2827" style="mix-blend-mode:screen;isolation:isolate"/><path d="M759.782,614.364a.394.394,0,1,1-.166-.532A.393.393,0,0,1,759.782,614.364Z" transform="translate(-759.04 -599.255)" fill="#2d2827" style="mix-blend-mode:screen;isolation:isolate"/></g><path d="M721.984,687.575c.276-.526.014-1.25-.606-1.9a4.242,4.242,0,0,1-4,1.032,4.694,4.694,0,0,0,1.268.955C720.074,688.413,721.566,688.372,721.984,687.575Z" transform="translate(-716.721 -659.667)" fill="#383130" opacity="0.3" style="mix-blend-mode:multiply;isolation:isolate"/><g transform="translate(0.597 25.076)"><path d="M724.04,679.365c-.018.294-.314.306-.674.241s-.648-.181-.631-.474.324-.48.685-.415A.7.7,0,0,1,724.04,679.365Z" transform="translate(-721.951 -678.704)" fill="#383130" opacity="0.3" style="mix-blend-mode:screen;isolation:isolate"/><path d="M717.425,682.185a.312.312,0,0,1-.411-.012.252.252,0,0,1-.047-.374.311.311,0,0,1,.411.012A.253.253,0,0,1,717.425,682.185Z" transform="translate(-716.904 -681.321)" fill="#383130" opacity="0.3" style="mix-blend-mode:screen;isolation:isolate"/></g></g></svg>