<svg xmlns="http://www.w3.org/2000/svg" width="40.047" height="40.047" viewBox="0 0 40.047 40.047"><path d="M40.047,20.023A20.023,20.023,0,1,0,16.895,39.8V25.811H11.811V20.023h5.084V15.612c0-5.018,2.989-7.79,7.563-7.79a30.791,30.791,0,0,1,4.482.391V13.14H26.415c-2.487,0-3.263,1.543-3.263,3.127v3.756h5.553l-.888,5.788H23.152V39.8A20.028,20.028,0,0,0,40.047,20.023Z" fill="#1877f2"/><path d="M318.007,217.99l.888-5.788h-5.553v-3.756c0-1.583.776-3.127,3.263-3.127h2.525v-4.928a30.792,30.792,0,0,0-4.482-.391c-4.574,0-7.563,2.772-7.563,7.79V212.2H302v5.788h5.084v13.992a20.235,20.235,0,0,0,6.257,0V217.99Z" transform="translate(-290.189 -192.178)" fill="#fff"/></svg>