<svg xmlns="http://www.w3.org/2000/svg" width="60.826" height="42.588" viewBox="0 0 60.826 42.588"><path d="M59.572,6.664A7.621,7.621,0,0,0,54.211,1.3C49.452,0,30.412,0,30.412,0S11.373,0,6.613,1.253A7.776,7.776,0,0,0,1.252,6.664C0,11.423,0,21.294,0,21.294s0,9.92,1.252,14.63a7.622,7.622,0,0,0,5.361,5.361c4.81,1.3,23.8,1.3,23.8,1.3s19.039,0,23.8-1.253a7.621,7.621,0,0,0,5.361-5.361c1.252-4.76,1.252-14.63,1.252-14.63S60.875,11.423,59.572,6.664Zm0,0" fill="red"/><path d="M204.969,120.722,220.8,111.6l-15.832-9.119Zm0,0" transform="translate(-180.619 -90.309)" fill="#fff"/></svg>