<svg xmlns="http://www.w3.org/2000/svg" width="130.667" height="117.607" viewBox="0 0 130.667 117.607"><g transform="translate(-157.064 -3969.547)"><g transform="translate(157.064 3969.547)"><g transform="translate(0 0)"><path d="M3595.92,4465.634c0,.966-29.089,1.751-64.97,1.751s-64.97-.785-64.97-1.751,29.089-1.752,64.97-1.752S3595.92,4464.667,3595.92,4465.634Z" transform="translate(-3465.253 -4349.778)" fill="#b4b4b5"/><g transform="translate(89.737 107.005)"><path d="M3636.546,4464.149s-6.039.277-7.518.274-4.64.038-5.116-.438a2.535,2.535,0,0,1-.3-.366,2.636,2.636,0,0,0,.718,1.363c.477.475,3.216.436,4.693.438s7.518-.275,7.518-.275,3.33-.363,3.5-1.345a5.5,5.5,0,0,0,.071-.889C3639.549,4463.754,3636.546,4464.149,3636.546,4464.149Z" transform="translate(-3623.557 -4456.36)" fill="#dbdcdc"/><path d="M3631.506,4452.319c-.479.592-1.294,1.279-3.493,2.025-2.827.958-3.431,1.2-4.184,2.535a2.23,2.23,0,0,0-.258,1.7,2.568,2.568,0,0,0,.3.366c.477.476,3.639.436,5.115.438s7.518-.275,7.518-.275,3-.395,3.573-1.238a28.932,28.932,0,0,0-1.057-6.551C3637.5,4452.518,3633.774,4452.795,3631.506,4452.319Z" transform="translate(-3623.509 -4451.318)" fill="#f5f6f7"/></g><g transform="translate(95.432 110.662)"><path d="M3634.458,4460.212l-.869.563a4.306,4.306,0,0,1,1.034,2.449c.313-.008.66-.021,1.021-.033A4.785,4.785,0,0,0,3634.458,4460.212Z" transform="translate(-3633.589 -4458.844)" fill="#00254d"/><path d="M3636.435,4458.782a8.7,8.7,0,0,1,1.443,3.319c.708-.026,1.426-.056,2.069-.084a9.255,9.255,0,0,0-1.663-4.226Z" transform="translate(-3634.827 -4457.791)" fill="#00254d"/></g><g transform="translate(118.329 99.205)"><path d="M3683.641,4440.4c-.155-.154-.3-.29-.449-.422.7,1.431.051,3.908.051,3.908a62.993,62.993,0,0,1-2.039,6.6c-.67,1.33-1.911,3.676-2.56,3.875a2.72,2.72,0,0,1-2.265-.182,2.51,2.51,0,0,0,2.844.689c.647-.2,2.115-2.116,2.784-3.447a62.911,62.911,0,0,0,2.039-6.6S3684.88,4441.636,3683.641,4440.4Z" transform="translate(-3675.099 -4438.585)" fill="#dbdcdc"/><path d="M3682.206,4438.905a8.237,8.237,0,0,0-2-1.392c-.354,2.014-2.479,6.054-6.094,5.773a9.426,9.426,0,0,1,.678,3.842c-.213,3.035-.359,4.535.514,5.859.026.039.06.077.09.114a2.714,2.714,0,0,0,2.265.182c.648-.2,1.89-2.545,2.56-3.875a63.065,63.065,0,0,0,2.039-6.6S3682.9,4440.335,3682.206,4438.905Z" transform="translate(-3674.112 -4437.513)" fill="#f5f6f7"/></g><g transform="translate(88.226 55.251)"><path d="M3631.909,4382.537c-.431-5.186-.41-11.358-.953-14.2-.2-1.058-.455-.258-.505-2.325a51.648,51.648,0,0,0,8.392-.6c8.173-1.637,8.715-4.262,8.715-4.262s.05.224.1.546a6.2,6.2,0,0,0-.5-1.97c-1.477,4.494-10.4,4.963-15.174,4.868-4.313-.085-6.429-1.064-7.958-2.808a197,197,0,0,0-3.187,23.75c-.143,6.3,7.454,25.6,7.754,26.091,1.012,1.625,9.222,1.508,9.891-1.026.589-2.227-6.01-18.143-6.226-20.958C3632.076,4387.3,3631.865,4384.575,3631.909,4382.537Z" transform="translate(-3620.835 -4359.724)" fill="#ccc6ac"/></g><path d="M3652.648,4390.142c-1.542-1.327,0-7.608.8-13.937.519-4.126,1.494-7.619,1.727-11.868a9.222,9.222,0,0,0-.217-2.092s-.543,2.625-8.716,4.262a51.585,51.585,0,0,1-8.392.6c.051,2.068.3,1.267.505,2.325.7,3.68.46,12.933,1.477,18.41.686,3.7,4.032,9.81,9.733,15.437,3.285,3.247,7.083,7.084,8.6,7.258,4.647.533,6.9-6.068,6.192-6.8C3662.592,4401.917,3656.536,4393.477,3652.648,4390.142Z" transform="translate(-3540.011 -4305.569)" fill="#e2dcc3"/><path d="M3630.365,4329.51c-1.764-11.473-2.692-19.375-7.589-28.876a5.7,5.7,0,0,0-1.1-1.423,6.964,6.964,0,0,0-3.917-2.544,17.462,17.462,0,0,0-3.215-1.108,13.338,13.338,0,0,0-2.558-.3,4.3,4.3,0,0,1-.7,2.09c-.61.913-3.2,2.02-3.2,2.02a3.793,3.793,0,0,1-2-2.748,7.027,7.027,0,0,1-1.867-.16c-.215-.048-.42-.11-.625-.173a12.961,12.961,0,0,0-4.337,2.549,8.51,8.51,0,0,0-2.641,4.057c-1.664,6.848-1.532,9.35-2.508,11.388-1.119,2.32-7.318,6.172-12.2,8.363l2.3-.139c1.417.181,3.3,1.2,3.12,2.616l-.069,1.636a2.439,2.439,0,0,1-.567,1.215c4.57-2.075,11.712-5.247,13.359-8.664a21.263,21.263,0,0,0,.838-2.055c.592,1.638,1.022,3.155,1.394,4.589-.721.4-1.373.755-1.912,1.039,1.422.157,3.321,1.134,3.167,2.554l-.042,1.638a3.4,3.4,0,0,1-3.405,2.6l-1.339-.083a6.088,6.088,0,0,0,5.053-.369c.087-.049.275-.139.529-.257a19.5,19.5,0,0,0,1.058,2.234c1.858,3.339,3.569,5.239,9.67,5.36C3620.5,4336.66,3631.369,4336.03,3630.365,4329.51Z" transform="translate(-3515.673 -4276.432)" fill="#00254d"/><path d="M3631.471,4296c-.668-1.468-1.817-1.522-1.784-1.835,0,.029-.006.062-.009.092-.021.227-.039.474-.072.736,0,.026-.005.053-.01.08-.011.075-.025.151-.039.23-.006.035-.012.066-.019.1-.016.076-.036.153-.057.231-.01.038-.018.076-.03.115-.023.077-.052.157-.082.237-.015.041-.027.081-.043.121-.034.085-.077.172-.118.258-.019.038-.034.076-.055.116a4.282,4.282,0,0,1-.228.385c-.61.912-3.2,2.019-3.2,2.019a3.79,3.79,0,0,1-2-2.746,7.113,7.113,0,0,1-1.091-.037,9.3,9.3,0,0,0,.135,3.908c.307,1.033,1.523,4.943,2.662,5.07.439.048,4.279-4.1,4.984-5.323C3630.934,4298.863,3631.927,4297.008,3631.471,4296Z" transform="translate(-3533.324 -4275.959)" fill="#00254d"/><path d="M3626.271,4279.631c-.066-1.592-3.415-3.039-5.2-3.181-2.191-.179-4.307.649-6.26.241-1.287-.268-1.766-1.13-3-1.864a11.116,11.116,0,0,0-.749,2.223c-1.071,4.849,1.118,9.506,5.717,10.521a7.048,7.048,0,0,0,1.867.161,3.793,3.793,0,0,0,2,2.748s2.59-1.106,3.2-2.02a4.954,4.954,0,0,0,.753-2.625l-.463-1.458a14.934,14.934,0,0,0,1.935-4.009C3626.147,4280.118,3626.209,4279.875,3626.271,4279.631Z" transform="translate(-3528.239 -4267.546)" fill="#fbd6a0"/><path d="M3623.291,4268.405a6.791,6.791,0,0,0-4.833-5.859c-3.495-1.112-5.829-.607-8.159.848-2.07,1.3-2.518,3.079-3.074,4.576l-2.876.061c-.82.011-1.474.023-1.767.037l-.362.007c.075,0,.144,0,.218,0-1.311.136-.293,2.26,1.12,2.83a10.183,10.183,0,0,0,3.6.521,6.133,6.133,0,0,1,.849-2.148c1.164.72,1.65,1.544,2.9,1.8,1.954.408,4.069-.42,6.261-.241,1.791.143,5.144,1.591,5.2,3.184A12.173,12.173,0,0,0,3623.291,4268.405Z" transform="translate(-3524.344 -4261.942)" fill="#00254d"/><g transform="translate(60.83 46.069)"><g transform="translate(0 4.251)"><path d="M3574.341,4351.105l0-.106a7.27,7.27,0,0,0-1.8,2.8c-.056.154-.122.328-.191.511v5.161c.361-1.052.838-2.274,1.24-3.3.264-.675.5-1.286.67-1.749a5.619,5.619,0,0,1,.933-1.645A1.6,1.6,0,0,1,3574.341,4351.105Z" transform="translate(-3572.35 -4350.999)" fill="#dbdcdc"/></g><path d="M3584.612,4347.728a3.407,3.407,0,0,1-3.457,2.533l-2.72-.221c-1.421-.182-2.759-.786-2.574-2.207l.064-2.447c.183-1.42,1.71-1.945,3.132-1.759l2.5-.151c1.417.181,3.3,1.2,3.121,2.616Z" transform="translate(-3573.87 -4343.475)" fill="#fbd6a0"/></g><g transform="translate(68.998 46.444)"><path d="M3613.353,4348.33a3.4,3.4,0,0,1-3.405,2.6l-2.725-.169c-1.423-.152-2.773-.735-2.616-2.154l.022-2.449c.155-1.426,1.672-1.979,3.1-1.822l2.5-.195c1.422.155,3.328,1.133,3.173,2.556Z" transform="translate(-3594.543 -4344.137)" fill="#fbd6a0"/><path d="M3587.72,4348.16a.913.913,0,1,0,0,1.827h9.153l.017-1.827Z" transform="translate(-3586.806 -4345.887)" fill="#dbdcdc"/><g transform="translate(13.773 3.111)"><path d="M3612.076,4412.82h-.895v19.537h1.828v-19.937A1.29,1.29,0,0,1,3612.076,4412.82Z" transform="translate(-3611.182 -4376.949)" fill="#dbdcdc"/><path d="M3615.766,4349.973a.914.914,0,1,0-1.4,1.17,2.386,2.386,0,0,1,.365,2.089c-.185.542-.49,1.32-.812,2.142-.492,1.252-1.049,2.671-1.388,3.791l-.042.139a23.783,23.783,0,0,0-1.3,6.679v6.7h.895a1.286,1.286,0,0,1,.934.4v-7.1a22,22,0,0,1,1.224-6.148l.042-.139c.319-1.051.861-2.433,1.34-3.655.331-.842.643-1.639.842-2.222A4.19,4.19,0,0,0,3615.766,4349.973Z" transform="translate(-3611.182 -4349.644)" fill="#dbdcdc"/></g></g><path d="M3609.911,4390.423H3606.2v12.83h3.707a1.3,1.3,0,0,0,1.3-1.3v-10.238A1.3,1.3,0,0,0,3609.911,4390.423Z" transform="translate(-3526.246 -4317.826)" fill="#69757c"/><g transform="translate(6.334 108.538)"><g transform="translate(2.006 2.295)"><path d="M3480.355,4459.477a4.111,4.111,0,0,1,.466-1.384h-1.368A2.957,2.957,0,0,1,3480.355,4459.477Z" transform="translate(-3479.453 -4458.093)" fill="#23456d"/></g><g transform="translate(2.841 1.703)"><path d="M3487.489,4457.044a10.1,10.1,0,0,1,.305,2.617c0,1.254-.554,1.919-1.235,1.919a.607.607,0,0,1-.09-.014.556.556,0,0,1-.091.014c-.439,0-.771-.387-1.045-.9-.3-.567-.541-1.44-.875-2.127a4.809,4.809,0,0,0-.158,1.232c0,1.791.931,3.237,2.079,3.237s2.084-1.446,2.084-3.237A3.889,3.889,0,0,0,3487.489,4457.044Z" transform="translate(-3482.396 -4457.044)" fill="#3e3a39"/><g transform="translate(0 0.593)"><path d="M3482.842,4460.236a4.834,4.834,0,0,1,.154-1.224,2.222,2.222,0,0,0-.7-.919h-.834a4.337,4.337,0,0,0-.534,2.143c0,1.79.933,3.238,2.082,3.238h1.786a.483.483,0,0,0,.061-.009C3483.739,4463.415,3482.842,4461.992,3482.842,4460.236Z" transform="translate(-3480.931 -4458.093)" fill="#231815"/></g></g><path d="M3483.2,4454.031h-3.4a7.377,7.377,0,0,0,2.007,2.3c.767.492,1.1,2.145,1.569,3.038.274.518.606.906,1.046.906a.608.608,0,0,0,.091-.015.675.675,0,0,0,.091.015c.681,0,1.234-.666,1.234-1.92,0-3.262-1.119-4.319-1.119-4.319Z" transform="translate(-3477.597 -4454.031)" fill="#4878b2"/><path d="M3477.908,4456.326a7.363,7.363,0,0,1-2.006-2.3h2.2a7.362,7.362,0,0,0,2.007,2.3Z" transform="translate(-3475.903 -4454.031)" fill="#3e699d"/><path d="M3487.632,4459.612c-.452,0-.822.573-.822,1.28s.371,1.28.822,1.28c.112,0,1.077-.011,1.077-1.28S3487.745,4459.612,3487.632,4459.612Z" transform="translate(-3480.647 -4456.458)" fill="#bebfbf"/></g><g transform="translate(37.989 108.538)"><g transform="translate(2.442)"><path d="M3539.022,4454.031h-2.774l.31,4.319c0,1.06.551,1.92,1.233,1.92a.68.68,0,0,0,.089-.015.6.6,0,0,0,.089.015c.682,0,1.234-.861,1.234-1.92v-4.319Z" transform="translate(-3536.248 -4454.031)" fill="#4878b2"/></g><path d="M3534.782,4454.031h-1.9l.146,2.044a1.753,1.753,0,0,1,1.4-.845h.447Z" transform="translate(-3532.341 -4454.031)" fill="#23456d"/><g transform="translate(0 1.199)"><path d="M3538.79,4457.671v2.251c0,1.06-.552,1.919-1.235,1.919a.609.609,0,0,1-.089-.015.68.68,0,0,1-.089.015c-.682,0-1.233-.86-1.233-1.919l-.164-2.276a4.2,4.2,0,0,0-.685,2.4c0,1.79.933,3.237,2.082,3.237s2.081-1.448,2.081-3.237A4.225,4.225,0,0,0,3538.79,4457.671Z" transform="translate(-3533.392 -4456.802)" fill="#3e3a39"/><path d="M3533.835,4459.393a4.184,4.184,0,0,1,.681-2.385l-.062-.855h-.446c-1.15,0-2.081,1.453-2.081,3.24s.931,3.238,2.081,3.238h1.787a.522.522,0,0,0,.06-.01C3534.735,4462.571,3533.835,4461.148,3533.835,4459.393Z" transform="translate(-3531.927 -4456.153)" fill="#231815"/></g><path d="M3538.626,4459.612c-.453,0-.823.573-.823,1.28s.37,1.28.823,1.28c.114,0,1.076-.011,1.076-1.28S3538.739,4459.612,3538.626,4459.612Z" transform="translate(-3534.483 -4456.458)" fill="#bebfbf"/></g><g transform="translate(45.175 110.833)"><path d="M3545.548,4459.477a4.1,4.1,0,0,1,.466-1.384h-1.369A2.961,2.961,0,0,1,3545.548,4459.477Z" transform="translate(-3544.645 -4458.093)" fill="#23456d"/></g><g transform="translate(46.011 110.24)"><path d="M3552.682,4457.044a10.123,10.123,0,0,1,.3,2.617c0,1.254-.554,1.919-1.234,1.919a.594.594,0,0,1-.091-.014.552.552,0,0,1-.092.014c-.438,0-.771-.387-1.044-.9-.3-.567-.542-1.44-.876-2.127a4.809,4.809,0,0,0-.157,1.232c0,1.791.931,3.237,2.078,3.237s2.084-1.446,2.084-3.237A3.893,3.893,0,0,0,3552.682,4457.044Z" transform="translate(-3547.589 -4457.044)" fill="#595757"/><g transform="translate(0 0.593)"><path d="M3548.034,4460.236a4.812,4.812,0,0,1,.155-1.224,2.214,2.214,0,0,0-.7-.919h-.834a4.342,4.342,0,0,0-.533,2.143c0,1.79.933,3.238,2.081,3.238h1.786a.483.483,0,0,0,.061-.009C3548.931,4463.415,3548.034,4461.992,3548.034,4460.236Z" transform="translate(-3546.124 -4458.093)" fill="#231815"/></g></g><path d="M3548.395,4454.031h-3.4a7.365,7.365,0,0,0,2.007,2.3c.767.492,1.1,2.145,1.569,3.038.273.518.606.906,1.044.906a.607.607,0,0,0,.092-.015.644.644,0,0,0,.09.015c.681,0,1.234-.666,1.234-1.92,0-3.262-1.118-4.319-1.118-4.319Z" transform="translate(-3499.621 -4345.493)" fill="#4878b2"/><path d="M3543.1,4456.326a7.351,7.351,0,0,1-2.005-2.3h2.2a7.372,7.372,0,0,0,2.007,2.3Z" transform="translate(-3497.926 -4345.493)" fill="#3e699d"/><path d="M3552.825,4459.612c-.451,0-.822.573-.822,1.28s.371,1.28.822,1.28c.113,0,1.078-.011,1.078-1.28S3552.938,4459.612,3552.825,4459.612Z" transform="translate(-3502.67 -4347.921)" fill="#bebfbf"/><path d="M3504.021,4450v-1a1.3,1.3,0,0,1,1.3-1.3h-39.33a1.3,1.3,0,0,0-1.294,1.3v1a1.3,1.3,0,0,0,1.294,1.294h39.33A1.3,1.3,0,0,1,3504.021,4450Z" transform="translate(-3464.694 -4342.741)" fill="#00447d"/><g transform="translate(39.327 104.962)"><path d="M1.792,0H46.213a1.792,1.792,0,0,1,1.792,1.792v0a1.795,1.795,0,0,1-1.795,1.795H1.794A1.794,1.794,0,0,1,0,1.792v0A1.792,1.792,0,0,1,1.792,0Z" fill="#00579b"/></g><g transform="translate(74.821 108.538)"><path d="M3600.838,4454.031h-2.774l.307,4.319c0,1.06.553,1.92,1.234,1.92a.623.623,0,0,0,.088-.015.722.722,0,0,0,.089.015c.684,0,1.236-.861,1.236-1.92v-4.319Z" transform="translate(-3597.526 -4454.031)" fill="#2d527e"/><g transform="translate(0 1.199)"><path d="M3604.638,4459.393c0,1.79-.93,3.238-2.079,3.238s-2.083-1.448-2.083-3.238.934-3.24,2.083-3.24S3604.638,4457.606,3604.638,4459.393Z" transform="translate(-3598.575 -4456.153)" fill="#595757"/><path d="M3599.019,4459.393c0-1.755.9-3.178,2.021-3.227a.559.559,0,0,0-.062-.013h-1.786c-1.149,0-2.081,1.453-2.081,3.24s.932,3.238,2.081,3.238h1.786a.545.545,0,0,0,.062-.01C3599.919,4462.571,3599.019,4461.148,3599.019,4459.393Z" transform="translate(-3597.111 -4456.153)" fill="#231815"/></g><path d="M3604.208,4454.031h-2.775l.309,4.319c0,1.06.551,1.92,1.233,1.92a.6.6,0,0,0,.088-.015.661.661,0,0,0,.09.015c.682,0,1.234-.861,1.234-1.92v-4.319Z" transform="translate(-3598.991 -4454.031)" fill="#5084c4"/><path d="M3603.813,4459.612c-.457,0-.824.573-.824,1.28s.367,1.28.824,1.28c.111,0,1.076-.011,1.076-1.28S3603.924,4459.612,3603.813,4459.612Z" transform="translate(-3599.668 -4456.458)" fill="#dbdcdc"/></g><g transform="translate(8.149 65.469)"><path d="M3479.686,4377.906H3517.9v.005a.514.514,0,0,0-.489.5h-38.235A.518.518,0,0,1,3479.686,4377.906Z" transform="translate(-3479.14 -4377.85)" fill="#fbd6a0"/><path d="M3546.839,4378.412a.517.517,0,0,1,.515-.506h32.495a.515.515,0,0,1,.515.506Z" transform="translate(-3508.573 -4377.85)" fill="#b09060"/><path d="M3479.686,4447.337H3517.9v0a.513.513,0,0,1-.489-.5h-38.235A.516.516,0,0,0,3479.686,4447.337Z" transform="translate(-3479.14 -4407.831)" fill="#cea75f"/><path d="M3546.839,4446.832a.515.515,0,0,0,.515.505h32.495a.513.513,0,0,0,.515-.505Z" transform="translate(-3508.573 -4407.831)" fill="#90764d"/><rect width="33.585" height="38.438" transform="translate(38.224 0.562)" fill="#c4a064"/><rect width="38.224" height="38.438" transform="translate(0 0.562)" fill="#eabe6c"/><rect width="5.083" height="3.387" transform="translate(52.668)" fill="#eabe6c"/><rect width="5.083" height="3.389" transform="translate(52.668 36.117)" fill="#eabe6c"/></g><g transform="translate(12.234 69.121)"><path d="M3487.473,4384.272a.258.258,0,0,1-.074.167.277.277,0,0,1-.19.083.305.305,0,0,1-.19-.083.259.259,0,0,1-.074-.167h-.6v9.265h.591a.251.251,0,0,1,.083-.192.267.267,0,0,1,.381,0,.243.243,0,0,1,.083.192h17.484v-9.265Zm-.264,8.825a.279.279,0,0,1,0-.559.279.279,0,0,1,0,.559Zm0-.723a.274.274,0,0,1-.273-.273.281.281,0,0,1,.273-.276.275.275,0,0,1,.273.276A.269.269,0,0,1,3487.209,4392.374Zm0-.713a.276.276,0,0,1-.273-.272.281.281,0,0,1,.273-.277.275.275,0,0,1,.273.277A.27.27,0,0,1,3487.209,4391.661Zm0-.713a.274.274,0,0,1,0-.548.274.274,0,0,1,0,.548Zm0-.713a.28.28,0,0,1-.273-.274.274.274,0,0,1,.273-.273.268.268,0,0,1,.273.273A.274.274,0,0,1,3487.209,4390.234Zm0-.712a.281.281,0,0,1-.273-.273.273.273,0,0,1,.273-.273.267.267,0,0,1,.273.273A.275.275,0,0,1,3487.209,4389.522Zm0-.722a.275.275,0,0,1-.273-.274.282.282,0,0,1,.273-.275.276.276,0,0,1,.273.275A.269.269,0,0,1,3487.209,4388.8Zm0-.711a.274.274,0,0,1-.273-.274.281.281,0,0,1,.273-.275.275.275,0,0,1,.273.275A.269.269,0,0,1,3487.209,4388.088Zm0-.714a.274.274,0,0,1-.273-.273.281.281,0,0,1,.273-.275.275.275,0,0,1,.273.275A.268.268,0,0,1,3487.209,4387.374Zm0-.713a.274.274,0,0,1,0-.548.274.274,0,0,1,0,.548Zm0-.71a.282.282,0,0,1-.273-.276.274.274,0,0,1,.273-.274.269.269,0,0,1,.273.274A.276.276,0,0,1,3487.209,4385.95Zm0-.715a.28.28,0,0,1-.273-.273.274.274,0,0,1,.273-.274.268.268,0,0,1,.273.274A.274.274,0,0,1,3487.209,4385.235Z" transform="translate(-3486.345 -4384.272)" fill="#fff"/><g transform="translate(2.511 1.147)"><path d="M3498.47,4391.065h-4.934a.3.3,0,0,1,0-.605h4.934a.3.3,0,0,1,0,.605Z" transform="translate(-3491.853 -4388.11)" fill="#c8c9ca"/><path d="M3496.025,4386.907h-4.934a.3.3,0,0,1,0-.6h4.934a.3.3,0,1,1,0,.6Z" transform="translate(-3490.789 -4386.302)" fill="#c8c9ca"/><path d="M3498.345,4388.728h-7.254a.3.3,0,1,1,0-.6h7.254a.3.3,0,0,1,0,.6Z" transform="translate(-3490.789 -4387.094)" fill="#c8c9ca"/><path d="M3511.885,4391.065h-3.173a.3.3,0,1,1,0-.605h3.173a.3.3,0,0,1,0,.605Z" transform="translate(-3498.453 -4388.11)" fill="#c8c9ca"/><g transform="translate(0 4.025)"><path d="M3498.47,4398.186h-4.934a.3.3,0,1,1,0-.6h4.934a.3.3,0,1,1,0,.6Z" transform="translate(-3491.853 -4395.233)" fill="#c8c9ca"/><path d="M3496.025,4394.031h-4.934a.3.3,0,0,1,0-.605h4.934a.3.3,0,0,1,0,.605Z" transform="translate(-3490.789 -4393.426)" fill="#c8c9ca"/><path d="M3498.345,4395.848h-7.254a.3.3,0,0,1,0-.6h7.254a.3.3,0,0,1,0,.6Z" transform="translate(-3490.789 -4394.216)" fill="#c8c9ca"/></g></g><path d="M3504.914,4385.09H3490a.808.808,0,0,0-.808.807v6.738a.809.809,0,0,0,.808.807h14.918a.809.809,0,0,0,.807-.807V4385.9A.808.808,0,0,0,3504.914,4385.09Zm.564.807v1.294h-6.554v-1.859h5.989A.565.565,0,0,1,3505.478,4385.9Zm-6.554,5.359v-1.5h6.554v1.5Zm0-1.617v-2.327h6.554v2.327Zm-8.929-4.307h8.688v3.863h-9.253v-3.3A.566.566,0,0,1,3490,4385.332Zm-.565,7.3v-3.318h9.253v3.882H3490A.566.566,0,0,1,3489.43,4392.635Z" transform="translate(-3487.582 -4384.627)" fill="#ed85a7"/></g><g transform="translate(86.455 27.461)"><path d="M3627.44,4322.112c1.9-2.815,2.738-7.255,3.021-9.895a16.6,16.6,0,0,0,.062-1.675,21.885,21.885,0,0,0-1.054,3.888c-.525,2.629-1.442,6.8-3.767,8.444a84.441,84.441,0,0,1-8,5.024s.06.2.165.575C3621.423,4326.494,3626.576,4323.4,3627.44,4322.112Z" transform="translate(-3617.701 -4310.542)" fill="#fff"/><path d="M3640.694,4312.9a22.716,22.716,0,0,1-4.117,13.564c-2.642,3.444-4.312,4.2-6.8,5.94a66.415,66.415,0,0,1-8.131,4.208c.131.354.222.592.222.592a56.842,56.842,0,0,0,9.921-5.366,20.421,20.421,0,0,0,5.583-5.433C3641.077,4320.716,3641.323,4316.587,3640.694,4312.9Z" transform="translate(-3619.418 -4311.568)" fill="#fff"/></g><g transform="translate(122.107 104.739)"><path d="M3681.31,4454.175a4.405,4.405,0,0,1,2.8-.244c.1-.324.2-.661.3-1a4.709,4.709,0,0,0-3.1.1C3681.322,4453.437,3681.327,4453.823,3681.31,4454.175Z" transform="translate(-3681.018 -4449.658)" fill="#00254d"/><path d="M3684.477,4449.584c.232-.819.435-1.561.56-2.024a7.8,7.8,0,0,0-4.24.127c.076.536.174,1.338.237,2.172A7.67,7.67,0,0,1,3684.477,4449.584Z" transform="translate(-3680.797 -4447.309)" fill="#00254d"/></g><path d="M3636.118,4297.924a4.409,4.409,0,0,1-1.7,2.26s6.378,1.18,6.066,5.126c0,0,3.131-.564,4.071.877C3644.56,4306.187,3644.962,4300.059,3636.118,4297.924Z" transform="translate(-3538.52 -4277.592)" fill="#fff"/><path d="M3616.08,4298.4s-4.509,2-5.386,3.57l-.564-.627s.814-1.878,5.074-3.757C3615.2,4297.582,3616.143,4298.333,3616.08,4298.4Z" transform="translate(-3527.953 -4277.444)" fill="#fff"/></g><path d="M3630.7,4311.641s-.94,9.206.25,11.837l.564.126,1.816-1.817a58.928,58.928,0,0,1-.125-7.641l2.255.313.313-2.568S3631.262,4311.515,3630.7,4311.641Z" transform="translate(-3536.746 -4283.548)" fill="#fff"/><path d="M3613.435,4311.417s4.858-.338,5.926.029c0,0,.366,11.189-.481,12.58l-2.152-.126.219-10.366-3.436.04Z" transform="translate(-3529.391 -4283.399)" fill="#fff"/><path d="M3642.533,4331.6l-3.256-2.317s-3.446,5.887-7.641,7.453l2.379,3.507,3.946-3.006,2.881-2.944Z" transform="translate(-3537.307 -4291.233)" fill="#fff"/><path d="M3601.221,4323.19a12.336,12.336,0,0,1-.883,3.237c-.509,1.055-2.076,2.43-4.087,3.82l1.079.958c6.138-2.818,5.762-7.767,5.762-7.767Z" transform="translate(-3521.916 -4288.583)" fill="#fff"/><path d="M3622.647,4262.546c-3.5-1.112-5.83-.607-8.16.848-1.982,1.242-2.476,2.926-3,4.38l-.023.214s4.259-1.128,10.96.5a4.212,4.212,0,0,1,3.568-3.723A6.752,6.752,0,0,0,3622.647,4262.546Z" transform="translate(-3528.532 -4261.942)" fill="#fff"/><g transform="translate(9.001 38.616)"><rect width="4.076" height="1.79" rx="0.895" transform="translate(2.996 24.969)" fill="#3d3d3d"/><rect width="4.076" height="1.79" rx="0.895" transform="translate(35.639 24.969)" fill="#3d3d3d"/><path d="M361.713,1362.278a1.416,1.416,0,0,0-1.416,1.417v22.336a1.416,1.416,0,0,0,1.416,1.417h32.125v-25.169Z" transform="translate(-359.932 -1362.227)" fill="#4d4d4d"/><path d="M3.091,0H23.37a3.092,3.092,0,0,1,3.092,3.092v9.034a3.091,3.091,0,0,1-3.091,3.091H3.091A3.091,3.091,0,0,1,0,12.126V3.091A3.091,3.091,0,0,1,3.091,0Z" transform="translate(3.905 6.298)" fill="#e6e6e6"/><path d="M603.866,1362.278h-7.189v25.169h7.189a1.416,1.416,0,0,0,1.416-1.417v-22.336A1.416,1.416,0,0,0,603.866,1362.278Z" transform="translate(-562.77 -1362.227)" fill="#333"/><g transform="translate(34.629 4.817)"><g transform="translate(0 0)"><circle cx="2.98" cy="2.98" r="2.98" transform="translate(0 5.804) rotate(-76.838)" fill="#4d4d4d"/><circle cx="2.551" cy="2.551" r="2.551" transform="translate(0.516 5.483) rotate(-76.821)" fill="#333"/><circle cx="2.367" cy="2.367" r="2.367" transform="translate(0.716 5.313) rotate(-76.168)" fill="#4d4d4d"/><path d="M622.57,1402.787h-.682a8.009,8.009,0,0,0-.043,5.177h.729A9.334,9.334,0,0,0,622.57,1402.787Z" transform="translate(-618.663 -1401.805)" fill="#333"/></g><g transform="translate(0 8.475)"><circle cx="2.98" cy="2.98" r="2.98" transform="translate(0 5.804) rotate(-76.838)" fill="#4d4d4d"/><circle cx="2.551" cy="2.551" r="2.551" transform="translate(0.516 5.483) rotate(-76.821)" fill="#333"/><circle cx="2.367" cy="2.367" r="2.367" transform="translate(0.736 5.346) rotate(-76.813)" fill="#4d4d4d"/><path d="M614.009,1476.4v-.682a8.009,8.009,0,0,0-5.177-.042v.729A9.333,9.333,0,0,0,614.009,1476.4Z" transform="translate(-607.829 -1472.492)" fill="#333"/></g></g><rect width="25.614" height="2.036" transform="translate(4.33)" fill="#4d4d4d"/><path d="M391.569,1365.3h-3.9a60.369,60.369,0,0,1-25.613,0h-3.9a.426.426,0,0,1-.426-.426v-2.49a.458.458,0,0,1,.458-.458h3.871a56.913,56.913,0,0,0,25.613,0h3.871a.458.458,0,0,1,.458.458v2.49A.426.426,0,0,1,391.569,1365.3Z" transform="translate(-357.723 -1361.921)" fill="#333"/><g transform="translate(5.165 10.824)"><path d="M406.176,1445.731h11.646a.4.4,0,0,0,.376-.558l-2.349-5.343a.394.394,0,0,1-.033-.158V1438.6a.4.4,0,0,0-.409-.4H396.945a.4.4,0,0,0-.409.4v1.065a.389.389,0,0,1-.033.158l-2.349,5.348a.4.4,0,0,0,.376.558Z" transform="translate(-394.12 -1438.202)" fill="none" stroke="#b3b3b3" stroke-linecap="round" stroke-linejoin="round" stroke-width="1"/><line y2="7.529" transform="translate(12.056 0)" fill="none" stroke="#b3b3b3" stroke-linecap="round" stroke-linejoin="round" stroke-width="1"/><path d="M461.354,1438.2v1.548l-.731,5.982" transform="translate(-451.187 -1438.202)" fill="none" stroke="#b3b3b3" stroke-linecap="round" stroke-linejoin="round" stroke-width="1"/><path d="M444.166,1438.2v1.561l-1.505,5.968" transform="translate(-435.773 -1438.202)" fill="none" stroke="#b3b3b3" stroke-linecap="round" stroke-linejoin="round" stroke-width="1"/><path d="M427.89,1438.2v1.548l-1.912,5.982" transform="translate(-421.457 -1438.202)" fill="none" stroke="#b3b3b3" stroke-linecap="round" stroke-linejoin="round" stroke-width="1"/><path d="M411.324,1438.2v1.548l-2.376,5.982" transform="translate(-406.844 -1438.202)" fill="none" stroke="#b3b3b3" stroke-linecap="round" stroke-linejoin="round" stroke-width="1"/><path d="M492.4,1438.2v1.548l.731,5.982" transform="translate(-478.45 -1438.202)" fill="none" stroke="#b3b3b3" stroke-linecap="round" stroke-linejoin="round" stroke-width="1"/><path d="M504.9,1438.2v1.561l1.505,5.968" transform="translate(-489.181 -1438.202)" fill="none" stroke="#b3b3b3" stroke-linecap="round" stroke-linejoin="round" stroke-width="1"/><path d="M518.715,1438.2v1.548l1.912,5.982" transform="translate(-501.035 -1438.202)" fill="none" stroke="#b3b3b3" stroke-linecap="round" stroke-linejoin="round" stroke-width="1"/><path d="M532.476,1438.2v1.548l2.376,5.982" transform="translate(-512.844 -1438.202)" fill="none" stroke="#b3b3b3" stroke-linecap="round" stroke-linejoin="round" stroke-width="1"/></g></g><g transform="translate(51.379 17.185)"><g transform="translate(8.514 78.799)"><path d="M1165.161,739.375a14.459,14.459,0,0,0-.145,1.931h3.436a14.459,14.459,0,0,0-.145-1.931,3.667,3.667,0,0,1-3.146,0Z" transform="translate(-1165.016 -738.153)" fill="#bab9b9"/><path d="M1167.848,728.771h-1.36s-.114.5-.214,1.222a3.667,3.667,0,0,0,3.146,0c-.1-.72-.214-1.222-.214-1.222Z" transform="translate(-1166.13 -728.771)" fill="#a6a5a5"/></g><path d="M0,0H1.166a0,0,0,0,1,0,0V0A.339.339,0,0,1,.827.339H.339A.339.339,0,0,1,0,0V0A0,0,0,0,1,0,0Z" transform="translate(1.058 87.685)" fill="#8c8c8c"/><path d="M.339,0H.827a.339.339,0,0,1,.339.339v0a0,0,0,0,1,0,0H0a0,0,0,0,1,0,0v0A.339.339,0,0,1,.339,0Z" transform="translate(19.405 88.024) rotate(180)" fill="#8c8c8c"/><path d="M0,0H1.166a0,0,0,0,1,0,0V0A.339.339,0,0,1,.827.339H.339A.339.339,0,0,1,0,0V0A0,0,0,0,1,0,0Z" transform="translate(4.495 87.685)" fill="#8c8c8c"/><path d="M0,0H1.166a0,0,0,0,1,0,0V0A.339.339,0,0,1,.827.339H.339A.339.339,0,0,1,0,0V0A0,0,0,0,1,0,0Z" transform="translate(7.931 87.685)" fill="#8c8c8c"/><path d="M0,0H1.166a0,0,0,0,1,0,0V0A.339.339,0,0,1,.827.339H.339A.339.339,0,0,1,0,0V0A0,0,0,0,1,0,0Z" transform="translate(11.367 87.685)" fill="#8c8c8c"/><path d="M0,0H1.166a0,0,0,0,1,0,0V0A.339.339,0,0,1,.827.339H.339A.339.339,0,0,1,0,0V0A0,0,0,0,1,0,0Z" transform="translate(14.803 87.685)" fill="#8c8c8c"/><path d="M1110.87,796.968h-19.033c-.351,0-.651-.091-.715-.408v.329a.733.733,0,0,0,.73.746h19a.733.733,0,0,0,.73-.746v-.329C1111.521,796.877,1111.221,796.968,1110.87,796.968Z" transform="translate(-1091.122 -709.951)" fill="#bab9b9"/><g transform="translate(4.811 61.132)"><path d="M1154.747,709.722a4.888,4.888,0,0,1-3.279-1.162c.506,1.727,1.612,3.054,3.279,3.054s2.774-1.327,3.279-3.054A4.889,4.889,0,0,1,1154.747,709.722Z" transform="translate(-1149.326 -693.222)" fill="#c44823"/><path d="M1143.706,576.428h-1.278l-.495-.557a1.307,1.307,0,0,0-.976-.438h-5.314a1.306,1.306,0,0,0-.976.438l-.5.557h-1.278c-.2,4.03,1.625,12.315,2.04,14.021q.04.163.087.322a5.207,5.207,0,0,0,6.558,0c.031-.106.06-.213.087-.322C1142.081,588.743,1143.9,580.458,1143.706,576.428Z" transform="translate(-1132.879 -575.433)" fill="#9f3718"/></g><path d="M1148.131,607.031c1.032,0,2.113-.442,2.3-.978a87.409,87.409,0,0,0,1.832-10.857,1.466,1.466,0,0,0-1.458-1.616h-5.349A1.466,1.466,0,0,0,1144,595.2a87.468,87.468,0,0,0,1.831,10.857c.188.536,1.269.978,2.3.978Z" transform="translate(-1137.9 -530.357)" fill="#6d6d6d"/><path d="M.4,0H1.511a.4.4,0,0,1,.4.4v0a.4.4,0,0,1-.4.4H.4A.4.4,0,0,1,0,.4v0A.4.4,0,0,1,.4,0Z" transform="translate(9.278 61.751)" fill="#f0f0f0"/><g transform="translate(4.826)"><path d="M1165.783,45.689a.623.623,0,0,0-.088-.267,1.123,1.123,0,0,0-1.963,0,.622.622,0,0,0-.088.267c-.119,4.04-.574,23.473-.912,37.1h3.962C1166.358,69.162,1165.9,49.729,1165.783,45.689Z" transform="translate(-1159.308 -44.844)" fill="#c44823"/><path d="M1141.754,462.974a7.186,7.186,0,0,1-.983-3.995c-.017-.077-.068-1.757-.141-4.466H1136.2c-.073,2.709-.124,4.389-.141,4.466a7.185,7.185,0,0,1-.983,3.995c-.885,1.257-1.868,2.436-2.065,6.466h1.278l.495-.557a1.306,1.306,0,0,1,.976-.438h5.314a1.307,1.307,0,0,1,.976.438l.495.557h1.278C1143.623,465.411,1142.639,464.231,1141.754,462.974Z" transform="translate(-1133.007 -407.314)" fill="#c44823"/><path d="M1165.053,380.586h-4c-.074,2.976-.142,5.647-.2,7.782h4.395C1165.194,386.233,1165.126,383.562,1165.053,380.586Z" transform="translate(-1157.647 -341.903)" fill="#c44823"/><path d="M1165.1,448.126h-4.395q-.01.38-.02.736h4.434Q1165.11,448.506,1165.1,448.126Z" transform="translate(-1157.497 -401.662)" fill="#bab9b9"/><path d="M1166.555,374.2h-3.962q-.009.371-.018.736h4Q1166.565,374.57,1166.555,374.2Z" transform="translate(-1159.168 -336.252)" fill="#bab9b9"/></g><path d="M1174.618,104.249a.692.692,0,0,1-.692-.692v-1.206a.692.692,0,0,1,1.383,0v1.206A.692.692,0,0,1,1174.618,104.249Z" transform="translate(-1164.386 -95.114)" fill="#666"/><g transform="translate(9.805 6.811)"><path d="M1177.076,104.384a.427.427,0,0,0-.854,0v.6h.854Z" transform="translate(-1176.222 -103.957)" fill="gray"/><path d="M1176.222,112.9v.6a.427.427,0,0,0,.854,0v-.6Z" transform="translate(-1176.222 -111.866)" fill="#666"/></g><path d="M1173.944,430.669a.7.7,0,1,1,.7.7A.7.7,0,0,1,1173.944,430.669Z" transform="translate(-1164.402 -385.595)" fill="#666"/><circle cx="0.423" cy="0.423" r="0.423" transform="translate(9.821 44.651)" fill="#bab9b9"/><g transform="translate(6.978 64.11)"><path d="M1161.227,631.539c.18.938.385,1.921.618,2.932a.719.719,0,0,0,.43.505,3,3,0,0,0,2.214,0,.719.719,0,0,0,.43-.505c.717-3.114,1.171-5.962,1.448-8.065Z" transform="translate(-1160.128 -623.51)" fill="#1f1f1f"/><path d="M1158.192,601.915a.579.579,0,0,0-.576-.639h-5.349a.579.579,0,0,0-.576.639c.156,1.519.482,4.2,1.1,7.39l5.14-5.134C1158.045,603.27,1158.131,602.5,1158.192,601.915Z" transform="translate(-1151.687 -601.276)" fill="#515151"/></g><path d="M1111.565,755.931l-.348-1.706a2.486,2.486,0,0,0-1.633-1.768l-5.564-1.6a.827.827,0,0,0-.94.336.61.61,0,0,1-.546.236h-2.361a.61.61,0,0,1-.546-.236.827.827,0,0,0-.94-.336l-5.564,1.6a2.485,2.485,0,0,0-1.634,1.768l-.348,1.706c-.11.447.235.568.695.568h19.033C1111.331,756.5,1111.675,756.378,1111.565,755.931Z" transform="translate(-1091.122 -669.482)" fill="#c44823"/></g></g></g></svg>