<svg xmlns="http://www.w3.org/2000/svg" width="42.041" height="39.395" viewBox="0 0 42.041 39.395"><g transform="translate(-563 -2022.605)"><g transform="translate(563 2027)" fill="none"><path d="M4,0H32a4,4,0,0,1,4,4V31a4,4,0,0,1-4,4H4a4,4,0,0,1-4-4V4A4,4,0,0,1,4,0Z" stroke="none"/><path d="M 4 4 L 4.000005722045898 4 C 4.000003814697266 4.000001907348633 4.000001907348633 4.000003814697266 4 4 L 4 30.9999942779541 C 4.000001907348633 30.99999618530273 4.000003814697266 30.99999809265137 4 31 L 31.9999942779541 31 C 31.99999618530273 30.99999809265137 31.99999809265137 30.99999618530273 32 31 L 32 4.000005722045898 C 31.99999809265137 4.000003814697266 31.99999618530273 4.000001907348633 32 4 L 4 4 M 4 0 L 32 0 C 34.20914077758789 0 36 1.790859222412109 36 4 L 36 31 C 36 33.20914077758789 34.20914077758789 35 32 35 L 4 35 C 1.790859222412109 35 0 33.20914077758789 0 31 L 0 4 C 0 1.790859222412109 1.790859222412109 0 4 0 Z" stroke="none" fill="#ccc"/></g><path d="M102.054,35.938a3.444,3.444,0,0,1-2.614-1.2L91.177,25.1a3.443,3.443,0,0,1,5.228-4.481l5.4,6.3L118.878,6.332c2.642-3.7,5.408-1.652,2.754,2.065L104.854,34.5a3.444,3.444,0,0,1-2.649,1.438C102.154,35.936,102.1,35.938,102.054,35.938Z" transform="translate(482.332 2018.226)" fill="#eb6d4e"/></g></svg>