<svg xmlns="http://www.w3.org/2000/svg" width="112.128" height="25.032" viewBox="0 0 112.128 25.032"><g transform="translate(-84.55 -85.039)"><g transform="translate(84.55 85.039)"><path d="M119.563,88.948a4.479,4.479,0,0,0-3.162-3.161c-2.789-.747-13.971-.747-13.971-.747s-11.182,0-13.971.747A4.479,4.479,0,0,0,85.3,88.948c-.747,2.789-.747,8.607-.747,8.607s0,5.819.747,8.607a4.478,4.478,0,0,0,3.162,3.161c2.789.747,13.971.747,13.971.747s11.182,0,13.971-.747a4.478,4.478,0,0,0,3.162-3.161c.747-2.789.747-8.607.747-8.607S120.31,91.736,119.563,88.948Z" transform="translate(-84.55 -85.039)" fill="#fff"/><path d="M133.144,120.064l9.29-5.364-9.29-5.364Z" transform="translate(-118.84 -102.184)" fill="red"/></g><g transform="translate(123.847 86.023)"><g transform="translate(0 0)"><path d="M256.2,125.192a3.893,3.893,0,0,1-1.509-2.225,14.55,14.55,0,0,1-.448-4.015v-2.276a13.194,13.194,0,0,1,.511-4.066,4.079,4.079,0,0,1,1.6-2.238,5.177,5.177,0,0,1,2.851-.7,4.864,4.864,0,0,1,2.788.716,4.1,4.1,0,0,1,1.534,2.237,13.723,13.723,0,0,1,.486,4.053v2.276a13.959,13.959,0,0,1-.473,4.028A3.957,3.957,0,0,1,262,125.2a6.29,6.29,0,0,1-5.8-.013Zm3.964-2.455a7.648,7.648,0,0,0,.294-2.506v-4.884a7.558,7.558,0,0,0-.294-2.468,1.053,1.053,0,0,0-1.036-.78,1.037,1.037,0,0,0-1.01.78,7.543,7.543,0,0,0-.294,2.468v4.884a7.959,7.959,0,0,0,.281,2.506,1.029,1.029,0,0,0,1.023.767A1.051,1.051,0,0,0,260.159,122.737Z" transform="translate(-243.587 -103.403)" fill="#fff"/><path d="M437.13,119.017v.793a20.841,20.841,0,0,0,.089,2.263,2.145,2.145,0,0,0,.371,1.1,1.055,1.055,0,0,0,.869.345,1.1,1.1,0,0,0,1.087-.614,5.337,5.337,0,0,0,.32-2.046l3.043.179a4.806,4.806,0,0,1,.026.563,4.158,4.158,0,0,1-1.189,3.248,4.843,4.843,0,0,1-3.363,1.074,4,4,0,0,1-3.657-1.637,9.583,9.583,0,0,1-1.049-5.064v-2.736a9.477,9.477,0,0,1,1.087-5.153,4.144,4.144,0,0,1,3.721-1.624,4.919,4.919,0,0,1,2.788.665,3.57,3.57,0,0,1,1.368,2.071,14.982,14.982,0,0,1,.4,3.887v2.685Zm.447-6.6a2.156,2.156,0,0,0-.358,1.087,21.17,21.17,0,0,0-.089,2.289v1.125h2.583v-1.125a19.062,19.062,0,0,0-.1-2.289,2.191,2.191,0,0,0-.371-1.1,1.025,1.025,0,0,0-.831-.32A1.006,1.006,0,0,0,437.577,112.419Z" transform="translate(-370.206 -103.431)" fill="#fff"/><path d="M222.067,105.575l-4.015-14.5h3.5l1.406,6.572q.537,2.43.793,4.143h.1q.179-1.227.793-4.117l1.457-6.6h3.5l-4.066,14.5v6.956h-3.478Z" transform="translate(-218.052 -90.283)" fill="#fff"/><path d="M303.208,110.711v15.676h-2.762l-.307-1.918h-.077a3.611,3.611,0,0,1-3.376,2.174,2.651,2.651,0,0,1-2.3-1.023,5.49,5.49,0,0,1-.741-3.2V110.711h3.529v11.508a3.513,3.513,0,0,0,.23,1.5.8.8,0,0,0,.767.447,1.565,1.565,0,0,0,.882-.281,1.741,1.741,0,0,0,.627-.716V110.711Z" transform="translate(-271.393 -104.139)" fill="#fff"/><path d="M364.7,110.711v15.676h-2.762l-.307-1.918h-.077a3.611,3.611,0,0,1-3.376,2.174,2.651,2.651,0,0,1-2.3-1.023,5.488,5.488,0,0,1-.741-3.2V110.711h3.529v11.508a3.514,3.514,0,0,0,.23,1.5.8.8,0,0,0,.767.447,1.566,1.566,0,0,0,.882-.281,1.741,1.741,0,0,0,.627-.716V110.711Z" transform="translate(-314.787 -104.139)" fill="#fff"/><path d="M333.641,93.915h-3.5v18.617h-3.452V93.915h-3.5V91.077h10.459Z" transform="translate(-292.236 -90.284)" fill="#fff"/><path d="M404.414,97.461a4.033,4.033,0,0,0-1.036-2.148,2.783,2.783,0,0,0-1.969-.665,3.266,3.266,0,0,0-1.816.55,3.736,3.736,0,0,0-1.3,1.445h-.026v-8.26h-3.4v22.248h2.915l.358-1.483h.077a2.993,2.993,0,0,0,1.227,1.253,3.637,3.637,0,0,0,1.816.46,2.779,2.779,0,0,0,2.634-1.65,11.871,11.871,0,0,0,.844-5.153v-2.481A20.606,20.606,0,0,0,404.414,97.461Zm-3.235,6.394a19.836,19.836,0,0,1-.141,2.685,2.9,2.9,0,0,1-.473,1.381,1.093,1.093,0,0,1-.9.409,1.633,1.633,0,0,1-.805-.2,1.54,1.54,0,0,1-.6-.614v-8.9a2.226,2.226,0,0,1,.614-1.049,1.358,1.358,0,0,1,.946-.409.955.955,0,0,1,.831.422A3.244,3.244,0,0,1,401.063,99a26.518,26.518,0,0,1,.115,2.838Z" transform="translate(-342.817 -88.383)" fill="#fff"/></g></g></g></svg>