<svg xmlns="http://www.w3.org/2000/svg" xmlns:xlink="http://www.w3.org/1999/xlink" width="240" height="145" viewBox="0 0 240 145"><defs><clipPath id="a"><rect width="240" height="145" rx="4" transform="translate(140 3937)" fill="#f7f3e5"/></clipPath></defs><g transform="translate(-140 -3937)" clip-path="url(#a)"><g transform="translate(-177.146 3801.601)"><g transform="translate(365.461 144.053)"><path d="M391.882,817.421c-.851,5.07-12.705,13.336-16.134,14.371-11.207,3.385-10.749-7.267-9.9-12.337a58.637,58.637,0,0,1,2.033-5.831c2.017-4.51,6.41-7.387,10.033-6.779C382.229,807.569,392.733,812.352,391.882,817.421Z" transform="translate(-365.461 -666.857)" fill="#ec8275"/><path d="M557.226,172.435c.842-6.048,2.742-11.686,7.2-16.555,3.393-3.7,6.946-7.714,11.709-9.647,10.333-4.193,21.77-2,31.033,3.729a17.419,17.419,0,0,1,8.438,12.429c1.26,6.561,1.091,13.211.812,19.852-.25,5.914-1.03,11.737-1.786,17.577a61.248,61.248,0,0,0,.248,15.744c.725,4.989,1.97,9.71,1.8,14.843-.124,3.8-1.7,8.222-4.757,10.631a11.165,11.165,0,0,1-4.608,2.236c-1.63.346-3.492-.157-5.042.226a1.993,1.993,0,0,0,1.636-1.339c-.892-.76-1.909.24-2.864.5a3.744,3.744,0,0,0,2.352-3.964,20.623,20.623,0,0,1-5.588,2.852c-3.031,1.061-6.138,1.842-9.2,2.817-.513.165-1.3.731-1.728.84-6.732,1.712-14.178-1.722-19.149-5.931-2.51-2.126-2.1-4-2.582-6.83-2.983,2.6-2.782,4.056-1.675,7.246a.349.349,0,0,0-.423.055,3.024,3.024,0,0,0,3.041,1.212c-2.974,1.589-7.029-1.152-8.758-3.574a25.291,25.291,0,0,1-4.161-9.1c-1.038-5.322.388-10.151,1.262-15.263a104.885,104.885,0,0,0,1.716-17.811c-.009-4.731.293-9.5.43-14.234A78.983,78.983,0,0,1,557.226,172.435Z" transform="translate(-513.268 -144.053)" fill="#4d3839"/><path d="M613.939,1170.479l-1.648-31.2-70.452-.911-1.612,32.354Z" transform="translate(-503.331 -928.457)" fill="#0d0002"/><path d="M454.258,594.878c-.033.077-1.9.294-2.055.331-4.738,1.191-11.949,4.786-14.979,8.722a80.124,80.124,0,0,0-5.48,8.312c-3.922,6.607-8.959,12.648-13.43,18.9-1.565,2.189-3.9,5.08-4.762,7.692-1.2,3.634,1.888,7.018-1.089,9.85,2.445,1.909,5.895,1.86,8.37,3.682,1.748,1.287,3.292,3.681,4.6,5.353,1.409-.823,1.338-2.332,2.272-3.115,1.421-1.19,3.379-1.214,4.948-2.08a12.214,12.214,0,0,0,3.97-3.912c2.291-3.256,3.515-7.111,5.163-10.7a113.726,113.726,0,0,0,4.042-11.313,168.728,168.728,0,0,0,4.8-16.792C451.787,604.633,452.183,599.763,454.258,594.878Z" transform="translate(-402.54 -499.703)" fill="#6e59a0"/><path d="M655.634,473.851l14.208-.293s-.9-.321-4.608-3.811-5.456-28.137-5.456-28.137H655.2v.048l0-.048h-4.58s-1.744,24.649-5.452,28.137l-3.709,3.49,13.308.613v.04l.436-.019.435.019Z" transform="translate(-583.189 -378.792)" fill="#edbf98"/><path d="M602.341,686.908l-9.591-55.071s6.632-48.259,6.679-48.6c.023-.163-.839-.861-.947-.972l-2.326-2.38c-2.406-2.462-4.574-5.376-7.7-6.926a7.669,7.669,0,0,1-3.579-4.3c-.63-1.468-2.089-3.544-3.845-3.7a10.461,10.461,0,0,0-2.261.2c-1.136.138-2.259.561-3.406.59a19.77,19.77,0,0,0-2.367.076c-2.258.316-4.522.166-6.8.256a86.9,86.9,0,0,1-11.547.114c-1.618-.151-3.18-.764-4.8-.837-2.426-.11-2.772,1.843-3.251,3.614-.982,3.643-4.069,5.5-6.836,7.761l-3.749,3.064a8.836,8.836,0,0,0-1.531,1.252l-5.1,6.909,9.98,50.194L531.889,686Z" transform="translate(-494.78 -476.082)" fill="#6e59a0"/><rect width="55.604" height="74.262" transform="translate(33.963 185.78) rotate(-45.767)" fill="#00a7bd"/><g transform="translate(46.982 145.939)"><rect width="39.56" height="11.839" transform="translate(0 41.32) rotate(-45.766)" fill="#fff"/><path d="M752.789,887.138l-2.806,2.883-53.209-51.8,2.806-2.885Z" transform="translate(-673.81 -835.333)" fill="#fcb046"/></g><path d="M719.5,1003.933l-35.356,25.738a5.179,5.179,0,0,1-1.87.509,9.708,9.708,0,0,1-1.628.141c-.98,0-1.952-.139-2.931-.169a13.964,13.964,0,0,0-4.016.463,14.863,14.863,0,0,0-1.909.656c-.574.241-1,.595-1.55.851a9.539,9.539,0,0,1-4.736,1.077c-1.326-.128-2.656-.3-3.982-.442-.449-.046-1.279-.236-1.45.3-.243.77.873,1.474,1.371,1.844a9.924,9.924,0,0,0,4,1.471,8.159,8.159,0,0,0,3.806.142c.017.179-.056.249-.122.423a22.711,22.711,0,0,1-1.1,2.46c-.221.423-.486.825-.7,1.249-.145.282-.249.745-.568.886s-1.062-1.1-1.306-1.309a2.987,2.987,0,0,0-1.755-.9c.514,1.9-.21,4.956-.8,6.815-.32,1.006-.692,2.445-.155,3.436.829,1.525,3.04.916,4.241.256-.235.129-.545,1.21-.636,1.48a1.431,1.431,0,0,0,.167,1.532c.7.806,2.585.406,3.3-.208-.19.736-1.557,3.128-.76,3.646.437.284,1.576-.108,2.38-.518a4.179,4.179,0,0,0,.736-.453c-.046.049-.108.147-.169.215a3.5,3.5,0,0,0,3.269,1.921c1.739-.344,3.664-2.917,4.511-4.371,1.127-1.937,2.1-3.918,3.309-5.8.7-1.086,6.258-11.584,6.258-11.584l35.516-22.722Zm-44.04,50.958c-.567.328-1.609-.113-2.238-.191a4.049,4.049,0,0,1,2.915-2.129C676.212,1053.274,676.168,1054.48,675.46,1054.891Z" transform="translate(-597.849 -822.4)" fill="#ec8275"/><path d="M897.328,917.211l4.917,22.807,11.953-1-4.612-23.242Z" transform="translate(-785.044 -752.854)" fill="#ec8275"/><path d="M931.4,1000.507a6.288,6.288,0,0,1-6.292,6.449c-3.89,0-5.977-3.5-5.977-6.764s1.359-5.945,5.248-5.945S931.4,997.24,931.4,1000.507Z" transform="translate(-802.245 -814.759)" fill="#ec8275"/><path d="M802.447,601.026s7.355,0,17.178,17.092a31.519,31.519,0,0,0,2.667,4.071c3.216,4.037,5.44,8.663,7.942,13.157,3.5,6.284,7.457,12.7,8.026,20.036a34.023,34.023,0,0,1-.125,6.47c-.291,2.393-2.29,4.324-1.977,6.849.157,1.269.706,2.166.694,3.535-1.309.673-3.766.87-5.256,1.034a57.468,57.468,0,0,1-6.849.357c-.534-.005-1.656.177-2.045-.3-1.1-1.352.417-3.085-1.166-4.291-1.609-1.224-3.877-.884-5.277-2.591-1.374-1.675-1.56-4.117-2.032-6.149-.851-3.659-1.536-7.375-2.206-11.081a53.634,53.634,0,0,0-1.613-6.721c-.54-1.708-1.388-3.182-1.289-5.009a16.586,16.586,0,0,0,.081-3.142C807.846,623.352,804.112,611.973,802.447,601.026Z" transform="translate(-710.193 -504.553)" fill="#6e59a0"/><path d="M675.738,1185.86a.488.488,0,0,1-.385-.787l2.489-3.2a.488.488,0,1,1,.77.6l-2.488,3.2A.487.487,0,0,1,675.738,1185.86Z" transform="translate(-609.849 -962.627)" fill="#cb6362"/><path d="M690.873,1213.027a.488.488,0,0,1-.344-.834l1.662-1.655a.488.488,0,1,1,.688.692l-1.662,1.655A.491.491,0,0,1,690.873,1213.027Z" transform="translate(-621.789 -985.276)" fill="#cb6362"/><path d="M705.15,1226.259a.488.488,0,0,1-.344-.833l1.662-1.655a.488.488,0,0,1,.689.692l-1.663,1.654A.484.484,0,0,1,705.15,1226.259Z" transform="translate(-633.052 -995.715)" fill="#cb6362"/><path d="M547.559,706.643a.732.732,0,0,1-.713-.574l-.292-1.31a.737.737,0,0,1,.014-.37l6.664-22.158a.731.731,0,1,1,1.4.422l-6.609,21.974.25,1.125a.731.731,0,0,1-.555.872A.713.713,0,0,1,547.559,706.643Z" transform="translate(-508.309 -568.203)" fill="#514177"/><path d="M835.737,730.237a.732.732,0,0,1-.726-.655c-.055-.514-1.338-12.63-.827-15.691a.732.732,0,1,1,1.443.24c-.478,2.866.826,15.172.839,15.3a.733.733,0,0,1-.649.805C835.788,730.234,835.763,730.237,835.737,730.237Z" transform="translate(-735.135 -593.107)" fill="#514177"/></g><path d="M520.71,391.915a2.229,2.229,0,0,0,.16.218c3.472,4.19,8.184-3.607,8.284-6.432.088-2.524-.8-4.935-.847-7.445a58.552,58.552,0,0,1,.314-10.517c.171-1.058.763-2.009.946-3.023.276-1.554-1.4-1.332-2.294-.527-1.633,1.463-2.273,3.511-2.974,5.568a40.585,40.585,0,0,0-1.924-4.009c-.516-.924-1.722-2.345-1.916-3.353-.046-.248.141-.72.119-1.023a8.142,8.142,0,0,0-.8-2.214c-.462-1.062-.917-2.316-2.067-1.517-1.7,1.181-2.535,4.656-3.1,6.586-.659,2.255-1.3,5.063-.765,7.418.574,2.538,2.046,4.844,2.805,7.351.654,2.154,1.823,3.843,2.538,5.921a27.689,27.689,0,0,1,.646,3.753A9.708,9.708,0,0,0,520.71,391.915Z" transform="translate(-116.897 -168.298)" fill="#edbf98"/><path d="M540.5,287.859l-1.437,22.662.381,1.115s6.849,11.826,7.233,11.805a2.3,2.3,0,0,0,.954-.54L550,293.969l-7.465-7.521-1.63.382Z" transform="translate(-136.95 -112.333)" fill="#b4b6c8"/><path d="M546.511,287.152l-1.117,22.86.379,1.11s6.53,11.629,6.909,11.609a2.3,2.3,0,0,0,.96-.538l1.614-28.3-7.646-7.432Z" transform="translate(-141.946 -112.34)" fill="#dcdce2"/><path d="M558.1,327.58l-6.12-9.527,1.1-21.014,6.4,6.138Z" transform="translate(-147.144 -120.688)" fill="#53a2c7"/><path d="M416.533,371.034a18.01,18.01,0,0,0-1.772,5.565c-.069.629-26.969,66.872-27.134,67.479-1.088.13-12.294-5.473-12.294-5.473s31.63-64.549,31.775-64.881q.877-1.993,1.575-4.078a2.8,2.8,0,0,0,.069-2.418c-.66-1.717-5.491-17.948-5.51-20.128-.009-1.19,0-2.4-.126-3.575-.178-1.679-.436-2.06.366-3.544.752-1.389,1.519-2.758,2.317-4.119a6.805,6.805,0,0,1,3.094-2.526c1.34-.665,2.667-1.369,4.016-2.048.678-.342,1.722-1.182,1.956-.247.229.912-1.034,1.9-1.618,2.471a29.442,29.442,0,0,1-3.918,2.723c1.13.833,3.134.537,4.476,1.175.318.151,4.128,2.577,3.817,2.775-2.007,1.29-3.872-.233-5.783-.522a7.137,7.137,0,0,0-3.214.765,9.777,9.777,0,0,1,4.4.857c.76.366,4.525,1.134,2.435,1.875-1.6.566-3.385-.339-4.96.277a3.506,3.506,0,0,0-2.3,3.613c.3,1.385,1.86,2.485,2.8,3.506a24.463,24.463,0,0,1,3.411,4.524C415.254,356.595,417.349,369.173,416.533,371.034Z" transform="translate(-7.787 -147.175)" fill="#edbf98"/><path d="M541.348,415.07a.433.433,0,0,1-.393-.613,11.224,11.224,0,0,0-.922-10.037,19.379,19.379,0,0,0-2.3-2.972c-.559-.633-1.136-1.289-1.645-1.977a4.287,4.287,0,0,1-.7-3.2,1.7,1.7,0,0,1,.979-1.173.433.433,0,0,1,.343.795.843.843,0,0,0-.487.6,3.423,3.423,0,0,0,.56,2.459c.488.658,1.053,1.3,1.6,1.92a20.043,20.043,0,0,1,2.4,3.11,12.1,12.1,0,0,1,.959,10.832A.433.433,0,0,1,541.348,415.07Z" transform="translate(-133.986 -198.019)" fill="#cb6362"/><path d="M512.576,380.56a.423.423,0,0,1-.207-.053.432.432,0,0,1-.171-.587,33.452,33.452,0,0,1,2.3-3.589l.106-.145c.812-1.126,1.187-1.641,2.874-1.6a.432.432,0,0,1,.423.442.442.442,0,0,1-.442.424c-1.235-.026-1.4.192-2.154,1.243l-.106.148a32.6,32.6,0,0,0-2.241,3.5A.431.431,0,0,1,512.576,380.56Z" transform="translate(-115.716 -181.86)" fill="#cb6362"/><path d="M511.282,359.889a.438.438,0,0,1-.2-.048.432.432,0,0,1-.187-.582,16.811,16.811,0,0,1,2.2-2.751c.255-.283.5-.552.708-.792A2.853,2.853,0,0,1,515.8,354.6a6.027,6.027,0,0,0,1.043-.255.432.432,0,0,1,.285.816,6.877,6.877,0,0,1-1.18.292,2.025,2.025,0,0,0-1.489.833c-.211.242-.459.515-.719.8a16.949,16.949,0,0,0-2.071,2.564A.434.434,0,0,1,511.282,359.889Z" transform="translate(-114.695 -165.877)" fill="#cb6362"/><path d="M809.332,405.85a5.325,5.325,0,0,0,.009-1.288c-.02-.193-.47-2.565.393-1.96.281.2.194.492.226.768.038.326.152.645.187.977a5.03,5.03,0,0,1-.655,3.109,6.409,6.409,0,0,0-1.067,2.3,2.926,2.926,0,0,0,.179,2.105c.117.158.343.379.3.407a4.122,4.122,0,0,0-.5.527c-1.742-.965-.817-3.241-.109-4.555a10.412,10.412,0,0,0,.8-1.456A4.76,4.76,0,0,0,809.332,405.85Z" transform="translate(-348.65 -203.887)" fill="#885322"/><path d="M573.68,194.269a64.407,64.407,0,0,1-2.948-12.178c-.845-6.475,1.912-13.188,5.3-18.642,4.6-7.409,11.265-13.654,20.352-14.574,3.613-.366,7.549-1.046,11.056.254,1.478.549,2.6,1.721,4.085,2.231,1.085.375,2.257.356,3.328.761a23.176,23.176,0,0,1,10.1,7.762,23.978,23.978,0,0,1,3.226,5.569c.753,1.916.812,4.529,1.035,6.6a31.227,31.227,0,0,1-.207,6.758c-.24,2.178-.083,4.457-.72,6.56-1.818,6-6.128,11.072-10.369,15.585-4.138,4.405-9.722,8.458-15.918,9.217a39.362,39.362,0,0,1-8.141.167,36.422,36.422,0,0,1-12.2-2.819c-3.5-1.618-5.079-4.858-6.275-8.28C574.793,197.538,574.218,195.9,573.68,194.269Z" transform="translate(-161.814 -3.403)" fill="#4d3839"/><path d="M629.326,239.377a24.421,24.421,0,0,1-26.129,22.09c-13.494-.953-23.7-12.388-22.762-25.533.386-5.509,1.978-16.756,5.481-20.562,4.867-5.286,19.829-10.018,27.681-9.464C627.1,206.848,632.321,208.507,629.326,239.377Z" transform="translate(-169.542 -48.761)" fill="#edbf98"/><path d="M806.963,343.276a7.762,7.762,0,1,1-7.2-8.3A7.764,7.764,0,0,1,806.963,343.276Z" transform="translate(-336.064 -150.604)" fill="#edbf98"/><path d="M606.809,205.247a34.773,34.773,0,0,1,.363,9.061,18.264,18.264,0,0,1-.447,3.318,2.828,2.828,0,0,1,.549-.793,36.3,36.3,0,0,0,3.251-5.923,20,20,0,0,0,1.766-4.718,20.736,20.736,0,0,0,.815-4.9c-.079-4.077-1.762-7.379-2.644-11.237-1.7-7.464-8.53-12.685-15.523-14.709a36.2,36.2,0,0,0-8.564-1.37,20.2,20.2,0,0,0-3.318-.215c-1.2.142-2.343.575-3.537.746a11.528,11.528,0,0,0-4.074.92,28.1,28.1,0,0,0-8.292,6.915c-.892,1.04-2.026,1.853-2.862,2.933-.88,1.138-1.662,2.4-2.433,3.615a21.064,21.064,0,0,0-3.295,7.551c-.434,2.682-1.6,5.229-1.986,7.959a11.829,11.829,0,0,1-1.153,3.349c-.235.508-1.3,3.329-1.869,3.4,5-.6,8.989-5.459,12.408-8.6a71.172,71.172,0,0,1,11.385-8.308c3.964-2.4,8.315-4.169,12.342-6.514,1.227-.714,2.379-1.548,3.539-2.365A18.5,18.5,0,0,1,595.4,183.7c1.195-.6,1.289.2,2.038,1.2a75.425,75.425,0,0,1,4.3,6.747A39.738,39.738,0,0,1,606.809,205.247Z" transform="translate(-148.386 -23.406)" fill="#4d3839"/><path d="M629.224,312.613a2.459,2.459,0,0,1-1.469,3,2.161,2.161,0,0,1-2.771-1.535,2.457,2.457,0,0,1,1.48-3A2.16,2.16,0,0,1,629.224,312.613Z" transform="translate(-204.659 -131.676)" fill="#0d0002"/><path d="M719.431,320.369a2.46,2.46,0,0,1-1.47,3,2.166,2.166,0,0,1-2.774-1.534,2.463,2.463,0,0,1,1.482-3A2.161,2.161,0,0,1,719.431,320.369Z" transform="translate(-275.821 -137.795)" fill="#0d0002"/><path d="M669.833,336.883a.57.57,0,0,1-.4-.219c-.188-.237-.4-.466-.606-.687a3.527,3.527,0,0,1-1.307-2.933,23.24,23.24,0,0,1,1.971-4.743c.453-.938.88-1.826,1.02-2.221a.576.576,0,0,1,1.086.385c-.161.455-.582,1.326-1.068,2.336a27.122,27.122,0,0,0-1.865,4.384c-.094.785.3,1.251,1,2.006.223.24.454.486.67.764a.575.575,0,0,1-.506.927Z" transform="translate(-238.274 -143.297)" fill="#0d0002"/><path d="M645.727,388.679c-.321-.029-.636-.075-.943-.134-3.5-.68-7.284-3.458-7.422-9.221a.751.751,0,0,1,1.5-.037c.118,4.871,3.283,7.214,6.207,7.782a8.949,8.949,0,0,0,9.909-5.382.751.751,0,1,1,1.379.6A10.433,10.433,0,0,1,645.727,388.679Z" transform="translate(-214.499 -184.995)" fill="#c1143a"/><path d="M756.982,355.219a2.811,2.811,0,1,1-2.54-3.058A2.809,2.809,0,0,1,756.982,355.219Z" transform="translate(-304.439 -164.164)" fill="#e9706e"/><path d="M598.332,340.454a2.811,2.811,0,1,1-2.539-3.058A2.809,2.809,0,0,1,598.332,340.454Z" transform="translate(-179.283 -152.516)" fill="#e9706e"/><path d="M754.331,357.541a.531.531,0,0,1-.352-.178c-.651-.729-1.688-2.049-1.328-2.689a.893.893,0,0,1,.558-.428c.651-.178,1.577.247,2.767.941l.167.1.123.066c-.02-.034-.042-.068-.064-.1-.048-.078-.1-.168-.159-.266-.294-.491-.912-1.525-1.38-1.541a.546.546,0,0,1-.505-.569.539.539,0,0,1,.569-.506l.047,0c1.022.1,1.725,1.277,2.194,2.062.055.092.105.176.152.251.386.626.762,1.333.326,1.791s-1.169.115-1.82-.244c-.048-.026-.113-.063-.192-.109a8.137,8.137,0,0,0-1.621-.79,11.383,11.383,0,0,0,.971,1.319.539.539,0,0,1-.452.894Z" transform="translate(-305.39 -164.332)" fill="#e55a65"/><path d="M596.8,342.881a.531.531,0,0,1-.35-.175c-.411-.455-1.721-1.992-1.336-2.689a.9.9,0,0,1,.56-.432c.654-.177,1.577.247,2.764.939l.173.1.119.064-.062-.1c-.048-.078-.1-.165-.156-.259-.29-.49-.892-1.5-1.37-1.548l-.031,0a.538.538,0,0,1,.083-1.073c1.053.062,1.769,1.273,2.245,2.074l.145.242c.388.625.764,1.331.328,1.79s-1.169.117-1.821-.243c-.048-.026-.114-.064-.194-.112a8.083,8.083,0,0,0-1.62-.787,10.924,10.924,0,0,0,.972,1.317.538.538,0,0,1-.039.76A.53.53,0,0,1,596.8,342.881Z" transform="translate(-181.112 -152.766)" fill="#e55a65"/><path d="M693.939,468.032l-5.791.342a.7.7,0,0,1-.083-1.4l5.791-.341a.7.7,0,1,1,.082,1.4Z" transform="translate(-253.976 -254.475)" fill="#c16b61"/><path d="M801.441,400.028a1.372,1.372,0,0,1,.339-.327c.352-.231.809-.315.7-.891-.148-.748-.914-.015-1.168.257a4.226,4.226,0,0,0-1.127,1.869,9.009,9.009,0,0,0-.172,3.488,6.3,6.3,0,0,1,0,1.926,2.288,2.288,0,0,1-.829,1.131A2.359,2.359,0,0,1,798,407.9c.135.188.048.544.187.685.353.361,1.681-.6,1.9-.883a3.388,3.388,0,0,0,.574-2.249,26.387,26.387,0,0,1-.208-3.37,2.48,2.48,0,0,1,.5-1.255C801.133,400.563,801.256,400.273,801.441,400.028Z" transform="translate(-341.227 -200.716)" fill="#b76f2f"/></g></g></svg>