<svg xmlns="http://www.w3.org/2000/svg" width="40" height="40" viewBox="0 0 40 40"><g transform="translate(104.36 -260.333)"><rect width="40" height="40" rx="8.667" transform="translate(-104.36 260.333)" fill="#00b900"/><path d="M-69.861,278.574c0-6.516-6.533-11.818-14.564-11.818s-14.563,5.3-14.563,11.818c0,5.843,5.181,10.736,12.18,11.661.474.1,1.119.312,1.283.718a2.99,2.99,0,0,1,.047,1.317s-.171,1.027-.208,1.246c-.063.368-.293,1.44,1.261.785s8.388-4.938,11.443-8.455h0a10.514,10.514,0,0,0,3.122-7.272" fill="#fff"/><path d="M-87.384,275.425H-88.4a.284.284,0,0,0-.284.284v6.345a.283.283,0,0,0,.284.283h1.021a.283.283,0,0,0,.284-.283v-6.345a.284.284,0,0,0-.284-.284" fill="#00b900"/><path d="M-80.352,275.425h-1.022a.284.284,0,0,0-.283.284v3.77l-2.909-3.928a.193.193,0,0,0-.022-.028v0l-.017-.018-.006-.005-.015-.012-.007-.006-.015-.01-.009-.005-.015-.009-.009,0-.016-.007-.009,0-.017-.006-.01,0-.016,0h-.012l-.015,0h-1.046a.284.284,0,0,0-.284.284v6.345a.283.283,0,0,0,.284.283H-84.8a.283.283,0,0,0,.284-.283v-3.769l2.912,3.933a.3.3,0,0,0,.072.07l0,0,.017.011.008,0,.014.007.014,0,.008,0,.02.006h0a.284.284,0,0,0,.072.009h1.022a.283.283,0,0,0,.283-.283v-6.345a.284.284,0,0,0-.283-.284" fill="#00b900"/><path d="M-89.846,280.748h-2.776v-5.039a.284.284,0,0,0-.283-.284h-1.022a.284.284,0,0,0-.284.284v6.345h0a.283.283,0,0,0,.08.2l0,0,0,0a.282.282,0,0,0,.2.079h4.081a.283.283,0,0,0,.283-.283v-1.022a.284.284,0,0,0-.283-.284" fill="#00b900"/><path d="M-74.711,277.014a.283.283,0,0,0,.283-.283v-1.022a.283.283,0,0,0-.283-.284h-4.081a.283.283,0,0,0-.2.08l0,0-.005.005a.285.285,0,0,0-.078.2h0v6.345h0a.282.282,0,0,0,.079.2l0,0,0,0a.282.282,0,0,0,.2.079h4.081a.283.283,0,0,0,.283-.283v-1.022a.284.284,0,0,0-.283-.284h-2.775v-1.072h2.775a.283.283,0,0,0,.283-.284v-1.021a.283.283,0,0,0-.283-.284h-2.775v-1.073Z" fill="#00b900"/></g></svg>