<svg xmlns="http://www.w3.org/2000/svg" width="40.39" height="40.39" viewBox="0 0 40.39 40.39"><g transform="translate(-579.109 -4408.091)"><circle cx="15" cy="15" r="15" transform="translate(584.5 4413.5)" fill="#fff"/><path d="M20.2,0a20.2,20.2,0,1,0,20.2,20.2A20.2,20.2,0,0,0,20.2,0Zm9.221,15.746q.013.3.013.6A13.1,13.1,0,0,1,16.241,29.534h0a13.121,13.121,0,0,1-7.105-2.082,9.427,9.427,0,0,0,1.106.064A9.3,9.3,0,0,0,16,25.532a4.641,4.641,0,0,1-4.33-3.22,4.62,4.62,0,0,0,2.094-.08,4.637,4.637,0,0,1-3.719-4.544c0-.021,0-.04,0-.059a4.6,4.6,0,0,0,2.1.58,4.639,4.639,0,0,1-1.435-6.188,13.16,13.16,0,0,0,9.555,4.843,4.638,4.638,0,0,1,7.9-4.227A9.3,9.3,0,0,0,31.1,11.512a4.653,4.653,0,0,1-2.038,2.564,9.245,9.245,0,0,0,2.662-.73A9.42,9.42,0,0,1,29.416,15.746Zm0,0" transform="translate(579.109 4408.091)" fill="#1da1f2"/></g></svg>