<svg xmlns="http://www.w3.org/2000/svg" width="22.083" height="17.081" viewBox="0 0 22.083 17.081"><g transform="translate(0 -63.481)"><g transform="translate(0 64)"><g transform="translate(0 0)"><path d="M7.076,65.344c3.031,2.567,8.349,7.083,9.912,8.491a.923.923,0,0,0,1.336,0c1.564-1.409,6.883-5.926,9.914-8.492a.46.46,0,0,0,.065-.635A1.827,1.827,0,0,0,26.859,64H8.456a1.827,1.827,0,0,0-1.444.709A.46.46,0,0,0,7.076,65.344Z" transform="translate(-6.615 -64.519)" fill="#fff"/><path d="M21.816,126.454a.458.458,0,0,0-.491.067c-3.361,2.849-7.651,6.5-9,7.718a1.863,1.863,0,0,1-2.568,0c-1.439-1.3-6.256-5.391-9-7.717a.46.46,0,0,0-.757.351v11.57a1.842,1.842,0,0,0,1.84,1.84h18.4a1.842,1.842,0,0,0,1.84-1.84v-11.57A.46.46,0,0,0,21.816,126.454Z" transform="translate(0 -123.72)" fill="#fff"/></g></g></g></svg>