<svg xmlns="http://www.w3.org/2000/svg" width="16.674" height="18.959" viewBox="0 0 16.674 18.959"><g transform="translate(-30.849)"><g transform="translate(30.849 0.707)"><g transform="translate(0)"><path d="M46.258,25.867l-6.282-6.282a1.666,1.666,0,0,0-2.559,2.11l-.009.044A11.624,11.624,0,0,1,34.219,27.7l-2.882,2.882a1.665,1.665,0,0,0,0,2.356l1.571,1.571a1.665,1.665,0,0,0,2.356,0l.393-.393,2.749,2.749a1.666,1.666,0,0,0,2.356-2.356l-1.178-1.178.393-.393a1.665,1.665,0,0,0,0-2.356l-.267-.267a11.625,11.625,0,0,1,4.4-1.877l.044-.009a1.668,1.668,0,0,0,2.11-.2h0A1.668,1.668,0,0,0,46.258,25.867ZM34.479,33.72a.555.555,0,0,1-.785,0l-1.571-1.571a.555.555,0,0,1,0-.785l2.748-2.749,2.356,2.356Zm5.5,1.571a.555.555,0,1,1-.785.785l-2.749-2.749.785-.785Zm-1.963-3.534c.167-.167.417-.423.811-.759l.367.367a.555.555,0,0,1,0,.785l-.393.393Zm.024-1.547-2.4-2.4a12.716,12.716,0,0,0,2.7-5.149l4.849,4.849A12.716,12.716,0,0,0,38.036,30.21Zm7.437-2.772a.555.555,0,0,1-.785,0l-6.282-6.282a.555.555,0,0,1,.785-.785l6.282,6.282A.556.556,0,0,1,45.473,27.438Z" transform="translate(-30.849 -19.098)" fill="#ea4921"/></g></g><g transform="translate(33.531 12.026)"><g transform="translate(0)"><path d="M105,324.925a.555.555,0,0,0-.785,0l-.785.785a.555.555,0,0,0,.785.785l.785-.785A.555.555,0,0,0,105,324.925Z" transform="translate(-103.266 -324.762)" fill="#ea4921"/></g></g><g transform="translate(41.971)"><path d="M331.749,0a.555.555,0,0,0-.555.555V1.666a.555.555,0,1,0,1.111,0V.555A.555.555,0,0,0,331.749,0Z" transform="translate(-331.194)" fill="#ea4921"/></g><g transform="translate(45.303 4.442)"><path d="M422.835,119.966h-1.111a.555.555,0,1,0,0,1.111h1.111a.555.555,0,1,0,0-1.111Z" transform="translate(-421.169 -119.966)" fill="#ea4921"/></g><g transform="translate(44.192 1.111)"><path d="M393.237,30.154a.555.555,0,0,0-.785,0l-1.111,1.111a.555.555,0,1,0,.785.785l1.111-1.111A.555.555,0,0,0,393.237,30.154Z" transform="translate(-391.178 -29.991)" fill="#ea4921"/></g></g></svg>