<svg xmlns="http://www.w3.org/2000/svg" xmlns:xlink="http://www.w3.org/1999/xlink" width="128" height="124" viewBox="0 0 128 124"><defs><clipPath id="a"><rect width="128" height="124" transform="translate(14.603 -21.347)" fill="#fff" stroke="#707070" stroke-width="1"/></clipPath></defs><g transform="translate(-14.603 21.347)"><g clip-path="url(#a)"><g transform="translate(-5.179 58.174) rotate(-59)"><g transform="translate(0 0)"><path d="M-699.909,136.924c.546,15.893-7.736,30.572-19.5,34.417a19.928,19.928,0,0,1-10.808.432c-5.178,8.306-14.1,11.123-21.461,6.435a98.1,98.1,0,0,0-2.261,13.22c-.062.637-.983,1.789-1.45,1.069a44.971,44.971,0,0,1-6.6-16.51,16.085,16.085,0,0,1-16.361-1.953c-4.57-3.413-7.923-9.108-9.389-15.728-9.124-3.5-16.673-12.336-20.213-24.014-3.712-12.233-2.558-26.481,2.917-37.46a37.441,37.441,0,0,1,11.744-14.083c2.932-13.981,13.226-23.705,24.252-22.719a19.347,19.347,0,0,1,10.169,4.235c6.176-7.566,14.52-11.493,22.974-10.383,7.611,1.007,14.723,6.147,19.48,14.022a44.249,44.249,0,0,1,5.49,15.111c6.6,1.521,12.493,6.682,15.986,14.248a39.693,39.693,0,0,1,1.871,26.831A33.621,33.621,0,0,1-699.909,136.924Zm6.706-25.864c-.639-8.244-3.946-15.954-9.015-20.868a20.186,20.186,0,0,0-9.826-5.407.407.407,0,0,1-.328-.35c-1.56-9.334-5.849-17.661-11.931-22.924-6.457-5.572-14.6-7.422-22.085-4.832a26.353,26.353,0,0,0-12.118,9.108c-.234.308-.733.8-1.076.514-8.687-7.155-20.338-5.613-27.356,4.441a29.169,29.169,0,0,0-3.712,7.381,36.41,36.41,0,0,0-1.139,4.112c-.343,1.563-1.076,1.83-2.121,2.611a35.063,35.063,0,0,0-10.184,12.891c-5.1,10.712-5.88,24.343-2.183,36a41.384,41.384,0,0,0,7.814,14.371,31.032,31.032,0,0,0,5.521,5.1,27.2,27.2,0,0,0,3.01,1.891c.468.247.951.493,1.419.72a10.26,10.26,0,0,1,1.9.781c.421.329.437.884.593,1.521.218.884.468,1.768.764,2.611a27.4,27.4,0,0,0,1.887,4.276,22.751,22.751,0,0,0,5.537,6.826,15.2,15.2,0,0,0,16.563,2.2c.234-.1.624-.123.7.288a44.2,44.2,0,0,0,5.459,14.926,97.42,97.42,0,0,1,2.4-12.377c.14-.555.826-1.316,1.294-.966,7,5.119,15.752,2.919,20.618-5.51.187-.308.608-.658.936-.576a19.18,19.18,0,0,0,17.141-3.721c4.617-3.639,8.157-9.416,9.966-16.078a42.346,42.346,0,0,0,1.341-12.809,1.294,1.294,0,0,1,.421-.9h0C-695.417,130.16-692.47,120.641-693.2,111.06Z" transform="translate(810.101 -53.698)"/></g><g transform="translate(0 0)"><path d="M-699.909,136.924c.546,15.893-7.736,30.572-19.5,34.417a19.928,19.928,0,0,1-10.808.432c-5.178,8.306-14.1,11.123-21.461,6.435a98.1,98.1,0,0,0-2.261,13.22c-.062.637-.983,1.789-1.45,1.069a44.971,44.971,0,0,1-6.6-16.51,16.085,16.085,0,0,1-16.361-1.953c-4.57-3.413-7.923-9.108-9.389-15.728-9.124-3.5-16.673-12.336-20.213-24.014-3.712-12.233-2.558-26.481,2.917-37.46a37.441,37.441,0,0,1,11.744-14.083c2.932-13.981,13.226-23.705,24.252-22.719a19.347,19.347,0,0,1,10.169,4.235c6.176-7.566,14.52-11.493,22.974-10.383,7.611,1.007,14.723,6.147,19.48,14.022a44.249,44.249,0,0,1,5.49,15.111c6.6,1.521,12.493,6.682,15.986,14.248a39.693,39.693,0,0,1,1.871,26.831A33.621,33.621,0,0,1-699.909,136.924Zm6.706-25.864c-.639-8.244-3.946-15.954-9.015-20.868a20.186,20.186,0,0,0-9.826-5.407.407.407,0,0,1-.328-.35c-1.56-9.334-5.849-17.661-11.931-22.924-6.457-5.572-14.6-7.422-22.085-4.832a26.353,26.353,0,0,0-12.118,9.108c-.234.308-.733.8-1.076.514-8.687-7.155-20.338-5.613-27.356,4.441a29.169,29.169,0,0,0-3.712,7.381,36.41,36.41,0,0,0-1.139,4.112c-.343,1.563-1.076,1.83-2.121,2.611a35.063,35.063,0,0,0-10.184,12.891c-5.1,10.712-5.88,24.343-2.183,36a41.384,41.384,0,0,0,7.814,14.371,31.032,31.032,0,0,0,5.521,5.1,27.2,27.2,0,0,0,3.01,1.891c.468.247.951.493,1.419.72a10.26,10.26,0,0,1,1.9.781c.421.329.437.884.593,1.521.218.884.468,1.768.764,2.611a27.4,27.4,0,0,0,1.887,4.276,22.751,22.751,0,0,0,5.537,6.826,15.2,15.2,0,0,0,16.563,2.2c.234-.1.624-.123.7.288a44.2,44.2,0,0,0,5.459,14.926,97.42,97.42,0,0,1,2.4-12.377c.14-.555.826-1.316,1.294-.966,7,5.119,15.752,2.919,20.618-5.51.187-.308.608-.658.936-.576a19.18,19.18,0,0,0,17.141-3.721c4.617-3.639,8.157-9.416,9.966-16.078a42.346,42.346,0,0,0,1.341-12.809,1.294,1.294,0,0,1,.421-.9h0C-695.417,130.16-692.47,120.641-693.2,111.06Z" transform="translate(810.101 -53.698)"/></g><path d="M-685.734,118.223c-.635-8.258-3.919-15.981-8.952-20.9a20,20,0,0,0-9.758-5.416.406.406,0,0,1-.325-.35c-1.549-9.35-5.808-17.691-11.849-22.963-6.412-5.581-14.5-7.435-21.932-4.84a26.191,26.191,0,0,0-12.034,9.123c-.232.309-.728.8-1.069.515-8.627-7.167-20.2-5.622-27.167,4.448a29.319,29.319,0,0,0-3.686,7.393,36.723,36.723,0,0,0-1.131,4.119c-.341,1.565-1.069,1.833-2.106,2.615a35.072,35.072,0,0,0-10.114,12.913c-5.065,10.73-5.839,24.384-2.168,36.061a41.565,41.565,0,0,0,7.76,14.4,30.915,30.915,0,0,0,5.483,5.107,26.981,26.981,0,0,0,2.989,1.895c.465.247.945.494,1.409.721a10.138,10.138,0,0,1,1.89.783c.418.33.434.886.589,1.524.217.886.465,1.771.759,2.616a27.577,27.577,0,0,0,1.874,4.284,22.753,22.753,0,0,0,5.5,6.837c4.941,4.037,11.012,4.84,16.449,2.2.232-.1.62-.124.7.288a44.513,44.513,0,0,0,5.421,14.952,98.331,98.331,0,0,1,2.385-12.4c.139-.556.821-1.318,1.286-.968,6.954,5.128,15.643,2.924,20.476-5.519.186-.309.6-.659.929-.577a18.922,18.922,0,0,0,17.022-3.728c4.585-3.645,8.1-9.432,9.9-16.1a42.773,42.773,0,0,0,1.332-12.83,1.3,1.3,0,0,1,.418-.906h0C-687.933,137.356-685.006,127.82-685.734,118.223Z" transform="translate(802.232 -60.845)" fill="#fff"/></g></g><path d="M-38.9-.736l-.3-.8a1.678,1.678,0,0,1,.24-1.584,12.057,12.057,0,0,0,1.424-2.7q.032-.128-.1-.128h-.592a.862.862,0,0,1-.632-.264.862.862,0,0,1-.264-.632v-.208a.862.862,0,0,1,.264-.632.862.862,0,0,1,.632-.264h1.04A.127.127,0,0,0-37.04-8.1v-.448q0-.128-.128-.1l-.384.144a.808.808,0,0,1-.656-.056.8.8,0,0,1-.416-.52q-.5-1.856-.512-1.9a.892.892,0,0,1,.072-.672.92.92,0,0,1,.52-.448.784.784,0,0,1,.656.032.775.775,0,0,1,.416.512q.16.56.4,1.568a.014.014,0,0,0,.016.016.014.014,0,0,0,.016-.016V-12.16a.889.889,0,0,1,.264-.64.85.85,0,0,1,.632-.272h.32a.876.876,0,0,1,.64.272.876.876,0,0,1,.272.64v2.1a.046.046,0,0,0,.032.016q.352-1.28.416-1.536a.9.9,0,0,1,.392-.576.824.824,0,0,1,.664-.128.889.889,0,0,1,.576.4.8.8,0,0,1,.112.672q-.272,1.152-.608,2.176a.821.821,0,0,1-.448.512.816.816,0,0,1-.688.016l-.32-.128q-.128-.064-.128.08V-8.1q0,.144.128.144h.848a.862.862,0,0,1,.632.264.862.862,0,0,1,.264.632v.208a.862.862,0,0,1-.264.632.862.862,0,0,1-.632.264h-.048a.079.079,0,0,0-.072.04.072.072,0,0,0-.008.072l1.152,2.256a1.232,1.232,0,0,1,.1.768,1.19,1.19,0,0,1-.36.672l-.08.064a.6.6,0,0,1-.568.152.609.609,0,0,1-.456-.376q-.1-.208-.272-.616t-.256-.616a.054.054,0,0,0-.04-.016q-.024,0-.024.016V.64a.889.889,0,0,1-.264.64.85.85,0,0,1-.632.272h-.432a.876.876,0,0,1-.64-.272A.876.876,0,0,1-37.1.64V-2.48q-.016-.016-.048,0a10.033,10.033,0,0,1-.9,1.856.411.411,0,0,1-.448.208A.5.5,0,0,1-38.9-.736Zm13.264-12.048a.876.876,0,0,1,.64.272.876.876,0,0,1,.272.64V-.9q0,.112.1.112a.691.691,0,0,1,.5.2A.651.651,0,0,1-23.92-.1v.48a.876.876,0,0,1-.272.64.876.876,0,0,1-.64.272h-8.144a.876.876,0,0,1-.64-.272.876.876,0,0,1-.272-.64V.128a.876.876,0,0,1,.272-.64.876.876,0,0,1,.64-.272h.24q.128,0,.128-.144V-11.872a.876.876,0,0,1,.272-.64.876.876,0,0,1,.64-.272ZM-27.2-.928V-2.672a.127.127,0,0,0-.144-.144h-2.784q-.128,0-.128.144V-.928q0,.144.128.144h2.784A.127.127,0,0,0-27.2-.928Zm0-3.984V-6.656q0-.128-.144-.128h-2.784a.113.113,0,0,0-.128.128v1.744q0,.144.128.144h2.784A.127.127,0,0,0-27.2-4.912Zm0-3.968v-1.744a.127.127,0,0,0-.144-.144h-2.784q-.128,0-.128.144V-8.88a.113.113,0,0,0,.128.128h2.784Q-27.2-8.752-27.2-8.88Zm5.12,1.12a.876.876,0,0,1-.64-.272.876.876,0,0,1-.272-.64v-.4A.85.85,0,0,1-22.72-9.7a.889.889,0,0,1,.64-.264h4.64q.128,0,.128-.144V-12.16a.876.876,0,0,1,.272-.64.876.876,0,0,1,.64-.272h.8a.876.876,0,0,1,.64.272.876.876,0,0,1,.272.64v2.048q0,.144.128.144h4.64a.889.889,0,0,1,.64.264.85.85,0,0,1,.272.632v.4a.876.876,0,0,1-.272.64.876.876,0,0,1-.64.272H-14.4q-.144,0-.112.144A9.424,9.424,0,0,0-9.5-.944a.774.774,0,0,1,.4.528.759.759,0,0,1-.128.64L-9.6.736a1.02,1.02,0,0,1-.608.416.946.946,0,0,1-.736-.112,11.6,11.6,0,0,1-2.808-2.32A13.11,13.11,0,0,1-15.84-4.432a.051.051,0,0,0-.048-.032.051.051,0,0,0-.048.032A13.238,13.238,0,0,1-18.12-1.248a11.785,11.785,0,0,1-2.936,2.32.96.96,0,0,1-.736.088A1.056,1.056,0,0,1-22.4.736l-.368-.512a.759.759,0,0,1-.128-.64.774.774,0,0,1,.4-.528,9.384,9.384,0,0,0,5.008-6.672q.032-.144-.112-.144ZM4.56-12.608q.08.144.224.424t.224.424a.815.815,0,0,1,.056.56.827.827,0,0,1-.3.464q-.1.1-.048.176a.956.956,0,0,1,.08.368V-.72a.876.876,0,0,1-.272.64.876.876,0,0,1-.64.272H-5.6A.876.876,0,0,1-6.24-.08a.876.876,0,0,1-.272-.64v-.512a.85.85,0,0,1,.272-.632.889.889,0,0,1,.64-.264H2.08q.128,0,.128-.144V-8.64a.113.113,0,0,0-.128-.128H-5.6a.876.876,0,0,1-.64-.272.876.876,0,0,1-.272-.64v-.512a.85.85,0,0,1,.272-.632.889.889,0,0,1,.64-.264H3.328a.077.077,0,0,0,.072-.048.063.063,0,0,0-.008-.08q-.064-.112-.176-.328t-.16-.328A.792.792,0,0,1,3-12.5a.807.807,0,0,1,.408-.488.81.81,0,0,1,.648-.048A.89.89,0,0,1,4.56-12.608Zm2.448-.24.232.464.216.432a.793.793,0,0,1,.048.64.829.829,0,0,1-.432.48.81.81,0,0,1-.648.048.89.89,0,0,1-.5-.432q-.144-.288-.464-.864a.835.835,0,0,1-.056-.648.8.8,0,0,1,.424-.488.864.864,0,0,1,.672-.048A.839.839,0,0,1,7.008-12.848ZM10.64-.448a.868.868,0,0,1-.624-.3.819.819,0,0,1-.224-.648l.032-.736a.858.858,0,0,1,.3-.632.908.908,0,0,1,.664-.232A98.008,98.008,0,0,1,21.472-1.9a.933.933,0,0,1,.6.368.965.965,0,0,1,.2.688l-.08.736a.792.792,0,0,1-.336.592.846.846,0,0,1-.672.16A99.544,99.544,0,0,0,10.64-.448Zm9.248-6.416a.894.894,0,0,1,.592.376.924.924,0,0,1,.176.68l-.1.736a.853.853,0,0,1-.344.592.823.823,0,0,1-.664.16,71.722,71.722,0,0,0-7.5-.832.831.831,0,0,1-.616-.3.856.856,0,0,1-.216-.656l.064-.72a.9.9,0,0,1,.32-.632.935.935,0,0,1,.672-.232Q15.936-7.488,19.888-6.864Zm1.76-2.768a.816.816,0,0,1-.336.6.882.882,0,0,1-.672.184q-4.928-.608-9.328-.8a.868.868,0,0,1-.624-.3.872.872,0,0,1-.24-.648l.048-.672a.943.943,0,0,1,.3-.624.846.846,0,0,1,.64-.24q4.7.208,9.5.816a.853.853,0,0,1,.592.344.932.932,0,0,1,.192.664Zm9.184.144a4.56,4.56,0,0,0-2.552,1.64,4.678,4.678,0,0,0-.92,2.92,4.387,4.387,0,0,0,.424,1.944q.424.872.776.872a.572.572,0,0,0,.384-.216,3,3,0,0,0,.464-.752,10.61,10.61,0,0,0,.512-1.344q.256-.808.528-2.088t.5-2.88a.067.067,0,0,0-.024-.08A.088.088,0,0,0,30.832-9.488ZM28.56.352a3.182,3.182,0,0,1-2.5-1.536,6.091,6.091,0,0,1-1.144-3.744,6.677,6.677,0,0,1,2.128-5.128,7.9,7.9,0,0,1,5.6-1.976,6.372,6.372,0,0,1,4.624,1.768,6,6,0,0,1,1.824,4.5A7.037,7.037,0,0,1,37.9-1.552,5.274,5.274,0,0,1,34.672.56.892.892,0,0,1,33.96.416a.945.945,0,0,1-.408-.608l-.128-.544a.824.824,0,0,1,.128-.664,1.032,1.032,0,0,1,.56-.424Q36.64-2.64,36.64-5.76a3.888,3.888,0,0,0-.816-2.488A3.784,3.784,0,0,0,33.664-9.6q-.112-.016-.144.128a43.955,43.955,0,0,1-.936,4.92,11.669,11.669,0,0,1-1.16,3.024A4.337,4.337,0,0,1,30.112-.064,2.888,2.888,0,0,1,28.56.352Zm-47.344,20.12a.876.876,0,0,1-.64-.272.876.876,0,0,1-.272-.64V7.128a.85.85,0,0,1,.272-.632.889.889,0,0,1,.64-.264H-6.528a.889.889,0,0,1,.64.264.85.85,0,0,1,.272.632V19.56a.876.876,0,0,1-.272.64.876.876,0,0,1-.64.272H-7.44a.62.62,0,0,1-.464-.2A.659.659,0,0,1-8.1,19.8a.085.085,0,0,0-.1-.1H-17.12a.085.085,0,0,0-.1.1.659.659,0,0,1-.192.472.62.62,0,0,1-.464.2ZM-17.216,8.44v9.1a.127.127,0,0,0,.144.144H-8.24a.127.127,0,0,0,.144-.144V8.44q0-.128-.144-.128h-8.832Q-17.216,8.312-17.216,8.44Zm2.128,7.9a.876.876,0,0,1-.64-.272.876.876,0,0,1-.272-.64V10.52a.876.876,0,0,1,.272-.64.876.876,0,0,1,.64-.272h4.864a.876.876,0,0,1,.64.272.876.876,0,0,1,.272.64v4.912a.876.876,0,0,1-.272.64.876.876,0,0,1-.64.272h-4.864Zm1.28-4.688V14.3q0,.144.128.144h2.048a.127.127,0,0,0,.144-.144v-2.64a.127.127,0,0,0-.144-.144H-13.68Q-13.808,11.512-13.808,11.656Zm9.456,6.1-.048-.48a.823.823,0,0,1,.16-.584.808.808,0,0,1,.512-.328q.1-.016.1-.144V7.992a.876.876,0,0,1,.272-.64.876.876,0,0,1,.64-.272h.464a.876.876,0,0,1,.64.272.876.876,0,0,1,.272.64v7.7q0,.128.112.1l.848-.208A.161.161,0,0,0-.256,15.4V6.84A.876.876,0,0,1,.016,6.2a.876.876,0,0,1,.64-.272h.592a.876.876,0,0,1,.64.272.876.876,0,0,1,.272.64V18.232q0,.032.024.032t.04-.032a1.143,1.143,0,0,1,.32-.32,11.5,11.5,0,0,0,2.368-1.936.145.145,0,0,0,.016-.192,17.21,17.21,0,0,1-2.08-5.216.894.894,0,0,1,.12-.688.92.92,0,0,1,.568-.416l.592-.144a.81.81,0,0,1,.664.1.839.839,0,0,1,.392.56,16.022,16.022,0,0,0,1.28,3.712q.064.1.128,0A13.5,13.5,0,0,0,8.208,8.92q.032-.128-.112-.128H3.584a.929.929,0,0,1-.912-.912V7.544a.85.85,0,0,1,.272-.632.889.889,0,0,1,.64-.264h6.24a.889.889,0,0,1,.64.264.85.85,0,0,1,.272.632V8.792a16.7,16.7,0,0,1-2.576,7.12.135.135,0,0,0,0,.192,10.4,10.4,0,0,0,2.272,1.84.919.919,0,0,1,.424.552.906.906,0,0,1-.072.7l-.3.576a.822.822,0,0,1-.536.432.847.847,0,0,1-.68-.1A14.755,14.755,0,0,1,6.64,17.976a.12.12,0,0,0-.192,0A15.239,15.239,0,0,1,3.76,20.1a.792.792,0,0,1-.68.1.859.859,0,0,1-.536-.424l-.32-.592a.054.054,0,0,0-.04-.016q-.024,0-.024.032v.432a.876.876,0,0,1-.272.64.876.876,0,0,1-.64.272H.656a.876.876,0,0,1-.64-.272.876.876,0,0,1-.272-.64V17.848q0-.128-.112-.1-1.5.4-3.008.72a.828.828,0,0,1-.648-.144A.75.75,0,0,1-4.352,17.752Z" transform="matrix(0.995, -0.105, 0.105, 0.995, 77.975, 30.106)" fill="#454d4c"/><path d="M-38.192,1.552a.85.85,0,0,1-.632-.272.889.889,0,0,1-.264-.64V-11.952a.862.862,0,0,1,.264-.632.862.862,0,0,1,.632-.264h12.384a.862.862,0,0,1,.632.264.862.862,0,0,1,.264.632V.64a.889.889,0,0,1-.264.64.85.85,0,0,1-.632.272h-1.008a.492.492,0,0,1-.36-.152.511.511,0,0,1-.152-.376.071.071,0,0,0-.08-.08h-9.184a.071.071,0,0,0-.08.08.511.511,0,0,1-.152.376.492.492,0,0,1-.36.152Zm1.52-12.368v9.792q0,.128.144.128h9.056q.144,0,.144-.128v-9.792q0-.128-.144-.128h-9.056Q-36.672-10.944-36.672-10.816Zm.544,8.384-.24-.288a.889.889,0,0,1-.184-.664A.9.9,0,0,1-36.224-4a15.076,15.076,0,0,0,2.64-2.9.053.053,0,0,0,.008-.072.079.079,0,0,0-.072-.04H-35.28a.876.876,0,0,1-.64-.272.876.876,0,0,1-.272-.64v-.144a.876.876,0,0,1,.272-.64.876.876,0,0,1,.64-.272h2.016q.144,0,.144-.128v-.544a.876.876,0,0,1,.272-.64.876.876,0,0,1,.64-.272h.416a.876.876,0,0,1,.64.272.876.876,0,0,1,.272.64V-9.1q0,.128.144.128h2.016a.876.876,0,0,1,.64.272.876.876,0,0,1,.272.64v.144a.876.876,0,0,1-.272.64.876.876,0,0,1-.64.272h-1.632a.079.079,0,0,0-.072.04.053.053,0,0,0,.008.072A15.076,15.076,0,0,0-27.776-4a.9.9,0,0,1,.328.616.889.889,0,0,1-.184.664l-.24.288a.751.751,0,0,1-.584.3.787.787,0,0,1-.616-.24A16.141,16.141,0,0,1-30.8-4.544a.032.032,0,0,0-.048-.016.051.051,0,0,0-.032.048v2.32a.876.876,0,0,1-.272.64.876.876,0,0,1-.64.272h-.416a.876.876,0,0,1-.64-.272.876.876,0,0,1-.272-.64v-2.32a.051.051,0,0,0-.032-.048.032.032,0,0,0-.048.016,16.141,16.141,0,0,1-1.728,2.176.787.787,0,0,1-.616.24A.751.751,0,0,1-36.128-2.432ZM-21.12-6.784l-.064-.368a.875.875,0,0,1,.128-.688.889.889,0,0,1,.576-.4,25.814,25.814,0,0,1,5.056-.7q4.96,0,4.96,4.128A4.4,4.4,0,0,1-12.3-.992,10.616,10.616,0,0,1-18.048.448.878.878,0,0,1-18.712.2a.973.973,0,0,1-.312-.648l-.032-.336a.784.784,0,0,1,.216-.632.866.866,0,0,1,.616-.28,9.03,9.03,0,0,0,4.088-.832A2.352,2.352,0,0,0-12.9-4.672a1.868,1.868,0,0,0-.648-1.584,3.5,3.5,0,0,0-2.1-.5,25.034,25.034,0,0,0-4.4.672.846.846,0,0,1-.672-.128A.889.889,0,0,1-21.12-6.784ZM.768-5.7A.846.846,0,0,1,.12-5.9a.872.872,0,0,1-.312-.608l-.032-.32A.881.881,0,0,1-.008-7.5a.877.877,0,0,1,.616-.328q2.592-.24,4.88-.256a.85.85,0,0,1,.632.272.889.889,0,0,1,.264.64v.32a.876.876,0,0,1-.272.64.876.876,0,0,1-.64.272Q3.088-5.92.768-5.7ZM5.584-1.632a.892.892,0,0,1,.664.168.826.826,0,0,1,.344.584L6.64-.5a.9.9,0,0,1-.176.68.913.913,0,0,1-.592.36A18.692,18.692,0,0,1,3.392.72,6.849,6.849,0,0,1-.248-.12,2.48,2.48,0,0,1-1.6-2.272,2.708,2.708,0,0,1-.752-4.1a1.129,1.129,0,0,1,.7-.368,1.263,1.263,0,0,1,.792.128l.272.128a.589.589,0,0,1,.336.464.643.643,0,0,1-.176.56.983.983,0,0,0-.3.64q0,.464.664.768a4.592,4.592,0,0,0,1.864.3A16.2,16.2,0,0,0,5.584-1.632ZM-5.968.624A.779.779,0,0,1-6.5.232.8.8,0,0,1-6.56-.432Q-5.2-4.752-4.336-8.9a.1.1,0,0,0-.024-.1.114.114,0,0,0-.088-.048H-5.456a.876.876,0,0,1-.64-.272.876.876,0,0,1-.272-.64v-.368a.876.876,0,0,1,.272-.64.876.876,0,0,1,.64-.272h1.424a.165.165,0,0,0,.176-.144q.032-.144.08-.4t.064-.4a.942.942,0,0,1,.368-.616.965.965,0,0,1,.688-.2l.64.048a.8.8,0,0,1,.592.328.8.8,0,0,1,.16.648q-.016.1-.048.3t-.048.3q-.032.128.112.128H3.184a.85.85,0,0,1,.632.272.889.889,0,0,1,.264.64v.368a.889.889,0,0,1-.264.64.85.85,0,0,1-.632.272H-1.664a.151.151,0,0,0-.16.128A83.127,83.127,0,0,1-4.112.112a.932.932,0,0,1-.456.56A.987.987,0,0,1-5.28.784Zm16.928-4.5a.889.889,0,0,1-.576-.4.929.929,0,0,1-.144-.688q.288-1.6.512-3.184a1,1,0,0,1,.352-.624.894.894,0,0,1,.672-.208l.72.064a.834.834,0,0,1,.6.32.833.833,0,0,1,.184.656q-.128.992-.256,1.808v.016h.032a8.222,8.222,0,0,1,4.48-1.456,5.594,5.594,0,0,1,3.6.944A3.612,3.612,0,0,1,22.272-3.68,3.818,3.818,0,0,1,20.456-.336,9.341,9.341,0,0,1,15.248.88Q13.76.88,12.256.736a.851.851,0,0,1-.608-.328.9.9,0,0,1-.208-.664l.032-.384a.851.851,0,0,1,.328-.608.9.9,0,0,1,.664-.208q1.68.144,2.784.144a5.932,5.932,0,0,0,3.024-.64A1.943,1.943,0,0,0,19.344-3.68q0-1.712-2.192-1.712a8.766,8.766,0,0,0-3.984,1.36A2.259,2.259,0,0,1,11.5-3.76Zm2.384-8.272q3.2.336,6.032.384a.956.956,0,0,1,.648.272.855.855,0,0,1,.264.64v.368a.862.862,0,0,1-.264.632.862.862,0,0,1-.632.264q-3.264-.048-6.32-.368a.842.842,0,0,1-.608-.336.866.866,0,0,1-.192-.672l.048-.384a.872.872,0,0,1,.352-.6A.94.94,0,0,1,13.344-12.144ZM36.72-4.24a.876.876,0,0,1-.64-.272.876.876,0,0,1-.272-.64V-6.368a.876.876,0,0,1,.272-.64.876.876,0,0,1,.64-.272h1.216a.876.876,0,0,1,.64.272.876.876,0,0,1,.272.64v1.216a.876.876,0,0,1-.272.64.876.876,0,0,1-.64.272Zm-5.328,0a.876.876,0,0,1-.64-.272.876.876,0,0,1-.272-.64V-6.368a.876.876,0,0,1,.272-.64.876.876,0,0,1,.64-.272h1.216a.876.876,0,0,1,.64.272.876.876,0,0,1,.272.64v1.216a.876.876,0,0,1-.272.64.876.876,0,0,1-.64.272Zm-5.328,0a.876.876,0,0,1-.64-.272.876.876,0,0,1-.272-.64V-6.368a.876.876,0,0,1,.272-.64.876.876,0,0,1,.64-.272H27.28a.876.876,0,0,1,.64.272.876.876,0,0,1,.272.64v1.216a.876.876,0,0,1-.272.64.876.876,0,0,1-.64.272Z" transform="matrix(0.995, -0.105, 0.105, 0.995, 85.035, 68.455)" fill="#454d4c"/><path d="M4.536-9.884a.766.766,0,0,1,.56.238.766.766,0,0,1,.238.56v.378a.766.766,0,0,1-.238.56.766.766,0,0,1-.56.238H.07a.766.766,0,0,1-.56-.238.766.766,0,0,1-.238-.56v-.378a.766.766,0,0,1,.238-.56.766.766,0,0,1,.56-.238ZM-4.046.714A.855.855,0,0,1-4.662.56a.835.835,0,0,1-.35-.532A23.793,23.793,0,0,1-5.53-5.04a23.793,23.793,0,0,1,.518-5.068.835.835,0,0,1,.35-.532.855.855,0,0,1,.616-.154l.658.07a.646.646,0,0,1,.49.287.707.707,0,0,1,.112.581A23.152,23.152,0,0,0-3.262-5.04,23.152,23.152,0,0,0-2.786-.224.707.707,0,0,1-2.9.357a.646.646,0,0,1-.49.287Zm6.4-.448A5.478,5.478,0,0,1-.8-.518,2.445,2.445,0,0,1-1.932-2.632,2.842,2.842,0,0,1-1.61-3.815,6.12,6.12,0,0,1-.728-5.152a.726.726,0,0,1,.553-.266.894.894,0,0,1,.609.2l.322.238a.684.684,0,0,1,.273.518.818.818,0,0,1-.175.574A2.154,2.154,0,0,0,.28-2.772a.8.8,0,0,0,.49.763,3.762,3.762,0,0,0,1.582.245,13.715,13.715,0,0,0,2.3-.21.77.77,0,0,1,.588.126.74.74,0,0,1,.322.5l.056.406a.822.822,0,0,1-.133.616A.751.751,0,0,1,4.97.014,13.461,13.461,0,0,1,2.352.266Z" transform="matrix(0.995, -0.105, 0.105, 0.995, 99.447, 46.861)" fill="#454d4c"/></g></svg>