<svg xmlns="http://www.w3.org/2000/svg" width="322.5" height="64" viewBox="0 0 322.5 64"><g transform="translate(-132.5 -742.156)"><path d="M-88.455,17.245A.808.808,0,0,1-89.048,17a.808.808,0,0,1-.247-.593v-.3a.833.833,0,0,1,.247-.6.8.8,0,0,1,.592-.255h11.91a.8.8,0,0,1,.592.255.833.833,0,0,1,.247.6v.3a.808.808,0,0,1-.247.593.808.808,0,0,1-.592.247Zm14.43.645a.543.543,0,0,1-.45-.15.571.571,0,0,1-.195-.435v-.27a.767.767,0,0,1,.188-.517.645.645,0,0,1,.472-.233.093.093,0,0,0,.105-.1V11.725a.821.821,0,0,1,.255-.6.821.821,0,0,1,.6-.255h.57a.142.142,0,0,0,.15-.12,1.264,1.264,0,0,1,.03-.21,1.264,1.264,0,0,0,.03-.21.864.864,0,0,1,.315-.57.893.893,0,0,1,.63-.21h.195a.817.817,0,0,1,.57.293.746.746,0,0,1,.18.608,1.24,1.24,0,0,1-.015.165,1.219,1.219,0,0,0-.015.15q-.03.105.105.1h1.05a.821.821,0,0,1,.6.255.821.821,0,0,1,.255.6v3.96a.053.053,0,0,0,.06.06.374.374,0,0,1,.292.1.356.356,0,0,1,.128.277v.765a.407.407,0,0,1-.12.3.537.537,0,0,1-.3.15q-.06,0-.06.075v3.54q0,.93-.037,1.365a1.347,1.347,0,0,1-.247.712.768.768,0,0,1-.5.323,6.551,6.551,0,0,1-.915.045q-.3,0-.525-.015a.956.956,0,0,1-.615-.285.894.894,0,0,1-.27-.615l-.015-.735a.04.04,0,0,0-.045-.045.317.317,0,0,1-.232-.1.317.317,0,0,1-.1-.233V17.815q0-.12-.135-.12l-.12.015q-.135,0-.135.12a16.024,16.024,0,0,1-.7,4.905.542.542,0,0,1-.435.368.667.667,0,0,1-.585-.143l-.09-.075a1.053,1.053,0,0,1-.375-.6,1.177,1.177,0,0,1,.045-.72,12.461,12.461,0,0,0,.5-3.6Q-73.935,17.89-74.025,17.89ZM-69.99,21V17.62q0-.1-.12-.1l-.27.015q-.12,0-.12.15v3.885a.119.119,0,0,0,.135.135h.03q.255,0,.3-.09A2.191,2.191,0,0,0-69.99,21Zm-2.28-8.49v3.48q0,.12.135.12l2.025-.195q.12,0,.12-.135v-3.27q0-.135-.12-.135h-2.025A.119.119,0,0,0-72.27,12.505Zm.735,2.49-.51-1.02a.7.7,0,0,1-.053-.54.608.608,0,0,1,.353-.405.749.749,0,0,1,.577-.037.767.767,0,0,1,.443.368q.24.435.51,1.005a.689.689,0,0,1,.03.563.682.682,0,0,1-.375.413.735.735,0,0,1-.555.022A.71.71,0,0,1-71.535,14.995Zm10.62-2.79a.765.765,0,0,1,.5.285.77.77,0,0,1,.18.54q-.045.63-.083,1a2.148,2.148,0,0,1-.173.668,1.612,1.612,0,0,1-.248.42.987.987,0,0,1-.45.21,2.726,2.726,0,0,1-.63.1q-.293.008-.923.008a2.579,2.579,0,0,1-1.185-.173.808.808,0,0,1-.27-.727V11.86q0-.12-.135-.12H-65.5q-.135,0-.135.12v.135a5.05,5.05,0,0,1-1.38,3.87q-.03.015-.007.052a.063.063,0,0,0,.052.038h5.265a.766.766,0,0,1,.563.233.766.766,0,0,1,.232.563,3.145,3.145,0,0,1-.345,1.53A9.38,9.38,0,0,1-62.82,20.4a.1.1,0,0,0-.022.09.081.081,0,0,0,.052.075,15.1,15.1,0,0,0,1.755.87.827.827,0,0,1,.45.45.769.769,0,0,1,0,.63.9.9,0,0,1-.48.487.864.864,0,0,1-.66.023,14.263,14.263,0,0,1-2.565-1.275.166.166,0,0,0-.21,0A14.609,14.609,0,0,1-67.035,23a.877.877,0,0,1-.675,0,.931.931,0,0,1-.51-.465l-.03-.06a.668.668,0,0,1-.015-.6.776.776,0,0,1,.45-.42,11.532,11.532,0,0,0,1.83-.84q.1-.06.015-.15a11.542,11.542,0,0,1-1.26-1.3.757.757,0,0,1-.172-.623.808.808,0,0,1,.352-.562l.5-.36q.03-.03.015-.052a.05.05,0,0,0-.045-.022h-.285a.791.791,0,0,1-.57-.233.754.754,0,0,1-.24-.562v-.465a.317.317,0,0,1,.1-.233.317.317,0,0,1,.232-.1.024.024,0,0,0,.022-.015.025.025,0,0,0-.007-.03l-.555-.57a.851.851,0,0,1-.232-.6,1.268,1.268,0,0,1,.2-.645,5.521,5.521,0,0,0,.6-2.94V11a.833.833,0,0,1,.247-.6.8.8,0,0,1,.593-.255h3.225a.821.821,0,0,1,.6.255.821.821,0,0,1,.255.6V13.63a.371.371,0,0,0,.038.218.411.411,0,0,0,.233.038q.27,0,.337-.15a4.23,4.23,0,0,0,.127-.93.613.613,0,0,1,.24-.465A.627.627,0,0,1-60.915,12.2Zm-5.13,5.34a.063.063,0,0,0-.053.038.067.067,0,0,0-.007.067,9.291,9.291,0,0,0,1.635,1.725.145.145,0,0,0,.195,0,7.362,7.362,0,0,0,1.35-1.725.067.067,0,0,0-.007-.067A.074.074,0,0,0-63,17.545Zm7.44,5.265-.3-.375A1.445,1.445,0,0,1-59.13,21a10.494,10.494,0,0,0,.487-2.333q.143-1.343.143-3.713V11.395a.808.808,0,0,1,.248-.592.808.808,0,0,1,.592-.247h4.575a.119.119,0,0,0,.135-.135V10.3a.833.833,0,0,1,.248-.6.8.8,0,0,1,.592-.255h.36a.8.8,0,0,1,.592.255.833.833,0,0,1,.248.6v.12a.119.119,0,0,0,.135.135h4.44a.791.791,0,0,1,.57.232.754.754,0,0,1,.24.563.754.754,0,0,1-.24.563.791.791,0,0,1-.57.233h-10.14a.119.119,0,0,0-.135.135V16.4a15.421,15.421,0,0,1-1.065,6.315.47.47,0,0,1-.428.308A.561.561,0,0,1-58.6,22.81Zm12.735-6.615a.955.955,0,0,1,.45.48.8.8,0,0,1,0,.645l-.015.03a.825.825,0,0,1-.473.435.788.788,0,0,1-.637-.03q-.63-.33-.93-.51-.015-.015-.038,0t-.022.03a.353.353,0,0,1-.112.27.373.373,0,0,1-.263.1h-.39a.106.106,0,0,0-.12.12V18.5a.119.119,0,0,0,.135.135h1.995a.749.749,0,0,1,.54.218.712.712,0,0,1,.225.532.736.736,0,0,1-.225.54.736.736,0,0,1-.54.225h-1.995q-.135,0-.135.12v.99q0,.285.067.33a1.3,1.3,0,0,0,.473.045,1.421,1.421,0,0,0,.4-.037q.1-.037.15-.233a1.185,1.185,0,0,1,.338-.578.715.715,0,0,1,.577-.2l.1.015a.859.859,0,0,1,.585.3.841.841,0,0,1,.225.615q-.03.45-.068.72a1.115,1.115,0,0,1-.18.48,1.446,1.446,0,0,1-.262.308,1.037,1.037,0,0,1-.465.15,5.112,5.112,0,0,1-.63.06q-.285.008-.93.008a10.427,10.427,0,0,1-1.59-.083.912.912,0,0,1-.615-.3,1.363,1.363,0,0,1-.15-.742V20.275q0-.12-.135-.12h-1.065a.142.142,0,0,0-.15.12q-.63,2.235-3.84,3.03a.905.905,0,0,1-.69-.1,1.029,1.029,0,0,1-.465-.533.668.668,0,0,1,.045-.6.735.735,0,0,1,.5-.36,3.433,3.433,0,0,0,2.385-1.455q.045-.1-.075-.1h-1.665a.736.736,0,0,1-.54-.225.736.736,0,0,1-.225-.54.712.712,0,0,1,.225-.532.749.749,0,0,1,.54-.218H-53.7a.119.119,0,0,0,.135-.135v-.75a.093.093,0,0,0-.1-.1h-.315a.373.373,0,0,1-.263-.1.336.336,0,0,1-.112-.255q0-.06-.045-.03-.66.39-.885.495a.788.788,0,0,1-.637.03.825.825,0,0,1-.473-.435l-.015-.03a.769.769,0,0,1,0-.63.888.888,0,0,1,.45-.465l.278-.128q.248-.113.368-.173t.03-.15q-.285-.315-.855-.915a.677.677,0,0,1-.187-.533.627.627,0,0,1,.278-.488l.15-.1a.65.65,0,0,1,.472-.142.717.717,0,0,1,.458.217.061.061,0,0,0,.045.015.027.027,0,0,0,.03-.03V13.48a.833.833,0,0,1,.248-.6.8.8,0,0,1,.593-.255H-51a1.587,1.587,0,0,1,1.32.7q0,.015.03.03t.03.03q.09.09.165.03.045-.045.51-.645a1.088,1.088,0,0,1,.555-.382.925.925,0,0,1,.645.038.611.611,0,0,1,.382.435.63.63,0,0,1-.112.57,12.248,12.248,0,0,1-.87,1.065q-.09.09.015.18.06.045.18.143t.18.142q.12.09.195-.015.39-.435.705-.855a1.088,1.088,0,0,1,.555-.382.97.97,0,0,1,.66.038.631.631,0,0,1,.375.42.612.612,0,0,1-.09.555q-.465.615-.84,1.05-.09.09.03.15Q-46.05,16.105-45.87,16.195Zm-7.845-1.215a8.032,8.032,0,0,0,1.05-.84.058.058,0,0,0,.015-.067q-.015-.038-.045-.038H-54.63q-.03,0-.045.038t.015.052q.255.27.765.84A.12.12,0,0,0-53.715,14.98ZM-50.34,18.5V17.77q0-.12-.135-.12H-51.51q-.135,0-.135.12V18.5a.119.119,0,0,0,.135.135h1.035A.119.119,0,0,0-50.34,18.5Zm1.185-2.325a.048.048,0,0,0,.045-.03.03.03,0,0,0-.015-.045,11.88,11.88,0,0,1-1.725-1.68q-.075-.075-.165.015A11.481,11.481,0,0,1-52.74,16.1a.03.03,0,0,0-.015.045.048.048,0,0,0,.045.03Zm5.565.135a.694.694,0,0,1-.51-.21.677.677,0,0,1-.21-.495.677.677,0,0,1,.21-.495.694.694,0,0,1,.51-.21h.81q.12,0,.12-.135v-.435a.106.106,0,0,0-.12-.12h-.27a.666.666,0,0,1-.48-.187.741.741,0,0,1-.225-.472.609.609,0,0,1,.165-.465.587.587,0,0,1,.45-.195q.555,0,1.695-.03a.2.2,0,0,0,.18-.09q.3-.45.435-.675a.05.05,0,0,0,.007-.068.074.074,0,0,0-.068-.038h-2.535a.707.707,0,0,1-.518-.217.707.707,0,0,1-.217-.518.707.707,0,0,1,.217-.517.707.707,0,0,1,.518-.217h4.815a.119.119,0,0,0,.135-.135v-.045a.808.808,0,0,1,.247-.593.808.808,0,0,1,.593-.247h.36a.808.808,0,0,1,.592.247.808.808,0,0,1,.248.593v.045a.119.119,0,0,0,.135.135h4.815a.707.707,0,0,1,.518.217.707.707,0,0,1,.217.517.707.707,0,0,1-.217.518.707.707,0,0,1-.518.217H-32.97q-.03,0-.045.038t.015.053q.81.66,1.545,1.32a.562.562,0,0,1,.2.517.571.571,0,0,1-.323.457l-.615.345q-.06.015-.06.1a.066.066,0,0,0,.075.075h.855a.694.694,0,0,1,.51.21.677.677,0,0,1,.21.495.677.677,0,0,1-.21.495.694.694,0,0,1-.51.21h-.81q-.12,0-.12.135v.975a.8.8,0,0,1-.255.593.833.833,0,0,1-.6.247H-36.3a.119.119,0,0,0-.135.135v.3q0,.12.135.12h4.83a.7.7,0,0,1,.5.21.682.682,0,0,1,.217.51.677.677,0,0,1-.21.495.694.694,0,0,1-.51.21h-3.555q-.03,0-.03.023t.03.038a24.705,24.705,0,0,0,3.885,1.32.651.651,0,0,1,.443.368.636.636,0,0,1,.007.577.986.986,0,0,1-.488.458.894.894,0,0,1-.653.038,21.165,21.165,0,0,1-4.5-1.935.067.067,0,0,0-.067.008.074.074,0,0,0-.037.067V22.48a.808.808,0,0,1-.248.593.808.808,0,0,1-.592.247h-.36a.808.808,0,0,1-.593-.247.808.808,0,0,1-.247-.593V21.2a.072.072,0,0,0-.045-.067.059.059,0,0,0-.075.007,22.066,22.066,0,0,1-4.485,1.92.894.894,0,0,1-.652-.038.986.986,0,0,1-.488-.458.651.651,0,0,1,0-.577.629.629,0,0,1,.435-.368A24.829,24.829,0,0,0-39.87,20.29a.043.043,0,0,0,.015-.03q0-.015-.03-.015H-43.44a.694.694,0,0,1-.51-.21.677.677,0,0,1-.21-.495.682.682,0,0,1,.217-.51.7.7,0,0,1,.5-.21h4.83q.135,0,.135-.12v-.3a.119.119,0,0,0-.135-.135h-3.195a.833.833,0,0,1-.6-.247.8.8,0,0,1-.255-.593V16.45q0-.135-.12-.135Zm9.48.615v-.48q0-.135-.12-.135H-36.3a.119.119,0,0,0-.135.135v.48q0,.12.135.12h2.07A.106.106,0,0,0-34.11,16.93Zm.69-3a.306.306,0,0,0-.225-.075q-.855.06-2.655.15a.119.119,0,0,0-.135.135v.63a.119.119,0,0,0,.135.135h2.085a.093.093,0,0,0,.1-.105.665.665,0,0,1,.2-.488.665.665,0,0,1,.488-.2h.09q.09,0,.03-.06ZM-39.1,12.7a.05.05,0,0,0-.007.068.074.074,0,0,0,.068.037l4-.165a.048.048,0,0,0,.045-.03.049.049,0,0,0-.015-.06q-.1-.09-.3-.24a3.114,3.114,0,0,1-.285-.24.38.38,0,0,0-.225-.075h-2.73a.218.218,0,0,0-.18.105q-.06.09-.187.3T-39.1,12.7ZM-40.8,14.305v.465q0,.135.12.135h2.07a.119.119,0,0,0,.135-.135v-.54q0-.12-.15-.12-.675.03-2.055.06Q-40.8,14.17-40.8,14.305Zm0,2.145v.48a.106.106,0,0,0,.12.12h2.07q.135,0,.135-.12v-.48a.119.119,0,0,0-.135-.135h-2.07Q-40.8,16.315-40.8,16.45Zm12.5-.315a.727.727,0,0,1-.577.09.789.789,0,0,1-.5-.353.783.783,0,0,1-.12-.592,36.758,36.758,0,0,0,.54-4.14.684.684,0,0,1,.263-.517.745.745,0,0,1,.563-.172.756.756,0,0,1,.517.262.749.749,0,0,1,.188.547q-.015.24-.045.69a.106.106,0,0,0,.12.12h.135a.106.106,0,0,0,.12-.12V10.645a.8.8,0,0,1,.255-.592.833.833,0,0,1,.6-.248h.225a.808.808,0,0,1,.593.248.808.808,0,0,1,.247.592V11.95q0,.12.135.12h.36a.8.8,0,0,1,.585.24.8.8,0,0,1,.24.585.8.8,0,0,1-.24.585.8.8,0,0,1-.585.24h-.36a.119.119,0,0,0-.135.135v3.15q0,.12.12.09.075-.015.217-.06t.218-.06a.674.674,0,0,1,.585.09.614.614,0,0,1,.285.51v.135a.05.05,0,0,0,.022.045q.022.015.052-.015A13.078,13.078,0,0,0-20.835,13.1q.03-.1-.09-.1h-.645a.175.175,0,0,0-.18.12,14.433,14.433,0,0,1-1.53,2.625.641.641,0,0,1-.533.278.7.7,0,0,1-.562-.247l-.06-.06a1.027,1.027,0,0,1-.263-.638,1.023,1.023,0,0,1,.188-.667,14.537,14.537,0,0,0,1.89-4.05,1.025,1.025,0,0,1,.4-.555.916.916,0,0,1,.66-.165l.15.015a.726.726,0,0,1,.532.323.67.67,0,0,1,.082.607q-.03.105-.1.3t-.1.3q-.03.12.09.12h4.38a.833.833,0,0,1,.6.248.748.748,0,0,1,.24.592q-.03,2.04-.075,3.518t-.113,2.677q-.068,1.2-.128,1.972a9.648,9.648,0,0,1-.187,1.343,6.958,6.958,0,0,1-.24.87,1.123,1.123,0,0,1-.315.472.891.891,0,0,1-.382.21,2.45,2.45,0,0,1-.48.038q-.825,0-1.92-.045a.854.854,0,0,1-.608-.278A1,1,0,0,1-20.4,22.3v-.03a.729.729,0,0,1,.225-.57.7.7,0,0,1,.585-.21q.435.03,1.1.03a.393.393,0,0,0,.353-.278,5.626,5.626,0,0,0,.247-1.32q.12-1.043.21-3.113,0-.03-.015-.03a.043.043,0,0,0-.03.015,15.4,15.4,0,0,1-4.35,6.1.849.849,0,0,1-.637.188.953.953,0,0,1-.608-.307l-.1-.105a.736.736,0,0,1-.187-.592.8.8,0,0,1,.292-.548,14.344,14.344,0,0,0,3.143-3.653,17.524,17.524,0,0,0,2-4.748q.03-.135-.09-.135h-.585a.165.165,0,0,0-.165.12,18.06,18.06,0,0,1-1.6,3.51,13.121,13.121,0,0,1-2.145,2.76.778.778,0,0,1-.608.218.861.861,0,0,1-.592-.278l-.075-.09a.783.783,0,0,1-.21-.555.1.1,0,0,0-.03-.075.049.049,0,0,0-.06-.015,1.1,1.1,0,0,1-.12.045q-.435.135-.57.165a.154.154,0,0,0-.135.165v3.585a.808.808,0,0,1-.247.592.808.808,0,0,1-.593.248h-.225a.833.833,0,0,1-.6-.248.8.8,0,0,1-.255-.592v-3.12q0-.12-.12-.09-.225.045-.668.128t-.637.128a.755.755,0,0,1-.6-.135.71.71,0,0,1-.3-.54.9.9,0,0,1,.18-.63.847.847,0,0,1,.555-.345l1.485-.315q.1-.015.1-.15v-3.63q0-.135-.12-.135h-.315q-.105,0-.135.135-.165,1.17-.3,1.8A.748.748,0,0,1-28.3,16.135ZM-8.325,21.28A11.507,11.507,0,0,0-5.8,19.21.156.156,0,0,0-5.79,19a16.09,16.09,0,0,1-2.04-5.16.842.842,0,0,1,.12-.653.827.827,0,0,1,.54-.382l.2-.045a.805.805,0,0,1,.622.105.787.787,0,0,1,.368.525A14.969,14.969,0,0,0-4.56,17.38a.1.1,0,0,0,.075.03.06.06,0,0,0,.06-.03A13.461,13.461,0,0,0-2.61,12.37q.03-.15-.1-.15h-4.71a.808.808,0,0,1-.592-.248.808.808,0,0,1-.247-.592.833.833,0,0,1,.247-.6.8.8,0,0,1,.592-.255H-1.5a.821.821,0,0,1,.6.255.821.821,0,0,1,.255.6v.84A15.8,15.8,0,0,1-3.21,19.09a.166.166,0,0,0,0,.21,10.618,10.618,0,0,0,2.3,1.95.891.891,0,0,1,.39.532A.832.832,0,0,1-.6,22.42l-.1.21a.805.805,0,0,1-.5.4.742.742,0,0,1-.637-.1,13.373,13.373,0,0,1-2.58-2.145q-.09-.12-.18,0a12.945,12.945,0,0,1-2.7,2.16.756.756,0,0,1-.645.1.924.924,0,0,1-.54-.4l-.135-.21a.794.794,0,0,1-.09-.637A.833.833,0,0,1-8.325,21.28Zm-6.36-.63v-.09a.828.828,0,0,1,.158-.585.847.847,0,0,1,.5-.33.13.13,0,0,0,.1-.135V11.755a.821.821,0,0,1,.255-.6.821.821,0,0,1,.6-.255h.09a.821.821,0,0,1,.6.255.821.821,0,0,1,.255.6V19.06q0,.135.12.105.945-.255,1.2-.33a.154.154,0,0,0,.135-.165V10.645a.808.808,0,0,1,.248-.592A.808.808,0,0,1-9.825,9.8h.21a.808.808,0,0,1,.593.248.808.808,0,0,1,.247.592v11.91a.808.808,0,0,1-.247.592.808.808,0,0,1-.593.248h-.21a.808.808,0,0,1-.592-.248.808.808,0,0,1-.248-.592V20.65q0-.12-.135-.09-1.485.45-2.955.765a.718.718,0,0,1-.608-.128A.775.775,0,0,1-14.685,20.65ZM7.41,23.4a.845.845,0,0,1-.84-.84V21.13a.088.088,0,0,0-.045-.075q-.045-.03-.075,0A24.536,24.536,0,0,1,1.965,22.81a.842.842,0,0,1-.66-.06.88.88,0,0,1-.435-.51l-.03-.075a.752.752,0,0,1,.06-.623.73.73,0,0,1,.495-.368A29.23,29.23,0,0,0,5.55,19.93a.051.051,0,0,0,.015-.038q0-.022-.03-.023H1.605a.707.707,0,0,1-.518-.217.724.724,0,0,1,0-1.035.707.707,0,0,1,.518-.218h4.83q.135,0,.135-.12v-.33q0-.12-.135-.12H2.79a.821.821,0,0,1-.6-.255.821.821,0,0,1-.255-.6V14.83a.189.189,0,0,0-.105-.195l-.66-.3a.755.755,0,0,1-.3-1.08,16.831,16.831,0,0,0,1.38-2.82,1.073,1.073,0,0,1,.458-.54A.972.972,0,0,1,3.39,9.76l.195.03a.661.661,0,0,1,.488.322.642.642,0,0,1,.068.578q-.03.1.075.1h2.85a.164.164,0,0,0,.165-.1q.015-.045.053-.128t.052-.127a1.079,1.079,0,0,1,1.11-.72l.24.015a.649.649,0,0,1,.51.307.656.656,0,0,1,.075.593v.03l-.015.03q-.03.1.075.1h3.525a.735.735,0,0,1,0,1.47H9.12a.119.119,0,0,0-.135.135v.375a.119.119,0,0,0,.135.135h3.42a.581.581,0,0,1,.428.172.589.589,0,0,1-.008.84.588.588,0,0,1-.42.172H9.12q-.135,0-.135.12v.39q0,.12.135.12h3.42a.588.588,0,0,1,.42.172.6.6,0,0,1,0,.855.588.588,0,0,1-.42.172H9.12q-.135,0-.135.12v.39q0,.12.135.12h3.84a.64.64,0,0,1,.63.63.63.63,0,0,1-.187.45.594.594,0,0,1-.443.195H8.745q-.135,0-.135.12v.33q0,.12.135.12h4.68a.735.735,0,0,1,0,1.47H9.645a.048.048,0,0,0-.03.045,28.639,28.639,0,0,0,4.17,1.26.73.73,0,0,1,.495.368.752.752,0,0,1,.06.623l-.03.075a.886.886,0,0,1-.427.51.791.791,0,0,1-.638.06A26.5,26.5,0,0,1,8.73,21.055q-.03-.03-.075,0a.088.088,0,0,0-.045.075v1.425a.845.845,0,0,1-.84.84Zm-3.525-11v.375a.119.119,0,0,0,.135.135H6.81a.119.119,0,0,0,.135-.135V12.4a.119.119,0,0,0-.135-.135H4.02A.119.119,0,0,0,3.885,12.4Zm0,1.815v.39q0,.12.135.12H6.81q.135,0,.135-.12v-.39q0-.12-.135-.12H4.02Q3.885,14.095,3.885,14.215Zm.135,2.34H6.81q.135,0,.135-.12v-.39q0-.12-.135-.12H4.02q-.135,0-.135.12v.39Q3.885,16.555,4.02,16.555Zm12.285-5.88a.851.851,0,0,1,.622-.225.833.833,0,0,1,.593.27q.465.48,1.4,1.5a.825.825,0,0,1,.217.622.861.861,0,0,1-.278.592l-.015.03a.778.778,0,0,1-.608.217.861.861,0,0,1-.593-.277q-.69-.765-1.425-1.515a.78.78,0,0,1-.233-.592.758.758,0,0,1,.263-.578Zm.195,6.33a.825.825,0,0,1,0-1.65h1.68a.845.845,0,0,1,.84.84V20a.45.45,0,0,0,.075.24,2.315,2.315,0,0,0,1.335,1.013,13.172,13.172,0,0,0,3.195.323.035.035,0,0,0,.038-.03.036.036,0,0,0-.023-.045.784.784,0,0,1-.285-.63V20.8q0-.12-.135-.12H20.3a.7.7,0,0,1-.5-.21.707.707,0,0,1,0-1.02.7.7,0,0,1,.5-.21H23.22a.119.119,0,0,0,.135-.135V18.82q0-.12-.135-.12H20.805a.871.871,0,0,1-.855-.855V14.83a.871.871,0,0,1,.855-.855H23.22a.119.119,0,0,0,.135-.135v-.27a.119.119,0,0,0-.135-.135h-2.6a.461.461,0,0,1-.45-.45.053.053,0,0,0-.06-.06H20.07a.64.64,0,0,1-.645-.645V10.9a.871.871,0,0,1,.855-.855h8a.871.871,0,0,1,.855.855v1.38a.611.611,0,0,1-.195.458.648.648,0,0,1-.465.187h-.03a.053.053,0,0,0-.06.06.461.461,0,0,1-.45.45H25.41a.119.119,0,0,0-.135.135v.27a.119.119,0,0,0,.135.135h2.34a.871.871,0,0,1,.855.855v3.015a.871.871,0,0,1-.855.855H25.41q-.135,0-.135.12V19.1a.119.119,0,0,0,.135.135h3.045a.7.7,0,0,1,.5.21.707.707,0,0,1,0,1.02.7.7,0,0,1-.5.21H25.41q-.135,0-.135.12v.075a.81.81,0,0,1-.3.645q-.03.03-.023.052a.035.035,0,0,0,.038.022h3.54a.731.731,0,0,1,.555.24.7.7,0,0,1,.195.57.8.8,0,0,1-.262.563.835.835,0,0,1-.593.233h-3.3a25.638,25.638,0,0,1-4.342-.278,4.5,4.5,0,0,1-2.273-.983.16.16,0,0,0-.195-.015q-.7.615-1.26,1.035a.765.765,0,0,1-.622.12.729.729,0,0,1-.5-.375l-.06-.1a.887.887,0,0,1-.1-.66.839.839,0,0,1,.375-.555q.33-.225.93-.7a.243.243,0,0,0,.1-.21V17.125q0-.12-.135-.12Zm8.775-5.34v.315q0,.12.135.12h1.785q.135,0,.135-.12v-.315a.119.119,0,0,0-.135-.135H25.41A.119.119,0,0,0,25.275,11.665ZM23.22,12.1q.135,0,.135-.12v-.315a.119.119,0,0,0-.135-.135H21.36a.119.119,0,0,0-.135.135v.315q0,.12.135.12Zm3.63,5.235v-.36q0-.12-.135-.12H25.41q-.135,0-.135.12v.36a.119.119,0,0,0,.135.135h1.305A.119.119,0,0,0,26.85,17.335Zm-.135-2.115H25.41q-.135,0-.135.12v.33a.119.119,0,0,0,.135.135h1.305a.119.119,0,0,0,.135-.135v-.33Q26.85,15.22,26.715,15.22Zm-5.01.12v.33q0,.135.12.135h1.4a.119.119,0,0,0,.135-.135v-.33q0-.12-.135-.12h-1.4A.106.106,0,0,0,21.7,15.34Zm.12,2.13h1.4a.119.119,0,0,0,.135-.135v-.36q0-.12-.135-.12h-1.4a.106.106,0,0,0-.12.12v.36Q21.7,17.47,21.825,17.47Zm9.255-3.6a.8.8,0,0,1-.577-.24.815.815,0,0,1,0-1.17.8.8,0,0,1,.577-.24h.135q.135,0,.135-.12V10.645a.8.8,0,0,1,.255-.592.833.833,0,0,1,.6-.248h.09a.833.833,0,0,1,.6.248.8.8,0,0,1,.255.592v1.47a.093.093,0,0,0,.1.105.769.769,0,0,1,.75.75v.165a.7.7,0,0,1-.225.518.732.732,0,0,1-.525.217q-.1,0-.1.12v1.845q0,.105.1.075a.541.541,0,0,1,.458.023.477.477,0,0,1,.262.352q.03.1.09.06a.831.831,0,0,1,.195-.075.053.053,0,0,0,.06-.06V11.725a.871.871,0,0,1,.855-.855H35.4a.142.142,0,0,0,.15-.12l.045-.4a.853.853,0,0,1,.322-.57.919.919,0,0,1,.638-.21h.12a.807.807,0,0,1,.57.3.768.768,0,0,1,.18.615.455.455,0,0,0-.015.135.455.455,0,0,1-.015.135q-.03.12.1.12H38a.871.871,0,0,1,.855.855v3.9a.04.04,0,0,0,.045.045.271.271,0,0,1,.248.067.3.3,0,0,1,.112.233v.9a.373.373,0,0,1-.1.263.466.466,0,0,1-.255.142q-.045,0-.045.06V20.95q0,.945-.03,1.372a1.523,1.523,0,0,1-.2.7.635.635,0,0,1-.42.323,5.02,5.02,0,0,1-.8.045h-.12a.88.88,0,0,1-.615-.278,1,1,0,0,1-.285-.638l-.045-.675a.027.027,0,0,0-.03-.03.231.231,0,0,1-.225-.225V17.77a.141.141,0,0,0-.038-.09.072.072,0,0,0-.082-.03.147.147,0,0,0-.135.15,14.064,14.064,0,0,1-.885,4.935.5.5,0,0,1-.435.323.536.536,0,0,1-.51-.2l-.15-.165a1.277,1.277,0,0,1-.21-1.425,11.154,11.154,0,0,0,.645-3.345.04.04,0,0,0-.045-.045.326.326,0,0,1-.248-.075.277.277,0,0,1-.112-.225V17.23q0-.03-.022-.03a.051.051,0,0,0-.037.015,1.064,1.064,0,0,1-.54.465.175.175,0,0,0-.12.18v3.045q0,.9-.038,1.342a1.447,1.447,0,0,1-.225.712.753.753,0,0,1-.45.33,4.019,4.019,0,0,1-.817.06q-.24,0-.435-.015a.838.838,0,0,1-.585-.262.945.945,0,0,1-.27-.593.718.718,0,0,1,.735-.735h.06q.165,0,.195-.083a3.112,3.112,0,0,0,.03-.608v-2.61q0-.12-.12-.09h-.045a.692.692,0,0,1-.608-.1.649.649,0,0,1-.292-.525V17.68a1.023,1.023,0,0,1,.2-.66.986.986,0,0,1,.563-.39.23.23,0,0,0,.09-.03.23.23,0,0,1,.09-.03.142.142,0,0,0,.12-.15V14a.119.119,0,0,0-.135-.135Zm6.3,7.185L37.4,17.59q0-.135-.135-.1l-.09.015a.134.134,0,0,0-.12.135v3.99a.106.106,0,0,0,.12.12q.15,0,.18-.1A3.133,3.133,0,0,0,37.38,21.055Zm-1.53-8.55v.555a.081.081,0,0,0,.038.06.061.061,0,0,0,.068.015.685.685,0,0,1,.6-.052.7.7,0,0,1,.435.413q.12.315.36.975a.043.043,0,0,0,.03.015q.015,0,.015-.03v-1.95q0-.135-.12-.135H35.97Q35.85,12.37,35.85,12.505Zm0,1.455v1.98q0,.135.12.105l1.29-.165q.135-.03.135-.135v-.42q0-.03-.045-.06a.075.075,0,0,0-.075-.015.7.7,0,0,1-.608.023.747.747,0,0,1-.427-.443q-.18-.48-.36-.9-.015-.015-.023-.007A.059.059,0,0,0,35.85,13.96Zm7.125,1.47a2.323,2.323,0,0,1-1.11-.165q-.24-.165-.24-.735V11.845q0-.12-.135-.12h-.315a.106.106,0,0,0-.12.12v.15a5.606,5.606,0,0,1-1.2,3.87q-.03.06.045.09h3.63a.794.794,0,0,1,.8.8A4.159,4.159,0,0,1,44.04,18.3a9.7,9.7,0,0,1-1.11,2.055.114.114,0,0,0,.03.18,8.775,8.775,0,0,0,1.125.735.944.944,0,0,1,.45.5.859.859,0,0,1,0,.667l-.045.075a.8.8,0,0,1-.45.458.716.716,0,0,1-.615-.023,10.047,10.047,0,0,1-1.665-1.11.156.156,0,0,0-.21-.015,9.253,9.253,0,0,1-1.6,1.1.685.685,0,0,1-.615.037A.745.745,0,0,1,38.9,22.5l-.015-.045a.962.962,0,0,1,.03-.668.944.944,0,0,1,.45-.5,8.678,8.678,0,0,0,.975-.645q.12-.09.03-.18a10.129,10.129,0,0,1-1.02-1.4.794.794,0,0,1-.09-.637.821.821,0,0,1,.4-.518l.525-.3a.034.034,0,0,0,.007-.038q-.008-.022-.023-.022a.691.691,0,0,1-.69-.69v-.72a.159.159,0,0,1,.18-.18q.015,0,.015-.03l-.495-.645a1.259,1.259,0,0,1-.03-1.38,6.812,6.812,0,0,0,.42-2.745V11a.871.871,0,0,1,.855-.855h1.92A.871.871,0,0,1,43.2,11v2.64a.855.855,0,0,0,.015.225q.015.03.135.03a.231.231,0,0,0,.248-.165A6.1,6.1,0,0,0,43.68,12.7a.53.53,0,0,1,.195-.39.463.463,0,0,1,.4-.105.66.66,0,0,1,.413.24.611.611,0,0,1,.142.435q-.03.69-.052,1.073a3.052,3.052,0,0,1-.12.7,1.941,1.941,0,0,1-.18.45.646.646,0,0,1-.338.217,1.594,1.594,0,0,1-.472.1Q43.455,15.43,42.975,15.43ZM40.56,17.545a.072.072,0,0,0-.068.045.059.059,0,0,0,.007.075,9.55,9.55,0,0,0,1.035,1.53q.09.09.15,0a7.416,7.416,0,0,0,.825-1.53q.06-.12-.075-.12Zm5.385,4.98-.03-.06a.636.636,0,0,1-.022-.577.612.612,0,0,1,.442-.368,28.648,28.648,0,0,0,3.855-1.26.043.043,0,0,0,.015-.03q0-.015-.03-.015H46.92a.769.769,0,0,1-.75-.75.7.7,0,0,1,.225-.517.732.732,0,0,1,.525-.218h4.545a.119.119,0,0,0,.135-.135V18.2q0-.12-.135-.12H47.49a.675.675,0,1,1,0-1.35h3.975A.119.119,0,0,0,51.6,16.6v-.39q0-.12-.135-.12H47.01a.667.667,0,0,1-.69-.69.682.682,0,0,1,.2-.5.665.665,0,0,1,.487-.2h2.04q.1,0,.075-.12-.2-.525-.48-1.2a.165.165,0,0,0-.165-.12H46.815a.779.779,0,0,1-.562-.225.742.742,0,0,1-.232-.555.794.794,0,0,1,.795-.8h.615q.12,0,.06-.135-.06-.12-.21-.36a.67.67,0,0,1-.052-.592.652.652,0,0,1,.427-.413l.03-.015a1.065,1.065,0,0,1,.7,0,.928.928,0,0,1,.54.45l.495.945a.186.186,0,0,0,.195.12h.54a.119.119,0,0,0,.135-.135v-.99A.871.871,0,0,1,51.15,9.7h.06a.871.871,0,0,1,.855.855v.99q0,.135.12.135h.87q.12,0,.12-.135v-.99A.871.871,0,0,1,54.03,9.7h.06a.871.871,0,0,1,.855.855v.99a.119.119,0,0,0,.135.135h.63a.214.214,0,0,0,.18-.12q.045-.075.225-.39t.27-.495a1.072,1.072,0,0,1,.5-.495.9.9,0,0,1,.682-.06.7.7,0,0,1,.458.39.652.652,0,0,1-.007.6q-.2.39-.24.465a.067.067,0,0,0,.007.068.074.074,0,0,0,.068.037h.57a.794.794,0,0,1,.8.8.742.742,0,0,1-.232.555.779.779,0,0,1-.563.225h-1.59q-.1,0-.165.135-.18.48-.51,1.2a.067.067,0,0,0,.007.067.074.074,0,0,0,.068.038H58.23a.665.665,0,0,1,.487.2.682.682,0,0,1,.2.5.667.667,0,0,1-.69.69H53.775q-.135,0-.135.12v.39a.119.119,0,0,0,.135.135H57.75a.675.675,0,1,1,0,1.35H53.775q-.135,0-.135.12v.39a.119.119,0,0,0,.135.135H58.32a.732.732,0,0,1,.525.218.7.7,0,0,1,.225.517.769.769,0,0,1-.75.75H55.065q-.015.015,0,.045a29.635,29.635,0,0,0,3.855,1.26.607.607,0,0,1,.428.368.636.636,0,0,1-.022.577l-.03.06a1.027,1.027,0,0,1-.533.472.962.962,0,0,1-.7.023,22.724,22.724,0,0,1-4.305-1.83.059.059,0,0,0-.075-.007.072.072,0,0,0-.045.067v1.305a.845.845,0,0,1-.84.84h-.36a.845.845,0,0,1-.84-.84V21.25a.072.072,0,0,0-.045-.067.059.059,0,0,0-.075.007,23.365,23.365,0,0,1-4.32,1.83,1.025,1.025,0,0,1-.69-.03A1,1,0,0,1,45.945,22.525Zm5.37-7.83H53.94a.186.186,0,0,0,.195-.12,12.119,12.119,0,0,0,.525-1.2q.03-.1-.075-.1H50.76q-.135,0-.075.12.165.39.465,1.2A.164.164,0,0,0,51.315,14.695Zm22.44,1.635a.845.845,0,0,1,.84.84.833.833,0,0,1-.247.6.8.8,0,0,1-.592.255H72.15q-.12,0-.12.135V22.5a.871.871,0,0,1-.855.855h-.3a.871.871,0,0,1-.855-.855V18.16q0-.135-.12-.135H67.35a.871.871,0,0,1-.855-.855.8.8,0,0,1,.255-.593.833.833,0,0,1,.6-.247H69.9q.12,0,.12-.135V12.97a.106.106,0,0,0-.12-.12H69a.164.164,0,0,0-.165.1,19.074,19.074,0,0,1-.87,2.13.791.791,0,0,1-.487.443.843.843,0,0,1-.668-.053l-.165-.075a.771.771,0,0,1-.42-.488.868.868,0,0,1,.045-.653,21.687,21.687,0,0,0,1.365-3.885.936.936,0,0,1,.382-.562.857.857,0,0,1,.652-.142l.18.03a.8.8,0,0,1,.54.338.731.731,0,0,1,.12.608q-.015.075-.052.225l-.053.21q-.03.12.09.12H73.53a.8.8,0,0,1,.577.24.815.815,0,0,1,0,1.17.8.8,0,0,1-.577.24H72.15a.106.106,0,0,0-.12.12v3.225q0,.135.12.135Zm-12-6.105H65.4a.743.743,0,0,1,.75.75.749.749,0,0,1-.217.54.712.712,0,0,1-.533.225H61.755a.712.712,0,0,1-.533-.225.749.749,0,0,1-.217-.54.743.743,0,0,1,.75-.75ZM61.41,13.99a.81.81,0,0,1,0-1.62H65.7a.766.766,0,0,1,.563.233.833.833,0,0,1,0,1.155.766.766,0,0,1-.562.233Zm.45,2.13a.735.735,0,0,1,0-1.47H65.4a.682.682,0,0,1,.51.218.743.743,0,0,1,0,1.035.682.682,0,0,1-.51.217Zm0,2.115a.743.743,0,0,1-.735-.735.682.682,0,0,1,.217-.51.719.719,0,0,1,.518-.21H65.4a.717.717,0,0,1,.72.72.719.719,0,0,1-.21.517.682.682,0,0,1-.51.218Zm4.335,1.515v2.325a.833.833,0,0,1-.247.6.8.8,0,0,1-.592.255H62.9q-.075,0-.075.06a.462.462,0,0,1-.48.48h-.495a.845.845,0,0,1-.84-.84V19.75a.833.833,0,0,1,.247-.6.8.8,0,0,1,.593-.255h3.51a.8.8,0,0,1,.592.255A.833.833,0,0,1,66.195,19.75Zm-1.665,1.6V20.47a.119.119,0,0,0-.135-.135h-1.44a.119.119,0,0,0-.135.135v.885a.119.119,0,0,0,.135.135h1.44A.119.119,0,0,0,64.53,21.355ZM76.575,11.98a.855.855,0,0,1,0-1.71h11.85a.855.855,0,0,1,0,1.71h-.27q-.135,0-.135.12v8.655q0,.615-.023.968a2.758,2.758,0,0,1-.12.66,1.165,1.165,0,0,1-.225.443,1.022,1.022,0,0,1-.427.233,2.6,2.6,0,0,1-.63.12q-.33.023-.915.023-.57,0-1.74-.045a.865.865,0,0,1-.592-.263.928.928,0,0,1-.278-.593.694.694,0,0,1,.2-.57.706.706,0,0,1,.563-.225q1.1.045,1.485.045a1.014,1.014,0,0,0,.6-.1,1.014,1.014,0,0,0,.105-.6V12.1q0-.12-.135-.12Zm7.8,6.8a.871.871,0,0,1-.855.855h-4.4a.106.106,0,0,0-.12.12v.225a.871.871,0,0,1-.855.855h-.27a.871.871,0,0,1-.855-.855v-5.7a.871.871,0,0,1,.855-.855h5.64a.871.871,0,0,1,.855.855Zm-1.92-.81v-2.9q0-.12-.135-.12H79.125a.106.106,0,0,0-.12.12v2.9q0,.135.12.135H82.32A.119.119,0,0,0,82.455,17.965Z" transform="translate(248 769)" fill="#ffd800"/><path d="M0,0H322.5" transform="translate(132.5 742.656)" fill="none" stroke="#dcdcdc" stroke-width="1" stroke-dasharray="4 5"/><path d="M0,0H322.5" transform="translate(132.5 805.656)" fill="none" stroke="#dcdcdc" stroke-width="1" stroke-dasharray="4 5"/><path d="M-110.895-5.4a1.27,1.27,0,0,1,.375-.923,1.233,1.233,0,0,1,.915-.383,1.257,1.257,0,0,1,.923.383,1.257,1.257,0,0,1,.382.923,1.257,1.257,0,0,1-.382.923,1.257,1.257,0,0,1-.923.382,1.233,1.233,0,0,1-.915-.382A1.27,1.27,0,0,1-110.895-5.4Zm4.59,4.605a1.257,1.257,0,0,1,.382-.923A1.257,1.257,0,0,1-105-2.1a1.257,1.257,0,0,1,.923.382,1.257,1.257,0,0,1,.382.923,1.233,1.233,0,0,1-.382.915A1.27,1.27,0,0,1-105,.5a1.27,1.27,0,0,1-.923-.375A1.233,1.233,0,0,1-106.305-.8ZM-101.7-5.4a1.257,1.257,0,0,1,.382-.923,1.257,1.257,0,0,1,.923-.383,1.233,1.233,0,0,1,.915.383A1.27,1.27,0,0,1-99.1-5.4a1.27,1.27,0,0,1-.375.923,1.233,1.233,0,0,1-.915.382,1.257,1.257,0,0,1-.923-.382A1.257,1.257,0,0,1-101.7-5.4Zm-4.605-4.605a1.233,1.233,0,0,1,.382-.915A1.27,1.27,0,0,1-105-11.3a1.27,1.27,0,0,1,.923.375,1.233,1.233,0,0,1,.382.915,1.257,1.257,0,0,1-.382.923A1.257,1.257,0,0,1-105-8.7a1.257,1.257,0,0,1-.923-.382A1.257,1.257,0,0,1-106.305-10.005Zm-4.11,9.015,4.41-4.4a.113.113,0,0,0,0-.18l-4.41-4.4a.635.635,0,0,1-.195-.465.635.635,0,0,1,.195-.465.635.635,0,0,1,.465-.195.635.635,0,0,1,.465.195l4.4,4.41a.113.113,0,0,0,.18,0l4.395-4.41a.635.635,0,0,1,.465-.195.635.635,0,0,1,.465.195.635.635,0,0,1,.195.465.635.635,0,0,1-.195.465l-4.41,4.4a.113.113,0,0,0,0,.18l4.41,4.4a.635.635,0,0,1,.195.465.635.635,0,0,1-.195.465.635.635,0,0,1-.465.2.635.635,0,0,1-.465-.2l-4.395-4.41a.113.113,0,0,0-.18,0l-4.4,4.41a.635.635,0,0,1-.465.2.635.635,0,0,1-.465-.2.635.635,0,0,1-.195-.465A.635.635,0,0,1-110.415-.99Zm14.64-7.335a.821.821,0,0,1-.6-.255.821.821,0,0,1-.255-.6v-1.44a.821.821,0,0,1,.255-.6.821.821,0,0,1,.6-.255h4.62a.119.119,0,0,0,.135-.135v-.24a.833.833,0,0,1,.247-.6.8.8,0,0,1,.592-.255h.36a.8.8,0,0,1,.592.255.833.833,0,0,1,.248.6v.24a.119.119,0,0,0,.135.135h4.62a.821.821,0,0,1,.6.255.821.821,0,0,1,.255.6v1.44a.821.821,0,0,1-.255.6.821.821,0,0,1-.6.255h-.33a.139.139,0,0,0-.15.1.814.814,0,0,1-.285.42.756.756,0,0,1-.48.165h-1.8q-.12,0-.09.1a13.091,13.091,0,0,0,.735,2.19q.045.105.135.015.345-.33,1.035-1.11a.927.927,0,0,1,.592-.315.855.855,0,0,1,.638.165.818.818,0,0,1,.338.555.746.746,0,0,1-.173.615A17.059,17.059,0,0,1-85.62-3.75q-.12.09-.03.195a12.888,12.888,0,0,0,2.04,2.37.916.916,0,0,1,.293.585.87.87,0,0,1-.173.63l-.195.24a.8.8,0,0,1-.562.33.754.754,0,0,1-.622-.2,13.1,13.1,0,0,1-2.753-3.533,14.937,14.937,0,0,1-1.613-4.388.142.142,0,0,0-.15-.12h-.63a.38.38,0,0,0-.225.075q-.06.045-.18.142t-.18.142a.1.1,0,0,0-.015.165,7.945,7.945,0,0,1,1.89,2.588A7.139,7.139,0,0,1-88.05-1.53,3.927,3.927,0,0,1-88.478.637a1.611,1.611,0,0,1-1.4.593q-.57,0-1.605-.045a.825.825,0,0,1-.585-.27.907.907,0,0,1-.255-.6.7.7,0,0,1,.232-.563A.782.782,0,0,1-91.5-.465l.945.03q.345,0,.435-.18a2.7,2.7,0,0,0,.09-.915q0-.375-.015-.57a.074.074,0,0,0-.037-.068.05.05,0,0,0-.068.007A19.587,19.587,0,0,1-95.13.645a.8.8,0,0,1-.653-.008.909.909,0,0,1-.472-.472l-.015-.06a.789.789,0,0,1-.007-.63.7.7,0,0,1,.457-.42,19.138,19.138,0,0,0,5.28-2.76.152.152,0,0,0,.06-.2l-.225-.495q-.06-.105-.18-.015A19.634,19.634,0,0,1-95.07-2.2a.891.891,0,0,1-.653-.008.793.793,0,0,1-.457-.457.683.683,0,0,1,.007-.6.8.8,0,0,1,.458-.42,18.429,18.429,0,0,0,3.99-1.845.118.118,0,0,0,.015-.18q-.135-.135-.45-.435a.179.179,0,0,0-.21-.015A21.592,21.592,0,0,1-95-4.935a.852.852,0,0,1-.637-.007.8.8,0,0,1-.457-.443.636.636,0,0,1,.007-.577.753.753,0,0,1,.442-.4,20.863,20.863,0,0,0,3.075-1.23.048.048,0,0,0-.03-.045H-94.53a.756.756,0,0,1-.48-.165.814.814,0,0,1-.285-.42.139.139,0,0,0-.15-.1h-.33Zm1.23-1.59a.119.119,0,0,0-.135.135v.435q0,.12.135.12h9.09q.135,0,.135-.12V-9.78a.119.119,0,0,0-.135-.135Zm25.74-1.425a.779.779,0,0,1,.57.24.779.779,0,0,1,.24.57.754.754,0,0,1-.24.563.791.791,0,0,1-.57.233H-78.99q-.135,0-.135.12V-5.58a15.011,15.011,0,0,1-1.11,6.3.47.47,0,0,1-.427.308.561.561,0,0,1-.5-.218l-.27-.345A1.408,1.408,0,0,1-81.66-.99a10.671,10.671,0,0,0,.51-2.348,34.964,34.964,0,0,0,.15-3.7v-3.45a.821.821,0,0,1,.255-.6.821.821,0,0,1,.6-.255h4.56q.135,0,.135-.12v-.225a.821.821,0,0,1,.255-.6.821.821,0,0,1,.6-.255h.345a.821.821,0,0,1,.6.255.821.821,0,0,1,.255.6v.225a.106.106,0,0,0,.12.12Zm-.015,5.295a.791.791,0,0,1,.577.247.792.792,0,0,1,.248.578.779.779,0,0,1-.24.57.8.8,0,0,1-.585.24h-1.32a.119.119,0,0,0-.135.135V-2.82a.119.119,0,0,0,.135.135h1.1a.736.736,0,0,1,.54.225.736.736,0,0,1,.225.54.736.736,0,0,1-.225.54.736.736,0,0,1-.54.225H-73.5a.761.761,0,0,1-.548-.225.725.725,0,0,1-.232-.54.725.725,0,0,1,.232-.54.761.761,0,0,1,.548-.225h1.17a.119.119,0,0,0,.135-.135V-4.275a.119.119,0,0,0-.135-.135h-1.32a.8.8,0,0,1-.585-.24.779.779,0,0,1-.24-.57.791.791,0,0,1,.247-.578.791.791,0,0,1,.577-.247h1.32q.135,0,.135-.12v-1.1q0-.12-.135-.12-.345.03-1.035.06a.722.722,0,0,1-.548-.2.812.812,0,0,1-.263-.533.7.7,0,0,1,.188-.555.742.742,0,0,1,.533-.255A40.984,40.984,0,0,0-69.21-9.3a.772.772,0,0,1,.577.142.72.72,0,0,1,.308.5.772.772,0,0,1-.143.578.72.72,0,0,1-.5.308q-.78.12-1.17.165a.147.147,0,0,0-.135.15v1.29q0,.12.135.12ZM-78.84-.465q.165-.135.525-.465a.12.12,0,0,0,.015-.18,9.044,9.044,0,0,1-.69-1.065.868.868,0,0,1-.09-.63.9.9,0,0,1,.36-.54.669.669,0,0,1,.555-.113.652.652,0,0,1,.45.352,6.77,6.77,0,0,0,.42.705q.06.09.12,0a5.162,5.162,0,0,0,.54-1.65q.03-.12-.1-.12h-1.185a.682.682,0,0,1-.51-.217.719.719,0,0,1-.21-.517,1.8,1.8,0,0,1,.51-1.245,12.907,12.907,0,0,0,1.1-1.335q.06-.09-.06-.09H-78a.724.724,0,0,1-.533-.218.724.724,0,0,1-.217-.532.724.724,0,0,1,.217-.533A.724.724,0,0,1-78-9.075h2.205a.724.724,0,0,1,.533.217.724.724,0,0,1,.217.533,2.437,2.437,0,0,1-.42,1.38q-.435.63-.93,1.215-.075.105.045.105h.645a.821.821,0,0,1,.6.255.821.821,0,0,1,.255.6v.6a7.85,7.85,0,0,1-1.02,3,.12.12,0,0,0,.045.18,5.245,5.245,0,0,0,1.762.518A22.319,22.319,0,0,0-71.22-.33h2.49a.731.731,0,0,1,.555.24.7.7,0,0,1,.2.57.855.855,0,0,1-.27.57.805.805,0,0,1-.57.225h-2.625A18.924,18.924,0,0,1-74.67,1.05,6.17,6.17,0,0,1-76.815.285a.148.148,0,0,0-.21.03,6.939,6.939,0,0,1-.75.66.777.777,0,0,1-.637.165.834.834,0,0,1-.562-.36L-79.02.72a.851.851,0,0,1-.143-.63A.837.837,0,0,1-78.84-.465ZM-55.725-11.82q.075.135.21.4t.21.4a.723.723,0,0,1,.06.54.765.765,0,0,1-.315.45.124.124,0,0,0-.045.18.74.74,0,0,1,.1.4V-.8a.8.8,0,0,1-.255.593.833.833,0,0,1-.6.248h-8.85A.808.808,0,0,1-65.8-.2.808.808,0,0,1-66.045-.8V-.9a.833.833,0,0,1,.247-.6.8.8,0,0,1,.592-.255h7.575q.135,0,.135-.12v-6.5a.119.119,0,0,0-.135-.135h-7.575a.808.808,0,0,1-.592-.248.808.808,0,0,1-.247-.592V-9.45a.833.833,0,0,1,.247-.6.8.8,0,0,1,.592-.255h8.385a.074.074,0,0,0,.068-.038.05.05,0,0,0-.007-.067q-.06-.12-.187-.36t-.187-.36a.743.743,0,0,1-.053-.592.757.757,0,0,1,.382-.457.76.76,0,0,1,.608-.045A.834.834,0,0,1-55.725-11.82Zm2.295-.225.217.435.2.4a.743.743,0,0,1,.045.6.778.778,0,0,1-.4.45.76.76,0,0,1-.608.045.834.834,0,0,1-.472-.4q-.135-.27-.435-.81a.783.783,0,0,1-.053-.608.749.749,0,0,1,.4-.457.81.81,0,0,1,.63-.045A.787.787,0,0,1-53.43-12.045ZM-49.92-.51a.9.9,0,0,1-.6-.285.793.793,0,0,1-.225-.6l.015-.3a.857.857,0,0,1,.292-.593.851.851,0,0,1,.623-.217,92.21,92.21,0,0,1,9.795,1.02.875.875,0,0,1,.563.345A.9.9,0,0,1-39.27-.5l-.03.3a.749.749,0,0,1-.307.555.771.771,0,0,1-.623.15A87.943,87.943,0,0,0-49.92-.51Zm8.5-5.775a.838.838,0,0,1,.555.353.866.866,0,0,1,.165.637l-.03.3a.792.792,0,0,1-.33.555.793.793,0,0,1-.63.15q-3.45-.555-6.96-.765a.779.779,0,0,1-.577-.285.8.8,0,0,1-.2-.615l.03-.285a.857.857,0,0,1,.292-.593.851.851,0,0,1,.623-.217A68.661,68.661,0,0,1-41.415-6.285Zm1.62-3.015a.773.773,0,0,1-.308.563.8.8,0,0,1-.622.172q-4.3-.57-8.565-.75a.814.814,0,0,1-.585-.278.767.767,0,0,1-.21-.607v-.24a.913.913,0,0,1,.285-.592.781.781,0,0,1,.6-.233q4.23.2,8.685.765a.826.826,0,0,1,.563.323.856.856,0,0,1,.188.623Zm8.91.1a4.718,4.718,0,0,0-2.76,1.6A4.558,4.558,0,0,0-34.65-4.605a4.289,4.289,0,0,0,.465,2.025q.465.885.885.885a.665.665,0,0,0,.435-.2,2.713,2.713,0,0,0,.5-.735,8.954,8.954,0,0,0,.54-1.335,20.817,20.817,0,0,0,.54-2.13q.277-1.328.5-2.992a.076.076,0,0,0-.023-.083A.076.076,0,0,0-30.885-9.2ZM-33.3.2a2.83,2.83,0,0,1-2.235-1.4,5.611,5.611,0,0,1-1.02-3.4,6.112,6.112,0,0,1,1.98-4.725A7.358,7.358,0,0,1-29.4-11.145a5.914,5.914,0,0,1,4.267,1.62A5.471,5.471,0,0,1-23.445-5.4a6.51,6.51,0,0,1-1.087,3.878A4.81,4.81,0,0,1-27.51.42a.8.8,0,0,1-.653-.135.9.9,0,0,1-.367-.57l-.03-.135a.752.752,0,0,1,.12-.615.979.979,0,0,1,.525-.39Q-25.35-2.22-25.35-5.4a3.836,3.836,0,0,0-.908-2.588,3.838,3.838,0,0,0-2.377-1.3.122.122,0,0,0-.165.1q-.3,2.265-.675,3.938a18.074,18.074,0,0,1-.788,2.7,6.314,6.314,0,0,1-.922,1.65,3.036,3.036,0,0,1-1,.855A2.579,2.579,0,0,1-33.3.2Zm12.7,1.125a.833.833,0,0,1-.6-.248A.8.8,0,0,1-21.45.48V-11.025a.821.821,0,0,1,.255-.6.821.821,0,0,1,.6-.255H-9.4a.821.821,0,0,1,.6.255.821.821,0,0,1,.255.6V.48a.8.8,0,0,1-.255.592.833.833,0,0,1-.6.248h-.45a.622.622,0,0,1-.457-.187A.622.622,0,0,1-10.5.675a.093.093,0,0,0-.1-.1H-19.4a.093.093,0,0,0-.1.1.622.622,0,0,1-.187.458.622.622,0,0,1-.458.188ZM-19.5-10.1V-1.17a.106.106,0,0,0,.12.12h8.76a.106.106,0,0,0,.12-.12V-10.1q0-.135-.12-.135h-8.76Q-19.5-10.23-19.5-10.1Zm2.22,7.59a.808.808,0,0,1-.593-.247.808.808,0,0,1-.247-.592V-7.98a.808.808,0,0,1,.247-.593.808.808,0,0,1,.593-.247h4.56a.808.808,0,0,1,.593.247.808.808,0,0,1,.247.593v4.635a.808.808,0,0,1-.247.592.808.808,0,0,1-.593.247h-4.56Zm.93-4.635v2.97a.106.106,0,0,0,.12.12h2.46a.106.106,0,0,0,.12-.12V-7.14q0-.135-.12-.135h-2.46Q-16.35-7.275-16.35-7.14ZM-.825-.72A11.507,11.507,0,0,0,1.7-2.79.156.156,0,0,0,1.71-3,16.09,16.09,0,0,1-.33-8.16a.842.842,0,0,1,.12-.653A.827.827,0,0,1,.33-9.2l.2-.045a.805.805,0,0,1,.622.105.787.787,0,0,1,.368.525A14.969,14.969,0,0,0,2.94-4.62a.1.1,0,0,0,.075.03.06.06,0,0,0,.06-.03A13.461,13.461,0,0,0,4.89-9.63q.03-.15-.1-.15H.075a.808.808,0,0,1-.592-.248.808.808,0,0,1-.247-.592.833.833,0,0,1,.247-.6.8.8,0,0,1,.592-.255H6a.821.821,0,0,1,.6.255.821.821,0,0,1,.255.6v.84A15.8,15.8,0,0,1,4.29-2.91a.166.166,0,0,0,0,.21,10.618,10.618,0,0,0,2.3,1.95.891.891,0,0,1,.39.532A.832.832,0,0,1,6.9.42L6.8.63a.805.805,0,0,1-.5.4.742.742,0,0,1-.637-.1,13.373,13.373,0,0,1-2.58-2.145q-.09-.12-.18,0A12.945,12.945,0,0,1,.2.945a.756.756,0,0,1-.645.1.924.924,0,0,1-.54-.4l-.135-.21A.794.794,0,0,1-1.215-.2.833.833,0,0,1-.825-.72Zm-6.36-.63v-.09a.828.828,0,0,1,.157-.585.847.847,0,0,1,.5-.33A.13.13,0,0,0-6.42-2.49v-7.755a.821.821,0,0,1,.255-.6.821.821,0,0,1,.6-.255h.09a.821.821,0,0,1,.6.255.821.821,0,0,1,.255.6V-2.94q0,.135.12.105.945-.255,1.2-.33a.154.154,0,0,0,.135-.165v-8.025a.808.808,0,0,1,.247-.592.808.808,0,0,1,.593-.248h.21a.808.808,0,0,1,.593.248.808.808,0,0,1,.247.592V.555a.808.808,0,0,1-.247.593.808.808,0,0,1-.593.247h-.21a.808.808,0,0,1-.593-.247A.808.808,0,0,1-3.165.555V-1.35q0-.12-.135-.09-1.485.45-2.955.765A.718.718,0,0,1-6.863-.8.775.775,0,0,1-7.185-1.35Zm22.95-1.83q-1.56,0-1.56,1.08,0,1.2,1.56,1.2a1.44,1.44,0,0,0,1.065-.338,1.563,1.563,0,0,0,.33-1.117v-.3a.224.224,0,0,0-.12-.2A2.606,2.606,0,0,0,15.765-3.18ZM15.855.8a3.939,3.939,0,0,1-2.58-.758A2.62,2.62,0,0,1,12.36-2.1a2.523,2.523,0,0,1,.907-2.055,3.961,3.961,0,0,1,2.588-.75,4.041,4.041,0,0,1,1.185.165q.12.03.12-.09V-7.665a.119.119,0,0,0-.135-.135H13.71a.821.821,0,0,1-.6-.255.821.821,0,0,1-.255-.6.8.8,0,0,1,.255-.592.833.833,0,0,1,.6-.247h3.315a.119.119,0,0,0,.135-.135v-1.32a.821.821,0,0,1,.255-.6.821.821,0,0,1,.6-.255h.2a.821.821,0,0,1,.6.255.821.821,0,0,1,.255.6v1.32q0,.135.12.135h1.47a.833.833,0,0,1,.6.247.8.8,0,0,1,.255.592.821.821,0,0,1-.255.6.821.821,0,0,1-.6.255h-1.47q-.12,0-.12.135v3.96a.3.3,0,0,0,.105.21A24.691,24.691,0,0,1,21-1.8a.856.856,0,0,1,.24.607.829.829,0,0,1-.255.608l-.06.06a.847.847,0,0,1-.6.24.821.821,0,0,1-.6-.255q-.24-.255-.675-.69-.09-.09-.12.045Q18.4.8,15.855.8ZM10.35.705A.961.961,0,0,1,9.682.548.853.853,0,0,1,9.3,0a25.208,25.208,0,0,1-.555-5.4A25.208,25.208,0,0,1,9.3-10.8a.853.853,0,0,1,.382-.548.961.961,0,0,1,.668-.157l.18.015a.74.74,0,0,1,.525.323.731.731,0,0,1,.12.608A23.855,23.855,0,0,0,10.65-5.4a23.855,23.855,0,0,0,.525,5.16.731.731,0,0,1-.12.608A.74.74,0,0,1,10.53.69ZM25.62.465q-.735-.9-1.68-1.95a.778.778,0,0,1-.218-.608.787.787,0,0,1,.292-.577l.18-.15a.871.871,0,0,1,.615-.21.8.8,0,0,1,.585.285q.78.885,1.785,2.07a.757.757,0,0,1,.18.608.787.787,0,0,1-.33.548l-.18.15A.842.842,0,0,1,26.2.788.9.9,0,0,1,25.62.465ZM39.045-9.2a.8.8,0,0,1-.592-.255.833.833,0,0,1-.247-.6.833.833,0,0,1,.247-.6.8.8,0,0,1,.592-.255H43.77q.135,0,.135-.12v-.48a.808.808,0,0,1,.248-.592.808.808,0,0,1,.592-.248h.36a.808.808,0,0,1,.593.248.808.808,0,0,1,.247.592v.48q0,.12.135.12h4.875a.8.8,0,0,1,.592.255.833.833,0,0,1,.248.6.833.833,0,0,1-.248.6.8.8,0,0,1-.592.255H46.08q-.135,0-.135.12V-7.77q0,.12.135.12h4.14a.821.821,0,0,1,.6.255.821.821,0,0,1,.255.6V-2.25q0,.615-.022.967a3.032,3.032,0,0,1-.112.66,1.175,1.175,0,0,1-.21.443.946.946,0,0,1-.39.233,2.155,2.155,0,0,1-.577.12Q49.455.2,48.93.2q-.09,0-1.02-.03a.867.867,0,0,1-.607-.27.973.973,0,0,1-.278-.615.774.774,0,0,1,.225-.585.685.685,0,0,1,.585-.225l.69.03q.435,0,.517-.1a1.246,1.246,0,0,0,.083-.607V-5.82q0-.135-.12-.135H46.08a.119.119,0,0,0-.135.135V.705A.808.808,0,0,1,45.7,1.3a.808.808,0,0,1-.593.248h-.36a.808.808,0,0,1-.592-.248A.808.808,0,0,1,43.9.705V-5.82a.119.119,0,0,0-.135-.135H41.01a.119.119,0,0,0-.135.135V-.645a.8.8,0,0,1-.255.593.833.833,0,0,1-.6.248h-.24a.833.833,0,0,1-.6-.248.8.8,0,0,1-.255-.593V-6.8a.821.821,0,0,1,.255-.6.821.821,0,0,1,.6-.255h3.99q.135,0,.135-.12V-9.075q0-.12-.135-.12ZM54.705,1.38a.821.821,0,0,1-.6-.255.821.821,0,0,1-.255-.6V-11a.821.821,0,0,1,.255-.6.821.821,0,0,1,.6-.255h10.83a.772.772,0,0,1,.577.24.791.791,0,0,1,.232.57.791.791,0,0,1-.232.57.772.772,0,0,1-.577.24H55.98a.119.119,0,0,0-.135.135V-1.05q0,.12.135.12h9.7a.772.772,0,0,1,.577.24.791.791,0,0,1,.233.57.8.8,0,0,1-.24.585.779.779,0,0,1-.57.24h-9.75a.08.08,0,0,0-.09.09.556.556,0,0,1-.173.42.576.576,0,0,1-.412.165Zm2.07-4.08A19.765,19.765,0,0,0,60.21-5.61q.09-.12,0-.2-1.185-.99-2.5-1.89a.709.709,0,0,1-.323-.525.683.683,0,0,1,.188-.57l.09-.09a.993.993,0,0,1,.615-.315.957.957,0,0,1,.66.15,29.036,29.036,0,0,1,2.475,1.86.118.118,0,0,0,.18-.015,24.514,24.514,0,0,0,1.725-2.46.833.833,0,0,1,.517-.39.794.794,0,0,1,.638.09l.24.135a.833.833,0,0,1,.39.517.794.794,0,0,1-.09.638,30.44,30.44,0,0,1-1.935,2.76q-.09.12,0,.18.99.915,2.445,2.445a.746.746,0,0,1,.21.6.828.828,0,0,1-.285.57l-.12.105a.825.825,0,0,1-.622.217A.917.917,0,0,1,64.1-2.07q-1.3-1.38-2.25-2.265-.075-.075-.165.015A22.1,22.1,0,0,1,58.1-1.245a.971.971,0,0,1-.667.15,1,1,0,0,1-.623-.315l-.18-.21a.672.672,0,0,1-.173-.577A.718.718,0,0,1,56.775-2.7Zm12.57,2a.808.808,0,0,1-.592-.248.808.808,0,0,1-.248-.593V-10.95a.833.833,0,0,1,.248-.6.8.8,0,0,1,.592-.255H75.4a.821.821,0,0,1,.6.255.821.821,0,0,1,.255.6v.12a.119.119,0,0,0,.135.135h4.71a.808.808,0,0,1,.592.248.808.808,0,0,1,.247.592.833.833,0,0,1-.247.6A.8.8,0,0,1,81.105-9H80.73a.119.119,0,0,0-.135.135v7.71q0,.63-.015.983A2.626,2.626,0,0,1,80.467.5a1.091,1.091,0,0,1-.225.442,1.148,1.148,0,0,1-.427.233,2.2,2.2,0,0,1-.63.12q-.33.015-.93.015-.345,0-1.365-.045a.867.867,0,0,1-.607-.27A.973.973,0,0,1,76,.375.763.763,0,0,1,76.223-.2.714.714,0,0,1,76.8-.435q.525.03,1.1.03A1.151,1.151,0,0,0,78.51-.5a1.106,1.106,0,0,0,.09-.6v-7.77Q78.6-9,78.48-9H76.4a.119.119,0,0,0-.135.135v7.02A.8.8,0,0,1,76-1.253.833.833,0,0,1,75.4-1h-.21a.665.665,0,0,1-.488-.2.665.665,0,0,1-.2-.487.093.093,0,0,0-.1-.105H70.545a.119.119,0,0,0-.135.135v.12a.8.8,0,0,1-.255.593.833.833,0,0,1-.6.248ZM73.29-10.02v2.295a.106.106,0,0,0,.12.12h.96q.135,0,.135-.12V-10.02a.119.119,0,0,0-.135-.135h-.96Q73.29-10.155,73.29-10.02Zm0,4.1V-3.48q0,.135.12.135h.96A.119.119,0,0,0,74.5-3.48V-5.925q0-.12-.135-.12h-.96A.106.106,0,0,0,73.29-5.925Zm-2.88-4.1v2.295q0,.12.135.12h.945q.135,0,.135-.12V-10.02a.119.119,0,0,0-.135-.135h-.945A.119.119,0,0,0,70.41-10.02Zm0,4.1V-3.48a.119.119,0,0,0,.135.135h.945a.119.119,0,0,0,.135-.135V-5.925q0-.12-.135-.12h-.945Q70.41-6.045,70.41-5.925ZM96.585-10.1a.833.833,0,0,1,.6.247.8.8,0,0,1,.255.592.821.821,0,0,1-.255.6.821.821,0,0,1-.6.255H96.42a.119.119,0,0,0-.135.135v7.14q0,.615-.023.967a2.533,2.533,0,0,1-.127.66,1.159,1.159,0,0,1-.24.442,1.1,1.1,0,0,1-.45.233,2.885,2.885,0,0,1-.675.12q-.36.022-.99.023-1,0-1.74-.03a.894.894,0,0,1-.615-.27A.956.956,0,0,1,91.14.405a.77.77,0,0,1,.225-.593A.736.736,0,0,1,91.95-.42q.975.045,1.485.045a1.548,1.548,0,0,0,.735-.1q.12-.1.12-.608V-8.265a.119.119,0,0,0-.135-.135h-3.57a.821.821,0,0,1-.6-.255.821.821,0,0,1-.255-.6.8.8,0,0,1,.255-.592.833.833,0,0,1,.6-.247h3.57a.119.119,0,0,0,.135-.135v-1.125a.808.808,0,0,1,.247-.592.808.808,0,0,1,.593-.248h.3a.833.833,0,0,1,.6.248.8.8,0,0,1,.255.592v1.125a.119.119,0,0,0,.135.135Zm-4,7.425a.8.8,0,0,1-.653-.038.848.848,0,0,1-.442-.487Q90.93-4.62,90.27-5.97a.788.788,0,0,1-.03-.637.77.77,0,0,1,.435-.457l.15-.075a.843.843,0,0,1,.66-.03.818.818,0,0,1,.48.45q.69,1.485,1.245,2.895a.844.844,0,0,1-.022.653.794.794,0,0,1-.472.442ZM86.535,1.395a.833.833,0,0,1-.6-.247A.8.8,0,0,1,85.68.555V-4.59q-.015-.015-.045,0A13.1,13.1,0,0,1,84.57-2.235a.5.5,0,0,1-.457.248.535.535,0,0,1-.458-.262l-.12-.195A1.307,1.307,0,0,1,83.55-3.9a15.991,15.991,0,0,0,1.8-4.365q.03-.135-.09-.135h-.78a.8.8,0,0,1-.593-.255.833.833,0,0,1-.247-.6.808.808,0,0,1,.247-.592.808.808,0,0,1,.593-.247h1.08q.12,0,.12-.135v-1.125a.8.8,0,0,1,.255-.592.833.833,0,0,1,.6-.248h.225a.833.833,0,0,1,.6.248.8.8,0,0,1,.255.592v1.125q0,.135.12.135h.555a.808.808,0,0,1,.592.247.808.808,0,0,1,.247.592.833.833,0,0,1-.247.6.8.8,0,0,1-.592.255h-.225A.072.072,0,0,0,88-8.355.059.059,0,0,0,88-8.28Q89.01-6.555,89.58-5.52a.947.947,0,0,1,.112.668,1.033,1.033,0,0,1-.337.592.624.624,0,0,1-.54.135.588.588,0,0,1-.435-.345l-.72-1.4a.043.043,0,0,0-.03-.015q-.015,0-.015.03V.555a.8.8,0,0,1-.255.593.833.833,0,0,1-.6.247ZM104.115-9.2a4.717,4.717,0,0,0-2.76,1.6,4.558,4.558,0,0,0-1.005,2.992,4.289,4.289,0,0,0,.465,2.025q.465.885.885.885a.665.665,0,0,0,.435-.2,2.713,2.713,0,0,0,.5-.735,8.953,8.953,0,0,0,.54-1.335,20.816,20.816,0,0,0,.54-2.13q.278-1.328.5-2.992a.076.076,0,0,0-.022-.083A.076.076,0,0,0,104.115-9.2ZM101.7.2a2.83,2.83,0,0,1-2.235-1.4,5.611,5.611,0,0,1-1.02-3.4,6.112,6.112,0,0,1,1.98-4.725,7.358,7.358,0,0,1,5.175-1.815,5.914,5.914,0,0,1,4.268,1.62A5.471,5.471,0,0,1,111.555-5.4a6.51,6.51,0,0,1-1.088,3.878A4.81,4.81,0,0,1,107.49.42a.8.8,0,0,1-.652-.135.9.9,0,0,1-.368-.57l-.03-.135a.752.752,0,0,1,.12-.615.979.979,0,0,1,.525-.39Q109.65-2.22,109.65-5.4a3.836,3.836,0,0,0-.908-2.588,3.838,3.838,0,0,0-2.378-1.3.122.122,0,0,0-.165.1q-.3,2.265-.675,3.938a18.074,18.074,0,0,1-.787,2.7,6.314,6.314,0,0,1-.923,1.65,3.036,3.036,0,0,1-1.005.855A2.579,2.579,0,0,1,101.7.2ZM54.915,12.04a.771.771,0,0,1-.06-.63.823.823,0,0,1,.42-.495h.015a.842.842,0,0,1,.66-.06.824.824,0,0,1,.51.42q.165.3.5.93a.8.8,0,0,1,.03.645.824.824,0,0,1-.435.48.843.843,0,0,1-.66.03.882.882,0,0,1-.495-.435Q55.32,12.79,54.915,12.04Zm2.775-1.65a.866.866,0,0,1,.66-.068.8.8,0,0,1,.51.413l.51.975A.82.82,0,0,1,59,12.835l-.045.03a.883.883,0,0,1-1.155-.39q-.075-.15-.24-.465t-.255-.465a.824.824,0,0,1-.068-.645.748.748,0,0,1,.413-.5ZM47.055,14.395a.845.845,0,0,1-.84-.84.833.833,0,0,1,.248-.6.8.8,0,0,1,.592-.255H48.72a.147.147,0,0,0,.15-.135q.225-.99.405-2.055a.951.951,0,0,1,.353-.562.879.879,0,0,1,.637-.187l.1.015a.749.749,0,0,1,.555.307.771.771,0,0,1,.15.623q-.2,1.14-.33,1.875-.03.12.1.12H52.9a4.461,4.461,0,0,1,.84.09,5.924,5.924,0,0,1,.645.15.986.986,0,0,1,.405.345,1.27,1.27,0,0,1,.27.51q.045.225.12.8a8.264,8.264,0,0,1,.075,1.057v1.44a9.775,9.775,0,0,1-.7,4.245,2.113,2.113,0,0,1-1.9,1.365,8.689,8.689,0,0,1-2.37-.435.8.8,0,0,1-.5-.42.9.9,0,0,1-.052-.675l.03-.09a.8.8,0,0,1,.412-.487.843.843,0,0,1,.653-.052,5.685,5.685,0,0,0,1.425.3.4.4,0,0,0,.285-.135,1.477,1.477,0,0,0,.27-.442,4,4,0,0,0,.232-.765,9.676,9.676,0,0,0,.158-1.155q.06-.7.06-1.552V15.767a3.815,3.815,0,0,0-.06-.653,2.044,2.044,0,0,0-.105-.435.526.526,0,0,0-.24-.187.8.8,0,0,0-.353-.1H50.475a.142.142,0,0,0-.15.12A56.593,56.593,0,0,1,47.97,22.03a.866.866,0,0,1-1.11.51l-.1-.03a.719.719,0,0,1-.465-.427.867.867,0,0,1-.015-.653,60.748,60.748,0,0,0,2.145-6.915q.03-.12-.09-.12Zm10.965.285q.87,2.235,1.41,3.975a.754.754,0,0,1-.068.63.8.8,0,0,1-.5.39l-.18.045a.849.849,0,0,1-.653-.082.917.917,0,0,1-.428-.518q-.63-1.965-1.35-3.795a.867.867,0,0,1,.015-.653.719.719,0,0,1,.465-.427l.18-.06a.868.868,0,0,1,1.11.495Zm6.63-3.105a.711.711,0,0,1-.5-.345.688.688,0,0,1-.067-.6l.015-.045a1.043,1.043,0,0,1,.435-.547.927.927,0,0,1,.675-.142,24.442,24.442,0,0,1,4.02,1.05.828.828,0,0,1,.48.427.748.748,0,0,1,.015.638l-.06.135a.876.876,0,0,1-1.11.495A26.25,26.25,0,0,0,64.65,11.575ZM61.17,20.35a.777.777,0,0,1-.495-.39.816.816,0,0,1-.075-.63,30.523,30.523,0,0,0,.84-4.185.853.853,0,0,1,.323-.57.79.79,0,0,1,.623-.18h.09a.864.864,0,0,1,.585.322.79.79,0,0,1,.18.623,27.5,27.5,0,0,1-.855,4.455.824.824,0,0,1-.42.51.925.925,0,0,1-.675.075Zm10.71-.945q-.06,1.02-.15,1.642a8.092,8.092,0,0,1-.21,1.042,1.18,1.18,0,0,1-.375.622,1.58,1.58,0,0,1-.533.285,4.215,4.215,0,0,1-.788.128q-.9.075-1.785.075-1.02,0-1.785-.045a3.313,3.313,0,0,1-1.432-.3,1.3,1.3,0,0,1-.488-.975q-.03-.1-.12-.06-.885.51-1.845.99a.91.91,0,0,1-.667.045,1.026,1.026,0,0,1-.548-.4l-.135-.18a.739.739,0,0,1,.315-1.065,22.339,22.339,0,0,0,2.85-1.545.218.218,0,0,0,.105-.18v-5.4a.871.871,0,0,1,.855-.855h.345a.871.871,0,0,1,.855.855v3.855a.063.063,0,0,0,.037.052q.038.023.052-.007a18.453,18.453,0,0,0,4.68-6.72.821.821,0,0,1,.458-.465.867.867,0,0,1,.652-.015l.165.06a.8.8,0,0,1,.473.435.784.784,0,0,1,.007.645,21.813,21.813,0,0,1-2.7,4.77,18.453,18.453,0,0,1-3.72,3.66.243.243,0,0,0-.1.21V20.6a1.565,1.565,0,0,0,.09.69q.09.135.48.165.45.045,1.02.045.48,0,1.02-.045a.758.758,0,0,0,.855-.772,10.985,10.985,0,0,0,.165-1.583.791.791,0,0,1,.293-.562.694.694,0,0,1,.592-.157l.21.03a.941.941,0,0,1,.592.345A.929.929,0,0,1,71.88,19.405Zm.69-4.845a.828.828,0,0,1,.645.083.8.8,0,0,1,.39.5,51.551,51.551,0,0,1,1.11,5.31.815.815,0,0,1-.15.638.9.9,0,0,1-.555.367l-.165.045a.816.816,0,0,1-.615-.127.768.768,0,0,1-.345-.533,47.8,47.8,0,0,0-1.08-5.19A.869.869,0,0,1,71.88,15a.772.772,0,0,1,.495-.4Zm7.155,2.685.173-.217.173-.218q.06-.09-.045-.09H77.4a.871.871,0,0,1-.855-.855V13.33a.871.871,0,0,1,.855-.855h2.19a.119.119,0,0,0,.135-.135v-.4q0-.12-.135-.12H76.71a.791.791,0,0,1-.57-.233.815.815,0,0,1,0-1.155.791.791,0,0,1,.57-.233H88.29a.791.791,0,0,1,.57.233.815.815,0,0,1,0,1.155.791.791,0,0,1-.57.233H85.41q-.135,0-.135.12v.4a.119.119,0,0,0,.135.135H87.6a.871.871,0,0,1,.855.855v2.535a.871.871,0,0,1-.855.855H82.53a.2.2,0,0,0-.18.09q-.12.2-.285.435-.075.105.045.105h6.27a.765.765,0,0,1,0,1.53H87.015a.249.249,0,0,0-.195.12,6.6,6.6,0,0,1-1.395,1.575q-.03.015-.023.06a.072.072,0,0,0,.053.06q1.38.45,2.61.915a.675.675,0,0,1,.4.427.6.6,0,0,1-.09.577l-.06.1a1.026,1.026,0,0,1-.577.405.983.983,0,0,1-.7-.045q-1.785-.765-3.39-1.305a.292.292,0,0,0-.24.015,20.754,20.754,0,0,1-6.03,1.41.977.977,0,0,1-.66-.18,1.025,1.025,0,0,1-.4-.555.674.674,0,0,1,.09-.585.614.614,0,0,1,.51-.285,24.413,24.413,0,0,0,3.9-.6q.06-.03.015-.06-.36-.09-1.785-.4a.271.271,0,0,0-.195.045,1.12,1.12,0,0,1-1.305.09l-.165-.09a.534.534,0,0,1-.293-.45.553.553,0,0,1,.217-.5q.5-.42.765-.66.03-.06-.045-.09H76.62a.765.765,0,0,1,0-1.53H79.5A.258.258,0,0,0,79.725,17.245Zm.03-2.07V13.96q0-.12-.135-.12h-1.2a.106.106,0,0,0-.12.12v1.215a.106.106,0,0,0,.12.12h1.2Q79.755,15.3,79.755,15.175Zm5.49-1.215v1.215q0,.12.135.12h1.2a.106.106,0,0,0,.12-.12V13.96a.106.106,0,0,0-.12-.12h-1.2Q85.245,13.84,85.245,13.96Zm-3.57-2.025v.4a.119.119,0,0,0,.135.135h1.38a.119.119,0,0,0,.135-.135v-.4q0-.12-.135-.12H81.81Q81.675,11.815,81.675,11.935Zm-.03,2.025v1.215q0,.12.135.12h1.44q.135,0,.135-.12V13.96q0-.12-.135-.12H81.78Q81.645,13.84,81.645,13.96ZM80.34,19.285a.058.058,0,0,0-.015.068.1.1,0,0,0,.045.052q1.335.255,2.79.63A.312.312,0,0,0,83.4,20a5.453,5.453,0,0,0,1.32-1.035.042.042,0,0,0,.007-.06.065.065,0,0,0-.052-.03h-3.81a.315.315,0,0,0-.225.105Zm20.04-4.32a.842.842,0,0,1,.66-.06.824.824,0,0,1,.51.42q.165.3.495.93a.8.8,0,0,1,.03.645.824.824,0,0,1-.435.48.843.843,0,0,1-.66.03.882.882,0,0,1-.5-.435q-.075-.135-.48-.885a.771.771,0,0,1-.06-.63.823.823,0,0,1,.42-.495Zm3.57-.18.51.975a.82.82,0,0,1-.375,1.125l-.045.03a.883.883,0,0,1-1.155-.39q-.075-.15-.24-.465t-.255-.465a.824.824,0,0,1-.067-.645.748.748,0,0,1,.412-.495l.045-.015a.866.866,0,0,1,.66-.068A.8.8,0,0,1,103.95,14.785ZM91.875,13.15a.845.845,0,0,1-.84-.84V12.2a.871.871,0,0,1,.855-.855q5.13-.015,10.605-.255a.841.841,0,0,1,.615.225.8.8,0,0,1,.285.585v.105a.851.851,0,0,1-.218.622.916.916,0,0,1-.592.307A9.693,9.693,0,0,0,97.793,14.6a3.793,3.793,0,0,0-1.6,3.075,3.159,3.159,0,0,0,1.012,2.49,3.9,3.9,0,0,0,2.693.9,7.977,7.977,0,0,0,.99-.06.873.873,0,0,1,.622.18.8.8,0,0,1,.323.555l.015.135a.866.866,0,0,1-.165.638.784.784,0,0,1-.555.337,12.944,12.944,0,0,1-1.335.075,6.13,6.13,0,0,1-4.185-1.365,4.653,4.653,0,0,1-1.56-3.69,4.761,4.761,0,0,1,.847-2.722A6.591,6.591,0,0,1,97.32,13.06q.015,0,.015-.03H97.32Q95,13.12,91.875,13.15Zm21,4.417a1.324,1.324,0,0,0,0-1.935,1.716,1.716,0,0,0-2.16,0,1.324,1.324,0,0,0,0,1.935,1.716,1.716,0,0,0,2.16,0ZM106.8,13a.794.794,0,0,1-.8-.8.791.791,0,0,1,.233-.57.754.754,0,0,1,.563-.24h6.165q.135,0,.135-.12V10.6a.871.871,0,0,1,.855-.855h.195a.871.871,0,0,1,.855.855v.66q0,.135.12.135H118.2a.754.754,0,0,1,.563.24.791.791,0,0,1,.233.57.794.794,0,0,1-.8.8h-3.075q-.12,0-.12.135V15.85a.646.646,0,0,0,.045.255,5.235,5.235,0,0,1,.345,1.89,4.551,4.551,0,0,1-1.11,3.285,6.385,6.385,0,0,1-3.675,1.56.786.786,0,0,1-.637-.165.959.959,0,0,1-.368-.57v-.06a.761.761,0,0,1,.142-.608.828.828,0,0,1,.548-.337,5.8,5.8,0,0,0,2.31-.728,2.151,2.151,0,0,0,.87-1.358.067.067,0,0,1,.007-.03.067.067,0,0,0,.007-.03V18.94h-.045a3.014,3.014,0,0,1-1.95.615,3.074,3.074,0,0,1-2.228-.833A2.822,2.822,0,0,1,108.4,16.6a2.792,2.792,0,0,1,.878-2.13,3.183,3.183,0,0,1,2.272-.825,3.368,3.368,0,0,1,1.5.345q.015,0,.015.007t.015.007a.013.013,0,0,0,.015-.015v-.855a.119.119,0,0,0-.135-.135Zm14.805,3.6a1.27,1.27,0,0,1,.375-.923,1.233,1.233,0,0,1,.915-.382,1.3,1.3,0,0,1,0,2.61,1.233,1.233,0,0,1-.915-.382A1.27,1.27,0,0,1,121.605,16.6Zm4.59,4.6a1.3,1.3,0,0,1,2.61,0,1.233,1.233,0,0,1-.382.915,1.322,1.322,0,0,1-1.845,0A1.233,1.233,0,0,1,126.195,21.2Zm4.605-4.6a1.306,1.306,0,0,1,1.3-1.305,1.233,1.233,0,0,1,.915.382,1.322,1.322,0,0,1,0,1.845,1.233,1.233,0,0,1-.915.382,1.306,1.306,0,0,1-1.3-1.3Zm-4.605-4.605a1.233,1.233,0,0,1,.382-.915,1.322,1.322,0,0,1,1.845,0,1.233,1.233,0,0,1,.382.915,1.3,1.3,0,0,1-2.61,0Zm-4.11,9.015,4.41-4.4a.113.113,0,0,0,0-.18l-4.41-4.4a.658.658,0,1,1,.93-.93l4.4,4.41a.113.113,0,0,0,.18,0l4.395-4.41a.658.658,0,1,1,.93.93l-4.41,4.4a.112.112,0,0,0,0,.18l4.41,4.4a.658.658,0,1,1-.93.93l-4.395-4.41a.113.113,0,0,0-.18,0l-4.4,4.41a.658.658,0,1,1-.93-.93Z" transform="translate(293 769)" fill="#fff"/></g></svg>