<svg xmlns="http://www.w3.org/2000/svg" width="168" height="168" viewBox="0 0 168 168"><g transform="translate(187 -171)"><path d="M14,0,28,26H0Z" transform="translate(-160.627 330.056) rotate(-137)" fill="#ffd800"/><circle cx="84" cy="84" r="84" transform="translate(-187 171)" fill="#ffd800"/><circle cx="78" cy="78" r="78" transform="translate(-181 176)" fill="#fff"/><rect width="117" height="10" transform="translate(-161 287)" fill="#ffd800"/><rect width="117" height="10" transform="translate(-161 258)" fill="#ffd800"/><path d="M1.328-5.936.816-6.448a.9.9,0,0,1-.256-.64.876.876,0,0,1,.272-.64,19.665,19.665,0,0,0,3.248-4.4,1,1,0,0,1,.544-.48,1.093,1.093,0,0,1,.736-.032l.608.192a.824.824,0,0,1,.5.456.729.729,0,0,1-.016.648A20.629,20.629,0,0,1,4.64-8.336q-.08.112.048.112h6.624q.128,0,.048-.112a20.629,20.629,0,0,1-1.808-3.008A.746.746,0,0,1,9.536-12a.769.769,0,0,1,.5-.448l.608-.192a1.093,1.093,0,0,1,.736.032,1,1,0,0,1,.544.48,19.665,19.665,0,0,0,3.248,4.4.876.876,0,0,1,.272.64.9.9,0,0,1-.256.64l-.512.512a.857.857,0,0,1-.648.264.914.914,0,0,1-.648-.28q-.032-.032-.1-.1a.626.626,0,0,1-.1-.112q-.016-.032-.056-.016t-.04.048V-5.6q0,1.7-.04,2.792A14.537,14.537,0,0,1,12.848-.88,5.637,5.637,0,0,1,12.512.384a1.613,1.613,0,0,1-.584.7,1.981,1.981,0,0,1-.816.328,8.039,8.039,0,0,1-1.144.064q-.48,0-1.824-.1a.911.911,0,0,1-.648-.3,1,1,0,0,1-.28-.664L7.2.016A.79.79,0,0,1,7.448-.6.762.762,0,0,1,8.08-.832q.912.064,1.5.064A.666.666,0,0,0,10.128-1a2.282,2.282,0,0,0,.3-1.032,19.905,19.905,0,0,0,.1-2.368V-5.936q0-.144-.128-.144H7.408q-.16,0-.16.128a11.3,11.3,0,0,1-1.136,4.36A8.208,8.208,0,0,1,3.376,1.3a.959.959,0,0,1-.7.144,1.036,1.036,0,0,1-.64-.368L1.6.528a.7.7,0,0,1-.152-.616.808.808,0,0,1,.376-.536A5.928,5.928,0,0,0,3.872-2.712a8.366,8.366,0,0,0,.9-3.224q0-.144-.128-.144H2.9a.326.326,0,0,0-.24.1l-.048.048a.876.876,0,0,1-.64.272A.876.876,0,0,1,1.328-5.936ZM24.992-2.048a.876.876,0,0,1-.64-.272.876.876,0,0,1-.272-.64v-8.368a.876.876,0,0,1,.272-.64.876.876,0,0,1,.64-.272h.432a.876.876,0,0,1,.64.272.876.876,0,0,1,.272.64V-2.96a.876.876,0,0,1-.272.64.876.876,0,0,1-.64.272ZM29.008-12.88a.876.876,0,0,1,.64.272.876.876,0,0,1,.272.64v10.56q0,.736-.024,1.152a4.018,4.018,0,0,1-.12.784,1.373,1.373,0,0,1-.224.52,1.076,1.076,0,0,1-.44.272,2.24,2.24,0,0,1-.648.144q-.336.024-.944.024-.72,0-1.392-.032a.953.953,0,0,1-.656-.288,1.02,1.02,0,0,1-.3-.656L25.136.144a.814.814,0,0,1,.232-.616.762.762,0,0,1,.616-.248q.24.016.552.032t.392.016q.4,0,.488-.1a1.031,1.031,0,0,0,.088-.56v-10.64a.889.889,0,0,1,.264-.64.85.85,0,0,1,.632-.272ZM16.1.992,15.7.464a1.069,1.069,0,0,1-.224-.7,1.313,1.313,0,0,1,.256-.72A10.99,10.99,0,0,0,17.2-6.768q0-.144-.128-.144h-.3a.889.889,0,0,1-.64-.264.85.85,0,0,1-.272-.632v-3.984a.85.85,0,0,1,.272-.632.889.889,0,0,1,.64-.264H22.24a.889.889,0,0,1,.64.264.85.85,0,0,1,.272.632v3.984a.85.85,0,0,1-.272.632.889.889,0,0,1-.64.264H19.632q-.144,0-.144.128,0,.464-.016.688a.113.113,0,0,0,.128.128h2.64a.864.864,0,0,1,.64.28.9.9,0,0,1,.272.648q-.016,1.616-.04,2.648a16.454,16.454,0,0,1-.128,1.8A8.522,8.522,0,0,1,22.768.56a1.249,1.249,0,0,1-.368.608,1.1,1.1,0,0,1-.5.272,3.856,3.856,0,0,1-.7.048q-.928,0-1.6-.032a.953.953,0,0,1-.656-.288,1.02,1.02,0,0,1-.3-.656L18.624.144a.789.789,0,0,1,.232-.608.773.773,0,0,1,.616-.24q.7.032.816.032a.309.309,0,0,0,.288-.176,2.715,2.715,0,0,0,.152-.848q.056-.672.056-2.048,0-.144-.128-.144h-1.28q-.128,0-.16.16a9.875,9.875,0,0,1-1.984,4.752.682.682,0,0,1-.568.264A.713.713,0,0,1,16.1.992Zm2.128-11.584v1.728a.113.113,0,0,0,.128.128h2.432q.144,0,.144-.128v-1.728a.127.127,0,0,0-.144-.144H18.352Q18.224-10.736,18.224-10.592Zm18.864,6.4a.862.862,0,0,1-.632-.264.862.862,0,0,1-.264-.632V-6.432a.862.862,0,0,1,.264-.632.862.862,0,0,1,.632-.264h1.344a.862.862,0,0,1,.632.264.862.862,0,0,1,.264.632v1.344a.862.862,0,0,1-.264.632.862.862,0,0,1-.632.264Zm8.576-4.224-.224-.528a1.009,1.009,0,0,1-.016-.728,1.078,1.078,0,0,1,.464-.568,10.67,10.67,0,0,0,2.464-2.144,1.3,1.3,0,0,1,.632-.44,1.2,1.2,0,0,1,.76.008l.608.208a.673.673,0,0,1,.448.432.654.654,0,0,1-.08.608q-.288.384-.448.576-.032.016-.008.056a.067.067,0,0,0,.056.04l1.744-.16q.128,0,.1-.144-.144-.4-.224-.7a.687.687,0,0,1,.128-.632.8.8,0,0,1,.592-.328l.736-.08a1.066,1.066,0,0,1,.7.184,1.137,1.137,0,0,1,.448.584,4.607,4.607,0,0,0,.288.72.188.188,0,0,0,.192.112l1.216-.112a.069.069,0,0,0,.056-.032.044.044,0,0,0-.008-.064.31.31,0,0,0-.056-.04.309.309,0,0,1-.056-.04.563.563,0,0,1-.216-.536.622.622,0,0,1,.312-.488l.144-.08a1.281,1.281,0,0,1,.768-.176,1.313,1.313,0,0,1,.736.288q.192.16.568.48t.408.352a.238.238,0,0,0,.176.064.642.642,0,0,1,.456.144.623.623,0,0,1,.232.432l.048.48a.913.913,0,0,1-.2.664.825.825,0,0,1-.6.328l-2.72.272a.067.067,0,0,0-.056.04.072.072,0,0,0-.008.072q.928,1.008,1.552,1.008.208,0,.4-.384a.964.964,0,0,1,.5-.448.75.75,0,0,1,.64.032l.24.128a1.081,1.081,0,0,1,.48.552.872.872,0,0,1-.016.712,2.365,2.365,0,0,1-2.064,1.568A4.826,4.826,0,0,1,55.44-6.88a7.114,7.114,0,0,1-2.176-2.1.227.227,0,0,0-.208-.1l-1.9.192a.94.94,0,0,1-.672-.2.872.872,0,0,1-.352-.6l-.112-.864a.051.051,0,0,0-.032-.048.052.052,0,0,0-.064.016l-.048.048a.307.307,0,0,0-.1.224v3.12a.862.862,0,0,1-.264.632.862.862,0,0,1-.632.264h-.672a.889.889,0,0,1-.64-.264.85.85,0,0,1-.272-.632v-1.04q0-.128-.128-.048l-.384.24a.737.737,0,0,1-.656.072A.743.743,0,0,1,45.664-8.416Zm-.208,6.64-.112-.272a.715.715,0,0,1,.04-.632.705.705,0,0,1,.52-.376,20.231,20.231,0,0,0,3.152-.864.046.046,0,0,0,.016-.032q0-.016-.032-.016H46.4a.876.876,0,0,1-.64-.272.876.876,0,0,1-.272-.64v-.128a.876.876,0,0,1,.272-.64.876.876,0,0,1,.64-.272h5.12a.127.127,0,0,0,.144-.144v-.528a.876.876,0,0,1,.272-.64.876.876,0,0,1,.64-.272h.784a.876.876,0,0,1,.64.272.876.876,0,0,1,.272.64v.528a.127.127,0,0,0,.144.144h4.72a.876.876,0,0,1,.64.272.876.876,0,0,1,.272.64v.128a.876.876,0,0,1-.272.64.876.876,0,0,1-.64.272H58.112q-.032,0-.032.024a.054.054,0,0,0,.016.04l.816.416a.634.634,0,0,1,.352.5.591.591,0,0,1-.208.56q-.656.592-1.168.992-.032.016-.024.072a.081.081,0,0,0,.056.072,11.412,11.412,0,0,0,1.728.688.721.721,0,0,1,.448.424.7.7,0,0,1-.032.616L59.856.8a1.177,1.177,0,0,1-.576.5,1.105,1.105,0,0,1-.752.04A11.224,11.224,0,0,1,54.816-.7q-.08-.08-.08.048l.032.256a.906.906,0,0,1-.184.68.923.923,0,0,1-.6.376q-3.312.544-6.544.8a.92.92,0,0,1-.68-.208.864.864,0,0,1-.328-.624L46.416.416a.887.887,0,0,1,.2-.656.782.782,0,0,1,.6-.3q.5-.032,1.392-.128.128,0,.128-.144v-.9q0-.128-.112-.1-.752.288-1.984.64a.9.9,0,0,1-.7-.064A1,1,0,0,1,45.456-1.776Zm9.536-2.192a.079.079,0,0,0-.072.04.072.072,0,0,0-.008.072A6.7,6.7,0,0,0,55.856-2.7a.17.17,0,0,0,.208.016,10.077,10.077,0,0,0,1.344-1.184.052.052,0,0,0,.016-.064.051.051,0,0,0-.048-.032ZM51.216-2.944v1.856a.15.15,0,0,0,.04.1.077.077,0,0,0,.088.032q1.76-.224,2.64-.368.128-.032.032-.128a8.59,8.59,0,0,1-1.6-2.336q-.064-.128-.16-.032a7.539,7.539,0,0,1-.928.672A.245.245,0,0,0,51.216-2.944Zm20.64-6.768a.127.127,0,0,0-.144.144v1.184q0,.128.144.128h1.968a.876.876,0,0,1,.64.272.876.876,0,0,1,.272.64v.128a.876.876,0,0,1-.272.64.876.876,0,0,1-.64.272H67.152a.876.876,0,0,1-.64-.272.876.876,0,0,1-.272-.64v-.128a.876.876,0,0,1,.272-.64.876.876,0,0,1,.64-.272H69.04a.113.113,0,0,0,.128-.128V-9.568q0-.144-.128-.144H66.768a.889.889,0,0,1-.64-.264.85.85,0,0,1-.272-.632v-.272a.876.876,0,0,1,.272-.64.876.876,0,0,1,.64-.272H69.04a.113.113,0,0,0,.128-.128v-.4a.876.876,0,0,1,.272-.64.876.876,0,0,1,.64-.272h.736a.85.85,0,0,1,.632.272.889.889,0,0,1,.264.64v.4q0,.128.144.128h2.352a.876.876,0,0,1,.64.272.876.876,0,0,1,.272.64v.272a.85.85,0,0,1-.272.632.889.889,0,0,1-.64.264Zm1.776,4.5a.876.876,0,0,1,.64.272.876.876,0,0,1,.272.64V.544a.876.876,0,0,1-.272.64.876.876,0,0,1-.64.272H72.608A.6.6,0,0,1,72,.848q0-.08-.1-.08H68.928q-.1,0-.1.08a.6.6,0,0,1-.168.432.561.561,0,0,1-.424.176h-.912a.85.85,0,0,1-.632-.272.889.889,0,0,1-.264-.64V-4.3a.889.889,0,0,1,.264-.64.85.85,0,0,1,.632-.272ZM72-1.28V-3.056q0-.128-.144-.128h-2.88q-.144,0-.144.128V-1.28q0,.128.144.128h2.88Q72-1.152,72-1.28ZM61.408-10.816a.881.881,0,0,1-.648-.264.881.881,0,0,1-.264-.648.876.876,0,0,1,.272-.64.876.876,0,0,1,.64-.272h3.136a.876.876,0,0,1,.64.272.876.876,0,0,1,.272.64.881.881,0,0,1-.264.648.881.881,0,0,1-.648.264Zm-.416,2.48a.876.876,0,0,1-.64-.272.876.876,0,0,1-.272-.64v-.176a.876.876,0,0,1,.272-.64.876.876,0,0,1,.64-.272h4.016a.876.876,0,0,1,.64.272.876.876,0,0,1,.272.64v.176a.876.876,0,0,1-.272.64.876.876,0,0,1-.64.272ZM61.52-6.08a.849.849,0,0,1-.624-.256.849.849,0,0,1-.256-.624.849.849,0,0,1,.256-.624.849.849,0,0,1,.624-.256h3.04a.849.849,0,0,1,.624.256.849.849,0,0,1,.256.624.849.849,0,0,1-.256.624.849.849,0,0,1-.624.256Zm0,2.256a.836.836,0,0,1-.624-.264A.857.857,0,0,1,60.64-4.7.857.857,0,0,1,60.9-5.32a.836.836,0,0,1,.624-.264h3.04a.836.836,0,0,1,.624.264.857.857,0,0,1,.256.616.857.857,0,0,1-.256.616.836.836,0,0,1-.624.264Zm4,1.392V.192a.85.85,0,0,1-.272.632.889.889,0,0,1-.64.264H62.624a.071.071,0,0,0-.08.08.464.464,0,0,1-.464.464h-.672a.876.876,0,0,1-.64-.272A.876.876,0,0,1,60.5.72V-2.432a.85.85,0,0,1,.272-.632.889.889,0,0,1,.64-.264h3.2a.889.889,0,0,1,.64.264A.85.85,0,0,1,65.52-2.432ZM63.76-.752v-.736a.127.127,0,0,0-.144-.144h-.928a.127.127,0,0,0-.144.144v.736a.127.127,0,0,0,.144.144h.928A.127.127,0,0,0,63.76-.752ZM78.48-6.608a4.249,4.249,0,0,0-.848,2.64,2.951,2.951,0,0,0,.288,1.456.835.835,0,0,0,.72.5,1.865,1.865,0,0,0,1.2-.656.187.187,0,0,0,.016-.224.123.123,0,0,0-.016-.048q-.608-1.664-1.232-3.648a.075.075,0,0,0-.056-.04A.076.076,0,0,0,78.48-6.608Zm4.24-1.824a6.432,6.432,0,0,0-1.984.3q-.112.032-.08.176.544,1.824.848,2.736a.072.072,0,0,0,.048.04.066.066,0,0,0,.064-.024,24.047,24.047,0,0,0,1.376-3.088q.032-.128-.1-.128a.661.661,0,0,1-.088-.008A.661.661,0,0,0,82.72-8.432ZM78.368.368a2.645,2.645,0,0,1-2.2-1.128,5.219,5.219,0,0,1-.856-3.208,6.809,6.809,0,0,1,.632-2.92,6.478,6.478,0,0,1,1.784-2.3.23.23,0,0,0,.064-.24q-.224-.848-.432-1.728a.871.871,0,0,1,.12-.68.8.8,0,0,1,.552-.376l.544-.112a.9.9,0,0,1,.7.128.882.882,0,0,1,.408.576q.048.192.136.552t.12.488q.032.128.144.1a8.6,8.6,0,0,1,2.64-.4,9.031,9.031,0,0,1,.96.048q.16,0,.176-.112.176-.608.336-1.248a.928.928,0,0,1,.408-.568.871.871,0,0,1,.68-.12l.544.112a.882.882,0,0,1,.576.408.819.819,0,0,1,.112.68q-.176.752-.352,1.328a.148.148,0,0,0,.08.192,5.6,5.6,0,0,1,2.392,2.048,5.487,5.487,0,0,1,.856,3.04q0,4.816-4.336,5.9a.849.849,0,0,1-.7-.112.943.943,0,0,1-.424-.576L83.9-.368a.759.759,0,0,1,.1-.64.97.97,0,0,1,.544-.416,3.392,3.392,0,0,0,2.5-3.648A2.951,2.951,0,0,0,85.472-7.76q-.112-.064-.176.064A18.379,18.379,0,0,1,82-1.664,5.1,5.1,0,0,1,78.368.368Z" transform="translate(-165 234)" fill="#454d4c"/><path d="M7.02-.845a1.146,1.146,0,0,0,.9-.286,1.766,1.766,0,0,0,.247-1.105.161.161,0,0,0-.1-.169,2.329,2.329,0,0,0-1.04-.273,1.5,1.5,0,0,0-.923.24.784.784,0,0,0-.312.657A.821.821,0,0,0,6.11-1.1,1.448,1.448,0,0,0,7.02-.845Zm3.25-6.2a.092.092,0,0,0-.1.1v3.653a.2.2,0,0,0,.091.169,16.659,16.659,0,0,1,1.729,1.391.722.722,0,0,1,.234.513.7.7,0,0,1-.2.526l-.234.26a.753.753,0,0,1-.52.24.724.724,0,0,1-.546-.189q-.325-.3-.624-.546a.068.068,0,0,0-.071-.013.08.08,0,0,0-.059.052Q9.4.819,7.02.819a3.627,3.627,0,0,1-2.373-.7,2.331,2.331,0,0,1-.851-1.9A2.313,2.313,0,0,1,4.635-3.66a3.641,3.641,0,0,1,2.385-.7,3.722,3.722,0,0,1,1.04.143q.1.026.1-.078V-8.151a.7.7,0,0,1,.227-.52.687.687,0,0,1,.526-.208q1.6.039,2.769.169a.663.663,0,0,1,.488.273.716.716,0,0,1,.149.546l-.039.312a.693.693,0,0,1-.28.481.71.71,0,0,1-.54.143Q10.946-7.02,10.27-7.046ZM1.313-1.014A.693.693,0,0,1,.9-1.385a.7.7,0,0,1-.02-.552q.884-2.353,1.664-5.07.026-.1-.078-.1H1.664a.722.722,0,0,1-.52-.214.691.691,0,0,1-.221-.514v-.312a.691.691,0,0,1,.221-.514.722.722,0,0,1,.52-.215H2.951a.123.123,0,0,0,.13-.1q.156-.624.234-.949a.77.77,0,0,1,.325-.481.794.794,0,0,1,.572-.143l.416.052a.65.65,0,0,1,.468.28.634.634,0,0,1,.1.526q-.026.117-.078.358t-.078.357q-.026.1.091.1H6.318a.722.722,0,0,1,.52.215.69.69,0,0,1,.221.514v.312a.691.691,0,0,1-.221.514.722.722,0,0,1-.52.214H4.68a.127.127,0,0,0-.13.117A59.225,59.225,0,0,1,2.7-1.313.711.711,0,0,1,2.321-.9a.744.744,0,0,1-.579.026Zm19.123-9.178a.73.73,0,0,1,.572-.052.714.714,0,0,1,.442.364q.143.26.429.806a.7.7,0,0,1,.026.559.714.714,0,0,1-.377.416.73.73,0,0,1-.572.026.764.764,0,0,1-.429-.377q-.065-.117-.416-.767a.668.668,0,0,1-.052-.546.713.713,0,0,1,.364-.429Zm3.094-.156.442.845a.683.683,0,0,1,.045.559.69.69,0,0,1-.37.416l-.039.026a.731.731,0,0,1-.566.033.738.738,0,0,1-.435-.37q-.065-.13-.208-.4t-.221-.4a.714.714,0,0,1-.059-.559.648.648,0,0,1,.358-.429l.039-.013a.751.751,0,0,1,.572-.058A.691.691,0,0,1,23.53-10.348ZM18.421.845q-4.836,0-4.836-3.146,0-1.664,2.054-2.873.078-.039.026-.143a1.221,1.221,0,0,1-.091-.221q-.468-2.015-.741-3.523a.687.687,0,0,1,.13-.546.734.734,0,0,1,.481-.3l.689-.1a.687.687,0,0,1,.546.13.787.787,0,0,1,.312.481q.286,1.573.689,3.185.026.117.13.065a36.717,36.717,0,0,1,3.965-1.144.683.683,0,0,1,.539.1.7.7,0,0,1,.318.461l.091.442a.711.711,0,0,1-.1.559.722.722,0,0,1-.468.325A32.64,32.64,0,0,0,18.271-4.3a6.726,6.726,0,0,0-1.956,1,1.329,1.329,0,0,0-.52.995,1.009,1.009,0,0,0,.618.949,4.744,4.744,0,0,0,2.009.312,25.166,25.166,0,0,0,3.588-.26.69.69,0,0,1,.533.143.7.7,0,0,1,.273.481l.052.416A.737.737,0,0,1,22.718.3a.717.717,0,0,1-.5.286A27.01,27.01,0,0,1,18.421.845Zm11.31-8.554a3.7,3.7,0,0,0-2.073,1.332A3.8,3.8,0,0,0,26.91-4a3.564,3.564,0,0,0,.345,1.579q.344.709.63.709a.465.465,0,0,0,.312-.176,2.437,2.437,0,0,0,.377-.611,8.62,8.62,0,0,0,.416-1.092q.208-.656.429-1.7t.4-2.34A.055.055,0,0,0,29.8-7.7.072.072,0,0,0,29.731-7.709Zm-1.846,8A2.585,2.585,0,0,1,25.851-.962,4.949,4.949,0,0,1,24.921-4,5.425,5.425,0,0,1,26.65-8.171,6.42,6.42,0,0,1,31.2-9.776,5.178,5.178,0,0,1,34.957-8.34a4.877,4.877,0,0,1,1.482,3.66,5.717,5.717,0,0,1-.962,3.419A4.285,4.285,0,0,1,32.851.455a.725.725,0,0,1-.579-.117.768.768,0,0,1-.331-.494l-.1-.442a.669.669,0,0,1,.1-.539.839.839,0,0,1,.455-.345,2.971,2.971,0,0,0,2.054-3.2A3.159,3.159,0,0,0,33.787-6.7a3.075,3.075,0,0,0-1.755-1.1q-.091-.013-.117.1a35.714,35.714,0,0,1-.76,4,9.481,9.481,0,0,1-.943,2.457,3.524,3.524,0,0,1-1.066,1.19A2.346,2.346,0,0,1,27.885.286Z" transform="translate(-75 234)" fill="#454d4c"/><path d="M2-4.14a1.038,1.038,0,0,1-.759-.322A1.038,1.038,0,0,1,.92-5.221,1.065,1.065,0,0,1,1.242-6,1.038,1.038,0,0,1,2-6.325H9.66a.163.163,0,0,0,.184-.184v-.529q0-.207-.184-.207H2.76a.954.954,0,0,1-.7-.287.954.954,0,0,1-.287-.7.954.954,0,0,1,.287-.7.954.954,0,0,1,.7-.288h6.9q.184,0,.184-.207V-9.8q0-.207-.184-.207h-5.8a1.222,1.222,0,0,1-.909-.391,1.278,1.278,0,0,1-.379-.92V-13.34a1.278,1.278,0,0,1,.379-.92,1.222,1.222,0,0,1,.909-.391h5.8a.163.163,0,0,0,.184-.184v-.391a.163.163,0,0,0-.184-.184H2.277a1.084,1.084,0,0,1-.794-.333,1.084,1.084,0,0,1-.334-.793,1.084,1.084,0,0,1,.334-.794,1.084,1.084,0,0,1,.794-.333H9.683q.161,0,.161-.184A1.137,1.137,0,0,1,10.2-18.7a1.2,1.2,0,0,1,.863-.345h.9a1.156,1.156,0,0,1,.851.345,1.156,1.156,0,0,1,.345.851.163.163,0,0,0,.184.184h7.383a1.084,1.084,0,0,1,.794.333,1.084,1.084,0,0,1,.333.794,1.084,1.084,0,0,1-.333.793,1.084,1.084,0,0,1-.794.333H13.34a.163.163,0,0,0-.184.184v.391a.163.163,0,0,0,.184.184h5.8a1.222,1.222,0,0,1,.909.391,1.278,1.278,0,0,1,.38.92v2.024a1.278,1.278,0,0,1-.38.92,1.222,1.222,0,0,1-.909.391h-5.8q-.184,0-.184.207v.368q0,.207.184.207h6.049a1.278,1.278,0,0,1,.92.38,1.222,1.222,0,0,1,.391.908v1.449q0,.161.184.161H21A1.038,1.038,0,0,1,21.758-6a1.065,1.065,0,0,1,.322.782,1.038,1.038,0,0,1-.322.759A1.038,1.038,0,0,1,21-4.14h-.115q-.184,0-.184.161V-1.5a1.222,1.222,0,0,1-.391.909,1.278,1.278,0,0,1-.92.38h-.782a.853.853,0,0,1-.644-.264A.883.883,0,0,1,17.71-1.1a.122.122,0,0,0-.138-.138H13.34a.163.163,0,0,0-.184.184q0,.782-.035,1.242a2.764,2.764,0,0,1-.2.851,1.47,1.47,0,0,1-.379.575,1.811,1.811,0,0,1-.679.311,4.992,4.992,0,0,1-1.012.161q-.552.035-1.472.035-.506,0-2.3-.069a1.155,1.155,0,0,1-.817-.379,1.283,1.283,0,0,1-.357-.84A.992.992,0,0,1,6.233.034a1.042,1.042,0,0,1,.8-.31q.9.046,1.978.046A1.993,1.993,0,0,0,9.741-.3q.1-.069.1-.506v-.23q0-.207-.184-.207H2.737a.928.928,0,0,1-.678-.288.928.928,0,0,1-.287-.678.928.928,0,0,1,.287-.679.928.928,0,0,1,.678-.288H9.66q.184,0,.184-.207v-.575A.163.163,0,0,0,9.66-4.14Zm11.155-8.441v.667a.163.163,0,0,0,.184.184h3.91a.163.163,0,0,0,.184-.184v-.667a.163.163,0,0,0-.184-.184H13.34A.163.163,0,0,0,13.156-12.581Zm0,5.543v.529a.163.163,0,0,0,.184.184h4.186a.163.163,0,0,0,.184-.184v-.529q0-.207-.184-.207H13.34Q13.156-7.245,13.156-7.038Zm0,3.082v.575q0,.207.184.207h4.186q.184,0,.184-.207v-.575a.163.163,0,0,0-.184-.184H13.34A.163.163,0,0,0,13.156-3.956ZM9.66-11.73a.163.163,0,0,0,.184-.184v-.667a.163.163,0,0,0-.184-.184H5.75a.163.163,0,0,0-.184.184v.667a.163.163,0,0,0,.184.184Zm15.617-2.645a1.137,1.137,0,0,1-.851-.357,1.2,1.2,0,0,1-.345-.863,1.156,1.156,0,0,1,.345-.851,1.156,1.156,0,0,1,.851-.345H29.21a.113.113,0,0,0,.1-.057.1.1,0,0,0,.012-.1q-.23-.46-.345-.667a.907.907,0,0,1-.023-.863.97.97,0,0,1,.667-.54l.322-.069a1.857,1.857,0,0,1,1.115.115,1.629,1.629,0,0,1,.816.736q.391.69.667,1.288a.27.27,0,0,0,.276.161h3.473a.343.343,0,0,0,.3-.184q.138-.23.345-.644l.276-.552a1.682,1.682,0,0,1,.771-.794,1.686,1.686,0,0,1,1.069-.172l.391.092a1.008,1.008,0,0,1,.725.529.869.869,0,0,1,.011.874l-.345.69a.1.1,0,0,0,.012.1.113.113,0,0,0,.1.057h3.772a1.156,1.156,0,0,1,.851.345,1.156,1.156,0,0,1,.345.851,1.2,1.2,0,0,1-.345.863,1.137,1.137,0,0,1-.851.357ZM31.188-.552q.506,0,.6-.138a2.553,2.553,0,0,0,.092-.943v-.9a.183.183,0,0,0-.207-.207h-3.4a.183.183,0,0,0-.207.207V.69a1.278,1.278,0,0,1-.38.92A1.222,1.222,0,0,1,26.772,2h-.437a1.259,1.259,0,0,1-.92-.391,1.259,1.259,0,0,1-.391-.92V-11.891a1.222,1.222,0,0,1,.391-.908,1.278,1.278,0,0,1,.92-.379H33.35a1.24,1.24,0,0,1,.909.379,1.24,1.24,0,0,1,.38.908V-1.564q0,.966-.012,1.449a4.042,4.042,0,0,1-.138.955,1.744,1.744,0,0,1-.265.633,1.352,1.352,0,0,1-.552.31,2.642,2.642,0,0,1-.828.161q-.414.012-1.265.011-.483,0-.828-.023a1.248,1.248,0,0,1-.9-.426,1.436,1.436,0,0,1-.391-.932A1.065,1.065,0,0,1,29.8-.276a1.048,1.048,0,0,1,.862-.3Q30.912-.552,31.188-.552ZM28.06-10.557V-9.2a.183.183,0,0,0,.207.207h3.4a.183.183,0,0,0,.207-.207v-1.357q0-.184-.207-.184h-3.4Q28.06-10.741,28.06-10.557Zm3.611,5.589a.183.183,0,0,0,.207-.207v-1.38a.183.183,0,0,0-.207-.207h-3.4a.183.183,0,0,0-.207.207v1.38a.183.183,0,0,0,.207.207Zm7.36,1.219a1.222,1.222,0,0,1-.391.908,1.278,1.278,0,0,1-.92.379h-.207a1.24,1.24,0,0,1-.909-.379,1.239,1.239,0,0,1-.379-.908v-7.82a1.278,1.278,0,0,1,.379-.92,1.222,1.222,0,0,1,.909-.391h.207a1.259,1.259,0,0,1,.92.391,1.259,1.259,0,0,1,.391.92ZM38.87,1.932a1.329,1.329,0,0,1-.932-.414,1.492,1.492,0,0,1-.425-.943V.506a1.135,1.135,0,0,1,.356-.886,1.163,1.163,0,0,1,.909-.357q1.334.046,1.38.046.644,0,.771-.15a1.911,1.911,0,0,0,.126-.932V-12.029a1.278,1.278,0,0,1,.38-.92,1.222,1.222,0,0,1,.909-.391h.391a1.259,1.259,0,0,1,.92.391,1.259,1.259,0,0,1,.391.92V-1.771q0,.943-.034,1.484A4.649,4.649,0,0,1,43.838.725a1.8,1.8,0,0,1-.322.679,1.541,1.541,0,0,1-.6.368,3.063,3.063,0,0,1-.9.2Q41.538,2,40.71,2,40.2,2,38.87,1.932ZM52.451-16.549a1.189,1.189,0,0,1-.149.954,1.254,1.254,0,0,1-.794.564,1.314,1.314,0,0,1-.978-.127q-.575-.322-1.748-.943a1.118,1.118,0,0,1-.575-.7,1.118,1.118,0,0,1,.115-.909,1.369,1.369,0,0,1,.793-.621,1.267,1.267,0,0,1,1,.092q.437.207,1.748.92A1.155,1.155,0,0,1,52.451-16.549Zm-4.634,4.657a1.188,1.188,0,0,1-.6-.736,1.141,1.141,0,0,1,.115-.92,1.32,1.32,0,0,1,.771-.609,1.316,1.316,0,0,1,.978.08q1.058.529,2.116,1.15a1.234,1.234,0,0,1,.586.793,1.14,1.14,0,0,1-.173.955,1.3,1.3,0,0,1-.816.552,1.291,1.291,0,0,1-.978-.161Q48.9-11.339,47.817-11.891Zm2.047,7.406a1.379,1.379,0,0,1-.989.218A1.338,1.338,0,0,1,48-4.784a1.166,1.166,0,0,1-.242-.931,1.248,1.248,0,0,1,.518-.84,27.945,27.945,0,0,0,2.967-2.507,1.141,1.141,0,0,1,.862-.357,1.146,1.146,0,0,1,.84.38,1.343,1.343,0,0,1,.38.92,1.256,1.256,0,0,1-.356.92A21.735,21.735,0,0,1,49.864-4.485Zm9.545-.6a.183.183,0,0,0-.207.207v.736q0,.184.207.184h7.153a1.232,1.232,0,0,1,.886.368,1.2,1.2,0,0,1,.38.9,1.2,1.2,0,0,1-.38.9,1.232,1.232,0,0,1-.886.368H59.409a.183.183,0,0,0-.207.207v2.3a1.24,1.24,0,0,1-.379.908,1.24,1.24,0,0,1-.909.38h-.552a1.24,1.24,0,0,1-.909-.38,1.24,1.24,0,0,1-.379-.908v-2.3a.183.183,0,0,0-.207-.207H48.484a1.232,1.232,0,0,1-.886-.368,1.2,1.2,0,0,1-.379-.9,1.2,1.2,0,0,1,.379-.9,1.232,1.232,0,0,1,.886-.368h7.383q.207,0,.207-.184v-.736a.183.183,0,0,0-.207-.207h-.989a1.259,1.259,0,0,1-.92-.391,1.259,1.259,0,0,1-.391-.92v-4.255a.352.352,0,0,0-.161-.3l-1.012-.667a1.3,1.3,0,0,1-.552-.817A1.291,1.291,0,0,1,52-13.409a28.371,28.371,0,0,0,2.139-4.324,1.662,1.662,0,0,1,.69-.828,1.453,1.453,0,0,1,1.035-.207l.3.046a1.013,1.013,0,0,1,.748.494.985.985,0,0,1,.1.885q-.046.161.138.161H60.4a.252.252,0,0,0,.253-.161q.023-.069.08-.2t.081-.2a1.616,1.616,0,0,1,.655-.84,1.617,1.617,0,0,1,1.047-.264l.3.023a.963.963,0,0,1,.771.472,1.027,1.027,0,0,1,.1.909l-.023.046v.046q-.046.161.138.161h2.576a1.175,1.175,0,0,1,.863.357,1.2,1.2,0,0,1,.356.886,1.2,1.2,0,0,1-.356.885,1.175,1.175,0,0,1-.863.356H63.319q-.207,0-.207.184v.713q0,.184.207.184h2.806a.963.963,0,0,1,.725.3,1.021,1.021,0,0,1,.287.736,1.021,1.021,0,0,1-.287.736.963.963,0,0,1-.725.3H63.319q-.207,0-.207.184v.69a.183.183,0,0,0,.207.207h2.806a.963.963,0,0,1,.725.3,1.021,1.021,0,0,1,.287.736.982.982,0,0,1-.287.724.982.982,0,0,1-.725.288H63.319a.183.183,0,0,0-.207.207v.69a.183.183,0,0,0,.207.207h3.4a1.065,1.065,0,0,1,.782.322,1.065,1.065,0,0,1,.322.782,1.1,1.1,0,0,1-.322.793,1.046,1.046,0,0,1-.782.333Zm-2.852-9.43v.713q0,.184.207.184h3.243q.207,0,.207-.184v-.713q0-.184-.207-.184H56.764Q56.557-14.7,56.557-14.513Zm0,3.151v.69a.183.183,0,0,0,.207.207h3.243a.183.183,0,0,0,.207-.207v-.69q0-.184-.207-.184H56.764Q56.557-11.546,56.557-11.362Zm.207,4.048h3.243a.183.183,0,0,0,.207-.207v-.69a.183.183,0,0,0-.207-.207H56.764a.183.183,0,0,0-.207.207v.69A.183.183,0,0,0,56.764-7.314ZM72.68,2.162a1.259,1.259,0,0,1-.92-.391,1.259,1.259,0,0,1-.391-.92V-6.877q0-.046-.035-.046a.078.078,0,0,0-.058.023q-.322.483-.391.575a.54.54,0,0,1-.587.219.531.531,0,0,1-.425-.471l-.23-1.173a3.26,3.26,0,0,1,.483-2.369A24.811,24.811,0,0,0,73-17.5a1.308,1.308,0,0,1,.587-.84,1.344,1.344,0,0,1,1-.219l.276.069a1.257,1.257,0,0,1,.84.529,1.239,1.239,0,0,1,.219.966,26.39,26.39,0,0,1-1.633,5.106.991.991,0,0,0-.069.391V.851a1.259,1.259,0,0,1-.391.92,1.259,1.259,0,0,1-.92.391Zm3.749-17.411a1.129,1.129,0,0,1-.345-.828,1.129,1.129,0,0,1,.345-.828,1.129,1.129,0,0,1,.828-.345H78.8a.183.183,0,0,0,.207-.207V-17.6a1.259,1.259,0,0,1,.391-.92,1.259,1.259,0,0,1,.92-.391h.3a1.259,1.259,0,0,1,.92.391,1.259,1.259,0,0,1,.391.92v.138q0,.207.184.207h3.22q.184,0,.184-.207V-17.6a1.259,1.259,0,0,1,.391-.92,1.259,1.259,0,0,1,.92-.391h.391a1.222,1.222,0,0,1,.908.391,1.278,1.278,0,0,1,.38.92v.138a.183.183,0,0,0,.207.207h1.357a1.129,1.129,0,0,1,.828.345,1.129,1.129,0,0,1,.345.828,1.129,1.129,0,0,1-.345.828,1.129,1.129,0,0,1-.828.345h-1.38q-.184,0-.184.161a1.065,1.065,0,0,1-.322.782,1.038,1.038,0,0,1-.759.322h-.805a1.046,1.046,0,0,1-.782-.333,1.076,1.076,0,0,1-.322-.771.142.142,0,0,0-.161-.161H82.087a.142.142,0,0,0-.161.161,1.076,1.076,0,0,1-.322.771,1.046,1.046,0,0,1-.782.333h-.713a1.058,1.058,0,0,1-.771-.333,1.058,1.058,0,0,1-.333-.771.142.142,0,0,0-.161-.161H77.257A1.129,1.129,0,0,1,76.429-15.249Zm2.047,4.255q-.207,0-.207.184v.506q0,.184.207.184H89.539a1.259,1.259,0,0,1,.92.391,1.259,1.259,0,0,1,.391.92v8q0,.736-.011,1.127a3.133,3.133,0,0,1-.115.759,1.434,1.434,0,0,1-.23.518,1.045,1.045,0,0,1-.449.264,2.188,2.188,0,0,1-.667.127Q89.033,2,88.366,2q-.069,0-.3-.012t-.391-.012A1.327,1.327,0,0,1,86.8,1.61a1.2,1.2,0,0,1-.391-.851A.972.972,0,0,1,86.7-.046a.992.992,0,0,1,.794-.322h.23q.184,0,.23-.08A1.674,1.674,0,0,0,88-.989v-.644a.183.183,0,0,0-.207-.207H85.9a.183.183,0,0,0-.207.207V.575a1.266,1.266,0,0,1-.38.932,1.266,1.266,0,0,1-.931.379,1.259,1.259,0,0,1-.92-.391,1.259,1.259,0,0,1-.391-.92V-1.633q0-.207-.184-.207H81.1q-.184,0-.184.207V.736a1.222,1.222,0,0,1-.391.908,1.278,1.278,0,0,1-.92.38h-.092a1.278,1.278,0,0,1-.92-.38A1.222,1.222,0,0,1,78.2.736V-7.107A21.769,21.769,0,0,1,76.59.667a.713.713,0,0,1-.621.495A.8.8,0,0,1,75.21.851L74.819.368A2.356,2.356,0,0,1,74.4-1.886a20.349,20.349,0,0,0,.759-3.7,47.806,47.806,0,0,0,.207-4.991v-1.38a1.278,1.278,0,0,1,.38-.92,1.222,1.222,0,0,1,.908-.391H90.344a1.084,1.084,0,0,1,.793.334,1.084,1.084,0,0,1,.334.793,1.122,1.122,0,0,1-.334.8,1.066,1.066,0,0,1-.793.345ZM85.7-7.843v.9a.183.183,0,0,0,.207.207h1.886A.183.183,0,0,0,88-6.946v-.9a.183.183,0,0,0-.207-.207H85.9A.183.183,0,0,0,85.7-7.843Zm0,3.105v.9a.183.183,0,0,0,.207.207h1.886A.183.183,0,0,0,88-3.841v-.9a.183.183,0,0,0-.207-.207H85.9A.183.183,0,0,0,85.7-4.738ZM80.914-7.843v.9q0,.207.184.207h1.794q.184,0,.184-.207v-.9q0-.207-.184-.207H81.1Q80.914-8.05,80.914-7.843Zm0,3.105v.9q0,.207.184.207h1.794q.184,0,.184-.207v-.9q0-.207-.184-.207H81.1Q80.914-4.945,80.914-4.738Zm22.106.5q-2.08,0-2.08,1.44,0,1.6,2.08,1.6a1.92,1.92,0,0,0,1.42-.45,2.084,2.084,0,0,0,.44-1.49v-.4a.3.3,0,0,0-.16-.26A3.475,3.475,0,0,0,103.02-4.24Zm.12,5.3A5.252,5.252,0,0,1,99.7.05,3.493,3.493,0,0,1,98.48-2.8a3.364,3.364,0,0,1,1.21-2.74,5.281,5.281,0,0,1,3.45-1,5.388,5.388,0,0,1,1.58.22q.16.04.16-.12v-3.78a.159.159,0,0,0-.18-.18h-4.42a1.1,1.1,0,0,1-.8-.34,1.1,1.1,0,0,1-.34-.8,1.062,1.062,0,0,1,.34-.79,1.111,1.111,0,0,1,.8-.33h4.42a.159.159,0,0,0,.18-.18V-14.6a1.1,1.1,0,0,1,.34-.8,1.1,1.1,0,0,1,.8-.34h.26a1.1,1.1,0,0,1,.8.34,1.1,1.1,0,0,1,.34.8v1.76q0,.18.16.18h1.96a1.111,1.111,0,0,1,.8.33,1.062,1.062,0,0,1,.34.79,1.1,1.1,0,0,1-.34.8,1.1,1.1,0,0,1-.8.34h-1.96q-.16,0-.16.18v5.28a.4.4,0,0,0,.14.28A32.921,32.921,0,0,1,110-2.4a1.141,1.141,0,0,1,.32.81,1.106,1.106,0,0,1-.34.81l-.08.08a1.129,1.129,0,0,1-.8.32,1.1,1.1,0,0,1-.8-.34q-.32-.34-.9-.92-.12-.12-.16.06Q106.54,1.06,103.14,1.06ZM95.8.94a1.282,1.282,0,0,1-.89-.21A1.138,1.138,0,0,1,94.4,0a33.611,33.611,0,0,1-.74-7.2,33.611,33.611,0,0,1,.74-7.2,1.138,1.138,0,0,1,.51-.73,1.282,1.282,0,0,1,.89-.21l.24.02a.986.986,0,0,1,.7.43.975.975,0,0,1,.16.81,31.807,31.807,0,0,0-.7,6.88,31.807,31.807,0,0,0,.7,6.88.975.975,0,0,1-.16.81.986.986,0,0,1-.7.43ZM2.369,22.709a1.24,1.24,0,0,1-.909-.38,1.24,1.24,0,0,1-.379-.908v-.46a1.278,1.278,0,0,1,.379-.92,1.222,1.222,0,0,1,.909-.391H20.631a1.222,1.222,0,0,1,.909.391,1.278,1.278,0,0,1,.38.92v.46a1.3,1.3,0,0,1-1.288,1.288Zm22.586-2.323a1.167,1.167,0,0,1-.931-.219,1.113,1.113,0,0,1-.472-.84,1.457,1.457,0,0,1,.276-1,1.3,1.3,0,0,1,.874-.541l.575-.115a.217.217,0,0,0,.184-.23V12.98a1.336,1.336,0,0,1,1.311-1.311h.3a1.336,1.336,0,0,1,1.311,1.311v3.887q0,.207.184.161l3.68-.736a1.2,1.2,0,0,1,.943.218,1.1,1.1,0,0,1,.483.84,1.5,1.5,0,0,1-.276,1.012,1.285,1.285,0,0,1-.874.552l-3.956.759a.231.231,0,0,0-.184.253v4.853a1.682,1.682,0,0,0,.127.885,1.612,1.612,0,0,0,.862.127,5.471,5.471,0,0,0,.759-.035q.207-.035.4-.357a2.008,2.008,0,0,0,.241-.874q.046-.552.069-1.748a1.16,1.16,0,0,1,.391-.84,1.034,1.034,0,0,1,.874-.264,1.368,1.368,0,0,1,.885.483,1.312,1.312,0,0,1,.333.943,18.7,18.7,0,0,1-.368,3.358.1.1,0,0,0,.012.046q.011.023.035,0a13.805,13.805,0,0,0,1.92-4.566,35.7,35.7,0,0,0,.794-6.682q0-.207-.184-.207H32.821a1.336,1.336,0,0,1-1.311-1.311,1.222,1.222,0,0,1,.391-.909,1.278,1.278,0,0,1,.92-.379H43.562a1.3,1.3,0,0,1,1.288,1.288v2.852q0,3.519-.069,5.888a39.973,39.973,0,0,1-.3,4.083,20.491,20.491,0,0,1-.494,2.656,3.318,3.318,0,0,1-.805,1.483,2.5,2.5,0,0,1-1.1.69,6.088,6.088,0,0,1-1.507.149,22.454,22.454,0,0,1-2.277-.161,1.379,1.379,0,0,1-.931-.46,1.507,1.507,0,0,1-.4-.989V29.77a1,1,0,0,1,.356-.84,1.133,1.133,0,0,1,.885-.288,15.4,15.4,0,0,0,1.748.138,1.217,1.217,0,0,0,1.1-.587,8.063,8.063,0,0,0,.587-2.829q.218-2.242.218-6.8V15.257q0-.207-.184-.207H38.755a.163.163,0,0,0-.184.184A31.463,31.463,0,0,1,37,24.906a15.535,15.535,0,0,1-4.382,6.222,1.591,1.591,0,0,1-1.023.379,1.552,1.552,0,0,1-1.023-.333l-.23-.161a.991.991,0,0,1-.4-.805.932.932,0,0,1,.379-.805,19.78,19.78,0,0,0,1.449-1.357q.023-.023,0-.058t-.046-.011a8.313,8.313,0,0,1-2.53.253q-.943,0-1.461-.023a4.774,4.774,0,0,1-1-.149,1.6,1.6,0,0,1-.678-.31,1.633,1.633,0,0,1-.357-.61,3.2,3.2,0,0,1-.2-.908q-.035-.483-.035-1.334V20.478q0-.184-.184-.138Zm36.662-1.127q2.99,2.116,5.957,4.646a1.289,1.289,0,0,1,.471.886,1.3,1.3,0,0,1-.287.977l-.276.3a1.2,1.2,0,0,1-.851.472,1.145,1.145,0,0,1-.92-.288q-3.312-2.875-5.888-4.807a1.134,1.134,0,0,1-.471-.84,1.278,1.278,0,0,1,.264-.955l.115-.115a1.375,1.375,0,0,1,1.886-.276ZM47.564,26l-.207-.345a1.337,1.337,0,0,1-.161-1,1.306,1.306,0,0,1,.552-.84,39.981,39.981,0,0,0,9.591-8.786q.115-.161-.069-.161H48.944a1.222,1.222,0,0,1-.909-.391,1.3,1.3,0,0,1,0-1.84,1.222,1.222,0,0,1,.909-.391H66.286a1.222,1.222,0,0,1,.909.391,1.3,1.3,0,0,1,0,1.84,1.222,1.222,0,0,1-.909.391H61.157a.371.371,0,0,0-.3.138q-.851,1.288-1.587,2.208a.583.583,0,0,0-.115.345V30.644a1.336,1.336,0,0,1-1.311,1.311h-.46a1.336,1.336,0,0,1-1.311-1.311v-9.8q0-.046-.057-.069t-.081,0a44.607,44.607,0,0,1-6.624,5.589,1.129,1.129,0,0,1-.955.207A1.193,1.193,0,0,1,47.564,26Zm28.681-3.289.264-.333.265-.333q.092-.138-.069-.138H72.68a1.336,1.336,0,0,1-1.311-1.311V16.706a1.336,1.336,0,0,1,1.311-1.311h3.358a.183.183,0,0,0,.207-.207v-.621q0-.184-.207-.184H71.622a1.213,1.213,0,0,1-.874-.356,1.249,1.249,0,0,1,0-1.771,1.213,1.213,0,0,1,.874-.357H89.378a1.213,1.213,0,0,1,.874.357,1.249,1.249,0,0,1,0,1.771,1.213,1.213,0,0,1-.874.356H84.962q-.207,0-.207.184v.621a.183.183,0,0,0,.207.207H88.32a1.336,1.336,0,0,1,1.311,1.311v3.887A1.336,1.336,0,0,1,88.32,21.9H80.546a.31.31,0,0,0-.276.138q-.184.3-.437.667-.115.161.069.161h9.614a1.173,1.173,0,0,1,0,2.346H87.423a.382.382,0,0,0-.3.184,10.119,10.119,0,0,1-2.139,2.415q-.046.023-.035.092a.111.111,0,0,0,.08.092q2.116.69,4,1.4a1.035,1.035,0,0,1,.621.656.925.925,0,0,1-.138.885l-.092.161a1.573,1.573,0,0,1-.886.621,1.507,1.507,0,0,1-1.069-.069q-2.737-1.173-5.2-2a.448.448,0,0,0-.368.023,31.823,31.823,0,0,1-9.246,2.162,1.5,1.5,0,0,1-1.012-.276,1.572,1.572,0,0,1-.621-.851,1.034,1.034,0,0,1,.138-.9.941.941,0,0,1,.782-.437,37.434,37.434,0,0,0,5.98-.92q.092-.046.023-.092-.552-.138-2.737-.621a.416.416,0,0,0-.3.069,1.717,1.717,0,0,1-2,.138l-.253-.138a.819.819,0,0,1-.448-.69.847.847,0,0,1,.333-.759q.759-.644,1.173-1.012.046-.092-.069-.138H71.484a1.173,1.173,0,0,1,0-2.346H75.9A.4.4,0,0,0,76.245,22.709Zm.046-3.174V17.672q0-.184-.207-.184h-1.84a.163.163,0,0,0-.184.184v1.863a.163.163,0,0,0,.184.184h1.84Q76.291,19.719,76.291,19.535Zm8.418-1.863v1.863q0,.184.207.184h1.84a.163.163,0,0,0,.184-.184V17.672a.163.163,0,0,0-.184-.184h-1.84Q84.709,17.488,84.709,17.672Zm-5.474-3.105v.621a.183.183,0,0,0,.207.207h2.116a.183.183,0,0,0,.207-.207v-.621q0-.184-.207-.184H79.442Q79.235,14.383,79.235,14.567Zm-.046,3.105v1.863q0,.184.207.184H81.6q.207,0,.207-.184V17.672q0-.184-.207-.184H79.4Q79.189,17.488,79.189,17.672Zm-2,8.165a.089.089,0,0,0-.023.1.145.145,0,0,0,.069.08q2.047.391,4.278.966a.478.478,0,0,0,.368-.046A8.362,8.362,0,0,0,83.9,25.354a.064.064,0,0,0,.011-.092.1.1,0,0,0-.08-.046H77.993a.483.483,0,0,0-.345.161Zm26.174-.9a1.3,1.3,0,0,1-.943-.379,1.329,1.329,0,0,1-.414-.931l-.345-9.108a1.216,1.216,0,0,1,.345-.92,1.185,1.185,0,0,1,.9-.391h1.242a1.185,1.185,0,0,1,.9.391,1.216,1.216,0,0,1,.345.92l-.345,9.108a1.329,1.329,0,0,1-.414.931,1.3,1.3,0,0,1-.943.379Zm.552,1.84a1.222,1.222,0,0,1,.909.391,1.278,1.278,0,0,1,.379.92v.6a1.278,1.278,0,0,1-.379.92,1.222,1.222,0,0,1-.909.391h-.782a1.222,1.222,0,0,1-.909-.391,1.278,1.278,0,0,1-.38-.92v-.6a1.278,1.278,0,0,1,.38-.92,1.222,1.222,0,0,1,.909-.391Z" transform="translate(-159 261)" fill="#454d4c"/></g></svg>