<svg xmlns="http://www.w3.org/2000/svg" width="412.052" height="72.412" viewBox="0 0 412.052 72.412"><g transform="translate(-164.121 -403.497)"><g transform="translate(164.121 403.497)"><g transform="translate(0 0)"><g transform="translate(0 1.383)"><rect width="12.606" height="12.606" transform="translate(60.417 43.846)" fill="#fff"/><path d="M237.2,246.586V233.98H247.22l-28.927-18.634L189.366,233.98h10.018V271.8H211.99V259.193H224.6V246.586h12.582v12.606H224.6V271.8H237.2V259.193h12.581V246.586Z" transform="translate(-189.366 -215.347)" fill="#fff"/></g><rect width="12.408" height="12.408" transform="translate(116.733 13.233) rotate(180)" fill="#fff"/><g transform="translate(79.419)"><path d="M370.392,227.425l-32.424.937a7.855,7.855,0,0,0,4.4-11.6l.142-.049-.005-.006,4.314-1.486a.288.288,0,0,0,.177-.367c-.045-.129-.133-.186-.31-.191l-5.082.218-.9-.054a7.867,7.867,0,1,0-6.958,13.661h-.02v.016h-.007l-2.156,21.259-5.276,17.616h0l-.138.461-.7,2.336h0v0a.532.532,0,0,0,.509.685h11.737a.6.6,0,0,0,.6-.6v-2.285a.6.6,0,0,0-.6-.6h-1.257l4.5-15.041,13.764,2.1v15.69a.737.737,0,0,0,.737.737h11.715a.6.6,0,0,0,.6-.6v-2.286a.6.6,0,0,0-.6-.6H364.6V247.263a1.552,1.552,0,0,0-1.318-1.534l-21.039-3.206.446-4.4,27.989-.809a.781.781,0,0,0,.758-.8l-.241-8.332A.78.78,0,0,0,370.392,227.425Zm-40.1-5.358a5.52,5.52,0,0,1-.136-1.107l.66-.227,9.234-3.174a5.491,5.491,0,0,1-3.178,8.652,5.489,5.489,0,0,1-6.579-4.144Z" transform="translate(-325.426 -212.977)" fill="#fff"/><path d="M471.451,238.849h-6.144v-8.5a.833.833,0,0,0-.834-.834H456.93a.833.833,0,0,0-.834.834v8.5H444.8a.834.834,0,0,0-.834.833v7.543a.834.834,0,0,0,.834.834h11.3v26.412h-2.235a.7.7,0,0,0-.7.7v1.838a.7.7,0,0,0,.7.7h10.712a.734.734,0,0,0,.734-.734V248.06h6.144a.833.833,0,0,0,.833-.834v-7.543A.833.833,0,0,0,471.451,238.849Z" transform="translate(-374.771 -219.86)" fill="#fff"/><path d="M549.6,241.06h-5.527v-5.547a.691.691,0,0,0-.692-.69h-6.918a.69.69,0,0,0-.69.69v5.547h-9.084a.69.69,0,0,0-.69.69v7.831a.69.69,0,0,0,.69.69h9.084v13.5A7.773,7.773,0,0,1,528,271.546H526.64a.641.641,0,0,0-.641.641V279.2a.641.641,0,0,0,.641.641H528a16.073,16.073,0,0,0,16.073-16.072v-13.5H549.6a.69.69,0,0,0,.69-.69v-7.831A.69.69,0,0,0,549.6,241.06Z" transform="translate(-408.923 -222.071)" fill="#fff"/><path d="M605.65,256.9h7.967a.838.838,0,0,0,.838-.838v-8.332h7.46a.466.466,0,0,0,.466-.465V233.54a.779.779,0,0,0-.779-.778h-.525v-.025H603.816v-7.111a.74.74,0,0,0-.74-.74h-7.325a.74.74,0,0,0-.74.74v7.111H577.225a.779.779,0,0,0-.778.779v13.478a.74.74,0,0,0,.74.74h7.185v8.332a.838.838,0,0,0,.838.838h9.8v1.933H582.65a.746.746,0,0,0-.746.746v5.36a.745.745,0,0,0,.746.745h12.362v1.8H577.194a.746.746,0,0,0-.747.746v5.36a.746.746,0,0,0,.747.745h44.441a.746.746,0,0,0,.747-.745v-5.36a.746.746,0,0,0-.747-.746H603.816v-1.8h12.362a.745.745,0,0,0,.746-.745v-5.36a.746.746,0,0,0-.746-.746H603.816V256.9Zm-20.4-15.04v-1.616h28.323v1.616Zm7.925,7.615v-.189a.838.838,0,0,1,.838-.838h10.8a.837.837,0,0,1,.837.838v.189a.837.837,0,0,1-.837.838h-10.8A.838.838,0,0,1,593.177,249.478Z" transform="translate(-429.925 -217.935)" fill="#fff"/><path d="M511.308,275.822h-1.9V246.2a.69.69,0,0,0-.69-.69H501.74a.69.69,0,0,0-.691.69v31.673a.894.894,0,0,0,.895.894h9.364a.769.769,0,0,0,.769-.769v-1.405A.769.769,0,0,0,511.308,275.822Z" transform="translate(-398.537 -226.519)" fill="#fff"/><path d="M451.272,275.167a4.362,4.362,0,1,0,4.362,4.363A4.362,4.362,0,0,0,451.272,275.167Z" transform="translate(-375.999 -238.866)" fill="#fff"/><path d="M592.429,230.762a4.362,4.362,0,1,0-4.362-4.361A4.362,4.362,0,0,0,592.429,230.762Z" transform="translate(-434.762 -216.749)" fill="#fff"/><path d="M632.937,230.762a4.362,4.362,0,1,0-4.363-4.361A4.362,4.362,0,0,0,632.937,230.762Z" transform="translate(-451.625 -216.749)" fill="#fff"/><path d="M425.63,233.5l-6.831-3.445a.78.78,0,0,0-1.049.347l-6.425,12.821-.027-.014-2.781,5.58a.783.783,0,0,0,.351,1.05l5.555,2.768v24.449a.851.851,0,0,0,.851.85h7.511a.85.85,0,0,0,.85-.85V250.061a1.151,1.151,0,0,0-.637-1.03l-3.425-1.7,6.405-12.78A.78.78,0,0,0,425.63,233.5Z" transform="translate(-359.981 -220.051)" fill="#fff"/></g></g><path d="M6.51,14.813Q3.594,14.1,2.178,9.939a7.532,7.532,0,0,1-.042-1q0-1.041.083-2.062A3.421,3.421,0,0,1,2.428,5.69q.125-.083.125-.5a4.771,4.771,0,0,1,.292-1.375,2.221,2.221,0,0,0,.167-1.291l.146-.292a2.359,2.359,0,0,1,.271-.417.713.713,0,0,0,.229-.437.656.656,0,0,0-.021-.312V1.024a1.294,1.294,0,0,1,.1-.437A1.821,1.821,0,0,1,3.969.149,1.272,1.272,0,0,0,4.2-.184l.146-.292a14.926,14.926,0,0,1,.646-1.854,15.971,15.971,0,0,1,.812-1.9v-.083a5.336,5.336,0,0,1,.458-.875,6.138,6.138,0,0,1,.583-1.625A42.471,42.471,0,0,1,9.53-11.7a21.283,21.283,0,0,1,2.729-3.728,2.9,2.9,0,0,1,1.958-1.25,1.155,1.155,0,0,1,.833.375,2.161,2.161,0,0,1,.479.833,2.98,2.98,0,0,1,.187.958q0,.583-.333.625a6.59,6.59,0,0,0-1.271,1.708q-.854,1.416-2.27,4l-.625,1.166q-.542,1.166-.937,1.958L9.759-4.016l-.167.375q-1,2.124-1.875,4.582a1.255,1.255,0,0,0-.271.521,2.072,2.072,0,0,0-.062.354q-.083-.042-.146.229a3.284,3.284,0,0,1-.146.479Q6.8,2.774,6.8,3.732a15.884,15.884,0,0,0-.667,2.5,13.414,13.414,0,0,0-.292,2.458,3.163,3.163,0,0,0,.312,1.5,1.956,1.956,0,0,0,.979.875,3.837,3.837,0,0,0,1.5.5,3.544,3.544,0,0,0,.9-.042q.6-.083,1.4-.208h-.042q.208-.042,2.291-.5a7.445,7.445,0,0,0,1.666-.375q.333-.083.937-.271a4.471,4.471,0,0,1,.9-.208.69.69,0,0,1,.417.062,2.82,2.82,0,0,1,.479.687.932.932,0,0,1,.1.771,4.077,4.077,0,0,1-.875.9,15.958,15.958,0,0,1-1.75,1.312,6.606,6.606,0,0,1-1.666.833,10.474,10.474,0,0,1-4.082.625A8.712,8.712,0,0,1,6.51,14.813ZM21.34,11.4a2.35,2.35,0,0,0-.708-.667q-.583-.417-.583-.5a1.063,1.063,0,0,0-.187-.479q-.187-.312-.354-.562-.333-.333.458-2.166T22.09,2.69a5.446,5.446,0,0,0,.646-.875,3.346,3.346,0,0,1,.521-.708A.472.472,0,0,1,23.381.8a.375.375,0,0,1,.292-.146l.333-.667A10.115,10.115,0,0,1,25.63-1.809a14.334,14.334,0,0,1,2.291-1.916,2.966,2.966,0,0,1,1.708-.542,2.6,2.6,0,0,1,1.708.583l1.125.958q1.25,1.041,1.416,1.208L35.42-.142l-.708,2.083a6.727,6.727,0,0,0-.375,2.124,5.409,5.409,0,0,0,.875,2.958,1.706,1.706,0,0,0,.562.708,2.133,2.133,0,0,0,.937.333q.916.167.916.916a2.333,2.333,0,0,1-.333,1.375,1.451,1.451,0,0,1-.791.583,8.869,8.869,0,0,1-.916.083,4.083,4.083,0,0,1-2.208-.625,5.107,5.107,0,0,1-1.75-2.124,5.788,5.788,0,0,1-.437-.916,5.366,5.366,0,0,1-.312-.916,8.885,8.885,0,0,1-.958,1.083q-4.291,4.332-6.957,4.332A2.924,2.924,0,0,1,21.34,11.4Zm2.291-3.458q.667.083,2.583-1.5.208-.167.458-.4t.542-.479q1.166-.958,1.812-1.6A13.135,13.135,0,0,0,30.338,2.4L31.254.9A4.128,4.128,0,0,0,30.5-.33a.986.986,0,0,0-.667-.312Q29-.642,27.755.837a33.083,33.083,0,0,0-3,4.478,8.491,8.491,0,0,0-.75,1.562Q23.714,7.689,23.631,7.939Zm20.662,4.082a2.281,2.281,0,0,1-2.041-1.333,1.513,1.513,0,0,1-.4-.542.849.849,0,0,1-.021-.417q.5,0,.583-.167a.169.169,0,0,1,.146-.167.6.6,0,0,1,.312,0A5.509,5.509,0,0,0,45.9,8.231,31.208,31.208,0,0,0,50.083,4.9q1.166-1.5,1.583-2.145a2.125,2.125,0,0,0,.417-1.062,1.6,1.6,0,0,0-.208-.625.727.727,0,0,0-.667-.333,4.217,4.217,0,0,0-2.041.833,23.829,23.829,0,0,0-2.874,2.062,13.19,13.19,0,0,0-2,2.187q-.542.708-1.021,1.271t-.646.771q0,.167-.479.417a1.839,1.839,0,0,1-.812.25,1.671,1.671,0,0,1-.479-.333.937.937,0,0,1-.312-.583,3.014,3.014,0,0,0-.354-.271,1.176,1.176,0,0,1-.4-.437,1.288,1.288,0,0,1-.125-.583,9.321,9.321,0,0,1,.417-2.124q.375-1.708.854-3.4a7.986,7.986,0,0,1,.646-1.854q.042-.083.187-.458a2.164,2.164,0,0,0,.146-.791,5.9,5.9,0,0,1,.271-.854,2.9,2.9,0,0,0,.187-.562,19.642,19.642,0,0,0,1.333-3.291,18.143,18.143,0,0,1,.916-2.208q1.333-3.124,1.666-4,.208-.333.708-1.208.083-.125.354-.562a1.487,1.487,0,0,1,.437-.521,2.424,2.424,0,0,1,1.271.417,3.269,3.269,0,0,1,1.271.958q.042.083.1.187a.437.437,0,0,1,.062.229,2.389,2.389,0,0,1-.229.75q-.229.542-.5,1.1t-.4.854l-1.208,2.5q-1.75,3.832-3,7.457Q44.793.108,44.5.816l-.208.916L45.376.524A14.266,14.266,0,0,1,47.25-1.017a9.755,9.755,0,0,1,1.458-.75,8.95,8.95,0,0,1,1.333-.5A9.672,9.672,0,0,1,52.332-2.6q1.541,0,2.833,2.208a3.457,3.457,0,0,1,.375,1.708,5.581,5.581,0,0,1-.208,1.5,5.813,5.813,0,0,1-.542,1.333,2.539,2.539,0,0,0-.417.437.809.809,0,0,0-.208.437,4.066,4.066,0,0,1-.708,1.125Q52.791,7.023,52,7.9a15.481,15.481,0,0,1-2.853,2.249,15.655,15.655,0,0,1-2.937,1.541q-.25.042-.937.146A8.854,8.854,0,0,0,44.293,12.022Zm17.079-.083a2.856,2.856,0,0,1-.542.042,1.778,1.778,0,0,1-.875-.187,3.936,3.936,0,0,1-.791-.646A4.167,4.167,0,0,1,57.5,9.605,2.8,2.8,0,0,1,56.873,7.9,16.946,16.946,0,0,1,58,3.544,16.726,16.726,0,0,1,60.393-.7,8.548,8.548,0,0,1,63.538-3.35a3.824,3.824,0,0,1,1.375-.292,1.72,1.72,0,0,1,1.708.833,2.238,2.238,0,0,1,.292.875.675.675,0,0,1-.583.667.514.514,0,0,0-.292.125.336.336,0,0,0-.167.25.841.841,0,0,0,.375.042A9.2,9.2,0,0,0,68-1.059a3.335,3.335,0,0,0,1.333-.458.983.983,0,0,1,.417-.125l.583.083q.708.208.708.5a1.437,1.437,0,0,0,.146.542q.146.333.271.333.208,0,.208.292a1.257,1.257,0,0,1-.271.646,3.367,3.367,0,0,1-.771.771q-.208.125-.6.375a1.132,1.132,0,0,0-.458.417.754.754,0,0,0,.021.458,1.855,1.855,0,0,1,.167.833A5.952,5.952,0,0,1,68.37,6.919a15.36,15.36,0,0,1-3.353,3.353A8.026,8.026,0,0,1,61.372,11.938Zm.125-3.5a4.384,4.384,0,0,0,1.25-.5,2.869,2.869,0,0,1,.875-.667q.125,0,.229-.229t.375-.708a10.817,10.817,0,0,1,.9-1.271,8.537,8.537,0,0,0,.937-1.208,1.788,1.788,0,0,0,.271-.916,3.509,3.509,0,0,0-.083-.583.462.462,0,0,0-.271-.229q-.229-.1-.437-.187a.924.924,0,0,0-.417.1.811.811,0,0,1-.292.1.746.746,0,0,1-.458-.208L63.7,1.107,63,1.816a7.535,7.535,0,0,0-1.6,2.583,10.858,10.858,0,0,0-.771,2.958,1.028,1.028,0,0,0,.187.812A1.079,1.079,0,0,0,61.5,8.439ZM75.7,11.4a3.806,3.806,0,0,1-.937-.167,2.044,2.044,0,0,1-.729-.292,2.366,2.366,0,0,1-.5-.646,2.021,2.021,0,0,1-.25-1.021,3.476,3.476,0,0,1,.667-1.916q.25-.5,1.25-3.458l.833-2.291A1.839,1.839,0,0,0,75.952.587a.8.8,0,0,0-.708-.354.743.743,0,0,1-.667-.312A1.9,1.9,0,0,1,74.369-1.1a2.224,2.224,0,0,1,.958-1.75,4.156,4.156,0,0,1,1.833-.333,2.229,2.229,0,0,1,1.375.292,2.176,2.176,0,0,1,.583,1.125,14.818,14.818,0,0,1,.375,1.625,8.464,8.464,0,0,0,1.083-1.125l.916-.958a12.55,12.55,0,0,1,1.625-.958,3.56,3.56,0,0,1,1.291-.458,2.229,2.229,0,0,1,1.083.417,2.492,2.492,0,0,1,.875.791,4.336,4.336,0,0,1,.625,1.916A1.344,1.344,0,0,1,86.7.4a3.2,3.2,0,0,1-2.5,1.416,2.856,2.856,0,0,1-.542-.042q-.208-.042-.5-.583a2.815,2.815,0,0,1-.333-.833q0-.125-.6.479l-.771.771-.708.75A12.042,12.042,0,0,0,79.389,4.44q-.687,1.291-2.02,3.916l-.542,1.291Q76.41,10.605,76.2,11T75.7,11.4Zm14.247.125q-.708.167-1.708-.75a3.477,3.477,0,0,1-1.166-1.708,3.707,3.707,0,0,1-.083-.708,9.953,9.953,0,0,1,1.041-3.937A17.776,17.776,0,0,1,90.844.066a10.9,10.9,0,0,1,3.895-2.958,3.564,3.564,0,0,1,1.125-.458,3.565,3.565,0,0,1,1.125.458,6.667,6.667,0,0,1,1.333.458,2.692,2.692,0,0,1,.916.791,9.174,9.174,0,0,1,.791,2.666,5.3,5.3,0,0,1,.25,1.25.8.8,0,0,1-.25.583q-.042.042-.146.167a.365.365,0,0,0-.1.187q0,.062.083.062a.938.938,0,0,1-.042.187,2.485,2.485,0,0,1-.167.4,8.839,8.839,0,0,0-.5,2.458,3.706,3.706,0,0,0,.083.708q.417,1.083,1.041,1.083a2.063,2.063,0,0,0,1.333-.75,2.24,2.24,0,0,1,1.25-.417q.375,0,.375.208a1.241,1.241,0,0,0,.167.125.448.448,0,0,0,.25.083q.167,0,.167.375a3.543,3.543,0,0,1-.146.875,3.264,3.264,0,0,1-.354.875,6.35,6.35,0,0,0-.458.5.611.611,0,0,0-.167.333l-.625.583a3.677,3.677,0,0,1-1.875.458A3.112,3.112,0,0,1,98.4,10.9a6.4,6.4,0,0,1-1.25-1.146,3.689,3.689,0,0,1-.75-1.229L96.2,8.106,94.989,8.9,93.948,9.98q-.333.417-.583.417h-.417q0,.292-1.166.708A5.876,5.876,0,0,1,89.948,11.522Zm.875-3.5a4.81,4.81,0,0,0,1.9-1.062,11.152,11.152,0,0,0,1.937-1.687q.167-.208.437-.6a4.344,4.344,0,0,1,.479-.6,14.034,14.034,0,0,0,.979-1.271,1.715,1.715,0,0,0,.312-.937,2.249,2.249,0,0,0-.292-.916q-.167-.5-.5-.5a4.583,4.583,0,0,0-.958.292A7.088,7.088,0,0,0,93.26,2.607a23.408,23.408,0,0,0-1.854,2.874,5.308,5.308,0,0,0-.791,2.124.448.448,0,0,0,.083.25A1.243,1.243,0,0,0,90.823,8.022Zm18,6.748A3.194,3.194,0,0,1,106.507,14a2.89,2.89,0,0,1-.687-2.062q0-.333.083-1.083a8.742,8.742,0,0,0,.25-1.166,2.314,2.314,0,0,1,.417-1.083.452.452,0,0,0,.083-.167.169.169,0,0,0-.083-.208,4.466,4.466,0,0,1,.375-1.5,4.891,4.891,0,0,1,.208-.583q.125-.292.167-.375a.339.339,0,0,1-.083-.25.581.581,0,0,1,.229-.417,1.9,1.9,0,0,0,.333-.375.272.272,0,0,0-.021-.333,5.451,5.451,0,0,1,.791-1.875q.542-1.083.583-1.208a6.585,6.585,0,0,1,.6-1.541q.646-1.416,1.021-2.124.375-.208-.292-.292a9.912,9.912,0,0,0-1.625-.042,21.127,21.127,0,0,1-2.124-.146,3.567,3.567,0,0,1-1.208-.354,1.015,1.015,0,0,1-.292-.75,1.5,1.5,0,0,1,.4-1,1.381,1.381,0,0,1,.979-.5q1.083-.042,3.333-.292l2.125-.167.125-.708q.208-.375.4-.646a1.774,1.774,0,0,0,.25-.479,3.577,3.577,0,0,0,.1-.625,6.15,6.15,0,0,0,.437-.833,4.429,4.429,0,0,0,.4-1.291q.458-.791.854-1.52t.479-.854a2.073,2.073,0,0,1,1.666-1.125,1.992,1.992,0,0,1,1.041.333,6.176,6.176,0,0,1,.833.667,1.069,1.069,0,0,1,.292.791,2.613,2.613,0,0,1-.375,1.083,12.25,12.25,0,0,0-.5,1.333,6.7,6.7,0,0,0-.625,1.021,4.971,4.971,0,0,0-.458,1.229q-.083.208-.25.562a2.065,2.065,0,0,1-.229.417.255.255,0,0,1-.187.062.475.475,0,0,0,.167.333.78.78,0,0,0,.417.083,4.068,4.068,0,0,0,.521-.042,5.976,5.976,0,0,1,.771-.042,4.652,4.652,0,0,0,.729-.125,2.341,2.341,0,0,1,.6-.083,1.6,1.6,0,0,1,.5.125,1.571,1.571,0,0,1,.208.958,3.085,3.085,0,0,1-.167,1.021,1.006,1.006,0,0,1-.417.6q-.208.042-.916.25a6.625,6.625,0,0,1-1.541.25l-2.208.208-.708,1.416a10.689,10.689,0,0,0-.5.958,2.524,2.524,0,0,1-.292.542,2.415,2.415,0,0,1-.333.833q-.333.625-.5,1a9.233,9.233,0,0,1-.5,1.146q-.292.562-.375.729-.125,0-.146.062a.632.632,0,0,0-.021.187l.083.333a.6.6,0,0,1-.208.417.872.872,0,0,0-.312.292,2.838,2.838,0,0,0-.187.292.283.283,0,0,1,.083.208,1.519,1.519,0,0,1-.292.75,6.289,6.289,0,0,1-.583,2.124,9.091,9.091,0,0,0,.083.958q.042.208.208.167h.208l.916-.042q.292-.125.146.625a15.815,15.815,0,0,1-.729,2.291,12.032,12.032,0,0,1-1.312,1.687Q109.027,14.771,108.819,14.771Zm12.747-2.791a1.6,1.6,0,0,1-.791-.167,6.307,6.307,0,0,1-.833-.625,7.281,7.281,0,0,1-1.291-1.812,2.718,2.718,0,0,1-.333-1.645,1.24,1.24,0,0,0,.1-.583q-.021-.292-.021-.375-.167-.167-.167-.229a.168.168,0,0,1,.083-.125.413.413,0,0,0,.125-.146q.25,0,.167-.458a3.483,3.483,0,0,1,.292-1.458,10.182,10.182,0,0,1,.958-2.083A19.525,19.525,0,0,1,121.212.4a11.612,11.612,0,0,1,1.6-1.708,9.2,9.2,0,0,1,3.749-2.166,6.686,6.686,0,0,1,1.625-.208,2.535,2.535,0,0,1,1.875.667A2.636,2.636,0,0,1,131.4-1.934a4.686,4.686,0,0,1,.542,1.875,5.744,5.744,0,0,1,.042.833,11.261,11.261,0,0,1-2.333,6.415A12.025,12.025,0,0,1,127.731,9.4a16.944,16.944,0,0,1-2.333,1.666,4.386,4.386,0,0,1-1.583.667A17.142,17.142,0,0,1,121.566,11.98ZM125.815,6.9a4.779,4.779,0,0,0,1.146-1.437q.354-.729,1.021-2.562a3.011,3.011,0,0,0,.25-1.5q0-1-.292-1.125a.775.775,0,0,0-.5-.167,2.636,2.636,0,0,0-1.208.583,15.141,15.141,0,0,0-2.437,2.6,8.139,8.139,0,0,0-1.354,3.1,2.221,2.221,0,0,0-.042.5q0,1.416,1,1.416A4.009,4.009,0,0,0,125.815,6.9Zm8.79,4.249a5.613,5.613,0,0,1-.916-.875,1.427,1.427,0,0,1-.208-1.166,19.747,19.747,0,0,1,.625-3.291l.208-.833A25.118,25.118,0,0,1,135.625.545,22.682,22.682,0,0,1,137.6-3.933a1.962,1.962,0,0,1,1.416-.417,1.626,1.626,0,0,1,1.166.333.975.975,0,0,1,.333.833A9.422,9.422,0,0,1,139.312.191l-.417.875a10.587,10.587,0,0,0-.479,1q-.187.458.021.417A9.341,9.341,0,0,1,140.666.316,18.94,18.94,0,0,1,143.1-1.392a4.94,4.94,0,0,1,.75-.333q.458-.167.625-.25a3.768,3.768,0,0,1,1.708-.375,3.143,3.143,0,0,1,1.146.187,1.1,1.1,0,0,1,.646.562.727.727,0,0,0,.229.458,1.558,1.558,0,0,0,.271.208.162.162,0,0,1,.167.1.478.478,0,0,1,.042.146q0,.333-.583.854a2.014,2.014,0,0,1-1.208.562,4.252,4.252,0,0,0-.958.208,7.635,7.635,0,0,0-1,.417l-1.083.625a18.937,18.937,0,0,0-2.4,1.4,12.544,12.544,0,0,0-1.979,1.77q-.208.208-.6.583a3.909,3.909,0,0,0-.687.875,3.848,3.848,0,0,0-.6,1.52,9.256,9.256,0,0,0-.312,1.52l-.167.5a1.97,1.97,0,0,1-.375.667,5.13,5.13,0,0,1-.625.667.83.83,0,0,1-.542.208A1.488,1.488,0,0,1,134.6,11.147Zm26.744-14.33a3.768,3.768,0,0,1,.375,1.708,3.463,3.463,0,0,1-.542,2,5.551,5.551,0,0,0-.729,1.75,29.251,29.251,0,0,0-.6,3.124q-.375,1.583-.916,4.874A17.358,17.358,0,0,0,158.1,12.9a5.763,5.763,0,0,1-.4,1.041q-.354.791-.562,1.25a15.561,15.561,0,0,1-4.436,5.707,9.7,9.7,0,0,1-5.228,2.083q-.667.083-.791.083a1.835,1.835,0,0,1-.687-.125,6.1,6.1,0,0,1-.687-.333,3.479,3.479,0,0,1-.958-.833,1.848,1.848,0,0,1-.208-.833.847.847,0,0,1,.583-.854,3.625,3.625,0,0,1,1.333-.229,2.158,2.158,0,0,0,1,.167q.708,0,.833-.167a2.2,2.2,0,0,1,.5-.271,5.173,5.173,0,0,1,.958-.312,8.91,8.91,0,0,0,2.1-1.333,9.694,9.694,0,0,0,1.6-2.124,9.879,9.879,0,0,0,1.375-2.874q.542-1.375,1.291-4.082l-.042.042a4.456,4.456,0,0,1-1.041.729,3.724,3.724,0,0,1-1,.479.32.32,0,0,0-.125.042.168.168,0,0,0-.083.167q0,.167-1.083.521a6.321,6.321,0,0,1-1.375.354,1.36,1.36,0,0,1-.9-.458,3.719,3.719,0,0,1-.687-.833,2.135,2.135,0,0,0-.625-.75,5.425,5.425,0,0,1-.75-.9,1.718,1.718,0,0,1-.25-.937,1.976,1.976,0,0,1,.042-.458q.5-1.875,1.854-5.769a29.137,29.137,0,0,1,1.979-4.853,1.229,1.229,0,0,1,.625-.417,2.666,2.666,0,0,1,.916-.167,1.19,1.19,0,0,1,1.125.5,2.237,2.237,0,0,1,.5,1.208,4.208,4.208,0,0,1-.583,1.708q-.167.458-.417,1a2.575,2.575,0,0,0-.25.667q-.042.167-.25,1.021t-.375.854a4.652,4.652,0,0,0-.562,1.729,12.051,12.051,0,0,0-.312,2.354q0,.5.125.5a4.259,4.259,0,0,0,2.166-.6,8.639,8.639,0,0,0,2.166-1.937q.167-1.041.479-2.249t.437-1.625a35.744,35.744,0,0,0,1-4.166,2.338,2.338,0,0,1,.375-.687.932.932,0,0,1,.542-.1,2.57,2.57,0,0,1,1.1.292A2.259,2.259,0,0,1,161.348-3.183Z" transform="translate(250.329 49.351)" fill="#ffba00"/></g></g></svg>