<svg xmlns="http://www.w3.org/2000/svg" width="190.984" height="52.863" viewBox="0 0 190.984 52.863"><g transform="translate(-189.366 -212.977)"><g transform="translate(189.366 213.949)"><rect width="8.855" height="8.855" transform="translate(42.442 30.8)" fill="#03a58e"/><path d="M222.97,237.292v-8.855h7.037l-20.32-13.09-20.32,13.09H196.4V255h8.855v-8.855h8.855v-8.855h8.838v8.855h-8.838V255h8.855v-8.855h8.838v-8.855Z" transform="translate(-189.366 -215.347)" fill="#03a58e"/></g><rect width="8.716" height="8.716" transform="translate(271.368 222.273) rotate(180)" fill="#03a58e"/><g transform="translate(245.156 212.977)"><path d="M357.013,223.126l-22.777.658a5.518,5.518,0,0,0,3.092-8.151l.1-.034,0,0,3.03-1.044a.2.2,0,0,0,.125-.258c-.032-.091-.093-.13-.218-.134l-3.57.153-.634-.038a5.526,5.526,0,1,0-4.888,9.6h-.014v.011h0l-1.514,14.934L326.03,251.19h0l-.1.324-.492,1.641h0a.373.373,0,0,0,.358.481h8.245a.421.421,0,0,0,.421-.422v-1.6a.421.421,0,0,0-.421-.421h-.883l3.163-10.566,9.669,1.474v11.021a.518.518,0,0,0,.518.518h8.229a.421.421,0,0,0,.421-.421V251.61a.421.421,0,0,0-.421-.42h-1.8V237.062a1.091,1.091,0,0,0-.926-1.078l-14.779-2.252.313-3.089,19.662-.568a.549.549,0,0,0,.532-.564l-.169-5.853A.548.548,0,0,0,357.013,223.126Zm-28.172-3.764a3.874,3.874,0,0,1-.1-.777l.463-.16,6.486-2.23a3.857,3.857,0,0,1-2.233,6.078,3.856,3.856,0,0,1-4.622-2.911Z" transform="translate(-325.426 -212.977)" fill="#1a1311"/><path d="M463.272,236.071h-4.316V230.1a.585.585,0,0,0-.586-.586h-5.3a.585.585,0,0,0-.586.586v5.973h-7.939a.586.586,0,0,0-.586.586v5.3a.586.586,0,0,0,.586.586h7.939V261.1h-1.57a.493.493,0,0,0-.493.493v1.291a.493.493,0,0,0,.493.493h7.525a.515.515,0,0,0,.515-.515V242.541h4.316a.585.585,0,0,0,.585-.586v-5.3A.585.585,0,0,0,463.272,236.071Z" transform="translate(-395.357 -222.732)" fill="#1a1311"/><path d="M542.578,239.2H538.7v-3.9a.485.485,0,0,0-.486-.485h-4.86a.485.485,0,0,0-.485.485v3.9h-6.381a.485.485,0,0,0-.485.485v5.5a.485.485,0,0,0,.485.485h6.381v9.485a5.46,5.46,0,0,1-5.46,5.46h-.956a.45.45,0,0,0-.45.45V266a.45.45,0,0,0,.45.45h.956a11.29,11.29,0,0,0,11.29-11.29v-9.485h3.883a.485.485,0,0,0,.485-.485v-5.5A.485.485,0,0,0,542.578,239.2Z" transform="translate(-443.757 -225.865)" fill="#1a1311"/><path d="M596.961,247.378h5.6a.588.588,0,0,0,.589-.588v-5.853h5.24a.327.327,0,0,0,.327-.327v-9.644a.547.547,0,0,0-.547-.547H607.8V230.4H595.673v-5a.519.519,0,0,0-.52-.52h-5.146a.519.519,0,0,0-.52.52v5H576.994a.547.547,0,0,0-.547.547v9.468a.52.52,0,0,0,.52.52h5.047v5.853a.588.588,0,0,0,.589.588h6.885v1.358H580.8a.524.524,0,0,0-.524.524v3.765a.524.524,0,0,0,.524.524h8.684v1.265H576.971a.524.524,0,0,0-.524.524V259.1a.524.524,0,0,0,.524.524H608.19a.524.524,0,0,0,.524-.524v-3.765a.524.524,0,0,0-.524-.524H595.673v-1.265h8.684a.524.524,0,0,0,.524-.524V249.26a.524.524,0,0,0-.524-.524h-8.684v-1.358Zm-14.329-10.565v-1.135h19.9v1.135Zm5.567,5.349v-.132a.589.589,0,0,1,.589-.588h7.584a.588.588,0,0,1,.589.588v.132a.588.588,0,0,1-.589.588h-7.584A.589.589,0,0,1,588.2,242.161Z" transform="translate(-473.519 -220.003)" fill="#1a1311"/><path d="M508.255,266.8h-1.333v-20.81a.485.485,0,0,0-.485-.485h-4.9a.485.485,0,0,0-.485.485v22.249a.628.628,0,0,0,.629.628h6.578a.54.54,0,0,0,.54-.54v-.987A.54.54,0,0,0,508.255,266.8Z" transform="translate(-429.037 -232.169)" fill="#1a1311"/><path d="M449.974,275.167a3.064,3.064,0,1,0,3.064,3.065A3.064,3.064,0,0,0,449.974,275.167Z" transform="translate(-397.097 -249.667)" fill="#1a1311"/><path d="M591.131,228.166a3.064,3.064,0,1,0-3.065-3.064A3.064,3.064,0,0,0,591.131,228.166Z" transform="translate(-480.374 -218.323)" fill="#1a1311"/><path d="M631.639,228.166a3.064,3.064,0,1,0-3.065-3.064A3.064,3.064,0,0,0,631.639,228.166Z" transform="translate(-504.272 -218.323)" fill="#1a1311"/><path d="M420.513,232.45l-4.8-2.42a.548.548,0,0,0-.737.244l-4.514,9.006-.019-.01-1.954,3.92a.55.55,0,0,0,.247.737l3.9,1.945v17.174a.6.6,0,0,0,.6.6h5.276a.6.6,0,0,0,.6-.6V244.084a.808.808,0,0,0-.448-.723l-2.406-1.2,4.5-8.978A.548.548,0,0,0,420.513,232.45Z" transform="translate(-374.397 -223.003)" fill="#1a1311"/></g><g transform="translate(229.432 258.215)"><path d="M375.11,325.015h-1.463v1.143h1.343v4.628h-1.119v-.312h-2.958v.36h-1.063v-4.676h1.279v-1.143h-1.343v-.839c-.136.383-.287.759-.455,1.135l.272.088a.27.27,0,0,1-.232.16v5.4h-1.1v-3.685q-.2.3-.408.551a12.315,12.315,0,0,0-.472-1.247,9.836,9.836,0,0,0,1.495-3.221l1.247.416c-.032.072-.112.112-.24.1l-.032.088h5.251Zm-4.2,2.15v2.318h.328v-2.318Zm1.638,0h-.344v2.318h.344Zm0-1.007v-1.143h-.335v1.143Zm1.319,3.325v-2.318h-.352v2.318Z" transform="translate(-334.459 -323.337)" fill="#1a1311"/><path d="M399.232,324.11l.751.344a.284.284,0,0,1-.12.136,5.951,5.951,0,0,1-1.143,2.03,5.159,5.159,0,0,0,1.711.815,5.221,5.221,0,0,0-.656.855v2.589h-1.119v-.208H397.29v.239h-1.071v-2.477l-.36.144a3.668,3.668,0,0,0-.336-.552l-.3.432c-.072-.192-.184-.44-.3-.7V330.9h-1.1v-2.638a5.83,5.83,0,0,1-.647,1.287,5.985,5.985,0,0,0-.52-1.063A7.18,7.18,0,0,0,393.741,326h-.9v-1.071h.975v-1.615l1.327.072c-.008.088-.08.136-.232.168v1.375h.816v.488a6.314,6.314,0,0,0,1.294-2.11l1.247.408a.223.223,0,0,1-.231.1c-.048.112-.1.232-.16.344h1.167ZM394.916,326v.264c.184.224.631.863.847,1.183a6.215,6.215,0,0,0,1.391-.823,6.791,6.791,0,0,1-.472-.64,4.973,4.973,0,0,1-.535.552,6.222,6.222,0,0,0-.559-.536Zm3.685,1.871a5.664,5.664,0,0,1-.664-.48,6.36,6.36,0,0,1-.655.48Zm-1.311,1.814h1.367v-.847H397.29Zm.024-4.548a5.106,5.106,0,0,0,.583.767,4.527,4.527,0,0,0,.536-.767Z" transform="translate(-349.365 -323.303)" fill="#1a1311"/><path d="M419.895,330.971a1.119,1.119,0,1,1-1.119-1.119A1.122,1.122,0,0,1,419.895,330.971Z" transform="translate(-364.116 -327.167)" fill="#1a1311"/><path d="M433.538,328.337a6.353,6.353,0,0,1,2.014.927,2.518,2.518,0,0,1-.575,1.255,4.846,4.846,0,0,0-1.383-.951v.016c0,.791-.583,1.327-1.734,1.327-1.223,0-2.03-.527-2.03-1.439,0-.783.767-1.351,2.03-1.351.16,0,.32.008.472.016l-.032-.639c-.711.016-1.415.008-1.958-.024a4.018,4.018,0,0,1-.208-1.207,13.055,13.055,0,0,0,1.414.1c.217,0,.464,0,.72-.008v-.767a16.446,16.446,0,0,1-1.662-.048,3.778,3.778,0,0,1-.192-1.135,8.913,8.913,0,0,0,1.311.112c.168,0,.36,0,.559-.008v-.1c.008-.432,0-.615-.016-.863a6.339,6.339,0,0,1,1.271.1q-.036.4-.048.815a9.307,9.307,0,0,0,1.311-.176,3.681,3.681,0,0,1-.016,1.111,11.5,11.5,0,0,1-1.335.152c-.008.24-.008.472-.008.711v.04a11.506,11.506,0,0,0,1.631-.24,4.227,4.227,0,0,1-.016,1.191,13.742,13.742,0,0,1-1.567.184Zm-1.167.839a3.732,3.732,0,0,0-.663-.056c-.4,0-.679.112-.679.336,0,.2.191.351.647.351S432.364,329.632,432.371,329.176Z" transform="translate(-371.297 -323.445)" fill="#1a1311"/><path d="M450.679,328.011a1.5,1.5,0,0,0-.232.719c0,.36.247.72,1.406.72a6.7,6.7,0,0,0,2.646-.5,3.725,3.725,0,0,1,.319,1.326,8.005,8.005,0,0,1-2.917.464c-1.711,0-2.83-.624-2.83-1.718a3.538,3.538,0,0,1,.376-1.431A4.755,4.755,0,0,1,450.679,328.011Zm-.935-3.708a14.17,14.17,0,0,0,4.188.048,5.909,5.909,0,0,1-.024,1.255,16.371,16.371,0,0,1-4.1,0A5.666,5.666,0,0,1,449.744,324.3Zm5.331.695a2.429,2.429,0,0,1-.64.264,5.68,5.68,0,0,0-.463-1.087,3.344,3.344,0,0,1,.615-.264A5.416,5.416,0,0,1,455.075,325Zm.895-.384a2.518,2.518,0,0,1-.631.272,4.962,4.962,0,0,0-.471-1.047,3.634,3.634,0,0,1,.615-.264A3.84,3.84,0,0,1,455.97,324.614Z" transform="translate(-382.649 -323.463)" fill="#1a1311"/><path d="M471.643,329.058a1.506,1.506,0,0,0-.231.719c0,.36.248.72,1.406.72a6.689,6.689,0,0,0,2.646-.5,3.706,3.706,0,0,1,.32,1.326,8.007,8.007,0,0,1-2.918.464c-1.71,0-2.829-.624-2.829-1.718a3.4,3.4,0,0,1,.376-1.431A4.746,4.746,0,0,1,471.643,329.058Zm-.935-3.708a15.828,15.828,0,0,0,4.428.048,5.935,5.935,0,0,1-.024,1.255,18.4,18.4,0,0,1-4.348,0A6.2,6.2,0,0,1,470.708,325.35Z" transform="translate(-395.017 -324.511)" fill="#1a1311"/><path d="M490.609,324.322a18.2,18.2,0,0,0,2.862-.24,3.1,3.1,0,0,1,.487.855,22.2,22.2,0,0,0-2.038,1.878,2.875,2.875,0,0,1,.887-.136,2.116,2.116,0,0,1,2.286,2.03c-.009,1.559-1.215,2.758-3.949,2.486a4.094,4.094,0,0,1-.416-1.359c1.758.312,3.029.032,3.029-1.151,0-.52-.4-1.015-1.287-1.015a3.566,3.566,0,0,0-2.766,1.926,3.677,3.677,0,0,1-.919-1.039c.84-.935,2.446-2.5,3.165-3.229-.368.064-1.215.152-1.79.184a4.538,4.538,0,0,1-.288-1.215C490.026,324.314,490.313,324.322,490.609,324.322Z" transform="translate(-406.079 -323.763)" fill="#1a1311"/><path d="M290.789,328.337a6.352,6.352,0,0,1,2.014.927,2.519,2.519,0,0,1-.576,1.255,4.839,4.839,0,0,0-1.383-.951v.016c0,.791-.583,1.327-1.734,1.327-1.223,0-2.03-.527-2.03-1.439,0-.783.767-1.351,2.03-1.351.16,0,.319.008.472.016l-.032-.639c-.711.016-1.415.008-1.958-.024a4.007,4.007,0,0,1-.208-1.207,13.048,13.048,0,0,0,1.414.1c.216,0,.464,0,.72-.008v-.767a16.458,16.458,0,0,1-1.662-.048,3.781,3.781,0,0,1-.192-1.135,8.906,8.906,0,0,0,1.31.112c.168,0,.36,0,.56-.008v-.1c.008-.432,0-.615-.016-.863a6.343,6.343,0,0,1,1.271.1q-.036.4-.048.815a9.314,9.314,0,0,0,1.311-.176,3.677,3.677,0,0,1-.016,1.111,11.491,11.491,0,0,1-1.335.152c-.008.24-.008.472-.008.711v.04a11.493,11.493,0,0,0,1.63-.24,4.213,4.213,0,0,1-.016,1.191,13.741,13.741,0,0,1-1.567.184Zm-1.167.839a3.732,3.732,0,0,0-.663-.056c-.4,0-.679.112-.679.336,0,.2.192.351.647.351S289.614,329.632,289.621,329.176Z" transform="translate(-287.08 -323.445)" fill="#1a1311"/><path d="M307.93,328.011a1.5,1.5,0,0,0-.232.719c0,.36.248.72,1.407.72a6.694,6.694,0,0,0,2.646-.5,3.707,3.707,0,0,1,.319,1.326,8,8,0,0,1-2.917.464c-1.711,0-2.83-.624-2.83-1.718a3.538,3.538,0,0,1,.376-1.431A4.761,4.761,0,0,1,307.93,328.011Zm-.935-3.708a14.17,14.17,0,0,0,4.188.048,5.938,5.938,0,0,1-.024,1.255,16.371,16.371,0,0,1-4.1,0A5.67,5.67,0,0,1,306.995,324.3Zm5.331.695a2.429,2.429,0,0,1-.64.264,5.684,5.684,0,0,0-.464-1.087,3.344,3.344,0,0,1,.615-.264A5.44,5.44,0,0,1,312.326,325Zm.895-.384a2.518,2.518,0,0,1-.631.272,4.963,4.963,0,0,0-.472-1.047,3.654,3.654,0,0,1,.616-.264A3.842,3.842,0,0,1,313.221,324.614Z" transform="translate(-298.433 -323.463)" fill="#1a1311"/><path d="M328.894,329.058a1.5,1.5,0,0,0-.231.719c0,.36.247.72,1.406.72a6.689,6.689,0,0,0,2.646-.5,3.708,3.708,0,0,1,.32,1.326,8.009,8.009,0,0,1-2.918.464c-1.71,0-2.829-.624-2.829-1.718a3.4,3.4,0,0,1,.376-1.431A4.749,4.749,0,0,1,328.894,329.058Zm-.935-3.708a15.83,15.83,0,0,0,4.428.048,6,6,0,0,1-.024,1.255,18.4,18.4,0,0,1-4.348,0A6.223,6.223,0,0,1,327.958,325.35Z" transform="translate(-310.801 -324.511)" fill="#1a1311"/><path d="M347.86,324.322a18.19,18.19,0,0,0,2.861-.24,3.089,3.089,0,0,1,.487.855,22.192,22.192,0,0,0-2.038,1.878,2.873,2.873,0,0,1,.887-.136,2.115,2.115,0,0,1,2.286,2.03c-.008,1.559-1.215,2.758-3.949,2.486a4.093,4.093,0,0,1-.415-1.359c1.758.312,3.029.032,3.029-1.151,0-.52-.4-1.015-1.287-1.015a3.564,3.564,0,0,0-2.765,1.926,3.676,3.676,0,0,1-.919-1.039c.839-.935,2.446-2.5,3.165-3.229-.367.064-1.215.152-1.79.184a4.541,4.541,0,0,1-.288-1.215C347.276,324.314,347.564,324.322,347.86,324.322Z" transform="translate(-321.863 -323.763)" fill="#1a1311"/><path d="M516.7,331.024a3.161,3.161,0,0,1-.991.991,14.008,14.008,0,0,0-1.9-2.142,9.406,9.406,0,0,1-2.917,2.094,5.615,5.615,0,0,1-.983-1.119,7.771,7.771,0,0,0,3.189-2.054,5.649,5.649,0,0,0,1.151-1.71c-.967.008-2.869.064-3.445.088a8.585,8.585,0,0,1-.152-1.255c.255.024.575.04.831.04.424,0,2.789-.04,3.3-.064a5.224,5.224,0,0,0,.6-.056,2.87,2.87,0,0,1,.679.671,13.346,13.346,0,0,1-1.438,2.4A15.811,15.811,0,0,1,516.7,331.024Z" transform="translate(-418.541 -324.798)" fill="#1a1311"/><path d="M536.552,324.948a3.931,3.931,0,0,0,.615-.056,3.365,3.365,0,0,1,.728.591,8.451,8.451,0,0,1-1.335,2.758c.248.208.479.424.7.639a2.5,2.5,0,0,1-.9.984c-.192-.208-.415-.432-.655-.656a7.2,7.2,0,0,1-2.814,1.774,3.8,3.8,0,0,1-1.087-1.063,6.647,6.647,0,0,0,2.974-1.5,13.372,13.372,0,0,0-1.215-.863,6.107,6.107,0,0,1,.807-.831,13.044,13.044,0,0,1,1.247.791,4.685,4.685,0,0,0,.759-1.518l-2.022.032a8.006,8.006,0,0,1-1.87,1.83,2.842,2.842,0,0,1-1.071-.847,6.107,6.107,0,0,0,2.829-3.357,3.307,3.307,0,0,1,1.215.543,5.826,5.826,0,0,1-.392.768c1.246-.008,1.479-.024,1.479-.024Z" transform="translate(-431.232 -323.509)" fill="#1a1311"/><path d="M553.258,330.681a4.626,4.626,0,0,1-1.023.472,15.277,15.277,0,0,0-.743-1.543c.208-.112.783-.368,1.007-.456A13.559,13.559,0,0,1,553.258,330.681Zm3.749-1.271a7.176,7.176,0,0,1-1.1,2.6,5.236,5.236,0,0,1-2.358,1.75,4,4,0,0,1-.927-.943,4.32,4.32,0,0,0,2.318-1.471,4.668,4.668,0,0,0,.9-2.453A4.244,4.244,0,0,1,557.006,329.41Zm-2.062.68a5.364,5.364,0,0,1-1.039.447,14.016,14.016,0,0,0-.687-1.566,9.463,9.463,0,0,1,1.023-.424A15.65,15.65,0,0,1,554.944,330.09Z" transform="translate(-443.073 -326.397)" fill="#1a1311"/><path d="M574.521,329.869a6.594,6.594,0,0,1-3.133,2.429,3.86,3.86,0,0,1-1.142-1.182,5.188,5.188,0,0,0,2.957-1.687,4.578,4.578,0,0,0,.935-2.086c-.815.008-3.8.048-4.492.064a9.313,9.313,0,0,1-.12-1.343c.376.032.8.056,1.071.056.527,0,3.245-.032,3.772-.04a4.355,4.355,0,0,0,.607-.048,3.4,3.4,0,0,1,.775.615A9.3,9.3,0,0,1,574.521,329.869Z" transform="translate(-453.713 -324.913)" fill="#1a1311"/></g></g></svg>