<svg xmlns="http://www.w3.org/2000/svg" width="623.017" height="648.055" viewBox="0 0 623.017 648.055"><g transform="translate(-114.342 -27.675)"><g transform="translate(107.798 27.675)"><g transform="translate(443.258)"><path d="M700.4,28.181c14.517-2.768,28.934,38.973,45.732,47.094,14.86,7.184,34.248,16.248,45.614,11.826,8.114-3.157,13.125-23,17.03-15.577,2.13,4.051-1.87,9.9-4.426,19.735-2.769,10.655,2.12,13.562,6.693,18.643s12.866-.459,14.179,2.73-17.867,10.08-27.68,16.1-20.417-6.282-36.82,15.564c-11.346,15.109-8.272,30.977-13.289,30.594S717.7,151.122,702.99,147.139s-19.622,14.294-24.155,14.551c-4.185.238-13.141-19.359-21.694-6.743-7.241,10.685,9.89,11.009,15.036,17.257s17.372,11.047,11.441,12.62-12.306-3.628-18.834.91-3.653,13.911-14.7,13.4,4.79-17.75.8-23.664-15.1-11.731-9.877-22.741,11.8-10.992,16.115-15.075c7.276-6.887-4.457-16.8,1.93-19.508s19.788,12.074,29.521,3.784c4.7-4-1.017-18.224-.256-21.748.776-3.594,12.81-15.087,12.206-28.388C699.348,46.062,687.152,30.707,700.4,28.181Z" transform="translate(-639.303 -27.734)" fill="#cad9d7"/><path d="M650.87,199.41c-.278,0-.565-.007-.862-.02-1.874-.087-3.1-.636-3.761-1.679-1.434-2.277.294-6.366,2.125-10.7,1.874-4.434,3.813-9.019,2.185-11.429A34.686,34.686,0,0,0,646.6,171.1c-4.662-4.748-9.944-10.127-5.944-18.566,3.631-7.658,7.888-10.031,11.645-12.125a21.788,21.788,0,0,0,4.539-3.043c3.74-3.54,2.266-7.893.965-11.735-1.125-3.32-2.187-6.456,1.059-7.834a4.884,4.884,0,0,1,1.923-.363c2.428,0,5.462,1.414,8.675,2.912,3.785,1.763,8.076,3.763,12.088,3.763h0a10.008,10.008,0,0,0,6.75-2.477c2.957-2.519,1.567-9.408.45-14.943-.582-2.879-1.083-5.365-.809-6.63.241-1.12,1.42-2.827,3.054-5.189,3.809-5.511,9.566-13.841,9.144-23.117-.44-9.7-2.457-17.934-4.077-24.55-1.858-7.587-3.2-13.068-1.09-16.352,1-1.551,2.734-2.544,5.308-3.035a7.776,7.776,0,0,1,1.452-.137c7.625,0,15.071,11.081,22.953,22.812,6.868,10.223,13.971,20.793,21.524,24.445,10.678,5.161,26.813,12.961,38.506,12.961a18.921,18.921,0,0,0,6.855-1.146c3.636-1.414,6.628-6.266,9.27-10.547,2.311-3.744,4.136-6.7,5.962-6.7.831,0,1.548.6,2.192,1.819,1.461,2.778.194,6.291-1.561,11.153-.919,2.547-1.962,5.434-2.838,8.808-2.344,9.018.935,12.413,4.73,16.344.623.645,1.261,1.306,1.892,2.008a6.889,6.889,0,0,0,5.515,2.157,26.539,26.539,0,0,0,3.6-.329,20.674,20.674,0,0,1,2.647-.26,2.4,2.4,0,0,1,2.472,1.253c.892,2.169-4.945,5.085-14.541,9.663-4.735,2.259-9.63,4.595-13.265,6.824a14.866,14.866,0,0,1-8.2,1.947c-.884,0-1.784-.03-2.7-.062-.946-.033-1.909-.066-2.9-.066-6.583,0-13.917,1.656-22.934,13.664-6.292,8.379-8.151,17.136-9.38,22.93-1.025,4.827-1.69,7.969-4.185,7.79-2.143-.164-7.457-4.142-14.183-9.179-9.664-7.237-21.69-16.243-30.322-18.581a15.265,15.265,0,0,0-3.975-.556c-7.189,0-11.63,5.935-14.872,10.269-1.989,2.658-3.559,4.757-5.207,4.85l-.094,0c-1.457,0-3.2-1.854-5.411-4.2-2.844-3.021-6.383-6.782-9.952-6.782-2.162,0-4.122,1.341-5.992,4.1-1.487,2.193-1.994,4.022-1.55,5.59.786,2.773,4.434,4.419,8.3,6.161,3.167,1.428,6.441,2.9,8.271,5.128,2.039,2.475,5.166,4.693,7.925,6.649,3.133,2.224,5.4,3.83,5.159,5.15-.108.6-.7,1.033-1.806,1.326a10,10,0,0,1-2.6.318,26.708,26.708,0,0,1-4.974-.643,27.487,27.487,0,0,0-5.142-.659,10.073,10.073,0,0,0-6.022,1.849c-2.451,1.7-3.541,4.116-4.595,6.449C658.676,196,657.135,199.41,650.87,199.41Zm9.916-81.347a4.278,4.278,0,0,0-1.677.313c-2.573,1.093-1.945,3.391-.706,7.05,1.295,3.822,2.9,8.579-1.129,12.4a22.3,22.3,0,0,1-4.665,3.136c-3.674,2.048-7.837,4.368-11.382,11.844-3.812,8.039,1.307,13.252,5.823,17.852a35.028,35.028,0,0,1,4.029,4.576c1.819,2.694-.187,7.44-2.126,12.029-1.687,3.99-3.431,8.115-2.173,10.112.539.856,1.6,1.308,3.256,1.385,6.561.3,8.009-2.9,9.7-6.633,1.088-2.412,2.214-4.9,4.809-6.708a10.673,10.673,0,0,1,6.383-1.962,27.853,27.853,0,0,1,5.261.671,25.883,25.883,0,0,0,4.855.631,9.4,9.4,0,0,0,2.435-.3c.82-.217,1.286-.5,1.344-.828.168-.925-2.3-2.671-4.9-4.522-2.79-1.979-5.953-4.224-8.045-6.763-1.736-2.109-4.943-3.555-8.044-4.953-4-1.8-7.78-3.509-8.645-6.566-.5-1.758.037-3.76,1.635-6.117,2-2.945,4.127-4.378,6.515-4.378,3.842,0,7.485,3.871,10.412,6.981,1.937,2.059,3.767,4,4.951,4,1.414-.078,2.981-2.173,4.795-4.6,3.324-4.441,7.873-10.523,15.379-10.523a15.87,15.87,0,0,1,4.141.579c8.748,2.369,20.83,11.415,30.535,18.683,6.381,4.779,11.893,8.906,13.852,9.055,1.931.157,2.561-2.778,3.518-7.291,1.241-5.848,3.117-14.688,9.493-23.178,9.184-12.231,16.693-13.917,23.439-13.917.994,0,1.965.034,2.917.066.91.032,1.8.062,2.678.062a14.287,14.287,0,0,0,7.873-1.855c3.663-2.246,8.574-4.589,13.324-6.855,7-3.34,14.937-7.126,14.228-8.852-.249-.6-.813-.862-1.888-.862a20.177,20.177,0,0,0-2.56.254,27.068,27.068,0,0,1-3.688.335,7.571,7.571,0,0,1-5.984-2.366c-.627-.7-1.26-1.352-1.878-1.992-3.928-4.068-7.319-7.582-4.887-16.942.885-3.4,1.932-6.3,2.855-8.865,1.7-4.71,2.928-8.113,1.6-10.644-.524-1-1.058-1.481-1.632-1.481-1.474,0-3.393,3.109-5.424,6.4-2.693,4.366-5.746,9.314-9.579,10.805a19.563,19.563,0,0,1-7.084,1.188c-11.839,0-28.052-7.837-38.782-13.024-7.706-3.726-14.858-14.368-21.774-24.661-7.785-11.588-15.14-22.533-22.428-22.533a7.144,7.144,0,0,0-1.333.126c-2.4.457-4,1.358-4.9,2.756-1.963,3.056-.647,8.426,1.173,15.86,1.627,6.643,3.651,14.909,4.1,24.671.431,9.489-5.4,17.925-9.257,23.506-1.533,2.216-2.741,3.966-2.957,4.963-.245,1.136.245,3.562.812,6.371,1.15,5.7,2.58,12.789-.659,15.551a10.622,10.622,0,0,1-7.161,2.628h0c-4.152,0-8.511-2.031-12.356-3.822C666.046,119.449,663.072,118.063,660.785,118.063Z" transform="translate(-639.241 -27.675)" fill="#fff"/></g><g transform="translate(447.443 166.786)"><path d="M676.737,273.151c2.3,2.06,17.1,1.958,24.287-1.068-5.313-11.023-9.809-21.9-9.322-25.7.888-6.983,4.512-17.689,2.192-16.951-6.922,2.2-11.014-3.191-15.792-3.843s-6.108,11.887-5.263,15.334,6.921-4.129,10.147-4,1.345,14.485-.105,15.95-4.816-5.269-6.663-4.671c-1.357.441-1.919,8.471-6.627,7.083s-.494-15.022-6.953-16.763c-3.957-1.067-5.781,3.184-5.6,5.827s-1.287,11.455-3.627,13.015-3.7-.585-6.782,2.869a8.526,8.526,0,0,0-2.012,6.686C655.881,265.276,667.6,264.969,676.737,273.151Z" transform="translate(-644.264 -225.247)" fill="#cad9d7"/><path d="M685.318,274.807c-4.506,0-7.816-.553-8.851-1.48-5.4-4.834-12.011-7.084-20.805-7.084a76.349,76.349,0,0,0-11.058.927.321.321,0,0,1-.244-.067.316.316,0,0,1-.117-.225,8.848,8.848,0,0,1,2.091-6.917c1.94-2.177,3.3-2.235,4.5-2.286a4.024,4.024,0,0,0,2.341-.635c2.147-1.432,3.676-10.023,3.487-12.73a7.039,7.039,0,0,1,1.7-4.988,4.138,4.138,0,0,1,4.3-1.167c3.7,1,4.1,5.618,4.445,9.7.286,3.338.556,6.491,2.515,7.068a3.393,3.393,0,0,0,.956.148c2.222,0,3.282-2.782,4.055-4.813.491-1.291.847-2.225,1.429-2.415,1.05-.336,2.343,1.076,3.68,2.6.932,1.062,1.989,2.266,2.6,2.266a.341.341,0,0,0,.257-.116c1.035-1.043,2.608-11.037,1.265-14.444-.247-.626-.566-.952-.948-.967h0c-1.372,0-3.3,1.4-5,2.634-1.677,1.217-3.125,2.268-4.171,2.268-.45,0-1.035-.2-1.267-1.141-.692-2.825.051-11.039,2.59-14.275a3.2,3.2,0,0,1,3.023-1.448,16.3,16.3,0,0,1,5.159,2c2.23,1.161,4.538,2.361,7.33,2.361a10.318,10.318,0,0,0,3.166-.51.767.767,0,0,1,.883.228c.693.867.084,3.762-1.05,8.8-.637,2.832-1.3,5.759-1.615,8.26-.406,3.181,2.894,12.246,9.294,25.523a.317.317,0,0,1,.011.25.322.322,0,0,1-.173.18C696.726,274.152,690.082,274.807,685.318,274.807Zm-29.656-9.2c8.836,0,15.78,2.37,21.227,7.246.9.8,4.2,1.318,8.43,1.318,4.591,0,10.94-.612,15.216-2.316-4.531-9.425-9.74-21.389-9.205-25.575.322-2.531.985-5.473,1.625-8.318.8-3.562,1.71-7.6,1.173-8.272-.046-.057-.1-.051-.2-.019a11.071,11.071,0,0,1-3.357.539c-2.946,0-5.323-1.237-7.622-2.433A15.871,15.871,0,0,0,678,225.842a2.6,2.6,0,0,0-2.44,1.211c-2.434,3.1-3.141,11.011-2.472,13.735.142.581.41.659.652.659.841,0,2.345-1.092,3.8-2.148,1.866-1.355,3.8-2.756,5.306-2.756l.093,0c.657.025,1.164.486,1.511,1.366,1.38,3.5-.059,13.764-1.4,15.122a.97.97,0,0,1-.706.3c-.9,0-1.905-1.15-3.074-2.481-1.076-1.226-2.317-2.639-3.009-2.414-.294.1-.687,1.128-1.034,2.038-.839,2.2-1.987,5.22-4.646,5.22a4.025,4.025,0,0,1-1.135-.174c-2.373-.7-2.661-4.062-2.966-7.621-.348-4.061-.708-8.258-3.98-9.14a3.484,3.484,0,0,0-3.669.988,6.465,6.465,0,0,0-1.531,4.512c.169,2.416-1.193,11.585-3.767,13.3a4.614,4.614,0,0,1-2.665.741c-1.18.051-2.295.1-4.056,2.075a8.092,8.092,0,0,0-1.952,6.113A76.042,76.042,0,0,1,655.662,265.61Z" transform="translate(-644.205 -225.187)" fill="#fff"/></g><g transform="translate(441.114 207.294)"><path d="M663.083,344.617c1.559,1.56,6.238-1.559,7.8-1.559,4.678-6.238-1.559-14.035,0-21.832,2.66-13.3,3.061-26.6,6.019-39.9a3.722,3.722,0,0,1-1.341-.645c-9.139-8.182-20.856-7.875-32.119-6.235.079,1.159.259,2.21.281,3.051.064,2.339,3.77,5.588,3.314,7.926s-.713,11.436-4.417,10.916-5.782,4.029-5.522,5.923,2.813,3.373,5.263,1.939,4.442,1.121,5.524,8.446-.975,9.552-4.29,17.154a29.512,29.512,0,0,0-1.572,4.579C649.9,337.1,658.027,338.3,663.083,344.617Z" transform="translate(-636.756 -273.2)" fill="#cad9d7"/><path d="M664.285,345.311h0a2.016,2.016,0,0,1-1.484-.529c-3.964-4.952-9.812-6.721-16-8.594-1.619-.491-3.294-1-4.943-1.565a.318.318,0,0,1-.2-.378,30.038,30.038,0,0,1,1.588-4.627c.612-1.405,1.182-2.627,1.7-3.731,2.287-4.906,3.436-7.369,2.568-13.251-.814-5.519-2.22-8.559-3.958-8.559a2.185,2.185,0,0,0-1.093.339,4.3,4.3,0,0,1-2.187.618,3.5,3.5,0,0,1-3.548-2.787,6.6,6.6,0,0,1,1.711-4.573,4.529,4.529,0,0,1,4.168-1.707,1.8,1.8,0,0,0,.256.019h0c2.509,0,3.191-5.76,3.557-8.854.089-.751.165-1.4.248-1.828.223-1.138-.716-2.624-1.624-4.061a8.6,8.6,0,0,1-1.694-3.8c-.012-.443-.07-.962-.131-1.511-.055-.48-.112-.992-.148-1.527a.315.315,0,0,1,.27-.334,77.008,77.008,0,0,1,11.149-.934c8.836,0,15.78,2.37,21.227,7.246a3.315,3.315,0,0,0,1.223.577.317.317,0,0,1,.217.371c-1.568,7.046-2.43,14.218-3.266,21.153-.738,6.14-1.5,12.489-2.752,18.741-.649,3.244.085,6.516.8,9.68.99,4.409,1.925,8.574-.855,12.279a.312.312,0,0,1-.252.126,9.05,9.05,0,0,0-2.4.791A12.477,12.477,0,0,1,664.285,345.311Zm-21.946-11.192c1.549.527,3.12,1,4.642,1.463,6.288,1.9,12.226,3.7,16.29,8.778a1.4,1.4,0,0,0,1.013.319,12.147,12.147,0,0,0,3.894-1.157,10.682,10.682,0,0,1,2.475-.83c2.5-3.446,1.6-7.429.657-11.643-.725-3.229-1.474-6.568-.8-9.944,1.246-6.227,2.008-12.564,2.746-18.692.825-6.858,1.678-13.948,3.213-20.934a3.492,3.492,0,0,1-1.182-.62c-5.4-4.834-12.011-7.085-20.805-7.085a75.539,75.539,0,0,0-10.766.885c.035.421.081.824.124,1.207.063.563.123,1.1.136,1.565a8.418,8.418,0,0,0,1.6,3.475c.974,1.542,1.981,3.136,1.711,4.52-.079.405-.154,1.043-.242,1.781-.416,3.519-1.114,9.411-4.184,9.412h0a2.4,2.4,0,0,1-.343-.024,4.03,4.03,0,0,0-3.605,1.5,6.021,6.021,0,0,0-1.561,4.071,2.864,2.864,0,0,0,2.922,2.241,3.669,3.669,0,0,0,1.867-.531,2.807,2.807,0,0,1,1.413-.426c2.15,0,3.692,3.061,4.584,9.1.894,6.069-.355,8.748-2.622,13.61-.513,1.1-1.081,2.316-1.691,3.717A29.565,29.565,0,0,0,642.339,334.119Z" transform="translate(-636.697 -273.141)" fill="#fff"/></g><g transform="translate(434.922 268.173)"><path d="M641.657,385.482c-7.8-3.118-12.475,9.358-7.8,14.035,4.678,3.12,14.034,6.238,20.273,3.12,3.118-1.561-3.121-7.8,0-10.916,11.914-7.944,10.342-22.628,8.642-35.471a1.5,1.5,0,0,1-.845-.4c-5.056-6.319-13.184-7.518-21.066-10.235-1.267,4.952-.889,8.607-3.624,13.874-3.09,5.952-5.878,8.375-7.513,10.527C635.943,372.778,641.657,378.172,641.657,385.482Z" transform="translate(-629.41 -345.302)" fill="#cad9d7"/><path d="M647.986,404.185a28.281,28.281,0,0,1-14.361-4.464c-2.181-2.172-2.617-6.2-1.11-9.843,1.7-4.108,5.164-6.1,8.758-4.91-.208-6.058-4.561-11.534-11.735-14.718a.316.316,0,0,1-.123-.48c.415-.545.89-1.094,1.441-1.731a41.211,41.211,0,0,0,6.043-8.751,26.918,26.918,0,0,0,2.694-9.129c.234-1.477.476-3,.9-4.678a.316.316,0,0,1,.157-.2.313.313,0,0,1,.252-.02c1.639.565,3.307,1.07,4.921,1.558,6.287,1.9,12.225,3.7,16.289,8.778a1.2,1.2,0,0,0,.649.282.318.318,0,0,1,.263.271c1.536,11.6,3.641,27.493-8.78,35.775-1.425,1.433-.6,3.7.2,5.9.78,2.137,1.516,4.156-.239,5.034A13.841,13.841,0,0,1,647.986,404.185Zm-8.817-18.941c-2.536,0-4.806,1.823-6.07,4.875-1.412,3.41-1.032,7.158.925,9.114a27.623,27.623,0,0,0,13.962,4.319,13.209,13.209,0,0,0,5.946-1.259c1.167-.584.751-2-.073-4.252-.829-2.272-1.768-4.847-.009-6.605,12.064-8.05,10.093-23.566,8.581-34.984a1.7,1.7,0,0,1-.785-.436c-3.964-4.951-9.811-6.72-16-8.594-1.513-.458-3.074-.93-4.618-1.454-.369,1.516-.593,2.924-.809,4.287a27.452,27.452,0,0,1-2.757,9.321,41.839,41.839,0,0,1-6.127,8.874c-.437.5-.826.954-1.172,1.386,7.367,3.393,11.75,9.2,11.75,15.585a.316.316,0,0,1-.434.293A6.221,6.221,0,0,0,639.17,385.245Z" transform="translate(-629.351 -345.243)" fill="#fff"/></g><g transform="translate(458.433 272.273)"><path d="M708.968,350.625c-4.575-.606-9.346.552-13.029,6.079-5.317,7.974-14.029,2.357-21.316-2.374a8.473,8.473,0,0,1-.517.814c-1.337,0-4.961,2.284-6.951,1.956,1.7,12.842,3.272,27.527-8.642,35.471a3.264,3.264,0,0,0-.88,2.709c10.34-.192,16.3,7.515,23.4,4.692-3.631-5.44,2.578-14.487,6.778-19.849,6.57-8.386,10.834,1.765,12.475,1.221s-.453-12.5,1.5-17.5A89.44,89.44,0,0,1,708.968,350.625Z" transform="translate(-657.302 -350.165)" fill="#cad9d7"/><path d="M677.731,400.852c-2.645,0-5.263-1.113-8.035-2.291-3.339-1.419-7.125-3.027-11.741-3.027l-.375,0a.307.307,0,0,1-.321-.293,3.553,3.553,0,0,1,.972-2.957c12.141-8.1,10.066-23.767,8.552-35.205a.317.317,0,0,1,.365-.354c1.1.186,2.789-.519,4.26-1.124a10.715,10.715,0,0,1,2.472-.827c.125-.177.23-.358.336-.539l.077-.129a.315.315,0,0,1,.443-.1c4.568,2.966,9.746,6.326,14.222,6.326h0a7.672,7.672,0,0,0,6.658-3.863c3.242-4.866,7.728-6.963,13.333-6.216a.316.316,0,0,1,.225.484,89.964,89.964,0,0,0-7.152,13.165c-1.008,2.579-.912,7.194-.835,10.9.088,4.24.089,6.467-.863,6.782a.728.728,0,0,1-.235.038h0c-.579,0-1.2-.632-2.053-1.507-1.267-1.295-3-3.068-5.088-3.068-1.615,0-3.28,1.081-4.95,3.212-7.082,9.04-9.357,15.593-6.765,19.479a.314.314,0,0,1,.04.269.318.318,0,0,1-.185.2A8.938,8.938,0,0,1,677.731,400.852Zm-19.776-5.95c4.746,0,8.593,1.635,11.988,3.078,2.711,1.151,5.272,2.24,7.788,2.24a8.308,8.308,0,0,0,2.768-.466c-2.47-4.211-.174-10.722,7-19.885,1.795-2.291,3.627-3.454,5.446-3.454,2.353,0,4.195,1.883,5.54,3.258.633.647,1.288,1.318,1.6,1.318.59-.189.518-3.648.466-6.175-.079-3.763-.176-8.447.878-11.144a89.128,89.128,0,0,1,6.937-12.85c-5.132-.527-9.221,1.486-12.227,6a8.365,8.365,0,0,1-7.185,4.145h0c-4.572,0-9.717-3.282-14.29-6.249a6.141,6.141,0,0,1-.369.56.316.316,0,0,1-.252.126,9.052,9.052,0,0,0-2.4.787,12.078,12.078,0,0,1-4.187,1.2c1.531,11.566,3.451,27.2-8.831,35.386a2.794,2.794,0,0,0-.754,2.127Z" transform="translate(-657.243 -350.106)" fill="#fff"/></g><g transform="translate(370.733 292.72)"><path d="M565.762,446.27c4.678-3.119,10.915-4.678,15.595-9.356,1.559,4.678,7.8,4.678,7.8,10.916,7.787,0,13.194-5.553,18.484-10.436-2.257-4.437-3.524-11.7.228-12.955,9.015-4.509,10.709-13.079,13.891-20.433-4.426-4.791.227-16.96,7.941-13.874,0-7.311-5.714-12.7-11.93-15.462a10.2,10.2,0,0,0-.6.867c-1.486,2.428.445,17.519-10.326,22.455-21.476,9.842-14.05,13.583-20.159,22.031s-22.871,16.407-29.206,19.037a34.18,34.18,0,0,0-3.9,2C555.743,445.9,559.8,449.252,565.762,446.27Z" transform="translate(-553.264 -374.354)" fill="#cad9d7"/><path d="M589.095,448.087a.316.316,0,0,1-.316-.316c0-3.406-1.917-4.844-3.947-6.366a10.027,10.027,0,0,1-3.659-3.986c-2.895,2.759-6.3,4.4-9.594,5.988a46.965,46.965,0,0,0-5.7,3.068,9.985,9.985,0,0,1-4.461,1.178h0c-3.4,0-6.3-2.317-8.185-6.523a.317.317,0,0,1,.131-.4,34.129,34.129,0,0,1,3.935-2.021c8.166-3.39,23.477-11.192,29.072-18.93a18.546,18.546,0,0,0,3-6.724c1.255-4.592,2.339-8.558,17.287-15.408,7.839-3.593,8.817-12.74,9.4-18.207a12.6,12.6,0,0,1,.786-4.126,10.383,10.383,0,0,1,.62-.893.316.316,0,0,1,.379-.1c7.587,3.366,12.118,9.254,12.118,15.751a.316.316,0,0,1-.434.293,6.235,6.235,0,0,0-2.311-.472c-2.464,0-4.7,1.746-5.979,4.67-1.47,3.36-1.183,7.131.7,9.169a.315.315,0,0,1,.058.34c-.572,1.322-1.108,2.713-1.624,4.059-2.418,6.284-4.918,12.783-12.415,16.531a2.861,2.861,0,0,0-1.774,1.74c-1.1,2.687.046,7.564,1.686,10.789a.315.315,0,0,1-.068.375l-1.072,1C601.687,443.245,596.482,448.087,589.095,448.087Zm-7.8-11.548a.3.3,0,0,1,.072.008.315.315,0,0,1,.228.208c.637,1.911,2.082,3,3.613,4.143,2.005,1.5,4.076,3.057,4.194,6.552,6.976-.136,12.013-4.82,16.886-9.353l.9-.835c-1.686-3.425-2.762-8.269-1.6-11.1a3.429,3.429,0,0,1,2.118-2.082c7.236-3.622,9.692-10,12.066-16.176.5-1.29,1.007-2.621,1.554-3.9-1.924-2.246-2.209-6.195-.676-9.7,1.732-3.96,5.145-5.864,8.663-4.693-.206-5.994-4.469-11.418-11.5-14.615-.167.228-.309.438-.432.639a13.109,13.109,0,0,0-.7,3.865c-.6,5.6-1.6,14.972-9.766,18.713-14.679,6.728-15.727,10.561-16.941,15a19.092,19.092,0,0,1-3.094,6.928c-6.99,9.667-27.073,18.2-29.34,19.143a32.232,32.232,0,0,0-3.613,1.841c1.084,2.315,3.417,5.89,7.489,5.89h0a9.331,9.331,0,0,0,4.144-1.092,47.233,47.233,0,0,1,5.744-3.092c3.38-1.629,6.877-3.314,9.77-6.206A.316.316,0,0,1,581.3,436.539Z" transform="translate(-553.205 -374.295)" fill="#fff"/></g><g transform="translate(319.498 334.977)"><path d="M507.876,480.643c4.507-3.382,9.015-6.753,13.522-9.546-.444-.237-.887-.487-1.333-.753-3.6-2.4-5.118-19,2.1-23.367a15.75,15.75,0,0,1,1.374-5.58c2.338-5.007,11.565-7.8,10.46-15.531-.523-3.661-16.2,2.335-20.56,6.317s.039,6.79-2.027,18.243c-1.925,10.673-5.19,14.083-12.4,21.442a38.076,38.076,0,0,1-6.205,5.022C497.621,481.051,505.612,482.905,507.876,480.643Z" transform="translate(-492.484 -424.413)" fill="#cad9d7"/><path d="M504.564,481.874h0c-3.745,0-8.8-2.02-12.027-4.8a.316.316,0,0,1,.029-.5,37.993,37.993,0,0,0,6.156-4.982c7.136-7.282,10.393-10.6,12.318-21.278a34.191,34.191,0,0,0,.233-11.13c-.358-3.022-.594-5.019,1.892-7.29,3.331-3.045,13.668-7.539,18.538-7.539,1.939,0,2.456.766,2.547,1.409.72,5.041-2.854,8.1-6.008,10.8-1.873,1.6-3.642,3.116-4.479,4.91a15.442,15.442,0,0,0-1.345,5.465.313.313,0,0,1-.152.251c-4.287,2.594-4.889,9.222-4.949,11.951-.109,4.959,1.149,9.74,2.864,10.882.428.255.867.5,1.306.738a.316.316,0,0,1,.018.548c-4.581,2.839-9.319,6.394-13.5,9.529A4.845,4.845,0,0,1,504.564,481.874Zm-11.3-5.013a19.89,19.89,0,0,0,11.3,4.381h0a4.279,4.279,0,0,0,3.029-.883c4.084-3.068,8.658-6.5,13.119-9.3q-.432-.241-.867-.5c-1.922-1.28-3.275-6.192-3.159-11.431.062-2.8.686-9.579,5.113-12.391a16.079,16.079,0,0,1,1.393-5.53c.9-1.918,2.715-3.475,4.641-5.123,3.177-2.72,6.464-5.533,5.793-10.23-.083-.575-.728-.867-1.922-.867-4.319,0-14.644,4.2-18.112,7.373-2.247,2.053-2.049,3.722-1.691,6.75a34.731,34.731,0,0,1-.238,11.316c-1.96,10.865-5.478,14.455-12.488,21.608A37.658,37.658,0,0,1,493.265,476.861Z" transform="translate(-492.425 -424.354)" fill="#fff"/></g><g transform="translate(290.945 386.303)"><path d="M465.131,524.5c12.476,3.119,18.713-14.035,28.069-17.153,3.119-1.559,10.916,1.56,12.477,0,4.065-6.777,3.419-14.727,3.182-21.811-2.1,1.514-4.2,3.083-6.3,4.657-2.263,2.263-10.255.409-15.075-3.75-4.406,2.971-7.522,4.608-6.757,10.378,1.69,12.734-7.8,19.492-15.984,20.467a7.569,7.569,0,0,1-5.812-1.436C459.2,519.435,461.266,522.566,465.131,524.5Z" transform="translate(-458.612 -485.218)" fill="#cad9d7"/><path d="M468.046,525.132h0a12.617,12.617,0,0,1-3.05-.386c-3.884-1.934-6.149-5.1-6.441-8.932a.316.316,0,0,1,.509-.273,7.279,7.279,0,0,0,5.581,1.372,18.865,18.865,0,0,0,12.488-6.881,17.346,17.346,0,0,0,3.221-13.23c-.741-5.585,2.1-7.485,6.042-10.112l.851-.569a.315.315,0,0,1,.384.022,19.883,19.883,0,0,0,11.614,4.648,4.28,4.28,0,0,0,3.03-.883c2.158-1.621,4.239-3.175,6.341-4.69a.317.317,0,0,1,.5.247l.057,1.6c.246,6.578.526,14.034-3.285,20.388a2.6,2.6,0,0,1-1.992.6,27.132,27.132,0,0,1-3.743-.417,31.318,31.318,0,0,0-4.511-.483,5.348,5.348,0,0,0-2.36.416c-3.635,1.216-6.747,4.515-10.042,8.008C478.808,520.274,474.224,525.132,468.046,525.132Zm-8.785-8.679a10.244,10.244,0,0,0,5.953,7.7,12.224,12.224,0,0,0,2.831.343c5.908,0,10.4-4.757,14.735-9.358,3.352-3.552,6.517-6.909,10.261-8.156a5.854,5.854,0,0,1,2.6-.467,31.8,31.8,0,0,1,4.608.491,26.7,26.7,0,0,0,3.646.41,2.214,2.214,0,0,0,1.5-.357c3.666-6.13,3.39-13.487,3.147-19.978l-.036-1.007c-1.935,1.4-3.858,2.838-5.818,4.307a4.849,4.849,0,0,1-3.443,1.039c-3.674,0-8.613-1.944-11.844-4.645l-.653.438c-3.888,2.594-6.456,4.308-5.768,9.5a17.959,17.959,0,0,1-3.348,13.7,19.506,19.506,0,0,1-12.912,7.121A8.013,8.013,0,0,1,459.26,516.453Z" transform="translate(-458.553 -485.159)" fill="#fff"/></g><g transform="translate(304.315 410.447)"><path d="M500.251,535.474c-3.535-6.015-3.857-14.941-8.665-21.345-5.48,4.2-10.28,11.949-16.8,14.442,1.533,8.078,3.947,15.72,5.863,23.272C490.227,549.22,498.01,543.591,500.251,535.474Z" transform="translate(-474.473 -513.813)" fill="#cad9d7"/><path d="M480.593,552.1a.314.314,0,0,1-.159-.043.311.311,0,0,1-.147-.2c-.615-2.418-1.293-4.9-1.951-7.3-1.412-5.158-2.873-10.492-3.917-15.992a.318.318,0,0,1,.2-.355c4-1.528,7.382-5.115,10.655-8.584a53.768,53.768,0,0,1,6.063-5.814.321.321,0,0,1,.235-.062.316.316,0,0,1,.21.122c2.739,3.647,4.029,8.065,5.275,12.334a40.25,40.25,0,0,0,3.409,9.041.311.311,0,0,1,.032.244c-2.118,7.673-9.343,13.719-19.821,16.589A.315.315,0,0,1,480.593,552.1Zm-5.5-23.39c1.036,5.384,2.469,10.62,3.856,15.685.63,2.3,1.28,4.672,1.874,7,10.031-2.826,16.951-8.618,19.032-15.935a41.327,41.327,0,0,1-3.4-9.068c-1.2-4.115-2.444-8.366-4.984-11.872a56.069,56.069,0,0,0-5.735,5.548C482.476,523.517,479.113,527.082,475.09,528.711Z" transform="translate(-474.414 -513.754)" fill="#fff"/></g><g transform="translate(307.755 431.863)"><path d="M512.215,572.186c-.489-1.908-11.554-9.577-12.121-10.476-.543-.86,4.7-11.806,8.458-13.192a3.987,3.987,0,0,1,.256-3.077,12.13,12.13,0,0,1-7.915-5.991c-2.241,8.118-10.024,13.746-19.6,16.369,3.39,13.346,5.223,26.4-2.116,41.081-1.042,2.085.709,4.17,3.378,6.255,4.141-7.357,7.878-16.564,9.782-19.022,3.32-4.291,13.492-4.759,17.594-4.262S512.706,574.095,512.215,572.186Z" transform="translate(-478.554 -539.134)" fill="#cad9d7"/><path d="M482.5,603.412a.316.316,0,0,1-.195-.067c-2.273-1.775-4.72-4.135-3.465-6.646,7.63-15.259,5.081-29.093,2.092-40.861a.316.316,0,0,1,.223-.383c10.257-2.81,17.32-8.7,19.379-16.149a.315.315,0,0,1,.577-.076,11.784,11.784,0,0,0,7.72,5.843.323.323,0,0,1,.211.175.318.318,0,0,1-.005.274,3.67,3.67,0,0,0-.234,2.851.316.316,0,0,1-.195.381c-3.54,1.3-8.581,11.605-8.287,12.756.158.243,1.875,1.564,3.536,2.842,4.523,3.479,8.293,6.46,8.61,7.7.406,1.579,1.206,5.442-.153,7.2a2.389,2.389,0,0,1-2,.912h0a3.867,3.867,0,0,1-.48-.031,26.041,26.041,0,0,0-3.03-.157c-5.293,0-11.823,1.13-14.277,4.3a62.307,62.307,0,0,0-4.221,8.044c-1.661,3.47-3.542,7.4-5.535,10.94a.316.316,0,0,1-.213.156A.312.312,0,0,1,482.5,603.412Zm-.879-47.429c2.982,11.813,5.446,25.677-2.215,41-.793,1.586.132,3.331,3,5.634,1.915-3.437,3.729-7.225,5.334-10.579a60.591,60.591,0,0,1,4.292-8.158c2.593-3.351,9.333-4.544,14.777-4.544a26.588,26.588,0,0,1,3.105.162,1.9,1.9,0,0,0,1.9-.641c1.221-1.575.339-5.489.039-6.65-.287-1.126-5.355-5.024-8.382-7.353a29.6,29.6,0,0,1-3.7-3.033c-.111-.178-.176-.51.2-1.618,1.01-2.975,4.935-10.425,8.151-11.93a4.191,4.191,0,0,1,.186-2.68,12.22,12.22,0,0,1-7.371-5.435C498.607,547.434,491.621,553.167,481.616,555.983Z" transform="translate(-478.495 -539.075)" fill="#fff"/></g><g transform="translate(269.588 407.471)"><path d="M468.32,528.016a11.627,11.627,0,0,1-7.168.417c-3.865-1.932-5.929-5.064-6.2-8.649-3.132-2.429-4.138-7.089-5.883-8.7-1.309-1.211-8.135-.023-15.474,1.754,6.194,15.075,19.476,25.209,29.119,38.984a5.454,5.454,0,0,1,1.371,2.437,97.327,97.327,0,0,1,11.3,2.112C473.394,547.152,470.2,537.912,468.32,528.016Z" transform="translate(-433.276 -510.277)" fill="#cad9d7"/><path d="M475.322,556.63a.31.31,0,0,1-.087-.012,72.107,72.107,0,0,0-8.952-1.747c-.777-.118-1.549-.235-2.311-.357a.316.316,0,0,1-.254-.227,5.1,5.1,0,0,0-1.29-2.3,162.992,162.992,0,0,0-11.817-14.411c-6.931-7.817-13.477-15.2-17.372-24.678a.315.315,0,0,1,.217-.427c6.184-1.5,10.636-2.256,13.234-2.256a3.871,3.871,0,0,1,2.531.576,11.86,11.86,0,0,1,2.047,3.261c.951,1.892,2.029,4.036,3.815,5.421a.321.321,0,0,1,.121.226,10.156,10.156,0,0,0,6.029,8.39,12.219,12.219,0,0,0,2.83.343,11.264,11.264,0,0,0,4.083-.774.318.318,0,0,1,.424.236c1.039,5.474,2.494,10.793,3.9,15.938,1.168,4.265,2.27,8.295,3.158,12.412a.317.317,0,0,1-.309.383Zm-11.053-2.708c.7.11,1.4.217,2.109.325a76.889,76.889,0,0,1,8.523,1.624c-.864-3.924-1.921-7.788-3.038-11.868-1.379-5.041-2.805-10.25-3.843-15.619a11.985,11.985,0,0,1-7,.3c-3.837-1.911-6.094-5.021-6.43-8.793a16.028,16.028,0,0,1-3.883-5.55,11.516,11.516,0,0,0-1.91-3.08c-.2-.186-.73-.408-2.1-.408-2.461,0-6.857.743-12.725,2.151,3.871,9.216,10.309,16.476,17.12,24.157a162.312,162.312,0,0,1,11.825,14.426A5.518,5.518,0,0,1,464.269,553.921Z" transform="translate(-433.217 -510.218)" fill="#fff"/></g><g transform="translate(293.855 451.202)"><path d="M468.6,562.4c1.53,5.407-3.385,14.523-6.049,22.515-1.436,10.055,6.392,12.168,14.948,13.66,5.421-12.047,4.775-23.04,2.4-34.063A97.313,97.313,0,0,0,468.6,562.4Z" transform="translate(-462.064 -562.08)" fill="#cad9d7"/><path d="M477.443,598.828a.287.287,0,0,1-.054,0c-8.849-1.543-16.67-3.777-15.207-14.016.725-2.191,1.608-4.433,2.461-6.6,2.306-5.859,4.691-11.919,3.6-15.784a.314.314,0,0,1,.067-.3.323.323,0,0,1,.287-.1c.76.122,1.53.239,2.305.357a72.548,72.548,0,0,1,9.031,1.764.319.319,0,0,1,.223.237c2.08,9.656,3.421,21.278-2.421,34.26A.315.315,0,0,1,477.443,598.828Zm-8.479-36.1c.859,4.047-1.375,9.721-3.733,15.714-.851,2.161-1.73,4.4-2.436,6.514-1.359,9.549,5.715,11.666,14.46,13.207,5.613-12.642,4.343-23.995,2.319-33.457a73.6,73.6,0,0,0-8.769-1.7C470.187,562.912,469.572,562.819,468.964,562.723Z" transform="translate(-462.005 -562.021)" fill="#fff"/></g><g transform="translate(160.361 412.653)"><path d="M362,517.653a14.632,14.632,0,0,1-2.343-.6c-3.823-1.43-13.849,2.209-18.339,4.029s-8.071,8.835-19.291,18.194a56.191,56.191,0,0,1-18.011,10.261c2.1,8.049,4.127,18.592,8.913,12.61,11.745-14.681,27.792-20.76,44.282-25.567C360.4,530.87,363.351,524.117,362,517.653Z" transform="translate(-303.701 -516.411)" fill="#cad9d7"/><path d="M310.248,564.161h0c-2.9,0-4.49-6.285-6.025-12.363-.191-.759-.381-1.511-.572-2.243a.316.316,0,0,1,.193-.375l.293-.111a55.453,55.453,0,0,0,17.629-10.1,112.521,112.521,0,0,0,12.053-11.8c2.895-3.191,4.987-5.5,7.321-6.442,3.249-1.316,11.335-4.376,16.228-4.376a6.792,6.792,0,0,1,2.342.345,14.1,14.1,0,0,0,2.289.588.315.315,0,0,1,.251.245c1.418,6.788-1.832,13.8-4.823,19.143a.322.322,0,0,1-.187.15c-14.988,4.367-31.993,10.3-44.123,25.461C312.108,563.547,311.169,564.161,310.248,564.161Zm-5.913-14.491c.167.647.334,1.307.5,1.973,1.406,5.571,3,11.885,5.411,11.885h0c.706,0,1.506-.551,2.376-1.64,12.212-15.265,29.266-21.245,44.315-25.637,2.888-5.182,5.992-11.914,4.734-18.386a13.9,13.9,0,0,1-2.184-.576,6.2,6.2,0,0,0-2.121-.305c-4.781,0-12.776,3.027-15.991,4.329-2.2.891-4.251,3.153-7.089,6.282a113.191,113.191,0,0,1-12.118,11.862,56.012,56.012,0,0,1-17.808,10.2Z" transform="translate(-303.642 -516.352)" fill="#fff"/></g><g transform="translate(213.556 412.863)"><path d="M411.427,517.015c-2.466.726-4.618,1.4-6.132,1.9-7.6,2.534-13.013,1.688-18.814.52-4.78-.964-10.541-.969-14.571-1.737,1.35,6.464-1.6,13.217-4.789,18.924,9.783-2.853,19.72-5.255,29.012-8.74,0,6.346,7.228,6.493,13.283,7.169C411.511,529.207,413.343,523.343,411.427,517.015Z" transform="translate(-366.805 -516.699)" fill="#cad9d7"/><path d="M367.063,536.88a.316.316,0,0,1-.276-.47c2.937-5.252,6.132-12.123,4.755-18.705a.317.317,0,0,1,.369-.375c1.862.355,4.094.545,6.457.746a73.654,73.654,0,0,1,8.118.991,44.833,44.833,0,0,0,9.062,1.125,29.949,29.949,0,0,0,9.589-1.635c1.617-.538,3.8-1.213,6.143-1.9a.317.317,0,0,1,.392.212c1.91,6.31.137,12.226-2.015,18.235a.323.323,0,0,1-.333.208c-.516-.057-1.041-.112-1.569-.165-5.481-.562-11.674-1.2-11.984-6.868-6.571,2.436-13.572,4.378-20.347,6.258-2.715.754-5.522,1.532-8.273,2.335A.32.32,0,0,1,367.063,536.88Zm5.187-18.846c1.134,6.363-1.727,12.881-4.539,18.013,2.517-.728,5.07-1.436,7.544-2.123,6.9-1.916,14.045-3.9,20.709-6.4a.317.317,0,0,1,.427.3c0,5.518,5.809,6.113,11.427,6.69.445.045.888.09,1.326.138,2.118-5.939,3.7-11.366,2.01-17.3-2.222.658-4.278,1.3-5.818,1.807a30.545,30.545,0,0,1-9.788,1.668,46.016,46.016,0,0,1-9.187-1.138,73.26,73.26,0,0,0-8.045-.98C376.123,518.519,374.044,518.341,372.25,518.033Z" transform="translate(-366.746 -516.64)" fill="#fff"/></g><g transform="translate(130.22 445.502)"><path d="M307.316,568.256c-4.786,5.983-6.818-4.56-8.913-12.61a25.358,25.358,0,0,0-4.6,2.085c-4.029,2.6-4.549,8.056-10.4,7.8s-12.215,2.341-14.211,5.179-.3,9.416.7,10.314,9.23,4.388,12.877,4.7,8.824-2.519,14.413-2.5,9.876,7.65,12.888,8.773c2.4.9,3.85-10.732,7.3-16.715-1.946-3.743-4.118-7.485-6.347-11.232Q309.107,566.026,307.316,568.256Z" transform="translate(-267.945 -555.329)" fill="#cad9d7"/><path d="M310.269,592.3a1.06,1.06,0,0,1-.371-.068c-1.176-.438-2.471-1.747-3.97-3.264-2.412-2.439-5.414-5.475-8.81-5.489a31.1,31.1,0,0,0-8.153,1.432,19.859,19.859,0,0,1-6.285,1.067c-3.71-.318-12.054-3.87-13.063-4.78-1.071-.969-2.868-7.708-.743-10.731,2.067-2.939,8.194-5.331,13.656-5.331.276,0,.553.006.828.018,3.519.149,4.963-1.785,6.649-4.042a14.138,14.138,0,0,1,3.562-3.7,25.55,25.55,0,0,1,4.66-2.116.317.317,0,0,1,.418.216c.191.734.382,1.489.574,2.251,1.407,5.569,3,11.882,5.411,11.882.706,0,1.506-.551,2.376-1.64,1.169-1.461,2.422-2.885,3.724-4.232a.31.31,0,0,1,.264-.094.314.314,0,0,1,.235.153c1.991,3.347,4.3,7.3,6.355,11.248a.315.315,0,0,1-.007.3,49.124,49.124,0,0,0-3.6,9.529C312.672,589.2,311.727,592.3,310.269,592.3Zm-13.205-9.453c3.716.014,6.82,3.154,9.314,5.677,1.447,1.463,2.7,2.726,3.741,3.116a.425.425,0,0,0,.15.029c.99,0,2.064-3.529,3.1-6.943a50.821,50.821,0,0,1,3.576-9.509c-1.952-3.744-4.135-7.49-6.047-10.706-1.186,1.243-2.327,2.55-3.4,3.889-1.011,1.264-1.95,1.877-2.87,1.877-2.9,0-4.49-6.283-6.024-12.36-.162-.641-.323-1.28-.484-1.9a23.225,23.225,0,0,0-4.212,1.93,13.643,13.643,0,0,0-3.4,3.551c-1.639,2.2-3.325,4.458-7.184,4.3-5.957-.277-12.139,2.485-13.938,5.045-1.867,2.654-.282,9.056.649,9.9.9.812,9.11,4.313,12.692,4.619A19.2,19.2,0,0,0,288.8,584.3,31.556,31.556,0,0,1,297.064,582.845Z" transform="translate(-267.885 -555.27)" fill="#fff"/></g><g transform="translate(172.979 430.797)"><path d="M365.636,538.229c-16.889,4.7-33.807,9.8-46.65,23.082,2.229,3.746,4.4,7.489,6.347,11.232a7.037,7.037,0,0,1,3.082-3.181c5.856-2.4,4.021,4.607,7.185,6.224s17.2-4.146,24.775-6.376a47.817,47.817,0,0,1,8.044-1.59C369.986,557.625,364.8,548.233,365.636,538.229Z" transform="translate(-318.67 -537.913)" fill="#cad9d7"/><path d="M337.125,576.125h0a3.824,3.824,0,0,1-1.728-.317c-1.334-.683-1.832-2.169-2.313-3.607-.553-1.651-1.029-3.078-2.641-3.078a5.4,5.4,0,0,0-1.967.471,6.65,6.65,0,0,0-2.928,3.047.316.316,0,0,1-.554-.013c-2.044-3.933-4.351-7.877-6.337-11.216a.316.316,0,0,1,.044-.381c13.41-13.872,31.92-19.026,46.794-23.167a.314.314,0,0,1,.286.061.318.318,0,0,1,.114.271c-.392,4.677.566,9.312,1.491,13.8,1.044,5.056,2.124,10.284,1.288,15.618a.319.319,0,0,1-.277.266,47.362,47.362,0,0,0-7.99,1.579c-2.006.591-4.464,1.429-7.067,2.317C347.354,573.812,340.573,576.125,337.125,576.125Zm-6.683-7.634c2.067,0,2.664,1.784,3.24,3.508.441,1.318.9,2.681,2,3.245a3.285,3.285,0,0,0,1.44.248c3.342,0,10.072-2.3,16.01-4.32,2.61-.89,5.074-1.731,7.093-2.325a47.749,47.749,0,0,1,7.856-1.573c.751-5.14-.3-10.23-1.318-15.156-.905-4.383-1.841-8.912-1.536-13.524-14.663,4.082-32.76,9.219-45.907,22.7,1.879,3.16,4.028,6.841,5.971,10.54a6.69,6.69,0,0,1,2.943-2.828A5.9,5.9,0,0,1,330.442,568.491Z" transform="translate(-318.611 -537.854)" fill="#fff"/></g><g transform="translate(219.539 423.769)"><path d="M410.532,537.076c-6.055-.676-13.283-.824-13.283-7.169-7.373,2.763-15.152,4.848-22.939,7.015-.838,10,4.35,19.4,2.782,29.391a47.714,47.714,0,0,1,13.229.207c4.611.825,8.645-6.384,16.986-9.689C405.633,549.872,408.239,543.483,410.532,537.076Z" transform="translate(-373.902 -529.591)" fill="#cad9d7"/><path d="M391,566.841h0a4.447,4.447,0,0,1-.792-.07,48.036,48.036,0,0,0-13.137-.2.308.308,0,0,1-.265-.1.316.316,0,0,1-.084-.268c.819-5.219-.249-10.39-1.281-15.392-.936-4.527-1.9-9.208-1.5-13.975a.315.315,0,0,1,.23-.278l2.171-.6c6.916-1.918,14.066-3.9,20.74-6.4a.317.317,0,0,1,.427.3c0,5.518,5.809,6.113,11.427,6.69.53.054,1.057.108,1.575.165a.317.317,0,0,1,.263.421l-.46,1.278c-2.112,5.846-4.3,11.892-2.756,18.3a.316.316,0,0,1-.191.367,35.127,35.127,0,0,0-9.246,5.893C395.431,565.128,393.308,566.841,391,566.841Zm-7.806-1.259a41.373,41.373,0,0,1,7.125.567,3.842,3.842,0,0,0,.68.06h0c2.086,0,4.131-1.652,6.721-3.744a36.224,36.224,0,0,1,9.159-5.886c-1.463-6.487.723-12.539,2.838-18.393l.324-.9c-.387-.041-.778-.082-1.171-.121-5.481-.562-11.675-1.2-11.984-6.868-6.579,2.44-13.593,4.385-20.379,6.267l-1.958.544c-.345,4.6.6,9.163,1.509,13.576,1.017,4.927,2.069,10.018,1.348,15.209A54.369,54.369,0,0,1,383.192,565.582Z" transform="translate(-373.844 -529.532)" fill="#fff"/></g><g transform="translate(252.097 409.72)"><path d="M430.333,513.258c-4.037.978-8.21,2.129-11.726,3.167,4.015,13.264-8.435,24.481-5.236,37.791a22.367,22.367,0,0,1,4.382-1.253c11.451-2.01,17.274,4.99,20.584,6.181,2.894,1.041,7.484-5.612,10.849-1.99a43.765,43.765,0,0,0,4.189-12.73C444.824,534.26,435.3,525.346,430.333,513.258Z" transform="translate(-412.526 -512.94)" fill="#cad9d7"/><path d="M438.948,559.512a2.286,2.286,0,0,1-.776-.131,16.011,16.011,0,0,1-3-1.737c-3.034-2.02-7.189-4.785-13.465-4.785a23.061,23.061,0,0,0-3.959.355,22.013,22.013,0,0,0-4.32,1.236.315.315,0,0,1-.424-.219c-1.584-6.589.632-12.725,2.776-18.657,2.208-6.109,4.49-12.427,2.465-19.117a.316.316,0,0,1,.213-.394c2.822-.833,7.152-2.059,11.741-3.17a.308.308,0,0,1,.367.186c3.856,9.38,10.367,16.726,17.261,24.5,1.892,2.134,3.846,4.34,5.73,6.578a.318.318,0,0,1,.071.246,43.2,43.2,0,0,1-4.216,12.825.316.316,0,0,1-.517.078,2.785,2.785,0,0,0-2.11-.989c-1.307,0-2.732.845-4.111,1.662A8.286,8.286,0,0,1,438.948,559.512Zm-17.239-7.285c6.468,0,10.89,2.944,13.816,4.891a15.736,15.736,0,0,0,2.861,1.669c1,.359,2.456-.453,3.967-1.35,1.452-.86,2.954-1.75,4.433-1.75a3.332,3.332,0,0,1,2.246.872,42.194,42.194,0,0,0,3.951-12.1c-1.85-2.2-3.771-4.362-5.629-6.457-6.868-7.75-13.361-15.073-17.268-24.432-4.319,1.052-8.384,2.2-11.146,3.01,1.927,6.774-.356,13.095-2.565,19.209-2.073,5.737-4.215,11.667-2.836,17.942a22.4,22.4,0,0,1,4.1-1.138A23.585,23.585,0,0,1,421.708,552.227Z" transform="translate(-412.467 -512.881)" fill="#fff"/></g><g transform="translate(278.165 440.92)"><path d="M464.309,558.048c-1.91-2.728-3.966-5.312-6.078-7.82a43.765,43.765,0,0,1-4.189,12.73,7.709,7.709,0,0,1,1.372,2.263c3.379,7.966-10.325,11.73-11.353,13.163a2.859,2.859,0,0,0-.255,1.905c6.121-1.239,12.563-1.414,18.178-3.587C464.961,569.157,467.961,561.7,464.309,558.048Z" transform="translate(-443.451 -549.912)" fill="#cad9d7"/><path d="M443.748,580.547a.317.317,0,0,1-.314-.286,3.143,3.143,0,0,1,.313-2.12,8.567,8.567,0,0,1,2.584-1.533c4.188-2.063,11.2-5.516,8.736-11.322a7.487,7.487,0,0,0-1.312-2.171.316.316,0,0,1-.054-.352,42.61,42.61,0,0,0,4.16-12.637.316.316,0,0,1,.226-.261.321.321,0,0,1,.33.1c2.453,2.915,4.389,5.407,6.095,7.843,3.721,3.715.851,10.991-2.187,18.693l-.1.259a.313.313,0,0,1-.18.179,53.614,53.614,0,0,1-11.862,2.579c-2.1.294-4.27.6-6.367,1.022A.319.319,0,0,1,443.748,580.547Zm10.612-17.7a8.349,8.349,0,0,1,1.287,2.193c2.695,6.355-4.937,10.116-9.038,12.136a10.611,10.611,0,0,0-2.349,1.335,2.193,2.193,0,0,0-.224,1.341c2.005-.392,4.062-.68,6.055-.959a53.93,53.93,0,0,0,11.593-2.494l.051-.13c2.96-7.5,5.756-14.592,2.293-18.055-1.622-2.31-3.417-4.632-5.646-7.3A44.112,44.112,0,0,1,454.36,562.846Z" transform="translate(-443.392 -549.853)" fill="#fff"/></g><g transform="translate(277.983 467.449)"><path d="M473.628,603.525c.325-.648.626-1.292.915-1.933-8.556-1.492-16.385-3.605-14.948-13.66.683-2.052,1.518-4.178,2.354-6.3-5.616,2.173-12.058,2.348-18.178,3.587.175,1.817.894,4.449.142,7.484A16.318,16.318,0,0,0,448,607.229c3.94,4.087,12.767,12.021,19.663,12.354,2.945.142,6.258-4.318,9.347-9.8C474.337,607.7,472.586,605.61,473.628,603.525Z" transform="translate(-443.233 -581.318)" fill="#cad9d7"/><path d="M467.74,619.844h0l-.153,0c-7.858-.381-17.936-10.438-19.875-12.451a16.708,16.708,0,0,1-4.163-14.819,15.1,15.1,0,0,0,.022-6.069c-.069-.472-.133-.91-.172-1.308a.317.317,0,0,1,.252-.341c2.115-.428,4.3-.734,6.4-1.028a53.219,53.219,0,0,0,11.722-2.543.315.315,0,0,1,.407.411c-.771,1.957-1.646,4.174-2.348,6.282-1.372,9.637,5.846,11.7,14.7,13.249a.316.316,0,0,1,.233.442c-.291.644-.593,1.291-.92,1.945-.819,1.638.2,3.446,3.289,5.864a.316.316,0,0,1,.081.4C473.4,616.676,470.382,619.844,467.74,619.844Zm-23.68-34.428c.037.311.086.642.137.994a15.613,15.613,0,0,1-.035,6.312,16.043,16.043,0,0,0,4,14.228c1.911,1.983,11.832,11.89,19.451,12.258l.122,0c2.328,0,5.208-3.078,8.8-9.41-2.208-1.755-4.467-4.045-3.251-6.477.26-.519.5-1.036.741-1.55-8.682-1.542-16.246-3.862-14.8-13.945.641-1.94,1.406-3.916,2.113-5.711a57.278,57.278,0,0,1-11.195,2.332C448.139,584.73,446.068,585.021,444.059,585.416Z" transform="translate(-443.176 -581.259)" fill="#fff"/></g><g transform="translate(335.951 428.194)"><path d="M551.486,541.647c-3.12,1.56-6.238,0-9.356-1.559a2.065,2.065,0,0,1-.6-1.474c-7.437,1.133-12.041-4.722-18.114-3.2-4.293,0-11.19,1.33-11.1,8.776a14.347,14.347,0,0,0,1.742.581,3.987,3.987,0,0,0-.256,3.077,2.462,2.462,0,0,1,.5-.154c2.874-.389,1.8,10.283,3.068,10.478s2.67-3.223,4.337-2.647,9.066.942,9.747,2.354-4,6.385-2.5,7.821c1.37,1.32,3.869-1.291,9.62-2.362.2-.037.4-.05.594-.082a2.878,2.878,0,0,1-.157-2.891C543.688,554.122,553.045,551,551.486,541.647Z" transform="translate(-512.002 -534.84)" fill="#cad9d7"/><path d="M529.835,566.316h0a1.588,1.588,0,0,1-1.16-.453c-1-.966.111-2.928,1.19-4.827.659-1.16,1.48-2.6,1.249-3.083-.379-.784-4.109-1.307-6.34-1.619a23.25,23.25,0,0,1-3.226-.574c-.715-.244-1.511.589-2.207,1.336s-1.354,1.431-2.075,1.325-.851-1.414-1.063-4.115c-.2-2.6-.529-6.578-1.915-6.361a1.8,1.8,0,0,0-.366.11.392.392,0,0,1-.288,0,.347.347,0,0,1-.193-.185,4.3,4.3,0,0,1,.118-2.953c-.525-.153-1-.333-1.414-.494a.319.319,0,0,1-.2-.291,8.132,8.132,0,0,1,2.206-6.059c2.612-2.643,6.89-3.037,9.208-3.037a8.111,8.111,0,0,1,2.064-.254,17.7,17.7,0,0,1,6.515,1.7,20.179,20.179,0,0,0,7.608,1.9,12.443,12.443,0,0,0,1.879-.143.314.314,0,0,1,.252.072.317.317,0,0,1,.112.237,1.763,1.763,0,0,0,.473,1.219c2.12,1.061,4.311,2.15,6.426,2.15a5.689,5.689,0,0,0,2.6-.612.32.32,0,0,1,.285,0,.315.315,0,0,1,.169.23c1.1,6.6-3.16,10.24-7.278,13.766a34.259,34.259,0,0,0-5.258,5.188,2.582,2.582,0,0,0,.181,2.551.315.315,0,0,1-.228.463c-.092.015-.184.027-.276.037s-.207.024-.309.043a28.367,28.367,0,0,0-5.964,1.884A8.2,8.2,0,0,1,529.835,566.316Zm-8.569-11.237a1.49,1.49,0,0,1,.487.083,23.551,23.551,0,0,0,3.109.545c3.686.518,6.333.961,6.82,1.971.376.779-.387,2.119-1.269,3.671-.87,1.529-1.952,3.433-1.3,4.059a.967.967,0,0,0,.723.276h0a8.153,8.153,0,0,0,2.531-.8,28.917,28.917,0,0,1,6.09-1.92c.057-.012.114-.02.172-.028a3.061,3.061,0,0,1,.04-2.776,34.467,34.467,0,0,1,5.382-5.338c4.077-3.488,7.932-6.787,7.128-12.77a6.276,6.276,0,0,1-2.491.5c-2.279,0-4.555-1.139-6.755-2.239a.31.31,0,0,1-.083-.059,2.329,2.329,0,0,1-.665-1.339,13.046,13.046,0,0,1-1.639.1,20.646,20.646,0,0,1-7.841-1.949,17.236,17.236,0,0,0-6.282-1.655,8.068,8.068,0,0,0-1.987.244c-2.3.009-6.385.38-8.833,2.859a7.441,7.441,0,0,0-2.026,5.393,12.9,12.9,0,0,0,1.5.491.315.315,0,0,1,.206.448,3.565,3.565,0,0,0-.316,2.521,1.419,1.419,0,0,1,.236-.054,1.648,1.648,0,0,1,.191-.013c1.9,0,2.184,3.694,2.439,6.953.11,1.408.261,3.336.555,3.549.429-.005.969-.583,1.49-1.141C519.6,555.885,520.357,555.08,521.266,555.08Z" transform="translate(-511.943 -534.781)" fill="#fff"/></g><g transform="translate(321.113 381.426)"><path d="M520.652,526.706c6.073-1.519,10.677,4.336,18.114,3.2a3.491,3.491,0,0,1,3.718-3.2c-4.678-12.476-10.915-23.391,1.559-35.867,1.555-3.111-3.094-7.774-3.118-10.893-5.37,3.533-12.145,3.577-19.227-.212-2.408,1.491-4.813,3.154-7.22,4.888.237,7.084.883,15.034-3.182,21.811-1.56,1.56-9.358-1.559-12.477,0a14.263,14.263,0,0,0-4.1,2.294c6.706,8.929,4.694,22.757,14.839,26.755C509.463,528.037,516.359,526.706,520.652,526.706Z" transform="translate(-494.4 -479.419)" fill="#cad9d7"/><path d="M509.5,535.74a.322.322,0,0,1-.115-.022c-6.2-2.444-7.948-8.417-9.8-14.74-1.233-4.211-2.508-8.566-5.177-12.119a.316.316,0,0,1,.061-.441,14.459,14.459,0,0,1,4.2-2.342,5.855,5.855,0,0,1,2.6-.467,31.8,31.8,0,0,1,4.608.491,26.7,26.7,0,0,0,3.646.41,2.218,2.218,0,0,0,1.5-.357c3.666-6.13,3.39-13.487,3.147-19.978l-.057-1.6a.322.322,0,0,1,.131-.268c2.813-2.026,5.113-3.583,7.239-4.9a.317.317,0,0,1,.315-.011c6.839,3.659,13.573,3.734,18.905.227a.316.316,0,0,1,.49.261,11.2,11.2,0,0,0,1.608,4.314c1.209,2.339,2.458,4.758,1.476,6.723a.311.311,0,0,1-.058.083c-11.069,11.069-7.3,20.672-2.934,31.792.484,1.233.973,2.478,1.446,3.739a.316.316,0,0,1-.3.427,3.585,3.585,0,0,0-2.582,1.018,2.67,2.67,0,0,0-.82,1.866.316.316,0,0,1-.269.316,13.173,13.173,0,0,1-1.974.15,20.645,20.645,0,0,1-7.841-1.949,17.233,17.233,0,0,0-6.282-1.655,8.067,8.067,0,0,0-1.987.244c-2.3.009-6.385.38-8.833,2.859a7.52,7.52,0,0,0-2.025,5.606.315.315,0,0,1-.316.32Zm-14.4-27.007c2.61,3.594,3.87,7.9,5.09,12.068,1.763,6.019,3.43,11.712,9,14.151a7.967,7.967,0,0,1,2.2-5.583c2.612-2.643,6.89-3.037,9.208-3.037a8.235,8.235,0,0,1,2.064-.254,17.7,17.7,0,0,1,6.516,1.7,20.17,20.17,0,0,0,7.607,1.9,12.477,12.477,0,0,0,1.622-.106,3.38,3.38,0,0,1,.992-2.037,4.141,4.141,0,0,1,2.583-1.186c-.424-1.119-.86-2.226-1.291-3.324-4.257-10.843-8.277-21.087,3.038-32.433.8-1.673-.368-3.926-1.495-6.106a14.262,14.262,0,0,1-1.635-4.052c-5.406,3.32-12.141,3.189-18.943-.4-2.036,1.266-4.239,2.759-6.91,4.681l.051,1.429c.246,6.578.526,14.034-3.285,20.388a2.6,2.6,0,0,1-1.992.6,27.146,27.146,0,0,1-3.743-.417,31.318,31.318,0,0,0-4.511-.483,5.348,5.348,0,0,0-2.36.416A13.652,13.652,0,0,0,495.1,508.733Z" transform="translate(-494.341 -479.36)" fill="#fff"/></g><g transform="translate(363.132 355.087)"><path d="M575.258,499.971c2.682-4.02,9.961,1.146,15.916-1.268-.107-.1-.219-.192-.321-.292-6.236-4.678-3.118-15.594-10.915-24.952-4.181-4.181,2.837-9.606,7.719-15.164-.71-5.126-6.26-5.41-7.719-9.786-4.68,4.678-10.916,6.237-15.595,9.356a8.671,8.671,0,0,1-5.656.98c-1.867,7.758-5.4,13.216-9.937,16.2.024,3.119,4.673,7.782,3.118,10.893-12.474,12.476-6.238,23.391-1.559,35.867-3.118,0-4.678,3.119-3.118,4.678,3.118,1.559,6.236,3.12,9.356,1.559a12.423,12.423,0,0,1,.147,1.479C568.99,523.244,565.941,509.289,575.258,499.971Z" transform="translate(-544.244 -448.194)" fill="#cad9d7"/><path d="M556.638,529.777a.305.305,0,0,1-.158-.043.314.314,0,0,1-.158-.258c-.018-.379-.045-.715-.083-1.03a6.268,6.268,0,0,1-2.488.5c-2.28,0-4.555-1.139-6.756-2.24a.3.3,0,0,1-.082-.058,2.541,2.541,0,0,1-.471-2.858,3.967,3.967,0,0,1,3.364-2.338c-.424-1.12-.859-2.227-1.291-3.325-4.257-10.843-8.277-21.087,3.038-32.433.8-1.673-.368-3.926-1.495-6.106-.858-1.66-1.668-3.229-1.679-4.6a.317.317,0,0,1,.142-.266c4.625-3.041,8.015-8.577,9.8-16.008a.311.311,0,0,1,.369-.236,8.412,8.412,0,0,0,5.452-.953,47.335,47.335,0,0,1,5.744-3.091c3.38-1.629,6.877-3.314,9.77-6.206a.316.316,0,0,1,.523.125c.637,1.91,2.081,2.994,3.611,4.143,1.828,1.372,3.718,2.79,4.12,5.7a.313.313,0,0,1-.074.252c-.905,1.03-1.892,2.064-2.844,3.064-4.156,4.36-8.081,8.477-4.889,11.668,4.063,4.876,5.2,10.105,6.2,14.72.932,4.289,1.735,7.992,4.681,10.2.1.094.173.158.246.223l.1.086a.316.316,0,0,1-.093.528,10.278,10.278,0,0,1-3.922.7,28.893,28.893,0,0,1-4.854-.547,23.464,23.464,0,0,0-3.734-.449,3.513,3.513,0,0,0-3.262,1.45c-4.059,4.068-5.761,9-7.406,13.772-2.181,6.322-4.24,12.292-11.277,15.883A.31.31,0,0,1,556.638,529.777Zm-.147-2.112a.322.322,0,0,1,.144.034.315.315,0,0,1,.168.231c.054.323.093.655.121,1.023,6.466-3.5,8.445-9.235,10.538-15.3,1.668-4.838,3.395-9.84,7.518-13.964a4.1,4.1,0,0,1,3.749-1.683,23.828,23.828,0,0,1,3.841.459,28.408,28.408,0,0,0,4.748.538,10.037,10.037,0,0,0,3.2-.471c-3.052-2.329-3.873-6.117-4.824-10.5-.986-4.544-2.1-9.692-6.049-14.427-3.609-3.608.523-7.942,4.9-12.531.916-.958,1.86-1.95,2.73-2.934-.407-2.552-2.082-3.809-3.853-5.139a10.033,10.033,0,0,1-3.657-3.985c-2.895,2.759-6.3,4.4-9.594,5.988a47.2,47.2,0,0,0-5.7,3.068,9.213,9.213,0,0,1-5.6,1.08c-1.825,7.366-5.226,12.89-9.851,16a12.125,12.125,0,0,0,1.6,4.146c1.209,2.339,2.458,4.758,1.476,6.723a.313.313,0,0,1-.058.083c-11.069,11.069-7.3,20.672-2.934,31.792.484,1.233.973,2.478,1.446,3.739a.316.316,0,0,1-.3.427,3.391,3.391,0,0,0-3.229,1.969,1.934,1.934,0,0,0,.3,2.133c2.12,1.06,4.311,2.149,6.426,2.149a5.694,5.694,0,0,0,2.6-.612A.314.314,0,0,1,556.491,527.665Z" transform="translate(-544.188 -448.135)" fill="#fff"/></g><g transform="translate(389.217 404.983)"><path d="M583.241,535.771c2.915-8.744,11.278-9.313,17.452-6.805a12.19,12.19,0,0,1-.3-2.551c1.56-3.119,6.239-4.678,6.239-7.8-1.51-6.037-7.393-7.7-10.6-10.624-5.956,2.414-13.234-2.752-15.916,1.268a24.159,24.159,0,0,0-4.613,6.622c3.051,4.393,3.055,9.8,3.055,15.21C580.121,532.653,583.241,537.331,583.241,535.771Z" transform="translate(-575.192 -507.355)" fill="#cad9d7"/><path d="M583.012,536.343h0c-.512,0-1.225-.829-2.851-2.862-.675-.844-1.373-1.716-1.881-2.223a.316.316,0,0,1-.092-.223c0-5.266,0-10.712-3-15.029a.314.314,0,0,1-.024-.319,24.49,24.49,0,0,1,4.673-6.707,4.094,4.094,0,0,1,3.749-1.683,23.828,23.828,0,0,1,3.841.459,28.407,28.407,0,0,0,4.748.538,9.65,9.65,0,0,0,3.685-.651.312.312,0,0,1,.331.06,24.575,24.575,0,0,0,3.3,2.363c2.952,1.89,6.3,4.033,7.394,8.418.009,2-1.55,3.306-3.2,4.695a11.773,11.773,0,0,0-3.028,3.255,11.934,11.934,0,0,0,.292,2.409.317.317,0,0,1-.429.359,16.846,16.846,0,0,0-6.266-1.271,10.748,10.748,0,0,0-10.751,7.839.749.749,0,0,1-.084.339A.45.45,0,0,1,583.012,536.343Zm-4.192-5.437c.519.538,1.187,1.372,1.834,2.181a21.347,21.347,0,0,0,2.223,2.54l.005-.013c2.412-7.237,8.157-8.317,11.367-8.317a17.343,17.343,0,0,1,5.965,1.108,11.548,11.548,0,0,1-.195-2.048.321.321,0,0,1,.034-.142,11.966,11.966,0,0,1,3.22-3.523c1.535-1.291,2.985-2.509,2.985-4.133-1.027-4.065-4.12-6.047-7.112-7.962a26.615,26.615,0,0,1-3.234-2.3,10.4,10.4,0,0,1-3.737.625,28.892,28.892,0,0,1-4.854-.547,23.464,23.464,0,0,0-3.734-.449,3.513,3.513,0,0,0-3.262,1.45,24.028,24.028,0,0,0-4.511,6.421C578.795,520.215,578.82,525.643,578.82,530.906Z" transform="translate(-575.133 -507.296)" fill="#fff"/></g><g transform="translate(362.321 413.232)"><path d="M602.192,540.949c-3.052-3.191-5.68-6.523-6.509-10.454-6.174-2.508-14.537-1.939-17.452,6.805,0,1.56-3.121-3.118-4.678-4.678,0-5.409,0-10.817-3.055-15.21-4.1,8.413-4.334,18.019-13.952,22.926.385,8.221-8.2,11.34-12.623,17.234a2.878,2.878,0,0,0,.157,2.891c5.576-.875,11.447.416,15.244.617,3.929.212,8.629,4.192,10.919,3.12,1.037-.486,2.108-15.253,13.414-20.856,4.012-1.99,10.916-1.2,9.486,1.655-1.066,2.129-5,17.152-2.4,18.453s12.183-9.649,12.045-13.427C602.656,546.485,600.851,545.8,602.192,540.949Z" transform="translate(-543.285 -517.097)" fill="#cad9d7"/><path d="M569.274,564.642a12.605,12.605,0,0,1-4.5-1.485,16.575,16.575,0,0,0-5.532-1.818c-1.09-.058-2.363-.206-3.711-.363a63.444,63.444,0,0,0-7.342-.554,26.438,26.438,0,0,0-4.124.3.316.316,0,0,1-.327-.16,3.2,3.2,0,0,1-.163-3.184,34.455,34.455,0,0,1,5.372-5.334c3.841-3.293,7.469-6.4,7.218-11.743a.316.316,0,0,1,.172-.3c6.81-3.475,8.831-9.328,10.969-15.526a63.827,63.827,0,0,1,2.842-7.256.315.315,0,0,1,.543-.042c3.087,4.444,3.112,9.937,3.112,15.261.519.538,1.187,1.372,1.834,2.181a21.38,21.38,0,0,0,2.223,2.541l.005-.014c2.412-7.237,8.157-8.317,11.367-8.317a17.5,17.5,0,0,1,6.5,1.318.316.316,0,0,1,.19.228c.854,4.045,3.729,7.477,6.429,10.3a.317.317,0,0,1,.076.3,8.764,8.764,0,0,0,.012,5.822,11.637,11.637,0,0,1,.591,3.16c.083,2.291-3,6.727-6.079,9.924-1.142,1.184-3.991,3.936-5.787,3.937h0a1.417,1.417,0,0,1-.636-.141c-3.022-1.513,1.413-17.18,2.263-18.877a1.032,1.032,0,0,0,.02-1.065c-.463-.752-2.059-1.237-4.064-1.237a11.691,11.691,0,0,0-5.019,1.071c-8.543,4.233-11.141,13.723-12.389,18.283-.5,1.823-.674,2.409-1.032,2.576A2.449,2.449,0,0,1,569.274,564.642Zm-21.081-4.853a63.6,63.6,0,0,1,7.416.559c1.338.156,2.6.3,3.671.36a17.264,17.264,0,0,1,5.761,1.873c2.044.936,3.98,1.762,5.008,1.275a12.4,12.4,0,0,0,.69-2.17c1.274-4.65,3.923-14.323,12.718-18.683a12.344,12.344,0,0,1,5.3-1.137c2.288,0,4.008.575,4.6,1.537a1.642,1.642,0,0,1,.006,1.68c-1.308,2.616-4.731,16.934-2.544,18.029a.783.783,0,0,0,.353.073h0c1.062,0,3.105-1.434,5.332-3.743,2.959-3.068,5.975-7.447,5.9-9.463a11.158,11.158,0,0,0-.564-3,9.3,9.3,0,0,1-.063-6c-2.689-2.826-5.517-6.248-6.432-10.312a16.81,16.81,0,0,0-6.112-1.21,10.748,10.748,0,0,0-10.751,7.839c-.025.547-.407.575-.486.576-.512,0-1.226-.828-2.852-2.862-.675-.844-1.373-1.716-1.881-2.223a.317.317,0,0,1-.092-.223c0-5.081,0-10.33-2.694-14.571a68.485,68.485,0,0,0-2.574,6.686c-2.163,6.268-4.206,12.191-11.1,15.79.162,5.527-3.706,8.842-7.447,12.049a34.361,34.361,0,0,0-5.247,5.185,2.482,2.482,0,0,0,.079,2.355A27.375,27.375,0,0,1,548.194,559.789Z" transform="translate(-543.226 -517.038)" fill="#fff"/></g><g transform="translate(397.206 355.526)"><path d="M626.552,483.637c-6.4-8.467-9.79-18.9-8.892-29.211a5.7,5.7,0,0,1-3.3-2.708,10.727,10.727,0,0,1-1.789-2.639c-5.29,4.883-10.7,10.436-18.484,10.436a7.942,7.942,0,0,0-.078-1.13c-4.882,5.559-11.9,10.983-7.719,15.164,5.6,6.717,5.579,14.225,7.426,19.663C604.683,487.568,613.423,481.065,626.552,483.637Z" transform="translate(-584.674 -448.763)" fill="#cad9d7"/><path d="M593.656,493.47a.3.3,0,0,1-.119-.024.32.32,0,0,1-.181-.191,47.9,47.9,0,0,1-1.309-5.136c-.99-4.541-2.112-9.687-6.059-14.425-3.609-3.608.523-7.942,4.9-12.531.949-.995,1.93-2.024,2.826-3.044a.321.321,0,0,1,.329-.094.316.316,0,0,1,.222.258,7.965,7.965,0,0,1,.075.855c6.977-.135,12.012-4.82,16.886-9.353l1.074-1a.316.316,0,0,1,.5.088,10.383,10.383,0,0,0,1.731,2.559,5.534,5.534,0,0,0,3.143,2.624.316.316,0,0,1,.244.335,42.23,42.23,0,0,0,8.829,28.995.315.315,0,0,1,.016.357.306.306,0,0,1-.329.142,29.984,29.984,0,0,0-5.747-.572c-8.178,0-14.883,3.644-21.981,7.5-1.584.861-3.221,1.752-4.9,2.616A.317.317,0,0,1,593.656,493.47Zm.046-34.389c-.766.849-1.574,1.694-2.359,2.519-4.156,4.36-8.081,8.477-4.889,11.668,4.065,4.878,5.2,10.1,6.209,14.716.366,1.679.713,3.273,1.177,4.718,1.557-.808,3.081-1.635,4.558-2.438,7.171-3.9,13.944-7.58,22.283-7.58a30.33,30.33,0,0,1,5.076.439,42.759,42.759,0,0,1-8.5-28.519,6.277,6.277,0,0,1-3.223-2.769,10.072,10.072,0,0,1-1.613-2.3l-.771.714c-5.034,4.683-10.239,9.525-17.626,9.525a.316.316,0,0,1-.316-.316C593.711,459.33,593.708,459.2,593.7,459.08Z" transform="translate(-584.61 -448.704)" fill="#fff"/></g><g transform="translate(405.936 389.539)"><path d="M635.643,510.4a32.126,32.126,0,0,1-1.665-14.037,47.082,47.082,0,0,1-5.8-6.395c-13.129-2.572-21.869,3.931-32.833,9.575a10.412,10.412,0,0,0,3.489,5.289,34.8,34.8,0,0,0,5.091,3.626C614.867,503.485,624.712,513.96,635.643,510.4Z" transform="translate(-595.024 -489.073)" fill="#cad9d7"/><path d="M630.708,511.411c-3.518,0-6.986-1.041-10.339-2.048-3.3-.991-6.7-2.013-10.1-2.013a14.843,14.843,0,0,0-6.277,1.338.316.316,0,0,1-.307-.026c-.476-.319-.955-.625-1.426-.926A21.974,21.974,0,0,1,598.548,505a10.515,10.515,0,0,1-3.567-5.412.316.316,0,0,1,.155-.382c1.672-.862,3.308-1.751,4.889-2.61,7.169-3.9,13.942-7.579,22.281-7.579a30.635,30.635,0,0,1,5.868.584.315.315,0,0,1,.191.12,46.989,46.989,0,0,0,5.766,6.352.319.319,0,0,1,.1.274,31.64,31.64,0,0,0,1.652,13.9.315.315,0,0,1-.018.241.319.319,0,0,1-.184.158A15.813,15.813,0,0,1,630.708,511.411Zm-20.439-4.694c3.489,0,6.942,1.037,10.282,2.04,3.309.993,6.733,2.021,10.157,2.021a15.252,15.252,0,0,0,4.477-.645,32.17,32.17,0,0,1-1.6-13.707,47.583,47.583,0,0,1-5.65-6.23,29.946,29.946,0,0,0-5.628-.55c-8.179,0-14.883,3.644-21.979,7.5-1.508.819-3.064,1.666-4.657,2.49a9.768,9.768,0,0,0,3.29,4.881A21.764,21.764,0,0,0,602.6,507.2c.427.273.86.55,1.292.837A15.481,15.481,0,0,1,610.269,506.717Z" transform="translate(-594.965 -489.014)" fill="#fff"/></g><g transform="translate(414.104 417.214)"><path d="M610.983,522.167c-1.025,2.332-4.622,3.861-5.953,6.525,0,5.09,3.118,9.143,6.809,13,.088-.319.19-.657.307-1.017,1.892-5.792,3.75-4.786,7.345-5.49s6.264,2.55,7.892-.843a52.2,52.2,0,0,1,6.109-8.273A52.431,52.431,0,0,1,610.983,522.167Z" transform="translate(-604.714 -521.852)" fill="#cad9d7"/><path d="M611.78,541.953a.316.316,0,0,1-.228-.1c-3.582-3.748-6.9-7.944-6.9-13.223a.332.332,0,0,1,.033-.142,11.987,11.987,0,0,1,3.215-3.524,9.536,9.536,0,0,0,2.731-2.987.32.32,0,0,1,.412-.164,51.39,51.39,0,0,0,20.048,3.929q1.16,0,2.324-.047a.3.3,0,0,1,.3.18.316.316,0,0,1-.05.346,52.335,52.335,0,0,0-6.06,8.2,2.581,2.581,0,0,1-2.419,1.754,7.993,7.993,0,0,1-2-.371,10.107,10.107,0,0,0-2.679-.464,5.355,5.355,0,0,0-1.022.1c-.662.13-1.275.2-1.815.269-2.452.294-3.8.457-5.29,5.009-.115.354-.216.687-.3,1a.314.314,0,0,1-.228.223A.3.3,0,0,1,611.78,541.953Zm-6.492-13.245c.03,4.838,3.017,8.778,6.342,12.311.049-.162.1-.326.156-.5,1.613-4.937,3.285-5.138,5.816-5.442.555-.067,1.129-.136,1.768-.261a5.964,5.964,0,0,1,1.144-.109,10.784,10.784,0,0,1,2.844.486,7.6,7.6,0,0,0,1.831.349c.583,0,1.259-.165,1.849-1.4a50.35,50.35,0,0,1,5.675-7.8,52.333,52.333,0,0,1-21.635-3.841,11.065,11.065,0,0,1-2.767,2.936A11.8,11.8,0,0,0,605.287,528.709Z" transform="translate(-604.655 -521.793)" fill="#fff"/></g><g transform="translate(414.515 407.263)"><path d="M633.568,524.224a28.735,28.735,0,0,1,5.777-5.246,47.01,47.01,0,0,1-2.1-5.281c-10.931,3.561-20.776-6.914-31.722-1.941,2.5,1.677,4.931,3.713,5.827,7.289a3.12,3.12,0,0,1-.286,1.273A52.431,52.431,0,0,0,633.568,524.224Z" transform="translate(-605.202 -510.074)" fill="#cad9d7"/><path d="M631.171,524.528a52.019,52.019,0,0,1-20.293-3.978.315.315,0,0,1-.166-.419,2.81,2.81,0,0,0,.259-1.146c-.858-3.39-3.241-5.386-5.687-7.027a.316.316,0,0,1,.045-.55,15.5,15.5,0,0,1,6.539-1.393c3.489,0,6.942,1.037,10.282,2.04,3.31.993,6.733,2.021,10.158,2.021a15.183,15.183,0,0,0,4.778-.739.315.315,0,0,1,.4.2,46.619,46.619,0,0,0,2.088,5.246.315.315,0,0,1-.119.4,27.8,27.8,0,0,0-5.707,5.187.321.321,0,0,1-.223.106Q632.344,524.529,631.171,524.528Zm-19.762-4.442a52.065,52.065,0,0,0,21.952,3.768,29.168,29.168,0,0,1,5.521-5.053,47.4,47.4,0,0,1-1.9-4.77,15.861,15.861,0,0,1-4.674.676c-3.518,0-6.986-1.041-10.339-2.048-3.3-.99-6.7-2.013-10.1-2.013a14.883,14.883,0,0,0-5.756,1.112c2.379,1.652,4.619,3.7,5.482,7.15A3.325,3.325,0,0,1,611.409,520.087Z" transform="translate(-605.143 -510.015)" fill="#fff"/></g><g transform="translate(429.732 351.82)"><path d="M652.965,451.97c-2.269-4.569-6.057-7.179-10.716-7.179-7.716-1.286-13.311,10.143-18.535,8.945-1.141,13.1,4.623,26.407,14.7,35.606.9-7.026,4.807-13.466,13.195-18.041C655.184,468.917,652.391,460.15,652.965,451.97Z" transform="translate(-623.254 -444.374)" fill="#cad9d7"/><path d="M638.352,489.6a.32.32,0,0,1-.213-.082c-10.4-9.493-15.929-22.9-14.8-35.867a.32.32,0,0,1,.129-.228.306.306,0,0,1,.257-.052,3.255,3.255,0,0,0,.715.079c2.037,0,4.254-1.89,6.6-3.89,2.885-2.458,6.156-5.244,9.929-5.244a7.638,7.638,0,0,1,1.27.105h.012c4.679,0,8.581,2.611,10.935,7.35a.314.314,0,0,1,.032.164,60.516,60.516,0,0,0,.237,8.713c.378,4.953.7,9.233-1.736,10.859-7.7,4.2-12.083,10.191-13.057,17.819a.316.316,0,0,1-.2.256A.324.324,0,0,1,638.352,489.6Zm-14.41-35.55c-.971,12.48,4.305,25.343,14.181,34.591,1.151-7.552,5.613-13.5,13.272-17.675,2.108-1.407,1.795-5.515,1.432-10.271a61.606,61.606,0,0,1-.243-8.72c-2.247-4.467-5.935-6.927-10.395-6.927a7.674,7.674,0,0,0-1.217-.1c-3.54,0-6.718,2.706-9.52,5.093C628.834,452.272,626.339,454.36,623.942,454.05Z" transform="translate(-623.195 -444.315)" fill="#fff"/></g><g transform="translate(444.39 359.119)"><path d="M669.568,493.246c-5.95-8.392.363-15.651,2.513-26.169a20.894,20.894,0,0,1,4.785-9.866,11.532,11.532,0,0,1-2.258-1.708c-4.677-1.559-7.8,0-10.915,4.678-1.56,1.56-3.121-3.118-6.239-1.56a21.346,21.346,0,0,0-1.759-5.3c-.574,8.18,2.219,16.947-1.359,19.332-9.294,5.069-13.089,12.428-13.378,20.341,8.947,8.554,23.162,7.482,35.734,10.6C675.3,501.232,672.821,497.832,669.568,493.246Z" transform="translate(-640.643 -453.01)" fill="#cad9d7"/><path d="M676.634,503.859a.334.334,0,0,1-.077-.009,116.246,116.246,0,0,0-11.5-2.039c-9.271-1.325-18.027-2.578-24.372-8.643a.315.315,0,0,1-.1-.24c.323-8.825,5-15.95,13.542-20.606,2.108-1.407,1.795-5.515,1.432-10.271a60.973,60.973,0,0,1-.237-8.806.316.316,0,0,1,.6-.118,21.486,21.486,0,0,1,1.707,4.992,3.01,3.01,0,0,1,1.044-.194,4.757,4.757,0,0,1,2.894,1.388c.516.421,1,.818,1.379.818a.632.632,0,0,0,.467-.232c2.451-3.689,4.9-5.354,7.9-5.354a10.5,10.5,0,0,1,3.34.6.317.317,0,0,1,.125.076,11.029,11.029,0,0,0,2.2,1.661.317.317,0,0,1,.074.48,20.763,20.763,0,0,0-4.713,9.719,63.6,63.6,0,0,1-2.585,8.631c-2.187,6.179-4.075,11.515.021,17.292l1.611,2.264c2.443,3.432,4.372,6.142,5.528,8.114a.316.316,0,0,1-.272.476Zm-35.412-11.051c6.191,5.842,14.8,7.073,23.922,8.377,3.582.512,7.277,1.04,10.828,1.874-1.165-1.885-2.933-4.367-5.108-7.422l-1.611-2.267c-4.286-6.043-2.348-11.523-.1-17.867a63.105,63.105,0,0,0,2.563-8.547,21.458,21.458,0,0,1,4.612-9.728,11.5,11.5,0,0,1-1.945-1.506,9.859,9.859,0,0,0-3.071-.545c-2.764,0-5.05,1.58-7.411,5.122-.89.914-1.754.3-2.733-.495a4.21,4.21,0,0,0-2.494-1.246,2.51,2.51,0,0,0-1.133.288.316.316,0,0,1-.452-.22,22.054,22.054,0,0,0-1.2-4.033,70.6,70.6,0,0,0,.3,7.41c.378,4.953.7,9.233-1.736,10.859C646.025,477.459,641.583,484.165,641.222,492.808Z" transform="translate(-640.584 -452.951)" fill="#fff"/></g><g transform="translate(444.372 398.857)"><path d="M640.956,500.389a37.436,37.436,0,0,0,3.951,17.019c1.832-1.135,3.482-1.468,4.6-.324,3.577,3.662-.819,9.524-4.46,10.955s-3.969,6.2-3.109,12.68-.211,8.464,2.206,7.946,5.771-7.408,7.626-8.609,5.316-.83,8.373-2.24,1.078-12.8,5.062-18.014,11.219-3.626,12.469-4.975c.566-.613.169-1.869-.985-3.834C664.118,507.871,649.9,508.943,640.956,500.389Z" transform="translate(-640.621 -500.072)" fill="#cad9d7"/><path d="M643.462,549h0c-1.328,0-1.381-1.133-1.487-3.391-.056-1.195-.133-2.831-.409-4.908-.731-5.505-.91-11.358,3.308-13.015a9.925,9.925,0,0,0,5.463-6.348,4.256,4.256,0,0,0-1.114-4.092c-.918-.94-2.319-.8-4.208.372a.315.315,0,0,1-.256.035.312.312,0,0,1-.2-.169,37.8,37.8,0,0,1-3.982-17.165.32.32,0,0,1,.2-.282.316.316,0,0,1,.337.064c6.2,5.926,14.857,7.163,24.025,8.474a117.348,117.348,0,0,1,11.566,2.051.316.316,0,0,1,.2.148c1.317,2.242,1.6,3.5.946,4.209-.5.538-1.6.662-3.12.833-2.854.32-6.762.76-9.331,4.12-2.021,2.644-2.469,6.943-2.864,10.734-.386,3.7-.69,6.625-2.317,7.375a17.722,17.722,0,0,1-4.741,1.226,9.691,9.691,0,0,0-3.593.992,16.1,16.1,0,0,0-2.807,3.466c-1.664,2.388-3.385,4.857-4.925,5.187A3.331,3.331,0,0,1,643.462,549Zm4.28-33a2.608,2.608,0,0,1,1.934.806,4.915,4.915,0,0,1,1.281,4.665,10.467,10.467,0,0,1-5.852,6.8c-3.031,1.192-3.9,4.884-2.911,12.345.278,2.1.357,3.755.413,4.961.11,2.332.19,2.789.856,2.789h0a2.705,2.705,0,0,0,.557-.071c1.3-.277,3.019-2.75,4.539-4.93a15.733,15.733,0,0,1,2.982-3.635,10.22,10.22,0,0,1,3.839-1.087,17.155,17.155,0,0,0,4.573-1.176c1.3-.6,1.618-3.642,1.954-6.865.4-3.875.861-8.268,2.991-11.054,2.732-3.573,6.961-4.049,9.762-4.363,1.28-.145,2.388-.27,2.726-.635.405-.438.091-1.533-.96-3.344-3.7-.91-7.6-1.468-11.374-2.007-9.021-1.29-17.555-2.509-23.854-8.163a37.57,37.57,0,0,0,3.79,15.859A5.713,5.713,0,0,1,647.742,516Z" transform="translate(-640.563 -500.013)" fill="#fff"/></g><g transform="translate(343.751 357.232)"><path d="M524.583,474.489c13.568,8.141,26.279,2.291,30.5-15.233-2.96-.594-5.137-3.079-6.526-6.189-5.556,3.233-11.8,7.9-16.667,6.964-4.075-.789-5.455-4.826-5.207-8.908C519.464,455.487,520.978,472.086,524.583,474.489Z" transform="translate(-521.255 -450.805)" fill="#cad9d7"/><path d="M536.237,478.358h0a23.15,23.15,0,0,1-11.874-3.658c-1.921-1.28-3.274-6.191-3.159-11.431.062-2.833.7-9.722,5.253-12.478a.316.316,0,0,1,.48.29c-.107,1.766-.067,7.607,4.952,8.579a6.681,6.681,0,0,0,1.265.117c3.658,0,8-2.665,12.2-5.244,1.008-.619,2.006-1.232,2.984-1.8a.311.311,0,0,1,.255-.027.317.317,0,0,1,.192.171c1.062,2.378,3.017,5.35,6.3,6.008a.322.322,0,0,1,.2.14.315.315,0,0,1,.04.244C552.451,471.222,545.316,478.358,536.237,478.358Zm-9.958-26.688c-3.83,2.79-4.387,9-4.444,11.614-.109,4.959,1.149,9.74,2.864,10.882a22.514,22.514,0,0,0,11.536,3.56c8.819,0,15.514-6.661,18.4-18.291-3.207-.8-5.167-3.6-6.284-5.977-.877.515-1.77,1.064-2.67,1.617-4.274,2.623-8.693,5.337-12.53,5.337a7.335,7.335,0,0,1-1.386-.128C528.2,459.59,526.171,456.39,526.279,451.67Z" transform="translate(-521.196 -450.746)" fill="#fff"/></g><g transform="translate(422.639 317.145)"><path d="M678.095,444.71c.389-1.038-1.039-4.974-.185-10.919s3.438-18.979-2.422-24.157a6.714,6.714,0,0,1-1.125-1.317c-7.1,2.823-13.059-4.884-23.4-4.692.241,3.159,3.241,7.024.88,8.206-6.239,3.119-15.595,0-20.273-3.118-.051-.051-.1-.107-.144-.161-3.182,7.354-4.876,15.924-13.891,20.433-4.678,1.559-1.559,12.475,1.56,15.594,6.236,9.357,12.475-7.8,21.831-6.238,6.239,0,10.917,4.678,12.475,12.475,3.118-1.559,4.678,3.12,6.239,1.56,3.118-4.678,6.238-6.237,10.915-4.678a11.532,11.532,0,0,0,2.258,1.708C675.346,446.53,677.874,445.3,678.095,444.71Z" transform="translate(-614.839 -403.305)" fill="#cad9d7"/><path d="M658.891,452.957a3.156,3.156,0,0,1-1.779-.959,4.21,4.21,0,0,0-2.494-1.246,2.51,2.51,0,0,0-1.133.288.316.316,0,0,1-.452-.22c-1.529-7.653-6.077-12.221-12.165-12.221a7.666,7.666,0,0,0-1.217-.1c-3.54,0-6.718,2.709-9.52,5.1-2.439,2.081-4.743,4.046-7.013,4.046-1.6,0-3.021-.964-4.344-2.949-2.411-2.4-4.707-9.234-3.787-13.133a3.753,3.753,0,0,1,2.39-2.936c7.236-3.622,9.692-10,12.066-16.176.519-1.352,1.058-2.75,1.634-4.083a.315.315,0,0,1,.523-.087l.135.151a27.646,27.646,0,0,0,13.959,4.317h0a13.208,13.208,0,0,0,5.947-1.259c1.167-.583.752-2-.069-4.254a14.329,14.329,0,0,1-.985-3.645.318.318,0,0,1,.081-.237.314.314,0,0,1,.228-.1l.387,0c4.745,0,8.592,1.635,11.987,3.078,2.711,1.152,5.272,2.241,7.788,2.241h0a8.3,8.3,0,0,0,3.125-.6.319.319,0,0,1,.379.118,6.4,6.4,0,0,0,1.072,1.257c5.505,4.865,3.79,16.114,2.765,22.836-.089.577-.17,1.114-.24,1.6a30.031,30.031,0,0,0,.089,8.6,6.167,6.167,0,0,1,.081,2.38c-.121.32-.544.635-1.312,1.206a24.733,24.733,0,0,0-4.029,3.588.318.318,0,0,1-.4.062,12.187,12.187,0,0,1-2.264-1.7,9.859,9.859,0,0,0-3.071-.545c-2.764,0-5.05,1.58-7.411,5.122A1.3,1.3,0,0,1,658.891,452.957Zm-4.273-2.837a4.755,4.755,0,0,1,2.895,1.388c.515.42,1,.817,1.378.817a.632.632,0,0,0,.467-.232c2.451-3.689,4.9-5.354,7.9-5.354a10.5,10.5,0,0,1,3.34.6.317.317,0,0,1,.125.076,10.6,10.6,0,0,0,1.973,1.524,25.639,25.639,0,0,1,3.95-3.479,5.618,5.618,0,0,0,1.1-.921,6.706,6.706,0,0,0-.115-2.076,30.62,30.62,0,0,1-.088-8.777c.07-.49.153-1.028.241-1.608.94-6.16,2.689-17.63-2.558-22.267a6.753,6.753,0,0,1-1.035-1.169,8.926,8.926,0,0,1-3.122.554h0c-2.645,0-5.263-1.113-8.035-2.291-3.339-1.419-7.124-3.027-11.74-3.027h-.03a15.964,15.964,0,0,0,.911,3.14c.779,2.138,1.515,4.158-.241,5.036a13.842,13.842,0,0,1-6.23,1.326h0a28.306,28.306,0,0,1-14.207-4.364c-.509,1.2-.989,2.45-1.455,3.661-2.418,6.284-4.918,12.783-12.415,16.531a3.134,3.134,0,0,0-2.015,2.5c-.879,3.723,1.315,10.248,3.657,12.588,1.236,1.844,2.485,2.716,3.857,2.716,2.037,0,4.254-1.892,6.6-3.9,2.886-2.461,6.158-5.252,9.93-5.252a7.638,7.638,0,0,1,1.27.105h.009c6.253,0,10.977,4.606,12.644,12.343A3.01,3.01,0,0,1,654.618,450.12Z" transform="translate(-614.781 -403.246)" fill="#fff"/></g><g transform="translate(474.663 213.401)"><path d="M698.963,345.753c3.683-5.526,8.454-6.685,13.029-6.079.923-1.438,1.773-2.69,2.441-3.594,2.536-3.431,7.662-24.894,0-39.045-2.615-4.828-5.586-10.577-8.338-16.287-6.323,2.665-18.534,3.06-22.946,1.713-2.958,13.3-3.358,26.6-6.019,39.9-1.492,7.463,4.131,14.923.517,21.018C684.933,348.11,693.645,353.728,698.963,345.753Z" transform="translate(-676.555 -280.433)" fill="#cad9d7"/><path d="M691.983,350.014h0c-4.665,0-9.926-3.416-14.567-6.428a.316.316,0,0,1-.1-.427c1.947-3.285,1.114-7.024.233-10.982-.719-3.226-1.463-6.562-.788-9.937,1.246-6.227,2.008-12.564,2.746-18.692.836-6.95,1.7-14.138,3.275-21.215a.317.317,0,0,1,.4-.233,27.727,27.727,0,0,0,7.222.739c4.7,0,11.238-.641,15.51-2.441a.318.318,0,0,1,.407.154c2.508,5.205,5.466,10.985,8.331,16.273,7.68,14.186,2.527,35.935-.024,39.384-.662.894-1.5,2.131-2.429,3.577a.327.327,0,0,1-.308.142c-5.357-.71-9.622,1.284-12.724,5.94A8.363,8.363,0,0,1,691.983,350.014Zm-13.973-6.8c4.506,2.924,9.576,6.164,13.973,6.164a7.668,7.668,0,0,0,6.658-3.863c3.2-4.807,7.607-6.913,13.134-6.241.892-1.386,1.7-2.574,2.344-3.444,2.5-3.383,7.537-24.742-.024-38.707-2.82-5.207-5.73-10.888-8.216-16.031-4.357,1.749-10.818,2.376-15.476,2.376a29.778,29.778,0,0,1-7.077-.673c-1.522,6.94-2.371,14-3.193,20.825-.738,6.14-1.5,12.489-2.752,18.741-.649,3.243.08,6.513.785,9.675C679.053,336.021,679.892,339.788,678.01,343.219Z" transform="translate(-676.496 -280.374)" fill="#fff"/></g><g transform="translate(226.968 465.616)"><path d="M415.22,585.093c-2.9-.918-7.573-.611-10.159-2.355-3.086-2.08-4.739-4.491-12.276-2.482-6.926,1.85-6.208,7.06-9.752,10.275C392.586,594.735,404.984,590.779,415.22,585.093Z" transform="translate(-382.716 -579.186)" fill="#cad9d7"/><path d="M391.913,592.544h0a22.392,22.392,0,0,1-9.066-1.783.315.315,0,0,1-.085-.523,12.718,12.718,0,0,0,2.66-3.916c1.307-2.562,2.659-5.211,7.223-6.43a19.545,19.545,0,0,1,4.972-.765c3.054,0,4.664,1.184,6.369,2.439.384.281.775.569,1.193.851,1.529,1.031,3.856,1.321,6.106,1.6a23.365,23.365,0,0,1,3.972.714.317.317,0,0,1,.058.578C409.375,588.61,400.492,592.544,391.913,592.544Zm-8.376-2.176a22,22,0,0,0,8.375,1.543h0c8.121,0,16.549-3.6,22.409-6.777-.933-.217-2-.35-3.116-.489-2.324-.29-4.727-.589-6.381-1.705-.426-.287-.824-.579-1.214-.866-1.689-1.243-3.148-2.316-6-2.316a18.927,18.927,0,0,0-4.808.744c-4.292,1.146-5.521,3.556-6.823,6.106A14.511,14.511,0,0,1,383.536,590.369Z" transform="translate(-382.657 -579.127)" fill="#fff"/></g><g transform="translate(173.646 474.134)"><path d="M377.91,599.373a18.866,18.866,0,0,1-1.7-6.224,19.757,19.757,0,0,1-3.107-1.044,7.752,7.752,0,0,1-1.035.807c-4.78,3.069-14,5.877-17.331,3.992s-2.273-9.407-7.131-6.852-7.4,10.054-10.051,14.4-9.53,7.226-12.884,8.331-6.272,3.29-4.192,4.849,9.892,2.859,8.065,7.537c-1.11,2.843.4,9.227,2.568,13.922C341.172,620.359,354.173,597.094,377.91,599.373Z" transform="translate(-319.461 -589.215)" fill="#cad9d7"/><path d="M331.047,639.348h-.009a.316.316,0,0,1-.277-.184c-2.128-4.616-3.754-11.151-2.575-14.17,1.233-3.157-2.409-4.669-5.335-5.885a13.47,13.47,0,0,1-2.625-1.284,1.689,1.689,0,0,1-.8-1.672c.262-1.6,2.9-3.01,5.086-3.729,1.612-.531,9.8-3.424,12.712-8.2.688-1.126,1.369-2.469,2.091-3.89,2.066-4.073,4.408-8.689,8.084-10.623a4.133,4.133,0,0,1,1.895-.56c1.76,0,2.423,1.75,3.124,3.6.579,1.53,1.178,3.112,2.414,3.813a5.916,5.916,0,0,0,2.862.569h0c4.356,0,10.733-2.364,14.143-4.553a7.444,7.444,0,0,0,.992-.775.321.321,0,0,1,.341-.056,19.271,19.271,0,0,0,3.057,1.028.316.316,0,0,1,.237.276,18.477,18.477,0,0,0,1.677,6.121.316.316,0,0,1-.029.315.322.322,0,0,1-.288.132c-1.064-.1-2.129-.154-3.169-.154-21.99,0-34.322,22.951-43.326,39.708A.316.316,0,0,1,331.047,639.348Zm18.243-49.56a3.6,3.6,0,0,0-1.6.487c-3.5,1.84-5.791,6.36-7.814,10.349-.727,1.433-1.414,2.787-2.114,3.934-2.952,4.835-10.738,7.7-13.055,8.467-2.571.847-4.487,2.175-4.66,3.23a1.1,1.1,0,0,0,.559,1.065,13.523,13.523,0,0,0,2.488,1.206c3.014,1.251,7.141,2.965,5.682,6.7-1.029,2.637.335,8.587,2.3,13.093,9.053-16.844,21.459-39.475,43.579-39.475.884,0,1.786.037,2.691.11a18.92,18.92,0,0,1-1.489-5.61,19.955,19.955,0,0,1-2.755-.925,7.705,7.705,0,0,1-.924.7c-3.561,2.287-9.954,4.652-14.485,4.653h0a6.5,6.5,0,0,1-3.173-.652c-1.436-.812-2.1-2.579-2.695-4.139C351.174,591.268,350.613,589.788,349.29,589.788Z" transform="translate(-319.402 -589.156)" fill="#fff"/></g><g transform="translate(184.976 483.993)"><path d="M380.021,601.178c-23.737-2.279-36.738,20.986-46.8,39.718,1.4,3.032,3.063,5.367,4.476,5.57,3.6.52,7.607,3.639,10.413-4.548s5.456-7.572,7.576-10.349,7.258-9.612,11.476-10.7c7.559-1.956,15.205-2.051,18.649,1.249s2.355,9.407,5.628,8.5c2.789-.775,2.738-8.9,5.478-13.337C389.845,612.822,383.117,607.877,380.021,601.178Z" transform="translate(-332.901 -600.706)" fill="#cad9d7"/><path d="M342.661,647.737a11.976,11.976,0,0,1-3.079-.558,16.8,16.8,0,0,0-1.992-.459c-1.927-.276-3.783-3.721-4.719-5.751a.318.318,0,0,1,.009-.282c9.08-16.9,21.515-40.041,43.883-40.041,1.06,0,2.145.053,3.229.158a.317.317,0,0,1,.257.182c3.091,6.686,9.888,11.623,16.772,15.961a.316.316,0,0,1,.1.434,25.853,25.853,0,0,0-2.449,7.014c-.795,3.209-1.481,5.981-3.213,6.461a2.606,2.606,0,0,1-.695.1h0c-1.536,0-2.031-1.626-2.6-3.51a11.35,11.35,0,0,0-2.633-5.167c-1.728-1.656-4.73-2.532-8.681-2.532a39.574,39.574,0,0,0-9.67,1.361c-4.023,1.041-9.028,7.6-11.165,10.408l-.139.181a10.275,10.275,0,0,1-2.13,2c-1.629,1.246-3.475,2.659-5.4,8.265C346.978,645.956,345.224,647.737,342.661,647.737Zm-9.15-6.89c1.458,3.123,3.012,5.081,4.168,5.246a17.681,17.681,0,0,1,2.068.475,11.562,11.562,0,0,0,2.913.536c1.516,0,3.463-.608,5.087-5.349,1.985-5.787,3.911-7.26,5.612-8.561a9.849,9.849,0,0,0,2.011-1.877l.138-.182c2.177-2.853,7.275-9.54,11.51-10.636a40.229,40.229,0,0,1,9.829-1.381c4.117,0,7.27.937,9.117,2.708a12,12,0,0,1,2.8,5.44c.594,1.955.98,3.061,2,3.061h0a2.014,2.014,0,0,0,.526-.079c1.376-.382,2.053-3.113,2.768-6a27.806,27.806,0,0,1,2.365-6.927c-6.822-4.315-13.519-9.235-16.672-15.9-1-.091-2.009-.137-2.989-.137C354.833,601.279,342.509,624.1,333.511,640.848Z" transform="translate(-332.842 -600.647)" fill="#fff"/></g><g transform="translate(230.074 471.237)"><path d="M417.275,586.809a5.08,5.08,0,0,0-1.476-.674c-9.16,5.089-20.045,8.772-29.081,6.482.938,10.059,9.5,16.59,18.6,22.32a6.657,6.657,0,0,1,1.7-1.929c4.555-3.308,12.45-5.262,13.7-8.058S419.744,588.618,417.275,586.809Z" transform="translate(-386.401 -585.818)" fill="#cad9d7"/><path d="M405.255,615.194a.315.315,0,0,1-.169-.049c-8.552-5.388-17.759-12.021-18.742-22.558a.316.316,0,0,1,.393-.336,23.57,23.57,0,0,0,5.777.685c8.452,0,17.212-3.881,23.073-7.137a.307.307,0,0,1,.248-.025,5.264,5.264,0,0,1,1.569.722c2.634,1.93,4.842,15.589,3.533,18.523-.764,1.715-3.647,3.031-6.985,4.557a40.769,40.769,0,0,0-6.813,3.628,6.28,6.28,0,0,0-1.614,1.839.315.315,0,0,1-.2.142A.289.289,0,0,1,405.255,615.194ZM387.02,592.971c1.16,9.89,9.912,16.27,18.138,21.472a6.61,6.61,0,0,1,1.608-1.75A41.26,41.26,0,0,1,413.689,609c3.087-1.41,6-2.743,6.67-4.238,1.157-2.6-.97-16.028-3.331-17.758a4.4,4.4,0,0,0-1.255-.587c-5.925,3.279-14.729,7.15-23.26,7.15A24.483,24.483,0,0,1,387.02,592.971Z" transform="translate(-386.342 -585.759)" fill="#fff"/></g><g transform="translate(96.067 546.137)"><path d="M237.031,674.742c-1.879,1.88-3.768,3.631-5.357,5.2-5.535,5.451-.669,14.79.518,18.518s-10.574,9.745,0,15.918,5.4-17.217,15.553-16.892c9.154.292-6.52,29.119,0,27.094,15.392-4.775,8.081-14.131,11.785-16.275,2.353-1.36,3.1,1.168,4.573,2.843C259.814,695.959,252.15,680.563,237.031,674.742Z" transform="translate(-227.429 -674.426)" fill="#cad9d7"/><path d="M247.1,724.935a1.186,1.186,0,0,1-.987-.468c-.952-1.264-.008-4.786,1.61-10.429,1.647-5.747,3.7-12.9,1.892-15.376a2.319,2.319,0,0,0-1.936-.922l-.2,0c-4.444,0-5.712,4.957-6.937,9.751-1.076,4.207-2.091,8.181-5.3,8.181a6.636,6.636,0,0,1-3.266-1.08c-2.628-1.533-4.1-3.164-4.495-4.983-.552-2.529,1.1-4.873,2.548-6.943,1.108-1.577,2.156-3.068,1.8-4.169-.173-.542-.424-1.2-.716-1.972-1.716-4.517-4.588-12.077.276-16.868.681-.671,1.417-1.376,2.183-2.111,1.022-.979,2.1-2.01,3.172-3.084a.314.314,0,0,1,.336-.071c12.775,4.917,21.693,16.893,27.265,36.611a.316.316,0,0,1-.541.3,14.141,14.141,0,0,1-.974-1.291c-.684-.984-1.275-1.833-2.13-1.833a2.177,2.177,0,0,0-1.074.345c-1.063.615-1.089,2-1.122,3.764-.07,3.69-.175,9.267-10.728,12.541A2.334,2.334,0,0,1,247.1,724.935Zm.382-27.831.217,0a2.949,2.949,0,0,1,2.427,1.182c1.988,2.728-.023,9.738-1.8,15.923-1.24,4.326-2.523,8.8-1.712,9.875.184.244.5.277.978.128,10.117-3.138,10.213-8.231,10.283-11.949.035-1.88.066-3.5,1.437-4.3a2.778,2.778,0,0,1,1.391-.43c1.135,0,1.834.935,2.552,1.964-5.51-18.424-14.1-29.7-26.208-34.449-1.028,1.024-2.056,2.01-3.035,2.948-.765.732-1.5,1.435-2.177,2.1-4.571,4.5-1.79,11.82-.129,16.193.3.776.549,1.446.727,2,.446,1.4-.636,2.941-1.89,4.725-1.379,1.962-2.942,4.187-2.449,6.444.358,1.637,1.731,3.132,4.2,4.571a6.13,6.13,0,0,0,2.947.994c2.721,0,3.677-3.743,4.69-7.7C241.156,702.537,242.544,697.1,247.48,697.1Z" transform="translate(-227.37 -674.367)" fill="#fff"/></g><g transform="translate(105.353 506.881)"><path d="M271.495,637.344c0-11.379-18.158-11.079-28.451-5.021,2.516,6.256,4.753,14.98,4.864,19.42.139,5.539-4.478,11.02-9.147,15.686a34.657,34.657,0,0,1,12.131,7.982C262.363,665.079,272.938,653.216,271.495,637.344Z" transform="translate(-238.445 -627.857)" fill="#cad9d7"/><path d="M250.833,675.668a.314.314,0,0,1-.223-.093,34.493,34.493,0,0,0-12.021-7.91.316.316,0,0,1-.11-.518c4.288-4.286,9.193-9.915,9.054-15.454-.107-4.279-2.279-12.941-4.841-19.311a.317.317,0,0,1,.132-.39,32.4,32.4,0,0,1,15.757-4.193c8.247,0,13.17,3.547,13.17,9.488,1.452,15.957-9.094,27.841-20.707,38.3A.314.314,0,0,1,250.833,675.668Zm-11.567-8.415a35.106,35.106,0,0,1,11.577,7.663c11.4-10.3,21.7-21.995,20.278-37.6,0-5.574-4.689-8.884-12.54-8.884a31.827,31.827,0,0,0-15.2,3.97c2.542,6.4,4.678,14.993,4.785,19.276C248.306,657.281,243.8,662.678,239.266,667.253Z" transform="translate(-238.386 -627.798)" fill="#fff"/></g><g transform="translate(117.484 519.037)"><path d="M253.152,677.676c7.454,7.458,11.995,17.989,14.942,28.42a3.314,3.314,0,0,0,3.717,1.15c4.879-1.368,14.133-39.576,17.379-44.683,1.752-2.757,5.154-7.276,7.656-12.163-7.618-.965-14.383-7.421-22.962-7.806C273.844,656.984,263.891,668,253.152,677.676Z" transform="translate(-252.836 -642.278)" fill="#cad9d7"/><path d="M270.625,707.67h0a3.7,3.7,0,0,1-2.826-1.424.31.31,0,0,1-.067-.124c-3.556-12.584-8.418-21.835-14.862-28.282a.315.315,0,0,1,.012-.458c10.69-9.631,20.588-20.518,20.628-34.848a.315.315,0,0,1,.1-.228.346.346,0,0,1,.232-.087c4.7.211,8.855,2.214,12.87,4.152,3.43,1.656,6.67,3.219,10.118,3.656a.318.318,0,0,1,.242.458,89.468,89.468,0,0,1-5.862,9.482c-.7,1.021-1.317,1.933-1.808,2.707-1.206,1.9-3.273,8.5-5.667,16.146-4.927,15.737-8.931,27.841-11.894,28.672A4.512,4.512,0,0,1,270.625,707.67Zm-2.3-1.79a2.97,2.97,0,0,0,2.3,1.157h0a3.869,3.869,0,0,0,1.042-.155c2.869-.8,7.835-16.669,11.462-28.253,2.408-7.688,4.486-14.329,5.737-16.3.494-.779,1.119-1.7,1.82-2.724a92.285,92.285,0,0,0,5.617-9.019c-3.381-.521-6.535-2.043-9.868-3.652-3.862-1.865-7.854-3.791-12.3-4.072-.19,14.3-9.968,25.162-20.589,34.761C259.945,684.132,264.779,693.378,268.32,705.88Z" transform="translate(-252.777 -642.219)" fill="#fff"/></g><g transform="translate(82.461 495.633)"><path d="M213.54,615.022c-3.213,4.472-1.874,15.068-.069,20.189,2.212,6.276,12.628,10.4,17.159,12.021s1.318-5.52-.973-11.173a11.178,11.178,0,0,1-.84-3.982C221.978,628.545,217.247,621.783,213.54,615.022Z" transform="translate(-211.287 -614.704)" fill="#cad9d7"/><path d="M231.689,647.723h0a3.7,3.7,0,0,1-1.225-.252c-9.767-3.5-15.766-7.72-17.349-12.214-1.965-5.574-3.056-16.072.11-20.479a.3.3,0,0,1,.276-.132.315.315,0,0,1,.257.164c2.99,5.453,7.813,13.139,15.145,16.927a.313.313,0,0,1,.171.274,10.9,10.9,0,0,0,.818,3.87l.491,1.205c1.72,4.208,3.5,8.559,2.488,10.066A1.335,1.335,0,0,1,231.689,647.723Zm-18.232-32.15c-2.689,4.461-1.6,14.2.254,19.473,1.518,4.308,7.385,8.4,16.966,11.828a3.126,3.126,0,0,0,1.012.216h0a.7.7,0,0,0,.658-.291c.824-1.227-1.046-5.8-2.548-9.474l-.492-1.208a11.546,11.546,0,0,1-.858-3.906C221.259,628.424,216.482,621.022,213.458,615.573Z" transform="translate(-211.229 -614.645)" fill="#fff"/></g><g transform="translate(84.397 488.628)"><path d="M241.081,618.384c0-6.317-6.142-8.541-11.791-11.646-4.7,2.769-7.244,3.957-12.471,5.018a4.671,4.671,0,0,0-2.917,1.965c3.707,6.761,8.438,13.523,15.276,17.055a10.572,10.572,0,0,1,4.6-8.87c.95-.635,2.175.624,3.445,2.921C239.831,623.137,242.27,620.763,241.081,618.384Z" transform="translate(-213.586 -606.423)" fill="#cad9d7"/><path d="M229.119,631.033a.315.315,0,0,1-.145-.035c-7.486-3.867-12.379-11.659-15.408-17.184a.315.315,0,0,1,.02-.336,4.984,4.984,0,0,1,3.111-2.09c5.124-1.041,7.583-2.156,12.373-4.981a.323.323,0,0,1,.313-.005c.76.418,1.53.82,2.292,1.218,4.947,2.585,9.622,5.027,9.662,10.632.995,2.1-.387,4.44-4,6.781a.308.308,0,0,1-.248.041.314.314,0,0,1-.2-.153c-1.405-2.542-2.262-2.922-2.647-2.922a.611.611,0,0,0-.346.11,10.207,10.207,0,0,0-4.459,8.6.316.316,0,0,1-.316.323Zm-14.9-17.346c2.933,5.324,7.591,12.682,14.587,16.5a10.865,10.865,0,0,1,4.737-8.607c1-.674,2.281.2,3.73,2.733,2.248-1.506,4.548-3.687,3.466-5.85a.32.32,0,0,1-.033-.142c0-5.274-4.529-7.64-9.324-10.144-.713-.373-1.432-.749-2.144-1.138-4.681,2.752-7.3,3.925-12.414,4.964A4.324,4.324,0,0,0,214.218,613.688Z" transform="translate(-213.527 -606.364)" fill="#fff"/></g><g transform="translate(99.786 477.41)"><path d="M269.791,603.824c-4.329-3.482-5.33-8.4-10.25-9.853-7.6-2.246-14.619,3.026-22.741,7.9-1.8,1.082-3.3,1.99-4.643,2.779,5.649,3.105,11.791,5.329,11.791,11.646,1.189,2.379-1.249,4.753-3.858,6.442a37.46,37.46,0,0,1,1.918,4.131,32.113,32.113,0,0,1,16.446-4.13C257.966,615.368,263.927,608.88,269.791,603.824Z" transform="translate(-231.841 -593.122)" fill="#cad9d7"/><path d="M241.948,627.125a.3.3,0,0,1-.1-.018.313.313,0,0,1-.191-.181,37.076,37.076,0,0,0-1.9-4.094.315.315,0,0,1,.1-.418c2.332-1.51,4.874-3.782,3.747-6.036a.32.32,0,0,1-.033-.142c0-5.274-4.529-7.64-9.324-10.144-.765-.4-1.538-.805-2.3-1.225a.317.317,0,0,1-.008-.55c1.041-.613,2.181-1.3,3.482-2.081l1.159-.7c.977-.587,1.939-1.179,2.888-1.763,5.6-3.453,10.9-6.714,16.329-6.714a13.29,13.29,0,0,1,3.776.546c3.035.9,4.63,3.069,6.32,5.368a22.692,22.692,0,0,0,4.039,4.542.314.314,0,0,1,.118.24.318.318,0,0,1-.11.245c-5.061,4.364-11.732,11.046-11.229,18.655a.315.315,0,0,1-.089.24.326.326,0,0,1-.238.1,31.609,31.609,0,0,0-16.275,4.086A.318.318,0,0,1,241.948,627.125Zm-1.5-4.343a37.845,37.845,0,0,1,1.656,3.571,32.571,32.571,0,0,1,15.956-4c-.3-7.6,6.133-14.193,11.182-18.583a24.224,24.224,0,0,1-3.861-4.42c-1.7-2.307-3.159-4.3-5.988-5.136a12.714,12.714,0,0,0-3.6-.52c-5.25,0-10.47,3.216-16,6.62-.95.586-1.914,1.179-2.895,1.768l-1.158.7c-1.106.665-2.1,1.26-3.007,1.8.6.323,1.2.639,1.8.952,4.947,2.585,9.622,5.027,9.662,10.632C245.176,618.212,243.879,620.5,240.448,622.782Z" transform="translate(-231.782 -593.063)" fill="#fff"/></g><g transform="translate(126.054 487.821)"><path d="M301.277,632.158c-1.7-8.367-13.45-6.519-13.851-9.816-.306-2.53,11.559-7.078,6.769-12.334-8.058-8.844-4.42,4.854-17.856-3.091a13.9,13.9,0,0,1-1.654-1.157c-5.864,5.056-11.825,11.544-11.338,18.914,6.589.212,12,2.939,12,9.151.092,1.011.132,2.005.13,2.985,8.579.384,15.344,6.841,22.962,7.806C300.577,640.446,302.057,636.01,301.277,632.158Z" transform="translate(-263.002 -605.443)" fill="#cad9d7"/><path d="M298.385,644.872l-.04,0c-3.55-.451-6.835-2.037-10.313-3.715-3.958-1.909-8.049-3.884-12.623-4.089a.316.316,0,0,1-.3-.317c0-.993-.04-1.988-.128-2.956,0-7.662-8.184-8.75-11.7-8.864a.317.317,0,0,1-.305-.3c-.521-7.89,6.284-14.722,11.447-19.175a.315.315,0,0,1,.4-.007,13.415,13.415,0,0,0,1.616,1.131c2.9,1.715,5.208,2.547,7.056,2.547h0a5.817,5.817,0,0,0,3.789-1.509,3.988,3.988,0,0,1,2.373-1.1c1.237,0,2.69.99,4.711,3.208a4.05,4.05,0,0,1,1.213,3.068c-.185,2.413-2.756,4.489-5.023,6.321-1.458,1.177-2.966,2.394-2.878,3.121.13,1.069,1.978,1.568,4.119,2.146,3.651.986,8.651,2.337,9.727,7.646.691,3.408-.244,7.551-2.861,12.664A.318.318,0,0,1,298.385,644.872Zm-22.647-8.422c4.58.281,8.64,2.241,12.569,4.136,3.358,1.62,6.532,3.153,9.9,3.626,2.472-4.888,3.356-8.832,2.7-12.052-1-4.925-5.586-6.165-9.273-7.16-2.459-.664-4.4-1.189-4.581-2.681-.13-1.074,1.3-2.228,3.109-3.689,2.061-1.665,4.626-3.737,4.79-5.876a3.4,3.4,0,0,0-1.05-2.594c-1.865-2.048-3.213-3-4.243-3a3.489,3.489,0,0,0-1.991.968,6.431,6.431,0,0,1-4.171,1.637h0c-1.964,0-4.377-.862-7.377-2.635a13.618,13.618,0,0,1-1.484-1.019c-4.971,4.311-11.364,10.806-11.047,18.2,7.534.328,12.021,3.848,12.021,9.456C275.688,634.63,275.732,635.538,275.738,636.45Z" transform="translate(-262.944 -605.384)" fill="#fff"/></g><g transform="translate(17 575.398)"><path d="M119.255,759.607c-12.5,1.78-.164-9.48,3.285-13.555s4.25-8.836,5.51-10.916c1.495-2.466,6.186,2.73,8.331.131,2.979-3.61,4.533-13.291,8.264-4.3,2.782,6.7-7.676,11.279-11.838,14.092S123.19,759.047,119.255,759.607Z" transform="translate(-118.465 -696.933)" fill="#cad9d7"/><path d="M116.861,760.053c-1.822,0-2.9-.444-3.3-1.36-1.037-2.377,3.419-7.18,6.671-10.686.806-.868,1.5-1.618,2.01-2.218a25.245,25.245,0,0,0,4.23-7.967,18.589,18.589,0,0,1,1.251-2.909,1.671,1.671,0,0,1,1.522-.836,7.68,7.68,0,0,1,2.642.761,8.185,8.185,0,0,0,2.8.8,1.685,1.685,0,0,0,1.4-.634,20.456,20.456,0,0,0,2.206-3.855c1.116-2.3,2.08-4.278,3.429-4.278,1.051,0,2.057,1.244,3.164,3.914,2.425,5.843-4.731,10.112-9.466,12.937-.927.554-1.8,1.076-2.486,1.537-1.767,1.194-3.85,4.04-5.865,6.793-2.811,3.842-5.467,7.47-7.819,7.8A17.272,17.272,0,0,1,116.861,760.053Zm12.382-25.344a1.035,1.035,0,0,0-.981.532,18.239,18.239,0,0,0-1.2,2.8,26.16,26.16,0,0,1-4.34,8.154c-.518.611-1.217,1.366-2.027,2.24-2.958,3.188-7.427,8.006-6.556,10,.405.93,2.122,1.206,5.013.795,2.088-.3,4.787-3.985,7.4-7.552,2.141-2.926,4.163-5.688,6.022-6.945.7-.471,1.581-1,2.515-1.555,4.82-2.876,11.422-6.814,9.207-12.153-1.209-2.912-2.071-3.524-2.581-3.524-.954,0-1.923,1.994-2.86,3.922a20.877,20.877,0,0,1-2.288,3.981,2.331,2.331,0,0,1-1.885.864,8.615,8.615,0,0,1-3.036-.849A7.312,7.312,0,0,0,129.243,734.709Z" transform="translate(-118.407 -696.874)" fill="#fff"/></g></g><path d="M144.105,746.232h-.985V708.119L119.2,684.2H77.691v-.985H119.4a.492.492,0,0,1,.348.144l24.211,24.211a.49.49,0,0,1,.144.348Z" transform="translate(36.651 -70.502)" fill="#dcdcdc"/></g></svg>