<svg xmlns="http://www.w3.org/2000/svg" width="8.985" height="8.779" viewBox="0 0 8.985 8.779"><g transform="translate(-10.409 -10.46)"><path d="M117.836,3.9l3.813-3.8a.32.32,0,0,1,.451.453l-3.586,3.577L122.1,7.7a.32.32,0,0,1-.451.453l-3.813-3.8a.319.319,0,0,1,0-.453Z" transform="translate(-107.083 10.744)" fill="#03a58e" stroke="#03a58e" stroke-linecap="round" stroke-width="0.5"/><path d="M117.836,3.9l3.813-3.8a.32.32,0,0,1,.451.453l-3.586,3.577L122.1,7.7a.32.32,0,0,1-.451.453l-3.813-3.8a.319.319,0,0,1,0-.453Z" transform="translate(-103.086 10.744)" fill="#03a58e" stroke="#03a58e" stroke-linecap="round" stroke-width="0.5"/></g></svg>