<svg xmlns="http://www.w3.org/2000/svg" xmlns:xlink="http://www.w3.org/1999/xlink" width="104.359" height="82.578" viewBox="0 0 104.359 82.578"><defs><clipPath id="a"><rect width="104.359" height="82.578" fill="none"/></clipPath></defs><g clip-path="url(#a)"><path d="M129.278,121.361l-.12-5.307h-.722q.062,2.643.125,5.286h-.916q-.066-2.643-.132-5.286h-.859q.069,2.643.139,5.286h-.78c0,.007,0,.014,0,.021Z" transform="translate(-91.519 -84.286)" fill="#e7e6e2"/><path d="M197.066,121.361v-.021h-.915q.009-2.643.017-5.286h-.859q-.006,2.643-.011,5.286h-.916q0-2.643,0-5.286h-.824q0,2.653,0,5.307Z" transform="translate(-140.578 -84.286)" fill="#e7e6e2"/><path d="M61.551,141.632h0q.092,1.737.184,3.474-.092-1.737-.184-3.474" transform="translate(-44.703 -102.863)" fill="#e7e6e2"/><path d="M60.436,72.374h7.772l.388-.015v.015H75.98q.11,4.025.22,8.05h3.294q-.091-4.026-.182-8.05h7.773l.387,0v0h7.384l0,8.05h3.533q.022-4.91.045-9.818H57.783q-.062-1.157-.123-2.314h0q.322,6.066.644,12.133h2.53q-.2-4.026-.4-8.05" transform="translate(-41.877 -49.598)" fill="#e7e6e2"/><path d="M61.219,121.361h2.507v-.021h-.818q-.133-2.643-.267-5.286h-.859q.137,2.643.274,5.286h-.838q.021.39.041.78h0q-.02-.379-.04-.759" transform="translate(-44.461 -84.286)" fill="#e7e6e2"/><path d="M248.552,95.991q.026-1.249.053-2.5h20.412q.253-4.96.506-9.921-1.045,1.332-2.085,2.665l-1.21,1.557-.078.1-.123.034-1.114.313q-.232,2.242-.463,4.485l-.772-.079q.214-2.09.431-4.18l-2.284.642-.049-.172q-.006.155-.012.31l-.015.373h-9.834l.011-.4q.113-4.264.227-8.528l.01-.377h9.955l-.016.4-.3,7.591,3.892-1.094.873-1.124q-1.17-.766-2.345-1.532l.423-.65q1.2.784,2.4,1.568,1.268-1.626,2.545-3.252.14-2.739.28-5.479H248.964q-.206,9.622-.412,19.244" transform="translate(-180.515 -55.739)" fill="#e7e6e2"/><path d="M247.044,164.192l.01-.466q-.215,10.05-.43,20.1a4.989,4.989,0,0,1,.523-.031,4.88,4.88,0,0,1,.792.064.193.193,0,0,1,.162.2q-.007.3-.014.6h2.746q.262-9.446.525-18.891h10.921q-.248,5.667-.5,11.335h4.792l.675-13.233c-.005.108-.011.217-.016.325Z" transform="translate(-179.115 -118.909)" fill="#e7e6e2"/><path d="M299.735,98.446l-.423.65q1.175.766,2.345,1.532l-.873,1.124-3.892,1.094q-.012.313-.025.627l.049.172L299.2,103q-.216,2.09-.431,4.18l.772.079q.231-2.243.463-4.485l1.114-.313.123-.034.078-.1,1.21-1.557q1.038-1.332,2.085-2.665.034-.672.068-1.345-1.278,1.626-2.545,3.252-1.2-.784-2.4-1.568" transform="translate(-215.605 -70.275)" fill="#c8c5bd"/><path d="M297.046,121.906" transform="translate(-215.735 -88.536)" fill="#c8c5bd"/><path d="M215.811,124.9a.79.79,0,0,1,.092-.33.9.9,0,0,1,.214-.279c.214-.18.433-.359.655-.534a.52.52,0,0,0,.123-.155.416.416,0,0,0,.053-.165l-.035-1.651a.19.19,0,0,1-.125-.044.193.193,0,0,1-.065-.149q.008-.359.015-.719a.193.193,0,0,1,.162-.187c.094-.015.189-.024.284-.035q.215-10.05.43-20.1.013-.625.027-1.25c0-.006,0-.013,0-.019l.071-3.3q.206-9.622.412-19.244H206.236q-.022,4.909-.045,9.818h.062q0,.471,0,.941h-.062q-.012,2.643-.024,5.286h0v.021q-.016,3.61-.033,7.22,0,.568-.005,1.137,0,.3,0,.6h0q-.017,3.836-.035,7.672h1.269q-.021,3.18-.042,6.36h5.205l-.13,9.157h3.42V124.9Z" transform="translate(-149.674 -55.739)" fill="#bbab94"/><path d="M83.742,117.93h-.858l.053,1.21h.857q-.026-.605-.052-1.21" transform="translate(-60.196 -85.649)" fill="#947864"/><path d="M90.245,117.93h-.858l.05,1.21h.857q-.024-.605-.049-1.21" transform="translate(-64.919 -85.649)" fill="#947864"/><path d="M77.239,117.93H76.38l.057,1.21h.857Z" transform="translate(-55.473 -85.648)" fill="#947864"/><path d="M116.258,117.93H115.4l.038,1.21h.857Z" transform="translate(-83.811 -85.649)" fill="#947864"/><path d="M116.484,125.193h-.856l.038,1.211h.854q-.018-.606-.036-1.211" transform="translate(-83.977 -90.924)" fill="#947864"/><path d="M75.186,83.22l.388-.015H67.8q.2,4.025.4,8.05h7.295q-.154-4.018-.308-8.035m-6.5.759h5.8q.015.389.031.778H68.721q-.018-.389-.037-.778m.1,1.988h5.781l.031.778H68.818q-.019-.389-.037-.778m.1,1.989H74.64l.031.778H68.913q-.019-.389-.037-.778m.133,2.766q-.018-.389-.038-.778h5.748l.031.778Z" transform="translate(-49.242 -60.429)" fill="#947864"/><path d="M97.614,83.205q.154,4.025.309,8.05h7.294l-.22-8.05Zm.792.774h5.8l.022.778H98.435l-.029-.778m.073,1.988h5.781q.012.389.022.778H98.507q-.014-.389-.028-.778m.073,1.989h5.764l.022.778H98.581q-.014-.389-.028-.778m.1,2.766q-.014-.389-.028-.778h5.748l.022.778Z" transform="translate(-70.894 -60.429)" fill="#947864"/><path d="M77.575,125.193h-.856l.057,1.211h.854l-.055-1.211" transform="translate(-55.719 -90.924)" fill="#947864"/><path d="M76.971,116.054h-.06l.206,5.286H76.2l-.032-.8h-.853l.033.8h-.916q-.017-.4-.034-.8h-.853q.017.4.035.8h-.916q-.018-.4-.036-.8h-.853q.019.4.037.8H70.9q-.019-.4-.038-.8h-.123q-.018-.389-.037-.778h.123l-.058-1.211h-.123q-.018-.389-.037-.778h.123l-.058-1.211h-.123l-.025-.513h-.736q.13,2.643.26,5.286h-.1v.021h7.226l-.2-5.307" transform="translate(-50.683 -84.286)" fill="#947864"/><path d="M103.252,117.93h-.858q.022.605.044,1.21h.857q-.022-.605-.043-1.21" transform="translate(-74.365 -85.649)" fill="#947864"/><path d="M106.3,121.361c0-.007,0-.014,0-.021h-.136q-.072-2.643-.145-5.286h-.67l.015.513h-.189q.017.605.035,1.211h.189q.011.389.022.778h-.189q.018.606.035,1.211h.188l.022.778h-.188l.023.8H104.4l-.024-.8h-.853l.025.8h-.916l-.026-.8h-.853l.027.8h-.916l-.028-.8h-.853q.014.4.029.8H99.1q-.1-2.643-.2-5.286h-.022l.2,5.307Z" transform="translate(-71.809 -84.286)" fill="#947864"/><path d="M90.545,125.193h-.856q.025.606.05,1.211h.854q-.024-.606-.049-1.211" transform="translate(-65.138 -90.924)" fill="#947864"/><path d="M84.06,125.193H83.2l.053,1.211h.854q-.026-.606-.052-1.211" transform="translate(-60.428 -90.924)" fill="#947864"/><path d="M109.754,117.93H108.9q.021.605.041,1.21h.857l-.039-1.21" transform="translate(-79.088 -85.649)" fill="#947864"/><path d="M103.514,125.193h-.856q.022.606.044,1.211h.854l-.043-1.211" transform="translate(-74.557 -90.924)" fill="#947864"/><path d="M110,125.193h-.856q.021.606.041,1.211h.855q-.02-.606-.04-1.211" transform="translate(-79.267 -90.924)" fill="#947864"/><path d="M95.554,83.151l-.388.015-.388.015q.154,4.018.308,8.035h.777q-.155-4.025-.309-8.05v-.015" transform="translate(-68.835 -60.39)" fill="#765f50"/><path d="M97.017,121.361l-.2-5.307h-.777l.2,5.307Z" transform="translate(-69.749 -84.286)" fill="#765f50"/><path d="M76.822,86.032h-5.8q.019.389.037.778h5.791q-.015-.389-.031-.778" transform="translate(-51.583 -62.482)" fill="#765f50"/><path d="M77.156,93.3H71.375q.019.389.038.778h5.774l-.031-.778" transform="translate(-51.837 -67.758)" fill="#765f50"/><path d="M77.489,100.56H71.724l.038.778h5.758q-.015-.389-.031-.778" transform="translate(-52.091 -73.034)" fill="#765f50"/><path d="M72.075,107.824q.019.389.037.778h5.742q-.016-.389-.031-.778Z" transform="translate(-52.346 -78.309)" fill="#765f50"/><path d="M90.168,116.054h-.859c.007.171.014.342.021.513h.858q-.011-.257-.021-.513" transform="translate(-64.862 -84.286)" fill="#765f50"/><path d="M83.66,116.054H82.8q.011.257.023.513h.858l-.022-.513" transform="translate(-60.136 -84.286)" fill="#765f50"/><path d="M77.152,116.054h-.859q.012.257.024.513h.858q-.011-.257-.023-.513" transform="translate(-55.409 -84.286)" fill="#765f50"/><path d="M72.62,116.568l-.025-.513h-.123q.012.257.025.513Z" transform="translate(-52.634 -84.287)" fill="#765f50"/><path d="M72.813,123.13h.123q-.018-.389-.037-.778h-.123q.019.389.037.778" transform="translate(-52.854 -88.86)" fill="#765f50"/><path d="M77.444,122.352h-.857l.036.778h.856l-.035-.778" transform="translate(-55.623 -88.86)" fill="#765f50"/><path d="M90.427,122.352H89.57q.016.389.032.778h.856q-.016-.389-.031-.778" transform="translate(-65.052 -88.86)" fill="#765f50"/><path d="M83.936,122.352h-.857l.034.778h.856q-.017-.389-.033-.778" transform="translate(-60.338 -88.86)" fill="#765f50"/><path d="M77.781,129.616h-.855l.036.778h.854Z" transform="translate(-55.869 -94.136)" fill="#765f50"/><path d="M84.253,129.616H83.4l.034.778h.853Z" transform="translate(-60.57 -94.136)" fill="#765f50"/><path d="M73.162,130.394h.123q-.018-.389-.037-.778h-.123q.019.389.037.778" transform="translate(-53.108 -94.136)" fill="#765f50"/><path d="M90.726,129.616h-.854q.016.389.033.778h.853q-.016-.389-.031-.778" transform="translate(-65.271 -94.136)" fill="#765f50"/><path d="M106.3,86.032h-5.8q.014.389.028.778h5.791l-.022-.778" transform="translate(-72.995 -62.482)" fill="#765f50"/><path d="M106.555,93.3h-5.781q.014.389.028.778h5.774l-.022-.778" transform="translate(-73.189 -67.758)" fill="#765f50"/><path d="M106.805,100.56h-5.764q.014.389.028.778h5.758l-.022-.778" transform="translate(-73.383 -73.034)" fill="#765f50"/><path d="M101.307,107.824q.014.389.028.778h5.742q-.012-.389-.022-.778Z" transform="translate(-73.576 -78.309)" fill="#765f50"/><path d="M109.691,116.054h-.859q.009.257.018.513h.858q-.009-.257-.017-.513" transform="translate(-79.041 -84.286)" fill="#765f50"/><path d="M103.184,116.054h-.859q.01.257.019.513h.858l-.018-.513" transform="translate(-74.315 -84.286)" fill="#765f50"/><path d="M116.2,116.054h-.859q.008.257.016.513h.858q-.007-.257-.015-.513" transform="translate(-83.769 -84.286)" fill="#765f50"/><path d="M122.038,116.054h-.189l.015.513h.189l-.015-.513" transform="translate(-88.495 -84.286)" fill="#765f50"/><path d="M122.219,122.352h-.189q.011.389.022.778h.189l-.022-.778" transform="translate(-88.626 -88.86)" fill="#765f50"/><path d="M103.411,122.352h-.856q.014.389.028.778h.856q-.014-.389-.027-.778" transform="translate(-74.482 -88.86)" fill="#765f50"/><path d="M109.9,122.352h-.857q.013.389.026.778h.856l-.025-.778" transform="translate(-79.197 -88.86)" fill="#765f50"/><path d="M116.395,122.352h-.857q.012.389.024.778h.856q-.011-.389-.023-.778" transform="translate(-83.912 -88.86)" fill="#765f50"/><path d="M110.147,129.616h-.854l.027.778h.853Z" transform="translate(-79.376 -94.136)" fill="#765f50"/><path d="M116.619,129.616h-.854q.012.389.024.778h.853q-.012-.389-.023-.778" transform="translate(-84.076 -94.136)" fill="#765f50"/><path d="M103.673,129.616h-.854q.014.389.028.778h.853q-.014-.389-.027-.778" transform="translate(-74.674 -94.136)" fill="#765f50"/><path d="M122.427,129.616h-.188q.011.389.022.778h.188Z" transform="translate(-88.778 -94.136)" fill="#765f50"/><path d="M181.329,125.193h-.856q0,.606.007,1.211h.855q0-.606-.005-1.211" transform="translate(-131.072 -90.924)" fill="#947864"/><path d="M148.773,117.93h-.858l.022,1.21h.857q-.011-.605-.021-1.21" transform="translate(-107.426 -85.649)" fill="#947864"/><path d="M155.277,117.93h-.858l.019,1.21h.857q-.009-.605-.018-1.21" transform="translate(-112.15 -85.649)" fill="#947864"/><path d="M142.422,125.193h-.856l.025,1.211h.854q-.012-.606-.024-1.211" transform="translate(-102.815 -90.924)" fill="#947864"/><path d="M142.27,117.93h-.858l.025,1.21h.857q-.012-.605-.024-1.21" transform="translate(-102.703 -85.649)" fill="#947864"/><path d="M174.844,125.193h-.856q0,.606.01,1.211h.854q0-.606-.008-1.211" transform="translate(-126.362 -90.924)" fill="#947864"/><path d="M148.906,125.193h-.856q.011.606.022,1.211h.854q-.011-.606-.021-1.211" transform="translate(-107.524 -90.924)" fill="#947864"/><path d="M174.786,117.93h-.858q0,.605.01,1.21h.857Z" transform="translate(-126.318 -85.649)" fill="#947864"/><path d="M181.29,117.93h-.858l.007,1.21h.857q0-.605-.005-1.21" transform="translate(-131.042 -85.649)" fill="#947864"/><path d="M155.39,125.193h-.856q.009.606.019,1.211h.854q-.009-.606-.018-1.211" transform="translate(-112.233 -90.924)" fill="#947864"/><path d="M174.4,121.361q0-2.654,0-5.307h-.034q0,2.643,0,5.286h-.916q0-.4,0-.8H172.6l0,.8h-.915q0-.4,0-.8h-.853q0,.4,0,.8h-.915q0-.4-.005-.8h-.853l.006.8h-.915q0-.4-.008-.8h-.232q0-.389-.008-.778h.233q-.006-.606-.012-1.211h-.233q0-.389-.008-.778h.233l-.012-1.211h-.234q0-.257-.005-.513h-.625q.029,2.643.057,5.286h-.12c0,.007,0,.014,0,.021Z" transform="translate(-121.413 -84.286)" fill="#947864"/><path d="M166.571,83.205q.046,4.025.093,8.05h7.295q0-4.025,0-8.05Zm.772.774h5.8v.778H167.35Zm.02,1.988h5.781q0,.389,0,.778H167.37q0-.389-.008-.778m.02,1.989h5.764q0,.389,0,.778H167.39q0-.389-.008-.778m.027,2.766q0-.389-.008-.778h5.748q0,.388,0,.778Z" transform="translate(-120.975 -60.429)" fill="#947864"/><path d="M144.849,121.361c0-.007,0-.014,0-.021h-.019q-.032-2.643-.064-5.286h-.7q0,.257.007.513h-.16q.008.605.016,1.211h.159q0,.389.01.778h-.159q.008.606.016,1.211h.159q.005.389.01.778h-.159l.011.8h-.915q-.006-.4-.012-.8H142.2q.007.4.013.8h-.915q-.007-.4-.014-.8h-.853l.015.8h-.916l-.016-.8h-.854q.009.4.017.8h-.915l-.118-5.286H137.5l.12,5.307Z" transform="translate(-99.864 -84.286)" fill="#947864"/><path d="M187.793,117.93h-.858q0,.605,0,1.21h.857q0-.605,0-1.21" transform="translate(-135.765 -85.649)" fill="#947864"/><path d="M144.145,83.209l.389,0h-7.773q.091,4.025.182,8.05h7.3Q144.191,87.232,144.145,83.209Zm-6.523.769h5.8q.005.389.01.778h-5.791q-.008-.389-.017-.778m.042,1.988h5.781q0,.389.01.778h-5.774q-.008-.389-.017-.778m.043,1.989h5.764q.005.389.01.778h-5.758q-.008-.389-.017-.778m.059,2.766q-.008-.389-.017-.778H143.5q.005.388.01.778Z" transform="translate(-99.325 -60.429)" fill="#947864"/><path d="M187.814,125.193h-.856q0,.606,0,1.211h.854q0-.606,0-1.211" transform="translate(-135.782 -90.924)" fill="#947864"/><path d="M164.513,83.189l-.387,0-.389,0,.093,8.046h.776q-.046-4.025-.093-8.05Z" transform="translate(-118.917 -60.418)" fill="#765f50"/><path d="M165.115,135.385v-.021h-.776c0,.007,0,.014,0,.021Z" transform="translate(-119.354 -98.311)" fill="#765f50"/><path d="M145.7,86.032h-5.8l.016.778h5.791q-.005-.389-.01-.778" transform="translate(-101.61 -62.482)" fill="#765f50"/><path d="M145.843,93.3h-5.781q.008.389.017.778h5.774q0-.388-.01-.778" transform="translate(-101.723 -67.758)" fill="#765f50"/><path d="M145.982,100.56h-5.765q.009.389.017.778h5.758q-.005-.389-.01-.778" transform="translate(-101.835 -73.034)" fill="#765f50"/><path d="M140.373,107.824q.008.389.017.778h5.742q0-.389-.01-.778Z" transform="translate(-101.948 -78.309)" fill="#765f50"/><path d="M161.057,116.054h-.16q0,.257.007.513h.159q0-.257-.007-.513" transform="translate(-116.854 -84.286)" fill="#765f50"/><path d="M148.739,116.054h-.859q0,.257.01.513h.858q0-.257-.009-.513" transform="translate(-107.401 -84.286)" fill="#765f50"/><path d="M155.248,116.054h-.859l.008.513h.858c0-.171,0-.342-.007-.513" transform="translate(-112.128 -84.286)" fill="#765f50"/><path d="M142.232,116.054h-.859l.011.513h.858q-.005-.257-.01-.513" transform="translate(-102.675 -84.286)" fill="#765f50"/><path d="M148.854,122.352H148q.007.389.014.778h.856q-.007-.389-.013-.778" transform="translate(-107.486 -88.86)" fill="#765f50"/><path d="M142.362,122.352h-.857l.016.778h.856q-.007-.389-.015-.778" transform="translate(-102.771 -88.86)" fill="#765f50"/><path d="M161.14,122.352h-.159l.011.778h.159q-.005-.389-.01-.778" transform="translate(-116.915 -88.86)" fill="#765f50"/><path d="M155.346,122.352h-.857l.012.778h.856q-.006-.389-.011-.778" transform="translate(-112.2 -88.86)" fill="#765f50"/><path d="M148.986,129.616h-.854l.014.778H149q-.007-.389-.013-.778" transform="translate(-107.584 -94.136)" fill="#765f50"/><path d="M155.459,129.616H154.6l.012.778h.854l-.012-.778" transform="translate(-112.285 -94.136)" fill="#765f50"/><path d="M161.237,129.616h-.159l.01.778h.158q0-.389-.01-.778" transform="translate(-116.986 -94.136)" fill="#765f50"/><path d="M142.512,129.616h-.854l.016.778h.853l-.016-.778" transform="translate(-102.882 -94.136)" fill="#765f50"/><path d="M175.187,86.032h-5.8l.008.778h5.791Z" transform="translate(-123.023 -62.482)" fill="#765f50"/><path d="M175.243,93.3h-5.781q0,.389.008.778h5.774q0-.388,0-.778" transform="translate(-123.075 -67.758)" fill="#765f50"/><path d="M175.3,100.56h-5.764q0,.389.008.778H175.3q0-.389,0-.778" transform="translate(-123.127 -73.034)" fill="#765f50"/><path d="M169.606,107.824q0,.389.008.778h5.742q0-.389,0-.778Z" transform="translate(-123.179 -78.309)" fill="#765f50"/><path d="M187.788,116.054h-.859l0,.513h.858v-.513" transform="translate(-135.761 -84.286)" fill="#765f50"/><path d="M181.28,116.054h-.859q0,.257,0,.513h.858q0-.257,0-.513" transform="translate(-131.034 -84.286)" fill="#765f50"/><path d="M174.771,116.054h-.859q0,.257,0,.513h.858q0-.257,0-.513" transform="translate(-126.307 -84.286)" fill="#765f50"/><path d="M169.926,116.568l0-.513h-.234q0,.257.005.513Z" transform="translate(-123.238 -84.287)" fill="#765f50"/><path d="M174.822,122.352h-.857q0,.389.006.778h.856q0-.389-.005-.778" transform="translate(-126.345 -88.86)" fill="#765f50"/><path d="M181.314,122.352h-.857q0,.389,0,.778h.856q0-.389,0-.778" transform="translate(-131.06 -88.86)" fill="#765f50"/><path d="M187.8,122.352h-.857q0,.389,0,.778h.856q0-.389,0-.778" transform="translate(-135.774 -88.86)" fill="#765f50"/><path d="M169.758,123.13h.233l-.007-.778h-.234q0,.389.008.778" transform="translate(-123.284 -88.86)" fill="#765f50"/><path d="M169.83,130.394h.232q0-.389-.007-.778h-.233q0,.389.008.778" transform="translate(-123.336 -94.136)" fill="#765f50"/><path d="M174.879,129.616h-.854l.007.778h.853q0-.389-.005-.778" transform="translate(-126.389 -94.136)" fill="#765f50"/><path d="M187.825,129.616h-.854l0,.778h.854l0-.778" transform="translate(-135.791 -94.136)" fill="#765f50"/><path d="M181.352,129.616H180.5l0,.778h.854q0-.389,0-.778" transform="translate(-131.089 -94.136)" fill="#765f50"/><path d="M70.573,187.524H68.849q-.169-3.851-.338-7.7H63.558l-.417-7.866-.234-4.283,39.228.132q-.017,3.836-.035,7.672H96.932q-.007-2.041-.013-4.081H90.153q.069,5.26.138,10.52h3.535c0,.048,0,.1,0,.145L90,183.483l.052,4.041H87.5" transform="translate(-45.687 -121.776)" fill="#c9c6b5"/><path d="M62.621,161.818l.218,4.119c.449-.407.9-.814,1.356-1.22q-.029-.582-.059-1.163H62.713q-.046-.868-.092-1.735" transform="translate(-45.48 -117.523)" fill="#c9c6b5"/><path d="M72.639,168.259l.113-.1h-.131c.006.034.012.068.018.1" transform="translate(-52.742 -122.128)" fill="#c9c6b5"/><path d="M82.655,243.661H147.1q-.565-1.736-1.129-3.471H81.2q.728,1.736,1.458,3.471" transform="translate(-58.971 -174.442)" fill="#89877b"/><path d="M61.313,137.137q.092,1.737.184,3.474.055,1.026.109,2.052h1.428q-.029-.565-.057-1.131l.841-.076c.073.4.144.8.216,1.207h2.4c.356-.315.708-.63,1.066-.945l.624.459c-.161.162-.318.324-.478.486H100.92q.017-3.61.033-7.22H61.223l.04.759" transform="translate(-44.464 -98.368)" fill="#4086c8"/><path d="M248.364,140.418q-.035,1.648-.071,3.3h22.185q.156-2.9.312-5.795H248.417q-.027,1.25-.053,2.5" transform="translate(-180.327 -100.166)" fill="#4086c8"/><path d="M165.249,184.112q.053,4.484.107,8.968h2.791q-.017-2.356-.034-4.712l2.392-.922q-.007-1.667-.014-3.334Z" transform="translate(-120.015 -133.715)" fill="#6dbdd9"/><path d="M163.317,191.022q-.054-4.484-.107-8.968h5.242l.014,3.334.076-.029h.679q-.006-2.041-.013-4.081h-6.767l.138,10.52h3.535l-.006-.776Z" transform="translate(-117.976 -131.656)" fill="#fff"/><path d="M263.755,100.367h8.291q.154-3.876.308-7.752h-8.392q-.1,3.876-.206,7.752" transform="translate(-191.557 -67.263)" fill="#6dbdd9"/><path d="M271.032,90.184l.016-.4h-9.955l-.01.377q-.114,4.264-.227,8.528l-.011.4h9.834l.014-.372q.007-.155.012-.31.013-.313.025-.627.151-3.8.3-7.591m-1.1,8.125h-8.291q.1-3.876.206-7.752h8.392q-.154,3.876-.308,7.752" transform="translate(-189.443 -65.205)" fill="#fff"/><path d="M250.056,70.606h20.908l.118-2.314H250.106q-.025,1.157-.05,2.314" transform="translate(-181.608 -49.598)" fill="#c9c9c6"/><path d="M57.661,68.292q.061,1.157.123,2.314H98.439q0-1.157.011-2.314Z" transform="translate(-41.877 -49.598)" fill="#c9c9c6"/><path d="M218.568,68.292H206.643q-.006,1.157-.011,2.314h11.887q.025-1.157.05-2.314" transform="translate(-150.07 -49.598)" fill="#a39580"/><path d="M266.368,191.7q.317-9.079.633-18.157h1.285q-.328,8.921-.656,17.841l.6-.149h-.5l.29-8.02,1.07-.3q.181-4.688.361-9.376h1.285l-.365,9.021.184-.051h2.135q.248-5.668.5-11.335H262.268q-.263,9.446-.525,18.891-.048,1.736-.1,3.471h4.169q.029-.859.058-1.718l.494-.123m-1.138.1h-1.25q.285-9.127.57-18.254h1.285Z" transform="translate(-190.025 -124.32)" fill="#b2ab86"/><path d="M62.713,163.553h1.423q-.044-.868-.088-1.735H62.621q.046.868.092,1.735" transform="translate(-45.48 -117.523)" fill="#aeac9d"/><path d="M71.8,163.553h.131c.647-.578,1.3-1.157,1.955-1.735h-2.4q.156.868.311,1.735" transform="translate(-51.918 -117.523)" fill="#aeac9d"/><path d="M113.41,163.553h0q0-.3,0-.6l0-1.137H80.14q-.859.868-1.708,1.735H113.41Z" transform="translate(-56.963 -117.523)" fill="#aeac9d"/><path d="M321.912,160.823q.008-.163.017-.325.036-.705.072-1.411-.044.867-.088,1.735" transform="translate(-233.794 -115.541)" fill="#e0e0e1"/><path d="M248.169,160.357c0,.155-.007.311-.01.466h20.189q.044-.868.088-1.735H248.2c0,.006,0,.013,0,.019q-.014.625-.027,1.25" transform="translate(-180.23 -115.541)" fill="#c9c9c6"/><path d="M289.209,179.815q-.18,4.688-.361,9.376l1.281-.355q.183-4.51.365-9.021Z" transform="translate(-209.781 -130.594)" fill="#fff"/><path d="M279.529,179.815l-.633,18.156,1.262-.315q.328-8.921.656-17.841Z" transform="translate(-202.553 -130.594)" fill="#fff"/><path d="M270.169,198.069h1.25l.606-18.254h-1.285q-.285,9.127-.57,18.254" transform="translate(-196.215 -130.594)" fill="#fff"/><path d="M60.7,113.556h.858q.134,2.643.267,5.286h.916q-.13-2.643-.26-5.286h.859l.024.513.058,1.211q.019.389.037.778.029.606.058,1.211.019.389.037.778t.038.8h.916q-.018-.4-.037-.8l-.036-.778-.057-1.211q-.018-.389-.036-.778l-.057-1.211q-.012-.257-.024-.513h.859q.012.257.024.513l.055,1.211q.018.389.036.778.028.606.055,1.211l.035.778.036.8h.916q-.018-.4-.035-.8l-.034-.778q-.027-.606-.053-1.211l-.034-.778-.053-1.211q-.011-.257-.023-.513H66.9q.011.257.022.513.026.606.052,1.211.017.389.033.778.026.606.052,1.211l.033.778q.017.4.034.8h.916q-.016-.4-.033-.8t-.032-.778q-.025-.606-.05-1.211-.016-.389-.032-.778-.025-.605-.05-1.211-.01-.257-.021-.513h.859q.01.257.021.513.024.606.049,1.211.015.389.031.778.024.606.049,1.211.016.389.031.778l.032.8h.915q-.1-2.643-.206-5.286h.859q.1,2.643.2,5.286h.916q-.014-.4-.028-.8t-.029-.778q-.022-.606-.044-1.211c-.01-.259-.019-.518-.029-.778q-.022-.605-.044-1.211-.01-.257-.019-.513h.859c.006.171.012.342.018.513q.021.606.043,1.211.013.389.027.778.021.606.042,1.211.014.389.027.778l.028.8h.915l-.027-.8-.026-.778q-.02-.606-.041-1.211-.014-.389-.026-.778-.021-.605-.041-1.211-.009-.257-.018-.513h.859c.006.171.011.342.017.513q.019.606.039,1.211.013.389.026.778.019.606.039,1.211l.025.778.026.8h.915l-.025-.8q-.012-.389-.024-.778-.019-.606-.038-1.211-.012-.389-.024-.778-.019-.605-.038-1.211c0-.171-.011-.342-.016-.513h.859q.007.257.015.513l.036,1.211q.011.389.024.778.018.606.036,1.211.012.389.023.778t.024.8h.915q-.011-.4-.023-.8t-.022-.778q-.017-.606-.035-1.211-.011-.389-.022-.778-.017-.605-.034-1.211c-.005-.171-.01-.342-.015-.513h.859q.073,2.643.146,5.286h.915q-.069-2.643-.139-5.286h.859q.066,2.643.132,5.286h.916q-.062-2.643-.125-5.286h.859q.06,2.643.119,5.286h.915q-.008-.4-.017-.8l-.016-.778-.025-1.211-.016-.778-.025-1.211q-.005-.257-.011-.513h.859q.005.257.01.513.012.606.024,1.211.008.389.015.778.012.606.024,1.211l.016.778.016.8h.915q-.007-.4-.015-.8l-.015-.778q-.011-.606-.022-1.211-.007-.389-.014-.778l-.022-1.211q0-.257-.01-.513h.859c0,.171.006.342.009.513q.01.606.021,1.211.007.389.013.778.011.606.021,1.211.007.389.013.778t.014.8h.916q-.006-.4-.013-.8t-.012-.778q-.01-.606-.019-1.211-.007-.389-.013-.778l-.019-1.211-.008-.513h.859q0,.257.007.513l.018,1.211q.005.389.011.778.009.606.018,1.211.005.389.011.778t.012.8h.915q0-.4-.01-.8l-.01-.778q-.008-.606-.016-1.211-.005-.389-.01-.778-.008-.605-.016-1.211,0-.257-.007-.513h.859q.032,2.643.064,5.286h.915q-.028-2.643-.057-5.286h.859l0,.513.011,1.211q0,.389.008.778l.012,1.211.007.778q0,.4.008.8h.915l-.006-.8-.007-.778q0-.606-.01-1.211,0-.389-.006-.778-.005-.605-.01-1.211,0-.257,0-.513h.859q0,.257,0,.513l.008,1.211q0,.389.005.778,0,.606.008,1.211,0,.389.005.778t.006.8h.915q0-.4,0-.8l0-.778q0-.606-.007-1.211,0-.389,0-.778l-.007-1.211q0-.257,0-.513h.859l0,.513q0,.606.005,1.211,0,.389,0,.778,0,.606.005,1.211l0,.778q0,.4,0,.8h.915l0-.8q0-.389,0-.778,0-.606,0-1.211l0-.778q0-.605,0-1.211l0-.513H95.4q0,.257,0,.513,0,.606,0,1.211,0,.389,0,.778,0,.606,0,1.211,0,.389,0,.778l0,.8h.915q0-2.643,0-5.286h.859q0,2.643,0,5.286H98.1q.005-2.643.011-5.286h.859q-.008,2.643-.017,5.286h.916q.012-2.643.024-5.286h.062q0-.471,0-.941H59.723q.021.4.042.8.145,2.714.289,5.428h.916q-.137-2.643-.274-5.286" transform="translate(-43.375 -81.789)" fill="#bdbebf"/><path d="M139.457,21.082c-.433-.761-.862-1.522-1.3-2.283H70.336c-.529.761-1.053,1.522-1.579,2.283h70.7Z" transform="translate(-49.936 -13.653)" fill="#4086c8"/><path d="M134.313,29.977H62.636q-.787,1.141-1.568,2.283H135.61c-.429-.761-.865-1.522-1.3-2.283" transform="translate(-44.352 -21.771)" fill="#4086c8"/><path d="M142.016,7.625H78.1c-.534.761-1.07,1.522-1.6,2.283h66.836q-.655-1.141-1.317-2.283" transform="translate(-55.557 -5.538)" fill="#4086c8"/><path d="M146.5,0H85.251c-.308.437-.612.874-.919,1.311h62.927c-.253-.437-.5-.874-.756-1.311" transform="translate(-61.248)" fill="#4086c8"/><path d="M130.51,41.151H55q-.78,1.142-1.557,2.283h78.346c-.425-.761-.855-1.522-1.282-2.283" transform="translate(-38.816 -29.887)" fill="#4086c8"/><path d="M86.2,56.7h39.256c-.24-.437-.485-.874-.726-1.311H41.672l.522-.776h82.1c-.421-.761-.84-1.522-1.264-2.283H43.728Q42.25,54.513,40.79,56.7H86.2Z" transform="translate(-29.624 -38.004)" fill="#4086c8"/><path d="M44.01,61.443h83.056l-.43-.776h-82.1l-.522.776" transform="translate(-31.963 -44.061)" fill="#32699c"/><path d="M130.4,49.493H52.05l-.526.776H130.83l-.433-.776" transform="translate(-37.42 -35.945)" fill="#32699c"/><path d="M134.641,39.093c-.145-.259-.29-.517-.436-.776H59.664c-.177.258-.353.517-.529.776Z" transform="translate(-42.948 -27.828)" fill="#32699c"/><path d="M138.473,27.918h.005l-.442-.776h-70.7l-.537.776h71.677Z" transform="translate(-48.512 -19.712)" fill="#32699c"/><path d="M142.349,16.741l-.444-.776H75.065l-.54.776h67.824Z" transform="translate(-54.125 -11.595)" fill="#32699c"/><path d="M146.264,5.566l-.448-.776H82.888l-.544.776h63.92Z" transform="translate(-59.804 -3.479)" fill="#32699c"/><path d="M381.246,181.3h0Z" transform="translate(-276.887 -131.669)" fill="#bbab94"/><path d="M70.3,271.934a1.179,1.179,0,0,0-.021-.178,1.24,1.24,0,0,1-.032.179Z" transform="translate(-51.015 -197.368)" fill="#466784"/><rect width="28.264" height="18.661" transform="translate(35.789 47.081)" fill="#c9c6b5"/><path d="M219.925,283.5q.286-2.079.576-4.159-1.2,1.987-2.384,3.975a6.982,6.982,0,0,0,1.808.184" transform="translate(-158.411 -202.877)" fill="#d4d5d5"/><path d="M233.095,281.483a9.036,9.036,0,0,0,1.763-1.05q-1.568-1.406-3.146-2.813c.46,1.287.926,2.575,1.383,3.862" transform="translate(-168.285 -201.627)" fill="#d4d5d5"/><path d="M227.293,283.042a8.63,8.63,0,0,0,1.953-.458c-.45-1.268-.909-2.536-1.362-3.8q-.295,2.131-.591,4.262" transform="translate(-165.076 -202.469)" fill="#d4d5d5"/><path d="M205.582,279.442a4.32,4.32,0,0,0,.823,1.21q1.809-1.507,3.632-3.014-2.229.9-4.455,1.8" transform="translate(-149.308 -201.64)" fill="#d4d5d5"/><path d="M247.46,277.671c.074-.137.147-.275.21-.415h-1.6l1.387.415" transform="translate(-178.715 -201.362)" fill="#d4d5d5"/><path d="M235.086,277.257q1.381,1.233,2.759,2.467a7.926,7.926,0,0,0,1.268-1.442l-3.426-1.025Z" transform="translate(-170.735 -201.363)" fill="#d4d5d5"/><path d="M204.166,277.257a4.54,4.54,0,0,0,.15,1.26l3.112-1.26Z" transform="translate(-148.279 -201.363)" fill="#d4d5d5"/><path d="M210.508,282.183a5.286,5.286,0,0,0,1.4.765q1.146-1.918,2.3-3.836-1.854,1.536-3.7,3.071" transform="translate(-152.885 -202.71)" fill="#d4d5d5"/><path d="M191.974,215.251l-.1,3.066q-.232,6.953-.465,13.907h2.211c0-.081,0-.16.007-.243.334-3.776,4.233-7.2,8.711-7.641s7.792,2.256,7.4,6.031a6.667,6.667,0,0,1-.488,1.853h6.709q.458-8.487.916-16.973Z" transform="translate(-139.012 -156.33)" fill="#b4834e"/><path d="M241.393,266.484a4.515,4.515,0,0,0-.126-1.491q-2.254.906-4.5,1.813l4.625-.322" transform="translate(-171.957 -192.456)" fill="#b4834e"/><path d="M208.8,275.232l-4.624.322c0,.078-.006.155-.007.232h3.262l1.368-.554" transform="translate(-148.28 -199.892)" fill="#b4834e"/><path d="M216.288,255.126a8.993,8.993,0,0,0-1.77,1.05q1.577,1.4,3.145,2.792c-.459-1.281-.913-2.562-1.375-3.843" transform="translate(-155.798 -185.29)" fill="#b4834e"/><path d="M209.211,260.591a7.791,7.791,0,0,0-1.26,1.439c1.453.434,2.9.867,4.347,1.3q-1.541-1.37-3.086-2.74" transform="translate(-151.028 -189.259)" fill="#b4834e"/><path d="M236.02,261.216q2.232-.9,4.47-1.8a4.254,4.254,0,0,0-.816-1.208q-1.833,1.5-3.654,3.009" transform="translate(-171.414 -187.528)" fill="#b4834e"/><path d="M238.664,274.158h1.6a5.793,5.793,0,0,0,.384-1.168l-4.774.332,2.793.836" transform="translate(-171.306 -198.264)" fill="#b4834e"/><path d="M225.3,252.5a8.765,8.765,0,0,0-1.978.46c.464,1.285.919,2.57,1.38,3.855q.3-2.157.6-4.315" transform="translate(-162.192 -183.386)" fill="#b4834e"/><path d="M205.091,268.082a5.854,5.854,0,0,0-.578,1.582l4.757-.331c-1.394-.417-2.782-.834-4.179-1.25" transform="translate(-148.531 -194.699)" fill="#b4834e"/><path d="M237.549,254.494a5.281,5.281,0,0,0-1.408-.765q-1.166,1.919-2.323,3.838,1.862-1.537,3.731-3.073" transform="translate(-169.815 -184.275)" fill="#b4834e"/><path d="M231.587,252.317q-.29,2.08-.576,4.16,1.2-1.988,2.407-3.976a7.107,7.107,0,0,0-1.83-.184" transform="translate(-167.776 -183.248)" fill="#b4834e"/><path d="M233.98,276.268l.3.27h.6l-.9-.27" transform="translate(-169.932 -200.645)" fill="#b4834e"/><path d="M217.806,207.012H197.683l-1.068.267-2.253.562-.883.22h24.895q5.445-1.355,10.914-2.71h-6.963q-.011.2-.023.407l-4.495,1.253" transform="translate(-140.518 -149.141)" fill="#c99b69"/><path d="M281.079,225.035l5.108-1.286.548-9.417,4.41-1.7h1.307l.25-3.982q.1-1.65.207-3.3-5.469,1.355-10.914,2.71-.458,8.487-.916,16.973" transform="translate(-204.139 -149.141)" fill="#9b6b39"/><path d="M206.486,173.446h20.123q.382-7.156.765-14.312H206.117q-.259,7.156-.517,14.312Z" transform="translate(-149.321 -115.574)" fill="#b4834e"/><path d="M212.015,154.554l-.329.091-2.287.633-1.909.529h21.257l4.547-1.254H212.015Z" transform="translate(-150.693 -112.248)" fill="#c99b69"/><path d="M282.351,170.119l4.495-1.253q.011-.2.023-.407.4-6.953.794-13.905l-4.547,1.254q-.383,7.156-.765,14.312" transform="translate(-205.063 -112.248)" fill="#9b6b39"/><path d="M210.153,250.742c-4.044.4-7.568,3.494-7.873,6.906s2.683,5.853,6.679,5.451,7.525-3.495,7.878-6.907-2.639-5.853-6.683-5.451m4.475,1.551q-1.871,1.536-3.731,3.073,1.16-1.919,2.323-3.838a5.289,5.289,0,0,1,1.408.765m-3.923-1.15a7.107,7.107,0,0,1,1.83.184q-1.208,1.988-2.407,3.976.289-2.08.577-4.16m-.749,6.754a1.161,1.161,0,0,1-1.591-.476,1.278,1.278,0,0,1,.891-1.48,1.162,1.162,0,0,1,1.593.477,1.279,1.279,0,0,1-.893,1.479m.046-6.7q-.3,2.157-.6,4.314c-.461-1.285-.916-2.57-1.38-3.855a8.761,8.761,0,0,1,1.977-.46m-2.618.718c.463,1.281.916,2.562,1.375,3.843q-1.57-1.4-3.145-2.792a8.993,8.993,0,0,1,1.77-1.05m-2.307,1.5q1.548,1.37,3.087,2.74l-4.347-1.3a7.79,7.79,0,0,1,1.26-1.439m-1.624,2.051c1.4.417,2.785.834,4.179,1.25l-4.757.331a5.851,5.851,0,0,1,.578-1.582m-.673,2.511c0-.077,0-.154.007-.232l4.623-.322-1.368.554-3.112,1.26a4.547,4.547,0,0,1-.15-1.26m.388,1.908q2.223-.9,4.455-1.8-1.819,1.507-3.632,3.014a4.319,4.319,0,0,1-.823-1.21m1.348,1.671q1.844-1.536,3.7-3.071-1.153,1.918-2.3,3.836a5.283,5.283,0,0,1-1.4-.765m3.891,1.15a6.983,6.983,0,0,1-1.808-.184q1.188-1.988,2.385-3.975-.288,2.079-.576,4.159m.7-.05q.294-2.131.591-4.262c.452,1.268.912,2.536,1.362,3.8a8.627,8.627,0,0,1-1.953.458m2.593-.717c-.457-1.287-.923-2.575-1.383-3.862q1.576,1.406,3.146,2.813a9.042,9.042,0,0,1-1.763,1.05m2.3-1.5q-1.375-1.233-2.759-2.467l-.3-.271.9.271,3.426,1.025A7.914,7.914,0,0,1,214,260.435m1.846-2.467c-.063.14-.137.278-.211.415l-1.387-.415-2.793-.836,4.774-.332a5.817,5.817,0,0,1-.383,1.168m.48-1.866-4.625.322q2.247-.907,4.5-1.813a4.523,4.523,0,0,1,.126,1.491m-4.829-.339q1.824-1.5,3.654-3.009a4.254,4.254,0,0,1,.816,1.208q-2.239.9-4.47,1.8" transform="translate(-146.893 -182.074)" fill="#807878"/><path d="M208.184,248.327c-4.478.445-8.376,3.866-8.711,7.642-.007.082,0,.161-.007.243-.173,3.646,3.075,6.223,7.4,5.789a10.183,10.183,0,0,0,8.231-5.789,6.655,6.655,0,0,0,.487-1.853c.4-3.775-2.918-6.476-7.4-6.031m6.62,6.109c-.353,3.412-3.884,6.5-7.878,6.906s-6.983-2.039-6.678-5.451,3.829-6.5,7.873-6.906,7.038,2.039,6.683,5.451" transform="translate(-144.861 -180.317)" fill="#3c3939"/><path d="M225.33,269.53a1.278,1.278,0,0,0-.891,1.479,1.161,1.161,0,0,0,1.591.477,1.279,1.279,0,0,0,.892-1.48,1.162,1.162,0,0,0-1.593-.476" transform="translate(-162.967 -195.663)" fill="#3a3736"/><path d="M299.955,238.159l-.548,9.416-.125,2.147h12.264q.4-5.781.791-11.563Z" transform="translate(-217.359 -172.967)" fill="#199bdc"/><path d="M301.739,233.652h12.383l4.428-1.7h-12.4l-4.41,1.7" transform="translate(-219.143 -168.461)" fill="#70b7e7"/><path d="M344.086,245.215l4.387-1.7q.416-5.782.832-11.563-2.216.849-4.427,1.7-.4,5.782-.791,11.563" transform="translate(-249.899 -168.461)" fill="#008ed6"/><path d="M278.026,197.037v-.019a1.877,1.877,0,0,0-.194-.779,2.041,2.041,0,0,0-.482-.66h0c-.492-.431-1-.86-1.512-1.279h0a1.109,1.109,0,0,1-.266-.353.963.963,0,0,1-.111-.39q.13-2,.258-3.983a.475.475,0,0,1-.083.006,12.386,12.386,0,0,0-1.753-.124,12.527,12.527,0,0,0-1.787.128.439.439,0,0,1-.073-.005q.041,1.973.083,3.95a.983.983,0,0,1-.127.4,1.226,1.226,0,0,1-.294.371c-.531.419-1.055.847-1.567,1.278a2.158,2.158,0,0,0-.512.666,1.891,1.891,0,0,0-.22.789v0l0,.124q-.028,2.133-.059,4.268h0c-.009.694-.019,1.389-.029,2.085q-.024,1.625-.045,3.253-.044,3.134-.088,6.275a9.958,9.958,0,0,1,1.02.077q.125-6.182.25-12.364a.463.463,0,0,1,.462-.453h.238a.462.462,0,0,1,.462.472q-.128,6.293-.256,12.585a3.433,3.433,0,0,1,1.283.634,1.2,1.2,0,0,1,.444.856h0v.05h0q-.015.722-.031,1.445c.085,0,.17.009.256.009.127,0,.255-.009.382-.014a.932.932,0,0,1-.133-.469v-.02q.1-4.446.2-8.891h0v0s0-.01,0-.014h0v-.014h0l0-.045c0-.008.006-.014.008-.021a.955.955,0,0,1,.116-.367,1.289,1.289,0,0,1,.283-.332,2.625,2.625,0,0,1,.805-.442,7,7,0,0,1,2.33-.359v0c.171,0,.327.018.491.027q.032-1.078.064-2.156.051-1.709.1-3.416.039-1.325.079-2.652l0-.1Zm-6.409,2.473a.463.463,0,0,1-.462.453h-.238a.462.462,0,0,1-.462-.472l.037-1.829a.463.463,0,0,1,.462-.453h.238a.463.463,0,0,1,.462.471l-.037,1.829" transform="translate(-195.482 -137.595)" fill="#3a657b"/><path d="M277.984,180.323q-.018.862-.036,1.721a.464.464,0,0,0,.156.356.459.459,0,0,0,.3.106.472.472,0,0,0,.074.005,12.49,12.49,0,0,1,3.54,0,.708.708,0,0,0,.364-.1.463.463,0,0,0,.164-.342c0-.094,0-.188.006-.283.011-.48.021-.961.033-1.439a.462.462,0,0,0-.388-.468,11.8,11.8,0,0,0-1.895-.153,11.959,11.959,0,0,0-1.251.074c-.227.024-.454.047-.679.084a.461.461,0,0,0-.387.446" transform="translate(-201.864 -130.524)" fill="#5182c2"/><path d="M274.041,242.117q.128-6.292.256-12.586a.462.462,0,0,0-.462-.471H273.6a.463.463,0,0,0-.462.453q-.124,6.182-.25,12.364a7.949,7.949,0,0,1,.9.165c.09.023.172.05.257.075" transform="translate(-198.188 -166.359)" fill="#fff"/><path d="M274.628,217.786h-.238a.463.463,0,0,0-.463.453q-.018.915-.037,1.829a.462.462,0,0,0,.462.472h.238a.464.464,0,0,0,.462-.453q.018-.914.037-1.829a.462.462,0,0,0-.462-.472" transform="translate(-198.918 -158.171)" fill="#fff"/><path d="M291.991,254.159a2.645,2.645,0,0,1-.805.442,7,7,0,0,1-2.328.359,8.486,8.486,0,0,1-.956-.053,6.7,6.7,0,0,1-.853-.152,3.129,3.129,0,0,1-1.289-.594,1.051,1.051,0,0,1-.395-.784h0q-.1,4.446-.2,8.891v-.014h0a.46.46,0,0,1,.92.028h0l0,.01.075.086a1.651,1.651,0,0,0,.5.27,5.913,5.913,0,0,0,1.971.3,6.541,6.541,0,0,0,1.714-.211,1.86,1.86,0,0,0,.864-.428l.029-.045h0a.462.462,0,0,1,.923.028q.117-4.455.233-8.91h0a1.074,1.074,0,0,1-.414.778m-.221,5.723a.464.464,0,0,1-.161.339,2.433,2.433,0,0,1-.751.414,5.239,5.239,0,0,1-.983.245,7.788,7.788,0,0,1-2.322,0,5.086,5.086,0,0,1-.974-.246,2.32,2.32,0,0,1-.74-.419.462.462,0,0,1-.154-.355q.035-1.58.071-3.158a.463.463,0,0,1,.771-.334,1.448,1.448,0,0,0,.446.241,4.156,4.156,0,0,0,.8.2,6.613,6.613,0,0,0,1.017.076,6.714,6.714,0,0,0,1.022-.076,4.32,4.32,0,0,0,.809-.2,1.58,1.58,0,0,0,.468-.246.462.462,0,0,1,.763.362q-.041,1.58-.082,3.158" transform="translate(-207.108 -184.02)" fill="#56a4d0"/><path d="M285.912,253.009c0,.007-.006.014-.007.021l0,.045h0c0-.023.008-.044.01-.066" transform="translate(-207.641 -183.752)" fill="#56a4d0"/><path d="M285.892,253.307v0Z" transform="translate(-207.634 -183.969)" fill="#56a4d0"/><path d="M285.169,285.814h0Z" transform="translate(-207.109 -207.578)" fill="#56a4d0"/><path d="M296.016,250.949c.053.016.109.024.161.043a.894.894,0,0,1,.325.2.6.6,0,0,1,.116.192v0c.006.013.011.025.016.039s.012.025.014.036a.43.43,0,0,1,.014.113h0a.043.043,0,0,1,0,.009.547.547,0,0,1-.167.379.779.779,0,0,1-.194.137,1.6,1.6,0,0,1-.292.105c.231.022.471.039.723.038a6.592,6.592,0,0,0,1.724-.212,1.883,1.883,0,0,0,.87-.428l.025-.039h0l-.076-.085a1.664,1.664,0,0,0-.5-.27,5.994,5.994,0,0,0-1.985-.3,7.49,7.49,0,0,0-.773.042" transform="translate(-214.983 -182.226)" fill="#e4e4e5"/><path d="M289.39,253.031v-.015l0-.013h0a.025.025,0,0,1,0-.01l.01-.089.006,0,0-.016a.492.492,0,0,0-.107.1l-.024.038h0l.076.086c.013.011.039.025.055.037a.587.587,0,0,1-.021-.119Z" transform="translate(-210.096 -183.665)" fill="#e4e4e5"/><path d="M293.225,254.624h0v0Z" transform="translate(-212.96 -184.766)" fill="#e4e4e5"/><path d="M289.439,247.992v-.463a7,7,0,0,0-2.33.359,2.628,2.628,0,0,0-.805.442,1.3,1.3,0,0,0-.283.332.955.955,0,0,0-.116.367c0,.022-.009.043-.01.066h0v.014h0v.019a1.052,1.052,0,0,0,.395.784,3.128,3.128,0,0,0,1.289.594,6.734,6.734,0,0,0,.853.152,8.484,8.484,0,0,0,.956.053,7,7,0,0,0,2.328-.359,2.641,2.641,0,0,0,.805-.442,1.074,1.074,0,0,0,.414-.778h0v-.024a1.05,1.05,0,0,0-.395-.784,3.127,3.127,0,0,0-1.288-.593,7.313,7.313,0,0,0-1.318-.177c-.164-.009-.32-.027-.491-.027Zm1.985.761a1.658,1.658,0,0,1,.5.269l.076.086h0l-.025.039a1.876,1.876,0,0,1-.869.429,6.606,6.606,0,0,1-1.725.212c-.252,0-.492-.016-.723-.038-.022.006-.043.018-.065.023a3.063,3.063,0,0,1-.7.1v-.243h0v.243a1.27,1.27,0,0,1-.449-.079.863.863,0,0,1-.39-.281.665.665,0,0,1-.109-.257c-.016-.012-.043-.026-.055-.037l-.076-.086h0l.025-.038a.483.483,0,0,1,.107-.1.679.679,0,0,1,.117-.272.821.821,0,0,1,.253-.213,1.222,1.222,0,0,1,.591-.143,2.975,2.975,0,0,1,.754.127,7.489,7.489,0,0,1,.773-.042,5.994,5.994,0,0,1,1.985.3" transform="translate(-207.634 -179.772)" fill="#acadae"/><path d="M291.9,251.736a.547.547,0,0,0,.167-.379.013.013,0,0,0,0-.006v0a.429.429,0,0,0-.014-.113.32.32,0,0,0-.015-.036.365.365,0,0,0-.016-.039v0a.6.6,0,0,0-.116-.192.9.9,0,0,0-.325-.2c-.052-.019-.107-.027-.161-.043a2.985,2.985,0,0,0-.754-.127,1.222,1.222,0,0,0-.591.143.823.823,0,0,0-.253.213.678.678,0,0,0-.117.272l0,.016h-.007l-.01.083a.1.1,0,0,0,0,.015h0v.028h0a.58.58,0,0,0,.021.119.673.673,0,0,0,.109.258.859.859,0,0,0,.39.281,1.268,1.268,0,0,0,.449.079v0a3.074,3.074,0,0,0,.7-.1c.022-.006.043-.017.065-.024a1.592,1.592,0,0,0,.291-.105.777.777,0,0,0,.194-.137" transform="translate(-210.384 -182.001)" fill="#4b4648"/><path d="M291.721,284.21a.462.462,0,0,0-.472.445h0l-.029.045a1.863,1.863,0,0,1-.864.428,6.53,6.53,0,0,1-1.714.211,5.914,5.914,0,0,1-1.971-.3,1.65,1.65,0,0,1-.5-.27l-.075-.086,0-.01h0a.46.46,0,0,0-.92-.028h0v.034a.932.932,0,0,0,.132.469,1.249,1.249,0,0,0,.261.314,3.1,3.1,0,0,0,1.283.594,7.5,7.5,0,0,0,1.8.205,6.918,6.918,0,0,0,2.317-.359,2.624,2.624,0,0,0,.8-.442,1.072,1.072,0,0,0,.411-.779.462.462,0,0,0-.45-.474m-6.555.439h0Z" transform="translate(-207.106 -206.413)" fill="#acadae"/><path d="M292.965,263.917a.463.463,0,0,0-.5.067,1.572,1.572,0,0,1-.467.247,4.338,4.338,0,0,1-.809.2,6.683,6.683,0,0,1-1.022.076,6.583,6.583,0,0,1-1.017-.076,4.157,4.157,0,0,1-.8-.2,1.449,1.449,0,0,1-.446-.241.463.463,0,0,0-.771.334q-.036,1.579-.071,3.158a.461.461,0,0,0,.154.354,2.321,2.321,0,0,0,.74.419,5.108,5.108,0,0,0,.974.246,7.783,7.783,0,0,0,2.322,0,5.209,5.209,0,0,0,.983-.245,2.431,2.431,0,0,0,.751-.414.465.465,0,0,0,.161-.339q.041-1.578.082-3.158a.463.463,0,0,0-.264-.43" transform="translate(-208.484 -191.642)" fill="#fff"/><path d="M243.7,258.643a4.316,4.316,0,0,1-1.138-1.714h0a4.557,4.557,0,0,1-.3-1.591,3.248,3.248,0,0,1,.328-1.481,1.993,1.993,0,0,1,1.031-.973,1.806,1.806,0,0,1,.668-.126,2.511,2.511,0,0,1,1.637.7,4.3,4.3,0,0,1,1.139,1.715h0a4.577,4.577,0,0,1,.293,1.582,3.272,3.272,0,0,1-.329,1.487c-.021.041-.049.078-.072.118q.351-.063.733-.1l.012-.043.262-.123a.463.463,0,0,0,.2-.656l-.318-.53a5.468,5.468,0,0,0-.161-1.14l.16-.456a.462.462,0,0,0-.212-.558l-.4-.222a5.3,5.3,0,0,0-.622-.956l-.107-.616a.463.463,0,0,0-.6-.361l-.261.085a3.117,3.117,0,0,0-.738-.347l-.327-.475a.462.462,0,0,0-.8.072l-.148.327a2.113,2.113,0,0,0-.29.083,2.078,2.078,0,0,0-.263.136l-.317-.139a.462.462,0,0,0-.645.476l.066.576c-.022.038-.049.073-.07.113a3.409,3.409,0,0,0-.248.668l-.262.123a.463.463,0,0,0-.2.658l.32.53a5.457,5.457,0,0,0,.164,1.141l-.158.454a.463.463,0,0,0,.213.557l.4.222a5.332,5.332,0,0,0,.623.956l.108.617a.462.462,0,0,0,.6.36l.259-.084a3.224,3.224,0,0,0,.512.272,1.174,1.174,0,0,1,.359-.717,2.762,2.762,0,0,1-1.1-.616" transform="translate(-175.277 -182.769)" fill="#878788"/><path d="M252.65,282.252v0Z" transform="translate(-183.491 -204.991)" fill="#ab6354"/><path d="M252.648,282.322h0v0Z" transform="translate(-183.49 -205.042)" fill="#ab6354"/><path d="M260.455,283.262a3.119,3.119,0,0,1-.954.526,8.42,8.42,0,0,1-2.819.436,9.177,9.177,0,0,1-2.2-.25,3.745,3.745,0,0,1-1.541-.71,1.193,1.193,0,0,1-.448-.882h0v-.005h0q-.028,1.708-.057,3.416v0l.01-.086a.462.462,0,0,1,.546-.359.456.456,0,0,1,.36.457h.009v.005c0,.014.006.076.135.192a2.128,2.128,0,0,0,.651.353,7.38,7.38,0,0,0,2.468.376,8.339,8.339,0,0,0,1.983-.224,3.013,3.013,0,0,0,1.178-.514.792.792,0,0,0,.08-.079c.06-.07.066-.111.066-.123h0a.462.462,0,1,1,.924.02l.043-1.99q.016-.723.031-1.445a1.213,1.213,0,0,1-.467.882" transform="translate(-183.337 -205.081)" fill="#ab6354"/><path d="M256.814,280.436a7.417,7.417,0,0,0,2.474.376,8.368,8.368,0,0,0,1.989-.224,3.026,3.026,0,0,0,1.181-.514c.131-.114.145-.181.145-.2v0c0-.014-.006-.075-.135-.191a2.148,2.148,0,0,0-.652-.353,7.414,7.414,0,0,0-2.475-.375,8.4,8.4,0,0,0-1.991.224,3.026,3.026,0,0,0-1.18.514c-.135.119-.145.186-.144.2v0c0,.014.007.075.135.191a2.141,2.141,0,0,0,.653.353" transform="translate(-185.943 -202.594)" fill="#5c5b5c"/><path d="M246.9,262.99a1.193,1.193,0,0,0,.448.882,3.744,3.744,0,0,0,1.541.71,9.174,9.174,0,0,0,2.2.25,8.419,8.419,0,0,0,2.819-.436,3.11,3.11,0,0,0,.955-.526,1.213,1.213,0,0,0,.467-.882h0v-.051h0a1.2,1.2,0,0,0-.444-.856,3.437,3.437,0,0,0-1.283-.634c-.085-.025-.167-.052-.257-.075a8.009,8.009,0,0,0-.9-.164,9.938,9.938,0,0,0-1.02-.077c-.093,0-.184-.008-.28-.008v0c-.339,0-.664.021-.98.051q-.381.037-.732.1c.023-.04.051-.077.072-.118a3.267,3.267,0,0,0,.329-1.486,4.572,4.572,0,0,0-.293-1.582h0a4.306,4.306,0,0,0-1.139-1.715,2.512,2.512,0,0,0-1.638-.7,1.8,1.8,0,0,0-.668.126,1.993,1.993,0,0,0-1.031.973,3.253,3.253,0,0,0-.328,1.482,4.563,4.563,0,0,0,.3,1.591h0a4.317,4.317,0,0,0,1.138,1.714,2.762,2.762,0,0,0,1.105.616,1.174,1.174,0,0,0-.36.717c0,.012,0,.023-.005.035h0v.039h0v.021Zm.924-.005c0-.014.009-.081.144-.2a3.019,3.019,0,0,1,1.18-.514,8.381,8.381,0,0,1,1.991-.224,7.414,7.414,0,0,1,2.475.375,2.148,2.148,0,0,1,.652.353c.129.116.135.177.135.191v0c0,.018-.015.085-.145.2a3.026,3.026,0,0,1-1.181.514,8.35,8.35,0,0,1-1.989.224,7.418,7.418,0,0,1-2.474-.376,2.14,2.14,0,0,1-.653-.353c-.129-.116-.136-.177-.135-.191Z" transform="translate(-177.737 -185.689)" fill="#acadae"/><path d="M260.4,293.21a.463.463,0,0,0-.472.452h0c0,.011-.005.053-.065.123a.815.815,0,0,1-.08.079,3.017,3.017,0,0,1-1.178.514,8.34,8.34,0,0,1-1.983.224,7.379,7.379,0,0,1-2.468-.376,2.135,2.135,0,0,1-.651-.353c-.129-.116-.135-.178-.135-.192v-.005h-.009a.456.456,0,0,0-.36-.457.462.462,0,0,0-.546.359l-.01.086v.017h0a1.191,1.191,0,0,0,.449.885,3.74,3.74,0,0,0,1.538.71,9.141,9.141,0,0,0,2.192.25,8.379,8.379,0,0,0,2.813-.437,3.1,3.1,0,0,0,.953-.526,1.214,1.214,0,0,0,.466-.881.462.462,0,0,0-.452-.473" transform="translate(-183.336 -212.949)" fill="#905347"/><path d="M316.58,286.772v0h0Z" transform="translate(-229.922 -208.271)" fill="#98b5c8"/><path d="M320.743,240.425c0-.105.006-.21.009-.315a.446.446,0,0,1-.06.012h-1.749a.453.453,0,0,1-.087-.018c0,.1-.006.209-.009.314a2.612,2.612,0,0,0-1.047.688,3.082,3.082,0,0,0-.772,2v0l0,.086c0,.109.007.214.016.316h0q.044.892.043,1.784a70.291,70.291,0,0,1-.519,7.586l-.006.09a.89.89,0,0,0,.167.511.865.865,0,0,0,.446.328,7.542,7.542,0,0,0,2.235.337,7.732,7.732,0,0,0,2.251-.336h0a.925.925,0,0,0,.636-.86v-.012h0v-.028c-.081-1.6-.151-3.221-.151-4.858a41.781,41.781,0,0,1,.222-4.515h0a3.694,3.694,0,0,0,.038-.4v0l0-.1a2.91,2.91,0,0,0-.7-1.949,2.443,2.443,0,0,0-.966-.655m-2.569,12.952c-.079.01-.16.022-.241.036a.463.463,0,0,1-.538-.487c.16-2.37.223-3.9.223-5.947,0-.5,0-1.022-.01-1.6a.462.462,0,0,1,.539-.461c.082.014.16.026.239.036a.461.461,0,0,1,.4.444c.037,1.206.059,2.067.059,2.827,0,1.423-.078,2.48-.273,4.73a.464.464,0,0,1-.4.419m1.793.086a.463.463,0,0,1-.33.132h-.426a.462.462,0,0,1-.468-.486c.23-4.464.2-3.447.23-7.91a.462.462,0,0,1,.468-.459h.429a.463.463,0,0,1,.468.486c-.23,4.464-.2,3.447-.232,7.911a.461.461,0,0,1-.138.327m1.49-1.9c0,.436,0,.9.007,1.394a.462.462,0,0,1-.54.461c-.079-.013-.16-.025-.238-.036a.463.463,0,0,1-.4-.445c-.034-1.18-.055-2.029-.055-2.778,0-1.448.078-2.5.282-4.78a.462.462,0,0,1,.4-.417c.079-.01.161-.022.242-.036a.462.462,0,0,1,.537.489c-.172,2.447-.235,4-.235,6.149" transform="translate(-229.908 -174.38)" fill="#98b5c8"/><path d="M321,258.164a.461.461,0,0,0-.4-.444c-.078-.01-.157-.022-.239-.036a.462.462,0,0,0-.539.461c.007.575.011,1.1.011,1.6,0,2.043-.063,3.577-.224,5.947a.463.463,0,0,0,.538.488c.082-.014.162-.026.241-.036a.464.464,0,0,0,.4-.419c.195-2.25.273-3.307.273-4.73,0-.76-.022-1.621-.059-2.827" transform="translate(-232.119 -187.143)" fill="#cee4f1"/><path d="M326,257.178a.465.465,0,0,0-.339-.142h-.429a.463.463,0,0,0-.468.459c-.029,4.464,0,3.447-.23,7.911a.462.462,0,0,0,.468.486h.426a.462.462,0,0,0,.468-.459c.031-4.463,0-3.447.232-7.91a.466.466,0,0,0-.129-.344" transform="translate(-235.697 -186.677)" fill="#c0e2ee"/><path d="M330.889,257.683c-.081.014-.163.026-.243.036a.463.463,0,0,0-.4.417c-.2,2.276-.282,3.332-.282,4.78,0,.749.021,1.6.055,2.778a.463.463,0,0,0,.4.445c.079.011.159.023.238.036a.462.462,0,0,0,.54-.461c-.005-.5-.007-.957-.007-1.394,0-2.146.062-3.7.235-6.149a.462.462,0,0,0-.537-.489" transform="translate(-239.642 -187.143)" fill="#cee4f1"/><path d="M325.785,233.879a.442.442,0,0,0,.06-.012.457.457,0,0,0,.4-.437q.022-.723.043-1.446a.462.462,0,0,0-.462-.476h-1.751a.463.463,0,0,0-.462.449q-.021.723-.042,1.446a.461.461,0,0,0,.131.335.455.455,0,0,0,.245.123.475.475,0,0,0,.087.018Zm-1.978-.546a.229.229,0,0,0,.012-.426.23.23,0,0,0,.012-.426.229.229,0,0,0,.012-.426.231.231,0,0,1,.231-.231h1.75a.884.884,0,0,0,.218.658.23.23,0,0,0-.013.426.229.229,0,0,0-.013.426.231.231,0,0,1-.231.231h-1.749a.231.231,0,0,1-.231-.231" transform="translate(-235.001 -168.137)" fill="#7b91a4"/><path d="M326.408,234.4a.885.885,0,0,1,.244-.657.23.23,0,0,1,.013-.426.229.229,0,0,1,.013-.426.231.231,0,0,0-.231-.231H324.7a.888.888,0,0,1-.243.657.23.23,0,0,1-.012.426.229.229,0,0,1-.012.426.231.231,0,0,0,.231.231Z" transform="translate(-235.622 -168.972)" fill="#597c94"/><path d="M59.947,245.906H55.665q-.292-5.417-.584-10.833H70.97q.032.978.065,1.957.148,4.438.3,8.876H69.921" transform="translate(-40.004 -170.726)" fill="#b4834e"/><path d="M36.96,229.814H49.8l.681.17,1.438.359.564.14H36.6q-3.476-.865-6.966-1.73h4.444l.015.26,2.869.8" transform="translate(-21.521 -166.137)" fill="#c99b69"/><path d="M33.922,240.5l3.26.821q-.292-5.417-.584-10.833-3.475-.865-6.966-1.73l.132,2.107.16,2.541.389,5.9Z" transform="translate(-21.52 -166.137)" fill="#9b6b39"/><path d="M67.951,208.39H55.107q-.244-4.567-.488-9.135H68.187l.33,9.135Z" transform="translate(-39.668 -144.713)" fill="#b4834e"/><path d="M47.407,206.267l-2.869-.8-.015-.26q-.253-4.437-.507-8.875l2.9.8q.244,4.567.488,9.135" transform="translate(-31.968 -142.59)" fill="#9b6b39"/><path d="M57.643,196.313l.21.058,1.46.4,1.219.338H46.964l-2.9-.8H57.643Z" transform="translate(-32.001 -142.576)" fill="#c99b69"/><path d="M66.821,191.162q.012.219.024.438h3.037q-.011-.219-.023-.438Z" transform="translate(-48.53 -138.835)" fill="#474645"/><path d="M60.03,195.983h5.688l-.007-.132-.034-.711H57.322l.042.711c0,.044.005.088.008.132Z" transform="translate(-41.631 -141.723)" fill="#474645"/><path d="M48.374,164.538q.01.18.02.361.02.364.041.728h3.034l-.034-.651H48.4q-.012-.219-.024-.438h9.348l-.054-1.235-.386-8.8H41.422q.321,5.017.642,10.035h6.31Zm-5.5-.895q-.259-4.122-.519-8.245H56.445l.371,8.245Z" transform="translate(-30.083 -112.211)" fill="#5f5e5e"/><path d="M58.923,157.772H44.835q.259,4.122.519,8.245H59.294q-.185-4.122-.371-8.245" transform="translate(-32.562 -114.585)" fill="#58aad1"/><path d="M116.02,208.9h0Z" transform="translate(-84.261 -151.714)" fill="#3799d4"/><path d="M17.553,284.351a4.844,4.844,0,0,1-1.357.574,15.236,15.236,0,0,1-3.95.462,17.776,17.776,0,0,1-2.78-.207,8.59,8.59,0,0,1-2.126-.581,2.538,2.538,0,0,1-.986-.714,1.37,1.37,0,0,1-.264-.585,1.134,1.134,0,0,0-.011.118v.048h0v.016h0a1.335,1.335,0,0,0,.284.743,2.537,2.537,0,0,0,.986.714,8.594,8.594,0,0,0,2.125.581,17.812,17.812,0,0,0,2.78.207,15.247,15.247,0,0,0,3.949-.462,4.855,4.855,0,0,0,1.356-.574,1.975,1.975,0,0,0,.512-.474,1.311,1.311,0,0,0,.261-.772v-.034l-.053,0a1.361,1.361,0,0,1-.217.464,1.976,1.976,0,0,1-.512.474" transform="translate(-4.416 -205.751)" fill="#466784"/><path d="M17.784,278.772v.009a1.2,1.2,0,0,1-.275.749,1.829,1.829,0,0,1-.491.414,4.7,4.7,0,0,1-1.242.476,15.227,15.227,0,0,1-3.589.38,18.278,18.278,0,0,1-2.236-.132,10.431,10.431,0,0,1-1.8-.368,3.988,3.988,0,0,1-.911-.4,1.831,1.831,0,0,1-.431-.364,1.215,1.215,0,0,1-.3-.722h0V278.8h0v-.043a1.182,1.182,0,0,1,.247-.71,1.91,1.91,0,0,0-.461.434,1.31,1.31,0,0,0-.261.772v.048a1.161,1.161,0,0,0,.022.174,1.367,1.367,0,0,0,.264.586,2.535,2.535,0,0,0,.986.714,8.589,8.589,0,0,0,2.126.581,17.781,17.781,0,0,0,2.78.207,15.237,15.237,0,0,0,3.95-.462,4.844,4.844,0,0,0,1.357-.574,1.968,1.968,0,0,0,.512-.474,1.356,1.356,0,0,0,.217-.463,1.241,1.241,0,0,0,.032-.179,1.112,1.112,0,0,0,.012-.129v-.034a1.328,1.328,0,0,0-.281-.765,1.97,1.97,0,0,0-.45-.42c-.016-.011-.034-.018-.05-.028a1.2,1.2,0,0,1,.273.713Z" transform="translate(-4.382 -201.929)" fill="#7299b3"/><path d="M13.962,275.864q-.284.028-.569.028t-.57-.028a.806.806,0,0,1-.727-.774q-.027-.81-.054-1.621a13.147,13.147,0,0,0-2.268.333,4.7,4.7,0,0,0-1.241.475,1.831,1.831,0,0,0-.491.413c-.01.012-.018.027-.027.039a1.181,1.181,0,0,0-.247.71v.043h0v.013h0a1.215,1.215,0,0,0,.3.722,1.824,1.824,0,0,0,.431.364,3.973,3.973,0,0,0,.911.4,10.428,10.428,0,0,0,1.8.368,18.224,18.224,0,0,0,2.236.132,15.223,15.223,0,0,0,3.589-.38,4.7,4.7,0,0,0,1.242-.477,1.828,1.828,0,0,0,.491-.414,1.2,1.2,0,0,0,.275-.75v-.032a1.2,1.2,0,0,0-.273-.713c-.007-.009-.013-.019-.02-.028a1.821,1.821,0,0,0-.431-.366,3.957,3.957,0,0,0-.91-.4,10.431,10.431,0,0,0-1.8-.368c-.308-.038-.633-.067-.968-.09q.026.785.052,1.571a.8.8,0,0,1-.726.828m-1.272.826h0a.416.416,0,0,1-.116.281.411.411,0,0,1-.295.125.422.422,0,0,1-.419-.4h0v0h0v-.006h0v-.016a.412.412,0,0,1,.413-.414.424.424,0,0,1,.422.406v.027Zm1.174-.009a.415.415,0,0,1-.413.414.421.421,0,0,1-.418-.395h0v-.014h0v-.013a.413.413,0,0,1,.413-.416.424.424,0,0,1,.422.409v.016Zm1.192-.017v.016a.418.418,0,0,1-.118.291.411.411,0,0,1-.294.124.422.422,0,0,1-.419-.395h0v0h0v0h0v-.007h0v-.017a.414.414,0,0,1,.413-.415.424.424,0,0,1,.422.408" transform="translate(-5.641 -198.609)" fill="#b5d6e6"/><path d="M24.838,261.8c-.189.018-.38.028-.57.028s-.381-.009-.571-.028a.806.806,0,0,1-.727-.774q.057,1.685.114,3.37.027.811.054,1.621a.806.806,0,0,0,.727.774c.189.019.38.028.57.028s.38-.009.569-.028a.8.8,0,0,0,.726-.828q-.026-.785-.052-1.571-.056-1.711-.112-3.421h0a.8.8,0,0,1-.727.828" transform="translate(-16.682 -189.533)" fill="#7299b3"/><path d="M22.865,258.055q.014.422.028.846a.806.806,0,0,0,.727.774c.19.018.381.028.571.028s.381-.009.57-.028a.8.8,0,0,0,.727-.828h0l-.026-.8a7.152,7.152,0,0,1-1.322.127,7.29,7.29,0,0,1-1.276-.12" transform="translate(-16.606 -187.412)" fill="#466784"/><path d="M14.632,212.422c0-.065,0-.131,0-.2l-.805.021.805-.021A7.559,7.559,0,0,0,7.1,204.909a7.09,7.09,0,0,0-5.04,2.061,7,7,0,0,0-1.729,2.854c0,.006,0,.012-.007.019A7.147,7.147,0,0,0,0,211.979q0,.151.006.3h0a7.535,7.535,0,0,0,.582,2.6,7.441,7.441,0,0,0,2.474,3.188,7.481,7.481,0,0,0,3.2,1.4,7.313,7.313,0,0,0,1.276.119,7.124,7.124,0,0,0,1.322-.127,7.217,7.217,0,0,0,3.713-1.968,7.178,7.178,0,0,0,2.062-5.065m-2.811,4.32A6.05,6.05,0,0,1,7.5,218.537,6.413,6.413,0,0,1,3.034,216.7a6.53,6.53,0,0,1-1.987-4.425c0-.083-.005-.166-.005-.25a6.045,6.045,0,0,1,6.093-6.074,6.483,6.483,0,0,1,6.454,6.27l-.8.022.8-.022q0,.09,0,.179a6.145,6.145,0,0,1-1.77,4.34" transform="translate(0 -148.819)" fill="#7299b3"/><path d="M16.353,214.995l-.8.022.8-.022a6.482,6.482,0,0,0-6.453-6.27A6.044,6.044,0,0,0,3.807,214.8c0,.084,0,.167,0,.25A6.53,6.53,0,0,0,5.8,219.474a6.412,6.412,0,0,0,4.466,1.835,6.051,6.051,0,0,0,4.321-1.794,6.146,6.146,0,0,0,1.77-4.341c0-.059,0-.119,0-.179m-1.1,1.117a.476.476,0,0,1-.108.178,4.987,4.987,0,0,1-4.886,3.932,5.269,5.269,0,0,1-3.062-1l-.227-.106a.79.79,0,0,1-.265-.187.48.48,0,0,1-.1-.189A5.428,5.428,0,0,1,4.9,215.017a4.967,4.967,0,0,1,2.965-4.78l.142-.1H8a.675.675,0,0,1,.387-.143.425.425,0,0,1,.116.016,5.126,5.126,0,0,1,1.4-.2,5.338,5.338,0,0,1,5.343,5.773c.008.075.015.144.022.2l.007.116a.661.661,0,0,1-.031.209" transform="translate(-2.765 -151.59)" fill="#b5d6e6"/><path d="M23.735,234.944a1.847,1.847,0,0,1-.474-.085c-.167-.047-.349-.106-.546-.163a4.61,4.61,0,0,0-1.291-.225c-.075,0-.15,0-.225.01l-.024-.281.024.281c-.223.019-.421.036-.6.05a2.125,2.125,0,0,1,.3,1.066,2.2,2.2,0,0,1-.193.885A3.144,3.144,0,0,1,19.6,237.9a2.4,2.4,0,0,1-1.353.392,5,5,0,0,1-2.067-.565,5.269,5.269,0,0,0,3.062,1,4.988,4.988,0,0,0,4.886-3.932s-.008.011-.013.016a.535.535,0,0,1-.38.137" transform="translate(-11.752 -170.091)" fill="#fff"/><path d="M21.377,213.3a5.2,5.2,0,0,1,.2.668,4.729,4.729,0,0,0,.673,1.617l-.228.166.228-.166c.138.19.262.359.373.515.014-.024.022-.049.037-.072a2.011,2.011,0,0,1,1.6-.948q.2-.017.387-.017a2.957,2.957,0,0,1,1.666.452,2.7,2.7,0,0,1,.92,1.064,5.5,5.5,0,0,1,.484,1.894,5.338,5.338,0,0,0-5.343-5.773,5.126,5.126,0,0,0-1.4.2.5.5,0,0,1,.23.134.857.857,0,0,1,.17.269" transform="translate(-15.235 -154.474)" fill="#fff"/><path d="M9.549,222.328a1.433,1.433,0,0,1,.171-.229c.131-.146.292-.294.463-.463a4.074,4.074,0,0,0,.943-1.249c.09-.209.171-.4.246-.566a2.153,2.153,0,0,1-1.75-.935,3.248,3.248,0,0,1-.716-1.91,2.745,2.745,0,0,1,.809-1.866,6.245,6.245,0,0,1,1.028-.863,4.967,4.967,0,0,0-2.965,4.78,5.428,5.428,0,0,0,1.707,3.728.448.448,0,0,1-.025-.129.6.6,0,0,1,.088-.3" transform="translate(-5.646 -155.602)" fill="#fff"/><path d="M21.137,218.951a5.5,5.5,0,0,0-.484-1.894,2.7,2.7,0,0,0-.92-1.064,2.958,2.958,0,0,0-1.666-.452c-.124,0-.253.005-.387.016a2.012,2.012,0,0,0-1.6.948c-.014.023-.023.049-.036.072-.111-.156-.235-.325-.373-.515l-.228.166.228-.166A4.731,4.731,0,0,1,15,214.447a5.2,5.2,0,0,0-.2-.668.864.864,0,0,0-.17-.269.5.5,0,0,0-.23-.134.424.424,0,0,0-.116-.016.674.674,0,0,0-.387.143l-.142.1a6.225,6.225,0,0,0-1.028.862,2.747,2.747,0,0,0-.808,1.866,3.247,3.247,0,0,0,.715,1.91,2.154,2.154,0,0,0,1.75.935c-.076.17-.156.357-.247.566a4.069,4.069,0,0,1-.942,1.249c-.172.168-.333.317-.463.463a1.435,1.435,0,0,0-.171.229.6.6,0,0,0-.088.3.442.442,0,0,0,.025.129.481.481,0,0,0,.1.189.785.785,0,0,0,.265.187l.227.106a5,5,0,0,0,2.067.565,2.4,2.4,0,0,0,1.352-.392,3.142,3.142,0,0,0,1.106-1.42,2.2,2.2,0,0,0,.192-.885,2.124,2.124,0,0,0-.3-1.065c.183-.014.381-.032.6-.05l-.024-.281.024.281c.074-.006.15-.009.225-.009a4.6,4.6,0,0,1,1.291.225c.2.058.379.117.546.164a1.837,1.837,0,0,0,.474.084.535.535,0,0,0,.38-.137s.008-.011.013-.016a.48.48,0,0,0,.108-.179.659.659,0,0,0,.031-.209l-.007-.117c-.007-.058-.014-.127-.022-.2m-4.251.35a1.248,1.248,0,0,1-.889.368,1.32,1.32,0,0,1-1.311-1.272v-.045a1.249,1.249,0,0,1,1.254-1.255,1.319,1.319,0,0,1,1.311,1.273v.042a1.255,1.255,0,0,1-.364.889" transform="translate(-8.651 -154.956)" fill="#3799d4"/><path d="M24.611,228.286a1.319,1.319,0,0,0-1.311-1.273,1.248,1.248,0,0,0-1.254,1.255v.045a1.32,1.32,0,0,0,1.311,1.271,1.25,1.25,0,0,0,1.253-1.257v-.042Z" transform="translate(-16.011 -164.872)" fill="#fff"/><path d="M27.4,283.662a.413.413,0,0,0-.295.124.417.417,0,0,0-.118.292v.013h0v.014h0a.421.421,0,0,0,.418.395.415.415,0,0,0,.413-.414v-.017a.424.424,0,0,0-.422-.409" transform="translate(-19.601 -206.015)" fill="#fff"/><path d="M23.116,283.662a.413.413,0,0,0-.413.414v.016h0v.006h0v0h0a.422.422,0,0,0,.419.4.41.41,0,0,0,.295-.125.416.416,0,0,0,.116-.281h0v-.027a.424.424,0,0,0-.422-.406" transform="translate(-16.488 -206.015)" fill="#fff"/><path d="M31.463,283.785a.416.416,0,0,0-.119.292v.017h0v.007h0v0h0v0h0a.422.422,0,0,0,.419.395.411.411,0,0,0,.294-.124.415.415,0,0,0,.118-.291v-.016a.424.424,0,0,0-.421-.408.413.413,0,0,0-.294.123" transform="translate(-22.764 -206.015)" fill="#d54859"/><path d="M208.54,190.437c.186-.055.371-.114.557-.158l-.237-.24-.365.367.045.03" transform="translate(-151.423 -138.02)" fill="#d4d5d5"/><path d="M208.262,172.688l-.761-.775-.259.26.762.775.258-.259" transform="translate(-150.513 -124.855)" fill="#d4d5d5"/><path d="M205.57,175.389l-.762-.775-.259.259.763.774.258-.259" transform="translate(-148.557 -126.817)" fill="#d4d5d5"/><path d="M212.138,188.112c.092-.014.184-.035.276-.046l.118-.119-.676-.687-.28.281.563.57" transform="translate(-153.66 -136.002)" fill="#d4d5d5"/><path d="M207.265,183.169l.28-.282-.969-.984-.282.282.97.983" transform="translate(-149.826 -132.111)" fill="#d4d5d5"/><path d="M203.3,186.135l.462-.464-.97-.983-.66.662,1.168.785" transform="translate(-146.806 -134.133)" fill="#d4d5d5"/><path d="M210.956,169.988l-.76-.776-.26.26.761.775.259-.259" transform="translate(-152.47 -122.893)" fill="#d4d5d5"/><path d="M220.387,180.128l.256-.257-.674-.688-.257.258.675.688" transform="translate(-159.57 -130.135)" fill="#d4d5d5"/><path d="M124.669,224.251a8.021,8.021,0,0,1,3.057.679l.244-.5a8.81,8.81,0,0,0-6.91.052l.324.393a7.97,7.97,0,0,1,3.284-.627" transform="translate(-87.923 -162.505)" fill="#d4d5d5"/><path d="M210.04,180.451l.257-.258-.968-.984-.258.258.969.984" transform="translate(-151.842 -130.154)" fill="#d4d5d5"/><path d="M149.486,239.977l1.153-.431c-.087-.12-.173-.24-.267-.354l-.886.785" transform="translate(-108.567 -173.718)" fill="#d4d5d5"/><path d="M202.815,178.087l-.763-.774-.283.284.763.774.282-.283" transform="translate(-146.538 -128.777)" fill="#d4d5d5"/><path d="M141.143,233.265q-.844,1.719-1.681,3.433l1.073-.4,2.126-1.884a6.81,6.81,0,0,0-1.518-1.148" transform="translate(-101.287 -169.413)" fill="#d4d5d5"/><path d="M215.416,175.057l.257-.258-.965-.986-.258.259.967.985" transform="translate(-155.747 -126.235)" fill="#d4d5d5"/><path d="M154.884,252.875l-1.265.391,1.285.079c0-.158-.008-.314-.02-.469" transform="translate(-111.569 -183.655)" fill="#d4d5d5"/><path d="M212.728,177.755l.257-.258-.967-.985-.258.259.968.984" transform="translate(-153.795 -128.195)" fill="#d4d5d5"/><path d="M215.022,185.513l.256-.256-.676-.687-.256.257.676.687" transform="translate(-155.673 -134.047)" fill="#d4d5d5"/><path d="M217.7,182.821l.256-.257-.675-.688-.257.258.676.687" transform="translate(-157.62 -132.091)" fill="#d4d5d5"/><path d="M135.654,230.32q-.115,2.329-.219,4.65l.179-.067q.977-2.043,1.958-4.089a6.726,6.726,0,0,0-1.918-.494" transform="translate(-98.362 -167.274)" fill="#d4d5d5"/><path d="M147.416,256.444c-.994-.063-1.993-.122-2.989-.183l-1.076.333q1.8.86,3.6,1.721a6.416,6.416,0,0,0,.464-1.871" transform="translate(-104.111 -186.114)" fill="#d4d5d5"/><path d="M198.364,180.876l-.763-.774-.913.915.919.618.757-.759" transform="translate(-142.848 -130.802)" fill="#d4d5d5"/><path d="M114.864,228.335a7.064,7.064,0,0,0-7.29,6.945,7.3,7.3,0,0,0,7.177,7.227,6.959,6.959,0,0,0,7.22-6.889,7.159,7.159,0,0,0-.03-.721l-.5.154c.011.155.019.312.02.469l-1.285-.079-1.735.536c1,.061,1.995.12,2.989.183a6.416,6.416,0,0,1-.464,1.871q-1.8-.863-3.6-1.721l-.9.279q2.117,1.009,4.229,2.021a6.4,6.4,0,0,1-1.154,1.534q-1.608-1.756-3.219-3.511l-.331.1a2.514,2.514,0,0,1-2.181.01q-1.064,2.231-2.123,4.458a6.907,6.907,0,0,1-1.6-1.172l3.718-3.294a1.4,1.4,0,0,1-.44-.466l-3.714,3.29a6.674,6.674,0,0,1-1.036-1.67q2.376-.817,4.745-1.628a1.744,1.744,0,0,1-.225-.6q-2.37.812-4.744,1.628a6.452,6.452,0,0,1-.278-1.417q-.021-.248-.022-.5l.606.035q2.222.123,4.436.252a1.36,1.36,0,0,1,.017-.641q-1.849-.107-3.7-.21l-1.328-.076a6.359,6.359,0,0,1,.469-1.876l.951.449.992.469q1.311.618,2.62,1.238a2.112,2.112,0,0,1,1.38-1.227q-.857-2.34-1.71-4.683a6.712,6.712,0,0,1,1.96-.264q-.122,2.474-.233,4.94c.1-.042.2-.085.314-.125l.339-.127q.107-2.323.219-4.651a6.726,6.726,0,0,1,1.918.494q-.983,2.048-1.958,4.089h0q1.105-2.26,2.216-4.524a7.252,7.252,0,0,0-2.732-.6m4.2,12.235a6.506,6.506,0,0,1-1.672.974q-.869-2.34-1.731-4.686,1.7,1.857,3.4,3.712m-4.019-3.527q.867,2.356,1.739,4.707a6.751,6.751,0,0,1-1.949.258q.1-2.478.209-4.965m-.639-.052q-.108,2.492-.21,4.978a6.889,6.889,0,0,1-1.927-.491q1.064-2.24,2.136-4.487m-3.5-3.746c-.681-.321-1.36-.644-2.043-.965a6.512,6.512,0,0,1,1.174-1.552l1.5,1.633,1.91,2.083q-1.268-.6-2.538-1.2m1.812-2.551q.608,1.671,1.219,3.34l-2.023-2.207-1.4-1.524a6.646,6.646,0,0,1,1.7-.991c.168.462.337.921.5,1.382" transform="translate(-78.127 -165.831)" fill="#807878"/><path d="M144.208,231.629l-.22.448a6.792,6.792,0,0,1,1.518,1.148l-2.126,1.884,1.671-.625.886-.785c.094.114.181.234.267.354l.486-.181a7.317,7.317,0,0,0-2.482-2.242" transform="translate(-104.132 -168.225)" fill="#807878"/><path d="M146.74,229.154l-.333.677a7.317,7.317,0,0,1,2.482,2.242l.734-.275a8.093,8.093,0,0,0-2.883-2.645" transform="translate(-106.331 -166.427)" fill="#3c3939"/><path d="M119.927,233.607a6.959,6.959,0,0,1-7.22,6.889,7.3,7.3,0,0,1-7.177-7.227,7.064,7.064,0,0,1,7.29-6.945,7.253,7.253,0,0,1,2.732.6l.335-.68a8.006,8.006,0,0,0-6.34-.051,7.872,7.872,0,0,0-3.672,3.157,7.585,7.585,0,0,0-1.115,3.9,7.676,7.676,0,0,0,.146,1.535,8.133,8.133,0,0,0,7.8,6.458,7.693,7.693,0,0,0,7.984-7.618,7.894,7.894,0,0,0-.057-.97l-.735.227a7.152,7.152,0,0,1,.03.721" transform="translate(-76.083 -163.82)" fill="#3c3939"/><path d="M121.143,174.371l-.178.061.583.85q.98,1.432,1.962,2.862l-2.248.766a.642.642,0,0,0-.417.462q-1.284,5.543-2.522,11.05a2.841,2.841,0,0,0-.8.077q-2.3-3.6-4.59-7.2l-.555.388.419.658s0,0,0,.005q-.692,1.4-1.378,2.8a10.149,10.149,0,0,0-10.239,1.382,9.937,9.937,0,0,0-1.818,1.892,9.628,9.628,0,0,0-1.875,5.653.641.641,0,1,0,1.282.008,8.323,8.323,0,0,1,1.447-4.636,8.653,8.653,0,0,1,1.763-1.916,8.808,8.808,0,0,1,8.872-1.232l-.244.5-.334.68q-1.112,2.265-2.216,4.524h0l-.179.067-.339.127c-.114.039-.211.083-.314.125l-.018.007a2.112,2.112,0,0,0-1.38,1.227v0a1.36,1.36,0,0,0-.018.643v0a1.946,1.946,0,0,0,.077.291,1.926,1.926,0,0,0,.148.309l0,.006a1.4,1.4,0,0,0,.442.469l.01.008a2.514,2.514,0,0,0,2.181-.01l.331-.1.143-.044.9-.279,1.076-.333,1.735-.536,1.265-.391.5-.154.735-.227c1.032-.318,2.069-.641,3.1-.957l.038-.015-.134-.508a1.437,1.437,0,0,1-.158.011,1.467,1.467,0,0,1-1.424-1.473,1.41,1.41,0,0,1,1.459-1.391,1.467,1.467,0,0,1,1.421,1.476,1.4,1.4,0,0,1-.861,1.275l.115.436a1.835,1.835,0,0,0,1.092-2.383,1.989,1.989,0,0,0-.471-.753q1.226-5.444,2.492-10.921l2.249-.766.691,1.008c-.118.086-.24.168-.354.258a9.869,9.869,0,0,0-3.122,11.047.641.641,0,0,0,1.207-.432h0a8.588,8.588,0,0,1,2.714-9.613c.09-.071.186-.135.279-.2q2.387,3.483,4.774,6.965a.353.353,0,1,0,.582-.4q-2.388-3.477-4.77-6.958a8.554,8.554,0,0,1,1.715-.811c.157-.053.316-.09.474-.134l-1.071-.72-.733.735a.338.338,0,1,1-.48-.478l.023-.023c-.224.116-.441.241-.654.373l-.764-1.115a.633.633,0,0,0-.527-.768q-1.072-1.566-2.146-3.132l-.575-.837a.635.635,0,0,1-.384.367M108.73,196.007a1.237,1.237,0,0,1-1.281,1.221,1.287,1.287,0,0,1-1.263-1.281,1.24,1.24,0,0,1,1.283-1.223,1.3,1.3,0,0,1,.213.026l-.527,1.078a.339.339,0,0,0,.609.3c.175-.358.351-.718.527-1.076a1.26,1.26,0,0,1,.44.958m5.359-4.262-.735.275-.486.181-1.153.431-1.671.625-1.073.4q.84-1.715,1.681-3.433l.22-.448.333-.677.253-.514a8.9,8.9,0,0,1,2.368,1.735.641.641,0,1,0,.921-.892,10.163,10.163,0,0,0-2.724-1.993q.6-1.215,1.2-2.429,1.816,2.853,3.634,5.7l-2.764,1.033" transform="translate(-70.797 -126.374)" fill="#d7563f"/><path d="M169.159,237.142a.224.224,0,0,1,.434-.113q.18.688.362,1.375a1.4,1.4,0,0,0,.861-1.275,1.466,1.466,0,0,0-1.421-1.475,1.41,1.41,0,0,0-1.458,1.391,1.467,1.467,0,0,0,1.424,1.473,1.373,1.373,0,0,0,.158-.011Q169.339,237.823,169.159,237.142Z" transform="translate(-121.966 -171.146)" fill="#3a3736"/><path d="M141.34,201.161l1.5-1.05.555-.388,1.406-.984c.938-.655,1.538-1.867,1.007-2.081a.49.49,0,0,0-.189-.036,5.014,5.014,0,0,0-1.49.343l-2.926.912c-1.46.5-2.029,1-1.671,2.006.205.576.29,1.075.6,1.3.23.169.584.189,1.206-.025" transform="translate(-101.264 -142.8)" fill="#524e4e"/><path d="M172.82,240.236a.224.224,0,0,0-.434.113q.179.682.359,1.364l.134.508q.226.858.451,1.716l.426-.145q-.23-.872-.459-1.746l-.115-.436q-.181-.687-.362-1.375" transform="translate(-125.193 -174.354)" fill="#807878"/><path d="M172.166,253.392a.559.559,0,0,0-.436.654.588.588,0,0,0,.762.248l1.7-.577a.559.559,0,0,0,.435-.653.586.586,0,0,0-.761-.249l-.6.2-.426.145-.677.229" transform="translate(-124.707 -183.58)" fill="#6c6665"/><path d="M176.962,171.67a.638.638,0,0,0-.8-.845h0l-1.921.658a.641.641,0,0,0,.416,1.212l1.742-.6.178-.061a.636.636,0,0,0,.384-.368" transform="translate(-126.232 -124.04)" fill="#777070"/><path d="M209.429,191.59l.228-.228-.441-.447c-.186.044-.371.1-.557.158l.77.517" transform="translate(-151.542 -138.655)" fill="#d7563f"/><path d="M213.745,190.365l.162-.162c-.092.011-.184.032-.276.046l.114.116" transform="translate(-155.153 -138.138)" fill="#d7563f"/><path d="M214.389,190.147h0l-1.24,1.244a8.518,8.518,0,0,1,5.439.77.641.641,0,0,0,.578-1.143,9.846,9.846,0,0,0-4.587-1.062l-.19.191" transform="translate(-154.803 -137.958)" fill="#d7563f"/><path d="M195.917,172.131a.338.338,0,0,0,.479,0l.732-.735,1.071.72.085.057a.339.339,0,0,0,.429-.042l.176-.177,1.24-1.244h0l.191-.191,2.834-2.845a.339.339,0,0,0,0-.475l-1.148-1.174,0,0,0,0-1.434-1.467v0h0l-1.228-1.256a.338.338,0,0,0-.482,0l-1.561,1.565h0l-.737.739h0l-1.585,1.589-1.36,1.363a.338.338,0,0,0,.051.52q1.447.969,2.891,1.942l-.616.619-.023.023a.338.338,0,0,0,0,.479m6.522-4.7-.344.345-.674-.688.345-.346.673.689m-1.147-1.173-.345.347-.966-.986.346-.347.964.987m-2.2-2.248.759.777-.347.348-.76-.776.348-.349m2.522,4.246-.256.257-.675-.688.257-.258.674.688m-1.148-1.172-.257.258-.967-.985.258-.259.965.986m-2.2-2.245.76.776-.259.26-.761-.775.259-.26m2.614,4.154-.256.257-.676-.687.257-.258.675.688m-1.149-1.171-.257.258-.968-.984.258-.259.967.985m-2.2-2.244.761.775-.258.259-.762-.775.259-.26m2.617,4.152-.255.256-.676-.687.256-.257.676.687M199,168.56l-.257.258-.969-.984.258-.258.968.984m-2.2-2.242.762.775-.258.259-.763-.774.259-.259m2.621,4.148-.118.119-.161.162-.114-.116-.563-.57.28-.281.677.687m-1.152-1.169-.281.282-.97-.983.282-.283.969.984m-2.207-2.24.763.774-.282.283-.763-.774.283-.284m2.16,3.723.441.447-.228.228-.77-.517-.045-.03.365-.367.237.24m-1.682-1.7.97.983-.462.464-1.168-.785.66-.662m-2.152-.34.913-.915.763.774-.757.76-.919-.618" transform="translate(-140.544 -118.52)" fill="#807878"/><path d="M92.3,241.338q.038.46.076.92.025-.458.05-.916l-.126,0" transform="translate(-67.033 -175.276)" fill="#c9c6b5"/><path d="M106.992,246.538q.026-.49.053-.98l-1.516-.046c-.018.326-.035.653-.053.979l2.273.072h0l-.109,0-.648-.021" transform="translate(-76.604 -178.308)" fill="#c9c6b5"/><path d="M91.436,197.3a.393.393,0,0,1-.382-.42l.183-3.369a.427.427,0,0,1,.427-.4q3.767.069,7.534.145a.4.4,0,0,1,.383.422l-.181,3.393a.425.425,0,0,1-.427.4q-2.062-.049-4.124-.094c-.018.333-.036.664-.054,1l.094,0,1.293.03,2.737.065a1.449,1.449,0,0,0,1.46-1.381l.118-2.221q.032-.588.063-1.175c0-.03,0-.057,0-.086a1.339,1.339,0,0,0-1.3-1.357q-3.767-.073-7.534-.139a1.459,1.459,0,0,0-1.46,1.38q-.092,1.684-.183,3.367a1.342,1.342,0,0,0,1.307,1.434l2.58.061c.018-.332.036-.663.054-1l-2.58-.059" transform="translate(-65.417 -139.524)" fill="#97a747"/><path d="M102,199.707l.181-3.393a.4.4,0,0,0-.383-.422q-3.767-.076-7.534-.145a.427.427,0,0,0-.427.4l-.183,3.369a.393.393,0,0,0,.382.42l2.58.059c.021-.388.042-.774.063-1.163l-.8-.017a.809.809,0,0,1-.786-.863l.01-.184a.879.879,0,0,1,.878-.829l3.768.076a.811.811,0,0,1,.786.867c0,.062-.006.123-.01.185a.875.875,0,0,1-.878.831l-2.135-.047c-.021.388-.042.775-.063,1.163q2.062.047,4.123.094a.426.426,0,0,0,.427-.4" transform="translate(-68.018 -142.165)" fill="#623d1a"/><path d="M111.014,246.66l.648.021.109,0,.314.01.3.009.224.007.11,0,.647.021q.026-.491.053-.982l-2.347-.073q-.027.49-.053.981" transform="translate(-80.626 -178.43)" fill="#3b3938"/><path d="M105.671,242.779l1.516.046,2.347.073q2.553.08,5.108.164.028-.52.056-1.041-4.486-.143-8.97-.272l-.056,1.03" transform="translate(-76.745 -175.575)" fill="#623d1a"/><path d="M95.367,241.434c-.919-.027-1.838-.057-2.758-.084l-.05.917c0,.038,0,.076-.006.114h.016l2.743.083.056-1.03" transform="translate(-67.218 -175.285)" fill="#623d1a"/><path d="M114.425,232.873l-1.333-.038q-2.517-.073-5.032-.142l-1.294-.037-.756-.021q-.067,1.247-.135,2.495,4.485.133,8.97.272l1.209.039s.03-.563.067-1.258a.926.926,0,0,0-.087-.425,1.773,1.773,0,0,0-1.609-.885" transform="translate(-76.894 -168.955)" fill="#97a747"/><path d="M88.411,233.514l-.068,1.242,1.083.031.126,0c.919.027,1.838.057,2.758.084q.068-1.245.135-2.493c-.734-.02-1.469-.042-2.2-.062a2.343,2.343,0,0,0-1,.189,1.246,1.246,0,0,0-.827,1.006" transform="translate(-64.161 -168.725)" fill="#97a747"/><path d="M92.58,274.018l-.1,1.791c0,.022,0,.044,0,.066h.029l.816.031.487.019q.051-.93.1-1.859l-.249-.009-.833-.031-.249-.009" transform="translate(-67.164 -199.011)" fill="#3b3938"/><path d="M111.224,274.71q-.051.933-.1,1.865l1.332.052.1-1.867-.249-.01-.833-.031-.249-.009" transform="translate(-80.705 -199.513)" fill="#3b3938"/><path d="M129.871,275.424q-.051.937-.1,1.873l1.332.054q.05-.938.1-1.876l-.249-.01-.833-.033-.249-.01" transform="translate(-94.248 -200.032)" fill="#3b3938"/><path d="M96.188,212.512c-.031.576-.063,1.154-.094,1.73l0,.092h0l.833.027,2.273.074q-.1,1.773-.192,3.543l-3.216-.115a1.932,1.932,0,0,0-1.816.925,1.316,1.316,0,0,0-.153.536q-.028.513-.056,1.025l.833.03q.028-.513.056-1.026c.02-.372.52-.668,1.091-.648l3.216.117q-.047.857-.093,1.715l.833.031.093-1.716q1.608.059,3.217.117c.571.021,1.036.354,1.016.73q-.028.517-.056,1.034l.833.033q.028-.518.056-1.035a1.689,1.689,0,0,0-1.8-1.611l-3.217-.115q.119-2.2.238-4.393l-.224-.007-.3-.009-.314-.01h0l-2.273-.072c.018-.325.035-.653.053-.979.018-.343.037-.687.056-1.03q.068-1.246.135-2.495.131-2.415.261-4.831l.054-1c.021-.388.042-.775.063-1.163l2.135.047a.876.876,0,0,0,.878-.831l.01-.185a.811.811,0,0,0-.786-.867l-3.768-.076a.879.879,0,0,0-.878.83l-.01.184a.809.809,0,0,0,.786.863l.8.017c-.021.388-.042.775-.063,1.163l-.054,1q-.131,2.416-.262,4.827-.068,1.246-.135,2.493l-.056,1.03" transform="translate(-68.096 -145.332)" fill="#9c9390"/></g></svg>