<svg xmlns="http://www.w3.org/2000/svg" xmlns:xlink="http://www.w3.org/1999/xlink" width="119.24" height="98.645" viewBox="0 0 119.24 98.645"><defs><clipPath id="a"><rect width="69.098" height="90.975" fill="none"/></clipPath><clipPath id="c"><rect width="16.088" height="31.513" fill="none"/></clipPath><clipPath id="d"><rect width="45.1" height="38.055" fill="none"/></clipPath></defs><g transform="translate(-358 -3819.844)"><g transform="translate(358 3819.844)"><g clip-path="url(#a)"><g clip-path="url(#a)"><path d="M65.943,30.271H3.167S.1,55.279.008,97.838H6.072L66.654,37.325c-.413-4.627-.711-7.054-.711-7.054" transform="translate(-0.006 -22.763)" fill="#f0f0f0"/><path d="M85.04,58.713,24.458,119.226H87.489c-.061-29.3-1.536-50.285-2.449-60.513" transform="translate(-18.392 -44.152)" fill="#e6e6e6"/><path d="M0,302.7q-.006,2.577,0,5.239c0,4.275,1.98,5.426,3.155,5.426H65.937c1.176,0,3.155-1.151,3.155-5.426q.01-2.662,0-5.239Z" transform="translate(0 -227.631)" fill="#d4d4d4"/><path d="M73.237,1.462A1.9,1.9,0,0,0,71.475,0H16.8a1.923,1.923,0,0,0-1.763,1.461L12.748,7.508H75.523Z" transform="translate(-9.586 -0.001)" fill="#d4d4d4"/><path d="M12.748,350.174V348.35H75.523v1.824a1.23,1.23,0,0,1-1.23,1.23H13.978a1.23,1.23,0,0,1-1.23-1.23" transform="translate(-9.586 -261.955)" fill="#2e2e2e"/><path d="M19.751,361.4v-.74h6.14v.74a.787.787,0,0,1-.787.787H20.538a.787.787,0,0,1-.787-.787" transform="translate(-14.853 -271.214)" fill="#1a1a1a"/><path d="M240.243,361.4v-.74H234.1v.74a.787.787,0,0,0,.787.787h4.566a.787.787,0,0,0,.787-.787" transform="translate(-176.043 -271.214)" fill="#1a1a1a"/><rect width="62.775" height="0.655" transform="translate(3.161 85.739)"/><path d="M25.754,77.307a28.162,28.162,0,1,1,28.162,28.162A28.162,28.162,0,0,1,25.754,77.307" transform="translate(-19.367 -36.956)" fill="#2e2e2e"/><path d="M36.87,85.665A25.405,25.405,0,1,1,62.275,111.07,25.405,25.405,0,0,1,36.87,85.665" transform="translate(-27.726 -45.315)"/><path d="M71.275,128.45a23.847,23.847,0,0,0,33.744-33.706Z" transform="translate(-53.598 -71.246)" fill="#333"/><path d="M67,66.543a23.847,23.847,0,0,0-16.872,40.7L83.87,73.537A23.772,23.772,0,0,0,67,66.543" transform="translate(-32.449 -50.04)" fill="#404040"/><g transform="translate(39.587 20.5)" opacity="0.3"><g clip-path="url(#c)"><path d="M171.091,114.169a1.367,1.367,0,0,1-1.131-2.132,17.647,17.647,0,0,0-.492-20.415,17.789,17.789,0,0,0-8.89-6.293,1.367,1.367,0,0,1,.812-2.611,20.547,20.547,0,0,1,10.267,7.267,20.381,20.381,0,0,1,.568,23.582,1.365,1.365,0,0,1-1.134.6" transform="translate(-159.617 -82.656)" fill="#fff"/></g></g><path d="M96.219,7.648H84.473A2.1,2.1,0,0,0,82.5,8.961l-.443,1.257a.862.862,0,0,0,.893,1.145h8.295l8.214-3.714Z" transform="translate(-61.669 -5.751)" fill="#8f8f8f"/><path d="M138.394,10.218l-.443-1.257a2.1,2.1,0,0,0-1.968-1.313h-8.5l-8.215,3.714H137.5a.862.862,0,0,0,.893-1.145" transform="translate(-89.687 -5.751)" fill="#7d7d7d"/><path d="M213.423,10.27a1.5,1.5,0,0,1-1.667,1.526A1.883,1.883,0,0,1,209.8,10.27a1.507,1.507,0,0,1,1.669-1.5,1.893,1.893,0,0,1,1.954,1.5" transform="translate(-157.764 -6.596)" fill="#adadad"/><path d="M233.04,10.3c.122.854-.611,1.552-1.638,1.552a2,2,0,0,1-2.046-1.552A1.469,1.469,0,0,1,231,8.78,2.013,2.013,0,0,1,233.04,10.3" transform="translate(-172.466 -6.602)" fill="#adadad"/></g></g></g><g transform="translate(402.409 3845)"><path d="M181.175,1164.191v-63.262a1.246,1.246,0,0,1,1.246-1.246h0a1.246,1.246,0,0,1,1.246,1.246v63.262a1.245,1.245,0,0,1-1.246,1.245h0A1.246,1.246,0,0,1,181.175,1164.191Z" transform="translate(-173.337 -1096.53)" fill="#928171"/><path d="M687.123,1164.191v-63.262a1.246,1.246,0,0,1,1.246-1.246h0a1.246,1.246,0,0,1,1.246,1.246v63.262a1.246,1.246,0,0,1-1.246,1.245h0A1.245,1.245,0,0,1,687.123,1164.191Z" transform="translate(-632.516 -1096.53)" fill="#928171"/><rect width="57.41" height="59.901" transform="translate(3.581 5.269)" fill="#6d4f3d"/><g transform="translate(0.338 0)"><g transform="translate(0 0)"><path d="M156.338,1065.571H107.8l-7.761,4.269h64.235Z" transform="translate(-100.039 -1065.571)" fill="#e9d9cb"/></g></g><g transform="translate(4.918 6.82)"><rect width="27.409" height="13.911" transform="translate(0 0.006)" fill="#bea790"/><path d="M267.9,1139.359l.678,1.011h4.135l.722-1.023Z" transform="translate(-256.966 -1139.347)" fill="#0d0f11"/></g><g transform="translate(32.804 6.82)"><rect width="27.409" height="13.911" transform="translate(0 0.006)" fill="#bea790"/><path d="M569.567,1139.359l.678,1.011h4.136l.721-1.023Z" transform="translate(-558.63 -1139.347)" fill="#0d0f11"/></g><g transform="translate(4.918 21.36)"><path d="M177,1296.643H149.587v13.911H204.87v-13.911Z" transform="translate(-149.587 -1296.643)" fill="#bea790"/><path d="M418.675,1296.655l.678,1.011h4.135l.721-1.023Z" transform="translate(-393.801 -1296.643)" fill="#0d0f11"/></g><g transform="translate(4.918 35.842)"><path d="M177,1453.315H149.587v13.911H204.87v-13.911Z" transform="translate(-149.587 -1453.315)" fill="#bea790"/><path d="M418.675,1453.327l.678,1.011h4.135l.721-1.023Z" transform="translate(-393.801 -1453.315)" fill="#0d0f11"/></g><g transform="translate(4.153 50.324)"><path d="M177,1609.983H149.587v13.911H204.87v-13.911Z" transform="translate(-148.822 -1609.983)" fill="#bea790"/><path d="M169.41,1765.387h-28.1v1.1H197.99v-1.1Z" transform="translate(-141.307 -1751.022)" fill="#bea790"/><path d="M418.675,1610l.678,1.01h4.135l.721-1.023Z" transform="translate(-393.036 -1609.983)" fill="#0d0f11"/></g><path d="M160.489,1111.431h-63.6a.509.509,0,0,0-.509.509v1.117a.509.509,0,0,0,.509.51h63.6a.509.509,0,0,0,.509-.51v-1.117A.509.509,0,0,0,160.489,1111.431Z" transform="translate(-96.383 -1107.192)" fill="#bea790"/><path d="M1.246,0H64.508a1.246,1.246,0,0,1,1.246,1.246v0a1.246,1.246,0,0,1-1.246,1.246H1.245A1.245,1.245,0,0,1,0,1.246v0A1.246,1.246,0,0,1,1.246,0Z" transform="translate(4.412 5.749) rotate(90)" fill="#bea790"/><path d="M752.819,1192.271v-63.262a1.246,1.246,0,0,1,1.246-1.246h0a1.245,1.245,0,0,1,1.246,1.246v63.262a1.245,1.245,0,0,1-1.246,1.246h0A1.246,1.246,0,0,1,752.819,1192.271Z" transform="translate(-692.14 -1122.014)" fill="#bea790"/></g><g transform="translate(432.14 3880.434)"><g clip-path="url(#d)"><path d="M.459,32.76c-.933,1.166-.395,1.909,1.348,2.307-1.1.386-1.3.818-.674,1.293-.956.563-.841,1.07,0,1.538-.595.42-1.229.836,0,1.446-.714.406-1.085.839,0,1.385-1.1.768-.952,1.192.674,1.2-.731.183-1.275.425-.674,1.035-1.511.355-1.493.794,0,1.314-1.861,1.86-1.284,2.579.674,2.651C.83,47.594.689,48.3,1.133,49.043c-.956.821-1.222,1.478.674,1.627-1.15,1.242-1.055,2.109.719,2.47-.8.255-1.127.6-.327,1.145-1.458-.008-1.48.933.327,1.234L15.861,56.9l14.9,2.745,6.014-5.579,6.406-3.819c1.666-1.281,1.3-1.66,0-1.627,2.257-.647,2.548-1.27.718-1.867,1.175-.914.923-1.462-.588-1.687,1.258-1.189,1.333-1.909.065-2.1,2.5-1.475,2.114-1.677-.326-.975l.849-1.446c1.012-1.2.746-2.08-1.5-2.47,1.922-.426,1.915-1.167,1.046-2.049,1.461-.674.957-1.359-.523-2.048,1.391-.171,1.935-.516.719-1.222a2.96,2.96,0,0,0,.261-3.333Z" transform="translate(0 -21.592)" fill="#ccc7c2"/><path d="M1.726,25.437l11.153-1.844c.669-1.474,3.92-3,6.143-4.147,6.73,2.719,15.58,3.481,26.148,2.658l-5.883,5.359L30.07,29.715,16.8,29.329S6.96,26.477,1.726,25.437" transform="translate(-1.266 -14.268)" fill="#edeceb"/><path d="M50.213,102.237a1.606,1.606,0,0,1-.376.235c-.126.071-.284.15-.467.255l-.629.363a31.284,31.284,0,0,0-3.787,2.685c-1.532,1.239-3.264,2.841-5.225,4.583l-.748.658-.382.333-.089.078-.047.04c-.008.005-.015.017-.024.017l-.03-.005-.2-.034-.247-.041-2.024-.338-4.257-.7c-5.833-.963-11.127-1.717-14.974-2.13-1.922-.214-3.482-.338-4.56-.432-.539-.043-.958-.073-1.242-.1a1.515,1.515,0,0,1-.432-.067,1.522,1.522,0,0,1,.436-.028c.285,0,.706,0,1.248.013,1.083.038,2.65.111,4.581.282,3.863.329,9.176,1.031,15.013,1.995l4.258.715,2.023.35.247.043.045.008s0,0,.01-.007l.383-.329.751-.649c1.971-1.719,3.731-3.3,5.3-4.514a26.574,26.574,0,0,1,3.9-2.58l.653-.327c.19-.092.356-.158.488-.215a1.539,1.539,0,0,1,.414-.148" transform="translate(-7.682 -75.013)" fill="#a09a95"/><path d="M50.867,96.528a6.477,6.477,0,0,1-.959.6c-.631.37-1.557.895-2.708,1.579s-2.524,1.529-4.013,2.587c-.745.528-1.511,1.121-2.284,1.776-.389.326-.772.676-1.159,1.038-.19.185-.384.369-.576.56l-.654.677-1.67-.375-1.608-.332-1.655-.315-1.7-.3c-5.867-.97-11.235-1.425-15.121-1.688-.972-.07-1.852-.116-2.624-.167l-1.982-.114c-.544-.03-.967-.056-1.253-.08a1.542,1.542,0,0,1-.436-.06,1.554,1.554,0,0,1,.439-.036c.287-.007.711-.01,1.256-.009s1.213.017,1.987.032,1.656.048,2.631.1a130.44,130.44,0,0,1,15.174,1.553l1.7.3,1.661.321,1.614.341,1.447.334.5-.507c.2-.193.395-.378.589-.565.4-.364.788-.715,1.186-1.041.791-.656,1.573-1.245,2.332-1.765,1.518-1.044,2.917-1.86,4.087-2.514s2.119-1.137,2.77-1.465a6.231,6.231,0,0,1,1.024-.465" transform="translate(-7.682 -70.824)" fill="#756f6b"/><path d="M49.245,40.985c.01.013-.1.126-.321.329s-.549.5-.975.868l-1.561,1.349c-.623.53-10.543,3.744-10.543,3.744-9.668.865-24.251-2.142-27.585-3.732,9.805,3.317,27.372,3.34,27.127,3.017,0,0,10.231-2.746,10.844-3.241l1.608-1.284c.443-.35.79-.619,1.028-.8a1.662,1.662,0,0,1,.378-.252" transform="translate(-6.061 -30.072)" fill="#756f6b"/><path d="M37.154,103.1l-27.912-.9,27.912,2.142,7.125-4.7Z" transform="translate(-6.782 -73.116)" fill="#a09a95"/><path d="M8.26,102.244l18.564.968,9.021-.484Z" transform="translate(-6.061 -75.021)" fill="#756f6b"/><path d="M.527,87.758c-1.077,1.363-.419,1.914,1.282,1.977a3.078,3.078,0,0,0-.446.36h27.77Z" transform="translate(-0.002 -64.391)" fill="#a09a95"/><path d="M127.177,69.7l-14.088,7.145,12.983-5.369.808-1.377a3.7,3.7,0,0,0,.3-.4" transform="translate(-82.978 -51.14)" fill="#756f6b"/><path d="M4.256,66.813l28,.752,13.27-5.643L32.581,68.8Z" transform="translate(-3.123 -45.435)" fill="#a09a95"/><path d="M4.256,71.877l27.671,1.8L7.018,73.128Z" transform="translate(-3.123 -52.739)" fill="#756f6b"/><path d="M5.315,53.176l13.151,1.935,15.219,1.244,13.4-5.633L33.684,56.7l-15.219-.925L6.1,54.159Z" transform="translate(-3.9 -37.217)" fill="#a09a95"/><path d="M56.2,56.478a.331.331,0,0,1-.32-.288,71.622,71.622,0,0,1-.328-20.352.342.342,0,0,1,.185-.265l14.577-7.16a.318.318,0,0,1,.432.167.353.353,0,0,1-.158.457l-14.415,7.08a70.942,70.942,0,0,0,.349,19.96.342.342,0,0,1-.268.4.305.305,0,0,1-.054,0" transform="translate(-40.339 -20.825)" fill="#93653b"/><path d="M67.881,57.567a.335.335,0,0,1-.325-.329,82.424,82.424,0,0,1,1.168-18.975,133.983,133.983,0,0,1-26.088-3.857.346.346,0,0,1-.238-.416.324.324,0,0,1,.394-.251A133.965,133.965,0,0,0,69.141,37.6a.32.32,0,0,1,.242.136.358.358,0,0,1,.058.282,80.685,80.685,0,0,0-1.234,19.192.337.337,0,0,1-.311.358h-.014" transform="translate(-31.103 -24.747)" fill="#93653b"/><path d="M73.285,14.667l-.033,0a.315.315,0,0,1-.153-.06l-.026-.021a9.031,9.031,0,0,1-2.721-8.37,1.624,1.624,0,0,1,.639-1.129c.664-.4,1.4.116,1.87.732,1.607,2.111,1.676,4.43,1.089,7.165,1.176-1.37,2.48-2.66,3.75-3.916a51.735,51.735,0,0,0,4.608-4.973.314.314,0,0,1,.458-.049.358.358,0,0,1,.046.484,52.3,52.3,0,0,1-4.667,5.04,51.7,51.7,0,0,0-4.608,4.973h0l-.008.01a.318.318,0,0,1-.2.113.28.28,0,0,1-.045,0M71.491,5.634a.338.338,0,0,0-.178.048,1.056,1.056,0,0,0-.326.678A8.356,8.356,0,0,0,73.112,13.7c1-4.013.425-5.894-.757-7.447-.193-.253-.557-.615-.864-.615" transform="translate(-51.494 -2.91)" fill="#93653b"/><path d="M59.368,11.684a11.537,11.537,0,0,1-2.943-.56c-.94-.269-3.224-1-4.139-1.959C51.65,8.5,51.468,7.78,51.8,7.246c.2-.323.647-.663,1.644-.449a11.5,11.5,0,0,1,6.326,3.892A83.354,83.354,0,0,0,63.375.262.325.325,0,0,1,63.77.011a.346.346,0,0,1,.237.417,73.377,73.377,0,0,1-3.9,11.008.341.341,0,0,1-.088.115.316.316,0,0,1-.111.062,1.547,1.547,0,0,1-.538.072M52.862,7.418a.581.581,0,0,0-.519.2c-.164.265.084.721.4,1.055,1.137,1.194,4.975,2.166,6.4,2.313a10.829,10.829,0,0,0-5.838-3.519,2.221,2.221,0,0,0-.451-.054" transform="translate(-37.887 0)" fill="#93653b"/><path d="M81.707,39.167,77.412,35.02,61.08,40.777Z" transform="translate(-44.817 -25.695)" fill="#ccc7c2"/></g></g></g></svg>