<svg xmlns="http://www.w3.org/2000/svg" width="114.431" height="105.402" viewBox="0 0 114.431 105.402"><g transform="matrix(0.996, 0.087, -0.087, 0.996, 3.925, -2.176)"><path d="M16.853,1.052l-.359,1.1-.277,1.094-.473,1.022-.338,1.071-.263,1.107-.547.989-.228,1.109-.528,1-.508,1L13.1,11.654l-.444,1.03-.228,1.108-.554.989-.245,1.11-.46,1.029-.414,1.042-.258,1.1-.511,1.011L9.7,21.163,9.23,22.184,8.779,23.22l-.265,1.1-.379,1.053L7.67,26.406l-.191,1.123-.471,1.037-.548.993L6.318,30.7l-.465,1.03-.359,1.065L5.1,33.849,4.687,34.89l-.444,1.042L3.8,36.973l-.245,1.1-.38,1.061-.306,1.084L2.513,41.29l-.532,1-.274,1.1L1.231,44.42.808,45.469.543,46.578,0,47.678l1.213.138,1.13.083,1.12.186,1.1.221,1.1.233,1.14.052,1.053.488,1.118.166,1.113.184,1.133.063,1.077.359,1.145.011,1.111.216,1.121.133,1.111.233,1.1.252,1.189.227.206-1.2-.236-1.146.311-1.111-.12-1.145.317-1.109.083-1.135-.075-1.143.342-1.1-.09-1.139.314-1.1.016-1.135.108-1.124L20.19,36.2l.215-1.121.224-1.116-.078-1.138-.012-1.143.183-1.123-.017-1.129.157-1.125.217-1.114.061-1.137.088-1.125.095-1.135.142-1.123-.009-1.133.111-1.135.107-1.125.233-1.116.028-1.14.125-1.123.168-1.127-.122-1.137.132-1.138.093-1.131.253-1.115-.007-1.136.089-1.136.162-1.121-.152-1.149.149-1.139.148-1.122.1-1.135.344-1.11L23.426,0,22.292.2,21.212.354,20.171.768,19.047.677,17.972.911Z" transform="matrix(-0.875, -0.485, 0.485, -0.875, 65.276, 72.699)" fill="#ffdd7f"/><path d="M36.082,0l-.89.677L34.5,1.57l-.976.59-.73.868-.78.807-.745.852-.958.619-.725.867-.825.75-.827.755-.852.729-.825.758-.772.82-.744.852-.946.632-.833.754-.785.8-.787.8-.854.73-.765.825-.943.632-.769.832-.8.789-.707.886-.824.772-.906.68-.772.822-.829.763-.859.72-.76.84-.809.777-.759.827-.9.675-.814.782-.868.725-.7.888-.847.749-.9.689-.835.763-.8.786-.8.8-.815.793-.9.7L0,33.917l.973.686.949.616.875.708.935.635.834.759,1.053.462.78.835.84.766.939.632.962.595.8.811.9.707,1.1.393.787.828.867.739,1,.552.906.674.667-.91.476-1.03.662-.931.5-1.012.685-.912.539-1,.686-.9.595-.963.509-1.011.564-.979.619-.944.669-.91.468-1.039.71-.885.655-.93.522-1.013.423-1.07.753-.864.621-.942.543-.99.6-.962.642-.933.649-.931.611-.957.465-1.039.625-.949.645-.933.672-.92.443-1.057.619-.949.69-.9.7-.914.3-1.14.754-.867.493-1.025.787-.843.529-1.011.552-.995.577-.974.512-1.03.732-.873.457-1.054.736-.881L41.813,3l.54-1.034-1.1-.21-.959-.588L39.16,1.141,38.147.7,37.1.37Z" transform="matrix(-0.875, -0.485, 0.485, -0.875, 94.219, 99.745)" fill="#ffdd7f"/><path d="M0,4.9.4,5.977.755,7.034l.31,1.084.358,1.066.434,1.034.43,1.038.334,1.071L3,13.387l.288,1.081.587.98.1,1.15.456,1.035L4.9,18.653l.514,1.009.237,1.11.426,1.043.157,1.13.491,1.018L7,25.051,7.4,26.1l.316,1.091.576.98.26,1.091.4,1.057.455,1.032.242,1.107L10.1,33.5l.305,1.088.439,1.033.41,1.054.314,1.086.34,1.064.444,1.028.5,1.023L13.05,42l.467,1.025.459,1.037.258,1.107.373,1.065.323,1.085.31,1.084.456,1.036.132,1.154.592.9.959-.408.941-.629,1.01-.5.958-.582.907-.687,1.09-.362,1.011-.5.952-.612.887-.716,1.068-.407,1.03-.476.916-.674.958-.6,1.075-.384.967-.591,1-.536.983-.652-.621-1-.693-.886-.767-.837-.675-.915-.439-1.062-.7-.9-.52-1.011-.609-.961-.826-.8-.548-1-.54-.992-.671-.911-.831-.8-.433-1.066-.707-.893-.625-.946-.7-.9-.547-1-.671-.905-.613-.956-.795-.822L19,21.664l-.577-.978-.5-1.02-.64-.945-.775-.837-.5-1.03-.718-.884-.6-.966-.691-.894-.611-.962-.616-.949-.752-.861L11.53,10.3l-.761-.857-.588-.973L9.655,7.457l-.844-.793-.69-.913L7.608,4.729l-.586-.97-.7-.905-.6-.971L5.057.955,4.413,0l-.58.971-.961.593L2.388,2.6l-.958.613-.637.906Z" transform="matrix(-0.875, -0.485, 0.485, -0.875, 28.978, 61.093)" fill="#ffdd7f"/><path d="M0,5C2.235,3.9,2.9,3.008,3.716,0,4.533,3.008,5.2,3.9,7.431,5,5.2,6.1,4.533,7,3.716,10,2.9,7,2.235,6.1,0,5" transform="matrix(-0.875, -0.485, 0.485, -0.875, 23.27, 40.962)" fill="#ffc449"/><path d="M0,8.538C3.813,6.658,4.945,5.135,6.341,0c1.4,5.135,2.528,6.658,6.342,8.538-3.814,1.88-4.946,3.4-6.342,8.537C4.945,11.94,3.813,10.418,0,8.538" transform="matrix(-0.875, -0.485, 0.485, -0.875, 24.283, 32.002)" fill="#ffc449"/><path d="M0,3.337C2.389,3.063,3.282,2.468,5,0c-.236,3,.076,4.027,1.748,5.755-2.389.274-3.282.869-5,3.337.236-3-.076-4.027-1.749-5.755" transform="matrix(-0.875, -0.485, 0.485, -0.875, 76.984, 85.143)" fill="#ffc449"/></g></svg>