<svg xmlns="http://www.w3.org/2000/svg" width="272.564" height="122.978" viewBox="0 0 272.564 122.978"><g transform="translate(119.415)"><path d="M4.887,0h.222A4.889,4.889,0,0,1,10,4.889V9.07a4.886,4.886,0,0,1-4.886,4.886H4.887A4.887,4.887,0,0,1,0,9.069V4.887A4.887,4.887,0,0,1,4.887,0Z" transform="translate(0.629 41.465)"/><path d="M3864.349,4465.085c0,.835-33.4,1.51-74.593,1.51s-74.594-.675-74.594-1.51,33.4-1.515,74.594-1.515S3864.349,4464.248,3864.349,4465.085Z" transform="translate(-3712.943 -4343.993)" fill="#9e9e9f"/><path d="M3973.767,4217.338h-33.892a7.911,7.911,0,0,1,7.911,7.912v53.435h33.893V4225.25A7.911,7.911,0,0,0,3973.767,4217.338Z" transform="translate(-3828.53 -4217.338)" fill="#397156"/><path d="M3771.383,4278.684V4225.25a7.912,7.912,0,0,1,7.914-7.912h73.911a7.911,7.911,0,0,1,7.911,7.912v53.435Z" transform="translate(-3741.861 -4217.338)" fill="#47856b"/><rect width="34.191" height="20.994" rx="10.497" transform="translate(56.761 20.176)" fill="#fff" opacity="0.4"/><g transform="translate(38.676 15.242)"><path d="M3861.867,4287.152h-68.85l-.388-.4v-26.28a10.842,10.842,0,0,1,10.719-10.937h48.191a10.842,10.842,0,0,1,10.719,10.937v26.259Zm-66.894-2.1h64.942l.291-.3v-24.285a8.767,8.767,0,0,0-8.667-8.844h-48.191a8.767,8.767,0,0,0-8.667,8.844v24.265Z" transform="translate(-3791.467 -4249.142)" fill="#b4b4b5"/><path d="M3859.471,4286.337h-68.849l-.387-.4v-26.28a10.843,10.843,0,0,1,10.718-10.937h48.192a10.843,10.843,0,0,1,10.72,10.937v26.26Zm-66.893-2.1h64.942l.291-.3V4259.66a8.767,8.767,0,0,0-8.668-8.842h-48.192a8.767,8.767,0,0,0-8.667,8.842v24.266Z" transform="translate(-3790.235 -4248.724)" fill="#eeeeef"/><g transform="translate(22.662 2.101)"><rect width="0.645" height="33.491" transform="translate(1.206)" fill="#7a7a7a"/><rect width="1.202" height="33.491" fill="#ccc"/></g><g transform="translate(44.553 2.101)"><rect width="0.646" height="33.491" transform="translate(1.205)" fill="#7a7a7a"/><rect width="1.201" height="33.491" fill="#ccc"/></g></g><path d="M3829.847,4285.173H3720.609l15.522-37.727s2.575-4.962,9.536-4.962h72.712a7.53,7.53,0,0,1,6.705,5.783C3825.824,4251.391,3829.847,4285.173,3829.847,4285.173Zm-12.929-30.4a3.955,3.955,0,0,0-3.957-3.955h-46.7a3.955,3.955,0,0,0-3.958,3.955v18.5a3.956,3.956,0,0,0,3.958,3.956h46.7a3.956,3.956,0,0,0,3.957-3.956ZM3751.179,4249h-9.2a4.54,4.54,0,0,0-4.374,2.552c-.814,1.637-11.027,27.923-12.341,30.626s.294,2.771.78,2.771,17.721.06,20.022.06,2.376-1.178,2.418-1.9,3.734-29.924,4.009-31.869S3751.748,4249,3751.179,4249Z" transform="translate(-3715.744 -4230.272)" fill="#3e3a39"/><path d="M3755.569,4255.894h-9.2a4.539,4.539,0,0,0-4.373,2.553c-.814,1.636-11.027,27.922-12.341,30.626s.293,2.77.779,2.77,17.722.06,20.022.06,2.377-1.179,2.418-1.9,3.734-29.925,4.008-31.869S3756.138,4255.894,3755.569,4255.894Z" transform="translate(-3720.136 -4237.17)" fill="#fff" opacity="0.2"/><g transform="translate(42.59 33.276)"><path d="M3825.943,4294.683a2.542,2.542,0,0,1-2.507,2.373H3810.9a2.222,2.222,0,0,1-2.243-2.373l1.152-6.451a2.54,2.54,0,0,1,2.506-2.374h10.949a2.221,2.221,0,0,1,2.242,2.374Z" transform="translate(-3803.625 -4285.858)" fill="#1a1a1a"/><path d="M3811.448,4313.844a3.6,3.6,0,0,1,3.361,2.325h8.637l.215-1.459a2.911,2.911,0,0,0-2.542-3.007h-20.056a3.028,3.028,0,0,0-2.77,2.141Z" transform="translate(-3798.293 -4299.152)" fill="#1a1a1a"/></g><g transform="translate(76.976 33.276)"><path d="M3897.741,4294.683a2.542,2.542,0,0,1-2.505,2.373H3882.7a2.222,2.222,0,0,1-2.242-2.373l1.151-6.451a2.541,2.541,0,0,1,2.508-2.374h10.949a2.22,2.22,0,0,1,2.241,2.374Z" transform="translate(-3874.943 -4285.858)" fill="#1a1a1a"/><path d="M3892.411,4311.7h-20.059a3.026,3.026,0,0,0-2.838,2.374l-.413,2.092h12.784c-.045.881-.077,1.468-.085,1.649a2.107,2.107,0,0,1-1.253,1.9h13.668l.736-5.009A2.91,2.91,0,0,0,3892.411,4311.7Z" transform="translate(-3869.102 -4299.152)" fill="#1a1a1a"/></g><path d="M3918.347,4246.561s-1.032-4.076-5.2-4.076h-4.641a6.533,6.533,0,0,0-6.046,5.783c-.381,3.124-1.459,35.5-1.459,35.5l-.161,2.065v24.59h10.852a.87.87,0,0,1,.908.845,4.176,4.176,0,0,1,1.43-.274c1.723,0,3.073,1.416,4.082,3.547h5.686v-29.362Zm2.352,36.009a2.058,2.058,0,0,1-1.723.746A23.682,23.682,0,0,0,3909.8,4285a8.148,8.148,0,0,1-2.673.691h-1.51a2.882,2.882,0,0,1-2.168-.775,3.15,3.15,0,0,1-.707-2.424c.079-1.747.219-5.159.378-9.117.385-9.451.861-21.213,1-22.4.3-2.428,2.7-3.293,3.929-3.41l6.108,0a2.555,2.555,0,0,1,2.541,2.211l4.371,30.3A3.2,3.2,0,0,1,3920.7,4282.569Z" transform="translate(-3808.45 -4230.272)" fill="#b4b4b5"/><path d="M3923.08,4285.441l-4.372-30.3a2.554,2.554,0,0,0-2.54-2.21h-6.108c-1.229.118-3.632.984-3.929,3.411-.144,1.19-.62,12.954-1,22.4-.16,3.957-.3,7.369-.378,9.117a3.151,3.151,0,0,0,.706,2.423,2.875,2.875,0,0,0,2.168.775h1.511a8.156,8.156,0,0,0,2.673-.691,23.7,23.7,0,0,1,9.177-1.683,2.054,2.054,0,0,0,1.723-.748A3.2,3.2,0,0,0,3923.08,4285.441Zm-1.2,1.858a1.067,1.067,0,0,1-.9.343,24.99,24.99,0,0,0-9.539,1.747,7.544,7.544,0,0,1-2.311.626h-1.511a1.9,1.9,0,0,1-1.411-.449,2.234,2.234,0,0,1-.417-1.653c.079-1.75.217-5.162.379-9.122.363-8.934.859-21.168,1-22.318.267-2.195,2.878-2.484,2.938-2.494h6.058a1.523,1.523,0,0,1,1.506,1.316l4.382,30.349A2.286,2.286,0,0,1,3921.883,4287.3Z" transform="translate(-3810.458 -4235.647)" fill="#231815"/><path d="M3918.784,4256.4a1.524,1.524,0,0,0-1.506-1.315h-6.059c-.06.009-2.67.3-2.937,2.494-.14,1.149-.636,13.383-1,22.317-.161,3.96-.3,7.373-.378,9.123a2.227,2.227,0,0,0,.417,1.652,1.9,1.9,0,0,0,1.41.45h1.511a7.538,7.538,0,0,0,2.311-.626,25.005,25.005,0,0,1,9.539-1.746,1.068,1.068,0,0,0,.9-.343,2.293,2.293,0,0,0,.172-1.657Z" transform="translate(-3811.568 -4236.755)" fill="#fff" opacity="0.2"/><g transform="translate(94.284 17.286)"><path d="M3909.134,4291.064h-1.511a2.875,2.875,0,0,1-2.168-.775,3.151,3.151,0,0,1-.706-2.423c.079-1.748.218-5.16.378-9.117.385-9.45.861-21.213,1-22.4.3-2.426,2.7-3.292,3.929-3.411h6.108a2.554,2.554,0,0,1,2.54,2.21l4.372,30.3a3.2,3.2,0,0,1-.374,2.5,2.054,2.054,0,0,1-1.723.748,23.7,23.7,0,0,0-9.177,1.683A8.156,8.156,0,0,1,3909.134,4291.064Zm.976-37.085c-.06.01-2.671.3-2.938,2.494-.14,1.149-.636,13.384-1,22.318-.162,3.96-.3,7.373-.379,9.122a2.234,2.234,0,0,0,.417,1.653,1.9,1.9,0,0,0,1.411.449h1.511a7.544,7.544,0,0,0,2.311-.626,24.99,24.99,0,0,1,9.539-1.747,1.067,1.067,0,0,0,.9-.343,2.286,2.286,0,0,0,.173-1.656l-4.382-30.349a1.523,1.523,0,0,0-1.506-1.316Z" transform="translate(-3904.742 -4252.933)" fill="#231815"/></g><g transform="translate(30.266 43.375)"><path d="M3775.072,4311.247a6.894,6.894,0,0,1,5.74-2.848,9.369,9.369,0,0,1,6.552,2.848h2.155a11.571,11.571,0,0,0-8.955-4.591,8.3,8.3,0,0,0-7.646,4.591Z" transform="translate(-3772.917 -4306.656)"/></g><g transform="translate(8.091 47.967)"><path d="M3727.359,4321.737c.239.419.894.647,1.844.647h76.253c2.152,0,3.289-.773,3.381-2.3.01-.181.041-.768.087-1.649h-30.654a3.6,3.6,0,0,0-3.362-2.325H3737.46a8.6,8.6,0,0,0-5.085,2.325h-3.952c-.423.992-.708,1.627-.83,1.832A1.531,1.531,0,0,0,3727.359,4321.737Z" transform="translate(-3727.253 -4316.112)" fill="#1a1a1a"/></g><path d="M2.039,0H14.905a2.038,2.038,0,0,1,2.038,2.038V3.127a2.038,2.038,0,0,1-2.038,2.038H2.036A2.036,2.036,0,0,1,0,3.129V2.039A2.039,2.039,0,0,1,2.039,0Z" transform="translate(43.56 19.915)" fill="#1a1a1a"/><path d="M3984.365,4397.6c-3.14,0-5.682,7.584-5.682,16.941s2.543,16.944,5.682,16.944h7.5c-3.138,0-5.682-7.588-5.682-16.944s2.544-16.941,5.682-16.941Z" transform="translate(-3848.491 -4310.062)" fill="#231815"/><path d="M1.052,0h33.31a1.051,1.051,0,0,1,1.051,1.051v0A1.051,1.051,0,0,1,34.361,2.1H1.049A1.049,1.049,0,0,1,0,1.053v0A1.052,1.052,0,0,1,1.052,0Z" transform="translate(116.688 61.347)" fill="#bebfbf"/><path d="M3948.114,4345.765h1.948a.593.593,0,0,1-.591-.6v-.916a.591.591,0,0,1,.591-.591h-1.948Z" transform="translate(-3832.768 -4282.316)" fill="#888"/><path d="M1.143,0H34.267a1.146,1.146,0,0,1,1.146,1.146v0a1.147,1.147,0,0,1-1.147,1.147H1.144A1.144,1.144,0,0,1,0,1.149V1.143A1.143,1.143,0,0,1,1.143,0Z" transform="translate(116.688 82.004)" fill="#9e9e9f"/><path d="M4001.994,4390.911h-3.927c-1.147,0-2.1,1.02-2.878,2.475.012.024.024.051.035.074.118.226.233.457.343.7h4.79c2.319,0,4.314,4.151,5.2,10.1h1s.695.021.695-1.055C4007.245,4401.334,4005.351,4390.911,4001.994,4390.911Z" transform="translate(-3856.982 -4306.619)" fill="#383231"/><path d="M4005.493,4414.544c0,9.356-2.544,16.944-5.681,16.944s-5.682-7.588-5.682-16.944,2.544-16.941,5.682-16.941S4005.493,4405.187,4005.493,4414.544Z" transform="translate(-3856.437 -4310.062)" fill="#595757"/><path d="M4006.464,4421.212c0,5.879-1.449,10.645-3.237,10.645s-3.238-4.766-3.238-10.645,1.449-10.646,3.238-10.646S4006.464,4415.333,4006.464,4421.212Z" transform="translate(-3859.451 -4316.729)" fill="#eeeeef"/><path d="M3759.251,4440.763c.605,7.416,2.845,12.925,5.518,12.925s4.915-5.509,5.52-12.925Z" transform="translate(-3735.621 -4332.262)" fill="#231815"/><path d="M3751.305,4440.763h-7.5c.6,7.416,2.844,12.925,5.519,12.925h7.5C3754.152,4453.688,3751.91,4448.179,3751.305,4440.763Z" transform="translate(-3727.676 -4332.262)" fill="#3e3a39"/><path d="M3838.7,4440.763c.6,7.416,2.846,12.925,5.519,12.925s4.913-5.509,5.519-12.925Z" transform="translate(-3776.489 -4332.262)" fill="#231815"/><path d="M3830.755,4440.763h-7.5c.606,7.416,2.848,12.925,5.521,12.925h7.5C3833.6,4453.688,3831.359,4448.179,3830.755,4440.763Z" transform="translate(-3768.541 -4332.262)" fill="#3e3a39"/><path d="M3925.969,4414.544c0,9.356-2.542,16.944-5.679,16.944s-5.681-7.588-5.681-16.944,2.544-16.941,5.681-16.941S3925.969,4405.187,3925.969,4414.544Z" transform="translate(-3815.533 -4310.062)" fill="#595757"/><path d="M3926.941,4421.212c0,5.879-1.449,10.645-3.237,10.645s-3.239-4.766-3.239-10.645,1.451-10.646,3.239-10.646S3926.941,4415.333,3926.941,4421.212Z" transform="translate(-3818.545 -4316.729)" fill="#eeeeef"/><path d="M3942.869,4407.314c0-9.357,2.544-16.942,5.682-16.942h-4.8c-.12-.267-.24-.531-.369-.777-.131.248-.254.508-.376.777h0c-.088.2-.176.4-.261.615a30.594,30.594,0,0,0-1.886,8.428,1.047,1.047,0,0,1-1.1,1.054h-7.736s-.695.021-.695-1.054a31.571,31.571,0,0,1,1.922-8.428c.852-2.156,1.971-3.865,3.329-3.865l-21.742-.028c-1.01-2.132-2.359-3.515-4.083-3.547-3.612-.069-4.948,5.016-5.995,10.408-.756,3.809-1.372,7.769-2.528,10.178a14.744,14.744,0,0,1-5.393,6.139.113.113,0,0,1,0,.02,10.876,10.876,0,0,1-2.366,1.166,13.468,13.468,0,0,0,2.579,1.263c.756,6.7,2.876,11.537,5.379,11.537h7.5c-2.354,0-4.374-4.271-5.236-10.357h0a47.309,47.309,0,0,1-.445-6.586c0-9.357,2.543-16.942,5.681-16.942,1.346,0,2.582,1.4,3.554,3.732h0a20.757,20.757,0,0,1,.876,2.614.174.174,0,0,0,.006.022c.127.468.243.958.351,1.465,0,.022.01.045.015.069q.163.766.3,1.585s0,.012,0,.017q.135.831.241,1.71c0,.018,0,.038.007.056.067.559.122,1.131.169,1.717.005.05.008.106.013.16.042.565.078,1.144.1,1.729,0,.053,0,.1.005.155q.037.94.038,1.911,0,.791-.026,1.559c-.006.212-.017.419-.025.631-.017.364-.031.73-.056,1.083.079-.109.149-.231.221-.351h13.346a2.391,2.391,0,0,0,2.384-1.917h3.923c.175,8.888,2.647,15.938,5.672,15.938h7.5C3945.413,4424.257,3942.869,4416.669,3942.869,4407.314Z" transform="translate(-3805.176 -4302.832)" fill="#231815"/><path d="M3925.969,4414.544c0,9.356-2.542,16.944-5.679,16.944s-5.681-7.588-5.681-16.944,2.544-16.941,5.681-16.941S3925.969,4405.187,3925.969,4414.544Z" transform="translate(-3815.533 -4310.062)" fill="#595757"/><path d="M3926.941,4421.212c0,5.879-1.449,10.645-3.237,10.645s-3.239-4.766-3.239-10.645,1.451-10.646,3.239-10.646S3926.941,4415.333,3926.941,4421.212Z" transform="translate(-3818.545 -4316.729)" fill="#eeeeef"/><path d="M4006.6,4429.106c0,1.764-.436,3.193-.972,3.193s-.97-1.429-.97-3.193.434-3.191.97-3.191S4006.6,4427.342,4006.6,4429.106Z" transform="translate(-3861.852 -4324.624)" fill="#595757"/><path d="M3927.074,4429.106c0,1.764-.435,3.193-.97,3.193s-.972-1.429-.972-3.193.436-3.191.972-3.191S3927.074,4427.342,3927.074,4429.106Z" transform="translate(-3820.946 -4324.624)" fill="#595757"/><path d="M4003.543,4431.962c-1.908,0-2.938-4.566-2.938-8.864s1.03-8.867,2.938-8.867,2.939,4.568,2.939,8.867S4005.454,4431.962,4003.543,4431.962Zm0-17.033c-1.057,0-2.241,3.494-2.241,8.169s1.183,8.166,2.241,8.166,2.242-3.493,2.242-8.166S4004.6,4414.929,4003.543,4414.929Z" transform="translate(-3859.767 -4318.615)" fill="#231815"/><path d="M3924.02,4431.962c-1.909,0-2.939-4.566-2.939-8.864s1.03-8.867,2.939-8.867,2.939,4.568,2.939,8.867S3925.93,4431.962,3924.02,4431.962Zm0-17.033c-.936,0-2.242,3.107-2.242,8.169s1.305,8.166,2.242,8.166,2.241-3.106,2.241-8.166S3924.957,4414.929,3924.02,4414.929Z" transform="translate(-3818.863 -4318.615)" fill="#231815"/><path d="M3887.614,4393.127s-1.859,23.133-3.722,23.133h5.452a14.343,14.343,0,0,0,7.444-7.2c1.779-3.706,2.277-11.09,3.97-15.933Z" transform="translate(-3799.734 -4307.759)" fill="#1a1a1a"/><path d="M3906.916,4382.372h-11.171l-4.188,5.224H3904.7c.743-2.131,1.685-3.763,3.123-4.379A.87.87,0,0,0,3906.916,4382.372Z" transform="translate(-3803.675 -4302.227)" fill="#262626"/><path d="M3710.592,4393.127s-.041,23.133,6.938,23.133h77.222c1.863,0,3.722-23.133,3.722-23.133Z" transform="translate(-3710.592 -4307.759)" fill="#333"/><path d="M3710.593,4387.594l2.52-5.223h89.548l-4.187,5.223Z" transform="translate(-3710.593 -4302.227)" fill="#4d4d4d"/><path d="M3902.729,4350.512h-1.891v4.713h2.676v-3.415S3903.455,4350.512,3902.729,4350.512Z" transform="translate(-3808.45 -4285.838)" fill="#ec6c00"/><rect width="2.676" height="10.755" transform="translate(92.389 69.39)" fill="#dbdcdc"/><path d="M3741.587,4242.484c-8.14,0-10.028,4.962-10.028,4.962s-14.631,34.994-15.238,36.316a9.016,9.016,0,0,0-.366,3.687l-.174,7.5H3727.2c4.1,0,4.114,4.713,4.114,4.713v10.759h74.332v-24.59l.161-2.065s1.079-32.372,1.46-35.5a6.532,6.532,0,0,1,6.046-5.783Zm62.392,39.792c-.059.988-.606,3.283-4.424,3.283H3723.3c-1.722,0-2.448-.638-2.753-1.176a2.471,2.471,0,0,1,.245-2.521c.439-.736,3.843-9.159,6.847-16.588,3.764-9.307,6.074-15,6.435-15.568l.046-.071c.759-1.2,1.62-2.558,3.618-2.613,1.727-.049,8.17-.073,19.151-.073,10.753,0,25.434.022,43.641.068l1.71.005a3.561,3.561,0,0,1,2.473,1.118,3.155,3.155,0,0,1,.894,2.337C3805.518,4252.287,3804.069,4280.783,3803.979,4282.276Z" transform="translate(-3713.262 -4230.272)" fill="#e2e2e2"/><path d="M3810.463,4256.259a2.1,2.1,0,0,0-.6-1.564,2.527,2.527,0,0,0-1.716-.794l-1.712,0c-18.206-.047-32.887-.07-43.639-.07-10.972,0-17.4.026-19.121.075-1.44.04-2.054,1.008-2.763,2.128l-.046.071c-.342.55-3.533,8.438-6.348,15.4-3.89,9.622-6.474,15.984-6.92,16.733a1.529,1.529,0,0,0-.234,1.468c.239.419.894.647,1.844.647h76.253c2.152,0,3.289-.772,3.381-2.3C3808.924,4286.556,3810.374,4258.07,3810.463,4256.259Z" transform="translate(-3719.162 -4236.106)" fill="#fff" opacity="0.4"/><path d="M3804.344,4290.287h-76.253c-1.722,0-2.448-.638-2.753-1.176a2.47,2.47,0,0,1,.244-2.521c.439-.738,3.843-9.161,6.847-16.588,3.764-9.308,6.075-15,6.436-15.569l.046-.071c.758-1.2,1.62-2.558,3.617-2.613,1.727-.05,8.17-.075,19.152-.075,10.752,0,25.434.024,43.641.068l1.71.007a3.558,3.558,0,0,1,2.472,1.117,3.154,3.154,0,0,1,.895,2.338c-.09,1.811-1.539,30.307-1.629,31.8C3808.709,4287.992,3808.163,4290.287,3804.344,4290.287Zm-42.664-37.567c-10.972,0-17.405.025-19.121.074-1.441.041-2.055,1.008-2.764,2.128l-.046.07c-.343.551-3.533,8.441-6.348,15.4-3.889,9.622-6.474,15.983-6.92,16.732a1.529,1.529,0,0,0-.233,1.469c.239.419.894.647,1.844.647h76.253c2.152,0,3.289-.772,3.38-2.3.088-1.493,1.538-29.978,1.628-31.79a2.1,2.1,0,0,0-.6-1.563,2.523,2.523,0,0,0-1.716-.793l-1.713-.006C3787.113,4252.744,3772.431,4252.72,3761.68,4252.72Z" transform="translate(-3718.052 -4234.999)"/><path d="M3727.2,4350.512h-11.423v4.713h15.537S3731.306,4350.512,3727.2,4350.512Z" transform="translate(-3713.262 -4285.838)" fill="#f29600"/><rect width="15.537" height="10.755" transform="translate(2.52 69.39)" fill="#fff"/><path d="M4.887,0h.224A4.886,4.886,0,0,1,10,4.886V9.07a4.886,4.886,0,0,1-4.886,4.886H4.888A4.888,4.888,0,0,1,0,9.068V4.887A4.887,4.887,0,0,1,4.887,0Z" transform="translate(98.14 41.465)"/><path d="M3872.768,4350.512h11.517v4.713h-15.628S3868.668,4350.512,3872.768,4350.512Z" transform="translate(-3791.897 -4285.838)" fill="#f29600"/><rect width="15.629" height="10.755" transform="translate(76.76 69.39)" fill="#fff"/><path d="M3798.509,4402.018a2.374,2.374,0,0,1-2.374,2.373h-76.546a2.372,2.372,0,0,1-2.373-2.373v-1.01a2.373,2.373,0,0,1,2.373-2.374h76.546a2.375,2.375,0,0,1,2.374,2.374Z" transform="translate(-3713.999 -4310.592)"/><path d="M2.878,0H8.915a2.878,2.878,0,0,1,2.878,2.878v0A2.878,2.878,0,0,1,8.915,5.757H2.878A2.878,2.878,0,0,1,0,2.878v0A2.878,2.878,0,0,1,2.878,0Z" transform="translate(3.216 88.042)" fill="#c8c9ca"/><path d="M2.878,0H8.915a2.878,2.878,0,0,1,2.878,2.878v0A2.879,2.879,0,0,1,8.914,5.757H2.878A2.878,2.878,0,0,1,0,2.878v0A2.878,2.878,0,0,1,2.878,0Z" transform="translate(72.855 88.042)" fill="#c8c9ca"/><path d="M1.223,0H31.368A1.222,1.222,0,0,1,32.59,1.222V7.533a1.222,1.222,0,0,1-1.222,1.222H1.223A1.223,1.223,0,0,1,0,7.532V1.223A1.223,1.223,0,0,1,1.223,0Z" transform="translate(26.911 91.609)" fill="#d9d9d9"/><path d="M3935.193,4341.674a.593.593,0,0,0,.593.594h2.769a.592.592,0,0,0,.592-.594v-1.781a.593.593,0,0,0-.592-.594h-2.769a.594.594,0,0,0-.593.594Z" transform="translate(-3826.121 -4280.072)" fill="#262626"/><rect width="35.769" height="18.558" transform="translate(115.352 63.453)" fill="#b4b4b5"/><path d="M3949.937,4371.492a.585.585,0,0,1-.466-.567v-1.106a.592.592,0,0,1,.591-.595h-1.15v-16.028h-.792v16.028h-.006v2.267Z" transform="translate(-3832.768 -4287.219)" fill="#888"/><rect width="7.153" height="12.56" transform="translate(115.986 95.195)" fill="#c8c9ca"/><g transform="translate(126.152 84.292)"><path d="M3970.363,4407.295c0,1.076.695,1.055.695,1.055h7.735a1.048,1.048,0,0,0,1.1-1.055,30.611,30.611,0,0,1,1.886-8.427h-9.5A31.61,31.61,0,0,0,3970.363,4407.295Z" transform="translate(-3970.363 -4395.003)" fill="#b3b3b3"/><path d="M3987.333,4390.911h-9.683c-1.357,0-2.477,1.708-3.329,3.864h9.5C3984.68,4392.619,3985.847,4390.911,3987.333,4390.911Z" transform="translate(-3972.399 -4390.911)" fill="#717071"/></g><rect width="35.769" height="2.522" transform="translate(115.352 63.453)" fill="#9e9e9f"/><g transform="translate(121.378 4.417)"><path d="M3983.373,4226.443s1.835,2.775,3.429,2.775c1.93,0,3.564-2.989,3.564-2.775,0,.262-1.375,3.966-3.564,3.966S3983.335,4226.841,3983.373,4226.443Z" transform="translate(-3972.282 -4226.432)" fill="#47856b"/><path d="M4006.1,4226.443s1.833,2.775,3.429,2.775c1.931,0,3.562-2.989,3.562-2.775,0,.262-1.372,3.966-3.562,3.966S4006.062,4226.841,4006.1,4226.443Z" transform="translate(-3983.972 -4226.432)" fill="#47856b"/><path d="M3960.534,4226.443s1.834,2.775,3.43,2.775c1.929,0,3.564-2.989,3.564-2.775,0,.262-1.376,3.966-3.564,3.966S3960.5,4226.841,3960.534,4226.443Z" transform="translate(-3960.533 -4226.432)" fill="#47856b"/></g><g transform="translate(121.379 4.154)"><path d="M3983.374,4226.036c0-.629,1.835,1.436,3.429,1.436,1.931,0,3.564-2.149,3.564-1.436a4.216,4.216,0,0,1-3.564,2.728C3984.615,4228.763,3983.374,4226.183,3983.374,4226.036Z" transform="translate(-3972.283 -4225.891)" fill="#27654d"/><path d="M4006.1,4226.036c0-.629,1.833,1.436,3.429,1.436,1.93,0,3.562-2.149,3.562-1.436a4.212,4.212,0,0,1-3.562,2.728C4007.343,4228.763,4006.1,4226.183,4006.1,4226.036Z" transform="translate(-3983.974 -4225.891)" fill="#27654d"/><path d="M3960.535,4226.036c0-.629,1.835,1.436,3.43,1.436,1.93,0,3.564-2.149,3.564-1.436a4.219,4.219,0,0,1-3.564,2.728C3961.776,4228.763,3960.535,4226.183,3960.535,4226.036Z" transform="translate(-3960.535 -4225.891)" fill="#27654d"/></g><g transform="translate(133.271 56.226)"><path d="M3990.591,4337.232c0-.269-.381.63-.824,1.342-.544.874-.792.74-.8,1.008s.427.118.872-.532A4.651,4.651,0,0,0,3990.591,4337.232Z" transform="translate(-3987.054 -4335.209)" fill="#47856b"/><path d="M3990.385,4333.156c0-.253-.414.813-.82,1.971a10.666,10.666,0,0,0-.678,1.967c.012.277.433-.34.844-1.442A10.771,10.771,0,0,0,3990.385,4333.156Z" transform="translate(-3987.01 -4333.119)" fill="#27654d"/><path d="M3985.024,4337.232c0-.269.381.63.824,1.342.545.874.793.74.795,1.008s-.425.118-.873-.532A4.677,4.677,0,0,1,3985.024,4337.232Z" transform="translate(-3985.024 -4335.209)" fill="#47856b"/><path d="M3985.355,4333.156c.007-.253.415.813.821,1.971a10.559,10.559,0,0,1,.679,1.967c-.013.277-.434-.34-.847-1.442A10.958,10.958,0,0,1,3985.355,4333.156Z" transform="translate(-3985.194 -4333.119)" fill="#27654d"/></g><g transform="translate(147.088 56.226)"><path d="M4019.044,4337.232c0-.269-.38.63-.825,1.342-.543.874-.792.74-.794,1.008s.425.118.873-.532A4.709,4.709,0,0,0,4019.044,4337.232Z" transform="translate(-4015.508 -4335.209)" fill="#47856b"/><path d="M4018.838,4333.156c0-.253-.415.813-.821,1.971a10.681,10.681,0,0,0-.679,1.967c.013.277.434-.34.846-1.442A11.038,11.038,0,0,0,4018.838,4333.156Z" transform="translate(-4015.463 -4333.119)" fill="#27654d"/><path d="M4013.477,4337.232c0-.269.38.63.824,1.342.544.874.792.74.795,1.008s-.426.118-.873-.532A4.669,4.669,0,0,1,4013.477,4337.232Z" transform="translate(-4013.477 -4335.209)" fill="#47856b"/><path d="M4013.809,4333.156c.005-.253.414.813.82,1.971a10.672,10.672,0,0,1,.679,1.967c-.011.277-.434-.34-.846-1.442A10.947,10.947,0,0,1,4013.809,4333.156Z" transform="translate(-4013.648 -4333.119)" fill="#27654d"/></g><g transform="translate(121.169 56.226)"><path d="M3965.67,4337.232c0-.269-.381.63-.824,1.342-.544.874-.794.74-.8,1.008s.427.118.874-.532A4.7,4.7,0,0,0,3965.67,4337.232Z" transform="translate(-3962.134 -4335.209)" fill="#47856b"/><path d="M3965.465,4333.156c-.007-.253-.413.813-.819,1.971a10.577,10.577,0,0,0-.68,1.967c.013.277.434-.34.845-1.442A10.851,10.851,0,0,0,3965.465,4333.156Z" transform="translate(-3962.09 -4333.119)" fill="#27654d"/><path d="M3960.1,4337.232c0-.269.382.63.824,1.342.545.874.793.74.795,1.008s-.424.118-.871-.532A4.687,4.687,0,0,1,3960.1,4337.232Z" transform="translate(-3960.104 -4335.209)" fill="#47856b"/><path d="M3960.437,4333.156c.006-.253.414.813.82,1.971a10.71,10.71,0,0,1,.679,1.967c-.012.277-.433-.34-.846-1.442A10.947,10.947,0,0,1,3960.437,4333.156Z" transform="translate(-3960.275 -4333.119)" fill="#27654d"/></g><path d="M3961.213,4366.79h-.01a.208.208,0,0,1-.2-.218l1.119-23.262a.212.212,0,0,1,.21-.2h.01a.212.212,0,0,1,.2.22l-1.119,23.261A.209.209,0,0,1,3961.213,4366.79Z" transform="translate(-3839.397 -4282.032)" fill="#717071"/><path d="M3989.759,4366.79a.208.208,0,0,1-.208-.2l-1.051-23.261a.213.213,0,0,1,.2-.22.208.208,0,0,1,.218.2l1.05,23.261a.207.207,0,0,1-.2.218Z" transform="translate(-3853.541 -4282.032)" fill="#717071"/><path d="M4015.056,4366.79h-.011a.208.208,0,0,1-.2-.218l1.117-23.262a.2.2,0,0,1,.221-.2.211.211,0,0,1,.2.22l-1.118,23.261A.209.209,0,0,1,4015.056,4366.79Z" transform="translate(-3867.093 -4282.032)" fill="#717071"/></g><g transform="translate(139.395 61.895)"><g transform="translate(0 0.26)"><rect width="2.426" height="2.426" transform="translate(11.627 8.44)" fill="#03a58e"/><path d="M3760.942,4351.338v-2.426h1.926l-5.566-3.585-5.566,3.585h1.927v7.279h2.426v-2.425h2.426v-2.428h2.421v2.427h-2.421v2.426h2.426v-2.426h2.421v-2.427Z" transform="translate(-3751.736 -4345.326)" fill="#03a58e"/></g><rect width="2.388" height="2.388" transform="translate(20.077 0.154)" fill="#03a58e"/><g transform="translate(15.285)"><path d="M3791.863,4347.566l-6.239.182a1.513,1.513,0,0,0,1-1.889,1.471,1.471,0,0,0-.155-.344l.027-.009h0l.83-.287a.055.055,0,0,0,.035-.071h0c-.009-.024-.026-.035-.061-.036l-.979.041-.173-.01a1.514,1.514,0,1,0-1.339,2.63h0v0h0l-.415,4.091-1.015,3.39h0l-.027.089-.135.45h0a.1.1,0,0,0,.069.127.146.146,0,0,0,.03,0h2.259a.115.115,0,0,0,.115-.116h0v-.44a.116.116,0,0,0-.115-.116h-.243l.867-2.9,2.649.4v3.02a.142.142,0,0,0,.141.143h2.255a.116.116,0,0,0,.115-.116h0v-.44a.115.115,0,0,0-.115-.115h-.493v-3.874a.3.3,0,0,0-.254-.3l-4.049-.617.086-.846,5.387-.156a.15.15,0,0,0,.146-.154l-.046-1.6a.152.152,0,0,0-.155-.146Zm-7.718-1.03a1.06,1.06,0,0,1-.027-.214l.127-.043,1.777-.612a1.058,1.058,0,1,1-1.878.871v0Z" transform="translate(-3783.21 -4344.791)" fill="#1a1311"/><path d="M3815.919,4350.4h-1.182v-1.637a.16.16,0,0,0-.16-.16h-1.453a.161.161,0,0,0-.16.16h0v1.637h-2.176a.161.161,0,0,0-.16.162v1.451a.16.16,0,0,0,.16.159h2.176v5.083h-.43a.135.135,0,0,0-.135.135v.355a.136.136,0,0,0,.135.135h2.062a.141.141,0,0,0,.141-.142h0v-5.566h1.183a.161.161,0,0,0,.16-.16h0v-1.452A.161.161,0,0,0,3815.919,4350.4Z" transform="translate(-3797.314 -4346.753)" fill="#1a1311"/><path d="M3834.147,4351.035h-1.065v-1.068a.132.132,0,0,0-.133-.133h-1.331a.132.132,0,0,0-.133.132h0v1.068h-1.748a.132.132,0,0,0-.133.132h0v1.507a.132.132,0,0,0,.132.132h1.749v2.6a1.5,1.5,0,0,1-1.5,1.5h-.263a.122.122,0,0,0-.123.122h0v1.35a.122.122,0,0,0,.123.123h.261a3.093,3.093,0,0,0,3.094-3.093h0v-2.6h1.064a.132.132,0,0,0,.132-.133h0v-1.507A.131.131,0,0,0,3834.147,4351.035Z" transform="translate(-3807.074 -4347.386)" fill="#1a1311"/><path d="M3846.9,4353.7h1.533a.162.162,0,0,0,.161-.162v-1.6h1.436a.09.09,0,0,0,.09-.089h0V4349.2a.15.15,0,0,0-.15-.15h-.1v-.005h-3.322v-1.369a.142.142,0,0,0-.142-.141h-1.41a.141.141,0,0,0-.142.141h0v1.369h-3.423a.151.151,0,0,0-.151.15v2.594a.143.143,0,0,0,.143.142h1.383v1.6a.161.161,0,0,0,.162.162h1.886v.372h-2.379a.142.142,0,0,0-.143.143v1.033a.143.143,0,0,0,.143.143h2.379v.349h-3.429a.144.144,0,0,0-.145.143h0v1.031a.144.144,0,0,0,.145.143h8.553a.144.144,0,0,0,.143-.143v-1.031a.144.144,0,0,0-.143-.144h-3.429v-.348h2.379a.144.144,0,0,0,.143-.144v-1.033a.143.143,0,0,0-.143-.143h-2.379v-.372Zm-3.927-2.9v-.31h5.452v.31Zm1.526,1.467v-.038a.161.161,0,0,1,.161-.16h2.079a.161.161,0,0,1,.162.16v.038a.161.161,0,0,1-.162.161h-2.079a.162.162,0,0,1-.161-.161Z" transform="translate(-3813.077 -4346.203)" fill="#1a1311"/><path d="M3825.807,4358.14h-.364v-5.7a.133.133,0,0,0-.133-.133h-1.344a.133.133,0,0,0-.133.133h0v6.1a.173.173,0,0,0,.172.173h1.8a.148.148,0,0,0,.148-.148h0v-.271a.15.15,0,0,0-.147-.148Z" transform="translate(-3804.106 -4348.657)" fill="#1a1311"/><path d="M3812.15,4359.168a.84.84,0,1,0,.84.839h0A.839.839,0,0,0,3812.15,4359.168Z" transform="translate(-3797.665 -4352.187)" fill="#1a1311"/><path d="M3844.8,4348.556a.839.839,0,1,0-.84-.839h0A.839.839,0,0,0,3844.8,4348.556Z" transform="translate(-3814.459 -4345.864)" fill="#1a1311"/><path d="M3854.173,4348.556a.839.839,0,1,0-.839-.839h0A.839.839,0,0,0,3854.173,4348.556Z" transform="translate(-3819.28 -4345.864)" fill="#1a1311"/><path d="M3805.719,4349.393l-1.315-.663a.151.151,0,0,0-.2.066h0l-1.236,2.468-.005,0-.535,1.074a.151.151,0,0,0,.067.2l1.071.532v4.706a.164.164,0,0,0,.163.164h1.446a.164.164,0,0,0,.163-.164v-5.195a.221.221,0,0,0-.123-.2l-.658-.328,1.233-2.46a.149.149,0,0,0-.068-.2Z" transform="translate(-3793.085 -4346.809)" fill="#1a1311"/></g><g transform="translate(10.974 12.39)"><path d="M3795.033,4370.769h-.4v.313H3795v1.268h-.306v-.085h-.81v.1h-.291v-1.282h.351v-.313h-.368v-.229q-.056.157-.124.31l.074.024a.072.072,0,0,1-.063.044v1.48h-.3v-1.01c-.037.055-.075.106-.112.152a3.222,3.222,0,0,0-.129-.342,2.7,2.7,0,0,0,.41-.883l.341.114c-.009.02-.031.031-.065.029l-.009.023h1.438Zm-1.149.589v.636h.09v-.636Zm.449,0h-.094v.636h.094Zm0-.275v-.312h-.092v.313Zm.362.911v-.635h-.1v.635Z" transform="translate(-3783.893 -4370.31)" fill="#1a1311"/><path d="M3800.562,4370.524l.206.1a.08.08,0,0,1-.033.036,1.64,1.64,0,0,1-.313.558,1.472,1.472,0,0,0,.469.223,1.381,1.381,0,0,0-.179.233v.711h-.306v-.06h-.375v.067h-.293v-.678l-.1.039a1.04,1.04,0,0,0-.092-.151l-.083.118c-.02-.053-.051-.12-.083-.19v.861h-.3v-.723a1.576,1.576,0,0,1-.177.354,1.673,1.673,0,0,0-.142-.291,1.978,1.978,0,0,0,.3-.683h-.245v-.293h.267v-.443l.364.02c0,.023-.022.037-.063.045v.378h.223v.133a1.734,1.734,0,0,0,.354-.578l.341.112a.059.059,0,0,1-.063.025c-.014.031-.029.065-.044.1h.32Zm-1.183.518v.071c.05.061.174.237.233.325a1.776,1.776,0,0,0,.381-.225c-.047-.058-.09-.116-.129-.176a1.288,1.288,0,0,1-.146.15,1.913,1.913,0,0,0-.153-.146Zm1.01.511a1.416,1.416,0,0,1-.182-.132,1.6,1.6,0,0,1-.179.132Zm-.359.5h.375v-.231h-.375Zm.006-1.246a1.518,1.518,0,0,0,.159.211,1.28,1.28,0,0,0,.147-.211Z" transform="translate(-3786.897 -4370.303)" fill="#1a1311"/><path d="M3805.157,4372.125a.306.306,0,1,1-.306-.307A.306.306,0,0,1,3805.157,4372.125Z" transform="translate(-3789.874 -4371.083)" fill="#1a1311"/><path d="M3808.374,4371.671a1.752,1.752,0,0,1,.551.254.7.7,0,0,1-.157.344,1.328,1.328,0,0,0-.379-.261v0c0,.217-.159.363-.475.363-.337,0-.556-.143-.556-.394,0-.213.209-.37.556-.37.043,0,.087,0,.129,0l-.009-.175c-.2,0-.388,0-.537-.007a1.1,1.1,0,0,1-.057-.33c.128.016.258.024.388.027.059,0,.127,0,.2,0v-.209c-.152,0-.3,0-.455-.015a1.014,1.014,0,0,1-.052-.311,2.4,2.4,0,0,0,.359.031h.153v-.026a2.33,2.33,0,0,0,0-.236,1.779,1.779,0,0,1,.349.025c-.007.073-.011.147-.014.223a2.555,2.555,0,0,0,.359-.047,1,1,0,0,1,0,.3,2.808,2.808,0,0,1-.366.042c0,.065,0,.129,0,.194v.011a3.072,3.072,0,0,0,.448-.066,1.209,1.209,0,0,1,0,.327,3.852,3.852,0,0,1-.429.051Zm-.32.23a1.083,1.083,0,0,0-.182-.016c-.11,0-.186.031-.186.093s.052.1.177.1.188-.047.19-.173Z" transform="translate(-3791.319 -4370.333)" fill="#1a1311"/><path d="M3812.25,4371.581a.4.4,0,0,0-.064.2c0,.1.067.2.385.2a1.831,1.831,0,0,0,.725-.138,1,1,0,0,1,.087.363,2.18,2.18,0,0,1-.8.126c-.469,0-.776-.171-.776-.47a.975.975,0,0,1,.1-.393A1.338,1.338,0,0,1,3812.25,4371.581Zm-.257-1.015a3.913,3.913,0,0,0,1.147.013,1.586,1.586,0,0,1-.007.344,4.5,4.5,0,0,1-1.123,0,1.478,1.478,0,0,1-.017-.356Zm1.461.189a.667.667,0,0,1-.176.073,1.548,1.548,0,0,0-.127-.3.861.861,0,0,1,.169-.072,1.531,1.531,0,0,1,.134.3Zm.244-.1a.69.69,0,0,1-.173.074,1.311,1.311,0,0,0-.129-.286.96.96,0,0,1,.169-.073,1.044,1.044,0,0,1,.134.285Z" transform="translate(-3793.61 -4370.336)" fill="#1a1311"/><path d="M3817.1,4371.793a.409.409,0,0,0-.063.2c0,.1.068.2.385.2a1.873,1.873,0,0,0,.725-.138,1,1,0,0,1,.087.363,2.2,2.2,0,0,1-.8.126c-.468,0-.775-.171-.775-.47a.937.937,0,0,1,.1-.393A1.255,1.255,0,0,1,3817.1,4371.793Zm-.256-1.017a4.315,4.315,0,0,0,1.213.014,1.587,1.587,0,0,1-.006.344,5.167,5.167,0,0,1-1.191,0A1.734,1.734,0,0,1,3816.843,4370.776Z" transform="translate(-3796.104 -4370.547)" fill="#1a1311"/><path d="M3821.5,4370.551a4.915,4.915,0,0,0,.784-.066.84.84,0,0,1,.133.234,6.34,6.34,0,0,0-.559.515.815.815,0,0,1,.244-.038.582.582,0,0,1,.625.534l0,.023c0,.427-.333.754-1.083.68a1.123,1.123,0,0,1-.113-.372c.481.085.83.008.83-.315,0-.143-.11-.279-.353-.279a.978.978,0,0,0-.757.528.981.981,0,0,1-.252-.285c.23-.256.67-.685.867-.885-.1.018-.333.042-.489.05a1.214,1.214,0,0,1-.079-.333C3821.338,4370.547,3821.415,4370.551,3821.5,4370.551Z" transform="translate(-3798.336 -4370.396)" fill="#1a1311"/><path d="M3775.35,4371.671a1.76,1.76,0,0,1,.551.254.7.7,0,0,1-.158.344,1.31,1.31,0,0,0-.38-.261v0c0,.217-.159.363-.474.363-.337,0-.557-.143-.557-.394,0-.213.21-.37.557-.37.043,0,.087,0,.129,0l-.009-.175c-.194,0-.388,0-.537-.007a1.105,1.105,0,0,1-.057-.33c.129.016.259.024.388.027.059,0,.127,0,.2,0v-.209q-.229,0-.456-.015a1.052,1.052,0,0,1-.053-.311,2.39,2.39,0,0,0,.359.031H3775v-.026c0-.12,0-.17,0-.236a1.761,1.761,0,0,1,.347.025c-.006.073-.011.147-.013.223a2.545,2.545,0,0,0,.359-.047,1,1,0,0,1,0,.3,2.805,2.805,0,0,1-.367.042c0,.065,0,.129,0,.194v.011a3.066,3.066,0,0,0,.447-.066,1.162,1.162,0,0,1,0,.327,3.827,3.827,0,0,1-.428.051Zm-.32.23a1.067,1.067,0,0,0-.182-.016c-.109,0-.186.031-.186.093s.052.1.177.1.19-.047.192-.173Z" transform="translate(-3774.333 -4370.333)" fill="#1a1311"/><path d="M3779.229,4371.581a.421.421,0,0,0-.064.2c0,.1.068.2.385.2a1.831,1.831,0,0,0,.724-.138.994.994,0,0,1,.088.363,2.179,2.179,0,0,1-.8.126c-.47,0-.775-.171-.775-.47a.966.966,0,0,1,.1-.393A1.321,1.321,0,0,1,3779.229,4371.581Zm-.256-1.015a3.907,3.907,0,0,0,1.147.013,1.6,1.6,0,0,1-.007.344,4.508,4.508,0,0,1-1.124,0,1.543,1.543,0,0,1-.016-.356Zm1.46.189a.664.664,0,0,1-.176.073,1.518,1.518,0,0,0-.127-.3.913.913,0,0,1,.168-.072,1.477,1.477,0,0,1,.135.3Zm.244-.1a.7.7,0,0,1-.173.074,1.349,1.349,0,0,0-.13-.286.973.973,0,0,1,.169-.073,1.07,1.07,0,0,1,.133.285Z" transform="translate(-3776.625 -4370.336)" fill="#1a1311"/><path d="M3784.078,4371.793a.4.4,0,0,0-.063.2c0,.1.067.2.384.2a1.87,1.87,0,0,0,.726-.138,1,1,0,0,1,.088.363,2.206,2.206,0,0,1-.8.126c-.469,0-.775-.171-.775-.47a.936.936,0,0,1,.1-.393A1.243,1.243,0,0,1,3784.078,4371.793Zm-.256-1.017a4.32,4.32,0,0,0,1.214.014,1.722,1.722,0,0,1-.007.344,5.167,5.167,0,0,1-1.191,0A1.653,1.653,0,0,1,3783.822,4370.776Z" transform="translate(-3779.119 -4370.547)" fill="#1a1311"/><path d="M3788.475,4370.551a4.911,4.911,0,0,0,.784-.066.909.909,0,0,1,.134.234,6.172,6.172,0,0,0-.559.515.8.8,0,0,1,.243-.038.583.583,0,0,1,.625.534v.023c0,.427-.333.754-1.082.68a1.161,1.161,0,0,1-.114-.372c.482.085.83.008.83-.315,0-.143-.109-.279-.352-.279a.98.98,0,0,0-.757.528.994.994,0,0,1-.252-.285c.229-.256.67-.685.867-.885-.1.018-.333.042-.49.05a1.261,1.261,0,0,1-.079-.333C3788.315,4370.547,3788.392,4370.551,3788.475,4370.551Z" transform="translate(-3781.35 -4370.396)" fill="#1a1311"/><path d="M3827.746,4372.312a.868.868,0,0,1-.271.271,3.83,3.83,0,0,0-.519-.586,2.576,2.576,0,0,1-.8.573,1.532,1.532,0,0,1-.27-.306,2.126,2.126,0,0,0,.874-.562,1.547,1.547,0,0,0,.316-.47c-.265,0-.786.019-.944.025a2.247,2.247,0,0,1-.041-.344c.07.006.157.01.226.01.116,0,.765-.01.9-.016a1.239,1.239,0,0,0,.165-.016.8.8,0,0,1,.186.184,3.688,3.688,0,0,1-.394.658A4.212,4.212,0,0,1,3827.746,4372.312Z" transform="translate(-3800.85 -4370.606)" fill="#1a1311"/><path d="M3832.265,4370.739a1.157,1.157,0,0,0,.168-.015.882.882,0,0,1,.2.161,2.336,2.336,0,0,1-.367.756c.067.058.131.116.192.175a.689.689,0,0,1-.244.27c-.053-.057-.114-.118-.179-.18a1.974,1.974,0,0,1-.771.486,1.048,1.048,0,0,1-.3-.291,1.813,1.813,0,0,0,.815-.412,3.3,3.3,0,0,0-.333-.235,1.616,1.616,0,0,1,.222-.229,3.86,3.86,0,0,1,.341.216,1.26,1.26,0,0,0,.208-.415l-.554.009a2.185,2.185,0,0,1-.512.5.776.776,0,0,1-.293-.232,1.678,1.678,0,0,0,.775-.919.913.913,0,0,1,.333.148,1.575,1.575,0,0,1-.108.21c.342,0,.405-.006.405-.006Z" transform="translate(-3803.408 -4370.346)" fill="#1a1311"/><path d="M3835.985,4372.1a1.222,1.222,0,0,1-.28.129,4.1,4.1,0,0,0-.2-.423c.056-.031.214-.1.274-.125A3.749,3.749,0,0,1,3835.985,4372.1Zm1.027-.349a1.95,1.95,0,0,1-.3.712,1.423,1.423,0,0,1-.646.479,1.084,1.084,0,0,1-.253-.258,1.178,1.178,0,0,0,.634-.4,1.274,1.274,0,0,0,.248-.673,1.12,1.12,0,0,1,.317.144Zm-.565.187a1.4,1.4,0,0,1-.284.122,3.921,3.921,0,0,0-.188-.428,2.7,2.7,0,0,1,.28-.116,4.291,4.291,0,0,1,.192.423Z" transform="translate(-3805.797 -4370.927)" fill="#1a1311"/><path d="M3841.042,4371.986a1.815,1.815,0,0,1-.859.666,1.083,1.083,0,0,1-.313-.325,1.425,1.425,0,0,0,.811-.462,1.245,1.245,0,0,0,.256-.571c-.223,0-1.042.013-1.23.017a2.457,2.457,0,0,1-.033-.366c.1.009.219.015.294.015.144,0,.888-.008,1.034-.011a1.057,1.057,0,0,0,.166-.013.926.926,0,0,1,.213.169A2.555,2.555,0,0,1,3841.042,4371.986Z" transform="translate(-3807.942 -4370.628)" fill="#1a1311"/></g></g><g transform="translate(-157.064 -3947.647)"><g transform="translate(157.064 3969.547)"><g transform="translate(0 0)"><path d="M3577.657,4465.387c0,.831-25,1.505-55.839,1.505s-55.839-.675-55.839-1.505,25-1.505,55.839-1.505S3577.657,4464.557,3577.657,4465.387Z" transform="translate(-3465.355 -4365.815)" fill="#b4b4b5"/><g transform="translate(77.125 91.966)"><path d="M3634.729,4463.976s-5.19.237-6.461.235-3.988.032-4.4-.377a2.155,2.155,0,0,1-.254-.314,2.265,2.265,0,0,0,.617,1.172c.41.408,2.764.374,4.034.377s6.461-.237,6.461-.237,2.862-.312,3.009-1.156a4.73,4.73,0,0,0,.061-.764C3637.31,4463.635,3634.729,4463.976,3634.729,4463.976Z" transform="translate(-3623.565 -4457.281)" fill="#dbdcdc"/><path d="M3630.382,4452.178a6,6,0,0,1-3,1.741c-2.43.823-2.948,1.034-3.6,2.178a1.918,1.918,0,0,0-.222,1.46,2.225,2.225,0,0,0,.254.314c.41.409,3.127.374,4.4.377s6.461-.236,6.461-.236,2.582-.339,3.071-1.064a24.851,24.851,0,0,0-.909-5.63C3635.533,4452.35,3632.332,4452.587,3630.382,4452.178Z" transform="translate(-3623.509 -4451.318)" fill="#f5f6f7"/></g><g transform="translate(82.02 95.109)"><path d="M3634.336,4460.212l-.747.484a3.7,3.7,0,0,1,.888,2.1c.269-.006.567-.018.878-.028A4.112,4.112,0,0,0,3634.336,4460.212Z" transform="translate(-3633.589 -4459.037)" fill="#00254d"/><path d="M3636.434,4458.643a7.474,7.474,0,0,1,1.24,2.853c.609-.022,1.225-.048,1.778-.072a7.951,7.951,0,0,0-1.429-3.632Z" transform="translate(-3635.053 -4457.791)" fill="#00254d"/></g><g transform="translate(101.699 85.262)"><path d="M3682.621,4440.34c-.133-.132-.26-.249-.385-.363a6.1,6.1,0,0,1,.044,3.359,54.15,54.15,0,0,1-1.753,5.668c-.576,1.143-1.642,3.159-2.2,3.331a2.336,2.336,0,0,1-1.946-.156,2.157,2.157,0,0,0,2.444.592c.556-.171,1.817-1.819,2.393-2.962a54.113,54.113,0,0,0,1.752-5.669S3683.685,4441.4,3682.621,4440.34Z" transform="translate(-3675.279 -4438.781)" fill="#dbdcdc"/><path d="M3681.069,4438.709a7.063,7.063,0,0,0-1.719-1.2c-.3,1.73-2.131,5.2-5.237,4.962a8.1,8.1,0,0,1,.583,3.3c-.183,2.608-.308,3.9.441,5.036.023.033.052.066.077.1a2.334,2.334,0,0,0,1.947.156c.557-.171,1.624-2.187,2.2-3.33a54.208,54.208,0,0,0,1.752-5.668A6.1,6.1,0,0,0,3681.069,4438.709Z" transform="translate(-3674.112 -4437.513)" fill="#f5f6f7"/></g><g transform="translate(75.826 47.485)"><path d="M3630.352,4379.33c-.371-4.457-.353-9.761-.819-12.206-.174-.909-.391-.221-.434-2a44.414,44.414,0,0,0,7.213-.515c7.024-1.407,7.49-3.663,7.49-3.663s.043.192.089.469a5.326,5.326,0,0,0-.433-1.693c-1.269,3.862-8.942,4.266-13.042,4.184-3.707-.073-5.526-.915-6.84-2.414a169.336,169.336,0,0,0-2.74,20.412c-.123,5.413,6.406,22,6.665,22.424.87,1.4,7.926,1.3,8.5-.882.506-1.914-5.166-15.593-5.351-18.013C3630.5,4383.424,3630.315,4381.083,3630.352,4379.33Z" transform="translate(-3620.835 -4359.724)" fill="#ccc6ac"/></g><path d="M3650.569,4386.221c-1.325-1.14,0-6.539.689-11.978.446-3.547,1.284-6.548,1.484-10.2a7.924,7.924,0,0,0-.187-1.8s-.467,2.256-7.491,3.663a44.352,44.352,0,0,1-7.213.515c.044,1.777.261,1.088.434,2,.6,3.163.4,11.115,1.269,15.823.589,3.177,3.466,8.431,8.365,13.268,2.823,2.791,6.087,6.088,7.393,6.238,3.994.458,5.933-5.215,5.322-5.844C3659.115,4396.341,3653.91,4389.087,3650.569,4386.221Z" transform="translate(-3553.762 -4313.535)" fill="#e2dcc3"/><path d="M3623.553,4324.7c-1.516-9.86-2.314-16.652-6.523-24.817a4.882,4.882,0,0,0-.95-1.223,5.983,5.983,0,0,0-3.366-2.186,14.965,14.965,0,0,0-2.763-.953,11.486,11.486,0,0,0-2.2-.261,3.7,3.7,0,0,1-.606,1.8,8.9,8.9,0,0,1-2.75,1.736,3.26,3.26,0,0,1-1.721-2.362,6.044,6.044,0,0,1-1.6-.138c-.185-.041-.361-.095-.537-.148a11.139,11.139,0,0,0-3.728,2.19,7.318,7.318,0,0,0-2.27,3.486c-1.43,5.886-1.316,8.036-2.155,9.787-.962,1.995-6.29,5.3-10.483,7.188l1.973-.119c1.218.155,2.839,1.032,2.682,2.248l-.06,1.406a2.1,2.1,0,0,1-.488,1.044c3.928-1.784,10.066-4.51,11.482-7.446a18.36,18.36,0,0,0,.72-1.766c.509,1.408.879,2.712,1.2,3.944-.619.345-1.18.649-1.643.893,1.222.135,2.854.974,2.721,2.195l-.037,1.407a2.921,2.921,0,0,1-2.927,2.232l-1.151-.071a5.233,5.233,0,0,0,4.343-.317c.075-.042.237-.12.455-.221a16.733,16.733,0,0,0,.909,1.92c1.6,2.87,3.068,4.5,8.311,4.607C3615.072,4330.841,3624.416,4330.3,3623.553,4324.7Z" transform="translate(-3524.981 -4279.077)" fill="#00254d"/><path d="M3630.207,4295.745c-.574-1.262-1.562-1.309-1.533-1.577l-.008.079c-.018.195-.033.407-.062.633,0,.023,0,.045-.008.069-.009.065-.021.13-.033.2-.005.03-.01.057-.016.087-.013.065-.031.132-.049.2-.008.033-.015.065-.026.1-.02.066-.045.135-.07.2-.013.035-.023.069-.037.1-.029.073-.066.147-.1.222-.016.033-.029.065-.047.1a3.7,3.7,0,0,1-.2.331,8.914,8.914,0,0,1-2.75,1.734,3.258,3.258,0,0,1-1.721-2.36,6.154,6.154,0,0,1-.938-.032,7.991,7.991,0,0,0,.116,3.359c.264.888,1.309,4.249,2.288,4.357.377.041,3.678-3.526,4.283-4.575C3629.745,4298.2,3630.6,4296.608,3630.207,4295.745Z" transform="translate(-3545.854 -4278.518)" fill="#00254d"/><path d="M3624.094,4278.956c-.057-1.369-2.935-2.611-4.473-2.734-1.883-.154-3.7.558-5.381.207-1.106-.23-1.518-.971-2.581-1.6a9.554,9.554,0,0,0-.643,1.91c-.921,4.167.961,8.17,4.914,9.042a6.065,6.065,0,0,0,1.6.138,3.26,3.26,0,0,0,1.721,2.361,8.9,8.9,0,0,0,2.75-1.736,4.255,4.255,0,0,0,.647-2.256l-.4-1.254a12.831,12.831,0,0,0,1.663-3.445C3623.988,4279.374,3624.042,4279.165,3624.094,4278.956Z" transform="translate(-3539.84 -4268.569)" fill="#fbd6a0"/><path d="M3620.274,4267.5a5.836,5.836,0,0,0-4.154-5.036,7.6,7.6,0,0,0-7.012.729c-1.779,1.115-2.164,2.646-2.642,3.933l-2.472.052c-.705.009-1.267.02-1.519.032l-.311.006c.064,0,.124,0,.187,0-1.127.117-.252,1.943.962,2.433a8.755,8.755,0,0,0,3.1.448,5.267,5.267,0,0,1,.73-1.846c1,.619,1.418,1.327,2.494,1.551,1.679.351,3.5-.361,5.381-.208,1.539.123,4.421,1.368,4.473,2.737A10.464,10.464,0,0,0,3620.274,4267.5Z" transform="translate(-3535.234 -4261.942)" fill="#00254d"/><g transform="translate(52.28 39.595)"><g transform="translate(0 3.654)"><path d="M3574.061,4351.09l0-.091a6.242,6.242,0,0,0-1.549,2.409c-.048.132-.1.282-.165.439v4.436c.311-.9.72-1.954,1.066-2.836.227-.58.431-1.105.576-1.5a4.835,4.835,0,0,1,.8-1.413A1.375,1.375,0,0,1,3574.061,4351.09Z" transform="translate(-3572.35 -4350.999)" fill="#dbdcdc"/></g><path d="M3583.379,4347.13a2.929,2.929,0,0,1-2.971,2.177l-2.338-.19c-1.222-.156-2.371-.675-2.212-1.9l.055-2.1c.157-1.22,1.47-1.672,2.692-1.512l2.151-.13c1.218.155,2.839,1.032,2.682,2.249Z" transform="translate(-3574.147 -4343.475)" fill="#fbd6a0"/></g><g transform="translate(59.301 39.916)"><path d="M3612.122,4347.741a2.923,2.923,0,0,1-2.927,2.231l-2.342-.146c-1.223-.131-2.383-.631-2.248-1.852l.019-2.1c.133-1.225,1.437-1.7,2.661-1.566l2.146-.167c1.222.133,2.86.974,2.727,2.2Z" transform="translate(-3595.956 -4344.137)" fill="#fbd6a0"/><path d="M3587.592,4348.16a.785.785,0,1,0,0,1.57h7.866l.014-1.57Z" transform="translate(-3586.806 -4346.207)" fill="#dbdcdc"/><g transform="translate(11.838 2.674)"><path d="M3611.951,4412.763h-.769v16.791h1.571v-17.135A1.109,1.109,0,0,1,3611.951,4412.763Z" transform="translate(-3611.182 -4381.934)" fill="#dbdcdc"/><path d="M3615.122,4349.926a.785.785,0,1,0-1.206,1.005,2.051,2.051,0,0,1,.314,1.8c-.159.466-.421,1.134-.7,1.841-.423,1.077-.9,2.3-1.193,3.258l-.036.119a20.438,20.438,0,0,0-1.12,5.741v5.761h.769a1.105,1.105,0,0,1,.8.345v-6.105a18.911,18.911,0,0,1,1.052-5.284l.036-.119c.274-.9.74-2.091,1.152-3.141.284-.724.552-1.409.723-1.91A3.6,3.6,0,0,0,3615.122,4349.926Z" transform="translate(-3611.182 -4349.644)" fill="#dbdcdc"/></g></g><path d="M3609.39,4390.423H3606.2v11.026h3.186a1.115,1.115,0,0,0,1.114-1.115v-8.8A1.114,1.114,0,0,0,3609.39,4390.423Z" transform="translate(-3537.483 -4328.029)" fill="#69757c"/><g transform="translate(5.443 93.283)"><g transform="translate(1.724 1.973)"><path d="M3480.228,4459.282a3.531,3.531,0,0,1,.4-1.189h-1.176A2.543,2.543,0,0,1,3480.228,4459.282Z" transform="translate(-3479.453 -4458.093)" fill="#23456d"/></g><g transform="translate(2.442 1.463)"><path d="M3487.041,4457.044a8.684,8.684,0,0,1,.262,2.249c0,1.078-.476,1.649-1.062,1.649a.5.5,0,0,1-.078-.012.457.457,0,0,1-.078.012c-.377,0-.663-.332-.9-.777-.255-.488-.465-1.238-.752-1.829a4.154,4.154,0,0,0-.135,1.059c0,1.539.8,2.782,1.787,2.782s1.791-1.243,1.791-2.782A3.342,3.342,0,0,0,3487.041,4457.044Z" transform="translate(-3482.664 -4457.044)" fill="#3e3a39"/><g transform="translate(0 0.509)"><path d="M3482.573,4459.935a4.164,4.164,0,0,1,.132-1.052,1.908,1.908,0,0,0-.6-.79h-.717a3.728,3.728,0,0,0-.458,1.842c0,1.538.8,2.783,1.789,2.783h1.535a.364.364,0,0,0,.052-.008C3483.344,4462.667,3482.573,4461.444,3482.573,4459.935Z" transform="translate(-3480.931 -4458.093)" fill="#231815"/></g></g><path d="M3482.724,4454.031H3479.8a6.343,6.343,0,0,0,1.725,1.973c.659.423.947,1.844,1.348,2.611.236.445.521.779.9.779a.506.506,0,0,0,.078-.013.559.559,0,0,0,.078.013c.585,0,1.061-.573,1.061-1.65,0-2.8-.961-3.712-.961-3.712Z" transform="translate(-3477.907 -4454.031)" fill="#4878b2"/><path d="M3477.626,4456a6.327,6.327,0,0,1-1.724-1.973h1.893a6.327,6.327,0,0,0,1.725,1.973Z" transform="translate(-3475.903 -4454.031)" fill="#3e699d"/><path d="M3487.517,4459.612c-.388,0-.707.493-.707,1.1s.318,1.1.707,1.1c.1,0,.926-.009.926-1.1S3487.613,4459.612,3487.517,4459.612Z" transform="translate(-3481.514 -4456.902)" fill="#bebfbf"/></g><g transform="translate(32.65 93.283)"><g transform="translate(2.098)"><path d="M3538.632,4454.031h-2.384l.267,3.712c0,.911.474,1.65,1.06,1.65a.563.563,0,0,0,.077-.013.505.505,0,0,0,.077.013c.586,0,1.061-.74,1.061-1.65v-3.712Z" transform="translate(-3536.248 -4454.031)" fill="#4878b2"/></g><path d="M3534.514,4454.031h-1.636l.126,1.756a1.508,1.508,0,0,1,1.2-.726h.384Z" transform="translate(-3532.416 -4454.031)" fill="#23456d"/><g transform="translate(0 1.031)"><path d="M3538.3,4457.667v1.936c0,.91-.475,1.649-1.061,1.649a.51.51,0,0,1-.077-.013.563.563,0,0,1-.077.013c-.586,0-1.06-.739-1.06-1.649l-.141-1.957a3.609,3.609,0,0,0-.588,2.059c0,1.538.8,2.782,1.789,2.782s1.789-1.244,1.789-2.782A3.633,3.633,0,0,0,3538.3,4457.667Z" transform="translate(-3533.66 -4456.921)" fill="#3e3a39"/><path d="M3533.567,4458.937a3.6,3.6,0,0,1,.585-2.049l-.053-.735h-.383c-.989,0-1.789,1.249-1.789,2.784s.8,2.783,1.789,2.783h1.536a.467.467,0,0,0,.051-.008C3534.34,4461.669,3533.567,4460.446,3533.567,4458.937Z" transform="translate(-3531.927 -4456.153)" fill="#231815"/></g><path d="M3538.511,4459.612c-.389,0-.707.493-.707,1.1s.318,1.1.707,1.1c.1,0,.925-.009.925-1.1S3538.608,4459.612,3538.511,4459.612Z" transform="translate(-3534.95 -4456.902)" fill="#bebfbf"/></g><g transform="translate(38.826 95.256)"><path d="M3545.421,4459.282a3.525,3.525,0,0,1,.4-1.189h-1.176A2.543,2.543,0,0,1,3545.421,4459.282Z" transform="translate(-3544.645 -4458.093)" fill="#23456d"/></g><g transform="translate(39.544 94.746)"><path d="M3552.234,4457.044a8.708,8.708,0,0,1,.262,2.249c0,1.078-.476,1.649-1.061,1.649a.489.489,0,0,1-.078-.012.456.456,0,0,1-.079.012c-.377,0-.663-.332-.9-.777-.256-.488-.466-1.238-.753-1.829a4.133,4.133,0,0,0-.135,1.059c0,1.539.8,2.782,1.786,2.782s1.792-1.243,1.792-2.782A3.346,3.346,0,0,0,3552.234,4457.044Z" transform="translate(-3547.856 -4457.044)" fill="#595757"/><g transform="translate(0 0.509)"><path d="M3547.765,4459.935a4.119,4.119,0,0,1,.133-1.052,1.9,1.9,0,0,0-.6-.79h-.717a3.733,3.733,0,0,0-.458,1.842c0,1.538.8,2.783,1.789,2.783h1.535a.364.364,0,0,0,.052-.008C3548.537,4462.667,3547.765,4461.444,3547.765,4459.935Z" transform="translate(-3546.124 -4458.093)" fill="#231815"/></g></g><path d="M3547.917,4454.031h-2.925a6.329,6.329,0,0,0,1.725,1.973c.659.423.946,1.844,1.349,2.611.235.445.521.779.9.779a.508.508,0,0,0,.079-.013.53.53,0,0,0,.078.013c.585,0,1.061-.573,1.061-1.65,0-2.8-.961-3.712-.961-3.712Z" transform="translate(-3505.997 -4360.747)" fill="#4878b2"/><path d="M3542.819,4456a6.318,6.318,0,0,1-1.724-1.973h1.892a6.342,6.342,0,0,0,1.725,1.973Z" transform="translate(-3503.993 -4360.747)" fill="#3e699d"/><path d="M3552.709,4459.612c-.388,0-.706.493-.706,1.1s.318,1.1.706,1.1c.1,0,.926-.009.926-1.1S3552.806,4459.612,3552.709,4459.612Z" transform="translate(-3509.604 -4363.619)" fill="#bebfbf"/><path d="M3498.494,4449.673v-.855a1.116,1.116,0,0,1,1.114-1.114h-33.8a1.115,1.115,0,0,0-1.112,1.114v.855a1.115,1.115,0,0,0,1.112,1.112h33.8A1.115,1.115,0,0,1,3498.494,4449.673Z" transform="translate(-3464.694 -4357.493)" fill="#00447d"/><g transform="translate(33.8 90.21)"><path d="M1.54,0H39.718a1.54,1.54,0,0,1,1.54,1.54v0a1.542,1.542,0,0,1-1.542,1.542H1.542A1.542,1.542,0,0,1,0,1.54v0A1.54,1.54,0,0,1,1.54,0Z" fill="#00579b"/></g><g transform="translate(64.305 93.283)"><path d="M3600.448,4454.031h-2.385l.264,3.712c0,.911.475,1.65,1.061,1.65a.521.521,0,0,0,.076-.013.6.6,0,0,0,.077.013c.588,0,1.063-.74,1.063-1.65v-3.712Z" transform="translate(-3597.601 -4454.031)" fill="#2d527e"/><g transform="translate(0 1.031)"><path d="M3604.053,4458.937c0,1.539-.8,2.783-1.786,2.783s-1.791-1.244-1.791-2.783.8-2.784,1.791-2.784S3604.053,4457.4,3604.053,4458.937Z" transform="translate(-3598.842 -4456.153)" fill="#595757"/><path d="M3598.751,4458.937c0-1.508.773-2.731,1.737-2.773a.527.527,0,0,0-.053-.011H3598.9c-.988,0-1.789,1.249-1.789,2.784s.8,2.783,1.789,2.783h1.535a.511.511,0,0,0,.053-.008C3599.524,4461.669,3598.751,4460.446,3598.751,4458.937Z" transform="translate(-3597.111 -4456.153)" fill="#231815"/></g><path d="M3603.818,4454.031h-2.385l.266,3.712c0,.911.473,1.65,1.06,1.65a.493.493,0,0,0,.076-.013.549.549,0,0,0,.077.013c.586,0,1.061-.74,1.061-1.65v-3.712Z" transform="translate(-3599.334 -4454.031)" fill="#5084c4"/><path d="M3603.7,4459.612c-.393,0-.708.493-.708,1.1s.315,1.1.708,1.1c.1,0,.924-.009.924-1.1S3603.793,4459.612,3603.7,4459.612Z" transform="translate(-3600.135 -4456.902)" fill="#dbdcdc"/></g><g transform="translate(7.004 56.267)"><path d="M3479.613,4377.906h32.839v0a.442.442,0,0,0-.42.43h-32.861A.446.446,0,0,1,3479.613,4377.906Z" transform="translate(-3479.145 -4377.858)" fill="#fbd6a0"/><path d="M3546.839,4378.34a.444.444,0,0,1,.442-.435h27.928a.442.442,0,0,1,.443.435Z" transform="translate(-3513.951 -4377.858)" fill="#b09060"/><path d="M3479.613,4447.266h32.839v0a.441.441,0,0,1-.42-.43h-32.861A.443.443,0,0,0,3479.613,4447.266Z" transform="translate(-3479.145 -4413.313)" fill="#cea75f"/><path d="M3546.839,4446.832a.442.442,0,0,0,.442.434h27.928a.44.44,0,0,0,.443-.434Z" transform="translate(-3513.951 -4413.313)" fill="#90764d"/><rect width="28.865" height="33.036" transform="translate(32.852 0.483)" fill="#c4a064"/><rect width="32.852" height="33.036" transform="translate(0 0.483)" fill="#eabe6c"/><rect width="4.369" height="2.911" transform="translate(45.266)" fill="#eabe6c"/><rect width="4.369" height="2.912" transform="translate(45.266 31.041)" fill="#eabe6c"/></g><g transform="translate(10.514 59.407)"><path d="M3487.314,4384.272a.222.222,0,0,1-.063.144.238.238,0,0,1-.164.072.261.261,0,0,1-.164-.072.223.223,0,0,1-.064-.144h-.515v7.962h.508a.216.216,0,0,1,.071-.165.23.23,0,0,1,.327,0,.209.209,0,0,1,.071.165h15.027v-7.962Zm-.227,7.584a.24.24,0,0,1,0-.48.24.24,0,0,1,0,.48Zm0-.621a.236.236,0,0,1-.235-.235.242.242,0,0,1,.235-.238.236.236,0,0,1,.235.238A.231.231,0,0,1,3487.087,4391.235Zm0-.613a.237.237,0,0,1-.235-.234.241.241,0,0,1,.235-.238.236.236,0,0,1,.235.238A.232.232,0,0,1,3487.087,4390.623Zm0-.613a.236.236,0,0,1,0-.471.236.236,0,0,1,0,.471Zm0-.613a.241.241,0,0,1-.235-.235.235.235,0,0,1,.235-.235.23.23,0,0,1,.235.235A.236.236,0,0,1,3487.087,4389.4Zm0-.612a.242.242,0,0,1-.235-.235.234.234,0,0,1,.235-.234.229.229,0,0,1,.235.234A.237.237,0,0,1,3487.087,4388.784Zm0-.621a.236.236,0,0,1-.235-.235.242.242,0,0,1,.235-.236.237.237,0,0,1,.235.236A.231.231,0,0,1,3487.087,4388.164Zm0-.612a.235.235,0,0,1-.235-.235.242.242,0,0,1,.235-.236.236.236,0,0,1,.235.236A.231.231,0,0,1,3487.087,4387.552Zm0-.614a.235.235,0,0,1-.235-.235.241.241,0,0,1,.235-.236.236.236,0,0,1,.235.236A.23.23,0,0,1,3487.087,4386.938Zm0-.613a.236.236,0,0,1,0-.471.236.236,0,0,1,0,.471Zm0-.61a.243.243,0,0,1-.235-.238.236.236,0,0,1,.235-.235.231.231,0,0,1,.235.235A.237.237,0,0,1,3487.087,4385.714Zm0-.614a.241.241,0,0,1-.235-.235.235.235,0,0,1,.235-.235.23.23,0,0,1,.235.235A.235.235,0,0,1,3487.087,4385.1Z" transform="translate(-3486.345 -4384.272)" fill="#fff"/><g transform="translate(2.158 0.986)"><path d="M3497.734,4390.98h-4.24a.26.26,0,0,1,0-.521h4.24a.26.26,0,0,1,0,.521Z" transform="translate(-3492.047 -4388.44)" fill="#c8c9ca"/><path d="M3495.289,4386.822h-4.24a.26.26,0,0,1,0-.52h4.24a.26.26,0,1,1,0,.52Z" transform="translate(-3490.789 -4386.302)" fill="#c8c9ca"/><path d="M3497.283,4388.643h-6.234a.26.26,0,0,1,0-.52h6.234a.26.26,0,0,1,0,.52Z" transform="translate(-3490.789 -4387.238)" fill="#c8c9ca"/><path d="M3511.4,4390.98h-2.727a.26.26,0,1,1,0-.521h2.727a.26.26,0,0,1,0,.521Z" transform="translate(-3499.853 -4388.44)" fill="#c8c9ca"/><g transform="translate(0 3.46)"><path d="M3497.734,4398.1h-4.24a.26.26,0,0,1,0-.52h4.24a.26.26,0,0,1,0,.52Z" transform="translate(-3492.047 -4395.563)" fill="#c8c9ca"/><path d="M3495.289,4393.946h-4.24a.26.26,0,0,1,0-.52h4.24a.26.26,0,1,1,0,.52Z" transform="translate(-3490.789 -4393.426)" fill="#c8c9ca"/><path d="M3497.283,4395.763h-6.234a.26.26,0,0,1,0-.52h6.234a.26.26,0,0,1,0,.52Z" transform="translate(-3490.789 -4394.361)" fill="#c8c9ca"/></g></g><path d="M3502.7,4385.09h-12.821a.7.7,0,0,0-.694.693v5.792a.7.7,0,0,0,.694.694H3502.7a.7.7,0,0,0,.693-.694v-5.792A.7.7,0,0,0,3502.7,4385.09Zm.485.693v1.112h-5.633v-1.6h5.147A.486.486,0,0,1,3503.188,4385.783Zm-5.633,4.606V4389.1h5.633v1.286Zm0-1.389v-2h5.633v2Zm-7.674-3.7h7.467v3.32H3489.4v-2.835A.486.486,0,0,1,3489.882,4385.3Zm-.486,6.277v-2.852h7.953v3.336h-7.467A.486.486,0,0,1,3489.4,4391.575Z" transform="translate(-3487.807 -4384.692)" fill="#ed85a7"/></g><g transform="translate(74.304 23.601)"><path d="M3626.072,4320.486c1.63-2.42,2.353-6.235,2.6-8.5a14.3,14.3,0,0,0,.053-1.44,18.8,18.8,0,0,0-.906,3.342c-.452,2.259-1.24,5.844-3.237,7.257a72.639,72.639,0,0,1-6.877,4.318s.052.175.142.494C3620.9,4324.252,3625.329,4321.589,3626.072,4320.486Z" transform="translate(-3617.701 -4310.542)" fill="#fff"/><path d="M3638.017,4312.9a19.526,19.526,0,0,1-3.538,11.658c-2.27,2.96-3.706,3.606-5.842,5.105a57.056,57.056,0,0,1-6.989,3.616c.112.3.191.509.191.509a48.87,48.87,0,0,0,8.526-4.612,17.553,17.553,0,0,0,4.8-4.669C3638.347,4319.617,3638.558,4316.069,3638.017,4312.9Z" transform="translate(-3619.731 -4311.755)" fill="#fff"/></g><g transform="translate(104.945 90.019)"><path d="M3681.309,4453.969a3.787,3.787,0,0,1,2.4-.209c.087-.278.176-.568.259-.86a4.048,4.048,0,0,0-2.666.09C3681.32,4453.335,3681.323,4453.667,3681.309,4453.969Z" transform="translate(-3681.058 -4450.087)" fill="#00254d"/><path d="M3683.96,4449.265c.2-.7.374-1.342.481-1.74a6.7,6.7,0,0,0-3.644.11c.065.46.149,1.15.2,1.867A6.6,6.6,0,0,1,3683.96,4449.265Z" transform="translate(-3680.797 -4447.308)" fill="#00254d"/></g><path d="M3635.88,4297.924a3.788,3.788,0,0,1-1.457,1.942s5.482,1.015,5.213,4.406c0,0,2.691-.485,3.5.753C3643.135,4305.025,3643.481,4299.759,3635.88,4297.924Z" transform="translate(-3551.998 -4280.45)" fill="#fff"/><path d="M3615.243,4298.281s-3.875,1.723-4.629,3.069l-.485-.539s.7-1.614,4.361-3.229C3614.49,4297.582,3615.3,4298.228,3615.243,4298.281Z" transform="translate(-3539.502 -4280.274)" fill="#fff"/></g><path d="M3630.649,4311.637s-.808,7.912.215,10.173l.485.108,1.561-1.562a50.677,50.677,0,0,1-.108-6.567l1.938.269.269-2.207S3631.133,4311.528,3630.649,4311.637Z" transform="translate(-3549.901 -4287.492)" fill="#fff"/><path d="M3613.435,4311.4s4.176-.291,5.093.025c0,0,.314,9.617-.413,10.812l-1.849-.108.188-8.909-2.953.034Z" transform="translate(-3541.203 -4287.317)" fill="#fff"/><path d="M3641,4331.277l-2.8-1.992s-2.961,5.06-6.567,6.405l2.045,3.015,3.391-2.584,2.476-2.53Z" transform="translate(-3550.564 -4296.582)" fill="#fff"/><path d="M3600.522,4323.19a10.609,10.609,0,0,1-.759,2.782,11.25,11.25,0,0,1-3.513,3.283l.927.824c5.275-2.422,4.952-6.676,4.952-6.676Z" transform="translate(-3532.364 -4293.446)" fill="#fff"/><path d="M3621.075,4262.461a7.6,7.6,0,0,0-7.013.729,6.284,6.284,0,0,0-2.581,3.764l-.02.184s3.66-.97,9.42.43a3.62,3.62,0,0,1,3.066-3.2A5.8,5.8,0,0,0,3621.075,4262.461Z" transform="translate(-3540.187 -4261.942)" fill="#fff"/><g transform="translate(7.736 33.188)"><rect width="3.504" height="1.538" rx="0.769" transform="translate(2.575 21.46)" fill="#3d3d3d"/><rect width="3.503" height="1.538" rx="0.769" transform="translate(30.63 21.46)" fill="#3d3d3d"/><path d="M361.514,1362.278a1.217,1.217,0,0,0-1.217,1.217v19.2a1.217,1.217,0,0,0,1.217,1.217h27.61v-21.632Z" transform="translate(-359.983 -1362.234)" fill="#4d4d4d"/><path d="M3.091,0H19.651a3.092,3.092,0,0,1,3.092,3.092v6.9a3.091,3.091,0,0,1-3.091,3.091H3.091A3.091,3.091,0,0,1,0,9.987v-6.9A3.091,3.091,0,0,1,3.091,0Z" transform="translate(3.356 5.413)" fill="#e6e6e6"/><path d="M602.855,1362.278h-6.178v21.632h6.178a1.217,1.217,0,0,0,1.217-1.217v-19.2A1.217,1.217,0,0,0,602.855,1362.278Z" transform="translate(-567.536 -1362.234)" fill="#333"/><g transform="translate(29.762 4.14)"><g transform="translate(0 0)"><circle cx="2.562" cy="2.562" r="2.562" transform="translate(0 4.988) rotate(-76.838)" fill="#4d4d4d"/><circle cx="2.192" cy="2.192" r="2.192" transform="translate(0.443 4.712) rotate(-76.821)" fill="#333"/><circle cx="2.034" cy="2.034" r="2.034" transform="translate(0.616 4.567) rotate(-76.168)" fill="#4d4d4d"/><path d="M622.414,1402.787h-.586a6.883,6.883,0,0,0-.037,4.449h.627A8.022,8.022,0,0,0,622.414,1402.787Z" transform="translate(-619.056 -1401.943)" fill="#333"/></g><g transform="translate(0 7.284)"><circle cx="2.562" cy="2.562" r="2.562" transform="translate(0 4.988) rotate(-76.838)" fill="#4d4d4d"/><circle cx="2.192" cy="2.192" r="2.192" transform="translate(0.443 4.712) rotate(-76.821)" fill="#333"/><circle cx="2.034" cy="2.034" r="2.034" transform="translate(0.633 4.594) rotate(-76.813)" fill="#4d4d4d"/><path d="M613.281,1476.242v-.586a6.884,6.884,0,0,0-4.449-.037v.627A8.022,8.022,0,0,0,613.281,1476.242Z" transform="translate(-607.97 -1472.885)" fill="#333"/></g></g><rect width="22.014" height="1.75" transform="translate(3.721)" fill="#4d4d4d"/><path d="M386.812,1364.821h-3.355a51.884,51.884,0,0,1-22.013,0h-3.355a.366.366,0,0,1-.366-.366v-2.14a.394.394,0,0,1,.394-.394h3.327a48.911,48.911,0,0,0,22.013,0h3.327a.394.394,0,0,1,.394.394v2.14A.366.366,0,0,1,386.812,1364.821Z" transform="translate(-357.723 -1361.921)" fill="#333"/><g transform="translate(4.439 9.303)"><path d="M404.481,1444.673h10.009a.345.345,0,0,0,.323-.479L412.8,1439.6a.338.338,0,0,1-.029-.136v-.921a.348.348,0,0,0-.352-.344H396.548a.348.348,0,0,0-.352.344v.916a.335.335,0,0,1-.029.136l-2.019,4.6a.345.345,0,0,0,.323.479Z" transform="translate(-394.12 -1438.202)" fill="none" stroke="#b3b3b3" stroke-linecap="round" stroke-linejoin="round" stroke-width="1"/><line y2="6.471" transform="translate(10.362 0)" fill="none" stroke="#b3b3b3" stroke-linecap="round" stroke-linejoin="round" stroke-width="1"/><path d="M461.251,1438.2v1.33l-.628,5.141" transform="translate(-452.513 -1438.202)" fill="none" stroke="#b3b3b3" stroke-linecap="round" stroke-linejoin="round" stroke-width="1"/><path d="M443.955,1438.2v1.342l-1.294,5.13" transform="translate(-436.741 -1438.202)" fill="none" stroke="#b3b3b3" stroke-linecap="round" stroke-linejoin="round" stroke-width="1"/><path d="M427.621,1438.2v1.33l-1.643,5.141" transform="translate(-422.093 -1438.202)" fill="none" stroke="#b3b3b3" stroke-linecap="round" stroke-linejoin="round" stroke-width="1"/><path d="M410.99,1438.2v1.33l-2.042,5.141" transform="translate(-407.14 -1438.202)" fill="none" stroke="#b3b3b3" stroke-linecap="round" stroke-linejoin="round" stroke-width="1"/><path d="M492.4,1438.2v1.33l.628,5.141" transform="translate(-480.41 -1438.202)" fill="none" stroke="#b3b3b3" stroke-linecap="round" stroke-linejoin="round" stroke-width="1"/><path d="M504.9,1438.2v1.342l1.294,5.13" transform="translate(-491.39 -1438.202)" fill="none" stroke="#b3b3b3" stroke-linecap="round" stroke-linejoin="round" stroke-width="1"/><path d="M518.715,1438.2v1.33l1.643,5.141" transform="translate(-503.52 -1438.202)" fill="none" stroke="#b3b3b3" stroke-linecap="round" stroke-linejoin="round" stroke-width="1"/><path d="M532.476,1438.2v1.33l2.042,5.141" transform="translate(-515.603 -1438.202)" fill="none" stroke="#b3b3b3" stroke-linecap="round" stroke-linejoin="round" stroke-width="1"/></g></g><g transform="translate(44.158 14.77)"><g transform="translate(7.317 67.724)"><path d="M1165.141,739.375a12.417,12.417,0,0,0-.125,1.66h2.953a12.417,12.417,0,0,0-.125-1.66,3.151,3.151,0,0,1-2.7,0Z" transform="translate(-1165.016 -738.325)" fill="#bab9b9"/><path d="M1167.627,728.771h-1.168s-.1.431-.184,1.05a3.151,3.151,0,0,0,2.7,0c-.085-.619-.183-1.05-.183-1.05Z" transform="translate(-1166.15 -728.771)" fill="#a6a5a5"/></g><path d="M0,0H1A0,0,0,0,1,1,0V0A.291.291,0,0,1,.711.291H.291A.291.291,0,0,1,0,0V0A0,0,0,0,1,0,0Z" transform="translate(0.91 75.361)" fill="#8c8c8c"/><path d="M.291,0h.42A.291.291,0,0,1,1,.291v0a0,0,0,0,1,0,0H0a0,0,0,0,1,0,0v0A.291.291,0,0,1,.291,0Z" transform="translate(16.678 75.652) rotate(180)" fill="#8c8c8c"/><path d="M0,0H1A0,0,0,0,1,1,0V0A.291.291,0,0,1,.711.291H.291A.291.291,0,0,1,0,0V0A0,0,0,0,1,0,0Z" transform="translate(3.863 75.361)" fill="#8c8c8c"/><path d="M0,0H1A0,0,0,0,1,1,0V0A.291.291,0,0,1,.711.291H.291A.291.291,0,0,1,0,0V0A0,0,0,0,1,0,0Z" transform="translate(6.816 75.361)" fill="#8c8c8c"/><path d="M0,0H1A0,0,0,0,1,1,0V0A.291.291,0,0,1,.711.291H.291A.291.291,0,0,1,0,0V0A0,0,0,0,1,0,0Z" transform="translate(9.769 75.361)" fill="#8c8c8c"/><path d="M0,0H1A0,0,0,0,1,1,0V0A.291.291,0,0,1,.711.291H.291A.291.291,0,0,1,0,0V0A0,0,0,0,1,0,0Z" transform="translate(12.722 75.361)" fill="#8c8c8c"/><path d="M1108.095,796.911h-16.358c-.3,0-.559-.078-.615-.351v.283a.63.63,0,0,0,.628.641h16.332a.63.63,0,0,0,.628-.641v-.283C1108.654,796.833,1108.4,796.911,1108.095,796.911Z" transform="translate(-1091.122 -722.124)" fill="#bab9b9"/><g transform="translate(4.135 52.54)"><path d="M1154.286,709.559a4.2,4.2,0,0,1-2.818-1c.435,1.484,1.385,2.625,2.818,2.625s2.384-1.141,2.818-2.625A4.2,4.2,0,0,1,1154.286,709.559Z" transform="translate(-1149.627 -695.377)" fill="#c44823"/><path d="M1142.184,576.288h-1.1l-.425-.478a1.124,1.124,0,0,0-.839-.377h-4.567a1.123,1.123,0,0,0-.839.377l-.426.478h-1.1c-.169,3.463,1.4,10.584,1.754,12.051q.034.14.074.277a4.475,4.475,0,0,0,5.636,0c.027-.091.052-.183.074-.277C1140.788,586.872,1142.353,579.751,1142.184,576.288Z" transform="translate(-1132.879 -575.433)" fill="#9f3718"/></g><path d="M1147.549,605.141c.887,0,1.816-.38,1.978-.841a75.143,75.143,0,0,0,1.574-9.331,1.26,1.26,0,0,0-1.253-1.389h-4.6a1.26,1.26,0,0,0-1.253,1.389,75.155,75.155,0,0,0,1.574,9.331c.162.461,1.091.841,1.978.841Z" transform="translate(-1138.756 -539.243)" fill="#6d6d6d"/><path d="M.342,0H1.3A.342.342,0,0,1,1.64.342v0A.342.342,0,0,1,1.3.683H.342A.342.342,0,0,1,0,.342v0A.342.342,0,0,1,.342,0Z" transform="translate(7.974 53.072)" fill="#f0f0f0"/><g transform="translate(4.148)"><path d="M1165.355,45.57a.536.536,0,0,0-.075-.23.965.965,0,0,0-1.687,0,.534.534,0,0,0-.075.23c-.1,3.472-.494,20.174-.784,31.887h3.405C1165.849,65.745,1165.457,49.043,1165.355,45.57Z" transform="translate(-1159.79 -44.844)" fill="#c44823"/><path d="M1140.525,461.785a6.176,6.176,0,0,1-.845-3.433c-.015-.066-.059-1.51-.121-3.838h-3.811c-.062,2.328-.106,3.772-.121,3.838a6.175,6.175,0,0,1-.845,3.433c-.76,1.08-1.606,2.094-1.775,5.557h1.1l.425-.478a1.123,1.123,0,0,1,.839-.377h4.567a1.124,1.124,0,0,1,.839.377l.425.478h1.1C1142.131,463.879,1141.285,462.865,1140.525,461.785Z" transform="translate(-1133.007 -413.948)" fill="#c44823"/><path d="M1164.463,380.586h-3.437c-.063,2.558-.122,4.853-.17,6.688h3.777C1164.584,385.439,1164.526,383.144,1164.463,380.586Z" transform="translate(-1158.098 -347.34)" fill="#c44823"/><path d="M1164.48,448.126H1160.7q-.009.326-.017.633h3.811Q1164.488,448.452,1164.48,448.126Z" transform="translate(-1157.945 -408.192)" fill="#bab9b9"/><path d="M1166,374.2h-3.405q-.008.319-.016.633h3.437Q1166,374.518,1166,374.2Z" transform="translate(-1159.647 -341.585)" fill="#bab9b9"/></g><path d="M1174.52,103.885a.6.6,0,0,1-.594-.594v-1.037a.594.594,0,1,1,1.189,0v1.037A.6.6,0,0,1,1174.52,103.885Z" transform="translate(-1165.727 -96.034)" fill="#666"/><g transform="translate(8.427 5.853)"><path d="M1176.956,104.324a.367.367,0,0,0-.734,0v.518h.734Z" transform="translate(-1176.222 -103.957)" fill="gray"/><path d="M1176.222,112.9v.518a.367.367,0,0,0,.734,0V112.9Z" transform="translate(-1176.222 -112.011)" fill="#666"/></g><path d="M1173.944,430.57a.6.6,0,1,1,.6.6A.6.6,0,0,1,1173.944,430.57Z" transform="translate(-1165.743 -391.831)" fill="#666"/><circle cx="0.364" cy="0.364" r="0.364" transform="translate(8.441 38.375)" fill="#bab9b9"/><g transform="translate(5.997 55.099)"><path d="M1161.227,630.817c.155.807.331,1.651.531,2.52a.618.618,0,0,0,.369.434,2.579,2.579,0,0,0,1.9,0,.618.618,0,0,0,.369-.434c.616-2.676,1.007-5.124,1.245-6.932Z" transform="translate(-1160.282 -623.917)" fill="#1f1f1f"/><path d="M1157.277,601.825a.5.5,0,0,0-.5-.549h-4.6a.5.5,0,0,0-.495.549c.134,1.306.414,3.608.942,6.352l4.417-4.412C1157.151,602.99,1157.225,602.332,1157.277,601.825Z" transform="translate(-1151.687 -601.276)" fill="#515151"/></g><path d="M1108.692,755.213l-.3-1.466a2.136,2.136,0,0,0-1.4-1.52l-4.782-1.371a.711.711,0,0,0-.808.289.524.524,0,0,1-.469.2H1098.9a.524.524,0,0,1-.469-.2.711.711,0,0,0-.808-.289l-4.782,1.371a2.136,2.136,0,0,0-1.4,1.52l-.3,1.466c-.094.384.2.488.6.488h16.358C1108.49,755.7,1108.786,755.6,1108.692,755.213Z" transform="translate(-1091.122 -680.914)" fill="#c44823"/></g></g></g></svg>