<svg xmlns="http://www.w3.org/2000/svg" width="44.874" height="57.053" viewBox="0 0 44.874 57.053"><rect width="14.955" height="29.918" transform="translate(0 14.955)" fill="#003288"/><path d="M315.424,212.969v14.955h14.955v29.918h14.963V227.924H360.3V212.969Z" transform="translate(-315.424 -212.969)" fill="#ffed00"/><rect width="14.955" height="29.918" transform="translate(29.918 14.955)" fill="#003288"/><g transform="translate(0 49.814)"><path d="M674.537,778.026v4.733c-.551-.709-3.252-4.733-3.252-4.733h-1.307v7.051h1.307v-4.7c.549.713,3.244,4.7,3.244,4.7h1.313v-7.051Z" transform="translate(-638.721 -778.026)" fill="#1a1311"/><path d="M460.759,780.255c0-1.076-.7-2.229-2.684-2.229h-2.266v7.051h1.316v-2.645h.954C460.058,782.425,460.759,781.265,460.759,780.255Zm-3.634-1.066h.95c1.148,0,1.272.718,1.272,1.018,0,.66-.49,1.058-1.323,1.058h-.9Z" transform="translate(-443.433 -778.026)" fill="#1a1311"/><rect width="1.37" height="7.057" transform="translate(26.984 0)" fill="#1a1311"/><rect width="3.745" height="1.246" transform="translate(6.354 3.684)" fill="#1a1311"/><path d="M760.512,778.055V779.3h2.123v5.808h1.373V779.3h2.126v-1.247Z" transform="translate(-721.274 -778.052)" fill="#1a1311"/><path d="M315.424,778.055V779.3h2.123v5.808h1.373V779.3h2.126v-1.247Z" transform="translate(-315.424 -778.052)" fill="#1a1311"/><path d="M530.959,785.291c-2.1,0-3.124-1.492-3.124-3.585s1.048-3.651,3.16-3.651,3.121,1.537,3.121,3.634C534.116,783.757,533.047,785.291,530.959,785.291Zm0-6.009c-1.295,0-1.747,1.233-1.747,2.375,0,1.19.395,2.413,1.747,2.413s1.779-1.213,1.779-2.413C532.737,780.482,532.288,779.282,530.959,779.282Z" transform="translate(-509.109 -778.052)" fill="#1a1311"/></g></svg>