<svg xmlns="http://www.w3.org/2000/svg" xmlns:xlink="http://www.w3.org/1999/xlink" width="156" height="156" viewBox="0 0 156 156"><defs><clipPath id="a"><circle cx="78" cy="78" r="78" transform="translate(232 3793)" fill="#f7f3e5"/></clipPath></defs><g transform="translate(-232 -3793)"><circle cx="78" cy="78" r="78" transform="translate(232 3793)" fill="#f7f3e5"/><g clip-path="url(#a)"><g transform="translate(-1.008 3369.543)"><path d="M623.3,1030.692l-.834,18.55h1.191l7.445-18.5Z" transform="translate(-323.861 -459.785)" fill="#f26346"/><path d="M820.6,1030.692l.834,18.55h-1.191l-7.445-18.5Z" transform="translate(-476.676 -459.785)" fill="#f26346"/><path d="M281.875,560.349h48.156l7.107,79.741-31.18-6.671Z" transform="translate(-50.419 -82.168)" fill="#ff8971"/><path d="M479.442,654h52.5s7.854-.914,8.438-12.37-8.127-17.1-19.814-14.357-20.582,2.237-25.505-10.773-6.036-21.9-4.606-27.543a26.816,26.816,0,0,0-5.083-22.951c-6.353-7.783-17.948-7.783-25.1-3.812s-4.606,13.66,0,26.763c3.778,10.748,6.385,47.625,12.193,60.535A7.643,7.643,0,0,0,479.442,654Z" transform="translate(-190.072 -81.549)" fill="#ff8971"/><path d="M648.148,959.607h28.964l-6.33-5.655S649.935,955.732,648.148,959.607Z" transform="translate(-344.483 -398.174)" fill="#f26346"/><path d="M609.152,648.634s4.307-.255,10.547,4.8,8.7,8.378,8.7,8.378l-7.177,10.4Z" transform="translate(-313.175 -153.046)" fill="#fafefe"/><path d="M458.745,654.773s5.179-6.113,16.494-7.3,16.081-1.034,18.463,3.652S507.64,691.9,507.64,691.9l-37.207,10.96-10.96-28.009Z" transform="translate(-192.42 -151.61)" fill="#eaf4f4"/><path d="M616.184,736.019l-9.1,21.277-1.874,4.653,9.24,3.547,9.768-1.923Z" transform="translate(-310.008 -223.205)" fill="#cfe2e1"/><path d="M977.894,1097.619s-1.1,3.3,2.377,3.3h6.905l-5.517-5.18Z" transform="translate(-609.088 -512.009)" fill="#fafefe"/><path d="M982.558,1104.357v-4.336s5.784.576,7.726,1.379,1.9,3.5,1.9,3.5H977.729v-.547Z" transform="translate(-609.089 -515.446)" fill="#505e77"/><path d="M569.434,883.371S556,894.33,565.714,894.33c21.443,0,47.4-7.306,49.941-6.353s28.431,30.178,28.431,30.178l4.13-2.383s-19.06-39.232-24.3-42.567S597.071,871.458,569.434,883.371Z" transform="translate(-275.471 -332.119)" fill="#446dbd"/><path d="M896.987,1097.619s-1.1,3.3,2.376,3.3h6.905l-5.517-5.18Z" transform="translate(-544.132 -512.009)" fill="#fafefe"/><path d="M901.651,1104.357v-4.336s5.783.576,7.726,1.379,1.9,3.5,1.9,3.5H896.822v-.547Z" transform="translate(-544.132 -515.446)" fill="#66728d"/><path d="M518.032,883.371s2.541,11.595,12.23,10.959,31.449-7.306,33.99-6.353,28.431,30.178,28.431,30.178l4.13-2.383s-19.06-39.232-24.3-42.567S545.669,871.458,518.032,883.371Z" transform="translate(-240.019 -332.119)" fill="#537dd3"/><path d="M800.1,587.056s-6.036-17.313-6.989-27.478c-4.606,9.848-9.212,20.966-9.212,20.966Z" transform="translate(-453.474 -81.549)" fill="#eaf4f4"/><path d="M513.075,488.85c1.217,8.035-1.724,16.425-6.8,17.194s-10.372-6.373-11.589-14.409,2.1-13.921,7.182-14.69S511.859,480.815,513.075,488.85Z" transform="translate(-221.071 -15.141)" fill="#ffcf9f"/><path d="M479.877,468.685s-1.031.873-1.439,3.842,4.874,7.161,1.963,10.188c-1.5,1.56-4.261,1.98-5.391-1.281s-4.1-5.3-4.565-8.209-.291-6.23,2.212-8.675,3.9-6.171,8.85-6.521,6.462,2.911,9.024,3.26,4.658,3.26,4.541,6.462-1.952,3.428-1.952,3.428-1.367-3.544-2.822-3.893S488.727,471.829,479.877,468.685Z" transform="translate(-201.65)" fill="#888"/><path d="M521.332,606.776l1.015,5.447,2.778-.056s2.808,6.5-4.852,5.087-8.886-3.227-8.886-3.227l2.059-.936-.68-9.438Z" transform="translate(-234.683 -116.935)" fill="#ffcf9f"/><path d="M518.51,594.9a6.774,6.774,0,0,1-4.951-1.2c-2.576-1.747-4.436-5.544-4.436-5.544l-1.37.225s2.163,3.643,2.313,5.447l.369,4.419,8.235-2.393Z" transform="translate(-231.765 -104.492)" fill="#f9be8a"/><path d="M683.673,626.513s-8.736-7.783-19.06-11.912a125.826,125.826,0,0,0-18.584-5.877s-2.144,23.825-3.375,33.832-3.772,14.93-3.772,14.93l27.8,8.736S680.814,633.343,683.673,626.513Z" transform="translate(-337.044 -121.006)" fill="#fafefe"/><path d="M683.057,636.116l-1.072,5.837s13.342,4.05,22.634,8.7c1.072-2.383,2.442-5.208,2.442-5.208S695.565,638.618,683.057,636.116Z" transform="translate(-371.649 -142.998)" fill="#eaf4f4"/><path d="M783.956,701.993l6.422-17.134,7.783,3.971-7.783,16.2Z" transform="translate(-453.517 -182.132)" fill="#eaf4f4"/><path d="M676.749,677.205s11.992,3.812,22.4,8.339a2.317,2.317,0,0,1-.635,1.032s-5.321-2.065-11.357-4.368-10.4-3.812-10.4-3.812Z" transform="translate(-367.445 -175.986)" fill="#eaf4f4"/><path d="M673.553,691.707s11.992,3.812,22.4,8.339a2.316,2.316,0,0,1-.635,1.032s-5.321-2.065-11.357-4.368-10.4-3.812-10.4-3.812Z" transform="translate(-364.88 -187.629)" fill="#eaf4f4"/><path d="M670.357,706.209s11.992,3.812,22.4,8.339a2.313,2.313,0,0,1-.635,1.032s-5.321-2.065-11.357-4.368-10.4-3.812-10.4-3.812Z" transform="translate(-362.314 -199.272)" fill="#eaf4f4"/><path d="M667.161,720.711s11.992,3.812,22.4,8.339a2.315,2.315,0,0,1-.635,1.032s-5.321-2.065-11.357-4.368-10.4-3.812-10.4-3.812Z" transform="translate(-359.748 -210.915)" fill="#eaf4f4"/><path d="M664.8,744.479l-2.15,11.595,7.862,2.938,3.653-11.357Z" transform="translate(-356.126 -229.997)" fill="#eaf4f4"/><path d="M722.262,763.009l17.223,7.068L737.42,774.6l-16.36-6.83Z" transform="translate(-403.021 -244.874)" fill="#eaf4f4"/><path d="M717.838,794.43l16.36,6.75-.4.794-15.963-6.512Z" transform="translate(-400.434 -270.101)" fill="#eaf4f4"/><path d="M714.958,805.673l16.36,6.75-.4.794-15.963-6.512Z" transform="translate(-398.122 -279.128)" fill="#eaf4f4"/><path d="M712.079,816.916l16.36,6.75-.4.794-15.963-6.512Z" transform="translate(-395.811 -288.154)" fill="#eaf4f4"/><path d="M732.551,841.562l9.649,3.574-2.68,6.671-9.167-2.74Z" transform="translate(-410.481 -307.941)" fill="#eaf4f4"/><path d="M658.526,814.974c.179.06,14,4.944,14,4.944l-1.013,3.335-14-4.785Z" transform="translate(-352.002 -286.595)" fill="#eaf4f4"/><path d="M652.376,844.332l13.871,4.576-.234.815-13.938-4.508Z" transform="translate(-347.636 -310.165)" fill="#eaf4f4"/><path d="M622.463,822.745a15.9,15.9,0,0,1,4.865-2.3c2.224-.437,5.639-.834,5.162,1.43s-4.251,3.265-6,3.439a10.065,10.065,0,0,0-2.959.738Z" transform="translate(-323.862 -290.719)" fill="#ffcf9f"/><path d="M384.32,1030.692l-.834,18.55h1.191l7.445-18.5Z" transform="translate(-131.998 -459.785)" fill="#f1f1f9"/><path d="M581.627,1030.692l.834,18.55H581.27l-7.445-18.5Z" transform="translate(-284.812 -459.785)" fill="#ff8971"/><path d="M664.86,877.123l22.674,3.506-15.427-4.849S665.829,876.63,664.86,877.123Z" transform="translate(-357.9 -335.414)" fill="#446dbd"/><path d="M491.395,736.019s-2.662,14.869-.689,19.06,14.793,2.293,14.793,2.293l5.827,5.391-5.308,5.658s-14.173,2.933-18.653,1.864S488.113,739.156,491.395,736.019Z" transform="translate(-214.003 -223.205)" fill="#cfe2e1"/><path d="M467.145,708.929s-13.58,6.433-21.2,4.289-.238-19.06.953-26.446-10.96-12.032-14.772-1.906-5.48,33.355,5.48,38.6,30.853-10.483,30.853-10.483Z" transform="translate(-168.722 -177.452)" fill="#fafefe"/><path d="M256.585,654H295.2s7.854-.914,8.438-12.37-8.127-17.1-19.814-14.357-20.582,2.237-25.505-10.773-6.036-21.9-4.606-27.543a26.817,26.817,0,0,0-5.083-22.951c-6.353-7.783-17.948-7.783-25.1-3.812s-4.606,13.66,0,26.763c3.778,10.748,20.273,47.625,26.081,60.535A7.643,7.643,0,0,0,256.585,654Z" transform="translate(0 -81.549)" fill="#f26346"/></g></g></g></svg>