<svg xmlns="http://www.w3.org/2000/svg" xmlns:xlink="http://www.w3.org/1999/xlink" width="156" height="156" viewBox="0 0 156 156"><defs><clipPath id="a"><circle cx="78" cy="78" r="78" transform="translate(232 3793)" fill="#f7f3e5"/></clipPath></defs><g transform="translate(-232 -3793)"><circle cx="78" cy="78" r="78" transform="translate(232 3793)" fill="#f7f3e5"/><g clip-path="url(#a)"><g transform="translate(-4370.924 2906.378)"><g transform="translate(4605.815 892.055)"><path d="M5028.231,3499.568s-3.167,4.446-2.777,6.461,5.421,2.455,8.478,1.4,2.719-4.525,1.546-8.4S5028.231,3499.568,5028.231,3499.568Z" transform="translate(-4985.79 -3251.354)" fill="#cb4252" fill-rule="evenodd"/><path d="M5342.854,3476.673s-2.6,4.885-2.206,6.524,5.229,1.367,8.036.329,3.393-3.341.938-9.486S5345.153,3474.486,5342.854,3476.673Z" transform="translate(-5271.207 -3227.86)" fill="#cb4252" fill-rule="evenodd"/><path d="M4939.683,2847.31s2.171,6.995,2.479,10.87-.206,15.029,2.471,23.978,6.256,21.556,6.729,24.325-2.467,7.333-1.322,7.965,7.465.655,7.763-.911-.14-3.692-.055-7.26-.151-22.01-1.021-29.358-1.979-14.479-2.161-18.64-.189-9.666-.189-9.666Z" transform="translate(-4908.149 -2662.637)" fill="#ffc4ad" fill-rule="evenodd"/><path d="M5147.478,2852.283s.019,8.948,2.015,14.9,6.873,19.239,11.2,26.984,6.958,12.813,7.421,15.421-1.058,6.04-.025,7.069,7.236.6,7.193-2.576-1.779-6.848-2.568-11.138-2.014-14.838-4.291-22-5.857-13.026-6.7-16.544-.264-13.049-.264-13.049S5152,2846.051,5147.478,2852.283Z" transform="translate(-5096.318 -2664.392)" fill="#ffc4ad" fill-rule="evenodd"/><path d="M5018.45,1241.454s3.9,3.558,3.784,7.991-.985,7.248.627,11.8-4.93,17.033-17.474,15.561-15.279-6.544-15.279-6.544-6.125-3.509-2.021-11.538c2.072-4.058,8.63-5.716,10.057-11.153-1.922-4.412,1.908-10.055,8.556-10.808S5018.45,1241.454,5018.45,1241.454Z" transform="translate(-4950.699 -1204.144)" fill="#483b4d" fill-rule="evenodd"/><path d="M5069.4,1604.353l1.694-.168,10.561-.5,1.356-.137s4.446,17.884-7.933,19.3S5062.806,1611.686,5069.4,1604.353Z" transform="translate(-5021.602 -1536.352)" fill="#fff" fill-rule="evenodd"/><path d="M4839.939,2134.862s-12.227,9.833-10.34,28.347,7.987,43.152,7.987,43.152,12.885,4.33,38.212-.419c4.445-25.779,1.588-54.093-3.542-64.7S4839.939,2134.862,4839.939,2134.862Z" transform="translate(-4808.284 -2016.728)" fill="#cb4252" fill-rule="evenodd"/><path d="M4722.042,1287.849s10.682,20.706,27.892,30.47c-3.218,8.489-3.683,17.393,6.459,17.437s10.749-10.931,8.813-18.111c0,0,1.181.815,7.583-9.925a207.544,207.544,0,0,0,10.175-19.153l8.274,4.663a167.255,167.255,0,0,1-9.4,20.024c-4.824,8.223-7.648,14.131-7.833,15.66s.574,7.031-.592,11.409-4.877,8.037-5.152,11.775a57.553,57.553,0,0,0,1.7,22.054c-9.735,11.2-29.58,8.722-38.589-5.1a35.967,35.967,0,0,0,8.469-21.708c-.017-3.663-2.388-8-1.563-12.052a37.437,37.437,0,0,1,2.148-7.038s-19.454-14.864-26.414-37.313A10.353,10.353,0,0,1,4722.042,1287.849Z" transform="translate(-4703.794 -1250.444)" fill="#8fad81" fill-rule="evenodd"/><path d="M5064.035,1596.59a14.887,14.887,0,0,0-2.787,9.23c.161,5.613,3.7,8.217,7.585,8.081s10.562-3.03,8.813-18.111a7.683,7.683,0,0,0,1.2-.81s2.326,7.373.1,13.631-7.75,8.683-11.685,8.153-9.051-4.457-8.106-11.811,3.218-8.489,3.218-8.489Z" transform="translate(-5016.235 -1528.589)" fill="#eed5d6" fill-rule="evenodd"/><path d="M5452.976,1277.076l-.675,2.233s-5.771-.215-8.274-4.663a22.308,22.308,0,0,1,.97-2.194Z" transform="translate(-5364.858 -1236.524)" fill="#eed5d6" fill-rule="evenodd"/><path d="M4714.889,1263.451l.948,2.327s-2.222,2.689-8.027,3.089a7.622,7.622,0,0,1-.647-2.5Z" transform="translate(-4697.59 -1228.373)" fill="#eed5d6" fill-rule="evenodd"/><path d="M4679.725,1056.369s5.182-.949,7.726-2.92c-2.977-7.329-6.867-21.9-6.867-21.9l-3.717.6S4676.638,1048.015,4679.725,1056.369Z" transform="translate(-4670.152 -1018.371)" fill="#ffc4ad" fill-rule="evenodd"/><path d="M5454.294,1050.682s7.208-15.515,9.6-23.131a20.467,20.467,0,0,1,3.622.763s-2.217,17.905-5.244,26.991A13.271,13.271,0,0,1,5454.294,1050.682Z" transform="translate(-5374.155 -1014.753)" fill="#ffc4ad" fill-rule="evenodd"/><path d="M5116.1,1339.845s.851,5.528-.737,8.952-5.35,5.571-5.6,9.718,1.112,5.427,2.484,6.374c-2.234,4.7-9.1,4.749-10.561.5a5.071,5.071,0,0,0,2.644-4.68c-2.727-.557-6.162-3.667-5.5-9.022a54.142,54.142,0,0,1,2.9-11.09A15.812,15.812,0,0,0,5116.1,1339.845Z" transform="translate(-5052.195 -1297.551)" fill="#ffc4ad" fill-rule="evenodd"/><path d="M5150.508,1548.662s3.3.666,5.4-1.256c.027.822.087,1.436.087,1.436a7.515,7.515,0,0,1-6.254,2.751A12.668,12.668,0,0,0,5150.508,1548.662Z" transform="translate(-5098.37 -1485.508)" fill="#efa087" fill-rule="evenodd"/><path d="M5138.148,1467.76a35.619,35.619,0,0,0,6.187.752C5142.051,1470.638,5139.6,1471.006,5138.148,1467.76Z" transform="translate(-5087.87 -1413.385)" fill="#fff" fill-rule="evenodd"/><path d="M5552.063,904.854a20.334,20.334,0,0,1,.029-4.383,44.619,44.619,0,0,0,.306-4.577c.073-.971,1.093.043,1.113,1.124s.05,1.806.518,1.642,2.964-6.045,3.626-6.435.912-.157.412,1.22c-.433,1.193-1.7,4.938-1.7,4.938s2.9-4.19,3.472-5.02,1.486-.655.717.789-2.65,5-2.65,5a55.9,55.9,0,0,1,4.2-4.087c.612-.312.906.319.166,1.232s-3.058,3.566-2.937,3.594,2.069-.974,2.993-1.4,1.434-.278.707.547a20.8,20.8,0,0,1-3.369,2.363c-.3.2-1.9,3.256-3.361,4.65C5555.021,907.288,5552.441,907.279,5552.063,904.854Z" transform="translate(-5462.591 -892.055)" fill="#ffc4ad"/><path d="M4616.572,905.9a20.313,20.313,0,0,0,.33-4.371,44.442,44.442,0,0,1,.069-4.586c.006-.974-1.093-.047-1.2,1.029s-.2,1.8-.65,1.594-2.46-6.267-3.087-6.71-.9-.231-.51,1.182c.333,1.224,1.288,5.06,1.288,5.06s-2.55-4.413-3.049-5.287-1.428-.774-.779.727,2.232,5.2,2.232,5.2a55.891,55.891,0,0,0-3.853-4.417c-.584-.361-.929.244-.266,1.215s2.756,3.8,2.633,3.822-1.982-1.139-2.869-1.635-1.407-.394-.75.487a20.777,20.777,0,0,0,3.164,2.63c.282.221,1.631,3.4,2.969,4.909C4613.427,908.082,4616,908.284,4616.572,905.9Z" transform="translate(-4605.815 -892.591)" fill="#ffc4ad"/><g transform="translate(36.802 70.878)"><path d="M4995.685,1649.04a.235.235,0,0,1-.2-.339l3.032-6.082a.235.235,0,0,1,.42.209l-3.032,6.082A.235.235,0,0,1,4995.685,1649.04Z" transform="translate(-4995.459 -1642.488)" fill="#eed5d6"/></g><g transform="translate(37.701 69.709)"><path d="M5005.2,1633.3a.235.235,0,0,1-.225-.244l.112-2.722a.235.235,0,1,1,.469.019l-.112,2.722A.234.234,0,0,1,5005.2,1633.3Z" transform="translate(-5004.977 -1630.113)" fill="#eed5d6"/></g><g transform="translate(48.279 67.204)"><path d="M5122.308,1608.964a5.848,5.848,0,0,1-4.019-1.5,4.491,4.491,0,0,1-1.309-2.976.235.235,0,0,1,.235-.234.238.238,0,0,1,.234.235,4.086,4.086,0,0,0,1.176,2.646,5.744,5.744,0,0,0,4.26,1.37,7.044,7.044,0,0,0,6.83-4.748.234.234,0,1,1,.451.127,7.524,7.524,0,0,1-7.275,5.09Q5122.593,1608.975,5122.308,1608.964Z" transform="translate(-5116.98 -1603.583)" fill="#eed5d6"/></g><g transform="translate(51.014 72.11)"><path d="M5146.162,1668.592l-.026,0a.234.234,0,0,1-.2-.267c.063-.408,1.537-10.032,2.257-12.618a.235.235,0,0,1,.452.126c-.713,2.559-2.231,12.463-2.246,12.563A.235.235,0,0,1,5146.162,1668.592Z" transform="translate(-5145.937 -1655.533)" fill="#eed5d6"/></g><g transform="translate(67.617 70.086)"><path d="M5324.029,1641.711a.234.234,0,0,1-.213-.163c-.015-.047-1.528-4.754-2.09-7.157a.234.234,0,1,1,.457-.107c.558,2.384,2.065,7.073,2.081,7.12a.235.235,0,0,1-.151.3A.238.238,0,0,1,5324.029,1641.711Z" transform="translate(-5321.719 -1634.103)" fill="#eed5d6"/></g><g transform="translate(68.19 66.549)"><path d="M5328.576,1601.888a.234.234,0,0,1-.212-.159c-.174-.51-.536-4.384-.577-4.824a.234.234,0,1,1,.467-.043c.158,1.706.437,4.369.554,4.716a.235.235,0,0,1-.146.3A.232.232,0,0,1,5328.576,1601.888Z" transform="translate(-5327.785 -1596.649)" fill="#eed5d6"/></g><g transform="translate(62.204 127.915)"><path d="M5265.468,2307.759h-.018a.236.236,0,0,1-.206-.26c.012-.1,1.183-10.423,1.538-28.26a179.344,179.344,0,0,0-2.369-32.58.234.234,0,1,1,.461-.086,179.893,179.893,0,0,1,2.377,32.676c-.355,17.862-1.528,28.2-1.54,28.3A.235.235,0,0,1,5265.468,2307.759Z" transform="translate(-5264.409 -2246.378)" fill="#a52f40"/></g><g transform="translate(27.338 125.048)"><path d="M4901.962,2280.691a.235.235,0,0,1-.221-.191c-.046-.244-4.634-24.526-6.206-38.986a47.879,47.879,0,0,1,4.1-25.366.235.235,0,0,1,.414.221,47.388,47.388,0,0,0-4.051,25.094c1.57,14.442,6.155,38.707,6.2,38.95a.235.235,0,0,1-.187.274A.265.265,0,0,1,4901.962,2280.691Z" transform="translate(-4895.256 -2216.024)" fill="#a52f40"/></g></g><g transform="translate(4668.333 892.356)"><path d="M5645.675,3556.992l-3.238-.306s-.812,4.481.194,5.436,3.571.931,5.984.731,7.354-.215,2.007-5.127S5645.675,3556.992,5645.675,3556.992Z" transform="translate(-5606.765 -3304.091)" fill="#a25457" fill-rule="evenodd"/><path d="M6089.965,3512.539s-3.587,3.159-2.841,4.563,6.563.985,8.325-.479,1.23-1.97.752-5.869S6089.965,3512.539,6089.965,3512.539Z" transform="translate(-6009.639 -3262.481)" fill="#a25457" fill-rule="evenodd"/><path d="M6054.678,3214.6s7.715,18.793,8.03,20.879-3.035,5.351-2.689,6.124,6.421-.033,6.77-1.643-.161-3.3-.376-5.545-.882-18.578-3.014-23.571S6054.22,3209.792,6054.678,3214.6Z" transform="translate(-5980.331 -2990.039)" fill="#ffc4ad" fill-rule="evenodd"/><path d="M5635.57,3236.9s-4.244,20.928-4.1,22.68,5.4,4.905,4.447,5.86-8.109,1.04-8.543-.564-.349-6.464-1.129-9.717-1.822-16.741-.173-21.125S5635.958,3229.306,5635.57,3236.9Z" transform="translate(-5591.431 -3010.32)" fill="#ffc4ad" fill-rule="evenodd"/><path d="M5567.126,1267.989s-7.377.227-8.907,7.441,1.777,11.495,2.141,15.663-5.405,6.156-4.952,11.674,3.06,6.943,5.831,7.737,24-6.843,24-6.843l5.515-15.434s-.437-4.551-2.665-5.993-5.035-2.992-5.657-4.983-1.458-7.976-6.515-9.627A11.858,11.858,0,0,0,5567.126,1267.989Z" transform="translate(-5528.213 -1231.864)" fill="#77302e" fill-rule="evenodd"/><g transform="translate(32.242 119.13)"><path d="M5625.6,3140.393c.392-2.528.84-5.6,1.29-9.057-2.169.013-4.249.019-6.228.019h-.944c-2.648,0-5.186-.015-7.6-.035-.519,2.994-.969,6.051-1.2,9.035C5615.4,3140.4,5620.328,3140.417,5625.6,3140.393Z" transform="translate(-5610.742 -3039.252)" fill="#fdc442"/><path d="M5658.283,2832.707q.13-1.879.234-3.78c.095-1.757.186-3.52.273-5.276-3.093.026-6.023.037-8.761.037h-.944q-2.965,0-5.74-.021c.462,3.677.836,6.781.965,9.052C5648.647,2832.745,5653.329,2832.744,5658.283,2832.707Z" transform="translate(-5640.11 -2760.643)" fill="#fdc442"/><path d="M5638.729,2627.531c.135-3.176.256-6.225.362-9.055-3.4.031-6.615.044-9.6.044h-.944q-4.126,0-7.881-.037c.247,3.119.554,6.161.88,9.053C5626.771,2627.579,5632.544,2627.584,5638.729,2627.531Z" transform="translate(-5619.574 -2574.847)" fill="#fdc442"/><path d="M5647.416,2730.116c.151-3.072.29-6.114.416-9.056-3.258.029-6.339.041-9.208.041h-.945q-3.6,0-6.929-.03c.371,3.251.762,6.3,1.109,9.055C5636.641,2730.159,5641.86,2730.161,5647.416,2730.116Z" transform="translate(-5628.704 -2667.741)" fill="#fdc442"/><path d="M5634.125,2524.949c.127-3.412.231-6.488.315-9.055-3.528.034-6.854.048-9.937.048h-.944c-2.943,0-5.749-.018-8.4-.042.075,3.042.244,6.079.471,9.05C5621.2,2525,5627.425,2525.009,5634.125,2524.949Z" transform="translate(-5614.584 -2481.953)" fill="#fdc442"/><path d="M5676.528,2170.1a84.556,84.556,0,0,0-5.145-12.149l-22.886-1.407s-5.583,4.449-8.86,13.954C5650.158,2170.572,5662.82,2170.5,5676.528,2170.1Z" transform="translate(-5636.752 -2156.543)" fill="#fdc442"/><path d="M5657.968,2935.3c.295-2.919.563-5.959.784-9.057-2.89.023-5.635.033-8.21.033h-.943q-2.435,0-4.743-.015c0,.12.008.238.011.353a46.92,46.92,0,0,1-.953,8.688C5648.264,2935.334,5652.974,2935.337,5657.968,2935.3Z" transform="translate(-5640.624 -2853.548)" fill="#fdc442"/><path d="M5639.578,3037.92c.361-2.809.721-5.856,1.05-9.058-2.579.019-5.039.026-7.359.026h-.945q-3,0-5.8-.021c-.512,2.825-1.132,5.889-1.687,9.034C5629.36,3037.939,5634.3,3037.95,5639.578,3037.92Z" transform="translate(-5623.349 -2946.471)" fill="#fdc442"/><path d="M5623.149,2408.856q-4.323,0-8.236-.04-.111,1.293-.155,2.658c-.064,2.115-.068,4.251-.024,6.386,5.789.054,12.295.065,19.317,0,.146-4.537.219-7.326.219-7.326l4.032.282s.28,2.734.772,6.986c6.053-.086,12.433-.23,19.023-.451-.113-1.192-.239-2.344-.38-3.439-.246-1.906-.568-3.771-.945-5.576-12.333.4-23.566.521-32.677.521Z" transform="translate(-5614.175 -2384.554)" fill="#fdc442"/><path d="M5618.065,3233.795c-3.109,0-6.065-.019-8.85-.046-.111,1.636-.155,3.248-.1,4.811a28.714,28.714,0,0,0,13.6,1.971s.475-2.535,1.136-6.747q-2.507.012-4.839.011Z" transform="translate(-5609.09 -3132.007)" fill="#fdc442"/><path d="M5887.339,2622.225c5.579-.093,11.413-.236,17.417-.443-.05-2.99-.126-6.049-.247-9.05-6.468.223-12.654.369-18.414.459C5886.471,2616.077,5886.888,2619.139,5887.339,2622.225Z" transform="translate(-5859.932 -2569.644)" fill="#fdc442"/><path d="M5917.977,2825.228q.2.95.418,1.916c4.588-.092,9.333-.218,14.187-.387-.055-2.4-.069-5.523-.09-9.055-5.527.192-10.85.329-15.881.422C5917.05,2820.633,5917.507,2823.033,5917.977,2825.228Z" transform="translate(-5887.564 -2755.254)" fill="#fdc442"/><path d="M6018.558,3229.946s8.252.376,13.131-4.69q-.069-.357-.138-.708c-4.953.217-9.783.386-14.434.517C6018,3228.095,6018.558,3229.946,6018.558,3229.946Z" transform="translate(-5978.578 -3123.675)" fill="#fdc442"/><path d="M5901.679,2724.661c5.144-.093,10.494-.229,15.986-.42-.017-2.827-.039-5.9-.088-9.056-6.064.21-11.881.354-17.335.446C5900.691,2718.679,5901.173,2721.738,5901.679,2724.661Z" transform="translate(-5872.743 -2662.421)" fill="#fdc442"/><path d="M5939.148,2929.607c4.44-.1,9.017-.231,13.689-.4a25.908,25.908,0,0,1-1.586-5.523c-.1-.751-.157-1.942-.2-3.472-4.864.17-9.572.3-14.062.388C5937.657,2923.563,5938.393,2926.612,5939.148,2929.607Z" transform="translate(-5906.021 -2848.081)" fill="#fdc442"/><path d="M5874.6,2519.9c5.894-.09,12.085-.236,18.47-.455-.133-3.138-.317-6.2-.572-9.039-6.7.226-13.087.371-19.007.457C5873.79,2513.448,5874.164,2516.543,5874.6,2519.9Z" transform="translate(-5848.516 -2476.98)" fill="#fdc442"/><path d="M5990.949,3132.58c4.715-.131,9.56-.3,14.489-.515a88.717,88.717,0,0,0-2.336-8.96c-5.055.207-9.97.366-14.683.485C5989.366,3127.051,5990.245,3130.146,5990.949,3132.58Z" transform="translate(-5952.591 -3031.813)" fill="#fdc442"/><path d="M5659.2,2315.626a86.811,86.811,0,0,0-2.479-8.982c-11.307.335-21.6.44-30.066.44h-.944q-3.267,0-6.3-.025a42.773,42.773,0,0,0-1.875,9.032C5629.11,2316.2,5643.53,2316.128,5659.2,2315.626Z" transform="translate(-5616.733 -2292.467)" fill="#fdc442"/><path d="M5963.877,3031.4c4.758-.119,9.659-.276,14.655-.479-1.153-3.558-2.327-6.465-3.264-8.933-4.745.177-9.351.311-13.763.411C5962.3,3025.52,5963.107,3028.571,5963.877,3031.4Z" transform="translate(-5928.22 -2940.246)" fill="#fdc442"/><path d="M5644.623,2301.127c8.464,0,18.76-.105,30.067-.44q-.1-.313-.209-.621c-13.708.4-26.37.474-36.891.4q-.108.315-.214.638,3.034.021,6.3.025Z" transform="translate(-5634.704 -2286.51)" fill="#feefec"/><path d="M5616.968,2402.206q-.031.317-.059.639,3.907.034,8.236.04h.945c9.11,0,20.344-.122,32.677-.521q-.065-.313-.133-.623C5642.967,2402.244,5628.548,2402.312,5616.968,2402.206Z" transform="translate(-5616.17 -2378.583)" fill="#feefec"/><path d="M5624.37,2509.864c3.083,0,6.409-.014,9.937-.048q.01-.322.021-.634c-7.022.065-13.529.054-19.317,0q.007.32.014.64c2.653.024,5.459.039,8.4.042Z" transform="translate(-5614.451 -2475.875)" fill="#feefec"/><path d="M5872.786,2504.865c5.92-.086,12.309-.23,19.007-.457q-.028-.315-.057-.625c-6.59.222-12.97.366-19.023.452Z" transform="translate(-5847.814 -2470.986)" fill="#feefec"/><path d="M5885.312,2607.191c5.76-.091,11.946-.237,18.414-.459q-.012-.313-.026-.626c-6.385.219-12.577.365-18.47.455C5885.257,2606.77,5885.284,2606.98,5885.312,2607.191Z" transform="translate(-5859.148 -2563.645)" fill="#feefec"/><path d="M5629.017,2612.444c2.984,0,6.2-.013,9.6-.044q.012-.319.023-.634c-6.7.06-12.923.051-18.5,0l.05.64q3.749.032,7.881.037Z" transform="translate(-5619.098 -2568.771)" fill="#feefec"/><path d="M5899.356,2709.627c5.454-.093,11.271-.236,17.335-.446,0-.208-.007-.417-.01-.626-6,.208-11.839.351-17.417.444C5899.295,2709.208,5899.326,2709.418,5899.356,2709.627Z" transform="translate(-5871.858 -2656.417)" fill="#feefec"/><path d="M5637.929,2715.025c2.869,0,5.95-.012,9.208-.041q.013-.318.027-.634c-6.184.053-11.958.047-17.182.005.024.214.048.427.073.64q3.319.025,6.929.03Z" transform="translate(-5628.01 -2661.665)" fill="#feefec"/><path d="M5915.561,2812.116c5.03-.093,10.354-.23,15.881-.422q0-.311,0-.626c-5.493.19-10.843.327-15.987.42Q5915.505,2811.8,5915.561,2812.116Z" transform="translate(-5886.516 -2749.247)" fill="#feefec"/><path d="M5649.257,2817.608c2.738,0,5.668-.011,8.761-.037q.016-.317.031-.634c-5.555.045-10.774.043-15.557.01q.041.323.08.639,2.773.018,5.74.021Z" transform="translate(-5639.338 -2754.563)" fill="#feefec"/><path d="M5935.647,2914.591c4.49-.092,9.2-.218,14.063-.388q-.009-.3-.016-.626c-4.854.169-9.6.3-14.187.388Z" transform="translate(-5904.678 -2842.075)" fill="#feefec"/><path d="M5659.279,2920.2c2.575,0,5.319-.01,8.21-.033q.022-.317.044-.635c-4.954.038-9.635.038-13.972.013.013.22.023.434.031.639q2.307.012,4.744.015Z" transform="translate(-5649.361 -2847.464)" fill="#feefec"/><path d="M5959.988,3016.475c4.412-.1,9.018-.235,13.763-.411-.08-.209-.157-.415-.233-.618-4.672.172-9.248.3-13.688.4Q5959.908,3016.163,5959.988,3016.475Z" transform="translate(-5926.703 -2934.323)" fill="#feefec"/><path d="M5649.448,3022.8c2.321,0,4.78-.008,7.359-.026q.033-.316.065-.635c-4.995.034-9.705.031-14.055,0-.038.211-.075.424-.114.638q2.8.018,5.8.021Z" transform="translate(-5639.528 -2940.386)" fill="#feefec"/><path d="M5632.2,3125.233c1.979,0,4.059-.006,6.228-.019q.041-.315.082-.635c-5.273.03-10.218.019-14.742-.02l-.111.638c2.414.02,4.952.032,7.6.035Z" transform="translate(-5622.278 -3033.131)" fill="#feefec"/><path d="M5986.786,3117.664c4.712-.119,9.628-.278,14.683-.485q-.1-.312-.2-.618c-5,.2-9.9.36-14.655.479Q5986.7,3117.354,5986.786,3117.664Z" transform="translate(-5950.958 -3025.887)" fill="#feefec"/><path d="M5610.465,3226.977c-.018.213-.033.427-.047.639,2.784.027,5.74.043,8.849.046h.944q2.329,0,4.839-.011c.033-.208.066-.42.1-.636C5619.879,3227.039,5614.953,3227.021,5610.465,3226.977Z" transform="translate(-5610.292 -3125.875)" fill="#feefec"/><path d="M6015.385,3219.115c4.65-.131,9.481-.3,14.434-.517q-.062-.313-.125-.621c-4.929.215-9.774.384-14.489.514Z" transform="translate(-5976.847 -3117.725)" fill="#feefec"/></g><path d="M5521.165,1521.661l-3.89-1.2s-6.048,1.339-9.7,5.2-8.6,9.861-8.6,9.861,2.866,5.669,6.284,7.161c2.762-2.893,6.156-5.932,6.156-5.932a15.743,15.743,0,0,0,.672,8.337c1.632,4.034,4.079,5.757,5.349,10.335s-.455,10.789-4.081,17.951c8.477,5.8,26.791,3.309,33.682-2.675-3.265-6.029-5.348-16.455-5.484-21.079s2.9-8.159,2.174-13.237-2.537-7.389-2.355-10.744,3.238-10.554,4.76-15.521a56.269,56.269,0,0,0-8.395-4.76s-3.766,6.4-6.688,10.857S5521.165,1521.661,5521.165,1521.661Z" transform="translate(-5477.128 -1447.734)" fill="#573961" fill-rule="evenodd"/><path d="M5624.039,1329.987s.644,7.639,4.008,12.018,10.444,3.195,12.545-.418,2.013-10.4.4-15.026c-2.835-4.234-9.138-2.991-11.211-7.99C5628.971,1323.168,5623.539,1326.731,5624.039,1329.987Z" transform="translate(-5590.355 -1278.587)" fill="#ffc4ad" fill-rule="evenodd"/><path d="M5692.782,1571.986s2.076,6.969,8.667,4.657,5.1-8.9,5.1-8.9-2.544.288-3.071-1.577a19.034,19.034,0,0,1-.606-3.906l-7.651,3.162S5696.829,1570.26,5692.782,1571.986Z" transform="translate(-5652.636 -1499.257)" fill="#ffc4ad" fill-rule="evenodd"/><path d="M5323.137,1725.45s3.024,20.591,4.157,19.636,9.213-10.637,9.213-10.637,1.412,3.154,6.283,7.161c-8.449,8.222-15.4,14.934-18.8,14.14s-4.94-5.219-4.285-29.375C5320.529,1724.056,5323.137,1725.45,5323.137,1725.45Z" transform="translate(-5314.667 -1646.661)" fill="#ffc4ad" fill-rule="evenodd"/><path d="M5909.349,1065.9s5.508-14.347,6.039-17.965.2-27.447.2-27.447l2.917-.424s4.811,24.09,4.217,30.613-4.978,19.983-4.978,19.983S5912.963,1070.969,5909.349,1065.9Z" transform="translate(-5848.748 -1008.277)" fill="#ffc4ad" fill-rule="evenodd"/><path d="M5718.589,1565.419a8.092,8.092,0,0,0,7.651-3.162c.063.874.155,1.663.155,1.663a8.183,8.183,0,0,1-7.6,4.838A15.871,15.871,0,0,0,5718.589,1565.419Z" transform="translate(-5676.005 -1499.257)" fill="#efa087" fill-rule="evenodd"/><path d="M5700.178,1463.616s1.6,7.426-.673,7.928-4.014-3.742-4.508-6.254C5697.983,1465.372,5699.681,1464.344,5700.178,1463.616Z" transform="translate(-5654.641 -1409.933)" fill="#cb4252" fill-rule="evenodd"/><path d="M5695,1465.29a22.64,22.64,0,0,0,5.181-1.674C5699.626,1465.516,5697.72,1467.363,5695,1465.29Z" transform="translate(-5654.641 -1409.933)" fill="#fff" fill-rule="evenodd"/><path d="M5940.687,907.86a17.6,17.6,0,0,1-1.671-3.416,38.495,38.495,0,0,0-1.531-3.674c-.318-.783.866-.389,1.3.443s.736,1.384,1.036,1.076-.033-5.841.33-6.4.648-.474.792.788c.125,1.094.589,4.492.589,4.492s.636-4.376.757-5.241.9-1.083.862.336-.126,4.911-.126,4.911a48.568,48.568,0,0,1,1.684-4.8c.355-.479.827-.1.6.893s-1,3.952-.892,3.926,1.231-1.556,1.786-2.24,1.007-.77.761.152a18.022,18.022,0,0,1-1.7,3.137c-.157.269-.221,3.266-.814,4.911C5943.925,908.608,5941.917,909.6,5940.687,907.86Z" transform="translate(-5874.177 -895.238)" fill="#ffc4ad"/><path d="M5276.253,1620.189a17.65,17.65,0,0,0,.729-3.733,38.5,38.5,0,0,1,.527-3.945c.1-.839-.937-.152-1.141.765s-.353,1.528-.722,1.307-1.482-5.65-1.978-6.1-.748-.291-.561.966c.163,1.089.6,4.492.6,4.492s-1.748-4.062-2.09-4.866-1.151-.812-.745.548,1.395,4.71,1.395,4.71a48.58,48.58,0,0,0-2.87-4.2c-.467-.371-.826.115-.353,1.02s1.987,3.559,1.879,3.561-1.592-1.183-2.305-1.7-1.172-.483-.7.344a17.987,17.987,0,0,0,2.458,2.589c.221.22,1.059,3.1,2.059,4.532C5273.319,1621.75,5275.515,1622.186,5276.253,1620.189Z" transform="translate(-5267.724 -1540.915)" fill="#ffc4ad"/><path d="M6029.856,3229.154s8.813-1.189,13.23-4.606a21.72,21.72,0,0,1,.711,2.7,20.743,20.743,0,0,1-6.285,3.064,17.033,17.033,0,0,1-7.2,1.14Z" transform="translate(-5957.873 -3004.545)" fill="#eca624"/><path d="M5606.667,3270.412s3.873,2.236,13.838,2.121c-.084.775-.477,2.914-.477,2.914s-8.2,1.639-13.614-2.281A26.627,26.627,0,0,0,5606.667,3270.412Z" transform="translate(-5574.426 -3046.077)" fill="#eca624"/><g transform="translate(34.23 81.062)"><path d="M5630.373,1761.182a.231.231,0,0,1-.063-.009.234.234,0,0,1-.163-.289l2.023-7.223a.234.234,0,1,1,.451.127l-2.023,7.223A.235.235,0,0,1,5630.373,1761.182Z" transform="translate(-5630.139 -1753.489)" fill="#392244"/></g><g transform="translate(34.54 79.874)"><path d="M5633.655,1744.707h-.013a.235.235,0,0,1-.222-.247c.015-.258.006-2.279,0-3.312a.234.234,0,0,1,.233-.236h0a.235.235,0,0,1,.235.233c0,.123.018,3,0,3.341A.234.234,0,0,1,5633.655,1744.707Z" transform="translate(-5633.419 -1740.911)" fill="#392244"/></g><g transform="translate(60.932 70.989)"><path d="M5915.745,1652.915a.235.235,0,0,1-.219-.152,41.087,41.087,0,0,0-2.643-5.569.234.234,0,1,1,.4-.239,41.627,41.627,0,0,1,2.679,5.643.235.235,0,0,1-.22.317Z" transform="translate(-5912.85 -1646.84)" fill="#392244"/></g><g transform="translate(58.699 70.357)"><path d="M5891.672,1643.391a.234.234,0,0,1-.183-.087l-2.233-2.769a.235.235,0,0,1,.365-.295l2.233,2.769a.235.235,0,0,1-.183.382Z" transform="translate(-5889.204 -1640.153)" fill="#392244"/></g><g transform="translate(40.922 141.65)"><path d="M5711.847,2398.531a.235.235,0,0,1-.065-.009l-10.626-3.089a.235.235,0,0,1,.131-.451l10.626,3.089a.235.235,0,0,1-.065.46Z" transform="translate(-5700.986 -2394.973)" fill="#eca624"/></g><g transform="translate(56.903 141.365)"><path d="M5870.425,2396.046a.238.238,0,0,1-.178-.083.241.241,0,0,1,.028-.336c.273-.239,6.479-2.635,9.133-3.654a.235.235,0,0,1,.168.438c-3.441,1.321-8.679,3.364-9,3.579A.222.222,0,0,1,5870.425,2396.046Z" transform="translate(-5870.192 -2391.958)" fill="#eca624"/></g><g transform="translate(63.926 141.365)"><path d="M5944.809,2394.262a.354.354,0,0,1-.078-.007.235.235,0,0,1,.1-.459h.023a43.5,43.5,0,0,0,5.59-1.824.235.235,0,1,1,.164.439A41.242,41.242,0,0,1,5944.809,2394.262Z" transform="translate(-5944.546 -2391.958)" fill="#eca624"/></g><g transform="translate(52.949 129.152)"><path d="M5829.51,2278.283a.235.235,0,0,1-.234-.22l-.95-15.159a.235.235,0,1,1,.468-.029l.95,15.159a.235.235,0,0,1-.22.249Z" transform="translate(-5828.325 -2262.655)" fill="#eca624"/></g></g></g></g></g></svg>