<svg xmlns="http://www.w3.org/2000/svg" xmlns:xlink="http://www.w3.org/1999/xlink" width="156" height="156" viewBox="0 0 156 156"><defs><clipPath id="a"><circle cx="78" cy="78" r="78" transform="translate(232 3793)" fill="#f7f3e5"/></clipPath></defs><g transform="translate(-232 -3793)"><circle cx="78" cy="78" r="78" transform="translate(232 3793)" fill="#f7f3e5"/><g clip-path="url(#a)"><g transform="translate(-2312.998 3530.108)"><path d="M2805.535,3430.072a46.706,46.706,0,0,0,.213,7.259c.427,2.705.32,3.915-3.06,3.878s-5.231-.141-6.867-.212-1.708-1.21-.32-3.451a19.453,19.453,0,0,0,2.846-6.62C2798.774,3428.647,2805.588,3427.456,2805.535,3430.072Z" transform="translate(-197.151 -2891.391)" fill="#573961" fill-rule="evenodd"/><path d="M3253.713,3419.151a12.326,12.326,0,0,1-.352,4.738c-.7,2.506-1.958,4.661-.235,5.914s6.656.469,8.731-.43-1.1-11.318-1.1-11.318Z" transform="translate(-611.099 -2881.867)" fill="#573961" fill-rule="evenodd"/><path d="M2841.606,2001.265s4.063,17.447,6.7,49.884,5.349,85.661,5.349,85.661a100.727,100.727,0,0,1-14.587,1.1c-4.4-30.019-14.184-105.669-14.184-105.669h-5.058s-7.587,81.258-10.006,106.661c-9.346,1.756-13.635-.332-13.635-.332s-.087-93,.793-108.837a190.206,190.206,0,0,1,4.3-30.045Z" transform="translate(-198.656 -1599.181)" fill="#6d81bb" fill-rule="evenodd"/><path d="M2591.835,248.17a27.084,27.084,0,0,0-.2-5.84,59.146,59.146,0,0,1-.577-6.088c-.134-1.291-1.455.1-1.442,1.539s0,2.409-.628,2.207-4.174-7.945-5.07-8.441-1.221-.176-.5,1.641c.621,1.574,2.446,6.517,2.446,6.517s-4.023-5.475-4.812-6.561-2.005-.818-.926,1.078,3.718,6.568,3.718,6.568-4.922-4.9-5.75-5.291-1.2.459-.175,1.648,4.207,4.639,4.045,4.68-2.792-1.221-4.039-1.748-1.921-.317-.922.755a27.673,27.673,0,0,0,4.576,3.024,22.022,22.022,0,0,1,3.133,5.178C2585.66,251.209,2591.422,251.415,2591.835,248.17Z" fill="#ffc4ad"/><path d="M3378.776,255.668a27.092,27.092,0,0,1-.4-5.83,59.337,59.337,0,0,0-.051-6.115c0-1.3,1.458-.053,1.593,1.383s.247,2.4.852,2.131,3.337-8.332,4.178-8.917,1.2-.3.67,1.58c-.456,1.629-1.764,6.734-1.764,6.734s3.441-5.859,4.114-7.02,1.911-1.019,1.032.977-3.024,6.915-3.024,6.915,4.394-5.377,5.177-5.853,1.236.334.343,1.622-3.708,5.046-3.544,5.07,2.653-1.5,3.839-2.153,1.879-.512.995.657a27.7,27.7,0,0,1-4.242,3.477,22.014,22.014,0,0,0-2.585,5.472C3385.23,258.058,3379.52,258.853,3378.776,255.668Z" transform="translate(-725.107 -6.069)" fill="#ffc4ad"/><g transform="translate(2584.212 248.082)"><path d="M2807.845,1902.469c-1.314-.107-2.438-.206-3.344-.288a64.085,64.085,0,0,0,1.126,7.505c.712.066,1.536.14,2.466.217C2808,1907.52,2807.921,1905.028,2807.845,1902.469Z" transform="translate(-2790.388 -1759.088)" fill="#a3d2e5"/><path d="M2802.391,1824.484c-1.514-.134-2.763-.255-3.7-.35.134,2.418.294,4.705.494,6.824.908.083,2.049.184,3.388.293C2802.506,1829.032,2802.446,1826.767,2802.391,1824.484Z" transform="translate(-2785.132 -1688.507)" fill="#a3d2e5"/><path d="M2798.951,1741.554c-1.53-.067-2.835-.13-3.873-.183.089,2.52.188,4.956.311,7.277.934.1,2.19.218,3.723.353C2799.053,1746.525,2799,1744.031,2798.951,1741.554Z" transform="translate(-2781.866 -1613.662)" fill="#a3d2e5"/><path d="M2796.345,1654.154c-1.606-.1-2.948-.194-3.986-.271.077,2.636.152,5.224.238,7.734,1.036.053,2.344.117,3.883.184C2796.43,1659.215,2796.385,1656.652,2796.345,1654.154Z" transform="translate(-2779.408 -1534.543)" fill="#a3d2e5"/><path d="M2907.392,1994.141c.011,2.531.031,4.777.052,6.7a45.7,45.7,0,0,0,6.546.53c-.007-1.992-.011-4.291-.011-6.915C2911.6,1994.368,2909.394,1994.259,2907.392,1994.141Z" transform="translate(-2883.437 -1842.251)" fill="#a3d2e5"/><path d="M3075.434,1998.855l-1.165,0c0,2.408-.011,4.611-.03,6.555,2.116-.075,4.436-.163,7.008-.245.018-1.72.042-3.826.075-6.371C3079.312,1998.835,3077.343,1998.855,3075.434,1998.855Z" transform="translate(-3034.322 -1846.456)" fill="#a3d2e5"/><path d="M2817.865,1987.435c.639,2.59,1.469,4.479,2.561,5.466-.079-1.672-.154-3.432-.224-5.262C2819.331,1987.567,2818.549,1987.5,2817.865,1987.435Z" transform="translate(-2802.474 -1836.187)" fill="#a3d2e5"/><path d="M2698.846,755.841l-3.792.589q.446,3.158.919,6.4l3.97-.661C2699.58,760.086,2699.212,757.965,2698.846,755.841Z" transform="translate(-2691.411 -722.41)" fill="#a3d2e5"/><path d="M2848.941,1990.1c.076,1.983.158,3.882.244,5.675a2.74,2.74,0,0,0,.413.179,31.445,31.445,0,0,0,4.352,1.121c-.021-1.909-.04-4.13-.051-6.627C2852.048,1990.338,2850.385,1990.218,2848.941,1990.1Z" transform="translate(-2830.577 -1838.599)" fill="#a3d2e5"/><path d="M2794.246,1581.029c-1.634-.1-3.014-.192-4.1-.27.069,2.138.132,4.262.193,6.359,1.035.077,2.379.171,4,.272C2794.3,1585.207,2794.273,1583.078,2794.246,1581.029Z" transform="translate(-2777.41 -1468.414)" fill="#a3d2e5"/><path d="M2735.5,995.137c-.329-1.674-.7-3.611-1.092-5.746-1.336.388-2.809.749-4.408,1.052q.486,3.272.969,6.556a44.435,44.435,0,0,0,4.7-1.036Q2735.578,995.553,2735.5,995.137Z" transform="translate(-2723.01 -933.618)" fill="#a3d2e5"/><path d="M2721.077,903.147l-4.165.872q.573,3.875,1.158,7.8c1.576-.3,3.039-.661,4.385-1.057C2722.023,908.421,2721.559,905.854,2721.077,903.147Z" transform="translate(-2711.178 -855.625)" fill="#a3d2e5"/><path d="M2791.4,1499.6c-1.775-.04-3.231-.081-4.292-.114.1,2.379.192,4.765.271,7.138,1.079.077,2.464.171,4.108.271C2791.449,1504.311,2791.421,1501.86,2791.4,1499.6Z" transform="translate(-2774.656 -1394.918)" fill="#a3d2e5"/><path d="M2745.814,1064.639a45.573,45.573,0,0,1-4.732,1.037q.643,4.384,1.265,8.746a52.637,52.637,0,0,0,5.219-2.118C2746.978,1069.988,2746.387,1067.433,2745.814,1064.639Z" transform="translate(-2733.036 -1001.668)" fill="#a3d2e5"/><path d="M2709.608,828.562l-3.988.664q.484,3.323.987,6.714l4.147-.868C2710.38,832.969,2710,830.787,2709.608,828.562Z" transform="translate(-2700.967 -788.175)" fill="#a3d2e5"/><path d="M2787.167,1414.385c-2.083-.04-3.685-.078-4.655-.1.163,2.478.3,4.992.411,7.516,1.059.033,2.523.074,4.313.115C2787.207,1419.028,2787.184,1416.476,2787.167,1414.385Z" transform="translate(-2770.504 -1317.863)" fill="#a3d2e5"/><path d="M2785.491,1358.168a43.453,43.453,0,0,1-4.79,2.893q.068.916.131,1.84c.959.025,2.575.064,4.692.1C2785.506,1360.688,2785.5,1359.009,2785.491,1358.168Z" transform="translate(-2768.865 -1267.117)" fill="#a3d2e5"/><path d="M2779.06,1243.559a74,74,0,0,1-3.1-8.161,61.88,61.88,0,0,1-6.233,4.157c.411,3.132.736,6.419,1,9.795a42.137,42.137,0,0,0,6.331-4.095C2777.706,1244.744,2778.379,1244.178,2779.06,1243.559Z" transform="translate(-2758.943 -1156.092)" fill="#a3d2e5"/><path d="M2760.542,1151.338a54.16,54.16,0,0,1-5.289,2.128c.448,3.159.882,6.3,1.294,9.388a60.962,60.962,0,0,0,6.118-4.115C2762,1156.641,2761.274,1154.175,2760.542,1151.338Z" transform="translate(-2745.853 -1080.073)" fill="#a3d2e5"/><path d="M2982.871,1997.661c0,2.618,0,4.913.012,6.9,2.375.025,5.018-.047,8.1-.154.019-1.948.029-4.161.03-6.58C2988.141,1997.809,2985.414,1997.749,2982.871,1997.661Z" transform="translate(-2951.695 -1845.434)" fill="#a3d2e5"/><path d="M3304.189,1087.453c1.617.705,3.4,1.422,5.333,2.122.509-2.265,1.043-4.746,1.578-7.394-1.806-.386-3.467-.805-4.981-1.236Q3305.132,1084.472,3304.189,1087.453Z" transform="translate(-3242.275 -1016.414)" fill="#a3d2e5"/><path d="M3326.137,1020.862c1.5.427,3.145.842,4.936,1.225.393-1.963.784-4.013,1.166-6.131-1.6-.241-3.148-.5-4.6-.776Q3326.883,1018.174,3326.137,1020.862Z" transform="translate(-3262.123 -956.94)" fill="#a3d2e5"/><path d="M3276.017,1162.655a53.449,53.449,0,0,0,5.834,3.347c.559-2.191,1.273-5.1,2.053-8.541-1.952-.705-3.75-1.427-5.384-2.138C3277.621,1158.152,3276.774,1160.6,3276.017,1162.655Z" transform="translate(-3216.798 -1083.677)" fill="#a3d2e5"/><path d="M3344.143,944.021q-.373,1.584-.747,3.091c1.444.269,2.974.529,4.563.768.39-2.189.767-4.447,1.123-6.751l-4.163-.536C3344.662,941.769,3344.4,942.915,3344.143,944.021Z" transform="translate(-3277.731 -889.489)" fill="#a3d2e5"/><path d="M3402.123,652.226l2.938.435c.233-2.081.456-4.129.667-6.111l-2.659-.325C3402.767,648.19,3402.451,650.2,3402.123,652.226Z" transform="translate(-3330.84 -623.281)" fill="#a3d2e5"/><path d="M3241.851,1245.754a45.123,45.123,0,0,0,8.658,6.562c-.417-4.067-.746-6.709-.746-6.709s.4-1.4,1.031-3.861a54.834,54.834,0,0,1-5.9-3.36C3243.329,1242.58,3242.191,1245.042,3241.851,1245.754Z" transform="translate(-3185.9 -1158.794)" fill="#a3d2e5"/><path d="M3154.2,1994.885c-.032,2.542-.057,4.645-.075,6.365,1.35-.042,2.768-.082,4.262-.117a21.79,21.79,0,0,0,5.007-.638c.039-1.964.063-3.97.075-6.008C3160.311,1994.684,3157.207,1994.812,3154.2,1994.885Z" transform="translate(-3106.565 -1842.564)" fill="#a3d2e5"/><path d="M3375.47,797.415l3.709.487c.312-2.338.615-4.737.908-7.146l-3.384-.08C3376.3,792.95,3375.892,795.208,3375.47,797.415Z" transform="translate(-3306.737 -753.912)" fill="#a3d2e5"/><path d="M3360.71,874l4.125.531q.039-.256.078-.513c.283-1.889.562-3.862.834-5.884l-3.744-.491C3361.581,869.83,3361.149,871.96,3360.71,874Z" transform="translate(-3293.389 -823.519)" fill="#a3d2e5"/><path d="M3389.515,722.059l3.35.079c.25-2.073.491-4.151.723-6.2l-2.969-.439C3390.265,717.678,3389.9,719.875,3389.515,722.059Z" transform="translate(-3319.438 -685.928)" fill="#a3d2e5"/><path d="M3329.628,1917.454a27.368,27.368,0,0,0,.978-6.634c-.4.036-.8.073-1.207.105C3329.486,1913.118,3329.563,1915.3,3329.628,1917.454Z" transform="translate(-3265.074 -1766.901)" fill="#a3d2e5"/><path d="M3321.667,1750.126q.827-.05,1.653-.106c.021-2.295.087-4.628.33-6.926.052-.5.1-1.013.138-1.546q-1.27.092-2.563.172C3321.381,1744.479,3321.53,1747.294,3321.667,1750.126Z" transform="translate(-3257.681 -1613.822)" fill="#a3d2e5"/><path d="M3295.223,1371.159q1.775-.119,3.457-.261-.035-.35-.069-.69c-1.307-.75-2.526-1.528-3.657-2.322C3295.009,1368.541,3295.1,1369.657,3295.223,1371.159Z" transform="translate(-3233.923 -1275.906)" fill="#a3d2e5"/><path d="M3413.013,581.675l2.63.322c.228-2.161.441-4.238.637-6.185l-2.352-.271C3413.641,577.51,3413.335,579.566,3413.013,581.675Z" transform="translate(-3340.688 -559.358)" fill="#a3d2e5"/><path d="M3326.444,1843.3c.422-.035.84-.073,1.258-.11.076-2.063.061-4.234.074-6.449q-.808.055-1.618.1C3326.261,1838.995,3326.357,1841.152,3326.444,1843.3Z" transform="translate(-3262.143 -1699.909)" fill="#a3d2e5"/><path d="M3305.291,1497.11q1.762-.12,3.5-.268c-.144-2.847-.336-5.7-.547-8.4q-1.746.168-3.552.31C3304.881,1491.266,3305.083,1494.08,3305.291,1497.11Z" transform="translate(-3242.732 -1384.925)" fill="#a3d2e5"/><path d="M3298.864,1413.534q1.8-.143,3.55-.311c-.208-2.615-.433-5.08-.646-7.258q-1.685.142-3.468.262C3298.454,1408.16,3298.647,1410.638,3298.864,1413.534Z" transform="translate(-3236.948 -1310.342)" fill="#a3d2e5"/><path d="M3316.754,1666.711q1.334-.082,2.643-.178c.142-2.19.187-4.643.163-7.229q-1.623.1-3.239.176C3316.468,1661.824,3316.614,1664.244,3316.754,1666.711Z" transform="translate(-3253.247 -1539.445)" fill="#a3d2e5"/><path d="M3311.816,1589.76q1.63-.08,3.271-.178c-.029-2.165-.106-4.415-.214-6.674q-1.734.146-3.49.266C3311.526,1585.277,3311.672,1587.481,3311.816,1589.76Z" transform="translate(-3248.781 -1470.357)" fill="#a3d2e5"/><path d="M3257.755,1989.22c-.011,1.989-.034,3.947-.071,5.865a9.862,9.862,0,0,0,6.5-5.615c-.007-.255-.014-.508-.021-.764C3262.012,1988.912,3259.873,1989.083,3257.755,1989.22Z" transform="translate(-3200.219 -1837.337)" fill="#a3d2e5"/><path d="M3005.608,1218.527c-.022-1.249-.04-2.25-.052-2.969-1.914.064-3.871.117-5.466.134-.039.708-.091,1.669-.152,2.855C3001.639,1218.564,3003.57,1218.564,3005.608,1218.527Z" transform="translate(-2967.129 -1138.15)" fill="#a3d2e5"/><path d="M3241.6,927.134l-3.351-.432-.509,2.082c-.3,1.219-.594,2.377-.888,3.483.792.21,1.842.479,3.1.779Q3240.776,930.254,3241.6,927.134Z" transform="translate(-3181.383 -876.926)" fill="#a3d2e5"/><path d="M3275.522,788.309l-3.43-.081c-.455,1.886-.912,3.778-1.367,5.659l3.4.446C3274.6,792.362,3275.063,790.345,3275.522,788.309Z" transform="translate(-3212.012 -751.699)" fill="#a3d2e5"/><path d="M3256.632,859.724c.448-1.747.9-3.56,1.344-5.418l-3.4-.446c-.519,2.143-1.035,4.269-1.542,6.349l3.362.433Q3256.513,860.186,3256.632,859.724Z" transform="translate(-3196.011 -811.052)" fill="#a3d2e5"/><path d="M3207.032,1042.883c-1.163-.489-2.1-.932-2.8-1.29-.6,1.952-1.182,3.675-1.74,5.2.687.435,1.572.97,2.649,1.575C3205.742,1046.7,3206.378,1044.878,3207.032,1042.883Z" transform="translate(-3150.303 -980.827)" fill="#a3d2e5"/><path d="M3185.536,1103.827c-1.07-.6-1.955-1.131-2.654-1.57-.646,1.719-1.258,3.167-1.825,4.382a32.618,32.618,0,0,0,2.361,2.6C3184.054,1107.71,3184.769,1105.906,3185.536,1103.827Z" transform="translate(-3130.922 -1035.687)" fill="#a3d2e5"/><path d="M3150.366,1204.107a34.073,34.073,0,0,1-2.074-3.832c-.1.123-.187.235-.271.334.023.453.086,1.74.172,3.7C3148.927,1204.249,3149.652,1204.182,3150.366,1204.107Z" transform="translate(-3101.046 -1124.329)" fill="#a3d2e5"/><path d="M3072.737,1213.526c-.061-1.4-.111-2.454-.143-3.112a2.015,2.015,0,0,1-.223.181s-3.376.16-7.089.29c.013.72.031,1.724.053,2.979C3067.74,1213.812,3070.272,1213.71,3072.737,1213.526Z" transform="translate(-3026.223 -1133.498)" fill="#a3d2e5"/><path d="M3159.943,1157.383a33.453,33.453,0,0,1-2.4-2.6,27.793,27.793,0,0,1-2.148,3.761,33.424,33.424,0,0,0,2.154,4.047C3157.953,1161.81,3158.805,1160.072,3159.943,1157.383Z" transform="translate(-3107.718 -1083.189)" fill="#a3d2e5"/><path d="M3226.921,992.047c-1.249-.3-2.292-.565-3.083-.775q-.607,2.252-1.2,4.2c.7.355,1.632.8,2.813,1.3Q3226.177,994.545,3226.921,992.047Z" transform="translate(-3168.529 -935.319)" fill="#a3d2e5"/><path d="M3440.454,428.379c.19-2.089.294-3.3.294-3.3l-1.726-.3c-.133,1.024-.285,2.179-.454,3.447Z" transform="translate(-3363.799 -423.022)" fill="#a3d2e5"/><path d="M3367.664,413.251l-2.092-.362s-.35,1.482-.955,4.031l2.328.181C3367.224,415.627,3367.464,414.332,3367.664,413.251Z" transform="translate(-3296.923 -412.266)" fill="#a3d2e5"/><path d="M3399.073,421.868c.173-1.291.327-2.466.462-3.5l-3.233-.559c-.2,1.066-.434,2.342-.708,3.791Z" transform="translate(-3324.936 -416.711)" fill="#a3d2e5"/><path d="M3432.405,471.094h2.085c.127-1.34.239-2.536.332-3.557l-1.912-.151C3432.755,468.542,3432.586,469.782,3432.405,471.094Z" transform="translate(-3358.225 -461.55)" fill="#a3d2e5"/><path d="M3291.616,701.96l-3.172-.465c-.6,2.506-1.219,5.078-1.843,7.667l3.421.081C3290.566,706.821,3291.1,704.378,3291.616,701.96Z" transform="translate(-3226.369 -673.263)" fill="#a3d2e5"/><path d="M2689.25,686.64l-3.553.738q.387,2.871.806,5.844l3.773-.587C2689.932,690.628,2689.588,688.621,2689.25,686.64Z" transform="translate(-2682.95 -659.83)" fill="#a3d2e5"/><path d="M3327.488,566.2l-2.77-.316c-.45,1.889-.931,3.9-1.434,6.01l2.982.365C3326.694,570.166,3327.1,568.135,3327.488,566.2Z" transform="translate(-3259.543 -550.621)" fill="#a3d2e5"/><path d="M3343.5,512.774h-2.619c-.327,1.377-.683,2.871-1.061,4.46l2.746.313C3342.894,515.877,3343.207,514.279,3343.5,512.774Z" transform="translate(-3274.496 -502.596)" fill="#a3d2e5"/><path d="M3355.854,461.732l-2.357-.183c-.291,1.224-.631,2.659-1.013,4.267h2.59C3355.356,464.352,3355.617,462.984,3355.854,461.732Z" transform="translate(-3285.95 -456.271)" fill="#a3d2e5"/><path d="M3311.785,635.556l-3-.367c-.442,1.85-.9,3.766-1.37,5.724l3.156.462C3310.987,639.408,3311.394,637.46,3311.785,635.556Z" transform="translate(-3245.189 -613.3)" fill="#a3d2e5"/><path d="M2732.2,475.929l2.609-.469c-.409-1.854-.778-3.546-1.1-5.02l-2.581.316C2731.457,472.358,2731.815,474.093,2732.2,475.929Z" transform="translate(-2724.034 -464.311)" fill="#a3d2e5"/><path d="M2941.7,1203.456c.061-1.175.112-2.133.151-2.843-.516,0-.982,0-1.38-.009-.8-.017-1.569-.626-2.332-1.725a24.121,24.121,0,0,1-1.9,4.436C2937.122,1203.352,2939.1,1203.423,2941.7,1203.456Z" transform="translate(-2909.526 -1123.066)" fill="#a3d2e5"/><path d="M2687.7,415.005c-.444-2.164-.83-4.062-1.143-5.61a22.4,22.4,0,0,0-2.612.566c.235,1.419.54,3.25.9,5.394Z" transform="translate(-2681.368 -409.107)" fill="#a3d2e5"/><path d="M2744.855,535.626l2.718-.382c-.467-2.063-.906-4.03-1.309-5.852l-2.616.471C2744.03,531.7,2744.435,533.633,2744.855,535.626Z" transform="translate(-2735.357 -517.624)" fill="#a3d2e5"/><path d="M2678.412,607.834l-3.284.462c.286,2.326.6,4.726.926,7.186l3.531-.734C2679.183,612.386,2678.79,610.067,2678.412,607.834Z" transform="translate(-2673.392 -588.562)" fill="#a3d2e5"/><path d="M2759.042,603.99l2.79-.58c-.508-2.177-1-4.313-1.462-6.361l-2.726.383C2758.095,599.565,2758.563,601.764,2759.042,603.99Z" transform="translate(-2748.014 -578.809)" fill="#a3d2e5"/><path d="M2670.547,542.385c-1.013.18-2.013.356-2.95.519q.294,2.7.644,5.575l3.255-.458C2671.165,546.061,2670.847,544.172,2670.547,542.385Z" transform="translate(-2666.581 -529.374)" fill="#a3d2e5"/><path d="M2658.945,417.244a15.671,15.671,0,0,0-1.968.772q.131,2.293.345,4.821l2.5-.307C2659.476,420.439,2659.178,418.646,2658.945,417.244Z" transform="translate(-2656.977 -416.205)" fill="#a3d2e5"/><path d="M2663.7,479.047l-2.552.313q.234,2.7.548,5.634c.909-.159,1.89-.332,2.913-.513C2664.285,482.525,2663.98,480.7,2663.7,479.047Z" transform="translate(-2660.753 -472.095)" fill="#a3d2e5"/><path d="M2721.536,411.886c-.736-3.411-1.173-5.506-1.173-5.506a21.739,21.739,0,0,0-2.546.2c.314,1.553.7,3.456,1.146,5.624Z" transform="translate(-2711.997 -406.38)" fill="#a3d2e5"/><path d="M2882.045,1087.305c.667,2.07,1.289,3.882,1.852,5.447,1.032-1.124,1.844-2.125,2.458-2.939-.513-1.455-1.03-3.08-1.556-4.845A25.379,25.379,0,0,1,2882.045,1087.305Z" transform="translate(-2860.514 -1020.052)" fill="#a3d2e5"/><path d="M2842.2,955.865a25.977,25.977,0,0,0,3.061-1.821c-.531-1.971-1.075-4.037-1.637-6.174a34.765,34.765,0,0,1-3.143,1.665Q2841.359,952.926,2842.2,955.865Z" transform="translate(-2822.926 -896.069)" fill="#a3d2e5"/><path d="M2862.213,1027.28a23.964,23.964,0,0,0,2.755-2.389c-.511-1.741-1.031-3.61-1.564-5.58a26.727,26.727,0,0,1-3.058,1.8Q2861.32,1024.5,2862.213,1027.28Z" transform="translate(-2840.891 -960.676)" fill="#a3d2e5"/><path d="M2906.538,1152.446a23.36,23.36,0,0,0,1.946-4.729,29.355,29.355,0,0,1-2.067-4.631c-.636.822-1.453,1.8-2.472,2.9C2905.189,1149.39,2906.11,1151.508,2906.538,1152.446Z" transform="translate(-2880.319 -1072.61)" fill="#a3d2e5"/><path d="M2790.613,749.233l3.1-.517c-.513-2.018-1.026-4.088-1.531-6.169l-2.966.461C2789.683,745.108,2790.149,747.193,2790.613,749.233Z" transform="translate(-2776.568 -710.388)" fill="#a3d2e5"/><path d="M2775.011,676.775l2.953-.459c-.511-2.113-1.015-4.235-1.5-6.323l-2.8.582C2774.1,672.632,2774.556,674.708,2775.011,676.775Z" transform="translate(-2762.498 -644.775)" fill="#a3d2e5"/><path d="M2806.713,820.207l3.265-.683q-.124-.463-.25-.929c-.443-1.646-.892-3.362-1.341-5.12l-3.119.52C2805.757,816.133,2806.24,818.216,2806.713,820.207Z" transform="translate(-2791.083 -774.532)" fill="#a3d2e5"/><path d="M2823.371,889.774c.048.188.1.375.144.561a34.294,34.294,0,0,0,3.136-1.676c-.476-1.807-.964-3.661-1.468-5.548l-3.282.687C2822.407,885.915,2822.9,887.923,2823.371,889.774Z" transform="translate(-2806.124 -837.505)" fill="#a3d2e5"/><path d="M3275.711,938.042c1.667.39,3.651.822,5.851,1.241q.378-1.521.754-3.119c.256-1.087.509-2.211.761-3.365l-5.7-.734Q3276.543,935.22,3275.711,938.042Z" transform="translate(-3216.521 -881.777)" fill="#a3d2e5"/><path d="M3158.706,1664.054c0,2.435-.018,4.892-.049,7.349,2.849-.035,5.724-.1,8.57-.2-.074-2.476-.156-4.917-.244-7.3C3164.167,1663.983,3161.4,1664.032,3158.706,1664.054Z" transform="translate(-3110.665 -1543.602)" fill="#a3d2e5"/><path d="M3157.346,1747.025q-.011.817-.024,1.633c-.038,2.369-.073,4.592-.106,6.68,2.919.005,5.91-.031,8.931-.122-.054-2.816-.124-5.625-.2-8.394C3163.086,1746.925,3160.2,1746.99,3157.346,1747.025Z" transform="translate(-3109.361 -1618.591)" fill="#a3d2e5"/><path d="M3156.082,1847.95c3.033-.007,6.1-.064,9.142-.186-.02-2.185-.05-4.382-.091-6.577-2.843.085-5.66.123-8.415.123h-.537Q3156.126,1844.9,3156.082,1847.95Z" transform="translate(-3108.336 -1703.929)" fill="#a3d2e5"/><path d="M2917.811,1416.609c-.144,2.338-.29,4.866-.428,7.541,1.96.019,4.06.031,6.261.031.086-2.634.177-5.159.27-7.542C2921.777,1416.636,2919.729,1416.625,2917.811,1416.609Z" transform="translate(-2892.471 -1319.967)" fill="#a3d2e5"/><path d="M3157.688,1496.438c.048,2.635.086,5.372.111,8.174,2.64-.038,5.316-.108,7.993-.218-.129-2.932-.262-5.715-.393-8.293C3162.847,1496.241,3160.263,1496.352,3157.688,1496.438Z" transform="translate(-3109.789 -1391.854)" fill="#a3d2e5"/><path d="M3155.083,1916.744c-.038,2.635-.069,4.971-.1,7.034,3.007-.073,6.109-.2,9.265-.4.01-2.245,0-4.525-.013-6.822C3161.2,1916.68,3158.121,1916.737,3155.083,1916.744Z" transform="translate(-3107.347 -1772.09)" fill="#a3d2e5"/><path d="M3158.9,1589.619c.017,2.113.026,4.261.025,6.429,2.687-.022,5.446-.071,8.253-.154-.084-2.225-.173-4.4-.263-6.494C3164.232,1589.51,3161.549,1589.581,3158.9,1589.619Z" transform="translate(-3110.885 -1476.229)" fill="#a3d2e5"/><path d="M3155.8,1412.523c.063,2.361.12,4.862.169,7.466,2.568-.086,5.146-.2,7.69-.337-.14-2.727-.276-5.211-.4-7.388C3160.817,1412.373,3158.314,1412.458,3155.8,1412.523Z" transform="translate(-3108.081 -1316.038)" fill="#a3d2e5"/><path d="M3157.516,1252.911l.206-.014a41.056,41.056,0,0,1-4.03-4.771q-.577-.8-1.064-1.557c-.826.09-1.67.169-2.525.238.075,1.752.164,3.963.256,6.536,2.515-.086,4.947-.2,7.163-.359C3157.518,1252.945,3157.517,1252.92,3157.516,1252.911Z" transform="translate(-3102.928 -1166.193)" fill="#a3d2e5"/><path d="M3074.458,1591.808q-1.665,0-3.293-.014c.028,2.112.055,4.249.081,6.392,2.478.028,5.054.036,7.7.019,0-2.166-.008-4.313-.025-6.425C3077.421,1591.8,3075.929,1591.808,3074.458,1591.808Z" transform="translate(-3031.543 -1478.381)" fill="#a3d2e5"/><path d="M3258.332,1919.619c2.11-.138,4.242-.307,6.386-.512-.065-2.2-.144-4.424-.232-6.663-2.025.157-4.088.279-6.168.368C3258.337,1915.1,3258.342,1917.378,3258.332,1919.619Z" transform="translate(-3200.792 -1768.369)" fill="#a3d2e5"/><path d="M3390.59,464.257l-3.512-.276c-.234,1.237-.491,2.589-.77,4.034h3.77C3390.262,466.685,3390.433,465.427,3390.59,464.257Z" transform="translate(-3316.538 -458.471)" fill="#a3d2e5"/><path d="M2982.884,1914.4q-.012,4-.012,7.331c2.542.088,5.269.149,8.138.167,0-2.249-.006-4.665-.019-7.205C2988.174,1914.625,2985.452,1914.523,2982.884,1914.4Z" transform="translate(-2951.696 -1770.14)" fill="#a3d2e5"/><path d="M3077.787,1508.008c-.025-2.8-.063-5.53-.111-8.162-2.618.083-5.221.142-7.763.18.038,2.593.075,5.271.111,7.995C3072.548,1508.043,3075.148,1508.041,3077.787,1508.008Z" transform="translate(-3030.41 -1395.242)" fill="#a3d2e5"/><path d="M3076.339,1415.14c-2.58.063-5.167.106-7.705.133.037,2.386.075,4.906.113,7.517,2.542-.038,5.144-.1,7.761-.18C3076.459,1420,3076.4,1417.5,3076.339,1415.14Z" transform="translate(-3029.254 -1318.639)" fill="#a3d2e5"/><path d="M3072.094,1665.367c.03,2.467.058,4.94.084,7.39,2.47.013,5.005.008,7.563-.02.03-2.458.046-4.915.049-7.351q-1.407.009-2.785.009Q3074.495,1665.4,3072.094,1665.367Z" transform="translate(-3032.383 -1544.928)" fill="#a3d2e5"/><path d="M3073.035,1749.05c.029,2.77.054,5.508.075,8.172,2.374.062,4.831.1,7.344.111.032-2.091.067-4.317.106-6.689q.013-.807.024-1.614c-1.669.018-3.327.027-4.964.027Q3074.317,1749.057,3073.035,1749.05Z" transform="translate(-3033.233 -1620.588)" fill="#a3d2e5"/><path d="M3073.92,1847.956c2.346.054,4.753.085,7.187.085q.044-3.055.1-6.644c-2.508-.01-4.959-.049-7.329-.111C3073.895,1843.576,3073.91,1845.808,3073.92,1847.956Z" transform="translate(-3033.995 -1704.019)" fill="#a3d2e5"/><path d="M3074.363,1917.625c.012,2.536.019,4.948.019,7.193,2.275.009,4.635-.008,7.06-.061.027-2.066.058-4.407.1-7.047h-.014C3079.1,1917.71,3076.7,1917.679,3074.363,1917.625Z" transform="translate(-3034.435 -1773.055)" fill="#a3d2e5"/><path d="M3160.7,1328.4c-.233-4.029-.421-6.912-.5-8.172-2.223.158-4.662.275-7.184.361.084,2.414.171,5.128.25,8.069C3155.765,1328.6,3158.261,1328.513,3160.7,1328.4Z" transform="translate(-3105.555 -1232.811)" fill="#a3d2e5"/><path d="M3329.112,714.523l5.138.122c.385-2.21.759-4.433,1.118-6.638l-4.68-.69C3330.178,709.709,3329.65,712.127,3329.112,714.523Z" transform="translate(-3264.814 -678.529)" fill="#a3d2e5"/><path d="M3295.019,864.885q-.109.424-.218.841l5.674.731c.439-2.041.871-4.172,1.294-6.358l-5.388-.707C3295.929,861.276,3295.474,863.115,3295.019,864.885Z" transform="translate(-3233.785 -816.056)" fill="#a3d2e5"/><path d="M3312.869,795.329l5.359.7c.418-2.184.826-4.42,1.222-6.672l-5.169-.122C3313.816,791.3,3313.344,793.335,3312.869,795.329Z" transform="translate(-3250.124 -752.612)" fill="#a3d2e5"/><path d="M3236.044,1063.17c1.607.883,3.592,1.891,5.936,2.933q.924-2.946,1.9-6.428c-2.347-.691-4.322-1.405-5.919-2.055C3237.3,1059.64,3236.657,1061.491,3236.044,1063.17Z" transform="translate(-3180.649 -995.32)" fill="#a3d2e5"/><path d="M3258.18,1005.724a62.157,62.157,0,0,0,5.892,2.048q.736-2.66,1.482-5.623c-2.21-.422-4.2-.857-5.877-1.248Q3258.92,1003.451,3258.18,1005.724Z" transform="translate(-3200.667 -944.026)" fill="#a3d2e5"/><path d="M3376.072,512.774c-.295,1.526-.612,3.148-.948,4.845l4,.46c.269-1.857.52-3.634.752-5.3Z" transform="translate(-3306.424 -502.596)" fill="#a3d2e5"/><path d="M3346.973,645.666l4.649.685c.328-2.022.643-4.025.943-5.985l-4.373-.535C3347.8,641.741,3347.392,643.694,3346.973,645.666Z" transform="translate(-3280.966 -617.499)" fill="#a3d2e5"/><path d="M3424.281,512.774c-.235,1.691-.49,3.492-.762,5.377l2.324.268c.205-2.054.389-3.953.551-5.645Z" transform="translate(-3350.189 -502.596)" fill="#a3d2e5"/><path d="M3361.053,576l4.342.531c.322-2.108.627-4.162.913-6.131l-4.032-.463C3361.89,571.879,3361.481,573.911,3361.053,576Z" transform="translate(-3293.699 -554.292)" fill="#a3d2e5"/><path d="M3249.567,1592.928q2.712-.085,5.475-.213c-.144-2.274-.289-4.473-.432-6.573-1.76.114-3.532.208-5.306.285C3249.394,1588.527,3249.483,1590.7,3249.567,1592.928Z" transform="translate(-3192.639 -1473.282)" fill="#a3d2e5"/><path d="M3245.294,1500.833c1.769-.077,3.536-.171,5.291-.285-.207-3.028-.409-5.84-.6-8.355-1.67.128-3.37.24-5.088.339C3245.032,1495.112,3245.165,1497.9,3245.294,1500.833Z" transform="translate(-3188.658 -1388.321)" fill="#a3d2e5"/><path d="M3257.405,1845.053c2.073-.09,4.13-.21,6.148-.367-.086-2.153-.182-4.315-.285-6.468-1.988.114-3.976.2-5.953.264C3257.355,1840.675,3257.386,1842.87,3257.405,1845.053Z" transform="translate(-3199.885 -1701.244)" fill="#a3d2e5"/><path d="M3252.552,1668.972c1.914-.073,3.813-.162,5.68-.272-.141-2.469-.286-4.891-.434-7.238q-2.768.13-5.491.214C3252.4,1664.057,3252.479,1666.5,3252.552,1668.972Z" transform="translate(-3195.357 -1541.397)" fill="#a3d2e5"/><path d="M3255.261,1752.4c1.971-.063,3.953-.15,5.935-.264-.137-2.832-.286-5.647-.441-8.407-1.874.11-3.777.2-5.7.274C3255.138,1746.768,3255.207,1749.578,3255.261,1752.4Z" transform="translate(-3197.843 -1615.791)" fill="#a3d2e5"/><path d="M3210.833,1127.492a44.277,44.277,0,0,0,5.7,4.588c.745-2.035,1.578-4.444,2.461-7.224-2.347-1.041-4.342-2.051-5.965-2.939C3212.227,1124.072,3211.487,1125.93,3210.833,1127.492Z" transform="translate(-3157.85 -1053.467)" fill="#a3d2e5"/><path d="M3184.509,1186.872c-1.294,3.042-2.207,4.829-2.487,5.359.327.5.681,1.027,1.068,1.563a40.543,40.543,0,0,0,4.177,4.9c.425-.905,1.518-3.329,2.978-7.257a45.273,45.273,0,0,1-5.26-4.123C3184.821,1187.166,3184.663,1187.018,3184.509,1186.872Z" transform="translate(-3131.795 -1112.208)" fill="#a3d2e5"/><path d="M3240.775,1416.792c1.713-.1,3.409-.21,5.074-.337-.216-2.9-.411-5.38-.565-7.314-1.594.1-3.235.192-4.909.27C3240.5,1411.586,3240.636,1414.068,3240.775,1416.792Z" transform="translate(-3184.565 -1313.214)" fill="#a3d2e5"/><path d="M3234.706,1319.614c.084,1.26.272,4.15.506,8.189,1.669-.078,3.306-.167,4.895-.269-.166-2.059-.279-3.389-.314-3.8a44.742,44.742,0,0,1-4.9-4.135Z" transform="translate(-3179.439 -1232.239)" fill="#a3d2e5"/><path d="M3074.759,1324.222c-2.5.08-5.07.129-7.577.158.04,2.418.083,5.125.129,8.039,2.536-.027,5.121-.069,7.7-.133C3074.93,1329.347,3074.844,1326.635,3074.759,1324.222Z" transform="translate(-3027.941 -1236.418)" fill="#a3d2e5"/><path d="M2697.3,474.551l-2.881.353c.274,1.645.578,3.458.9,5.4l3.053-.545C2697.989,477.91,2697.628,476.163,2697.3,474.551Z" transform="translate(-2690.834 -468.03)" fill="#a3d2e5"/><path d="M2879.415,1267.214c.809.016,2.222.042,4.059.065.182-2.449.335-4.324.432-5.478A30.691,30.691,0,0,1,2879.415,1267.214Z" transform="translate(-2858.136 -1179.969)" fill="#a3d2e5"/><path d="M2928.356,1333.849c.115-2.931.231-5.635.34-8.045-2.19-.005-4.19-.022-5.88-.041-.167,2.27-.356,4.99-.548,8.057C2924.183,1333.836,2926.226,1333.847,2928.356,1333.849Z" transform="translate(-2896.889 -1237.812)" fill="#a3d2e5"/><path d="M2708.035,535.486l-3.077.549c.3,1.794.621,3.691.953,5.658l3.327-.468C2708.819,539.24,2708.416,537.317,2708.035,535.486Z" transform="translate(-2700.368 -523.135)" fill="#a3d2e5"/><path d="M2732.949,677.426l-3.621.752c.34,1.991.686,4.009,1.033,6.027l3.933-.611C2733.84,681.538,2733.39,679.472,2732.949,677.426Z" transform="translate(-2722.406 -651.497)" fill="#a3d2e5"/><path d="M2745.208,748.386l-3.962.616c.365,2.121.732,4.24,1.1,6.326l4.261-.71C2746.139,752.575,2745.672,750.487,2745.208,748.386Z" transform="translate(-2733.185 -715.669)" fill="#a3d2e5"/><path d="M2773.052,897.649c-.473-1.859-.968-3.876-1.476-6l-4.637.97c.478,2.686.939,5.234,1.368,7.564a42.248,42.248,0,0,0,4.918-1.857C2773.168,898.1,2773.11,897.876,2773.052,897.649Z" transform="translate(-2756.42 -845.224)" fill="#a3d2e5"/><path d="M2934.652,1251.936c-2.811-.036-4.9-.117-5.652-.149-.069.783-.264,3.062-.516,6.443,1.687.02,3.681.036,5.862.041C2934.459,1255.8,2934.564,1253.666,2934.652,1251.936Z" transform="translate(-2902.511 -1170.913)" fill="#a3d2e5"/><path d="M2719.374,601.982l-3.353.471c.375,2.22.766,4.526,1.166,6.873l3.594-.747C2720.3,606.34,2719.827,604.127,2719.374,601.982Z" transform="translate(-2710.373 -583.27)" fill="#a3d2e5"/><path d="M2758.135,820l-4.293.715c.387,2.216.77,4.39,1.142,6.485l4.6-.963C2759.111,824.235,2758.625,822.143,2758.135,820Z" transform="translate(-2744.576 -780.429)" fill="#a3d2e5"/><path d="M2983.415,1748.07q-.008.857-.014,1.714-.023,3.266-.04,6.239c2.521.126,5.21.235,8.021.314-.021-2.66-.047-5.393-.076-8.159C2988.575,1748.16,2985.927,1748.122,2983.415,1748.07Z" transform="translate(-2952.138 -1619.72)" fill="#a3d2e5"/><path d="M2983.992,1671.033c2.508.052,5.152.09,7.878.108-.026-2.452-.054-4.925-.084-7.394-2.693-.034-5.266-.091-7.687-.163C2984.053,1666.046,2984.017,1668.536,2983.992,1671.033Z" transform="translate(-2952.709 -1543.316)" fill="#a3d2e5"/><path d="M2999.176,1333.98c-.045-2.914-.089-5.621-.129-8.039-1.848.019-3.657.026-5.372.026h-.794c-.109,2.409-.225,5.113-.34,8.044C2994.683,1334.01,2996.908,1334,2999.176,1333.98Z" transform="translate(-2960.439 -1237.973)" fill="#a3d2e5"/><path d="M3073.621,1256.067c-.091-2.561-.18-4.762-.255-6.509-2.471.183-5.008.286-7.418.338.03,1.733.067,3.871.107,6.329C3068.559,1256.2,3071.124,1256.147,3073.621,1256.067Z" transform="translate(-3026.825 -1168.897)" fill="#a3d2e5"/><path d="M2983.023,1844.522c2.565.121,5.286.223,8.1.294-.011-2.149-.026-4.381-.043-6.671-2.814-.078-5.505-.187-8.03-.314Q2983.033,1841.383,2983.023,1844.522Z" transform="translate(-2951.833 -1700.894)" fill="#a3d2e5"/><path d="M3002.523,1259.543c-.041-2.455-.077-4.591-.107-6.323-1.219.022-2.4.031-3.516.031-.766,0-1.5,0-2.2-.011-.088,1.727-.193,3.863-.306,6.329C2998.332,1259.571,3000.4,1259.565,3002.523,1259.543Z" transform="translate(-2963.926 -1172.209)" fill="#a3d2e5"/><path d="M2989.728,1416.623c-.093,2.382-.184,4.908-.27,7.542,2.264,0,4.629-.019,7.054-.052-.038-2.612-.076-5.133-.113-7.521-2.267.022-4.491.031-6.632.031Z" transform="translate(-2957.652 -1319.952)" fill="#a3d2e5"/><path d="M2985.234,1596.739c2.415.072,4.982.129,7.668.163-.026-2.143-.054-4.279-.082-6.391-2.578-.026-5.073-.077-7.446-.143C2985.322,1592.459,2985.275,1594.587,2985.234,1596.739Z" transform="translate(-2953.832 -1477.104)" fill="#a3d2e5"/><path d="M2986.876,1509.662c2.365.066,4.852.116,7.421.142-.037-2.718-.074-5.392-.111-7.98-2.436.034-4.811.05-7.084.052C2987.021,1504.388,2986.944,1506.993,2986.876,1509.662Z" transform="translate(-2955.317 -1397.031)" fill="#a3d2e5"/><path d="M2907.283,1917.558c2,.118,4.211.228,6.59.315q0-3.333.013-7.339c-2.357-.115-4.575-.243-6.607-.376C2907.272,1912.823,2907.274,1915.3,2907.283,1917.558Z" transform="translate(-2883.331 -1766.302)" fill="#a3d2e5"/><path d="M2839.684,1590.337c1.759.107,3.805.22,6.095.326.063-2.158.137-4.282.219-6.355-2.389-.107-4.545-.222-6.406-.332C2839.62,1586.025,2839.65,1588.154,2839.684,1590.337Z" transform="translate(-2822.123 -1471.323)" fill="#a3d2e5"/><path d="M2787.429,968.084q-.338.152-.694.3a42.62,42.62,0,0,1-4.271,1.552c.4,2.158.771,4.116,1.1,5.805q.077.389.154.773a35.866,35.866,0,0,0,5.435-2.086Q2788.315,971.485,2787.429,968.084Z" transform="translate(-2770.46 -914.35)" fill="#a3d2e5"/><path d="M2838.594,1500.825c.024,2.266.053,4.724.087,7.319,1.868.111,4.036.227,6.44.335.1-2.607.221-5.132.344-7.542C2842.884,1500.908,2840.563,1500.868,2838.594,1500.825Z" transform="translate(-2821.22 -1396.127)" fill="#a3d2e5"/><path d="M2840.795,1664.753c1.691.072,3.631.148,5.767.22q.014-.834.029-1.679.054-2.955.137-5.853c-2.276-.106-4.313-.218-6.067-.324C2840.7,1659.612,2840.745,1662.171,2840.795,1664.753Z" transform="translate(-2823.089 -1537.468)" fill="#a3d2e5"/><path d="M2909,1666.643q-.016.851-.029,1.688c2.03.066,4.225.127,6.543.177.025-2.5.062-4.991.107-7.454-2.316-.072-4.488-.156-6.485-.246Q2909.051,1663.692,2909,1666.643Z" transform="translate(-2884.861 -1540.806)" fill="#a3d2e5"/><path d="M2842.353,1751.051c1.582.137,3.424.285,5.484.432q.035-3.687.1-7.688c-2.126-.071-4.058-.146-5.744-.218C2842.241,1746.062,2842.294,1748.566,2842.353,1751.051Z" transform="translate(-2824.474 -1615.656)" fill="#a3d2e5"/><path d="M2907.336,1840.042c2.031.132,4.249.261,6.607.376q.01-3.14.029-6.693c-2.365-.122-4.577-.259-6.595-.4C2907.356,1835.672,2907.343,1837.915,2907.336,1840.042Z" transform="translate(-2883.386 -1696.82)" fill="#a3d2e5"/><path d="M2907.826,1753.789c2.016.14,4.227.277,6.593.4q.016-2.963.04-6.212.006-.861.014-1.722c-2.32-.05-4.517-.112-6.548-.177C2907.882,1748.749,2907.85,1751.324,2907.826,1753.789Z" transform="translate(-2883.829 -1617.918)" fill="#a3d2e5"/><path d="M2913.782,1502.057c-.123,2.417-.24,4.949-.345,7.564,1.99.086,4.133.167,6.392.233.069-2.662.145-5.261.226-7.766h-.092C2917.791,1502.088,2915.718,1502.076,2913.782,1502.057Z" transform="translate(-2888.903 -1397.241)" fill="#a3d2e5"/><path d="M2824.253,1119.065c-.576-1.591-1.216-3.445-1.906-5.575-.268.191-.549.385-.846.583a40.933,40.933,0,0,1-4.873,2.761c.714,2.776,1.418,5.2,2.073,7.265,1.545-1.213,2.853-2.37,3.936-3.408Q2823.516,1119.849,2824.253,1119.065Z" transform="translate(-2801.356 -1045.846)" fill="#a3d2e5"/><path d="M2910.887,1594.1c2,.09,4.165.175,6.479.246.041-2.151.089-4.279.141-6.37-2.263-.066-4.408-.146-6.4-.233C2911.024,1589.816,2910.95,1591.94,2910.887,1594.1Z" transform="translate(-2886.597 -1474.729)" fill="#a3d2e5"/><path d="M2802.426,1041.057a36.356,36.356,0,0,1-5.489,2.082c.564,2.754,1.145,5.273,1.723,7.56a39.1,39.1,0,0,0,5.672-3.358Q2803.426,1044.511,2802.426,1041.057Z" transform="translate(-2783.548 -980.342)" fill="#a3d2e5"/><path d="M2844.213,1835.139c1.532.123,3.3.254,5.243.384.007-2.128.02-4.371.041-6.718-2.049-.145-3.884-.292-5.463-.429C2844.089,1830.659,2844.149,1832.922,2844.213,1835.139Z" transform="translate(-2826.14 -1692.344)" fill="#a3d2e5"/><path d="M2848.741,1185.354c-.281-.592-1.268-2.748-2.7-6.631q-.658.685-1.419,1.418a53.452,53.452,0,0,1-4.168,3.594,76.572,76.572,0,0,0,3.053,8.117A29.614,29.614,0,0,0,2848.741,1185.354Z" transform="translate(-2822.906 -1104.838)" fill="#a3d2e5"/><path d="M2851.322,1906.114c-1.937-.129-3.694-.26-5.222-.382.076,2.56.158,5.053.248,7.434,1.447.116,3.117.237,4.979.351C2851.317,1911.256,2851.314,1908.779,2851.322,1906.114Z" transform="translate(-2828.007 -1762.3)" fill="#a3d2e5"/><path d="M2845.408,1324.941c-2.505-.031-4.215-.068-4.671-.078-.723.663-1.44,1.266-2.13,1.807q-.621.488-1.234.93c0,.549.013,2.438.035,5.3,2.1.038,4.625.076,7.452.1C2845.052,1329.935,2845.241,1327.215,2845.408,1324.941Z" transform="translate(-2820.117 -1236.998)" fill="#a3d2e5"/><path d="M2845.2,1415.59c-2.808-.026-5.321-.064-7.407-.1.017,2.092.04,4.645.07,7.53,1.978.043,4.313.084,6.909.112C2844.912,1420.455,2845.057,1417.927,2845.2,1415.59Z" transform="translate(-2820.497 -1318.954)" fill="#a3d2e5"/><path d="M2734.329,418.427h2.113l.06-.634h-2.085c.181-1.312.35-2.553.505-3.708l1.912.151q.03-.328.058-.631l-1.885-.149c.169-1.267.321-2.422.454-3.447l-.625-.108c-.135,1.039-.29,2.214-.462,3.5l-3.478-.273c.273-1.45.51-2.725.707-3.791l-.625-.108c-.2,1.081-.44,2.376-.719,3.85l-2.328-.181-.148.624,2.357.183c-.237,1.252-.5,2.62-.78,4.084h-2.59l-.151.634h2.619c-.291,1.5-.6,3.1-.934,4.772l-2.746-.313-.148.621,2.77.316c-.385,1.94-.794,3.971-1.222,6.059l-2.982-.365-.148.62,3,.367c-.391,1.9-.8,3.852-1.216,5.819l-3.156-.462-.148.619,3.172.465c-.516,2.419-1.05,4.862-1.594,7.283l-3.421-.081-.152.63,3.43.081c-.46,2.035-.927,4.053-1.4,6.024l-3.4-.446q-.075.31-.15.619l3.4.446c-.446,1.858-.9,3.672-1.344,5.418q-.119.462-.238.917l-3.362-.433-.151.619,3.351.432q-.824,3.12-1.648,5.912c-1.258-.3-2.307-.569-3.1-.779-.054.205-.109.41-.163.612.79.21,1.833.477,3.083.775q-.742,2.5-1.467,4.726c-1.181-.5-2.117-.946-2.813-1.3-.063.208-.125.412-.187.614.708.359,1.64.8,2.8,1.29-.654,1.995-1.29,3.821-1.895,5.482-1.077-.6-1.962-1.14-2.649-1.575q-.113.308-.225.606c.7.439,1.584.972,2.654,1.57-.767,2.079-1.482,3.883-2.118,5.41a32.514,32.514,0,0,1-2.361-2.6c-.1.222-.206.436-.306.643a33.36,33.36,0,0,0,2.4,2.6c-1.138,2.689-1.991,4.426-2.391,5.21a33.42,33.42,0,0,1-2.155-4.048c-.156.223-.3.418-.435.59a34.091,34.091,0,0,0,2.074,3.833c-.713.075-1.439.141-2.173.2-.085-1.959-.149-3.245-.172-3.7a6.551,6.551,0,0,1-.6.635c.032.658.082,1.714.143,3.112-2.464.183-5,.286-7.4.337-.022-1.255-.04-2.259-.052-2.979l-.634.022c.013.719.031,1.72.053,2.97-2.038.036-3.969.036-5.67.019.061-1.186.113-2.147.152-2.855l-.635,0c-.039.71-.09,1.667-.151,2.843-2.6-.033-4.579-.1-5.459-.141a24.144,24.144,0,0,0,1.9-4.436c-.15-.217-.3-.451-.45-.706a23.333,23.333,0,0,1-1.946,4.729c-.428-.938-1.348-3.056-2.593-6.465,1.019-1.092,1.836-2.074,2.472-2.9q-.128-.35-.257-.715c-.614.814-1.426,1.814-2.458,2.939-.562-1.564-1.184-3.377-1.852-5.446a25.365,25.365,0,0,0,2.754-2.337q-.1-.347-.207-.7a23.987,23.987,0,0,1-2.755,2.389q-.888-2.786-1.867-6.173a26.692,26.692,0,0,0,3.058-1.8l-.178-.66a26.022,26.022,0,0,1-3.061,1.821q-.837-2.94-1.719-6.33a34.757,34.757,0,0,0,3.142-1.665l-.17-.647a34.3,34.3,0,0,1-3.136,1.676l-.144-.561c-.471-1.851-.964-3.859-1.47-5.976l3.282-.687-.164-.613-3.265.683c-.473-1.991-.957-4.074-1.444-6.212l3.119-.52-.157-.616-3.1.517c-.464-2.04-.93-4.125-1.394-6.225l2.966-.461-.15-.618-2.953.459c-.456-2.066-.908-4.143-1.352-6.2l2.8-.582-.144-.617-2.79.58c-.479-2.226-.948-4.424-1.4-6.557l2.727-.383q-.071-.312-.141-.62l-2.717.382c-.421-1.994-.825-3.925-1.208-5.763l2.616-.471-.137-.619-2.609.47c-.381-1.836-.74-3.571-1.069-5.174l2.581-.316-.135-.622-2.574.315c-.445-2.168-.831-4.071-1.146-5.624-.2.026-.411.057-.628.091.313,1.548.7,3.446,1.143,5.61l-2.857.35c-.357-2.145-.662-3.975-.9-5.394q-.3.086-.612.185c.232,1.4.53,3.195.879,5.287l-2.5.307c.017.209.036.421.054.632l2.552-.313c.276,1.654.581,3.478.909,5.434-1.023.181-2,.354-2.913.513.022.209.045.421.068.632.938-.163,1.937-.34,2.95-.519.3,1.787.618,3.676.949,5.636l-3.255.458c.025.209.051.419.077.629l3.284-.462c.377,2.233.771,4.552,1.173,6.914l-3.531.734.084.63,3.553-.738c.338,1.981.682,3.988,1.028,6l-3.774.587q.044.313.089.627l3.792-.589c.366,2.124.733,4.245,1.1,6.332l-3.97.661c.03.209.061.418.091.627l3.988-.664c.389,2.225.773,4.407,1.146,6.511l-4.147.868.093.628,4.165-.872c.482,2.707.946,5.274,1.378,7.618-1.346.4-2.809.756-4.385,1.057q.047.314.093.628c1.6-.3,3.072-.664,4.408-1.052.4,2.135.763,4.072,1.092,5.746q.082.417.165.826a44.421,44.421,0,0,1-4.7,1.036l.092.627a45.575,45.575,0,0,0,4.732-1.037c.573,2.794,1.164,5.349,1.751,7.666a52.622,52.622,0,0,1-5.219,2.118l.091.638a54.11,54.11,0,0,0,5.289-2.128c.732,2.837,1.454,5.3,2.124,7.4a61.044,61.044,0,0,1-6.118,4.115c.021.157.042.315.063.472.01.07.018.14.028.21a61.9,61.9,0,0,0,6.234-4.157,73.891,73.891,0,0,0,3.1,8.161c-.68.62-1.354,1.185-2,1.7a42.121,42.121,0,0,1-6.33,4.095q.027.343.052.687a43.456,43.456,0,0,0,4.79-2.894c0,.841.015,2.52.033,4.838-2.117-.04-3.734-.079-4.692-.1q.022.317.042.635c.969.025,2.571.064,4.655.1.017,2.091.039,4.642.07,7.527-1.79-.041-3.255-.082-4.313-.115q.014.318.028.635c1.061.033,2.516.074,4.292.114.024,2.259.052,4.709.086,7.3-1.644-.1-3.029-.194-4.108-.271q.011.319.021.637c1.082.077,2.462.171,4.1.27.027,2.049.058,4.178.093,6.361-1.615-.1-2.961-.195-4-.272q.01.319.019.637c1.039.077,2.38.17,3.987.27.04,2.5.084,5.061.134,7.648-1.538-.068-2.847-.131-3.882-.184q.011.319.022.636c1.038.053,2.343.116,3.873.183.049,2.476.1,4.971.16,7.447-1.533-.136-2.789-.258-3.723-.353q.017.322.035.64c.94.1,2.189.217,3.7.35.055,2.283.115,4.548.179,6.767-1.339-.109-2.48-.21-3.388-.293q.03.323.062.642c.906.083,2.031.181,3.344.289.075,2.559.157,5.052.247,7.433-.93-.077-1.754-.15-2.466-.217.05.221.1.439.153.651.684.063,1.466.132,2.337.2.07,1.83.145,3.59.224,5.262a3.258,3.258,0,0,0,.656.465c-.087-1.793-.168-3.693-.244-5.675,1.444.115,3.107.235,4.958.348.011,2.5.03,4.719.051,6.627q.316.058.635.11c-.021-1.923-.041-4.169-.052-6.7,2,.118,4.21.227,6.587.314,0,2.623,0,4.922.011,6.915l.634.009c-.007-1.988-.011-4.283-.011-6.9,2.542.087,5.27.148,8.138.167,0,2.42-.011,4.632-.03,6.58l.633-.022c.019-1.944.029-4.147.03-6.555l1.165,0c1.909,0,3.877-.021,5.888-.065-.032,2.545-.057,4.651-.075,6.371l.634-.02c.018-1.72.042-3.823.075-6.365,3.009-.073,6.112-.2,9.27-.4-.012,2.038-.036,4.045-.075,6.008q.327-.086.637-.182c.037-1.918.06-3.877.072-5.865,2.117-.138,4.257-.308,6.407-.514.007.256.014.509.021.764a13.719,13.719,0,0,0,.589-1.581c-.065-2.154-.142-4.336-.228-6.529.4-.033.805-.07,1.206-.106q.015-.317.027-.638c-.418.038-.836.076-1.258.11-.087-2.149-.182-4.306-.285-6.455q.809-.049,1.617-.1,0-.317.005-.635-.826.056-1.653.106c-.137-2.832-.286-5.647-.442-8.406q1.293-.079,2.563-.172.024-.315.044-.639-1.309.1-2.643.178c-.141-2.467-.286-4.886-.433-7.231q1.614-.079,3.239-.176,0-.316-.007-.634-1.641.1-3.272.178c-.144-2.278-.29-4.482-.433-6.586q1.756-.119,3.49-.266-.015-.316-.031-.633-1.74.148-3.5.268c-.208-3.03-.41-5.844-.6-8.362q1.8-.143,3.552-.31-.025-.317-.05-.632-1.744.168-3.55.311c-.216-2.9-.41-5.374-.564-7.307q1.781-.12,3.468-.262-.031-.319-.062-.631-1.68.142-3.457.261c-.121-1.5-.214-2.618-.27-3.273,1.132.794,2.35,1.572,3.657,2.322q-.04-.4-.079-.781a45.1,45.1,0,0,1-8.658-6.561c.34-.712,1.478-3.174,3.041-7.368a54.889,54.889,0,0,0,5.9,3.36c.052-.2.105-.41.161-.627a53.415,53.415,0,0,1-5.834-3.347c.757-2.059,1.6-4.5,2.5-7.332,1.634.711,3.432,1.433,5.384,2.138l.141-.623c-1.935-.7-3.715-1.417-5.333-2.122q.936-2.98,1.929-6.508c1.514.431,3.175.85,4.981,1.236l.125-.621c-1.791-.383-3.437-.8-4.936-1.225q.744-2.686,1.5-5.682c1.457.271,3,.535,4.6.776l.112-.624c-1.588-.239-3.118-.5-4.562-.768q.374-1.508.747-3.091c.26-1.107.519-2.252.775-3.428l4.163.536q.048-.313.1-.627l-4.125-.531c.439-2.041.87-4.172,1.292-6.357l3.745.491.084-.628-3.709-.487c.422-2.206.834-4.465,1.233-6.74l3.384.08q.039-.316.077-.632l-3.35-.079c.381-2.185.75-4.382,1.1-6.56l2.969.439q.036-.316.071-.63l-2.938-.435c.328-2.027.644-4.036.946-6l2.659.325.067-.63-2.63-.322c.322-2.109.628-4.165.914-6.135l2.352.271.063-.631-2.324-.268C2733.839,421.92,2734.094,420.118,2734.329,418.427Zm-3.552-4.668,3.512.276c-.157,1.17-.328,2.428-.512,3.758h-3.77C2730.286,416.348,2730.543,415,2730.777,413.76Zm-24,75.151c.075,1.747.163,3.948.254,6.509-2.5.079-5.062.129-7.565.158-.041-2.458-.078-4.6-.108-6.329C2701.77,489.2,2704.307,489.094,2706.779,488.91Zm-15.319,55.642q.016-2.976.04-6.239.006-.857.014-1.714c2.512.052,5.16.091,7.891.108.029,2.766.054,5.5.076,8.159C2696.67,544.787,2693.981,544.678,2691.46,544.552Zm8.026.948c.018,2.29.032,4.522.044,6.671-2.816-.07-5.537-.173-8.1-.294q.01-3.138.029-6.691C2693.981,545.312,2696.672,545.421,2699.486,545.5Zm-.087-9.426c-2.727-.018-5.37-.056-7.878-.108.025-2.5.062-4.987.107-7.449,2.421.072,4.994.129,7.688.163C2699.345,531.148,2699.373,533.622,2699.4,536.074Zm-.091-8.027c-2.686-.034-5.253-.091-7.668-.163.041-2.152.089-4.28.141-6.371,2.373.066,4.867.117,7.446.143C2699.254,523.767,2699.281,525.9,2699.307,528.047Zm-.09-7.024c-2.57-.026-5.056-.077-7.421-.143.069-2.669.145-5.274.226-7.785,2.273,0,4.648-.019,7.084-.052C2699.144,515.631,2699.181,518.3,2699.217,521.022Zm-.12-8.613c-2.425.034-4.79.049-7.054.052.086-2.634.178-5.159.27-7.542h.039c2.141,0,4.365-.009,6.632-.031C2699.021,507.276,2699.059,509.8,2699.1,512.41Zm-6.084-23.13c.7.007,1.432.011,2.2.011,1.116,0,2.3-.009,3.516-.031.03,1.732.067,3.868.107,6.323-2.123.021-4.192.028-6.127.026C2692.82,493.143,2692.925,491.007,2693.013,489.28Zm-.335,6.963h.795c1.715,0,3.524-.008,5.372-.026.04,2.418.084,5.124.129,8.039-2.268.022-4.494.031-6.636.031C2692.453,501.355,2692.569,498.652,2692.678,496.243Zm-5.952-7.12c.752.032,2.842.112,5.653.149-.088,1.73-.193,3.868-.307,6.336-2.182-.005-4.175-.022-5.862-.041C2686.462,492.185,2686.657,489.907,2686.726,489.123Zm5.317,7.118c-.109,2.41-.225,5.114-.34,8.044-2.131,0-4.173-.013-6.088-.029.192-3.067.381-5.787.548-8.057C2687.853,496.22,2689.853,496.237,2692.043,496.242Zm-6.468-.682c-1.837-.023-3.25-.049-4.059-.065a30.7,30.7,0,0,0,4.492-5.413C2685.91,491.235,2685.758,493.111,2685.575,495.559Zm-21.757-80.436,2.881-.353c.331,1.612.691,3.359,1.075,5.208l-3.053.545C2664.4,418.582,2664.093,416.769,2663.818,415.124Zm1.009,6.026,3.077-.549c.381,1.831.784,3.754,1.2,5.74l-3.327.468C2665.447,424.84,2665.128,422.943,2664.827,421.149Zm1.058,6.283,3.353-.472c.453,2.145.925,4.358,1.407,6.6l-3.594.747C2666.652,431.959,2666.26,429.653,2665.885,427.433Zm1.273,7.5,3.62-.752c.442,2.046.892,4.112,1.345,6.168l-3.932.611C2667.844,438.94,2667.5,436.922,2667.158,434.931Zm1.14,6.652,3.962-.616c.464,2.1.931,4.189,1.4,6.232l-4.261.71C2669.031,445.823,2668.664,443.7,2668.3,441.582Zm1.205,6.95,4.293-.715c.49,2.146.975,4.238,1.45,6.238l-4.6.963C2670.273,452.922,2669.89,450.748,2669.5,448.532Zm1.253,7.109,4.637-.97c.508,2.127,1,4.144,1.476,6,.058.227.115.451.173.675a42.248,42.248,0,0,1-4.918,1.857C2671.695,460.876,2671.235,458.328,2670.756,455.642Zm2.588,14c-.332-1.689-.7-3.647-1.1-5.805a42.665,42.665,0,0,0,4.271-1.552c.239-.1.469-.2.694-.3q.883,3.4,1.727,6.349a35.857,35.857,0,0,1-5.435,2.086Q2673.421,470.034,2673.344,469.645Zm.281,1.4a36.349,36.349,0,0,0,5.489-2.082q1,3.456,1.907,6.284a39.127,39.127,0,0,1-5.672,3.358C2674.771,476.319,2674.19,473.8,2673.626,471.046Zm1.884,8.191a40.892,40.892,0,0,0,4.873-2.761c.3-.2.578-.392.846-.583.689,2.13,1.33,3.984,1.905,5.575q-.74.782-1.615,1.626c-1.083,1.039-2.391,2.2-3.936,3.408C2676.928,484.435,2676.224,482.014,2675.51,479.237Zm2.28,7.908a53.511,53.511,0,0,0,4.169-3.594q.762-.731,1.419-1.418c1.427,3.883,2.415,6.039,2.7,6.631a29.625,29.625,0,0,1-5.23,6.5A76.519,76.519,0,0,1,2677.789,487.146Zm-.295,11.706q.612-.443,1.233-.93c.69-.542,1.407-1.145,2.13-1.807.455.01,2.165.047,4.671.078-.167,2.273-.356,4.993-.548,8.059-2.827-.026-5.355-.064-7.451-.1C2677.507,501.29,2677.5,499.4,2677.494,498.852Zm.04,5.932c2.086.038,4.6.075,7.407.1-.144,2.338-.289,4.866-.428,7.54-2.6-.028-4.931-.069-6.91-.112C2677.574,509.428,2677.551,506.876,2677.534,504.784Zm1.042,54.332c-.09-2.381-.172-4.874-.248-7.434,1.529.122,3.285.253,5.222.382-.007,2.665,0,5.142,0,7.4C2681.694,559.352,2680.023,559.231,2678.577,559.115Zm4.977-7.687c-1.948-.13-3.711-.261-5.243-.384-.064-2.217-.124-4.48-.179-6.763,1.579.136,3.415.284,5.463.429C2683.573,547.058,2683.561,549.3,2683.554,551.429Zm.047-7.353c-2.06-.146-3.9-.295-5.484-.432-.059-2.485-.112-4.989-.161-7.475,1.686.072,3.618.147,5.744.218Q2683.635,540.383,2683.6,544.076Zm.138-10q-.016.846-.029,1.679c-2.136-.072-4.076-.147-5.767-.22-.05-2.582-.094-5.141-.134-7.636,1.753.106,3.79.218,6.067.324Q2683.794,531.116,2683.739,534.075Zm.155-6.486c-2.29-.107-4.336-.219-6.095-.326-.034-2.182-.065-4.312-.092-6.362,1.861.11,4.017.225,6.406.332C2684.031,523.307,2683.957,525.431,2683.894,527.589Zm-6.2-7.323c-.034-2.595-.063-5.053-.087-7.319,1.969.043,4.29.083,6.871.111-.123,2.411-.24,4.936-.344,7.543C2681.734,520.493,2679.566,520.377,2677.7,520.266Zm13.081,39.554c-2.379-.087-4.588-.2-6.589-.315-.009-2.259-.012-4.735,0-7.4,2.031.132,4.25.261,6.607.376Q2690.78,556.489,2690.779,559.82Zm.014-7.973c-2.357-.115-4.576-.244-6.607-.376.007-2.126.02-4.369.041-6.715,2.017.14,4.229.276,6.595.4Q2690.8,548.707,2690.794,551.847Zm.072-13.539q-.023,3.251-.04,6.212c-2.366-.122-4.576-.259-6.592-.4q.035-3.7.1-7.712c2.031.066,4.229.127,6.548.177Q2690.872,537.447,2690.866,538.308Zm.021-2.356c-2.318-.05-4.514-.112-6.543-.177q.014-.839.029-1.688.053-2.946.136-5.835c2,.09,4.169.175,6.485.246C2690.948,530.961,2690.912,533.453,2690.887,535.952Zm.119-8.088c-2.314-.072-4.483-.156-6.479-.246.063-2.159.137-4.282.218-6.356,1.993.087,4.139.167,6.4.233C2691.094,523.585,2691.046,525.713,2691.005,527.865Zm.157-7c-2.259-.066-4.4-.146-6.392-.233.1-2.615.222-5.147.345-7.564,1.936.019,4.009.031,6.181.031h.092C2691.307,515.6,2691.231,518.2,2691.163,520.862Zm.246-8.4c-2.2,0-4.3-.011-6.261-.031.138-2.675.283-5.2.428-7.541,1.919.017,3.967.027,6.1.029C2691.587,507.3,2691.5,509.828,2691.409,512.462Zm0,47.38q0-3.33.012-7.331c2.567.121,5.29.223,8.107.293.012,2.541.019,4.957.019,7.205C2696.682,559.991,2693.955,559.93,2691.413,559.842Zm8.065-63.632c2.507-.029,5.076-.078,7.577-.158.084,2.413.171,5.125.25,8.064-2.578.063-5.162.106-7.7.133C2699.562,501.335,2699.518,498.628,2699.478,496.21Zm.139,8.673c2.538-.027,5.125-.07,7.705-.133.062,2.362.12,4.864.169,7.47-2.617.083-5.22.142-7.761.18C2699.692,509.789,2699.654,507.269,2699.617,504.883Zm.123,8.15c2.542-.038,5.145-.1,7.763-.18.048,2.632.086,5.364.11,8.162-2.639.033-5.239.035-7.762.013C2699.815,518.3,2699.777,515.626,2699.74,513.033Zm7.5,46.918c-2.425.053-4.785.071-7.061.061,0-2.246-.007-4.658-.019-7.193,2.337.054,4.736.085,7.161.085h.014C2707.3,555.545,2707.271,557.886,2707.244,559.952Zm.1-7.681c-2.434,0-4.841-.031-7.187-.085-.011-2.148-.025-4.38-.044-6.669,2.37.062,4.822.1,7.329.111Q2707.393,549.218,2707.349,552.271Zm.214-13.966c-.038,2.372-.073,4.6-.106,6.689-2.513-.009-4.97-.049-7.344-.111-.021-2.664-.047-5.4-.075-8.172q1.282.007,2.585.007c1.637,0,3.3-.009,4.964-.027Q2707.577,537.5,2707.563,538.305Zm.032-2.248c-2.559.028-5.093.033-7.564.02-.026-2.45-.054-4.923-.083-7.39q2.4.027,4.911.028,1.377,0,2.785-.009C2707.641,531.142,2707.626,533.6,2707.6,536.058Zm-7.655-8c-.026-2.143-.053-4.28-.081-6.392q1.627.014,3.293.014c1.471,0,2.963-.009,4.466-.028.017,2.112.026,4.259.026,6.425C2704.994,528.091,2702.418,528.082,2699.941,528.054Zm7.47-39.192c.855-.069,1.7-.148,2.525-.238.326.5.68,1.022,1.064,1.557a41.128,41.128,0,0,0,4.03,4.771l-.205.014c0,.009,0,.034,0,.072-2.217.157-4.649.274-7.163.359C2707.575,492.825,2707.486,490.615,2707.411,488.862Zm.278,7.17c2.522-.086,4.96-.2,7.184-.361.084,1.26.272,4.143.5,8.172-2.435.109-4.931.193-7.438.258C2707.859,501.16,2707.773,498.446,2707.688,496.032Zm.4,48.964c.032-2.089.068-4.311.106-6.68q.013-.816.024-1.632c2.857-.036,5.741-.1,8.6-.2.081,2.769.15,5.578.2,8.394C2714,544.964,2711.011,545,2708.091,545Zm8.943.511c.041,2.2.071,4.393.091,6.577-3.039.122-6.108.179-9.142.186q.044-3.054.1-6.641h.537C2711.374,545.63,2714.191,545.592,2717.034,545.507Zm-8.8-9.457c.031-2.457.046-4.914.049-7.349,2.694-.022,5.461-.071,8.277-.154.088,2.383.171,4.824.245,7.3C2713.953,535.95,2711.078,536.015,2708.229,536.05Zm.049-7.982c0-2.167-.009-4.316-.026-6.429,2.648-.038,5.331-.109,8.015-.219.091,2.1.179,4.269.263,6.494C2713.724,528,2710.964,528.046,2708.278,528.068Zm-.031-7.062c-.025-2.8-.063-5.538-.111-8.174,2.575-.086,5.159-.2,7.71-.338.131,2.578.264,5.361.393,8.293C2713.564,520.9,2710.887,520.968,2708.247,521.007Zm-.122-8.807c-.049-2.6-.107-5.1-.169-7.466,2.514-.065,5.017-.15,7.458-.259.125,2.176.261,4.661.4,7.388C2713.271,512,2710.693,512.114,2708.125,512.2Zm9.019,47.339c-3.156.2-6.258.325-9.265.4.027-2.063.058-4.4.1-7.034,3.038-.007,6.112-.064,9.156-.186C2717.148,555.014,2717.153,557.294,2717.143,559.539Zm7.02-.553c-2.144.205-4.276.374-6.386.512.01-2.241,0-4.516-.014-6.807,2.08-.09,4.142-.211,6.168-.368C2724.019,554.562,2724.1,556.789,2724.163,558.986Zm-.257-7.3c-2.018.157-4.074.277-6.148.367-.02-2.183-.05-4.378-.09-6.571,1.977-.064,3.965-.151,5.953-.264C2723.723,547.376,2723.819,549.538,2723.906,551.691Zm-.316-7.1c-1.982.113-3.964.2-5.935.264-.054-2.818-.123-5.628-.2-8.4,1.92-.073,3.823-.164,5.7-.274C2723.3,538.943,2723.453,541.758,2723.59,544.591Zm-.477-9.038c-1.868.109-3.767.2-5.68.272-.074-2.475-.156-4.915-.244-7.3q2.72-.085,5.491-.214C2722.826,530.661,2722.972,533.083,2723.113,535.552Zm-.906-14.443c.143,2.1.288,4.3.432,6.573q-2.759.129-5.475.213c-.084-2.228-.172-4.4-.264-6.5C2718.675,521.317,2720.447,521.223,2722.207,521.109Zm-.639-8.987c.187,2.516.389,5.327.6,8.355-1.755.114-3.522.208-5.291.285-.129-2.936-.262-5.722-.394-8.3C2718.2,512.361,2719.9,512.249,2721.568,512.121Zm-.047-.631c-1.665.127-3.361.239-5.073.337-.14-2.724-.276-5.206-.4-7.381,1.674-.078,3.315-.168,4.909-.27C2721.11,506.11,2721.3,508.59,2721.521,511.49Zm-.93-11.744c.035.41.148,1.74.314,3.8-1.589.1-3.226.192-4.895.269-.234-4.04-.422-6.929-.506-8.189l.187-.014A44.735,44.735,0,0,0,2720.591,499.746Zm-4.881-5.008a40.592,40.592,0,0,1-4.178-4.9q-.579-.8-1.068-1.563c.279-.53,1.192-2.318,2.487-5.359.154.146.312.294.476.444a45.3,45.3,0,0,0,5.26,4.123C2717.228,491.409,2716.135,493.833,2715.71,494.738Zm3.206-7.875a44.266,44.266,0,0,1-5.7-4.588c.654-1.562,1.394-3.42,2.191-5.575,1.622.888,3.617,1.9,5.965,2.939C2720.494,482.42,2719.661,484.829,2718.916,486.863Zm2.652-7.832c-2.344-1.042-4.328-2.05-5.936-2.933.613-1.679,1.258-3.529,1.921-5.55,1.6.65,3.572,1.363,5.919,2.055Q2722.5,476.085,2721.568,479.031Zm2.074-7.038a62.162,62.162,0,0,1-5.892-2.048q.737-2.272,1.5-4.824c1.674.392,3.667.826,5.877,1.248Q2724.381,469.335,2723.642,471.994Zm2.39-9.357q-.376,1.6-.754,3.119c-2.2-.419-4.184-.851-5.851-1.241q.829-2.822,1.664-5.976l5.7.734C2726.541,460.426,2726.288,461.55,2726.032,462.637Zm.9-3.986-5.674-.731q.109-.418.218-.841c.455-1.77.91-3.609,1.363-5.493l5.387.707C2727.8,454.479,2727.367,456.61,2726.927,458.651Zm1.413-6.982-5.359-.7c.476-1.993.948-4.033,1.412-6.092l5.169.122C2729.167,447.25,2728.759,449.485,2728.341,451.669Zm1.333-7.3-5.138-.122c.538-2.4,1.066-4.814,1.576-7.206l4.68.69C2730.432,439.932,2730.059,442.156,2729.673,444.366Zm1.219-7.264-4.649-.685c.42-1.973.827-3.926,1.219-5.835l4.373.535C2731.535,433.077,2731.22,435.08,2730.893,437.1Zm1.04-6.612-4.341-.531c.428-2.09.837-4.122,1.222-6.063l4.033.463C2732.56,426.328,2732.254,428.382,2731.932,430.49Zm1-6.758-4-.46c.335-1.7.653-3.319.947-4.845h3.8C2733.457,420.1,2733.206,421.874,2732.937,423.732Z" transform="translate(-2660.237 -408.249)" fill="#eed5d6"/></g><path d="M2924.844,830.479s-4.087-1.533-4.558-4.519a49.912,49.912,0,0,1-.314-6.641c-.118-1.611-1.572-3.1-.511-5.777s1.926-4.716,2.594-6.562,3.144-3.694,6.406-3.419,5.462-1.965,9.353-.432,3.969,5.227,4.794,6.6,2.869,3.223,2.908,5.855-.9,4.166-.59,6.327a8.6,8.6,0,0,1-5.109,8.685C2935.3,832.641,2924.844,830.479,2924.844,830.479Z" transform="translate(-309.79 -516.602)" fill="#77302e" fill-rule="evenodd"/><path d="M2994.236,1186.226l1.433,2.474s-2.113,5.586-5,8.037c-.992-3.42-2.374-6.929-2.374-6.929l-3.131,7.161a31.917,31.917,0,0,1-4.7-7.829,26.189,26.189,0,0,1,1.778-2.938Z" transform="translate(-365.308 -863.521)" fill="#fff" fill-rule="evenodd"/><path d="M2949.718,900.926s-.521,7.862,2.3,13.567c2.375,4.8,9.1,7.755,13.76,3.114,4.307-4.29,4.512-10.96,4.569-16.677s-2.814-7.641-4.868-7.516-3.715,2.183-5.823,2.12-3.819-1.545-6.183-.868S2949.77,897.525,2949.718,900.926Z" transform="translate(-337.467 -598.735)" fill="#ffc4ad" fill-rule="evenodd"/><path d="M3010.422,1137.733a12.044,12.044,0,0,0,.618,3.834c-4.082,1.6-10.013,1.337-11.992-.023.817-3.211.273-4.724.273-4.724Z" transform="translate(-382.112 -818.862)" fill="#ffc4ad" fill-rule="evenodd"/><path d="M2999.5,1146.7s5.669,3.7,10.927-.339c.043.962.108,1.671.108,1.671s-2.16,4.259-11.482,2.14A30.4,30.4,0,0,0,2999.5,1146.7Z" transform="translate(-382.112 -827.494)" fill="#efa087" fill-rule="evenodd"/><path d="M3012.016,1063.3s6.879-.556,9.414-1.147C3019.448,1065.948,3015.507,1066.363,3012.016,1063.3Z" transform="translate(-393.84 -751.338)" fill="#fff" fill-rule="evenodd"/><g transform="translate(2607.93 428.473)"><path d="M2917.282,2296.219a.231.231,0,0,1-.069-.01l-12.137-3.674a.238.238,0,0,1,.138-.455l12.136,3.674a.238.238,0,0,1-.069.465Z" transform="translate(-2904.908 -2292.069)" fill="#5067a0"/></g><g transform="translate(2626.636 427.342)"><path d="M3100.689,2285.528a.237.237,0,0,1-.089-.458l11.912-4.806a.238.238,0,0,1,.177.441l-11.912,4.806A.244.244,0,0,1,3100.689,2285.528Z" transform="translate(-3100.451 -2280.247)" fill="#5067a0"/></g><g transform="translate(2636.205 428.473)"><path d="M3200.718,2293.816a.238.238,0,0,1-.046-.471l6.386-1.271a.238.238,0,1,1,.093.466l-6.386,1.272A.237.237,0,0,1,3200.718,2293.816Z" transform="translate(-3200.481 -2292.068)" fill="#5067a0"/></g><g transform="translate(2622.882 407.753)"><path d="M3061.852,2099.992a.238.238,0,0,1-.238-.234l-.406-24.042a.238.238,0,0,1,.234-.241h0a.237.237,0,0,1,.237.233l.407,24.041a.238.238,0,0,1-.234.242Z" transform="translate(-3061.208 -2075.475)" fill="#5067a0"/></g><g transform="translate(2597.541 536.045)"><path d="M2804.445,3417.641a44.153,44.153,0,0,1-7.943-.612.238.238,0,1,1,.1-.466,50.69,50.69,0,0,0,13.024.381.238.238,0,1,1,.04.474C2807.755,3417.58,2806,3417.641,2804.445,3417.641Z" transform="translate(-2796.312 -3416.558)" fill="#5067a0"/></g><g transform="translate(2640.185 535.275)"><path d="M3242.32,3409.661a.238.238,0,0,1-.008-.475c.043,0,4.346-.152,10.239-.675a.238.238,0,1,1,.042.474c-5.906.524-10.222.675-10.265.676Z" transform="translate(-3242.082 -3408.51)" fill="#5067a0"/></g></g></g></g></svg>