<svg xmlns="http://www.w3.org/2000/svg" xmlns:xlink="http://www.w3.org/1999/xlink" width="156" height="156" viewBox="0 0 156 156"><defs><clipPath id="a"><circle cx="78" cy="78" r="78" transform="translate(232 3793)" fill="#f7f3e5"/></clipPath></defs><g transform="translate(-232 -3793)"><circle cx="78" cy="78" r="78" transform="translate(232 3793)" fill="#f7f3e5"/><g clip-path="url(#a)"><g transform="translate(-52.953 3424.966)"><path d="M1584.178,1261.1l3.218-2.4s8.407,2.254,14.428,7.044,7.785,11.328,5.6,22.746a128.462,128.462,0,0,1-4.256,17.23l-6.921,15.984.734,12.456h-44.543l-3.659-18.476s1.8-54.162,2.4-54.587,7.352-5.719,7.871-5.719,8.563.986,8.563.986Z" transform="translate(-1184.754 -811.164)" fill="#8e8fa1"/><path d="M516.967,1449.118s-3.425.822-5.449,6.271,1.241,15.206,2.88,20.629c4.826,6.461,13.623,27.091,13.623,27.091l-5.683,11.937h45.852l-1.856-12.815-13.739-51.85-31.035-4.256Z" transform="translate(-200.502 -992.046)" fill="#feefec"/><path d="M1036.387,2028.9l1.55,1.6s5.6,9.381-.775,15.53-26.776,8.8-26.776,8.8l-4.1,12.871h-9.653l3.633-15.658s6.124-14.547,6.124-14.859,10.483-5.294,10.483-5.294Z" transform="translate(-661.147 -1544.69)" fill="#fdc442"/><path d="M1126.137,1401.207a14.033,14.033,0,0,0,1.317,1.816l7.35,1.479s.26,7.551,1.194,15.024a52.692,52.692,0,0,0,2.335,11.132s11.9-3.426,22.413-3.7c-1.409-5.194-3.418-14.181-3.418-14.181s-1.479-11.628-1.557-17.037-9.03-2.3-9.03-2.3-14.36-.771-15.432-.887a12.093,12.093,0,0,0-2.979,0C1128.135,1392.669,1126.137,1401.207,1126.137,1401.207Z" transform="translate(-783.956 -941.158)" fill="#cb4252"/><path d="M1838.071,407.138s4.048,1.946,4.048,6.306-2.8,6.461-3.036,8.252,1.168,3.568-1.4,7.195-5.527,3.7-5.527,3.7l-19.324-7.24a5.368,5.368,0,0,1-2.395-3.425,27.707,27.707,0,0,1-.156-4.749s-3.659-3.581-1.635-7.785,3.97-3.892,5.683-4.9,3.892-5.294,12.378-4.359S1838.071,407.138,1838.071,407.138Z" transform="translate(-1430.603)" fill="#b96b69"/><path d="M342.778,539.688s.781,8,3.226,12.3,5.337,5.526,5.493,11.715-2.647,7.124-2.647,7.124h-5.06l-20.552,2.024h-3.192l-5.683,3.97a12.228,12.228,0,0,0-3.347,4.671c-8.641-1.479-13.857-8.33-10.587-16.114s9.264-10.276,12.456-14.479-1.012-7.863,1.479-15.647,15.258-9.887,21.252-10.587A8.986,8.986,0,0,1,346,534C345.892,539.766,342.778,539.688,342.778,539.688Z" transform="translate(0 -118.148)" fill="#483b4d"/><path d="M1226.209,761.5a6.744,6.744,0,0,1,4.671,4.47c1.4,3.86-.234,5.261,1.246,9.465s5.35,10.354,3.843,14.324-7.5,2.413-10.071,3.27-9.238,3.347-10.38-3.27c-1.064-4.749-2.647,0-2.647,0h-9.938s-3.737-1.87-2.647-7.124,3.425-9.38,3.581-12.961c-2.413-2.88-3.347-7.24-.311-9.575s4.827-1.323,6.306-2.1,2.413-3.27,9.186-2.335S1226.209,761.5,1226.209,761.5Z" transform="translate(-854.082 -337.079)" fill="#b96b69"/><path d="M792.97,1202.4s-.26,4.223,1.349,6.341,4.982,2.741,4.982,2.741l-4.567,2.7-14.947-2.7s2.387-.864,3.114-2.005-.675-9.309-.675-9.309Z" transform="translate(-455.512 -758.803)" fill="#f7b39f"/><path d="M1298.771,1705.593l-.479-2s3.555-8.62,4.749-10.057,7.181-5.314,7.98-5.257-6.1,5.476-6.1,5.476,7.086-4.282,7.218-3.477-5.774,4.482-5.774,4.482,6.808-3.221,6.678-2.636-5.675,3.976-5.675,3.976,5.267-2.33,5.241-1.8-4.189,2.679-4.691,3.288-3.857,8.306-6.773,9.949S1298.771,1705.593,1298.771,1705.593Z" transform="translate(-947.212 -1221.678)" fill="#ffc4ad"/><path d="M776.759,742.887s3.5,11.521,3.192,18.06-3.114,8.719-9.731,8.875-10.509-6.617-10.509-6.617a18.922,18.922,0,0,0,2.647-10.9,44.273,44.273,0,0,0-1.323-8.407S768.117,747.791,776.759,742.887Z" transform="translate(-436.472 -325.161)" fill="#ffc4ad"/><path d="M618.012,1411.711s-5.839.078-8.252,0-11.366-.856-14.791,0-6.539,3.737-6.928,5.994a23.526,23.526,0,0,0,6.461-3.659s11.327,6.461,22.673,6.851A34.51,34.51,0,0,0,618.012,1411.711Z" transform="translate(-273.677 -959.032)" fill="#ffc4ad"/><path d="M1447.389,1345.451h2.647a18.747,18.747,0,0,1,.1-3.192c.208-1.842-2.751,0-2.751,0A7.387,7.387,0,0,1,1447.389,1345.451Z" transform="translate(-1088.6 -892.772)" fill="#efa087"/><path d="M1089.263,1785.448s6.954,20.033,8.3,26.676-3.737,10.691-17.23,12.04-19.41,0-19.41,0l-6.565,1.762,5.319-7.678,4.463.623s15.673-.83,21.278-2.7,8.823-4.567,8.511-9.861S1090.716,1794.271,1089.263,1785.448Z" transform="translate(-715.891 -1313.827)" fill="#ffc4ad"/><path d="M1539.484,2152.88s-5.812,17.749-7.058,18.683-32.592.415-32.592.415l-1.246,5.4s29.478,11.314,39.754,8.511,17.23-29.063,17.23-29.063S1545.711,2153.5,1539.484,2152.88Z" transform="translate(-1137.153 -1662.264)" fill="#ffc4ad"/><path d="M1155.863,2527.717s-8.2,1.249-12.455-.466a13.75,13.75,0,0,1-6.228-4.932l20.553.01S1157.628,2525.744,1155.863,2527.717Z" transform="translate(-794.428 -2012.605)" fill="#ffc4ad"/><path d="M1870.682,630.284s-2.258,11.6-1.635,17.749,4.048,8.745,10.587,9.16,11.288-6.747,12.456-11.962c-2.88-4.9-1.479-15.647-1.479-15.647s-3.892-2.335-7.785-1.946S1875.2,631.3,1870.682,630.284Z" transform="translate(-1488.357 -215.828)" fill="#ffc4ad"/><path d="M1912.261,1115.233s-1.168,8.1,7.629,9.264,12.144-6.928,12.144-6.928-2.724-.778-3.036-3.192.72-7.824.72-7.824l-13.175,3.231s-.389,3.975-1.4,4.907A3.744,3.744,0,0,1,1912.261,1115.233Z" transform="translate(-1529.392 -670.028)" fill="#ffc4ad"/><path d="M829.38,1214.89a14.691,14.691,0,0,0,10.6,2.142c.042,1.178.06,1.412.06,1.412s-2.636,3.543-9.968,2.021C829.795,1217.784,829.38,1214.89,829.38,1214.89Z" transform="translate(-502.54 -772.764)" fill="#efa087"/><path d="M1288.059,959.837s-2.1,7.94-1.168,13.7,6.539,7.24,10.821,5.916c1.557-6.539,4.671-9.5,4.826-12.533s0-7.084,0-7.084a4.719,4.719,0,0,1-4.982.467C1294.481,959.02,1290.433,958.047,1288.059,959.837Z" transform="translate(-936.172 -529.967)" fill="#ffc4ad"/><path d="M1978.573,1110.677s8.481,2.661,13.288-4.125c-.331,1.976-.41,2.522-.41,2.522a11.031,11.031,0,0,1-7.186,4.523c-5.19,1.09-6.525.4-6.525.4A7.471,7.471,0,0,0,1978.573,1110.677Z" transform="translate(-1591.536 -670.028)" fill="#efa087"/><path d="M1084.5,2426.491l-5.926-.078a69.393,69.393,0,0,0-8.747,0c-3.371.337-6.641-.908-8.743-.986s-2.511,1.11-1.661,2.013a20.179,20.179,0,0,0-5.059,1.358l5.788-7.613,1.634.428s3.659,2.943,5.6,3.379,8.485.513,10.276.591,9.258.439,9.258.439Z" transform="translate(-715.891 -1916.699)" fill="#efa087"/><path d="M762.72,1771.921l-3.01-10.041s5.618,12.532,8.933,19.59,5.331,8.719,5.331,8.719-2.2,3.114-4.134,3.425S762.72,1771.921,762.72,1771.921Z" transform="translate(-436.472 -1291.477)" fill="#eed5d6"/><path d="M579.006,1958.483s4.671,16.5,8.615,23.147,10.38,10.691,16.607,4.359,14.815-25.62,14.815-25.62l-2.853-3.947s-13.415,16.385-15.283,17.734-3.321-.623-4.463-4.048-5.086-15.154-5.086-15.154S587.31,1954.124,579.006,1958.483Z" transform="translate(-265.109 -1474.51)" fill="#ffc4ad"/><path d="M1199.067,2076.07s2.853,8.693-6.437,12.482-25.418,3.881-25.418,3.881l-.893,1.478s2.8,1.155,13.285,0,16.437-2.3,19.247-6.241S1199.067,2076.07,1199.067,2076.07Z" transform="translate(-822.061 -1589.425)" fill="#eca624"/><path d="M1184.48,2108.363l-7.844,14.929h.918l7.711-15.308Z" transform="translate(-831.845 -1619.688)" fill="#eca624"/><path d="M1650.392,2068.55a23.351,23.351,0,0,1,1.066,7.907,9.954,9.954,0,0,1-2.284,6.332h.519a10.547,10.547,0,0,0,2.193-7.119,25.634,25.634,0,0,0-1.2-7.155Z" transform="translate(-1279.955 -1582.26)" fill="#eca624"/><path d="M1190.935,2609.989l-3.608,7.558h-3.967l2.809-8.819A15.514,15.514,0,0,0,1190.935,2609.989Z" transform="translate(-838.221 -2094.547)" fill="#eca624"/><path d="M1039.882,2544.8s1.864-1.405,5.289-.393a6.885,6.885,0,0,1,4.437,3.347l.74-2.024s-3.634-2.046-4.658-3.553c-1.725-.028-5.059,1.358-5.059,1.358l-.567.484Z" transform="translate(-702.16 -2031.434)" fill="#eca624"/><path d="M1682.286,1782.093l3.737-20.213s-12.222,34.667-12.767,35.367-16.4,1.573-16.4,1.573a51.447,51.447,0,0,1-7.68,2.456c10.3.059,24.755.227,26.053-.5S1682.286,1782.093,1682.286,1782.093Z" transform="translate(-1279.955 -1291.477)" fill="#79798c"/><path d="M1293.791,1625.324l6.428.8-3.855.623,1.008,1.349-3.467-.309Z" transform="translate(-942.943 -1161.981)" fill="#b43345"/><path d="M942.422,1086.726a29.394,29.394,0,0,0,7.992.326C948.961,1090.67,945.328,1090.359,942.422,1086.726Z" transform="translate(-609.738 -651.225)" fill="#fff"/><path d="M1318.889,1216.939a26.232,26.232,0,0,0,7.006.4C1323.2,1220.5,1320.135,1220.9,1318.889,1216.939Z" transform="translate(-966.744 -774.707)" fill="#fff"/><path d="M1942.317,987.339a84.283,84.283,0,0,0,10.38.986C1948.7,991.906,1943.2,992.166,1942.317,987.339Z" transform="translate(-1557.943 -556.976)" fill="#fff"/></g></g></g></svg>