<svg xmlns="http://www.w3.org/2000/svg" xmlns:xlink="http://www.w3.org/1999/xlink" width="156" height="156" viewBox="0 0 156 156"><defs><clipPath id="a"><circle cx="78" cy="78" r="78" transform="translate(232 3793)" fill="#f7f3e5"/></clipPath></defs><g transform="translate(-232 -3793)"><circle cx="78" cy="78" r="78" transform="translate(232 3793)" fill="#f7f3e5"/><g clip-path="url(#a)"><g transform="translate(-624.398 2776.006)"><g transform="translate(817.154 1034.786)"><g transform="translate(110.158 59.34)"><path d="M1449.179,1368.951a9.944,9.944,0,0,0-16.6,9.356h0s2.079,11.526,16.077,26.39,21.7,18.5,21.7,18.5h0a7.834,7.834,0,0,0,9.112-12.742h0s-5.349-4.253-14.589-15.513a85.778,85.778,0,0,1-13.271-22.272h0A9.9,9.9,0,0,0,1449.179,1368.951Z" transform="translate(-1432.34 -1366.172)" fill="#f26346"/></g><path d="M1228.653,1781.2a94.467,94.467,0,0,1,3.451,25.9,184.315,184.315,0,0,1-23.911,3.355s-10.462-.2-11.146,0-21.361-2.378-21.361-2.378l.438-26.1Z" transform="translate(-1111.485 -1647.542)" fill="#cda295"/><g transform="translate(23.676 54.46)"><path d="M990.018,1340.7a9.944,9.944,0,0,1,14.911,11.859h0s-3.873,11.053-20.041,23.521-24.347,14.839-24.347,14.839h0a7.834,7.834,0,0,1-6.986-14.021v0s5.954-3.355,16.855-13.016a85.78,85.78,0,0,0,16.621-19.9h0A9.9,9.9,0,0,1,990.018,1340.7Z" transform="translate(-949.372 -1338.921)" fill="#f26346"/></g><g transform="translate(82.131 145.862)"><path d="M1280.376,1865.131s16.7-.868,24.583-4.274a11.433,11.433,0,0,0,6.934-11.494l-36.074,9.814Z" transform="translate(-1275.819 -1849.362)" fill="#cda295"/></g><g transform="translate(56.94 139.998)"><path d="M1143.8,1826.945a13.31,13.31,0,0,1,26.076,5.316h0c-4.7,29.836-16.545,62.587-16.545,62.587a9.214,9.214,0,0,1-18.081-3.5h0l8.291-62.864h0A13.4,13.4,0,0,1,1143.8,1826.945Z" transform="translate(-1135.137 -1816.613)" fill="#cda295"/></g><g transform="translate(93.36 138.616)"><path d="M1338.536,1822.571a13.311,13.311,0,0,1,26.576-1.395h0c2.936,30.06-.318,64.736-.318,64.736a9.214,9.214,0,0,1-18.381,1.145h0l-7.742-62.934h0A13.438,13.438,0,0,1,1338.536,1822.571Z" transform="translate(-1338.531 -1808.893)" fill="#cda295"/></g><g transform="translate(65.947 115.648)"><path d="M1185.661,1700.387l1.636,9.41c1.245,7.158,7.449,12.058,13.858,10.944l26.6-4.625c6.426-1.117,10.614-7.854,9.342-15.028l-1.668-9.4c-1.266-7.135-7.458-12.006-13.849-10.895l-26.568,4.619C1188.6,1686.522,1184.416,1693.229,1185.661,1700.387Z" transform="translate(-1185.442 -1680.631)" fill="#cda295"/></g><g transform="translate(88.053 30.204)"><path d="M1314.416,1203.5a6.143,6.143,0,0,1,6.729,5.494l1.38,13.647h-.019a6.142,6.142,0,0,1-12.25.78l-1.334-13.193A6.143,6.143,0,0,1,1314.416,1203.5Z" transform="translate(-1308.891 -1203.464)" fill="#ffc4ad"/></g><g transform="translate(62.396 48.099)"><path d="M1170.512,1312.038c3.027-2.638,10.023-4.057,15.161-6.333a26.806,26.806,0,0,1,10.169-2.3h0a26.791,26.791,0,0,1,9.719,1.56c6.452,2.307,18.248,4.328,20.755,12.2,3.743,11.761-2.27,33.723-2.677,49.259-.032,1.224-.051,2.4-.065,3.523l.384,32.521s-5.362,3.668-25.056,3.8c-22.764.147-33.293-4.139-33.293-4.139s4.016-22.422,4.482-40.576c.078-3.011-.748-6.318-1.206-10.031C1166.086,1328.834,1165.758,1316.181,1170.512,1312.038Z" transform="translate(-1165.609 -1303.399)" fill="#feefec"/></g><g transform="translate(95.623 206.872)"><g transform="translate(0.359 0.326)"><path d="M1368.484,2191.932a9.4,9.4,0,0,0-9.929,7.394c-.03.035-.06.07-.089.105-.553,4.748-3.5,8.191-4.978,24.8s2.7,43.116,2.7,43.116c-.256,2.726,1.162,4.884,3.888,5.14a4.215,4.215,0,0,0,4.973-3.974l11.6-65.729a7.643,7.643,0,0,0,.182-1.14A9.3,9.3,0,0,0,1368.484,2191.932Z" transform="translate(-1353.172 -2191.893)" fill="#ffc4ad"/></g><path d="M1365.961,2261.515l9.037-60.223a9.213,9.213,0,1,0-18.09-3.46c-.03.036-.061.07-.089.106-.552,4.748-3.5,8.191-4.978,24.8-1.06,11.936-.81,28.831.318,37.479Z" transform="translate(-1351.166 -2190.073)" fill="#cda295"/><g transform="translate(0.546 65.743)"><path d="M1354.663,2561.621l13.8,1.3.645-4.3-14.894-1.4S1354.192,2560.87,1354.663,2561.621Z" transform="translate(-1354.217 -2557.22)" fill="#be8b7e"/></g></g><g transform="translate(98.07 279.35)"><g transform="translate(0)"><path d="M1384.133,2606.567c-3.635-2.675-7.445-3.741-9.507-7.291a4.41,4.41,0,0,0-4.323-4.434c-2.734-.139-4.554,1.709-4.579,3.648a7.068,7.068,0,0,0,.013.854h0s-2.109,7.973.119,8.086l16.215.825S1386.566,2608.357,1384.133,2606.567Z" transform="translate(-1364.833 -2594.835)" fill="#ffc4ad"/></g><g transform="translate(0 4.459)"><path d="M1384.133,2627.011c-3.519-2.589-7.2-3.671-9.3-6.957a1.405,1.405,0,0,0-1.828.029c-1.076.756.195,2.48-.276,2.834s-2.937-.847-4.387-1.637a11.8,11.8,0,0,0-2.72-1.02c-.411,1.71-1.664,7.521.235,7.617l16.215.824S1386.566,2628.8,1384.133,2627.011Z" transform="translate(-1364.832 -2619.739)" fill="#cb4252"/></g></g><g transform="translate(39.84 207.384)"><g transform="translate(0.963 0.327)"><path d="M1072.8,2195.156a9.4,9.4,0,0,0-11.233,5.2c-.036.029-.073.056-.109.085-1.514,4.534-5.107,7.3-9.955,23.254s-6.2,42.753-6.2,42.753c-.809,2.615.136,5.018,2.752,5.828a4.215,4.215,0,0,0,5.682-2.871l24.825-61.957a7.662,7.662,0,0,0,.411-1.079A9.3,9.3,0,0,0,1072.8,2195.156Z" transform="translate(-1045.023 -2194.758)" fill="#ffc4ad"/></g><g transform="translate(0.072)"><path d="M1053.292,2263.045l21.187-57.093a9.318,9.318,0,0,0,.412-1.079,9.214,9.214,0,0,0-17.409-6.015c-.036.029-.073.056-.109.085-1.514,4.534-5.107,7.3-9.955,23.254-3.483,11.465-6.7,28.054-7.369,36.75Z" transform="translate(-1040.049 -2192.932)" fill="#cda295"/></g><g transform="translate(0 61.616)"><path d="M1039.717,2541.43l13.244,4.1,1.512-4.076-14.291-4.421S1039.409,2540.6,1039.717,2541.43Z" transform="translate(-1039.644 -2537.03)" fill="#be8b7e"/></g></g><g transform="translate(38.798 276.688)"><g transform="translate(0)"><path d="M1052.638,2594.236c-3.068-3.311-6.61-5.074-7.968-8.948a4.41,4.41,0,0,0-3.413-5.167c-2.659-.65-4.794.823-5.183,2.723a7.15,7.15,0,0,0-.148.842h0s-3.57,7.435-1.4,7.965l15.771,3.857S1054.692,2596.451,1052.638,2594.236Z" transform="translate(-1033.825 -2579.965)" fill="#ffc4ad"/></g><g transform="translate(0 4.16)"><path d="M1052.638,2613.305c-2.97-3.2-6.383-4.959-7.83-8.582a1.405,1.405,0,0,0-1.8-.315c-1.2.54-.275,2.473-.8,2.731s-2.725-1.384-4-2.433a11.781,11.781,0,0,0-2.48-1.513c-.725,1.6-3.048,7.073-1.2,7.526l15.771,3.857S1054.691,2615.521,1052.638,2613.305Z" transform="translate(-1033.825 -2603.194)" fill="#cb4252"/></g></g><g transform="translate(109.262 51.852)"><path d="M1446.806,1336.754a28.7,28.7,0,0,0-8.223-7.508,56.866,56.866,0,0,0-11.251-4.887s5.69,6.815,9.726,9.161A32.9,32.9,0,0,0,1446.806,1336.754Z" transform="translate(-1427.332 -1324.359)" fill="#f26346"/></g><g transform="translate(55.485 48.901)"><path d="M1158.362,1307.875s-11.377,1.989-18.249,5.566-13.1,15.987-13.1,15.987Z" transform="translate(-1127.015 -1307.875)" fill="#f26346"/></g><g transform="translate(145.084 85.841)"><g transform="translate(0.641)"><path d="M1667.81,1516.65s-6.109,5.667-30.406,14.208h0c-4.76,1.406-7.361,5.864-6.135,10.014s5.37,5.916,10.129,4.51c.492-.146,1.013.047,1.462-.161h0s11.332-6.022,30.656-25.376c1.247-1.176,2.137-2.331,1.669-3.916-.7-2.368-1.873-1.922-4.589-1.12A5.589,5.589,0,0,0,1667.81,1516.65Z" transform="translate(-1630.967 -1514.168)" fill="#ffc4ad"/></g><g transform="translate(0 13.658)"><path d="M1634.067,1593.344c-4.76,1.406-7.624,5.911-6.4,10.061s6.079,6.374,10.839,4.968a10.314,10.314,0,0,0,1.412-.534v0a92.842,92.842,0,0,0,8.392-4.273,57.7,57.7,0,0,0-6.543-13.123Q1638.122,1591.91,1634.067,1593.344Z" transform="translate(-1627.385 -1590.445)" fill="#f26346"/></g></g><g transform="translate(88.016 47.767)"><path d="M1323.765,1303.7s-2.056,7.014-9.24,6.476-5.714-7.795-5.714-7.795A20.369,20.369,0,0,1,1323.765,1303.7Z" transform="translate(-1308.687 -1301.545)" fill="#ffc4ad"/></g><g transform="translate(87.834 35.43)"><path d="M1307.666,1232.645s7.353,8.291,10.587,1.324a13.127,13.127,0,0,0,2.24,1.136l.44,5.475a11.461,11.461,0,0,1-12.16,1.63C1308.705,1241.976,1307.666,1232.645,1307.666,1232.645Z" transform="translate(-1307.666 -1232.645)" fill="#efa087"/></g><g transform="translate(83.285 8.113)"><path d="M1285.321,1104.446s3.9,10.437,12.776,10.479,10.264-9.018,8.655-17.711-4.341-16.223-10.952-17.014-13.318,2.869-13.524,10.5A30.592,30.592,0,0,0,1285.321,1104.446Z" transform="translate(-1282.266 -1080.094)" fill="#ffc4ad"/></g><g transform="translate(77.759 0)"><path d="M1274.433,1047.561s-.868,2.686-5.341,3.313-6.773-1.309-8.36,2.587,5.137,11.529.994,18.97c-4.913-3.2-6.1-8.362-6.56-10.587s-6.118-7.572-2.635-15.8,10.1-5.532,14.108-8.325,8.961-4.671,12.864-.483,4.5,12.8-.368,14.168C1277.751,1047.44,1274.873,1045.661,1274.433,1047.561Z" transform="translate(-1251.403 -1034.786)" fill="#483b4d"/></g><g transform="translate(96.483 32.724)"><path d="M1355.967,1218.951l8.646-1.418a3.933,3.933,0,0,1-3.686,3.852A4.871,4.871,0,0,1,1355.967,1218.951Z" transform="translate(-1355.967 -1217.533)" fill="#fff"/></g><g transform="translate(85.788 48.537)"><path d="M1296.451,1306.781s-2.085,7.868,6.926,9.111,12.216-8.008,12.216-8.008l-2.044-.652s-4.244,7.069-9.967,5.932-4.613-7.321-4.613-7.321l-1.683.364Z" transform="translate(-1296.242 -1305.843)" fill="#f26346"/></g><g transform="translate(102.526 50.578)"><path d="M1389.719,1319.816l23.748,13.924-1.979-5.3-10.906-8.469a57.621,57.621,0,0,0-8.251-2.735A9.142,9.142,0,0,0,1389.719,1319.816Z" transform="translate(-1389.719 -1317.241)" fill="#f26346"/></g><g transform="translate(62.598 49.156)"><path d="M1190.946,1312.867l-24.212,12.842,5.474-7.765,18.073-8.641Z" transform="translate(-1166.734 -1309.302)" fill="#f26346"/></g><path d="M1836.719,1475.191a72.4,72.4,0,0,1,3.25-7.06,3.146,3.146,0,0,1,2.484-1.055s2.568-3.521,3.548-3.408.614,1.3.614,1.3a3.2,3.2,0,0,1,1.58.4c.505.4.186,1.66.186,1.66s.915.1.906.938a2.754,2.754,0,0,1-.341,1.356,1.479,1.479,0,0,1,.788,1.14c.014.743-3.308,7.48-9.2,9.8A10.46,10.46,0,0,1,1836.719,1475.191Z" transform="translate(-1654.151 -1386.868)" fill="#ffc4ad"/><g transform="translate(3.837 64.987)"><path d="M846.235,1402.787s.579,2.627,22.063,21.725h0c4.295,3.48,5.455,9,2.9,12.531s-7.259,3.436-11.553-.044c-.444-.36-1.025-.4-1.406-.8h0s-5.673-5.28-18.719-32.793c-.865-1.7-1.381-3.23-.4-4.578,1.46-2.014,2.487-1.059,4.937.926A6.98,6.98,0,0,1,846.235,1402.787Z" transform="translate(-838.581 -1397.711)" fill="#ffc4ad"/><g transform="translate(12.659 20.605)"><path d="M926.771,1519.02c4.295,3.479,5.7,9.163,3.144,12.694s-8.114,3.572-12.408.093a12.844,12.844,0,0,1-1.237-1.147h0s-2.8-2.786-6.994-7.894a51.656,51.656,0,0,1,10.748-9.989Q923.188,1515.825,926.771,1519.02Z" transform="translate(-909.275 -1512.778)" fill="#f26346"/></g></g><path d="M828.645,1355.229a82.018,82.018,0,0,0-.97-8.361,3.872,3.872,0,0,0-2.138-2.13s-1.428-4.587-2.442-4.909-1.03,1-1.03,1a3.452,3.452,0,0,0-1.7-.306c-.631.166-.72,1.546-.72,1.546s-.946-.3-1.206.52a2.974,2.974,0,0,0-.1,1.481,1.347,1.347,0,0,0-1.153.771c-.253.723.892,8.8,6.019,13.677A9.411,9.411,0,0,0,828.645,1355.229Z" transform="translate(-817.154 -1285.165)" fill="#ffc4ad"/></g><g transform="translate(889.818 1087.956)"><path d="M1354.973,1875.483a4.693,4.693,0,1,0-8.294-4.27c-3.88,6.749-5.734,17.944-5.734,17.944a2.433,2.433,0,0,0,1.691,2.71,2.56,2.56,0,0,0,3.174-1.193h0C1348.648,1885.4,1353.945,1877.152,1354.973,1875.483Z" transform="translate(-1319.771 -1772.128)" fill="#ffc4ad"/><path d="M1559.051,1690.088a4.693,4.693,0,1,0-8.651,3.49c2.574,7.347,9.839,16.065,9.839,16.065a2.433,2.433,0,0,0,3.156.49,2.56,2.56,0,0,0,1.17-3.182h0C1562.426,1701.354,1559.643,1691.956,1559.051,1690.088Z" transform="translate(-1491.303 -1623.099)" fill="#ffc4ad"/><path d="M1365.938,1662.04s2.422,10.026,2.189,14.549-22.431,7.311-24.579,3.9-2.471-15.448-2.471-15.448.382-4.542,12.248-6.014S1365.938,1662.04,1365.938,1662.04Z" transform="translate(-1319.925 -1600.172)" fill="#7cbfe8"/><path d="M1332.4,1521.729s7.048.465,8.179,1.7c1.014,1.109,4.327,13.576,6.039,25.916a4.129,4.129,0,0,1-3.648,4.679l-16.634,1.768a4.124,4.124,0,0,1-4.529-3.591c-.5-4.007-1.332-10.206-2.235-14.781-1.444-7.32-2.285-9.85-1.756-11.144S1325.871,1521.424,1332.4,1521.729Z" transform="translate(-1300.699 -1487.69)" fill="#f26346"/><path d="M1316.866,1385.2s2.99,6.609,9.778,6.806c6.362.185,10.1-4,9.165-10.65s-4.534-14.348-12.25-14.464S1310.856,1375.98,1316.866,1385.2Z" transform="translate(-1297.861 -1360.592)" fill="#ffc4ad"/><path d="M1360.294,1473.078a3.923,3.923,0,0,0-3.487,4.316l.6,5.671a3.923,3.923,0,1,0,7.8-.829l-.6-5.671A3.923,3.923,0,0,0,1360.294,1473.078Z" transform="translate(-1332.82 -1447.747)" fill="#ffc4ad"/><path d="M1543.384,1399.17h0a46.1,46.1,0,0,1-10.1,12.013,3.61,3.61,0,0,0-.29.245,3.571,3.571,0,0,0,4.886,5.208,3.619,3.619,0,0,0,.432-.488,62.085,62.085,0,0,0,9.318-15.45,2.256,2.256,0,0,0,.2-.47l.005-.012h0a2.286,2.286,0,1,0-4.443-1.045Z" transform="translate(-1476.545 -1385.536)" fill="#ffc4ad"/><path d="M1597.454,1379.247a13.783,13.783,0,0,0-.933,2.264c-.122.375.142,1.557,1.714,2.163a2.307,2.307,0,0,0,2.558-.544s2.239-4.531,2.036-4.73-1.082.872-1.082.872,1.038-1.637.8-1.82-1.479,1.115-1.479,1.115,1.073-1.677.788-1.972-1.606,1.289-1.606,1.289.8-1.423.586-1.676-.858.525-1.292,1.136c-.223.314-.724,1.061-1.158,1.713-.09-.2.5-1.438.217-1.546S1598.1,1377.978,1597.454,1379.247Z" transform="translate(-1529.607 -1368.202)" fill="#ffc4ad"/><g transform="translate(35.367 24.925)"><path d="M1442.095,1471.454a3.585,3.585,0,0,0-.511.387,56.594,56.594,0,0,1-17.631,8.672,4.237,4.237,0,1,0,1.658,8.308h0a43.385,43.385,0,0,0,20.648-11.577l0-.006c.057-.047.114-.1.169-.148a3.571,3.571,0,0,0-4.328-5.636Z" transform="translate(-1420.462 -1470.917)" fill="#ffc4ad"/><path d="M1421.609,1526.534a4.235,4.235,0,0,0,4,1.239,31.44,31.44,0,0,0,4.116-1.187,23.188,23.188,0,0,0-2.28-8.221c-1.128.406-2.3.778-3.494,1.1a4.236,4.236,0,0,0-2.343,7.069Z" transform="translate(-1420.462 -1509.869)" fill="#f26346"/></g><path d="M1227.565,1334.681h0a46.109,46.109,0,0,0,3.552,15.29,3.57,3.57,0,1,1-6.733,2.143,62.089,62.089,0,0,1-1.293-18,2.275,2.275,0,0,1,.035-.51v-.013h0a2.286,2.286,0,1,1,4.433,1.084Z" transform="translate(-1222.95 -1331.72)" fill="#ffc4ad"/><g transform="translate(1.388 16.242)"><path d="M1237.33,1424.147a3.573,3.573,0,0,1,.28.577,56.6,56.6,0,0,0,11.777,15.728,4.237,4.237,0,1,1-5.248,6.651h0a43.384,43.384,0,0,1-13.147-19.686l.007,0c-.03-.068-.058-.137-.084-.208a3.57,3.57,0,0,1,6.414-3.059h0Z" transform="translate(-1230.703 -1422.423)" fill="#ffc4ad"/><path d="M1295.522,1518.708a4.234,4.234,0,0,1-4.128-.711,31.437,31.437,0,0,1-3.129-2.926,23.192,23.192,0,0,1,5.762-6.291c.822.874,1.693,1.736,2.615,2.566a4.236,4.236,0,0,1-1.12,7.363Z" transform="translate(-1277.957 -1493.316)" fill="#f26346"/></g><g transform="translate(22.488 71.028)"><path d="M1361.11,1738.109a6.318,6.318,0,0,0-.1-1.237c-.606-3.419-3.892-4.948-7.311-4.341-3.273.58-5.479,2.842-5.132,6.1.552,10.11,4.148,23.4,4.148,23.4a4.694,4.694,0,0,0,9.314-.938Z" transform="translate(-1348.535 -1731.681)" fill="#ffc4ad"/><path d="M1353.727,1728.476a6.288,6.288,0,0,0-5.154,6.851,126.678,126.678,0,0,0,2.524,19.077l11.415-1.213-1.4-18.384a6.29,6.29,0,0,0-7.384-6.331Z" transform="translate(-1348.537 -1728.379)" fill="#7cbfe8"/><path d="M1360.346,1856.133l11.416-1.213-.2-2.623-11.757,1.25Z" transform="translate(-1357.787 -1830.107)" fill="#b6e7ff"/></g><g transform="translate(34.423 63.432)"><path d="M1423.988,1691.027a6.349,6.349,0,0,0-1.2.313c-3.258,1.2-4.019,4.644-2.818,7.9,1.15,3.119,3.6,4.951,6.747,4.034,9.854-2.331,22.3-8.22,22.3-8.22a4.694,4.694,0,0,0-2.569-9Z" transform="translate(-1418.672 -1685.958)" fill="#ffc4ad"/><path d="M1415.577,1701.437a6.287,6.287,0,0,0,7.654,3.862,126.679,126.679,0,0,0,18.331-5.856l-3.212-11.021-17.847,4.628a6.29,6.29,0,0,0-4.926,8.388Z" transform="translate(-1415.188 -1687.981)" fill="#7cbfe8"/><path d="M1536.368,1699.443l-3.212-11.021-2.483.644,3.414,11.307Z" transform="translate(-1509.994 -1687.981)" fill="#b6e7ff"/></g><g transform="translate(19.013 115.342)"><path d="M1337.9,1984.484c-.233-1.21-2.5-2.79-2.07-4.882l0,0c.022-.042.046-.083.067-.126a2.546,2.546,0,1,0-4.62-2.141c-.02.044-.036.088-.053.132h-.007s-3.412,3.51-1.507,4.393l7.094,3.287S1338.137,1985.693,1337.9,1984.484Z" transform="translate(-1329.132 -1975.856)" fill="#ffc4ad"/><path d="M1337.9,1992.747c-.221-1.149-2.277-2.633-2.113-4.572a1.757,1.757,0,0,0-1.206-.078,2.45,2.45,0,0,1-2.379-.144c-.676-.461-.8-1.553-1.17-2.031-.679.748-2.96,3.439-1.325,4.2l7.095,3.287S1338.136,1993.957,1337.9,1992.747Z" transform="translate(-1329.131 -1984.119)" fill="#573961"/></g><g transform="translate(68.696 82.755)"><path d="M1616.57,1795.839c-1.158-.422-3.678.712-5.252-.732h0c-.025-.041-.047-.082-.074-.122a2.546,2.546,0,0,0-4.21,2.864c.027.04.057.076.086.113l0,.006s1.259,4.731,2.995,3.55l6.465-4.4S1617.728,1796.261,1616.57,1795.839Z" transform="translate(-1606.589 -1793.872)" fill="#ffc4ad"/><path d="M1619.305,1802.4c-1.1-.4-3.428.6-5.008-.536a1.757,1.757,0,0,0-.687.995,2.45,2.45,0,0,1-1.345,1.967c-.743.343-1.743-.114-2.344-.04.292.967,1.43,4.307,2.921,3.293l6.465-4.4S1620.463,1802.824,1619.305,1802.4Z" transform="translate(-1609.324 -1800.435)" fill="#573961"/></g><path d="M1310.462,1371.878s.877-2.656-1.452-6.492-4.065-5.572-3.517-9.363c3.289,1.69,7.445.229,9.546-2.238s5.563-1.157,5.563-1.157l1.259,1.974s2.45-4.973-1.843-8.49-8.861-2.1-11.19.5-7.4,5.389-8.313,10.094.93,7.692,3.334,9.409S1308.672,1372.067,1310.462,1371.878Z" transform="translate(-1286.43 -1341.811)" fill="#483b4d"/><path d="M1365.158,1499.069a10.728,10.728,0,0,1-4.258,0,10.567,10.567,0,0,1-3.661-1.354l-.079.343.454,4.276s5.476-.368,7.6-2.729C1365.188,1499.349,1365.158,1499.069,1365.158,1499.069Z" transform="translate(-1333.128 -1467.991)" fill="#efa087"/><path d="M1302.409,1515.64s2.639,2.086,4.56,2.415c.14,3.344-5.192,10.248-5.192,10.248l-4.762-6.331Z" transform="translate(-1283.752 -1482.706)" fill="#f26346"/><path d="M1331.689,1590.457l1.434,16.814s4.567,3.019,11.51,1.179,13.337-5.977,17.113-7.471c-2.923-4.965-6.8-18.688-6.8-18.688S1334.335,1582.83,1331.689,1590.457Z" transform="translate(-1312.218 -1537.422)" fill="#f26346"/><path d="M1418.821,1769.135l-10.041,2.814a30.564,30.564,0,0,1-.868-3.38c.137,0,9.729-1.918,9.729-1.918Z" transform="translate(-1374.781 -1688.77)" fill="#7cbfe8"/><g transform="translate(30.187 21.736)"><path d="M1395.794,1453.1s1.9,4.673.011,5.216-3.673-2.048-4.275-3.634C1394.064,1454.456,1395.426,1453.626,1395.794,1453.1Z" transform="translate(-1391.53 -1453.105)" fill="#cb4252" fill-rule="evenodd"/><path d="M1391.53,1454.688a23.75,23.75,0,0,0,4.264-1.583C1395.466,1454.393,1393.987,1455.775,1391.53,1454.688Z" transform="translate(-1391.53 -1453.105)" fill="#fff" fill-rule="evenodd"/></g><path d="M1404.067,1519.2a20.385,20.385,0,0,0,8.34-.832,34.5,34.5,0,0,0,2.28,8.221l-3.937,2.166-6.01-.88-2.6-4.754Z" transform="translate(-1370.056 -1484.944)" fill="#f26346"/></g></g></g></g></svg>