<svg xmlns="http://www.w3.org/2000/svg" xmlns:xlink="http://www.w3.org/1999/xlink" width="156" height="156" viewBox="0 0 156 156"><defs><clipPath id="a"><circle cx="78" cy="78" r="78" transform="translate(232 3793)" fill="#f7f3e5"/></clipPath></defs><g transform="translate(-232 -3793)"><circle cx="78" cy="78" r="78" transform="translate(232 3793)" fill="#f7f3e5"/><g clip-path="url(#a)"><g transform="translate(-1003.68 2827.763)"><g transform="translate(1274.084 985.785)"><path d="M1769.685,1767.77a77.346,77.346,0,0,1,2.029,18.095,20.582,20.582,0,0,1-17.045,5.811l-10.385,2.285-15.48-5.892.583-16.737Z" transform="translate(-1683.728 -1663.123)" fill="#89a2c6"/><g transform="translate(45.018 110.667)"><path d="M1749.324,1823.523c-.217-6.149-5.061-10.969-10.819-10.766-5.584.2-9.978,5.047-10.039,10.949h0a214.4,214.4,0,0,0,3.61,45.815,7.221,7.221,0,1,0,14.436.024h0l2.786-44.718h0A12.034,12.034,0,0,0,1749.324,1823.523Z" transform="translate(-1728.377 -1812.751)" fill="#89a2c6"/></g><g transform="translate(48.714 160.876)"><g transform="translate(0 0.413)"><path d="M1762.9,2191.039c3.827-.177,7.074,2.243,7.491,6,.022.029.045.057.066.086.256,3.738,2.438,6.542,2.976,19.6s-3.711,33.654-3.711,33.654c.1,2.143-1.091,3.78-3.234,3.879a3.3,3.3,0,0,1-3.746-3.3l-6.642-51.888a7.283,7.283,0,0,1-.1-.9C1755.818,2194.189,1758.917,2191.223,1762.9,2191.039Z" transform="translate(-1755.995 -2191.03)" fill="#eed5d6"/></g><path d="M1761.21,2246.134,1756.1,2196.4a7.221,7.221,0,1,1,14.291-2.037c.022.029.045.057.066.086.256,3.738,2.438,6.542,2.977,19.6.437,10.614-.661,26.132-1.7,31.6Z" transform="translate(-1755.994 -2187.942)" fill="#89a2c6"/></g><g transform="translate(47.345 219.089)"><path d="M1746.334,2630.963c2.872-2.064,5.868-2.866,7.514-5.631-.122-1.546,1.325-2.295,3.469-2.38s3.512.322,3.515,1.842a5.572,5.572,0,0,1-.017.669h0s1.583,6.267-.164,6.337l-12.715.5S1744.412,2632.345,1746.334,2630.963Z" transform="translate(-1745.76 -2622.942)" fill="#eed5d6"/><g transform="translate(0 2.458)"><path d="M1760.652,2647.711l-12.715.5s-3.525.04-1.6-1.342c2.84-2.042,5.8-2.85,7.458-5.541h0s.543-.225,1.822.729,3.683.484,4.365.28c.5-.151.811-.325,1.009-.211C1761.345,2643.8,1762.02,2647.656,1760.652,2647.711Z" transform="translate(-1745.76 -2641.311)" fill="#573961"/></g></g><g transform="translate(53.73 215.652)"><path d="M1804.464,2597.626a.191.191,0,0,0-.087-.365l-10.713.358a.192.192,0,1,0,.013.383l10.713-.358A.183.183,0,0,0,1804.464,2597.626Z" transform="translate(-1793.479 -2597.261)" fill="#abc1dd"/></g><g transform="translate(67.066 110.667)"><path d="M1914.08,1823.523c-.217-6.149-5.061-10.969-10.819-10.766-5.584.2-9.978,5.047-10.039,10.949h0a214.412,214.412,0,0,0,3.61,45.815,7.221,7.221,0,1,0,14.435.024h0l2.786-44.718h0A12,12,0,0,0,1914.08,1823.523Z" transform="translate(-1893.133 -1812.751)" fill="#89a2c6"/></g><g transform="translate(70.762 160.876)"><g transform="translate(0 0.413)"><path d="M1927.658,2191.039c3.827-.177,7.074,2.243,7.491,6,.022.029.045.057.066.086.256,3.738,2.438,6.542,2.977,19.6s-3.711,33.654-3.711,33.654c.1,2.143-1.091,3.78-3.234,3.879a3.3,3.3,0,0,1-3.746-3.3l-6.642-51.888a7.236,7.236,0,0,1-.1-.9C1920.574,2194.189,1923.674,2191.223,1927.658,2191.039Z" transform="translate(-1920.75 -2191.03)" fill="#eed5d6"/></g><path d="M1925.966,2246.134l-5.108-49.736a7.221,7.221,0,1,1,14.291-2.037c.022.029.045.057.066.086.256,3.738,2.438,6.542,2.976,19.6.437,10.614-.661,26.132-1.7,31.6Z" transform="translate(-1920.75 -2187.942)" fill="#89a2c6"/></g><g transform="translate(69.393 219.089)"><path d="M1911.09,2630.963c2.872-2.064,5.868-2.866,7.514-5.631-.122-1.546,1.325-2.295,3.469-2.38s3.512.322,3.515,1.842a5.572,5.572,0,0,1-.017.669h0s1.583,6.267-.164,6.337l-12.715.5S1909.167,2632.345,1911.09,2630.963Z" transform="translate(-1910.516 -2622.942)" fill="#eed5d6"/><g transform="translate(0 2.458)"><path d="M1925.407,2647.711l-12.715.5s-3.525.04-1.6-1.342c2.84-2.042,5.8-2.85,7.458-5.541h0s.543-.225,1.822.729,3.683.484,4.365.28c.5-.151.811-.325,1.009-.211C1926.1,2643.8,1926.776,2647.656,1925.407,2647.711Z" transform="translate(-1910.516 -2641.311)" fill="#573961"/></g></g><g transform="translate(75.779 215.652)"><path d="M1969.22,2597.626a.191.191,0,0,0-.087-.365l-10.713.358a.192.192,0,1,0,.013.383l10.713-.358A.184.184,0,0,0,1969.22,2597.626Z" transform="translate(-1958.235 -2597.261)" fill="#abc1dd"/></g><g transform="translate(55.575 19.568)"><path d="M1811.793,1132.015a4.814,4.814,0,0,0-4.523,5.088l.63,10.732h.015a4.813,4.813,0,0,0,9.576-.921l-.61-10.375A4.814,4.814,0,0,0,1811.793,1132.015Z" transform="translate(-1807.261 -1132.007)" fill="#ffc4ad"/></g><g transform="translate(38.944 33.618)"><path d="M1731.269,1245.194c-2.538-1.859-13.324-5.6-17.487-7.039a21.008,21.008,0,0,0-8.094-1.12h0a21,21,0,0,0-7.487,1.862c-4.885,2.229-13.332,6.26-14.768,12.577-2.039,8.972,3.426,24.567,5.124,36.487a155.581,155.581,0,0,1-.329,26.069s5.21,3.6,23.64,2.842,19.763-4.974,19.763-4.974l-1.281-31.5h0c.061-1.817.13-3.777.21-5.9C1731.242,1256.592,1735.256,1248.115,1731.269,1245.194Z" transform="translate(-1682.984 -1236.999)" fill="#573961"/></g><g transform="translate(11.155 42.653)"><path d="M1504.388,1306.283a7.794,7.794,0,0,1,12.395,8.326h0s-2.33,8.879-14.176,19.636-18.086,13.125-18.086,13.125h0a6.14,6.14,0,0,1-6.34-10.513h0s4.44-3,12.348-11.229a67.224,67.224,0,0,0,11.732-16.591h0A7.765,7.765,0,0,1,1504.388,1306.283Z" transform="translate(-1475.33 -1304.51)" fill="#573961"/></g><g transform="translate(0 35.822)"><path d="M1404.013,1259.083a16.467,16.467,0,0,1,2.456,5.387,3.6,3.6,0,0,1-1.376,4.077c-2.273,1.666-4.778-.737-4.778-.737s-8.149-9.441-8.042-9.877.726-.093.726-.093-1.24-1.5-.992-1.945,1.032-.238,1.032-.238-.685-.875-.4-1.223,1.526.495,1.526.495-.636-.8-.258-1.4,5.391,3.347,6.272,4.195c.263.253.741.813,1.282,1.473h0c1.254.3-1.337-3.079-.948-3.538S1402.293,1256.825,1404.013,1259.083Z" transform="translate(-1391.974 -1253.465)" fill="#ffc4ad"/></g><g transform="translate(6.994 45.059)"><g transform="translate(0.426)"><path d="M1454.608,1326.652s.846,11.793,8.131,27.822h0a6.141,6.141,0,1,1-11.269,4.773h0s-5.228-14.091-3.8-33.39a3.5,3.5,0,1,1,6.942.8Z" transform="translate(-1447.42 -1322.494)" fill="#ffc4ad"/></g><g transform="translate(0 5.921)"><path d="M1460.364,1393.681s-6.146-16.979-7.255-26.94c-4.83.424-8.863.575-8.863.575s-.387,18.573,4.467,30.257c1.964,6.078,7.449,4.511,9.018,3.751A5.806,5.806,0,0,0,1460.364,1393.681Z" transform="translate(-1444.239 -1366.741)" fill="#573961"/></g></g><g transform="translate(75.695 40.919)"><path d="M1957.944,1301.606a7.794,7.794,0,0,1,12.455-8.235h0s7.3,5.568,12.666,20.642,5.152,21.745,5.152,21.745h0a6.14,6.14,0,0,1-12.144,1.8h0s-1.056-5.251-5.61-15.719a67.233,67.233,0,0,0-10.8-17.214h0A7.763,7.763,0,0,1,1957.944,1301.606Z" transform="translate(-1957.61 -1291.559)" fill="#573961"/></g><g transform="translate(68.255 79.712)"><g transform="translate(0 0.349)"><path d="M1905.135,1601.783s11.024-4.274,24.2-15.947h0a6.141,6.141,0,1,1,7.873,9.369h0s-11.933,9.138-30.8,13.446a3.5,3.5,0,1,1-1.28-6.869Z" transform="translate(-1902.018 -1584.048)" fill="#ffc4ad"/></g><g transform="translate(4.433)"><path d="M1958.766,1582.958s-14.423,10.864-23.619,14.85c1.825,4.493,3.154,8.3,3.154,8.3s17.867-5.088,27.609-13.161c5.233-3.663,2.123-8.446.936-9.723A5.806,5.806,0,0,0,1958.766,1582.958Z" transform="translate(-1935.147 -1581.443)" fill="#573961"/></g></g><g transform="translate(55.495 96.833)"><path d="M1817.151,1709.378a16.462,16.462,0,0,1,5.788,1.186,3.568,3.568,0,0,1,2.464,3.5c-.007,2.8-3.423,3.409-3.423,3.409s-12.421,1.012-12.709.671.356-.638.356-.638-1.939.119-2.153-.343.42-.97.42-.97-1.11.038-1.222-.394,1.3-.936,1.3-.936-1.022.04-1.281-.616,5.886-2.371,7.09-2.581c.359-.063,1.093-.119,1.944-.166h0c.982-.834-3.269-.731-3.408-1.314S1814.316,1709.436,1817.151,1709.378Z" transform="translate(-1806.667 -1709.376)" fill="#ffc4ad"/></g><g transform="translate(54.161 31.747)"><path d="M1796.695,1226.789s.037,7.063,7.5,6.756,8.081-7.5,8.081-7.5a22.291,22.291,0,0,1-2.146-.9c-1.465-.676-1.889-1.074-1.951-2.131-1.74.669-9.526,2.035-9.526,2.035a1.163,1.163,0,0,1-.714,1.1C1797.14,1226.585,1796.695,1226.789,1796.695,1226.789Z" transform="translate(-1796.695 -1223.02)" fill="#ffc4ad"/></g><g transform="translate(32.305 39.17)"><path d="M1648.2,1278.49s-6.386,3.469-8.682,7.333-3.109,10.425-6.145,16.652C1643.379,1292.879,1648.2,1278.49,1648.2,1278.49Z" transform="translate(-1633.378 -1278.49)" fill="#573961"/></g><g transform="translate(54.152 34.403)"><path d="M1796.64,1243.976s-.556,7.453,7.333,7.479,8.248-8.221,8.248-8.221l-.957-.371a8.194,8.194,0,0,1-6.973,5.545c-5.605.652-6.774-4.873-6.774-4.873Z" transform="translate(-1796.631 -1242.862)" fill="#feefec"/></g><g transform="translate(46.845 8.633)"><path d="M1742.471,1050.3a19.561,19.561,0,0,0,1.592,12.86c3.354-7.394,2.754-12.576,2.754-12.576Z" transform="translate(-1742.024 -1050.296)" fill="#b96b69"/></g><g transform="translate(55.946 26.121)"><path d="M1810.033,1185.69a9.726,9.726,0,0,0,5.442-1.245,12.589,12.589,0,0,0,3.926-3.469l.077,1.3s-.251,7.485-9.364,6.828C1810.125,1187.557,1810.033,1185.69,1810.033,1185.69Z" transform="translate(-1810.033 -1180.976)" fill="#efa087"/></g><g transform="translate(48.382 4.99)"><path d="M1771.742,1039.538s-.26,8.728-6.837,11-9.891-4.1-10.89-10.958-.872-13.133,3.835-15.388,10.606-1.231,12.684,4.38A23.976,23.976,0,0,1,1771.742,1039.538Z" transform="translate(-1753.513 -1023.075)" fill="#ffc4ad"/></g><g transform="translate(52.416 24.295)"><path d="M1783.659,1168.537l7.521-1.2a5.514,5.514,0,0,1-3.918,2.919C1784.341,1170.843,1783.659,1168.537,1783.659,1168.537Z" transform="translate(-1783.659 -1167.335)" fill="#fff"/></g><g transform="translate(43.34 0)"><path d="M1734.545,998.214a7.526,7.526,0,0,0-6.216-2.054c-4.02.416-7.772,2.5-10.55-.128s-3.513-10.771,4.246-10.22c3.449.245,4.692,2.475,6.014,2.521s2.751-1.072,4.668-.39,2.49,2.34,3.331,2.859,2.211-.764,4.672,4.813-2.485,16.071-2.485,16.071-.438-4.25-.583-5.712S1734.891,1004.054,1734.545,998.214Z" transform="translate(-1715.837 -985.785)" fill="#b96b69"/></g></g><g transform="translate(1255.871 1011.547)"><path d="M1805.216,1436.55l2.741-5.5,3.319,1.444-2.121,6.379Z" transform="translate(-1731.701 -1397.227)" fill="#ffc4ad"/><path d="M1328.323,1768.714a90.929,90.929,0,0,1,6.483,20.191c-8.225,8.254-21.1,11.3-21.1,11.3l-18.073-8.523a66.456,66.456,0,0,1,2.6-17.024A209.27,209.27,0,0,1,1328.323,1768.714Z" transform="translate(-1290.309 -1689.702)" fill="#573961"/><g transform="translate(0 0)"><path d="M1279.3,1186.711s2.04,5.352,5.782,6.319,7.22,3.314,5.362,8.561-9.219,2.8-14.814,4.9-7.269,5.6-13.747,5.479-7.362-6.648-4.348-10.422c2.419-3.03,2.832-4.47,2.307-8.319s-.135-6.177,1.032-8.318,2.6-2.337,2.6-2.337,1.711-3.525,8.664-4.217S1282.734,1183.328,1279.3,1186.711Z" transform="translate(-1255.871 -1178.294)" fill="#cda295"/></g><g transform="translate(23.893 89.208)"><path d="M1454.816,1857.972a11.586,11.586,0,0,0,.2-2.14c.007-6.026-4.6-10.917-10.289-10.923s-10.307,4.873-10.314,10.9c0,.221.007.44.02.658h0c-.26,28.941,4.857,44.528,4.857,44.528h0c-.009.145-.016.29-.016.437a6.133,6.133,0,1,0,12.252.556h0Z" transform="translate(-1434.415 -1844.909)" fill="#eed5d6"/></g><g transform="translate(27.449 36.719)"><path d="M1468.843,1453.2a5.522,5.522,0,0,0-6.757,8.31,52.546,52.546,0,0,0,12.968,11.637,122.642,122.642,0,0,0,16.983,9.3,4.492,4.492,0,0,0,3.8-8.142,68.415,68.415,0,0,1-12.761-7.984,105.552,105.552,0,0,1-12.144-11.424h0A5.5,5.5,0,0,0,1468.843,1453.2Z" transform="translate(-1460.986 -1452.682)" fill="#f26346"/></g><g transform="translate(6.409 2.759)"><path d="M1308.084,1218.309s4.039,6.885,10.6,5.524,6.084-8.133,3.7-14.182-6.6-12.2-13.01-10.432S1301.4,1208.657,1308.084,1218.309Z" transform="translate(-1303.764 -1198.911)" fill="#ffc4ad"/></g><g transform="translate(13.464 20.484)"><path d="M1359.767,1331.391a3.72,3.72,0,0,0-3.256,4.133l1.048,8.827a3.72,3.72,0,1,0,7.388-.877l-1.048-8.827A3.72,3.72,0,0,0,1359.767,1331.391Z" transform="translate(-1356.485 -1331.365)" fill="#ffc4ad"/></g><g transform="translate(3.652 31.661)"><path d="M1299.621,1414.886a15.192,15.192,0,0,0-7.969,2.271c-3.012,1.842-7.979,4.992-8.394,5.984-.6,1.432,1.642,12.345,4.916,19s5.369,11.844,5.505,14.489,1.946,6.926,11.8,6.23,8.786-5.38,8.8-8.222a73.412,73.412,0,0,1,1.382-10.614c.359-1.462,3.622-4.866,2.231-9.611s-2.526-5.833-3.1-8.2-1.115-5.911-1.961-7.053-8.442-3.848-11.915-4.205C1300.484,1414.908,1300.05,1414.888,1299.621,1414.886Z" transform="translate(-1283.161 -1414.886)" fill="#f26346"/></g><g transform="translate(24.854 139.885)"><g transform="translate(1.136 0.88)"><path d="M1465.087,2235.984c.3-3.376-2.386-5.478-5.762-5.782-3.238-.292-5.547,1.8-6.046,4.97l-.367-.7a72.685,72.685,0,0,0-2.195,29.808,174.17,174.17,0,0,1,1.388,17.561,3.02,3.02,0,1,0,6.016.542c1.677-18.879,6.4-43.326,6.862-45.7q.014-.068.027-.137l.01-.052h0C1465.048,2236.324,1465.072,2236.156,1465.087,2235.984Z" transform="translate(-1450.083 -2230.175)" fill="#ffc4ad"/></g><path d="M1452.17,2223.624a6.137,6.137,0,0,0-6.612,5.152h0c-2.769,9.956-4.134,15.274-3.949,28.987.058,4.293.048,8.932.251,11.77l10.563.7c2.015-17.552,4.794-37.142,5.205-39.251q.014-.068.027-.137l.01-.052h0c.029-.167.053-.335.069-.507A6.138,6.138,0,0,0,1452.17,2223.624Z" transform="translate(-1441.591 -2223.599)" fill="#eed5d6"/><g transform="translate(0.138 43.084)"><path d="M1442.754,2548.4l10.563.7.339-2.916-11.032-.636Z" transform="translate(-1442.625 -2545.548)" fill="#ddbabd"/></g></g><g transform="translate(27.08 190.303)"><g transform="translate(0)"><path d="M1473.462,2610.391c-.786-1.452-7.388-2.308-8.313-6.932a3.02,3.02,0,1,0-6.038-.176,18.148,18.148,0,0,1-.448,3.008c-.392,1.686-1.223,4.691,1.433,4.769l9.794.285S1474.249,2611.843,1473.462,2610.391Z" transform="translate(-1458.225 -2600.35)" fill="#ffc4ad"/></g><g transform="translate(0 4.75)"><path d="M1473.462,2641.136c-.683-1.26-5.748-2.072-7.677-5.291-.49.193-1.2.572-1.079,1.116.18.82,1.386,1.32.855,1.6-.49.254-3.916.2-6.907-1.481-.4,1.693-1.193,4.653,1.442,4.729l9.794.285S1474.248,2642.588,1473.462,2641.136Z" transform="translate(-1458.225 -2635.846)" fill="#f26346"/></g></g><g transform="translate(5.354 89.208)"><path d="M1316.28,1857.972a11.6,11.6,0,0,0,.2-2.14c.007-6.026-4.6-10.917-10.289-10.923s-10.307,4.873-10.314,10.9c0,.221.007.44.02.658h0c-.26,28.941,4.857,44.528,4.857,44.528h0c-.009.145-.016.29-.016.437a6.133,6.133,0,1,0,12.252.556h0Z" transform="translate(-1295.879 -1844.909)" fill="#eed5d6"/></g><g transform="translate(6.314 139.885)"><g transform="translate(1.136 0.88)"><path d="M1326.551,2235.984c.3-3.376-2.386-5.478-5.762-5.782-3.238-.292-5.547,1.8-6.046,4.97l-.367-.7a72.683,72.683,0,0,0-2.195,29.808,174.215,174.215,0,0,1,1.388,17.561,3.02,3.02,0,1,0,6.016.542c1.677-18.879,6.4-43.326,6.862-45.7q.014-.068.027-.137l.01-.052h0C1326.512,2236.324,1326.536,2236.156,1326.551,2235.984Z" transform="translate(-1311.547 -2230.175)" fill="#ffc4ad"/></g><path d="M1313.634,2223.624a6.137,6.137,0,0,0-6.612,5.152h0c-2.769,9.956-4.134,15.274-3.949,28.987.058,4.293.048,8.932.251,11.77l10.563.7c2.015-17.552,4.794-37.142,5.205-39.251q.014-.068.027-.137l.01-.052h0c.029-.167.053-.335.069-.507A6.138,6.138,0,0,0,1313.634,2223.624Z" transform="translate(-1303.055 -2223.599)" fill="#eed5d6"/><g transform="translate(0.138 43.084)"><path d="M1304.218,2548.4l10.563.7.34-2.916-11.032-.636Z" transform="translate(-1304.089 -2545.548)" fill="#ddbabd"/></g></g><g transform="translate(8.54 190.303)"><g transform="translate(0)"><path d="M1334.926,2610.391c-.787-1.452-7.388-2.308-8.313-6.932a3.02,3.02,0,1,0-6.038-.176,18.148,18.148,0,0,1-.448,3.008c-.392,1.686-1.223,4.691,1.433,4.769l9.794.285S1335.713,2611.843,1334.926,2610.391Z" transform="translate(-1319.689 -2600.35)" fill="#ffc4ad"/></g><g transform="translate(0 4.75)"><path d="M1334.926,2641.136c-.683-1.26-5.748-2.072-7.677-5.291-.49.193-1.2.572-1.079,1.116.18.82,1.386,1.32.855,1.6-.49.254-3.916.2-6.907-1.481-.4,1.693-1.193,4.653,1.442,4.729l9.794.285S1335.712,2642.588,1334.926,2641.136Z" transform="translate(-1319.689 -2635.846)" fill="#f26346"/></g></g><g transform="translate(56.072 38.167)"><path d="M1676.839,1483.781a6.05,6.05,0,0,0-.6.614c-1.854,2.2-1.818,5.286.081,6.883s4.941,1.1,6.795-1.1h0c.065-.077.127-.156.187-.235a111.171,111.171,0,0,0,14.491-23.864,20.5,20.5,0,0,0-5.68-2.581A118.385,118.385,0,0,1,1676.839,1483.781Z" transform="translate(-1674.877 -1463.497)" fill="#f26346"/></g><g transform="translate(13.586 25.443)"><path d="M1357.39,1368.418a11.776,11.776,0,0,0,7.745,2.238l.068.462a9.778,9.778,0,0,1-7.266,1.912Z" transform="translate(-1357.39 -1368.418)" fill="#efa087"/></g><g transform="translate(18.373 19.178)"><path d="M1393.162,1324.108l5.751-2.506a3.1,3.1,0,0,1-1.95,3.515A3.3,3.3,0,0,1,1393.162,1324.108Z" transform="translate(-1393.162 -1321.602)" fill="#fff"/></g><g transform="translate(5.253 1.534)"><path d="M1298.562,1200.531s-.809,5.429,2.888,7.988,7.065,7.765,2.679,10.831a18.671,18.671,0,0,1-8.432-10.448c0-.2-.575-10.976-.575-10.976a10.251,10.251,0,0,1,8.854-8.017c7.708-1.121,9.006,4.358,9.006,4.358l.313,2.373a18.62,18.62,0,0,1-6.469,2.077,38.865,38.865,0,0,1-7.949.136A9.135,9.135,0,0,0,1298.562,1200.531Z" transform="translate(-1295.122 -1189.757)" fill="#cda295"/></g><g transform="translate(6.47 65.053)"><path d="M1332.537,1670.274a10.1,10.1,0,0,0,1.645,4.142c1.289,1.651,5.146,8.1,5.146,8.1a34.444,34.444,0,0,1-14.352,4.921c-8.138.77-20.756-2.625-20.756-2.625s3.45-8.659,4.251-12.335a55.271,55.271,0,0,0,.8-8.057C1309.347,1664.582,1332.537,1670.274,1332.537,1670.274Z" transform="translate(-1304.22 -1664.412)" fill="#f26346"/></g><g transform="translate(75.185 21.346)"><path d="M1819.563,1353.555s-1.767-7.134-1.86-8.16a16.712,16.712,0,0,1,1.659-5.86c.823-1.545,1.761-2.022,1.614-1.572a13.3,13.3,0,0,0-1.562,4.362c1.073-2.424,3.084-4.659,3.1-4.008s-1.756,3.806-1.756,3.806,2.306-3.48,2.46-2.861-1.3,3.452-1.3,3.452,1.924-2.964,1.967-2.275-1.417,2.988-1.711,3.674.448,5.485-.039,7.483A2.634,2.634,0,0,1,1819.563,1353.555Z" transform="translate(-1817.697 -1337.801)" fill="#ffc4ad"/></g><g transform="translate(35.327 43.597)"><path d="M1520.6,1521.872a.182.182,0,0,1-.043,0,.188.188,0,0,1-.145-.222,10.268,10.268,0,0,1,.919-2.113l.135-.258a11.408,11.408,0,0,0,1.57-7.725,21.971,21.971,0,0,0-3.144-7.175.189.189,0,1,1,.309-.216,22.4,22.4,0,0,1,3.205,7.32,11.741,11.741,0,0,1-1.606,7.97l-.134.257a10.469,10.469,0,0,0-.885,2.018A.189.189,0,0,1,1520.6,1521.872Z" transform="translate(-1519.853 -1504.077)" fill="#d3361c"/></g><path d="M1309.306,1799.674a63.332,63.332,0,0,1,4.593,18.449c-3.829,4.516-15.019,1.916-21.262,2.463s-12.881,2.841-23.077.257c2.737-14.559,4.638-18.874,4.638-18.874Z" transform="translate(-1267.728 -1716.519)" fill="#f26346"/><g transform="translate(10.633 74.224)"><g transform="translate(15.951 21.425)"><path d="M1460.789,1902.34h0a2.562,2.562,0,1,0,3.263-3.94l0,0a70.282,70.282,0,0,1-4.976-5.364,23.137,23.137,0,0,1-4.553,4.179A60.843,60.843,0,0,0,1460.789,1902.34Z" transform="translate(-1454.525 -1893.033)" fill="#ffc4ad"/></g><path d="M1344.054,1735.922a4.543,4.543,0,0,0-.3-.672,4.492,4.492,0,0,0-7.857,4.357h0c.042.076.086.15.132.222a83.628,83.628,0,0,0,15.254,18.71,23.14,23.14,0,0,0,4.553-4.179A87.988,87.988,0,0,1,1344.054,1735.922Z" transform="translate(-1335.33 -1732.936)" fill="#573961"/></g><g transform="translate(0 40.02)"><path d="M1266.3,1480.337a5.522,5.522,0,0,0-10.427,2.448,52.541,52.541,0,0,0,3.153,17.137,122.67,122.67,0,0,0,7.761,17.739,4.492,4.492,0,1,0,7.982-4.123,68.417,68.417,0,0,1-5.222-14.118,105.56,105.56,0,0,1-2.631-16.464h0A5.5,5.5,0,0,0,1266.3,1480.337Z" transform="translate(-1255.871 -1477.349)" fill="#573961"/></g><g transform="translate(2.64 30.498)"><path d="M1275.6,1416.585s4.408,3.453,19.011,1.941,15-4.407,15-4.407a4.727,4.727,0,0,0-1.7-2.348c-1.372-1.051-4.337-2.246-7.771-3.24s-5.1-1.188-5.5-2.338c-3.658.625-7.37,1.029-7.37,1.029s.124.84-2.09,2.049S1277.174,1413.982,1275.6,1416.585Z" transform="translate(-1275.597 -1406.194)" fill="#ffc4ad"/></g><g transform="translate(1.765 40.429)"><path d="M1283.036,1485.189c-9.3.16-13.825-2.2-13.878-2.227a.189.189,0,0,1,.178-.332c.063.033,6.448,3.349,19.72,1.759s15.127-3.89,15.145-3.913a.189.189,0,0,1,.3.226c-.074.1-1.975,2.452-15.4,4.062A59.5,59.5,0,0,1,1283.036,1485.189Z" transform="translate(-1269.058 -1480.4)" fill="#d3361c"/></g><g transform="translate(32.219 99.97)"><path d="M1497.482,1925.329s7.849,3.15,8.869,3.753a19.232,19.232,0,0,1,4.354,5.49c.889,1.808.7,3,.382,2.565s-1.3-2.956-3.021-4.393c1.541,2.633,2.274,6.013,1.655,5.592s-2.372-4.2-2.372-4.2,1.7,4.494,1.016,4.221-2.347-3.537-2.347-3.537,1.473,3.791.8,3.367-1.836-3.332-2.279-4.069-5.744-2.007-7.282-3.805S1497.482,1925.329,1497.482,1925.329Z" transform="translate(-1496.629 -1925.329)" fill="#ffc4ad"/></g></g></g></g></g></svg>