<svg xmlns="http://www.w3.org/2000/svg" width="48" height="48" viewBox="0 0 48 48"><g transform="translate(-512 -1587)"><circle cx="24" cy="24" r="24" transform="translate(512 1587)" fill="#12a58e"/><g transform="translate(522.723 1598.001)"><path d="M16.663,14.473A9.122,9.122,0,1,0,14.634,16.5l.705.7,2.029-2.029Zm-2.7-.674a6.621,6.621,0,1,1,0-9.364A6.622,6.622,0,0,1,13.96,13.8Z" fill="#fff"/><path d="M324.59,321.3l-6.85-6.119-2.379,2.379,6.119,6.851c.622.8,1.743.687,2.749-.32S325.4,321.919,324.59,321.3Z" transform="translate(-299.573 -299.551)" fill="#fff"/></g></g></svg>