<svg xmlns="http://www.w3.org/2000/svg" width="23.986" height="19.243" viewBox="0 0 23.986 19.243"><g transform="translate(0 -0.001)"><g transform="translate(0 0.001)"><path d="M62.775,151.456c-1.031.855-1.912.657-2.747-.391a55.019,55.019,0,0,1-4.014-6.337A55.058,55.058,0,0,1,52,151.065c-.835,1.048-1.716,1.246-2.748.391a41.112,41.112,0,0,1-3.916-3.8c.005.736,2.085,9.251,2.714,12.7H63.977c.629-3.453,2.709-11.969,2.714-12.7A41.11,41.11,0,0,1,62.775,151.456Z" transform="translate(-44.021 -142.849)" fill="#fff"/><path d="M71.039,210.922H55.112c-.559,0-.559,1.129,0,1.129H71.039C71.6,212.051,71.6,210.922,71.039,210.922Z" transform="translate(-51.083 -192.808)" fill="#fff"/><ellipse cx="1.267" cy="1.267" rx="1.267" ry="1.267" transform="translate(21.452 3.109)" fill="#fff"/><ellipse cx="1.267" cy="1.267" rx="1.267" ry="1.267" transform="translate(0 3.109)" fill="#fff"/><ellipse cx="1.267" cy="1.267" rx="1.267" ry="1.267" transform="translate(10.726 0)" fill="#fff"/></g></g></svg>