<svg xmlns="http://www.w3.org/2000/svg" width="222.471" height="50" viewBox="0 0 222.471 50"><g transform="translate(-30.029 -9602)"><path d="M8.358-9.478h1.9v1.2h-1.9Zm3.388,4.116v.994H9.87v-.994Zm0,2.9H9.87V-3.486h1.876ZM6.9-3.486H8.666v1.022H6.9Zm0-1.876H8.666v.994H6.9Zm-1.484.98c-.21-.35-1.246-1.876-1.624-2.366v-.868H5.18v.42H8.666v.91h-2.9V-1.54h7.154V-6.286H9.87V-7.2h3.584V-8.274h-1.96v-1.2h1.624v-1.064H11.494v-1.2H10.262v1.2h-1.9v-1.2H7.14v1.2H5.572v1.064H7.14v1.2H5.334V-8.82H3.794v-2.926H2.576V-8.82H.756v1.2H2.478A15.124,15.124,0,0,1,.42-2.59a6.776,6.776,0,0,1,.63,1.134,13.763,13.763,0,0,0,1.526-3.36V1.092H3.794V-5.222A18.761,18.761,0,0,1,4.718-3.36ZM7.56-1.358A9.123,9.123,0,0,1,4.774.252a8.456,8.456,0,0,1,.868.868A11.746,11.746,0,0,0,8.666-.644Zm2.464.77a20.244,20.244,0,0,1,2.59,1.722l.98-.812A20.84,20.84,0,0,0,10.934-1.3ZM24.5-10.094a4.247,4.247,0,0,1-1.218.14H18.088a14.979,14.979,0,0,1-1.526-.1V-8.47c.224-.014.98-.084,1.526-.084h5.138A11.518,11.518,0,0,1,21-4.858a15.731,15.731,0,0,1-5.754,4.1L16.38.42A17.917,17.917,0,0,0,21.77-3.6,30.282,30.282,0,0,1,25.466.49L26.712-.6a37.212,37.212,0,0,0-4-4.1A19.162,19.162,0,0,0,25-8.694a4.833,4.833,0,0,1,.406-.728Zm14.728.658a3.288,3.288,0,0,1-1.05.14h-3.36c.07-.112.14-.238.2-.35.154-.28.448-.826.728-1.246l-1.624-.532a6.206,6.206,0,0,1-.518,1.26A11.881,11.881,0,0,1,29.2-5.53l1.232.91a14.576,14.576,0,0,0,3.556-3.416H38.36a10.513,10.513,0,0,1-2.128,4.13,11.313,11.313,0,0,1-5.614,3.5L31.92.756a12.728,12.728,0,0,0,5.6-3.878,13.856,13.856,0,0,0,2.464-4.76,4.791,4.791,0,0,1,.392-.854Zm13.44,1.12v6.3H45.4v-6.3Zm1.47-.21c0-.392,0-.826.028-1.2-.462.014-.966.014-1.288.014h-7.6c-.35,0-.8,0-1.344-.028.014.378.014.854.014,1.218v6.874c0,.56-.028,1.68-.028,1.806H45.43c-.014-.07-.014-.406-.014-.784h7.252c-.014.392-.014.714-.028.784h1.526c0-.112-.028-1.316-.028-1.806Zm3.234,4c.462-.028,1.288-.056,2.072-.056H67.06c.616,0,1.246.042,1.554.056V-6.244c-.336.028-.882.084-1.568.084h-7.6c-.756,0-1.624-.042-2.072-.084ZM72.1.462a7.865,7.865,0,0,0,2.492-3.92,30.671,30.671,0,0,0,.434-5.978,10.479,10.479,0,0,1,.07-1.12H73.472a4.363,4.363,0,0,1,.112,1.134,24.275,24.275,0,0,1-.406,5.586,6.586,6.586,0,0,1-2.408,3.4Zm6.034,0a2.917,2.917,0,0,1,.532-.35,14.683,14.683,0,0,0,4.76-3.864l-.84-1.2a9.849,9.849,0,0,1-3.808,3.22V-9.478a8.432,8.432,0,0,1,.07-1.12H77.224a10.261,10.261,0,0,1,.084,1.12V-1.19a4.038,4.038,0,0,1-.1.882ZM94.29-7.28l-.84.364a13.238,13.238,0,0,1,1.12,1.96l.868-.392A19.547,19.547,0,0,0,94.29-7.28Zm1.554-.6L95-7.5A13.138,13.138,0,0,1,96.18-5.572l.854-.42A21.907,21.907,0,0,0,95.844-7.882ZM85.106-9.366l.14,1.526c1.554-.336,4.956-.672,6.16-.8a5.492,5.492,0,0,0-2.338,4.494C89.068-1.092,91.91.364,94.626.5l.5-1.484C92.848-1.092,90.5-1.918,90.5-4.452A4.584,4.584,0,0,1,93.548-8.61a13.289,13.289,0,0,1,2.7-.2l-.014-1.414c-.938.028-2.338.112-3.808.238-2.548.21-5.026.448-6.034.546C86.114-9.408,85.638-9.38,85.106-9.366ZM107.8-2.772V-.6h-5.628v-2.17Zm-6.944,3.906h1.316V.546H107.8v.546h1.386v-5.04h-8.33Zm1.876-10.346h4.816a11.02,11.02,0,0,1-2.464,1.988,11.2,11.2,0,0,1-2.394-1.932Zm6.02-1.2-.224.07H103.7c.266-.35.518-.728.742-1.092l-1.232-.434a11.775,11.775,0,0,1-4.424,4.186,8.009,8.009,0,0,1,.98.966,14.612,14.612,0,0,0,2.086-1.61,13.9,13.9,0,0,0,2.044,1.778A22.543,22.543,0,0,1,98.448-4.7a4.726,4.726,0,0,1,.644,1.162,22.631,22.631,0,0,0,5.992-2.226,18.6,18.6,0,0,0,5.656,2.156,5.663,5.663,0,0,1,.84-1.2,19.1,19.1,0,0,1-5.25-1.708,11.153,11.153,0,0,0,3.332-3.29Zm13.5,2.254V-9.786A9.128,9.128,0,0,1,122.332-11H120.75a9.666,9.666,0,0,1,.07,1.218v1.624h-3.7v-1.61a7.545,7.545,0,0,1,.084-1.12H115.64c.014.182.07.63.07,1.12v1.61h-1.372a11.381,11.381,0,0,1-1.456-.1v1.5c.224-.014.8-.042,1.456-.042h1.372v2.1c0,.574-.056,1.162-.07,1.358h1.54c-.014-.2-.056-.784-.056-1.358V-6.8h3.7v.56c0,3.71-1.232,4.914-3.85,5.88l1.19,1.12c3.276-1.47,4.088-3.472,4.088-7.084V-6.8h1.33c.658,0,1.162.014,1.386.042V-8.246a7.921,7.921,0,0,1-1.4.084Zm5.124,3.64c.462-.028,1.288-.056,2.072-.056h7.616c.616,0,1.246.042,1.554.056V-6.244c-.336.028-.882.084-1.568.084h-7.6c-.756,0-1.624-.042-2.072-.084Zm24.01-4.69a20.286,20.286,0,0,0-1.134-1.918l-.9.378a19.189,19.189,0,0,1,1.12,1.932Zm-7.392,4.27A54.073,54.073,0,0,0,149.6-6.72c.448-.154,1.008-.406,1.47-.588l-.616-1.414a7.733,7.733,0,0,1-1.358.686A38.444,38.444,0,0,1,143.99-6.4v-2.94a9.215,9.215,0,0,1,.084-1.26h-1.638a8.009,8.009,0,0,1,.1,1.26v7.672c0,1.176.644,1.736,1.778,1.946a15.255,15.255,0,0,0,2.3.14,40.587,40.587,0,0,0,4.9-.28V-1.47a23.146,23.146,0,0,1-4.816.462,12.073,12.073,0,0,1-1.75-.1c-.658-.14-.952-.308-.952-.98Zm6.958-6.4a13.043,13.043,0,0,1,1.134,1.918l.91-.392a18.583,18.583,0,0,0-1.148-1.9ZM164.5-10.094a4.247,4.247,0,0,1-1.218.14h-5.194a14.979,14.979,0,0,1-1.526-.1V-8.47c.224-.014.98-.084,1.526-.084h5.138A11.518,11.518,0,0,1,161-4.858a15.731,15.731,0,0,1-5.754,4.1L156.38.42A17.917,17.917,0,0,0,161.77-3.6a30.282,30.282,0,0,1,3.7,4.088L166.712-.6a37.214,37.214,0,0,0-4-4.1,19.162,19.162,0,0,0,2.3-3.99,4.832,4.832,0,0,1,.406-.728Zm11.984,8.148c-.014-.658-.042-1.764-.056-2.548.966-.448,1.862-.826,2.576-1.092.42-.168,1.022-.392,1.4-.5l-.546-1.288c-.448.224-.854.406-1.316.616-.658.294-1.372.588-2.226.994a1.825,1.825,0,0,0-1.848-1.176,4.084,4.084,0,0,0-1.764.406,10.121,10.121,0,0,0,1.05-1.806,42.375,42.375,0,0,0,4.564-.378V-10.01a32.054,32.054,0,0,1-4.1.406c.2-.6.308-1.134.392-1.5l-1.442-.112a8.359,8.359,0,0,1-.322,1.666h-.812a20.333,20.333,0,0,1-2.38-.154v1.3c.77.056,1.736.084,2.31.084h.406a14.437,14.437,0,0,1-3.136,4.046l1.19.9A14.91,14.91,0,0,1,171.7-4.858a3.522,3.522,0,0,1,2.3-.994,1.08,1.08,0,0,1,1.12.686c-1.6.812-3.262,1.89-3.262,3.6s1.61,2.2,3.682,2.2a35.271,35.271,0,0,0,3.85-.238l.042-1.414a23.346,23.346,0,0,1-3.85.364c-1.4,0-2.3-.182-2.3-1.134,0-.812.742-1.442,1.918-2.1,0,.686-.014,1.47-.056,1.946ZM10.934,10.66l-.91.378a14.26,14.26,0,0,1,1.12,1.946l.924-.406A20.288,20.288,0,0,0,10.934,10.66Zm1.6-.588-.91.378a13.335,13.335,0,0,1,1.162,1.932l.91-.406A21.724,21.724,0,0,0,12.53,10.072Zm-9.59,3.57c1.12.084,2.31.154,3.724.154,1.288,0,2.9-.1,3.85-.168V12.172c-1.022.1-2.506.2-3.864.2a31.379,31.379,0,0,1-3.71-.182Zm-.6,4.13a8.447,8.447,0,0,0-.28,1.96c0,1.82,1.61,2.814,4.592,2.814a20.4,20.4,0,0,0,4.76-.49L11.4,20.53a18.23,18.23,0,0,1-4.788.546c-2.128,0-3.094-.7-3.094-1.666a5.282,5.282,0,0,1,.266-1.5ZM21.9,20.18h1.652v1.274H21.9ZM19.4,15.2H16.926c.238-.91.42-1.89.574-2.87h2.184v1.722H20.79v-1.33h1.288a8.889,8.889,0,0,1-2.674,3.36ZM18.3,20.278H16.786V16.33H18.3Zm5.25-3.318H21.9v-1.2h1.652Zm0,2.24H21.9V17.94h1.652Zm3.878,2.254H24.752V20.18h2.03V19.2h-2.03V17.94h2.03v-.98h-2.03v-1.2h2.282V14.664H25c.21-.406.42-.854.616-1.288l-1.2-.266a10.677,10.677,0,0,1-.574,1.554H22.386a12.244,12.244,0,0,0,1.036-1.946H26.18v1.33h1.176V11.612H23.842c.126-.364.252-.742.35-1.134l-1.246-.238a14.161,14.161,0,0,1-.406,1.372H19.712V11.15H14.784v1.176h1.47a14.265,14.265,0,0,1-1.9,5.964,9.448,9.448,0,0,1,.728,1.232,7.781,7.781,0,0,0,.644-1.05V22.5h1.064V21.412H19.4V16.4a6.459,6.459,0,0,1,.7.8q.273-.21.546-.462v6.37H21.9v-.574h5.53Zm6.622-8.036a15.344,15.344,0,0,1,1.694.686,4.482,4.482,0,0,1-2.184,2.016,3.021,3.021,0,0,1,.756.938,5.605,5.605,0,0,0,2.478-2.422,10.8,10.8,0,0,1,1.274.784l.63-1.008a13.16,13.16,0,0,0-1.47-.826,9.457,9.457,0,0,0,.392-1.652h2.1c-.1,2.352-.238,3.248-.42,3.486a.453.453,0,0,1-.448.154c-.21,0-.728,0-1.3-.056a2.767,2.767,0,0,1,.336,1.19,11.037,11.037,0,0,0,1.568-.014,1.134,1.134,0,0,0,.882-.462c.364-.42.49-1.666.63-4.9.014-.154.014-.518.014-.518H34.2v1.12h2.24a10.758,10.758,0,0,1-.266,1.162,15.71,15.71,0,0,0-1.512-.574ZM35.882,17.1A11.007,11.007,0,0,1,38.3,18.976l.812-.854a9.982,9.982,0,0,0-2.478-1.778Zm-2.758-6.384H29.232v1.022h3.892Zm.434,1.848h-5V13.6h5Zm-.392,1.9h-3.99v1.008h3.99Zm-3.99,2.884h3.99V16.33h-3.99Zm2.9,1.918v2.016h-1.82V19.27Zm1.106-1.05H29.162v4.7h1.092v-.588H33.18Zm.98,4.13A6.207,6.207,0,0,0,35.294,19l-1.05-.266a5.758,5.758,0,0,1-1.036,3.01Zm3.038-.49c-.35,0-.406-.056-.406-.406v-3.22H35.6v3.234c0,1.162.266,1.526,1.4,1.526h1.372c.924,0,1.246-.448,1.372-2.184a2.929,2.929,0,0,1-1.078-.49c-.042,1.358-.1,1.54-.434,1.54Zm1.82-2.982a10.416,10.416,0,0,1,1.47,3.416l1.148-.476a9.973,9.973,0,0,0-1.554-3.36Zm6.37-6.72-1.694-.028a6.972,6.972,0,0,1,.1,1.3,36.805,36.805,0,0,0,.154,3.71c.378,3.654,1.666,5,3.066,5,1.022,0,1.876-.826,2.758-3.206l-1.12-1.3c-.308,1.274-.91,2.786-1.61,2.786-.924,0-1.484-1.456-1.694-3.64a30.807,30.807,0,0,1-.1-3.122A11.256,11.256,0,0,1,45.388,12.158Zm7.1.35L51.1,12.97c1.4,1.652,2.2,4.634,2.422,7.014l1.442-.56A14.673,14.673,0,0,0,52.486,12.508Zm11,3.948a22.733,22.733,0,0,1,2.618-.14,19.968,19.968,0,0,1,2.352.168l.042-1.33a23.187,23.187,0,0,0-2.422-.126,24.3,24.3,0,0,0-2.59.14Zm.98-3.976a23.752,23.752,0,0,1-2.492.476l.168-.812c.056-.28.168-.84.266-1.19l-1.694-.126a6.648,6.648,0,0,1-.042,1.26c-.028.252-.1.616-.168,1.022-.49.042-.952.056-1.386.056a12.843,12.843,0,0,1-1.694-.112l.028,1.372c.5.028,1.008.056,1.652.056.35,0,.714-.014,1.106-.028-.1.448-.21.91-.336,1.33A30.118,30.118,0,0,1,57.526,22l1.54.518a41.565,41.565,0,0,0,2.184-6.384c.154-.588.308-1.2.434-1.806a27.525,27.525,0,0,0,2.786-.462Zm-1.75,5.978a9.187,9.187,0,0,0-.21,1.736c0,1.372,1.162,2.114,3.416,2.114a19.08,19.08,0,0,0,2.744-.2l.042-1.414a15.511,15.511,0,0,1-2.772.28c-1.764,0-2.1-.56-2.1-1.19a5.224,5.224,0,0,1,.2-1.2Zm19.04-5.012a20.509,20.509,0,0,0-1.134-1.932l-.91.378a17.008,17.008,0,0,1,1.12,1.946Zm-4.69,3.192a22.733,22.733,0,0,1,2.618-.14,19.968,19.968,0,0,1,2.352.168l.042-1.33a23.187,23.187,0,0,0-2.422-.126c-.9,0-1.848.07-2.59.14Zm.98-3.976a23.753,23.753,0,0,1-2.492.476l.168-.812c.056-.28.168-.84.266-1.19L74.3,11.01a6.649,6.649,0,0,1-.042,1.26c-.028.252-.1.616-.168,1.022-.49.042-.952.056-1.386.056a12.843,12.843,0,0,1-1.694-.112l.028,1.372c.5.042,1.008.056,1.652.056.35,0,.714-.014,1.106-.028-.1.448-.21.91-.336,1.33a30.119,30.119,0,0,1-2.352,6.216l1.54.518a41.565,41.565,0,0,0,2.184-6.384c.154-.588.308-1.2.434-1.806a27.526,27.526,0,0,0,2.786-.462ZM76.3,18.64a9.188,9.188,0,0,0-.21,1.736c0,1.372,1.162,2.114,3.416,2.114a19.08,19.08,0,0,0,2.744-.2l.042-1.414a15.511,15.511,0,0,1-2.772.28c-1.764,0-2.1-.56-2.1-1.19a5.224,5.224,0,0,1,.2-1.2Zm5.012-7.35a15.873,15.873,0,0,1,1.162,1.946l.91-.406c-.266-.5-.8-1.386-1.162-1.918Zm4.83-.2a9.926,9.926,0,0,1-.084,1.036,38.022,38.022,0,0,0-.49,5.544,15.315,15.315,0,0,0,.756,4.438l1.2-.14c0-.168-.028-.378-.028-.518a2.626,2.626,0,0,1,.07-.63,32.746,32.746,0,0,1,.924-3.206l-.728-.462c-.238.616-.5,1.372-.7,1.89a18.236,18.236,0,0,1,.42-6.79c.07-.28.182-.714.28-1.008Zm10.71,2.464a19.943,19.943,0,0,1-2.17.294c-.014-.826-.028-1.638-.014-1.946a8.225,8.225,0,0,1,.056-.868h-1.61a6.63,6.63,0,0,1,.14.868c.028.364.056,1.19.07,2.03-.56.014-1.134.028-1.666.028a15.144,15.144,0,0,1-2.17-.14v1.4c.644.042,1.554.084,2.2.084.546,0,1.106-.014,1.666-.028v.434c0,2.534-.14,3.948-1.442,5.152a4.912,4.912,0,0,1-1.47.98l1.288,1.008c2.856-1.75,2.968-3.906,2.968-7.126V15.21c.812-.056,1.554-.126,2.156-.21Zm8.008,6.72c0,.9-.574,1.12-1.358,1.12-1.19,0-1.708-.406-1.708-.994s.63-1.022,1.806-1.022a7.235,7.235,0,0,1,1.246.112C104.86,19.816,104.86,20.082,104.86,20.278Zm5.278.434a11.038,11.038,0,0,0-3.962-2.142c-.042-.6-.084-1.26-.1-1.89,1.33-.056,2.478-.14,3.766-.294l-.014-1.316c-1.19.168-2.408.294-3.78.364V13.67c1.316-.056,2.478-.182,3.486-.28l-.014-1.274a33.65,33.65,0,0,1-3.458.35c0-.28.014-.532.014-.686.014-.378.056-.686.084-.938h-1.484a8.762,8.762,0,0,1,.056.882v.784h-.714a21.059,21.059,0,0,1-3.136-.266v1.274a27.876,27.876,0,0,0,3.15.21h.686v1.75h-.714a23.7,23.7,0,0,1-3.416-.266l-.014,1.316c.966.112,2.534.182,3.416.182h.756c.014.5.028,1.064.056,1.582-.336-.028-.672-.056-1.022-.056-2.072,0-3.318.924-3.318,2.24,0,1.4,1.134,2.17,3.234,2.17,1.806,0,2.562-.966,2.562-2.016,0-.2-.014-.434-.014-.714a10.387,10.387,0,0,1,3.094,2.016Zm7.322-3.346a1.244,1.244,0,0,1,1.246-1.3,1.132,1.132,0,0,1,1.078.644c.182,1.316-.35,1.89-1.064,1.89A1.205,1.205,0,0,1,117.46,17.366Zm7.518-4.8h-4.144c0-.28,0-.518.014-.686,0-.2.042-.826.07-1.008h-1.6c.042.2.084.658.112,1.008.014.154.014.406.028.7-1.974.028-4.55.112-6.118.126l.042,1.344c1.722-.112,3.99-.2,6.09-.224L119.49,15a2.7,2.7,0,0,0-.77-.1,2.511,2.511,0,0,0-2.59,2.492,2.362,2.362,0,0,0,3.3,2.226,5.465,5.465,0,0,1-3.57,2l1.19,1.176c3.29-.952,4.27-3.122,4.27-4.97a3.4,3.4,0,0,0-.49-1.848c0-.616,0-1.428-.014-2.17,2.016,0,3.318.028,4.144.07Zm2.338,5.992a2.191,2.191,0,1,0,2.184,2.2A2.2,2.2,0,0,0,127.316,18.556Zm0,3.542a1.344,1.344,0,1,1,1.344-1.344A1.344,1.344,0,0,1,127.316,22.1Z" transform="translate(70 9618)" fill="#2b2b2b"/><g transform="translate(4 16.146)"><circle cx="10.5" cy="10.5" r="10.5" transform="translate(36 9585.854)" fill="#03a58e" opacity="0.4"/><ellipse cx="6" cy="6.5" rx="6" ry="6.5" transform="translate(40 9589.854)" fill="#03a58e"/><rect width="4" height="17" rx="2" transform="translate(44 9595.854)" fill="#fff"/><g transform="translate(39.955 9595.369)"><g transform="translate(3.576 0)"><path d="M7.6,19.068a.6.6,0,0,1-.6-.6V2.4A2.391,2.391,0,0,1,9.365.012h.02A2.385,2.385,0,0,1,11.768,2.4v6.9a2.353,2.353,0,0,1,.764-.427,2.323,2.323,0,0,1,3.051,2.392l-.242,2.983a.6.6,0,0,1-1.187-.1l.242-2.983A1.133,1.133,0,0,0,12.907,10a1.132,1.132,0,0,0-.77.987l-.372,3.278a.565.565,0,0,1-.626.527.6.6,0,0,1-.564-.595V2.4a1.182,1.182,0,0,0-.353-.846A1.064,1.064,0,0,0,9.374,1.2,1.2,1.2,0,0,0,8.192,2.4V18.472a.6.6,0,0,1-.6.6Z" transform="translate(-7 -0.012)" fill="#2b2b2b"/></g><g transform="translate(0 12.692)"><path d="M8.768,26.453a.6.6,0,0,1-.471-.23C8.122,26,4,20.648,4,16.321a6.407,6.407,0,0,1,3.651-5.609A.6.6,0,0,1,8.143,11.8a5.209,5.209,0,0,0-2.951,4.523c0,3.921,4,9.117,4.047,9.169a.6.6,0,0,1-.471.962Z" transform="translate(-4 -10.661)" fill="#2b2b2b"/></g><g transform="translate(10.882 10.606)"><path d="M17.147,14.274a.6.6,0,0,1-.6-.6V11.294a1.192,1.192,0,0,0-2.28-.485.6.6,0,1,1-1.089-.482,2.383,2.383,0,0,1,4.561.967v2.384A.6.6,0,0,1,17.147,14.274Z" transform="translate(-13.13 -8.91)" fill="#2b2b2b"/></g><g transform="translate(13.707 12.989)"><path d="M16.1,26.4a.6.6,0,0,1-.424-1.015c.042-.042,4-4.118,4-11.747v-.348a1.192,1.192,0,0,0-2.384,0,.6.6,0,1,1-1.192,0,2.384,2.384,0,0,1,4.768,0v.348c0,8.149-4.169,12.411-4.346,12.589A.6.6,0,0,1,16.1,26.4Z" transform="translate(-15.5 -10.91)" fill="#2b2b2b"/></g></g><path d="M11.842.114a.415.415,0,0,0-.572.6l3.182,3.018H.415a.415.415,0,0,0,0,.83H14.439L11.27,7.581a.415.415,0,1,0,.572.6l3.619-3.447a.829.829,0,0,0-.007-1.18Z" transform="translate(42.233 9599.939) rotate(180)" fill="#2b2b2b" stroke="#2b2b2b" stroke-width="1"/></g><line x2="182" transform="translate(70.5 9651.5)" fill="none" stroke="#03a58e" stroke-width="1" stroke-dasharray="4 5"/></g></svg>