<svg xmlns="http://www.w3.org/2000/svg" width="315" height="118" viewBox="0 0 315 118"><g transform="translate(-268 -1272)"><path d="M5,0H226a5,5,0,0,1,5,5V28a0,0,0,0,1,0,0H0a0,0,0,0,1,0,0V5A5,5,0,0,1,5,0Z" transform="translate(310 1272)" fill="#eb6d4e"/><path d="M3.906-1.246c-.364,0-1.008-.392-1.008-.812,0-.49.56-1.064,1.414-1.5.028.728.042,1.358.042,1.708C4.354-1.372,4.158-1.246,3.906-1.246ZM5.88-6.23c0-.406,0-.826.014-1.246A26.776,26.776,0,0,0,8.54-7.91L8.5-9.646a18.986,18.986,0,0,1-2.548.518c.014-.35.028-.686.042-.994.028-.35.084-.952.112-1.2H4.2a11.006,11.006,0,0,1,.1,1.218c0,.238,0,.644-.014,1.134-.28.014-.546.028-.8.028a15.189,15.189,0,0,1-1.918-.112L1.6-7.378c.6.056,1.3.07,1.932.07.224,0,.476-.014.742-.028v1.162c0,.322,0,.644.014.966C2.59-4.466,1.176-3.22,1.176-2,1.176-.532,3.094.63,4.452.63c.9,0,1.526-.448,1.526-2.17,0-.476-.042-1.54-.07-2.646a9.842,9.842,0,0,1,2.6-.378c1.2,0,2.044.546,2.044,1.484,0,1.008-.9,1.582-2.016,1.778a10.6,10.6,0,0,1-1.708.1L7.476.574A11.3,11.3,0,0,0,9.3.35c2.2-.546,3.052-1.778,3.052-3.416,0-1.9-1.68-3.038-3.808-3.038a11.284,11.284,0,0,0-2.66.364ZM9.3-8.47a21.061,21.061,0,0,1,3.332,2.016l.84-1.428a30.627,30.627,0,0,0-3.4-1.946ZM16.338-8.5h3.808v2.912H21.77V-8.5h3.85v1.736h1.54V-9.6H21.77v-.532h4.368v-1.232H15.82v1.232h4.326V-9.6H14.868v2.842h1.47ZM22.3-5.726h3.052v-.91H22.3Zm0-2.3v.9h2.73v-.9Zm-2.66,0H16.884v.9h2.758Zm-3.024,2.3h3.024v-.91H16.618Zm1.12,3.864v-.6h2.324v.6Zm2.324-2.226v.616H17.738v-.616Zm4.13.616H21.658v-.616h2.534Zm-2.534,1.61v-.6h2.534v.6ZM22.666-.1c-.854,0-1.008-.084-1.008-.6V-.742h4.186V-5.208H16.156V-.126h1.582V-.742h2.324V-.7c0,1.47.532,1.876,2.45,1.876h2.94c1.526,0,1.974-.462,2.17-2.142A4.257,4.257,0,0,1,26.236-1.5c-.1,1.19-.224,1.4-.924,1.4ZM33.334-11.424H29.2v1.26h4.13Zm-1.358,9.17v1.6h-1.5v-1.6ZM33.39-3.57H29.078V1.2h1.4V.658H33.39Zm-4.27-.714h4.2v-1.26h-4.2Zm4.2-3.206h-4.2v1.246h4.2Zm-4.858-.686h5.32V-9.492h-5.32ZM39.368-.952H36.19v-1.96h3.178Zm2.226-5.306V-7.812h-3.01V-9.758a21.289,21.289,0,0,0,2.646-.574l-1.176-1.386A30.6,30.6,0,0,1,34.118-10.7a5.448,5.448,0,0,1,.448,1.4c.742-.056,1.54-.126,2.324-.224v1.708H33.88v1.554h3.01V-4.41H34.608V1.218H36.19V.546h3.178v.616h1.666V-4.41h-2.45V-6.258ZM52.36-7.28l-1.036.434A10.8,10.8,0,0,1,52.416-4.9l1.064-.476A18.348,18.348,0,0,0,52.36-7.28Zm1.568-.644-1.022.476a12.316,12.316,0,0,1,1.148,1.89l1.05-.5A20.941,20.941,0,0,0,53.928-7.924ZM43.022-9.576l.182,1.9c1.61-.35,4.522-.658,5.726-.784a5.5,5.5,0,0,0-2.044,4.27c0,3.01,2.744,4.578,5.656,4.76l.644-1.918c-2.352-.112-4.48-.938-4.48-3.22a4.208,4.208,0,0,1,2.926-3.878,14.317,14.317,0,0,1,2.674-.182l-.014-1.792c-.98.042-2.492.126-3.92.238-2.534.224-4.83.434-5.992.532C44.114-9.618,43.582-9.59,43.022-9.576Zm16.8,7.056c-.518,0-1.078-.686-1.078-2.086a4.347,4.347,0,0,1,3.514-4.018,22.254,22.254,0,0,1-.742,3.36C60.956-3.388,60.4-2.52,59.822-2.52ZM63.63.574c3.5-.532,5.292-2.6,5.292-5.516a5.291,5.291,0,0,0-5.6-5.418,6.183,6.183,0,0,0-6.384,5.936c0,2.338,1.3,4.032,2.828,4.032S62.482-2.1,63.308-4.9a30.13,30.13,0,0,0,.826-3.766A3.432,3.432,0,0,1,67.032-5a3.753,3.753,0,0,1-3.15,3.71c-.364.084-.756.154-1.288.224Zm8.5-4.872a9.257,9.257,0,0,0-.266,2c0,1.9,1.582,2.968,4.76,2.968A22.115,22.115,0,0,0,81.438.21l-.014-1.96a19.66,19.66,0,0,1-4.872.546c-2,0-2.828-.644-2.828-1.526a5.705,5.705,0,0,1,.224-1.4Zm7.742-6.734a10.654,10.654,0,0,1,.6,1.008c-1.064.1-2.59.182-3.92.182a35.859,35.859,0,0,1-3.766-.168v1.848c1.12.084,2.324.154,3.78.154,1.316,0,3.038-.1,4-.168V-9.842c.14.28.28.546.392.77l1.134-.49c-.266-.518-.77-1.4-1.12-1.918Zm1.652-.63A14.843,14.843,0,0,1,82.656-9.73l1.106-.476a15.454,15.454,0,0,0-1.134-1.9ZM88.27-7.42h1.75V-8.988H88.27v-2.87h-1.6v2.87h-2V-7.42h1.806a13.623,13.623,0,0,1-2.17,4.676,8.2,8.2,0,0,1,.784,1.568,12.008,12.008,0,0,0,1.582-3.15V1.2h1.6V-4.62c.392.63.8,1.288,1.008,1.736l.952-1.358c-.28-.35-1.47-1.792-1.96-2.324Zm3.836,6.2V-3.01H95.4v1.792ZM95.4-6.3v1.778h-3.29V-6.3Zm0-3.234V-7.8h-3.29V-9.534ZM90.51-11.1V1.092h1.6v-.8H95.4v.714h1.68V-11.1Zm19.278-.014a12.3,12.3,0,0,1-1.008,2.282l1.232.476c.392-.588.9-1.442,1.358-2.254ZM111.5-6.622a29.109,29.109,0,0,0-3.318-2.17,14.77,14.77,0,0,0,.35-3.052h-1.61c-.112,2.772-.336,4.368-3.248,5.278a4.08,4.08,0,0,1,.924,1.316,5.271,5.271,0,0,0,3-2.142,20.96,20.96,0,0,1,2.8,2.03Zm-6.65,4.788a5.348,5.348,0,0,0,1.3-2.856l-1.456-.294a4.476,4.476,0,0,1-1.218,2.464Zm.014-9.2a4.531,4.531,0,0,1-1.05,2.31l1.3.56a4.991,4.991,0,0,0,1.106-2.59Zm-1.582-.392H99.162v1.26h4.116Zm.5,1.876h-5.32v1.316h5.32ZM103.32-7.6h-4.2v1.274h4.2Zm-4.2,3.164h4.2V-5.684h-4.2Zm2.8,2v1.61h-1.442v-1.61Zm1.414-1.316H99.078V1.022h1.4V.476h2.856Zm6.692,1.582a26.929,26.929,0,0,0,1.47-2.408l-1.638-.5a15.136,15.136,0,0,1-1.106,2.422,3.016,3.016,0,0,1-.266-1.176V-5.95h-1.694v2.114c0,.938-.714,2.772-3.388,3.71a6.979,6.979,0,0,1,.91,1.358,5.58,5.58,0,0,0,3.332-3.08,5.18,5.18,0,0,0,3.024,3.08,13.155,13.155,0,0,1,.952-1.414,4.783,4.783,0,0,1-2.87-2.45Zm4.046-8.764a10.4,10.4,0,0,1-.126,1.358,41.091,41.091,0,0,0-.574,5.782A16.724,16.724,0,0,0,113.918.63l1.568-.112c-.014-.2-.014-.434-.014-.574a2.737,2.737,0,0,1,.07-.644,33.072,33.072,0,0,1,.994-3.3l-.854-.686c-.21.462-.434.924-.616,1.414a6.417,6.417,0,0,1-.056-.9,36.667,36.667,0,0,1,.658-5.362A11.652,11.652,0,0,1,116-10.766Zm7,8.61c0,.812-.294,1.26-1.148,1.26-.728,0-1.288-.252-1.288-.812,0-.518.532-.84,1.316-.84a4.322,4.322,0,0,1,1.12.154Zm4.382.56a8.8,8.8,0,0,0-2.674-1.792c-.056-.938-.126-2.044-.154-3.388.756-.056,1.484-.14,2.156-.238V-8.9c-.658.14-1.386.238-2.142.322,0-.616.028-1.134.042-1.442a8.855,8.855,0,0,1,.084-.9h-1.988a7.845,7.845,0,0,1,.084.91c.014.294.014.854.028,1.54-.322.014-.658.014-.98.014a22.989,22.989,0,0,1-2.422-.126V-6.93c.826.056,1.61.084,2.422.084.322,0,.658,0,.994-.014.014.98.056,1.988.1,2.842a6.228,6.228,0,0,0-.91-.056c-1.89,0-3.08.966-3.08,2.38,0,1.456,1.2,2.268,3.108,2.268,1.876,0,2.632-.952,2.716-2.268a14.139,14.139,0,0,1,1.68,1.386ZM129.08-8.3c1.134.084,2.338.154,3.794.154,1.316,0,3.038-.1,4-.168v-1.862c-1.064.112-2.646.2-4.018.2a36.336,36.336,0,0,1-3.78-.168Zm-.644,3.864a8.918,8.918,0,0,0-.28,2c0,1.9,1.6,2.968,4.774,2.968a21.168,21.168,0,0,0,4.816-.476l-.014-1.946a19.66,19.66,0,0,1-4.872.546c-2,0-2.842-.644-2.842-1.526a5.753,5.753,0,0,1,.238-1.4Zm22.624-5.5a33.356,33.356,0,0,1-5.124.658l.084-.42a14.491,14.491,0,0,1,.322-1.414l-1.96-.084a8.481,8.481,0,0,1-.07,1.4c-.014.168-.056.35-.084.56a19.607,19.607,0,0,1-2.716-.266v1.722c.7.07,1.512.126,2.394.14A22.408,22.408,0,0,1,142.324-3l1.638.588a4.068,4.068,0,0,1,.392-.6,4.757,4.757,0,0,1,3.836-1.638c1.344,0,2.072.7,2.072,1.526,0,2.044-3.066,2.408-6.1,1.918l.49,1.792c4.48.476,7.476-.644,7.476-3.766,0-1.764-1.484-2.968-3.724-2.968a6.741,6.741,0,0,0-3.444.868,24.463,24.463,0,0,0,.63-2.394c1.862-.1,4.06-.364,5.5-.588Zm7.2.392c1.078.28,4.172.924,5.572,1.106l.42-1.708a43.892,43.892,0,0,1-5.544-1.078Zm.532,1.106-1.876-.252a50.479,50.479,0,0,1-.686,5.782l1.61.406a3,3,0,0,1,.518-.812,4.86,4.86,0,0,1,3.822-1.624c1.218,0,2.072.658,2.072,1.554,0,1.764-2.2,2.786-6.356,2.2l.532,1.82c5.768.5,7.77-1.442,7.77-3.976,0-1.68-1.414-3.178-3.85-3.178a6.8,6.8,0,0,0-4.074,1.316C158.368-6.006,158.606-7.672,158.788-8.442Zm13.622-2.786a15.35,15.35,0,0,1-.294,2.94c-.7.056-1.358.1-1.792.112a12.873,12.873,0,0,1-1.47,0l.154,1.876c.434-.07,1.148-.168,1.54-.21.266-.042.7-.1,1.19-.154a20.608,20.608,0,0,1-2.8,6.482l1.82.728a29.446,29.446,0,0,0,2.814-7.406c.392-.028.728-.056.952-.056.882,0,1.358.154,1.358,1.26a10.254,10.254,0,0,1-.574,3.794,1.008,1.008,0,0,1-1.036.6,7.978,7.978,0,0,1-1.694-.294L172.886.28a7.739,7.739,0,0,0,1.652.2A2.226,2.226,0,0,0,176.82-.8a13.553,13.553,0,0,0,.784-5.054c0-1.988-1.036-2.646-2.506-2.646-.28,0-.7.028-1.162.056.1-.5.21-1.008.28-1.428.07-.35.168-.784.252-1.148Zm5.166,2.212a16.012,16.012,0,0,1,2.352,5.278l1.75-.826a24.988,24.988,0,0,0-2.422-5.152Zm8.68-.532c1.078.28,4.172.924,5.572,1.106l.42-1.708a43.892,43.892,0,0,1-5.544-1.078Zm.532,1.106-1.876-.252a50.479,50.479,0,0,1-.686,5.782l1.61.406a3,3,0,0,1,.518-.812,4.86,4.86,0,0,1,3.822-1.624c1.218,0,2.072.658,2.072,1.554,0,1.764-2.2,2.786-6.356,2.2l.532,1.82c5.768.5,7.77-1.442,7.77-3.976,0-1.68-1.414-3.178-3.85-3.178a6.8,6.8,0,0,0-4.074,1.316C186.368-6.006,186.606-7.672,186.788-8.442Zm15.5,4.844h1.442l.49-4.788.07-2.086h-2.562l.056,2.086ZM203,.126a1.369,1.369,0,0,0,1.456-1.372A1.389,1.389,0,0,0,203-2.632a1.389,1.389,0,0,0-1.456,1.386A1.369,1.369,0,0,0,203,.126Z" transform="translate(321 1292)" fill="#fff"/><g transform="translate(268 1300)" fill="#f7f3e5" stroke="#eb6d4e" stroke-width="3"><rect width="315" height="90" rx="45" stroke="none"/><rect x="1.5" y="1.5" width="312" height="87" rx="43.5" fill="none"/></g><g transform="translate(-427.417 1291.932)"><path d="M5.088-8.22a7.209,7.209,0,0,1,.456,1.488H3.252l.624-.18A6.815,6.815,0,0,0,3.2-8.28c1.02-.048,2.064-.12,3.072-.216ZM2.112-5.5h7.74v1.368h1.392v-2.6H9.54c.276-.444.588-.936.864-1.44L8.88-8.532a13.612,13.612,0,0,1-.78,1.8H6.012L6.9-6.948A6.287,6.287,0,0,0,6.36-8.5c1.6-.144,3.144-.336,4.44-.576l-.96-1.152a67.175,67.175,0,0,1-8.952.816A4.516,4.516,0,0,1,1.212-8.2C1.788-8.208,2.4-8.232,3-8.268l-1.068.3A7.48,7.48,0,0,1,2.5-6.732H.78v2.6H2.112ZM7.644-3.264A5.941,5.941,0,0,1,6.012-1.872,6.983,6.983,0,0,1,4.188-3.264ZM8.832-4.632l-.264.06H2.508v1.308h.564l-.4.168a8.074,8.074,0,0,0,1.9,1.884,16.757,16.757,0,0,1-4.08.876,4.913,4.913,0,0,1,.84,1.26A15.729,15.729,0,0,0,6-.36,14.476,14.476,0,0,0,10.584.9,6.9,6.9,0,0,1,11.46-.432a16.359,16.359,0,0,1-3.972-.816,7.05,7.05,0,0,0,2.3-2.8ZM15.2-10.1A12.562,12.562,0,0,1,12.336-5.52a11.653,11.653,0,0,1,.84,1.488c.276-.288.564-.612.84-.96V1.02H15.48V-7.224a22.042,22.042,0,0,0,1.14-2.424Zm8.388,2.52h-1.32v-2.448H20.784v2.448H16.212v1.44h4.572V-.7c0,.264-.108.36-.408.36-.276.012-1.332.012-2.256-.024a5.684,5.684,0,0,1,.552,1.416A8.53,8.53,0,0,0,21.48.816c.576-.216.792-.588.792-1.512V-6.144h1.32ZM19.668-2.508c-.36-.72-1.1-1.9-1.644-2.772l-1.272.588A28.156,28.156,0,0,1,18.3-1.812ZM27.2-8.16v2.112H26.1V-8.16ZM26.1-2.544V-4.8h1.1v2.256Zm2.436-6.888H24.78V-.216H26.1V-1.272h2.436Zm.708,7.152A8.442,8.442,0,0,1,30.612-.264l1.224-.708A8.28,8.28,0,0,0,30.384-2.94Zm6.348-3.072V-6.6H32.856V-7.656h2.4V-8.9h-2.4v-1.26h-1.4V-8.9h-2.3v1.248h2.3V-6.6H28.74v1.248h4.236V-4.32H28.764v1.236h4.212V-.5c0,.168-.06.216-.252.216s-.852,0-1.428-.024a4.813,4.813,0,0,1,.456,1.344,5.313,5.313,0,0,0,2-.24c.468-.216.6-.576.6-1.26V-3.084h1.152V-4.32H34.356V-5.352Zm4.644-3.324v.636H38.388v-.636ZM38.388-6.4V-7.08h1.848V-6.4Zm3.18,1.02V-9.708h-4.6V1.044h1.416v-6.42Zm2.184-1V-7.08H45.66v.708Zm1.908-2.3v.636H43.752v-.636Zm-4.68,7.56V-1.86h1.98v.744ZM42.96-3.6v.72H40.98V-3.6ZM47.1-9.708H42.4v4.356H45.66V-.66c0,.192-.072.264-.288.264-.156.012-.6.012-1.068,0v-4.26h-4.62V.54h1.3V-.072h2.976a5.284,5.284,0,0,1,.312,1.116,5.185,5.185,0,0,0,2.2-.276C46.944.54,47.1.12,47.1-.648ZM63.528.168c1.8,0,2.988-1.032,2.988-2.376a2.583,2.583,0,0,0-1.488-2.376v-.06a2.586,2.586,0,0,0,1.14-2.028,2.331,2.331,0,0,0-2.58-2.364A2.4,2.4,0,0,0,60.912-6.7a2.53,2.53,0,0,0,1.176,2.112v.06a2.584,2.584,0,0,0-1.524,2.316C60.564-.816,61.836.168,63.528.168Zm.564-5.244c-.936-.372-1.62-.78-1.62-1.62a1.033,1.033,0,0,1,1.08-1.1,1.131,1.131,0,0,1,1.176,1.236A2.127,2.127,0,0,1,64.092-5.076Zm-.516,4A1.361,1.361,0,0,1,62.088-2.4,2.135,2.135,0,0,1,62.9-4.044c1.152.468,1.968.852,1.968,1.776A1.164,1.164,0,0,1,63.576-1.08Zm5.436-3.312a1.1,1.1,0,0,0,1.1-1.14,1.1,1.1,0,0,0-1.1-1.152A1.1,1.1,0,0,0,67.92-5.532,1.092,1.092,0,0,0,69.012-4.392Zm0,4.56a1.105,1.105,0,0,0,1.1-1.152,1.105,1.105,0,0,0-1.1-1.152A1.1,1.1,0,0,0,67.92-.984,1.1,1.1,0,0,0,69.012.168Zm5.244,0c1.692,0,3.12-.948,3.12-2.58A2.219,2.219,0,0,0,75.6-4.6v-.06a2.1,2.1,0,0,0,1.488-2.028c0-1.524-1.164-2.364-2.88-2.364a3.94,3.94,0,0,0-2.664,1.092l.9,1.08a2.534,2.534,0,0,1,1.68-.792,1.061,1.061,0,0,1,1.188,1.116c0,.792-.528,1.356-2.16,1.356v1.272c1.932,0,2.448.54,2.448,1.416,0,.792-.612,1.236-1.512,1.236a2.821,2.821,0,0,1-1.98-.912L71.28-1.068A3.775,3.775,0,0,0,74.256.168Zm7.32,0c1.8,0,3-1.584,3-4.644s-1.2-4.572-3-4.572-3.012,1.5-3.012,4.572S79.764.168,81.576.168Zm0-1.38c-.768,0-1.344-.768-1.344-3.264s.576-3.2,1.344-3.2,1.332.72,1.332,3.2S82.332-1.212,81.576-1.212ZM93.4-2.724A3.709,3.709,0,0,0,96.66-4.932l-1.32-.72a2.344,2.344,0,0,1-1.908,1.44,2.2,2.2,0,0,1-1.788-.864A3.631,3.631,0,0,0,88.812-6.4a3.709,3.709,0,0,0-3.264,2.208l1.32.72a2.344,2.344,0,0,1,1.908-1.44,2.213,2.213,0,0,1,1.788.864A3.631,3.631,0,0,0,93.4-2.724ZM98.088,0h5.34V-1.428H101.76V-8.88h-1.308a5.76,5.76,0,0,1-2.064.744v1.092H100v5.616H98.088ZM106.4,0h1.788c.144-3.48.42-5.292,2.484-7.812V-8.88h-5.9V-7.4h4A12.254,12.254,0,0,0,106.4,0Zm6.78-4.392a1.1,1.1,0,0,0,1.1-1.14,1.1,1.1,0,0,0-1.1-1.152,1.1,1.1,0,0,0-1.092,1.152A1.092,1.092,0,0,0,113.184-4.392Zm0,4.56a1.105,1.105,0,0,0,1.1-1.152,1.105,1.105,0,0,0-1.1-1.152,1.1,1.1,0,0,0-1.092,1.152A1.1,1.1,0,0,0,113.184.168Zm5.244,0c1.692,0,3.12-.948,3.12-2.58A2.219,2.219,0,0,0,119.772-4.6v-.06a2.1,2.1,0,0,0,1.488-2.028c0-1.524-1.164-2.364-2.88-2.364a3.94,3.94,0,0,0-2.664,1.092l.9,1.08a2.534,2.534,0,0,1,1.68-.792,1.061,1.061,0,0,1,1.188,1.116c0,.792-.528,1.356-2.16,1.356v1.272c1.932,0,2.448.54,2.448,1.416,0,.792-.612,1.236-1.512,1.236a2.821,2.821,0,0,1-1.98-.912l-.828,1.116A3.775,3.775,0,0,0,118.428.168Zm7.32,0c1.8,0,3-1.584,3-4.644s-1.2-4.572-3-4.572-3.012,1.5-3.012,4.572S123.936.168,125.748.168Zm0-1.38c-.768,0-1.344-.768-1.344-3.264s.576-3.2,1.344-3.2,1.332.72,1.332,3.2S126.5-1.212,125.748-1.212ZM137.2-10.224V1.1h3.744v-.06a7.435,7.435,0,0,1-2.376-5.6,7.435,7.435,0,0,1,2.376-5.6v-.06Zm7.92,7.344V-4.7h2.076V-2.88Zm7.656,0h-4.1V-4.7h3.168v-1.32h-3.168v-1.44h3.444v-1.38h-6.78a7.66,7.66,0,0,0,.4-.984l-1.452-.372a9.254,9.254,0,0,1-2.52,4,11.044,11.044,0,0,1,1.236.924,10.785,10.785,0,0,0,1.632-2.184h2.568v1.44h-3.5V-2.88h-1.9v1.368h5.4V1.056h1.476V-1.512h4.1ZM160.008-4.1v-2.58h2.712V-4.1Zm-4.212,0v-2.58h2.7V-4.1Zm4.212-3.984v-2.076H158.5v2.076h-4.14V-2.04h1.44V-2.7h2.7V1.044h1.512V-2.7h2.712v.6h1.5V-8.088Zm13.8,1.968H172.9V-7.656h.912Zm0,2.8H172.9V-4.848h.912Zm-5.04-1.524h.864v1.524h-.864Zm2.94,0v1.524h-.888V-4.848ZM170.82-6.12V-7.656h.888V-6.12Zm-2.052-1.536h.864V-6.12h-.864Zm-1.26,1.536H165.9v1.272h1.608v1.524H166.08v1.272h10.428V-3.324h-1.392V-4.848h1.56V-6.12h-1.56V-7.656h1.128v-1.26h-7.2a6.459,6.459,0,0,0,.468-.84l-1.392-.408A7.379,7.379,0,0,1,165.636-7.3a13.216,13.216,0,0,1,1.164.936,8.243,8.243,0,0,0,.708-.624Zm-.372,7.176a6.567,6.567,0,0,0,1.368-2.52l-1.38-.336A5.913,5.913,0,0,1,165.78.5Zm2.136-2.436A15.232,15.232,0,0,1,169.5.912l1.392-.2a15.538,15.538,0,0,0-.288-2.244Zm2.376.024a12.786,12.786,0,0,1,.612,2.28l1.428-.276a13.374,13.374,0,0,0-.7-2.232Zm2.376-.06a15.456,15.456,0,0,1,1.416,2.46L176.9.552a16.276,16.276,0,0,0-1.512-2.4Zm14.712-4.452V-7.26H185.6V-9.972h-1.416V-7.26H181.14v1.392h2.484a11.386,11.386,0,0,1-2.964,4.344V-7.116A18.935,18.935,0,0,0,181.9-9.648L180.48-10.1A12.311,12.311,0,0,1,177.444-5.5a10.361,10.361,0,0,1,.828,1.5,10.876,10.876,0,0,0,.984-1.08v6.1h1.4v-2.4a7.914,7.914,0,0,1,.972,1.056,12.194,12.194,0,0,0,2.556-3.636v5H185.6V-4.2a12.267,12.267,0,0,0,2.424,3.816,5.087,5.087,0,0,1,1.068-1.14,11.737,11.737,0,0,1-2.868-4.344Zm4.62-4.356h-3.744v.06a7.435,7.435,0,0,1,2.376,5.6,7.435,7.435,0,0,1-2.376,5.6V1.1h3.744Z" transform="translate(776.417 83.068)" fill="#1a1311"/><rect width="68" height="5" transform="translate(846.418 35.068)" fill="#ffd800"/><rect width="55" height="5" transform="translate(921.418 35.068)" fill="#ffd800"/><path d="M2.66-4.55a9.4,9.4,0,0,0-.392,2.282c0,1.932,1.5,2.982,4.284,2.982A19.43,19.43,0,0,0,10.29.378l.042-1.834a15.329,15.329,0,0,1-3.78.406c-1.96,0-2.478-.686-2.478-1.694A6.222,6.222,0,0,1,4.452-4.4ZM11.7-10a20.281,20.281,0,0,1-2.716.7c-.308-.728-.574-1.386-.812-2.114l-1.96.378A10.762,10.762,0,0,1,6.9-9.7c.084.21.182.434.294.658a23.621,23.621,0,0,1-5.18-.14l.056,1.778a31.149,31.149,0,0,0,5.838,0c.406.868.882,1.834,1.218,2.534-.42-.028-1.176-.112-1.638-.154L7.336-3.6c1.022.126,2.394.35,3.15.5l.98-1.05c-.6-1.106-1.26-2.422-1.792-3.542.84-.168,1.652-.364,2.352-.56ZM19.88-4.55a9.4,9.4,0,0,0-.392,2.282c0,1.932,1.5,2.982,4.284,2.982A19.43,19.43,0,0,0,27.51.378l.042-1.834a15.329,15.329,0,0,1-3.78.406c-1.96,0-2.478-.686-2.478-1.694A6.222,6.222,0,0,1,21.672-4.4ZM28.924-10a20.282,20.282,0,0,1-2.716.7c-.308-.728-.574-1.386-.812-2.114l-1.96.378a10.762,10.762,0,0,1,.686,1.33c.084.21.182.434.294.658a23.621,23.621,0,0,1-5.18-.14l.056,1.778a31.149,31.149,0,0,0,5.838,0c.406.868.882,1.834,1.218,2.534-.42-.028-1.176-.112-1.638-.154L24.556-3.6c1.022.126,2.394.35,3.15.5l.98-1.05c-.6-1.106-1.26-2.422-1.792-3.542.84-.168,1.652-.364,2.352-.56ZM36.5-5.95l.714,1.82c1.19-.5,3.948-1.652,5.558-1.652a1.787,1.787,0,0,1,1.988,1.764c0,1.89-2.352,2.716-5.5,2.8L39.984.5c4.41-.266,6.608-1.988,6.608-4.494,0-2.1-1.47-3.4-3.654-3.4a19.9,19.9,0,0,0-4.97,1.078A11.846,11.846,0,0,1,36.5-5.95ZM62.034-9.758a9.572,9.572,0,0,1-1.274.84c-.658.364-1.862.98-3,1.638a32.5,32.5,0,0,1-1.736-3.836l-1.75.714c.63,1.47,1.3,2.94,1.946,4.13-1.33.98-2.3,2.114-2.3,3.654,0,2.38,2.086,3.15,4.844,3.15A27.115,27.115,0,0,0,63.224.2l.028-2a23.188,23.188,0,0,1-4.536.5c-1.918,0-2.884-.532-2.884-1.526,0-.966.77-1.764,1.932-2.52a42.459,42.459,0,0,1,3.864-2.058c.5-.252.952-.49,1.372-.742Z" transform="translate(847.417 36.068)" fill="#ed4c24"/><path d="M11.83-8.148c0-.406.028-.966.042-1.288-.238.014-.812.028-1.218.028h-.07l.966-.406a17.135,17.135,0,0,0-1.092-1.876l-1.148.476a12.622,12.622,0,0,1,1.036,1.806H3.6c-.49,0-1.2-.028-1.736-.084v1.946C2.254-7.574,3.01-7.6,3.6-7.6H9.9v5.8H3.43c-.63,0-1.26-.042-1.736-.084v2C2.156.07,2.94.028,3.486.028h6.4c0,.252,0,.5-.014.728H11.9c-.042-.42-.07-1.162-.07-1.652Zm-.644-3.514a16.6,16.6,0,0,1,1.12,1.876l1.162-.5c-.266-.49-.77-1.344-1.12-1.848Zm4.1,7.378c.518-.042,1.456-.07,2.254-.07H25.06c.588,0,1.3.056,1.638.07v-2.2c-.364.028-.994.084-1.638.084H17.542c-.728,0-1.75-.042-2.254-.084ZM39.83-8.148c0-.406.028-.966.042-1.288-.238.014-.812.028-1.218.028h-.07l.966-.406a17.135,17.135,0,0,0-1.092-1.876l-1.148.476a12.622,12.622,0,0,1,1.036,1.806H31.6c-.49,0-1.2-.028-1.736-.084v1.946C30.254-7.574,31.01-7.6,31.6-7.6h6.3v5.8H31.43c-.63,0-1.26-.042-1.736-.084v2C30.156.07,30.94.028,31.486.028h6.4c0,.252,0,.5-.014.728H39.9c-.042-.42-.07-1.162-.07-1.652Zm-.644-3.514a16.6,16.6,0,0,1,1.12,1.876l1.162-.5c-.266-.49-.77-1.344-1.12-1.848Zm4.1,7.378c.518-.042,1.456-.07,2.254-.07H53.06c.588,0,1.3.056,1.638.07v-2.2c-.364.028-.994.084-1.638.084H45.542c-.728,0-1.75-.042-2.254-.084Z" transform="translate(921.417 36.068)" fill="#ed4c24"/><path d="M9.078.391q-8,0-8-11.234,0-5.828,2.164-8.883a7.21,7.21,0,0,1,6.273-3.055q7.813,0,7.813,11.422,0,5.688-2.133,8.719A7.026,7.026,0,0,1,9.078.391ZM9.3-19.016q-3.2,0-3.2,8.047,0,7.578,3.141,7.578,3.062,0,3.063-7.812T9.3-19.016Zm22.429-3.891V0H26.8V-17.344a5.894,5.894,0,0,1-.961.68,9.92,9.92,0,0,1-1.18.578,10.534,10.534,0,0,1-1.3.438,9.472,9.472,0,0,1-1.328.258v-4.156a20.531,20.531,0,0,0,3.625-1.437,20.629,20.629,0,0,0,3.078-1.922ZM44.156-4.094h9.5V0H38.749V-1.687a7.854,7.854,0,0,1,.578-3.086,10.241,10.241,0,0,1,1.453-2.453,12.6,12.6,0,0,1,1.914-1.922q1.039-.836,1.977-1.508.984-.7,1.727-1.344a9.839,9.839,0,0,0,1.25-1.273,4.841,4.841,0,0,0,.758-1.281,3.81,3.81,0,0,0,.25-1.383,2.779,2.779,0,0,0-.812-2.172,3.612,3.612,0,0,0-2.484-.734,8.344,8.344,0,0,0-5.531,2.3v-4.344a11.874,11.874,0,0,1,6.594-1.891,9.738,9.738,0,0,1,3.055.445,6.463,6.463,0,0,1,2.289,1.273,5.431,5.431,0,0,1,1.43,2.008,6.776,6.776,0,0,1,.492,2.633,7.424,7.424,0,0,1-.477,2.75,8.45,8.45,0,0,1-1.266,2.188,11.48,11.48,0,0,1-1.82,1.8q-1.031.82-2.141,1.586-.75.531-1.445,1.055a13.7,13.7,0,0,0-1.227,1.031,5.6,5.6,0,0,0-.844.992A1.713,1.713,0,0,0,44.156-4.094ZM65.257.391q-8,0-8-11.234,0-5.828,2.164-8.883a7.21,7.21,0,0,1,6.273-3.055q7.813,0,7.813,11.422,0,5.688-2.133,8.719A7.026,7.026,0,0,1,65.257.391Zm.219-19.406q-3.2,0-3.2,8.047,0,7.578,3.141,7.578,3.062,0,3.063-7.812T65.476-19.016Zm20.211,12.2H77.139v-3.453h8.547Zm4.3,6.078v-4.3a8.673,8.673,0,0,0,5.25,1.641A4.727,4.727,0,0,0,98.186-4.2a2.7,2.7,0,0,0,1.055-2.266,2.575,2.575,0,0,0-1.3-2.312,6.759,6.759,0,0,0-3.586-.812H92.272v-3.781h1.922q4.375,0,4.375-2.906,0-2.734-3.359-2.734a7.659,7.659,0,0,0-4.375,1.453v-4.031a12.083,12.083,0,0,1,5.5-1.187,8.3,8.3,0,0,1,5.352,1.547,4.923,4.923,0,0,1,1.914,4.016q0,4.391-4.453,5.5v.078a6.054,6.054,0,0,1,3.75,1.727,4.868,4.868,0,0,1,1.375,3.508,6.012,6.012,0,0,1-2.3,4.969A9.931,9.931,0,0,1,95.631.391,12.261,12.261,0,0,1,89.991-.734Zm18.726,0v-4.3a8.673,8.673,0,0,0,5.25,1.641,4.727,4.727,0,0,0,2.945-.812,2.7,2.7,0,0,0,1.055-2.266,2.575,2.575,0,0,0-1.3-2.312,6.759,6.759,0,0,0-3.586-.812H111v-3.781h1.922q4.375,0,4.375-2.906,0-2.734-3.359-2.734a7.659,7.659,0,0,0-4.375,1.453v-4.031a12.083,12.083,0,0,1,5.5-1.187,8.3,8.3,0,0,1,5.352,1.547,4.923,4.923,0,0,1,1.914,4.016q0,4.391-4.453,5.5v.078a6.054,6.054,0,0,1,3.75,1.727A4.868,4.868,0,0,1,123-6.406a6.012,6.012,0,0,1-2.3,4.969A9.931,9.931,0,0,1,114.357.391,12.261,12.261,0,0,1,108.717-.734Zm29.9-22.172V0h-4.922V-17.344a5.894,5.894,0,0,1-.961.68,9.92,9.92,0,0,1-1.18.578,10.534,10.534,0,0,1-1.3.438,9.472,9.472,0,0,1-1.328.258v-4.156a20.531,20.531,0,0,0,3.625-1.437,20.629,20.629,0,0,0,3.078-1.922Zm14.8,23.3q-8,0-8-11.234,0-5.828,2.164-8.883a7.21,7.21,0,0,1,6.273-3.055q7.812,0,7.813,11.422,0,5.688-2.133,8.719A7.026,7.026,0,0,1,153.419.391Zm.219-19.406q-3.2,0-3.2,8.047,0,7.578,3.141,7.578,3.063,0,3.063-7.812T153.638-19.016Zm20.211,12.2H165.3v-3.453h8.547Zm4.7,6.234V-4.8a9.21,9.21,0,0,0,4.891,1.406,4.594,4.594,0,0,0,3.055-.93,3.129,3.129,0,0,0,1.1-2.523q0-3.328-4.7-3.328a34.826,34.826,0,0,0-4,.266l.844-12.5h11.859v4.031H183.5l-.312,4.484q1.2-.094,2.078-.094a7.642,7.642,0,0,1,5.406,1.813A6.329,6.329,0,0,1,192.622-7.3a7.2,7.2,0,0,1-2.328,5.539A8.945,8.945,0,0,1,183.981.391,13.508,13.508,0,0,1,178.544-.578Zm18.726,0V-4.8a9.21,9.21,0,0,0,4.891,1.406,4.594,4.594,0,0,0,3.055-.93,3.129,3.129,0,0,0,1.1-2.523q0-3.328-4.7-3.328a34.826,34.826,0,0,0-4,.266l.844-12.5h11.859v4.031h-8.094l-.312,4.484q1.2-.094,2.078-.094a7.642,7.642,0,0,1,5.406,1.813A6.329,6.329,0,0,1,211.348-7.3a7.2,7.2,0,0,1-2.328,5.539A8.945,8.945,0,0,1,202.708.391,13.508,13.508,0,0,1,197.27-.578Z" transform="translate(759.418 67.068)" fill="#ed4c24"/></g><circle cx="9.5" cy="9.5" r="9.5" transform="translate(553 1336)" fill="#eb6d4e"/><g transform="translate(560.783 1341.494)"><path d="M121.793,3.621,118.249.087a.3.3,0,0,0-.419.421l3.333,3.324-3.333,3.324a.3.3,0,0,0,.42.421l3.544-3.534a.3.3,0,0,0,0-.421Z" transform="translate(-117.742 0)" fill="#fff" stroke="#fff" stroke-linecap="round" stroke-width="0.5"/></g><g transform="translate(280.107 1321.96)"><circle cx="23" cy="23" r="23" transform="translate(-0.107 -0.96)" fill="#ed4c24"/><path d="M24.994,18.9,21.4,15.3a2.386,2.386,0,0,0-3.974.9,2.441,2.441,0,0,1-2.82,1.539c-2.564-.642-6.025-3.979-6.667-6.673A2.325,2.325,0,0,1,9.481,8.244a2.39,2.39,0,0,0,.9-3.977L6.788.673a2.558,2.558,0,0,0-3.461,0L.892,3.11c-2.435,2.566.258,9.366,6.284,15.4S20,27.363,22.559,24.8l2.435-2.437A2.564,2.564,0,0,0,24.994,18.9Z" transform="translate(13.013 7.099) rotate(11)" fill="#fff"/></g><path d="M-28.944-6.132v.648h-1.38v-.648Zm2.688.648h-1.416v-.648h1.416Zm-1.416,1.668v-.672h1.416v.672Zm-2.652,0v-.672h1.38v.672Zm0,1.032h1.38v1.752h1.272V-2.784h1.416v.552c0,.12-.036.168-.18.18-.12,0-.54,0-.912-.012A3.9,3.9,0,0,1-27-.948a3.611,3.611,0,0,0,1.62-.2c.384-.192.492-.492.492-1.068V-7.164H-26.34c-.2-.12-.456-.24-.72-.372a13.659,13.659,0,0,0,2.136-1.62l-.852-.684-.276.072H-31.56v1.08h4.272a11.087,11.087,0,0,1-.96.636c-.492-.216-1-.408-1.416-.564l-.924.768c.492.192,1.068.432,1.608.684h-2.688v6.18h1.344Zm-2-5.28a10.278,10.278,0,0,0-2.088-1.848L-35.4-9a9.741,9.741,0,0,1,2,1.956Zm-.36,2.556H-35.58V-4.2h1.524v2.616a16.518,16.518,0,0,1-1.68,1.092l.66,1.428c.672-.5,1.236-.972,1.788-1.44A3.722,3.722,0,0,0-30.18.828c1.464.06,4.008.036,5.484-.036A5.9,5.9,0,0,1-24.252-.6c-1.644.132-4.488.168-5.916.108a2.739,2.739,0,0,1-2.52-1.188Zm13.26-4.284h-3.54v1.08h3.54Zm-1.164,7.86V-.564h-1.284V-1.932ZM-19.38-3.06h-3.7V1.032h1.2V.564h2.5Zm-3.66-.612h3.6v-1.08h-3.6Zm3.6-2.748h-3.6v1.068h3.6ZM-23.6-7.008h4.56V-8.136H-23.6Zm9.348,6.192H-16.98V-2.5h2.724Zm1.908-4.548V-6.7h-2.58V-8.364a18.248,18.248,0,0,0,2.268-.492l-1.008-1.188a26.23,26.23,0,0,1-5.088.876,4.67,4.67,0,0,1,.384,1.2c.636-.048,1.32-.108,1.992-.192V-6.7h-2.58v1.332h2.58V-3.78h-1.956V1.044h1.356V.468h2.724V1h1.428V-3.78h-2.1V-5.364Zm8.976-2.7A9.018,9.018,0,0,0-5.28-9.516l-.684.96A9.655,9.655,0,0,1-4.1-7ZM-6.516-5.532A10.132,10.132,0,0,1-4.548-4.044l.72-1.14a10.541,10.541,0,0,0-2.016-1.38ZM-7.6-9.5A20.409,20.409,0,0,1-8.256-6.7l.9.252c.3-.7.648-1.836.96-2.8ZM-9.924-6.7a12.031,12.031,0,0,0-.612-2.748l-1,.264a11.893,11.893,0,0,1,.54,2.76Zm3.276,3.948c-.252-.336-1.392-1.68-1.74-2.028V-4.86h1.776V-6.192H-8.388v-3.924h-1.32v3.924H-11.52V-4.86h1.368a11.109,11.109,0,0,1-1.584,3.108,8.48,8.48,0,0,1,.648,1.476,12.315,12.315,0,0,0,1.38-2.952V1.008h1.32V-3.2a16.03,16.03,0,0,1,.864,1.56ZM-.3-2.472-.516-3.8l-1.224.228v-6.6H-3.084v6.84L-6.648-2.7l.216,1.332,3.348-.6v3H-1.74v-3.24ZM8.532-6.12H7.62V-7.656h.912Zm0,2.8H7.62V-4.848h.912ZM3.492-4.848h.864v1.524H3.492Zm2.94,0v1.524H5.544V-4.848ZM5.544-6.12V-7.656h.888V-6.12ZM3.492-7.656h.864V-6.12H3.492ZM2.232-6.12H.624v1.272H2.232v1.524H.8v1.272H11.232V-3.324H9.84V-4.848H11.4V-6.12H9.84V-7.656h1.128v-1.26h-7.2a6.46,6.46,0,0,0,.468-.84l-1.392-.408A7.379,7.379,0,0,1,.36-7.3a13.216,13.216,0,0,1,1.164.936,8.246,8.246,0,0,0,.708-.624ZM1.86,1.056a6.567,6.567,0,0,0,1.368-2.52L1.848-1.8A5.913,5.913,0,0,1,.5.5ZM4-1.38A15.233,15.233,0,0,1,4.224.912l1.392-.2a15.539,15.539,0,0,0-.288-2.244Zm2.376.024A12.787,12.787,0,0,1,6.984.924L8.412.648a13.373,13.373,0,0,0-.7-2.232Zm2.376-.06a15.456,15.456,0,0,1,1.416,2.46L11.628.552a16.276,16.276,0,0,0-1.512-2.4Zm11.88-6.648A9.018,9.018,0,0,0,18.72-9.516l-.684.96A9.655,9.655,0,0,1,19.9-7ZM17.484-5.532a10.132,10.132,0,0,1,1.968,1.488l.72-1.14a10.541,10.541,0,0,0-2.016-1.38ZM16.4-9.5a20.409,20.409,0,0,1-.66,2.808l.9.252c.3-.7.648-1.836.96-2.8ZM14.076-6.7a12.031,12.031,0,0,0-.612-2.748l-1,.264a11.893,11.893,0,0,1,.54,2.76Zm3.276,3.948c-.252-.336-1.392-1.68-1.74-2.028V-4.86h1.776V-6.192H15.612v-3.924h-1.32v3.924H12.48V-4.86h1.368a11.109,11.109,0,0,1-1.584,3.108,8.48,8.48,0,0,1,.648,1.476,12.315,12.315,0,0,0,1.38-2.952V1.008h1.32V-3.2a16.03,16.03,0,0,1,.864,1.56Zm6.348.276L23.484-3.8l-1.224.228v-6.6H20.916v6.84L17.352-2.7l.216,1.332,3.348-.6v3H22.26v-3.24Zm5.688-.612h1.236l.42-4.1.06-1.788h-2.2l.048,1.788ZM30,.108a1.174,1.174,0,0,0,1.248-1.176A1.19,1.19,0,0,0,30-2.256a1.19,1.19,0,0,0-1.248,1.188A1.174,1.174,0,0,0,30,.108Z" transform="translate(368 1329)" fill="#ed4c24"/></g></svg>