<svg xmlns="http://www.w3.org/2000/svg" width="407.691" height="72.16" viewBox="0 0 407.691 72.16"><g transform="translate(-200.308 -706.128)"><g transform="translate(-334.51 702.719)"><path d="M5.936-9.59a8.41,8.41,0,0,1,.532,1.736H3.794l.728-.21a7.951,7.951,0,0,0-.784-1.6c1.19-.056,2.408-.14,3.584-.252ZM2.464-6.412h9.03v1.6h1.624V-7.854H11.13c.322-.518.686-1.092,1.008-1.68l-1.778-.42a15.88,15.88,0,0,1-.91,2.1H7.014L8.05-8.106a7.335,7.335,0,0,0-.63-1.806c1.862-.168,3.668-.392,5.18-.672l-1.12-1.344a78.371,78.371,0,0,1-10.444.952,5.268,5.268,0,0,1,.378,1.414C2.086-9.576,2.8-9.6,3.5-9.646L2.254-9.3a8.727,8.727,0,0,1,.658,1.442h-2v3.038H2.464Zm6.454,2.6a6.932,6.932,0,0,1-1.9,1.624A8.147,8.147,0,0,1,4.886-3.808ZM10.3-5.4,10-5.334H2.926v1.526h.658l-.462.2a9.419,9.419,0,0,0,2.212,2.2A19.55,19.55,0,0,1,.574-.392a5.732,5.732,0,0,1,.98,1.47A18.351,18.351,0,0,0,7-.42a16.889,16.889,0,0,0,5.348,1.47A8.049,8.049,0,0,1,13.37-.5a19.085,19.085,0,0,1-4.634-.952,8.225,8.225,0,0,0,2.688-3.262Zm7.434-6.384A14.655,14.655,0,0,1,14.392-6.44a13.6,13.6,0,0,1,.98,1.736c.322-.336.658-.714.98-1.12V1.19H18.06V-8.428a25.715,25.715,0,0,0,1.33-2.828Zm9.786,2.94h-1.54V-11.7H24.248v2.856H18.914v1.68h5.334V-.812c0,.308-.126.42-.476.42-.322.014-1.554.014-2.632-.028a6.631,6.631,0,0,1,.644,1.652A9.952,9.952,0,0,0,25.06.952c.672-.252.924-.686.924-1.764V-7.168h1.54ZM22.946-2.926c-.42-.84-1.288-2.212-1.918-3.234l-1.484.686a32.849,32.849,0,0,1,1.806,3.36ZM31.738-9.52v2.464H30.45V-9.52ZM30.45-2.968V-5.6h1.288v2.632ZM33.292-11H28.91V-.252h1.54V-1.484h2.842Zm.826,8.344a9.849,9.849,0,0,1,1.6,2.352l1.428-.826a9.66,9.66,0,0,0-1.694-2.3Zm7.406-3.584V-7.7H38.332V-8.932h2.8v-1.456h-2.8v-1.47H36.694v1.47H34.006v1.456h2.688V-7.7H33.53v1.456h4.942v1.2H33.558V-3.6h4.914v3.01c0,.2-.07.252-.294.252s-.994,0-1.666-.028A5.615,5.615,0,0,1,37.044,1.2a6.2,6.2,0,0,0,2.338-.28c.546-.252.7-.672.7-1.47V-3.6h1.344V-5.04H40.082v-1.2Zm5.418-3.878v.742H44.786v-.742Zm-2.156,2.66v-.8h2.156v.8Zm3.71,1.19v-5.054H43.134V1.218h1.652v-7.49Zm2.548-1.162V-8.26H53.27v.826Zm2.226-2.688v.742H51.044v-.742ZM47.81-1.3V-2.17h2.31V-1.3Zm2.31-2.9v.84H47.81V-4.2Zm4.83-7.126H49.462v5.082H53.27V-.77c0,.224-.084.308-.336.308-.182.014-.7.014-1.246,0v-4.97H46.3V.63H47.81V-.084h3.472a6.164,6.164,0,0,1,.364,1.3A6.049,6.049,0,0,0,54.208.9c.56-.266.742-.756.742-1.652ZM74.116.2c2.1,0,3.486-1.2,3.486-2.772a3.013,3.013,0,0,0-1.736-2.772v-.07A3.018,3.018,0,0,0,77.2-7.784a2.719,2.719,0,0,0-3.01-2.758c-1.806,0-3.122,1.064-3.122,2.73a2.951,2.951,0,0,0,1.372,2.464v.07a3.015,3.015,0,0,0-1.778,2.7C70.658-.952,72.142.2,74.116.2Zm.658-6.118c-1.092-.434-1.89-.91-1.89-1.89A1.2,1.2,0,0,1,74.144-9.1a1.32,1.32,0,0,1,1.372,1.442A2.481,2.481,0,0,1,74.774-5.922Zm-.6,4.662A1.588,1.588,0,0,1,72.436-2.8a2.491,2.491,0,0,1,.952-1.918c1.344.546,2.3.994,2.3,2.072A1.358,1.358,0,0,1,74.172-1.26Zm6.342-3.864A1.277,1.277,0,0,0,81.8-6.454,1.281,1.281,0,0,0,80.514-7.8,1.278,1.278,0,0,0,79.24-6.454,1.275,1.275,0,0,0,80.514-5.124Zm0,5.32A1.289,1.289,0,0,0,81.8-1.148a1.289,1.289,0,0,0-1.288-1.344A1.287,1.287,0,0,0,79.24-1.148,1.287,1.287,0,0,0,80.514.2Zm6.118,0c1.974,0,3.64-1.106,3.64-3.01A2.589,2.589,0,0,0,88.2-5.362v-.07A2.454,2.454,0,0,0,89.936-7.8c0-1.778-1.358-2.758-3.36-2.758a4.6,4.6,0,0,0-3.108,1.274l1.05,1.26a2.956,2.956,0,0,1,1.96-.924,1.238,1.238,0,0,1,1.386,1.3c0,.924-.616,1.582-2.52,1.582v1.484c2.254,0,2.856.63,2.856,1.652,0,.924-.714,1.442-1.764,1.442a3.291,3.291,0,0,1-2.31-1.064l-.966,1.3A4.4,4.4,0,0,0,86.632.2Zm8.54,0c2.1,0,3.5-1.848,3.5-5.418s-1.4-5.334-3.5-5.334-3.514,1.75-3.514,5.334S93.058.2,95.172.2Zm0-1.61c-.9,0-1.568-.9-1.568-3.808s.672-3.738,1.568-3.738,1.554.84,1.554,3.738S96.054-1.414,95.172-1.414Zm13.79-1.764a4.327,4.327,0,0,0,3.808-2.576l-1.54-.84A2.735,2.735,0,0,1,109-4.914a2.562,2.562,0,0,1-2.086-1.008,4.236,4.236,0,0,0-3.3-1.54,4.327,4.327,0,0,0-3.808,2.576l1.54.84a2.735,2.735,0,0,1,2.226-1.68,2.581,2.581,0,0,1,2.086,1.008A4.236,4.236,0,0,0,108.962-3.178ZM114.436,0h6.23V-1.666H118.72V-10.36h-1.526a6.72,6.72,0,0,1-2.408.868v1.274h1.876v6.552h-2.226Zm9.7,0h2.086c.168-4.06.49-6.174,2.9-9.114V-10.36h-6.888v1.722H126.9C124.922-5.894,124.32-3.6,124.138,0Zm7.91-5.124a1.277,1.277,0,0,0,1.288-1.33A1.281,1.281,0,0,0,132.048-7.8a1.278,1.278,0,0,0-1.274,1.344A1.275,1.275,0,0,0,132.048-5.124Zm0,5.32a1.289,1.289,0,0,0,1.288-1.344,1.289,1.289,0,0,0-1.288-1.344,1.287,1.287,0,0,0-1.274,1.344A1.287,1.287,0,0,0,132.048.2Zm6.118,0c1.974,0,3.64-1.106,3.64-3.01a2.589,2.589,0,0,0-2.072-2.548v-.07A2.454,2.454,0,0,0,141.47-7.8c0-1.778-1.358-2.758-3.36-2.758A4.6,4.6,0,0,0,135-9.282l1.05,1.26a2.956,2.956,0,0,1,1.96-.924,1.238,1.238,0,0,1,1.386,1.3c0,.924-.616,1.582-2.52,1.582v1.484c2.254,0,2.856.63,2.856,1.652,0,.924-.714,1.442-1.764,1.442a3.291,3.291,0,0,1-2.31-1.064l-.966,1.3A4.4,4.4,0,0,0,138.166.2Zm8.54,0c2.1,0,3.5-1.848,3.5-5.418s-1.4-5.334-3.5-5.334-3.514,1.75-3.514,5.334S144.592.2,146.706.2Zm0-1.61c-.9,0-1.568-.9-1.568-3.808s.672-3.738,1.568-3.738,1.554.84,1.554,3.738S147.588-1.414,146.706-1.414Zm13.356-10.514V1.288h4.368v-.07a8.675,8.675,0,0,1-2.772-6.538,8.675,8.675,0,0,1,2.772-6.538v-.07ZM169.3-3.36V-5.488h2.422V-3.36Zm8.932,0h-4.788V-5.488h3.7v-1.54h-3.7v-1.68h4.018v-1.61h-7.91a8.938,8.938,0,0,0,.462-1.148l-1.694-.434a10.8,10.8,0,0,1-2.94,4.662,12.885,12.885,0,0,1,1.442,1.078,12.582,12.582,0,0,0,1.9-2.548h3v1.68h-4.088V-3.36h-2.212v1.6h6.3v3h1.722v-3h4.788Zm8.442-1.428V-7.8h3.164v3.01Zm-4.914,0V-7.8h3.15v3.01Zm4.914-4.648v-2.422h-1.764v2.422h-4.83V-2.38h1.68v-.77h3.15V1.218h1.764V-3.15h3.164v.7h1.75V-9.436Zm16.1,2.3h-1.064V-8.932h1.064Zm0,3.262h-1.064V-5.656h1.064ZM196.9-5.656H197.9v1.778H196.9Zm3.43,0v1.778H199.29V-5.656ZM199.29-7.14V-8.932h1.036V-7.14ZM196.9-8.932H197.9V-7.14H196.9Zm-1.47,1.792H193.55v1.484h1.876v1.778H193.76v1.484h12.166V-3.878H204.3V-5.656h1.82V-7.14H204.3V-8.932h1.316V-10.4h-8.4a7.537,7.537,0,0,0,.546-.98l-1.624-.476a8.609,8.609,0,0,1-2.9,3.346A15.417,15.417,0,0,1,194.6-7.42a9.62,9.62,0,0,0,.826-.728Zm-.434,8.372a7.661,7.661,0,0,0,1.6-2.94l-1.61-.392A6.9,6.9,0,0,1,193.41.588Zm2.492-2.842a17.773,17.773,0,0,1,.266,2.674l1.624-.238a18.13,18.13,0,0,0-.336-2.618Zm2.772.028a14.919,14.919,0,0,1,.714,2.66l1.666-.322a15.6,15.6,0,0,0-.812-2.6Zm2.772-.07a18.032,18.032,0,0,1,1.652,2.87l1.708-.574a18.988,18.988,0,0,0-1.764-2.8Zm17.164-5.194V-8.47h-3.654v-3.164h-1.652V-8.47H211.33v1.624h2.9a13.284,13.284,0,0,1-3.458,5.068V-8.3a22.09,22.09,0,0,0,1.442-2.954l-1.652-.532a14.364,14.364,0,0,1-3.542,5.376,12.088,12.088,0,0,1,.966,1.75,12.689,12.689,0,0,0,1.148-1.26V1.19h1.638v-2.8A9.233,9.233,0,0,1,211.9-.378a14.226,14.226,0,0,0,2.982-4.242V1.218h1.652V-4.9a14.311,14.311,0,0,0,2.828,4.452,5.934,5.934,0,0,1,1.246-1.33,13.694,13.694,0,0,1-3.346-5.068Zm5.39-5.082h-4.368v.07a8.675,8.675,0,0,1,2.772,6.538,8.675,8.675,0,0,1-2.772,6.538v.07h4.368Z" transform="translate(633.509 74.281)" fill="#1a1311"/><rect width="69" height="7" transform="translate(873.509 15.281)" fill="#ffd800"/><rect width="78" height="7" transform="translate(763.509 15.281)" fill="#ffd800"/><path d="M3.04-5.2a10.74,10.74,0,0,0-.448,2.608C2.592-.384,4.3.816,7.488.816A22.205,22.205,0,0,0,11.76.432l.048-2.1a17.519,17.519,0,0,1-4.32.464c-2.24,0-2.832-.784-2.832-1.936a7.111,7.111,0,0,1,.432-1.888Zm10.336-6.224a23.179,23.179,0,0,1-3.1.8c-.352-.832-.656-1.584-.928-2.416l-2.24.432a12.3,12.3,0,0,1,.784,1.52c.1.24.208.5.336.752A27,27,0,0,1,2.3-10.5l.064,2.032a35.6,35.6,0,0,0,6.672,0c.464.992,1.008,2.1,1.392,2.9C9.952-5.6,9.088-5.7,8.56-5.744L8.384-4.112c1.168.144,2.736.4,3.6.576l1.12-1.2C12.416-6,11.664-7.5,11.056-8.784c.96-.192,1.888-.416,2.688-.64ZM22.72-5.2a10.74,10.74,0,0,0-.448,2.608c0,2.208,1.712,3.408,4.9,3.408A22.205,22.205,0,0,0,31.44.432l.048-2.1a17.519,17.519,0,0,1-4.32.464c-2.24,0-2.832-.784-2.832-1.936a7.111,7.111,0,0,1,.432-1.888Zm10.336-6.224a23.179,23.179,0,0,1-3.1.8c-.352-.832-.656-1.584-.928-2.416l-2.24.432a12.3,12.3,0,0,1,.784,1.52c.1.24.208.5.336.752a27,27,0,0,1-5.92-.16l.064,2.032a35.6,35.6,0,0,0,6.672,0c.464.992,1.008,2.1,1.392,2.9-.48-.032-1.344-.128-1.872-.176l-.176,1.632c1.168.144,2.736.4,3.6.576l1.12-1.2C32.1-6,31.344-7.5,30.736-8.784c.96-.192,1.888-.416,2.688-.64ZM41.712-6.8l.816,2.08c1.36-.576,4.512-1.888,6.352-1.888a2.043,2.043,0,0,1,2.272,2.016c0,2.16-2.688,3.1-6.288,3.2L45.7.576c5.04-.3,7.552-2.272,7.552-5.136,0-2.4-1.68-3.888-4.176-3.888a22.738,22.738,0,0,0-5.68,1.232A13.539,13.539,0,0,1,41.712-6.8ZM70.9-11.152a10.941,10.941,0,0,1-1.456.96c-.752.416-2.128,1.12-3.424,1.872A37.148,37.148,0,0,1,64.032-12.7l-2,.816c.72,1.68,1.488,3.36,2.224,4.72-1.52,1.12-2.624,2.416-2.624,4.176,0,2.72,2.384,3.6,5.536,3.6A30.989,30.989,0,0,0,72.256.224l.032-2.288a26.5,26.5,0,0,1-5.184.576c-2.192,0-3.3-.608-3.3-1.744,0-1.1.88-2.016,2.208-2.88a48.526,48.526,0,0,1,4.416-2.352c.576-.288,1.088-.56,1.568-.848Z" transform="translate(766.509 17.281)" fill="#ed4c24"/><path d="M13.52-9.312c0-.464.032-1.1.048-1.472-.272.016-.928.032-1.392.032H12.1l1.1-.464a19.583,19.583,0,0,0-1.248-2.144l-1.312.544a14.425,14.425,0,0,1,1.184,2.064H4.112c-.56,0-1.376-.032-1.984-.1v2.224c.448-.032,1.312-.064,1.984-.064h7.2v6.624H3.92c-.72,0-1.44-.048-1.984-.1V.128C2.464.08,3.36.032,3.984.032H11.3c0,.288,0,.576-.016.832H13.6c-.048-.48-.08-1.328-.08-1.888Zm-.736-4.016a18.966,18.966,0,0,1,1.28,2.144l1.328-.576c-.3-.56-.88-1.536-1.28-2.112ZM17.472-4.9c.592-.048,1.664-.08,2.576-.08H28.64c.672,0,1.488.064,1.872.08V-7.408c-.416.032-1.136.1-1.872.1H20.048c-.832,0-2-.048-2.576-.1ZM45.52-9.312c0-.464.032-1.1.048-1.472-.272.016-.928.032-1.392.032H44.1l1.1-.464a19.582,19.582,0,0,0-1.248-2.144l-1.312.544a14.425,14.425,0,0,1,1.184,2.064H36.112c-.56,0-1.376-.032-1.984-.1v2.224c.448-.032,1.312-.064,1.984-.064h7.2v6.624H35.92c-.72,0-1.44-.048-1.984-.1V.128c.528-.048,1.424-.1,2.048-.1H43.3c0,.288,0,.576-.016.832H45.6c-.048-.48-.08-1.328-.08-1.888Zm-.736-4.016a18.966,18.966,0,0,1,1.28,2.144l1.328-.576c-.3-.56-.88-1.536-1.28-2.112ZM49.472-4.9c.592-.048,1.664-.08,2.576-.08H60.64c.672,0,1.488.064,1.872.08V-7.408c-.416.032-1.136.1-1.872.1H52.048c-.832,0-2-.048-2.576-.1Z" transform="translate(876.509 17.281)" fill="#ed4c24"/><path d="M13.05.562q-11.5,0-11.5-16.149,0-8.378,3.111-12.769a10.365,10.365,0,0,1,9.018-4.391q11.23,0,11.23,16.419,0,8.176-3.066,12.533A10.1,10.1,0,0,1,13.05.562Zm.314-27.9q-4.6,0-4.6,11.567,0,10.894,4.515,10.894,4.4,0,4.4-11.23T13.364-27.335Zm32.242-5.593V0H38.531V-24.932a8.473,8.473,0,0,1-1.381.977,14.26,14.26,0,0,1-1.7.831,15.142,15.142,0,0,1-1.864.629,13.616,13.616,0,0,1-1.909.371V-28.1a29.514,29.514,0,0,0,5.211-2.066,29.655,29.655,0,0,0,4.425-2.763ZM63.474-5.885H77.13V0H55.7V-2.426a11.291,11.291,0,0,1,.831-4.436,14.721,14.721,0,0,1,2.089-3.526,18.119,18.119,0,0,1,2.751-2.763q1.494-1.2,2.841-2.167Q65.63-16.329,66.7-17.25a14.143,14.143,0,0,0,1.8-1.831,6.959,6.959,0,0,0,1.089-1.842,5.477,5.477,0,0,0,.359-1.988,4,4,0,0,0-1.168-3.122A5.192,5.192,0,0,0,65.2-27.088a12,12,0,0,0-7.951,3.3V-30.03a17.068,17.068,0,0,1,9.479-2.718,14,14,0,0,1,4.391.64,9.29,9.29,0,0,1,3.291,1.831,7.807,7.807,0,0,1,2.055,2.886,9.74,9.74,0,0,1,.708,3.785,10.671,10.671,0,0,1-.685,3.953,12.147,12.147,0,0,1-1.819,3.145,16.5,16.5,0,0,1-2.617,2.594q-1.482,1.179-3.077,2.28-1.078.764-2.078,1.516a19.7,19.7,0,0,0-1.763,1.482A8.047,8.047,0,0,0,63.923-7.21,2.462,2.462,0,0,0,63.474-5.885ZM93.807.562q-11.5,0-11.5-16.149,0-8.378,3.111-12.769a10.365,10.365,0,0,1,9.018-4.391q11.23,0,11.23,16.419,0,8.176-3.066,12.533A10.1,10.1,0,0,1,93.807.562Zm.314-27.9q-4.6,0-4.6,11.567,0,10.894,4.515,10.894,4.4,0,4.4-11.23T94.121-27.335ZM123.174-9.793H110.888v-4.964h12.286Zm6.188,8.737V-7.232a12.467,12.467,0,0,0,7.547,2.358,6.794,6.794,0,0,0,4.234-1.168A3.878,3.878,0,0,0,142.658-9.3a3.7,3.7,0,0,0-1.875-3.324,9.716,9.716,0,0,0-5.155-1.168h-2.987v-5.436H135.4q6.289,0,6.289-4.178,0-3.931-4.829-3.931a11.01,11.01,0,0,0-6.289,2.089v-5.795a17.369,17.369,0,0,1,7.906-1.707q4.941,0,7.693,2.224a7.077,7.077,0,0,1,2.751,5.772q0,6.312-6.4,7.906v.112a8.7,8.7,0,0,1,5.391,2.482,7,7,0,0,1,1.977,5.042,8.642,8.642,0,0,1-3.3,7.143Q143.287.562,137.47.562A17.625,17.625,0,0,1,129.362-1.056Zm26.919,0V-7.232a12.467,12.467,0,0,0,7.547,2.358,6.794,6.794,0,0,0,4.234-1.168A3.878,3.878,0,0,0,169.577-9.3a3.7,3.7,0,0,0-1.875-3.324,9.716,9.716,0,0,0-5.155-1.168H159.56v-5.436h2.763q6.289,0,6.289-4.178,0-3.931-4.829-3.931a11.01,11.01,0,0,0-6.289,2.089v-5.795a17.369,17.369,0,0,1,7.906-1.707q4.941,0,7.693,2.224a7.077,7.077,0,0,1,2.751,5.772q0,6.312-6.4,7.906v.112a8.7,8.7,0,0,1,5.391,2.482,7,7,0,0,1,1.977,5.042,8.642,8.642,0,0,1-3.3,7.143q-3.3,2.628-9.119,2.628A17.625,17.625,0,0,1,156.281-1.056Zm42.979-31.872V0h-7.075V-24.932a8.473,8.473,0,0,1-1.381.977,14.26,14.26,0,0,1-1.7.831,15.142,15.142,0,0,1-1.864.629,13.616,13.616,0,0,1-1.909.371V-28.1a29.514,29.514,0,0,0,5.211-2.066,29.655,29.655,0,0,0,4.425-2.763ZM220.54.562q-11.5,0-11.5-16.149,0-8.378,3.111-12.769a10.365,10.365,0,0,1,9.018-4.391q11.23,0,11.23,16.419,0,8.176-3.066,12.533A10.1,10.1,0,0,1,220.54.562Zm.314-27.9q-4.6,0-4.6,11.567,0,10.894,4.515,10.894,4.4,0,4.4-11.23T220.855-27.335ZM249.908-9.793H237.621v-4.964h12.286Zm6.749,8.962V-6.9a13.24,13.24,0,0,0,7.03,2.021,6.6,6.6,0,0,0,4.391-1.336,4.5,4.5,0,0,0,1.583-3.627q0-4.784-6.761-4.784a50.063,50.063,0,0,0-5.75.382l1.213-17.969h17.048v5.795H263.777l-.449,6.446q1.729-.135,2.987-.135,4.964,0,7.771,2.605a9.1,9.1,0,0,1,2.808,7.008,10.344,10.344,0,0,1-3.347,7.962Q270.2.562,264.473.562A19.417,19.417,0,0,1,256.657-.831Zm26.919,0V-6.9a13.24,13.24,0,0,0,7.03,2.021A6.6,6.6,0,0,0,295-6.21a4.5,4.5,0,0,0,1.583-3.627q0-4.784-6.761-4.784a50.063,50.063,0,0,0-5.75.382l1.213-17.969H302.33v5.795H290.7l-.449,6.446q1.729-.135,2.987-.135,4.964,0,7.771,2.605a9.1,9.1,0,0,1,2.808,7.008,10.344,10.344,0,0,1-3.347,7.962Q297.12.562,291.392.562A19.417,19.417,0,0,1,283.576-.831Z" transform="translate(633.509 56.281)" fill="#ed4c24"/></g><g transform="translate(246.23 721.082)"><circle cx="22" cy="22" r="22" transform="translate(0.77 0.917)" fill="#ed4c24"/><path d="M23.946,18.092l-3.439-3.44a2.287,2.287,0,0,0-3.807.86A2.34,2.34,0,0,1,14,16.986c-2.456-.614-5.773-3.809-6.387-6.389a2.227,2.227,0,0,1,1.474-2.7,2.288,2.288,0,0,0,.859-3.809L6.505.645a2.452,2.452,0,0,0-3.316,0L.856,2.979c-2.333,2.457.246,8.969,6.019,14.743S19.157,26.2,21.613,23.743l2.333-2.334A2.454,2.454,0,0,0,23.946,18.092Z" transform="translate(13.379 8.698) rotate(11)" fill="#fff"/></g><path d="M-12.768-7.154V-6.4h-1.61v-.756Zm3.136.756h-1.652v-.756h1.652Zm-1.652,1.946v-.784h1.652v.784Zm-3.094,0v-.784h1.61v.784Zm0,1.2h1.61V-1.2h1.484V-3.248h1.652V-2.6c0,.14-.042.2-.21.21-.14,0-.63,0-1.064-.014a4.552,4.552,0,0,1,.406,1.3,4.213,4.213,0,0,0,1.89-.238c.448-.224.574-.574.574-1.246V-8.358H-9.73c-.238-.14-.532-.28-.84-.434a15.935,15.935,0,0,0,2.492-1.89l-.994-.8-.322.084H-15.82v1.26h4.984a12.935,12.935,0,0,1-1.12.742c-.574-.252-1.162-.476-1.652-.658l-1.078.9c.574.224,1.246.5,1.876.8h-3.136v7.21h1.568Zm-2.338-6.16a11.991,11.991,0,0,0-2.436-2.156L-20.3-10.5a11.365,11.365,0,0,1,2.338,2.282Zm-.42,2.982H-20.51V-4.9h1.778v3.052a19.27,19.27,0,0,1-1.96,1.274l.77,1.666C-19.138.5-18.48-.042-17.836-.588A4.343,4.343,0,0,0-14.21.966c1.708.07,4.676.042,6.4-.042A6.879,6.879,0,0,1-7.294-.7c-1.918.154-5.236.2-6.9.126a3.2,3.2,0,0,1-2.94-1.386Zm15.47-5H-5.8v1.26h4.13Zm-1.358,9.17v1.6h-1.5v-1.6ZM-1.61-3.57H-5.922V1.2h1.4V.658H-1.61Zm-4.27-.714h4.2v-1.26h-4.2Zm4.2-3.206h-4.2v1.246h4.2Zm-4.858-.686h5.32V-9.492h-5.32ZM4.368-.952H1.19v-1.96H4.368ZM6.594-6.258V-7.812H3.584V-9.758a21.29,21.29,0,0,0,2.646-.574L5.054-11.718A30.6,30.6,0,0,1-.882-10.7,5.448,5.448,0,0,1-.434-9.3c.742-.056,1.54-.126,2.324-.224v1.708H-1.12v1.554H1.89V-4.41H-.392V1.218H1.19V.546H4.368v.616H6.034V-4.41H3.584V-6.258Zm10.472-3.15A10.521,10.521,0,0,0,14.84-11.1l-.8,1.12a11.264,11.264,0,0,1,2.17,1.82ZM13.4-6.454a11.821,11.821,0,0,1,2.3,1.736l.84-1.33a12.3,12.3,0,0,0-2.352-1.61Zm-1.26-4.634a23.811,23.811,0,0,1-.77,3.276l1.05.294c.35-.812.756-2.142,1.12-3.262ZM9.422-7.812a14.037,14.037,0,0,0-.714-3.206l-1.162.308a13.875,13.875,0,0,1,.63,3.22Zm3.822,4.606c-.294-.392-1.624-1.96-2.03-2.366v-.1h2.072V-7.224H11.214V-11.8H9.674v4.578H7.56V-5.67h1.6A12.961,12.961,0,0,1,7.308-2.044,9.893,9.893,0,0,1,8.064-.322a14.368,14.368,0,0,0,1.61-3.444V1.176h1.54V-3.738a18.7,18.7,0,0,1,1.008,1.82Zm7.406.322L20.4-4.438l-1.428.266v-7.7H17.4v7.98l-4.158.742L13.5-1.6,17.4-2.3V1.2H18.97v-3.78ZM-11.046,9.86H-12.11V8.068h1.064Zm0,3.262H-12.11V11.344h1.064Zm-5.88-1.778h1.008v1.778h-1.008Zm3.43,0v1.778h-1.036V11.344ZM-14.532,9.86V8.068H-13.5V9.86Zm-2.394-1.792h1.008V9.86h-1.008ZM-18.4,9.86h-1.876v1.484H-18.4v1.778h-1.666v1.484H-7.9V13.122H-9.52V11.344H-7.7V9.86H-9.52V8.068H-8.2V6.6h-8.4a7.537,7.537,0,0,0,.546-.98l-1.624-.476a8.609,8.609,0,0,1-2.9,3.346A15.418,15.418,0,0,1-19.222,9.58a9.62,9.62,0,0,0,.826-.728Zm-.434,8.372a7.661,7.661,0,0,0,1.6-2.94l-1.61-.392a6.9,6.9,0,0,1-1.568,2.688Zm2.492-2.842a17.772,17.772,0,0,1,.266,2.674l1.624-.238a18.129,18.129,0,0,0-.336-2.618Zm2.772.028a14.919,14.919,0,0,1,.714,2.66l1.666-.322a15.6,15.6,0,0,0-.812-2.6Zm2.772-.07a18.032,18.032,0,0,1,1.652,2.87l1.708-.574a18.989,18.989,0,0,0-1.764-2.8ZM3.066,7.592A10.521,10.521,0,0,0,.84,5.9l-.8,1.12a11.264,11.264,0,0,1,2.17,1.82ZM-.6,10.546a11.821,11.821,0,0,1,2.3,1.736l.84-1.33A12.3,12.3,0,0,0,.182,9.342Zm-1.26-4.634a23.811,23.811,0,0,1-.77,3.276l1.05.294c.35-.812.756-2.142,1.12-3.262ZM-4.578,9.188a14.037,14.037,0,0,0-.714-3.206l-1.162.308a13.875,13.875,0,0,1,.63,3.22Zm3.822,4.606c-.294-.392-1.624-1.96-2.03-2.366v-.1H-.714V9.776H-2.786V5.2h-1.54V9.776H-6.44V11.33h1.6a12.961,12.961,0,0,1-1.848,3.626,9.893,9.893,0,0,1,.756,1.722,14.368,14.368,0,0,0,1.61-3.444v4.942h1.54V13.262a18.7,18.7,0,0,1,1.008,1.82Zm7.406.322L6.4,12.562l-1.428.266v-7.7H3.4v7.98l-4.158.742L-.5,15.4,3.4,14.7v3.5H4.97v-3.78Zm6.636-.714h1.442l.49-4.788.07-2.086H12.726l.056,2.086ZM14,17.126a1.369,1.369,0,0,0,1.456-1.372,1.458,1.458,0,0,0-2.912,0A1.369,1.369,0,0,0,14,17.126Z" transform="translate(221 740)" fill="#ed4c24"/></g></svg>