<svg xmlns="http://www.w3.org/2000/svg" width="200" height="158" viewBox="0 0 200 158"><g transform="translate(-186 -3923)"><g transform="translate(186 3923)" fill="#fff" stroke="#03a58e" stroke-width="3" opacity="0"><rect width="200" height="158" rx="10" stroke="none"/><rect x="1.5" y="1.5" width="197" height="155" rx="8.5" fill="none"/></g><g transform="translate(217.879 3959.033)"><path d="M9.09,47.875.064,115.348c-.542,4.05,2.5,7.335,6.8,7.335h61.07a8.923,8.923,0,0,0,8.764-7.335l9.027-67.473Zm0,0" transform="translate(0 -38.31)" fill="#c9b77d"/><path d="M136.348,121.074,124.231,47.867H47.6l12.117,73.207a9.543,9.543,0,0,0,8.985,7.85h61.262C134.206,128.925,137.065,125.41,136.348,121.074Zm0,0" transform="translate(-38.489 -38.304)" fill="#ffeead"/><path d="M124.231,47.867H47.6l3.156,19.065h76.633Zm0,0" transform="translate(-38.489 -38.304)" fill="#03a58e"/><path d="M403.083,208.754h-6.751l1.141,6.9h6.751Zm0,0" transform="translate(-320.495 -168.406)" fill="#ff6f69"/><g transform="translate(22.454 40.348)"><path d="M356.583,208.754h-6.751l1.141,6.9h6.751Zm0,0" transform="translate(-305.347 -208.754)" fill="#96ceb4"/><path d="M310.083,208.754h-6.751l1.141,6.9h6.752Zm0,0" transform="translate(-267.744 -208.754)" fill="#96ceb4"/><path d="M263.591,208.754H256.84l1.141,6.9h6.751Zm0,0" transform="translate(-230.148 -208.754)" fill="#96ceb4"/><path d="M217.091,208.754H210.34l1.141,6.9h6.751Zm0,0" transform="translate(-192.546 -208.754)" fill="#96ceb4"/><path d="M170.591,208.754H163.84l1.141,6.9h6.752Zm0,0" transform="translate(-154.943 -208.754)" fill="#96ceb4"/><path d="M124.095,208.754h-6.751l1.141,6.9h6.751Zm0,0" transform="translate(-117.344 -208.754)" fill="#96ceb4"/></g><path d="M410.764,255.176h-6.752l1.141,6.9h6.752Zm0,0" transform="translate(-326.705 -205.945)" fill="#ff6f69"/><path d="M364.27,255.176H357.52l1.141,6.9h6.751Zm0,0" transform="translate(-289.109 -205.945)" fill="#96ceb4"/><path d="M317.77,255.176H311.02l1.141,6.9h6.751Zm0,0" transform="translate(-251.506 -205.945)" fill="#96ceb4"/><path d="M271.271,255.176H264.52l1.142,6.9h6.751Zm0,0" transform="translate(-213.904 -205.945)" fill="#96ceb4"/><path d="M224.774,255.176h-6.751l1.141,6.9h6.751Zm0,0" transform="translate(-176.304 -205.945)" fill="#96ceb4"/><path d="M178.274,255.176h-6.751l1.141,6.9h6.751Zm0,0" transform="translate(-138.702 -205.945)" fill="#96ceb4"/><path d="M131.776,255.176h-6.752l1.142,6.9h6.752Zm0,0" transform="translate(-101.099 -205.945)" fill="#96ceb4"/><path d="M418.45,301.6H411.7l1.141,6.9h6.751Zm0,0" transform="translate(-332.921 -243.487)" fill="#ff6f69"/><path d="M371.951,301.6H365.2l1.142,6.9h6.751Zm0,0" transform="translate(-295.319 -243.487)" fill="#96ceb4"/><path d="M325.454,301.6H318.7l1.141,6.9H326.6Zm0,0" transform="translate(-257.72 -243.487)" fill="#96ceb4"/><path d="M278.954,301.6H272.2l1.141,6.9H280.1Zm0,0" transform="translate(-220.117 -243.487)" fill="#96ceb4"/><path d="M232.456,301.6H225.7l1.142,6.9H233.6Zm0,0" transform="translate(-182.515 -243.487)" fill="#96ceb4"/><path d="M185.959,301.6h-6.752l1.141,6.9H187.1Zm0,0" transform="translate(-144.915 -243.487)" fill="#96ceb4"/><path d="M139.459,301.6h-6.752l1.141,6.9H140.6Zm0,0" transform="translate(-107.313 -243.487)" fill="#96ceb4"/><path d="M426.134,348.023h-6.751l1.141,6.9h6.751Zm0,0" transform="translate(-339.135 -281.027)" fill="#ff6f69"/><path d="M379.634,348.023h-6.751l1.141,6.9h6.751Zm0,0" transform="translate(-301.532 -281.027)" fill="#96ceb4"/><path d="M333.138,348.023h-6.752l1.141,6.9h6.752Zm0,0" transform="translate(-263.933 -281.027)" fill="#96ceb4"/><path d="M286.638,348.023h-6.752l1.141,6.9h6.752Zm0,0" transform="translate(-226.331 -281.027)" fill="#96ceb4"/><path d="M240.138,348.023h-6.752l1.141,6.9h6.752Zm0,0" transform="translate(-188.728 -281.027)" fill="#96ceb4"/><path d="M193.645,348.023h-6.751l1.141,6.9h6.751Zm0,0" transform="translate(-151.132 -281.027)" fill="#96ceb4"/><path d="M147.145,348.023h-6.751l1.141,6.9h6.751Zm0,0" transform="translate(-113.529 -281.027)" fill="#96ceb4"/><path d="M388.324,78.91c-1.2,0-2.119,1.22-2.055,2.724a2.629,2.629,0,0,0,2.289,2.724,2.373,2.373,0,0,0,2.055-2.724A2.629,2.629,0,0,0,388.324,78.91Zm0,0" transform="translate(-312.354 -63.407)" fill="#025035"/><path d="M381.4,70.262c-2.091,0-3.707,1.964-3.6,4.379s1.889,4.379,3.979,4.379,3.707-1.964,3.6-4.379S383.5,70.262,381.4,70.262Zm.3,7.1a2.629,2.629,0,0,1-2.289-2.724c-.064-1.5.855-2.724,2.055-2.724a2.629,2.629,0,0,1,2.289,2.724C383.828,76.144,382.909,77.364,381.708,77.364Zm0,0" transform="translate(-305.505 -56.413)" fill="#016e48"/><path d="M361.412.5c-3.361,0-5.855,3.917-5.876,9.063h3.071c.059-3.435,1.529-5.755,2.947-5.755,1.523,0,3.333,2.683,3.5,6.533.137,3.185-.922,5.571-2.153,6.3a1.575,1.575,0,0,0-.732,1.443,1.6,1.6,0,0,0,2.248,1.511c2.36-1.36,3.893-4.942,3.708-9.254C367.885,4.823,364.939.5,361.412.5Zm0,0" transform="translate(-287.504)" fill="#c9b77d"/><path d="M316.28,78.91a2.373,2.373,0,0,0-2.055,2.724,2.629,2.629,0,0,0,2.289,2.724,2.374,2.374,0,0,0,2.055-2.724A2.629,2.629,0,0,0,316.28,78.91Zm0,0" transform="translate(-254.096 -63.407)" fill="#025035"/><path d="M309.354,70.262c-2.091,0-3.707,1.964-3.6,4.379s1.889,4.379,3.979,4.379,3.707-1.964,3.6-4.379S311.446,70.262,309.354,70.262Zm.3,7.1a2.629,2.629,0,0,1-2.289-2.724c-.064-1.5.855-2.724,2.055-2.724a2.628,2.628,0,0,1,2.289,2.724A2.374,2.374,0,0,1,309.659,77.364Zm0,0" transform="translate(-247.241 -56.413)" fill="#016e48"/><path d="M289.369.5c-3.361,0-5.855,3.917-5.876,9.063h3.071c.059-3.435,1.529-5.755,2.948-5.755,1.523,0,3.333,2.683,3.5,6.533.136,3.185-.922,5.571-2.153,6.3a1.574,1.574,0,0,0-.733,1.443,1.6,1.6,0,0,0,2.248,1.511c2.36-1.36,3.893-4.942,3.708-9.254C295.842,4.823,292.895.5,289.369.5Zm0,0" transform="translate(-229.246)" fill="#c9b77d"/><path d="M244.233,78.91a2.372,2.372,0,0,0-2.055,2.724,2.628,2.628,0,0,0,2.288,2.724,2.373,2.373,0,0,0,2.055-2.724A2.626,2.626,0,0,0,244.233,78.91Zm0,0" transform="translate(-195.834 -63.407)" fill="#025035"/><path d="M237.311,70.262c-2.091,0-3.707,1.964-3.6,4.379s1.889,4.379,3.979,4.379,3.707-1.964,3.6-4.379S239.4,70.262,237.311,70.262Zm.3,7.1a2.628,2.628,0,0,1-2.289-2.724,2.371,2.371,0,0,1,2.055-2.724,2.629,2.629,0,0,1,2.289,2.724A2.374,2.374,0,0,1,237.616,77.364Zm0,0" transform="translate(-188.983 -56.413)" fill="#016e48"/><path d="M217.326.5c-3.361,0-5.855,3.917-5.876,9.063h3.071c.059-3.435,1.529-5.755,2.948-5.755,1.523,0,3.333,2.683,3.5,6.533.137,3.185-.922,5.571-2.153,6.3a1.575,1.575,0,0,0-.732,1.443,1.6,1.6,0,0,0,2.248,1.511c2.36-1.36,3.893-4.942,3.708-9.254C223.8,4.823,220.851.5,217.326.5Zm0,0" transform="translate(-170.988)" fill="#c9b77d"/><path d="M172.187,78.91a2.373,2.373,0,0,0-2.055,2.724,2.629,2.629,0,0,0,2.289,2.724,2.372,2.372,0,0,0,2.055-2.724A2.627,2.627,0,0,0,172.187,78.91Zm0,0" transform="translate(-137.574 -63.407)" fill="#025035"/><path d="M165.268,70.262c-2.091,0-3.707,1.964-3.6,4.379s1.889,4.379,3.979,4.379,3.707-1.964,3.6-4.379S167.359,70.262,165.268,70.262Zm.3,7.1a2.629,2.629,0,0,1-2.289-2.724c-.064-1.5.856-2.724,2.055-2.724a2.628,2.628,0,0,1,2.289,2.724A2.372,2.372,0,0,1,165.571,77.364Zm0,0" transform="translate(-130.725 -56.413)" fill="#016e48"/><path d="M145.278.5c-3.361,0-5.855,3.917-5.876,9.063h3.071c.058-3.435,1.528-5.755,2.948-5.755,1.523,0,3.333,2.683,3.5,6.533.136,3.185-.922,5.571-2.153,6.3a1.572,1.572,0,0,0-.732,1.443,1.6,1.6,0,0,0,2.249,1.511c2.36-1.36,3.893-4.942,3.708-9.254C151.753,4.823,148.805.5,145.278.5Zm0,0" transform="translate(-112.727)" fill="#c9b77d"/><path d="M100.144,78.91c-1.2,0-2.119,1.22-2.055,2.724a2.629,2.629,0,0,0,2.289,2.724,2.373,2.373,0,0,0,2.055-2.724A2.627,2.627,0,0,0,100.144,78.91Zm0,0" transform="translate(-79.316 -63.407)" fill="#025035"/><path d="M93.225,70.262c-2.091,0-3.707,1.964-3.6,4.379s1.889,4.379,3.979,4.379,3.707-1.964,3.6-4.379S95.316,70.262,93.225,70.262Zm.3,7.1A2.629,2.629,0,0,1,91.24,74.64c-.064-1.5.856-2.724,2.055-2.724a2.628,2.628,0,0,1,2.289,2.724A2.373,2.373,0,0,1,93.528,77.364Zm0,0" transform="translate(-72.467 -56.413)" fill="#016e48"/><path d="M73.232.5c-3.361,0-5.855,3.917-5.876,9.063h3.072c.058-3.435,1.528-5.755,2.948-5.755,1.522,0,3.333,2.683,3.5,6.533.136,3.185-.922,5.571-2.153,6.3a1.574,1.574,0,0,0-.733,1.443,1.6,1.6,0,0,0,2.25,1.511c2.36-1.36,3.893-4.942,3.708-9.254C79.705,4.823,76.759.5,73.232.5Zm0,0" transform="translate(-54.466)" fill="#c9b77d"/></g><g transform="translate(-25.264 2341.87)" opacity="0.35"><line x2="88" y2="88" transform="translate(249.13 1619.13)" fill="none" stroke="#ef2e00" stroke-width="12"/><line x1="88" y2="88" transform="translate(249.13 1619.13)" fill="none" stroke="#ef2e00" stroke-width="12"/></g><g transform="translate(-10 122)"><path d="M9.892,0l9.892,18.8H0Z" transform="translate(326.901 3894.067) rotate(-137)" fill="#eb6d4e"/><circle cx="41" cy="41" r="41" transform="translate(314 3812)" fill="#eb6d4e"/><path d="M1.764-3.96a.657.657,0,0,1-.48-.2.657.657,0,0,1-.2-.48.637.637,0,0,1,.2-.474.667.667,0,0,1,.48-.2h1.86a.1.1,0,0,0,.108-.108L3.8-6.7q0-.108-.1-.108H2.076A.647.647,0,0,1,1.6-7a.647.647,0,0,1-.2-.474.667.667,0,0,1,.2-.48.637.637,0,0,1,.474-.2H3.792q.108,0,.108-.1t.024-.318q.012-.21.024-.318a.635.635,0,0,1,.234-.468.693.693,0,0,1,.5-.18h.24a.64.64,0,0,1,.462.216.606.606,0,0,1,.162.48l-.036.576q0,.108.1.108h3.48a.637.637,0,0,1,.474.2.667.667,0,0,1,.2.48.647.647,0,0,1-.2.474.647.647,0,0,1-.474.2H5.508q-.108,0-.108.1-.024.564-.072,1.284a.1.1,0,0,0,.108.108H8.244a.647.647,0,0,1,.474.2.647.647,0,0,1,.2.474.667.667,0,0,1-.2.48.637.637,0,0,1-.474.2H5.376a.1.1,0,0,0-.108.108Q5.244-2.82,5.244-2.52a2.126,2.126,0,0,0,.348,1.47,2.481,2.481,0,0,0,1.572.33,3.585,3.585,0,0,0,1.842-.336,1.262,1.262,0,0,0,.51-1.14q0-.084-.024-.324a.763.763,0,0,1,.114-.522.646.646,0,0,1,.414-.294l.156-.036a.639.639,0,0,1,.51.1.629.629,0,0,1,.282.432,4.894,4.894,0,0,1,.072.768A2.442,2.442,0,0,1,10.1.036,5.027,5.027,0,0,1,7.164.72,4.176,4.176,0,0,1,4.392.03a3.388,3.388,0,0,1-.756-2.55q0-.3.024-1.332,0-.108-.1-.108ZM13.836-6.8a.647.647,0,0,1-.474-.2.647.647,0,0,1-.2-.474.667.667,0,0,1,.2-.48.637.637,0,0,1,.474-.2H15.7a.121.121,0,0,0,.132-.1q.06-.264.12-.732a.717.717,0,0,1,.264-.45.729.729,0,0,1,.5-.162h.168a.586.586,0,0,1,.45.228.59.59,0,0,1,.126.492l-.108.612q-.024.108.084.108h4.728a.637.637,0,0,1,.474.2.667.667,0,0,1,.2.48.647.647,0,0,1-.2.474.647.647,0,0,1-.474.2H17.112a.113.113,0,0,0-.12.1q-.264.912-.648,1.9v.024h.024A6.949,6.949,0,0,1,18.8-5.28a3.85,3.85,0,0,1,2.526.726,2.545,2.545,0,0,1,.87,2.07A2.611,2.611,0,0,1,20.994-.246,5.532,5.532,0,0,1,17.76.6,14.885,14.885,0,0,1,15.432.408a.649.649,0,0,1-.438-.282.665.665,0,0,1-.114-.51V-.408a.629.629,0,0,1,.282-.432.678.678,0,0,1,.51-.108,13.124,13.124,0,0,0,2.088.192,3.814,3.814,0,0,0,2.076-.492A1.494,1.494,0,0,0,20.6-2.556q0-1.368-1.884-1.368a5.462,5.462,0,0,0-2.592.648,1.383,1.383,0,0,1-1.212.084L14.8-3.24a.662.662,0,0,1-.36-.36.586.586,0,0,1,.012-.5,20.057,20.057,0,0,0,1-2.592q.024-.108-.072-.108ZM26.268-3.168a.641.641,0,0,1-.48.03.606.606,0,0,1-.372-.306.659.659,0,0,1-.054-.486.651.651,0,0,1,.294-.4L30.7-7.584l.012-.012H26.82a.633.633,0,0,1-.462-.2.633.633,0,0,1-.2-.462.633.633,0,0,1,.2-.462.633.633,0,0,1,.462-.2H32.8a.687.687,0,0,1,.486.2.629.629,0,0,1,.21.474v.036a1.059,1.059,0,0,1-.15.588,1.164,1.164,0,0,1-.438.432L29.568-5.316l-.012.012a.035.035,0,0,0,.024.012,6.813,6.813,0,0,1,1.5-.192,4.441,4.441,0,0,1,2.676.666,2.235,2.235,0,0,1,.888,1.9A2.949,2.949,0,0,1,33.42-.366,6.178,6.178,0,0,1,29.8.516q-.96,0-1.956-.072A.666.666,0,0,1,27.354.21a.744.744,0,0,1-.2-.51V-.384a.6.6,0,0,1,.2-.45A.588.588,0,0,1,27.828-1q.936.072,1.848.072,3.2,0,3.2-1.86a1.233,1.233,0,0,0-.564-1.11,3.582,3.582,0,0,0-1.872-.366A10.008,10.008,0,0,0,26.268-3.168ZM37.584.42a.635.635,0,0,1-.378-.354.676.676,0,0,1-.018-.522q1.872-4.8,3.336-8.448a.724.724,0,0,1,.372-.39.724.724,0,0,1,.54-.042l.132.036a.6.6,0,0,1,.378.33.617.617,0,0,1,.018.5q-.6,1.488-1.416,3.576v.024h.024a2.125,2.125,0,0,1,1.2-.444,1.492,1.492,0,0,1,1.242.594,4.3,4.3,0,0,1,.654,2,5.34,5.34,0,0,0,.324,1.41q.18.366.468.366.708,0,1.356-2.136a.667.667,0,0,1,.324-.408.653.653,0,0,1,.5-.06l.072.024a.663.663,0,0,1,.42.318.605.605,0,0,1,.06.51A6.615,6.615,0,0,1,46-.2a2.082,2.082,0,0,1-1.584.714A1.767,1.767,0,0,1,42.984-.1a4.492,4.492,0,0,1-.756-2.136A4.582,4.582,0,0,0,41.88-3.51a.552.552,0,0,0-.468-.354q-.576,0-1.224.864A16.031,16.031,0,0,0,38.6.072a.677.677,0,0,1-.372.378A.691.691,0,0,1,37.7.468Z" transform="translate(332 3845)" fill="#fff"/><path d="M2.134-8.976a1.2,1.2,0,0,1-.88-.374,1.2,1.2,0,0,1-.374-.88,1.2,1.2,0,0,1,.374-.88,1.2,1.2,0,0,1,.88-.374H3.146a.156.156,0,0,0,.176-.176.319.319,0,0,0-.154-.264L2.09-12.562a.908.908,0,0,1-.473-.715A1.021,1.021,0,0,1,1.87-14.1a27.136,27.136,0,0,0,2.618-3.454,1.9,1.9,0,0,1,.825-.693,1.67,1.67,0,0,1,1.045-.121l.484.11a.929.929,0,0,1,.66.539.829.829,0,0,1-.044.825q-.022.022-.066.077a.169.169,0,0,0-.044.077.087.087,0,0,0-.011.11.106.106,0,0,0,.1.066H19.074a1.124,1.124,0,0,1,.825.341,1.124,1.124,0,0,1,.341.825,1.124,1.124,0,0,1-.341.825,1.124,1.124,0,0,1-.825.341h-.2a.175.175,0,0,0-.2.2v2.376q0,.176.2.176h.99a1.2,1.2,0,0,1,.88.374,1.2,1.2,0,0,1,.374.88,1.2,1.2,0,0,1-.374.88,1.2,1.2,0,0,1-.88.374h-.99q-.2,0-.2.176v2.552a.175.175,0,0,0,.2.2h.66a1.106,1.106,0,0,1,.814.33,1.106,1.106,0,0,1,.33.814,1.07,1.07,0,0,1-.33.8,1.126,1.126,0,0,1-.814.319H2.464A1.126,1.126,0,0,1,1.65-4.1a1.07,1.07,0,0,1-.33-.8,1.106,1.106,0,0,1,.33-.814,1.106,1.106,0,0,1,.814-.33h.66a.175.175,0,0,0,.2-.2V-8.8q0-.176-.2-.176Zm12.3-5.06v2.376a.156.156,0,0,0,.176.176h1.056q.2,0,.2-.176v-2.376a.175.175,0,0,0-.2-.2H14.608Q14.432-14.234,14.432-14.036Zm0,5.236v2.552q0,.2.176.2h1.056a.175.175,0,0,0,.2-.2V-8.8q0-.176-.2-.176H14.608A.156.156,0,0,0,14.432-8.8Zm-4.18-5.236v2.376a.156.156,0,0,0,.176.176h1.144a.156.156,0,0,0,.176-.176v-2.376q0-.2-.176-.2H10.428Q10.252-14.234,10.252-14.036Zm0,5.236v2.552q0,.2.176.2h1.144q.176,0,.176-.2V-8.8a.156.156,0,0,0-.176-.176H10.428A.156.156,0,0,0,10.252-8.8ZM6.138-14.036v2.376q0,.176.2.176H7.392a.156.156,0,0,0,.176-.176v-2.376q0-.2-.176-.2H6.336A.175.175,0,0,0,6.138-14.036Zm0,5.236v2.552a.175.175,0,0,0,.2.2H7.392q.176,0,.176-.2V-8.8a.156.156,0,0,0-.176-.176H6.336Q6.138-8.976,6.138-8.8ZM4.972-3.036,5.1-2.97a1.207,1.207,0,0,1,.616.726,1.083,1.083,0,0,1-.11.924Q4.818.022,3.96,1.232a1.3,1.3,0,0,1-.836.517,1.281,1.281,0,0,1-.968-.187L2,1.452A1.12,1.12,0,0,1,1.485.693,1.111,1.111,0,0,1,1.694-.22q.7-.968,1.518-2.288A1.4,1.4,0,0,1,3.993-3.1,1.334,1.334,0,0,1,4.972-3.036Zm3.542.154a1.282,1.282,0,0,1,.957.253,1.269,1.269,0,0,1,.517.825q.088.484.352,2.4a1.126,1.126,0,0,1-.264.9,1.267,1.267,0,0,1-.836.462L8.976,2a1.158,1.158,0,0,1-.913-.264A1.251,1.251,0,0,1,7.59.9q-.22-1.54-.352-2.354a1.153,1.153,0,0,1,.209-.913,1.136,1.136,0,0,1,.8-.473Zm4.312-.088a1.476,1.476,0,0,1,1,.132,1.287,1.287,0,0,1,.649.726q.22.616.836,2.442a1.078,1.078,0,0,1-.1.913,1.108,1.108,0,0,1-.737.539l-.2.066a1.294,1.294,0,0,1-.968-.165A1.429,1.429,0,0,1,12.672.9q-.418-1.32-.814-2.376a1.053,1.053,0,0,1,.055-.9,1.03,1.03,0,0,1,.715-.55Zm4.224-.154a1.4,1.4,0,0,1,.99-.121,1.272,1.272,0,0,1,.814.561q.66.946,1.562,2.442a1.165,1.165,0,0,1,.132.935,1.142,1.142,0,0,1-.572.737l-.132.066a1.246,1.246,0,0,1-.957.1,1.354,1.354,0,0,1-.781-.583q-.792-1.276-1.562-2.42a1.1,1.1,0,0,1-.176-.9,1.065,1.065,0,0,1,.55-.726Zm19.008-8.844q-1.144-1.21-2.178-2.222a1.168,1.168,0,0,1-.352-.858,1.168,1.168,0,0,1,.352-.858l.11-.088a1.317,1.317,0,0,1,.935-.374,1.242,1.242,0,0,1,.913.374q.792.748,2.178,2.178a1.127,1.127,0,0,1,.319.88,1.333,1.333,0,0,1-.407.88l-.132.132a1.144,1.144,0,0,1-.869.341A1.183,1.183,0,0,1,36.058-11.968Zm-3.3,1.276.11-.11a1.3,1.3,0,0,1,.924-.374,1.229,1.229,0,0,1,.9.374q1.144,1.078,2.64,2.64a1.177,1.177,0,0,1,.33.891,1.3,1.3,0,0,1-.4.891l-.132.132a1.144,1.144,0,0,1-.869.341,1.183,1.183,0,0,1-.869-.385Q34.1-7.7,32.736-9a1.155,1.155,0,0,1-.352-.847A1.122,1.122,0,0,1,32.758-10.692ZM42.636-5.61a1.07,1.07,0,0,1,.913.2A1.082,1.082,0,0,1,44-4.62a1.393,1.393,0,0,1-.264.957,1.326,1.326,0,0,1-.836.539l-.682.132a.221.221,0,0,0-.176.242V.814a1.169,1.169,0,0,1-.374.869,1.222,1.222,0,0,1-.88.363h-.352a1.222,1.222,0,0,1-.88-.363,1.169,1.169,0,0,1-.374-.869v-2.97q0-.2-.176-.154L32.8-1.034a1.07,1.07,0,0,1-.913-.2,1.082,1.082,0,0,1-.451-.792,1.393,1.393,0,0,1,.264-.957,1.326,1.326,0,0,1,.836-.539l6.468-1.342a.208.208,0,0,0,.176-.22V-16.654a1.169,1.169,0,0,1,.374-.869,1.222,1.222,0,0,1,.88-.363h.352a1.222,1.222,0,0,1,.88.363,1.169,1.169,0,0,1,.374.869V-5.676q0,.2.176.154ZM23.54-1.276,23.32-1.8a2.057,2.057,0,0,1,.242-2.134A18.663,18.663,0,0,0,25.784-8.36q.044-.176-.132-.176H24.508a1.142,1.142,0,0,1-.836-.352,1.142,1.142,0,0,1-.352-.836,1.106,1.106,0,0,1,.352-.825,1.161,1.161,0,0,1,.836-.341H26.18a.175.175,0,0,0,.2-.2v-.7q0-.176-.176-.132l-.506.176a1.074,1.074,0,0,1-.924-.066,1.139,1.139,0,0,1-.572-.726q-.2-.748-.792-2.684a1.129,1.129,0,0,1,.077-.858,1.111,1.111,0,0,1,.649-.572,1.034,1.034,0,0,1,.847.055,1.036,1.036,0,0,1,.539.649q.506,1.628.814,2.926a.019.019,0,0,0,.022.022.019.019,0,0,0,.022-.022v-3.63a1.186,1.186,0,0,1,.363-.869,1.186,1.186,0,0,1,.869-.363H27.7a1.186,1.186,0,0,1,.869.363,1.186,1.186,0,0,1,.363.869v3.542q.022.022.066,0a30.185,30.185,0,0,0,.836-2.9,1.139,1.139,0,0,1,.495-.715,1.109,1.109,0,0,1,.847-.165,1.139,1.139,0,0,1,.715.495,1.041,1.041,0,0,1,.143.847q-.374,1.452-.9,3.058a1.126,1.126,0,0,1-.627.7,1.208,1.208,0,0,1-.957.044l-.44-.176q-.176-.044-.176.132v.7a.175.175,0,0,0,.2.2h1.32a1.124,1.124,0,0,1,.825.341,1.124,1.124,0,0,1,.341.825,1.161,1.161,0,0,1-.341.836,1.106,1.106,0,0,1-.825.352h-.484a.108.108,0,0,0-.1.055.1.1,0,0,0-.011.1q.55,1.056,1.628,3.212a1.436,1.436,0,0,1,.143.968,1.51,1.51,0,0,1-.495.858.8.8,0,0,1-.748.187.828.828,0,0,1-.594-.5q-.132-.264-.374-.836t-.352-.836q-.022-.044-.055-.044t-.033.044V.814a1.169,1.169,0,0,1-.374.869,1.222,1.222,0,0,1-.88.363h-.132a1.222,1.222,0,0,1-.88-.363,1.169,1.169,0,0,1-.374-.869V-4.268q0-.044-.022-.044a.063.063,0,0,0-.044.022A16.186,16.186,0,0,1,24.75-1.166a.612.612,0,0,1-.627.308A.689.689,0,0,1,23.54-1.276ZM48.048-4.84a1.248,1.248,0,0,1-.9-.363,1.272,1.272,0,0,1-.4-.891l-.33-8.712a1.163,1.163,0,0,1,.33-.88,1.134,1.134,0,0,1,.858-.374H48.8a1.134,1.134,0,0,1,.858.374,1.163,1.163,0,0,1,.33.88l-.33,8.712a1.272,1.272,0,0,1-.4.891,1.248,1.248,0,0,1-.9.363Zm.528,1.76a1.169,1.169,0,0,1,.869.374,1.222,1.222,0,0,1,.363.88v.572a1.222,1.222,0,0,1-.363.88A1.169,1.169,0,0,1,48.576,0h-.748a1.169,1.169,0,0,1-.869-.374,1.222,1.222,0,0,1-.363-.88v-.572a1.222,1.222,0,0,1,.363-.88,1.169,1.169,0,0,1,.869-.374Z" transform="translate(329 3868)" fill="#fff"/></g></g></svg>