<svg xmlns="http://www.w3.org/2000/svg" width="200" height="158" viewBox="0 0 200 158"><g transform="translate(-21.701 30.035)"><g transform="translate(21.701 -30.035)" fill="#fff" stroke="#03a58e" stroke-width="3" opacity="0"><rect width="200" height="158" rx="10" stroke="none"/><rect x="1.5" y="1.5" width="197" height="155" rx="8.5" fill="none"/></g><g transform="translate(-51.813 -367.296)"><path d="M1843.395,873.939l-71.149,51.7,45.467,18.417,26.979-66.094C1845.167,876.619,1845.427,875.236,1843.395,873.939Z" transform="translate(-1641.188 -491.518)" fill="#c2c3c3"/><g transform="translate(130.633 365.31)"><g transform="translate(0 0)"><path d="M1759.614,432.391l26.818-65.533a2.49,2.49,0,0,1,3.24-1.365l40.853,16.539a2.5,2.5,0,0,1,1.373,3.243l-26.816,65.533Z" transform="translate(-1759.614 -365.31)" fill="#d6d7d8"/><path d="M1994.163,2098.1a2.493,2.493,0,0,0-1.364-3.236l-3.3-1.336a2.494,2.494,0,0,0-3.234,1.374h0a2.492,2.492,0,0,0,1.367,3.237l3.3,1.337a2.487,2.487,0,0,0,3.233-1.376Z" transform="translate(-1978.461 -2035.217)" fill="#726d7c"/><path d="M2288,2217.035a2.5,2.5,0,0,0-1.374-3.241l-3.3-1.338a2.5,2.5,0,0,0-3.237,1.375v0a2.5,2.5,0,0,0,1.373,3.241l3.292,1.33a2.494,2.494,0,0,0,3.243-1.366Z" transform="translate(-2262.405 -2150.142)" fill="#726d7c"/><path d="M2581.635,2336.014a2.491,2.491,0,0,0-1.367-3.235l-3.3-1.344a2.5,2.5,0,0,0-3.237,1.375l0,0a2.5,2.5,0,0,0,1.377,3.24l3.3,1.336a2.493,2.493,0,0,0,3.235-1.375Z" transform="translate(-2546.159 -2265.118)" fill="#726d7c"/><path d="M2878.238,2249.4a2.494,2.494,0,0,0-1.37-3.236l-3.3-1.337a2.493,2.493,0,0,0-3.24,1.369l-2.8,6.921a2.486,2.486,0,0,0,1.366,3.235l3.306,1.343a2.5,2.5,0,0,0,3.235-1.375Z" transform="translate(-2830.079 -2181.425)" fill="#33374b"/><path d="M2077.43,1892.554a2.489,2.489,0,0,0-1.367-3.232l-3.293-1.331a2.5,2.5,0,0,0-3.242,1.367h0a2.5,2.5,0,0,0,1.372,3.244l3.3,1.328a2.485,2.485,0,0,0,3.233-1.377Z" transform="translate(-2058.927 -1836.589)" fill="#726d7c"/><path d="M2371.19,2011.4a2.5,2.5,0,0,0-1.375-3.239l-3.3-1.339a2.5,2.5,0,0,0-3.239,1.377h0a2.5,2.5,0,0,0,1.375,3.24l3.292,1.331a2.5,2.5,0,0,0,3.244-1.37Z" transform="translate(-2342.796 -1951.426)" fill="#726d7c"/><path d="M2664.953,2130.453a2.494,2.494,0,0,0-1.368-3.232l-3.3-1.338a2.5,2.5,0,0,0-3.244,1.369h0a2.494,2.494,0,0,0,1.374,3.24l3.3,1.337a2.5,2.5,0,0,0,3.237-1.376Z" transform="translate(-2626.675 -2066.478)" fill="#726d7c"/><path d="M2160.676,1686.852a2.5,2.5,0,0,0-1.373-3.243l-3.3-1.336a2.5,2.5,0,0,0-3.238,1.375h0a2.5,2.5,0,0,0,1.375,3.24l3.3,1.337a2.493,2.493,0,0,0,3.234-1.373Z" transform="translate(-2139.367 -1637.795)" fill="#726d7c"/><path d="M2454.442,1805.886a2.5,2.5,0,0,0-1.372-3.243l-3.3-1.33a2.5,2.5,0,0,0-3.242,1.372h0a2.5,2.5,0,0,0,1.376,3.238l3.3,1.34a2.5,2.5,0,0,0,3.237-1.376Z" transform="translate(-2423.249 -1752.829)" fill="#726d7c"/><path d="M2748.227,1924.783a2.492,2.492,0,0,0-1.362-3.238l-3.3-1.335a2.5,2.5,0,0,0-3.245,1.37h0a2.5,2.5,0,0,0,1.372,3.242l3.3,1.338a2.5,2.5,0,0,0,3.236-1.376Z" transform="translate(-2707.152 -1867.725)" fill="#726d7c"/><path d="M3042.052,2043.714a2.5,2.5,0,0,0-1.371-3.244l-3.3-1.334a2.506,2.506,0,0,0-3.237,1.374h0a2.5,2.5,0,0,0,1.372,3.243l3.3,1.338a2.493,2.493,0,0,0,3.236-1.377Z" transform="translate(-2991.094 -1982.653)" fill="#282b36"/><path d="M2243.957,1481.252a2.5,2.5,0,0,0-1.363-3.238l-3.3-1.335a2.5,2.5,0,0,0-3.244,1.369h0a2.505,2.505,0,0,0,1.374,3.241l3.3,1.338a2.5,2.5,0,0,0,3.236-1.376Z" transform="translate(-2219.849 -1439.114)" fill="#726d7c"/><path d="M2537.728,1600.164a2.494,2.494,0,0,0-1.371-3.244l-3.3-1.331a2.48,2.48,0,0,0-3.236,1.378h0a2.486,2.486,0,0,0,1.367,3.234l3.3,1.338a2.484,2.484,0,0,0,3.237-1.375Z" transform="translate(-2503.737 -1554.024)" fill="#726d7c"/><path d="M2831.444,1719.145a2.5,2.5,0,0,0-1.372-3.243l-3.3-1.338a2.5,2.5,0,0,0-3.245,1.371h0a2.5,2.5,0,0,0,1.372,3.242l3.3,1.339a2.5,2.5,0,0,0,3.243-1.37Z" transform="translate(-2787.563 -1668.997)" fill="#726d7c"/><path d="M3125.377,1838.082a2.489,2.489,0,0,0-1.366-3.238l-3.3-1.336a2.478,2.478,0,0,0-3.232,1.378h0a2.489,2.489,0,0,0,1.365,3.235l3.306,1.345a2.488,2.488,0,0,0,3.229-1.384Z" transform="translate(-3071.62 -1783.939)" fill="#282b36"/><path d="M2327.167,1275.7a2.5,2.5,0,0,0-1.364-3.236l-3.3-1.338a2.5,2.5,0,0,0-3.239,1.374h0a2.491,2.491,0,0,0,1.368,3.237l3.3,1.335a2.492,2.492,0,0,0,3.235-1.372Z" transform="translate(-2300.26 -1240.483)" fill="#726d7c"/><path d="M2621.054,1394.547a2.489,2.489,0,0,0-1.367-3.237l-3.3-1.339a2.493,2.493,0,0,0-3.235,1.379h0a2.5,2.5,0,0,0,1.373,3.244l3.293,1.328a2.482,2.482,0,0,0,3.236-1.375Z" transform="translate(-2584.262 -1355.326)" fill="#726d7c"/><path d="M2914.784,1513.634a2.5,2.5,0,0,0-1.367-3.24l-3.3-1.341a2.5,2.5,0,0,0-3.239,1.372h0a2.492,2.492,0,0,0,1.37,3.236l3.3,1.338a2.5,2.5,0,0,0,3.241-1.365Z" transform="translate(-2868.104 -1470.403)" fill="#726d7c"/><path d="M3208.6,1632.493a2.5,2.5,0,0,0-1.372-3.243l-3.3-1.336a2.491,2.491,0,0,0-3.235,1.377h0a2.488,2.488,0,0,0,1.367,3.233l3.305,1.345a2.494,2.494,0,0,0,3.234-1.376Z" transform="translate(-3152.041 -1585.263)" fill="#282b36"/><path d="M2417.971,1065.354l-3.295-1.333c-1.269-.512-2.622-.157-3.013.793a2.256,2.256,0,0,0,1.6,2.662l3.3,1.336c1.264.51,2.618.153,3.008-.793A2.257,2.257,0,0,0,2417.971,1065.354Z" transform="translate(-2389.629 -1040.288)" fill="#282b36"/><path d="M2711.837,1184.312l-3.292-1.331c-1.272-.515-2.623-.157-3.007.8s.337,2.15,1.606,2.662l3.3,1.338c1.264.508,2.619.151,3-.8S2713.107,1184.826,2711.837,1184.312Z" transform="translate(-2673.614 -1155.245)" fill="#282b36"/><path d="M3005.5,1303.281l-3.3-1.337c-1.267-.513-2.622-.156-3.014.792a2.261,2.261,0,0,0,1.606,2.664l3.309,1.34a2.256,2.256,0,0,0,3-.794C3007.483,1304.991,3006.759,1303.79,3005.5,1303.281Z" transform="translate(-2957.382 -1270.208)" fill="#282b36"/><path d="M3299.429,1422.154l-3.289-1.331c-1.276-.522-2.624-.158-3,.795s.334,2.152,1.6,2.666l3.3,1.334c1.26.512,2.614.154,3-.8S3300.7,1422.667,3299.429,1422.154Z" transform="translate(-3241.442 -1385.083)" fill="#282b36"/><g transform="translate(40.111 67.237)"><path d="M2989.637,2364.385l-1.15-.463-2.044,5.049,1.147.464Z" transform="translate(-2985.281 -2363.922)" fill="#fff"/><path d="M2952.378,2398.316l-.466,1.15,5.052,2.046.466-1.148Z" transform="translate(-2951.913 -2397.159)" fill="#fff"/></g><g transform="translate(47.575 50.219)"><path d="M3203.236,1858.071l-.962.417,1.812,4.284.975-.42Z" transform="translate(-3201.315 -1858.071)" fill="#fff"/><path d="M3173.786,1888.254l.412.978,4.292-1.808-.419-.98Z" transform="translate(-3173.786 -1885.489)" fill="#fff"/></g><g transform="translate(44.323 57.985)"><path d="M3077.591,2088.911l-.468,1.155,5.052,2.046.472-1.153Z" transform="translate(-3077.123 -2088.911)" fill="#fff"/></g><g transform="translate(50.34 43.751)"><path d="M3256.365,1683.281l-.4.993,4.33,1.752.4-.99Z" transform="translate(-3255.965 -1682.693)" fill="#fff"/><path d="M3319.491,1666.161a.6.6,0,0,0,.332.762.583.583,0,1,0-.332-.762Z" transform="translate(-3317.317 -1665.797)" fill="#fff"/><path d="M3288.477,1742.7a.584.584,0,0,0,1.082.44.584.584,0,1,0-1.082-.44Z" transform="translate(-3287.342 -1739.757)" fill="#fff"/></g><path d="M2541.841,610.727a1.006,1.006,0,0,0-.549-1.327l-35.658-14.439a1.049,1.049,0,0,0-1.351.558l-3.78,8.887a1.006,1.006,0,0,0,.549,1.327l35.659,14.44a1.049,1.049,0,0,0,1.35-.558Z" transform="translate(-2475.501 -587.162)" fill="#678797"/><path d="M2541.292,631.349l-5.081-2.057a23.138,23.138,0,0,1-4.948,1.351c-4.163.7-8.52,1.233-12.684.254a18.237,18.237,0,0,1-5.707-2.484,22.359,22.359,0,0,1-4.746-4.062,18.732,18.732,0,0,1-1.85-2.49,24.43,24.43,0,0,1-1.3-2.468c-.266-.569-.531-1.172-.751-1.794l-3.724,8.756a1.006,1.006,0,0,0,.549,1.327l35.659,14.44a1.049,1.049,0,0,0,1.35-.558l3.779-8.887A1.006,1.006,0,0,0,2541.292,631.349Z" transform="translate(-2475.501 -609.112)" fill="#517384"/></g><rect width="2.732" height="12.484" transform="matrix(0.388, -0.922, 0.922, 0.388, 55.507, 16.158)" fill="#33374b"/><path d="M3430.379,789.023l-2.147-.905-.717,1.7,1.866.786C3429.721,790.083,3430.059,789.558,3430.379,789.023Z" transform="translate(-3371.404 -773.894)" fill="#1b2a3e"/><path d="M3497.76,821.459c.038-.078.076-.156.114-.234l-2.717-1.145c-.32.535-.658,1.06-1,1.583l2.966,1.25C3497.325,822.423,3497.525,821.933,3497.76,821.459Z" transform="translate(-3435.807 -804.781)" fill="#1b2a3e"/><path d="M3597.78,860.1l-2.373-1c-.067.135-.133.272-.2.408-.2.42-.374.85-.55,1.28l2.333.983A6.776,6.776,0,0,0,3597.78,860.1Z" transform="translate(-3532.925 -842.491)" fill="#1b2a3e"/><path d="M3675.848,893.554a7.03,7.03,0,0,1-.787,1.671l2.3.971.717-1.7Z" transform="translate(-3610.622 -875.783)" fill="#1b2a3e"/></g><path d="M1252.1,939.89l.386-3.76.018,0a6.222,6.222,0,0,1-2.4-.966,6.907,6.907,0,0,1-2.9-4.968l-3.736.574a10.544,10.544,0,0,0,4.737,7.668A9.719,9.719,0,0,0,1252.1,939.89Z" transform="translate(-1130.2 -545.884)" fill="#bfdce4"/><path d="M80.65,1706.134a4.617,4.617,0,1,1-4.617,4.617A4.617,4.617,0,0,1,80.65,1706.134Zm-2.309,4.617a2.309,2.309,0,1,0,2.309-2.309A2.309,2.309,0,0,0,78.342,1710.751Z" transform="translate(-2.039 -1295.716)" fill="#aacdd6"/><path d="M286.939,1084.375c-.6-4.664-1.814-11.193-7.861-15.858-5.207-4.016-12.73-4.042-23.583-4.042s-18.376.026-23.583,4.042c-6.047,4.664-7.256,11.194-7.861,15.858a32.009,32.009,0,0,0,.907,11.5l30.235-.311h.6l30.235.311A32.005,32.005,0,0,0,286.939,1084.375Z" transform="translate(-144.887 -675.644)" fill="#aacdd6"/><path d="M637.638,1074.413a54.416,54.416,0,0,0,3.25,12.07,44.9,44.9,0,0,0,2.615,5.654,24.23,24.23,0,0,0,2.334,3.514l8.015-.082h.6l12.761.131a13,13,0,0,0,.412-2.289,38.763,38.763,0,0,0,.026-5.12,58.392,58.392,0,0,1,.069-6.753c.091-1.152.231-2.3.434-3.437.211-1.183.509-2.346.763-3.52.466-2.148.867-4.312,1.417-6.441.227-.878.482-1.747.772-2.6-4.474-1.048-10.039-1.059-16.957-1.059-7.339,0-13.154.012-17.761,1.262C637,1068.593,637.231,1071.523,637.638,1074.413Z" transform="translate(-543.547 -675.644)" fill="#bfdce4"/><path d="M337.4,1187.815h-.634l-27.956.288a27.684,27.684,0,0,1-.355-8.276,28.711,28.711,0,0,1,1.705-7.227,15.734,15.734,0,0,1,5.074-6.746c2.023-1.56,4.585-2.473,8.308-2.96a111.659,111.659,0,0,1,13.54-.491,111.657,111.657,0,0,1,13.54.491c3.723.487,6.285,1.4,8.308,2.96a15.734,15.734,0,0,1,5.074,6.746,28.714,28.714,0,0,1,1.705,7.228,27.546,27.546,0,0,1-.351,8.276Z" transform="translate(-226.475 -770.277)" fill="#b99d5f"/><path d="M1163.691,751.946a4.474,4.474,0,1,1-4.474-4.474A4.474,4.474,0,0,1,1163.691,751.946Z" transform="translate(-1044.459 -369.305)" fill="#bfdce4"/><circle cx="3.579" cy="3.579" r="3.579" transform="translate(109.369 382.422) rotate(-45)" fill="#dbecf0"/><path d="M1278.21,817.555a1.281,1.281,0,1,0,1.281-1.282A1.281,1.281,0,0,0,1278.21,817.555Z" transform="translate(-1163.772 -435.792)" fill="#fff"/><path d="M145.832,1271.643c-2.721-5.639-6.369-10.756-7.559-14.69-2.872-9.5-10.28-13.652-14.059-13.652H97c-3.779,0-11.187,4.155-14.059,13.652-1.19,3.935-4.838,9.052-7.559,14.69-1.633,3.385-3.779,17.065,5.291,20.923a58.357,58.357,0,0,0,5.848,2.169c4.432,3.464,13.62,5.844,24.236,5.844,10.772,0,20.074-2.451,24.429-6,1.668-.53,3.415-1.191,5.353-2.015C149.611,1288.708,147.465,1275.028,145.832,1271.643Z" transform="translate(-0.001 -848.454)" fill="#ffce00"/><g transform="translate(73.923 394.847)"><path d="M146.131,2107.277c-3.114,10.817-17.834,19.008-35.523,19.008s-32.409-8.191-35.523-19.008c-1.552,4.281-2.931,16.574,5.591,20.2a58.442,58.442,0,0,0,5.848,2.168c4.432,3.464,13.62,5.844,24.236,5.844,10.772,0,20.074-2.451,24.429-6,1.668-.53,3.415-1.19,5.353-2.015C149.061,2123.851,147.683,2111.559,146.131,2107.277Z" transform="translate(-73.923 -2078.211)" fill="#edbf00"/><path d="M466.868,1251.384c-3.488-5.574-8.615-8.083-11.552-8.083H428.105c-2.937,0-8.064,2.509-11.551,8.083,6.505-4.067,15.377-6.571,25.157-6.571S460.363,1247.317,466.868,1251.384Z" transform="translate(-405.027 -1243.301)" fill="#d92d1b"/></g><path d="M763.115,1053.526l-.386-3.76-.018,0a6.217,6.217,0,0,0,2.4-.966,6.907,6.907,0,0,0,2.9-4.968l3.736.574a10.545,10.545,0,0,1-4.736,7.668A9.722,9.722,0,0,1,763.115,1053.526Z" transform="translate(-665.616 -655.697)" fill="#bfdce4"/><g transform="translate(78.435 393.604)"><path d="M226.594,1212.343h27.211a15.692,15.692,0,0,1,14.059,11.023,21.052,21.052,0,0,0,4.613,7.1c.264-1.775-.5-4.363-.834-6.606-.6-4.029-1.827-10.01-7.875-14.04-5.207-3.47-12.391-3.478-23.244-3.478s-18.614.009-23.821,3.478c-6.047,4.029-7.344,10.01-7.949,14.04-.337,2.243-.926,4.636-.662,6.411a15.192,15.192,0,0,0,4.441-6.907A15.692,15.692,0,0,1,226.594,1212.343Z" transform="translate(-208.027 -1206.344)" fill="#bfdce4"/></g><g transform="translate(99.792 383.95)"><path d="M842.854,923.862a4.474,4.474,0,1,0,4.474-4.474A4.474,4.474,0,0,0,842.854,923.862Z" transform="translate(-842.854 -919.388)" fill="#bfdce4"/><circle cx="3.579" cy="3.579" r="3.579" transform="translate(0.97 0.92) rotate(-5.204)" fill="#dbecf0"/><path d="M992.085,986.61a1.282,1.282,0,1,0,1.282-1.281A1.282,1.282,0,0,0,992.085,986.61Z" transform="translate(-987.065 -983.111)" fill="#fff"/></g></g><g transform="translate(-174.299 -3831.035)"><path d="M9.892,0l9.892,18.8H0Z" transform="translate(326.901 3894.067) rotate(-137)" fill="#eb6d4e"/><circle cx="41" cy="41" r="41" transform="translate(314 3812)" fill="#eb6d4e"/><path d="M-12.122,18.26v-.088a.257.257,0,0,0-.176-.264,4.975,4.975,0,0,0-2.178-.572,2.968,2.968,0,0,0-1.815.462,1.516,1.516,0,0,0-.6,1.276,1.59,1.59,0,0,0,.638,1.342,2.892,2.892,0,0,0,1.782.484,2.461,2.461,0,0,0,1.848-.55A3.165,3.165,0,0,0-12.122,18.26ZM-6.468,7.392a1.14,1.14,0,0,1,.847.462,1.248,1.248,0,0,1,.253.946,1.161,1.161,0,0,1-.484.814,1.236,1.236,0,0,1-.924.242A22.687,22.687,0,0,0-9.152,9.68q-.176,0-.176.2v6.666a.355.355,0,0,0,.132.286,24.708,24.708,0,0,1,3.168,2.376,1.13,1.13,0,0,1,.418.858,1.192,1.192,0,0,1-.33.9l-.066.066a1.3,1.3,0,0,1-.858.418,1.2,1.2,0,0,1-.9-.286q-.33-.286-.9-.737t-.66-.517q-.132-.088-.176.044a3.742,3.742,0,0,1-1.573,2.5,6.148,6.148,0,0,1-3.4.8,5.875,5.875,0,0,1-3.817-1.122,3.736,3.736,0,0,1-1.375-3.058,3.682,3.682,0,0,1,1.353-3,5.9,5.9,0,0,1,3.839-1.111,7.675,7.675,0,0,1,2.2.374q.154.044.154-.132V8.36a1.222,1.222,0,0,1,.363-.88,1.1,1.1,0,0,1,.869-.352Q-8.074,7.216-6.468,7.392Zm-17.4,12.782a1.057,1.057,0,0,1-.682-.616,1.242,1.242,0,0,1-.022-.946q1.672-4.246,3.036-8.822.044-.176-.132-.176H-23.3a1.169,1.169,0,0,1-.869-.374,1.222,1.222,0,0,1-.363-.88,1.222,1.222,0,0,1,.363-.88,1.169,1.169,0,0,1,.869-.374h2.332a.221.221,0,0,0,.242-.176q.088-.286.22-.858t.22-.858a1.353,1.353,0,0,1,.572-.8,1.372,1.372,0,0,1,.968-.231h.154a1.055,1.055,0,0,1,.781.484,1.125,1.125,0,0,1,.165.9q-.22.924-.33,1.364-.044.176.154.176H-15.6a1.2,1.2,0,0,1,.88.374,1.2,1.2,0,0,1,.374.88,1.2,1.2,0,0,1-.374.88,1.2,1.2,0,0,1-.88.374h-2.9a.226.226,0,0,0-.242.2,98.587,98.587,0,0,1-3.278,9.658,1.333,1.333,0,0,1-.671.715,1.229,1.229,0,0,1-.979.055Zm30.316,3.08q-3.74,0-5.17-1.815t-1.43-6.7q0-3.982.242-8.58a1.339,1.339,0,0,1,.407-.88,1.157,1.157,0,0,1,.891-.33h.528A1.222,1.222,0,0,1,3.08,6.226q-.22,4.73-.22,8.514a12.947,12.947,0,0,0,.385,3.619,2.8,2.8,0,0,0,1.111,1.672,4.154,4.154,0,0,0,2.09.429q3.806,0,6.2-5.192a1.345,1.345,0,0,1,.693-.671,1.239,1.239,0,0,1,.957-.033l.286.132a1.2,1.2,0,0,1,.7.66,1.072,1.072,0,0,1,0,.946Q12.276,23.254,6.446,23.254ZM21.868,17.16a1.248,1.248,0,0,1-.9-.363,1.272,1.272,0,0,1-.4-.891l-.33-8.712a1.163,1.163,0,0,1,.33-.88,1.134,1.134,0,0,1,.858-.374h1.188a1.134,1.134,0,0,1,.858.374,1.163,1.163,0,0,1,.33.88l-.33,8.712a1.272,1.272,0,0,1-.4.891,1.248,1.248,0,0,1-.9.363Zm.528,1.76a1.169,1.169,0,0,1,.869.374,1.222,1.222,0,0,1,.363.88v.572a1.222,1.222,0,0,1-.363.88A1.169,1.169,0,0,1,22.4,22h-.748a1.169,1.169,0,0,1-.869-.374,1.222,1.222,0,0,1-.363-.88v-.572a1.222,1.222,0,0,1,.363-.88,1.169,1.169,0,0,1,.869-.374Z" transform="translate(354.867 3848.446)" fill="#fff"/><path d="M1.284-9.06a.681.681,0,0,1,.5-.18.666.666,0,0,1,.474.216q.372.384,1.116,1.2a.66.66,0,0,1,.174.5.689.689,0,0,1-.222.474l-.012.024a.623.623,0,0,1-.486.174.689.689,0,0,1-.474-.222Q1.8-7.488,1.212-8.088a.624.624,0,0,1-.186-.474.607.607,0,0,1,.21-.462ZM1.224-4a.633.633,0,0,1-.462-.2.633.633,0,0,1-.2-.462.633.633,0,0,1,.2-.462.633.633,0,0,1,.462-.2h1.5a.647.647,0,0,1,.474.2.647.647,0,0,1,.2.474v3.012a.343.343,0,0,0,.06.18,1.727,1.727,0,0,0,.708.672,4.274,4.274,0,0,0,1.362.318,26.921,26.921,0,0,0,2.718.1h2.532a.589.589,0,0,1,.456.2A.621.621,0,0,1,11.4.3a.718.718,0,0,1-.222.468A.657.657,0,0,1,10.7.96H8.2A19.858,19.858,0,0,1,4.68.726a3.538,3.538,0,0,1-1.812-.81.116.116,0,0,0-.156,0Q2.28.3,1.656.768a.6.6,0,0,1-.492.1.581.581,0,0,1-.4-.3L.72.48A.7.7,0,0,1,.642-.048.736.736,0,0,1,.948-.492Q1.56-.936,1.8-1.14a.252.252,0,0,0,.084-.18V-3.9q0-.1-.108-.1Zm6.924-5.22q-.012.06-.048.18t-.048.18q-.024.1.072.1h1.8a.637.637,0,0,1,.474.2.667.667,0,0,1,.2.48v2.088a.647.647,0,0,1-.2.474.647.647,0,0,1-.474.2h-4a.1.1,0,0,0-.108.108v.468q0,.1.108.1H10.2a.657.657,0,0,1,.48.2.657.657,0,0,1,.2.48v2.112a.637.637,0,0,1-.2.474.667.667,0,0,1-.48.2H4.944a.667.667,0,0,1-.48-.2.637.637,0,0,1-.2-.474V-8.076a.657.657,0,0,1,.2-.48.657.657,0,0,1,.48-.2H6.3q.084,0,.132-.108.1-.312.144-.48A.83.83,0,0,1,6.894-9.8a.76.76,0,0,1,.522-.144l.228.024a.556.556,0,0,1,.426.234A.535.535,0,0,1,8.148-9.216ZM5.928-3.384q-.108,0-.108.1v.828q0,.1.108.1H9.18a.085.085,0,0,0,.1-.1v-.828a.085.085,0,0,0-.1-.1Zm2.964-4.08H5.928q-.108,0-.108.1V-6.6q0,.1.108.1H8.892Q9-6.5,9-6.6v-.768Q9-7.464,8.892-7.464ZM19.308.8a.637.637,0,0,1-.474-.2.667.667,0,0,1-.2-.48v-8.4a.667.667,0,0,1,.2-.48.637.637,0,0,1,.474-.2h3.228a.637.637,0,0,1,.474.2.667.667,0,0,1,.2.48V.12a.667.667,0,0,1-.2.48.637.637,0,0,1-.474.2h-.288a.576.576,0,0,1-.42-.18.576.576,0,0,1-.18-.42A.074.074,0,0,0,21.564.12H20.2A.074.074,0,0,0,20.112.2a.585.585,0,0,1-.174.42.556.556,0,0,1-.414.18Zm.8-8.3v6.2q0,.1.108.1h1.332a.085.085,0,0,0,.1-.1V-7.5a.085.085,0,0,0-.1-.1H20.22Q20.112-7.6,20.112-7.5ZM12.66.252a.836.836,0,0,1-.21-.522.931.931,0,0,1,.138-.558,7.5,7.5,0,0,0,.87-2.22,20.624,20.624,0,0,0,.4-3.468q0-.108-.1-.108h-.576a.647.647,0,0,1-.474-.2.647.647,0,0,1-.2-.474v-.048a.647.647,0,0,1,.2-.474.647.647,0,0,1,.474-.2h.624a.1.1,0,0,0,.108-.108q.012-.348.012-1.08a.637.637,0,0,1,.2-.474.667.667,0,0,1,.48-.2h.18a.637.637,0,0,1,.474.2.667.667,0,0,1,.2.48q0,.72-.012,1.068,0,.108.1.108h1.836a.667.667,0,0,1,.48.2.637.637,0,0,1,.2.474V-6.7q0,2.64-.066,4.116a11.29,11.29,0,0,1-.27,2.244,1.833,1.833,0,0,1-.456.954A1.244,1.244,0,0,1,16.536.8Q16.4.8,15.324.732A.674.674,0,0,1,14.838.5a.829.829,0,0,1-.222-.5L14.6-.1A.541.541,0,0,1,14.79-.54.581.581,0,0,1,15.252-.7q.432.036.684.036.216,0,.336-.306a6.261,6.261,0,0,0,.2-1.428q.078-1.122.078-3.282v-.84q0-.108-.1-.108h-.936a.1.1,0,0,0-.108.108A22.2,22.2,0,0,1,14.892-2.3,8.974,8.974,0,0,1,13.716.468.491.491,0,0,1,13.308.7.5.5,0,0,1,12.876.5Zm19.008-6.78q-.624-.66-1.188-1.212a.637.637,0,0,1-.192-.468.637.637,0,0,1,.192-.468l.06-.048a.718.718,0,0,1,.51-.2.678.678,0,0,1,.5.2q.432.408,1.188,1.188a.615.615,0,0,1,.174.48.727.727,0,0,1-.222.48l-.072.072a.624.624,0,0,1-.474.186A.645.645,0,0,1,31.668-6.528Zm-1.8.7.06-.06a.711.711,0,0,1,.5-.2.671.671,0,0,1,.492.2q.624.588,1.44,1.44a.642.642,0,0,1,.18.486.709.709,0,0,1-.216.486l-.072.072a.624.624,0,0,1-.474.186.645.645,0,0,1-.474-.21Q30.6-4.2,29.856-4.908a.63.63,0,0,1-.192-.462A.612.612,0,0,1,29.868-5.832ZM35.256-3.06a.583.583,0,0,1,.5.108A.59.59,0,0,1,36-2.52.76.76,0,0,1,35.856-2,.723.723,0,0,1,35.4-1.7l-.372.072a.121.121,0,0,0-.1.132V.444a.637.637,0,0,1-.2.474.667.667,0,0,1-.48.2h-.192a.667.667,0,0,1-.48-.2.637.637,0,0,1-.2-.474v-1.62q0-.108-.1-.084l-3.384.7a.583.583,0,0,1-.5-.108.59.59,0,0,1-.246-.432.76.76,0,0,1,.144-.522.723.723,0,0,1,.456-.294l3.528-.732a.113.113,0,0,0,.1-.12V-9.084a.637.637,0,0,1,.2-.474.667.667,0,0,1,.48-.2h.192a.667.667,0,0,1,.48.2.637.637,0,0,1,.2.474V-3.1q0,.108.1.084ZM24.84-.7l-.12-.288a1.122,1.122,0,0,1,.132-1.164A10.18,10.18,0,0,0,26.064-4.56q.024-.1-.072-.1h-.624a.623.623,0,0,1-.456-.192A.623.623,0,0,1,24.72-5.3a.6.6,0,0,1,.192-.45.633.633,0,0,1,.456-.186h.912a.1.1,0,0,0,.108-.108v-.384q0-.1-.1-.072l-.276.1a.586.586,0,0,1-.5-.036.621.621,0,0,1-.312-.4q-.108-.408-.432-1.464a.616.616,0,0,1,.042-.468.606.606,0,0,1,.354-.312.564.564,0,0,1,.462.03.565.565,0,0,1,.294.354q.276.888.444,1.6a.011.011,0,0,0,.012.012.011.011,0,0,0,.012-.012v-1.98a.647.647,0,0,1,.2-.474.647.647,0,0,1,.474-.2h.048a.647.647,0,0,1,.474.2.647.647,0,0,1,.2.474v1.932q.012.012.036,0a16.464,16.464,0,0,0,.456-1.584.621.621,0,0,1,.27-.39A.6.6,0,0,1,29-9.216a.621.621,0,0,1,.39.27.568.568,0,0,1,.078.462q-.2.792-.492,1.668a.614.614,0,0,1-.342.384.659.659,0,0,1-.522.024l-.24-.1q-.1-.024-.1.072v.384a.1.1,0,0,0,.108.108h.72a.613.613,0,0,1,.45.186.613.613,0,0,1,.186.45.633.633,0,0,1-.186.456.6.6,0,0,1-.45.192h-.264a.059.059,0,0,0-.054.03.054.054,0,0,0-.006.054q.3.576.888,1.752a.783.783,0,0,1,.078.528.823.823,0,0,1-.27.468.438.438,0,0,1-.408.1.452.452,0,0,1-.324-.27q-.072-.144-.2-.456T27.852-2.9q-.012-.024-.03-.024T27.8-2.9V.444a.637.637,0,0,1-.2.474.667.667,0,0,1-.48.2h-.072a.667.667,0,0,1-.48-.2.637.637,0,0,1-.2-.474V-2.328q0-.024-.012-.024a.035.035,0,0,0-.024.012,8.829,8.829,0,0,1-.828,1.7.334.334,0,0,1-.342.168A.376.376,0,0,1,24.84-.7ZM39.972-.864a.693.693,0,0,1-.528.03.681.681,0,0,1-.4-.342q-.288-.552-.528-.936a.6.6,0,0,1-.072-.5.623.623,0,0,1,.312-.4l.072-.048a.693.693,0,0,1,.534-.072.66.66,0,0,1,.426.324q.432.72.576,1.008a.615.615,0,0,1,.036.516.659.659,0,0,1-.348.384Zm5.3-2.256.084.036A.637.637,0,0,1,45.7-2.7a.661.661,0,0,1-.03.516q-.324.6-.576,1.02a.669.669,0,0,1-.426.312.693.693,0,0,1-.534-.072L44.088-.96a.644.644,0,0,1-.306-.414.654.654,0,0,1,.078-.51q.312-.54.5-.924a.637.637,0,0,1,.39-.342A.675.675,0,0,1,45.276-3.12ZM37.512-5.88A.644.644,0,0,1,37-5.856a.654.654,0,0,1-.384-.36.643.643,0,0,1-.018-.522.733.733,0,0,1,.354-.39,22.492,22.492,0,0,0,3.6-2.172,2.042,2.042,0,0,1,1.224-.42h.648a2.042,2.042,0,0,1,1.224.42,22.984,22.984,0,0,0,3.588,2.172.733.733,0,0,1,.354.39.675.675,0,0,1-.006.522.654.654,0,0,1-.384.36.644.644,0,0,1-.516-.024q-.8-.384-1.416-.72a.039.039,0,0,0-.048.012.039.039,0,0,0-.012.048.364.364,0,0,1,.012.108.623.623,0,0,1-.18.45.593.593,0,0,1-.444.186H43.02q-.108,0-.108.1v.84q0,.1.108.1H46.2a.613.613,0,0,1,.45.186.613.613,0,0,1,.186.45.593.593,0,0,1-.186.444.623.623,0,0,1-.45.18H43.02a.1.1,0,0,0-.108.108V-.54q0,.1.108.1h3.648a.623.623,0,0,1,.456.192.637.637,0,0,1,.192.468.633.633,0,0,1-.186.456.617.617,0,0,1-.462.192H37.524a.617.617,0,0,1-.462-.192.633.633,0,0,1-.186-.456.637.637,0,0,1,.192-.468.623.623,0,0,1,.456-.192h3.648q.108,0,.108-.1V-3.4a.1.1,0,0,0-.108-.108h-3.18a.623.623,0,0,1-.45-.18.593.593,0,0,1-.186-.444.613.613,0,0,1,.186-.45.613.613,0,0,1,.45-.186h3.18q.108,0,.108-.1V-5.7q0-.1-.108-.1H39.6a.593.593,0,0,1-.444-.186.623.623,0,0,1-.18-.45.364.364,0,0,1,.012-.108.039.039,0,0,0-.012-.048.039.039,0,0,0-.048-.012Q38.316-6.264,37.512-5.88Zm4.512-2.76a24.291,24.291,0,0,1-2.2,1.524.029.029,0,0,0-.018.036.028.028,0,0,0,.03.024h4.512a.028.028,0,0,0,.03-.024.029.029,0,0,0-.018-.036,24.292,24.292,0,0,1-2.2-1.524A.12.12,0,0,0,42.024-8.64Z" transform="translate(330.867 3845)" fill="#fff"/></g></g></svg>