<svg xmlns="http://www.w3.org/2000/svg" width="525" height="250" viewBox="0 0 525 250"><g transform="translate(-98 -2134)"><rect width="525" height="250" transform="translate(98 2134)" fill="#fff"/><g transform="translate(-638.968 1106.256)"><rect width="345" height="196" transform="translate(826.968 1054.744)" fill="#fff" opacity="0"/><path d="M1176.75,1458.218c0,.767-64.991,1.388-145.163,1.388s-145.16-.621-145.16-1.388,64.992-1.391,145.16-1.391S1176.75,1457.449,1176.75,1458.218Z" transform="translate(-30.962 -209.941)" fill="#8e8e8f"/><g transform="translate(1026.825 1208.787)"><path d="M1280.594,1396.354c0,10.7-2.907,19.367-6.493,19.367s-6.5-8.67-6.5-19.367,2.907-19.369,6.5-19.369S1280.594,1385.657,1280.594,1396.354Z" transform="translate(-1257.076 -1376.985)" fill="#070203"/><path d="M1252.038,1376.985c-3.588,0-6.5,8.672-6.5,19.369s2.911,19.367,6.5,19.367h10.527c-3.59,0-6.5-8.67-6.5-19.367s2.906-19.369,6.5-19.369Z" transform="translate(-1245.539 -1376.985)" fill="#2f2c2b"/></g><g transform="translate(829.433 1063.453)"><path d="M833.59,1210.545h.541V1072.7h-.541v-.287h-1.717v139.029h1.717Z" transform="translate(-831.874 -1072.414)" fill="#2b2726"/></g><path d="M1455.649,1252.748h-40.455V1208.7h32.832Z" transform="translate(-307.414 -80.214)" fill="#fff" opacity="0.4"/><g transform="translate(1130.506 1165.865)"><g transform="translate(19.305 2.404)"><path d="M1503.353,1292.506a3.917,3.917,0,0,0,2.86,3.286,4.757,4.757,0,0,0-2.936-3.719C1503.311,1292.27,1503.337,1292.42,1503.353,1292.506Z" transform="translate(-1503.276 -1292.073)"/></g><path d="M1464.52,1288.661c.256.689,2.085,3.567,3.295,5.471.938,1.476,1.475,2.324,1.6,2.592a4.725,4.725,0,0,0,2.025,1.972,64.64,64.64,0,0,0,6.714,1.178.466.466,0,0,0,.372-.076.806.806,0,0,0,.1-.55c-.021-.216-.4-2.548-1.64-9.923h-.078a8.46,8.46,0,0,0-5.008-2.291h-9.084A2.661,2.661,0,0,1,1464.52,1288.661Z" transform="translate(-1462.819 -1287.034)"/></g><g transform="translate(1113.854 1134.238)"><path d="M1428.868,1226.938a1.184,1.184,0,0,0,1.185-1.183v-3.814a1.185,1.185,0,0,0-1.185-1.185h-.947c.023,1.83.066,3.93.123,6.182Z" transform="translate(-1427.921 -1220.755)"/></g><g transform="translate(1114.765 1158.971)"><path d="M1449.736,1283.029c.943-5.758-3.684-10.442-10.317-10.442a15.04,15.04,0,0,0-9.587,3.532l.07,1.5a1.674,1.674,0,0,0,.24.788,12.3,12.3,0,0,1,8.972-3.963c5.019,0,8.633,3.266,8.574,7.477.4.7,1.014,1.7,1.645,2.708A9.907,9.907,0,0,0,1449.736,1283.029Z" transform="translate(-1429.832 -1272.587)"/></g><path d="M1415.74,1273.985s.283-21.743,0-34.166-.928-39.788-.962-42.274,2.539-6.681,9.642-6.681h3.643l.245-.11h-16.214v83.238h5.041v-.007Z" transform="translate(-305.792 -70.832)" fill="#d4d5d5"/><path d="M1173.817,1384.367h-.018l-4.659-17.9-1.294-.068H1129.9c-2.927,0-3.661-4.175-3.664-4.185h-7.158v.325h.644v4.023H889.959l-.275,20.1h4.195v10.645h58.95v-1.323H1018.1v1.323h78.955v-1.323h47.5l31.325-8.475A11.736,11.736,0,0,1,1173.817,1384.367Z" transform="translate(-32.665 -160.473)" fill="#1a1311"/><path d="M1118.827,1373.708c-2.556,0-2.063.091-.341.091-1.868,0-3.676,2.148-4.759,4.857h-.035a38.545,38.545,0,0,0-2.336,10.5,1.315,1.315,0,0,1-1.384,1.325h14.583s.873.028.873-1.325C1125.43,1386.808,1123.05,1373.708,1118.827,1373.708Z" transform="translate(-147.837 -166.484)" fill="#302d2c"/><g transform="translate(936.869 1239.483)"><path d="M1083.571,1441.313h-4.487c1.159,5.295,3.162,8.8,5.443,8.8a3.1,3.1,0,0,0,2.244-1.2C1085.45,1447.459,1084.33,1444.773,1083.571,1441.313Z" transform="translate(-1068.556 -1441.313)" fill="#302d2c"/><g transform="translate(0 0)"><path d="M1067.55,1441.313h-10.528c1.16,5.295,3.165,8.8,5.444,8.8h10.526C1070.712,1450.109,1068.709,1446.608,1067.55,1441.313Z" transform="translate(-1057.022 -1441.313)" fill="#1a1311"/></g></g><g transform="translate(951.884 1209.544)"><path d="M1115.218,1378.571a2.267,2.267,0,0,0-.6.087,12.458,12.458,0,0,0-1.358,2.541h-.035a38.542,38.542,0,0,0-2.336,10.5,1.253,1.253,0,0,1-.328.912l-1.487,11.572c.871,7.632,3.293,13.125,6.149,13.125,3.586,0,6.495-8.67,6.495-19.367S1118.8,1378.571,1115.218,1378.571Z" transform="translate(-1099.248 -1378.571)" fill="#474645"/><g transform="translate(0 25.611)"><path d="M1098.309,1432.244l-.556,4.328h-9.264c1.161,5.3,3.165,8.8,5.444,8.8h10.526C1101.6,1445.368,1099.18,1439.875,1098.309,1432.244Z" transform="translate(-1088.488 -1432.244)" fill="#1a1311"/></g><path d="M1122.56,1405.825c0,6.721-1.656,12.169-3.7,12.169s-3.7-5.448-3.7-12.169,1.658-12.172,3.7-12.172S1122.56,1399.1,1122.56,1405.825Z" transform="translate(-1102.432 -1386.456)" fill="#ebebeb"/><path d="M1119.294,1418.194c-2.147,0-3.305-5.192-3.305-10.078s1.158-10.081,3.305-10.081,3.305,5.194,3.305,10.081S1121.441,1418.194,1119.294,1418.194Zm0-19.472c-1.239,0-2.618,3.859-2.618,9.394s1.379,9.392,2.618,9.392,2.617-3.856,2.617-9.392S1120.533,1398.721,1119.294,1398.721Z" transform="translate(-1102.866 -1388.747)" fill="#1a1311"/><path d="M1122.821,1415.71c0,1.74-.429,3.15-.957,3.15s-.961-1.409-.961-3.15.431-3.15.961-3.15S1122.821,1413.97,1122.821,1415.71Z" transform="translate(-1105.435 -1396.341)" fill="#1a1311"/></g><g transform="translate(870.008 1239.483)"><path d="M943.557,1441.313h-4.589c1.159,5.295,3.162,8.8,5.443,8.8a3.147,3.147,0,0,0,2.3-1.251C945.408,1447.395,944.305,1444.732,943.557,1441.313Z" transform="translate(-928.44 -1441.313)" fill="#1a1311"/><path d="M927.432,1441.313H916.9c1.16,5.295,3.165,8.8,5.444,8.8h10.527C930.595,1450.109,928.591,1446.608,927.432,1441.313Z" transform="translate(-916.904 -1441.313)" fill="#302d2c"/></g><g transform="translate(885.125 1228.155)"><path d="M975.74,1426.166v-8.593h-7.293c0,.252-.007.5-.007.758,0,10.7,2.906,19.367,6.5,19.367,2.65,0,4.93-4.74,5.938-11.532Z" transform="translate(-958.965 -1417.573)" fill="#1a1311"/><path d="M958.059,1418.331c0-.254,0-.506.007-.758h-2.684l-1.457,11.328h-5.341c1.161,5.295,3.165,8.8,5.444,8.8h10.527C960.964,1437.7,958.059,1429.027,958.059,1418.331Z" transform="translate(-948.584 -1417.573)" fill="#302d2c"/></g><g transform="translate(941.928 1207.315)"><path d="M1067.624,1383.888v10.982h8.5v.932h11.307a1.315,1.315,0,0,0,1.384-1.325,38.489,38.489,0,0,1,2.371-10.589Z" transform="translate(-1067.624 -1379.121)" fill="#302d2c"/><path d="M1067.624,1373.916v4.84h23.564c1.083-2.709,2.891-4.857,4.759-4.857C1093.321,1373.9,1067.624,1373.916,1067.624,1373.916Z" transform="translate(-1067.624 -1373.899)" fill="#1a1311"/></g><path d="M965.426,1390.054v-.387h-8.5V1383.3h.3a2.286,2.286,0,0,0,2.283-2.207v-3.639a2.284,2.284,0,0,0-2.283-2.193h-.3v-1.324H878.256v1.324H857.408a2.286,2.286,0,0,0-2.283,2.208v3.638a2.282,2.282,0,0,0,2.282,2.193h20.848v6.369H868.009a.584.584,0,0,0-.64.5v4.124c0,.4.926.468.583.468h11.042l-1.457,11.328h27.526l1.457-11.328h43.156l-1.456,11.328h27.526l2.061-16.033Z" transform="translate(-14.597 -166.603)"/><g transform="translate(1113.064 1209.544)"><path d="M1461.321,1397.94c0,10.7-2.907,19.367-6.493,19.367s-6.5-8.67-6.5-19.367,2.906-19.369,6.5-19.369S1461.321,1387.243,1461.321,1397.94Z" transform="translate(-1437.803 -1378.571)" fill="#474645"/><path d="M1432.765,1378.571c-3.588,0-6.5,8.672-6.5,19.369s2.911,19.367,6.5,19.367h10.527c-3.59,0-6.5-8.67-6.5-19.367s2.906-19.369,6.5-19.369Z" transform="translate(-1426.266 -1378.571)" fill="#1a1311"/><path d="M1462.549,1405.825c0,6.721-1.655,12.169-3.7,12.169s-3.7-5.448-3.7-12.169,1.658-12.172,3.7-12.172S1462.549,1399.1,1462.549,1405.825Z" transform="translate(-1441.365 -1386.456)" fill="#ebebeb"/><path d="M1459.283,1418.194c-2.147,0-3.305-5.192-3.305-10.078s1.158-10.081,3.305-10.081,3.3,5.194,3.3,10.081S1461.429,1418.194,1459.283,1418.194Zm0-19.472c-1.238,0-2.618,3.859-2.618,9.394s1.379,9.392,2.618,9.392,2.617-3.856,2.617-9.392S1460.521,1398.721,1459.283,1398.721Z" transform="translate(-1441.8 -1388.747)" fill="#1a1311"/><path d="M1462.811,1415.71c0,1.74-.429,3.15-.958,3.15s-.959-1.409-.959-3.15.429-3.15.959-3.15S1462.811,1413.97,1462.811,1415.71Z" transform="translate(-1444.37 -1396.341)" fill="#1a1311"/></g><path d="M1519.919,1258.467h-6.559a2.966,2.966,0,0,0-2.967,2.966V1274.5a2.951,2.951,0,0,0,.423,1.521h-7.866a.584.584,0,1,0,0,1.168h9.164a2.952,2.952,0,0,0,1.245.276h6.559a2.965,2.965,0,0,0,2.965-2.965v-13.064A2.965,2.965,0,0,0,1519.919,1258.467Z" transform="translate(-352.989 -106.234)"/><path d="M4.175,0h.4A4.173,4.173,0,0,1,8.747,4.173v8.7a4.172,4.172,0,0,1-4.172,4.172h-.4A4.176,4.176,0,0,1,0,12.872v-8.7A4.175,4.175,0,0,1,4.175,0Z" transform="translate(1158.774 1153.208)" fill="#fff"/><rect width="144.463" height="150.861" transform="translate(831.691 1055.293)" fill="#d4d5d5"/><rect width="140.008" height="137.844" transform="translate(836.145 1063.74)" fill="#5f5e5e"/><rect width="4.454" height="137.844" transform="translate(831.691 1063.74)" fill="#d4d5d5"/><rect width="2.228" height="139.028" transform="translate(827.205 1063.453)" fill="#d4d5d5"/><rect width="139.666" height="4.189" transform="translate(836.488 1201.965)" fill="#bdbebf"/><rect width="145.004" height="8.447" transform="translate(831.15 1055.293)" fill="#bdbebf"/><rect width="8.189" height="3.496" transform="translate(835.477 1059.026)" fill="#f38200"/><rect width="1.23" height="3.496" transform="translate(843.666 1059.026)" fill="#e85400"/><rect width="8.189" height="3.496" transform="translate(961.187 1059.026)" fill="#f38200"/><rect width="1.23" height="3.496" transform="translate(969.376 1059.026)" fill="#e85400"/><path d="M1432.537,1365.216h-31.374s.443,4,2.216,4h32.483C1435.853,1369.191,1434.65,1365.412,1432.537,1365.216Z" transform="translate(-300.078 -162.044)" fill="#302d2c"/><rect width="130.546" height="4.189" transform="translate(976.154 1201.965)" fill="#767676"/><path d="M1143.482,1063.761H1139.4v-8.447h130.511v8.447H1143.482Z" transform="translate(-163.224 -0.021)" fill="#6c6c6c"/><path d="M1493.661,1409.489h-12.254s1.342,5.326,4.256,5.326h8.919v-.512A20.414,20.414,0,0,1,1493.661,1409.489Z" transform="translate(-342.032 -185.191)" fill="#302d2c"/><path d="M1460.012,1290.128a56.292,56.292,0,0,1,.938-6.231h3.013l-.6-38.315-.352-1.589a.5.5,0,0,1-.12.024h-.96c-2.033,0-3.934-1.84-4.331-4.19-.192-1.14-2.24-12.35-4.047-22.241-1.486-8.135-2.89-15.819-3-16.484a2.829,2.829,0,0,1,.651-2.294,3.354,3.354,0,0,1,2.578-1.156h.077c-2.668-4.832-9.583-6.667-11.8-6.667h-14.7c-7.1,0-9.675,4.194-9.642,6.681s.68,29.851.962,42.274,0,34.166,0,34.166h22.344c2.227,0,3.493,4.026,3.493,4.026l3.6,17.189h12.253C1460.189,1293.659,1460.063,1291.818,1460.012,1290.128Zm-4.313-39.84a1.362,1.362,0,0,1-1.032.4c-.055,0-.112,0-.171-.007a63.306,63.306,0,0,1-6.988-1.238,5.721,5.721,0,0,1-2.6-2.5c-.1-.222-.833-1.369-1.537-2.479a58.29,58.29,0,0,1-3.392-5.664,1.8,1.8,0,0,0-1.746-1.128h-12.952a2.885,2.885,0,0,1-2.737-2.675c-.443-9.246-1.054-26.5-1-33.506.022-2.729,1.271-3.278,3.28-3.278h19.237a4.388,4.388,0,0,1,4.033,3.36l.414,2.435c5.069,29.786,7.547,44.491,7.575,44.956A1.7,1.7,0,0,1,1455.7,1250.288Z" transform="translate(-308.734 -70.953)" fill="#a6a7a7"/><path d="M1428.881,1244.008a1.841,1.841,0,0,0,1.708,1.693h12.952a2.809,2.809,0,0,1,2.712,1.8c.256.689,2.085,3.567,3.295,5.471.938,1.476,1.475,2.324,1.6,2.592a4.728,4.728,0,0,0,2.025,1.972,64.668,64.668,0,0,0,6.715,1.178.465.465,0,0,0,.371-.076.8.8,0,0,0,.1-.55c-.039-.413-1.383-8.536-7.562-44.846l-.414-2.436a3.324,3.324,0,0,0-3.016-2.5h-19.238c-1.586,0-2.233.2-2.249,2.255C1427.828,1217.548,1428.438,1234.774,1428.881,1244.008Z" transform="translate(-314.046 -80.007)" fill="#fff" opacity="0.2"/><path d="M1458.849,1258.618h0c-.055,0-.112,0-.171-.007a63.392,63.392,0,0,1-6.989-1.238,5.724,5.724,0,0,1-2.6-2.5c-.1-.222-.833-1.369-1.537-2.479a58.176,58.176,0,0,1-3.391-5.664,1.8,1.8,0,0,0-1.746-1.128h-12.952a2.885,2.885,0,0,1-2.737-2.675c-.443-9.246-1.054-26.5-1-33.506.022-2.729,1.272-3.278,3.28-3.278h19.237a4.388,4.388,0,0,1,4.033,3.36l.414,2.435c5.069,29.786,7.547,44.491,7.575,44.956a1.7,1.7,0,0,1-.38,1.319A1.363,1.363,0,0,1,1458.849,1258.618ZM1429,1207.175c-1.586,0-2.233.2-2.25,2.255-.055,6.989.556,24.214,1,33.449a1.841,1.841,0,0,0,1.707,1.693h12.952a2.809,2.809,0,0,1,2.712,1.8c.256.689,2.085,3.567,3.295,5.471.938,1.476,1.475,2.324,1.6,2.592a4.725,4.725,0,0,0,2.025,1.972,64.6,64.6,0,0,0,6.714,1.178.466.466,0,0,0,.372-.077.805.805,0,0,0,.1-.55c-.039-.413-1.383-8.536-7.563-44.845l-.414-2.436a3.323,3.323,0,0,0-3.016-2.5Z" transform="translate(-312.916 -78.878)" fill="#1a1311"/><path d="M1491.2,1206.94l-.352.008a2.328,2.328,0,0,0-1.791.79,1.778,1.778,0,0,0-.421,1.457c.111.657,1.514,8.338,3,16.47,1.807,9.894,3.856,21.109,4.05,22.254a3.759,3.759,0,0,0,3.314,3.331h.843l-.935-4.13s-6.749-36.514-7.546-39.589c-.068-.261-.114-.5-.163-.739Z" transform="translate(-345.799 -79.217)" fill="#fff" opacity="0.4"/><g transform="translate(1141.785 1126.692)"><path d="M1498.831,1251.314h-.96c-2.032,0-3.934-1.84-4.33-4.19-.192-1.139-2.24-12.35-4.047-22.241-1.486-8.135-2.89-15.819-3-16.483a2.827,2.827,0,0,1,.651-2.294,3.354,3.354,0,0,1,2.578-1.156l.228,0,.027,0h.075l.022,1.031-.352.009a2.327,2.327,0,0,0-1.791.79,1.778,1.778,0,0,0-.422,1.457c.111.657,1.514,8.338,3,16.47,1.808,9.894,3.856,21.108,4.05,22.254a3.759,3.759,0,0,0,3.313,3.331h.96a.515.515,0,0,1,0,1.031Z" transform="translate(-1486.455 -1204.942)"/></g><path d="M1510.4,1385.7h-3.112a56.354,56.354,0,0,0-.937,6.231c.142,4.648.844,10.454,1.723,10.454h.547c2.114,0,4.994-5.071,4.994-10.454C1513.612,1390.634,1510.4,1385.7,1510.4,1385.7Z" transform="translate(-355.071 -172.752)" fill="#333"/><path d="M1438.154,1315.659a.937.937,0,0,1-.921.952h-4.308a.938.938,0,0,1-.923-.952V1312.8a.937.937,0,0,1,.923-.951h4.308a.937.937,0,0,1,.921.951Z" transform="translate(-316.201 -134.145)"/><path d="M1505.584,1316.77h3.462l.144,8.878h-4.357v-6.429S1504.891,1316.77,1505.584,1316.77Z" transform="translate(-354.279 -136.716)" fill="#e85400"/><path d="M1509.19,1335.4l.329,20.261h-4.685V1335.4Z" transform="translate(-354.279 -146.454)" fill="#d4d5d5"/><rect width="102.038" height="12.368" transform="translate(992.939 1222.927)" fill="#bdbebf"/><path d="M1.225,0H30.869a1.223,1.223,0,0,1,1.223,1.223V7.4A1.225,1.225,0,0,1,30.867,8.62H1.226A1.226,1.226,0,0,1,0,7.394V1.225A1.225,1.225,0,0,1,1.225,0Z" transform="translate(876.592 1210.308)" fill="#d9d9d9"/><g transform="translate(840.863 1209.342)"><path d="M855.827,1381.419v3.456c0,.029.007.056.009.084v-3.624C855.834,1381.364,855.827,1381.39,855.827,1381.419Z" transform="translate(-855.827 -1379.814)" fill="#e33c0b" stroke="#000" stroke-miterlimit="10" stroke-width="1.44"/><rect width="12.686" height="6.665" transform="translate(6.658 0)" fill="#e12f15"/><path d="M856.565,1383.293a1.593,1.593,0,0,0,1.6,1.52h4.023v-6.665h-4.023a1.6,1.6,0,0,0-1.6,1.535Z" transform="translate(-856.213 -1378.148)" fill="#f38200"/><path d="M903.542,1379.753a1.606,1.606,0,0,0-1.6-1.6h-4.132v6.665h4.132a1.606,1.606,0,0,0,1.6-1.6Z" transform="translate(-877.775 -1378.148)" fill="#f6f6f6"/></g><g transform="translate(918.807 1209.342)"><rect width="12.687" height="6.665" transform="translate(6.423 0)" fill="#e12f15"/><path d="M1066.277,1379.669a1.6,1.6,0,0,0-1.6-1.521h-4.023v6.665h4.023a1.6,1.6,0,0,0,1.6-1.536Z" transform="translate(-1040.861 -1378.148)" fill="#f38200"/><path d="M1019.171,1383.209a1.606,1.606,0,0,0,1.6,1.6h4.132v-6.665h-4.132a1.606,1.606,0,0,0-1.6,1.6Z" transform="translate(-1019.171 -1378.148)" fill="#f6f6f6"/></g><g transform="translate(828.426 1077.231)"><rect width="5.006" height="11.59" transform="translate(0 0.415)" fill="#ebebeb"/><path d="M834.791,1102.159h-.022v11.59h-1.416v0c0-.226-.409-.408-.915-.408s-.917.182-.917.408v0h-1.76v.021l.739.651h5.1V1102.6Z" transform="translate(-829.763 -1101.743)" fill="#8e8e8f"/><path d="M833.449,1101.7c0-.226.41-.408.917-.408s.915.182.915.408v11.594c0-.226-.41-.408-.915-.408s-.917.182-.917.408Z" transform="translate(-831.69 -1101.288)" fill="#fff"/></g><rect width="130.633" height="138.225" transform="translate(976.179 1063.74)" fill="#535453"/><g transform="translate(963.725 1146.566)"><rect width="72.625" height="42.462" transform="translate(3.346 2.414)" fill="#868687"/><g transform="translate(3.987 2.975)"><rect width="71.343" height="20.425" fill="#f5f5f5"/><rect width="17.558" height="67.551" transform="translate(69.447 1.433) rotate(90)" fill="#e9e8e8"/><g transform="translate(32.168 7.221)"><ellipse cx="3.503" cy="2.991" rx="3.503" ry="2.991" fill="#bebebd"/><path d="M1190.39,1272.066a.169.169,0,0,1-.169-.118,2.188,2.188,0,0,1-.061-.513,2.8,2.8,0,0,1,2.984-2.548,3.389,3.389,0,0,1,1.453.323.137.137,0,0,1,.067.2.19.19,0,0,1-.235.057,3,3,0,0,0-1.285-.285,2.471,2.471,0,0,0-2.638,2.253,1.932,1.932,0,0,0,.054.453.15.15,0,0,1-.135.174A.208.208,0,0,1,1190.39,1272.066Z" transform="translate(-1189.641 -1268.444)" fill="#f5f5f5"/><path d="M1195.754,1270.814a2.6,2.6,0,0,1,.221,1.038,3.278,3.278,0,0,1-3.5,2.991,3.678,3.678,0,0,1-2.937-1.363,3.521,3.521,0,0,0,3.282,1.953,3.278,3.278,0,0,0,3.5-2.991A2.675,2.675,0,0,0,1195.754,1270.814Z" transform="translate(-1189.314 -1269.451)" fill="#868687"/></g><g transform="translate(0 20.916)"><rect width="71.343" height="20.425" fill="#f5f5f5"/><rect width="17.558" height="67.551" transform="translate(69.447 1.433) rotate(90)" fill="#e9e8e8"/><g transform="translate(32.168 7.221)"><ellipse cx="3.503" cy="2.991" rx="3.503" ry="2.991" fill="#bebebd"/><path d="M1190.39,1315.9a.169.169,0,0,1-.169-.118,2.19,2.19,0,0,1-.061-.513,2.8,2.8,0,0,1,2.984-2.548,3.386,3.386,0,0,1,1.453.324.137.137,0,0,1,.067.2.19.19,0,0,1-.235.057,2.992,2.992,0,0,0-1.285-.286,2.471,2.471,0,0,0-2.638,2.253,1.931,1.931,0,0,0,.054.453.15.15,0,0,1-.135.175A.207.207,0,0,1,1190.39,1315.9Z" transform="translate(-1189.641 -1312.276)" fill="#f5f5f5"/><path d="M1195.754,1314.647a2.6,2.6,0,0,1,.221,1.037,3.278,3.278,0,0,1-3.5,2.991,3.678,3.678,0,0,1-2.937-1.363,3.521,3.521,0,0,0,3.282,1.954,3.278,3.278,0,0,0,3.5-2.991A2.673,2.673,0,0,0,1195.754,1314.647Z" transform="translate(-1189.314 -1313.284)" fill="#868687"/></g></g></g><rect width="79.317" height="2.415" transform="translate(0 0)" fill="#f5f5f5"/><rect width="79.317" height="2.414" transform="translate(0 44.877)" fill="#f5f5f5"/><rect width="2.419" height="42.462" transform="translate(0.927 2.414)" fill="#e9e8e8"/><rect width="2.419" height="42.462" transform="translate(75.971 2.414)" fill="#e9e8e8"/><g transform="translate(0.927 47.291)"><rect width="6.929" height="1.8" fill="#868687"/><path d="M1122.281,1349.469v3.191a2.393,2.393,0,0,1-2.557,2.183h-2.238v-5.375Z" transform="translate(-1116.417 -1347.669)" fill="#bebebd"/></g><g transform="translate(71.461 47.291)"><rect width="6.929" height="1.8" fill="#868687"/><path d="M1270.087,1349.469v5.375h-2.236a2.393,2.393,0,0,1-2.558-2.183v-3.191Z" transform="translate(-1264.228 -1347.669)" fill="#bebebd"/></g><rect width="14.164" height="2.415" transform="translate(93.481 2.415) rotate(180)" fill="#bebebd"/><rect width="14.164" height="2.415" transform="translate(93.481 47.291) rotate(180)" fill="#bebebd"/><rect width="13.196" height="42.462" transform="translate(91.586 44.877) rotate(180)" fill="#868687"/><g transform="translate(14.122 47.291)"><rect width="6.929" height="1.8" fill="#868687"/><path d="M1149.935,1349.469v3.191a2.393,2.393,0,0,1-2.558,2.183h-2.236v-5.375Z" transform="translate(-1144.071 -1347.669)" fill="#bebebd"/></g><g transform="translate(84.656 47.291)"><rect width="6.929" height="1.8" fill="#868687"/><path d="M1297.742,1349.469v5.375H1295.5a2.393,2.393,0,0,1-2.557-2.183v-3.191Z" transform="translate(-1291.881 -1347.669)" fill="#bebebd"/></g><rect width="90.659" height="0.561" transform="translate(0.927 2.414)" fill="#5b5b5a" opacity="0.48" style="mix-blend-mode:multiply;isolation:isolate"/><rect width="4.794" height="0.561" transform="translate(1.996 49.091)" fill="#5b5b5a" style="mix-blend-mode:multiply;isolation:isolate"/><rect width="4.794" height="0.561" transform="translate(15.192 49.091)" fill="#5b5b5a" style="mix-blend-mode:multiply;isolation:isolate"/><rect width="4.794" height="0.561" transform="translate(72.526 49.091)" fill="#5b5b5a" style="mix-blend-mode:multiply;isolation:isolate"/><rect width="4.794" height="0.561" transform="translate(85.722 49.091)" fill="#5b5b5a" style="mix-blend-mode:multiply;isolation:isolate"/></g><g transform="translate(847.191 1095.17)"><rect width="67.518" height="101.98" transform="translate(94.863 106.242) rotate(180)" fill="#b56635"/><rect width="41.275" height="37.807" transform="translate(29.71 104.223) rotate(-90)" fill="#5e2e1d"/><rect width="24.981" height="16.642" transform="translate(67.518 87.581)" fill="#3b1a11"/><rect width="63.84" height="4.262" transform="translate(93.024 4.262) rotate(180)" fill="#5e2e1d"/><rect width="12.316" height="62.789" transform="translate(29.71 75.265) rotate(-90)" fill="#c78660"/><rect width="7.924" height="57.644" transform="translate(32.282 73.069) rotate(-90)" fill="#f6e6d7"/><rect width="27.346" height="101.98" transform="translate(0 4.262)" fill="#3b1a11"/><rect width="27.346" height="4.262" transform="translate(1.839)" fill="#3b1a11"/><rect width="12.316" height="62.789" transform="translate(29.71 87.581) rotate(-90)" fill="#c78660"/><rect width="7.924" height="57.644" transform="translate(32.282 85.385) rotate(-90)" fill="#f6e6d7"/><g transform="translate(58.559 79.199)"><ellipse cx="2.604" cy="2.224" rx="2.604" ry="2.224" transform="translate(0 0)" fill="#3b1a11"/><path d="M998.059,1308.533a.126.126,0,0,1,.126.088,1.659,1.659,0,0,1,.045.382,2.078,2.078,0,0,1-2.218,1.894,2.517,2.517,0,0,1-1.08-.241.1.1,0,0,1-.049-.149.14.14,0,0,1,.175-.042,2.228,2.228,0,0,0,.955.212,1.837,1.837,0,0,0,1.961-1.674,1.461,1.461,0,0,0-.04-.337.112.112,0,0,1,.1-.13Z" transform="translate(-993.407 -1306.778)" fill="#c78660"/><path d="M992.231,1308.29a1.927,1.927,0,0,1-.164-.771,2.436,2.436,0,0,1,2.6-2.224,2.734,2.734,0,0,1,2.183,1.013,2.617,2.617,0,0,0-2.44-1.453,2.436,2.436,0,0,0-2.6,2.224A1.987,1.987,0,0,0,992.231,1308.29Z" transform="translate(-991.81 -1304.856)" fill="#0e0808"/></g><g transform="translate(58.559 66.73)"><ellipse cx="2.604" cy="2.224" rx="2.604" ry="2.224" fill="#3b1a11"/><path d="M998.115,1281.936a.129.129,0,0,1,.122.074,1.636,1.636,0,0,1,.121.617,2.078,2.078,0,0,1-2.218,1.894,2.512,2.512,0,0,1-.957-.186.1.1,0,0,1-.06-.146.138.138,0,0,1,.172-.052,2.211,2.211,0,0,0,.846.164,1.837,1.837,0,0,0,1.961-1.674,1.455,1.455,0,0,0-.106-.546.107.107,0,0,1,.079-.14A.155.155,0,0,1,998.115,1281.936Z" transform="translate(-993.535 -1280.403)" fill="#c78660"/><path d="M992.231,1282.158a1.93,1.93,0,0,1-.164-.772,2.437,2.437,0,0,1,2.6-2.224,2.735,2.735,0,0,1,2.183,1.013,2.617,2.617,0,0,0-2.44-1.452,2.436,2.436,0,0,0-2.6,2.224A1.988,1.988,0,0,0,992.231,1282.158Z" transform="translate(-991.81 -1278.724)" fill="#0e0808"/></g><rect width="62.789" height="0.317" transform="translate(92.499 75.423) rotate(180)" fill="#3b1a11"/><rect width="53.702" height="30.307" transform="translate(29.71 60.549) rotate(-90)" fill="#c78660"/><rect width="50.979" height="27.248" transform="translate(31.312 59.199) rotate(-90)" fill="#f6e6d7"/><g transform="translate(50.975 32.163)"><ellipse cx="2.604" cy="2.224" rx="2.604" ry="2.224" transform="translate(0)" fill="#3b1a11"/><path d="M982.222,1209.5a.128.128,0,0,1,.122.074,1.635,1.635,0,0,1,.121.617,2.078,2.078,0,0,1-2.219,1.894,2.509,2.509,0,0,1-.957-.185.1.1,0,0,1-.06-.146.138.138,0,0,1,.171-.052,2.213,2.213,0,0,0,.846.164,1.837,1.837,0,0,0,1.961-1.674,1.447,1.447,0,0,0-.107-.546.107.107,0,0,1,.08-.14A.155.155,0,0,1,982.222,1209.5Z" transform="translate(-977.641 -1207.963)" fill="#c78660"/><path d="M976.338,1209.718a1.931,1.931,0,0,1-.164-.771,2.437,2.437,0,0,1,2.6-2.224,2.734,2.734,0,0,1,2.183,1.013,2.617,2.617,0,0,0-2.44-1.452,2.437,2.437,0,0,0-2.6,2.224A1.987,1.987,0,0,0,976.338,1209.718Z" transform="translate(-975.916 -1206.284)" fill="#0e0808"/></g><rect width="53.702" height="30.307" transform="translate(61.745 60.549) rotate(-90)" fill="#c78660"/><rect width="50.979" height="27.248" transform="translate(63.203 59.199) rotate(-90)" fill="#f6e6d7"/><g transform="translate(65.579 32.163)"><ellipse cx="2.604" cy="2.224" rx="2.604" ry="2.224" fill="#3b1a11"/><path d="M1007.57,1209.5a.129.129,0,0,0-.122.074,1.636,1.636,0,0,0-.121.617,2.078,2.078,0,0,0,2.219,1.894,2.51,2.51,0,0,0,.957-.185.1.1,0,0,0,.06-.146.138.138,0,0,0-.171-.052,2.212,2.212,0,0,1-.845.164,1.837,1.837,0,0,1-1.961-1.674,1.447,1.447,0,0,1,.107-.546.107.107,0,0,0-.08-.14A.156.156,0,0,0,1007.57,1209.5Z" transform="translate(-1006.942 -1207.963)" fill="#c78660"/><path d="M1011.487,1209.718a1.931,1.931,0,0,0,.165-.771,2.437,2.437,0,0,0-2.6-2.224,2.732,2.732,0,0,0-2.183,1.013,2.616,2.616,0,0,1,2.44-1.452,2.437,2.437,0,0,1,2.6,2.224A1.988,1.988,0,0,1,1011.487,1209.718Z" transform="translate(-1006.7 -1206.284)" fill="#0e0808"/></g></g><g transform="translate(980.676 1071.54)"><g transform="translate(1.062 5.356)"><rect width="29.66" height="69.725" transform="translate(71.484 69.725) rotate(180)" fill="#3b1a11"/><rect width="29.66" height="69.725" fill="#b56635"/><rect width="58.132" height="19.291" transform="translate(26.079 5.796) rotate(90)" fill="#f6e6d7"/><g transform="translate(21.888 23.293)"><ellipse cx="1.225" cy="4.044" rx="1.225" ry="4.044" fill="#5e2e1d"/><path d="M1199.236,1150.288a9.217,9.217,0,0,1,.5,3.246c0,2.234-.548,4.044-1.225,4.044-.2,0-.38-.155-.543-.424.2.5.455.8.728.8.677,0,1.225-1.811,1.225-4.044A7.849,7.849,0,0,0,1199.236,1150.288Z" transform="translate(-1197.467 -1149.864)" fill="#481c10"/></g><g transform="translate(29.562 0)"><rect width="29.66" height="69.725" transform="translate(29.66 69.725) rotate(180)" fill="#b56635"/><rect width="58.132" height="19.291" transform="translate(22.871 5.796) rotate(90)" fill="#f6e6d7"/><g transform="translate(5.322 23.293)"><ellipse cx="1.225" cy="4.044" rx="1.225" ry="4.044" fill="#5e2e1d"/><path d="M1226.47,1150.288a9.217,9.217,0,0,1,.5,3.246c0,2.234-.548,4.044-1.225,4.044-.2,0-.38-.155-.544-.424.2.5.455.8.728.8.676,0,1.225-1.811,1.225-4.044A7.854,7.854,0,0,0,1226.47,1150.288Z" transform="translate(-1224.701 -1149.864)" fill="#481c10"/></g></g><rect width="0.438" height="69.725" transform="translate(29.441)" fill="#3b1a11"/></g><g transform="translate(0 0)"><path d="M4.307,0H57.137a4.307,4.307,0,0,1,4.307,4.307v0A1.048,1.048,0,0,1,60.4,5.356H1.048A1.048,1.048,0,0,1,0,4.307v0A4.307,4.307,0,0,1,4.307,0Z" transform="translate(12.263)" fill="#d5d5d5"/><path d="M4.307,0H57.137a4.307,4.307,0,0,1,4.307,4.307v0A1.048,1.048,0,0,1,60.4,5.356H1.048A1.048,1.048,0,0,1,0,4.307v0A4.307,4.307,0,0,1,4.307,0Z" fill="#eff0f1"/></g></g><g transform="translate(954.181 1099.815)"><rect width="22.444" height="17.779" transform="translate(0 0)" fill="#f6e6d7"/><rect width="5.008" height="17.779" transform="translate(17.436 0)" fill="#d2b9a6"/><path d="M1116.273,1217.2c-.013-2.261-2.563-4.092-5.708-4.092s-5.7,1.831-5.709,4.092Z" transform="translate(-1099.343 -1169.979)" fill="#3b1a11"/><rect width="3.555" height="4.126" transform="translate(9.444 31.818)" fill="#3b1a11"/><path d="M1112.862,1204.3h0a3.389,3.389,0,0,1-3.611-3.083v-3.555a3.389,3.389,0,0,1,3.611-3.084h0a3.389,3.389,0,0,1,3.612,3.084v3.555A3.389,3.389,0,0,1,1112.862,1204.3Z" transform="translate(-1101.641 -1160.295)" fill="#945029"/><rect width="2.081" height="4.073" transform="translate(10.181 17.779)" fill="#3b1a11"/><ellipse cx="2.818" cy="1.887" rx="2.818" ry="1.887" transform="translate(8.404 21.455)" fill="#945029"/><path d="M1116.448,1176.966q-.43,1.839-.861,3.678a2.493,2.493,0,0,1-.96,1.381,4.164,4.164,0,0,1-3.607,0,2.494,2.494,0,0,1-.96-1.381l-.862-3.678a1.678,1.678,0,0,1,.92-1.628,6.247,6.247,0,0,1,5.41,0A1.679,1.679,0,0,1,1116.448,1176.966Z" transform="translate(-1101.601 -1149.912)" fill="#945029"/><path d="M1119.48,1185.665a2.741,2.741,0,0,0,1.37-2.293v-4.03a2.845,2.845,0,0,0-1.834-2.537v-2.472l.026-.011a2.489,2.489,0,0,0,.96-1.381l.861-3.677a1.679,1.679,0,0,0-.92-1.629,5.964,5.964,0,0,0-1.286-.455,1.91,1.91,0,0,0,1.4-1.629c0-.8-.737-1.476-1.778-1.753v-3.81h-.658v3.694a2.188,2.188,0,0,1,1.777,1.87,1.91,1.91,0,0,1-1.4,1.629,5.96,5.96,0,0,1,1.286.455,1.68,1.68,0,0,1,.92,1.629l-.862,3.677a3.205,3.205,0,0,1-.985,1.641c-.008,0,.008-.253,0-.249v2.255a3.143,3.143,0,0,1,1.834,2.754v4.03a2.983,2.983,0,0,1-1.176,2.537c2.031.625,3.262,1.829,3.272,3.518h.659C1122.937,1187.737,1121.511,1186.29,1119.48,1185.665Z" transform="translate(-1106.016 -1142.208)" fill="#945029" opacity="0.44" style="mix-blend-mode:multiply;isolation:isolate"/></g><g transform="translate(1004.644 1136.706)"><rect width="39.416" height="17.968" transform="translate(0 0)" fill="#5e2e1d"/><rect width="33.821" height="12.549" transform="translate(3.006 2.567)" fill="#f6e6d7"/><g transform="translate(14.948 7.059)"><g transform="translate(0 0.927)"><path d="M1233.806,1248.51a2.96,2.96,0,1,1,3.424-2.923A3.207,3.207,0,0,1,1233.806,1248.51Zm0-5.419a2.527,2.527,0,1,0,2.923,2.5A2.738,2.738,0,0,0,1233.806,1243.091Z" transform="translate(-1230.382 -1242.663)" fill="#20100e"/></g><ellipse cx="1.336" cy="1.141" rx="1.336" ry="1.141" transform="translate(2.004)" fill="#b56635"/><path d="M1236.881,1240.751a1.129,1.129,0,0,1,.7,1,1.25,1.25,0,0,1-1.336,1.141,1.651,1.651,0,0,1-.2-.014,1.512,1.512,0,0,0,.64.139,1.25,1.25,0,0,0,1.336-1.141A1.214,1.214,0,0,0,1236.881,1240.751Z" transform="translate(-1233.341 -1240.737)" fill="#5e2e1d"/></g><rect width="10.439" height="17.968" transform="translate(39.416 0)" fill="#20100e"/><g transform="translate(44.927 17.968)"><rect width="3.006" height="46.775" fill="#b56635"/><rect width="1.921" height="46.775" transform="translate(3.006)" fill="#3b1a11"/></g><g transform="translate(8.518 17.968)"><rect width="3.006" height="46.775" fill="#b56635"/><rect width="1.921" height="46.775" transform="translate(3.006)" fill="#3b1a11"/></g><g transform="translate(0 17.968)"><rect width="3.006" height="46.775" fill="#b56635"/><rect width="1.921" height="46.775" transform="translate(3.006)" fill="#3b1a11"/></g><g transform="translate(36.41 17.968)"><rect width="3.006" height="46.775" fill="#b56635"/><rect width="1.921" height="46.775" transform="translate(3.006)" fill="#3b1a11"/></g><rect width="32.471" height="2.146" transform="translate(3.967 49.853)" fill="#5e2e1d"/><rect width="5.094" height="2.146" transform="translate(41.337 49.853)" fill="#20100e"/></g><g transform="translate(1052.26 1079.011)"><rect width="30.567" height="122.791" transform="translate(0 0)" fill="#5e2e1d"/><rect width="9.045" height="122.791" transform="translate(2.06 0)" fill="#3b1a11"/><rect width="11.111" height="122.791" transform="translate(28.741)" fill="#3b1a11"/><rect width="29.167" height="2.158" transform="translate(0.645 63.918)" fill="#945029"/><g transform="translate(0.002 0)"><rect width="2.058" height="122.791" fill="#945029"/><rect width="2.058" height="122.791" transform="translate(28.507)" fill="#945029"/></g><g transform="translate(0 84.405)"><rect width="30.567" height="38.385" fill="#aa6d4a"/><g transform="translate(5.213 4.451)"><rect width="29.483" height="20.141" transform="translate(20.141 0) rotate(90)" fill="#f6e6d7"/><g transform="translate(16.849 7.744)"><path d="M1346.61,1309.992c0,1.4-.344,2.534-.768,2.534s-.767-1.134-.767-2.534.343-2.533.767-2.533S1346.61,1308.593,1346.61,1309.992Z" transform="translate(-1345.075 -1307.459)" fill="#5e2e1d"/><path d="M1346.524,1308.016a5.767,5.767,0,0,1,.311,2.033c0,1.4-.344,2.533-.767,2.533-.123,0-.238-.1-.341-.265.128.313.285.5.456.5.424,0,.767-1.134.767-2.534A4.912,4.912,0,0,0,1346.524,1308.016Z" transform="translate(-1345.416 -1307.75)" fill="#481c10"/></g></g></g><g transform="translate(0 0)"><rect width="30.567" height="38.385" fill="#aa6d4a"/><g transform="translate(5.213 4.451)"><rect width="29.483" height="20.141" transform="translate(20.141 0) rotate(90)" fill="#f6e6d7"/><g transform="translate(16.849 18.285)"><ellipse cx="0.767" cy="2.534" rx="0.767" ry="2.534" fill="#5e2e1d"/><path d="M1346.524,1153.222a5.772,5.772,0,0,1,.311,2.034c0,1.4-.344,2.534-.767,2.534-.123,0-.238-.1-.341-.266.128.312.285.5.456.5.424,0,.767-1.135.767-2.534A4.916,4.916,0,0,0,1346.524,1153.222Z" transform="translate(-1345.416 -1152.957)" fill="#481c10"/></g></g></g></g><g transform="translate(843.906 1141.214)"><rect width="26.279" height="15.819" transform="translate(7.306 26.45)" fill="#5e2e1d"/><ellipse cx="7.306" cy="6.238" rx="7.306" ry="6.238" transform="translate(116.286 0)" fill="#3b1a11"/><path d="M1068.951,1272.032h-39.218l8.842-36.658h34.257c2.561,0,4.477,2.007,3.96,4.149Z" transform="translate(-949.792 -1235.374)" fill="#3b1a11"/><path d="M924.336,1277.831h83.2c-.608-9.114,2.16-22.488,5.857-35.162.861-2.956,2.333-5.821,4.336-7.294H938.6a7.025,7.025,0,0,0-6.912,5.618Z" transform="translate(-894.688 -1235.374)" fill="#914822"/><path d="M1012.659,1235.375c13.887,5.17,32.156,16.74,39.308,42.456h1.744c-.608-9.114,2.16-22.488,5.858-35.162.861-2.956,2.333-5.821,4.335-7.294Z" transform="translate(-940.865 -1235.374)" fill="#ab5b30"/><path d="M1095.595,1316.608h-20.75l4.093-25.8h21.24v21.891C1100.178,1314.856,1098.127,1316.608,1095.595,1316.608Z" transform="translate(-973.378 -1264.354)" fill="#5e2e1d"/><path d="M1074.844,1330.277h20.75c2.531,0,4.583-1.752,4.583-3.913v-9.414H1077.9Z" transform="translate(-973.377 -1278.024)" fill="#3b1a11"/><rect width="4.649" height="7.479" transform="translate(11.559 52.254)" fill="#b56635"/><rect width="4.649" height="7.479" transform="translate(30.355 52.254)" fill="#b56635"/><g transform="translate(33.585 5.956)"><g transform="translate(6.273)"><path d="M953.427,1247.856l-.125,3.19.125,3.19.125-3.19Z" transform="translate(-949.691 -1247.856)" fill="#48261a"/><path d="M953.206,1254.425l-3.736.106-3.736-.106,3.736-.107Z" transform="translate(-945.734 -1251.234)" fill="#48261a"/><ellipse cx="0.349" cy="0.298" rx="0.349" ry="0.298" transform="translate(3.388 2.892)" fill="#3b1a11"/><g transform="translate(10.916)"><path d="M976.3,1247.856l-.125,3.19.125,3.19.125-3.19Z" transform="translate(-972.568 -1247.856)" fill="#48261a"/><path d="M976.084,1254.425l-3.736.106-3.736-.106,3.736-.107Z" transform="translate(-968.611 -1251.234)" fill="#48261a"/><ellipse cx="0.349" cy="0.298" rx="0.349" ry="0.298" transform="translate(3.388 2.892)" fill="#3b1a11"/></g><g transform="translate(21.833)"><path d="M999.181,1247.856l-.125,3.19.125,3.19.125-3.19Z" transform="translate(-995.445 -1247.856)" fill="#48261a"/><path d="M998.961,1254.425l-3.736.106-3.736-.106,3.736-.107Z" transform="translate(-991.488 -1251.234)" fill="#48261a"/><ellipse cx="0.349" cy="0.298" rx="0.349" ry="0.298" transform="translate(3.388 2.892)" fill="#3b1a11"/></g><g transform="translate(32.749)"><path d="M1022.058,1247.856l-.125,3.19.125,3.19.125-3.19Z" transform="translate(-1018.322 -1247.856)" fill="#48261a"/><path d="M1021.838,1254.425l-3.736.106-3.736-.106,3.736-.107Z" transform="translate(-1014.365 -1251.234)" fill="#48261a"/><ellipse cx="0.349" cy="0.298" rx="0.349" ry="0.298" transform="translate(3.388 2.892)" fill="#3b1a11"/></g><g transform="translate(43.666)"><path d="M1044.935,1247.856l-.125,3.19.125,3.19.125-3.19Z" transform="translate(-1041.199 -1247.856)" fill="#48261a"/><path d="M1044.715,1254.425l-3.736.106-3.736-.106,3.736-.107Z" transform="translate(-1037.242 -1251.234)" fill="#48261a"/><ellipse cx="0.349" cy="0.298" rx="0.349" ry="0.298" transform="translate(3.388 2.892)" fill="#3b1a11"/></g><g transform="translate(54.582)"><path d="M1067.812,1247.856l-.125,3.19.125,3.19.125-3.19Z" transform="translate(-1064.076 -1247.856)" fill="#48261a"/><path d="M1067.592,1254.425l-3.736.106-3.736-.106,3.736-.107Z" transform="translate(-1060.119 -1251.234)" fill="#48261a"/><ellipse cx="0.349" cy="0.298" rx="0.349" ry="0.298" transform="translate(3.388 2.892)" fill="#3b1a11"/></g><g transform="translate(65.498)"><path d="M1090.689,1247.856l-.125,3.19.125,3.19.125-3.19Z" transform="translate(-1086.953 -1247.856)" fill="#48261a"/><path d="M1090.469,1254.425l-3.736.106-3.736-.106,3.736-.107Z" transform="translate(-1082.996 -1251.234)" fill="#48261a"/><ellipse cx="0.349" cy="0.298" rx="0.349" ry="0.298" transform="translate(3.388 2.892)" fill="#3b1a11"/></g></g><g transform="translate(0 19.467)"><path d="M940.281,1288.653l-.125,3.19.125,3.19.125-3.19Z" transform="translate(-936.545 -1288.653)" fill="#48261a"/><path d="M940.061,1295.221l-3.736.107-3.736-.107,3.736-.106Z" transform="translate(-932.588 -1292.031)" fill="#48261a"/><path d="M940.385,1295.012a.353.353,0,1,1-.349-.3A.326.326,0,0,1,940.385,1295.012Z" transform="translate(-936.3 -1291.822)" fill="#3b1a11"/><g transform="translate(10.916)"><path d="M963.158,1288.653l-.125,3.19.125,3.19.125-3.19Z" transform="translate(-959.422 -1288.653)" fill="#48261a"/><path d="M962.938,1295.221l-3.736.107-3.736-.107,3.736-.106Z" transform="translate(-955.465 -1292.031)" fill="#48261a"/><path d="M963.262,1295.012a.353.353,0,1,1-.349-.3A.326.326,0,0,1,963.262,1295.012Z" transform="translate(-959.177 -1291.822)" fill="#3b1a11"/></g><g transform="translate(21.833)"><path d="M986.035,1288.653l-.125,3.19.125,3.19.125-3.19Z" transform="translate(-982.299 -1288.653)" fill="#48261a"/><path d="M985.815,1295.221l-3.736.107-3.736-.107,3.736-.106Z" transform="translate(-978.342 -1292.031)" fill="#48261a"/><path d="M986.139,1295.012a.353.353,0,1,1-.349-.3A.326.326,0,0,1,986.139,1295.012Z" transform="translate(-982.054 -1291.822)" fill="#3b1a11"/></g><g transform="translate(32.749)"><path d="M1008.912,1288.653l-.125,3.19.125,3.19.125-3.19Z" transform="translate(-1005.176 -1288.653)" fill="#48261a"/><path d="M1008.692,1295.221l-3.736.107-3.736-.107,3.736-.106Z" transform="translate(-1001.219 -1292.031)" fill="#48261a"/><path d="M1009.016,1295.012a.353.353,0,1,1-.349-.3A.326.326,0,0,1,1009.016,1295.012Z" transform="translate(-1004.93 -1291.822)" fill="#3b1a11"/></g><g transform="translate(43.666)"><path d="M1031.789,1288.653l-.125,3.19.125,3.19.125-3.19Z" transform="translate(-1028.053 -1288.653)" fill="#48261a"/><path d="M1031.569,1295.221l-3.736.107-3.736-.107,3.736-.106Z" transform="translate(-1024.096 -1292.031)" fill="#48261a"/><path d="M1031.893,1295.012a.353.353,0,1,1-.349-.3A.326.326,0,0,1,1031.893,1295.012Z" transform="translate(-1027.808 -1291.822)" fill="#3b1a11"/></g><g transform="translate(54.582)"><path d="M1054.666,1288.653l-.125,3.19.125,3.19.125-3.19Z" transform="translate(-1050.93 -1288.653)" fill="#48261a"/><path d="M1054.446,1295.221l-3.736.107-3.736-.107,3.736-.106Z" transform="translate(-1046.973 -1292.031)" fill="#48261a"/><path d="M1054.77,1295.012a.353.353,0,1,1-.349-.3A.326.326,0,0,1,1054.77,1295.012Z" transform="translate(-1050.685 -1291.822)" fill="#3b1a11"/></g><g transform="translate(65.498)"><path d="M1077.543,1288.653l-.125,3.19.125,3.19.125-3.19Z" transform="translate(-1073.807 -1288.653)" fill="#48261a"/><path d="M1077.323,1295.221l-3.736.107-3.736-.107,3.736-.106Z" transform="translate(-1069.85 -1292.031)" fill="#48261a"/><path d="M1077.646,1295.012a.353.353,0,1,1-.349-.3A.326.326,0,0,1,1077.646,1295.012Z" transform="translate(-1073.562 -1291.822)" fill="#3b1a11"/></g></g><g transform="translate(2.537 9.734)"><path d="M945.6,1268.254l-.125,3.19.125,3.19.125-3.19Z" transform="translate(-941.861 -1268.254)" fill="#48261a"/><path d="M945.377,1274.823l-3.736.106-3.736-.106,3.736-.107Z" transform="translate(-937.904 -1271.633)" fill="#48261a"/><path d="M945.7,1274.614a.353.353,0,1,1-.349-.3A.327.327,0,0,1,945.7,1274.614Z" transform="translate(-941.616 -1271.423)" fill="#3b1a11"/><g transform="translate(10.916)"><path d="M968.474,1268.254l-.125,3.19.125,3.19.125-3.19Z" transform="translate(-964.738 -1268.254)" fill="#48261a"/><path d="M968.254,1274.823l-3.736.106-3.736-.106,3.736-.107Z" transform="translate(-960.781 -1271.633)" fill="#48261a"/><path d="M968.578,1274.614a.353.353,0,1,1-.349-.3A.326.326,0,0,1,968.578,1274.614Z" transform="translate(-964.493 -1271.423)" fill="#3b1a11"/></g><g transform="translate(21.833)"><path d="M991.351,1268.254l-.125,3.19.125,3.19.125-3.19Z" transform="translate(-987.615 -1268.254)" fill="#48261a"/><path d="M991.131,1274.823l-3.736.106-3.736-.106,3.736-.107Z" transform="translate(-983.658 -1271.633)" fill="#48261a"/><path d="M991.455,1274.614a.353.353,0,1,1-.349-.3A.326.326,0,0,1,991.455,1274.614Z" transform="translate(-987.37 -1271.423)" fill="#3b1a11"/></g><g transform="translate(32.749)"><path d="M1014.228,1268.254l-.125,3.19.125,3.19.125-3.19Z" transform="translate(-1010.492 -1268.254)" fill="#48261a"/><path d="M1014.008,1274.823l-3.736.106-3.736-.106,3.736-.107Z" transform="translate(-1006.535 -1271.633)" fill="#48261a"/><path d="M1014.332,1274.614a.353.353,0,1,1-.349-.3A.327.327,0,0,1,1014.332,1274.614Z" transform="translate(-1010.247 -1271.423)" fill="#3b1a11"/></g><g transform="translate(43.666)"><path d="M1037.105,1268.254l-.125,3.19.125,3.19.125-3.19Z" transform="translate(-1033.369 -1268.254)" fill="#48261a"/><path d="M1036.885,1274.823l-3.736.106-3.736-.106,3.736-.107Z" transform="translate(-1029.412 -1271.633)" fill="#48261a"/><path d="M1037.209,1274.614a.353.353,0,1,1-.349-.3A.327.327,0,0,1,1037.209,1274.614Z" transform="translate(-1033.124 -1271.423)" fill="#3b1a11"/></g><g transform="translate(54.582)"><path d="M1059.982,1268.254l-.125,3.19.125,3.19.125-3.19Z" transform="translate(-1056.246 -1268.254)" fill="#48261a"/><path d="M1059.762,1274.823l-3.736.106-3.736-.106,3.736-.107Z" transform="translate(-1052.289 -1271.633)" fill="#48261a"/><path d="M1060.086,1274.614a.353.353,0,1,1-.349-.3A.327.327,0,0,1,1060.086,1274.614Z" transform="translate(-1056 -1271.423)" fill="#3b1a11"/></g><g transform="translate(65.498)"><path d="M1082.859,1268.254l-.125,3.19.125,3.19.125-3.19Z" transform="translate(-1079.123 -1268.254)" fill="#48261a"/><path d="M1082.638,1274.823l-3.736.106-3.736-.106,3.736-.107Z" transform="translate(-1075.166 -1271.633)" fill="#48261a"/><path d="M1082.963,1274.614a.353.353,0,1,1-.349-.3A.326.326,0,0,1,1082.963,1274.614Z" transform="translate(-1078.878 -1271.423)" fill="#3b1a11"/></g></g></g><ellipse cx="7.306" cy="6.238" rx="7.306" ry="6.238" transform="translate(0 26.45)" fill="#945029"/><ellipse cx="7.306" cy="6.238" rx="7.306" ry="6.238" transform="translate(98.717 26.45)" fill="#945029"/><ellipse cx="7.306" cy="6.238" rx="7.306" ry="6.238" transform="translate(119.494 26.45)" fill="#5e2e1d"/><g transform="translate(30.781 17.581)"><path d="M927.2,1282.189c0,5.618-1,10.376-.132,10.376s1.909-4.555,1.909-10.174-1.037-10.173-1.909-10.173S927.2,1276.57,927.2,1282.189Z" transform="translate(-926.712 -1272.218)" fill="#127f8a"/><path d="M927.735,1292.565l12.782-1.25a74.26,74.26,0,0,1,14.422,0l12.782,1.25h0a36.206,36.206,0,0,1,0-20.347h0l-10.26,1.416a71.351,71.351,0,0,1-19.466,0l-10.26-1.416h0a30.007,30.007,0,0,1,0,20.347Z" transform="translate(-927.247 -1272.218)" fill="#149bb3"/><g transform="translate(20.237 6.78)"><path d="M969.447,1293.075c0,3.746-.67,6.919-.088,6.919s1.273-3.037,1.273-6.784-.691-6.783-1.273-6.783S969.447,1289.329,969.447,1293.075Z" transform="translate(-969.121 -1286.427)" fill="#bb906a"/><path d="M969.8,1299.994l8.522-.833a49.543,49.543,0,0,1,9.615,0l8.523.833h0a24.135,24.135,0,0,1,0-13.567h0l-6.841.944a47.575,47.575,0,0,1-12.979,0l-6.841-.944h0a20.008,20.008,0,0,1,0,13.567Z" transform="translate(-969.478 -1286.427)" fill="#e7c8ab"/></g></g><path d="M2.755,0h81.9a3.015,3.015,0,0,1,3.015,3.015v0A4.186,4.186,0,0,1,83.481,7.2H4.186A4.186,4.186,0,0,1,0,3.015v-.26A2.755,2.755,0,0,1,2.755,0Z" transform="translate(13.112 36.432)" fill="#48261a"/><rect width="1.887" height="7.479" transform="translate(16.208 52.254)" fill="#3b1a11"/><rect width="1.887" height="7.479" transform="translate(35.046 52.254)" fill="#3b1a11"/><rect width="4.649" height="7.479" transform="translate(95.187 52.254)" fill="#b56635"/><rect width="4.649" height="7.479" transform="translate(113.983 52.254)" fill="#b56635"/><rect width="1.887" height="7.479" transform="translate(99.836 52.254)" fill="#3b1a11"/><rect width="1.887" height="7.479" transform="translate(118.633 52.254)" fill="#3b1a11"/><path d="M968.752,1304.757v8.717a1.5,1.5,0,0,1-1.6,1.366H886.075a1.336,1.336,0,0,1-1.428-1.219v-8.864h-7.465v15.125c0,2.22,2.108,4.021,4.709,4.021h89.619c2.6,0,4.708-1.8,4.708-4.021v-15.125Z" transform="translate(-870.035 -1271.649)" fill="#945029"/><g transform="translate(113.983 52.254)" opacity="0.47" style="mix-blend-mode:multiply;isolation:isolate"><rect width="6.536" height="1.008" fill="#65412b"/></g><g transform="translate(95.187 52.254)" opacity="0.47" style="mix-blend-mode:multiply;isolation:isolate"><rect width="6.524" height="1.008" fill="#65412b"/></g><g transform="translate(30.355 52.254)" opacity="0.47" style="mix-blend-mode:multiply;isolation:isolate"><rect width="6.568" height="1.008" fill="#65412b"/></g><g transform="translate(11.546 52.254)" opacity="0.47" style="mix-blend-mode:multiply;isolation:isolate"><rect width="6.536" height="1.008" fill="#65412b"/></g></g><g transform="translate(957.791 1150.615)"><g transform="translate(5.494 43.858)"><path d="M1125.326,1354.023h-6.043v-7.036h10.438Z" transform="translate(-1115.989 -1346.987)" fill="#070304"/><path d="M1118.423,1354.023h-6.043v-7.036h10.438Z" transform="translate(-1112.38 -1346.987)" fill="#4d4d4e"/><path d="M1245.142,1354.023h6.043v-7.036h-10.438Z" transform="translate(-1179.493 -1346.987)" fill="#070304"/><path d="M1238.239,1354.023h6.043v-7.036h-10.438Z" transform="translate(-1175.884 -1346.987)" fill="#4d4d4e"/></g><path d="M0,0H74.725a8.5,8.5,0,0,1,8.5,8.5v26.85a8.5,8.5,0,0,1-8.5,8.5H8.5a8.5,8.5,0,0,1-8.5-8.5V0A0,0,0,0,1,0,0Z" transform="translate(16.47)" fill="#908c8e"/><rect width="83.229" height="43.858" rx="8.504" fill="#a5a1a2"/><rect width="18.177" height="74.439" transform="translate(78.834 3.753) rotate(90)" fill="#4d4d4e"/><rect width="17.052" height="73.121" transform="translate(78.175 4.315) rotate(90)" fill="#e9eef8"/><rect width="18.177" height="74.439" transform="translate(78.834 21.929) rotate(90)" fill="#4d4d4e"/><rect width="17.052" height="73.121" transform="translate(78.175 22.492) rotate(90)" fill="#e9eef8"/><g transform="translate(30.49 11.727)"><rect width="21.7" height="2.58" rx="1.29" transform="translate(1.976)" fill="#070304"/><rect width="21.7" height="2.58" rx="1.29" fill="#4d4d4e"/><path d="M.727,0h0a.727.727,0,0,1,.727.727V19.655a.727.727,0,0,1-.727.727h0A.728.728,0,0,1,0,19.654V.727A.727.727,0,0,1,.727,0Z" transform="translate(21.041 0.563) rotate(90)" fill="#e9eef8"/></g><g transform="translate(30.49 30.29)"><rect width="21.7" height="2.58" rx="1.29" transform="translate(1.976)" fill="#070304"/><rect width="21.7" height="2.58" rx="1.29" fill="#4d4d4e"/><path d="M.727,0h0a.727.727,0,0,1,.727.727V19.655a.727.727,0,0,1-.727.727h0A.728.728,0,0,1,0,19.654V.727A.727.727,0,0,1,.727,0Z" transform="translate(21.041 0.563) rotate(90)" fill="#e9eef8"/></g><g transform="translate(22.952 43.858)"><path d="M1161.913,1354.023h-6.043v-7.036h10.438Z" transform="translate(-1152.576 -1346.987)" fill="#070304"/><path d="M1155.01,1354.023h-6.043v-7.036H1159.4Z" transform="translate(-1148.967 -1346.987)" fill="#4d4d4e"/><path d="M1281.729,1354.023h6.043v-7.036h-10.438Z" transform="translate(-1216.08 -1346.987)" fill="#070304"/><path d="M1274.825,1354.023h6.043v-7.036h-10.438Z" transform="translate(-1212.471 -1346.987)" fill="#4d4d4e"/></g></g></g></g></svg>