<svg xmlns="http://www.w3.org/2000/svg" width="525" height="250" viewBox="0 0 525 250"><g transform="translate(-98 -2134)"><rect width="525" height="250" transform="translate(98 2134)" fill="#fff"/><g transform="translate(-2182.639 905.607)"><rect width="442" height="250" transform="translate(2322.639 1228.393)" fill="#fff" opacity="0"/><g transform="translate(2465.782 1268.96)"><rect width="63.135" height="3.2" transform="translate(0)" fill="#945029"/><rect width="30.379" height="3.2" transform="translate(93.514 3.2) rotate(180)" fill="#894019"/><rect width="26.852" height="83.879" transform="translate(91.75 87.08) rotate(180)" fill="#894019"/><rect width="63.322" height="75.73" transform="translate(1.577 3.2)" fill="#945029"/><rect width="1.763" height="83.879" transform="translate(63.135 3.2)" fill="#592114"/><rect width="61.559" height="37.865" transform="translate(1.577 41.066)" fill="#945029"/><rect width="63.322" height="0.771" transform="translate(1.577 40.68)" fill="#3b1a11"/><rect width="61.559" height="8.149" transform="translate(1.577 78.931)" fill="#592114"/><rect width="63.322" height="1.32" transform="translate(1.577 78.931)" fill="#3b1a11"/><rect width="3.136" height="6.829" transform="translate(61.763 80.251)" fill="#945029"/><rect width="3.136" height="6.829" transform="translate(1.577 80.251)" fill="#945029"/><rect width="90.174" height="0.771" transform="translate(1.577 3.2)" fill="#3b1a11"/><g transform="translate(19.01 20.512)"><path d="M1.456,0H22.711a1.455,1.455,0,0,1,1.455,1.455v.331a1.456,1.456,0,0,1-1.456,1.456H1.455A1.455,1.455,0,0,1,0,1.787V1.456A1.456,1.456,0,0,1,1.456,0Z" fill="#ced5d4"/><path d="M2475.191,1285.116h-9.539c-.157,0-.286-.181-.286-.4s.128-.4.286-.4h9.539c.157,0,.285.181.285.4S2475.348,1285.116,2475.191,1285.116Z" transform="translate(-2464.41 -1283.792)" fill="#f5f5f5"/></g><g transform="translate(19.01 58.377)"><path d="M2487.172,1334.9H2465.3c-.634,0-1.147-.726-1.147-1.622h0c0-.9.514-1.621,1.147-1.621h21.871c.634,0,1.148.726,1.148,1.621h0C2488.32,1334.177,2487.807,1334.9,2487.172,1334.9Z" transform="translate(-2464.154 -1331.66)" fill="#ced5d4"/><path d="M2475.191,1333.123h-9.539c-.157,0-.286-.181-.286-.4s.128-.4.286-.4h9.539c.157,0,.285.181.285.4S2475.348,1333.123,2475.191,1333.123Z" transform="translate(-2464.41 -1331.799)" fill="#f5f5f5"/></g></g><g transform="translate(2533.953 1260.083)"><g transform="translate(1.262 7.454)"><rect width="35.249" height="97.049" transform="translate(84.956 97.049) rotate(180)" fill="#3b1a11"/><rect width="35.249" height="97.049" fill="#b56635"/><rect width="80.914" height="22.926" transform="translate(30.994 8.068) rotate(90)" fill="#f6e6d7"/><g transform="translate(26.013 32.421)"><ellipse cx="1.456" cy="5.629" rx="1.456" ry="5.629" fill="#5e2e1d"/><path d="M2563.321,1297.7a14.819,14.819,0,0,1,.591,4.518c0,3.109-.652,5.629-1.457,5.629-.231,0-.451-.216-.646-.59.242.695.542,1.111.866,1.111.8,0,1.457-2.52,1.457-5.629A12.532,12.532,0,0,0,2563.321,1297.7Z" transform="translate(-2561.219 -1297.108)" fill="#481c10"/></g><g transform="translate(35.133)"><rect width="35.249" height="97.049" transform="translate(35.249 97.049) rotate(180)" fill="#b56635"/><rect width="80.914" height="22.926" transform="translate(27.182 8.067) rotate(90)" fill="#f6e6d7"/><g transform="translate(6.325 32.421)"><ellipse cx="1.456" cy="5.629" rx="1.456" ry="5.629" fill="#5e2e1d"/><path d="M2582.9,1297.7a14.808,14.808,0,0,1,.59,4.518c0,3.109-.651,5.629-1.455,5.629-.233,0-.451-.216-.647-.59.242.695.541,1.111.866,1.111.8,0,1.456-2.52,1.456-5.629A12.544,12.544,0,0,0,2582.9,1297.7Z" transform="translate(-2580.8 -1297.108)" fill="#481c10"/></g></g><rect width="0.52" height="97.049" transform="translate(34.989)" fill="#3b1a11"/></g><g transform="translate(0)"><path d="M6,0H67.028a6,6,0,0,1,6,6V6a1.459,1.459,0,0,1-1.459,1.459H1.459A1.459,1.459,0,0,1,0,6V6A6,6,0,0,1,6,0Z" transform="translate(14.574)" fill="#d5d5d5"/><path d="M6,0H67.028a6,6,0,0,1,6,6V6a1.459,1.459,0,0,1-1.459,1.459H1.459A1.459,1.459,0,0,1,0,6V6A6,6,0,0,1,6,0Z" fill="#eff0f1"/></g></g><path d="M2624.048,1479.421c0,1.364-54.238,2.466-121.143,2.466s-121.15-1.1-121.15-2.466,54.242-2.453,121.15-2.453S2624.048,1478.069,2624.048,1479.421Z" transform="translate(38.046 -35.02)" fill="#8e8e8f"/><path d="M2496.6,1473.5a2.455,2.455,0,0,1-.307-.072c-.063-.017-.124-.045-.182-.066-.093-.033-.183-.059-.272-.1-.067-.035-.132-.061-.194-.1-.085-.043-.17-.086-.251-.136s-.138-.088-.2-.134-.154-.1-.235-.16-.136-.114-.206-.17-.148-.121-.225-.19-.138-.133-.206-.2-.142-.141-.214-.216-.14-.157-.211-.237-.134-.155-.2-.24-.139-.178-.208-.268-.13-.172-.19-.26-.14-.2-.209-.3-.123-.186-.182-.282-.139-.225-.208-.341c-.056-.1-.113-.194-.173-.292-.069-.123-.136-.252-.206-.381q-.078-.152-.159-.306c-.073-.137-.14-.276-.208-.418-.049-.1-.1-.21-.148-.315-.067-.148-.135-.3-.207-.459-.042-.1-.089-.21-.133-.319-.069-.163-.136-.332-.207-.5-.042-.1-.081-.213-.123-.318-.066-.178-.135-.362-.2-.544-.038-.109-.078-.216-.116-.319-.063-.2-.13-.394-.2-.6-.031-.1-.064-.2-.1-.3-.064-.214-.132-.429-.2-.646-.026-.1-.056-.2-.083-.293-.066-.232-.136-.466-.2-.707-.024-.084-.047-.17-.07-.258-.067-.257-.131-.513-.2-.772-.018-.075-.035-.153-.056-.23-.063-.276-.133-.554-.192-.836-.012-.06-.028-.125-.042-.185-.065-.3-.128-.607-.191-.923-.006-.034-.015-.072-.022-.111a71.428,71.428,0,0,1-1.256-12.309h-12.184c.283,14.435,4.3,25.886,9.21,25.886h12.183a3.32,3.32,0,0,1-.47-.035C2496.7,1473.529,2496.647,1473.513,2496.6,1473.5Z" transform="translate(18.173 -28.833)" fill="#302d2c"/><g transform="translate(2620.218 1267.36)"><g transform="translate(0)"><path d="M2674.032,1324.777c-.527-4.208-14.148-55.2-15.7-60.828s-7.592-8.33-10.286-8.33H2636.5v9.054c5.673.012,9.6.032,10.759.066,2.752.08,3.619,2.015,4.494,3.848s11.879,48.272,12.922,50.654-.123,4.581-3.971,4.581h-24.2v11.6h-.421a.967.967,0,0,1,.965.964v1.485a.964.964,0,0,1-.965.966l-.227.008v27.112h38.331c.045,0,.091.013.137.015l.007-31.711A40.053,40.053,0,0,0,2674.032,1324.777Z" transform="translate(-2635.85 -1255.619)" fill="#1a1a1a"/></g></g><path d="M2664.846,1321.667c-1.042-2.382-12.052-48.82-12.922-50.654s-1.742-3.769-4.494-3.848c-1.154-.035-5.086-.054-10.759-.066v59.15h24.2C2664.723,1326.248,2665.887,1324.05,2664.846,1321.667Z" transform="translate(-15.806 9.316)" fill="#fff" opacity="0.4"/><g transform="translate(2415.886 1296.51)"><rect width="30.096" height="21.216" transform="translate(59.612 35.476)" fill="#5e2e1d"/><ellipse cx="6.863" cy="8.367" rx="6.863" ry="8.367" transform="translate(6.297 0.001)" fill="#b56635"/><path d="M2443.155,1341.745h-44.912l-.66-3.2-1.5-7.279-.661-3.216-3.88-18.833-2.28-11.077a4.629,4.629,0,0,1,4.535-5.565h39.232l.011.052.875,4.247,2.793,13.57.721,3.49,1.682,8.174,1.224,5.942.27,1.31,2.487,12.077Z" transform="translate(-2379.406 -1292.576)" fill="#b56635"/><path d="M2449.771,1349.521h-43.057c.085-1.5.113-3.079.087-4.735-.016-.988-.05-2-.1-3.041q-.07-1.427-.185-2.911-.127-1.639-.3-3.341c-.25-2.4-.571-4.891-.955-7.441-1.172-7.83-2.924-16.224-4.94-24.441q-.154-.626-.309-1.251c-.958-3.844-2.572-7.578-4.763-9.6-.068-.065-.135-.126-.205-.185h38.393a6.865,6.865,0,0,1,.851.052c3.483.424,6.377,3.431,7.067,7.484l3.39,19.883.439,2.576.934,5.481.353,2.069,1.93,11.318.441,2.592.166.968.727,4.27Z" transform="translate(-2380.646 -1292.576)" fill="#914822"/><path d="M2447.15,1300.113l3.39,19.883a80.944,80.944,0,0,0-6.638-9.369c-.05-.061-.1-.122-.15-.181a77.189,77.189,0,0,0-21.247-17.87h17.568l.011.052C2443.567,1293.052,2446.461,1296.059,2447.15,1300.113Z" transform="translate(-2386.448 -1292.576)" fill="#ab5b30"/><g transform="translate(22.397 8.85)"><path d="M2410.822,1303.8l-.149,4.475.149,4.475.149-4.475Z" transform="translate(-2406.346 -1303.796)" fill="#48261a"/><path d="M2414.138,1309.43l-4.475.149-4.476-.149,4.476-.15Z" transform="translate(-2405.188 -1304.955)" fill="#48261a"/><path d="M2411.167,1309.358a.417.417,0,1,1-.417-.417A.418.418,0,0,1,2411.167,1309.358Z" transform="translate(-2406.274 -1304.883)" fill="#3b1a11"/><g transform="translate(13.075)"><path d="M2427.4,1303.8l-.149,4.475.149,4.475.15-4.475Z" transform="translate(-2422.924 -1303.796)" fill="#48261a"/><path d="M2430.716,1309.43l-4.475.149-4.476-.149,4.476-.15Z" transform="translate(-2421.765 -1304.955)" fill="#48261a"/><path d="M2427.746,1309.358a.418.418,0,1,1-.418-.417A.418.418,0,0,1,2427.746,1309.358Z" transform="translate(-2422.852 -1304.883)" fill="#3b1a11"/></g><g transform="translate(26.151)"><path d="M2443.977,1303.8l-.149,4.475.149,4.475.149-4.475Z" transform="translate(-2439.501 -1303.796)" fill="#48261a"/><path d="M2447.293,1309.43l-4.475.149-4.476-.149,4.476-.15Z" transform="translate(-2438.343 -1304.955)" fill="#48261a"/><path d="M2444.322,1309.358a.417.417,0,1,1-.417-.417A.418.418,0,0,1,2444.322,1309.358Z" transform="translate(-2439.43 -1304.883)" fill="#3b1a11"/></g><g transform="translate(3.956 12.126)"><path d="M2415.837,1319.17l-.15,4.475.15,4.475.149-4.475Z" transform="translate(-2411.362 -1319.17)" fill="#48261a"/><path d="M2419.154,1324.8l-4.475.149-4.475-.149,4.475-.149Z" transform="translate(-2410.204 -1320.328)" fill="#48261a"/><path d="M2416.183,1324.732a.417.417,0,1,1-.417-.418A.417.417,0,0,1,2416.183,1324.732Z" transform="translate(-2411.291 -1320.257)" fill="#3b1a11"/><g transform="translate(13.076)"><path d="M2432.415,1319.17l-.15,4.475.15,4.475.149-4.475Z" transform="translate(-2427.939 -1319.17)" fill="#48261a"/><path d="M2435.732,1324.8l-4.476.149-4.475-.149,4.475-.149Z" transform="translate(-2426.781 -1320.328)" fill="#48261a"/><path d="M2432.76,1324.732a.417.417,0,1,1-.417-.418A.417.417,0,0,1,2432.76,1324.732Z" transform="translate(-2427.868 -1320.257)" fill="#3b1a11"/></g><g transform="translate(26.151)"><path d="M2448.993,1319.17l-.15,4.475.15,4.475.149-4.475Z" transform="translate(-2444.517 -1319.17)" fill="#48261a"/><path d="M2452.309,1324.8l-4.476.149-4.475-.149,4.475-.149Z" transform="translate(-2443.358 -1320.328)" fill="#48261a"/><path d="M2449.338,1324.732a.417.417,0,1,1-.417-.418A.418.418,0,0,1,2449.338,1324.732Z" transform="translate(-2444.445 -1320.257)" fill="#3b1a11"/></g></g><g transform="translate(8.256 24.252)"><path d="M2421.289,1334.544l-.148,4.475.148,4.475.15-4.475Z" transform="translate(-2416.814 -1334.544)" fill="#48261a"/><path d="M2424.606,1340.177l-4.475.15-4.476-.15,4.476-.149Z" transform="translate(-2415.656 -1335.702)" fill="#48261a"/><path d="M2421.636,1340.105a.418.418,0,1,1-.418-.417A.418.418,0,0,1,2421.636,1340.105Z" transform="translate(-2416.743 -1335.63)" fill="#3b1a11"/><g transform="translate(13.076)"><path d="M2437.867,1334.544l-.149,4.475.149,4.475.149-4.475Z" transform="translate(-2433.392 -1334.544)" fill="#48261a"/><path d="M2441.183,1340.177l-4.475.15-4.475-.15,4.475-.149Z" transform="translate(-2432.233 -1335.702)" fill="#48261a"/><path d="M2438.213,1340.105a.418.418,0,1,1-.418-.417A.418.418,0,0,1,2438.213,1340.105Z" transform="translate(-2433.32 -1335.63)" fill="#3b1a11"/></g><g transform="translate(26.151)"><path d="M2454.444,1334.544l-.149,4.475.149,4.475.15-4.475Z" transform="translate(-2449.97 -1334.544)" fill="#48261a"/><path d="M2457.761,1340.177l-4.475.15-4.475-.15,4.475-.149Z" transform="translate(-2448.811 -1335.702)" fill="#48261a"/><path d="M2454.791,1340.105a.418.418,0,1,1-.417-.417A.418.418,0,0,1,2454.791,1340.105Z" transform="translate(-2449.897 -1335.63)" fill="#3b1a11"/></g></g></g><g transform="translate(42.051 25.9)"><path d="M2462.337,1330.544a1.908,1.908,0,0,1-.05.275q-.239.907-.458,1.828c0,.006,0,.013,0,.02a.055.055,0,0,0,0,.017q-.274,1.145-.52,2.306-.3,1.407-.552,2.835c-.324,1.817-.6,3.65-.816,5.483q-.3,2.543-.461,5.07c0,.027,0,.05,0,.077l0,.041q-.087,1.436-.129,2.857a2.027,2.027,0,0,1-.039.327l0,.009a1.294,1.294,0,0,1-.184.45.968.968,0,0,1-.207.224,1.141,1.141,0,0,1-1.177.081c-.439-.174-.881-.342-1.319-.5q-2.654-.982-5.278-1.688-1.631-.438-3.266-.771c-.064-.015-.13-.028-.2-.041q-2.479-.5-4.988-.755a56.174,56.174,0,0,0-7.809-.248q-1.71.063-3.466.222a1.513,1.513,0,0,1-.409-.009,1.008,1.008,0,0,1-.692-.39,1.29,1.29,0,0,1-.134-1.1c.045-.172.089-.346.134-.518a92.77,92.77,0,0,0,2.818-20.013,1.086,1.086,0,0,1,1.607-1.09,57.276,57.276,0,0,0,12.75,3.471c.094.013.189.029.284.041q2.391.34,4.825.462c.364.02.728.033,1.09.043a60.828,60.828,0,0,0,7.377-.233,1.249,1.249,0,0,1,.966.252.949.949,0,0,1,.189.232A1.2,1.2,0,0,1,2462.337,1330.544Z" transform="translate(-2430.105 -1325.413)" fill="#149bb3"/><g transform="translate(28.342 4.391)"><path d="M2469.928,1331.72c-.178.7-.348,1.4-.509,2.1,0,.006,0,.013,0,.02a.052.052,0,0,0,0,.017q-.264,1.146-.5,2.306-.291,1.41-.542,2.837c-.323,1.836-.6,3.688-.822,5.541q-.307,2.509-.481,5.01l-.006.076,0,.041q-.111,1.6-.169,3.184v.009a1.29,1.29,0,0,1-.183.45.97.97,0,0,1-.207.224c-.046-.27-.087-.537-.125-.807a31.86,31.86,0,0,1-.295-3.177,38.453,38.453,0,0,1,.454-7.7c.161-1.023.358-2.013.575-2.959s.463-1.869.722-2.728a35.979,35.979,0,0,1,1.972-5.185Z" transform="translate(-2466.039 -1330.98)" fill="#127f8a"/></g><g transform="translate(2.941 7.684)"><path d="M2467.727,1354.776a.725.725,0,0,1-.329.658,1.135,1.135,0,0,1-.947.059q-1.45-.441-2.889-.842a112.442,112.442,0,0,0-28.691-4.178c-.754-.01-1.195-.483-.984-1.078a35,35,0,0,0,2.188-13.45c-.013-.63.556-.942,1.275-.718a112.434,112.434,0,0,0,28.908,4.939q1.326.055,2.673.081a1.486,1.486,0,0,1,.5.087.739.739,0,0,1,.486.99A34.978,34.978,0,0,0,2467.727,1354.776Z" transform="translate(-2433.833 -1335.155)" fill="#e7b178"/><path d="M2476.527,1356.248v.009c0,.433-.321.882-.53.473-1.146-2.241-.327-11.009,2.307-14.4.25-.322.441-.256.463.137a.831.831,0,0,1-.053.331A35.008,35.008,0,0,0,2476.527,1356.248Z" transform="translate(-2442.634 -1336.627)" fill="#be8e5c"/></g></g><path d="M5.615,0h29.22a5.615,5.615,0,0,1,5.615,5.615v0a4.044,4.044,0,0,1-4.044,4.044H3.7A3.7,3.7,0,0,1,0,5.963V5.615A5.615,5.615,0,0,1,5.615,0Z" transform="translate(82.018 58.522) rotate(180)" fill="#48261a"/><path d="M2394.827,1372.163h23.763l-4.687-34.609h-24.325v29.36A5.248,5.248,0,0,0,2394.827,1372.163Z" transform="translate(-2379.493 -1302.078)" fill="#5e2e1d"/><path d="M2415.092,1358.77l3.5,17.875h-23.763a5.248,5.248,0,0,1-5.249-5.248V1358.77Z" transform="translate(-2379.493 -1306.56)" fill="#b56635"/><rect width="5.324" height="15.532" transform="translate(85.217 85.617) rotate(180)" fill="#4b2117"/><rect width="5.324" height="15.532" transform="translate(63.691 85.617) rotate(180)" fill="#4b2117"/><circle cx="8.367" cy="8.367" r="8.367" transform="matrix(0.772, -0.635, 0.635, 0.772, 77.931, 42.695)" fill="#945029"/><circle cx="8.367" cy="8.367" r="8.367" transform="translate(22.092 44.87) rotate(-49.977)" fill="#945029"/><circle cx="8.367" cy="8.367" r="8.367" transform="matrix(0.973, -0.233, 0.233, 0.973, 0, 37.655)" fill="#5e2e1d"/><path d="M2428.063,1348.875v11.692a1.832,1.832,0,0,0,1.833,1.832h35.626a1.636,1.636,0,0,0,1.636-1.636v-11.889h8.55v20.286a5.393,5.393,0,0,1-5.393,5.393h-45.408a5.393,5.393,0,0,1-5.393-5.393v-20.286Z" transform="translate(-2385.817 -1304.469)" fill="#945029"/><rect width="2.161" height="15.532" transform="translate(79.892 85.617) rotate(180)" fill="#c27447"/><rect width="2.161" height="15.532" transform="translate(58.319 85.617) rotate(180)" fill="#c27447"/><rect width="5.324" height="15.532" transform="translate(46.29 85.617) rotate(180)" fill="#4b2117"/><rect width="5.324" height="15.532" transform="translate(24.763 85.617) rotate(180)" fill="#4b2117"/><rect width="2.161" height="15.532" transform="translate(40.965 85.617) rotate(180)" fill="#c27447"/><rect width="2.161" height="15.532" transform="translate(19.439 85.617) rotate(180)" fill="#c27447"/></g><g transform="translate(2626.568 1325.432)"><path d="M2655.141,1329.244H2643.9c.195,1.253.311,2.006.319,2.059a9.608,9.608,0,0,0,.776,3.584h15.01c1.72,0,2.808,1.028,3.859,2.018a8.158,8.158,0,0,0,6.169,2.739,8.738,8.738,0,0,0-.01-3.356c-.089-.781-.291-1.889-.589-3.265H2663.4C2660.921,1330.817,2657.642,1329.244,2655.141,1329.244Z" transform="translate(-2643.902 -1329.244)" fill="#1a1a1a"/></g><g transform="translate(2625.718 1319.88)"><path d="M2642.824,1322.205c.251,1.633.472,3.074.653,4.252a11.048,11.048,0,0,1,3.2,6.942h2.9A13.3,13.3,0,0,0,2642.824,1322.205Z" transform="translate(-2642.824 -1322.205)"/></g><g transform="translate(2620.865 1267.36)"><path d="M2637.5,1365.952h36.858c.045,0,.091.013.137.015l.007-31.711a40.069,40.069,0,0,0-.293-9.478c-.527-4.208-14.149-55.2-15.7-60.828s-7.592-8.33-10.286-8.33h-11.546v8.24h15.023c3.94,0,5.39,5.223,5.866,6.939.594,2.137,6.725,25.615,10.68,40.806a82.975,82.975,0,0,1,1.946,8.931c.395,3.351-.033,4.322-.452,4.791a1.34,1.34,0,0,1-1.014.462,9.863,9.863,0,0,1-7.551-3.2c-1.052-.991-1.693-1.55-2.689-1.55h-15.153c-1.635,0-2.166-2.771-2.324-5.1-.031-.2-2.387-15.515-4.333-28.281v31.168l.826,6.125Z" transform="translate(-2636.671 -1255.619)" fill="#999"/></g><g transform="translate(2644.612 1386.176)"><path d="M2666.78,1406.258c1.024,2.275,1.881,4.785,2.692,6.882,2.414,6.233,3.946,17.566,3.792,20.022-.1,1.658.464,7.034-1.536,10.706,1.97-.024,4.033-.04,6.023-.04,7.936,0,9.476-37.57,9.476-37.57Z" transform="translate(-2666.78 -1406.258)" fill="#1a1a1a"/></g><path d="M2647.474,1396.751a14.205,14.205,0,0,1,6.083,1.135c1.974.868,3.48,3.305,4.732,6.1h20.447s-2.437-8.483-6.512-8.483h-44.169a1.376,1.376,0,0,0-1.463,1.252C2634.133,1396.746,2642.064,1396.74,2647.474,1396.751Z" transform="translate(-13.677 -17.81)" fill="#262626"/><path d="M2682.189,1363.643h1.77v7.655h-2.508v-5.545S2681.506,1363.643,2682.189,1363.643Z" transform="translate(-25.266 -11.079)" fill="#e85400"/><rect width="2.507" height="17.469" transform="translate(2656.185 1360.224)" fill="#c9c9c9"/><path d="M2636.5,1335.754v16.593h-.421a.967.967,0,0,1,.965.964v1.485a.964.964,0,0,1-.965.966l-.227.008V1382.9h1.473v-41.021S2637.009,1339.54,2636.5,1335.754Z" transform="translate(-15.633 -5.188)" fill="#d4d5d5"/><path d="M2665.459,1438.245c0,15.2-4.129,27.518-9.224,27.518s-9.229-12.321-9.229-27.518,4.13-27.518,9.229-27.518S2665.459,1423.051,2665.459,1438.245Z" transform="translate(-17.99 -21.026)" fill="#474645"/><path d="M2618.1,1431.223c.154-2.456-1.379-13.789-3.793-20.022-1.812-4.672-3.835-11.408-7.424-12.983a14.208,14.208,0,0,0-6.083-1.135c-3.67-.009-8.5-.008-13.58,0v1.772h.313a.967.967,0,0,1,.968.966v1.8a.966.966,0,0,1-.968.963h-55.6a1.018,1.018,0,0,0,.288-.059H2405.649v24.271h5.312a78.045,78.045,0,0,0-.46,8.569c0,15.2,4.131,27.518,9.228,27.518,4.911,0,8.924-11.451,9.208-25.886h44.246c.283,14.435,4.3,25.886,9.209,25.886,4.551,0,8.334-9.839,9.084-22.769h29.778c.756,12.93,4.533,22.769,9.082,22.769h12.188a3.231,3.231,0,0,1-.779-.1c-.031-.011-.064-.016-.1-.025a4.322,4.322,0,0,1-.724-.287c-.042-.027-.083-.044-.123-.068a5.063,5.063,0,0,1-.694-.478c-.039-.03-.072-.061-.109-.091a7.279,7.279,0,0,1-.694-.671c-.016-.021-.034-.043-.051-.062a10.6,10.6,0,0,1-.7-.88l-.008-.013c-.227-.324-.448-.677-.664-1.054-.017-.034-.041-.067-.058-.1-.211-.371-.417-.766-.614-1.181-.022-.047-.045-.092-.063-.141-.2-.423-.4-.874-.581-1.344-.011-.027-.023-.058-.038-.092a38.826,38.826,0,0,1-1.566-5.137c0-.016-.006-.03-.009-.048-.15-.629-.287-1.283-.418-1.954,0-.015-.008-.032-.012-.054a68.152,68.152,0,0,1-1.088-8.964c0-.006,0-.011,0-.017-.091-1.542-.14-3.129-.14-4.749,0-15.2,4.133-27.518,9.228-27.518s9.227,12.323,9.227,27.518c0,2.281-.1,4.493-.269,6.614a.3.3,0,0,1,0,.035h32.627c1,11.983,4.627,20.868,8.954,20.868h12.186a3.2,3.2,0,0,1-.729-.093,1.163,1.163,0,0,1-.12-.029,3.51,3.51,0,0,1-.681-.267,1.228,1.228,0,0,1-.129-.061,5.007,5.007,0,0,1-.676-.444.408.408,0,0,1-.051-.041,7.178,7.178,0,0,1-.641-.589c-.027-.029-.057-.055-.086-.087a8.872,8.872,0,0,1-.625-.753c-.037-.046-.072-.1-.107-.143-.208-.285-.413-.582-.607-.909-.021-.034-.039-.069-.061-.1-.2-.338-.393-.692-.585-1.069-.01-.014-.017-.033-.024-.046-.192-.386-.381-.8-.563-1.222-.026-.056-.047-.112-.07-.167-.178-.428-.353-.872-.521-1.338a1.222,1.222,0,0,1-.045-.133c-.349-.977-.672-2.032-.964-3.158-.011-.041-.023-.079-.033-.12-.146-.561-.284-1.141-.411-1.732-.011-.042-.02-.084-.027-.128-.267-1.233-.5-2.532-.7-3.893,0,0,0-.009,0-.018-.1-.674-.188-1.362-.268-2.063,0-.042-.009-.081-.014-.12a79.21,79.21,0,0,1-.485-8.8c0-15.2,4.131-27.518,9.229-27.518s9.224,12.323,9.224,27.518c0,2.3-.095,4.519-.27,6.65h2.319C2618.57,1438.337,2618,1432.891,2618.1,1431.223Z" transform="translate(32.998 -18.142)" fill="#1a1311"/><path d="M2663.381,1440.985c0,9.548-2.352,17.289-5.257,17.289s-5.256-7.741-5.256-17.289,2.354-17.291,5.256-17.291S2663.381,1431.439,2663.381,1440.985Z" transform="translate(-19.228 -23.765)" fill="#ebebeb"/><g transform="translate(2431.317 1389.702)"><path d="M2412.439,1411.847a3.774,3.774,0,0,1,3.091,1.62c1.211-1.754,2.577-2.739,4.013-2.739h-8.484c-.146.33-.286.659-.424,1h-5.74c-.042.031-.078.08-.12.115Z" transform="translate(-2398.134 -1410.728)" fill="#302d2c"/><path d="M2408.537,1443.528c0-2.708.133-5.325.378-7.8h-12.177c-.246,2.474-.384,5.086-.384,7.8,0,15.2,4.129,27.518,9.227,27.518h12.183C2412.669,1471.046,2408.537,1458.725,2408.537,1443.528Z" transform="translate(-2396.355 -1416.01)" fill="#302d2c"/></g><path d="M2585.94,1438.245c0,15.2-4.13,27.518-9.227,27.518s-9.228-12.321-9.228-27.518,4.133-27.518,9.228-27.518S2585.94,1423.051,2585.94,1438.245Z" transform="translate(-1.191 -21.026)" fill="#474645"/><path d="M2583.862,1440.985c0,9.548-2.354,17.289-5.256,17.289s-5.256-7.741-5.256-17.289,2.354-17.291,5.256-17.291S2583.862,1431.439,2583.862,1440.985Z" transform="translate(-2.429 -23.765)" fill="#ebebeb"/><g transform="translate(2562.924 1384.427)"><path d="M2578.936,1404.04h-15.725c2.181,0,3.933,2.263,5.29,5.275h7.311c3.769,0,7.008,6.744,8.438,16.4h2.09s1.13.036,1.13-1.713C2587.469,1420.968,2584.391,1404.04,2578.936,1404.04Z" transform="translate(-2563.211 -1404.04)" fill="#302d2c"/></g><g transform="translate(2440.182 1384.427)"><path d="M2423.317,1404.04H2407.6c2.178,0,3.929,2.264,5.281,5.275h7.263c3.769,0,7.009,6.744,8.439,16.4h2.141s1.129.036,1.129-1.713C2431.849,1420.968,2428.773,1404.04,2423.317,1404.04Z" transform="translate(-2407.595 -1404.04)" fill="#302d2c"/></g><path d="M2585.94,1438.245c0,15.2-4.13,27.518-9.227,27.518s-9.228-12.321-9.228-27.518,4.133-27.518,9.228-27.518S2585.94,1423.051,2585.94,1438.245Z" transform="translate(-1.191 -21.026)" fill="#474645"/><path d="M2583.862,1440.985c0,9.548-2.354,17.289-5.256,17.289s-5.256-7.741-5.256-17.289,2.354-17.291,5.256-17.291S2583.862,1431.439,2583.862,1440.985Z" transform="translate(-2.429 -23.765)" fill="#ebebeb"/><path d="M2660.686,1444.225c0,2.865-.706,5.187-1.578,5.187s-1.574-2.323-1.574-5.187.707-5.189,1.574-5.189S2660.686,1441.359,2660.686,1444.225Z" transform="translate(-20.213 -27.006)" fill="#474645"/><path d="M2581.166,1444.225c0,2.865-.706,5.187-1.574,5.187s-1.578-2.323-1.578-5.187.706-5.189,1.578-5.189S2581.166,1441.359,2581.166,1444.225Z" transform="translate(-3.415 -27.006)" fill="#474645"/><path d="M2658.254,1456.156c-3.1,0-4.774-7.418-4.774-14.4s1.673-14.4,4.774-14.4,4.773,7.422,4.773,14.4S2661.354,1456.156,2658.254,1456.156Zm0-27.662c-1.719,0-3.638,5.672-3.638,13.265s1.919,13.265,3.638,13.265,3.641-5.675,3.641-13.265S2659.97,1428.494,2658.254,1428.494Z" transform="translate(-19.357 -24.54)" fill="#1a1311"/><path d="M2578.736,1456.156c-3.1,0-4.774-7.418-4.774-14.4s1.671-14.4,4.774-14.4,4.772,7.422,4.772,14.4S2581.835,1456.156,2578.736,1456.156Zm0-27.662c-1.522,0-3.643,5.047-3.643,13.265s2.121,13.265,3.643,13.265,3.638-5.046,3.638-13.265S2580.253,1428.494,2578.736,1428.494Z" transform="translate(-2.559 -24.54)" fill="#1a1311"/><path d="M2645.162,1356.289a.962.962,0,0,0,.96.963h4.5a.962.962,0,0,0,.959-.963V1353.4a.961.961,0,0,0-.959-.963h-4.5a.961.961,0,0,0-.96.963Z" transform="translate(-17.6 -8.712)" fill="#262626"/><g transform="translate(2551.096 1384.427)"><g transform="translate(0 6.279)"><path d="M2548.259,1412c-.014.035-.027.078-.044.115h.821a3.781,3.781,0,0,1,3.775,3.779v11.046a3.471,3.471,0,0,1-.046.455h6.067a1.7,1.7,0,0,0,1.785-1.713,49.655,49.655,0,0,1,3.065-13.682Z" transform="translate(-2548.215 -1412.001)" fill="#b3b3b3"/></g><path d="M2569.4,1404.04H2553.68c-2.208,0-4.026,2.772-5.409,6.279h15.422C2565.094,1406.813,2566.987,1404.04,2569.4,1404.04Z" transform="translate(-2548.227 -1404.04)" fill="#5f5e5e"/></g><g transform="translate(2428.395 1384.427)"><path d="M2413.786,1404.04h-15.725c-2.207,0-4.026,2.772-5.41,6.279h15.423C2409.474,1406.813,2411.368,1404.04,2413.786,1404.04Z" transform="translate(-2392.651 -1404.04)" fill="#5f5e5e"/></g><g transform="translate(2447.584 1391.388)"><path d="M2500.534,1412.866H2416.98a3.77,3.77,0,0,1,1.817,3.212v11.046a3.771,3.771,0,0,1-1.817,3.213h83.554a3.773,3.773,0,0,1-1.817-3.213v-11.046A3.771,3.771,0,0,1,2500.534,1412.866Z" transform="translate(-2416.98 -1412.866)" fill="#474645"/></g><path d="M2488.285,1428.413a.963.963,0,0,1-.965.964h-51a.962.962,0,0,1-.96-.964v-12.291a.964.964,0,0,1,.96-.966h51a.966.966,0,0,1,.965.966Z" transform="translate(26.722 -21.962)" fill="#d9d9d9"/><path d="M2566.615,1359.239a.966.966,0,0,1-.966.966h55.6a.964.964,0,0,0,.965-.966v-1.484a.967.967,0,0,0-.965-.964h-55.6a.969.969,0,0,1,.966.964Z" transform="translate(-0.803 -9.632)" fill="#b2b2b3"/><path d="M2566.724,1402.093a.967.967,0,0,1-.968.963h55.6a.965.965,0,0,0,.967-.963v-1.8a.967.967,0,0,0-.967-.966h-55.6a.968.968,0,0,1,.968.966Z" transform="translate(-0.825 -18.618)" fill="#8e8e8f"/><rect width="55.847" height="30.143" transform="translate(2564.37 1350.582)" fill="#a6a7a7"/><rect width="21.501" height="20.4" transform="translate(2593.791 1393.917)" fill="#bdbebf"/><rect width="55.847" height="4.098" transform="translate(2564.37 1350.582)" fill="#8e8e8f"/><path d="M2374.638,1402.093a.965.965,0,0,0,.965.963h149.778a.964.964,0,0,0,.962-.963v-1.8a.965.965,0,0,0-.962-.966H2375.6a.966.966,0,0,0-.965.966Z" transform="translate(39.549 -18.618)" fill="#bdbebf"/><path d="M2374.987,1359.239a.944.944,0,0,0,.928.966h149.49a.945.945,0,0,0,.926-.966v-1.484a.948.948,0,0,0-.926-.964h-149.49a.947.947,0,0,0-.928.964Z" transform="translate(39.475 -9.632)" fill="#e0e0e0"/><rect width="148.26" height="30.143" transform="translate(2416.11 1350.582)" fill="#e0e0e0"/><rect width="148.26" height="4.098" transform="translate(2416.11 1350.582)" fill="#bdbebf"/><path d="M2668.5,1323.4a76.6,76.6,0,0,0-1.9-8.7c-3.953-15.187-10.081-38.65-10.674-40.777-1.064-3.833-2.446-5.695-4.226-5.695h-15.023v10.728c1.824,12.192,5.973,39.13,6.022,39.458a9.6,9.6,0,0,0,.777,3.584h15.01c1.72,0,2.807,1.028,3.859,2.018a8.159,8.159,0,0,0,6.168,2.739A8.7,8.7,0,0,0,2668.5,1323.4Z" transform="translate(-15.806 9.078)" fill="#fff" opacity="0.2"/><path d="M2670.186,1322.742a83.013,83.013,0,0,0-1.946-8.931c-3.956-15.191-10.086-38.669-10.68-40.806-.476-1.716-1.926-6.939-5.866-6.939h-15.023v1.7h15.023c1.78,0,3.162,1.862,4.226,5.7.593,2.127,6.722,25.59,10.674,40.776a76.606,76.606,0,0,1,1.9,8.7,8.7,8.7,0,0,1,.009,3.356,8.16,8.16,0,0,1-6.168-2.739c-1.052-.99-2.139-2.018-3.859-2.018h-15.01a9.6,9.6,0,0,1-.777-3.584c-.05-.328-4.2-27.266-6.022-39.459v11.367c1.946,12.765,4.3,28.078,4.333,28.281.158,2.327.689,5.1,2.324,5.1h15.153c1,0,1.637.56,2.689,1.55a9.863,9.863,0,0,0,7.551,3.2,1.34,1.34,0,0,0,1.014-.462C2670.153,1327.064,2670.581,1326.093,2670.186,1322.742Z" transform="translate(-15.806 9.534)" fill="#1a1311"/><g transform="translate(2423.046 1390.821)"><path d="M2413.752,1416.23a2.651,2.651,0,0,0-2.648-2.644h-12.65v16.335h12.65a2.651,2.651,0,0,0,2.648-2.645Z" transform="translate(-2388.528 -1412.451)" fill="#e12f15"/><g transform="translate(0)"><path d="M2387.307,1427.412a2.63,2.63,0,0,0,2.631,2.509h5.029v-16.335h-5.029a2.634,2.634,0,0,0-2.633,2.532Z" transform="translate(-2386.172 -1412.451)" fill="#f38200"/><path d="M2408.445,1412.147h-18.81a3.771,3.771,0,0,0-3.766,3.646v11.339a3.767,3.767,0,0,0,3.766,3.618h18.81a3.786,3.786,0,0,0,3.781-3.778v-11.046A3.784,3.784,0,0,0,2408.445,1412.147Zm-13.781,17.47h-5.029a2.63,2.63,0,0,1-2.631-2.509l0-11.294a2.634,2.634,0,0,1,2.633-2.531h5.029Zm16.43-2.645a2.652,2.652,0,0,1-2.648,2.645H2395.8v-16.335h12.649a2.651,2.651,0,0,1,2.648,2.644Z" transform="translate(-2385.869 -1412.147)"/></g></g><g transform="translate(2529.322 1390.821)"><path d="M2522.047,1427.276a2.653,2.653,0,0,0,2.651,2.645h12.683v-16.335H2524.7a2.652,2.652,0,0,0-2.651,2.644Z" transform="translate(-2520.913 -1412.451)" fill="#e12f15"/><path d="M2550.562,1416.23a2.649,2.649,0,0,0-2.645-2.644h-4.993v16.335h4.993a2.65,2.65,0,0,0,2.645-2.645Z" transform="translate(-2525.323 -1412.451)" fill="#f38200"/><path d="M2543.2,1412.147h-18.809a3.785,3.785,0,0,0-3.785,3.779v11.046a3.787,3.787,0,0,0,3.785,3.778H2543.2a3.782,3.782,0,0,0,3.777-3.778v-11.046A3.781,3.781,0,0,0,2543.2,1412.147Zm-6.125,17.47h-12.684a2.652,2.652,0,0,1-2.65-2.645v-11.046a2.651,2.651,0,0,1,2.65-2.644h12.684Zm8.77-2.645a2.65,2.65,0,0,1-2.645,2.645h-4.993v-16.335h4.993a2.649,2.649,0,0,1,2.645,2.644Z" transform="translate(-2520.609 -1412.147)"/></g><path d="M2680.977,1334.667a3.857,3.857,0,0,0,3.859,3.853h8.527a3.854,3.854,0,0,0,3.852-3.853v-14.956a3.854,3.854,0,0,0-3.852-3.855h-8.527a3.857,3.857,0,0,0-3.859,3.855Z" transform="translate(-25.166 -0.984)"/><path d="M2.851,0h4.83a2.852,2.852,0,0,1,2.852,2.852V16.6A2.853,2.853,0,0,1,7.68,19.454H2.852A2.852,2.852,0,0,1,0,16.6V2.851A2.851,2.851,0,0,1,2.851,0Z" transform="translate(2658.493 1316.478)" fill="#ebebeb"/></g></g></svg>