<svg xmlns="http://www.w3.org/2000/svg" xmlns:xlink="http://www.w3.org/1999/xlink" width="525" height="250" viewBox="0 0 525 250"><defs><clipPath id="a"><path d="M2139.46,1137.42c.533-12.139,3.469-43.391,4.633-49.516,2.365-12.44,14.264-22.688,23.694-22.688H2224.1c18.4,0,34.836,20.066,38.159,23.7s24.314,38.618,27.329,54.431c1.251,6.569.232,60.259.232,60.259l-16.28,10.584c-1.328-3.954-.178-15.378-2.733-27.009-1.753-8-5.05-14.562-9.154-14.562-12.259,0-15.161,26.038-15.431,42.089H2187.95a110.558,110.558,0,0,0,.6-23.5c-.893-9.7-3.915-18.594-10.475-18.594-10.606,0-14.266,21.6-15.85,34.552a17.537,17.537,0,0,1-1.76,5.143l-19.639-4.436-1.631-3.522S2138.807,1152.323,2139.46,1137.42Zm106.1-8.787c1.1.174,32.958,3.27,33.747,3.27,2.215,0,3.833-1.735,1.411-6.679-1.165-2.378-3.34-7.535-6.343-13.161-4.2-7.861-9.339-16.354-9.677-16.929a8.065,8.065,0,0,0-6.542-3.977h-16.987c-2.055,0-2.667,1.977-2.17,4.772,1.081,6.071,2.667,23.355,3.266,28.558C2242.525,1126.724,2243.593,1128.322,2245.561,1128.633Zm-92.7-33.331c-.1,8.119.608,21.378.964,35.217.066,2.6,1.538,4.772,4.388,4.772,1.042,0,74.574-.11,75.708-.11s2.54-1.367,2.491-3.677c-.181-8.432-2.35-29.978-2.842-36.691-.138-1.872-1.229-3.571-2.519-3.571-1.474,0-73.169-.086-74.267-.086A4.5,4.5,0,0,0,2152.857,1095.3Z" transform="translate(-2139.083 -1065.216)" fill="none"/></clipPath><clipPath id="b"><path d="M1818.527,1063.924c-4.138,2.514-7.968,4.862-9.686,8.623-2.74,5.993-2.435,15.842-2.435,15.842l137.718-.043s1.119-8.892,1.37-15.457c.1-2.736,2.816-10.14,3.6-11.264,2.784-4,12.653-7.748,22.8-7.958l-112.824.035a161.232,161.232,0,0,0-18.971,2.3C1833.3,1057.233,1823.388,1060.97,1818.527,1063.924Zm119.177,7.333c-.276.592-2.458,1.072-4.875,1.073,0,0-29.732.366-58.491.375s-56.852-.339-56.852-.339c-2.417,0-3.618-.079-2.968-1.071,2.495-3.808,7.663-7.044,12.615-9.6a13,13,0,0,1,5.785-1.073s28.485-.115,47.685-.121,57.667.088,57.667.088c2.418,0,4.156.479,3.882,1.07Z" transform="translate(-1806.397 -1053.666)" fill="none"/></clipPath></defs><g transform="translate(-98 -2134)"><rect width="525" height="250" transform="translate(98 2134)" fill="#fff"/><path d="M2654.234,1479.879c0,1.618-61,2.926-136.236,2.926s-136.243-1.308-136.243-2.926,61-2.911,136.243-2.911S2654.234,1478.275,2654.234,1479.879Z" transform="translate(-2149.402 866.146)" fill="#8e8e8f"/><g transform="translate(-1607.229 1118.761)"><path d="M2050.5,1145.476c-3.225-15.343-27.558-48.205-29.935-52.582-4.149-7.646-14.313-23.034-18.433-23.034h-76.406c-10.094,0-25.074,9.985-30.754,22.054-2.794,5.943-11.428,35.363-15.072,47.141-4.469,14.459,9.017,65.849,9.017,65.849l1.746,3.417,21.009,4.3a16.081,16.081,0,0,0,1.884-4.991c1.689-12.571,5.609-33.525,16.953-33.525,7.019,0,10.251,8.631,11.208,18.041a97.158,97.158,0,0,1-.649,22.8h62.34c.29-15.575,3.395-40.839,16.508-40.839,4.393,0,7.917,6.362,9.79,14.128,2.737,11.286,1.507,22.371,2.928,26.207l17.415-10.269S2051.842,1151.85,2050.5,1145.476Zm-106.449-44.694c-.189,1.289-4.377,30.438-4.576,31.7a3.692,3.692,0,0,1-.785,1.833c-18.68.025-40.323.049-42.728.052a4.441,4.441,0,0,1-.111-1.428c.618-7.773,5.655-26.563,8.226-33.062a2.955,2.955,0,0,1,1.062-1.381l38.667.039A3.179,3.179,0,0,1,1944.052,1100.782Zm4.224,0a3.889,3.889,0,0,1,.885-2.247l36.467.037c-.732,5.079-5.5,30.563-6.166,35.486a.521.521,0,0,1-.06.2l-35.422.046a2.944,2.944,0,0,1-.251-1.826C1943.891,1131.221,1948.088,1102.072,1948.276,1100.782Zm38.875-5.628a1.583,1.583,0,0,1,.322.049l-81.73-.081a2.626,2.626,0,0,1,.452-.051C1907.374,1095.071,1985.575,1095.154,1987.151,1095.154Zm51.65,39.453c-.843,0-34.916-.1-36.1-.137-9.2-.315-13.294,1.1-11.957-7.058.823-5.027,3.353-21.82,3.734-27.71.173-2.713,1.332-4.631,3.528-4.631h18.174a8.768,8.768,0,0,1,7,3.859c.361.557,5.863,8.8,10.354,16.426,3.214,5.46,5.541,10.461,6.784,12.77C2042.9,1132.923,2041.17,1134.607,2038.8,1134.607Z" transform="translate(-38.22 -8.526)" fill="#302d2c"/><g transform="translate(1948.182 1173.426)"><path d="M2154.368,1333.266c0,14.743-4.01,26.693-8.95,26.693s-8.955-11.949-8.955-26.693,4.007-26.695,8.955-26.695S2154.368,1318.522,2154.368,1333.266Z" transform="translate(-2121.95 -1306.571)" fill="#1a1311"/><path d="M2114.775,1306.571c-4.946,0-8.959,11.951-8.959,26.695s4.013,26.693,8.959,26.693h14.509c-4.948,0-8.955-11.949-8.955-26.693s4.007-26.695,8.955-26.695Z" transform="translate(-2105.816 -1306.571)" fill="#302d2c"/></g><g transform="translate(1865.686 1173.426)"><path d="M1980.154,1333.266c0,14.743-4.008,26.693-8.95,26.693s-8.954-11.949-8.954-26.693,4.006-26.695,8.954-26.695S1980.154,1318.522,1980.154,1333.266Z" transform="translate(-1947.737 -1306.571)" fill="#1a1311"/><path d="M1940.561,1306.571c-4.946,0-8.958,11.951-8.958,26.695s4.012,26.693,8.958,26.693h14.508c-4.948,0-8.954-11.949-8.954-26.693s4.006-26.695,8.954-26.695Z" transform="translate(-1931.603 -1306.571)" fill="#302d2c"/></g><path d="M1882.957,1103.583c-3.808,9.444-7.332,18.26-8.913,32.391-2.522,22.516-2.245,59.528-2.245,59.528h126.693s1.032-33.415,1.265-58.083c.1-10.281,2.593-38.1,3.313-42.325,2.563-15.018,12.04-29.572,20.962-29.879H1920.254s-9.782,2.521-17.453,8.609C1896.7,1078.665,1887.429,1092.488,1882.957,1103.583Zm109.634,27.7a4.632,4.632,0,0,1-4.484,4.027s-27.352,1.342-53.809,1.342-52.3-1.342-52.3-1.342c-2.223,0-3.328-.3-2.73-4.027a132.709,132.709,0,0,1,11.608-36.042c1.268-2.669,3.1-4.027,5.322-4.027,0,0,26.2-.4,43.867-.4s53.051.4,53.051.4a3.525,3.525,0,0,1,3.571,4.027Z" transform="translate(-34.427 -6.081)" fill="#302d2c"/><path d="M6.8,0h.063a6.8,6.8,0,0,1,6.8,6.8v3.662a6.8,6.8,0,0,1-6.8,6.8H6.8a6.8,6.8,0,0,1-6.8-6.8V6.8A6.8,6.8,0,0,1,6.8,0Z" transform="translate(1987.691 1110.791)"/><path d="M3.967,0H6.211a3.967,3.967,0,0,1,3.967,3.967v6.644a3.97,3.97,0,0,1-3.97,3.97H3.967A3.967,3.967,0,0,1,0,10.614V3.967A3.967,3.967,0,0,1,3.967,0Z" transform="translate(1989.839 1112.134)" fill="#fff"/><path d="M2239,1077.433c-6.967-3.528-19.59-7.573-19.59-7.573h-83.742c6.579.8,19.908,22.5,23.534,29.032,2.3,4.137,15.5,26.069,18.416,30.563a70.451,70.451,0,0,1,7.759,15.659c.754,1.9-.085,34.548-.085,34.548H2282.8s.306-31.925.331-34.436-2.415-16.92-4.145-20.537-13.873-24.034-16.873-28.519C2256.037,1087.082,2249.822,1082.914,2239,1077.433Zm-73.937,14.606c1.7,0,23.213.445,45.011.445,21.247,0,38.087-.445,40.792-.445s5.7,3,6.72,4.18c1.61,1.871,12.894,20.97,16.475,30.89a3.956,3.956,0,0,1-4.115,4.9c-1.576,0-20.524,1.537-44.612,1.537-25.974,0-33.5-1.537-36.443-1.537-3.675,0-5.671-1.684-6.557-3.675s-18.547-30.171-19.542-32.47A2.54,2.54,0,0,1,2165.066,1092.038Z" transform="translate(-173.351 -8.526)" fill="#302d2c"/><path d="M2194.879,1116.7c1.7,0,23.213.445,45.011.445,21.247,0,38.087-.445,40.792-.445s5.7,3,6.72,4.18c1.61,1.871,12.894,20.97,16.475,30.89a3.956,3.956,0,0,1-4.115,4.9c-1.576,0-20.524,1.537-44.612,1.537-25.974,0-33.5-1.537-36.443-1.537-3.675,0-5.671-1.684-6.556-3.675s-18.547-30.171-19.542-32.47A2.539,2.539,0,0,1,2194.879,1116.7Z" transform="translate(-203.164 -33.183)" fill="#fff" opacity="0.4"/><path d="M1962.778,1132.614c-.189,1.289-4.377,30.438-4.576,31.7a3.693,3.693,0,0,1-.785,1.833c-18.68.025-40.324.049-42.728.052a4.437,4.437,0,0,1-.111-1.428c.618-7.773,5.654-26.563,8.226-33.062a2.955,2.955,0,0,1,1.062-1.381l38.667.039A3.178,3.178,0,0,1,1962.778,1132.614Z" transform="translate(-56.946 -40.357)" fill="#1a1311" opacity="0.5"/><path d="M2020.2,1132.663a3.889,3.889,0,0,1,.885-2.247l36.467.037c-.731,5.079-5.5,30.563-6.166,35.486a.512.512,0,0,1-.06.2l-35.422.047a2.944,2.944,0,0,1-.251-1.826C2015.82,1163.1,2020.017,1133.952,2020.2,1132.663Z" transform="translate(-110.149 -40.406)" fill="#1a1311" opacity="0.5"/><path d="M2167.514,1160.04c-1.637,0-40.989.027-58.494.053a3.859,3.859,0,0,1-.251-2.106c.162-1.449,4.359-35.064,4.548-36.551a4.885,4.885,0,0,1,.884-2.592c17.464.02,27.229.039,29.693.042" transform="translate(-159.169 -34.314)" fill="#1a1311" opacity="0.5"/><path d="M2203.661,1201.557a4.884,4.884,0,0,1,4.562-3.157h50.825c2.089,0,4.833,1.315,6.9,3.157h6.165c2.689,0,5.123,3.281,5.123,5.966V1218.6h-132.9v-10.992c0-2.775,1.57-6.055,5.291-6.055Z" transform="translate(-177.914 -76.197)" fill="#1a1a1a"/><path d="M2255.764,1128.228a1.632,1.632,0,0,0,1.632,1.631h24.686a1.632,1.632,0,0,0,1.634-1.631v-5.257a1.632,1.632,0,0,0-1.634-1.632H2257.4a1.632,1.632,0,0,0-1.632,1.632Z" transform="translate(-236.576 -35.627)" fill="#1a1a1a"/><g transform="translate(2054.458 1112.55)"><path d="M2349.352,1206.8c-9.141,0-17.638-6.456-18.938-14.391s5.08-14.392,14.219-14.392,17.638,6.455,18.939,14.392S2358.492,1206.8,2349.352,1206.8Zm-4.3-26.229c-7.517,0-12.764,5.31-11.693,11.837s8.055,11.834,15.573,11.834,12.762-5.31,11.693-11.834S2352.572,1180.569,2345.053,1180.569Z" transform="translate(-2330.246 -1178.015)"/></g><g transform="translate(2020.931 1090.134)"><path d="M2268.27,1145.235c.1,2.163,1.622,3.916,3.4,3.916h17.01c1.779,0,3.141-1.753,3.042-3.916l-1.562-10.642c-.1-2.161-1.622-3.915-3.4-3.915H2271.9c-1.779,0-3.14,1.754-3.041,3.915Z" transform="translate(-2264.091 -1130.679)" fill="#1a1a1a"/><path d="M2260.958,1196.9l-1.474-19.113c-.348-1.779,1.668-4.079,3.448-4.079h27.224a4.111,4.111,0,0,1,3.852,3.222l1.976,19.971Z" transform="translate(-2259.445 -1153.331)" fill="#1a1a1a"/><path d="M2268.27,1145.235c.037,2.163.6,3.916,1.258,3.916h6.291c.658,0,1.162-1.753,1.125-3.916l-.578-10.642c-.037-2.161-.6-3.915-1.258-3.915h-5.5c-.658,0-1.161,1.754-1.125,3.915Z" transform="translate(-2257.091 -1118.679)" fill="#1a1a1a"/></g><g transform="translate(1954.611 1090.134)"><g transform="translate(0)"><path d="M2128.217,1145.235c.1,2.163,1.622,3.916,3.4,3.916h17.01c1.778,0,3.141-1.753,3.041-3.916l-1.562-10.642c-.1-2.161-1.622-3.915-3.4-3.915h-14.862c-1.78,0-3.142,1.754-3.041,3.915Z" transform="translate(-2124.038 -1130.679)" fill="#1a1a1a"/><path d="M2120.905,1196.9l-1.474-19.113c-.349-1.779,1.667-4.079,3.448-4.079H2150.1a4.113,4.113,0,0,1,3.854,3.222l1.976,19.971Z" transform="translate(-2119.391 -1153.331)" fill="#1a1a1a"/></g></g><path d="M2287.753,1318.054l-.28-28.233H2144.41l.555,42.269,43.39,3.026,87.907-1.951Z" transform="translate(-177.952 -124.327)" fill="#1a1311"/><g transform="translate(1978.536 1173.426)"><path d="M2218.464,1333.266c0,14.743-4.006,26.693-8.949,26.693s-8.954-11.949-8.954-26.693,4.006-26.695,8.954-26.695S2218.464,1318.522,2218.464,1333.266Z" transform="translate(-2186.049 -1306.571)" fill="#474645"/><path d="M2178.872,1306.571c-4.945,0-8.957,11.951-8.957,26.695s4.012,26.693,8.957,26.693h14.509c-4.948,0-8.953-11.949-8.953-26.693s4.005-26.695,8.953-26.695Z" transform="translate(-2169.915 -1306.571)" fill="#1a1311"/><path d="M2220.227,1344.293c0,9.264-2.282,16.772-5.1,16.772s-5.1-7.508-5.1-16.772,2.285-16.776,5.1-16.776S2220.227,1335.029,2220.227,1344.293Z" transform="translate(-2191.031 -1317.598)" fill="#ebebeb"/><path d="M2220.343,1348.022c0,7.411-1.826,13.418-4.081,13.418s-4.082-6.007-4.082-13.418,1.828-13.422,4.082-13.422S2220.343,1340.612,2220.343,1348.022Z" transform="translate(-2192.166 -1321.328)" fill="none" stroke="#1a1311" stroke-miterlimit="10" stroke-width="2"/><path d="M2220.65,1358.116c0,2.4-.592,4.34-1.319,4.34s-1.323-1.942-1.323-4.34.592-4.342,1.323-4.342S2220.65,1355.718,2220.65,1358.116Z" transform="translate(-2195.234 -1331.422)" fill="none" stroke="#1a1311" stroke-miterlimit="10" stroke-width="1.3"/></g><rect width="67.405" height="16.712" transform="translate(1868.794 1186.256)" fill="#302d2c"/><g transform="translate(1852.771 1143.371)"><rect width="57.824" height="40.413" transform="translate(73.582 40.413) rotate(-180)" fill="#b56635"/><rect width="52.85" height="12.757" transform="translate(71.095 14.561) rotate(-180)" fill="#5e2e1d"/><rect width="52.85" height="22.555" transform="translate(71.095 38.301) rotate(-180)" fill="#f6e6d7"/><rect width="26.425" height="22.555" transform="translate(44.67 38.301) rotate(-180)" fill="#c4d6bd"/><g transform="translate(67.734 18.716)"><path d="M1828.782,1338.673h0a.545.545,0,0,0,.544-.544v-4.819a.545.545,0,0,0-.544-.544h0a.546.546,0,0,0-.544.544v4.819A.545.545,0,0,0,1828.782,1338.673Z" transform="translate(-1828.238 -1332.766)" fill="#5e2e1d"/><path d="M1828.782,1332.766a.537.537,0,0,1,.156.026.544.544,0,0,0-.389.519v4.819a.544.544,0,0,0,.389.519.536.536,0,0,1-.7-.519v-4.819A.546.546,0,0,1,1828.782,1332.766Z" transform="translate(-1828.238 -1332.766)" fill="#481c10"/></g><g transform="translate(20.492 18.716)"><path d="M1739.97,1338.673h0a.546.546,0,0,0,.544-.544v-4.819a.546.546,0,0,0-.544-.544h0a.546.546,0,0,0-.545.544v4.819A.546.546,0,0,0,1739.97,1338.673Z" transform="translate(-1739.426 -1332.766)" fill="#5e2e1d"/><path d="M1739.97,1332.766a.535.535,0,0,1,.155.026.545.545,0,0,0-.389.519v4.819a.545.545,0,0,0,.389.519.536.536,0,0,1-.7-.519v-4.819A.546.546,0,0,1,1739.97,1332.766Z" transform="translate(-1739.426 -1332.766)" fill="#481c10"/></g><rect width="15.758" height="40.413" transform="translate(15.758 40.413) rotate(-180)" fill="#3b1a11"/><rect width="5.96" height="5.66" transform="translate(24.017 46.073) rotate(-180)" fill="#b56635"/><rect width="1.347" height="5.66" transform="translate(18.056 40.413)" fill="#3b1a11"/><rect width="5.96" height="5.66" transform="translate(6.737 46.073) rotate(-180)" fill="#b56635"/><rect width="1.347" height="5.66" transform="translate(0.777 40.413)" fill="#3b1a11"/><rect width="5.96" height="5.66" transform="translate(71.608 46.073) rotate(-180)" fill="#b56635"/><rect width="1.347" height="5.66" transform="translate(65.648 40.413)" fill="#3b1a11"/><rect width="5.96" height="5.66" transform="translate(54.329 46.073) rotate(-180)" fill="#b56635"/><rect width="1.347" height="5.66" transform="translate(48.369 40.413)" fill="#3b1a11"/><rect width="15.758" height="12.628" transform="translate(71.199 14.389) rotate(-180)" fill="#3b1a11"/></g><g transform="translate(1894.369 1117.721)"><rect width="25.084" height="17.683" transform="translate(49.685 29.569)" fill="#5e2e1d"/><ellipse cx="5.72" cy="6.974" rx="5.72" ry="6.974" transform="translate(5.249 0)" fill="#b56635"/><path d="M2434.165,1333.557h-37.433l-.55-2.666-1.249-6.067-.551-2.68-3.234-15.7-1.9-9.233a3.859,3.859,0,0,1,3.78-4.639h32.7l.009.043.729,3.54,2.328,11.311.6,2.909,1.4,6.813,1.021,4.953.225,1.092,2.073,10.066Z" transform="translate(-2381.031 -1292.576)" fill="#b56635"/><path d="M2440.657,1340.038H2404.77c.071-1.248.094-2.566.073-3.946-.013-.823-.042-1.671-.085-2.535q-.059-1.189-.154-2.427-.106-1.366-.253-2.784c-.208-2-.476-4.077-.8-6.2-.977-6.526-2.437-13.522-4.117-20.371q-.129-.522-.258-1.043c-.8-3.2-2.144-6.316-3.969-8-.057-.054-.113-.105-.171-.154h32a5.776,5.776,0,0,1,.709.043,7.2,7.2,0,0,1,5.89,6.238l2.825,16.572.366,2.147.779,4.568.294,1.724,1.608,9.434.367,2.16.138.807.605,3.559Z" transform="translate(-2383.042 -1292.576)" fill="#914822"/><path d="M2443.046,1298.858l2.826,16.572a67.521,67.521,0,0,0-5.533-7.808c-.042-.051-.082-.1-.126-.151a64.332,64.332,0,0,0-17.708-14.894h14.643l.009.043A7.2,7.2,0,0,1,2443.046,1298.858Z" transform="translate(-2392.452 -1292.576)" fill="#ab5b30"/><g transform="translate(18.668 7.376)"><path d="M2410.8,1303.8l-.124,3.73.124,3.73.125-3.73Z" transform="translate(-2407.067 -1303.796)" fill="#48261a"/><path d="M2412.647,1309.405l-3.729.125-3.73-.125,3.73-.125Z" transform="translate(-2405.187 -1305.675)" fill="#48261a"/><path d="M2411.028,1309.289a.348.348,0,1,1-.348-.348A.348.348,0,0,1,2411.028,1309.289Z" transform="translate(-2406.95 -1305.559)" fill="#3b1a11"/><g transform="translate(10.898)"><path d="M2427.374,1303.8l-.125,3.73.125,3.73.125-3.73Z" transform="translate(-2423.644 -1303.796)" fill="#48261a"/><path d="M2429.226,1309.405l-3.73.125-3.73-.125,3.73-.125Z" transform="translate(-2421.765 -1305.675)" fill="#48261a"/><path d="M2427.606,1309.289a.348.348,0,1,1-.349-.348A.348.348,0,0,1,2427.606,1309.289Z" transform="translate(-2423.528 -1305.559)" fill="#3b1a11"/></g><g transform="translate(21.796)"><path d="M2443.952,1303.8l-.125,3.73.125,3.73.125-3.73Z" transform="translate(-2440.222 -1303.796)" fill="#48261a"/><path d="M2445.8,1309.405l-3.73.125-3.73-.125,3.73-.125Z" transform="translate(-2438.343 -1305.675)" fill="#48261a"/><path d="M2444.183,1309.289a.348.348,0,1,1-.348-.348A.348.348,0,0,1,2444.183,1309.289Z" transform="translate(-2440.105 -1305.559)" fill="#3b1a11"/></g><g transform="translate(3.297 10.107)"><path d="M2415.812,1319.17l-.125,3.73.125,3.73.124-3.73Z" transform="translate(-2412.082 -1319.17)" fill="#48261a"/><path d="M2417.663,1324.779l-3.73.124-3.729-.124,3.729-.125Z" transform="translate(-2410.204 -1321.049)" fill="#48261a"/><path d="M2416.044,1324.663a.348.348,0,1,1-.348-.349A.347.347,0,0,1,2416.044,1324.663Z" transform="translate(-2411.967 -1320.932)" fill="#3b1a11"/><g transform="translate(10.898)"><path d="M2432.39,1319.17l-.125,3.73.125,3.73.125-3.73Z" transform="translate(-2428.66 -1319.17)" fill="#48261a"/><path d="M2434.241,1324.779l-3.73.124-3.73-.124,3.73-.125Z" transform="translate(-2426.781 -1321.049)" fill="#48261a"/><path d="M2432.621,1324.663a.348.348,0,1,1-.347-.349A.348.348,0,0,1,2432.621,1324.663Z" transform="translate(-2428.544 -1320.932)" fill="#3b1a11"/></g><g transform="translate(21.796)"><path d="M2448.967,1319.17l-.124,3.73.124,3.73.125-3.73Z" transform="translate(-2445.238 -1319.17)" fill="#48261a"/><path d="M2450.818,1324.779l-3.73.124-3.73-.124,3.73-.125Z" transform="translate(-2443.358 -1321.049)" fill="#48261a"/><path d="M2449.2,1324.663a.348.348,0,1,1-.349-.349A.348.348,0,0,1,2449.2,1324.663Z" transform="translate(-2445.121 -1320.932)" fill="#3b1a11"/></g></g><g transform="translate(6.882 20.213)"><path d="M2421.264,1334.544l-.124,3.73.124,3.73.126-3.73Z" transform="translate(-2417.535 -1334.544)" fill="#48261a"/><path d="M2423.116,1340.152l-3.73.125-3.73-.125,3.73-.124Z" transform="translate(-2415.656 -1336.423)" fill="#48261a"/><path d="M2421.5,1340.036a.348.348,0,1,1-.349-.348A.348.348,0,0,1,2421.5,1340.036Z" transform="translate(-2417.419 -1336.306)" fill="#3b1a11"/><g transform="translate(10.898)"><path d="M2437.843,1334.544l-.125,3.73.125,3.73.124-3.73Z" transform="translate(-2434.112 -1334.544)" fill="#48261a"/><path d="M2439.693,1340.152l-3.73.125-3.729-.125,3.729-.124Z" transform="translate(-2432.233 -1336.423)" fill="#48261a"/><path d="M2438.074,1340.036a.349.349,0,1,1-.348-.348A.349.349,0,0,1,2438.074,1340.036Z" transform="translate(-2433.995 -1336.306)" fill="#3b1a11"/></g><g transform="translate(21.796)"><path d="M2454.42,1334.544l-.124,3.73.124,3.73.125-3.73Z" transform="translate(-2450.691 -1334.544)" fill="#48261a"/><path d="M2456.271,1340.152l-3.729.125-3.73-.125,3.73-.124Z" transform="translate(-2448.811 -1336.423)" fill="#48261a"/><path d="M2454.651,1340.036a.348.348,0,1,1-.348-.348A.348.348,0,0,1,2454.651,1340.036Z" transform="translate(-2450.573 -1336.306)" fill="#3b1a11"/></g></g></g><g transform="translate(35.049 21.587)"><path d="M2456.97,1329.69a1.6,1.6,0,0,1-.042.229q-.2.756-.383,1.523a.1.1,0,0,1,0,.017.039.039,0,0,0,0,.014q-.229.955-.434,1.922-.248,1.173-.461,2.363c-.27,1.515-.5,3.042-.68,4.57q-.25,2.119-.385,4.225a.618.618,0,0,1,0,.064v.034q-.073,1.2-.107,2.381a1.75,1.75,0,0,1-.032.272l0,.007a1.07,1.07,0,0,1-.153.375.811.811,0,0,1-.172.187.952.952,0,0,1-.981.067c-.366-.145-.734-.285-1.1-.421q-2.212-.819-4.4-1.407-1.359-.365-2.722-.642c-.054-.012-.109-.024-.165-.034q-2.066-.413-4.158-.629a46.81,46.81,0,0,0-6.508-.207q-1.426.052-2.889.185a1.249,1.249,0,0,1-.341-.007.838.838,0,0,1-.577-.325,1.075,1.075,0,0,1-.112-.918c.038-.143.074-.288.112-.432a77.351,77.351,0,0,0,2.349-16.681.905.905,0,0,1,1.34-.908,47.722,47.722,0,0,0,10.627,2.892l.237.034q1.993.283,4.021.385c.3.016.606.028.908.036a50.733,50.733,0,0,0,6.149-.194,1.042,1.042,0,0,1,.8.21.8.8,0,0,1,.158.194A1,1,0,0,1,2456.97,1329.69Z" transform="translate(-2430.106 -1325.413)" fill="#149bb3"/><g transform="translate(23.623 3.66)"><path d="M2469.281,1331.6c-.148.581-.29,1.163-.424,1.752,0,.005,0,.011,0,.016a.057.057,0,0,0,0,.014q-.22.955-.419,1.922-.242,1.175-.451,2.365c-.27,1.53-.5,3.074-.685,4.618q-.255,2.091-.4,4.176l0,.064,0,.034q-.093,1.334-.141,2.654v.007a1.078,1.078,0,0,1-.153.375.8.8,0,0,1-.173.187c-.038-.225-.072-.448-.1-.673-.128-.889-.208-1.771-.246-2.648a32.071,32.071,0,0,1,.378-6.418c.135-.853.3-1.678.479-2.467s.386-1.557.6-2.274a30.044,30.044,0,0,1,1.644-4.322Z" transform="translate(-2466.039 -1330.98)" fill="#127f8a"/></g><g transform="translate(2.451 6.405)"><path d="M2462.083,1351.509a.605.605,0,0,1-.275.549.944.944,0,0,1-.789.049q-1.209-.368-2.407-.7a93.721,93.721,0,0,0-23.914-3.483c-.629-.008-1-.4-.82-.9a29.17,29.17,0,0,0,1.824-11.21c-.011-.525.463-.785,1.062-.6a93.7,93.7,0,0,0,24.094,4.117q1.1.045,2.228.068a1.235,1.235,0,0,1,.414.073.616.616,0,0,1,.405.825A29.155,29.155,0,0,0,2462.083,1351.509Z" transform="translate(-2433.834 -1335.155)" fill="#e7b178"/><path d="M2476.355,1353.9v.007c0,.361-.268.735-.442.395-.955-1.868-.272-9.176,1.923-12,.208-.269.367-.213.385.114a.694.694,0,0,1-.043.276A29.169,29.169,0,0,0,2476.355,1353.9Z" transform="translate(-2448.106 -1337.543)" fill="#be8e5c"/></g></g><path d="M4.68,0H29.034a4.68,4.68,0,0,1,4.68,4.68v0a3.37,3.37,0,0,1-3.37,3.37H3.08A3.08,3.08,0,0,1,0,4.97V4.68A4.68,4.68,0,0,1,4.68,0Z" transform="translate(68.36 48.777) rotate(180)" fill="#48261a"/><path d="M2393.952,1366.4h19.806l-3.906-28.845h-20.274v24.471A4.374,4.374,0,0,0,2393.952,1366.4Z" transform="translate(-2381.172 -1307.985)" fill="#4b1e0e"/><path d="M2410.844,1358.77l2.915,14.9h-19.806a4.374,4.374,0,0,1-4.375-4.375V1358.77Z" transform="translate(-2381.172 -1315.254)" fill="#b56635"/><rect width="4.438" height="12.946" transform="translate(71.026 71.359) rotate(180)" fill="#4b2117"/><rect width="4.438" height="12.946" transform="translate(53.085 71.359) rotate(180)" fill="#4b2117"/><circle cx="6.974" cy="6.974" r="6.974" transform="matrix(0.772, -0.635, 0.635, 0.772, 64.953, 35.586)" fill="#945029"/><circle cx="6.974" cy="6.974" r="6.974" transform="translate(18.413 37.398) rotate(-49.977)" fill="#945029"/><circle cx="6.974" cy="6.974" r="6.974" transform="matrix(0.973, -0.233, 0.233, 0.973, 0, 31.384)" fill="#4b1e0e"/><path d="M2426.639,1348.875v9.745a1.527,1.527,0,0,0,1.527,1.527h29.694a1.364,1.364,0,0,0,1.364-1.363v-9.909h7.125v16.908a4.494,4.494,0,0,1-4.494,4.495h-37.846a4.5,4.5,0,0,1-4.495-4.495v-16.908Z" transform="translate(-2391.428 -1311.864)" fill="#945029"/><rect width="1.801" height="12.946" transform="translate(66.588 71.359) rotate(180)" fill="#c27447"/><rect width="1.801" height="12.946" transform="translate(48.608 71.359) rotate(180)" fill="#c27447"/><rect width="4.438" height="12.946" transform="translate(38.581 71.359) rotate(180)" fill="#4b2117"/><rect width="4.438" height="12.946" transform="translate(20.64 71.359) rotate(180)" fill="#4b2117"/><rect width="1.801" height="12.946" transform="translate(34.144 71.359) rotate(180)" fill="#c27447"/><rect width="1.801" height="12.946" transform="translate(16.202 71.359) rotate(180)" fill="#c27447"/></g><g transform="translate(2061.031 1173.426)"><path d="M2392.679,1333.266c0,14.743-4.009,26.693-8.95,26.693s-8.953-11.949-8.953-26.693,4-26.695,8.953-26.695S2392.679,1318.522,2392.679,1333.266Z" transform="translate(-2360.263 -1306.571)" fill="#474645"/><path d="M2353.086,1306.571c-4.946,0-8.958,11.951-8.958,26.695s4.012,26.693,8.958,26.693h14.508c-4.948,0-8.953-11.949-8.953-26.693s4-26.695,8.953-26.695Z" transform="translate(-2344.128 -1306.571)" fill="#1a1311"/><path d="M2394.443,1344.293c0,9.264-2.282,16.772-5.1,16.772s-5.1-7.508-5.1-16.772,2.284-16.776,5.1-16.776S2394.443,1335.029,2394.443,1344.293Z" transform="translate(-2365.246 -1317.598)" fill="#ebebeb"/><path d="M2394.556,1348.022c0,7.411-1.825,13.418-4.082,13.418s-4.081-6.007-4.081-13.418,1.826-13.422,4.081-13.422S2394.556,1340.612,2394.556,1348.022Z" transform="translate(-2366.379 -1321.328)" fill="none" stroke="#1a1311" stroke-miterlimit="10" stroke-width="2"/><path d="M2394.865,1358.116c0,2.4-.593,4.34-1.321,4.34s-1.321-1.942-1.321-4.34.592-4.342,1.321-4.342S2394.865,1355.718,2394.865,1358.116Z" transform="translate(-2369.448 -1331.422)" fill="none" stroke="#1a1311" stroke-miterlimit="10" stroke-width="1.3"/></g><g transform="translate(1963.935 1059.135)"><path d="M2139.46,1137.42c.533-12.139,3.469-43.391,4.633-49.516,2.365-12.44,10.711-22.688,20.142-22.688H2224.1c18.4,0,34.836,20.066,38.159,23.7s24.314,38.618,27.329,54.431c1.251,6.569.232,60.259.232,60.259l-16.28,10.584c-1.328-3.954-.178-15.378-2.733-27.009-1.753-8-5.05-14.562-9.154-14.562-12.259,0-15.161,26.038-15.431,42.089H2187.95a110.558,110.558,0,0,0,.6-23.5c-.893-9.7-3.915-18.594-10.475-18.594-10.606,0-14.266,21.6-15.85,34.552a17.537,17.537,0,0,1-1.76,5.143l-19.639-4.436-1.631-3.522S2138.807,1152.323,2139.46,1137.42Zm106.1-8.787c1.1.174,32.958,3.27,33.747,3.27,2.215,0,3.833-1.735,1.411-6.679-1.165-2.378-3.34-7.535-6.343-13.161-4.2-7.861-9.339-16.354-9.677-16.929a8.065,8.065,0,0,0-6.542-3.977h-16.987c-2.055,0-2.667,1.977-2.17,4.772,1.081,6.071,2.667,23.355,3.266,28.558C2242.525,1126.724,2243.593,1128.322,2245.561,1128.633Zm-92.7-33.331c-.1,8.119.608,21.378.964,35.217.066,2.6,1.538,4.772,4.388,4.772,1.042,0,74.574-.11,75.708-.11s2.54-1.367,2.491-3.677c-.181-8.432-2.35-29.978-2.842-36.691-.138-1.872-1.229-3.571-2.519-3.571-1.474,0-73.169-.086-74.267-.086A4.5,4.5,0,0,0,2152.857,1095.3Z" transform="translate(-2139.083 -1065.216)" fill="#c5c6c6"/></g><g transform="translate(2063.69 1085.077)" opacity="0.2"><path d="M2356.465,1157.474c1.1.174,32.958,3.27,33.747,3.27,2.215,0,3.833-1.735,1.412-6.679-1.164-2.379-3.34-7.535-6.343-13.161-4.2-7.861-9.339-16.354-9.677-16.929a8.065,8.065,0,0,0-6.541-3.977h-16.987c-2.055,0-2.667,1.976-2.17,4.772,1.081,6.071,2.667,23.355,3.266,28.558C2353.429,1155.565,2354.5,1157.163,2356.465,1157.474Z" transform="translate(-2349.742 -1119.999)" fill="#fff"/></g><g transform="translate(2063.69 1085.077)"><path d="M2356.465,1157.474c1.1.174,32.958,3.27,33.747,3.27,2.215,0,3.833-1.735,1.412-6.679-1.164-2.379-3.34-7.535-6.343-13.161-4.2-7.861-9.339-16.354-9.677-16.929a8.065,8.065,0,0,0-6.541-3.977h-16.987c-2.055,0-2.667,1.976-2.17,4.772,1.081,6.071,2.667,23.355,3.266,28.558C2353.429,1155.565,2354.5,1157.163,2356.465,1157.474Z" transform="translate(-2349.742 -1119.999)" fill="none" stroke="#1a1311" stroke-miterlimit="10" stroke-width="3"/></g><path d="M2248.869,1123.656c-.138-1.872-1.228-3.571-2.519-3.571-1.474,0-73.168-.086-74.267-.086a4.5,4.5,0,0,0-3.923,4.144c-.1,8.119.609,21.378.964,35.218.067,2.6,1.538,4.772,4.388,4.772,1.042,0,74.574-.11,75.708-.11s2.54-1.367,2.49-3.677C2251.531,1151.914,2249.361,1130.369,2248.869,1123.656Zm-76.256,35.616c-.133-5.194-.313-10.22-.488-15.082-.289-8.051-.539-15-.475-20,0-.289.449-.59.69-.7l34.309.04a5.866,5.866,0,0,1,.4,1.81c.1,1.366,2.5,32.16,2.585,33.487a3.732,3.732,0,0,1-.256,1.765l-35.865.053C2173.189,1160.644,2172.648,1160.644,2172.613,1159.272Zm75.608,1.263-34.082.05a4.141,4.141,0,0,1-.53-1.758c-.119-1.328-2.5-32.121-2.611-33.487a5.441,5.441,0,0,1,.115-1.8l34.221.039a1.9,1.9,0,0,1,.054.338c.15,2.047.453,5.447.805,9.383.8,9.01,1.905,21.35,2.028,27.126Z" transform="translate(-190.45 -34.922)" fill="#1a1311"/><path d="M2248.869,1123.656c-.138-1.872-1.228-3.571-2.519-3.571-1.474,0-73.168-.086-74.267-.086a4.5,4.5,0,0,0-3.923,4.144c-.1,8.119.609,21.378.964,35.218.067,2.6,1.538,4.772,4.388,4.772,1.042,0,74.574-.11,75.708-.11s2.54-1.367,2.49-3.677C2251.531,1151.914,2249.361,1130.369,2248.869,1123.656Z" transform="translate(-190.45 -34.922)" fill="#1a1311" opacity="0.7"/><path d="M2375.966,1093.162h-.212S2375.832,1093.16,2375.966,1093.162Z" transform="translate(-299.746 -20.793)" fill="#e2372e"/><path d="M2442.663,1301.257s-.892-8.083-4.465-8.119v0h-9.781v31.674H2421.1s-.385,10.244,1.547,10.244h12.926a5.23,5.23,0,0,0,2.039-.3C2442.906,1331.521,2442.663,1301.257,2442.663,1301.257Z" transform="translate(-323.604 -126.071)" fill="#302d2c"/><path d="M2298.56,1383.073h-58.522l1.087-2.159h58.317Z" transform="translate(-228.296 -172.284)" fill="#8e8e8f"/><path d="M2364.368,1218.4c.029.722.483,1.3,1.015,1.3l4.489,0c.535,0,.939-.583.912-1.3l-.145-3.642c-.028-.719-.478-1.3-1.013-1.3l-4.49,0c-.53,0-.94.585-.912,1.3Z" transform="translate(-293.676 -84.121)"/><g transform="translate(1963.935 1059.135)"><g clip-path="url(#a)"><g transform="translate(-0.055 21.887)"><path d="M2438.418,1230.2h11.1v10.113h-12.966v-6.738S2436.8,1230.2,2438.418,1230.2Z" transform="translate(-2295.636 -1173.963)" fill="#e85400"/><rect width="12.966" height="19.619" transform="translate(140.919 66.367)" fill="#d4d5d5"/><g transform="translate(0 48.858)"><path d="M2144.823,1217.988l-.136,6.738h-5.1c.122-3.492.3-6.472.533-8.654.049-.462.1-.954.157-1.459h2.806C2144.652,1214.612,2144.823,1217.988,2144.823,1217.988Z" transform="translate(-2139.295 -1214.612)" fill="#e85400"/><path d="M2139.262,1236h5.094l-.536,26.425h-4.841C2138.936,1253.069,2138.992,1243.383,2139.262,1236Z" transform="translate(-2138.966 -1225.87)" fill="#dc000c"/></g><line x1="123.764" transform="translate(5.188 0.001)" fill="none" stroke="#5f5e5e" stroke-miterlimit="10" stroke-width="1.6"/><path d="M2343.789,1243.448c6.1-39.644,2.891-102.134-1.485-132.011" transform="translate(-2246.016 -1111.436)" fill="none" stroke="#5f5e5e" stroke-miterlimit="10" stroke-width="1.033"/></g></g></g><path d="M2000.724,1159.736a4.632,4.632,0,0,1-4.484,4.027s-27.352,1.342-53.809,1.342-52.3-1.342-52.3-1.342c-2.223,0-3.328-.3-2.73-4.027a132.7,132.7,0,0,1,11.607-36.042c1.269-2.669,3.1-4.027,5.323-4.027,0,0,26.2-.4,43.867-.4s53.051.4,53.051.4a3.525,3.525,0,0,1,3.571,4.027Z" transform="translate(-42.561 -34.537)" fill="#1a1311" opacity="0.7"/><path d="M2136.607,1343.722c-.069-1.651.228-3.325.887-3.325h7.28l.957,7.735,15.534,3.04s-.9,7.131-2.369,6.676c-4.656-1.446-19.046-4.5-20.242-5.019C2137.477,1352.324,2136.766,1347.409,2136.607,1343.722Z" transform="translate(-173.839 -150.954)" fill="#1a1a1a"/><path d="M6.8,0H8.937a6.8,6.8,0,0,1,6.8,6.8v3.661a6.8,6.8,0,0,1-6.8,6.8H6.8a6.8,6.8,0,0,1-6.8-6.8V6.8A6.8,6.8,0,0,1,6.8,0Z" transform="translate(2101.275 1110.791)"/><path d="M3.969,0H6.943a3.967,3.967,0,0,1,3.967,3.967v6.647a3.967,3.967,0,0,1-3.967,3.967H3.967A3.967,3.967,0,0,1,0,10.614V3.969A3.969,3.969,0,0,1,3.969,0Z" transform="translate(2103.153 1112.134)" fill="#fff"/><path d="M1973.817,1059.206H2076.33c0-2.957-11.845-5.354-14.8-5.354h-85.821S1974.29,1059.678,1973.817,1059.206Z" transform="translate(-88.141 -0.098)" fill="#a6a7a7"/><g transform="translate(1806.397 1053.666)"><path d="M1946.54,1078.861c-.276.592-2.458,1.072-4.875,1.073,0,0-29.732.366-58.491.375s-56.852-.339-56.852-.339c-2.417,0-3.618-.078-2.968-1.071,2.495-3.808,7.663-7.044,12.615-9.6a13,13,0,0,1,5.785-1.073s28.485-.115,47.685-.121,57.667.088,57.667.088c2.418,0,4.156.479,3.882,1.07Z" transform="translate(-1815.232 -1061.27)" fill="#1a1311" opacity="0.7"/><path d="M1818.527,1063.924c-4.138,2.514-7.968,4.862-9.686,8.623-2.74,5.993-2.435,15.842-2.435,15.842l137.718-.043s1.119-8.892,1.37-15.457c.1-2.736,2.816-10.14,3.6-11.264,2.784-4,13.085-7.874,22.783-7.958l-112.809.035a178.012,178.012,0,0,0-18.971,2.3C1833.469,1057.288,1823.388,1060.97,1818.527,1063.924Zm119.177,7.333c-.276.592-2.458,1.072-4.875,1.073,0,0-29.732.366-58.491.375s-56.852-.339-56.852-.339c-2.417,0-3.618-.079-2.968-1.071,2.495-3.808,7.663-7.044,12.615-9.6a13,13,0,0,1,5.785-1.073s28.485-.115,47.685-.121,57.667.088,57.667.088c2.418,0,4.156.479,3.882,1.07Z" transform="translate(-1806.397 -1053.666)" fill="#d4d5d5"/><g clip-path="url(#b)"><g transform="translate(-1.746 18.886)"><path d="M2081.357,1093.551l7.752,0v2.691l-10.953,0v-1.793S2078.578,1093.552,2081.357,1093.551Z" transform="translate(-1947.722 -1093.549)" fill="#e85400"/><rect width="10.953" height="7.032" transform="translate(130.435 2.697)" fill="#dc000c"/><path d="M1810.463,1093.637l-7.753,0v2.691l10.955,0v-1.793S1813.242,1093.637,1810.463,1093.637Z" transform="translate(-1802.71 -1093.595)" fill="#e85400"/><rect width="10.955" height="7.032" transform="translate(0.002 2.737)" fill="#dc000c"/></g></g><path d="M1950.129,1112.678c0,.592-1.959,1.073-4.378,1.073l-51.64.016c-2.417,0-4.377-.478-4.378-1.07v-3.5c0-.592,1.96-1.073,4.377-1.073l51.64-.016c2.418,0,4.378.478,4.378,1.07Z" transform="translate(-1850.27 -1082.33)" fill="#a6a7a7"/><path d="M1889.733,1109.2c0-.592,1.96-1.073,4.377-1.073l51.64-.016c2.418,0,4.378.478,4.378,1.07Z" transform="translate(-1850.27 -1082.33)" fill="#fff"/><path d="M1950.818,1114.842c0,.119-.393.214-.876.214l-46.329.015c-.484,0-.876-.1-.876-.214v-2.733c0-.118.392-.214.876-.215l46.329-.014c.483,0,.876.1.876.214Z" transform="translate(-1857.117 -1084.322)" fill="#d9d9d9"/><path d="M1973.6,1064.807a3.236,3.236,0,0,1-1.768.35l-21.395-.006c-.822,0-1.363-.157-1.21-.35l.457-.572a3.24,3.24,0,0,1,1.768-.349l21.4.005c.821,0,1.365.157,1.21.351Z" transform="translate(-1881.577 -1059.043)" fill="#dc000c"/></g><path d="M1924.633,1351.39c-3.188-.036-3.164-1.15-3.162-1.027.045,3.67-.172-6.9-.172-6.9s-.585-3.062-3.012-3.062h-34.874c-4.433,0-5.536,8.124-5.536,8.124s-.341,9.323,7.395,9.323c.167,0,36.784-1.381,36.784-1.381Z" transform="translate(-37.63 -150.954)" fill="#1a1311"/><g transform="translate(1833.312 1189.443)"><path d="M2000.117,1350.71l-5.147-10.313h-36.391c-2.426,0-3.01,3.062-3.01,3.062a30.227,30.227,0,0,1-.185,6.648,1.063,1.063,0,0,1-.75.9h-48.707s-.746-.238-.746-.9c0-4.006-.186-6.647-.186-6.647s-.587-3.062-3.013-3.062h-34.874c-4.435,0-4.01,4.963-3.688,7.084a27.273,27.273,0,0,0,1.638,5.355h139.527Z" transform="translate(-1863.236 -1340.397)" fill="#333"/><path d="M1873.807,1371.673c.228,0,142.836-.124,143.331,0l-10.523-5.006H1867.087C1867.915,1369.107,1869.748,1371.673,1873.807,1371.673Z" transform="translate(-1865.263 -1354.227)"/></g><g transform="translate(1868.794 1099.048)"><rect width="17.989" height="16.689" transform="translate(0 0)" fill="#f6e6d7"/><rect width="4.014" height="16.689" transform="translate(13.975 0)" fill="#d2b9a6"/><path d="M1888.67,1263.81c-.01-2.123-2.055-3.841-4.575-3.841s-4.565,1.718-4.575,3.841Z" transform="translate(-1875.101 -1219.488)" fill="#3b1a11"/><rect width="2.85" height="3.873" transform="translate(7.569 29.867)" fill="#3b1a11"/><path d="M1885.574,1253.5h0a2.9,2.9,0,0,1-2.895-2.895v-3.338a2.9,2.9,0,0,1,2.895-2.9h0a2.9,2.9,0,0,1,2.895,2.9v3.338A2.9,2.9,0,0,1,1885.574,1253.5Z" transform="translate(-1876.58 -1212.186)" fill="#945029"/><rect width="1.668" height="3.823" transform="translate(8.16 16.689)" fill="#3b1a11"/><ellipse cx="2.259" cy="1.772" rx="2.259" ry="1.772" transform="translate(6.735 20.14)" fill="#945029"/><path d="M1888.453,1229.754q-.345,1.726-.69,3.452a2.375,2.375,0,0,1-.77,1.3,2.9,2.9,0,0,1-2.891,0,2.377,2.377,0,0,1-.77-1.3q-.346-1.727-.69-3.452a1.655,1.655,0,0,1,.737-1.529,4.356,4.356,0,0,1,4.337,0A1.653,1.653,0,0,1,1888.453,1229.754Z" transform="translate(-1876.554 -1204.359)" fill="#945029"/><path d="M1890.188,1239.343a2.67,2.67,0,0,0,1.1-2.152v-3.782a2.677,2.677,0,0,0-1.469-2.382v-2.32l.021-.01a2.377,2.377,0,0,0,.77-1.3q.345-1.726.69-3.452a1.652,1.652,0,0,0-.737-1.528,4.319,4.319,0,0,0-1.031-.427,1.745,1.745,0,0,0,1.122-1.529,1.836,1.836,0,0,0-1.425-1.645v-3.577h-.528v3.467a1.961,1.961,0,0,1,1.425,1.755,1.745,1.745,0,0,1-1.122,1.529,4.318,4.318,0,0,1,1.031.427,1.653,1.653,0,0,1,.738,1.528q-.346,1.726-.69,3.452a3.154,3.154,0,0,1-.791,1.541c-.006,0,.007-.237,0-.233v2.116a3,3,0,0,1,1.469,2.585v3.782a3.009,3.009,0,0,1-.941,2.382,3.487,3.487,0,0,1,2.623,3.3h.528A3.911,3.911,0,0,0,1890.188,1239.343Z" transform="translate(-1879.396 -1198.552)" fill="#945029" opacity="0.44" style="mix-blend-mode:multiply;isolation:isolate"/></g></g></g></svg>