<svg xmlns="http://www.w3.org/2000/svg" width="525" height="250" viewBox="0 0 525 250"><g transform="translate(-98 -2134)"><rect width="525" height="250" transform="translate(98 2134)" fill="#fff"/><g transform="translate(-1478.053 1034.743)"><rect width="370" height="208" transform="translate(1654.053 1120.257)" fill="#fff" opacity="0"/><path d="M1965.852,1477.478c0,.912-55.227,1.65-123.354,1.65s-123.351-.738-123.351-1.65,55.227-1.654,123.351-1.654S1965.852,1476.564,1965.852,1477.478Z" transform="translate(-6.727 -159.983)" fill="#8e8e8f"/><g transform="translate(1693.324 1138.005)"><path d="M1684.622,1271.158h.434V1141.768h-.434v-.27h-1.376V1272h1.376Z" transform="translate(-1683.246 -1141.498)" fill="#2b2726"/></g><path d="M2148.389,1277.185h-45.1v-49.1h36.6Z" transform="translate(-186.536 -44.022)" fill="#fff" opacity="0.4"/><g transform="translate(1942.09 1225.729)"><g transform="translate(21.52 2.68)"><path d="M2191.46,1311.94a4.366,4.366,0,0,0,3.187,3.662,5.3,5.3,0,0,0-3.272-4.145C2191.414,1311.676,2191.444,1311.844,2191.46,1311.94Z" transform="translate(-2191.375 -1311.457)"/></g><path d="M2152.813,1308.232c.285.768,2.325,3.976,3.673,6.1,1.045,1.645,1.644,2.59,1.785,2.889a5.263,5.263,0,0,0,2.257,2.2,71.854,71.854,0,0,0,7.485,1.313.518.518,0,0,0,.414-.085.891.891,0,0,0,.115-.612c-.023-.241-.445-2.84-1.829-11.062h-.087a9.427,9.427,0,0,0-5.581-2.554h-10.127A2.965,2.965,0,0,1,2152.813,1308.232Z" transform="translate(-2150.918 -1306.418)"/></g><g transform="translate(1923.527 1190.474)"><path d="M2117.075,1247.031a1.319,1.319,0,0,0,1.32-1.319v-4.252a1.32,1.32,0,0,0-1.32-1.321h-1.056c.026,2.039.075,4.381.137,6.892Z" transform="translate(-2116.019 -1240.139)"/></g><g transform="translate(1924.544 1218.045)"><path d="M2140.119,1303.611c1.051-6.419-4.108-11.64-11.5-11.64a16.764,16.764,0,0,0-10.687,3.938c.026.576.052,1.137.078,1.668a1.851,1.851,0,0,0,.268.878,13.709,13.709,0,0,1,10-4.418c5.594,0,9.624,3.64,9.557,8.335.444.783,1.131,1.9,1.834,3.019A11.1,11.1,0,0,0,2140.119,1303.611Z" transform="translate(-2117.931 -1291.971)"/></g><g transform="translate(1837.731 1303.335)"><g transform="translate(0 0)"><path d="M1969.2,1453.724v-1.411h-3.4c-.018.142-.031.291-.049.431,1.044,8.091,3.674,13.834,6.758,13.834,2.954,0,5.494-5.284,6.619-12.854Z" transform="translate(-1959.889 -1452.313)" fill="#1a1311"/><g transform="translate(0 0.431)"><path d="M1960.593,1453.124c-.943,7.3-3.176,12.681-5.866,13.666a2.586,2.586,0,0,0,.89.168h11.735C1964.267,1466.958,1961.638,1461.214,1960.593,1453.124Z" transform="translate(-1954.727 -1453.124)" fill="#302d2c"/></g></g></g><path d="M2104.257,1302.918s.315-24.237,0-38.086-1.035-44.354-1.073-47.125,2.832-7.447,10.748-7.447h4.06l.274-.122h-18.075v92.787h5.62v-.008Z" transform="translate(-185.084 -35.623)" fill="#d4d5d5"/><path d="M2001.026,1408.229h-.012L1997,1389.068v0H1971.43c-1.973,0-2.468-4.451-2.469-4.463h-4.825v.347h.435v4.29H1809.707l-.186,21.439h2.828v11.352h39.731v-1.411h43.99v1.411h53.216v-1.411h32.019l21.113-9.038A14.833,14.833,0,0,1,2001.026,1408.229Z" transform="translate(-49.028 -117.284)" fill="#1a1311"/><path d="M1950.941,1393.092c-2.85,0-2.3.1-.38.1-2.083,0-4.1,2.394-5.306,5.415h-.039a42.948,42.948,0,0,0-2.6,11.7,1.466,1.466,0,0,1-1.543,1.477h16.257s.973.031.973-1.477C1958.3,1407.695,1955.648,1393.092,1950.941,1393.092Z" transform="translate(-110.604 -121.258)" fill="#302d2c"/><g transform="translate(1802.302 1307.795)"><path d="M1915.185,1460.7h-5c1.292,5.9,3.525,9.806,6.067,9.806a3.46,3.46,0,0,0,2.5-1.336C1917.279,1467.548,1916.03,1464.554,1915.185,1460.7Z" transform="translate(-1898.448 -1460.697)" fill="#302d2c"/><path d="M1899.856,1460.7h-11.735c1.293,5.9,3.527,9.806,6.068,9.806h11.734C1903.381,1470.5,1901.148,1466.6,1899.856,1460.7Z" transform="translate(-1888.121 -1460.697)" fill="#1a1311"/></g><g transform="translate(1819.04 1274.421)"><path d="M1947.023,1397.955a2.547,2.547,0,0,0-.675.1,13.88,13.88,0,0,0-1.515,2.833h-.039a42.966,42.966,0,0,0-2.6,11.7,1.4,1.4,0,0,1-.365,1.018l-1.658,12.9c.971,8.508,3.67,14.63,6.855,14.63,4,0,7.239-9.665,7.239-21.589S1951.019,1397.955,1947.023,1397.955Z" transform="translate(-1929.22 -1397.955)" fill="#474645"/><g transform="translate(0 28.549)"><path d="M1930.534,1451.627l-.62,4.825h-10.327c1.293,5.9,3.528,9.806,6.068,9.806h11.734C1934.205,1466.257,1931.505,1460.135,1930.534,1451.627Z" transform="translate(-1919.587 -1451.627)" fill="#1a1311"/></g><path d="M1954.508,1426.605c0,7.492-1.845,13.565-4.124,13.565s-4.127-6.074-4.127-13.565,1.848-13.568,4.127-13.568S1954.508,1419.113,1954.508,1426.605Z" transform="translate(-1932.07 -1405.014)" fill="#ebebeb"/><path d="M1950.772,1439.891c-2.394,0-3.685-5.788-3.685-11.235s1.291-11.238,3.685-11.238,3.683,5.789,3.683,11.238S1953.165,1439.891,1950.772,1439.891Zm0-21.707c-1.381,0-2.919,4.3-2.919,10.472s1.539,10.469,2.919,10.469,2.918-4.3,2.918-10.469S1952.152,1418.184,1950.772,1418.184Z" transform="translate(-1932.46 -1407.065)" fill="#1a1311"/><path d="M1954.139,1435.455c0,1.94-.478,3.511-1.066,3.511s-1.071-1.571-1.071-3.511.479-3.511,1.071-3.511S1954.139,1433.516,1954.139,1435.455Z" transform="translate(-1934.76 -1413.864)" fill="#1a1311"/></g><g transform="translate(1727.769 1307.795)"><path d="M1775.182,1460.7h-5.115c1.292,5.9,3.525,9.806,6.067,9.806a3.508,3.508,0,0,0,2.559-1.4C1777.245,1467.476,1776.016,1464.508,1775.182,1460.7Z" transform="translate(-1758.33 -1460.697)" fill="#1a1311"/><path d="M1759.739,1460.7H1748c1.294,5.9,3.529,9.806,6.07,9.806h11.734C1763.263,1470.5,1761.031,1466.6,1759.739,1460.7Z" transform="translate(-1748.002 -1460.697)" fill="#302d2c"/></g><g transform="translate(1744.621 1295.167)"><path d="M1807.677,1446.536v-9.578h-8.13c0,.281-.007.562-.007.844,0,11.923,3.239,21.589,7.241,21.589,2.955,0,5.5-5.284,6.62-12.855Z" transform="translate(-1788.977 -1436.957)" fill="#1a1311"/><path d="M1790.245,1437.8c0-.283,0-.563.008-.844h-2.992l-1.624,12.628h-5.953c1.293,5.9,3.527,9.806,6.069,9.806h11.733C1793.484,1459.391,1790.245,1449.725,1790.245,1437.8Z" transform="translate(-1779.683 -1436.957)" fill="#302d2c"/></g><g transform="translate(1808.386 1271.935)"><path d="M1899.558,1403.272v12.242h9.479v1.039h12.6a1.466,1.466,0,0,0,1.543-1.477,42.894,42.894,0,0,1,2.642-11.8Z" transform="translate(-1899.558 -1397.959)" fill="#302d2c"/><path d="M1899.558,1393.3v5.4h26.267c1.208-3.021,3.223-5.415,5.305-5.415C1928.2,1393.283,1899.558,1393.3,1899.558,1393.3Z" transform="translate(-1899.558 -1393.283)" fill="#1a1311"/></g><path d="M1809.18,1411.287v-.431H1799.7v-7.1h.335a2.549,2.549,0,0,0,2.545-2.461v-4.056a2.546,2.546,0,0,0-2.545-2.444h-.335v-1.476h-87.694v1.476h-23.24a2.548,2.548,0,0,0-2.544,2.461v4.055a2.545,2.545,0,0,0,2.544,2.445h23.24v7.1h-11.422a.65.65,0,0,0-.714.557v4.6c0,.447,1.032.521.649.521h12.309l-1.624,12.628h30.684l1.624-12.628h48.108L1790,1429.159h30.685l2.3-17.872Z" transform="translate(8.684 -121.364)"/><g transform="translate(1922.647 1274.421)"><path d="M2150.91,1419.546c0,11.923-3.24,21.589-7.237,21.589s-7.242-9.665-7.242-21.589,3.239-21.591,7.242-21.591S2150.91,1407.622,2150.91,1419.546Z" transform="translate(-2124.694 -1397.955)" fill="#474645"/><path d="M2121.609,1397.955c-4,0-7.245,9.667-7.245,21.591s3.246,21.589,7.245,21.589h11.735c-4,0-7.242-9.665-7.242-21.589s3.239-21.591,7.242-21.591Z" transform="translate(-2114.364 -1397.955)" fill="#1a1311"/><path d="M2151.5,1426.605c0,7.492-1.845,13.565-4.125,13.565s-4.127-6.074-4.127-13.565,1.848-13.568,4.127-13.568S2151.5,1419.113,2151.5,1426.605Z" transform="translate(-2127.883 -1405.014)" fill="#ebebeb"/><path d="M2147.761,1439.891c-2.394,0-3.685-5.788-3.685-11.235s1.292-11.238,3.685-11.238,3.684,5.789,3.684,11.238S2150.153,1439.891,2147.761,1439.891Zm0-21.707c-1.381,0-2.918,4.3-2.918,10.472s1.538,10.469,2.918,10.469,2.917-4.3,2.917-10.469S2149.141,1418.184,2147.761,1418.184Z" transform="translate(-2128.271 -1407.065)" fill="#1a1311"/><path d="M2151.13,1435.455c0,1.94-.479,3.511-1.068,3.511s-1.07-1.571-1.07-3.511.479-3.511,1.07-3.511S2151.13,1433.516,2151.13,1435.455Z" transform="translate(-2130.572 -1413.864)" fill="#1a1311"/></g><path d="M2210.032,1277.851h-7.312a3.306,3.306,0,0,0-3.306,3.306v14.563a3.285,3.285,0,0,0,.471,1.7h-8.769a.651.651,0,0,0,0,1.3h10.216a3.294,3.294,0,0,0,1.388.308h7.312a3.305,3.305,0,0,0,3.305-3.305v-14.563A3.306,3.306,0,0,0,2210.032,1277.851Z" transform="translate(-227.339 -67.317)"/><path d="M4.175,0h1.4A4.173,4.173,0,0,1,9.751,4.173V14.832A4.172,4.172,0,0,1,5.579,19h-1.4A4.176,4.176,0,0,1,0,14.828V4.175A4.175,4.175,0,0,1,4.175,0Z" transform="translate(1973.601 1211.621)" fill="#fff"/><rect width="115.785" height="141.609" transform="translate(1695.134 1130.345)" fill="#d4d5d5"/><rect width="112.215" height="129.391" transform="translate(1698.704 1138.274)" fill="#5f5e5e"/><rect width="3.57" height="129.391" transform="translate(1695.134 1138.274)" fill="#d4d5d5"/><rect width="1.785" height="130.503" transform="translate(1691.538 1138.005)" fill="#d4d5d5"/><rect width="116.219" height="4.29" transform="translate(1694.7 1267.665)" fill="#bdbebf"/><rect width="116.219" height="7.929" transform="translate(1694.7 1130.345)" fill="#bdbebf"/><rect width="6.563" height="3.282" transform="translate(1698.168 1133.849)" fill="#f38200"/><rect width="0.986" height="3.282" transform="translate(1704.731 1133.849)" fill="#e85400"/><rect width="6.563" height="3.282" transform="translate(1798.923 1133.849)" fill="#f38200"/><rect width="0.985" height="3.282" transform="translate(1805.486 1133.849)" fill="#e85400"/><path d="M2133.6,1384.6h-24.336s.494,4.464,2.469,4.464H2137.3C2137.293,1389.03,2135.952,1384.818,2133.6,1384.6Z" transform="translate(-189.329 -117.283)" fill="#302d2c"/><rect width="104.603" height="4.29" transform="translate(1810.939 1267.665)" fill="#767676"/><path d="M1907.628,1135.027h-3.269V1127.1h104.6v7.929H1907.628Z" transform="translate(-93.419 3.247)" fill="#6c6c6c"/><path d="M2183.165,1428.873h-13.66s1.5,5.937,4.744,5.937h9.942v-.57A22.834,22.834,0,0,1,2183.165,1428.873Z" transform="translate(-217.528 -138.007)" fill="#302d2c"/><path d="M2152.962,1320.887a62.834,62.834,0,0,1,1.046-6.946h3.358l-.664-42.711-.392-1.771a.554.554,0,0,1-.135.027h-1.07c-2.265,0-4.386-2.052-4.827-4.671-.214-1.27-2.5-13.767-4.51-24.792-1.656-9.069-3.222-17.635-3.346-18.375a3.15,3.15,0,0,1,.726-2.557,3.737,3.737,0,0,1,2.874-1.288l.086,0c-2.974-5.386-10.683-7.431-13.151-7.431h-16.39c-7.917,0-10.784,4.675-10.748,7.447s.757,33.276,1.073,47.124,0,38.086,0,38.086H2131.8c2.482,0,3.893,4.488,3.893,4.488l4.011,19.161h13.66C2153.16,1324.823,2153.02,1322.77,2152.962,1320.887Zm-4.808-44.411a1.517,1.517,0,0,1-1.151.451c-.061,0-.125,0-.19-.008a70.679,70.679,0,0,1-7.791-1.38,6.376,6.376,0,0,1-2.9-2.787c-.116-.247-.929-1.526-1.715-2.763a64.9,64.9,0,0,1-3.78-6.314,2.013,2.013,0,0,0-1.947-1.257h-14.439a3.216,3.216,0,0,1-3.051-2.981c-.494-10.307-1.175-29.538-1.114-37.35.025-3.042,1.417-3.654,3.656-3.654h21.445a4.892,4.892,0,0,1,4.5,3.746l.461,2.714c5.65,33.2,8.413,49.6,8.444,50.114A1.9,1.9,0,0,1,2148.154,1276.476Z" transform="translate(-187.717 -35.73)" fill="#a6a7a7"/><path d="M2117.093,1267.488a2.053,2.053,0,0,0,1.9,1.888h14.439a3.13,3.13,0,0,1,3.022,2c.286.768,2.325,3.976,3.674,6.1,1.045,1.646,1.644,2.59,1.784,2.89a5.273,5.273,0,0,0,2.257,2.2,72.1,72.1,0,0,0,7.486,1.313.517.517,0,0,0,.414-.085.9.9,0,0,0,.115-.613c-.044-.461-1.542-9.515-8.43-49.991l-.462-2.715a3.705,3.705,0,0,0-3.363-2.788h-21.444c-1.768,0-2.49.227-2.508,2.514C2115.92,1237.993,2116.6,1257.194,2117.093,1267.488Z" transform="translate(-192.473 -43.837)" fill="#fff" opacity="0.2"/><path d="M2150.748,1284.022h0c-.06,0-.124,0-.19-.008a70.605,70.605,0,0,1-7.791-1.38,6.382,6.382,0,0,1-2.9-2.787c-.116-.248-.929-1.526-1.714-2.763a64.993,64.993,0,0,1-3.781-6.314,2.011,2.011,0,0,0-1.946-1.257h-14.439a3.215,3.215,0,0,1-3.051-2.981c-.494-10.307-1.174-29.539-1.114-37.351.024-3.042,1.417-3.653,3.656-3.653h21.445a4.892,4.892,0,0,1,4.5,3.746l.461,2.714c5.65,33.2,8.412,49.6,8.444,50.114a1.9,1.9,0,0,1-.424,1.47A1.517,1.517,0,0,1,2150.748,1284.022Zm-33.271-57.346c-1.768,0-2.489.227-2.507,2.514-.061,7.791.619,26.992,1.113,37.286a2.051,2.051,0,0,0,1.9,1.887h14.439a3.131,3.131,0,0,1,3.022,2c.286.768,2.325,3.976,3.673,6.1,1.046,1.645,1.644,2.59,1.785,2.89a5.26,5.26,0,0,0,2.257,2.2,71.84,71.84,0,0,0,7.485,1.313.52.52,0,0,0,.415-.085.891.891,0,0,0,.114-.613c-.043-.461-1.542-9.515-8.429-49.991l-.462-2.715a3.706,3.706,0,0,0-3.363-2.788Z" transform="translate(-191.462 -42.826)" fill="#1a1311"/><path d="M2179.6,1226.341s-.35.01-.393.01a2.593,2.593,0,0,0-2,.881,1.977,1.977,0,0,0-.469,1.624c.123.732,1.687,9.294,3.343,18.359,2.015,11.029,4.3,23.53,4.514,24.807.35,2.082,1.974,3.713,3.694,3.713h.939l-1.043-4.6s-7.523-40.7-8.411-44.132c-.076-.291-.128-.561-.182-.823Z" transform="translate(-220.901 -43.129)" fill="#fff" opacity="0.4"/><g transform="translate(1954.663 1182.063)"><path d="M2188.349,1276.019h-1.069c-2.266,0-4.385-2.052-4.828-4.671-.213-1.27-2.5-13.767-4.509-24.793-1.657-9.069-3.222-17.635-3.346-18.375a3.15,3.15,0,0,1,.725-2.557,3.737,3.737,0,0,1,2.873-1.288l.254-.006h.031l.083,0,.026,1.149s-.351.01-.393.01a2.593,2.593,0,0,0-2,.881,1.978,1.978,0,0,0-.469,1.624c.124.732,1.687,9.294,3.343,18.359,2.015,11.03,4.3,23.53,4.514,24.808.35,2.082,1.973,3.713,3.694,3.713h1.069a.575.575,0,1,1,0,1.149Z" transform="translate(-2174.554 -1224.326)"/></g><path d="M2198.961,1405.08h-3.469a62.607,62.607,0,0,0-1.046,6.946c.159,5.181.941,11.654,1.921,11.654h.61c2.357,0,5.567-5.653,5.567-11.654C2202.544,1410.584,2198.961,1405.08,2198.961,1405.08Z" transform="translate(-229.202 -126.87)" fill="#333"/><path d="M2126.958,1335.479a1.045,1.045,0,0,1-1.028,1.062h-4.8a1.045,1.045,0,0,1-1.028-1.062V1332.3a1.044,1.044,0,0,1,1.028-1.06h4.8a1.044,1.044,0,0,1,1.028,1.06Z" transform="translate(-194.403 -92.306)"/><path d="M2193.769,1336.154h3.859l.16,9.9h-4.856v-7.167S2193,1336.154,2193.769,1336.154Z" transform="translate(-228.493 -94.607)" fill="#e85400"/><path d="M2197.788,1354.78l.367,22.585h-5.223V1354.78Z" transform="translate(-228.493 -103.325)" fill="#d4d5d5"/><rect width="36.703" height="13.787" transform="translate(1865.781 1288.806)" fill="#bdbebf"/><path d="M1.225,0H34.55a1.223,1.223,0,0,1,1.223,1.223V8.384a1.225,1.225,0,0,1-1.225,1.225H1.226A1.226,1.226,0,0,1,0,8.383V1.225A1.225,1.225,0,0,1,1.225,0Z" transform="translate(1735.109 1275.271)" fill="#d9d9d9"/><g transform="translate(1695.281 1274.195)"><path d="M1686.926,1400.813v3.852c0,.032.007.063.01.094v-4.04C1686.933,1400.751,1686.926,1400.78,1686.926,1400.813Z" transform="translate(-1686.926 -1399.024)" fill="#e33c0b" stroke="#000" stroke-miterlimit="10" stroke-width="1.44"/><rect width="14.142" height="7.429" transform="translate(7.422 0)" fill="#e12f15"/><path d="M1687.664,1403.267a1.778,1.778,0,0,0,1.779,1.695h4.484v-7.43h-4.484a1.781,1.781,0,0,0-1.779,1.711Z" transform="translate(-1687.271 -1397.532)" fill="#f38200"/><path d="M1735.3,1399.321a1.79,1.79,0,0,0-1.787-1.789h-4.606v7.43h4.606a1.79,1.79,0,0,0,1.787-1.789Z" transform="translate(-1706.575 -1397.532)" fill="#f6f6f6"/></g><g transform="translate(1782.168 1274.195)"><rect width="14.143" height="7.429" transform="translate(7.16 0)" fill="#e12f15"/><path d="M1898.02,1399.227a1.778,1.778,0,0,0-1.779-1.7h-4.484v7.43h4.484a1.78,1.78,0,0,0,1.779-1.712Z" transform="translate(-1869.688 -1397.532)" fill="#f38200"/><g transform="translate(0 0)"><path d="M1850.269,1403.172a1.791,1.791,0,0,0,1.788,1.789h4.606v-7.43h-4.606a1.791,1.791,0,0,0-1.788,1.789Z" transform="translate(-1850.269 -1397.532)" fill="#f6f6f6"/></g></g><g transform="translate(1692.516 1150.937)"><rect width="4.012" height="10.88" transform="translate(0 0.39)" fill="#ebebeb"/><path d="M1685.758,1166.545h-.018v10.879h-1.134v0c0-.212-.329-.383-.734-.383s-.734.171-.734.383v0h-1.411v.019l.593.611h4.088v-11.1Z" transform="translate(-1681.728 -1166.155)" fill="#8e8e8f"/><path d="M1684.379,1166.195c0-.212.328-.384.734-.384s.734.172.734.384v10.883c0-.212-.329-.383-.734-.383s-.734.171-.734.383Z" transform="translate(-1682.969 -1165.811)" fill="#fff"/></g><rect width="104.7" height="129.391" transform="translate(1810.939 1138.274)" fill="#535453"/><g transform="translate(1815.43 1196.695)"><rect width="45.49" height="3.02" transform="translate(0)" fill="#b56635"/><rect width="10.463" height="3.02" transform="translate(45.49)" fill="#3b1a11"/><g transform="translate(12.625 3.707)"><rect width="2.055" height="15.822" transform="translate(1.835)" fill="#3b1a11"/><rect width="2.055" height="15.822" fill="#5e2e1d"/></g><g transform="translate(48.854 3.707)"><rect width="2.055" height="15.822" transform="translate(1.835)" fill="#3b1a11"/><rect width="2.055" height="15.822" fill="#5e2e1d"/></g><g transform="translate(39.965 3.707)"><rect width="2.055" height="15.822" transform="translate(1.835)" fill="#3b1a11"/><rect width="2.055" height="15.822" fill="#5e2e1d"/></g><rect width="5.932" height="1.013" transform="translate(43.855 16.675)" fill="#24100d"/><g transform="translate(3.736 3.707)"><rect width="2.055" height="15.822" transform="translate(1.835)" fill="#3b1a11"/><rect width="2.055" height="15.822" fill="#5e2e1d"/></g><rect width="33.286" height="1.013" transform="translate(6.679 16.675)" fill="#24100d"/><rect width="5.932" height="1.013" transform="translate(43.855 7.814)" fill="#24100d"/><rect width="33.286" height="1.013" transform="translate(6.679 7.814)" fill="#24100d"/><rect width="11.25" height="0.87" transform="translate(42.648 3.02)" fill="#3b1a11"/><rect width="40.152" height="0.87" transform="translate(2.802 3.02)" fill="#5e2e1d"/></g><g transform="translate(1800.957 1216.021)"><rect width="58.208" height="39.858" transform="translate(2.682 2.267)" fill="#868687"/><g transform="translate(3.195 2.793)"><rect width="57.181" height="19.172" fill="#f5f5f5"/><rect width="16.482" height="54.141" transform="translate(55.661 1.345) rotate(90)" fill="#e9e8e8"/><g transform="translate(25.783 6.778)"><circle cx="2.808" cy="2.808" r="2.808" fill="#bebebd"/><path d="M1941.037,1309.924a.139.139,0,0,1-.135-.111,2.445,2.445,0,0,1-.048-.482,2.39,2.39,0,0,1,3.556-2.088.139.139,0,1,1-.135.242,2.115,2.115,0,0,0-3.1,2.272.138.138,0,0,1-.108.163Z" transform="translate(-1940.437 -1306.525)" fill="#f5f5f5"/><path d="M1945.388,1308.564a2.805,2.805,0,0,1-4.984,2.5,2.806,2.806,0,1,0,4.984-2.5Z" transform="translate(-1940.227 -1307.284)" fill="#868687"/></g><g transform="translate(0 19.633)"><rect width="57.181" height="19.172" fill="#f5f5f5"/><rect width="16.482" height="54.141" transform="translate(55.661 1.345) rotate(90)" fill="#e9e8e8"/><g transform="translate(25.783 6.778)"><circle cx="2.808" cy="2.808" r="2.808" fill="#bebebd"/><path d="M1941.037,1346.834a.139.139,0,0,1-.135-.11,2.447,2.447,0,0,1-.048-.482,2.39,2.39,0,0,1,3.556-2.088.139.139,0,1,1-.135.242,2.115,2.115,0,0,0-3.1,2.271.139.139,0,0,1-.108.164Z" transform="translate(-1940.437 -1343.435)" fill="#f5f5f5"/><path d="M1945.388,1345.474a2.805,2.805,0,0,1-4.984,2.5,2.806,2.806,0,1,0,4.984-2.5Z" transform="translate(-1940.227 -1344.195)" fill="#868687"/></g></g></g><rect width="63.572" height="2.266" transform="translate(0 0)" fill="#f5f5f5"/><rect width="63.572" height="2.266" transform="translate(0 42.125)" fill="#f5f5f5"/><rect width="1.939" height="39.858" transform="translate(0.743 2.267)" fill="#e9e8e8"/><rect width="1.939" height="39.858" transform="translate(60.89 2.267)" fill="#e9e8e8"/><g transform="translate(0.743 44.391)"><rect width="5.554" height="1.69" fill="#868687"/><path d="M1892.443,1374.8v3a2.05,2.05,0,0,1-2.05,2.049H1888.6V1374.8Z" transform="translate(-1887.743 -1373.106)" fill="#bebebd"/></g><g transform="translate(57.275 44.391)"><rect width="5.554" height="1.69" fill="#868687"/><path d="M1998.716,1374.8v5.045h-1.793a2.05,2.05,0,0,1-2.05-2.049v-3Z" transform="translate(-1994.019 -1373.106)" fill="#bebebd"/></g><rect width="11.353" height="2.266" transform="translate(74.924 2.266) rotate(180)" fill="#bebebd"/><rect width="11.353" height="2.266" transform="translate(74.924 44.391) rotate(180)" fill="#bebebd"/><rect width="10.576" height="39.858" transform="translate(73.405 42.125) rotate(180)" fill="#868687"/><g transform="translate(11.319 44.391)"><rect width="5.554" height="1.69" fill="#868687"/><path d="M1912.327,1374.8v3a2.05,2.05,0,0,1-2.05,2.049h-1.792V1374.8Z" transform="translate(-1907.627 -1373.106)" fill="#bebebd"/></g><g transform="translate(67.851 44.391)"><rect width="5.554" height="1.69" fill="#868687"/><path d="M2018.6,1374.8v5.045h-1.793a2.05,2.05,0,0,1-2.049-2.049v-3Z" transform="translate(-2013.903 -1373.106)" fill="#bebebd"/></g><rect width="72.662" height="0.526" transform="translate(0.743 2.267)" fill="#5b5b5a" opacity="0.48" style="mix-blend-mode:multiply;isolation:isolate"/><rect width="3.843" height="0.526" transform="translate(1.6 46.081)" fill="#5b5b5a" style="mix-blend-mode:multiply;isolation:isolate"/><rect width="3.843" height="0.526" transform="translate(12.176 46.081)" fill="#5b5b5a" style="mix-blend-mode:multiply;isolation:isolate"/><rect width="3.843" height="0.526" transform="translate(58.129 46.081)" fill="#5b5b5a" style="mix-blend-mode:multiply;isolation:isolate"/><rect width="3.843" height="0.526" transform="translate(68.705 46.081)" fill="#5b5b5a" style="mix-blend-mode:multiply;isolation:isolate"/></g><g transform="translate(1799.177 1170.813)"><rect width="17.989" height="16.689" transform="translate(0 0)" fill="#f6e6d7"/><rect width="4.014" height="16.689" transform="translate(13.975 0)" fill="#d2b9a6"/><path d="M1888.67,1263.81c-.01-2.123-2.055-3.841-4.575-3.841s-4.565,1.718-4.575,3.841Z" transform="translate(-1875.101 -1219.488)" fill="#3b1a11"/><rect width="2.85" height="3.873" transform="translate(7.569 29.867)" fill="#3b1a11"/><path d="M1885.574,1253.5h0a2.9,2.9,0,0,1-2.895-2.895v-3.338a2.9,2.9,0,0,1,2.895-2.9h0a2.9,2.9,0,0,1,2.895,2.9v3.338A2.9,2.9,0,0,1,1885.574,1253.5Z" transform="translate(-1876.58 -1212.186)" fill="#945029"/><rect width="1.668" height="3.823" transform="translate(8.16 16.689)" fill="#3b1a11"/><ellipse cx="2.259" cy="1.772" rx="2.259" ry="1.772" transform="translate(6.735 20.14)" fill="#945029"/><path d="M1888.453,1229.754q-.345,1.726-.69,3.452a2.375,2.375,0,0,1-.77,1.3,2.9,2.9,0,0,1-2.891,0,2.377,2.377,0,0,1-.77-1.3q-.346-1.727-.69-3.452a1.655,1.655,0,0,1,.737-1.529,4.356,4.356,0,0,1,4.337,0A1.653,1.653,0,0,1,1888.453,1229.754Z" transform="translate(-1876.554 -1204.359)" fill="#945029"/><path d="M1890.188,1239.343a2.67,2.67,0,0,0,1.1-2.152v-3.782a2.677,2.677,0,0,0-1.469-2.382v-2.32l.021-.01a2.377,2.377,0,0,0,.77-1.3q.345-1.726.69-3.452a1.652,1.652,0,0,0-.737-1.528,4.319,4.319,0,0,0-1.031-.427,1.745,1.745,0,0,0,1.122-1.529,1.836,1.836,0,0,0-1.425-1.645v-3.577h-.528v3.467a1.961,1.961,0,0,1,1.425,1.755,1.745,1.745,0,0,1-1.122,1.529,4.318,4.318,0,0,1,1.031.427,1.653,1.653,0,0,1,.738,1.528q-.346,1.726-.69,3.452a3.154,3.154,0,0,1-.791,1.541c-.006,0,.007-.237,0-.233v2.116a3,3,0,0,1,1.469,2.585v3.782a3.009,3.009,0,0,1-.941,2.382,3.487,3.487,0,0,1,2.623,3.3h.528A3.911,3.911,0,0,0,1890.188,1239.343Z" transform="translate(-1879.396 -1198.552)" fill="#945029" opacity="0.44" style="mix-blend-mode:multiply;isolation:isolate"/></g><g transform="translate(1871.917 1152.609)"><rect width="24.499" height="115.261" transform="translate(0 0)" fill="#5e2e1d"/><rect width="7.249" height="115.261" transform="translate(1.651 0)" fill="#3b1a11"/><rect width="8.906" height="115.261" transform="translate(23.035)" fill="#3b1a11"/><rect width="23.377" height="2.026" transform="translate(0.517 59.998)" fill="#945029"/><g transform="translate(0.002 0)"><rect width="1.649" height="115.261" fill="#945029"/><rect width="1.649" height="115.261" transform="translate(22.848)" fill="#945029"/></g><g transform="translate(0 79.229)"><rect width="24.499" height="36.031" fill="#aa6d4a"/><g transform="translate(4.178 4.178)"><rect width="27.675" height="16.143" transform="translate(16.143 0) rotate(90)" fill="#f6e6d7"/><g transform="translate(13.504 7.269)"><path d="M2053.466,1341.8c0,1.313-.276,2.378-.616,2.378s-.614-1.064-.614-2.378.275-2.378.614-2.378S2053.466,1340.485,2053.466,1341.8Z" transform="translate(-2052.236 -1339.421)" fill="#5e2e1d"/><path d="M2053.344,1339.89a6.3,6.3,0,0,1,.248,1.909c0,1.313-.274,2.378-.614,2.378-.1,0-.19-.091-.273-.25.1.294.228.47.365.47.339,0,.615-1.064.615-2.378A5.32,5.32,0,0,0,2053.344,1339.89Z" transform="translate(-2052.455 -1339.64)" fill="#481c10"/></g></g></g><g transform="translate(0 0)"><rect width="24.499" height="36.031" fill="#aa6d4a"/><g transform="translate(4.178 4.178)"><rect width="27.675" height="16.143" transform="translate(16.143 0) rotate(90)" fill="#f6e6d7"/><g transform="translate(13.504 17.164)"><ellipse cx="0.615" cy="2.378" rx="0.615" ry="2.378" fill="#5e2e1d"/><path d="M2053.344,1209.544a6.3,6.3,0,0,1,.248,1.908c0,1.314-.274,2.379-.614,2.379-.1,0-.19-.091-.273-.25.1.294.228.47.365.47.339,0,.615-1.065.615-2.379A5.319,5.319,0,0,0,2053.344,1209.544Z" transform="translate(-2052.455 -1209.295)" fill="#481c10"/></g></g></g></g><g transform="translate(1702.715 1221.029)"><rect width="57.824" height="40.413" transform="translate(73.582 40.413) rotate(-180)" fill="#b56635"/><rect width="52.85" height="12.757" transform="translate(71.095 14.561) rotate(-180)" fill="#5e2e1d"/><rect width="52.85" height="22.555" transform="translate(71.095 38.301) rotate(-180)" fill="#f6e6d7"/><rect width="26.425" height="22.555" transform="translate(44.67 38.301) rotate(-180)" fill="#c4d6bd"/><g transform="translate(67.734 18.716)"><path d="M1828.782,1338.673h0a.545.545,0,0,0,.544-.544v-4.819a.545.545,0,0,0-.544-.544h0a.546.546,0,0,0-.544.544v4.819A.545.545,0,0,0,1828.782,1338.673Z" transform="translate(-1828.238 -1332.766)" fill="#5e2e1d"/><path d="M1828.782,1332.766a.537.537,0,0,1,.156.026.544.544,0,0,0-.389.519v4.819a.544.544,0,0,0,.389.519.536.536,0,0,1-.7-.519v-4.819A.546.546,0,0,1,1828.782,1332.766Z" transform="translate(-1828.238 -1332.766)" fill="#481c10"/></g><g transform="translate(20.492 18.716)"><path d="M1739.97,1338.673h0a.546.546,0,0,0,.544-.544v-4.819a.546.546,0,0,0-.544-.544h0a.546.546,0,0,0-.545.544v4.819A.546.546,0,0,0,1739.97,1338.673Z" transform="translate(-1739.426 -1332.766)" fill="#5e2e1d"/><path d="M1739.97,1332.766a.535.535,0,0,1,.155.026.545.545,0,0,0-.389.519v4.819a.545.545,0,0,0,.389.519.536.536,0,0,1-.7-.519v-4.819A.546.546,0,0,1,1739.97,1332.766Z" transform="translate(-1739.426 -1332.766)" fill="#481c10"/></g><rect width="15.758" height="40.413" transform="translate(15.758 40.413) rotate(-180)" fill="#3b1a11"/><rect width="5.96" height="5.66" transform="translate(24.017 46.073) rotate(-180)" fill="#b56635"/><rect width="1.347" height="5.66" transform="translate(18.056 40.413)" fill="#3b1a11"/><rect width="5.96" height="5.66" transform="translate(6.737 46.073) rotate(-180)" fill="#b56635"/><rect width="1.347" height="5.66" transform="translate(0.777 40.413)" fill="#3b1a11"/><rect width="5.96" height="5.66" transform="translate(71.608 46.073) rotate(-180)" fill="#b56635"/><rect width="1.347" height="5.66" transform="translate(65.648 40.413)" fill="#3b1a11"/><rect width="5.96" height="5.66" transform="translate(54.329 46.073) rotate(-180)" fill="#b56635"/><rect width="1.347" height="5.66" transform="translate(48.369 40.413)" fill="#3b1a11"/><rect width="15.758" height="12.628" transform="translate(71.199 14.389) rotate(-180)" fill="#3b1a11"/></g><g transform="translate(1744.313 1195.38)"><rect width="25.084" height="17.683" transform="translate(49.685 29.569)" fill="#5e2e1d"/><ellipse cx="5.72" cy="6.974" rx="5.72" ry="6.974" transform="translate(5.249 0)" fill="#b56635"/><path d="M2434.165,1333.557h-37.433l-.55-2.666-1.249-6.067-.551-2.68-3.234-15.7-1.9-9.233a3.859,3.859,0,0,1,3.78-4.639h32.7l.009.043.729,3.54,2.328,11.311.6,2.909,1.4,6.813,1.021,4.953.225,1.092,2.073,10.066Z" transform="translate(-2381.031 -1292.576)" fill="#b56635"/><path d="M2440.657,1340.038H2404.77c.071-1.248.094-2.566.073-3.946-.013-.823-.042-1.671-.085-2.535q-.059-1.189-.154-2.427-.106-1.366-.253-2.784c-.208-2-.476-4.077-.8-6.2-.977-6.526-2.437-13.522-4.117-20.371q-.129-.522-.258-1.043c-.8-3.2-2.144-6.316-3.969-8-.057-.054-.113-.105-.171-.154h32a5.776,5.776,0,0,1,.709.043,7.2,7.2,0,0,1,5.89,6.238l2.825,16.572.366,2.147.779,4.568.294,1.724,1.608,9.434.367,2.16.138.807.605,3.559Z" transform="translate(-2383.042 -1292.576)" fill="#914822"/><path d="M2443.046,1298.858l2.826,16.572a67.521,67.521,0,0,0-5.533-7.808c-.042-.051-.082-.1-.126-.151a64.332,64.332,0,0,0-17.708-14.894h14.643l.009.043A7.2,7.2,0,0,1,2443.046,1298.858Z" transform="translate(-2392.452 -1292.576)" fill="#ab5b30"/><g transform="translate(18.668 7.376)"><path d="M2410.8,1303.8l-.124,3.73.124,3.73.125-3.73Z" transform="translate(-2407.067 -1303.796)" fill="#48261a"/><path d="M2412.647,1309.405l-3.729.125-3.73-.125,3.73-.125Z" transform="translate(-2405.187 -1305.675)" fill="#48261a"/><path d="M2411.028,1309.289a.348.348,0,1,1-.348-.348A.348.348,0,0,1,2411.028,1309.289Z" transform="translate(-2406.95 -1305.559)" fill="#3b1a11"/><g transform="translate(10.898)"><path d="M2427.374,1303.8l-.125,3.73.125,3.73.125-3.73Z" transform="translate(-2423.644 -1303.796)" fill="#48261a"/><path d="M2429.226,1309.405l-3.73.125-3.73-.125,3.73-.125Z" transform="translate(-2421.765 -1305.675)" fill="#48261a"/><path d="M2427.606,1309.289a.348.348,0,1,1-.349-.348A.348.348,0,0,1,2427.606,1309.289Z" transform="translate(-2423.528 -1305.559)" fill="#3b1a11"/></g><g transform="translate(21.796)"><path d="M2443.952,1303.8l-.125,3.73.125,3.73.125-3.73Z" transform="translate(-2440.222 -1303.796)" fill="#48261a"/><path d="M2445.8,1309.405l-3.73.125-3.73-.125,3.73-.125Z" transform="translate(-2438.343 -1305.675)" fill="#48261a"/><path d="M2444.183,1309.289a.348.348,0,1,1-.348-.348A.348.348,0,0,1,2444.183,1309.289Z" transform="translate(-2440.105 -1305.559)" fill="#3b1a11"/></g><g transform="translate(3.297 10.107)"><path d="M2415.812,1319.17l-.125,3.73.125,3.73.124-3.73Z" transform="translate(-2412.082 -1319.17)" fill="#48261a"/><path d="M2417.663,1324.779l-3.73.124-3.729-.124,3.729-.125Z" transform="translate(-2410.204 -1321.049)" fill="#48261a"/><path d="M2416.044,1324.663a.348.348,0,1,1-.348-.349A.347.347,0,0,1,2416.044,1324.663Z" transform="translate(-2411.967 -1320.932)" fill="#3b1a11"/><g transform="translate(10.898)"><path d="M2432.39,1319.17l-.125,3.73.125,3.73.125-3.73Z" transform="translate(-2428.66 -1319.17)" fill="#48261a"/><path d="M2434.241,1324.779l-3.73.124-3.73-.124,3.73-.125Z" transform="translate(-2426.781 -1321.049)" fill="#48261a"/><path d="M2432.621,1324.663a.348.348,0,1,1-.347-.349A.348.348,0,0,1,2432.621,1324.663Z" transform="translate(-2428.544 -1320.932)" fill="#3b1a11"/></g><g transform="translate(21.796)"><path d="M2448.967,1319.17l-.124,3.73.124,3.73.125-3.73Z" transform="translate(-2445.238 -1319.17)" fill="#48261a"/><path d="M2450.818,1324.779l-3.73.124-3.73-.124,3.73-.125Z" transform="translate(-2443.358 -1321.049)" fill="#48261a"/><path d="M2449.2,1324.663a.348.348,0,1,1-.349-.349A.348.348,0,0,1,2449.2,1324.663Z" transform="translate(-2445.121 -1320.932)" fill="#3b1a11"/></g></g><g transform="translate(6.882 20.213)"><path d="M2421.264,1334.544l-.124,3.73.124,3.73.126-3.73Z" transform="translate(-2417.535 -1334.544)" fill="#48261a"/><path d="M2423.116,1340.152l-3.73.125-3.73-.125,3.73-.124Z" transform="translate(-2415.656 -1336.423)" fill="#48261a"/><path d="M2421.5,1340.036a.348.348,0,1,1-.349-.348A.348.348,0,0,1,2421.5,1340.036Z" transform="translate(-2417.419 -1336.306)" fill="#3b1a11"/><g transform="translate(10.898)"><path d="M2437.843,1334.544l-.125,3.73.125,3.73.124-3.73Z" transform="translate(-2434.112 -1334.544)" fill="#48261a"/><path d="M2439.693,1340.152l-3.73.125-3.729-.125,3.729-.124Z" transform="translate(-2432.233 -1336.423)" fill="#48261a"/><path d="M2438.074,1340.036a.349.349,0,1,1-.348-.348A.349.349,0,0,1,2438.074,1340.036Z" transform="translate(-2433.995 -1336.306)" fill="#3b1a11"/></g><g transform="translate(21.796)"><path d="M2454.42,1334.544l-.124,3.73.124,3.73.125-3.73Z" transform="translate(-2450.691 -1334.544)" fill="#48261a"/><path d="M2456.271,1340.152l-3.729.125-3.73-.125,3.73-.124Z" transform="translate(-2448.811 -1336.423)" fill="#48261a"/><path d="M2454.651,1340.036a.348.348,0,1,1-.348-.348A.348.348,0,0,1,2454.651,1340.036Z" transform="translate(-2450.573 -1336.306)" fill="#3b1a11"/></g></g></g><g transform="translate(35.049 21.587)"><path d="M2456.97,1329.69a1.6,1.6,0,0,1-.042.229q-.2.756-.383,1.523a.1.1,0,0,1,0,.017.039.039,0,0,0,0,.014q-.229.955-.434,1.922-.248,1.173-.461,2.363c-.27,1.515-.5,3.042-.68,4.57q-.25,2.119-.385,4.225a.618.618,0,0,1,0,.064v.034q-.073,1.2-.107,2.381a1.75,1.75,0,0,1-.032.272l0,.007a1.07,1.07,0,0,1-.153.375.811.811,0,0,1-.172.187.952.952,0,0,1-.981.067c-.366-.145-.734-.285-1.1-.421q-2.212-.819-4.4-1.407-1.359-.365-2.722-.642c-.054-.012-.109-.024-.165-.034q-2.066-.413-4.158-.629a46.81,46.81,0,0,0-6.508-.207q-1.426.052-2.889.185a1.249,1.249,0,0,1-.341-.007.838.838,0,0,1-.577-.325,1.075,1.075,0,0,1-.112-.918c.038-.143.074-.288.112-.432a77.351,77.351,0,0,0,2.349-16.681.905.905,0,0,1,1.34-.908,47.722,47.722,0,0,0,10.627,2.892l.237.034q1.993.283,4.021.385c.3.016.606.028.908.036a50.733,50.733,0,0,0,6.149-.194,1.042,1.042,0,0,1,.8.21.8.8,0,0,1,.158.194A1,1,0,0,1,2456.97,1329.69Z" transform="translate(-2430.106 -1325.413)" fill="#149bb3"/><g transform="translate(23.623 3.66)"><path d="M2469.281,1331.6c-.148.581-.29,1.163-.424,1.752,0,.005,0,.011,0,.016a.057.057,0,0,0,0,.014q-.22.955-.419,1.922-.242,1.175-.451,2.365c-.27,1.53-.5,3.074-.685,4.618q-.255,2.091-.4,4.176l0,.064,0,.034q-.093,1.334-.141,2.654v.007a1.078,1.078,0,0,1-.153.375.8.8,0,0,1-.173.187c-.038-.225-.072-.448-.1-.673-.128-.889-.208-1.771-.246-2.648a32.071,32.071,0,0,1,.378-6.418c.135-.853.3-1.678.479-2.467s.386-1.557.6-2.274a30.044,30.044,0,0,1,1.644-4.322Z" transform="translate(-2466.039 -1330.98)" fill="#127f8a"/></g><g transform="translate(2.451 6.405)"><path d="M2462.083,1351.509a.605.605,0,0,1-.275.549.944.944,0,0,1-.789.049q-1.209-.368-2.407-.7a93.721,93.721,0,0,0-23.914-3.483c-.629-.008-1-.4-.82-.9a29.17,29.17,0,0,0,1.824-11.21c-.011-.525.463-.785,1.062-.6a93.7,93.7,0,0,0,24.094,4.117q1.1.045,2.228.068a1.235,1.235,0,0,1,.414.073.616.616,0,0,1,.405.825A29.155,29.155,0,0,0,2462.083,1351.509Z" transform="translate(-2433.834 -1335.155)" fill="#e7b178"/><path d="M2476.355,1353.9v.007c0,.361-.268.735-.442.395-.955-1.868-.272-9.176,1.923-12,.208-.269.367-.213.385.114a.694.694,0,0,1-.043.276A29.169,29.169,0,0,0,2476.355,1353.9Z" transform="translate(-2448.106 -1337.543)" fill="#be8e5c"/></g></g><path d="M4.68,0H29.034a4.68,4.68,0,0,1,4.68,4.68v0a3.37,3.37,0,0,1-3.37,3.37H3.08A3.08,3.08,0,0,1,0,4.97V4.68A4.68,4.68,0,0,1,4.68,0Z" transform="translate(68.36 48.777) rotate(180)" fill="#48261a"/><path d="M2393.952,1366.4h19.806l-3.906-28.845h-20.274v24.471A4.374,4.374,0,0,0,2393.952,1366.4Z" transform="translate(-2381.172 -1307.985)" fill="#4b1e0e"/><path d="M2410.844,1358.77l2.915,14.9h-19.806a4.374,4.374,0,0,1-4.375-4.375V1358.77Z" transform="translate(-2381.172 -1315.254)" fill="#b56635"/><rect width="4.438" height="12.946" transform="translate(71.026 71.359) rotate(180)" fill="#4b2117"/><rect width="4.438" height="12.946" transform="translate(53.085 71.359) rotate(180)" fill="#4b2117"/><circle cx="6.974" cy="6.974" r="6.974" transform="matrix(0.772, -0.635, 0.635, 0.772, 64.953, 35.586)" fill="#945029"/><circle cx="6.974" cy="6.974" r="6.974" transform="translate(18.413 37.398) rotate(-49.977)" fill="#945029"/><circle cx="6.974" cy="6.974" r="6.974" transform="matrix(0.973, -0.233, 0.233, 0.973, 0, 31.384)" fill="#4b1e0e"/><path d="M2426.639,1348.875v9.745a1.527,1.527,0,0,0,1.527,1.527h29.694a1.364,1.364,0,0,0,1.364-1.363v-9.909h7.125v16.908a4.494,4.494,0,0,1-4.494,4.495h-37.846a4.5,4.5,0,0,1-4.495-4.495v-16.908Z" transform="translate(-2391.428 -1311.864)" fill="#945029"/><rect width="1.801" height="12.946" transform="translate(66.588 71.359) rotate(180)" fill="#c27447"/><rect width="1.801" height="12.946" transform="translate(48.608 71.359) rotate(180)" fill="#c27447"/><rect width="4.438" height="12.946" transform="translate(38.581 71.359) rotate(180)" fill="#4b2117"/><rect width="4.438" height="12.946" transform="translate(20.64 71.359) rotate(180)" fill="#4b2117"/><rect width="1.801" height="12.946" transform="translate(34.144 71.359) rotate(180)" fill="#c27447"/><rect width="1.801" height="12.946" transform="translate(16.202 71.359) rotate(180)" fill="#c27447"/></g></g></g></svg>