<svg xmlns="http://www.w3.org/2000/svg" xmlns:xlink="http://www.w3.org/1999/xlink" width="140" height="140" viewBox="0 0 140 140">
  <defs>
    <clipPath id="clip-path">
      <circle id="楕円形_477" data-name="楕円形 477" cx="70" cy="70" r="70" transform="translate(0 0.477)" fill="#f7f3e5"/>
    </clipPath>
  </defs>
  <g id="demerit_obj15" transform="translate(0 -0.477)">
    <circle id="楕円形_23" data-name="楕円形 23" cx="70" cy="70" r="70" transform="translate(0 0.477)" fill="#f7f3e5"/>
    <g id="マスクグループ_81" data-name="マスクグループ 81" clip-path="url(#clip-path)">
      <g id="グループ_15519" data-name="グループ 15519" transform="translate(-1098.141 -88.271)">
        <g id="グループ_15518" data-name="グループ 15518" transform="translate(1105.472 111.923)">
          <g id="グループ_15517" data-name="グループ 15517">
            <g id="グループ_15513" data-name="グループ 15513">
              <g id="グループ_15512" data-name="グループ 15512">
                <path id="パス_89195" data-name="パス 89195" d="M1190.186,210.484c2.4,1.479,4.878,3.31,5.661,6.02a11.237,11.237,0,0,1,.207,4.037c-.661,8.039-3.067,15.833-4.187,23.82-1.338,9.547,1.53,28.991,1.53,28.991H1137.87s1.533-35.985,2.395-54.037a19.294,19.294,0,0,0-1.371-8.255,2.248,2.248,0,0,1,.511-2.183,6.247,6.247,0,0,1,1.908-1.354,71.7,71.7,0,0,1,12.642-4.913c3.277-.869,5.142-.194,8.5.072l8.666.686C1178.128,203.924,1184.251,206.829,1190.186,210.484Z" transform="translate(-1121.726 -157.205)" fill="#a35517"/>
                <g id="グループ_15511" data-name="グループ 15511">
                  <path id="パス_89196" data-name="パス 89196" d="M1173.06,136.371s2.475-.534,2.867-.094c.767.861,22.014-.678,22.3.464.743-1.833,3.155-.386,3.479-.089a59.3,59.3,0,0,0,.831-11.354,14.808,14.808,0,0,0-1.05-5.411c-.085-.19-.176-.377-.276-.561a9.72,9.72,0,0,0-4.024-4.084,11.938,11.938,0,0,0-2.328-.891s-4.648-4.64-13.524-1.09a15.674,15.674,0,0,0-5.569,3.829,16.335,16.335,0,0,0-3.15,6.227C1171.123,128.276,1173.06,136.371,1173.06,136.371Z" transform="translate(-1138.874 -111.923)" fill="#421a19"/>
                  <path id="パス_89197" data-name="パス 89197" d="M1214.884,206.386l.061.26,4.111,17.709s5.707,14.755,11.149,28.885q.442,1.147.879,2.291c1.341,3.478,3.821,19.933,3.821,19.933h14.626c-2.194-14.433-7.772-47.741-10.436-54.762-1.209-3.174-4.063-5.768-7.408-7.834a.686.686,0,0,0-.106-.066c-1.038-.637-2.119-1.222-3.214-1.759a64.3,64.3,0,0,0-8.022-3.467,31.409,31.409,0,0,0-5.4-1.176Z" transform="translate(-1160.364 -159.315)" fill="#a35517"/>
                  <path id="パス_89198" data-name="パス 89198" d="M1139.331,201.708l-.062.26-4.11,17.709s-5.707,14.755-11.15,28.885q-.442,1.147-.879,2.291c-1.341,3.478-3.821,22.193-3.821,22.193h-13.837c2.194-14.433,6.983-50,9.647-57.022,1.209-3.174,4.063-5.768,7.408-7.835a.727.727,0,0,1,.106-.066c1.037-.637,2.119-1.222,3.214-1.759a59.349,59.349,0,0,1,8-3.161c2.889-.919,4.968-1.552,5.355-1.636C1139.239,201.558,1139.331,201.708,1139.331,201.708Z" transform="translate(-1105.472 -156.897)" fill="#a35517"/>
                  <path id="パス_89199" data-name="パス 89199" d="M1192.65,183.8l.052,0a23.318,23.318,0,0,0-.25,4.373,7.81,7.81,0,0,0,1.36,4.109,15.072,15.072,0,0,0,1.343,1.585q.381.392.79.756a11.6,11.6,0,0,0,1.142.66,18.1,18.1,0,0,1-12.134,4.9,15.463,15.463,0,0,1-8.078-1.948c-2.362-1.29-6.334-5.864-6.334-5.864s1.72-.649,2.548-1.046a4.769,4.769,0,0,0,1.929-1.454,5.325,5.325,0,0,0,.73-2.311,46.681,46.681,0,0,0,.472-5.089Z" transform="translate(-1138.118 -147.321)" fill="#edbf98"/>
                  <path id="パス_89200" data-name="パス 89200" d="M1202.238,135.853a6.935,6.935,0,0,0-1.687-2.935c-1.687-1.8-4.013-1.1-6.392-1.762-1.146-.319-2.682-1.216-3.871-1.246-2.483-.062-4.628-.218-6.546,1.36q-.414.34-.778.7a11.015,11.015,0,0,0-2.18,3.119c-1.6,3.379-1.682,7.441-2.118,11.239s-1.289,7.249.74,10.753a10.607,10.607,0,0,0,7.587,5.274c4.22.558,9.088-1.093,11.088-5.052,1.135-2.246,1.39-4.784,1.915-7.212.729-3.366,1.146-6.911,2.113-10.214A7.349,7.349,0,0,0,1202.238,135.853Z" transform="translate(-1141.915 -120.929)" fill="#edbf98"/>
                  <path id="パス_89201" data-name="パス 89201" d="M1176.3,153.4c-3.341-2.875-5.3-1.032-5.671,1.321s1.5,7.1,4.2,7.614Z" transform="translate(-1138.136 -131.994)" fill="#edbf98"/>
                  <path id="パス_89202" data-name="パス 89202" d="M1221.465,158.588c3.964-1.926,5.391.356,5.146,2.726s-3.265,6.484-6,6.29Z" transform="translate(-1163.236 -134.973)" fill="#edbf98"/>
                  <path id="パス_89207" data-name="パス 89207" d="M1211.285,159.61a1.18,1.18,0,0,1-1.458.853,1.23,1.23,0,0,1-.845-1.5,1.181,1.181,0,0,1,1.458-.854A1.232,1.232,0,0,1,1211.285,159.61Z" transform="translate(-1157.382 -135.074)"/>
                  <path id="パス_89208" data-name="パス 89208" d="M1191.815,157.18a1.18,1.18,0,0,1-1.458.854,1.231,1.231,0,0,1-.844-1.5,1.18,1.18,0,0,1,1.458-.853A1.23,1.23,0,0,1,1191.815,157.18Z" transform="translate(-1147.615 -133.855)"/>
                  <path id="パス_89209" data-name="パス 89209" d="M1194.911,166.72a.293.293,0,0,1-.146-.338c.024-.169.144-.289.264-.269l4.164.724c-.081-3.739-.325-7.706-.362-8.5a.411.411,0,0,1,.064-.388.18.18,0,0,1,.312.016c.052.087.229-.15.439,9.184a.42.42,0,0,1-.08.257.2.2,0,0,1-.189.088l-4.444-.772A.136.136,0,0,1,1194.911,166.72Z" transform="translate(-1150.267 -134.974)"/>
                </g>
                <path id="パス_89210" data-name="パス 89210" d="M1208.03,152.018a.446.446,0,0,1,.195.113,6.463,6.463,0,0,0,2.005,1.334,5.376,5.376,0,0,0,1.8.393.453.453,0,0,1,.492.389.441.441,0,0,1-.368.5,5.451,5.451,0,0,1-2.205-.43,7.271,7.271,0,0,1-2.353-1.549.447.447,0,0,1,.435-.747Z" transform="translate(-1156.641 -132.03)" fill="#421a19"/>
                <path id="パス_89211" data-name="パス 89211" d="M1187.145,151.056a.452.452,0,0,1,.227.006,6.442,6.442,0,0,0,2.4.217,5.422,5.422,0,0,0,1.77-.513.453.453,0,0,1,.618.108.441.441,0,0,1-.087.612,5.422,5.422,0,0,1-2.143.673,7.249,7.249,0,0,1-2.807-.239.447.447,0,0,1,.024-.864Z" transform="translate(-1146.274 -131.372)" fill="#421a19"/>
                <path id="パス_89212" data-name="パス 89212" d="M1190.085,191.737a5.249,5.249,0,0,1-1.132-.115c-2.9-.645-6.362-4.168-6.508-4.317a.4.4,0,1,1,.577-.561c.034.035,3.439,3.5,6.106,4.093,2.86.64,7.651-2.043,7.7-2.07a.4.4,0,1,1,.4.7C1197.039,189.57,1193.164,191.737,1190.085,191.737Z" transform="translate(-1144.032 -149.399)" fill="#c48e61"/>
                <path id="パス_89213" data-name="パス 89213" d="M1243.113,267.9h-.037a.441.441,0,0,1-.4-.477l2.378-28.534a.435.435,0,0,1,.477-.4.441.441,0,0,1,.4.477l-2.378,28.534A.441.441,0,0,1,1243.113,267.9Z" transform="translate(-1174.304 -175.417)" fill="#562d0c"/>
                <path id="パス_89214" data-name="パス 89214" d="M1138.72,267.9a.442.442,0,0,1-.44-.4l-2.378-28.534a.441.441,0,0,1,.4-.477.436.436,0,0,1,.477.4l2.378,28.534a.441.441,0,0,1-.4.477Z" transform="translate(-1120.738 -175.418)" fill="#562d0c"/>
                <path id="パス_89215" data-name="パス 89215" d="M1182.179,216.918c-5.2,0-9.626-2.682-11.534-4.039a57.885,57.885,0,0,1-5.025-4.349.442.442,0,0,1,.613-.635,58.2,58.2,0,0,0,4.924,4.264c2.257,1.606,8.2,5.151,14.588,3.4a30.8,30.8,0,0,0,10.925-5.457.442.442,0,0,1,.576.669,31.1,31.1,0,0,1-11.268,5.64A14.336,14.336,0,0,1,1182.179,216.918Z" transform="translate(-1135.58 -160.01)" fill="#562d0c"/>
              </g>
              <path id="パス_89216" data-name="パス 89216" d="M1181.465,124.492c-3.011.141-5.609,2.329-7.135,4.928a19.3,19.3,0,0,0-2.641,7.549,6.913,6.913,0,0,1-.877,3.184c-.333.531-1.614,2.223-2.372,2.106a2.847,2.847,0,0,0,2.369-.75,5.32,5.32,0,0,1-2.065,2.6c.609-.4,1.446-.276,2.111-.462a6.884,6.884,0,0,0,2.394-1.359,3.881,3.881,0,0,0,2.023,3.616c-.448-1.781-.666-3.366.346-5.018,1.043-1.7,6.828-7.771,7.834-8.812a8.209,8.209,0,0,1,4.606-2.537c.676-.067,1.8-.614,2.38-.03C1187.706,126.932,1185.492,124.3,1181.465,124.492Z" transform="translate(-1137.062 -118.224)" fill="#421a19"/>
              <path id="パス_89217" data-name="パス 89217" d="M1211.939,127.355c2.791,1.136,4.511,4.066,5.083,7.025a20,20,0,0,1,.231,6.628c-.219,1.514-.273,3.219.856,4.411a6.7,6.7,0,0,1-2.282-.145,2.936,2.936,0,0,0,.748,2.345,2.188,2.188,0,0,1-2.41-.8,5.271,5.271,0,0,1-1.37,2.709c.528-.923-1.963-14.448-4.865-17.464a5.324,5.324,0,0,0-3.014-1.837,1.614,1.614,0,0,1-.8-.215C1206.207,127.856,1208.9,126.117,1211.939,127.355Z" transform="translate(-1154.961 -119.458)" fill="#421a19"/>
              <path id="パス_89218" data-name="パス 89218" d="M1176.613,138.69a.263.263,0,0,1-.08-.013.224.224,0,0,1-.13-.286c.1-.277.268-.724.5-1.26a.225.225,0,0,1,.429.094.6.6,0,0,1-.018.085h0v.009c-.228.519-.393.952-.491,1.225A.227.227,0,0,1,1176.613,138.69Zm1.077-2.458h-.005a.245.245,0,0,1-.1-.022.24.24,0,0,1-.112-.134.226.226,0,0,1,.013-.17c.206-.4.429-.8.657-1.179l0-.005a.234.234,0,0,1,.308-.076.22.22,0,0,1,.072.308c-.219.367-.438.755-.644,1.158A.223.223,0,0,1,1177.69,136.232Zm1.394-2.288a.19.19,0,0,1-.13-.045.2.2,0,0,1-.09-.142.219.219,0,0,1,.04-.165c.134-.183.281-.376.434-.559s.281-.34.416-.5a0,0,0,0,1,0,0,.224.224,0,0,1,.313-.022.221.221,0,0,1,.08.174.266.266,0,0,1-.053.138l0,0a.01.01,0,0,1-.009.009c-.147.169-.277.326-.4.478-.148.179-.286.362-.42.541A.214.214,0,0,1,1179.085,133.944Zm1.747-2.029a.222.222,0,0,1-.156-.063.218.218,0,0,1-.067-.16.222.222,0,0,1,.063-.156c.322-.33.648-.648.97-.938l0,0a.229.229,0,0,1,.317.018.223.223,0,0,1,.053.147.227.227,0,0,1-.071.165c-.317.291-.639.6-.952.925A.25.25,0,0,1,1180.832,131.915Zm1.989-1.8a.23.23,0,0,1-.178-.085.224.224,0,0,1-.045-.165.21.21,0,0,1,.085-.147c.358-.282.729-.545,1.1-.791a.232.232,0,0,1,.312.063.268.268,0,0,1,.036.13.235.235,0,0,1-.1.183c-.362.232-.724.491-1.073.764A.231.231,0,0,1,1182.821,130.118Zm2.248-1.457a.223.223,0,0,1-.107-.42,11.173,11.173,0,0,1,1.247-.559.226.226,0,0,1,.29.13.207.207,0,0,1,.013.076.224.224,0,0,1-.143.21,11.908,11.908,0,0,0-1.2.541A.244.244,0,0,1,1185.068,128.661Zm2.5-.934a.224.224,0,0,1-.049-.442,5.472,5.472,0,0,1,1.386-.156h.013a.206.206,0,0,1,.148.076.221.221,0,0,1-.183.366s0,0,0,0l0,0a4.992,4.992,0,0,0-1.256.152A.2.2,0,0,1,1187.571,127.727Z" transform="translate(-1141.051 -119.55)" fill="#65211b"/>
              <path id="パス_89219" data-name="パス 89219" d="M1174.542,130.537a.243.243,0,0,1-.094-.018.24.24,0,0,1-.116-.13.206.206,0,0,1,.009-.17c.027-.063.134-.282.321-.626a.23.23,0,0,1,.3-.085.227.227,0,0,1,.116.2.243.243,0,0,1-.027.107c-.2.357-.3.577-.308.594a0,0,0,0,1,0,0A.224.224,0,0,1,1174.542,130.537Zm1.005-1.761a.225.225,0,0,1-.12-.036.228.228,0,0,1-.067-.313c.241-.375.5-.75.764-1.112v0a.231.231,0,0,1,.313-.049.214.214,0,0,1,.089.178.211.211,0,0,1-.04.135c-.26.357-.514.724-.751,1.1A.226.226,0,0,1,1175.547,128.776Zm1.582-2.167h0a.211.211,0,0,1-.143-.054.225.225,0,0,1-.031-.313c.29-.349.594-.693.9-1.015,0,0,0,0,0,0a.229.229,0,0,1,.313,0,.231.231,0,0,1,.067.165.229.229,0,0,1-.058.147v0s-.009,0-.013.009c-.291.308-.586.639-.872.983A.221.221,0,0,1,1177.129,126.608Zm1.85-1.944a.235.235,0,0,1-.169-.072.233.233,0,0,1,.017-.317c.34-.308.693-.6,1.042-.871a.231.231,0,0,1,.313.04.247.247,0,0,1,.049.134.216.216,0,0,1-.089.179c-.344.264-.684.549-1.015.853A.22.22,0,0,1,1178.979,124.664Zm2.127-1.626a.222.222,0,0,1-.12-.412c.38-.241.778-.464,1.171-.666l.014,0a.222.222,0,0,1,.3.1.2.2,0,0,1,.026.1.224.224,0,0,1-.125.2s-.009,0-.014.009a12.622,12.622,0,0,0-1.135.639A.224.224,0,0,1,1181.107,123.038Zm2.4-1.193a.223.223,0,0,1-.205-.313.226.226,0,0,1,.125-.116c.42-.156.854-.29,1.3-.407h.009a.218.218,0,0,1,.268.161.115.115,0,0,1,.009.053.225.225,0,0,1-.165.219,12.623,12.623,0,0,0-1.26.389A.227.227,0,0,1,1183.5,121.844Zm9.233-.259a.31.31,0,0,1-.067-.009.016.016,0,0,0-.009,0,12.2,12.2,0,0,0-1.269-.3.223.223,0,0,1,.08-.438,10.809,10.809,0,0,1,1.336.317.221.221,0,0,1,.13.107.235.235,0,0,1,.013.174A.227.227,0,0,1,1192.735,121.585Zm-6.641-.407a.226.226,0,0,1-.223-.187.25.25,0,0,1,.04-.17.24.24,0,0,1,.147-.085c.447-.071.9-.12,1.354-.147a.219.219,0,0,1,.237.206v.013a.221.221,0,0,1-.21.223c-.443.032-.885.076-1.314.147Zm4.009-.089a.2.2,0,0,0-.023,0c-.433-.044-.88-.071-1.318-.08a.224.224,0,0,1,0-.447c.451.009.907.036,1.359.085a.216.216,0,0,1,.2.219v.026A.224.224,0,0,1,1190.1,121.089Z" transform="translate(-1140.012 -116.255)" fill="#65211b"/>
              <path id="パス_89220" data-name="パス 89220" d="M1221.108,144.033a.221.221,0,0,1-.219-.21s-.009-.183-.053-.541v-.022a.224.224,0,0,1,.447-.026c.022.2.04.389.049.545,0,.009,0,.014,0,.018a.228.228,0,0,1-.214.237Zm-.242-1.882a.22.22,0,0,1-.219-.183c-.063-.4-.148-.84-.241-1.314a.136.136,0,0,1,0-.044.224.224,0,0,1,.179-.219.234.234,0,0,1,.264.174c.089.456.174.9.246,1.327a.226.226,0,0,1-.183.259Zm-.532-2.628a.224.224,0,0,1-.219-.17c-.1-.442-.206-.867-.322-1.3a.242.242,0,0,1,0-.058.225.225,0,0,1,.165-.215.221.221,0,0,1,.273.161c.112.429.219.858.326,1.3a.228.228,0,0,1-.166.268A.2.2,0,0,1,1220.334,139.524Zm-.679-2.593a.226.226,0,0,1-.215-.16c-.013-.045-.026-.085-.04-.13s-.022-.081-.031-.121c-.1-.344-.214-.683-.34-1.006a.24.24,0,0,1-.013-.076.224.224,0,0,1,.433-.085c.126.33.242.679.349,1.041.022.085.045.17.071.25a.224.224,0,0,1-.152.277A.16.16,0,0,1,1219.655,136.931Zm-.956-2.5a.225.225,0,0,1-.2-.121,9.442,9.442,0,0,0-.675-1.117.219.219,0,0,1-.04-.125.23.23,0,0,1,.094-.188.227.227,0,0,1,.313.054,9.961,9.961,0,0,1,.706,1.171.226.226,0,0,1-.094.3A.273.273,0,0,1,1218.7,134.433Zm-1.546-2.177a.226.226,0,0,1-.161-.067,6.935,6.935,0,0,0-.983-.845.211.211,0,0,1-.094-.188.207.207,0,0,1,.04-.125.235.235,0,0,1,.313-.054,7.925,7.925,0,0,1,1.046.9.225.225,0,0,1,0,.317A.221.221,0,0,1,1217.153,132.256Zm-2.181-1.533a.2.2,0,0,1-.089-.018,4.232,4.232,0,0,0-1.216-.357.216.216,0,0,1-.2-.241.222.222,0,0,1,.241-.206,4.884,4.884,0,0,1,1.354.4.229.229,0,0,1,.121.121.223.223,0,0,1-.005.17A.219.219,0,0,1,1214.972,130.724Z" transform="translate(-1159.651 -120.942)" fill="#65211b"/>
            </g>
            <g id="グループ_15516" data-name="グループ 15516" transform="translate(57.265 18.363)">
              <path id="パス_89221" data-name="パス 89221" d="M1278.318,229.214c-.616-.565-4.271-2.262-5.414-3.8-2.784-3.745-1.392-10.611-1.392-10.611l-4.016.294-4.016-.294s1.392,6.866-1.392,10.611c-1.142,1.537-4.481,3.416-5.1,3.981-.177.162,5.288,7.85,11.238,8.136C1272.022,237.715,1278.5,229.377,1278.318,229.214Z" transform="translate(-1238.752 -181.901)" fill="#edbf98"/>
              <path id="パス_89222" data-name="パス 89222" d="M1264.288,148.775a9.137,9.137,0,0,1,3.729,1.07c4.051,1.969,6.912,5.751,8.592,9.846,1.992,4.856,4.328,11.351,1.547,16.228-1.519,2.663-5.01,5.017-7.845,6.185-6.068,2.5-13.775.866-19.269-2.8-2.409-1.607-4.687-3.771-5.32-6.6-1.282-5.715,2.2-11.909,5.4-16.35,2.094-2.91,5.082-7.039,9.3-5.828A4.43,4.43,0,0,1,1264.288,148.775Z" transform="translate(-1232.964 -148.775)" fill="#3f3429"/>
              <path id="パス_89223" data-name="パス 89223" d="M1232.687,314.384a17.22,17.22,0,0,1-.692,4.614c-1.12,2.887-3.9,6.5-5.652,6.863-1.672.346-5.714.044-5.932-2.8-.173-2.249.98-8.278.98-8.535,0-2.808,3.6-4.523,5.99-4.523S1232.687,311.576,1232.687,314.384Z" transform="translate(-1220.393 -229.661)" fill="#e4c7bc"/>
              <path id="パス_89224" data-name="パス 89224" d="M1237.183,245.056s-5.812,1.191-7.014,2.743c-2.645,3.416-7.934,34.272-7.934,34.272l9.154,3.46,6.6-24.838Z" transform="translate(-1221.317 -197.079)" fill="#e4c7bc"/>
              <path id="パス_89225" data-name="パス 89225" d="M1304.5,245.917s4.743.687,5.841,2.314c3.2,4.738,5.29,47.741,5.29,47.741l-8.816-.11-4.3-34.737Z" transform="translate(-1261.593 -197.511)" fill="#e4c7bc"/>
              <path id="パス_89226" data-name="パス 89226" d="M1278.207,245.572c-1.653-1.984-10.6-5.174-10.6-5.174l-7.754.761-7.754-.761s-8.944,3.191-10.6,5.174,2.2,22.922,2.645,25.126,2.534,11.351,2.534,11.351l-.992,10.893,13.779.209v.011l.384-.005.384.005v-.011l13.779-.209-.992-10.893s2.094-9.147,2.535-11.351S1279.86,247.556,1278.207,245.572Z" transform="translate(-1230.78 -194.742)" fill="#e4c7bc"/>
              <path id="パス_89227" data-name="パス 89227" d="M1279.282,169.851c-1.839-2.856-6.506-5.289-10.425-6.1l-.017.2.007-.2c-3.989.3-8.928,2.121-11.115,4.72-1.8,2.139-1.334,8.587-1.46,11.6-.281,6.616,4.3,12.495,9.909,13.712l-.01.118c.252.016.5.019.756.016.249.035.5.064.751.08l0-.118c5.722-.494,11.01-5.743,11.572-12.341C1279.513,178.537,1280.795,172.2,1279.282,169.851Z" transform="translate(-1238.387 -156.29)" fill="#edbf98"/>
              <path id="パス_89228" data-name="パス 89228" d="M1249.892,192.709a5.721,5.721,0,0,0,3.773,4.7c1.777.359,1.111-1.661,1.472-3.464a3.313,3.313,0,0,0-2.56-3.91C1250.8,189.675,1249.915,190.866,1249.892,192.709Z" transform="translate(-1235.192 -169.444)" fill="#edbf98"/>
              <path id="パス_89229" data-name="パス 89229" d="M1304.8,196.3a5.72,5.72,0,0,1-4.34,4.186c-1.809.13-.891-1.788-1.02-3.623a3.312,3.312,0,0,1,3.036-3.552C1304.286,193.176,1305.01,194.469,1304.8,196.3Z" transform="translate(-1259.99 -171.113)" fill="#edbf98"/>
              <path id="パス_89230" data-name="パス 89230" d="M1265.05,159.771a13.307,13.307,0,0,0,3.128-2.2,4.6,4.6,0,0,0,.739-.974c1.566-2.82-1.308-4.515-3.588-4.59a10.815,10.815,0,0,0-3.308.231,9.4,9.4,0,0,0-2.978,1.638,35.65,35.65,0,0,0-3.5,2.975,18.881,18.881,0,0,0-2.654,3.683,16.962,16.962,0,0,0-1.979,4.383,18.215,18.215,0,0,0-.587,3.223c-.04.4-.174.775-.222,1.165-.064.521.113,1.038.071,1.563-.046.582-.458,1.218-1.041,1.185a6.419,6.419,0,0,0,3.564-1c.1.572-.567,1.38-1.138,1.7a.073.073,0,0,0,.027.136c1.526.253,3.494-1.97,4.717-3.583,1.077-1.422,1.767-3.1,2.787-4.565a14.159,14.159,0,0,1,3.808-3.709C1263.592,160.573,1264.324,160.177,1265.05,159.771Z" transform="translate(-1234.813 -150.385)" fill="#3f3429"/>
              <path id="パス_89231" data-name="パス 89231" d="M1268.637,193.455a1.3,1.3,0,0,1-.759,1.627,1.2,1.2,0,0,1-1.555-.781,1.3,1.3,0,0,1,.765-1.625A1.2,1.2,0,0,1,1268.637,193.455Z" transform="translate(-1243.404 -170.763)"/>
              <path id="パス_89232" data-name="パス 89232" d="M1289.771,194.8a1.3,1.3,0,0,1-.76,1.627,1.206,1.206,0,0,1-1.556-.781,1.3,1.3,0,0,1,.766-1.625A1.2,1.2,0,0,1,1289.771,194.8Z" transform="translate(-1254.006 -171.44)"/>
              <path id="パス_89237" data-name="パス 89237" d="M1285.432,171.055a18.005,18.005,0,0,1,.352,11.036.354.354,0,0,0,.556.393,14.364,14.364,0,0,0,4.16-6.225,26.128,26.128,0,0,0,1.619-10.693,18.766,18.766,0,0,0-4.033-9.949c-1.793-1.97-4.192-3.638-7-3.232-2.327.336-4.624,1.486-4.689,4.241a4.866,4.866,0,0,0,.377,1.935c.68,1.677,1.622,2.29,2.811,3.595C1281.464,164.221,1284.635,168.723,1285.432,171.055Z" transform="translate(-1248.487 -150.555)" fill="#3f3429"/>
              <path id="パス_89238" data-name="パス 89238" d="M1286.981,186.958a.187.187,0,0,1,.077.056,3.488,3.488,0,0,0,2.829,1.179.184.184,0,0,1,.032.367,3.8,3.8,0,0,1-3.149-1.317.184.184,0,0,1,.211-.286Z" transform="translate(-1253.674 -167.925)" fill="#3f3429"/>
              <path id="パス_89239" data-name="パス 89239" d="M1265.459,186.859a.179.179,0,0,1,.095-.008,3.489,3.489,0,0,0,2.9-.988.184.184,0,0,1,.267.253,3.8,3.8,0,0,1-3.232,1.1.184.184,0,0,1-.031-.354Z" transform="translate(-1242.942 -167.353)" fill="#3f3429"/>
              <path id="パス_89240" data-name="パス 89240" d="M1277.867,201.668a.377.377,0,0,1-.252-.1l-1.124-1.01a.377.377,0,0,1-.115-.371l1.182-4.8a.378.378,0,0,1,.734.181l-1.128,4.583.955.858a.378.378,0,0,1-.252.659Z" transform="translate(-1248.474 -172.015)"/>
              <path id="パス_89241" data-name="パス 89241" d="M1275.6,223.154a6.318,6.318,0,0,1-.822-.053,9.572,9.572,0,0,1-2.414-.656.338.338,0,0,1,.259-.624,8.9,8.9,0,0,0,2.244.609,7.2,7.2,0,0,0,2.952-.3.338.338,0,1,1,.191.648A8.574,8.574,0,0,1,1275.6,223.154Z" transform="translate(-1246.363 -185.409)" fill="#c48e61"/>
              <path id="パス_89242" data-name="パス 89242" d="M1251.023,173.924a.266.266,0,0,1-.055-.007.185.185,0,0,1-.125-.239c.077-.243.184-.544.317-.89a.188.188,0,0,1,.246-.107.185.185,0,0,1,.118.177.2.2,0,0,1-.011.066c-.136.349-.239.64-.309.868A.185.185,0,0,1,1251.023,173.924Zm.743-1.931a.159.159,0,0,1-.073-.015.187.187,0,0,1-.1-.246c.147-.346.3-.7.463-1.045a.2.2,0,0,1,.25-.092.19.19,0,0,1,.1.247s0,0,0,0a.019.019,0,0,1-.008.014c-.154.342-.305.684-.453,1.019A.185.185,0,0,1,1251.766,171.993Zm.946-2.064h0a.2.2,0,0,1-.081-.018.186.186,0,0,1-.088-.254c.176-.364.342-.7.5-1.019,0,0,0,0,0,0a.19.19,0,0,1,.25-.081.193.193,0,0,1,.1.173.179.179,0,0,1-.018.077v0c0,.007-.008.011-.008.015-.173.342-.342.681-.5,1A.183.183,0,0,1,1252.712,169.929Zm1.026-2.023a.173.173,0,0,1-.088-.022.186.186,0,0,1-.092-.114.177.177,0,0,1,.014-.143c.181-.342.365-.681.545-1v0a.19.19,0,0,1,.353.1.2.2,0,0,1-.022.088,0,0,0,0,0,0,0l0,.007c-.18.324-.361.655-.537.983A.189.189,0,0,1,1253.738,167.906Zm1.107-1.983a.179.179,0,0,1-.1-.026.2.2,0,0,1-.088-.114.192.192,0,0,1,.022-.144c.2-.342.4-.67.6-.975a.2.2,0,0,1,.261-.059.187.187,0,0,1,.084.165.173.173,0,0,1-.026.1c-.187.3-.386.622-.592.964A.183.183,0,0,1,1254.845,165.923Zm1.218-1.913a.189.189,0,0,1-.107-.033.193.193,0,0,1-.048-.265l.033-.044a.2.2,0,0,1,.026-.033,8.008,8.008,0,0,1,.662-.832.194.194,0,0,1,.265-.011.184.184,0,0,1,.063.14.189.189,0,0,1-.048.125,7.914,7.914,0,0,0-.633.795l-.055.077A.192.192,0,0,1,1256.063,164.01Zm1.516-1.681a.2.2,0,0,1-.144-.066.184.184,0,0,1-.044-.136.189.189,0,0,1,.062-.129,11.4,11.4,0,0,1,.9-.714.2.2,0,0,1,.266.044.191.191,0,0,1-.044.261,10.086,10.086,0,0,0-.875.692A.205.205,0,0,1,1257.579,162.328Zm1.843-1.317a.187.187,0,0,1-.162-.1.184.184,0,0,1,.066-.258c.32-.187.662-.371,1.011-.545h.008a.19.19,0,0,1,.246.089.206.206,0,0,1,.018.081.187.187,0,0,1-.1.169h0s-.007,0-.011.007c-.331.162-.662.339-.979.523A.18.18,0,0,1,1259.422,161.011Zm2.038-1a.192.192,0,0,1-.177-.121.2.2,0,0,1,.107-.247c.673-.265,1.093-.383,1.093-.383a.2.2,0,0,1,.232.133.178.178,0,0,1-.018.144.165.165,0,0,1-.114.088h0s0,0-.008,0c-.135.041-.511.155-1.045.368A.222.222,0,0,1,1261.46,160.014Z" transform="translate(-1235.665 -154.034)" fill="#322a20"/>
              <path id="パス_89243" data-name="パス 89243" d="M1291.25,179.912a.2.2,0,0,1-.04-.007.167.167,0,0,1-.118-.081.178.178,0,0,1-.026-.144c.077-.353.14-.714.2-1.1a.185.185,0,0,1,.213-.158.189.189,0,0,1,.161.188v.025c-.058.379-.125.758-.206,1.13A.188.188,0,0,1,1291.25,179.912Zm.331-2.244h-.015a.192.192,0,0,1-.173-.206c.033-.361.055-.736.066-1.122a.187.187,0,0,1,.187-.18h.008a.186.186,0,0,1,.184.184v.011c-.011.379-.036.765-.066,1.141A.191.191,0,0,1,1291.581,177.668Zm.081-2.266h0a.188.188,0,0,1-.188-.184c0-.364-.018-.743-.04-1.126v-.011a.19.19,0,0,1,.379-.011c.022.387.033.769.04,1.141a.189.189,0,0,1-.187.191Zm-.133-2.262a.191.191,0,0,1-.187-.173c-.037-.383-.081-.762-.129-1.119v-.029a.183.183,0,0,1,.161-.184.189.189,0,0,1,.213.158v.007c.051.386.1.765.133,1.13a.188.188,0,0,1-.044.14.177.177,0,0,1-.129.066S1291.537,173.139,1291.529,173.139Zm-.3-2.248a.189.189,0,0,1-.187-.158c-.063-.372-.129-.743-.2-1.111a.139.139,0,0,1-.007-.037.189.189,0,0,1,.154-.184.187.187,0,0,1,.221.147c.073.36.144.739.21,1.122a.2.2,0,0,1-.155.217C1291.253,170.887,1291.243,170.891,1291.231,170.891Zm-.445-2.226a.192.192,0,0,1-.187-.147c-.089-.383-.18-.75-.269-1.093v0a.227.227,0,0,1-.007-.048.188.188,0,0,1,.371-.048c.1.386.191.75.276,1.107a.194.194,0,0,1-.143.228C1290.812,168.662,1290.8,168.665,1290.786,168.665Zm-.578-2.2a.185.185,0,0,1-.18-.136c-.107-.36-.224-.721-.349-1.063a.2.2,0,0,1-.011-.066.187.187,0,0,1,.121-.177.2.2,0,0,1,.247.111c.125.346.247.714.357,1.089a.194.194,0,0,1-.132.236A.23.23,0,0,1,1290.209,166.469Zm-.78-2.126a.191.191,0,0,1-.172-.11c-.158-.346-.327-.681-.5-1a.2.2,0,0,1-.022-.092.185.185,0,0,1,.1-.165.192.192,0,0,1,.254.074c.187.331.36.677.518,1.026a.19.19,0,0,1,0,.144.2.2,0,0,1-.1.107A.191.191,0,0,1,1289.428,164.343Zm-1.1-1.976a.185.185,0,0,1-.154-.084c-.214-.313-.438-.614-.666-.89,0,0,0,0,0,0a.18.18,0,0,1-.044-.118.189.189,0,0,1,.069-.147.2.2,0,0,1,.265.026c.243.29.474.6.692.923a.189.189,0,0,1-.158.294Zm-1.439-1.747h0a.189.189,0,0,1-.136-.055,11.113,11.113,0,0,0-.828-.743.189.189,0,0,1-.069-.148.18.18,0,0,1,.044-.118.2.2,0,0,1,.265-.029c.295.239.585.5.858.769a.191.191,0,0,1,0,.269A.187.187,0,0,1,1286.887,160.62Zm-1.762-1.424a.213.213,0,0,1-.1-.029,9.969,9.969,0,0,0-.964-.556.182.182,0,0,1-.1-.173.214.214,0,0,1,.018-.081.2.2,0,0,1,.254-.085,10.546,10.546,0,0,1,1,.578.189.189,0,0,1,.055.262A.192.192,0,0,1,1285.124,159.2Zm-2.023-1.019a.172.172,0,0,1-.063-.011,5.982,5.982,0,0,0-1.06-.3.2.2,0,0,1-.125-.074.189.189,0,0,1-.033-.14.193.193,0,0,1,.217-.162,6.8,6.8,0,0,1,1.13.324.188.188,0,0,1-.066.364Z" transform="translate(-1251.21 -153.146)" fill="#322a20"/>
              <path id="パス_89244" data-name="パス 89244" d="M1301.971,175.306a.188.188,0,0,1-.188-.187v-.28c0-.254,0-.507-.011-.758v-.011a.187.187,0,0,1,.184-.184h0a.188.188,0,0,1,.188.184c.011.254.015.512.015.769,0,.048,0,.092,0,.14v.14A.188.188,0,0,1,1301.971,175.306Zm-.07-2.174a.189.189,0,0,1-.188-.173c-.025-.364-.058-.729-.1-1.126v-.018a.182.182,0,0,1,.165-.188.192.192,0,0,1,.21.165c.044.386.077.769.1,1.137a.19.19,0,0,1-.173.2Zm-.25-2.255a.183.183,0,0,1-.184-.162c-.051-.349-.11-.714-.184-1.111a.154.154,0,0,1,0-.04.19.19,0,0,1,.375-.033v0a.044.044,0,0,1,0,.018c.066.368.129.739.18,1.107a.193.193,0,0,1-.158.217Zm-.4-2.233a.186.186,0,0,1-.184-.147c-.073-.342-.15-.692-.25-1.1v-.007a.142.142,0,0,1-.007-.044.191.191,0,0,1,.376-.04c.092.39.176.754.25,1.111a.18.18,0,0,1-.026.143.176.176,0,0,1-.118.081A.142.142,0,0,1,1301.249,168.643Zm-.533-2.2a.193.193,0,0,1-.184-.14c-.073-.265-.137-.493-.181-.64s-.088-.305-.133-.442a.148.148,0,0,1-.011-.055.19.19,0,0,1,.371-.059c.044.14.089.287.136.452.059.2.118.42.18.644a.18.18,0,0,1-.018.144.182.182,0,0,1-.114.088A.116.116,0,0,1,1300.716,166.439Zm-.695-2.156a.2.2,0,0,1-.181-.122c-.136-.346-.287-.692-.449-1.019v0a.234.234,0,0,1-.022-.085.2.2,0,0,1,.107-.169.193.193,0,0,1,.254.088c.163.328.32.681.464,1.049a.188.188,0,0,1-.107.246A.209.209,0,0,1,1300.021,164.284Zm-1-2.035a.191.191,0,0,1-.162-.092c-.191-.324-.4-.637-.615-.935a.175.175,0,0,1-.037-.114.192.192,0,0,1,.077-.151.2.2,0,0,1,.265.044c.22.3.434.626.636.96a.19.19,0,0,1-.066.258A.184.184,0,0,1,1299.02,162.249Zm-1.332-1.832a.193.193,0,0,1-.143-.063,10.669,10.669,0,0,0-.78-.8.19.19,0,0,1-.011-.265.2.2,0,0,1,.268-.011,10.66,10.66,0,0,1,.806.824.181.181,0,0,1,.047.136.186.186,0,0,1-.062.129A.2.2,0,0,1,1297.688,160.417Z" transform="translate(-1258.678 -154.021)" fill="#322a20"/>
              <path id="パス_89245" data-name="パス 89245" d="M1245.712,277.554a.338.338,0,0,1-.333-.282c-.015-.089-1.482-8.937-.841-14.843.535-4.924.82-5.147.957-5.254a.369.369,0,0,1,.263-.073.338.338,0,0,1,.2.569,24.675,24.675,0,0,0-.747,4.832c-.631,5.813.821,14.57.836,14.658a.338.338,0,0,1-.278.389A.313.313,0,0,1,1245.712,277.554Zm-.045-19.782a.326.326,0,0,0,.141-.01A.343.343,0,0,1,1245.667,257.772Z" transform="translate(-1232.425 -203.121)" fill="#c3a696"/>
              <path id="パス_89246" data-name="パス 89246" d="M1307.965,284.522a.36.36,0,0,1-.046,0,.338.338,0,0,1-.289-.38c.023-.166,2.249-16.7,1.43-21.617l-.838-5.028a.338.338,0,1,1,.667-.111l.838,5.028c.837,5.021-1.334,21.135-1.427,21.819A.338.338,0,0,1,1307.965,284.522Z" transform="translate(-1264.158 -203.121)" fill="#c3a696"/>
              <path id="パス_89247" data-name="パス 89247" d="M1254.761,202.838a1.982,1.982,0,0,0,.078-.666.17.17,0,0,0-.136-.119.236.236,0,0,0-.177.1,1.816,1.816,0,0,0-.246.363c-.086-.117-.1-.3-.231-.356a.227.227,0,0,0-.257.113.671.671,0,0,0-.07.293.658.658,0,0,1-.247-.112.27.27,0,0,0-.259-.032.213.213,0,0,0-.08.24.623.623,0,0,0,.142.23.712.712,0,0,0-.344.044.119.119,0,0,0-.074.058.229.229,0,0,0,.065.214c.141.089.3.106.445.194a.706.706,0,0,0-.4.26.116.116,0,0,0-.031.107c.015.043.069.055.114.062l.323.046a.416.416,0,0,0-.241.28.207.207,0,0,0,.042.2.222.222,0,0,0,.185.037.209.209,0,1,1,.361.138.213.213,0,0,0,.254.126.312.312,0,0,0,.136-.159l.169-.325a.478.478,0,0,0,.366.2.271.271,0,0,0,.152-.005.194.194,0,0,0,.1-.2.563.563,0,0,0-.093-.219c.159,0,.35-.028.415-.173s-.073-.331-.232-.391a.785.785,0,0,0,.322-.422C1255.375,202.756,1254.761,202.838,1254.761,202.838Z" transform="translate(-1236.678 -175.504)" fill="#d8dbdb"/>
              <path id="パス_89248" data-name="パス 89248" d="M1255.1,203.929c.049.134.444-.011.183-.146a.135.135,0,0,0-.184.084A.1.1,0,0,0,1255.1,203.929Z" transform="translate(-1237.801 -176.366)" fill="#8d683c"/>
              <path id="パス_89249" data-name="パス 89249" d="M1254.617,204.462c.049.134.444-.012.183-.146a.135.135,0,0,0-.183.085A.1.1,0,0,0,1254.617,204.462Z" transform="translate(-1237.561 -176.633)" fill="#8d683c"/>
              <path id="パス_89250" data-name="パス 89250" d="M1254.977,205.071c.049.135.444-.011.183-.145a.135.135,0,0,0-.184.085A.107.107,0,0,0,1254.977,205.071Z" transform="translate(-1237.741 -176.939)" fill="#8d683c"/>
              <path id="パス_89251" data-name="パス 89251" d="M1255.715,204.907c.049.134.444-.011.183-.145a.135.135,0,0,0-.184.085A.107.107,0,0,0,1255.715,204.907Z" transform="translate(-1238.111 -176.857)" fill="#8d683c"/>
              <path id="パス_89252" data-name="パス 89252" d="M1255.709,204.273c.049.134.443-.011.183-.146a.135.135,0,0,0-.184.085A.1.1,0,0,0,1255.709,204.273Z" transform="translate(-1238.108 -176.539)" fill="#8d683c"/>
              <path id="パス_89253" data-name="パス 89253" d="M1279.21,239.146s-2.631-3.626-3.742-2.924-4.385,2.865-7.719,2.514-5.029-3.509-6.081-2.982a9.467,9.467,0,0,0-3.1,3.216c-.292.76,5.73,8.654,8.245,8.888a12.281,12.281,0,0,0,7.661-1.988C1276.345,244.467,1279.21,239.146,1279.21,239.146Z" transform="translate(-1239.54 -192.383)" fill="#e4c7bc"/>
              <path id="パス_89254" data-name="パス 89254" d="M1269.876,248.484c-4.376,0-9.631-3.19-9.872-3.338a.338.338,0,0,1,.353-.577c.062.038,6.278,3.814,10.581,3.163a19.6,19.6,0,0,0,7.622-2.98.338.338,0,0,1,.394.549,19.909,19.909,0,0,1-7.915,3.1A7.755,7.755,0,0,1,1269.876,248.484Z" transform="translate(-1240.184 -196.81)" fill="#c3a696"/>
              <path id="パス_89255" data-name="パス 89255" d="M1223.566,288.758a.192.192,0,0,1-.044,0,.184.184,0,0,1-.134-.223c1.178-4.785,2.341-10.321,3.465-15.675,1.271-6.05,2.584-12.306,3.956-17.671a5.478,5.478,0,0,1,1.18-2.574.184.184,0,1,1,.262.259,5.118,5.118,0,0,0-1.085,2.407c-1.37,5.356-2.683,11.608-3.953,17.655-1.125,5.357-2.288,10.9-3.469,15.688A.183.183,0,0,1,1223.566,288.758Z" transform="translate(-1221.892 -200.841)" fill="#ead4cb"/>
              <path id="パス_89256" data-name="パス 89256" d="M1228.48,288.7a.181.181,0,0,1-.056-.009.184.184,0,0,1-.12-.231,10.372,10.372,0,0,0,.383-2.381,10.669,10.669,0,0,1,.4-2.464c.852-2.675,1.732-5.441,2.376-8.219.433-1.867.772-3.794,1.1-5.659a53.865,53.865,0,0,1,2.787-11.127.184.184,0,1,1,.34.14,53.626,53.626,0,0,0-2.765,11.051c-.329,1.869-.669,3.8-1.1,5.678-.647,2.792-1.53,5.566-2.384,8.248a10.433,10.433,0,0,0-.383,2.382,10.687,10.687,0,0,1-.4,2.464A.184.184,0,0,1,1228.48,288.7Z" transform="translate(-1224.357 -203.82)" fill="#ead4cb"/>
              <path id="パス_89257" data-name="パス 89257" d="M1234.241,295.722a.184.184,0,0,1-.161-.274c1.3-2.322,2.293-6.939,3.168-11.013.415-1.927.805-3.747,1.205-5.242a.186.186,0,0,1,.225-.13.184.184,0,0,1,.131.225c-.4,1.486-.788,3.3-1.2,5.224-.88,4.1-1.879,8.745-3.206,11.115A.183.183,0,0,1,1234.241,295.722Z" transform="translate(-1227.248 -214.137)" fill="#ead4cb"/>
              <path id="パス_89258" data-name="パス 89258" d="M1250.084,270.56a.184.184,0,0,1-.184-.177c-.146-4.44-.288-15.523,1.528-22.535a.184.184,0,1,1,.356.092c-1.8,6.966-1.662,18.007-1.517,22.431a.184.184,0,0,1-.177.19Z" transform="translate(-1235.157 -198.41)" fill="#ead4cb"/>
              <path id="パス_89259" data-name="パス 89259" d="M1255.412,269.161a.184.184,0,0,1-.182-.165c-.6-5.943.665-14.119,2.045-19.79a.184.184,0,1,1,.357.087c-1.372,5.641-2.628,13.769-2.036,19.666a.184.184,0,0,1-.164.2Z" transform="translate(-1237.794 -199.09)" fill="#ead4cb"/>
              <path id="パス_89260" data-name="パス 89260" d="M1257.962,327.833a.184.184,0,0,1-.184-.182c-.019-1.947.12-5.04.254-8.032s.271-6.075.253-8.011a.184.184,0,0,1,.182-.186h0a.183.183,0,0,1,.184.182c.019,1.947-.119,5.04-.254,8.032s-.272,6.074-.253,8.011a.184.184,0,0,1-.182.186Z" transform="translate(-1239.148 -230.374)" fill="#ead4cb"/>
              <path id="パス_89261" data-name="パス 89261" d="M1264.578,298.994a.184.184,0,0,1-.182-.164c-.556-5.128-.9-10.547-1.022-16.106-.093-4.2.1-8.457.286-12.577l.716-15.819a.172.172,0,0,1,.192-.176.184.184,0,0,1,.175.192l-.715,15.81c-.186,4.123-.379,8.378-.286,12.561.122,5.55.465,10.958,1.02,16.075a.185.185,0,0,1-.163.2Z" transform="translate(-1241.944 -201.642)" fill="#ead4cb"/>
              <path id="パス_89262" data-name="パス 89262" d="M1273.037,299.314a.184.184,0,0,1-.182-.161l-.079-.636a.185.185,0,0,1,.069-.167c-.08-6.942-.205-14.484-.326-21.785-.126-7.577-.255-15.412-.335-22.57a.184.184,0,0,1,.368,0c.079,7.156.209,14.991.335,22.568s.256,15.413.335,22.57a.185.185,0,0,1-.171.186Z" transform="translate(-1246.376 -201.469)" fill="#ead4cb"/>
              <path id="パス_89263" data-name="パス 89263" d="M1281.84,299.526a.2.2,0,0,1-.129-.047.184.184,0,0,1-.028-.245c.029-.182.04-.831.044-1.086,0-.136,0-.234.006-.258.62-6.974.184-14.664-.237-22.1a170.356,170.356,0,0,1-.354-20.451.19.19,0,0,1,.2-.171.184.184,0,0,1,.171.2,170.144,170.144,0,0,0,.354,20.406c.422,7.45.859,15.154.236,22.154,0,.023,0,.112-.005.232-.022,1.287-.05,1.3-.181,1.357A.189.189,0,0,1,1281.84,299.526Z" transform="translate(-1250.775 -202.151)" fill="#ead4cb"/>
              <path id="パス_89264" data-name="パス 89264" d="M1290.855,298.607h-.007a.183.183,0,0,1-.177-.19c.039-1.181.153-2.984.286-5.072.274-4.313.649-10.22.581-14.427q-.017-1.079-.031-2.159c-.051-3.595-.1-7.312-.348-10.957-.059-.872-.129-1.745-.2-2.618a58.621,58.621,0,0,1-.245-9.393.188.188,0,0,1,.2-.168.183.183,0,0,1,.168.2,58.282,58.282,0,0,0,.245,9.333c.07.874.14,1.749.2,2.622.245,3.655.3,7.377.348,10.977q.015,1.079.031,2.158c.068,4.221-.307,10.137-.581,14.456-.132,2.085-.247,3.886-.285,5.061A.184.184,0,0,1,1290.855,298.607Z" transform="translate(-1255.62 -201.377)" fill="#ead4cb"/>
              <path id="パス_89265" data-name="パス 89265" d="M1297.785,296.887h-.008a.184.184,0,0,1-.175-.192c.4-8.884.519-17.892.366-26.774-.026-1.518-.01-3.2.007-4.981.046-4.864.1-10.378-.71-14.468a.184.184,0,1,1,.361-.071c.815,4.126.762,9.66.717,14.542-.017,1.778-.033,3.458-.007,4.971.153,8.89.029,17.906-.367,26.8A.184.184,0,0,1,1297.785,296.887Z" transform="translate(-1258.957 -199.685)" fill="#ead4cb"/>
              <path id="パス_89266" data-name="パス 89266" d="M1317.341,298.078a.183.183,0,0,1-.156-.087c-.886-1.429-1.1-4.658-1.242-6.795-.025-.363-.046-.693-.069-.974-.312-3.864-.4-8.672-.5-13.762-.181-9.515-.367-19.353-2.008-24.442a.184.184,0,0,1,.35-.113c1.658,5.14,1.845,15.006,2.026,24.548.1,5.085.187,9.887.5,13.74.023.283.045.614.069.979.14,2.1.351,5.275,1.188,6.625a.184.184,0,0,1-.156.281Z" transform="translate(-1267.033 -200.451)" fill="#ead4cb"/>
              <path id="パス_89267" data-name="パス 89267" d="M1313.484,319.1a.184.184,0,0,1-.181-.155,151.413,151.413,0,0,1-1.135-26.326.193.193,0,0,1,.2-.17.184.184,0,0,1,.17.2,150.856,150.856,0,0,0,1.131,26.242.184.184,0,0,1-.153.211Z" transform="translate(-1266.349 -220.853)" fill="#ead4cb"/>
              <path id="パス_89268" data-name="パス 89268" d="M1322.766,303.6a.183.183,0,0,1-.182-.16c-.138-1.08-.382-2.53-.641-4.065a66.572,66.572,0,0,1-1.154-9.1c0-4.273-.657-21.322-1.162-27.122a.184.184,0,0,1,.367-.032c.505,5.807,1.167,22.877,1.163,27.154a66.622,66.622,0,0,0,1.148,9.035c.26,1.538.5,2.992.643,4.079a.184.184,0,0,1-.159.206Z" transform="translate(-1270.178 -206.061)" fill="#ead4cb"/>
              <path id="パス_89269" data-name="パス 89269" d="M1291.442,243.321a.184.184,0,0,1-.179-.141,12.614,12.614,0,0,0-1.125-2.979.184.184,0,1,1,.324-.172,12.956,12.956,0,0,1,1.158,3.066.184.184,0,0,1-.179.227Z" transform="translate(-1255.373 -194.507)" fill="#ead4cb"/>
              <path id="パス_89270" data-name="パス 89270" d="M1294.335,241.8a.172.172,0,0,1-.164-.125,9.9,9.9,0,0,0-1.122-2.555.171.171,0,0,1,.29-.179,10.281,10.281,0,0,1,1.161,2.644.171.171,0,0,1-.119.21A.16.16,0,0,1,1294.335,241.8Z" transform="translate(-1256.831 -193.969)" fill="#ead4cb"/>
              <path id="パス_89271" data-name="パス 89271" d="M1287.324,244.612a.184.184,0,0,1-.184-.175,10.975,10.975,0,0,0-.489-2.722.184.184,0,0,1,.351-.11,11.358,11.358,0,0,1,.5,2.814.184.184,0,0,1-.175.193Z" transform="translate(-1253.63 -195.283)" fill="#ead4cb"/>
              <path id="パス_89272" data-name="パス 89272" d="M1282.988,245.78a.184.184,0,0,1-.184-.178l-.091-2.617a.184.184,0,0,1,.177-.19.188.188,0,0,1,.191.177l.09,2.617a.184.184,0,0,1-.177.19Z" transform="translate(-1251.658 -195.944)" fill="#ead4cb"/>
              <path id="パス_89273" data-name="パス 89273" d="M1277.844,246.041a.188.188,0,0,1-.033,0,.184.184,0,0,1-.148-.214,10.584,10.584,0,0,0,.127-2.825.184.184,0,1,1,.367-.033,10.966,10.966,0,0,1-.132,2.924A.183.183,0,0,1,1277.844,246.041Z" transform="translate(-1249.124 -195.946)" fill="#ead4cb"/>
              <path id="パス_89274" data-name="パス 89274" d="M1272.839,244.966a.184.184,0,0,1-.165-.265,6.6,6.6,0,0,0,.669-2.907.184.184,0,0,1,.183-.184h0a.184.184,0,0,1,.184.183,6.982,6.982,0,0,1-.706,3.069A.185.185,0,0,1,1272.839,244.966Z" transform="translate(-1246.612 -195.35)" fill="#ead4cb"/>
              <path id="パス_89275" data-name="パス 89275" d="M1268.714,243.364a.184.184,0,0,1-.13-.314,2.876,2.876,0,0,0,.823-2.254.184.184,0,0,1,.366-.031,3.247,3.247,0,0,1-.929,2.546A.182.182,0,0,1,1268.714,243.364Z" transform="translate(-1244.543 -194.841)" fill="#ead4cb"/>
              <path id="パス_89276" data-name="パス 89276" d="M1264.524,242.222a.182.182,0,0,1-.079-.017.184.184,0,0,1-.088-.245c.406-.856.854-1.7,1.33-2.522a.184.184,0,0,1,.318.185c-.471.809-.913,1.648-1.314,2.495A.186.186,0,0,1,1264.524,242.222Z" transform="translate(-1242.441 -194.214)" fill="#ead4cb"/>
              <path id="パス_89277" data-name="パス 89277" d="M1261.353,240.611h-.016a.184.184,0,0,1-.167-.2c.1-1.211,1.123-3.295,2.024-3.377a.184.184,0,0,1,.033.367c-.593.053-1.589,1.844-1.691,3.041A.184.184,0,0,1,1261.353,240.611Z" transform="translate(-1240.85 -193.054)" fill="#ead4cb"/>
              <path id="パス_89278" data-name="パス 89278" d="M1303.423,279.653a.183.183,0,0,1-.182-.162,49.372,49.372,0,0,1,.434-11.419c.225-1.941.458-3.948.562-5.921.164-3.081-.568-7.518-1.155-11.084-.145-.882-.283-1.715-.4-2.467a.184.184,0,1,1,.363-.055c.114.75.251,1.582.4,2.463.59,3.583,1.325,8.042,1.16,11.163-.1,1.984-.338,4-.564,5.944a49.117,49.117,0,0,0-.434,11.334.183.183,0,0,1-.161.2Z" transform="translate(-1261.677 -198.75)" fill="#ead4cb"/>
              <path id="パス_89279" data-name="パス 89279" d="M1260.74,266.879a15.8,15.8,0,0,1,.509-2.147,5.369,5.369,0,0,0,.274-2.469c-.068-.468-.629-1.722-1.205-.933a1.271,1.271,0,0,0-.18.5,32.481,32.481,0,0,1-1.456,4.94,39.117,39.117,0,0,0-1.7,4.141,14.094,14.094,0,0,0-.184,2.355,3.558,3.558,0,0,1-.777,1.775,11.581,11.581,0,0,1-2.8,3.4,2.889,2.889,0,0,0-.635,1.1c-.066.648,1.715,4.975,3.806,2.884,2.48-2.48,3.518-3.972,4.152-4.325,1.038-.577,2.867-1.722,2.942-1.788,3.229-2.884,6.247-5.542,9.308-8.8.462-.492.961-1.118.781-1.769-.939-.8-3.637,2.737-5.523,4.076.935-1.155,4.8-4.864,5.087-5.34a.752.752,0,0,0-.115-.777c-.346-.216-.916.01-1.441.432-.709.57-3.87,3.535-5,4.258,1.1-1.545,6.49-6.752,5.91-8.072a.438.438,0,0,0-.555-.279,4.785,4.785,0,0,0-1.335.629s.238-.952-.464-.8a2.6,2.6,0,0,0-.868.351C1266.324,262.126,1261.46,266.352,1260.74,266.879Z" transform="translate(-1236.542 -204.504)" fill="#edbf98"/>
              <path id="パス_89280" data-name="パス 89280" d="M1225.62,308.365l16.125-19.788,5.488,5.066-15.038,18.816Z" transform="translate(-1223.015 -218.913)" fill="#e4c7bc"/>
              <path id="パス_89281" data-name="パス 89281" d="M1276.669,267.967a.338.338,0,0,1-.243-.574l5.473-5.632a.338.338,0,1,1,.485.471l-5.473,5.632A.337.337,0,0,1,1276.669,267.967Z" transform="translate(-1248.457 -205.408)" fill="#c48e61"/>
              <path id="パス_89282" data-name="パス 89282" d="M1226.461,306.563a.338.338,0,0,1-.248-.568l15.621-16.8a.338.338,0,1,1,.495.46l-15.62,16.8A.337.337,0,0,1,1226.461,306.563Z" transform="translate(-1223.267 -219.168)" fill="#c3a696"/>
              <path id="パス_89283" data-name="パス 89283" d="M1252.555,308.537a.338.338,0,0,1-.269-.543l7.346-9.626a.338.338,0,0,1,.538.41l-7.346,9.626A.337.337,0,0,1,1252.555,308.537Z" transform="translate(-1236.359 -223.758)" fill="#c3a696"/>
              <path id="パス_89284" data-name="パス 89284" d="M1222.732,313.8a.177.177,0,0,1-.066-.012.185.185,0,0,1-.106-.238,13.239,13.239,0,0,1,3.6-4.59l.122-.116a177.7,177.7,0,0,0,14.79-16.163.184.184,0,0,1,.288.229,178.124,178.124,0,0,1-14.824,16.2l-.123.117a12.956,12.956,0,0,0-3.51,4.455A.184.184,0,0,1,1222.732,313.8Z" transform="translate(-1221.474 -220.939)" fill="#ead4cb"/>
              <path id="パス_89285" data-name="パス 89285" d="M1227.227,316.336a.184.184,0,0,1-.143-.3c5.4-6.7,12.6-14.928,17.686-20.651a.184.184,0,0,1,.276.245c-5.083,5.72-12.276,13.943-17.675,20.637A.185.185,0,0,1,1227.227,316.336Z" transform="translate(-1223.729 -222.298)" fill="#ead4cb"/>
              <path id="パス_89286" data-name="パス 89286" d="M1231.019,319.024a.184.184,0,0,1-.135-.309c2.572-2.772,5.392-6.469,8.119-10.044,2.881-3.777,5.859-7.681,8.6-10.578a.184.184,0,0,1,.267.253c-2.728,2.882-5.7,6.779-8.576,10.548-2.733,3.582-5.558,7.286-8.143,10.071A.183.183,0,0,1,1231.019,319.024Z" transform="translate(-1225.631 -223.659)" fill="#ead4cb"/>
            </g>
          </g>
          <path id="パス_89287" data-name="パス 89287" d="M1278.917,214.393a.9.9,0,0,1-.8.972.87.87,0,0,1-.886-.867.9.9,0,0,1,.8-.973A.871.871,0,0,1,1278.917,214.393Z" transform="translate(-1191.644 -162.896)" fill="#d21337"/>
          <path id="パス_89288" data-name="パス 89288" d="M1199.028,184.05a.9.9,0,0,1-.8.972.87.87,0,0,1-.887-.867.9.9,0,0,1,.8-.973A.87.87,0,0,1,1199.028,184.05Z" transform="translate(-1151.564 -147.673)" fill="#d21337"/>
        </g>
        <path id="パス_89289" data-name="パス 89289" d="M1324.776,152.892a2.187,2.187,0,0,1-.933-.2.6.6,0,0,1,.513-1.088,1.12,1.12,0,0,0,1.092-.123,2.5,2.5,0,0,1-.7-.542,1.4,1.4,0,0,1-.1-1.914,1.1,1.1,0,0,1,1.6-.078,2.6,2.6,0,0,1,.67,1.661,1.852,1.852,0,0,0,.312-.045,2.781,2.781,0,0,0,1.433-.94,8.664,8.664,0,0,1-3.306-2.253,2.727,2.727,0,0,1-.883-2.5,2.422,2.422,0,0,1,2.192-1.679,3.888,3.888,0,0,1,3.842,2.507,4.6,4.6,0,0,1-.045,3.192,7.192,7.192,0,0,0,1.857.1c2.637-.2,4.4-1.254,5.233-3.126a6.047,6.047,0,0,0,.444-1.551,19.66,19.66,0,0,1-4.534-.143c-3.783-.558-8.081-2.89-9.158-6.84a5.375,5.375,0,0,1,1.139-5.065,5.2,5.2,0,0,1,4.831-1.587,9.692,9.692,0,0,1,5.9,3.82,15.116,15.116,0,0,1,3.108,8.417c2.035-.376,3.934-1.218,4.885-2.857,1.517-2.613.641-6.2-.57-8.479-2.511-4.722-6.943-8.479-11.292-9.572a.6.6,0,0,1,.292-1.166c4.664,1.173,9.4,5.166,12.061,10.174,1.421,2.673,2.311,6.611.548,9.647-1.172,2.02-3.464,3.073-5.981,3.495a7.407,7.407,0,0,1-.581,2.2c-.707,1.586-2.363,3.539-6.239,3.835a8.481,8.481,0,0,1-2.522-.195c-.045.065-.091.13-.14.192a4.066,4.066,0,0,1-2.245,1.542,3.067,3.067,0,0,1-.785.079,1.4,1.4,0,0,1-.175.274A2.31,2.31,0,0,1,1324.776,152.892Zm.781-3.061Zm1.415-5.454c-.063,0-.127,0-.19.009a1.268,1.268,0,0,0-1.139.769,1.793,1.793,0,0,0,.609,1.407,7.478,7.478,0,0,0,3.047,2.014,3.4,3.4,0,0,0,.086-2.455A2.726,2.726,0,0,0,1326.972,144.377Zm2.315-12.582a3.925,3.925,0,0,0-2.951,1.279,4.18,4.18,0,0,0-.869,3.941c.933,3.426,4.777,5.466,8.173,5.967a18.824,18.824,0,0,0,4.445.1,13.958,13.958,0,0,0-2.857-7.853,8.5,8.5,0,0,0-5.155-3.369A4.672,4.672,0,0,0,1329.288,131.8Z" transform="translate(-111.383 17.444)"/>
      </g>
    </g>
  </g>
</svg>
