<svg xmlns="http://www.w3.org/2000/svg" xmlns:xlink="http://www.w3.org/1999/xlink" width="140" height="140" viewBox="0 0 140 140">
  <defs>
    <clipPath id="clip-path">
      <circle id="楕円形_462" data-name="楕円形 462" cx="70" cy="70" r="70" transform="translate(0 0.477)" fill="#f7f3e5"/>
    </clipPath>
  </defs>
  <g id="demerit_obj11" transform="translate(0 -0.477)">
    <circle id="楕円形_23" data-name="楕円形 23" cx="70" cy="70" r="70" transform="translate(0 0.477)" fill="#f7f3e5"/>
    <g id="マスクグループ_76" data-name="マスクグループ 76" clip-path="url(#clip-path)">
      <g id="グループ_15294" data-name="グループ 15294" transform="translate(-40.174 9.108)">
        <g id="グループ_14756" data-name="グループ 14756" transform="translate(75.966 6.541)">
          <g id="グループ_14743" data-name="グループ 14743" transform="translate(0 0)">
            <g id="グループ_14740" data-name="グループ 14740">
              <path id="パス_83973" data-name="パス 83973" d="M363.455,25.131a7.575,7.575,0,0,0-10.5-6.984,8.436,8.436,0,0,0-8.394-7.606c-2.938,0-6.623,2.876-7.465,6.141a7.572,7.572,0,0,0-8.066,11.813,8.421,8.421,0,0,0,7.633,14.471c.527,3.668,4.951,6.35,7.9,6.35a7.573,7.573,0,0,0,7.36-5.8,8.254,8.254,0,0,0,9.019-12.753A7.552,7.552,0,0,0,363.455,25.131Z" transform="translate(-325.641 -9.995)" fill="#fff"/>
              <path id="パス_83974" data-name="パス 83974" d="M341.1,46.407a9.281,9.281,0,0,1-5.18-1.905,7.9,7.9,0,0,1-3.147-4.34,8.965,8.965,0,0,1-7.922-15.2,8.119,8.119,0,0,1,6.8-12.545,8.133,8.133,0,0,1,1.6.16c1.11-3.221,4.7-6.038,7.839-6.038a8.941,8.941,0,0,1,8.842,7.4A8.118,8.118,0,0,1,358.2,27.387a8.8,8.8,0,0,1-9.348,13.341A8.088,8.088,0,0,1,341.1,46.407Zm-7.9-7.442a.546.546,0,0,1,.54.468c.49,3.412,4.735,5.882,7.358,5.882a7,7,0,0,0,6.83-5.378.546.546,0,0,1,.684-.4,7.708,7.708,0,0,0,8.423-11.91.546.546,0,0,1,.078-.726A7.027,7.027,0,0,0,349.71,15.2a.546.546,0,0,1-.754-.45A7.856,7.856,0,0,0,341.1,7.632c-2.806,0-6.177,2.785-6.936,5.731a.546.546,0,0,1-.671.391,7.027,7.027,0,0,0-8.863,6.782,6.969,6.969,0,0,0,1.378,4.178.546.546,0,0,1-.077.733,7.875,7.875,0,0,0,7.138,13.533A.541.541,0,0,1,333.206,38.965Z" transform="translate(-322.187 -6.541)" fill="#ccc"/>
            </g>
            <g id="グループ_14741" data-name="グループ 14741" transform="translate(9.061 41.159)">
              <circle id="楕円形_463" data-name="楕円形 463" cx="3.521" cy="3.521" r="3.521" transform="translate(0 6.505) rotate(-67.5)" fill="#fff"/>
              <path id="パス_83975" data-name="パス 83975" d="M396.574,320.257a4.066,4.066,0,1,1,4.066-4.066A4.071,4.071,0,0,1,396.574,320.257Zm0-7.041a2.975,2.975,0,1,0,2.975,2.975A2.978,2.978,0,0,0,396.574,313.215Z" transform="translate(-391.974 -311.59)" fill="#ccc"/>
            </g>
            <g id="グループ_14742" data-name="グループ 14742" transform="translate(4.484 51.609)">
              <circle id="楕円形_464" data-name="楕円形 464" cx="1.873" cy="1.873" r="1.873" transform="translate(0.546 0.546)" fill="#fff"/>
              <path id="パス_83976" data-name="パス 83976" d="M357.469,389.651a2.419,2.419,0,1,1,2.419-2.419A2.422,2.422,0,0,1,357.469,389.651Zm0-3.746a1.327,1.327,0,1,0,1.327,1.328A1.329,1.329,0,0,0,357.469,385.9Z" transform="translate(-355.05 -384.813)" fill="#ccc"/>
            </g>
          </g>
          <g id="グループ_14755" data-name="グループ 14755" transform="translate(9.026 8.956)">
            <g id="グループ_14744" data-name="グループ 14744">
              <ellipse id="楕円形_465" data-name="楕円形 465" cx="10.167" cy="11.045" rx="10.167" ry="11.045"/>
            </g>
            <g id="グループ_14747" data-name="グループ 14747" transform="translate(3.195 7.599)">
              <g id="グループ_14745" data-name="グループ 14745">
                <path id="パス_83977" data-name="パス 83977" d="M417.152,130.236c-.483,1.079-2.051,1.427-3.5.777s-2.236-2.051-1.752-3.13Z" transform="translate(-411.755 -127.882)" fill="#fff"/>
              </g>
              <g id="グループ_14746" data-name="グループ 14746" transform="translate(8.547)">
                <path id="パス_83978" data-name="パス 83978" d="M474.4,130.236c.483,1.079,2.051,1.427,3.5.777s2.236-2.051,1.752-3.13Z" transform="translate(-474.399 -127.882)" fill="#fff"/>
              </g>
            </g>
            <g id="グループ_14748" data-name="グループ 14748" transform="translate(4.598 13.208)">
              <path id="パス_83979" data-name="パス 83979" d="M427.619,170.758a8.388,8.388,0,0,1-5.368-1.765,2.788,2.788,0,0,0-.214,1.052c0,2.142,2.5,3.878,5.581,3.878s5.581-1.736,5.581-3.878a2.785,2.785,0,0,0-.214-1.052A8.388,8.388,0,0,1,427.619,170.758Z" transform="translate(-422.038 -168.993)" fill="#fff"/>
            </g>
            <g id="グループ_14754" data-name="グループ 14754" transform="translate(5.727 13.519)">
              <g id="グループ_14749" data-name="グループ 14749" transform="translate(2.047 0.478)">
                <path id="パス_83980" data-name="パス 83980" d="M445.586,179.773a.273.273,0,0,1-.273-.273v-4.457a.273.273,0,1,1,.546,0V179.5A.273.273,0,0,1,445.586,179.773Z" transform="translate(-445.313 -174.77)"/>
              </g>
              <g id="グループ_14750" data-name="グループ 14750" transform="translate(0 0.136)">
                <path id="パス_83981" data-name="パス 83981" d="M430.586,177.273a.273.273,0,0,1-.273-.273v-4.457a.273.273,0,1,1,.546,0V177A.273.273,0,0,1,430.586,177.273Z" transform="translate(-430.313 -172.27)"/>
              </g>
              <g id="グループ_14751" data-name="グループ 14751" transform="translate(4.093 0.478)">
                <path id="パス_83982" data-name="パス 83982" d="M460.586,179.773a.273.273,0,0,1-.273-.273v-4.457a.273.273,0,0,1,.546,0V179.5A.273.273,0,0,1,460.586,179.773Z" transform="translate(-460.313 -174.77)"/>
              </g>
              <g id="グループ_14752" data-name="グループ 14752" transform="translate(6.14 0.478)">
                <path id="パス_83983" data-name="パス 83983" d="M475.586,179.773a.273.273,0,0,1-.273-.273v-4.457a.273.273,0,1,1,.546,0V179.5A.273.273,0,0,1,475.586,179.773Z" transform="translate(-475.313 -174.77)"/>
              </g>
              <g id="グループ_14753" data-name="グループ 14753" transform="translate(8.186)">
                <path id="パス_83984" data-name="パス 83984" d="M490.586,176.273a.273.273,0,0,1-.273-.273v-4.457a.273.273,0,0,1,.546,0V176A.273.273,0,0,1,490.586,176.273Z" transform="translate(-490.313 -171.27)"/>
              </g>
            </g>
          </g>
        </g>
        <g id="グループ_14760" data-name="グループ 14760" transform="translate(37.066 67.805)">
          <g id="グループ_14759" data-name="グループ 14759">
            <g id="グループ_14757" data-name="グループ 14757">
              <path id="パス_83985" data-name="パス 83985" d="M37.066,459.546l18.221-3.97h1.9l7.854,28.666,20.727,5.423-.031,2.132s-19.888,10.3-20.369,10.536a1.013,1.013,0,0,1-.9.069L39.8,491.987Z" transform="translate(-37.066 -455.575)" fill="#65919b"/>
            </g>
            <g id="グループ_14758" data-name="グループ 14758" transform="translate(1.001)">
              <path id="パス_83986" data-name="パス 83986" d="M44.4,460.034l19.116-4.459,6.49,25.937L92.1,489.663s-19.508,9.489-20.349,9.926a1.189,1.189,0,0,1-1.088.019l-23.237-9.025Z" transform="translate(-44.4 -455.575)" fill="#8dc6d3"/>
            </g>
          </g>
        </g>
        <g id="グループ_14765" data-name="グループ 14765" transform="translate(57.659 98.833)">
          <g id="グループ_14762" data-name="グループ 14762" transform="translate(6.519)">
            <g id="グループ_14761" data-name="グループ 14761">
              <path id="パス_83987" data-name="パス 83987" d="M235.779,686.684,252.8,695.57l4.041-3.906L240.061,683Z" transform="translate(-235.779 -683)" fill="#677e8c"/>
            </g>
          </g>
          <g id="グループ_14764" data-name="グループ 14764" transform="translate(0 3.684)">
            <g id="グループ_14763" data-name="グループ 14763">
              <path id="パス_83988" data-name="パス 83988" d="M188,713.246l11.248,8.552,4.882-3.071L194.519,710Z" transform="translate(-188 -710)" fill="#677e8c"/>
            </g>
          </g>
        </g>
        <g id="グループ_14766" data-name="グループ 14766" transform="translate(56.84 62.554)">
          <rect id="長方形_29933" data-name="長方形 29933" width="10.452" height="3.072" transform="translate(0.229 0) rotate(4.284)" fill="#ffd39f"/>
        </g>
        <g id="グループ_14767" data-name="グループ 14767" transform="translate(59.577 57.046)">
          <path id="パス_83989" data-name="パス 83989" d="M207.162,386.963l-5.1-.382,1.553-9.86,3.48.261Z" transform="translate(-202.063 -376.721)" fill="#ffd39f"/>
        </g>
        <g id="グループ_14776" data-name="グループ 14776" transform="translate(48.621 29.502)">
          <g id="グループ_14775" data-name="グループ 14775" transform="translate(0)">
            <g id="グループ_14768" data-name="グループ 14768" transform="translate(2.748 2.801)">
              <path id="パス_83990" data-name="パス 83990" d="M165.274,208.538c-.206,6.843-3.284,14.205-12.073,13.539-8.472-.642-11.5-7.371-11.291-14.213s5.525-12.675,11.725-12.5C163.739,195.644,165.481,201.7,165.274,208.538Z" transform="translate(-141.901 -195.358)" fill="#ffd39f"/>
            </g>
            <g id="グループ_14771" data-name="グループ 14771" transform="translate(0 13.734)">
              <g id="グループ_14769" data-name="グループ 14769">
                <path id="パス_83991" data-name="パス 83991" d="M126.74,278.445c-.046,1.645-1.107,3.112-2.364,3.077a2.924,2.924,0,0,1-2.618-3.216c.067-2.416,1.744-3.229,3.4-2.619C126.334,276.119,126.786,276.8,126.74,278.445Z" transform="translate(-121.756 -275.494)" fill="#ffd39f"/>
              </g>
              <g id="グループ_14770" data-name="グループ 14770" transform="translate(23.626 0.533)">
                <path id="パス_83992" data-name="パス 83992" d="M294.921,282.209c-.046,1.646.932,3.169,2.189,3.2a2.924,2.924,0,0,0,2.793-3.065c.067-2.416-1.562-3.321-3.253-2.8C295.456,279.909,294.967,280.564,294.921,282.209Z" transform="translate(-294.92 -279.403)" fill="#ffd39f"/>
              </g>
            </g>
            <g id="グループ_14774" data-name="グループ 14774" transform="translate(2.277)">
              <g id="グループ_14773" data-name="グループ 14773">
                <g id="グループ_14772" data-name="グループ 14772">
                  <path id="パス_83993" data-name="パス 83993" d="M162.266,190.785a20.088,20.088,0,0,1-1.346-6.533,12.078,12.078,0,0,1-6.4-4.465,15.409,15.409,0,0,1-5.1,3.04,9.568,9.568,0,0,0,1.215-1.959c-2.848,1.459-5.5,1.618-7.536,2.149-.913,3.387-1.876,8.547-1.876,8.547s-.864-3.3-2.781-3.08c.174-6.274,3.614-13.525,14.613-12.5-.642-.555-1.217-1.151-1.217-1.151s2.289.064,3.1,1.366c1.48-1.011,3.871-.207,3.871-.207a11.248,11.248,0,0,0-2.073.947C164.032,181.28,162.266,190.785,162.266,190.785Z" transform="translate(-138.445 -174.831)" fill="#3e3e3e"/>
                </g>
              </g>
            </g>
          </g>
        </g>
        <g id="グループ_14782" data-name="グループ 14782" transform="translate(60.647 43.087)">
          <g id="グループ_14779" data-name="グループ 14779">
            <g id="グループ_14777" data-name="グループ 14777">
              <path id="パス_83994" data-name="パス 83994" d="M211.785,275.639a1.585,1.585,0,0,1-.046.336,1.441,1.441,0,0,1-.118.319,1.224,1.224,0,0,1-.2.279.945.945,0,0,1-.278.2.762.762,0,0,1-.335.059.738.738,0,0,1-.321-.1.9.9,0,0,1-.267-.2,1.2,1.2,0,0,1-.165-.292,1.385,1.385,0,0,1-.109-.316.855.855,0,0,1,.038-.663,1.374,1.374,0,0,1,.114-.311,1.164,1.164,0,0,1,.183-.278.89.89,0,0,1,.274-.188.63.63,0,0,1,.64.015.9.9,0,0,1,.27.2,1.191,1.191,0,0,1,.18.286,1.453,1.453,0,0,1,.077.326A1.533,1.533,0,0,1,211.785,275.639Z" transform="translate(-209.902 -274.403)"/>
            </g>
            <g id="グループ_14778" data-name="グループ 14778" transform="translate(8.339 0.222)">
              <path id="パス_83995" data-name="パス 83995" d="M272.865,277.276a1.6,1.6,0,0,1-.017.336,1.428,1.428,0,0,1-.118.317,1.144,1.144,0,0,1-.222.251.866.866,0,0,1-.263.193.646.646,0,0,1-.634-.011.9.9,0,0,1-.276-.19,1.206,1.206,0,0,1-.165-.294,1.409,1.409,0,0,1-.09-.321,1.55,1.55,0,0,1-.057-.333,1.587,1.587,0,0,1,.051-.335,1.4,1.4,0,0,1,.132-.31,1.148,1.148,0,0,1,.2-.266.925.925,0,0,1,.257-.215.726.726,0,0,1,.658.022.917.917,0,0,1,.248.224,1.159,1.159,0,0,1,.176.281,1.379,1.379,0,0,1,.11.315A1.563,1.563,0,0,1,272.865,277.276Z" transform="translate(-271.022 -276.031)"/>
            </g>
          </g>
          <g id="グループ_14780" data-name="グループ 14780" transform="translate(4.228 2.37)">
            <path id="パス_83996" data-name="パス 83996" d="M243.824,293.7a.282.282,0,0,1-.28-.253c0-.039-.116-.988-.842-1.1-.842-.129-1.253,1.074-1.258,1.086a.282.282,0,0,1-.535-.178c.023-.068.57-1.667,1.878-1.466,1.158.178,1.312,1.542,1.318,1.6a.282.282,0,0,1-.252.31Z" transform="translate(-240.894 -291.776)"/>
          </g>
          <g id="グループ_14781" data-name="グループ 14781" transform="translate(0.958 8.327)">
            <path id="パス_83997" data-name="パス 83997" d="M220.88,338.611l-.157,0a4.017,4.017,0,0,1-2.811-1.416,6.3,6.3,0,0,1-.959-1.346.282.282,0,0,1,.506-.25h0c.012.024,1.213,2.392,3.28,2.449a3.88,3.88,0,0,0,3.577-1.877.282.282,0,0,1,.5.259A4.423,4.423,0,0,1,220.88,338.611Z" transform="translate(-216.923 -335.439)"/>
          </g>
        </g>
        <g id="グループ_14785" data-name="グループ 14785" transform="translate(53.435 62.471)">
          <g id="グループ_14784" data-name="グループ 14784" transform="translate(0)">
            <g id="グループ_14783" data-name="グループ 14783">
              <path id="パス_83998" data-name="パス 83998" d="M171.252,445.264,157.04,444.2l1.553-26.29,4.922-1.427,2.35,2.59,2.757-2.309,4.036,1.516Z" transform="translate(-157.04 -416.482)" fill="#fff"/>
            </g>
          </g>
        </g>
        <g id="グループ_14788" data-name="グループ 14788" transform="translate(60.938 64.426)">
          <g id="グループ_14786" data-name="グループ 14786" transform="translate(0.821 2.541)">
            <path id="パス_83999" data-name="パス 83999" d="M220.018,462.952l-1.961,0,.326-13.523,1.248,0Z" transform="translate(-218.057 -449.431)" fill="#995c5c"/>
          </g>
          <g id="グループ_14787" data-name="グループ 14787" transform="translate(0 0)">
            <path id="パス_84000" data-name="パス 84000" d="M214.522,433.574l-1.461,0-1.023-2.76,3.5-.008Z" transform="translate(-212.038 -430.809)" fill="#995c5c"/>
          </g>
        </g>
        <g id="グループ_14791" data-name="グループ 14791" transform="translate(57.913 61.959)">
          <g id="グループ_14789" data-name="グループ 14789" transform="translate(0 0)">
            <path id="パス_84001" data-name="パス 84001" d="M196.387,416.094l-1.577,2.661-3.32-4.425,1.444-.5Z" transform="translate(-191.268 -413.683)" fill="#fff"/>
            <path id="パス_84002" data-name="パス 84002" d="M193.42,418.046l-3.555-4.739,1.684-.578,3.619,2.369Zm-3.111-4.6,3.085,4.112,1.407-2.373-3.288-2.153Z" transform="translate(-189.865 -412.729)" fill="#999"/>
          </g>
          <g id="グループ_14790" data-name="グループ 14790" transform="translate(5.097 0.403)">
            <path id="パス_84003" data-name="パス 84003" d="M228.411,418.749l1.163,2.866,2.173-4.014-1.354-.706Z" transform="translate(-228.249 -416.73)" fill="#fff"/>
            <path id="パス_84004" data-name="パス 84004" d="M228.533,420.886l-1.307-3.221,2.122-1.983,1.562.814Zm-.984-3.149,1.019,2.511,1.97-3.638-1.145-.6Z" transform="translate(-227.226 -415.682)" fill="#999"/>
          </g>
        </g>
        <g id="グループ_14810" data-name="グループ 14810" transform="translate(51.373 61.978)">
          <g id="グループ_14792" data-name="グループ 14792" transform="translate(0 0.068)">
            <path id="パス_84005" data-name="パス 84005" d="M163,449.729l-15.287,9.335s-4.769-2.166-5.661-6.756,3.328-38.438,3.328-38.438l4.139-.5L153,431.327l3.541-17.362,3.784,1.024-.028,9.681s-1.346,21.371-.688,22.558S163,449.729,163,449.729Z" transform="translate(-141.927 -413.367)" fill="#677e8c"/>
          </g>
          <g id="グループ_14794" data-name="グループ 14794" transform="translate(13.541 13.62)">
            <g id="グループ_14793" data-name="グループ 14793" transform="translate(0 0)" opacity="0.19">
              <rect id="長方形_29934" data-name="長方形 29934" width="3.697" height="0.932" transform="translate(0.07 0) rotate(4.284)"/>
            </g>
          </g>
          <g id="グループ_14797" data-name="グループ 14797" transform="translate(4.393 0)">
            <g id="グループ_14795" data-name="グループ 14795" transform="translate(0 0.101)" opacity="0.19">
              <path id="パス_84006" data-name="パス 84006" d="M176.217,420.4l-2.088-1.429.89-5.117,1.889-.248,3.908,17.764-4.991-8.781Z" transform="translate(-174.129 -413.605)"/>
            </g>
            <g id="グループ_14796" data-name="グループ 14796" transform="translate(0.621)">
              <path id="パス_84007" data-name="パス 84007" d="M180.77,419.606l-2.088-1.429.506-5.085,2.076-.223,3.468,18.066-4.275-9.2Z" transform="translate(-178.682 -412.868)" fill="#677e8c"/>
            </g>
          </g>
          <g id="グループ_14800" data-name="グループ 14800" transform="translate(11.115 0.549)">
            <g id="グループ_14798" data-name="グループ 14798" transform="translate(0.015 0.136)" opacity="0.19">
              <path id="パス_84008" data-name="パス 84008" d="M226.967,424.705l2.278-1.1-.221-5.182-1.79-.532-3.727,17.183,4.371-8.135Z" transform="translate(-223.507 -417.889)"/>
            </g>
            <g id="グループ_14799" data-name="グループ 14799">
              <path id="パス_84009" data-name="パス 84009" d="M226.281,423.6l2.278-1.1.257-5.1-2.009-.5L223.4,434.413l3.8-8.585Z" transform="translate(-223.396 -416.891)" fill="#677e8c"/>
            </g>
          </g>
          <g id="グループ_14809" data-name="グループ 14809" transform="translate(9.915 18.581)" opacity="0.19">
            <g id="グループ_14804" data-name="グループ 14804">
              <g id="グループ_14801" data-name="グループ 14801" transform="translate(1.04)">
                <path id="パス_84010" data-name="パス 84010" d="M223.683,549.844a.733.733,0,1,1-.676-.785A.733.733,0,0,1,223.683,549.844Z" transform="translate(-222.22 -549.057)"/>
              </g>
              <g id="グループ_14802" data-name="グループ 14802" transform="translate(0.52 6.942)">
                <path id="パス_84011" data-name="パス 84011" d="M219.872,600.722a.733.733,0,1,1-.676-.785A.733.733,0,0,1,219.872,600.722Z" transform="translate(-218.409 -599.935)"/>
              </g>
              <g id="グループ_14803" data-name="グループ 14803" transform="translate(0 13.883)">
                <path id="パス_84012" data-name="パス 84012" d="M216.06,651.6a.733.733,0,1,1-.676-.785A.733.733,0,0,1,216.06,651.6Z" transform="translate(-214.597 -650.813)"/>
              </g>
            </g>
            <g id="グループ_14808" data-name="グループ 14808">
              <g id="グループ_14805" data-name="グループ 14805" transform="translate(1.04)">
                <path id="パス_84013" data-name="パス 84013" d="M223.683,549.844a.733.733,0,1,1-.676-.785A.733.733,0,0,1,223.683,549.844Z" transform="translate(-222.22 -549.057)"/>
              </g>
              <g id="グループ_14806" data-name="グループ 14806" transform="translate(0.52 6.942)">
                <path id="パス_84014" data-name="パス 84014" d="M219.872,600.722a.733.733,0,1,1-.676-.785A.733.733,0,0,1,219.872,600.722Z" transform="translate(-218.409 -599.935)"/>
              </g>
              <g id="グループ_14807" data-name="グループ 14807" transform="translate(0 13.883)">
                <path id="パス_84015" data-name="パス 84015" d="M216.06,651.6a.733.733,0,1,1-.676-.785A.733.733,0,0,1,216.06,651.6Z" transform="translate(-214.597 -650.813)"/>
              </g>
            </g>
          </g>
        </g>
        <g id="おばあちゃん" transform="translate(98.883 59.436)">
          <g id="グループ_14829" data-name="グループ 14829" transform="translate(0 3.787)">
            <g id="グループ_14825" data-name="グループ 14825" transform="translate(12.828 31.469)">
              <g id="グループ_14819" data-name="グループ 14819" transform="translate(0 22.331)">
                <g id="グループ_14818" data-name="グループ 14818">
                  <g id="グループ_14813" data-name="グループ 14813" transform="translate(11.41 1.101)">
                    <g id="グループ_14811" data-name="グループ 14811" transform="translate(7.729 1.13)">
                      <circle id="楕円形_466" data-name="楕円形 466" cx="2.372" cy="2.372" r="2.372" transform="translate(0 4.661) rotate(-79.298)" fill="#707070"/>
                    </g>
                    <g id="グループ_14812" data-name="グループ 14812">
                      <path id="パス_84016" data-name="パス 84016" d="M679.5,826.172l-11.177,1.777-.511-2.569,11.456-.985Z" transform="translate(-667.81 -824.394)" fill="#9b9b9b"/>
                    </g>
                  </g>
                  <g id="グループ_14815" data-name="グループ 14815" transform="translate(12.129 3.089)">
                    <g id="グループ_14814" data-name="グループ 14814">
                      <path id="パス_84017" data-name="パス 84017" d="M691.912,843.248l-18.835-.556.278-3.73,18.556,2.047Z" transform="translate(-673.077 -838.963)" fill="#b2b2b2"/>
                    </g>
                  </g>
                  <g id="グループ_14817" data-name="グループ 14817">
                    <g id="グループ_14816" data-name="グループ 14816">
                      <path id="パス_84018" data-name="パス 84018" d="M584.18,818.048l10.8,3.372.877-2.468-11.194-2.629Z" transform="translate(-584.18 -816.323)" fill="#9b9b9b"/>
                    </g>
                  </g>
                </g>
              </g>
              <g id="グループ_14824" data-name="グループ 14824" transform="translate(8.364)">
                <g id="グループ_14822" data-name="グループ 14822" transform="translate(0 18.416)">
                  <g id="グループ_14820" data-name="グループ 14820" transform="translate(0 0.685)">
                    <path id="パス_84019" data-name="パス 84019" d="M645.482,792.646v6.391c0,.441.977.8,2.183.8s2.183-.357,2.183-.8v-6.391Z" transform="translate(-645.482 -792.646)" fill="#bfbfbf"/>
                  </g>
                  <g id="グループ_14821" data-name="グループ 14821">
                    <path id="パス_84020" data-name="パス 84020" d="M649.848,788.423c0,.441-.977.8-2.183.8s-2.183-.357-2.183-.8.977-.8,2.183-.8S649.848,787.982,649.848,788.423Z" transform="translate(-645.482 -787.625)" fill="#b2b2b2"/>
                  </g>
                </g>
                <g id="グループ_14823" data-name="グループ 14823" transform="translate(0.609)">
                  <path id="パス_84021" data-name="パス 84021" d="M649.944,652.646v19.072c0,.318.7.575,1.574.575s1.574-.258,1.574-.575V652.646Z" transform="translate(-649.944 -652.646)" fill="#bfbfbf"/>
                </g>
              </g>
            </g>
            <g id="グループ_14828" data-name="グループ 14828">
              <g id="グループ_14826" data-name="グループ 14826">
                <path id="パス_84022" data-name="パス 84022" d="M536.339,423.5l-19.45-1.5-1.325.171-7.657,26.646-17.749,10.26v2.035c-.285-.094,22.359,5.7,22.753,5.827a1.69,1.69,0,0,0,.966-.112l19.286-11.543Z" transform="translate(-490.154 -421.996)" fill="#65919b"/>
              </g>
              <g id="グループ_14827" data-name="グループ 14827" transform="translate(0.003 0.171)">
                <path id="パス_84023" data-name="パス 84023" d="M535.167,424.891l-19.586-1.642-7.657,26.646-17.75,10.26s21.674,5.383,22.575,5.678a1.19,1.19,0,0,0,1.076-.158l17.852-10.489Z" transform="translate(-490.174 -423.249)" fill="#8dc6d3"/>
              </g>
            </g>
          </g>
          <g id="グループ_14837" data-name="グループ 14837" transform="translate(5.616)">
            <g id="グループ_14830" data-name="グループ 14830">
              <path id="パス_84024" data-name="パス 84024" d="M531.319,442.443c-.183,7.359,17.6,3.9,17.6,3.9s.3-7.389,4.7-8.443c6.855-1.643,8.36-5.556,8.993-9.306.719-4.256-.619-22.728-.619-22.728l-2.91-11.631h-10l-3.133,9.413-1.515,18.958s-7.807,5.321-10.535,9.186S531.453,437.06,531.319,442.443Z" transform="translate(-531.318 -394.239)" fill="#7977b7"/>
            </g>
            <g id="グループ_14833" data-name="グループ 14833" transform="translate(19.807 2.37)">
              <g id="グループ_14831" data-name="グループ 14831">
                <path id="パス_84025" data-name="パス 84025" d="M676.492,412.122a.51.51,0,1,0,.51-.51A.51.51,0,0,0,676.492,412.122Z" transform="translate(-676.492 -411.612)" fill="#5c5c9b"/>
              </g>
              <g id="グループ_14832" data-name="グループ 14832" transform="translate(0 2.93)">
                <path id="パス_84026" data-name="パス 84026" d="M676.492,433.6a.51.51,0,1,0,.51-.51A.51.51,0,0,0,676.492,433.6Z" transform="translate(-676.492 -433.087)" fill="#5c5c9b"/>
              </g>
            </g>
            <g id="グループ_14836" data-name="グループ 14836" transform="translate(7.399 28.946)">
              <g id="グループ_14834" data-name="グループ 14834" transform="translate(7.55 2.711)">
                <path id="パス_84027" data-name="パス 84027" d="M640.944,630.1l3.076.7a2.276,2.276,0,0,0,1.534-.335l3.994-3.191-3.977-1-2.884,2.091C642.3,628.6,640.543,629.288,640.944,630.1Z" transform="translate(-640.885 -626.27)" fill="#5c5c9b"/>
              </g>
              <g id="グループ_14835" data-name="グループ 14835">
                <path id="パス_84028" data-name="パス 84028" d="M585.549,610.167l.384.126a2.275,2.275,0,0,0,1.534-.335l3.994-3.191L590,606.4l-4,3.068C585.675,609.767,585.549,609.969,585.549,610.167Z" transform="translate(-585.549 -606.401)" fill="#5c5c9b"/>
              </g>
            </g>
          </g>
        </g>
        <g id="おじいちゃん" transform="translate(139.131 60.834)">
          <g id="グループ_14846" data-name="グループ 14846" transform="translate(0 9.826)">
            <g id="グループ_14842" data-name="グループ 14842" transform="translate(21.192 31.537)">
              <g id="グループ_14841" data-name="グループ 14841">
                <g id="グループ_14839" data-name="グループ 14839" transform="translate(0 18.416)">
                  <g id="グループ_14838" data-name="グループ 14838">
                    <path id="パス_84029" data-name="パス 84029" d="M944.848,843.423c0,.441-.977.8-2.183.8s-2.183-.357-2.183-.8.977-.8,2.183-.8S944.848,842.982,944.848,843.423Z" transform="translate(-940.482 -842.625)" fill="#b2b2b2"/>
                  </g>
                </g>
                <g id="グループ_14840" data-name="グループ 14840" transform="translate(0.609)">
                  <path id="パス_84030" data-name="パス 84030" d="M944.944,707.646v19.072c0,.318.7.575,1.574.575s1.574-.258,1.574-.575V707.646Z" transform="translate(-944.944 -707.646)" fill="#bfbfbf"/>
                </g>
              </g>
            </g>
            <g id="グループ_14845" data-name="グループ 14845">
              <g id="グループ_14843" data-name="グループ 14843">
                <path id="パス_84031" data-name="パス 84031" d="M831.294,478.066l-19.4-1.57-1.325.239-7.657,26.646-17.749,10.26v2.035c-.285-.094,22.359,5.7,22.753,5.827a1.69,1.69,0,0,0,.966-.112l19.286-11.543Z" transform="translate(-785.155 -476.496)" fill="#65919b"/>
              </g>
              <g id="グループ_14844" data-name="グループ 14844" transform="translate(0.003 0.239)">
                <path id="パス_84032" data-name="パス 84032" d="M830.167,479.891l-19.586-1.642-7.657,26.646-17.75,10.26s21.674,5.383,22.575,5.678a1.19,1.19,0,0,0,1.076-.158l17.852-10.489Z" transform="translate(-785.174 -478.249)" fill="#8dc6d3"/>
              </g>
            </g>
          </g>
          <g id="グループ_14876" data-name="グループ 14876" transform="translate(14.846 0)">
            <g id="おじいちゃん-2" data-name="おじいちゃん">
              <g id="グループ_14865" data-name="グループ 14865" transform="translate(0.221)">
                <g id="グループ_14847" data-name="グループ 14847" transform="translate(4.556)">
                  <path id="パス_84033" data-name="パス 84033" d="M928.989,413.1h4.66l-.74-8.618h-3.18Z" transform="translate(-928.989 -404.48)" fill="#ffd39f"/>
                </g>
                <g id="グループ_14864" data-name="グループ 14864" transform="translate(0 3.946)">
                  <g id="グループ_14848" data-name="グループ 14848" transform="translate(1.742 0.283)">
                    <path id="パス_84034" data-name="パス 84034" d="M908.359,472.319l13.885.824L922.1,437.2l-4.566-1.721-4.153,3.2-1.956-2.679-2.658,1.91Z" transform="translate(-908.359 -435.476)" fill="#ffffdc"/>
                  </g>
                  <g id="グループ_14862" data-name="グループ 14862" transform="translate(3.138)">
                    <g id="グループ_14854" data-name="グループ 14854" transform="translate(2.685 3.437)">
                      <g id="グループ_14849" data-name="グループ 14849" transform="translate(0 0)">
                        <rect id="長方形_29935" data-name="長方形 29935" width="1.053" height="6.444" transform="translate(1.051 6.499) rotate(-176.205)" fill="#254f47"/>
                      </g>
                      <g id="グループ_14853" data-name="グループ 14853" transform="translate(0.335 0.404)">
                        <g id="グループ_14850" data-name="グループ 14850" transform="translate(0.313)">
                          <path id="パス_84035" data-name="パス 84035" d="M943.028,461.812a.275.275,0,1,0,.292-.256A.275.275,0,0,0,943.028,461.812Z" transform="translate(-943.028 -461.556)" fill="#d8d8d8"/>
                        </g>
                        <g id="グループ_14851" data-name="グループ 14851" transform="translate(0.157 2.366)">
                          <path id="パス_84036" data-name="パス 84036" d="M941.879,479.156a.275.275,0,1,0,.292-.256A.274.274,0,0,0,941.879,479.156Z" transform="translate(-941.879 -478.899)" fill="#d8d8d8"/>
                        </g>
                        <g id="グループ_14852" data-name="グループ 14852" transform="translate(0 4.733)">
                          <path id="パス_84037" data-name="パス 84037" d="M940.731,496.5a.275.275,0,1,0,.292-.256A.274.274,0,0,0,940.731,496.5Z" transform="translate(-940.731 -496.243)" fill="#d8d8d8"/>
                        </g>
                      </g>
                    </g>
                    <g id="グループ_14861" data-name="グループ 14861">
                      <g id="グループ_14857" data-name="グループ 14857">
                        <g id="グループ_14855" data-name="グループ 14855" transform="translate(3.624 0.068)">
                          <path id="パス_84038" data-name="パス 84038" d="M945.158,437.316l2.2-3.412,1.957.215-1.974,5.116Z" transform="translate(-945.158 -433.903)" fill="#89b2d3"/>
                        </g>
                        <g id="グループ_14856" data-name="グループ 14856">
                          <path id="パス_84039" data-name="パス 84039" d="M922.219,436.884l-1.964-3.481-1.66.208,1.778,5.214Z" transform="translate(-918.595 -433.403)" fill="#89b2d3"/>
                        </g>
                      </g>
                      <g id="グループ_14860" data-name="グループ 14860">
                        <g id="グループ_14858" data-name="グループ 14858" transform="translate(3.624 0.068)">
                          <path id="パス_84040" data-name="パス 84040" d="M945.158,437.316l2.2-3.412,1.957.215-1.974,5.116Z" transform="translate(-945.158 -433.903)" fill="#254f47"/>
                        </g>
                        <g id="グループ_14859" data-name="グループ 14859">
                          <path id="パス_84041" data-name="パス 84041" d="M922.219,436.884l-1.964-3.481-1.66.208,1.778,5.214Z" transform="translate(-918.595 -433.403)" fill="#254f47"/>
                        </g>
                      </g>
                    </g>
                  </g>
                  <g id="グループ_14863" data-name="グループ 14863" transform="translate(0 0.068)">
                    <path id="パス_84042" data-name="パス 84042" d="M895.592,471.41l15.729,3.142.337-2.43-.4-24.727L909.54,434.2l-2.882-.3L901.2,450.959,899.106,433.9l-.921.3-1.367,12.511-.023,23.075Z" transform="translate(-895.592 -433.903)" fill="#517c72"/>
                  </g>
                </g>
              </g>
              <g id="グループ_14875" data-name="グループ 14875" transform="translate(0 4.313)">
                <g id="グループ_14866" data-name="グループ 14866" transform="translate(0.125 7.356)" opacity="0.3">
                  <path id="パス_84043" data-name="パス 84043" d="M910.75,502.26s.114,8.971.259,16.058l-8.867,5.9-.379-.741c-.952.541-2.449,1.369-3.277,1.716a3.975,3.975,0,0,1-3.383.713c-.68-.311.338-1.343,1.284-2.065a21.973,21.973,0,0,1,4.4-2.277l-.534-1.045s9.313-4.465,9.643-6.3c.467-2.6-.995-17.254-.995-17.254s.494-4.064.738-6.961h.151Z" transform="translate(-894.882 -490.006)"/>
                </g>
                <g id="グループ_14874" data-name="グループ 14874">
                  <g id="グループ_14872" data-name="グループ 14872" transform="translate(0 37.962)">
                    <g id="グループ_14867" data-name="グループ 14867">
                      <path id="パス_84044" data-name="パス 84044" d="M900.963,714.333A26.624,26.624,0,0,0,895.6,717a5.827,5.827,0,0,0-1.567,2.087c-.492.877,1.985.867,3.665-.736,1.277-.535,4.151-2.219,4.151-2.219Z" transform="translate(-893.969 -714.333)" fill="#ffd39f"/>
                    </g>
                    <g id="グループ_14871" data-name="グループ 14871" transform="translate(0.064 2.483)" opacity="0.3" style="mix-blend-mode: color-burn;isolation: isolate">
                      <g id="グループ_14868" data-name="グループ 14868" transform="translate(1.044 1.124)">
                        <path id="パス_84045" data-name="パス 84045" d="M902.089,742.483l2.023-1.6-.111-.113Z" transform="translate(-902.089 -740.775)"/>
                      </g>
                      <g id="グループ_14869" data-name="グループ 14869" transform="translate(0.282 0.493)">
                        <path id="パス_84046" data-name="パス 84046" d="M896.5,738.464l2.272-2.206-.111-.112Z" transform="translate(-896.503 -736.145)"/>
                      </g>
                      <g id="グループ_14870" data-name="グループ 14870">
                        <path id="パス_84047" data-name="パス 84047" d="M896.524,732.534l-2.09,2.274,2.2-2.162Z" transform="translate(-894.435 -732.534)"/>
                      </g>
                    </g>
                  </g>
                  <g id="グループ_14873" data-name="グループ 14873" transform="translate(5.492)">
                    <path id="パス_84048" data-name="パス 84048" d="M942.9,436.092c5.007,1.67,8.631,25.207,7.92,29.08-.718,3.91-14.706,11.928-14.706,11.928l-1.892-3.7s11.326-7.561,11.655-9.4c.467-2.6-4.347-16.281-4.347-16.281S942.841,438.991,942.9,436.092Z" transform="translate(-934.226 -436.092)" fill="#517c72"/>
                  </g>
                </g>
              </g>
            </g>
          </g>
        </g>
        <g id="グループ_14880" data-name="グループ 14880" transform="translate(37.326 85.137)">
          <g id="グループ_14879" data-name="グループ 14879" transform="translate(0)">
            <g id="グループ_14878" data-name="グループ 14878">
              <path id="パス_84050" data-name="パス 84050" d="M124.389,633.948,11.659,613.873,91.988,582.61l112.73,20.075Z" transform="translate(-38.971 -582.61)" fill="#e7cba1"/>
            </g>
          </g>
        </g>
        <g id="グループ_14886" data-name="グループ 14886" transform="translate(51.349 63.163)">
          <g id="グループ_14884" data-name="グループ 14884" transform="translate(41.012 33.135)">
            <g id="グループ_14881" data-name="グループ 14881" transform="translate(0.408)">
              <path id="パス_84051" data-name="パス 84051" d="M459.945,674.043l-14.412-2.779,16.114-6.661,14.412,2.779Z" transform="translate(-445.507 -664.577)" fill="#fff"/>
              <path id="パス_84052" data-name="パス 84052" d="M459.781,673.9h0l-14.412-2.779a.026.026,0,0,1-.021-.023.025.025,0,0,1,.016-.026l16.114-6.661a.025.025,0,0,1,.015,0l14.412,2.779a.026.026,0,0,1,.021.023.026.026,0,0,1-.016.027L459.791,673.9Zm-14.323-2.814,14.32,2.761,16.027-6.625-14.32-2.761Z" transform="translate(-445.343 -664.413)" fill="#999"/>
            </g>
            <g id="グループ_14882" data-name="グループ 14882" transform="translate(0 4.686)">
              <path id="パス_84053" data-name="パス 84053" d="M456.953,708.385l-14.412-2.779,16.114-6.661,14.412,2.779Z" transform="translate(-442.515 -698.92)" fill="#fff"/>
              <path id="パス_84054" data-name="パス 84054" d="M456.789,708.248h0l-14.412-2.779a.026.026,0,0,1-.005-.049l16.114-6.661a.027.027,0,0,1,.015,0l14.412,2.779a.026.026,0,0,1,.021.023.026.026,0,0,1-.016.026L456.8,708.246Zm-14.323-2.813,14.32,2.761,16.028-6.625-14.32-2.761Z" transform="translate(-442.351 -698.757)" fill="#999"/>
            </g>
            <g id="グループ_14883" data-name="グループ 14883" transform="translate(40.618 4.268)">
              <path id="パス_84055" data-name="パス 84055" d="M754.661,705.322l-14.412-2.779,16.114-6.661,14.412,2.779Z" transform="translate(-740.223 -695.856)" fill="#fff"/>
              <path id="パス_84056" data-name="パス 84056" d="M754.5,705.183h-.005L740.08,702.4a.026.026,0,0,1,0-.049l16.114-6.661a.024.024,0,0,1,.015,0l14.412,2.779a.026.026,0,0,1,.021.023.026.026,0,0,1-.016.026l-16.114,6.661Zm-14.323-2.814,14.32,2.761,16.027-6.625-14.32-2.761Z" transform="translate(-740.059 -695.692)" fill="#999"/>
            </g>
          </g>
          <g id="グループ_14885" data-name="グループ 14885" transform="translate(0)" opacity="0.3">
            <path id="パス_84057" data-name="パス 84057" d="M164.486,457.556s-1.524-1.52-2.319-1.52-4.07-.39-4.07-.39l-1.741-.668-.091-1.531-12.928-5.639,1.563-14.454s.964-8.286.333-11.8c-5.585.065-2.762,31.279-2.762,31.279l-.041.47,12.556,5.171.377-.962,1.573.253.2.693c.2.693,3.576.762,3.576.762l2.365.819a2.917,2.917,0,0,0,.614.453.994.994,0,0,0,.8.07,2.716,2.716,0,0,0,1.137.568c.91.127,1.433-.387,1.433-.682A25.343,25.343,0,0,0,164.486,457.556Z" transform="translate(-141.756 -421.55)"/>
          </g>
        </g>
        <g id="グループ_14894" data-name="グループ 14894" transform="translate(101.368 89.436)">
          <g id="グループ_14887" data-name="グループ 14887" transform="translate(19.229 5.303)">
            <rect id="長方形_29936" data-name="長方形 29936" width="6.365" height="1.834"/>
          </g>
          <g id="グループ_14890" data-name="グループ 14890" transform="translate(26.76 7.051)">
            <g id="グループ_14888" data-name="グループ 14888" transform="translate(0 0.341)">
              <ellipse id="楕円形_467" data-name="楕円形 467" cx="3.547" cy="1.539" rx="3.547" ry="1.539" transform="translate(0.273 0.273)"/>
              <path id="パス_84058" data-name="パス 84058" d="M708.323,671.921c-2.178,0-3.82-.779-3.82-1.812s1.642-1.812,3.82-1.812,3.82.779,3.82,1.812S710.5,671.921,708.323,671.921Zm0-3.077c-1.93,0-3.274.667-3.274,1.266s1.345,1.266,3.274,1.266,3.274-.667,3.274-1.266S710.253,668.844,708.323,668.844Z" transform="translate(-704.503 -668.298)"/>
            </g>
            <g id="グループ_14889" data-name="グループ 14889">
              <ellipse id="楕円形_468" data-name="楕円形 468" cx="3.547" cy="1.539" rx="3.547" ry="1.539" transform="translate(0.273 0.273)" fill="#fc6327"/>
              <path id="パス_84059" data-name="パス 84059" d="M708.323,669.421c-2.178,0-3.82-.779-3.82-1.812s1.642-1.812,3.82-1.812,3.82.779,3.82,1.812S710.5,669.421,708.323,669.421Zm0-3.077c-1.93,0-3.274.667-3.274,1.266s1.345,1.266,3.274,1.266,3.274-.667,3.274-1.266S710.253,666.344,708.323,666.344Z" transform="translate(-704.503 -665.798)"/>
            </g>
          </g>
          <g id="グループ_14893" data-name="グループ 14893" transform="translate(0)">
            <g id="グループ_14891" data-name="グループ 14891">
              <path id="パス_84060" data-name="パス 84060" d="M519.011,617.428l-.247,1.04-10.395-3.4.362-.952Z" transform="translate(-508.369 -614.118)"/>
            </g>
            <g id="グループ_14892" data-name="グループ 14892" transform="translate(10.395 3.311)">
              <path id="パス_84061" data-name="パス 84061" d="M586.728,639.573l-2.169-.149.247-1.04Z" transform="translate(-584.559 -638.384)" fill="#9e9e9e"/>
            </g>
          </g>
        </g>
        <g id="グループ_14908" data-name="グループ 14908" transform="translate(47.897 62.549)">
          <g id="グループ_14902" data-name="グループ 14902" transform="translate(0 0)">
            <g id="グループ_14895" data-name="グループ 14895" transform="translate(16.791 33.345)">
              <path id="パス_84062" data-name="パス 84062" d="M240.563,661.454l1.956.75s3.274.39,4.07.39,2.319,1.52,2.319,1.52A25.339,25.339,0,0,1,251.478,667c0,.3-.523.809-1.433.682a2.717,2.717,0,0,1-1.137-.568,1,1,0,0,1-.8-.07,2.918,2.918,0,0,1-.614-.453l-2.365-.819s-3.377-.069-3.576-.762l-.2-.693-1.842-.3Z" transform="translate(-239.517 -661.454)" fill="#ffd39f"/>
            </g>
            <g id="グループ_14899" data-name="グループ 14899" transform="translate(24.292 35.991)" opacity="0.3" style="mix-blend-mode: color-burn;isolation: isolate">
              <g id="グループ_14896" data-name="グループ 14896" transform="translate(0 1.385)">
                <path id="パス_84063" data-name="パス 84063" d="M296.5,692.482l-2-1.482.313.063Z" transform="translate(-294.5 -691)"/>
              </g>
              <g id="グループ_14897" data-name="グループ 14897" transform="translate(0.489 0.499)">
                <path id="パス_84064" data-name="パス 84064" d="M301.287,687.531l-1.731-1.638-1.472-1.393.5.266Z" transform="translate(-298.083 -684.5)"/>
              </g>
              <g id="グループ_14898" data-name="グループ 14898" transform="translate(1.044)">
                <path id="パス_84065" data-name="パス 84065" d="M302.748,681.181l2.528,2.751-3.123-3.086Z" transform="translate(-302.153 -680.846)"/>
              </g>
            </g>
            <g id="グループ_14900" data-name="グループ 14900" transform="translate(15.877 32.389)">
              <rect id="長方形_29937" data-name="長方形 29937" width="1.565" height="3.928" transform="translate(1.562 0.176) rotate(20.667)" fill="#fff"/>
              <path id="パス_84066" data-name="パス 84066" d="M234.543,659.023l-1.719-.649,1.483-3.931,1.719.649Zm-1.368-.808,1.209.456,1.29-3.42-1.209-.456Z" transform="translate(-232.824 -654.443)" fill="#999"/>
            </g>
            <g id="グループ_14901" data-name="グループ 14901">
              <path id="パス_84067" data-name="パス 84067" d="M123.378,417.05c-5.585.065-7.331,27.021-6.853,29.506.283,1.471,16.607,7.414,16.607,7.414l1.669-4.26L121.1,444.057c1.139-7.893,2.1-15.826,2.1-15.826S124.01,420.567,123.378,417.05Z" transform="translate(-116.45 -417.05)" fill="#677e8c"/>
            </g>
          </g>
          <g id="グループ_14907" data-name="グループ 14907" transform="translate(20.677 1.12)">
            <g id="グループ_14904" data-name="グループ 14904" transform="translate(25.724 30.873)">
              <g id="グループ_14903" data-name="グループ 14903">
                <path id="パス_84068" data-name="パス 84068" d="M460.155,659.791c.92.474,1.468-.054,1.817.207a13.676,13.676,0,0,1,3.285,3.375c.872,1.21,1.076,1.015,1.583.784l-2.654-3.651s.668.25,1-.085c.239-.239-.15-.926-.15-.926s.609.09.867-.209-.287-.926-.3-1.053c.7.15.753-.426,0-1.308a25.015,25.015,0,0,0-4.372-3.137l-2.685-2.246-2.01,1.929a26.567,26.567,0,0,1,2.845,2.843C459.642,657.1,459.337,658.563,460.155,659.791Z" transform="translate(-456.546 -651.542)" fill="#ffd39f"/>
              </g>
            </g>
            <g id="グループ_14905" data-name="グループ 14905" transform="translate(25.487 30.394)">
              <rect id="長方形_29938" data-name="長方形 29938" width="3.982" height="1.931" transform="translate(0.261 3.008) rotate(-43.616)" fill="#fff"/>
              <path id="パス_84069" data-name="パス 84069" d="M456.391,652.7,454.8,651.03l3.151-3,1.587,1.666Zm-1.064-1.653,1.077,1.13,2.615-2.492-1.077-1.13Z" transform="translate(-454.804 -648.028)" fill="#999"/>
            </g>
            <g id="グループ_14906" data-name="グループ 14906">
              <path id="パス_84070" data-name="パス 84070" d="M293.65,459.6l3.684-3.547s-21.641-23.961-24.422-27.287a16.642,16.642,0,0,0-3.717-3.512L268,433.544Z" transform="translate(-268 -425.256)" fill="#677e8c"/>
            </g>
          </g>
        </g>
        <path id="パス_84071" data-name="パス 84071" d="M645.79,405.87s.664,9.175.805,16.082c-3.015,3.077-11.167,5.63-11.167,5.63l-.369-.722c-.928.527-2.387,1.335-3.194,1.673a3.874,3.874,0,0,1-3.3.7c-.662-.3.329-1.309,1.252-2.012A21.4,21.4,0,0,1,634.106,425l-.453-1.837s8.8-4.283,9.125-6.071c.455-2.536-1.346-16.168-1.346-16.168a45.651,45.651,0,0,0,1.3-6.683h.148Z" transform="translate(-510.615 -334.803)"/>
        <g id="グループ_14914" data-name="グループ 14914" transform="translate(117.617 89.265)">
          <g id="グループ_14909" data-name="グループ 14909">
            <path id="パス_84072" data-name="パス 84072" d="M634.28,612.869a25.934,25.934,0,0,0-5.228,2.6,5.68,5.68,0,0,0-1.527,2.034c-.479.854,1.935.844,3.572-.717,1.244-.521,4.046-2.163,4.046-2.163Z" transform="translate(-627.464 -612.869)" fill="#ffd39f"/>
          </g>
          <g id="グループ_14913" data-name="グループ 14913" transform="translate(0.062 2.42)" opacity="0.3" style="mix-blend-mode: color-burn;isolation: isolate">
            <g id="グループ_14910" data-name="グループ 14910" transform="translate(1.018 1.096)">
              <path id="パス_84073" data-name="パス 84073" d="M635.377,640.3l1.971-1.555-.108-.11Z" transform="translate(-635.377 -638.639)"/>
            </g>
            <g id="グループ_14911" data-name="グループ 14911" transform="translate(0.275 0.48)">
              <path id="パス_84074" data-name="パス 84074" d="M629.933,636.387l2.214-2.15-.108-.11Z" transform="translate(-629.933 -634.128)"/>
            </g>
            <g id="グループ_14912" data-name="グループ 14912">
              <path id="パス_84075" data-name="パス 84075" d="M629.954,630.607l-2.037,2.216,2.145-2.107Z" transform="translate(-627.917 -630.607)"/>
            </g>
          </g>
        </g>
        <g id="グループ_14915" data-name="グループ 14915" transform="translate(122.97 58.086)">
          <path id="パス_84076" data-name="パス 84076" d="M675.89,384.342c4.88,1.627,5.583,22.95,4.89,26.724-.7,3.811-12.238,7.423-12.238,7.423l-1.844-3.6s9.077-4.351,9.4-6.14c.455-2.536-1.55-16.918-1.55-16.918A40.638,40.638,0,0,0,675.89,384.342Z" transform="translate(-666.698 -384.342)" fill="#7977b7"/>
        </g>
        <path id="パス_84077" data-name="パス 84077" d="M605.726,445.957a5.1,5.1,0,0,1,.984-2.245l-.388-.007a40.682,40.682,0,0,1,.018-5.453c.837-6.213,1.46-12.671,2.79-16.838,1.879-5.888,3.254-3.339,3.254-3.339s-2.9,17.55-2.933,19.419c-.055,2.862-.223,6.262-.223,6.262l-.366-.007a8.778,8.778,0,0,1,.043,1.063c-.017.832-.209,2.946-.431,2.937-.523-.023-.131-2.138-.333-2.085-.636,2.758-2.321,3.659-2.5,2.7A6.021,6.021,0,0,1,605.726,445.957Z" transform="translate(-490.932 -354.913)"/>
        <g id="グループ_14916" data-name="グループ 14916" transform="translate(114.487 87.88)">
          <path id="パス_84078" data-name="パス 84078" d="M606.165,602.719a6.692,6.692,0,0,0-1.539,3.027,5.677,5.677,0,0,0,.123,2.541c.176.964,1.656-.073,2.292-2.831.2-.053-.19,2.062.333,2.085.222.01.414-2.105.431-2.937a8.154,8.154,0,0,0-.083-1.382Z" transform="translate(-604.524 -602.719)" fill="#ffd39f"/>
        </g>
        <g id="グループ_14920" data-name="グループ 14920" transform="translate(114.555 90.442)" opacity="0.3" style="mix-blend-mode: color-burn;isolation: isolate">
          <g id="グループ_14917" data-name="グループ 14917" transform="translate(0.633 0.305)">
            <path id="パス_84079" data-name="パス 84079" d="M609.668,626.816l1.18-3.073-.154-.015Z" transform="translate(-609.668 -623.728)"/>
          </g>
          <g id="グループ_14918" data-name="グループ 14918" transform="translate(0.232 0.15)">
            <path id="パス_84080" data-name="パス 84080" d="M606.725,625.661l.8-3.052-.153-.015Z" transform="translate(-606.725 -622.594)"/>
          </g>
          <g id="グループ_14919" data-name="グループ 14919" transform="translate(0)">
            <path id="パス_84081" data-name="パス 84081" d="M605.336,621.491l-.31,2.222.464-2.207Z" transform="translate(-605.026 -621.491)"/>
          </g>
        </g>
        <path id="パス_84082" data-name="パス 84082" d="M612.553,413.418l-2.906-.052s.123-3.7.359-5.452c.837-6.213,1.3-13.28,2.633-17.447,1.879-5.888,4.659-7.915,4.659-7.915s-4.486,22.735-4.523,24.6C612.721,410.018,612.553,413.418,612.553,413.418Z" transform="translate(-494.461 -324.71)" fill="#7977b7"/>
        <g id="グループ_15234" data-name="グループ 15234" transform="translate(112.116 33.165)">
          <g id="グループ_15233" data-name="グループ 15233">
            <g id="グループ_15226" data-name="グループ 15226" transform="translate(2.74 5.139)">
              <path id="パス_84612" data-name="パス 84612" d="M630.654,250.486c-.109,6.092-4.268,12.213-11.906,12.165-8.639-.054-11.628-6.452-11.518-12.545a11.231,11.231,0,0,1,11.605-10.754C625.051,239.448,630.763,244.394,630.654,250.486Z" transform="translate(-607.227 -239.352)" fill="#ffd39f"/>
            </g>
            <g id="グループ_15229" data-name="グループ 15229" transform="translate(1.405)">
              <g id="グループ_15228" data-name="グループ 15228">
                <g id="グループ_15227" data-name="グループ 15227">
                  <path id="パス_84613" data-name="パス 84613" d="M622.263,216.152c-2.9,1.186-4.335-3.073-4.305-5.039-3.781,1.853-3.41-3.347-5.427-3.38s-4.478,4.688-10.086,3.579c-1.008,2.644-2.435,5.353-4.212,4.6-1.054-.448-1.321-4.847.924-4.442-1.654-2.345.46-7.607,4.732-6.068,2.167-5.288,9.367-4,10.461-1.819,3.739-1.694,7.785,2.507,7.274,5.211C626.921,211.7,623.481,215.653,622.263,216.152Z" transform="translate(-597.445 -201.684)" fill="#8b4417"/>
                </g>
              </g>
            </g>
            <g id="グループ_15232" data-name="グループ 15232" transform="translate(0 14.218)">
              <g id="グループ_15230" data-name="グループ 15230">
                <path id="パス_84614" data-name="パス 84614" d="M592.139,308.612c-.023,1.532-1.066,2.907-2.327,2.888a2.808,2.808,0,0,1-2.668-2.964,2.411,2.411,0,0,1,3.375-2.472C591.7,306.452,592.163,307.08,592.139,308.612Z" transform="translate(-587.144 -305.893)" fill="#ffd39f"/>
              </g>
              <g id="グループ_15231" data-name="グループ 15231" transform="translate(23.685 0.244)">
                <path id="パス_84615" data-name="パス 84615" d="M760.742,310.32c-.023,1.532.977,2.939,2.238,2.958a2.808,2.808,0,0,0,2.758-2.882,2.411,2.411,0,0,0-3.3-2.574C761.247,308.175,760.766,308.789,760.742,310.32Z" transform="translate(-760.742 -307.682)" fill="#ffd39f"/>
              </g>
            </g>
          </g>
        </g>
        <g id="グループ_15248" data-name="グループ 15248" transform="translate(119.997 48.614)">
          <g id="グループ_15237" data-name="グループ 15237" transform="translate(0 0)">
            <g id="グループ_15235" data-name="グループ 15235">
              <path id="パス_84616" data-name="パス 84616" d="M646.762,316.044a1.343,1.343,0,0,1-.067.4,1.174,1.174,0,0,1-.194.351.952.952,0,0,1-.3.263.794.794,0,0,1-.766-.015.963.963,0,0,1-.307-.258,1.214,1.214,0,0,1-.184-.362,1.378,1.378,0,0,1-.037-.4,1.3,1.3,0,0,1,.086-.39,1.154,1.154,0,0,1,.179-.353.952.952,0,0,1,.291-.27.779.779,0,0,1,.387-.089.794.794,0,0,1,.391.089.989.989,0,0,1,.3.275,1.211,1.211,0,0,1,.156.371A1.327,1.327,0,0,1,646.762,316.044Z" transform="translate(-644.908 -314.913)"/>
            </g>
            <g id="グループ_15236" data-name="グループ 15236" transform="translate(8.344 0.098)">
              <path id="パス_84617" data-name="パス 84617" d="M707.93,316.794a1.328,1.328,0,0,1-.078.394,1.158,1.158,0,0,1-.19.349,1,1,0,0,1-.28.29.986.986,0,0,1-.792-.013,1,1,0,0,1-.3-.277,1.228,1.228,0,0,1-.177-.368,1.383,1.383,0,0,1-.047-.4,1.312,1.312,0,0,1,.1-.391,1.153,1.153,0,0,1,.18-.352.947.947,0,0,1,.293-.268.806.806,0,0,1,.386-.12.824.824,0,0,1,.393.114.985.985,0,0,1,.279.292,1.186,1.186,0,0,1,.2.35A1.38,1.38,0,0,1,707.93,316.794Z" transform="translate(-706.065 -315.634)"/>
            </g>
          </g>
          <g id="グループ_15238" data-name="グループ 15238" transform="translate(3.425 2.118)">
            <path id="パス_84618" data-name="パス 84618" d="M670.29,332.218a.283.283,0,0,1-.227-.451l.9-1.215a.283.283,0,0,1,.435-.024l.943,1.022a.283.283,0,1,1-.416.383l-.711-.771-.692.939A.282.282,0,0,1,670.29,332.218Z" transform="translate(-670.008 -330.438)"/>
          </g>
          <g id="グループ_15247" data-name="グループ 15247" transform="translate(1.202 4.776)">
            <g id="グループ_15246" data-name="グループ 15246" transform="translate(1.994 3.371)">
              <path id="パス_84621" data-name="パス 84621" d="M669.73,375.643h-.047a1.4,1.4,0,0,1-1.32-.612.283.283,0,0,1,.5-.261c.013.022.195.3.827.307h.039a1.593,1.593,0,0,0,1.006-.281.284.284,0,0,1,.4.027.281.281,0,0,1-.021.4A2.126,2.126,0,0,1,669.73,375.643Z" transform="translate(-668.333 -374.621)"/>
            </g>
          </g>
        </g>
        <g id="グループ_15258" data-name="グループ 15258" transform="translate(153.977 65.147)">
          <g id="グループ_15249" data-name="グループ 15249" transform="translate(0.125 33.516)" opacity="0.3">
            <path id="パス_84622" data-name="パス 84622" d="M912.567,682.723,902.141,689.8l-.379-.74c-.952.541-2.449,1.369-3.277,1.716a3.975,3.975,0,0,1-3.383.713c-.68-.311.338-1.343,1.284-2.065a25.98,25.98,0,0,1,4.821-2.38L900.674,686l6.355-4.251Z" transform="translate(-894.882 -681.745)"/>
          </g>
          <g id="グループ_15257" data-name="グループ 15257" transform="translate(0)">
            <g id="グループ_15255" data-name="グループ 15255" transform="translate(0 37.962)">
              <g id="グループ_15250" data-name="グループ 15250">
                <path id="パス_84623" data-name="パス 84623" d="M900.963,714.333A26.624,26.624,0,0,0,895.6,717a5.827,5.827,0,0,0-1.567,2.087c-.492.877,1.985.867,3.665-.736,1.277-.535,4.151-2.219,4.151-2.219Z" transform="translate(-893.969 -714.333)" fill="#ffd39f"/>
              </g>
              <g id="グループ_15254" data-name="グループ 15254" transform="translate(0.064 2.483)" opacity="0.3" style="mix-blend-mode: color-burn;isolation: isolate">
                <g id="グループ_15251" data-name="グループ 15251" transform="translate(1.044 1.124)">
                  <path id="パス_84624" data-name="パス 84624" d="M902.089,742.483l2.023-1.6-.111-.113Z" transform="translate(-902.089 -740.775)"/>
                </g>
                <g id="グループ_15252" data-name="グループ 15252" transform="translate(0.282 0.493)">
                  <path id="パス_84625" data-name="パス 84625" d="M896.5,738.464l2.272-2.206-.111-.112Z" transform="translate(-896.503 -736.145)"/>
                </g>
                <g id="グループ_15253" data-name="グループ 15253">
                  <path id="パス_84626" data-name="パス 84626" d="M896.524,732.534l-2.09,2.274,2.2-2.162Z" transform="translate(-894.435 -732.534)"/>
                </g>
              </g>
            </g>
            <g id="グループ_15256" data-name="グループ 15256" transform="translate(5.492)">
              <path id="パス_84627" data-name="パス 84627" d="M942.9,436.092c5.007,1.67,8.631,25.207,7.92,29.08-.718,3.91-14.706,11.928-14.706,11.928l-1.892-3.7s11.326-7.561,11.655-9.4c.467-2.6-4.347-16.281-4.347-16.281S942.841,438.991,942.9,436.092Z" transform="translate(-934.226 -436.092)" fill="#517c72"/>
            </g>
          </g>
        </g>
        <g id="グループ_15270" data-name="グループ 15270" transform="translate(144.877 64.987)">
          <g id="グループ_15259" data-name="グループ 15259" transform="translate(0.65 30.465)" opacity="0.3">
            <path id="パス_84628" data-name="パス 84628" d="M834.77,658.216l-2.741,5.362s1.8.505,2.772.654c.5-.34.669-.607.7-.931l.106.555.035-.01,1.061,1.853-.067-2.13-.194-.99a2.626,2.626,0,0,1,.259-.287l.611-.59a1.6,1.6,0,0,0-.055-.821c.506-.544,1.671-1.91,1.671-1.91Z" transform="translate(-832.029 -658.216)"/>
          </g>
          <g id="グループ_15260" data-name="グループ 15260" transform="translate(1.242 0)">
            <path id="パス_84629" data-name="パス 84629" d="M839.532,469.153l-3.165-.956s4.557-8.847,5.263-10.38c1.715-3.725,2.184-12.364,3.194-16.62,1.521-6.412,2.489-6.273,2.489-6.273l-.47,15.5s-1.127,9.185-1.509,9.865C843.93,462.78,839.532,469.153,839.532,469.153Z" transform="translate(-836.367 -434.924)" fill="#517c72"/>
          </g>
          <g id="グループ_15269" data-name="グループ 15269" transform="translate(0 25.517)">
            <g id="グループ_15261" data-name="グループ 15261" transform="translate(0 5.739)">
              <path id="パス_84630" data-name="パス 84630" d="M828.981,664.078a3.569,3.569,0,0,0-1.715,1.954c.034.537.313,3.029.65,3.089a20.009,20.009,0,0,0,2.717.252c1.055-.974.024-3.177.024-3.177s1.349-1.2,1.492-1.425A4.111,4.111,0,0,0,828.981,664.078Z" transform="translate(-827.266 -664.016)" fill="#ffd39f"/>
            </g>
            <g id="グループ_15262" data-name="グループ 15262" transform="translate(2.173 6.888)">
              <path id="パス_84631" data-name="パス 84631" d="M845.03,675.133l-1.31-.261-.529-.909.6-1.531,1.291.431Z" transform="translate(-843.191 -672.432)" fill="#e5af7f"/>
            </g>
            <g id="グループ_15265" data-name="グループ 15265" transform="translate(0.46)">
              <g id="グループ_15263" data-name="グループ 15263">
                <path id="パス_84632" data-name="パス 84632" d="M835.261,632.115l-.975.439-3.651-10.309.975-.294Z" transform="translate(-830.635 -621.95)"/>
              </g>
              <g id="グループ_15264" data-name="グループ 15264" transform="translate(3.652 10.164)">
                <path id="パス_84633" data-name="パス 84633" d="M858.605,698.7l-1.206-1.809.975-.439Z" transform="translate(-857.399 -696.451)" fill="#9e9e9e"/>
              </g>
            </g>
            <g id="グループ_15266" data-name="グループ 15266" transform="translate(4.063 6.496)">
              <path id="パス_84634" data-name="パス 84634" d="M857.435,672.645c-.234-.146-.327-.456-.181-.87a6.256,6.256,0,0,1,.422-.88l-.629-.513.82-.823s.715,1.414.589,1.722l-.515.675C857.688,672.275,857.543,672.713,857.435,672.645Z" transform="translate(-857.047 -669.56)" fill="#ffd39f"/>
            </g>
            <g id="グループ_15267" data-name="グループ 15267" transform="translate(1.542 6.943)" opacity="0.3" style="mix-blend-mode: color-burn;isolation: isolate">
              <path id="パス_84635" data-name="パス 84635" d="M840.86,675.565s.049-.209-.64-.27c-.37-.409-.629-.683-.895-.933l.36-1.523-1.119,1.045s.025.964.222,1.134l1.037.83a8.706,8.706,0,0,0,1.028.13Z" transform="translate(-838.566 -672.84)"/>
            </g>
            <g id="グループ_15268" data-name="グループ 15268" transform="translate(1.516 6.887)">
              <path id="パス_84636" data-name="パス 84636" d="M841.186,675.43c.047-.272-.44-.563-1.129-.623l-.78-.831.358-1.544-1.257.623s.068,1.3.309,1.541l.976.765A3.452,3.452,0,0,0,841.186,675.43Z" transform="translate(-838.378 -672.432)" fill="#ffd39f"/>
            </g>
          </g>
        </g>
        <g id="グループ_15279" data-name="グループ 15279" transform="translate(150.337 39.667)">
          <g id="グループ_15278" data-name="グループ 15278" transform="translate(0 0)">
            <g id="グループ_15271" data-name="グループ 15271" transform="translate(1.661 2.648)">
              <path id="パス_84637" data-name="パス 84637" d="M900.76,280.679c-.008,3.336-.365,7.53-2.518,9.864-1.675,1.815-4.623,2.607-8.137,2.562-3.479-.044-6.44-.278-8.075-1.861-2.4-2.322-2.57-7.059-2.57-10.585,0-7.759,2.4-11.905,10.534-11.909C897.608,268.746,900.775,274.748,900.76,280.679Z" transform="translate(-879.46 -268.749)" fill="#ffd39f"/>
            </g>
            <g id="グループ_15274" data-name="グループ 15274" transform="translate(0 13.09)">
              <g id="グループ_15272" data-name="グループ 15272" transform="translate(0 0.114)">
                <path id="パス_84638" data-name="パス 84638" d="M871.827,348.611c0,1.426-.929,2.722-2.075,2.722a2.587,2.587,0,0,1-2.467-2.722c0-2.094,1.507-2.838,3.034-2.35C871.4,346.606,871.827,347.184,871.827,348.611Z" transform="translate(-867.285 -346.117)" fill="#ffd39f"/>
              </g>
              <g id="グループ_15273" data-name="グループ 15273" transform="translate(21.535)">
                <path id="パス_84639" data-name="パス 84639" d="M1025.128,347.777c0,1.426.929,2.722,2.075,2.722a2.587,2.587,0,0,0,2.467-2.722c0-2.094-1.507-2.838-3.034-2.35C1025.557,345.772,1025.128,346.35,1025.128,347.777Z" transform="translate(-1025.128 -345.283)" fill="#ffd39f"/>
              </g>
            </g>
            <g id="グループ_15277" data-name="グループ 15277" transform="translate(1.252)">
              <g id="グループ_15276" data-name="グループ 15276">
                <g id="グループ_15275" data-name="グループ 15275">
                  <path id="パス_84640" data-name="パス 84640" d="M898.17,263.915a6.323,6.323,0,0,1-1.565-4.186c-1.888,0-4.886-2.865-5.461-4.109-.807.971-3.75,1.38-3.75,1.38s.744-1.242.618-1.728a11.842,11.842,0,0,1-3.933,2.047c.071-.955.136-1.808.136-1.808s-5.025,2.535-6.149,2.861a18.756,18.756,0,0,1-1.2,5.522s-1.307-6.818.751-10.127,8.314-4.43,9.954-4.43,3.181.273,3.954,1.381c.946-.608,1.566-.162,2.675.184A8.435,8.435,0,0,1,898,254.248C899.314,256.432,898.17,263.915,898.17,263.915Z" transform="translate(-876.461 -249.337)" fill="#505050"/>
                </g>
              </g>
            </g>
          </g>
        </g>
        <g id="グループ_15293" data-name="グループ 15293" transform="translate(154.466 51.099)">
          <g id="グループ_15282" data-name="グループ 15282" transform="translate(1.703 3.406)">
            <g id="グループ_15280" data-name="グループ 15280">
              <path id="パス_84641" data-name="パス 84641" d="M911.728,359.124a1.3,1.3,0,0,1-.022.3,1.2,1.2,0,0,1-.1.284,1,1,0,0,1-.191.229.816.816,0,0,1-.237.177.706.706,0,0,1-.29.072.728.728,0,0,1-.3-.056.855.855,0,0,1-.228-.194,1,1,0,0,1-.182-.233,1.178,1.178,0,0,1-.1-.279.839.839,0,0,1,.012-.59,1.134,1.134,0,0,1,.112-.272,1.044,1.044,0,0,1,.15-.257.844.844,0,0,1,.244-.177.708.708,0,0,1,.3-.031.667.667,0,0,1,.284.056.8.8,0,0,1,.248.159,1.022,1.022,0,0,1,.189.233,1.227,1.227,0,0,1,.075.29A1.263,1.263,0,0,1,911.728,359.124Z" transform="translate(-910.031 -358.093)"/>
            </g>
            <g id="グループ_15281" data-name="グループ 15281" transform="translate(7.612 0.001)">
              <path id="パス_84642" data-name="パス 84642" d="M967.519,359.13a1.278,1.278,0,0,1-.048.293,1.15,1.15,0,0,1-.109.274,1.053,1.053,0,0,1-.151.257.829.829,0,0,1-.251.163.619.619,0,0,1-.576-.005.81.81,0,0,1-.241-.17,1.006,1.006,0,0,1-.169-.242,1.163,1.163,0,0,1-.118-.273,1.563,1.563,0,0,1,0-.594,1.2,1.2,0,0,1,.108-.279,1.04,1.04,0,0,1,.167-.249.819.819,0,0,1,.255-.155.673.673,0,0,1,.286-.05.691.691,0,0,1,.29.042.827.827,0,0,1,.242.172,1.017,1.017,0,0,1,.167.245,1.166,1.166,0,0,1,.115.274A1.3,1.3,0,0,1,967.519,359.13Z" transform="translate(-965.826 -358.1)"/>
            </g>
          </g>
          <g id="グループ_15283" data-name="グループ 15283" transform="translate(3.929 5.314)">
            <path id="パス_84643" data-name="パス 84643" d="M926.6,373.733a.25.25,0,0,1-.241-.317c.017-.061.421-1.48,1.5-1.325a1.68,1.68,0,0,1,1.276,1.344.25.25,0,1,1-.492.094c-.006-.034-.175-.845-.856-.943-.637-.092-.942.952-.945.963A.25.25,0,0,1,926.6,373.733Z" transform="translate(-926.349 -372.08)"/>
          </g>
          <g id="グループ_15289" data-name="グループ 15289" transform="translate(1.84 8.822)">
            <g id="グループ_15288" data-name="グループ 15288" transform="translate(2.232 3.257)">
              <path id="パス_84646" data-name="パス 84646" d="M928.821,422.664a1.6,1.6,0,0,1-1.379-.562.283.283,0,0,1,.466-.321,1.122,1.122,0,0,0,.914.318,1.614,1.614,0,0,0,1.04-.3.284.284,0,0,1,.4.021.281.281,0,0,1-.015.4A2.146,2.146,0,0,1,928.821,422.664Z" transform="translate(-927.393 -421.66)"/>
            </g>
          </g>
          <g id="グループ_15292" data-name="グループ 15292">
            <g id="グループ_15290" data-name="グループ 15290">
              <path id="パス_84647" data-name="パス 84647" d="M901.142,333.259l-3.12-.131-.474,1.31Z" transform="translate(-897.548 -333.128)" fill="#505050"/>
            </g>
            <g id="グループ_15291" data-name="グループ 15291" transform="translate(9.141)">
              <path id="パス_84648" data-name="パス 84648" d="M964.548,333.259l3.12-.131.474,1.31Z" transform="translate(-964.548 -333.128)" fill="#505050"/>
            </g>
          </g>
        </g>
      </g>
    </g>
  </g>
</svg>
