<svg xmlns="http://www.w3.org/2000/svg" xmlns:xlink="http://www.w3.org/1999/xlink" width="140" height="140" viewBox="0 0 140 140">
  <defs>
    <clipPath id="clip-path">
      <circle id="楕円形_478" data-name="楕円形 478" cx="70" cy="70" r="70" transform="translate(0 0.477)" fill="#f7f3e5"/>
    </clipPath>
  </defs>
  <g id="merit_obj14" transform="translate(0 -0.477)">
    <circle id="楕円形_23" data-name="楕円形 23" cx="70" cy="70" r="70" transform="translate(0 0.477)" fill="#f7f3e5"/>
    <g id="マスクグループ_82" data-name="マスクグループ 82" clip-path="url(#clip-path)">
      <g id="グループ_15535" data-name="グループ 15535" transform="matrix(0.985, -0.174, 0.174, 0.985, -3667.283, -4141.286)">
        <g id="グループ_15533" data-name="グループ 15533" transform="translate(2905.434 4750.862)">
          <path id="パス_89290" data-name="パス 89290" d="M2957.222,4839.775l-49.264-16.132a3.677,3.677,0,0,1-2.343-4.625l21.492-65.632a3.677,3.677,0,0,1,4.625-2.343L2981,4767.176a3.677,3.677,0,0,1,2.343,4.625l-21.492,65.631A3.676,3.676,0,0,1,2957.222,4839.775Z" transform="translate(-2905.434 -4750.862)" fill="#15a58e"/>
          <rect id="長方形_30226" data-name="長方形 30226" width="50.373" height="70.166" transform="translate(26.119 3.086) rotate(18.132)" fill="#fff"/>
          <path id="パス_89291" data-name="パス 89291" d="M3688.295,4803.928l-8.4-2.749a4.164,4.164,0,1,0-7.76-2.542l-8.4-2.75a1.586,1.586,0,0,0-1.994,1.011l-1.405,4.291a1.585,1.585,0,0,0,1.01,1.994l24.553,8.041a1.585,1.585,0,0,0,1.994-1.01l1.405-4.292A1.585,1.585,0,0,0,3688.295,4803.928Zm-14.266-5.855a2.467,2.467,0,1,1-.09,1.154A2.462,2.462,0,0,1,3674.028,4798.073Z" transform="translate(-3624.686 -4792.884)" fill="#717071"/>
          <path id="パス_89292" data-name="パス 89292" d="M3661.352,4888.717l24.553,8.041a1.585,1.585,0,0,0,1.994-1.01l.654-2L3661,4884.727l-.654,2A1.585,1.585,0,0,0,3661.352,4888.717Z" transform="translate(-3624.686 -4878.417)" fill="#595757"/>
          <g id="グループ_15525" data-name="グループ 15525" transform="translate(53.106 25.935)">
            <path id="パス_89293" data-name="パス 89293" d="M4037.43,5310.843l-3.444-1.127a2.647,2.647,0,0,1-1.69-3.335l1.128-3.444a2.647,2.647,0,0,1,3.335-1.689l3.444,1.127a2.647,2.647,0,0,1,1.69,3.336l-1.128,3.444A2.647,2.647,0,0,1,4037.43,5310.843Zm-.967-8.693a1.7,1.7,0,0,0-2.135,1.082l-1.128,3.444a1.694,1.694,0,0,0,1.082,2.135l3.444,1.128a1.7,1.7,0,0,0,2.135-1.082l1.128-3.444a1.7,1.7,0,0,0-1.082-2.135Z" transform="translate(-4032.165 -5301.114)" fill="#ccc"/>
            <path id="パス_89294" data-name="パス 89294" d="M4084.358,5330.512l.954,5.382,9.459-5.413-.812-1.051-7.884,4.662-.756-3.869Z" transform="translate(-4081.898 -5328.095)" fill="#eb6d4e"/>
          </g>
          <g id="グループ_15526" data-name="グループ 15526" transform="translate(27.162 18.233)">
            <rect id="長方形_30227" data-name="長方形 30227" width="25.148" height="1.489" transform="translate(1.905 0) rotate(18.132)" fill="#15a58e"/>
            <rect id="長方形_30228" data-name="長方形 30228" width="25.148" height="1.489" transform="matrix(0.95, 0.311, -0.311, 0.95, 0.463, 4.403)" fill="#15a58e"/>
          </g>
          <g id="グループ_15527" data-name="グループ 15527" transform="translate(49.319 37.501)">
            <path id="パス_89295" data-name="パス 89295" d="M3957.073,5556.234l-3.444-1.128a2.647,2.647,0,0,1-1.689-3.335l1.128-3.444a2.647,2.647,0,0,1,3.335-1.69l3.444,1.128a2.647,2.647,0,0,1,1.69,3.335l-1.128,3.444A2.647,2.647,0,0,1,3957.073,5556.234Zm-.967-8.693a1.7,1.7,0,0,0-2.135,1.082l-1.128,3.444a1.7,1.7,0,0,0,1.082,2.136l3.444,1.127a1.7,1.7,0,0,0,2.135-1.082l1.128-3.444a1.7,1.7,0,0,0-1.082-2.135Z" transform="translate(-3951.807 -5546.505)" fill="#ccc"/>
            <path id="パス_89296" data-name="パス 89296" d="M4004,5575.9l.954,5.383,9.459-5.413-.812-1.051-7.884,4.662-.756-3.869Z" transform="translate(-4001.54 -5573.485)" fill="#eb6d4e"/>
          </g>
          <g id="グループ_15528" data-name="グループ 15528" transform="translate(23.374 29.799)">
            <rect id="長方形_30229" data-name="長方形 30229" width="25.148" height="1.489" transform="translate(1.905 0) rotate(18.132)" fill="#15a58e"/>
            <rect id="長方形_30230" data-name="長方形 30230" width="25.148" height="1.489" transform="translate(0.463 4.403) rotate(18.132)" fill="#15a58e"/>
          </g>
          <g id="グループ_15529" data-name="グループ 15529" transform="translate(45.417 49.415)">
            <path id="パス_89297" data-name="パス 89297" d="M3874.295,5809.01l-3.444-1.128a2.646,2.646,0,0,1-1.69-3.335l1.128-3.444a2.646,2.646,0,0,1,3.335-1.689l3.444,1.128a2.646,2.646,0,0,1,1.69,3.335l-1.128,3.444A2.646,2.646,0,0,1,3874.295,5809.01Zm-.967-8.693a1.7,1.7,0,0,0-2.135,1.082l-1.128,3.444a1.694,1.694,0,0,0,1.082,2.135l3.444,1.128a1.7,1.7,0,0,0,2.135-1.082l1.128-3.444a1.7,1.7,0,0,0-1.082-2.135Z" transform="translate(-3869.029 -5799.282)" fill="#ccc"/>
            <path id="パス_89298" data-name="パス 89298" d="M3921.225,5828.675l.954,5.383,9.459-5.414-.811-1.05-7.884,4.662-.756-3.869Z" transform="translate(-3918.764 -5826.26)" fill="#eb6d4e"/>
          </g>
          <g id="グループ_15530" data-name="グループ 15530" transform="translate(19.473 41.713)">
            <rect id="長方形_30231" data-name="長方形 30231" width="25.148" height="1.489" transform="translate(1.905 0) rotate(18.132)" fill="#15a58e"/>
            <rect id="長方形_30232" data-name="長方形 30232" width="25.148" height="1.489" transform="translate(0.463 4.402) rotate(18.132)" fill="#15a58e"/>
          </g>
          <g id="グループ_15531" data-name="グループ 15531" transform="translate(41.531 61.283)">
            <path id="パス_89299" data-name="パス 89299" d="M3791.843,6060.791l-3.444-1.128a2.647,2.647,0,0,1-1.69-3.335l1.128-3.444a2.647,2.647,0,0,1,3.335-1.69l3.444,1.128a2.647,2.647,0,0,1,1.69,3.335l-1.128,3.444A2.647,2.647,0,0,1,3791.843,6060.791Zm-.967-8.693a1.694,1.694,0,0,0-2.135,1.082l-1.128,3.444a1.7,1.7,0,0,0,1.082,2.135l3.444,1.128a1.7,1.7,0,0,0,2.135-1.082l1.128-3.444a1.694,1.694,0,0,0-1.082-2.135Z" transform="translate(-3786.577 -6051.063)" fill="#ccc"/>
            <path id="パス_89300" data-name="パス 89300" d="M3838.771,6080.458l.954,5.383,9.459-5.414-.812-1.05-7.884,4.662-.756-3.87Z" transform="translate(-3836.312 -6078.042)" fill="#eb6d4e"/>
          </g>
          <g id="グループ_15532" data-name="グループ 15532" transform="translate(15.586 53.58)">
            <rect id="長方形_30233" data-name="長方形 30233" width="25.148" height="1.489" transform="translate(1.905 0) rotate(18.132)" fill="#15a58e"/>
            <rect id="長方形_30234" data-name="長方形 30234" width="25.148" height="1.489" transform="matrix(0.95, 0.311, -0.311, 0.95, 0.463, 4.402)" fill="#15a58e"/>
          </g>
        </g>
        <g id="グループ_15534" data-name="グループ 15534" transform="translate(2954.089 4785.519)">
          <path id="パス_89301" data-name="パス 89301" d="M4611.693,5486.159l1.361,1.432a.544.544,0,0,1-.784.745l-.694-.73-9.577,9.1a.487.487,0,1,1-.667-.7Z" transform="translate(-4569.882 -5486.159)" fill="#f7b52c"/>
          <rect id="長方形_30235" data-name="長方形 30235" width="6.709" height="4.367" transform="matrix(0.725, -0.689, 0.689, 0.725, 5.43, 37.253)" fill="#f39800"/>
          <path id="パス_89302" data-name="パス 89302" d="M4573.074,5506.243a2.266,2.266,0,0,1,3.181.27l.366.385a2.264,2.264,0,0,1,.106,3.19l-12.394,11.775a2.265,2.265,0,0,1-3.181-.269l-.366-.385a2.265,2.265,0,0,1-.106-3.19Z" transform="translate(-4530.74 -5504.788)"/>
          <path id="パス_89303" data-name="パス 89303" d="M3938.44,6258.207a.613.613,0,1,0,.505.53l5.107-2.2,3.421-3.25.008-.007-.13-.122-3.031-3.19-.19.181-3.278,3.114Z" transform="translate(-3937.725 -6213.968)" fill="#f7b52c"/>
          <path id="パス_89304" data-name="パス 89304" d="M4015.937,6359.271a.4.4,0,1,1-.015.565A.4.4,0,0,1,4015.937,6359.271Z" transform="translate(-4012.131 -6318.013)" fill="#fff"/>
          <path id="パス_89305" data-name="パス 89305" d="M3944.99,6365.583a.055.055,0,0,1,0,.078l-3.918,3.722a.054.054,0,0,1-.077,0,.055.055,0,0,1,0-.078l3.917-3.722A.055.055,0,0,1,3944.99,6365.583Z" transform="translate(-3940.825 -6324.117)" fill="#fff"/>
          <path id="パス_89306" data-name="パス 89306" d="M4110.681,5770.778c.848-.806,1.969-1,2.5-.441l1.625,1.711c.534.562.279,1.672-.569,2.478l-21.863,20.379c-.848.806-1.152.621-1.687.059l-1.626-1.711c-.534-.562-.7-.875.145-1.682Z" transform="translate(-4081.507 -5756.637)"/>
          <path id="パス_89307" data-name="パス 89307" d="M4562.229,5755.773a.968.968,0,0,1,1.333.195l2.907,3.06a.967.967,0,0,1,.126,1.341h0a.967.967,0,0,1-1.333-.194l-2.907-3.06a.966.966,0,0,1-.126-1.341Z" transform="translate(-4532.587 -5742.884)" fill="#f7b52c"/>
          <path id="パス_89308" data-name="パス 89308" d="M4082.6,6224.4a.768.768,0,0,1,1.086.028l2.663,2.8a.769.769,0,0,1-.028,1.086h0a.768.768,0,0,1-1.086-.028l-2.662-2.8a.768.768,0,0,1,.027-1.086Z" transform="translate(-4075.548 -6189.405)" fill="#f7b52c"/>
        </g>
      </g>
    </g>
  </g>
</svg>
