<svg xmlns="http://www.w3.org/2000/svg" xmlns:xlink="http://www.w3.org/1999/xlink" width="140" height="140" viewBox="0 0 140 140">
  <defs>
    <clipPath id="clip-path">
      <circle id="楕円形_475" data-name="楕円形 475" cx="70" cy="70" r="70" transform="translate(0 0.477)" fill="#f7f3e5"/>
    </clipPath>
  </defs>
  <g id="demerit_obj13" transform="translate(0 -0.477)">
    <circle id="楕円形_23" data-name="楕円形 23" cx="70" cy="70" r="70" transform="translate(0 0.477)" fill="#f7f3e5"/>
    <g id="マスクグループ_79" data-name="マスクグループ 79" clip-path="url(#clip-path)">
      <g id="グループ_15497" data-name="グループ 15497" transform="translate(-774.793 -906.354)">
        <g id="グループ_15488" data-name="グループ 15488" transform="translate(785.267 926.704)">
          <g id="グループ_15487" data-name="グループ 15487">
            <g id="グループ_15486" data-name="グループ 15486">
              <path id="パス_88997" data-name="パス 88997" d="M1023.913,1042.679c1.436,1.116-2,2.093-2.746,2.055-1.874-.1-4.283-1.969-5.179-3.6-1.766-3.214-.147-9.437,2.85-11.386a7.049,7.049,0,0,1,5.377-1.115,2.145,2.145,0,0,1,1.342,3.08c2.32-2.211,4.647.208,5.094,1.33.53,1.323.384,3.971-1.524,3.973,1.09.305.931,2.331.627,3.175-.829,2.294-3.655,2.813-5.74,2.664C1024,1042.881,1023.9,1042.667,1023.913,1042.679Z" transform="translate(-954.545 -998.346)" fill="#db604c"/>
              <path id="パス_88998" data-name="パス 88998" d="M1001.674,1085.807l7.524-.155a11.474,11.474,0,0,1-2.439-2.018c-1.966-1.847-2.89-14.9-2.89-14.9h-2.425v0h-2.426s-.923,13.053-2.886,14.9l-1.964,1.849,7.047.324v.022l.23-.011.23.011Z" transform="translate(-939.7 -1026.676)" fill="#edbf98"/>
              <path id="パス_88999" data-name="パス 88999" d="M1090.674,1295.4c0,2.722,2.521,8.912,4.837,8.912s4.19-2.2,4.19-4.928-1.876-4.927-4.19-4.927S1090.674,1292.68,1090.674,1295.4Z" transform="translate(-1007.63 -1185.156)" fill="#edbf98"/>
              <path id="パス_89000" data-name="パス 89000" d="M1059.2,1136.843s2.82.619,7.426,8.882,9.414,39.385,9.414,39.385l-7.569,2.39Z" transform="translate(-985.474 -1074.616)" fill="#e8d22d"/>
              <g id="グループ_15484" data-name="グループ 15484" transform="translate(85.686 66.405)">
                <path id="パス_89001" data-name="パス 89001" d="M1151.582,1155.883c2.576-1.62,9.317-4.89,9.225-3.822,0,.137-.062.39-.046.471,1.126-.689,2.546-1.635,3.9-1.577.373.757-2.755,2.388-3.291,2.828a5.48,5.48,0,0,1,1.28-.123c.107.458-.378.694-.7.9-1.505.945-2.6,1.6-4.109,2.536-.786.486-1.522,1.04-2.27,1.581-.162.119-.923.491-.739.783.156.244,1.019-.1,1.242-.189a5.82,5.82,0,0,0,1.487-.928c.644-.55,1.717-1.447,2.637-1.223.787.193.112.593-.324.94-.539.429-1.106.8-1.617,1.252-.4.36-.733.9-1.158,1.2a14.677,14.677,0,0,1-2.652,1.127c-1.079.448-2.164.816-3.2,1.361a10.448,10.448,0,0,0-1.979,1.012c-.573.48-1.152.987-1.724,1.485a21,21,0,0,0-2.027,2.015,19.726,19.726,0,0,0-2.519,4.765c-.952-.641-2.311-.641-3.409-1.018a23.324,23.324,0,0,1,1.169-3.017,9.877,9.877,0,0,0,.858-1.841,11.235,11.235,0,0,0,.6-2.191c.02-.68-.26-1.29-.281-1.93a4.114,4.114,0,0,1,.6-1.688c.278-.614.576-1.215.838-1.844a21.535,21.535,0,0,0,1.641-3.742c.1-.484.718-2.481,1.077-1,.3,1.241.133,2.506.354,3.728.144.791.866.359,1.49.1A24.8,24.8,0,0,0,1151.582,1155.883Z" transform="translate(-1127.744 -1150.952)" fill="#edbf98"/>
                <path id="パス_89002" data-name="パス 89002" d="M1105.417,1233.448l11.328-33.533-2.61-3.327-14.538,34.521Z" transform="translate(-1099.598 -1183.074)" fill="#edbf98"/>
              </g>
              <path id="パス_89003" data-name="パス 89003" d="M994.049,1176.781l-.812-6.009.45-39.506L985.154,1124l-14.865.24-9.3,7.6,2.173,40.726-.407,3.472Z" transform="translate(-916.345 -1065.575)" fill="#e8d22d"/>
              <path id="パス_89004" data-name="パス 89004" d="M996.723,1185.747,994.261,1170l-1.756-41.726-5.3-4.095-1.218,19.416H973.159l-1.219-19.416-5.295,4.095-1.34,40.829-2.227,16.727Z" transform="translate(-917.818 -1065.701)" fill="#a01a22"/>
              <path id="パス_89005" data-name="パス 89005" d="M997.533,968.061c-1.216,7.626-8.843,14.591-8.843,14.591l-15.474-.112s-6.824-6.3-6.681-13.045a39.18,39.18,0,0,1,.605-6.518,12.774,12.774,0,0,1,2.3-5.682c2.718-3.279,6.861-4.674,10.127-5.264a26.978,26.978,0,0,1,3.7-.389c.8-.03,1.293,0,1.293,0l.072.015,3.178.833a12.449,12.449,0,0,1,1.226.633C992.011,954.819,999.048,958.554,997.533,968.061Z" transform="translate(-920.249 -944.248)" fill="#db604c"/>
              <path id="パス_89006" data-name="パス 89006" d="M997.754,1000.024A12.981,12.981,0,1,1,984.5,987.681,12.81,12.81,0,0,1,997.754,1000.024Z" transform="translate(-923.96 -969.622)" fill="#edbf98"/>
              <path id="パス_89007" data-name="パス 89007" d="M1060.822,1019.53a4.11,4.11,0,1,1-4.2-4.021A4.112,4.112,0,0,1,1060.822,1019.53Z" transform="translate(-980.832 -989.211)" fill="#edbf98"/>
              <path id="パス_89008" data-name="パス 89008" d="M970.406,976.1a23.526,23.526,0,0,0-.958,4.122c-.1.8-.567,2.694.02,3.349.834-1.135,1.186-2.61,2.159-3.687a34.3,34.3,0,0,1,4.19-4,7.423,7.423,0,0,1-.6,2.557,17.526,17.526,0,0,0,4.96-4c1.269,1.975,3.8,3.349,5.692,4.561,1.662,1.063,4.14,2.743,6.11,3.048-.723-1.661-1.907-3.15-2.134-5.02,1.249,1.455,1.942,3.438,3.242,4.943a11.865,11.865,0,0,0,3.646,3.362c1.391-2.911,2.5-5.57,1.839-9a14.728,14.728,0,0,0-3.75-6.792,12.07,12.07,0,0,0-6.33-3.364c-.779-.186-1.9.046-2.636-.365a3.866,3.866,0,0,0-2.068-.478,14.9,14.9,0,0,0-9.786,4.174C972.011,971.3,971.224,973.5,970.406,976.1Z" transform="translate(-922.111 -953.895)" fill="#db604c"/>
              <path id="パス_89009" data-name="パス 89009" d="M993.8,1016.147a1.3,1.3,0,0,1-.628,1.653,1.143,1.143,0,0,1-1.535-.673,1.3,1.3,0,0,1,.632-1.651A1.143,1.143,0,0,1,993.8,1016.147Z" transform="translate(-937.854 -989.119)"/>
              <path id="パス_89010" data-name="パス 89010" d="M1025.388,1016.147a1.3,1.3,0,0,1-.628,1.653,1.146,1.146,0,0,1-1.537-.673,1.3,1.3,0,0,1,.633-1.651A1.144,1.144,0,0,1,1025.388,1016.147Z" transform="translate(-960.09 -989.119)"/>
              <path id="パス_89011" data-name="パス 89011" d="M1010.355,1025.178a.3.3,0,0,1-.221-.1c-.11-.116-.233-.226-.353-.332a1.861,1.861,0,0,1-.833-1.482,12.29,12.29,0,0,1,.809-2.6c.191-.514.371-1,.426-1.214a.305.305,0,0,1,.591.15c-.063.246-.24.723-.445,1.276a14.427,14.427,0,0,0-.77,2.409c-.012.419.219.645.628,1.009.129.115.263.234.391.369a.305.305,0,0,1-.221.515Z" transform="translate(-950.105 -991.824)"/>
              <path id="パス_89012" data-name="パス 89012" d="M997.483,950.829l-.966,3.393c-.2-.588-.445-1.179-.661-1.682a38.926,38.926,0,0,0-2.115-4.446c-1.711-3.107-3.941-6.286-7.134-8.113-5.135-2.935-11.292-.445-15.118,3.524a15.153,15.153,0,0,0-2.043,2.633,33.268,33.268,0,0,0-2.373,4.472c-.187.433-.36.879-.532,1.34a27.928,27.928,0,0,1,.605-5.515c.618-.964,2.716-5.017,6.4-7.434A17.138,17.138,0,0,1,978,936.99c.993-.3,3.02-.663,3.986-.131a6.388,6.388,0,0,1-2.418-2.372.365.365,0,0,1-.086-.118,7.625,7.625,0,0,1-.216-7.665c1.569,1.266,2.835,3.782,3.554,5.623a8.6,8.6,0,0,1,.418,1.54,1.391,1.391,0,0,1,.029.231,26.621,26.621,0,0,0,.575,3.293,10.678,10.678,0,0,1,.79-3.277,9.967,9.967,0,0,1,.762-1.513c1.295-2.114,6.5-4.862,6.5-4.862s1.036-1.31,0,4.129a5.127,5.127,0,0,1-1.625,2.777,7.879,7.879,0,0,1-1.236.934,14.059,14.059,0,0,1-3.9,1.6c4.143-.69,7.738,3.943,9.523,6.933A28.458,28.458,0,0,1,997.483,950.829Z" transform="translate(-920.255 -926.704)" fill="#5462ab"/>
              <path id="パス_89013" data-name="パス 89013" d="M1018.419,982.014a.368.368,0,0,1-.237-.085,5.051,5.051,0,0,1-.654-.662.372.372,0,1,1,.571-.477,4.327,4.327,0,0,0,.557.565.372.372,0,0,1-.238.658Zm-1.782-2.419a.372.372,0,0,1-.326-.192c-.085-.154-.165-.3-.242-.444l-.172-.318a.372.372,0,0,1,.655-.353l.172.317c.076.14.155.287.239.439a.372.372,0,0,1-.325.552Zm-1.323-2.714a.373.373,0,0,1-.347-.238c-.108-.282-.207-.564-.292-.839a.372.372,0,1,1,.71-.221c.081.259.174.526.276.792a.373.373,0,0,1-.347.506Zm-.709-2.926a.372.372,0,0,1-.37-.34c-.021-.246-.032-.494-.032-.735,0-.055,0-.111,0-.167a.372.372,0,0,1,.372-.364h.008a.372.372,0,0,1,.364.38c0,.05,0,.1,0,.15,0,.221.01.447.029.672a.373.373,0,0,1-.339.4Z" transform="translate(-953.804 -958.833)" fill="#fd762f"/>
              <path id="パス_89014" data-name="パス 89014" d="M1035.085,988.7a.371.371,0,0,1-.233-.082c-.049-.039-.1-.079-.142-.121a.372.372,0,1,1,.5-.551c.035.032.071.063.109.093a.372.372,0,0,1-.234.662Zm-1.206-1.947a.372.372,0,0,1-.351-.25c-.091-.263-.173-.53-.254-.794l-.013-.042a.372.372,0,1,1,.712-.218l.013.043c.077.255.157.513.245.767a.373.373,0,0,1-.351.494Zm-.972-2.86a.372.372,0,0,1-.349-.244q-.148-.4-.3-.8a.372.372,0,1,1,.693-.27q.158.406.307.815a.372.372,0,0,1-.221.477A.365.365,0,0,1,1032.907,983.892Zm-1.172-2.771a.387.387,0,0,1-.325-.178c-.007-.011-.019-.032-.025-.043-.129-.245-.262-.493-.4-.737a.372.372,0,1,1,.652-.358q.2.372.406.755a.364.364,0,0,1-.119.506A.359.359,0,0,1,1031.735,981.121Zm-1.519-2.622a.374.374,0,0,1-.313-.17q-.231-.357-.474-.7a.372.372,0,1,1,.608-.429q.252.358.491.727a.372.372,0,0,1-.312.574Zm-1.822-2.405a.372.372,0,0,1-.278-.124c-.187-.209-.381-.416-.578-.615a.372.372,0,0,1,.529-.523c.206.208.409.424.6.642a.372.372,0,0,1-.277.619Z" transform="translate(-963.114 -960.502)" fill="#fd762f"/>
              <path id="パス_89015" data-name="パス 89015" d="M973.9,991.243h-.035a.373.373,0,0,1-.336-.405,9,9,0,0,1,.132-.891.372.372,0,0,1,.73.144,8.249,8.249,0,0,0-.121.816A.372.372,0,0,1,973.9,991.243Zm.73-2.924a.378.378,0,0,1-.13-.024.372.372,0,0,1-.218-.478c.1-.267.209-.542.327-.818a.372.372,0,0,1,.684.291c-.113.266-.219.53-.314.786A.373.373,0,0,1,974.629,988.319Zm1.266-2.742a.372.372,0,0,1-.326-.551q.21-.385.435-.762a.372.372,0,0,1,.639.381q-.218.364-.421.738A.373.373,0,0,1,975.895,985.576Zm1.617-2.552a.372.372,0,0,1-.3-.592q.264-.361.534-.7a.372.372,0,0,1,.581.465q-.26.325-.515.673A.372.372,0,0,1,977.512,983.025Zm1.988-2.272a.372.372,0,0,1-.251-.646c.234-.214.467-.408.692-.576a.372.372,0,0,1,.445.6,8.189,8.189,0,0,0-.634.529A.37.37,0,0,1,979.5,980.753Z" transform="translate(-925.173 -963.835)" fill="#fd762f"/>
              <path id="パス_89020" data-name="パス 89020" d="M1015.339,1072.43h-3.073a.517.517,0,1,1,0-1.034h3.073a.517.517,0,1,1,0,1.034Z" transform="translate(-952.076 -1028.55)" fill="#c48e61"/>
              <path id="パス_89021" data-name="パス 89021" d="M922.457,1295.4c0,2.722-2.522,8.912-4.836,8.912s-4.192-2.2-4.192-4.928,1.877-4.927,4.192-4.927S922.457,1292.68,922.457,1295.4Z" transform="translate(-882.871 -1185.156)" fill="#edbf98"/>
              <path id="パス_89022" data-name="パス 89022" d="M935.369,1138.515s-2.825.124-7.431,8.387-9.415,39.385-9.415,39.385l7.569,2.39Z" transform="translate(-886.457 -1075.793)" fill="#e8d22d"/>
              <g id="グループ_15485" data-name="グループ 15485" transform="translate(0 66.405)">
                <path id="パス_89023" data-name="パス 89023" d="M823.341,1155.883c-2.576-1.62-9.318-4.89-9.226-3.822,0,.137.062.39.046.471-1.126-.689-2.548-1.635-3.9-1.577-.372.757,2.757,2.388,3.291,2.828a5.473,5.473,0,0,0-1.279-.123c-.108.458.377.694.7.9,1.5.945,2.6,1.6,4.108,2.536.785.486,1.523,1.04,2.271,1.581.161.119.923.491.738.783-.156.244-1.019-.1-1.241-.189a5.774,5.774,0,0,1-1.486-.928c-.645-.55-1.718-1.447-2.639-1.223-.786.193-.111.593.324.94.54.429,1.106.8,1.618,1.252.4.36.732.9,1.159,1.2a14.656,14.656,0,0,0,2.652,1.127c1.077.448,2.162.816,3.2,1.361a10.445,10.445,0,0,1,1.979,1.012c.573.48,1.153.987,1.723,1.485a20.756,20.756,0,0,1,2.027,2.015,19.721,19.721,0,0,1,2.52,4.765c.952-.641,2.31-.641,3.41-1.018a23.372,23.372,0,0,0-1.17-3.017,9.918,9.918,0,0,1-.858-1.841,11.188,11.188,0,0,1-.6-2.191c-.021-.68.259-1.29.28-1.93a4.134,4.134,0,0,0-.6-1.688c-.28-.614-.576-1.215-.839-1.844a21.5,21.5,0,0,1-1.64-3.742c-.1-.484-.718-2.481-1.077-1-.3,1.241-.133,2.506-.354,3.728-.143.791-.867.359-1.489.1A24.689,24.689,0,0,1,823.341,1155.883Z" transform="translate(-810.235 -1150.952)" fill="#edbf98"/>
                <path id="パス_89024" data-name="パス 89024" d="M888.413,1233.448l-11.329-33.533,2.611-3.327,14.537,34.521Z" transform="translate(-857.289 -1183.074)" fill="#edbf98"/>
              </g>
              <path id="パス_89025" data-name="パス 89025" d="M830.6,1165.2a.368.368,0,0,1-.16-.036l-9.25-4.417a.372.372,0,1,1,.32-.671l9.249,4.416a.372.372,0,0,1-.161.708Z" transform="translate(-817.799 -1090.943)" fill="#c48e61"/>
              <path id="パス_89026" data-name="パス 89026" d="M834.636,1161.666a.371.371,0,0,1-.16-.036l-9.251-4.416a.372.372,0,0,1,.32-.672l9.251,4.416a.372.372,0,0,1-.161.708Z" transform="translate(-820.637 -1088.456)" fill="#c48e61"/>
              <path id="パス_89027" data-name="パス 89027" d="M1006.968,1052.256a.324.324,0,0,1-.319-.271,1.52,1.52,0,0,1-.021-.255,2.3,2.3,0,0,1,4.519,0,1.729,1.729,0,0,1-.011.185.324.324,0,1,1-.644-.073.955.955,0,0,0,.007-.112,1.673,1.673,0,0,0-3.222,0,.918.918,0,0,0,.011.148.324.324,0,0,1-.266.373A.336.336,0,0,1,1006.968,1052.256Z" transform="translate(-948.472 -1013.391)" fill="#d21337"/>
            </g>
            <path id="パス_89028" data-name="パス 89028" d="M1179.563,1165.2a.372.372,0,0,1-.161-.708l9.249-4.416a.372.372,0,0,1,.321.672l-9.249,4.417A.37.37,0,0,1,1179.563,1165.2Z" transform="translate(-1069.935 -1090.943)" fill="#c48e61"/>
            <path id="パス_89029" data-name="パス 89029" d="M1175.522,1161.666a.372.372,0,0,1-.161-.708l9.25-4.416a.372.372,0,0,1,.32.672l-9.25,4.416A.369.369,0,0,1,1175.522,1161.666Z" transform="translate(-1067.091 -1088.456)" fill="#c48e61"/>
          </g>
          <path id="パス_89030" data-name="パス 89030" d="M1000.155,1297.136l-7.891-2.414-.466,6.127,8.356-2.415,8.354,2.322.093-6.218Z" transform="translate(-938.034 -1185.614)" fill="#841f25"/>
        </g>
        <g id="グループ_15492" data-name="グループ 15492" transform="translate(783.445 941.639)">
          <path id="パス_89031" data-name="パス 89031" d="M902.9,963.861c-.854.484-2.234.7-2.537-.594-.193-.822.368-1.406.716-2.1a37.252,37.252,0,0,1,2.47-4.6c1.605-2.3,4.007-4.035,6.82-2.581a8.165,8.165,0,0,1,3.478,3.245,4.579,4.579,0,0,1,.993,2.913c-.2,1.7-3.934-.512-4.718-.757.4.547,1.355,2.234.436,2.7-.773.39-1.513-.758-2.142-.974-.111,1.081.474,2.561-1.194,2.554-1.008,0-1.53-1.118-2.444-1.125C904.141,962.542,903.458,963.544,902.9,963.861Z" transform="translate(-869.502 -953.456)" fill="#b1ddc0"/>
          <path id="パス_89032" data-name="パス 89032" d="M787.482,1002.425c.953-.239,2.1-1.036,1.427-2.18-.427-.729-1.237-.764-1.965-1.025a37.324,37.324,0,0,0-4.96-1.623c-2.752-.56-5.685-.156-6.718,2.838a8.158,8.158,0,0,0-.278,4.748,4.574,4.574,0,0,0,1.291,2.794c1.319,1.092,2.494-3.085,2.892-3.8.086.675.561,2.552,1.546,2.254.828-.251.573-1.592.878-2.182.827.706,1.424,2.18,2.627,1.025.727-.7.335-1.865.993-2.5C785.67,1002.329,786.856,1002.583,787.482,1002.425Z" transform="translate(-774.763 -986.601)" fill="#b1ddc0"/>
          <g id="グループ_15499" data-name="グループ 15499" transform="matrix(0.966, -0.259, 0.259, 0.966, 11.749, 4.402)">
            <path id="パス_547" data-name="パス 547" d="M2,2.247l.089-.872h0a1.445,1.445,0,0,1-.557-.224A1.6,1.6,0,0,1,.866,0L0,.133A2.444,2.444,0,0,0,1.1,1.911,2.256,2.256,0,0,0,2,2.247Z" transform="translate(9.121 1.612)" fill="#bfdce4"/>
            <path id="パス_548" data-name="パス 548" d="M1.07,0A1.07,1.07,0,1,1,0,1.07,1.07,1.07,0,0,1,1.07,0ZM.535,1.07A.535.535,0,1,0,1.07.535.535.535,0,0,0,.535,1.07Z" transform="translate(0.016 7.663)" fill="#aacdd6"/>
            <path id="パス_549" data-name="パス 549" d="M14.623,4.613A5.128,5.128,0,0,0,12.8.937C11.594.006,9.85,0,7.334,0S3.075.006,1.868.937A5.128,5.128,0,0,0,.045,4.613,7.42,7.42,0,0,0,.256,7.28l7.009-.072H7.4l7.009.072A7.419,7.419,0,0,0,14.623,4.613Z" transform="translate(1.169 2.659)" fill="#aacdd6"/>
            <path id="パス_550" data-name="パス 550" d="M.289,2.3a12.617,12.617,0,0,0,.753,2.8,10.392,10.392,0,0,0,.606,1.311,5.612,5.612,0,0,0,.541.815l1.858-.019h.14l2.958.03a3.023,3.023,0,0,0,.1-.531A9.011,9.011,0,0,0,7.247,5.52a13.527,13.527,0,0,1,.016-1.565c.021-.267.054-.533.1-.8s.118-.544.177-.816c.108-.5.2-1,.328-1.493.053-.2.112-.4.179-.6A18.46,18.46,0,0,0,4.117,0,16.872,16.872,0,0,0,0,.293C.14.955.194,1.634.289,2.3Z" transform="translate(4.386 2.659)" fill="#bfdce4"/>
            <path id="パス_551" data-name="パス 551" d="M6.749,5.891H6.6l-6.48.067A6.417,6.417,0,0,1,.04,4.039a6.655,6.655,0,0,1,.4-1.675A3.647,3.647,0,0,1,1.611.8,3.827,3.827,0,0,1,3.537.114,25.9,25.9,0,0,1,6.676,0,25.9,25.9,0,0,1,9.815.114,3.827,3.827,0,0,1,11.741.8a3.647,3.647,0,0,1,1.176,1.564,6.656,6.656,0,0,1,.4,1.675,6.385,6.385,0,0,1-.081,1.918Z" transform="translate(1.828 3.422)" fill="#b99d5f"/>
            <path id="パス_552" data-name="パス 552" d="M2.074,1.037A1.037,1.037,0,1,1,1.037,0,1.037,1.037,0,0,1,2.074,1.037Z" transform="translate(8.429 0.187)" fill="#bfdce4"/>
            <ellipse id="楕円形_17" data-name="楕円形 17" cx="0.83" cy="0.83" rx="0.83" ry="0.83" transform="translate(8.216 1.173) rotate(-45)" fill="#dbecf0"/>
            <path id="パス_553" data-name="パス 553" d="M0,.3A.3.3,0,1,0,.3,0,.3.3,0,0,0,0,.3Z" transform="translate(9.392 0.723)" fill="#fff"/>
            <path id="パス_554" data-name="パス 554" d="M16.669,6.57a35.9,35.9,0,0,1-1.752-3.405A4.134,4.134,0,0,0,11.657,0H5.35A4.134,4.134,0,0,0,2.091,3.165,35.917,35.917,0,0,1,.339,6.57c-.379.785-.876,3.956,1.226,4.85a13.547,13.547,0,0,0,1.355.5,9.947,9.947,0,0,0,5.618,1.355c2.5,0,4.653-.568,5.663-1.39.387-.123.792-.276,1.241-.467C17.545,10.526,17.047,7.354,16.669,6.57Z" transform="translate(0 4.053)" fill="#ffce00"/>
            <g id="グループ_311" data-name="グループ 311" transform="translate(0 4.053)">
              <path id="パス_555" data-name="パス 555" d="M16.738,0C16.016,2.507,12.6,4.406,8.5,4.406S.991,2.507.269,0c-.36.993-.679,3.842,1.3,4.682a13.472,13.472,0,0,0,1.355.5A9.942,9.942,0,0,0,8.539,6.54c2.5,0,4.653-.568,5.663-1.39.387-.123.792-.276,1.241-.467C17.417,3.842,17.1.993,16.738,0Z" transform="translate(0 6.737)" fill="#edbf00"/>
              <path id="パス_556" data-name="パス 556" d="M11.663,1.874A3.676,3.676,0,0,0,8.985,0H2.678A3.676,3.676,0,0,0,0,1.874,11.135,11.135,0,0,1,5.832.35,11.135,11.135,0,0,1,11.663,1.874Z" transform="translate(2.672 0)" fill="#d92d1b"/>
            </g>
            <path id="パス_557" data-name="パス 557" d="M.094,2.247,0,1.375H0a1.436,1.436,0,0,0,.557-.224A1.6,1.6,0,0,0,1.229,0L2.1.133A2.444,2.444,0,0,1,1,1.911,2.254,2.254,0,0,1,.094,2.247Z" transform="translate(5.371 2.498)" fill="#bfdce4"/>
            <g id="グループ_312" data-name="グループ 312" transform="translate(1.046 3.765)">
              <path id="パス_558" data-name="パス 558" d="M4.3,1.39h6.308a3.638,3.638,0,0,1,3.259,2.555A4.879,4.879,0,0,0,14.94,5.592a6.372,6.372,0,0,0-.193-1.531A4.366,4.366,0,0,0,12.921.806C11.714,0,10.049,0,7.533,0S3.218,0,2.011.806A4.393,4.393,0,0,0,.169,4.061,5.84,5.84,0,0,0,.015,5.547a3.521,3.521,0,0,0,1.03-1.6A3.638,3.638,0,0,1,4.3,1.39Z" transform="translate(0 0)" fill="#bfdce4"/>
            </g>
            <g id="グループ_313" data-name="グループ 313" transform="translate(5.997 1.527)">
              <path id="パス_559" data-name="パス 559" d="M0,1.037A1.037,1.037,0,1,0,1.037,0,1.037,1.037,0,0,0,0,1.037Z" transform="translate(0 0)" fill="#bfdce4"/>
              <ellipse id="楕円形_18" data-name="楕円形 18" cx="0.83" cy="0.83" rx="0.83" ry="0.83" transform="translate(0.225 0.213) rotate(-5.204)" fill="#dbecf0"/>
              <path id="パス_560" data-name="パス 560" d="M0,.3A.3.3,0,1,0,.3,0,.3.3,0,0,0,0,.3Z" transform="translate(1.164 0.514)" fill="#fff"/>
            </g>
          </g>
        </g>
        <g id="グループ_15496" data-name="グループ 15496" transform="translate(867.438 941.639)">
          <path id="パス_89051" data-name="パス 89051" d="M1193.193,1044.768c-.892-.449-1.855-1.495-.934-2.482.587-.629,1.4-.485,2.18-.582a37.917,37.917,0,0,1,5.288-.512c2.857.054,5.681,1.106,6.044,4.308a8.315,8.315,0,0,1-.777,4.779,4.658,4.658,0,0,1-1.9,2.489c-1.552.792-1.793-3.618-2.03-4.42-.234.65-1.124,2.411-2.035,1.9-.768-.433-.216-1.709-.39-2.363-.977.519-1.9,1.85-2.836.436-.567-.855.081-1.927-.432-2.705C1195.014,1045.075,1193.78,1045.064,1193.193,1044.768Z" transform="translate(-1165.862 -1018.713)" fill="#b1ddc0"/>
          <path id="パス_89052" data-name="パス 89052" d="M1098.767,962.857c.741.671,2.064,1.19,2.652-.026.374-.773-.055-1.479-.246-2.243a37.941,37.941,0,0,0-1.434-5.115c-1.084-2.644-3.086-4.9-6.2-4.076a8.3,8.3,0,0,0-4.174,2.452,4.649,4.649,0,0,0-1.633,2.673c-.178,1.734,4.021.365,4.855.294-.522.455-1.842,1.919-1.032,2.584.681.559,1.672-.416,2.343-.492-.129,1.1-1.038,2.438.62,2.8,1,.22,1.767-.772,2.678-.576C1097.822,961.271,1098.279,962.418,1098.767,962.857Z" transform="translate(-1087.723 -951.225)" fill="#b1ddc0"/>
          <g id="グループ_15500" data-name="グループ 15500" transform="matrix(-0.839, -0.545, 0.545, -0.839, 24.734, 26.349)">
            <path id="パス_547-2" data-name="パス 547" d="M2.037,0l.091.887h0a1.47,1.47,0,0,0-.567.228A1.63,1.63,0,0,0,.882,2.287L0,2.151A2.488,2.488,0,0,1,1.118.342,2.294,2.294,0,0,1,2.037,0Z" transform="translate(9.284 13.713)" fill="#bfdce4"/>
            <path id="パス_548-2" data-name="パス 548" d="M1.089,2.179A1.089,1.089,0,1,0,0,1.089,1.089,1.089,0,0,0,1.089,2.179ZM.545,1.089a.545.545,0,1,1,.545.545A.545.545,0,0,1,.545,1.089Z" transform="translate(0.017 7.662)" fill="#aacdd6"/>
            <path id="パス_549-2" data-name="パス 549" d="M14.885,2.714A5.22,5.22,0,0,1,13.03,6.456c-1.229.948-3,.954-5.564.954S3.13,7.4,1.9,6.456A5.22,5.22,0,0,1,.046,2.714,7.553,7.553,0,0,1,.26,0L7.394.073h.143L14.671,0A7.552,7.552,0,0,1,14.885,2.714Z" transform="translate(1.19 7.524)" fill="#aacdd6"/>
            <path id="パス_550-2" data-name="パス 550" d="M.294,5.023A12.845,12.845,0,0,1,1.06,2.175,10.581,10.581,0,0,1,1.677.841,5.712,5.712,0,0,1,2.228.012L4.12.031h.143L7.273,0a3.078,3.078,0,0,1,.1.54,9.162,9.162,0,0,1,.006,1.208,13.776,13.776,0,0,0,.016,1.593c.022.272.055.543.1.811s.12.554.18.831c.11.507.2,1.017.334,1.52.054.207.114.412.182.614a18.787,18.787,0,0,1-4,.25A17.172,17.172,0,0,1,0,7.07C.143,6.4.2,5.7.294,5.023Z" transform="translate(4.465 7.567)" fill="#bfdce4"/>
            <path id="パス_551-2" data-name="パス 551" d="M6.87.068H6.72L.124,0A6.531,6.531,0,0,0,.041,1.953a6.772,6.772,0,0,0,.4,1.705A3.712,3.712,0,0,0,1.64,5.25a3.9,3.9,0,0,0,1.96.7A26.347,26.347,0,0,0,6.8,6.064,26.347,26.347,0,0,0,9.99,5.948a3.9,3.9,0,0,0,1.96-.7,3.711,3.711,0,0,0,1.2-1.592,6.774,6.774,0,0,0,.4-1.705A6.5,6.5,0,0,0,13.467,0Z" transform="translate(1.86 8.093)" fill="#b99d5f"/>
            <path id="パス_552-2" data-name="パス 552" d="M2.111,1.056A1.056,1.056,0,1,0,1.056,2.111,1.056,1.056,0,0,0,2.111,1.056Z" transform="translate(8.579 15.339)" fill="#bfdce4"/>
            <ellipse id="楕円形_17-2" data-name="楕円形 17" cx="0.844" cy="0.844" rx="0.844" ry="0.844" transform="translate(9.558 15.252) rotate(45)" fill="#dbecf0"/>
            <path id="パス_553-2" data-name="パス 553" d="M0,.3A.3.3,0,1,1,.3.6.3.3,0,0,1,0,.3Z" transform="translate(9.559 16.3)" fill="#fff"/>
            <path id="パス_554-2" data-name="パス 554" d="M16.967,6.827a36.538,36.538,0,0,0-1.783,3.466,4.208,4.208,0,0,1-3.317,3.221H5.445a4.208,4.208,0,0,1-3.317-3.221A36.549,36.549,0,0,0,.345,6.827c-.385-.8-.892-4.027,1.248-4.937a13.784,13.784,0,0,1,1.38-.512A10.124,10.124,0,0,1,8.691,0c2.542,0,4.736.578,5.764,1.415.394.125.806.281,1.263.475C17.858,2.8,17.352,6.029,16.967,6.827Z" transform="translate(0 0)" fill="#ffce00"/>
            <g id="グループ_311-2" data-name="グループ 311" transform="translate(0 0)">
              <path id="パス_555-2" data-name="パス 555" d="M17.037,6.657C16.3,4.1,12.829,2.172,8.656,2.172S1.009,4.1.274,6.657c-.366-1.01-.691-3.911,1.319-4.766a13.748,13.748,0,0,1,1.38-.512A10.121,10.121,0,0,1,8.691,0c2.542,0,4.736.578,5.764,1.415.394.125.806.281,1.263.475C17.729,2.746,17.4,5.646,17.037,6.657Z" transform="translate(0 0)" fill="#edbf00"/>
              <path id="パス_556-2" data-name="パス 556" d="M11.872,0A3.741,3.741,0,0,1,9.146,1.907H2.726A3.741,3.741,0,0,1,0,0,11.334,11.334,0,0,0,5.936,1.55,11.334,11.334,0,0,0,11.872,0Z" transform="translate(2.72 11.608)" fill="#d92d1b"/>
            </g>
            <path id="パス_557-2" data-name="パス 557" d="M.1,0,0,.887H0a1.464,1.464,0,0,1,.567.228,1.63,1.63,0,0,1,.684,1.172l.882-.135A2.488,2.488,0,0,0,1.015.342,2.293,2.293,0,0,0,.1,0Z" transform="translate(5.467 12.811)" fill="#bfdce4"/>
            <g id="グループ_312-2" data-name="グループ 312" transform="translate(1.065 8.116)">
              <path id="パス_558-2" data-name="パス 558" d="M4.381,4.277H10.8a3.7,3.7,0,0,0,3.317-2.6A4.966,4.966,0,0,1,15.207,0a6.485,6.485,0,0,1-.2,1.559,4.443,4.443,0,0,1-1.858,3.313c-1.229.819-2.924.821-5.484.821s-4.392,0-5.621-.821A4.471,4.471,0,0,1,.172,1.559,5.944,5.944,0,0,1,.016.046a3.585,3.585,0,0,1,1.048,1.63A3.7,3.7,0,0,0,4.381,4.277Z" transform="translate(0 0)" fill="#bfdce4"/>
            </g>
            <g id="グループ_313-2" data-name="グループ 313" transform="translate(6.104 13.974)">
              <path id="パス_559-2" data-name="パス 559" d="M0,1.056A1.056,1.056,0,1,1,1.056,2.111,1.056,1.056,0,0,1,0,1.056Z" transform="translate(0 0)" fill="#bfdce4"/>
              <ellipse id="楕円形_18-2" data-name="楕円形 18" cx="0.844" cy="0.844" rx="0.844" ry="0.844" transform="translate(0.382 0.212) rotate(5.204)" fill="#dbecf0"/>
              <path id="パス_560-2" data-name="パス 560" d="M0,.3A.3.3,0,1,1,.3.6.3.3,0,0,1,0,.3Z" transform="translate(1.185 0.983)" fill="#fff"/>
            </g>
          </g>
        </g>
        <path id="パス_89070" data-name="パス 89070" d="M1026.022,1003.889a.964.964,0,0,1-.344-.067,1.782,1.782,0,0,1-.937-.983,3.067,3.067,0,0,1-1.642-.727.743.743,0,0,1-.028-1.071.3.3,0,0,1,.456.4c-.061.069-.114.129.05.283a2.4,2.4,0,0,0,1.138.482,1.078,1.078,0,0,1,.557-.811c.126-.043.447-.1.724.348.344.552.03.856-.075.936a1.007,1.007,0,0,1-.487.175,1.1,1.1,0,0,0,.461.394c.158.06.224,0,.255-.026a.3.3,0,1,1,.408.453A.786.786,0,0,1,1026.022,1003.889Zm-.582-1.874a.915.915,0,0,0-.11.244.417.417,0,0,0,.217-.057c-.007-.005-.018-.05-.069-.132C1025.464,1002.047,1025.451,1002.029,1025.44,1002.015Z" transform="translate(-174.627 -52.252)"/>
        <path id="パス_89071" data-name="パス 89071" d="M893.233,1061.276a1.234,1.234,0,0,1-.47-.1c-1.09-.446-1.876-2.438-1.888-3.347a8.44,8.44,0,0,1,.138-1.411c.16-1.029.286-1.843-.468-2.581a6.752,6.752,0,0,0-2.467-1.3c-1.4-.519-2.854-1.055-3.6-2.664a7.2,7.2,0,0,1-.151-4.311,1.187,1.187,0,0,1,.7-.714.429.429,0,0,1,.267.814.437.437,0,0,0-.181.24,6.412,6.412,0,0,0,.141,3.608c.6,1.289,1.826,1.742,3.124,2.222a7.491,7.491,0,0,1,2.769,1.5,3.4,3.4,0,0,1,.714,3.326,7.819,7.819,0,0,0-.128,1.269,3.781,3.781,0,0,0,1.355,2.564c.123.05.267.068.484-.149a.429.429,0,1,1,.6.608A1.337,1.337,0,0,1,893.233,1061.276Z" transform="translate(-73.789 -80.763)" fill="#98cbaa"/>
        <path id="パス_89072" data-name="パス 89072" d="M1096.663,1066.354a.436.436,0,0,1-.43-.369,2.03,2.03,0,0,1,.291-1.617,3.016,3.016,0,0,1,2.208-.818,5.492,5.492,0,0,0,1.3-.236c1.64-.623,1.512-1.5,1.119-3.127a11.345,11.345,0,0,1-.273-1.383c-.293-2.6,1.594-3.443,3.259-4.187.421-.188.856-.382,1.259-.6a4.141,4.141,0,0,0,1.959-2.745,1.046,1.046,0,0,0-.586-.976.436.436,0,1,1,.449-.748,1.913,1.913,0,0,1,1.01,1.742,4.933,4.933,0,0,1-2.415,3.494c-.432.235-.883.437-1.32.632-1.841.822-2.959,1.421-2.748,3.292a10.745,10.745,0,0,0,.254,1.276c.365,1.51.779,3.222-1.657,4.147a6.126,6.126,0,0,1-1.514.288c-.692.073-1.347.142-1.607.482a1.254,1.254,0,0,0-.121.95.436.436,0,0,1-.364.5A.441.441,0,0,1,1096.663,1066.354Z" transform="translate(-226.637 -83.299)" fill="#98cbaa"/>
      </g>
    </g>
  </g>
</svg>
