<svg xmlns="http://www.w3.org/2000/svg" width="140" height="140" viewBox="0 0 140 140">
  <g id="demerit_obj14" transform="translate(-53 -0.477)">
    <circle id="楕円形_353" data-name="楕円形 353" cx="70" cy="70" r="70" transform="translate(53 0.477)" fill="#f7f3e5"/>
    <g id="グループ_15473" data-name="グループ 15473" transform="translate(-2 -5.489)">
      <g id="グループ_15469" data-name="グループ 15469" transform="translate(131.194 50.822)">
        <path id="パス_88879" data-name="パス 88879" d="M62.994,211.872l-4-.068.172-10.14a2.155,2.155,0,0,0-2.118-2.191l-8.724-.147a2.15,2.15,0,0,0-1.107.286L38.3,187.489a2.585,2.585,0,0,0-1.456-.976l-14.826-3.7a2.584,2.584,0,0,0-3.209,2.464l-.632,37.32a2.939,2.939,0,0,1,5.18-.632l.565-33.351L34.689,191.3l9.5,12.92L40.4,210.713a2.152,2.152,0,0,0-.294,1.05l-.091,5.367,0,.275-.059,3.49a2.155,2.155,0,0,0,2.118,2.191l3.49.059,11.079.187,6.155.1a5.652,5.652,0,0,0,5.74-5.549l0-.275A5.652,5.652,0,0,0,62.994,211.872Z" transform="translate(-17.987 -182.739)" fill="#fea621"/>
        <path id="パス_88880" data-name="パス 88880" d="M100.783,239.636l-4.244-.072a.923.923,0,0,0-.813.458l-5.278,9.042a.928.928,0,0,0-.126.45l-.066,3.892a.923.923,0,0,0,.908.939l9.366.159a.924.924,0,0,0,.939-.908l.221-13.021A.924.924,0,0,0,100.783,239.636Z" transform="translate(-65.231 -219.985)" fill="#a6ddcc"/>
        <path id="パス_88881" data-name="パス 88881" d="M102.286,311.387l-20-.339a4.928,4.928,0,1,1,.167-9.854l20,.339a4.928,4.928,0,1,1-.167,9.854Zm-19.878-7.731a2.465,2.465,0,1,0-.083,4.929l20,.339a2.465,2.465,0,1,0,.083-4.929Z" transform="translate(-56.829 -260.378)" fill="#201a1f"/>
        <g id="グループ_15465" data-name="グループ 15465" transform="translate(22.969 42.947)">
          <path id="パス_88882" data-name="パス 88882" d="M87.01,312.916a2.768,2.768,0,1,1,2.814-2.721A2.771,2.771,0,0,1,87.01,312.916Zm.065-3.875a1.107,1.107,0,1,0,1.088,1.126A1.108,1.108,0,0,0,87.075,309.041Z" transform="translate(-84.289 -307.381)" fill="#3f383b"/>
          <path id="パス_88883" data-name="パス 88883" d="M90.2,314.414a1.107,1.107,0,1,0-1.088-1.126A1.108,1.108,0,0,0,90.2,314.414Z" transform="translate(-87.449 -310.539)" fill="#f8ea9e"/>
        </g>
        <g id="グループ_15466" data-name="グループ 15466" transform="translate(29.51 43.057)">
          <path id="パス_88884" data-name="パス 88884" d="M105.993,313.238a2.768,2.768,0,1,1,2.815-2.721A2.771,2.771,0,0,1,105.993,313.238Zm.066-3.875a1.107,1.107,0,1,0,1.088,1.126A1.108,1.108,0,0,0,106.058,309.362Z" transform="translate(-103.272 -307.702)" fill="#3f383b"/>
          <path id="パス_88885" data-name="パス 88885" d="M109.181,314.735a1.107,1.107,0,1,0-1.087-1.126A1.109,1.109,0,0,0,109.181,314.735Z" transform="translate(-106.432 -310.86)" fill="#f8ea9e"/>
        </g>
        <g id="グループ_15467" data-name="グループ 15467" transform="translate(36.03 43.168)">
          <path id="パス_88886" data-name="パス 88886" d="M124.916,313.558a2.768,2.768,0,1,1,2.815-2.721A2.772,2.772,0,0,1,124.916,313.558Zm.066-3.875a1.107,1.107,0,1,0,1.088,1.126A1.108,1.108,0,0,0,124.982,309.683Z" transform="translate(-122.195 -308.022)" fill="#3f383b"/>
          <path id="パス_88887" data-name="パス 88887" d="M128.105,315.056a1.107,1.107,0,1,0-1.087-1.125A1.108,1.108,0,0,0,128.105,315.056Z" transform="translate(-125.356 -311.181)" fill="#f8ea9e"/>
        </g>
        <g id="グループ_15468" data-name="グループ 15468" transform="translate(42.515 43.278)">
          <path id="パス_88888" data-name="パス 88888" d="M143.737,313.877a2.768,2.768,0,1,1,2.815-2.721A2.772,2.772,0,0,1,143.737,313.877ZM143.8,310a1.107,1.107,0,1,0,1.088,1.126A1.109,1.109,0,0,0,143.8,310Z" transform="translate(-141.016 -308.341)" fill="#3f383b"/>
          <path id="パス_88889" data-name="パス 88889" d="M146.924,315.375a1.107,1.107,0,1,0-1.088-1.126A1.108,1.108,0,0,0,146.924,315.375Z" transform="translate(-144.176 -311.5)" fill="#f8ea9e"/>
        </g>
        <path id="パス_88890" data-name="パス 88890" d="M20.62,292.876a2.944,2.944,0,1,0,2.893,2.993A2.944,2.944,0,0,0,20.62,292.876Z" transform="translate(-17.627 -254.927)" fill="gray"/>
        <path id="パス_88891" data-name="パス 88891" d="M27.746,289.807a2.944,2.944,0,0,1-2.669,4.286,2.979,2.979,0,0,1-.5-.054,9.372,9.372,0,0,0,18.22-2.927c.034-1.994.091-5.361.091-5.361Z" transform="translate(-22.182 -250.257)" fill="#3f383b"/>
      </g>
      <g id="グループ_15472" data-name="グループ 15472" transform="translate(63.884 48.474)">
        <g id="グループ_15470" data-name="グループ 15470" transform="translate(3.051 1.474) rotate(4)">
          <path id="パス_88892" data-name="パス 88892" d="M3.056,0,0,2.05l5.757,8.582,3.056-2.05Z" transform="translate(0 10.976)" fill="#564c50"/>
          <path id="パス_88893" data-name="パス 88893" d="M0,3.677,18.809,26.7a2.143,2.143,0,0,0,2.973.586L23.7,25.994a2.143,2.143,0,0,0,.586-2.974L5.481,0Z" transform="translate(21.491 16.086)" fill="#201a1f"/>
          <path id="パス_88894" data-name="パス 88894" d="M14.256,1.414c-.276.08-4.731,3.174-4.731,3.174-1.237.83-.6,3.546-2.307,4.691s-4.364-.217-6.151.982l-.9.6-.086.058L0,10.976l5.757,8.582.1-.064.078-.052.894-.6c1.755-1.177.981-3.8,3.242-5.319a3.272,3.272,0,0,1,2.484-.534c2.052.33,3.735,2.785,3.735,2.785L18.8,19.521l4.821-3.234L21.1,12.542l.032-.021s-3.68-5.488.39-7.108a46.225,46.225,0,0,1,9.919-2.267L31.082.752C21.9-.729,16.905.239,14.256,1.414Z" transform="translate(3.056 0)" fill="#15a58e"/>
        </g>
        <g id="グループ_15471" data-name="グループ 15471" transform="matrix(0.998, -0.07, 0.07, 0.998, 11.354, 3.288)">
          <path id="パス_88895" data-name="パス 88895" d="M26.109,10.5,15.609,0l-1,1V2.345H13.265V3.691H11.918V5.038H10.572V6.384H9.225V7.73H7.878V9.077H6.532v1.346H5.186V11.77H3.839v1.347H2.493v1.346H1.146L0,15.609l3.6,3.6L1.565,22.557l1.987,1.987L6.9,22.51l3.6,3.6,1.146-1.146V23.616h1.346V22.27h1.347V20.923h1.347V19.577h1.346V18.23h1.347V16.884h1.346V15.538h1.346V14.191h1.347V12.845h1.346V11.5h1.346Z" transform="translate(21.023 0)" fill="gray"/>
          <rect id="長方形_30215" data-name="長方形 30215" width="31.541" height="5.574" transform="translate(0 43.191) rotate(-45)" fill="#ddb667"/>
          <path id="パス_88896" data-name="パス 88896" d="M4.527,5.112a.585.585,0,0,1-.414-.171L.171,1A.586.586,0,0,1,1,.171L4.941,4.112a.585.585,0,0,1-.414,1Z" transform="translate(20.805 21.216)" fill="#7d4e2a"/>
          <path id="パス_88897" data-name="パス 88897" d="M19.205,4.535,14.67,0l-.335.335V2.07H12.989V3.416H11.643V4.762H10.3V6.109H8.95V7.455H7.6V8.8H6.257v1.346H4.91V11.5H3.564v1.346H2.217v1.347H.482L0,14.671l3.5,3.5L1.464,21.517l.379.38Z" transform="translate(21.962 0.939)" fill="#b3b3b3"/>
        </g>
      </g>
    </g>
  </g>
</svg>
