<svg xmlns="http://www.w3.org/2000/svg" width="140" height="140" viewBox="0 0 140 140"><g transform="translate(0 -0.477)"><circle cx="70" cy="70" r="70" transform="translate(0 0.477)" fill="#f7f3e5"/><g transform="translate(12.541 17.573)"><g transform="translate(34.1 39.225)"><ellipse cx="12.376" cy="12.376" rx="12.376" ry="12.376" transform="translate(0 0)" fill="#ffce00"/><ellipse cx="10.441" cy="10.441" rx="10.441" ry="10.441" transform="translate(0.587 21.268) rotate(-82.023)" fill="#fff" opacity="0.2"/><g transform="translate(6.989 5.632)"><path d="M1.617,12.29,2.763,9.858,0,8.558.508,7.478l2.763,1.3.59-1.252,0-.177L1.166,6.082,1.674,5l2.13,1L3.591,0l2,.941-.077,5.5,4.25-3.538,1.87.882L6.868,7.45l2.086.983L8.446,9.511,5.813,8.271l-.223.176L5.041,9.612l2.748,1.294L7.28,11.986,4.532,10.692,3.387,13.123Z" transform="translate(0 0)" fill="#8e7406"/></g></g><g transform="translate(61.857 49.335)"><circle cx="11.549" cy="11.549" r="11.549" transform="translate(0 16.333) rotate(-45)" fill="#ffce00"/><circle cx="9.743" cy="9.743" r="9.743" transform="translate(2.554 16.333) rotate(-45)" fill="#fff" opacity="0.2"/><g transform="translate(10.246 9.988)"><path d="M8.232,12.221,7.014,10.028,4.523,11.412l-.54-.973L6.474,9.054,5.847,7.926,5.71,7.833,3.284,9.179l-.54-.973L4.665,7.141,0,4.026l1.8-1L5.927,6.082,5.566.936,7.253,0l.175,5.606L9.31,4.562l.54.973L7.476,6.852l.011.267L8.07,8.169l2.478-1.376.541.973L8.61,9.142l1.217,2.194Z" transform="translate(0 0)" fill="#8e7406"/></g></g><g transform="translate(45.499 46.721)"><circle cx="11.549" cy="11.549" r="11.549" transform="translate(0 16.333) rotate(-45)" fill="#ffce00"/><circle cx="9.743" cy="9.743" r="9.743" transform="translate(2.554 16.333) rotate(-45)" fill="#fff" opacity="0.2"/><g transform="translate(10.245 9.989)"><path d="M8.233,12.221,7.015,10.028,4.523,11.412l-.54-.974L6.474,9.055,5.848,7.926l-.136-.094L3.285,9.179l-.54-.973,1.92-1.066L0,4.026l1.8-1L5.929,6.082,5.567.937,7.254,0l.176,5.606L9.311,4.561l.54.974L7.476,6.853l.011.266.583,1.051,2.478-1.376.54.974L8.611,9.142l1.217,2.194Z" transform="translate(0 0)" fill="#8e7406"/></g></g><g transform="translate(58.855 14.657)"><circle cx="18.035" cy="18.035" r="18.035" transform="translate(0 25.506) rotate(-45)" fill="#ffce00"/><ellipse cx="15.215" cy="15.216" rx="15.215" ry="15.216" transform="translate(10.29 10.29)" fill="#fff" opacity="0.2"/><g transform="translate(18.091 16.127)"><path d="M3.079,18.135,4.247,14.4,0,13.069.519,11.41l4.247,1.326.6-1.924-.04-.256L1.189,9.264l.517-1.659L4.982,8.628,3.476,0,6.551.96l.986,7.957,5.428-5.953,2.876.9L9.693,10.1l3.208,1-.519,1.66L8.334,11.5l-.287.3-.56,1.792,4.226,1.32-.519,1.659-4.225-1.32L5.8,18.985Z" transform="translate(0 0)" fill="#8e7406"/></g></g><g transform="translate(0 37.398)"><circle cx="17.443" cy="17.443" r="17.443" transform="translate(0 24.668) rotate(-45)" fill="#ffce00"/><circle cx="14.716" cy="14.716" r="14.716" transform="translate(3.857 24.668) rotate(-45)" fill="#fff" opacity="0.2"/><g transform="translate(18.172 17.018)"><path d="M5.214,17.013l-.079-3.788-4.3.091L.8,11.634l4.3-.091L5.059,9.594l-.117-.222-4.19.089L.717,7.78,4.034,7.71,0,.262,3.115.2,6.467,7.189,9.614.061,12.527,0,8.807,7.611l3.249-.068.035,1.681-4.1.086-.172.361.038,1.815,4.28-.089.035,1.681-4.28.089.079,3.787Z" transform="translate(0 0)" fill="#8e7406"/></g></g><g transform="translate(27.669 53.704)"><ellipse cx="15.693" cy="15.693" rx="15.693" ry="15.693" transform="translate(3.03 3.03)" fill="#ffce00"/><circle cx="13.24" cy="13.24" r="13.24" transform="translate(0 18.724) rotate(-45)" fill="#fff" opacity="0.2"/><g transform="translate(11.858 10.137)"><path d="M1.977,15.543l1.5-3.061L0,10.778.666,9.421l3.477,1.7.772-1.576,0-.225L1.527,7.663l.666-1.357L4.873,7.62,4.722,0,7.239,1.233,7.033,8.207l5.458-4.4,2.354,1.153L8.73,9.509,11.355,10.8l-.665,1.357L7.376,10.532l-.287.217L6.37,12.217l3.458,1.695-.665,1.357L5.7,13.574,4.2,16.635Z" transform="translate(0 0)" fill="#8e7406"/></g></g></g></g></svg>