<svg xmlns="http://www.w3.org/2000/svg" xmlns:xlink="http://www.w3.org/1999/xlink" width="140" height="140" viewBox="0 0 140 140"><defs><clipPath id="a"><circle cx="70" cy="70" r="70" transform="translate(0 0.477)" fill="#f7f3e5"/></clipPath></defs><g transform="translate(0 -0.477)"><circle cx="70" cy="70" r="70" transform="translate(0 0.477)" fill="#f7f3e5"/><g clip-path="url(#a)"><g transform="translate(-363.596 -66.9)"><path d="M547.9,1200.305l-3.55-28.615-52.986-.358-1.863,28.595Z" transform="translate(-80.945 -919.382)" fill="#d8524f"/><path d="M512.969,1230.594a.537.537,0,0,1,0-1.074l50.488-.05h0a.537.537,0,0,1,0,1.074l-50.487.051Z" transform="translate(-100.415 -968.749)" fill="#943144"/><path d="M529.889,102.318a18.444,18.444,0,0,1,4.256-7.763c4.45-4.245,10.626-5.548,15.407-5.842a39.184,39.184,0,0,1,5.368.066c1.158.092,1.855.218,1.855.218l.1.032,4.416,1.732a18.256,18.256,0,0,1,1.649,1.115c3.983,2.933,13.628,11.595,10.879,25.219a20.684,20.684,0,0,1-2.612,6.7c-.894,1.444-2.151,2.95-2.459,4.622-.212,1.147-.28,2.475-.4,3.653-.231,2.219-.141,4.913,2.485,5.54-.705,1.832-4.682.451-6.06.176a11.508,11.508,0,0,0,2.448,2.4c-2.5,2.13-8.249,1.072-10.985-.122a33.262,33.262,0,0,0-6.8-2.3,19.753,19.753,0,0,0-3.594-.252c-2.737-.033-5.351.952-8.149.836-3.026-.125-6.174-.312-8.993-1.6-.467-.214-.927-.5-1.371-.739a17.053,17.053,0,0,0,1.378-1.8c-1.255.666-3.989-.006-5.045-.933,1.07-.567,2.365-.531,3.5-1.389,3.867-2.917,3.048-7.383,1.638-11.366C526.787,114.834,528.125,107.883,529.889,102.318Z" transform="translate(-109.95)" fill="#95a3aa"/><path d="M597.208,179.963a18.74,18.74,0,0,1-37.3-3.534c.95-10.04,10.667-22.512,20.946-21.3C596.825,157,598.16,169.928,597.208,179.963Z" transform="translate(-140.66 -56.378)" fill="#edbf98"/><path d="M800,289.778a5.933,5.933,0,1,1-5.351-6.473A5.933,5.933,0,0,1,800,289.778Z" transform="translate(-334.557 -165.271)" fill="#edbf98"/><path d="M582.177,126.911a5.568,5.568,0,0,0-2.886-1.032c-5.3-.571-10.366,1.241-14.734,4.335-3.162,2.238-4.66,5.25-6.269,8.842a33.9,33.9,0,0,0-2.068,5.749c-.278,1.127-1.267,3.765-.536,4.8,2.191-2.345,3.7-5.365,5.832-7.819a28.544,28.544,0,0,1,7.773-6.573c2.215-1.2,5.07-2.353,7.464-1.14,3.237,1.637,3.561,5.763,4.774,8.779,1.86,4.618,6.353,9.288,11.7,9.439a12.328,12.328,0,0,1-.887-1.494c2.355,1.827,4.644,1.614,7.383,1.065a12.548,12.548,0,0,1-2.3-5.595c-.15-1.1-.091-2.19-.17-3.288-.278-3.883-2.787-7.119-4.964-10.108a14.136,14.136,0,0,0-4.457-4.1C586.113,127.816,583.716,128.024,582.177,126.911Z" transform="translate(-136.919 -31.524)" fill="#95a3aa"/><path d="M622.172,268.014a1.881,1.881,0,0,1-1.178,2.266,1.652,1.652,0,0,1-2.09-1.224,1.878,1.878,0,0,1,1.187-2.261A1.651,1.651,0,0,1,622.172,268.014Z" transform="translate(-190.776 -151.21)" fill="#0d0002"/><path d="M711.1,278.46a1.88,1.88,0,0,1-1.18,2.265,1.652,1.652,0,0,1-2.09-1.224,1.879,1.879,0,0,1,1.187-2.261A1.653,1.653,0,0,1,711.1,278.46Z" transform="translate(-266.293 -160.08)" fill="#0d0002"/><path d="M664.544,297.558a.439.439,0,0,1-.354-.178c-.138-.186-.3-.365-.451-.538a2.692,2.692,0,0,1-.943-2.264,17.689,17.689,0,0,1,1.594-3.59c.363-.709.705-1.379.82-1.678a.44.44,0,0,1,.823.314c-.131.344-.468,1-.859,1.765a20.761,20.761,0,0,0-1.507,3.317c-.086.6.206.961.73,1.552.166.187.338.38.5.6a.44.44,0,0,1-.353.7Z" transform="translate(-228.08 -170.153)" fill="#0d0002"/><path d="M616.893,446.252l10.173-2.479-2.834-2.67c-2.835-2.667-4.171-21.508-4.171-21.508h-3.5v.036l0-.036h-3.5s-1.332,18.842-4.168,21.508l-2.835,2.67,10.174,2.479v.03l.332-.012.332.012Z" transform="translate(-179.916 -281.028)" fill="#edbf98"/><path d="M531.847,668.5a6.621,6.621,0,0,0,2.753-4.5c.719-3.23-.395-15.417-.971-18.643-.845-4.727-1.656,3.6-18.427-69.115l-10.5,2.933-10.963-2.588L478.16,593.892l-3.478,71.383,5.534,5.014c.224.2,1.625-.022,1.909-.026l27.366-.375,14.992-.2C527.336,669.646,529.94,669.7,531.847,668.5Z" transform="translate(-68.359 -414.042)" fill="#f0d9c0"/><path d="M424.842,589.394s-8.417-.539-15.729,11c-4.49,7.086-14.253,36.47-14.826,43.238-.242,2.862-.258,7.067,2.163,9.121,2.141,1.816,5.829,1.41,8.518,1.719Z" transform="translate(0 -425.212)" fill="#f0d9c0"/><path d="M739.167,583s8.434.034,14.944,12.041c4,7.375,11.738,37.356,11.849,44.146a16.909,16.909,0,0,1-2.779,8.953c-4.444,6.8-8.926,4.37-11.63,4.495Z" transform="translate(-292.952 -419.785)" fill="#f0d9c0"/><path d="M731.883,147.136a.534.534,0,0,1-.345-.126,5.952,5.952,0,0,1-.928-1,.537.537,0,1,1,.862-.641,4.892,4.892,0,0,0,.757.824.537.537,0,0,1-.346.948Zm-1.922-2.768a.537.537,0,0,1-.485-.306c-.166-.348-.329-.718-.515-1.166a.537.537,0,0,1,.992-.411c.178.43.334.785.492,1.115a.537.537,0,0,1-.484.768Zm-1.3-3.138a.537.537,0,0,1-.5-.351c-.151-.408-.29-.813-.413-1.2a.537.537,0,0,1,1.024-.323c.118.373.251.762.4,1.154a.537.537,0,0,1-.5.723Zm-.946-3.256a.537.537,0,0,1-.526-.43c-.087-.429-.157-.856-.209-1.27a.537.537,0,0,1,1.066-.133c.048.387.114.787.2,1.189a.538.538,0,0,1-.527.644Zm-.306-3.373H727.4a.537.537,0,0,1-.519-.554,12.66,12.66,0,0,1,.109-1.3.537.537,0,1,1,1.064.147,11.489,11.489,0,0,0-.1,1.185A.537.537,0,0,1,727.414,134.6Z" transform="translate(-282.515 -37.052)" fill="#c7c3cc"/><path d="M772.461,164.288a.537.537,0,0,1-.422-.2,5.264,5.264,0,0,1-.7-1.192.537.537,0,0,1,.987-.425,4.207,4.207,0,0,0,.555.952.537.537,0,0,1-.422.869Zm-1.213-3.135a.537.537,0,0,1-.526-.434c-.046-.233-.088-.465-.13-.7-.032-.179-.065-.356-.1-.531a.537.537,0,1,1,1.055-.2c.034.178.067.359.1.54.041.226.083.454.127.683a.537.537,0,0,1-.424.63A.557.557,0,0,1,771.248,161.153Zm-.7-3.32a.537.537,0,0,1-.522-.414c-.1-.4-.191-.8-.291-1.2a.537.537,0,0,1,1.042-.26c.1.405.2.812.294,1.218a.537.537,0,0,1-.4.646A.546.546,0,0,1,770.546,157.833Zm-.865-3.281a.537.537,0,0,1-.513-.377c-.125-.4-.257-.79-.392-1.152a.537.537,0,1,1,1.007-.374c.141.38.28.786.411,1.207a.537.537,0,0,1-.513.7Zm-1.2-3.174a.537.537,0,0,1-.5-.329c-.163-.389-.329-.768-.492-1.128a.537.537,0,0,1,.978-.444c.168.369.337.758.5,1.156a.538.538,0,0,1-.495.745Zm-1.442-3.07a.537.537,0,0,1-.475-.286c-.194-.366-.395-.725-.6-1.068a.537.537,0,1,1,.926-.543c.209.356.416.729.618,1.108a.537.537,0,0,1-.474.789Zm-1.767-2.9a.536.536,0,0,1-.44-.228c-.234-.332-.478-.662-.726-.979a.537.537,0,1,1,.847-.661c.259.332.514.675.758,1.022a.537.537,0,0,1-.439.846Z" transform="translate(-314.036 -46.437)" fill="#c7c3cc"/><path d="M571.59,143.514a.524.524,0,0,1-.135-.017.537.537,0,0,1-.385-.654c.1-.4.231-.812.383-1.237a.537.537,0,1,1,1.011.361c-.141.394-.26.779-.355,1.144A.537.537,0,0,1,571.59,143.514Zm1.208-3.168a.537.537,0,0,1-.482-.772c.181-.371.378-.751.586-1.13a.537.537,0,0,1,.942.517c-.2.363-.389.728-.562,1.084A.537.537,0,0,1,572.8,140.346Zm1.677-2.951a.537.537,0,0,1-.451-.829c.227-.351.465-.7.708-1.051a.537.537,0,0,1,.879.616c-.235.336-.466.678-.686,1.018A.537.537,0,0,1,574.475,137.394Zm1.985-2.756a.537.537,0,0,1-.419-.872c.265-.332.537-.66.809-.975a.537.537,0,0,1,.814.7c-.263.306-.527.623-.783.944A.536.536,0,0,1,576.461,134.639Zm2.254-2.539a.537.537,0,0,1-.381-.916c.306-.308.615-.6.919-.881a.537.537,0,0,1,.724.794c-.291.265-.587.55-.881.845A.535.535,0,0,1,578.715,132.1Zm2.562-2.225a.537.537,0,0,1-.315-.972,12.9,12.9,0,0,1,1.089-.71.537.537,0,0,1,.537.93,11.874,11.874,0,0,0-1,.651A.536.536,0,0,1,581.277,129.875Z" transform="translate(-150.194 -33.515)" fill="#c7c3cc"/><path d="M746.814,308.089a2.149,2.149,0,1,1-1.884-2.385A2.149,2.149,0,0,1,746.814,308.089Z" transform="translate(-295.808 -184.302)" fill="#e9706e"/><path d="M577.488,288.2a2.149,2.149,0,1,1-1.884-2.385A2.149,2.149,0,0,1,577.488,288.2Z" transform="translate(-152.022 -167.412)" fill="#e9706e"/><path d="M745.185,309.837a.41.41,0,0,1-.314-.145c-.484-.569-1.252-1.6-.964-2.079a.679.679,0,0,1,.433-.317c.5-.125,1.2.216,2.094.767l.13.079.094.054-.047-.082c-.035-.059-.073-.127-.114-.2-.215-.382-.663-1.178-1.027-1.207a.412.412,0,1,1,.065-.821c.8.063,1.33,1,1.68,1.623.039.069.075.133.108.19.283.487.557,1.034.215,1.375s-.9.066-1.387-.221c-.036-.021-.086-.051-.147-.089a6.2,6.2,0,0,0-1.222-.631,8.7,8.7,0,0,0,.719,1.026.412.412,0,0,1-.313.678Z" transform="translate(-296.923 -184.468)" fill="#e55a65"/><path d="M577.049,290.083a.41.41,0,0,1-.312-.143c-.306-.355-1.279-1.554-.972-2.078a.684.684,0,0,1,.437-.321c.5-.124,1.2.218,2.1.771l.126.077.091.052-.047-.082c-.034-.059-.07-.123-.109-.193-.215-.385-.664-1.186-1.032-1.216a.412.412,0,1,1,.067-.821c.806.065,1.334,1.009,1.684,1.634.037.066.071.127.1.181.284.484.559,1.032.217,1.374s-.9.067-1.387-.219l-.143-.087a6.2,6.2,0,0,0-1.227-.635,8.495,8.495,0,0,0,.719,1.024.412.412,0,0,1-.312.68Z" transform="translate(-154.145 -167.693)" fill="#e55a65"/><path d="M663.775,428.507h-.015l-4.667-.127a.537.537,0,1,1,.029-1.074l4.667.127a.537.537,0,0,1-.014,1.074Z" transform="translate(-224.512 -287.575)" fill="#0d0002"/><path d="M729.256,346.827a.44.44,0,0,1-.394-.637,2.726,2.726,0,0,0-.287-2.515,2.072,2.072,0,0,0-1.7-1.111.44.44,0,1,1,0-.88,2.925,2.925,0,0,1,2.445,1.528,3.576,3.576,0,0,1,.327,3.371A.441.441,0,0,1,729.256,346.827Z" transform="translate(-282.143 -214.868)" fill="#0d0002"/><path d="M620.47,232.675a.268.268,0,0,1-.2-.452c.97-1.033,3.018-1.658,4.2-.916a.269.269,0,0,1-.285.455c-.932-.584-2.718-.033-3.527.828A.267.267,0,0,1,620.47,232.675Z" transform="translate(-191.929 -120.862)" fill="#5e676c"/><path d="M725.666,243.575a.268.268,0,0,1-.233-.135c-.588-1.024-2.2-1.974-3.241-1.623a.268.268,0,1,1-.171-.509c1.324-.447,3.172.635,3.878,1.865a.268.268,0,0,1-.1.367A.266.266,0,0,1,725.666,243.575Z" transform="translate(-278.236 -129.544)" fill="#5e676c"/><path d="M794.883,346.119a1.869,1.869,0,1,1-1.637-2.074A1.868,1.868,0,0,1,794.883,346.119Z" transform="translate(-337.101 -216.861)" fill="#ebe7d7"/><path d="M614.116,265.22a.439.439,0,0,1-.32-.137l-.858-.9a.44.44,0,0,1,.639-.606l.858.9a.44.44,0,0,1-.32.743Z" transform="translate(-185.659 -148.421)" fill="#0d0002"/><path d="M705.421,275.945a.439.439,0,0,1-.32-.137l-.857-.9a.44.44,0,0,1,.639-.606l.857.9a.44.44,0,0,1-.319.743Z" transform="translate(-263.194 -157.529)" fill="#0d0002"/><path d="M491.474,742.121a.548.548,0,0,1-.073,0,.537.537,0,0,1-.46-.6l3.627-26.751a.537.537,0,1,1,1.064.144l-3.627,26.751A.537.537,0,0,1,491.474,742.121Z" transform="translate(-82.161 -531.278)" fill="#bb7940"/><path d="M672.525,570.584l-12.115,3.591s.663,9.4,5.384,8.894,7.434-11.51,7.434-11.51Z" transform="translate(-226.073 -409.243)" fill="#fff"/><path d="M601.123,571.619l8.314,3.472s-.794,9.521-5.6,9.015-3.431-11.511-3.431-11.511Z" transform="translate(-174.967 -410.122)" fill="#fff"/><path d="M614.681,1110.449a1.434,1.434,0,1,1-1.434-1.435A1.435,1.435,0,0,1,614.681,1110.449Z" transform="translate(-184.805 -866.462)" fill="#fff"/><path d="M617.232,996.3a1.434,1.434,0,1,1-1.434-1.434A1.435,1.435,0,0,1,617.232,996.3Z" transform="translate(-186.972 -769.533)" fill="#fff"/><path d="M637.149,717.438A1.435,1.435,0,1,1,635.715,716,1.435,1.435,0,0,1,637.149,717.438Z" transform="translate(-203.885 -532.73)" fill="#fff"/><path d="M634.6,847.585a1.434,1.434,0,1,1-1.434-1.435A1.435,1.435,0,0,1,634.6,847.585Z" transform="translate(-201.719 -643.246)" fill="#fff"/><path d="M742.956,653.273c-.005-4.9-7.445-33.765-9.527-43.358-.233-1.071-4.258-18.275-3.987-18.362l-6.232,2.014c2.382,14.68,6.362,64.509,13.794,66.26,2.894.683,5.117-1.027,5.687-3.8A13.593,13.593,0,0,0,742.956,653.273Z" transform="translate(-279.401 -427.048)" fill="#edbf98"/><path d="M657.275,364.058a3.072,3.072,0,1,1-3.07-3.188A3.131,3.131,0,0,1,657.275,364.058Z" transform="translate(-218.198 -231.16)" fill="#c1143a"/><path d="M692.332,390.9c-.239-.886-.537-1.444-.908-1.417-1.124.081-.75,2.571-.74,3.294.038,2.629.47,5.749-.27,8.3-.362-1.689-1.922-15.2-3.852-14.518-1.678.591-.164,5.3-.024,6.557.294,2.643,1.338,5.746.164,8.3-.014.032-1.488-2.684-1.587-2.981-.391-1.183-.619-2.407-.961-3.6-.529-1.844-.792-5.21-2.2-6.546-.789-.75-.939-.116-1.062.842-.448,3.534,1.244,7.153,1.509,10.686.054.726.1,2.878-1.129,1.705a6.423,6.423,0,0,1-.84-1.981c-.629-1.605-1.207-3.211-1.9-4.8-.172-.394-.574-1.935-1.3-1.581-.535.261-.059,2.126.023,2.564a52.6,52.6,0,0,0,1.922,6.976,54.1,54.1,0,0,1,1.35,7.162,24.379,24.379,0,0,0,2.8,7.014c1.005,1.884.56,4.178,1.666,6.045,1.08,1.823,5.8,1.851,5.946-.742a18.945,18.945,0,0,0-.575-2.79c-.492-4.5,2.991-8.006,5.967-10.734,1.146-1.051,3.947-2.56,4.483-3.974.325-.856-3.953.837-4.17.958a5.4,5.4,0,0,1-3.046.97,26.191,26.191,0,0,1-.3-5.562C693.27,400.193,693.114,393.8,692.332,390.9Z" transform="translate(-240.148 -252.954)" fill="#edbf98"/><path d="M681.131,417.221a.525.525,0,0,1-.518-.448,7.848,7.848,0,0,0-.7-2.6,24.97,24.97,0,0,1-2.85-7.165c-.145-.778-.26-1.583-.372-2.362a27.6,27.6,0,0,0-.961-4.731,53.519,53.519,0,0,1-1.939-7.045c-.009-.049-.024-.118-.042-.2-.27-1.276-.47-2.553.3-2.931a.956.956,0,0,1,.8-.035c.617.25.924,1.095,1.127,1.654.034.092.061.17.085.224.491,1.128.93,2.277,1.355,3.389.182.477.365.955.552,1.433.065.168.128.367.194.577a3.841,3.841,0,0,0,.521,1.216,1.527,1.527,0,0,0,.165.14,4.316,4.316,0,0,0,.078-1.427,28.026,28.026,0,0,0-.76-4.177,18.879,18.879,0,0,1-.747-6.614c.079-.615.176-1.38.755-1.585.536-.191,1.027.276,1.188.429,1.134,1.078,1.559,3.165,1.934,5.006.134.659.261,1.281.406,1.772a41.027,41.027,0,0,0,1.932,5.382,13.707,13.707,0,0,0-.267-4.9c-.119-.694-.232-1.348-.3-2-.027-.242-.119-.664-.225-1.152-.49-2.253-1.161-5.339.6-5.957a.969.969,0,0,1,.833.1c1.22.734,2.117,4.7,3.1,10.927-.008-.758-.045-1.525-.082-2.284-.034-.7-.067-1.367-.076-2.018,0-.1-.011-.247-.023-.419-.077-1.153-.221-3.3,1.249-3.406.943-.068,1.313,1.292,1.452,1.8a27.839,27.839,0,0,1,.669,4.479.524.524,0,1,1-1.044.092,26.886,26.886,0,0,0-.637-4.3,2.724,2.724,0,0,0-.417-1.016c-.156.081-.343.518-.225,2.274.012.187.023.348.025.474.009.634.041,1.289.075,1.983a20.153,20.153,0,0,1-.366,6.472.524.524,0,0,1-1.016-.036c-.072-.333-.18-1.057-.331-2.06-.3-1.963-.741-4.929-1.288-7.465-.836-3.873-1.44-4.5-1.584-4.594-.826.385-.166,3.422.119,4.73.117.538.209.963.242,1.259.069.618.179,1.258.3,1.935.367,2.134.784,4.553-.176,6.646a.524.524,0,0,1-.513.3c-.273-.019-.424-.029-1.208-1.836a45.131,45.131,0,0,1-1.807-5.122c-.158-.534-.289-1.178-.428-1.86-.327-1.606-.734-3.6-1.629-4.455-.03-.028-.057-.053-.081-.073a6.076,6.076,0,0,0-.1.6,18.108,18.108,0,0,0,.728,6.242,28.806,28.806,0,0,1,.784,4.338c.105,1.417-.123,2.268-.679,2.531-.4.19-.853.053-1.335-.408a4.036,4.036,0,0,1-.8-1.661c-.06-.193-.117-.375-.17-.508-.188-.48-.372-.96-.555-1.44-.421-1.1-.856-2.239-1.337-3.344-.03-.068-.066-.167-.109-.285a4.092,4.092,0,0,0-.434-.944,6.416,6.416,0,0,0,.216,1.679c.02.093.036.17.046.226a52.568,52.568,0,0,0,1.9,6.908,28.388,28.388,0,0,1,1,4.912c.11.768.224,1.562.365,2.319a23.743,23.743,0,0,0,2.744,6.863,8.691,8.691,0,0,1,.814,2.94.525.525,0,0,1-.443.6A.539.539,0,0,1,681.131,417.221Z" transform="translate(-237.196 -250.006)" fill="#cb6362"/><path d="M419.505,648.794c.63-4.858,11.692-32.539,14.98-41.788.368-1.033,6.554-17.583,6.3-17.7,0,0,5.924,2.791,5.924,2.791-4.235,14.257-14.54,63.17-22.135,63.959-2.957.308-4.944-1.671-5.154-4.5A13.672,13.672,0,0,1,419.505,648.794Z" transform="translate(-21.401 -425.138)" fill="#edbf98"/><path d="M512.33,392.5c.351-.849.718-1.365,1.082-1.292,1.1.225.416,2.647.313,3.362-.373,2.6-1.2,5.642-.791,8.267.575-1.629,3.845-14.828,5.673-13.908,1.589.8-.514,5.276-.813,6.506-.628,2.584-2.06,5.529-1.221,8.216.009.033,1.819-2.474,1.954-2.755.539-1.122.921-2.308,1.413-3.449.759-1.761,1.449-5.067,3.015-6.212.879-.643.946.005.946.971-.006,3.562-2.146,6.935-2.86,10.406-.146.712-.464,2.844.9,1.836a6.431,6.431,0,0,0,1.086-1.859c.828-1.511,1.607-3.03,2.5-4.521.221-.369.817-1.845,1.491-1.4.5.327-.213,2.117-.349,2.539a52.7,52.7,0,0,1-2.8,6.674,54.108,54.108,0,0,0-2.253,6.932,24.384,24.384,0,0,1-3.668,6.6c-1.238,1.74-1.089,4.073-2.424,5.782-1.3,1.67-5.984,1.1-5.8-1.494A18.911,18.911,0,0,1,510.65,421c1.062-4.4-1.946-8.324-4.549-11.409-1-1.189-3.589-3.043-3.94-4.513-.213-.89,3.814,1.335,4.013,1.482a5.4,5.4,0,0,0,2.9,1.352,26.157,26.157,0,0,0,1.009-5.479C510.214,401.592,511.185,395.271,512.33,392.5Z" transform="translate(-91.686 -254.946)" fill="#edbf98"/><path d="M564.39,419.635a.524.524,0,0,1-.505-.666,8.687,8.687,0,0,1,1.182-2.813,23.769,23.769,0,0,0,3.6-6.457c.236-.732.45-1.5.657-2.252a28.43,28.43,0,0,1,1.622-4.746,52.657,52.657,0,0,0,2.77-6.608c.017-.053.044-.128.075-.219a6.409,6.409,0,0,0,.428-1.636,4.105,4.105,0,0,0-.551.879c-.058.112-.107.206-.146.27-.618,1.036-1.2,2.11-1.754,3.149-.243.452-.485.9-.733,1.354-.069.126-.149.3-.233.484a4.037,4.037,0,0,1-1,1.545c-.537.4-1,.475-1.376.235-.518-.331-.637-1.205-.351-2.6a28.807,28.807,0,0,1,1.332-4.2,18.1,18.1,0,0,0,1.518-6.1c0-.265-.007-.469-.022-.61-.027.017-.056.038-.089.062-1,.729-1.655,2.659-2.184,4.21-.225.659-.437,1.281-.662,1.791a45.21,45.21,0,0,1-2.446,4.85c-1.011,1.7-1.162,1.685-1.436,1.666a.526.526,0,0,1-.469-.379c-.682-2.186.039-4.531.675-6.6.2-.658.393-1.279.541-1.884.07-.289.216-.7.4-1.217.449-1.261,1.491-4.189.721-4.676-.155.078-.833.618-2.157,4.352-.866,2.444-1.687,5.329-2.23,7.238-.278.977-.478,1.682-.592,2a.524.524,0,0,1-1.013-.094,20.146,20.146,0,0,1,.463-6.464c.122-.684.237-1.33.327-1.958.018-.124.049-.283.085-.466.34-1.725.211-2.184.067-2.285a2.731,2.731,0,0,0-.544.956,26.8,26.8,0,0,0-1.18,4.181.524.524,0,1,1-1.025-.224,27.75,27.75,0,0,1,1.235-4.358c.2-.49.742-1.793,1.67-1.605,1.445.295,1.029,2.4.8,3.539-.034.169-.062.316-.076.412-.092.645-.209,1.3-.333,1.993-.133.747-.268,1.5-.373,2.253,1.768-6.054,3.163-9.869,4.467-10.442a.969.969,0,0,1,.838.012c1.662.837.6,3.812-.17,5.985-.168.471-.312.877-.37,1.114-.155.635-.35,1.271-.557,1.945a13.71,13.71,0,0,0-.89,4.823,41.016,41.016,0,0,0,2.6-5.092c.206-.468.412-1.07.629-1.706.606-1.778,1.294-3.794,2.557-4.718.179-.131.725-.532,1.233-.274.547.278.547,1.049.547,1.669a18.867,18.867,0,0,1-1.584,6.464,28.04,28.04,0,0,0-1.286,4.047,4.319,4.319,0,0,0-.1,1.426,1.511,1.511,0,0,0,.182-.118,3.832,3.832,0,0,0,.671-1.139c.092-.2.18-.391.267-.55.246-.449.487-.9.729-1.347.564-1.049,1.147-2.134,1.777-3.191.031-.051.069-.126.114-.213.273-.528.685-1.326,1.328-1.495a.957.957,0,0,1,.787.137c.72.472.359,1.713-.071,2.943-.028.081-.052.148-.067.2a53.616,53.616,0,0,1-2.823,6.74,27.674,27.674,0,0,0-1.557,4.572c-.21.757-.427,1.541-.669,2.293a24.634,24.634,0,0,1-3.74,6.743,7.85,7.85,0,0,0-1.027,2.489A.525.525,0,0,1,564.39,419.635Z" transform="translate(-139.231 -251.998)" fill="#cb6362"/><path d="M410.827,310.634a.537.537,0,0,1-.536-.509c-.16-3.069-1.377-4.8-3.519-5-1.895-.178-3.6.915-3.691,1.289a.531.531,0,0,1-.557.509.542.542,0,0,1-.515-.564c.146-3.673-.89-8.051-4.233-9.32a.537.537,0,0,1-.057-.978c2.841-1.476,3.583-2.278,4.414-4.769a10.812,10.812,0,0,0-.031-4.629c-.1-.66-.186-1.283-.224-1.86h0a.537.537,0,0,1,1.069-.1c.087.134.66.52,2.407.86a13.27,13.27,0,0,0,2.7.295c2.159-.351,4.114-.87,4.323-3.318a.537.537,0,0,1,1.07.091c-.3,3.485-3.379,3.987-5.221,4.287a14.767,14.767,0,0,1-5.133-.879c.022.153.044.309.067.466a11.544,11.544,0,0,1-.013,5.122,7.337,7.337,0,0,1-4.011,4.88c2.7,1.624,3.8,5.136,3.939,8.45a6.363,6.363,0,0,1,3.247-.929h.032c1.436,0,4.721.6,5,6.034a.537.537,0,0,1-.508.564Z" transform="translate(-2.758 -164.231)" fill="#0d0002"/></g></g></g></svg>