<svg xmlns="http://www.w3.org/2000/svg" xmlns:xlink="http://www.w3.org/1999/xlink" width="140" height="140" viewBox="0 0 140 140"><defs><clipPath id="a"><circle cx="70" cy="70" r="70" transform="translate(0 0.477)" fill="#f7f3e5"/></clipPath></defs><g transform="translate(0 -0.477)"><circle cx="70" cy="70" r="70" transform="translate(0 0.477)" fill="#f7f3e5"/><g clip-path="url(#a)"><g transform="translate(-231.99 -3790.271)"><g transform="translate(247.11 3803.932)"><path d="M605.478,596.06c-5.425-17.038-9.3-29.128-10.762-32.556C591.8,556.682,583.259,552.8,580.24,552l-13.2-4.047a5.358,5.358,0,0,1,.723,2.568c0,4.823-6.788,15.265-16.277,15.265h-.016c-9.484,0-16.279-10.442-16.279-15.265a5.676,5.676,0,0,1,.518-2.313L523.35,552c-2.943.718-11.557,4.686-14.47,11.508-1.466,3.428-5.343,15.518-10.765,32.556a21.079,21.079,0,0,0-1.187,8.144c.2,7.309,1.372,18.71,4.936,25.908,2.159,4.371,7.146,2.745,9.679,1.9a6.4,6.4,0,0,0,4.55-4.732c.7-3-1.343-11.406-.394-23.447.343-4.393,4.49-12.259,5.116-16.785,0,0-1.26,21.352-1.409,32.084-.106,7.476.383,32.866,3,32.866h58.785c2.616,0,3.108-25.39,3-32.866-.151-10.732-1.413-32.084-1.413-32.084.624,4.5,4.746,12.341,5.094,16.714.952,12.073-1.089,20.508-.386,23.517a6.419,6.419,0,0,0,4.56,4.732c2.526.841,7.526,2.467,9.68-1.9,3.574-7.2,4.743-18.6,4.942-25.908A21.148,21.148,0,0,0,605.478,596.06Z" transform="translate(-496.915 -485.924)" fill="#15a58e"/><g transform="translate(38.275 57.026)"><path d="M554.241,544.053v1.094a6.7,6.7,0,0,1,1.468,4.536c0,6.378-11.053,16.842-11.053,16.842s-10.689-10.464-10.689-16.842a6.778,6.778,0,0,1,1.343-4.366v-1.475c-4.483,1.7-6.948,4.591-6.948,7.567,0,4.823,6.794,15.265,16.279,15.265h.016c9.489,0,16.277-10.442,16.277-15.265C560.933,548.77,558.568,545.85,554.241,544.053Z" transform="translate(-528.361 -543.842)" fill="#15a58e"/></g><g transform="translate(43.88 58.331)"><path d="M553.241,544.914v1.213c0,1.462-7.981,5.158-9.394,5.158s-9.538-3.768-9.538-5.158v-1.043a6.778,6.778,0,0,0-1.342,4.366c0,6.378,10.689,16.842,10.689,16.842s11.053-10.464,11.053-16.842A6.7,6.7,0,0,0,553.241,544.914Z" transform="translate(-532.966 -544.914)" fill="#15a58e"/></g><g transform="translate(45.223 53.328)"><path d="M534.069,542.892v3.748c0,1.39,8.123,5.158,9.538,5.158S553,548.1,553,546.64v-4.085a14.946,14.946,0,0,1-9.673,3.777A14.74,14.74,0,0,1,534.069,542.892Z" transform="translate(-534.069 -540.424)" fill="#fccea5"/><path d="M548.161,543.443a14.8,14.8,0,0,1-11.067-.756,16.282,16.282,0,0,1-3.026-1.883v2.468a14.74,14.74,0,0,0,9.259,3.44A14.946,14.946,0,0,0,553,542.935v-1.974A16.037,16.037,0,0,1,548.161,543.443Z" transform="translate(-534.069 -540.804)" fill="#e5a87c"/></g><g transform="translate(32.272 0)"><path d="M566.032,522.822a2.234,2.234,0,0,0-1.547.256c-.063-1.257-.147-2.591-.2-3.565-.276.464-.92.932-2.431.932-3,0-8.117-4.575-15.839-4.575s-12.946,4.575-15.559,4.575c-2.078,0-2.528-1.171-2.627-1.646a.552.552,0,0,0,.015.061c-.147.242-.247.455-.365.688-.037.953-.091,2.235-.14,3.454a2.288,2.288,0,0,0-1.112-.192h-.007c-.089.01-.173-.006-.258.012-2.465.56-3.133,4.536-2,7.856s3.318,5.653,5.027,5.264a1.945,1.945,0,0,0,.358-.153,40.53,40.53,0,0,0,2.642,5.5,16.744,16.744,0,0,0,7.411,6.81,14.8,14.8,0,0,0,11.067.756,16.572,16.572,0,0,0,9.381-7.566,40.752,40.752,0,0,0,2.668-5.558,1.739,1.739,0,0,0,.477.208c1.719.388,3.889-1.94,5.028-5.264S568.5,523.382,566.032,522.822Z" transform="translate(-523.429 -492.891)" fill="#fccea5"/><g transform="translate(2.002)"><path d="M545.776,496.991c-9.036,0-20.7,6.342-20.7,18.556,0,5.751.1,8.978.789,11.364l.069,0a11.71,11.71,0,0,1,1.556-3.947,1.523,1.523,0,0,1-.047-.268c3.328-4.171,7.71-8.3,18.219-8.3s15.112,4.078,18.462,8.3a1.46,1.46,0,0,1,.006.325,11.593,11.593,0,0,1,1.5,3.9c.016,0,.033,0,.046,0l.011,0c.523-2.337.54-5.8.54-11.329C566.226,503.913,554.812,496.991,545.776,496.991Z" transform="translate(-525.074 -496.991)" fill="#005d50"/><path d="M529.678,521.441c2.613,0,7.84-4.575,15.559-4.575s12.841,4.575,15.839,4.575,2.623-1.853,2.623-1.853c-3.35-4.224-7.953-8.3-18.462-8.3s-14.891,4.13-18.219,8.3C527.018,519.588,527.079,521.441,529.678,521.441Z" transform="translate(-524.652 -493.886)" fill="#33846b"/></g><g transform="translate(2.945 25.584)"><path d="M558.021,518.374c-.045.528-.421,1.527-2.629,1.527a6.558,6.558,0,0,1-2.2-.55,16.718,16.718,0,0,1,3.047,3.134c.54,1.878-.127,6.464-.117,6.464.635.091.937-.668,1.127-1.482.424-1.783.835-4.242.955-5a2.233,2.233,0,0,1,1.167-.2c.023-.129.046-.273.069-.4A12,12,0,0,0,558.021,518.374Z" transform="translate(-519.91 -517.931)" fill="#26201f"/><path d="M529.932,519.981c-2.078,0-2.528-1.171-2.627-1.646a.55.55,0,0,0,.015.061,12.131,12.131,0,0,0-1.472,3.542c.043.152.079.288.106.4a2.155,2.155,0,0,1,.645.129c.107.662.528,3.235.961,5.078.189.814.5,1.574,1.13,1.482.012,0-.784-5.458.055-6.906a17.991,17.991,0,0,0,4.02-2.213,24.532,24.532,0,0,0,2.336-1.9C532.858,519.036,531.114,519.981,529.932,519.981Z" transform="translate(-525.848 -518.01)" fill="#26201f"/></g></g><g transform="translate(0.965 109.844)"><path d="M512.726,589.942c.155.155-3.431-1.666-4.667-1.913-.928-.185-5.1-.807-7.764,1.616a16.527,16.527,0,0,0-2.587,3.087s1.343-3.087,3.148-4.267C503.906,586.467,509.586,586.868,512.726,589.942Z" transform="translate(-497.708 -587.236)" fill="#008671"/></g><g transform="translate(2.711 107.598)"><path d="M514.994,590.929a12.567,12.567,0,0,0-2.963-2.871,13.1,13.1,0,0,0-9.092-2.008,15.04,15.04,0,0,0-3.8,1.12,13.079,13.079,0,0,1,4.517-1.685C508.99,584.952,512.948,586.649,514.994,590.929Z" transform="translate(-499.143 -585.39)" fill="#008671"/></g><g transform="translate(93.238 109.844)"><path d="M573.522,589.942c-.156.155,3.434-1.666,4.669-1.913.927-.185,5.1-.807,7.766,1.616a16.643,16.643,0,0,1,2.584,3.087s-1.345-3.087-3.144-4.267C582.345,586.467,576.662,586.868,573.522,589.942Z" transform="translate(-573.517 -587.236)" fill="#008671"/></g><g transform="translate(90.653 107.598)"><path d="M571.4,590.929a12.724,12.724,0,0,1,2.966-2.871,13.1,13.1,0,0,1,9.1-2.008,15.037,15.037,0,0,1,3.793,1.12,13.069,13.069,0,0,0-4.515-1.685C577.408,584.952,573.452,586.649,571.4,590.929Z" transform="translate(-571.393 -585.39)" fill="#008671"/></g><path d="M513.173,555.151s5.206,6.292,5.637,11.557-1.182.157-1.182.157S516.445,559.988,513.173,555.151Z" transform="translate(-493.384 -484.36)" fill="#008671"/><path d="M571.854,555.151s-5.208,6.292-5.637,11.557,1.178.157,1.178.157S568.578,559.988,571.854,555.151Z" transform="translate(-481.88 -484.36)" fill="#008671"/><g transform="translate(34.274 0)"><path d="M545.776,496.991c-9.036,0-20.7,6.342-20.7,18.556,0,5.751.1,8.978.789,11.364l.069,0a11.71,11.71,0,0,1,1.556-3.947,1.523,1.523,0,0,1-.047-.268c3.328-4.171,7.71-8.3,18.219-8.3s15.112,4.078,18.462,8.3a1.46,1.46,0,0,1,.006.325,11.593,11.593,0,0,1,1.5,3.9c.016,0,.033,0,.046,0l.011,0c.523-2.337.54-5.8.54-11.329C566.226,503.913,554.812,496.991,545.776,496.991Z" transform="translate(-525.074 -496.991)" fill="#15a58e"/><path d="M543.4,496.991c-8,0-18.321,6.342-18.321,18.556,0,5.751,1.141,9.27,2.136,7.414a1.7,1.7,0,0,1-.042-.268c2.945-4.171,6.823-8.3,16.124-8.3s13.375,4.078,16.339,8.3a1.648,1.648,0,0,1,.005.325c.969,1.842,1.857-1.889,1.857-7.422C561.494,503.913,551.393,496.991,543.4,496.991Z" transform="translate(-522.708 -496.991)" fill="#fff" stroke="#15a58e" stroke-width="1"/><path d="M529.678,521.441c2.613,0,7.84-4.575,15.559-4.575s12.841,4.575,15.839,4.575,2.623-1.853,2.623-1.853c-3.35-4.224-7.953-8.3-18.462-8.3s-14.891,4.13-18.219,8.3C527.018,519.588,527.079,521.441,529.678,521.441Z" transform="translate(-524.652 -493.886)" fill="#15a58e"/></g><g transform="translate(11.924 136.103)"><path d="M506.712,608.809a2.442,2.442,0,0,0,1.2,2.008,13.744,13.744,0,0,0,4.437.4,16.288,16.288,0,0,1,3.7.521c.232-.033.47-.05.707-.063-.206-.013-.4-.049-.609-.051-.282-.349-1.028-1.075-3.568-1.075C511.091,610.553,507,609.5,506.712,608.809Z" transform="translate(-506.712 -608.809)" fill="#d9996b"/><path d="M518.276,611.692a10.312,10.312,0,0,1,3.148-.506,9.846,9.846,0,0,1,1.725-.788,3.451,3.451,0,0,0-2.76.564c-.436-.639-1.737-.525-3.409.543C517.7,611.605,518.227,611.715,518.276,611.692Z" transform="translate(-504.482 -608.49)" fill="#d9996b"/><path d="M529.584,611.068c0-.036.015-.074,0-.111-.257-.637-1.128-.806-2.338-.464a1,1,0,0,1,.172.275.468.468,0,0,1,0,.213,5.03,5.03,0,0,0-1.621.835.735.735,0,0,0-.22.794c-.382.206-.706.363-.8.43a11.733,11.733,0,0,1-4.571,1.647c-.512.069-4.514.452-5.224.62-.487.12-1.024.82-1.562,1.015a24.87,24.87,0,0,0-3.262,1.144c-.057.022-.122.043-.183.063a20.593,20.593,0,0,0,2.075-.589,10.009,10.009,0,0,0,2.182-.522c.711-.321.775-.711,1.82-.945.63-.139,5.717-.471,6.29-.544a11.565,11.565,0,0,0,4.636-1.652c.085-.064.365-.212.7-.4-.175-.214-.047-.684.22-.912A6.117,6.117,0,0,1,529.584,611.068Z" transform="translate(-506.003 -608.481)" fill="#d9996b"/><path d="M526.518,610.954c-.094-.174-1.495.65-1.758.881s-.4.713-.219.921C524.615,612.841,526.8,611.465,526.518,610.954Z" transform="translate(-502.858 -608.348)" fill="#fccea5"/></g><g transform="translate(5.5 126.575)"><path d="M527.652,613.826a5.028,5.028,0,0,1,1.621-.835.469.469,0,0,0,0-.213c-.358-.972-2.164-.913-4.473.408a10.316,10.316,0,0,0-3.148.506,17.425,17.425,0,0,0-4.463-.269,16.285,16.285,0,0,0-3.7-.521,13.741,13.741,0,0,1-4.437-.4c-1.194-.534-1.321-2.32-1.261-3.058a10.506,10.506,0,0,1,.346-2.567c.135-.207,1.434-5.678-1.614-5.8l-.015,0a2.668,2.668,0,0,0,.1,1.369,4.092,4.092,0,0,1-.4,2.131c-.263.256-.908-.361-.778-1.269.022-.164.06-.295.086-.447-.05.152-.107.3-.156.413a7.236,7.236,0,0,0-.37,1.413,13.358,13.358,0,0,0-.736,2.3c-.52,2.28-2.387,3.215-2.776,7.509a5.746,5.746,0,0,0,1.167,4.6c2.23,2.328,6.664,1.492,9.372.385a24.869,24.869,0,0,1,3.262-1.144c.538-.195,1.075-.895,1.562-1.015.71-.168,4.712-.55,5.224-.62a11.731,11.731,0,0,0,4.57-1.647c.091-.067.415-.224.8-.43A.734.734,0,0,1,527.652,613.826Z" transform="translate(-501.434 -600.962)" fill="#ffcd8e"/><path d="M505.807,601.047a2.737,2.737,0,0,0,.091,1.414,4.092,4.092,0,0,1-.4,2.131c-.263.256-.908-.361-.778-1.269.19-1.4.655-2.323,1.014-2.342C505.761,600.981,505.817,601.013,505.807,601.047Z" transform="translate(-500.724 -600.981)" fill="#ffe7c7"/><path d="M524.717,610.86c-.089-.168-1.435.623-1.692.845s-.386.677-.206.879C522.883,612.668,524.989,611.349,524.717,610.86Z" transform="translate(-496.808 -598.84)" fill="#ffe7c7"/></g><g transform="translate(73.575 136.103)"><g transform="translate(0.097)"><path d="M578.611,608.809a2.447,2.447,0,0,1-1.2,2.008,13.746,13.746,0,0,1-4.437.4,16.248,16.248,0,0,0-3.7.521c-.233-.033-.47-.05-.707-.063.2-.013.4-.049.607-.051.285-.349,1.026-1.075,3.569-1.075C574.23,610.553,578.32,609.5,578.611,608.809Z" transform="translate(-555.024 -608.809)" fill="#d9996b"/><path d="M566.354,611.692a10.3,10.3,0,0,0-3.148-.506,9.742,9.742,0,0,0-1.721-.788,3.446,3.446,0,0,1,2.758.564c.436-.639,1.739-.525,3.412.543C566.926,611.605,566.4,611.715,566.354,611.692Z" transform="translate(-556.563 -608.49)" fill="#d9996b"/><path d="M557.444,611.068c.007-.036-.011-.074,0-.111.258-.637,1.128-.806,2.341-.464a.893.893,0,0,0-.172.275.435.435,0,0,0,0,.213,5.067,5.067,0,0,1,1.621.835.741.741,0,0,1,.22.794c.38.206.7.363.8.43a11.716,11.716,0,0,0,4.567,1.647c.515.069,4.516.452,5.228.62.484.12,1.022.82,1.562,1.015a25.01,25.01,0,0,1,3.261,1.144c.056.022.123.043.183.063a20.428,20.428,0,0,1-2.076-.589,10,10,0,0,1-2.181-.522c-.712-.321-.774-.711-1.818-.945-.63-.139-5.72-.471-6.292-.544a11.546,11.546,0,0,1-4.636-1.652c-.085-.064-.365-.212-.7-.4.178-.214.05-.684-.217-.912A6.139,6.139,0,0,0,557.444,611.068Z" transform="translate(-557.441 -608.481)" fill="#d9996b"/></g><path d="M557.386,610.954c.091-.174,1.5.65,1.759.881s.4.713.215.921C559.289,612.841,557.109,611.465,557.386,610.954Z" transform="translate(-557.362 -608.348)" fill="#fccea5"/></g><g transform="translate(75.747 126.575)"><path d="M560.851,613.826a5.066,5.066,0,0,0-1.621-.835.436.436,0,0,1,0-.213c.357-.972,2.159-.913,4.47.408a10.3,10.3,0,0,1,3.148.506,17.463,17.463,0,0,1,4.466-.269,16.246,16.246,0,0,1,3.7-.521,13.742,13.742,0,0,0,4.437-.4c1.193-.534,1.321-2.32,1.263-3.058a10.8,10.8,0,0,0-.348-2.567c-.136-.207-1.434-5.678,1.615-5.8l.011,0a2.656,2.656,0,0,1-.092,1.369,4.059,4.059,0,0,0,.4,2.131c.264.256.909-.361.778-1.269-.022-.164-.056-.295-.084-.447.051.152.1.3.155.413a7.044,7.044,0,0,1,.372,1.413,13.789,13.789,0,0,1,.734,2.3c.518,2.28,2.387,3.215,2.776,7.509a5.751,5.751,0,0,1-1.166,4.6c-2.231,2.328-6.665,1.492-9.372.385a25.013,25.013,0,0,0-3.261-1.144c-.539-.195-1.077-.895-1.562-1.015-.712-.168-4.713-.55-5.228-.62a11.715,11.715,0,0,1-4.567-1.647c-.094-.067-.417-.224-.8-.43A.741.741,0,0,0,560.851,613.826Z" transform="translate(-559.132 -600.962)" fill="#ffcd8e"/><path d="M577.941,601.047a2.763,2.763,0,0,1-.089,1.414,4.061,4.061,0,0,0,.4,2.131c.264.256.909-.361.778-1.269-.19-1.4-.655-2.323-1.01-2.342C577.986,600.981,577.933,601.013,577.941,601.047Z" transform="translate(-555.089 -600.981)" fill="#ffe7c7"/><path d="M559.17,610.86c.091-.168,1.435.623,1.7.845s.383.677.206.879C561,612.668,558.9,611.349,559.17,610.86Z" transform="translate(-559.146 -598.84)" fill="#ffe7c7"/></g><path d="M542.24,567.584l-3.222,2.855,2.778,16.407,10.3,1.259s14.893-.18,15.276-.618,9.468-12.186,9.468-12.186l-2.316-6.1-2.71-1.215-4.88-4.119v7.4l-10.719,12.491-9.1-18.056v-2.07Z" transform="translate(-502.328 -505.558)" fill="#15a58e"/></g></g><path d="M10.506,27.036H14.65V24.292c3.08-2.324,4.816-5.208,4.816-8.568,0-3.64-2.128-5.712-5.88-5.712-3.724,0-5.8,1.96-5.8,5.236a7.676,7.676,0,0,0,.476,2.632l4.116-.952a3.993,3.993,0,0,1-.336-1.54A1.34,1.34,0,0,1,13.474,13.9c.952,0,1.484.588,1.484,1.96,0,2.912-1.932,5.6-4.452,7.56ZM10.366,33h4.452V28.66H10.366Z" transform="translate(56.501 31.892)" fill="#fff"/></g></g></svg>