<svg xmlns="http://www.w3.org/2000/svg" xmlns:xlink="http://www.w3.org/1999/xlink" width="140" height="140" viewBox="0 0 140 140"><defs><clipPath id="a"><circle cx="70" cy="70" r="70" transform="translate(0 0.477)" fill="#f7f3e5"/></clipPath></defs><g transform="translate(0 -0.477)"><circle cx="70" cy="70" r="70" transform="translate(0 0.477)" fill="#f7f3e5"/><g clip-path="url(#a)"><g transform="translate(-10.194 31.351) rotate(-30)"><g transform="translate(0.676 0)" fill="#fff"><path d="M 47.22307205200195 63.03435134887695 L 39.25568771362305 59.39924621582031 L 39.08661651611328 59.32210540771484 L 38.90820693969727 59.37411499023438 C 36.18357849121094 60.1684455871582 33.36888885498047 60.57124710083008 30.54230690002441 60.57132720947266 C 27.55267715454102 60.57140731811523 24.58211708068848 60.12325668334961 21.71314811706543 59.23931503295898 C 18.86990737915039 58.36330413818359 16.17867851257324 57.0757942199707 13.7142276763916 55.41255569458008 C 8.599277496337891 51.96051406860352 4.722327709197998 47.07938766479492 2.502487897872925 41.29686737060547 C 1.049777746200562 37.51211547851563 0.3817078173160553 33.55635452270508 0.5168477892875671 29.53949546813965 C 0.6473777890205383 25.65936660766602 1.517907857894897 21.88539505004883 3.104237794876099 18.32242584228516 C 4.690577983856201 14.75942611694336 6.912677764892578 11.58722591400146 9.708827972412109 8.893936157226563 C 12.60352802276611 6.105705738067627 15.9902982711792 3.95529580116272 19.77504730224609 2.502425909042358 C 23.23662757873535 1.173695921897888 26.85477828979492 0.499975860118866 30.52898788452148 0.499975860118866 C 33.51864624023438 0.499975860118866 36.48922729492188 0.9481958746910095 39.35820770263672 1.832175850868225 C 42.20150756835938 2.7082359790802 44.89275741577148 3.995775938034058 47.35721969604492 5.659035682678223 C 52.47225952148438 9.111166000366211 56.34915924072266 13.99236583709717 58.56878662109375 19.77493667602539 C 59.76372909545898 22.88766670227051 60.43083953857422 26.1394157409668 60.55158615112305 29.43985557556152 C 60.66832733154297 32.6307373046875 60.27399826049805 35.81011581420898 59.3795280456543 38.88968658447266 C 58.49466705322266 41.9361572265625 57.142578125 44.81068420410156 55.36079788208008 47.43342590332031 C 53.55386734008789 50.09321594238281 51.3481559753418 52.42912673950195 48.80494689941406 54.37628555297852 L 48.64822769165039 54.49627685546875 L 48.61572647094727 54.69096755981445 L 47.22307205200195 63.03435134887695 Z" stroke="none"/><path d="M 46.83727645874023 62.30875015258789 L 48.12255859375 54.60864639282227 L 48.18754959106445 54.21926498413086 L 48.50099945068359 53.97928619384766 C 51.00160598754883 52.06473541259766 53.17042922973633 49.76786422729492 54.94721603393555 47.1524543762207 C 56.69946670532227 44.57316589355469 58.02916717529297 41.74624633789063 58.89936828613281 38.75021743774414 C 59.77893829345703 35.72195434570313 60.16671752929688 32.59564590454102 60.05191802978516 29.4581356048584 C 59.93318939208984 26.2128963470459 59.27713775634766 23.01529502868652 58.10198593139648 19.95410537719727 C 55.91930770874023 14.26778602600098 52.10709762573242 9.467935562133789 47.07750701904297 6.07347583770752 C 44.65387725830078 4.4377760887146 42.00719833374023 3.171555757522583 39.21097946166992 2.310005903244019 C 36.38972854614258 1.440735816955566 33.46868896484375 0.999975860118866 30.52898788452148 0.999975860118866 C 26.91626739501953 0.999975860118866 23.3583984375 1.66252589225769 19.95423698425293 2.969215869903564 C 16.2322883605957 4.397975921630859 12.90193748474121 6.512495994567871 10.05569744110107 9.254045486450195 C 7.30615758895874 11.90244579315186 5.121027946472168 15.02191543579102 3.561007738113403 18.52578544616699 C 2.00099778175354 22.0296459197998 1.144927859306335 25.74084663391113 1.016557812690735 29.55630493164063 C 0.8836877942085266 33.50593566894531 1.540677785873413 37.39574432373047 2.969267845153809 41.1176643371582 C 5.152167797088623 46.803955078125 8.964437484741211 51.60373687744141 13.99392795562744 54.99810409545898 C 16.41755867004395 56.63379669189453 19.06420707702637 57.89997482299805 21.8603687286377 58.7614860534668 C 24.68159866333008 59.63071441650391 27.60261726379395 60.07140731811523 30.54228782653809 60.07132720947266 C 33.32148742675781 60.07124710083008 36.08910751342773 59.67517471313477 38.76826858520508 58.89410400390625 L 39.12508773803711 58.79007720947266 L 39.46323776245117 58.94435501098633 L 46.83727645874023 62.30875015258789 M 47.60887908935547 63.75995635986328 L 39.04814910888672 59.8541374206543 C 36.22653961181641 60.67673873901367 33.3654899597168 61.07124710083008 30.54231643676758 61.07132339477539 C 18.26925468444824 61.07167053222656 6.696787357330322 53.61786651611328 2.03569769859314 41.47605514526367 C -4.006002426147461 25.73558616638184 3.855387687683105 8.077996253967285 19.59585762023926 2.035635948181152 C 23.19361877441406 0.6546396613121033 26.89241409301758 -2.175170811824501e-05 30.52898979187012 -2.175170811824501e-05 C 42.80207061767578 -2.175170811824501e-05 54.37487030029297 7.453675746917725 59.03557968139648 19.59575653076172 C 64.00065612792969 32.52943420410156 59.57699966430664 46.75860595703125 49.10890960693359 54.77328491210938 L 47.60887908935547 63.75995635986328 Z" stroke="none" fill="#cecece"/></g><g transform="translate(21.135 0.686) rotate(30)"><g transform="translate(15.528 18.626)"><ellipse cx="5.636" cy="5.636" rx="5.636" ry="5.636" transform="translate(0 0)" fill="#ffce00"/><ellipse cx="4.755" cy="4.755" rx="4.755" ry="4.755" transform="translate(0.267 9.684) rotate(-82.023)" fill="#fff" opacity="0.2"/><g transform="translate(3.183 2.564)"><path d="M.736,5.6l.521-1.107L0,3.9l.231-.492L1.489,4l.269-.57,0-.081L.531,2.77l.231-.491.97.457L1.635,0l.911.428L2.511,2.934,4.446,1.323l.852.4L3.128,3.392l.95.447-.231.491-1.2-.564-.1.08-.25.531,1.251.589-.231.492L2.064,4.869,1.542,5.976Z" transform="translate(0 0)" fill="#8e7406"/></g></g><g transform="translate(28.167 23.229)"><circle cx="5.259" cy="5.259" r="5.259" transform="translate(0 7.437) rotate(-45)" fill="#ffce00"/><circle cx="4.437" cy="4.437" r="4.437" transform="translate(1.163 7.437) rotate(-45)" fill="#fff" opacity="0.2"/><g transform="translate(4.665 4.548)"><path d="M3.749,5.565l-.555-1L2.059,5.2l-.246-.443,1.134-.631-.285-.514L2.6,3.567,1.5,4.18,1.25,3.737l.875-.485L0,1.833l.821-.456L2.7,2.77,2.535.426,3.3,0l.08,2.553.857-.475.246.443L3.4,3.12l.005.121.266.479L4.8,3.093l.246.443-1.129.627.554,1Z" transform="translate(0 0)" fill="#8e7406"/></g></g><g transform="translate(20.718 22.039)"><circle cx="5.259" cy="5.259" r="5.259" transform="translate(0 7.437) rotate(-45)" fill="#ffce00"/><circle cx="4.437" cy="4.437" r="4.437" transform="translate(1.163 7.437) rotate(-45)" fill="#fff" opacity="0.2"/><g transform="translate(4.665 4.548)"><path d="M3.749,5.565l-.554-1L2.06,5.2l-.246-.444,1.134-.629-.285-.514L2.6,3.566,1.5,4.18,1.25,3.737l.874-.485L0,1.833l.822-.455L2.7,2.77,2.535.427,3.3,0l.08,2.553.857-.476.246.444-1.081.6.005.121.266.479L4.8,3.093l.246.444-1.129.626.554,1Z" transform="translate(0 0)" fill="#8e7406"/></g></g><g transform="translate(20.718 0)"><circle cx="8.213" cy="8.213" r="8.213" transform="translate(0 11.614) rotate(-45)" fill="#ffce00"/><ellipse cx="6.928" cy="6.929" rx="6.928" ry="6.929" transform="translate(4.686 4.686)" fill="#fff" opacity="0.2"/><g transform="translate(8.238 7.344)"><path d="M1.4,8.258l.532-1.7L0,5.951.236,5.2l1.934.6.273-.876-.018-.116L.542,4.219l.236-.755,1.491.466L1.583,0l1.4.437L3.432,4.06,5.9,1.35l1.309.409L4.414,4.6l1.461.456-.236.756L3.795,5.235l-.131.136-.255.816,1.924.6L5.1,7.543l-1.924-.6-.532,1.7Z" transform="translate(0 0)" fill="#8e7406"/></g></g><g transform="translate(0 17.793)"><circle cx="7.943" cy="7.943" r="7.943" transform="translate(0 11.233) rotate(-45)" fill="#ffce00"/><circle cx="6.701" cy="6.701" r="6.701" transform="translate(1.756 11.233) rotate(-45)" fill="#fff" opacity="0.2"/><g transform="translate(8.275 7.749)"><path d="M2.374,7.747,2.338,6.022.379,6.063.363,5.3l1.959-.041L2.3,4.369l-.053-.1L.343,4.308.327,3.543l1.51-.032L0,.119,1.418.089,2.945,3.274,4.378.028,5.7,0,4.01,3.466l1.48-.031.016.766-1.868.039L3.56,4.4l.017.827L5.527,5.19l.016.766L3.593,6,3.629,7.72Z" transform="translate(0 0)" fill="#8e7406"/></g></g><g transform="translate(12.599 25.219)"><ellipse cx="7.146" cy="7.146" rx="7.146" ry="7.146" transform="translate(1.38 1.38)" fill="#ffce00"/><circle cx="6.029" cy="6.029" r="6.029" transform="translate(0 8.526) rotate(-45)" fill="#fff" opacity="0.2"/><g transform="translate(5.4 4.616)"><path d="M.9,7.078l.683-1.394L0,4.908.3,4.29l1.583.776.352-.718v-.1L.7,3.489,1,2.871l1.22.6L2.15,0,3.3.562,3.2,3.737l2.485-2,1.072.525L3.975,4.33l1.2.586-.3.618L3.359,4.8l-.131.1L2.9,5.563l1.575.772-.3.618L2.6,6.181,1.914,7.575Z" transform="translate(0 0)" fill="#8e7406"/></g></g><path d="M0,3.054C1.364,2.382,1.769,1.837,2.269,0c.5,1.837.9,2.382,2.268,3.054-1.364.672-1.769,1.218-2.268,3.054-.5-1.837-.9-2.382-2.269-3.054" transform="translate(16.536 17.905) rotate(-178)" fill="#ffc449"/><path d="M0,5.213C2.328,4.065,3.019,3.135,3.871,0c.852,3.135,1.544,4.065,3.872,5.213C5.415,6.36,4.724,7.29,3.871,10.425,3.019,7.29,2.328,6.36,0,5.213" transform="translate(15.214 14.582) rotate(-178)" fill="#ffc449"/><path d="M0,2.037C1.459,1.87,2,1.507,3.056,0,2.911,1.832,3.1,2.459,4.123,3.514c-1.459.167-2,.531-3.055,2.037C1.212,3.72,1.021,3.092,0,2.037" transform="matrix(-0.934, 0.358, -0.358, -0.934, 46.865, 27.071)" fill="#ffc449"/></g></g><g transform="translate(65.332 38.216)"><rect width="1.276" height="23.787" transform="matrix(0.372, -0.928, 0.928, 0.372, 9.659, 47.888)" fill="#4e3b30"/><rect width="23.805" height="1.202" transform="matrix(0.928, -0.373, 0.373, 0.928, 8.255, 55.61)" fill="#4e3b30"/><g transform="translate(2.365 36.907)"><path d="M697.066,191.816c-3.045,9.932-5.152,17.3-6.757,16.59s.906-7.664,3.95-17.6,6.139-17.759,6.915-17.481S700.11,181.884,697.066,191.816Z" transform="translate(-689.81 -173.153)" fill="#c08d4e"/><path d="M736.533,191.422c2.813,9.857,4.75,17.171,6.37,16.424s-.727-7.643-3.539-17.5-5.725-17.609-6.507-17.311S733.721,181.563,736.533,191.422Z" transform="translate(-708.19 -173.025)" fill="#c08d4e"/></g><path d="M726.182,144.609c-.013-6.436-5.054-8.317-7.521-15.869-2.227-6.821-.385-10.78-1.892-15.631-.755-2.429-3.889-4.118-8.644-4.577a10.388,10.388,0,0,0-1.7-.13c-.171,0-.333.007-.5.01s-.331-.01-.5-.01a10.4,10.4,0,0,0-1.7.13c-4.755.459-7.889,2.148-8.644,4.577-1.508,4.85.335,8.809-1.892,15.631-2.467,7.552-7.507,9.433-7.521,15.869-.007,3.109,6.935,5.708,16.215,6.359a32.492,32.492,0,0,0,3.541.158c.168,0,.333,0,.5,0s.333,0,.5,0a32.481,32.481,0,0,0,3.541-.158C719.247,150.318,726.188,147.719,726.182,144.609Z" transform="translate(-685.668 -108.403)" fill="#e33c0b"/><path d="M724.787,166.423c0,1.952-7.409,3.535-16.548,3.535s-16.55-1.583-16.55-3.535,7.409-3.535,16.55-3.535S724.787,164.471,724.787,166.423Z" transform="translate(-688.251 -131.771)" fill="#b40019"/></g><text transform="matrix(0.966, 0.259, -0.259, 0.966, 42.15, 66.54)" fill="#03a58e" font-size="26" font-family="Oswald-Bold, Oswald" font-weight="700"><tspan x="-6.292" y="31">?</tspan></text><text transform="translate(10.99 62.201) rotate(-19)" fill="#03a58e" font-size="34" font-family="Oswald-Bold, Oswald" font-weight="700"><tspan x="-8.228" y="41">?</tspan></text></g></g></svg>