<svg xmlns="http://www.w3.org/2000/svg" xmlns:xlink="http://www.w3.org/1999/xlink" width="140" height="140" viewBox="0 0 140 140"><defs><clipPath id="a"><circle cx="70" cy="70" r="70" transform="translate(0 0.477)" fill="#f7f3e5"/></clipPath></defs><g transform="translate(0 -0.477)"><circle cx="70" cy="70" r="70" transform="translate(0 0.477)" fill="#f7f3e5"/><g clip-path="url(#a)"><g transform="matrix(0.985, -0.174, 0.174, 0.985, -1215.584, -641.097)"><path d="M1158.234,1125.415c-.417-.6-1.3-.57-1.712-1.167-.2-.295-.171-.792-.412-1.09a3.739,3.739,0,0,0-1.208-.807c-.913-.511-2.169-.638-2.969-1.3-.851-.7-1.26-2.061-1.982-2.888a3.928,3.928,0,0,1-.9-1.129c-.233-.513-.244-1.381-.562-1.821-.812-1.123-2.285-.811-3.512-.8-2.234.024-4.2-.792-6.431-.76a7.878,7.878,0,0,1-1.883-.344,11.391,11.391,0,0,0-2.075-.032h-1.509a9.3,9.3,0,0,1-.6,2.676c-.512,1.068-1.812,1.668-2.8,2.235a10.2,10.2,0,0,1-5.275,1.5c-2.042-.024-4.086,0-6.128,0a34.585,34.585,0,0,0-5.943.084c-1.676.3-3.762.38-4.934,1.861-1.378,1.739-.713,3.794-1.179,5.7-.2.81-.561,1.5-.725,2.33-.2.991-.409,1.978-.615,2.961a10.6,10.6,0,0,1-2.348,4.387c-.678.836-1.084,1.835-1.726,2.7-.88,1.19-1.906,2.29-2.81,3.468-1.94,2.525-4.05,4.905-5.952,7.46-.979,1.314-2.2,2.347-3.249,3.593-1.162,1.376-2.08,2.919-3.163,4.347-.6.792-1.366,1.386-1.9,2.237a6.815,6.815,0,0,0-.82,2.264c-.5,2.135-.88,4.211-1.238,6.416-.248,1.515-.489,3.032-.762,4.542-.251,1.38-.107,2.755-.359,4.113-.706,3.791-.293,7.91-.293,11.774,0,1.315-.09,3.247-.176,5.425H1124.5c.356-1.49.729-2.973,1.187-4.438a30.577,30.577,0,0,1,1.358-4.465,11.567,11.567,0,0,1,2.256-3.353c1.1-1.133,1.886-2.575,2.9-3.792,1.434-1.716,2.948-3.286,4.293-5.072,1.086-1.442,2.068-3,3.25-4.367,1.363-1.573,3.027-2.926,4.283-4.592.519-.69.807-1.505,1.291-2.212.506-.741,1.167-1.278,1.73-1.958,1.344-1.622,2.354-3.406,3.779-4.981a21.485,21.485,0,0,0,5-9.971c.45-2.531,1.28-4.987,1.773-7.517a29.047,29.047,0,0,0,.756-5.64c0-2.046-.062-4.1.015-6.147A2.743,2.743,0,0,0,1158.234,1125.415Z" transform="translate(0 -180.359)" fill="#1a1311"/><path d="M1410.042,1106.141a7.07,7.07,0,0,1-.231-1.745c-.052-.846-.358-1.691-.488-2.529a10.512,10.512,0,0,1-.083-1.21,17.1,17.1,0,0,0-.34-1.69,16.479,16.479,0,0,1-.235-2.5,17.265,17.265,0,0,0-.132-3.017c-.346-2.087-.412-4.219-.707-6.318a52.185,52.185,0,0,0-1.043-6.33c-.213-.787-.282-1.625-.557-2.392-.383-1.07-.834-2.113-1.233-3.174a8.626,8.626,0,0,0-.516-1.377,10.757,10.757,0,0,1-.707-1.191,20.66,20.66,0,0,0-1.136-2.189,18.978,18.978,0,0,1-1.317-3.245,11.083,11.083,0,0,1-.764-3.028c-.054-1,0-2.017,0-3.018a20.062,20.062,0,0,1,.419-3.584c.106-.6.357-1.158.484-1.745a1.924,1.924,0,0,1,.266-.891,3.5,3.5,0,0,0,.481-.891c.222-.6.482-1.183.665-1.8a5.886,5.886,0,0,0,.138-1.745,4.529,4.529,0,0,0-.189-1.6c-.177-.527-.292-1.035-.514-1.551a11.612,11.612,0,0,0-2.131-3.166,3.717,3.717,0,0,1-.447-.745,10.317,10.317,0,0,0-.88-1.122,3.237,3.237,0,0,0-1.644-.784,4.74,4.74,0,0,0-3.245-.2,9.525,9.525,0,0,0-1.882,1.565c-.264.227-.507.454-.754.7-.6.6-1.032,1.308-1.607,1.915a10,10,0,0,0-1.237,1.3,12.709,12.709,0,0,1-1.14,1.532,8.988,8.988,0,0,0-.745,1.091c-.164.238-.4.389-.562.625a9.839,9.839,0,0,1-1.132,1.478l-.323.323a31.667,31.667,0,0,0,.318,3.174,3.856,3.856,0,0,0,.392,1.312,4.152,4.152,0,0,0,1.14.7,16.114,16.114,0,0,1,3.575,2.414,10.689,10.689,0,0,1,1.691,2.545,5.413,5.413,0,0,1,.526.847,6.075,6.075,0,0,1,.029,1.527c.1,3.109.756,6.215.938,9.324.1,1.706.013,3.445.014,5.156,0,1.548.147,3.073.2,4.62-.12-.5-.359-1.037-.528-1.528a7.66,7.66,0,0,0-.608-1.358c-.3-.524-.524-1.02-.787-1.551a4.442,4.442,0,0,0-.925-1.089,7.088,7.088,0,0,1-.748-1.1c-.7-1.02-1.708-1.717-2.458-2.674-.242-.309-.33-.679-.585-.981a5.144,5.144,0,0,0-1.707-1.428,12.633,12.633,0,0,0-2.039-.611,9.474,9.474,0,0,0-1.654-.393c-.684-.027-.827.77-.948,1.335a32.835,32.835,0,0,0-.552,3.325c-.168,1.539-.38,3.039-.475,4.586-.063,1.037-.064,2.117-.179,3.148-.1.939-.31,1.794-.342,2.746a31.278,31.278,0,0,1-.611,4.664c-.166.9-.313,1.813-.52,2.7-.138.6-.349,1.086.217,1.473a7.152,7.152,0,0,1,.919.6c.279.255.506.6.788.859a7.675,7.675,0,0,0,1.663,1.133,6.053,6.053,0,0,1,1.652,1.744,11.74,11.74,0,0,1,1.173,1.7,10.308,10.308,0,0,0,.857,1.425,25.578,25.578,0,0,1,1.545,2.155,29.363,29.363,0,0,1,1.947,2.844,20.944,20.944,0,0,0,1.164,2.066c.557.844,1.037,1.749,1.656,2.55a16.267,16.267,0,0,0,1.5,1.985,11.41,11.41,0,0,0,1.854,1.117,7.092,7.092,0,0,0,2.863,1.132c.76.09,1.528.319,2.281.388.135.012.275-.032.411-.02a9.535,9.535,0,0,1,1.076.35,13.959,13.959,0,0,1,2.641.47c1.344.554,2.377-1.807,3.032-2.65.407-.523.6-1.135.985-1.661a3.385,3.385,0,0,0,.675-1.031c.075-.225.132-.394.227-.618.263-.621.78-1.025,1.03-1.647a7.639,7.639,0,0,0,.153-3.527Z" transform="translate(-225.038 -125.813)" fill="#1a1311"/><path d="M1401.449,1083.124l1.187-1.187c-.019-.359-.052-.714-.055-1.077Z" transform="translate(-243.095 -155.856)" fill="#231815"/><path d="M1296.116,1118.376a2.4,2.4,0,0,1-.5-.255l1.442,2.243a4.573,4.573,0,0,0-.015-1.163.972.972,0,0,0-.381-.547,3.3,3.3,0,0,1-.313-.12A1.729,1.729,0,0,1,1296.116,1118.376Z" transform="translate(-163.039 -184.042)" fill="#231815"/><rect width="12.743" height="25.891" rx="6.372" transform="translate(1151.264 908.2) rotate(-28.69)" fill="#f7f7f7"/><path d="M1277.537,908.4a3.482,3.482,0,0,0-.713-1.118c-.247-.3-.412-.768-.787-.933-.349-.153-.777.054-1.113.124a3.174,3.174,0,0,0-.886.219c-.305.149-.532.41-.852.546-.669.283-.715.043-.7-.564.009-.492,0-.985,0-1.478v-3.339c0-.836.046-1.684.009-2.519-.045-1.04-.565-1.982-.584-3.022a12.411,12.411,0,0,0-.514-2.626,16,16,0,0,0-.457-1.935,26.851,26.851,0,0,1-.948-2.556c-.246-.97-.826-1.829-1.052-2.828a7.693,7.693,0,0,0-.4-1.637,12.522,12.522,0,0,0-.82-1.278c-.457-.726-.983-1.372-1.462-2.08a3.93,3.93,0,0,0-1.34-1.168c-.74-.471-1.377-1.093-2.108-1.577a28,28,0,0,0-2.97-1.353,7.314,7.314,0,0,0-2.411-.948,15.656,15.656,0,0,1-2.353-.713,14.85,14.85,0,0,0-2.428-.415,37.981,37.981,0,0,0-4.168-.381q-1.946.016-3.893,0a24.755,24.755,0,0,0-3.234.34c-1.036.128-2.029.166-3.065.363a8.55,8.55,0,0,0-3.354,1.419,15.873,15.873,0,0,0-2.631,2.06c-.944,1.059-1.851,2.169-2.839,3.189a14.115,14.115,0,0,0-1.22,1.337c-.391.521-.657,1.106-1.034,1.634-.409.572-.894,1.071-1.269,1.67-.331.529-.635,1.068-.995,1.58-.651.925-1.312,1.867-2.033,2.74-.6.724-1.215,1.407-1.791,2.156a7.259,7.259,0,0,0-1.127,2.362,21.3,21.3,0,0,0-.661,2.358,9.3,9.3,0,0,1-.468,1.853c-.244.564-.931.5-1.512.421-.274-.038-.711-.371-.952-.341-.341.042-.526.451-.666.711a4.147,4.147,0,0,0-.222,2.026c0,.643,0,1.286,0,1.929a18.9,18.9,0,0,0,.235,2.443c.125,1.006.192,2.05.377,3.046a4.976,4.976,0,0,0,.492,1.863c.456.63,1.505.935,2.148,1.329a4.152,4.152,0,0,0,2.374.564c.773-.025,1.137.1,1.169.928a9.3,9.3,0,0,0,.327,2.512,11.4,11.4,0,0,0,.655,1.793c.3.618.726,1.2,1.089,1.787.437.708.563,1.488.94,2.216a10.064,10.064,0,0,0,1.472,2.41c.473.519.9,1.019,1.4,1.51.575.559,1.275.906,1.885,1.4a18.581,18.581,0,0,1,1.9,1.7,18.84,18.84,0,0,1,1.844,2.267,12.214,12.214,0,0,0,.967,1.52,1.023,1.023,0,0,0,.223.153l-.256-.4a4.732,4.732,0,0,0,.755.653,2.134,2.134,0,0,1,.548.278,3.461,3.461,0,0,1,.4.154c.541.264,1.128.39,1.693.613a4.841,4.841,0,0,0,1.17.387c.373.046.746-.027,1.126.028a19.785,19.785,0,0,0,2.972.34c1.214,0,2.408-.2,3.611-.189a9.93,9.93,0,0,0,2.825-.419,10.284,10.284,0,0,0,2.109-.7c.8-.466,1.585-.9,2.406-1.334,1.053-.55,2.25-.456,3.37-.792a3.853,3.853,0,0,0,1.2-.556,3.258,3.258,0,0,1,1.051-.737,3.075,3.075,0,0,0,1.726-1.3c.613-1.021,1.636-1.736,2.325-2.686.71-.98,1.545-1.832,2.268-2.793.351-.467.545-1.005.877-1.471.225-.316.574-.516.784-.843.233-.364.245-.619.574-.933.284-.271.618-.481.926-.722a8.154,8.154,0,0,1,2.018-.888c.747-.307,1.511-.481,2.268-.75a4.565,4.565,0,0,0,.844-.428c.26-.153.614-.256.854-.41a3.984,3.984,0,0,0,1.219-1.628,2.587,2.587,0,0,0,.342-.635c.071-.256.08-.68.133-.959a17.409,17.409,0,0,0,.428-2.837c.015-.741,0-1.486,0-2.228A5.49,5.49,0,0,0,1277.537,908.4Z" transform="translate(-102.431)" fill="#1a1311"/><path d="M1349.085,1012.313l12.62-2.007s-.943,5.7-5.971,6.745S1349.085,1012.313,1349.085,1012.313Z" transform="translate(-203.485 -102.486)" fill="#fff"/><path d="M1282.5,997.337l-11.565-5.435s-.677,5.733,3.862,8.139S1282.5,997.337,1282.5,997.337Z" transform="translate(-144.343 -88.565)" fill="#fff"/><path d="M1301.055,1063.25s9.722,3.14,14.8-1.155C1313.911,1069.139,1305.2,1072.243,1301.055,1063.25Z" transform="translate(-167.153 -141.661)" fill="#fff"/></g></g></g></svg>