<svg xmlns="http://www.w3.org/2000/svg" width="140" height="140" viewBox="0 0 140 140">
  <g id="merit_obj13" transform="translate(0 -0.477)">
    <circle id="楕円形_23" data-name="楕円形 23" cx="70" cy="70" r="70" transform="translate(0 0.477)" fill="#f7f3e5"/>
    <g id="グループ_15547" data-name="グループ 15547" transform="translate(18.214 4.732)">
      <g id="boll" transform="translate(6.588 22.244)">
        <g id="グループ_15546" data-name="グループ 15546">
          <g id="グループ_15537" data-name="グループ 15537" transform="translate(0 0.085)">
            <path id="パス_89309" data-name="パス 89309" d="M48.673,46.474c-.21-.6-.445-1.195-.711-1.787s-.563-1.181-.876-1.743l.649,1.444-2.2.99-.9-1.995,2.144-.964c-.03-.05-.058-.1-.088-.152l-2.127.956-.9-1.994,1.781-.8-.109-.142-1.743.784-.9-1.994,1.167-.525c-.043-.046-.087-.088-.131-.132l-1.107.5-.9-1.995.256-.115-.153-.123-.175.079-.148-.328c-.1-.075-.193-.151-.291-.224l.28.624-2.2.99-.9-1.995,1.343-.6c-.061-.037-.124-.072-.186-.107l-1.229.552-.689-1.533c-.078-.034-.155-.063-.233-.1l.764,1.7-2.2.99-.9-1.995L37,33.876l-.231-.087L35,34.58,34.34,33.1l-.208-.039.712,1.585-2.2.99-.9-1.995,1.572-.707c-.11-.014-.221-.031-.332-.042l-1.312.589-.3-.663c-.063,0-.125,0-.188.007l.327.728-2.2.991-.637-1.417c-.058.013-.116.024-.174.037l.652,1.451-2.2.989L26.2,33.937c-.027.012-.054.021-.08.033l-.079.038.752,1.673-2.2.99-.652-1.45c-.048.035-.1.071-.144.105l.637,1.416-2.2.99-.327-.727c-.043.046-.087.089-.13.136l.3.663-1.31.589c-.065.09-.126.185-.188.276l1.57-.706.9,1.995-2.2.99-.712-1.584c-.037.06-.073.121-.109.181l.662,1.474-1.76.791c-.03.076-.059.154-.088.231l1.919-.863.9,1.994-2.2.99-.764-1.7c-.028.08-.057.157-.084.237l.689,1.533-1.228.552c-.014.07-.03.14-.043.211l1.343-.6.9,1.995-2.2.99-.28-.623c-.011.121-.017.244-.025.367l.147.327-.175.079c0,.065-.007.13-.009.2l.255-.115.9,1.994-1.108.5c.005.062.007.123.013.186l1.166-.524.9,1.994-1.743.783c.012.059.021.118.034.176l1.78-.8.9,1.994-2.127.956c.018.056.037.111.055.167l2.143-.963.9,1.995-2.2.991-.636-1.415q.314.9.713,1.781t.85,1.694l-.855-1.9,2.2-.991.9,1.994L20.54,59.2c.03.051.063.1.092.15l2.173-.977.9,1.995-1.874.842c.034.048.069.1.1.144l1.842-.828.9,1.995-1.325.6c.04.045.078.094.119.138l1.277-.574.9,1.994-.483.217c.049.043.1.083.148.125l.407-.182.375.835c.091.07.187.129.279.2l-.5-1.1,2.2-.99.9,1.995-1.674.752c.057.037.115.077.172.114l1.573-.707.9,1.994-.031.014c.094.042.188.083.283.123l-.022-.049,2.2-.99L33.256,69c.108.021.216.046.324.065l2.115-.951.525,1.167.189,0-.555-1.234,2.2-.99.866,1.926c.058-.013.116-.023.175-.036l-.882-1.962,2.2-.99.9,1.995L39.3,68.89a13.062,13.062,0,0,0,1.338-.41l.749-.336.013.028.081-.033.078-.038-.013-.029.749-.337a12.954,12.954,0,0,0,1.2-.729l-2.016.906-.9-1.995,2.2-.99.882,1.962c.048-.034.094-.072.142-.107l-.866-1.926,2.2-.991L45.7,65.1l.128-.139L45.3,63.795l2.116-.951c.057-.093.111-.189.166-.284l-.889-1.979,2.2-.99.022.049c.033-.1.065-.2.1-.294l-.032.014-.9-1.994,1.574-.707c.011-.067.019-.136.029-.2l-1.674.752-.9-1.994,2.2-.99.5,1.1c.01-.114.031-.224.038-.339l-.376-.836.407-.183c0-.064,0-.129.006-.194l-.484.218L48.509,52l1.278-.575c-.006-.06-.018-.121-.024-.18l-1.325.6-.9-1.994,1.842-.828c-.013-.058-.025-.116-.039-.174l-1.875.843-.9-1.995,2.174-.977c-.018-.056-.032-.112-.052-.168l-2.194.986-.9-1.994,2.2-.99ZM21.222,48.541l-2.2.99-.9-1.994,2.2-.99Zm.968,2.154-2.2.99-.9-1.994,2.2-.99Zm.968,2.153-2.2.99-.9-1.995,2.2-.99ZM24.127,55l-2.2.99L21.028,54l2.2-.99Zm.968,2.153-2.2.99L22,56.151l2.2-.99Zm.968,2.154-2.2.99-.9-1.995,2.2-.99Zm.969,2.154-2.2.99-.9-1.994,2.2-.99ZM28,63.615l-2.2.99-.9-1.994,2.2-.99ZM22.615,45.326l-2.2.99-.9-1.995,2.2-.99Zm.968,2.153-2.2.99-.9-1.994,2.2-.99Zm.968,2.154-2.2.99-.9-1.994,2.2-.99Zm.968,2.153-2.2.99-.9-1.994,2.2-.99Zm.968,2.154-2.2.99-.9-1.995,2.2-.99Zm.968,2.153-2.2.99-.9-1.994,2.2-.99Zm.968,2.154-2.2.99-.9-1.995,2.2-.99Zm.968,2.154-2.2.99-.9-1.994,2.2-.99Zm.968,2.153-2.2.99-.9-1.994,2.2-.99Zm.968,2.154-2.2.99-.9-1.995,2.2-.99Zm.968,2.153-2.2.99-.9-1.994,2.2-.99Zm-8.288-24.75-2.2.99-.9-1.995,2.2-.99Zm.968,2.154-2.2.99-.9-1.995,2.2-.99Zm.968,2.153-2.2.99-.9-1.994,2.2-.99Zm.968,2.153-2.2.99-.9-1.994,2.2-.99Zm.968,2.154-2.2.99-.9-1.994,2.2-.99Zm.968,2.154-2.2.99-.9-1.995,2.2-.99Zm.968,2.153-2.2.99-.9-1.994,2.2-.99Zm.968,2.154-2.2.99-.9-1.995,2.2-.99Zm.969,2.154-2.2.99-.9-1.995,2.2-.99Zm.968,2.153-2.2.99-.9-1.994,2.2-.99Zm.968,2.154-2.2.99-.9-1.994,2.2-.99Zm.968,2.153-2.2.99-.9-1.994,2.2-.99Zm.968,2.154-2.2.99-.9-1.994,2.2-.99ZM25.4,38.9l-2.2.99-.9-1.995,2.2-.99Zm.968,2.154-2.2.99-.9-1.994,2.2-.99Zm.968,2.154-2.2.99-.9-1.995,2.2-.99Zm.968,2.153-2.2.99-.9-1.994,2.2-.99Zm.968,2.154-2.2.99-.9-1.994,2.2-.99Zm.968,2.153-2.2.99-.9-1.994,2.2-.99Zm.968,2.154-2.2.99-.9-1.995,2.2-.99Zm.968,2.153-2.2.99-.9-1.994,2.2-.99Zm.968,2.154-2.2.99-.9-1.995,2.2-.99Zm.968,2.154-2.2.99-.9-1.994,2.2-.99Zm.968,2.153-2.2.99-.9-1.995,2.2-.99Zm.968,2.154-2.2.99-.9-1.995,2.2-.99Zm.968,2.153-2.2.99-.9-1.994,2.2-.99Zm.968,2.153-2.2.99-.9-1.994,2.2-.99ZM27.762,37.835l-2.2.99-.9-1.995,2.2-.99Zm.968,2.153-2.2.991-.9-1.995,2.2-.99Zm.968,2.154-2.2.991-.9-1.995,2.2-.99Zm.968,2.153-2.2.991-.9-1.995,2.2-.99Zm.968,2.154-2.2.99-.9-1.994,2.2-.99ZM32.6,48.6l-2.2.991L29.5,47.6l2.2-.991Zm.968,2.154-2.2.99-.9-1.995,2.2-.99Zm.968,2.153-2.2.99-.9-1.994,2.2-.99Zm.968,2.154-2.2.99-.9-1.995,2.2-.991Zm.968,2.154-2.2.991-.9-1.995,2.2-.99Zm.968,2.153-2.2.99-.9-1.994,2.2-.99Zm.968,2.154-2.2.99-.9-1.995,2.2-.99Zm.968,2.153-2.2.99-.9-1.994,2.2-.99Zm.968,2.154-2.2.99-.9-1.994,2.2-.991ZM30.121,36.775l-2.2.989-.9-1.995,2.2-.99Zm.968,2.153-2.2.99-.9-1.994,2.2-.99Zm.968,2.154-2.2.99-.9-1.995,2.2-.989Zm.968,2.153-2.2.99-.9-1.994,2.2-.99Zm.968,2.154-2.2.99-.9-1.994,2.2-.99Zm.968,2.153-2.2.99-.9-1.994,2.2-.99ZM35.93,49.7l-2.2.99-.9-1.995,2.2-.99Zm.968,2.153-2.2.989-.9-1.994,2.2-.99ZM37.866,54l-2.2.99L34.768,53l2.2-.989Zm.968,2.154-2.2.99-.9-1.995,2.2-.989Zm.968,2.153-2.2.989L36.7,57.3l2.2-.989Zm.968,2.154-2.2.989-.9-1.994,2.2-.99Zm.968,2.153-2.2.99-.9-1.994,2.2-.989Zm.968,2.154-2.2.989-.9-1.994,2.2-.989ZM32.484,35.712l-2.2.991-.9-1.995,2.2-.991Zm.968,2.154-2.2.991-.9-1.994,2.2-.991Zm.968,2.153-2.2.991-.9-1.995,2.2-.991Zm.968,2.154-2.2.991-.9-1.994,2.2-.991Zm.968,2.153-2.2.991-.9-1.994,2.2-.991Zm.968,2.153-2.2.991-.9-1.994,2.2-.991Zm.968,2.154-2.2.991-.9-1.995,2.2-.991Zm.968,2.153-2.2.991-.9-1.994,2.2-.991Zm.968,2.154-2.2.991-.9-1.995,2.2-.991Zm.968,2.154-2.2.991-.9-1.994,2.2-.991Zm.968,2.153-2.2.991-.9-1.994,2.2-.991Zm.968,2.154-2.2.991-.9-1.995,2.2-.991Zm.968,2.153-2.2.991L41,60.551l2.2-.991Zm.968,2.153-2.2.991-.9-1.994,2.2-.991ZM35.813,36.8l-2.2.99-.9-1.995,2.2-.99Zm.968,2.154-2.2.99-.9-1.995,2.2-.99Zm.968,2.153-2.2.99-.9-1.994,2.2-.99Zm.968,2.154-2.2.99-.9-1.994,2.2-.99Zm.968,2.153-2.2.99-.9-1.994,2.2-.99Zm.968,2.154-2.2.99-.9-1.995,2.2-.99Zm.968,2.153-2.2.99-.9-1.994,2.2-.99Zm.968,2.154-2.2.99-.9-1.995,2.2-.99Zm.968,2.154-2.2.99-.9-1.995,2.2-.99Zm.968,2.153-2.2.99-.9-1.994,2.2-.99Zm.968,2.154-2.2.99-.9-1.995,2.2-.99Zm.968,2.153-2.2.99-.9-1.994,2.2-.99Zm.968,2.154-2.2.99-.9-1.994,2.2-.99ZM39.142,37.9l-2.2.99-.9-1.995,2.2-.99Zm.968,2.153-2.2.99-.9-1.994,2.2-.99Zm.968,2.154-2.2.99-.9-1.994,2.2-.99Zm.968,2.153-2.2.99-.9-1.994,2.2-.99Zm.968,2.154-2.2.99-.9-1.995,2.2-.99Zm.968,2.153-2.2.99-.9-1.994,2.2-.99Zm.968,2.154-2.2.99-.9-1.995,2.2-.99Zm.968,2.154-2.2.99-.9-1.994,2.2-.99Zm.968,2.153-2.2.99-.9-1.994,2.2-.99Zm.968,2.154-2.2.99-.9-1.995,2.2-.99Zm.968,2.153-2.2.99-.9-1.994,2.2-.99ZM42.471,38.989l-2.2.99-.9-1.995,2.2-.99Zm.968,2.154-2.2.99-.9-1.994,2.2-.99Zm.968,2.153-2.2.99-.9-1.994,2.2-.99Zm.968,2.154-2.2.99-.9-1.995,2.2-.99Zm.968,2.153-2.2.99-.9-1.994,2.2-.99Zm.968,2.154-2.2.99-.9-1.995,2.2-.99Zm.969,2.154-2.2.99-.9-1.994,2.2-.99Zm.968,2.153-2.2.99-.9-1.994,2.2-.99Z" transform="translate(-15.25 -30.569)" fill="gray"/>
            <g id="パス_89310" data-name="パス 89310" transform="translate(-6.588 -22.63)" fill="#467bb7" stroke-linecap="round" stroke-linejoin="round">
              <path d="M 51.51947402954102 103.6649551391602 C 51.51944351196289 103.6649551391602 51.51942443847656 103.6649551391602 51.51939010620117 103.6649551391602 C 51.14838027954102 103.6649322509766 50.81147384643555 103.4488983154297 50.66108703613281 103.1145706176758 L 40.71517944335938 80.98875427246094 L 40.21767425537109 79.88269805908203 L 39.51822662353516 78.32657623291016 L 39.51056671142578 78.30953216552734 L 39.50227355957031 78.29277801513672 C 36.17400360107422 71.57164001464844 30.27101516723633 67.82396697998047 24.56237983703613 64.19968414306641 C 24.28318023681641 64.02226257324219 23.88606262207031 63.80602645874023 23.38329696655273 63.53226089477539 C 20.31685066223145 61.86255645751953 13.13581466674805 57.9524040222168 9.629778861999512 50.15262603759766 C 8.514520645141602 47.67176818847656 7.84828519821167 45.07778167724609 7.649567604064941 42.44267272949219 C 7.458296775817871 39.9062385559082 7.706049919128418 37.44088745117188 8.385920524597168 35.11509704589844 C 9.770908355712891 30.37715721130371 12.79226207733154 26.75252151489258 16.8934154510498 24.90888595581055 C 18.7812385559082 24.06026268005371 20.80600357055664 23.62996864318848 22.91144943237305 23.62996864318848 C 26.38819122314453 23.62996864318848 29.8885555267334 24.78964996337891 33.03410720825195 26.98363876342773 C 36.27634429931641 29.24507331848145 38.89060211181641 32.44351959228516 40.5942497253418 36.23321533203125 C 44.10074234008789 44.03402709960938 42.2585563659668 52.00016784667969 41.47189712524414 55.40187454223633 C 41.34304809570313 55.95902633666992 41.24128341674805 56.39910888671875 41.18856811523438 56.72593307495117 C 40.19875717163086 62.85245132446289 39.17518997192383 69.18780517578125 41.22043991088867 75.60053253173828 L 41.23773193359375 75.65476989746094 L 41.26107406616211 75.70668792724609 L 53.09077835083008 102.0223693847656 C 53.30208587646484 102.4924468994141 53.09134292602539 103.0470657348633 52.62099075317383 103.258659362793 L 51.89755630493164 103.5834732055664 C 51.77716064453125 103.6376037597656 51.65008926391602 103.6649551391602 51.51947402954102 103.6649551391602 Z M 23.58584976196289 62.69768524169922 L 26.53201484680176 64.58954620361328 C 29.70395660400391 66.62636566162109 33.33796691894531 69.07643890380859 36.32253265380859 72.38449859619141 L 36.95056915283203 73.08058929443359 L 37.64071655273438 72.53428649902344 C 37.84288787841797 72.4241943359375 38.5849494934082 72.07976531982422 38.7995719909668 71.99305725097656 L 39.59613037109375 71.79222869873047 L 39.50057983398438 70.92597961425781 C 39.01333236694336 66.50896453857422 39.5919303894043 62.17409896850586 40.1724967956543 58.45767593383789 L 40.71298980712891 54.99787521362305 L 38.42696762084961 57.65050888061523 C 36.99381637573242 59.31351089477539 35.27942657470703 60.60083770751953 33.33140182495117 61.47673416137695 C 31.45188522338867 62.32146072387695 29.42664909362793 62.74981689453125 27.31210899353027 62.74981689453125 C 27.23702621459961 62.74981689453125 27.16187286376953 62.74927520751953 27.08676719665527 62.74819183349609 L 23.58584976196289 62.69768524169922 Z M 20.52986335754395 60.48905944824219 C 22.72575759887695 61.49837112426758 25.04833793640137 62.02855682373047 27.29727363586426 62.02846145629883 C 29.30468559265137 62.02838134765625 31.23417854309082 61.61852264404297 33.03218078613281 60.81026077270508 C 36.86098480224609 59.08916091918945 39.76370239257813 55.62503051757813 41.09494781494141 51.22837066650391 L 41.11526107788086 51.23079299926758 L 41.33079147338867 50.37640380859375 C 42.44205093383789 45.93354415893555 41.94388580322266 41.01702880859375 39.92803955078125 36.53253173828125 C 36.65382766723633 29.24889755249023 29.82446098327637 24.35521507263184 22.93402671813965 24.35521507263184 C 20.92483901977539 24.35521507263184 18.99326133728027 24.76556777954102 17.19295501708984 25.57487487792969 C 9.022955894470215 29.24746322631836 5.928873538970947 40.13871002197266 10.29575538635254 49.85327529907227 C 12.29377937316895 54.29791259765625 15.59885883331299 57.908935546875 19.61112213134766 60.03445434570313 L 19.61327362060547 60.03643798828125 L 19.73151969909668 60.09800338745117 C 19.7581729888916 60.11188125610352 19.78475761413574 60.12563705444336 19.81145668029785 60.13936996459961 L 20.51758003234863 60.507568359375 L 20.52986335754395 60.48905944824219 Z" stroke="none"/>
              <path d="M 40.50149536132813 55.15977478027344 C 40.26354217529297 55.58071136474609 40.00962066650391 55.98834991455078 39.7403564453125 56.38202667236328 C 39.83631896972656 56.40983581542969 39.93108749389648 56.44509887695313 40.02390289306641 56.48802185058594 C 40.08431243896484 56.51595306396484 40.14275360107422 56.54660034179688 40.1992073059082 56.57979583740234 C 40.19988250732422 56.57560729980469 40.20064926147461 56.57086944580078 40.20132446289063 56.56668090820313 C 40.25941467285156 56.20660400390625 40.36452484130859 55.75205993652344 40.49761199951172 55.17655944824219 C 40.49891662597656 55.17091369628906 40.50018310546875 55.16545104980469 40.50149536132813 55.15977478027344 M 23.8621826171875 62.65439224243164 C 24.38120651245117 62.93699645996094 24.79117202758789 63.16024017333984 25.09836578369141 63.3554573059082 C 25.10227584838867 63.35794067382813 25.10585784912109 63.36021423339844 25.10977172851563 63.36269760131836 C 25.12237930297852 63.29865264892578 25.13822937011719 63.23469543457031 25.15736389160156 63.17118072509766 C 25.18607330322266 63.07588577270508 25.22140121459961 62.98405456542969 25.26281356811523 62.89601516723633 C 24.79584503173828 62.83572387695313 24.32860946655273 62.75508117675781 23.8621826171875 62.65439224243164 M 39.48926544189453 72.77792358398438 C 39.38681793212891 72.83567810058594 39.27821350097656 72.88491821289063 39.16433715820313 72.92446899414063 C 38.96135711669922 73.00846862792969 38.33978271484375 73.29644775390625 38.13801193237305 73.40257263183594 C 38.00572204589844 73.48684692382813 37.86616897583008 73.55390167236328 37.72258758544922 73.60387420654297 C 38.72275543212891 74.88360595703125 39.62508392333984 76.287353515625 40.39841461181641 77.84901428222656 C 40.40946197509766 77.87134552001953 40.42010116577148 77.89387512207031 40.43032836914063 77.91659545898438 L 41.12966156005859 79.47248077392578 L 41.62727355957031 80.57875823974609 L 51.54637908935547 102.6449813842773 L 52.15203475952148 102.373046875 L 40.34899139404297 76.11669921875 C 40.31788635253906 76.04753112792969 40.29076385498047 75.97664642333984 40.26771545410156 75.90439605712891 C 39.93383026123047 74.85752105712891 39.67855072021484 73.81549072265625 39.48926544189453 72.77792358398438 M 22.91144561767578 22.62997436523438 C 30.30964279174805 22.6304931640625 37.83425903320313 27.65482330322266 41.50632476806641 35.82319641113281 C 45.71562576293945 45.18752288818359 42.52878952026367 54.69692993164063 42.17580413818359 56.88518524169922 C 41.20111465454102 62.91803359985352 40.20562744140625 69.12760925292969 42.17314910888672 75.29667663574219 L 54.00286483764648 101.6123580932617 C 54.43900299072266 102.5826187133789 54.00220108032227 103.7338180541992 53.03126525878906 104.1706237792969 L 52.30715179443359 104.4957427978516 C 52.05155563354492 104.6106414794922 51.7835807800293 104.6649551391602 51.51932525634766 104.6649551391602 C 50.77997970581055 104.6649551391602 50.0705680847168 104.2394485473633 49.74909973144531 103.5248107910156 L 39.8031005859375 81.39875793457031 L 39.30568695068359 80.29290771484375 L 38.60612487792969 78.73654174804688 C 35.40381622314453 72.26976013183594 29.62708854675293 68.59965515136719 24.02640151977539 65.04391479492188 C 22.15641403198242 63.85556793212891 12.9269905090332 59.92693328857422 8.717689514160156 50.56260681152344 C 3.959449768066406 39.97808074951172 7.443088531494141 28.060791015625 16.48340225219727 23.99680328369141 C 18.54689407348633 23.0692138671875 20.72311782836914 22.62982177734375 22.91144561767578 22.62997436523438 Z M 40.36067581176758 50.13375854492188 C 41.37540054321289 46.07684326171875 41.01267623901367 41.38450622558594 39.01595306396484 36.94253540039063 C 35.79767990112305 29.78333282470703 29.27848243713379 25.35520935058594 22.93402862548828 25.35520935058594 C 21.1154899597168 25.35520935058594 19.31082534790039 25.71920013427734 17.60296249389648 26.48695373535156 C 9.935451507568359 29.93365478515625 7.067100524902344 40.23176574707031 11.20783996582031 49.44326782226563 C 13.20456314086914 53.88501739501953 16.47367477416992 57.27113342285156 20.18202590942383 59.20481872558594 L 20.18291473388672 59.2034912109375 C 20.18645095825195 59.20591735839844 20.19042587280273 59.20835876464844 20.19330215454102 59.21102142333984 C 22.46054458618164 60.39138793945313 24.89124298095703 61.02846527099609 27.2972297668457 61.02846527099609 C 29.11357307434082 61.02846527099609 30.91607666015625 60.66512298583984 32.62216186523438 59.89818572998047 C 36.58883666992188 58.11510467529297 39.26654052734375 54.49566650390625 40.35756301879883 50.14392852783203 C 40.35823822021484 50.14018249511719 40.35911560058594 50.1370849609375 40.35890197753906 50.133544921875 L 40.36067581176758 50.13375854492188 Z M 37.06501388549805 71.71461486816406 C 37.18489074707031 71.61973571777344 38.39866638183594 71.06283569335938 38.50659942626953 71.03562927246094 C 38.02245330810547 66.646728515625 38.55348968505859 62.34254455566406 39.18447875976563 58.30332946777344 C 37.70331573486328 60.02203369140625 35.88021469116211 61.42713165283203 33.74150085449219 62.38877105712891 C 31.67768669128418 63.31633758544922 29.50055503845215 63.74981307983398 27.31216239929199 63.74981307983398 C 27.23228073120117 63.74981307983398 27.15225791931152 63.74923324584961 27.07235145568848 63.74808120727539 C 30.51972579956055 65.96177673339844 34.10001373291016 68.42825317382813 37.06501388549805 71.71461486816406 Z" stroke="none" fill="#467bb7"/>
            </g>
            <g id="グループ_15536" data-name="グループ 15536" transform="translate(32.875 56.456)">
              <path id="パス_89311" data-name="パス 89311" d="M197.4,361.237l-4.936,2.864,0,0,4.936-2.864Z" transform="translate(-184.226 -342.801)" fill="#1a1a1a" stroke="#4d4d4d" stroke-linecap="round" stroke-linejoin="round" stroke-width="0.75"/>
              <path id="パス_89312" data-name="パス 89312" d="M155.254,280.9l-.027-1.017s.872-.4,2.22-1.006,2.225-.993,2.225-.993l.743.694.769,1.709-4.923,2.857Z" transform="translate(-155.227 -277.889)" fill="#1a1a1a" stroke="#4d4d4d" stroke-linecap="round" stroke-linejoin="round" stroke-width="0.75"/>
              <path id="パス_89313" data-name="パス 89313" d="M161.344,294.821l-1.441-3.207,4.923-2.857,1.443,3.206Z" transform="translate(-158.869 -286.354)" fill="#1a1a1a" stroke="#4d4d4d" stroke-linecap="round" stroke-linejoin="round" stroke-width="0.75"/>
              <path id="パス_89314" data-name="パス 89314" d="M172.785,306.459l-4.928,2.859-1.44-3.207,4.925-2.857Z" transform="translate(-163.942 -297.644)" fill="#1a1a1a" stroke="#4d4d4d" stroke-linecap="round" stroke-linejoin="round" stroke-width="0.75"/>
              <path id="パス_89315" data-name="パス 89315" d="M179.3,320.952l-4.931,2.861-1.44-3.207,4.928-2.859Z" transform="translate(-169.013 -308.931)" fill="#1a1a1a" stroke="#4d4d4d" stroke-linecap="round" stroke-linejoin="round" stroke-width="0.75"/>
              <path id="パス_89316" data-name="パス 89316" d="M185.813,335.448l-4.933,2.862-1.441-3.207,4.931-2.861Z" transform="translate(-174.084 -320.221)" fill="#1a1a1a" stroke="#4d4d4d" stroke-linecap="round" stroke-linejoin="round" stroke-width="0.75"/>
              <path id="パス_89317" data-name="パス 89317" d="M190.886,346.738l1.443,3.206-4.936,2.863-1.439-3.208Z" transform="translate(-179.157 -331.511)" fill="#1a1a1a" stroke="#4d4d4d" stroke-linecap="round" stroke-linejoin="round" stroke-width="0.75"/>
              <path id="パス_89318" data-name="パス 89318" d="M198.846,364.454l-4.938,2.865-1.441-3.207,4.936-2.863Z" transform="translate(-184.231 -342.812)" fill="#1a1a1a" stroke="#4d4d4d" stroke-linecap="round" stroke-linejoin="round" stroke-width="0.75"/>
              <path id="パス_89319" data-name="パス 89319" d="M204.313,376.619c.017.007.034.019.05.027a1.312,1.312,0,0,1,.775,1.312,2.151,2.151,0,0,1-.949,1.237,8.049,8.049,0,0,1-2.411,1.223,3.237,3.237,0,0,1-1.821.219,1.332,1.332,0,0,1-.838-1.634c.006-.018.008-.038.014-.056l-.152-.337,4.938-2.864Z" transform="translate(-189.305 -354.103)" fill="#1a1a1a" stroke="#4d4d4d" stroke-linecap="round" stroke-linejoin="round" stroke-width="0.75"/>
              <path id="パス_89320" data-name="パス 89320" d="M198.982,378.607h0l4.938-2.865h0Z" transform="translate(-189.305 -354.1)" fill="#1a1a1a" stroke="#4d4d4d" stroke-linecap="round" stroke-linejoin="round" stroke-width="0.75"/>
            </g>
            <path id="パス_89321" data-name="パス 89321" d="M165.041,302.789c.006-.018.008-.038.014-.056l-.152-.337h0l-1.441-3.207,0,0-1.439-3.208-1.441-3.207-1.44-3.207-1.44-3.207-1.441-3.207-1.007-2.246-.027-1.017s.872-.4,2.22-1.006,2.225-.993,2.225-.993l.743.694.769,1.709,1.443,3.206,1.443,3.205,1.443,3.206,1.442,3.206,1.443,3.206v0l1.443,3.206h0l.393.872c.017.007.034.019.05.027a1.312,1.312,0,0,1,.775,1.312,2.151,2.151,0,0,1-.949,1.237A8.05,8.05,0,0,1,167.7,304.2a3.238,3.238,0,0,1-1.821.219A1.332,1.332,0,0,1,165.041,302.789Z" transform="translate(-122.353 -221.433)" fill="none" stroke="#1a1a1a" stroke-linecap="round" stroke-linejoin="round" stroke-width="2"/>
          </g>
          <g id="グループ_15539" data-name="グループ 15539" transform="translate(49.897)">
            <path id="パス_89322" data-name="パス 89322" d="M293.455,57.978c.238-.586.456-1.186.647-1.8s.358-1.254.494-1.881l-.467,1.507-2.32-.718L292.454,53l2.259.7c.01-.057.023-.114.034-.172l-2.241-.694.645-2.082,1.876.581c0-.059.008-.119.012-.178l-1.837-.568.645-2.082,1.229.381c0-.062-.007-.123-.012-.186l-1.166-.361.645-2.082.269.083c-.011-.064-.023-.128-.034-.193l-.184-.057.106-.343c-.024-.121-.046-.241-.071-.36l-.2.651-2.319-.718.645-2.083,1.415.438c-.021-.068-.046-.135-.069-.2l-1.294-.4.5-1.6c-.037-.076-.076-.15-.113-.225l-.55,1.775-2.319-.718.644-2.082,2.023.626c-.039-.073-.078-.146-.117-.218l-1.854-.574.476-1.54c-.044-.056-.087-.111-.131-.166L290.845,40l-2.32-.718.645-2.083,1.655.512c-.074-.083-.146-.169-.222-.251l-1.382-.428.214-.692c-.048-.041-.1-.079-.146-.12l-.235.76-2.322-.719.458-1.48c-.053-.029-.1-.059-.156-.087l-.469,1.515-2.318-.717.541-1.747c-.028-.009-.054-.02-.082-.028s-.057-.015-.085-.023l-.541,1.747-2.321-.718.469-1.515-.178-.016-.458,1.479-2.32-.718.235-.759c-.063.006-.125.009-.188.016l-.214.692-1.38-.427c-.109.024-.218.054-.325.081l1.654.512-.644,2.083-2.319-.718.512-1.654-.2.063-.476,1.539-1.854-.574-.22.114,2.022.626-.645,2.082-2.319-.718.549-1.774c-.073.041-.148.08-.221.122l-.5,1.6-1.294-.4c-.057.043-.116.085-.173.128l1.415.438-.644,2.082-2.32-.718.2-.65c-.089.083-.174.171-.262.257l-.106.342-.184-.057-.137.14.269.083-.645,2.082-1.166-.361c-.037.05-.076.1-.113.147l1.229.38-.644,2.082-1.836-.568c-.03.051-.062.1-.092.154l1.876.581-.645,2.082-2.24-.693c-.023.053-.045.108-.069.161l2.258.7-.645,2.083-2.323-.719.457-1.477q-.356.877-.642,1.8c-.188.608-.347,1.218-.481,1.827l.615-1.986,2.323.719-.644,2.082-2.311-.716c-.011.058-.018.115-.03.173l2.29.709-.645,2.082-1.975-.611c-.006.059-.011.118-.017.177l1.94.6-.644,2.082-1.4-.432c0,.06,0,.121,0,.181l1.346.417-.645,2.082-.509-.158c.009.065.02.127.029.191l.428.133-.27.871c.022.113.056.22.081.331l.356-1.151,2.32.718-.644,2.082-1.763-.546c.018.066.035.133.054.2l1.657.513-.645,2.082-.033-.01c.044.093.087.187.132.279l.016-.051,2.319.718-.639,2.066c.067.088.133.177.2.263l2.228.69-.378,1.219.145.122.4-1.289,2.319.718-.622,2.011c.053.029.1.06.156.089l.634-2.048,2.321.718-.645,2.083-2.123-.657a13.228,13.228,0,0,0,1.283.579l.789.244-.009.03c.028.009.055.02.083.029s.056.015.084.023l.009-.03.79.244a13.1,13.1,0,0,0,1.386.247l-2.124-.657.645-2.083,2.318.718-.634,2.048c.059.007.119.009.178.015l.623-2.012,2.322.719-.4,1.289.189-.018.377-1.219,2.229.69c.1-.031.209-.068.314-.1l.639-2.066,2.319.718-.016.052c.09-.05.178-.1.268-.156l-.033-.01.645-2.082,1.657.513c.053-.044.105-.089.158-.133l-1.763-.546.644-2.082,2.319.718-.357,1.153c.083-.079.172-.148.253-.228l.27-.873.428.133.134-.141-.511-.158.645-2.082,1.347.417c.035-.049.066-.1.1-.15l-1.4-.432.645-2.083,1.94.6c.029-.052.058-.1.086-.156l-1.975-.611.645-2.083,2.29.709c.023-.054.05-.105.072-.159l-2.311-.716.644-2.082,2.32.718ZM271.349,41.357l-2.32-.718.644-2.082,2.319.718Zm-.7,2.248-2.32-.718.645-2.082,2.319.718Zm-.7,2.248-2.32-.718.645-2.082,2.32.718Zm-.7,2.249-2.32-.718.645-2.083,2.32.718Zm-.7,2.248-2.32-.718.645-2.082,2.32.718Zm-.7,2.249-2.32-.718.645-2.083,2.32.718Zm-.7,2.248-2.319-.718.644-2.082,2.32.718Zm-.7,2.248-2.32-.718L264.8,54.3l2.319.718Zm8.054-17.218-2.319-.718.644-2.083,2.319.718Zm-.7,2.248-2.32-.718.645-2.082,2.319.718Zm-.7,2.248-2.319-.718.644-2.082,2.32.718Zm-.7,2.248-2.32-.718.644-2.083,2.32.718Zm-.7,2.249-2.32-.718.644-2.083,2.32.718Zm-.7,2.248-2.32-.718.645-2.082,2.319.718Zm-.7,2.249-2.319-.718.644-2.083,2.32.718Zm-.7,2.249-2.32-.718.645-2.083,2.319.718Zm-.7,2.248-2.319-.718.644-2.082,2.32.718Zm-.7,2.249-2.32-.718.645-2.082,2.319.718Zm-.7,2.248-2.32-.718.645-2.082,2.32.718ZM277.714,38.4l-2.319-.718.644-2.083,2.319.718Zm-.7,2.248L274.7,39.93l.645-2.083,2.319.718Zm-.7,2.248L274,42.178l.645-2.082,2.319.718Zm-.7,2.248-2.319-.718.645-2.082,2.319.718Zm-.7,2.248-2.32-.718.645-2.082,2.319.718Zm-.7,2.249-2.319-.718.645-2.083,2.319.718Zm-.7,2.248-2.319-.718.645-2.082,2.319.718Zm-.7,2.249-2.319-.718.645-2.083,2.319.718Zm-.7,2.249-2.319-.718.644-2.082,2.319.718Zm-.7,2.248-2.32-.718.645-2.082,2.319.718Zm-.7,2.249-2.319-.718.645-2.083,2.319.718Zm-.7,2.248-2.319-.718.644-2.082,2.319.718Zm-.7,2.248-2.319-.718.645-2.082,2.319.718ZM280.9,36.921l-2.32-.718.645-2.083,2.32.718Zm-.7,2.248-2.32-.718.645-2.082,2.319.718Zm-.7,2.248-2.32-.718.645-2.083,2.319.718Zm-.7,2.248-2.319-.718.644-2.082,2.32.718Zm-.7,2.248-2.319-.718.644-2.082,2.32.718Zm-.7,2.248-2.319-.718.644-2.083,2.32.718Zm-.7,2.249-2.32-.718.645-2.083,2.32.718Zm-.7,2.248-2.319-.718.645-2.082,2.319.718Zm-.7,2.249-2.32-.718.645-2.083,2.32.718Zm-.7,2.249-2.319-.718.645-2.082,2.319.718Zm-.7,2.248-2.32-.718.644-2.082,2.32.718Zm-.7,2.249-2.32-.718.645-2.083,2.319.718Zm-.7,2.248-2.32-.718.644-2.082,2.32.718Zm-.7,2.248-2.319-.718.645-2.082,2.319.718Zm11.536-28.46-2.321-.718.645-2.083,2.321.718Zm-.7,2.249-2.32-.719.644-2.082,2.321.719Zm-.7,2.248-2.32-.718.644-2.083,2.321.718Zm-.7,2.248-2.321-.718.645-2.082,2.32.718Zm-.7,2.248-2.321-.718.645-2.082,2.321.718Zm-.7,2.248-2.321-.718.644-2.082,2.321.718Zm-.7,2.249-2.321-.718.645-2.083,2.321.718Zm-.7,2.248-2.321-.718.644-2.082,2.321.719Zm-.7,2.249L275.5,54.96l.645-2.083,2.321.719Zm-.7,2.249-2.321-.719.645-2.082,2.321.718Zm-.7,2.248-2.321-.718.644-2.082,2.321.718Zm-.7,2.249-2.32-.718.644-2.082,2.321.718Zm-.7,2.248-2.321-.718.644-2.082,2.321.718Zm-.7,2.249-2.321-.719.645-2.082,2.321.718ZM285.869,38.46l-2.318-.718.645-2.083,2.318.717Zm-.7,2.248-2.318-.717.644-2.082,2.318.717Zm-.7,2.249-2.319-.717.645-2.083,2.319.717Zm-.7,2.248-2.318-.717.644-2.082,2.318.717Zm-.7,2.249-2.318-.718.645-2.082,2.318.718Zm-.7,2.248-2.318-.717.644-2.082,2.318.717Zm-.7,2.249-2.318-.717.645-2.083,2.318.717ZM281,54.2l-2.318-.717.644-2.082,2.318.718Zm-.7,2.249-2.319-.717.645-2.083,2.318.717Zm-.7,2.249-2.318-.717.644-2.082,2.318.717Zm-.7,2.248-2.318-.718.645-2.082,2.318.718Zm-.7,2.249-2.318-.718.645-2.082,2.318.717Zm-.7,2.248-2.318-.718.645-2.082,2.318.717Zm-.7,2.248-2.318-.718.644-2.082,2.318.717Zm11.537-28.46-2.322-.719.645-2.083,2.322.719Zm-.7,2.249-2.322-.719.644-2.083,2.322.719Zm-.7,2.248-2.322-.719.644-2.083,2.322.719Zm-.7,2.248-2.322-.719.644-2.082,2.322.719Zm-.7,2.249-2.322-.719.644-2.082,2.322.719Zm-.7,2.248-2.322-.719.645-2.082,2.322.719Zm-.7,2.249L281.861,52l.645-2.083,2.322.719Zm-.7,2.248-2.322-.719.645-2.082,2.322.719Zm-.7,2.249-2.322-.719.645-2.083,2.322.719Zm-.7,2.249-2.321-.719.645-2.082,2.322.719Zm-.7,2.248L279.077,61l.645-2.082,2.322.719Zm-.7,2.249-2.322-.719.645-2.083,2.322.719Zm-.7,2.248-2.322-.719.645-2.082,2.322.719Zm-.7,2.248-2.322-.719.645-2.082,2.322.719Zm10.838-26.212-2.319-.718.645-2.082,2.32.718Zm-.7,2.248-2.32-.718.644-2.082,2.32.718Zm-.7,2.248-2.32-.718.645-2.082,2.32.718Zm-.7,2.249-2.319-.718.645-2.082,2.32.718Zm-.7,2.248-2.319-.718.645-2.082,2.319.718Zm-.7,2.249-2.32-.718.645-2.083,2.319.718Zm-.7,2.248-2.319-.718.644-2.082,2.32.718Zm-.7,2.249-2.32-.718.645-2.083,2.319.718Zm-.7,2.249-2.32-.718.645-2.082,2.32.718Zm-.7,2.248-2.32-.718.645-2.082,2.319.718Zm-.7,2.249-2.32-.718.645-2.083,2.319.718Zm-.7,2.248-2.32-.718.645-2.082,2.32.718Zm-.7,2.248-2.319-.718.644-2.082,2.32.718ZM291.94,45.267l-2.319-.718.644-2.083,2.32.718Zm-.7,2.248-2.32-.718.644-2.082,2.32.718Zm-.7,2.249-2.32-.718.645-2.082,2.32.718Zm-.7,2.248-2.32-.718.644-2.082,2.32.718Zm-.7,2.249-2.32-.718.645-2.083,2.319.718Zm-.7,2.248-2.32-.718.644-2.082,2.32.718Zm-.7,2.249-2.319-.718.644-2.083,2.32.718Zm-.7,2.249-2.32-.718.645-2.082,2.319.718Zm-.7,2.248-2.32-.718.645-2.082,2.32.718Zm-.7,2.249-2.319-.718L284,62.7l2.32.718Zm-.7,2.248-2.319-.718.644-2.082,2.319.718Zm8.75-19.466-2.319-.718.644-2.082,2.319.718Zm-.7,2.248-2.319-.718.644-2.082,2.319.718Zm-.7,2.248-2.319-.718.644-2.082,2.319.718Zm-.7,2.249-2.319-.718.644-2.083,2.32.718Zm-.7,2.248-2.32-.718.645-2.082,2.319.718Zm-.7,2.249-2.319-.718.644-2.083,2.319.718Zm-.7,2.248-2.319-.718.645-2.082,2.319.718Zm-.7,2.248-2.319-.718.644-2.082,2.32.718Z" transform="translate(-256.412 -30.772)" fill="gray"/>
            <g id="パス_89323" data-name="パス 89323" transform="translate(-236.432 -22.244)" fill="none" stroke-linecap="round" stroke-linejoin="round">
              <path d="M241.972,37.728c-3.036,9.808,1.288,18.858,1.9,20.987,1.849,6.371,3.755,12.944,1.88,19.913l-.5,1.63-.359,1.158-7.173,23.174a1.94,1.94,0,0,0,1.276,2.42l.759.234a1.94,1.94,0,0,0,2.42-1.276l8.531-27.562c2.6-5.928,7.458-9.927,12.179-13.808,1.712-1.408,10.391-6.433,13.427-16.241,3.431-11.085-1.479-22.489-10.947-25.42S245.4,26.642,241.972,37.728Zm5.046,22.029A15.5,15.5,0,0,0,259.7,63.683a48.061,48.061,0,0,0-8.929,9.1,14.982,14.982,0,0,0-1.531-.444A47.964,47.964,0,0,0,247.019,59.756ZM244.58,38.535c2.986-9.648,11.949-15.475,19.979-12.989s12.133,12.357,9.147,22a20.345,20.345,0,0,1-7.716,10.783h0l-.008.007A13.536,13.536,0,0,1,244.86,51.8a.072.072,0,0,0,0-.013h0A20.345,20.345,0,0,1,244.58,38.535Z" stroke="none"/>
              <path d="M 245.3284912109375 56.79740142822266 C 245.3302001953125 56.80208587646484 245.3318176269531 56.80657196044922 245.3335266113281 56.81124114990234 C 245.5362548828125 57.36753082275391 245.6963500976563 57.80691528320313 245.7975769042969 58.15656280517578 C 245.7988586425781 58.1610107421875 245.8000793457031 58.16516876220703 245.8013610839844 58.16961669921875 C 245.8533020019531 58.12980651855469 245.9076232910156 58.09223175048828 245.964111328125 58.05716705322266 C 246.0510559082031 58.00321197509766 246.140869140625 57.95660400390625 246.2327880859375 57.91727447509766 C 245.9175415039063 57.55944061279297 245.6159973144531 57.18609619140625 245.3284912109375 56.79740142822266 M 262.7485656738281 62.21308898925781 C 262.3013916015625 62.36826324462891 261.8512573242188 62.50360870361328 261.3982543945313 62.61909484863281 C 261.4494018554688 62.70061492919922 261.4951171875 62.78652954101563 261.5348205566406 62.87661743164063 C 261.5617370605469 62.93766784667969 261.5853271484375 62.99943542480469 261.6057739257813 63.06182861328125 C 261.6090698242188 63.05913543701172 261.6126708984375 63.05614471435547 261.615966796875 63.05345153808594 C 261.8958740234375 62.82321929931641 262.2723999023438 62.55368041992188 262.7485656738281 62.21308898925781 M 248.489013671875 74.19261169433594 C 248.3928833007813 75.81396484375 248.1413269042969 77.46371459960938 247.6885986328125 79.14649963378906 C 247.68212890625 79.1705322265625 247.6752014160156 79.19444274902344 247.6678466796875 79.21821594238281 L 247.1632995605469 80.84841918945313 L 246.8048400878906 82.00630187988281 L 239.6511840820313 105.1180877685547 L 240.28515625 105.3140029907227 L 248.7971496582031 77.81435394287109 C 248.8195495605469 77.74191284179688 248.8460693359375 77.67082977294922 248.8765563964844 77.60140991210938 C 249.3184509277344 76.59536743164063 249.8161010742188 75.64496612548828 250.3603210449219 74.74154663085938 C 250.2447814941406 74.71696472167969 250.1302185058594 74.68183135986328 250.0181884765625 74.6358642578125 C 249.8107299804688 74.56472778320313 249.1554870605469 74.37014770507813 248.9337768554688 74.31632995605469 C 248.77880859375 74.29206848144531 248.6297912597656 74.25008392333984 248.489013671875 74.19261169433594 M 260.7750549316406 22.24440002441406 C 262.3097229003906 22.24440765380859 263.8513793945313 22.46843719482422 265.3666076660156 22.93745422363281 C 274.8346557617188 25.86795043945313 279.7453002929688 37.27169036865234 276.3138732910156 48.35716247558594 C 273.2778625488281 58.16516876220703 264.5982666015625 63.19012451171875 262.8864135742188 64.59809875488281 C 258.1653137207031 68.47830200195313 253.3117370605469 72.47726440429688 250.7077026367188 78.40573120117188 L 242.1763000488281 105.9681015014648 C 241.9201965332031 106.7956390380859 241.1505126953125 107.3301391601563 240.3245849609375 107.3301391601563 C 240.1361999511719 107.3301391601563 239.94482421875 107.3023071289063 239.7560424804688 107.2438201904297 L 238.9974365234375 107.009391784668 C 237.9804992675781 106.6946640014648 237.4065551757813 105.6051635742188 237.7212829589844 104.5891265869141 L 244.8942565917969 81.41493988037109 L 245.2527770996094 80.25691223144531 L 245.7572631835938 78.62689208984375 C 247.6321411132813 71.65826416015625 245.7262878417969 65.08534240722656 243.8768615722656 58.71410369873047 C 243.2607116699219 56.58600616455078 238.9363708496094 47.53506469726563 241.9723815917969 37.72753143310547 C 244.8545227050781 28.41573333740234 252.7201232910156 22.24434661865234 260.7750549316406 22.24440002441406 Z M 265.9901123046875 58.333251953125 C 269.4341430664063 55.96163940429688 272.2658081054688 52.20220184326172 273.7058410644531 47.54988861083984 C 276.6918334960938 37.9024658203125 272.5888977050781 28.03099060058594 264.559326171875 25.54549407958984 C 263.3055419921875 25.15743255615234 262.0301513671875 24.97210693359375 260.7572021484375 24.97210693359375 C 253.8770751953125 24.97210693359375 247.1001586914063 30.39340972900391 244.5802001953125 38.5347900390625 C 243.140380859375 43.18710327148438 243.3529357910156 47.88893890380859 244.8553161621094 51.79170227050781 L 244.8568725585938 51.79126739501953 C 244.8582153320313 51.79546356201172 244.8595275878906 51.80011749267578 244.8599548339844 51.80386352539063 C 246.4745178222656 55.98905181884766 249.5737609863281 59.25375366210938 253.7275695800781 60.53941345214844 C 254.9790649414063 60.92679595947266 256.2528686523438 61.11184692382813 257.523193359375 61.11184692382813 C 260.4702758789063 61.11184692382813 263.3980102539063 60.11572265625 265.9810485839844 58.3389892578125 C 265.9839172363281 58.33677673339844 265.9865417480469 58.33501434326172 265.98876953125 58.33235168457031 L 265.9901123046875 58.333251953125 Z M 247.018798828125 59.75646209716797 C 248.1405944824219 63.69684219360352 249.1948852539063 67.91474914550781 249.2451171875 72.340576171875 C 249.3979187011719 72.34877014160156 250.6767578125 72.73338317871094 250.7760314941406 72.784912109375 C 253.3150939941406 69.17298889160156 256.5600891113281 66.29557800292969 259.7046508789063 63.68312835693359 C 258.9714965820313 63.78413772583008 258.2330932617188 63.83602142333984 257.4930725097656 63.83602142333984 C 255.9646911621094 63.83602142333984 254.4295349121094 63.61469268798828 252.9202880859375 63.14767456054688 C 250.6800537109375 62.45409393310547 248.6990661621094 61.2821044921875 247.018798828125 59.75646209716797 Z" stroke="none" fill="#15a58e"/>
            </g>
            <g id="グループ_15538" data-name="グループ 15538" transform="translate(0 58.709)">
              <path id="パス_89324" data-name="パス 89324" d="M246.053,378.887l-5.6-1.117v0l5.6,1.117Z" transform="translate(-238.63 -357.845)" fill="#1a1a1a" stroke="#4d4d4d" stroke-linecap="round" stroke-linejoin="round" stroke-width="0.75"/>
              <path id="パス_89325" data-name="パス 89325" d="M264.726,288.473l.652-.781s.919.277,2.33.714,2.326.727,2.326.727l.1,1.012-.553,1.791L264,290.823Z" transform="translate(-256.962 -287.692)" fill="#1a1a1a" stroke="#4d4d4d" stroke-linecap="round" stroke-linejoin="round" stroke-width="0.75"/>
              <path id="パス_89326" data-name="パス 89326" d="M259.293,305.207l1.04-3.358,5.582,1.114-1.039,3.359Z" transform="translate(-253.3 -298.718)" fill="#1a1a1a" stroke="#4d4d4d" stroke-linecap="round" stroke-linejoin="round" stroke-width="0.75"/>
              <path id="パス_89327" data-name="パス 89327" d="M260.172,321.505l-5.588-1.115,1.042-3.358,5.583,1.114Z" transform="translate(-249.632 -310.544)" fill="#1a1a1a" stroke="#4d4d4d" stroke-linecap="round" stroke-linejoin="round" stroke-width="0.75"/>
              <path id="パス_89328" data-name="パス 89328" d="M255.469,336.689l-5.59-1.116,1.041-3.358,5.588,1.115Z" transform="translate(-245.968 -322.368)" fill="#1a1a1a" stroke="#4d4d4d" stroke-linecap="round" stroke-linejoin="round" stroke-width="0.75"/>
              <path id="パス_89329" data-name="パス 89329" d="M250.765,351.873l-5.593-1.116,1.041-3.359,5.59,1.116Z" transform="translate(-242.302 -334.193)" fill="#1a1a1a" stroke="#4d4d4d" stroke-linecap="round" stroke-linejoin="round" stroke-width="0.75"/>
              <path id="パス_89330" data-name="パス 89330" d="M247.1,363.7l-1.038,3.359-5.6-1.117,1.042-3.358Z" transform="translate(-238.633 -346.02)" fill="#1a1a1a" stroke="#4d4d4d" stroke-linecap="round" stroke-linejoin="round" stroke-width="0.75"/>
              <path id="パス_89331" data-name="パス 89331" d="M241.351,382.257l-5.6-1.117,1.041-3.358,5.6,1.117Z" transform="translate(-234.965 -357.856)" fill="#1a1a1a" stroke="#4d4d4d" stroke-linecap="round" stroke-linejoin="round" stroke-width="0.75"/>
              <path id="パス_89332" data-name="パス 89332" d="M238.3,395c.009.016.013.037.02.053a1.313,1.313,0,0,1-.287,1.5,2.152,2.152,0,0,1-1.53.3,8.057,8.057,0,0,1-2.617-.677,3.243,3.243,0,0,1-1.511-1.04,1.332,1.332,0,0,1,.453-1.78c.015-.01.031-.024.048-.033l.109-.353,5.6,1.118Z" transform="translate(-232.194 -369.682)" fill="#1a1a1a" stroke="#4d4d4d" stroke-linecap="round" stroke-linejoin="round" stroke-width="0.75"/>
              <path id="パス_89333" data-name="パス 89333" d="M235.752,392.965h0l5.6,1.117h0Z" transform="translate(-234.965 -369.682)" fill="#1a1a1a" stroke="#4d4d4d" stroke-linecap="round" stroke-linejoin="round" stroke-width="0.75"/>
            </g>
            <path id="パス_89334" data-name="パス 89334" d="M232.825,311.361c.015-.01.031-.024.048-.033l.109-.353h0l1.041-3.358v0l1.042-3.358,1.041-3.359,1.041-3.358,1.041-3.358,1.04-3.358.73-2.351.652-.781s.919.277,2.33.714,2.326.727,2.326.727l.1,1.012-.553,1.791-1.039,3.359-1.037,3.358-1.038,3.359-1.038,3.359-1.038,3.359v0l-1.038,3.358h0l-.282.915c.009.016.013.037.02.054a1.313,1.313,0,0,1-.287,1.5,2.152,2.152,0,0,1-1.53.3,8.056,8.056,0,0,1-2.617-.677,3.243,3.243,0,0,1-1.511-1.04A1.332,1.332,0,0,1,232.825,311.361Z" transform="translate(-232.194 -228.983)" fill="none" stroke="#1a1a1a" stroke-linecap="round" stroke-linejoin="round" stroke-width="2"/>
          </g>
          <g id="グループ_15542" data-name="グループ 15542" transform="translate(71.216 23.309)">
            <g id="グループ_15540" data-name="グループ 15540" transform="translate(0 0)">
              <g id="パス_89335" data-name="パス 89335" transform="translate(-328.788 -127.845)" fill="#ffe200" stroke-miterlimit="10">
                <path d="M 334.2069702148438 139.0112152099609 C 334.2068481445313 139.0112152099609 334.206787109375 139.0112152099609 334.2066650390625 139.0112152099609 C 333.0398864746094 139.0111694335938 331.9138793945313 138.6595153808594 330.9504089355469 137.9942932128906 C 329.6884765625 137.1233062744141 328.8412780761719 135.8131103515625 328.5649719238281 134.3050994873047 C 328.2886352539063 132.7971038818359 328.6162109375 131.271728515625 329.4873657226563 130.0099487304688 C 330.5591735839844 128.4572143554688 332.3268737792969 127.5301895141602 334.2159423828125 127.5301895141602 C 335.3825378417969 127.5301895141602 336.5084533691406 127.8817596435547 337.4719543457031 128.5468902587891 C 338.7339477539063 129.4181671142578 339.5810852050781 130.728515625 339.8573913574219 132.2365570068359 C 340.1336669921875 133.7446441650391 339.8059997558594 135.2701263427734 338.9347534179688 136.5319671630859 C 337.8629760742188 138.0843963623047 336.0955505371094 139.0112152099609 334.2069702148438 139.0112152099609 Z" stroke="none"/>
                <path d="M 334.2159423828125 127.9051818847656 C 332.5121459960938 127.9050445556641 330.837158203125 128.7146453857422 329.7959594726563 130.2230072021484 C 328.1124267578125 132.6614074707031 328.724609375 136.0023956298828 331.1634826660156 137.6856994628906 C 332.0937805175781 138.3280334472656 333.15576171875 138.63623046875 334.2066650390625 138.63623046875 C 335.9102172851563 138.63623046875 337.5851135253906 137.8268280029297 338.6261596679688 136.3188934326172 C 340.3099365234375 133.8802795410156 339.69775390625 130.5392761230469 337.2589111328125 128.8554992675781 C 336.3287353515625 128.2133636474609 335.2667236328125 127.9052734375 334.2159423828125 127.9051818847656 M 334.2154846191406 127.1551971435547 L 334.2154846191406 127.9051971435547 L 334.2156066894531 127.1551971435547 C 335.4591674804688 127.1553039550781 336.6587524414063 127.5298309326172 337.6849975585938 128.2382965087891 C 339.0294189453125 129.1664733886719 339.9319152832031 130.5624084472656 340.2262268066406 132.1689758300781 C 340.5205688476563 133.7756042480469 340.1715087890625 135.4007568359375 339.2433471679688 136.7450256347656 C 338.1015625 138.3988494873047 336.2186889648438 139.38623046875 334.2066955566406 139.38623046875 C 332.9635009765625 139.38623046875 331.7638244628906 139.0116119384766 330.7373657226563 138.3028869628906 C 329.3930358886719 137.3750305175781 328.490478515625 135.979248046875 328.1961059570313 134.3726959228516 C 327.9017028808594 132.7661590576172 328.2507019042969 131.1410980224609 329.1787719726563 129.7968902587891 C 330.320556640625 128.1427612304688 332.2034606933594 127.1551971435547 334.2154846191406 127.1551971435547 Z" stroke="none" fill="#ffe200"/>
              </g>
              <g id="パス_89336" data-name="パス 89336" transform="translate(-328.583 -127.633)" fill="#ffe200" stroke-miterlimit="10">
                <path d="M 334.0031127929688 138.8594207763672 C 332.8234252929688 138.8594207763672 331.6852722167969 138.5042266845703 330.7117614746094 137.8322296142578 C 328.07958984375 136.01513671875 327.4164123535156 132.3954772949219 329.2334289550781 129.7633666992188 C 330.15771484375 128.4247589111328 331.6128845214844 127.5309524536133 333.225830078125 127.3111038208008 C 333.4854431152344 127.2757720947266 333.7494812011719 127.2578659057617 334.0106811523438 127.2578659057617 C 335.1898498535156 127.2578659057617 336.328125 127.6131134033203 337.3023986816406 128.2851867675781 C 339.9343566894531 130.1023406982422 340.5973205566406 133.7218933105469 338.7803344726563 136.3538818359375 C 337.8564147949219 137.6925964355469 336.4013671875 138.5864410400391 334.7883605957031 138.8061676025391 C 334.5285949707031 138.8415069580078 334.2644348144531 138.8594207763672 334.0031127929688 138.8594207763672 Z M 334.0105285644531 128.1283721923828 C 333.7883605957031 128.1283721923828 333.5637817382813 128.1436157226563 333.3429565429688 128.1736602783203 C 331.9724731445313 128.3602294921875 330.735595703125 129.1200408935547 329.949462890625 130.25830078125 C 328.4056091308594 132.4949493408203 328.9694213867188 135.5711212158203 331.2063903808594 137.115478515625 C 332.0340881347656 137.6869812011719 333.0012817382813 137.9890594482422 334.0034790039063 137.9891052246094 C 334.0035400390625 137.9891052246094 334.0036315917969 137.9891052246094 334.0036926269531 137.9891052246094 C 334.2256164550781 137.9891052246094 334.4500427246094 137.973876953125 334.6708068847656 137.9438323974609 C 336.0411071777344 137.7572784423828 337.27783203125 136.9974517822266 338.0638732910156 135.8592071533203 C 339.608154296875 133.6224060058594 339.0446166992188 130.5460510253906 336.8075866699219 129.0015411376953 C 335.9800415039063 128.4303131103516 335.0128173828125 128.1283721923828 334.0105285644531 128.1283721923828 Z" stroke="none"/>
                <path d="M 334.0031127929688 138.4844207763672 C 334.2473449707031 138.4844207763672 334.4927368164063 138.4679260253906 334.7377319335938 138.4346008300781 C 336.2461242675781 138.2291259765625 337.6074523925781 137.3931121826172 338.4717407226563 136.1408386230469 C 340.1712341308594 133.6790161132813 339.55126953125 130.2935485839844 337.0894470214844 128.5938720703125 C 336.1763916015625 127.9640197753906 335.1049194335938 127.6328659057617 334.0106506347656 127.6328659057617 C 333.7665710449219 127.6328659057617 333.5213317871094 127.6493453979492 333.2764892578125 127.6826629638672 C 331.7674255371094 127.8883514404297 330.4065551757813 128.724365234375 329.5420227050781 129.9764099121094 C 327.8425598144531 132.4382476806641 328.4629516601563 135.8241271972656 330.9247741699219 137.5236053466797 C 331.837158203125 138.1533966064453 332.9086303710938 138.4844207763672 334.0031127929688 138.4844207763672 M 334.0105285644531 127.7533721923828 C 335.0806579589844 127.7533721923828 336.128662109375 128.0772552490234 337.0206604003906 128.6929473876953 C 339.4276428222656 130.3548278808594 340.0340881347656 133.6655120849609 338.3724365234375 136.0722961425781 C 337.5269165039063 137.2966918945313 336.1965942382813 138.1145629882813 334.7213745117188 138.3153991699219 C 334.4818725585938 138.3480072021484 334.2422180175781 138.3641204833984 334.0034484863281 138.3641052246094 C 332.9334411621094 138.3640594482422 331.8855285644531 138.0401153564453 330.9933471679688 137.4240875244141 C 328.5861511230469 135.7621917724609 327.9794616699219 132.4521789550781 329.6408996582031 130.0451812744141 C 330.4866638183594 128.8205718994141 331.8171997070313 128.0028991699219 333.2923889160156 127.8020935058594 C 333.5318908691406 127.7694931030273 333.771728515625 127.7533721923828 334.0105285644531 127.7533721923828 M 334.0031127929688 139.2344207763672 C 332.7469787597656 139.2344207763672 331.53515625 138.8562622070313 330.4987182617188 138.1408386230469 C 327.6963806152344 136.2062683105469 326.9903259277344 132.3526000976563 328.9248046875 129.5503387451172 C 329.9088745117188 128.1251678466797 331.4580688476563 127.173583984375 333.1752014160156 126.9395370483398 C 333.4515686035156 126.9019241333008 333.7326049804688 126.8828659057617 334.0106811523438 126.8828659057617 C 335.2662658691406 126.8828659057617 336.4781494140625 127.2610473632813 337.5153198242188 127.9765167236328 C 340.3175659179688 129.9112243652344 341.0233764648438 133.7647857666016 339.0889587402344 136.5669250488281 C 338.1052856445313 137.9921722412109 336.5562133789063 138.9438171386719 334.8389587402344 139.1777496337891 C 334.5625 139.2153472900391 334.2813110351563 139.2344207763672 334.0031127929688 139.2344207763672 Z M 334.0105285644531 128.5033721923828 C 333.8052368164063 128.5033721923828 333.59765625 128.5174713134766 333.3935241699219 128.5452423095703 C 332.1272583007813 128.7176208496094 330.984375 129.419677734375 330.2580261230469 130.4713897705078 C 328.8316650390625 132.5378265380859 329.3526306152344 135.3799896240234 331.41943359375 136.806884765625 C 332.1842041015625 137.3349304199219 333.0777587890625 137.6140594482422 334.0035095214844 137.6141052246094 C 334.2087707519531 137.6141052246094 334.4162292480469 137.6000213623047 334.6202392578125 137.5722503662109 C 335.8863220214844 137.3998870849609 337.0290222167969 136.6978302001953 337.7552795410156 135.6461181640625 C 339.1820678710938 133.5794982910156 338.661376953125 130.7371673583984 336.5945129394531 129.3101196289063 C 335.8299255371094 128.7823638916016 334.9363708496094 128.5033721923828 334.0105285644531 128.5033721923828 Z" stroke="none" fill="#ffe200"/>
              </g>
            </g>
            <g id="グループ_15541" data-name="グループ 15541" transform="translate(1.035 1.034)">
              <g id="パス_89337" data-name="パス 89337" transform="translate(-333.265 -135.792)" fill="#fff" stroke-miterlimit="10">
                <path d="M 334.5943603515625 145.0812683105469 L 334.2956848144531 144.8550109863281 L 334.0075378417969 144.6367340087891 L 333.7083740234375 144.4100952148438 L 333.9352416992188 144.1111297607422 C 334.5741882324219 143.2691497802734 334.8435974121094 141.9448699951172 334.6559753417969 140.5686645507813 C 334.4705200195313 139.2062683105469 333.8645324707031 138.0081634521484 333.0349731445313 137.3636627197266 L 332.7388916015625 137.1336212158203 L 332.9689025878906 136.8375091552734 L 333.1906433105469 136.5519866943359 L 333.4207153320313 136.2558135986328 L 333.7168579101563 136.4858703613281 C 334.7707824707031 137.3045501708984 335.5336608886719 138.7747802734375 335.7576293945313 140.4187316894531 C 335.9837036132813 142.0805511474609 335.6335144042969 143.7119598388672 334.8208618164063 144.7828063964844 L 334.5943603515625 145.0812683105469 Z" stroke="none"/>
                <path d="M 334.5221252441406 144.5561065673828 C 335.2759094238281 143.5628509521484 335.5990295410156 142.0347900390625 335.3860473632813 140.4693603515625 C 335.1750183105469 138.9202728271484 334.465087890625 137.5419464111328 333.48681640625 136.7820129394531 L 333.2650451660156 137.0675354003906 C 334.1700134277344 137.7706298828125 334.8291320800781 139.0605010986328 335.0275268554688 140.5180053710938 C 335.2283325195313 141.9907684326172 334.9313354492188 143.4188537597656 334.2339782714844 144.3378143310547 L 334.5221252441406 144.5561065673828 M 334.6665649414063 145.6064300537109 L 334.0692443847656 145.1539306640625 L 333.7810974121094 144.9356384277344 L 333.1827697753906 144.4823760986328 L 333.6365356445313 143.8844299316406 C 334.2080688476563 143.1312713623047 334.4563293457031 141.8801727294922 334.2843933105469 140.6193237304688 C 334.1144409179688 139.3707275390625 333.5475463867188 138.2367706298828 332.8049011230469 137.6597900390625 L 332.2127075195313 137.1997222900391 L 332.6727294921875 136.6074676513672 L 332.8945007324219 136.3219451904297 L 333.3545837402344 135.7295989990234 L 333.9469299316406 136.1897277832031 C 335.0764770507813 137.0671844482422 335.8923034667969 138.6292114257813 336.1291809082031 140.3681182861328 C 336.3683776855469 142.1262359619141 335.9909362792969 143.8612823486328 335.1195678710938 145.0094909667969 L 334.6665649414063 145.6064300537109 Z" stroke="none" fill="#fff"/>
              </g>
              <g id="パス_89338" data-name="パス 89338" transform="translate(-356.453 -132.306)" fill="#fff" stroke-miterlimit="10">
                <path d="M 365.098388671875 140.5993041992188 L 364.800048828125 140.3719787597656 C 363.7304077148438 139.5569915771484 362.9567260742188 138.0785980224609 362.7304382324219 136.4172821044922 C 362.5067443847656 134.773193359375 362.8486938476563 133.1526031494141 363.6451721191406 132.0821533203125 L 363.8689880371094 131.7813568115234 L 364.1698303222656 132.0050964355469 L 364.4597778320313 132.2207336425781 L 364.7606506347656 132.4444885253906 L 364.5369262695313 132.7453765869141 C 363.9102172851563 133.5883636474609 363.6469116210938 134.9049072265625 363.8325805664063 136.2671356201172 C 364.0198059082031 137.6433563232422 364.6332702636719 138.8473358154297 365.4736328125 139.4879302978516 L 365.7717590332031 139.7151641845703 L 365.5446472167969 140.0133666992188 L 365.3256530761719 140.3009033203125 L 365.098388671875 140.5993041992188 Z" stroke="none"/>
                <path d="M 365.0273132324219 140.0736999511719 L 365.2463073730469 139.7861633300781 C 364.3288879394531 139.0868377685547 363.661376953125 137.7905731201172 363.4610290527344 136.3177947998047 C 363.2623901367188 134.8605041503906 363.5521240234375 133.4414825439453 364.2359924316406 132.5216369628906 L 363.946044921875 132.3059997558594 C 363.2066650390625 133.2997131347656 362.8912658691406 134.8178100585938 363.1020202636719 136.3666687011719 C 363.3152160644531 137.931884765625 364.03515625 139.3177337646484 365.0273132324219 140.0736999511719 M 365.1694641113281 141.1249084472656 L 364.57275390625 140.6702575683594 C 363.4259033203125 139.7964172363281 362.5982666015625 138.2254333496094 362.35888671875 136.4678955078125 C 362.1222534179688 134.7288055419922 362.4906616210938 133.0056304931641 363.3443298339844 131.8582916259766 L 363.7919616699219 131.2567138671875 L 364.3936157226563 131.7041931152344 L 364.6835632324219 131.9198303222656 L 365.2852783203125 132.3673248291016 L 364.837890625 132.9691162109375 C 364.2768249511719 133.7237854003906 364.0339965820313 134.9680938720703 364.2041625976563 136.2165069580078 C 364.3757019042969 137.4774627685547 364.94921875 138.6166534423828 365.7009887695313 139.189697265625 L 366.2972106933594 139.6441650390625 L 365.8429565429688 140.2405853271484 L 365.6239624023438 140.5281219482422 L 365.1694641113281 141.1249084472656 Z" stroke="none" fill="#fff"/>
              </g>
            </g>
            <path id="パス_89339" data-name="パス 89339" d="M330.925,137.524a5.425,5.425,0,1,1,3.813.911A5.432,5.432,0,0,1,330.925,137.524Zm-1.284-7.478a5.305,5.305,0,1,0,3.651-2.243A5.311,5.311,0,0,0,329.641,130.045Z" transform="translate(-328.583 -127.633)" fill="none"/>
          </g>
          <g id="グループ_15545" data-name="グループ 15545" transform="translate(9.581 67.985)">
            <g id="グループ_15543" data-name="グループ 15543">
              <g id="パス_89340" data-name="パス 89340" transform="translate(-50.12 -329.846)" fill="#ffe200" stroke-miterlimit="10">
                <path d="M 55.54760360717773 341.0115966796875 C 55.54751205444336 341.0115966796875 55.54742431640625 341.0115966796875 55.54733276367188 341.0115966796875 C 55.51461410522461 341.0115966796875 55.48155212402344 341.0113220214844 55.44870376586914 341.0107727050781 C 53.91570281982422 340.9848937988281 52.48451232910156 340.3636169433594 51.41875457763672 339.2613525390625 C 50.35295486450195 338.1590881347656 49.78030395507813 336.7078552246094 49.80628204345703 335.1749877929688 C 49.83174514770508 333.658935546875 50.44138336181641 332.2389831542969 51.52289199829102 331.1767272949219 C 52.60304260253906 330.1157836914063 54.03112411499023 329.5315246582031 55.54405212402344 329.5315246582031 C 55.57659149169922 329.5315246582031 55.60958480834961 329.5317993164063 55.64224243164063 329.5323486328125 C 57.17551422119141 329.558349609375 58.60679244995117 330.1797180175781 59.67248153686523 331.2820129394531 C 60.73821258544922 332.3843688964844 61.31077194213867 333.8357543945313 61.28468322753906 335.3688659667969 C 61.25922393798828 336.8845520019531 60.64966201782227 338.3042907714844 59.56828308105469 339.366455078125 C 58.48823928833008 340.4273376464844 57.06034088134766 341.0115966796875 55.54760360717773 341.0115966796875 Z" stroke="none"/>
                <path d="M 55.54405975341797 329.9065246582031 C 52.62286376953125 329.9063110351563 50.2304801940918 332.2489013671875 50.18123245239258 335.1813354492188 C 50.13102340698242 338.1436767578125 52.49245452880859 340.5858154296875 55.45503234863281 340.6358032226563 C 55.48577499389648 340.6363220214844 55.5167236328125 340.6365966796875 55.5473518371582 340.6365966796875 C 58.46849822998047 340.6365966796875 60.86048889160156 338.2940979003906 60.90973281860352 335.3624877929688 C 60.96015167236328 332.399658203125 58.59895324707031 329.95751953125 55.63594436645508 329.9072875976563 C 55.60538482666016 329.9067687988281 55.57450485229492 329.9065246582031 55.54405975341797 329.9065246582031 M 55.54368209838867 329.1565246582031 L 55.54368209838867 329.9065246582031 L 55.54380416870117 329.1565246582031 C 55.57865142822266 329.1565246582031 55.61373138427734 329.1567993164063 55.64845275878906 329.1573791503906 C 57.28201293945313 329.1850891113281 58.80678176879883 329.8470458984375 59.94208145141602 331.0213623046875 C 61.07745361328125 332.1957397460938 61.68742370605469 333.7419738769531 61.65962219238281 335.375244140625 C 61.63250350952148 336.9898681640625 60.98311233520508 338.5023803710938 59.83106231689453 339.6339416503906 C 58.68041229248047 340.76416015625 57.15909194946289 341.3865966796875 55.5473518371582 341.3865966796875 C 55.51251220703125 341.3865966796875 55.47731399536133 341.3862915039063 55.44234466552734 341.3857116699219 C 53.80923461914063 341.358154296875 52.2845344543457 340.6962890625 51.14916229248047 339.5220336914063 C 50.01372146606445 338.3477478027344 49.40366363525391 336.8016662597656 49.43134307861328 335.1686401367188 C 49.45846176147461 333.5536804199219 50.10789489746094 332.0409851074219 51.25999450683594 330.9092712402344 C 52.41066360473633 329.7789916992188 53.93196487426758 329.1565246582031 55.54368209838867 329.1565246582031 Z" stroke="none" fill="#ffe200"/>
              </g>
              <g id="パス_89341" data-name="パス 89341" transform="translate(-49.907 -329.634)" fill="#ffe200" stroke-miterlimit="10">
                <path d="M 55.33503723144531 340.8598327636719 C 55.30167770385742 340.8598327636719 55.26832962036133 340.8595581054688 55.23489761352539 340.8589782714844 C 53.68837738037109 340.8330383300781 52.24283981323242 340.2046203613281 51.16469955444336 339.0895080566406 C 50.08659744262695 337.9744567871094 49.50721740722656 336.5086059570313 49.53329849243164 334.9620056152344 C 49.56072998046875 333.3350524902344 50.27674865722656 331.78466796875 51.49775695800781 330.7083435058594 C 52.55730819702148 329.7739868164063 53.91884994506836 329.2593994140625 55.33152770996094 329.2593994140625 C 55.36462783813477 329.2593994140625 55.39763641357422 329.2596740722656 55.4307975769043 329.26025390625 C 58.62872695922852 329.3143920898438 61.1863899230957 331.9600219726563 61.13223648071289 335.1577758789063 C 61.10504913330078 336.7841491699219 60.38912963867188 338.3344421386719 59.16802978515625 339.4110717773438 C 58.10833740234375 340.3453369140625 56.74709701538086 340.8598327636719 55.33503723144531 340.8598327636719 Z M 55.33137893676758 330.1299743652344 C 54.13075637817383 330.1299743652344 52.97370910644531 330.5671997070313 52.07337951660156 331.3611755371094 C 51.03572845458984 332.2761535644531 50.42716979980469 333.593994140625 50.40372848510742 334.9768676757813 C 50.3814582824707 336.291015625 50.87391662597656 337.5366821289063 51.79036712646484 338.4844360351563 C 52.70683670043945 339.4321594238281 53.93542861938477 339.9662780761719 55.24981689453125 339.9883422851563 C 55.27849960327148 339.9888305664063 55.30713653564453 339.9890747070313 55.33560943603516 339.9890747070313 C 56.53584671020508 339.9891052246094 57.69253921508789 339.5520324707031 58.59260940551758 338.7583312988281 C 59.63011932373047 337.8434753417969 60.23858642578125 336.5256958007813 60.26201629638672 335.142822265625 C 60.28428649902344 333.8286743164063 59.79183959960938 332.5829162597656 58.87538909912109 331.635009765625 C 57.95892715454102 330.6871032714844 56.73039627075195 330.1528625488281 55.41611862182617 330.1306762695313 C 55.38784790039063 330.1301879882813 55.35954666137695 330.1299743652344 55.33137893676758 330.1299743652344 Z" stroke="none"/>
                <path d="M 55.33504104614258 340.4848327636719 C 56.65737915039063 340.4848327636719 57.92697906494141 340.0053100585938 58.92002868652344 339.1297912597656 C 60.06214904785156 338.122802734375 60.73185729980469 336.6728210449219 60.75728988647461 335.1514282226563 C 60.80793762207031 332.1603393554688 58.41576766967773 329.6858520507813 55.4244384765625 329.6351928710938 C 55.39340209960938 329.6346740722656 55.36250686645508 329.6343994140625 55.33152389526367 329.6343994140625 C 54.0089111328125 329.6343994140625 52.73873901367188 330.1139831542969 51.7457275390625 330.9896545410156 C 50.60359954833984 331.9964294433594 49.93389892578125 333.4468688964844 49.90824890136719 334.9683227539063 C 49.85781860351563 337.9589538574219 52.25043869018555 340.4338684082031 55.24131774902344 340.4840393066406 C 55.27260208129883 340.4845886230469 55.30381393432617 340.4848327636719 55.33504104614258 340.4848327636719 M 55.33138275146484 329.7549438476563 C 55.36167144775391 329.7549438476563 55.39210510253906 329.7552185058594 55.42244720458984 329.7557373046875 C 58.34697723388672 329.8050842285156 60.68650817871094 332.2249145507813 60.63696670532227 335.149169921875 C 60.61175918579102 336.6370239257813 59.95731735229492 338.054931640625 58.84062957763672 339.0395812988281 C 57.86990356445313 339.8955993652344 56.62833023071289 340.3641052246094 55.33559799194336 340.3640747070313 C 55.30498504638672 340.3640747070313 55.27419281005859 340.3638000488281 55.24352645874023 340.36328125 C 52.31877899169922 340.3141784667969 49.9792366027832 337.8948364257813 50.02877807617188 334.9704895019531 C 50.05399703979492 333.482666015625 50.70865631103516 332.0645751953125 51.82534790039063 331.0799255371094 C 52.79631423950195 330.2236633300781 54.03830337524414 329.7549438476563 55.33138275146484 329.7549438476563 M 55.33503723144531 341.2348327636719 C 55.29950714111328 341.2348327636719 55.26397705078125 341.2345581054688 55.22836685180664 341.2339477539063 C 53.58192825317383 341.206298828125 52.04287719726563 340.5373229980469 50.89509963989258 339.3501586914063 C 49.74737930297852 338.1630859375 49.13058853149414 336.6024169921875 49.15835952758789 334.9556579589844 C 49.18755722045898 333.2235412597656 49.94985961914063 331.5729064941406 51.24978637695313 330.4270324707031 C 52.37782669067383 329.4322814941406 53.82745742797852 328.8843994140625 55.33152770996094 328.8843994140625 C 55.36677932739258 328.8843994140625 55.40192794799805 328.8847045898438 55.43723678588867 328.8853149414063 C 58.84181976318359 328.9429626464844 61.56482696533203 331.7596435546875 61.50717926025391 335.1641235351563 C 61.47823715209961 336.8956298828125 60.71604919433594 338.546142578125 59.4160270690918 339.6923522949219 C 58.28778839111328 340.6870422363281 56.83846664428711 341.2348327636719 55.33503723144531 341.2348327636719 Z M 55.33137893676758 330.5049743652344 C 54.2221565246582 330.5049743652344 53.1531982421875 330.908935546875 52.32140731811523 331.6424560546875 C 51.36261749267578 332.4878540039063 50.80032730102539 333.7055053710938 50.77866744995117 334.9832153320313 C 50.75810623168945 336.1971740722656 51.21313858032227 337.3480224609375 52.0599479675293 338.2237548828125 C 52.90678787231445 339.0994873046875 54.04186630249023 339.593017578125 55.25611877441406 339.6134033203125 C 55.2828369140625 339.6138610839844 55.30929946899414 339.6140747070313 55.33559799194336 339.6140747070313 C 56.4444694519043 339.6141052246094 57.51306915283203 339.2102966308594 58.34457778930664 338.47705078125 C 59.30321884155273 337.6317749023438 59.86542892456055 336.4141845703125 59.88707733154297 335.136474609375 C 59.90763854980469 333.9224853515625 59.45261001586914 332.7715454101563 58.60578918457031 331.8956604003906 C 57.75894927978516 331.019775390625 56.62391662597656 330.526123046875 55.40979766845703 330.505615234375 C 55.38353729248047 330.5051879882813 55.35739898681641 330.5049743652344 55.33137893676758 330.5049743652344 Z" stroke="none" fill="#ffe200"/>
              </g>
            </g>
            <g id="グループ_15544" data-name="グループ 15544" transform="translate(0.045 0.049)">
              <g id="パス_89342" data-name="パス 89342" transform="translate(-50.113 -346.945)" fill="#fff" stroke-miterlimit="10">
                <path d="M 55.6600341796875 358.0929565429688 L 55.28599548339844 358.0700378417969 L 54.92570495605469 358.0479431152344 L 54.55128479003906 358.0249938964844 L 54.57436370849609 357.6505737304688 C 54.63939666748047 356.5956726074219 54.12988662719727 355.3440246582031 53.21142578125 354.3024291992188 C 52.3017463684082 353.2709655761719 51.13321685791016 352.609375 50.08562469482422 352.53271484375 L 49.71169662475586 352.5053405761719 L 49.73899459838867 352.1314086914063 L 49.76532363891602 351.770751953125 L 49.79262542724609 351.3966369628906 L 50.16671371459961 351.4240417480469 C 51.49761581420898 351.521484375 52.94739532470703 352.3226318359375 54.04487609863281 353.5670471191406 C 55.15398406982422 354.8247680664063 55.76645660400391 356.3768615722656 55.68322372436523 357.7189331054688 L 55.6600341796875 358.0929565429688 Z" stroke="none"/>
                <path d="M 55.30894470214844 357.6957397460938 C 55.38613510131836 356.4509582519531 54.80843353271484 354.9998779296875 53.76362609863281 353.8150939941406 C 52.72943496704102 352.6424255371094 51.37455368041992 351.8884887695313 50.13932418823242 351.7980346679688 L 50.11299514770508 352.1587219238281 C 51.25600433349609 352.2423706054688 52.51954650878906 352.9509887695313 53.49269485473633 354.0544128417969 C 54.4755744934082 355.1690673828125 55.01964569091797 356.52197265625 54.94865417480469 357.6736450195313 L 55.30894470214844 357.6957397460938 M 56.01112365722656 358.4902038574219 L 55.26304626464844 358.4443359375 L 54.90275573730469 358.4222412109375 L 54.15391540527344 358.3763122558594 L 54.2000732421875 357.6275024414063 C 54.25824356079102 356.6838073730469 53.77164459228516 355.5047607421875 52.93015670776367 354.5504455566406 C 52.09651565551758 353.6051940917969 50.99605560302734 352.975341796875 50.05825424194336 352.9067077636719 L 49.31038665771484 352.8519897460938 L 49.36498641967773 352.1040954589844 L 49.39131546020508 351.7434387207031 L 49.4459342956543 350.9952697753906 L 50.19409561157227 351.050048828125 C 51.62057495117188 351.1545104980469 53.16525650024414 352.0027160644531 54.32612609863281 353.3190307617188 C 55.49950408935547 354.6495971679688 56.14674377441406 356.3031005859375 56.0575065612793 357.7421569824219 L 56.01112365722656 358.4902038574219 Z" stroke="none" fill="#fff"/>
              </g>
              <g id="パス_89343" data-name="パス 89343" transform="translate(-69.572 -329.854)" fill="#fff" stroke-miterlimit="10">
                <path d="M 80.65682220458984 336.1188659667969 L 80.28280639648438 336.0950012207031 C 78.94121551513672 336.0093994140625 77.47805023193359 335.20751953125 76.36885070800781 333.9499816894531 C 75.27136993408203 332.7052917480469 74.65802001953125 331.166748046875 74.72809600830078 329.8343505859375 L 74.74777221679688 329.4600524902344 L 75.12206268310547 329.4795532226563 L 75.48277282714844 329.4983215332031 L 75.85731506347656 329.5177917480469 L 75.83777618408203 329.892333984375 C 75.78305053710938 330.9413757324219 76.29339599609375 332.1832275390625 77.20292663574219 333.2143249511719 C 78.12134552001953 334.2561340332031 79.29923248291016 334.9183349609375 80.35384368896484 334.9857788085938 L 80.72824096679688 335.0097351074219 L 80.70413208007813 335.3841247558594 L 80.68090057373047 335.744873046875 L 80.65682220458984 336.1188659667969 Z" stroke="none"/>
                <path d="M 80.30668640136719 335.7207641601563 L 80.32991027832031 335.3600158691406 C 79.17848968505859 335.286376953125 77.90455627441406 334.5773010253906 76.92169189453125 333.46240234375 C 75.94874572753906 332.3594055175781 75.40357971191406 331.0173645019531 75.46327972412109 329.872802734375 L 75.10257720947266 329.8540344238281 C 75.03753662109375 331.0907897949219 75.61612701416016 332.5292663574219 76.65008544921875 333.7019348144531 C 77.69511413574219 334.88671875 79.06216430664063 335.641357421875 80.30668640136719 335.7207641601563 M 81.00696563720703 336.5169677734375 L 80.25892639160156 336.46923828125 C 78.82042694091797 336.37744140625 77.26105499267578 335.5284118652344 76.08762359619141 334.1980590820313 C 74.92670440673828 332.8814086914063 74.27850341796875 331.2427673339844 74.35360717773438 329.8146362304688 L 74.39297485351563 329.0661010742188 L 75.14154052734375 329.1050415039063 L 75.50225067138672 329.1238098144531 L 76.25133514404297 329.1627807617188 L 76.21226501464844 329.911865234375 C 76.16328430175781 330.8509826660156 76.650634765625 332.0213623046875 77.48414611816406 332.9662780761719 C 78.32566070556641 333.9208374023438 79.43438720703125 334.5512084960938 80.37778472900391 334.6115417480469 L 81.1265869140625 334.659423828125 L 81.07836151123047 335.408203125 L 81.05513000488281 335.7689514160156 L 81.00696563720703 336.5169677734375 Z" stroke="none" fill="#fff"/>
              </g>
            </g>
            <path id="パス_89344" data-name="パス 89344" d="M55.241,340.484a5.425,5.425,0,1,1,3.679-1.354A5.431,5.431,0,0,1,55.241,340.484Zm-5.213-5.514a5.3,5.3,0,1,0,1.8-3.891A5.31,5.31,0,0,0,50.029,334.97Z" transform="translate(-49.907 -329.634)" fill="none"/>
          </g>
        </g>
      </g>
    </g>
  </g>
</svg>
