<svg xmlns="http://www.w3.org/2000/svg" xmlns:xlink="http://www.w3.org/1999/xlink" width="140" height="140" viewBox="0 0 140 140"><defs><clipPath id="a"><circle cx="70" cy="70" r="70" transform="translate(0 0.477)" fill="#f7f3e5"/></clipPath></defs><g transform="translate(0 -0.477)"><circle cx="70" cy="70" r="70" transform="translate(0 0.477)" fill="#f7f3e5"/><g clip-path="url(#a)"><g transform="translate(-1417.658 -139.613)"><g transform="translate(1565.649 180.018)"><g transform="translate(0 0)"><g transform="translate(2.331)"><path d="M2306.763,275.743a.045.045,0,0,0,.042-.016.028.028,0,0,0,.012-.042h0a.049.049,0,0,0-.015-.028c-.044-.087-.057-.194-.1-.281-.028-.058-.057-.116-.089-.172a.953.953,0,0,0-.2-.255c-.123-.105-.345-.2-.452-.012C2305.7,275.391,2306.42,275.7,2306.763,275.743Z" transform="translate(-2305.208 -273.688)" fill="#9bb23d"/><path d="M2310.372,278.435c.315.021.563.12.861-.034a.361.361,0,0,0,.219-.428c-.059-.156-.319-.169-.449-.128a1.132,1.132,0,0,0-.441.246,1.374,1.374,0,0,0-.186.24h-.006A.053.053,0,0,0,2310.372,278.435Z" transform="translate(-2308.791 -276.116)" fill="#b3cc56"/><path d="M2304.133,282.21a1.468,1.468,0,0,0,.96.131.059.059,0,0,0,.013-.111c-.143-.365-.864-.977-1.2-.543C2303.758,281.876,2303.975,282.122,2304.133,282.21Z" transform="translate(-2303.543 -279.127)" fill="#b3cc56"/><path d="M2310.347,284.43c.323.141,1.484.3,1.349-.366-.053-.263-.466-.165-.619-.122a1.784,1.784,0,0,0-.745.367.034.034,0,0,0-.012.03A.062.062,0,0,0,2310.347,284.43Z" transform="translate(-2308.778 -281.033)" fill="#9bb23d"/><path d="M2302.205,289.031c.02.25.376.352.575.335a1.55,1.55,0,0,0,.934-.44.049.049,0,0,0,.03-.021l.011-.016a.023.023,0,0,0,.014-.035.061.061,0,0,0-.1-.056l-.017.014c-.323-.108-.7-.34-1.036-.263A.464.464,0,0,0,2302.205,289.031Z" transform="translate(-2302.204 -284.801)" fill="#b3cc56"/><path d="M2310.41,290.614a2.465,2.465,0,0,0,1.119.309c.183-.025.48-.125.445-.366-.029-.2-.335-.335-.513-.333a1.809,1.809,0,0,0-.532.085,2.5,2.5,0,0,0-.349.119,1.324,1.324,0,0,1-.131.067.057.057,0,0,0-.051.01h-.008a.008.008,0,0,0-.008.011l0,0A.061.061,0,0,0,2310.41,290.614Z" transform="translate(-2308.827 -286.17)" fill="#b3cc56"/><path d="M2303.371,295.376c.116.251.513.242.734.155a1.031,1.031,0,0,0,.635-.687.05.05,0,0,0-.047-.061l.006,0a.025.025,0,0,0,.007-.035l0-.008a.02.02,0,0,0-.026-.007s0-.006-.018.005a.733.733,0,0,1-.312.088,2.181,2.181,0,0,0-.6.067C2303.6,294.951,2303.271,295.158,2303.371,295.376Z" transform="translate(-2303.135 -289.822)" fill="#b3cc56"/><path d="M2312.719,300.421a2.26,2.26,0,0,0,.916-.661.46.46,0,0,0-.047-.652.375.375,0,0,0-.521.119c-.19.351-.224.763-.409,1.122l0,0c-.009.017-.018.034-.027.051s.009.037.025.024l.016-.015A.041.041,0,0,0,2312.719,300.421Z" transform="translate(-2310.655 -293.327)" fill="#b3cc56"/><path d="M2310.259,280.022c-.079-.571-.138-1.139-.162-1.714-.02-.5-.013-1,0-1.495a6.21,6.21,0,0,1,.163-1.506c0-.013.021-.006.021.005,0,.463-.075.925-.086,1.389-.013.572-.016,1.143.009,1.715.043,1.016.272,2,.39,3a.035.035,0,0,1-.066.019A5.994,5.994,0,0,1,2310.259,280.022Z" transform="translate(-2308.595 -274.068)" fill="#c39e80"/><path d="M2310.464,270.19c0,.032.049.052.06.016,0-.007,0-.015,0-.022a.019.019,0,0,0,.021-.017,2.531,2.531,0,0,1,.246-.523,1.253,1.253,0,0,0,.122-.436c0-.14-.02-.4-.207-.422s-.284.239-.308.376a1.787,1.787,0,0,0-.021.433C2310.4,269.794,2310.466,269.989,2310.464,270.19Z" transform="translate(-2308.831 -268.784)" fill="#b3cc56"/></g><g transform="translate(4.866 4.7)"><path d="M2332.943,294.684a.1.1,0,0,0,.063.019c.022.006.051,0,.055-.017h0a.03.03,0,0,0,.011-.027c.039-.082.136-.153.18-.232.03-.053.058-.106.081-.16a.487.487,0,0,0,.051-.283.463.463,0,0,0-.532-.335C2332.027,293.729,2332.6,294.427,2332.943,294.684Z" transform="translate(-2329.25 -293.646)" fill="#b3cc56"/><g transform="translate(3.441 1.136)"><path d="M2333.836,299.737a2.894,2.894,0,0,0,.933.57c.234.068.525.082.647-.054.106-.118-.134-.325-.31-.4a2.234,2.234,0,0,0-.72-.191,2.4,2.4,0,0,0-.443.016l-.007,0C2333.865,299.636,2333.773,299.7,2333.836,299.737Z" transform="translate(-2333.815 -299.654)" fill="#b3cc56"/></g><path d="M2323.732,297.62a2.227,2.227,0,0,0,1,.614c.076.027.144-.034.109-.074a.826.826,0,0,0-.937-1.077C2323.548,297.155,2323.614,297.471,2323.732,297.62Z" transform="translate(-2322.121 -296.417)" fill="#b3cc56"/><path d="M2328.686,303.6c.233.284,1.181,1.063,1.659.578.189-.192-.287-.41-.479-.481a2.6,2.6,0,0,0-1.1-.2.051.051,0,0,0-.038.016C2328.688,303.532,2328.657,303.566,2328.686,303.6Z" transform="translate(-2326.206 -301.637)" fill="#9bb23d"/><path d="M2315.642,302.857c-.135.25.245.464.49.519a3.384,3.384,0,0,0,1.34,0,.088.088,0,0,0,.047,0l.024-.008c.023,0,.04-.008.04-.022.04-.038.012-.1-.065-.094l-.029,0c-.27-.246-.54-.627-1-.695A.807.807,0,0,0,2315.642,302.857Z" transform="translate(-2315.614 -300.864)" fill="#9bb23d"/><path d="M2324.609,308.1c.272.268.508.645.882.8.18.074.5.156.642-.038.12-.16-.041-.432-.207-.531a1.949,1.949,0,0,0-.573-.224,2.787,2.787,0,0,0-.439-.081c-.039,0-.12,0-.182-.007a.08.08,0,0,0-.06-.016l-.008,0c-.005,0-.016,0-.016.005s0,0,0,0C2324.6,308.019,2324.573,308.061,2324.609,308.1Z" transform="translate(-2322.896 -305.28)" fill="#b3cc56"/><path d="M2319.763,300.755a5,5,0,0,1,.806-1.612,5.526,5.526,0,0,1,1.209-1.151,4.207,4.207,0,0,1,1.705-.78c.018,0,.03.014.017.019a8.825,8.825,0,0,0-1.512.745,5.779,5.779,0,0,0-1.379,1.31,5.849,5.849,0,0,0-.987,2.937.031.031,0,0,1-.062,0A3.648,3.648,0,0,1,2319.763,300.755Z" transform="translate(-2318.801 -296.537)" fill="#c39e80"/><path d="M2339.143,295.294c-.035.016,0,.064.049.053l.029-.008a.046.046,0,0,0,.042.007,3.955,3.955,0,0,1,.852-.038,3.415,3.415,0,0,0,.64-.049c.169-.043.466-.132.294-.313a1.1,1.1,0,0,0-.8-.157,2.011,2.011,0,0,0-.534.156C2339.5,295.046,2339.363,295.193,2339.143,295.294Z" transform="translate(-2334.683 -294.563)" fill="#9bb23d"/></g><g transform="translate(0 3.757)"><path d="M2298.924,289.275c-.243-.055-.34.207-.348.4a1.118,1.118,0,0,0,.062.369c.022.072.048.142.075.212.041.1.123.2.161.307a.057.057,0,0,0,.011.035h0a.033.033,0,0,0,.045.023.052.052,0,0,0,.047-.023C2299.218,290.271,2299.52,289.41,2298.924,289.275Z" transform="translate(-2296.929 -289.153)" fill="#b3cc56"/><path d="M2296.242,296.943l0,0a1.587,1.587,0,0,0-.352-.032,1.315,1.315,0,0,0-.56.18c-.138.079-.333.31-.247.484a.42.42,0,0,0,.539.153c.368-.132.48-.422.712-.707C2296.374,296.973,2296.294,296.9,2296.242,296.943Z" transform="translate(-2294.077 -295.354)" fill="#b3cc56"/><path d="M2309.51,297.364c-.632.105-.4,1.183-.109,1.531a.068.068,0,0,0,.121.048,1.708,1.708,0,0,0,.4-1.056C2309.915,297.678,2309.783,297.319,2309.51,297.364Z" transform="translate(-2305.47 -295.715)" fill="#b3cc56"/><path d="M2300.517,301.42a.039.039,0,0,0-.035-.014,2.074,2.074,0,0,0-.9.344c-.159.1-.57.369-.388.624.46.645,1.246-.473,1.382-.859A.072.072,0,0,0,2300.517,301.42Z" transform="translate(-2297.391 -298.996)" fill="#9bb23d"/><path d="M2305.476,305.877s0,0,0,0a.009.009,0,0,0-.015,0l-.006.007a.066.066,0,0,0-.049.035,1.521,1.521,0,0,1-.16.058,2.913,2.913,0,0,0-.378.2,2.119,2.119,0,0,0-.495.385c-.143.151-.27.519-.123.7.177.222.5.047.666-.089a2.871,2.871,0,0,0,.625-1.2A.071.071,0,0,0,2305.476,305.877Z" transform="translate(-2301.479 -302.613)" fill="#b3cc56"/><path d="M2314.145,304.132a2.958,2.958,0,0,0-.671.476,1,1,0,0,1-.4.194c-.03.006-.03.009-.023.011a.028.028,0,0,0-.02.031l0,.012c0,.016.02.034.039.029l.01,0a.068.068,0,0,0,.007.1,1.4,1.4,0,0,0,1.269.12c.3-.112.714-.464.6-.825C2314.873,303.971,2314.354,304.055,2314.145,304.132Z" transform="translate(-2308.656 -301.149)" fill="#b3cc56"/><path d="M2300.5,297.1c-.424-.52-.86-1.022-1.333-1.5-.408-.412-.839-.8-1.276-1.184a7.234,7.234,0,0,0-1.412-1.056c-.014-.007-.022.013-.012.022.4.364.848.67,1.251,1.029.5.443.987.894,1.454,1.368.832.844,1.484,1.815,2.246,2.713a.04.04,0,0,0,.068-.041A6.991,6.991,0,0,0,2300.5,297.1Z" transform="translate(-2295.22 -292.47)" fill="#c39e80"/><path d="M2290.863,289.107a2.056,2.056,0,0,0-.385-.326c-.135-.088-.439-.209-.564-.036s.074.4.2.511a1.463,1.463,0,0,0,.469.242,2.937,2.937,0,0,1,.641.206.022.022,0,0,0,.032,0l.022.014c.04.02.062-.038.034-.063C2291.132,289.493,2291.022,289.28,2290.863,289.107Z" transform="translate(-2289.872 -288.658)" fill="#9bb23d"/></g><path d="M2305.368,312.891a2.456,2.456,0,0,0-1.764.683,1.392,1.392,0,0,0-.26,1.23,2.066,2.066,0,0,0,1.475,1.532,5.988,5.988,0,0,0,2.711.241,8.933,8.933,0,0,0,2.115-.332c.646-.241.762-.784.968-1.384a2.984,2.984,0,0,0,.018-2.354c-.662-1.37-2.107-1.124-3.177-.374A3.784,3.784,0,0,1,2305.368,312.891Z" transform="translate(-2300.768 -303.446)" fill="#a0bfc2"/></g><path d="M2311.588,309.678c0-.01,0-.021,0-.031a.024.024,0,0,0-.048,0c-.006.026-.013.052-.02.078l0,.007c-.148.544-.5,1-.637,1.54a.524.524,0,0,0,.424.614c.394.039.6-.278.663-.626a3.149,3.149,0,0,0-.319-1.543A.057.057,0,0,0,2311.588,309.678Z" transform="translate(-2306.897 -301.907)" fill="#9bb23d"/></g><path d="M1570.785,524.056h-.9c-.288,0-.527-.153-.546-.35l-.22-2.421h2.433l-.221,2.421c-.018.2-.257.35-.546.35Z" transform="translate(-139.713 -293.536)" fill="#715239"/><path d="M1782.689,522.931h.9c.288,0,.527-.153.545-.35l.221-2.421h-2.433l.222,2.421c.018.2.256.35.546.35Z" transform="translate(-312.291 -292.624)" fill="#715239"/><path d="M1578.083,423.054l-1.6.553,1.7.3a.839.839,0,0,0,.053-.5A.625.625,0,0,0,1578.083,423.054Z" transform="translate(-145.686 -213.874)" fill="#dbb587"/><g transform="translate(1478.752 167.079)"><path d="M1845.21,256.675h-14.517a.52.52,0,0,1-.52-.52v-55.3a.52.52,0,0,1,.52-.52h14.517a.52.52,0,0,1,.52.52v55.3a.52.52,0,0,1-.52.52Z" transform="translate(-1830.174 -200.332)" fill="#9e9e9f"/><path d="M1851.152,210.945v51.706a.4.4,0,0,1-.411.385h-11.314a.4.4,0,0,1-.411-.385V210.945a.4.4,0,0,1,.411-.384h11.314a.4.4,0,0,1,.411.384Z" transform="translate(-1837.345 -208.627)" fill="#cee4f0"/><path d="M1851.152,254.944V258l-12.135,11.346v-3.059l12.135-11.347Z" transform="translate(-1837.345 -244.621)" fill="#fff"/><path d="M1851.152,287.039v1.218L1839.017,299.6v-1.217l12.135-11.341Z" transform="translate(-1837.345 -270.649)" fill="#fff"/></g><g transform="translate(1496.547 163.31)"><g transform="translate(0 0)"><rect width="33.493" height="59.742" fill="#a37a5a"/><path d="M1963.265,246.888h-30.172V191.251h30.172Z" transform="translate(-1931.433 -189.199)" fill="#664a32"/><rect width="14.072" height="53.467" transform="translate(2.35 3.137)" fill="#7d5b40"/><rect width="14.072" height="53.467" transform="translate(17.071 3.137)" fill="#7d5b40"/></g><g transform="translate(13.992 28.071)"><path d="M2022.458,330.7c0,1.057-.118,1.793-.621,1.793s-.622-.822-.622-1.793.118-1.8.622-1.8S2022.458,329.589,2022.458,330.7Z" transform="translate(-2016.889 -328.896)" fill="#d9c580"/><path d="M1999.572,330.7c0,.884-.118,1.793-.621,1.793s-.622-.779-.622-1.793.118-1.8.622-1.8S1999.572,329.718,1999.572,330.7Z" transform="translate(-1998.329 -328.896)" fill="#d9c580"/></g></g><g transform="translate(1553.807 170.433)"><ellipse cx="3.069" cy="0.363" rx="3.069" ry="0.363" transform="translate(1.704 21.336)" fill="#5e676d"/><rect width="6.138" height="0.363" transform="translate(1.704 21.336)" fill="#5e676d"/><line y2="14.62" transform="translate(4.642 6.353)" fill="none" stroke="#464f52" stroke-linecap="round" stroke-miterlimit="10" stroke-width="3.657"/><path d="M2221.806,329.389c0,.2-1.374.363-3.069.363s-3.069-.163-3.069-.363,1.374-.363,3.069-.363S2221.806,329.189,2221.806,329.389Z" transform="translate(-2213.964 -308.053)" fill="#464f52"/><path d="M2215.75,230.372h-9.094l1.735-12.3h5.417Z" transform="translate(-2206.656 -218.077)" fill="#c96855"/></g><rect width="48.573" height="46.522" transform="translate(1426.268 181.227)" fill="#a37a5a"/><path d="M1605.377,325.715h-46.011v-43.7h46.011v43.7Z" transform="translate(-131.804 -99.495)" fill="#664a32"/><path d="M1605.186,336.015H1559.13V334.9h46.056v1.114Z" transform="translate(-131.613 -142.384)" fill="#a37a5a"/><path d="M1605.186,389.769H1559.13v-1.114h46.056v1.114Z" transform="translate(-131.613 -185.977)" fill="#a37a5a"/><path d="M1605.186,454.916H1559.13V453.8h46.056v1.114Z" transform="translate(-131.613 -238.81)" fill="#a37a5a"/><path d="M1605.186,508.422H1559.13v-1.114h46.056v1.114Z" transform="translate(-131.613 -282.201)" fill="#a37a5a"/><path d="M1671.951,352.649h-1.96v-8.363h1.96v8.363Z" transform="translate(-221.518 -149.996)" fill="#6c9a73"/><path d="M1685.3,352.649h-1.96v-8.363h1.96v8.363Z" transform="translate(-232.346 -149.996)" fill="#b1c075"/><path d="M1698.657,352.649H1696.7v-8.363h1.961v8.363Z" transform="translate(-243.176 -149.996)" fill="#6c9a73"/><path d="M1712.013,352.649h-1.96v-8.363h1.96v8.363Z" transform="translate(-254.007 -149.996)" fill="#889fab"/><path d="M1725.365,352.649h-1.96v-8.363h1.96v8.363Z" transform="translate(-264.835 -149.996)" fill="#889fab"/><path d="M1645.246,352.649h-1.96v-8.363h1.96v8.363Z" transform="translate(-199.861 -149.996)" fill="#b1c075"/><path d="M1658.6,352.649h-1.96v-8.363h1.96v8.363Z" transform="translate(-210.691 -149.996)" fill="#7bb6d2"/><g transform="translate(1434.023 183.756)"><path d="M1593.547,288.559h2.287v8.721h-2.287v-8.721Z" transform="translate(-1593.547 -288.559)" fill="#6b9a73"/><path d="M1593.547,289.6h2.287v.77h-2.287v-.77Z" transform="translate(-1593.547 -289.402)" fill="#e3c97c"/></g><g transform="translate(1431.172 183.756)"><path d="M1578.467,288.559h2.287v8.721h-2.287v-8.721Z" transform="translate(-1578.467 -288.559)" fill="#818964"/><path d="M1578.467,289.6h2.287v.77h-2.287v-.77Z" transform="translate(-1578.467 -289.402)" fill="#e3c97c"/></g><g transform="translate(1428.321 183.756)"><path d="M1563.384,288.559h2.287v8.721h-2.287v-8.721Z" transform="translate(-1563.384 -288.559)" fill="#6b9a73"/><path d="M1563.384,289.6h2.287v.77h-2.287v-.77Z" transform="translate(-1563.384 -289.402)" fill="#e3c97c"/></g><g transform="translate(1436.874 183.756)"><path d="M1610.917,297.28h-2.287v-8.721h2.287v8.721Z" transform="translate(-1608.63 -288.559)" fill="#527585"/><path d="M1610.917,329.386h-2.287v-1.25h2.287v1.25Z" transform="translate(-1608.63 -320.655)" fill="#d8bc71"/></g><g transform="translate(1439.724 183.756)"><path d="M1626,297.28h-2.287v-8.721H1626v8.721Z" transform="translate(-1623.71 -288.559)" fill="#519c46"/><path d="M1626,329.386h-2.287v-1.25H1626v1.25Z" transform="translate(-1623.71 -320.655)" fill="#d8bc71"/></g><g transform="translate(1442.575 183.756)"><path d="M1641.08,297.28h-2.287v-8.721h2.287v8.721Z" transform="translate(-1638.793 -288.559)" fill="#6c9a73"/><path d="M1641.08,329.386h-2.287v-1.25h2.287v1.25Z" transform="translate(-1638.793 -320.655)" fill="#d8bc71"/></g><g transform="translate(1445.427 183.756)"><path d="M1656.163,297.28h-2.287v-8.721h2.287v8.721Z" transform="translate(-1653.876 -288.559)" fill="#4c4a62"/><path d="M1656.163,329.386h-2.287v-1.25h2.287v1.25Z" transform="translate(-1653.876 -320.655)" fill="#d8bc71"/></g><g transform="translate(1448.277 183.756)"><path d="M1671.244,297.28h-2.287v-8.721h2.287v8.721Z" transform="translate(-1668.956 -288.559)" fill="#818964"/><path d="M1671.244,329.386h-2.287v-1.25h2.287v1.25Z" transform="translate(-1668.956 -320.655)" fill="#d8bc71"/></g><g transform="translate(1451.128 183.756)"><path d="M1686.326,297.28h-2.287v-8.721h2.287v8.721Z" transform="translate(-1684.039 -288.559)" fill="#768fb7"/><path d="M1686.326,329.386h-2.287v-1.25h2.287v1.25Z" transform="translate(-1684.039 -320.655)" fill="#d8bc71"/></g><g transform="translate(1453.979 183.756)"><path d="M1701.409,297.28h-2.287v-8.721h2.287v8.721Z" transform="translate(-1699.122 -288.559)" fill="#7ca377"/><path d="M1701.409,329.386h-2.287v-1.25h2.287v1.25Z" transform="translate(-1699.122 -320.655)" fill="#d8bc71"/></g><g transform="translate(1456.83 183.756)"><path d="M1716.49,297.28H1714.2v-8.721h2.287v8.721Z" transform="translate(-1714.202 -288.559)" fill="#cd804d"/><path d="M1716.49,329.386H1714.2v-1.25h2.287v1.25Z" transform="translate(-1714.202 -320.655)" fill="#d8bc71"/></g><g transform="translate(1459.681 183.756)"><path d="M1731.572,297.28h-2.287v-8.721h2.287v8.721Z" transform="translate(-1729.285 -288.559)" fill="#a680a5"/><path d="M1731.572,329.386h-2.287v-1.25h2.287v1.25Z" transform="translate(-1729.285 -320.655)" fill="#d8bc71"/></g><path d="M1723.656,417.859h1.959V409.5h-1.959v8.363Z" transform="translate(-265.039 -202.878)" fill="#83966c"/><path d="M1708.572,417.859h1.961V409.5h-1.961v8.363Z" transform="translate(-252.806 -202.878)" fill="#b58f6a"/><path d="M1695.355,417.859h1.96V409.5h-1.96v8.363Z" transform="translate(-242.087 -202.878)" fill="#b3a891"/><path d="M1681.458,417.859h1.96V409.5h-1.96v8.363Z" transform="translate(-230.818 -202.878)" fill="#878c8e"/><path d="M1626.771,411.567h1.24v-9.83h-1.24v9.83Z" transform="translate(-186.468 -196.587)" fill="#889fab"/><path d="M1741.517,404.362h-2.276V413.7h2.276v-9.334Z" transform="translate(-277.678 -198.715)" fill="#9a9ec2"/><path d="M1757.032,404.362h-2.278V413.7h2.278v-9.334Z" transform="translate(-290.259 -198.715)" fill="#c96855"/><path d="M1772.389,404.362h-2.277V413.7h2.277v-9.334Z" transform="translate(-302.713 -198.715)" fill="#d1936f"/><path d="M1565.639,346.389H1563.7v7.966h1.943v-7.966Z" transform="translate(-135.317 -151.701)" fill="#9a9ec2"/><path d="M1578.9,346.389h-1.944v7.966h1.944v-7.966Z" transform="translate(-146.071 -151.701)" fill="#c96855"/><path d="M1592.169,346.389h-1.944v7.966h1.944v-7.966Z" transform="translate(-156.831 -151.701)" fill="#d1936f"/><path d="M1605.434,346.389h-1.943v7.966h1.943v-7.966Z" transform="translate(-167.589 -151.701)" fill="#a680a5"/><path d="M1618.7,346.389h-1.944v7.966h1.944v-7.966Z" transform="translate(-178.343 -151.701)" fill="#7ca377"/><path d="M1631.964,346.389h-1.944v7.966h1.944v-7.966Z" transform="translate(-189.103 -151.701)" fill="#cd804d"/><path d="M1787.883,404.362h-2.278V413.7h2.278v-9.334Z" transform="translate(-315.278 -198.715)" fill="#887972"/><path d="M1676.5,466.819h-1.959v7.629h1.959v-7.629Z" transform="translate(-225.204 -249.366)" fill="#e56c33"/><path d="M1690.57,466.819h-1.959v7.629h1.959v-7.629Z" transform="translate(-236.618 -249.366)" fill="#b3a891"/><path d="M1704.645,466.819h-1.959v7.629h1.959v-7.629Z" transform="translate(-248.032 -249.366)" fill="#d99ba6"/><path d="M1718.719,466.819h-1.959v7.629h1.959v-7.629Z" transform="translate(-259.446 -249.366)" fill="#7ca377"/><path d="M1732.793,466.819h-1.959v7.629h1.959v-7.629Z" transform="translate(-270.86 -249.366)" fill="#7798ab"/><path d="M1746.868,466.819h-1.959v7.629h1.959v-7.629Z" transform="translate(-282.274 -249.366)" fill="#aa6966"/><path d="M1658.785,470.65h2.276v-8.514h-2.276v8.514Z" transform="translate(-212.43 -245.569)" fill="#818964"/><path d="M1643.025,470.65h2.278v-8.514h-2.278v8.514Z" transform="translate(-199.65 -245.569)" fill="#c96855"/><path d="M1627.268,470.65h2.277v-8.514h-2.277v8.514Z" transform="translate(-186.871 -245.569)" fill="#d1936f"/><path d="M1611.509,470.65h2.278v-8.514h-2.278v8.514Z" transform="translate(-174.091 -245.569)" fill="#887972"/><path d="M1788.013,474.871l-1.771-.056.034-7.47,1.841,0-.035,7.47Z" transform="translate(-315.794 -249.79)" fill="#b58f6a"/><path d="M1774.384,474.871l-1.771-.056.034-7.47,1.841,0-.034,7.47Z" transform="translate(-304.741 -249.79)" fill="#83966c"/><path d="M1760.755,474.871l-1.772-.056.034-7.47,1.841,0-.034,7.47Z" transform="translate(-293.688 -249.79)" fill="#7798ab"/><rect width="46.281" height="10.556" transform="translate(1540.537 220.387)" fill="#7d5b40"/><rect width="46.281" height="9.117" transform="translate(1540.537 211.54)" fill="#7d5b40"/><rect width="46.281" height="8.772" transform="translate(1540.537 204.619)" fill="#7d5b40"/><rect width="46.281" height="9.117" transform="translate(1540.537 195.772)" fill="#7d5b40"/><rect width="49.693" height="3.431" transform="translate(1538.831 192.34)" fill="#7d5b40"/><g transform="translate(1564.833 213.795)"><rect width="20.351" height="6.31" transform="translate(0 0)" fill="#664a32"/></g><g transform="translate(1542.55 206.226)"><rect width="20.351" height="6.31" transform="translate(0)" fill="#664a32"/></g><g transform="translate(1564.833 198.027)"><rect width="20.351" height="6.31" transform="translate(0)" fill="#664a32"/></g><g transform="translate(1564.833 221.805)"><rect width="20.351" height="6.31" transform="translate(0)" fill="#664a32"/></g><g transform="translate(1542.55 213.984)"><rect width="20.351" height="6.31" transform="translate(0 0)" fill="#664a32"/></g><g transform="translate(1542.55 198.216)"><rect width="20.351" height="6.31" transform="translate(0)" fill="#664a32"/></g><g transform="translate(1542.55 221.994)"><rect width="20.351" height="6.31" transform="translate(0)" fill="#664a32"/></g><g transform="translate(1542.361 197.649)"><rect width="20.351" height="6.31" transform="translate(22.472 8.389)" fill="#664a32"/><rect width="20.351" height="6.31" transform="translate(22.283 15.768)" fill="#926c4f"/><rect width="20.351" height="6.31" transform="translate(0 8.011)" fill="#926c4f"/><rect width="20.351" height="6.31" transform="translate(22.283 0)" fill="#926c4f"/><rect width="20.351" height="6.31" transform="translate(22.283 23.779)" fill="#926c4f"/><rect width="20.351" height="6.31" transform="translate(0 15.768)" fill="#926c4f"/><rect width="20.351" height="6.31" transform="translate(0 0)" fill="#926c4f"/><rect width="20.351" height="6.31" transform="translate(0 23.779)" fill="#926c4f"/><rect width="20.351" height="6.31" transform="translate(22.283 8.011)" fill="#926c4f"/></g><g transform="translate(1434.43 216.719)"><path d="M1595.7,462.935h2.287V471.3H1595.7v-8.363Z" transform="translate(-1595.701 -462.935)" fill="#768fb7"/><path d="M1595.7,464.9h2.287v.639H1595.7V464.9Z" transform="translate(-1595.701 -464.527)" fill="#d2d2d3"/></g><g transform="translate(1431.442 216.719)"><path d="M1579.895,462.935h2.287V471.3h-2.287v-8.363Z" transform="translate(-1579.895 -462.935)" fill="#527585"/><path d="M1579.895,464.9h2.287v.639h-2.287V464.9Z" transform="translate(-1579.895 -464.527)" fill="#d2d2d3"/></g><g transform="translate(1428.454 216.719)"><path d="M1564.087,462.935h2.287V471.3h-2.287v-8.363Z" transform="translate(-1564.087 -462.935)" fill="#768fb7"/><path d="M1564.087,464.9h2.287v.639h-2.287V464.9Z" transform="translate(-1564.087 -464.527)" fill="#d2d2d3"/></g><g transform="translate(1428.308 204.268)"><path d="M1563.316,407.78h4.977V397.067h-4.977Zm1.537-9.523h1.9a.455.455,0,1,1,0,.9h-1.9a.455.455,0,1,1,0-.9Z" transform="translate(-1563.316 -397.067)" fill="#887972"/><path d="M1594.5,397.067V407.78h4.977V397.067Zm3.44,2.086h-1.9a.455.455,0,1,1,0-.9h1.9a.455.455,0,1,1,0,.9Z" transform="translate(-1588.606 -397.067)" fill="#9a9ec2"/></g><g transform="translate(1467.719 184.115)"><path d="M1773.837,298.816h-2.03v-8.363h2.03v8.363Z" transform="translate(-1771.808 -290.453)" fill="#6b9a73"/><path d="M1773.837,329.574h-2.03v-.5h2.03v.5Z" transform="translate(-1771.808 -321.772)" fill="#e3c97c"/></g><g transform="translate(1470.313 184.115)"><path d="M1787.558,298.816h-2.029v-8.363h2.029v8.363Z" transform="translate(-1785.529 -290.453)" fill="#818964"/><path d="M1787.558,329.572h-2.029v-.5h2.029v.5Z" transform="translate(-1785.529 -321.77)" fill="#e3c97c"/></g><g transform="translate(1465.126 184.115)"><path d="M1758.089,290.453h2.029v8.363h-2.029v-8.363Z" transform="translate(-1758.089 -290.453)" fill="#c96855"/></g><g transform="translate(1462.532 184.115)"><path d="M1744.368,290.453h2.03v8.363h-2.03v-8.363Z" transform="translate(-1744.368 -290.453)" fill="#d1936f"/></g><g transform="translate(1459.988 174.293)"><path d="M1737.172,240.336a.416.416,0,0,1-.378.446h-.187a.416.416,0,0,1-.378-.446v-1.654c0-.246.942-.246.942,0Z" transform="translate(-1735.224 -238.497)" fill="#dbdcdc"/><path d="M1733.863,251.687a5.99,5.99,0,0,1-2.953,0v-5c0-.246.284-.615.53-.615h1.892c.246,0,.53.368.53.615Z" transform="translate(-1730.91 -244.639)" fill="#c1cde8"/><path d="M1734.357,252.613a5.385,5.385,0,0,1-2.654,0v-4.432c0-.222.255-.553.477-.553h1.7c.221,0,.477.331.477.553Z" transform="translate(-1731.553 -245.902)" fill="#96a4d2"/><path d="M1735.694,254.515a.486.486,0,0,1-.519.446h-.8a.486.486,0,0,1-.519-.446V252.5a.487.487,0,0,1,.519-.446h.8a.487.487,0,0,1,.519.446Z" transform="translate(-1733.297 -249.495)" fill="#cadee1"/></g><g transform="translate(1463.936 177.95)"><g transform="translate(0)"><path d="M1752.973,269.754c-.06,0-.837,0-.883,0a.167.167,0,0,1-.111-.1,6.45,6.45,0,0,1-.186-1.234.437.437,0,0,1,.086-.269l.037-.023a.325.325,0,0,0-.064.181c0,.079.06.71.1.983a.656.656,0,0,0,.024.122c.033.06.167.084.228.088a4.687,4.687,0,0,0,.8-.014c.093-.028.149-.065.158-.153a9.667,9.667,0,0,0,.083-1.2.236.236,0,0,1,.069.2,6.341,6.341,0,0,1-.06.7,3.466,3.466,0,0,1-.14.65A.2.2,0,0,1,1752.973,269.754Z" transform="translate(-1751.793 -266.181)" fill="#daeff7"/><path d="M1753.5,267.559l0,0-.208-.133a2.5,2.5,0,0,1-.931.011l-.052.033-.137.088a.325.325,0,0,0-.064.181c0,.079.06.71.1.983a.656.656,0,0,0,.024.122c.033.06.167.084.228.088a4.687,4.687,0,0,0,.8-.014c.093-.028.149-.065.158-.153A9.667,9.667,0,0,0,1753.5,267.559Z" transform="translate(-1752.045 -265.613)" fill="#c96855"/><path d="M1754.26,258.887v0a8.12,8.12,0,0,0-.088-1.025,3.065,3.065,0,0,0-.729.009s-.038.4-.068,1.155q-.011.275-.02.613c0,.008,0,.015,0,.023l.017,0a2.5,2.5,0,0,0,.931-.011l.009,0S1754.284,259.3,1754.26,258.887Z" transform="translate(-1753.06 -257.841)" fill="#595757"/></g></g><g transform="translate(1461.822 195.201)"><rect width="10.237" height="6.193" transform="translate(0.355 1.267)" fill="#9a9ec2"/><rect width="10.947" height="1.355" transform="translate(0)" fill="#848dba"/><path d="M1763.608,364.8h-3.622v-1.949h3.622Zm-3.208-.4h2.793v-1.155H1760.4Z" transform="translate(-1756.324 -360.255)" fill="#d4d9d3"/></g><path d="M2098.761,483.529l1.386-12.773h-10.81l1.386,12.773Z" transform="translate(-561.596 -252.559)" fill="#9a9ebf"/><g transform="translate(1542.974 186.535)"><path d="M2176.978,324.638h-4.435v-1.9l.668-.163h3.064l.7.163v1.9Z" transform="translate(-2172.047 -318.926)" fill="#c96855"/><path d="M2175.255,305.758a2.674,2.674,0,1,1-2.667-2.5,2.586,2.586,0,0,1,2.667,2.5Z" transform="translate(-2169.919 -303.26)" fill="#d1936f"/><path d="M2177.054,307.954a2.127,2.127,0,1,1-2.123-1.987,2.058,2.058,0,0,1,2.123,1.987Z" transform="translate(-2172.263 -305.455)" fill="#f1ede3"/><path d="M2179.238,307.73l1.464,2.512-.138.058-1.344-2.561.018-.009Z" transform="translate(-2177.462 -306.885)" fill="#42474e"/><path d="M2184.1,309.774l-.065,0-.037,1.905.151-.011-.049-1.892Z" transform="translate(-2181.336 -308.541)" fill="#42474e"/><path d="M2183.513,315.789a.257.257,0,1,1-.256-.239.248.248,0,0,1,.256.239Z" transform="translate(-2180.527 -313.227)" fill="#42474e"/><path d="M2184.087,306.3h-.164v-.332h.164v.332Z" transform="translate(-2181.276 -305.459)" fill="#42474e"/><path d="M2184.087,325.559h-.164v-.332h.164v.332Z" transform="translate(-2181.276 -321.075)" fill="#42474e"/><path d="M2173.159,316.272v.156h-.349v-.156Z" transform="translate(-2172.263 -313.812)" fill="#42474e"/><path d="M2193.761,316.272v.156h-.351v-.156Z" transform="translate(-2188.97 -313.812)" fill="#42474e"/></g><path d="M1766.733,246.316a4.32,4.32,0,0,0,3.175-4.3s.188,3.86,3.239,4.048a3.5,3.5,0,0,0-3.114,3.735S1769.473,246.562,1766.733,246.316Z" transform="translate(-315.983 -73.502)" fill="#ffd833"/><path d="M1407.043,306.135a2.6,2.6,0,0,0,1.908-2.583s.113,2.319,1.946,2.432a2.1,2.1,0,0,0-1.871,2.245S1408.689,306.283,1407.043,306.135Z" transform="translate(-8.275 -116.961)" fill="#a4d4ed"/><path d="M2269.705,217.173a1.329,1.329,0,0,0,.977-1.322s.058,1.187,1,1.245a1.076,1.076,0,0,0-.958,1.149S2270.546,217.248,2269.705,217.173Z" transform="translate(-707.869 -45.838)" fill="#a4d4ed"/><path d="M1396.839,336.023a1.047,1.047,0,0,0,.77-1.042s.045.935.785.981a.847.847,0,0,0-.755.9S1397.5,336.082,1396.839,336.023Z" transform="translate(0 -142.449)" fill="#a4d4ed"/><path d="M1849.191,360.676a1.784,1.784,0,0,0,1.311-1.775s.077,1.594,1.338,1.672a1.444,1.444,0,0,0-1.287,1.542S1850.321,360.777,1849.191,360.676Z" transform="translate(-366.844 -161.848)" fill="#fff"/><path d="M2177.19,265.752a3.7,3.7,0,0,0,2.722-3.683s.159,3.309,2.776,3.469a3,3,0,0,0-2.668,3.2S2179.538,265.964,2177.19,265.752Z" transform="translate(-634.828 -83.32)" fill="#ffd833"/><path d="M2127.024,162.541a3.23,3.23,0,0,0,2.375-3.213s.139,2.885,2.423,3.026a2.614,2.614,0,0,0-2.331,2.791S2129.071,162.724,2127.024,162.541Z" transform="translate(-597.889 7.776)" fill="#ffd833"/><path d="M2118.325,183.866a5.741,5.741,0,0,0,4.227-5.716s.247,5.136,4.311,5.384a4.651,4.651,0,0,0-4.145,4.971S2121.972,184.2,2118.325,183.866Z" transform="translate(-593.458 -7.627)" fill="#ffd833"/><g transform="translate(1418.078 241.384)" opacity="0.9"><path d="M1644.066,634.439c-.259.457-.618-.231-1.143-.231s-.525.321-1.05.321-.525-.3-1.05-.3-.525.3-1.05.3-.525-.288-1.05-.288-.525-.1-1.05-.1-.525.2-1.05.2-.525.172-1.05.172-.525.008-1.05.008-.525-.281-1.05-.281-.525.172-1.05.172-.526-.151-1.051-.151-.526.158-1.051.158-.525.066-1.051.066-.525.155-1.05.155-.525-.277-1.051-.277-.525.046-1.05.046-.525-.29-1.05-.29-.525.25-1.05.25h-1.05c-.525,0-.525-.124-1.05-.124s-.525-.126-1.05-.126-.525.044-1.05.044-.525.153-1.05.153-.525.168-1.05.168-.525-.355-1.05-.355-.526.264-1.051.264-.526-.22-1.051-.22-.526.061-1.051.061-.525.3-1.051.3-.525-.4-1.05-.4-.525.507-1.05.507-.525-.213-1.05-.213-.525-.128-1.05-.128-.525.125-1.05.125-.525.006-1.05.006-.525-.3-1.05-.3-.525.245-1.051.245-.526.195-1.051.195-.526-.154-1.051-.154-.526.14-1.051.14-.525.079-1.051.079-.525-.407-1.05-.407-.525-.059-1.05-.059-.525.353-1.05.353-.525.109-1.05.109-.525-.432-1.051-.432-.525.232-1.051.232-.526-.225-1.051-.225-.526.06-1.051.06-.525-.121-1.051-.121-.525.145-1.051.145-.525-.145-1.051-.145-.525.279-1.05.279-.525-.227-1.051-.227-.525.294-1.051.294-.526-.014-1.051-.014-.526-.324-1.051-.324-.526.137-1.051.137-.525.214-1.051.214-.525-.192-1.051-.192-.525-.127-1.051-.127-.525.3-1.051.3-.526-.172-1.051-.172-.526.3-1.051.3-.526-.388-1.051-.388-.526.155-1.051.155-.526.019-1.051.019-.526-.16-1.051-.16-.526.062-1.051.062-.526.077-1.051.077-.526-.176-1.051-.176-.525.165-1.051.165-.525.267-1.051.267-.525-.471-1.051-.471-.525.127-1.051.127-.526.222-1.051.222-.526.125-1.051.125-.526-.226-1.051-.226-.526.068-1.051.068-.526-.219-1.052-.219-.526.362-1.051.362-.526-.187-1.051-.187-.526-.183-1.051-.183-.526-.092-1.051-.092-.526.232-1.051.232-.526.017-1.051.017-.526-.3-1.051-.3-.526.194-1.051.194-.526.13-1.051.13-.526-.064-1.051-.064-.526.194-1.051.194-.525-.311-1.051-.311-.525.195-1.051.195-.526-.086-1.051-.086-.525.225-1.05.225-.525-.161-1.05-.161-.526-.076-1.051-.076-.526-.039-1.052-.039-.525.043-1.051.043-.525.234-1.051.234-.526-.444-1.051-.444-.526.143-1.052.143-.525.106-1.051.106-.526-.014-1.051-.014-.526.18-1.052.18-.526-.275-1.051-.275-.526.032-1.052.032-.526-.139-1.051-.139-.526.1-1.052.1-.526-.161-1.051-.161-.526.492-1.052.492-.526-.316-1.052-.316-.526.025-1.052.025-.526-.082-1.052-.082-.526.171-1.052.171-.526.115-1.052.115-.526.041-1.052.041-.526-.309-1.051-.309-.526.371-1.052.371-.526-.414-1.052-.414-.526-.07-1.052-.07-.526.181-1.052.181-.526.249-1.052.249-.526-.234-1.052-.234-.526.279-1.052.279-.527-.092-1.053-.092-1.011.432-1.272-.026.627-.484.9-.926,0-.611.279-1.053.579-.254.854-.7.285-.436.559-.879-.058-.649.217-1.091.553-.27.828-.712.208-.484.483-.926.428-.347.7-.789.3-.429.57-.871-.111-.682.164-1.124.391-.37.666-.812.26-.451.536-.894.413-.357.688-.8.078-.564.353-1.006.412-.357.687-.8.038-.59.313-1.032.642-.215.917-.657.043-.586.318-1.029.282-.438.557-.88.385-.374.66-.816.318-.416.593-.858.092-.556.367-1,.449-.334.724-.777.126-.535.4-.978.177-.5.451-.946.435-.343.71-.786.063-.574.338-1.017.7-.178.976-.62.245-.461.52-.9-.08-.663.2-1.106.69-.185.965-.627.093-.556.368-1,.145-.523.421-.966.3-.427.576-.869.469-.322.744-.764.3-.424.58-.867.026-.6.3-1.039.319-.415.594-.858.236-.467.511-.91.353-.395.628-.838.357-.392.633-.835.009-.608.284-1.051.653-.208.928-.65.182-.5.457-.944.18-.5.455-.946.176-.484.632-.736a1.345,1.345,0,0,1,.967-.3c.526,0,.526-.019,1.051-.019s.526,0,1.051,0,.525.157,1.051.157.525.236,1.05.236.525-.472,1.05-.472.525.105,1.051.105.525.146,1.051.146.526-.186,1.051-.186.525.107,1.051.107.526.1,1.051.1.525-.177,1.051-.177.525.01,1.051.01.525.046,1.051.046.525.113,1.051.113.526-.028,1.051-.028.526-.045,1.051-.045.526.087,1.051.087.526.1,1.051.1.525-.4,1.051-.4.526.225,1.051.225.526.251,1.051.251.526-.386,1.051-.386.526.418,1.051.418.525-.136,1.051-.136.526.1,1.051.1.526-.007,1.051-.007.526-.26,1.051-.26.526.04,1.051.04h1.051c.526,0,.526-.044,1.051-.044s.526-.029,1.051-.029.526-.142,1.051-.142.526.035,1.051.035.526.159,1.051.159.526.176,1.051.176.526.025,1.051.025.526.032,1.051.032.526-.366,1.051-.366.525.129,1.051.129.526-.115,1.051-.115.526.037,1.051.037.526.306,1.051.306.526-.015,1.052-.015.525-.257,1.05-.257.526-.061,1.051-.061.526.281,1.051.281.525-.343,1.05-.343.525.468,1.05.468.525-.356,1.051-.356.526.185,1.052.185.526-.122,1.051-.122.525-.091,1.051-.091.525.148,1.051.148.526.023,1.051.023.526-.126,1.051-.126.526.165,1.051.165.526-.074,1.052-.074.526.079,1.051.079.526.08,1.052.08.526-.019,1.051-.019.526-.121,1.051-.121.526.006,1.052.006.526-.011,1.052-.011.526-.26,1.051-.26.526.5,1.052.5.526-.067,1.052-.067.526-.434,1.052-.434.526.319,1.052.319.526-.32,1.052-.32.526.44,1.051.44.526-.3,1.052-.3.526.158,1.052.158.526.051,1.052.051.526-.162,1.052-.162.526-.129,1.052-.129.526.309,1.052.309.526-.082,1.053-.082.527.137,1.053.137.556-.371,1.016-.117.443.293.716.736,0,.61.274,1.052.53.284.8.726.255.453.528.9.283.436.556.877.2.486.475.928.2.485.477.927.362.387.635.829.423.349.7.791.117.538.39.98.06.573.333,1.015.444.337.717.78.459.327.732.77.294.429.567.871.039.586.312,1.028.474.318.747.761.222.474.5.916.113.541.386.983.234.467.506.909.22.475.493.917.3.429.569.871.207.483.48.925.653.208.926.65.087.557.36,1,.357.391.63.833-.052.643.221,1.086.53.284.8.726.2.489.471.932.349.4.622.838.225.473.5.915.312.419.585.861.173.5.446.947.306.423.579.866.263.449.536.891.329.408.6.85.236.466.509.908.137.526.41.969.547.274.82.716.207.484.48.926.157.515.43.957.252.456.525.9.568.261.84.7-.126.689.147,1.132.321.414.594.857.129.63.506.989C1643.7,634.116,1644.323,633.986,1644.066,634.439Z" transform="translate(-1509.195 -593.419)" fill="#d9b0b4"/></g><g transform="translate(1453.053 245.289)"><g transform="translate(7.619 2.075)"><path d="M1735.959,642.115a.8.8,0,0,1-.878.779h0c-.473-.057-.6-.488-.546-.977l1.011-16.11a1.071,1.071,0,0,1,1.174-.743h0c.473.057,1.019.538.959,1.026Z" transform="translate(-1734.522 -625.058)" fill="#986950"/><path d="M1974.054,642.115a.8.8,0,0,0,.878.779h0c.473-.057.6-.488.546-.977l-1.011-16.11a1.072,1.072,0,0,0-1.175-.743h0c-.473.057-1.019.538-.959,1.026Z" transform="translate(-1927.376 -625.058)" fill="#986950"/></g><path d="M1753.8,615.174a8.113,8.113,0,0,0-2.761-1.095h-45.442a5.657,5.657,0,0,0-3.546,1.045l-4.086,2.638c-.89.575-2.11,1.045-1.051,1.045H1758.8c.453,0-.459-.493-1.331-1.095Z" transform="translate(-1696.068 -614.079)" fill="#a37a5a"/><rect width="51.891" height="4.185" transform="translate(5.831 5.691)" fill="#715239"/><g transform="translate(3.307 6.1)"><path d="M1713.408,666.462a.943.943,0,0,1-1.035.919h0c-.558-.067-.713-.576-.644-1.152l1.192-19a1.264,1.264,0,0,1,1.385-.876h0c.558.068,1.2.634,1.131,1.21Z" transform="translate(-1711.713 -646.349)" fill="#715239"/><path d="M1994.174,666.462a.943.943,0,0,0,1.035.919h0c.558-.067.713-.576.644-1.152l-1.192-19a1.263,1.263,0,0,0-1.385-.876h0c-.558.068-1.2.634-1.131,1.21Z" transform="translate(-1939.13 -646.349)" fill="#715239"/></g><path d="M1757.537,639.91a.718.718,0,0,1-.766.657h-61.787a.717.717,0,0,1-.765-.657v-.773a.718.718,0,0,1,.765-.657h61.787a.719.719,0,0,1,.766.657Z" transform="translate(-1694.219 -633.867)" fill="#7d5b40"/></g><path d="M2049.857,631.209a2.46,2.46,0,0,0,1.808-2.451s.107,2.2,1.848,2.31a1.991,1.991,0,0,0-1.773,2.13S2051.417,631.352,2049.857,631.209Z" transform="translate(-610.45 -394.122)" fill="#ffd833"/><path d="M2044.456,657.115a5.117,5.117,0,0,0,3.766-5.1s.219,4.579,3.84,4.8a4.145,4.145,0,0,0-3.692,4.432S2047.7,657.409,2044.456,657.115Z" transform="translate(-606.678 -410.359)" fill="#ffd833"/><circle cx="0.985" cy="0.985" r="0.985" transform="translate(1551.551 207.829)" fill="#d9c580"/><path d="M2217.265,457.932a.985.985,0,1,1-.985-.985A.985.985,0,0,1,2217.265,457.932Z" transform="translate(-663.744 -241.36)" fill="#d9c580"/><path d="M2217.265,374.515a.985.985,0,1,1-.985-.985A.985.985,0,0,1,2217.265,374.515Z" transform="translate(-663.744 -173.711)" fill="#d9c580"/><circle cx="0.985" cy="0.985" r="0.985" transform="translate(1551.551 223.597)" fill="#d9c580"/><path d="M2335.146,457.932a.985.985,0,1,1-.985-.985A.985.985,0,0,1,2335.146,457.932Z" transform="translate(-759.342 -241.36)" fill="#d9c580"/><path d="M2335.146,374.515a.985.985,0,1,1-.985-.985A.985.985,0,0,1,2335.146,374.515Z" transform="translate(-759.342 -173.711)" fill="#d9c580"/><path d="M2335.146,500.309a.985.985,0,1,1-.985-.985A.985.985,0,0,1,2335.146,500.309Z" transform="translate(-759.342 -275.727)" fill="#d9c580"/><path d="M2335.146,416.892a.985.985,0,1,1-.985-.985A.985.985,0,0,1,2335.146,416.892Z" transform="translate(-759.342 -208.078)" fill="#d9c580"/><g transform="translate(1519.26 234.636)"><g transform="translate(19.686 1.342)"><path d="M1534.759,358.072c-2.546-.122-2.416,3.7,4.219,4.153C1539.944,359.274,1535.887,355.694,1534.759,358.072Z" transform="translate(-1533.225 -357.297)" fill="#b1c075"/></g><g transform="translate(0.314 0.54)"><path d="M1433.434,353.352c1.62-.9,2.1,1.575-2.059,4.54C1429.6,356.4,1431.983,351.856,1433.434,353.352Z" transform="translate(-1430.744 -353.054)" fill="#519c46"/></g><path d="M1448.652,376.462a3.98,3.98,0,0,1,1.943-1.739h0a8.146,8.146,0,0,1,2.483-.825h0l.03.259a7.916,7.916,0,0,0-2.395.8h0a3.763,3.763,0,0,0-1.82,1.6h0l-.243-.1Z" transform="translate(-1444.953 -369.417)" fill="#b7b187"/><path d="M1443.909,358.018a3.985,3.985,0,0,1,2.573.428h0a8.165,8.165,0,0,1,2.2,1.42h0l-.183.187a7.91,7.91,0,0,0-2.121-1.369h0a3.758,3.758,0,0,0-2.389-.417h0l-.078-.25Z" transform="translate(-1441.107 -356.473)" fill="#b7b187"/><path d="M1526.109,367.24a3.984,3.984,0,0,1,1.505-2.131h0a8.142,8.142,0,0,1,2.236-1.36h0l.087.246a7.9,7.9,0,0,0-2.156,1.315h0a3.755,3.755,0,0,0-1.414,1.969h0l-.259-.039Z" transform="translate(-1507.768 -361.188)" fill="#b7b187"/><g transform="translate(0 5.892)"><path d="M1431.493,381.776c2-1.577,4.116,1.614-1.028,5.83C1427.965,385.761,1429.194,380.493,1431.493,381.776Z" transform="translate(-1429.084 -381.366)" fill="#b1c075"/></g><g transform="translate(20.449 4.568)"><path d="M1538.516,375.579c-2.315.166-1.758,4.039,4.488,4.531C1544.416,376.482,1539.541,372.225,1538.516,375.579Z" transform="translate(-1537.261 -374.361)" fill="#519c46"/></g><g transform="translate(11.301 3.154)"><path d="M1493.72,368.069c2.544-.075,2.362,4.215-4.4,5.44C1487.377,369.7,1492.231,364.52,1493.72,368.069Z" transform="translate(-1488.867 -366.882)" fill="#519c46"/></g><g transform="translate(6.606 6.367)"><path d="M1467.35,384.513c2.141-.834,3.287,2.869-2.091,5.959C1462.454,387.824,1465.01,381.947,1467.35,384.513Z" transform="translate(-1464.03 -383.879)" fill="#b1c075"/></g><path d="M1487.987,396.555a7.6,7.6,0,0,1-.969-3.812h0c-.072-1.438-.036-3.957-.038-5.046h0c0-.06,0-.127-.006-.2h0c-.053-1.063-.485-3.349-.927-5.742h0a60.006,60.006,0,0,1-.971-6.524h0a5.274,5.274,0,0,1,.047-1.221h0l.512.1a4.739,4.739,0,0,0-.036,1.092h0a59.545,59.545,0,0,0,.962,6.455h0c.441,2.4.876,4.666.935,5.81h0c0,.08.006.156.006.226h0c0,1.115-.034,3.62.036,5.021h0a7.824,7.824,0,0,0,1.217,3.712Z" transform="translate(-1474.483 -369.509)" fill="#b7b187"/><path d="M1496.344,397.755c.64-.049,1.254-.751,1.715-1.646h0a12.028,12.028,0,0,0,.934-2.553h0c.129-.528.225-1.458.42-2.335h0a3.23,3.23,0,0,1,1.1-2.1h0l.2.337a2.928,2.928,0,0,0-.917,1.852h0c-.19.849-.284,1.765-.422,2.341h0a12.345,12.345,0,0,1-.967,2.643h0c-.487.924-1.13,1.758-2.026,1.855h0l-.037-.39Z" transform="translate(-1483.63 -381.761)" fill="#b7b187"/><g transform="translate(14.007 4.415)"><path d="M1505.594,374.849c-3.089-.444-4.381,4.959,3.466,7.426C1512.78,377.77,1508.669,370.605,1505.594,374.849Z" transform="translate(-1503.184 -373.554)" fill="#6b9a73"/><path d="M1517.338,381.725Z" transform="translate(-1514.662 -380.181)" fill="#5ea488"/><path d="M1508.987,387.8Z" transform="translate(-1507.89 -385.11)" fill="#5ea488"/><path d="M1507.733,398.729Z" transform="translate(-1506.873 -393.97)" fill="#5ea488"/></g><g transform="translate(4.416 0)"><path d="M1457.723,351.519c3.265-.2,3.7,5.467-4.653,6.649C1450.734,353.579,1455.58,347.473,1457.723,351.519Z" transform="translate(-1452.448 -350.196)" fill="#6b9a73"/></g></g><path d="M1487.509,499.884l.619-12.479h-9.091l.619,12.479Z" transform="translate(49.664 -226.833)" fill="#ae8464"/></g></g></g></svg>