<svg xmlns="http://www.w3.org/2000/svg" xmlns:xlink="http://www.w3.org/1999/xlink" width="140" height="140" viewBox="0 0 140 140">
  <defs>
    <clipPath id="clip-path">
      <circle id="楕円形_474" data-name="楕円形 474" cx="70" cy="70" r="70" transform="translate(805.013 554.692)" fill="#f7f3e5"/>
    </clipPath>
  </defs>
  <g id="merit_obj11" transform="translate(0 -0.477)">
    <circle id="楕円形_23" data-name="楕円形 23" cx="70" cy="70" r="70" transform="translate(0 0.477)" fill="#f7f3e5"/>
    <g id="マスクグループ_78" data-name="マスクグループ 78" transform="translate(-805.013 -554.216)" clip-path="url(#clip-path)">
      <g id="グループ_15482" data-name="グループ 15482" transform="translate(588.396 345.32)">
        <rect id="長方形_30217" data-name="長方形 30217" width="4.883" height="35.504" transform="translate(305.953 351.201)" fill="#422a23"/>
        <path id="パス_88898" data-name="パス 88898" d="M775.1,948.811h-4.512c.188-2.477,2.384-42.236,7.727-40.14C782.151,910.176,775.732,944.524,775.1,948.811Z" transform="translate(-477.695 -562.166)" fill="#fa7c75"/>
        <path id="パス_88899" data-name="パス 88899" d="M813.1,948.811h-4.512c.188-2.477,2.384-42.236,7.727-40.14C820.151,910.176,813.732,944.524,813.1,948.811Z" transform="translate(-509.599 -562.166)" fill="#fa7c75"/>
        <path id="パス_88900" data-name="パス 88900" d="M845.764,637.037a3.524,3.524,0,0,1-2.707,1.576c-.6.034-1.949-.048-2.331-.7-.874-1.5-1.275-5.794-1.275-5.794l5.147-2.7,4.019,1.326-.188.381C847.772,632.453,845.771,637.026,845.764,637.037Z" transform="translate(-535.512 -327.774)" fill="#edbf98"/>
        <path id="パス_88901" data-name="パス 88901" d="M1090.543,697.338l-5.121,31.256-3.9-.2,4.439-30.8Z" transform="translate(-738.755 -384.801)" fill="#422a23"/>
        <path id="パス_88902" data-name="パス 88902" d="M1034.146,886.535l-16.02,10.211-1.335-10.262,16.984-8.012Z" transform="translate(-684.406 -536.879)" fill="#422a23"/>
        <path id="パス_88903" data-name="パス 88903" d="M829.286,945.91l-37.735-1.219,0-7.567,37.422.772Z" transform="translate(-495.293 -586.122)" fill="#422a23"/>
        <rect id="長方形_30218" data-name="長方形 30218" width="4.884" height="44.919" transform="translate(343.666 341.799)" fill="#422a23"/>
        <rect id="長方形_30219" data-name="長方形 30219" width="4.883" height="44.919" transform="translate(328.268 341.799)" fill="#422a23"/>
        <path id="パス_88904" data-name="パス 88904" d="M957.168,570.43c-.081.053-.184-.042-.629-.026-1.868.065-3.927-.229-5.8,0-.936.114-1.995-1.947-2.894-1.6-1.328.507-2.465,1.41-3.829,1.878-3.478,1.194-7.669.711-11.133-.249-1.489-.413-2.352-1.479-3.721-2.1-1.069-.487-2.748-.12-3.814-.022-1.843.169-2.271.282-2.784-1.676-.678-2.586-.233-5.554.013-8.165.31-3.283.252-6.726,1.641-9.79,1.16-2.559,3.569-3.188,6.1-4.006a32.689,32.689,0,0,1,13.3-1.294,47.572,47.572,0,0,1,7.123,1.143c2.285.561,5.855.392,7.124,2.423,3.285,5.255.422,21.561-.277,22.777A4.389,4.389,0,0,1,957.168,570.43Z" transform="translate(-604.987 -255.389)" fill="#eed6b6"/>
        <path id="パス_88905" data-name="パス 88905" d="M803.487,878.05c-.089-.521.244-8.44,3.209-9.587s15.165-3.873,15.794-4.081,31-1,31.8.771a11.33,11.33,0,0,1,.859,3.866L838.581,879.7Z" transform="translate(-505.307 -524.748)" fill="#d2c5bf"/>
        <g id="グループ_15475" data-name="グループ 15475" transform="translate(289.104 239.02)">
          <path id="パス_88906" data-name="パス 88906" d="M985.523,327.042a2.864,2.864,0,0,1,.691.554,2.365,2.365,0,0,1,.3,2.409,2.471,2.471,0,0,1,2.3,2.208,2.268,2.268,0,0,1-1.026,2.625c.851.179.993,1.286.908,1.822-.123.777-.737,1.1-1.456,1.5.538.275.544,1.078.5,1.5a2.847,2.847,0,0,1-1.135,1.791c-1.319,1.094-2.972.862-4.779.868a7.229,7.229,0,0,1-2.241-.16,9.223,9.223,0,0,1-2.826-1.279c-1.209-.847-1.957-1.588-1.948-2.853a12.756,12.756,0,0,1,.412-2.369,16.417,16.417,0,0,1,1.888-5.786,7.664,7.664,0,0,1,3.172-3.161A6.935,6.935,0,0,1,985.523,327.042Z" transform="translate(-938.267 -312.341)" fill="#2f2a37"/>
          <path id="パス_88907" data-name="パス 88907" d="M777.465,811.929l-.092.053a4.44,4.44,0,0,0-1.928,2.6c-.506,1.316-6.358,17.541-6.691,17.741a4.376,4.376,0,0,1-2.41.2c-1.072-.091-2.156.033-3.238-.064-2.591-.232-5.034-.7-7.666-.729a30.333,30.333,0,0,1-5.254-.362c-1.059-.2-2.1-.463-3.169-.632-.2-.8.285-1.5.4-2.259.1-.655.053-1.27.208-1.945.375-1.63.857-3.238,1.174-4.879,1-5.214,1.687-10.708,3.65-15.718,2.663-6.8,8.439-10.472,15.138-14.112,6.738-3.661,16.032-.374,23.244.622,2.692.372,7.1.254,8.508,2.919,1.576,2.981-2.043,5.938-4.135,7.764-2.5,2.179-5.715,3.492-8.791,4.815C784.905,808.587,778.833,811.142,777.465,811.929Z" transform="translate(-746.97 -701.729)" fill="#293445"/>
          <path id="パス_88908" data-name="パス 88908" d="M950.635,492.022a8.639,8.639,0,0,0,4.376-3.626c.939-1.538,2.047-3.386,1.487-5.234a3.408,3.408,0,0,0-2.756-2.4,17.2,17.2,0,0,0-4.869-.606c-2.628.156-5.373,1.386-5.941,4.18-.468,2.3.611,3.806,2.1,5.561,1.337,1.571,2.79,2.737,5.036,2.277A5.3,5.3,0,0,0,950.635,492.022Z" transform="translate(-911.406 -441.459)" fill="#aee1ed"/>
          <path id="パス_88909" data-name="パス 88909" d="M941.011,251.163c-.772,5.68-6.312,10.98-6.312,10.98l-11.486.182c-.293.007-1.094-1.091-1.267-1.284a7.839,7.839,0,0,1-1.893-2.753c-.74-2.457-1.811-4.579-1.8-7.23a12.608,12.608,0,0,1,.961-5.555c.364-.753,1.083-2.762,2.19-2.559-.309-.057.69-1.59.8-1.7a7.08,7.08,0,0,1,1.674-1c4.977-2.514,11.082-1,14.8,2.969A9.488,9.488,0,0,1,941.011,251.163Z" transform="translate(-890.775 -239.02)" fill="#2f2a37"/>
          <path id="パス_88910" data-name="パス 88910" d="M943.826,293.444a9.636,9.636,0,0,1-19.246.878c-.1-2.168.011-6.632,1.206-8.277,1.66-2.286,4.994-2.413,8.085-2.553C939.186,283.245,943.591,288.265,943.826,293.444Z" transform="translate(-896.067 -276.351)" fill="#edbf98"/>
          <path id="パス_88911" data-name="パス 88911" d="M1041.92,332.141a3.051,3.051,0,1,1-3.189-2.912A3.052,3.052,0,0,1,1041.92,332.141Z" transform="translate(-989.487 -314.757)" fill="#edbf98"/>
          <path id="パス_88912" data-name="パス 88912" d="M935.983,260.918a7.907,7.907,0,0,0,3.408,2.269c.306.111,4.3,1.224,4.545.528a3.764,3.764,0,0,1-1.334-1.61,8.147,8.147,0,0,0,3.149,1.612,13.123,13.123,0,0,1,3.845,1.81,8.771,8.771,0,0,0,1.13.95,3.075,3.075,0,0,0-.223-.737,5.888,5.888,0,0,1,1.623,3.4c.409-.926.726-1.845,1.153-2.758a4.957,4.957,0,0,0,.534-2.536,11.935,11.935,0,0,0-1.372-4.648,6.554,6.554,0,0,0-.951-1.682,18.115,18.115,0,0,0-1.507-1.3,9.306,9.306,0,0,0-3.546-1.96c-1.064-.321-2.184-.086-3.232-.38a10.177,10.177,0,0,0-3.114-.289,13.7,13.7,0,0,0-3.9,1.021,3.431,3.431,0,0,0-1.88,2.654c-.35,1.547.658,2.36,1.51,3.457C935.876,260.789,935.93,260.854,935.983,260.918Z" transform="translate(-904.203 -251.247)" fill="#2f2a37"/>
          <path id="パス_88913" data-name="パス 88913" d="M947.533,329.108a.966.966,0,0,1-.437,1.237.849.849,0,0,1-1.152-.473.965.965,0,0,1,.442-1.237A.848.848,0,0,1,947.533,329.108Z" transform="translate(-913.964 -314.193)"/>
          <path id="パス_88914" data-name="パス 88914" d="M990.816,328.107a.966.966,0,0,1-.438,1.237.851.851,0,0,1-1.153-.473.968.968,0,0,1,.443-1.237A.849.849,0,0,1,990.816,328.107Z" transform="translate(-950.304 -313.352)"/>
          <path id="パス_88915" data-name="パス 88915" d="M960.255,405.978,965.812,404a8.439,8.439,0,0,1-1.74-1.526c-1.395-1.391-1.793-10.943-1.793-10.943l-1.771-.051v0l-1.771-.052s-.952,9.513-2.425,10.82l-1.474,1.308,5.081,2.417v.016l.169,0,.168.012Z" transform="translate(-921.494 -366.976)" fill="#edbf98"/>
          <path id="パス_88920" data-name="パス 88920" d="M983.993,405.5l-2.279.053A.276.276,0,1,1,981.7,405l2.279-.053a.276.276,0,1,1,.013.552Z" transform="translate(-943.822 -378.332)" fill="#c48e61"/>
          <path id="パス_88921" data-name="パス 88921" d="M874.137,478.984s-4.324.753-6.706,7.24c-2.047,5.572-5.271,18.264-5.271,18.264l5.477,1.907,3.231-9.318Z" transform="translate(-843.683 -440.492)" fill="#aee1ed"/>
          <path id="パス_88922" data-name="パス 88922" d="M1040.57,484.1s2.437.565,5.779,6.615S1052.7,514.9,1052.7,514.9l-7.924,1.222Z" transform="translate(-993.474 -444.788)" fill="#aee1ed"/>
          <path id="パス_88923" data-name="パス 88923" d="M1049.592,530.576a.223.223,0,0,1-.216-.209l-.529-8.591a.223.223,0,1,1,.445-.027l.529,8.591a.223.223,0,0,1-.209.236Z" transform="translate(-1000.423 -476.221)" fill="#6fbfda"/>
          <path id="パス_88924" data-name="パス 88924" d="M906.494,525.057a.223.223,0,0,1-.214-.188l-.724-4.651a.224.224,0,0,1,.012-.113L909,511.064a.223.223,0,1,1,.417.158l-3.414,8.984.714,4.593a.222.222,0,0,1-.186.254A.213.213,0,0,1,906.494,525.057Z" transform="translate(-880.116 -467.305)" fill="#6fbfda"/>
          <g id="グループ_15474" data-name="グループ 15474" transform="translate(33.893 21.351)">
            <path id="パス_88925" data-name="パス 88925" d="M961.715,375.3q-.172.01-.339,0a3.224,3.224,0,0,1-3.106-2.851.268.268,0,0,1,.217-.31c.148-.026,6.3-.027,6.44.011a.267.267,0,0,1,.19.327A3.716,3.716,0,0,1,961.715,375.3Z" transform="translate(-958.265 -372.127)" fill="#d21337"/>
          </g>
        </g>
        <path id="パス_88926" data-name="パス 88926" d="M973.69,267.7a.245.245,0,0,1-.217-.132c-.031-.061-.063-.121-.093-.182a.244.244,0,1,1,.437-.219l.09.176a.244.244,0,0,1-.217.357Zm-.63-1.366a.245.245,0,0,1-.225-.149l-.106-.252c-.07-.166-.14-.332-.211-.5a.244.244,0,0,1,.449-.194c.072.166.142.333.213.5l.106.251a.245.245,0,0,1-.225.34Zm-.881-1.925a.244.244,0,0,1-.215-.127c-.129-.236-.26-.451-.4-.66l-.011-.017a.244.244,0,0,1,.405-.274l.012.017c.148.222.286.45.422.7a.245.245,0,0,1-.214.362Zm-1.169-1.764a.244.244,0,0,1-.2-.1c-.17-.229-.331-.437-.492-.634a.244.244,0,0,1,.379-.309c.166.2.332.417.506.653a.245.245,0,0,1-.2.39Zm-1.371-1.612a.244.244,0,0,1-.173-.072c-.188-.188-.384-.371-.583-.544a.245.245,0,0,1,.322-.369c.207.181.412.372.607.567a.244.244,0,0,1-.173.417Zm-1.621-1.36a.245.245,0,0,1-.141-.045c-.218-.155-.443-.3-.666-.443a.244.244,0,0,1,.258-.415c.232.144.465.3.691.459a.245.245,0,0,1-.141.444Zm-1.819-1.082a.244.244,0,0,1-.107-.025c-.241-.117-.486-.227-.729-.326a.245.245,0,0,1,.185-.453c.253.1.508.218.758.34a.244.244,0,0,1-.107.464Zm-1.966-.786a.242.242,0,0,1-.088-.017l-.047-.018c-.228-.088-.464-.179-.708-.262a.244.244,0,1,1,.158-.463c.253.087.493.179.726.269l.047.018a.245.245,0,0,1-.088.473Zm-2.828-.438a.245.245,0,0,1-.106-.465,1.88,1.88,0,0,1,.914-.156.244.244,0,0,1-.026.488,1.411,1.411,0,0,0-.676.108A.242.242,0,0,1,961.4,257.364Z" transform="translate(-637.698 -14.877)" fill="#47496b"/>
        <path id="パス_88927" data-name="パス 88927" d="M1041.376,291.069a.244.244,0,0,1-.243-.221c-.027-.285-.059-.546-.1-.8a.244.244,0,1,1,.484-.071c.038.259.07.528.1.821a.245.245,0,0,1-.22.267Zm-.355-2.086a.245.245,0,0,1-.236-.181c-.071-.263-.152-.516-.242-.752a.244.244,0,1,1,.457-.174c.1.251.182.52.258.8a.245.245,0,0,1-.172.3A.242.242,0,0,1,1041.021,288.982Zm-.826-1.942a.244.244,0,0,1-.206-.113,2.282,2.282,0,0,0-.207-.266,1.906,1.906,0,0,1-.291-.409.244.244,0,0,1,.438-.217,1.49,1.49,0,0,0,.223.307,2.718,2.718,0,0,1,.249.323.245.245,0,0,1-.206.376Z" transform="translate(-703.443 -39.359)" fill="#47496b"/>
        <path id="パス_88928" data-name="パス 88928" d="M971.416,277.347a.245.245,0,0,1-.094-.019,2.984,2.984,0,0,1-.748-.475.245.245,0,1,1,.314-.375,2.5,2.5,0,0,0,.622.4.244.244,0,0,1-.094.47Zm-1.569-1.393a.244.244,0,0,1-.2-.1,6.815,6.815,0,0,1-.461-.709.244.244,0,1,1,.426-.24,6.3,6.3,0,0,0,.428.658.244.244,0,0,1-.051.342A.242.242,0,0,1,969.847,275.953Zm-.923-1.892a.244.244,0,0,1-.239-.2,2.167,2.167,0,0,1-.044-.416,1.287,1.287,0,0,1,.1-.533.244.244,0,1,1,.445.2.807.807,0,0,0-.06.331,1.691,1.691,0,0,0,.034.322.244.244,0,0,1-.193.287A.253.253,0,0,1,968.924,274.061Z" transform="translate(-643.979 -28.337)" fill="#47496b"/>
        <path id="パス_88929" data-name="パス 88929" d="M909.5,494.613s.708-5.681,1.348-9.506l3.717-9.066c-2.658-4.811-4.741-6.152-5.484-6.5l-3.565-2.827-5.962,12.5-4.667-12.592-1.442.781c-.82.445-1.638.892-2.46,1.332a10.092,10.092,0,0,0-3.153,2.667,21.158,21.158,0,0,0-1.88,2.622c-.043.074-.32.427-.3.518l3.294,19.523s-.607,6.146-1.673,8.579c-.844,1.927-3.905,4.542-3.644,6.805s4.212,1.912,6.325,2.624c5.379,1.811,10.772,3.653,16.589,3.1a11.737,11.737,0,0,0,2.765-.576c5.019-1.766,2.675-6.28,2.091-10.325C910.905,500.857,909.5,494.613,909.5,494.613Z" transform="translate(-572.59 -191.093)" fill="#303c7b"/>
        <path id="パス_88930" data-name="パス 88930" d="M966.795,341a.212.212,0,0,1-.154-.066c-.076-.081-.161-.157-.245-.231a1.294,1.294,0,0,1-.577-1.028,8.494,8.494,0,0,1,.559-1.8c.134-.359.26-.7.3-.847a.212.212,0,1,1,.41.1c-.043.172-.167.5-.311.891a9.963,9.963,0,0,0-.533,1.666c-.008.29.152.447.436.7.089.08.182.162.271.256a.212.212,0,0,1-.154.357Z" transform="translate(-641.61 -82.149)"/>
        <path id="パス_88931" data-name="パス 88931" d="M223.263,837.55l-2.552,50.539h-4.193l-2.309-51.831Z" transform="translate(-10.564 -501.437)" fill="#422a23"/>
        <path id="パス_88932" data-name="パス 88932" d="M527.747,837.55,525.2,887.987H521l-2.309-51.729Z" transform="translate(-266.207 -501.437)" fill="#422a23"/>
        <path id="パス_88933" data-name="パス 88933" d="M947.765,843.549l-1.252,49.635H942.32l-3.609-50.927Z" transform="translate(-618.85 -506.473)" fill="#422a23"/>
        <path id="パス_88934" data-name="パス 88934" d="M1179.688,779.074l-2.525,60.045h-3.332l-1.339-61.256Z" transform="translate(-815.132 -452.408)" fill="#422a23"/>
        <path id="パス_88935" data-name="パス 88935" d="M437.225,779.074l-2.523,60h-3.332l-1.34-61.207Z" transform="translate(-191.766 -452.408)" fill="#422a23"/>
        <path id="パス_88936" data-name="パス 88936" d="M327.942,709.354l-125.857-7.346,55.364-18.245,109.621,5.661Z" transform="translate(-0.385 -373.403)" fill="#eed6b6"/>
        <path id="パス_88937" data-name="パス 88937" d="M327.322,811.695l-125.695-7.227v-7.62l125.695,7.227Z" transform="translate(0 -468.348)" fill="#d8c2a4"/>
        <path id="パス_88938" data-name="パス 88938" d="M1024.078,726.784,984.6,746.407v-7.621l39.475-19.622Z" transform="translate(-657.381 -403.125)" fill="#d8c2a4"/>
        <path id="パス_88939" data-name="パス 88939" d="M327.7,837.872l-125.695-7.227v-7.62L327.7,830.252Z" transform="translate(-0.32 -490.326)" fill="#422a23"/>
        <path id="パス_88940" data-name="パス 88940" d="M1024.429,747.339l-39.408,20.64v-7.621l39.408-20.639Z" transform="translate(-657.732 -420.382)" fill="#422a23"/>
        <path id="パス_88941" data-name="パス 88941" d="M837.828,714.3l17.094,1.17-8.4,10.918-20.856-2.435Z" transform="translate(-523.937 -399.04)" fill="#e5e5e5"/>
        <path id="パス_88942" data-name="パス 88942" d="M864.391,728.453l17.095,1.17-8.4,10.917L852.228,738.1Z" transform="translate(-546.239 -410.924)" fill="#fff"/>
        <path id="パス_88943" data-name="パス 88943" d="M539.56,723.3l17.095,1.17-8.4,10.918L527.4,732.95Z" transform="translate(-273.514 -406.596)" fill="#e5e5e5"/>
        <path id="パス_88944" data-name="パス 88944" d="M578.634,743.468l17.095,1.17-15.639,9.624-16.361-2.406Z" transform="translate(-304.018 -423.531)" fill="#fff"/>
        <path id="パス_88945" data-name="パス 88945" d="M530.943,964.093h-5.588c.335-1.787.673-3.5.993-4.937.924-4.179,4.193-25.111,5.065-26.812,1.733-3.369,3.3-8.651,5.8-3.33C539.405,933.677,532.638,958.085,530.943,964.093Z" transform="translate(-271.799 -577.413)" fill="#fa7c75"/>
        <path id="パス_88946" data-name="パス 88946" d="M576.24,964.093h-5.588c.335-1.787.673-3.5.993-4.937.924-4.179,4.193-25.111,5.065-26.812,1.733-3.369,3.3-8.651,5.8-3.33C584.7,933.677,577.935,958.085,576.24,964.093Z" transform="translate(-309.831 -577.413)" fill="#fa7c75"/>
        <path id="パス_88947" data-name="パス 88947" d="M385.446,988.812c-.092-.527,0-5.061,3.067-6.221s18.122-6.328,18.774-6.539,30.577-1.266,31.413.527a7.941,7.941,0,0,1,.651,3.692l-17.844,11.177Z" transform="translate(-154.316 -618.387)" fill="#d2c5bf"/>
        <path id="パス_88948" data-name="パス 88948" d="M412.14,884.814c-1.885.236-3.376,1.508-3.7-.6a21.047,21.047,0,0,1-.462-4.668c.055-.517-10.777.35-12.227.562-5.2.761-10.665.2-15.921.7-.468.044,1.419,8.585,1.634,9.457.484,1.958-.529,3.8-.356,5.735a12.01,12.01,0,0,0,1.5,4.694c2.565,4.233,9.021,4.668,13.583,5.148,6.252.658,12.6.432,18.494-1.824,6.386-2.444,22.873-4.3,19.856-15.53C433,882.738,421.924,883.591,412.14,884.814Z" transform="translate(-149.555 -537.648)"/>
        <path id="パス_88949" data-name="パス 88949" d="M627.933,1012.717l-15.555,7.99-1.026-5.894,16.968-7.913Z" transform="translate(-344.002 -644.706)" fill="#422a23"/>
        <path id="パス_88950" data-name="パス 88950" d="M348.117,852.4l5.019,35.247,4-.209-4.284-33.166Z" transform="translate(-122.992 -514.992)" fill="#422a23"/>
        <path id="パス_88951" data-name="パス 88951" d="M415.8,1058.481l-38.72-1.051,0-5.505,38.721.78Z" transform="translate(-147.309 -682.509)" fill="#422a23"/>
        <rect id="長方形_30220" data-name="長方形 30220" width="4.532" height="14.394" transform="translate(229.705 372.254)" fill="#422a23"/>
        <path id="パス_88952" data-name="パス 88952" d="M587.766,1069.62l.022,14.426h-4.532l-.022-14.426Z" transform="translate(-320.395 -697.365)" fill="#422a23"/>
        <rect id="長方形_30221" data-name="長方形 30221" width="4.532" height="20.498" transform="translate(279.55 366.15)" fill="#422a23"/>
        <path id="パス_88953" data-name="パス 88953" d="M565.825,864.182l2.878,33.57,4.8-.027-2.98-31.566Z" transform="translate(-305.778 -524.881)" fill="#422a23"/>
        <g id="グループ_15477" data-name="グループ 15477" transform="translate(218.419 255.662)">
          <path id="パス_88954" data-name="パス 88954" d="M373.564,355.776a15.1,15.1,0,0,0,.081,2.1,12.82,12.82,0,0,0,14.22,11.188,14.864,14.864,0,0,0,4.738-1.423c2.68-1.292,4.2-3.742,5.773-6.124,2.581-3.9,3.607-10.486.142-13.946-3.946-3.939-10.539-6-16.112-4.066a15.174,15.174,0,0,0-5.092,2.832C374.671,348.539,373.662,352.414,373.564,355.776Z" transform="translate(-362.77 -342.766)" fill="#422e2f"/>
          <path id="パス_88955" data-name="パス 88955" d="M462.339,392.851a48.1,48.1,0,0,1,.105,7.7c-.012.092-.024.182-.037.27-.031.215-.064.423-.1.629-.062.391-.139.778-.227,1.148a19.8,19.8,0,0,1-1.107,3.329c-.192.251-5.107-.321-6.8-.936-.078-.031-.154-.057-.232-.088-2.226-.89-4.416-1.344-5.78-3.2-1.538-2.093-.82-4.821.289-7.111a26.454,26.454,0,0,1,3.918-6.1c1.383-1.456,5.419-4.737,7.542-4.055C462.671,385.331,462.339,392.851,462.339,392.851Z" transform="translate(-424.666 -377.68)" fill="#edbf98"/>
          <g id="グループ_15476" data-name="グループ 15476" transform="translate(33.797 22.044)">
            <path id="パス_88956" data-name="パス 88956" d="M519.64,482.507a2.749,2.749,0,0,1-2.617-1.931.286.286,0,0,1,.538-.2,2.192,2.192,0,0,0,2.814,1.445.286.286,0,1,1,.159.55A3.214,3.214,0,0,1,519.64,482.507Z" transform="translate(-517.006 -480.192)" fill="#c11232"/>
          </g>
          <path id="パス_88959" data-name="パス 88959" d="M427.145,505.445a20.189,20.189,0,0,0,1.4-4.956c.45-1.9.5-11.87-.1-14.9,7.947,2.137,8.347,1.318,8.621,2.288.721,2.561,2.04,13.608,3.446,15.8a10.876,10.876,0,0,0,1.713,2.028Z" transform="translate(-407.762 -462.677)" fill="#edbf98"/>
          <path id="パス_88960" data-name="パス 88960" d="M465.092,496.553a.207.207,0,0,1-.083-.012L463.543,496a14.672,14.672,0,0,1-3.6-2.517.2.2,0,0,1,0-.287.209.209,0,0,1,.291-.008,14.589,14.589,0,0,0,3.468,2.434l1.466.543a.2.2,0,0,1,.117.261A.206.206,0,0,1,465.092,496.553Z" transform="translate(-435.243 -469.011)" fill="#e8605f"/>
          <path id="パス_88961" data-name="パス 88961" d="M321.48,566.015c-.009.037-.862.28-.93.31a10.063,10.063,0,0,0-2.562,1.682,19.7,19.7,0,0,0-3.514,4.138c-.781,1.189-1.572,2.372-2.332,3.573a43.581,43.581,0,0,0-3.4,7.262c-.595,1.5-1.154,2.943-1.647,4.473a10.379,10.379,0,0,0-.786,3.108,2.84,2.84,0,0,0,.494,1.642c.267.357.746.436.925.859.425,1-.881,1.894-.446,2.927.3.708,1.03.691,1.715.846,1.115.252,2.239.582,3.326.927.728.23,1.044.446,1.6-.206a4.492,4.492,0,0,0,.727-1.932,2.579,2.579,0,0,1,.635-1.475c.449-.467,1-.759,1.415-1.274,1.583-1.984,1.829-4.339,2.472-6.679a49.439,49.439,0,0,0,.96-5.365,73.352,73.352,0,0,0,.868-7.869C321.124,570.561,320.911,568.358,321.48,566.015Z" transform="translate(-306.309 -530.204)" fill="#7a51a4"/>
          <path id="パス_88962" data-name="パス 88962" d="M387.854,600.068l-4.714-24.91c.009-.065.018-.131.027-.2l1.257-9.23.871-6.395a17.765,17.765,0,0,0,.1-2.8c-.018-1.231.583-2.237-.138-3.411-1.127-1.836-2.255-3.654-4.335-4.624a3.511,3.511,0,0,1-1.707-1.936c-.3-.663-1-1.6-1.83-1.664a5.176,5.176,0,0,0-1.069.1c-.537.067-1.066.263-1.609.28a9.686,9.686,0,0,0-1.119.044c-1.067.151-2.138.092-3.214.141a42.756,42.756,0,0,1-5.461.095c-.766-.062-1.506-.334-2.273-.361-1.147-.041-1.3.845-1.525,1.65-.453,1.653-1.907,2.507-3.208,3.541l-1.763,1.4a4.136,4.136,0,0,0-.72.573l-2.391,3.149,4.882,22.7-3.382,21.705Z" transform="translate(-345.537 -512.475)" fill="#7a51a4"/>
          <path id="パス_88963" data-name="パス 88963" d="M359.508,375.51a10.516,10.516,0,0,1,3.375-1.755,7.83,7.83,0,0,1,4.544-.345,6.754,6.754,0,0,1,4.41,3.675c1.08,2.2.686,4.1.662,6.468a19.517,19.517,0,0,0,.836,5.788,18.438,18.438,0,0,0,2.895,5.6c2.887,4.023,6.563,10.043,4.786,15.2-.423,1.227-1.689,3.518-2.874,4,.776-1.062,1.544-3.557.544-4.672.33,2.509-2.89,5.572-5.117,6.277-1.387.44-6.228.835-4.621,3.159-.308.467-2.385-.376-2.949-.7.187.136.219.333.317.482a6.054,6.054,0,0,1-2.676-.191,12.3,12.3,0,0,1-3.056-1,6.841,6.841,0,0,1-2.189-1.465c-.349-.421-.516-.962-.849-1.4a12.42,12.42,0,0,1-2.381-4.057c-.828-2.859-.6-6.172-.321-9.11.389-4.092,1.073-8.224,1.707-12.288.384-2.455.437-4.946.879-7.394.321-1.779.19-4.238,1.468-5.674A6.316,6.316,0,0,1,359.508,375.51Z" transform="translate(-346.844 -368.33)" fill="#422e2f"/>
          <path id="パス_88964" data-name="パス 88964" d="M453.348,437.838a4.488,4.488,0,0,0,1.62,2.811c.861.556,3.222,1.5,3.957.349.852-1.331-.564-4.163-1.337-5.286-1.248-1.814-3.662-2.271-4.27.29A4.418,4.418,0,0,0,453.348,437.838Z" transform="translate(-429.667 -419.546)" fill="#edbf98"/>
          <path id="パス_88965" data-name="パス 88965" d="M476.255,363.072a1.871,1.871,0,0,1-.232.9c-.825,1.573-2.691,2.771-4.09,3.8-.915.673-1.871,1.354-2.728,2.1-.466.408-.964.807-1.409,1.234a5.394,5.394,0,0,0-1.242,1.621c-.122.263-.177.571-.31.825a.84.84,0,0,1-.207-.311,15.989,15.989,0,0,1-.908-2.179c-.128-.4-.275-.781-.425-1.173a6.875,6.875,0,0,1-.6-1.621,12.532,12.532,0,0,1-.069-1.7,11.684,11.684,0,0,1,.583-3.352,13.887,13.887,0,0,1,1.794-3.492c.793-1.148,2.184-3,3.727-2.986a6.127,6.127,0,0,1,3.844,2.06,8.15,8.15,0,0,1,2.177,3.579A2.814,2.814,0,0,1,476.255,363.072Z" transform="translate(-438.725 -354.498)" fill="#422e2f"/>
          <path id="パス_88966" data-name="パス 88966" d="M519.514,437.657a1.034,1.034,0,0,0,.645,1.2.833.833,0,0,0,1.038-.694,1.031,1.031,0,0,0-.649-1.2A.831.831,0,0,0,519.514,437.657Z" transform="translate(-485.296 -421.827)" fill="#090406"/>
          <path id="パス_88967" data-name="パス 88967" d="M538.178,441.581l1.268,1.836.644.932c.154.224.427.468.374.767-.043.249-.353.342-.554.454l-1.362.76-.115.064Z" transform="translate(-500.984 -425.73)" fill="#edbf98"/>
        </g>
        <path id="パス_88968" data-name="パス 88968" d="M356.647,648.167a.241.241,0,0,1-.24-.237c-.034-2.024-.108-4.076-.18-6.059s-.146-4.035-.18-6.06a.241.241,0,0,1,.481-.008c.034,2.021.108,4.07.18,6.051s.145,4.04.18,6.069a.241.241,0,0,1-.237.245Z" transform="translate(-129.65 -332.937)" fill="#533770"/>
        <path id="パス_88969" data-name="パス 88969" d="M563.515,740.832a4.2,4.2,0,0,1-2.943-2.057,13.1,13.1,0,0,1-1.221-2.561c-.381-1.369-.424-2.78-.818-4.137-.3-1.031-.77-2.365.218-3.232,1.434-1.257,3.8-3.206,4.714-1.83a73.955,73.955,0,0,1,3.653,8.906c.328,1.351-.24,4.211-2.274,4.828A3,3,0,0,1,563.515,740.832Z" transform="translate(-299.337 -409.32)" fill="#edbf98"/>
        <path id="パス_88970" data-name="パス 88970" d="M532.4,576.01c.145.377.287.761.429,1.156.559,1.551,1.061,3.126,1.568,4.7.351,1.086.774,2.122,1.143,3.2.469,1.375,1.012,2.722,1.477,4.1s1.291,3.044.833,4.526c-.186.6-.794,1.112-.873,1.715a2.3,2.3,0,0,0,.2.871c.262,1.152-1.354,1.948-2.173,2.333a11.158,11.158,0,0,1-1.629.63,22.17,22.17,0,0,1-2.717.3c-.623.1-2.273.386-2.684-.294-.253-.42.223-1.021,0-1.393-.337-.568-1.1-.762-1.649-1.06a2.9,2.9,0,0,1-1.4-1.543,5.79,5.79,0,0,1-.16-2.911c.431-4.435.653-8.89.717-13.345a34.64,34.64,0,0,0-.13-6.221c-.36-2.093-.684-4.192-1.032-6.287,0,.024.664.256.712.279a9.167,9.167,0,0,1,2.047,1.463,22.5,22.5,0,0,1,3.123,3.563A17.86,17.86,0,0,1,532.4,576.01Z" transform="translate(-270.931 -274.933)" fill="#7a51a4"/>
        <path id="パス_88971" data-name="パス 88971" d="M537.291,635.69a.241.241,0,0,1-.23-.172,18.128,18.128,0,0,1-.533-4.794c-.006-.276-.012-.551-.02-.823-.077-2.537-.039-5,.115-7.541a19.907,19.907,0,0,1,.651-3.864l.022-.086a4.988,4.988,0,0,1,1.123-2.426.241.241,0,1,1,.353.327,4.493,4.493,0,0,0-1.009,2.218l-.022.086a19.44,19.44,0,0,0-.637,3.775c-.153,2.522-.19,4.974-.114,7.5.008.274.014.55.02.827a17.778,17.778,0,0,0,.513,4.667.241.241,0,0,1-.162.3A.235.235,0,0,1,537.291,635.69Z" transform="translate(-281.131 -316.431)" fill="#533770"/>
        <g id="グループ_15478" data-name="グループ 15478" transform="translate(264.888 296.378)">
          <path id="パス_88972" data-name="パス 88972" d="M688.37,606.2a3.188,3.188,0,0,0,.44-1.318c.094-.548.3-1.064.412-1.605a6.838,6.838,0,0,1,.454-1.469,12.5,12.5,0,0,1,.806-1.332,5.956,5.956,0,0,0,1.063-3.014c0-.358-.214-1.026.393-.837.672.209.767,1.492.77,2.03a1.6,1.6,0,0,0,.952,1.5,5.53,5.53,0,0,0,2.346-.243c.692-.128,1.39-.246,2.085-.382a29.183,29.183,0,0,0,3.168-.772,15.781,15.781,0,0,1,1.8-.551c.327-.061,1.194-.217,1.454.057.441.464-1.053,1.036-1.332,1.29a5.01,5.01,0,0,1,1.321-.415c.336-.048,1.61-.281,1.638.247.023.442-2.307,1.472-2.5,1.472.379,0,1.586-.159,1.777.286.169.394-2.926,1.479-3.735,1.705a15.748,15.748,0,0,0-1.88.674c-.157.067-.552.166-.377.422.123.178.493.033.667.006a4.474,4.474,0,0,0,1.273-.452c.577-.306,1.534-.8,2.19-.482.561.277-.015.466-.4.654-.477.233-.966.417-1.427.674-.364.2-.7.553-1.072.711a11.286,11.286,0,0,1-2.184.407c-.92.164-1.815.221-2.725.456a13.006,13.006,0,0,0-2.865,1.148,12.16,12.16,0,0,0-1.749,1.118c-.207.161-.414.322-.623.482s-.376.312-.57.465c-.221.175-.543.409-.834.255a1.783,1.783,0,0,1-.464-.531,3.668,3.668,0,0,1-.559-1.513.969.969,0,0,1,.3-1.148Z" transform="translate(-673.25 -596.597)" fill="#edbf98"/>
          <path id="パス_88973" data-name="パス 88973" d="M598.2,677.355,613,655.54l-1.412-2.939L596,671Z" transform="translate(-596.002 -643.617)" fill="#edbf98"/>
        </g>
        <g id="グループ_15479" data-name="グループ 15479" transform="translate(306.188 309.929)">
          <path id="パス_88974" data-name="パス 88974" d="M868.956,686.34a8.792,8.792,0,0,1-2.815.194c-1.071-.006-2.3-.213-3.413-.17a42.708,42.708,0,0,0-4.325.553,5.875,5.875,0,0,1-1.055.214c-.321.016-1.563.154-1.269-.355.133-.23,1.344-.435,1.616-.531.342-.12.681-.243,1.031-.34a8.331,8.331,0,0,0-1.88.289,5.413,5.413,0,0,1-1.92-.018c-.476-.086-.8-.395-.24-.566.5-.151,2.424-.472,2.775-.6-.734.023-1.464.043-2.2.072-.541.022-1.4.092-1.79-.4.562-.332.928-.322,1.6-.643-.119-.024-.118-.094-.186-.133a5.32,5.32,0,0,1,1.577-.888c1.148-.379,4.819-1.675,5.319-1.844a3.34,3.34,0,0,1,1.345-.057,20.294,20.294,0,0,1,5.205,1.507c.779.267,1.524.623,2.314.854.6.175,1.921.023,1.954.823.054,1.312-1.167,1.588-2.221,1.729A10.442,10.442,0,0,0,868.956,686.34Z" transform="translate(-853.471 -681.076)" fill="#edbf98"/>
          <path id="パス_88975" data-name="パス 88975" d="M976.2,693.949l-23.591.468-1.134,2.576,21.114,1.281Z" transform="translate(-935.755 -691.884)" fill="#edbf98"/>
        </g>
        <path id="パス_88976" data-name="パス 88976" d="M345.834,751.355c2.485-.648,8.969.768,8.462-2.667-.341-2.317-.6-4.694-.829-7.027-.3-3.051-.745-6.165-1.267-9.19-.389-2.247-.844-4.795-2.764-6.493-2.33-2.062-6.621-2.933-9.784-3.413a142.238,142.238,0,0,0-14.729-.92,56.9,56.9,0,0,0-9.679.313c-4.477.583-7.773.882-8.157,5.417-.48,5.677,1.862,11.437,3.77,16.778.623,1.745.753,3.783,1.688,5.431.677,1.193,1.02.771,2.526,1.037,1.37.242,1.422.982,2.476,1.843a8.893,8.893,0,0,0,3.936,1.386,49.97,49.97,0,0,0,14.512.745C339.471,754.23,342.526,752.218,345.834,751.355Z" transform="translate(-88.489 -405.148)" fill="#eed6b6"/>
        <path id="パス_88977" data-name="パス 88977" d="M749.247,615.975a.312.312,0,0,1-.073-.008.254.254,0,0,1,.082-.5,3.059,3.059,0,0,0,.483-.152l4.813-1.652a.254.254,0,0,1,.165.48l-4.8,1.648A2.08,2.08,0,0,1,749.247,615.975Z" transform="translate(-459.549 -314.535)" fill="#c48e61"/>
        <path id="パス_88978" data-name="パス 88978" d="M752.635,624a.315.315,0,0,1-.073-.008.254.254,0,0,1,.082-.5,3.035,3.035,0,0,0,.482-.152l4.813-1.651a.254.254,0,0,1,.165.48l-4.8,1.648A2.073,2.073,0,0,1,752.635,624Z" transform="translate(-462.393 -321.27)" fill="#c48e61"/>
        <g id="グループ_15480" data-name="グループ 15480" transform="translate(294.83 261.371)">
          <path id="パス_88979" data-name="パス 88979" d="M786.509,386.33h-.041c.016.59.11,1.187.125,1.776-.548.08-1.067-.231-1.608-.1a9.344,9.344,0,0,0,.289,1.552c.024.117-2.3-.219-2.513-.181-.569.1,1.693,1.872,1.87,2.042.835.807,1.883,1.417,2.706,2.232.764.756,1.476,1.317,1.608,2.337.152,1.175.453,2.659.521,3.842,1.137-.465,1.753.8,2.841.772-.327-1.824-1.043-3.88-.9-5.338a5.209,5.209,0,0,1,.529-1.931c.345-.657.819-1.29.554-2.024a8.106,8.106,0,0,1-.512-1.828,6.653,6.653,0,0,1-.055-1.5c-1.466-.485-5.91-9.608-6.363-9.625-1.585-.061,2.662,7.863,2.664,8.465C787.643,386.791,787.13,386.368,786.509,386.33Z" transform="translate(-782.669 -378.357)" fill="#edbf98"/>
          <path id="パス_88980" data-name="パス 88980" d="M827.241,517.443l-2.329-21.718,2.046-2.9,5.011,23.916Z" transform="translate(-818.136 -474.466)" fill="#edbf98"/>
        </g>
        <path id="パス_88981" data-name="パス 88981" d="M819.354,436.519a.3.3,0,0,1-.259-.1c-.553-.722-.044-1.63.329-2.292l.038-.067a3.236,3.236,0,0,1,.519-.619c.273-.277.554-.563.569-.812s-.254-.387-.694-.577a2.373,2.373,0,0,1-.846-.51,1.842,1.842,0,0,1-.455-1.58.267.267,0,0,1,.229-.211,1.837,1.837,0,0,1,1.354.468,1.891,1.891,0,0,0,.983.436.254.254,0,0,1,.28.233.275.275,0,0,1-.286.241,2.348,2.348,0,0,1-1.341-.538,2.34,2.34,0,0,0-.676-.367,1.387,1.387,0,0,0,.369,1.025,2.028,2.028,0,0,0,.66.379c.456.2,1.023.441.989,1.009a1.979,1.979,0,0,1-.7,1.1,2.892,2.892,0,0,0-.441.514l-.038.068c-.333.593-.748,1.331-.36,1.836a.218.218,0,0,1-.09.329A.318.318,0,0,1,819.354,436.519Z" transform="translate(-517.946 -160.118)" fill="#c48e61"/>
        <path id="パス_88982" data-name="パス 88982" d="M811.6,443.037c-.955.077-2.853-1.765-2.871-1.786a.213.213,0,0,1,.047-.334.321.321,0,0,1,.4.03,6.773,6.773,0,0,0,2.367,1.624.3.3,0,0,1,.378.082.228.228,0,0,1-.114.329A.538.538,0,0,1,811.6,443.037Z" transform="translate(-509.667 -169.465)" fill="#c48e61"/>
        <path id="パス_88983" data-name="パス 88983" d="M806.146,451.246a3.209,3.209,0,0,1-.485.006c-.207-.015-.517-.212-1.653-1.054-.229-.169-.422-.313-.525-.382a.21.21,0,0,1-.038-.333.326.326,0,0,1,.4-.041c.108.072.309.222.547.4a14.368,14.368,0,0,0,1.362.942,4.068,4.068,0,0,0,.779-.058c.094-.013.183-.025.264-.034h.009a.266.266,0,0,1,.3.206.261.261,0,0,1-.254.266c-.074.008-.155.019-.243.031C806.469,451.21,806.312,451.232,806.146,451.246Z" transform="translate(-505.227 -176.626)" fill="#c48e61"/>
        <path id="パス_88984" data-name="パス 88984" d="M793.974,455.971a2.124,2.124,0,0,1-1-.351l-.1-.051c-.134-.068-.252-.124-.362-.177a7.735,7.735,0,0,1-1.763-1.134.21.21,0,0,1-.006-.335.323.323,0,0,1,.4-.015,7.332,7.332,0,0,0,1.661,1.07c.115.055.236.113.376.184l.107.057q.288.154.457.224a5.468,5.468,0,0,0-.622-.976.219.219,0,0,1,.094-.328.314.314,0,0,1,.39.069c.839,1.129.864,1.465.624,1.664A.449.449,0,0,1,793.974,455.971Z" transform="translate(-494.551 -180.366)" fill="#c48e61"/>
        <path id="パス_88985" data-name="パス 88985" d="M1073.887,683.663s4.313-.635,4.461-2.043a20.508,20.508,0,0,0-.37-5.073c-.148.074-5.851.926-5.851.926l1.74,6.073Z" transform="translate(-730.865 -367.344)" fill="#edbf98"/>
        <path id="パス_88986" data-name="パス 88986" d="M863.788,693.117a.241.241,0,0,1-.055-.475l4.622-1.083a.24.24,0,0,1,.047-.006l1.374-.042a.241.241,0,0,1,.015.481l-1.35.041-4.6,1.077A.244.244,0,0,1,863.788,693.117Z" transform="translate(-555.743 -379.908)" fill="#c48e61"/>
        <path id="パス_88987" data-name="パス 88987" d="M878.827,699.79a.241.241,0,0,1-.055-.475l2.085-.488a.253.253,0,0,1,.048-.006l1.374-.042a.243.243,0,0,1,.248.233.24.24,0,0,1-.233.248l-1.35.041-2.061.483A.241.241,0,0,1,878.827,699.79Z" transform="translate(-568.37 -386.01)" fill="#c48e61"/>
        <path id="パス_88988" data-name="パス 88988" d="M886.418,707.408a.241.241,0,0,1-.055-.475l1.366-.32a.245.245,0,0,1,.047-.006l1.374-.042a.241.241,0,0,1,.015.481l-1.35.041-1.343.315A.242.242,0,0,1,886.418,707.408Z" transform="translate(-574.743 -392.547)" fill="#c48e61"/>
        <path id="パス_88989" data-name="パス 88989" d="M868.969,642.824a.241.241,0,0,1-.238-.206l-.25-1.707a.241.241,0,0,1,.476-.07l.25,1.707a.241.241,0,0,1-.2.273Z" transform="translate(-559.884 -337.194)" fill="#c48e61"/>
        <g id="グループ_15481" data-name="グループ 15481" transform="translate(244.141 260.134)">
          <path id="パス_88990" data-name="パス 88990" d="M506.035,371.277a.235.235,0,0,1-.1-.45q.178-.08.364-.159a.235.235,0,0,1,.184.433q-.181.077-.355.155A.236.236,0,0,1,506.035,371.277Z" transform="translate(-499.522 -370.65)" fill="#201617"/>
          <path id="パス_88991" data-name="パス 88991" d="M469.542,381.147a.24.24,0,0,1-.071-.011.235.235,0,0,1-.153-.3c.09-.282.184-.544.289-.8a.235.235,0,1,1,.435.178c-.1.244-.19.493-.276.764A.235.235,0,0,1,469.542,381.147Zm.879-1.968a.235.235,0,0,1-.2-.358,8.208,8.208,0,0,1,.482-.706.235.235,0,1,1,.374.285,7.72,7.72,0,0,0-.454.666A.235.235,0,0,1,470.421,379.179Zm1.355-1.674a.235.235,0,0,1-.162-.405c.2-.191.415-.379.641-.56a.235.235,0,0,1,.294.367c-.215.172-.42.351-.61.533A.234.234,0,0,1,471.776,377.5Zm1.71-1.313a.235.235,0,0,1-.125-.435c.232-.145.477-.289.729-.427a.235.235,0,1,1,.226.413c-.244.133-.481.272-.705.412A.235.235,0,0,1,473.486,376.191Z" transform="translate(-468.883 -374.555)" fill="#201617"/>
          <path id="パス_88992" data-name="パス 88992" d="M466.9,417.707a.239.239,0,0,1-.048,0,.235.235,0,0,1-.182-.278c.027-.129.054-.257.083-.386a.235.235,0,1,1,.459.1q-.043.19-.082.38A.235.235,0,0,1,466.9,417.707Z" transform="translate(-466.666 -409.442)" fill="#201617"/>
        </g>
        <path id="パス_88993" data-name="パス 88993" d="M385.155,394.928a.235.235,0,0,1-.177-.08c-.173-.2-.343-.408-.5-.626a.235.235,0,0,1,.378-.28c.153.207.315.408.479.6a.235.235,0,0,1-.177.39Zm-1.176-1.662a.235.235,0,0,1-.2-.118c-.129-.226-.256-.463-.375-.706a.235.235,0,1,1,.422-.208c.115.234.237.462.361.679a.235.235,0,0,1-.2.352Zm-.871-1.842a.235.235,0,0,1-.219-.151c-.094-.243-.184-.5-.268-.749a.235.235,0,0,1,.447-.148c.082.246.169.491.26.727a.235.235,0,0,1-.135.3A.231.231,0,0,1,383.108,391.424Zm-.615-1.943a.235.235,0,0,1-.228-.178c-.064-.254-.124-.514-.178-.774a.235.235,0,1,1,.461-.1c.052.253.111.507.173.754a.235.235,0,0,1-.171.286A.239.239,0,0,1,382.493,389.481Zm-.39-2a.235.235,0,0,1-.235-.216c-.037-.263-.072-.513-.106-.764a.235.235,0,1,1,.466-.064q.053.387.107.773a.254.254,0,0,1,0,.035A.235.235,0,0,1,382.1,387.481Zm-.273-2.02a.235.235,0,0,1-.233-.205q-.05-.389-.1-.78a.235.235,0,1,1,.467-.057q.048.389.1.777a.235.235,0,0,1-.2.263Zm-.244-2.024a.235.235,0,0,1-.233-.209q-.044-.39-.085-.781a.235.235,0,0,1,.468-.049q.04.389.084.778a.235.235,0,0,1-.208.26Zm-.206-2.028a.235.235,0,0,1-.234-.214q-.036-.392-.068-.783a.235.235,0,0,1,.469-.038q.032.39.067.779a.235.235,0,0,1-.213.256Zm-.159-2.033a.235.235,0,0,1-.235-.22q-.026-.392-.047-.785a.235.235,0,1,1,.47-.026q.021.39.047.781a.235.235,0,0,1-.219.25Zm-.1-2.036a.235.235,0,0,1-.235-.227q-.013-.393-.023-.787a.235.235,0,0,1,.23-.24h.005a.235.235,0,0,1,.235.23q.009.391.023.781a.235.235,0,0,1-.227.243Zm-.037-2.038a.235.235,0,0,1-.235-.235v-.031q0-.378.005-.756a.235.235,0,0,1,.235-.232h0a.235.235,0,0,1,.232.239q-.005.375-.005.75v.031A.235.235,0,0,1,381.08,375.3Zm.039-2.038h-.009a.235.235,0,0,1-.226-.244q.015-.394.037-.787a.232.232,0,0,1,.248-.222.235.235,0,0,1,.222.248q-.022.389-.037.779A.235.235,0,0,1,381.119,373.263Zm.125-2.035h-.02a.235.235,0,0,1-.214-.254q.033-.393.073-.785a.235.235,0,0,1,.468.048q-.04.388-.073.776A.235.235,0,0,1,381.244,371.229Zm.221-2.026-.032,0a.235.235,0,0,1-.2-.265q.053-.391.114-.781a.235.235,0,1,1,.465.072q-.06.385-.112.771A.235.235,0,0,1,381.465,369.2Zm.328-2.012a.226.226,0,0,1-.045,0,.235.235,0,0,1-.187-.275q.074-.388.157-.774a.235.235,0,1,1,.46.1q-.082.381-.155.763A.236.236,0,0,1,381.792,367.191Zm.443-1.99a.236.236,0,0,1-.228-.293q.034-.133.069-.265.066-.25.132-.5a.235.235,0,0,1,.454.123q-.066.244-.132.493-.035.131-.068.261A.235.235,0,0,1,382.235,365.2Zm.54-1.966a.232.232,0,0,1-.067-.01.235.235,0,0,1-.159-.292q.113-.382.229-.754a.235.235,0,1,1,.449.141q-.115.368-.226.746A.235.235,0,0,1,382.775,363.236Zm.623-1.94a.235.235,0,0,1-.222-.314c.089-.251.181-.5.274-.742a.235.235,0,0,1,.439.169c-.091.237-.182.482-.269.729A.235.235,0,0,1,383.4,361.3Zm.752-1.893a.235.235,0,0,1-.215-.331c.109-.244.222-.485.337-.718a.235.235,0,0,1,.422.208c-.112.227-.223.463-.329.7A.235.235,0,0,1,384.15,359.4Zm.922-1.816a.235.235,0,0,1-.2-.353c.132-.229.27-.458.41-.68a.235.235,0,0,1,.4.251c-.137.216-.271.439-.4.663A.235.235,0,0,1,385.072,357.586Zm1.111-1.707a.235.235,0,0,1-.19-.374c.155-.212.317-.424.482-.631a.235.235,0,1,1,.368.293c-.16.2-.318.408-.47.615A.235.235,0,0,1,386.183,355.879Zm1.288-1.578a.235.235,0,0,1-.174-.393c.173-.191.355-.386.541-.578a.235.235,0,1,1,.338.328c-.183.188-.361.379-.53.566A.234.234,0,0,1,387.47,354.3Zm1.468-1.406a.235.235,0,0,1-.129-.432,3.738,3.738,0,0,1,.744-.374.235.235,0,0,1,.167.44,3.292,3.292,0,0,0-.653.327A.236.236,0,0,1,388.938,352.895Zm1.891-.737a.235.235,0,0,1-.08-.456,3.967,3.967,0,0,0,.672-.31.235.235,0,0,1,.237.406,4.435,4.435,0,0,1-.749.346A.234.234,0,0,1,390.829,352.157Z" transform="translate(-150.47 -94.319)" fill="#201617"/>
        <path id="パス_88994" data-name="パス 88994" d="M438.38,396.7a.235.235,0,0,1-.18-.084,6.93,6.93,0,0,0-.521-.55.235.235,0,0,1,.325-.341,7.358,7.358,0,0,1,.556.587.235.235,0,0,1-.18.387Zm-1.479-1.4a.234.234,0,0,1-.154-.058c-.164-.143-.379-.335-.586-.548a.235.235,0,1,1,.337-.328c.2.2.4.384.559.522a.235.235,0,0,1-.155.412Zm-1.34-1.522a.235.235,0,0,1-.2-.114c-.133-.221-.257-.453-.381-.709a.235.235,0,1,1,.423-.2c.118.243.236.463.361.671a.235.235,0,0,1-.2.356Zm-.875-1.839a.235.235,0,0,1-.217-.144c-.1-.237-.2-.487-.288-.743a.235.235,0,1,1,.443-.158c.088.248.182.49.278.719a.235.235,0,0,1-.217.326Zm-.66-1.927a.235.235,0,0,1-.226-.172c-.068-.241-.133-.491-.2-.765a.235.235,0,1,1,.456-.113c.067.269.132.515.2.751a.235.235,0,0,1-.163.29A.238.238,0,0,1,434.025,390.015Zm-.482-1.98a.236.236,0,0,1-.23-.184q-.084-.38-.172-.764a.235.235,0,1,1,.459-.1q.087.385.172.766a.235.235,0,0,1-.23.286Zm-.45-1.988a.235.235,0,0,1-.229-.184q-.086-.383-.17-.767a.235.235,0,1,1,.46-.1q.083.383.169.764a.235.235,0,0,1-.178.281A.227.227,0,0,1,433.093,386.047Zm-.425-1.994a.235.235,0,0,1-.23-.19q-.076-.387-.145-.775a.235.235,0,0,1,.463-.082q.068.384.143.767a.235.235,0,0,1-.186.276A.247.247,0,0,1,432.668,384.053Zm-.338-2.011a.235.235,0,0,1-.233-.2c-.036-.267-.068-.532-.094-.786a.235.235,0,1,1,.468-.048c.026.249.057.509.092.771a.235.235,0,0,1-.2.265Zm-.185-2.03a.235.235,0,0,1-.235-.223q-.02-.392-.036-.786a.235.235,0,1,1,.47-.019q.015.391.036.78a.235.235,0,0,1-.222.247Zm-.073-2.037a.235.235,0,0,1-.235-.23q-.008-.393-.011-.787a.235.235,0,0,1,.233-.237h0a.235.235,0,0,1,.235.233q0,.391.011.781a.235.235,0,0,1-.23.24Zm-.012-2.038h0a.235.235,0,0,1-.233-.237q0-.393.011-.786a.241.241,0,0,1,.239-.231.235.235,0,0,1,.231.24q-.007.391-.01.781A.235.235,0,0,1,432.06,375.937Zm.043-2.038H432.1a.235.235,0,0,1-.227-.243q.013-.393.03-.786a.235.235,0,0,1,.47.02q-.017.39-.029.781A.235.235,0,0,1,432.1,373.9Zm.091-2.037h-.013a.235.235,0,0,1-.222-.248q.022-.393.047-.785a.235.235,0,1,1,.469.031q-.025.389-.047.781A.235.235,0,0,1,432.194,371.862Zm.136-2.034h-.019a.235.235,0,0,1-.216-.253q.03-.393.063-.784a.235.235,0,1,1,.469.04q-.033.389-.063.78A.235.235,0,0,1,432.33,369.827Zm.176-2.031h-.023a.235.235,0,0,1-.212-.257q.038-.388.079-.782a.235.235,0,1,1,.468.049q-.041.392-.078.778A.235.235,0,0,1,432.507,367.8Zm.224-2.026-.031,0a.235.235,0,0,1-.2-.264q.051-.39.111-.782a.235.235,0,1,1,.465.072q-.059.386-.109.771A.235.235,0,0,1,432.731,365.77Zm.328-2.012a.236.236,0,0,1-.231-.282c.053-.267.111-.527.17-.775a.235.235,0,1,1,.457.11c-.058.242-.114.5-.166.758A.235.235,0,0,1,433.059,363.758Zm.5-1.976a.235.235,0,0,1-.224-.306c.082-.258.169-.512.26-.754a.235.235,0,0,1,.441.166c-.088.234-.173.479-.252.73A.235.235,0,0,1,433.559,361.782Zm.755-1.892a.235.235,0,0,1-.21-.34q.074-.148.152-.293c.06-.112.138-.252.232-.411a.235.235,0,1,1,.406.238c-.09.153-.165.287-.223.395q-.075.139-.145.28A.235.235,0,0,1,434.314,359.89Zm1.053-1.748a.235.235,0,0,1-.193-.369c.157-.227.317-.443.473-.643a.235.235,0,1,1,.371.29c-.151.193-.3.4-.457.622A.235.235,0,0,1,435.367,358.142Zm1.3-1.567a.235.235,0,0,1-.161-.407,4.091,4.091,0,0,1,.655-.512.235.235,0,0,1,.245.4,3.608,3.608,0,0,0-.578.454A.234.234,0,0,1,436.67,356.575Z" transform="translate(-193.273 -97.898)" fill="#201617"/>
        <path id="パス_88995" data-name="パス 88995" d="M992.018,461.38l-5.487,3.3,3.132,5.233,3.233-6.8Z" transform="translate(-658.999 -186.692)" fill="#6fbfda"/>
        <path id="パス_88996" data-name="パス 88996" d="M948.906,459.436l5.286,3.617-3.432,5.041-2.832-6.973Z" transform="translate(-626.589 -185.06)" fill="#6fbfda"/>
        <rect id="長方形_30222" data-name="長方形 30222" width="4.479" height="2.645" transform="translate(316.888 286.905)" fill="#fff"/>
        <rect id="長方形_30223" data-name="長方形 30223" width="4.479" height="0.434" transform="translate(316.888 287.53)" fill="#5792c3"/>
        <line id="線_507" data-name="線 507" x2="8.074" y2="5.767" transform="matrix(0.966, 0.259, -0.259, 0.966, 304.517, 239.847)" fill="none" stroke="#15a58e" stroke-linecap="round" stroke-width="2"/>
        <line id="線_508" data-name="線 508" x2="8.074" y2="2.307" transform="matrix(0.966, 0.259, -0.259, 0.966, 301.32, 247.171)" fill="none" stroke="#15a58e" stroke-linecap="round" stroke-width="2"/>
        <line id="線_509" data-name="線 509" y1="1.153" x2="6.92" transform="matrix(0.966, 0.259, -0.259, 0.966, 300.943, 254.168)" fill="none" stroke="#15a58e" stroke-linecap="round" stroke-width="2"/>
      </g>
    </g>
  </g>
</svg>
