<svg xmlns="http://www.w3.org/2000/svg" width="140" height="140" viewBox="0 0 140 140"><g transform="translate(-53 -0.477)"><circle cx="70" cy="70" r="70" transform="translate(53 0.477)" fill="#f7f3e5"/><g transform="translate(-82.76 -3947.376)"><g transform="translate(157.064 3969.547)"><g transform="translate(0 0)"><path d="M3562.833,4465.187c0,.721-21.682,1.306-48.427,1.306s-48.427-.585-48.427-1.306,21.682-1.305,48.427-1.305S3562.833,4464.467,3562.833,4465.187Z" transform="translate(-3465.438 -4378.832)" fill="#b4b4b5"/><g transform="translate(66.887 79.758)"><path d="M3633.253,4463.833s-4.5.206-5.6.205-3.459.027-3.813-.328a1.9,1.9,0,0,1-.221-.272,1.97,1.97,0,0,0,.535,1.016c.355.354,2.4.324,3.5.327s5.6-.206,5.6-.206,2.482-.271,2.61-1a4.094,4.094,0,0,0,.053-.663C3635.492,4463.538,3633.253,4463.833,3633.253,4463.833Z" transform="translate(-3623.572 -4458.027)" fill="#dbdcdc"/><path d="M3629.469,4452.063a5.2,5.2,0,0,1-2.6,1.51c-2.107.714-2.557.9-3.119,1.889a1.664,1.664,0,0,0-.192,1.266,1.907,1.907,0,0,0,.22.273c.355.355,2.712.325,3.813.327s5.6-.205,5.6-.205,2.239-.294,2.663-.922a21.563,21.563,0,0,0-.789-4.882C3633.937,4452.212,3631.16,4452.418,3629.469,4452.063Z" transform="translate(-3623.509 -4451.318)" fill="#f5f6f7"/></g><g transform="translate(71.132 82.484)"><path d="M3634.236,4460.211l-.648.42a3.2,3.2,0,0,1,.77,1.825c.233,0,.492-.015.761-.024A3.565,3.565,0,0,0,3634.236,4460.211Z" transform="translate(-3633.589 -4459.192)" fill="#00254d"/><path d="M3636.434,4458.529a6.483,6.483,0,0,1,1.075,2.474c.529-.018,1.063-.042,1.542-.062a6.894,6.894,0,0,0-1.239-3.15Z" transform="translate(-3635.236 -4457.791)" fill="#00254d"/></g><g transform="translate(88.199 73.944)"><path d="M3681.792,4440.292c-.116-.115-.225-.218-.334-.315a5.289,5.289,0,0,1,.037,2.913,46.961,46.961,0,0,1-1.52,4.916c-.5.991-1.424,2.74-1.908,2.889a2.029,2.029,0,0,1-1.688-.136,1.869,1.869,0,0,0,2.12.513,6.966,6.966,0,0,0,2.075-2.569,46.9,46.9,0,0,0,1.52-4.916S3682.715,4441.212,3681.792,4440.292Z" transform="translate(-3675.425 -4438.94)" fill="#dbdcdc"/><path d="M3680.145,4438.55a6.124,6.124,0,0,0-1.491-1.037c-.264,1.5-1.848,4.512-4.542,4.3a7.02,7.02,0,0,1,.5,2.863c-.158,2.262-.267,3.38.383,4.367.02.029.045.058.067.085a2.023,2.023,0,0,0,1.688.136c.483-.148,1.408-1.9,1.907-2.889a47.08,47.08,0,0,0,1.52-4.915A5.3,5.3,0,0,0,3680.145,4438.55Z" transform="translate(-3674.112 -4437.514)" fill="#f5f6f7"/></g><g transform="translate(65.761 41.182)"><path d="M3629.089,4376.728c-.321-3.865-.306-8.465-.71-10.586-.151-.788-.339-.191-.377-1.733a38.447,38.447,0,0,0,6.255-.446c6.092-1.221,6.5-3.176,6.5-3.176s.038.166.077.406a4.628,4.628,0,0,0-.375-1.467c-1.1,3.35-7.755,3.7-11.311,3.627-3.215-.063-4.792-.792-5.931-2.093a146.82,146.82,0,0,0-2.376,17.7c-.107,4.694,5.556,19.082,5.78,19.448.754,1.212,6.874,1.125,7.372-.766.439-1.66-4.479-13.522-4.64-15.622C3629.213,4380.278,3629.057,4378.247,3629.089,4376.728Z" transform="translate(-3620.835 -4359.725)" fill="#ccc6ac"/></g><path d="M3648.88,4383.039c-1.149-.99,0-5.671.6-10.389.387-3.077,1.113-5.679,1.287-8.847a6.876,6.876,0,0,0-.162-1.559s-.405,1.957-6.5,3.176a38.491,38.491,0,0,1-6.255.447c.038,1.542.227.943.377,1.733.524,2.743.344,9.64,1.1,13.723.511,2.755,3.005,7.312,7.255,11.507,2.448,2.419,5.279,5.279,6.411,5.41,3.464.4,5.146-4.523,4.615-5.068C3656.292,4391.814,3651.778,4385.523,3648.88,4383.039Z" transform="translate(-3564.924 -4320)" fill="#e2dcc3"/><path d="M3618.024,4320.788c-1.315-8.552-2.007-14.443-5.657-21.524a4.246,4.246,0,0,0-.824-1.06,5.187,5.187,0,0,0-2.92-1.9,12.97,12.97,0,0,0-2.4-.827,10,10,0,0,0-1.906-.226,3.2,3.2,0,0,1-.525,1.557,7.719,7.719,0,0,1-2.385,1.506,2.83,2.83,0,0,1-1.493-2.048,5.26,5.26,0,0,1-1.392-.119c-.16-.035-.313-.083-.465-.129a9.653,9.653,0,0,0-3.233,1.9,6.341,6.341,0,0,0-1.969,3.023c-1.24,5.1-1.142,6.97-1.869,8.488-.834,1.73-5.455,4.6-9.091,6.234l1.71-.1c1.056.135,2.462.9,2.326,1.95l-.052,1.22a1.814,1.814,0,0,1-.423.905c3.406-1.547,8.73-3.912,9.958-6.458a16,16,0,0,0,.624-1.532c.441,1.222.762,2.353,1.039,3.421-.537.3-1.023.563-1.425.774,1.06.118,2.475.845,2.36,1.9l-.032,1.22a2.533,2.533,0,0,1-2.538,1.936l-1-.062a4.542,4.542,0,0,0,3.767-.274c.065-.036.2-.1.394-.192a14.505,14.505,0,0,0,.789,1.665c1.385,2.489,2.66,3.906,7.208,4C3610.668,4326.117,3618.771,4325.647,3618.024,4320.788Z" transform="translate(-3532.537 -4281.225)" fill="#00254d"/><path d="M3629.18,4295.536c-.5-1.094-1.354-1.135-1.33-1.368,0,.021,0,.046-.007.068-.015.169-.028.354-.053.549,0,.02,0,.04-.007.061-.008.056-.018.113-.028.171-.005.026-.009.049-.015.075-.012.057-.027.115-.042.173-.007.028-.013.057-.022.086-.017.057-.039.117-.061.177-.011.029-.02.06-.032.09-.025.063-.057.128-.088.192-.014.028-.025.056-.041.087a3.118,3.118,0,0,1-.17.287,7.726,7.726,0,0,1-2.385,1.5,2.822,2.822,0,0,1-1.492-2.046,5.331,5.331,0,0,1-.813-.028,6.93,6.93,0,0,0,.1,2.913c.229.771,1.136,3.684,1.984,3.779.327.035,3.189-3.059,3.715-3.968C3628.781,4297.667,3629.52,4296.284,3629.18,4295.536Z" transform="translate(-3556.025 -4280.596)" fill="#00254d"/><path d="M3622.328,4278.408c-.049-1.187-2.545-2.265-3.879-2.37-1.634-.133-3.21.483-4.667.179-.959-.2-1.316-.842-2.238-1.39a8.264,8.264,0,0,0-.558,1.658c-.8,3.613.833,7.085,4.261,7.841a5.236,5.236,0,0,0,1.392.12,2.833,2.833,0,0,0,1.493,2.049,7.721,7.721,0,0,0,2.385-1.507,3.675,3.675,0,0,0,.561-1.957l-.344-1.086a11.162,11.162,0,0,0,1.442-2.988C3622.236,4278.771,3622.281,4278.589,3622.328,4278.408Z" transform="translate(-3549.258 -4269.4)" fill="#fbd6a0"/><path d="M3617.826,4266.759a5.063,5.063,0,0,0-3.6-4.367,6.592,6.592,0,0,0-6.081.632,5.663,5.663,0,0,0-2.291,3.411l-2.144.045c-.611.009-1.1.018-1.317.028l-.27,0c.056,0,.108,0,.163,0-.977.1-.218,1.685.834,2.11a7.592,7.592,0,0,0,2.685.388,4.581,4.581,0,0,1,.632-1.6c.868.537,1.231,1.151,2.164,1.345,1.456.3,3.033-.313,4.667-.181,1.334.106,3.834,1.187,3.879,2.375A9.1,9.1,0,0,0,3617.826,4266.759Z" transform="translate(-3544.074 -4261.942)" fill="#00254d"/><g transform="translate(45.341 34.339)"><g transform="translate(0 3.169)"><path d="M3573.833,4351.079l0-.08a5.413,5.413,0,0,0-1.344,2.089c-.041.115-.09.245-.142.38v3.848c.269-.785.625-1.695.924-2.46.2-.5.373-.958.5-1.3a4.207,4.207,0,0,1,.7-1.225A1.191,1.191,0,0,1,3573.833,4351.079Z" transform="translate(-3572.35 -4350.999)" fill="#dbdcdc"/></g><path d="M3582.378,4346.645a2.537,2.537,0,0,1-2.576,1.887l-2.028-.164c-1.06-.136-2.056-.587-1.919-1.645l.048-1.825c.137-1.058,1.275-1.449,2.335-1.311l1.866-.112c1.056.135,2.462.895,2.326,1.949Z" transform="translate(-3574.372 -4343.475)" fill="#fbd6a0"/></g><g transform="translate(51.429 34.617)"><path d="M3611.123,4347.262a2.535,2.535,0,0,1-2.538,1.935l-2.031-.126c-1.061-.113-2.066-.547-1.95-1.6l.017-1.825c.115-1.062,1.247-1.475,2.308-1.358l1.861-.145c1.06.115,2.48.844,2.365,1.9Z" transform="translate(-3597.102 -4344.137)" fill="#fbd6a0"/><path d="M3587.487,4348.16a.68.68,0,1,0,0,1.36h6.822l.013-1.36Z" transform="translate(-3586.805 -4346.466)" fill="#dbdcdc"/><g transform="translate(10.266 2.319)"><path d="M3611.849,4412.717h-.667v14.562h1.362v-14.86A.961.961,0,0,1,3611.849,4412.717Z" transform="translate(-3611.182 -4385.98)" fill="#dbdcdc"/><path d="M3614.6,4349.889a.681.681,0,1,0-1.046.873,1.775,1.775,0,0,1,.272,1.557c-.137.4-.364.983-.6,1.6-.366.934-.781,1.991-1.035,2.826l-.031.1a17.721,17.721,0,0,0-.971,4.979v5h.667a.958.958,0,0,1,.7.3v-5.3a16.369,16.369,0,0,1,.913-4.583l.032-.1c.237-.784.642-1.813,1-2.725.247-.627.479-1.222.627-1.656A3.123,3.123,0,0,0,3614.6,4349.889Z" transform="translate(-3611.182 -4349.644)" fill="#dbdcdc"/></g></g><path d="M3608.967,4390.423H3606.2v9.563h2.763a.968.968,0,0,0,.966-.967v-7.631A.967.967,0,0,0,3608.967,4390.423Z" transform="translate(-3546.606 -4336.312)" fill="#69757c"/><g transform="translate(4.721 80.9)"><g transform="translate(1.495 1.711)"><path d="M3480.125,4459.125a3.066,3.066,0,0,1,.347-1.032h-1.02A2.209,2.209,0,0,1,3480.125,4459.125Z" transform="translate(-3479.453 -4458.092)" fill="#23456d"/></g><g transform="translate(2.118 1.269)"><path d="M3486.677,4457.044a7.509,7.509,0,0,1,.228,1.95c0,.935-.413,1.43-.921,1.43a.373.373,0,0,1-.067-.011.348.348,0,0,1-.068.011c-.327,0-.575-.288-.78-.674-.221-.424-.4-1.073-.653-1.586a3.621,3.621,0,0,0-.117.919c0,1.334.694,2.413,1.55,2.413s1.553-1.079,1.553-2.413A2.9,2.9,0,0,0,3486.677,4457.044Z" transform="translate(-3482.881 -4457.044)" fill="#3e3a39"/><g transform="translate(0 0.442)"><path d="M3482.355,4459.69a3.621,3.621,0,0,1,.115-.913,1.663,1.663,0,0,0-.519-.686h-.622a3.24,3.24,0,0,0-.4,1.6c0,1.333.7,2.413,1.551,2.413h1.331a.239.239,0,0,0,.045-.007C3483.024,4462.06,3482.355,4461,3482.355,4459.69Z" transform="translate(-3480.932 -4458.092)" fill="#231815"/></g></g><path d="M3482.336,4454.031H3479.8a5.5,5.5,0,0,0,1.5,1.71c.572.367.821,1.6,1.169,2.265.2.386.452.675.78.675a.428.428,0,0,0,.067-.011.491.491,0,0,0,.068.011c.508,0,.921-.5.921-1.431,0-2.432-.834-3.22-.834-3.22Z" transform="translate(-3478.157 -4454.031)" fill="#4878b2"/><path d="M3477.4,4455.741a5.472,5.472,0,0,1-1.5-1.71h1.641a5.486,5.486,0,0,0,1.5,1.71Z" transform="translate(-3475.902 -4454.031)" fill="#3e699d"/><path d="M3487.423,4459.612c-.337,0-.613.427-.613.954s.276.955.613.955c.084,0,.8-.008.8-.955S3487.507,4459.612,3487.423,4459.612Z" transform="translate(-3482.217 -4457.262)" fill="#bebfbf"/></g><g transform="translate(28.316 80.9)"><g transform="translate(1.82)"><path d="M3538.315,4454.031h-2.067l.231,3.22c0,.789.411,1.431.919,1.431a.491.491,0,0,0,.067-.011.427.427,0,0,0,.067.011c.509,0,.92-.642.92-1.431v-3.22Z" transform="translate(-3536.248 -4454.031)" fill="#4878b2"/></g><path d="M3534.3,4454.031h-1.419l.109,1.523a1.307,1.307,0,0,1,1.041-.629h.333Z" transform="translate(-3532.477 -4454.031)" fill="#23456d"/><g transform="translate(0 0.894)"><path d="M3537.9,4457.665v1.678c0,.789-.411,1.43-.92,1.43a.576.576,0,0,1-.067-.01c-.023,0-.044.01-.066.01-.508,0-.92-.641-.92-1.43l-.122-1.7a3.128,3.128,0,0,0-.511,1.785c0,1.333.7,2.412,1.552,2.412s1.551-1.079,1.551-2.412A3.139,3.139,0,0,0,3537.9,4457.665Z" transform="translate(-3533.876 -4457.018)" fill="#3e3a39"/><path d="M3533.349,4458.567a3.116,3.116,0,0,1,.507-1.777l-.046-.637h-.333c-.857,0-1.551,1.083-1.551,2.414s.693,2.414,1.551,2.414h1.332c.015,0,.029-.006.044-.007C3534.02,4460.937,3533.349,4459.876,3533.349,4458.567Z" transform="translate(-3531.927 -4456.153)" fill="#231815"/></g><path d="M3538.417,4459.612c-.337,0-.613.427-.613.954s.276.955.613.955c.085,0,.8-.008.8-.955S3538.5,4459.612,3538.417,4459.612Z" transform="translate(-3535.329 -4457.262)" fill="#bebfbf"/></g><g transform="translate(33.672 82.611)"><path d="M3545.318,4459.125a3.066,3.066,0,0,1,.347-1.032h-1.02A2.2,2.2,0,0,1,3545.318,4459.125Z" transform="translate(-3544.645 -4458.092)" fill="#23456d"/></g><g transform="translate(34.295 82.169)"><path d="M3551.87,4457.044a7.545,7.545,0,0,1,.227,1.95c0,.935-.412,1.43-.92,1.43a.222.222,0,0,0-.136,0c-.327,0-.575-.288-.778-.674-.222-.424-.4-1.073-.653-1.586a3.577,3.577,0,0,0-.118.919c0,1.334.694,2.413,1.549,2.413s1.553-1.079,1.553-2.413A2.9,2.9,0,0,0,3551.87,4457.044Z" transform="translate(-3548.073 -4457.044)" fill="#595757"/><g transform="translate(0 0.442)"><path d="M3547.547,4459.69a3.576,3.576,0,0,1,.115-.913,1.652,1.652,0,0,0-.52-.686h-.622a3.237,3.237,0,0,0-.4,1.6c0,1.333.7,2.413,1.551,2.413h1.331a.229.229,0,0,0,.045-.007C3548.216,4462.06,3547.547,4461,3547.547,4459.69Z" transform="translate(-3546.124 -4458.092)" fill="#231815"/></g></g><path d="M3547.528,4454.031h-2.536a5.482,5.482,0,0,0,1.5,1.71c.571.367.821,1.6,1.17,2.265.2.386.452.675.778.675a.44.44,0,0,0,.069-.011.462.462,0,0,0,.067.011c.508,0,.92-.5.92-1.431,0-2.432-.833-3.22-.833-3.22Z" transform="translate(-3511.173 -4373.13)" fill="#4878b2"/><path d="M3542.59,4455.741a5.466,5.466,0,0,1-1.495-1.71h1.64a5.493,5.493,0,0,0,1.5,1.71Z" transform="translate(-3508.918 -4373.13)" fill="#3e699d"/><path d="M3552.615,4459.612c-.336,0-.612.427-.612.954s.276.955.612.955c.084,0,.8-.008.8-.955S3552.7,4459.612,3552.615,4459.612Z" transform="translate(-3515.232 -4376.361)" fill="#bebfbf"/><path d="M3494.007,4449.411v-.742a.968.968,0,0,1,.966-.966h-29.315a.967.967,0,0,0-.964.966v.742a.967.967,0,0,0,.964.965h29.315A.967.967,0,0,1,3494.007,4449.411Z" transform="translate(-3464.694 -4369.468)" fill="#00447d"/><g transform="translate(29.313 78.235)"><path d="M1.336,0h33.11a1.336,1.336,0,0,1,1.336,1.336v0a1.338,1.338,0,0,1-1.338,1.338H1.338A1.338,1.338,0,0,1,0,1.336v0A1.336,1.336,0,0,1,1.336,0Z" fill="#00579b"/></g><g transform="translate(55.769 80.9)"><path d="M3600.132,4454.031h-2.068l.229,3.22c0,.789.412,1.431.92,1.431a.437.437,0,0,0,.065-.011.517.517,0,0,0,.067.011c.51,0,.922-.642.922-1.431v-3.22Z" transform="translate(-3597.663 -4454.031)" fill="#2d527e"/><g transform="translate(0 0.894)"><path d="M3603.578,4458.567c0,1.334-.693,2.414-1.549,2.414s-1.554-1.079-1.554-2.414.7-2.414,1.554-2.414S3603.578,4457.236,3603.578,4458.567Z" transform="translate(-3599.058 -4456.153)" fill="#595757"/><path d="M3598.533,4458.567c0-1.308.671-2.369,1.507-2.405-.016,0-.03-.009-.046-.009h-1.331c-.857,0-1.551,1.083-1.551,2.414s.694,2.414,1.551,2.414h1.331c.016,0,.031-.006.046-.007C3599.2,4460.937,3598.533,4459.876,3598.533,4458.567Z" transform="translate(-3597.111 -4456.153)" fill="#231815"/></g><path d="M3603.5,4454.031h-2.069l.23,3.22c0,.789.41,1.431.919,1.431a.436.436,0,0,0,.066-.011.469.469,0,0,0,.067.011c.508,0,.92-.642.92-1.431v-3.22Z" transform="translate(-3599.613 -4454.031)" fill="#5084c4"/><path d="M3603.6,4459.612c-.341,0-.614.427-.614.954s.273.955.614.955c.082,0,.8-.008.8-.955S3603.686,4459.612,3603.6,4459.612Z" transform="translate(-3600.513 -4457.262)" fill="#dbdcdc"/></g><g transform="translate(6.074 48.798)"><path d="M3479.554,4377.906h28.48v0a.384.384,0,0,0-.365.374h-28.5A.385.385,0,0,1,3479.554,4377.906Z" transform="translate(-3479.148 -4377.864)" fill="#fbd6a0"/><path d="M3546.838,4378.282a.385.385,0,0,1,.384-.376h24.22a.381.381,0,0,1,.383.376Z" transform="translate(-3518.316 -4377.864)" fill="#b09060"/><path d="M3479.554,4447.208h28.48v0a.383.383,0,0,1-.365-.373h-28.5A.384.384,0,0,0,3479.554,4447.208Z" transform="translate(-3479.148 -4417.761)" fill="#cea75f"/><path d="M3546.838,4446.832a.384.384,0,0,0,.384.376h24.22a.38.38,0,0,0,.383-.376Z" transform="translate(-3518.316 -4417.761)" fill="#90764d"/><rect width="25.033" height="28.65" transform="translate(28.491 0.419)" fill="#c4a064"/><rect width="28.491" height="28.65" transform="translate(0 0.419)" fill="#eabe6c"/><rect width="3.789" height="2.524" transform="translate(39.257)" fill="#eabe6c"/><rect width="3.789" height="2.526" transform="translate(39.257 26.921)" fill="#eabe6c"/></g><g transform="translate(9.119 51.521)"><path d="M3487.186,4384.271a.191.191,0,0,1-.055.125.2.2,0,0,1-.142.063.227.227,0,0,1-.142-.062.193.193,0,0,1-.056-.125h-.447v6.905h.441a.186.186,0,0,1,.062-.143.2.2,0,0,1,.283,0,.181.181,0,0,1,.062.143h13.032v-6.905Zm-.2,6.578a.208.208,0,0,1,0-.416.208.208,0,0,1,0,.416Zm0-.539a.2.2,0,0,1-.2-.2.209.209,0,0,1,.2-.206.2.2,0,0,1,.2.206A.2.2,0,0,1,3486.989,4390.311Zm0-.532a.2.2,0,0,1-.2-.2.209.209,0,0,1,.2-.207.2.2,0,0,1,.2.207A.2.2,0,0,1,3486.989,4389.779Zm0-.531a.2.2,0,0,1-.2-.2.206.206,0,0,1,.2-.206.2.2,0,0,1,.2.206A.2.2,0,0,1,3486.989,4389.248Zm0-.532a.209.209,0,0,1-.2-.2.2.2,0,0,1,.2-.2.2.2,0,0,1,.2.2A.2.2,0,0,1,3486.989,4388.716Zm0-.531a.21.21,0,0,1-.2-.2.2.2,0,0,1,.2-.2.2.2,0,0,1,.2.2A.206.206,0,0,1,3486.989,4388.185Zm0-.538a.2.2,0,0,1-.2-.205.211.211,0,0,1,.2-.205.206.206,0,0,1,.2.205A.2.2,0,0,1,3486.989,4387.647Zm0-.531a.2.2,0,0,1-.2-.2.209.209,0,0,1,.2-.2.2.2,0,0,1,.2.2A.2.2,0,0,1,3486.989,4387.116Zm0-.533a.2.2,0,0,1-.2-.2.21.21,0,0,1,.2-.206.206.206,0,0,1,.2.206A.2.2,0,0,1,3486.989,4386.583Zm0-.532a.2.2,0,0,1,0-.408.2.2,0,0,1,0,.408Zm0-.529a.21.21,0,0,1-.2-.206.2.2,0,0,1,.2-.2.2.2,0,0,1,.2.2A.206.206,0,0,1,3486.989,4385.522Zm0-.532a.209.209,0,0,1-.2-.2.2.2,0,0,1,.2-.2.2.2,0,0,1,.2.2A.2.2,0,0,1,3486.989,4384.99Z" transform="translate(-3486.345 -4384.271)" fill="#fff"/><g transform="translate(1.872 0.855)"><path d="M3497.137,4390.911h-3.678a.226.226,0,0,1,0-.451h3.678a.226.226,0,0,1,0,.451Z" transform="translate(-3492.204 -4388.708)" fill="#c8c9ca"/><path d="M3494.692,4386.752h-3.677a.225.225,0,1,1,0-.451h3.677a.225.225,0,1,1,0,.451Z" transform="translate(-3490.789 -4386.302)" fill="#c8c9ca"/><path d="M3496.421,4388.573h-5.406a.225.225,0,1,1,0-.45h5.406a.225.225,0,1,1,0,.45Z" transform="translate(-3490.789 -4387.355)" fill="#c8c9ca"/><path d="M3511,4390.911h-2.365a.226.226,0,0,1,0-.451H3511a.226.226,0,0,1,0,.451Z" transform="translate(-3500.989 -4388.708)" fill="#c8c9ca"/><g transform="translate(0 3)"><path d="M3497.137,4398.032h-3.678a.225.225,0,0,1,0-.451h3.678a.225.225,0,1,1,0,.451Z" transform="translate(-3492.204 -4395.831)" fill="#c8c9ca"/><path d="M3494.692,4393.877h-3.677a.226.226,0,1,1,0-.451h3.677a.226.226,0,0,1,0,.451Z" transform="translate(-3490.789 -4393.426)" fill="#c8c9ca"/><path d="M3496.421,4395.693h-5.406a.225.225,0,1,1,0-.451h5.406a.225.225,0,0,1,0,.451Z" transform="translate(-3490.789 -4394.478)" fill="#c8c9ca"/></g></g><path d="M3500.909,4385.089H3489.79a.6.6,0,0,0-.6.6v5.022a.6.6,0,0,0,.6.6h11.118a.6.6,0,0,0,.6-.6v-5.022A.6.6,0,0,0,3500.909,4385.089Zm.421.6v.965h-4.885v-1.386h4.464A.421.421,0,0,1,3501.33,4385.69Zm-4.885,3.994v-1.115h4.885v1.115Zm0-1.2v-1.735h4.885v1.735Zm-6.654-3.21h6.475v2.879h-6.9v-2.459A.422.422,0,0,1,3489.79,4385.27Zm-.422,5.443v-2.472h6.9v2.893h-6.475A.422.422,0,0,1,3489.368,4390.713Z" transform="translate(-3487.99 -4384.745)" fill="#ed85a7"/></g><g transform="translate(64.441 20.468)"><path d="M3624.96,4319.166c1.414-2.1,2.041-5.407,2.252-7.375a12.468,12.468,0,0,0,.046-1.25,16.238,16.238,0,0,0-.786,2.9c-.392,1.96-1.075,5.068-2.808,6.294a62.843,62.843,0,0,1-5.964,3.744s.045.152.123.429C3620.475,4322.432,3624.316,4320.122,3624.96,4319.166Z" transform="translate(-3617.701 -4310.542)" fill="#fff"/><path d="M3635.844,4312.9a16.929,16.929,0,0,1-3.068,10.11,17.187,17.187,0,0,1-5.066,4.428,49.632,49.632,0,0,1-6.061,3.137c.1.264.166.441.166.441a42.469,42.469,0,0,0,7.394-4,15.219,15.219,0,0,0,4.162-4.05C3636.13,4318.725,3636.313,4315.649,3635.844,4312.9Z" transform="translate(-3619.986 -4311.907)" fill="#fff"/></g><g transform="translate(91.014 78.069)"><path d="M3681.308,4453.8a3.287,3.287,0,0,1,2.084-.182c.075-.241.153-.492.224-.746a3.506,3.506,0,0,0-2.312.079C3681.318,4453.251,3681.321,4453.54,3681.308,4453.8Z" transform="translate(-3681.09 -4450.435)" fill="#00254d"/><path d="M3683.54,4449.005c.173-.611.324-1.164.417-1.51a5.819,5.819,0,0,0-3.16.1c.056.4.129,1,.177,1.619A5.709,5.709,0,0,1,3683.54,4449.005Z" transform="translate(-3680.797 -4447.309)" fill="#00254d"/></g><path d="M3635.687,4297.923a3.286,3.286,0,0,1-1.264,1.685s4.754.879,4.521,3.821c0,0,2.333-.42,3.033.653C3641.978,4304.082,3642.278,4299.515,3635.687,4297.923Z" transform="translate(-3562.939 -4282.769)" fill="#fff"/><path d="M3614.565,4298.188s-3.361,1.494-4.015,2.661l-.42-.467s.607-1.4,3.782-2.8C3613.912,4297.582,3614.612,4298.142,3614.565,4298.188Z" transform="translate(-3548.878 -4282.572)" fill="#fff"/></g><path d="M3630.608,4311.634s-.7,6.861.186,8.823l.42.094,1.354-1.354a43.981,43.981,0,0,1-.093-5.7l1.681.233.233-1.915S3631.028,4311.539,3630.608,4311.634Z" transform="translate(-3560.58 -4290.694)" fill="#fff"/><path d="M3613.435,4311.381a23.716,23.716,0,0,1,4.417.021s.273,8.341-.358,9.377l-1.6-.094.163-7.726-2.561.029Z" transform="translate(-3550.792 -4290.498)" fill="#fff"/><path d="M3639.758,4331.012l-2.428-1.728s-2.568,4.388-5.695,5.556l1.773,2.615,2.941-2.242,2.148-2.194Z" transform="translate(-3561.326 -4300.922)" fill="#fff"/><path d="M3599.955,4323.19a9.234,9.234,0,0,1-.658,2.413,9.77,9.77,0,0,1-3.046,2.847l.8.715c4.575-2.1,4.295-5.79,4.295-5.79Z" transform="translate(-3540.845 -4297.395)" fill="#fff"/><path d="M3619.8,4262.392a6.593,6.593,0,0,0-6.082.632,5.449,5.449,0,0,0-2.238,3.265l-.018.16a18.064,18.064,0,0,1,8.169.372,3.14,3.14,0,0,1,2.66-2.774A5.038,5.038,0,0,0,3619.8,4262.392Z" transform="translate(-3549.648 -4261.942)" fill="#fff"/><g transform="translate(6.709 28.783)"><rect width="3.038" height="1.334" rx="0.667" transform="translate(2.233 18.611)" fill="#3d3d3d"/><rect width="3.038" height="1.334" rx="0.667" transform="translate(26.564 18.611)" fill="#3d3d3d"/><path d="M361.353,1362.278a1.056,1.056,0,0,0-1.056,1.056v16.648a1.056,1.056,0,0,0,1.056,1.056H385.3v-18.76Z" transform="translate(-360.025 -1362.24)" fill="#4d4d4d"/><path d="M3.091,0h13.54a3.092,3.092,0,0,1,3.092,3.092V8.251a3.091,3.091,0,0,1-3.091,3.091H3.091A3.091,3.091,0,0,1,0,8.251V3.091A3.091,3.091,0,0,1,3.091,0Z" transform="translate(2.911 4.694)" fill="#e6e6e6"/><path d="M602.035,1362.278h-5.358v18.76h5.358a1.056,1.056,0,0,0,1.056-1.056v-16.648A1.056,1.056,0,0,0,602.035,1362.278Z" transform="translate(-571.404 -1362.24)" fill="#333"/><g transform="translate(25.811 3.59)"><g transform="translate(0 0)"><circle cx="2.221" cy="2.221" r="2.221" transform="translate(0 4.326) rotate(-76.838)" fill="#4d4d4d"/><circle cx="1.901" cy="1.901" r="1.901" transform="translate(0.384 4.087) rotate(-76.821)" fill="#333"/><circle cx="1.764" cy="1.764" r="1.764" transform="translate(0.534 3.96) rotate(-76.168)" fill="#4d4d4d"/><path d="M622.287,1402.787h-.508a5.97,5.97,0,0,0-.032,3.859h.544A6.956,6.956,0,0,0,622.287,1402.787Z" transform="translate(-619.375 -1402.055)" fill="#333"/></g><g transform="translate(0 6.317)"><circle cx="2.221" cy="2.221" r="2.221" transform="translate(0 4.326) rotate(-76.838)" fill="#4d4d4d"/><circle cx="1.901" cy="1.901" r="1.901" transform="translate(0.384 4.087) rotate(-76.821)" fill="#333"/><circle cx="1.764" cy="1.764" r="1.764" transform="translate(0.549 3.984) rotate(-76.813)" fill="#4d4d4d"/><path d="M612.69,1476.115v-.508a5.97,5.97,0,0,0-3.859-.032v.544A6.958,6.958,0,0,0,612.69,1476.115Z" transform="translate(-608.084 -1473.203)" fill="#333"/></g></g><rect width="19.092" height="1.518" transform="translate(3.227)" fill="#4d4d4d"/><path d="M382.951,1364.436h-2.909a45,45,0,0,1-19.091,0h-2.909a.318.318,0,0,1-.318-.318v-1.856a.342.342,0,0,1,.341-.342h2.886a42.409,42.409,0,0,0,19.091,0h2.886a.342.342,0,0,1,.341.342v1.856A.318.318,0,0,1,382.951,1364.436Z" transform="translate(-357.723 -1361.921)" fill="#333"/><g transform="translate(3.85 8.068)"><path d="M403.106,1443.814h8.681a.3.3,0,0,0,.28-.416l-1.751-3.982a.293.293,0,0,1-.025-.118v-.8a.3.3,0,0,0-.305-.3H396.226a.3.3,0,0,0-.305.3v.794a.29.29,0,0,1-.025.118l-1.751,3.987a.3.3,0,0,0,.28.416Z" transform="translate(-394.12 -1438.202)" fill="none" stroke="#b3b3b3" stroke-linecap="round" stroke-linejoin="round" stroke-width="1"/><line y2="5.612" transform="translate(8.986 0)" fill="none" stroke="#b3b3b3" stroke-linecap="round" stroke-linejoin="round" stroke-width="1"/><path d="M461.168,1438.2v1.154l-.545,4.459" transform="translate(-453.59 -1438.202)" fill="none" stroke="#b3b3b3" stroke-linecap="round" stroke-linejoin="round" stroke-width="1"/><path d="M443.783,1438.2v1.164l-1.122,4.449" transform="translate(-437.527 -1438.202)" fill="none" stroke="#b3b3b3" stroke-linecap="round" stroke-linejoin="round" stroke-width="1"/><path d="M427.4,1438.2v1.154l-1.425,4.459" transform="translate(-422.608 -1438.202)" fill="none" stroke="#b3b3b3" stroke-linecap="round" stroke-linejoin="round" stroke-width="1"/><path d="M410.719,1438.2v1.154l-1.771,4.459" transform="translate(-407.38 -1438.202)" fill="none" stroke="#b3b3b3" stroke-linecap="round" stroke-linejoin="round" stroke-width="1"/><path d="M492.4,1438.2v1.154l.544,4.459" transform="translate(-482.001 -1438.202)" fill="none" stroke="#b3b3b3" stroke-linecap="round" stroke-linejoin="round" stroke-width="1"/><path d="M504.9,1438.2v1.164l1.122,4.449" transform="translate(-493.183 -1438.202)" fill="none" stroke="#b3b3b3" stroke-linecap="round" stroke-linejoin="round" stroke-width="1"/><path d="M518.715,1438.2v1.154l1.425,4.459" transform="translate(-505.537 -1438.202)" fill="none" stroke="#b3b3b3" stroke-linecap="round" stroke-linejoin="round" stroke-width="1"/><path d="M532.476,1438.2v1.154l1.771,4.459" transform="translate(-517.843 -1438.202)" fill="none" stroke="#b3b3b3" stroke-linecap="round" stroke-linejoin="round" stroke-width="1"/></g></g><g transform="translate(38.296 12.809)"><g transform="translate(6.346 58.734)"><path d="M1165.124,739.375a10.771,10.771,0,0,0-.108,1.439h2.561a10.75,10.75,0,0,0-.108-1.439,2.732,2.732,0,0,1-2.345,0Z" transform="translate(-1165.016 -738.464)" fill="#bab9b9"/><path d="M1167.448,728.771h-1.013s-.085.374-.159.911a2.732,2.732,0,0,0,2.345,0c-.074-.537-.159-.911-.159-.911Z" transform="translate(-1166.167 -728.771)" fill="#a6a5a5"/></g><path d="M0,0H.869a0,0,0,0,1,0,0V0A.253.253,0,0,1,.617.253H.253A.253.253,0,0,1,0,0V0A0,0,0,0,1,0,0Z" transform="translate(0.789 65.357)" fill="#8c8c8c"/><path d="M.253,0H.617A.253.253,0,0,1,.869.253v0a0,0,0,0,1,0,0H0a0,0,0,0,1,0,0v0A.253.253,0,0,1,.253,0Z" transform="translate(14.464 65.61) rotate(180)" fill="#8c8c8c"/><path d="M0,0H.869a0,0,0,0,1,0,0V0A.253.253,0,0,1,.617.253H.253A.253.253,0,0,1,0,0V0A0,0,0,0,1,0,0Z" transform="translate(3.35 65.357)" fill="#8c8c8c"/><path d="M0,0H.869a0,0,0,0,1,0,0V0A.253.253,0,0,1,.617.253H.253A.253.253,0,0,1,0,0V0A0,0,0,0,1,0,0Z" transform="translate(5.911 65.357)" fill="#8c8c8c"/><path d="M0,0H.869a0,0,0,0,1,0,0V0A.253.253,0,0,1,.617.253H.253A.253.253,0,0,1,0,0V0A0,0,0,0,1,0,0Z" transform="translate(8.472 65.357)" fill="#8c8c8c"/><path d="M0,0H.869a0,0,0,0,1,0,0V0A.253.253,0,0,1,.617.253H.253A.253.253,0,0,1,0,0V0A0,0,0,0,1,0,0Z" transform="translate(11.034 65.357)" fill="#8c8c8c"/><path d="M1105.842,796.864h-14.186c-.261,0-.485-.068-.533-.3v.245a.546.546,0,0,0,.544.556h14.164a.546.546,0,0,0,.544-.556v-.245C1106.327,796.8,1106.1,796.864,1105.842,796.864Z" transform="translate(-1091.122 -732.005)" fill="#bab9b9"/><g transform="translate(3.586 45.566)"><path d="M1153.912,709.426a3.643,3.643,0,0,1-2.444-.866c.377,1.287,1.2,2.276,2.444,2.276s2.067-.989,2.444-2.276A3.643,3.643,0,0,1,1153.912,709.426Z" transform="translate(-1149.871 -697.127)" fill="#c44823"/><path d="M1140.949,576.175H1140l-.369-.415a.975.975,0,0,0-.728-.327h-3.961a.974.974,0,0,0-.728.327l-.369.415h-.952c-.147,3,1.211,9.179,1.521,10.451q.03.122.065.24a3.881,3.881,0,0,0,4.888,0c.023-.079.045-.159.064-.24C1139.738,585.354,1141.1,579.178,1140.949,576.175Z" transform="translate(-1132.879 -575.433)" fill="#9f3718"/></g><path d="M1147.077,603.606c.77,0,1.575-.33,1.715-.729a65.108,65.108,0,0,0,1.365-8.093,1.092,1.092,0,0,0-1.087-1.2h-3.987a1.093,1.093,0,0,0-1.087,1.2,65.2,65.2,0,0,0,1.365,8.093c.14.4.946.729,1.715.729Z" transform="translate(-1139.451 -546.456)" fill="#6d6d6d"/><path d="M.3,0h.83a.3.3,0,0,1,.3.3v0a.3.3,0,0,1-.3.3H.3A.3.3,0,0,1,0,.3v0A.3.3,0,0,1,.3,0Z" transform="translate(6.915 46.027)" fill="#f0f0f0"/><g transform="translate(3.597)"><path d="M1165.007,45.474a.466.466,0,0,0-.065-.2.837.837,0,0,0-1.463,0,.461.461,0,0,0-.065.2c-.089,3.011-.428,17.5-.68,27.655h2.953C1165.435,62.97,1165.1,48.485,1165.007,45.474Z" transform="translate(-1160.18 -44.844)" fill="#c44823"/><path d="M1139.527,460.82a5.357,5.357,0,0,1-.733-2.977c-.013-.057-.051-1.31-.1-3.329h-3.305c-.054,2.019-.092,3.271-.105,3.329a5.357,5.357,0,0,1-.733,2.977c-.66.937-1.393,1.816-1.539,4.82h.952l.369-.415a.973.973,0,0,1,.728-.327h3.961a.974.974,0,0,1,.728.327l.369.415h.953C1140.92,462.636,1140.186,461.757,1139.527,460.82Z" transform="translate(-1133.007 -419.332)" fill="#c44823"/><path d="M1163.984,380.586H1161c-.055,2.218-.105,4.209-.148,5.8h3.275C1164.089,384.795,1164.039,382.8,1163.984,380.586Z" transform="translate(-1158.464 -351.753)" fill="#c44823"/><path d="M1163.976,448.126H1160.7q-.008.283-.015.549h3.3Q1163.984,448.409,1163.976,448.126Z" transform="translate(-1158.309 -413.493)" fill="#bab9b9"/><path d="M1165.542,374.2h-2.953q-.007.277-.014.549h2.981Q1165.549,374.475,1165.542,374.2Z" transform="translate(-1160.036 -345.915)" fill="#bab9b9"/></g><path d="M1174.442,103.59a.516.516,0,0,1-.516-.515v-.9a.516.516,0,0,1,1.031,0v.9A.516.516,0,0,1,1174.442,103.59Z" transform="translate(-1166.815 -96.781)" fill="#666"/><g transform="translate(7.308 5.076)"><path d="M1176.858,104.275a.318.318,0,1,0-.636,0v.449h.636Z" transform="translate(-1176.222 -103.957)" fill="gray"/><path d="M1176.222,112.9v.45a.318.318,0,0,0,.636,0v-.45Z" transform="translate(-1176.222 -112.128)" fill="#666"/></g><path d="M1173.944,430.49a.523.523,0,1,1,.523.523A.523.523,0,0,1,1173.944,430.49Z" transform="translate(-1166.831 -396.893)" fill="#666"/><circle cx="0.316" cy="0.316" r="0.316" transform="translate(7.32 33.281)" fill="#bab9b9"/><g transform="translate(5.201 47.785)"><path d="M1161.227,630.232c.134.7.287,1.432.461,2.185a.536.536,0,0,0,.32.376,2.237,2.237,0,0,0,1.65,0,.535.535,0,0,0,.32-.377c.534-2.321.873-4.444,1.079-6.012Z" transform="translate(-1160.408 -624.247)" fill="#1f1f1f"/><path d="M1156.535,601.752a.432.432,0,0,0-.429-.476h-3.987a.431.431,0,0,0-.429.476c.116,1.132.359,3.129.817,5.509l3.831-3.826C1156.426,602.762,1156.49,602.192,1156.535,601.752Z" transform="translate(-1151.687 -601.276)" fill="#515151"/></g><path d="M1106.36,754.63l-.259-1.272a1.853,1.853,0,0,0-1.218-1.318l-4.147-1.189a.617.617,0,0,0-.7.251.455.455,0,0,1-.407.176h-1.76a.455.455,0,0,1-.407-.176.616.616,0,0,0-.7-.251l-4.147,1.189a1.852,1.852,0,0,0-1.218,1.318l-.259,1.272c-.082.333.175.424.518.424h14.186C1106.185,755.054,1106.442,754.963,1106.36,754.63Z" transform="translate(-1091.122 -690.194)" fill="#c44823"/></g></g></g></g></svg>