<svg xmlns="http://www.w3.org/2000/svg" width="140" height="140" viewBox="0 0 140 140"><g transform="translate(0 -0.477)"><circle cx="70" cy="70" r="70" transform="translate(0 0.477)" fill="#f7f3e5"/><g transform="translate(489.102 -361.928)"><path d="M-407.7,431.8h-44.751a8.093,8.093,0,0,0-8.093,8.094,8.094,8.094,0,0,0,7.26,8.05v.013h1.321a3.035,3.035,0,0,1,3.035,3.035v.239a3.035,3.035,0,0,1-3.035,3.035h-1.321v.03h-6.189a5.237,5.237,0,0,0-5.236,5.236h0a5.237,5.237,0,0,0,5.236,5.237H-445.7v.01h1.321a3.035,3.035,0,0,1,3.035,3.035v.238a3.035,3.035,0,0,1-3.035,3.035h-2.614a1.423,1.423,0,0,0-1.33,1.418,1.428,1.428,0,0,0,1.428,1.428h38.8v-2.857Z" transform="translate(0 -13.717)" fill="#ffd809"/><g transform="translate(-446.657 396.602)"><g transform="translate(16.963 17.291)"><g transform="translate(0 0)"><rect width="3.055" height="4.392" transform="translate(2.938 4.048) rotate(-23.177)" fill="#15a58e"/><path d="M1.22,0h5.2a1.22,1.22,0,0,1,1.22,1.22v0a1.22,1.22,0,0,1-1.22,1.22H1.22A1.22,1.22,0,0,1,0,1.22v0A1.22,1.22,0,0,1,1.22,0Z" transform="matrix(0.919, -0.394, 0.394, 0.919, 0, 3.006)" fill="#15a58e"/></g><g transform="translate(26.35 2.882)"><rect width="4.392" height="3.055" transform="matrix(0.621, -0.784, 0.784, 0.621, 0, 6.522)" fill="#15a58e"/><path d="M1.22,0h0A1.22,1.22,0,0,1,2.44,1.22v5.2a1.22,1.22,0,0,1-1.22,1.22h0A1.22,1.22,0,0,1,0,6.417V1.22A1.22,1.22,0,0,1,1.22,0Z" transform="translate(0.73 1.912) rotate(-51.603)" fill="#15a58e"/></g></g><g transform="translate(27.162)"><rect width="4.83" height="5.205" transform="matrix(0.132, -0.991, 0.991, 0.132, 5.186, 18.847)" fill="#177e6d"/><rect width="4.093" height="6.289" transform="matrix(0.132, -0.991, 0.991, 0.132, 4.215, 22.021)" fill="#15a58e"/><g transform="translate(0.641 1.047)"><path d="M-382.4,414.193a8.111,8.111,0,0,1-7.1-8.989,8.11,8.11,0,0,1,9.21-6.81,8.111,8.111,0,0,1,7.1,8.989A8.111,8.111,0,0,1-382.4,414.193Zm1.928-14.429a6.7,6.7,0,0,0-7.612,5.628,6.7,6.7,0,0,0,5.867,7.428,6.7,6.7,0,0,0,7.612-5.628A6.7,6.7,0,0,0-380.472,399.764Z" transform="translate(389.567 -398.317)" fill="#15a58e"/></g><path d="M-382.88,414.363a8.928,8.928,0,0,1-7.659-10.021,8.929,8.929,0,0,1,10.021-7.66,8.93,8.93,0,0,1,7.66,10.022A8.93,8.93,0,0,1-382.88,414.363Zm2.168-16.23a7.463,7.463,0,0,0-8.377,6.4,7.464,7.464,0,0,0,6.4,8.377,7.463,7.463,0,0,0,8.377-6.4A7.464,7.464,0,0,0-380.711,398.133Z" transform="translate(390.618 -396.602)" fill="#15a58e"/><rect width="2.62" height="8.133" rx="1.31" transform="matrix(0.132, -0.991, 0.991, 0.132, 3.931, 17.193)" fill="#15a58e"/><g transform="translate(4.863 10.147)"><path d="M-378.081,413.275a4.091,4.091,0,0,0-3.521,1.062l6.639.887A4.092,4.092,0,0,0-378.081,413.275Z" transform="translate(382.241 -413.23)" fill="#15a58e"/><path d="M-382.01,415.043a2.318,2.318,0,0,0-.621,1.276,2.326,2.326,0,0,0,.29,1.443l6.574.879a2.331,2.331,0,0,0,.659-1.316,2.319,2.319,0,0,0-.264-1.394Z" transform="translate(382.65 -413.937)" fill="#15a58e"/></g></g><g transform="translate(0 11.033)"><circle cx="22.555" cy="22.555" r="22.555" transform="translate(0 27.094) rotate(-36.914)" fill="#15a58e"/><g transform="translate(13.138 13.138)"><circle cx="18.443" cy="18.443" r="18.443" fill="#ddd"/></g><g transform="translate(12.77 12.77)"><path d="M-397.883,473.062a18.831,18.831,0,0,1-16.153-21.134A18.83,18.83,0,0,1-392.9,435.775a18.83,18.83,0,0,1,16.152,21.134A18.831,18.831,0,0,1-397.883,473.062ZM-393,436.5a18.1,18.1,0,0,0-20.312,15.524,18.1,18.1,0,0,0,15.524,20.311,18.1,18.1,0,0,0,20.312-15.524A18.1,18.1,0,0,0-393,436.5Z" transform="translate(414.203 -435.608)" fill="#15a58e"/></g><g transform="translate(10.81 9.452)"><circle cx="16.211" cy="16.211" r="16.211" transform="matrix(0.483, -0.876, 0.876, 0.483, 0, 28.391)" fill="#fff"/></g></g><rect width="2.169" height="14.748" rx="1.084" transform="matrix(0.84, -0.542, 0.542, 0.84, 23.321, 31.965)" fill="#de2837"/><g transform="translate(31.598 42.262)"><path d="M-366.956,469.756a.832.832,0,0,1-.122-.008l-15.478-2.067a.915.915,0,0,1-.786-1.028.911.911,0,0,1,1.028-.786l15.478,2.067a.915.915,0,0,1,.786,1.028A.915.915,0,0,1-366.956,469.756Z" transform="translate(383.349 -465.856)" fill="#de2837"/></g><g transform="translate(29.123 40.024)"><path d="M-381.575,465.505a2.927,2.927,0,0,1-3.29,2.514,2.927,2.927,0,0,1-2.514-3.289,2.928,2.928,0,0,1,3.29-2.515A2.928,2.928,0,0,1-381.575,465.505Z" transform="translate(387.405 -462.189)" fill="#de2837"/></g></g></g></g></svg>