<svg xmlns="http://www.w3.org/2000/svg" width="140" height="140" viewBox="0 0 140 140"><g transform="translate(-53 -0.101)"><circle cx="70" cy="70" r="70" transform="translate(53 0.101)" fill="#f7f3e5"/><g transform="translate(85.762 33.788)"><path d="M6.91,47.875.049,99.168a4.919,4.919,0,0,0,5.169,5.576H51.643a6.783,6.783,0,0,0,6.662-5.576l6.862-51.293Zm0,0" transform="translate(0 -40.484)" fill="#c9b77d"/><path d="M115.065,103.519l-9.211-55.652H47.6l9.211,55.652a7.254,7.254,0,0,0,6.83,5.968H110.21A4.879,4.879,0,0,0,115.065,103.519Zm0,0" transform="translate(-40.673 -40.477)" fill="#ffeead"/><path d="M105.854,47.867H47.6L50,62.36h58.256Zm0,0" transform="translate(-40.673 -40.477)" fill="#03a58e"/><path d="M401.464,208.754h-5.132L397.2,214h5.132Zm0,0" transform="translate(-338.68 -177.961)" fill="#ff6f69"/><g transform="translate(17.07 30.793)"><path d="M354.964,208.754h-5.132L350.7,214h5.132Zm0,0" transform="translate(-316.014 -208.754)" fill="#96ceb4"/><path d="M308.464,208.754h-5.132L304.2,214h5.133Zm0,0" transform="translate(-276.278 -208.754)" fill="#96ceb4"/><path d="M261.972,208.754H256.84l.868,5.242h5.132Zm0,0" transform="translate(-236.549 -208.754)" fill="#96ceb4"/><path d="M215.472,208.754H210.34l.868,5.242h5.132Zm0,0" transform="translate(-196.813 -208.754)" fill="#96ceb4"/><path d="M168.972,208.754H163.84l.868,5.242h5.133Zm0,0" transform="translate(-157.077 -208.754)" fill="#96ceb4"/><path d="M122.476,208.754h-5.132l.868,5.242h5.132Zm0,0" transform="translate(-117.344 -208.754)" fill="#96ceb4"/></g><path d="M409.145,255.176h-5.133l.868,5.243h5.133Zm0,0" transform="translate(-345.243 -217.631)" fill="#ff6f69"/><path d="M362.652,255.176H357.52l.868,5.243h5.132Zm0,0" transform="translate(-305.513 -217.631)" fill="#96ceb4"/><path d="M316.152,255.176H311.02l.868,5.243h5.132Zm0,0" transform="translate(-265.777 -217.631)" fill="#96ceb4"/><path d="M269.652,255.176H264.52l.868,5.243h5.132Zm0,0" transform="translate(-226.041 -217.631)" fill="#96ceb4"/><path d="M223.155,255.176h-5.132l.868,5.243h5.132Zm0,0" transform="translate(-186.308 -217.631)" fill="#96ceb4"/><path d="M176.655,255.176h-5.132l.868,5.243h5.132Zm0,0" transform="translate(-146.572 -217.631)" fill="#96ceb4"/><path d="M130.157,255.176h-5.133l.868,5.243h5.133Zm0,0" transform="translate(-106.836 -217.631)" fill="#96ceb4"/><path d="M416.831,301.6H411.7l.868,5.242H417.7Zm0,0" transform="translate(-351.812 -257.303)" fill="#ff6f69"/><path d="M370.332,301.6H365.2l.868,5.242H371.2Zm0,0" transform="translate(-312.076 -257.303)" fill="#96ceb4"/><path d="M323.835,301.6H318.7l.868,5.242H324.7Zm0,0" transform="translate(-272.343 -257.303)" fill="#96ceb4"/><path d="M277.335,301.6H272.2l.868,5.242H278.2Zm0,0" transform="translate(-232.607 -257.303)" fill="#96ceb4"/><path d="M230.836,301.6H225.7l.868,5.242H231.7Zm0,0" transform="translate(-192.871 -257.303)" fill="#96ceb4"/><path d="M184.34,301.6h-5.133l.868,5.242h5.133Zm0,0" transform="translate(-153.138 -257.303)" fill="#96ceb4"/><path d="M137.84,301.6h-5.133l.868,5.242h5.133Zm0,0" transform="translate(-113.402 -257.303)" fill="#96ceb4"/><path d="M424.515,348.023h-5.132l.868,5.242h5.132Zm0,0" transform="translate(-358.378 -296.973)" fill="#ff6f69"/><path d="M378.015,348.023h-5.132l.868,5.242h5.132Zm0,0" transform="translate(-318.642 -296.973)" fill="#96ceb4"/><path d="M331.519,348.023h-5.133l.868,5.242h5.133Zm0,0" transform="translate(-278.909 -296.973)" fill="#96ceb4"/><path d="M285.019,348.023h-5.133l.868,5.242h5.133Zm0,0" transform="translate(-239.173 -296.973)" fill="#96ceb4"/><path d="M238.519,348.023h-5.133l.868,5.242h5.133Zm0,0" transform="translate(-199.437 -296.973)" fill="#96ceb4"/><path d="M192.027,348.023h-5.132l.868,5.242h5.132Zm0,0" transform="translate(-159.707 -296.973)" fill="#96ceb4"/><path d="M145.527,348.023h-5.132l.868,5.242h5.132Zm0,0" transform="translate(-119.971 -296.973)" fill="#96ceb4"/><path d="M387.83,78.91a1.8,1.8,0,0,0-1.563,2.071,2,2,0,0,0,1.74,2.071,1.8,1.8,0,0,0,1.563-2.071A2,2,0,0,0,387.83,78.91Zm0,0" transform="translate(-330.078 -67.005)" fill="#025035"/><path d="M380.539,70.262a2.978,2.978,0,0,0-2.74,3.329,3.3,3.3,0,0,0,3.025,3.329,2.978,2.978,0,0,0,2.74-3.329A3.3,3.3,0,0,0,380.539,70.262Zm.231,5.4a2,2,0,0,1-1.74-2.071,1.8,1.8,0,0,1,1.563-2.071,2,2,0,0,1,1.74,2.071A1.8,1.8,0,0,1,380.77,75.661Zm0,0" transform="translate(-322.84 -59.614)" fill="#016e48"/><path d="M360,.5c-2.555,0-4.451,2.977-4.467,6.89h2.335c.045-2.611,1.162-4.375,2.24-4.375,1.157,0,2.534,2.039,2.659,4.966.1,2.421-.7,4.235-1.637,4.789a1.2,1.2,0,0,0-.557,1.1,1.219,1.219,0,0,0,1.709,1.148c1.794-1.034,2.96-3.757,2.819-7.035C364.924,3.786,362.684.5,360,.5Zm0,0" transform="translate(-303.818)" fill="#c9b77d"/><path d="M315.787,78.91a1.8,1.8,0,0,0-1.563,2.071,2,2,0,0,0,1.74,2.071,1.8,1.8,0,0,0,1.563-2.071A2,2,0,0,0,315.787,78.91Zm0,0" transform="translate(-268.514 -67.005)" fill="#025035"/><path d="M308.489,70.262a2.978,2.978,0,0,0-2.74,3.329,3.3,3.3,0,0,0,3.025,3.329,2.978,2.978,0,0,0,2.74-3.329A3.3,3.3,0,0,0,308.489,70.262Zm.232,5.4a2,2,0,0,1-1.74-2.071,1.8,1.8,0,0,1,1.563-2.071,2,2,0,0,1,1.74,2.071A1.8,1.8,0,0,1,308.721,75.661Zm0,0" transform="translate(-261.27 -59.614)" fill="#016e48"/><path d="M287.959.5c-2.555,0-4.451,2.977-4.467,6.89h2.335c.045-2.611,1.162-4.375,2.241-4.375,1.157,0,2.534,2.039,2.659,4.966.1,2.421-.7,4.235-1.637,4.789a1.2,1.2,0,0,0-.557,1.1,1.219,1.219,0,0,0,1.709,1.148c1.794-1.034,2.96-3.757,2.819-7.035C292.881,3.786,290.64.5,287.959.5Zm0,0" transform="translate(-242.254)" fill="#c9b77d"/><path d="M243.739,78.91a1.8,1.8,0,0,0-1.563,2.071,2,2,0,0,0,1.739,2.071,1.8,1.8,0,0,0,1.563-2.071A2,2,0,0,0,243.739,78.91Zm0,0" transform="translate(-206.946 -67.005)" fill="#025035"/><path d="M236.446,70.262a2.978,2.978,0,0,0-2.74,3.329,3.3,3.3,0,0,0,3.025,3.329,2.978,2.978,0,0,0,2.74-3.329A3.3,3.3,0,0,0,236.446,70.262Zm.232,5.4a2,2,0,0,1-1.74-2.071A1.8,1.8,0,0,1,236.5,71.52a2,2,0,0,1,1.74,2.071A1.8,1.8,0,0,1,236.677,75.661Zm0,0" transform="translate(-199.706 -59.614)" fill="#016e48"/><path d="M215.916.5c-2.555,0-4.451,2.977-4.467,6.89h2.335c.045-2.611,1.162-4.375,2.241-4.375,1.157,0,2.534,2.039,2.659,4.966.1,2.421-.7,4.235-1.637,4.789a1.2,1.2,0,0,0-.557,1.1,1.219,1.219,0,0,0,1.709,1.148c1.794-1.034,2.96-3.757,2.819-7.035C220.838,3.786,218.6.5,215.916.5Zm0,0" transform="translate(-180.69)" fill="#c9b77d"/><path d="M171.693,78.91a1.8,1.8,0,0,0-1.563,2.071,2,2,0,0,0,1.74,2.071,1.8,1.8,0,0,0,1.563-2.071A2,2,0,0,0,171.693,78.91Zm0,0" transform="translate(-145.38 -67.005)" fill="#025035"/><path d="M164.4,70.262a2.978,2.978,0,0,0-2.74,3.329,3.3,3.3,0,0,0,3.025,3.329,2.978,2.978,0,0,0,2.74-3.329A3.3,3.3,0,0,0,164.4,70.262Zm.231,5.4a2,2,0,0,1-1.74-2.071,1.8,1.8,0,0,1,1.563-2.071,2,2,0,0,1,1.74,2.071A1.8,1.8,0,0,1,164.633,75.661Zm0,0" transform="translate(-138.143 -59.614)" fill="#016e48"/><path d="M143.869.5c-2.555,0-4.451,2.977-4.467,6.89h2.335c.044-2.611,1.161-4.375,2.241-4.375,1.157,0,2.534,2.039,2.659,4.966.1,2.421-.7,4.235-1.637,4.789a1.2,1.2,0,0,0-.557,1.1,1.219,1.219,0,0,0,1.71,1.148c1.794-1.034,2.96-3.757,2.819-7.035C148.791,3.786,146.55.5,143.869.5Zm0,0" transform="translate(-119.123)" fill="#c9b77d"/><path d="M99.65,78.91a1.8,1.8,0,0,0-1.563,2.071,2,2,0,0,0,1.74,2.071,1.8,1.8,0,0,0,1.563-2.071A2,2,0,0,0,99.65,78.91Zm0,0" transform="translate(-83.816 -67.005)" fill="#025035"/><path d="M92.36,70.262a2.978,2.978,0,0,0-2.74,3.329,3.3,3.3,0,0,0,3.025,3.329,2.978,2.978,0,0,0,2.74-3.329A3.3,3.3,0,0,0,92.36,70.262Zm.231,5.4a2,2,0,0,1-1.74-2.071,1.8,1.8,0,0,1,1.563-2.071,2,2,0,0,1,1.74,2.071A1.8,1.8,0,0,1,92.59,75.661Zm0,0" transform="translate(-76.579 -59.614)" fill="#016e48"/><path d="M71.823.5c-2.555,0-4.451,2.977-4.467,6.89h2.335c.044-2.611,1.161-4.375,2.241-4.375,1.157,0,2.534,2.039,2.659,4.966.1,2.421-.7,4.235-1.637,4.789a1.2,1.2,0,0,0-.557,1.1,1.219,1.219,0,0,0,1.71,1.148c1.794-1.034,2.96-3.757,2.819-7.035C76.744,3.786,74.5.5,71.823.5Zm0,0" transform="translate(-57.557)" fill="#c9b77d"/></g></g></svg>