<svg xmlns="http://www.w3.org/2000/svg" xmlns:xlink="http://www.w3.org/1999/xlink" width="140" height="140" viewBox="0 0 140 140">
  <defs>
    <clipPath id="clip-path">
      <circle id="楕円形_476" data-name="楕円形 476" cx="70" cy="70" r="70" transform="translate(53 0.477)" fill="#f7f3e5"/>
    </clipPath>
  </defs>
  <g id="merit_obj10" transform="translate(-53 -0.477)">
    <circle id="楕円形_353" data-name="楕円形 353" cx="70" cy="70" r="70" transform="translate(53 0.477)" fill="#f7f3e5"/>
    <g id="マスクグループ_80" data-name="マスクグループ 80" clip-path="url(#clip-path)">
      <g id="グループ_15508" data-name="グループ 15508" transform="translate(-265.749 -82.489)">
        <g id="グループ_15505" data-name="グループ 15505" transform="translate(324.574 101.969)">
          <rect id="長方形_30224" data-name="長方形 30224" width="7.69" height="8.925" transform="translate(39.135 229.303)" fill="#1b1013"/>
          <path id="パス_89073" data-name="パス 89073" d="M501.224,641.717l-2.763,53.542s-.77,18.291-1.692,26.97-1.379,13.493-1.379,13.493l.948,9.428-3.074,17.356s-6.454-1.335-8.914-1l-2.459.333-.9-24.4.2-10.708-2.624-61.983-4.336-25.272Z" transform="translate(-442.806 -526.613)" fill="#0f090c"/>
          <rect id="長方形_30225" data-name="長方形 30225" width="7.689" height="8.925" transform="translate(25.475 229.171)" fill="#1b1013"/>
          <path id="パス_89074" data-name="パス 89074" d="M388.926,641.371l3.8,57.687s.89,18,1.812,26.678,1.489,10.269,1.489,10.269l-1.845,9.012,3.074,17.356s6.455-1.336,8.913-1l2.459.333.305-29.758-.592-6.426,3.227-62.066,5.325-23.986Z" transform="translate(-375.414 -526.613)" fill="#0f090c"/>
          <path id="パス_89075" data-name="パス 89075" d="M339.195,297.918s-9.638.794-10.808,9.572c-1.109,8.324-7.44,45.04-.878,45.21s10.264-8.143,10.236-9.908.712-31.224.712-31.224Z" transform="translate(-324.574 -256.775)" fill="#0f090c"/>
          <path id="パス_89076" data-name="パス 89076" d="M599.1,297.918s9.9.953,10.988,9.28c1.141,8.7,6.868,46.064.292,46.234s-9.858-8.875-9.83-10.64-.713-31.224-.713-31.224Z" transform="translate(-541.454 -256.775)" fill="#0f090c"/>
          <path id="パス_89077" data-name="パス 89077" d="M417.75,257.118l-12.918,11.956,17.862,45.07,20.272-43.891-12.8-13.163Z" transform="translate(-387.98 -224.519)" fill="#fff"/>
          <path id="パス_89078" data-name="パス 89078" d="M476.52,227.128l1.261,7.6-7.349,8.754-7.526-8.311,1.94-9.163Z" transform="translate(-433.861 -199.962)" fill="#edbf98"/>
          <path id="パス_89079" data-name="パス 89079" d="M491.925,316.083c-.049,3.3,5.248,24.982,3.27,26.243-.894.57-20.806,1.644-21.554,1.268a6.157,6.157,0,0,1-1.447-2.24c-2.4-4.985-6.325-16.882-6.388-22.078l6.157-20.5.566-1.881,3.81-12.677,4.284-14.258-1.8-9.733,18.479,8.754,4.264,2.5S491.932,316.045,491.925,316.083Z" transform="translate(-436.152 -227)" fill="#0f090c"/>
          <path id="パス_89080" data-name="パス 89080" d="M392.094,319.276c-.069,5.2-3.991,17.093-6.395,22.078a6.155,6.155,0,0,1-1.447,2.24c-.748.377-20.661-.7-21.554-1.268-1.979-1.261,3.32-22.948,3.27-26.243-.007-.038-9.645-44.6-9.645-44.6l4.263-2.5,18.48-8.754-.783,8.031,4.292,15.857,3.459,12.78.693,2.553Z" transform="translate(-349.657 -227)" fill="#0f090c"/>
          <path id="パス_89081" data-name="パス 89081" d="M404.921,318.38a.3.3,0,0,0,.086.036A.318.318,0,0,1,404.921,318.38Z" transform="translate(-388.051 -272.941)" fill="#2c232d"/>
          <path id="パス_89082" data-name="パス 89082" d="M368.3,353.28h-.025a.319.319,0,0,1-.3-.338l.178-2.761c.172-2.679-4.23-19.831-4.274-20a.318.318,0,1,1,.616-.159c.182.71,4.471,17.424,4.293,20.2l-.178,2.76A.317.317,0,0,1,368.3,353.28Z" transform="translate(-355.624 -281.946)" fill="#2c232d"/>
          <path id="パス_89083" data-name="パス 89083" d="M606.165,355.358a.316.316,0,0,1-.285-.325l.071-2.765c.073-2.784,5.851-19.044,6.1-19.735a.318.318,0,1,1,.6.214c-.06.168-5.989,16.854-6.059,19.537l-.071,2.766a.318.318,0,0,1-.327.31Z" transform="translate(-546.815 -283.955)" fill="#2c232d"/>
          <path id="パス_89084" data-name="パス 89084" d="M495.319,549.242c0,.471-.567.853-1.267.853s-1.267-.382-1.267-.853.567-.852,1.267-.852S495.319,548.772,495.319,549.242Z" transform="translate(-457.466 -454.656)" fill="#2c232d"/>
          <path id="パス_89085" data-name="パス 89085" d="M478.664,613.436a1.329,1.329,0,1,1-1.324-1.212A1.272,1.272,0,0,1,478.664,613.436Z" transform="translate(-444.218 -505.087)" fill="#2c232d"/>
          <path id="パス_89086" data-name="パス 89086" d="M488.813,323.925,485.1,337.418l-3.371-13.6c.715-3.3,1.934-8.29,1.934-8.29l-1.151-4.455,1.866-2.017.885-.524.886.524,1.8,2.133-1.083,4.339S488.1,320.628,488.813,323.925Z" transform="translate(-448.731 -265.16)" fill="#234279"/>
          <path id="パス_89087" data-name="パス 89087" d="M449.248,132.014a5.016,5.016,0,0,1,1.78-1.839,11.455,11.455,0,0,1,8.333-.981,11.466,11.466,0,0,1,8.286,1.331,5.009,5.009,0,0,1,1.7,1.912,8.505,8.505,0,0,1,.518,4.385c-.26,4.173-.451,8.35-.744,12.523-.149,2.112-.321,4.226-.546,6.335-.194,1.849-.969,2.7-2.5,3.944a16.57,16.57,0,0,1-3.534,2.44,15.263,15.263,0,0,1-7.687-.161,16.738,16.738,0,0,1-3.435-2.588c-1.48-1.3-2.219-2.19-2.339-4.045-.138-2.115-.225-4.235-.289-6.354-.126-4.18-.148-8.362-.241-12.543A8.519,8.519,0,0,1,449.248,132.014Z" transform="translate(-422.514 -123.192)" fill="#edbf98"/>
          <path id="パス_89088" data-name="パス 89088" d="M432.665,197.542c-2.022.82-2.741,3.34-1.6,5.634s3.7,3.488,5.719,2.669,2.738-3.346,1.6-5.637S434.688,196.721,432.665,197.542Z" transform="translate(-408.276 -177.27)" fill="#edbf98"/>
          <path id="パス_89089" data-name="パス 89089" d="M531.109,197.542c2.023.82,2.741,3.34,1.6,5.634s-3.7,3.488-5.72,2.669-2.736-3.346-1.6-5.637S529.087,196.721,531.109,197.542Z" transform="translate(-482.798 -177.27)" fill="#edbf98"/>
          <path id="パス_89090" data-name="パス 89090" d="M428.938,111.148a10.15,10.15,0,0,1,3.237-4.666,6.866,6.866,0,0,1,2.023-1.294,22.7,22.7,0,0,1,2.311-.362c.07-.514,1.044-1.1,1.454-1.336a21.491,21.491,0,0,1,2.825-1.156c3.586-1.151,7.747.615,10.728,2.548.363.237.721.484,1.071.744a12.772,12.772,0,0,1,4.444,8.152,7.466,7.466,0,0,1,.073,2.829c-.559-.747-.875-1.361-1.328-1.947a7.52,7.52,0,0,1,.822,2.575,16,16,0,0,1-.445,6.074c-1.453-.987-1.985-.324-2.175,1.2-.035.27-.487,3.215-.487,3.215-.02.131-.73-.123-.832-.13a38.007,38.007,0,0,0-1.665-5.07c-.487-.781-1.035-1.52-1.533-2.3a11.333,11.333,0,0,1,.711,3.33,1.477,1.477,0,0,0-.732-.507c-.456-.178-2.768-1.321-3.506-1.687-1.427-.706-3.527-1.779-4.16-3.332a2.066,2.066,0,0,0-.075.984,36.986,36.986,0,0,0,.888,4.289,2.439,2.439,0,0,1-.809-.149,10.718,10.718,0,0,1-1.638-.591,9.645,9.645,0,0,1-2.938-1.83,5.257,5.257,0,0,1-1.383-2.111,2.97,2.97,0,0,1,0-1.563,10,10,0,0,0-1,1.845,41.9,41.9,0,0,0-1.379,5.813c-.007.183.005,2.442-.011,2.446-.574.143-1.109.24-1.109.24s-.529-3.389-.656-3.653c-.5-1.079-.946-1.064-2-.628-.315-.058-.778-3.93-.847-4.313C428.337,116.2,428.024,113.7,428.938,111.148Z" transform="translate(-406.562 -101.969)" fill="#5f3521"/>
          <path id="パス_89095" data-name="パス 89095" d="M447.875,153.475a.426.426,0,0,1-.117,0,.347.347,0,0,1-.26-.409c.06-.281.127-.549.2-.8a.343.343,0,0,1,.424-.238.349.349,0,0,1,.233.428c-.068.235-.132.489-.188.755A.344.344,0,0,1,447.875,153.475Zm.947-2.623a.339.339,0,0,1-.214-.041.344.344,0,0,1-.127-.47,6.952,6.952,0,0,1,.45-.706.336.336,0,0,1,.474-.078.349.349,0,0,1,.077.482,6.847,6.847,0,0,0-.408.641A.355.355,0,0,1,448.822,150.851Zm1.786-2.13a.332.332,0,0,1-.307-.12.346.346,0,0,1,.042-.487c.2-.172.418-.342.644-.508a.341.341,0,0,1,.478.079.351.351,0,0,1-.078.482c-.212.156-.416.316-.605.476A.34.34,0,0,1,450.608,148.722Z" transform="translate(-421.682 -137.973)" fill="#472719"/>
          <path id="パス_89096" data-name="パス 89096" d="M440.034,134.495a.345.345,0,0,1-.135-.451c.051-.11.106-.214.165-.317.078-.142.167-.282.258-.419a.341.341,0,0,1,.472-.088.348.348,0,0,1,.09.479c-.083.122-.16.247-.229.371-.052.09-.1.183-.145.279a.34.34,0,0,1-.457.158A.08.08,0,0,1,440.034,134.495Zm1.724-2.167a.351.351,0,0,1-.085-.076.346.346,0,0,1,.034-.486c.2-.176.413-.349.634-.517a.34.34,0,0,1,.479.069.349.349,0,0,1-.071.484c-.207.16-.412.322-.6.487A.338.338,0,0,1,441.758,132.328Zm2.284-1.575a.355.355,0,0,1-.129-.135.347.347,0,0,1,.138-.468c.234-.13.474-.255.718-.373a.338.338,0,0,1,.454.161.347.347,0,0,1-.16.462c-.231.112-.462.233-.688.358A.341.341,0,0,1,444.042,130.753Z" transform="translate(-415.656 -123.911)" fill="#472719"/>
          <path id="パス_89097" data-name="パス 89097" d="M499.38,146.8a.456.456,0,0,1,.025-.117.34.34,0,0,1,.447-.184c.258.113.512.227.74.346a.35.35,0,0,1,.157.465.335.335,0,0,1-.454.153c-.22-.113-.454-.221-.7-.326A.355.355,0,0,1,499.38,146.8Zm2.385,1.428a.34.34,0,0,1,.08-.2.335.335,0,0,1,.48-.038,7.9,7.9,0,0,1,.6.578.346.346,0,0,1,0,.489.335.335,0,0,1-.483-.016,7.334,7.334,0,0,0-.553-.524A.368.368,0,0,1,501.765,148.228Zm1.759,2.175a.338.338,0,0,1,.169-.286.342.342,0,0,1,.466.133c.131.232.257.48.38.738a.339.339,0,1,1-.611.293c-.116-.241-.234-.474-.357-.692A.334.334,0,0,1,503.525,150.4Z" transform="translate(-462.676 -137.128)" fill="#472719"/>
          <path id="パス_89098" data-name="パス 89098" d="M500.294,119.921a.338.338,0,0,1,.4-.25q.174.037.342.082c.154.042.311.091.464.147a.353.353,0,0,1,.206.443.333.333,0,0,1-.431.21c-.139-.049-.274-.093-.41-.13-.1-.028-.2-.052-.3-.073a.352.352,0,0,1-.267-.407A.169.169,0,0,0,500.294,119.921Zm2.508,1.144a.321.321,0,0,1,.045-.1.336.336,0,0,1,.472-.093c.218.152.439.316.658.494a.349.349,0,0,1,.055.486.332.332,0,0,1-.476.056c-.208-.167-.414-.321-.617-.46A.346.346,0,0,1,502.8,121.064Zm2.088,1.842a.335.335,0,0,1,.575-.147c.184.2.363.4.539.61a.35.35,0,0,1-.035.489.336.336,0,0,1-.48-.04c-.168-.2-.343-.394-.517-.584A.34.34,0,0,1,504.89,122.906Z" transform="translate(-463.389 -115.948)" fill="#472719"/>
          <path id="パス_89099" data-name="パス 89099" d="M473.794,225.7a1.518,1.518,0,0,1-1.515-1.4.4.4,0,0,1,.789-.068.739.739,0,0,0,.641.671.717.717,0,0,0,.528-.151.729.729,0,0,0,.271-.493.4.4,0,0,1,.787.088,1.515,1.515,0,0,1-.566,1.025A1.5,1.5,0,0,1,473.794,225.7Z" transform="translate(-441.265 -198.275)" fill="#090406"/>
          <path id="パス_89100" data-name="パス 89100" d="M514.706,225.7a1.518,1.518,0,0,1-1.515-1.4.4.4,0,0,1,.789-.067.738.738,0,0,0,.641.671.711.711,0,0,0,.527-.151.731.731,0,0,0,.273-.494.4.4,0,1,1,.787.089,1.518,1.518,0,0,1-.567,1.025A1.5,1.5,0,0,1,514.706,225.7Z" transform="translate(-473.586 -198.273)" fill="#090406"/>
          <path id="パス_89101" data-name="パス 89101" d="M489.489,231.515a.3.3,0,0,1-.2-.32c0-.174.107-.315.234-.314l3.225.049c-.637-3.772-1.132-7.705-1.324-8.225a.411.411,0,0,1,.011-.4.191.191,0,0,1,.326-.034c.067.08.017-1.441,1.761,8.927a.433.433,0,0,1-.045.272.219.219,0,0,1-.185.119l-3.777-.072Z" transform="translate(-454.701 -196.95)" fill="#090406"/>
          <path id="パス_89102" data-name="パス 89102" d="M485.627,287.288c-.432.034-3.426.279-3.164-.624.1-.352.434-.143.674-.1a6.416,6.416,0,0,0,1.015.106,15.05,15.05,0,0,0,2.09-.1c.54-.027,1.081-.066,1.617-.142.277-.039.553-.088.825-.152.228-.054.46-.187.517.129.108.6-.657.578-1.02.637a17,17,0,0,1-1.892.184C486.076,287.25,485.856,287.271,485.627,287.288Z" transform="translate(-449.299 -247.521)" fill="#c48e61"/>
          <path id="パス_89103" data-name="パス 89103" d="M486.8,276.26c-1.782,0-2.36-.673-2.423-.755a.435.435,0,0,1,.678-.546c.028.029.521.5,2.087.421,1.581-.08,1.962-.426,1.966-.43a.128.128,0,0,0-.026.031l.7.512c-.111.152-.625.656-2.6.755C487.051,276.257,486.923,276.26,486.8,276.26Z" transform="translate(-450.751 -238.514)" fill="#c11232"/>
          <path id="パス_89104" data-name="パス 89104" d="M475.222,595.69c4.8-3.9-2.355-11.409-6.029-7.358a12.87,12.87,0,0,0-.811,1.324,8.942,8.942,0,0,1-2.41,2.3c-1.424.982-3.221.824-4.891,1.245a8.267,8.267,0,0,0-4.06,3.083,18.142,18.142,0,0,1-1.76,2.084c-.787.725-1.757,1.06-2.591,1.7-2.219,1.706,1.269,2.21,2.7,1.789,1.737-.514,2.575-2.307,3.771-3.515.311,1.537-3.082,3.975-4.526,4.188-.82.121-2.1.3-1.733,1.623.215.779,1.639,1.016,2.371.991-.843,1.856.649,2.237,2.229,1.946-.749,1.5-.136,1.485,1.662,1.516-.16.995-.164,1.6.879,1.826a8.046,8.046,0,0,0,2.822,0c.927-.333,1.6-1.868,2.207-2.6a24.7,24.7,0,0,1,2.681-2.813,18.489,18.489,0,0,0,2.813-2.38c.672-.883.321-1.638.65-2.573C471.8,598.357,473.882,596.779,475.222,595.69Z" transform="translate(-425.205 -485.291)" fill="#edbf98"/>
          <path id="パス_89105" data-name="パス 89105" d="M449.927,593.121c.465.357,1.059.607,1.492.992a12.89,12.89,0,0,1,1.024,1.245,29.356,29.356,0,0,1,2.406,2.928c.606.916,1.606,2.4.993,3.523-.275.5-.969.528-1.178,1.031-.251.6.128,1.324-.281,1.96-.438.682-1.049.479-1.7.658-.781.214-.431.661-.88,1.269-.479.649-1,.461-1.66.732-.845.349-.307.82-.716,1.415a2.415,2.415,0,0,1-2.189.628,27.939,27.939,0,0,1-2.631-1.224,9.057,9.057,0,0,1-4.724-3.944,11.909,11.909,0,0,1-1.029-2.475,28.258,28.258,0,0,0-.6-2.8,7.348,7.348,0,0,0-2.478-2.827c-.93-.645-4.52-2.333-3.659-3.848.931-1.634,2.166-5.71,4.087-6.13,1.892-.414,5.277,2.769,6.888,3.71C445.222,591.214,447.974,591.622,449.927,593.121Z" transform="translate(-409.431 -484.544)" fill="#edbf98"/>
          <path id="パス_89106" data-name="パス 89106" d="M458.065,620.487a.341.341,0,0,1-.126-.657,11.515,11.515,0,0,0,3.8-3.709,4.177,4.177,0,0,1,1.619-1.6,17.958,17.958,0,0,1,3.575-1.215.341.341,0,1,1,.165.661,17.588,17.588,0,0,0-3.409,1.149,3.475,3.475,0,0,0-1.364,1.348,11.96,11.96,0,0,1-4.132,4A.339.339,0,0,1,458.065,620.487Z" transform="translate(-429.767 -505.935)" fill="#c48e61"/>
          <path id="パス_89107" data-name="パス 89107" d="M466.243,665.287a.341.341,0,0,1-.06-.676c1.887-.343,2.694-.579,3.693-1.7a.341.341,0,0,1,.509.453c-1.136,1.275-2.068,1.551-4.08,1.916A.337.337,0,0,1,466.243,665.287Z" transform="translate(-436.228 -545.041)" fill="#ca575f"/>
          <path id="パス_89108" data-name="パス 89108" d="M476.371,675.048a.855.855,0,0,1-.374-.073.341.341,0,0,1,.3-.613c.368.175,2.393-.833,3.138-1.563a.341.341,0,1,1,.477.487A7.544,7.544,0,0,1,476.371,675.048Z" transform="translate(-444.052 -552.865)" fill="#ca575f"/>
          <path id="パス_89109" data-name="パス 89109" d="M486.6,681.219h-.063a.341.341,0,1,1,.02-.681,3.057,3.057,0,0,0,1.7-.734l.069-.047a3.393,3.393,0,0,0,.434-.376,1.9,1.9,0,0,1,1.3-.683.341.341,0,0,1,.029.681,1.269,1.269,0,0,0-.855.491,4.034,4.034,0,0,1-.523.449l-.068.047A3.69,3.69,0,0,1,486.6,681.219Z" transform="translate(-452.266 -557.603)" fill="#ca575f"/>
          <path id="パス_89110" data-name="パス 89110" d="M501.021,654.007a.341.341,0,0,1-.264-.556,15.432,15.432,0,0,1,1.972-1.666,14.539,14.539,0,0,0,1.805-1.517,11.139,11.139,0,0,1,1.225-1.323c.262-.254.532-.516.774-.783.095-.1.19-.206.286-.308a4.493,4.493,0,0,0,.93-1.242l.033-.078c.879-2.041,1.529-3.306,1.918-4.007a.341.341,0,0,1,.6.331c-.382.688-1.02,1.931-1.888,3.946l-.034.08a5.082,5.082,0,0,1-1.059,1.437c-.092.1-.185.2-.277.3-.257.284-.536.554-.805.816a10.5,10.5,0,0,0-1.152,1.24,13.171,13.171,0,0,1-1.936,1.65,16.225,16.225,0,0,0-1.861,1.558A.341.341,0,0,1,501.021,654.007Z" transform="translate(-463.704 -528.889)" fill="#ca575f"/>
          <path id="パス_89111" data-name="パス 89111" d="M525.634,524.635c.927.8,2.18.337,3.292.99a10.681,10.681,0,0,1,4.107,5.226c.421,1.052.484,2.835,1.2,3.728.745.924,16.305-13,17.586-14.507a9.21,9.21,0,0,0,2.123-3.364,18.466,18.466,0,0,0,.736-7.279c-.223-1.407-1.385-3.384-3.091-3.412a19.137,19.137,0,0,0-4.774.914c-1.905.446-3.1.654-4.328,2.139-.416.5-.617.39-1.12.65-.982.51-1.381,1.687-2.1,2.451C538.294,513.2,526.648,523.2,525.634,524.635Z" transform="translate(-483.418 -421.179)" fill="#0f090c"/>
          <path id="パス_89112" data-name="パス 89112" d="M359.251,524.483a35.446,35.446,0,0,0-4.041,1.816c-1.929,1.135-2.3,1.891-3.089,3.86-.421,1.052-.233,3.195-.951,4.087-.744.924-18.077-12.664-19.355-14.175a9.209,9.209,0,0,1-2.12-3.364,18.525,18.525,0,0,1-.734-7.279c.224-1.407,1.382-3.384,3.085-3.412a19.068,19.068,0,0,1,4.765.914c1.9.446,3.092.654,4.319,2.139.415.5.616.39,1.118.65.98.51,1.377,1.687,2.1,2.451C345.316,513.2,358.239,523.045,359.251,524.483Z" transform="translate(-327.938 -421.179)" fill="#0f090c"/>
          <path id="パス_89113" data-name="パス 89113" d="M463.343,647.935a.341.341,0,0,1-.133-.654c.354-.15.661-.3.927-.443a10.161,10.161,0,0,1-1.245.452.341.341,0,0,1-.182-.656,7.276,7.276,0,0,0,2.306-1.1,2.533,2.533,0,0,0,.8-1,.334.334,0,0,1,.279-.264.342.342,0,0,1,.349.175,1.332,1.332,0,0,1,.034,1.056c-.3.878-1.308,1.688-3,2.407A.34.34,0,0,1,463.343,647.935Z" transform="translate(-433.508 -530.401)" fill="#ca575f"/>
          <path id="パス_89114" data-name="パス 89114" d="M482.916,312.349a.338.338,0,0,1-.236-.095l-5.322-5.1-5.087,4.756a.341.341,0,1,1-.465-.5l5.323-4.976a.34.34,0,0,1,.468,0l5.554,5.323a.341.341,0,0,1-.236.586Z" transform="translate(-440.807 -263.433)" fill="#a5afa8"/>
          <path id="パス_89115" data-name="パス 89115" d="M552.786,288.424a.341.341,0,0,1-.27-.547L555.4,284.1l-4.321-10.348a.34.34,0,0,1,.628-.262l4.4,10.53a.341.341,0,0,1-.044.338l-3.008,3.935A.339.339,0,0,1,552.786,288.424Z" transform="translate(-503.502 -237.309)" fill="#2c232d"/>
          <path id="パス_89116" data-name="パス 89116" d="M485.264,359a.34.34,0,0,1-.2-.613,48.155,48.155,0,0,0,3.415-3.881c3.12-3.72,13.131-28.441,14.3-31.338l-1.362-.779a.342.342,0,0,1-.126-.125l-5.092-8.794a.341.341,0,1,1,.59-.341l5.046,8.715,1.54.88a.34.34,0,0,1,.147.422c-.454,1.133-11.151,27.782-14.519,31.8a41.965,41.965,0,0,1-3.528,3.988A.338.338,0,0,1,485.264,359Z" transform="translate(-451.255 -268.657)" fill="#2c232d"/>
          <path id="パス_89117" data-name="パス 89117" d="M424.463,288.54a.34.34,0,0,1-.27-.132l-3.124-4.05a.341.341,0,0,1-.045-.339l4.4-10.53a.341.341,0,0,1,.628.262L421.729,284.1l3,3.893a.341.341,0,0,1-.269.549Z" transform="translate(-400.752 -237.31)" fill="#2c232d"/>
          <path id="パス_89118" data-name="パス 89118" d="M436.927,354.34a.341.341,0,0,1-.284-.153c-3.843-5.818-13.556-30.015-13.967-31.042a.341.341,0,0,1,.147-.422l1.54-.88,5.046-8.715a.341.341,0,1,1,.59.341l-5.092,8.794a.34.34,0,0,1-.126.125l-1.362.779c1.11,2.753,10.2,25.212,13.793,30.645a.341.341,0,0,1-.284.528Z" transform="translate(-402.057 -268.657)" fill="#2c232d"/>
          <g id="グループ_15503" data-name="グループ 15503" transform="translate(12.026 232.488)">
            <path id="パス_89119" data-name="パス 89119" d="M456.856,1251.926a2.418,2.418,0,0,0,1.7-2.149c.208-1.581-1.481-.764-2.127-.28a15.025,15.025,0,0,1-2,1.42c-.308.16-.83.184-1.093.464-.4.43-.261.793.214.882a9.864,9.864,0,0,0,1.53-.03A4.667,4.667,0,0,0,456.856,1251.926Z" transform="translate(-438.135 -1240.53)" fill="#0f090c"/>
            <path id="パス_89120" data-name="パス 89120" d="M388.193,1265.471c-1.467-.582-3.72-1.559-5.062.106-.72.891-1.743,2.3-1.057,3.408.8,1.29,2.8,1.395,4.158,1.673a8.87,8.87,0,0,0,2.167.1,10.781,10.781,0,0,0,3.619-.417c1.69-.731,3.334-1.569,3.917-3.545.105-.36.07-.772.152-1.112.042-.175.348-.62.288-.741s-.85-.2-1-.193c-.813.05-1.454.649-2.222.836a13.129,13.129,0,0,1-2.272.39A5.793,5.793,0,0,1,388.193,1265.471Z" transform="translate(-381.847 -1253.014)" fill="#0f090c"/>
            <path id="パス_89121" data-name="パス 89121" d="M392.444,1209.754c-.047.033-.093.068-.139.1-.9.723-.8,1.749-1.182,2.778-.393,1.056-3.138,4.3-3.926,5.279a9.564,9.564,0,0,1-2.33,1.915,5.719,5.719,0,0,0-2.516,3.293c-.3,2.013,2.07,2.46,3.422,2.791a10.908,10.908,0,0,0,8.636-1.27c1.568-.99,1.56-2.367,2.72-3.668,1.281-1.439,3.3-.176,4.652-1.264,1.377-1.107,1.447-3.918,1.745-5.526.138-.741.409-2.579-.888-2.561-.467.006-2.332.355-2.905.381-1.5.066-2.334-2.131-4.828-2.693A2.974,2.974,0,0,0,392.444,1209.754Z" transform="translate(-382.225 -1209.223)" fill="#1f1617"/>
          </g>
          <g id="グループ_15504" data-name="グループ 15504" transform="translate(38.852 232.621)">
            <path id="パス_89122" data-name="パス 89122" d="M516.026,1252.559a2.423,2.423,0,0,1-1.695-2.149c-.207-1.581,1.482-.764,2.128-.281a14.862,14.862,0,0,0,2,1.42c.307.159.828.183,1.093.464.405.431.26.792-.215.883a9.92,9.92,0,0,1-1.53-.03A4.694,4.694,0,0,1,516.026,1252.559Z" transform="translate(-513.326 -1241.162)" fill="#0f090c"/>
            <path id="パス_89123" data-name="パス 89123" d="M550.6,1266.1c1.467-.583,3.719-1.56,5.063.1.719.892,1.743,2.305,1.055,3.409-.8,1.289-2.8,1.4-4.156,1.673a8.818,8.818,0,0,1-2.168.1,10.8,10.8,0,0,1-3.618-.416c-1.691-.731-3.334-1.569-3.916-3.547-.106-.36-.072-.772-.152-1.111-.042-.176-.348-.621-.29-.741s.85-.2,1-.195c.813.051,1.454.651,2.222.838a13.264,13.264,0,0,0,2.272.39A5.8,5.8,0,0,0,550.6,1266.1Z" transform="translate(-535.524 -1253.643)" fill="#0f090c"/>
            <path id="パス_89124" data-name="パス 89124" d="M520.815,1210.384c.046.034.092.068.138.1.905.723.8,1.748,1.183,2.779.392,1.055,3.139,4.3,3.927,5.278a9.52,9.52,0,0,0,2.329,1.915,5.714,5.714,0,0,1,2.516,3.293c.3,2.014-2.07,2.46-3.422,2.792a10.91,10.91,0,0,1-8.635-1.271c-1.568-.991-1.561-2.367-2.721-3.669-1.281-1.438-3.3-.176-4.651-1.263-1.377-1.107-1.447-3.919-1.745-5.526-.138-.741-.409-2.579.889-2.56.466.006,2.331.355,2.9.38,1.5.067,2.333-2.129,4.828-2.692A2.979,2.979,0,0,1,520.815,1210.384Z" transform="translate(-509.612 -1209.854)" fill="#1f1617"/>
          </g>
          <path id="パス_89125" data-name="パス 89125" d="M494.147,712.589a.32.32,0,0,1-.32-.32v-9.612a.32.32,0,0,1,.641,0v9.612A.32.32,0,0,1,494.147,712.589Z" transform="translate(-458.289 -576.279)" fill="#2c232d"/>
          <path id="パス_89126" data-name="パス 89126" d="M530.673,546.134a.341.341,0,0,1-.216-.6l10.925-8.959a.341.341,0,1,1,.432.527l-10.925,8.959A.339.339,0,0,1,530.673,546.134Z" transform="translate(-487.129 -445.257)" fill="#2c232d"/>
          <path id="パス_89127" data-name="パス 89127" d="M563.413,622.3a.341.341,0,0,1-.339-.367l.118-1.5a.34.34,0,1,1,.679.053l-.059.751,6.07-4.546a.341.341,0,1,1,.408.545l-6.673,5A.341.341,0,0,1,563.413,622.3Z" transform="translate(-512.995 -508.564)" fill="#2c232d"/>
          <path id="パス_89128" data-name="パス 89128" d="M418.627,545.425a.339.339,0,0,1-.211-.074L404.4,534.268a.341.341,0,0,1,.423-.534l14.012,11.083a.341.341,0,0,1-.211.608Z" transform="translate(-387.54 -443.019)" fill="#2c232d"/>
          <path id="パス_89129" data-name="パス 89129" d="M407.127,620.327a.339.339,0,0,1-.19-.058l-7.583-5.1a.341.341,0,1,1,.38-.565l7.124,4.793.215-1.712a.34.34,0,1,1,.676.085l-.283,2.261a.341.341,0,0,1-.338.3Z" transform="translate(-383.533 -506.919)" fill="#2c232d"/>
          <path id="パス_89130" data-name="パス 89130" d="M404.457,655.854l-.041,0c-8.7-1.064-11.461-3.739-11.574-3.852a.334.334,0,0,1,.472-.474c.031.03,2.764,2.631,11.184,3.662a.334.334,0,0,1-.04.666Z" transform="translate(-378.43 -536.059)" fill="#2c232d"/>
          <path id="パス_89131" data-name="パス 89131" d="M551.153,655.454a.334.334,0,0,1-.06-.663c6.428-1.186,8.548-3.244,8.569-3.264a.334.334,0,0,1,.473.473c-.09.09-2.289,2.226-8.92,3.449A.344.344,0,0,1,551.153,655.454Z" transform="translate(-503.315 -536.059)" fill="#2c232d"/>
          <path id="パス_89132" data-name="パス 89132" d="M509.247,209.084a3.174,3.174,0,0,1,1.141-.515,5.812,5.812,0,0,1,1.766-.243c1.8.014,1.776.468,1.776.468a11.25,11.25,0,0,1-1.345.245c-.724.125-1.453.3-2.178.4-.362.05-.714.137-1.079.189-.254.037-.505-.062-.29-.337A1.547,1.547,0,0,1,509.247,209.084Z" transform="translate(-470.243 -185.995)" fill="#5f3521"/>
          <path id="パス_89133" data-name="パス 89133" d="M470.418,209.429a3.178,3.178,0,0,0-1.134-.532,5.808,5.808,0,0,0-1.763-.268c-1.8-.013-1.783.44-1.783.44a11.4,11.4,0,0,0,1.342.264c.723.137,1.446.325,2.171.437.361.056.712.148,1.077.206.253.041.506-.055.294-.332A1.587,1.587,0,0,0,470.418,209.429Z" transform="translate(-436.098 -186.234)" fill="#5f3521"/>
        </g>
        <g id="グループ_15507" data-name="グループ 15507" transform="translate(397.06 124.362)">
          <path id="パス_89134" data-name="パス 89134" d="M774.747,351.414s-1.444,5.778-.722,7.748l.722,1.97,8.667,1.248-2.758-9.521Z" transform="translate(-751.98 -321.431)" fill="#51271c"/>
          <path id="パス_89135" data-name="パス 89135" d="M760.267,978.55c0,.509,4.587,34.994,5.1,39.072s.34,12.4-.339,13.251-1.53,9.343-1.53,9.343l6.965.51s2.717-12.061,1.529-14.27l-1.189-2.208s1.528-38.392.849-40.6a14.716,14.716,0,0,1-.679-3.909Z" transform="translate(-741.271 -816.888)" fill="#ea7670"/>
          <path id="パス_89136" data-name="パス 89136" d="M772.54,1257.54l6.8-.17.68-3.737s1.358,3.737.509,5.775-3.4,5.947-5.437,4.758-3.4-4.417-3.567-5.607a6.606,6.606,0,0,1,.849-3.058Z" transform="translate(-750.148 -1034.213)" fill="#1f1617"/>
          <path id="パス_89137" data-name="パス 89137" d="M826.327,978.55c0,.509-4.587,34.994-5.1,39.072s-.34,12.4.339,13.251,1.53,9.343,1.53,9.343l-6.965.51s-2.717-12.061-1.529-14.27l1.189-2.208s-1.528-38.392-.849-40.6a14.712,14.712,0,0,0,.68-3.909Z" transform="translate(-783.962 -816.888)" fill="#ea7670"/>
          <path id="パス_89138" data-name="パス 89138" d="M824.288,1257.54l-6.8-.17-.68-3.737s-1.358,3.737-.509,5.775,3.4,5.947,5.437,4.758,3.4-4.417,3.567-5.607a6.6,6.6,0,0,0-.849-3.058Z" transform="translate(-785.322 -1034.213)" fill="#1f1617"/>
          <path id="パス_89139" data-name="パス 89139" d="M719.93,645.558s-5.141,12.121-4.8,22.6,7.2,50.122,7.2,50.122l15.078.656-.685-67.485Z" transform="translate(-705.6 -553.814)" fill="#342d41"/>
          <path id="パス_89140" data-name="パス 89140" d="M828.028,645.558s5.14,12.121,4.8,22.6-7.2,50.122-7.2,50.122l-15.079.656.685-67.485Z" transform="translate(-780.997 -553.814)" fill="#342d41"/>
          <path id="パス_89141" data-name="パス 89141" d="M734.409,376.871l-6.134-.364-16.521,5.2,6.594,41.566-4.172,22.2,19.24-3.67Z" transform="translate(-702.944 -341.255)" fill="#342d41"/>
          <path id="パス_89142" data-name="パス 89142" d="M793.237,377.1l7.833-.3,14.567,5.066-6.128,40.8,4.476,22.465-24.023-3.1Z" transform="translate(-764.731 -341.488)" fill="#342d41"/>
          <path id="パス_89143" data-name="パス 89143" d="M783.811,383.106l6.151,33.769,6.9-33.888Z" transform="translate(-759.872 -346.376)" fill="#fff"/>
          <path id="パス_89144" data-name="パス 89144" d="M796.705,346.192c-.585-.684-1.78-5.108-2.047-6.508a16.14,16.14,0,0,1-.142-3.167c-1.045-.026-2.547-.383-3.483.241a.291.291,0,0,1-.572,0c-.936-.624-2.439-.267-3.484-.241a16.108,16.108,0,0,1-.142,3.167c-.267,1.4-1.463,5.825-2.047,6.508-.469.549-.6.548-.4,1.3.384,1.459,5.4,7.224,6.305,8.13,0,.035,6.037-6.671,6.422-8.13C797.308,346.74,797.175,346.741,796.705,346.192Z" transform="translate(-760.254 -309.564)" fill="#edbf98"/>
          <path id="パス_89145" data-name="パス 89145" d="M679.156,401.425s.478-.275-.549-.2S667.9,440.61,670.13,442.578s9.713,3.413,10.762,1.313,3.882-22.679,3.882-22.679Z" transform="translate(-669.797 -360.772)" fill="#342d41"/>
          <path id="パス_89146" data-name="パス 89146" d="M680.421,578.012s-.525-1.969-4.857-1.312-5.533.438-5.533,3.456,14.83,24.279,14.83,24.279l7-10.552Z" transform="translate(-669.982 -499.308)" fill="#342d41"/>
          <path id="パス_89147" data-name="パス 89147" d="M888.59,401.122s-.48-.23.549-.2c3.417.088,10.964,39.459,8.732,41.427s-9.713,3.413-10.763,1.313-3.882-22.679-3.882-22.679Z" transform="translate(-838.413 -360.54)" fill="#342d41"/>
          <path id="パス_89148" data-name="パス 89148" d="M865.267,588.413s.525-1.969,4.856-1.313,5.924-1.079,5.924,1.94-13.495,23.079-13.495,23.079l-7.17-8.644Z" transform="translate(-816.414 -507.525)" fill="#342d41"/>
          <path id="パス_89149" data-name="パス 89149" d="M748.247,667.016s1.867-5.109,4.385-4.4c.645.181,3.765.559,4.425.723a25.973,25.973,0,0,1,7.02,4.016c.936.842,4.193,3.811,1.214,4.406-.139,1.01-1.054.824-1.9.947-.083.922.739,1.985.215,2.731-.382.545-2.17.755-2.841.761-1.561.015-3.107-1.592-4.56-2.216a18.731,18.731,0,0,1-2.847-1.311c-1.15-.744-1.251-1.61-1.965-2.666A25.3,25.3,0,0,0,748.247,667.016Z" transform="translate(-731.775 -567.234)" fill="#ea7670"/>
          <path id="パス_89150" data-name="パス 89150" d="M784.424,672.619c-.213.072-.425.15-.635.238a17.836,17.836,0,0,0-4.734,3.365c-.967.92-1.714,2.1-2.644,3.066-.839.873-4,3.419-3.113,3.655.464.8,1.689-.28,2.287-.469-.749.683-2.091,2.286-1.593,2.534.662,1.011,2.5-.893,3.442-1.353a5.019,5.019,0,0,0-1.632,2.126c-.01,1.511,3.274-1.228,5.114-1.51a2.826,2.826,0,0,0-1.683,1.446c-.122.332,1.307.377,1.533.3a19.416,19.416,0,0,0,3.084-1.893c2.071-1.363,3.888-3.038,5.92-4.406a16.194,16.194,0,0,0,2.81-2.508,6.188,6.188,0,0,1,2.24-1.545c1.2-.6,1.2-.8.5-1.973a11.458,11.458,0,0,0-2.442-3.095c-1.2-.944-1.812-.321-3.047.339C788.124,671.842,786.212,672.013,784.424,672.619Z" transform="translate(-751.442 -573.212)" fill="#ea7670"/>
          <path id="パス_89151" data-name="パス 89151" d="M787.478,688.1a.328.328,0,0,1-.265-.52,23.923,23.923,0,0,1,2.691-3.118,54.814,54.814,0,0,1,5.449-3.566.327.327,0,1,1,.331.565,56.076,56.076,0,0,0-5.343,3.49,23.694,23.694,0,0,0-2.6,3.013A.327.327,0,0,1,787.478,688.1Z" transform="translate(-762.51 -581.698)" fill="#ca575f"/>
          <path id="パス_89152" data-name="パス 89152" d="M783.274,717.031a.328.328,0,0,1-.2-.585l4.125-3.25a.328.328,0,1,1,.406.515l-4.125,3.25A.327.327,0,0,1,783.274,717.031Z" transform="translate(-759.189 -607.195)" fill="#ca575f"/>
          <path id="パス_89153" data-name="パス 89153" d="M789.563,722.613a.328.328,0,0,1-.187-.6l4.666-3.242a.328.328,0,1,1,.374.538l-4.666,3.242A.327.327,0,0,1,789.563,722.613Z" transform="translate(-764.157 -611.611)" fill="#ca575f"/>
          <path id="パス_89154" data-name="パス 89154" d="M798.868,730.718a.328.328,0,0,1-.192-.594l3.862-2.777a.328.328,0,1,1,.383.532l-3.862,2.777A.328.328,0,0,1,798.868,730.718Z" transform="translate(-771.508 -618.382)" fill="#ca575f"/>
          <path id="パス_89155" data-name="パス 89155" d="M758.888,397.27a.327.327,0,0,1-.254-.121l-3.307-4.074a.328.328,0,0,1-.044-.342l3.012-6.613a.328.328,0,0,1,.6.272l-2.927,6.429,3.179,3.917a.328.328,0,0,1-.254.534Z" transform="translate(-737.311 -348.698)" fill="#1b1624"/>
          <path id="パス_89156" data-name="パス 89156" d="M773.38,450.123a.328.328,0,0,1-.177-.052c-1.234-.786-6.719-16.412-7.806-19.537a.328.328,0,0,1,.008-.236l2.716-6.347a.328.328,0,0,1,.6.258l-2.666,6.231c2.473,7.1,6.659,18.456,7.5,19.081a.327.327,0,0,1-.178.6Z" transform="translate(-745.309 -378.581)" fill="#1b1624"/>
          <path id="パス_89157" data-name="パス 89157" d="M717.974,433.853a.328.328,0,0,1-.316-.24,46.485,46.485,0,0,1-1.287-14.066c.382-4.2-1.927-11.388-1.95-11.46a.328.328,0,0,1,.623-.2c.1.3,2.373,7.383,1.979,11.722a45.712,45.712,0,0,0,1.266,13.832.328.328,0,0,1-.229.4A.324.324,0,0,1,717.974,433.853Z" transform="translate(-705.039 -365.866)" fill="#1b1624"/>
          <path id="パス_89158" data-name="パス 89158" d="M895.74,433.852a.323.323,0,0,1-.087-.012.328.328,0,0,1-.228-.4,45.713,45.713,0,0,0,1.266-13.832c-.395-4.339,1.882-11.422,1.979-11.722a.328.328,0,0,1,.623.2c-.023.072-2.332,7.256-1.95,11.461a46.483,46.483,0,0,1-1.287,14.066A.328.328,0,0,1,895.74,433.852Z" transform="translate(-848.04 -365.865)" fill="#1b1624"/>
          <path id="パス_89159" data-name="パス 89159" d="M808.05,589.6c0,.407-.506.737-1.13.737s-1.13-.33-1.13-.737.505-.737,1.13-.737S808.05,589.2,808.05,589.6Z" transform="translate(-777.236 -509.026)" fill="#1b1624"/>
          <path id="パス_89160" data-name="パス 89160" d="M808.05,642c0,.407-.506.737-1.13.737s-1.13-.33-1.13-.737.505-.736,1.13-.736S808.05,641.6,808.05,642Z" transform="translate(-777.236 -550.424)" fill="#1b1624"/>
          <path id="パス_89161" data-name="パス 89161" d="M747.588,624.061a.327.327,0,0,1-.274-.148l-6.189-9.429a.328.328,0,0,1,.548-.359l6.189,9.429a.328.328,0,0,1-.274.508Z" transform="translate(-726.106 -528.864)" fill="#1b1624"/>
          <path id="パス_89162" data-name="パス 89162" d="M730.5,669.432a.327.327,0,0,1-.2-.071l-3.139-2.5a.328.328,0,1,1,.408-.513l2.625,2.089a10.268,10.268,0,0,1,1.412-4.659,10.912,10.912,0,0,1,3.218-3.448.328.328,0,1,1,.337.562,10.487,10.487,0,0,0-3,3.234,9.969,9.969,0,0,0-1.33,4.966.328.328,0,0,1-.328.338Z" transform="translate(-715.018 -565.449)" fill="#1b1624"/>
          <path id="パス_89163" data-name="パス 89163" d="M854.148,628.836a.328.328,0,0,1-.277-.5l5.992-9.528a.327.327,0,0,1,.554.349l-5.991,9.528A.327.327,0,0,1,854.148,628.836Z" transform="translate(-815.182 -532.558)" fill="#1b1624"/>
          <path id="パス_89164" data-name="パス 89164" d="M866.406,675.849h-.032a.328.328,0,0,1-.266-.19c-.257-.561-.483-1.107-.7-1.635a13.449,13.449,0,0,0-4.28-6.222.328.328,0,1,1,.414-.508,14.16,14.16,0,0,1,4.472,6.479c.148.358.3.725.461,1.1l3.008-4.156a.327.327,0,1,1,.531.384l-3.341,4.617A.327.327,0,0,1,866.406,675.849Z" transform="translate(-820.859 -570.927)" fill="#1b1624"/>
          <path id="パス_89165" data-name="パス 89165" d="M773.427,224.893a17.974,17.974,0,0,0-1.676-7.624,13.792,13.792,0,0,0-7.03-7.426,15.214,15.214,0,0,0-11.93,0,13.79,13.79,0,0,0-7.03,7.426,17.977,17.977,0,0,0-1.676,7.624,14.775,14.775,0,0,0,1.038,6.027c.081.2.334.678.687,1.3.52,1.312,1.2,2.758,1.736,2.827,1.08,1.636,2.22,3.118,2.737,3.09l8.473-1.33,8.473,1.33c.517.028,1.657-1.453,2.737-3.09.533-.07,1.216-1.515,1.736-2.827.353-.62.606-1.1.687-1.3A14.774,14.774,0,0,0,773.427,224.893Z" transform="translate(-728.482 -208.618)" fill="#51271c"/>
          <path id="パス_89166" data-name="パス 89166" d="M765.04,274.259c-1.406,6.289,3.592,13.112,9.852,13.408A11.42,11.42,0,0,0,786.677,276.5c.255-6.462-3.372-12.017-9.628-12.312S766.833,266.246,765.04,274.259Z" transform="translate(-744.854 -252.5)" fill="#edbf98"/>
          <path id="パス_89173" data-name="パス 89173" d="M809.266,362.535h-.042a3.328,3.328,0,0,1-.348-.022,3.569,3.569,0,0,1-1.35-.45.332.332,0,1,1,.327-.578,2.914,2.914,0,0,0,1.1.368,2.71,2.71,0,0,0,.28.017,2.746,2.746,0,0,0,1.346-.339.332.332,0,1,1,.311.587A3.447,3.447,0,0,1,809.266,362.535Z" transform="translate(-778.474 -329.354)" fill="#c11232"/>
          <path id="パス_89174" data-name="パス 89174" d="M790.316,325.2a1.363,1.363,0,0,1-.234-.02,1.459,1.459,0,0,1-1.177-1.286.381.381,0,0,1,.757-.086.7.7,0,0,0,.55.621.6.6,0,0,0,.458-.108.714.714,0,0,0,.284-.48.381.381,0,1,1,.753.112,1.49,1.49,0,0,1-.592.985A1.362,1.362,0,0,1,790.316,325.2Z" transform="translate(-763.895 -299.356)" fill="#090406"/>
          <path id="パス_89175" data-name="パス 89175" d="M834.829,326.71a1.358,1.358,0,0,1-.234-.02,1.46,1.46,0,0,1-1.177-1.286.381.381,0,1,1,.756-.086.7.7,0,0,0,.55.621.6.6,0,0,0,.459-.109.713.713,0,0,0,.284-.48.381.381,0,0,1,.753.112,1.467,1.467,0,0,1-.591.985A1.362,1.362,0,0,1,834.829,326.71Z" transform="translate(-799.061 -300.548)" fill="#090406"/>
          <path id="パス_89176" data-name="パス 89176" d="M756.65,251.17a.224.224,0,0,1-.23-.185,3.435,3.435,0,0,1-.057-.457c-.006-.091-.01-.188-.01-.294a.22.22,0,1,1,.439,0c0,.095,0,.183.009.264a2.971,2.971,0,0,0,.048.389.235.235,0,0,1-.167.28A.183.183,0,0,1,756.65,251.17Zm.032-1.874a.187.187,0,0,1-.051,0,.235.235,0,0,1-.184-.269c.033-.226.075-.463.124-.707a.219.219,0,0,1,.26-.181.234.234,0,0,1,.169.279c-.046.236-.086.465-.118.682A.227.227,0,0,1,756.682,249.3Zm.383-1.837a.22.22,0,0,1-.074-.008.238.238,0,0,1-.154-.29q.087-.327.19-.685a.217.217,0,0,1,.275-.155.239.239,0,0,1,.145.295q-.1.352-.186.672A.224.224,0,0,1,757.065,247.459Zm.54-1.793a.194.194,0,0,1-.092-.014.239.239,0,0,1-.128-.3c.079-.226.16-.448.243-.665a.217.217,0,0,1,.288-.128.24.24,0,0,1,.118.308c-.082.212-.162.429-.238.65A.222.222,0,0,1,757.605,245.666Zm.691-1.734a.2.2,0,0,1-.112-.023.243.243,0,0,1-.1-.314c.1-.219.2-.433.3-.639a.214.214,0,0,1,.3-.1.245.245,0,0,1,.093.318c-.1.2-.2.412-.292.625A.217.217,0,0,1,758.3,243.932Zm.829-1.662a.21.21,0,0,1-.128-.032.245.245,0,0,1-.076-.322c.117-.213.233-.415.348-.61a.214.214,0,0,1,.306-.073.248.248,0,0,1,.067.325q-.171.286-.341.6A.221.221,0,0,1,759.125,242.271Zm.96-1.58a.21.21,0,0,1-.143-.043.248.248,0,0,1-.052-.329c.14-.207.27-.4.4-.575a.21.21,0,0,1,.308-.043.247.247,0,0,1,.039.33c-.123.172-.253.361-.388.562A.216.216,0,0,1,760.085,240.691Zm1.087-1.483a.212.212,0,0,1-.159-.057.249.249,0,0,1-.022-.332c.281-.345.454-.527.46-.534a.21.21,0,0,1,.312,0,.25.25,0,0,1,0,.333s-.17.178-.438.508A.212.212,0,0,1,761.172,239.208Z" transform="translate(-738.178 -232.001)" fill="#36170f"/>
          <path id="パス_89177" data-name="パス 89177" d="M796.4,370.143q-.395,0-.818-.02a9.354,9.354,0,0,1-4.439-1.4.323.323,0,0,1,.336-.552,8.711,8.711,0,0,0,4.135,1.305,8.511,8.511,0,0,0,5.244-1.117.323.323,0,0,1,.342.549A8.571,8.571,0,0,1,796.4,370.143Z" transform="translate(-765.539 -334.633)" fill="#c48e61"/>
          <path id="パス_89178" data-name="パス 89178" d="M787.518,307.082a.161.161,0,0,1-.065-.308,3.916,3.916,0,0,1,3.088-.173.161.161,0,0,1-.135.292,3.67,3.67,0,0,0-2.823.175A.164.164,0,0,1,787.518,307.082Z" transform="translate(-762.673 -285.847)" fill="#51271c"/>
          <path id="パス_89179" data-name="パス 89179" d="M863.893,309.481s1-1.163,2.246.281c.784.91-.108,3.413-1.2,4.692a2.15,2.15,0,0,1-1.644.682Z" transform="translate(-822.664 -287.953)" fill="#edbf98"/>
          <path id="パス_89180" data-name="パス 89180" d="M753.155,309.481s-1-1.163-2.246.281c-.784.91.109,3.413,1.2,4.692a2.15,2.15,0,0,0,1.644.682Z" transform="translate(-733.643 -287.953)" fill="#edbf98"/>
          <path id="パス_89181" data-name="パス 89181" d="M814.385,343.891a.21.21,0,0,1-.042-.416l.823-.17-.253-1.835a.21.21,0,0,1,.416-.057l.28,2.03a.21.21,0,0,1-.165.234l-1.015.21A.205.205,0,0,1,814.385,343.891Z" transform="translate(-783.86 -313.387)" fill="#090406"/>
          <path id="パス_89182" data-name="パス 89182" d="M778.961,376.8a54.394,54.394,0,0,0-.059,7.2l.3,1.653s-3.248-5.491-2.834-6.908S778.961,376.8,778.961,376.8Z" transform="translate(-753.959 -341.488)" fill="#342d41"/>
          <path id="パス_89183" data-name="パス 89183" d="M857.086,397.271a.328.328,0,0,1-.254-.534l3.179-3.917-2.927-6.429a.327.327,0,1,1,.6-.271l3.012,6.613a.328.328,0,0,1-.044.342l-3.307,4.074A.327.327,0,0,1,857.086,397.271Z" transform="translate(-817.503 -348.699)" fill="#1b1624"/>
          <path id="パス_89184" data-name="パス 89184" d="M826.167,450.123a.328.328,0,0,1-.177-.6c.84-.623,5.026-11.981,7.5-19.08l-2.666-6.231a.328.328,0,1,1,.6-.258l2.716,6.347a.328.328,0,0,1,.008.236c-1.087,3.125-6.572,18.751-7.807,19.537A.324.324,0,0,1,826.167,450.123Z" transform="translate(-793.075 -378.581)" fill="#1b1624"/>
          <path id="パス_89185" data-name="パス 89185" d="M841.12,376.8a54.418,54.418,0,0,1,.059,7.2l-.3,1.653s3.248-5.491,2.834-6.908S841.12,376.8,841.12,376.8Z" transform="translate(-804.961 -341.488)" fill="#342d41"/>
          <path id="パス_89186" data-name="パス 89186" d="M755.8,299.122a23.5,23.5,0,0,0,2.478,7.794s-.52-4.37-.857-9.242Z" transform="translate(-737.743 -278.975)" fill="#51271c"/>
          <path id="パス_89187" data-name="パス 89187" d="M807.813,251.269a19.522,19.522,0,0,0,0-2.35c-.087-2.231-.136-4.464-.173-6.7-.082-4.87-1.7-6.583-4-7.7-7.187-3.494-12.533-1.787-12.533-1.787s11.818,8.637,13.567,13.648c.939,2.689,2.358,5.458,2.181,9.317a17.745,17.745,0,0,0,.816-3.411A7.888,7.888,0,0,0,807.813,251.269Z" transform="translate(-765.632 -227.341)" fill="#51271c"/>
          <path id="パス_89188" data-name="パス 89188" d="M797.465,251.957a19.49,19.49,0,0,0-6.514-3.923,7.684,7.684,0,0,0-2.523-.433c-1.348-.048-1.429.821-1.2,2a17.073,17.073,0,0,0,1.761,5.115,16.883,16.883,0,0,0,5.169,5.295,15.072,15.072,0,0,0,5.109,2.126,6.889,6.889,0,0,1-2.081-1.854,6.216,6.216,0,0,1-1.38-1.771,7.183,7.183,0,0,0,1.778,1.556,10.873,10.873,0,0,0,3.318,1.56c.429.089,1.491.183,1.82-.274.226-.315-.022-.991-.134-1.313a22.132,22.132,0,0,0-1.352-3.265,16.033,16.033,0,0,0-1.568-2.6A24.775,24.775,0,0,0,797.465,251.957Z" transform="translate(-762.492 -239.414)" fill="#51271c"/>
          <g id="グループ_15506" data-name="グループ 15506" transform="translate(28.881 4.247)">
            <path id="パス_89189" data-name="パス 89189" d="M807.9,229.35l-.026,0c-.2-.025-.313-.034-.317-.034a.231.231,0,0,1-.206-.25.226.226,0,0,1,.234-.221s.12.009.339.037a.233.233,0,0,1,.193.261A.227.227,0,0,1,807.9,229.35Z" transform="translate(-807.348 -228.843)" fill="#36170f"/>
            <path id="パス_89190" data-name="パス 89190" d="M825.108,241.255a.222.222,0,0,1-.208-.157c-.07-.209-.152-.438-.245-.678a.24.24,0,0,1,.118-.308.213.213,0,0,1,.286.127c.1.247.182.482.255.7a.239.239,0,0,1-.133.3A.2.2,0,0,1,825.108,241.255Zm-.719-1.814a.218.218,0,0,1-.2-.134c-.094-.208-.192-.428-.3-.661a.243.243,0,0,1,.1-.316.213.213,0,0,1,.295.105c.11.237.212.459.3.669a.242.242,0,0,1-.1.313A.211.211,0,0,1,824.389,239.441Zm-.831-1.759a.22.22,0,0,1-.195-.125c-.1-.208-.213-.424-.327-.648a.245.245,0,0,1,.088-.32.212.212,0,0,1,.3.093c.116.227.225.444.33.653a.243.243,0,0,1-.091.319A.207.207,0,0,1,823.558,237.682Zm-.9-1.723a.218.218,0,0,1-.188-.112c-.117-.2-.243-.406-.374-.6a.244.244,0,0,1,.049-.329.21.21,0,0,1,.306.053c.137.2.269.415.392.629a.244.244,0,0,1-.071.323A.2.2,0,0,1,822.662,235.959Zm-1.111-1.568a.213.213,0,0,1-.162-.076c-.152-.176-.311-.349-.474-.515a.249.249,0,0,1-.009-.333.21.21,0,0,1,.312-.009c.172.173.337.354.5.538a.246.246,0,0,1-.014.333A.212.212,0,0,1,821.551,234.391Zm-1.362-1.323a.207.207,0,0,1-.132-.048c-.179-.144-.365-.287-.552-.422a.245.245,0,0,1-.06-.327.211.211,0,0,1,.3-.065c.195.14.389.287.573.438a.246.246,0,0,1,.042.33A.214.214,0,0,1,820.188,233.068ZM818.641,232a.212.212,0,0,1-.1-.028c-.2-.114-.4-.225-.6-.329a.241.241,0,0,1-.1-.314.211.211,0,0,1,.291-.112c.213.108.424.223.627.341a.245.245,0,0,1,.09.319A.22.22,0,0,1,818.641,232Zm-1.675-.818a.2.2,0,0,1-.078-.016c-.21-.085-.427-.167-.643-.244a.238.238,0,0,1-.14-.3.216.216,0,0,1,.277-.15c.222.078.445.162.661.25a.241.241,0,0,1,.127.3A.219.219,0,0,1,816.966,231.185Zm-1.757-.589a.231.231,0,0,1-.054-.007c-.219-.059-.442-.113-.664-.163a.235.235,0,0,1-.171-.278.22.22,0,0,1,.258-.183c.228.05.459.105.685.166a.239.239,0,0,1,.16.286A.224.224,0,0,1,815.209,230.6Z" transform="translate(-812.852 -229.725)" fill="#36170f"/>
            <path id="パス_89191" data-name="パス 89191" d="M866.24,288.021a.2.2,0,0,1-.11-.031.243.243,0,0,1-.093-.3.854.854,0,0,0,0-.232.233.233,0,0,1,.194-.26.226.226,0,0,1,.244.208.893.893,0,0,1-.042.493A.217.217,0,0,1,866.24,288.021Z" transform="translate(-853.7 -274.947)" fill="#36170f"/>
          </g>
          <path id="パス_89192" data-name="パス 89192" d="M816.075,251.637a.208.208,0,0,1-.117-.036l-.191-.127a2,2,0,0,1-.369-.349.247.247,0,0,1,.013-.333.21.21,0,0,1,.31.013,1.539,1.539,0,0,0,.279.269l.192.129a.246.246,0,0,1,.07.324A.218.218,0,0,1,816.075,251.637Zm-1.194-1.367a.212.212,0,0,1-.179-.1c-.125-.187-.25-.387-.376-.593a.245.245,0,0,1,.062-.326.21.21,0,0,1,.3.067c.124.2.248.4.368.58a.247.247,0,0,1-.054.329A.211.211,0,0,1,814.881,250.271Zm-.962-1.583a.214.214,0,0,1-.187-.111c-.121-.208-.235-.413-.344-.609a.244.244,0,0,1,.076-.322.211.211,0,0,1,.3.081c.11.2.223.4.343.6a.248.248,0,0,1-.072.324A.215.215,0,0,1,813.92,248.688Zm-.9-1.625a.22.22,0,0,1-.191-.118c-.2-.38-.328-.622-.328-.622a.246.246,0,0,1,.086-.32.212.212,0,0,1,.3.092s.124.241.325.617a.244.244,0,0,1-.081.321A.2.2,0,0,1,813.02,247.063Z" transform="translate(-782.517 -238.13)" fill="#36170f"/>
          <path id="パス_89193" data-name="パス 89193" d="M742.315,692.254a.328.328,0,0,1-.25-.54l2.062-2.426a.328.328,0,1,1,.5.424l-2.062,2.426A.325.325,0,0,1,742.315,692.254Z" transform="translate(-726.83 -588.271)" fill="#1b1624"/>
          <path id="パス_89194" data-name="パス 89194" d="M878.633,700.786a.325.325,0,0,1-.195-.064l-1.823-1.347a.328.328,0,1,1,.39-.527l1.822,1.347a.328.328,0,0,1-.195.591Z" transform="translate(-833.085 -595.864)" fill="#1b1624"/>
        </g>
      </g>
    </g>
  </g>
</svg>
