<svg xmlns="http://www.w3.org/2000/svg" width="140" height="140" viewBox="0 0 140 140">
  <g id="merit_obj12" transform="translate(-53 -0.477)">
    <circle id="楕円形_353" data-name="楕円形 353" cx="70" cy="70" r="70" transform="translate(53 0.477)" fill="#f7f3e5"/>
    <g id="shops_obj02" transform="translate(25.868 32.32)">
      <g id="グループ_300" data-name="グループ 300" transform="translate(51.074)">
        <path id="長方形_1179" data-name="長方形 1179" d="M2.825,0h0A2.826,2.826,0,0,1,5.65,2.826V5.064A2.824,2.824,0,0,1,2.826,7.888h0A2.825,2.825,0,0,1,0,5.063V2.825A2.825,2.825,0,0,1,2.825,0Z" transform="translate(0.356 23.436)"/>
        <path id="パス_431" data-name="パス 431" d="M3799.483,4464.426c0,.472-18.876.854-42.161.854s-42.16-.382-42.16-.854,18.876-.856,42.16-.856S3799.483,4463.953,3799.483,4464.426Z" transform="translate(-3713.908 -4395.985)" fill="#9e9e9f"/>
        <path id="パス_432" data-name="パス 432" d="M3959.031,4217.338h-19.156a4.471,4.471,0,0,1,4.471,4.472v30.2H3963.5v-30.2A4.472,4.472,0,0,0,3959.031,4217.338Z" transform="translate(-3876.943 -4217.338)" fill="#397156"/>
        <path id="パス_433" data-name="パス 433" d="M3771.383,4252.011v-30.2a4.472,4.472,0,0,1,4.473-4.472h41.774a4.472,4.472,0,0,1,4.472,4.472v30.2Z" transform="translate(-3754.697 -4217.338)" fill="#47856b"/>
        <rect id="長方形_1180" data-name="長方形 1180" width="19.325" height="11.866" rx="5.933" transform="translate(32.082 11.403)" fill="#fff" opacity="0.4"/>
        <g id="グループ_288" data-name="グループ 288" transform="translate(21.86 8.615)">
          <g id="グループ_285" data-name="グループ 285">
            <path id="パス_434" data-name="パス 434" d="M3831.763,4270.8h-38.914l-.219-.225V4255.72a6.128,6.128,0,0,1,6.058-6.182h27.238a6.128,6.128,0,0,1,6.058,6.182v14.841Zm-37.808-1.184h36.705l.165-.168V4255.72a4.954,4.954,0,0,0-4.9-5h-27.238a4.954,4.954,0,0,0-4.9,5v13.715Z" transform="translate(-3791.973 -4249.315)" fill="#b4b4b5"/>
            <path id="パス_435" data-name="パス 435" d="M3829.368,4269.982h-38.914l-.219-.224V4254.9a6.128,6.128,0,0,1,6.058-6.181h27.238a6.129,6.129,0,0,1,6.059,6.181v14.843Zm-37.808-1.184h36.706l.165-.168V4254.9a4.955,4.955,0,0,0-4.9-5h-27.238a4.956,4.956,0,0,0-4.9,5v13.715Z" transform="translate(-3790.235 -4248.724)" fill="#eeeeef"/>
          </g>
          <g id="グループ_286" data-name="グループ 286" transform="translate(12.808 1.188)">
            <rect id="長方形_1181" data-name="長方形 1181" width="0.365" height="18.929" transform="translate(0.681)" fill="#7a7a7a"/>
            <rect id="長方形_1182" data-name="長方形 1182" width="0.679" height="18.929" fill="#ccc"/>
          </g>
          <g id="グループ_287" data-name="グループ 287" transform="translate(25.181 1.188)">
            <rect id="長方形_1183" data-name="長方形 1183" width="0.365" height="18.929" transform="translate(0.681)" fill="#7a7a7a"/>
            <rect id="長方形_1184" data-name="長方形 1184" width="0.679" height="18.929" fill="#ccc"/>
          </g>
        </g>
        <path id="パス_436" data-name="パス 436" d="M3782.35,4266.612h-61.742l8.773-21.323a6,6,0,0,1,5.39-2.8h41.1a4.256,4.256,0,0,1,3.79,3.268C3780.076,4247.518,3782.35,4266.612,3782.35,4266.612Zm-7.308-17.181a2.236,2.236,0,0,0-2.236-2.237h-26.393a2.235,2.235,0,0,0-2.236,2.237v10.454a2.235,2.235,0,0,0,2.236,2.236h26.393a2.235,2.235,0,0,0,2.236-2.236Zm-37.155-3.265h-5.2a2.566,2.566,0,0,0-2.472,1.442c-.46.925-6.231,15.782-6.975,17.311s.167,1.565.441,1.565,10.016.033,11.316.033,1.343-.665,1.367-1.073,2.11-16.913,2.265-18.012S3738.208,4246.166,3737.887,4246.166Z" transform="translate(-3717.859 -4235.583)" fill="#3e3a39"/>
        <path id="パス_437" data-name="パス 437" d="M3744.08,4255.894h-5.2a2.566,2.566,0,0,0-2.472,1.443c-.46.925-6.232,15.782-6.975,17.31s.166,1.566.44,1.566,10.017.034,11.317.034,1.343-.667,1.366-1.074,2.11-16.913,2.265-18.011S3744.4,4255.894,3744.08,4255.894Z" transform="translate(-3724.053 -4245.312)" fill="#fff" opacity="0.2"/>
        <g id="グループ_289" data-name="グループ 289" transform="translate(24.072 18.807)">
          <path id="パス_438" data-name="パス 438" d="M3818.427,4290.845a1.438,1.438,0,0,1-1.417,1.342h-7.083a1.256,1.256,0,0,1-1.268-1.342l.652-3.646a1.435,1.435,0,0,1,1.416-1.341h6.188a1.255,1.255,0,0,1,1.268,1.341Z" transform="translate(-3805.813 -4285.858)" fill="#1a1a1a"/>
          <path id="パス_439" data-name="パス 439" d="M3805.729,4312.913a2.033,2.033,0,0,1,1.9,1.314h4.881l.122-.825a1.645,1.645,0,0,0-1.437-1.7h-11.335a1.711,1.711,0,0,0-1.565,1.21Z" transform="translate(-3798.293 -4304.609)" fill="#1a1a1a"/>
        </g>
        <g id="グループ_290" data-name="グループ 290" transform="translate(43.507 18.807)">
          <path id="パス_440" data-name="パス 440" d="M3890.226,4290.845a1.437,1.437,0,0,1-1.416,1.342h-7.084a1.256,1.256,0,0,1-1.267-1.342l.65-3.646a1.436,1.436,0,0,1,1.417-1.341h6.188a1.255,1.255,0,0,1,1.267,1.341Z" transform="translate(-3877.341 -4285.858)" fill="#1a1a1a"/>
          <path id="パス_441" data-name="パス 441" d="M3882.276,4311.7h-11.337a1.71,1.71,0,0,0-1.6,1.342l-.233,1.183h7.225c-.025.5-.043.829-.048.933a1.19,1.19,0,0,1-.708,1.073h7.725l.416-2.831A1.643,1.643,0,0,0,3882.276,4311.7Z" transform="translate(-3869.101 -4304.609)" fill="#1a1a1a"/>
        </g>
        <path id="パス_442" data-name="パス 442" d="M3910.733,4244.789a3.105,3.105,0,0,0-2.938-2.3h-2.624a3.693,3.693,0,0,0-3.417,3.268c-.215,1.766-.825,20.063-.825,20.063l-.091,1.167v13.9h6.134a.491.491,0,0,1,.513.477,2.364,2.364,0,0,1,.808-.155c.974,0,1.737.8,2.308,2h3.213v-16.6Zm1.33,20.352a1.163,1.163,0,0,1-.974.421,13.388,13.388,0,0,0-5.187.952,4.612,4.612,0,0,1-1.511.391h-.854a1.627,1.627,0,0,1-1.225-.439,1.782,1.782,0,0,1-.4-1.37c.045-.986.124-2.915.214-5.153.217-5.341.487-11.989.567-12.661a2.391,2.391,0,0,1,2.222-1.928h3.452a1.443,1.443,0,0,1,1.436,1.249l2.471,17.125A1.81,1.81,0,0,1,3912.063,4265.141Z" transform="translate(-3848.621 -4235.583)" fill="#b4b4b5"/>
        <path id="パス_443" data-name="パス 443" d="M3915.107,4271.307l-2.471-17.124a1.444,1.444,0,0,0-1.436-1.25h-3.452a2.391,2.391,0,0,0-2.221,1.927c-.082.673-.35,7.322-.568,12.663-.09,2.236-.168,4.165-.214,5.153a1.784,1.784,0,0,0,.4,1.369,1.626,1.626,0,0,0,1.225.439h.854a4.627,4.627,0,0,0,1.511-.391,13.4,13.4,0,0,1,5.187-.951,1.158,1.158,0,0,0,.973-.422A1.81,1.81,0,0,0,3915.107,4271.307Zm-.677,1.051a.6.6,0,0,1-.508.194,14.121,14.121,0,0,0-5.391.987,4.27,4.27,0,0,1-1.307.354h-.854a1.076,1.076,0,0,1-.8-.254,1.261,1.261,0,0,1-.236-.934c.045-.989.123-2.918.214-5.157.206-5.05.486-11.963.565-12.613.15-1.241,1.626-1.405,1.66-1.41h3.424a.862.862,0,0,1,.852.745l2.476,17.152A1.294,1.294,0,0,1,3914.43,4272.357Z" transform="translate(-3851.453 -4243.164)" fill="#231815"/>
        <path id="パス_444" data-name="パス 444" d="M3913.617,4255.832a.861.861,0,0,0-.852-.744h-3.424c-.034.006-1.509.168-1.66,1.41-.08.649-.36,7.563-.565,12.614-.091,2.238-.169,4.166-.214,5.156a1.259,1.259,0,0,0,.236.934,1.076,1.076,0,0,0,.8.254h.854a4.244,4.244,0,0,0,1.306-.354,14.154,14.154,0,0,1,5.392-.986.6.6,0,0,0,.508-.194,1.3,1.3,0,0,0,.1-.937Z" transform="translate(-3853.018 -4244.726)" fill="#fff" opacity="0.2"/>
        <g id="グループ_291" data-name="グループ 291" transform="translate(53.289 9.77)">
          <path id="パス_445" data-name="パス 445" d="M3907.225,4274.485h-.854a1.626,1.626,0,0,1-1.225-.439,1.784,1.784,0,0,1-.4-1.369c.045-.988.124-2.917.214-5.153.218-5.341.486-11.99.568-12.663a2.391,2.391,0,0,1,2.221-1.927h3.452a1.444,1.444,0,0,1,1.436,1.25l2.471,17.124a1.81,1.81,0,0,1-.212,1.414,1.158,1.158,0,0,1-.973.422,13.4,13.4,0,0,0-5.187.951A4.627,4.627,0,0,1,3907.225,4274.485Zm.551-20.961c-.034,0-1.51.169-1.66,1.41-.079.649-.359,7.563-.565,12.613-.091,2.239-.169,4.168-.214,5.157a1.261,1.261,0,0,0,.236.934,1.076,1.076,0,0,0,.8.254h.854a4.27,4.27,0,0,0,1.307-.354,14.121,14.121,0,0,1,5.391-.987.6.6,0,0,0,.508-.194,1.294,1.294,0,0,0,.1-.936l-2.476-17.152a.862.862,0,0,0-.852-.745Z" transform="translate(-3904.742 -4252.933)" fill="#231815"/>
        </g>
        <g id="グループ_292" data-name="グループ 292" transform="translate(17.106 24.516)">
          <path id="パス_446" data-name="パス 446" d="M3774.134,4309.251a3.9,3.9,0,0,1,3.245-1.609,5.292,5.292,0,0,1,3.7,1.609h1.218a6.541,6.541,0,0,0-5.062-2.6,4.69,4.69,0,0,0-4.322,2.6Z" transform="translate(-3772.917 -4306.656)"/>
        </g>
        <g id="グループ_293" data-name="グループ 293" transform="translate(4.573 27.111)">
          <path id="パス_447" data-name="パス 447" d="M3727.313,4319.291c.135.237.505.366,1.042.366h43.1c1.216,0,1.859-.437,1.911-1.3.005-.1.023-.434.049-.932h-17.326a2.035,2.035,0,0,0-1.9-1.314h-21.165a4.858,4.858,0,0,0-2.874,1.314h-2.234c-.239.561-.4.919-.469,1.035A.865.865,0,0,0,3727.313,4319.291Z" transform="translate(-3727.253 -4316.112)" fill="#1a1a1a"/>
        </g>
        <path id="長方形_1185" data-name="長方形 1185" d="M1.46,0H8.117a1.46,1.46,0,0,1,1.46,1.46v0a1.46,1.46,0,0,1-1.46,1.46H1.458A1.458,1.458,0,0,1,0,1.461v0A1.46,1.46,0,0,1,1.46,0Z" transform="translate(24.62 11.256)" fill="#1a1a1a"/>
        <path id="パス_448" data-name="パス 448" d="M3981.894,4397.6c-1.774,0-3.211,4.286-3.211,9.574s1.437,9.577,3.211,9.577h4.241c-1.774,0-3.212-4.289-3.212-9.577s1.438-9.574,3.212-9.574Z" transform="translate(-3905.098 -4348.125)" fill="#231815"/>
        <path id="長方形_1186" data-name="長方形 1186" d="M.594,0H19.421a.594.594,0,0,1,.594.594v0a.594.594,0,0,1-.594.594H.593A.593.593,0,0,1,0,.595v0A.594.594,0,0,1,.594,0Z" transform="translate(65.952 34.673)" fill="#bebfbf"/>
        <path id="パス_449" data-name="パス 449" d="M3948.114,4344.852h1.1a.336.336,0,0,1-.333-.337V4344a.334.334,0,0,1,.333-.334h-1.1Z" transform="translate(-3882.92 -4308.99)" fill="#888"/>
        <path id="長方形_1187" data-name="長方形 1187" d="M.646,0H19.368a.647.647,0,0,1,.647.647v0a.649.649,0,0,1-.649.649H.646A.646.646,0,0,1,0,.65v0A.646.646,0,0,1,.646,0Z" transform="translate(65.952 46.349)" fill="#9e9e9f"/>
        <path id="パス_450" data-name="パス 450" d="M3999.036,4390.911h-2.22c-.648,0-1.189.576-1.626,1.4.007.014.014.03.02.043.067.127.132.257.193.4h2.708c1.311,0,2.438,2.346,2.937,5.707h.563s.393.012.393-.6C4002,4396.8,4000.933,4390.911,3999.036,4390.911Z" transform="translate(-3917.074 -4343.27)" fill="#383231"/>
        <path id="パス_451" data-name="パス 451" d="M4000.552,4407.178c0,5.288-1.437,9.577-3.21,9.577s-3.211-4.289-3.211-9.577,1.438-9.574,3.211-9.574S4000.552,4401.89,4000.552,4407.178Z" transform="translate(-3916.306 -4348.125)" fill="#595757"/>
        <path id="パス_452" data-name="パス 452" d="M4003.649,4416.583c0,3.322-.819,6.016-1.83,6.016s-1.83-2.694-1.83-6.016.819-6.018,1.83-6.018S4003.649,4413.26,4003.649,4416.583Z" transform="translate(-3920.557 -4357.529)" fill="#eeeeef"/>
        <path id="パス_453" data-name="パス 453" d="M3759.251,4440.763c.342,4.192,1.608,7.306,3.119,7.306s2.778-3.113,3.12-7.306Z" transform="translate(-3745.896 -4379.438)" fill="#231815"/>
        <path id="パス_454" data-name="パス 454" d="M3748.044,4440.763h-4.24c.342,4.192,1.608,7.306,3.12,7.306h4.239C3749.653,4448.068,3748.385,4444.955,3748.044,4440.763Z" transform="translate(-3734.688 -4379.438)" fill="#3e3a39"/>
        <path id="パス_455" data-name="パス 455" d="M3838.7,4440.763c.341,4.192,1.609,7.306,3.119,7.306s2.777-3.113,3.119-7.306Z" transform="translate(-3803.539 -4379.438)" fill="#231815"/>
        <path id="パス_456" data-name="パス 456" d="M3827.492,4440.763h-4.242c.343,4.192,1.61,7.306,3.121,7.306h4.239C3829.1,4448.068,3827.833,4444.955,3827.492,4440.763Z" transform="translate(-3792.329 -4379.438)" fill="#3e3a39"/>
        <path id="パス_457" data-name="パス 457" d="M3921.03,4407.178c0,5.288-1.437,9.577-3.21,9.577s-3.211-4.289-3.211-9.577,1.438-9.574,3.211-9.574S3921.03,4401.89,3921.03,4407.178Z" transform="translate(-3858.611 -4348.125)" fill="#595757"/>
        <path id="パス_458" data-name="パス 458" d="M3924.125,4416.583c0,3.322-.819,6.016-1.83,6.016s-1.831-2.694-1.831-6.016.821-6.018,1.831-6.018S3924.125,4413.26,3924.125,4416.583Z" transform="translate(-3862.859 -4357.529)" fill="#eeeeef"/>
        <path id="パス_459" data-name="パス 459" d="M3921.826,4396.98c0-5.289,1.438-9.576,3.211-9.576h-2.712c-.068-.15-.136-.3-.209-.439-.073.141-.143.287-.212.439h0c-.05.113-.1.229-.147.348a17.293,17.293,0,0,0-1.066,4.763.592.592,0,0,1-.622.6h-4.373s-.393.012-.393-.6a17.836,17.836,0,0,1,1.086-4.763c.481-1.219,1.114-2.185,1.881-2.185l-12.288-.016c-.571-1.206-1.334-1.987-2.308-2-2.042-.039-2.8,2.835-3.388,5.883a28.4,28.4,0,0,1-1.429,5.752,8.332,8.332,0,0,1-3.048,3.47.087.087,0,0,1,0,.012,6.14,6.14,0,0,1-1.337.658,7.631,7.631,0,0,0,1.458.714c.428,3.788,1.626,6.521,3.041,6.521h4.24c-1.33,0-2.472-2.414-2.959-5.854h0a26.732,26.732,0,0,1-.251-3.722c0-5.289,1.437-9.576,3.21-9.576.761,0,1.459.791,2.009,2.109h0a11.67,11.67,0,0,1,.495,1.478l0,.012c.072.265.138.542.2.828,0,.012,0,.025.008.039.061.289.118.587.168.9a.069.069,0,0,0,0,.01q.077.469.137.966c0,.011,0,.021,0,.032q.056.475.1.97c0,.028,0,.061.007.091.024.319.044.646.057.977,0,.03,0,.058,0,.088q.021.532.021,1.081c0,.3,0,.591-.015.881,0,.119-.009.236-.014.355-.009.207-.018.413-.031.613.044-.062.084-.131.125-.2h7.543a1.352,1.352,0,0,0,1.348-1.084h2.217c.1,5.023,1.5,9.01,3.206,9.01h4.24C3923.264,4406.557,3921.826,4402.268,3921.826,4396.98Z" transform="translate(-3844.001 -4337.926)" fill="#231815"/>
        <path id="パス_460" data-name="パス 460" d="M3921.03,4407.178c0,5.288-1.437,9.577-3.21,9.577s-3.211-4.289-3.211-9.577,1.438-9.574,3.211-9.574S3921.03,4401.89,3921.03,4407.178Z" transform="translate(-3858.611 -4348.125)" fill="#595757"/>
        <path id="パス_461" data-name="パス 461" d="M3924.125,4416.583c0,3.322-.819,6.016-1.83,6.016s-1.831-2.694-1.831-6.016.821-6.018,1.831-6.018S3924.125,4413.26,3924.125,4416.583Z" transform="translate(-3862.859 -4357.529)" fill="#eeeeef"/>
        <path id="パス_462" data-name="パス 462" d="M4005.756,4427.719c0,1-.247,1.8-.55,1.8s-.549-.809-.549-1.8.246-1.8.549-1.8S4005.756,4426.722,4005.756,4427.719Z" transform="translate(-3923.943 -4368.666)" fill="#595757"/>
        <path id="パス_463" data-name="パス 463" d="M3926.229,4427.719c0,1-.247,1.8-.548,1.8s-.55-.809-.55-1.8.247-1.8.55-1.8S3926.229,4426.722,3926.229,4427.719Z" transform="translate(-3866.246 -4368.666)" fill="#595757"/>
        <path id="パス_464" data-name="パス 464" d="M4002.265,4424.252c-1.079,0-1.661-2.58-1.661-5.009s.582-5.012,1.661-5.012,1.661,2.582,1.661,5.012S4003.345,4424.252,4002.265,4424.252Zm0-9.626c-.6,0-1.267,1.975-1.267,4.617s.669,4.615,1.267,4.615,1.267-1.975,1.267-4.615S4002.864,4414.626,4002.265,4414.626Z" transform="translate(-3921.003 -4360.189)" fill="#231815"/>
        <path id="パス_465" data-name="パス 465" d="M3922.743,4424.252c-1.079,0-1.662-2.58-1.662-5.009s.583-5.012,1.662-5.012,1.661,2.582,1.661,5.012S3923.822,4424.252,3922.743,4424.252Zm0-9.626c-.529,0-1.267,1.756-1.267,4.617s.738,4.615,1.267,4.615,1.266-1.756,1.266-4.615S3923.272,4414.626,3922.743,4414.626Z" transform="translate(-3863.307 -4360.189)" fill="#231815"/>
        <path id="パス_466" data-name="パス 466" d="M3886,4393.127s-1.051,13.075-2.1,13.075h3.081a8.111,8.111,0,0,0,4.208-4.07c1.005-2.094,1.287-6.267,2.244-9Z" transform="translate(-3836.326 -4344.877)" fill="#1a1a1a"/>
        <path id="パス_467" data-name="パス 467" d="M3900.237,4382.372h-6.314l-2.368,2.953h7.43a3.876,3.876,0,0,1,1.765-2.475A.491.491,0,0,0,3900.237,4382.372Z" transform="translate(-3841.886 -4337.074)" fill="#262626"/>
        <path id="パス_468" data-name="パス 468" d="M3710.592,4393.127s-.023,13.075,3.921,13.075h43.646c1.052,0,2.1-13.075,2.1-13.075Z" transform="translate(-3710.592 -4344.877)" fill="#333"/>
        <path id="パス_469" data-name="パス 469" d="M3710.593,4385.323l1.424-2.952h50.613l-2.367,2.952Z" transform="translate(-3710.593 -4337.073)" fill="#4d4d4d"/>
        <path id="パス_470" data-name="パス 470" d="M3901.907,4350.513h-1.069v2.664h1.513v-1.93S3902.317,4350.513,3901.907,4350.513Z" transform="translate(-3848.621 -4313.959)" fill="#ec6c00"/>
        <rect id="長方形_1188" data-name="長方形 1188" width="1.513" height="6.079" transform="translate(52.218 39.219)" fill="#dbdcdc"/>
        <path id="パス_471" data-name="パス 471" d="M3730.367,4242.484c-4.6,0-5.668,2.8-5.668,2.8s-8.27,19.779-8.612,20.527a5.093,5.093,0,0,0-.207,2.083l-.1,4.237h6.456c2.319,0,2.326,2.664,2.326,2.664h0v6.08h42.012v-13.9l.091-1.167s.611-18.3.826-20.063a3.691,3.691,0,0,1,3.417-3.268Zm35.264,22.49c-.034.559-.343,1.856-2.5,1.856h-43.1c-.973,0-1.383-.36-1.556-.665a1.4,1.4,0,0,1,.139-1.424c.248-.417,2.172-5.177,3.87-9.375,2.127-5.261,3.433-8.478,3.637-8.8l.026-.041a2.442,2.442,0,0,1,2.045-1.477c.976-.027,4.617-.041,10.823-.041,6.078,0,14.375.013,24.667.038l.966,0a2.017,2.017,0,0,1,1.4.632,1.783,1.783,0,0,1,.5,1.322C3766.5,4248.025,3765.682,4264.131,3765.631,4264.975Z" transform="translate(-3714.357 -4235.583)" fill="#e2e2e2"/>
        <path id="パス_472" data-name="パス 472" d="M3774.284,4255.2a1.191,1.191,0,0,0-.342-.885,1.426,1.426,0,0,0-.97-.448l-.968,0c-10.29-.026-18.588-.039-24.665-.039-6.2,0-9.836.015-10.807.042-.814.021-1.161.57-1.562,1.2l-.026.04c-.193.312-2,4.77-3.587,8.7-2.2,5.438-3.659,9.035-3.911,9.458a.864.864,0,0,0-.132.829c.135.237.505.367,1.042.367h43.1c1.216,0,1.859-.437,1.911-1.3C3773.414,4272.325,3774.233,4256.226,3774.284,4255.2Z" transform="translate(-3722.68 -4243.812)" fill="#fff" opacity="0.4"/>
        <path id="パス_473" data-name="パス 473" d="M3769.886,4273.5h-43.1c-.974,0-1.383-.361-1.556-.665a1.4,1.4,0,0,1,.138-1.425c.248-.417,2.172-5.177,3.87-9.375,2.127-5.261,3.433-8.478,3.638-8.8l.025-.04a2.438,2.438,0,0,1,2.044-1.477c.976-.028,4.618-.042,10.824-.042,6.077,0,14.376.014,24.666.039l.966,0a2.012,2.012,0,0,1,1.4.632,1.783,1.783,0,0,1,.5,1.321c-.051,1.024-.87,17.129-.92,17.972C3772.353,4272.2,3772.044,4273.5,3769.886,4273.5Zm-24.114-21.232c-6.2,0-9.837.014-10.807.042-.815.023-1.162.57-1.562,1.2l-.026.04c-.194.311-2,4.771-3.588,8.7-2.2,5.438-3.659,9.034-3.911,9.458a.861.861,0,0,0-.132.83c.135.237.505.367,1.042.367h43.1c1.217,0,1.859-.437,1.91-1.3.05-.844.87-16.943.92-17.968a1.191,1.191,0,0,0-.342-.884,1.427,1.427,0,0,0-.97-.448l-.968,0C3760.147,4252.278,3751.849,4252.265,3745.772,4252.265Z" transform="translate(-3721.114 -4242.25)"/>
        <path id="パス_474" data-name="パス 474" d="M3722.238,4350.513h-6.456v2.664h8.782S3724.556,4350.513,3722.238,4350.513Z" transform="translate(-3714.357 -4313.959)" fill="#f29600"/>
        <rect id="長方形_1189" data-name="長方形 1189" width="8.781" height="6.079" transform="translate(1.424 39.219)" fill="#fff"/>
        <path id="長方形_1190" data-name="長方形 1190" d="M2.825,0h0A2.824,2.824,0,0,1,5.65,2.824V5.063A2.824,2.824,0,0,1,2.826,7.888h0A2.826,2.826,0,0,1,0,5.062V2.825A2.825,2.825,0,0,1,2.825,0Z" transform="translate(55.469 23.436)"/>
        <path id="パス_475" data-name="パス 475" d="M3870.981,4350.513h6.51v2.664h-8.833S3868.664,4350.513,3870.981,4350.513Z" transform="translate(-3825.272 -4313.959)" fill="#f29600"/>
        <rect id="長方形_1191" data-name="長方形 1191" width="8.833" height="6.079" transform="translate(43.385 39.219)" fill="#fff"/>
        <path id="パス_476" data-name="パス 476" d="M3763.162,4400.546a1.342,1.342,0,0,1-1.342,1.341h-43.264a1.341,1.341,0,0,1-1.341-1.341v-.571a1.341,1.341,0,0,1,1.341-1.342h43.264a1.343,1.343,0,0,1,1.342,1.342Z" transform="translate(-3715.397 -4348.872)"/>
        <path id="長方形_1192" data-name="長方形 1192" d="M1.627,0H5.039A1.627,1.627,0,0,1,6.666,1.627v0A1.627,1.627,0,0,1,5.039,3.254H1.627A1.627,1.627,0,0,1,0,1.627v0A1.627,1.627,0,0,1,1.627,0Z" transform="translate(1.818 49.762)" fill="#c8c9ca"/>
        <path id="長方形_1193" data-name="長方形 1193" d="M1.627,0H5.039A1.627,1.627,0,0,1,6.665,1.627v0A1.627,1.627,0,0,1,5.038,3.254H1.627A1.627,1.627,0,0,1,0,1.627v0A1.627,1.627,0,0,1,1.627,0Z" transform="translate(41.178 49.762)" fill="#c8c9ca"/>
        <path id="長方形_1194" data-name="長方形 1194" d="M1.223,0H17.2A1.222,1.222,0,0,1,18.42,1.222v2.5A1.222,1.222,0,0,1,17.2,4.948H1.223A1.223,1.223,0,0,1,0,3.725v-2.5A1.223,1.223,0,0,1,1.223,0Z" transform="translate(15.21 51.777)" fill="#d9d9d9"/>
        <path id="パス_477" data-name="パス 477" d="M3935.193,4340.642a.335.335,0,0,0,.335.335h1.565a.334.334,0,0,0,.334-.335v-1.007a.335.335,0,0,0-.334-.335h-1.565a.336.336,0,0,0-.335.335Z" transform="translate(-3873.546 -4305.824)" fill="#262626"/>
        <rect id="長方形_1195" data-name="長方形 1195" width="20.217" height="10.489" transform="translate(65.197 35.864)" fill="#b4b4b5"/>
        <path id="パス_478" data-name="パス 478" d="M3949.145,4363.536a.331.331,0,0,1-.263-.321v-.625a.334.334,0,0,1,.333-.336h-.65v-9.059h-.448v9.059h0v1.282Z" transform="translate(-3882.92 -4315.905)" fill="#888"/>
        <rect id="長方形_1196" data-name="長方形 1196" width="4.043" height="7.099" transform="translate(65.555 53.804)" fill="#c8c9ca"/>
        <g id="グループ_294" data-name="グループ 294" transform="translate(71.301 47.642)">
          <path id="パス_479" data-name="パス 479" d="M3970.363,4403.631c0,.608.393.6.393.6h4.372a.592.592,0,0,0,.623-.6,17.275,17.275,0,0,1,1.066-4.763h-5.367A17.875,17.875,0,0,0,3970.363,4403.631Z" transform="translate(-3970.363 -4396.684)" fill="#b3b3b3"/>
          <path id="パス_480" data-name="パス 480" d="M3981.676,4390.911H3976.2c-.767,0-1.4.965-1.881,2.184h5.367C3980.175,4391.876,3980.835,4390.911,3981.676,4390.911Z" transform="translate(-3973.235 -4390.911)" fill="#717071"/>
        </g>
        <rect id="長方形_1197" data-name="長方形 1197" width="20.217" height="1.426" transform="translate(65.197 35.864)" fill="#9e9e9f"/>
        <g id="グループ_295" data-name="グループ 295" transform="translate(68.603 2.496)">
          <path id="パス_481" data-name="パス 481" d="M3983.373,4226.438s1.038,1.568,1.938,1.568c1.091,0,2.014-1.689,2.014-1.568,0,.148-.777,2.241-2.014,2.241S3983.351,4226.663,3983.373,4226.438Z" transform="translate(-3977.104 -4226.432)" fill="#47856b"/>
          <path id="パス_482" data-name="パス 482" d="M4006.1,4226.438s1.036,1.568,1.938,1.568c1.091,0,2.013-1.689,2.013-1.568,0,.148-.775,2.241-2.013,2.241S4006.079,4226.663,4006.1,4226.438Z" transform="translate(-3993.594 -4226.432)" fill="#47856b"/>
          <path id="パス_483" data-name="パス 483" d="M3960.534,4226.438s1.037,1.568,1.938,1.568c1.091,0,2.015-1.689,2.015-1.568,0,.148-.778,2.241-2.015,2.241S3960.512,4226.663,3960.534,4226.438Z" transform="translate(-3960.534 -4226.432)" fill="#47856b"/>
        </g>
        <g id="グループ_296" data-name="グループ 296" transform="translate(68.603 2.348)">
          <path id="パス_484" data-name="パス 484" d="M3983.374,4225.973c0-.355,1.037.811,1.938.811,1.092,0,2.015-1.214,2.015-.811a2.384,2.384,0,0,1-2.015,1.542C3984.075,4227.514,3983.374,4226.056,3983.374,4225.973Z" transform="translate(-3977.105 -4225.891)" fill="#27654d"/>
          <path id="パス_485" data-name="パス 485" d="M4006.1,4225.973c0-.355,1.036.811,1.938.811,1.091,0,2.013-1.214,2.013-.811a2.38,2.38,0,0,1-2.013,1.542C4006.8,4227.514,4006.1,4226.056,4006.1,4225.973Z" transform="translate(-3993.595 -4225.891)" fill="#27654d"/>
          <path id="パス_486" data-name="パス 486" d="M3960.535,4225.973c0-.355,1.037.811,1.938.811,1.091,0,2.015-1.214,2.015-.811a2.386,2.386,0,0,1-2.015,1.542C3961.237,4227.514,3960.535,4226.056,3960.535,4225.973Z" transform="translate(-3960.535 -4225.891)" fill="#27654d"/>
        </g>
        <g id="グループ_297" data-name="グループ 297" transform="translate(75.325 31.779)">
          <path id="パス_487" data-name="パス 487" d="M3989.887,4337.211c0-.152-.215.356-.465.759-.308.494-.448.418-.45.569s.242.067.493-.3A2.624,2.624,0,0,0,3989.887,4337.211Z" transform="translate(-3987.888 -4336.067)" fill="#47856b"/>
          <path id="パス_488" data-name="パス 488" d="M3989.732,4333.14c0-.144-.233.46-.463,1.114a6.033,6.033,0,0,0-.383,1.111c.006.156.245-.193.478-.815A6.063,6.063,0,0,0,3989.732,4333.14Z" transform="translate(-3987.826 -4333.119)" fill="#27654d"/>
          <path id="パス_489" data-name="パス 489" d="M3985.024,4337.211c0-.152.215.356.465.759.308.494.448.418.45.569s-.241.067-.494-.3A2.626,2.626,0,0,1,3985.024,4337.211Z" transform="translate(-3985.024 -4336.067)" fill="#47856b"/>
          <path id="パス_490" data-name="パス 490" d="M3985.355,4333.14c0-.144.235.46.464,1.114a6.016,6.016,0,0,1,.384,1.111c-.007.156-.245-.193-.479-.815A6.208,6.208,0,0,1,3985.355,4333.14Z" transform="translate(-3985.264 -4333.119)" fill="#27654d"/>
        </g>
        <g id="グループ_298" data-name="グループ 298" transform="translate(83.134 31.779)">
          <path id="パス_491" data-name="パス 491" d="M4018.341,4337.211c0-.152-.216.356-.467.759-.307.494-.448.418-.449.569s.241.067.493-.3A2.666,2.666,0,0,0,4018.341,4337.211Z" transform="translate(-4016.341 -4336.067)" fill="#47856b"/>
          <path id="パス_492" data-name="パス 492" d="M4018.187,4333.14c0-.144-.234.46-.464,1.114a6.062,6.062,0,0,0-.384,1.111c.008.156.246-.193.479-.815A6.219,6.219,0,0,0,4018.187,4333.14Z" transform="translate(-4016.278 -4333.119)" fill="#27654d"/>
          <path id="パス_493" data-name="パス 493" d="M4013.477,4337.211c0-.152.215.356.465.759.308.494.448.418.45.569s-.241.067-.494-.3A2.641,2.641,0,0,1,4013.477,4337.211Z" transform="translate(-4013.477 -4336.067)" fill="#47856b"/>
          <path id="パス_494" data-name="パス 494" d="M4013.81,4333.14c0-.144.234.46.463,1.114a6.016,6.016,0,0,1,.384,1.111c-.006.156-.245-.193-.478-.815A6.17,6.17,0,0,1,4013.81,4333.14Z" transform="translate(-4013.718 -4333.119)" fill="#27654d"/>
        </g>
        <g id="グループ_299" data-name="グループ 299" transform="translate(68.485 31.779)">
          <path id="パス_495" data-name="パス 495" d="M3964.966,4337.211c0-.152-.215.356-.466.759-.308.494-.449.418-.45.569s.241.067.494-.3A2.66,2.66,0,0,0,3964.966,4337.211Z" transform="translate(-3962.967 -4336.067)" fill="#47856b"/>
          <path id="パス_496" data-name="パス 496" d="M3964.813,4333.14c0-.144-.233.46-.462,1.114a5.954,5.954,0,0,0-.384,1.111c.007.156.245-.193.478-.815A6.127,6.127,0,0,0,3964.813,4333.14Z" transform="translate(-3962.906 -4333.119)" fill="#27654d"/>
          <path id="パス_497" data-name="パス 497" d="M3960.1,4337.211c0-.152.216.356.465.759.309.494.449.418.449.569s-.24.067-.492-.3A2.647,2.647,0,0,1,3960.1,4337.211Z" transform="translate(-3960.104 -4336.067)" fill="#47856b"/>
          <path id="パス_498" data-name="パス 498" d="M3960.437,4333.14c0-.144.234.46.464,1.114a5.942,5.942,0,0,1,.383,1.111c-.007.156-.245-.193-.478-.815A6.236,6.236,0,0,1,3960.437,4333.14Z" transform="translate(-3960.345 -4333.119)" fill="#27654d"/>
        </g>
        <path id="パス_499" data-name="パス 499" d="M3961.123,4356.5h-.007a.118.118,0,0,1-.113-.123l.632-13.148a.12.12,0,0,1,.12-.112h0a.12.12,0,0,1,.113.124l-.633,13.147A.119.119,0,0,1,3961.123,4356.5Z" transform="translate(-3892.271 -4308.59)" fill="#717071"/>
        <path id="パス_500" data-name="パス 500" d="M3989.211,4356.5a.118.118,0,0,1-.118-.112l-.594-13.147a.121.121,0,0,1,.112-.124.118.118,0,0,1,.124.114l.593,13.147a.117.117,0,0,1-.112.123Z" transform="translate(-3912.221 -4308.59)" fill="#717071"/>
        <path id="パス_501" data-name="パス 501" d="M4014.965,4356.5h-.006a.118.118,0,0,1-.112-.123l.631-13.148a.114.114,0,0,1,.125-.112.118.118,0,0,1,.112.124l-.632,13.147A.119.119,0,0,1,4014.965,4356.5Z" transform="translate(-3931.336 -4308.59)" fill="#717071"/>
      </g>
      <g id="header_logo" data-name="header logo" transform="translate(62.367 34.983)">
        <g id="グループ_1" data-name="グループ 1" transform="translate(0 0.147)">
          <rect id="長方形_1" data-name="長方形 1" width="1.371" height="1.371" transform="translate(6.572 4.77)" fill="#03a58e"/>
          <path id="パス_1" data-name="パス 1" d="M3756.939,4348.725v-1.372h1.089l-3.146-2.027-3.146,2.027h1.089v4.114h1.371V4350.1h1.371v-1.371h1.368v1.37h-1.368v1.372h1.371V4350.1h1.369v-1.37Z" transform="translate(-3751.735 -4345.326)" fill="#03a58e"/>
        </g>
        <rect id="長方形_2" data-name="長方形 2" width="1.35" height="1.35" transform="translate(11.348 0.087)" fill="#03a58e"/>
        <g id="グループ_2" data-name="グループ 2" transform="translate(8.639)">
          <path id="パス_2" data-name="パス 2" d="M3788.1,4346.359l-3.526.1a.855.855,0,0,0,.566-1.068.816.816,0,0,0-.087-.194l.015-.005h0l.47-.162a.033.033,0,0,0,.02-.041h0a.036.036,0,0,0-.035-.021l-.554.024-.1-.006a.856.856,0,1,0-1.1,1.313.843.843,0,0,0,.342.174h0v0h0l-.235,2.312-.574,1.917h0l-.015.05-.077.254h0a.06.06,0,0,0,.039.072l.017,0h1.277a.065.065,0,0,0,.065-.065h0v-.25a.066.066,0,0,0-.065-.064h-.137l.49-1.636,1.5.229v1.707a.08.08,0,0,0,.079.081h1.275a.065.065,0,0,0,.064-.065h0v-.25a.065.065,0,0,0-.064-.064h-.279v-2.188a.168.168,0,0,0-.143-.167l-2.289-.349.049-.478,3.044-.089a.084.084,0,0,0,.083-.086l-.026-.907a.086.086,0,0,0-.087-.082Zm-4.363-.583a.647.647,0,0,1-.015-.121l.072-.025,1-.346a.6.6,0,0,1-.119.837.59.59,0,0,1-.227.1.6.6,0,0,1-.716-.449v0Z" transform="translate(-3783.21 -4344.79)" fill="#1a1311"/>
          <path id="パス_3" data-name="パス 3" d="M3813.619,4349.622h-.668v-.926a.091.091,0,0,0-.09-.09h-.821a.091.091,0,0,0-.09.09h0v.926h-1.23a.091.091,0,0,0-.09.091v.82a.091.091,0,0,0,.09.09h1.23v2.873h-.243a.077.077,0,0,0-.076.076v.2a.076.076,0,0,0,.076.076h1.166a.08.08,0,0,0,.08-.08h0v-3.146h.668a.091.091,0,0,0,.091-.09h0v-.822A.091.091,0,0,0,3813.619,4349.622Z" transform="translate(-3803.103 -4347.558)" fill="#1a1311"/>
          <path id="パス_4" data-name="パス 4" d="M3832.172,4350.513h-.6v-.6a.076.076,0,0,0-.075-.076h-.752a.075.075,0,0,0-.075.075h0v.6h-.989a.075.075,0,0,0-.075.076h0v.851a.075.075,0,0,0,.075.076h.989v1.47a.846.846,0,0,1-.846.845h-.148a.069.069,0,0,0-.069.069h0v.763a.069.069,0,0,0,.069.069h.147a1.748,1.748,0,0,0,1.75-1.748h0v-1.47h.6a.074.074,0,0,0,.075-.075h0v-.852A.074.074,0,0,0,3832.172,4350.513Z" transform="translate(-3816.871 -4348.45)" fill="#1a1311"/>
          <path id="パス_5" data-name="パス 5" d="M3844.451,4351.02h.867a.092.092,0,0,0,.091-.091v-.907h.812a.051.051,0,0,0,.05-.049h0v-1.494a.085.085,0,0,0-.085-.085h-.057v0h-1.877v-.773a.08.08,0,0,0-.081-.08h-.8a.08.08,0,0,0-.08.08h0v.773h-1.935a.086.086,0,0,0-.085.085v1.467a.08.08,0,0,0,.081.08h.781v.907a.091.091,0,0,0,.091.091h1.066v.211h-1.345a.08.08,0,0,0-.081.08v.583a.081.081,0,0,0,.081.081h1.345v.2h-1.938a.081.081,0,0,0-.082.081h0v.583a.083.083,0,0,0,.082.082h4.834a.083.083,0,0,0,.081-.082v-.583a.082.082,0,0,0-.081-.082h-1.938v-.2h1.345a.082.082,0,0,0,.081-.082v-.583a.081.081,0,0,0-.081-.08h-1.345v-.211Zm-2.219-1.637v-.174h3.082v.174Zm.862.83v-.021a.091.091,0,0,1,.091-.091h1.175a.091.091,0,0,1,.091.091v.021a.091.091,0,0,1-.091.09h-1.175a.091.091,0,0,1-.091-.09Z" transform="translate(-3825.337 -4346.784)" fill="#1a1311"/>
          <path id="パス_6" data-name="パス 6" d="M3824.949,4355.6h-.206v-3.221a.076.076,0,0,0-.076-.076h-.759a.076.076,0,0,0-.075.076h0v3.444a.1.1,0,0,0,.1.1h1.018a.084.084,0,0,0,.083-.084h0v-.153a.085.085,0,0,0-.083-.084Z" transform="translate(-3812.684 -4350.244)" fill="#1a1311"/>
          <path id="パス_7" data-name="パス 7" d="M3811.786,4359.168a.475.475,0,1,0,.474.475h0A.474.474,0,0,0,3811.786,4359.168Z" transform="translate(-3803.597 -4355.222)" fill="#1a1311"/>
          <path id="パス_8" data-name="パス 8" d="M3844.437,4347.826a.474.474,0,1,0-.475-.474h0A.474.474,0,0,0,3844.437,4347.826Z" transform="translate(-3827.287 -4346.305)" fill="#1a1311"/>
          <path id="パス_9" data-name="パス 9" d="M3853.809,4347.826a.474.474,0,1,0-.475-.474h0A.474.474,0,0,0,3853.809,4347.826Z" transform="translate(-3834.087 -4346.305)" fill="#1a1311"/>
          <path id="パス_10" data-name="パス 10" d="M3804.28,4349.1l-.743-.374a.085.085,0,0,0-.115.037h0l-.7,1.4,0,0-.3.606a.085.085,0,0,0,.038.114l.605.3v2.659a.092.092,0,0,0,.092.094h.818a.093.093,0,0,0,.092-.094V4350.9a.124.124,0,0,0-.07-.111l-.372-.186.7-1.391a.085.085,0,0,0-.038-.113Z" transform="translate(-3797.139 -4347.637)" fill="#1a1311"/>
        </g>
        <g id="グループ_3" data-name="グループ 3" transform="translate(6.202 7.003)">
          <path id="パス_11" data-name="パス 11" d="M3794.114,4370.571h-.225v.178h.207v.717h-.173v-.048h-.458v.056h-.165v-.724h.2v-.178h-.208v-.129c-.021.059-.044.117-.07.175l.042.014a.041.041,0,0,1-.036.025v.836h-.171v-.57a1.037,1.037,0,0,1-.062.085,2.058,2.058,0,0,0-.074-.193,1.511,1.511,0,0,0,.232-.5l.192.064a.034.034,0,0,1-.037.016l0,.014h.813Zm-.649.333v.359h.051v-.359Zm.253,0h-.053v.359h.053Zm0-.155v-.176h-.052v.176Zm.2.515v-.358h-.055v.358Z" transform="translate(-3787.818 -4370.312)" fill="#1a1311"/>
          <path id="パス_12" data-name="パス 12" d="M3799.778,4370.428l.117.054a.043.043,0,0,1-.019.02.941.941,0,0,1-.177.315.832.832,0,0,0,.265.126.771.771,0,0,0-.1.132v.4h-.173v-.034h-.212v.037h-.166v-.383l-.055.022a.588.588,0,0,0-.052-.085l-.047.066c-.011-.029-.029-.068-.047-.107v.486h-.17v-.409a.9.9,0,0,1-.1.2.935.935,0,0,0-.081-.165,1.119,1.119,0,0,0,.168-.386h-.139v-.166h.151v-.25l.206.011c0,.013-.013.021-.036.026v.213h.126v.075a.964.964,0,0,0,.2-.326l.193.064a.036.036,0,0,1-.035.014l-.025.053h.181Zm-.668.293v.04c.029.035.1.134.132.183a.99.99,0,0,0,.215-.126c-.026-.032-.05-.066-.073-.1a.708.708,0,0,1-.083.084,1.143,1.143,0,0,0-.086-.082Zm.571.289a.916.916,0,0,1-.1-.074,1.183,1.183,0,0,1-.1.074Zm-.2.28h.212v-.13h-.212Zm0-.7a.866.866,0,0,0,.09.119.746.746,0,0,0,.083-.119Z" transform="translate(-3792.055 -4370.303)" fill="#1a1311"/>
          <path id="パス_13" data-name="パス 13" d="M3804.892,4371.992a.173.173,0,1,1-.173-.173A.173.173,0,0,1,3804.892,4371.992Z" transform="translate(-3796.253 -4371.403)" fill="#1a1311"/>
          <path id="パス_14" data-name="パス 14" d="M3807.931,4371.1a1,1,0,0,1,.312.144.393.393,0,0,1-.089.194.742.742,0,0,0-.214-.148v0c0,.123-.09.205-.269.205s-.314-.081-.314-.223c0-.121.118-.21.314-.21.024,0,.049,0,.073,0l0-.1c-.11,0-.219,0-.3,0a.618.618,0,0,1-.032-.187c.073.009.146.013.219.015.033,0,.072,0,.111,0v-.119a2.384,2.384,0,0,1-.257-.008.562.562,0,0,1-.03-.175,1.426,1.426,0,0,0,.2.018h.086v-.015a1.327,1.327,0,0,0,0-.133.994.994,0,0,1,.2.014c0,.042-.007.083-.008.126a1.422,1.422,0,0,0,.2-.027.57.57,0,0,1,0,.173,1.754,1.754,0,0,1-.208.024c0,.037,0,.073,0,.109v.007a1.848,1.848,0,0,0,.253-.038.708.708,0,0,1,0,.185,2.141,2.141,0,0,1-.242.029Zm-.181.13a.667.667,0,0,0-.1-.009c-.062,0-.1.018-.1.053s.029.055.1.055.106-.028.107-.1Z" transform="translate(-3798.292 -4370.345)" fill="#1a1311"/>
          <path id="パス_15" data-name="パス 15" d="M3812.059,4371.053a.223.223,0,0,0-.036.112c0,.056.038.112.218.112a1.025,1.025,0,0,0,.41-.079.574.574,0,0,1,.049.205,1.227,1.227,0,0,1-.452.072c-.265,0-.438-.1-.438-.266a.547.547,0,0,1,.058-.221A.773.773,0,0,1,3812.059,4371.053Zm-.146-.573a2.19,2.19,0,0,0,.649.006.9.9,0,0,1,0,.2,2.553,2.553,0,0,1-.634,0,.823.823,0,0,1-.01-.2Zm.826.107a.407.407,0,0,1-.1.042.836.836,0,0,0-.071-.169.473.473,0,0,1,.1-.042.9.9,0,0,1,.076.168Zm.138-.059a.417.417,0,0,1-.1.042.762.762,0,0,0-.073-.163.644.644,0,0,1,.1-.042.588.588,0,0,1,.075.162Z" transform="translate(-3801.523 -4370.349)" fill="#1a1311"/>
          <path id="パス_16" data-name="パス 16" d="M3816.908,4371.352a.231.231,0,0,0-.036.11c0,.055.039.112.218.112a1.064,1.064,0,0,0,.41-.079.557.557,0,0,1,.049.206,1.249,1.249,0,0,1-.452.072c-.264,0-.437-.1-.437-.266a.524.524,0,0,1,.059-.222A.726.726,0,0,1,3816.908,4371.352Zm-.145-.575a2.428,2.428,0,0,0,.686.008.892.892,0,0,1,0,.194,2.872,2.872,0,0,1-.673,0A1,1,0,0,1,3816.763,4370.776Z" transform="translate(-3805.041 -4370.647)" fill="#1a1311"/>
          <path id="パス_17" data-name="パス 17" d="M3821.28,4370.522a2.747,2.747,0,0,0,.442-.038.472.472,0,0,1,.076.133,3.563,3.563,0,0,0-.316.291.48.48,0,0,1,.138-.021.33.33,0,0,1,.354.3v.014c0,.242-.188.427-.612.385a.633.633,0,0,1-.063-.21c.271.048.469,0,.469-.177,0-.082-.062-.158-.2-.158a.551.551,0,0,0-.428.3.563.563,0,0,1-.142-.162c.129-.145.378-.387.49-.5-.057.01-.188.024-.276.028a.67.67,0,0,1-.045-.187C3821.19,4370.52,3821.234,4370.522,3821.28,4370.522Z" transform="translate(-3808.189 -4370.435)" fill="#1a1311"/>
          <path id="パス_18" data-name="パス 18" d="M3774.908,4371.1a1,1,0,0,1,.312.144.4.4,0,0,1-.089.194.727.727,0,0,0-.215-.148v0c0,.123-.09.205-.268.205s-.314-.081-.314-.223c0-.121.118-.21.314-.21.024,0,.049,0,.073,0l-.005-.1c-.11,0-.219,0-.3,0a.619.619,0,0,1-.033-.187c.073.009.146.013.22.015.033,0,.071,0,.111,0v-.119a2.386,2.386,0,0,1-.258-.008.592.592,0,0,1-.03-.175,1.419,1.419,0,0,0,.2.018h.086v-.015c0-.067,0-.1,0-.133a.972.972,0,0,1,.2.014c0,.042-.005.083-.006.126a1.406,1.406,0,0,0,.2-.027.57.57,0,0,1,0,.173,1.742,1.742,0,0,1-.208.024c0,.037,0,.073,0,.109v.007a1.834,1.834,0,0,0,.252-.038.668.668,0,0,1,0,.185,2.1,2.1,0,0,1-.242.029Zm-.181.13a.64.64,0,0,0-.1-.009c-.061,0-.1.018-.1.053s.029.055.1.055.107-.028.108-.1Z" transform="translate(-3774.333 -4370.345)" fill="#1a1311"/>
          <path id="パス_19" data-name="パス 19" d="M3779.038,4371.053a.233.233,0,0,0-.036.112c0,.056.038.112.217.112a1.023,1.023,0,0,0,.409-.079.555.555,0,0,1,.05.205,1.223,1.223,0,0,1-.451.072c-.266,0-.438-.1-.438-.266a.54.54,0,0,1,.058-.221A.767.767,0,0,1,3779.038,4371.053Zm-.144-.573a2.183,2.183,0,0,0,.648.006.932.932,0,0,1,0,.2,2.561,2.561,0,0,1-.635,0,.822.822,0,0,1-.009-.2Zm.825.107a.4.4,0,0,1-.1.042.864.864,0,0,0-.071-.169.494.494,0,0,1,.095-.042.9.9,0,0,1,.076.168Zm.138-.059a.414.414,0,0,1-.1.042.74.74,0,0,0-.073-.163.649.649,0,0,1,.1-.042.632.632,0,0,1,.075.162Z" transform="translate(-3777.566 -4370.349)" fill="#1a1311"/>
          <path id="パス_20" data-name="パス 20" d="M3783.887,4371.352a.226.226,0,0,0-.036.11c0,.055.038.112.217.112a1.06,1.06,0,0,0,.41-.079.567.567,0,0,1,.05.206,1.25,1.25,0,0,1-.452.072c-.265,0-.438-.1-.438-.266a.531.531,0,0,1,.059-.222A.735.735,0,0,1,3783.887,4371.352Zm-.146-.575a2.432,2.432,0,0,0,.687.008,1.034,1.034,0,0,1,0,.194,2.872,2.872,0,0,1-.673,0A.936.936,0,0,1,3783.742,4370.776Z" transform="translate(-3781.084 -4370.647)" fill="#1a1311"/>
          <path id="パス_21" data-name="パス 21" d="M3788.258,4370.522a2.758,2.758,0,0,0,.443-.038.511.511,0,0,1,.076.133,3.5,3.5,0,0,0-.316.291.473.473,0,0,1,.137-.021.33.33,0,0,1,.354.3v.014c0,.242-.189.427-.611.385a.635.635,0,0,1-.064-.21c.272.048.469,0,.469-.177,0-.082-.061-.158-.2-.158a.554.554,0,0,0-.428.3.572.572,0,0,1-.143-.162c.129-.145.378-.387.49-.5-.058.01-.188.024-.277.028a.725.725,0,0,1-.045-.187C3788.168,4370.52,3788.211,4370.522,3788.258,4370.522Z" transform="translate(-3784.231 -4370.435)" fill="#1a1311"/>
          <path id="パス_22" data-name="パス 22" d="M3826.937,4371.694a.481.481,0,0,1-.154.153,2.165,2.165,0,0,0-.293-.331,1.452,1.452,0,0,1-.452.325.872.872,0,0,1-.153-.173,1.206,1.206,0,0,0,.494-.318.869.869,0,0,0,.179-.265c-.149,0-.444.01-.533.014a1.248,1.248,0,0,1-.023-.195c.04,0,.088.006.128.006.066,0,.433-.006.511-.009a.745.745,0,0,0,.093-.009.452.452,0,0,1,.1.1,2.055,2.055,0,0,1-.223.372A2.418,2.418,0,0,1,3826.937,4371.694Z" transform="translate(-3811.736 -4370.73)" fill="#1a1311"/>
          <path id="パス_23" data-name="パス 23" d="M3831.653,4370.585a.621.621,0,0,0,.1-.008.5.5,0,0,1,.113.091,1.326,1.326,0,0,1-.207.428c.038.032.074.065.108.1a.385.385,0,0,1-.138.151c-.03-.032-.064-.066-.1-.1a1.107,1.107,0,0,1-.437.275.591.591,0,0,1-.168-.164,1.033,1.033,0,0,0,.46-.233,2.259,2.259,0,0,0-.188-.134,1.009,1.009,0,0,1,.125-.129c.066.038.13.078.192.122a.707.707,0,0,0,.118-.234l-.313.006a1.23,1.23,0,0,1-.289.282.441.441,0,0,1-.166-.131.953.953,0,0,0,.438-.52.514.514,0,0,1,.188.084.841.841,0,0,1-.061.118c.193,0,.229,0,.229,0Z" transform="translate(-3815.344 -4370.363)" fill="#1a1311"/>
          <path id="パス_24" data-name="パス 24" d="M3835.775,4371.847a.715.715,0,0,1-.158.073,2.238,2.238,0,0,0-.115-.239c.032-.017.121-.057.155-.071A2.1,2.1,0,0,1,3835.775,4371.847Zm.581-.2a1.1,1.1,0,0,1-.169.4.8.8,0,0,1-.365.271.6.6,0,0,1-.143-.146.67.67,0,0,0,.358-.228.718.718,0,0,0,.141-.381.665.665,0,0,1,.179.082Zm-.32.1a.824.824,0,0,1-.161.07,2.138,2.138,0,0,0-.106-.242,1.683,1.683,0,0,1,.158-.066,2.352,2.352,0,0,1,.108.24Z" transform="translate(-3818.712 -4371.183)" fill="#1a1311"/>
          <path id="パス_25" data-name="パス 25" d="M3840.447,4371.53a1.026,1.026,0,0,1-.485.376.635.635,0,0,1-.177-.184.807.807,0,0,0,.458-.261.7.7,0,0,0,.145-.323l-.7.01a1.488,1.488,0,0,1-.018-.207c.058,0,.123.008.166.008.082,0,.5,0,.584-.006a.54.54,0,0,0,.093-.007.5.5,0,0,1,.121.1A1.443,1.443,0,0,1,3840.447,4371.53Z" transform="translate(-3821.739 -4370.762)" fill="#1a1311"/>
        </g>
      </g>
    </g>
  </g>
</svg>
