<svg xmlns="http://www.w3.org/2000/svg" xmlns:xlink="http://www.w3.org/1999/xlink" width="140" height="140" viewBox="0 0 140 140"><defs><clipPath id="a"><circle cx="70" cy="70" r="70" transform="translate(53 0.477)" fill="#f7f3e5"/></clipPath></defs><g transform="translate(-53 -0.477)"><circle cx="70" cy="70" r="70" transform="translate(53 0.477)" fill="#f7f3e5"/><g clip-path="url(#a)"><g transform="translate(290.051 -1017.084)"><g transform="translate(-455.449 -2776.915)"><g transform="translate(247.11 3803.932)"><path d="M578.725,584.2c-4.088-12.839-7.009-21.95-8.11-24.533-2.2-5.141-8.633-8.063-10.909-8.672l-9.947-3.05a4.037,4.037,0,0,1,.545,1.935c0,3.634-5.115,11.5-12.266,11.5h-.012c-7.147,0-12.267-7.869-12.267-11.5a4.277,4.277,0,0,1,.391-1.743L516.835,551c-2.218.541-8.709,3.531-10.9,8.672-1.1,2.583-4.027,11.694-8.112,24.533a15.885,15.885,0,0,0-.894,6.137c.149,5.508,1.034,14.1,3.719,19.523,1.627,3.294,5.385,2.068,7.294,1.435a4.821,4.821,0,0,0,3.429-3.566c.531-2.263-1.012-8.6-.3-17.669.259-3.31,3.384-9.238,3.855-12.649,0,0-.949,16.09-1.062,24.177-.08,5.634.289,24.767,2.257,24.767h44.3c1.971,0,2.342-19.133,2.263-24.767-.114-8.087-1.065-24.177-1.065-24.177.471,3.39,3.576,9.3,3.839,12.6.717,9.1-.821,15.454-.291,17.722A4.837,4.837,0,0,0,568.6,611.3c1.9.634,5.671,1.859,7.295-1.435,2.693-5.424,3.574-14.015,3.724-19.523A15.938,15.938,0,0,0,578.725,584.2Z" transform="translate(-496.915 -501.209)" fill="#02254d"/><g transform="translate(28.843 42.973)"><path d="M547.863,544v.825a5.052,5.052,0,0,1,1.106,3.419c0,4.806-8.329,12.692-8.329,12.692s-8.055-7.885-8.055-12.692a5.107,5.107,0,0,1,1.012-3.29v-1.112c-3.378,1.279-5.236,3.46-5.236,5.7,0,3.634,5.12,11.5,12.267,11.5h.012c7.151,0,12.266-7.869,12.266-11.5C552.906,547.556,551.124,545.355,547.863,544Z" transform="translate(-528.361 -543.842)" fill="#02254d"/></g><g transform="translate(33.067 43.956)"><path d="M548.244,544.914v.914c0,1.1-6.014,3.887-7.079,3.887s-7.187-2.84-7.187-3.887v-.786a5.108,5.108,0,0,0-1.012,3.29c0,4.806,8.055,12.692,8.055,12.692s8.329-7.885,8.329-12.692A5.053,5.053,0,0,0,548.244,544.914Z" transform="translate(-532.966 -544.914)" fill="#02254d"/></g><g transform="translate(34.078 40.187)"><path d="M534.069,542.809v2.824c0,1.047,6.122,3.887,7.188,3.887s7.079-2.786,7.079-3.887v-3.078a11.263,11.263,0,0,1-7.289,2.846A11.108,11.108,0,0,1,534.069,542.809Z" transform="translate(-534.069 -540.949)" fill="#fccea5"/><path d="M544.689,542.793a11.15,11.15,0,0,1-8.339-.57,12.268,12.268,0,0,1-2.28-1.419v1.86a11.107,11.107,0,0,0,6.977,2.592,11.263,11.263,0,0,0,7.289-2.846v-1.488A12.086,12.086,0,0,1,544.689,542.793Z" transform="translate(-534.069 -540.804)" fill="#e5a87c"/></g><g transform="translate(24.319 0)"><path d="M555.533,521.109a1.683,1.683,0,0,0-1.166.193c-.048-.948-.111-1.953-.15-2.687-.208.35-.693.7-1.832.7-2.259,0-6.117-3.448-11.936-3.448s-9.756,3.448-11.725,3.448c-1.566,0-1.905-.882-1.979-1.24a.436.436,0,0,0,.011.046c-.111.182-.186.343-.275.518-.028.718-.069,1.684-.105,2.6a1.724,1.724,0,0,0-.838-.145h-.006a1.936,1.936,0,0,0-.194.009c-1.857.422-2.361,3.419-1.5,5.92s2.5,4.26,3.788,3.967a1.46,1.46,0,0,0,.27-.116,30.545,30.545,0,0,0,1.991,4.147,12.618,12.618,0,0,0,5.585,5.132,11.15,11.15,0,0,0,8.339.57,12.488,12.488,0,0,0,7.069-5.7,30.711,30.711,0,0,0,2.011-4.188,1.312,1.312,0,0,0,.36.157c1.3.293,2.93-1.462,3.789-3.967S557.394,521.531,555.533,521.109Z" transform="translate(-523.429 -498.554)" fill="#fccea5"/><g transform="translate(1.509)"><path d="M540.674,496.991c-6.81,0-15.6,4.779-15.6,13.983,0,4.334.078,6.766.594,8.563l.052,0a8.824,8.824,0,0,1,1.172-2.975,1.151,1.151,0,0,1-.036-.2c2.508-3.143,5.81-6.255,13.729-6.255s11.388,3.073,13.913,6.255a1.1,1.1,0,0,1,0,.245,8.737,8.737,0,0,1,1.131,2.942c.012,0,.025,0,.035,0l.008,0c.394-1.761.407-4.368.407-8.538C556.085,502.207,547.484,496.991,540.674,496.991Z" transform="translate(-525.074 -496.991)" fill="#005d50"/><path d="M529.022,518.939c1.969,0,5.908-3.448,11.725-3.448s9.677,3.448,11.936,3.448,1.977-1.4,1.977-1.4c-2.524-3.183-5.993-6.256-13.913-6.256s-11.221,3.112-13.729,6.256C527.018,517.542,527.064,518.939,529.022,518.939Z" transform="translate(-525.235 -498.174)" fill="#33846b"/></g><g transform="translate(2.219 19.279)"><path d="M556.831,518.374c-.034.4-.317,1.151-1.981,1.151a4.942,4.942,0,0,1-1.658-.415,12.6,12.6,0,0,1,2.3,2.362c.407,1.415-.1,4.871-.088,4.871.479.069.706-.5.849-1.117.319-1.344.629-3.2.72-3.766a1.682,1.682,0,0,1,.88-.148c.018-.1.035-.206.052-.3A9.043,9.043,0,0,0,556.831,518.374Z" transform="translate(-528.111 -518.04)" fill="#26201f"/><path d="M528.925,519.495c-1.566,0-1.905-.882-1.979-1.24a.417.417,0,0,0,.011.046,9.141,9.141,0,0,0-1.109,2.669c.032.115.06.217.08.3a1.626,1.626,0,0,1,.486.1c.081.5.4,2.438.725,3.827.142.614.373,1.186.851,1.117.009,0-.591-4.113.041-5.2a13.556,13.556,0,0,0,3.03-1.667,18.493,18.493,0,0,0,1.76-1.432C531.13,518.783,529.816,519.495,528.925,519.495Z" transform="translate(-525.848 -518.01)" fill="#26201f"/></g><path d="M546.262,535.094a.534.534,0,0,1-.117-.264.263.263,0,0,0-.313-.232.273.273,0,0,0-.231.312.434.434,0,0,0,.034.1,13.016,13.016,0,0,1-4.159.854,12.38,12.38,0,0,1-4.1-.859c.007-.033.024-.049.029-.086a.277.277,0,0,0-.227-.318.287.287,0,0,0-.317.227.6.6,0,0,1-.116.272.278.278,0,0,0,0,.39.284.284,0,0,0,.2.078.281.281,0,0,0,.194-.081,1.086,1.086,0,0,0,.128-.184,12.514,12.514,0,0,0,4.209.878,13.236,13.236,0,0,0,4.264-.871.9.9,0,0,0,.132.181.277.277,0,0,0,.19.078.287.287,0,0,0,.193-.079A.283.283,0,0,0,546.262,535.094Z" transform="translate(-524.525 -500.103)" fill="#d39361"/><path d="M.009,1.1A1.364,1.364,0,0,0,1.081,2.613,1.2,1.2,0,0,0,2.463,1.526,1.361,1.361,0,0,0,1.386.018,1.2,1.2,0,0,0,.009,1.1Z" transform="translate(20.495 22.531) rotate(16)" fill="#26201f"/><path d="M.009,1.1A1.367,1.367,0,0,0,1.083,2.615,1.2,1.2,0,0,0,2.466,1.527,1.367,1.367,0,0,0,1.387.017,1.2,1.2,0,0,0,.009,1.1Z" transform="translate(10.686 22.283) rotate(16)" fill="#26201f"/><path d="M.989,6.027a.32.32,0,0,1-.2-.157c-.081-.146-.177-.29-.27-.429A1.956,1.956,0,0,1,.064,3.716,12.952,12.952,0,0,1,1.571,1.289C1.9.816,2.213.37,2.326.166A.317.317,0,0,1,2.76.04a.32.32,0,0,1,.126.434c-.129.233-.436.673-.792,1.181A15.254,15.254,0,0,0,.678,3.9c-.121.422.054.712.372,1.189.1.151.2.307.3.479A.319.319,0,0,1,1.223,6,.323.323,0,0,1,.989,6.027Z" transform="matrix(0.966, -0.259, 0.259, 0.966, 13.908, 27.204)" fill="#d39361"/></g><g transform="translate(0.727 82.775)"><path d="M509.025,589.275c.117.117-2.586-1.256-3.517-1.442-.7-.139-3.841-.608-5.851,1.218a12.455,12.455,0,0,0-1.949,2.326,8.747,8.747,0,0,1,2.372-3.216C502.378,586.656,506.659,586.959,509.025,589.275Z" transform="translate(-497.708 -587.236)" fill="#00483d"/></g><g transform="translate(2.043 81.082)"><path d="M511.088,589.564a9.471,9.471,0,0,0-2.233-2.164A9.868,9.868,0,0,0,502,585.887a11.333,11.333,0,0,0-2.861.844,9.856,9.856,0,0,1,3.4-1.269C506.563,585.06,509.546,586.338,511.088,589.564Z" transform="translate(-499.143 -585.39)" fill="#00483d"/></g><g transform="translate(70.261 82.775)"><path d="M573.521,589.275c-.117.117,2.588-1.256,3.519-1.442.7-.139,3.84-.608,5.852,1.218a12.54,12.54,0,0,1,1.947,2.326,8.773,8.773,0,0,0-2.369-3.216C580.17,586.656,575.887,586.959,573.521,589.275Z" transform="translate(-573.517 -587.236)" fill="#00483d"/></g><g transform="translate(68.314 81.082)"><path d="M571.4,589.564a9.588,9.588,0,0,1,2.235-2.164,9.875,9.875,0,0,1,6.855-1.513,11.333,11.333,0,0,1,2.858.844,9.849,9.849,0,0,0-3.4-1.269C575.926,585.06,572.945,586.338,571.4,589.564Z" transform="translate(-571.393 -585.39)" fill="#00483d"/></g><path d="M513.173,555.151s3.923,4.741,4.248,8.709-.891.118-.891.118A26.3,26.3,0,0,0,513.173,555.151Z" transform="translate(-498.261 -501.805)" fill="#11335a"/><path d="M570.447,555.151s-3.925,4.741-4.248,8.709.888.118.888.118A26.267,26.267,0,0,1,570.447,555.151Z" transform="translate(-502.645 -501.805)" fill="#11335a"/><g transform="translate(25.828 0)"><path d="M540.674,496.991c-6.81,0-15.6,4.779-15.6,13.983,0,4.334.078,6.766.594,8.563l.052,0a8.824,8.824,0,0,1,1.172-2.975,1.151,1.151,0,0,1-.036-.2c2.508-3.143,5.81-6.255,13.729-6.255s11.388,3.073,13.913,6.255a1.1,1.1,0,0,1,0,.245,8.737,8.737,0,0,1,1.131,2.942c.012,0,.025,0,.035,0l.008,0c.394-1.761.407-4.368.407-8.538C556.085,502.207,547.484,496.991,540.674,496.991Z" transform="translate(-525.074 -496.991)" fill="#02254d"/><path d="M538.88,496.991a13.918,13.918,0,0,0-13.806,13.983c0,4.334.86,6.986,1.61,5.587a1.289,1.289,0,0,1-.032-.2c2.219-3.143,5.142-6.255,12.15-6.255s10.079,3.073,12.313,6.255a1.247,1.247,0,0,1,0,.245c.731,1.388,1.4-1.424,1.4-5.593A14.1,14.1,0,0,0,538.88,496.991Z" transform="translate(-523.291 -496.991)" fill="#fff" stroke="#02254d" stroke-width="1"/><path d="M529.022,518.939c1.969,0,5.908-3.448,11.725-3.448s9.677,3.448,11.936,3.448,1.977-1.4,1.977-1.4c-2.524-3.183-5.993-6.256-13.913-6.256s-11.221,3.112-13.729,6.256C527.018,517.542,527.064,518.939,529.022,518.939Z" transform="translate(-525.235 -498.174)" fill="#02254d"/><g transform="translate(5.489 5.955)"><g transform="translate(0 0.095)"><rect width="0.864" height="0.864" transform="translate(4.142 3.006)" fill="#009c86"/><path d="M192.645,217.488v-.864h.687l-1.983-1.277-1.983,1.277h.687v2.592h.864v-.864h.864v-.864h.862v.864h-.862v.864h.864v-.864h.862v-.864Z" transform="translate(-189.366 -215.347)" fill="#009c86"/></g><rect width="0.851" height="0.851" transform="translate(8.002 0.907) rotate(180)" fill="#009c86"/><g transform="translate(5.444)"><path d="M328.508,213.967l-2.223.064a.538.538,0,0,0,.3-.8l.01,0h0l.3-.1a.02.02,0,0,0,.012-.025c0-.009-.009-.013-.021-.013l-.348.015-.062,0a.539.539,0,1,0-.477.936h0l-.148,1.457-.362,1.208h0l-.009.032-.048.16h0a.036.036,0,0,0,.035.047h.8a.041.041,0,0,0,.041-.041v-.157a.041.041,0,0,0-.041-.041h-.086l.309-1.031.943.144v1.076a.051.051,0,0,0,.051.051h.8a.041.041,0,0,0,.041-.041v-.157a.041.041,0,0,0-.041-.041h-.175v-1.379a.106.106,0,0,0-.09-.105l-1.442-.22.031-.3,1.919-.055a.054.054,0,0,0,.052-.055l-.017-.571A.054.054,0,0,0,328.508,213.967Zm-2.749-.367a.38.38,0,0,1-.009-.076l.045-.016.633-.218a.376.376,0,0,1-.218.593.376.376,0,0,1-.451-.284Z" transform="translate(-325.426 -212.977)" fill="#1a1311"/><path d="M445.846,230.152h-.421v-.583a.057.057,0,0,0-.057-.057h-.517a.057.057,0,0,0-.057.057v.583h-.775a.057.057,0,0,0-.057.057v.517a.057.057,0,0,0,.057.057h.775v1.811h-.153a.048.048,0,0,0-.048.048v.126a.048.048,0,0,0,.048.048h.734a.05.05,0,0,0,.05-.05v-1.983h.421a.057.057,0,0,0,.057-.057v-.517A.057.057,0,0,0,445.846,230.152Z" transform="translate(-439.218 -228.85)" fill="#1a1311"/><path d="M527.617,235.25h-.379v-.38a.047.047,0,0,0-.047-.047h-.474a.047.047,0,0,0-.047.047v.38h-.623a.047.047,0,0,0-.047.047v.537a.047.047,0,0,0,.047.047h.623v.926a.533.533,0,0,1-.533.533h-.093a.044.044,0,0,0-.044.044v.481a.044.044,0,0,0,.044.044h.093a1.1,1.1,0,0,0,1.1-1.1v-.926h.379a.047.047,0,0,0,.047-.047V235.3A.047.047,0,0,0,527.617,235.25Z" transform="translate(-517.974 -233.948)" fill="#1a1311"/><path d="M578.449,227.082h.546a.057.057,0,0,0,.057-.057v-.571h.511a.032.032,0,0,0,.032-.032v-.941a.053.053,0,0,0-.053-.053h-.036v0h-1.183v-.487a.051.051,0,0,0-.051-.051h-.5a.051.051,0,0,0-.051.051v.487H576.5a.053.053,0,0,0-.053.053v.924a.051.051,0,0,0,.051.051h.492v.571a.057.057,0,0,0,.057.057h.672v.132h-.847a.051.051,0,0,0-.051.051v.367a.051.051,0,0,0,.051.051h.847v.123H576.5a.051.051,0,0,0-.051.051v.367a.051.051,0,0,0,.051.051h3.046a.051.051,0,0,0,.051-.051v-.367a.051.051,0,0,0-.051-.051h-1.221v-.123h.847a.051.051,0,0,0,.051-.051v-.367a.051.051,0,0,0-.051-.051h-.847v-.132Zm-1.4-1.031v-.111h1.942v.111Zm.543.522v-.013a.057.057,0,0,1,.057-.057h.74a.057.057,0,0,1,.057.057v.013a.057.057,0,0,1-.057.057h-.74A.057.057,0,0,1,577.594,226.573Z" transform="translate(-566.403 -224.41)" fill="#1a1311"/><path d="M501.752,247.586h-.13v-2.031a.047.047,0,0,0-.047-.047H501.1a.047.047,0,0,0-.047.047v2.171a.061.061,0,0,0,.061.061h.642a.053.053,0,0,0,.053-.053v-.1A.053.053,0,0,0,501.752,247.586Z" transform="translate(-494.022 -244.206)" fill="#1a1311"/><path d="M447.209,275.167a.3.3,0,1,0,.3.3A.3.3,0,0,0,447.209,275.167Z" transform="translate(-442.049 -272.679)" fill="#1a1311"/><path d="M588.365,222.636a.3.3,0,1,0-.3-.3A.3.3,0,0,0,588.365,222.636Z" transform="translate(-577.557 -221.675)" fill="#1a1311"/><path d="M628.873,222.636a.3.3,0,1,0-.3-.3A.3.3,0,0,0,628.873,222.636Z" transform="translate(-616.444 -221.675)" fill="#1a1311"/><path d="M409.612,230.213l-.468-.236a.053.053,0,0,0-.072.024l-.44.879h0l-.191.383a.054.054,0,0,0,.024.072l.381.19V233.2a.058.058,0,0,0,.058.058h.515a.058.058,0,0,0,.058-.058v-1.85a.079.079,0,0,0-.044-.071l-.235-.117.439-.876A.053.053,0,0,0,409.612,230.213Z" transform="translate(-405.112 -229.291)" fill="#1a1311"/></g><g transform="translate(3.91 4.414)"><path d="M368.142,323.522H368v.112h.131v.452h-.109v-.03h-.289v.035h-.1v-.456h.125v-.112h-.131v-.082c-.013.037-.028.074-.044.111l.027.009a.026.026,0,0,1-.023.016v.527h-.108v-.36q-.02.029-.04.054a1.21,1.21,0,0,0-.046-.122.959.959,0,0,0,.146-.314l.122.041c0,.007-.011.011-.023.01l0,.009h.512Zm-.409.21v.226h.032v-.226Zm.16,0h-.034v.226h.034Zm0-.1v-.112h-.033v.112Zm.129.324v-.226h-.034v.226Z" transform="translate(-364.176 -323.359)" fill="#1a1311"/><path d="M393.3,323.382l.073.034a.028.028,0,0,1-.012.013.58.58,0,0,1-.112.2.5.5,0,0,0,.167.08.514.514,0,0,0-.064.083v.253h-.109v-.02h-.133v.023H393V323.8l-.035.014a.358.358,0,0,0-.033-.054l-.03.042c-.007-.019-.018-.043-.03-.068v.307h-.107v-.257a.57.57,0,0,1-.063.126.588.588,0,0,0-.051-.1.7.7,0,0,0,.106-.243h-.087v-.1h.1V323.3l.129.007c0,.009-.008.013-.023.016v.134h.08v.048a.617.617,0,0,0,.126-.206l.122.04a.022.022,0,0,1-.023.009l-.016.034h.114Zm-.421.184v.026c.018.022.062.084.083.115a.607.607,0,0,0,.136-.08.668.668,0,0,1-.046-.062.482.482,0,0,1-.052.054.609.609,0,0,0-.055-.052Zm.36.183a.548.548,0,0,1-.065-.047.612.612,0,0,1-.064.047Zm-.128.177h.133v-.083h-.133Zm0-.444a.5.5,0,0,0,.057.075.442.442,0,0,0,.052-.075Z" transform="translate(-388.43 -323.303)" fill="#1a1311"/><path d="M417.875,329.961a.109.109,0,1,1-.109-.109A.11.11,0,0,1,417.875,329.961Z" transform="translate(-412.432 -329.59)" fill="#1a1311"/><path d="M430.192,324.012a.62.62,0,0,1,.2.09.246.246,0,0,1-.056.122.472.472,0,0,0-.135-.093v0c0,.077-.057.129-.169.129s-.2-.051-.2-.14.075-.132.2-.132l.046,0,0-.062c-.069,0-.138,0-.191,0a.393.393,0,0,1-.02-.118,1.278,1.278,0,0,0,.138.009h.07v-.075a1.592,1.592,0,0,1-.162,0,.37.37,0,0,1-.019-.111.868.868,0,0,0,.128.011h.055v-.009c0-.042,0-.06,0-.084a.618.618,0,0,1,.124.009c0,.026,0,.052,0,.08a.909.909,0,0,0,.128-.017.359.359,0,0,1,0,.108,1.122,1.122,0,0,1-.13.015c0,.023,0,.046,0,.069v0a1.118,1.118,0,0,0,.159-.023.415.415,0,0,1,0,.116,1.344,1.344,0,0,1-.153.018Zm-.114.082a.367.367,0,0,0-.065-.005c-.039,0-.066.011-.066.033s.019.034.063.034S430.077,324.138,430.078,324.094Z" transform="translate(-424.118 -323.534)" fill="#1a1311"/><path d="M449.229,324.008a.147.147,0,0,0-.023.07c0,.035.024.07.137.07a.654.654,0,0,0,.258-.049.364.364,0,0,1,.031.129.781.781,0,0,1-.285.045c-.167,0-.276-.061-.276-.168a.345.345,0,0,1,.037-.14A.465.465,0,0,1,449.229,324.008Zm-.091-.362a1.382,1.382,0,0,0,.409,0,.576.576,0,0,1,0,.122,1.6,1.6,0,0,1-.4,0A.555.555,0,0,1,449.137,323.646Zm.52.068a.238.238,0,0,1-.062.026.553.553,0,0,0-.045-.106.326.326,0,0,1,.06-.026A.53.53,0,0,1,449.658,323.714Zm.087-.037a.246.246,0,0,1-.062.027.485.485,0,0,0-.046-.1.354.354,0,0,1,.06-.026A.374.374,0,0,1,449.745,323.676Z" transform="translate(-442.59 -323.564)" fill="#1a1311"/><path d="M470.193,325.712a.147.147,0,0,0-.023.07c0,.035.024.07.137.07a.652.652,0,0,0,.258-.049.362.362,0,0,1,.031.129.781.781,0,0,1-.285.045c-.167,0-.276-.061-.276-.168a.333.333,0,0,1,.037-.14A.464.464,0,0,1,470.193,325.712Zm-.091-.362a1.544,1.544,0,0,0,.432,0,.584.584,0,0,1,0,.122,1.794,1.794,0,0,1-.424,0A.6.6,0,0,1,470.1,325.35Z" transform="translate(-462.715 -325.268)" fill="#1a1311"/><path d="M488.964,324.105a1.772,1.772,0,0,0,.279-.023.3.3,0,0,1,.048.083,2.17,2.17,0,0,0-.2.183.281.281,0,0,1,.087-.013.206.206,0,0,1,.223.2c0,.152-.119.269-.385.243a.4.4,0,0,1-.041-.133c.172.03.3,0,.3-.112,0-.051-.039-.1-.126-.1a.348.348,0,0,0-.27.188.358.358,0,0,1-.09-.1c.082-.091.239-.244.309-.315-.036.006-.119.015-.175.018a.443.443,0,0,1-.028-.119C488.907,324.1,488.935,324.105,488.964,324.105Z" transform="translate(-480.715 -324.051)" fill="#1a1311"/><path d="M287.442,324.012a.62.62,0,0,1,.2.09.245.245,0,0,1-.056.122.471.471,0,0,0-.135-.093v0c0,.077-.057.129-.169.129s-.2-.051-.2-.14.075-.132.2-.132l.046,0,0-.062c-.069,0-.138,0-.191,0a.39.39,0,0,1-.02-.118,1.276,1.276,0,0,0,.138.009h.07v-.075a1.592,1.592,0,0,1-.162,0,.369.369,0,0,1-.019-.111.867.867,0,0,0,.128.011h.055v-.009c0-.042,0-.06,0-.084a.619.619,0,0,1,.124.009q0,.039,0,.08a.91.91,0,0,0,.128-.017.357.357,0,0,1,0,.108,1.122,1.122,0,0,1-.13.015c0,.023,0,.046,0,.069v0a1.118,1.118,0,0,0,.159-.023.412.412,0,0,1,0,.116,1.345,1.345,0,0,1-.153.018Zm-.114.082a.367.367,0,0,0-.065-.005c-.039,0-.066.011-.066.033s.019.034.063.034S287.327,324.138,287.328,324.094Z" transform="translate(-287.08 -323.534)" fill="#1a1311"/><path d="M306.48,324.008a.147.147,0,0,0-.023.07c0,.035.024.07.137.07a.654.654,0,0,0,.258-.049.362.362,0,0,1,.031.129.781.781,0,0,1-.285.045c-.167,0-.276-.061-.276-.168a.346.346,0,0,1,.037-.14A.465.465,0,0,1,306.48,324.008Zm-.091-.362a1.382,1.382,0,0,0,.409,0,.58.58,0,0,1,0,.122,1.6,1.6,0,0,1-.4,0A.553.553,0,0,1,306.389,323.646Zm.52.068a.237.237,0,0,1-.062.026.555.555,0,0,0-.045-.106.324.324,0,0,1,.06-.026A.532.532,0,0,1,306.909,323.714Zm.087-.037a.245.245,0,0,1-.062.027.48.48,0,0,0-.046-.1.354.354,0,0,1,.06-.026A.374.374,0,0,1,307,323.676Z" transform="translate(-305.553 -323.564)" fill="#1a1311"/><path d="M327.444,325.712a.146.146,0,0,0-.023.07c0,.035.024.07.137.07a.652.652,0,0,0,.258-.049.363.363,0,0,1,.031.129.781.781,0,0,1-.285.045c-.167,0-.276-.061-.276-.168a.332.332,0,0,1,.037-.14A.465.465,0,0,1,327.444,325.712Zm-.091-.362a1.544,1.544,0,0,0,.432,0,.584.584,0,0,1,0,.122,1.793,1.793,0,0,1-.424,0A.606.606,0,0,1,327.353,325.35Z" transform="translate(-325.678 -325.268)" fill="#1a1311"/><path d="M346.215,324.105a1.772,1.772,0,0,0,.279-.023.3.3,0,0,1,.048.083,2.167,2.167,0,0,0-.2.183.28.28,0,0,1,.087-.013.206.206,0,0,1,.223.2c0,.152-.119.269-.385.243a.4.4,0,0,1-.041-.133c.172.03.3,0,.3-.112,0-.051-.039-.1-.126-.1a.348.348,0,0,0-.27.188.358.358,0,0,1-.09-.1c.082-.091.239-.244.309-.315-.036.006-.119.015-.175.018a.443.443,0,0,1-.028-.119C346.158,324.1,346.186,324.105,346.215,324.105Z" transform="translate(-343.678 -324.051)" fill="#1a1311"/><path d="M510.572,326.343a.309.309,0,0,1-.1.1,1.37,1.37,0,0,0-.186-.209.917.917,0,0,1-.285.2.546.546,0,0,1-.1-.109.758.758,0,0,0,.311-.2.55.55,0,0,0,.112-.167c-.094,0-.28.006-.336.009a.852.852,0,0,1-.015-.122c.025,0,.056,0,.081,0,.041,0,.272,0,.322-.006a.515.515,0,0,0,.058-.005.28.28,0,0,1,.066.065,1.3,1.3,0,0,1-.14.234A1.537,1.537,0,0,1,510.572,326.343Z" transform="translate(-500.993 -325.736)" fill="#1a1311"/><path d="M531.922,323.779a.379.379,0,0,0,.06-.005.329.329,0,0,1,.071.058.825.825,0,0,1-.13.269c.024.02.047.041.069.062a.244.244,0,0,1-.087.1c-.019-.02-.041-.042-.064-.064a.7.7,0,0,1-.275.173.371.371,0,0,1-.106-.1.648.648,0,0,0,.29-.147,1.278,1.278,0,0,0-.119-.084.6.6,0,0,1,.079-.081,1.265,1.265,0,0,1,.122.077.456.456,0,0,0,.074-.148l-.2,0a.781.781,0,0,1-.182.179.277.277,0,0,1-.1-.083.6.6,0,0,0,.276-.328.324.324,0,0,1,.119.053.571.571,0,0,1-.038.075c.122,0,.144,0,.144,0Z" transform="translate(-521.644 -323.639)" fill="#1a1311"/><path d="M551.663,328.755a.451.451,0,0,1-.1.046,1.51,1.51,0,0,0-.073-.151c.02-.011.076-.036.1-.044A1.351,1.351,0,0,1,551.663,328.755Zm.366-.124a.7.7,0,0,1-.107.254.511.511,0,0,1-.23.171.391.391,0,0,1-.09-.092.422.422,0,0,0,.226-.144.455.455,0,0,0,.088-.239A.413.413,0,0,1,552.029,328.631Zm-.2.066a.526.526,0,0,1-.1.044,1.363,1.363,0,0,0-.067-.153.93.93,0,0,1,.1-.041A1.537,1.537,0,0,1,551.828,328.7Z" transform="translate(-540.911 -328.337)" fill="#1a1311"/><path d="M570.013,326.406a.643.643,0,0,1-.306.237.377.377,0,0,1-.111-.115.506.506,0,0,0,.289-.165.447.447,0,0,0,.091-.2l-.438.006a.907.907,0,0,1-.012-.131c.037,0,.078.005.1.005l.368,0a.419.419,0,0,0,.059,0,.332.332,0,0,1,.076.06A.906.906,0,0,1,570.013,326.406Z" transform="translate(-558.224 -325.923)" fill="#1a1311"/></g></g></g><g transform="translate(8.986 102.563)"><path d="M506.712,608.809a1.84,1.84,0,0,0,.9,1.513,10.355,10.355,0,0,0,3.343.3,12.27,12.27,0,0,1,2.786.393c.175-.025.354-.038.533-.048-.155-.01-.3-.037-.459-.039-.213-.263-.775-.81-2.688-.81C510.012,610.123,506.93,609.332,506.712,608.809Z" transform="translate(-506.712 -608.809)" fill="#d9996b"/><path d="M517.957,611.344a7.769,7.769,0,0,1,2.372-.382,7.415,7.415,0,0,1,1.3-.594,2.6,2.6,0,0,0-2.08.425c-.328-.482-1.309-.4-2.569.409C517.526,611.279,517.919,611.361,517.957,611.344Z" transform="translate(-507.562 -608.931)" fill="#d9996b"/><path d="M524.753,610.884c0-.027.011-.056,0-.083-.194-.48-.85-.607-1.762-.349a.749.749,0,0,1,.129.207.352.352,0,0,1,0,.161,3.79,3.79,0,0,0-1.222.629.554.554,0,0,0-.166.6c-.288.155-.532.273-.6.324a8.842,8.842,0,0,1-3.444,1.241c-.386.052-3.4.34-3.937.467-.367.091-.771.618-1.177.765a18.747,18.747,0,0,0-2.458.862c-.043.016-.092.032-.138.048a15.52,15.52,0,0,0,1.564-.444,7.542,7.542,0,0,0,1.645-.393c.536-.242.584-.536,1.371-.712.475-.1,4.308-.355,4.74-.41a8.716,8.716,0,0,0,3.494-1.245c.064-.049.275-.16.529-.3-.132-.161-.036-.516.166-.687A4.611,4.611,0,0,1,524.753,610.884Z" transform="translate(-506.982 -608.934)" fill="#d9996b"/><path d="M526.01,610.948c-.071-.131-1.126.49-1.324.664s-.3.538-.165.694C524.576,612.37,526.219,611.334,526.01,610.948Z" transform="translate(-508.181 -608.985)" fill="#fccea5"/></g><g transform="translate(4.145 95.383)"><path d="M521.191,610.683a3.789,3.789,0,0,1,1.222-.629.352.352,0,0,0,0-.161c-.27-.733-1.631-.688-3.371.307a7.77,7.77,0,0,0-2.372.382,13.132,13.132,0,0,0-3.363-.2,12.273,12.273,0,0,0-2.786-.393,10.356,10.356,0,0,1-3.343-.3c-.9-.4-1-1.748-.95-2.3a7.918,7.918,0,0,1,.261-1.935c.1-.156,1.08-4.279-1.216-4.374l-.011,0a2.011,2.011,0,0,0,.073,1.032,3.084,3.084,0,0,1-.3,1.606c-.2.193-.684-.272-.586-.957.016-.124.045-.222.065-.337-.038.115-.081.223-.117.311a5.453,5.453,0,0,0-.279,1.065,10.064,10.064,0,0,0-.555,1.733c-.392,1.718-1.8,2.422-2.092,5.658a4.33,4.33,0,0,0,.88,3.466c1.68,1.755,5.022,1.125,7.063.29a18.747,18.747,0,0,1,2.458-.862c.405-.147.81-.674,1.177-.765.535-.127,3.551-.415,3.937-.467a8.84,8.84,0,0,0,3.444-1.241c.069-.05.313-.169.6-.324A.553.553,0,0,1,521.191,610.683Z" transform="translate(-501.434 -600.988)" fill="#ffcd8e"/><path d="M505.535,601.03a2.063,2.063,0,0,0,.069,1.066,3.084,3.084,0,0,1-.3,1.606c-.2.193-.684-.272-.586-.957.143-1.058.493-1.75.764-1.765C505.5,600.981,505.542,601,505.535,601.03Z" transform="translate(-501.705 -600.981)" fill="#ffe7c7"/><path d="M524.229,610.854c-.067-.127-1.081.47-1.275.637s-.291.51-.155.662C522.847,612.217,524.434,611.223,524.229,610.854Z" transform="translate(-503.197 -601.797)" fill="#ffe7c7"/></g><g transform="translate(55.444 102.563)"><g transform="translate(0.073)"><path d="M576.137,608.809a1.844,1.844,0,0,1-.9,1.513,10.356,10.356,0,0,1-3.343.3,12.239,12.239,0,0,0-2.786.393c-.175-.025-.354-.038-.533-.048.153-.01.3-.037.458-.039.215-.263.773-.81,2.689-.81C572.836,610.123,575.918,609.332,576.137,608.809Z" transform="translate(-558.363 -608.809)" fill="#d9996b"/><path d="M565.154,611.344a7.759,7.759,0,0,0-2.372-.382,7.333,7.333,0,0,0-1.3-.594,2.6,2.6,0,0,1,2.078.425c.328-.482,1.311-.4,2.571.409C565.585,611.279,565.193,611.361,565.154,611.344Z" transform="translate(-557.776 -608.931)" fill="#d9996b"/><path d="M557.444,610.884c.006-.027-.008-.056,0-.083.194-.48.85-.607,1.764-.349a.674.674,0,0,0-.129.207.327.327,0,0,0,0,.161,3.817,3.817,0,0,1,1.222.629.558.558,0,0,1,.166.6c.286.155.53.273.6.324a8.83,8.83,0,0,0,3.441,1.241c.388.052,3.4.34,3.94.467.365.091.77.618,1.177.765a18.853,18.853,0,0,1,2.457.862c.042.016.093.032.138.048a15.4,15.4,0,0,1-1.565-.444,7.535,7.535,0,0,1-1.644-.393c-.537-.242-.583-.536-1.37-.712-.475-.1-4.31-.355-4.741-.41a8.7,8.7,0,0,1-3.494-1.245c-.064-.049-.275-.16-.531-.3.134-.161.038-.516-.163-.687A4.627,4.627,0,0,0,557.444,610.884Z" transform="translate(-557.441 -608.934)" fill="#d9996b"/></g><path d="M557.38,610.948c.069-.131,1.127.49,1.325.664s.3.538.162.694C558.814,612.37,557.171,611.334,557.38,610.948Z" transform="translate(-557.362 -608.985)" fill="#fccea5"/></g><g transform="translate(57.08 95.383)"><path d="M560.448,610.683a3.818,3.818,0,0,0-1.222-.629.328.328,0,0,1,0-.161c.269-.733,1.627-.688,3.368.307a7.759,7.759,0,0,1,2.372.382,13.16,13.16,0,0,1,3.365-.2,12.244,12.244,0,0,1,2.786-.393,10.356,10.356,0,0,0,3.343-.3c.9-.4,1-1.748.952-2.3a8.138,8.138,0,0,0-.262-1.935c-.1-.156-1.081-4.279,1.217-4.374l.008,0a2,2,0,0,1-.07,1.032,3.06,3.06,0,0,0,.3,1.606c.2.193.685-.272.586-.957-.016-.124-.042-.222-.063-.337.039.115.079.223.117.311a5.31,5.31,0,0,1,.281,1.065,10.392,10.392,0,0,1,.553,1.733c.391,1.718,1.8,2.422,2.092,5.658a4.333,4.333,0,0,1-.879,3.466c-1.681,1.755-5.023,1.125-7.063.29a18.854,18.854,0,0,0-2.457-.862c-.406-.147-.812-.674-1.177-.765-.537-.127-3.552-.415-3.94-.467a8.829,8.829,0,0,1-3.441-1.241c-.071-.05-.315-.169-.6-.324A.559.559,0,0,0,560.448,610.683Z" transform="translate(-559.152 -600.988)" fill="#ffcd8e"/><path d="M577.914,601.03a2.082,2.082,0,0,1-.067,1.066,3.06,3.06,0,0,0,.3,1.606c.2.193.685-.272.586-.957-.143-1.058-.493-1.75-.761-1.765C577.947,600.981,577.908,601,577.914,601.03Z" transform="translate(-560.693 -600.981)" fill="#ffe7c7"/><path d="M559.164,610.854c.069-.127,1.081.47,1.278.637s.289.51.155.662C560.547,612.217,558.962,611.223,559.164,610.854Z" transform="translate(-559.147 -601.797)" fill="#ffe7c7"/></g><path d="M541.446,566.609l-2.428,2.151,2.093,12.364,7.76.948s11.223-.136,11.511-.466,7.135-9.183,7.135-9.183l-1.746-4.595-2.042-.916-3.677-3.1v5.573l-8.078,9.413-6.857-13.607v-1.56Z" transform="translate(-511.37 -519.869)" fill="#02254d"/></g><path d="M207.185,2547.213c.2-2.253,13.386-1.693,13.386-1.693s-.958,24.666.455,26.593c-8.094-1.842-8.768-2.414-8.768-2.414v-15.838l-5.624.685S206.982,2549.467,207.185,2547.213Z" transform="translate(59.207 1323.831)" fill="#fff" stroke="#02254d" stroke-width="1"/><path d="M220.476,2547.213c-.2-2.253-13.386-1.693-13.386-1.693s.958,24.666-.455,26.593c8.094-1.842,8.768-2.414,8.768-2.414v-15.838l5.624.685S220.679,2549.467,220.476,2547.213Z" transform="translate(90.071 1323.831)" fill="#fff" stroke="#02254d" stroke-width="1"/><g transform="translate(-17185.063 9600.987)" fill="#fff"><path d="M 17438.994140625 -5716.90380859375 L 17436.68359375 -5719.125 C 17437.27734375 -5721.02734375 17440.583984375 -5731.55712890625 17441.76953125 -5734.08642578125 C 17442.62109375 -5735.904296875 17443.474609375 -5736.7421875 17443.91015625 -5737.0810546875 C 17444.455078125 -5736.4501953125 17445.3125 -5735.32470703125 17445.4140625 -5734.5908203125 C 17445.447265625 -5734.35009765625 17445.30859375 -5732.92431640625 17442.169921875 -5724.8291015625 C 17440.87890625 -5721.49755859375 17439.556640625 -5718.2666015625 17438.994140625 -5716.90380859375 Z" stroke="none"/><path d="M 17443.85546875 -5736.36279296875 C 17443.435546875 -5735.939453125 17442.83203125 -5735.17724609375 17442.22265625 -5733.87451171875 C 17441.099609375 -5731.48193359375 17438.037109375 -5721.771484375 17437.25390625 -5719.27099609375 L 17438.810546875 -5717.7734375 C 17439.451171875 -5719.33349609375 17440.552734375 -5722.044921875 17441.640625 -5724.8466796875 C 17442.619140625 -5727.365234375 17443.39453125 -5729.4619140625 17443.9453125 -5731.078125 C 17444.857421875 -5733.75146484375 17444.916015625 -5734.416015625 17444.916015625 -5734.5419921875 C 17444.84375 -5734.98583984375 17444.3515625 -5735.73486328125 17443.85546875 -5736.36279296875 M 17443.99609375 -5737.7333984375 C 17443.99609375 -5737.7333984375 17445.73828125 -5735.8916015625 17445.91015625 -5734.66015625 C 17446.158203125 -5732.791015625 17439.17578125 -5716.03564453125 17439.17578125 -5716.03564453125 L 17436.115234375 -5718.978515625 C 17436.115234375 -5718.978515625 17439.98828125 -5731.4658203125 17441.31640625 -5734.298828125 C 17442.64453125 -5737.13134765625 17443.99609375 -5737.7333984375 17443.99609375 -5737.7333984375 Z" stroke="none" fill="#02254d"/></g><g transform="translate(-17119.879 9601.076)" fill="#fff"><path d="M 17442.916015625 -5717.0107421875 C 17442.349609375 -5718.3837890625 17441.033203125 -5721.60107421875 17439.74609375 -5724.91845703125 C 17436.607421875 -5733.01318359375 17436.46875 -5734.43896484375 17436.501953125 -5734.68310546875 C 17436.60546875 -5735.42529296875 17437.25 -5736.609375 17437.677734375 -5737.31396484375 C 17438.22265625 -5736.93701171875 17439.28125 -5736.02197265625 17440.146484375 -5734.17529296875 C 17441.333984375 -5731.6435546875 17444.623046875 -5721.19677734375 17445.208984375 -5719.32568359375 L 17442.916015625 -5717.0107421875 Z" stroke="none"/><path d="M 17437.82421875 -5736.57177734375 C 17437.458984375 -5735.9189453125 17437.076171875 -5735.1298828125 17437 -5734.63134765625 C 17437 -5734.50732421875 17437.056640625 -5733.845703125 17437.970703125 -5731.1669921875 C 17438.521484375 -5729.55078125 17439.296875 -5727.4541015625 17440.275390625 -5724.935546875 C 17441.35546875 -5722.1552734375 17442.44921875 -5719.46435546875 17443.091796875 -5717.89892578125 L 17444.640625 -5719.46337890625 C 17443.869140625 -5721.923828125 17440.818359375 -5731.56689453125 17439.693359375 -5733.96337890625 C 17439.0625 -5735.3095703125 17438.345703125 -5736.11669921875 17437.82421875 -5736.57177734375 M 17437.515625 -5737.9921875 C 17437.515625 -5737.9921875 17439.271484375 -5737.22021484375 17440.599609375 -5734.3876953125 C 17441.927734375 -5731.5546875 17445.775390625 -5719.1875 17445.775390625 -5719.1875 L 17442.7421875 -5716.12451171875 C 17442.7421875 -5716.12451171875 17435.7578125 -5732.8798828125 17436.005859375 -5734.7490234375 C 17436.177734375 -5735.98046875 17437.515625 -5737.9921875 17437.515625 -5737.9921875 Z" stroke="none" fill="#02254d"/></g></g><g transform="translate(-198.516 1087.54)"><path d="M-195.227,1164.11a.76.76,0,0,0,.754.748h61.724a.763.763,0,0,0,.762-.748Zm29,.284v0Z" transform="translate(195.272 -1120.776)" fill="#6e4e2b"/><path d="M-132.75,1105.277h-61.724a.76.76,0,0,0-.754.743h63.239A.763.763,0,0,0-132.75,1105.277Zm-33.472.464" transform="translate(195.272 -1105.277)" fill="#fabc78"/><rect width="63.31" height="42.591" transform="translate(0 0.743)" fill="#df9840"/><g transform="translate(4.169 4.144)"><path d="M-187.9,1110.9a.436.436,0,0,1-.116.258.411.411,0,0,1-.29.126.442.442,0,0,1-.295-.126.417.417,0,0,1-.116-.258h-.912v14.216h.907a.386.386,0,0,1,.124-.295.41.41,0,0,1,.581,0l0,0a.377.377,0,0,1,.129.295h26.841V1110.9Zm-.4,13.546a.426.426,0,0,1-.419-.417.42.42,0,0,1,.394-.444.419.419,0,0,1,.444.394.284.284,0,0,1,0,.05A.423.423,0,0,1-188.3,1124.449Zm0-1.109a.418.418,0,0,1-.419-.415v-.006a.419.419,0,0,1,.419-.419.419.419,0,0,1,.419.419.414.414,0,0,1-.407.421h-.013Zm0-1.093a.416.416,0,0,1-.419-.413v0a.419.419,0,0,1,.419-.419.419.419,0,0,1,.419.419.413.413,0,0,1-.409.417Zm0-1.094a.42.42,0,0,1-.419-.418.419.419,0,0,1,.418-.421.419.419,0,0,1,.421.417.419.419,0,0,1-.418.421Zm0-1.093a.427.427,0,0,1-.419-.422.419.419,0,0,1,.419-.419.419.419,0,0,1,.419.419.424.424,0,0,1-.419.421Zm0-1.093a.432.432,0,0,1-.419-.422.419.419,0,0,1,.419-.419.419.419,0,0,1,.419.419.428.428,0,0,1-.419.421Zm0-1.109a.421.421,0,0,1-.419-.421.419.419,0,0,1,.419-.419.419.419,0,0,1,.419.419.417.417,0,0,1-.414.42h-.005Zm0-1.093a.418.418,0,0,1-.419-.416v-.008a.419.419,0,0,1,.419-.419.419.419,0,0,1,.419.419.415.415,0,0,1-.406.423h-.013Zm0-1.1a.42.42,0,0,1-.419-.418h0a.419.419,0,0,1,.419-.419.419.419,0,0,1,.419.419.416.416,0,0,1-.412.418h-.007Zm0-1.1a.419.419,0,0,1-.419-.419.419.419,0,0,1,.419-.419.419.419,0,0,1,.419.419.419.419,0,0,1-.419.419Zm0-1.093a.429.429,0,0,1-.419-.418.419.419,0,0,1,.419-.419.419.419,0,0,1,.419.419.424.424,0,0,1-.419.417Zm0-1.093a.432.432,0,0,1-.419-.421.419.419,0,0,1,.419-.419.419.419,0,0,1,.419.419.429.429,0,0,1-.419.42Z" transform="translate(189.627 -1110.903)" fill="#fff"/><g transform="translate(3.83 1.761)"><path d="M-173.481,1119.117h-7.572a.465.465,0,0,1-.445-.482.464.464,0,0,1,.445-.445h7.572a.464.464,0,0,1,.445.482A.464.464,0,0,1-173.481,1119.117Z" transform="translate(183.655 -1114.583)" fill="#afb0b1"/><path d="M-176.369,1114.22h-7.576a.464.464,0,0,1-.481-.445.462.462,0,0,1,.445-.481h7.612a.463.463,0,0,1,.482.444.465.465,0,0,1-.445.482Z" transform="translate(184.427 -1113.293)" fill="#afb0b1"/><path d="M-172.8,1116.372h-11.135a.465.465,0,0,1-.445-.482.464.464,0,0,1,.445-.445H-172.8a.464.464,0,0,1,.445.482.464.464,0,0,1-.445.445Z" transform="translate(184.414 -1113.86)" fill="#afb0b1"/><path d="M-158.306,1119.117h-4.875a.465.465,0,0,1-.445-.482.464.464,0,0,1,.445-.445h4.875a.464.464,0,0,1,.445.482A.464.464,0,0,1-158.306,1119.117Z" transform="translate(178.947 -1114.583)" fill="#afb0b1"/><g transform="translate(0 6.182)"><path d="M-173.481,1127.509h-7.572a.463.463,0,0,1-.444-.482.462.462,0,0,1,.444-.444h7.572a.463.463,0,0,1,.482.444.465.465,0,0,1-.445.482Z" transform="translate(183.655 -1122.976)" fill="#afb0b1"/><path d="M-176.369,1122.613h-7.576a.464.464,0,0,1-.481-.445.463.463,0,0,1,.445-.481h7.612a.464.464,0,0,1,.482.444.464.464,0,0,1-.445.482Z" transform="translate(184.427 -1121.686)" fill="#afb0b1"/><path d="M-172.8,1124.752h-11.135a.465.465,0,0,1-.445-.482.464.464,0,0,1,.445-.445H-172.8a.464.464,0,0,1,.445.482.464.464,0,0,1-.445.445Z" transform="translate(184.414 -1122.25)" fill="#afb0b1"/></g></g><path d="M-162.149,1111.864h-22.9a1.246,1.246,0,0,0-1.246,1.246h0v10.34a1.242,1.242,0,0,0,1.246,1.238h22.9a1.241,1.241,0,0,0,1.241-1.238v-10.34A1.243,1.243,0,0,0-162.149,1111.864Zm.87,1.246v1.984h-10.062v-2.859h9.192a.873.873,0,0,1,.869.875Zm-10.062,8.225v-2.3h10.061v2.3Zm0-2.483v-3.575h10.061v3.575Zm-13.707-6.617h13.336v5.943h-14.211v-5.068a.875.875,0,0,1,.875-.874Zm-.875,11.215v-5.092h14.211v5.957h-13.336a.872.872,0,0,1-.875-.865Z" transform="translate(188.749 -1111.156)" fill="#ca557e"/></g></g></g></g></g></svg>