<svg xmlns="http://www.w3.org/2000/svg" width="153.969" height="98.721" viewBox="0 0 153.969 98.721"><g transform="translate(-399 -3821.772)"><path d="M1848.147,1476.689c0,.477-28.877.863-64.5.863s-64.5-.386-64.5-.863,28.877-.865,64.5-.865S1848.147,1476.211,1848.147,1476.689Z" transform="translate(-1309.23 2442.942)" fill="#8e8e8f"/><g transform="translate(399.934 3825.777)"><path d="M1683.965,1209.3h.227v-67.657h-.227v-.141h-.72v68.238h.72Z" transform="translate(-1683.246 -1141.498)" fill="#2b2726"/></g><path d="M2126.873,1253.758h-23.58v-25.675h19.137Z" transform="translate(-1586.528 2621.776)" fill="#fff" opacity="0.4"/><g transform="translate(530.011 3871.647)"><g transform="translate(11.253 1.402)"><path d="M2191.419,1311.709a2.283,2.283,0,0,0,1.667,1.915,2.771,2.771,0,0,0-1.711-2.167C2191.4,1311.572,2191.411,1311.659,2191.419,1311.709Z" transform="translate(-2191.375 -1311.457)"/></g><path d="M2151.909,1307.366c.149.4,1.216,2.079,1.921,3.189.547.86.859,1.354.933,1.511a2.755,2.755,0,0,0,1.18,1.149,37.548,37.548,0,0,0,3.914.687.271.271,0,0,0,.217-.045.47.47,0,0,0,.06-.32c-.012-.126-.233-1.485-.956-5.784h-.046a4.931,4.931,0,0,0-2.918-1.335h-5.3A1.549,1.549,0,0,1,2151.909,1307.366Z" transform="translate(-2150.918 -1306.418)"/></g><g transform="translate(520.303 3853.213)"><path d="M2116.571,1243.743a.69.69,0,0,0,.691-.69v-2.223a.69.69,0,0,0-.691-.691h-.552c.013,1.066.039,2.291.072,3.6Z" transform="translate(-2116.019 -1240.139)"/></g><g transform="translate(520.836 3867.63)"><path d="M2129.533,1298.057c.55-3.356-2.148-6.086-6.014-6.086a8.767,8.767,0,0,0-5.588,2.059c.014.3.027.595.041.873a.971.971,0,0,0,.14.459,7.169,7.169,0,0,1,5.23-2.31c2.925,0,5.032,1.9,5,4.358.232.41.591.993.959,1.578A5.815,5.815,0,0,0,2129.533,1298.057Z" transform="translate(-2117.931 -1291.971)"/></g><g transform="translate(475.442 3912.227)"><g transform="translate(0 0)"><path d="M1967.557,1453.051v-.738h-1.776c-.009.074-.016.152-.025.225.546,4.231,1.921,7.234,3.534,7.234,1.544,0,2.873-2.763,3.461-6.721Z" transform="translate(-1962.688 -1452.313)" fill="#1a1311"/><g transform="translate(0 0.226)"><path d="M1957.794,1453.124c-.493,3.817-1.661,6.631-3.068,7.146a1.351,1.351,0,0,0,.465.088h6.136C1959.715,1460.358,1958.341,1457.354,1957.794,1453.124Z" transform="translate(-1954.727 -1453.124)" fill="#302d2c"/></g></g></g><path d="M2102.317,1258.652s.165-12.673,0-19.915-.541-23.192-.561-24.641,1.48-3.894,5.62-3.894h2.123l.143-.064h-9.451v48.517h2.938v0Z" transform="translate(-1584.289 2634.729)" fill="#d4d5d5"/><path d="M1909.657,1396.956h-.006l-2.1-10.019v0h-13.371c-1.032,0-1.29-2.328-1.291-2.333h-2.523v.181h.227v2.243h-80.976l-.1,11.21H1811v5.936h20.775v-.738h23v.738H1882.6v-.738h16.742l11.04-4.726A7.764,7.764,0,0,1,1909.657,1396.956Z" transform="translate(-1374.465 2508.792)" fill="#1a1311"/><path d="M1946.232,1393.092c-1.49,0-1.2.053-.2.053-1.089,0-2.143,1.252-2.774,2.832h-.02a22.457,22.457,0,0,0-1.362,6.119.766.766,0,0,1-.807.772h8.5s.509.016.509-.772C1950.081,1400.728,1948.693,1393.092,1946.232,1393.092Z" transform="translate(-1469.428 2502.663)" fill="#302d2c"/><g transform="translate(456.917 3914.558)"><path d="M1912.8,1460.7h-2.616c.675,3.086,1.843,5.127,3.172,5.127a1.809,1.809,0,0,0,1.307-.7A10.1,10.1,0,0,1,1912.8,1460.7Z" transform="translate(-1904.047 -1460.697)" fill="#302d2c"/><path d="M1894.257,1460.7h-6.136c.676,3.086,1.845,5.127,3.173,5.127h6.136C1896.1,1465.824,1894.932,1463.783,1894.257,1460.7Z" transform="translate(-1888.121 -1460.697)" fill="#1a1311"/></g><g transform="translate(465.669 3897.108)"><path d="M1943.752,1397.955a1.327,1.327,0,0,0-.353.051,7.26,7.26,0,0,0-.792,1.481h-.02a22.46,22.46,0,0,0-1.361,6.119.732.732,0,0,1-.191.532l-.867,6.745c.508,4.449,1.919,7.65,3.584,7.65,2.09,0,3.785-5.054,3.785-11.289S1945.842,1397.955,1943.752,1397.955Z" transform="translate(-1934.443 -1397.955)" fill="#474645"/><g transform="translate(0 14.928)"><path d="M1925.311,1451.627l-.324,2.523h-5.4c.676,3.086,1.844,5.127,3.173,5.127h6.135C1927.23,1459.277,1925.819,1456.075,1925.311,1451.627Z" transform="translate(-1919.587 -1451.627)" fill="#1a1311"/></g><path d="M1950.571,1420.132c0,3.917-.965,7.093-2.156,7.093s-2.158-3.176-2.158-7.093.966-7.095,2.158-7.095S1950.571,1416.214,1950.571,1420.132Z" transform="translate(-1938.839 -1408.842)" fill="#ebebeb"/><path d="M1949.015,1429.169c-1.251,0-1.927-3.026-1.927-5.875s.675-5.876,1.927-5.876,1.926,3.027,1.926,5.876S1950.266,1429.169,1949.015,1429.169Zm0-11.35c-.722,0-1.527,2.249-1.527,5.476s.8,5.474,1.527,5.474,1.526-2.248,1.526-5.474S1949.736,1417.818,1949.015,1417.818Z" transform="translate(-1939.439 -1412.005)" fill="#1a1311"/><path d="M1953.12,1433.78c0,1.014-.25,1.836-.558,1.836s-.56-.821-.56-1.836.251-1.836.56-1.836S1953.12,1432.766,1953.12,1433.78Z" transform="translate(-1942.986 -1422.49)" fill="#1a1311"/></g><g transform="translate(417.944 3914.558)"><path d="M1772.742,1460.7h-2.675c.676,3.086,1.843,5.127,3.172,5.127a1.834,1.834,0,0,0,1.338-.729A10.222,10.222,0,0,1,1772.742,1460.7Z" transform="translate(-1763.93 -1460.697)" fill="#1a1311"/><path d="M1754.139,1460.7H1748c.677,3.086,1.845,5.127,3.174,5.127h6.136C1755.982,1465.824,1754.815,1463.783,1754.139,1460.7Z" transform="translate(-1748.002 -1460.697)" fill="#302d2c"/></g><g transform="translate(426.756 3907.955)"><path d="M1803.794,1441.965v-5.008h-4.251c0,.147,0,.293,0,.441,0,6.235,1.693,11.289,3.786,11.289,1.545,0,2.874-2.763,3.462-6.722Z" transform="translate(-1794.016 -1436.957)" fill="#1a1311"/><path d="M1785.206,1437.4c0-.148,0-.295,0-.441h-1.565l-.849,6.6h-3.113c.676,3.086,1.844,5.127,3.173,5.127h6.135C1786.9,1448.687,1785.206,1443.633,1785.206,1437.4Z" transform="translate(-1779.683 -1436.957)" fill="#302d2c"/></g><g transform="translate(460.098 3895.808)"><path d="M1899.558,1403.272v6.4h4.956v.543h6.59a.767.767,0,0,0,.807-.772,22.437,22.437,0,0,1,1.381-6.172Z" transform="translate(-1899.558 -1400.494)" fill="#302d2c"/><path d="M1899.558,1393.293v2.821h13.735c.631-1.579,1.685-2.831,2.774-2.831Z" transform="translate(-1899.558 -1393.283)" fill="#1a1311"/></g><path d="M1750.516,1402.714v-.226h-4.956v-3.713h.175a1.332,1.332,0,0,0,1.331-1.287v-2.121a1.331,1.331,0,0,0-1.331-1.278h-.175v-.771h-45.854v.771h-12.152a1.332,1.332,0,0,0-1.331,1.287v2.12a1.331,1.331,0,0,0,1.331,1.278h12.152v3.713h-5.973a.34.34,0,0,0-.373.291v2.4c0,.234.54.272.339.272h6.436l-.849,6.6h16.044l.849-6.6h25.155l-.849,6.6h16.045l1.2-9.345Z" transform="translate(-1285.462 2502.499)"/><g transform="translate(519.843 3897.108)"><path d="M2144,1409.245c0,6.235-1.694,11.289-3.784,11.289s-3.787-5.054-3.787-11.289,1.694-11.29,3.787-11.29S2144,1403.01,2144,1409.245Z" transform="translate(-2130.293 -1397.955)" fill="#474645"/><path d="M2118.152,1397.955c-2.091,0-3.788,5.055-3.788,11.29s1.7,11.289,3.788,11.289h6.136c-2.093,0-3.787-5.054-3.787-11.289s1.694-11.29,3.787-11.29Z" transform="translate(-2114.364 -1397.955)" fill="#1a1311"/><path d="M2147.56,1420.132c0,3.917-.965,7.093-2.157,7.093s-2.158-3.176-2.158-7.093.966-7.095,2.158-7.095S2147.56,1416.214,2147.56,1420.132Z" transform="translate(-2135.212 -1408.842)" fill="#ebebeb"/><path d="M2146,1429.169c-1.252,0-1.927-3.026-1.927-5.875s.675-5.876,1.927-5.876,1.926,3.027,1.926,5.876S2147.254,1429.169,2146,1429.169Zm0-11.35c-.722,0-1.526,2.249-1.526,5.476s.8,5.474,1.526,5.474,1.525-2.248,1.525-5.474S2146.724,1417.818,2146,1417.818Z" transform="translate(-2135.812 -1412.005)" fill="#1a1311"/><path d="M2150.11,1433.78c0,1.014-.25,1.836-.559,1.836s-.559-.821-.559-1.836.25-1.836.559-1.836S2150.11,1432.766,2150.11,1433.78Z" transform="translate(-2139.361 -1422.49)" fill="#1a1311"/></g><path d="M2200.7,1277.851h-3.823a1.729,1.729,0,0,0-1.729,1.729v7.615a1.718,1.718,0,0,0,.247.887h-4.585a.34.34,0,0,0,0,.681h5.342a1.726,1.726,0,0,0,.726.161h3.823a1.728,1.728,0,0,0,1.728-1.728v-7.615A1.728,1.728,0,0,0,2200.7,1277.851Z" transform="translate(-1649.456 2585.851)"/><path d="M2.55,0h0A2.549,2.549,0,0,1,5.1,2.549v4.84A2.548,2.548,0,0,1,2.55,9.937h0A2.55,2.55,0,0,1,0,7.386V2.55A2.55,2.55,0,0,1,2.55,0Z" transform="translate(546.487 3864.27)" fill="#fff"/><rect width="60.543" height="74.046" transform="translate(400.88 3821.772)" fill="#d4d5d5"/><rect width="58.676" height="67.657" transform="translate(402.746 3825.918)" fill="#5f5e5e"/><rect width="1.867" height="67.657" transform="translate(400.88 3825.918)" fill="#d4d5d5"/><rect width="0.934" height="68.238" transform="translate(399 3825.777)" fill="#d4d5d5"/><rect width="60.769" height="2.243" transform="translate(400.653 3893.575)" fill="#bdbebf"/><rect width="60.769" height="4.146" transform="translate(400.653 3821.772)" fill="#bdbebf"/><rect width="3.432" height="1.716" transform="translate(402.466 3823.604)" fill="#f38200"/><rect width="0.516" height="1.716" transform="translate(405.898 3823.604)" fill="#e85400"/><rect width="3.432" height="1.716" transform="translate(455.15 3823.604)" fill="#f38200"/><rect width="0.515" height="1.716" transform="translate(458.582 3823.604)" fill="#e85400"/><path d="M2121.987,1384.6h-12.725s.258,2.334,1.291,2.334h13.371C2123.919,1386.917,2123.218,1384.714,2121.987,1384.6Z" transform="translate(-1590.838 2508.793)" fill="#302d2c"/><rect width="54.696" height="2.243" transform="translate(461.433 3893.575)" fill="#767676"/><path d="M1906.068,1131.244h-1.71V1127.1h54.7v4.146h-52.986Z" transform="translate(-1442.925 2694.674)" fill="#6c6c6c"/><path d="M2176.648,1428.873h-7.142s.782,3.1,2.48,3.1h5.2v-.3A11.953,11.953,0,0,1,2176.648,1428.873Z" transform="translate(-1634.326 2476.834)" fill="#302d2c"/><path d="M2130.469,1268.158a32.826,32.826,0,0,1,.547-3.632h1.756l-.347-22.333-.2-.926a.285.285,0,0,1-.071.014h-.559a2.8,2.8,0,0,1-2.524-2.442c-.112-.664-1.306-7.2-2.359-12.964-.866-4.742-1.684-9.221-1.75-9.608a1.647,1.647,0,0,1,.38-1.337,1.954,1.954,0,0,1,1.5-.674h.045c-1.555-2.816-5.586-3.886-6.877-3.886h-8.57c-4.14,0-5.639,2.444-5.62,3.894s.4,17.4.561,24.641,0,19.915,0,19.915H2119.4c1.3,0,2.036,2.347,2.036,2.347l2.1,10.019h7.142C2130.572,1270.216,2130.5,1269.142,2130.469,1268.158Zm-2.514-23.222a.793.793,0,0,1-.6.236c-.032,0-.065,0-.1,0a36.928,36.928,0,0,1-4.074-.722,3.332,3.332,0,0,1-1.517-1.457c-.061-.129-.486-.8-.9-1.445a33.919,33.919,0,0,1-1.976-3.3,1.053,1.053,0,0,0-1.018-.657h-7.55a1.682,1.682,0,0,1-1.6-1.559c-.258-5.389-.614-15.445-.583-19.53.013-1.591.741-1.911,1.912-1.911h11.213a2.559,2.559,0,0,1,2.351,1.959l.241,1.419c2.954,17.362,4.4,25.934,4.415,26.2A.993.993,0,0,1,2127.955,1244.936Z" transform="translate(-1588.352 2634.564)" fill="#a6a7a7"/><path d="M2116.561,1248.5a1.074,1.074,0,0,0,1,.987h7.55a1.637,1.637,0,0,1,1.58,1.048c.149.4,1.216,2.079,1.921,3.189.547.86.86,1.355.933,1.511a2.753,2.753,0,0,0,1.18,1.149,37.611,37.611,0,0,0,3.914.687.269.269,0,0,0,.216-.044.467.467,0,0,0,.06-.321c-.023-.241-.806-4.975-4.408-26.14l-.241-1.42a1.938,1.938,0,0,0-1.758-1.458H2117.29c-.924,0-1.3.119-1.311,1.314C2115.947,1233.076,2116.3,1243.116,2116.561,1248.5Z" transform="translate(-1595.685 2622.062)" fill="#fff" opacity="0.2"/><path d="M2133.127,1256.114h0c-.032,0-.065,0-.1,0a36.9,36.9,0,0,1-4.074-.722,3.336,3.336,0,0,1-1.517-1.457c-.061-.129-.485-.8-.9-1.444a33.955,33.955,0,0,1-1.977-3.3,1.052,1.052,0,0,0-1.018-.657H2116a1.682,1.682,0,0,1-1.6-1.559c-.258-5.389-.614-15.446-.583-19.53.013-1.591.741-1.91,1.912-1.91h11.213a2.558,2.558,0,0,1,2.351,1.959l.241,1.419c2.955,17.362,4.4,25.933,4.415,26.2a.993.993,0,0,1-.222.769A.794.794,0,0,1,2133.127,1256.114Zm-17.4-29.985c-.925,0-1.3.119-1.311,1.315-.032,4.074.324,14.114.582,19.5a1.073,1.073,0,0,0,.995.987h7.55a1.638,1.638,0,0,1,1.581,1.048c.149.4,1.216,2.079,1.92,3.189.547.86.86,1.354.934,1.511a2.75,2.75,0,0,0,1.18,1.149,37.6,37.6,0,0,0,3.913.687.271.271,0,0,0,.217-.044.466.466,0,0,0,.06-.32c-.022-.241-.806-4.975-4.408-26.14l-.242-1.42a1.937,1.937,0,0,0-1.758-1.458Z" transform="translate(-1594.126 2623.621)" fill="#1a1311"/><path d="M2178.221,1226.262l-.205.005a1.357,1.357,0,0,0-1.044.461,1.036,1.036,0,0,0-.245.849c.064.383.882,4.86,1.748,9.6,1.054,5.767,2.248,12.3,2.36,12.971a2.191,2.191,0,0,0,1.932,1.942h.491l-.545-2.407s-3.934-21.283-4.4-23.076c-.04-.152-.067-.293-.1-.43Z" transform="translate(-1639.528 2623.154)" fill="#fff" opacity="0.4"/><g transform="translate(536.584 3848.815)"><path d="M2181.767,1251.356h-.559a2.8,2.8,0,0,1-2.524-2.442c-.111-.664-1.305-7.2-2.358-12.964-.866-4.742-1.685-9.221-1.75-9.608a1.646,1.646,0,0,1,.379-1.337,1.954,1.954,0,0,1,1.5-.674l.133,0h.06l.013.6-.206.005a1.357,1.357,0,0,0-1.044.461,1.036,1.036,0,0,0-.245.849c.065.383.882,4.86,1.748,9.6,1.053,5.767,2.248,12.3,2.36,12.972a2.191,2.191,0,0,0,1.931,1.942h.559a.3.3,0,1,1,0,.6Z" transform="translate(-2174.554 -1224.326)"/></g><path d="M2196.807,1405.08h-1.814a32.758,32.758,0,0,0-.547,3.632c.083,2.709.492,6.094,1,6.094h.319c1.232,0,2.911-2.956,2.911-6.094C2198.681,1407.958,2196.807,1405.08,2196.807,1405.08Z" transform="translate(-1652.328 2494.009)" fill="#333"/><path d="M2123.686,1333.455a.546.546,0,0,1-.537.555h-2.511a.546.546,0,0,1-.538-.555v-1.664a.546.546,0,0,1,.538-.555h2.511a.546.546,0,0,1,.537.555Z" transform="translate(-1598.66 2547.314)"/><path d="M2193.37,1336.154h2.018l.083,5.175h-2.539v-3.747S2192.966,1336.154,2193.37,1336.154Z" transform="translate(-1651.236 2543.764)" fill="#e85400"/><path d="M2195.471,1354.779l.192,11.809h-2.731v-11.809Z" transform="translate(-1651.236 2530.319)" fill="#d4d5d5"/><rect width="19.192" height="7.209" transform="translate(490.11 3904.63)" fill="#bdbebf"/><path d="M1.225,0H17.483a1.223,1.223,0,0,1,1.223,1.223V3.8a1.225,1.225,0,0,1-1.225,1.225H1.226A1.226,1.226,0,0,1,0,3.8V1.225A1.225,1.225,0,0,1,1.225,0Z" transform="translate(421.782 3897.552)" fill="#d9d9d9"/><g transform="translate(400.957 3896.99)"><path d="M1686.926,1400.768v2.014c0,.017,0,.033,0,.049v-2.112C1686.93,1400.736,1686.926,1400.751,1686.926,1400.768Z" transform="translate(-1686.926 -1399.832)" fill="#e33c0b" stroke="#000" stroke-miterlimit="10" stroke-width="1.44"/><rect width="7.395" height="3.885" transform="translate(3.881 0)" fill="#e12f15"/><path d="M1687.664,1400.53a.929.929,0,0,0,.93.886h2.345v-3.885h-2.345a.931.931,0,0,0-.93.895Z" transform="translate(-1687.459 -1397.532)" fill="#f38200"/><path d="M1732.248,1398.467a.936.936,0,0,0-.935-.936h-2.408v3.885h2.408a.936.936,0,0,0,.935-.935Z" transform="translate(-1717.229 -1397.532)" fill="#f6f6f6"/></g><g transform="translate(446.388 3896.99)"><rect width="7.395" height="3.885" transform="translate(3.744 0)" fill="#e12f15"/><path d="M1895.032,1398.418a.93.93,0,0,0-.93-.886h-2.345v3.885h2.345a.931.931,0,0,0,.93-.9Z" transform="translate(-1880.218 -1397.532)" fill="#f38200"/><g transform="translate(0 0)"><path d="M1850.269,1400.481a.936.936,0,0,0,.935.935h2.408v-3.885H1851.2a.937.937,0,0,0-.935.936Z" transform="translate(-1850.269 -1397.532)" fill="#f6f6f6"/></g></g><g transform="translate(399.511 3832.539)"><rect width="2.098" height="5.689" transform="translate(0 0.204)" fill="#ebebeb"/><path d="M1683.835,1166.545h-.009v5.689h-.593v0c0-.111-.172-.2-.384-.2s-.384.089-.384.2v0h-.738v.01l.31.319h2.137v-5.8Z" transform="translate(-1681.728 -1166.341)" fill="#8e8e8f"/><path d="M1684.379,1166.011c0-.11.172-.2.384-.2s.384.09.384.2v5.691c0-.111-.172-.2-.384-.2s-.384.089-.384.2Z" transform="translate(-1683.642 -1165.811)" fill="#fff"/></g><rect width="54.747" height="67.657" transform="translate(461.433 3825.918)" fill="#535453"/><g transform="translate(463.781 3856.466)"><rect width="23.786" height="1.579" transform="translate(0)" fill="#b56635"/><rect width="5.471" height="1.579" transform="translate(23.786)" fill="#3b1a11"/><g transform="translate(6.601 1.938)"><rect width="1.075" height="8.273" transform="translate(0.959)" fill="#3b1a11"/><rect width="1.075" height="8.273" fill="#5e2e1d"/></g><g transform="translate(25.545 1.938)"><rect width="1.075" height="8.273" transform="translate(0.959)" fill="#3b1a11"/><rect width="1.075" height="8.273" fill="#5e2e1d"/></g><g transform="translate(20.897 1.938)"><rect width="1.075" height="8.273" transform="translate(0.959)" fill="#3b1a11"/><rect width="1.075" height="8.273" fill="#5e2e1d"/></g><rect width="3.102" height="0.529" transform="translate(22.931 8.719)" fill="#24100d"/><g transform="translate(1.954 1.938)"><rect width="1.075" height="8.273" transform="translate(0.959)" fill="#3b1a11"/><rect width="1.075" height="8.273" fill="#5e2e1d"/></g><rect width="17.405" height="0.529" transform="translate(3.492 8.719)" fill="#24100d"/><rect width="3.102" height="0.529" transform="translate(22.931 4.086)" fill="#24100d"/><rect width="17.405" height="0.529" transform="translate(3.492 4.086)" fill="#24100d"/><rect width="5.883" height="0.455" transform="translate(22.3 1.579)" fill="#3b1a11"/><rect width="20.995" height="0.455" transform="translate(1.465 1.579)" fill="#5e2e1d"/></g><g transform="translate(456.214 3866.571)"><rect width="30.436" height="20.841" transform="translate(1.402 1.185)" fill="#868687"/><g transform="translate(1.671 1.46)"><rect width="29.899" height="10.025" fill="#f5f5f5"/><rect width="8.618" height="28.31" transform="translate(29.104 0.704) rotate(90)" fill="#e9e8e8"/><g transform="translate(13.481 3.544)"><circle cx="1.468" cy="1.468" r="1.468" fill="#bebebd"/><path d="M1940.949,1308.5a.072.072,0,0,1-.071-.058,1.27,1.27,0,0,1-.025-.252,1.25,1.25,0,0,1,1.859-1.092.073.073,0,1,1-.071.127,1.106,1.106,0,0,0-1.621,1.188.073.073,0,0,1-.056.085Z" transform="translate(-1940.635 -1306.723)" fill="#f5f5f5"/><path d="M1943.01,1308.564a1.467,1.467,0,0,1-2.606,1.308,1.467,1.467,0,1,0,2.606-1.308Z" transform="translate(-1940.311 -1307.895)" fill="#868687"/></g><g transform="translate(0 10.266)"><rect width="29.899" height="10.025" fill="#f5f5f5"/><rect width="8.618" height="28.31" transform="translate(29.104 0.704) rotate(90)" fill="#e9e8e8"/><g transform="translate(13.481 3.544)"><circle cx="1.468" cy="1.468" r="1.468" fill="#bebebd"/><path d="M1940.949,1345.41a.073.073,0,0,1-.071-.058,1.268,1.268,0,0,1-.025-.252,1.25,1.25,0,0,1,1.859-1.092.072.072,0,1,1-.071.127,1.106,1.106,0,0,0-1.621,1.188.073.073,0,0,1-.056.086Z" transform="translate(-1940.635 -1343.633)" fill="#f5f5f5"/><path d="M1943.01,1345.474a1.467,1.467,0,0,1-2.606,1.308,1.467,1.467,0,1,0,2.606-1.308Z" transform="translate(-1940.311 -1344.805)" fill="#868687"/></g></g></g><rect width="33.241" height="1.185" transform="translate(0 0)" fill="#f5f5f5"/><rect width="33.241" height="1.185" transform="translate(0 22.027)" fill="#f5f5f5"/><rect width="1.014" height="20.841" transform="translate(0.388 1.185)" fill="#e9e8e8"/><rect width="1.014" height="20.841" transform="translate(31.838 1.185)" fill="#e9e8e8"/><g transform="translate(0.389 23.212)"><rect width="2.904" height="0.884" fill="#868687"/><path d="M1890.609,1374.8v1.566a1.072,1.072,0,0,1-1.072,1.072h-.938V1374.8Z" transform="translate(-1888.152 -1373.912)" fill="#bebebd"/></g><g transform="translate(29.948 23.212)"><rect width="2.904" height="0.884" fill="#868687"/><path d="M1996.882,1374.8v2.638h-.937a1.072,1.072,0,0,1-1.072-1.072V1374.8Z" transform="translate(-1994.427 -1373.912)" fill="#bebebd"/></g><rect width="5.936" height="1.185" transform="translate(39.177 1.185) rotate(180)" fill="#bebebd"/><rect width="5.936" height="1.185" transform="translate(39.177 23.212) rotate(180)" fill="#bebebd"/><rect width="5.53" height="20.841" transform="translate(38.383 22.027) rotate(180)" fill="#868687"/><g transform="translate(5.919 23.212)"><rect width="2.904" height="0.884" fill="#868687"/><path d="M1910.493,1374.8v1.566a1.072,1.072,0,0,1-1.072,1.072h-.937V1374.8Z" transform="translate(-1908.036 -1373.912)" fill="#bebebd"/></g><g transform="translate(35.478 23.212)"><rect width="2.904" height="0.884" fill="#868687"/><path d="M2016.766,1374.8v2.638h-.937a1.072,1.072,0,0,1-1.072-1.072V1374.8Z" transform="translate(-2014.31 -1373.912)" fill="#bebebd"/></g><rect width="37.994" height="0.275" transform="translate(0.388 1.185)" fill="#5b5b5a" opacity="0.48" style="mix-blend-mode:multiply;isolation:isolate"/><rect width="2.009" height="0.275" transform="translate(0.836 24.095)" fill="#5b5b5a" style="mix-blend-mode:multiply;isolation:isolate"/><rect width="2.009" height="0.275" transform="translate(6.367 24.095)" fill="#5b5b5a" style="mix-blend-mode:multiply;isolation:isolate"/><rect width="2.009" height="0.275" transform="translate(30.395 24.095)" fill="#5b5b5a" style="mix-blend-mode:multiply;isolation:isolate"/><rect width="2.009" height="0.275" transform="translate(35.925 24.095)" fill="#5b5b5a" style="mix-blend-mode:multiply;isolation:isolate"/></g><g transform="translate(455.283 3842.932)"><rect width="9.406" height="8.727" transform="translate(0 0)" fill="#f6e6d7"/><rect width="2.099" height="8.727" transform="translate(7.307 0)" fill="#d2b9a6"/><path d="M1884.3,1261.977a2.429,2.429,0,0,0-4.785,0Z" transform="translate(-1877.209 -1238.802)" fill="#3b1a11"/><rect width="1.49" height="2.025" transform="translate(3.958 15.617)" fill="#3b1a11"/><path d="M1884.192,1249.142h0a1.518,1.518,0,0,1-1.513-1.513v-1.745a1.518,1.518,0,0,1,1.513-1.514h0a1.518,1.518,0,0,1,1.514,1.514v1.745A1.518,1.518,0,0,1,1884.192,1249.142Z" transform="translate(-1879.49 -1227.542)" fill="#945029"/><rect width="0.872" height="1.999" transform="translate(4.267 8.727)" fill="#3b1a11"/><ellipse cx="1.181" cy="0.926" rx="1.181" ry="0.926" transform="translate(3.522 10.531)" fill="#945029"/><path d="M1885.673,1228.749l-.361,1.805a1.243,1.243,0,0,1-.4.678,1.518,1.518,0,0,1-1.512,0,1.243,1.243,0,0,1-.4-.678q-.181-.9-.361-1.805a.865.865,0,0,1,.385-.8,2.276,2.276,0,0,1,2.267,0A.865.865,0,0,1,1885.673,1228.749Z" transform="translate(-1879.451 -1215.47)" fill="#945029"/><path d="M1889.476,1227.843a1.4,1.4,0,0,0,.574-1.125v-1.978a1.4,1.4,0,0,0-.768-1.245v-1.213l.011-.005a1.242,1.242,0,0,0,.4-.678l.361-1.805a.864.864,0,0,0-.385-.8,2.257,2.257,0,0,0-.539-.223.913.913,0,0,0,.587-.8.96.96,0,0,0-.745-.86v-1.87h-.276v1.813a1.025,1.025,0,0,1,.745.917.912.912,0,0,1-.586.8,2.258,2.258,0,0,1,.539.223.865.865,0,0,1,.386.8l-.361,1.805a1.648,1.648,0,0,1-.413.806s0-.124,0-.122v1.107a1.57,1.57,0,0,1,.769,1.352v1.978a1.574,1.574,0,0,1-.492,1.245,1.823,1.823,0,0,1,1.371,1.727h.276A2.045,2.045,0,0,0,1889.476,1227.843Z" transform="translate(-1883.834 -1206.514)" fill="#945029" opacity="0.44" style="mix-blend-mode:multiply;isolation:isolate"/></g><g transform="translate(493.318 3833.414)"><rect width="12.81" height="60.268" transform="translate(0 0)" fill="#5e2e1d"/><rect width="3.791" height="60.268" transform="translate(0.863 0)" fill="#3b1a11"/><rect width="4.657" height="60.268" transform="translate(12.045)" fill="#3b1a11"/><rect width="12.224" height="1.059" transform="translate(0.27 31.372)" fill="#945029"/><g transform="translate(0.001 0)"><rect width="0.862" height="60.268" fill="#945029"/><rect width="0.862" height="60.268" transform="translate(11.947)" fill="#945029"/></g><g transform="translate(0 41.428)"><rect width="12.81" height="18.84" fill="#aa6d4a"/><g transform="translate(2.185 2.185)"><rect width="14.471" height="8.441" transform="translate(8.441 0) rotate(90)" fill="#f6e6d7"/><g transform="translate(7.061 3.801)"><path d="M2052.879,1340.665c0,.687-.144,1.243-.322,1.243s-.321-.557-.321-1.243.144-1.244.321-1.244S2052.879,1339.977,2052.879,1340.665Z" transform="translate(-2052.236 -1339.421)" fill="#5e2e1d"/><path d="M2053.039,1339.89a3.291,3.291,0,0,1,.13,1c0,.687-.144,1.243-.321,1.243-.051,0-.1-.048-.143-.13.053.154.119.245.191.245.177,0,.322-.556.322-1.243A2.779,2.779,0,0,0,2053.039,1339.89Z" transform="translate(-2052.575 -1339.759)" fill="#481c10"/></g></g></g><g transform="translate(0 0)"><rect width="12.81" height="18.84" fill="#aa6d4a"/><g transform="translate(2.185 2.185)"><rect width="14.471" height="8.441" transform="translate(8.441 0) rotate(90)" fill="#f6e6d7"/><g transform="translate(7.061 8.975)"><ellipse cx="0.322" cy="1.244" rx="0.322" ry="1.244" fill="#5e2e1d"/><path d="M2053.039,1209.544a3.289,3.289,0,0,1,.13,1c0,.687-.144,1.244-.321,1.244-.051,0-.1-.048-.143-.13.053.154.119.246.191.246.177,0,.322-.557.322-1.244A2.778,2.778,0,0,0,2053.039,1209.544Z" transform="translate(-2052.575 -1209.413)" fill="#481c10"/></g></g></g></g><g transform="translate(404.844 3869.189)"><rect width="30.236" height="21.131" transform="translate(38.475 21.131) rotate(-180)" fill="#b56635"/><rect width="27.635" height="6.671" transform="translate(37.175 7.614) rotate(-180)" fill="#5e2e1d"/><rect width="27.635" height="11.794" transform="translate(37.175 20.027) rotate(-180)" fill="#f6e6d7"/><rect width="13.817" height="11.794" transform="translate(23.357 20.027) rotate(-180)" fill="#c4d6bd"/><g transform="translate(35.417 9.786)"><path d="M1828.522,1335.855h0a.285.285,0,0,0,.284-.285v-2.52a.285.285,0,0,0-.284-.284h0a.285.285,0,0,0-.284.284v2.52A.285.285,0,0,0,1828.522,1335.855Z" transform="translate(-1828.238 -1332.766)" fill="#5e2e1d"/><path d="M1828.522,1332.766a.283.283,0,0,1,.081.013.285.285,0,0,0-.2.271v2.52a.285.285,0,0,0,.2.271.28.28,0,0,1-.366-.271v-2.52A.285.285,0,0,1,1828.522,1332.766Z" transform="translate(-1828.238 -1332.766)" fill="#481c10"/></g><g transform="translate(10.715 9.786)"><path d="M1739.71,1335.855h0a.285.285,0,0,0,.285-.285v-2.52a.286.286,0,0,0-.285-.284h0a.285.285,0,0,0-.285.284v2.52A.285.285,0,0,0,1739.71,1335.855Z" transform="translate(-1739.426 -1332.766)" fill="#5e2e1d"/><path d="M1739.71,1332.766a.283.283,0,0,1,.081.013.285.285,0,0,0-.2.271v2.52a.285.285,0,0,0,.2.271.28.28,0,0,1-.366-.271v-2.52A.285.285,0,0,1,1739.71,1332.766Z" transform="translate(-1739.426 -1332.766)" fill="#481c10"/></g><rect width="8.24" height="21.131" transform="translate(8.24 21.131) rotate(-180)" fill="#3b1a11"/><rect width="3.117" height="2.96" transform="translate(12.558 24.091) rotate(-180)" fill="#b56635"/><rect width="0.704" height="2.96" transform="translate(9.441 21.131)" fill="#3b1a11"/><rect width="3.117" height="2.96" transform="translate(3.523 24.091) rotate(-180)" fill="#b56635"/><rect width="0.704" height="2.96" transform="translate(0.406 21.131)" fill="#3b1a11"/><rect width="3.117" height="2.96" transform="translate(37.443 24.091) rotate(-180)" fill="#b56635"/><rect width="0.704" height="2.96" transform="translate(34.327 21.131)" fill="#3b1a11"/><rect width="3.117" height="2.96" transform="translate(28.408 24.091) rotate(-180)" fill="#b56635"/><rect width="0.704" height="2.96" transform="translate(25.292 21.131)" fill="#3b1a11"/><rect width="8.24" height="6.603" transform="translate(37.229 7.524) rotate(-180)" fill="#3b1a11"/></g><g transform="translate(426.595 3855.778)"><rect width="13.116" height="9.246" transform="translate(25.98 15.461)" fill="#5e2e1d"/><ellipse cx="2.991" cy="3.646" rx="2.991" ry="3.646" transform="translate(2.745 0)" fill="#b56635"/><path d="M2412.7,1314h-19.573l-.287-1.394-.653-3.172-.288-1.4-1.691-8.208-.994-4.828a2.017,2.017,0,0,1,1.976-2.425h17.1l0,.023.381,1.851,1.218,5.914.314,1.521.733,3.562.534,2.59.118.571,1.084,5.263Z" transform="translate(-2384.912 -1292.576)" fill="#b56635"/><path d="M2418.891,1317.393h-18.765c.037-.652.049-1.342.038-2.063-.007-.43-.022-.873-.044-1.325q-.03-.622-.081-1.269-.055-.714-.132-1.456c-.109-1.047-.249-2.131-.416-3.243-.51-3.413-1.274-7.071-2.153-10.652q-.067-.273-.135-.545a8.824,8.824,0,0,0-2.076-4.184c-.03-.028-.059-.055-.089-.08h16.732a3,3,0,0,1,.371.023,3.766,3.766,0,0,1,3.08,3.262l1.477,8.665.191,1.123.407,2.389.154.9.841,4.933.192,1.13.072.422.317,1.861Z" transform="translate(-2388.766 -1292.576)" fill="#914822"/><path d="M2433.246,1295.861l1.477,8.665a35.272,35.272,0,0,0-2.893-4.083c-.022-.026-.043-.053-.066-.079a33.64,33.64,0,0,0-9.26-7.788h7.656l0,.023A3.765,3.765,0,0,1,2433.246,1295.861Z" transform="translate(-2406.791 -1292.576)" fill="#ab5b30"/><g transform="translate(9.761 3.857)"><path d="M2410.737,1303.8l-.065,1.95.065,1.95.065-1.95Z" transform="translate(-2408.787 -1303.796)" fill="#48261a"/><path d="M2409.088,1309.346l-1.95.065-1.95-.065,1.95-.065Z" transform="translate(-2405.188 -1307.396)" fill="#48261a"/><path d="M2410.7,1309.123a.182.182,0,1,1-.182-.182A.182.182,0,0,1,2410.7,1309.123Z" transform="translate(-2408.564 -1307.173)" fill="#3b1a11"/><g transform="translate(5.698)"><path d="M2427.314,1303.8l-.065,1.95.065,1.95.065-1.95Z" transform="translate(-2425.364 -1303.796)" fill="#48261a"/><path d="M2425.666,1309.346l-1.951.065-1.95-.065,1.95-.065Z" transform="translate(-2421.765 -1307.396)" fill="#48261a"/><path d="M2427.274,1309.123a.182.182,0,1,1-.182-.182A.182.182,0,0,1,2427.274,1309.123Z" transform="translate(-2425.141 -1307.173)" fill="#3b1a11"/></g><g transform="translate(11.397)"><path d="M2443.892,1303.8l-.065,1.95.065,1.95.065-1.95Z" transform="translate(-2441.942 -1303.796)" fill="#48261a"/><path d="M2442.244,1309.346l-1.95.065-1.95-.065,1.95-.065Z" transform="translate(-2438.343 -1307.396)" fill="#48261a"/><path d="M2443.851,1309.123a.182.182,0,1,1-.182-.182A.182.182,0,0,1,2443.851,1309.123Z" transform="translate(-2441.719 -1307.173)" fill="#3b1a11"/></g><g transform="translate(1.724 5.285)"><path d="M2415.753,1319.17l-.065,1.95.065,1.95.065-1.95Z" transform="translate(-2413.802 -1319.17)" fill="#48261a"/><path d="M2414.1,1324.719l-1.95.065-1.95-.065,1.95-.065Z" transform="translate(-2410.204 -1322.769)" fill="#48261a"/><path d="M2415.712,1324.5a.182.182,0,1,1-.182-.182A.182.182,0,0,1,2415.712,1324.5Z" transform="translate(-2413.58 -1322.546)" fill="#3b1a11"/><g transform="translate(5.699)"><path d="M2432.331,1319.17l-.065,1.95.065,1.95.065-1.95Z" transform="translate(-2430.38 -1319.17)" fill="#48261a"/><path d="M2430.682,1324.719l-1.95.065-1.95-.065,1.95-.065Z" transform="translate(-2426.781 -1322.769)" fill="#48261a"/><path d="M2432.289,1324.5a.182.182,0,1,1-.182-.182A.182.182,0,0,1,2432.289,1324.5Z" transform="translate(-2430.157 -1322.546)" fill="#3b1a11"/></g><g transform="translate(11.397)"><path d="M2448.908,1319.17l-.065,1.95.065,1.95.065-1.95Z" transform="translate(-2446.958 -1319.17)" fill="#48261a"/><path d="M2447.259,1324.719l-1.951.065-1.95-.065,1.95-.065Z" transform="translate(-2443.358 -1322.769)" fill="#48261a"/><path d="M2448.867,1324.5a.182.182,0,1,1-.182-.182A.182.182,0,0,1,2448.867,1324.5Z" transform="translate(-2446.735 -1322.546)" fill="#3b1a11"/></g></g><g transform="translate(3.598 10.569)"><path d="M2421.205,1334.544l-.065,1.95.065,1.95.065-1.95Z" transform="translate(-2419.255 -1334.544)" fill="#48261a"/><path d="M2419.557,1340.093l-1.951.065-1.95-.065,1.95-.065Z" transform="translate(-2415.656 -1338.143)" fill="#48261a"/><path d="M2421.164,1339.87a.182.182,0,1,1-.182-.182A.182.182,0,0,1,2421.164,1339.87Z" transform="translate(-2419.032 -1337.92)" fill="#3b1a11"/><g transform="translate(5.699)"><path d="M2437.783,1334.544l-.065,1.95.065,1.95.065-1.95Z" transform="translate(-2435.832 -1334.544)" fill="#48261a"/><path d="M2436.134,1340.093l-1.95.065-1.95-.065,1.95-.065Z" transform="translate(-2432.233 -1338.143)" fill="#48261a"/><path d="M2437.741,1339.87a.182.182,0,1,1-.182-.182A.182.182,0,0,1,2437.741,1339.87Z" transform="translate(-2435.609 -1337.92)" fill="#3b1a11"/></g><g transform="translate(11.397)"><path d="M2454.36,1334.544l-.065,1.95.065,1.95.065-1.95Z" transform="translate(-2452.41 -1334.544)" fill="#48261a"/><path d="M2452.711,1340.093l-1.95.065-1.95-.065,1.95-.065Z" transform="translate(-2448.811 -1338.143)" fill="#48261a"/><path d="M2454.319,1339.87a.182.182,0,1,1-.182-.182A.182.182,0,0,1,2454.319,1339.87Z" transform="translate(-2452.187 -1337.92)" fill="#3b1a11"/></g></g></g><g transform="translate(18.327 11.288)"><path d="M2444.152,1327.649a.81.81,0,0,1-.022.12q-.1.4-.2.8s0,.006,0,.009a.02.02,0,0,0,0,.008q-.119.5-.227,1.005-.13.613-.241,1.235c-.141.792-.261,1.591-.356,2.39q-.131,1.108-.2,2.209c0,.012,0,.022,0,.033v.018q-.038.626-.056,1.245a.9.9,0,0,1-.017.142v0a.558.558,0,0,1-.08.2.419.419,0,0,1-.09.1.5.5,0,0,1-.513.035c-.191-.076-.384-.149-.575-.22q-1.156-.428-2.3-.736-.711-.191-1.423-.336l-.086-.018q-1.081-.216-2.174-.329a24.519,24.519,0,0,0-3.4-.108q-.745.027-1.51.1a.662.662,0,0,1-.178,0,.438.438,0,0,1-.3-.17.561.561,0,0,1-.059-.48c.02-.075.039-.151.059-.226a40.446,40.446,0,0,0,1.228-8.722.474.474,0,0,1,.7-.475,24.956,24.956,0,0,0,5.557,1.513l.123.018q1.042.148,2.1.2c.158.009.317.014.475.019a26.529,26.529,0,0,0,3.215-.1.544.544,0,0,1,.421.11.413.413,0,0,1,.083.1A.522.522,0,0,1,2444.152,1327.649Z" transform="translate(-2430.105 -1325.413)" fill="#149bb3"/><g transform="translate(12.352 1.914)"><path d="M2467.734,1331.3c-.078.3-.151.608-.222.916,0,0,0,.006,0,.009a.022.022,0,0,0,0,.007q-.115.5-.219,1.005-.127.615-.236,1.236c-.141.8-.261,1.607-.359,2.415q-.133,1.094-.21,2.183l0,.033v.018q-.049.7-.074,1.387v0a.562.562,0,0,1-.08.2.415.415,0,0,1-.09.1c-.02-.118-.038-.234-.054-.352-.067-.465-.109-.926-.129-1.384a16.758,16.758,0,0,1,.2-3.356c.07-.446.156-.877.251-1.29s.2-.814.315-1.189a15.668,15.668,0,0,1,.859-2.26Z" transform="translate(-2466.039 -1330.98)" fill="#127f8a"/></g><g transform="translate(1.282 3.349)"><path d="M2448.6,1343.706a.316.316,0,0,1-.144.287.494.494,0,0,1-.413.026q-.632-.192-1.259-.367a49.007,49.007,0,0,0-12.5-1.821c-.329,0-.521-.211-.429-.47a15.255,15.255,0,0,0,.954-5.861c-.006-.275.242-.411.555-.313a49,49,0,0,0,12.6,2.152q.578.024,1.165.036a.647.647,0,0,1,.217.038.322.322,0,0,1,.212.431A15.24,15.24,0,0,0,2448.6,1343.706Z" transform="translate(-2433.834 -1335.155)" fill="#e7b178"/><path d="M2475.943,1348.28v0c0,.189-.14.385-.231.206-.5-.977-.142-4.8,1.006-6.276.109-.14.192-.111.2.06a.36.36,0,0,1-.023.144A15.255,15.255,0,0,0,2475.943,1348.28Z" transform="translate(-2461.172 -1339.729)" fill="#be8e5c"/></g></g><path d="M2.447,0H15.181a2.447,2.447,0,0,1,2.447,2.447v0a1.762,1.762,0,0,1-1.762,1.762H1.61A1.61,1.61,0,0,1,0,2.6V2.447A2.447,2.447,0,0,1,2.447,0Z" transform="translate(35.745 25.505) rotate(180)" fill="#48261a"/><path d="M2391.865,1352.637h10.356l-2.043-15.083h-10.6v12.8A2.287,2.287,0,0,0,2391.865,1352.637Z" transform="translate(-2385.183 -1322.093)" fill="#4b1e0e"/><path d="M2400.7,1358.77l1.524,7.79h-10.356a2.287,2.287,0,0,1-2.287-2.287v-5.5Z" transform="translate(-2385.183 -1336.016)" fill="#b56635"/><rect width="2.32" height="6.769" transform="translate(37.139 37.313) rotate(180)" fill="#4b2117"/><rect width="2.32" height="6.769" transform="translate(27.757 37.313) rotate(180)" fill="#4b2117"/><circle cx="3.646" cy="3.646" r="3.646" transform="matrix(0.772, -0.635, 0.635, 0.772, 33.963, 18.607)" fill="#945029"/><circle cx="3.646" cy="3.646" r="3.646" transform="translate(9.628 19.555) rotate(-49.977)" fill="#945029"/><circle cx="3.646" cy="3.646" r="3.646" transform="matrix(0.973, -0.233, 0.233, 0.973, 0, 16.411)" fill="#4b1e0e"/><path d="M2423.24,1348.875v5.1a.8.8,0,0,0,.8.8h15.527a.713.713,0,0,0,.713-.713v-5.181H2444v8.841a2.35,2.35,0,0,1-2.35,2.35h-19.79a2.35,2.35,0,0,1-2.35-2.35v-8.841Z" transform="translate(-2404.828 -1329.522)" fill="#945029"/><rect width="0.942" height="6.769" transform="translate(34.818 37.313) rotate(180)" fill="#c27447"/><rect width="0.942" height="6.769" transform="translate(25.416 37.313) rotate(180)" fill="#c27447"/><rect width="2.32" height="6.769" transform="translate(20.174 37.313) rotate(180)" fill="#4b2117"/><rect width="2.32" height="6.769" transform="translate(10.792 37.313) rotate(180)" fill="#4b2117"/><rect width="0.942" height="6.769" transform="translate(17.853 37.313) rotate(180)" fill="#c27447"/><rect width="0.942" height="6.769" transform="translate(8.472 37.313) rotate(180)" fill="#c27447"/></g></g></svg>