<svg xmlns="http://www.w3.org/2000/svg" width="154.639" height="71.999" viewBox="0 0 154.639 71.999">
  <g id="price_obj06" transform="translate(-57.565 -265.752)">
    <path id="パス_89352" data-name="パス 89352" d="M0,0H140.005V53.834H0Z" transform="translate(64.785 283.918)" fill="#9a7750"/>
    <path id="パス_89345" data-name="パス 89345" d="M224.462,269.2l-33,16.373L227.02,288.5l31.277-2.329Z" transform="translate(-54.272 -1.399)" fill="#9a7750"/>
    <path id="パス_89346" data-name="パス 89346" d="M103.264,269.2,70.1,285.759l35.721,2.743,31.277-2.329Z" transform="translate(-5.081 -1.399)" fill="#9a7750"/>
    <path id="パス_89347" data-name="パス 89347" d="M175.7,270.83l-33.621,16.143-2.3.776v-.143l-36.073-16.575L69.793,287.248v3.075l34.053-16.736,35.933,17.449v-.095l36.065-17.556,33.762,16.662v-3.429Z" transform="translate(-4.956 -2.058)" fill="#c4c4c4" style="mix-blend-mode: multiply;isolation: isolate"/>
    <g id="グループ_15548" data-name="グループ 15548" transform="translate(57.565 265.752)">
      <path id="パス_89348" data-name="パス 89348" d="M223.6,265.752l-.011.045-.011-.045-35.993,17.763,3.238,1.6,32.765-16.17,40.627,20.05.689-2.856Z" transform="translate(-110.264 -265.752)" fill="#12497d"/>
      <path id="パス_89349" data-name="パス 89349" d="M98.892,265.752l-.011.045-.011-.045-41.3,20.385.689,2.856,40.627-20.05,32.765,16.17,3.238-1.6Z" transform="translate(-57.565 -265.752)" fill="#12497d"/>
      <path id="パス_89350" data-name="パス 89350" d="M182.138,297.221l3.238,1.6,3.238-1.6-3.238-1.6Z" transform="translate(-108.057 -277.859)" fill="#12497d"/>
    </g>
    <g id="グループ_15549" data-name="グループ 15549" transform="translate(80.107 315.389)">
      <rect id="長方形_30238" data-name="長方形 30238" width="19.684" height="17.722" transform="translate(8.318 4.641)" fill="#261d21"/>
      <rect id="長方形_30239" data-name="長方形 30239" width="36.03" height="4.221" transform="translate(0 3.827)" fill="#c4c4c4" style="mix-blend-mode: multiply;isolation: isolate"/>
      <rect id="長方形_30240" data-name="長方形 30240" width="2.322" height="18.666" transform="translate(2.761 3.696)" fill="#dbdbdb"/>
      <rect id="長方形_30241" data-name="長方形 30241" width="2.322" height="18.666" transform="translate(31.792 3.696)" fill="#dbdbdb"/>
      <rect id="長方形_30242" data-name="長方形 30242" width="36.03" height="4.221" transform="translate(0 0)" fill="#fcfefe"/>
    </g>
    <g id="グループ_15550" data-name="グループ 15550" transform="translate(90.901 285.185)">
      <rect id="長方形_30246" data-name="長方形 30246" width="14.714" height="6.225" transform="translate(0)" fill="#fcfefe"/>
      <rect id="長方形_30247" data-name="長方形 30247" width="12.899" height="4.6" transform="translate(0.907 0.812)" fill="#428394"/>
    </g>
    <g id="グループ_15551" data-name="グループ 15551" transform="translate(163.496 278.784)">
      <rect id="長方形_30248" data-name="長方形 30248" width="14.714" height="6.225" fill="#fcfefe"/>
      <rect id="長方形_30249" data-name="長方形 30249" width="12.899" height="4.6" transform="translate(0.907 0.812)" fill="#428394"/>
    </g>
    <g id="グループ_15560" data-name="グループ 15560" transform="translate(0 13)">
      <rect id="長方形_30243" data-name="長方形 30243" width="55.794" height="23.638" transform="translate(143.018 293.029)" fill="#261d21"/>
      <rect id="長方形_30244" data-name="長方形 30244" width="61.344" height="3.46" transform="translate(140.243 316.426)" fill="#c4c4c4" style="mix-blend-mode: multiply;isolation: isolate"/>
      <rect id="長方形_30245" data-name="長方形 30245" width="61.344" height="3.46" transform="translate(140.243 313.324)" fill="#12497d"/>
      <rect id="長方形_30250" data-name="長方形 30250" width="64.889" height="3.46" transform="translate(138.459 291.975)" fill="#c4c4c4" style="mix-blend-mode: multiply;isolation: isolate"/>
      <path id="パス_89351" data-name="パス 89351" d="M258.506,307.7H193.588l1.363-3.158h62.192Z" transform="translate(-55.132 -15.725)" fill="#12497d"/>
      <g id="グループ_15552" data-name="グループ 15552" transform="translate(148.059 297.104)">
        <rect id="長方形_30251" data-name="長方形 30251" width="7.477" height="4.77" transform="translate(0)" fill="#ef8745"/>
        <rect id="長方形_30252" data-name="長方形 30252" width="1.045" height="2.499" transform="translate(3.216)" fill="#feb84c"/>
      </g>
      <g id="グループ_15553" data-name="グループ 15553" transform="translate(148.059 302.488)">
        <rect id="長方形_30253" data-name="長方形 30253" width="7.477" height="4.77" transform="translate(0 0)" fill="#ef8745"/>
        <rect id="長方形_30254" data-name="長方形 30254" width="1.045" height="2.499" transform="translate(3.216 0.008)" fill="#feb84c"/>
      </g>
      <g id="グループ_15554" data-name="グループ 15554" transform="translate(148.059 307.873)">
        <rect id="長方形_30255" data-name="長方形 30255" width="7.477" height="4.77" transform="translate(0)" fill="#ef8745"/>
        <rect id="長方形_30256" data-name="長方形 30256" width="1.045" height="2.499" transform="translate(3.216 0.057)" fill="#feb84c"/>
      </g>
      <g id="グループ_15555" data-name="グループ 15555" transform="translate(156.996 297.104)">
        <rect id="長方形_30257" data-name="長方形 30257" width="7.477" height="4.77" fill="#ef8745"/>
        <rect id="長方形_30258" data-name="長方形 30258" width="1.045" height="2.499" transform="translate(3.172)" fill="#feb84c"/>
      </g>
      <g id="グループ_15556" data-name="グループ 15556" transform="translate(156.996 302.488)">
        <rect id="長方形_30259" data-name="長方形 30259" width="7.477" height="4.77" transform="translate(0 0)" fill="#ef8745"/>
        <rect id="長方形_30260" data-name="長方形 30260" width="1.045" height="2.499" transform="translate(3.172 0.008)" fill="#feb84c"/>
      </g>
      <g id="グループ_15557" data-name="グループ 15557" transform="translate(156.996 307.873)">
        <rect id="長方形_30261" data-name="長方形 30261" width="7.477" height="4.77" fill="#ef8745"/>
        <rect id="長方形_30262" data-name="長方形 30262" width="1.045" height="2.499" transform="translate(3.172 0.057)" fill="#feb84c"/>
      </g>
      <g id="グループ_15558" data-name="グループ 15558" transform="translate(186.368 297.104)">
        <rect id="長方形_30263" data-name="長方形 30263" width="7.477" height="4.77" transform="translate(0 10.77)" fill="#ef8745"/>
        <rect id="長方形_30264" data-name="長方形 30264" width="7.477" height="4.77" transform="translate(0 5.385)" fill="#ef8745"/>
        <rect id="長方形_30265" data-name="長方形 30265" width="7.477" height="4.77" fill="#ef8745"/>
        <rect id="長方形_30266" data-name="長方形 30266" width="1.045" height="2.499" transform="translate(3.172)" fill="#feb84c"/>
        <rect id="長方形_30267" data-name="長方形 30267" width="1.045" height="2.499" transform="translate(3.172 5.393)" fill="#feb84c"/>
        <rect id="長方形_30268" data-name="長方形 30268" width="1.045" height="2.499" transform="translate(3.172 10.827)" fill="#feb84c"/>
      </g>
    </g>
  </g>
</svg>
