<svg xmlns="http://www.w3.org/2000/svg" width="105.638" height="76.592" viewBox="0 0 105.638 76.592">
  <g id="price_obj04" transform="translate(-55.558 -61.3)">
    <path id="パス_71038" data-name="パス 71038" d="M236.326,80.845l-8.56-12.486H164.254V81.706Z" transform="translate(-75.131 -4.851)" fill="#2f2316"/>
    <rect id="長方形_28630" data-name="長方形 28630" width="90.82" height="57.452" transform="translate(68.402 77.793)" fill="#645441"/>
    <rect id="長方形_28631" data-name="長方形 28631" width="18.65" height="10.003" transform="translate(111.623 83.334)" fill="#403020"/>
    <g id="グループ_4580" data-name="グループ 4580" transform="translate(112.155 83.895)">
      <rect id="長方形_28632" data-name="長方形 28632" width="8.388" height="8.882" fill="#ceebfb"/>
      <rect id="長方形_28633" data-name="長方形 28633" width="8.388" height="8.882" transform="translate(9.189)" fill="#ceebfb"/>
    </g>
    <rect id="長方形_28634" data-name="長方形 28634" width="18.65" height="10.003" transform="translate(135.798 83.334)" fill="#403020"/>
    <g id="グループ_4581" data-name="グループ 4581" transform="translate(136.33 83.895)">
      <rect id="長方形_28635" data-name="長方形 28635" width="8.388" height="8.882" fill="#ceebfb"/>
      <rect id="長方形_28636" data-name="長方形 28636" width="8.388" height="8.882" transform="translate(9.189)" fill="#ceebfb"/>
    </g>
    <rect id="長方形_28637" data-name="長方形 28637" width="41.772" height="1.069" transform="translate(117.451 128.324)" fill="#403020"/>
    <rect id="長方形_28638" data-name="長方形 28638" width="41.772" height="5.775" transform="translate(117.451 129.393)" fill="#a79484"/>
    <rect id="長方形_28639" data-name="長方形 28639" width="10.601" height="1.887" transform="translate(106.85 128.365)" fill="#b3a245"/>
    <rect id="長方形_28640" data-name="長方形 28640" width="10.601" height="1.887" transform="translate(106.85 129.918)" fill="#5c521f"/>
    <rect id="長方形_28641" data-name="長方形 28641" width="10.601" height="1.887" transform="translate(106.85 131.805)" fill="#b3a245"/>
    <rect id="長方形_28642" data-name="長方形 28642" width="10.601" height="1.887" transform="translate(106.85 133.358)" fill="#5c521f"/>
    <rect id="長方形_28643" data-name="長方形 28643" width="18.65" height="20.761" transform="translate(128.651 107.612)" fill="#403020"/>
    <g id="グループ_4582" data-name="グループ 4582" transform="translate(129.183 108.776)">
      <rect id="長方形_28644" data-name="長方形 28644" width="8.388" height="18.434" fill="#ceebfb"/>
      <rect id="長方形_28645" data-name="長方形 28645" width="8.388" height="18.434" transform="translate(9.189)" fill="#ceebfb"/>
    </g>
    <path id="パス_71039" data-name="パス 71039" d="M217.221,110.877l27.937,16.483H218.322Z" transform="translate(-111.472 -34.022)" fill="#645441" style="mix-blend-mode: multiply;isolation: isolate"/>
    <rect id="長方形_28646" data-name="長方形 28646" width="52.373" height="14.396" transform="translate(106.85 92.481)" fill="#826d55"/>
    <rect id="長方形_28647" data-name="長方形 28647" width="38.447" height="57.452" transform="translate(68.402 77.793)" fill="#826d55"/>
    <rect id="長方形_28648" data-name="長方形 28648" width="38.447" height="5.775" transform="translate(68.402 129.393)" fill="#a79484"/>
    <rect id="長方形_28649" data-name="長方形 28649" width="38.447" height="1.069" transform="translate(68.402 128.324)" fill="#403020"/>
    <rect id="長方形_28650" data-name="長方形 28650" width="18.65" height="10.003" transform="translate(78.301 81.742)" fill="#403020"/>
    <g id="グループ_4583" data-name="グループ 4583" transform="translate(78.833 82.303)">
      <rect id="長方形_28651" data-name="長方形 28651" width="8.388" height="8.882" transform="translate(0)" fill="#ceebfb"/>
      <rect id="長方形_28652" data-name="長方形 28652" width="8.388" height="8.882" transform="translate(9.189)" fill="#ceebfb"/>
    </g>
    <rect id="長方形_28653" data-name="長方形 28653" width="18.65" height="20.761" transform="translate(78.301 107.612)" fill="#403020"/>
    <g id="グループ_4584" data-name="グループ 4584" transform="translate(78.833 108.776)">
      <rect id="長方形_28654" data-name="長方形 28654" width="8.388" height="18.434" transform="translate(0)" fill="#ceebfb"/>
      <rect id="長方形_28655" data-name="長方形 28655" width="8.388" height="18.434" transform="translate(9.189)" fill="#ceebfb"/>
    </g>
    <rect id="長方形_28656" data-name="長方形 28656" width="38.447" height="1.584" transform="translate(68.402 77.793)" fill="#826d55" style="mix-blend-mode: multiply;isolation: isolate"/>
    <rect id="長方形_28657" data-name="長方形 28657" width="47.988" height="1.722" transform="translate(61.655 75.994)" fill="#a79484"/>
    <rect id="長方形_28658" data-name="長方形 28658" width="53.266" height="1.722" transform="translate(107.93 75.994)" fill="#a79484"/>
    <path id="パス_71040" data-name="パス 71040" d="M101.8,61.323,76.749,75.654v.861h47.988v-.861Z" transform="translate(-15.094 -0.023)" fill="#403020"/>
    <rect id="長方形_28659" data-name="長方形 28659" width="10.601" height="21.983" transform="translate(106.85 106.876)" fill="#524536"/>
    <g id="グループ_4585" data-name="グループ 4585" transform="translate(107.951 111.046)">
      <rect id="長方形_28660" data-name="長方形 28660" width="8.397" height="17.278" fill="#403020"/>
      <rect id="長方形_28661" data-name="長方形 28661" width="1.88" height="16.261" transform="translate(3.157 0.614)" fill="#fff"/>
      <rect id="長方形_28662" data-name="長方形 28662" width="0.48" height="4.036" transform="translate(7.019 7.565)" fill="#f2f6ec"/>
    </g>
    <path id="パス_71041" data-name="パス 71041" d="M106.461,228.853h-.517V218.814l-1.611-5.569.83-6.5,2.507-5.7-1.627-3.354.466-.226,1.731,3.57-2.588,5.88-.792,6.283,1.6,5.574Z" transform="translate(-34.019 -93.434)" fill="#221a12"/>
    <path id="パス_71042" data-name="パス 71042" d="M111.794,194.341l-.253-.451,3.922-2.2.916-4.018,2.836-1.33,1.18-3.054.482.186-1.255,3.248-2.8,1.311-.911,4Z" transform="translate(-38.965 -83.703)" fill="#221a12"/>
    <path id="パス_71043" data-name="パス 71043" d="M359.862,169.526l-4.181-1.917-2.313-2.855h-4.087l-1.939-1.6.33-.4,1.8,1.486h4.147l2.392,2.953,4.071,1.866Z" transform="translate(-200.747 -69.613)" fill="#221a12"/>
    <path id="パス_71044" data-name="パス 71044" d="M357.195,180.094l-.138-.5,2.793-.771v-2.019l1.808-2.3.407.319-1.7,2.161v2.234Z" transform="translate(-207.413 -77.677)" fill="#221a12"/>
    <path id="パス_71045" data-name="パス 71045" d="M309.43,80.109l-4.877-2.166-12.734-.817.033-.516,12.826.823,4.717,2.1,7.032-4.193.265.444Z" transform="translate(-162.653 -9.637)" fill="#826d55"/>
    <path id="パス_71046" data-name="パス 71046" d="M319.968,86.926l-.2-.477,2.662-1.123,1.065-2.528.477.2-1.146,2.722Z" transform="translate(-181.828 -14.758)" fill="#826d55"/>
    <path id="パス_71047" data-name="パス 71047" d="M196.3,171.485l-.374-.358,2.125-2.222,7.792-3.474.4-4.844.516.043-.427,5.149-7.979,3.557Z" transform="translate(-96.863 -68.129)" fill="#221a12"/>
    <path id="パス_71048" data-name="パス 71048" d="M231.161,182.875l-.473-.21,1.567-3.525-4.4-2.825.28-.435,4.77,3.065Z" transform="translate(-118.77 -78.62)" fill="#221a12"/>
    <path id="パス_71049" data-name="パス 71049" d="M316.254,173.486l2.02,4.306h-1.286l4.484,4.232Z" transform="translate(-179.418 -76.978)" fill="#403020"/>
    <path id="パス_71050" data-name="パス 71050" d="M112,166.828l0-4.014,1.495-.534-3.265-6.274Z" transform="translate(-38.066 -64.985)" fill="#403020"/>
    <g id="グループ_4586" data-name="グループ 4586" transform="translate(55.558 120.139)">
      <path id="パス_71051" data-name="パス 71051" d="M63.824,264.046s-2.252-10.342-6.5-15.28c0,0,5.371,4.594,6.67,8.967a32.052,32.052,0,0,0,2.426,6.313Z" transform="translate(-57.327 -248.766)" fill="#45a243"/>
      <path id="パス_71052" data-name="パス 71052" d="M85.1,264.046s2.253-10.342,6.5-15.28c0,0-5.371,4.594-6.671,8.967a32.042,32.042,0,0,1-2.426,6.313Z" transform="translate(-74.602 -248.766)" fill="#45a243"/>
      <path id="パス_71053" data-name="パス 71053" d="M74.829,249.233s4.959,5.189,4.816,15.134H77.754s-.036-7.464-1.427-10.746A18.829,18.829,0,0,1,74.829,249.233Z" transform="translate(-69.335 -249.086)" fill="#45a243"/>
    </g>
    <g id="グループ_4587" data-name="グループ 4587" transform="translate(146.667 124.951)">
      <path id="パス_71054" data-name="パス 71054" d="M353.073,277.037s-1.908-8.759-5.5-12.94c0,0,4.548,3.89,5.649,7.594a27.165,27.165,0,0,0,2.054,5.346Z" transform="translate(-347.571 -264.097)" fill="#45a243"/>
      <path id="パス_71055" data-name="パス 71055" d="M371.094,277.037s1.908-8.759,5.5-12.94c0,0-4.549,3.89-5.649,7.594a27.14,27.14,0,0,1-2.054,5.346Z" transform="translate(-362.2 -264.097)" fill="#45a243"/>
      <path id="パス_71056" data-name="パス 71056" d="M362.393,264.492s4.2,4.394,4.079,12.816h-1.6s-.03-6.321-1.209-9.1A15.925,15.925,0,0,1,362.393,264.492Z" transform="translate(-357.74 -264.368)" fill="#45a243"/>
    </g>
  </g>
</svg>
