<svg xmlns="http://www.w3.org/2000/svg" width="132.455" height="65.169" viewBox="0 0 132.455 65.169">
  <g id="price_obj05" transform="translate(-4003.453 -2190.031)">
    <rect id="長方形_30416" data-name="長方形 30416" width="103.061" height="33.98" transform="translate(4121.439 2253.424) rotate(180)" fill="#beac83"/>
    <rect id="長方形_30417" data-name="長方形 30417" width="10.322" height="10.322" transform="translate(4036.235 2235.688) rotate(180)" fill="#ccecf4"/>
    <rect id="長方形_30418" data-name="長方形 30418" width="10.322" height="10.322" transform="translate(4047.806 2235.688) rotate(180)" fill="#ccecf4"/>
    <g id="グループ_15716" data-name="グループ 15716" transform="translate(4102.063 2225.542)">
      <rect id="長方形_30419" data-name="長方形 30419" width="8.726" height="13.626" transform="translate(8.726 13.626) rotate(180)" fill="#ccecf4"/>
    </g>
    <rect id="長方形_30420" data-name="長方形 30420" width="117.071" height="1.776" transform="translate(4123.874 2255.2) rotate(180)" fill="#666"/>
    <rect id="長方形_30421" data-name="長方形 30421" width="13.014" height="25.422" transform="translate(4081.43 2250.789) rotate(180)" fill="#ccc"/>
    <rect id="長方形_30422" data-name="長方形 30422" width="11.366" height="22.201" transform="translate(4080.606 2249.179) rotate(180)" fill="#333"/>
    <rect id="長方形_30423" data-name="長方形 30423" width="29.059" height="2.635" transform="translate(4088.747 2253.424) rotate(180)" fill="gray"/>
    <rect id="長方形_30424" data-name="長方形 30424" width="1.697" height="5.373" transform="translate(4072.123 2241.061) rotate(180)" fill="gray"/>
    <path id="パス_89895" data-name="パス 89895" d="M4454.1,2420.554l-1.556-3.818h-22.026l-1.7,3.818Z" transform="translate(-366.229 -195.187)" fill="#666"/>
    <g id="屋根" transform="translate(4003.453 2190.031)">
      <path id="パス_89896" data-name="パス 89896" d="M4037.548,2190.031h65.875l32.485,29.413H4003.453Z" transform="translate(-4003.453 -2190.031)" fill="#333"/>
      <rect id="長方形_30425" data-name="長方形 30425" width="113.395" height="1.06" transform="translate(123.39 25.367) rotate(180)" fill="#666"/>
      <rect id="長方形_30426" data-name="長方形 30426" width="61.247" height="0.99" transform="translate(98.45 2.816) rotate(180)" fill="#666"/>
      <rect id="長方形_30427" data-name="長方形 30427" width="72.165" height="1.131" transform="translate(103.792 9.178) rotate(180)" fill="#666"/>
      <rect id="長方形_30428" data-name="長方形 30428" width="92.752" height="1.06" transform="translate(113.068 16.601) rotate(180)" fill="#666"/>
    </g>
  </g>
</svg>
