<svg xmlns="http://www.w3.org/2000/svg" width="170.138" height="96.504" viewBox="0 0 170.138 96.504"><g transform="translate(-299.709 -3836.069)"><path d="M1030.569,1457.517c0,.381-32.267.689-72.072.689s-72.07-.308-72.07-.689,32.268-.69,72.07-.69S1030.569,1457.136,1030.569,1457.517Z" transform="translate(-572.688 2474.366)" fill="#8e8e8f"/><g transform="translate(398.817 3912.277)"><path d="M1274.054,1386.6c0,5.311-1.443,9.616-3.224,9.616s-3.225-4.3-3.225-9.616,1.443-9.616,3.225-9.616S1274.054,1381.291,1274.054,1386.6Z" transform="translate(-1262.377 -1376.985)" fill="#070203"/><path d="M1248.766,1376.985c-1.782,0-3.227,4.305-3.227,9.616s1.445,9.616,3.227,9.616h5.226c-1.782,0-3.225-4.3-3.225-9.616s1.443-9.616,3.225-9.616Z" transform="translate(-1245.539 -1376.985)" fill="#2f2c2b"/></g><g transform="translate(300.815 3840.121)"><path d="M832.726,1140.994h.269v-68.438h-.269v-.143h-.852v69.026h.852Z" transform="translate(-831.874 -1072.414)" fill="#2b2726"/></g><path d="M1435.28,1230.569h-20.085V1208.7h16.3Z" transform="translate(-976.184 2663.708)" fill="#fff" opacity="0.4"/><g transform="translate(450.294 3890.966)"><g transform="translate(9.584 1.194)"><path d="M1503.314,1292.288a1.945,1.945,0,0,0,1.42,1.631,2.362,2.362,0,0,0-1.458-1.846C1503.294,1292.171,1503.307,1292.245,1503.314,1292.288Z" transform="translate(-1503.276 -1292.073)"/></g><path d="M1463.663,1287.842c.127.342,1.035,1.771,1.636,2.717.466.733.732,1.154.8,1.287a2.345,2.345,0,0,0,1.005.979,32.114,32.114,0,0,0,3.334.585.231.231,0,0,0,.185-.038.4.4,0,0,0,.051-.273c-.01-.107-.2-1.265-.814-4.927h-.039a4.2,4.2,0,0,0-2.486-1.137h-4.51A1.321,1.321,0,0,1,1463.663,1287.842Z" transform="translate(-1462.819 -1287.034)"/></g><g transform="translate(442.026 3875.264)"><path d="M1428.391,1223.825a.588.588,0,0,0,.589-.588v-1.894a.588.588,0,0,0-.589-.588h-.47c.012.908.033,1.951.061,3.069Z" transform="translate(-1427.921 -1220.755)"/></g><g transform="translate(442.479 3887.544)"><path d="M1439.714,1277.771c.468-2.859-1.829-5.184-5.122-5.184a7.468,7.468,0,0,0-4.76,1.754c.012.257.024.507.035.743a.83.83,0,0,0,.119.391,6.106,6.106,0,0,1,4.454-1.968c2.492,0,4.286,1.621,4.257,3.712.2.349.5.846.817,1.344A4.932,4.932,0,0,0,1439.714,1277.771Z" transform="translate(-1429.832 -1272.587)"/></g><path d="M1413.9,1232.078s.141-10.795,0-16.963-.461-19.754-.478-20.989,1.261-3.317,4.787-3.317h1.809l.121-.055h-8.05v41.326h2.5v0Z" transform="translate(-973.816 2677.402)" fill="#d4d5d5"/><path d="M1030.752,1373.211h-.009l-2.313-8.888-.643-.034H1008.95c-1.453,0-1.818-2.073-1.819-2.078h-3.554v.161h.32v2H889.82l-.137,9.982h2.083v5.285h29.268v-.657h32.405v.657h39.2v-.657h23.586l15.552-4.208A5.83,5.83,0,0,1,1030.752,1373.211Z" transform="translate(-575.173 2546.566)" fill="#1a1311"/><path d="M1114.369,1373.708c-1.269,0-1.024.045-.169.045-.927,0-1.825,1.066-2.363,2.412h-.017a19.137,19.137,0,0,0-1.16,5.212.653.653,0,0,1-.687.658h7.24s.434.014.434-.658C1117.647,1380.212,1116.465,1373.708,1114.369,1373.708Z" transform="translate(-743.273 2537.792)" fill="#302d2c"/><g transform="translate(354.155 3927.517)"><path d="M1081.312,1441.313h-2.228c.575,2.629,1.57,4.367,2.7,4.367a1.541,1.541,0,0,0,1.114-.6A8.606,8.606,0,0,1,1081.312,1441.313Z" transform="translate(-1073.857 -1441.313)" fill="#302d2c"/><g transform="translate(0 0)"><path d="M1062.249,1441.313h-5.227c.576,2.629,1.571,4.367,2.7,4.367h5.226C1063.819,1445.68,1062.824,1443.942,1062.249,1441.313Z" transform="translate(-1057.022 -1441.313)" fill="#1a1311"/></g></g><g transform="translate(361.61 3912.653)"><path d="M1112.122,1378.571a1.122,1.122,0,0,0-.3.043,6.183,6.183,0,0,0-.674,1.262h-.017a19.137,19.137,0,0,0-1.16,5.212.623.623,0,0,1-.163.453l-.739,5.745c.433,3.789,1.635,6.516,3.053,6.516,1.78,0,3.224-4.3,3.224-9.615S1113.9,1378.571,1112.122,1378.571Z" transform="translate(-1104.193 -1378.571)" fill="#474645"/><g transform="translate(0 12.716)"><path d="M1093.364,1432.243l-.276,2.149h-4.6c.576,2.629,1.571,4.367,2.7,4.367h5.226C1095,1438.759,1093.8,1436.032,1093.364,1432.243Z" transform="translate(-1088.488 -1432.243)" fill="#1a1311"/></g><path d="M1118.833,1399.7c0,3.337-.822,6.042-1.837,6.042s-1.838-2.705-1.838-6.042.823-6.043,1.838-6.043S1118.833,1396.359,1118.833,1399.7Z" transform="translate(-1108.84 -1390.08)" fill="#ebebeb"/><path d="M1117.63,1408.043c-1.066,0-1.641-2.578-1.641-5s.575-5.005,1.641-5.005,1.641,2.579,1.641,5.005S1118.7,1408.043,1117.63,1408.043Zm0-9.668c-.615,0-1.3,1.916-1.3,4.664s.685,4.663,1.3,4.663,1.3-1.915,1.3-4.663S1118.245,1398.375,1117.63,1398.375Z" transform="translate(-1109.474 -1393.423)" fill="#1a1311"/><path d="M1121.855,1414.124c0,.864-.213,1.563-.475,1.563s-.477-.7-.477-1.563.214-1.564.477-1.564S1121.855,1413.26,1121.855,1414.124Z" transform="translate(-1113.223 -1404.507)" fill="#1a1311"/></g><g transform="translate(320.959 3927.517)"><path d="M941.246,1441.313h-2.278c.575,2.629,1.57,4.367,2.7,4.367a1.562,1.562,0,0,0,1.14-.621A8.71,8.71,0,0,1,941.246,1441.313Z" transform="translate(-933.741 -1441.313)" fill="#1a1311"/><path d="M922.131,1441.313H916.9c.576,2.629,1.571,4.367,2.7,4.367h5.227C923.7,1445.68,922.707,1443.942,922.131,1441.313Z" transform="translate(-916.904 -1441.313)" fill="#302d2c"/></g><g transform="translate(328.464 3921.893)"><path d="M972.064,1421.839v-4.266h-3.621c0,.125,0,.25,0,.376,0,5.311,1.443,9.615,3.225,9.615,1.316,0,2.448-2.354,2.948-5.725Z" transform="translate(-963.735 -1417.573)" fill="#1a1311"/><path d="M953.288,1417.949c0-.126,0-.251,0-.376h-1.333l-.723,5.625h-2.651c.576,2.629,1.571,4.367,2.7,4.367h5.226C954.731,1427.565,953.288,1423.26,953.288,1417.949Z" transform="translate(-948.584 -1417.573)" fill="#302d2c"/></g><g transform="translate(356.667 3911.546)"><path d="M1067.624,1383.888v5.453h4.222v.463h5.614a.653.653,0,0,0,.687-.658,19.107,19.107,0,0,1,1.177-5.257Z" transform="translate(-1067.624 -1381.522)" fill="#302d2c"/><path d="M1067.624,1373.908v2.4h11.7c.538-1.345,1.435-2.412,2.363-2.412Z" transform="translate(-1067.624 -1373.899)" fill="#1a1311"/></g><path d="M909.888,1381.938v-.192h-4.222v-3.162h.149a1.135,1.135,0,0,0,1.133-1.1v-1.807a1.134,1.134,0,0,0-1.133-1.089h-.149v-.657H866.609v.657H856.258a1.135,1.135,0,0,0-1.133,1.1v1.806a1.133,1.133,0,0,0,1.133,1.089h10.351v3.162h-5.088a.29.29,0,0,0-.318.248v2.048c0,.2.46.232.289.232h5.482l-.723,5.624h13.666l.723-5.624h21.427l-.723,5.624h13.666l1.023-7.96Z" transform="translate(-548.802 2537.62)"/><g transform="translate(441.634 3912.653)"><path d="M1454.781,1388.187c0,5.311-1.443,9.615-3.224,9.615s-3.225-4.3-3.225-9.615,1.443-9.616,3.225-9.616S1454.781,1382.877,1454.781,1388.187Z" transform="translate(-1443.104 -1378.571)" fill="#474645"/><path d="M1429.493,1378.571c-1.782,0-3.227,4.306-3.227,9.616s1.445,9.615,3.227,9.615h5.226c-1.782,0-3.225-4.3-3.225-9.615s1.443-9.616,3.225-9.616Z" transform="translate(-1426.266 -1378.571)" fill="#1a1311"/><path d="M1458.821,1399.7c0,3.337-.822,6.042-1.837,6.042s-1.838-2.705-1.838-6.042.823-6.043,1.838-6.043S1458.821,1396.359,1458.821,1399.7Z" transform="translate(-1448.304 -1390.08)" fill="#ebebeb"/><path d="M1457.619,1408.043c-1.066,0-1.641-2.578-1.641-5s.575-5.005,1.641-5.005,1.641,2.579,1.641,5.005S1458.684,1408.043,1457.619,1408.043Zm0-9.668c-.615,0-1.3,1.916-1.3,4.664s.685,4.663,1.3,4.663,1.3-1.915,1.3-4.663S1458.234,1398.375,1457.619,1398.375Z" transform="translate(-1448.939 -1393.423)" fill="#1a1311"/><path d="M1461.846,1414.124c0,.864-.213,1.563-.476,1.563s-.476-.7-.476-1.563.213-1.564.476-1.564S1461.846,1413.26,1461.846,1414.124Z" transform="translate(-1452.69 -1404.507)" fill="#1a1311"/></g><path d="M1511.082,1258.467h-3.257a1.472,1.472,0,0,0-1.473,1.472v6.486a1.467,1.467,0,0,0,.21.755h-3.905a.29.29,0,0,0,0,.58h4.55a1.466,1.466,0,0,0,.618.137h3.257a1.472,1.472,0,0,0,1.472-1.472v-6.486A1.472,1.472,0,0,0,1511.082,1258.467Z" transform="translate(-1042.706 2625.731)"/><path d="M2.172,0h0A2.171,2.171,0,0,1,4.343,2.171V6.294a2.17,2.17,0,0,1-2.17,2.17h0A2.172,2.172,0,0,1,0,6.292V2.172A2.172,2.172,0,0,1,2.172,0Z" transform="translate(464.328 3884.682)" fill="#fff"/><rect width="71.724" height="74.9" transform="translate(301.936 3836.069)" fill="#d4d5d5"/><rect width="69.512" height="68.438" transform="translate(304.147 3840.263)" fill="#5f5e5e"/><rect width="2.212" height="68.438" transform="translate(301.936 3840.263)" fill="#d4d5d5"/><rect width="1.106" height="69.026" transform="translate(299.709 3840.121)" fill="#d4d5d5"/><rect width="69.342" height="2.08" transform="translate(304.317 3908.89)" fill="#bdbebf"/><rect width="71.992" height="4.194" transform="translate(301.668 3836.069)" fill="#bdbebf"/><rect width="4.066" height="1.736" transform="translate(303.815 3837.922)" fill="#f38200"/><rect width="0.611" height="1.736" transform="translate(307.881 3837.922)" fill="#e85400"/><rect width="4.066" height="1.736" transform="translate(366.229 3837.922)" fill="#f38200"/><rect width="0.61" height="1.736" transform="translate(370.294 3837.922)" fill="#e85400"/><path d="M1416.74,1365.216h-15.577s.22,1.988,1.1,1.988h16.128C1418.386,1367.189,1417.789,1365.313,1416.74,1365.216Z" transform="translate(-965.477 2544.273)" fill="#302d2c"/><rect width="64.814" height="2.08" transform="translate(373.66 3908.89)" fill="#767676"/><path d="M1141.428,1059.508H1139.4v-4.194h64.8v4.194h-62.772Z" transform="translate(-765.729 2780.755)" fill="#6c6c6c"/><path d="M1487.491,1409.489h-6.084s.667,2.644,2.113,2.644h4.428v-.254A10.145,10.145,0,0,1,1487.491,1409.489Z" transform="translate(-1026.711 2510.489)" fill="#302d2c"/><path d="M1438.717,1240.208a27.952,27.952,0,0,1,.465-3.094h1.5l-.3-19.023-.175-.789a.242.242,0,0,1-.06.012h-.476a2.384,2.384,0,0,1-2.15-2.08c-.1-.566-1.112-6.132-2.009-11.042-.738-4.039-1.435-7.854-1.49-8.184a1.4,1.4,0,0,1,.323-1.139,1.666,1.666,0,0,1,1.28-.574h.038c-1.325-2.4-4.758-3.31-5.858-3.31h-7.3c-3.527,0-4.8,2.082-4.787,3.317s.338,14.821.478,20.989,0,16.963,0,16.963h11.093c1.106,0,1.734,2,1.734,2l1.786,8.534h6.084C1438.805,1241.961,1438.743,1241.047,1438.717,1240.208Zm-2.142-19.78a.676.676,0,0,1-.513.2c-.027,0-.055,0-.085,0a31.419,31.419,0,0,1-3.469-.615,2.843,2.843,0,0,1-1.293-1.241c-.052-.11-.414-.68-.763-1.231a28.864,28.864,0,0,1-1.684-2.812.9.9,0,0,0-.867-.56h-6.43a1.432,1.432,0,0,1-1.359-1.328c-.22-4.59-.523-13.156-.5-16.635.011-1.355.631-1.627,1.628-1.627h9.551a2.178,2.178,0,0,1,2,1.668l.205,1.209c2.517,14.789,3.747,22.09,3.761,22.32A.844.844,0,0,1,1436.576,1220.428Z" transform="translate(-978.111 2677.227)" fill="#a6a7a7"/><path d="M1428.376,1226.031a.914.914,0,0,0,.848.841h6.431a1.394,1.394,0,0,1,1.346.893c.127.342,1.036,1.771,1.636,2.716.466.733.732,1.154.8,1.287a2.347,2.347,0,0,0,1.005.979,32.148,32.148,0,0,0,3.334.585.231.231,0,0,0,.184-.038.4.4,0,0,0,.051-.273c-.019-.205-.687-4.238-3.755-22.265l-.206-1.209a1.65,1.65,0,0,0-1.5-1.242H1429c-.787,0-1.109.1-1.117,1.12C1427.853,1212.894,1428.156,1221.446,1428.376,1226.031Z" transform="translate(-985.862 2664.01)" fill="#fff" opacity="0.2"/><path d="M1442.167,1232.2h0c-.027,0-.055,0-.085,0a31.479,31.479,0,0,1-3.47-.615,2.841,2.841,0,0,1-1.292-1.242c-.052-.11-.414-.68-.763-1.231a28.917,28.917,0,0,1-1.684-2.812.9.9,0,0,0-.867-.56h-6.431a1.433,1.433,0,0,1-1.359-1.328c-.22-4.59-.523-13.156-.5-16.635.01-1.355.631-1.627,1.628-1.627h9.551a2.179,2.179,0,0,1,2,1.668l.205,1.209c2.517,14.789,3.747,22.089,3.761,22.32a.846.846,0,0,1-.189.655A.676.676,0,0,1,1442.167,1232.2Zm-14.818-25.541c-.788,0-1.109.1-1.117,1.12-.027,3.47.276,12.022.5,16.607a.914.914,0,0,0,.848.841h6.431a1.394,1.394,0,0,1,1.346.893c.127.342,1.035,1.771,1.636,2.716.466.733.732,1.154.8,1.287a2.345,2.345,0,0,0,1.005.979,32.1,32.1,0,0,0,3.334.585.231.231,0,0,0,.185-.038.4.4,0,0,0,.051-.273c-.02-.205-.687-4.238-3.755-22.265l-.206-1.209a1.65,1.65,0,0,0-1.5-1.242Z" transform="translate(-984.215 2665.658)" fill="#1a1311"/><path d="M1489.9,1206.865l-.175,0a1.156,1.156,0,0,0-.889.392.883.883,0,0,0-.209.723c.055.326.752,4.14,1.489,8.177.9,4.912,1.915,10.48,2.01,11.049a1.867,1.867,0,0,0,1.645,1.654h.418l-.464-2.051s-3.351-18.129-3.746-19.656c-.034-.13-.057-.25-.081-.367Z" transform="translate(-1032.209 2665.164)" fill="#fff" opacity="0.4"/><g transform="translate(455.894 3871.518)"><path d="M1492.6,1227.965h-.476a2.384,2.384,0,0,1-2.15-2.08c-.1-.566-1.112-6.132-2.009-11.042-.738-4.039-1.435-7.854-1.49-8.184a1.4,1.4,0,0,1,.323-1.139,1.665,1.665,0,0,1,1.28-.574l.113,0h.051l.011.512-.175,0a1.155,1.155,0,0,0-.889.392.882.882,0,0,0-.209.724c.055.326.751,4.14,1.489,8.177.9,4.912,1.915,10.48,2.011,11.049a1.866,1.866,0,0,0,1.645,1.654h.476a.256.256,0,0,1,0,.512Z" transform="translate(-1486.456 -1204.942)"/></g><path d="M1508.359,1385.7h-1.545a27.966,27.966,0,0,0-.466,3.094c.071,2.307.419,5.19.856,5.19h.271c1.05,0,2.479-2.518,2.479-5.19C1509.955,1388.148,1508.359,1385.7,1508.359,1385.7Z" transform="translate(-1045.741 2528.645)" fill="#333"/><path d="M1435.056,1313.743a.465.465,0,0,1-.457.473h-2.139a.465.465,0,0,1-.458-.473v-1.417a.465.465,0,0,1,.458-.472h2.139a.465.465,0,0,1,.457.472Z" transform="translate(-989.01 2584.993)"/><path d="M1505.206,1316.77h1.719l.071,4.408h-2.163v-3.192S1504.862,1316.77,1505.206,1316.77Z" transform="translate(-1044.586 2581.242)" fill="#e85400"/><path d="M1507,1335.4l.163,10.059h-2.326V1335.4Z" transform="translate(-1044.586 2567.029)" fill="#d4d5d5"/><rect width="50.661" height="6.141" transform="translate(381.993 3919.297)" fill="#bdbebf"/><path d="M1.225,0H14.71a1.223,1.223,0,0,1,1.223,1.223V3.055A1.225,1.225,0,0,1,14.708,4.28H1.226A1.226,1.226,0,0,1,0,3.054V1.225A1.225,1.225,0,0,1,1.225,0Z" transform="translate(324.229 3913.032)" fill="#d9d9d9"/><g transform="translate(306.49 3912.552)"><path d="M855.827,1381.377v1.716c0,.014,0,.028,0,.042v-1.8C855.831,1381.349,855.827,1381.362,855.827,1381.377Z" transform="translate(-855.827 -1380.58)" fill="#e33c0b" stroke="#000" stroke-miterlimit="10" stroke-width="1.44"/><rect width="6.299" height="3.309" transform="translate(3.305 0)" fill="#e12f15"/><path d="M856.565,1380.7a.791.791,0,0,0,.792.755h2v-3.309h-2a.793.793,0,0,0-.792.762Z" transform="translate(-856.39 -1378.148)" fill="#f38200"/><path d="M900.654,1378.945a.8.8,0,0,0-.8-.8h-2.052v3.309h2.052a.8.8,0,0,0,.8-.8Z" transform="translate(-887.861 -1378.148)" fill="#f6f6f6"/></g><g transform="translate(345.188 3912.552)"><rect width="6.299" height="3.309" transform="translate(3.189 0)" fill="#e12f15"/><path d="M1063.448,1378.9a.792.792,0,0,0-.792-.755h-2v3.309h2a.793.793,0,0,0,.792-.762Z" transform="translate(-1050.829 -1378.148)" fill="#f38200"/><g transform="translate(0 0)"><path d="M1019.171,1380.661a.8.8,0,0,0,.8.8h2.051v-3.309h-2.051a.8.8,0,0,0-.8.8Z" transform="translate(-1019.171 -1378.148)" fill="#f6f6f6"/></g></g><g transform="translate(300.314 3846.96)"><rect width="2.485" height="5.754" transform="translate(0 0.207)" fill="#ebebeb"/><path d="M832.259,1102.159h-.011v5.754h-.7v0c0-.112-.2-.2-.454-.2s-.455.091-.455.2v0h-.874v.01l.367.323h2.532v-5.87Z" transform="translate(-829.763 -1101.953)" fill="#8e8e8f"/><path d="M833.449,1101.49c0-.112.2-.2.455-.2s.454.091.454.2v5.757c0-.112-.2-.2-.454-.2s-.455.09-.455.2Z" transform="translate(-832.576 -1101.288)" fill="#fff"/></g><rect width="64.857" height="68.627" transform="translate(373.673 3840.263)" fill="#535453"/><g transform="translate(367.489 3881.384)"><rect width="36.057" height="21.082" transform="translate(1.661 1.199)" fill="#868687"/><g transform="translate(1.979 1.477)"><rect width="35.421" height="10.141" fill="#f5f5f5"/><rect width="8.717" height="33.538" transform="translate(34.48 0.712) rotate(90)" fill="#e9e8e8"/><g transform="translate(15.971 3.585)"><ellipse cx="1.739" cy="1.485" rx="1.739" ry="1.485" fill="#bebebd"/><path d="M1190.274,1270.465a.084.084,0,0,1-.084-.059,1.091,1.091,0,0,1-.03-.254,1.388,1.388,0,0,1,1.482-1.265,1.683,1.683,0,0,1,.722.16.068.068,0,0,1,.033.1.094.094,0,0,1-.117.028,1.49,1.49,0,0,0-.638-.141,1.227,1.227,0,0,0-1.31,1.118.953.953,0,0,0,.027.225.075.075,0,0,1-.067.086Z" transform="translate(-1189.902 -1268.667)" fill="#f5f5f5"/><path d="M1192.623,1270.814a1.289,1.289,0,0,1,.109.515,1.627,1.627,0,0,1-1.739,1.485,1.826,1.826,0,0,1-1.458-.677,1.748,1.748,0,0,0,1.63.97,1.627,1.627,0,0,0,1.739-1.485A1.328,1.328,0,0,0,1192.623,1270.814Z" transform="translate(-1189.426 -1270.137)" fill="#868687"/></g><g transform="translate(0 10.385)"><rect width="35.421" height="10.141" fill="#f5f5f5"/><rect width="8.717" height="33.538" transform="translate(34.48 0.712) rotate(90)" fill="#e9e8e8"/><g transform="translate(15.971 3.585)"><ellipse cx="1.739" cy="1.485" rx="1.739" ry="1.485" fill="#bebebd"/><path d="M1190.274,1314.3a.084.084,0,0,1-.084-.058,1.092,1.092,0,0,1-.03-.255,1.388,1.388,0,0,1,1.482-1.265,1.685,1.685,0,0,1,.722.161.068.068,0,0,1,.033.1.094.094,0,0,1-.117.028,1.487,1.487,0,0,0-.638-.142,1.227,1.227,0,0,0-1.31,1.118.952.952,0,0,0,.027.225.075.075,0,0,1-.067.087Z" transform="translate(-1189.902 -1312.499)" fill="#f5f5f5"/><path d="M1192.623,1314.647a1.288,1.288,0,0,1,.109.515,1.627,1.627,0,0,1-1.739,1.485,1.826,1.826,0,0,1-1.458-.677,1.748,1.748,0,0,0,1.63.97,1.627,1.627,0,0,0,1.739-1.485A1.327,1.327,0,0,0,1192.623,1314.647Z" transform="translate(-1189.426 -1313.97)" fill="#868687"/></g></g></g><rect width="39.38" height="1.199" transform="translate(0 0)" fill="#f5f5f5"/><rect width="39.38" height="1.199" transform="translate(0 22.281)" fill="#f5f5f5"/><rect width="1.201" height="21.082" transform="translate(0.46 1.199)" fill="#e9e8e8"/><rect width="1.201" height="21.082" transform="translate(37.718 1.199)" fill="#e9e8e8"/><g transform="translate(0.46 23.48)"><rect width="3.44" height="0.894" fill="#868687"/><path d="M1119.866,1349.469v1.585a1.188,1.188,0,0,1-1.27,1.084h-1.111v-2.669Z" transform="translate(-1116.955 -1348.575)" fill="#bebebd"/></g><g transform="translate(35.479 23.48)"><rect width="3.44" height="0.894" fill="#868687"/><path d="M1267.673,1349.469v2.669h-1.11a1.189,1.189,0,0,1-1.27-1.084v-1.585Z" transform="translate(-1264.764 -1348.575)" fill="#bebebd"/></g><rect width="7.032" height="1.199" transform="translate(46.412 1.199) rotate(180)" fill="#bebebd"/><rect width="7.032" height="1.199" transform="translate(46.412 23.48) rotate(180)" fill="#bebebd"/><rect width="6.551" height="21.082" transform="translate(45.471 22.281) rotate(180)" fill="#868687"/><g transform="translate(7.011 23.48)"><rect width="3.44" height="0.894" fill="#868687"/><path d="M1147.521,1349.469v1.585a1.188,1.188,0,0,1-1.27,1.084h-1.11v-2.669Z" transform="translate(-1144.61 -1348.575)" fill="#bebebd"/></g><g transform="translate(42.03 23.48)"><rect width="3.44" height="0.894" fill="#868687"/><path d="M1295.327,1349.469v2.669h-1.111a1.188,1.188,0,0,1-1.27-1.084v-1.585Z" transform="translate(-1292.418 -1348.575)" fill="#bebebd"/></g><rect width="45.011" height="0.278" transform="translate(0.46 1.199)" fill="#5b5b5a" opacity="0.48" style="mix-blend-mode:multiply;isolation:isolate"/><rect width="2.38" height="0.278" transform="translate(0.99 24.374)" fill="#5b5b5a" style="mix-blend-mode:multiply;isolation:isolate"/><rect width="2.38" height="0.278" transform="translate(7.542 24.374)" fill="#5b5b5a" style="mix-blend-mode:multiply;isolation:isolate"/><rect width="2.38" height="0.278" transform="translate(36.008 24.374)" fill="#5b5b5a" style="mix-blend-mode:multiply;isolation:isolate"/><rect width="2.38" height="0.278" transform="translate(42.559 24.374)" fill="#5b5b5a" style="mix-blend-mode:multiply;isolation:isolate"/></g><g transform="translate(309.631 3855.867)"><rect width="33.522" height="50.632" transform="translate(47.099 52.748) rotate(180)" fill="#b56635"/><rect width="20.492" height="18.771" transform="translate(14.751 51.745) rotate(-90)" fill="#5e2e1d"/><rect width="12.403" height="8.262" transform="translate(33.522 43.483)" fill="#3b1a11"/><rect width="31.695" height="2.116" transform="translate(46.186 2.116) rotate(180)" fill="#5e2e1d"/><rect width="6.115" height="31.174" transform="translate(14.751 37.368) rotate(-90)" fill="#c78660"/><rect width="3.934" height="28.62" transform="translate(16.028 36.278) rotate(-90)" fill="#f6e6d7"/><rect width="13.577" height="50.632" transform="translate(0 2.116)" fill="#3b1a11"/><rect width="13.577" height="2.116" transform="translate(0.913 0)" fill="#3b1a11"/><rect width="6.115" height="31.174" transform="translate(14.751 43.483) rotate(-90)" fill="#c78660"/><rect width="3.934" height="28.62" transform="translate(16.028 42.393) rotate(-90)" fill="#f6e6d7"/><g transform="translate(29.074 39.321)"><ellipse cx="1.293" cy="1.104" rx="1.293" ry="1.104" transform="translate(0 0)" fill="#3b1a11"/><path d="M996.451,1308.533a.062.062,0,0,1,.063.044.828.828,0,0,1,.022.189,1.032,1.032,0,0,1-1.1.94,1.252,1.252,0,0,1-.536-.119.05.05,0,0,1-.024-.074.07.07,0,0,1,.087-.021,1.1,1.1,0,0,0,.474.105.912.912,0,0,0,.974-.831.722.722,0,0,0-.02-.167.056.056,0,0,1,.049-.065Z" transform="translate(-994.141 -1307.662)" fill="#c78660"/><path d="M992.019,1306.561a.956.956,0,0,1-.081-.383,1.21,1.21,0,0,1,1.293-1.1,1.358,1.358,0,0,1,1.084.5,1.3,1.3,0,0,0-1.211-.721,1.21,1.21,0,0,0-1.293,1.1A.987.987,0,0,0,992.019,1306.561Z" transform="translate(-991.81 -1304.856)" fill="#0e0808"/></g><g transform="translate(29.074 33.13)"><ellipse cx="1.293" cy="1.104" rx="1.293" ry="1.104" fill="#3b1a11"/><path d="M996.6,1281.936a.064.064,0,0,1,.06.037.812.812,0,0,1,.06.306,1.032,1.032,0,0,1-1.1.941,1.245,1.245,0,0,1-.475-.092.051.051,0,0,1-.03-.073.069.069,0,0,1,.085-.026,1.1,1.1,0,0,0,.42.081.912.912,0,0,0,.974-.831.724.724,0,0,0-.053-.271.053.053,0,0,1,.039-.069Z" transform="translate(-994.327 -1281.175)" fill="#c78660"/><path d="M992.019,1280.429a.958.958,0,0,1-.081-.383,1.21,1.21,0,0,1,1.293-1.1,1.358,1.358,0,0,1,1.084.5,1.3,1.3,0,0,0-1.211-.721,1.209,1.209,0,0,0-1.293,1.1A.987.987,0,0,0,992.019,1280.429Z" transform="translate(-991.81 -1278.724)" fill="#0e0808"/></g><rect width="31.174" height="0.157" transform="translate(45.925 37.447) rotate(180)" fill="#3b1a11"/><rect width="26.662" height="15.047" transform="translate(14.751 30.062) rotate(-90)" fill="#c78660"/><rect width="25.31" height="13.528" transform="translate(15.546 29.391) rotate(-90)" fill="#f6e6d7"/><g transform="translate(25.309 15.968)"><ellipse cx="1.293" cy="1.104" rx="1.293" ry="1.104" transform="translate(0)" fill="#3b1a11"/><path d="M980.708,1209.5a.063.063,0,0,1,.06.037.81.81,0,0,1,.06.306,1.031,1.031,0,0,1-1.1.94,1.249,1.249,0,0,1-.475-.092.051.051,0,0,1-.03-.073.068.068,0,0,1,.085-.026,1.1,1.1,0,0,0,.42.081.912.912,0,0,0,.974-.831.716.716,0,0,0-.053-.271.053.053,0,0,1,.04-.069Z" transform="translate(-978.434 -1208.735)" fill="#c78660"/><path d="M976.125,1207.989a.958.958,0,0,1-.081-.383,1.21,1.21,0,0,1,1.293-1.1,1.358,1.358,0,0,1,1.084.5,1.3,1.3,0,0,0-1.212-.721,1.21,1.21,0,0,0-1.293,1.1A.987.987,0,0,0,976.125,1207.989Z" transform="translate(-975.916 -1206.284)" fill="#0e0808"/></g><rect width="26.662" height="15.047" transform="translate(30.656 30.062) rotate(-90)" fill="#c78660"/><rect width="25.31" height="13.528" transform="translate(31.38 29.391) rotate(-90)" fill="#f6e6d7"/><g transform="translate(32.559 15.968)"><ellipse cx="1.293" cy="1.104" rx="1.293" ry="1.104" fill="#3b1a11"/><path d="M1007.448,1209.5a.064.064,0,0,0-.06.037.811.811,0,0,0-.06.306,1.031,1.031,0,0,0,1.1.94,1.249,1.249,0,0,0,.475-.092.051.051,0,0,0,.03-.073.068.068,0,0,0-.085-.026,1.1,1.1,0,0,1-.42.081.912.912,0,0,1-.974-.831.719.719,0,0,1,.053-.271.053.053,0,0,0-.039-.069Z" transform="translate(-1007.136 -1208.735)" fill="#c78660"/><path d="M1009.159,1207.989a.956.956,0,0,0,.082-.383,1.21,1.21,0,0,0-1.293-1.1,1.357,1.357,0,0,0-1.084.5,1.3,1.3,0,0,1,1.211-.721,1.21,1.21,0,0,1,1.293,1.1A.987.987,0,0,1,1009.159,1207.989Z" transform="translate(-1006.783 -1206.284)" fill="#0e0808"/></g></g><g transform="translate(375.905 3844.135)"><g transform="translate(0.527 2.659)"><rect width="14.726" height="34.617" transform="translate(35.491 34.617) rotate(180)" fill="#3b1a11"/><rect width="14.726" height="34.617" fill="#b56635"/><rect width="28.862" height="9.578" transform="translate(12.948 2.878) rotate(90)" fill="#f6e6d7"/><g transform="translate(10.867 11.565)"><ellipse cx="0.608" cy="2.008" rx="0.608" ry="2.008" fill="#5e2e1d"/><path d="M1198.6,1150.288a4.576,4.576,0,0,1,.246,1.612c0,1.109-.272,2.008-.608,2.008-.1,0-.189-.077-.27-.211.1.248.226.4.362.4.336,0,.608-.9.608-2.008A3.9,3.9,0,0,0,1198.6,1150.288Z" transform="translate(-1197.717 -1150.077)" fill="#481c10"/></g><g transform="translate(14.677 0)"><rect width="14.726" height="34.617" transform="translate(14.726 34.617) rotate(180)" fill="#b56635"/><rect width="28.862" height="9.577" transform="translate(11.355 2.878) rotate(90)" fill="#f6e6d7"/><g transform="translate(2.642 11.565)"><ellipse cx="0.608" cy="2.008" rx="0.608" ry="2.008" fill="#5e2e1d"/><path d="M1225.83,1150.288a4.573,4.573,0,0,1,.246,1.612c0,1.109-.272,2.008-.608,2.008-.1,0-.189-.077-.27-.211.1.248.226.4.362.4.336,0,.608-.9.608-2.008A3.9,3.9,0,0,0,1225.83,1150.288Z" transform="translate(-1224.951 -1150.077)" fill="#481c10"/></g></g><rect width="0.217" height="34.617" transform="translate(14.617)" fill="#3b1a11"/></g><g transform="translate(0 0)"><path d="M2.138,0H28.368a2.138,2.138,0,0,1,2.138,2.138v0a.521.521,0,0,1-.521.521H.521A.521.521,0,0,1,0,2.138v0A2.138,2.138,0,0,1,2.138,0Z" transform="translate(6.088)" fill="#d5d5d5"/><path d="M2.138,0H28.368a2.138,2.138,0,0,1,2.138,2.138v0a.521.521,0,0,1-.521.521H.521A.521.521,0,0,1,0,2.138v0A2.138,2.138,0,0,1,2.138,0Z" fill="#eff0f1"/></g></g><g transform="translate(362.75 3858.173)"><rect width="11.143" height="8.827" transform="translate(0 0)" fill="#f6e6d7"/><rect width="2.486" height="8.827" transform="translate(8.657 0)" fill="#d2b9a6"/><path d="M1110.525,1215.137c-.006-1.123-1.273-2.032-2.834-2.032s-2.828.909-2.834,2.032Z" transform="translate(-1102.119 -1191.693)" fill="#3b1a11"/><rect width="1.765" height="2.048" transform="translate(4.689 15.798)" fill="#3b1a11"/><path d="M1111.044,1199.409h0a1.683,1.683,0,0,1-1.793-1.531v-1.765a1.683,1.683,0,0,1,1.793-1.531h0a1.683,1.683,0,0,1,1.793,1.531v1.765A1.683,1.683,0,0,1,1111.044,1199.409Z" transform="translate(-1105.472 -1177.558)" fill="#945029"/><rect width="1.033" height="2.022" transform="translate(5.055 8.827)" fill="#3b1a11"/><ellipse cx="1.399" cy="0.937" rx="1.399" ry="0.937" transform="translate(4.173 10.653)" fill="#945029"/><path d="M1112.786,1175.836l-.428,1.826a1.237,1.237,0,0,1-.477.686,2.067,2.067,0,0,1-1.791,0,1.237,1.237,0,0,1-.477-.686l-.428-1.826a.833.833,0,0,1,.457-.808,3.1,3.1,0,0,1,2.686,0A.834.834,0,0,1,1112.786,1175.836Z" transform="translate(-1105.414 -1162.404)" fill="#945029"/><path d="M1118.543,1172.736a1.361,1.361,0,0,0,.68-1.138v-2a1.412,1.412,0,0,0-.91-1.26v-1.227l.013-.005a1.236,1.236,0,0,0,.476-.686l.428-1.826a.834.834,0,0,0-.457-.808,2.958,2.958,0,0,0-.639-.226.948.948,0,0,0,.695-.809c0-.4-.366-.733-.883-.87v-1.892h-.327v1.834a1.086,1.086,0,0,1,.882.928.948.948,0,0,1-.694.809,2.954,2.954,0,0,1,.638.226.834.834,0,0,1,.457.808l-.428,1.826a1.593,1.593,0,0,1-.489.815s0-.126,0-.123v1.119a1.561,1.561,0,0,1,.911,1.367v2a1.481,1.481,0,0,1-.583,1.26c1.008.31,1.62.908,1.624,1.747h.327A2.155,2.155,0,0,0,1118.543,1172.736Z" transform="translate(-1111.859 -1151.161)" fill="#945029" opacity="0.44" style="mix-blend-mode:multiply;isolation:isolate"/></g><g transform="translate(387.805 3876.49)"><rect width="19.569" height="8.921" transform="translate(0 0)" fill="#5e2e1d"/><rect width="16.792" height="6.231" transform="translate(1.493 1.274)" fill="#f6e6d7"/><g transform="translate(7.422 3.504)"><g transform="translate(0 0.46)"><path d="M1232.082,1245.566a1.47,1.47,0,1,1,1.7-1.452A1.593,1.593,0,0,1,1232.082,1245.566Zm0-2.691a1.255,1.255,0,1,0,1.451,1.239A1.359,1.359,0,0,0,1232.082,1242.875Z" transform="translate(-1230.382 -1242.663)" fill="#20100e"/></g><ellipse cx="0.663" cy="0.566" rx="0.663" ry="0.566" transform="translate(0.995)" fill="#b56635"/><path d="M1236.458,1240.751a.561.561,0,0,1,.345.5.621.621,0,0,1-.663.566.8.8,0,0,1-.1-.007.751.751,0,0,0,.318.069.62.62,0,0,0,.663-.566A.6.6,0,0,0,1236.458,1240.751Z" transform="translate(-1234.7 -1240.744)" fill="#5e2e1d"/></g><rect width="5.183" height="8.921" transform="translate(19.57 0)" fill="#20100e"/><g transform="translate(22.306 8.921)"><rect width="1.493" height="23.223" fill="#b56635"/><rect width="0.954" height="23.223" transform="translate(1.493)" fill="#3b1a11"/></g><g transform="translate(4.229 8.921)"><rect width="1.493" height="23.223" fill="#b56635"/><rect width="0.954" height="23.223" transform="translate(1.493)" fill="#3b1a11"/></g><g transform="translate(0 8.921)"><rect width="1.493" height="23.223" fill="#b56635"/><rect width="0.954" height="23.223" transform="translate(1.493)" fill="#3b1a11"/></g><g transform="translate(18.077 8.921)"><rect width="1.493" height="23.223" fill="#b56635"/><rect width="0.954" height="23.223" transform="translate(1.493)" fill="#3b1a11"/></g><rect width="16.121" height="1.066" transform="translate(1.97 24.751)" fill="#5e2e1d"/><rect width="2.529" height="1.066" transform="translate(20.523 24.751)" fill="#20100e"/></g><g transform="translate(411.445 3847.845)"><rect width="15.176" height="60.964" transform="translate(0 0)" fill="#5e2e1d"/><rect width="4.491" height="60.964" transform="translate(1.023 0)" fill="#3b1a11"/><rect width="5.517" height="60.964" transform="translate(14.269 0)" fill="#3b1a11"/><rect width="14.481" height="1.072" transform="translate(0.32 31.735)" fill="#945029"/><g transform="translate(0.001 0)"><rect width="1.022" height="60.964" fill="#945029"/><rect width="1.022" height="60.964" transform="translate(14.153)" fill="#945029"/></g><g transform="translate(0 41.906)"><rect width="15.176" height="19.058" fill="#aa6d4a"/><g transform="translate(2.588 2.21)"><rect width="14.638" height="10" transform="translate(10 0) rotate(90)" fill="#f6e6d7"/><g transform="translate(8.365 3.845)"><path d="M1345.837,1308.717c0,.7-.171,1.258-.381,1.258s-.381-.563-.381-1.258.171-1.258.381-1.258S1345.837,1308.022,1345.837,1308.717Z" transform="translate(-1345.075 -1307.459)" fill="#5e2e1d"/><path d="M1346.123,1308.016a2.864,2.864,0,0,1,.155,1.01c0,.695-.171,1.258-.381,1.258-.061,0-.118-.048-.169-.132.063.155.141.248.227.248.21,0,.381-.563.381-1.258A2.439,2.439,0,0,0,1346.123,1308.016Z" transform="translate(-1345.573 -1307.884)" fill="#481c10"/></g></g></g><g transform="translate(0 0)"><rect width="15.176" height="19.058" fill="#aa6d4a"/><g transform="translate(2.588 2.21)"><rect width="14.638" height="10" transform="translate(10 0) rotate(90)" fill="#f6e6d7"/><g transform="translate(8.365 9.078)"><ellipse cx="0.381" cy="1.258" rx="0.381" ry="1.258" fill="#5e2e1d"/><path d="M1346.123,1153.222a2.867,2.867,0,0,1,.155,1.01c0,.695-.171,1.258-.381,1.258-.061,0-.118-.049-.169-.132.063.155.141.248.227.248.21,0,.381-.563.381-1.258A2.441,2.441,0,0,0,1346.123,1153.222Z" transform="translate(-1345.573 -1153.09)" fill="#481c10"/></g></g></g></g><g transform="translate(308 3878.728)"><rect width="13.047" height="7.854" transform="translate(3.628 13.132)" fill="#5e2e1d"/><ellipse cx="3.627" cy="3.097" rx="3.627" ry="3.097" transform="translate(57.735 0)" fill="#3b1a11"/><path d="M1049.2,1253.574h-19.471l4.39-18.2h17.008a1.809,1.809,0,0,1,1.967,2.06Z" transform="translate(-990.043 -1235.374)" fill="#3b1a11"/><path d="M924.336,1256.454h41.306c-.3-4.525,1.072-11.165,2.908-17.458a6.991,6.991,0,0,1,2.153-3.621H931.42a3.488,3.488,0,0,0-3.432,2.789Z" transform="translate(-909.616 -1235.375)" fill="#914822"/><path d="M1012.659,1235.375a30.591,30.591,0,0,1,19.516,21.079h.866c-.3-4.525,1.073-11.165,2.908-17.458a6.989,6.989,0,0,1,2.152-3.621Z" transform="translate(-977.014 -1235.375)" fill="#ab5b30"/><path d="M1085.147,1303.615h-10.3l2.032-12.812h10.545v10.868A2.129,2.129,0,0,1,1085.147,1303.615Z" transform="translate(-1024.468 -1277.672)" fill="#5e2e1d"/><path d="M1074.844,1323.567h10.3a2.129,2.129,0,0,0,2.275-1.943v-4.674h-11.061Z" transform="translate(-1024.467 -1297.623)" fill="#3b1a11"/><rect width="2.308" height="3.713" transform="translate(5.739 25.943)" fill="#b56635"/><rect width="2.308" height="3.713" transform="translate(15.071 25.943)" fill="#b56635"/><g transform="translate(16.675 2.957)"><g transform="translate(3.114)"><path d="M953.364,1247.856l-.062,1.584.062,1.584.062-1.584Z" transform="translate(-951.509 -1247.856)" fill="#48261a"/><path d="M949.444,1254.371l-1.855.053-1.855-.053,1.855-.053Z" transform="translate(-945.734 -1252.787)" fill="#48261a"/><ellipse cx="0.173" cy="0.148" rx="0.173" ry="0.148" transform="translate(1.682 1.436)" fill="#3b1a11"/><g transform="translate(5.42)"><path d="M976.241,1247.856l-.062,1.584.062,1.584.062-1.584Z" transform="translate(-974.386 -1247.856)" fill="#48261a"/><path d="M972.321,1254.371l-1.855.053-1.855-.053,1.855-.053Z" transform="translate(-968.611 -1252.787)" fill="#48261a"/><ellipse cx="0.173" cy="0.148" rx="0.173" ry="0.148" transform="translate(1.682 1.436)" fill="#3b1a11"/></g><g transform="translate(10.84)"><path d="M999.118,1247.856l-.062,1.584.062,1.584.062-1.584Z" transform="translate(-997.263 -1247.856)" fill="#48261a"/><path d="M995.2,1254.371l-1.855.053-1.855-.053,1.855-.053Z" transform="translate(-991.488 -1252.787)" fill="#48261a"/><ellipse cx="0.173" cy="0.148" rx="0.173" ry="0.148" transform="translate(1.682 1.436)" fill="#3b1a11"/></g><g transform="translate(16.26)"><path d="M1022,1247.856l-.062,1.584.062,1.584.062-1.584Z" transform="translate(-1020.14 -1247.856)" fill="#48261a"/><path d="M1018.075,1254.371l-1.855.053-1.855-.053,1.855-.053Z" transform="translate(-1014.365 -1252.787)" fill="#48261a"/><ellipse cx="0.173" cy="0.148" rx="0.173" ry="0.148" transform="translate(1.682 1.436)" fill="#3b1a11"/></g><g transform="translate(21.679)"><path d="M1044.872,1247.856l-.062,1.584.062,1.584.062-1.584Z" transform="translate(-1043.017 -1247.856)" fill="#48261a"/><path d="M1040.952,1254.371l-1.855.053-1.855-.053,1.855-.053Z" transform="translate(-1037.242 -1252.787)" fill="#48261a"/><ellipse cx="0.173" cy="0.148" rx="0.173" ry="0.148" transform="translate(1.682 1.436)" fill="#3b1a11"/></g><g transform="translate(27.099)"><path d="M1067.749,1247.856l-.062,1.584.062,1.584.062-1.584Z" transform="translate(-1065.895 -1247.856)" fill="#48261a"/><path d="M1063.829,1254.371l-1.855.053-1.855-.053,1.855-.053Z" transform="translate(-1060.119 -1252.787)" fill="#48261a"/><ellipse cx="0.173" cy="0.148" rx="0.173" ry="0.148" transform="translate(1.682 1.436)" fill="#3b1a11"/></g><g transform="translate(32.519)"><path d="M1090.626,1247.856l-.062,1.584.062,1.584.062-1.584Z" transform="translate(-1088.771 -1247.856)" fill="#48261a"/><path d="M1086.706,1254.371l-1.855.053-1.855-.053,1.855-.053Z" transform="translate(-1082.996 -1252.787)" fill="#48261a"/><ellipse cx="0.173" cy="0.148" rx="0.173" ry="0.148" transform="translate(1.682 1.436)" fill="#3b1a11"/></g></g><g transform="translate(0 9.665)"><path d="M940.219,1288.653l-.062,1.584.062,1.584.062-1.584Z" transform="translate(-938.363 -1288.653)" fill="#48261a"/><path d="M936.3,1295.168l-1.855.053-1.855-.053,1.855-.053Z" transform="translate(-932.588 -1293.584)" fill="#48261a"/><path d="M940.033,1294.862a.175.175,0,1,1-.173-.148A.162.162,0,0,1,940.033,1294.862Z" transform="translate(-938.005 -1293.278)" fill="#3b1a11"/><g transform="translate(5.42)"><path d="M963.1,1288.653l-.062,1.584.062,1.584.062-1.584Z" transform="translate(-961.241 -1288.653)" fill="#48261a"/><path d="M959.175,1295.168l-1.855.053-1.855-.053,1.855-.053Z" transform="translate(-955.465 -1293.584)" fill="#48261a"/><path d="M962.91,1294.862a.175.175,0,1,1-.173-.148A.162.162,0,0,1,962.91,1294.862Z" transform="translate(-960.882 -1293.278)" fill="#3b1a11"/></g><g transform="translate(10.84)"><path d="M985.972,1288.653l-.062,1.584.062,1.584.062-1.584Z" transform="translate(-984.117 -1288.653)" fill="#48261a"/><path d="M982.052,1295.168l-1.855.053-1.855-.053,1.855-.053Z" transform="translate(-978.342 -1293.584)" fill="#48261a"/><path d="M985.787,1294.862a.175.175,0,1,1-.173-.148A.162.162,0,0,1,985.787,1294.862Z" transform="translate(-983.759 -1293.278)" fill="#3b1a11"/></g><g transform="translate(16.26)"><path d="M1008.85,1288.653l-.062,1.584.062,1.584.062-1.584Z" transform="translate(-1006.994 -1288.653)" fill="#48261a"/><path d="M1004.929,1295.168l-1.855.053-1.855-.053,1.855-.053Z" transform="translate(-1001.219 -1293.584)" fill="#48261a"/><path d="M1008.664,1294.862a.175.175,0,1,1-.173-.148A.162.162,0,0,1,1008.664,1294.862Z" transform="translate(-1006.636 -1293.278)" fill="#3b1a11"/></g><g transform="translate(21.679)"><path d="M1031.727,1288.653l-.062,1.584.062,1.584.062-1.584Z" transform="translate(-1029.871 -1288.653)" fill="#48261a"/><path d="M1027.806,1295.168l-1.855.053-1.855-.053,1.855-.053Z" transform="translate(-1024.096 -1293.584)" fill="#48261a"/><path d="M1031.541,1294.862a.175.175,0,1,1-.173-.148A.162.162,0,0,1,1031.541,1294.862Z" transform="translate(-1029.513 -1293.278)" fill="#3b1a11"/></g><g transform="translate(27.099)"><path d="M1054.6,1288.653l-.062,1.584.062,1.584.062-1.584Z" transform="translate(-1052.749 -1288.653)" fill="#48261a"/><path d="M1050.683,1295.168l-1.855.053-1.855-.053,1.855-.053Z" transform="translate(-1046.973 -1293.584)" fill="#48261a"/><path d="M1054.418,1294.862a.175.175,0,1,1-.173-.148A.162.162,0,0,1,1054.418,1294.862Z" transform="translate(-1052.39 -1293.278)" fill="#3b1a11"/></g><g transform="translate(32.519)"><path d="M1077.48,1288.653l-.062,1.584.062,1.584.062-1.584Z" transform="translate(-1075.626 -1288.653)" fill="#48261a"/><path d="M1073.56,1295.168l-1.855.053-1.855-.053,1.855-.053Z" transform="translate(-1069.85 -1293.584)" fill="#48261a"/><path d="M1077.3,1294.862a.175.175,0,1,1-.173-.148A.162.162,0,0,1,1077.3,1294.862Z" transform="translate(-1075.267 -1293.278)" fill="#3b1a11"/></g></g><g transform="translate(1.259 4.833)"><path d="M945.535,1268.254l-.062,1.584.062,1.584.062-1.584Z" transform="translate(-943.68 -1268.254)" fill="#48261a"/><path d="M941.614,1274.77l-1.855.053-1.855-.053,1.855-.053Z" transform="translate(-937.904 -1273.185)" fill="#48261a"/><path d="M945.349,1274.464a.175.175,0,1,1-.173-.148A.162.162,0,0,1,945.349,1274.464Z" transform="translate(-943.321 -1272.88)" fill="#3b1a11"/><g transform="translate(5.42)"><path d="M968.411,1268.254l-.062,1.584.062,1.584.062-1.584Z" transform="translate(-966.556 -1268.254)" fill="#48261a"/><path d="M964.491,1274.77l-1.855.053-1.855-.053,1.855-.053Z" transform="translate(-960.781 -1273.185)" fill="#48261a"/><path d="M968.226,1274.464a.175.175,0,1,1-.173-.148A.162.162,0,0,1,968.226,1274.464Z" transform="translate(-966.198 -1272.88)" fill="#3b1a11"/></g><g transform="translate(10.84)"><path d="M991.289,1268.254l-.062,1.584.062,1.584.062-1.584Z" transform="translate(-989.434 -1268.254)" fill="#48261a"/><path d="M987.368,1274.77l-1.855.053-1.855-.053,1.855-.053Z" transform="translate(-983.658 -1273.185)" fill="#48261a"/><path d="M991.1,1274.464a.175.175,0,1,1-.173-.148A.162.162,0,0,1,991.1,1274.464Z" transform="translate(-989.075 -1272.88)" fill="#3b1a11"/></g><g transform="translate(16.26)"><path d="M1014.166,1268.254l-.062,1.584.062,1.584.062-1.584Z" transform="translate(-1012.311 -1268.254)" fill="#48261a"/><path d="M1010.245,1274.77l-1.855.053-1.855-.053,1.855-.053Z" transform="translate(-1006.535 -1273.185)" fill="#48261a"/><path d="M1013.98,1274.464a.175.175,0,1,1-.173-.148A.162.162,0,0,1,1013.98,1274.464Z" transform="translate(-1011.952 -1272.88)" fill="#3b1a11"/></g><g transform="translate(21.679)"><path d="M1037.042,1268.254l-.062,1.584.062,1.584.062-1.584Z" transform="translate(-1035.188 -1268.254)" fill="#48261a"/><path d="M1033.122,1274.77l-1.855.053-1.855-.053,1.855-.053Z" transform="translate(-1029.412 -1273.185)" fill="#48261a"/><path d="M1036.857,1274.464a.175.175,0,1,1-.173-.148A.162.162,0,0,1,1036.857,1274.464Z" transform="translate(-1034.829 -1272.88)" fill="#3b1a11"/></g><g transform="translate(27.099)"><path d="M1059.92,1268.254l-.062,1.584.062,1.584.062-1.584Z" transform="translate(-1058.065 -1268.254)" fill="#48261a"/><path d="M1056,1274.77l-1.855.053-1.855-.053,1.855-.053Z" transform="translate(-1052.289 -1273.185)" fill="#48261a"/><path d="M1059.734,1274.464a.175.175,0,1,1-.173-.148A.162.162,0,0,1,1059.734,1274.464Z" transform="translate(-1057.706 -1272.88)" fill="#3b1a11"/></g><g transform="translate(32.519)"><path d="M1082.8,1268.254l-.062,1.584.062,1.584.062-1.584Z" transform="translate(-1080.941 -1268.254)" fill="#48261a"/><path d="M1078.876,1274.77l-1.855.053-1.855-.053,1.855-.053Z" transform="translate(-1075.166 -1273.185)" fill="#48261a"/><path d="M1082.611,1274.464a.175.175,0,1,1-.173-.148A.162.162,0,0,1,1082.611,1274.464Z" transform="translate(-1080.583 -1272.88)" fill="#3b1a11"/></g></g></g><ellipse cx="3.627" cy="3.097" rx="3.627" ry="3.097" transform="translate(0 13.132)" fill="#945029"/><ellipse cx="3.627" cy="3.097" rx="3.627" ry="3.097" transform="translate(49.012 13.132)" fill="#945029"/><ellipse cx="3.627" cy="3.097" rx="3.627" ry="3.097" transform="translate(59.328 13.132)" fill="#5e2e1d"/><g transform="translate(15.283 8.729)"><path d="M926.954,1277.168c0,2.789-.5,5.152-.066,5.152s.948-2.262.948-5.051-.515-5.051-.948-5.051S926.954,1274.379,926.954,1277.168Z" transform="translate(-926.712 -1272.218)" fill="#127f8a"/><path d="M927.735,1282.32l6.346-.621a36.871,36.871,0,0,1,7.16,0l6.346.621h0a17.976,17.976,0,0,1,0-10.1h0l-5.094.7a35.414,35.414,0,0,1-9.665,0l-5.094-.7h0a14.9,14.9,0,0,1,0,10.1Z" transform="translate(-927.493 -1272.218)" fill="#149bb3"/><g transform="translate(10.047 3.366)"><path d="M969.283,1289.728c0,1.86-.333,3.435-.044,3.435s.632-1.508.632-3.368-.343-3.368-.632-3.368S969.283,1287.868,969.283,1289.728Z" transform="translate(-969.121 -1286.427)" fill="#bb906a"/><path d="M969.8,1293.163l4.231-.414a24.6,24.6,0,0,1,4.774,0l4.231.414h0a11.981,11.981,0,0,1,0-6.736h0l-3.4.469a23.615,23.615,0,0,1-6.444,0l-3.4-.469h0a9.934,9.934,0,0,1,0,6.736Z" transform="translate(-969.642 -1286.427)" fill="#e7c8ab"/></g></g><path d="M1.368,0H42.029a1.5,1.5,0,0,1,1.5,1.5v0a2.078,2.078,0,0,1-2.078,2.078H2.078A2.078,2.078,0,0,1,0,1.5V1.368A1.368,1.368,0,0,1,1.368,0Z" transform="translate(6.51 18.088)" fill="#48261a"/><rect width="0.937" height="3.713" transform="translate(8.047 25.943)" fill="#3b1a11"/><rect width="0.937" height="3.713" transform="translate(17.4 25.943)" fill="#3b1a11"/><rect width="2.308" height="3.713" transform="translate(47.259 25.943)" fill="#b56635"/><rect width="2.308" height="3.713" transform="translate(56.591 25.943)" fill="#b56635"/><rect width="0.937" height="3.713" transform="translate(49.567 25.943)" fill="#3b1a11"/><rect width="0.937" height="3.713" transform="translate(58.9 25.943)" fill="#3b1a11"/><path d="M922.645,1304.757v4.328a.743.743,0,0,1-.794.678H881.6a.663.663,0,0,1-.709-.6v-4.4h-3.707v7.51a2.188,2.188,0,0,0,2.338,2h44.495a2.187,2.187,0,0,0,2.338-2v-7.51Z" transform="translate(-873.633 -1288.319)" fill="#945029"/><g transform="translate(56.591 25.943)" opacity="0.47" style="mix-blend-mode:multiply;isolation:isolate"><rect width="3.245" height="0.5" fill="#65412b"/></g><g transform="translate(47.259 25.943)" opacity="0.47" style="mix-blend-mode:multiply;isolation:isolate"><rect width="3.239" height="0.5" fill="#65412b"/></g><g transform="translate(15.071 25.943)" opacity="0.47" style="mix-blend-mode:multiply;isolation:isolate"><rect width="3.261" height="0.5" fill="#65412b"/></g><g transform="translate(5.733 25.943)" opacity="0.47" style="mix-blend-mode:multiply;isolation:isolate"><rect width="3.245" height="0.5" fill="#65412b"/></g></g><g transform="translate(364.543 3883.395)"><g transform="translate(2.727 21.775)"><path d="M1122.283,1350.481h-3v-3.493h5.182Z" transform="translate(-1117.647 -1346.987)" fill="#070304"/><path d="M1115.38,1350.481h-3v-3.493h5.182Z" transform="translate(-1112.38 -1346.987)" fill="#4d4d4e"/><path d="M1242.929,1350.481h3v-3.493h-5.182Z" transform="translate(-1210.335 -1346.987)" fill="#070304"/><path d="M1236.026,1350.481h3v-3.493h-5.182Z" transform="translate(-1205.067 -1346.987)" fill="#4d4d4e"/></g><g transform="translate(0 0)"><path d="M0,0H32.818a8.5,8.5,0,0,1,8.5,8.5v4.767a8.5,8.5,0,0,1-8.5,8.5H8.5a8.5,8.5,0,0,1-8.5-8.5V0A0,0,0,0,1,0,0Z" transform="translate(8.177)" fill="#908c8e"/><rect width="41.322" height="21.775" rx="8.504" fill="#a5a1a2"/><rect width="9.024" height="36.958" transform="translate(39.14 1.863) rotate(90)" fill="#4d4d4e"/><rect width="8.466" height="36.304" transform="translate(38.813 2.142) rotate(90)" fill="#e9eef8"/><rect width="9.024" height="36.958" transform="translate(39.14 10.888) rotate(90)" fill="#4d4d4e"/><rect width="8.466" height="36.304" transform="translate(38.813 11.167) rotate(90)" fill="#e9eef8"/><g transform="translate(15.138 5.822)"><rect width="10.774" height="1.281" rx="0.641" transform="translate(0.981)" fill="#070304"/><rect width="10.774" height="1.281" rx="0.641" fill="#4d4d4e"/><path d="M.361,0h0A.361.361,0,0,1,.722.361v9.4a.361.361,0,0,1-.361.361h0A.361.361,0,0,1,0,9.758V.361A.361.361,0,0,1,.361,0Z" transform="translate(10.447 0.279) rotate(90)" fill="#e9eef8"/></g><g transform="translate(15.138 15.039)"><rect width="10.774" height="1.281" rx="0.641" transform="translate(0.981)" fill="#070304"/><rect width="10.774" height="1.281" rx="0.641" fill="#4d4d4e"/><path d="M.361,0h0A.361.361,0,0,1,.722.361v9.4a.361.361,0,0,1-.361.361h0A.361.361,0,0,1,0,9.758V.361A.361.361,0,0,1,.361,0Z" transform="translate(10.447 0.279) rotate(90)" fill="#e9eef8"/></g></g><g transform="translate(11.395 21.775)"><path d="M1158.87,1350.481h-3v-3.493h5.182Z" transform="translate(-1154.234 -1346.987)" fill="#070304"/><path d="M1151.967,1350.481h-3v-3.493h5.182Z" transform="translate(-1148.967 -1346.987)" fill="#4d4d4e"/><path d="M1279.516,1350.481h3v-3.493h-5.182Z" transform="translate(-1246.922 -1346.987)" fill="#070304"/><path d="M1272.613,1350.481h3v-3.493h-5.182Z" transform="translate(-1241.654 -1346.987)" fill="#4d4d4e"/></g></g></g></svg>