<svg xmlns="http://www.w3.org/2000/svg" width="129.511" height="93.813" viewBox="0 0 129.511 93.813"><g transform="translate(-2374.638 -1246.393)"><g transform="translate(2400.552 1250.852)"><rect width="31.71" height="1.607" transform="translate(0)" fill="#945029"/><rect width="15.258" height="1.607" transform="translate(46.967 1.607) rotate(180)" fill="#894019"/><rect width="13.486" height="42.128" transform="translate(46.082 43.736) rotate(180)" fill="#894019"/><rect width="31.804" height="38.035" transform="translate(0.792 1.607)" fill="#945029"/><rect width="0.886" height="42.128" transform="translate(31.71 1.607)" fill="#592114"/><rect width="30.918" height="19.018" transform="translate(0.792 20.625)" fill="#945029"/><rect width="31.804" height="0.387" transform="translate(0.792 20.432)" fill="#3b1a11"/><rect width="30.918" height="4.093" transform="translate(0.792 39.643)" fill="#592114"/><rect width="31.804" height="0.663" transform="translate(0.792 39.643)" fill="#3b1a11"/><rect width="1.575" height="3.43" transform="translate(31.02 40.306)" fill="#945029"/><rect width="1.575" height="3.43" transform="translate(0.792 40.306)" fill="#945029"/><rect width="45.29" height="0.387" transform="translate(0.792 1.607)" fill="#3b1a11"/><g transform="translate(9.548 10.302)"><path d="M.814,0H11.324a.814.814,0,0,1,.814.814v0a.814.814,0,0,1-.814.814H.814A.814.814,0,0,1,0,.814v0A.814.814,0,0,1,.814,0Z" fill="#ced5d4"/><path d="M2470.3,1284.716h-4.791c-.079,0-.143-.091-.143-.2s.064-.2.143-.2h4.791c.079,0,.143.091.143.2S2470.38,1284.716,2470.3,1284.716Z" transform="translate(-2464.886 -1284.051)" fill="#f5f5f5"/></g><g transform="translate(9.548 29.32)"><path d="M2475.715,1333.289H2464.73c-.318,0-.576-.365-.576-.814h0c0-.45.258-.814.576-.814h10.985c.318,0,.576.365.576.814h0C2476.292,1332.924,2476.033,1333.289,2475.715,1333.289Z" transform="translate(-2464.154 -1331.66)" fill="#ced5d4"/><path d="M2470.3,1332.722h-4.791c-.079,0-.143-.091-.143-.2s.064-.2.143-.2h4.791c.079,0,.143.091.143.2S2470.38,1332.722,2470.3,1332.722Z" transform="translate(-2464.887 -1332.057)" fill="#f5f5f5"/></g></g><g transform="translate(2434.79 1246.393)"><g transform="translate(0.634 3.744)"><rect width="17.704" height="48.743" transform="translate(42.669 48.743) rotate(180)" fill="#3b1a11"/><rect width="17.704" height="48.743" fill="#b56635"/><rect width="40.639" height="11.515" transform="translate(15.567 4.052) rotate(90)" fill="#f6e6d7"/><g transform="translate(13.065 16.284)"><ellipse cx="0.731" cy="2.827" rx="0.731" ry="2.827" fill="#5e2e1d"/><path d="M2562.568,1297.7a7.453,7.453,0,0,1,.3,2.269c0,1.562-.328,2.827-.731,2.827-.116,0-.227-.109-.324-.3.122.349.272.558.435.558.4,0,.732-1.266.732-2.827A6.3,6.3,0,0,0,2562.568,1297.7Z" transform="translate(-2561.513 -1297.402)" fill="#481c10"/></g><g transform="translate(17.645)"><rect width="17.704" height="48.743" transform="translate(17.704 48.743) rotate(180)" fill="#b56635"/><rect width="40.639" height="11.515" transform="translate(13.652 4.052) rotate(90)" fill="#f6e6d7"/><g transform="translate(3.177 16.284)"><ellipse cx="0.731" cy="2.827" rx="0.731" ry="2.827" fill="#5e2e1d"/><path d="M2582.149,1297.7a7.431,7.431,0,0,1,.3,2.269c0,1.562-.327,2.827-.731,2.827-.117,0-.227-.109-.325-.3.121.349.272.558.435.558.4,0,.731-1.266.731-2.827A6.3,6.3,0,0,0,2582.149,1297.7Z" transform="translate(-2581.094 -1297.402)" fill="#481c10"/></g></g><rect width="0.261" height="48.743" transform="translate(17.573)" fill="#3b1a11"/></g><g transform="translate(0)"><path d="M3.011,0H33.665a3.011,3.011,0,0,1,3.011,3.011v0a.733.733,0,0,1-.733.733H.733A.733.733,0,0,1,0,3.011v0A3.011,3.011,0,0,1,3.011,0Z" transform="translate(7.32)" fill="#d5d5d5"/><path d="M3.011,0H33.665a3.011,3.011,0,0,1,3.011,3.011v0a.733.733,0,0,1-.733.733H.733A.733.733,0,0,1,0,3.011v0A3.011,3.011,0,0,1,3.011,0Z" fill="#eff0f1"/></g></g><path d="M2503.446,1478.2c0,.685-27.24,1.239-60.844,1.239s-60.848-.554-60.848-1.239,27.243-1.232,60.848-1.232S2503.446,1477.521,2503.446,1478.2Z" transform="translate(-4.298 -139.233)" fill="#8e8e8f"/><path d="M2486.258,1460.652a1.258,1.258,0,0,1-.154-.036c-.032-.008-.062-.023-.092-.033-.046-.017-.092-.03-.136-.051s-.066-.031-.1-.05-.086-.043-.127-.068-.069-.044-.1-.067-.078-.051-.118-.08-.069-.057-.1-.086-.074-.061-.113-.1-.069-.067-.1-.1-.071-.071-.107-.108l-.106-.119c-.032-.039-.067-.078-.1-.121s-.07-.089-.1-.135-.065-.086-.1-.131-.07-.1-.105-.152-.062-.094-.092-.142-.069-.113-.1-.171l-.087-.146c-.035-.062-.069-.126-.1-.191l-.08-.154c-.037-.069-.07-.138-.1-.21-.025-.051-.049-.106-.074-.158-.034-.075-.068-.153-.1-.231l-.067-.16c-.034-.082-.068-.167-.1-.252-.021-.052-.041-.107-.062-.16-.033-.09-.068-.182-.1-.273-.019-.055-.039-.109-.058-.161-.032-.1-.065-.2-.1-.3-.015-.051-.032-.1-.05-.152-.032-.107-.067-.215-.1-.325-.013-.049-.028-.1-.042-.147-.033-.116-.069-.234-.1-.355-.012-.042-.023-.086-.035-.13-.034-.129-.066-.257-.1-.388-.009-.038-.018-.077-.028-.115-.032-.139-.067-.278-.1-.42-.006-.03-.014-.063-.021-.093-.033-.152-.064-.305-.1-.464,0-.017-.008-.036-.011-.056a35.869,35.869,0,0,1-.631-6.182h-6.119c.143,7.25,2.159,13,4.626,13h6.119a1.653,1.653,0,0,1-.236-.018C2486.309,1460.665,2486.283,1460.657,2486.258,1460.652Z" transform="translate(-61.102 -121.551)" fill="#302d2c"/><g transform="translate(2478.117 1250.048)"><g transform="translate(0)"><path d="M2655.027,1290.354c-.264-2.114-7.106-27.726-7.886-30.551a6.135,6.135,0,0,0-5.166-4.184h-5.8v4.547c2.849.006,4.824.016,5.4.033,1.382.04,1.817,1.012,2.257,1.933s5.966,24.245,6.49,25.441-.062,2.3-1.995,2.3h-12.156v5.824h-.212a.486.486,0,0,1,.485.484v.746a.485.485,0,0,1-.485.485l-.114,0v13.617H2655.1c.023,0,.046.007.069.007l0-15.927A20.116,20.116,0,0,0,2655.027,1290.354Z" transform="translate(-2635.85 -1255.619)" fill="#1a1a1a"/></g></g><path d="M2650.822,1294.505c-.523-1.2-6.053-24.52-6.49-25.441s-.875-1.893-2.258-1.933c-.58-.018-2.554-.027-5.4-.033v29.708h12.156C2650.76,1296.806,2651.345,1295.7,2650.822,1294.505Z" transform="translate(-158.229 -12.503)" fill="#fff" opacity="0.4"/><g transform="translate(2375.491 1264.688)"><rect width="15.116" height="10.656" transform="translate(29.94 17.818)" fill="#5e2e1d"/><ellipse cx="3.447" cy="4.202" rx="3.447" ry="4.202" transform="translate(3.163 0)" fill="#b56635"/><path d="M2416.282,1317.271h-22.557l-.331-1.606-.753-3.656-.332-1.615-1.949-9.459-1.145-5.563a2.326,2.326,0,0,1,2.278-2.8h19.7l.005.026.439,2.133,1.4,6.816.362,1.753.845,4.105.615,2.984.135.658,1.249,6.066Z" transform="translate(-2384.264 -1292.576)" fill="#b56635"/><path d="M2422.528,1321.177H2400.9c.042-.752.057-1.546.044-2.378-.008-.5-.025-1.006-.052-1.528q-.034-.716-.093-1.462-.064-.823-.152-1.678c-.125-1.206-.287-2.456-.479-3.737-.589-3.933-1.469-8.149-2.482-12.275-.052-.21-.1-.42-.155-.628a10.167,10.167,0,0,0-2.392-4.821c-.034-.033-.068-.064-.1-.093h19.283a3.467,3.467,0,0,1,.427.026,4.339,4.339,0,0,1,3.549,3.759l1.7,9.986.221,1.294.469,2.753.177,1.039.969,5.685.222,1.3.083.486.365,2.144Z" transform="translate(-2387.81 -1292.576)" fill="#914822"/><path d="M2434.883,1296.361l1.7,9.986a40.641,40.641,0,0,0-3.334-4.705c-.025-.03-.049-.061-.075-.091a38.765,38.765,0,0,0-10.671-8.975h8.824l.005.026A4.339,4.339,0,0,1,2434.883,1296.361Z" transform="translate(-2404.396 -1292.576)" fill="#ab5b30"/><g transform="translate(11.249 4.445)"><path d="M2410.747,1303.8l-.075,2.248.075,2.248.075-2.248Z" transform="translate(-2408.5 -1303.796)" fill="#48261a"/><path d="M2409.683,1309.356l-2.248.075-2.248-.075,2.248-.075Z" transform="translate(-2405.188 -1307.108)" fill="#48261a"/><path d="M2410.752,1309.151a.21.21,0,1,1-.21-.21A.21.21,0,0,1,2410.752,1309.151Z" transform="translate(-2408.294 -1306.903)" fill="#3b1a11"/><g transform="translate(6.567)"><path d="M2427.324,1303.8l-.075,2.248.075,2.248.075-2.248Z" transform="translate(-2425.077 -1303.796)" fill="#48261a"/><path d="M2426.26,1309.356l-2.248.075-2.248-.075,2.248-.075Z" transform="translate(-2421.765 -1307.108)" fill="#48261a"/><path d="M2427.33,1309.151a.21.21,0,1,1-.21-.21A.21.21,0,0,1,2427.33,1309.151Z" transform="translate(-2424.872 -1306.903)" fill="#3b1a11"/></g><g transform="translate(13.134)"><path d="M2443.9,1303.8l-.075,2.248.075,2.248.075-2.248Z" transform="translate(-2441.655 -1303.796)" fill="#48261a"/><path d="M2442.838,1309.356l-2.248.075-2.248-.075,2.248-.075Z" transform="translate(-2438.343 -1307.108)" fill="#48261a"/><path d="M2443.907,1309.151a.21.21,0,1,1-.21-.21A.21.21,0,0,1,2443.907,1309.151Z" transform="translate(-2441.449 -1306.903)" fill="#3b1a11"/></g><g transform="translate(1.987 6.09)"><path d="M2415.763,1319.17l-.076,2.248.076,2.248.074-2.248Z" transform="translate(-2413.515 -1319.17)" fill="#48261a"/><path d="M2414.7,1324.729l-2.248.075-2.248-.075,2.248-.075Z" transform="translate(-2410.204 -1322.482)" fill="#48261a"/><path d="M2415.768,1324.524a.21.21,0,1,1-.21-.21A.21.21,0,0,1,2415.768,1324.524Z" transform="translate(-2413.31 -1322.276)" fill="#3b1a11"/><g transform="translate(6.567)"><path d="M2432.34,1319.17l-.075,2.248.075,2.248.075-2.248Z" transform="translate(-2430.093 -1319.17)" fill="#48261a"/><path d="M2431.276,1324.729l-2.248.075-2.247-.075,2.247-.075Z" transform="translate(-2426.781 -1322.482)" fill="#48261a"/><path d="M2432.344,1324.524a.21.21,0,1,1-.209-.21A.209.209,0,0,1,2432.344,1324.524Z" transform="translate(-2429.887 -1322.276)" fill="#3b1a11"/></g><g transform="translate(13.134)"><path d="M2448.918,1319.17l-.075,2.248.075,2.248.075-2.248Z" transform="translate(-2446.67 -1319.17)" fill="#48261a"/><path d="M2447.854,1324.729l-2.248.075-2.248-.075,2.248-.075Z" transform="translate(-2443.358 -1322.482)" fill="#48261a"/><path d="M2448.922,1324.524a.21.21,0,1,1-.21-.21A.21.21,0,0,1,2448.922,1324.524Z" transform="translate(-2446.465 -1322.276)" fill="#3b1a11"/></g></g><g transform="translate(4.147 12.18)"><path d="M2421.215,1334.544l-.075,2.248.075,2.248.076-2.248Z" transform="translate(-2418.968 -1334.544)" fill="#48261a"/><path d="M2420.151,1340.1l-2.248.075-2.248-.075,2.248-.075Z" transform="translate(-2415.656 -1337.855)" fill="#48261a"/><path d="M2421.22,1339.9a.21.21,0,1,1-.21-.21A.21.21,0,0,1,2421.22,1339.9Z" transform="translate(-2418.762 -1337.65)" fill="#3b1a11"/><g transform="translate(6.567)"><path d="M2437.792,1334.544l-.075,2.248.075,2.248.075-2.248Z" transform="translate(-2435.545 -1334.544)" fill="#48261a"/><path d="M2436.729,1340.1l-2.248.075-2.248-.075,2.248-.075Z" transform="translate(-2432.233 -1337.855)" fill="#48261a"/><path d="M2437.8,1339.9a.21.21,0,1,1-.21-.21A.21.21,0,0,1,2437.8,1339.9Z" transform="translate(-2435.339 -1337.65)" fill="#3b1a11"/></g><g transform="translate(13.134)"><path d="M2454.371,1334.544l-.075,2.248.075,2.248.075-2.248Z" transform="translate(-2452.123 -1334.544)" fill="#48261a"/><path d="M2453.306,1340.1l-2.247.075-2.248-.075,2.248-.075Z" transform="translate(-2448.811 -1337.855)" fill="#48261a"/><path d="M2454.375,1339.9a.21.21,0,1,1-.209-.21A.21.21,0,0,1,2454.375,1339.9Z" transform="translate(-2451.917 -1337.65)" fill="#3b1a11"/></g></g></g><g transform="translate(21.12 13.008)"><path d="M2446.294,1327.99a.88.88,0,0,1-.025.138q-.12.456-.23.918a.079.079,0,0,1,0,.01.033.033,0,0,0,0,.009q-.138.575-.261,1.158-.149.706-.278,1.424c-.163.913-.3,1.833-.41,2.754-.1.851-.178,1.7-.232,2.546,0,.013,0,.025,0,.039v.021q-.044.721-.065,1.435a1.022,1.022,0,0,1-.02.164v0a.656.656,0,0,1-.092.226.494.494,0,0,1-.1.112.573.573,0,0,1-.591.041c-.22-.087-.442-.172-.662-.254-.889-.329-1.77-.612-2.651-.848q-.819-.22-1.64-.387l-.1-.021q-1.245-.249-2.505-.379a28.268,28.268,0,0,0-3.923-.125q-.859.032-1.741.112a.763.763,0,0,1-.206,0,.5.5,0,0,1-.347-.2.648.648,0,0,1-.068-.553c.023-.086.045-.174.068-.26a46.6,46.6,0,0,0,1.415-10.051.546.546,0,0,1,.808-.547,28.753,28.753,0,0,0,6.4,1.743l.143.021q1.2.171,2.424.232c.182.01.365.017.547.022a30.594,30.594,0,0,0,3.705-.117.628.628,0,0,1,.485.127.472.472,0,0,1,.095.117A.6.6,0,0,1,2446.294,1327.99Z" transform="translate(-2430.106 -1325.413)" fill="#149bb3"/><g transform="translate(14.235 2.205)"><path d="M2467.992,1331.352c-.089.35-.175.7-.255,1.056a.054.054,0,0,0,0,.01.03.03,0,0,0,0,.009q-.133.575-.252,1.158-.146.708-.272,1.425c-.163.922-.3,1.852-.413,2.783q-.154,1.26-.242,2.516l0,.039v.02q-.056.8-.085,1.6v0a.645.645,0,0,1-.092.226.482.482,0,0,1-.1.113c-.023-.136-.043-.27-.062-.405-.077-.535-.125-1.068-.148-1.6a19.305,19.305,0,0,1,.228-3.867c.081-.514.18-1.011.289-1.486s.233-.938.363-1.37a18.07,18.07,0,0,1,.99-2.6Z" transform="translate(-2466.039 -1330.98)" fill="#127f8a"/></g><g transform="translate(1.477 3.859)"><path d="M2450.857,1345.01a.364.364,0,0,1-.166.331.57.57,0,0,1-.476.03q-.728-.222-1.451-.423a56.474,56.474,0,0,0-14.41-2.1c-.379,0-.6-.243-.494-.541a17.576,17.576,0,0,0,1.1-6.755c-.006-.317.279-.473.64-.361a56.469,56.469,0,0,0,14.519,2.481q.667.027,1.343.041a.749.749,0,0,1,.25.044.371.371,0,0,1,.244.5A17.565,17.565,0,0,0,2450.857,1345.01Z" transform="translate(-2433.834 -1335.155)" fill="#e7b178"/><path d="M2476.011,1349.218v0c0,.217-.162.443-.267.238-.575-1.126-.164-5.53,1.159-7.233.126-.162.222-.128.233.069a.424.424,0,0,1-.026.167A17.579,17.579,0,0,0,2476.011,1349.218Z" transform="translate(-2458.989 -1339.364)" fill="#be8e5c"/></g></g><path d="M2.82,0H17.5a2.82,2.82,0,0,1,2.82,2.82v0a2.031,2.031,0,0,1-2.031,2.031H1.856A1.856,1.856,0,0,1,0,3V2.82A2.82,2.82,0,0,1,2.82,0Z" transform="translate(41.194 29.393) rotate(180)" fill="#48261a"/><path d="M2392.214,1354.936h11.935l-2.354-17.382h-12.217V1352.3A2.636,2.636,0,0,0,2392.214,1354.936Z" transform="translate(-2384.512 -1319.736)" fill="#5e2e1d"/><path d="M2402.392,1358.77l1.757,8.977h-11.935a2.636,2.636,0,0,1-2.636-2.636v-6.342Z" transform="translate(-2384.512 -1332.547)" fill="#b56635"/><rect width="2.674" height="7.801" transform="translate(42.8 43.001) rotate(180)" fill="#4b2117"/><rect width="2.674" height="7.801" transform="translate(31.989 43.001) rotate(180)" fill="#4b2117"/><circle cx="4.202" cy="4.202" r="4.202" transform="matrix(0.772, -0.635, 0.635, 0.772, 39.141, 21.444)" fill="#945029"/><circle cx="4.202" cy="4.202" r="4.202" transform="translate(11.096 22.536) rotate(-49.977)" fill="#945029"/><circle cx="4.202" cy="4.202" r="4.202" transform="matrix(0.973, -0.233, 0.233, 0.973, 0, 18.912)" fill="#5e2e1d"/><path d="M2423.808,1348.875v5.873a.92.92,0,0,0,.92.92h17.893a.821.821,0,0,0,.821-.822v-5.971h4.294v10.189a2.708,2.708,0,0,1-2.708,2.709h-22.806a2.708,2.708,0,0,1-2.708-2.709v-10.189Z" transform="translate(-2402.59 -1326.572)" fill="#945029"/><rect width="1.085" height="7.801" transform="translate(40.126 43.001) rotate(180)" fill="#c27447"/><rect width="1.085" height="7.801" transform="translate(29.291 43.001) rotate(180)" fill="#c27447"/><rect width="2.674" height="7.801" transform="translate(23.249 43.001) rotate(180)" fill="#4b2117"/><rect width="2.674" height="7.801" transform="translate(12.437 43.001) rotate(180)" fill="#4b2117"/><rect width="1.085" height="7.801" transform="translate(20.575 43.001) rotate(180)" fill="#c27447"/><rect width="1.085" height="7.801" transform="translate(9.763 43.001) rotate(180)" fill="#c27447"/></g><g transform="translate(2481.306 1279.214)"><path d="M2649.547,1329.244H2643.9c.1.63.156,1.008.16,1.034a4.831,4.831,0,0,0,.39,1.8h7.539a2.785,2.785,0,0,1,1.938,1.014,4.1,4.1,0,0,0,3.1,1.376,4.384,4.384,0,0,0-.005-1.686c-.045-.392-.146-.949-.3-1.64H2653.7A7.01,7.01,0,0,0,2649.547,1329.244Z" transform="translate(-2643.902 -1329.244)" fill="#1a1a1a"/></g><g transform="translate(2480.879 1276.426)"><path d="M2642.824,1322.2c.126.82.237,1.544.328,2.136a5.551,5.551,0,0,1,1.609,3.487h1.454A6.683,6.683,0,0,0,2642.824,1322.2Z" transform="translate(-2642.824 -1322.205)"/></g><g transform="translate(2478.442 1250.048)"><path d="M2637.086,1311.034H2655.6c.023,0,.046.007.069.007l0-15.927a20.116,20.116,0,0,0-.147-4.76c-.264-2.114-7.106-27.726-7.887-30.551a6.134,6.134,0,0,0-5.166-4.184h-5.8v4.138h7.545c1.979,0,2.707,2.623,2.946,3.485.3,1.073,3.377,12.865,5.364,20.495a41.585,41.585,0,0,1,.977,4.486c.2,1.683-.016,2.171-.227,2.406a.673.673,0,0,1-.509.232,4.955,4.955,0,0,1-3.793-1.608c-.528-.5-.85-.778-1.351-.778h-7.611c-.821,0-1.088-1.392-1.167-2.561-.016-.1-1.2-7.793-2.176-14.2v15.654c.256,1.9.415,3.076.415,3.076Z" transform="translate(-2636.671 -1255.619)" fill="#999"/></g><g transform="translate(2490.369 1309.723)"><path d="M2666.779,1406.258c.514,1.142.945,2.4,1.352,3.457a37.454,37.454,0,0,1,1.9,10.056c-.051.833.233,3.533-.771,5.377.99-.012,2.026-.02,3.025-.02,3.986,0,4.759-18.87,4.759-18.87Z" transform="translate(-2666.779 -1406.258)" fill="#1a1a1a"/></g><path d="M2637.08,1396.13a7.136,7.136,0,0,1,3.055.57,5.8,5.8,0,0,1,2.376,3.064h10.27s-1.224-4.261-3.271-4.261h-22.184a.691.691,0,0,0-.735.629C2630.379,1396.128,2634.363,1396.124,2637.08,1396.13Z" transform="translate(-152.143 -90.04)" fill="#262626"/><path d="M2681.822,1363.643h.888v3.844h-1.26V1364.7S2681.478,1363.643,2681.822,1363.643Z" transform="translate(-185.269 -70.802)" fill="#e85400"/><rect width="1.259" height="8.774" transform="translate(2496.181 1296.689)" fill="#c9c9c9"/><path d="M2636.175,1335.754v8.334h-.212a.486.486,0,0,1,.485.484v.746a.485.485,0,0,1-.485.485l-.114,0v13.627h.74v-20.6S2636.432,1337.656,2636.175,1335.754Z" transform="translate(-157.734 -53.961)" fill="#d4d5d5"/><path d="M2656.274,1424.549c0,7.633-2.073,13.821-4.633,13.821s-4.635-6.188-4.635-13.821,2.075-13.821,4.635-13.821S2656.274,1416.917,2656.274,1424.549Z" transform="translate(-164.47 -99.234)" fill="#474645"/><path d="M2512.352,1414.226a37.49,37.49,0,0,0-1.905-10.056c-.91-2.347-1.927-5.73-3.729-6.52a7.137,7.137,0,0,0-3.055-.57c-1.843,0-4.27,0-6.821,0v.89H2497a.485.485,0,0,1,.486.485v.9a.485.485,0,0,1-.486.484h-27.925a.51.51,0,0,0,.145-.029h-63.571V1412h2.668a39.247,39.247,0,0,0-.231,4.3c0,7.633,2.075,13.821,4.635,13.821,2.466,0,4.482-5.751,4.625-13h22.223c.142,7.25,2.159,13,4.626,13,2.286,0,4.186-4.941,4.563-11.435h14.956c.38,6.494,2.277,11.435,4.561,11.435h6.122a1.614,1.614,0,0,1-.391-.052c-.016-.005-.033-.008-.049-.013a2.181,2.181,0,0,1-.364-.144c-.021-.014-.041-.022-.062-.034a2.532,2.532,0,0,1-.348-.24c-.019-.015-.036-.03-.055-.045a3.7,3.7,0,0,1-.348-.337c-.008-.01-.017-.021-.025-.031a5.4,5.4,0,0,1-.35-.442l0-.007c-.114-.163-.225-.34-.333-.529-.009-.017-.021-.034-.029-.052-.106-.186-.209-.385-.308-.593a.76.76,0,0,1-.032-.071c-.1-.212-.2-.439-.291-.675l-.019-.046a19.541,19.541,0,0,1-.787-2.58l0-.024c-.075-.316-.144-.645-.21-.981,0-.007,0-.016-.006-.027a34.2,34.2,0,0,1-.547-4.5s0-.006,0-.008c-.046-.775-.07-1.572-.07-2.385,0-7.632,2.076-13.821,4.634-13.821s4.634,6.189,4.634,13.821c0,1.146-.048,2.257-.135,3.322a.115.115,0,0,1,0,.018h16.387c.5,6.018,2.324,10.481,4.5,10.481h6.12a1.613,1.613,0,0,1-.366-.046.535.535,0,0,1-.061-.015,1.752,1.752,0,0,1-.342-.134.622.622,0,0,1-.065-.03,2.526,2.526,0,0,1-.339-.223.212.212,0,0,1-.026-.021,3.675,3.675,0,0,1-.322-.3c-.013-.015-.029-.028-.043-.043a4.546,4.546,0,0,1-.314-.378c-.018-.023-.036-.048-.053-.072-.1-.143-.207-.292-.305-.456-.01-.017-.019-.035-.031-.05-.1-.17-.2-.348-.294-.537,0-.007-.008-.017-.012-.023-.1-.194-.192-.4-.283-.614-.013-.028-.023-.056-.035-.084-.089-.215-.177-.438-.261-.672-.008-.021-.017-.042-.023-.067-.175-.49-.338-1.02-.484-1.586-.005-.021-.011-.04-.016-.06-.073-.282-.142-.573-.206-.87-.006-.021-.01-.042-.014-.064-.134-.619-.253-1.272-.351-1.955l0-.009c-.051-.338-.094-.684-.135-1.036,0-.021,0-.04-.007-.06a39.775,39.775,0,0,1-.244-4.418c0-7.632,2.075-13.821,4.635-13.821s4.633,6.189,4.633,13.821c0,1.153-.047,2.27-.136,3.34h1.165C2512.588,1417.8,2512.3,1415.064,2512.352,1414.226Z" transform="translate(-18.726 -90.99)" fill="#1a1311"/><path d="M2658.147,1432.378c0,4.8-1.181,8.683-2.64,8.683s-2.64-3.888-2.64-8.683,1.182-8.684,2.64-8.684S2658.147,1427.584,2658.147,1432.378Z" transform="translate(-168.009 -107.064)" fill="#ebebeb"/><g transform="translate(2383.241 1311.494)"><path d="M2408.625,1411.29a1.9,1.9,0,0,1,1.553.814,2.622,2.622,0,0,1,2.016-1.376h-4.261c-.073.166-.144.331-.213.5h-2.883c-.021.016-.039.04-.06.058Z" transform="translate(-2401.44 -1410.728)" fill="#302d2c"/><path d="M2402.473,1439.648c0-1.36.067-2.674.19-3.916h-6.116c-.123,1.243-.193,2.554-.193,3.916,0,7.633,2.074,13.821,4.634,13.821h6.119C2404.549,1453.468,2402.473,1447.28,2402.473,1439.648Z" transform="translate(-2396.355 -1425.827)" fill="#302d2c"/></g><path d="M2576.755,1424.549c0,7.633-2.074,13.821-4.634,13.821s-4.635-6.188-4.635-13.821,2.076-13.821,4.635-13.821S2576.755,1416.917,2576.755,1424.549Z" transform="translate(-116.452 -99.234)" fill="#474645"/><path d="M2578.63,1432.378c0,4.8-1.183,8.683-2.64,8.683s-2.64-3.888-2.64-8.683,1.182-8.684,2.64-8.684S2578.63,1427.584,2578.63,1432.378Z" transform="translate(-119.993 -107.064)" fill="#ebebeb"/><g transform="translate(2449.341 1308.845)"><path d="M2571.108,1404.04h-7.9c1.1,0,1.975,1.137,2.656,2.649h3.672c1.893,0,3.52,3.387,4.238,8.236h1.05s.567.018.567-.86C2575.394,1412.542,2573.848,1404.04,2571.108,1404.04Z" transform="translate(-2563.211 -1404.04)" fill="#302d2c"/></g><g transform="translate(2387.694 1308.845)"><path d="M2415.492,1404.04h-7.9c1.094,0,1.974,1.137,2.652,2.649h3.648c1.893,0,3.52,3.387,4.239,8.236h1.075s.567.018.567-.86C2419.777,1412.542,2418.232,1404.04,2415.492,1404.04Z" transform="translate(-2407.595 -1404.04)" fill="#302d2c"/></g><path d="M2576.755,1424.549c0,7.633-2.074,13.821-4.634,13.821s-4.635-6.188-4.635-13.821,2.076-13.821,4.635-13.821S2576.755,1416.917,2576.755,1424.549Z" transform="translate(-116.452 -99.234)" fill="#474645"/><path d="M2578.63,1432.378c0,4.8-1.183,8.683-2.64,8.683s-2.64-3.888-2.64-8.683,1.182-8.684,2.64-8.684S2578.63,1427.584,2578.63,1432.378Z" transform="translate(-119.993 -107.064)" fill="#ebebeb"/><path d="M2659.116,1441.642c0,1.439-.354,2.605-.792,2.605s-.791-1.167-.791-2.605.355-2.606.791-2.606S2659.116,1440.2,2659.116,1441.642Z" transform="translate(-170.827 -116.328)" fill="#474645"/><path d="M2579.6,1441.642c0,1.439-.354,2.605-.791,2.605s-.793-1.167-.793-2.605.354-2.606.793-2.606S2579.6,1440.2,2579.6,1441.642Z" transform="translate(-122.808 -116.328)" fill="#474645"/><path d="M2655.877,1441.822c-1.558,0-2.4-3.726-2.4-7.231s.84-7.232,2.4-7.232,2.4,3.728,2.4,7.232S2657.435,1441.822,2655.877,1441.822Zm0-13.893c-.863,0-1.827,2.849-1.827,6.662s.964,6.662,1.827,6.662,1.828-2.85,1.828-6.662S2656.739,1427.929,2655.877,1427.929Z" transform="translate(-168.379 -109.276)" fill="#1a1311"/><path d="M2576.359,1441.822c-1.558,0-2.4-3.726-2.4-7.231s.84-7.232,2.4-7.232,2.4,3.728,2.4,7.232S2577.916,1441.822,2576.359,1441.822Zm0-13.893c-.765,0-1.829,2.535-1.829,6.662s1.065,6.662,1.829,6.662,1.827-2.534,1.827-6.662S2577.121,1427.929,2576.359,1427.929Z" transform="translate(-120.362 -109.276)" fill="#1a1311"/><path d="M2645.162,1354.371a.483.483,0,0,0,.482.484h2.261a.483.483,0,0,0,.482-.484v-1.452a.483.483,0,0,0-.482-.484h-2.261a.483.483,0,0,0-.482.484Z" transform="translate(-163.356 -64.034)" fill="#262626"/><g transform="translate(2443.4 1308.845)"><g transform="translate(0 3.154)"><path d="M2548.237,1412c-.007.018-.014.039-.022.058h.413a1.9,1.9,0,0,1,1.9,1.9v5.548a1.672,1.672,0,0,1-.023.229h3.047a.852.852,0,0,0,.9-.86,24.95,24.95,0,0,1,1.539-6.872Z" transform="translate(-2548.215 -1412.001)" fill="#b3b3b3"/></g><path d="M2558.884,1404.04h-7.9c-1.11,0-2.022,1.392-2.717,3.154h7.746C2556.721,1405.433,2557.671,1404.04,2558.884,1404.04Z" transform="translate(-2548.249 -1404.04)" fill="#5f5e5e"/></g><g transform="translate(2381.773 1308.845)"><path d="M2403.266,1404.04h-7.9c-1.108,0-2.022,1.392-2.717,3.154h7.747C2401.1,1405.433,2402.052,1404.04,2403.266,1404.04Z" transform="translate(-2392.651 -1404.04)" fill="#5f5e5e"/></g><g transform="translate(2391.412 1312.341)"><path d="M2458.945,1412.866H2416.98a1.893,1.893,0,0,1,.913,1.613v5.548a1.894,1.894,0,0,1-.913,1.613h41.965a1.9,1.9,0,0,1-.913-1.613v-5.548A1.894,1.894,0,0,1,2458.945,1412.866Z" transform="translate(-2416.98 -1412.866)" fill="#474645"/></g><path d="M2461.941,1421.814a.484.484,0,0,1-.485.484H2435.84a.483.483,0,0,1-.482-.484v-6.173a.484.484,0,0,1,.482-.485h25.615a.485.485,0,0,1,.485.485Z" transform="translate(-36.666 -101.908)" fill="#d9d9d9"/><path d="M2566.133,1358.021a.485.485,0,0,1-.485.485h27.924a.484.484,0,0,0,.485-.485v-.745a.486.486,0,0,0-.485-.484h-27.924a.487.487,0,0,1,.485.484Z" transform="translate(-115.342 -66.664)" fill="#b2b2b3"/><path d="M2566.242,1400.716a.486.486,0,0,1-.486.484h27.926a.485.485,0,0,0,.486-.484v-.9a.486.486,0,0,0-.486-.485h-27.926a.486.486,0,0,1,.486.485Z" transform="translate(-115.407 -92.349)" fill="#8e8e8f"/><rect width="28.049" height="15.14" transform="translate(2450.067 1291.846)" fill="#a6a7a7"/><rect width="10.799" height="10.246" transform="translate(2464.844 1313.611)" fill="#bdbebf"/><rect width="28.049" height="2.058" transform="translate(2450.067 1291.846)" fill="#8e8e8f"/><path d="M2374.638,1400.716a.485.485,0,0,0,.485.484h75.226a.484.484,0,0,0,.483-.484v-.9a.484.484,0,0,0-.483-.485h-75.226a.485.485,0,0,0-.485.485Z" transform="translate(0 -92.349)" fill="#bdbebf"/><path d="M2374.987,1358.021a.475.475,0,0,0,.466.485h75.082a.474.474,0,0,0,.465-.485v-.745a.476.476,0,0,0-.465-.484h-75.082a.476.476,0,0,0-.466.484Z" transform="translate(-0.211 -66.664)" fill="#e0e0e0"/><rect width="74.464" height="15.14" transform="translate(2375.604 1291.846)" fill="#e0e0e0"/><rect width="74.464" height="2.058" transform="translate(2375.604 1291.846)" fill="#bdbebf"/><path d="M2652.656,1295.935a38.474,38.474,0,0,0-.956-4.37c-1.985-7.628-5.063-19.412-5.361-20.48-.534-1.926-1.228-2.86-2.123-2.86h-7.545v5.388c.917,6.124,3,19.653,3.025,19.818a4.822,4.822,0,0,0,.39,1.8h7.539a2.786,2.786,0,0,1,1.938,1.013,4.1,4.1,0,0,0,3.1,1.376A4.381,4.381,0,0,0,2652.656,1295.935Z" transform="translate(-158.229 -13.183)" fill="#fff" opacity="0.2"/><path d="M2653.5,1294.532a41.6,41.6,0,0,0-.977-4.486c-1.987-7.63-5.066-19.422-5.364-20.495-.239-.862-.967-3.485-2.946-3.485h-7.545v.855h7.545c.895,0,1.588.935,2.123,2.86.3,1.068,3.376,12.853,5.361,20.48a38.474,38.474,0,0,1,.956,4.37,4.38,4.38,0,0,1,.005,1.686,4.1,4.1,0,0,1-3.1-1.376,2.786,2.786,0,0,0-1.938-1.014h-7.539a4.821,4.821,0,0,1-.39-1.8c-.025-.165-2.109-13.695-3.025-19.818v5.709c.977,6.411,2.16,14.1,2.176,14.2.079,1.169.346,2.561,1.167,2.561h7.611c.5,0,.823.281,1.351.778a4.955,4.955,0,0,0,3.793,1.609.673.673,0,0,0,.509-.232C2653.487,1296.7,2653.7,1296.215,2653.5,1294.532Z" transform="translate(-158.229 -11.879)" fill="#1a1311"/><g transform="translate(2379.087 1312.056)"><path d="M2406.137,1414.914a1.331,1.331,0,0,0-1.33-1.328h-6.353v8.2h6.353a1.332,1.332,0,0,0,1.33-1.328Z" transform="translate(-2393.469 -1413.016)" fill="#e12f15"/><g transform="translate(0)"><path d="M2387.306,1420.53a1.321,1.321,0,0,0,1.321,1.26h2.526v-8.2h-2.526a1.323,1.323,0,0,0-1.322,1.272Z" transform="translate(-2386.736 -1413.016)" fill="#f38200"/><path d="M2397.208,1412.147h-9.448a1.9,1.9,0,0,0-1.891,1.831v5.7a1.892,1.892,0,0,0,1.891,1.817h9.448a1.9,1.9,0,0,0,1.9-1.9v-5.548A1.9,1.9,0,0,0,2397.208,1412.147Zm-6.922,8.774h-2.526a1.321,1.321,0,0,1-1.322-1.26v-5.672a1.323,1.323,0,0,1,1.323-1.271h2.526Zm8.252-1.329a1.332,1.332,0,0,1-1.33,1.329h-6.353v-8.2h6.353a1.331,1.331,0,0,1,1.33,1.328Z" transform="translate(-2385.869 -1412.147)"/></g></g><g transform="translate(2432.464 1312.056)"><path d="M2522.047,1420.462a1.333,1.333,0,0,0,1.332,1.328h6.37v-8.2h-6.37a1.332,1.332,0,0,0-1.332,1.328Z" transform="translate(-2521.477 -1413.016)" fill="#e12f15"/><path d="M2546.76,1414.914a1.33,1.33,0,0,0-1.328-1.328h-2.508v8.2h2.508a1.331,1.331,0,0,0,1.328-1.328Z" transform="translate(-2534.084 -1413.016)" fill="#f38200"/><path d="M2531.957,1412.147h-9.447a1.9,1.9,0,0,0-1.9,1.9v5.548a1.9,1.9,0,0,0,1.9,1.9h9.447a1.9,1.9,0,0,0,1.9-1.9v-5.548A1.9,1.9,0,0,0,2531.957,1412.147Zm-3.076,8.774h-6.37a1.333,1.333,0,0,1-1.331-1.329v-5.548a1.332,1.332,0,0,1,1.331-1.328h6.37Zm4.4-1.329a1.331,1.331,0,0,1-1.328,1.329h-2.508v-8.2h2.508a1.331,1.331,0,0,1,1.328,1.328Z" transform="translate(-2520.609 -1412.147)"/></g><path d="M2680.976,1325.3a1.937,1.937,0,0,0,1.938,1.935h4.283a1.936,1.936,0,0,0,1.935-1.935v-7.512a1.936,1.936,0,0,0-1.935-1.936h-4.283a1.937,1.937,0,0,0-1.938,1.936Z" transform="translate(-184.983 -41.945)"/><path d="M2.644,0h0A2.645,2.645,0,0,1,5.29,2.645V7.125A2.645,2.645,0,0,1,2.644,9.771h0A2.644,2.644,0,0,1,0,7.127V2.644A2.644,2.644,0,0,1,2.644,0Z" transform="translate(2497.341 1274.717)" fill="#ebebeb"/></g></svg>