<svg xmlns="http://www.w3.org/2000/svg" xmlns:xlink="http://www.w3.org/1999/xlink" width="140" height="140" viewBox="0 0 140 140"><defs><clipPath id="a"><circle cx="70" cy="70" r="70" transform="translate(0 0.477)" fill="#f7f3e5"/></clipPath><linearGradient id="b" x1="0.5" y1="0.917" x2="0.5" y2="0.106" gradientUnits="objectBoundingBox"><stop offset="0" stop-color="#96663d"/><stop offset="0.253" stop-color="#8f6039"/><stop offset="0.608" stop-color="#7d512e"/><stop offset="1" stop-color="#613a1e"/></linearGradient></defs><g transform="translate(0 -0.477)"><circle cx="70" cy="70" r="70" transform="translate(0 0.477)" fill="#f7f3e5"/><g clip-path="url(#a)"><g transform="translate(34.261 21.007)"><rect width="50.479" height="83.29" transform="translate(0)" fill="#94663f"/><rect width="51.488" height="47.45" transform="translate(48.964 1.514) rotate(90)" fill="#4d2a13"/><rect width="27.259" height="47.45" transform="translate(48.964 54.517) rotate(90)" fill="#626262"/><rect width="27.056" height="47.248" transform="translate(48.863 54.618) rotate(90)" fill="#4d2a13"/><rect width="27.056" height="0.101" transform="translate(25.29 54.618) rotate(90)" fill="#626262"/><rect width="1.514" height="47.45" transform="translate(48.964 35.84) rotate(90)" fill="#94663f"/><rect width="1.514" height="47.45" transform="translate(48.964 18.677) rotate(90)" fill="#94663f"/><path d="M1381.455,1686.926v7.572h-1.1l-1.1-5.048H1335.2l-1.1,5.048H1333v-7.572Z" transform="translate(-1331.986 -1603.636)" fill="url(#b)"/><path d="M1442.72,1548.7l-.5-.5,1.514-1.514.5.5v1.514Z" transform="translate(-1420.056 -1490.553)" fill="#b0afaf" style="mix-blend-mode:multiply;isolation:isolate"/><rect width="1.514" height="1.514" transform="translate(23.674 56.132) rotate(90)" fill="#181919"/><path d="M1466.7,1548.7l-.5-.5,1.514-1.514.5.5v1.514Z" transform="translate(-1439.393 -1490.553)" fill="#b0afaf" style="mix-blend-mode:multiply;isolation:isolate"/><rect width="1.514" height="1.514" transform="translate(28.318 56.132) rotate(90)" fill="#181919"/></g><g transform="translate(66 53.395)"><g transform="translate(0 9.786)"><path d="M926.919,1478.583c-1.745-.227-9.51.666-12.762,2.045s-8.859,5.954-9.967,7.511-2.645,8.541-3.458,9.589a59.439,59.439,0,0,0-4.36,5.751c-.75,1.448.027,4.487-.482,7.709a58.317,58.317,0,0,1-1.446,6.945c-.23.528-3.783,2.841-6.482,3.816,4.276,1.938,8.344,5.094,11.358,6.118s14.519,5.481,21.927,6.56,16.956-1.138,22.234-1.16,9.778-1.676,11.919-1.454c-2.28-2.209-3.827-3.492-4.741-5.045s-1.423-1.144-1.426-3.915a16.506,16.506,0,0,1,.6-4.71c.488-2.417-.225-4.851-.887-7.619s.03-6.11-.44-8.426-1.782-7.367-3.022-9.335-4.374-5.052-6.7-7.19A39.3,39.3,0,0,0,926.919,1478.583Z" transform="translate(-887.961 -1478.548)" fill="#ccccd1"/><path d="M927.386,1536.042c-.772-.048-1.513-.124-2.2-.224-6.154-.9-15.328-4.2-19.737-5.788-.91-.328-1.628-.587-2.127-.756a32.314,32.314,0,0,1-5.454-2.875c-1.655-1-3.359-2.021-5.131-2.883,2.509-1.064,5.636-3.053,5.919-3.7a57,57,0,0,0,1.471-7.031,22.856,22.856,0,0,0,.163-4.3,7.881,7.881,0,0,1,.284-3.3,39.885,39.885,0,0,1,3.443-4.6c.368-.45.685-.838.884-1.095a20.5,20.5,0,0,0,1.559-4.328,27.021,27.021,0,0,1,1.907-5.273,36.024,36.024,0,0,1,9.818-7.392c3.045-1.292,10.253-2.172,12.366-2.04.063,0,.121.009.173.015a38.591,38.591,0,0,1,11.71,7.106c1.54,1.415,5.271,4.94,6.643,7.119,1.228,1.949,2.535,7.052,2.975,9.217a17.253,17.253,0,0,1,.15,3.607,19.13,19.13,0,0,0,.293,4.83q.1.412.2.816c.6,2.442,1.111,4.551.687,6.651-.033.161-.074.329-.122.524a15.562,15.562,0,0,0-.487,4.257c0,2.04.275,2.474.841,3.189a7.335,7.335,0,0,1,.634.9,19.057,19.057,0,0,0,3.464,3.844l.7.667a29.027,29.027,0,0,0-3.3.519,41.454,41.454,0,0,1-7.744.939,69,69,0,0,0-7.035.616,74.515,74.515,0,0,1-12.942.772Z" transform="translate(-891.847 -1480.086)" fill="#e5e5eb"/><path d="M997.989,1533.781c-6.3,2.242-12.5,4.607-14.1,5.851s-4.9,8.05-5.475,11.861-5.323,12.135-3.439,17.155,13.474,6.611,17.263,8.2,20.21-.931,22.8-.8.911-8.691,1.633-11.117c1.484-4.987,1.449-11.911-2.742-16.155S1009.536,1529.673,997.989,1533.781Z" transform="translate(-958.472 -1522.952)" fill="#e5e5eb" opacity="0.3" style="mix-blend-mode:multiply;isolation:isolate"/><path d="M982.729,1501.364c-4.372,1.556-8.669,3.2-9.778,4.059s-3.4,5.584-3.8,8.228-3.692,8.418-2.386,11.9,7.679,6.58,10.307,7.681,13.952-3.186,15.747-3.1,5.569-7.765,6.708-9.1-.521-9.047-3.428-11.992S990.739,1498.514,982.729,1501.364Z" transform="translate(-951.894 -1496.617)" fill="#ccccc4" opacity="0.3" style="mix-blend-mode:screen;isolation:isolate"/><path d="M1001.3,1513.094a32.6,32.6,0,0,0-5.495,2.281,11.082,11.082,0,0,0-2.134,4.623c-.225,1.486-2.075,4.73-1.341,6.687s4.315,3.7,5.792,4.316,7.84-1.79,8.849-1.74,3.129-4.364,3.769-5.114-.293-5.085-1.927-6.739S1005.8,1511.492,1001.3,1513.094Z" transform="translate(-972.824 -1506.394)" fill="#ccccc4" opacity="0.3" style="mix-blend-mode:screen;isolation:isolate"/><g transform="translate(0 8.682)"><path d="M955.4,1570.116c-2.28-2.209-3.827-3.492-4.741-5.045s-1.423-1.144-1.426-3.915a16.508,16.508,0,0,1,.6-4.71c.488-2.417-.225-4.851-.887-7.619s.03-6.11-.44-8.426-1.782-7.367-3.022-9.335a38.064,38.064,0,0,0-5.151-5.734,54.474,54.474,0,0,1,2.272,8.636c.482,3.543,2.315,6.12,2.285,6.587s-2.285,4.664-2.365,5.949.956,5.336-.825,7.57-5.337,4.708-7.892,6.189-5.319,2.8-5.328,2.936,11.544,1.03,12.031,1.676-9.422.906-12.2,1-5.3-1.738-7.151-1.678-11.875.049-12.828-.187-5.36-2.885-5.88-3.005-3.153-1.6-4.287-1.763,5.453-1.418,5.469-1.681-5-1.632-5.313-2.971.649-5.411.9-6.539-1.782-3.841-1.45-4.946,3.963-5.714,4.4-7.094a19.646,19.646,0,0,0,.127-4.614,23.065,23.065,0,0,1-1.567,4.436,59.489,59.489,0,0,0-4.36,5.751c-.75,1.448.027,4.487-.482,7.709a58.315,58.315,0,0,1-1.446,6.945c-.23.528-3.783,2.841-6.482,3.816,4.276,1.938,8.344,5.094,11.358,6.119s14.519,5.481,21.927,6.56,16.956-1.138,22.234-1.16S953.257,1569.895,955.4,1570.116Z" transform="translate(-887.961 -1525.333)" fill="#dbdbe0" style="mix-blend-mode:multiply;isolation:isolate"/><path d="M1059.651,1644.471c-.713.057-6.843.51-7.569.875s-7.549,9.143-8.118,9.811,7.636-3.978,9.183-4.35,8.709-5.2,9.213-5.756S1063.152,1644.192,1059.651,1644.471Z" transform="translate(-1014.989 -1622.275)" fill="#e5e3e6" style="mix-blend-mode:multiply;isolation:isolate"/><path d="M1004.291,1545.927c.124.525,1.43,5.249,1.744,5.854s-3.157-2.015-3.953-2.416,1.778-4.989,2.062-5.792S1004.155,1545.35,1004.291,1545.927Z" transform="translate(-980.781 -1540.063)" fill="#e5e3e6" style="mix-blend-mode:multiply;isolation:isolate"/><path d="M966.785,1680.241a27.476,27.476,0,0,0,3.93.311c.2-.053,3.058-2.152,3.458-2.471s-3.052,1.032-3.419,1.131S966.276,1680.128,966.785,1680.241Z" transform="translate(-952.121 -1649.694)" fill="#e5e3e6" style="mix-blend-mode:multiply;isolation:isolate"/></g><g transform="translate(29.909 0.638)"><path d="M1056.67,1481.984c-1.752.835-5.764,2.167-6.972,5.551s-.391,3.434,1.354,1.785S1055.148,1483.831,1056.67,1481.984Z" transform="translate(-1049.124 -1481.984)" fill="#e5e3e6" style="mix-blend-mode:multiply;isolation:isolate"/><path d="M1099.1,1484.5c.38,2.369.858,11.6,2.649,13.884s3.231,2.723,3.76-1.992S1102.452,1490.3,1099.1,1484.5Z" transform="translate(-1089.828 -1484.033)" fill="#e5e3e6" style="mix-blend-mode:multiply;isolation:isolate"/></g></g><g transform="translate(26.793 0)"><path d="M1044.827,1436.195c-1.249-1.547-3.271-3.1-4.449-5.126s-1.291-2.542-8.044-5.252c1.583,2.777,1.583,5.646,3.293,7.334C1037.135,1434.642,1042.009,1435.4,1044.827,1436.195Z" transform="translate(-1032.334 -1425.817)" fill="#ccccd1"/><path d="M1048.359,1439.618c-.431-.106-.886-.213-1.356-.323-2.458-.578-5.754-1.4-6.808-2.44-.9-.891-1.063-2.049-1.526-3.508a23.972,23.972,0,0,0-1.147-2.782c5.561,2.27,5.946,2.833,6.93,4.535l.12.207a18.106,18.106,0,0,0,2.948,3.454c.29.293.573.578.839.859Z" transform="translate(-1036.559 -1429.683)" fill="#e5e5eb"/><path d="M1073.349,1462.8c-1.049-.891-1.974-1.589-2.41-1.955s-1.857-1.454-1.757-.773S1069.546,1461.3,1073.349,1462.8Z" transform="translate(-1062.34 -1453.534)" fill="#e5e3e6" style="mix-blend-mode:multiply;isolation:isolate"/><g transform="translate(11.792 5.013)"><path d="M1095.876,1457.97c1.707-1.088,4.091-4.249,6.939-5.017,1.741-.469,5.141.459,6.813,1.217-1.641,1.862-4.2,3.95-5.663,4.305C1101.553,1459.06,1098.854,1458.208,1095.876,1457.97Z" transform="translate(-1095.876 -1452.827)" fill="#ccccd1"/><path d="M1104.184,1460c-.858-.053-1.744-.186-2.683-.328-.616-.093-1.246-.188-1.892-.263.4-.331.825-.724,1.263-1.129,1.421-1.314,3.032-2.8,4.831-3.289a4.81,4.81,0,0,1,1.509-.1,16.583,16.583,0,0,1,4.62,1.107c-1.557,1.669-3.848,3.518-5.153,3.834a8.248,8.248,0,0,1-2.5.166Z" transform="translate(-1098.916 -1454.493)" fill="#e5e5eb"/><path d="M1103.778,1471.345c.876-.4,2.007-1.421,2.459-1.6a3.065,3.065,0,0,1,1.9.177C1108.445,1470.133,1105.37,1471.016,1103.778,1471.345Z" transform="translate(-1102.312 -1466.538)" fill="#e5e3e6" style="mix-blend-mode:multiply;isolation:isolate"/></g><g transform="translate(9.479 8.564)"><path d="M1086.117,1471.976a3.316,3.316,0,0,0-2.683,1.083c-.213.48,1.2,1.588,1.723,1.753,1.027.319,3.042,0,3.093-.516A3.247,3.247,0,0,0,1086.117,1471.976Z" transform="translate(-1083.411 -1471.964)" fill="#e5e5eb"/><path d="M1091.057,1475.472a2.627,2.627,0,0,1-2.978,1.66,3.309,3.309,0,0,0,.879.536c1.027.319,3.042,0,3.093-.516A3.1,3.1,0,0,0,1091.057,1475.472Z" transform="translate(-1087.213 -1474.821)" fill="#e5e3e6" style="mix-blend-mode:multiply;isolation:isolate"/></g></g></g></g></g></svg>