<svg xmlns="http://www.w3.org/2000/svg" xmlns:xlink="http://www.w3.org/1999/xlink" width="140" height="140" viewBox="0 0 140 140">
  <defs>
    <clipPath id="clip-path">
      <circle id="楕円形_458" data-name="楕円形 458" cx="70" cy="70" r="70" transform="translate(0 0.477)" fill="#f7f3e5"/>
    </clipPath>
  </defs>
  <g id="recommend_obj28" transform="translate(0 -0.477)">
    <circle id="楕円形_23" data-name="楕円形 23" cx="70" cy="70" r="70" transform="translate(0 0.477)" fill="#f7f3e5"/>
    <g id="マスクグループ_74" data-name="マスクグループ 74" clip-path="url(#clip-path)">
      <g id="グループ_13203" data-name="グループ 13203" transform="translate(-990.661 -232.242)">
        <path id="パス_82544" data-name="パス 82544" d="M1208.955,777.184c-.013-.053-.028-.106-.042-.155-.4-1.288-1.565-.818-2.392-.1-2.88,2.5-4.279,6.122-5.815,9.557a36.082,36.082,0,0,0-2.743,8.674c-.382,1.906-.355,4.516,2.294,3.39a7.919,7.919,0,0,0,1.883-1.153c3.685-2.992,4.523-7.141,5.642-11.564a43.771,43.771,0,0,0,.952-4.9A12.235,12.235,0,0,0,1208.955,777.184Z" transform="translate(-78.809 -232.594)" fill="#fea621"/>
        <path id="パス_82545" data-name="パス 82545" d="M1195.9,760.524l7.913,12.839,2.3-3.147-5.825-12.8Z" transform="translate(-77.96 -224.116)" fill="#fb8a81"/>
        <path id="パス_82546" data-name="パス 82546" d="M1209.581,780.724l-3.508,1.131s-5.226,10.183-.8,8.306C1210.013,788.15,1209.581,780.724,1209.581,780.724Z" transform="translate(-81.382 -234.625)" fill="#fb8a81"/>
        <path id="パス_82547" data-name="パス 82547" d="M1203.121,792.8s2.372-2.835,4.359-1.143,1.174,1.766,1.174,1.766l-2.749,4.871-3.428-.549Z" transform="translate(-80.925 -239.314)" fill="#fea621"/>
        <path id="パス_82548" data-name="パス 82548" d="M1114.842,798.146c.017-.052.032-.1.045-.154.332-1.309-.9-1.518-1.983-1.341-3.765.62-6.854,2.967-9.964,5.084a36.145,36.145,0,0,0-6.888,5.945c-1.323,1.424-2.67,3.657.177,4.091a7.906,7.906,0,0,0,2.207,0c4.707-.613,7.6-3.707,10.872-6.883a44.157,44.157,0,0,0,3.384-3.676A12.263,12.263,0,0,0,1114.842,798.146Z" transform="translate(-32.254 -241.783)" fill="#fea621"/>
        <path id="パス_82549" data-name="パス 82549" d="M1146.194,321.829c1.485,1.153-2.067,2.162-2.835,2.124-1.938-.1-4.426-2.034-5.351-3.715-1.824-3.321-.153-9.75,2.945-11.763a7.283,7.283,0,0,1,5.555-1.151,2.215,2.215,0,0,1,1.385,3.181c2.4-2.284,4.8.216,5.264,1.375.547,1.367.4,4.1-1.574,4.1,1.125.315.962,2.408.646,3.28-.855,2.369-3.776,2.906-5.929,2.752C1146.285,322.038,1146.18,321.818,1146.194,321.829Z" transform="translate(-51.511 -21.076)" fill="#bf4d1b"/>
        <path id="パス_82550" data-name="パス 82550" d="M1158.47,327.755a6.693,6.693,0,0,1-6.521-1.849c-.9-.854-3.618-3.771-1.6-4.844,1.542-.821,4.432.648,5.607,1.593A6.651,6.651,0,0,1,1158.47,327.755Z" transform="translate(-57.089 -27.233)" fill="#5462ab"/>
        <path id="パス_82551" data-name="パス 82551" d="M1114.5,327.755a6.693,6.693,0,0,0,6.521-1.849c.9-.854,3.619-3.771,1.6-4.844-1.542-.821-4.432.648-5.606,1.593A6.652,6.652,0,0,0,1114.5,327.755Z" transform="translate(-41.253 -27.233)" fill="#5462ab"/>
        <path id="パス_82552" data-name="パス 82552" d="M1131.255,587.343s8,44.754,16.947,65.943c3.673,8.7,19.9,32.274,19.9,32.274l6.316-2.383c.539-.2-15.955-34.127-15.955-34.127l-9.121-66.651Z" transform="translate(-48.807 -145.191)" fill="#80aea6"/>
        <path id="パス_82553" data-name="パス 82553" d="M1120.409,774.79v15.082l3.605-1.474,1.756-13.952Z" transform="translate(-43.916 -231.794)" fill="#fb8a81"/>
        <path id="パス_82554" data-name="パス 82554" d="M1118.9,799.176l-3.581-.877s-9.792,5.928-5.042,6.65C1115.373,805.725,1118.9,799.176,1118.9,799.176Z" transform="translate(-38.762 -242.551)" fill="#fb8a81"/>
        <path id="パス_82555" data-name="パス 82555" d="M1104.837,581.931s3.68,48.368,5.236,71.281c1.212,17.834,2.073,35.775,2.073,35.775s5.66-.816,7.311-1.052,5.894-107.183,5.894-107.183Z" transform="translate(-36.894 -144.448)" fill="#80aea6"/>
        <g id="グループ_13200" data-name="グループ 13200" transform="translate(1104.363 371.545)">
          <g id="グループ_13199" data-name="グループ 13199" transform="translate(0 0)">
            <path id="パス_82556" data-name="パス 82556" d="M1171.168,463.52l4.938,26.246,4.461-.294-3.984-26.667Z" transform="translate(-1171.168 -462.806)" fill="#eabf98"/>
            <path id="パス_82557" data-name="パス 82557" d="M1174.087,479.017l3.335,17.738,4.461-.294.8-18.158Z" transform="translate(-1172.484 -469.794)" fill="#f86b97"/>
            <path id="パス_82558" data-name="パス 82558" d="M1181.255,502.679c-1.095.017-2.193-.03-2.27,1.051-.049.7,2.167,10.362,2.126,12.271-.043,2.011-.287,3.05.885,4.872.585.909,2.592,3.528,3.848,3.342-.1-.827-1.065-1.673-1.326-2.551a4.862,4.862,0,0,1-.2-2.18c2,.384,3.338,2.317,4.668,3.707,1.581,1.649,4.6,4.555,7.034,4.4-.447-1.06-2.231-1.849-2.959-2.834a5.936,5.936,0,0,1-1.236-2.265c1.547,1.519,3.288,2.282,5.077,3.433,1.09.706,2.722,1.8,4.085,1.14-.768-.988-2.276-1.484-3.152-2.465-.389-.435-1.387-1.169-1.716-1.645.6.221,2.3,1.214,2.993,1.011.891-.26.2-.683-.332-1.037a23.148,23.148,0,0,1-3.367-2.675,15.878,15.878,0,0,0-1.561-1.56c.827.606,2.305,1.422,3.323.914a24.947,24.947,0,0,1-2.364-1.677c-.522-.453-.918-1.073-1.464-1.481-2.03-1.509-3.971-1.068-5.921-2.793-4.432-3.927-3.167-10.485-4.991-11.056A5.488,5.488,0,0,0,1181.255,502.679Z" transform="translate(-1174.692 -480.74)" fill="#f86b97"/>
          </g>
          <path id="パス_82559" data-name="パス 82559" d="M1206.963,537.491a.379.379,0,0,1-.234-.081l-3.556-2.76a.384.384,0,1,1,.47-.607l3.556,2.76a.385.385,0,0,1-.236.688Z" transform="translate(-1185.533 -494.893)" fill="#d1595f"/>
        </g>
        <path id="パス_82560" data-name="パス 82560" d="M1162.429,368.272s4.64,1.757,8.168,10.87,4.605,42.016,4.605,42.016l-9.345.5Z" transform="translate(-62.865 -48.631)" fill="#fea621"/>
        <path id="パス_82561" data-name="パス 82561" d="M1123.648,360.383l-15.357.247-9.61,7.855,2.246,42.072-12.391,105.777,57.9-.769L1132,408.7l.464-40.812Z" transform="translate(-29.543 -45.073)" fill="#fea621"/>
        <path id="パス_82562" data-name="パス 82562" d="M1133.07,407.818l-1.813-43.105-5.471-4.23-1.257,20.058h-13.257l-1.258-20.058-5.47,4.23-1.386,42.179-11.216,79.536,26.2.376,27.224-.376Z" transform="translate(-31.079 -45.118)" fill="#b92b34"/>
        <path id="パス_82563" data-name="パス 82563" d="M1142.128,281.321c-1.257,7.878-9.135,15.073-9.135,15.073l-15.984-.116s-7.051-6.507-6.9-13.478a40.682,40.682,0,0,1,.625-6.732,13.229,13.229,0,0,1,2.376-5.87c2.809-3.388,7.089-4.828,10.463-5.437a27.982,27.982,0,0,1,3.821-.4c.831-.031,1.336,0,1.336,0l.074.015,3.285.861a12.9,12.9,0,0,1,1.264.654C1136.424,267.643,1143.695,271.5,1142.128,281.321Z" transform="translate(-39.269 -1.765)" fill="#bf4d1b"/>
        <path id="パス_82564" data-name="パス 82564" d="M1139.85,297.186a13.409,13.409,0,1,1-13.7-12.752A13.234,13.234,0,0,1,1139.85,297.186Z" transform="translate(-40.595 -10.823)" fill="#eabf98"/>
        <path id="パス_82565" data-name="パス 82565" d="M1166.551,304.092a4.246,4.246,0,1,1-4.343-4.154A4.248,4.248,0,0,1,1166.551,304.092Z" transform="translate(-60.894 -17.815)" fill="#eabf98"/>
        <path id="パス_82566" data-name="パス 82566" d="M1112.849,283.1a24.283,24.283,0,0,0-.99,4.258c-.1.826-.586,2.783.021,3.459.861-1.173,1.225-2.7,2.23-3.808a35.44,35.44,0,0,1,4.328-4.138,7.714,7.714,0,0,1-.614,2.643,18.1,18.1,0,0,0,5.121-4.13c1.311,2.041,3.922,3.461,5.879,4.712,1.719,1.1,4.279,2.833,6.314,3.149-.746-1.716-1.971-3.255-2.2-5.186,1.29,1.5,2.006,3.552,3.348,5.107a12.261,12.261,0,0,0,3.766,3.473c1.438-3.007,2.584-5.754,1.9-9.294a15.218,15.218,0,0,0-3.876-7.017,12.461,12.461,0,0,0-6.538-3.474c-.8-.193-1.96.047-2.723-.377a3.994,3.994,0,0,0-2.138-.495,15.4,15.4,0,0,0-10.109,4.312C1114.505,278.148,1113.693,280.415,1112.849,283.1Z" transform="translate(-39.934 -5.209)" fill="#bf4d1b"/>
        <path id="パス_82567" data-name="パス 82567" d="M1126.367,300.659a1.343,1.343,0,0,1-.648,1.708,1.18,1.18,0,0,1-1.586-.7,1.342,1.342,0,0,1,.654-1.706A1.18,1.18,0,0,1,1126.367,300.659Z" transform="translate(-45.553 -17.782)"/>
        <path id="パス_82568" data-name="パス 82568" d="M1143.969,300.659a1.344,1.344,0,0,1-.649,1.708,1.184,1.184,0,0,1-1.589-.7,1.348,1.348,0,0,1,.655-1.706A1.182,1.182,0,0,1,1143.969,300.659Z" transform="translate(-53.49 -17.782)"/>
        <path id="パス_82569" data-name="パス 82569" d="M1135.19,308.16a.312.312,0,0,1-.229-.1c-.117-.124-.243-.234-.365-.343a1.928,1.928,0,0,1-.861-1.531,12.709,12.709,0,0,1,.832-2.679c.2-.536.388-1.043.444-1.265a.315.315,0,1,1,.611.154c-.065.256-.25.754-.464,1.33a14.951,14.951,0,0,0-.793,2.477c-.011.432.228.666.65,1.042.136.121.275.244.4.382a.315.315,0,0,1-.229.531Z" transform="translate(-49.925 -18.748)"/>
        <g id="グループ_13201" data-name="グループ 13201" transform="translate(1080.563 289.799)">
          <path id="パス_82570" data-name="パス 82570" d="M1132.855,319.049q-.264,0-.521-.025a4.95,4.95,0,0,1-4.509-4.646.41.41,0,0,1,.36-.456.415.415,0,0,1,.457.361,4.161,4.161,0,0,0,3.774,3.923,4.891,4.891,0,0,0,5.125-3.434.411.411,0,1,1,.781.255A5.707,5.707,0,0,1,1132.855,319.049Z" transform="translate(-1127.823 -313.919)" fill="#d21337"/>
        </g>
        <path id="パス_82571" data-name="パス 82571" d="M1143.652,280.5a20.365,20.365,0,0,1-3.055,5.522c-.555.688-1.112,1.367-1.7,2.038-.02-1.825.568-3.651.5-5.448a17.282,17.282,0,0,0-1.532-5.613,16.9,16.9,0,0,0-7.047-8.326c-5.3-3.032-11.665-.46-15.617,3.64a15.694,15.694,0,0,0-2.112,2.72,34.331,34.331,0,0,0-2.45,4.621c-.193.446-.372.908-.551,1.383.092-4.754-.652-10.18,2.125-14.28a14.03,14.03,0,0,1,4.776-4c3.529-1.968,7.248-2.347,11.241-2.325,3.174.016,15.411,1.386,18.453,1.857a6.073,6.073,0,0,1,1.743.326c.652.373.488.165.1.8-.912,1.514-2.444,2.7-3.325,4.289a7.752,7.752,0,0,0-.866,2.669c-.14,1.239.518,2.4.547,3.675A17.833,17.833,0,0,1,1143.652,280.5Z" transform="translate(-39.25 0)" fill="#5462ab"/>
        <path id="パス_82572" data-name="パス 82572" d="M1133.257,347.229l7.772-.159a11.9,11.9,0,0,1-2.52-2.085c-2.029-1.908-2.985-15.392-2.985-15.392h-2.5v.026l0-.026h-2.506s-.953,13.484-2.982,15.392l-2.028,1.91,7.28.335v.022l.238-.01.237.01Z" transform="translate(-46.213 -31.189)" fill="#eabf98"/>
        <path id="パス_82573" data-name="パス 82573" d="M1141.022,285.874a.385.385,0,0,1-.245-.088,5.162,5.162,0,0,1-.677-.684.384.384,0,0,1,.59-.492,4.463,4.463,0,0,0,.576.583.384.384,0,0,1-.245.681Zm-1.842-2.5a.384.384,0,0,1-.337-.2l-.428-.787a.384.384,0,1,1,.676-.365l.424.78a.384.384,0,0,1-.151.522A.375.375,0,0,1,1139.18,283.375Zm-1.367-2.8a.383.383,0,0,1-.358-.246q-.166-.428-.3-.866a.384.384,0,1,1,.734-.227c.085.275.18.547.284.816a.384.384,0,0,1-.358.523Zm-.732-3.023a.384.384,0,0,1-.382-.352c-.021-.251-.033-.5-.033-.758l0-.172a.384.384,0,0,1,.384-.377h.008a.384.384,0,0,1,.377.391v.158q0,.348.029.693a.385.385,0,0,1-.35.415Z" transform="translate(-51.247 -6.971)" fill="#fd762f"/>
        <path id="パス_82574" data-name="パス 82574" d="M1151.942,291.652a.379.379,0,0,1-.241-.086c-.051-.041-.1-.082-.147-.126a.384.384,0,1,1,.517-.568c.036.033.074.065.113.1a.384.384,0,0,1-.241.683Zm-1.247-2.012a.384.384,0,0,1-.363-.259c-.093-.269-.177-.542-.26-.813a.407.407,0,0,1,.247-.5.361.361,0,0,1,.472.229l.016.051c.08.261.161.525.251.786a.384.384,0,0,1-.237.489A.4.4,0,0,1,1150.7,289.639Zm-1-2.954a.384.384,0,0,1-.36-.251c-.1-.276-.205-.553-.313-.828a.384.384,0,0,1,.717-.278q.162.418.317.84a.384.384,0,0,1-.228.494A.375.375,0,0,1,1149.691,286.685Zm-1.2-2.861a.407.407,0,0,1-.337-.18.49.49,0,0,1-.029-.051c-.134-.254-.271-.51-.41-.763a.384.384,0,1,1,.673-.37q.211.385.42.782a.371.371,0,0,1-.114.52A.365.365,0,0,1,1148.486,283.824Zm-1.575-2.71a.382.382,0,0,1-.323-.176c-.16-.246-.322-.488-.49-.726a.385.385,0,0,1,.629-.443q.261.371.507.752a.385.385,0,0,1-.322.593Zm-1.882-2.486a.384.384,0,0,1-.287-.127q-.289-.323-.6-.636a.385.385,0,0,1,.547-.541q.323.328.624.663a.384.384,0,0,1-.286.641Z" transform="translate(-54.569 -7.567)" fill="#fd762f"/>
        <path id="パス_82575" data-name="パス 82575" d="M1114.387,292.027l-.037,0a.384.384,0,0,1-.346-.418c.028-.293.074-.6.136-.921a.384.384,0,0,1,.754.149,8.429,8.429,0,0,0-.125.843A.385.385,0,0,1,1114.387,292.027Zm.754-3.021a.375.375,0,0,1-.133-.024.384.384,0,0,1-.227-.494c.1-.28.217-.563.338-.846a.384.384,0,1,1,.707.3c-.116.271-.225.542-.323.81A.386.386,0,0,1,1115.141,289.006Zm1.307-2.834a.385.385,0,0,1-.336-.569c.145-.264.3-.527.449-.786a.384.384,0,0,1,.661.393q-.224.377-.436.763A.384.384,0,0,1,1116.448,286.173Zm1.671-2.635a.384.384,0,0,1-.31-.61q.272-.374.553-.723a.384.384,0,1,1,.6.481c-.179.223-.357.455-.532.695A.381.381,0,0,1,1118.119,283.537Zm2.053-2.347a.38.38,0,0,1-.283-.125.384.384,0,0,1,.023-.543c.242-.221.483-.422.715-.6a.384.384,0,1,1,.459.616c-.211.158-.432.341-.655.546A.383.383,0,0,1,1120.172,281.19Z" transform="translate(-41.027 -8.758)" fill="#fd762f"/>
        <path id="パス_82580" data-name="パス 82580" d="M1139.128,332.116h-3.173a.384.384,0,1,1,0-.769h3.173a.384.384,0,1,1,0,.769Z" transform="translate(-50.753 -31.98)"/>
        <path id="パス_82581" data-name="パス 82581" d="M1089.844,456.6c0,2.813-2.6,9.205-5,9.205s-4.33-2.277-4.33-5.09,1.941-5.091,4.33-5.091S1089.844,453.791,1089.844,456.6Z" transform="translate(-25.927 -87.758)" fill="#fb8a81"/>
        <path id="パス_82582" data-name="パス 82582" d="M1100.462,369.225s-2.622-.286-7.379,8.25-9.726,40.686-9.726,40.686l7.818,2.47Z" transform="translate(-27.207 -49.06)" fill="#fea621"/>
        <g id="グループ_13202" data-name="グループ 13202" transform="translate(1023.023 323.555)">
          <path id="パス_82583" data-name="パス 82583" d="M1036.563,380.5c-2.662-1.675-9.627-5.052-9.532-3.948a4.7,4.7,0,0,1,.049.485c-1.163-.711-2.631-1.688-4.024-1.629-.385.782,2.846,2.466,3.4,2.92a5.678,5.678,0,0,0-1.323-.126c-.111.472.389.716.726.928,1.554.976,2.684,1.65,4.244,2.62.812.5,1.572,1.074,2.345,1.633.168.121.954.507.764.808-.162.253-1.054-.105-1.283-.195a6.018,6.018,0,0,1-1.535-.959c-.667-.567-1.775-1.494-2.726-1.263-.812.2-.114.613.334.971.558.443,1.143.824,1.673,1.294.417.371.757.927,1.2,1.241a15.086,15.086,0,0,0,2.74,1.163c1.114.463,2.234.843,3.3,1.406a10.826,10.826,0,0,1,2.046,1.045c.591.5,1.19,1.021,1.779,1.533a21.731,21.731,0,0,1,2.094,2.082c1.212,1.383,1.84,3.3,2.6,4.923.983-.664,2.386-.664,3.523-1.052a24.141,24.141,0,0,0-1.209-3.116,10.3,10.3,0,0,1-.885-1.9,11.559,11.559,0,0,1-.624-2.264c-.022-.7.268-1.331.289-1.994a4.259,4.259,0,0,0-.623-1.743c-.289-.635-.6-1.257-.866-1.906a22.213,22.213,0,0,1-1.694-3.866c-.1-.5-.741-2.562-1.113-1.036-.312,1.283-.137,2.589-.365,3.85-.149.817-.9.371-1.539.107A25.686,25.686,0,0,1,1036.563,380.5Z" transform="translate(-1023.023 -375.401)" fill="#f86b97"/>
          <path id="パス_82584" data-name="パス 82584" d="M1068.071,438.451l-7.8-34.186,2.7-3.438,15.461,33.691Z" transform="translate(-1039.819 -386.867)" fill="#f86b97"/>
        </g>
        <path id="パス_82585" data-name="パス 82585" d="M1038.948,385.793a.378.378,0,0,1-.165-.038l-9.556-4.561a.384.384,0,0,1,.332-.693l9.555,4.561a.385.385,0,0,1-.166.731Z" transform="translate(-2.699 -54.128)" fill="#d1595f"/>
        <path id="パス_82586" data-name="パス 82586" d="M1041.2,383.824a.378.378,0,0,1-.165-.038l-9.555-4.562a.384.384,0,1,1,.332-.693l9.555,4.562a.384.384,0,0,1-.166.731Z" transform="translate(-3.714 -53.24)" fill="#d1595f"/>
        <path id="パス_82587" data-name="パス 82587" d="M1133.266,451.567l-8.151-2.493-.479,6.329,8.63-2.493,8.631,2.4.1-6.425Z" transform="translate(-45.822 -84.982)" fill="#841f25"/>
        <path id="パス_82588" data-name="パス 82588" d="M1108.1,805.394s3.506-1.168,4.311,1.316.073,2.119.073,2.119l-4.895,2.7-2.631-2.265Z" transform="translate(-36.948 -245.626)" fill="#fea621"/>
      </g>
      <g id="グループ_13204" data-name="グループ 13204" transform="translate(37.4 15.684)">
        <path id="パス_82611" data-name="パス 82611" d="M670.639,59.673c-.478-1.825-.208-3.885-.911-5.653-.651-1.636-1.375-3.159-.33-4.738,1.1-1.659,3.759-2.673,5.893-2.712a11.74,11.74,0,0,1,5.175,1.492c2.507,1.344,4.575,3.029,5.6,5.55a4.4,4.4,0,0,1-1.788,5.354c-1.159.812-2.739,1.658-3.145,3.07a7.959,7.959,0,0,0,.052,2.874,3.157,3.157,0,0,1-.557,2.33,7.243,7.243,0,0,1-4.913,3.645c-.668.14-.415-.023-.793-.662-.214-.361-.115-.98-.2-1.367a6.166,6.166,0,0,0-.93-1.947A26.656,26.656,0,0,1,670.639,59.673Z" transform="translate(-660.054 -46.297)" fill="#5fba69"/>
        <path id="パス_82612" data-name="パス 82612" d="M667.335,58.839c-.478-1.825-.208-3.885-.912-5.653-.65-1.636-2.376-3.41-1.33-4.988,1.1-1.66,4.759-2.424,6.894-2.462a11.729,11.729,0,0,1,5.174,1.492,13.025,13.025,0,0,1,5.932,6.033c.878,2.161-.47,3.887-2.145,5.059-1.16.812-2.715,1.47-3.121,2.883a7.936,7.936,0,0,0,.052,2.874,4.982,4.982,0,0,1-.645,2.958c-.826,1.757-3.558,3.239-5.632,3.674-.667.139.392-.68.014-1.32-.213-.361-.115-.979-.2-1.367a6.188,6.188,0,0,0-.93-1.946A26.632,26.632,0,0,1,667.335,58.839Z" transform="translate(-657.289 -45.736)" fill="#ffba24"/>
        <path id="パス_82613" data-name="パス 82613" d="M653.058,72.153a8.462,8.462,0,0,0,2.166.83c2.28.46,3.963-2.228,4.544-3.766a5.706,5.706,0,0,0,.539-2.588,7.41,7.41,0,0,1,.167-3.6c1-2.333,5.357-3.645,4.246-6.75a9.97,9.97,0,0,0-1.592-2.232,9.04,9.04,0,0,0-2.472-2.311,17.065,17.065,0,0,0-3.746-2.054c-2.24-.666-5.621-.977-7.167.714-1.436,1.572-.148,4.565-1.552,6.24-.8.955-2.4,1.586-3.4,2.41a8.145,8.145,0,0,0-2.678,3.273,7.967,7.967,0,0,0-.144,2.885c-.05,1.883,2.755,3.074,4.256,3.831,1.774.894,3.62,1.54,5.4,2.392C652.115,71.653,652.584,71.91,653.058,72.153Z" transform="translate(-641.909 -48.029)" fill="#ffd426"/>
        <path id="パス_82614" data-name="パス 82614" d="M697.726,69.523c-.848-.478-1.734.8-.617,1C697.7,70.636,698.437,69.925,697.726,69.523Z" transform="translate(-678.703 -61.672)" fill="#ffba24"/>
        <path id="パス_82615" data-name="パス 82615" d="M686.394,75.885c-1.189-1.217,1.614-2.271,1.876-.76A1.052,1.052,0,0,1,686.394,75.885Z" transform="translate(-671.649 -65.012)" fill="#ffba24"/>
        <path id="パス_82616" data-name="パス 82616" d="M676.063,53.451c-1.189-1.218,1.614-2.271,1.876-.761A1.052,1.052,0,0,1,676.063,53.451Z" transform="translate(-664.697 -49.914)" fill="#ffba24"/>
        <path id="パス_82617" data-name="パス 82617" d="M681.908,58.637c-1.354.01-.61,1.736.457,1.176C683.157,59.4,682.816,58.63,681.908,58.637Z" transform="translate(-668.334 -54.418)" fill="#ffba24"/>
        <path id="パス_82618" data-name="パス 82618" d="M657.665,81.276c-1.6.228-.415,2.765.835,1.469C659.182,82.037,658.817,81.112,657.665,81.276Z" transform="translate(-651.993 -69.641)" fill="#ffba24"/>
        <path id="パス_82619" data-name="パス 82619" d="M657.119,92.09c-2.65-.987.561-3.12,1.226-1.219-.008-.024-.073,1.04-.055,1.008C658.054,92.3,657.69,92.3,657.119,92.09Z" transform="translate(-651.45 -75.597)" fill="#ffba24"/>
        <path id="パス_82620" data-name="パス 82620" d="M686.719,93.937c-.589.562-1.473,1.436.086,1.546.777.055,1.779-.332,1.633-1.184-.068-.395-.768-1.034-1.231-.945C686.927,93.408,686.9,93.766,686.719,93.937Z" transform="translate(-671.534 -77.776)" fill="#ffba24"/>
        <path id="パス_82621" data-name="パス 82621" d="M681.239,93.282c-.519-.517-1.486.384-.652.712C681.054,94.177,681.644,93.686,681.239,93.282Z" transform="translate(-667.718 -77.627)" fill="#ffba24"/>
        <path id="パス_82622" data-name="パス 82622" d="M681.962,109.1c-1.948-.986-.7,2.356.33,1C682.565,109.743,682.408,109.328,681.962,109.1Z" transform="translate(-668.174 -88.255)" fill="#ffba24"/>
        <path id="パス_82623" data-name="パス 82623" d="M651.615,86.141c-.355.956-2.518.188-1.642-.631C650.44,85.073,651.919,85.321,651.615,86.141Z" transform="translate(-647.196 -72.36)" fill="#ffba24"/>
        <path id="パス_82624" data-name="パス 82624" d="M656.713,101.408c-1.008.073-1.247-1.21-.052-.824C657.4,100.822,657.593,101.344,656.713,101.408Z" transform="translate(-651.296 -82.598)" fill="#ffba24"/>
      </g>
      <g id="グループ_13205" data-name="グループ 13205" transform="translate(9.398 43.691)">
        <path id="パス_82589" data-name="パス 82589" d="M492.479,103.61c-.244,1.6.689,5.481,2.053,5.688a2.978,2.978,0,0,0,.883-5.811C494.051,103.28,492.723,102.006,492.479,103.61Z" transform="translate(-486.985 -76.857)" fill="#fb8a81"/>
        <g id="グループ_13206" data-name="グループ 13206" transform="translate(0.338)">
          <g id="グループ_13205-2" data-name="グループ 13205" transform="translate(0 10.289)">
            <g id="グループ_13204-2" data-name="グループ 13204">
              <path id="パス_82590" data-name="パス 82590" d="M476.24,125.551c-.226,1.49,3.7,3.323,10.872,4.413s11.464.506,11.69-.983-3.7-3.324-10.87-4.413S476.467,124.061,476.24,125.551Z" transform="translate(-476.231 -101.647)" fill="#abcb3a"/>
              <path id="パス_82591" data-name="パス 82591" d="M476.516,79.545l22.453,3.413,5.086-22.016L478.2,57.012Z" transform="translate(-476.426 -55.806)" fill="#abcb3a"/>
              <path id="パス_82592" data-name="パス 82592" d="M481.584,54.562c-.226,1.49,5.4,3.582,12.572,4.671s13.165.765,13.391-.725-5.4-3.582-12.571-4.671S481.81,53.071,481.584,54.562Z" transform="translate(-479.889 -53.192)" fill="#abcb3a"/>
              <path id="パス_82593" data-name="パス 82593" d="M483.984,55.811c-.054.351.39.76,1.222,1.184,1.932.991,5.959,2.079,10.681,2.8s8.888.874,11.028.5c.919-.158,1.465-.416,1.518-.768.178-1.171-5.15-2.952-11.9-3.978S484.161,54.64,483.984,55.811Z" transform="translate(-481.533 -54.326)" fill="#8abd3e"/>
              <path id="パス_82594" data-name="パス 82594" d="M487.862,61.225c1.932.991,5.959,2.079,10.681,2.8s8.888.874,11.028.5c-1.933-.989-5.957-2.076-10.68-2.794S490,60.855,487.862,61.225Z" transform="translate(-484.19 -58.557)" fill="#76b440"/>
            </g>
            <path id="パス_82595" data-name="パス 82595" d="M540.622,96.007a.179.179,0,0,0,.2-.141l4.1-20.051a.179.179,0,1,0-.352-.072l-4.1,20.051a.179.179,0,0,0,.14.211Z" transform="translate(-520.188 -68.525)" fill="#8abd3e"/>
            <path id="パス_82596" data-name="パス 82596" d="M533.855,96.465a.179.179,0,0,0,.2-.141l4.1-20.051a.18.18,0,1,0-.352-.072l-4.1,20.051a.18.18,0,0,0,.14.212Z" transform="translate(-515.557 -68.838)" fill="#8abd3e"/>
            <path id="パス_82597" data-name="パス 82597" d="M527.087,96.927a.179.179,0,0,0,.2-.142l4.1-20.051a.179.179,0,1,0-.351-.072l-4.105,20.051a.18.18,0,0,0,.14.212Z" transform="translate(-510.926 -69.154)" fill="#8abd3e"/>
            <path id="パス_82598" data-name="パス 82598" d="M520.319,98.192a.179.179,0,0,0,.2-.146l3.461-19.679a.179.179,0,1,0-.353-.062l-3.462,19.679a.18.18,0,0,0,.146.208Z" transform="translate(-506.295 -70.274)" fill="#8abd3e"/>
            <path id="パス_82599" data-name="パス 82599" d="M513.773,97.412a.179.179,0,0,0,.2-.148l3.329-19.581a.18.18,0,0,0-.148-.207.184.184,0,0,0-.206.147L513.623,97.2a.179.179,0,0,0,.147.207Z" transform="translate(-501.816 -69.808)" fill="#8abd3e"/>
            <path id="パス_82600" data-name="パス 82600" d="M482.433,86.484h.009a.18.18,0,0,0,.2-.16l2.038-20.365a.179.179,0,0,0-.357-.036l-2.038,20.365A.18.18,0,0,0,482.433,86.484Z" transform="translate(-480.371 -61.794)" fill="#8abd3e"/>
            <path id="パス_82601" data-name="パス 82601" d="M488.76,88.933h.01a.18.18,0,0,0,.2-.161L491,68.408a.178.178,0,0,0-.16-.2.18.18,0,0,0-.2.161l-2.037,20.365A.18.18,0,0,0,488.76,88.933Z" transform="translate(-484.7 -63.469)" fill="#8abd3e"/>
            <path id="パス_82602" data-name="パス 82602" d="M495.085,91.382h.009a.18.18,0,0,0,.2-.16l2.038-20.366a.18.18,0,0,0-.358-.036l-2.038,20.366A.18.18,0,0,0,495.085,91.382Z" transform="translate(-489.028 -65.145)" fill="#8abd3e"/>
            <path id="パス_82603" data-name="パス 82603" d="M501.41,93.832h.009a.18.18,0,0,0,.2-.161l2.038-20.366a.179.179,0,0,0-.357-.036l-2.038,20.366A.18.18,0,0,0,501.41,93.832Z" transform="translate(-493.356 -66.821)" fill="#8abd3e"/>
            <path id="パス_82604" data-name="パス 82604" d="M507.955,95.053h0a.179.179,0,0,0,.2-.154l2.727-20.261a.179.179,0,1,0-.355-.048L507.8,94.852A.179.179,0,0,0,507.955,95.053Z" transform="translate(-497.835 -67.729)" fill="#8abd3e"/>
          </g>
          <path id="パス_82605" data-name="パス 82605" d="M516.6,39.408a75.783,75.783,0,0,0,3.528-7.134c2.248-5.3,2.768-8.721,1.587-10.456-.466-.685-1.438-1.44-3.422-1.149-1.852.272-3.749,2.1-5.636,5.446a36.679,36.679,0,0,0-2.229,4.754l1.4.52c.9-2.43,3.854-8.824,6.678-9.24,1.473-.216,1.845.331,1.968.511,1.586,2.328-2.333,11.051-5.175,16Z" transform="translate(-499.628 -20.605)" fill="#29140b"/>
          <path id="パス_82606" data-name="パス 82606" d="M522.029,77.708c-.183,1.205.364,2.289,1.223,2.419s1.7-.741,1.886-1.947-.364-2.288-1.223-2.419S522.212,76.5,522.029,77.708Z" transform="translate(-507.545 -58.338)" fill="#2a1003"/>
        </g>
        <path id="パス_82607" data-name="パス 82607" d="M476.917,62.879c.2-.827.169-1.693.353-2.522.069-.31.775-2.264,1.014-2.276a7.225,7.225,0,0,1,3.334.981,10.373,10.373,0,0,0,3.452,1.015c1.049.193,2.059.488,3.1.682,1.556.288,3.155.164,1.856,1.885a3.088,3.088,0,0,0-.833,1.74c-.243,1.624-1.192,3.186-1.119,4.839a16.31,16.31,0,0,1-.511,4.333c-.258,1.185-1.06.957-2.3.767-1.53-.233-3.062-.592-4.613-.84a33.409,33.409,0,0,1-3.458-1.066A5.827,5.827,0,0,1,475.936,72c-.367-.206-.158-.583-.775-.617C475.206,68.559,476.273,65.608,476.917,62.879Z" transform="translate(-475.161 -46.246)" fill="#fff"/>
        <path id="パス_82608" data-name="パス 82608" d="M480.862,75.344a.149.149,0,0,1-.03-.209l.2-.263a.15.15,0,0,1,.24.179l-.2.263a.148.148,0,0,1-.142.058A.143.143,0,0,1,480.862,75.344Zm.648-.868a.15.15,0,0,1-.03-.21l.338-.453a.15.15,0,0,1,.24.179l-.339.454a.151.151,0,0,1-.143.058A.146.146,0,0,1,481.51,74.476Zm.79-1.058a.15.15,0,0,1-.03-.21l.338-.454a.15.15,0,0,1,.24.18l-.338.453a.15.15,0,0,1-.143.059A.155.155,0,0,1,482.3,73.418Zm.79-1.058a.15.15,0,0,1-.03-.21l.338-.453a.15.15,0,1,1,.24.179l-.339.453a.149.149,0,0,1-.142.058A.145.145,0,0,1,483.09,72.36Zm.79-1.058a.15.15,0,0,1-.03-.209l.339-.454a.15.15,0,1,1,.24.18l-.338.453a.15.15,0,0,1-.143.058A.153.153,0,0,1,483.88,71.3Zm.791-1.058a.15.15,0,0,1-.03-.209l.339-.453a.15.15,0,1,1,.24.179l-.339.453a.151.151,0,0,1-.142.058A.154.154,0,0,1,484.67,70.244Zm.79-1.058a.15.15,0,0,1-.03-.21l.339-.453a.15.15,0,0,1,.24.179l-.339.453a.15.15,0,0,1-.143.058A.163.163,0,0,1,485.46,69.186Zm.79-1.058a.15.15,0,0,1-.03-.21l.338-.453a.15.15,0,0,1,.24.179l-.339.453a.148.148,0,0,1-.142.058A.154.154,0,0,1,486.25,68.128Zm.79-1.058a.15.15,0,0,1-.031-.21l.339-.454a.15.15,0,0,1,.24.179l-.339.453a.149.149,0,0,1-.142.058A.154.154,0,0,1,487.04,67.07Zm.79-1.058a.149.149,0,0,1-.03-.209l.339-.453a.149.149,0,1,1,.239.179l-.338.453a.15.15,0,0,1-.21.031Z" transform="translate(-479.021 -51.181)" fill="#8ad3e5"/>
        <path id="パス_82609" data-name="パス 82609" d="M503.474,76.378l-.1-.557a.15.15,0,1,1,.295-.054l.1.557a.15.15,0,0,1-.12.174.159.159,0,0,1-.049,0A.148.148,0,0,1,503.474,76.378Zm-.234-1.3-.1-.557a.15.15,0,1,1,.295-.053l.1.557a.149.149,0,0,1-.12.174.146.146,0,0,1-.05,0A.149.149,0,0,1,503.239,75.078Zm-.234-1.3-.1-.557a.149.149,0,1,1,.294-.053l.1.557a.15.15,0,0,1-.121.174.152.152,0,0,1-.049,0A.15.15,0,0,1,503.005,73.779Zm-.235-1.3-.1-.557a.149.149,0,1,1,.294-.053l.1.557a.15.15,0,0,1-.121.174.148.148,0,0,1-.049,0A.152.152,0,0,1,502.771,72.479Zm-.234-1.3-.1-.557a.15.15,0,0,1,.294-.053l.1.557a.149.149,0,0,1-.121.174.133.133,0,0,1-.049,0A.151.151,0,0,1,502.536,71.18Zm-.234-1.3-.1-.557a.15.15,0,1,1,.294-.053l.1.557a.149.149,0,0,1-.121.174.153.153,0,0,1-.048,0A.149.149,0,0,1,502.3,69.881Zm-.234-1.3-.1-.557a.15.15,0,0,1,.295-.053l.1.557a.149.149,0,0,1-.12.174.156.156,0,0,1-.05,0A.148.148,0,0,1,502.068,68.581Zm-.234-1.3-.1-.557a.15.15,0,0,1,.295-.053l.1.557a.15.15,0,0,1-.121.174.144.144,0,0,1-.049,0A.15.15,0,0,1,501.834,67.281Zm-.235-1.3-.1-.557a.15.15,0,0,1,.295-.053l.1.557a.15.15,0,0,1-.121.174.151.151,0,0,1-.174-.121Zm-.234-1.3-.046-.26a.149.149,0,1,1,.294-.053l.047.26a.149.149,0,0,1-.121.174.17.17,0,0,1-.049,0A.151.151,0,0,1,501.365,64.683Z" transform="translate(-493.059 -50.468)" fill="#8ad3e5"/>
        <path id="パス_82610" data-name="パス 82610" d="M486.71,75.086l-.553-.12a.15.15,0,1,1,.063-.293l.553.119a.15.15,0,0,1-.053.294Zm-1.291-.278-.553-.119a.15.15,0,1,1,.063-.293l.553.119a.15.15,0,0,1-.054.295Zm-1.291-.278-.554-.119a.15.15,0,0,1,.064-.293l.553.12a.149.149,0,0,1,.115.177.15.15,0,0,1-.169.117Zm-1.291-.278-.553-.119a.15.15,0,0,1,.063-.292l.552.119a.15.15,0,0,1-.054.294Zm-1.29-.277-.553-.12a.149.149,0,1,1,.063-.292l.553.119a.149.149,0,0,1-.054.294Zm-1.291-.278-.553-.119a.151.151,0,0,1-.115-.178.149.149,0,0,1,.178-.115l.553.119a.15.15,0,0,1-.054.295Zm6.872,1.042a.149.149,0,0,1-.109-.181l.136-.55a.152.152,0,0,1,.182-.109.15.15,0,0,1,.109.182l-.136.549a.151.151,0,0,1-.168.112Zm-8.163-1.32-.553-.119a.15.15,0,0,1,.063-.293l.553.119a.15.15,0,0,1-.054.295Zm-1.29-.278-.554-.119a.15.15,0,1,1,.064-.293l.553.119a.15.15,0,0,1-.054.294Zm-1.291-.278-.035-.008a.149.149,0,0,1-.114-.182l.125-.514a.15.15,0,1,1,.291.07l-.1.418a.15.15,0,0,1-.155.217Zm11.063.594a.148.148,0,0,1-.109-.181l.136-.55a.152.152,0,0,1,.182-.109.148.148,0,0,1,.108.181l-.136.549a.15.15,0,0,1-.167.113Zm-10.8-1.85a.151.151,0,0,1-.11-.181l.134-.55a.15.15,0,1,1,.291.071l-.134.55a.15.15,0,0,1-.168.113Zm11.117.569a.15.15,0,0,1-.109-.181l.136-.549a.151.151,0,0,1,.181-.109.149.149,0,0,1,.109.181l-.136.549a.15.15,0,0,1-.168.112Zm-10.8-1.852a.15.15,0,0,1-.11-.181l.134-.55a.149.149,0,0,1,.29.07l-.133.55a.15.15,0,0,1-.168.113Zm11.122.571a.15.15,0,0,1-.11-.182l.137-.549a.15.15,0,0,1,.29.072l-.137.549a.149.149,0,0,1-.167.112Zm-10.81-1.854a.15.15,0,0,1-.111-.181l.135-.549a.15.15,0,0,1,.291.07l-.134.55a.15.15,0,0,1-.168.113Zm11.129.572a.149.149,0,0,1-.11-.181l.137-.549a.151.151,0,0,1,.181-.109.149.149,0,0,1,.109.181l-.137.549a.149.149,0,0,1-.167.112Zm-10.817-1.855a.15.15,0,0,1-.11-.181l.134-.55a.15.15,0,0,1,.291.071l-.134.55a.149.149,0,0,1-.168.112Zm11.135.574a.149.149,0,0,1-.109-.181l.136-.55a.15.15,0,1,1,.291.073l-.137.549a.149.149,0,0,1-.167.112ZM477.9,66.475a.15.15,0,0,1-.11-.182l.133-.55a.15.15,0,0,1,.291.071l-.134.549a.15.15,0,0,1-.168.113Zm11.14.575a.15.15,0,0,1-.109-.181l.137-.549a.15.15,0,1,1,.29.072l-.136.549a.15.15,0,0,1-.168.112ZM478.21,65.192a.15.15,0,0,1-.11-.181l.134-.55a.15.15,0,1,1,.291.071l-.134.55a.15.15,0,0,1-.168.112Zm11.146.576a.15.15,0,0,1-.109-.182l.137-.549a.149.149,0,0,1,.29.072l-.136.55a.15.15,0,0,1-.167.112Zm-10.833-1.859a.151.151,0,0,1-.11-.181l.134-.55a.15.15,0,0,1,.291.071l-.134.55a.149.149,0,0,1-.168.112Zm11.152.578a.15.15,0,0,1-.109-.181l.136-.549a.15.15,0,0,1,.291.072l-.137.549a.149.149,0,0,1-.167.112Zm-10.839-1.861a.15.15,0,0,1-.11-.181l.134-.55a.15.15,0,1,1,.291.071l-.134.55a.15.15,0,0,1-.168.112Zm.313-1.283a.149.149,0,0,1-.11-.181l.073-.3a.15.15,0,0,1,.291.071l-.074.3a.149.149,0,0,1-.167.112Z" transform="translate(-475.892 -48.073)" fill="#8ad3e5"/>
      </g>
      <g id="グループ_13206-2" data-name="グループ 13206" transform="translate(-954.217 418.352) rotate(-22)">
        <path id="パス_82625" data-name="パス 82625" d="M1082.41,38.444s7.127,1.728,7.587,2.186,5.284,5.6,3.245,5.744a5.933,5.933,0,0,1-3.217-.557l-.347,1.442-4.015-1.669-4.315-5.558Z" transform="translate(-16.621 -1.166)" fill="#57bad1"/>
        <path id="パス_82626" data-name="パス 82626" d="M1075.864,44.755s-1.186,3.005-2.722,4.14a5.748,5.748,0,0,1-2.043,1.188s-.84,1.334.035,1.256a5.444,5.444,0,0,0,2.94-1.227,18.17,18.17,0,0,0,3.047-4.016Z" transform="translate(-9.997 -5.105)" fill="#57bad1"/>
        <path id="パス_82627" data-name="パス 82627" d="M1071.963,90.67a2.788,2.788,0,0,1-1.108,1.8c-1.012.77-15.485-3.358-15.94-4.546a2.785,2.785,0,0,1,.008-2.111s.04-.162.114-.458c.608-2.393,5.872-12.752,6.936-15.037.061-.129.127-.255.2-.376,1.288-2.264,3.958-2.954,4.653-3.2.732-.253.5-.584.5-.584l1.722-.042.1-.363.531.348.636-.015-.1.362,1.44.944s-.375.157.113.758c.465.573,2.367,2.566,2.27,5.169,0,.14-.015.282-.032.423-.3,2.5-1.151,14.12-1.9,16.475Z" transform="translate(0 -18.211)" fill="#ded4c7"/>
        <path id="パス_82628" data-name="パス 82628" d="M1072.642,97.166,1055.573,92.3c.607-2.393,5.872-12.752,6.936-15.037.061-.129.127-.255.2-.376l11.864,3.383c-.005.14-.015.282-.032.423C1074.234,83.193,1073.386,94.811,1072.642,97.166Z" transform="translate(-0.535 -25.156)" fill="#3b7e8e"/>
        <rect id="長方形_29818" data-name="長方形 29818" width="4.266" height="5.547" transform="translate(1066.863 48.283) rotate(-74.08)" fill="#3b7e8e"/>
        <path id="パス_82629" data-name="パス 82629" d="M1089.118,61.72l-.35-.1.894-3.136.35.1Z" transform="translate(-21.251 -13.673)" fill="#57bad1"/>
        <rect id="長方形_29819" data-name="長方形 29819" width="3.261" height="0.363" transform="translate(1068.479 48.222) rotate(-74.064)" fill="#57bad1"/>
        <rect id="長方形_29820" data-name="長方形 29820" width="3.261" height="0.364" transform="translate(1069.443 48.497) rotate(-74.116)" fill="#57bad1"/>
        <rect id="長方形_29821" data-name="長方形 29821" width="3.262" height="0.363" transform="translate(1070.403 48.77) rotate(-74.011)" fill="#57bad1"/>
        <rect id="長方形_29822" data-name="長方形 29822" width="3.261" height="0.364" transform="translate(1071.371 49.047) rotate(-74.179)" fill="#57bad1"/>
        <rect id="長方形_29823" data-name="長方形 29823" width="2.837" height="2.301" transform="translate(1063.211 39.304) rotate(-74.088)" fill="#ded4c7"/>
        <rect id="長方形_29824" data-name="長方形 29824" width="0.396" height="16.138" transform="translate(1056.083 65.549) rotate(-74.082)" fill="#57bad1"/>
        <rect id="長方形_29825" data-name="長方形 29825" width="0.396" height="16.137" transform="translate(1056.489 64.124) rotate(-74.083)" fill="#57bad1"/>
      </g>
    </g>
  </g>
</svg>
