<svg xmlns="http://www.w3.org/2000/svg" xmlns:xlink="http://www.w3.org/1999/xlink" width="140" height="140" viewBox="0 0 140 140"><defs><clipPath id="a"><circle cx="70" cy="70" r="70" transform="translate(0 0.477)" fill="#f7f3e5"/></clipPath></defs><g transform="translate(0 -0.477)"><circle cx="70" cy="70" r="70" transform="translate(0 0.477)" fill="#f7f3e5"/><g clip-path="url(#a)"><g transform="translate(-824.368 -1672.574)"><g transform="translate(840.177 1684.728)"><path d="M1064.889,1955.446s8.216,2.21,13.474,15.789-4.308,46.1-4.308,46.1l-8.186,3.877Z" transform="translate(-985.206 -1860.788)" fill="#f0ac40"/><path d="M997.827,2052.71l-1.968-78.418.049-21.681-13.135-11.19-22.887.369-14.324,11.7,3.346,62.7-2.013,27.927Z" transform="translate(-908.193 -1851.736)" fill="#f0ac40"/><path d="M1026.007,1841.285c2.555,1.327-2.52,3.829-3.689,3.982-2.947.383-7.228-1.841-9.089-4.122-3.667-4.5-2.92-14.653,1.193-18.542a11.17,11.17,0,0,1,8.052-3.269,3.4,3.4,0,0,1,2.968,4.413c2.984-4.1,7.3-1,8.312.616,1.2,1.912,1.73,6.078-1.239,6.625,1.783.161,2.114,3.363,1.88,4.764-.636,3.809-4.889,5.422-8.18,5.781C1026.2,1841.574,1025.982,1841.27,1026.007,1841.285Z" transform="translate(-950.337 -1772.936)" fill="#d1684e"/><path d="M983.062,1744.992c.281,12.222-9.609,25.239-9.609,25.239l-24.125,4.24s-12.422-7.864-14.123-18.411a62.28,62.28,0,0,1-.914-10.317c.033-3.734.6-7.078,1.962-9.506,3.3-5.882,9.351-9.233,14.268-11.084a42.844,42.844,0,0,1,5.648-1.657c1.244-.279,2.014-.369,2.014-.369l.116,0,5.186.388a20.413,20.413,0,0,1,2.086.638C970.689,1725.951,982.712,1729.757,983.062,1744.992Z" transform="translate(-900.917 -1710.85)" fill="#d1684e"/><path d="M987.841,1787.627c2.236,10.82-4.961,21.455-16.076,23.749s-21.929-4.624-24.156-15.446a20.547,20.547,0,0,1,40.232-8.3Z" transform="translate(-909.25 -1742.227)" fill="#edbf98"/><path d="M1065.5,1801.717a6.5,6.5,0,1,1-7.69-5.061A6.509,6.509,0,0,1,1065.5,1801.717Z" transform="translate(-977.289 -1758.217)" fill="#edbf98"/><path d="M942.6,1763.285a37.357,37.357,0,0,0-.316,6.691c.072,1.273-.115,4.359.985,5.209.977-2.007,1.1-4.4,2.312-6.357a54,54,0,0,1,5.382-7.429,11.786,11.786,0,0,1-.2,4.151c2.626-1.753,4.858-5.046,6.582-7.639,2.539,2.716,6.866,4.133,10.164,5.48,2.891,1.18,7.227,3.089,10.383,3.007-1.6-2.381-3.866-4.363-4.754-7.21,2.361,1.911,4,4.8,6.455,6.773,2.155,1.74,4,3.456,6.636,4.195,1.337-4.931,2.308-9.387.3-14.532-1.509-3.854-4.6-7.086-7.777-9.509-3.131-2.388-6.98-3.229-10.814-3.432-1.266-.068-2.943.615-4.209.185a6.132,6.132,0,0,0-3.357-.157c-5.735,1.111-10.466,4.64-14.047,9.289C943.731,1755.363,943.13,1759,942.6,1763.285Z" transform="translate(-906.048 -1723.385)" fill="#d1684e"/><path d="M974.517,1814.389a2.062,2.062,0,0,1-.505,2.754,1.81,1.81,0,0,1-2.583-.609,2.055,2.055,0,0,1,.514-2.752A1.808,1.808,0,0,1,974.517,1814.389Z" transform="translate(-924.685 -1769.158)" fill="#0d0002"/><path d="M1015.6,1806.869a2.062,2.062,0,0,1-.507,2.753,1.814,1.814,0,0,1-2.585-.609,2.061,2.061,0,0,1,.516-2.753A1.811,1.811,0,0,1,1015.6,1806.869Z" transform="translate(-951.196 -1764.303)" fill="#0d0002"/><path d="M999.692,1823.41a.486.486,0,0,1-.372-.086c-.2-.15-.428-.285-.645-.417a2.957,2.957,0,0,1-1.718-2.071,19.426,19.426,0,0,1,.517-4.281c.151-.858.294-1.667.318-2.017a.482.482,0,1,1,.962.065c-.027.4-.168,1.2-.33,2.12a22.96,22.96,0,0,0-.513,3.968c.1.655.526.94,1.267,1.39.234.142.476.289.714.464a.483.483,0,0,1,.1.675A.477.477,0,0,1,999.692,1823.41Z" transform="translate(-941.347 -1769.555)" fill="#0d0002"/><path d="M983.579,1723.145l-.535,5.562c-.481-.862-1.031-1.713-1.509-2.432a62.166,62.166,0,0,0-4.559-6.321c-3.551-4.35-7.93-8.663-13.423-10.6-8.833-3.106-17.709,2.525-22.535,9.8a23.985,23.985,0,0,0-2.431,4.683,52.373,52.373,0,0,0-2.419,7.642c-.169.726-.311,1.469-.449,2.234a44.365,44.365,0,0,1-.629-8.756c.69-1.679,2.8-8.584,7.847-13.4a27.273,27.273,0,0,1,6.37-4.4c1.458-.756,4.515-1.893,6.168-1.339a10.089,10.089,0,0,1-4.441-3.006c-.075-.032-.111-.1-.168-.155-2.813-3.234-4.036-8.009-2.523-11.875,2.805,1.523,5.493,5.08,7.137,7.742a13.343,13.343,0,0,1,1.09,2.279,2.168,2.168,0,0,1,.111.352,42.8,42.8,0,0,0,1.833,4.962,16.889,16.889,0,0,1,.3-5.329,15.794,15.794,0,0,1,.754-2.574c1.414-3.661,8.739-9.426,8.739-9.426s1.239-2.331,1.177,6.431a8.1,8.1,0,0,1-1.739,4.786,12.072,12.072,0,0,1-1.66,1.807,22.222,22.222,0,0,1-5.615,3.6c6.253-2.255,13.173,3.931,16.8,8.079A45.028,45.028,0,0,1,983.579,1723.145Z" transform="translate(-901.43 -1688.503)" fill="#4a98d4"/><path d="M999.785,1896.653l11.585-.239s-.735-.26-3.756-3.107-4.449-22.939-4.449-22.939h-3.733v.039l0-.039H995.7s-1.424,20.094-4.446,22.939l-3.023,2.847,10.85.5v.034l.354-.017.353.017Z" transform="translate(-935.729 -1805.878)" fill="#edbf98"/><path d="M998.919,1766.784a.576.576,0,0,1-.391-.065,7.905,7.905,0,0,1-1.209-.844.589.589,0,0,1,.755-.9,6.885,6.885,0,0,0,1.028.72.589.589,0,0,1-.182,1.093Zm-3.464-3.259a.587.587,0,0,1-.561-.207l-.483-.595-.381-.474a.589.589,0,1,1,.92-.734l.378.469c.151.188.311.385.477.588a.59.59,0,0,1-.083.828A.6.6,0,0,1,995.455,1763.526Zm-2.833-3.849a.588.588,0,0,1-.608-.271c-.25-.407-.484-.819-.7-1.223a.589.589,0,1,1,1.043-.546c.2.38.42.768.655,1.153a.589.589,0,0,1-.4.887Zm-1.938-4.353a.591.591,0,0,1-.674-.424c-.1-.376-.189-.756-.257-1.132-.016-.089-.031-.176-.046-.263a.589.589,0,0,1,.475-.674l.012,0a.59.59,0,0,1,.676.487c.013.081.026.16.042.24.063.342.142.69.235,1.035a.587.587,0,0,1-.413.722Z" transform="translate(-936.678 -1730.013)" fill="#ef7b30"/><path d="M1023.262,1772.459a.586.586,0,0,1-.388-.061c-.086-.047-.171-.1-.254-.148a.589.589,0,0,1,.62-1c.064.04.13.078.2.113a.589.589,0,0,1-.175,1.1Zm-2.434-2.688a.587.587,0,0,1-.617-.288c-.217-.381-.419-.772-.619-1.158l-.036-.067a.589.589,0,0,1,1.045-.543l.035.069c.193.373.388.75.6,1.119a.585.585,0,0,1-.406.869Zm-2.329-4.175a.591.591,0,0,1-.614-.28c-.229-.389-.461-.778-.7-1.161a.589.589,0,1,1,1-.618c.241.391.477.786.71,1.181a.588.588,0,0,1-.208.806A.6.6,0,0,1,1018.5,1765.6Zm-2.645-3.991a.571.571,0,0,1-.538-.188c-.009-.01-.031-.038-.039-.048-.271-.344-.547-.692-.826-1.034a.589.589,0,1,1,.913-.743q.424.521.846,1.061a.594.594,0,0,1-.356.953Zm-3.083-3.639a.584.584,0,0,1-.534-.175q-.462-.49-.94-.96a.589.589,0,1,1,.825-.84q.494.484.972.993a.587.587,0,0,1-.026.832A.569.569,0,0,1,1012.771,1757.965Zm-3.522-3.225a.585.585,0,0,1-.467-.114c-.353-.273-.716-.541-1.075-.793a.589.589,0,1,1,.673-.966c.377.263.755.542,1.124.828a.588.588,0,0,1,.1.827A.58.58,0,0,1,1009.248,1754.74Z" transform="translate(-948.137 -1729.975)" fill="#ef7b30"/><path d="M947.981,1786.862l-.055.008a.59.59,0,0,1-.638-.535,13.784,13.784,0,0,1-.048-1.425.589.589,0,1,1,1.177.016,12.555,12.555,0,0,0,.044,1.305A.589.589,0,0,1,947.981,1786.862Zm.3-4.761a.619.619,0,0,1-.209,0,.589.589,0,0,1-.477-.683c.08-.447.173-.906.276-1.367a.589.589,0,1,1,1.149.258c-.1.443-.19.885-.266,1.314A.589.589,0,0,1,948.284,1782.1Zm1.189-4.631a.6.6,0,0,1-.29-.02.59.59,0,0,1-.374-.745q.217-.659.46-1.31a.588.588,0,1,1,1.1.41c-.156.419-.3.844-.446,1.269A.586.586,0,0,1,949.473,1777.469Zm1.79-4.434a.575.575,0,0,1-.361-.05.587.587,0,0,1-.274-.785c.2-.424.416-.841.633-1.242a.589.589,0,1,1,1.037.559c-.207.385-.413.787-.61,1.194A.589.589,0,0,1,951.263,1773.036Zm2.446-4.1a.589.589,0,0,1-.576-.934c.3-.4.612-.77.914-1.095a.589.589,0,0,1,.863.8,12.509,12.509,0,0,0-.838,1A.577.577,0,0,1,953.709,1768.931Z" transform="translate(-909.274 -1738.98)" fill="#ef7b30"/><path d="M1037.105,1818.648a2.357,2.357,0,1,1-2.742-1.891A2.356,2.356,0,0,1,1037.105,1818.648Z" transform="translate(-964.257 -1771.252)" fill="#e9706e"/><path d="M958.9,1832.967a2.355,2.355,0,1,1-2.741-1.891A2.353,2.353,0,0,1,958.9,1832.967Z" transform="translate(-913.782 -1780.494)" fill="#e9706e"/><path d="M1035.122,1821.547a.452.452,0,0,1-.323-.063c-.557-.355-1.833-1.246-1.681-1.869a.747.747,0,0,1,.352-.472,3.625,3.625,0,0,1,2.451.134l.154.039c.041.009.079.018.116.025-.025-.021-.05-.046-.077-.072-.057-.051-.12-.111-.189-.177-.346-.327-1.062-1.007-1.454-.935l-.025.005a.452.452,0,0,1-.178-.885c.863-.177,1.712.624,2.278,1.161l.177.167c.454.418.916.9.669,1.37s-.916.361-1.524.221l-.175-.046a6.912,6.912,0,0,0-1.492-.271,9.406,9.406,0,0,0,1.081.843.452.452,0,0,1,.139.624A.458.458,0,0,1,1035.122,1821.547Z" transform="translate(-964.693 -1771.598)" fill="#e55a65"/><path d="M957.46,1835.762a.448.448,0,0,1-.321-.063c-.434-.271-1.84-1.214-1.688-1.864a.75.75,0,0,1,.355-.477,3.614,3.614,0,0,1,2.446.132l.159.041.113.025-.076-.07-.183-.173c-.349-.333-1.068-1.021-1.468-.939a.452.452,0,0,1-.192-.883c.854-.187,1.717.629,2.284,1.168l.17.161c.454.416.918.9.671,1.369s-.917.36-1.524.219l-.18-.045a6.831,6.831,0,0,0-1.487-.27,9.2,9.2,0,0,0,1.082.841.452.452,0,0,1-.159.826Z" transform="translate(-914.567 -1780.77)" fill="#e55a65"/><path d="M1016.311,1881.419l-4.782.875a.589.589,0,0,1-.213-1.159l4.782-.875a.589.589,0,0,1,.212,1.159Z" transform="translate(-950.319 -1812.256)" fill="#d77d75"/><path d="M900.558,2164.523c0,4.191-2.861,20.169-6.424,20.169a6.637,6.637,0,0,1-6.617-6.959c0-4.188,2.89-7.588,6.454-7.588S900.558,2160.333,900.558,2164.523Z" transform="translate(-870.73 -1995.054)" fill="#ed8981"/><path d="M918.5,1958.182s-5.946.865-13.036,13.588-14.5,60.639-14.5,60.639l11.653,3.68Z" transform="translate(-872.961 -1862.553)" fill="#f0ac40"/><g transform="translate(64.515 151.317)"><path d="M1030.077,2156.644l16.8-37.05-13.1-4.366-11.662,38.133Z" transform="translate(-1022.114 -2115.228)" fill="#ed8981"/></g><path d="M1050.555,2032.513a.656.656,0,0,1-.079,0,.718.718,0,0,1-.636-.792l4.308-39.2a.718.718,0,0,1,1.427.156l-4.308,39.205A.718.718,0,0,1,1050.555,2032.513Z" transform="translate(-975.491 -1884.297)" fill="#e6812d"/></g><path d="M1123.23,1742.065c-2.073-.081-3.932-.764-4.662-1.817a1.929,1.929,0,0,1-.079-2.121.822.822,0,0,1,1.428.813.29.29,0,0,0,0,.373c.463.67,2.687,1.4,5.118,1.01,1.26-.2,3.47-.863,4.123-3.049a6.415,6.415,0,0,0-.735-4.293,17.68,17.68,0,0,1-7.007-3.412.82.82,0,0,1-.023-1.253,3.979,3.979,0,0,1,5.043-.163,10.11,10.11,0,0,1,3.066,3.39,9.02,9.02,0,0,0,4.775-.333,5.812,5.812,0,0,0,2.673-2.061c-5.219-.912-16.384-5-20.25-10.908a7.606,7.606,0,0,1-1.177-6.3c1.043-3.946,4.051-5.714,8.254-4.852,3.612.74,7.938,3.426,11.292,7.008,3.643,3.891,5.451,8.035,4.96,11.369a12.508,12.508,0,0,1-.571,2.358c7.547.709,16.331-1.1,19.444-6.98,3.474-6.556-.468-14.428-3.126-18.538a47.924,47.924,0,0,0-12.7-12.965c-5.086-3.485-10.019-5.266-13.885-5.016a.821.821,0,0,1-.106-1.639c4.233-.275,9.531,1.608,14.92,5.3a49.621,49.621,0,0,1,13.155,13.428c4.928,7.617,6.064,14.791,3.2,20.2-3.569,6.74-12.54,8.22-19.228,7.959-.837-.032-1.636-.093-2.387-.173a7.535,7.535,0,0,1-3.867,3.347,10.035,10.035,0,0,1-4.533.548,7.134,7.134,0,0,1,.395,4.454c-.665,2.227-2.647,3.758-5.44,4.2A10.567,10.567,0,0,1,1123.23,1742.065Zm.212-13.035a16.411,16.411,0,0,0,3.619,1.854,6.95,6.95,0,0,0-1.508-1.349A2.725,2.725,0,0,0,1123.442,1729.03Zm-1.426-20.52c-2.555-.1-4.2,1.188-4.9,3.844a5.951,5.951,0,0,0,.964,4.985c3.752,5.733,15.3,9.6,19.487,10.244l.218.033a10.6,10.6,0,0,0,.623-2.4c.911-6.184-8.137-15.13-14.956-16.528A8.827,8.827,0,0,0,1122.016,1708.51Z" transform="translate(-180.363 5.674)" fill="#0d0002"/><path d="M1006.125,1786.54a4.26,4.26,0,0,1-2.08-2.3.657.657,0,1,1,1.216-.5,2.813,2.813,0,0,0,2.851,1.893,2.4,2.4,0,0,1-.116-2.337c.267-.446.967-1.134,2.651-.731,1.512.36,1.718,1.191,1.706,1.655a2.743,2.743,0,0,1-1.722,2.077,7.022,7.022,0,0,0,2.922.343,11.641,11.641,0,0,1,1.989.079.658.658,0,1,1-.208,1.3,10.534,10.534,0,0,0-1.76-.063c-1.5.024-3.19.052-4.508-1.11l-.07.013A4.624,4.624,0,0,1,1006.125,1786.54ZM1010.8,1784a2.279,2.279,0,0,0-.456-.152c-.616-.147-1.082-.1-1.217.127a1.484,1.484,0,0,0,.366,1.393c.967-.351,1.541-.941,1.548-1.179C1011.038,1784.167,1010.987,1784.087,1010.8,1784Z" transform="translate(-105.728 -64.403)" fill="#0d0002"/><path d="M1009.046,1856.536a1.028,1.028,0,1,1-1-1.28A1.166,1.166,0,0,1,1009.046,1856.536Z" transform="translate(-107.702 -111.397)" fill="#c1143a"/><g transform="translate(844.901 1749.594)"><path d="M877.386,1873.682s-25.922,5.02-21.018,9.079C860.366,1886.069,877.386,1873.682,877.386,1873.682Z" transform="translate(-854.952 -1872.884)" fill="#fff"/><path d="M856.82,1882.668h0a3.689,3.689,0,0,1-2.415-.744,2.027,2.027,0,0,1-.847-2.148c.306-1.2,1.853-3.105,11.719-5.847,5.251-1.459,10.452-2.472,10.5-2.482a.8.8,0,0,1,.621,1.428C875.853,1873.275,862.877,1882.668,856.82,1882.668Zm15.385-8.846c-8.6,1.924-16.65,4.576-17.1,6.348-.013.053-.055.215.319.524a2.172,2.172,0,0,0,1.4.379C860.631,1881.074,867.961,1876.628,872.206,1873.822Z" transform="translate(-853.498 -1871.432)" fill="#0d0002"/></g><g transform="translate(843.16 1761.051)"><path d="M867.751,1905.989s-21.933,14.7-15.839,16.531C856.882,1924.017,867.751,1905.989,867.751,1905.989Z" transform="translate(-850.044 -1905.191)" fill="#fff"/><path d="M851.08,1921.954h0a2.962,2.962,0,0,1-.852-.122,2.026,2.026,0,0,1-1.614-1.65c-.183-1.221.5-3.58,8.525-9.94,4.271-3.385,8.67-6.339,8.714-6.368a.8.8,0,0,1,1.127,1.074C865.931,1906.69,856.569,1921.954,851.08,1921.954Zm12.437-14.526c-7.2,5.122-13.6,10.708-13.325,12.519.008.054.033.219.5.358a1.344,1.344,0,0,0,.392.055C853.975,1920.359,859.556,1913.383,863.517,1907.428Z" transform="translate(-848.59 -1903.74)" fill="#0d0002"/></g><g transform="translate(857.716 1763.748)"><path d="M908.8,1913.595s-21.933,14.7-15.839,16.534C897.928,1931.624,908.8,1913.595,908.8,1913.595Z" transform="translate(-891.091 -1912.797)" fill="#fff"/><path d="M892.127,1929.563h0a2.953,2.953,0,0,1-.851-.122,2.027,2.027,0,0,1-1.615-1.65c-.183-1.222.5-3.582,8.526-9.941,4.271-3.385,8.67-6.339,8.714-6.368a.8.8,0,0,1,1.127,1.074C906.978,1914.3,897.615,1929.563,892.127,1929.563Zm12.437-14.529c-7.195,5.122-13.6,10.708-13.325,12.52.008.054.033.22.5.359a1.342,1.342,0,0,0,.391.054C895.02,1927.968,900.6,1920.99,904.564,1915.034Z" transform="translate(-889.637 -1911.346)" fill="#0d0002"/></g><path d="M1046.352,1822.909s1.74,18.4-1.952,15.906C1041.39,1836.782,1046.352,1822.909,1046.352,1822.909Z" transform="translate(-131.179 -90.521)" fill="#fff"/></g></g></g></svg>