<svg xmlns="http://www.w3.org/2000/svg" xmlns:xlink="http://www.w3.org/1999/xlink" width="140" height="140.9" viewBox="0 0 140 140.9">
  <defs>
    <clipPath id="clip-path">
      <circle id="楕円形_369" data-name="楕円形 369" cx="70" cy="70" r="70" transform="translate(0 0.477)" fill="#f7f3e5"/>
    </clipPath>
    <clipPath id="clip-path-2">
      <rect id="SVGID" width="60.443" height="39.933" fill="none"/>
    </clipPath>
    <clipPath id="clip-path-3">
      <path id="SVGID-2" data-name="SVGID" d="M566.522,947.36h-54.78l-6.848,14.62H573.37Z" transform="translate(-504.894 -947.36)" fill="none"/>
    </clipPath>
  </defs>
  <g id="recommend_obj23" transform="translate(0 -0.477)">
    <circle id="楕円形_23" data-name="楕円形 23" cx="70" cy="70" r="70" transform="translate(0 0.477)" fill="#f7f3e5"/>
    <g id="マスクグループ_44" data-name="マスクグループ 44" transform="translate(0 0.9)" clip-path="url(#clip-path)">
      <g id="グループ_4311" data-name="グループ 4311" transform="translate(-33 38.708)">
        <g id="グループ_4307" data-name="グループ 4307" transform="translate(35.978 0.001)">
          <path id="パス_69957" data-name="パス 69957" d="M1075.558,1955.446s-5.822,1.566-9.549,11.189,3.053,32.666,3.053,32.666l5.8,2.748Z" transform="translate(-1064.889 -1888.368)" fill="#f0ac40"/>
          <path id="パス_69958" data-name="パス 69958" d="M945.563,2020.285l1.394-55.57-.035-15.364,9.308-7.93,16.219.261,10.151,8.294-2.371,44.435,1.427,19.79Z" transform="translate(-941.946 -1877.867)" fill="#f0ac40"/>
          <path id="パス_69959" data-name="パス 69959" d="M1017.029,1834.887c-1.81.94,1.785,2.713,2.614,2.822,2.089.271,5.122-1.3,6.441-2.921,2.6-3.19,2.069-10.384-.845-13.14a7.915,7.915,0,0,0-5.706-2.316,2.406,2.406,0,0,0-2.1,3.127c-2.114-2.908-5.17-.709-5.89.437-.851,1.355-1.226,4.307.878,4.695-1.263.114-1.5,2.383-1.333,3.376.451,2.7,3.465,3.843,5.8,4.1C1016.891,1835.092,1017.047,1834.876,1017.029,1834.887Z" transform="translate(-1003.516 -1786.452)" fill="#d1684e"/>
          <path id="パス_69960" data-name="パス 69960" d="M934.293,1738.622c-.2,8.661,6.81,17.885,6.81,17.885l17.1,3s8.8-5.572,10.008-13.047a44.138,44.138,0,0,0,.648-7.311,14.346,14.346,0,0,0-1.39-6.736c-2.336-4.168-6.627-6.543-10.111-7.854a30.343,30.343,0,0,0-4-1.174c-.881-.2-1.427-.261-1.427-.261l-.082,0-3.675.275a14.462,14.462,0,0,0-1.478.452C943.061,1725.128,934.542,1727.825,934.293,1738.622Z" transform="translate(-925.37 -1714.427)" fill="#d1684e"/>
          <path id="パス_69961" data-name="パス 69961" d="M947.489,1783a14.561,14.561,0,1,0,17.123-10.941A14.371,14.371,0,0,0,947.489,1783Z" transform="translate(-936.047 -1750.828)" fill="#edbf98"/>
          <path id="パス_69962" data-name="パス 69962" d="M1052.719,1800.2a4.61,4.61,0,1,0,5.45-3.586A4.613,4.613,0,0,0,1052.719,1800.2Z" transform="translate(-1048.095 -1769.377)" fill="#edbf98"/>
          <path id="パス_69963" data-name="パス 69963" d="M974.184,1757.244a26.467,26.467,0,0,1,.224,4.741c-.051.9.082,3.089-.7,3.692-.692-1.422-.781-3.12-1.639-4.505a38.277,38.277,0,0,0-3.814-5.264,8.352,8.352,0,0,0,.141,2.941c-1.861-1.242-3.443-3.576-4.664-5.413-1.8,1.924-4.866,2.929-7.2,3.883-2.049.836-5.122,2.189-7.358,2.131,1.133-1.687,2.74-3.092,3.369-5.109-1.673,1.354-2.838,3.4-4.575,4.8-1.527,1.233-2.836,2.449-4.7,2.973-.948-3.495-1.635-6.652-.212-10.3a16.512,16.512,0,0,1,5.511-6.739,13.55,13.55,0,0,1,7.663-2.432c.9-.048,2.086.436,2.983.131a4.345,4.345,0,0,1,2.379-.111,16.732,16.732,0,0,1,9.954,6.583C973.381,1751.63,973.807,1754.209,974.184,1757.244Z" transform="translate(-932.949 -1728.969)" fill="#d1684e"/>
          <path id="パス_69964" data-name="パス 69964" d="M971.339,1814.122a1.461,1.461,0,0,0,.358,1.952,1.283,1.283,0,0,0,1.83-.432,1.456,1.456,0,0,0-.364-1.95A1.281,1.281,0,0,0,971.339,1814.122Z" transform="translate(-939.517 -1782.069)" fill="#0d0002"/>
          <path id="パス_69965" data-name="パス 69965" d="M1012.417,1806.6a1.461,1.461,0,0,0,.359,1.951,1.286,1.286,0,0,0,1.832-.431,1.461,1.461,0,0,0-.365-1.951A1.283,1.283,0,0,0,1012.417,1806.6Z" transform="translate(-990.919 -1776.438)" fill="#0d0002"/>
          <path id="パス_69966" data-name="パス 69966" d="M997.214,1820.694a.344.344,0,0,0,.264-.061c.145-.106.3-.2.457-.3a2.1,2.1,0,0,0,1.218-1.468,13.766,13.766,0,0,0-.366-3.034c-.107-.608-.208-1.181-.226-1.429a.342.342,0,1,0-.682.046c.019.285.119.849.234,1.5a16.273,16.273,0,0,1,.364,2.812c-.073.464-.373.666-.9.985-.166.1-.337.2-.506.329a.342.342,0,0,0-.073.478A.337.337,0,0,0,997.214,1820.694Z" transform="translate(-971.424 -1782.53)" fill="#0d0002"/>
          <path id="パス_69967" data-name="パス 69967" d="M935.085,1713.052l.379,3.942c.341-.611.73-1.214,1.069-1.723a44.058,44.058,0,0,1,3.231-4.479c2.516-3.083,5.619-6.139,9.512-7.51,6.26-2.2,12.55,1.79,15.969,6.942a17,17,0,0,1,1.723,3.319,37.111,37.111,0,0,1,1.714,5.416c.12.514.221,1.041.318,1.583a31.436,31.436,0,0,0,.446-6.2c-.489-1.19-1.983-6.083-5.56-9.5a19.324,19.324,0,0,0-4.514-3.121c-1.033-.536-3.2-1.341-4.371-.949a7.149,7.149,0,0,0,3.147-2.13c.053-.022.078-.069.119-.11a8.557,8.557,0,0,0,1.788-8.415c-1.988,1.079-3.893,3.6-5.057,5.486a9.455,9.455,0,0,0-.773,1.615,1.544,1.544,0,0,0-.079.25,30.319,30.319,0,0,1-1.3,3.517,11.968,11.968,0,0,0-.211-3.776,11.2,11.2,0,0,0-.534-1.824c-1-2.594-6.193-6.679-6.193-6.679s-.878-1.652-.834,4.557a5.739,5.739,0,0,0,1.232,3.392,8.558,8.558,0,0,0,1.176,1.281,15.75,15.75,0,0,0,3.979,2.55c-4.431-1.6-9.335,2.786-11.908,5.725A31.9,31.9,0,0,0,935.085,1713.052Z" transform="translate(-926.163 -1688.503)" fill="#4a98d4"/>
          <path id="パス_69968" data-name="パス 69968" d="M996.438,1888.994l-8.21-.17a12.519,12.519,0,0,0,2.662-2.2c2.143-2.016,3.153-16.255,3.153-16.255h2.645v.027l0-.027h2.645s1.009,14.24,3.15,16.255l2.142,2.017-7.689.354v.024l-.251-.012-.25.012Z" transform="translate(-974.695 -1824.668)" fill="#edbf98"/>
          <path id="パス_69969" data-name="パス 69969" d="M990.042,1762.715a.408.408,0,0,0,.277-.046,5.615,5.615,0,0,0,.857-.6.417.417,0,0,0-.535-.641,4.892,4.892,0,0,1-.729.51.417.417,0,0,0,.129.775Zm2.455-2.309a.416.416,0,0,0,.4-.146l.342-.421.27-.336a.417.417,0,1,0-.652-.52l-.268.333c-.107.134-.221.273-.338.417a.418.418,0,0,0,.059.587A.425.425,0,0,0,992.5,1760.406Zm2.007-2.728a.417.417,0,0,0,.431-.192c.177-.289.343-.58.493-.866a.417.417,0,1,0-.739-.387c-.141.269-.3.544-.464.817a.418.418,0,0,0,.28.629Zm1.373-3.085a.419.419,0,0,0,.478-.3c.072-.267.134-.536.182-.8.012-.063.022-.125.032-.187a.417.417,0,0,0-.336-.478l-.009,0a.418.418,0,0,0-.479.345c-.009.057-.019.114-.03.17-.044.242-.1.489-.167.733a.416.416,0,0,0,.293.512Z" transform="translate(-967.013 -1736.658)" fill="#ef7b30"/>
          <path id="パス_69970" data-name="パス 69970" d="M1007.8,1766.72a.416.416,0,0,0,.275-.043c.061-.034.121-.069.18-.105a.417.417,0,0,0-.44-.709c-.045.029-.092.055-.139.08a.417.417,0,0,0,.124.777Zm1.725-1.9a.416.416,0,0,0,.437-.2c.153-.27.3-.547.439-.82l.025-.048a.417.417,0,0,0-.741-.385l-.025.049c-.137.265-.275.531-.423.793a.415.415,0,0,0,.287.616Zm1.651-2.959a.419.419,0,0,0,.435-.2c.162-.276.326-.551.494-.823a.417.417,0,0,0-.71-.438c-.171.277-.338.557-.5.837a.417.417,0,0,0,.148.571A.425.425,0,0,0,1011.171,1761.856Zm1.874-2.828a.4.4,0,0,0,.381-.134l.028-.034c.192-.244.388-.491.585-.733a.417.417,0,1,0-.647-.527q-.3.369-.6.752a.421.421,0,0,0,.253.676Zm2.185-2.579a.413.413,0,0,0,.378-.124q.327-.347.666-.68a.417.417,0,1,0-.585-.6q-.35.343-.689.7a.416.416,0,0,0,.018.589A.4.4,0,0,0,1015.23,1756.449Zm2.5-2.286a.415.415,0,0,0,.331-.081c.25-.194.507-.383.762-.562a.417.417,0,1,0-.477-.684c-.267.186-.535.384-.8.587a.417.417,0,0,0-.073.586A.41.41,0,0,0,1017.726,1754.164Z" transform="translate(-993.897 -1736.615)" fill="#ef7b30"/>
          <path id="パス_69971" data-name="パス 69971" d="M952.26,1780.991l.039.006a.418.418,0,0,0,.452-.38,9.777,9.777,0,0,0,.034-1.01.417.417,0,1,0-.834.011,8.853,8.853,0,0,1-.031.925A.418.418,0,0,0,952.26,1780.991Zm-.215-3.374a.437.437,0,0,0,.148,0,.417.417,0,0,0,.338-.484c-.057-.317-.123-.642-.2-.969a.417.417,0,1,0-.814.183c.071.314.134.628.189.931A.418.418,0,0,0,952.045,1777.617Zm-.842-3.282a.425.425,0,0,0,.206-.014.418.418,0,0,0,.265-.528q-.154-.467-.326-.928a.417.417,0,1,0-.781.291c.11.3.215.6.316.9A.416.416,0,0,0,951.2,1774.336Zm-1.269-3.142a.408.408,0,0,0,.256-.035.416.416,0,0,0,.194-.556c-.145-.3-.295-.6-.448-.88a.417.417,0,1,0-.735.4c.147.273.292.558.432.846A.418.418,0,0,0,949.934,1771.194Zm-1.734-2.908a.417.417,0,0,0,.408-.662c-.216-.284-.433-.546-.648-.776a.417.417,0,0,0-.612.568,8.9,8.9,0,0,1,.594.711A.409.409,0,0,0,948.2,1768.285Z" transform="translate(-912.553 -1747.061)" fill="#ef7b30"/>
          <path id="パス_69972" data-name="パス 69972" d="M1032.458,1818.085a1.67,1.67,0,1,0,1.943-1.34A1.67,1.67,0,0,0,1032.458,1818.085Z" transform="translate(-1016.946 -1784.499)" fill="#e9706e"/>
          <path id="パス_69973" data-name="パス 69973" d="M954.251,1832.4a1.669,1.669,0,1,0,1.942-1.34A1.668,1.668,0,0,0,954.251,1832.4Z" transform="translate(-919.084 -1795.22)" fill="#e9706e"/>
          <path id="パス_69974" data-name="パス 69974" d="M1034.763,1820.3a.32.32,0,0,0,.229-.044c.394-.252,1.3-.883,1.191-1.324a.53.53,0,0,0-.249-.334,2.568,2.568,0,0,0-1.737.095l-.109.028-.082.018c.018-.015.035-.032.054-.051.041-.036.085-.079.134-.125.245-.232.752-.713,1.031-.663l.017,0a.32.32,0,0,0,.126-.627c-.612-.126-1.213.442-1.615.823l-.125.118c-.322.3-.649.639-.474.971s.649.256,1.08.156l.124-.032a4.9,4.9,0,0,1,1.057-.192,6.661,6.661,0,0,1-.766.6.32.32,0,0,0-.1.442A.325.325,0,0,0,1034.763,1820.3Z" transform="translate(-1017.537 -1784.9)" fill="#e55a65"/>
          <path id="パス_69975" data-name="パス 69975" d="M957.1,1834.51a.318.318,0,0,0,.228-.045c.308-.192,1.3-.86,1.2-1.321a.532.532,0,0,0-.252-.338,2.561,2.561,0,0,0-1.733.094l-.112.029-.08.018.054-.049.13-.122c.247-.236.757-.724,1.04-.666a.32.32,0,0,0,.136-.625c-.605-.133-1.217.446-1.619.828l-.12.114c-.322.295-.65.637-.476.97s.649.255,1.08.156l.128-.032a4.843,4.843,0,0,1,1.054-.191,6.517,6.517,0,0,1-.766.6.321.321,0,0,0,.112.586Z" transform="translate(-920.356 -1795.541)" fill="#e55a65"/>
          <path id="パス_69976" data-name="パス 69976" d="M1011.177,1881.078l3.389.62a.418.418,0,0,0,.151-.821l-3.389-.62a.418.418,0,0,0-.151.822Z" transform="translate(-990.806 -1832.067)" fill="#d77d75"/>
          <path id="パス_69977" data-name="パス 69977" d="M887.517,2164.22c0,2.97,2.028,14.292,4.553,14.292a4.7,4.7,0,0,0,4.689-4.931c0-2.968-2.048-5.377-4.574-5.377S887.517,2161.25,887.517,2164.22Z" transform="translate(-841.519 -2044.128)" fill="#ed8981"/>
          <path id="パス_69978" data-name="パス 69978" d="M890.973,1958.182s4.213.613,9.238,9.629,10.272,42.971,10.272,42.971l-8.258,2.608Z" transform="translate(-856.112 -1890.416)" fill="#f0ac40"/>
          <g id="グループ_4306" data-name="グループ 4306" transform="translate(3.868 107.229)">
            <path id="パス_69981" data-name="パス 69981" d="M1034.021,2144.577l-11.906-26.255,9.285-3.094,8.265,27.023Z" transform="translate(-1022.114 -2115.228)" fill="#ed8981"/>
          </g>
          <path id="パス_69986" data-name="パス 69986" d="M1053.4,2020.672a.476.476,0,0,0,.056,0,.509.509,0,0,0,.451-.561l-3.053-27.781a.509.509,0,0,0-1.011.111l3.053,27.782A.508.508,0,0,0,1053.4,2020.672Z" transform="translate(-1039.455 -1915.641)" fill="#e6812d"/>
        </g>
        <path id="パス_69988" data-name="パス 69988" d="M1011.061,1785.346a3.019,3.019,0,0,0,1.474-1.631.466.466,0,1,0-.862-.355,1.993,1.993,0,0,1-2.02,1.341,1.7,1.7,0,0,0,.082-1.656c-.189-.316-.685-.8-1.878-.518-1.071.255-1.217.844-1.209,1.172a1.944,1.944,0,0,0,1.22,1.472,4.978,4.978,0,0,1-2.071.243,8.236,8.236,0,0,0-1.409.056.466.466,0,1,0,.148.92,7.467,7.467,0,0,1,1.247-.045,4.415,4.415,0,0,0,3.195-.786l.05.009A3.276,3.276,0,0,0,1011.061,1785.346Zm-3.311-1.8a1.616,1.616,0,0,1,.323-.108c.436-.1.766-.07.862.09a1.052,1.052,0,0,1-.259.987c-.685-.249-1.092-.667-1.1-.836C1007.579,1783.664,1007.616,1783.608,1007.75,1783.543Z" transform="translate(-950.621 -1758.836)" fill="#0d0002"/>
        <path id="パス_69989" data-name="パス 69989" d="M1007.054,1856.162a.728.728,0,1,0,.706-.907A.826.826,0,0,0,1007.054,1856.162Z" transform="translate(-947.285 -1813.353)" fill="#c1143a"/>
        <g id="グループ_4308" data-name="グループ 4308" transform="translate(79.303 48.968)">
          <path id="パス_69990" data-name="パス 69990" d="M855.751,1873.682s18.37,3.557,14.894,6.434C867.812,1882.46,855.751,1873.682,855.751,1873.682Z" transform="translate(-855.186 -1873.117)" fill="#fff"/>
          <path id="パス_69991" data-name="パス 69991" d="M867.607,1879.394h0a2.615,2.615,0,0,0,1.711-.527,1.437,1.437,0,0,0,.6-1.522c-.217-.848-1.313-2.2-8.3-4.144-3.721-1.034-7.407-1.752-7.444-1.759a.565.565,0,0,0-.44,1.012C854.12,1872.738,863.315,1879.394,867.607,1879.394Zm-10.9-6.268c6.1,1.363,11.8,3.243,12.119,4.5.01.038.039.152-.226.371a1.539,1.539,0,0,1-.991.269C864.907,1878.265,859.713,1875.114,856.7,1873.126Z" transform="translate(-853.498 -1871.432)" fill="#0d0002"/>
        </g>
        <g id="グループ_4309" data-name="グループ 4309" transform="translate(83.887 57.086)">
          <path id="パス_69992" data-name="パス 69992" d="M850.843,1905.989s15.542,10.415,11.224,11.714C858.545,1918.764,850.843,1905.989,850.843,1905.989Z" transform="translate(-850.278 -1905.424)" fill="#fff"/>
          <path id="パス_69993" data-name="パス 69993" d="M859.939,1916.647h0a2.1,2.1,0,0,0,.6-.086,1.436,1.436,0,0,0,1.144-1.169c.13-.865-.355-2.537-6.041-7.044-3.026-2.4-6.144-4.492-6.175-4.513a.565.565,0,0,0-.8.761C849.415,1905.83,856.049,1916.647,859.939,1916.647Zm-8.813-10.294c5.1,3.63,9.636,7.588,9.443,8.871-.005.038-.023.155-.352.254a.955.955,0,0,1-.278.039C857.888,1915.517,853.933,1910.573,851.126,1906.353Z" transform="translate(-848.59 -1903.74)" fill="#0d0002"/>
        </g>
        <g id="グループ_4310" data-name="グループ 4310" transform="translate(73.572 58.997)">
          <path id="パス_69994" data-name="パス 69994" d="M891.89,1913.595s15.543,10.415,11.224,11.717C899.593,1926.371,891.89,1913.595,891.89,1913.595Z" transform="translate(-891.325 -1913.03)" fill="#fff"/>
          <path id="パス_69995" data-name="パス 69995" d="M900.986,1924.255h0a2.093,2.093,0,0,0,.6-.086,1.436,1.436,0,0,0,1.144-1.17c.13-.866-.355-2.538-6.042-7.045-3.026-2.4-6.144-4.492-6.175-4.513a.565.565,0,0,0-.8.761C890.462,1913.436,897.1,1924.255,900.986,1924.255Zm-8.813-10.3c5.1,3.63,9.636,7.588,9.443,8.872-.006.038-.023.156-.352.255a.952.952,0,0,1-.277.038C898.936,1923.125,894.981,1918.18,892.173,1913.959Z" transform="translate(-889.637 -1911.346)" fill="#0d0002"/>
        </g>
        <path id="パス_69996" data-name="パス 69996" d="M1043.721,1822.909s-1.233,13.038,1.383,11.271C1047.237,1832.74,1043.721,1822.909,1043.721,1822.909Z" transform="translate(-993.752 -1789.134)" fill="#fff"/>
      </g>
    </g>
    <g id="グループ_13352" data-name="グループ 13352" transform="translate(-22.227 -918.162)">
      <g id="グループ_13209" data-name="グループ 13209" transform="translate(81.505 961.987)">
        <rect id="長方形_29826" data-name="長方形 29826" width="60.443" height="39.933" transform="translate(0 0)" fill="#72543b"/>
      </g>
      <g id="グループ_13265" data-name="グループ 13265" transform="translate(81.505 961.987)" style="mix-blend-mode: multiply;isolation: isolate">
        <g id="グループ_13264" data-name="グループ 13264" transform="translate(0 0)" clip-path="url(#clip-path-2)">
          <g id="グループ_13263" data-name="グループ 13263" transform="translate(-0.322 -2.428)">
            <g id="グループ_13210" data-name="グループ 13210">
              <rect id="長方形_29827" data-name="長方形 29827" width="0.534" height="42.343" fill="#eaeaea"/>
            </g>
            <g id="グループ_13211" data-name="グループ 13211" transform="translate(1.175)">
              <rect id="長方形_29828" data-name="長方形 29828" width="0.534" height="42.343" fill="#eaeaea"/>
            </g>
            <g id="グループ_13212" data-name="グループ 13212" transform="translate(2.324)">
              <rect id="長方形_29829" data-name="長方形 29829" width="0.534" height="42.343" fill="#eaeaea"/>
            </g>
            <g id="グループ_13213" data-name="グループ 13213" transform="translate(3.5)">
              <rect id="長方形_29830" data-name="長方形 29830" width="0.534" height="42.343" fill="#eaeaea"/>
            </g>
            <g id="グループ_13214" data-name="グループ 13214" transform="translate(4.648)">
              <rect id="長方形_29831" data-name="長方形 29831" width="0.534" height="42.343" fill="#eaeaea"/>
            </g>
            <g id="グループ_13215" data-name="グループ 13215" transform="translate(5.824)">
              <rect id="長方形_29832" data-name="長方形 29832" width="0.534" height="42.343" fill="#eaeaea"/>
            </g>
            <g id="グループ_13216" data-name="グループ 13216" transform="translate(6.973)">
              <rect id="長方形_29833" data-name="長方形 29833" width="0.534" height="42.343" fill="#eaeaea"/>
            </g>
            <g id="グループ_13217" data-name="グループ 13217" transform="translate(8.121)">
              <rect id="長方形_29834" data-name="長方形 29834" width="0.534" height="42.343" fill="#eaeaea"/>
            </g>
            <g id="グループ_13218" data-name="グループ 13218" transform="translate(9.297)">
              <rect id="長方形_29835" data-name="長方形 29835" width="0.534" height="42.343" fill="#eaeaea"/>
            </g>
            <g id="グループ_13219" data-name="グループ 13219" transform="translate(10.445)">
              <rect id="長方形_29836" data-name="長方形 29836" width="0.534" height="42.343" fill="#eaeaea"/>
            </g>
            <g id="グループ_13220" data-name="グループ 13220" transform="translate(11.621)">
              <rect id="長方形_29837" data-name="長方形 29837" width="0.534" height="42.343" fill="#eaeaea"/>
            </g>
            <g id="グループ_13221" data-name="グループ 13221" transform="translate(12.77)">
              <rect id="長方形_29838" data-name="長方形 29838" width="0.534" height="42.343" fill="#eaeaea"/>
            </g>
            <g id="グループ_13222" data-name="グループ 13222" transform="translate(13.945)">
              <rect id="長方形_29839" data-name="長方形 29839" width="0.534" height="42.343" fill="#eaeaea"/>
            </g>
            <g id="グループ_13223" data-name="グループ 13223" transform="translate(15.094)">
              <rect id="長方形_29840" data-name="長方形 29840" width="0.534" height="42.343" fill="#eaeaea"/>
            </g>
            <g id="グループ_13224" data-name="グループ 13224" transform="translate(16.243)">
              <rect id="長方形_29841" data-name="長方形 29841" width="0.534" height="42.343" fill="#eaeaea"/>
            </g>
            <g id="グループ_13225" data-name="グループ 13225" transform="translate(17.418)">
              <rect id="長方形_29842" data-name="長方形 29842" width="0.534" height="42.343" fill="#eaeaea"/>
            </g>
            <g id="グループ_13226" data-name="グループ 13226" transform="translate(18.567)">
              <rect id="長方形_29843" data-name="長方形 29843" width="0.534" height="42.343" fill="#eaeaea"/>
            </g>
            <g id="グループ_13227" data-name="グループ 13227" transform="translate(19.742)">
              <rect id="長方形_29844" data-name="長方形 29844" width="0.534" height="42.343" fill="#eaeaea"/>
            </g>
            <g id="グループ_13228" data-name="グループ 13228" transform="translate(20.891)">
              <rect id="長方形_29845" data-name="長方形 29845" width="0.534" height="42.343" fill="#eaeaea"/>
            </g>
            <g id="グループ_13229" data-name="グループ 13229" transform="translate(22.066)">
              <rect id="長方形_29846" data-name="長方形 29846" width="0.534" height="42.343" fill="#eaeaea"/>
            </g>
            <g id="グループ_13230" data-name="グループ 13230" transform="translate(23.215)">
              <rect id="長方形_29847" data-name="長方形 29847" width="0.534" height="42.343" fill="#eaeaea"/>
            </g>
            <g id="グループ_13231" data-name="グループ 13231" transform="translate(24.391)">
              <rect id="長方形_29848" data-name="長方形 29848" width="0.534" height="42.343" fill="#eaeaea"/>
            </g>
            <g id="グループ_13232" data-name="グループ 13232" transform="translate(25.539)">
              <rect id="長方形_29849" data-name="長方形 29849" width="0.534" height="42.343" fill="#eaeaea"/>
            </g>
            <g id="グループ_13233" data-name="グループ 13233" transform="translate(26.688)">
              <rect id="長方形_29850" data-name="長方形 29850" width="0.534" height="42.343" fill="#eaeaea"/>
            </g>
            <g id="グループ_13234" data-name="グループ 13234" transform="translate(27.863)">
              <rect id="長方形_29851" data-name="長方形 29851" width="0.534" height="42.343" fill="#eaeaea"/>
            </g>
            <g id="グループ_13235" data-name="グループ 13235" transform="translate(29.012)">
              <rect id="長方形_29852" data-name="長方形 29852" width="0.534" height="42.343" fill="#eaeaea"/>
            </g>
            <g id="グループ_13236" data-name="グループ 13236" transform="translate(30.188)">
              <rect id="長方形_29853" data-name="長方形 29853" width="0.534" height="42.343" fill="#eaeaea"/>
            </g>
            <g id="グループ_13237" data-name="グループ 13237" transform="translate(31.336)">
              <rect id="長方形_29854" data-name="長方形 29854" width="0.534" height="42.343" fill="#eaeaea"/>
            </g>
            <g id="グループ_13238" data-name="グループ 13238" transform="translate(32.512)">
              <rect id="長方形_29855" data-name="長方形 29855" width="0.534" height="42.343" fill="#eaeaea"/>
            </g>
            <g id="グループ_13239" data-name="グループ 13239" transform="translate(33.661)">
              <rect id="長方形_29856" data-name="長方形 29856" width="0.534" height="42.343" fill="#eaeaea"/>
            </g>
            <g id="グループ_13240" data-name="グループ 13240" transform="translate(34.809)">
              <rect id="長方形_29857" data-name="長方形 29857" width="0.534" height="42.343" transform="translate(0)" fill="#eaeaea"/>
            </g>
            <g id="グループ_13241" data-name="グループ 13241" transform="translate(35.985)">
              <rect id="長方形_29858" data-name="長方形 29858" width="0.534" height="42.343" fill="#eaeaea"/>
            </g>
            <g id="グループ_13242" data-name="グループ 13242" transform="translate(37.133)">
              <rect id="長方形_29859" data-name="長方形 29859" width="0.534" height="42.343" transform="translate(0)" fill="#eaeaea"/>
            </g>
            <g id="グループ_13243" data-name="グループ 13243" transform="translate(38.309)">
              <rect id="長方形_29860" data-name="長方形 29860" width="0.534" height="42.343" fill="#eaeaea"/>
            </g>
            <g id="グループ_13244" data-name="グループ 13244" transform="translate(39.458)">
              <rect id="長方形_29861" data-name="長方形 29861" width="0.534" height="42.343" transform="translate(0)" fill="#eaeaea"/>
            </g>
            <g id="グループ_13245" data-name="グループ 13245" transform="translate(40.633)">
              <rect id="長方形_29862" data-name="長方形 29862" width="0.534" height="42.343" fill="#eaeaea"/>
            </g>
            <g id="グループ_13246" data-name="グループ 13246" transform="translate(41.782)">
              <rect id="長方形_29863" data-name="長方形 29863" width="0.534" height="42.343" transform="translate(0)" fill="#eaeaea"/>
            </g>
            <g id="グループ_13247" data-name="グループ 13247" transform="translate(42.957)">
              <rect id="長方形_29864" data-name="長方形 29864" width="0.534" height="42.343" fill="#eaeaea"/>
            </g>
            <g id="グループ_13248" data-name="グループ 13248" transform="translate(44.106)">
              <rect id="長方形_29865" data-name="長方形 29865" width="0.534" height="42.343" transform="translate(0)" fill="#eaeaea"/>
            </g>
            <g id="グループ_13249" data-name="グループ 13249" transform="translate(45.255)">
              <rect id="長方形_29866" data-name="長方形 29866" width="0.534" height="42.343" transform="translate(0)" fill="#eaeaea"/>
            </g>
            <g id="グループ_13250" data-name="グループ 13250" transform="translate(46.43)">
              <rect id="長方形_29867" data-name="長方形 29867" width="0.534" height="42.343" transform="translate(0)" fill="#eaeaea"/>
            </g>
            <g id="グループ_13251" data-name="グループ 13251" transform="translate(47.579)">
              <rect id="長方形_29868" data-name="長方形 29868" width="0.534" height="42.343" transform="translate(0)" fill="#eaeaea"/>
            </g>
            <g id="グループ_13252" data-name="グループ 13252" transform="translate(48.754)">
              <rect id="長方形_29869" data-name="長方形 29869" width="0.534" height="42.343" transform="translate(0)" fill="#eaeaea"/>
            </g>
            <g id="グループ_13253" data-name="グループ 13253" transform="translate(49.903)">
              <rect id="長方形_29870" data-name="長方形 29870" width="0.534" height="42.343" fill="#eaeaea"/>
            </g>
            <g id="グループ_13254" data-name="グループ 13254" transform="translate(51.078)">
              <rect id="長方形_29871" data-name="長方形 29871" width="0.534" height="42.343" fill="#eaeaea"/>
            </g>
            <g id="グループ_13255" data-name="グループ 13255" transform="translate(52.227)">
              <rect id="長方形_29872" data-name="長方形 29872" width="0.534" height="42.343" fill="#eaeaea"/>
            </g>
            <g id="グループ_13256" data-name="グループ 13256" transform="translate(53.376)">
              <rect id="長方形_29873" data-name="長方形 29873" width="0.534" height="42.343" fill="#eaeaea"/>
            </g>
            <g id="グループ_13257" data-name="グループ 13257" transform="translate(54.551)">
              <rect id="長方形_29874" data-name="長方形 29874" width="0.534" height="42.343" fill="#eaeaea"/>
            </g>
            <g id="グループ_13258" data-name="グループ 13258" transform="translate(55.7)">
              <rect id="長方形_29875" data-name="長方形 29875" width="0.534" height="42.343" fill="#eaeaea"/>
            </g>
            <g id="グループ_13259" data-name="グループ 13259" transform="translate(56.876)">
              <rect id="長方形_29876" data-name="長方形 29876" width="0.534" height="42.343" fill="#eaeaea"/>
            </g>
            <g id="グループ_13260" data-name="グループ 13260" transform="translate(58.024)">
              <rect id="長方形_29877" data-name="長方形 29877" width="0.534" height="42.343" fill="#eaeaea"/>
            </g>
            <g id="グループ_13261" data-name="グループ 13261" transform="translate(59.2)">
              <rect id="長方形_29878" data-name="長方形 29878" width="0.534" height="42.343" fill="#eaeaea"/>
            </g>
            <g id="グループ_13262" data-name="グループ 13262" transform="translate(60.348)">
              <rect id="長方形_29879" data-name="長方形 29879" width="0.534" height="42.343" fill="#eaeaea"/>
            </g>
          </g>
        </g>
      </g>
      <g id="グループ_13266" data-name="グループ 13266" transform="translate(81.479 961.984)">
        <path id="パス_82631" data-name="パス 82631" d="M710.576,1497.65H650.107v-2.875l60.468,0Z" transform="translate(-650.107 -1494.775)" fill="#eae3dc"/>
      </g>
      <g id="グループ_13267" data-name="グループ 13267" transform="translate(81.505 964.765)">
        <rect id="長方形_29880" data-name="長方形 29880" width="60.443" height="0.752" transform="translate(0)" fill="#604029"/>
      </g>
      <g id="グループ_13268" data-name="グループ 13268" transform="translate(81.505 965.517)" style="mix-blend-mode: multiply;isolation: isolate">
        <rect id="長方形_29881" data-name="長方形 29881" width="60.443" height="0.608" transform="translate(0 0)" fill="#d8a29a"/>
      </g>
      <g id="グループ_13269" data-name="グループ 13269" transform="translate(81.505 1000.012)">
        <rect id="長方形_29882" data-name="長方形 29882" width="60.443" height="1.908" transform="translate(0 0)" fill="#e2e2e2"/>
      </g>
      <g id="グループ_13278" data-name="グループ 13278" transform="translate(81.505 999.59)">
        <g id="グループ_13270" data-name="グループ 13270" transform="translate(0 0)">
          <rect id="長方形_29883" data-name="長方形 29883" width="60.443" height="0.395" fill="#5b5b5b"/>
        </g>
        <g id="グループ_13277" data-name="グループ 13277" transform="translate(5.253 0.027)">
          <g id="グループ_13273" data-name="グループ 13273" transform="translate(0 1.145)">
            <g id="グループ_13271" data-name="グループ 13271" transform="translate(0 0.395)">
              <rect id="長方形_29884" data-name="長方形 29884" width="14.76" height="0.763" fill="#c6c6c6"/>
            </g>
            <g id="グループ_13272" data-name="グループ 13272" transform="translate(0.003)">
              <path id="パス_82632" data-name="パス 82632" d="M862.586,2946.33H848.331l-.5.4h14.757Z" transform="translate(-847.829 -2946.33)" fill="#848484"/>
            </g>
          </g>
          <g id="グループ_13276" data-name="グループ 13276" transform="translate(0.504)">
            <g id="グループ_13274" data-name="グループ 13274" transform="translate(0 0.395)">
              <rect id="長方形_29885" data-name="長方形 29885" width="14.255" height="0.763" fill="#c6c6c6"/>
            </g>
            <g id="グループ_13275" data-name="グループ 13275" transform="translate(0.001)">
              <path id="パス_82633" data-name="パス 82633" d="M880.866,2903.479H867.093l-.482.4h14.255Z" transform="translate(-866.611 -2903.479)" fill="#848484"/>
            </g>
          </g>
        </g>
      </g>
      <g id="グループ_13289" data-name="グループ 13289" transform="translate(89.811 982.159)">
        <g id="グループ_13282" data-name="グループ 13282" transform="translate(0 0)">
          <g id="グループ_13279" data-name="グループ 13279">
            <rect id="長方形_29886" data-name="長方形 29886" width="8.218" height="17.458" fill="#bfbebd"/>
          </g>
          <g id="グループ_13280" data-name="グループ 13280" transform="translate(0.508 0.535)">
            <rect id="長方形_29887" data-name="長方形 29887" width="7.186" height="16.403" fill="#aa9152"/>
          </g>
          <g id="グループ_13281" data-name="グループ 13281" transform="translate(7.25 7.291)">
            <rect id="長方形_29888" data-name="長方形 29888" width="0.327" height="3.298" fill="#bfbebd"/>
          </g>
        </g>
        <g id="グループ_13288" data-name="グループ 13288" transform="translate(2.066 2.773)">
          <g id="グループ_13283" data-name="グループ 13283">
            <rect id="長方形_29889" data-name="長方形 29889" width="4.085" height="2.758" fill="#bfbebd"/>
          </g>
          <g id="グループ_13287" data-name="グループ 13287" transform="translate(0.521 0.356)">
            <g id="グループ_13284" data-name="グループ 13284">
              <rect id="長方形_29890" data-name="長方形 29890" width="2.965" height="2.045" fill="#4eb4cc"/>
            </g>
            <g id="グループ_13285" data-name="グループ 13285">
              <path id="パス_82634" data-name="パス 82634" d="M1058.827,2368.441v-1.326h3.044v.37Z" transform="translate(-1058.827 -2367.115)" fill="#a7e8fc"/>
            </g>
            <g id="グループ_13286" data-name="グループ 13286">
              <rect id="長方形_29891" data-name="長方形 29891" width="2.965" height="0.167" fill="#579eaa"/>
            </g>
          </g>
        </g>
      </g>
      <g id="グループ_13304" data-name="グループ 13304" transform="translate(111.023 983.549)">
        <g id="グループ_13295" data-name="グループ 13295" transform="translate(0.016 0)">
          <g id="グループ_13290" data-name="グループ 13290">
            <rect id="長方形_29892" data-name="長方形 29892" width="7.591" height="14.678" fill="#bfbebd"/>
          </g>
          <g id="グループ_13294" data-name="グループ 13294" transform="translate(0.504 0.532)">
            <g id="グループ_13291" data-name="グループ 13291">
              <rect id="長方形_29893" data-name="長方形 29893" width="6.514" height="13.629" fill="#4eb4cc"/>
            </g>
            <g id="グループ_13292" data-name="グループ 13292">
              <path id="パス_82635" data-name="パス 82635" d="M1775.482,2325.212v-3.306h6.583Z" transform="translate(-1775.482 -2321.906)" fill="#a7e8fc"/>
            </g>
            <g id="グループ_13293" data-name="グループ 13293">
              <rect id="長方形_29894" data-name="長方形 29894" width="6.514" height="0.245" fill="#579eaa"/>
            </g>
          </g>
        </g>
        <g id="グループ_13301" data-name="グループ 13301" transform="translate(7.089 0)">
          <g id="グループ_13296" data-name="グループ 13296">
            <rect id="長方形_29895" data-name="長方形 29895" width="7.591" height="14.678" fill="#bfbebd"/>
          </g>
          <g id="グループ_13300" data-name="グループ 13300" transform="translate(0.518 0.532)">
            <g id="グループ_13297" data-name="グループ 13297">
              <rect id="長方形_29896" data-name="長方形 29896" width="6.514" height="13.629" fill="#4eb4cc"/>
            </g>
            <g id="グループ_13298" data-name="グループ 13298">
              <path id="パス_82636" data-name="パス 82636" d="M2040.758,2325.212v-3.306h6.581Z" transform="translate(-2040.758 -2321.906)" fill="#a7e8fc"/>
            </g>
            <g id="グループ_13299" data-name="グループ 13299">
              <rect id="長方形_29897" data-name="長方形 29897" width="6.514" height="0.245" fill="#579eaa"/>
            </g>
          </g>
        </g>
        <g id="グループ_13302" data-name="グループ 13302" transform="translate(7.053 7.774)">
          <rect id="長方形_29898" data-name="長方形 29898" width="7.587" height="0.347" fill="#bfbebd"/>
        </g>
        <g id="グループ_13303" data-name="グループ 13303" transform="translate(0 7.56)">
          <rect id="長方形_29899" data-name="長方形 29899" width="7.587" height="0.721" fill="#bfbebd"/>
        </g>
      </g>
      <g id="グループ_13317" data-name="グループ 13317" transform="translate(111.298 966.586)">
        <g id="グループ_13310" data-name="グループ 13310" transform="translate(0)">
          <g id="グループ_13305" data-name="グループ 13305">
            <rect id="長方形_29900" data-name="長方形 29900" width="7.591" height="8.145" fill="#bfbebd"/>
          </g>
          <g id="グループ_13309" data-name="グループ 13309" transform="translate(0.504 0.531)">
            <g id="グループ_13306" data-name="グループ 13306">
              <rect id="長方形_29901" data-name="長方形 29901" width="6.514" height="7.096" fill="#4eb4cc"/>
            </g>
            <g id="グループ_13307" data-name="グループ 13307">
              <path id="パス_82637" data-name="パス 82637" d="M1785.173,1690.245v-3.306h6.583Z" transform="translate(-1785.173 -1686.939)" fill="#a7e8fc"/>
            </g>
            <g id="グループ_13308" data-name="グループ 13308">
              <rect id="長方形_29902" data-name="長方形 29902" width="6.514" height="0.245" fill="#579eaa"/>
            </g>
          </g>
        </g>
        <g id="グループ_13316" data-name="グループ 13316" transform="translate(7.073)">
          <g id="グループ_13311" data-name="グループ 13311">
            <rect id="長方形_29903" data-name="長方形 29903" width="7.591" height="8.145" fill="#bfbebd"/>
          </g>
          <g id="グループ_13315" data-name="グループ 13315" transform="translate(0.518 0.531)">
            <g id="グループ_13312" data-name="グループ 13312">
              <rect id="長方形_29904" data-name="長方形 29904" width="6.514" height="7.096" fill="#4eb4cc"/>
            </g>
            <g id="グループ_13313" data-name="グループ 13313">
              <path id="パス_82638" data-name="パス 82638" d="M2050.45,1690.245v-3.306h6.581Z" transform="translate(-2050.45 -1686.939)" fill="#a7e8fc"/>
            </g>
            <g id="グループ_13314" data-name="グループ 13314">
              <rect id="長方形_29905" data-name="長方形 29905" width="6.514" height="0.245" fill="#579eaa"/>
            </g>
          </g>
        </g>
      </g>
      <g id="グループ_13330" data-name="グループ 13330" transform="translate(87.65 966.586)">
        <g id="グループ_13323" data-name="グループ 13323" transform="translate(0)">
          <g id="グループ_13318" data-name="グループ 13318">
            <rect id="長方形_29906" data-name="長方形 29906" width="7.591" height="8.145" fill="#bfbebd"/>
          </g>
          <g id="グループ_13322" data-name="グループ 13322" transform="translate(0.504 0.531)">
            <g id="グループ_13319" data-name="グループ 13319">
              <rect id="長方形_29907" data-name="長方形 29907" width="6.514" height="7.096" fill="#4eb4cc"/>
            </g>
            <g id="グループ_13320" data-name="グループ 13320">
              <path id="パス_82639" data-name="パス 82639" d="M899.97,1690.245v-3.306h6.583Z" transform="translate(-899.97 -1686.939)" fill="#a7e8fc"/>
            </g>
            <g id="グループ_13321" data-name="グループ 13321">
              <rect id="長方形_29908" data-name="長方形 29908" width="6.514" height="0.245" fill="#579eaa"/>
            </g>
          </g>
        </g>
        <g id="グループ_13329" data-name="グループ 13329" transform="translate(7.073)">
          <g id="グループ_13324" data-name="グループ 13324">
            <rect id="長方形_29909" data-name="長方形 29909" width="7.591" height="8.145" fill="#bfbebd"/>
          </g>
          <g id="グループ_13328" data-name="グループ 13328" transform="translate(0.518 0.531)">
            <g id="グループ_13325" data-name="グループ 13325">
              <rect id="長方形_29910" data-name="長方形 29910" width="6.514" height="7.096" fill="#4eb4cc"/>
            </g>
            <g id="グループ_13326" data-name="グループ 13326">
              <path id="パス_82640" data-name="パス 82640" d="M1165.247,1690.245v-3.306h6.581Z" transform="translate(-1165.247 -1686.939)" fill="#a7e8fc"/>
            </g>
            <g id="グループ_13327" data-name="グループ 13327">
              <rect id="長方形_29911" data-name="長方形 29911" width="6.514" height="0.245" fill="#579eaa"/>
            </g>
          </g>
        </g>
      </g>
      <g id="グループ_13336" data-name="グループ 13336" transform="translate(134.492 966.874)">
        <g id="グループ_13331" data-name="グループ 13331" transform="translate(0 0)">
          <rect id="長方形_29912" data-name="長方形 29912" width="3.761" height="8.119" fill="#bfbebd"/>
        </g>
        <g id="グループ_13335" data-name="グループ 13335" transform="translate(0.479 0.525)">
          <g id="グループ_13332" data-name="グループ 13332">
            <rect id="長方形_29913" data-name="長方形 29913" width="2.73" height="7.07" fill="#4eb4cc"/>
          </g>
          <g id="グループ_13333" data-name="グループ 13333">
            <path id="パス_82641" data-name="パス 82641" d="M2652.469,1701.064v-3.586h2.8v2.178Z" transform="translate(-2652.469 -1697.478)" fill="#a7e8fc"/>
          </g>
          <g id="グループ_13334" data-name="グループ 13334">
            <rect id="長方形_29914" data-name="長方形 29914" width="2.73" height="0.245" fill="#579eaa"/>
          </g>
        </g>
      </g>
      <g id="グループ_13337" data-name="グループ 13337" transform="translate(77.6 947.36)">
        <path id="パス_82642" data-name="パス 82642" d="M566.522,947.36h-54.78l-6.848,14.62H573.37Z" transform="translate(-504.894 -947.36)" fill="#636363"/>
      </g>
      <g id="グループ_13345" data-name="グループ 13345" transform="translate(77.6 947.36)">
        <g id="グループ_13344" data-name="グループ 13344" transform="translate(0 0)" clip-path="url(#clip-path-3)">
          <g id="グループ_13343" data-name="グループ 13343" transform="translate(-0.001 1.232)">
            <g id="グループ_13338" data-name="グループ 13338" transform="translate(0 10.501)">
              <rect id="長方形_29915" data-name="長方形 29915" width="68.467" height="0.938" fill="#092836"/>
            </g>
            <g id="グループ_13339" data-name="グループ 13339" transform="translate(0 7.889)">
              <rect id="長方形_29916" data-name="長方形 29916" width="68.467" height="0.938" fill="#092836"/>
            </g>
            <g id="グループ_13340" data-name="グループ 13340" transform="translate(0 5.26)">
              <rect id="長方形_29917" data-name="長方形 29917" width="68.467" height="0.938" fill="#092836"/>
            </g>
            <g id="グループ_13341" data-name="グループ 13341" transform="translate(0 2.63)">
              <rect id="長方形_29918" data-name="長方形 29918" width="68.467" height="0.938" fill="#092836"/>
            </g>
            <g id="グループ_13342" data-name="グループ 13342">
              <rect id="長方形_29919" data-name="長方形 29919" width="68.467" height="0.938" fill="#092836"/>
            </g>
          </g>
        </g>
      </g>
    </g>
  </g>
</svg>
