<svg xmlns="http://www.w3.org/2000/svg" xmlns:xlink="http://www.w3.org/1999/xlink" width="140" height="140" viewBox="0 0 140 140"><defs><clipPath id="a"><circle cx="70" cy="70" r="70" transform="translate(0 0.477)" fill="#f7f3e5"/></clipPath></defs><g transform="translate(0 -0.477)"><circle cx="70" cy="70" r="70" transform="translate(0 0.477)" fill="#f7f3e5"/><g clip-path="url(#a)"><g transform="translate(-432.464 -83.45)"><g transform="translate(439.073 107.382)"><path d="M474.158,201.447,476.907,199l22.448.153,5.65,15.576-5.5,60.168h-33.9Z" transform="translate(-451.719 -151.049)" fill="#62683a"/><path d="M510.224,188.155c-2.442-.925-2.684-2.357-2.7-3.8l-.084-6.148-7.633.7h-.65l-7.633-.7-.084,6.148c-.02,1.443-.262,2.875-2.7,3.8-.416,1.254,2.145,3.893,3.117,4.823,2.7,2.582,4.9,3.59,7.622,3.8h.01c2.726-.214,4.925-1.222,7.622-3.8C508.078,192.047,510.64,189.409,510.224,188.155Z" transform="translate(-462.72 -141.137)" fill="#eabf98"/><path d="M508.761,123.612a17.063,17.063,0,0,1,.181,3.127c-.043,5.014,0,10.031-.086,15.047-.041,2.54-.153,3.422-.285,5.959a9.735,9.735,0,0,1-2.677,6.517,31.321,31.321,0,0,1-4.046,3.108,8.293,8.293,0,0,1-8.711.3,23.655,23.655,0,0,1-4.684-3.018,11.95,11.95,0,0,1-3.692-6.851c-.3-2.527.113-2.942-.1-5.476-.414-5-.711-10.016-1.091-15.021a17.064,17.064,0,0,1-.026-3.149Z" transform="translate(-460.238 -115.117)" fill="#eabf98"/><path d="M480.418,151.211c-2.337.623-4,2.429-3.939,4.52.071,2.552,3.171,6.466,6.326,6.394a3.684,3.684,0,0,0,.841-.116Z" transform="translate(-456.9 -128.271)" fill="#eabf98"/><path d="M531.194,148.942c2.274-.016,4.231,1.208,4.693,3.119.569,2.331-1.269,6.648-4.147,7.366a3.5,3.5,0,0,1-.791.1Z" transform="translate(-482.861 -127.19)" fill="#eabf98"/><path d="M487.043,119.552c2.022-3.923-4.747-2.463-6.4-1.264-2.648,1.921-3.9,5.387-4.415,8.544-.572,3.527.761,10.145.942,10.4.231.324,1.044-.413,1.91-.176,2.3.629,2.294,4.261,3.208,4.274.469.007.212-9.258.9-12.494C483.875,125.616,485.547,122.454,487.043,119.552Z" transform="translate(-456.714 -111.965)" fill="#818a96"/><g transform="translate(27.486 26.724)"><path d="M495.228,160.465a1.8,1.8,0,0,1-1.954,1.681,1.88,1.88,0,0,1-1.681-2.016,1.8,1.8,0,0,1,1.954-1.682A1.877,1.877,0,0,1,495.228,160.465Z" transform="translate(-491.588 -158.441)" fill="#e9706e"/><path d="M493.365,161.948a.357.357,0,0,1-.233-.117c-.268-.3-1.137-1.308-.9-1.769a.575.575,0,0,1,.355-.289c.422-.117,1.022.159,1.8.609.05.029.093.055.121.07s.057.029.081.044c-.013-.023-.027-.044-.042-.069-.031-.052-.068-.109-.1-.174-.2-.325-.6-1.009-.913-1.016a.363.363,0,0,1-.337-.375.347.347,0,0,1,.361-.337c.678.048,1.164.837,1.479,1.363l.1.163c.258.413.512.879.232,1.182s-.755.078-1.18-.158c-.032-.017-.082-.045-.139-.08a5.172,5.172,0,0,0-1.048-.508,7.7,7.7,0,0,0,.643.864.36.36,0,0,1-.016.5A.342.342,0,0,1,493.365,161.948Z" transform="translate(-491.876 -158.481)" fill="#e55a65"/></g><g transform="translate(42.768 25.62)"><path d="M524.424,158.357a1.8,1.8,0,0,1-1.953,1.68,1.883,1.883,0,0,1-1.682-2.014,1.8,1.8,0,0,1,1.954-1.684A1.877,1.877,0,0,1,524.424,158.357Z" transform="translate(-520.785 -156.332)" fill="#e9706e"/><path d="M522.566,159.838a.339.339,0,0,1-.233-.115c-.272-.3-1.139-1.307-.9-1.768a.564.564,0,0,1,.358-.289c.418-.117,1.02.158,1.795.608.05.03.092.053.122.069s.054.03.08.044c-.013-.022-.027-.043-.043-.068-.031-.052-.067-.109-.1-.174-.195-.323-.6-1.007-.912-1.017a.363.363,0,0,1-.334-.373.342.342,0,0,1,.359-.337c.68.046,1.165.834,1.479,1.361l.1.163c.259.413.509.88.233,1.182s-.76.079-1.184-.157l-.137-.079a5.266,5.266,0,0,0-1.048-.51,7.377,7.377,0,0,0,.644.866.36.36,0,0,1-.017.5A.324.324,0,0,1,522.566,159.838Z" transform="translate(-521.074 -156.373)" fill="#e55a65"/></g><path d="M519.253,150.847a1.319,1.319,0,0,1-1.411,1.253,1.374,1.374,0,0,1-1.253-1.455A1.319,1.319,0,0,1,518,149.39,1.375,1.375,0,0,1,519.253,150.847Z" transform="translate(-476.016 -127.402)" fill="#0d0002"/><path d="M499.833,152.342a1.318,1.318,0,0,1-1.411,1.254,1.375,1.375,0,0,1-1.253-1.456,1.318,1.318,0,0,1,1.411-1.253A1.374,1.374,0,0,1,499.833,152.342Z" transform="translate(-466.761 -128.115)" fill="#0d0002"/><path d="M505.6,159.641a.359.359,0,0,1-.276-.362c-.019-.209.092-.387.244-.4l5.282-.354c-1.173-4.446-2.994-11.174-3.279-11.778a.5.5,0,0,1-.033-.483.228.228,0,0,1,.385-.072c.088.089.352.358,3.569,12.577a.511.511,0,0,1-.024.33.258.258,0,0,1-.2.161l-5.637.378Z" transform="translate(-470.647 -125.843)" fill="#0d0002"/><path d="M501.879,107.555c-3.4-.489-7.914-.069-10.1,2.937a6.786,6.786,0,0,0-1.013,5.791,1.851,1.851,0,0,0,.7,1.112,2.121,2.121,0,0,0,1.221.193c2.094-.092,4.187-.363,6.278-.433a18.659,18.659,0,0,0,5.452-.607,5.127,5.127,0,0,1,2.809-.451,4.351,4.351,0,0,0-2.314,1.278,4.449,4.449,0,0,1,4.028,1.53,9.783,9.783,0,0,1,1.982,4c1.065,3.761.61,13.253,1.047,13.178.724-.124,2.346-6.285,2.771-6.143a13.478,13.478,0,0,1,1.269.962s.167-1.462.157-2.1c-.115-7.033-3.106-14.135-8.6-18.531A12.064,12.064,0,0,0,501.879,107.555Z" transform="translate(-463.587 -107.382)" fill="#818a96"/><path d="M516.928,152.2l-.446,0a3.171,3.171,0,0,1-2.237-.892,2.127,2.127,0,0,1-.636-1.535c.017-1.489.821-2.112,3.07-2.38,1.351-.162,3.019-.232,3.94.655a2.6,2.6,0,0,1,.65,2.19c-.065.788-.665,1.763-3.155,1.931h0C517.7,152.188,517.307,152.2,516.928,152.2Zm1.18-4.468a11.662,11.662,0,0,0-1.376.094c-2.265.27-2.67.844-2.682,1.95a1.7,1.7,0,0,0,.51,1.222,2.765,2.765,0,0,0,1.927.761c.5,0,1.039.006,1.6-.031h0c1.749-.118,2.674-.632,2.747-1.528a2.165,2.165,0,0,0-.518-1.838A3.2,3.2,0,0,0,518.108,147.727Z" transform="translate(-474.597 -126.4)" fill="#29292d"/><path d="M494.041,146.476c-1.3-.119-1.219-1.121-1.219-1.121a4.63,4.63,0,0,0,2.645-.409c1.473-.523,2.48-1.526,3.014-1.322.268.1.45.505.306.7A7.356,7.356,0,0,1,494.041,146.476Z" transform="translate(-464.689 -124.642)" fill="#818a96"/><path d="M519.212,144.722c1.276-.287,1.064-1.269,1.064-1.269a4.63,4.63,0,0,1-2.676-.062c-1.529-.328-2.657-1.192-3.161-.92-.252.136-.38.56-.212.735A7.356,7.356,0,0,0,519.212,144.722Z" transform="translate(-474.855 -124.08)" fill="#818a96"/><rect width="3.672" height="0.44" transform="translate(35.471 22.864) rotate(-4.314)" fill="#29292d"/><path d="M525.573,147.9s1.08,1.144,1.144,1.779-.6,2.033-.445,2.033a2.351,2.351,0,0,0,.89-1.366c.159-.667.6-.826.6-1.239s-.027-.753-.286-.794C526.494,148.158,525.573,147.9,525.573,147.9Z" transform="translate(-480.299 -126.695)" fill="#29292d"/><path d="M513.214,149.377l-.211.247a1.179,1.179,0,0,1-.5.343l-.613.112s.01.419.139.407a.922.922,0,0,1,.52.026c.233.113.269.628.269.615S513.214,149.377,513.214,149.377Z" transform="translate(-473.777 -127.397)" fill="#29292d"/><path d="M494.936,153.84c-1.964,0-2.58-.786-2.741-1.484a2.6,2.6,0,0,1,.329-2.261c.784-1.01,2.445-1.179,3.805-1.214,2.258-.051,3.149.443,3.38,1.915a2.129,2.129,0,0,1-.409,1.611,3.17,3.17,0,0,1-2.085,1.2c-.506.079-1.048.159-1.62.2C495.36,153.832,495.141,153.84,494.936,153.84Zm1.741-4.524q-.162,0-.337,0c-1.165.029-2.792.17-3.47,1.044a2.164,2.164,0,0,0-.248,1.893c.2.876,1.192,1.254,2.938,1.117h0c.556-.042,1.089-.121,1.587-.2a2.767,2.767,0,0,0,1.8-1.029,1.7,1.7,0,0,0,.33-1.283C499.113,149.829,498.67,149.317,496.678,149.317Z" transform="translate(-464.34 -127.159)" fill="#29292d"/><path d="M492.367,150.185a4.989,4.989,0,0,0-.877,1.925c.029.638.89,1.926.732,1.949s-.823-.587-1.077-1.224-.716-.731-.775-1.139-.081-.749.169-.827C491.492,150.569,492.367,150.185,492.367,150.185Z" transform="translate(-463.503 -127.782)" fill="#29292d"/><path d="M505.467,150.041l.245.214a1.169,1.169,0,0,0,.544.267l.623.023s.05.416-.079.423a.924.924,0,0,0-.51.1c-.216.145-.176.661-.177.647S505.467,150.041,505.467,150.041Z" transform="translate(-470.716 -127.713)" fill="#29292d"/><path d="M532.1,150.05a.512.512,0,0,1-.056,0l-3.334-.379a.49.49,0,0,1,.111-.975l3.334.379a.49.49,0,0,1-.055.978Z" transform="translate(-481.588 -127.07)" fill="#29292d"/><path d="M478.421,153.874a.49.49,0,0,1-.108-.969l6.321-1.428a.49.49,0,1,1,.217.956l-6.322,1.428A.483.483,0,0,1,478.421,153.874Z" transform="translate(-457.592 -128.392)" fill="#29292d"/><path d="M503.783,187.569c-2.783,0-7.242-2.588-7.436-2.7a.412.412,0,1,1,.416-.712c.047.028,4.71,2.746,7.222,2.583,2.177-.133,5.682-2.867,5.717-2.895a.412.412,0,0,1,.509.648c-.152.119-3.742,2.921-6.177,3.07C503.953,187.567,503.868,187.569,503.783,187.569Z" transform="translate(-466.272 -143.782)" fill="#c05343"/><path d="M573.859,280.722c-4.28-16.9-10.789-52.085-13.659-59.647-1.327-3.484-3.4-5.786-7.068-8.054-.039-.029-1.14-.6-1.178-.617-.952-.585-1.938-1.129-2.937-1.636l-7.888,21.878c2.38,6.16,5.9,15.263,9.315,24.142q.485,1.259.965,2.514c1.353,3.51,2.674,16.607,3.88,21.3Z" transform="translate(-487.713 -156.656)" fill="#97a0ae"/><path d="M546.306,273.962s.285-16.719.339-20.642c.289-20.252.651-46.241.661-46.825v-.009l-.116-.063-4.575-2.817a142.423,142.423,0,0,0-13.674-6.65l-.217,52.736-.115,24.357Z" transform="translate(-481.746 -150.073)" fill="#97a0ae"/><path d="M561.974,268.491h0a.49.49,0,0,1-.488-.493c.007-1.188.189-29.166,1.734-35.17l1.546-6.014a.491.491,0,0,1,.951.244l-1.546,6.014c-1.514,5.887-1.7,34.641-1.7,34.931A.489.489,0,0,1,561.974,268.491Z" transform="translate(-497.414 -164.128)" fill="#727c81"/><path d="M445.711,273.314c-3.588-7.666-8.663-44.677-5.793-52.239,1.327-3.484,3.4-5.786,7.069-8.054.039-.029,1.139-.6,1.178-.617.952-.585,1.937-1.129,2.937-1.636l7.888,21.878c-2.38,6.16-5.9,15.263-9.315,24.142q-.485,1.259-.965,2.514c-1.354,3.51,7.179,11.926,5.973,16.623Z" transform="translate(-439.073 -156.656)" fill="#97a0ae"/><path d="M454.922,273.962s-.285-16.719-.339-20.642c-.289-20.252-.651-46.241-.661-46.825v-.009l.116-.063,4.575-2.817a142.422,142.422,0,0,1,13.674-6.65l.217,52.736.115,24.357Z" transform="translate(-446.15 -150.073)" fill="#97a0ae"/><path d="M461.211,263.158a.49.49,0,0,1-.485-.42c-.032-.219-3.2-21.921-4.72-27.84-1.465-5.7-3.675-7.224-3.7-7.24a.49.49,0,0,1,.533-.823c.1.066,2.537,1.688,4.114,7.818,1.535,5.97,4.708,27.724,4.74,27.943a.491.491,0,0,1-.415.556A.468.468,0,0,1,461.211,263.158Z" transform="translate(-445.277 -164.277)" fill="#727c81"/><path d="M500.975,216.375a12.349,12.349,0,0,1-9.591-4.631.458.458,0,0,1,.739-.543,11.707,11.707,0,0,0,6.262,3.949c3.132.714,5.774.207,7.854-1.507a8.152,8.152,0,0,0,2.188-2.777.458.458,0,1,1,.845.354A9.14,9.14,0,0,1,500.975,216.375Z" transform="translate(-463.962 -156.568)" fill="#414526"/><path d="M509.188,204.246a14.577,14.577,0,0,0,1.6-2.178c.51-.82,1.7-2.153,1.327-3.19-.16-.445-.555-.578-.548-1.022,0-.377.422-.78.4-1.206a3.646,3.646,0,0,0-1.736-2.335c-.807-.572-.37-.674-.033-1.551a1.42,1.42,0,0,0-.583-1.91c-.514-.348-1.907-.547-1.919-1.179-.015-.78,1.18-1.724,1.6-2.266.626-.8.754-2.125-.484-2.351-1.467-.267-2.824.8-3.914,1.645-1.388,1.071-2.727,2.18-4.031,3.352-.658.593-1.429,1.036-2.1,1.607-.435.372-.882.942-1.524.53-.48-.309-.756-1.45-.9-1.953-.4-1.394-.987-3.242-2.225-4.131-.658-.474-2.656-.91-3.226-.033s.813,1.78,1.215,2.394a9.752,9.752,0,0,1,1.26,3.7c.26,1.7-.437,3.351-.46,5.061-.03,2.143,1.1,3.908,1.415,5.976.413,2.726-.807,5.274-.837,7.947-.021,1.613.732,1.613,2.286,2.126,1.432.469,4.011,1.665,5.541,1.646.732-.009,2.078-4.417,2.882-5.79,1.109-1.9,3.133-3.025,4.657-4.54C508.969,204.481,509.08,204.364,509.188,204.246Z" transform="translate(-463.708 -144.383)" fill="#eabf98"/><path d="M512.183,194.8a.41.41,0,0,1-.271-.1,6.789,6.789,0,0,0-.537-.42c-.832-.59-.7-1.011-.413-1.54a4.152,4.152,0,0,0,.234-.5,1.017,1.017,0,0,0-.43-1.421,3.671,3.671,0,0,0-.636-.276c-.646-.238-1.449-.535-1.462-1.237-.014-.744.689-1.47,1.254-2.052.173-.179.338-.348.437-.475a1.485,1.485,0,0,0,.327-1.3.661.661,0,0,0-.56-.4c-1.26-.234-2.517.739-3.528,1.519l-.061.047c-1.428,1.1-2.739,2.193-4.008,3.332a13,13,0,0,1-1.164.9c-.334.238-.65.463-.947.715-.056.049-.114.1-.173.154a1.421,1.421,0,0,1-1.841.408,3.6,3.6,0,0,1-1.029-2.02l-.047-.165c-.428-1.481-.975-3.126-2.07-3.911a3.173,3.173,0,0,0-1.248-.425.412.412,0,1,1,.118-.816,3.987,3.987,0,0,1,1.612.571c1.308.939,1.914,2.739,2.38,4.352l.049.172c.114.406.38,1.356.68,1.549.239.152.379.1.84-.323.065-.06.13-.119.194-.174.325-.276.669-.521,1-.759a12.066,12.066,0,0,0,1.091-.841c1.284-1.154,2.611-2.257,4.056-3.372l.061-.048c1.141-.879,2.562-1.97,4.179-1.677a1.478,1.478,0,0,1,1.182.915,2.274,2.274,0,0,1-.448,2.1c-.126.161-.3.345-.494.541-.41.423-1.03,1.062-1.022,1.463,0,.092.313.254.924.479a3.967,3.967,0,0,1,.814.366,1.819,1.819,0,0,1,.736,2.4,4.993,4.993,0,0,1-.277.589,1.608,1.608,0,0,0-.12.252c.01-.008.059.067.284.226s.419.313.6.472a.412.412,0,0,1-.271.723Z" transform="translate(-465.088 -144.007)" fill="#c05343"/><path d="M494.4,199.238a.384.384,0,0,1-.073-.007.412.412,0,0,1-.333-.478l.03-.17a8.581,8.581,0,0,0,.2-2.824,10.9,10.9,0,0,0-.775-2.76.412.412,0,0,1,.751-.341,11.733,11.733,0,0,1,.839,2.977,9.323,9.323,0,0,1-.2,3.093l-.03.17A.413.413,0,0,1,494.4,199.238Z" transform="translate(-464.971 -147.91)" fill="#c05343"/><path d="M484.644,237.946l-10.6-5.219s-18.594,31.48-20.062,37.678-6.2,12.07.326,16.8c1.652,1.2,3.132.317,6.2,0,3.3-.341,5.545-5.057,10.276-14.028Z" transform="translate(-444.732 -167.122)" fill="#97a0ae"/><path d="M455.987,274.17a.542.542,0,0,1-.128-.016.506.506,0,0,1-.352-.612c.166-.666,12.813-23.109,16.685-29.971a.491.491,0,0,1,.855.483c-6.5,11.514-16.28,28.942-16.6,29.762A.467.467,0,0,1,455.987,274.17Z" transform="translate(-446.898 -172.171)" fill="#727c81"/><path d="M452.469,288.831a.492.492,0,0,1-.471-.35l-.02-.014a.854.854,0,0,1-.436-.675c-.015-.416.241-.87,1.6-1.955a62.725,62.725,0,0,1,6.092-4.118.491.491,0,0,1,.5.845,62.768,62.768,0,0,0-5.978,4.039,6.674,6.674,0,0,0-1.171,1.09.786.786,0,0,1,.377.648A.49.49,0,0,1,452.469,288.831Z" transform="translate(-445.016 -190.439)" fill="#727c81"/><path d="M461.947,326.077a10.549,10.549,0,0,1-4.313-.977.491.491,0,0,1,.438-.878c.037.019,3.738,1.82,6.893.168,2.68-1.4,6.751-10.188,8.093-13.453a.49.49,0,1,1,.907.373c-.2.493-5,12.093-8.544,13.949A7.418,7.418,0,0,1,461.947,326.077Z" transform="translate(-447.79 -204.252)" fill="#727c81"/><path d="M496.458,118.4a.261.261,0,0,1-.151-.05.239.239,0,0,1-.046-.343,14.049,14.049,0,0,1,.958-1.15.248.248,0,0,1,.343-.014.25.25,0,0,1,.018.344l0,0-.009.009a14.03,14.03,0,0,0-.916,1.1A.246.246,0,0,1,496.458,118.4Zm2.006-2.144a.244.244,0,0,1-.192-.092.239.239,0,0,1,.037-.344q.275-.227.55-.412c.225-.156.458-.3.692-.44a.251.251,0,0,1,.339.087.225.225,0,0,1,.032.124.249.249,0,0,1-.119.211c-.229.137-.458.279-.669.421a6.387,6.387,0,0,0-.513.389A.282.282,0,0,1,498.464,116.26Zm2.52-1.512a.246.246,0,0,1-.224-.142.224.224,0,0,1-.005-.187.23.23,0,0,1,.124-.138c.449-.2.916-.385,1.393-.549h.009a.243.243,0,0,1,.3.155.185.185,0,0,1,.014.073.25.25,0,0,1-.16.234s0,0-.009,0-.009,0-.018,0a13.964,13.964,0,0,0-1.324.527A.263.263,0,0,1,500.983,114.749Zm2.781-.944a.244.244,0,0,1-.206-.375.251.251,0,0,1,.151-.11,11.937,11.937,0,0,1,1.484-.261h.023a.241.241,0,0,1,.243.225.246.246,0,0,1-.22.265h-.023a11.95,11.95,0,0,0-1.393.252A.264.264,0,0,1,503.764,113.8Z" transform="translate(-466.303 -110.087)" fill="#b6bbbd"/><path d="M502.236,121.793a.181.181,0,0,1-.087-.018.243.243,0,0,1-.147-.311.97.97,0,0,1,.312-.38l0,0a.254.254,0,0,1,.339.032.233.233,0,0,1,.06.155.225.225,0,0,1-.083.183v0s-.009.009-.014.009a.744.744,0,0,0-.161.178A.243.243,0,0,1,502.236,121.793Zm1.516-.989a.241.241,0,0,1-.225-.151.226.226,0,0,1,0-.188.24.24,0,0,1,.133-.133,14.376,14.376,0,0,1,1.416-.48h.009a.241.241,0,0,1,.293.164.224.224,0,0,1,.009.078.231.231,0,0,1-.17.225l0,0H505.2a14.173,14.173,0,0,0-1.36.463A.208.208,0,0,1,503.752,120.8Zm7.174-.815a.232.232,0,0,1-.11-.028s-.009,0-.018-.009a2.158,2.158,0,0,0-.279-.1,5.069,5.069,0,0,0-1.04-.155.246.246,0,0,1-.229-.261.236.236,0,0,1,.256-.229,3.944,3.944,0,0,1,1.535.316s0,0,0,0a.226.226,0,0,1,.114.137.24.24,0,0,1-.014.188A.251.251,0,0,1,510.926,119.988Zm-4.356-.014a.245.245,0,0,1-.239-.2.254.254,0,0,1,.032-.183.246.246,0,0,1,.155-.105,14.318,14.318,0,0,1,1.48-.238.242.242,0,0,1,.265.22.056.056,0,0,1,0,.027.247.247,0,0,1-.22.243,14.162,14.162,0,0,0-1.429.229C506.6,119.97,506.588,119.974,506.569,119.974Z" transform="translate(-469.058 -113.018)" fill="#b6bbbd"/><path d="M499.257,176.2h-.023a.413.413,0,0,1-.389-.434,4.282,4.282,0,0,1,.63-2.261.412.412,0,0,1,.662.491,3.724,3.724,0,0,0-.469,1.815A.413.413,0,0,1,499.257,176.2Z" transform="translate(-467.56 -138.817)" fill="#c05343"/><g transform="translate(70.301 14.967)"><path d="M621,178.625a15.9,15.9,0,0,0,4.855-7.489,2.884,2.884,0,0,0,3.254.875c.246-.073.3-.379.056-.462-2.6-.883-.837-13.2-1.182-16.24a29.384,29.384,0,0,0-5.208-13.388,8.73,8.73,0,0,0-8.626-3.7,4.974,4.974,0,0,0-4.2-2.242c-3.585-.179-20.97,5.7-18.384,30.928a15.29,15.29,0,0,0,3.351,7.935c.665.41.963.3.632-.406a5.541,5.541,0,0,1-.632-3.255c5.538,13.5,16.826,11.279,17.709,11.226A14.305,14.305,0,0,0,621,178.625Z" transform="translate(-581.924 -135.978)" fill="#7b6a5e"/><path d="M642.777,205.594a.221.221,0,0,1-.177-.1.231.231,0,0,1-.033-.156.214.214,0,0,1,.091-.137,5.393,5.393,0,0,0,.912-.809v0a.223.223,0,0,1,.3-.008.186.186,0,0,1,.066.157.213.213,0,0,1-.054.14,5.836,5.836,0,0,1-.987.875A.217.217,0,0,1,642.777,205.594Zm1.742-1.833a.222.222,0,0,1-.12-.041.207.207,0,0,1-.05-.293c.058-.083.12-.174.194-.285a7.9,7.9,0,0,0,.454-.776.212.212,0,1,1,.376.195,9.258,9.258,0,0,1-.479.817c-.062.1-.128.194-.2.293A.229.229,0,0,1,644.519,203.76Zm1.193-2.245a.175.175,0,0,1-.078-.017.207.207,0,0,1-.116-.273c.144-.367.285-.768.421-1.189a.211.211,0,0,1,.413.066.322.322,0,0,1-.008.066c-.14.43-.285.838-.433,1.214A.217.217,0,0,1,645.712,201.515Zm.78-2.424a.279.279,0,0,1-.053-.008.215.215,0,0,1-.153-.26c.19-.739.276-1.222.276-1.226s0,0,0-.008a.214.214,0,0,1,.244-.165.218.218,0,0,1,.173.248l0,.009c-.025.128-.116.6-.281,1.251A.216.216,0,0,1,646.493,199.091Z" transform="translate(-606.358 -165.261)" fill="#a1948a"/><path d="M668.361,317.979a19.9,19.9,0,0,0,1.322,4.461c1.257,3.24,3.189,7.467,5.195,7.466,2.436,0,5.216-.418,5.748-3.576a5.258,5.258,0,0,0-.041-.815c0-3.152-3.026-7.025-5.707-7.025S668.361,314.827,668.361,317.979Z" transform="translate(-618.653 -222.11)" fill="#ec8275"/><path d="M580.643,331.219l2-14.992-7.76.392-1.493,14.718Z" transform="translate(-573.389 -221.885)" fill="#ec8275"/><path d="M654.621,237.178s6.523,1.337,7.87,3.078c2.968,3.834,8.9,38.463,8.9,38.463L661.123,282.6l-7.412-27.875Z" transform="translate(-611.671 -184.21)" fill="#32485f"/><path d="M586.1,238.1s-5.323.772-6.554,2.6c-3.587,5.318-5.936,42.791-5.936,42.791l9.894-.124,4.823-28.2Z" transform="translate(-573.495 -184.648)" fill="#32485f"/><path d="M587.36,238.008c1.855-2.226,11.893-5.807,11.893-5.807l8.7.854,8.7-.854s10.037,3.581,11.892,5.807-2.473,25.724-2.968,28.2-2.845,12.738-2.845,12.738l1.113,12.225-15.463.234v.013l-.431-.006-.43.006V291.4l-15.464-.234,1.113-12.225s-2.35-10.265-2.845-12.738S585.5,240.234,587.36,238.008Z" transform="translate(-579.829 -181.838)" fill="#32485f"/><path d="M603.318,153.805c2.264-3.067,7.665-5.459,12.11-6.081l.006.224.006-.224c4.446.623,9.847,3.014,12.111,6.081,1.862,2.523.88,9.712.805,13.1-.158,7.43-5.706,13.687-12.078,14.648l0,.132c-.284,0-.566-.015-.848-.036-.282.021-.564.036-.848.036l0-.132c-6.372-.962-11.92-7.219-12.078-14.648C602.438,163.517,601.455,156.329,603.318,153.805Z" transform="translate(-587.114 -141.576)" fill="#eabf98"/><path d="M653.612,180.755c-.1,2-2.545,4.715-4.562,5s-1.125-1.939-1.4-3.985a3.718,3.718,0,0,1,3.147-4.2C652.814,177.293,653.718,178.69,653.612,180.755Z" transform="translate(-608.766 -155.785)" fill="#eabf98"/><path d="M623.918,146.769a7.924,7.924,0,0,1-3.632-2.455,5.149,5.149,0,0,1-.759-1.143c-1.552-3.27,1.915-3.967,4.473-3.889a12.143,12.143,0,0,1,3.688.5c1.206.426,2.117.223,3.092,1.051a39.9,39.9,0,0,1,3.7,3.582,21.152,21.152,0,0,1,2.71,4.314,19.037,19.037,0,0,1,1.9,5.05,20.393,20.393,0,0,1,.427,3.651c.016.455.139.881.165,1.321.035.588-.2,1.155-.191,1.746.009.654.426,1.4,1.081,1.4a7.209,7.209,0,0,1-3.921-1.374c-.149.633.535,1.586,1.153,1.983a.082.082,0,0,1-.04.15c-1.727.174-3.625-1.7-4.879-3.6-1.105-1.669-1.282-6.057-2.32-7.769a7.277,7.277,0,0,0-3.732-3.536A15.21,15.21,0,0,0,623.918,146.769Z" transform="translate(-595.195 -137.55)" fill="#7b6a5e"/><path d="M635.81,179.989a1.46,1.46,0,0,0,.734,1.876,1.351,1.351,0,0,0,1.8-.764,1.459,1.459,0,0,0-.742-1.875A1.349,1.349,0,0,0,635.81,179.989Z" transform="translate(-603.089 -156.537)" fill="#0d0002"/><path d="M615.121,179.989a1.46,1.46,0,0,0,.735,1.876,1.353,1.353,0,0,0,1.8-.764,1.462,1.462,0,0,0-.742-1.875A1.35,1.35,0,0,0,615.121,179.989Z" transform="translate(-593.228 -156.537)" fill="#0d0002"/><path d="M606.991,218.728c.62-.634,4.3-2.539,5.449-4.263,2.8-4.2,1.4-11.909,1.4-11.909l4.042.33,4.042-.33s-1.4,7.705,1.4,11.909c1.149,1.724,4.51,3.833,5.13,4.468.178.182-5.322,8.81-11.311,9.131C613.328,228.267,606.812,218.911,606.991,218.728Z" transform="translate(-589.402 -167.709)" fill="#eabf98"/><g transform="translate(17.368 24.977)"><path d="M606.573,185.422A1.724,1.724,0,1,0,608.3,183.7,1.723,1.723,0,0,0,606.573,185.422Z" transform="translate(-606.573 -183.699)" fill="#e9706e"/><path d="M608.782,187a.326.326,0,0,0,.224-.088c.439-.408,1.147-1.155.964-1.567a.546.546,0,0,0-.317-.293,2.65,2.65,0,0,0-1.742.418l-.108.05-.078.033c.014-.02.029-.039.044-.06l.113-.154c.207-.283.643-.88.93-.863a.336.336,0,0,0,.342-.319.331.331,0,0,0-.319-.341h-.029c-.629,0-1.126.682-1.457,1.135-.039.053-.074.1-.107.144-.272.361-.541.771-.3,1.076s.707.136,1.126-.045l.123-.057a5,5,0,0,1,1.035-.39,6.918,6.918,0,0,1-.668.751.33.33,0,0,0,.226.572Z" transform="translate(-606.704 -183.752)" fill="#e55a65"/></g><g transform="translate(36.141 24.977)"><path d="M642.439,185.422a1.724,1.724,0,1,0,1.726-1.723A1.723,1.723,0,0,0,642.439,185.422Z" transform="translate(-642.439 -183.699)" fill="#e9706e"/><path d="M644.648,187a.326.326,0,0,0,.225-.088c.439-.408,1.147-1.155.963-1.567a.543.543,0,0,0-.316-.293,2.65,2.65,0,0,0-1.742.418l-.108.05-.079.033c.014-.02.029-.039.044-.06l.113-.154c.207-.283.643-.88.93-.863a.335.335,0,0,0,.341-.319.33.33,0,0,0-.319-.341h-.029c-.629,0-1.126.682-1.457,1.135-.039.053-.074.1-.107.144-.272.361-.542.771-.3,1.076s.708.136,1.126-.045l.123-.057a5.005,5.005,0,0,1,1.035-.39,6.878,6.878,0,0,1-.668.751.33.33,0,0,0,.226.572Z" transform="translate(-642.57 -183.752)" fill="#e55a65"/></g><path d="M596.006,153.238c.319-2.007,4-7.837,5.717-9.494,2.15-2.078,5.129-4.766,8.25-4.11,2.546.535,4.876.959,4.825,3.962a5.419,5.419,0,0,1-.539,2.216c-.886,1.87-5.152,3.811-7.227,6.537-2.455,3.224-3.414,6.927-5.057,10.631-.53,1.2-.917,2.461-1.369,3.687-.383,1.039-.733,3.186-2.027,3.357a3.192,3.192,0,0,1-3.312-2.006,5.985,5.985,0,0,1-.274-1.408,27.914,27.914,0,0,1-.248-6.694C595.044,157.666,595.649,155.476,596.006,153.238Z" transform="translate(-583.509 -137.672)" fill="#7b6a5e"/><path d="M634.68,173.667a.212.212,0,0,1,.083-.416,20.028,20.028,0,0,1,3.329.784.212.212,0,0,1-.152.4,19.855,19.855,0,0,0-3.24-.76Z" transform="translate(-602.524 -153.741)" fill="#7b6a5e"/><path d="M614.112,174.354a.212.212,0,0,1-.1-.412,20.067,20.067,0,0,1,3.357-.655.212.212,0,1,1,.024.423,19.9,19.9,0,0,0-3.266.64Z" transform="translate(-592.679 -153.759)" fill="#7b6a5e"/><path d="M627.217,188.961a.424.424,0,0,1-.263-.757l1.132-.893-.936-5.214a.424.424,0,1,1,.835-.15l.981,5.464a.424.424,0,0,1-.154.408l-1.332,1.051A.421.421,0,0,1,627.217,188.961Z" transform="translate(-598.842 -157.72)" fill="#0d0002"/><path d="M624.829,211.554a9.2,9.2,0,0,1-3.137-.608.379.379,0,0,1,.26-.713,8.056,8.056,0,0,0,3.286.548,9.969,9.969,0,0,0,2.556-.522.38.38,0,0,1,.246.718,10.738,10.738,0,0,1-2.751.561Q625.063,211.554,624.829,211.554Z" transform="translate(-596.292 -171.357)" fill="#cb6362"/><path d="M645.586,158.789a.214.214,0,0,1-.19-.111,7.738,7.738,0,0,1-.491-1.205,0,0,0,0,0,0,0,.35.35,0,0,1-.008-.061.2.2,0,0,1,.144-.207.215.215,0,0,1,.268.132,7.716,7.716,0,0,0,.467,1.148.211.211,0,0,1-.087.285A.222.222,0,0,1,645.586,158.789Zm-.851-2.395a.212.212,0,0,1-.2-.157c-.1-.339-.194-.693-.293-1.065l-.046-.165a.238.238,0,0,1-.008-.053.217.217,0,0,1,.157-.207.211.211,0,0,1,.26.149l.016.053c.112.413.215.8.322,1.172a.22.22,0,0,1-.148.264A.325.325,0,0,1,644.735,156.394Zm-.673-2.461a.217.217,0,0,1-.206-.153c-.124-.442-.243-.838-.363-1.214a.316.316,0,0,1-.008-.062.212.212,0,0,1,.413-.066c.12.376.239.776.367,1.226a.208.208,0,0,1-.144.26A.133.133,0,0,1,644.062,153.934Zm-.78-2.424a.21.21,0,0,1-.2-.136c-.161-.43-.318-.806-.479-1.16v0a.179.179,0,0,1-.021-.091.209.209,0,0,1,.124-.19.213.213,0,0,1,.281.1c.17.372.331.759.492,1.193a.2.2,0,0,1,0,.161.224.224,0,0,1-.12.111A.228.228,0,0,1,643.282,151.51Zm-1.073-2.3a.211.211,0,0,1-.182-.107c-.012-.017-.02-.033-.033-.05a.373.373,0,0,1-.02-.041,9.213,9.213,0,0,0-.652-.925v0a.21.21,0,0,1-.05-.136.215.215,0,0,1,.083-.161.219.219,0,0,1,.3.033,9.231,9.231,0,0,1,.681.975.918.918,0,0,1,.054.087l0,.008a.206.206,0,0,1-.074.289A.2.2,0,0,1,642.208,149.206Zm-1.573-1.994a.215.215,0,0,1-.149-.061,12.206,12.206,0,0,0-.933-.834.211.211,0,0,1-.079-.165.236.236,0,0,1,.045-.137.22.22,0,0,1,.3-.029c.343.276.665.569.962.863a.212.212,0,0,1-.149.363Zm-1.969-1.609a.228.228,0,0,1-.12-.033c-.339-.227-.693-.45-1.065-.661l0,0a.218.218,0,0,1-.107-.19.184.184,0,0,1,.029-.1.213.213,0,0,1,.289-.079c.367.21.739.438,1.094.681a.21.21,0,0,1-.115.385Zm-2.214-1.26a.22.22,0,0,1-.091-.02c-.607-.289-1.032-.446-1.148-.487,0,0,0,0,0,0a.2.2,0,0,1-.124-.108.2.2,0,0,1-.008-.161.216.216,0,0,1,.268-.132,12.341,12.341,0,0,1,1.2.508.212.212,0,0,1,.1.284A.216.216,0,0,1,636.453,144.342Z" transform="translate(-602.784 -139.524)" fill="#a1948a"/><path d="M660.62,273a.423.423,0,0,1-.068-.005.4.4,0,0,1-.322-.456c.019-.108,1.859-10.909.94-16.421l-.941-5.643a.395.395,0,0,1,.779-.13l.941,5.643c.941,5.644-.864,16.237-.941,16.685A.4.4,0,0,1,660.62,273Z" transform="translate(-614.775 -190.328)" fill="#001025"/><path d="M592.817,273a.394.394,0,0,1-.389-.328c-.077-.448-1.882-11.041-.941-16.685l.941-5.643a.4.4,0,0,1,.779.13l-.941,5.643c-.919,5.512.922,16.313.941,16.421a.4.4,0,0,1-.322.456A.43.43,0,0,1,592.817,273Z" transform="translate(-581.886 -190.328)" fill="#001025"/><path d="M651.244,193.338l.6-.089c.516-.076.731-.834.376-1.325l-.351-.484a.587.587,0,0,0-1.06.121l-.249.573C650.31,192.709,650.712,193.416,651.244,193.338Z" transform="translate(-610.133 -162.276)" fill="#fff"/><path d="M635.386,182.225h-.071c-.54,0-1.049-.044-1.525-.085a2.969,2.969,0,0,1-2.024-.989,1.989,1.989,0,0,1-.485-1.477c.12-1.389.914-1.914,3.031-2.005,1.27-.056,2.833,0,3.629.887a2.436,2.436,0,0,1,.453,2.089C638.279,181.369,637.662,182.225,635.386,182.225Zm-.068-.411c1.643.027,2.538-.4,2.67-1.233a2.026,2.026,0,0,0-.354-1.751c-.689-.771-2.215-.8-3.3-.751-2.132.093-2.549.6-2.64,1.63a1.588,1.588,0,0,0,.391,1.177,2.587,2.587,0,0,0,1.744.844c.468.04.969.079,1.493.083Z" transform="translate(-600.977 -155.841)" fill="#29292d"/><rect width="3.435" height="0.411" transform="translate(27.036 23.117)" fill="#29292d"/><path d="M642.736,178.512a4.66,4.66,0,0,1,.942,1.74c.015.6-.706,1.854-.557,1.866a2.2,2.2,0,0,0,.926-1.212c.195-.611.621-.728.65-1.113s.027-.7-.211-.761C643.578,178.813,642.736,178.512,642.736,178.512Z" transform="translate(-606.44 -156.249)" fill="#29292d"/><path d="M631.058,179.1l-.215.216a1.1,1.1,0,0,1-.491.284l-.58.062s-.02.392.1.389a.866.866,0,0,1,.483.061c.21.121.206.605.207.592S631.058,179.1,631.058,179.1Z" transform="translate(-600.261 -156.531)" fill="#29292d"/><path d="M614.166,182.175c-2.321,0-2.94-.868-3.052-1.6a2.436,2.436,0,0,1,.466-2.086c.8-.887,2.363-.929,3.635-.865,2.116.106,2.906.635,3.018,2.024a1.99,1.99,0,0,1-.5,1.473,2.965,2.965,0,0,1-2.03.977c-.453.036-.983.074-1.525.075h-.018Zm.344-4.157a3.632,3.632,0,0,0-2.625.748,2.023,2.023,0,0,0-.364,1.749c.126.829,1.016,1.249,2.644,1.249h.018c.528,0,1.027-.037,1.493-.074a2.589,2.589,0,0,0,1.75-.833,1.59,1.59,0,0,0,.4-1.174c-.083-1.031-.5-1.54-2.63-1.646C614.98,178.026,614.749,178.018,614.51,178.018Z" transform="translate(-591.346 -155.818)" fill="#29292d"/><path d="M611.527,178.437a4.669,4.669,0,0,0-.953,1.735c-.018.6.695,1.859.546,1.869a2.2,2.2,0,0,1-.918-1.218c-.192-.612-.617-.732-.643-1.117s-.023-.7.216-.759C610.683,178.734,611.527,178.437,611.527,178.437Z" transform="translate(-590.622 -156.214)" fill="#29292d"/><path d="M623.831,179.093l.213.217a1.1,1.1,0,0,0,.489.287l.579.065s.018.392-.1.389a.864.864,0,0,0-.483.058c-.211.12-.21.6-.211.591S623.831,179.093,623.831,179.093Z" transform="translate(-597.43 -156.526)" fill="#29292d"/><path d="M645.595,179.2a.459.459,0,0,1-.166-.887l3.435-1.332a.459.459,0,1,1,.332.855l-3.435,1.332A.461.461,0,0,1,645.595,179.2Z" transform="translate(-607.584 -155.507)" fill="#29292d"/><path d="M605.291,179.516a.492.492,0,0,1-.082-.007l-4.844-.88a.459.459,0,1,1,.164-.9l4.843.88a.459.459,0,0,1-.082.911Z" transform="translate(-586.066 -155.871)" fill="#29292d"/><path d="M636.283,197.751l-.038,0a.378.378,0,0,1-.339-.414,4.956,4.956,0,0,0-1.106-1.444.379.379,0,0,1,.535-.535c.519.519,1.381,1.477,1.324,2.054A.379.379,0,0,1,636.283,197.751Z" transform="translate(-602.605 -164.225)" fill="#cb6362"/><path d="M602.555,176.342A19.682,19.682,0,0,0,604.8,182.5a10.149,10.149,0,0,0,2.862,3.478c-1.739-.342-3.221-1.727-4.625-3.068a5.121,5.121,0,0,0,2.841,2.932,7.979,7.979,0,0,1-4.1-1.771,11.559,11.559,0,0,1-4.37-4.571,11.844,11.844,0,0,1-.918-4.338,13.914,13.914,0,0,1,2.262-8.789,19.367,19.367,0,0,0,2.722-4.237,37.5,37.5,0,0,0,2.031-6.132,3.638,3.638,0,0,1,.456,1.844,45.644,45.644,0,0,1,.146,6.127,17.852,17.852,0,0,1-.444,3.025c-.237.978-.7,1.839-.931,2.8A16.39,16.39,0,0,0,602.555,176.342Z" transform="translate(-584.391 -145.524)" fill="#7b6a5e"/><path d="M609.676,206.17a.23.23,0,0,1-.132-.046,9.712,9.712,0,0,1-.937-.916.214.214,0,0,1,.016-.3.218.218,0,0,1,.3.017,7.75,7.75,0,0,0,.888.867.205.205,0,0,1,.078.145.191.191,0,0,1-.045.153A.2.2,0,0,1,609.676,206.17Zm-1.713-1.883a.215.215,0,0,1-.17-.087,12.114,12.114,0,0,1-.706-1.086.215.215,0,0,1-.025-.161.218.218,0,0,1,.1-.128.216.216,0,0,1,.289.074,11.888,11.888,0,0,0,.685,1.049.216.216,0,0,1,.041.128.2.2,0,0,1-.086.169A.209.209,0,0,1,607.963,204.288Zm-1.28-2.2a.219.219,0,0,1-.194-.124,12.045,12.045,0,0,1-.475-1.2.183.183,0,0,1,.012-.161.191.191,0,0,1,.12-.107.214.214,0,0,1,.269.132c.132.388.285.777.458,1.16h0a.183.183,0,0,1,.017.095.213.213,0,0,1-.124.19A.187.187,0,0,1,606.683,202.091Zm-.814-2.407a.212.212,0,0,1-.206-.165c-.095-.421-.169-.851-.223-1.276a.216.216,0,0,1,.186-.236.213.213,0,0,1,.236.186,12.087,12.087,0,0,0,.215,1.235.136.136,0,0,1,0,.041.208.208,0,0,1-.165.21A.189.189,0,0,1,605.869,199.684Zm-.305-2.522h0a.208.208,0,0,1-.21-.206c0-.091,0-.19,0-.31v-.053c0-.355.008-.669.029-.925a.2.2,0,0,1,.223-.2.209.209,0,0,1,.144.071.2.2,0,0,1,.054.152c-.017.256-.025.562-.029.908v.046c0,.12,0,.215,0,.3a.208.208,0,0,1-.206.215Z" transform="translate(-588.619 -164.331)" fill="#a1948a"/><path d="M598.03,169.091h0a.207.207,0,0,1-.149-.066.191.191,0,0,1-.058-.149c0-.384.025-.813.058-1.28v0a.213.213,0,0,1,.426.016v.021c-.038.471-.058.879-.062,1.251A.212.212,0,0,1,598.03,169.091Zm.19-2.535h-.025a.218.218,0,0,1-.14-.078.2.2,0,0,1-.045-.157c.049-.4.107-.83.177-1.272a.212.212,0,0,1,.421.034.081.081,0,0,1,0,.033c-.062.421-.124.842-.173,1.255A.21.21,0,0,1,598.22,166.556Zm.384-2.518h-.037a.214.214,0,0,1-.169-.248q.105-.6.235-1.251a0,0,0,0,1,0,0,.21.21,0,0,1,.417.037.169.169,0,0,1,0,.046c-.091.466-.169.875-.236,1.247A.209.209,0,0,1,598.6,164.038Zm.5-2.5a.166.166,0,0,1-.046,0,.215.215,0,0,1-.161-.252c.087-.4.182-.818.281-1.247v0a.219.219,0,0,1,.256-.153.217.217,0,0,1,.165.21c0,.017,0,.029-.008.046-.095.405-.189.822-.281,1.239A.212.212,0,0,1,599.1,161.54Zm.582-2.481a.2.2,0,0,1-.05,0,.211.211,0,0,1-.157-.256q.162-.644.322-1.238v0a.213.213,0,0,1,.417.062.231.231,0,0,1-.008.053c-.1.36-.2.764-.318,1.23A.216.216,0,0,1,599.685,159.058Zm.66-2.46a.141.141,0,0,1-.058-.008.2.2,0,0,1-.128-.1.217.217,0,0,1-.016-.161c.128-.442.252-.855.371-1.226a.215.215,0,0,1,.268-.136.21.21,0,0,1,.149.2.182.182,0,0,1-.013.066c-.116.363-.239.768-.367,1.21A.217.217,0,0,1,600.346,156.6Zm.8-2.419a.233.233,0,0,1-.074-.013.211.211,0,0,1-.119-.276c.161-.4.339-.793.528-1.177a.216.216,0,0,1,.285-.1.2.2,0,0,1,.115.194.225.225,0,0,1-.02.092c-.19.375-.363.764-.516,1.143A.2.2,0,0,1,601.142,154.179Zm1.139-2.271a.2.2,0,0,1-.107-.029.211.211,0,0,1-.071-.293c.219-.363.458-.723.714-1.074a.22.22,0,0,1,.3-.046.214.214,0,0,1,.086.17.229.229,0,0,1-.037.124l0,0s-.008.013-.013.017c-.24.33-.47.673-.686,1.028A.209.209,0,0,1,602.282,151.908Zm1.495-2.056a.211.211,0,0,1-.21-.194.216.216,0,0,1,.049-.156c.273-.318.566-.636.872-.946a.218.218,0,0,1,.3,0,.211.211,0,0,1,.062.149.213.213,0,0,1-.062.153c-.3.3-.583.611-.851.925A.205.205,0,0,1,603.776,149.852Zm1.788-1.808a.2.2,0,0,1-.157-.07.214.214,0,0,1,.017-.3c.326-.281.66-.557.994-.818a.215.215,0,0,1,.3.041.192.192,0,0,1,.046.124.214.214,0,0,1-.082.173c-.334.256-.661.524-.975.8A.21.21,0,0,1,605.564,148.043Zm2.019-1.552a.206.206,0,0,1-.174-.091.217.217,0,0,1,.054-.3c.351-.235.719-.466,1.09-.685a.219.219,0,0,1,.289.074.183.183,0,0,1,.029.111.217.217,0,0,1-.1.178l0,0s-.008,0-.017.008c-.355.211-.71.434-1.048.665A.251.251,0,0,1,607.583,146.491Zm2.193-1.3a.2.2,0,0,1-.186-.112.208.208,0,0,1,.091-.289c.376-.194.752-.376,1.156-.557a.219.219,0,0,1,.281.107.288.288,0,0,1,.021.083.217.217,0,0,1-.128.2c-.38.17-.764.355-1.135.549A.2.2,0,0,1,609.776,145.2Zm2.328-1.037a.213.213,0,0,1-.2-.14.2.2,0,0,1,0-.161.211.211,0,0,1,.119-.112c.772-.293,1.23-.413,1.23-.413a.223.223,0,0,1,.26.153.209.209,0,0,1-.021.157.2.2,0,0,1-.132.1h0a.016.016,0,0,1-.012,0c-.153.046-.57.17-1.177.4A.222.222,0,0,1,612.1,144.158Z" transform="translate(-585.032 -139.48)" fill="#a1948a"/><path d="M629.593,239.1a.213.213,0,0,1-.19-.124.209.209,0,0,1,.1-.273s.062-.029.178-.086a.2.2,0,1,1,.189.363c-.1.053-.169.086-.189.095l0,0A.222.222,0,0,1,629.593,239.1Zm.9-.507a.207.207,0,0,1-.178-.1.248.248,0,0,1-.029-.107.21.21,0,0,1,.1-.178c.058-.032.115-.07.173-.107a.206.206,0,0,1,.285.062.182.182,0,0,1,.029.153.225.225,0,0,1-.091.132c-.062.037-.12.074-.177.111A.2.2,0,0,1,630.5,238.588Zm.854-.578a.2.2,0,0,1-.165-.083.194.194,0,0,1-.041-.124.209.209,0,0,1,.083-.165c.053-.041.111-.079.165-.124a.206.206,0,0,1,.248.33l-.049.041c-.041.029-.078.058-.116.083A.2.2,0,0,1,631.352,238.01Zm.8-.644A.2.2,0,0,1,632,237.3a.207.207,0,0,1-.054-.14.214.214,0,0,1,.07-.153c.054-.045.1-.087.153-.136a.213.213,0,0,1,.293.016.209.209,0,0,1-.016.293c-.054.046-.1.091-.157.137A.21.21,0,0,1,632.156,237.366Zm.747-.714a.211.211,0,0,1-.206-.2.222.222,0,0,1,.058-.148c.046-.046.091-.1.137-.145a.216.216,0,0,1,.293-.017.207.207,0,0,1,.066.145.194.194,0,0,1-.054.148c-.033.037-.066.075-.1.112l-.041.045h0A.193.193,0,0,1,632.9,236.652Zm.673-.78a.19.19,0,0,1-.124-.046.2.2,0,0,1-.082-.165.221.221,0,0,1,.041-.119,0,0,0,0,1,0,0,.021.021,0,0,1,.008-.013l.111-.149a.214.214,0,0,1,.289-.041.209.209,0,0,1,.046.289l-.128.165a0,0,0,0,1,0,0A.209.209,0,0,1,633.577,235.871Zm.586-.851a.206.206,0,0,1-.107-.033.2.2,0,0,1-.1-.174.218.218,0,0,1,.025-.1l0,0a.021.021,0,0,1,.008-.013c.029-.054.062-.107.091-.161a.216.216,0,0,1,.285-.079.206.206,0,0,1,.074.281c-.032.062-.07.124-.107.182v0A.2.2,0,0,1,634.163,235.021Zm.475-.916a.2.2,0,0,1-.086-.02.206.206,0,0,1-.12-.182.167.167,0,0,1,.017-.091l.016-.037c.025-.05.046-.1.066-.149a.214.214,0,0,1,.273-.107.206.206,0,0,1,.107.273c-.029.066-.058.128-.087.189A.207.207,0,0,1,634.638,234.1Zm.4-.949a.236.236,0,0,1-.078-.017.2.2,0,0,1-.128-.186.254.254,0,0,1,.012-.079v0a.014.014,0,0,0,0-.013l.062-.148.013-.029a.206.206,0,1,1,.384.153l-.02.046c-.017.05-.038.1-.058.144A.21.21,0,0,1,635.042,233.155Zm.368-.966a.193.193,0,0,1-.071-.013.2.2,0,0,1-.136-.194.193.193,0,0,1,.013-.071c.016-.045.029-.087.045-.128l.025-.066a.207.207,0,0,1,.264-.124.21.21,0,0,1,.124.264l-.025.066c-.016.041-.029.083-.045.128A.205.205,0,0,1,635.41,232.189Zm.338-.979a.17.17,0,0,1-.066-.008.2.2,0,0,1-.14-.2.316.316,0,0,1,.008-.062l.012-.037c.021-.058.037-.107.054-.161a.206.206,0,0,1,.392.128c-.012.041-.029.087-.041.132l-.025.066v0A.2.2,0,0,1,635.749,231.21Z" transform="translate(-600.077 -181.076)" fill="#fff"/><path d="M618.39,239.124a.164.164,0,0,1-.078-.017c-.054-.02-.116-.049-.2-.086a.208.208,0,0,1-.12-.186.234.234,0,0,1,.02-.091.211.211,0,0,1,.273-.1,0,0,0,0,0,0,0h0c.062.029.12.058.173.078a.209.209,0,0,1,.112.269A.206.206,0,0,1,618.39,239.124Zm-.917-.479a.182.182,0,0,1-.1-.033c-.058-.033-.12-.07-.182-.107a.214.214,0,0,1-.1-.182.19.19,0,0,1,.034-.1.21.21,0,0,1,.285-.065c.045.028.091.058.132.086l.037.021a.2.2,0,0,1,.1.128.212.212,0,0,1-.025.156A.2.2,0,0,1,617.473,238.646Zm-.855-.578a.216.216,0,0,1-.124-.038c-.054-.041-.111-.082-.165-.128a.2.2,0,0,1-.083-.165.224.224,0,0,1,.041-.124.212.212,0,0,1,.289-.037c.058.041.112.083.165.12a.211.211,0,0,1,.041.289A.2.2,0,0,1,616.619,238.068Zm-.8-.644a.21.21,0,0,1-.136-.053c-.021-.021-.046-.041-.07-.062s-.058-.054-.087-.079a.207.207,0,0,1-.066-.152.21.21,0,0,1,.053-.137.212.212,0,0,1,.293-.016c.041.041.083.079.128.116l.02.02a.208.208,0,0,1,.07.14.2.2,0,0,1-.049.153A.222.222,0,0,1,615.814,237.423Zm-.743-.719a.2.2,0,0,1-.149-.062c-.049-.049-.1-.1-.144-.153a.192.192,0,0,1-.053-.14.215.215,0,0,1,.066-.153.211.211,0,0,1,.289.013c.041.041.078.082.116.124l.025.025a.208.208,0,0,1-.008.293A.192.192,0,0,1,615.07,236.7Zm-.673-.78a.213.213,0,0,1-.165-.079l-.046-.062c-.025-.033-.053-.07-.082-.107v0a.194.194,0,0,1-.038-.12.2.2,0,0,1,.083-.165.213.213,0,0,1,.289.041c.037.053.078.107.12.161a.213.213,0,0,1-.033.293A.238.238,0,0,1,614.4,235.925Zm-.6-.842a.205.205,0,0,1-.174-.1c-.033-.049-.062-.1-.095-.149l-.017-.025a.206.206,0,0,1-.033-.107.207.207,0,0,1,.38-.116l.013.021c.033.049.066.1.1.153a.205.205,0,0,1-.058.284A.231.231,0,0,1,613.8,235.083Zm-.533-.883a.211.211,0,0,1-.182-.108c-.033-.058-.066-.12-.1-.177v0a.193.193,0,0,1-.025-.1.21.21,0,0,1,.107-.182.214.214,0,0,1,.281.082,1.48,1.48,0,0,0,.1.178.209.209,0,0,1-.082.281A.165.165,0,0,1,613.266,234.2Zm-.479-.917a.211.211,0,0,1-.186-.115c-.029-.062-.062-.128-.091-.186a.242.242,0,0,1-.021-.091.2.2,0,0,1,.12-.186.2.2,0,0,1,.273.1l.02.041c.025.05.046.095.07.14a.207.207,0,0,1-.095.277A.223.223,0,0,1,612.787,233.282Zm-.429-.937a.206.206,0,0,1-.19-.128c-.025-.054-.05-.107-.07-.161l-.013-.029v-.008a.14.14,0,0,1-.016-.074.2.2,0,0,1,.128-.19.212.212,0,0,1,.268.111l.074.173.008.016a.209.209,0,0,1,0,.157.221.221,0,0,1-.112.116A.266.266,0,0,1,612.358,232.345Zm-.384-.962a.206.206,0,0,1-.194-.137c-.029-.086-.049-.149-.062-.177,0-.013,0-.021-.008-.021a.213.213,0,0,1,.132-.264.209.209,0,0,1,.26.132s.025.066.066.189a.2.2,0,0,1-.124.264A.188.188,0,0,1,611.974,231.383Z" transform="translate(-591.648 -181.158)" fill="#fff"/><path d="M627.131,246.119a.674.674,0,1,1-.674-.674A.674.674,0,0,1,627.131,246.119Z" transform="translate(-598.361 -188.15)" fill="#fff"/></g><path d="M511.909,177.82a.977.977,0,0,1-.865,1.057.946.946,0,0,1-.963-.943.978.978,0,0,1,.866-1.057A.945.945,0,0,1,511.909,177.82Z" transform="translate(-472.915 -140.503)" fill="#c1143a"/><path d="M627.694,201.9a.977.977,0,0,1-.866,1.056.945.945,0,0,1-.963-.942.977.977,0,0,1,.866-1.057A.946.946,0,0,1,627.694,201.9Z" transform="translate(-528.097 -151.978)" fill="#c1143a"/></g><path d="M674.39,163.818a2.291,2.291,0,0,1-.98-.214.631.631,0,0,1,.538-1.143,1.176,1.176,0,0,0,1.147-.129,2.632,2.632,0,0,1-.731-.569,1.473,1.473,0,0,1-.1-2.01,1.156,1.156,0,0,1,1.678-.083,2.732,2.732,0,0,1,.7,1.744,1.947,1.947,0,0,0,.328-.047,2.921,2.921,0,0,0,1.506-.987A9.087,9.087,0,0,1,675,158.014a2.861,2.861,0,0,1-.928-2.623,2.543,2.543,0,0,1,2.3-1.764,4.083,4.083,0,0,1,4.036,2.633,4.84,4.84,0,0,1-.047,3.353,7.57,7.57,0,0,0,1.95.108c2.77-.212,4.62-1.316,5.5-3.283a6.336,6.336,0,0,0,.467-1.629,20.7,20.7,0,0,1-4.762-.15c-3.974-.586-8.489-3.036-9.619-7.185a5.646,5.646,0,0,1,1.2-5.32,5.459,5.459,0,0,1,5.074-1.667,10.173,10.173,0,0,1,6.2,4.013,15.877,15.877,0,0,1,3.264,8.841c2.139-.395,4.132-1.28,5.132-3,1.594-2.744.673-6.513-.6-8.906-2.637-4.959-7.292-8.906-11.86-10.055a.631.631,0,1,1,.308-1.225c4.9,1.232,9.87,5.426,12.668,10.686,1.493,2.808,2.428,6.944.576,10.132-1.232,2.121-3.639,3.227-6.282,3.671a7.8,7.8,0,0,1-.61,2.308c-.743,1.665-2.483,3.717-6.554,4.028a8.849,8.849,0,0,1-2.649-.2q-.071.1-.147.2a4.272,4.272,0,0,1-2.358,1.619,3.247,3.247,0,0,1-.824.083,1.484,1.484,0,0,1-.185.288A2.424,2.424,0,0,1,674.39,163.818Zm2.307-8.944q-.1,0-.2.009a1.333,1.333,0,0,0-1.2.808,1.883,1.883,0,0,0,.64,1.478,7.842,7.842,0,0,0,3.2,2.115,3.576,3.576,0,0,0,.09-2.578A2.863,2.863,0,0,0,676.7,154.874Zm2.432-13.215a4.121,4.121,0,0,0-3.1,1.343,4.391,4.391,0,0,0-.913,4.14c.981,3.6,5.018,5.742,8.585,6.268a19.772,19.772,0,0,0,4.669.109,14.662,14.662,0,0,0-3-8.249,8.928,8.928,0,0,0-5.415-3.539A4.9,4.9,0,0,0,679.129,141.659Z" transform="translate(-111.512 -10.844)" fill="#0d0002"/></g></g></g></svg>