<svg xmlns="http://www.w3.org/2000/svg" width="140" height="140" viewBox="0 0 140 140"><g transform="translate(0 -0.477)"><circle cx="70" cy="70" r="70" transform="translate(0 0.477)" fill="#f7f3e5"/><g transform="translate(81.198 26.82)"><rect width="1.402" height="26.128" transform="matrix(0.372, -0.928, 0.928, 0.372, 10.61, 52.601)" fill="#4e3b30"/><rect width="26.148" height="1.32" transform="matrix(0.928, -0.373, 0.373, 0.928, 9.068, 61.083)" fill="#4e3b30"/><g transform="translate(2.598 40.539)"><path d="M697.78,193.636c-3.345,10.91-5.659,19-7.422,18.223s1-8.418,4.339-19.327,6.744-19.507,7.6-19.2S701.124,182.727,697.78,193.636Z" transform="translate(-689.81 -173.136)" fill="#c08d4e"/><path d="M736.914,193.233c3.089,10.828,5.217,18.861,7,18.04s-.8-8.4-3.887-19.223-6.289-19.342-7.147-19.015S733.825,182.4,736.914,193.233Z" transform="translate(-705.781 -173.025)" fill="#c08d4e"/></g><path d="M730.169,148.173c-.014-7.07-5.552-9.135-8.261-17.431-2.446-7.493-.423-11.841-2.078-17.169-.829-2.668-4.272-4.523-9.495-5.027a11.41,11.41,0,0,0-1.866-.142c-.188,0-.366.008-.55.011s-.363-.011-.55-.011a11.423,11.423,0,0,0-1.867.142c-5.223.5-8.665,2.359-9.494,5.027-1.656,5.328.368,9.677-2.079,17.169-2.709,8.3-8.246,10.361-8.261,17.431-.007,3.415,7.617,6.27,17.811,6.985a35.684,35.684,0,0,0,3.89.174c.184,0,.366,0,.55,0s.366,0,.55,0a35.673,35.673,0,0,0,3.889-.174C722.552,154.443,730.177,151.588,730.169,148.173Z" transform="translate(-685.668 -108.404)" fill="#e33c0b"/><path d="M728.045,166.771c0,2.144-8.138,3.883-18.177,3.883s-18.179-1.738-18.179-3.883,8.138-3.883,18.179-3.883S728.045,164.626,728.045,166.771Z" transform="translate(-687.912 -128.709)" fill="#b40019"/></g><g transform="translate(14.301 62.392)"><g transform="translate(0 -0.001)"><path d="M92.14,666.691a1.93,1.93,0,0,1-1.929,1.93H37.769a1.93,1.93,0,0,1-1.929-1.93h0a1.929,1.929,0,0,1,1.929-1.93H90.211a1.929,1.929,0,0,1,1.929,1.93Z" transform="translate(-33.175 -628.368)" fill="#8e8e8f"/><path d="M4.209,0H57.418a4.211,4.211,0,0,1,4.211,4.211V33.624a4.211,4.211,0,0,1-4.211,4.211H4.209A4.209,4.209,0,0,1,0,33.625V4.209A4.209,4.209,0,0,1,4.209,0Z" transform="translate(0 0.021)" fill="#d4d5d5"/><path d="M103.8,658.831a2.837,2.837,0,1,1-2.837-2.837A2.836,2.836,0,0,1,103.8,658.831Z" transform="translate(-43.861 -626.864)" fill="#767676"/><path d="M90.85,649.856a1.464,1.464,0,0,1-1.291,1.588h0a1.464,1.464,0,0,1-1.292-1.588V632.6a1.464,1.464,0,0,1,1.292-1.59h0a1.464,1.464,0,0,1,1.291,1.59Z" transform="translate(-42.17 -622.579)" fill="#767676"/><rect width="0.7" height="37.937" transform="translate(51.554)" fill="#a6a7a7"/><rect width="36.913" height="23.688" transform="translate(5.461 6.385)" fill="#aab6bd"/><rect width="5.536" height="3.079" transform="translate(54.065 7.922)" fill="#a6a7a7"/><rect width="2.477" height="3.075" transform="translate(54.065 12.225)" fill="#a6a7a7"/><rect width="2.477" height="3.077" transform="translate(54.065 16.434)" fill="#a6a7a7"/><rect width="2.478" height="3.075" transform="translate(57.086 12.225)" fill="#a6a7a7"/><rect width="2.478" height="3.077" transform="translate(57.086 16.434)" fill="#a6a7a7"/><path d="M40.976,651.15V630.356H62.65Z" transform="translate(-34.056 -622.466)" fill="#d1d6d9"/></g></g></g></svg>