<svg xmlns="http://www.w3.org/2000/svg" width="140" height="140" viewBox="0 0 140 140">
  <g id="recommend_obj26" transform="translate(0 -0.477)">
    <circle id="楕円形_23" data-name="楕円形 23" cx="70" cy="70" r="70" transform="translate(0 0.477)" fill="#f7f3e5"/>
    <g id="グループ_10455" data-name="グループ 10455" transform="translate(-95.933 -265.373)">
      <g id="グループ_10367" data-name="グループ 10367" transform="translate(127.042 301.646)">
        <g id="グループ_10353" data-name="グループ 10353">
          <path id="パス_79825" data-name="パス 79825" d="M230.3,333.6V318.937a15.9,15.9,0,0,1,15.9-15.9h-68.38a15.9,15.9,0,0,0-15.9,15.9V333.6a15.9,15.9,0,0,0,15.9,15.9H246.2A15.9,15.9,0,0,1,230.3,333.6Z" transform="translate(-161.489 -302.609)" fill="#d8dbd7"/>
        </g>
        <g id="グループ_10354" data-name="グループ 10354" transform="translate(68.381)">
          <path id="パス_79827" data-name="パス 79827" d="M399.239,303.039a15.9,15.9,0,0,0-15.9,15.9V333.6a15.9,15.9,0,0,0,15.9,15.9l6.185-2.188V305.227Z" transform="translate(-382.911 -302.609)" fill="#c6cdc2"/>
        </g>
        <g id="グループ_10355" data-name="グループ 10355" transform="translate(69.946 0.92)">
          <path id="パス_79829" data-name="パス 79829" d="M387.424,335.461a.407.407,0,0,1-.288-.694l1.351-1.351V321.108c0-8.436,4.681-14.228,12.856-15.94v-.137a.407.407,0,0,1,.813,0v.47a.407.407,0,0,1-.329.4c-7.961,1.543-12.527,7.086-12.527,15.208v12.476a.405.405,0,0,1-.119.288l-1.47,1.47A.405.405,0,0,1,387.424,335.461Z" transform="translate(-387.017 -304.625)" fill="#aab4ab"/>
        </g>
        <g id="グループ_10356" data-name="グループ 10356" transform="translate(3.924 31.762)">
          <path id="パス_79830" data-name="パス 79830" d="M234.319,405.355H173.663a.43.43,0,1,1,0-.86h60.656a.43.43,0,1,1,0,.86Z" transform="translate(-173.233 -404.495)" fill="#859592"/>
        </g>
        <g id="グループ_10362" data-name="グループ 10362" transform="translate(5.604 4.983)">
          <g id="グループ_10357" data-name="グループ 10357" transform="translate(0 31.511)">
            <path id="パス_79831" data-name="パス 79831" d="M229.218,419.817H178.671a15.845,15.845,0,0,0,1.758,3.442h50.547A15.842,15.842,0,0,1,229.218,419.817Z" transform="translate(-178.671 -419.817)" fill="#586361"/>
          </g>
          <g id="グループ_10359" data-name="グループ 10359" transform="translate(52.966 31.511)">
            <g id="グループ_10358" data-name="グループ 10358">
              <path id="パス_79832" data-name="パス 79832" d="M358.99,424.657a15.132,15.132,0,0,1-2.84-4.84h-5.969a15.777,15.777,0,0,0,5.232,7.1h5.969A16,16,0,0,1,358.99,424.657Z" transform="translate(-350.181 -419.817)" fill="#a3b6b2"/>
            </g>
          </g>
          <g id="グループ_10360" data-name="グループ 10360" transform="translate(2.84 36.351)">
            <path id="パス_79833" data-name="パス 79833" d="M238.414,435.488H187.867a15.984,15.984,0,0,0,2.392,2.259h50.547A16,16,0,0,1,238.414,435.488Z" transform="translate(-187.867 -435.488)" fill="#586361"/>
          </g>
          <g id="グループ_10361" data-name="グループ 10361" transform="translate(2.84)">
            <path id="パス_79834" data-name="パス 79834" d="M244.409,320.04H187.867a15.983,15.983,0,0,1,2.392-2.259H246.8A16,16,0,0,0,244.409,320.04Z" transform="translate(-187.867 -317.781)" fill="#a3b6b2"/>
          </g>
        </g>
        <g id="グループ_10366" data-name="グループ 10366" transform="translate(84.302 2.521)">
          <g id="グループ_10363" data-name="グループ 10363" transform="translate(4.123 1.302)">
            <path id="パス_79835" data-name="パス 79835" d="M447.262,353.7a.407.407,0,0,1-.407-.406V314.431a.407.407,0,1,1,.813,0v38.862A.407.407,0,0,1,447.262,353.7Z" transform="translate(-446.855 -314.024)" fill="#aab4ab"/>
          </g>
          <g id="グループ_10364" data-name="グループ 10364" transform="translate(2.062 0.651)">
            <path id="パス_79836" data-name="パス 79836" d="M440.586,352.893a.407.407,0,0,1-.406-.407V312.322a.407.407,0,0,1,.813,0v40.164A.407.407,0,0,1,440.586,352.893Z" transform="translate(-440.18 -311.916)" fill="#aab4ab"/>
          </g>
          <g id="グループ_10365" data-name="グループ 10365" transform="translate(0)">
            <path id="パス_79837" data-name="パス 79837" d="M433.91,352.087a.407.407,0,0,1-.406-.406V310.214a.407.407,0,0,1,.813,0v41.466A.407.407,0,0,1,433.91,352.087Z" transform="translate(-433.504 -309.808)" fill="#aab4ab"/>
          </g>
        </g>
      </g>
      <g id="グループ_10368" data-name="グループ 10368" transform="translate(115.697 340.549)">
        <path id="パス_79838" data-name="パス 79838" d="M133.828,430.084a5.048,5.048,0,0,0-.606.046,1.516,1.516,0,0,0,.04-.261c0-1.244-1.512-2.252-3.377-2.252s-3.377,1.008-3.377,2.252a1.846,1.846,0,0,0,.743,1.393c-1.942.156-3.46,1.375-3.46,2.872,0,1.6,1.733,2.9,3.872,2.9a3.981,3.981,0,0,0,3.613-1.883,4.632,4.632,0,0,0,2.553.736c2.138,0,3.872-1.3,3.872-2.9S135.966,430.084,133.828,430.084Z" transform="translate(-123.79 -427.617)" fill="#b4b4b5"/>
      </g>
      <g id="グループ_10369" data-name="グループ 10369" transform="translate(118.511 333.269)">
        <path id="パス_79839" data-name="パス 79839" d="M138.243,406.047c0,1.106-1.2,2-2.671,2s-2.671-.9-2.671-2,1.2-2,2.671-2S138.243,404.941,138.243,406.047Z" transform="translate(-132.901 -404.044)" fill="#b4b4b5"/>
      </g>
      <g id="グループ_10375" data-name="グループ 10375" transform="translate(112.081 346.471)" opacity="0.3">
        <g id="グループ_10370" data-name="グループ 10370" transform="translate(0 0.058)">
          <path id="パス_79840" data-name="パス 79840" d="M140.473,446.981c-.449,14.207-16.308,21.855-28.392,18.641C124.395,461.039,132.118,459.062,140.473,446.981Z" transform="translate(-112.081 -446.981)" fill="#a6ab85"/>
        </g>
        <g id="グループ_10371" data-name="グループ 10371" transform="translate(14.148 0.043)">
          <path id="パス_79841" data-name="パス 79841" d="M182.855,446.934c1.51,13.769-12.892,23.277-24.961,21.64C169.137,462.471,176.262,459.614,182.855,446.934Z" transform="translate(-157.894 -446.934)" fill="#a6ab85"/>
        </g>
        <g id="グループ_10372" data-name="グループ 10372" transform="translate(28.296 0.029)">
          <path id="パス_79842" data-name="パス 79842" d="M225.236,446.887c3.4,13.3-9.461,24.635-21.53,24.638C213.885,463.973,220.465,460.214,225.236,446.887Z" transform="translate(-203.706 -446.887)" fill="#a6ab85"/>
        </g>
        <g id="グループ_10373" data-name="グループ 10373" transform="translate(42.444 0.015)">
          <path id="パス_79843" data-name="パス 79843" d="M267.617,446.841c5.213,12.828-6.041,25.918-18.1,27.636C258.666,465.535,264.74,460.839,267.617,446.841Z" transform="translate(-249.518 -446.841)" fill="#a6ab85"/>
        </g>
        <g id="グループ_10374" data-name="グループ 10374" transform="translate(56.592 0)">
          <path id="パス_79844" data-name="パス 79844" d="M310,446.794c6.961,12.394-2.662,27.139-14.668,30.634C303.5,467.138,309.091,461.456,310,446.794Z" transform="translate(-295.33 -446.794)" fill="#a6ab85"/>
        </g>
      </g>
      <g id="グループ_10382" data-name="グループ 10382" transform="translate(137.434 353.281)">
        <g id="グループ_10376" data-name="グループ 10376">
          <path id="パス_79845" data-name="パス 79845" d="M204.124,474.639a.652.652,0,0,0-.323.056,1.826,1.826,0,0,1-.784.187l-.214,0c-.1,0-.21-.01-.314-.022a1.107,1.107,0,0,0-.022-.613,1.291,1.291,0,0,1,.153-.057l.056-.017a.449.449,0,0,1,.232,0,.253.253,0,1,0-.031-.482.25.25,0,0,0-.1.072.7.7,0,0,1-.242.193l-.075.034c-.031.014-.064.023-.1.035a1.217,1.217,0,0,0-.1-.144,2.018,2.018,0,0,0-.095-.314l.225-.167a2.589,2.589,0,0,1,.525-.3l.1-.044a.864.864,0,0,1,.447-.048.488.488,0,1,0-.346-.76,1.358,1.358,0,0,1-.424.424l-.137.081a2.583,2.583,0,0,1-.345.17l-.338.136a1.958,1.958,0,0,0-.564-.481,3.442,3.442,0,0,1,.3-.52l.087-.123a1.16,1.16,0,0,1,.478-.369.657.657,0,1,0-.835-.94.646.646,0,0,0-.1.313,1.828,1.828,0,0,1-.188.784l-.1.189a3.475,3.475,0,0,1-.2.328,1.685,1.685,0,0,0-.616-.241l-.019-.187a3.984,3.984,0,0,1,.016-.938l.023-.173a1.34,1.34,0,0,1,.291-.633.757.757,0,1,0-1.286-.143,2.1,2.1,0,0,1,.227.9l0,.246a3.989,3.989,0,0,1-.048.594l-.051.322a2.029,2.029,0,0,0-.444,0l-.056-.134a2.592,2.592,0,0,1-.164-.582l-.017-.111a.862.862,0,0,1,.062-.445.488.488,0,1,0-.821.151,1.355,1.355,0,0,1,.308.514l.045.153a2.529,2.529,0,0,1,.081.376l.03.218a1.881,1.881,0,0,0-.6.406c-.04.015-.077.033-.114.05l-.07-.051a3.469,3.469,0,0,1-.6-.552l-.1-.115a1.156,1.156,0,0,1-.242-.554.657.657,0,1,0-1.115.581.649.649,0,0,0,.28.17,1.828,1.828,0,0,1,.715.373l.159.143a3.467,3.467,0,0,1,.357.374l.055.066a1.491,1.491,0,0,0-.271.549,1.542,1.542,0,0,0-.173.23l-.14-.01a2.557,2.557,0,0,1-.593-.117l-.107-.035a.862.862,0,0,1-.369-.257.489.489,0,1,0-.237.8,1.353,1.353,0,0,1,.6-.042l.156.029a2.618,2.618,0,0,1,.372.1l.121.042a1.514,1.514,0,0,0-.013.466,1.27,1.27,0,0,1-.188.008l-.058,0a.446.446,0,0,1-.22-.076.253.253,0,1,0-.126.467.248.248,0,0,0,.121-.035.7.7,0,0,1,.292-.1l.082-.008c.038,0,.077,0,.115,0a1.462,1.462,0,0,0-.028.444,3.438,3.438,0,0,1-.611.217l-.147.036a1.16,1.16,0,0,1-.6-.035.657.657,0,1,0,.015,1.258.649.649,0,0,0,.278-.174,1.824,1.824,0,0,1,.656-.469l.2-.077a3.448,3.448,0,0,1,.439-.135,1.413,1.413,0,0,0,.122.159,1.611,1.611,0,0,0,.3.618l-.045.074a2.575,2.575,0,0,1-.372.477l-.079.08a.866.866,0,0,1-.4.213.489.489,0,1,0,.607.573,1.363,1.363,0,0,1,.233-.552l.1-.126a2.593,2.593,0,0,1,.256-.288l.1-.092a1.7,1.7,0,0,0,.312.16c.028.029.059.053.089.08a1.316,1.316,0,0,1-.109.251l-.029.05a.449.449,0,0,1-.169.159.252.252,0,1,0,.355.328.247.247,0,0,0,.025-.124.7.7,0,0,1,.043-.307l.031-.076a1.306,1.306,0,0,1,.062-.123,1.826,1.826,0,0,0,.587.255,3.494,3.494,0,0,1-.073.466l-.035.147a1.16,1.16,0,0,1-.3.523.657.657,0,1,0,1.1.229,1.823,1.823,0,0,1-.122-.8l.022-.213c.01-.1.027-.208.048-.311.062-.006.125-.012.189-.023a2.006,2.006,0,0,0,.73,0l.159.256a2.582,2.582,0,0,1,.257.548l.035.107a.865.865,0,0,1,.011.449.488.488,0,1,0,.931-.087.481.481,0,0,0-.145-.2,1.356,1.356,0,0,1-.387-.457l-.069-.143a2.564,2.564,0,0,1-.141-.358l-.1-.318a1.868,1.868,0,0,0,.392-.289,2.667,2.667,0,0,1,.288.333l.067.095a.89.89,0,0,1,.147.44.5.5,0,1,0,.689-.518,1.4,1.4,0,0,1-.521-.334l-.112-.12c-.046-.049-.084-.1-.125-.157a1.965,1.965,0,0,0,.421-.426l.339.129a2.645,2.645,0,0,1,.553.291l.1.066a.889.889,0,0,1,.289.363.5.5,0,1,0,.712-.652.5.5,0,0,0-.242-.07,1.4,1.4,0,0,1-.6-.135l-.146-.075a2.635,2.635,0,0,1-.339-.207l-.378-.271a2.043,2.043,0,0,0,.076-.325.874.874,0,0,0,.178-.343,3.426,3.426,0,0,1,.464.035l.15.022a1.163,1.163,0,0,1,.545.26.657.657,0,1,0,.461-1.17Z" transform="translate(-194.178 -468.845)" fill="#af61a2"/>
        </g>
        <g id="グループ_10377" data-name="グループ 10377" transform="translate(3.334 4.698)">
          <path id="パス_79846" data-name="パス 79846" d="M205.636,484.645c-.08.267-.287.441-.461.389s-.251-.311-.171-.578.287-.441.461-.389S205.716,484.378,205.636,484.645Z" transform="translate(-204.972 -484.057)" fill="#fff"/>
        </g>
        <g id="グループ_10378" data-name="グループ 10378" transform="translate(3.96 7.467)">
          <path id="パス_79847" data-name="パス 79847" d="M207.66,493.046c.316.07.534.294.489.5s-.338.316-.654.246-.534-.294-.489-.5S207.345,492.976,207.66,493.046Z" transform="translate(-207 -493.025)" fill="#fff"/>
        </g>
        <g id="グループ_10379" data-name="グループ 10379" transform="translate(7.003 5.719)">
          <path id="パス_79848" data-name="パス 79848" d="M216.858,487.9c-.03-.277.093-.518.274-.537s.352.19.382.467-.093.518-.274.537S216.888,488.179,216.858,487.9Z" transform="translate(-216.853 -487.363)" fill="#fff"/>
        </g>
        <g id="グループ_10380" data-name="グループ 10380" transform="translate(6.345 4.143)">
          <path id="パス_79849" data-name="パス 79849" d="M214.931,482.688c-.159-.081-.246-.23-.193-.334s.224-.123.384-.043.246.23.194.334S215.09,482.768,214.931,482.688Z" transform="translate(-214.722 -482.261)" fill="#fff"/>
        </g>
        <g id="グループ_10381" data-name="グループ 10381" transform="translate(5.598 6.252)">
          <circle id="楕円形_455" data-name="楕円形 455" cx="0.309" cy="0.309" r="0.309" fill="#fff"/>
        </g>
      </g>
      <g id="グループ_10389" data-name="グループ 10389" transform="translate(170.927 358.402)">
        <g id="グループ_10383" data-name="グループ 10383" transform="translate(0 0)">
          <path id="パス_79850" data-name="パス 79850" d="M314.269,492.208a.762.762,0,0,0-.378.065,2.131,2.131,0,0,1-.918.218l-.25,0c-.123,0-.246-.012-.368-.026a1.292,1.292,0,0,0-.026-.718,1.615,1.615,0,0,1,.18-.067l.065-.019a.523.523,0,0,1,.272,0,.3.3,0,1,0-.036-.564.292.292,0,0,0-.121.084.817.817,0,0,1-.283.226l-.088.039c-.036.016-.075.027-.112.04a1.411,1.411,0,0,0-.12-.168,2.325,2.325,0,0,0-.111-.367l.263-.2a3,3,0,0,1,.614-.352l.121-.052a1.007,1.007,0,0,1,.523-.056.572.572,0,1,0-.4-.889,1.586,1.586,0,0,1-.5.5l-.16.095a3.039,3.039,0,0,1-.4.2l-.4.159a2.288,2.288,0,0,0-.66-.563,4.039,4.039,0,0,1,.349-.608l.1-.144a1.36,1.36,0,0,1,.56-.432.769.769,0,1,0-1.09-.734,2.134,2.134,0,0,1-.22.917l-.117.221a4,4,0,0,1-.235.384,1.967,1.967,0,0,0-.721-.282l-.022-.219a4.67,4.67,0,0,1,.019-1.1l.027-.2a1.57,1.57,0,0,1,.341-.741.886.886,0,1,0-1.5-.167,2.459,2.459,0,0,1,.266,1.054l0,.288a4.639,4.639,0,0,1-.056.7l-.059.377a2.375,2.375,0,0,0-.519,0l-.065-.157a3,3,0,0,1-.192-.681l-.021-.13a1.015,1.015,0,0,1,.073-.521.571.571,0,1,0-.96.177,1.586,1.586,0,0,1,.36.6l.053.179a3.042,3.042,0,0,1,.094.44l.035.255a2.2,2.2,0,0,0-.7.476c-.046.017-.09.038-.133.058l-.082-.059a4.042,4.042,0,0,1-.7-.646l-.115-.134a1.36,1.36,0,0,1-.283-.648.769.769,0,1,0-1.3.68.759.759,0,0,0,.328.2,2.13,2.13,0,0,1,.836.436l.186.167a4.019,4.019,0,0,1,.418.438l.064.078a1.751,1.751,0,0,0-.317.642,1.837,1.837,0,0,0-.2.269l-.163-.012a3,3,0,0,1-.694-.137l-.125-.04a1.011,1.011,0,0,1-.431-.3.572.572,0,1,0-.562.939.564.564,0,0,0,.285,0,1.589,1.589,0,0,1,.7-.049l.183.034a3.037,3.037,0,0,1,.435.115l.141.049a1.764,1.764,0,0,0-.016.545,1.535,1.535,0,0,1-.22.01l-.068,0a.525.525,0,0,1-.257-.089.3.3,0,1,0-.006.5.817.817,0,0,1,.341-.123l.1-.009c.045,0,.09,0,.135,0a1.706,1.706,0,0,0-.032.52,4.033,4.033,0,0,1-.715.254l-.172.042a1.359,1.359,0,0,1-.706-.04.769.769,0,1,0,.017,1.471.759.759,0,0,0,.325-.2,2.137,2.137,0,0,1,.767-.549l.233-.09a4.032,4.032,0,0,1,.514-.158,1.725,1.725,0,0,0,.143.187,1.886,1.886,0,0,0,.351.723l-.053.087a3.012,3.012,0,0,1-.436.557l-.093.094a1.008,1.008,0,0,1-.463.249.571.571,0,1,0,.711.671,1.585,1.585,0,0,1,.272-.646l.113-.148a3,3,0,0,1,.3-.336l.111-.108a2.033,2.033,0,0,0,.365.187c.033.033.069.062.1.093a1.544,1.544,0,0,1-.128.294l-.034.059a.522.522,0,0,1-.2.186.3.3,0,1,0,.444.24.824.824,0,0,1,.05-.359l.036-.089c.021-.049.047-.1.072-.144a2.142,2.142,0,0,0,.687.3,4.024,4.024,0,0,1-.086.546l-.04.172a1.362,1.362,0,0,1-.355.611.769.769,0,1,0,1.286.268,2.126,2.126,0,0,1-.143-.932l.025-.249c.012-.123.032-.244.056-.364.073-.007.147-.014.221-.027a2.343,2.343,0,0,0,.854,0l.186.3a3.017,3.017,0,0,1,.3.641l.041.125a1.01,1.01,0,0,1,.013.526.572.572,0,1,0,1.089-.1.565.565,0,0,0-.17-.229,1.587,1.587,0,0,1-.453-.535l-.081-.168a3.042,3.042,0,0,1-.165-.418l-.115-.372a2.176,2.176,0,0,0,.459-.339,3.093,3.093,0,0,1,.337.39l.079.111a1.042,1.042,0,0,1,.173.515.59.59,0,1,0,.806-.606,1.64,1.64,0,0,1-.61-.39l-.131-.141c-.053-.057-.1-.123-.147-.184a2.292,2.292,0,0,0,.492-.5l.4.152a3.115,3.115,0,0,1,.647.34l.112.077a1.043,1.043,0,0,1,.338.425.59.59,0,1,0,.833-.764.582.582,0,0,0-.283-.082,1.645,1.645,0,0,1-.707-.158l-.171-.087a3.138,3.138,0,0,1-.4-.242l-.442-.317a2.366,2.366,0,0,0,.089-.381,1.026,1.026,0,0,0,.208-.4,4.06,4.06,0,0,1,.542.04l.175.026a1.364,1.364,0,0,1,.638.3.769.769,0,1,0,.54-1.369Z" transform="translate(-302.63 -485.428)" fill="#ee93ad"/>
        </g>
        <g id="グループ_10384" data-name="グループ 10384" transform="translate(3.901 5.497)">
          <path id="パス_79851" data-name="パス 79851" d="M316.038,503.916c-.094.313-.335.516-.539.455s-.293-.364-.2-.677.335-.516.539-.455S316.132,503.6,316.038,503.916Z" transform="translate(-315.262 -503.228)" fill="#fff"/>
        </g>
        <g id="グループ_10385" data-name="グループ 10385" transform="translate(4.634 8.738)">
          <path id="パス_79852" data-name="パス 79852" d="M318.407,513.747c.369.082.625.344.572.585s-.4.37-.765.288-.625-.344-.572-.585S318.038,513.665,318.407,513.747Z" transform="translate(-317.635 -513.722)" fill="#fff"/>
        </g>
        <g id="グループ_10386" data-name="グループ 10386" transform="translate(8.194 6.692)">
          <path id="パス_79853" data-name="パス 79853" d="M329.169,507.727c-.035-.324.109-.606.321-.628s.412.222.447.546-.109.606-.321.628S329.2,508.052,329.169,507.727Z" transform="translate(-329.164 -507.097)" fill="#fff"/>
        </g>
        <g id="グループ_10387" data-name="グループ 10387" transform="translate(7.424 4.848)">
          <path id="パス_79854" data-name="パス 79854" d="M326.915,501.626c-.187-.094-.288-.269-.226-.391s.262-.144.449-.05.288.269.226.391S327.1,501.72,326.915,501.626Z" transform="translate(-326.671 -501.126)" fill="#fff"/>
        </g>
        <g id="グループ_10388" data-name="グループ 10388" transform="translate(6.55 7.316)">
          <path id="パス_79855" data-name="パス 79855" d="M324.564,509.479a.362.362,0,1,1-.362-.362A.362.362,0,0,1,324.564,509.479Z" transform="translate(-323.841 -509.117)" fill="#fff"/>
        </g>
      </g>
      <g id="グループ_10403" data-name="グループ 10403" transform="translate(147.886 364.298)">
        <g id="グループ_10390" data-name="グループ 10390" transform="translate(0)">
          <path id="パス_79856" data-name="パス 79856" d="M233.8,506.286c.093-.086.18-.178.267-.27a.284.284,0,0,0,.129.012l.023-.005a.212.212,0,0,0,.3-.138.3.3,0,0,0,.069-.339c-.079-.229-.4-.5-.628-.294a.3.3,0,0,0-.036.045.172.172,0,0,0-.147.167.665.665,0,0,0,.028.231,4.273,4.273,0,0,1-.39.38c-.05.042-.106.081-.161.122a4.125,4.125,0,0,0-.463-.214,1.7,1.7,0,0,0,.15-.495.329.329,0,0,0,.34-.165c.113-.219-.068-.41-.27-.481a.2.2,0,0,0-.091-.039.289.289,0,0,0-.142.014.344.344,0,0,0-.265.529.177.177,0,0,0,.028.036c-.027.166-.054.414-.2.449h0a3.439,3.439,0,0,0-.8-.112,1.458,1.458,0,0,1,.032-.4.192.192,0,0,0,0-.043.235.235,0,0,0,.055-.094.325.325,0,0,0,.195-.331.391.391,0,0,0-.464-.331c-.2.028-.393.141-.39.366a.606.606,0,0,0,.191.422,2.01,2.01,0,0,0-.018.425,2.4,2.4,0,0,0-.645.17l-.175-.547a.457.457,0,0,0,.169-.207c.162-.409-.372-.568-.657-.4s-.4.757.055.785a.18.18,0,0,0,.049-.01l.187.583c-.023.016-.048.028-.071.045-.044.032-.084.07-.126.107-.061-.07-.12-.142-.178-.216a.2.2,0,0,0-.1-.068.578.578,0,0,0-.421-.373c-.263-.019-.33.3-.257.492a.186.186,0,0,0,.141.123.379.379,0,0,0,.117.087.31.31,0,0,0,.209.012q.1.127.207.249a1.672,1.672,0,0,0-.174.293,1.794,1.794,0,0,0-.4-.109.357.357,0,0,0-.118-.233c-.371-.272-.861.544-.281.711h.007a.258.258,0,0,0,.306-.072,1.487,1.487,0,0,1,.361.1,2.374,2.374,0,0,0-.043.625,4.049,4.049,0,0,1-.411,0,.3.3,0,0,0-.12-.151.3.3,0,0,0-.281,0,.366.366,0,0,0-.307.016c-.213.117-.187.311-.082.474a.292.292,0,0,0,.3.267.342.342,0,0,0,.191-.07.5.5,0,0,0,.187-.1c.009-.007.015-.017.023-.025a4.624,4.624,0,0,0,.555,0,3.966,3.966,0,0,0,.114.45c-.134.057-.271.108-.409.156a.446.446,0,0,0-.478-.053c-.219.116-.2.3-.11.475a.282.282,0,0,0,.293.305.471.471,0,0,0,.419-.33c.145-.049.289-.1.429-.162a5.437,5.437,0,0,0,.322.65c-.158.076-.317.15-.474.227a.385.385,0,0,0-.032-.023.323.323,0,0,0-.451.128c-.1.2.073.412.2.56a.221.221,0,0,0,.354-.028.329.329,0,0,0,.128-.271c.167-.082.335-.162.5-.242.035.05.069.1.105.149a4.34,4.34,0,0,0,.313.373,3.12,3.12,0,0,0-.28.308.317.317,0,0,0-.361.079l-.005.007c-.3.091-.119.493.085.618a.366.366,0,0,0,.567-.378c0-.005,0-.01-.006-.015a2.732,2.732,0,0,1,.3-.329,3.171,3.171,0,0,0,.525.373c-.062.094-.121.189-.185.281a.192.192,0,0,0-.016.038.217.217,0,0,0-.227.215v.015c0,.006-.01.01-.013.016a.221.221,0,0,0-.006.252.51.51,0,0,0,.074.088.29.29,0,0,0,.126.121l.017.015a.17.17,0,0,0,.217.028.391.391,0,0,0,.342-.276.364.364,0,0,0-.123-.353c.06-.088.118-.177.175-.267a2.307,2.307,0,0,0,.639.137c0,.142,0,.283,0,.425a.325.325,0,0,0-.173.1c-.133.143-.063.307.053.434a.319.319,0,0,0,.2.189.5.5,0,0,0,.537-.246.211.211,0,0,0-.078-.321c-.04-.021-.083-.043-.128-.065,0-.176.011-.356.009-.534a2.321,2.321,0,0,0,.55-.144c.044.113.091.225.137.338a.363.363,0,0,0,.048.549l0,0a.4.4,0,0,0,.346.027c.235-.054.486-.222.332-.484a.459.459,0,0,0-.335-.233q-.081-.192-.156-.385a2.621,2.621,0,0,0,.223-.146,2.364,2.364,0,0,0,.267-.237c.074.076.145.155.221.229-.094.213.059.393.251.5a.171.171,0,0,0,.225-.04c.263-.113.484-.56.087-.691a.476.476,0,0,0-.227-.01c-.1-.1-.193-.2-.288-.3a2.859,2.859,0,0,0,.308-.555c.1.039.2.078.3.123l-.036.059c-.094.157.055.281.2.273a.468.468,0,0,0,.116.084c.188.1.432-.069.5-.251a.416.416,0,0,0-.261-.512.271.271,0,0,0-.22.025,4.181,4.181,0,0,0-.469-.2,2.87,2.87,0,0,0,.087-.566,3.736,3.736,0,0,1,.519.007.919.919,0,0,0,.068.137.186.186,0,0,0,.314.007.426.426,0,0,0,.341-.246.44.44,0,0,0-.148-.534c-.188-.116-.389.061-.511.2-.008.009-.01.019-.017.028-.19-.008-.383-.016-.573-.006a2.716,2.716,0,0,0-.128-.6,2.739,2.739,0,0,1,.32-.075c.124.2.345.32.492.055a.366.366,0,0,0,.014-.046.164.164,0,0,0,.1-.2c-.043-.206-.219-.573-.492-.487a.3.3,0,0,0-.207.271,3.171,3.171,0,0,0-.394.1,2.931,2.931,0,0,0-.254-.415c-.016-.021-.035-.041-.051-.062.121-.063.244-.121.37-.174a.175.175,0,0,0,.121.05c.009,0,.017,0,.026,0a.2.2,0,0,0,.25-.079.3.3,0,0,0,.117-.268.707.707,0,0,0-.38-.483.355.355,0,0,0-.424.274.3.3,0,0,0,.03.173c-.133.06-.263.125-.391.194a3.921,3.921,0,0,0-.533-.446C233.692,506.386,233.748,506.337,233.8,506.286Z" transform="translate(-228.02 -504.519)" fill="#c96855"/>
        </g>
        <g id="グループ_10391" data-name="グループ 10391" transform="translate(3.516 4.289)">
          <path id="パス_79857" data-name="パス 79857" d="M241.512,518.737a1.253,1.253,0,1,1-1.548-.041A1.111,1.111,0,0,1,241.512,518.737Z" transform="translate(-239.404 -518.407)" fill="#bf4a3c"/>
        </g>
        <g id="グループ_10392" data-name="グループ 10392" transform="translate(5.871 5.584)">
          <path id="パス_79858" data-name="パス 79858" d="M247.135,522.643l-.021.015a.208.208,0,0,0,.244.337l.021-.015C247.594,522.82,247.351,522.482,247.135,522.643Z" transform="translate(-247.031 -522.601)" fill="#bf4a3c"/>
        </g>
        <g id="グループ_10393" data-name="グループ 10393" transform="translate(6.24 4.61)">
          <path id="パス_79859" data-name="パス 79859" d="M248.31,519.488c-.215.16.029.5.244.337A.208.208,0,0,0,248.31,519.488Z" transform="translate(-248.226 -519.446)" fill="#bf4a3c"/>
        </g>
        <g id="グループ_10394" data-name="グループ 10394" transform="translate(5.969 3.153)">
          <path id="パス_79860" data-name="パス 79860" d="M247.433,514.772c-.215.16.029.5.244.337S247.648,514.612,247.433,514.772Z" transform="translate(-247.349 -514.73)" fill="#bf4a3c"/>
        </g>
        <g id="グループ_10395" data-name="グループ 10395" transform="translate(5.037 2.291)">
          <path id="パス_79861" data-name="パス 79861" d="M244.6,511.947l-.037-.006a.208.208,0,0,0-.066.411l.036.006A.208.208,0,0,0,244.6,511.947Z" transform="translate(-244.33 -511.939)" fill="#bf4a3c"/>
        </g>
        <g id="グループ_10396" data-name="グループ 10396" transform="translate(3.657 1.66)">
          <path id="パス_79862" data-name="パス 79862" d="M240.169,509.908l-.073-.011a.208.208,0,0,0-.066.411l.073.01A.208.208,0,0,0,240.169,509.908Z" transform="translate(-239.861 -509.895)" fill="#bf4a3c"/>
        </g>
        <g id="グループ_10397" data-name="グループ 10397" transform="translate(2.375 1.861)">
          <path id="パス_79863" data-name="パス 79863" d="M235.793,510.587a.208.208,0,0,0,.244.338C236.252,510.765,236.008,510.427,235.793,510.587Z" transform="translate(-235.71 -510.545)" fill="#bf4a3c"/>
        </g>
        <g id="グループ_10398" data-name="グループ 10398" transform="translate(1.797 2.876)">
          <path id="パス_79864" data-name="パス 79864" d="M233.922,513.874a.208.208,0,0,0,.244.337A.208.208,0,0,0,233.922,513.874Z" transform="translate(-233.838 -513.832)" fill="#bf4a3c"/>
        </g>
        <g id="グループ_10399" data-name="グループ 10399" transform="translate(1.879 4.121)">
          <path id="パス_79865" data-name="パス 79865" d="M234.375,517.87l-.036-.005a.208.208,0,0,0-.066.411l.037.005A.208.208,0,0,0,234.375,517.87Z" transform="translate(-234.103 -517.862)" fill="#bf4a3c"/>
        </g>
        <g id="グループ_10400" data-name="グループ 10400" transform="translate(2.725 2.453)">
          <path id="パス_79866" data-name="パス 79866" d="M237.71,512.514a.592.592,0,0,0-.857.588.208.208,0,0,0,.043.1.231.231,0,0,0,.334.174l.407-.222a.759.759,0,0,0,.292-.2C238.062,512.756,237.883,512.589,237.71,512.514Z" transform="translate(-236.844 -512.462)" fill="#bf4a3c"/>
        </g>
        <g id="グループ_10401" data-name="グループ 10401" transform="translate(2.689 4.262)">
          <path id="パス_79867" data-name="パス 79867" d="M236.769,518.648l.047.063a.208.208,0,0,0,.337-.244l-.047-.063A.208.208,0,0,0,236.769,518.648Z" transform="translate(-236.727 -518.32)" fill="#bf4a3c"/>
        </g>
        <g id="グループ_10402" data-name="グループ 10402" transform="translate(3.729 3.08)">
          <path id="パス_79868" data-name="パス 79868" d="M241.384,514.667a.192.192,0,0,0-.164-.161,1.026,1.026,0,0,0-1.1.591.315.315,0,0,0,.2.441c.18.043.279-.093.4-.166a.152.152,0,0,0,.045-.021.251.251,0,0,1,.092-.021.79.79,0,0,0,.566-.141.317.317,0,0,0,.039-.465A.413.413,0,0,0,241.384,514.667Z" transform="translate(-240.095 -514.493)" fill="#bf4a3c"/>
        </g>
      </g>
      <g id="グループ_10422" data-name="グループ 10422" transform="translate(128.498 350.226)">
        <g id="グループ_10406" data-name="グループ 10406" transform="translate(5.985 0.854)">
          <g id="グループ_10404" data-name="グループ 10404">
            <path id="パス_79869" data-name="パス 79869" d="M184.779,463.472l1.239-1.5a.694.694,0,0,1,.976-.094h0a.694.694,0,0,1,.094.976l-1.239,1.5a.693.693,0,0,1-.976.094h0A.693.693,0,0,1,184.779,463.472Z" transform="translate(-184.621 -461.718)" fill="#ca9672"/>
          </g>
          <g id="グループ_10405" data-name="グループ 10405" transform="translate(0.414 0.419)">
            <path id="パス_79870" data-name="パス 79870" d="M186.057,464.544l1.087-1.318a.419.419,0,0,1,.59-.057h0a.419.419,0,0,1,.057.59l-1.087,1.318a.419.419,0,0,1-.59.057h0A.419.419,0,0,1,186.057,464.544Z" transform="translate(-185.961 -463.074)" fill="#d8bc71"/>
          </g>
        </g>
        <g id="グループ_10409" data-name="グループ 10409" transform="translate(3.255 3.256)">
          <g id="グループ_10407" data-name="グループ 10407">
            <path id="パス_79871" data-name="パス 79871" d="M176.122,470.582l1.677-.99a.693.693,0,0,1,.949.244h0a.693.693,0,0,1-.245.949l-1.677.99a.693.693,0,0,1-.949-.245h0A.693.693,0,0,1,176.122,470.582Z" transform="translate(-175.781 -469.496)" fill="#ca9672"/>
          </g>
          <g id="グループ_10408" data-name="グループ 10408" transform="translate(0.419 0.406)">
            <path id="パス_79872" data-name="パス 79872" d="M177.344,471.737l1.471-.869a.419.419,0,0,1,.574.148h0a.419.419,0,0,1-.148.574l-1.472.869a.419.419,0,0,1-.574-.148h0A.419.419,0,0,1,177.344,471.737Z" transform="translate(-177.138 -470.81)" fill="#d8bc71"/>
          </g>
        </g>
        <g id="グループ_10412" data-name="グループ 10412" transform="translate(0 3.537)">
          <g id="グループ_10410" data-name="グループ 10410">
            <path id="パス_79873" data-name="パス 79873" d="M166.1,470.424l1.892.461a.693.693,0,0,1,.509.838h0a.693.693,0,0,1-.838.509l-1.892-.461a.693.693,0,0,1-.509-.838h0A.693.693,0,0,1,166.1,470.424Z" transform="translate(-165.239 -470.404)" fill="#ca9672"/>
          </g>
          <g id="グループ_10411" data-name="グループ 10411" transform="translate(0.371 0.383)">
            <path id="パス_79874" data-name="パス 79874" d="M166.958,471.656l1.66.4a.419.419,0,0,1,.308.506h0a.419.419,0,0,1-.506.308l-1.66-.4a.419.419,0,0,1-.308-.506h0A.418.418,0,0,1,166.958,471.656Z" transform="translate(-166.44 -471.644)" fill="#d8bc71"/>
          </g>
        </g>
        <g id="グループ_10415" data-name="グループ 10415" transform="translate(1.763 5.578)">
          <g id="グループ_10413" data-name="グループ 10413">
            <path id="パス_79875" data-name="パス 79875" d="M171.044,479.041l.98-1.682a.693.693,0,0,1,.948-.25h0a.693.693,0,0,1,.25.948l-.98,1.683a.693.693,0,0,1-.948.25h0A.693.693,0,0,1,171.044,479.041Z" transform="translate(-170.949 -477.014)" fill="#ca9672"/>
          </g>
          <g id="グループ_10414" data-name="グループ 10414" transform="translate(0.406 0.419)">
            <path id="パス_79876" data-name="パス 79876" d="M172.319,480.055l.86-1.477a.419.419,0,0,1,.573-.151h0a.419.419,0,0,1,.151.573l-.86,1.476a.419.419,0,0,1-.573.151h0A.419.419,0,0,1,172.319,480.055Z" transform="translate(-172.262 -478.37)" fill="#d8bc71"/>
          </g>
        </g>
        <g id="グループ_10418" data-name="グループ 10418" transform="translate(4.278 0)">
          <g id="グループ_10416" data-name="グループ 10416">
            <path id="パス_79877" data-name="パス 79877" d="M181.469,460.043l-1.117,1.6a.693.693,0,0,1-.965.17h0a.693.693,0,0,1-.17-.965l1.117-1.6a.693.693,0,0,1,.965-.17h0A.693.693,0,0,1,181.469,460.043Z" transform="translate(-179.092 -458.952)" fill="#ca9672"/>
          </g>
          <g id="グループ_10417" data-name="グループ 10417" transform="translate(0.275 0.325)">
            <path id="パス_79878" data-name="パス 79878" d="M181.725,460.663l-.98,1.4a.419.419,0,0,1-.583.1h0a.419.419,0,0,1-.1-.583l.98-1.4a.419.419,0,0,1,.583-.1h0A.419.419,0,0,1,181.725,460.663Z" transform="translate(-179.982 -460.003)" fill="#d8bc71"/>
          </g>
        </g>
        <g id="グループ_10421" data-name="グループ 10421" transform="translate(1.74 0.961)">
          <g id="グループ_10419" data-name="グループ 10419">
            <path id="パス_79879" data-name="パス 79879" d="M172.062,462.271l1.366,1.388a.693.693,0,0,1-.008.98h0a.693.693,0,0,1-.98-.008l-1.366-1.388a.693.693,0,0,1,.008-.98h0A.693.693,0,0,1,172.062,462.271Z" transform="translate(-170.875 -462.064)" fill="#ca9672"/>
          </g>
          <g id="グループ_10420" data-name="グループ 10420" transform="translate(0.299 0.417)">
            <path id="パス_79880" data-name="パス 79880" d="M172.56,463.539l1.2,1.218a.419.419,0,0,1,0,.592h0a.419.419,0,0,1-.592,0l-1.2-1.218a.419.419,0,0,1,0-.592h0A.419.419,0,0,1,172.56,463.539Z" transform="translate(-171.843 -463.414)" fill="#d8bc71"/>
          </g>
        </g>
      </g>
      <g id="グループ_10454" data-name="グループ 10454" transform="translate(151.752 354.028)">
        <g id="グループ_10423" data-name="グループ 10423" transform="translate(0)">
          <path id="パス_79881" data-name="パス 79881" d="M250.654,479.843a2.107,2.107,0,0,0,.131.166,1.555,1.555,0,0,0,.512.392,1.472,1.472,0,0,0-.328-.557,1.877,1.877,0,0,0-.228-.211,2.182,2.182,0,0,0,.1-.463,1.938,1.938,0,0,0,.294.15.322.322,0,1,0,.091-.23,1.85,1.85,0,0,0-.372-.1,2.539,2.539,0,0,0-.039-.536c.082,0,.163,0,.244-.014a.336.336,0,1,0-.031-.245,2.449,2.449,0,0,0-.259.053,2.82,2.82,0,0,0-.287-.686l.09,0a.262.262,0,1,0,0-.247,1.272,1.272,0,0,0-.228.026l-.012-.019c.031.043-.724-.761-.729-.718a.314.314,0,0,1,.145-.2,2.339,2.339,0,0,0,.292.14.342.342,0,1,0,.088-.231q-.066-.024-.133-.044c.256-.114.591-.214.875-.326a1.111,1.111,0,0,0,.129.132,1.516,1.516,0,0,0,.248.168,1.261,1.261,0,0,0,.582.162,1.4,1.4,0,0,0-.466-.38,1.98,1.98,0,0,0-.269-.116.819.819,0,0,0-.082-.025,1.153,1.153,0,0,0,.324-.2,2.041,2.041,0,0,0,.167-.185c.036.018.071.037.107.053a1.626,1.626,0,0,0,.666.151,1.753,1.753,0,0,0-.567-.377l-.068-.027a1.914,1.914,0,0,0,.235-.585,2.214,2.214,0,0,0,.234.055,1.491,1.491,0,0,0,.645-.026,1.534,1.534,0,0,0-.606-.218,2.181,2.181,0,0,0-.238-.021,1.993,1.993,0,0,0-.052-.718c.089-.018.177-.039.264-.063a.411.411,0,1,0-.07-.237c-.088.027-.174.058-.26.092a1.992,1.992,0,0,0-.28-.5,2.957,2.957,0,0,0,.252-.208,2.032,2.032,0,0,0,.453-.6,2.024,2.024,0,0,0-.623.418,3.073,3.073,0,0,0-.215.232,1.981,1.981,0,0,0-.454-.361c-.029-.017-.057-.028-.085-.043a2.674,2.674,0,0,0,.2-.327,1.931,1.931,0,0,0,.208-.7,1.938,1.938,0,0,0-.43.592,2.679,2.679,0,0,0-.14.353,1.979,1.979,0,0,0-.627-.177,1.932,1.932,0,0,0,.048-.367,1.524,1.524,0,0,0-.108-.635,1.525,1.525,0,0,0-.139.628,1.934,1.934,0,0,0,.029.364,1.448,1.448,0,0,0-.637.161c-.013-.056-.026-.112-.04-.167a3.224,3.224,0,0,0-.363-.871,3.223,3.223,0,0,0,.124.935q.032.114.069.227a2.518,2.518,0,0,0-.378.322q-.1-.14-.213-.271a2.624,2.624,0,0,0-.649-.548,2.617,2.617,0,0,0,.464.711c.082.091.168.178.259.261a6.359,6.359,0,0,0-.441.581c-.078-.088-.16-.171-.245-.251a2.62,2.62,0,0,0-.7-.477,2.625,2.625,0,0,0,.536.659,3.784,3.784,0,0,0,.3.241c-.069.1-.136.207-.2.309s-.132.195-.2.282a2.035,2.035,0,0,0-.29-.355.349.349,0,1,0-.172.177,2.016,2.016,0,0,0,.376.287,2.115,2.115,0,0,1-.895.721,2.191,2.191,0,0,0-.011-.23,1.472,1.472,0,0,0-.195-.6,1.475,1.475,0,0,0-.051.631,2.152,2.152,0,0,0,.05.256,1.434,1.434,0,0,1-.956-.225,2.172,2.172,0,0,0,.17-.352,1.713,1.713,0,0,0,.116-.674,1.714,1.714,0,0,0-.348.589,2.247,2.247,0,0,0-.094.342,7.161,7.161,0,0,1-.7-.552,2.684,2.684,0,0,0,.188-.243,1.888,1.888,0,0,0,.291-.657,1.891,1.891,0,0,0-.5.52q-.076.118-.141.244c-.161-.139-.323-.277-.486-.4q.037-.091.067-.184a1.667,1.667,0,0,0,.079-.664,1.587,1.587,0,0,0-.315.591c-.01.036-.019.073-.028.11a2.606,2.606,0,0,0-.629-.338c0-.035,0-.071,0-.106a1.546,1.546,0,0,0-.127-.64,1.546,1.546,0,0,0-.12.641c0,.014,0,.028,0,.042a1.243,1.243,0,0,0-.485.007c-.017-.08-.035-.16-.056-.238a2.424,2.424,0,0,0-.342-.745,2.416,2.416,0,0,0,.1.813c.024.08.051.159.08.237a1.7,1.7,0,0,0-.372.207,1.66,1.66,0,0,0-.176.148c-.029-.026-.059-.052-.089-.078a.314.314,0,1,0-.153.194c.028.021.057.041.086.061a.76.76,0,0,0-.125.64c-.051,0-.1,0-.153.006a.328.328,0,1,0,.021.246c.071-.007.141-.018.212-.032a2.32,2.32,0,0,0,.494.631c-.046.023-.091.047-.136.072a.3.3,0,1,0,.128.212,1.962,1.962,0,0,0,.179-.129c.2.17.412.329.62.475a1.9,1.9,0,0,0-.159.109.288.288,0,1,0,.155.192,1.628,1.628,0,0,0,.182-.178c.261.176.5.326.661.442a1.425,1.425,0,0,0-.15.162.268.268,0,1,0,.2.149,1.507,1.507,0,0,0,.1-.163,4.081,4.081,0,0,0,.539.478c-.018.035-.035.07-.05.106a.263.263,0,1,0,.229.092c.008-.022.015-.044.023-.067a1.627,1.627,0,0,0,.428.181,1.007,1.007,0,0,0,.188.029c0,.059.012.118.021.177a1.772,1.772,0,0,0,.232.66,1.767,1.767,0,0,0,.012-.7c-.01-.055-.021-.11-.034-.164.233-.073.358-.263.668-.275l.1,0c-.028.064-.053.129-.077.195a1.468,1.468,0,0,0-.074.612,1.329,1.329,0,0,0,.31-.537,1.67,1.67,0,0,0,.06-.274,5.044,5.044,0,0,1,.779.042,2.258,2.258,0,0,0-.177.216.33.33,0,1,0,.2.141,2.031,2.031,0,0,0,.176-.317c.611.158.493.532.418,1.015l-.036,0a1.8,1.8,0,0,0-.663.241,1.748,1.748,0,0,0,.669.007,1.433,1.433,0,0,0,.106.694c-.036.009-.072.018-.108.029a.368.368,0,1,0,.073.236c.051-.017.1-.035.151-.054a2.016,2.016,0,0,0,.354.4c-.029.022-.058.044-.086.067a.3.3,0,1,0,.163.186c.037-.034.073-.069.107-.105a2.982,2.982,0,0,0,.612.344,1.447,1.447,0,0,0-.054.2.266.266,0,1,0,.243.043,1.573,1.573,0,0,0,.015-.166l.007,0a1.388,1.388,0,0,0,.622.056,1.271,1.271,0,0,0,.083.26,1.175,1.175,0,0,0,.186.278.771.771,0,0,0,.132.114c.052.026.115.07.177.039-.051-.025-.064-.079-.087-.121l-.061-.139c-.038-.094-.081-.185-.123-.277-.034-.069-.068-.138-.1-.206A1.175,1.175,0,0,0,250.654,479.843Z" transform="translate(-240.539 -471.264)" fill="#85a27c"/>
        </g>
        <g id="グループ_10424" data-name="グループ 10424" transform="translate(8.499 1.665)">
          <path id="パス_79882" data-name="パス 79882" d="M269.31,477.071a.49.49,0,0,0-.476-.414.713.713,0,0,0-.773.625.6.6,0,0,0,.666.638.684.684,0,0,0,.549-.292A.578.578,0,0,0,269.31,477.071Z" transform="translate(-268.059 -476.657)" fill="#9eb393"/>
        </g>
        <g id="グループ_10425" data-name="グループ 10425" transform="translate(8.672 3.532)">
          <path id="パス_79883" data-name="パス 79883" d="M269.663,482.87a.5.5,0,0,0-.238-.124.42.42,0,0,0-.313-.024.734.734,0,0,0-.418.316.452.452,0,0,0-.07.245.421.421,0,0,0,.062.286.511.511,0,0,0,.627.21.624.624,0,0,0,.419-.31A.506.506,0,0,0,269.663,482.87Z" transform="translate(-268.62 -482.702)" fill="#9eb393"/>
        </g>
        <g id="グループ_10426" data-name="グループ 10426" transform="translate(8.267 3.165)">
          <path id="パス_79884" data-name="パス 79884" d="M267.549,481.511a.237.237,0,0,0-.241.246.23.23,0,0,0,.235.247.237.237,0,0,0,.241-.247A.229.229,0,0,0,267.549,481.511Z" transform="translate(-267.308 -481.511)" fill="#9eb393"/>
        </g>
        <g id="グループ_10427" data-name="グループ 10427" transform="translate(9.668 2.938)">
          <path id="パス_79885" data-name="パス 79885" d="M272.149,480.776h-.062a.247.247,0,0,0-.006.493h.062A.247.247,0,0,0,272.149,480.776Z" transform="translate(-271.846 -480.776)" fill="#9eb393"/>
        </g>
        <g id="グループ_10428" data-name="グループ 10428" transform="translate(10.116 2.159)">
          <path id="パス_79886" data-name="パス 79886" d="M273.324,478.43l-.021.082c-.077.308.4.446.474.137l.021-.082C273.875,478.26,273.4,478.122,273.324,478.43Z" transform="translate(-273.295 -478.257)" fill="#9eb393"/>
        </g>
        <g id="グループ_10429" data-name="グループ 10429" transform="translate(8.43 5.906)">
          <path id="パス_79887" data-name="パス 79887" d="M268.2,490.431a.237.237,0,0,0-.362.218.263.263,0,0,0,.061.225.253.253,0,0,0,.349,0A.28.28,0,0,0,268.2,490.431Z" transform="translate(-267.835 -490.389)" fill="#9eb393"/>
        </g>
        <g id="グループ_10430" data-name="グループ 10430" transform="translate(7.93 6.673)">
          <path id="パス_79888" data-name="パス 79888" d="M267.241,493.079a.47.47,0,0,0-.372-.191.553.553,0,0,0-.242-.006.537.537,0,0,0-.338.249.506.506,0,0,0,.069.6.59.59,0,0,0,.181.149.505.505,0,0,0,.677-.168l.056-.084A.492.492,0,0,0,267.241,493.079Z" transform="translate(-266.218 -492.871)" fill="#9eb393"/>
        </g>
        <g id="グループ_10431" data-name="グループ 10431" transform="translate(1.838 2.839)">
          <path id="パス_79889" data-name="パス 79889" d="M247.675,480.786a.991.991,0,0,0-.368-.2.482.482,0,0,0-.561-.06.541.541,0,0,0-.234.324c0,.006,0,.011-.006.017s0,.033-.007.05h0a.509.509,0,0,0,.255.527.644.644,0,0,0,.88.16A.543.543,0,0,0,247.675,480.786Z" transform="translate(-246.492 -480.458)" fill="#9eb393"/>
        </g>
        <g id="グループ_10432" data-name="グループ 10432" transform="translate(5.859 4.375)">
          <path id="パス_79890" data-name="パス 79890" d="M260.573,485.5a1.061,1.061,0,0,0-.7-.013.509.509,0,0,0-.349.34.487.487,0,0,0,.12.481.954.954,0,0,0,.19.128.433.433,0,0,0,.142.067,1.025,1.025,0,0,0,.1.016l.043.007c.025,0,.049,0,.074,0s.047,0,.071,0a.787.787,0,0,0,.408-.126A.5.5,0,0,0,260.573,485.5Z" transform="translate(-259.51 -485.432)" fill="#9eb393"/>
        </g>
        <g id="グループ_10433" data-name="グループ 10433" transform="translate(3.404 3.474)">
          <path id="パス_79891" data-name="パス 79891" d="M251.8,482.512a.247.247,0,0,0-.007.493A.247.247,0,0,0,251.8,482.512Z" transform="translate(-251.56 -482.512)" fill="#9eb393"/>
        </g>
        <g id="グループ_10434" data-name="グループ 10434" transform="translate(3.177 4.195)">
          <path id="パス_79892" data-name="パス 79892" d="M251.068,484.847a.247.247,0,0,0-.006.493A.247.247,0,0,0,251.068,484.847Z" transform="translate(-250.826 -484.847)" fill="#9eb393"/>
        </g>
        <g id="グループ_10435" data-name="グループ 10435" transform="translate(3.486 4.875)">
          <path id="パス_79893" data-name="パス 79893" d="M252.069,487.049a.247.247,0,0,0-.006.493A.247.247,0,0,0,252.069,487.049Z" transform="translate(-251.827 -487.049)" fill="#9eb393"/>
        </g>
        <g id="グループ_10436" data-name="グループ 10436" transform="translate(7.504 5.205)">
          <path id="パス_79894" data-name="パス 79894" d="M265.081,488.117a.247.247,0,0,0-.007.493A.247.247,0,0,0,265.081,488.117Z" transform="translate(-264.839 -488.117)" fill="#9eb393"/>
        </g>
        <g id="グループ_10437" data-name="グループ 10437" transform="translate(7.546 4.566)">
          <path id="パス_79895" data-name="パス 79895" d="M265.215,486.048a.247.247,0,0,0-.006.493A.247.247,0,0,0,265.215,486.048Z" transform="translate(-264.973 -486.048)" fill="#9eb393"/>
        </g>
        <g id="グループ_10438" data-name="グループ 10438" transform="translate(3.852 4.05)">
          <path id="パス_79896" data-name="パス 79896" d="M253.134,484.379a.123.123,0,0,0,0,.247A.123.123,0,0,0,253.134,484.379Z" transform="translate(-253.014 -484.379)" fill="#9eb393"/>
        </g>
        <g id="グループ_10439" data-name="グループ 10439" transform="translate(3.914 4.524)">
          <path id="パス_79897" data-name="パス 79897" d="M253.334,485.914a.123.123,0,0,0,0,.246A.123.123,0,0,0,253.334,485.914Z" transform="translate(-253.214 -485.914)" fill="#9eb393"/>
        </g>
        <g id="グループ_10440" data-name="グループ 10440" transform="translate(5.377 4.73)">
          <path id="パス_79898" data-name="パス 79898" d="M258.072,486.581a.123.123,0,0,0,0,.247A.123.123,0,0,0,258.072,486.581Z" transform="translate(-257.952 -486.581)" fill="#9eb393"/>
        </g>
        <g id="グループ_10441" data-name="グループ 10441" transform="translate(5.316 5.163)">
          <path id="パス_79899" data-name="パス 79899" d="M257.872,487.982a.123.123,0,0,0,0,.247A.123.123,0,0,0,257.872,487.982Z" transform="translate(-257.751 -487.982)" fill="#9eb393"/>
        </g>
        <g id="グループ_10442" data-name="グループ 10442" transform="translate(4.903 5.596)">
          <path id="パス_79900" data-name="パス 79900" d="M256.558,489.383h-.021a.123.123,0,0,0,0,.247h.021A.123.123,0,0,0,256.558,489.383Z" transform="translate(-256.417 -489.383)" fill="#9eb393"/>
        </g>
        <g id="グループ_10443" data-name="グループ 10443" transform="translate(4.285 5.658)">
          <path id="パス_79901" data-name="パス 79901" d="M254.536,489.584a.123.123,0,0,0,0,.246A.123.123,0,0,0,254.536,489.584Z" transform="translate(-254.415 -489.584)" fill="#9eb393"/>
        </g>
        <g id="グループ_10444" data-name="グループ 10444" transform="translate(7.294 4.153)">
          <path id="パス_79902" data-name="パス 79902" d="M264.278,484.713a.123.123,0,0,0,0,.246A.123.123,0,0,0,264.278,484.713Z" transform="translate(-264.157 -484.713)" fill="#9eb393"/>
        </g>
        <g id="グループ_10445" data-name="グループ 10445" transform="translate(6.82 3.968)">
          <path id="パス_79903" data-name="パス 79903" d="M262.743,484.112a.123.123,0,0,0,0,.247A.123.123,0,0,0,262.743,484.112Z" transform="translate(-262.623 -484.112)" fill="#9eb393"/>
        </g>
        <g id="グループ_10446" data-name="グループ 10446" transform="translate(8.077 2.752)">
          <path id="パス_79904" data-name="パス 79904" d="M266.814,480.175a.123.123,0,0,0,0,.247A.123.123,0,0,0,266.814,480.175Z" transform="translate(-266.693 -480.175)" fill="#9eb393"/>
        </g>
        <g id="グループ_10447" data-name="グループ 10447" transform="translate(8.056 2.278)">
          <path id="パス_79905" data-name="パス 79905" d="M266.747,478.64a.123.123,0,0,0,0,.247A.123.123,0,0,0,266.747,478.64Z" transform="translate(-266.626 -478.64)" fill="#9eb393"/>
        </g>
        <g id="グループ_10448" data-name="グループ 10448" transform="translate(7.582 7.718)">
          <path id="パス_79906" data-name="パス 79906" d="M265.212,496.257a.123.123,0,0,0,0,.246A.123.123,0,0,0,265.212,496.257Z" transform="translate(-265.092 -496.257)" fill="#9eb393"/>
        </g>
        <g id="グループ_10449" data-name="グループ 10449" transform="translate(8.077 8.151)">
          <path id="パス_79907" data-name="パス 79907" d="M266.814,497.658a.123.123,0,0,0,0,.246A.123.123,0,0,0,266.814,497.658Z" transform="translate(-266.693 -497.658)" fill="#9eb393"/>
        </g>
        <g id="グループ_10450" data-name="グループ 10450" transform="translate(8.675 8.069)">
          <path id="パス_79908" data-name="パス 79908" d="M268.749,497.391a.123.123,0,0,0,0,.247A.123.123,0,0,0,268.749,497.391Z" transform="translate(-268.628 -497.391)" fill="#9eb393"/>
        </g>
        <g id="グループ_10451" data-name="グループ 10451" transform="translate(9.066 7.698)">
          <path id="パス_79909" data-name="パス 79909" d="M270.017,496.19a.123.123,0,0,0,0,.246A.123.123,0,0,0,270.017,496.19Z" transform="translate(-269.896 -496.19)" fill="#9eb393"/>
        </g>
        <g id="グループ_10452" data-name="グループ 10452" transform="translate(9.231 7.121)">
          <path id="パス_79910" data-name="パス 79910" d="M270.55,494.322a.123.123,0,0,0,0,.246A.123.123,0,0,0,270.55,494.322Z" transform="translate(-270.43 -494.322)" fill="#9eb393"/>
        </g>
        <g id="グループ_10453" data-name="グループ 10453" transform="translate(9.169 6.523)">
          <path id="パス_79911" data-name="パス 79911" d="M270.35,492.386a.123.123,0,0,0,0,.247A.123.123,0,0,0,270.35,492.386Z" transform="translate(-270.23 -492.386)" fill="#9eb393"/>
        </g>
      </g>
    </g>
  </g>
</svg>
