<svg xmlns="http://www.w3.org/2000/svg" xmlns:xlink="http://www.w3.org/1999/xlink" width="140" height="140" viewBox="0 0 140 140"><defs><clipPath id="a"><circle cx="70" cy="70" r="70" transform="translate(0 0.477)" fill="#f7f3e5"/></clipPath></defs><g transform="translate(0 -0.477)"><g clip-path="url(#a)"><circle cx="70" cy="70" r="70" transform="translate(0 0.477)" fill="#f7f3e5"/><g transform="translate(33.758 35.443)"><rect width="29.587" height="1.5" transform="translate(0 0)" fill="#945029"/><rect width="14.236" height="1.5" transform="translate(43.823 1.5) rotate(180)" fill="#894019"/><rect width="12.584" height="39.309" transform="translate(42.997 40.809) rotate(180)" fill="#894019"/><rect width="29.675" height="35.49" transform="translate(0.739 1.5)" fill="#945029"/><rect width="0.826" height="39.309" transform="translate(29.587 1.5)" fill="#592114"/><rect width="28.848" height="17.745" transform="translate(0.739 19.245)" fill="#945029"/><rect width="29.675" height="0.361" transform="translate(0.739 19.064)" fill="#3b1a11"/><rect width="28.848" height="3.819" transform="translate(0.739 36.99)" fill="#592114"/><rect width="29.675" height="0.619" transform="translate(0.739 36.99)" fill="#3b1a11"/><rect width="1.47" height="3.2" transform="translate(28.944 37.609)" fill="#945029"/><rect width="1.47" height="3.2" transform="translate(0.739 37.609)" fill="#945029"/><rect width="42.258" height="0.361" transform="translate(0.739 1.5)" fill="#3b1a11"/><g transform="translate(8.909 9.613)"><path d="M.76,0h9.806a.76.76,0,0,1,.76.76v0a.76.76,0,0,1-.76.76H.76A.76.76,0,0,1,0,.76v0A.76.76,0,0,1,.76,0Z" fill="#ced5d4"/><path d="M2469.971,1284.688h-4.47c-.074,0-.134-.085-.134-.188s.06-.189.134-.189h4.47c.073,0,.133.085.133.189S2470.044,1284.688,2469.971,1284.688Z" transform="translate(-2464.918 -1284.068)" fill="#f5f5f5"/></g><g transform="translate(8.909 27.358)"><path d="M2474.941,1333.18h-10.25c-.3,0-.538-.34-.538-.76h0c0-.42.241-.76.538-.76h10.25c.3,0,.538.34.538.76h0C2475.479,1332.84,2475.238,1333.18,2474.941,1333.18Z" transform="translate(-2464.154 -1331.66)" fill="#ced5d4"/><path d="M2469.971,1332.7h-4.47c-.074,0-.134-.085-.134-.189s.06-.189.134-.189h4.47c.073,0,.133.085.133.189S2470.044,1332.7,2469.971,1332.7Z" transform="translate(-2464.919 -1332.075)" fill="#f5f5f5"/></g></g><g transform="translate(65.704 31.283)"><g transform="translate(0.592 3.494)"><rect width="16.519" height="45.48" transform="translate(39.813 45.48) rotate(180)" fill="#3b1a11"/><rect width="16.519" height="45.48" fill="#b56635"/><rect width="37.919" height="10.744" transform="translate(14.525 3.781) rotate(90)" fill="#f6e6d7"/><g transform="translate(12.19 15.194)"><ellipse cx="0.682" cy="2.638" rx="0.682" ry="2.638" fill="#5e2e1d"/><path d="M2562.517,1297.7a6.946,6.946,0,0,1,.277,2.117c0,1.457-.306,2.638-.683,2.638-.108,0-.211-.1-.3-.276.114.326.254.521.406.521.377,0,.683-1.181.683-2.638A5.874,5.874,0,0,0,2562.517,1297.7Z" transform="translate(-2561.532 -1297.421)" fill="#481c10"/></g><g transform="translate(16.464)"><rect width="16.519" height="45.48" transform="translate(16.519 45.48) rotate(180)" fill="#b56635"/><rect width="37.919" height="10.744" transform="translate(12.738 3.781) rotate(90)" fill="#f6e6d7"/><g transform="translate(2.964 15.194)"><ellipse cx="0.682" cy="2.638" rx="0.682" ry="2.638" fill="#5e2e1d"/><path d="M2582.1,1297.7a6.939,6.939,0,0,1,.276,2.117c0,1.457-.305,2.638-.682,2.638-.109,0-.211-.1-.3-.276.114.326.254.521.406.521.376,0,.682-1.181.682-2.638A5.881,5.881,0,0,0,2582.1,1297.7Z" transform="translate(-2581.114 -1297.421)" fill="#481c10"/></g></g><rect width="0.244" height="45.48" transform="translate(16.397)" fill="#3b1a11"/></g><g transform="translate(0 0)"><path d="M2.809,0h28.6a2.809,2.809,0,0,1,2.809,2.809v0a.684.684,0,0,1-.684.684H.684A.684.684,0,0,1,0,2.809v0A2.809,2.809,0,0,1,2.809,0Z" transform="translate(6.83)" fill="#d5d5d5"/><path d="M2.809,0h28.6a2.809,2.809,0,0,1,2.809,2.809v0a.684.684,0,0,1-.684.684H.684A.684.684,0,0,1,0,2.809v0A2.809,2.809,0,0,1,2.809,0Z" fill="#eff0f1"/></g></g><path d="M2495.3,1478.118c0,.639-25.417,1.156-56.771,1.156s-56.775-.517-56.775-1.156,25.419-1.15,56.775-1.15S2495.3,1477.484,2495.3,1478.118Z" transform="translate(-2369.545 -1360.457)" fill="#8e8e8f"/><path d="M2485.559,1459.784a1.131,1.131,0,0,1-.144-.034c-.03-.008-.058-.021-.085-.031-.043-.016-.086-.028-.128-.047s-.062-.029-.091-.046-.08-.04-.118-.064-.065-.042-.1-.063-.072-.048-.11-.075l-.1-.08c-.036-.028-.069-.057-.105-.089s-.065-.062-.1-.093-.067-.066-.1-.1-.066-.074-.1-.111-.063-.072-.095-.112-.065-.083-.1-.126-.061-.081-.089-.122-.066-.093-.1-.142-.058-.087-.085-.132-.065-.105-.1-.16-.053-.091-.081-.137-.064-.118-.1-.179l-.074-.143c-.034-.064-.065-.129-.1-.2-.023-.047-.046-.1-.069-.148-.031-.07-.063-.143-.1-.215l-.062-.149c-.032-.077-.063-.156-.1-.235-.02-.048-.038-.1-.058-.149-.031-.083-.063-.17-.094-.255-.018-.051-.037-.1-.055-.15-.03-.092-.061-.184-.093-.28-.015-.047-.03-.093-.047-.142-.03-.1-.062-.2-.093-.3-.012-.045-.026-.093-.039-.137-.031-.109-.064-.218-.093-.331-.011-.039-.022-.08-.033-.121-.031-.12-.062-.24-.092-.362-.008-.035-.016-.072-.026-.108-.03-.129-.062-.26-.09-.392-.006-.028-.013-.058-.02-.087-.031-.141-.06-.285-.09-.432,0-.016-.007-.034-.01-.052a33.465,33.465,0,0,1-.588-5.768h-5.71c.133,6.765,2.014,12.131,4.316,12.131h5.709a1.558,1.558,0,0,1-.22-.016C2485.607,1459.8,2485.583,1459.789,2485.559,1459.784Z" transform="translate(-2428.844 -1341.999)" fill="#302d2c"/><g transform="translate(106.13 34.693)"><g transform="translate(0 0)"><path d="M2653.743,1288.029c-.247-1.972-6.63-25.871-7.358-28.506a5.725,5.725,0,0,0-4.82-3.9h-5.411v4.243c2.658.006,4.5.015,5.042.031,1.29.037,1.7.945,2.106,1.8s5.567,22.622,6.055,23.738-.057,2.147-1.861,2.147h-11.343v5.434h-.2a.453.453,0,0,1,.452.452v.7a.452.452,0,0,1-.452.453l-.106,0v12.705h17.963c.021,0,.043.006.064.007l0-14.861A18.768,18.768,0,0,0,2653.743,1288.029Z" transform="translate(-2635.85 -1255.619)" fill="#1a1a1a"/></g></g><path d="M2649.875,1292.671c-.489-1.116-5.648-22.879-6.056-23.738s-.816-1.766-2.106-1.8c-.541-.016-2.384-.026-5.042-.031v27.72h11.342C2649.817,1294.818,2650.362,1293.788,2649.875,1292.671Z" transform="translate(-2530.236 -1228.162)" fill="#fff" opacity="0.4"/><g transform="translate(10.374 48.354)"><rect width="14.104" height="9.943" transform="translate(27.936 16.625)" fill="#5e2e1d"/><ellipse cx="3.216" cy="3.921" rx="3.216" ry="3.921" transform="translate(2.951 0)" fill="#b56635"/><path d="M2414.467,1315.618H2393.42l-.309-1.5-.7-3.411-.31-1.507-1.818-8.826-1.069-5.191a2.169,2.169,0,0,1,2.125-2.608h18.385l.005.025.41,1.99,1.309,6.359.338,1.636.788,3.831.573,2.785.126.614,1.166,5.66Z" transform="translate(-2384.592 -1292.576)" fill="#b56635"/><path d="M2420.688,1319.263H2400.51c.04-.7.053-1.443.041-2.219-.007-.463-.023-.939-.048-1.425q-.033-.669-.087-1.364-.06-.768-.142-1.566c-.117-1.125-.268-2.292-.448-3.487-.549-3.67-1.37-7.6-2.315-11.454-.048-.2-.1-.391-.145-.586a9.486,9.486,0,0,0-2.232-4.5c-.032-.03-.063-.059-.1-.087h17.992a3.219,3.219,0,0,1,.4.025,4.048,4.048,0,0,1,3.312,3.507l1.589,9.318.206,1.207.438,2.568.166.97.9,5.3.207,1.215.077.453.341,2Z" transform="translate(-2388.294 -1292.576)" fill="#914822"/><path d="M2434.054,1296.108l1.589,9.318a37.928,37.928,0,0,0-3.111-4.391c-.023-.028-.046-.057-.07-.085a36.173,36.173,0,0,0-9.957-8.374h8.233l.005.025A4.049,4.049,0,0,1,2434.054,1296.108Z" transform="translate(-2405.607 -1292.576)" fill="#ab5b30"/><g transform="translate(10.496 4.147)"><path d="M2410.742,1303.8l-.07,2.1.07,2.1.07-2.1Z" transform="translate(-2408.645 -1303.796)" fill="#48261a"/><path d="M2409.382,1309.351l-2.1.07-2.1-.07,2.1-.07Z" transform="translate(-2405.188 -1307.254)" fill="#48261a"/><path d="M2410.723,1309.137a.2.2,0,1,1-.2-.2A.2.2,0,0,1,2410.723,1309.137Z" transform="translate(-2408.431 -1307.039)" fill="#3b1a11"/><g transform="translate(6.128)"><path d="M2427.32,1303.8l-.07,2.1.07,2.1.07-2.1Z" transform="translate(-2425.222 -1303.796)" fill="#48261a"/><path d="M2425.96,1309.351l-2.1.07-2.1-.07,2.1-.07Z" transform="translate(-2421.765 -1307.254)" fill="#48261a"/><path d="M2427.3,1309.137a.2.2,0,1,1-.2-.2A.2.2,0,0,1,2427.3,1309.137Z" transform="translate(-2425.008 -1307.039)" fill="#3b1a11"/></g><g transform="translate(12.255)"><path d="M2443.9,1303.8l-.07,2.1.07,2.1.07-2.1Z" transform="translate(-2441.8 -1303.796)" fill="#48261a"/><path d="M2442.537,1309.351l-2.1.07-2.1-.07,2.1-.07Z" transform="translate(-2438.343 -1307.254)" fill="#48261a"/><path d="M2443.879,1309.137a.2.2,0,1,1-.2-.2A.2.2,0,0,1,2443.879,1309.137Z" transform="translate(-2441.586 -1307.039)" fill="#3b1a11"/></g><g transform="translate(1.854 5.683)"><path d="M2415.758,1319.17l-.07,2.1.07,2.1.07-2.1Z" transform="translate(-2413.66 -1319.17)" fill="#48261a"/><path d="M2414.4,1324.724l-2.1.07-2.1-.07,2.1-.07Z" transform="translate(-2410.204 -1322.627)" fill="#48261a"/><path d="M2415.739,1324.51a.2.2,0,1,1-.2-.2A.2.2,0,0,1,2415.739,1324.51Z" transform="translate(-2413.447 -1322.413)" fill="#3b1a11"/><g transform="translate(6.128)"><path d="M2432.335,1319.17l-.07,2.1.07,2.1.07-2.1Z" transform="translate(-2430.238 -1319.17)" fill="#48261a"/><path d="M2430.976,1324.724l-2.1.07-2.1-.07,2.1-.07Z" transform="translate(-2426.781 -1322.627)" fill="#48261a"/><path d="M2432.316,1324.51a.2.2,0,1,1-.2-.2A.2.2,0,0,1,2432.316,1324.51Z" transform="translate(-2430.024 -1322.413)" fill="#3b1a11"/></g><g transform="translate(12.255)"><path d="M2448.913,1319.17l-.07,2.1.07,2.1.07-2.1Z" transform="translate(-2446.816 -1319.17)" fill="#48261a"/><path d="M2447.553,1324.724l-2.1.07-2.1-.07,2.1-.07Z" transform="translate(-2443.358 -1322.627)" fill="#48261a"/><path d="M2448.894,1324.51a.2.2,0,1,1-.2-.2A.2.2,0,0,1,2448.894,1324.51Z" transform="translate(-2446.602 -1322.413)" fill="#3b1a11"/></g></g><g transform="translate(3.869 11.365)"><path d="M2421.21,1334.544l-.07,2.1.07,2.1.071-2.1Z" transform="translate(-2419.113 -1334.544)" fill="#48261a"/><path d="M2419.85,1340.1l-2.1.07-2.1-.07,2.1-.07Z" transform="translate(-2415.656 -1338.001)" fill="#48261a"/><path d="M2421.192,1339.884a.2.2,0,1,1-.2-.2A.2.2,0,0,1,2421.192,1339.884Z" transform="translate(-2418.899 -1337.786)" fill="#3b1a11"/><g transform="translate(6.128)"><path d="M2437.788,1334.544l-.07,2.1.07,2.1.07-2.1Z" transform="translate(-2435.691 -1334.544)" fill="#48261a"/><path d="M2436.427,1340.1l-2.1.07-2.1-.07,2.1-.07Z" transform="translate(-2432.233 -1338.001)" fill="#48261a"/><path d="M2437.769,1339.884a.2.2,0,1,1-.2-.2A.2.2,0,0,1,2437.769,1339.884Z" transform="translate(-2435.476 -1337.786)" fill="#3b1a11"/></g><g transform="translate(12.255)"><path d="M2454.365,1334.544l-.07,2.1.07,2.1.07-2.1Z" transform="translate(-2452.268 -1334.544)" fill="#48261a"/><path d="M2453.005,1340.1l-2.1.07-2.1-.07,2.1-.07Z" transform="translate(-2448.811 -1338.001)" fill="#48261a"/><path d="M2454.347,1339.884a.2.2,0,1,1-.2-.2A.2.2,0,0,1,2454.347,1339.884Z" transform="translate(-2452.054 -1337.786)" fill="#3b1a11"/></g></g></g><g transform="translate(19.706 12.137)"><path d="M2445.21,1327.818a.97.97,0,0,1-.023.129q-.112.425-.215.856s0,.006,0,.009a.02.02,0,0,0,0,.008q-.129.537-.244,1.081-.139.659-.259,1.328c-.152.852-.28,1.71-.382,2.57q-.141,1.192-.216,2.376c0,.013,0,.024,0,.036v.019q-.041.673-.06,1.339a.921.921,0,0,1-.018.153v0a.607.607,0,0,1-.086.211.454.454,0,0,1-.1.1.535.535,0,0,1-.552.038c-.206-.081-.413-.16-.618-.237q-1.244-.46-2.474-.791-.765-.205-1.531-.361l-.093-.019q-1.161-.232-2.338-.354a26.354,26.354,0,0,0-3.659-.116q-.8.029-1.624.1a.708.708,0,0,1-.192,0,.471.471,0,0,1-.324-.183.6.6,0,0,1-.063-.516c.021-.08.042-.162.063-.243a43.5,43.5,0,0,0,1.321-9.379.509.509,0,0,1,.753-.511,26.838,26.838,0,0,0,5.975,1.626l.133.019q1.121.159,2.261.216c.17.009.341.016.511.02a28.51,28.51,0,0,0,3.457-.109.586.586,0,0,1,.453.118.449.449,0,0,1,.088.109A.563.563,0,0,1,2445.21,1327.818Z" transform="translate(-2430.105 -1325.413)" fill="#149bb3"/><g transform="translate(13.282 2.058)"><path d="M2467.862,1331.327c-.083.326-.163.654-.238.985,0,0,0,.006,0,.009a.023.023,0,0,0,0,.008q-.124.537-.236,1.081-.136.661-.254,1.33c-.152.86-.28,1.728-.385,2.6q-.144,1.176-.226,2.348l0,.036v.019q-.052.75-.079,1.492v0a.6.6,0,0,1-.086.211.454.454,0,0,1-.1.1c-.021-.127-.041-.252-.058-.378-.072-.5-.117-1-.138-1.489a18.027,18.027,0,0,1,.213-3.608c.075-.479.168-.943.27-1.387s.217-.876.338-1.278a16.852,16.852,0,0,1,.924-2.43Z" transform="translate(-2466.039 -1330.98)" fill="#127f8a"/></g><g transform="translate(1.378 3.601)"><path d="M2449.717,1344.35a.34.34,0,0,1-.154.308.531.531,0,0,1-.444.028q-.68-.207-1.354-.394a52.69,52.69,0,0,0-13.446-1.958c-.353,0-.56-.227-.461-.505a16.4,16.4,0,0,0,1.026-6.3c-.006-.3.26-.442.6-.337a52.689,52.689,0,0,0,13.547,2.315q.622.026,1.252.038a.694.694,0,0,1,.233.041.346.346,0,0,1,.228.464A16.393,16.393,0,0,0,2449.717,1344.35Z" transform="translate(-2433.833 -1335.155)" fill="#e7b178"/><path d="M2475.977,1348.743v0c0,.2-.151.413-.249.222-.537-1.05-.153-5.159,1.081-6.749.117-.151.207-.12.217.064a.392.392,0,0,1-.024.155A16.4,16.4,0,0,0,2475.977,1348.743Z" transform="translate(-2460.094 -1339.548)" fill="#be8e5c"/></g></g><path d="M2.631,0H16.324a2.631,2.631,0,0,1,2.631,2.631v0a1.9,1.9,0,0,1-1.9,1.9H1.732A1.732,1.732,0,0,1,0,2.795V2.631A2.631,2.631,0,0,1,2.631,0Z" transform="translate(38.436 27.425) rotate(180)" fill="#48261a"/><path d="M2392.038,1353.773h11.136l-2.2-16.219h-11.4v13.759A2.46,2.46,0,0,0,2392.038,1353.773Z" transform="translate(-2384.852 -1320.929)" fill="#5e2e1d"/><path d="M2401.535,1358.77l1.639,8.377h-11.136a2.46,2.46,0,0,1-2.46-2.46v-5.917Z" transform="translate(-2384.852 -1334.303)" fill="#b56635"/><rect width="2.495" height="7.279" transform="translate(39.935 40.123) rotate(180)" fill="#4b2117"/><rect width="2.495" height="7.279" transform="translate(29.847 40.123) rotate(180)" fill="#4b2117"/><ellipse cx="3.921" cy="3.921" rx="3.921" ry="3.921" transform="matrix(0.772, -0.635, 0.635, 0.772, 36.521, 20.008)" fill="#945029"/><ellipse cx="3.921" cy="3.921" rx="3.921" ry="3.921" transform="translate(10.353 21.027) rotate(-49.977)" fill="#945029"/><ellipse cx="3.921" cy="3.921" rx="3.921" ry="3.921" transform="matrix(0.973, -0.233, 0.233, 0.973, 0, 17.646)" fill="#5e2e1d"/><path d="M2423.52,1348.875v5.479a.859.859,0,0,0,.859.859h16.7a.767.767,0,0,0,.767-.767v-5.571h4.007v9.507a2.527,2.527,0,0,1-2.527,2.527h-21.28a2.527,2.527,0,0,1-2.527-2.527v-9.507Z" transform="translate(-2403.723 -1328.065)" fill="#945029"/><rect width="1.013" height="7.279" transform="translate(37.44 40.123) rotate(180)" fill="#c27447"/><rect width="1.013" height="7.279" transform="translate(27.33 40.123) rotate(180)" fill="#c27447"/><rect width="2.495" height="7.279" transform="translate(21.693 40.123) rotate(180)" fill="#4b2117"/><rect width="2.495" height="7.279" transform="translate(11.605 40.123) rotate(180)" fill="#4b2117"/><rect width="1.013" height="7.279" transform="translate(19.198 40.123) rotate(180)" fill="#c27447"/><rect width="1.013" height="7.279" transform="translate(9.11 40.123) rotate(180)" fill="#c27447"/></g><g transform="translate(109.107 61.907)"><path d="M2649.169,1329.244H2643.9c.091.587.146.94.149.965a4.507,4.507,0,0,0,.364,1.679h7.034a2.6,2.6,0,0,1,1.808.946,3.824,3.824,0,0,0,2.891,1.283,4.1,4.1,0,0,0,0-1.573c-.042-.366-.136-.885-.276-1.53h-2.828A6.541,6.541,0,0,0,2649.169,1329.244Z" transform="translate(-2643.902 -1329.244)" fill="#1a1a1a"/></g><g transform="translate(108.708 59.306)"><path d="M2642.824,1322.205c.118.765.221,1.44.306,1.993a5.176,5.176,0,0,1,1.5,3.253h1.357A6.235,6.235,0,0,0,2642.824,1322.205Z" transform="translate(-2642.824 -1322.205)"/></g><g transform="translate(106.435 34.693)"><path d="M2637.058,1307.325h17.273c.021,0,.042.006.064.007l0-14.861a18.776,18.776,0,0,0-.137-4.442c-.247-1.972-6.631-25.871-7.359-28.506a5.724,5.724,0,0,0-4.82-3.9h-5.411v3.861h7.04c1.847,0,2.526,2.448,2.749,3.252.278,1,3.151,12,5,19.123a38.879,38.879,0,0,1,.912,4.185c.185,1.571-.015,2.025-.211,2.245a.628.628,0,0,1-.475.217,4.622,4.622,0,0,1-3.539-1.5c-.493-.464-.793-.726-1.26-.726h-7.1c-.766,0-1.015-1.3-1.089-2.389-.014-.095-1.119-7.271-2.03-13.253v14.606c.239,1.774.387,2.871.387,2.871Z" transform="translate(-2636.671 -1255.619)" fill="#999"/></g><g transform="translate(117.563 90.374)"><path d="M2666.78,1406.258c.48,1.066.881,2.242,1.262,3.225a34.967,34.967,0,0,1,1.777,9.383c-.048.777.217,3.3-.72,5.017.923-.011,1.89-.019,2.823-.019,3.719,0,4.441-17.607,4.441-17.607Z" transform="translate(-2666.78 -1406.258)" fill="#1a1a1a"/></g><path d="M2636.378,1396.088a6.657,6.657,0,0,1,2.85.532,5.415,5.415,0,0,1,2.218,2.859h9.582s-1.142-3.975-3.052-3.975h-20.7a.645.645,0,0,0-.686.587C2630.126,1396.085,2633.843,1396.083,2636.378,1396.088Z" transform="translate(-2523.883 -1309.104)" fill="#262626"/><path d="M2681.8,1363.643h.829v3.587h-1.175v-2.6S2681.477,1363.643,2681.8,1363.643Z" transform="translate(-2558.465 -1289.021)" fill="#e85400"/><rect width="1.175" height="8.186" transform="translate(122.986 78.212)" fill="#c9c9c9"/><path d="M2636.154,1335.754v7.776h-.2a.453.453,0,0,1,.452.452v.7a.452.452,0,0,1-.452.453l-.106,0v12.715h.69v-19.224S2636.393,1337.528,2636.154,1335.754Z" transform="translate(-2529.721 -1271.441)" fill="#d4d5d5"/><path d="M2655.654,1423.624c0,7.122-1.935,12.9-4.323,12.9s-4.325-5.774-4.325-12.9,1.936-12.9,4.325-12.9S2655.654,1416.5,2655.654,1423.624Z" transform="translate(-2536.752 -1318.701)" fill="#474645"/><path d="M2505.209,1413.078a34.954,34.954,0,0,0-1.777-9.383c-.849-2.19-1.8-5.346-3.479-6.084a6.656,6.656,0,0,0-2.851-.532c-1.72,0-3.984,0-6.364,0v.831h.147a.453.453,0,0,1,.454.453v.844a.453.453,0,0,1-.454.451H2464.83a.477.477,0,0,0,.135-.027h-59.316V1411h2.489a36.548,36.548,0,0,0-.216,4.016c0,7.122,1.936,12.9,4.324,12.9,2.3,0,4.182-5.366,4.315-12.131H2437.3c.132,6.765,2.014,12.131,4.316,12.131,2.133,0,3.906-4.611,4.257-10.67h13.955c.354,6.059,2.124,10.67,4.256,10.67h5.712a1.512,1.512,0,0,1-.365-.049c-.014-.005-.03-.007-.046-.012a2.012,2.012,0,0,1-.339-.135c-.02-.012-.039-.021-.058-.032a2.368,2.368,0,0,1-.325-.224c-.018-.014-.034-.028-.051-.042a3.419,3.419,0,0,1-.325-.314l-.024-.029a4.97,4.97,0,0,1-.326-.412l0-.006c-.106-.152-.21-.318-.311-.494-.008-.016-.019-.032-.027-.049-.1-.174-.2-.359-.287-.553-.011-.022-.021-.043-.03-.066-.094-.2-.185-.41-.272-.63l-.018-.043a18.17,18.17,0,0,1-.734-2.407l0-.023c-.07-.295-.135-.6-.2-.916,0-.007,0-.015-.006-.025a31.938,31.938,0,0,1-.51-4.2s0-.005,0-.008c-.042-.723-.066-1.466-.066-2.225,0-7.121,1.937-12.9,4.324-12.9s4.324,5.775,4.324,12.9c0,1.069-.045,2.106-.126,3.1a.132.132,0,0,1,0,.016h15.29c.467,5.616,2.168,9.78,4.2,9.78h5.711a1.5,1.5,0,0,1-.342-.043.5.5,0,0,1-.056-.014,1.646,1.646,0,0,1-.32-.125.558.558,0,0,1-.06-.028,2.329,2.329,0,0,1-.317-.208.2.2,0,0,1-.024-.019,3.41,3.41,0,0,1-.3-.276c-.013-.014-.027-.026-.041-.041a4.154,4.154,0,0,1-.292-.353c-.018-.022-.034-.045-.05-.067-.1-.133-.193-.273-.285-.426-.01-.016-.018-.032-.029-.047-.094-.158-.184-.324-.274-.5,0-.007-.008-.016-.011-.022-.09-.181-.179-.373-.264-.573-.012-.026-.022-.053-.033-.078-.083-.2-.165-.409-.244-.627a.545.545,0,0,1-.021-.062c-.164-.458-.315-.952-.452-1.48-.005-.019-.011-.037-.015-.056-.068-.263-.133-.535-.193-.812,0-.02-.009-.039-.013-.06-.125-.578-.236-1.187-.328-1.825l0-.008c-.047-.316-.088-.638-.126-.967,0-.02,0-.038-.006-.056a37.132,37.132,0,0,1-.227-4.122c0-7.121,1.936-12.9,4.325-12.9s4.323,5.775,4.323,12.9c0,1.076-.044,2.118-.126,3.116h1.087C2505.43,1416.412,2505.162,1413.86,2505.209,1413.078Z" transform="translate(-2384.607 -1310.096)" fill="#1a1311"/><path d="M2657.794,1431.8c0,4.474-1.1,8.1-2.463,8.1s-2.463-3.628-2.463-8.1,1.1-8.1,2.463-8.1S2657.794,1427.323,2657.794,1431.8Z" transform="translate(-2540.445 -1326.875)" fill="#ebebeb"/><g transform="translate(17.605 92.026)"><path d="M2408.367,1411.252a1.768,1.768,0,0,1,1.449.759,2.447,2.447,0,0,1,1.881-1.284h-3.976c-.068.154-.134.309-.2.471h-2.69c-.02.015-.037.037-.056.054Z" transform="translate(-2401.663 -1410.728)" fill="#302d2c"/><path d="M2402.063,1439.385c0-1.269.063-2.5.177-3.653h-5.706c-.115,1.16-.18,2.383-.18,3.653,0,7.122,1.935,12.9,4.324,12.9h5.709C2404,1452.281,2402.063,1446.507,2402.063,1439.385Z" transform="translate(-2396.355 -1426.49)" fill="#302d2c"/></g><path d="M2576.135,1423.624c0,7.122-1.936,12.9-4.324,12.9s-4.324-5.774-4.324-12.9,1.937-12.9,4.324-12.9S2576.135,1416.5,2576.135,1423.624Z" transform="translate(-2486.625 -1318.701)" fill="#474645"/><path d="M2578.276,1431.8c0,4.474-1.1,8.1-2.463,8.1s-2.463-3.628-2.463-8.1,1.1-8.1,2.463-8.1S2578.276,1427.323,2578.276,1431.8Z" transform="translate(-2490.32 -1326.875)" fill="#ebebeb"/><g transform="translate(79.281 89.554)"><path d="M2570.58,1404.04h-7.369c1.022,0,1.843,1.061,2.479,2.472h3.426c1.766,0,3.284,3.16,3.954,7.685h.979s.53.017.53-.8C2574.579,1411.973,2573.137,1404.04,2570.58,1404.04Z" transform="translate(-2563.211 -1404.04)" fill="#302d2c"/></g><g transform="translate(21.761 89.554)"><path d="M2414.963,1404.04H2407.6c1.021,0,1.841,1.061,2.475,2.472h3.4c1.766,0,3.284,3.16,3.955,7.685h1s.529.017.529-.8C2418.961,1411.973,2417.52,1404.04,2414.963,1404.04Z" transform="translate(-2407.595 -1404.04)" fill="#302d2c"/></g><path d="M2576.135,1423.624c0,7.122-1.936,12.9-4.324,12.9s-4.324-5.774-4.324-12.9,1.937-12.9,4.324-12.9S2576.135,1416.5,2576.135,1423.624Z" transform="translate(-2486.625 -1318.701)" fill="#474645"/><path d="M2578.276,1431.8c0,4.474-1.1,8.1-2.463,8.1s-2.463-3.628-2.463-8.1,1.1-8.1,2.463-8.1S2578.276,1427.323,2578.276,1431.8Z" transform="translate(-2490.32 -1326.875)" fill="#ebebeb"/><path d="M2659.01,1441.468c0,1.343-.331,2.431-.739,2.431s-.738-1.088-.738-2.431.331-2.432.738-2.432S2659.01,1440.125,2659.01,1441.468Z" transform="translate(-2543.389 -1336.546)" fill="#474645"/><path d="M2579.49,1441.468c0,1.343-.331,2.431-.738,2.431s-.74-1.088-.74-2.431.331-2.432.74-2.432S2579.49,1440.125,2579.49,1441.468Z" transform="translate(-2493.262 -1336.546)" fill="#474645"/><path d="M2655.717,1440.854c-1.454,0-2.238-3.476-2.238-6.747s.784-6.748,2.238-6.748,2.237,3.478,2.237,6.748S2657.17,1440.854,2655.717,1440.854Zm0-12.963c-.806,0-1.705,2.658-1.705,6.216s.9,6.216,1.705,6.216,1.706-2.659,1.706-6.216S2656.521,1427.891,2655.717,1427.891Z" transform="translate(-2540.832 -1329.186)" fill="#1a1311"/><path d="M2576.2,1440.854c-1.454,0-2.238-3.476-2.238-6.747s.783-6.748,2.238-6.748,2.236,3.478,2.236,6.748S2577.651,1440.854,2576.2,1440.854Zm0-12.963c-.714,0-1.708,2.365-1.708,6.216s.994,6.216,1.708,6.216,1.7-2.365,1.7-6.216S2576.91,1427.891,2576.2,1427.891Z" transform="translate(-2490.707 -1329.186)" fill="#1a1311"/><path d="M2645.162,1354.241a.451.451,0,0,0,.45.451h2.11a.451.451,0,0,0,.449-.451v-1.355a.45.45,0,0,0-.449-.451h-2.11a.45.45,0,0,0-.45.451Z" transform="translate(-2535.59 -1281.956)" fill="#262626"/><g transform="translate(73.738 89.554)"><g transform="translate(0 2.943)"><path d="M2548.236,1412c-.007.017-.013.037-.021.054h.385a1.772,1.772,0,0,1,1.769,1.771V1419a1.606,1.606,0,0,1-.021.213h2.843a.8.8,0,0,0,.836-.8,23.271,23.271,0,0,1,1.437-6.412Z" transform="translate(-2548.215 -1412.001)" fill="#b3b3b3"/></g><path d="M2558.174,1404.04h-7.368c-1.035,0-1.887,1.3-2.535,2.943h7.227C2556.155,1405.34,2557.042,1404.04,2558.174,1404.04Z" transform="translate(-2548.25 -1404.04)" fill="#5f5e5e"/></g><g transform="translate(16.236 89.554)"><path d="M2402.555,1404.04h-7.369c-1.034,0-1.887,1.3-2.535,2.943h7.228C2400.535,1405.34,2401.422,1404.04,2402.555,1404.04Z" transform="translate(-2392.651 -1404.04)" fill="#5f5e5e"/></g><g transform="translate(25.229 92.817)"><path d="M2456.136,1412.866H2416.98a1.766,1.766,0,0,1,.852,1.505v5.176a1.768,1.768,0,0,1-.852,1.506h39.156a1.769,1.769,0,0,1-.852-1.506v-5.176A1.767,1.767,0,0,1,2456.136,1412.866Z" transform="translate(-2416.98 -1412.866)" fill="#474645"/></g><path d="M2460.161,1421.369a.451.451,0,0,1-.452.452h-23.9a.451.451,0,0,1-.45-.452v-5.76a.452.452,0,0,1,.45-.453h23.9a.453.453,0,0,1,.452.453Z" transform="translate(-2403.336 -1321.494)" fill="#d9d9d9"/><path d="M2566.1,1357.938a.453.453,0,0,1-.453.453H2591.7a.452.452,0,0,0,.452-.453v-.7a.453.453,0,0,0-.452-.452h-26.055a.454.454,0,0,1,.453.452Z" transform="translate(-2485.467 -1284.702)" fill="#b2b2b3"/><path d="M2566.209,1400.623a.453.453,0,0,1-.453.451h26.056a.452.452,0,0,0,.453-.451v-.843a.453.453,0,0,0-.453-.453h-26.056a.454.454,0,0,1,.453.453Z" transform="translate(-2485.535 -1311.515)" fill="#8e8e8f"/><rect width="26.172" height="14.126" transform="translate(79.959 73.693)" fill="#a6a7a7"/><rect width="10.076" height="9.56" transform="translate(93.746 94.001)" fill="#bdbebf"/><rect width="26.172" height="1.92" transform="translate(79.959 73.693)" fill="#8e8e8f"/><path d="M2374.638,1400.623a.452.452,0,0,0,.452.451h70.191a.452.452,0,0,0,.451-.451v-.843a.452.452,0,0,0-.451-.453H2375.09a.452.452,0,0,0-.452.453Z" transform="translate(-2365.059 -1311.515)" fill="#bdbebf"/><path d="M2374.987,1357.938a.443.443,0,0,0,.435.453h70.056a.443.443,0,0,0,.434-.453v-.7a.444.444,0,0,0-.434-.452h-70.056a.444.444,0,0,0-.435.452Z" transform="translate(-2365.279 -1284.702)" fill="#e0e0e0"/><rect width="69.479" height="14.126" transform="translate(10.479 73.693)" fill="#e0e0e0"/><rect width="69.479" height="1.92" transform="translate(10.479 73.693)" fill="#bdbebf"/><path d="M2651.586,1294.081a35.8,35.8,0,0,0-.892-4.077c-1.852-7.117-4.724-18.113-5-19.109-.5-1.8-1.146-2.669-1.98-2.669h-7.04v5.028c.855,5.714,2.8,18.338,2.822,18.492a4.491,4.491,0,0,0,.364,1.68h7.034a2.6,2.6,0,0,1,1.808.946,3.824,3.824,0,0,0,2.891,1.284A4.077,4.077,0,0,0,2651.586,1294.081Z" transform="translate(-2530.236 -1228.873)" fill="#fff" opacity="0.2"/><path d="M2652.377,1292.626a38.883,38.883,0,0,0-.912-4.185c-1.854-7.119-4.727-18.122-5-19.123-.223-.8-.9-3.252-2.749-3.252h-7.04v.8h7.04c.834,0,1.482.872,1.98,2.669.278,1,3.15,11.992,5,19.109a35.8,35.8,0,0,1,.892,4.077,4.078,4.078,0,0,1,0,1.573,3.826,3.826,0,0,1-2.891-1.284,2.6,2.6,0,0,0-1.808-.946h-7.034a4.49,4.49,0,0,1-.364-1.68c-.023-.154-1.967-12.778-2.822-18.492v5.327c.912,5.982,2.016,13.158,2.03,13.253.074,1.091.323,2.389,1.089,2.389h7.1c.467,0,.767.262,1.26.726a4.622,4.622,0,0,0,3.539,1.5.628.628,0,0,0,.475-.217C2652.362,1294.652,2652.562,1294.2,2652.377,1292.626Z" transform="translate(-2530.236 -1227.512)" fill="#1a1311"/><g transform="translate(13.729 92.551)"><path d="M2405.623,1414.825a1.242,1.242,0,0,0-1.241-1.239h-5.928v7.655h5.928a1.242,1.242,0,0,0,1.241-1.24Z" transform="translate(-2393.802 -1413.054)" fill="#e12f15"/><g transform="translate(0 0)"><path d="M2387.306,1420.065a1.232,1.232,0,0,0,1.233,1.176h2.357v-7.655h-2.357a1.235,1.235,0,0,0-1.234,1.187Z" transform="translate(-2386.774 -1413.054)" fill="#f38200"/><path d="M2396.449,1412.147h-8.815a1.767,1.767,0,0,0-1.765,1.708v5.314a1.765,1.765,0,0,0,1.765,1.7h8.815a1.774,1.774,0,0,0,1.772-1.771v-5.176A1.773,1.773,0,0,0,2396.449,1412.147Zm-6.458,8.187h-2.357a1.232,1.232,0,0,1-1.233-1.176v-5.293a1.234,1.234,0,0,1,1.234-1.186h2.357Zm7.7-1.24a1.243,1.243,0,0,1-1.241,1.24h-5.927v-7.655h5.927a1.242,1.242,0,0,1,1.241,1.239Z" transform="translate(-2385.869 -1412.147)"/></g></g><g transform="translate(63.534 92.551)"><path d="M2522.047,1420a1.243,1.243,0,0,0,1.242,1.24h5.944v-7.655h-5.944a1.243,1.243,0,0,0-1.242,1.239Z" transform="translate(-2521.515 -1413.054)" fill="#e12f15"/><g transform="translate(0 0)"><path d="M2546.5,1414.825a1.241,1.241,0,0,0-1.239-1.239h-2.34v7.655h2.34a1.242,1.242,0,0,0,1.239-1.24Z" transform="translate(-2534.676 -1413.054)" fill="#f38200"/><path d="M2531.2,1412.147h-8.815a1.774,1.774,0,0,0-1.773,1.771v5.176a1.774,1.774,0,0,0,1.773,1.771h8.815a1.772,1.772,0,0,0,1.77-1.771v-5.176A1.772,1.772,0,0,0,2531.2,1412.147Zm-2.871,8.187h-5.944a1.243,1.243,0,0,1-1.242-1.24v-5.176a1.243,1.243,0,0,1,1.242-1.239h5.944Zm4.11-1.24a1.242,1.242,0,0,1-1.239,1.24h-2.34v-7.655h2.34a1.242,1.242,0,0,1,1.239,1.239Z" transform="translate(-2520.609 -1412.147)"/></g></g><path d="M2680.977,1324.671a1.807,1.807,0,0,0,1.808,1.806h4a1.806,1.806,0,0,0,1.805-1.806v-7.009a1.806,1.806,0,0,0-1.805-1.807h-4a1.807,1.807,0,0,0-1.808,1.807Z" transform="translate(-2558.166 -1258.897)"/><path d="M2.467,0h0A2.468,2.468,0,0,1,4.936,2.468V6.649A2.468,2.468,0,0,1,2.467,9.117h0A2.467,2.467,0,0,1,0,6.65V2.467A2.467,2.467,0,0,1,2.467,0Z" transform="translate(124.068 57.71)" fill="#ebebeb"/></g></g></svg>