<svg xmlns="http://www.w3.org/2000/svg" xmlns:xlink="http://www.w3.org/1999/xlink" width="140" height="140" viewBox="0 0 140 140"><defs><clipPath id="a"><circle cx="70" cy="70" r="70" transform="translate(0 0.477)" fill="#f7f3e5"/></clipPath></defs><g transform="translate(0 -0.477)"><circle cx="70" cy="70" r="70" transform="translate(0 0.477)" fill="#f7f3e5"/><g clip-path="url(#a)"><g transform="translate(719.464 -353.146)"><path d="M-690.092,621.807c0,.441,32.09.8,71.672.8s96.826-.357,96.826-.8-57.243-.8-96.826-.8S-690.092,621.367-690.092,621.807Z" transform="translate(-11.922 -154.781)" fill="#8e8e8f"/><path d="M-638.587,470.876c.021-4.6-.234-11.862-.537-15.105-.108-1.135-.339-1.637-1.851-1.637h-17.419a2.622,2.622,0,0,0-2.472,1.7c-.185.71-6.4,19.739-6.512,20.084-.733,2.219.221,2.573.871,2.544s6.08-.419,6.844-.583a3.256,3.256,0,0,0,1.729-1.057c.2-.319,3-3.336,3.363-3.831.461-.619,1.894-.692,2.909-.692h11.584A1.636,1.636,0,0,0-638.587,470.876Z" transform="translate(-26.305 -47.867)" fill="#fff" opacity="0.2"/><path d="M-652.172,462.828c.029-5.316-.851-20.807-.882-22.106s-1.437-3.493-4.671-3.493h-19.153s-3.523-.391-7.309,3.486h.055a1.517,1.517,0,0,1,1.282.463,1.87,1.87,0,0,1,.048,1.623l-.023.088c-.094.359-1.452,4.173-3.024,8.588-1.791,5.03-3.821,10.732-3.973,11.314a1.946,1.946,0,0,1-.081.24c-.01.024-.023.047-.034.071-.024.054-.05.109-.079.161-.014.026-.031.051-.047.076-.031.05-.062.1-.1.148-.017.024-.036.047-.055.07-.038.049-.077.1-.12.144l-.057.06q-.071.074-.148.144l-.054.047c-.057.05-.118.1-.18.146l-.045.033c-.07.051-.144.1-.22.147l-.028.018a4.528,4.528,0,0,1-1.413.549h0a5.045,5.045,0,0,1-.5.08l-.06.006c-.168.017-.337.027-.509.027h-.9a.232.232,0,0,1-.081-.017.243.243,0,0,1-.051-.023,12.4,12.4,0,0,0-2.749,7.749v13.144h2.831s1.681,2.582,1.681,3.258a8.691,8.691,0,0,1-.438,2.679h12.806l3.3-8.872a3.818,3.818,0,0,1,3.766-2.185h21.241l0-16.079S-652.172,462.9-652.172,462.828Zm-5.435-2.789a1.636,1.636,0,0,1-1.493,1.421h-11.584c-1.015,0-2.448.072-2.909.692-.367.495-3.16,3.512-3.363,3.831a3.257,3.257,0,0,1-1.729,1.057c-.764.164-6.193.554-6.844.583s-1.6-.325-.871-2.544c.115-.345,6.327-19.374,6.512-20.084a2.621,2.621,0,0,1,2.472-1.7H-660c1.513,0,1.743.5,1.851,1.637C-657.841,448.176-657.587,455.435-657.607,460.038Z" transform="translate(-7.284 -37.029)" fill="#302d2c"/><path d="M-589.056,469.033h-.659c-.508,0-.944.665-.972,1.485l-.447,4.037c-.028.821.361,1.486.87,1.486h1.273a.95.95,0,0,0,.782-.647c-.04-1.954-.1-3.986-.183-5.87A.791.791,0,0,0-589.056,469.033Z" transform="translate(-75.321 -57.413)" fill="#1a1a1a"/><path d="M-663.1,460.536c0,.473-.226.618-.342.618h-1.4c-.227,0-.448-.121-.445-.618l.124-1.994c0-.522.241-.62.466-.62h1.4c.168,0,.322.049.322.62Z" transform="translate(-27.819 -50.294)" fill="#1a1a1a"/><path d="M-589.811,490.679a1.032,1.032,0,0,0-.478-.132h-1.718a1.56,1.56,0,0,0-1.462,1.222l-.183,1.846c.021.138.041.276.058.428-.022.289-.047.714-.083,1.23h2.5a1.553,1.553,0,0,0,1.382-1.3C-589.787,492.96-589.794,491.845-589.811,490.679Z" transform="translate(-73.694 -71.196)" fill="#1a1a1a"/><g transform="translate(-691.35 420.827)"><path d="M-655.083,521.692h0l.135-.011Z" transform="translate(656.998 -511.971)" fill="#1a1311"/><g transform="translate(0)"><path d="M-652.963,500.457l.272-.127-6.843-5.553a.539.539,0,0,0-.759.079.539.539,0,0,0,.08.758l6.716,5.449A1.01,1.01,0,0,1-652.963,500.457Z" transform="translate(660.413 -494.656)" fill="#1a1311"/><path d="M-652.461,521.481h0C-652.49,521.484-652.493,521.484-652.461,521.481Z" transform="translate(655.333 -511.842)" fill="#1a1311"/><path d="M-653.789,504.792c-.005.006-.8.712-.8.718l-2,1.859,1.5,3.42c.2-.019,1.618-.154,1.888-.212a3.37,3.37,0,0,0,1.743-1.05c.117-.184.783-.929,1.866-2.134l.007-.007-1.088-.887,0,.009" transform="translate(657.966 -501.15)" fill="#1a1311"/></g></g><g transform="translate(-700.75 424.226)"><path d="M-670.684,510.473a.862.862,0,0,0,.723.311h.066c.556-.024,3.584-.24,5.655-.427l-2.212-5.043a1.574,1.574,0,0,0-1.572-1.2h-1.193c-.8,2.443-1.354,4.149-1.373,4.207C-671.017,509.615-670.877,510.205-670.684,510.473Z" transform="translate(676.512 -504.115)" fill="#1a1a1a"/><g transform="translate(0 0)"><path d="M-683.452,505.516c.042-.159.208-.659.464-1.4h-.317a2.518,2.518,0,0,0-2.03,1.2l-1.239,1.966C-685.068,507.251-683.706,506.488-683.452,505.516Z" transform="translate(686.574 -504.115)" fill="#1a1a1a"/></g></g><g transform="translate(-658.361 381.065)"><rect width="0.265" height="1.539" transform="translate(0 0)" fill="#f38200"/><rect width="0.646" height="1.539" transform="translate(0.265 0)" fill="#e85400"/></g><rect width="131.131" height="66.429" transform="translate(-657.467 379.421)" fill="#e0e0e0"/><rect width="131.335" height="2.012" transform="translate(-657.467 443.838)" fill="#c9c9ca"/><path d="M-500.189,532.535h-.362V531.7H-630.985V513.42h-1.957c-.014,6.091,0,16.1,0,16.1s-.41,2.094-2.052,2.094h-22.917c.006-.013-.038.088-.038.088l-3.3,8.872h.007s-1.244,2.785-3.94,2.785h-2.18v.023l9.755,2.591a10.083,10.083,0,0,1-.45-2.986A10.083,10.083,0,0,1-647.978,532.9a10.083,10.083,0,0,1,10.084,10.083,10.067,10.067,0,0,1-.6,3.435h5.215v.662h20.7v-3.23h54.449v3.23h6.786a10.047,10.047,0,0,1-.87-4.1A10.083,10.083,0,0,1-542.131,532.9a10.088,10.088,0,0,1,9.632,7.091h2.507l1.283,8.52h1.119l-1.283-8.52h9.725v2.6h12.429c-.18,0,.3-.035.3-.244v-2.157a.3.3,0,0,0-.334-.262h-5.359v-7.814h10.439l.069.423h-.227a.407.407,0,0,0-.407.408v3.185a.407.407,0,0,0,.407.408h1.638a.408.408,0,0,0,.407-.408v-3.185A.408.408,0,0,0-500.189,532.535Z" transform="translate(-26.482 -85.851)" fill="#1a1311"/><path d="M-637.395,558.223a3.856,3.856,0,0,0-3.667,2.094h22.917c1.642,0,2.052-2.094,2.052-2.094Z" transform="translate(-43.334 -114.555)" fill="#302d2c"/><rect width="131.335" height="3.72" transform="translate(-657.467 379.421)" fill="#bdbebf"/><g transform="translate(-703.613 454.721)"><path d="M-689.832,588.986c-.524,1.6-1.422,2.766-2.154,2.785h11.026c2.7,0,3.94-2.785,3.94-2.785Z" transform="translate(692.905 -588.986)" fill="#302d2c"/><path d="M-694.544,596.691v.017h.19A1.264,1.264,0,0,1-694.544,596.691Z" transform="translate(694.544 -593.922)" fill="#302d2c"/></g><path d="M-688.242,471.488c1.538,0,2.946-.775,3.2-1.765.158-.605,2.1-6.072,3.987-11.359,1.5-4.221,2.922-8.207,3.01-8.544l.024-.09c.107-.4.24-.9.046-1.156a1.07,1.07,0,0,0-.855-.253h-.294a.267.267,0,0,1-.182-.073,3.894,3.894,0,0,0-.319.4c-1.133,1.648-8.673,20.7-8.673,20.7l-.755,2.135Z" transform="translate(-12.591 -44.096)" fill="#fff" opacity="0.4"/><g transform="translate(-701.801 400.188)"><path d="M-689.395,514.409a.279.279,0,0,1-.046-.009v0A.216.216,0,0,0-689.395,514.409Z" transform="translate(689.462 -486.667)" fill="#e0e0e0"/><path d="M-647.154,462.828c.03-5.316-.851-20.807-.882-22.106s-1.437-3.493-4.671-3.493H-671.86s-3.523-.391-7.309,3.486h.055a1.517,1.517,0,0,1,1.282.463,1.869,1.869,0,0,1,.048,1.623l-.023.088c-.094.359-1.452,4.173-3.024,8.588-1.791,5.03-3.821,10.732-3.973,11.314-.323,1.236-1.925,2.168-3.726,2.168h-.834l-.134,20.854h.017s1.681,2.582,1.681,3.258a8.691,8.691,0,0,1-.438,2.679h12.806l3.3-8.872a3.818,3.818,0,0,1,3.766-2.185h21.241l0-16.079S-647.154,462.9-647.154,462.828Zm-3.49-3.024a2.075,2.075,0,0,1-1.921,1.841H-665.38c-1.668,0-2.678.221-3,.656-.206.278-1.027,1.192-1.9,2.158-.762.848-1.711,1.9-1.813,2.064a3.821,3.821,0,0,1-2.084,1.287c-.876.189-7,.623-7.632.651l-.09,0a1.377,1.377,0,0,1-1.16-.535,3,3,0,0,1,.019-2.635c.067-.205,6.994-21.419,7.2-22.2a3.155,3.155,0,0,1,3-2.081h19.286c1.805,0,2.185.662,2.316,2.055C-650.905,446.63-650.621,454.608-650.644,459.8Z" transform="translate(689.499 -437.217)" fill="#e0e0e0"/></g><path d="M-694.383,514.356h-.067a.262.262,0,0,1-.132-.039,12.4,12.4,0,0,0-2.749,7.749V535.21h2.814Z" transform="translate(-7.284 -86.425)" fill="#c9c9ca"/><path d="M-670.918,475.226a1.377,1.377,0,0,1-1.16-.535,3,3,0,0,1,.019-2.635c.067-.205,6.994-21.419,7.2-22.2a3.155,3.155,0,0,1,3-2.081h19.286c1.805,0,2.185.662,2.316,2.055.335,3.565.619,11.543.6,16.738a2.075,2.075,0,0,1-1.921,1.841H-654.4c-1.668,0-2.678.221-3,.656-.206.279-1.027,1.192-1.9,2.158-.762.848-1.711,1.9-1.813,2.064a3.821,3.821,0,0,1-2.084,1.287c-.876.189-7,.623-7.632.651Zm9.054-26.913a2.624,2.624,0,0,0-2.475,1.678c-.213.817-7.14,22.029-7.208,22.234-.428,1.294-.287,1.884-.094,2.151a.862.862,0,0,0,.723.311h.066c.8-.036,6.749-.469,7.542-.64a3.372,3.372,0,0,0,1.743-1.05c.117-.184.783-.929,1.866-2.134.822-.914,1.672-1.86,1.864-2.119.576-.774,2.139-.874,3.435-.874h12.815a1.553,1.553,0,0,0,1.382-1.3c.023-5.181-.26-13.134-.593-16.685-.109-1.161-.281-1.566-1.779-1.566Z" transform="translate(-23.28 -43.792)" fill="#1a1311"/><path d="M-701.813,574.163s.574-1.7,1.61-1.7h2.831s1.681,2.582,1.681,3.258c0,2.815-1.506,5.467-2.612,5.467h-.678C-701.439,581.188-701.813,574.163-701.813,574.163Z" transform="translate(-4.412 -123.679)" fill="#333"/><path d="M-600.891,523.174c0,.275.382.5.853.5h3.989c.473,0,.855-.223.855-.5v-1.493c0-.275-.382-.5-.855-.5h-3.989c-.472,0-.853.222-.853.5Z" transform="translate(-69.071 -90.825)"/><path d="M-686.221,524.6h-3.31v4.642h4.006v-3.362S-685.579,524.6-686.221,524.6Z" transform="translate(-12.281 -93.012)" fill="#e85400"/><rect width="4.006" height="10.595" transform="translate(-701.812 436.233)" fill="#fff"/><path d="M-692.849,524.6h.487v4.642h-1.587S-694.023,524.6-692.849,524.6Z" transform="translate(-9.45 -93.012)" fill="#f38200"/><rect width="1.587" height="10.595" transform="translate(-703.399 436.233)" fill="#e6e6e6"/><path d="M-688.892,471.2h-.9a.27.27,0,0,1-.269-.269.27.27,0,0,1,.269-.27h.9c1.538,0,2.946-.775,3.2-1.765.158-.605,2.1-6.072,3.987-11.359,1.5-4.221,2.922-8.207,3.01-8.544l.024-.09c.107-.4.24-.9.046-1.156a1.07,1.07,0,0,0-.855-.253h-.294a.27.27,0,0,1-.269-.27.27.27,0,0,1,.269-.269h.294a1.517,1.517,0,0,1,1.282.463,1.87,1.87,0,0,1,.048,1.623l-.023.088c-.094.359-1.452,4.173-3.024,8.588-1.791,5.03-3.821,10.732-3.973,11.314C-685.489,470.264-687.091,471.2-688.892,471.2Z" transform="translate(-11.94 -43.265)" fill="#1a1311"/><rect width="12.905" height="6.468" transform="translate(-656.896 453.755)" fill="#bdbebf"/><g transform="translate(-684.543 447.052)"><circle cx="10.083" cy="10.083" r="10.083" transform="translate(0 0)" fill="#474645"/><path d="M-618.444,584.337a6.374,6.374,0,0,1-6.374,6.373,6.373,6.373,0,0,1-6.373-6.373,6.373,6.373,0,0,1,6.373-6.374A6.374,6.374,0,0,1-618.444,584.337Z" transform="translate(634.884 -574.254)" fill="#ebebeb"/><path d="M-614.7,592.749a1.655,1.655,0,0,1-1.656,1.655,1.655,1.655,0,0,1-1.655-1.655,1.655,1.655,0,0,1,1.655-1.655A1.655,1.655,0,0,1-614.7,592.749Z" transform="translate(626.441 -582.667)" fill="#1a1311"/><path d="M-622.838,591.57a5.282,5.282,0,0,1-5.277-5.276,5.282,5.282,0,0,1,5.277-5.276,5.282,5.282,0,0,1,5.276,5.276A5.282,5.282,0,0,1-622.838,591.57Zm0-10.193a4.922,4.922,0,0,0-4.917,4.917,4.923,4.923,0,0,0,4.917,4.917,4.922,4.922,0,0,0,4.916-4.917A4.922,4.922,0,0,0-622.838,581.377Z" transform="translate(632.913 -576.211)" fill="#1a1311"/></g><g transform="translate(-578.697 447.052)"><path d="M-326.729,577.724a10.084,10.084,0,0,1-10.084,10.084A10.084,10.084,0,0,1-346.9,577.724a10.083,10.083,0,0,1,10.084-10.083A10.084,10.084,0,0,1-326.729,577.724Z" transform="translate(346.896 -567.641)" fill="#474645"/><path d="M-323.87,584.337a6.374,6.374,0,0,1-6.374,6.373,6.374,6.374,0,0,1-6.373-6.373,6.373,6.373,0,0,1,6.373-6.374A6.374,6.374,0,0,1-323.87,584.337Z" transform="translate(340.31 -574.254)" fill="#ebebeb"/><path d="M-320.129,592.749a1.655,1.655,0,0,1-1.655,1.655,1.655,1.655,0,0,1-1.655-1.655,1.655,1.655,0,0,1,1.655-1.655A1.655,1.655,0,0,1-320.129,592.749Z" transform="translate(331.868 -582.667)" fill="#1a1311"/><path d="M-328.265,591.57a5.282,5.282,0,0,1-5.276-5.276,5.282,5.282,0,0,1,5.276-5.276,5.282,5.282,0,0,1,5.276,5.276A5.282,5.282,0,0,1-328.265,591.57Zm0-10.193a4.922,4.922,0,0,0-4.917,4.917,4.923,4.923,0,0,0,4.917,4.917,4.923,4.923,0,0,0,4.917-4.917A4.922,4.922,0,0,0-328.265,581.377Z" transform="translate(338.34 -576.211)" fill="#1a1311"/></g><path d="M-302.972,564.576h-5.347c2.736,0,6.274,3.6,7.312,6.584.2.583.552.565.552.565h.8c.133,0,.356-.035.324-.565A9.664,9.664,0,0,0-302.972,564.576Z" transform="translate(-256.225 -118.626)" fill="#535252"/><path d="M-351.588,564.576h5.346c-2.736,0-6.275,3.6-7.312,6.584-.2.583-.552.565-.552.565h-.8c-.133,0-.356-.035-.325-.565A9.666,9.666,0,0,1-351.588,564.576Z" transform="translate(-226.461 -118.626)" fill="#535252"/><path d="M-697.886,493.287h-6.906a1.535,1.535,0,0,0,.226-.8V485.66a1.551,1.551,0,0,0-1.55-1.551h-1.033a1.551,1.551,0,0,0-1.551,1.551v6.831a1.551,1.551,0,0,0,1.551,1.551h1.033a1.541,1.541,0,0,0,.645-.144h7.584a.305.305,0,0,0,.305-.305A.305.305,0,0,0-697.886,493.287Z" transform="translate(0 -67.072)" fill="#1a1311"/><path d="M-639.841,450.84c-.109-1.161-.281-1.566-1.779-1.566h-19.286a2.625,2.625,0,0,0-2.475,1.678c-.213.817-7.14,22.029-7.208,22.234-.428,1.294-.287,1.884-.094,2.151a.862.862,0,0,0,.723.311h.066c.8-.036,6.749-.469,7.542-.64a3.37,3.37,0,0,0,1.743-1.05c.117-.184.783-.929,1.866-2.134.822-.914,1.672-1.86,1.864-2.119.576-.774,2.139-.874,3.435-.874h12.815a1.553,1.553,0,0,0,1.382-1.3C-639.224,462.345-639.507,454.392-639.841,450.84Z" transform="translate(-24.237 -44.754)" fill="#fff" opacity="0.2"/><g transform="translate(-651.782 407.989)"><g transform="translate(0 0.346)"><rect width="3.155" height="3.155" transform="translate(15.119 10.972)" fill="#03a58e"/><path d="M201.337,223.164V220.01h2.507l-7.239-4.663-7.239,4.663h2.507v9.464h3.155v-3.155h3.155v-3.155h3.148v3.155h-3.148v3.155h3.155v-3.155h3.148v-3.155Z" transform="translate(-189.366 -215.347)" fill="#03a58e"/></g><rect width="3.105" height="3.105" transform="translate(29.212 3.311) rotate(180)" fill="#03a58e"/><g transform="translate(19.874 0)"><path d="M336.678,216.592l-8.114.234a1.966,1.966,0,0,0,1.1-2.9l.036-.012v0l1.079-.372a.072.072,0,0,0,.044-.092c-.011-.032-.033-.046-.078-.048l-1.272.054-.226-.014a1.969,1.969,0,1,0-1.741,3.419h0v0h0l-.539,5.32-1.32,4.408h0l-.034.115-.175.585h0a.133.133,0,0,0,.127.171H328.5a.15.15,0,0,0,.15-.15v-.572a.15.15,0,0,0-.15-.15h-.315l1.127-3.764,3.444.525v3.926a.185.185,0,0,0,.184.185h2.932a.15.15,0,0,0,.15-.15v-.572a.15.15,0,0,0-.15-.15h-.64v-5.033a.388.388,0,0,0-.33-.384l-5.265-.8.112-1.1,7-.2a.2.2,0,0,0,.19-.2l-.06-2.085A.2.2,0,0,0,336.678,216.592Zm-10.036-1.341a1.384,1.384,0,0,1-.034-.277l.165-.057,2.311-.794a1.374,1.374,0,0,1-.8,2.165,1.374,1.374,0,0,1-1.646-1.037Z" transform="translate(-325.426 -212.977)" fill="#1a1311"/><path d="M450.84,231.848H449.3v-2.128a.208.208,0,0,0-.209-.209h-1.888a.209.209,0,0,0-.209.209v2.128H444.17a.209.209,0,0,0-.209.209v1.888a.209.209,0,0,0,.209.209H447v6.609h-.559a.176.176,0,0,0-.176.176v.46a.176.176,0,0,0,.176.176h2.681a.184.184,0,0,0,.184-.184v-7.237h1.537a.209.209,0,0,0,.208-.209v-1.888A.208.208,0,0,0,450.84,231.848Z" transform="translate(-426.647 -227.097)" fill="#1a1311"/><path d="M531.9,236.383h-1.383v-1.388a.173.173,0,0,0-.173-.173h-1.731a.173.173,0,0,0-.173.173v1.388h-2.273a.173.173,0,0,0-.173.173v1.96a.173.173,0,0,0,.173.173h2.273v3.379a1.945,1.945,0,0,1-1.945,1.945h-.34a.16.16,0,0,0-.16.16v1.756a.16.16,0,0,0,.16.16h.34a4.022,4.022,0,0,0,4.022-4.022v-3.379H531.9a.173.173,0,0,0,.173-.173v-1.96A.173.173,0,0,0,531.9,236.383Z" transform="translate(-496.702 -231.631)" fill="#1a1311"/><path d="M583.755,232.9h1.994a.21.21,0,0,0,.21-.21V230.6h1.867a.117.117,0,0,0,.117-.116v-3.436a.2.2,0,0,0-.195-.195h-.131v-.006H583.3v-1.779a.185.185,0,0,0-.185-.185h-1.833a.185.185,0,0,0-.185.185v1.779h-4.451a.2.2,0,0,0-.195.195v3.373a.185.185,0,0,0,.185.185h1.8v2.085a.21.21,0,0,0,.21.21h2.453v.484H578a.187.187,0,0,0-.187.187v1.341a.187.187,0,0,0,.187.187h3.093v.451h-4.459a.187.187,0,0,0-.187.187v1.341a.187.187,0,0,0,.187.187h11.121a.187.187,0,0,0,.187-.187v-1.341a.187.187,0,0,0-.187-.187H583.3V235.1h3.094a.187.187,0,0,0,.187-.187v-1.341a.187.187,0,0,0-.187-.187H583.3V232.9Zm-5.1-3.764v-.4h7.088v.4Zm1.983,1.905v-.047a.21.21,0,0,1,.21-.21h2.7a.21.21,0,0,1,.21.21v.047a.21.21,0,0,1-.21.21h-2.7A.21.21,0,0,1,580.634,231.041Z" transform="translate(-539.781 -223.147)" fill="#1a1311"/><path d="M503.616,253.094h-.475v-7.413a.173.173,0,0,0-.173-.173h-1.747a.173.173,0,0,0-.173.173v7.926a.224.224,0,0,0,.224.224h2.343a.192.192,0,0,0,.192-.192v-.352A.192.192,0,0,0,503.616,253.094Z" transform="translate(-475.396 -240.756)" fill="#1a1311"/><path d="M448,275.167a1.092,1.092,0,1,0,1.092,1.092A1.092,1.092,0,0,0,448,275.167Z" transform="translate(-429.165 -266.083)" fill="#1a1311"/><path d="M589.158,224.221a1.092,1.092,0,1,0-1.092-1.091A1.092,1.092,0,0,0,589.158,224.221Z" transform="translate(-549.703 -220.714)" fill="#1a1311"/><path d="M629.666,224.221a1.092,1.092,0,1,0-1.092-1.091A1.092,1.092,0,0,0,629.666,224.221Z" transform="translate(-584.294 -220.714)" fill="#1a1311"/><path d="M412.736,230.854l-1.709-.862a.2.2,0,0,0-.262.087l-1.608,3.208-.007,0-.7,1.4a.2.2,0,0,0,.088.263l1.39.693v6.118a.213.213,0,0,0,.213.213h1.88a.213.213,0,0,0,.213-.213V235a.288.288,0,0,0-.16-.258l-.857-.427,1.6-3.2A.2.2,0,0,0,412.736,230.854Z" transform="translate(-396.308 -227.489)" fill="#1a1311"/></g></g></g></g></g></svg>