<svg xmlns="http://www.w3.org/2000/svg" width="140" height="140" viewBox="0 0 140 140"><g transform="translate(0 -0.477)"><circle cx="70" cy="70" r="70" transform="translate(0 0.477)" fill="#f7f3e5"/><g transform="translate(-49.921 -325.716)"><path d="M1822.627,873.939l-50.381,36.608,32.2,13.041,19.1-46.8A2.054,2.054,0,0,0,1822.627,873.939Z" transform="translate(-1657.865 -496.512)" fill="#c2c3c3"/><g transform="translate(114.08 365.31)"><g transform="translate(0 0)"><path d="M1759.614,412.811l18.99-46.4a1.763,1.763,0,0,1,2.294-.967l28.928,11.711a1.767,1.767,0,0,1,.972,2.3l-18.989,46.4Z" transform="translate(-1759.614 -365.31)" fill="#d6d7d8"/><path d="M1991.8,2096.716a1.765,1.765,0,0,0-.966-2.291l-2.338-.946a1.766,1.766,0,0,0-2.29.972h0a1.765,1.765,0,0,0,.969,2.292l2.335.947a1.761,1.761,0,0,0,2.289-.974Z" transform="translate(-1980.684 -2052.186)" fill="#726d7c"/><path d="M2285.638,2215.646a1.77,1.77,0,0,0-.973-2.295l-2.336-.948a1.768,1.768,0,0,0-2.292.974h0a1.768,1.768,0,0,0,.972,2.295l2.331.942a1.766,1.766,0,0,0,2.3-.967Z" transform="translate(-2267.514 -2168.278)" fill="#726d7c"/><path d="M2579.273,2334.625a1.763,1.763,0,0,0-.968-2.291l-2.34-.952a1.77,1.77,0,0,0-2.292.974l0,0a1.769,1.769,0,0,0,.975,2.294l2.336.946a1.766,1.766,0,0,0,2.291-.974Z" transform="translate(-2554.152 -2284.423)" fill="#726d7c"/><path d="M2875.058,2248.015a1.767,1.767,0,0,0-.97-2.292l-2.335-.946a1.765,1.765,0,0,0-2.294.969l-1.983,4.9a1.76,1.76,0,0,0,.967,2.291l2.341.951a1.772,1.772,0,0,0,2.291-.974Z" transform="translate(-2840.956 -2199.879)" fill="#33374b"/><path d="M2075.071,1891.169a1.763,1.763,0,0,0-.968-2.289l-2.332-.942a1.769,1.769,0,0,0-2.3.968h0a1.77,1.77,0,0,0,.972,2.3l2.334.941a1.759,1.759,0,0,0,2.29-.975Z" transform="translate(-2061.969 -1851.539)" fill="#726d7c"/><path d="M2368.828,2010.012a1.767,1.767,0,0,0-.974-2.294l-2.334-.948a1.771,1.771,0,0,0-2.294.975h0a1.767,1.767,0,0,0,.973,2.295l2.331.943a1.767,1.767,0,0,0,2.3-.97Z" transform="translate(-2348.722 -1967.544)" fill="#726d7c"/><path d="M2662.591,2129.066a1.766,1.766,0,0,0-.969-2.289l-2.337-.947a1.768,1.768,0,0,0-2.3.969h0a1.766,1.766,0,0,0,.973,2.294l2.337.947a1.766,1.766,0,0,0,2.292-.974Z" transform="translate(-2635.486 -2083.765)" fill="#726d7c"/><path d="M2158.314,1685.463a1.77,1.77,0,0,0-.972-2.3l-2.336-.946a1.773,1.773,0,0,0-2.292.974h0a1.772,1.772,0,0,0,.974,2.295l2.337.947a1.765,1.765,0,0,0,2.29-.972Z" transform="translate(-2143.226 -1650.725)" fill="#726d7c"/><path d="M2452.08,1804.5a1.767,1.767,0,0,0-.971-2.3l-2.336-.942a1.773,1.773,0,0,0-2.3.971h0a1.769,1.769,0,0,0,.975,2.293l2.336.949a1.772,1.772,0,0,0,2.292-.974Z" transform="translate(-2429.992 -1766.928)" fill="#726d7c"/><path d="M2745.865,1923.4a1.764,1.764,0,0,0-.964-2.293l-2.337-.945a1.772,1.772,0,0,0-2.3.97h0a1.768,1.768,0,0,0,.972,2.3l2.336.947a1.767,1.767,0,0,0,2.291-.974Z" transform="translate(-2716.78 -1882.992)" fill="#726d7c"/><path d="M3039.692,2042.326a1.768,1.768,0,0,0-.97-2.3l-2.338-.945a1.774,1.774,0,0,0-2.292.973h0a1.772,1.772,0,0,0,.972,2.3l2.337.947a1.765,1.765,0,0,0,2.292-.975Z" transform="translate(-3003.608 -1999.088)" fill="#282b36"/><path d="M2241.6,1479.864a1.767,1.767,0,0,0-.965-2.293l-2.338-.945a1.77,1.77,0,0,0-2.3.969h0a1.774,1.774,0,0,0,.973,2.3l2.336.948a1.767,1.767,0,0,0,2.292-.974Z" transform="translate(-2224.526 -1450.025)" fill="#726d7c"/><path d="M2535.368,1598.776a1.766,1.766,0,0,0-.971-2.3l-2.334-.943a1.756,1.756,0,0,0-2.291.976h0a1.76,1.76,0,0,0,.968,2.29l2.336.947a1.759,1.759,0,0,0,2.292-.974Z" transform="translate(-2511.298 -1566.103)" fill="#726d7c"/><path d="M2829.081,1717.755a1.77,1.77,0,0,0-.972-2.3l-2.335-.947a1.772,1.772,0,0,0-2.3.971h0a1.769,1.769,0,0,0,.971,2.3l2.336.948a1.769,1.769,0,0,0,2.3-.97Z" transform="translate(-2798.008 -1682.245)" fill="#726d7c"/><path d="M3123.018,1836.693a1.763,1.763,0,0,0-.968-2.293l-2.338-.946a1.755,1.755,0,0,0-2.289.976h0a1.763,1.763,0,0,0,.967,2.291l2.341.953a1.762,1.762,0,0,0,2.286-.98Z" transform="translate(-3084.952 -1798.354)" fill="#282b36"/><path d="M2324.807,1274.316a1.77,1.77,0,0,0-.966-2.292l-2.336-.947a1.771,1.771,0,0,0-2.294.973h0a1.764,1.764,0,0,0,.969,2.292l2.336.945a1.765,1.765,0,0,0,2.291-.972Z" transform="translate(-2305.753 -1249.376)" fill="#726d7c"/><path d="M2618.694,1393.159a1.762,1.762,0,0,0-.968-2.292l-2.336-.948a1.766,1.766,0,0,0-2.291.976h0a1.768,1.768,0,0,0,.972,2.3l2.332.941a1.757,1.757,0,0,0,2.292-.974Z" transform="translate(-2592.641 -1365.386)" fill="#726d7c"/><path d="M2912.423,1512.245a1.769,1.769,0,0,0-.968-2.294l-2.34-.949a1.769,1.769,0,0,0-2.294.971h0a1.764,1.764,0,0,0,.97,2.291l2.337.947a1.767,1.767,0,0,0,2.295-.966Z" transform="translate(-2879.367 -1481.632)" fill="#726d7c"/><path d="M3206.242,1631.1a1.77,1.77,0,0,0-.971-2.3l-2.336-.946a1.764,1.764,0,0,0-2.291.975h0a1.762,1.762,0,0,0,.968,2.289l2.341.953a1.766,1.766,0,0,0,2.29-.975Z" transform="translate(-3166.19 -1597.66)" fill="#282b36"/><path d="M2416.1,1064.9l-2.333-.944a1.377,1.377,0,1,0-1,2.447l2.336.946a1.377,1.377,0,1,0,.994-2.449Z" transform="translate(-2396.031 -1047.147)" fill="#282b36"/><path d="M2709.968,1183.854l-2.331-.943a1.377,1.377,0,1,0-.992,2.45l2.335.948a1.377,1.377,0,1,0,.988-2.455Z" transform="translate(-2682.902 -1163.272)" fill="#282b36"/><path d="M3003.623,1302.823l-2.337-.947a1.377,1.377,0,1,0-1,2.447l2.344.949a1.376,1.376,0,1,0,.99-2.449Z" transform="translate(-2969.553 -1279.403)" fill="#282b36"/><path d="M3297.561,1421.7l-2.329-.943a1.377,1.377,0,1,0-.993,2.45l2.338.945a1.375,1.375,0,1,0,.984-2.453Z" transform="translate(-3256.5 -1395.445)" fill="#282b36"/><g transform="translate(28.403 47.611)"><path d="M2988.7,2364.25l-.814-.328-1.447,3.575.812.329Z" transform="translate(-2985.62 -2363.922)" fill="#fff"/><path d="M2952.242,2398.316l-.33.814,3.578,1.448.33-.813Z" transform="translate(-2951.913 -2397.497)" fill="#fff"/></g><g transform="translate(33.689 35.561)"><path d="M3202.955,1858.071l-.682.3,1.283,3.034.691-.3Z" transform="translate(-3201.595 -1858.071)" fill="#fff"/><path d="M3173.785,1887.725l.292.692,3.039-1.28-.3-.694Z" transform="translate(-3173.785 -1885.768)" fill="#fff"/></g><g transform="translate(31.386 41.06)"><path d="M3077.454,2088.911l-.331.818,3.577,1.449.334-.816Z" transform="translate(-3077.123 -2088.911)" fill="#fff"/></g><g transform="translate(35.646 30.98)"><path d="M3256.248,1683.281l-.283.7,3.066,1.241.28-.7Z" transform="translate(-3255.965 -1682.864)" fill="#fff"/><path d="M3319.479,1666.055a.424.424,0,0,0,.235.54.414.414,0,0,0,.531-.228.409.409,0,0,0-.229-.54A.416.416,0,0,0,3319.479,1666.055Z" transform="translate(-3317.94 -1665.797)" fill="#fff"/><path d="M3288.464,1742.59a.414.414,0,0,0,.767.311.414.414,0,1,0-.767-.311Z" transform="translate(-3287.66 -1740.508)" fill="#fff"/></g><path d="M2529.751,606.1a.713.713,0,0,0-.388-.94l-25.25-10.224a.743.743,0,0,0-.956.4l-2.676,6.293a.712.712,0,0,0,.388.94l25.25,10.225a.743.743,0,0,0,.956-.4Z" transform="translate(-2482.775 -589.417)" fill="#678797"/><path d="M2529.363,627.335l-3.6-1.457a16.39,16.39,0,0,1-3.5.957,22.819,22.819,0,0,1-8.982.18,12.916,12.916,0,0,1-4.041-1.759,15.828,15.828,0,0,1-3.361-2.877,13.273,13.273,0,0,1-1.31-1.763,17.382,17.382,0,0,1-.919-1.748c-.188-.4-.376-.83-.532-1.27l-2.637,6.2a.712.712,0,0,0,.388.94l25.25,10.225a.743.743,0,0,0,.956-.4l2.676-6.293A.713.713,0,0,0,2529.363,627.335Z" transform="translate(-2482.775 -611.589)" fill="#517384"/></g><rect width="1.934" height="8.84" transform="matrix(0.388, -0.922, 0.922, 0.388, 39.305, 11.441)" fill="#33374b"/><path d="M3429.543,788.759l-1.52-.641-.508,1.2,1.322.557C3429.077,789.509,3429.316,789.138,3429.543,788.759Z" transform="translate(-3387.781 -778.046)" fill="#1b2a3e"/><path d="M3496.709,821.056l.081-.166-1.924-.811c-.227.379-.466.75-.707,1.121l2.1.885C3496.4,821.739,3496.542,821.392,3496.709,821.056Z" transform="translate(-3452.839 -809.246)" fill="#1b2a3e"/><path d="M3596.869,859.811l-1.68-.708c-.047.1-.094.192-.139.289-.141.3-.265.6-.39.907l1.652.7A4.8,4.8,0,0,0,3596.869,859.811Z" transform="translate(-3550.945 -847.34)" fill="#1b2a3e"/><path d="M3675.618,893.554a4.978,4.978,0,0,1-.557,1.184l1.631.688.508-1.2Z" transform="translate(-3629.43 -880.97)" fill="#1b2a3e"/></g><path d="M1249.583,937.061l.273-2.663h.012a4.407,4.407,0,0,1-1.7-.684,4.891,4.891,0,0,1-2.052-3.518l-2.646.407a7.466,7.466,0,0,0,3.354,5.43A6.883,6.883,0,0,0,1249.583,937.061Z" transform="translate(-1141.685 -551.431)" fill="#bfdce4"/><path d="M79.3,1706.134a3.269,3.269,0,1,1-3.269,3.27A3.269,3.269,0,0,1,79.3,1706.134Zm-1.635,3.27a1.635,1.635,0,1,0,1.635-1.635A1.635,1.635,0,0,0,77.668,1709.4Z" transform="translate(-2.059 -1308.883)" fill="#aacdd6"/><path d="M268.525,1078.566c-.428-3.3-1.284-7.926-5.566-11.229-3.687-2.844-9.014-2.862-16.7-2.862s-13.012.018-16.7,2.862c-4.282,3.3-5.138,7.926-5.567,11.229a22.666,22.666,0,0,0,.642,8.146l21.41-.22h.428l21.41.22A22.664,22.664,0,0,0,268.525,1078.566Z" transform="translate(-146.36 -682.509)" fill="#aacdd6"/><path d="M637.274,1071.512a38.523,38.523,0,0,0,2.3,8.547,31.751,31.751,0,0,0,1.851,4,17.138,17.138,0,0,0,1.653,2.488l5.676-.058h.428l9.036.093a9.2,9.2,0,0,0,.291-1.621,27.454,27.454,0,0,0,.019-3.626,41.332,41.332,0,0,1,.049-4.782c.065-.815.164-1.628.307-2.434.149-.838.36-1.661.541-2.493.33-1.521.614-3.053,1-4.561.161-.622.341-1.237.547-1.844-3.168-.742-7.109-.75-12.007-.75-5.2,0-9.315.009-12.577.893C636.822,1067.391,636.987,1069.466,637.274,1071.512Z" transform="translate(-549.07 -682.509)" fill="#bfdce4"/><path d="M328.9,1180.4h-.449l-19.8.2a19.6,19.6,0,0,1-.251-5.86,20.328,20.328,0,0,1,1.208-5.118,11.141,11.141,0,0,1,3.593-4.777,11.693,11.693,0,0,1,5.883-2.1,79.067,79.067,0,0,1,9.588-.348,79.066,79.066,0,0,1,9.588.348,11.693,11.693,0,0,1,5.883,2.1,11.141,11.141,0,0,1,3.593,4.777,20.333,20.333,0,0,1,1.208,5.118,19.508,19.508,0,0,1-.248,5.86Z" transform="translate(-228.777 -778.104)" fill="#b99d5f"/><path d="M1161.079,750.64a3.168,3.168,0,1,1-3.168-3.168A3.168,3.168,0,0,1,1161.079,750.64Z" transform="translate(-1055.072 -373.058)" fill="#bfdce4"/><circle cx="2.534" cy="2.534" r="2.534" transform="translate(99.023 377.427) rotate(-45)" fill="#dbecf0"/><path d="M1278.21,817.18a.907.907,0,1,0,.907-.907A.907.907,0,0,0,1278.21,817.18Z" transform="translate(-1175.598 -440.22)" fill="#fff"/><path d="M124.843,1263.37c-1.927-3.993-4.51-7.616-5.352-10.4-2.034-6.725-7.279-9.667-9.955-9.667H90.266c-2.676,0-7.922,2.942-9.955,9.667-.843,2.786-3.426,6.41-5.352,10.4-1.157,2.4-2.676,12.084,3.747,14.816a41.319,41.319,0,0,0,4.141,1.536c3.139,2.453,9.645,4.138,17.162,4.138,7.628,0,14.215-1.735,17.3-4.247,1.181-.375,2.418-.843,3.79-1.427C127.519,1275.454,126,1265.767,124.843,1263.37Z" transform="translate(-0.001 -857.076)" fill="#ffce00"/><g transform="translate(73.923 386.226)"><path d="M125.054,2107.277c-2.205,7.659-12.629,13.459-25.154,13.459s-22.949-5.8-25.154-13.459c-1.1,3.031-2.075,11.736,3.959,14.3a41.343,41.343,0,0,0,4.141,1.535c3.139,2.453,9.645,4.138,17.162,4.138,7.628,0,14.215-1.735,17.3-4.247,1.181-.375,2.418-.843,3.79-1.427C127.129,2119.013,126.153,2110.309,125.054,2107.277Z" transform="translate(-73.923 -2086.696)" fill="#edbf00"/><path d="M452.182,1249.024c-2.47-3.947-6.1-5.723-8.18-5.723H424.734c-2.079,0-5.71,1.776-8.18,5.723a36.428,36.428,0,0,1,35.628,0Z" transform="translate(-408.392 -1243.301)" fill="#d92d1b"/></g><path d="M763,1050.7l-.273-2.663h-.012a4.4,4.4,0,0,0,1.7-.684,4.891,4.891,0,0,0,2.052-3.518l2.646.407a7.467,7.467,0,0,1-3.354,5.43A6.888,6.888,0,0,1,763,1050.7Z" transform="translate(-672.38 -662.36)" fill="#bfdce4"/><g transform="translate(77.118 385.345)"><path d="M221.174,1210.591h19.269a11.112,11.112,0,0,1,9.956,7.806,14.907,14.907,0,0,0,3.267,5.03c.187-1.257-.352-3.09-.591-4.678-.428-2.853-1.294-7.089-5.576-9.942-3.687-2.457-8.774-2.463-16.459-2.463s-13.181.006-16.868,2.463c-4.282,2.853-5.2,7.088-5.629,9.942a17.839,17.839,0,0,0-.469,4.539,10.756,10.756,0,0,0,3.145-4.891A11.112,11.112,0,0,1,221.174,1210.591Z" transform="translate(-208.027 -1206.344)" fill="#bfdce4"/></g><g transform="translate(92.241 378.509)"><path d="M842.854,922.556a3.168,3.168,0,1,0,3.168-3.168A3.168,3.168,0,0,0,842.854,922.556Z" transform="translate(-842.854 -919.388)" fill="#bfdce4"/><circle cx="2.534" cy="2.534" r="2.534" transform="translate(0.687 0.651) rotate(-5.204)" fill="#dbecf0"/><path d="M992.085,986.236a.908.908,0,1,0,.908-.907A.907.907,0,0,0,992.085,986.236Z" transform="translate(-988.53 -983.758)" fill="#fff"/></g></g></g></svg>