<svg xmlns="http://www.w3.org/2000/svg" xmlns:xlink="http://www.w3.org/1999/xlink" width="140" height="140" viewBox="0 0 140 140">
  <defs>
    <linearGradient id="linear-gradient" x1="0.5" y1="0.917" x2="0.5" y2="0.106" gradientUnits="objectBoundingBox">
      <stop offset="0" stop-color="#96663d"/>
      <stop offset="0.253" stop-color="#8f6039"/>
      <stop offset="0.608" stop-color="#7d512e"/>
      <stop offset="1" stop-color="#613a1e"/>
    </linearGradient>
    <clipPath id="clip-path">
      <rect id="長方形_26031" data-name="長方形 26031" width="27.579" height="23.271" fill="none"/>
    </clipPath>
  </defs>
  <g id="recommend_obj30" transform="translate(0 -0.477)">
    <circle id="楕円形_23" data-name="楕円形 23" cx="70" cy="70" r="70" transform="translate(0 0.477)" fill="#f7f3e5"/>
    <g id="グループ_3906" data-name="グループ 3906" transform="translate(98.232 44.411)">
      <rect id="長方形_26395" data-name="長方形 26395" width="23.824" height="39.31" transform="translate(0)" fill="#94663f"/>
      <rect id="長方形_26396" data-name="長方形 26396" width="24.3" height="22.395" transform="translate(23.109 0.715) rotate(90)" fill="#4d2a13"/>
      <rect id="長方形_26397" data-name="長方形 26397" width="12.865" height="22.395" transform="translate(23.109 25.73) rotate(90)" fill="#626262"/>
      <rect id="長方形_26398" data-name="長方形 26398" width="12.77" height="22.299" transform="translate(23.061 25.778) rotate(90)" fill="#4d2a13"/>
      <rect id="長方形_26399" data-name="長方形 26399" width="12.77" height="0.048" transform="translate(11.936 25.778) rotate(90)" fill="#626262"/>
      <rect id="長方形_26400" data-name="長方形 26400" width="0.715" height="22.395" transform="translate(23.109 16.915) rotate(90)" fill="#94663f"/>
      <rect id="長方形_26401" data-name="長方形 26401" width="0.715" height="22.395" transform="translate(23.109 8.815) rotate(90)" fill="#94663f"/>
      <path id="パス_62131" data-name="パス 62131" d="M1355.867,1686.926v3.573h-.52l-.52-2.382h-20.792l-.52,2.382H1333v-3.573Z" transform="translate(-1332.519 -1647.617)" fill="url(#linear-gradient)"/>
      <path id="パス_62132" data-name="パス 62132" d="M1442.454,1547.639l-.238-.238.715-.715.238.238v.715Z" transform="translate(-1431.757 -1520.194)" fill="#b0afaf" style="mix-blend-mode: multiply;isolation: isolate"/>
      <rect id="長方形_26402" data-name="長方形 26402" width="0.715" height="0.715" transform="translate(11.173 26.492) rotate(90)" fill="#181919"/>
      <path id="パス_62133" data-name="パス 62133" d="M1466.436,1547.639l-.238-.238.715-.715.238.238v.715Z" transform="translate(-1453.547 -1520.194)" fill="#b0afaf" style="mix-blend-mode: multiply;isolation: isolate"/>
      <rect id="長方形_26403" data-name="長方形 26403" width="0.715" height="0.715" transform="translate(13.365 26.492) rotate(90)" fill="#181919"/>
    </g>
    <g id="グループ_3907" data-name="グループ 3907" transform="translate(81.275 50.928)">
      <path id="パス_63840" data-name="パス 63840" d="M77.545,595.083s0-.58-.166-.746c-1.232-1.155-8.04-1.345-9.007-1.366v-.459H66.3v.456s-7.8.124-9.122,1.368c-.166.166-.166.746-.166.746s-.387.152-.359.843c.028.553.3.885,1.064.912.816.014.843-.746.843-1.037a1.323,1.323,0,0,0-.227-.737c-.026-.089-.123-.489.171-.562a51.871,51.871,0,0,1,6.137.083s-3.9,2.737-4.727,4.312a4.086,4.086,0,0,0-.088,1.335,1.254,1.254,0,0,0-.281,1.012c.028.6.328.981,1.088,1.012a.927.927,0,0,0,.959-1.012c0-.317-.028-.833-.332-1h0a2.752,2.752,0,0,1,.189-1.168c.195-.316,4.218-2.911,5.183-3.53v.3a.647.647,0,0,0,.647.647h.116a.647.647,0,0,0,.647-.647v-.224c1.134.729,4.88,3.151,5.068,3.456a2.752,2.752,0,0,1,.189,1.168c-.3.166-.333.682-.333,1a.927.927,0,0,0,.959,1.012c.76-.03,1.061-.408,1.088-1.012a1.255,1.255,0,0,0-.281-1.012h0a4.091,4.091,0,0,0-.088-1.335c-.829-1.576-4.727-4.312-4.727-4.312a51.871,51.871,0,0,1,6.137-.083c.294.073.2.473.171.562A1.325,1.325,0,0,0,76,595.8c0,.29.028,1.051.843,1.037.76-.028,1.037-.359,1.064-.912C77.933,595.235,77.545,595.083,77.545,595.083Z" transform="translate(-54.83 -562.076)" fill="#262626"/>
      <g id="グループ_2037" data-name="グループ 2037" transform="translate(0 0)">
        <path id="パス_63841" data-name="パス 63841" d="M46.729,544.075a10.465,10.465,0,0,0,2.949,5.146l.651-1.161a30.569,30.569,0,0,1-.323-4.52S46.744,544.075,46.729,544.075Z" transform="translate(-46.716 -522.026)" fill="#242424"/>
        <path id="パス_63842" data-name="パス 63842" d="M166.246,544.075a10.465,10.465,0,0,1-2.949,5.146l-.651-1.161a30.565,30.565,0,0,0,.323-4.52S166.23,544.075,166.246,544.075Z" transform="translate(-141.515 -522.026)" fill="#242424"/>
        <g id="グループ_2032" data-name="グループ 2032" transform="translate(4.01 9.276)">
          <path id="パス_63843" data-name="パス 63843" d="M69.237,476.365l.01.012s-.829,10.035-.5,13.518h5.617c-.186-8.717-.7-10.753-1.968-12.025A6.86,6.86,0,0,0,69.237,476.365Z" transform="translate(-68.671 -476.365)" fill="#3d3d3d"/>
          <path id="パス_63844" data-name="パス 63844" d="M134.442,476.365a6.859,6.859,0,0,0-3.161,1.5c-1.272,1.272-1.782,3.308-1.968,12.025h5.617c.332-3.483-.5-13.518-.5-13.518Z" transform="translate(-118.265 -476.365)" fill="#3d3d3d"/>
        </g>
        <g id="グループ_2033" data-name="グループ 2033" transform="translate(4.088 1.161)">
          <path id="パス_63845" data-name="パス 63845" d="M82.985,431.819H71.8a2.7,2.7,0,0,0-2.7,2.7v4.43a2.053,2.053,0,0,0,.488.983,7.355,7.355,0,0,1,2.935,1.3c.233-2,2.324-3.563,4.871-3.563s4.638,1.564,4.871,3.563a7.355,7.355,0,0,1,2.935-1.3,2.055,2.055,0,0,0,.488-.983v-4.43A2.7,2.7,0,0,0,82.985,431.819Z" transform="translate(-69.101 -431.819)" fill="#3d3d3d"/>
          <path id="パス_63846" data-name="パス 63846" d="M92.758,463.944c-2.547,0-4.638,1.564-4.871,3.563.079.066.155.133.227.2A5.324,5.324,0,0,1,89.48,470.8a5.807,5.807,0,0,0,6.554,0,5.323,5.323,0,0,1,1.367-3.086c.071-.071.148-.139.226-.2C97.4,465.508,95.3,463.944,92.758,463.944Z" transform="translate(-84.465 -458.092)" fill="#454545"/>
          <path id="パス_63847" data-name="パス 63847" d="M96.634,501.566a61.807,61.807,0,0,1,.6,8.939h5.352a61.817,61.817,0,0,1,.6-8.939,5.807,5.807,0,0,1-6.554,0Z" transform="translate(-91.618 -488.86)" fill="#242424"/>
        </g>
        <g id="グループ_2034" data-name="グループ 2034" transform="translate(2.172 21.137)">
          <path id="パス_63848" data-name="パス 63848" d="M63.942,545.5c.746-.912,2.073-1.659.912-3.234-.567-.77-1.787-.866-2.886-.764a6.667,6.667,0,0,0-3.292,4.786c-.332,1.742.083,4.478,3.9,4.478h.453A6.689,6.689,0,0,1,63.942,545.5Z" transform="translate(-58.584 -541.472)" fill="#3d3d3d"/>
          <path id="パス_63849" data-name="パス 63849" d="M140.371,546.292a6.666,6.666,0,0,0-3.292-4.786c-1.1-.1-2.319-.005-2.886.764-1.161,1.576.166,2.322.912,3.234a6.689,6.689,0,0,1,.915,5.266h.453C140.288,550.771,140.7,548.034,140.371,546.292Z" transform="translate(-120.044 -541.472)" fill="#3d3d3d"/>
        </g>
        <path id="パス_63850" data-name="パス 63850" d="M83.717,558.611c-.223.238-.463.47-.662.713a6.689,6.689,0,0,0-.915,5.266H93.673a6.689,6.689,0,0,0-.915-5.266c-.233-.285-.523-.554-.776-.837-1.094-.076-2.236-.117-3.412-.117A47.813,47.813,0,0,0,83.717,558.611Z" transform="translate(-75.525 -534.155)" fill="#242424"/>
        <g id="グループ_2035" data-name="グループ 2035" transform="translate(5.556 19.9)">
          <path id="パス_63851" data-name="パス 63851" d="M95.818,550.172a19.406,19.406,0,0,1-3.539-.1,1.772,1.772,0,0,1-.65,1.753,47.813,47.813,0,0,1,4.852-.24c1.176,0,2.318.041,3.412.117a1.66,1.66,0,0,1-.537-1.629A19.408,19.408,0,0,1,95.818,550.172Z" transform="translate(-88.993 -547.267)" fill="#454545"/>
          <path id="パス_63852" data-name="パス 63852" d="M90.808,535.954c-2.443-1.393-5.5-1.268-6.825-1.268s-4.382-.125-6.825,1.268c1.1-.1,2.319-.005,2.886.764a2.431,2.431,0,0,1,.4.768,19.4,19.4,0,0,0,3.539.1,19.4,19.4,0,0,0,3.539-.1,2.426,2.426,0,0,1,.4-.768C88.489,535.948,89.708,535.851,90.808,535.954Z" transform="translate(-77.157 -534.683)" fill="#303030"/>
        </g>
        <path id="パス_63853" data-name="パス 63853" d="M50.831,520.775a2.658,2.658,0,0,0-3.07,1.291c-1.023,1.907-1.582,3.815-.558,3.815h1.582c.744,0,.93-.166,1.116-.746s-.164-2.744.942-3.362C50.842,521.773,50.831,520.811,50.831,520.775Z" transform="translate(-46.659 -503.331)" fill="#3d3d3d"/>
        <path id="パス_63854" data-name="パス 63854" d="M159.531,520.775a2.658,2.658,0,0,1,3.07,1.291c1.023,1.907,1.582,3.815.558,3.815h-1.582c-.744,0-.93-.166-1.117-.746s.164-2.744-.941-3.362C159.52,521.773,159.531,520.811,159.531,520.775Z" transform="translate(-138.959 -503.331)" fill="#3d3d3d"/>
        <g id="グループ_2036" data-name="グループ 2036" transform="translate(7.708)">
          <path id="パス_63855" data-name="パス 63855" d="M93.644,433.905h1c2.571,0,2.9-3.069,3.483-5.308s-.249-3.151-1-3.151H90.161c-.746,0-1.576.912-1,3.151s.912,5.308,3.483,5.308Z" transform="translate(-88.971 -425.446)" fill="#242424"/>
        </g>
      </g>
    </g>
    <g id="グループ_3910" data-name="グループ 3910" transform="translate(78.439 73.271)">
      <g id="グループ_755" data-name="グループ 755" transform="translate(0 0)" clip-path="url(#clip-path)">
        <path id="パス_61371" data-name="パス 61371" d="M.281,31.465c-.571.713-.241,1.167.824,1.411-.675.236-.8.5-.412.791-.585.345-.514.654,0,.941-.364.257-.751.511,0,.884-.437.248-.664.513,0,.847-.67.47-.582.729.412.737-.447.112-.779.26-.412.633-.924.217-.913.485,0,.8-1.138,1.138-.785,1.577.412,1.621-.6.4-.684.836-.412,1.289-.585.5-.747.9.412.995-.7.759-.645,1.29.44,1.51-.487.156-.689.365-.2.7-.891-.005-.905.571.2.755l8.155.845,9.114,1.679L22.491,44.5l3.917-2.336c1.019-.783.794-1.015,0-.995,1.38-.4,1.558-.777.439-1.142.719-.559.565-.894-.359-1.031.769-.727.815-1.167.04-1.283,1.531-.9,1.293-1.025-.2-.6l.519-.884c.619-.733.456-1.272-.919-1.51,1.175-.261,1.171-.714.639-1.253.893-.412.585-.831-.32-1.253.851-.1,1.184-.316.44-.747a1.81,1.81,0,0,0,.159-2.038Z" transform="translate(0 -24.636)" fill="#ccc7c2"/>
        <path id="パス_61372" data-name="パス 61372" d="M1.726,23.11l6.82-1.128c.409-.9,2.4-1.835,3.757-2.536,4.115,1.663,9.527,2.129,15.99,1.625l-3.6,3.277-5.636,1.377-8.115-.236s-6.018-1.744-9.218-2.38" transform="translate(-1.445 -16.28)" fill="#edeceb"/>
        <path id="パス_61373" data-name="パス 61373" d="M34.774,102.236a.984.984,0,0,1-.23.144c-.077.043-.174.092-.286.156l-.385.222a19.13,19.13,0,0,0-2.316,1.642c-.937.758-2,1.737-3.2,2.8l-.457.4-.233.2-.055.048-.029.025s-.009.011-.015.01l-.018,0-.123-.021-.151-.025-1.238-.207-2.6-.431c-3.567-.589-6.8-1.05-9.157-1.3-1.175-.131-2.129-.207-2.789-.264-.33-.026-.586-.045-.759-.063a.927.927,0,0,1-.264-.041.93.93,0,0,1,.267-.017c.174,0,.432,0,.763.008.662.023,1.62.068,2.8.173,2.362.2,5.612.63,9.181,1.22l2.6.437,1.237.214.151.026.028.005.006,0,.234-.2.459-.4c1.205-1.051,2.282-2.018,3.24-2.761a16.251,16.251,0,0,1,2.383-1.577l.4-.2c.116-.056.218-.1.3-.131a.941.941,0,0,1,.253-.09" transform="translate(-8.765 -85.588)" fill="#a09a95"/>
        <path id="パス_61374" data-name="パス 61374" d="M35.173,96.527a3.962,3.962,0,0,1-.586.367c-.386.226-.952.547-1.656.966s-1.544.935-2.454,1.582c-.456.323-.924.685-1.4,1.086-.238.2-.472.413-.709.635-.116.113-.235.226-.352.343l-.4.414-1.021-.229-.983-.2-1.012-.193-1.037-.181c-3.588-.593-6.87-.871-9.246-1.032-.594-.043-1.132-.071-1.6-.1l-1.212-.07c-.333-.018-.591-.034-.766-.049a.943.943,0,0,1-.267-.037.951.951,0,0,1,.268-.022c.176,0,.435-.006.768-.006s.742.01,1.215.02,1.013.029,1.609.059a79.766,79.766,0,0,1,9.279.95l1.041.183,1.016.2.987.209.885.2.3-.31c.12-.118.241-.231.36-.345.242-.223.482-.438.725-.637.484-.4.962-.761,1.426-1.08.928-.639,1.784-1.137,2.5-1.537s1.3-.7,1.694-.9a3.809,3.809,0,0,1,.626-.284" transform="translate(-8.765 -80.809)" fill="#756f6b"/>
        <path id="パス_61375" data-name="パス 61375" d="M33.323,40.985c.006.008-.062.077-.2.2s-.336.3-.6.531l-.954.825c-.381.324-6.447,2.289-6.447,2.289-5.912.529-14.83-1.31-16.869-2.282,6,2.028,16.739,2.042,16.589,1.845,0,0,6.257-1.679,6.631-1.982l.983-.785c.271-.214.483-.378.629-.487a1.016,1.016,0,0,1,.231-.154" transform="translate(-6.915 -34.311)" fill="#756f6b"/>
        <path id="パス_61376" data-name="パス 61376" d="M26.311,101.761l-17.069-.549,17.069,1.31,4.357-2.874Z" transform="translate(-7.738 -83.423)" fill="#a09a95"/>
        <path id="パス_61377" data-name="パス 61377" d="M8.26,102.244l11.352.592,5.516-.3Z" transform="translate(-6.915 -85.596)" fill="#756f6b"/>
        <path id="パス_61378" data-name="パス 61378" d="M.324,87.758c-.658.833-.256,1.17.784,1.209a1.883,1.883,0,0,0-.273.22H17.817Z" transform="translate(-0.003 -73.469)" fill="#a09a95"/>
        <path id="パス_61379" data-name="パス 61379" d="M121.7,69.7l-8.615,4.37,7.939-3.283.494-.842a2.259,2.259,0,0,0,.181-.244" transform="translate(-94.675 -58.349)" fill="#756f6b"/>
        <path id="パス_61380" data-name="パス 61380" d="M4.256,64.913l17.121.46,8.115-3.451-7.915,4.207Z" transform="translate(-3.563 -51.84)" fill="#a09a95"/>
        <path id="パス_61381" data-name="パス 61381" d="M4.256,71.877l16.921,1.1L5.945,72.642Z" transform="translate(-3.563 -60.174)" fill="#756f6b"/>
        <path id="パス_61382" data-name="パス 61382" d="M5.315,52.223l8.042,1.183,9.306.761,8.195-3.444-8.195,3.656-9.306-.566-7.562-.989Z" transform="translate(-4.45 -42.464)" fill="#a09a95"/>
        <path id="パス_61383" data-name="パス 61383" d="M55.725,45.563a.2.2,0,0,1-.2-.176,43.8,43.8,0,0,1-.2-12.446.209.209,0,0,1,.113-.162L64.356,28.4a.194.194,0,0,1,.264.1.216.216,0,0,1-.1.279l-8.815,4.33a43.382,43.382,0,0,0,.214,12.206.209.209,0,0,1-.164.242l-.033,0" transform="translate(-46.026 -23.761)" fill="#93653b"/>
        <path id="パス_61384" data-name="パス 61384" d="M57.978,48.306a.2.2,0,0,1-.2-.2,50.4,50.4,0,0,1,.714-11.6,81.933,81.933,0,0,1-15.953-2.359.211.211,0,0,1-.145-.255.2.2,0,0,1,.241-.154,81.922,81.922,0,0,0,16.112,2.361.2.2,0,0,1,.148.083.219.219,0,0,1,.036.173,49.34,49.34,0,0,0-.755,11.737.206.206,0,0,1-.19.219h-.009" transform="translate(-35.488 -28.236)" fill="#93653b"/>
        <path id="パス_61385" data-name="パス 61385" d="M72.079,10.51h-.02a.193.193,0,0,1-.093-.037l-.016-.013a5.523,5.523,0,0,1-1.664-5.118.993.993,0,0,1,.391-.691c.406-.245.857.071,1.144.448a4.988,4.988,0,0,1,.666,4.381C73.2,8.642,74,7.853,74.779,7.085A31.638,31.638,0,0,0,77.6,4.044a.192.192,0,0,1,.28-.03.219.219,0,0,1,.028.3,31.977,31.977,0,0,1-2.854,3.082,31.615,31.615,0,0,0-2.818,3.041h0l0,.006a.2.2,0,0,1-.121.069l-.028,0m-1.1-5.524a.207.207,0,0,0-.109.03.646.646,0,0,0-.2.415,5.11,5.11,0,0,0,1.3,4.486c.614-2.454.26-3.6-.463-4.554-.118-.155-.34-.376-.528-.376" transform="translate(-58.753 -3.321)" fill="#93653b"/>
        <path id="パス_61386" data-name="パス 61386" d="M56.365,7.145a7.055,7.055,0,0,1-1.8-.342,6.78,6.78,0,0,1-2.531-1.2c-.389-.408-.5-.847-.3-1.174.122-.2.4-.405,1.006-.275a7.03,7.03,0,0,1,3.869,2.38A50.972,50.972,0,0,0,58.815.16a.2.2,0,0,1,.241-.154A.212.212,0,0,1,59.2.261a44.871,44.871,0,0,1-2.386,6.732.208.208,0,0,1-.054.071.193.193,0,0,1-.068.038.946.946,0,0,1-.329.044M52.386,4.536a.356.356,0,0,0-.318.125c-.1.162.051.441.246.645.7.73,3.043,1.324,3.917,1.414a6.622,6.622,0,0,0-3.57-2.152,1.359,1.359,0,0,0-.276-.033" transform="translate(-43.229 0)" fill="#93653b"/>
        <path id="パス_61387" data-name="パス 61387" d="M73.694,37.556,71.067,35.02,61.08,38.541Z" transform="translate(-51.135 -29.318)" fill="#ccc7c2"/>
      </g>
    </g>
    <g id="グループ_3911" data-name="グループ 3911" transform="translate(108.854 50.864)">
      <g id="グループ_689" data-name="グループ 689" transform="translate(3.717 34.405)">
        <path id="パス_61126" data-name="パス 61126" d="M1165.079,739.375a6.306,6.306,0,0,0-.063.843h1.5a6.306,6.306,0,0,0-.063-.843,1.6,1.6,0,0,1-1.374,0Z" transform="translate(-1165.016 -738.842)" fill="#bab9b9"/>
        <path id="パス_61127" data-name="パス 61127" d="M1166.962,728.771h-.594s-.05.219-.093.533a1.6,1.6,0,0,0,1.374,0c-.043-.314-.093-.533-.093-.533Z" transform="translate(-1166.212 -728.771)" fill="#a6a5a5"/>
      </g>
      <path id="長方形_25987" data-name="長方形 25987" d="M0,0H.509a0,0,0,0,1,0,0V0A.148.148,0,0,1,.361.148H.148A.148.148,0,0,1,0,0V0A0,0,0,0,1,0,0Z" transform="translate(0.462 38.284)" fill="#8c8c8c"/>
      <path id="長方形_25988" data-name="長方形 25988" d="M.148,0H.361A.148.148,0,0,1,.509.148v0a0,0,0,0,1,0,0H0a0,0,0,0,1,0,0v0A.148.148,0,0,1,.148,0Z" transform="translate(8.473 38.432) rotate(180)" fill="#8c8c8c"/>
      <path id="長方形_25989" data-name="長方形 25989" d="M0,0H.509a0,0,0,0,1,0,0V0A.148.148,0,0,1,.361.148H.148A.148.148,0,0,1,0,0V0A0,0,0,0,1,0,0Z" transform="translate(1.962 38.284)" fill="#8c8c8c"/>
      <path id="長方形_25990" data-name="長方形 25990" d="M0,0H.509a0,0,0,0,1,0,0V0A.148.148,0,0,1,.361.148H.148A.148.148,0,0,1,0,0V0A0,0,0,0,1,0,0Z" transform="translate(3.463 38.284)" fill="#8c8c8c"/>
      <path id="長方形_25991" data-name="長方形 25991" d="M0,0H.509a0,0,0,0,1,0,0V0A.148.148,0,0,1,.361.148H.148A.148.148,0,0,1,0,0V0A0,0,0,0,1,0,0Z" transform="translate(4.963 38.284)" fill="#8c8c8c"/>
      <path id="長方形_25992" data-name="長方形 25992" d="M0,0H.509a0,0,0,0,1,0,0V0A.148.148,0,0,1,.361.148H.148A.148.148,0,0,1,0,0V0A0,0,0,0,1,0,0Z" transform="translate(6.463 38.284)" fill="#8c8c8c"/>
      <path id="パス_61128" data-name="パス 61128" d="M1099.745,796.739h-8.31c-.153,0-.284-.04-.312-.178v.144a.32.32,0,0,0,.319.326h8.3a.32.32,0,0,0,.319-.326v-.144C1100.029,796.7,1099.9,796.739,1099.745,796.739Z" transform="translate(-1091.122 -758.746)" fill="#bab9b9"/>
      <g id="グループ_690" data-name="グループ 690" transform="translate(2.1 26.691)">
        <path id="パス_61129" data-name="パス 61129" d="M1152.9,709.068a2.134,2.134,0,0,1-1.432-.507c.221.754.7,1.333,1.432,1.333s1.211-.579,1.432-1.333A2.135,2.135,0,0,1,1152.9,709.068Z" transform="translate(-1150.533 -701.863)" fill="#c44823"/>
        <path id="パス_61130" data-name="パス 61130" d="M1137.606,575.867h-.558l-.216-.243a.571.571,0,0,0-.426-.191h-2.32a.571.571,0,0,0-.426.191l-.216.243h-.558a30.713,30.713,0,0,0,.891,6.122q.017.071.038.141a2.273,2.273,0,0,0,2.863,0q.02-.069.038-.141A30.706,30.706,0,0,0,1137.606,575.867Z" transform="translate(-1132.879 -575.433)" fill="#9f3718"/>
      </g>
      <path id="パス_61131" data-name="パス 61131" d="M1145.8,599.453c.451,0,.923-.193,1-.427a38.168,38.168,0,0,0,.8-4.74.64.64,0,0,0-.637-.705h-2.335a.64.64,0,0,0-.637.705,38.192,38.192,0,0,0,.8,4.74c.082.234.554.427,1,.427Z" transform="translate(-1141.332 -565.976)" fill="#6d6d6d"/>
      <path id="長方形_25993" data-name="長方形 25993" d="M.174,0H.66A.174.174,0,0,1,.833.174v0A.174.174,0,0,1,.66.347H.174A.174.174,0,0,1,0,.174v0A.174.174,0,0,1,.174,0Z" transform="translate(4.051 26.961)" fill="#f0f0f0"/>
      <g id="グループ_691" data-name="グループ 691" transform="translate(2.107)">
        <path id="パス_61132" data-name="パス 61132" d="M1164.065,45.213a.273.273,0,0,0-.038-.117.49.49,0,0,0-.857,0,.271.271,0,0,0-.038.117c-.052,1.764-.251,10.249-.4,16.2h1.73C1164.316,55.462,1164.117,46.977,1164.065,45.213Z" transform="translate(-1161.238 -44.844)" fill="#c44823"/>
        <path id="パス_61133" data-name="パス 61133" d="M1136.826,458.208a3.138,3.138,0,0,1-.429-1.744c-.008-.034-.03-.767-.062-1.95H1134.4c-.032,1.183-.054,1.916-.062,1.95a3.138,3.138,0,0,1-.429,1.744,4.291,4.291,0,0,0-.9,2.823h.558l.216-.243a.57.57,0,0,1,.426-.191h2.32a.571.571,0,0,1,.426.191l.216.243h.558A4.291,4.291,0,0,0,1136.826,458.208Z" transform="translate(-1133.007 -433.906)" fill="#c44823"/>
        <path id="パス_61134" data-name="パス 61134" d="M1162.688,380.586h-1.746c-.032,1.3-.062,2.466-.087,3.4h1.919C1162.75,383.052,1162.721,381.885,1162.688,380.586Z" transform="translate(-1159.455 -363.697)" fill="#c44823"/>
        <path id="パス_61135" data-name="パス 61135" d="M1162.614,448.126h-1.919q0,.166-.009.321h1.936Q1162.618,448.292,1162.614,448.126Z" transform="translate(-1159.294 -427.839)" fill="#bab9b9"/>
        <path id="パス_61136" data-name="パス 61136" d="M1164.313,374.2h-1.73l-.008.321h1.746C1164.318,374.414,1164.316,374.307,1164.313,374.2Z" transform="translate(-1161.088 -357.631)" fill="#bab9b9"/>
      </g>
      <path id="パス_61137" data-name="パス 61137" d="M1174.228,102.791a.3.3,0,0,1-.3-.3v-.527a.3.3,0,0,1,.6,0v.527A.3.3,0,0,1,1174.228,102.791Z" transform="translate(-1169.761 -98.802)" fill="#666"/>
      <g id="グループ_692" data-name="グループ 692" transform="translate(4.281 2.974)">
        <path id="パス_61138" data-name="パス 61138" d="M1176.6,104.143a.186.186,0,0,0-.373,0v.263h.373Z" transform="translate(-1176.222 -103.957)" fill="gray"/>
        <path id="パス_61139" data-name="パス 61139" d="M1176.222,112.9v.263a.186.186,0,0,0,.373,0V112.9Z" transform="translate(-1176.222 -112.446)" fill="#666"/>
      </g>
      <path id="パス_61140" data-name="パス 61140" d="M1173.944,430.274a.307.307,0,1,1,.307.307A.307.307,0,0,1,1173.944,430.274Z" transform="translate(-1169.778 -410.594)" fill="#666"/>
      <ellipse id="楕円形_84" data-name="楕円形 84" cx="0.185" cy="0.185" rx="0.185" ry="0.185" transform="translate(4.288 19.495)" fill="#bab9b9"/>
      <g id="グループ_693" data-name="グループ 693" transform="translate(3.047 27.991)">
        <path id="パス_61141" data-name="パス 61141" d="M1161.227,628.647c.079.41.168.839.27,1.28a.314.314,0,0,0,.188.221,1.31,1.31,0,0,0,.967,0,.314.314,0,0,0,.188-.221c.313-1.36.511-2.6.633-3.521Z" transform="translate(-1160.747 -625.141)" fill="#1f1f1f"/>
        <path id="パス_61142" data-name="パス 61142" d="M1154.527,601.555a.253.253,0,0,0-.252-.279h-2.335a.253.253,0,0,0-.251.279c.068.663.211,1.833.479,3.227l2.244-2.242C1154.463,602.147,1154.5,601.812,1154.527,601.555Z" transform="translate(-1151.687 -601.276)" fill="#515151"/>
      </g>
      <path id="パス_61143" data-name="パス 61143" d="M1100.048,753.053l-.152-.745a1.085,1.085,0,0,0-.713-.772l-2.429-.7a.361.361,0,0,0-.411.147.266.266,0,0,1-.238.1h-1.031a.266.266,0,0,1-.238-.1.361.361,0,0,0-.41-.147l-2.429.7a1.084,1.084,0,0,0-.713.772l-.152.745c-.048.2.1.248.3.248h8.31C1099.946,753.3,1100.1,753.248,1100.048,753.053Z" transform="translate(-1091.122 -715.308)" fill="#c44823"/>
    </g>
    <g id="グループ_15295" data-name="グループ 15295" transform="translate(17.943 48.63)">
      <path id="長方形_1179" data-name="長方形 1179" d="M1.881,0h0A1.881,1.881,0,0,1,3.762,1.881v1.49a1.88,1.88,0,0,1-1.88,1.88h0A1.881,1.881,0,0,1,0,3.371V1.881A1.881,1.881,0,0,1,1.881,0Z" transform="translate(0.237 15.604)"/>
      <path id="パス_431" data-name="パス 431" d="M3771.3,4464.14c0,.313-12.568.568-28.071.568s-28.071-.255-28.071-.568,12.567-.571,28.071-.571S3771.3,4463.825,3771.3,4464.14Z" transform="translate(-3714.327 -4418.57)" fill="#9e9e9f"/>
      <path id="パス_432" data-name="パス 432" d="M3952.629,4217.338h-12.754a2.977,2.977,0,0,1,2.977,2.978v20.108h12.755v-20.108A2.977,2.977,0,0,0,3952.629,4217.338Z" transform="translate(-3897.974 -4217.338)" fill="#397156"/>
      <path id="パス_433" data-name="パス 433" d="M3771.383,4240.423v-20.108a2.977,2.977,0,0,1,2.978-2.978h27.814a2.977,2.977,0,0,1,2.977,2.978v20.108Z" transform="translate(-3760.273 -4217.338)" fill="#47856b"/>
      <rect id="長方形_1180" data-name="長方形 1180" width="12.867" height="7.9" rx="3.95" transform="translate(21.36 7.592)" fill="#fff" opacity="0.4"/>
      <g id="グループ_288" data-name="グループ 288" transform="translate(14.555 5.736)">
        <g id="グループ_285" data-name="グループ 285">
          <path id="パス_434" data-name="パス 434" d="M3818.685,4263.692h-25.909l-.146-.149v-9.89a4.08,4.08,0,0,1,4.034-4.116H3814.8a4.08,4.08,0,0,1,4.034,4.116v9.882Zm-25.173-.788h24.439l.11-.112v-9.139a3.3,3.3,0,0,0-3.261-3.328h-18.135a3.3,3.3,0,0,0-3.261,3.328v9.132Z" transform="translate(-3792.192 -4249.389)" fill="#b4b4b5"/>
          <path id="パス_435" data-name="パス 435" d="M3816.29,4262.878h-25.909l-.145-.148v-9.89a4.081,4.081,0,0,1,4.033-4.116H3812.4a4.081,4.081,0,0,1,4.034,4.116v9.882Zm-25.173-.788h24.439l.109-.111v-9.139a3.3,3.3,0,0,0-3.262-3.328h-18.135a3.3,3.3,0,0,0-3.261,3.328v9.131Z" transform="translate(-3790.236 -4248.724)" fill="#eeeeef"/>
        </g>
        <g id="グループ_286" data-name="グループ 286" transform="translate(8.528 0.791)">
          <rect id="長方形_1181" data-name="長方形 1181" width="0.243" height="12.603" transform="translate(0.454)" fill="#7a7a7a"/>
          <rect id="長方形_1182" data-name="長方形 1182" width="0.452" height="12.603" fill="#ccc"/>
        </g>
        <g id="グループ_287" data-name="グループ 287" transform="translate(16.766 0.791)">
          <rect id="長方形_1183" data-name="長方形 1183" width="0.243" height="12.603" transform="translate(0.453)" fill="#7a7a7a"/>
          <rect id="長方形_1184" data-name="長方形 1184" width="0.452" height="12.603" fill="#ccc"/>
        </g>
      </g>
      <path id="パス_436" data-name="パス 436" d="M3761.717,4258.548h-41.109l5.841-14.2a4,4,0,0,1,3.589-1.867H3757.4a2.833,2.833,0,0,1,2.523,2.176C3760.2,4245.835,3761.717,4258.548,3761.717,4258.548Zm-4.865-11.44a1.488,1.488,0,0,0-1.489-1.488H3737.79a1.488,1.488,0,0,0-1.49,1.488v6.961a1.488,1.488,0,0,0,1.49,1.488h17.573a1.488,1.488,0,0,0,1.489-1.488Zm-24.739-2.174h-3.464a1.709,1.709,0,0,0-1.646.96c-.306.617-4.15,10.508-4.644,11.525s.111,1.043.293,1.043,6.669.022,7.535.022.895-.443.91-.714,1.405-11.261,1.509-11.993S3732.327,4244.935,3732.113,4244.935Z" transform="translate(-3718.778 -4237.889)" fill="#3e3a39"/>
      <path id="パス_437" data-name="パス 437" d="M3739.089,4255.894h-3.463a1.708,1.708,0,0,0-1.646.96c-.306.616-4.15,10.507-4.644,11.525s.11,1.042.293,1.042,6.669.023,7.535.023.894-.444.91-.714,1.4-11.262,1.508-11.993S3739.3,4255.894,3739.089,4255.894Z" transform="translate(-3725.755 -4248.848)" fill="#fff" opacity="0.2"/>
      <g id="グループ_289" data-name="グループ 289" transform="translate(16.027 12.522)">
        <path id="パス_438" data-name="パス 438" d="M3815.163,4289.179a.957.957,0,0,1-.943.893H3809.5a.836.836,0,0,1-.844-.893l.434-2.428a.956.956,0,0,1,.943-.893h4.12a.835.835,0,0,1,.844.893Z" transform="translate(-3806.764 -4285.858)" fill="#1a1a1a"/>
        <path id="パス_439" data-name="パス 439" d="M3803.244,4312.508a1.354,1.354,0,0,1,1.266.876h3.25l.081-.55a1.1,1.1,0,0,0-.957-1.131h-7.547a1.139,1.139,0,0,0-1.042.806Z" transform="translate(-3798.294 -4306.979)" fill="#1a1a1a"/>
      </g>
      <g id="グループ_290" data-name="グループ 290" transform="translate(28.968 12.522)">
        <path id="パス_440" data-name="パス 440" d="M3886.961,4289.179a.957.957,0,0,1-.943.893H3881.3a.837.837,0,0,1-.844-.893l.434-2.428a.956.956,0,0,1,.944-.893h4.12a.835.835,0,0,1,.844.893Z" transform="translate(-3878.382 -4285.858)" fill="#1a1a1a"/>
        <path id="パス_441" data-name="パス 441" d="M3877.874,4311.7h-7.549a1.139,1.139,0,0,0-1.068.894l-.155.788h4.811c-.017.331-.029.552-.033.62a.793.793,0,0,1-.471.715h5.144l.277-1.886A1.1,1.1,0,0,0,3877.874,4311.7Z" transform="translate(-3869.102 -4306.979)" fill="#1a1a1a"/>
      </g>
      <path id="パス_442" data-name="パス 442" d="M3907.427,4244.018a2.068,2.068,0,0,0-1.957-1.534h-1.746a2.459,2.459,0,0,0-2.276,2.176c-.143,1.175-.549,13.357-.549,13.357l-.061.777v9.253h4.084a.328.328,0,0,1,.342.318,1.565,1.565,0,0,1,.538-.1c.649,0,1.156.533,1.536,1.335h2.14v-11.049Zm.885,13.55a.773.773,0,0,1-.648.281,8.91,8.91,0,0,0-3.453.633,3.055,3.055,0,0,1-1.006.26h-.568a1.085,1.085,0,0,1-.816-.292,1.186,1.186,0,0,1-.266-.912c.03-.658.082-1.941.142-3.431.145-3.557.324-7.983.378-8.431a1.592,1.592,0,0,1,1.479-1.283h2.3a.962.962,0,0,1,.957.833l1.645,11.4A1.2,1.2,0,0,1,3908.313,4257.568Z" transform="translate(-3866.072 -4237.889)" fill="#b4b4b5"/>
      <path id="パス_443" data-name="パス 443" d="M3911.644,4265.167l-1.646-11.4a.96.96,0,0,0-.956-.832h-2.3a1.592,1.592,0,0,0-1.479,1.283c-.054.448-.233,4.875-.378,8.431-.06,1.489-.113,2.772-.143,3.431a1.187,1.187,0,0,0,.266.912,1.081,1.081,0,0,0,.816.292h.569a3.075,3.075,0,0,0,1.006-.259,8.9,8.9,0,0,1,3.454-.634.774.774,0,0,0,.648-.281A1.208,1.208,0,0,0,3911.644,4265.167Zm-.451.7a.4.4,0,0,1-.338.129,9.419,9.419,0,0,0-3.59.657,2.836,2.836,0,0,1-.87.236h-.569a.715.715,0,0,1-.531-.169.843.843,0,0,1-.157-.623c.03-.658.082-1.942.143-3.432.137-3.363.323-7.967.376-8.4.1-.826,1.083-.936,1.105-.939h2.28a.573.573,0,0,1,.567.5l1.649,11.421A.859.859,0,0,1,3911.193,4265.866Z" transform="translate(-3869.262 -4246.429)" fill="#231815"/>
      <path id="パス_444" data-name="パス 444" d="M3911.372,4255.583a.573.573,0,0,0-.567-.495h-2.28c-.022,0-1,.112-1.105.938-.052.432-.239,5.037-.376,8.4-.061,1.49-.112,2.774-.142,3.433a.839.839,0,0,0,.157.622.715.715,0,0,0,.531.169h.569a2.815,2.815,0,0,0,.87-.235,9.408,9.408,0,0,1,3.589-.657.4.4,0,0,0,.339-.129.863.863,0,0,0,.065-.623Z" transform="translate(-3871.025 -4248.188)" fill="#fff" opacity="0.2"/>
      <g id="グループ_291" data-name="グループ 291" transform="translate(35.481 6.505)">
        <path id="パス_445" data-name="パス 445" d="M3906.4,4267.282h-.569a1.081,1.081,0,0,1-.816-.292,1.187,1.187,0,0,1-.266-.912c.03-.658.083-1.941.143-3.431.145-3.556.324-7.983.378-8.431a1.592,1.592,0,0,1,1.479-1.283h2.3a.96.96,0,0,1,.956.832l1.646,11.4a1.208,1.208,0,0,1-.141.941.774.774,0,0,1-.648.281,8.9,8.9,0,0,0-3.454.634A3.075,3.075,0,0,1,3906.4,4267.282Zm.367-13.956c-.023,0-1,.113-1.105.939-.053.433-.239,5.036-.376,8.4-.061,1.489-.113,2.773-.143,3.432a.843.843,0,0,0,.157.623.715.715,0,0,0,.531.169h.569a2.836,2.836,0,0,0,.87-.236,9.419,9.419,0,0,1,3.59-.657.4.4,0,0,0,.338-.129.859.859,0,0,0,.065-.623l-1.649-11.421a.573.573,0,0,0-.567-.5Z" transform="translate(-3904.743 -4252.934)" fill="#231815"/>
      </g>
      <g id="グループ_292" data-name="グループ 292" transform="translate(11.39 16.323)">
        <path id="パス_446" data-name="パス 446" d="M3773.728,4308.383a2.594,2.594,0,0,1,2.16-1.072,3.525,3.525,0,0,1,2.465,1.072h.811a4.354,4.354,0,0,0-3.37-1.728,3.123,3.123,0,0,0-2.878,1.728Z" transform="translate(-3772.917 -4306.655)"/>
      </g>
      <g id="グループ_293" data-name="グループ 293" transform="translate(3.045 18.051)">
        <path id="パス_447" data-name="パス 447" d="M3727.293,4318.229c.09.157.336.243.694.243h28.7c.81,0,1.238-.291,1.272-.865,0-.068.015-.288.033-.62h-11.536a1.355,1.355,0,0,0-1.265-.875h-14.092a3.239,3.239,0,0,0-1.914.875h-1.487c-.16.373-.267.612-.312.689A.576.576,0,0,0,3727.293,4318.229Z" transform="translate(-3727.254 -4316.111)" fill="#1a1a1a"/>
      </g>
      <path id="長方形_1185" data-name="長方形 1185" d="M.972,0H5.4a.972.972,0,0,1,.972.972v0a.972.972,0,0,1-.972.972H.971A.971.971,0,0,1,0,.973v0A.972.972,0,0,1,.972,0Z" transform="translate(16.392 7.494)" fill="#1a1a1a"/>
      <path id="パス_448" data-name="パス 448" d="M3980.822,4397.6c-1.182,0-2.139,2.854-2.139,6.375s.957,6.377,2.139,6.377h2.823c-1.181,0-2.138-2.856-2.138-6.377s.958-6.375,2.138-6.375Z" transform="translate(-3929.689 -4364.66)" fill="#231815"/>
      <path id="長方形_1186" data-name="長方形 1186" d="M.4,0H12.931a.4.4,0,0,1,.4.4v0a.4.4,0,0,1-.4.4H.395A.395.395,0,0,1,0,.4v0A.4.4,0,0,1,.4,0Z" transform="translate(43.912 23.086)" fill="#bebfbf"/>
      <path id="パス_449" data-name="パス 449" d="M3948.114,4344.454h.733a.223.223,0,0,1-.222-.224v-.344a.223.223,0,0,1,.222-.223h-.733Z" transform="translate(-3904.707 -4320.577)" fill="#888"/>
      <path id="長方形_1187" data-name="長方形 1187" d="M.43,0H12.9a.431.431,0,0,1,.431.431v0a.432.432,0,0,1-.432.432H.43A.43.43,0,0,1,0,.432v0A.43.43,0,0,1,.43,0Z" transform="translate(43.912 30.86)" fill="#9e9e9f"/>
      <path id="パス_450" data-name="パス 450" d="M3997.75,4390.911h-1.478c-.431,0-.791.384-1.083.931l.013.028c.044.085.088.172.129.263h1.8c.873,0,1.623,1.563,1.955,3.8h.375s.261.008.261-.4C3999.726,4394.834,3999.013,4390.911,3997.75,4390.911Z" transform="translate(-3943.179 -4359.19)" fill="#383231"/>
      <path id="パス_451" data-name="パス 451" d="M3998.407,4403.979c0,3.521-.958,6.377-2.138,6.377s-2.138-2.856-2.138-6.377.957-6.375,2.138-6.375S3998.407,4400.457,3998.407,4403.979Z" transform="translate(-3942.314 -4364.66)" fill="#595757"/>
      <path id="パス_452" data-name="パス 452" d="M4002.426,4414.572c0,2.212-.545,4.005-1.218,4.005s-1.218-1.793-1.218-4.005.545-4.007,1.218-4.007S4002.426,4412.359,4002.426,4414.572Z" transform="translate(-3947.102 -4375.253)" fill="#eeeeef"/>
      <path id="パス_453" data-name="パス 453" d="M3759.251,4440.762c.228,2.791,1.071,4.864,2.076,4.864s1.85-2.073,2.078-4.864Z" transform="translate(-3750.359 -4399.931)" fill="#231815"/>
      <path id="パス_454" data-name="パス 454" d="M3746.627,4440.762H3743.8c.228,2.791,1.071,4.864,2.077,4.864h2.823C3747.7,4445.626,3746.854,4443.553,3746.627,4440.762Z" transform="translate(-3737.734 -4399.931)" fill="#3e3a39"/>
      <path id="パス_455" data-name="パス 455" d="M3838.7,4440.762c.228,2.791,1.071,4.864,2.077,4.864s1.849-2.073,2.077-4.864Z" transform="translate(-3815.29 -4399.931)" fill="#231815"/>
      <path id="パス_456" data-name="パス 456" d="M3826.074,4440.762h-2.824c.229,2.791,1.072,4.864,2.078,4.864h2.823C3827.146,4445.626,3826.3,4443.553,3826.074,4440.762Z" transform="translate(-3802.662 -4399.931)" fill="#3e3a39"/>
      <path id="パス_457" data-name="パス 457" d="M3918.884,4403.979c0,3.521-.957,6.377-2.137,6.377s-2.138-2.856-2.138-6.377.957-6.375,2.138-6.375S3918.884,4400.457,3918.884,4403.979Z" transform="translate(-3877.325 -4364.66)" fill="#595757"/>
      <path id="パス_458" data-name="パス 458" d="M3922.9,4414.572c0,2.212-.545,4.005-1.219,4.005s-1.218-1.793-1.218-4.005.546-4.007,1.218-4.007S3922.9,4412.359,3922.9,4414.572Z" transform="translate(-3882.111 -4375.253)" fill="#eeeeef"/>
      <path id="パス_459" data-name="パス 459" d="M3912.686,4392.49c0-3.521.957-6.375,2.138-6.375h-1.806c-.045-.1-.09-.2-.139-.293-.049.094-.1.191-.141.293h0c-.033.075-.066.151-.1.23a11.534,11.534,0,0,0-.709,3.172.394.394,0,0,1-.415.4H3908.6s-.261.008-.261-.4a11.884,11.884,0,0,1,.723-3.172c.321-.812.742-1.454,1.252-1.454l-8.182-.011c-.38-.8-.888-1.322-1.536-1.335-1.359-.025-1.862,1.888-2.256,3.917a18.964,18.964,0,0,1-.952,3.83,5.541,5.541,0,0,1-2.029,2.31v.008a4.1,4.1,0,0,1-.89.439,5.083,5.083,0,0,0,.971.475c.284,2.522,1.082,4.341,2.024,4.341h2.822c-.886,0-1.646-1.607-1.97-3.9h0a17.788,17.788,0,0,1-.167-2.478c0-3.521.957-6.375,2.138-6.375.507,0,.972.526,1.337,1.4h0a7.776,7.776,0,0,1,.33.984l0,.008c.048.176.092.36.133.551,0,.009,0,.018.005.026.041.192.079.391.112.6a.034.034,0,0,0,0,.007c.034.208.064.423.091.643,0,.008,0,.015,0,.021q.038.316.064.646c0,.019,0,.04,0,.06.016.212.029.431.038.65,0,.021,0,.039,0,.059q.015.354.015.72,0,.3-.01.586c0,.08-.006.158-.01.238-.006.137-.011.274-.021.407.03-.041.056-.087.083-.132h5.021a.9.9,0,0,0,.9-.722h1.477c.065,3.345,1,6,2.134,6h2.823C3913.643,4398.866,3912.686,4396.011,3912.686,4392.49Z" transform="translate(-3860.869 -4353.171)" fill="#231815"/>
      <path id="パス_460" data-name="パス 460" d="M3918.884,4403.979c0,3.521-.957,6.377-2.137,6.377s-2.138-2.856-2.138-6.377.957-6.375,2.138-6.375S3918.884,4400.457,3918.884,4403.979Z" transform="translate(-3877.325 -4364.66)" fill="#595757"/>
      <path id="パス_461" data-name="パス 461" d="M3922.9,4414.572c0,2.212-.545,4.005-1.219,4.005s-1.218-1.793-1.218-4.005.546-4.007,1.218-4.007S3922.9,4412.359,3922.9,4414.572Z" transform="translate(-3882.111 -4375.253)" fill="#eeeeef"/>
      <path id="パス_462" data-name="パス 462" d="M4005.388,4427.115c0,.665-.164,1.2-.366,1.2s-.365-.538-.365-1.2.163-1.2.365-1.2S4005.388,4426.452,4005.388,4427.115Z" transform="translate(-3950.917 -4387.797)" fill="#595757"/>
      <path id="パス_463" data-name="パス 463" d="M3925.863,4427.115c0,.665-.164,1.2-.365,1.2s-.365-.538-.365-1.2.164-1.2.365-1.2S3925.863,4426.452,3925.863,4427.115Z" transform="translate(-3885.925 -4387.797)" fill="#595757"/>
      <path id="パス_464" data-name="パス 464" d="M4001.711,4420.9c-.718,0-1.105-1.718-1.105-3.335s.387-3.337,1.105-3.337,1.106,1.719,1.106,3.337S4002.43,4420.9,4001.711,4420.9Zm0-6.41c-.4,0-.843,1.315-.843,3.075s.445,3.073.843,3.073.843-1.314.843-3.073S4002.109,4414.493,4001.711,4414.493Z" transform="translate(-3947.606 -4378.249)" fill="#231815"/>
      <path id="パス_465" data-name="パス 465" d="M3922.187,4420.9c-.718,0-1.106-1.718-1.106-3.335s.387-3.337,1.106-3.337,1.106,1.719,1.106,3.337S3922.906,4420.9,3922.187,4420.9Zm0-6.41c-.352,0-.844,1.171-.844,3.075s.491,3.073.844,3.073.844-1.169.844-3.073S3922.54,4414.493,3922.187,4414.493Z" transform="translate(-3882.615 -4378.249)" fill="#231815"/>
      <path id="パス_466" data-name="パス 466" d="M3885.293,4393.126s-.7,8.706-1.4,8.706h2.052a5.4,5.4,0,0,0,2.8-2.709c.669-1.395.857-4.173,1.494-6Z" transform="translate(-3852.222 -4361.001)" fill="#1a1a1a"/>
      <path id="パス_467" data-name="パス 467" d="M3897.336,4382.372h-4.2l-1.576,1.966h4.947a2.586,2.586,0,0,1,1.175-1.648A.327.327,0,0,0,3897.336,4382.372Z" transform="translate(-3858.485 -4352.211)" fill="#262626"/>
      <path id="パス_468" data-name="パス 468" d="M3710.593,4393.126s-.015,8.706,2.611,8.706h29.06c.7,0,1.4-8.706,1.4-8.706Z" transform="translate(-3710.593 -4361.001)" fill="#333"/>
      <path id="パス_469" data-name="パス 469" d="M3710.593,4384.336l.949-1.965h33.7l-1.575,1.965Z" transform="translate(-3710.593 -4352.211)" fill="#4d4d4d"/>
      <path id="パス_470" data-name="パス 470" d="M3901.551,4350.512h-.711v1.774h1.007V4351S3901.823,4350.512,3901.551,4350.512Z" transform="translate(-3866.072 -4326.174)" fill="#ec6c00"/>
      <rect id="長方形_1188" data-name="長方形 1188" width="1.007" height="4.047" transform="translate(34.767 26.113)" fill="#dbdcdc"/>
      <path id="パス_471" data-name="パス 471" d="M3725.493,4242.484c-3.063,0-3.774,1.867-3.774,1.867s-5.505,13.169-5.734,13.667a3.4,3.4,0,0,0-.137,1.387l-.065,2.821h4.3c1.543,0,1.548,1.774,1.548,1.774h0v4.047H3749.6v-9.253l.06-.777s.406-12.182.55-13.357a2.458,2.458,0,0,1,2.275-2.176Zm23.479,14.974c-.022.372-.228,1.236-1.665,1.236h-28.7c-.648,0-.921-.241-1.036-.443a.929.929,0,0,1,.092-.948c.165-.277,1.446-3.447,2.577-6.242,1.417-3.5,2.286-5.646,2.422-5.859l.017-.027a1.626,1.626,0,0,1,1.362-.983c.65-.019,3.075-.028,7.207-.028,4.046,0,9.572.008,16.423.026l.643,0a1.342,1.342,0,0,1,.931.421,1.188,1.188,0,0,1,.336.879C3749.552,4246.173,3749.006,4256.9,3748.972,4257.458Z" transform="translate(-3714.833 -4237.889)" fill="#e2e2e2"/>
      <path id="パス_472" data-name="パス 472" d="M3758.567,4254.742a.792.792,0,0,0-.228-.588.951.951,0,0,0-.646-.3h-.645c-6.851-.017-12.376-.026-16.422-.026-4.129,0-6.55.009-7.2.028-.542.015-.773.379-1.04.8l-.017.026c-.129.208-1.33,3.176-2.389,5.794-1.464,3.621-2.436,6.015-2.6,6.3a.574.574,0,0,0-.088.552c.09.158.336.244.694.244h28.7c.81,0,1.238-.291,1.272-.864S3758.534,4255.423,3758.567,4254.742Z" transform="translate(-3724.209 -4247.158)" fill="#fff" opacity="0.4"/>
      <path id="パス_473" data-name="パス 473" d="M3754.917,4266.2h-28.7c-.648,0-.921-.24-1.036-.442a.929.929,0,0,1,.092-.948c.165-.278,1.447-3.448,2.577-6.243,1.417-3.5,2.286-5.644,2.422-5.858l.017-.026a1.621,1.621,0,0,1,1.361-.983c.65-.019,3.075-.028,7.207-.028,4.046,0,9.571.01,16.423.026l.643,0a1.338,1.338,0,0,1,.93.42,1.186,1.186,0,0,1,.337.88c-.034.681-.58,11.4-.613,11.966C3756.56,4265.341,3756.354,4266.2,3754.917,4266.2Zm-16.055-14.137c-4.129,0-6.55.01-7.2.028-.542.015-.773.379-1.04.8l-.017.026c-.129.207-1.329,3.176-2.389,5.795-1.464,3.621-2.436,6.015-2.6,6.3a.575.575,0,0,0-.088.552c.09.158.336.244.694.244h28.7c.81,0,1.238-.291,1.272-.865s.579-11.281.613-11.962a.79.79,0,0,0-.228-.588.949.949,0,0,0-.646-.3l-.645,0C3748.433,4252.076,3742.908,4252.067,3738.862,4252.067Z" transform="translate(-3722.444 -4245.399)"/>
      <path id="パス_474" data-name="パス 474" d="M3720.081,4350.512h-4.3v1.774h5.846S3721.624,4350.512,3720.081,4350.512Z" transform="translate(-3714.833 -4326.174)" fill="#f29600"/>
      <rect id="長方形_1189" data-name="長方形 1189" width="5.847" height="4.047" transform="translate(0.948 26.113)" fill="#fff"/>
      <path id="長方形_1190" data-name="長方形 1190" d="M1.881,0h0A1.881,1.881,0,0,1,3.762,1.881V3.371A1.881,1.881,0,0,1,1.881,5.252h0A1.881,1.881,0,0,1,0,3.37V1.881A1.881,1.881,0,0,1,1.881,0Z" transform="translate(36.932 15.604)"/>
      <path id="パス_475" data-name="パス 475" d="M3870.2,4350.512h4.334v1.774h-5.881S3868.661,4350.512,3870.2,4350.512Z" transform="translate(-3839.771 -4326.174)" fill="#f29600"/>
      <rect id="長方形_1191" data-name="長方形 1191" width="5.881" height="4.047" transform="translate(28.886 26.113)" fill="#fff"/>
      <path id="パス_476" data-name="パス 476" d="M3747.807,4399.907a.894.894,0,0,1-.893.893h-28.806a.893.893,0,0,1-.893-.893v-.38a.893.893,0,0,1,.893-.894h28.806a.894.894,0,0,1,.893.894Z" transform="translate(-3716.005 -4365.502)"/>
      <path id="長方形_1192" data-name="長方形 1192" d="M1.083,0H3.355A1.083,1.083,0,0,1,4.438,1.083v0A1.083,1.083,0,0,1,3.355,2.166H1.083A1.083,1.083,0,0,1,0,1.083v0A1.083,1.083,0,0,1,1.083,0Z" transform="translate(1.21 33.132)" fill="#c8c9ca"/>
      <path id="長方形_1193" data-name="長方形 1193" d="M1.083,0H3.355A1.083,1.083,0,0,1,4.438,1.083v0A1.083,1.083,0,0,1,3.354,2.166H1.083A1.083,1.083,0,0,1,0,1.083v0A1.083,1.083,0,0,1,1.083,0Z" transform="translate(27.417 33.132)" fill="#c8c9ca"/>
      <path id="長方形_1194" data-name="長方形 1194" d="M1.223,0h9.82a1.222,1.222,0,0,1,1.222,1.222v.851a1.222,1.222,0,0,1-1.222,1.222H1.223A1.223,1.223,0,0,1,0,2.072V1.223A1.223,1.223,0,0,1,1.223,0Z" transform="translate(10.127 34.474)" fill="#d9d9d9"/>
      <path id="パス_477" data-name="パス 477" d="M3935.192,4340.192a.223.223,0,0,0,.224.223h1.042a.223.223,0,0,0,.223-.223v-.67a.223.223,0,0,0-.223-.224h-1.042a.224.224,0,0,0-.224.224Z" transform="translate(-3894.147 -4317.01)" fill="#262626"/>
      <rect id="長方形_1195" data-name="長方形 1195" width="13.46" height="6.984" transform="translate(43.409 23.879)" fill="#b4b4b5"/>
      <path id="パス_478" data-name="パス 478" d="M3948.8,4360.08a.219.219,0,0,1-.175-.213v-.417a.223.223,0,0,1,.222-.224h-.433v-6.032h-.3v6.032h0v.854Z" transform="translate(-3904.707 -4328.367)" fill="#888"/>
      <rect id="長方形_1196" data-name="長方形 1196" width="2.692" height="4.727" transform="translate(43.648 35.823)" fill="#c8c9ca"/>
      <g id="グループ_294" data-name="グループ 294" transform="translate(47.473 31.72)">
        <path id="パス_479" data-name="パス 479" d="M3970.363,4402.039c0,.405.261.4.261.4h2.911a.4.4,0,0,0,.414-.4,11.534,11.534,0,0,1,.71-3.171h-3.573A11.89,11.89,0,0,0,3970.363,4402.039Z" transform="translate(-3970.363 -4397.414)" fill="#b3b3b3"/>
        <path id="パス_480" data-name="パス 480" d="M3979.218,4390.911h-3.644c-.51,0-.932.643-1.253,1.454h3.573C3978.219,4391.554,3978.658,4390.911,3979.218,4390.911Z" transform="translate(-3973.598 -4390.911)" fill="#717071"/>
      </g>
      <rect id="長方形_1197" data-name="長方形 1197" width="13.46" height="0.949" transform="translate(43.409 23.879)" fill="#9e9e9f"/>
      <g id="グループ_295" data-name="グループ 295" transform="translate(45.677 1.662)">
        <path id="パス_481" data-name="パス 481" d="M3983.373,4226.436s.69,1.044,1.291,1.044c.726,0,1.341-1.125,1.341-1.044,0,.1-.518,1.493-1.341,1.493S3983.358,4226.585,3983.373,4226.436Z" transform="translate(-3979.199 -4226.432)" fill="#47856b"/>
        <path id="パス_482" data-name="パス 482" d="M4006.1,4226.436s.69,1.044,1.291,1.044c.727,0,1.34-1.125,1.34-1.044,0,.1-.517,1.493-1.34,1.493S4006.086,4226.585,4006.1,4226.436Z" transform="translate(-3997.773 -4226.432)" fill="#47856b"/>
        <path id="パス_483" data-name="パス 483" d="M3960.534,4226.436s.69,1.044,1.291,1.044c.726,0,1.341-1.125,1.341-1.044,0,.1-.518,1.493-1.341,1.493S3960.519,4226.585,3960.534,4226.436Z" transform="translate(-3960.533 -4226.432)" fill="#47856b"/>
      </g>
      <g id="グループ_296" data-name="グループ 296" transform="translate(45.677 1.563)">
        <path id="パス_484" data-name="パス 484" d="M3983.374,4225.945c0-.237.691.54,1.291.54.727,0,1.341-.809,1.341-.54a1.587,1.587,0,0,1-1.341,1.026C3983.841,4226.972,3983.374,4226,3983.374,4225.945Z" transform="translate(-3979.2 -4225.891)" fill="#27654d"/>
        <path id="パス_485" data-name="パス 485" d="M4006.1,4225.945c0-.237.69.54,1.291.54.727,0,1.34-.809,1.34-.54a1.584,1.584,0,0,1-1.34,1.026C4006.57,4226.972,4006.1,4226,4006.1,4225.945Z" transform="translate(-3997.775 -4225.891)" fill="#27654d"/>
        <path id="パス_486" data-name="パス 486" d="M3960.535,4225.945c0-.237.69.54,1.291.54.726,0,1.341-.809,1.341-.54a1.587,1.587,0,0,1-1.341,1.026C3961,4226.972,3960.535,4226,3960.535,4225.945Z" transform="translate(-3960.535 -4225.891)" fill="#27654d"/>
      </g>
      <g id="グループ_297" data-name="グループ 297" transform="translate(50.152 21.159)">
        <path id="パス_487" data-name="パス 487" d="M3989.582,4337.2c0-.1-.143.237-.31.5-.2.329-.3.278-.3.379s.16.044.328-.2A1.745,1.745,0,0,0,3989.582,4337.2Z" transform="translate(-3988.251 -4336.441)" fill="#47856b"/>
        <path id="パス_488" data-name="パス 488" d="M3989.45,4333.132c0-.1-.156.307-.309.742a4.026,4.026,0,0,0-.255.74c0,.1.162-.127.317-.542A4.041,4.041,0,0,0,3989.45,4333.132Z" transform="translate(-3988.181 -4333.118)" fill="#27654d"/>
        <path id="パス_489" data-name="パス 489" d="M3985.024,4337.2c0-.1.143.237.31.5.205.329.3.278.3.379s-.16.044-.328-.2A1.757,1.757,0,0,1,3985.024,4337.2Z" transform="translate(-3985.024 -4336.441)" fill="#47856b"/>
        <path id="パス_490" data-name="パス 490" d="M3985.355,4333.132c0-.1.156.307.309.742a3.972,3.972,0,0,1,.255.74c0,.1-.163-.127-.318-.542A4.121,4.121,0,0,1,3985.355,4333.132Z" transform="translate(-3985.295 -4333.118)" fill="#27654d"/>
      </g>
      <g id="グループ_298" data-name="グループ 298" transform="translate(55.352 21.159)">
        <path id="パス_491" data-name="パス 491" d="M4018.034,4337.2c0-.1-.143.237-.311.5-.2.329-.3.278-.3.379s.16.044.329-.2A1.763,1.763,0,0,0,4018.034,4337.2Z" transform="translate(-4016.703 -4336.441)" fill="#47856b"/>
        <path id="パス_492" data-name="パス 492" d="M4017.9,4333.132c0-.1-.156.307-.309.742a4.047,4.047,0,0,0-.256.74c0,.1.163-.127.318-.542A4.149,4.149,0,0,0,4017.9,4333.132Z" transform="translate(-4016.633 -4333.118)" fill="#27654d"/>
        <path id="パス_493" data-name="パス 493" d="M4013.477,4337.2c0-.1.143.237.31.5.2.329.3.278.3.379s-.16.044-.329-.2A1.759,1.759,0,0,1,4013.477,4337.2Z" transform="translate(-4013.477 -4336.441)" fill="#47856b"/>
        <path id="パス_494" data-name="パス 494" d="M4013.81,4333.132c0-.1.156.307.308.742a4.047,4.047,0,0,1,.256.74c0,.1-.163-.127-.318-.542A4.138,4.138,0,0,1,4013.81,4333.132Z" transform="translate(-4013.749 -4333.118)" fill="#27654d"/>
      </g>
      <g id="グループ_299" data-name="グループ 299" transform="translate(45.598 21.159)">
        <path id="パス_495" data-name="パス 495" d="M3964.66,4337.2c0-.1-.143.237-.31.5-.2.329-.3.278-.3.379s.161.044.329-.2A1.765,1.765,0,0,0,3964.66,4337.2Z" transform="translate(-3963.329 -4336.441)" fill="#47856b"/>
        <path id="パス_496" data-name="パス 496" d="M3964.53,4333.132c0-.1-.156.307-.309.742a3.993,3.993,0,0,0-.256.74c0,.1.163-.127.318-.542A4.1,4.1,0,0,0,3964.53,4333.132Z" transform="translate(-3963.26 -4333.118)" fill="#27654d"/>
        <path id="パス_497" data-name="パス 497" d="M3960.1,4337.2c0-.1.144.237.31.5.205.329.3.278.3.379s-.159.044-.327-.2A1.758,1.758,0,0,1,3960.1,4337.2Z" transform="translate(-3960.104 -4336.441)" fill="#47856b"/>
        <path id="パス_498" data-name="パス 498" d="M3960.437,4333.132c0-.1.156.307.309.742a4.024,4.024,0,0,1,.256.74c0,.1-.163-.127-.319-.542A4.124,4.124,0,0,1,3960.437,4333.132Z" transform="translate(-3960.376 -4333.118)" fill="#27654d"/>
      </g>
      <path id="パス_499" data-name="パス 499" d="M3961.083,4352.022h0a.079.079,0,0,1-.075-.083l.421-8.753a.08.08,0,0,1,.079-.075h0a.08.08,0,0,1,.075.083l-.421,8.753A.079.079,0,0,1,3961.083,4352.022Z" transform="translate(-3915.241 -4320.125)" fill="#717071"/>
      <path id="パス_500" data-name="パス 500" d="M3988.974,4352.022a.079.079,0,0,1-.078-.075l-.4-8.753a.08.08,0,0,1,.075-.083.078.078,0,0,1,.082.075l.395,8.753a.078.078,0,0,1-.075.083Z" transform="translate(-3937.713 -4320.125)" fill="#717071"/>
      <path id="パス_501" data-name="パス 501" d="M4014.926,4352.022h0a.078.078,0,0,1-.075-.083l.42-8.753a.076.076,0,0,1,.083-.075.079.079,0,0,1,.074.083l-.421,8.753A.079.079,0,0,1,4014.926,4352.022Z" transform="translate(-3959.245 -4320.125)" fill="#717071"/>
    </g>
  </g>
</svg>
