<svg xmlns="http://www.w3.org/2000/svg" xmlns:xlink="http://www.w3.org/1999/xlink" width="140" height="140" viewBox="0 0 140 140"><defs><clipPath id="a"><circle cx="70" cy="70" r="70" transform="translate(53 0.404)" fill="#f7f3e5"/></clipPath><clipPath id="b"><rect width="143.201" height="113.313" fill="none"/></clipPath></defs><g transform="translate(-53 -0.404)"><circle cx="70" cy="70" r="70" transform="translate(53 0.404)" fill="#f7f3e5"/><g clip-path="url(#a)"><g transform="translate(49.799 17.607)"><g clip-path="url(#b)"><path d="M130.493,123.336l-.165-7.282h-.991q.086,3.626.172,7.253h-1.256q-.091-3.627-.181-7.253h-1.179q.095,3.626.19,7.253h-1.07c0,.01,0,.02,0,.029Z" transform="translate(-78.681 -72.463)" fill="#e7e6e2"/><path d="M198.371,123.336v-.029h-1.256q.012-3.627.024-7.253H195.96q-.008,3.626-.015,7.253h-1.256q0-3.627,0-7.253h-1.131q0,3.641,0,7.282Z" transform="translate(-120.858 -72.463)" fill="#e7e6e2"/><path d="M61.551,141.632h0q.126,2.383.253,4.767-.126-2.383-.253-4.767" transform="translate(-38.432 -88.433)" fill="#e7e6e2"/><path d="M61.469,73.893H72.135l.532-.02v.02H82.8q.151,5.523.3,11.047h4.52q-.125-5.524-.25-11.047H98.037l.531-.006v.006H108.7l.006,11.047h4.848q.03-6.737.062-13.472H57.829q-.085-1.587-.168-3.176h0q.442,8.324.883,16.648h3.472q-.273-5.524-.546-11.047" transform="translate(-36.002 -42.641)" fill="#e7e6e2"/><path d="M61.22,123.336h3.44v-.029H63.537q-.183-3.627-.367-7.253H61.991q.188,3.626.376,7.253H61.218q.028.535.057,1.071h0q-.027-.52-.055-1.041" transform="translate(-38.224 -72.463)" fill="#e7e6e2"/><path d="M248.552,103.153q.036-1.714.073-3.429h28.009q.347-6.807.694-13.614-1.434,1.828-2.861,3.657-.832,1.068-1.66,2.136l-.107.139-.169.047-1.528.43q-.318,3.077-.635,6.154l-1.059-.109q.294-2.868.592-5.736l-3.134.881-.067-.237q-.008.212-.017.426l-.02.511H253.169l.015-.547q.156-5.851.312-11.7l.014-.518h13.66l-.022.554-.414,10.416,5.34-1.5,1.2-1.542q-1.605-1.051-3.218-2.1l.581-.892q1.651,1.076,3.294,2.151,1.739-2.231,3.493-4.462.192-3.759.384-7.518H249.117q-.283,13.2-.565,26.406" transform="translate(-155.193 -47.92)" fill="#e7e6e2"/><path d="M247.2,164.365q.007-.319.014-.639-.295,13.791-.59,27.582a6.847,6.847,0,0,1,.717-.042,6.7,6.7,0,0,1,1.087.088.264.264,0,0,1,.222.268q-.01.412-.019.826H252.4q.36-12.961.721-25.922h14.986q-.341,7.777-.682,15.553H274l.926-18.159c-.008.149-.015.3-.023.446Z" transform="translate(-153.989 -102.229)" fill="#e7e6e2"/><path d="M300.8,99.073l-.581.892q1.613,1.051,3.218,2.1l-1.2,1.542-5.34,1.5q-.017.43-.034.86l.067.237,3.134-.881q-.3,2.868-.592,5.736l1.059.109q.317-3.077.635-6.155l1.528-.429.169-.047.107-.139q.829-1.068,1.66-2.136,1.424-1.828,2.861-3.657.047-.922.094-1.845-1.754,2.231-3.492,4.462-1.643-1.076-3.294-2.151" transform="translate(-185.36 -60.417)" fill="#c8c5bd"/><path d="M297.046,121.906" transform="translate(-185.472 -76.117)" fill="#c8c5bd"/><path d="M219.429,142.828a1.084,1.084,0,0,1,.126-.452,1.238,1.238,0,0,1,.294-.382c.294-.247.594-.492.9-.732a.714.714,0,0,0,.168-.213.571.571,0,0,0,.072-.227q-.024-1.135-.047-2.266a.261.261,0,0,1-.172-.061.265.265,0,0,1-.089-.2q.011-.493.021-.987a.265.265,0,0,1,.222-.257c.129-.021.259-.033.389-.048q.295-13.791.59-27.582.018-.858.037-1.716c0-.009,0-.018,0-.026q.049-2.262.1-4.522.282-13.2.565-26.406H206.291q-.03,6.736-.061,13.472h.086q0,.646-.006,1.292h-.085q-.017,3.627-.033,7.253h0v.029q-.022,4.954-.045,9.907,0,.78-.007,1.56,0,.41,0,.821h0q-.024,5.264-.048,10.528h1.741q-.029,4.364-.057,8.727h7.143l-.178,12.565h4.693v-.073Z" transform="translate(-128.678 -47.92)" fill="#bbab94"/><path d="M84.062,117.93H82.884l.073,1.661h1.176q-.036-.83-.071-1.661" transform="translate(-51.752 -73.634)" fill="#947864"/><path d="M90.565,117.93H89.387l.069,1.661h1.176q-.033-.83-.067-1.661" transform="translate(-55.812 -73.634)" fill="#947864"/><path d="M77.558,117.93H76.38l.078,1.661h1.176Z" transform="translate(-47.691 -73.634)" fill="#947864"/><path d="M116.578,117.93H115.4q.026.83.052,1.661h1.176Z" transform="translate(-72.054 -73.634)" fill="#947864"/><path d="M116.8,125.193h-1.174l.052,1.661h1.172q-.025-.831-.05-1.661" transform="translate(-72.197 -78.169)" fill="#947864"/><path d="M77.935,83.225l.532-.02H67.8q.273,5.523.546,11.046h10.01q-.212-5.513-.423-11.026m-8.922,1.041h7.955q.021.534.042,1.067H69.064q-.025-.534-.051-1.067m.131,2.728h7.932l.043,1.067H69.2q-.026-.534-.051-1.067m.131,2.729h7.91l.043,1.067h-7.9q-.026-.534-.051-1.067m.183,3.8q-.025-.534-.051-1.067h7.887l.043,1.067Z" transform="translate(-42.335 -51.952)" fill="#947864"/><path d="M97.614,83.205q.212,5.523.424,11.046h10.009l-.3-11.046ZM98.7,84.266h7.955l.03,1.067H98.74L98.7,84.266m.1,2.728h7.932q.016.534.031,1.067H98.84q-.019-.534-.039-1.067m.1,2.729h7.91l.03,1.067h-7.9q-.02-.534-.039-1.067m.139,3.8q-.02-.534-.039-1.067h7.887l.03,1.067Z" transform="translate(-60.949 -51.952)" fill="#947864"/><path d="M77.894,125.193H76.719l.078,1.661h1.172l-.075-1.661" transform="translate(-47.902 -78.169)" fill="#947864"/><path d="M79.646,116.054h-.083l.283,7.253H78.589l-.044-1.092H77.375l.045,1.092H76.163q-.023-.546-.047-1.092h-1.17q.024.546.048,1.092H73.738q-.024-.546-.05-1.092H72.517q.026.546.051,1.092H71.312q-.026-.546-.053-1.092h-.168q-.025-.534-.051-1.067h.169l-.08-1.661H70.96q-.025-.534-.051-1.067h.169L71,116.758h-.169l-.034-.7H69.785q.178,3.627.357,7.253h-.134v.029h9.916l-.279-7.282" transform="translate(-43.573 -72.463)" fill="#947864"/><path d="M103.572,117.93h-1.178q.03.83.06,1.661h1.176q-.03-.83-.059-1.661" transform="translate(-63.934 -73.634)" fill="#947864"/><path d="M109.068,123.336c0-.01,0-.02,0-.029h-.186q-.1-3.627-.2-7.253h-.919l.02.7h-.26q.024.83.048,1.661h.259q.015.534.03,1.067H107.6q.024.831.048,1.661h.258l.03,1.067h-.258q.016.545.032,1.092h-1.256l-.033-1.092h-1.171l.034,1.092H104.03l-.036-1.092h-1.17l.037,1.092H101.6l-.038-1.092h-1.171q.02.545.04,1.092H99.178q-.136-3.627-.274-7.253h-.03l.279,7.282Z" transform="translate(-61.736 -72.463)" fill="#947864"/><path d="M90.863,125.193H89.689q.034.831.069,1.661H90.93q-.033-.831-.067-1.661" transform="translate(-56.001 -78.169)" fill="#947864"/><path d="M84.378,125.193H83.2l.073,1.661H84.45q-.036-.831-.071-1.661" transform="translate(-51.952 -78.169)" fill="#947864"/><path d="M110.074,117.93H108.9q.029.83.056,1.661h1.176l-.054-1.661" transform="translate(-67.993 -73.634)" fill="#947864"/><path d="M103.832,125.193h-1.174q.03.831.06,1.661h1.172l-.059-1.661" transform="translate(-64.099 -78.169)" fill="#947864"/><path d="M110.317,125.193h-1.174q.028.831.056,1.661h1.173q-.028-.831-.054-1.661" transform="translate(-68.148 -78.169)" fill="#947864"/><path d="M95.843,83.151l-.532.02-.532.02q.211,5.514.423,11.026h1.066q-.212-5.523-.424-11.046v-.02" transform="translate(-59.179 -51.919)" fill="#765f50"/><path d="M97.382,123.336l-.279-7.282H96.037l.279,7.282Z" transform="translate(-59.964 -72.463)" fill="#765f50"/><path d="M78.98,86.032H71.025q.026.534.051,1.067h7.946q-.021-.534-.042-1.067" transform="translate(-44.347 -53.717)" fill="#765f50"/><path d="M79.307,93.3H71.375q.026.534.051,1.067H79.35L79.307,93.3" transform="translate(-44.566 -58.253)" fill="#765f50"/><path d="M79.634,100.56h-7.91l.052,1.067h7.9q-.021-.534-.042-1.067" transform="translate(-44.784 -62.789)" fill="#765f50"/><path d="M72.075,107.824q.026.534.051,1.067H80q-.021-.534-.042-1.067Z" transform="translate(-45.003 -67.324)" fill="#765f50"/><path d="M90.488,116.054H89.309c.009.235.02.469.029.7h1.178q-.015-.352-.028-.7" transform="translate(-55.764 -72.463)" fill="#765f50"/><path d="M83.979,116.054H82.8q.016.352.031.7H84.01l-.03-.7" transform="translate(-51.7 -72.463)" fill="#765f50"/><path d="M77.472,116.054H76.293q.016.352.033.7H77.5q-.016-.352-.032-.7" transform="translate(-47.636 -72.463)" fill="#765f50"/><path d="M72.675,116.759l-.034-.7h-.169q.017.352.034.7Z" transform="translate(-45.251 -72.463)" fill="#765f50"/><path d="M72.826,123.419H73q-.025-.534-.051-1.067h-.169q.026.534.051,1.067" transform="translate(-45.44 -76.395)" fill="#765f50"/><path d="M77.763,122.352H76.587l.05,1.067h1.175l-.048-1.067" transform="translate(-47.82 -76.395)" fill="#765f50"/><path d="M90.746,122.352H89.57q.023.534.044,1.067h1.175q-.021-.534-.043-1.067" transform="translate(-55.927 -76.395)" fill="#765f50"/><path d="M84.255,122.352H83.079l.047,1.067H84.3q-.023-.534-.046-1.067" transform="translate(-51.874 -76.395)" fill="#765f50"/><path d="M78.1,129.616H76.926l.05,1.067h1.171Z" transform="translate(-48.032 -80.931)" fill="#765f50"/><path d="M84.571,129.616H83.4l.047,1.067h1.171Z" transform="translate(-52.073 -80.931)" fill="#765f50"/><path d="M73.176,130.683h.168q-.025-.534-.051-1.067h-.169q.026.534.051,1.067" transform="translate(-45.658 -80.931)" fill="#765f50"/><path d="M91.044,129.616H89.872q.022.534.045,1.067h1.171q-.021-.534-.043-1.067" transform="translate(-56.115 -80.931)" fill="#765f50"/><path d="M108.462,86.032h-7.955q.019.534.039,1.067h7.946l-.03-1.067" transform="translate(-62.755 -53.717)" fill="#765f50"/><path d="M108.706,93.3h-7.932q.02.534.039,1.067h7.924l-.03-1.067" transform="translate(-62.922 -58.253)" fill="#765f50"/><path d="M108.951,100.56h-7.91q.02.534.039,1.067h7.9l-.03-1.067" transform="translate(-63.089 -62.789)" fill="#765f50"/><path d="M101.307,107.824q.02.534.039,1.067h7.879q-.016-.534-.03-1.067Z" transform="translate(-63.255 -67.324)" fill="#765f50"/><path d="M110.011,116.054h-1.179q.012.352.024.7h1.178q-.012-.352-.023-.7" transform="translate(-67.953 -72.463)" fill="#765f50"/><path d="M103.5,116.054h-1.179q.014.352.026.7h1.178l-.025-.7" transform="translate(-63.891 -72.463)" fill="#765f50"/><path d="M116.52,116.054h-1.179q.011.352.022.7h1.178q-.01-.352-.021-.7" transform="translate(-72.018 -72.463)" fill="#765f50"/><path d="M122.109,116.054h-.26l.02.7h.26l-.02-.7" transform="translate(-76.081 -72.463)" fill="#765f50"/><path d="M122.289,122.352h-.259q.015.534.031,1.067h.259q-.015-.534-.03-1.067" transform="translate(-76.194 -76.395)" fill="#765f50"/><path d="M103.73,122.352h-1.175q.019.534.039,1.067h1.174q-.019-.534-.038-1.067" transform="translate(-64.034 -76.395)" fill="#765f50"/><path d="M110.222,122.352h-1.176q.018.534.036,1.067h1.175l-.035-1.067" transform="translate(-68.087 -76.395)" fill="#765f50"/><path d="M116.714,122.352h-1.176q.016.534.033,1.067h1.174q-.016-.534-.032-1.067" transform="translate(-72.141 -76.395)" fill="#765f50"/><path d="M110.465,129.616h-1.172l.036,1.067h1.17Z" transform="translate(-68.241 -80.931)" fill="#765f50"/><path d="M116.937,129.616h-1.172q.017.534.033,1.067h1.171q-.016-.534-.032-1.067" transform="translate(-72.282 -80.931)" fill="#765f50"/><path d="M103.991,129.616h-1.172q.02.534.039,1.067h1.171q-.019-.534-.038-1.067" transform="translate(-64.199 -80.931)" fill="#765f50"/><path d="M122.5,129.616h-.258q.015.534.031,1.067h.258Z" transform="translate(-76.325 -80.931)" fill="#765f50"/><path d="M181.647,125.193h-1.174q0,.831.009,1.661h1.173q0-.831-.008-1.661" transform="translate(-112.685 -78.169)" fill="#947864"/><path d="M149.093,117.93h-1.178l.031,1.661h1.176q-.015-.83-.029-1.661" transform="translate(-92.356 -73.634)" fill="#947864"/><path d="M155.6,117.93h-1.178l.026,1.661h1.176q-.012-.83-.024-1.661" transform="translate(-96.417 -73.634)" fill="#947864"/><path d="M142.74,125.193h-1.174l.035,1.661h1.172q-.016-.831-.033-1.661" transform="translate(-88.392 -78.169)" fill="#947864"/><path d="M142.59,117.93h-1.178l.035,1.661h1.176q-.016-.83-.033-1.661" transform="translate(-88.296 -73.634)" fill="#947864"/><path d="M175.162,125.193h-1.174q.007.831.014,1.661h1.172q-.006-.831-.012-1.661" transform="translate(-108.636 -78.169)" fill="#947864"/><path d="M149.224,125.193H148.05q.015.831.031,1.661h1.172q-.015-.831-.029-1.661" transform="translate(-92.441 -78.169)" fill="#947864"/><path d="M175.106,117.93h-1.178q.007.83.014,1.661h1.176Z" transform="translate(-108.599 -73.634)" fill="#947864"/><path d="M181.61,117.93h-1.178l.009,1.661h1.176q0-.83-.007-1.661" transform="translate(-112.66 -73.634)" fill="#947864"/><path d="M155.709,125.193h-1.175q.013.831.027,1.661h1.172q-.012-.831-.024-1.661" transform="translate(-96.489 -78.169)" fill="#947864"/><path d="M177.089,123.336q0-3.641,0-7.282h-.047q0,3.626,0,7.253h-1.256q0-.546,0-1.092h-1.171l0,1.092h-1.256q0-.546,0-1.092h-1.171q0,.545.006,1.092h-1.256q0-.546-.008-1.092h-1.171l.009,1.092h-1.256q-.006-.546-.011-1.092h-.319q-.005-.534-.011-1.067h.32q-.008-.831-.016-1.661h-.32q-.005-.534-.01-1.067h.32l-.016-1.661h-.321q0-.352-.007-.7h-.857q.039,3.626.078,7.253h-.165c0,.01,0,.02,0,.029Z" transform="translate(-104.382 -72.463)" fill="#947864"/><path d="M166.571,83.205q.064,5.523.128,11.046h10.01q0-5.523-.006-11.046Zm1.059,1.061h7.955l0,1.067H167.64Zm.027,2.728h7.932q0,.534,0,1.067h-7.924q-.006-.534-.011-1.067m.027,2.729h7.91q0,.534,0,1.067h-7.9q-.006-.534-.01-1.067m.038,3.8q-.006-.534-.01-1.067H175.6q0,.533,0,1.067Z" transform="translate(-104.005 -51.952)" fill="#947864"/><path d="M147.583,123.336c0-.01,0-.02,0-.029h-.026q-.044-3.627-.088-7.253h-.959q0,.352.009.7H146.3q.011.83.022,1.661h.219q.007.534.014,1.067h-.218q.011.831.022,1.661h.218q.007.534.014,1.067h-.217q.007.545.015,1.092h-1.256q-.008-.546-.016-1.092h-1.171q.009.545.017,1.092H142.7q-.01-.546-.019-1.092h-1.171q.01.545.02,1.092h-1.256l-.021-1.092h-1.171q.012.545.023,1.092h-1.256q-.081-3.627-.162-7.253H137.5l.165,7.282Z" transform="translate(-85.855 -72.463)" fill="#947864"/><path d="M188.113,117.93h-1.178q0,.83,0,1.661h1.176q0-.83,0-1.661" transform="translate(-116.72 -73.634)" fill="#947864"/><path d="M146.893,83.211l.533-.006H136.761q.124,5.523.249,11.046h10.011Q146.957,88.731,146.893,83.211Zm-8.951,1.055H145.9q.007.534.014,1.067h-7.946q-.011-.534-.023-1.067M138,86.995h7.933q.007.534.014,1.067h-7.923q-.011-.534-.023-1.067m.059,2.729h7.91q.007.534.014,1.067h-7.9q-.011-.534-.023-1.067m.081,3.8q-.011-.534-.023-1.067h7.887q.007.533.014,1.067Z" transform="translate(-85.392 -51.952)" fill="#947864"/><path d="M188.132,125.193h-1.174q0,.831,0,1.661h1.172q0-.831,0-1.661" transform="translate(-116.734 -78.169)" fill="#947864"/><path d="M164.8,83.189l-.531.006-.533.006.127,11.04h1.065q-.064-5.523-.128-11.046Z" transform="translate(-102.236 -51.942)" fill="#765f50"/><path d="M165.4,135.393v-.029h-1.065c0,.01,0,.02,0,.029Z" transform="translate(-102.611 -84.52)" fill="#765f50"/><path d="M147.862,86.032h-7.955q.011.534.023,1.067h7.946q-.007-.534-.014-1.067" transform="translate(-87.356 -53.717)" fill="#765f50"/><path d="M147.995,93.3h-7.933q.011.534.023,1.067h7.923q-.007-.533-.014-1.067" transform="translate(-87.453 -58.253)" fill="#765f50"/><path d="M148.127,100.56h-7.91q.012.534.023,1.067h7.9q-.007-.534-.014-1.067" transform="translate(-87.55 -62.789)" fill="#765f50"/><path d="M140.373,107.824q.011.534.023,1.067h7.878q-.007-.534-.014-1.067Z" transform="translate(-87.647 -67.324)" fill="#765f50"/><path d="M161.116,116.054H160.9q0,.352.009.7h.219q0-.352-.009-.7" transform="translate(-100.462 -72.463)" fill="#765f50"/><path d="M149.059,116.054H147.88q.007.352.013.7h1.178q-.006-.352-.012-.7" transform="translate(-92.335 -72.463)" fill="#765f50"/><path d="M155.568,116.054h-1.179l.011.7h1.177c0-.235-.007-.47-.01-.7" transform="translate(-96.399 -72.463)" fill="#765f50"/><path d="M142.552,116.054h-1.179l.015.7h1.178q-.007-.352-.014-.7" transform="translate(-88.272 -72.463)" fill="#765f50"/><path d="M149.173,122.352H148q.01.534.02,1.067h1.175q-.009-.534-.018-1.067" transform="translate(-92.408 -76.395)" fill="#765f50"/><path d="M142.681,122.352h-1.176q.011.534.023,1.067H142.7q-.01-.534-.021-1.067" transform="translate(-88.354 -76.395)" fill="#765f50"/><path d="M161.2,122.352h-.219l.015,1.067h.218q-.007-.534-.014-1.067" transform="translate(-100.515 -76.395)" fill="#765f50"/><path d="M155.665,122.352h-1.176l.017,1.067h1.175q-.008-.534-.016-1.067" transform="translate(-96.461 -76.395)" fill="#765f50"/><path d="M149.3,129.616h-1.172l.02,1.067h1.171q-.009-.534-.018-1.067" transform="translate(-92.492 -80.931)" fill="#765f50"/><path d="M155.777,129.616H154.6l.017,1.067h1.171l-.016-1.067" transform="translate(-96.534 -80.931)" fill="#765f50"/><path d="M161.3,129.616h-.218l.014,1.067h.217q-.007-.534-.014-1.067" transform="translate(-100.575 -80.931)" fill="#765f50"/><path d="M142.83,129.616h-1.172l.023,1.067h1.171l-.021-1.067" transform="translate(-88.45 -80.931)" fill="#765f50"/><path d="M177.345,86.032H169.39L169.4,87.1h7.946Z" transform="translate(-105.765 -53.717)" fill="#765f50"/><path d="M177.394,93.3h-7.932q.005.534.01,1.067H177.4q0-.533,0-1.067" transform="translate(-105.81 -58.253)" fill="#765f50"/><path d="M177.444,100.56h-7.91q.005.534.011,1.067h7.9q0-.534,0-1.067" transform="translate(-105.855 -62.789)" fill="#765f50"/><path d="M169.606,107.824q.006.534.011,1.067h7.878q0-.534,0-1.067Z" transform="translate(-105.9 -67.324)" fill="#765f50"/><path d="M188.108,116.054h-1.179l0,.7h1.178v-.7" transform="translate(-116.716 -72.463)" fill="#765f50"/><path d="M181.6,116.054h-1.179q0,.352,0,.7H181.6q0-.352,0-.7" transform="translate(-112.653 -72.463)" fill="#765f50"/><path d="M175.091,116.054h-1.179q0,.352.006.7H175.1q0-.352,0-.7" transform="translate(-108.589 -72.463)" fill="#765f50"/><path d="M170.015,116.759l-.007-.7h-.321q0,.352.007.7Z" transform="translate(-105.951 -72.463)" fill="#765f50"/><path d="M175.14,122.352h-1.175q0,.534.009,1.067h1.174q0-.534-.007-1.067" transform="translate(-108.622 -76.395)" fill="#765f50"/><path d="M181.633,122.352h-1.176q0,.534.006,1.067h1.175q0-.534,0-1.067" transform="translate(-112.675 -76.395)" fill="#765f50"/><path d="M188.124,122.352h-1.176q0,.534,0,1.067h1.174q0-.534,0-1.067" transform="translate(-116.728 -76.395)" fill="#765f50"/><path d="M169.761,123.419h.32l-.01-1.067h-.32q.005.534.011,1.067" transform="translate(-105.99 -76.395)" fill="#765f50"/><path d="M169.833,130.683h.319q-.005-.534-.01-1.067h-.319q.005.534.011,1.067" transform="translate(-106.035 -80.931)" fill="#765f50"/><path d="M175.2,129.616h-1.172q0,.534.009,1.067H175.2q0-.534-.008-1.067" transform="translate(-108.659 -80.931)" fill="#765f50"/><path d="M188.143,129.616h-1.172l0,1.067h1.171l0-1.067" transform="translate(-116.743 -80.931)" fill="#765f50"/><path d="M181.67,129.616H180.5l.006,1.067h1.171q0-.534,0-1.067" transform="translate(-112.7 -80.931)" fill="#765f50"/><path d="M73.426,194.912H71.06q-.232-5.284-.464-10.567H63.8l-.572-10.794-.321-5.877,53.828.182q-.024,5.264-.048,10.527H109.6q-.009-2.8-.017-5.6h-9.285q.095,7.217.189,14.436h4.85c0,.066,0,.133,0,.2q-2.629.974-5.249,1.948l.071,5.545h-3.5" transform="translate(-39.278 -104.694)" fill="#c9c6b5"/><path d="M62.621,161.818l.3,5.652c.616-.558,1.24-1.116,1.86-1.674q-.039-.8-.081-1.6H62.748q-.063-1.191-.127-2.381" transform="translate(-39.1 -101.037)" fill="#c9c6b5"/><path d="M72.646,168.3l.155-.139h-.18c.008.046.017.093.025.139" transform="translate(-45.344 -104.996)" fill="#c9c6b5"/><path d="M83.2,244.954h88.431q-.776-2.382-1.55-4.764H81.2q1,2.382,2,4.764" transform="translate(-50.698 -149.972)" fill="#89877b"/><path d="M61.346,137.768q.127,2.384.253,4.767.075,1.407.149,2.815h1.959q-.04-.776-.079-1.552l1.154-.1c.1.552.2,1.1.3,1.656h3.289c.488-.432.972-.864,1.463-1.3l.856.63c-.22.222-.436.444-.656.667h45.665q.023-4.954.045-9.907H61.223l.055,1.041" transform="translate(-38.227 -84.569)" fill="#4086c8"/><path d="M248.39,141.348q-.048,2.261-.1,4.522h30.442q.214-3.976.428-7.951h-30.7q-.037,1.715-.073,3.429" transform="translate(-155.031 -86.115)" fill="#4086c8"/><path d="M165.249,184.112q.073,6.153.147,12.306h3.83q-.023-3.233-.047-6.465l3.282-1.266q-.01-2.288-.019-4.575Z" transform="translate(-103.18 -114.957)" fill="#6dbdd9"/><path d="M163.643,194.649q-.074-6.153-.147-12.306h7.193q.01,2.287.019,4.575l.1-.04h.932q-.008-2.8-.017-5.6h-9.285l.189,14.436h4.85q0-.532-.008-1.065Z" transform="translate(-101.426 -113.188)" fill="#fff"/><path d="M263.755,103.252h11.377q.211-5.319.422-10.637H264.038q-.141,5.319-.283,10.637" transform="translate(-164.686 -57.828)" fill="#6dbdd9"/><path d="M274.823,90.334l.022-.553h-13.66l-.014.518q-.156,5.851-.312,11.7l-.015.547h13.494l.02-.511q.009-.213.017-.426.017-.43.034-.86.207-5.208.414-10.416m-1.508,11.148H261.938q.142-5.319.283-10.637h11.516q-.211,5.319-.422,10.637" transform="translate(-162.869 -56.058)" fill="#fff"/><path d="M250.056,71.468h28.689q.081-1.588.162-3.176H250.124q-.034,1.588-.068,3.176" transform="translate(-156.132 -42.641)" fill="#c9c9c6"/><path d="M57.661,68.292q.084,1.588.168,3.176h55.787q.007-1.588.015-3.176Z" transform="translate(-36.003 -42.641)" fill="#c9c9c6"/><path d="M223.011,68.292H206.647q-.008,1.588-.015,3.176h16.311q.034-1.588.068-3.176" transform="translate(-129.019 -42.641)" fill="#a39580"/><path d="M268.125,199.336q.435-12.458.869-24.914h1.764q-.451,12.241-.9,24.482l.821-.205H270l.4-11,1.468-.406q.248-6.433.5-12.866h1.763l-.5,12.379.253-.07H276.8q.341-7.777.682-15.553H262.5q-.361,12.961-.721,25.922-.066,2.382-.133,4.763h5.721q.039-1.179.079-2.358l.678-.169m-1.562.134h-1.716q.391-12.524.783-25.048h1.764Z" transform="translate(-163.369 -106.881)" fill="#b2ab86"/><path d="M62.748,164.2H64.7q-.06-1.191-.121-2.381H62.621q.063,1.191.127,2.381" transform="translate(-39.1 -101.037)" fill="#aeac9d"/><path d="M71.912,164.2h.18c.888-.794,1.786-1.588,2.683-2.381H71.486q.215,1.191.426,2.381" transform="translate(-44.635 -101.037)" fill="#aeac9d"/><path d="M126.429,164.2h0q0-.411,0-.821l.007-1.56H80.775q-1.179,1.191-2.343,2.381h48Z" transform="translate(-48.972 -101.037)" fill="#aeac9d"/><path d="M321.912,161.469q.011-.223.023-.446.049-.967.1-1.936-.06,1.19-.121,2.381" transform="translate(-200.998 -99.333)" fill="#e0e0e1"/><path d="M248.173,160.83c0,.213-.009.427-.014.64h27.7q.06-1.191.121-2.381H248.21c0,.009,0,.018,0,.027q-.019.857-.037,1.715" transform="translate(-154.948 -99.333)" fill="#c9c9c6"/><path d="M289.343,179.815q-.247,6.433-.5,12.866l1.758-.487q.251-6.189.5-12.379Z" transform="translate(-180.353 -112.274)" fill="#fff"/><path d="M279.765,179.815q-.434,12.457-.869,24.914l1.732-.432q.45-12.241.9-24.482Z" transform="translate(-174.139 -112.274)" fill="#fff"/><path d="M270.169,204.863h1.716l.831-25.048h-1.764q-.391,12.524-.783,25.048" transform="translate(-168.69 -112.274)" fill="#fff"/><path d="M61.058,113.907h1.178q.184,3.627.367,7.253H63.86q-.179-3.626-.357-7.253h1.179l.033.7.08,1.661q.026.534.051,1.067.04.831.08,1.661.026.534.051,1.067t.052,1.092h1.256q-.025-.546-.051-1.092L66.185,119l-.078-1.661q-.025-.534-.05-1.067l-.078-1.661q-.016-.352-.033-.7h1.179q.016.352.032.7l.075,1.661q.024.534.049,1.067.038.831.076,1.661l.048,1.067.05,1.092h1.256q-.024-.546-.048-1.092L68.616,119q-.037-.831-.073-1.661l-.047-1.067-.073-1.661q-.015-.352-.031-.7H69.57q.015.352.03.7.035.831.071,1.661.023.534.046,1.067.035.831.072,1.661l.045,1.067q.024.546.047,1.092h1.256q-.023-.546-.045-1.092T71.047,119q-.034-.831-.069-1.661-.022-.534-.044-1.067-.034-.83-.069-1.661-.014-.352-.029-.7h1.179q.014.352.029.7.033.831.067,1.661.021.534.043,1.067.033.831.067,1.661.021.534.043,1.067l.044,1.092h1.256q-.141-3.626-.282-7.253h1.178q.137,3.627.274,7.253h1.256q-.02-.546-.039-1.092T75.91,119q-.03-.831-.06-1.661c-.014-.356-.026-.711-.039-1.067q-.03-.83-.06-1.661-.014-.352-.026-.7H76.9c.008.235.017.47.024.7q.029.831.059,1.661.018.534.038,1.067.029.831.058,1.661.019.534.038,1.067l.039,1.092h1.256l-.037-1.092L78.342,119q-.028-.831-.056-1.661-.019-.534-.036-1.067-.029-.83-.057-1.661-.012-.352-.024-.7h1.179c.008.235.015.47.023.7q.027.831.054,1.661.017.534.035,1.067.027.831.054,1.661l.035,1.067.036,1.092h1.256l-.034-1.092q-.016-.534-.033-1.067-.026-.831-.052-1.661-.017-.534-.033-1.067-.026-.83-.052-1.661c-.007-.235-.015-.469-.022-.7h1.179q.01.352.021.7l.05,1.661q.016.534.032,1.067.025.831.05,1.661.016.534.032,1.067t.033,1.092h1.256q-.015-.546-.031-1.092T83.2,119q-.024-.831-.048-1.661-.015-.534-.031-1.067-.024-.83-.047-1.661c-.007-.235-.014-.469-.021-.7h1.179q.1,3.627.2,7.253h1.256q-.095-3.626-.19-7.253h1.179q.09,3.627.181,7.253h1.256q-.086-3.626-.172-7.253h1.179q.082,3.627.163,7.253h1.256q-.011-.546-.023-1.092L90.5,119l-.035-1.661-.023-1.067-.035-1.661q-.007-.352-.015-.7H91.57q.007.352.014.7.016.831.033,1.661.011.534.021,1.067.016.831.033,1.661l.021,1.067.021,1.092H92.97q-.01-.546-.02-1.092L92.93,119q-.015-.831-.031-1.661-.01-.534-.02-1.067l-.031-1.661q-.007-.352-.013-.7h1.179c0,.235.008.47.012.7q.014.831.029,1.661.009.534.018,1.067.015.831.029,1.661.01.534.018,1.067t.019,1.092H95.4q-.008-.546-.017-1.092T95.362,119q-.014-.831-.026-1.661-.009-.534-.018-1.067l-.026-1.661-.011-.7h1.179q.005.352.01.7l.025,1.661q.007.534.016,1.067.012.831.024,1.661.007.534.015,1.067t.016,1.092h1.256q-.007-.546-.014-1.092L97.793,119q-.011-.831-.022-1.661-.007-.534-.014-1.067-.011-.83-.022-1.661-.005-.352-.01-.7H98.9q.043,3.627.088,7.253h1.256q-.039-3.626-.079-7.253h1.179l.007.7.016,1.661q.005.534.011,1.067.008.831.016,1.661l.01,1.067q.005.546.011,1.092h1.256l-.009-1.092L102.656,119q-.007-.831-.014-1.661,0-.534-.008-1.067-.007-.83-.014-1.661,0-.352-.006-.7h1.179q0,.352,0,.7l.012,1.661q0,.534.008,1.067.006.831.012,1.661,0,.534.008,1.067t.008,1.092H105.1q0-.546-.006-1.092L105.087,119q0-.831-.009-1.661,0-.534-.006-1.067l-.009-1.661q0-.352,0-.7h1.179l0,.7q0,.831.007,1.661,0,.534,0,1.067,0,.831.008,1.661l0,1.067q0,.546,0,1.092h1.256l0-1.092q0-.534,0-1.067,0-.831,0-1.661,0-.534,0-1.067,0-.83-.005-1.661l0-.7h1.179q0,.352,0,.7,0,.831,0,1.661,0,.534,0,1.067,0,.831,0,1.661,0,.534,0,1.067l0,1.092h1.256q0-3.626,0-7.253h1.179q0,3.627,0,7.253h1.256q.007-3.626.015-7.253h1.178q-.011,3.627-.023,7.253H114.8q.017-3.626.033-7.253h.086q0-.646.006-1.292h-55.2q.029.548.058,1.1.2,3.724.4,7.448h1.257q-.188-3.626-.376-7.253" transform="translate(-37.29 -70.316)" fill="#bdbebf"/><path d="M165.771,21.932c-.594-1.044-1.182-2.089-1.78-3.133H70.924c-.726,1.044-1.445,2.089-2.167,3.133h97.014Z" transform="translate(-42.931 -11.738)" fill="#4086c8"/><path d="M161.574,29.977H63.219q-1.08,1.566-2.151,3.133H163.353c-.589-1.044-1.187-2.088-1.779-3.133" transform="translate(-38.13 -18.717)" fill="#4086c8"/><path d="M166.4,7.625H78.694c-.733,1.044-1.469,2.088-2.2,3.133h91.711q-.9-1.566-1.807-3.133" transform="translate(-47.764 -4.761)" fill="#4086c8"/><path d="M169.642,0H85.594c-.423.6-.84,1.2-1.262,1.8h86.347c-.347-.6-.689-1.2-1.038-1.8" transform="translate(-52.656)" fill="#4086c8"/><path d="M159.192,41.151H55.583q-1.07,1.567-2.137,3.133H160.952c-.583-1.044-1.173-2.089-1.76-3.133" transform="translate(-33.371 -25.694)" fill="#4086c8"/><path d="M103.1,58.324h53.867c-.329-.6-.665-1.2-1-1.8H42c.238-.355.477-.71.716-1.065H155.378c-.578-1.044-1.152-2.088-1.734-3.132H44.822q-2.028,3-4.032,6H103.1Z" transform="translate(-25.469 -32.673)" fill="#4086c8"/><path d="M44.01,61.732H157.978l-.589-1.065H44.726c-.239.355-.478.71-.716,1.065" transform="translate(-27.479 -37.88)" fill="#32699c"/><path d="M159.752,49.493H52.246l-.722,1.064H160.346l-.595-1.064" transform="translate(-32.171 -30.903)" fill="#32699c"/><path d="M162.744,39.381c-.2-.355-.4-.71-.6-1.064H59.861c-.243.355-.484.71-.726,1.064Z" transform="translate(-36.923 -23.925)" fill="#32699c"/><path d="M165.151,28.207h.007l-.607-1.065H67.532c-.245.355-.492.71-.736,1.065h98.355Z" transform="translate(-41.707 -16.947)" fill="#32699c"/><path d="M167.592,17.029l-.61-1.064H75.266l-.741,1.064h93.067Z" transform="translate(-46.533 -9.968)" fill="#32699c"/><path d="M170.054,5.855c-.205-.355-.409-.71-.615-1.065H83.091l-.747,1.065h87.71Z" transform="translate(-51.415 -2.991)" fill="#32699c"/><path d="M381.246,181.3h0Z" transform="translate(-238.045 -113.199)" fill="#bbab94"/><path d="M70.315,272a1.616,1.616,0,0,0-.029-.244,1.7,1.7,0,0,1-.044.246Z" transform="translate(-43.858 -169.681)" fill="#466784"/><rect width="38.783" height="25.606" transform="translate(49.11 64.604)" fill="#c9c6b5"/><path d="M220.6,285.048q.393-2.853.791-5.706-1.64,2.727-3.272,5.454a9.579,9.579,0,0,0,2.481.252" transform="translate(-136.19 -174.418)" fill="#d4d5d5"/><path d="M233.609,282.921a12.4,12.4,0,0,0,2.419-1.44q-2.152-1.93-4.317-3.859c.631,1.766,1.271,3.533,1.9,5.3" transform="translate(-144.678 -173.343)" fill="#d4d5d5"/><path d="M227.293,284.629a11.842,11.842,0,0,0,2.679-.628c-.617-1.74-1.247-3.48-1.869-5.22q-.4,2.924-.811,5.849" transform="translate(-141.919 -174.067)" fill="#d4d5d5"/><path d="M205.582,280.113a5.929,5.929,0,0,0,1.13,1.661q2.483-2.068,4.983-4.136-3.059,1.237-6.113,2.475" transform="translate(-128.363 -173.354)" fill="#d4d5d5"/><path d="M247.977,277.826c.1-.188.2-.377.289-.57h-2.192l1.9.57" transform="translate(-153.645 -173.116)" fill="#d4d5d5"/><path d="M235.086,277.257q1.9,1.693,3.787,3.385a10.878,10.878,0,0,0,1.74-1.979c-1.562-.469-3.136-.938-4.7-1.407Z" transform="translate(-146.785 -173.116)" fill="#d4d5d5"/><path d="M204.166,277.257a6.231,6.231,0,0,0,.206,1.729q2.131-.865,4.271-1.729Z" transform="translate(-127.478 -173.116)" fill="#d4d5d5"/><path d="M210.508,283.326a7.253,7.253,0,0,0,1.921,1.049q1.572-2.632,3.158-5.263-2.544,2.107-5.078,4.214" transform="translate(-131.439 -174.274)" fill="#d4d5d5"/><path d="M192.185,215.251l-.141,4.208q-.319,9.541-.638,19.083h3.034c.006-.112,0-.22.01-.333.459-5.181,5.808-9.876,11.953-10.486s10.691,3.1,10.149,8.276a9.148,9.148,0,0,1-.669,2.543h9.205q.628-11.645,1.257-23.29Z" transform="translate(-119.512 -134.4)" fill="#b4834e"/><path d="M243.114,267.039a6.2,6.2,0,0,0-.173-2.046q-3.093,1.243-6.173,2.487l6.346-.442" transform="translate(-147.835 -165.459)" fill="#b4834e"/><path d="M210.521,275.232l-6.344.442c-.006.107-.008.213-.01.318h4.477l1.878-.76" transform="translate(-127.48 -171.852)" fill="#b4834e"/><path d="M216.946,255.126a12.343,12.343,0,0,0-2.428,1.441q2.164,1.916,4.316,3.832c-.63-1.758-1.252-3.515-1.887-5.273" transform="translate(-133.943 -159.298)" fill="#b4834e"/><path d="M209.68,260.591a10.689,10.689,0,0,0-1.729,1.975c1.994.6,3.975,1.19,5.964,1.785q-2.114-1.88-4.235-3.76" transform="translate(-129.842 -162.71)" fill="#b4834e"/><path d="M236.02,262.336q3.063-1.236,6.133-2.472a5.837,5.837,0,0,0-1.119-1.657q-2.516,2.064-5.014,4.129" transform="translate(-147.368 -161.222)" fill="#b4834e"/><path d="M239.7,274.593H241.9a7.948,7.948,0,0,0,.526-1.6l-6.551.456,3.832,1.147" transform="translate(-147.275 -170.452)" fill="#b4834e"/><path d="M226.036,252.5a12.028,12.028,0,0,0-2.714.631c.637,1.763,1.261,3.526,1.893,5.289q.411-2.96.821-5.92" transform="translate(-139.44 -157.661)" fill="#b4834e"/><path d="M205.306,268.082a8.033,8.033,0,0,0-.793,2.17l6.527-.455c-1.913-.572-3.818-1.144-5.735-1.716" transform="translate(-127.696 -167.387)" fill="#b4834e"/><path d="M238.937,254.779a7.246,7.246,0,0,0-1.931-1.05q-1.6,2.633-3.188,5.266,2.555-2.109,5.119-4.216" transform="translate(-145.993 -158.426)" fill="#b4834e"/><path d="M231.8,252.318q-.4,2.854-.791,5.708,1.647-2.728,3.3-5.456a9.754,9.754,0,0,0-2.512-.252" transform="translate(-144.241 -157.542)" fill="#b4834e"/><path d="M233.98,276.268l.415.371h.826l-1.241-.371" transform="translate(-146.094 -172.499)" fill="#b4834e"/><path d="M226.86,207.63H199.248l-1.465.366-3.092.772-1.212.3h34.16q7.472-1.859,14.976-3.718H233.06q-.016.279-.032.559l-6.168,1.72" transform="translate(-120.806 -128.219)" fill="#c99b69"/><path d="M281.079,232.36c2.331-.588,4.673-1.176,7.008-1.764l.752-12.921,6.051-2.331h1.794l.343-5.464q.142-2.264.284-4.528-7.5,1.859-14.976,3.718-.629,11.645-1.257,23.29" transform="translate(-175.503 -128.219)" fill="#9b6b39"/><path d="M206.816,178.772h27.613q.525-9.819,1.05-19.638H206.31q-.356,9.819-.71,19.638Z" transform="translate(-128.374 -99.361)" fill="#b4834e"/><path d="M213.7,154.554l-.451.125-3.138.869-2.62.726h29.168l6.239-1.72H213.7Z" transform="translate(-129.554 -96.502)" fill="#c99b69"/><path d="M282.351,175.913l6.168-1.72q.016-.279.032-.559.545-9.54,1.089-19.08l-6.239,1.72q-.525,9.819-1.05,19.638" transform="translate(-176.297 -96.502)" fill="#9b6b39"/><path d="M213.091,250.758c-5.549.551-10.385,4.794-10.8,9.477s3.681,8.031,9.164,7.48,10.326-4.8,10.81-9.477-3.621-8.031-9.171-7.48m6.141,2.129q-2.568,2.108-5.119,4.216,1.591-2.633,3.188-5.266a7.26,7.26,0,0,1,1.931,1.05m-5.383-1.578a9.754,9.754,0,0,1,2.512.252q-1.658,2.728-3.3,5.456.4-2.854.791-5.708m-1.028,9.268a1.593,1.593,0,0,1-2.183-.654,1.753,1.753,0,0,1,1.223-2.031,1.594,1.594,0,0,1,2.185.654,1.755,1.755,0,0,1-1.225,2.03m.063-9.2q-.413,2.96-.82,5.92c-.633-1.763-1.256-3.526-1.893-5.289a12.023,12.023,0,0,1,2.713-.631m-3.592.985c.635,1.757,1.257,3.515,1.887,5.273q-2.154-1.916-4.316-3.832a12.34,12.34,0,0,1,2.428-1.441m-3.166,2.053q2.125,1.88,4.235,3.76c-1.99-.6-3.971-1.19-5.965-1.785a10.69,10.69,0,0,1,1.729-1.975m-2.228,2.814c1.917.572,3.821,1.144,5.734,1.716l-6.527.454a8.029,8.029,0,0,1,.793-2.17m-.923,3.446c0-.106,0-.211.01-.319l6.344-.442-1.878.761L203.18,262.4a6.239,6.239,0,0,1-.206-1.729m.532,2.618q3.05-1.237,6.113-2.475-2.5,2.068-4.984,4.136a5.927,5.927,0,0,1-1.129-1.661m1.85,2.293q2.531-2.107,5.078-4.214-1.582,2.632-3.157,5.263a7.248,7.248,0,0,1-1.921-1.049m5.339,1.578a9.584,9.584,0,0,1-2.481-.252q1.63-2.728,3.272-5.454-.395,2.853-.791,5.706m.965-.069q.4-2.924.811-5.849c.621,1.74,1.252,3.48,1.868,5.221a11.838,11.838,0,0,1-2.679.628m3.557-.984c-.627-1.767-1.266-3.533-1.9-5.3q2.162,1.93,4.317,3.859a12.408,12.408,0,0,1-2.42,1.44m3.156-2.052q-1.887-1.692-3.787-3.385l-.415-.371,1.241.371c1.565.469,3.139.938,4.7,1.407a10.857,10.857,0,0,1-1.74,1.978m2.533-3.385c-.087.193-.187.381-.289.569l-1.9-.569-3.832-1.147,6.551-.456a7.983,7.983,0,0,1-.526,1.6m.658-2.561-6.346.442q3.084-1.244,6.173-2.487a6.206,6.206,0,0,1,.173,2.046m-6.627-.465q2.5-2.065,5.014-4.129a5.837,5.837,0,0,1,1.119,1.657q-3.073,1.236-6.133,2.472" transform="translate(-126.287 -156.533)" fill="#807878"/><path d="M211.431,248.345c-6.145.61-11.494,5.3-11.953,10.486-.01.113,0,.221-.01.333-.238,5,4.219,8.54,10.149,7.943,5.047-.508,9.6-3.849,11.294-7.943a9.13,9.13,0,0,0,.669-2.543c.543-5.18-4-8.886-10.149-8.276m9.083,8.382c-.485,4.682-5.33,8.925-10.81,9.477s-9.583-2.8-9.164-7.48,5.254-8.925,10.8-9.476,9.657,2.8,9.171,7.48" transform="translate(-124.54 -155.023)" fill="#3c3939"/><path d="M225.68,269.575a1.753,1.753,0,0,0-1.223,2.03,1.593,1.593,0,0,0,2.183.654,1.755,1.755,0,0,0,1.224-2.031,1.594,1.594,0,0,0-2.185-.654" transform="translate(-140.107 -168.216)" fill="#3a3736"/><path d="M300.2,238.159l-.752,12.921q-.086,1.473-.171,2.946h16.829q.543-7.933,1.086-15.867Z" transform="translate(-186.868 -148.704)" fill="#199bdc"/><path d="M301.739,234.285H318.73q3.033-1.165,6.076-2.331H307.79q-3.029,1.165-6.051,2.331" transform="translate(-188.402 -144.829)" fill="#70b7e7"/><path d="M344.086,250.151q3.006-1.165,6.019-2.331.571-7.934,1.142-15.867-3.041,1.165-6.075,2.331-.543,7.933-1.086,15.867" transform="translate(-214.843 -144.829)" fill="#008ed6"/><path d="M281.326,199.859v-.027a2.577,2.577,0,0,0-.266-1.069,2.8,2.8,0,0,0-.662-.906h0c-.676-.591-1.37-1.18-2.074-1.755h0a1.521,1.521,0,0,1-.365-.485,1.321,1.321,0,0,1-.153-.535q.178-2.738.353-5.465a.65.65,0,0,1-.114.008,17,17,0,0,0-2.405-.17,17.191,17.191,0,0,0-2.452.175.6.6,0,0,1-.1-.007q.057,2.707.113,5.42a1.35,1.35,0,0,1-.174.542,1.681,1.681,0,0,1-.4.51c-.729.575-1.447,1.163-2.15,1.753a2.961,2.961,0,0,0-.7.914,2.594,2.594,0,0,0-.3,1.082v.005l0,.17q-.039,2.926-.082,5.857h0c-.012.952-.027,1.907-.04,2.861q-.033,2.23-.062,4.463-.06,4.3-.121,8.61a13.668,13.668,0,0,1,1.4.106q.172-8.483.342-16.966a.636.636,0,0,1,.634-.622h.326a.634.634,0,0,1,.634.647q-.175,8.635-.351,17.27a4.71,4.71,0,0,1,1.76.87,1.644,1.644,0,0,1,.61,1.174h0l0,.028v.041h0q-.021.991-.042,1.983c.117,0,.234.013.351.013.175,0,.349-.013.524-.019a1.279,1.279,0,0,1-.182-.644v-.027q.136-6.1.272-12.2h0v-.007s0-.013,0-.02h0v-.02h0l0-.062c0-.011.008-.019.01-.029a1.311,1.311,0,0,1,.16-.5,1.767,1.767,0,0,1,.388-.456,3.6,3.6,0,0,1,1.105-.607,9.6,9.6,0,0,1,3.2-.492v0c.234,0,.448.024.673.037q.044-1.479.088-2.958.07-2.345.14-4.688.054-1.819.108-3.639l0-.143Zm-8.795,3.393a.636.636,0,0,1-.634.622h-.326a.634.634,0,0,1-.634-.647q.025-1.255.051-2.509a.635.635,0,0,1,.634-.621h.326a.635.635,0,0,1,.634.647q-.025,1.255-.051,2.509" transform="translate(-168.06 -118.294)" fill="#3a657b"/><path d="M278,180.548q-.025,1.183-.049,2.362a.637.637,0,0,0,.214.489.629.629,0,0,0,.41.145.648.648,0,0,0,.1.007,17.139,17.139,0,0,1,4.857-.006.618.618,0,0,0,.115-.008.625.625,0,0,0,.385-.136.635.635,0,0,0,.225-.469c0-.13.006-.258.009-.388.015-.659.029-1.318.045-1.975a.633.633,0,0,0-.532-.642,16.189,16.189,0,0,0-2.6-.21,16.411,16.411,0,0,0-1.717.1c-.311.033-.623.064-.932.115a.633.633,0,0,0-.531.613" transform="translate(-173.547 -112.215)" fill="#5182c2"/><path d="M274.471,246.977l.352-17.27a.634.634,0,0,0-.634-.647h-.326a.636.636,0,0,0-.634.622q-.171,8.483-.342,16.966a10.921,10.921,0,0,1,1.233.226c.123.032.236.068.353.1" transform="translate(-170.386 -143.022)" fill="#fff"/><path d="M274.9,217.786h-.326a.636.636,0,0,0-.635.621q-.025,1.255-.05,2.509a.634.634,0,0,0,.634.648h.326a.636.636,0,0,0,.634-.622q.025-1.254.05-2.509a.634.634,0,0,0-.634-.647" transform="translate(-171.014 -135.983)" fill="#fff"/><path d="M294.531,254.45a3.629,3.629,0,0,1-1.105.606,9.6,9.6,0,0,1-3.194.493,11.637,11.637,0,0,1-1.312-.073,9.19,9.19,0,0,1-1.17-.208,4.293,4.293,0,0,1-1.769-.815,1.443,1.443,0,0,1-.542-1.076h0q-.136,6.1-.272,12.2v-.019h0a.632.632,0,0,1,1.263.038h0l.007.014.1.118a2.265,2.265,0,0,0,.687.37,8.114,8.114,0,0,0,2.705.41,8.975,8.975,0,0,0,2.352-.29,2.553,2.553,0,0,0,1.185-.587l.04-.062h0a.633.633,0,0,1,1.266.039q.16-6.113.319-12.226h0a1.473,1.473,0,0,1-.568,1.068m-.3,7.853a.637.637,0,0,1-.221.465,3.338,3.338,0,0,1-1.03.568,7.188,7.188,0,0,1-1.349.337,10.687,10.687,0,0,1-3.186,0,6.978,6.978,0,0,1-1.337-.338,3.185,3.185,0,0,1-1.015-.575.633.633,0,0,1-.211-.486q.048-2.167.1-4.333a.635.635,0,0,1,1.058-.459,1.985,1.985,0,0,0,.612.331,5.7,5.7,0,0,0,1.094.273,9.074,9.074,0,0,0,1.4.1,9.214,9.214,0,0,0,1.4-.1,5.926,5.926,0,0,0,1.111-.275,2.168,2.168,0,0,0,.642-.338.634.634,0,0,1,1.048.5q-.056,2.167-.112,4.333" transform="translate(-178.055 -158.206)" fill="#56a4d0"/><path d="M285.916,253.009c0,.01-.008.019-.01.029l0,.061h0c0-.031.011-.06.014-.091" transform="translate(-178.513 -157.976)" fill="#56a4d0"/><path d="M285.892,253.307v0Z" transform="translate(-178.508 -158.162)" fill="#56a4d0"/><path d="M285.169,285.814h0Z" transform="translate(-178.056 -178.459)" fill="#56a4d0"/><path d="M296.017,250.964c.073.022.149.032.22.059a1.226,1.226,0,0,1,.446.273.816.816,0,0,1,.16.264v0c.008.018.015.035.021.053a.53.53,0,0,1,.02.05.589.589,0,0,1,.019.155h0a.058.058,0,0,1,0,.013.751.751,0,0,1-.229.52,1.07,1.07,0,0,1-.266.188,2.192,2.192,0,0,1-.4.144c.317.031.646.053.992.053a9.048,9.048,0,0,0,2.366-.291,2.583,2.583,0,0,0,1.193-.588l.034-.054v0l-.1-.117a2.283,2.283,0,0,0-.691-.37,8.226,8.226,0,0,0-2.724-.409,10.278,10.278,0,0,0-1.061.057" transform="translate(-184.826 -156.663)" fill="#e4e4e5"/><path d="M289.431,253.083v-.021l0-.018h0a.035.035,0,0,1,0-.014l.014-.122.009,0c0-.008,0-.015,0-.023a.676.676,0,0,0-.147.133l-.033.053v0l.1.118c.017.015.054.035.076.051a.808.808,0,0,1-.029-.163Z" transform="translate(-180.624 -157.901)" fill="#e4e4e5"/><path d="M293.225,254.706h0v0Z" transform="translate(-183.087 -158.847)" fill="#e4e4e5"/><path d="M290.759,248.164v-.635a9.6,9.6,0,0,0-3.2.493,3.605,3.605,0,0,0-1.105.606,1.779,1.779,0,0,0-.388.456,1.311,1.311,0,0,0-.16.5c0,.03-.013.059-.014.091h0v.021h0v.026a1.443,1.443,0,0,0,.542,1.076,4.292,4.292,0,0,0,1.769.815,9.239,9.239,0,0,0,1.171.208,11.635,11.635,0,0,0,1.312.073,9.6,9.6,0,0,0,3.194-.492,3.624,3.624,0,0,0,1.1-.606,1.474,1.474,0,0,0,.568-1.067h0V249.7a1.44,1.44,0,0,0-.542-1.075,4.291,4.291,0,0,0-1.768-.813,10.036,10.036,0,0,0-1.809-.243c-.225-.013-.439-.038-.673-.038Zm2.724,1.044a2.277,2.277,0,0,1,.691.37l.1.118v0l-.035.054a2.574,2.574,0,0,1-1.193.588,9.065,9.065,0,0,1-2.366.29c-.346,0-.675-.021-.992-.052-.03.009-.059.024-.089.032a4.2,4.2,0,0,1-.957.137v-.333h0v.333a1.742,1.742,0,0,1-.616-.108,1.184,1.184,0,0,1-.535-.386.913.913,0,0,1-.149-.353c-.022-.017-.059-.036-.076-.051l-.1-.118v0l.034-.053a.662.662,0,0,1,.146-.133.933.933,0,0,1,.161-.373,1.128,1.128,0,0,1,.348-.292,1.677,1.677,0,0,1,.811-.2,4.083,4.083,0,0,1,1.034.174,10.273,10.273,0,0,1,1.061-.058,8.225,8.225,0,0,1,2.724.41" transform="translate(-178.507 -154.554)" fill="#acadae"/><path d="M292.723,252.16a.751.751,0,0,0,.229-.52.017.017,0,0,0,0-.008l0,0a.59.59,0,0,0-.019-.155.439.439,0,0,0-.02-.05.491.491,0,0,0-.021-.053v0a.823.823,0,0,0-.159-.264,1.231,1.231,0,0,0-.446-.273c-.071-.026-.147-.037-.22-.059a4.1,4.1,0,0,0-1.034-.174,1.677,1.677,0,0,0-.811.2,1.129,1.129,0,0,0-.348.293.93.93,0,0,0-.161.373c0,.007,0,.015,0,.022l-.009,0-.014.114a.132.132,0,0,0,0,.021h0l0,.018v.02h0a.8.8,0,0,0,.029.163.924.924,0,0,0,.149.353,1.179,1.179,0,0,0,.535.385,1.739,1.739,0,0,0,.616.108v0a4.218,4.218,0,0,0,.957-.137c.03-.008.059-.024.09-.032a2.185,2.185,0,0,0,.4-.144,1.064,1.064,0,0,0,.266-.188" transform="translate(-180.872 -156.47)" fill="#4b4648"/><path d="M294.161,284.21a.633.633,0,0,0-.648.611h0l-.04.062a2.557,2.557,0,0,1-1.185.587,8.96,8.96,0,0,1-2.352.29,8.115,8.115,0,0,1-2.705-.41,2.264,2.264,0,0,1-.687-.37l-.1-.118-.007-.014h0a.632.632,0,0,0-1.263-.038h0v.046a1.28,1.28,0,0,0,.182.644,1.714,1.714,0,0,0,.358.43,4.259,4.259,0,0,0,1.761.815,10.3,10.3,0,0,0,2.469.281,9.494,9.494,0,0,0,3.179-.493,3.6,3.6,0,0,0,1.1-.607,1.471,1.471,0,0,0,.564-1.069.634.634,0,0,0-.618-.65m-8.994.6h0Z" transform="translate(-178.054 -177.457)" fill="#acadae"/><path d="M295.161,263.933a.635.635,0,0,0-.686.092,2.159,2.159,0,0,1-.642.338,5.952,5.952,0,0,1-1.111.274,9.17,9.17,0,0,1-1.4.1,9.034,9.034,0,0,1-1.4-.1,5.7,5.7,0,0,1-1.094-.273,1.988,1.988,0,0,1-.612-.331.635.635,0,0,0-1.058.458q-.049,2.166-.1,4.333a.633.633,0,0,0,.211.486,3.185,3.185,0,0,0,1.015.576,7.01,7.01,0,0,0,1.337.338,10.682,10.682,0,0,0,3.186,0,7.151,7.151,0,0,0,1.349-.337,3.336,3.336,0,0,0,1.03-.568.638.638,0,0,0,.221-.465q.056-2.166.112-4.333a.636.636,0,0,0-.362-.589" transform="translate(-179.239 -164.759)" fill="#fff"/><path d="M244.58,261.243a5.923,5.923,0,0,1-1.561-2.352h0a6.253,6.253,0,0,1-.408-2.183,4.457,4.457,0,0,1,.45-2.033,2.734,2.734,0,0,1,1.415-1.336,2.478,2.478,0,0,1,.917-.173,3.446,3.446,0,0,1,2.247.954,5.905,5.905,0,0,1,1.563,2.354h0a6.28,6.28,0,0,1,.4,2.171,4.49,4.49,0,0,1-.451,2.04c-.029.056-.067.107-.1.161q.482-.086,1.005-.136l.017-.06.36-.169a.635.635,0,0,0,.275-.9l-.436-.727a7.5,7.5,0,0,0-.221-1.564l.219-.625a.634.634,0,0,0-.291-.766l-.552-.3a7.273,7.273,0,0,0-.854-1.312l-.147-.846a.635.635,0,0,0-.82-.5l-.358.116a4.276,4.276,0,0,0-1.013-.476l-.449-.651a.634.634,0,0,0-1.1.1l-.2.449a2.893,2.893,0,0,0-.4.115,2.855,2.855,0,0,0-.361.187l-.435-.191a.634.634,0,0,0-.885.654q.046.395.091.79c-.03.053-.068.1-.1.155a4.676,4.676,0,0,0-.34.916l-.36.169a.635.635,0,0,0-.273.9l.439.727a7.489,7.489,0,0,0,.225,1.566l-.217.623a.635.635,0,0,0,.292.764l.552.305a7.314,7.314,0,0,0,.855,1.312q.074.423.148.846a.634.634,0,0,0,.82.494l.355-.115a4.424,4.424,0,0,0,.7.373,1.61,1.61,0,0,1,.493-.983,3.789,3.789,0,0,1-1.516-.845" transform="translate(-150.689 -157.131)" fill="#878788"/><path d="M252.65,282.252v0Z" transform="translate(-157.751 -176.235)" fill="#ab6354"/><path d="M252.648,282.322h0v0Z" transform="translate(-157.751 -176.279)" fill="#ab6354"/><path d="M263.439,283.591a4.28,4.28,0,0,1-1.31.722,11.554,11.554,0,0,1-3.868.6,12.6,12.6,0,0,1-3.014-.343,5.139,5.139,0,0,1-2.115-.974,1.637,1.637,0,0,1-.615-1.211h0v-.006h0q-.039,2.344-.079,4.687v0l.014-.119a.634.634,0,0,1,.749-.493.625.625,0,0,1,.494.627h.012v.007c0,.019.008.1.185.263a2.921,2.921,0,0,0,.894.485,10.127,10.127,0,0,0,3.387.516,11.448,11.448,0,0,0,2.721-.308,4.133,4.133,0,0,0,1.616-.705,1.084,1.084,0,0,0,.11-.109c.083-.1.091-.153.09-.168h0a.634.634,0,1,1,1.268.028q.029-1.366.059-2.731.021-.992.042-1.983a1.665,1.665,0,0,1-.64,1.21" transform="translate(-157.619 -176.313)" fill="#ab6354"/><path d="M257.107,280.989a10.178,10.178,0,0,0,3.4.516,11.483,11.483,0,0,0,2.729-.308,4.152,4.152,0,0,0,1.62-.705c.179-.157.2-.248.2-.273v-.005c0-.019-.008-.1-.185-.263a2.948,2.948,0,0,0-.894-.484,10.173,10.173,0,0,0-3.4-.515,11.523,11.523,0,0,0-2.732.307,4.153,4.153,0,0,0-1.619.705c-.185.163-.2.255-.2.275v0c0,.02.009.1.185.263a2.938,2.938,0,0,0,.9.484" transform="translate(-159.86 -174.174)" fill="#5c5b5c"/><path d="M247.7,265.712a1.637,1.637,0,0,0,.615,1.21,5.138,5.138,0,0,0,2.115.974,12.586,12.586,0,0,0,3.014.343,11.551,11.551,0,0,0,3.868-.6,4.267,4.267,0,0,0,1.31-.722,1.664,1.664,0,0,0,.64-1.21h0v-.041l0-.028h0a1.646,1.646,0,0,0-.61-1.174,4.717,4.717,0,0,0-1.761-.87c-.117-.035-.229-.072-.353-.1a10.989,10.989,0,0,0-1.233-.226,13.644,13.644,0,0,0-1.4-.106c-.128,0-.253-.011-.384-.011v0c-.465,0-.91.029-1.344.07q-.523.05-1.005.136c.032-.054.07-.105.1-.162a4.484,4.484,0,0,0,.451-2.04,6.273,6.273,0,0,0-.4-2.171h0a5.908,5.908,0,0,0-1.563-2.354,3.446,3.446,0,0,0-2.247-.954,2.47,2.47,0,0,0-.917.173,2.735,2.735,0,0,0-1.415,1.335,4.465,4.465,0,0,0-.45,2.033,6.262,6.262,0,0,0,.408,2.183h0a5.923,5.923,0,0,0,1.561,2.352,3.789,3.789,0,0,0,1.516.845,1.611,1.611,0,0,0-.494.983c0,.016-.007.031-.007.048h0l0,.029v.026h0v.029Zm1.268-.008c0-.02.012-.112.2-.274a4.142,4.142,0,0,1,1.619-.7,11.5,11.5,0,0,1,2.732-.308,10.174,10.174,0,0,1,3.4.515,2.947,2.947,0,0,1,.894.484c.177.16.186.243.185.263v.005c0,.025-.02.116-.2.273a4.153,4.153,0,0,1-1.62.705,11.458,11.458,0,0,1-2.729.308,10.179,10.179,0,0,1-3.4-.516,2.938,2.938,0,0,1-.9-.485c-.177-.159-.186-.243-.186-.263Z" transform="translate(-152.805 -159.641)" fill="#acadae"/><path d="M263.357,293.21a.635.635,0,0,0-.648.621h0c0,.015-.007.072-.09.169a1.113,1.113,0,0,1-.11.109,4.141,4.141,0,0,1-1.616.705,11.443,11.443,0,0,1-2.722.307,10.123,10.123,0,0,1-3.387-.516,2.929,2.929,0,0,1-.894-.485c-.177-.16-.186-.244-.185-.263v-.007h-.012a.626.626,0,0,0-.494-.627.634.634,0,0,0-.749.493l-.014.118v.023h0a1.635,1.635,0,0,0,.616,1.214,5.13,5.13,0,0,0,2.111.974,12.539,12.539,0,0,0,3.008.343,11.5,11.5,0,0,0,3.86-.6,4.261,4.261,0,0,0,1.308-.722,1.665,1.665,0,0,0,.639-1.209.634.634,0,0,0-.62-.649" transform="translate(-157.618 -183.077)" fill="#905347"/><path d="M316.58,286.773v0h0Z" transform="translate(-197.669 -179.055)" fill="#98b5c8"/><path d="M322.3,240.544c0-.144.009-.288.013-.432a.61.61,0,0,1-.083.017h-2.4a.623.623,0,0,1-.119-.024c0,.143-.008.287-.012.431a3.584,3.584,0,0,0-1.436.944,4.229,4.229,0,0,0-1.059,2.748v0l0,.118c0,.15.009.294.022.433h0q.061,1.224.059,2.448a96.449,96.449,0,0,1-.712,10.409l-.008.124a1.221,1.221,0,0,0,.229.7,1.187,1.187,0,0,0,.612.45,10.35,10.35,0,0,0,3.067.463,10.612,10.612,0,0,0,3.089-.462h0a1.27,1.27,0,0,0,.873-1.181v-.016h0v-.038c-.111-2.191-.207-4.42-.207-6.666a57.326,57.326,0,0,1,.3-6.2h0a5.076,5.076,0,0,0,.052-.545v-.006l0-.143a3.993,3.993,0,0,0-.956-2.674,3.352,3.352,0,0,0-1.326-.9m-3.525,17.773c-.108.014-.219.031-.331.049a.635.635,0,0,1-.738-.669c.22-3.252.306-5.357.306-8.16,0-.68-.005-1.4-.014-2.191a.634.634,0,0,1,.74-.633c.112.019.22.035.328.049a.633.633,0,0,1,.553.61c.051,1.655.081,2.836.081,3.88,0,1.952-.107,3.4-.375,6.49a.637.637,0,0,1-.549.575m2.46.118a.636.636,0,0,1-.453.181l-.292,0-.292,0a.634.634,0,0,1-.642-.667c.316-6.125.275-4.729.315-10.854a.634.634,0,0,1,.642-.63l.293,0,.295,0a.635.635,0,0,1,.642.667c-.315,6.125-.276,4.73-.319,10.855a.633.633,0,0,1-.19.449m2.044-2.613c0,.6,0,1.23.01,1.913a.633.633,0,0,1-.74.632c-.108-.018-.219-.035-.327-.049a.635.635,0,0,1-.55-.61c-.047-1.619-.076-2.785-.076-3.812,0-1.987.107-3.436.387-6.559a.634.634,0,0,1,.549-.572c.109-.014.221-.031.332-.05a.634.634,0,0,1,.737.67c-.236,3.358-.322,5.492-.322,8.437" transform="translate(-197.657 -149.918)" fill="#98b5c8"/><path d="M321.519,258.345a.633.633,0,0,0-.553-.61c-.107-.014-.216-.03-.328-.049a.634.634,0,0,0-.74.633c.009.789.015,1.511.015,2.191,0,2.8-.087,4.909-.307,8.161a.635.635,0,0,0,.738.669c.112-.019.223-.035.331-.05a.637.637,0,0,0,.549-.575c.267-3.087.375-4.538.375-6.49,0-1.043-.03-2.225-.081-3.88" transform="translate(-199.558 -160.891)" fill="#cee4f1"/><path d="M326.544,257.231a.638.638,0,0,0-.465-.195l-.295,0-.294,0a.635.635,0,0,0-.642.63c-.04,6.125,0,4.73-.315,10.855a.634.634,0,0,0,.642.667l.293,0,.292,0a.634.634,0,0,0,.643-.63c.043-6.124,0-4.73.319-10.854a.64.64,0,0,0-.177-.473" transform="translate(-202.634 -160.49)" fill="#c0e2ee"/><path d="M331.233,257.686c-.111.019-.224.035-.333.05a.635.635,0,0,0-.549.572c-.279,3.123-.387,4.573-.387,6.559,0,1.027.029,2.192.076,3.812a.636.636,0,0,0,.55.61c.108.015.219.031.327.049a.634.634,0,0,0,.741-.632c-.008-.682-.01-1.314-.01-1.913,0-2.945.086-5.08.322-8.437a.635.635,0,0,0-.737-.671" transform="translate(-206.026 -160.891)" fill="#cee4f1"/><path d="M326.608,234.761a.608.608,0,0,0,.083-.017.627.627,0,0,0,.551-.6q.03-.992.059-1.984a.634.634,0,0,0-.634-.653h-2.4a.635.635,0,0,0-.634.616q-.029.992-.057,1.984a.632.632,0,0,0,.18.46.624.624,0,0,0,.336.169.652.652,0,0,0,.119.024Zm-2.714-.749a.315.315,0,0,0,.017-.585.315.315,0,0,0,.017-.585.315.315,0,0,0,.017-.585.317.317,0,0,1,.317-.317h2.4a1.213,1.213,0,0,0,.3.9.315.315,0,0,0-.017.585.315.315,0,0,0-.018.585.317.317,0,0,1-.317.317h-2.4a.317.317,0,0,1-.317-.317" transform="translate(-202.036 -144.551)" fill="#7b91a4"/><path d="M327.145,235.047a1.214,1.214,0,0,1,.335-.9.315.315,0,0,1,.017-.585.315.315,0,0,1,.017-.585.317.317,0,0,0-.317-.317h-2.4a1.219,1.219,0,0,1-.334.9.315.315,0,0,1-.017.585.315.315,0,0,1-.017.584.317.317,0,0,0,.317.317Z" transform="translate(-202.569 -145.269)" fill="#597c94"/><path d="M61.759,249.938H55.883q-.4-7.433-.8-14.865h21.8q.045,1.343.09,2.686.2,6.09.407,12.18H75.445" transform="translate(-34.392 -146.777)" fill="#b4834e"/><path d="M39.687,230.209H57.312l.935.233,1.973.493.773.193h-21.8q-4.769-1.187-9.559-2.373h6.1l.02.357,3.937,1.1" transform="translate(-18.502 -142.831)" fill="#c99b69"/><path d="M35.519,244.867c1.491.375,2.985.75,4.473,1.126q-.4-7.433-.8-14.865-4.769-1.187-9.559-2.373l.181,2.891.219,3.487.534,8.1Z" transform="translate(-18.501 -142.831)" fill="#9b6b39"/><path d="M72.913,211.79H55.289q-.335-6.267-.67-12.535H73.237l.453,12.535Z" transform="translate(-34.103 -124.413)" fill="#b4834e"/><path d="M48.669,209.965l-3.937-1.1-.02-.357q-.348-6.089-.7-12.178L48,197.43q.335,6.267.67,12.535" transform="translate(-27.484 -122.587)" fill="#9b6b39"/><path d="M62.7,196.313l.288.08,2,.555,1.672.464H48.045l-3.983-1.1H62.7Z" transform="translate(-27.512 -122.576)" fill="#c99b69"/><path d="M66.821,191.162q.016.3.033.6h4.167q-.015-.3-.031-.6Z" transform="translate(-41.722 -119.359)" fill="#474645"/><path d="M61.038,196.3h7.806l-.009-.181-.047-.976H57.322l.058.976c0,.06.007.121.011.181Z" transform="translate(-35.791 -121.843)" fill="#474645"/><path d="M50.962,168.273q.014.247.028.5.028.5.056,1h4.163l-.046-.893H51q-.017-.3-.033-.6H63.79l-.074-1.695-.53-12.075H41.422q.441,6.884.882,13.77h8.658Zm-7.546-1.228q-.356-5.657-.712-11.314H62.036l.509,11.314Z" transform="translate(-25.863 -96.47)" fill="#5f5e5e"/><path d="M64.167,157.772H44.835q.356,5.657.712,11.314H64.676q-.254-5.657-.509-11.314" transform="translate(-27.994 -98.511)" fill="#58aad1"/><path d="M116.02,208.9h0Z" transform="translate(-72.441 -130.432)" fill="#3799d4"/><path d="M21.823,284.743a6.648,6.648,0,0,1-1.862.787,20.906,20.906,0,0,1-5.42.634,24.393,24.393,0,0,1-3.815-.284,11.791,11.791,0,0,1-2.917-.8,3.483,3.483,0,0,1-1.353-.98,1.88,1.88,0,0,1-.362-.8,1.555,1.555,0,0,0-.015.163l0,.065h0v.022h0a1.832,1.832,0,0,0,.39,1.02,3.482,3.482,0,0,0,1.353.98,11.791,11.791,0,0,0,2.915.8,24.441,24.441,0,0,0,3.815.284A20.919,20.919,0,0,0,19.976,286a6.663,6.663,0,0,0,1.861-.788,2.711,2.711,0,0,0,.7-.65,1.8,1.8,0,0,0,.358-1.06v-.047l-.073,0a1.867,1.867,0,0,1-.3.636,2.712,2.712,0,0,1-.7.651" transform="translate(-3.796 -176.889)" fill="#466784"/><path d="M22.158,279.046v.013a1.641,1.641,0,0,1-.377,1.028,2.51,2.51,0,0,1-.674.568,6.455,6.455,0,0,1-1.7.654,20.9,20.9,0,0,1-4.925.522,25.082,25.082,0,0,1-3.068-.181,14.31,14.31,0,0,1-2.473-.5,5.471,5.471,0,0,1-1.25-.547,2.512,2.512,0,0,1-.592-.5,1.667,1.667,0,0,1-.405-.991h0v-.018h0l0-.059a1.622,1.622,0,0,1,.34-.975,2.619,2.619,0,0,0-.632.595,1.8,1.8,0,0,0-.359,1.059v.066a1.594,1.594,0,0,0,.031.239,1.875,1.875,0,0,0,.362.8,3.479,3.479,0,0,0,1.353.98,11.784,11.784,0,0,0,2.917.8,24.4,24.4,0,0,0,3.815.284,20.907,20.907,0,0,0,5.42-.634,6.647,6.647,0,0,0,1.862-.787,2.7,2.7,0,0,0,.7-.651,1.861,1.861,0,0,0,.3-.636,1.7,1.7,0,0,0,.044-.246,1.525,1.525,0,0,0,.016-.177V279.7a1.822,1.822,0,0,0-.385-1.05,2.7,2.7,0,0,0-.618-.576c-.021-.015-.047-.024-.068-.039a1.64,1.64,0,0,1,.374.978Z" transform="translate(-3.767 -173.603)" fill="#7299b3"/><path d="M16.267,276.756q-.389.038-.78.038t-.782-.038a1.106,1.106,0,0,1-1-1.062q-.037-1.112-.075-2.224a18.039,18.039,0,0,0-3.112.458,6.445,6.445,0,0,0-1.7.652,2.513,2.513,0,0,0-.674.567c-.013.016-.024.037-.038.054a1.62,1.62,0,0,0-.34.974l0,.059h0v.018h0a1.667,1.667,0,0,0,.405.991,2.5,2.5,0,0,0,.592.5,5.451,5.451,0,0,0,1.25.547,14.315,14.315,0,0,0,2.473.5,25.016,25.016,0,0,0,3.068.181,20.892,20.892,0,0,0,4.925-.521,6.45,6.45,0,0,0,1.7-.654,2.51,2.51,0,0,0,.674-.568,1.643,1.643,0,0,0,.377-1.029v-.044a1.641,1.641,0,0,0-.374-.978c-.01-.012-.018-.027-.028-.038a2.5,2.5,0,0,0-.592-.5A5.433,5.433,0,0,0,21,274.093a14.314,14.314,0,0,0-2.475-.5c-.423-.053-.868-.092-1.329-.123q.035,1.078.071,2.156a1.1,1.1,0,0,1-1,1.136m-1.746,1.134h0a.57.57,0,0,1-.159.385.565.565,0,0,1-.4.171.579.579,0,0,1-.575-.548h0v0h0v-.008h0v-.023a.566.566,0,0,1,.566-.568.582.582,0,0,1,.578.558v.038Zm1.611-.012a.569.569,0,0,1-.567.568.578.578,0,0,1-.574-.542h0v-.021h0v-.018a.567.567,0,0,1,.566-.571.582.582,0,0,1,.579.561v.023Zm1.635-.023v.022a.574.574,0,0,1-.162.4.565.565,0,0,1-.4.17.58.58,0,0,1-.575-.542h0v0h0v0h0v-.009h0v-.023a.568.568,0,0,1,.567-.569.582.582,0,0,1,.578.56" transform="translate(-4.85 -170.748)" fill="#b5d6e6"/><path d="M25.534,262.1c-.26.025-.521.038-.783.038s-.523-.013-.784-.038a1.106,1.106,0,0,1-1-1.062q.078,2.312.156,4.625.037,1.113.075,2.224a1.106,1.106,0,0,0,1,1.062c.26.026.521.038.782.038s.521-.013.78-.038a1.1,1.1,0,0,0,1-1.136q-.036-1.077-.071-2.155-.077-2.347-.154-4.694h0a1.1,1.1,0,0,1-1,1.136" transform="translate(-14.342 -162.945)" fill="#7299b3"/><path d="M22.865,258.058q.02.58.039,1.161a1.107,1.107,0,0,0,1,1.062c.261.025.522.038.784.038s.523-.013.783-.038a1.1,1.1,0,0,0,1-1.136h0l-.036-1.1a9.818,9.818,0,0,1-1.814.174,10,10,0,0,1-1.751-.164" transform="translate(-14.277 -161.122)" fill="#466784"/><path d="M20.078,215.218c0-.089,0-.18,0-.272l-1.1.029,1.1-.029A10.372,10.372,0,0,0,9.743,204.909a9.729,9.729,0,0,0-6.916,2.829,9.6,9.6,0,0,0-2.373,3.916c0,.009-.006.017-.009.026A9.807,9.807,0,0,0,0,214.611q0,.207.009.41h0a10.339,10.339,0,0,0,.8,3.561A10.21,10.21,0,0,0,4.2,222.955a10.265,10.265,0,0,0,4.387,1.924,10.035,10.035,0,0,0,1.751.164,9.773,9.773,0,0,0,1.814-.174,9.9,9.9,0,0,0,5.1-2.7,9.849,9.849,0,0,0,2.829-6.95m-3.857,5.928a8.3,8.3,0,0,1-5.929,2.463,8.8,8.8,0,0,1-6.128-2.517,8.96,8.96,0,0,1-2.727-6.072c0-.114-.007-.228-.007-.343a8.295,8.295,0,0,1,8.361-8.334,8.9,8.9,0,0,1,8.855,8.6l-1.1.03,1.1-.03q0,.124,0,.246a8.432,8.432,0,0,1-2.428,5.956" transform="translate(0 -127.943)" fill="#7299b3"/><path d="M21.023,217.328l-1.1.03,1.1-.03a8.9,8.9,0,0,0-8.855-8.6,8.294,8.294,0,0,0-8.361,8.334c0,.115,0,.229.007.343a8.96,8.96,0,0,0,2.727,6.072,8.8,8.8,0,0,0,6.128,2.517,8.3,8.3,0,0,0,5.929-2.462,8.434,8.434,0,0,0,2.428-5.956c0-.081,0-.163,0-.245m-1.514,1.533a.654.654,0,0,1-.148.245,6.843,6.843,0,0,1-6.7,5.4,7.229,7.229,0,0,1-4.2-1.365l-.311-.146a1.083,1.083,0,0,1-.364-.256.658.658,0,0,1-.135-.26A7.448,7.448,0,0,1,5.3,217.358,6.816,6.816,0,0,1,9.371,210.8l.195-.137h0a.925.925,0,0,1,.531-.2.583.583,0,0,1,.159.022,7.035,7.035,0,0,1,1.924-.272,7.324,7.324,0,0,1,7.331,7.922c.011.1.021.2.03.277l.009.16a.907.907,0,0,1-.042.287" transform="translate(-2.377 -130.326)" fill="#b5d6e6"/><path d="M26.547,235.221a2.533,2.533,0,0,1-.65-.116c-.229-.064-.479-.145-.749-.224a6.326,6.326,0,0,0-1.772-.309c-.1,0-.206,0-.308.013l-.033-.386.033.386c-.305.026-.577.05-.828.069a2.916,2.916,0,0,1,.415,1.462,3.017,3.017,0,0,1-.264,1.214,4.314,4.314,0,0,1-1.517,1.949,3.294,3.294,0,0,1-1.856.537,6.864,6.864,0,0,1-2.837-.775,7.23,7.23,0,0,0,4.2,1.365,6.844,6.844,0,0,0,6.7-5.4c-.007.007-.011.015-.018.022a.734.734,0,0,1-.522.187" transform="translate(-10.103 -146.231)" fill="#fff"/><path d="M21.526,213.519a7.137,7.137,0,0,1,.279.917,6.489,6.489,0,0,0,.923,2.219l-.313.227.313-.227c.19.26.36.492.512.706.019-.032.03-.067.05-.1a2.76,2.76,0,0,1,2.2-1.3q.276-.023.531-.023a4.057,4.057,0,0,1,2.286.62,3.707,3.707,0,0,1,1.262,1.46,7.551,7.551,0,0,1,.664,2.6A7.324,7.324,0,0,0,22.9,212.7a7.034,7.034,0,0,0-1.924.272.679.679,0,0,1,.316.184,1.175,1.175,0,0,1,.234.369" transform="translate(-13.098 -132.804)" fill="#fff"/><path d="M10.209,225.336a1.967,1.967,0,0,1,.235-.314c.179-.2.4-.4.636-.635a5.59,5.59,0,0,0,1.294-1.714c.124-.287.235-.544.338-.777a2.954,2.954,0,0,1-2.4-1.282,4.457,4.457,0,0,1-.982-2.621,3.767,3.767,0,0,1,1.11-2.561,8.572,8.572,0,0,1,1.411-1.184,6.816,6.816,0,0,0-4.069,6.559,7.448,7.448,0,0,0,2.343,5.115.615.615,0,0,1-.034-.177.828.828,0,0,1,.121-.41" transform="translate(-4.854 -133.775)" fill="#fff"/><path d="M24.571,221.031a7.549,7.549,0,0,0-.664-2.6,3.709,3.709,0,0,0-1.263-1.46,4.059,4.059,0,0,0-2.286-.62c-.171,0-.347.007-.531.023a2.76,2.76,0,0,0-2.2,1.3c-.02.032-.032.067-.05.1-.153-.214-.323-.446-.512-.706l-.313.227.313-.227a6.492,6.492,0,0,1-.923-2.218,7.128,7.128,0,0,0-.279-.917,1.186,1.186,0,0,0-.234-.369.681.681,0,0,0-.316-.184.582.582,0,0,0-.159-.021.925.925,0,0,0-.53.2l-.195.137a8.541,8.541,0,0,0-1.411,1.183,3.769,3.769,0,0,0-1.109,2.561,4.456,4.456,0,0,0,.981,2.621,2.955,2.955,0,0,0,2.4,1.282c-.1.233-.214.491-.338.777a5.583,5.583,0,0,1-1.293,1.714c-.236.231-.457.435-.636.635a1.971,1.971,0,0,0-.235.314.827.827,0,0,0-.121.41.606.606,0,0,0,.034.178.659.659,0,0,0,.135.26,1.078,1.078,0,0,0,.363.257l.311.145a6.86,6.86,0,0,0,2.837.776,3.292,3.292,0,0,0,1.856-.538,4.311,4.311,0,0,0,1.517-1.949,3.026,3.026,0,0,0,.264-1.215,2.914,2.914,0,0,0-.415-1.462c.251-.02.522-.044.828-.069l-.032-.385.033.385c.1-.009.205-.013.308-.013a6.318,6.318,0,0,1,1.772.309c.269.079.519.16.749.225a2.521,2.521,0,0,0,.65.116.734.734,0,0,0,.522-.187c.007-.006.011-.015.018-.022a.659.659,0,0,0,.148-.245.9.9,0,0,0,.043-.287l-.009-.16c-.009-.08-.019-.174-.03-.276m-5.833.48a1.712,1.712,0,0,1-1.22.505,1.811,1.811,0,0,1-1.8-1.745v-.062a1.713,1.713,0,0,1,1.72-1.721,1.81,1.81,0,0,1,1.8,1.747v.058a1.722,1.722,0,0,1-.5,1.219" transform="translate(-7.437 -133.219)" fill="#3799d4"/><path d="M25.566,228.759a1.809,1.809,0,0,0-1.8-1.746,1.713,1.713,0,0,0-1.72,1.721l0,.062a1.811,1.811,0,0,0,1.8,1.745,1.715,1.715,0,0,0,1.72-1.725v-.057Z" transform="translate(-13.765 -141.744)" fill="#fff"/><path d="M27.555,283.662a.567.567,0,0,0-.4.171.573.573,0,0,0-.162.4v.017h0v.021h0a.578.578,0,0,0,.574.542.569.569,0,0,0,.566-.568v-.023a.582.582,0,0,0-.579-.561" transform="translate(-16.852 -177.115)" fill="#fff"/><path d="M23.269,283.662a.566.566,0,0,0-.566.568v.022h0v.01h0v0h0a.579.579,0,0,0,.575.548.563.563,0,0,0,.4-.171.571.571,0,0,0,.159-.385h0v-.038a.582.582,0,0,0-.578-.558" transform="translate(-14.175 -177.115)" fill="#fff"/><path d="M31.508,283.831a.571.571,0,0,0-.164.4v.023h0v.009h0v0h0v0h0a.579.579,0,0,0,.574.542.564.564,0,0,0,.4-.17.57.57,0,0,0,.162-.4v-.022a.581.581,0,0,0-.578-.56.567.567,0,0,0-.4.169" transform="translate(-19.571 -177.115)" fill="#d54859"/><path d="M208.557,190.585c.255-.076.509-.156.764-.216L209,190.04l-.5.5.062.042" transform="translate(-130.182 -118.659)" fill="#d4d5d5"/><path d="M208.642,172.977l-1.044-1.064-.356.357,1.045,1.063.355-.356" transform="translate(-129.4 -107.341)" fill="#d4d5d5"/><path d="M205.95,175.677l-1.045-1.063-.356.356,1.047,1.062.354-.355" transform="translate(-127.718 -109.027)" fill="#d4d5d5"/><path d="M212.348,188.429c.126-.019.252-.048.378-.063l.162-.163-.928-.942-.385.386.773.782" transform="translate(-132.105 -116.924)" fill="#d4d5d5"/><path d="M207.626,183.64l.385-.387-1.329-1.35-.387.388,1.331,1.349" transform="translate(-128.808 -113.579)" fill="#d4d5d5"/><path d="M203.739,186.673l.634-.637-1.331-1.349-.906.909,1.6,1.077" transform="translate(-126.212 -115.317)" fill="#d4d5d5"/><path d="M211.335,170.277l-1.043-1.065-.356.357,1.044,1.064.355-.356" transform="translate(-131.082 -105.654)" fill="#d4d5d5"/><path d="M220.638,180.48l.352-.353-.925-.945-.352.353.926.944" transform="translate(-137.186 -111.88)" fill="#d4d5d5"/><path d="M126.012,224.436a11.006,11.006,0,0,1,4.194.931l.335-.682a12.089,12.089,0,0,0-9.481.071l.445.54a10.936,10.936,0,0,1,4.506-.861" transform="translate(-75.589 -139.709)" fill="#d4d5d5"/><path d="M210.4,180.913l.352-.353-1.328-1.351-.353.355,1.329,1.35" transform="translate(-130.542 -111.896)" fill="#d4d5d5"/><path d="M149.486,240.268l1.582-.591c-.119-.165-.238-.329-.367-.485l-1.215,1.076" transform="translate(-93.337 -149.349)" fill="#d4d5d5"/><path d="M203.2,178.376l-1.046-1.063-.388.389,1.048,1.061.387-.388" transform="translate(-125.982 -110.712)" fill="#d4d5d5"/><path d="M141.768,233.265q-1.158,2.359-2.306,4.71l1.472-.55,2.918-2.585a9.345,9.345,0,0,0-2.083-1.575" transform="translate(-87.078 -145.648)" fill="#d4d5d5"/><path d="M215.775,175.52l.353-.354-1.325-1.353-.354.355,1.326,1.352" transform="translate(-133.9 -108.527)" fill="#d4d5d5"/><path d="M155.355,252.875l-1.736.536c.587.036,1.176.071,1.763.108,0-.216-.011-.431-.027-.644" transform="translate(-95.918 -157.892)" fill="#d4d5d5"/><path d="M213.088,178.218l.353-.354-1.327-1.352-.354.355,1.328,1.351" transform="translate(-132.221 -110.212)" fill="#d4d5d5"/><path d="M215.274,185.864l.351-.352-.927-.943-.352.353.928.942" transform="translate(-133.835 -115.243)" fill="#d4d5d5"/><path d="M217.955,183.173l.352-.353-.926-.944-.353.353.927.943" transform="translate(-135.51 -113.561)" fill="#d4d5d5"/><path d="M135.735,230.32q-.157,3.2-.3,6.381l.245-.092q1.341-2.8,2.687-5.611a9.231,9.231,0,0,0-2.632-.678" transform="translate(-84.564 -143.809)" fill="#d4d5d5"/><path d="M148.93,256.512c-1.365-.086-2.735-.167-4.1-.251l-1.477.456q2.473,1.18,4.942,2.361a8.8,8.8,0,0,0,.636-2.567" transform="translate(-89.507 -160.006)" fill="#d4d5d5"/><path d="M198.988,181.163l-1.048-1.061-1.253,1.256,1.261.847,1.039-1.042" transform="translate(-122.81 -112.454)" fill="#d4d5d5"/><path d="M117.577,228.336a9.694,9.694,0,0,0-10,9.53,10.013,10.013,0,0,0,9.849,9.917,9.549,9.549,0,0,0,9.907-9.453,9.823,9.823,0,0,0-.041-.99l-.683.211c.016.213.026.428.027.644-.586-.037-1.176-.071-1.763-.108l-2.38.735c1.367.083,2.737.165,4.1.251a8.8,8.8,0,0,1-.636,2.567q-2.467-1.184-4.942-2.361l-1.238.382q2.9,1.384,5.8,2.773a8.78,8.78,0,0,1-1.583,2.1q-2.207-2.41-4.417-4.817l-.454.14a3.449,3.449,0,0,1-2.993.014q-1.46,3.061-2.912,6.117a9.477,9.477,0,0,1-2.2-1.608l5.1-4.519a1.919,1.919,0,0,1-.6-.64l-5.1,4.514A9.158,9.158,0,0,1,109,241.449q3.26-1.121,6.512-2.234a2.393,2.393,0,0,1-.309-.824q-3.251,1.114-6.509,2.233a8.853,8.853,0,0,1-.381-1.945q-.028-.34-.03-.687l.832.047q3.049.168,6.088.346a1.866,1.866,0,0,1,.024-.88q-2.537-.147-5.081-.289c-.608-.034-1.214-.07-1.823-.1a8.726,8.726,0,0,1,.644-2.574l1.3.616,1.362.643q1.8.849,3.595,1.7a2.9,2.9,0,0,1,1.894-1.683q-1.176-3.21-2.346-6.426a9.211,9.211,0,0,1,2.689-.363q-.167,3.4-.319,6.779c.141-.057.274-.117.431-.171l.466-.174q.147-3.188.3-6.382a9.229,9.229,0,0,1,2.632.678q-1.349,2.81-2.687,5.611h0q1.517-3.1,3.041-6.208a9.951,9.951,0,0,0-3.749-.825m5.759,16.788a8.928,8.928,0,0,1-2.295,1.336q-1.193-3.211-2.376-6.43,2.335,2.548,4.671,5.094m-5.514-4.84q1.19,3.232,2.387,6.459a9.264,9.264,0,0,1-2.674.353q.136-3.4.287-6.813m-.877-.072q-.149,3.419-.288,6.831a9.456,9.456,0,0,1-2.644-.673q1.46-3.074,2.932-6.157m-4.8-5.14c-.935-.441-1.867-.884-2.8-1.324a8.936,8.936,0,0,1,1.611-2.13q1.028,1.12,2.054,2.241,1.312,1.429,2.621,2.859-1.74-.824-3.483-1.646m2.486-3.5q.834,2.293,1.673,4.582l-2.776-3.028-1.917-2.091a9.118,9.118,0,0,1,2.328-1.36c.23.633.462,1.264.693,1.9" transform="translate(-67.168 -142.568)" fill="#807878"/><path d="M144.517,231.629l-.3.614a9.322,9.322,0,0,1,2.084,1.575L143.38,236.4l2.293-.857,1.215-1.077c.129.157.249.321.367.485l.667-.249a10.04,10.04,0,0,0-3.406-3.077" transform="translate(-89.525 -144.627)" fill="#807878"/><path d="M146.864,229.154l-.457.93a10.04,10.04,0,0,1,3.406,3.077l1.008-.377a11.1,11.1,0,0,0-3.956-3.63" transform="translate(-91.415 -143.081)" fill="#3c3939"/><path d="M125.572,236.6a9.549,9.549,0,0,1-9.907,9.453,10.013,10.013,0,0,1-9.849-9.917,9.693,9.693,0,0,1,10-9.53,9.952,9.952,0,0,1,3.749.825l.459-.933a10.986,10.986,0,0,0-8.7-.071,10.8,10.8,0,0,0-5.039,4.332,10.408,10.408,0,0,0-1.53,5.356,10.533,10.533,0,0,0,.2,2.106,11.161,11.161,0,0,0,10.7,8.862,10.556,10.556,0,0,0,10.955-10.454,10.829,10.829,0,0,0-.078-1.33l-1.009.312a9.809,9.809,0,0,1,.041.99" transform="translate(-65.411 -140.84)" fill="#3c3939"/><path d="M129.95,174.508l-.245.084.8,1.167q1.344,1.965,2.692,3.927l-3.085,1.052a.881.881,0,0,0-.573.634q-1.762,7.607-3.461,15.162a3.9,3.9,0,0,0-1.1.105q-3.153-4.939-6.3-9.885l-.762.533.575.9s0,0-.006.008q-.95,1.925-1.891,3.845a13.926,13.926,0,0,0-14.049,1.9,13.635,13.635,0,0,0-2.494,2.6,13.212,13.212,0,0,0-2.573,7.757.879.879,0,1,0,1.759.011,11.421,11.421,0,0,1,1.986-6.362,11.873,11.873,0,0,1,2.419-2.629,12.087,12.087,0,0,1,12.175-1.69l-.335.682-.459.933q-1.526,3.108-3.041,6.208h0l-.246.092-.466.174c-.157.054-.29.113-.431.171l-.024.01a2.9,2.9,0,0,0-1.894,1.683v.006a1.866,1.866,0,0,0-.024.882v0a2.672,2.672,0,0,0,.106.4,2.643,2.643,0,0,0,.2.424l0,.008a1.923,1.923,0,0,0,.606.643l.013.01a3.449,3.449,0,0,0,2.993-.014l.454-.14.2-.061,1.238-.383,1.477-.456,2.38-.735,1.736-.536.683-.211,1.009-.312c1.416-.436,2.839-.879,4.252-1.313l.052-.02q-.092-.349-.183-.7a1.965,1.965,0,0,1-.217.015,2.014,2.014,0,0,1-1.955-2.022,1.935,1.935,0,0,1,2-1.909,2.013,2.013,0,0,1,1.95,2.025,1.92,1.92,0,0,1-1.181,1.75l.157.6a2.517,2.517,0,0,0,1.5-3.27,2.729,2.729,0,0,0-.647-1.033q1.682-7.47,3.42-14.986l3.086-1.052.948,1.383c-.162.118-.329.23-.485.354a13.543,13.543,0,0,0-4.284,15.159.879.879,0,0,0,1.656-.593h0a11.784,11.784,0,0,1,3.725-13.191c.123-.1.255-.186.383-.279q3.276,4.779,6.551,9.557a.485.485,0,1,0,.8-.549q-3.277-4.77-6.545-9.548a11.735,11.735,0,0,1,2.353-1.113c.216-.073.433-.124.65-.184q-.734-.495-1.469-.988l-1.005,1.008a.464.464,0,1,1-.658-.655l.032-.032c-.308.16-.605.331-.9.512l-1.049-1.529a.868.868,0,0,0-.723-1.054q-1.472-2.149-2.945-4.3L130.477,174a.871.871,0,0,1-.527.5M112.918,204.2a1.7,1.7,0,0,1-1.757,1.676,1.766,1.766,0,0,1-1.733-1.758,1.7,1.7,0,0,1,1.76-1.678,1.782,1.782,0,0,1,.293.036c-.241.492-.483.986-.724,1.479a.465.465,0,0,0,.835.408c.24-.492.482-.985.723-1.477a1.729,1.729,0,0,1,.6,1.314m7.353-5.848-1.008.377-.666.249-1.582.591-2.293.857-1.472.55q1.152-2.353,2.306-4.71l.3-.614c.152-.31.305-.62.457-.93l.347-.705a12.212,12.212,0,0,1,3.249,2.381.879.879,0,1,0,1.264-1.223,13.945,13.945,0,0,0-3.737-2.734q.82-1.667,1.64-3.333,2.491,3.915,4.987,7.827c-1.262.47-2.529.945-3.793,1.417" transform="translate(-60.865 -108.646)" fill="#d7563f"/><path d="M169.615,237.7a.308.308,0,0,1,.6-.156q.247.944.5,1.886a1.919,1.919,0,0,0,1.181-1.75,2.012,2.012,0,0,0-1.95-2.025,1.935,1.935,0,0,0-2,1.909,2.013,2.013,0,0,0,1.954,2.021,1.883,1.883,0,0,0,.217-.015Q169.861,238.631,169.615,237.7Z" transform="translate(-104.857 -147.138)" fill="#3a3736"/><path d="M142.051,202.85l2.061-1.441.762-.533,1.93-1.35c1.286-.9,2.11-2.562,1.382-2.855a.672.672,0,0,0-.259-.049,6.881,6.881,0,0,0-2.045.47l-4.016,1.252c-2,.689-2.784,1.374-2.293,2.753.281.791.4,1.475.823,1.788.316.233.8.26,1.655-.034" transform="translate(-87.059 -122.769)" fill="#524e4e"/><path d="M172.984,240.3a.308.308,0,0,0-.6.156q.245.936.492,1.871.091.349.183.7.31,1.177.619,2.354l.584-.2q-.316-1.2-.63-2.4c-.052-.2-.105-.4-.157-.6q-.248-.943-.5-1.886" transform="translate(-107.631 -149.896)" fill="#807878"/><path d="M172.337,253.623a.768.768,0,0,0-.6.9.807.807,0,0,0,1.046.34l2.336-.792a.768.768,0,0,0,.6-.9.8.8,0,0,0-1.045-.341l-.823.279-.584.2-.929.315" transform="translate(-107.213 -157.827)" fill="#6c6665"/><path d="M178.136,172a.875.875,0,0,0-1.1-1.16h0l-2.635.9a.879.879,0,0,0,.57,1.664l2.39-.819.245-.084a.873.873,0,0,0,.527-.5" transform="translate(-108.525 -106.64)" fill="#777070"/><path d="M209.716,191.841l.313-.313-.6-.613c-.255.06-.51.141-.764.216l1.057.71" transform="translate(-130.284 -119.205)" fill="#d7563f"/><path d="M213.788,190.425l.222-.222c-.126.015-.252.044-.379.063l.157.159" transform="translate(-133.389 -118.761)" fill="#d7563f"/><path d="M214.851,190.218h0l-1.7,1.708a11.689,11.689,0,0,1,7.463,1.056.879.879,0,0,0,.794-1.569,13.511,13.511,0,0,0-6.294-1.457l-.261.262" transform="translate(-133.088 -118.606)" fill="#d7563f"/><path d="M196.811,175.459a.464.464,0,0,0,.657,0l1-1.008q.735.495,1.469.988l.116.078a.465.465,0,0,0,.589-.057l.242-.243,1.7-1.708h0l.261-.262,3.889-3.9a.465.465,0,0,0,0-.652l-1.575-1.611,0,0,0,0-1.967-2.012,0,0,0,0q-.843-.861-1.685-1.723a.464.464,0,0,0-.661,0l-2.142,2.148h0l-1.012,1.015h0l-2.175,2.181-1.866,1.871a.464.464,0,0,0,.071.714q1.986,1.33,3.966,2.665l-.846.849-.032.032a.464.464,0,0,0,0,.657m8.949-6.449-.472.474-.926-.945.473-.474.924.945m-1.574-1.61-.473.476-1.325-1.353.475-.476,1.323,1.354m-3.014-3.084,1.041,1.066-.476.477-1.043-1.064.477-.479m3.46,5.826-.352.353-.926-.944.352-.354.925.945m-1.576-1.608-.353.354-1.326-1.352.354-.355,1.325,1.353m-3.018-3.081,1.043,1.065-.355.356-1.044-1.064.356-.357m3.586,5.7-.351.353-.927-.943.352-.353.926.944m-1.577-1.607-.353.354-1.328-1.35.354-.355,1.327,1.352m-3.021-3.079,1.044,1.064-.355.356-1.045-1.063.356-.357m3.591,5.7-.35.352-.928-.942.352-.353.927.943m-1.578-1.606-.352.354-1.329-1.35.353-.355,1.328,1.35m-3.024-3.076,1.045,1.063-.354.355-1.046-1.062.356-.356m3.6,5.692-.162.163-.222.222-.157-.159-.772-.782.384-.386.929.942m-1.58-1.6-.385.386-1.331-1.349.387-.388,1.329,1.35M197,168.5l1.046,1.063-.387.388-1.048-1.061L197,168.5m2.964,5.109.6.613-.313.313-1.056-.71-.062-.042.5-.5.325.329m-2.308-2.339,1.331,1.349-.634.637-1.6-1.077.906-.909m-2.953-.467,1.253-1.256,1.048,1.061-1.039,1.042-1.261-.848" transform="translate(-120.829 -101.895)" fill="#807878"/><path d="M92.3,241.338q.052.631.1,1.262.035-.629.069-1.258l-.173,0" transform="translate(-57.63 -150.689)" fill="#c9c6b5"/><path d="M107.556,246.921q.036-.673.073-1.345l-2.08-.063c-.024.447-.048.9-.073,1.343l3.119.1h0l-.15,0-.889-.028" transform="translate(-65.858 -153.295)" fill="#c9c6b5"/><path d="M91.943,199.23a.539.539,0,0,1-.525-.576q.126-2.311.251-4.623a.585.585,0,0,1,.586-.554q5.169.095,10.338.2a.542.542,0,0,1,.525.58l-.249,4.656a.584.584,0,0,1-.586.555q-2.829-.067-5.659-.129c-.025.456-.049.911-.074,1.367l.129,0,1.774.042q1.878.045,3.755.089a1.989,1.989,0,0,0,2-1.895l.162-3.047q.043-.806.086-1.612c0-.041-.005-.079-.005-.118a1.837,1.837,0,0,0-1.789-1.862q-5.169-.1-10.338-.191a2,2,0,0,0-2,1.894q-.126,2.311-.252,4.62a1.841,1.841,0,0,0,1.794,1.967q1.77.04,3.541.084c.025-.456.05-.91.074-1.366l-3.541-.081" transform="translate(-56.24 -119.952)" fill="#97a747"/><path d="M105.107,201.181l.249-4.656a.542.542,0,0,0-.525-.579q-5.169-.1-10.338-.2a.586.586,0,0,0-.586.554q-.126,2.313-.251,4.623a.539.539,0,0,0,.525.576l3.541.08c.029-.532.058-1.063.086-1.6l-1.1-.024a1.11,1.11,0,0,1-1.079-1.185l.014-.253a1.206,1.206,0,0,1,1.2-1.138q2.585.051,5.17.1a1.114,1.114,0,0,1,1.079,1.19c0,.085-.009.169-.014.254a1.2,1.2,0,0,1-1.2,1.14l-2.929-.064c-.029.533-.058,1.064-.086,1.6q2.829.064,5.658.129a.584.584,0,0,0,.586-.555" transform="translate(-58.477 -122.222)" fill="#623d1a"/><path d="M111.014,247.025l.889.028.15,0,.43.014.405.013.307.01.151,0,.888.029q.036-.673.072-1.348l-3.22-.1q-.037.673-.073,1.345" transform="translate(-69.316 -153.4)" fill="#3b3938"/><path d="M105.671,243.162l2.08.063,3.221.1q3.5.11,7.009.225.038-.714.076-1.429-6.155-.2-12.309-.374l-.077,1.413" transform="translate(-65.98 -150.945)" fill="#623d1a"/><path d="M96.414,241.465c-1.261-.037-2.523-.078-3.784-.115l-.069,1.258c0,.052-.006.1-.009.156h.021l3.763.114.077-1.414" transform="translate(-57.789 -150.696)" fill="#623d1a"/><path d="M117.607,232.961c-.61-.018-1.219-.034-1.829-.052q-3.453-.1-6.905-.195l-1.775-.05-1.037-.029q-.092,1.711-.185,3.423,6.154.183,12.309.374l1.659.053s.041-.773.092-1.726a1.271,1.271,0,0,0-.119-.584,2.433,2.433,0,0,0-2.208-1.214" transform="translate(-66.107 -145.255)" fill="#97a747"/><path d="M88.437,233.959l-.094,1.7,1.486.042.173,0c1.261.036,2.523.078,3.784.115q.093-1.709.186-3.421c-1.008-.027-2.016-.058-3.023-.085a3.216,3.216,0,0,0-1.377.26,1.709,1.709,0,0,0-1.134,1.38" transform="translate(-55.16 -145.057)" fill="#97a747"/><path d="M92.618,274.018l-.135,2.458c0,.03,0,.06,0,.091l.039,0,1.12.042.668.026q.07-1.276.14-2.551l-.342-.012-1.143-.042-.342-.012" transform="translate(-57.742 -171.094)" fill="#3b3938"/><path d="M111.262,274.71q-.07,1.28-.139,2.559l1.827.072.139-2.562-.342-.013-1.143-.043-.342-.013" transform="translate(-69.384 -171.526)" fill="#3b3938"/><path d="M129.908,275.424q-.069,1.286-.138,2.571l1.827.075q.069-1.287.138-2.574l-.342-.013-1.143-.045-.341-.013" transform="translate(-81.027 -171.972)" fill="#3b3938"/><path d="M97.092,217.128c-.043.79-.086,1.584-.129,2.373l-.007.126h0l1.143.036,3.118.1q-.132,2.433-.264,4.862-2.206-.079-4.413-.158a2.651,2.651,0,0,0-2.493,1.27,1.806,1.806,0,0,0-.21.736q-.038.7-.077,1.407l1.143.042q.038-.7.077-1.408c.028-.51.713-.916,1.5-.889q2.207.079,4.413.161-.064,1.176-.128,2.354l1.143.043.127-2.355q2.207.081,4.414.161c.784.029,1.422.486,1.394,1q-.038.709-.076,1.419l1.143.045q.038-.71.076-1.42a2.318,2.318,0,0,0-2.475-2.21q-2.207-.081-4.414-.158.163-3.013.326-6.028l-.307-.01-.405-.013-.43-.014h0l-3.118-.1c.024-.447.048-.9.073-1.343.025-.471.051-.943.076-1.413q.093-1.71.186-3.423.179-3.313.359-6.629l.074-1.367c.029-.533.057-1.063.086-1.6l2.929.064a1.2,1.2,0,0,0,1.2-1.14l.014-.254a1.114,1.114,0,0,0-1.079-1.19l-5.17-.1a1.206,1.206,0,0,0-1.2,1.138l-.014.253a1.11,1.11,0,0,0,1.079,1.185l1.1.024c-.029.533-.058,1.063-.086,1.6l-.074,1.366q-.179,3.315-.359,6.624-.093,1.71-.186,3.421l-.077,1.414" transform="translate(-58.543 -124.946)" fill="#9c9390"/></g></g></g></g></svg>