<svg xmlns="http://www.w3.org/2000/svg" width="140" height="140" viewBox="0 0 140 140"><g transform="translate(0 -0.477)"><circle cx="70" cy="70" r="70" transform="translate(0 0.477)" fill="#f7f3e5"/><g transform="translate(-88.644 56.299)"><g transform="translate(110 -32.677)"><path d="M3562.727,4465.187c0,.72-21.658,1.3-48.373,1.3s-48.374-.584-48.374-1.3,21.658-1.3,48.374-1.3S3562.727,4464.467,3562.727,4465.187Z" transform="translate(-3465.439 -4378.927)" fill="#b4b4b5"/><g transform="translate(66.813 79.67)"><path d="M3633.243,4463.833s-4.5.207-5.6.2-3.453.028-3.808-.327a1.771,1.771,0,0,1-.22-.272,1.954,1.954,0,0,0,.534,1.016c.354.353,2.394.323,3.493.326s5.6-.205,5.6-.205,2.479-.271,2.607-1a4.281,4.281,0,0,0,.052-.662C3635.479,4463.54,3633.243,4463.833,3633.243,4463.833Z" transform="translate(-3623.573 -4458.035)" fill="#dbdcdc"/><path d="M3629.463,4452.063a5.192,5.192,0,0,1-2.6,1.508c-2.105.713-2.554.9-3.115,1.887a1.664,1.664,0,0,0-.192,1.265,1.982,1.982,0,0,0,.22.272c.355.354,2.709.324,3.809.327s5.6-.2,5.6-.2,2.236-.294,2.66-.922a21.507,21.507,0,0,0-.787-4.877C3633.926,4452.211,3631.152,4452.419,3629.463,4452.063Z" transform="translate(-3623.51 -4451.318)" fill="#f5f6f7"/></g><g transform="translate(71.053 82.393)"><path d="M3634.236,4460.212l-.647.42a3.193,3.193,0,0,1,.769,1.823l.761-.025A3.565,3.565,0,0,0,3634.236,4460.212Z" transform="translate(-3633.589 -4459.193)" fill="#00254d"/><path d="M3636.434,4458.528a6.5,6.5,0,0,1,1.075,2.473c.527-.02,1.061-.042,1.541-.062a6.9,6.9,0,0,0-1.238-3.146Z" transform="translate(-3635.237 -4457.792)" fill="#00254d"/></g><g transform="translate(88.101 73.862)"><path d="M3681.787,4440.292c-.116-.114-.225-.216-.335-.314a5.282,5.282,0,0,1,.038,2.91,47.079,47.079,0,0,1-1.518,4.911c-.5.99-1.423,2.737-1.906,2.885a2.023,2.023,0,0,1-1.687-.136,1.869,1.869,0,0,0,2.117.514,6.958,6.958,0,0,0,2.073-2.567,46.9,46.9,0,0,0,1.518-4.911S3682.709,4441.213,3681.787,4440.292Z" transform="translate(-3675.426 -4438.94)" fill="#dbdcdc"/><path d="M3680.139,4438.55a6.153,6.153,0,0,0-1.49-1.037c-.263,1.5-1.846,4.508-4.537,4.3a7.035,7.035,0,0,1,.5,2.861c-.159,2.259-.267,3.377.382,4.362.02.03.045.058.068.086a2.021,2.021,0,0,0,1.687.135c.482-.148,1.407-1.895,1.905-2.885a47.1,47.1,0,0,0,1.518-4.91A5.287,5.287,0,0,0,3680.139,4438.55Z" transform="translate(-3674.113 -4437.513)" fill="#f5f6f7"/></g><g transform="translate(65.688 41.137)"><path d="M3629.08,4376.708c-.321-3.86-.306-8.456-.709-10.574-.151-.787-.339-.191-.377-1.73a38.383,38.383,0,0,0,6.248-.446c6.085-1.218,6.49-3.173,6.49-3.173s.037.167.076.407a4.6,4.6,0,0,0-.375-1.467c-1.1,3.346-7.746,3.7-11.3,3.625-3.212-.062-4.787-.792-5.925-2.09a146.584,146.584,0,0,0-2.374,17.683c-.106,4.689,5.55,19.061,5.773,19.426.753,1.211,6.866,1.122,7.364-.764.438-1.658-4.475-13.508-4.635-15.6C3629.2,4380.256,3629.048,4378.227,3629.08,4376.708Z" transform="translate(-3620.836 -4359.724)" fill="#ccc6ac"/></g><path d="M3648.869,4383.015c-1.148-.986,0-5.664.6-10.375.386-3.073,1.112-5.672,1.286-8.836a6.878,6.878,0,0,0-.162-1.559s-.4,1.955-6.489,3.174a38.427,38.427,0,0,1-6.249.446c.038,1.54.226.943.376,1.731.523,2.74.343,9.628,1.1,13.707.51,2.753,3,7.3,7.246,11.494,2.446,2.418,5.274,5.274,6.4,5.4,3.461.4,5.14-4.517,4.61-5.062C3656.272,4391.782,3651.763,4385.5,3648.869,4383.015Z" transform="translate(-3565.005 -4320.047)" fill="#e2dcc3"/><path d="M3617.985,4320.759c-1.313-8.542-2-14.426-5.65-21.5a4.223,4.223,0,0,0-.823-1.06,5.183,5.183,0,0,0-2.916-1.895,13.041,13.041,0,0,0-2.394-.826,9.933,9.933,0,0,0-1.9-.226,3.207,3.207,0,0,1-.525,1.556,7.7,7.7,0,0,1-2.382,1.5,2.819,2.819,0,0,1-1.492-2.045,5.306,5.306,0,0,1-1.39-.118c-.16-.037-.312-.083-.465-.13a9.66,9.66,0,0,0-3.23,1.9,6.341,6.341,0,0,0-1.966,3.02c-1.239,5.1-1.141,6.961-1.867,8.479-.833,1.727-5.449,4.595-9.082,6.226l1.709-.1c1.055.134,2.46.894,2.324,1.947l-.052,1.218a1.819,1.819,0,0,1-.422.905c3.4-1.545,8.72-3.907,9.947-6.452a16,16,0,0,0,.624-1.529c.44,1.219.761,2.348,1.038,3.416-.537.3-1.022.562-1.424.773,1.058.117,2.472.845,2.358,1.9l-.031,1.22a2.535,2.535,0,0,1-2.536,1.934l-1-.062a4.533,4.533,0,0,0,3.762-.275c.065-.036.206-.1.394-.19a14.654,14.654,0,0,0,.787,1.662c1.384,2.486,2.658,3.9,7.2,3.991C3610.637,4326.083,3618.732,4325.615,3617.985,4320.759Z" transform="translate(-3532.591 -4281.241)" fill="#00254d"/><path d="M3629.173,4295.534c-.5-1.093-1.352-1.133-1.328-1.366,0,.021,0,.045-.006.068-.015.169-.028.353-.053.549,0,.02,0,.039-.008.059-.008.056-.018.114-.029.172,0,.026-.009.05-.014.077-.012.056-.027.114-.043.171-.007.028-.013.057-.022.086-.017.058-.039.117-.061.177-.011.031-.02.061-.032.09-.025.062-.057.127-.088.191-.014.029-.025.057-.041.087a3.271,3.271,0,0,1-.17.286,7.707,7.707,0,0,1-2.383,1.5,2.827,2.827,0,0,1-1.491-2.045,5.51,5.51,0,0,1-.812-.027,6.915,6.915,0,0,0,.1,2.91c.229.769,1.134,3.68,1.982,3.775.327.036,3.186-3.055,3.71-3.964C3628.774,4297.665,3629.513,4296.283,3629.173,4295.534Z" transform="translate(-3556.098 -4280.611)" fill="#00254d"/><path d="M3622.315,4278.4c-.049-1.187-2.542-2.263-3.875-2.37-1.631-.133-3.207.484-4.661.18-.958-.2-1.316-.841-2.236-1.388a8.242,8.242,0,0,0-.558,1.654c-.8,3.611.833,7.079,4.257,7.834a5.223,5.223,0,0,0,1.39.119,2.824,2.824,0,0,0,1.491,2.046,7.713,7.713,0,0,0,2.382-1.5,3.686,3.686,0,0,0,.561-1.954l-.345-1.087a11.1,11.1,0,0,0,1.441-2.984C3622.223,4278.767,3622.269,4278.585,3622.315,4278.4Z" transform="translate(-3549.326 -4269.406)" fill="#fbd6a0"/><path d="M3617.809,4266.755a5.054,5.054,0,0,0-3.6-4.363,6.581,6.581,0,0,0-6.075.631,5.658,5.658,0,0,0-2.288,3.408l-2.141.045c-.61.008-1.1.018-1.315.028l-.27,0,.162,0c-.976.1-.219,1.684.834,2.107a7.588,7.588,0,0,0,2.682.388,4.563,4.563,0,0,1,.632-1.6c.866.536,1.229,1.15,2.16,1.343,1.455.3,3.03-.312,4.662-.18,1.333.106,3.83,1.185,3.875,2.371A9.075,9.075,0,0,0,3617.809,4266.755Z" transform="translate(-3544.139 -4261.942)" fill="#00254d"/><g transform="translate(45.29 34.301)"><g transform="translate(0 3.165)"><path d="M3573.833,4351.078l0-.079a5.4,5.4,0,0,0-1.342,2.087c-.041.115-.091.245-.142.38v3.843c.269-.783.623-1.692.922-2.457.2-.5.374-.957.5-1.3a4.207,4.207,0,0,1,.694-1.225A1.191,1.191,0,0,1,3573.833,4351.078Z" transform="translate(-3572.351 -4351)" fill="#dbdcdc"/></g><path d="M3582.372,4346.641a2.535,2.535,0,0,1-2.574,1.885l-2.025-.163c-1.059-.136-2.055-.585-1.916-1.644l.047-1.822c.136-1.058,1.274-1.448,2.333-1.31l1.864-.113c1.055.134,2.46.895,2.323,1.947Z" transform="translate(-3574.374 -4343.475)" fill="#fbd6a0"/></g><g transform="translate(51.372 34.579)"><path d="M3611.116,4347.26a2.531,2.531,0,0,1-2.536,1.933l-2.029-.125c-1.06-.114-2.064-.548-1.947-1.6l.017-1.823c.116-1.061,1.245-1.473,2.306-1.356l1.858-.145c1.059.115,2.478.843,2.362,1.9Z" transform="translate(-3597.111 -4344.138)" fill="#fbd6a0"/><path d="M3587.486,4348.161a.68.68,0,1,0,0,1.36h6.815l.013-1.36Z" transform="translate(-3586.806 -4346.469)" fill="#dbdcdc"/><g transform="translate(10.255 2.316)"><path d="M3611.848,4412.717h-.666v14.547h1.361v-14.845A.963.963,0,0,1,3611.848,4412.717Z" transform="translate(-3611.182 -4386.01)" fill="#dbdcdc"/><path d="M3614.6,4349.888a.681.681,0,1,0-1.045.872,1.772,1.772,0,0,1,.272,1.555c-.137.4-.364.982-.6,1.6-.366.933-.781,1.989-1.033,2.822l-.031.1a17.7,17.7,0,0,0-.97,4.973v4.991h.666a.959.959,0,0,1,.7.3v-5.29a16.364,16.364,0,0,1,.911-4.577l.031-.1c.237-.782.641-1.812,1-2.721.246-.627.48-1.22.627-1.654A3.12,3.12,0,0,0,3614.6,4349.888Z" transform="translate(-3611.182 -4349.644)" fill="#dbdcdc"/></g></g><path d="M3608.965,4390.423h-2.76v9.552h2.76a.965.965,0,0,0,.965-.965v-7.624A.965.965,0,0,0,3608.965,4390.423Z" transform="translate(-3546.672 -4336.372)" fill="#69757c"/><g transform="translate(4.716 80.811)"><g transform="translate(1.493 1.709)"><path d="M3480.124,4459.123a3.06,3.06,0,0,1,.347-1.03h-1.019A2.2,2.2,0,0,1,3480.124,4459.123Z" transform="translate(-3479.453 -4458.093)" fill="#23456d"/></g><g transform="translate(2.115 1.268)"><path d="M3486.674,4457.044a7.534,7.534,0,0,1,.227,1.948c0,.934-.412,1.429-.919,1.429a.42.42,0,0,1-.067-.011.385.385,0,0,1-.068.011c-.327,0-.574-.288-.778-.674-.221-.422-.4-1.072-.653-1.584a3.606,3.606,0,0,0-.117.918c0,1.333.693,2.41,1.548,2.41s1.551-1.077,1.551-2.41A2.9,2.9,0,0,0,3486.674,4457.044Z" transform="translate(-3482.882 -4457.044)" fill="#3e3a39"/><g transform="translate(0 0.441)"><path d="M3482.354,4459.688a3.593,3.593,0,0,1,.115-.912,1.652,1.652,0,0,0-.52-.684h-.621a3.237,3.237,0,0,0-.4,1.6c0,1.333.7,2.41,1.55,2.41h1.33a.432.432,0,0,0,.045-.007C3483.022,4462.055,3482.354,4461,3482.354,4459.688Z" transform="translate(-3480.931 -4458.093)" fill="#231815"/></g></g><path d="M3482.333,4454.031H3479.8a5.5,5.5,0,0,0,1.494,1.709c.572.366.82,1.6,1.168,2.262.2.386.452.673.778.673a.436.436,0,0,0,.068-.012.5.5,0,0,0,.067.012c.508,0,.92-.5.92-1.43,0-2.429-.833-3.215-.833-3.215Z" transform="translate(-3478.16 -4454.031)" fill="#4878b2"/><path d="M3477.4,4455.741a5.487,5.487,0,0,1-1.493-1.709h1.639a5.5,5.5,0,0,0,1.494,1.709Z" transform="translate(-3475.903 -4454.031)" fill="#3e699d"/><path d="M3487.422,4459.613c-.336,0-.612.428-.612.952s.276.954.612.954c.084,0,.8-.009.8-.954S3487.506,4459.613,3487.422,4459.613Z" transform="translate(-3482.222 -4457.265)" fill="#bebfbf"/></g><g transform="translate(28.285 80.811)"><g transform="translate(1.818)"><path d="M3538.313,4454.031h-2.065l.23,3.215c0,.79.411,1.43.919,1.43a.5.5,0,0,0,.066-.012.43.43,0,0,0,.067.012c.507,0,.918-.64.918-1.43v-3.215Z" transform="translate(-3536.248 -4454.031)" fill="#4878b2"/></g><path d="M3534.3,4454.031h-1.417l.109,1.522a1.307,1.307,0,0,1,1.04-.63h.333Z" transform="translate(-3532.478 -4454.031)" fill="#23456d"/><g transform="translate(0 0.893)"><path d="M3537.9,4457.665v1.676c0,.789-.411,1.43-.919,1.43a.377.377,0,0,1-.066-.011.429.429,0,0,1-.066.011c-.508,0-.918-.641-.918-1.43l-.121-1.695a3.124,3.124,0,0,0-.51,1.785c0,1.333.694,2.41,1.55,2.41s1.549-1.078,1.549-2.41A3.138,3.138,0,0,0,3537.9,4457.665Z" transform="translate(-3533.879 -4457.018)" fill="#3e3a39"/><path d="M3533.348,4458.565a3.116,3.116,0,0,1,.506-1.775l-.046-.637h-.332c-.856,0-1.55,1.081-1.55,2.412s.693,2.41,1.55,2.41h1.33a.349.349,0,0,0,.044-.007C3534.017,4460.933,3533.348,4459.872,3533.348,4458.565Z" transform="translate(-3531.927 -4456.153)" fill="#231815"/></g><path d="M3538.417,4459.613c-.337,0-.613.428-.613.952s.276.954.613.954c.084,0,.8-.009.8-.954S3538.5,4459.613,3538.417,4459.613Z" transform="translate(-3535.332 -4457.265)" fill="#bebfbf"/></g><g transform="translate(33.635 82.52)"><path d="M3545.317,4459.123a3.038,3.038,0,0,1,.347-1.03h-1.019A2.2,2.2,0,0,1,3545.317,4459.123Z" transform="translate(-3544.645 -4458.093)" fill="#23456d"/></g><g transform="translate(34.257 82.079)"><path d="M3551.867,4457.044a7.525,7.525,0,0,1,.227,1.948c0,.934-.412,1.429-.919,1.429a.385.385,0,0,1-.067-.011.407.407,0,0,1-.069.011c-.327,0-.574-.288-.778-.674-.221-.422-.4-1.072-.653-1.584a3.606,3.606,0,0,0-.117.918c0,1.333.693,2.41,1.547,2.41s1.552-1.077,1.552-2.41A2.9,2.9,0,0,0,3551.867,4457.044Z" transform="translate(-3548.075 -4457.044)" fill="#595757"/><g transform="translate(0 0.441)"><path d="M3547.546,4459.688a3.593,3.593,0,0,1,.115-.912,1.645,1.645,0,0,0-.519-.684h-.621a3.232,3.232,0,0,0-.4,1.6c0,1.333.695,2.41,1.55,2.41H3549a.427.427,0,0,0,.046-.007C3548.214,4462.055,3547.546,4461,3547.546,4459.688Z" transform="translate(-3546.124 -4458.093)" fill="#231815"/></g></g><path d="M3547.525,4454.031h-2.534a5.491,5.491,0,0,0,1.495,1.709c.571.366.82,1.6,1.168,2.262.2.386.451.673.778.673a.425.425,0,0,0,.068-.012.488.488,0,0,0,.067.012c.508,0,.919-.5.919-1.43,0-2.429-.832-3.215-.832-3.215Z" transform="translate(-3511.211 -4373.221)" fill="#4878b2"/><path d="M3542.589,4455.741a5.481,5.481,0,0,1-1.493-1.709h1.639a5.49,5.49,0,0,0,1.494,1.709Z" transform="translate(-3508.954 -4373.221)" fill="#3e699d"/><path d="M3552.615,4459.613c-.337,0-.613.428-.613.952s.276.954.613.954c.084,0,.8-.009.8-.954S3552.7,4459.613,3552.615,4459.613Z" transform="translate(-3515.273 -4376.454)" fill="#bebfbf"/><path d="M3493.975,4449.41v-.742a.967.967,0,0,1,.965-.965h-29.282a.967.967,0,0,0-.964.965v.742a.966.966,0,0,0,.964.963h29.282A.966.966,0,0,1,3493.975,4449.41Z" transform="translate(-3464.694 -4369.555)" fill="#00447d"/><g transform="translate(29.281 78.149)"><path d="M1.334,0H34.408a1.334,1.334,0,0,1,1.334,1.334v0A1.336,1.336,0,0,1,34.406,2.67H1.336A1.336,1.336,0,0,1,0,1.334v0A1.334,1.334,0,0,1,1.334,0Z" fill="#00579b"/></g><g transform="translate(55.707 80.811)"><path d="M3600.13,4454.031h-2.067l.229,3.215c0,.79.412,1.43.919,1.43a.427.427,0,0,0,.065-.012.537.537,0,0,0,.067.012c.509,0,.92-.64.92-1.43v-3.215Z" transform="translate(-3597.663 -4454.031)" fill="#2d527e"/><g transform="translate(0 0.893)"><path d="M3603.575,4458.565c0,1.333-.693,2.41-1.548,2.41s-1.551-1.078-1.551-2.41.7-2.412,1.551-2.412S3603.575,4457.234,3603.575,4458.565Z" transform="translate(-3599.061 -4456.153)" fill="#595757"/><path d="M3598.532,4458.565c0-1.308.669-2.366,1.505-2.4-.017,0-.03-.009-.047-.009h-1.33c-.855,0-1.549,1.081-1.549,2.412s.694,2.41,1.549,2.41h1.33a.387.387,0,0,0,.047-.007C3599.2,4460.933,3598.532,4459.872,3598.532,4458.565Z" transform="translate(-3597.112 -4456.153)" fill="#231815"/></g><path d="M3603.5,4454.031h-2.067l.23,3.215c0,.79.41,1.43.918,1.43a.451.451,0,0,0,.066-.012.478.478,0,0,0,.067.012c.507,0,.919-.64.919-1.43v-3.215Z" transform="translate(-3599.616 -4454.031)" fill="#5084c4"/><path d="M3603.6,4459.613c-.339,0-.613.428-.613.952s.273.954.613.954c.083,0,.8-.009.8-.954S3603.686,4459.613,3603.6,4459.613Z" transform="translate(-3600.517 -4457.265)" fill="#dbdcdc"/></g><g transform="translate(6.068 48.744)"><path d="M3479.554,4377.906H3508v0a.382.382,0,0,0-.364.372h-28.467A.385.385,0,0,1,3479.554,4377.906Z" transform="translate(-3479.149 -4377.865)" fill="#fbd6a0"/><path d="M3546.839,4378.282a.383.383,0,0,1,.383-.376h24.194a.382.382,0,0,1,.384.376Z" transform="translate(-3518.349 -4377.865)" fill="#b09060"/><path d="M3479.554,4447.209H3508v0a.381.381,0,0,1-.364-.372h-28.467A.384.384,0,0,0,3479.554,4447.209Z" transform="translate(-3479.149 -4417.794)" fill="#cea75f"/><path d="M3546.839,4446.833a.383.383,0,0,0,.383.376h24.194a.382.382,0,0,0,.384-.376Z" transform="translate(-3518.349 -4417.794)" fill="#90764d"/><rect width="25.005" height="28.619" transform="translate(28.459 0.418)" fill="#c4a064"/><rect width="28.459" height="28.619" transform="translate(0 0.418)" fill="#eabe6c"/><rect width="3.785" height="2.522" transform="translate(39.213)" fill="#eabe6c"/><rect width="3.785" height="2.523" transform="translate(39.213 26.891)" fill="#eabe6c"/></g><g transform="translate(9.108 51.464)"><path d="M3487.185,4384.272a.192.192,0,0,1-.055.125.2.2,0,0,1-.141.062.226.226,0,0,1-.142-.062.194.194,0,0,1-.055-.125h-.447v6.9h.441v0a.183.183,0,0,1,.061-.142.2.2,0,0,1,.283,0,.179.179,0,0,1,.063.142v0h13.018v-6.9Zm-.2,6.57a.208.208,0,0,1,0-.416.208.208,0,0,1,0,.416Zm0-.538a.2.2,0,0,1-.2-.2.209.209,0,0,1,.2-.206.2.2,0,0,1,.2.206A.2.2,0,0,1,3486.989,4390.3Zm0-.531a.2.2,0,0,1-.2-.2.208.208,0,0,1,.2-.207.2.2,0,0,1,.2.207A.2.2,0,0,1,3486.989,4389.774Zm0-.531a.2.2,0,0,1,0-.407.2.2,0,1,1,0,.407Zm0-.531a.208.208,0,0,1-.2-.2.2.2,0,0,1,.2-.2.2.2,0,0,1,.2.2A.2.2,0,0,1,3486.989,4388.711Zm0-.53a.209.209,0,0,1-.2-.2.2.2,0,0,1,.2-.2.2.2,0,0,1,.2.2A.205.205,0,0,1,3486.989,4388.182Zm0-.538a.2.2,0,0,1-.2-.2.209.209,0,0,1,.2-.2.2.2,0,0,1,.2.2A.2.2,0,0,1,3486.989,4387.644Zm0-.53a.2.2,0,0,1-.2-.2.21.21,0,0,1,.2-.207.206.206,0,0,1,.2.207A.2.2,0,0,1,3486.989,4387.114Zm0-.531a.2.2,0,0,1-.2-.2.209.209,0,0,1,.2-.205.2.2,0,0,1,.2.205A.2.2,0,0,1,3486.989,4386.583Zm0-.532a.2.2,0,0,1,0-.408.2.2,0,0,1,0,.408Zm0-.529a.209.209,0,0,1-.2-.205.2.2,0,0,1,.2-.2.2.2,0,0,1,.2.2A.2.2,0,0,1,3486.989,4385.522Zm0-.532a.207.207,0,0,1-.2-.2.2.2,0,0,1,.2-.2.2.2,0,0,1,.2.2A.2.2,0,0,1,3486.989,4384.99Z" transform="translate(-3486.345 -4384.272)" fill="#fff"/><g transform="translate(1.87 0.854)"><path d="M3497.132,4390.911h-3.673a.225.225,0,1,1,0-.45h3.673a.225.225,0,1,1,0,.45Z" transform="translate(-3492.205 -4388.711)" fill="#c8c9ca"/><path d="M3494.688,4386.752h-3.674a.225.225,0,0,1,0-.451h3.674a.225.225,0,1,1,0,.451Z" transform="translate(-3490.79 -4386.302)" fill="#c8c9ca"/><path d="M3496.416,4388.572h-5.4a.225.225,0,0,1,0-.449h5.4a.225.225,0,1,1,0,.449Z" transform="translate(-3490.79 -4387.356)" fill="#c8c9ca"/><path d="M3511,4390.911h-2.362a.225.225,0,1,1,0-.45H3511a.225.225,0,1,1,0,.45Z" transform="translate(-3500.997 -4388.711)" fill="#c8c9ca"/><g transform="translate(0 2.997)"><path d="M3497.132,4398.031h-3.673a.225.225,0,1,1,0-.45h3.673a.225.225,0,0,1,0,.45Z" transform="translate(-3492.205 -4395.833)" fill="#c8c9ca"/><path d="M3494.688,4393.876h-3.674a.226.226,0,0,1,0-.451h3.674a.226.226,0,0,1,0,.451Z" transform="translate(-3490.79 -4393.425)" fill="#c8c9ca"/><path d="M3496.416,4395.693h-5.4a.225.225,0,0,1,0-.45h5.4a.225.225,0,0,1,0,.45Z" transform="translate(-3490.79 -4394.479)" fill="#c8c9ca"/></g></g><path d="M3500.9,4385.09H3489.79a.6.6,0,0,0-.6.6v5.017a.6.6,0,0,0,.6.6H3500.9a.6.6,0,0,0,.6-.6v-5.017A.6.6,0,0,0,3500.9,4385.09Zm.421.6v.963h-4.879v-1.384h4.458A.422.422,0,0,1,3501.317,4385.691Zm-4.879,3.99v-1.114h4.879v1.114Zm0-1.2v-1.733h4.879v1.733Zm-6.648-3.207h6.469v2.877h-6.89v-2.457A.421.421,0,0,1,3489.79,4385.27Zm-.421,5.438v-2.469h6.89v2.89h-6.469A.421.421,0,0,1,3489.368,4390.708Z" transform="translate(-3487.992 -4384.745)" fill="#ed85a7"/></g><g transform="translate(64.369 20.446)"><path d="M3624.952,4319.156c1.412-2.1,2.038-5.4,2.25-7.367a12.331,12.331,0,0,0,.047-1.247,16.232,16.232,0,0,0-.785,2.9c-.392,1.958-1.075,5.063-2.8,6.287a62.755,62.755,0,0,1-5.958,3.74s.045.152.124.428C3620.472,4322.42,3624.309,4320.113,3624.952,4319.156Z" transform="translate(-3617.701 -4310.542)" fill="#fff"/><path d="M3635.828,4312.9a16.913,16.913,0,0,1-3.065,10.1,17.182,17.182,0,0,1-5.061,4.423,49.532,49.532,0,0,1-6.054,3.133c.1.264.165.44.165.44A42.286,42.286,0,0,0,3629.2,4327a15.214,15.214,0,0,0,4.158-4.045C3636.114,4318.721,3636.3,4315.646,3635.828,4312.9Z" transform="translate(-3619.988 -4311.909)" fill="#fff"/></g><g transform="translate(90.914 77.983)"><path d="M3681.309,4453.8a3.272,3.272,0,0,1,2.081-.183c.075-.242.153-.492.224-.745a3.511,3.511,0,0,0-2.309.079C3681.318,4453.252,3681.322,4453.539,3681.309,4453.8Z" transform="translate(-3681.091 -4450.438)" fill="#00254d"/><path d="M3683.537,4449c.173-.61.325-1.164.417-1.508a5.811,5.811,0,0,0-3.157.094c.057.4.13,1,.177,1.618A5.683,5.683,0,0,1,3683.537,4449Z" transform="translate(-3680.797 -4447.309)" fill="#00254d"/></g><path d="M3635.685,4297.924a3.283,3.283,0,0,1-1.262,1.683s4.75.877,4.517,3.816c0,0,2.331-.42,3.031.653C3641.97,4304.076,3642.271,4299.514,3635.685,4297.924Z" transform="translate(-3563.019 -4282.787)" fill="#fff"/><path d="M3614.561,4298.189s-3.358,1.492-4.01,2.659l-.42-.468s.606-1.4,3.778-2.8C3613.907,4297.583,3614.607,4298.143,3614.561,4298.189Z" transform="translate(-3548.946 -4282.589)" fill="#fff"/><path d="M3630.609,4311.634s-.7,6.855.187,8.813l.42.094,1.352-1.353a43.779,43.779,0,0,1-.093-5.689l1.679.234.233-1.912S3631.028,4311.541,3630.609,4311.634Z" transform="translate(-3560.658 -4290.718)" fill="#fff"/><path d="M3613.435,4311.38a23.77,23.77,0,0,1,4.412.021s.272,8.333-.358,9.368l-1.6-.094.163-7.719-2.558.031Z" transform="translate(-3550.86 -4290.52)" fill="#fff"/><path d="M3639.749,4331.01l-2.425-1.725s-2.565,4.384-5.689,5.549l1.771,2.611,2.938-2.238,2.145-2.192Z" transform="translate(-3561.404 -4300.954)" fill="#fff"/><path d="M3599.951,4323.19a9.143,9.143,0,0,1-.657,2.41,9.738,9.738,0,0,1-3.044,2.844l.8.714c4.57-2.1,4.29-5.783,4.29-5.783Z" transform="translate(-3540.905 -4297.422)" fill="#fff"/><path d="M3619.789,4262.392a6.582,6.582,0,0,0-6.075.631,5.443,5.443,0,0,0-2.235,3.261l-.018.159a18.055,18.055,0,0,1,8.161.373,3.136,3.136,0,0,1,2.656-2.771A5.023,5.023,0,0,0,3619.789,4262.392Z" transform="translate(-3549.717 -4261.942)" fill="#fff"/><g transform="translate(6.702 28.751)"><rect width="3.035" height="1.333" rx="0.666" transform="translate(2.231 18.591)" fill="#3d3d3d"/><rect width="3.035" height="1.333" rx="0.666" transform="translate(26.535 18.591)" fill="#3d3d3d"/><path d="M361.352,1362.278a1.055,1.055,0,0,0-1.055,1.054v16.63a1.055,1.055,0,0,0,1.055,1.054H385.27v-18.739Z" transform="translate(-360.025 -1362.24)" fill="#4d4d4d"/><path d="M3.091,0H16.61A3.092,3.092,0,0,1,19.7,3.092V8.238A3.091,3.091,0,0,1,16.61,11.33H3.091A3.091,3.091,0,0,1,0,8.238V3.091A3.091,3.091,0,0,1,3.091,0Z" transform="translate(2.908 4.689)" fill="#e6e6e6"/><path d="M602.029,1362.278h-5.352v18.739h5.352a1.054,1.054,0,0,0,1.055-1.054v-16.63A1.054,1.054,0,0,0,602.029,1362.278Z" transform="translate(-571.432 -1362.24)" fill="#333"/><g transform="translate(25.783 3.586)"><g transform="translate(0 0)"><circle cx="2.219" cy="2.219" r="2.219" transform="translate(0 4.321) rotate(-76.838)" fill="#4d4d4d"/><circle cx="1.899" cy="1.899" r="1.899" transform="translate(0.384 4.082) rotate(-76.821)" fill="#333"/><circle cx="1.762" cy="1.762" r="1.762" transform="translate(0.533 3.956) rotate(-76.168)" fill="#4d4d4d"/><path d="M622.286,1402.787h-.508a5.962,5.962,0,0,0-.032,3.854h.543A6.948,6.948,0,0,0,622.286,1402.787Z" transform="translate(-619.377 -1402.057)" fill="#333"/></g><g transform="translate(0 6.31)"><circle cx="2.219" cy="2.219" r="2.219" transform="translate(0 4.321) rotate(-76.838)" fill="#4d4d4d"/><circle cx="1.899" cy="1.899" r="1.899" transform="translate(0.384 4.082) rotate(-76.821)" fill="#333"/><circle cx="1.762" cy="1.762" r="1.762" transform="translate(0.548 3.98) rotate(-76.813)" fill="#4d4d4d"/><path d="M612.686,1476.115v-.508a5.965,5.965,0,0,0-3.854-.031v.543A6.946,6.946,0,0,0,612.686,1476.115Z" transform="translate(-608.085 -1473.206)" fill="#333"/></g></g><rect width="19.071" height="1.516" transform="translate(3.224 0)" fill="#4d4d4d"/><path d="M382.923,1364.433h-2.906a44.945,44.945,0,0,1-19.07,0H358.04a.317.317,0,0,1-.317-.317v-1.854a.341.341,0,0,1,.341-.341h2.882a42.376,42.376,0,0,0,19.07,0H382.9a.341.341,0,0,1,.341.341v1.854A.317.317,0,0,1,382.923,1364.433Z" transform="translate(-357.723 -1361.921)" fill="#333"/><g transform="translate(3.845 8.059)"><path d="M403.1,1443.808h8.671a.3.3,0,0,0,.28-.415l-1.749-3.978a.3.3,0,0,1-.025-.118v-.8a.3.3,0,0,0-.3-.3H396.223a.3.3,0,0,0-.3.3v.793a.293.293,0,0,1-.025.118l-1.749,3.982a.3.3,0,0,0,.28.415Z" transform="translate(-394.12 -1438.202)" fill="none" stroke="#b3b3b3" stroke-linecap="round" stroke-linejoin="round" stroke-width="1"/><line y2="5.606" transform="translate(8.976 0)" fill="none" stroke="#b3b3b3" stroke-linecap="round" stroke-linejoin="round" stroke-width="1"/><path d="M461.167,1438.2v1.152l-.544,4.454" transform="translate(-453.597 -1438.202)" fill="none" stroke="#b3b3b3" stroke-linecap="round" stroke-linejoin="round" stroke-width="1"/><path d="M443.782,1438.2v1.162l-1.121,4.444" transform="translate(-437.533 -1438.202)" fill="none" stroke="#b3b3b3" stroke-linecap="round" stroke-linejoin="round" stroke-width="1"/><path d="M427.4,1438.2v1.152l-1.424,4.454" transform="translate(-422.612 -1438.202)" fill="none" stroke="#b3b3b3" stroke-linecap="round" stroke-linejoin="round" stroke-width="1"/><path d="M410.717,1438.2v1.152l-1.769,4.454" transform="translate(-407.382 -1438.202)" fill="none" stroke="#b3b3b3" stroke-linecap="round" stroke-linejoin="round" stroke-width="1"/><path d="M492.4,1438.2v1.152l.544,4.454" transform="translate(-482.013 -1438.202)" fill="none" stroke="#b3b3b3" stroke-linecap="round" stroke-linejoin="round" stroke-width="1"/><path d="M504.9,1438.2v1.162l1.121,4.444" transform="translate(-493.196 -1438.202)" fill="none" stroke="#b3b3b3" stroke-linecap="round" stroke-linejoin="round" stroke-width="1"/><path d="M518.715,1438.2v1.152l1.424,4.454" transform="translate(-505.552 -1438.202)" fill="none" stroke="#b3b3b3" stroke-linecap="round" stroke-linejoin="round" stroke-width="1"/><path d="M532.476,1438.2v1.152l1.769,4.454" transform="translate(-517.859 -1438.202)" fill="none" stroke="#b3b3b3" stroke-linecap="round" stroke-linejoin="round" stroke-width="1"/></g></g><g transform="translate(38.254 12.795)"><g transform="translate(6.339 58.669)"><path d="M1165.124,739.375a10.77,10.77,0,0,0-.108,1.438h2.558a10.75,10.75,0,0,0-.108-1.438,2.73,2.73,0,0,1-2.343,0Z" transform="translate(-1165.016 -738.465)" fill="#bab9b9"/><path d="M1167.446,728.771h-1.012s-.085.374-.159.91a2.728,2.728,0,0,0,2.342,0c-.074-.536-.159-.91-.159-.91Z" transform="translate(-1166.167 -728.771)" fill="#a6a5a5"/></g><path d="M0,0H.868a0,0,0,0,1,0,0V0A.252.252,0,0,1,.616.252H.252A.252.252,0,0,1,0,0V0A0,0,0,0,1,0,0Z" transform="translate(0.788 65.285)" fill="#8c8c8c"/><path d="M.252,0H.616A.252.252,0,0,1,.868.252v0a0,0,0,0,1,0,0H0a0,0,0,0,1,0,0v0A.252.252,0,0,1,.252,0Z" transform="translate(14.448 65.537) rotate(180)" fill="#8c8c8c"/><path d="M0,0H.868a0,0,0,0,1,0,0V0A.252.252,0,0,1,.616.252H.252A.252.252,0,0,1,0,0V0A0,0,0,0,1,0,0Z" transform="translate(3.346 65.285)" fill="#8c8c8c"/><path d="M0,0H.868a0,0,0,0,1,0,0V0A.252.252,0,0,1,.616.252H.252A.252.252,0,0,1,0,0V0A0,0,0,0,1,0,0Z" transform="translate(5.905 65.285)" fill="#8c8c8c"/><path d="M0,0H.868a0,0,0,0,1,0,0V0A.252.252,0,0,1,.616.252H.252A.252.252,0,0,1,0,0V0A0,0,0,0,1,0,0Z" transform="translate(8.463 65.285)" fill="#8c8c8c"/><path d="M0,0H.868a0,0,0,0,1,0,0V0A.252.252,0,0,1,.616.252H.252A.252.252,0,0,1,0,0V0A0,0,0,0,1,0,0Z" transform="translate(11.021 65.285)" fill="#8c8c8c"/><path d="M1105.825,796.864h-14.171c-.261,0-.484-.068-.533-.3v.245a.546.546,0,0,0,.544.556h14.149a.546.546,0,0,0,.544-.556v-.245C1106.31,796.8,1106.087,796.864,1105.825,796.864Z" transform="translate(-1091.122 -732.076)" fill="#bab9b9"/><g transform="translate(3.582 45.515)"><path d="M1153.909,709.425a3.639,3.639,0,0,1-2.442-.865c.377,1.286,1.2,2.274,2.442,2.274s2.065-.988,2.442-2.274A3.64,3.64,0,0,1,1153.909,709.425Z" transform="translate(-1149.873 -697.14)" fill="#c44823"/><path d="M1140.94,576.174h-.951l-.368-.414a.974.974,0,0,0-.727-.326h-3.956a.974.974,0,0,0-.727.326l-.368.414h-.951c-.146,3,1.21,9.169,1.519,10.44q.03.122.065.24a3.877,3.877,0,0,0,4.883,0q.035-.118.064-.24C1139.73,585.343,1141.086,579.174,1140.94,576.174Z" transform="translate(-1132.879 -575.433)" fill="#9f3718"/></g><path d="M1147.074,603.6c.769,0,1.573-.329,1.713-.728a65.023,65.023,0,0,0,1.364-8.084,1.091,1.091,0,0,0-1.086-1.2h-3.982a1.092,1.092,0,0,0-1.086,1.2,65.164,65.164,0,0,0,1.364,8.084c.14.4.945.728,1.714.728Z" transform="translate(-1139.456 -546.508)" fill="#6d6d6d"/><path d="M.3,0h.829a.3.3,0,0,1,.3.3v0a.3.3,0,0,1-.3.3H.3A.3.3,0,0,1,0,.3v0A.3.3,0,0,1,.3,0Z" transform="translate(6.908 45.976)" fill="#f0f0f0"/><g transform="translate(3.593 0)"><path d="M1165,45.473a.462.462,0,0,0-.065-.2.836.836,0,0,0-1.461,0,.465.465,0,0,0-.066.2c-.089,3.008-.428,17.477-.679,27.624h2.95C1165.432,62.95,1165.093,48.481,1165,45.473Z" transform="translate(-1160.183 -44.844)" fill="#c44823"/><path d="M1139.52,460.813a5.348,5.348,0,0,1-.732-2.974c-.013-.058-.051-1.308-.1-3.325h-3.3c-.054,2.017-.092,3.268-.1,3.325a5.353,5.353,0,0,1-.732,2.974c-.659.935-1.391,1.814-1.537,4.814h.951l.368-.414a.973.973,0,0,1,.727-.326h3.957a.974.974,0,0,1,.727.326l.368.414h.951C1140.911,462.627,1140.178,461.749,1139.52,460.813Z" transform="translate(-1133.007 -419.371)" fill="#c44823"/><path d="M1163.981,380.586H1161c-.055,2.216-.105,4.2-.147,5.794h3.272C1164.086,384.79,1164.036,382.8,1163.981,380.586Z" transform="translate(-1158.467 -351.785)" fill="#c44823"/><path d="M1163.973,448.126H1160.7q-.008.283-.015.548h3.3Q1163.98,448.409,1163.973,448.126Z" transform="translate(-1158.311 -413.531)" fill="#bab9b9"/><path d="M1165.539,374.2h-2.95q-.007.276-.013.548h2.977Q1165.546,374.475,1165.539,374.2Z" transform="translate(-1160.039 -345.946)" fill="#bab9b9"/></g><path d="M1174.441,103.588a.516.516,0,0,1-.515-.515v-.9a.515.515,0,0,1,1.03,0v.9A.516.516,0,0,1,1174.441,103.588Z" transform="translate(-1166.823 -96.786)" fill="#666"/><g transform="translate(7.3 5.071)"><path d="M1176.858,104.275a.318.318,0,0,0-.636,0v.449h.636Z" transform="translate(-1176.222 -103.957)" fill="gray"/><path d="M1176.222,112.9v.449a.318.318,0,0,0,.636,0V112.9Z" transform="translate(-1176.222 -112.129)" fill="#666"/></g><path d="M1173.944,430.49a.523.523,0,1,1,.523.523A.523.523,0,0,1,1173.944,430.49Z" transform="translate(-1166.839 -396.93)" fill="#666"/><circle cx="0.315" cy="0.315" r="0.315" transform="translate(7.312 33.244)" fill="#bab9b9"/><g transform="translate(5.195 47.732)"><path d="M1161.227,630.227c.134.7.287,1.43.46,2.183a.535.535,0,0,0,.32.376,2.234,2.234,0,0,0,1.648,0,.536.536,0,0,0,.32-.376c.534-2.318.872-4.439,1.078-6.005Z" transform="translate(-1160.409 -624.249)" fill="#1f1f1f"/><path d="M1156.53,601.752a.431.431,0,0,0-.429-.475h-3.983a.431.431,0,0,0-.429.476c.116,1.131.359,3.126.816,5.5l3.827-3.822C1156.421,602.761,1156.485,602.191,1156.53,601.752Z" transform="translate(-1151.687 -601.276)" fill="#515151"/></g><path d="M1106.343,754.626l-.259-1.27a1.85,1.85,0,0,0-1.216-1.316l-4.142-1.188a.616.616,0,0,0-.7.25.454.454,0,0,1-.406.175h-1.758a.456.456,0,0,1-.407-.175.615.615,0,0,0-.7-.25l-4.143,1.188a1.851,1.851,0,0,0-1.216,1.316l-.259,1.27c-.081.333.175.423.517.423h14.171C1106.168,755.049,1106.425,754.959,1106.343,754.626Z" transform="translate(-1091.122 -690.261)" fill="#c44823"/></g></g></g></g></svg>