<svg xmlns="http://www.w3.org/2000/svg" width="140" height="140" viewBox="0 0 140 140">
  <g id="recommend_obj25" transform="translate(0 -0.477)">
    <circle id="楕円形_23" data-name="楕円形 23" cx="70" cy="70" r="70" transform="translate(0 0.477)" fill="#f7f3e5"/>
    <g id="グループ_13353" data-name="グループ 13353" transform="translate(20.588 26.711)">
      <g id="グループ_4601" data-name="グループ 4601" transform="translate(43.28 4.119)">
        <g id="グループ_4596" data-name="グループ 4596" transform="translate(0 8.412)">
          <path id="パス_71057" data-name="パス 71057" d="M592.87,181.78a35.389,35.389,0,0,0-10.97,1.758,31.106,31.106,0,0,0-8.568,6.457c-.953,1.339-2.273,7.342-2.972,8.243a51.138,51.138,0,0,0-3.748,4.944c-.645,1.245.023,3.857-.414,6.626a50.167,50.167,0,0,1-1.243,5.97c-.2.454-3.252,2.442-5.572,3.28,3.676,1.666,7.172,4.379,9.763,5.259s12.481,4.712,18.848,5.639,14.575-.979,19.112-1,8.405-1.44,10.245-1.25c-1.96-1.9-3.29-3-4.075-4.337s-1.224-.983-1.226-3.365a14.2,14.2,0,0,1,.518-4.049c.42-2.078-.193-4.17-.762-6.549s.026-5.252-.378-7.243-1.532-6.332-2.6-8.024a40.641,40.641,0,0,0-5.762-6.181A33.773,33.773,0,0,0,592.87,181.78Z" transform="translate(-559.382 -181.75)" fill="#ccccd1"/>
          <path id="パス_71058" data-name="パス 71058" d="M598.2,233.123c-.663-.042-1.3-.106-1.895-.193-5.29-.77-13.176-3.611-16.966-4.976-.782-.282-1.4-.5-1.829-.65a27.8,27.8,0,0,1-4.688-2.472c-1.422-.856-2.887-1.737-4.411-2.478,2.156-.915,4.844-2.625,5.088-3.184a49.072,49.072,0,0,0,1.264-6.043,19.659,19.659,0,0,0,.14-3.7,6.771,6.771,0,0,1,.245-2.834,34.3,34.3,0,0,1,2.959-3.957c.316-.387.589-.72.76-.941a17.625,17.625,0,0,0,1.34-3.72,23.24,23.24,0,0,1,1.639-4.533,30.967,30.967,0,0,1,8.44-6.354,35.938,35.938,0,0,1,10.63-1.754q.081,0,.149.013a33.174,33.174,0,0,1,10.066,6.108,42.229,42.229,0,0,1,5.71,6.119c1.056,1.676,2.179,6.062,2.557,7.923a14.835,14.835,0,0,1,.129,3.1,16.449,16.449,0,0,0,.252,4.152q.085.354.17.7c.512,2.1.955,3.912.59,5.717-.028.139-.064.283-.105.45a13.391,13.391,0,0,0-.419,3.66c0,1.753.236,2.127.723,2.741a6.29,6.29,0,0,1,.545.777,16.389,16.389,0,0,0,2.978,3.3l.6.573a24.959,24.959,0,0,0-2.836.446,35.632,35.632,0,0,1-6.657.808,59.324,59.324,0,0,0-6.047.529,64.081,64.081,0,0,1-11.125.664Z" transform="translate(-567.648 -185.023)" fill="#e5e5eb"/>
          <path id="パス_71059" data-name="パス 71059" d="M743.368,285.533c-5.418,1.928-10.743,3.96-12.117,5.03s-4.21,6.919-4.706,10.2-4.575,10.431-2.956,14.747,11.582,5.683,14.839,7.048,17.372-.8,19.6-.69.784-7.471,1.4-9.556c1.276-4.286,1.246-10.239-2.357-13.887S753.294,282,743.368,285.533Z" transform="translate(-709.4 -276.224)" fill="#e5e5eb" opacity="0.3" style="mix-blend-mode: multiply;isolation: isolate"/>
          <path id="パス_71060" data-name="パス 71060" d="M721.911,224.275c-3.758,1.337-7.452,2.747-8.405,3.489s-2.921,4.8-3.265,7.072-3.174,7.236-2.051,10.229,6.6,5.656,8.86,6.6,11.993-2.739,13.536-2.662,4.788-6.675,5.766-7.824-.448-7.777-2.947-10.308S728.8,221.824,721.911,224.275Z" transform="translate(-695.405 -220.194)" fill="#ccccc4" opacity="0.3" style="mix-blend-mode: screen;isolation: isolate"/>
          <path id="パス_71061" data-name="パス 71061" d="M764.415,246.755a28.014,28.014,0,0,0-4.724,1.961,9.529,9.529,0,0,0-1.834,3.974c-.193,1.277-1.784,4.066-1.152,5.748s3.709,3.178,4.979,3.71,6.739-1.539,7.606-1.5,2.69-3.751,3.24-4.4-.251-4.371-1.656-5.792S768.284,245.378,764.415,246.755Z" transform="translate(-739.935 -240.996)" fill="#ccccc4" opacity="0.3" style="mix-blend-mode: screen;isolation: isolate"/>
          <g id="グループ_4594" data-name="グループ 4594" transform="translate(0 7.463)">
            <path id="パス_71062" data-name="パス 71062" d="M617.35,308.776c-1.96-1.9-3.29-3-4.075-4.337s-1.224-.983-1.226-3.365a14.2,14.2,0,0,1,.518-4.049c.42-2.078-.193-4.17-.762-6.549s.026-5.252-.378-7.243-1.532-6.332-2.6-8.024a32.75,32.75,0,0,0-4.428-4.929,46.827,46.827,0,0,1,1.953,7.424c.415,3.045,1.99,5.261,1.964,5.662s-1.964,4.009-2.033,5.114.822,4.587-.709,6.507a27.124,27.124,0,0,1-6.784,5.321c-2.2,1.274-4.573,2.41-4.58,2.523s9.923.885,10.342,1.44-8.1.779-10.485.856-4.556-1.494-6.146-1.442-10.208.042-11.026-.16-4.608-2.48-5.055-2.584a30.857,30.857,0,0,0-3.685-1.516c-.974-.136,4.687-1.219,4.7-1.445s-4.3-1.4-4.568-2.553.558-4.652.77-5.621-1.532-3.3-1.246-4.251,3.406-4.911,3.783-6.1a16.905,16.905,0,0,0,.109-3.966,19.842,19.842,0,0,1-1.347,3.813,51.133,51.133,0,0,0-3.748,4.944c-.645,1.245.023,3.857-.414,6.626a50.168,50.168,0,0,1-1.243,5.97c-.2.454-3.252,2.442-5.572,3.28,3.676,1.666,7.172,4.379,9.763,5.259s12.481,4.712,18.848,5.639,14.575-.979,19.112-1S615.51,308.585,617.35,308.776Z" transform="translate(-559.382 -270.28)" fill="#dbdbe0" style="mix-blend-mode: multiply;isolation: isolate"/>
            <path id="パス_71063" data-name="パス 71063" d="M868.036,495.614a54.7,54.7,0,0,0-6.507.752c-.625.314-6.489,7.859-6.978,8.434s6.564-3.42,7.894-3.74,7.486-4.471,7.919-4.948S871.046,495.375,868.036,495.614Z" transform="translate(-829.645 -476.535)" fill="#e5e3e6" style="mix-blend-mode: multiply;isolation: isolate"/>
            <path id="パス_71064" data-name="パス 71064" d="M777.074,306.661c.107.451,1.23,4.512,1.5,5.033s-2.714-1.732-3.4-2.077,1.528-4.289,1.773-4.979S776.956,306.165,777.074,306.661Z" transform="translate(-756.864 -301.62)" fill="#e5e3e6" style="mix-blend-mode: multiply;isolation: isolate"/>
            <path id="パス_71065" data-name="パス 71065" d="M708.493,561.13a23.6,23.6,0,0,0,3.378.267c.17-.046,2.629-1.849,2.972-2.124a23.193,23.193,0,0,0-2.939.972C711.588,560.33,708.055,561.033,708.493,561.13Z" transform="translate(-695.888 -534.872)" fill="#e5e3e6" style="mix-blend-mode: multiply;isolation: isolate"/>
          </g>
          <g id="グループ_4595" data-name="グループ 4595" transform="translate(25.71 0.548)">
            <path id="パス_71066" data-name="パス 71066" d="M870.834,188.252c-1.506.718-4.955,1.863-5.993,4.772s-.336,2.952,1.164,1.534S869.525,189.84,870.834,188.252Z" transform="translate(-864.347 -188.252)" fill="#e5e3e6" style="mix-blend-mode: multiply;isolation: isolate"/>
            <path id="パス_71067" data-name="パス 71067" d="M958.922,193.013c.326,2.036.737,9.974,2.277,11.935s2.777,2.341,3.232-1.713S961.8,198,958.922,193.013Z" transform="translate(-950.949 -192.612)" fill="#e5e3e6" style="mix-blend-mode: multiply;isolation: isolate"/>
          </g>
        </g>
        <g id="グループ_4600" data-name="グループ 4600" transform="translate(23.031 0)">
          <g id="グループ_4597" data-name="グループ 4597">
            <path id="パス_71068" data-name="パス 71068" d="M843.314,90.89c-1.074-1.329-2.811-2.666-3.824-4.406s-1.109-2.185-6.915-4.515c1.361,2.387,1.361,4.853,2.831,6.3C836.7,89.555,840.892,90.206,843.314,90.89Z" transform="translate(-832.576 -81.969)" fill="#ccccd1"/>
            <path id="パス_71069" data-name="パス 71069" d="M851.709,98.737c-.371-.091-.762-.183-1.165-.278-2.113-.5-4.946-1.2-5.852-2.1-.775-.766-.914-1.761-1.311-3.015a20.586,20.586,0,0,0-.986-2.392c4.78,1.951,5.111,2.435,5.957,3.9l.1.178A15.57,15.57,0,0,0,850.988,98c.25.252.493.5.721.738Z" transform="translate(-841.566 -90.197)" fill="#e5e5eb"/>
            <path id="パス_71070" data-name="パス 71070" d="M905.881,148.9c-.9-.766-1.7-1.366-2.071-1.681s-1.6-1.25-1.51-.664S902.612,147.612,905.881,148.9Z" transform="translate(-896.418 -140.94)" fill="#e5e3e6" style="mix-blend-mode: multiply;isolation: isolate"/>
          </g>
          <g id="グループ_4598" data-name="グループ 4598" transform="translate(10.137 4.309)">
            <path id="パス_71071" data-name="パス 71071" d="M952.815,137.5c1.468-.935,3.517-3.653,5.964-4.312,1.5-.4,4.419.395,5.856,1.047-1.41,1.6-3.609,3.4-4.868,3.7C957.695,138.437,955.375,137.7,952.815,137.5Z" transform="translate(-952.815 -133.079)" fill="#ccccd1"/>
            <path id="パス_71072" data-name="パス 71072" d="M963.812,141.355c-.737-.046-1.5-.16-2.306-.282-.53-.08-1.071-.161-1.626-.226.345-.285.709-.622,1.086-.971a11.039,11.039,0,0,1,4.152-2.827,4.144,4.144,0,0,1,1.3-.085,14.275,14.275,0,0,1,3.971.952c-1.338,1.435-3.308,3.024-4.43,3.3a7.093,7.093,0,0,1-2.145.143Z" transform="translate(-959.284 -136.624)" fill="#e5e5eb"/>
            <path id="パス_71073" data-name="パス 71073" d="M967.769,166.383c.753-.348,1.725-1.221,2.114-1.376a2.633,2.633,0,0,1,1.63.152C971.78,165.341,969.138,166.1,967.769,166.383Z" transform="translate(-966.508 -162.251)" fill="#e5e3e6" style="mix-blend-mode: multiply;isolation: isolate"/>
          </g>
          <g id="グループ_4599" data-name="グループ 4599" transform="translate(8.148 7.362)">
            <path id="パス_71074" data-name="パス 71074" d="M931.553,169.3a2.849,2.849,0,0,0-2.307.931c-.183.413,1.028,1.365,1.481,1.507.883.274,2.615,0,2.659-.444A2.79,2.79,0,0,0,931.553,169.3Z" transform="translate(-929.227 -169.292)" fill="#e5e5eb"/>
            <path id="パス_71075" data-name="パス 71075" d="M940.621,175.93a2.258,2.258,0,0,1-2.56,1.427,2.847,2.847,0,0,0,.755.461c.883.274,2.615,0,2.659-.444A2.663,2.663,0,0,0,940.621,175.93Z" transform="translate(-937.316 -175.37)" fill="#e5e3e6" style="mix-blend-mode: multiply;isolation: isolate"/>
          </g>
        </g>
      </g>
      <g id="グループ_4609" data-name="グループ 4609" transform="translate(23.959 16.153)">
        <g id="グループ_4604" data-name="グループ 4604" transform="translate(0 4.531)">
          <path id="パス_71076" data-name="パス 71076" d="M355.275,278.464a27.674,27.674,0,0,1-2.855.14,5.283,5.283,0,0,0-2.715.758,19.352,19.352,0,0,0-4.712,2.935,17.182,17.182,0,0,1-3.335,2.735c-1.757,1.158-3.115,3.275-4.712,4.912a20.152,20.152,0,0,0-3.993,7.866c-.4,2.156-.719,5.83-1.438,8.106s-1.518,4.233-1.278,5.271,3.634,6.229,5.63,7.267,3.47.519,6.866,1.438,7.15,2.6,11.742,2.476a32.014,32.014,0,0,0,11.221-2.516,79.231,79.231,0,0,1,7.627-2.276c2.755-.8,4.432-1.118,6.429-3.554s3.025-4.792,2.625-7.946-1.307-2.809-1.987-5.657a25.475,25.475,0,0,0-2.715-6.762c-1.118-2.076-1.237-3.594-3.434-6.908s-5.551-4.712-8.106-5.75A37.39,37.39,0,0,0,355.275,278.464Z" transform="translate(-330.195 -278.464)" fill="#ccccd1"/>
          <path id="パス_71077" data-name="パス 71077" d="M357.188,325.287a28.348,28.348,0,0,1-8.689-1.717c-.87-.275-1.693-.534-2.508-.755a21.7,21.7,0,0,0-3.69-.648,7.985,7.985,0,0,1-3.118-.766c-1.872-.973-5.249-6.074-5.48-7.073-.173-.748.294-2.151.833-3.775.144-.432.292-.88.438-1.342a38.435,38.435,0,0,0,1.062-5.63c.13-.929.254-1.806.384-2.511a19.821,19.821,0,0,1,3.915-7.715c.563-.577,1.1-1.218,1.621-1.838A15.333,15.333,0,0,1,345,288.484a17.424,17.424,0,0,0,3.383-2.775A19.149,19.149,0,0,1,353,282.836a5.615,5.615,0,0,1,2.4-.736c.062,0,.125,0,.19,0s.151,0,.24,0c.725,0,2.008-.069,2.626-.141a36.838,36.838,0,0,1,10.749,2.512c2.445.993,5.794,2.354,7.972,5.64a23.2,23.2,0,0,1,2.435,4.7A20.508,20.508,0,0,0,380.6,297a25.179,25.179,0,0,1,2.688,6.69,8.995,8.995,0,0,0,1.016,2.587,7.02,7.02,0,0,1,.965,3.039c.353,2.792-.412,5.1-2.562,7.724-1.782,2.174-3.24,2.59-5.655,3.278l-.629.18c-.862.25-1.594.441-2.3.625a48.426,48.426,0,0,0-5.346,1.658,31.822,31.822,0,0,1-11.126,2.5q-.232.006-.46.006Z" transform="translate(-333.374 -281.67)" fill="#e5e5eb"/>
          <path id="パス_71078" data-name="パス 71078" d="M513.615,322.825c-4.471,3.068-8.832,6.209-9.826,7.516s-2.163,7.325-1.822,10.431-1.646,10.614.874,14.155,11.931,2.377,15.23,2.833,15.639-4.933,17.693-5.371-1.094-7-1.033-9.049c.126-4.216-1.342-9.633-5.508-12.086S521.806,317.2,513.615,322.825Z" transform="translate(-487.098 -317.693)" fill="#e5e5eb" opacity="0.3" style="mix-blend-mode: multiply;isolation: isolate"/>
          <path id="パス_71079" data-name="パス 71079" d="M429.464,314.2c-3.566,1.525-7.064,3.117-7.944,3.9s-2.543,4.834-2.738,7.06-2.641,7.213-1.369,10.049,6.748,5.087,9,5.869,11.471-3.385,12.972-3.4,4.24-6.767,5.12-7.941-.906-7.518-3.485-9.822S436,311.4,429.464,314.2Z" transform="translate(-409.726 -310.535)" fill="#ccccc4" opacity="0.3" style="mix-blend-mode: screen;isolation: isolate"/>
          <path id="パス_71080" data-name="パス 71080" d="M466.44,338.349a27.218,27.218,0,0,0-4.464,2.189,9.257,9.257,0,0,0-1.539,3.967c-.11,1.251-1.484,4.053-.769,5.647s3.792,2.858,5.056,3.3,6.446-1.9,7.289-1.913,2.382-3.8,2.877-4.462-.509-4.225-1.958-5.52S470.11,336.779,466.44,338.349Z" transform="translate(-448.566 -332.935)" fill="#ccccc4" opacity="0.3" style="mix-blend-mode: screen;isolation: isolate"/>
          <g id="グループ_4602" data-name="グループ 4602" transform="translate(18.242 0.24)">
            <path id="パス_71081" data-name="パス 71081" d="M552.885,282.683a10.265,10.265,0,0,0-1.887.536,15.206,15.206,0,0,0-3.255,2.048c-.772.74-1.431,2.214-1.062,2.8s1.508-1.152,2.348-2.182a29.791,29.791,0,0,1,2.381-2.544A6.291,6.291,0,0,1,552.885,282.683Z" transform="translate(-546.576 -282.567)" fill="#e5e3e6" style="mix-blend-mode: multiply;isolation: isolate"/>
            <path id="パス_71082" data-name="パス 71082" d="M570,281.306a37.889,37.889,0,0,0-3.762,6.045c-.718,1.522-1.37,4.5-1.087,5.045s3.24-3.957,3.718-4.784S569.337,282.835,570,281.306Z" transform="translate(-563.525 -281.306)" fill="#e5e3e6" style="mix-blend-mode: multiply;isolation: isolate"/>
            <path id="パス_71083" data-name="パス 71083" d="M638.846,281.535a22.648,22.648,0,0,1,5.026,2.849c.891.916,3.153,3.59,2.805,5.026s-3.719-3.262-4.458-4.327A42.808,42.808,0,0,0,638.846,281.535Z" transform="translate(-631.067 -281.516)" fill="#e5e3e6" style="mix-blend-mode: multiply;isolation: isolate"/>
          </g>
          <g id="グループ_4603" data-name="グループ 4603" transform="translate(0 4.386)">
            <path id="パス_71084" data-name="パス 71084" d="M379.753,361.665c2-2.436,3.025-4.792,2.625-7.946s-1.307-2.809-1.987-5.657a25.475,25.475,0,0,0-2.715-6.762c-1.118-2.076-1.237-3.594-3.434-6.908a12.72,12.72,0,0,0-4.2-3.9c.636,1.638,1.3,3.553,1.763,4.818.638,1.757,1.358,1.6,1.038,4.792s-.8,3.434.078,6.708-.4,4.153-1.8,6.389-5.07,5.75-7.866,5.67a10.825,10.825,0,0,0-7,2.076,10.326,10.326,0,0,1-6.894,1.837c-2.476-.16-6.868-.24-8.545-.319s-5.111-.719-5.431-2.875-1.587-1.656-1.906-5.33a24.176,24.176,0,0,1,1.268-9.844c.6-1.592,1.284-4.524,2.506-7.155-.1.111-.205.22-.31.326a20.153,20.153,0,0,0-3.993,7.867,76.987,76.987,0,0,1-1.438,8.106c-.719,2.276-1.518,4.233-1.278,5.271s3.634,6.229,5.63,7.267,3.47.519,6.866,1.438,7.15,2.6,11.742,2.475A32.015,32.015,0,0,0,365.7,367.5a79.215,79.215,0,0,1,7.627-2.276C376.08,364.421,377.756,364.1,379.753,361.665Z" transform="translate(-330.195 -330.493)" fill="#dbdbe0" style="mix-blend-mode: multiply;isolation: isolate"/>
            <path id="パス_71085" data-name="パス 71085" d="M502.926,514.185c-1.752,1.752-3.833,2.635-4.552,4.073s.333,1.836,3.122,1.038,3.078-3.434,4.411-4.313,3.069-6.389,1.242-4.632S504.044,513.067,502.926,514.185Z" transform="translate(-483.995 -494.874)" fill="#e5e3e6" style="mix-blend-mode: multiply;isolation: isolate"/>
          </g>
        </g>
        <g id="グループ_4608" data-name="グループ 4608" transform="translate(11.958)">
          <g id="グループ_4605" data-name="グループ 4605" transform="translate(0 0.73)">
            <path id="パス_71086" data-name="パス 71086" d="M482.8,236.068c-.817-.412-1.939-1.546-2.868-1.98a6.121,6.121,0,0,0-2.088-.712,4.169,4.169,0,0,0-2.209,1.038c-1.219.917-3,1.569-3.6,2.377,1.219.543,2.848.814,3.7,1.475a5.321,5.321,0,0,0,2.981,1.331c.857-.084,4.525-1.816,5.527-1.877S484.345,236.937,482.8,236.068Z" transform="translate(-472.036 -233.375)" fill="#ccccd1"/>
            <path id="パス_71087" data-name="パス 71087" d="M483.6,242.27a5.549,5.549,0,0,1-2.679-1.282,7.559,7.559,0,0,0-2.254-.971c-.388-.123-.786-.249-1.154-.391a9.458,9.458,0,0,1,1.583-1.006,14.768,14.768,0,0,0,1.713-1.054,3.955,3.955,0,0,1,2.054-.983h.02a6.556,6.556,0,0,1,1.945.687,9.039,9.039,0,0,1,1.518,1.04,9.149,9.149,0,0,0,1.343.937,6.887,6.887,0,0,1,1.663,1.13c-.028,0-.063.008-.106.01a15.934,15.934,0,0,0-3.14,1.042,16.155,16.155,0,0,1-2.4.836c-.036,0-.072.005-.11.005Z" transform="translate(-477.054 -236.313)" fill="#e5e5eb"/>
            <path id="パス_71088" data-name="パス 71088" d="M551.654,263.73a21.64,21.64,0,0,0-3.439-1.013c-.742-.018-2.336.308-1.937.8s1.656.145,2.656.145S551.3,263.723,551.654,263.73Z" transform="translate(-539.962 -260.243)" fill="#e5e3e6" style="mix-blend-mode: multiply;isolation: isolate"/>
          </g>
          <g id="グループ_4606" data-name="グループ 4606" transform="translate(12.598)">
            <path id="パス_71089" data-name="パス 71089" d="M621.47,229.63c.41-.49,1.213-2.248,1.75-2.9,1.635-1.989,3.133-2.1,5.11-1.973a18.2,18.2,0,0,1,4.7,1.05,29.717,29.717,0,0,0-4.048,3.077c-1.245,1.011-1.991,1.7-3.439,1.456A27.529,27.529,0,0,0,621.47,229.63Z" transform="translate(-621.47 -224.72)" fill="#ccccd1"/>
            <path id="パス_71090" data-name="パス 71090" d="M631.443,233.053a3.084,3.084,0,0,1-.514-.045c-.868-.147-1.434-.28-1.89-.388a10.153,10.153,0,0,0-1.736-.3c.154-.253.328-.571.517-.916a12.475,12.475,0,0,1,.95-1.572,4.507,4.507,0,0,1,3.937-1.911c.269,0,.569.012.947.036a16.1,16.1,0,0,1,4.072.859,23.164,23.164,0,0,0-2.654,2.022c-.293.248-.6.5-.92.767l-.2.16a3.972,3.972,0,0,1-2.513,1.286Z" transform="translate(-626.812 -227.655)" fill="#e5e5eb"/>
            <path id="パス_71091" data-name="パス 71091" d="M633.919,256.939a7.644,7.644,0,0,1,2.9-1.674c.923-.109.941.407.272.837S634.776,256.564,633.919,256.939Z" transform="translate(-632.869 -252.676)" fill="#e5e3e6" style="mix-blend-mode: multiply;isolation: isolate"/>
          </g>
          <g id="グループ_4607" data-name="グループ 4607" transform="translate(10.755 3.12)">
            <path id="パス_71092" data-name="パス 71092" d="M599.694,262.129c.507.41.929,1.122.784,1.52s.362.555.748.579,1.94-.113,2.044-.564a1.889,1.889,0,0,0-.945-1.729C601.66,261.61,599.132,261.673,599.694,262.129Z" transform="translate(-599.613 -261.732)" fill="#e5e5eb"/>
            <path id="パス_71093" data-name="パス 71093" d="M602.62,269.07c-.145.4.362.555.748.579s1.94-.113,2.044-.564a1.365,1.365,0,0,0-.117-.758,2.643,2.643,0,0,1-2.122.141,4.222,4.222,0,0,0-1.221-.818h0C602.4,268.069,602.754,268.7,602.62,269.07Z" transform="translate(-601.755 -267.152)" fill="#e5e3e6" style="mix-blend-mode: multiply;isolation: isolate"/>
          </g>
        </g>
      </g>
      <g id="グループ_4621" data-name="グループ 4621" transform="translate(19.174 31.203)">
        <g id="グループ_4618" data-name="グループ 4618" transform="translate(0)">
          <path id="パス_71094" data-name="パス 71094" d="M695.018,719.74a1.921,1.921,0,0,1-2.325-.6c-.7-1.033-.528,1.163.07,1.656s1.421.693,1.761.341A1.721,1.721,0,0,0,695.018,719.74Z" transform="translate(-656.929 -692.26)" fill="#4f78c9"/>
          <g id="グループ_4610" data-name="グループ 4610">
            <path id="パス_71095" data-name="パス 71095" d="M314.264,410.117c0,3.8-9.14,6.655-20.414,6.655s-20.414-2.859-20.414-6.655c0-3.6,9.14-6.873,20.414-6.873S314.264,406.518,314.264,410.117Z" transform="translate(-273.437 -403.244)" fill="#6e9de0"/>
            <path id="パス_71096" data-name="パス 71096" d="M335.234,424.493c0,2.965-8.188,5.2-18.287,5.2s-18.287-2.234-18.287-5.2c0-2.811,8.188-5.369,18.287-5.369S335.234,421.682,335.234,424.493Z" transform="translate(-296.533 -417.785)" fill="#5480ce"/>
          </g>
          <g id="グループ_4611" data-name="グループ 4611" transform="translate(3.399 7.68)">
            <path id="パス_71097" data-name="パス 71097" d="M347.786,499.708c0,2.965-7.618,5.2-17.015,5.2s-17.015-2.234-17.015-5.2c0-2.811,7.618-5.369,17.015-5.369S347.786,496.9,347.786,499.708Z" transform="translate(-313.757 -494.339)" fill="#9ec7f5"/>
            <path id="パス_71098" data-name="パス 71098" d="M528.544,504.765c-1.867-1.283-7.4-2.657-10.216-2.763s-2.219.317-1.057.916-.018.509-.423.457-1.021.177-.3.564.775.757.035.687-.81.158-.458.422.106.564-.828.6-2.607,2.906.881,2.906S527.456,506.33,528.544,504.765Z" transform="translate(-497.181 -501.342)" fill="#9ec7f5" opacity="0.4" style="mix-blend-mode: multiply;isolation: isolate"/>
          </g>
          <g id="グループ_4617" data-name="グループ 4617" transform="translate(0 6.873)">
            <g id="グループ_4614" data-name="グループ 4614">
              <path id="パス_71099" data-name="パス 71099" d="M313.681,536.43c-5.883,0-16.813-2.82-18.588-4.2.235,2.583,2.067,19.563,2.442,21.348a4.77,4.77,0,0,0,2.677,3.9c2.067,1.315,7.867,2.771,13.469,2.771s11.4-1.456,13.468-2.771a4.77,4.77,0,0,0,2.677-3.9c.376-1.785,2.208-18.764,2.442-21.348C330.494,533.609,319.564,536.43,313.681,536.43Z" transform="translate(-293.267 -528.225)" fill="#6396dd"/>
              <path id="パス_71100" data-name="パス 71100" d="M295.657,537.977c3.353,2.187,10.269,3.622,18.257,3.622s14.9-1.435,18.257-3.622c.142-1.349.251-2.42.31-3.029-2.765,1.978-8.385,3.383-15.131,3.743a25.586,25.586,0,0,1-6.871,0c-6.746-.36-12.366-1.765-15.131-3.743C295.405,535.557,295.514,536.628,295.657,537.977Z" transform="translate(-293.5 -530.718)" fill="#5480ce"/>
              <path id="パス_71101" data-name="パス 71101" d="M656.81,610.386c-.4-.552-1.061-.98-1.613-.582a1.233,1.233,0,0,0-.279,1.721c.281.39.611.838.96,1.313a32.61,32.61,0,0,1,3.864,6.812c.129-1.092.268-2.3.41-3.548a42.683,42.683,0,0,0-2.4-4.421C657.412,611.211,657.085,610.767,656.81,610.386Z" transform="translate(-622.545 -599.121)" fill="#5480ce" opacity="0.5"/>
              <path id="パス_71102" data-name="パス 71102" d="M344.184,532.011a36.388,36.388,0,0,0,5.037,1.1,78.46,78.46,0,0,0,9.552.456c2.157-.141,3.083-.2,3.916-.264-.837.906-.946,2.2-1.007,4.917s.1,9.406.3,11.374.148,1.993-1.73,2.307a32.846,32.846,0,0,1-9.4-.135c-2.808-.488-5.635-1.456-6.29-2.188s-1.106-6.912-1.457-10.424c-.334-3.342-.582-5.411-.039-6.114S343.883,531.914,344.184,532.011Z" transform="translate(-336.902 -528.016)" fill="#5480ce" opacity="0.5"/>
              <g id="グループ_4612" data-name="グループ 4612" transform="translate(29.59 5.95)">
                <path id="パス_71103" data-name="パス 71103" d="M624.466,557.286c-.053,1.532-.114,3.717.352,4.474a2.21,2.21,0,0,0,1.91,1.127h0l1.2.141-.062-.388a3.166,3.166,0,0,0,1.762-2.008,28.858,28.858,0,0,0,.44-5.284A42.289,42.289,0,0,1,624.466,557.286Z" transform="translate(-624.431 -555.349)" fill="#5480ce"/>
                <path id="パス_71104" data-name="パス 71104" d="M625.7,583.55l-1.246-.259c-.019.6-.032,1.264-.013,1.888Z" transform="translate(-624.432 -580.935)" fill="#4f78c9"/>
                <path id="パス_71105" data-name="パス 71105" d="M639.509,558.958c-.053,1.532-.114,3.717.352,4.474,1.311,2.131,4.245.951,4.808-1.127a28.854,28.854,0,0,0,.44-5.284A42.28,42.28,0,0,1,639.509,558.958Z" transform="translate(-638.205 -556.88)" fill="#6396dd"/>
              </g>
              <g id="グループ_4613" data-name="グループ 4613">
                <path id="パス_71106" data-name="パス 71106" d="M293.851,491.425c-11.274,0-20.414-2.859-20.414-6.655v2.818c0,3.8,9.14,6.655,20.414,6.655s20.414-2.859,20.414-6.655V484.77C314.264,488.566,305.125,491.425,293.851,491.425Z" transform="translate(-273.437 -484.77)" fill="#6396dd"/>
                <path id="パス_71107" data-name="パス 71107" d="M293.851,491.425c11.274,0,20.414-2.859,20.414-6.655h-2.136c-.3,2.883-8.366,5.034-18.278,5.034s-17.981-2.151-18.278-5.034h-2.136C273.437,488.566,282.577,491.425,293.851,491.425Z" transform="translate(-273.437 -484.77)" fill="#6e9de0"/>
              </g>
            </g>
            <g id="グループ_4616" data-name="グループ 4616" transform="translate(32.162 8.838)">
              <path id="パス_71108" data-name="パス 71108" d="M662.489,599.982a46.448,46.448,0,0,0-4.372-7.159c-.346-.47-.672-.915-.947-1.3a1.232,1.232,0,0,0-1.251-.485l.01-.051-.362.183a1.269,1.269,0,0,0-.119.075,1.233,1.233,0,0,0-.279,1.721c.281.39.611.838.96,1.313A51.5,51.5,0,0,1,660.6,601l.042.092a2.8,2.8,0,0,1-.117,2.322,1.509,1.509,0,0,1-.72.577l-.06.488a1.67,1.67,0,0,0,.462-.114c1-.505,1.267-2.15,1.433-2.644l.083,0c.171,0,.133-.036.3-.11A1.182,1.182,0,0,0,662.489,599.982Z" transform="translate(-654.937 -590.875)" fill="#5480ce"/>
              <path id="パス_71109" data-name="パス 71109" d="M665.754,598.821s-.038-.116-.064-.174a44.994,44.994,0,0,0-4.231-7.229c-.346-.47-.672-.915-.947-1.3a1.233,1.233,0,1,0-2,1.443c.281.39.611.838.96,1.313a51.553,51.553,0,0,1,4.466,6.719l.067.148a2.9,2.9,0,0,1-.741,3.358C665.2,602.575,666.518,600.88,665.754,598.821Z" transform="translate(-657.998 -589.611)" fill="#6396dd"/>
              <g id="グループ_4615" data-name="グループ 4615" transform="translate(0.505)">
                <path id="パス_71110" data-name="パス 71110" d="M661.093,589.993a1.278,1.278,0,0,1,1.784.289c.285.395.623.855.982,1.343a46.619,46.619,0,0,1,4.386,7.494c.027.059.066.18.066.18.009.024.016.047.024.071a3.639,3.639,0,0,0-.157-.549s-.038-.116-.064-.174a45,45,0,0,0-4.231-7.229c-.346-.47-.672-.915-.947-1.3a1.231,1.231,0,0,0-2.01.015A1.3,1.3,0,0,1,661.093,589.993Z" transform="translate(-660.927 -589.611)" fill="#6e9de0"/>
              </g>
            </g>
          </g>
        </g>
        <g id="グループ_4620" data-name="グループ 4620" transform="translate(4.649 9.612)">
          <path id="パス_71111" data-name="パス 71111" d="M348.6,519.425l.354-.025c-.247-.281-.343-.291-.387-.286-.834.035-1.761.07-3.922.148a78.473,78.473,0,0,1-9.535-.736,36.384,36.384,0,0,1-5-1.245c-.3-.106-.587.305-1.151.992s-.377,2.762-.141,6.112c.248,3.521.517,9.711,1.151,10.462s3.431,1.8,6.223,2.372a32.847,32.847,0,0,0,9.394.411,3.589,3.589,0,0,0,1.926-.622c.3-.314.235-.763.165-1.75-.141-1.973-.182-8.554-.041-11.267a15.214,15.214,0,0,1,.5-3.814c.072-.191.179-.378.258-.542C348.414,519.576,348.463,519.425,348.6,519.425Z" transform="translate(-328.582 -517.266)" fill="#bec6d1"/>
          <path id="パス_71112" data-name="パス 71112" d="M330.1,517.282a36.384,36.384,0,0,0,5,1.245,78.473,78.473,0,0,0,9.535.736c2.16-.078,3.088-.113,3.922-.148-.863.881-1.01,2.172-1.151,4.885s-.176,9.405-.035,11.378.089,2-1.8,2.254a32.847,32.847,0,0,1-9.394-.411c-2.792-.57-5.589-1.62-6.223-2.372s-.9-6.941-1.151-10.462c-.236-3.35-.423-5.425.141-6.112S329.8,517.177,330.1,517.282Z" transform="translate(-328.582 -517.266)" fill="#fff"/>
          <g id="グループ_4619" data-name="グループ 4619" transform="translate(0.963 0.244)">
            <path id="パス_71113" data-name="パス 71113" d="M466.359,650.279a.106.106,0,0,0,.022-.148l-.335-.459a.106.106,0,1,0-.171.124l.336.46A.106.106,0,0,0,466.359,650.279Z" transform="translate(-455.245 -638.712)" fill="#aab3d1"/>
            <path id="パス_71114" data-name="パス 71114" d="M465.757,557.69a.106.106,0,0,0-.151,0l-.417.4a.108.108,0,0,0,0,.152.106.106,0,0,0,.15,0l.415-.4A.108.108,0,0,0,465.757,557.69Z" transform="translate(-454.605 -554.497)" fill="#aab3d1"/>
            <path id="パス_71115" data-name="パス 71115" d="M476.248,663.743a.106.106,0,0,0,.021-.149l-.34-.456a.106.106,0,1,0-.17.126l.34.457A.106.106,0,0,0,476.248,663.743Z" transform="translate(-464.296 -651.045)" fill="#aab3d1"/>
            <path id="パス_71116" data-name="パス 71116" d="M506.616,703.61a.106.106,0,0,0,.017-.149l-.351-.447a.106.106,0,1,0-.167.13l.352.448A.106.106,0,0,0,506.616,703.61Z" transform="translate(-492.092 -687.56)" fill="#aab3d1"/>
            <path id="パス_71117" data-name="パス 71117" d="M453.47,570.124l.4-.416a.106.106,0,0,0,0-.15.108.108,0,0,0-.152,0l-.4.417a.106.106,0,1,0,.153.146Z" transform="translate(-443.737 -565.366)" fill="#aab3d1"/>
            <path id="パス_71118" data-name="パス 71118" d="M458.572,747.251c.187.015.374.026.561.036a.106.106,0,0,0,.012-.211c-.186-.01-.372-.02-.558-.035a.106.106,0,0,0-.015.211Z" transform="translate(-448.487 -727.914)" fill="#aab3d1"/>
            <path id="パス_71119" data-name="パス 71119" d="M456.433,636.708a.106.106,0,1,0,.172-.123l-.331-.462a.106.106,0,1,0-.172.123Z" transform="translate(-446.296 -626.305)" fill="#aab3d1"/>
            <path id="パス_71120" data-name="パス 71120" d="M495.9,689.788a.106.106,0,0,0-.019.149l.348.451a.106.106,0,1,0,.167-.129l-.347-.45A.106.106,0,0,0,495.9,689.788Z" transform="translate(-482.723 -675.468)" fill="#aab3d1"/>
            <path id="パス_71121" data-name="パス 71121" d="M475.016,748.107l.563.012a.106.106,0,0,0,.107-.105.1.1,0,0,0-.1-.106l-.559-.012a.1.1,0,0,0-.108.1A.106.106,0,0,0,475.016,748.107Z" transform="translate(-463.541 -728.696)" fill="#aab3d1"/>
            <path id="パス_71122" data-name="パス 71122" d="M431.321,594.444a.108.108,0,0,0-.01-.151.106.106,0,0,0-.15.013l-.374.44a.106.106,0,0,0,.011.15.108.108,0,0,0,.151-.014Z" transform="translate(-423.11 -588.02)" fill="#aab3d1"/>
            <path id="パス_71123" data-name="パス 71123" d="M437.427,609.461a.106.106,0,1,0,.174-.12l-.321-.469a.106.106,0,1,0-.174.119Z" transform="translate(-428.902 -601.35)" fill="#aab3d1"/>
            <path id="パス_71124" data-name="パス 71124" d="M425.891,743.3l.556.091a.1.1,0,0,0,.12-.088.107.107,0,0,0-.088-.121l-.551-.091a.1.1,0,0,0-.122.085A.106.106,0,0,0,425.891,743.3Z" transform="translate(-418.571 -724.294)" fill="#aab3d1"/>
            <path id="パス_71125" data-name="パス 71125" d="M422.829,604.569l-.362.45a.106.106,0,1,0,.165.131l.36-.449a.106.106,0,1,0-.164-.133Z" transform="translate(-415.494 -597.416)" fill="#aab3d1"/>
            <path id="パス_71126" data-name="パス 71126" d="M486.113,677.093a.106.106,0,1,0,.168-.128l-.343-.453a.106.106,0,1,0-.169.127Z" transform="translate(-473.462 -663.291)" fill="#aab3d1"/>
            <path id="パス_71127" data-name="パス 71127" d="M478.107,546.3a.108.108,0,0,0-.151-.009c-.148.124-.288.256-.432.385a.106.106,0,1,0,.142.157c.142-.128.282-.259.429-.382A.106.106,0,0,0,478.107,546.3Z" transform="translate(-465.897 -544.06)" fill="#aab3d1"/>
            <path id="パス_71128" data-name="パス 71128" d="M489.056,540.26l-.071.065a.106.106,0,1,0,.142.157l.228-.206Z" transform="translate(-476.392 -538.565)" fill="#aab3d1"/>
            <path id="パス_71129" data-name="パス 71129" d="M428.456,596.152a.107.107,0,0,0,.028-.148l-.316-.472a.106.106,0,1,0-.176.117l.317.473A.106.106,0,0,0,428.456,596.152Z" transform="translate(-420.559 -589.134)" fill="#aab3d1"/>
            <path id="パス_71130" data-name="パス 71130" d="M342.62,533.468a.107.107,0,0,0,.131-.067,2.6,2.6,0,0,1,.241-.48.106.106,0,0,0-.182-.108,2.8,2.8,0,0,0-.26.52A.1.1,0,0,0,342.62,533.468Z" transform="translate(-342.332 -531.7)" fill="#aab3d1"/>
            <path id="パス_71131" data-name="パス 71131" d="M536.5,650.358a.106.106,0,0,0,.211,0l0-.56a.106.106,0,0,0-.211,0Z" transform="translate(-519.937 -638.772)" fill="#aab3d1"/>
            <path id="パス_71132" data-name="パス 71132" d="M536.943,683.386a.106.106,0,0,0,.1-.107l-.011-.56a.106.106,0,0,0-.211,0l.01.561A.106.106,0,0,0,536.943,683.386Z" transform="translate(-520.233 -668.919)" fill="#aab3d1"/>
            <path id="パス_71133" data-name="パス 71133" d="M536.626,617.435a.106.106,0,0,0,.211,0l.009-.56a.106.106,0,0,0-.211,0Z" transform="translate(-520.05 -608.626)" fill="#aab3d1"/>
            <path id="パス_71134" data-name="パス 71134" d="M536.718,666.927a.105.105,0,0,0,.1-.107l-.006-.56a.106.106,0,0,0-.211,0l.006.561A.1.1,0,0,0,536.718,666.927Z" transform="translate(-520.031 -653.848)" fill="#aab3d1"/>
            <path id="パス_71135" data-name="パス 71135" d="M536.5,633.9a.106.106,0,0,0,.211,0l0-.56a.106.106,0,0,0-.211,0Z" transform="translate(-519.937 -623.698)" fill="#aab3d1"/>
            <path id="パス_71136" data-name="パス 71136" d="M507.935,747.1c.188-.011.375-.03.562-.047a.106.106,0,0,0-.022-.21c-.185.017-.37.035-.555.046a.106.106,0,0,0,.014.211Z" transform="translate(-493.675 -727.737)" fill="#aab3d1"/>
            <path id="パス_71137" data-name="パス 71137" d="M537.992,584.565c.016-.186.029-.372.047-.557a.106.106,0,0,0-.211-.019c-.019.187-.031.374-.047.56a.106.106,0,0,0,.211.016Z" transform="translate(-521.108 -578.52)" fill="#aab3d1"/>
            <path id="パス_71138" data-name="パス 71138" d="M536.991,600.414l-.02.562a.106.106,0,0,0,.211.007l.02-.559a.106.106,0,0,0-.211-.009Z" transform="translate(-520.367 -593.556)" fill="#aab3d1"/>
            <path id="パス_71139" data-name="パス 71139" d="M442.18,745.691c.187.02.373.045.559.061a.106.106,0,0,0,.021-.21c-.186-.016-.37-.041-.555-.061a.107.107,0,0,0-.117.093A.1.1,0,0,0,442.18,745.691Z" transform="translate(-433.482 -726.485)" fill="#aab3d1"/>
            <path id="パス_71140" data-name="パス 71140" d="M526.977,729.107a.106.106,0,0,0-.014.15l.362.44a.106.106,0,1,0,.163-.135l-.361-.439A.106.106,0,0,0,526.977,729.107Z" transform="translate(-511.18 -711.47)" fill="#aab3d1"/>
            <path id="パス_71141" data-name="パス 71141" d="M516.485,716.107a.106.106,0,0,0-.016.149l.356.444a.106.106,0,1,0,.165-.133l-.356-.443A.106.106,0,0,0,516.485,716.107Z" transform="translate(-501.571 -699.567)" fill="#aab3d1"/>
            <path id="パス_71142" data-name="パス 71142" d="M542.421,552.2c.047-.178.094-.356.154-.53a.108.108,0,0,0-.067-.134.1.1,0,0,0-.133.066c-.062.18-.111.363-.159.547a.107.107,0,0,0,.079.128A.1.1,0,0,0,542.421,552.2Z" transform="translate(-525.167 -548.889)" fill="#aab3d1"/>
            <path id="パス_71143" data-name="パス 71143" d="M538.045,732.723a.1.1,0,0,0,.139-.068,2.186,2.186,0,0,0,.059-.588.106.106,0,0,0-.109-.1.1.1,0,0,0-.1.106,2,2,0,0,1-.05.524A.11.11,0,0,0,538.045,732.723Z" transform="translate(-521.287 -714.107)" fill="#aab3d1"/>
            <path id="パス_71144" data-name="パス 71144" d="M537.883,716.3a.105.105,0,0,0,.1-.112l-.031-.557a.106.106,0,0,0-.211.01c.009.187.018.374.031.562A.1.1,0,0,0,537.883,716.3Z" transform="translate(-521.07 -699.056)" fill="#aab3d1"/>
            <path id="パス_71145" data-name="パス 71145" d="M537.3,699.845a.106.106,0,0,0,.1-.108l-.016-.56a.106.106,0,0,0-.211.006l.016.561A.105.105,0,0,0,537.3,699.845Z" transform="translate(-520.556 -683.991)" fill="#aab3d1"/>
            <path id="パス_71146" data-name="パス 71146" d="M539.583,568.222c.024-.184.048-.368.078-.551a.107.107,0,0,0-.088-.121.1.1,0,0,0-.121.087c-.031.186-.056.372-.079.559a.1.1,0,0,0,.092.117A.107.107,0,0,0,539.583,568.222Z" transform="translate(-522.566 -563.554)" fill="#aab3d1"/>
            <path id="パス_71147" data-name="パス 71147" d="M392.485,645.835a.107.107,0,0,0,.148-.031l.325-.475a.106.106,0,1,0-.174-.12l-.326.477A.107.107,0,0,0,392.485,645.835Z" transform="translate(-388.019 -634.624)" fill="#aab3d1"/>
            <path id="パス_71148" data-name="パス 71148" d="M343.483,631.279a.106.106,0,0,0,.1-.112l-.036-.56a.106.106,0,0,0-.211.013l.036.56A.105.105,0,0,0,343.483,631.279Z" transform="translate(-343.054 -621.206)" fill="#aab3d1"/>
            <path id="パス_71149" data-name="パス 71149" d="M340.578,581.877l-.025-.559a.106.106,0,0,0-.211.008l.025.561a.106.106,0,0,0,.211-.01Z" transform="translate(-340.314 -576.07)" fill="#aab3d1"/>
            <path id="パス_71150" data-name="パス 71150" d="M342.434,614.852a.105.105,0,0,0,.1-.112l-.036-.56a.106.106,0,0,0-.211.014l.036.559A.106.106,0,0,0,342.434,614.852Z" transform="translate(-342.094 -606.164)" fill="#aab3d1"/>
            <path id="パス_71151" data-name="パス 71151" d="M340.242,548.976a.1.1,0,0,0,.1.11.106.106,0,0,0,.111-.1c.008-.186.022-.37.04-.554a.106.106,0,0,0-.21-.022C340.264,548.6,340.25,548.788,340.242,548.976Z" transform="translate(-340.222 -545.943)" fill="#aab3d1"/>
            <path id="パス_71152" data-name="パス 71152" d="M350.887,520.572a.1.1,0,0,0,.026.147.106.106,0,0,0,.147-.025c.106-.151.219-.3.337-.437a.1.1,0,0,0,.02-.036l-.211-.063C351.093,520.293,350.986,520.43,350.887,520.572Z" transform="translate(-349.952 -520.158)" fill="#aab3d1"/>
            <path id="パス_71153" data-name="パス 71153" d="M341.339,598.424a.105.105,0,0,0,.1-.112l-.036-.559a.106.106,0,0,0-.211.013l.037.56A.105.105,0,0,0,341.339,598.424Z" transform="translate(-341.09 -591.121)" fill="#aab3d1"/>
            <path id="パス_71154" data-name="パス 71154" d="M352.16,712.948a.1.1,0,0,0,.151-.007.111.111,0,0,0-.006-.146.823.823,0,0,1-.24-.436.108.108,0,0,0-.131-.07.1.1,0,0,0-.072.132A1.043,1.043,0,0,0,352.16,712.948Z" transform="translate(-350.859 -696.088)" fill="#aab3d1"/>
            <path id="パス_71155" data-name="パス 71155" d="M340.122,565.529a.105.105,0,0,0,.1-.107l0-.559a.106.106,0,0,0-.211,0l0,.563A.106.106,0,0,0,340.122,565.529Z" transform="translate(-340.01 -560.998)" fill="#aab3d1"/>
            <path id="パス_71156" data-name="パス 71156" d="M344.55,647.708a.105.105,0,0,0,.1-.112l-.038-.559a.106.106,0,0,0-.211.014l.038.56A.105.105,0,0,0,344.55,647.708Z" transform="translate(-344.028 -636.25)" fill="#aab3d1"/>
            <path id="パス_71157" data-name="パス 71157" d="M524.936,744.422a.105.105,0,0,0-.127-.071c-.176.041-.356.075-.54.1a.106.106,0,0,0-.088.12.1.1,0,0,0,.12.089c.186-.026.373-.06.562-.105A.106.106,0,0,0,524.936,744.422Z" transform="translate(-508.653 -725.447)" fill="#aab3d1"/>
            <path id="パス_71158" data-name="パス 71158" d="M347.226,680.414l-.056-.557a.106.106,0,0,0-.21.02l.056.559a.106.106,0,0,0,.21-.022Z" transform="translate(-346.374 -666.307)" fill="#aab3d1"/>
            <path id="パス_71159" data-name="パス 71159" d="M548.151,540.083a3.276,3.276,0,0,1,.253-.4l-.266.01c-.062.093-.12.188-.172.286a.1.1,0,0,0,.042.143A.108.108,0,0,0,548.151,540.083Z" transform="translate(-530.422 -538.039)" fill="#aab3d1"/>
            <path id="パス_71160" data-name="パス 71160" d="M492.146,747.987a.106.106,0,0,0-.109-.1c-.186.005-.372.012-.558.013a.106.106,0,0,0,0,.211c.188,0,.375-.007.563-.013A.1.1,0,0,0,492.146,747.987Z" transform="translate(-478.614 -728.686)" fill="#aab3d1"/>
            <path id="パス_71161" data-name="パス 71161" d="M418.976,581.5a.106.106,0,0,0,.03-.147l-.308-.478a.106.106,0,1,0-.178.114l.308.479A.107.107,0,0,0,418.976,581.5Z" transform="translate(-411.886 -575.714)" fill="#aab3d1"/>
            <path id="パス_71162" data-name="パス 71162" d="M345.728,664.129a.105.105,0,0,0,.1-.114l-.044-.558a.106.106,0,0,0-.211.016l.044.56A.106.106,0,0,0,345.728,664.129Z" transform="translate(-345.101 -651.288)" fill="#aab3d1"/>
            <path id="パス_71163" data-name="パス 71163" d="M412.6,617.825a.106.106,0,0,0-.149.021l-.351.459a.106.106,0,1,0,.169.127l.349-.457A.107.107,0,0,0,412.6,617.825Z" transform="translate(-406.002 -609.572)" fill="#aab3d1"/>
            <path id="パス_71164" data-name="パス 71164" d="M387.128,528.648a.106.106,0,0,0,.142.047.107.107,0,0,0,.046-.143l-.025-.05-.266-.058Z" transform="translate(-383.061 -527.744)" fill="#aab3d1"/>
            <path id="パス_71165" data-name="パス 71165" d="M401.054,552.386a.106.106,0,0,0-.037.146l.289.491a.107.107,0,0,0,.146.037.106.106,0,0,0,.035-.146l-.288-.49A.107.107,0,0,0,401.054,552.386Z" transform="translate(-395.86 -549.656)" fill="#aab3d1"/>
            <path id="パス_71166" data-name="パス 71166" d="M393.886,735.581c.18.053.36.108.541.157a.106.106,0,0,0,.057-.2c-.18-.048-.358-.1-.536-.155a.107.107,0,0,0-.131.071A.1.1,0,0,0,393.886,735.581Z" transform="translate(-389.276 -717.231)" fill="#aab3d1"/>
            <path id="パス_71167" data-name="パス 71167" d="M402.28,631.99l.336-.467a.106.106,0,0,0-.021-.149.108.108,0,0,0-.15.025l-.337.469a.106.106,0,1,0,.172.123Z" transform="translate(-396.854 -621.979)" fill="#aab3d1"/>
            <path id="パス_71168" data-name="パス 71168" d="M393.211,538.528a.106.106,0,0,0,.04-.145c-.093-.165-.187-.329-.275-.5a.106.106,0,1,0-.186.1c.089.168.183.333.277.5A.106.106,0,0,0,393.211,538.528Z" transform="translate(-388.328 -536.341)" fill="#aab3d1"/>
            <path id="パス_71169" data-name="パス 71169" d="M409.7,739.776a.1.1,0,0,0,.077.127c.183.042.365.088.549.126a.106.106,0,0,0,.045-.206c-.182-.037-.363-.083-.544-.125A.106.106,0,0,0,409.7,739.776Z" transform="translate(-403.82 -721.187)" fill="#aab3d1"/>
            <path id="パス_71170" data-name="パス 71170" d="M447.071,623.233a.106.106,0,0,0,.025-.148l-.327-.465a.106.106,0,1,0-.173.121l.327.466A.106.106,0,0,0,447.071,623.233Z" transform="translate(-437.592 -613.939)" fill="#aab3d1"/>
            <path id="パス_71171" data-name="パス 71171" d="M410.061,567.373a.107.107,0,0,0,.033-.147l-.3-.482a.106.106,0,0,0-.145-.036.107.107,0,0,0-.035.147l.3.483A.106.106,0,0,0,410.061,567.373Z" transform="translate(-403.731 -562.77)" fill="#aab3d1"/>
            <path id="パス_71172" data-name="パス 71172" d="M383.619,659.225a.106.106,0,0,0-.147.033l-.314.485a.108.108,0,0,0,.032.148.106.106,0,0,0,.147-.035l.313-.483A.108.108,0,0,0,383.619,659.225Z" transform="translate(-379.504 -647.486)" fill="#aab3d1"/>
            <path id="パス_71173" data-name="パス 71173" d="M358.235,702.88a.108.108,0,0,0-.145.046l-.266.514a.106.106,0,0,0,.045.144.108.108,0,0,0,.144-.048l.264-.511A.106.106,0,0,0,358.235,702.88Z" transform="translate(-356.312 -687.465)" fill="#aab3d1"/>
            <path id="パス_71174" data-name="パス 71174" d="M363.237,723.635c.168.088.338.172.51.249a.1.1,0,0,0,.139-.053.107.107,0,0,0-.052-.14q-.253-.114-.5-.243a.106.106,0,0,0-.1.187Z" transform="translate(-361.228 -706.299)" fill="#aab3d1"/>
            <path id="パス_71175" data-name="パス 71175" d="M366.22,688.065a.108.108,0,0,0-.146.041l-.284.5a.106.106,0,0,0,.039.146.108.108,0,0,0,.145-.043l.282-.5A.106.106,0,0,0,366.22,688.065Z" transform="translate(-363.603 -673.897)" fill="#aab3d1"/>
            <path id="パス_71176" data-name="パス 71176" d="M442.008,582.445c.126-.145.257-.285.386-.426a.106.106,0,1,0-.156-.143c-.13.142-.262.283-.388.428a.108.108,0,0,0,.007.152A.107.107,0,0,0,442.008,582.445Z" transform="translate(-433.239 -576.64)" fill="#aab3d1"/>
            <path id="パス_71177" data-name="パス 71177" d="M348.871,696.8a.1.1,0,0,0,.122.086.106.106,0,0,0,.087-.121c-.031-.183-.058-.367-.082-.551a.106.106,0,0,0-.119-.09.1.1,0,0,0-.091.118C348.813,696.428,348.839,696.614,348.871,696.8Z" transform="translate(-348.046 -681.289)" fill="#aab3d1"/>
            <path id="パス_71178" data-name="パス 71178" d="M378.293,730.3c.177.064.352.132.531.191a.106.106,0,0,0,.069-.2c-.177-.058-.35-.126-.525-.189a.1.1,0,0,0-.135.06A.106.106,0,0,0,378.293,730.3Z" transform="translate(-375.004 -712.396)" fill="#aab3d1"/>
            <path id="パス_71179" data-name="パス 71179" d="M374.7,673.515a.106.106,0,0,0-.147.037l-.3.494a.106.106,0,0,0,.035.147.108.108,0,0,0,.147-.038l.3-.492A.107.107,0,0,0,374.7,673.515Z" transform="translate(-371.356 -660.572)" fill="#aab3d1"/>
          </g>
        </g>
      </g>
      <g id="グループ_4628" data-name="グループ 4628" transform="translate(0 0)">
        <g id="グループ_4622" data-name="グループ 4622" transform="translate(18.046 0)">
          <path id="パス_71180" data-name="パス 71180" d="M279.1,33.228l-.125-.046a1.079,1.079,0,0,0-1.385.641l-.228.621-.268.729L260.06,81.56l2.151.79,17.031-46.386.268-.73.228-.621A1.079,1.079,0,0,0,279.1,33.228Zm-1.4,1.343.219-.6a.717.717,0,0,1,.919-.426l.12.044a.717.717,0,0,1,.426.919l-.219.6Z" transform="translate(-260.06 -33.115)" fill="#b8bdc4"/>
          <path id="パス_71181" data-name="パス 71181" d="M296.216,37.2l-.153.418a.714.714,0,0,1,.07.633l-.219.6-.267-.1-17.3,47.116.609.224,17.031-46.386.268-.73.228-.621A1.079,1.079,0,0,0,296.216,37.2Z" transform="translate(-276.806 -36.859)" fill="#b8bdc4" opacity="0.3" style="mix-blend-mode: multiply;isolation: isolate"/>
        </g>
        <g id="グループ_4624" data-name="グループ 4624" transform="translate(6.942 46.94)">
          <rect id="長方形_28689" data-name="長方形 28689" width="4.664" height="2.757" transform="matrix(0.345, -0.939, 0.939, 0.345, 9.801, 4.378)" fill="#4dab54"/>
          <path id="パス_71182" data-name="パス 71182" d="M140.246,614.1c-2.729-1-8.413-1.844-11.9,4.715l8.96,3.29,8.96,3.29C147.853,618.134,142.975,615.1,140.246,614.1Z" transform="translate(-128.347 -611.432)" fill="#4dab54"/>
          <path id="パス_71183" data-name="パス 71183" d="M162.953,660.945a9.386,9.386,0,0,0-.781,1.048l13.116,4.816a9.305,9.305,0,0,0,.082-1.3Z" transform="translate(-159.32 -654.956)" fill="#4dab54" opacity="0.3" style="mix-blend-mode: multiply;isolation: isolate"/>
          <g id="グループ_4623" data-name="グループ 4623" transform="translate(4.684 3.599)" opacity="0.3" style="mix-blend-mode: multiply;isolation: isolate">
            <path id="パス_71184" data-name="パス 71184" d="M270.017,650.508,274,651.972a6.1,6.1,0,0,0-1.074-2.442,7,7,0,0,0-1.913-1.744Z" transform="translate(-262.757 -646.506)" fill="#4dab54"/>
            <path id="パス_71185" data-name="パス 71185" d="M188.891,632.679a6.991,6.991,0,0,0-2.587.092,6.107,6.107,0,0,0-2.4,1.166l3.986,1.464Z" transform="translate(-183.905 -632.601)" fill="#4dab54"/>
          </g>
        </g>
        <g id="グループ_4627" data-name="グループ 4627" transform="translate(0 54.318)">
          <path id="パス_71186" data-name="パス 71186" d="M70.862,684.017l-8.96-3.29-8.96-3.29c-1.7,3.306-4.38,8.434-6.942,12.547,2.786,2.1,8.252,4.354,10.589,5.212s7.963,2.678,11.446,2.879C68.743,693.282,70.019,687.638,70.862,684.017Z" transform="translate(-46 -677.438)" fill="#7c523d"/>
          <g id="グループ_4625" data-name="グループ 4625" transform="translate(1.998 6.42)" opacity="0.4" style="mix-blend-mode: multiply;isolation: isolate">
            <path id="パス_71187" data-name="パス 71187" d="M108.79,797.923c-.333.693-1.213,2.17-1.66,2.91.809.381,1.614.74,2.37,1.061.576-1.93,1.511-5,2.015-6.6-.409.82-2.184,3.8-3.259,5.451A12.473,12.473,0,0,1,108.79,797.923Z" transform="translate(-103.975 -791.779)" fill="#7c523d"/>
            <path id="パス_71188" data-name="パス 71188" d="M156.733,842c.366-1.434.955-3.258,1.133-3.924-.268.542-1.073,2.389-1.654,3.72Z" transform="translate(-148.919 -830.95)" fill="#7c523d"/>
            <path id="パス_71189" data-name="パス 71189" d="M70.683,771.683c.232-1.582,1.775-5.46,2.261-7.036-.921,1.906-2.285,4.79-3.244,6.491C70.017,771.321,70.346,771.5,70.683,771.683Z" transform="translate(-69.7 -763.714)" fill="#7c523d"/>
            <path id="パス_71190" data-name="パス 71190" d="M211.243,802.274c.438-2.729,1.751-8.208,2.262-10.249-.843,1.882-2.4,6.365-3.854,9.28a27.124,27.124,0,0,1,.417-4.4c-.116.316-.949,2.095-1.715,3.79.072-.781,1.313-5.338,1.872-7.253-.639,1.386-2.115,5.411-3.079,7.689C208.406,801.527,209.835,801.937,211.243,802.274Z" transform="translate(-195.56 -788.784)" fill="#7c523d"/>
            <path id="パス_71191" data-name="パス 71191" d="M287.113,753.747l-.435-.16c-.458,2.239-1.175,5.212-1.655,7.207-.01-.56.431-3.327.552-4.684-.4,1.882-.982,3.9-2.1,8.911a28.446,28.446,0,0,1,.062-4.181c-.322,1.33-.914,4.8-1.372,6.7a18.976,18.976,0,0,0,2.126.263C284.995,763.011,286.27,757.368,287.113,753.747Z" transform="translate(-264.25 -753.587)" fill="#7c523d"/>
            <path id="パス_71192" data-name="パス 71192" d="M265.17,879.6c.018-1.164.238-2.62.338-3.5-.295.85-.759,2.255-1.171,3.328Q264.757,879.515,265.17,879.6Z" transform="translate(-247.928 -865.766)" fill="#7c523d"/>
            <path id="パス_71193" data-name="パス 71193" d="M178.837,823.955c.564-1.993,1.349-4.633,1.922-6.39-.381.893-1.621,3.967-2.633,6.144C178.346,823.786,178.584,823.868,178.837,823.955Z" transform="translate(-168.985 -812.171)" fill="#7c523d"/>
          </g>
          <g id="グループ_4626" data-name="グループ 4626" transform="translate(5.189)" opacity="0.1" style="mix-blend-mode: multiply;isolation: isolate">
            <path id="パス_71194" data-name="パス 71194" d="M236.5,718.8c-.061.364-.237,1.233-.257,1.459.123-.268.526-.956.823-1.458l-.834-.306c-.088.386-.289.972-.361,1.286A10.688,10.688,0,0,1,236.5,718.8Z" transform="translate(-225.054 -715.031)" fill="#7c523d"/>
            <path id="パス_71195" data-name="パス 71195" d="M280.03,735.293a5.7,5.7,0,0,1-.095.576c.117-.24.242-.508.337-.694l-.462-.17c-.171.593-.443,1.432-.491,1.661C279.6,736.15,279.977,735.364,280.03,735.293Z" transform="translate(-264.838 -730.153)" fill="#7c523d"/>
            <path id="パス_71196" data-name="パス 71196" d="M303.877,742.617l-.226-.083c-.038.269-.148.632-.183.831C303.6,743.093,303.75,742.824,303.877,742.617Z" transform="translate(-286.951 -737.046)" fill="#7c523d"/>
            <path id="パス_71197" data-name="パス 71197" d="M184.41,699.165c-.057.4-.254,1.212-.284,1.345a9.337,9.337,0,0,1,.746-1.265,5.906,5.906,0,0,1-.046.858c.074-.167.3-.586.456-.868L184.1,698.8a9.489,9.489,0,0,1-.223,1.283C184,699.84,184.342,699.272,184.41,699.165Z" transform="translate(-177.441 -696.999)" fill="#7c523d"/>
            <path id="パス_71198" data-name="パス 71198" d="M268.176,730.232l-.132-.048c-.145.471-.328,1.069-.365,1.169C267.916,730.879,268.066,730.506,268.176,730.232Z" transform="translate(-254.18 -725.737)" fill="#7c523d"/>
            <path id="パス_71199" data-name="パス 71199" d="M158.794,689.2l-.32-.117a8.1,8.1,0,0,1-.146.857A4.751,4.751,0,0,1,158.794,689.2Z" transform="translate(-154.048 -688.099)" fill="#7c523d"/>
            <path id="パス_71200" data-name="パス 71200" d="M215.993,710.575c-.06.291-.187.663-.24.873a3.575,3.575,0,0,1,.5-.776Z" transform="translate(-206.631 -707.781)" fill="#7c523d"/>
            <path id="パス_71201" data-name="パス 71201" d="M317.292,748.857a11.806,11.806,0,0,1,.579-1.162l-.424-.156c-.063.257-.135.543-.169.648.132-.239.231-.409.242-.441C317.433,748.181,317.334,748.693,317.292,748.857Z" transform="translate(-299.597 -741.63)" fill="#7c523d"/>
            <path id="パス_71202" data-name="パス 71202" d="M110.165,678.1a6.7,6.7,0,0,1-.177.905,9.251,9.251,0,0,1,.818-1.018l-1.5-.552c-.507.986-1.1,2.134-1.753,3.369h0a31.759,31.759,0,0,1,2.088-2.9c-.055.411-.34,1.349-.4,1.685A15.215,15.215,0,0,1,110.165,678.1Z" transform="translate(-107.549 -677.438)" fill="#7c523d"/>
          </g>
          <path id="パス_71203" data-name="パス 71203" d="M131.057,719.808l-.279-.339-1,1.548-.59.494.483-2.341-.548.381-.82,1.114-.065-.9-.288-.308-.908,1.367-.04-.978-.3-.288-.2-.563L125.739,720l.312-1.962-1.041,1.766.108-1.408-.514.316.053-1.271-1.075,1.9.352-2.128-.494.265-.713.9-.089-.9-.67.805.038-.952-.458.9-.311.729-.472,2.6.576-.557.256.391.228.468.85-1.3.057.953.785-1.1.3.264-.245,1.781h.394l.764-1.019.184.582.755-.988-.214,1.67.921-1.433-.05,1.213.483-.234.438-.113.485-.236-.21,1.623.937-1.44-.071,1.242.2.515.062.866,1.284-2.278-.332,1.852.97-2.248Z" transform="translate(-114.462 -713.862)" fill="#7c523d" opacity="0.2" style="mix-blend-mode: screen;isolation: isolate"/>
        </g>
      </g>
      <g id="グループ_4630" data-name="グループ 4630" transform="translate(65.545 44.582)">
        <path id="パス_71204" data-name="パス 71204" d="M879.79,563.81l4.466,7.156a1.452,1.452,0,0,0,1.26.623,1.761,1.761,0,0,0,.734-.167,1.194,1.194,0,0,0,.647-1.7l-4.466-7.156a1.585,1.585,0,0,0-1.993-.457A1.2,1.2,0,0,0,879.79,563.81Zm.683-.469a.884.884,0,0,1,.463-.475,1.116,1.116,0,0,1,.46-.1.915.915,0,0,1,.792.391l.317.508c.09.144.038.2-.12.277s-1.1.463-1.254.522-.245.046-.314-.066l-.287-.46A.655.655,0,0,1,880.473,563.341Z" transform="translate(-874.896 -561.943)" fill="#4dab54"/>
        <path id="パス_71205" data-name="パス 71205" d="M855.008,620.186s-5.6-7.978-10.617-14.356a3.231,3.231,0,0,0-4.042-1.2c-1.642.632-12.819,5.178-14.272,5.746s-3.031,1.579-2.463,3.158,6.694,15.408,7.894,17.808Z" transform="translate(-823.496 -600.775)" fill="#4dab54"/>
        <path id="パス_71206" data-name="パス 71206" d="M942.039,792.2l.742.852-23.752,11.267-.489-.963Z" transform="translate(-910.527 -772.785)" fill="#53575e"/>
        <path id="パス_71207" data-name="パス 71207" d="M848.037,668.388c-1.461-3.782-3.4-8.826-3.615-9.5-.347-1.089.611-1.649,1.262-1.921h0c5.111-2.132,11.816-4.93,12.813-5.352,1.642-.695,3.014-1.291,4.657.284,1.927,1.846,10.949,10.914,10.949,10.914l-23.5,11.156C850.19,673.145,849.191,670.961,848.037,668.388Z" transform="translate(-842.591 -643.404)" fill="#63b366"/>
        <path id="パス_71208" data-name="パス 71208" d="M889.045,690.649h0c3.824-1.6,8.84-3.688,9.586-4,1.229-.52,2.255-.965,3.485.213.47.45,1.521,1.514,2.686,2.842l-14.922,6.736c-.829-2.157-1.663-3.99-1.778-4.348C887.84,691.271,888.557,690.852,889.045,690.649Z" transform="translate(-882.603 -675.643)" fill="#4dab54"/>
        <g id="グループ_4629" data-name="グループ 4629" transform="translate(7.696 14.945)">
          <path id="パス_71209" data-name="パス 71209" d="M1100.824,744.129a.948.948,0,0,0,.7-1.581l-2.707-3.011a.947.947,0,0,0-1.409,1.267l2.707,3.011a.944.944,0,0,0,.7.314Z" transform="translate(-1081.795 -739.223)" fill="#4dab54"/>
          <path id="パス_71210" data-name="パス 71210" d="M1055.028,765.023a.947.947,0,0,0,.748-1.527l-2.5-3.234a.947.947,0,1,0-1.5,1.16l2.5,3.234a.945.945,0,0,0,.75.367Z" transform="translate(-1040.044 -758.153)" fill="#4dab54"/>
          <path id="パス_71211" data-name="パス 71211" d="M1009.232,785.917a.948.948,0,0,0,.788-1.473l-2.3-3.456a.947.947,0,1,0-1.577,1.05l2.3,3.456a.946.946,0,0,0,.789.422Z" transform="translate(-998.294 -777.081)" fill="#4dab54"/>
          <path id="パス_71212" data-name="パス 71212" d="M963.434,806.813a.947.947,0,0,0,.822-1.417l-2.1-3.679a.947.947,0,0,0-1.645.939l2.1,3.679a.947.947,0,0,0,.824.478Z" transform="translate(-956.542 -796.011)" fill="#4dab54"/>
          <path id="パス_71213" data-name="パス 71213" d="M917.637,827.7a.947.947,0,0,0,.851-1.362l-1.9-3.9a.947.947,0,0,0-1.7.829l1.9,3.9a.948.948,0,0,0,.853.533Z" transform="translate(-914.791 -814.936)" fill="#4dab54"/>
        </g>
      </g>
      <g id="グループ_4631" data-name="グループ 4631" transform="translate(37.049 64.39)">
        <path id="パス_71214" data-name="パス 71214" d="M504.14,800.514l-6.659-3.6-12.01,4.548,6.659,3.6,12.009-4.548Z" transform="translate(-485.472 -796.911)" fill="#f76b96"/>
        <path id="パス_71215" data-name="パス 71215" d="M485.472,860.409v4.446l6.659,3.6v-4.446Z" transform="translate(-485.472 -855.056)" fill="#ffd14a"/>
        <path id="パス_71216" data-name="パス 71216" d="M564.461,853.743v4.446l12.01-4.548v-4.446Z" transform="translate(-557.802 -844.786)" fill="#ffbd38"/>
        <path id="パス_71217" data-name="パス 71217" d="M485.472,850.863v.8l6.659,3.6v-.8Z" transform="translate(-485.472 -846.315)" fill="#f05e8c"/>
        <path id="パス_71218" data-name="パス 71218" d="M564.461,844.2v.8l12.01-4.549v-.8Z" transform="translate(-557.802 -836.045)" fill="#e65a80"/>
      </g>
      <g id="グループ_4636" data-name="グループ 4636" transform="translate(56.485 49.622)">
        <g id="グループ_4633" data-name="グループ 4633" transform="translate(2.545 7.038)">
          <path id="パス_71219" data-name="パス 71219" d="M751.62,705.707a10.723,10.723,0,0,1-1.135,3.628,10.43,10.43,0,0,1-1.862,2.81,6.587,6.587,0,0,0-1.8,2.463,22.6,22.6,0,0,0-.594,6.178c.093,2.011.421,2.858,1.883,3.127a32.848,32.848,0,0,0,7.139.1c2.175-.289,2.689-.62,2.81-2.5a29.4,29.4,0,0,0-.732-7.909,77.343,77.343,0,0,0-2.6-7.89C753.92,704.841,752.457,705.3,751.62,705.707Z" transform="translate(-746.208 -705.216)" fill="#70b3d6"/>
          <path id="パス_71220" data-name="パス 71220" d="M780.588,820.918c0,1.3-1.708,2.357-3.816,2.357s-3.816-1.055-3.816-2.357,1.708-2.357,3.816-2.357S780.588,819.616,780.588,820.918Z" transform="translate(-770.701 -809.005)" fill="#a3cceb"/>
          <path id="パス_71221" data-name="パス 71221" d="M782.205,770.741a29.408,29.408,0,0,0-.731-7.91c-.208-.81-.65-2.3-1.15-3.849-.3,5.069-2.864,12.74-7.746,14.215a34.2,34.2,0,0,0,6.817.045C781.57,772.954,782.085,772.623,782.205,770.741Z" transform="translate(-770.356 -754.45)" fill="#70b3d6" opacity="0.3" style="mix-blend-mode: multiply;isolation: isolate"/>
          <g id="グループ_4632" data-name="グループ 4632" transform="translate(1.072 7.272)" opacity="0.3" style="mix-blend-mode: screen;isolation: isolate">
            <path id="パス_71222" data-name="パス 71222" d="M771.355,792.108c.323.606-.079,1.166-.752,1.524s-1.362.378-1.685-.228a1.388,1.388,0,0,1,2.437-1.3Z" transform="translate(-767.954 -791.481)" fill="#70b3d6"/>
            <path id="パス_71223" data-name="パス 71223" d="M760.185,821.671a.634.634,0,1,1-.6-.666A.633.633,0,0,1,760.185,821.671Z" transform="translate(-758.918 -818.514)" fill="#70b3d6"/>
          </g>
        </g>
        <g id="グループ_4635" data-name="グループ 4635">
          <g id="グループ_4634" data-name="グループ 4634">
            <path id="パス_71224" data-name="パス 71224" d="M718.852,645.69a5.148,5.148,0,0,1-.664,3.58c-.933,1.828-1.728,2.684-1.357,2.771.491.116,3.493-2.764,4.532-5.524A1.9,1.9,0,0,0,718.852,645.69Z" transform="translate(-716.677 -643.491)" fill="#f1f1f2"/>
            <path id="パス_71225" data-name="パス 71225" d="M743.493,627.424c.4-.26,2.612-1.1,2.757-1.631s-1.833-2.974-2.887-3.652-7.909-.318-9.425-.274v2.382a9.9,9.9,0,0,1,6.447,3.175C741.284,627.843,743.146,627.958,743.493,627.424Z" transform="translate(-732.427 -621.733)" fill="#f1f1f2"/>
            <rect id="長方形_28690" data-name="長方形 28690" width="1.511" height="2.382" transform="translate(0 0.134)" fill="#db374b"/>
            <rect id="長方形_28691" data-name="長方形 28691" width="3.108" height="1.838" transform="translate(7.957 5.691)" fill="#db374b"/>
          </g>
          <path id="パス_71226" data-name="パス 71226" d="M816.274,632.058c.134-.5-1.566-2.64-2.652-3.484.445,2.365.4,6.274-3.213,6.895v.057h3.108v-1.838C813.921,633.429,816.129,632.592,816.274,632.058Z" transform="translate(-802.451 -627.997)" fill="#b3cfe7" opacity="0.3" style="mix-blend-mode: multiply;isolation: isolate"/>
        </g>
      </g>
    </g>
  </g>
</svg>
