<svg xmlns="http://www.w3.org/2000/svg" width="140" height="140" viewBox="0 0 140 140">
  <g id="recommend_obj31" transform="translate(-53 -0.477)">
    <circle id="楕円形_353" data-name="楕円形 353" cx="70" cy="70" r="70" transform="translate(53 0.477)" fill="#f7f3e5"/>
    <g id="グループ_15520" data-name="グループ 15520" transform="translate(-62.852 -3924.824)">
      <g id="グループ_695" data-name="グループ 695" transform="translate(157.064 3969.547)">
        <g id="グループ_284" data-name="グループ 284" transform="translate(0 0)">
          <path id="パス_356" data-name="パス 356" d="M3542.085,4464.907c0,.566-17.037,1.026-38.053,1.026s-38.053-.46-38.053-1.026,17.038-1.025,38.053-1.025S3542.085,4464.342,3542.085,4464.907Z" transform="translate(-3465.554 -4397.051)" fill="#b4b4b5"/>
          <g id="グループ_248" data-name="グループ 248" transform="translate(52.558 62.672)">
            <path id="パス_357" data-name="パス 357" d="M3631.189,4463.636s-3.537.162-4.4.161-2.718.021-3-.257a1.484,1.484,0,0,1-.174-.214,1.546,1.546,0,0,0,.421.8c.279.278,1.884.254,2.749.257s4.4-.162,4.4-.162,1.95-.212,2.051-.788a3.213,3.213,0,0,0,.042-.521C3632.948,4463.4,3631.189,4463.636,3631.189,4463.636Z" transform="translate(-3623.581 -4459.073)" fill="#dbdcdc"/>
            <path id="パス_358" data-name="パス 358" d="M3628.192,4451.9a4.088,4.088,0,0,1-2.046,1.187c-1.656.561-2.01.7-2.451,1.484a1.307,1.307,0,0,0-.151.995,1.546,1.546,0,0,0,.173.215c.279.279,2.131.255,3,.256s4.4-.161,4.4-.161,1.759-.231,2.093-.725a16.944,16.944,0,0,0-.62-3.836C3631.7,4452.021,3629.521,4452.182,3628.192,4451.9Z" transform="translate(-3623.509 -4451.318)" fill="#f5f6f7"/>
          </g>
          <g id="グループ_249" data-name="グループ 249" transform="translate(55.894 64.814)">
            <path id="パス_359" data-name="パス 359" d="M3634.1,4460.211l-.509.331a2.511,2.511,0,0,1,.605,1.434c.183,0,.387-.011.6-.019A2.8,2.8,0,0,0,3634.1,4460.211Z" transform="translate(-3633.588 -4459.411)" fill="#00254d"/>
            <path id="パス_360" data-name="パス 360" d="M3636.435,4458.371a5.1,5.1,0,0,1,.845,1.943c.416-.014.835-.032,1.212-.048a5.418,5.418,0,0,0-.974-2.476Z" transform="translate(-3635.493 -4457.791)" fill="#00254d"/>
          </g>
          <g id="グループ_250" data-name="グループ 250" transform="translate(69.305 58.104)">
            <path id="パス_361" data-name="パス 361" d="M3680.633,4440.225c-.091-.091-.177-.171-.263-.248a4.155,4.155,0,0,1,.03,2.289,36.854,36.854,0,0,1-1.195,3.862c-.392.779-1.119,2.153-1.5,2.271a1.6,1.6,0,0,1-1.326-.107,1.469,1.469,0,0,0,1.666.4,5.473,5.473,0,0,0,1.63-2.019,36.828,36.828,0,0,0,1.194-3.863S3681.358,4440.948,3680.633,4440.225Z" transform="translate(-3675.629 -4439.162)" fill="#dbdcdc"/>
            <path id="パス_362" data-name="パス 362" d="M3678.853,4438.328a4.824,4.824,0,0,0-1.172-.814c-.207,1.179-1.452,3.545-3.569,3.381a5.516,5.516,0,0,1,.4,2.25c-.125,1.777-.21,2.656.3,3.432.016.023.035.045.052.067a1.591,1.591,0,0,0,1.327.106c.38-.116,1.106-1.491,1.5-2.27a37.01,37.01,0,0,0,1.195-3.862A4.163,4.163,0,0,0,3678.853,4438.328Z" transform="translate(-3674.112 -4437.514)" fill="#f5f6f7"/>
          </g>
          <g id="グループ_251" data-name="グループ 251" transform="translate(51.673 32.36)">
            <path id="パス_363" data-name="パス 363" d="M3627.321,4373.085c-.252-3.037-.24-6.652-.558-8.318-.118-.619-.267-.15-.3-1.362a30.238,30.238,0,0,0,4.915-.35c4.787-.959,5.1-2.5,5.1-2.5s.03.131.061.319a3.635,3.635,0,0,0-.295-1.153c-.865,2.632-6.094,2.906-8.888,2.851-2.526-.05-3.765-.623-4.661-1.645a115.376,115.376,0,0,0-1.867,13.91c-.084,3.689,4.366,14.995,4.542,15.282.592.953,5.4.884,5.793-.6.345-1.3-3.52-10.625-3.646-12.275C3627.418,4375.875,3627.3,4374.279,3627.321,4373.085Z" transform="translate(-3620.835 -4359.725)" fill="#ccc6ac"/>
          </g>
          <path id="パス_364" data-name="パス 364" d="M3646.518,4378.584c-.9-.778,0-4.457.469-8.163.3-2.417.875-4.462,1.012-6.952a5.4,5.4,0,0,0-.127-1.225s-.318,1.538-5.1,2.5a30.282,30.282,0,0,1-4.915.351c.03,1.211.178.741.3,1.361.412,2.155.27,7.575.865,10.783.4,2.165,2.362,5.745,5.7,9.042,1.924,1.9,4.148,4.148,5.038,4.25,2.722.312,4.043-3.554,3.626-3.982C3652.341,4385.48,3648.794,4380.537,3646.518,4378.584Z" transform="translate(-3580.547 -4329.05)" fill="#e2dcc3"/>
          <path id="パス_365" data-name="パス 365" d="M3610.285,4315.318c-1.033-6.72-1.577-11.349-4.445-16.914a3.343,3.343,0,0,0-.647-.833,4.077,4.077,0,0,0-2.294-1.49,10.2,10.2,0,0,0-1.883-.649,7.858,7.858,0,0,0-1.5-.178,2.517,2.517,0,0,1-.413,1.224,6.064,6.064,0,0,1-1.874,1.183,2.224,2.224,0,0,1-1.174-1.609,4.146,4.146,0,0,1-1.094-.094c-.125-.028-.246-.065-.365-.1a7.585,7.585,0,0,0-2.541,1.493,4.982,4.982,0,0,0-1.547,2.375c-.975,4.011-.9,5.477-1.469,6.67-.656,1.359-4.286,3.615-7.143,4.9l1.344-.081c.83.106,1.935.7,1.828,1.532l-.041.958a1.425,1.425,0,0,1-.332.711c2.677-1.216,6.86-3.073,7.825-5.075a12.53,12.53,0,0,0,.49-1.2c.346.96.6,1.849.816,2.688-.422.235-.8.442-1.12.608.833.093,1.945.664,1.855,1.5l-.025.959a1.991,1.991,0,0,1-1.995,1.521l-.784-.049a3.57,3.57,0,0,0,2.96-.216c.051-.028.161-.081.31-.151a11.407,11.407,0,0,0,.62,1.309c1.088,1.956,2.091,3.069,5.664,3.14C3604.5,4319.505,3610.873,4319.136,3610.285,4315.318Z" transform="translate(-3543.111 -4284.23)" fill="#00254d"/>
          <path id="パス_366" data-name="パス 366" d="M3627.744,4295.243c-.391-.86-1.064-.892-1.045-1.075,0,.017,0,.036-.005.054-.011.133-.022.277-.042.431,0,.016,0,.031-.005.048-.006.044-.015.089-.022.135,0,.021-.007.038-.012.059-.009.045-.021.091-.033.136-.006.022-.01.044-.018.067-.013.045-.03.092-.048.139-.009.023-.015.047-.025.071-.02.05-.045.1-.069.151-.011.022-.02.044-.032.068a2.433,2.433,0,0,1-.134.226,6.069,6.069,0,0,1-1.874,1.182,2.216,2.216,0,0,1-1.172-1.607,4.222,4.222,0,0,1-.639-.022,5.45,5.45,0,0,0,.079,2.289c.18.605.893,2.895,1.559,2.97a15.343,15.343,0,0,0,2.919-3.118C3627.43,4296.918,3628.011,4295.831,3627.744,4295.243Z" transform="translate(-3570.26 -4283.503)" fill="#00254d"/>
          <path id="パス_367" data-name="パス 367" d="M3619.855,4277.641c-.039-.932-2-1.779-3.048-1.862-1.283-.1-2.522.38-3.667.141-.754-.156-1.034-.661-1.759-1.092a6.49,6.49,0,0,0-.438,1.3c-.627,2.839.655,5.567,3.349,6.161a4.1,4.1,0,0,0,1.094.094,2.225,2.225,0,0,0,1.173,1.61,6.059,6.059,0,0,0,1.874-1.184,2.886,2.886,0,0,0,.441-1.537l-.271-.854a8.765,8.765,0,0,0,1.133-2.348C3619.783,4277.926,3619.819,4277.783,3619.855,4277.641Z" transform="translate(-3562.439 -4270.563)" fill="#fbd6a0"/>
          <path id="パス_368" data-name="パス 368" d="M3614.4,4265.727a3.978,3.978,0,0,0-2.831-3.432,5.179,5.179,0,0,0-4.778.5,4.448,4.448,0,0,0-1.8,2.68l-1.685.035c-.48.007-.863.014-1.035.022l-.212,0,.128,0c-.768.079-.172,1.324.656,1.658a5.969,5.969,0,0,0,2.11.3,3.6,3.6,0,0,1,.5-1.258c.682.422.967.9,1.7,1.057,1.144.239,2.383-.247,3.667-.142,1.048.083,3.013.933,3.048,1.866A7.142,7.142,0,0,0,3614.4,4265.727Z" transform="translate(-3556.447 -4261.942)" fill="#00254d"/>
          <g id="グループ_253" data-name="グループ 253" transform="translate(35.628 26.983)">
            <g id="グループ_252" data-name="グループ 252" transform="translate(0 2.49)">
              <path id="パス_369" data-name="パス 369" d="M3573.516,4351.062V4351a4.258,4.258,0,0,0-1.056,1.642c-.032.09-.071.192-.112.3v3.023c.211-.617.491-1.332.726-1.934.154-.4.293-.753.392-1.025a3.3,3.3,0,0,1,.546-.962A.936.936,0,0,1,3573.516,4351.062Z" transform="translate(-3572.35 -4350.999)" fill="#dbdcdc"/>
            </g>
            <path id="パス_370" data-name="パス 370" d="M3580.978,4345.966a1.994,1.994,0,0,1-2.024,1.483l-1.593-.129c-.833-.107-1.616-.461-1.508-1.292l.037-1.434c.108-.832,1-1.139,1.835-1.03l1.466-.088c.83.106,1.935.7,1.828,1.532Z" transform="translate(-3574.687 -4343.475)" fill="#fbd6a0"/>
          </g>
          <g id="グループ_255" data-name="グループ 255" transform="translate(40.412 27.202)">
            <path id="パス_371" data-name="パス 371" d="M3609.724,4346.593a1.992,1.992,0,0,1-1.994,1.521l-1.6-.1c-.833-.089-1.624-.43-1.532-1.261l.013-1.434c.091-.835.98-1.159,1.814-1.068l1.462-.114c.833.091,1.949.664,1.858,1.5Z" transform="translate(-3598.707 -4344.137)" fill="#fbd6a0"/>
            <path id="パス_372" data-name="パス 372" d="M3587.341,4348.16a.534.534,0,1,0,0,1.069h5.361l.01-1.069Z" transform="translate(-3586.805 -4346.829)" fill="#dbdcdc"/>
            <g id="グループ_254" data-name="グループ 254" transform="translate(8.067 1.822)">
              <path id="パス_373" data-name="パス 373" d="M3611.706,4412.653h-.524V4424.1h1.071v-11.677A.755.755,0,0,1,3611.706,4412.653Z" transform="translate(-3611.182 -4391.644)" fill="#dbdcdc"/>
              <path id="パス_374" data-name="パス 374" d="M3613.867,4349.836a.535.535,0,1,0-.822.686,1.394,1.394,0,0,1,.214,1.223c-.108.318-.286.773-.475,1.254-.288.733-.614,1.564-.813,2.22l-.024.081a13.925,13.925,0,0,0-.763,3.913v3.925h.524a.752.752,0,0,1,.547.236v-4.161a12.861,12.861,0,0,1,.717-3.6l.025-.081c.187-.616.5-1.425.785-2.141.194-.493.376-.96.493-1.3A2.453,2.453,0,0,0,3613.867,4349.836Z" transform="translate(-3611.182 -4349.644)" fill="#dbdcdc"/>
            </g>
          </g>
          <path id="パス_375" data-name="パス 375" d="M3608.375,4390.423H3606.2v7.515h2.171a.761.761,0,0,0,.759-.76v-6A.76.76,0,0,0,3608.375,4390.423Z" transform="translate(-3559.373 -4347.903)" fill="#69757c"/>
          <g id="グループ_259" data-name="グループ 259" transform="translate(3.709 63.57)">
            <g id="グループ_256" data-name="グループ 256" transform="translate(1.175 1.344)">
              <path id="パス_376" data-name="パス 376" d="M3479.981,4458.9a2.409,2.409,0,0,1,.273-.811h-.8A1.734,1.734,0,0,1,3479.981,4458.9Z" transform="translate(-3479.453 -4458.092)" fill="#23456d"/>
            </g>
            <g id="グループ_258" data-name="グループ 258" transform="translate(1.664 0.997)">
              <path id="パス_377" data-name="パス 377" d="M3486.168,4457.044a5.908,5.908,0,0,1,.179,1.532c0,.734-.324,1.124-.724,1.124a.3.3,0,0,1-.052-.008.277.277,0,0,1-.053.008c-.257,0-.452-.226-.612-.529-.174-.333-.317-.843-.513-1.247a2.854,2.854,0,0,0-.092.723c0,1.048.546,1.9,1.218,1.9s1.22-.848,1.22-1.9A2.277,2.277,0,0,0,3486.168,4457.044Z" transform="translate(-3483.185 -4457.044)" fill="#3e3a39"/>
              <g id="グループ_257" data-name="グループ 257" transform="translate(0 0.347)">
                <path id="パス_378" data-name="パス 378" d="M3482.051,4459.348a2.854,2.854,0,0,1,.09-.717,1.307,1.307,0,0,0-.408-.539h-.489a2.545,2.545,0,0,0-.312,1.256c0,1.047.546,1.9,1.219,1.9h1.046a.176.176,0,0,0,.035-.006C3482.576,4461.209,3482.051,4460.376,3482.051,4459.348Z" transform="translate(-3480.932 -4458.092)" fill="#231815"/>
              </g>
            </g>
            <path id="パス_379" data-name="パス 379" d="M3481.792,4454.031H3479.8a4.322,4.322,0,0,0,1.176,1.344c.449.288.645,1.257.919,1.78.161.3.355.531.613.531a.366.366,0,0,0,.053-.009.435.435,0,0,0,.053.009c.4,0,.723-.391.723-1.125a3.569,3.569,0,0,0-.656-2.53Z" transform="translate(-3478.509 -4454.031)" fill="#4878b2"/>
            <path id="パス_380" data-name="パス 380" d="M3477.077,4455.375a4.3,4.3,0,0,1-1.175-1.344h1.289a4.315,4.315,0,0,0,1.176,1.344Z" transform="translate(-3475.902 -4454.031)" fill="#3e699d"/>
            <path id="パス_381" data-name="パス 381" d="M3487.291,4459.612c-.264,0-.481.335-.481.75s.217.75.481.75c.066,0,.631-.006.631-.75S3487.357,4459.612,3487.291,4459.612Z" transform="translate(-3483.201 -4457.765)" fill="#bebfbf"/>
          </g>
          <g id="グループ_263" data-name="グループ 263" transform="translate(22.25 63.57)">
            <g id="グループ_260" data-name="グループ 260" transform="translate(1.43)">
              <path id="パス_382" data-name="パス 382" d="M3537.872,4454.031h-1.624l.181,2.53c0,.62.323,1.125.722,1.125a.428.428,0,0,0,.052-.009.368.368,0,0,0,.052.009c.4,0,.723-.5.723-1.125v-2.53Z" transform="translate(-3536.248 -4454.031)" fill="#4878b2"/>
            </g>
            <g id="グループ_262" data-name="グループ 262">
              <path id="パス_383" data-name="パス 383" d="M3533.993,4454.031h-1.115l.085,1.2a1.028,1.028,0,0,1,.818-.495h.262Z" transform="translate(-3532.563 -4454.031)" fill="#23456d"/>
              <g id="グループ_261" data-name="グループ 261" transform="translate(0 0.702)">
                <path id="パス_384" data-name="パス 384" d="M3537.342,4457.661v1.319c0,.62-.323,1.123-.723,1.123a.441.441,0,0,1-.052-.008c-.019,0-.035.008-.052.008-.4,0-.723-.5-.723-1.123l-.1-1.333a2.456,2.456,0,0,0-.4,1.4c0,1.048.546,1.9,1.22,1.9s1.219-.847,1.219-1.9A2.465,2.465,0,0,0,3537.342,4457.661Z" transform="translate(-3534.18 -4457.152)" fill="#3e3a39"/>
                <path id="パス_385" data-name="パス 385" d="M3533.044,4458.05a2.448,2.448,0,0,1,.4-1.4l-.036-.5h-.261c-.674,0-1.219.851-1.219,1.9s.545,1.9,1.219,1.9h1.046c.012,0,.023,0,.035-.006C3533.572,4459.912,3533.044,4459.079,3533.044,4458.05Z" transform="translate(-3531.927 -4456.153)" fill="#231815"/>
              </g>
              <path id="パス_386" data-name="パス 386" d="M3538.285,4459.612c-.265,0-.481.335-.481.75s.217.75.481.75c.067,0,.63-.006.63-.75S3538.352,4459.612,3538.285,4459.612Z" transform="translate(-3535.859 -4457.765)" fill="#bebfbf"/>
            </g>
          </g>
          <g id="グループ_264" data-name="グループ 264" transform="translate(26.459 64.914)">
            <path id="パス_387" data-name="パス 387" d="M3545.174,4458.9a2.393,2.393,0,0,1,.273-.811h-.8A1.736,1.736,0,0,1,3545.174,4458.9Z" transform="translate(-3544.646 -4458.092)" fill="#23456d"/>
          </g>
          <g id="グループ_266" data-name="グループ 266" transform="translate(26.948 64.567)">
            <path id="パス_388" data-name="パス 388" d="M3551.36,4457.044a5.932,5.932,0,0,1,.178,1.532c0,.734-.324,1.124-.723,1.124a.287.287,0,0,1-.053-.008.282.282,0,0,1-.054.008c-.257,0-.452-.226-.612-.529-.174-.333-.317-.843-.513-1.247a2.81,2.81,0,0,0-.093.723c0,1.048.545,1.9,1.217,1.9s1.221-.848,1.221-1.9A2.282,2.282,0,0,0,3551.36,4457.044Z" transform="translate(-3548.376 -4457.044)" fill="#595757"/>
            <g id="グループ_265" data-name="グループ 265" transform="translate(0 0.347)">
              <path id="パス_389" data-name="パス 389" d="M3547.242,4459.348a2.809,2.809,0,0,1,.091-.717,1.3,1.3,0,0,0-.409-.539h-.489a2.542,2.542,0,0,0-.312,1.256c0,1.047.546,1.9,1.219,1.9h1.046a.173.173,0,0,0,.036-.006C3547.768,4461.209,3547.242,4460.376,3547.242,4459.348Z" transform="translate(-3546.124 -4458.092)" fill="#231815"/>
            </g>
          </g>
          <path id="パス_390" data-name="パス 390" d="M3546.984,4454.031h-1.993a4.311,4.311,0,0,0,1.176,1.344c.449.288.645,1.257.919,1.78.16.3.355.531.612.531a.377.377,0,0,0,.054-.009.4.4,0,0,0,.053.009c.4,0,.723-.391.723-1.125a3.572,3.572,0,0,0-.655-2.53Z" transform="translate(-3518.418 -4390.46)" fill="#4878b2"/>
          <path id="パス_391" data-name="パス 391" d="M3542.27,4455.375a4.3,4.3,0,0,1-1.175-1.344h1.289a4.318,4.318,0,0,0,1.176,1.344Z" transform="translate(-3515.812 -4390.46)" fill="#3e699d"/>
          <path id="パス_392" data-name="パス 392" d="M3552.484,4459.612c-.264,0-.481.335-.481.75s.217.75.481.75c.066,0,.631-.006.631-.75S3552.55,4459.612,3552.484,4459.612Z" transform="translate(-3523.109 -4394.195)" fill="#bebfbf"/>
          <path id="パス_393" data-name="パス 393" d="M3487.727,4449.045v-.583a.761.761,0,0,1,.759-.759h-23.035a.76.76,0,0,0-.758.759v.583a.76.76,0,0,0,.758.758h23.035A.76.76,0,0,1,3487.727,4449.045Z" transform="translate(-3464.694 -4386.228)" fill="#00447d"/>
          <g id="グループ_267" data-name="グループ 267" transform="translate(23.034 61.476)">
            <path id="長方形_1170" data-name="長方形 1170" d="M1.05,0H27.067a1.05,1.05,0,0,1,1.05,1.05v0A1.051,1.051,0,0,1,27.066,2.1H1.051A1.051,1.051,0,0,1,0,1.05v0A1.05,1.05,0,0,1,1.05,0Z" fill="#00579b"/>
          </g>
          <g id="グループ_269" data-name="グループ 269" transform="translate(43.822 63.57)">
            <path id="パス_394" data-name="パス 394" d="M3599.688,4454.031h-1.625l.18,2.53c0,.62.324,1.125.723,1.125a.379.379,0,0,0,.052-.009.444.444,0,0,0,.052.009c.4,0,.724-.5.724-1.125v-2.53Z" transform="translate(-3597.749 -4454.031)" fill="#2d527e"/>
            <g id="グループ_268" data-name="グループ 268" transform="translate(0 0.702)">
              <path id="パス_395" data-name="パス 395" d="M3602.913,4458.05c0,1.048-.545,1.9-1.217,1.9s-1.221-.848-1.221-1.9.548-1.9,1.221-1.9S3602.913,4457,3602.913,4458.05Z" transform="translate(-3599.361 -4456.153)" fill="#595757"/>
              <path id="パス_396" data-name="パス 396" d="M3598.228,4458.05c0-1.028.527-1.862,1.184-1.89-.012,0-.024-.007-.036-.007h-1.046c-.673,0-1.219.851-1.219,1.9s.546,1.9,1.219,1.9h1.046c.012,0,.024,0,.036-.006C3598.755,4459.912,3598.228,4459.079,3598.228,4458.05Z" transform="translate(-3597.111 -4456.153)" fill="#231815"/>
            </g>
            <path id="パス_397" data-name="パス 397" d="M3603.059,4454.031h-1.625l.181,2.53c0,.62.323,1.125.722,1.125a.379.379,0,0,0,.052-.009.41.41,0,0,0,.052.009c.4,0,.723-.5.723-1.125v-2.53Z" transform="translate(-3600.003 -4454.031)" fill="#5084c4"/>
            <path id="パス_398" data-name="パス 398" d="M3603.472,4459.612c-.268,0-.482.335-.482.75s.215.75.482.75c.064,0,.63-.006.63-.75S3603.537,4459.612,3603.472,4459.612Z" transform="translate(-3601.044 -4457.765)" fill="#dbdcdc"/>
          </g>
          <g id="グループ_270" data-name="グループ 270" transform="translate(4.773 38.345)">
            <path id="パス_399" data-name="パス 399" d="M3479.472,4377.906h22.379v0a.3.3,0,0,0-.287.293h-22.394A.3.3,0,0,1,3479.472,4377.906Z" transform="translate(-3479.153 -4377.873)" fill="#fbd6a0"/>
            <path id="パス_400" data-name="パス 400" d="M3546.838,4378.2a.3.3,0,0,1,.3-.3h19.032a.3.3,0,0,1,.3.3Z" transform="translate(-3524.426 -4377.873)" fill="#b09060"/>
            <path id="パス_401" data-name="パス 401" d="M3479.472,4447.127h22.379v0a.3.3,0,0,1-.287-.293h-22.394A.3.3,0,0,0,3479.472,4447.127Z" transform="translate(-3479.153 -4423.989)" fill="#cea75f"/>
            <path id="パス_402" data-name="パス 402" d="M3546.838,4446.832a.3.3,0,0,0,.3.3h19.032a.3.3,0,0,0,.3-.3Z" transform="translate(-3524.426 -4423.989)" fill="#90764d"/>
            <rect id="長方形_1171" data-name="長方形 1171" width="19.671" height="22.513" transform="translate(22.388 0.329)" fill="#c4a064"/>
            <rect id="長方形_1172" data-name="長方形 1172" width="22.388" height="22.513" transform="translate(0 0.329)" fill="#eabe6c"/>
            <rect id="長方形_1173" data-name="長方形 1173" width="2.977" height="1.984" transform="translate(30.847)" fill="#eabe6c"/>
            <rect id="長方形_1174" data-name="長方形 1174" width="2.977" height="1.985" transform="translate(30.847 21.154)" fill="#eabe6c"/>
          </g>
          <g id="グループ_275" data-name="グループ 275" transform="translate(7.165 40.484)">
            <g id="グループ_274" data-name="グループ 274">
              <path id="パス_403" data-name="パス 403" d="M3487.005,4384.271a.15.15,0,0,1-.043.1.161.161,0,0,1-.112.049.178.178,0,0,1-.111-.049.151.151,0,0,1-.044-.1h-.351v5.426h.346a.144.144,0,0,1,.048-.112.155.155,0,0,1,.223,0,.142.142,0,0,1,.049.112h10.24v-5.426Zm-.155,5.169a.164.164,0,0,1,0-.327.164.164,0,0,1,0,.327Zm0-.424a.16.16,0,0,1-.159-.16.164.164,0,0,1,.159-.161.16.16,0,0,1,.16.161A.157.157,0,0,1,3486.851,4389.017Zm0-.417a.16.16,0,0,1-.159-.159.164.164,0,0,1,.159-.163.161.161,0,0,1,.16.163A.157.157,0,0,1,3486.851,4388.6Zm0-.417a.161.161,0,1,1,.16-.16A.157.157,0,0,1,3486.851,4388.182Zm0-.418a.164.164,0,0,1-.159-.16.16.16,0,0,1,.159-.16.157.157,0,0,1,.16.16A.161.161,0,0,1,3486.851,4387.764Zm0-.417a.165.165,0,0,1-.159-.16.159.159,0,0,1,.159-.16.157.157,0,0,1,.16.16A.161.161,0,0,1,3486.851,4387.347Zm0-.423a.161.161,0,0,1-.159-.161.166.166,0,0,1,.159-.161.162.162,0,0,1,.16.161A.158.158,0,0,1,3486.851,4386.924Zm0-.417a.16.16,0,0,1-.159-.161.163.163,0,0,1,.159-.16.16.16,0,0,1,.16.16A.157.157,0,0,1,3486.851,4386.507Zm0-.419a.159.159,0,0,1-.159-.16.165.165,0,0,1,.159-.162.162.162,0,0,1,.16.162A.156.156,0,0,1,3486.851,4386.088Zm0-.417a.16.16,0,0,1,0-.321.16.16,0,1,1,0,.321Zm0-.416a.165.165,0,0,1-.159-.162.16.16,0,0,1,.159-.161.157.157,0,0,1,.16.161A.162.162,0,0,1,3486.851,4385.254Zm0-.418a.163.163,0,0,1-.159-.16.16.16,0,0,1,.159-.161.157.157,0,0,1,.16.161A.16.16,0,0,1,3486.851,4384.836Z" transform="translate(-3486.345 -4384.271)" fill="#fff"/>
              <g id="グループ_273" data-name="グループ 273" transform="translate(1.471 0.672)">
                <g id="グループ_271" data-name="グループ 271">
                  <path id="パス_404" data-name="パス 404" d="M3496.3,4390.814h-2.89a.177.177,0,0,1,0-.354h2.89a.177.177,0,0,1,0,.354Z" transform="translate(-3492.425 -4389.083)" fill="#c8c9ca"/>
                  <path id="パス_405" data-name="パス 405" d="M3493.856,4386.656h-2.89a.177.177,0,1,1,0-.354h2.89a.177.177,0,1,1,0,.354Z" transform="translate(-3490.789 -4386.302)" fill="#c8c9ca"/>
                  <path id="パス_406" data-name="パス 406" d="M3495.215,4388.477h-4.248a.177.177,0,1,1,0-.354h4.248a.177.177,0,1,1,0,.354Z" transform="translate(-3490.789 -4387.52)" fill="#c8c9ca"/>
                  <path id="パス_407" data-name="パス 407" d="M3510.445,4390.814h-1.858a.177.177,0,0,1,0-.354h1.858a.177.177,0,0,1,0,.354Z" transform="translate(-3502.578 -4389.083)" fill="#c8c9ca"/>
                </g>
                <g id="グループ_272" data-name="グループ 272" transform="translate(0 2.358)">
                  <path id="パス_408" data-name="パス 408" d="M3496.3,4397.935h-2.89a.177.177,0,0,1,0-.354h2.89a.177.177,0,1,1,0,.354Z" transform="translate(-3492.425 -4396.206)" fill="#c8c9ca"/>
                  <path id="パス_409" data-name="パス 409" d="M3493.856,4393.78h-2.89a.177.177,0,1,1,0-.354h2.89a.177.177,0,0,1,0,.354Z" transform="translate(-3490.789 -4393.426)" fill="#c8c9ca"/>
                  <path id="パス_410" data-name="パス 410" d="M3495.215,4395.6h-4.248a.177.177,0,1,1,0-.354h4.248a.177.177,0,0,1,0,.354Z" transform="translate(-3490.789 -4394.642)" fill="#c8c9ca"/>
                </g>
              </g>
            </g>
            <path id="パス_411" data-name="パス 411" d="M3498.4,4385.089h-8.737a.474.474,0,0,0-.473.472v3.947a.474.474,0,0,0,.473.474h8.737a.474.474,0,0,0,.473-.474v-3.947A.474.474,0,0,0,3498.4,4385.089Zm.331.472v.759h-3.838v-1.089h3.508A.331.331,0,0,1,3498.729,4385.562Zm-3.838,3.139v-.876h3.838v.876Zm0-.946v-1.363h3.838v1.363Zm-5.229-2.522h5.088v2.262h-5.419v-1.932A.331.331,0,0,1,3489.661,4385.231Zm-.332,4.277v-1.942h5.419v2.273h-5.088A.331.331,0,0,1,3489.33,4389.508Z" transform="translate(-3488.247 -4384.819)" fill="#ed85a7"/>
          </g>
          <g id="グループ_282" data-name="グループ 282" transform="translate(50.636 16.084)">
            <path id="パス_425" data-name="パス 425" d="M3623.405,4317.318a14.143,14.143,0,0,0,1.77-5.794,9.774,9.774,0,0,0,.037-.982,12.742,12.742,0,0,0-.617,2.277c-.308,1.54-.845,3.983-2.207,4.946a49.428,49.428,0,0,1-4.687,2.942s.035.12.1.337C3619.88,4319.884,3622.9,4318.07,3623.405,4317.318Z" transform="translate(-3617.701 -4310.542)" fill="#fff"/>
            <path id="パス_426" data-name="パス 426" d="M3632.8,4312.9a13.3,13.3,0,0,1-2.411,7.944,13.509,13.509,0,0,1-3.981,3.479,38.986,38.986,0,0,1-4.762,2.465c.077.207.131.346.131.346a33.35,33.35,0,0,0,5.81-3.143,11.963,11.963,0,0,0,3.27-3.183C3633.028,4317.478,3633.172,4315.06,3632.8,4312.9Z" transform="translate(-3620.342 -4312.12)" fill="#fff"/>
          </g>
          <g id="グループ_283" data-name="グループ 283" transform="translate(71.517 61.345)">
            <path id="パス_427" data-name="パス 427" d="M3681.307,4453.568a2.588,2.588,0,0,1,1.638-.143c.059-.189.12-.386.176-.585a2.754,2.754,0,0,0-1.816.062C3681.315,4453.135,3681.317,4453.362,3681.307,4453.568Z" transform="translate(-3681.136 -4450.922)" fill="#00254d"/>
            <path id="パス_428" data-name="パス 428" d="M3682.952,4448.642c.136-.48.255-.915.328-1.186a4.568,4.568,0,0,0-2.483.075c.044.313.1.784.139,1.272A4.486,4.486,0,0,1,3682.952,4448.642Z" transform="translate(-3680.797 -4447.308)" fill="#00254d"/>
          </g>
          <path id="パス_429" data-name="パス 429" d="M3635.416,4297.923a2.583,2.583,0,0,1-.993,1.324s3.736.691,3.553,3c0,0,1.833-.33,2.384.514C3640.359,4302.763,3640.6,4299.174,3635.416,4297.923Z" transform="translate(-3578.253 -4286.015)" fill="#fff"/>
          <path id="パス_430" data-name="パス 430" d="M3613.615,4298.058s-2.641,1.174-3.155,2.091l-.33-.367s.477-1.1,2.972-2.2C3613.1,4297.582,3613.652,4298.021,3613.615,4298.058Z" transform="translate(-3561.999 -4285.787)" fill="#fff"/>
        </g>
        <path id="パス_502" data-name="パス 502" d="M3630.552,4311.63s-.551,5.391.146,6.933l.33.073,1.063-1.063a34.584,34.584,0,0,1-.073-4.476l1.321.183.183-1.5S3630.882,4311.555,3630.552,4311.63Z" transform="translate(-3575.525 -4295.176)" fill="#fff"/>
        <path id="パス_503" data-name="パス 503" d="M3613.435,4311.358a18.637,18.637,0,0,1,3.47.016s.214,6.554-.282,7.369l-1.26-.074.128-6.071-2.012.022Z" transform="translate(-3564.211 -4294.949)" fill="#fff"/>
        <path id="パス_504" data-name="パス 504" d="M3638.018,4330.642l-1.908-1.357s-2.018,3.448-4.475,4.366l1.394,2.055,2.311-1.762,1.688-1.724Z" transform="translate(-3576.388 -4306.998)" fill="#fff"/>
        <path id="パス_505" data-name="パス 505" d="M3599.162,4323.19a7.261,7.261,0,0,1-.517,1.9,7.679,7.679,0,0,1-2.394,2.237l.631.562c3.595-1.65,3.375-4.55,3.375-4.55Z" transform="translate(-3552.714 -4302.92)" fill="#fff"/>
        <path id="パス_506" data-name="パス 506" d="M3618.012,4262.3a5.18,5.18,0,0,0-4.779.5,4.282,4.282,0,0,0-1.759,2.565l-.014.125a14.19,14.19,0,0,1,6.419.292,2.467,2.467,0,0,1,2.09-2.18A3.962,3.962,0,0,0,3618.012,4262.3Z" transform="translate(-3562.89 -4261.942)" fill="#fff"/>
        <g id="グループ_688" data-name="グループ 688" transform="translate(5.272 22.617)">
          <rect id="長方形_25983" data-name="長方形 25983" width="2.388" height="1.048" rx="0.524" transform="translate(1.755 14.624)" fill="#3d3d3d"/>
          <rect id="長方形_25984" data-name="長方形 25984" width="2.388" height="1.048" rx="0.524" transform="translate(20.874 14.624)" fill="#3d3d3d"/>
          <path id="パス_61112" data-name="パス 61112" d="M361.126,1362.278a.83.83,0,0,0-.829.83v13.082a.829.829,0,0,0,.829.83h18.816v-14.741Z" transform="translate(-360.083 -1362.248)" fill="#4d4d4d"/>
          <path id="長方形_25985" data-name="長方形 25985" d="M3.091,0h9.315A3.092,3.092,0,0,1,15.5,3.092v2.73a3.091,3.091,0,0,1-3.091,3.091H3.091A3.091,3.091,0,0,1,0,5.821V3.091A3.091,3.091,0,0,1,3.091,0Z" transform="translate(2.287 3.689)" fill="#e6e6e6"/>
          <path id="パス_61113" data-name="パス 61113" d="M600.887,1362.278h-4.21v14.741h4.21a.829.829,0,0,0,.83-.83v-13.082A.83.83,0,0,0,600.887,1362.278Z" transform="translate(-576.818 -1362.248)" fill="#333"/>
          <g id="グループ_686" data-name="グループ 686" transform="translate(20.282 2.821)">
            <g id="グループ_684" data-name="グループ 684" transform="translate(0 0)">
              <circle id="楕円形_78" data-name="楕円形 78" cx="1.746" cy="1.746" r="1.746" transform="translate(0 3.399) rotate(-76.838)" fill="#4d4d4d"/>
              <circle id="楕円形_79" data-name="楕円形 79" cx="1.494" cy="1.494" r="1.494" transform="translate(0.302 3.211) rotate(-76.821)" fill="#333"/>
              <circle id="楕円形_80" data-name="楕円形 80" cx="1.386" cy="1.386" r="1.386" transform="translate(0.42 3.112) rotate(-76.168)" fill="#4d4d4d"/>
              <path id="パス_61114" data-name="パス 61114" d="M622.109,1402.787h-.4a4.692,4.692,0,0,0-.025,3.032h.427A5.465,5.465,0,0,0,622.109,1402.787Z" transform="translate(-619.821 -1402.212)" fill="#333"/>
            </g>
            <g id="グループ_685" data-name="グループ 685" transform="translate(0 4.964)">
              <circle id="楕円形_81" data-name="楕円形 81" cx="1.746" cy="1.746" r="1.746" transform="translate(0 3.399) rotate(-76.838)" fill="#4d4d4d"/>
              <circle id="楕円形_82" data-name="楕円形 82" cx="1.494" cy="1.494" r="1.494" transform="translate(0.302 3.211) rotate(-76.821)" fill="#333"/>
              <circle id="楕円形_83" data-name="楕円形 83" cx="1.386" cy="1.386" r="1.386" transform="translate(0.431 3.131) rotate(-76.813)" fill="#4d4d4d"/>
              <path id="パス_61115" data-name="パス 61115" d="M611.864,1475.938v-.4a4.692,4.692,0,0,0-3.032-.025v.427A5.468,5.468,0,0,0,611.864,1475.938Z" transform="translate(-608.244 -1473.649)" fill="#333"/>
            </g>
          </g>
          <rect id="長方形_25986" data-name="長方形 25986" width="15.002" height="1.193" transform="translate(2.536)" fill="#4d4d4d"/>
          <path id="パス_61116" data-name="パス 61116" d="M377.546,1363.9H375.26a35.361,35.361,0,0,1-15,0h-2.286a.25.25,0,0,1-.25-.25v-1.458a.269.269,0,0,1,.268-.269h2.267a33.32,33.32,0,0,0,15,0h2.267a.269.269,0,0,1,.268.269v1.458A.25.25,0,0,1,377.546,1363.9Z" transform="translate(-357.723 -1361.921)" fill="#333"/>
          <g id="グループ_687" data-name="グループ 687" transform="translate(3.025 6.34)">
            <path id="パス_61117" data-name="パス 61117" d="M401.181,1442.612H408a.235.235,0,0,0,.22-.327l-1.376-3.129a.23.23,0,0,1-.02-.093v-.627a.237.237,0,0,0-.24-.234H395.774a.237.237,0,0,0-.24.234v.624a.229.229,0,0,1-.019.093l-1.376,3.133a.235.235,0,0,0,.22.327Z" transform="translate(-394.12 -1438.202)" fill="none" stroke="#b3b3b3" stroke-linecap="round" stroke-linejoin="round" stroke-width="1"/>
            <line id="線_71" data-name="線 71" y2="4.41" transform="translate(7.061 0)" fill="none" stroke="#b3b3b3" stroke-linecap="round" stroke-linejoin="round" stroke-width="1"/>
            <path id="パス_61118" data-name="パス 61118" d="M461.051,1438.2v.906l-.428,3.5" transform="translate(-455.096 -1438.202)" fill="none" stroke="#b3b3b3" stroke-linecap="round" stroke-linejoin="round" stroke-width="1"/>
            <path id="パス_61119" data-name="パス 61119" d="M443.543,1438.2v.914l-.882,3.5" transform="translate(-438.627 -1438.202)" fill="none" stroke="#b3b3b3" stroke-linecap="round" stroke-linejoin="round" stroke-width="1"/>
            <path id="パス_61120" data-name="パス 61120" d="M427.1,1438.2v.906l-1.12,3.5" transform="translate(-423.33 -1438.202)" fill="none" stroke="#b3b3b3" stroke-linecap="round" stroke-linejoin="round" stroke-width="1"/>
            <path id="パス_61121" data-name="パス 61121" d="M410.34,1438.2v.906l-1.391,3.5" transform="translate(-407.716 -1438.202)" fill="none" stroke="#b3b3b3" stroke-linecap="round" stroke-linejoin="round" stroke-width="1"/>
            <path id="パス_61122" data-name="パス 61122" d="M492.4,1438.2v.906l.428,3.5" transform="translate(-484.228 -1438.202)" fill="none" stroke="#b3b3b3" stroke-linecap="round" stroke-linejoin="round" stroke-width="1"/>
            <path id="パス_61123" data-name="パス 61123" d="M504.9,1438.2v.914l.881,3.5" transform="translate(-495.693 -1438.202)" fill="none" stroke="#b3b3b3" stroke-linecap="round" stroke-linejoin="round" stroke-width="1"/>
            <path id="パス_61124" data-name="パス 61124" d="M518.715,1438.2v.906l1.12,3.5" transform="translate(-508.36 -1438.202)" fill="none" stroke="#b3b3b3" stroke-linecap="round" stroke-linejoin="round" stroke-width="1"/>
            <path id="パス_61125" data-name="パス 61125" d="M532.476,1438.2v.906l1.392,3.5" transform="translate(-520.978 -1438.202)" fill="none" stroke="#b3b3b3" stroke-linecap="round" stroke-linejoin="round" stroke-width="1"/>
          </g>
        </g>
        <g id="グループ_694" data-name="グループ 694" transform="translate(30.093 10.065)">
          <g id="グループ_689" data-name="グループ 689" transform="translate(4.986 46.152)">
            <path id="パス_61126" data-name="パス 61126" d="M1165.1,739.375a8.454,8.454,0,0,0-.085,1.131h2.012a8.454,8.454,0,0,0-.085-1.131,2.146,2.146,0,0,1-1.843,0Z" transform="translate(-1165.016 -738.659)" fill="#bab9b9"/>
            <path id="パス_61127" data-name="パス 61127" d="M1167.2,728.771h-.8s-.067.294-.125.716a2.147,2.147,0,0,0,1.843,0c-.058-.422-.125-.716-.125-.716Z" transform="translate(-1166.19 -728.771)" fill="#a6a5a5"/>
          </g>
          <path id="長方形_25987" data-name="長方形 25987" d="M0,0H.683a0,0,0,0,1,0,0V0a.2.2,0,0,1-.2.2H.2A.2.2,0,0,1,0,0V0A0,0,0,0,1,0,0Z" transform="translate(0.62 51.356)" fill="#8c8c8c"/>
          <path id="長方形_25988" data-name="長方形 25988" d="M.2,0H.485a.2.2,0,0,1,.2.2v0a0,0,0,0,1,0,0H0a0,0,0,0,1,0,0v0A.2.2,0,0,1,.2,0Z" transform="translate(11.366 51.555) rotate(180)" fill="#8c8c8c"/>
          <path id="長方形_25989" data-name="長方形 25989" d="M0,0H.683a0,0,0,0,1,0,0V0a.2.2,0,0,1-.2.2H.2A.2.2,0,0,1,0,0V0A0,0,0,0,1,0,0Z" transform="translate(2.632 51.356)" fill="#8c8c8c"/>
          <path id="長方形_25990" data-name="長方形 25990" d="M0,0H.683a0,0,0,0,1,0,0V0a.2.2,0,0,1-.2.2H.2A.2.2,0,0,1,0,0V0A0,0,0,0,1,0,0Z" transform="translate(4.645 51.356)" fill="#8c8c8c"/>
          <path id="長方形_25991" data-name="長方形 25991" d="M0,0H.683a0,0,0,0,1,0,0V0a.2.2,0,0,1-.2.2H.2A.2.2,0,0,1,0,0V0A0,0,0,0,1,0,0Z" transform="translate(6.657 51.356)" fill="#8c8c8c"/>
          <path id="長方形_25992" data-name="長方形 25992" d="M0,0H.683a0,0,0,0,1,0,0V0a.2.2,0,0,1-.2.2H.2A.2.2,0,0,1,0,0V0A0,0,0,0,1,0,0Z" transform="translate(8.67 51.356)" fill="#8c8c8c"/>
          <path id="パス_61128" data-name="パス 61128" d="M1102.688,796.8h-11.147c-.205,0-.381-.053-.419-.239v.193a.429.429,0,0,0,.428.437h11.13a.429.429,0,0,0,.428-.437v-.193C1103.069,796.746,1102.894,796.8,1102.688,796.8Z" transform="translate(-1091.122 -745.834)" fill="#bab9b9"/>
          <g id="グループ_690" data-name="グループ 690" transform="translate(2.818 35.805)">
            <path id="パス_61129" data-name="パス 61129" d="M1153.388,709.241a2.863,2.863,0,0,1-1.921-.681c.3,1.012.944,1.789,1.921,1.789s1.624-.777,1.921-1.789A2.862,2.862,0,0,1,1153.388,709.241Z" transform="translate(-1150.213 -699.576)" fill="#c44823"/>
            <path id="パス_61130" data-name="パス 61130" d="M1139.22,576.016h-.749l-.29-.326a.766.766,0,0,0-.572-.257H1134.5a.765.765,0,0,0-.572.257l-.29.326h-.748a41.2,41.2,0,0,0,1.195,8.212q.023.1.051.189a3.05,3.05,0,0,0,3.841,0c.018-.062.035-.125.051-.189A41.19,41.19,0,0,0,1139.22,576.016Z" transform="translate(-1132.879 -575.433)" fill="#9f3718"/>
          </g>
          <path id="パス_61131" data-name="パス 61131" d="M1146.416,601.458c.6,0,1.238-.259,1.348-.573a51.156,51.156,0,0,0,1.073-6.359.858.858,0,0,0-.854-.946h-3.133a.858.858,0,0,0-.854.946,51.244,51.244,0,0,0,1.073,6.359c.11.314.744.573,1.348.573Z" transform="translate(-1140.423 -556.551)" fill="#6d6d6d"/>
          <path id="長方形_25993" data-name="長方形 25993" d="M.233,0H.885a.233.233,0,0,1,.233.233v0A.233.233,0,0,1,.885.466H.233A.233.233,0,0,1,0,.233v0A.233.233,0,0,1,.233,0Z" transform="translate(5.434 36.167)" fill="#f0f0f0"/>
          <g id="グループ_691" data-name="グループ 691" transform="translate(2.826)">
            <path id="パス_61132" data-name="パス 61132" d="M1164.52,45.339a.365.365,0,0,0-.051-.157.658.658,0,0,0-1.15,0,.36.36,0,0,0-.051.157c-.07,2.366-.337,13.748-.534,21.73h2.321C1164.856,59.087,1164.589,47.705,1164.52,45.339Z" transform="translate(-1160.727 -44.844)" fill="#c44823"/>
            <path id="パス_61133" data-name="パス 61133" d="M1138.13,459.469a4.21,4.21,0,0,1-.576-2.34c-.01-.045-.04-1.029-.082-2.616h-2.6c-.042,1.586-.072,2.57-.083,2.616a4.21,4.21,0,0,1-.576,2.34,5.756,5.756,0,0,0-1.209,3.787h.748l.29-.326a.765.765,0,0,1,.572-.257h3.113a.765.765,0,0,1,.572.257l.29.326h.749A5.756,5.756,0,0,0,1138.13,459.469Z" transform="translate(-1133.007 -426.869)" fill="#c44823"/>
            <path id="パス_61134" data-name="パス 61134" d="M1163.314,380.586h-2.342c-.043,1.743-.083,3.307-.116,4.558h2.574C1163.4,383.893,1163.357,382.329,1163.314,380.586Z" transform="translate(-1158.977 -357.93)" fill="#c44823"/>
            <path id="パス_61135" data-name="パス 61135" d="M1163.271,448.126H1160.7q-.006.222-.011.431h2.6Q1163.277,448.348,1163.271,448.126Z" transform="translate(-1158.818 -420.912)" fill="#bab9b9"/>
            <path id="パス_61136" data-name="パス 61136" d="M1164.906,374.2h-2.321q-.005.217-.011.431h2.342Q1164.912,374.416,1164.906,374.2Z" transform="translate(-1160.58 -351.974)" fill="#bab9b9"/>
          </g>
          <path id="パス_61137" data-name="パス 61137" d="M1174.331,103.176a.406.406,0,0,1-.405-.405v-.706a.405.405,0,0,1,.81,0v.706A.406.406,0,0,1,1174.331,103.176Z" transform="translate(-1168.338 -97.826)" fill="#666"/>
          <g id="グループ_692" data-name="グループ 692" transform="translate(5.743 3.989)">
            <path id="パス_61138" data-name="パス 61138" d="M1176.722,104.207a.25.25,0,1,0-.5,0v.353h.5Z" transform="translate(-1176.222 -103.957)" fill="gray"/>
            <path id="パス_61139" data-name="パス 61139" d="M1176.222,112.9v.353a.25.25,0,1,0,.5,0V112.9Z" transform="translate(-1176.222 -112.293)" fill="#666"/>
          </g>
          <path id="パス_61140" data-name="パス 61140" d="M1173.944,430.378a.411.411,0,1,1,.411.411A.411.411,0,0,1,1173.944,430.378Z" transform="translate(-1168.355 -403.979)" fill="#666"/>
          <circle id="楕円形_84" data-name="楕円形 84" cx="0.248" cy="0.248" r="0.248" transform="translate(5.752 26.152)" fill="#bab9b9"/>
          <g id="グループ_693" data-name="グループ 693" transform="translate(4.087 37.549)">
            <path id="パス_61141" data-name="パス 61141" d="M1161.227,629.412c.105.55.226,1.125.362,1.717a.421.421,0,0,0,.252.3,1.757,1.757,0,0,0,1.3,0,.421.421,0,0,0,.252-.3c.42-1.824.686-3.492.848-4.724Z" transform="translate(-1160.583 -624.709)" fill="#1f1f1f"/>
            <path id="パス_61142" data-name="パス 61142" d="M1155.5,601.65a.339.339,0,0,0-.337-.374h-3.133a.339.339,0,0,0-.337.374c.091.89.282,2.459.642,4.329l3.01-3.007C1155.411,602.444,1155.461,602,1155.5,601.65Z" transform="translate(-1151.687 -601.276)" fill="#515151"/>
          </g>
          <path id="パス_61143" data-name="パス 61143" d="M1103.1,753.814l-.2-1a1.456,1.456,0,0,0-.957-1.036l-3.259-.935a.485.485,0,0,0-.551.2.357.357,0,0,1-.32.138h-1.383a.357.357,0,0,1-.32-.138.484.484,0,0,0-.55-.2l-3.259.935a1.455,1.455,0,0,0-.957,1.036l-.2,1c-.064.262.137.333.407.333h11.147C1102.958,754.147,1103.16,754.076,1103.1,753.814Z" transform="translate(-1091.122 -703.181)" fill="#c44823"/>
        </g>
      </g>
    </g>
    <g id="グループ_15521" data-name="グループ 15521" transform="translate(68.298 30.832) rotate(-30)">
      <g id="合体_10" data-name="合体 10" transform="translate(0.522 0)" fill="#fff">
        <path d="M 36.38206100463867 48.51557540893555 L 30.36404609680176 45.76986694335938 L 30.19497680664063 45.69272613525391 L 30.01656723022461 45.74473571777344 C 27.92271614074707 46.35516738891602 25.75968742370605 46.66471862792969 23.58753776550293 46.66477584838867 C 21.29004669189453 46.66483688354492 19.0071964263916 46.32043838500977 16.80239677429199 45.64112854003906 C 14.61730670928955 44.9678955078125 12.54904651641846 43.97841644287109 10.65506649017334 42.70018768310547 C 6.724307060241699 40.04734802246094 3.744906902313232 36.29622650146484 2.038956880569458 31.85235786437988 C 0.9225369691848755 28.9437370300293 0.4091169536113739 25.90376663208008 0.5129669308662415 22.81689643859863 C 0.6132769584655762 19.83503723144531 1.282287001609802 16.93473625183105 2.501406908035278 14.19654750823975 C 3.720526933670044 11.45834732055664 5.428206920623779 9.02049732208252 7.577026844024658 6.950716972351074 C 9.801547050476074 4.808027267456055 12.40426731109619 3.155457019805908 15.31288719177246 2.038907051086426 C 17.97315788269043 1.017767071723938 20.75369644165039 0.4999970495700836 23.57724761962891 0.4999970495700836 C 25.87475776672363 0.4999970495700836 28.15761756896973 0.8444470763206482 30.36243629455566 1.523787021636963 C 32.54756546020508 2.197057008743286 34.61584854125977 3.186557054519653 36.50982666015625 4.464797019958496 C 40.44065856933594 7.117717266082764 43.42001724243164 10.86888694763184 45.12580871582031 15.3127965927124 C 46.04413604736328 17.70498657226563 46.55681610107422 20.20394706726074 46.64961624145508 22.74027633666992 C 46.73932647705078 25.19241714477539 46.43627548217773 27.63572692871094 45.74887847900391 30.00236701965332 C 45.06885528564453 32.34363555908203 44.02974700927734 34.55276870727539 42.66042709350586 36.56839752197266 C 41.27180862426758 38.6124153137207 39.57676696777344 40.40752792358398 37.62236785888672 41.90386581420898 L 37.46564865112305 42.02385711669922 L 37.43314743041992 42.21854782104492 L 36.38206100463867 48.51557540893555 Z" stroke="none"/>
        <path d="M 35.99626541137695 47.78997039794922 L 36.93997573852539 42.13622665405273 L 37.00496673583984 41.74684524536133 L 37.31841659545898 41.50686645507813 C 39.23020553588867 40.04313659667969 40.88836669921875 38.28706741333008 42.2468376159668 36.28741836547852 C 43.58663558959961 34.31524658203125 44.60334777832031 32.15372848510742 45.26872634887695 29.86290740966797 C 45.94122695922852 27.54756736755371 46.23770523071289 25.15731620788574 46.14994812011719 22.7585563659668 C 46.05916595458984 20.27743721008301 45.55754852294922 17.83260726928711 44.65900802612305 15.49196720123291 C 42.99016571044922 11.14430713653564 40.07550811767578 7.474486827850342 36.23011779785156 4.879237174987793 C 32.46980667114258 2.341417074203491 28.09451675415039 0.999997079372406 23.57724761962891 0.999997079372406 C 20.81517601013184 0.999997079372406 18.09492683410645 1.506587028503418 15.4920768737793 2.505697011947632 C 12.6462574005127 3.598127126693726 10.09995651245117 5.214807033538818 7.923896789550781 7.310827255249023 C 5.821686744689941 9.33571720123291 4.15097713470459 11.72082710266113 2.958176851272583 14.39991664886475 C 1.765386939048767 17.07898712158203 1.110826969146729 19.91652679443359 1.012676954269409 22.83370780944824 C 0.9110969305038452 25.85333633422852 1.413437008857727 28.82737731933594 2.505737066268921 31.67315673828125 C 4.174746990203857 36.02079772949219 7.089457035064697 39.69056701660156 10.93477725982666 42.28574752807617 C 14.69509696960449 44.82355880737305 19.07034683227539 46.16489791870117 23.58751678466797 46.16477584838867 C 25.71230697631836 46.16471862792969 27.82826614379883 45.86189651489258 29.87661743164063 45.26472854614258 L 30.23344612121582 45.16069793701172 L 30.57159614562988 45.31497573852539 L 35.99626541137695 47.78997039794922 M 36.76786804199219 49.24117660522461 L 30.15650749206543 46.22475814819336 C 27.97740745544434 46.86004257202148 25.76785469055176 47.16471481323242 23.58754730224609 47.16477584838867 C 14.10918617248535 47.1650390625 5.171884059906006 41.40854644775391 1.572166919708252 32.03154754638672 C -3.093773126602173 19.87534713745117 2.977496862411499 6.238576889038086 15.13369655609131 1.57211709022522 C 17.91221046447754 0.5055875182151794 20.76875686645508 -1.542968789181032e-06 23.57724761962891 -1.542968789181032e-06 C 33.05562210083008 -1.542968789181032e-06 41.9931755065918 5.756411075592041 45.59259796142578 15.13361740112305 C 49.42706680297852 25.12216758728027 46.01072692871094 36.1112174987793 37.92632675170898 42.30086517333984 L 36.76786804199219 49.24117660522461 Z" stroke="none" fill="#cecece"/>
      </g>
      <g id="グループ_4303" data-name="グループ 4303" transform="translate(16.323 0.53) rotate(30)">
        <g id="グループ_4292" data-name="グループ 4292" transform="translate(11.992 14.384)">
          <ellipse id="楕円形_353-2" data-name="楕円形 353" cx="4.352" cy="4.352" rx="4.352" ry="4.352" transform="translate(0 0)" fill="#ffce00"/>
          <ellipse id="楕円形_354" data-name="楕円形 354" cx="3.672" cy="3.672" rx="3.672" ry="3.672" transform="translate(0.206 7.479) rotate(-82.023)" fill="#fff" opacity="0.2"/>
          <g id="グループ_4291" data-name="グループ 4291" transform="translate(2.458 1.98)">
            <path id="パス_69940" data-name="パス 69940" d="M.569,4.322l.4-.855L0,3.009l.179-.38.972.458.207-.44,0-.062L.41,2.139.589,1.76l.749.353L1.263,0l.7.331L1.939,2.266,3.434,1.022l.658.31L2.415,2.62l.734.346-.179.379-.926-.436-.079.062-.193.41.966.455-.179.38L1.594,3.76l-.4.855Z" transform="translate(0 0)" fill="#8e7406"/>
          </g>
        </g>
        <g id="グループ_4294" data-name="グループ 4294" transform="translate(21.753 17.939)">
          <circle id="楕円形_355" data-name="楕円形 355" cx="4.061" cy="4.061" r="4.061" transform="translate(0 5.744) rotate(-45)" fill="#ffce00"/>
          <circle id="楕円形_356" data-name="楕円形 356" cx="3.426" cy="3.426" r="3.426" transform="translate(0.898 5.744) rotate(-45)" fill="#fff" opacity="0.2"/>
          <g id="グループ_4293" data-name="グループ 4293" transform="translate(3.603 3.513)">
            <path id="パス_69941" data-name="パス 69941" d="M2.895,4.3l-.428-.771-.876.487L1.4,3.671l.876-.487-.22-.4-.048-.033-.853.473-.19-.342.675-.375L0,1.416l.634-.352,1.45,1.075L1.957.329,2.551,0l.062,1.971L3.274,1.6l.19.342-.835.463,0,.094.205.37.871-.484.19.342-.872.484.428.771Z" transform="translate(0 0)" fill="#8e7406"/>
          </g>
        </g>
        <g id="グループ_4296" data-name="グループ 4296" transform="translate(16 17.02)">
          <circle id="楕円形_357" data-name="楕円形 357" cx="4.061" cy="4.061" r="4.061" transform="translate(0 5.744) rotate(-45)" fill="#ffce00"/>
          <circle id="楕円形_358" data-name="楕円形 358" cx="3.426" cy="3.426" r="3.426" transform="translate(0.898 5.744) rotate(-45)" fill="#fff" opacity="0.2"/>
          <g id="グループ_4295" data-name="グループ 4295" transform="translate(3.603 3.513)">
            <path id="パス_69942" data-name="パス 69942" d="M2.9,4.3l-.428-.771-.876.487L1.4,3.671l.876-.486-.22-.4-.048-.033-.853.474-.19-.342.675-.375L0,1.416l.634-.352,1.45,1.075L1.958.329,2.551,0l.062,1.971L3.274,1.6l.19.343-.835.463,0,.093.205.37.872-.484.19.343-.872.483.428.771Z" transform="translate(0 0)" fill="#8e7406"/>
          </g>
        </g>
        <g id="グループ_4298" data-name="グループ 4298" transform="translate(16 0)">
          <circle id="楕円形_359" data-name="楕円形 359" cx="6.342" cy="6.342" r="6.342" transform="translate(0 8.97) rotate(-45)" fill="#ffce00"/>
          <ellipse id="楕円形_360" data-name="楕円形 360" cx="5.351" cy="5.351" rx="5.351" ry="5.351" transform="translate(3.619 3.619)" fill="#fff" opacity="0.2"/>
          <g id="グループ_4297" data-name="グループ 4297" transform="translate(6.362 5.671)">
            <path id="パス_69943" data-name="パス 69943" d="M1.083,6.377l.411-1.315L0,4.6l.182-.583,1.494.466L1.887,3.8l-.014-.09L.418,3.258.6,2.675l1.152.36L1.222,0,2.3.338l.347,2.8L4.56,1.042l1.011.316L3.409,3.552,4.537,3.9l-.182.584L2.931,4.043l-.1.105-.2.63,1.486.464-.182.583L2.451,5.362,2.04,6.676Z" transform="translate(0 0)" fill="#8e7406"/>
          </g>
        </g>
        <g id="グループ_4300" data-name="グループ 4300" transform="translate(0 13.742)">
          <circle id="楕円形_361" data-name="楕円形 361" cx="6.134" cy="6.134" r="6.134" transform="translate(0 8.675) rotate(-45)" fill="#ffce00"/>
          <circle id="楕円形_362" data-name="楕円形 362" cx="5.175" cy="5.175" r="5.175" transform="translate(1.356 8.675) rotate(-45)" fill="#fff" opacity="0.2"/>
          <g id="グループ_4299" data-name="グループ 4299" transform="translate(6.391 5.985)">
            <path id="パス_69944" data-name="パス 69944" d="M1.834,5.983,1.806,4.651.293,4.682.28,4.091l1.513-.032-.014-.686L1.738,3.3.265,3.327.252,2.736l1.166-.024L0,.092,1.1.069,2.274,2.528,3.381.021,4.405,0,3.1,2.677,4.24,2.653l.012.591-1.442.03L2.75,3.4l.013.638,1.505-.031L4.28,4.6l-1.505.031L2.8,5.962Z" transform="translate(0 0)" fill="#8e7406"/>
          </g>
        </g>
        <g id="グループ_4302" data-name="グループ 4302" transform="translate(9.73 19.476)">
          <ellipse id="楕円形_363" data-name="楕円形 363" cx="5.519" cy="5.519" rx="5.519" ry="5.519" transform="translate(1.066 1.066)" fill="#ffce00"/>
          <circle id="楕円形_364" data-name="楕円形 364" cx="4.656" cy="4.656" r="4.656" transform="translate(0 6.585) rotate(-45)" fill="#fff" opacity="0.2"/>
          <g id="グループ_4301" data-name="グループ 4301" transform="translate(4.17 3.565)">
            <path id="パス_69945" data-name="パス 69945" d="M.7,5.466,1.223,4.39,0,3.79l.234-.477,1.223.6.272-.554V3.279L.537,2.695l.234-.477.942.462L1.661,0l.885.434L2.473,2.886,4.392,1.339l.828.405-2.15,1.6.923.453-.234.477L2.594,3.7l-.1.076L2.24,4.3l1.216.6-.234.477-1.216-.6L1.478,5.85Z" transform="translate(0 0)" fill="#8e7406"/>
          </g>
        </g>
        <path id="パス_69946" data-name="パス 69946" d="M0,2.359C1.054,1.839,1.366,1.418,1.752,0c.386,1.418.7,1.839,1.752,2.359-1.054.519-1.366.94-1.752,2.359C1.366,3.3,1.054,2.878,0,2.359" transform="translate(12.77 13.828) rotate(-178)" fill="#ffc449"/>
        <path id="パス_69947" data-name="パス 69947" d="M0,4.026C1.8,3.14,2.332,2.421,2.99,0c.658,2.421,1.192,3.14,2.99,4.026-1.8.886-2.332,1.6-2.99,4.025C2.332,5.63,1.8,4.912,0,4.026" transform="translate(11.749 11.261) rotate(-178)" fill="#ffc449"/>
        <path id="パス_69948" data-name="パス 69948" d="M0,1.573C1.127,1.444,1.548,1.164,2.36,0a2.769,2.769,0,0,0,.824,2.714c-1.127.129-1.548.41-2.359,1.573A2.768,2.768,0,0,0,0,1.573" transform="matrix(-0.934, 0.358, -0.358, -0.934, 36.194, 20.907)" fill="#ffc449"/>
      </g>
    </g>
  </g>
</svg>
