<svg xmlns="http://www.w3.org/2000/svg" xmlns:xlink="http://www.w3.org/1999/xlink" width="140" height="140" viewBox="0 0 140 140">
  <defs>
    <clipPath id="clip-path">
      <circle id="楕円形_376" data-name="楕円形 376" cx="70" cy="70" r="70" transform="translate(0 0.477)" fill="#f7f3e5"/>
    </clipPath>
  </defs>
  <g id="recommend_obj14" transform="translate(0 -0.477)">
    <circle id="楕円形_23" data-name="楕円形 23" cx="70" cy="70" r="70" transform="translate(0 0.477)" fill="#f7f3e5"/>
    <g id="マスクグループ_48" data-name="マスクグループ 48" clip-path="url(#clip-path)">
      <g id="グループ_3918" data-name="グループ 3918" transform="translate(-392.887 -46.688)">
        <path id="パス_68997" data-name="パス 68997" d="M696.45,334.664s3.659-1.391,5.108.288c3.449,4,32.36,25.866,32.756,26.113.848.53-5.247,11.237-5.247,11.237l-43.251-11.71Z" transform="translate(-224.794 -214.234)" fill="#3c66ae"/>
        <g id="グループ_3908" data-name="グループ 3908" transform="translate(392.888 67.294)">
          <path id="パス_68998" data-name="パス 68998" d="M416.569,417.459l-15.274-6.7.182,2.376-8.589,25.32,13.147,7.171Z" transform="translate(-392.888 -340.34)" fill="#0e0f0f"/>
          <path id="パス_68999" data-name="パス 68999" d="M517.994,266.569l-23.7,7.82-12.741,85.276s21.055,15.757,40.8,15.1l19-91.007-7.879-10.411Z" transform="translate(-460.932 -229.686)" fill="#3c66ae"/>
          <path id="パス_69000" data-name="パス 69000" d="M467.585,266.569l-23.7,7.82-19.9,70.412-8.12,46.671s14.39,2.752,30.733,6.149Z" transform="translate(-410.524 -229.686)" fill="#3c66ae"/>
          <path id="パス_69001" data-name="パス 69001" d="M590.866,417.165c9.454,1.965,12.776,3.307,20.013,3.064l4.975-65.39,13.3-55.567-11.8-9.849-2.908-1.9Z" transform="translate(-544.817 -245.766)" fill="#3c66ae"/>
          <path id="パス_69002" data-name="パス 69002" d="M576.492,267.051l-1.114,11.469L558.355,381.042s2.041.27,10.826,2.527l22.637-100.884.664-10.4Z" transform="translate(-519.868 -230.056)" fill="#2e2a29"/>
          <path id="パス_69003" data-name="パス 69003" d="M679.765,148.654s-5.127,19.036-6.208,22.442-7.994,5.426-12.184,2.24-7.423-6.414-5.738-14.413a78.89,78.89,0,0,1,4.056-13.539Z" transform="translate(-594.172 -136.688)" fill="#e2a775"/>
          <path id="パス_69004" data-name="パス 69004" d="M645.8,164.5c-.758,1.971.629,4.328,3.1,5.265s5.083.1,5.839-1.874-.634-4.331-3.1-5.267S646.562,162.529,645.8,164.5Z" transform="translate(-586.818 -149.626)" fill="#e2a775"/>
          <path id="パス_69005" data-name="パス 69005" d="M661.537,112.709c1.544-1.742,9-5.847,14.586-4.413a8.737,8.737,0,0,1,4.206,1.974,9.341,9.341,0,0,1,1.986,2.824s.655-2.921.1-3.435a6.7,6.7,0,0,1,2.06,3.035,4.238,4.238,0,0,1-.271,2.732,3.821,3.821,0,0,0,1.685-1.4,5.373,5.373,0,0,1,.21,3.415,7.516,7.516,0,0,1-2.984,4.324,7.165,7.165,0,0,1-4.487.239c-1.014-.285-1.941-.725-2.936-1.046a10.2,10.2,0,0,0-5.222-.393c-2.706.556-4.578,2.684-5.978,5.025-.372.621-2.083,3.679-2.083,3.679l-1.79-.643s2.04-5.49,2-6.455a1.506,1.506,0,0,0-.455-1.039,2.849,2.849,0,0,0-1.162-.264S659.083,115.483,661.537,112.709Z" transform="translate(-598.09 -107.998)" fill="#69452e"/>
          <path id="パス_69006" data-name="パス 69006" d="M662.584,241.927l-2.02,4.819-5.159-.237-7.254-7.121,3.55-5.456Z" transform="translate(-588.778 -204.64)" fill="#e2a775"/>
          <g id="グループ_3904" data-name="グループ 3904" transform="translate(56.809 34.127)">
            <path id="パス_69007" data-name="パス 69007" d="M652.553,261.016l-6.1-.122-6.83-6.175-2.5,2.565,3.074,37.889,12.67-30.2Z" transform="translate(-637.127 -254.719)" fill="#fff"/>
          </g>
          <path id="パス_69008" data-name="パス 69008" d="M699.461,191.669a.3.3,0,0,1,.161-.58l5.606,1.246c-.093-3.685-.28-9.277-.422-9.812a.3.3,0,0,1,.088-.376.3.3,0,0,1,.421.058c.067.091.277.37.522,10.5a.3.3,0,0,1-.109.241.3.3,0,0,1-.256.063l-5.981-1.329Z" transform="translate(-627.997 -164.853)" fill="#0d0002"/>
          <path id="パス_69009" data-name="パス 69009" d="M682.12,189.753a1.461,1.461,0,1,1-.894-1.872A1.464,1.464,0,0,1,682.12,189.753Z" transform="translate(-612.666 -169.239)" fill="#e9706e"/>
          <path id="パス_69010" data-name="パス 69010" d="M681.115,190.583a.275.275,0,0,1-.158-.133c-.15-.281-.616-1.223-.336-1.53a.464.464,0,0,1,.337-.151c.349-.009.76.319,1.27.814.034.033.061.06.081.077l.054.05c-.005-.02-.013-.04-.019-.061-.015-.046-.03-.1-.047-.153-.086-.287-.257-.887-.5-.957a.284.284,0,0,1-.184-.351.28.28,0,0,1,.35-.187c.517.166.733.865.872,1.331l.044.144c.116.366.218.772-.061.951s-.6-.087-.888-.351l-.09-.087a4.21,4.21,0,0,0-.711-.595,5.784,5.784,0,0,0,.324.788.284.284,0,0,1-.116.382A.276.276,0,0,1,681.115,190.583Z" transform="translate(-613.629 -169.383)" fill="#e55a65"/>
          <g id="グループ_3905" data-name="グループ 3905" transform="translate(61.99 40.168)">
            <path id="パス_69011" data-name="パス 69011" d="M659.683,285.3a.337.337,0,0,1-.191-.559L663.1,280.8a.336.336,0,0,1,.5.455l-3.613,3.937A.337.337,0,0,1,659.683,285.3Z" transform="translate(-659.403 -280.694)" fill="#50bef1"/>
          </g>
          <path id="パス_69012" data-name="パス 69012" d="M706.163,126.182a.321.321,0,0,1-.186-.161.328.328,0,0,1,.142-.442q.26-.134.517-.263l.027-.013a.324.324,0,0,1,.437.145.331.331,0,0,1-.146.44l-.027.013c-.169.086-.34.172-.512.261A.326.326,0,0,1,706.163,126.182Zm2.2-1.188a.321.321,0,0,1-.173-.135.331.331,0,0,1,.1-.453,7.128,7.128,0,0,0,.592-.42.324.324,0,0,1,.458.054.329.329,0,0,1-.056.461c-.2.157-.409.307-.645.458A.325.325,0,0,1,708.366,124.994Zm-3.525-5.729a.376.376,0,0,1-.032.075.33.33,0,0,1-.448.119c-.07-.04-.142-.079-.215-.117-.143-.074-.287-.141-.431-.2a.326.326,0,1,1,.253-.6c.159.066.319.141.477.223.083.043.164.086.242.131A.328.328,0,0,1,704.842,119.265Zm-2.535-.655a.324.324,0,0,1-.257.232,1.144,1.144,0,0,0-.537.237.331.331,0,0,1-.462-.047.325.325,0,0,1,.046-.459,1.8,1.8,0,0,1,.835-.372.328.328,0,0,1,.382.263A.32.32,0,0,1,702.306,118.61Z" transform="translate(-629.316 -115.824)" fill="#ab6d39"/>
          <path id="パス_69013" data-name="パス 69013" d="M688.3,137.98a.328.328,0,0,1-.152-.514c.167-.214.336-.416.5-.6a.325.325,0,0,1,.461-.025.33.33,0,0,1,.023.464c-.156.173-.315.364-.474.567A.326.326,0,0,1,688.3,137.98Zm1.9-1.846a.326.326,0,0,1-.167-.126.33.33,0,0,1,.087-.456,7.171,7.171,0,0,1,.678-.414.324.324,0,0,1,.441.134.33.33,0,0,1-.136.444,6.581,6.581,0,0,0-.617.377A.327.327,0,0,1,690.2,136.134Zm2.413-1.07a.325.325,0,0,1-.214-.231.33.33,0,0,1,.238-.4c.244-.063.5-.117.764-.163a.324.324,0,0,1,.375.267.329.329,0,0,1-.266.38c-.247.043-.488.094-.716.152A.319.319,0,0,1,692.613,135.064Z" transform="translate(-619.417 -128.157)" fill="#ab6d39"/>
          <path id="パス_69014" data-name="パス 69014" d="M674.087,129.162a.328.328,0,0,1-.212-.395c.03-.109.062-.219.1-.327.048-.145.1-.292.164-.437a.332.332,0,0,1,.428-.176.328.328,0,0,1,.173.43c-.055.13-.1.26-.147.388q-.048.142-.085.287a.328.328,0,0,1-.4.235Zm1.219-2.351a.328.328,0,0,1-.155-.512c.154-.2.322-.4.5-.6a.325.325,0,0,1,.461-.026.329.329,0,0,1,.025.463c-.168.188-.327.379-.47.567A.328.328,0,0,1,675.306,126.811Zm1.851-1.908a.319.319,0,0,1-.146-.1.329.329,0,0,1,.041-.462c.2-.166.4-.329.6-.486a.324.324,0,0,1,.457.061.33.33,0,0,1-.064.46c-.2.151-.392.307-.58.467A.324.324,0,0,1,677.157,124.9Z" transform="translate(-608.511 -120.115)" fill="#ab6d39"/>
          <path id="パス_69015" data-name="パス 69015" d="M668.453,248.428l-.019,0a21.787,21.787,0,0,1-3.9-1.374c-2.616-1.132-4.252-5.185-4.32-5.357a.3.3,0,0,1,.167-.393.3.3,0,0,1,.389.167c.016.04,1.614,3.994,4,5.028a21.689,21.689,0,0,0,3.778,1.336.3.3,0,0,1-.1.595Z" transform="translate(-598.02 -210.279)" fill="#d4756a"/>
          <path id="パス_69016" data-name="パス 69016" d="M441.983,445.373,470.684,459s.056,1.921-2.174,1.542-19.238,32.228-19.238,32.228l-18.751-11.155-7.731-19.907Z" transform="translate(-415.835 -366.901)" fill="#0e0f0f"/>
          <path id="パス_69017" data-name="パス 69017" d="M421.468,574.9l2.164,4.313s32.716,21.529,33.158,21.452,3.865-10.331,3.865-10.331l-27.606-20.591Z" transform="translate(-414.82 -462.346)" fill="#3c66ae"/>
          <path id="パス_69018" data-name="パス 69018" d="M525.788,329.812l-2.316-.975a168.581,168.581,0,0,0,7.194-21.521c3.017-12.277-1.134-18.943-1.176-19.009l2.115-1.357c.2.306,4.774,7.651,1.5,20.965A171.264,171.264,0,0,1,525.788,329.812Z" transform="translate(-493.099 -245.327)" fill="#0e0f0f"/>
          <path id="パス_69019" data-name="パス 69019" d="M546.271,327.991l-2.4-.747c.043-.137,4.283-13.831,5.691-24.559,1.647-12.535-3.214-18.7-3.263-18.763l1.953-1.582c.229.283,5.587,7.078,3.8,20.672C550.618,313.958,546.315,327.852,546.271,327.991Z" transform="translate(-508.754 -241.789)" fill="#0e0f0f"/>
          <g id="グループ_3906" data-name="グループ 3906" transform="translate(22.735 83.447)">
            <rect id="長方形_27728" data-name="長方形 27728" width="0.754" height="0.503" transform="translate(0 0.664) rotate(-61.692)" fill="#497d95"/>
            <path id="パス_69020" data-name="パス 69020" d="M515.827,481l-.921-.5.357-.664.921.5Zm-1.841-.992-.921-.5.357-.664.921.5Zm-1.841-.992-.921-.5.358-.664.921.5Zm-1.842-.992-.921-.5.357-.664.921.5Zm-1.841-.992-.921-.5.357-.664.921.5Zm-1.841-.992-.921-.5.358-.664.921.5Zm-1.841-.992-.921-.5.358-.664.921.5Zm-1.842-.992-.92-.5.357-.664.921.5Zm-1.841-.992-.921-.5.358-.664.921.5Zm-1.841-.992-.921-.5.358-.664.921.5Zm-1.841-.992-.921-.5.358-.664.921.5Z" transform="translate(-495.129 -469.185)" fill="#497d95"/>
            <rect id="長方形_27729" data-name="長方形 27729" width="0.754" height="0.503" transform="matrix(0.474, -0.88, 0.88, 0.474, 21.619, 12.311)" fill="#497d95"/>
          </g>
          <path id="パス_69021" data-name="パス 69021" d="M639.375,267.2a.384.384,0,0,1-.282-.211l-4.042-8.322a.385.385,0,0,1,.074-.441l2.529-2.531a.385.385,0,0,1,.545.545l-2.335,2.337,3.922,8.075a.385.385,0,0,1-.411.548Z" transform="translate(-578.695 -221.253)" fill="#50bef1"/>
          <path id="パス_69022" data-name="パス 69022" d="M599.771,251.789l-2.786-.474-7.8,10.659,5.265,4.281-6.975,2.723s-4.545,22.154-1.9,28.074,3.989,7.191,3.989,7.191Z" transform="translate(-540.118 -217.98)" fill="#2b497f"/>
          <path id="パス_69023" data-name="パス 69023" d="M671.175,282.038l2.845,1.528,3.236,12.807-6.486,1.995,5.445,5.14s-4.093,22.241-8.762,26.739-6.12,5.59-6.12,5.59Z" transform="translate(-598.894 -241.557)" fill="#2b497f"/>
          <path id="パス_69024" data-name="パス 69024" d="M652.274,283.209l-3.712,3.642.564,3.62-4.572,10.872,1.347,15.693,5.92-13.867-1.314-12.158,2.161-3.161Z" transform="translate(-586.017 -242.456)" fill="#71b16c"/>
          <g id="グループ_3907" data-name="グループ 3907" transform="translate(65.801 40.218)">
            <path id="パス_69025" data-name="パス 69025" d="M676.741,286.645a.335.335,0,0,1-.316-.307,42.639,42.639,0,0,0-.593-4.928.332.332,0,0,1,.123-.456.342.342,0,0,1,.463.125,35.013,35.013,0,0,1,.677,5.2.337.337,0,0,1-.307.364A.3.3,0,0,1,676.741,286.645Z" transform="translate(-675.787 -280.909)" fill="#50bef1"/>
          </g>
          <path id="パス_69026" data-name="パス 69026" d="M432.129,299.578s-8.452.688-10.008,2.719c-2.676,3.493-22.3,52.99-22.3,52.99l14.566,12.733,18.93-46.56Z" transform="translate(-398.211 -255.017)" fill="#3c66ae"/>
          <path id="パス_69027" data-name="パス 69027" d="M521.242,337.7a.341.341,0,0,1-.095-.03.336.336,0,0,1-.15-.451,75.151,75.151,0,0,0,4.7-14.366c2.236-9.287.577-12.139.56-12.167a.338.338,0,0,1,.107-.462.334.334,0,0,1,.461.1c.077.119,1.849,3.038-.474,12.685a75.775,75.775,0,0,1-4.754,14.51A.337.337,0,0,1,521.242,337.7Z" transform="translate(-491.172 -263.146)" fill="#2b497f"/>
        </g>
        <path id="パス_69028" data-name="パス 69028" d="M589.986,663.5l-8.757-2.815-2.5,6.567s3.455,2.533,7.208.813S589.986,663.5,589.986,663.5Z" transform="translate(-142.614 -464.843)" fill="#ec8275"/>
        <path id="パス_69029" data-name="パス 69029" d="M611.772,671.4a10.723,10.723,0,0,1,.578,1.8c.177.817.463,2.024-.36,2.622a6.655,6.655,0,0,1-1.8.168,2.608,2.608,0,0,1-1.07,1.438c-.666.474-1.2.126-1.654-.557-.292.457-.62,1.293-1.242,1.366-.652.078-1.2-.791-1.676-1.073-.535.514-.984,1.187-1.743,1.327a3.768,3.768,0,0,1-2.035-.359,1.388,1.388,0,0,1-.87-1.421c.107-.613.772-.644.97-1.079.146-.321-.093-.747-.237-1.058-.381-.827-.791-2.477-1.718-2.638a2.833,2.833,0,0,0-1.075.153,6.617,6.617,0,0,1-1.639.048c-1.4-.044-3.3-.062-4.35-1.111a13.105,13.105,0,0,1,1.441-.432,12.248,12.248,0,0,0,3.474-1.464c.3-.2.607-.586.931-.678s.664.209.95.157c.654-.118.553-1.148,1.328-1.337.66-.161,1.241.323,1.861.2.469-.1.863-.585,1.276-.806,1.035-.555,1.629,0,2.68.155.851.129,1.2-.827,1.975-.816.926.014,1.561,1.153,2,1.8A20.138,20.138,0,0,1,611.772,671.4Z" transform="translate(-152.682 -468.92)" fill="#ec8275"/>
        <path id="パス_69030" data-name="パス 69030" d="M641.474,688.322a.342.342,0,0,1-.328-.247l-1.616-5.567a.342.342,0,0,1,.656-.191l1.617,5.567a.342.342,0,0,1-.329.437Z" transform="translate(-189.264 -481.251)" fill="#c46961"/>
        <path id="パス_69031" data-name="パス 69031" d="M651.9,684.075a.341.341,0,0,1-.327-.247l-1.616-5.566a.342.342,0,1,1,.656-.191l1.616,5.567a.342.342,0,0,1-.233.424A.347.347,0,0,1,651.9,684.075Z" transform="translate(-197.262 -477.992)" fill="#c46961"/>
        <path id="パス_69032" data-name="パス 69032" d="M663.864,682.531a.342.342,0,0,1-.328-.246l-1.616-5.567a.342.342,0,1,1,.656-.191l1.616,5.567a.343.343,0,0,1-.233.424A.359.359,0,0,1,663.864,682.531Z" transform="translate(-206.446 -476.807)" fill="#c46961"/>
        <path id="パス_69033" data-name="パス 69033" d="M397.232,536.9s-2.39,3.585.149,10.01,14.193,11.055,14.193,11.055l2.689-14.641Z" transform="translate(-2.552 -369.846)" fill="#3c66ae"/>
        <path id="パス_69034" data-name="パス 69034" d="M479.474,639.82a.354.354,0,0,1-.194-.058l-25.863-16.871a.355.355,0,0,1,.388-.6l25.863,16.871a.355.355,0,0,1-.195.653Z" transform="translate(-46.327 -435.334)" fill="#2b497f"/>
        <path id="パス_69041" data-name="パス 69041" d="M703.974,164.374a3,3,0,0,1-1.82-.116,1.925,1.925,0,0,1-1.822.27l-.076-.018h-.008a.273.273,0,0,1-.3-.241.283.283,0,0,1,.092-.24c.118-.1.244-.074.419-.033a1.656,1.656,0,0,0,1.164-.013,1.014,1.014,0,0,1-.133-.118.694.694,0,0,1,.026-1.006c.345-.387.611-.315.739-.239.356.213.3.855.194,1.151l0,.012a2.377,2.377,0,0,0,1.365.066.273.273,0,0,1,.336.43A.694.694,0,0,1,703.974,164.374Zm-2-1.208c-.016.015-.034.034-.055.057-.139.156-.088.211-.034.269a.563.563,0,0,0,.06.056A.969.969,0,0,0,701.976,163.166Z" transform="translate(-235.637 -82.576)" fill="#0d0002"/>
        <path id="パス_69042" data-name="パス 69042" d="M479.471,100.316c-.534,1.283-2.791,2.386-5.137,2.51a5.185,5.185,0,0,1-5.106-2.44,6.006,6.006,0,0,1-.422-3.841,8.421,8.421,0,0,1-3.944.4,6.237,6.237,0,0,1-3.756-2.094c-5.384,1.786-14.477,2.966-19.1-2.544-3.28-3.912-3.6-9.973-.9-17.066,3.862-10.149,12.7-19.243,19.711-20.273a.576.576,0,0,1,.655.487.583.583,0,0,1-.486.655c-6.638.976-15.071,9.742-18.8,19.541-2.544,6.684-2.293,12.335.707,15.914,3.658,4.362,11.338,4.278,17.484,2.313a10.209,10.209,0,0,1-.952-1.941C457.349,86.363,463.565,76.7,469.5,74.1c3.242-1.42,5.974-.514,7.495,2.488a6.29,6.29,0,0,1,.136,5.3c-2.159,5.583-10.794,10.955-14.845,12.537a5.016,5.016,0,0,0,2.756,1.377,7.731,7.731,0,0,0,4.092-.593,8.44,8.44,0,0,1,1.917-3.332,3.2,3.2,0,0,1,4.04-.735.577.577,0,0,1,.17.865,14.777,14.777,0,0,1-5.167,4.029,5.556,5.556,0,0,0,.143,3.8,4.147,4.147,0,0,0,4.033,1.842c1.979-.1,3.814-1.036,4.132-1.8a.353.353,0,0,0-.083-.426.577.577,0,1,1,.861-.768,1.491,1.491,0,0,1,.288,1.638Zm-18.962-8.787a8.929,8.929,0,0,0,.995,1.957l.259-.1c3.342-1.272,12.2-6.508,14.294-11.917a5.177,5.177,0,0,0-.089-4.363c-1.259-2.488-3.278-3.145-6-1.952-4.791,2.1-9.978,9.434-9.8,14.538A5.836,5.836,0,0,0,460.509,91.529Zm13.328.368a2.266,2.266,0,0,0-1.97.8,6.245,6.245,0,0,0-1.2,1.753A13.9,13.9,0,0,0,473.837,91.9Z" transform="translate(-35.612)" fill="#0d0002"/>
        <g id="グループ_3912" data-name="グループ 3912" transform="translate(435.488 123.572)">
          <path id="パス_69043" data-name="パス 69043" d="M596.619,359.482a7.106,7.106,0,0,0,2.529,1.156c1.219.247,2.454.655,3.7.872,1.666.292,3.537.111,5.158.626a21.6,21.6,0,0,1-.724,2.426c-.23,1.014-.386,2.058-.529,3.084-.072.514-.06,2.061-.4,2.45-1.007,1.169-3.868-.394-4.846-.983-1.885-1.133-4.186-1.483-6.2-2.385a2.2,2.2,0,0,0-2-.2c-.8.307-1.39,1.1-2.336.907a17.415,17.415,0,0,0-4.948-.609,16.173,16.173,0,0,0-5.526,1.648c-1.355.584-2.207.55-1.845-1.163.287-1.355,1.72-2.092,3.078-2.526a4.048,4.048,0,0,0,1.677-.84c.55-.7-1.236-2.243-1.642-2.634a7.685,7.685,0,0,0-2.865-1.98c-.021.068-.016.162-.071.215-.839.807,1.254,2.661,1.465,3.518.177.717,0,1.494-.825,1.424-.676-.057-1.2-.99-1.63-1.461-1.036-1.138-1.8-1.741-1.8-3.405a1.5,1.5,0,0,1,.73-1.513c1.643-1.14.069-1.359.692-2.771.377-.854,1.688-.628,2.4-.955.065-.853-.631-1.381.075-2.021.555-.5,1.738,0,2.412-.208-.4-.921-.141-1.91.874-2.118,3.136-.644,5.017,2.372,7.023,4.126,1.258,1.1,2.56,2.149,3.812,3.235A27.9,27.9,0,0,0,596.619,359.482Z" transform="translate(-576.041 -349.953)" fill="#e2a775"/>
        </g>
        <path id="パス_69044" data-name="パス 69044" d="M686.572,395.631l-2.793,8.6s38.768,17.783,43.732,16.664,8.849-3.756,7.6-7.753-2.151-4.823-3.417-5.678S686.572,395.631,686.572,395.631Z" transform="translate(-223.231 -261.435)" fill="#3c66ae"/>
        <path id="パス_69045" data-name="パス 69045" d="M769.205,412.749a.39.39,0,0,1,0,.151.377.377,0,0,1-.44.3l-26.055-6.656a.377.377,0,1,1,.138-.741l26.055,6.656A.377.377,0,0,1,769.205,412.749Z" transform="translate(-268.222 -269.237)" fill="#2b497f"/>
        <path id="パス_69046" data-name="パス 69046" d="M700.613,185.2a1.112,1.112,0,0,0,.727,1.346,1.014,1.014,0,0,0,1.261-.761,1.111,1.111,0,0,0-.733-1.342A1.014,1.014,0,0,0,700.613,185.2Z" transform="translate(-236.123 -99.341)" fill="#0d0002"/>
        <path id="パス_69047" data-name="パス 69047" d="M734.13,191.038a1.112,1.112,0,0,0,.727,1.346,1.013,1.013,0,0,0,1.261-.761,1.112,1.112,0,0,0-.733-1.343A1.014,1.014,0,0,0,734.13,191.038Z" transform="translate(-261.844 -103.818)" fill="#0d0002"/>
        <path id="パス_69048" data-name="パス 69048" d="M682.08,241.017h-.019a.372.372,0,0,1-.353-.39,2.534,2.534,0,0,0-1.812-2.771,3.113,3.113,0,0,0-3.046,1.3.372.372,0,1,1-.587-.458,3.854,3.854,0,0,1,3.8-1.567,3.3,3.3,0,0,1,2.387,3.533A.372.372,0,0,1,682.08,241.017Z" transform="translate(-217.404 -139.74)" fill="#c1143a"/>
        <path id="パス_69049" data-name="パス 69049" d="M609.4,364.564a1.417,1.417,0,0,1-.438-.079c-.488-.16-.949-.848-1.5-1.733-.154-.247-.288-.46-.388-.589-.228-.294-.362-.457-.576-.718-.227-.277-.545-.664-1.16-1.434a.233.233,0,1,1,.363-.29c.614.767.93,1.153,1.157,1.429s.352.429.584.728c.114.147.253.37.414.628.353.565.886,1.417,1.252,1.537.256.083.424.073.5-.033.46-.663-.965-3.819-1.348-4.3a.233.233,0,0,1,.364-.291c.315.395,2.061,3.852,1.367,4.853A.672.672,0,0,1,609.4,364.564Z" transform="translate(-162.998 -233.581)" fill="#cb6362"/>
        <path id="パス_69050" data-name="パス 69050" d="M601.5,374.632a7.5,7.5,0,0,1-2.805-1c-.156-.078-.289-.146-.392-.194a7.1,7.1,0,0,1-3.6-3.351.233.233,0,0,1,.4-.235,6.624,6.624,0,0,0,3.4,3.164c.106.05.245.119.4.2.758.382,2.333,1.177,2.911.891a.355.355,0,0,0,.191-.287c.139-.766-.782-1.386-1.522-1.883-.179-.12-.349-.234-.49-.342-.092-.07-.2-.148-.313-.229a6.4,6.4,0,0,1-.815-.653,2.72,2.72,0,0,1-.511-.822,4.117,4.117,0,0,0-.283-.544.233.233,0,0,1,.391-.251,4.541,4.541,0,0,1,.315.6,2.269,2.269,0,0,0,.425.694,6.152,6.152,0,0,0,.751.6c.117.084.228.164.323.237.13.1.294.209.467.325.808.543,1.914,1.286,1.721,2.352a.822.822,0,0,1-.441.62A1.164,1.164,0,0,1,601.5,374.632Z" transform="translate(-154.848 -240.989)" fill="#cb6362"/>
        <path id="パス_69051" data-name="パス 69051" d="M593.964,387.937a13.517,13.517,0,0,1-4.056-.882,8.456,8.456,0,0,1-3.243-3.171.233.233,0,1,1,.386-.259,8.035,8.035,0,0,0,3.044,3c1.072.47,4.089,1.19,4.765.661.3-.234.3-.428.27-.553-.14-.639-1.449-1.333-1.964-1.454a3.637,3.637,0,0,0-.629-.073,3.259,3.259,0,0,1-.9-.142,3.963,3.963,0,0,1-1.5-1.089c-.141-.142-.287-.29-.438-.425a.233.233,0,0,1,.311-.346c.161.144.311.3.457.443a3.551,3.551,0,0,0,1.32.977,2.858,2.858,0,0,0,.78.117,4.058,4.058,0,0,1,.708.085c.556.132,2.11.887,2.311,1.807a.979.979,0,0,1-.438,1.019A1.975,1.975,0,0,1,593.964,387.937Z" transform="translate(-148.675 -251.856)" fill="#cb6362"/>
        <path id="パス_69052" data-name="パス 69052" d="M633.7,384.459a.234.234,0,0,1-.053-.006,7.9,7.9,0,0,1-4.211-3.9.233.233,0,1,1,.444-.138A7.416,7.416,0,0,0,633.751,384a.233.233,0,0,1-.053.459Z" transform="translate(-181.519 -249.632)" fill="#cb6362"/>
        <path id="パス_69053" data-name="パス 69053" d="M667.154,394.842l-2.62,7.036,2.245.748,2.47-7.111-1.871-.749Z" transform="translate(-208.463 -260.772)" fill="#b7b1b5"/>
        <g id="グループ_3917" data-name="グループ 3917" transform="translate(485.916 92.861)">
          <path id="パス_69054" data-name="パス 69054" d="M846.824,251.939c2.953,1.15,6.413,2.772,9.38.59-7.869-5.7,7.152-23.291,16.1-12.62,6.562-13.1,29.124,9.561,16.663,17.037,10.977,3.724,4.7,24.06-13.065,17.212.077,8.832-19.808,5.44-15.434-6.487-1.18,3.219-6.394.871-8.63-2.328-2.25-3.22.736-8.294,3.2-7.345C852.382,256.974,848.463,254.462,846.824,251.939Z" transform="translate(-846.824 -235.913)" fill="#4c8fc4"/>
          <g id="グループ_3916" data-name="グループ 3916" transform="translate(15.746 6.649)">
            <g id="グループ_3914" data-name="グループ 3914" transform="translate(0 0)">
              <g id="グループ_3913" data-name="グループ 3913" transform="translate(2.086 1.58)">
                <path id="パス_69055" data-name="パス 69055" d="M967.945,303.722c-1.922-2.588-1.947-3.172-1.665-3.981.308-.8.7-1.229,3.845-1.96,3.263-.759,3.775-7.964,3.775-7.964l-5.091-1.579-4.9-2.089s-4.269,5.826-2.272,8.516c1.922,2.588,1.947,3.172,1.664,3.981-.307.8-.7,1.229-3.844,1.96-3.263.76-3.775,7.964-3.775,7.964l5.091,1.579,4.9,2.089S969.943,306.411,967.945,303.722Z" transform="translate(-955.678 -286.149)" fill="#fff"/>
              </g>
              <rect id="長方形_27730" data-name="長方形 27730" width="3.023" height="14.246" transform="matrix(0.344, -0.939, 0.939, 0.344, 7.935, 2.838)" fill="#8c4a00"/>
              <rect id="長方形_27731" data-name="長方形 27731" width="3.023" height="14.246" transform="translate(0 24.46) rotate(-69.85)" fill="#8c4a00"/>
            </g>
            <g id="グループ_3915" data-name="グループ 3915" transform="translate(3.508 7.909)">
              <path id="パス_69056" data-name="パス 69056" d="M981.55,329.007a3.286,3.286,0,0,0-1.275-.672c-1-.441-2.007-.86-3.008-1.3-.515-.225-3.17-1.909-3.5-1.015a4.64,4.64,0,0,0,.858,3.06,3.1,3.1,0,0,1,1.18,3.052c-.188.73-.435,1.463-.672,2.18-.3.9-.922,1.411-1.16,2.333-.619,2.4-2.273,3.333-4.619,3.533,1.23.542,2.635.708,3.911,1.177.776.285,1.582.531,2.341.858.412.177.947.681,1.414.509a3.088,3.088,0,0,0-1.339-2.206,3.288,3.288,0,0,1-1.125-2.377,14.023,14.023,0,0,1,1.056-4.609c.182-.566.629-.715,1.059-1.144.6-.6,1.349-1.3,2.18-1.244.871.064,3.431-1.586,2.547-2.067Z" transform="translate(-968.535 -325.604)" fill="#ea7d85"/>
              <path id="パス_69057" data-name="パス 69057" d="M1004.794,328.448c-.591.689-1.744-.372-2.41-.418-.889-.062-1.7.412-2.54-.125a9.854,9.854,0,0,1-1.56-1.438c-.264-.283-.471-.813-.794-1.024-.256-.167-1-.312-.243-.609.841-.328,2.6,1.118,3.294,1.446a12.772,12.772,0,0,0,1.852.71,16.519,16.519,0,0,1,1.9.417C1004.625,327.548,1005.163,328.016,1004.794,328.448Z" transform="translate(-991.582 -324.785)" fill="#ea736d"/>
              <path id="パス_69058" data-name="パス 69058" d="M964.364,399.25c.058-.818,1.862-.892,2.427-.946.832-.078,2.822-.055,2.709-1.386a4.763,4.763,0,0,1-1.02,2.952c-.48.385-1.636.089-2.178.014C965.86,399.823,964.325,399.806,964.364,399.25Z" transform="translate(-964.364 -385.102)" fill="#ea736d"/>
            </g>
          </g>
          <path id="パス_69059" data-name="パス 69059" d="M925.3,311.109l-4.7-8.179-3.151,4.653Z" transform="translate(-905.88 -291.952)" fill="#8cc4f0"/>
          <path id="パス_69060" data-name="パス 69060" d="M911.552,353.526l-9.237-1.914,1.388,5.446Z" transform="translate(-893.225 -332.659)" fill="#8cc4f0"/>
          <path id="パス_69061" data-name="パス 69061" d="M1042.969,364.172l7.9-2.783-.574,4.958Z" transform="translate(-1010.838 -340.834)" fill="#8cc4f0"/>
          <path id="パス_69062" data-name="パス 69062" d="M1044.12,387.6l6.805,4.887-4.395,2.367Z" transform="translate(-1011.801 -362.754)" fill="#8cc4f0"/>
        </g>
        <path id="パス_69063" data-name="パス 69063" d="M679.313,301.406a.465.465,0,0,1-.2-.885l3.955-1.888a.465.465,0,0,1,.4.84l-3.955,1.887A.464.464,0,0,1,679.313,301.406Z" transform="translate(-219.447 -186.964)" fill="#50bef1"/>
        <path id="パス_69064" data-name="パス 69064" d="M738.823,356.4a.349.349,0,0,1-.34-.427l2.966-12.943a.349.349,0,1,1,.68.156l-2.966,12.943A.349.349,0,0,1,738.823,356.4Z" transform="translate(-265.204 -220.858)" fill="#2b497f"/>
      </g>
    </g>
  </g>
</svg>
