<svg xmlns="http://www.w3.org/2000/svg" width="140" height="140" viewBox="0 0 140 140"><g transform="translate(0 -0.477)"><circle cx="70" cy="70" r="70" transform="translate(0 0.477)" fill="#f7f3e5"/><g transform="translate(72.755 57.801)"><g transform="translate(-0.001 -0.001)"><path d="M181.175,1146.746v-46.154a.909.909,0,0,1,.909-.909h0a.909.909,0,0,1,.909.909v46.154a.909.909,0,0,1-.909.909h0A.909.909,0,0,1,181.175,1146.746Z" transform="translate(-175.457 -1097.383)" fill="#928171"/><path d="M687.123,1146.746v-46.154a.909.909,0,0,1,.909-.909h0a.909.909,0,0,1,.909.909v46.154a.909.909,0,0,1-.909.909h0A.909.909,0,0,1,687.123,1146.746Z" transform="translate(-647.284 -1097.383)" fill="#928171"/><rect width="41.884" height="43.702" transform="translate(2.613 3.844)" fill="#6d4f3d"/><g transform="translate(0.247 0)"><g transform="translate(0 0)"><path d="M141.112,1065.571H105.7l-5.662,3.114H146.9Z" transform="translate(-100.039 -1065.571)" fill="#e9d9cb"/></g></g><g transform="translate(3.588 4.975)"><rect width="19.997" height="10.149" transform="translate(0 0.004)" fill="#bea790"/><path d="M267.9,1139.356l.5.737h3.017l.527-.746Z" transform="translate(-259.924 -1139.347)" fill="#0d0f11"/></g><g transform="translate(23.932 4.975)"><rect width="19.996" height="10.149" transform="translate(0 0.004)" fill="#bea790"/><path d="M569.567,1139.356l.495.737h3.017l.526-.746Z" transform="translate(-561.588 -1139.347)" fill="#0d0f11"/></g><g transform="translate(3.588 15.583)"><path d="M169.583,1296.643h-20v10.149h40.332v-10.149Z" transform="translate(-149.587 -1296.643)" fill="#bea790"/><path d="M418.675,1296.652l.495.738h3.017l.526-.746Z" transform="translate(-400.528 -1296.643)" fill="#0d0f11"/></g><g transform="translate(3.588 26.149)"><path d="M169.583,1453.315h-20v10.149h40.332v-10.149Z" transform="translate(-149.587 -1453.315)" fill="#bea790"/><path d="M418.675,1453.323l.495.738h3.017l.526-.746Z" transform="translate(-400.528 -1453.315)" fill="#0d0f11"/></g><g transform="translate(3.03 36.715)"><path d="M169.583,1609.983h-20v10.149h40.332v-10.149Z" transform="translate(-149.029 -1609.983)" fill="#bea790"/><path d="M161.809,1765.387h-20.5v.8H182.66v-.8Z" transform="translate(-141.307 -1754.907)" fill="#bea790"/><path d="M418.675,1609.992l.495.737h3.017l.526-.746Z" transform="translate(-399.97 -1609.983)" fill="#0d0f11"/></g><path d="M143.152,1111.431h-46.4a.372.372,0,0,0-.371.372v.815a.372.372,0,0,0,.371.372h46.4a.371.371,0,0,0,.371-.372v-.815A.371.371,0,0,0,143.152,1111.431Z" transform="translate(-96.383 -1108.339)" fill="#bea790"/><path d="M.909,0H47.062a.909.909,0,0,1,.909.909v0a.909.909,0,0,1-.909.909H.909A.909.909,0,0,1,0,.909v0A.909.909,0,0,1,.909,0Z" transform="translate(3.219 4.194) rotate(90)" fill="#bea790"/><path d="M752.819,1174.825v-46.154a.909.909,0,0,1,.909-.909h0a.909.909,0,0,1,.909.909v46.154a.909.909,0,0,1-.909.909h0A.909.909,0,0,1,752.819,1174.825Z" transform="translate(-708.55 -1123.569)" fill="#bea790"/></g></g><g transform="translate(22.957 34.272)"><g transform="translate(0 0)"><rect width="41.693" height="3.088" transform="translate(2.91 69.167)" fill="#e5dfdc"/><rect width="47.14" height="66.638" transform="translate(0 4.568)" fill="#a0cfed"/><path d="M2581.3,1405.629h-47.14l3.362-4.568h39.956Z" transform="translate(-2534.163 -1401.06)" fill="#bae1fa"/></g><g transform="translate(5.361 8.646)"><path d="M2578.283,1479.263a18.209,18.209,0,1,1,18.209-18.209A18.23,18.23,0,0,1,2578.283,1479.263Z" transform="translate(-2560.074 -1442.845)" fill="#403d42"/></g><rect width="11.324" height="16.214" transform="translate(31.93 51.666)" fill="#cddce6"/><rect width="46.502" height="1.25" transform="translate(0.319 49)" fill="#d9d6c9"/><rect width="8.686" height="3.667" transform="translate(35.79 6.563)" fill="#7e7e87"/><g transform="translate(7.182 10.466)"><path d="M2605.694,1468.033a16.387,16.387,0,0,0-31.721-5.778l21.111,21.111A16.413,16.413,0,0,0,2605.694,1468.033Z" transform="translate(-2572.918 -1451.645)" fill="#7e7e87"/><path d="M2585.262,1525.09a16.3,16.3,0,0,0,5.778-1.055l-21.111-21.111a16.382,16.382,0,0,0,15.333,22.166Z" transform="translate(-2568.874 -1492.314)" fill="#93939e"/></g><rect width="3.86" height="6.692" transform="translate(38.879 23.509)" fill="#bcbcc9"/></g></g></svg>