<svg xmlns="http://www.w3.org/2000/svg" xmlns:xlink="http://www.w3.org/1999/xlink" width="140" height="140" viewBox="0 0 140 140"><defs><clipPath id="a"><circle cx="70" cy="70" r="70" transform="translate(0 0.477)" fill="#f7f3e5"/></clipPath><linearGradient id="b" x1="0.5" y1="0.917" x2="0.5" y2="0.106" gradientUnits="objectBoundingBox"><stop offset="0" stop-color="#96663d"/><stop offset="0.253" stop-color="#8f6039"/><stop offset="0.608" stop-color="#7d512e"/><stop offset="1" stop-color="#613a1e"/></linearGradient><clipPath id="c"><rect width="58.436" height="49.308" fill="none"/></clipPath></defs><g transform="translate(0 -0.477)"><circle cx="70" cy="70" r="70" transform="translate(0 0.477)" fill="#f7f3e5"/><g clip-path="url(#a)"><g transform="translate(0.654 18.47)"><g transform="translate(0 14.115)"><rect width="44.734" height="3.314" transform="translate(3.122 74.211)" fill="#e5dfdc"/><rect width="50.578" height="71.497" transform="translate(0 4.901)" fill="#d0ebeb"/><path d="M2584.741,1405.962h-50.578l3.608-4.9h42.87Z" transform="translate(-2534.163 -1401.06)" fill="#dff4f4"/></g><g transform="translate(5.752 23.392)"><path d="M2579.611,1481.919a19.537,19.537,0,1,1,19.537-19.537A19.559,19.559,0,0,1,2579.611,1481.919Z" transform="translate(-2560.074 -1442.845)" fill="#403d42"/></g><rect width="12.15" height="17.396" transform="translate(34.259 69.549)" fill="#d9d6c9"/><rect width="49.894" height="1.342" transform="translate(0.342 66.689)" fill="#d9d6c9"/><rect width="9.32" height="3.935" transform="translate(38.401 21.157)" fill="#7e7e87"/><g transform="translate(7.706 25.345)"><path d="M2608.008,1469.228a17.582,17.582,0,0,0-34.035-6.2l22.651,22.651A17.61,17.61,0,0,0,2608.008,1469.228Z" transform="translate(-2572.841 -1451.645)" fill="#7e7e87"/><path d="M2586.457,1526.706a17.492,17.492,0,0,0,6.2-1.132l-22.651-22.651a17.576,17.576,0,0,0,16.451,23.782Z" transform="translate(-2568.874 -1491.54)" fill="#93939e"/></g><rect width="4.142" height="7.179" transform="translate(41.714 39.339)" fill="#bcbcc9"/><g transform="translate(8.495 0)"><rect width="28.26" height="15.982" fill="#861d0a"/><rect width="16.956" height="10.33" transform="translate(3.217 3.703)" fill="#403d42"/><rect width="0.487" height="12.132" transform="translate(21.781 1.9)" fill="#e5dfdc"/><rect width="3.411" height="1.908" transform="translate(23.595 1.9)" fill="#7e7e87"/><g transform="translate(23.584 8.113)"><rect width="1.522" height="0.851" fill="#7e7e87"/><rect width="1.522" height="0.851" transform="translate(1.9)" fill="#7e7e87"/></g><g transform="translate(23.584 9.283)"><rect width="1.522" height="0.851" fill="#7e7e87"/><rect width="1.522" height="0.851" transform="translate(1.9)" fill="#7e7e87"/></g><g transform="translate(23.584 10.452)"><rect width="1.522" height="0.851" fill="#7e7e87"/><rect width="1.522" height="0.851" transform="translate(1.9)" fill="#7e7e87"/></g><g transform="translate(23.584 11.621)"><rect width="1.522" height="0.851" fill="#7e7e87"/><rect width="1.522" height="0.851" transform="translate(1.9)" fill="#7e7e87"/></g><path d="M2682.5,1359.645a1.1,1.1,0,1,1-1.1,1.1A1.1,1.1,0,0,1,2682.5,1359.645Z" transform="translate(-2657.214 -1354.724)" fill="#7e7e87"/><path d="M2598.067,1344.78h-18.2a.414.414,0,1,1,0-.829h18.2a.414.414,0,1,1,0,.829Z" transform="translate(-2577.894 -1342.514)" fill="#bcbcc9"/></g></g><g transform="translate(92.261 21.007)"><rect width="50.479" height="83.29" transform="translate(0)" fill="#94663f"/><rect width="51.488" height="47.45" transform="translate(48.964 1.514) rotate(90)" fill="#4d2a13"/><rect width="27.259" height="47.45" transform="translate(48.964 54.517) rotate(90)" fill="#626262"/><rect width="27.056" height="47.248" transform="translate(48.863 54.618) rotate(90)" fill="#4d2a13"/><rect width="27.056" height="0.101" transform="translate(25.29 54.618) rotate(90)" fill="#626262"/><rect width="1.514" height="47.45" transform="translate(48.964 35.84) rotate(90)" fill="#94663f"/><rect width="1.514" height="47.45" transform="translate(48.964 18.677) rotate(90)" fill="#94663f"/><path d="M1381.455,1686.926v7.572h-1.1l-1.1-5.048H1335.2l-1.1,5.048H1333v-7.572Z" transform="translate(-1331.986 -1603.636)" fill="url(#b)"/><path d="M1442.72,1548.7l-.5-.5,1.514-1.514.5.5v1.514Z" transform="translate(-1420.056 -1490.553)" fill="#b0afaf" style="mix-blend-mode:multiply;isolation:isolate"/><rect width="1.514" height="1.514" transform="translate(23.674 56.132) rotate(90)" fill="#181919"/><path d="M1466.7,1548.7l-.5-.5,1.514-1.514.5.5v1.514Z" transform="translate(-1439.393 -1490.553)" fill="#b0afaf" style="mix-blend-mode:multiply;isolation:isolate"/><rect width="1.514" height="1.514" transform="translate(28.318 56.132) rotate(90)" fill="#181919"/></g><g transform="translate(56.332 34.812)"><path d="M100.923,597.959s0-1.23-.351-1.582c-2.611-2.447-17.035-2.849-19.084-2.894v-.972H77.1v.967s-16.517.264-19.329,2.9c-.352.352-.352,1.582-.352,1.582s-.82.322-.762,1.786c.059,1.171.645,1.874,2.255,1.933,1.728.029,1.786-1.581,1.786-2.2a2.8,2.8,0,0,0-.48-1.562c-.054-.19-.26-1.035.363-1.191a109.887,109.887,0,0,1,13,.176s-8.259,5.8-10.016,9.137a8.658,8.658,0,0,0-.187,2.83,2.656,2.656,0,0,0-.6,2.144c.059,1.28.7,2.079,2.306,2.143a1.965,1.965,0,0,0,2.031-2.143c0-.672-.06-1.765-.7-2.117h0a5.831,5.831,0,0,1,.4-2.475c.412-.67,8.937-6.167,10.983-7.48v.632a1.371,1.371,0,0,0,1.371,1.372h.245a1.371,1.371,0,0,0,1.371-1.372V599.1c2.4,1.544,10.34,6.676,10.738,7.322a5.832,5.832,0,0,1,.4,2.475c-.644.352-.7,1.446-.7,2.117a1.965,1.965,0,0,0,2.031,2.143c1.611-.064,2.248-.864,2.306-2.143a2.658,2.658,0,0,0-.6-2.144h0a8.668,8.668,0,0,0-.187-2.83c-1.757-3.339-10.016-9.137-10.016-9.137a109.887,109.887,0,0,1,13-.176c.623.156.418,1,.363,1.191a2.806,2.806,0,0,0-.48,1.562c0,.615.059,2.226,1.786,2.2,1.611-.059,2.2-.762,2.255-1.933C101.744,598.282,100.923,597.959,100.923,597.959Z" transform="translate(-52.794 -528.024)" fill="#262626"/><g transform="translate(0 0)"><path d="M46.729,544.673a22.173,22.173,0,0,0,6.249,10.9l1.38-2.46s-.975-7.2-.685-9.576C53.673,543.54,46.761,544.673,46.729,544.673Z" transform="translate(-46.702 -497.955)" fill="#242424"/><path d="M170.274,544.673a22.172,22.172,0,0,1-6.249,10.9l-1.38-2.46s.976-7.2.685-9.576C163.33,543.54,170.242,544.673,170.274,544.673Z" transform="translate(-117.874 -497.955)" fill="#242424"/><g transform="translate(8.497 19.655)"><path d="M69.87,476.365l.021.025s-1.757,21.262-1.055,28.642h11.9c-.394-18.47-1.475-22.783-4.17-25.479C74.751,477.735,71.759,476.8,69.87,476.365Z" transform="translate(-68.671 -476.365)" fill="#3d3d3d"/><path d="M140.181,476.365c-1.889.435-4.881,1.37-6.7,3.188-2.7,2.7-3.776,7.009-4.17,25.479h11.9c.7-7.38-1.054-28.642-1.054-28.642Z" transform="translate(-105.905 -476.365)" fill="#3d3d3d"/></g><g transform="translate(8.663 2.46)"><path d="M98.519,431.819H74.826a5.725,5.725,0,0,0-5.725,5.725v9.386a4.35,4.35,0,0,0,1.033,2.083,15.583,15.583,0,0,1,6.218,2.755c.493-4.234,4.924-7.549,10.32-7.549s9.828,3.315,10.32,7.549a15.584,15.584,0,0,1,6.218-2.755,4.354,4.354,0,0,0,1.033-2.083v-9.386A5.725,5.725,0,0,0,98.519,431.819Z" transform="translate(-69.101 -431.819)" fill="#3d3d3d"/><path d="M98.207,463.944c-5.4,0-9.827,3.315-10.32,7.549.167.139.329.283.48.434,1.313,1.313,2.242,3.01,2.9,6.539a12.3,12.3,0,0,0,13.888,0c.654-3.529,1.583-5.226,2.9-6.539.151-.151.313-.295.48-.434C108.035,467.259,103.6,463.944,98.207,463.944Z" transform="translate(-80.636 -451.544)" fill="#454545"/><path d="M96.634,501.566c.689,3.717,1.072,9.466,1.274,18.94h11.34c.2-9.474.585-15.223,1.273-18.94a12.3,12.3,0,0,1-13.888,0Z" transform="translate(-86.006 -474.644)" fill="#242424"/></g><g transform="translate(4.603 44.786)"><path d="M69.936,550.016c1.581-1.933,4.393-3.515,1.933-6.853-1.2-1.63-3.786-1.836-6.115-1.619a14.127,14.127,0,0,0-6.975,10.141c-.7,3.69.176,9.489,8.259,9.489H68C66.826,556.43,68.521,551.746,69.936,550.016Z" transform="translate(-58.584 -541.472)" fill="#3d3d3d"/><path d="M147.8,551.685a14.125,14.125,0,0,0-6.975-10.141c-2.33-.216-4.914-.011-6.115,1.619-2.46,3.338.352,4.92,1.933,6.853,1.415,1.73,3.109,6.414,1.939,11.158h.96C147.619,561.174,148.5,555.375,147.8,551.685Z" transform="translate(-104.727 -541.472)" fill="#3d3d3d"/></g><path d="M85.689,558.88c-.473.505-.982,1-1.4,1.511-1.415,1.73-3.11,6.414-1.94,11.158h24.438c1.17-4.744-.524-9.428-1.939-11.158-.494-.6-1.108-1.173-1.644-1.773-2.318-.162-4.739-.248-7.229-.248A101.285,101.285,0,0,0,85.689,558.88Z" transform="translate(-68.331 -507.062)" fill="#242424"/><g transform="translate(11.772 42.166)"><path d="M100.5,550.287a41.119,41.119,0,0,1-7.5-.217c.438,1.544-.392,2.661-1.378,3.714a101.284,101.284,0,0,1,10.282-.51c2.491,0,4.911.086,7.229.248A3.517,3.517,0,0,1,108,550.07,41.124,41.124,0,0,1,100.5,550.287Z" transform="translate(-86.043 -544.131)" fill="#454545"/><path d="M106.081,537.375c-5.177-2.951-11.65-2.686-14.462-2.686s-9.285-.265-14.462,2.686c2.33-.216,4.914-.011,6.115,1.619a5.149,5.149,0,0,1,.848,1.628,41.116,41.116,0,0,0,7.5.217,41.121,41.121,0,0,0,7.5-.217,5.139,5.139,0,0,1,.848-1.628C101.167,537.364,103.751,537.159,106.081,537.375Z" transform="translate(-77.157 -534.683)" fill="#303030"/></g><path d="M55.5,520.881a5.631,5.631,0,0,0-6.506,2.736c-2.169,4.041-3.351,8.083-1.183,8.083h3.351c1.577,0,1.971-.352,2.365-1.581s-.347-5.814,2-7.124C55.522,523,55.5,520.957,55.5,520.881Z" transform="translate(-46.659 -483.92)" fill="#3d3d3d"/><path d="M159.544,520.881a5.631,5.631,0,0,1,6.505,2.736c2.169,4.041,3.352,8.083,1.183,8.083h-3.351c-1.577,0-1.971-.352-2.366-1.581s.347-5.814-1.995-7.124C159.52,523,159.544,520.957,159.544,520.881Z" transform="translate(-115.956 -483.92)" fill="#3d3d3d"/><g transform="translate(16.332)"><path d="M98.872,443.369h2.109c5.447,0,6.15-6.5,7.38-11.246s-.527-6.677-2.108-6.677H91.492c-1.581,0-3.339,1.933-2.109,6.677s1.933,11.246,7.38,11.246Z" transform="translate(-88.971 -425.446)" fill="#242424"/></g></g></g><g transform="translate(14.904 61.395)"><g transform="translate(0 9.786)"><path d="M926.919,1478.583c-1.745-.227-9.51.666-12.762,2.045s-8.859,5.954-9.967,7.511-2.645,8.541-3.458,9.589a59.439,59.439,0,0,0-4.36,5.751c-.75,1.448.027,4.487-.482,7.709a58.317,58.317,0,0,1-1.446,6.945c-.23.528-3.783,2.841-6.482,3.816,4.276,1.938,8.344,5.094,11.358,6.118s14.519,5.481,21.927,6.56,16.956-1.138,22.234-1.16,9.778-1.676,11.919-1.454c-2.28-2.209-3.827-3.492-4.741-5.045s-1.423-1.144-1.426-3.915a16.506,16.506,0,0,1,.6-4.71c.488-2.417-.225-4.851-.887-7.619s.03-6.11-.44-8.426-1.782-7.367-3.022-9.335-4.374-5.052-6.7-7.19A39.3,39.3,0,0,0,926.919,1478.583Z" transform="translate(-887.961 -1478.548)" fill="#ccccd1"/><path d="M927.386,1536.042c-.772-.048-1.513-.124-2.2-.224-6.154-.9-15.328-4.2-19.737-5.788-.91-.328-1.628-.587-2.127-.756a32.314,32.314,0,0,1-5.454-2.875c-1.655-1-3.359-2.021-5.131-2.883,2.509-1.064,5.636-3.053,5.919-3.7a57,57,0,0,0,1.471-7.031,22.856,22.856,0,0,0,.163-4.3,7.881,7.881,0,0,1,.284-3.3,39.885,39.885,0,0,1,3.443-4.6c.368-.45.685-.838.884-1.095a20.5,20.5,0,0,0,1.559-4.328,27.021,27.021,0,0,1,1.907-5.273,36.024,36.024,0,0,1,9.818-7.392c3.045-1.292,10.253-2.172,12.366-2.04.063,0,.121.009.173.015a38.591,38.591,0,0,1,11.71,7.106c1.54,1.415,5.271,4.94,6.643,7.119,1.228,1.949,2.535,7.052,2.975,9.217a17.253,17.253,0,0,1,.15,3.607,19.13,19.13,0,0,0,.293,4.83q.1.412.2.816c.6,2.442,1.111,4.551.687,6.651-.033.161-.074.329-.122.524a15.562,15.562,0,0,0-.487,4.257c0,2.04.275,2.474.841,3.189a7.335,7.335,0,0,1,.634.9,19.057,19.057,0,0,0,3.464,3.844l.7.667a29.027,29.027,0,0,0-3.3.519,41.454,41.454,0,0,1-7.744.939,69,69,0,0,0-7.035.616,74.515,74.515,0,0,1-12.942.772Z" transform="translate(-891.847 -1480.086)" fill="#e5e5eb"/><path d="M997.989,1533.781c-6.3,2.242-12.5,4.607-14.1,5.851s-4.9,8.05-5.475,11.861-5.323,12.135-3.439,17.155,13.474,6.611,17.263,8.2,20.21-.931,22.8-.8.911-8.691,1.633-11.117c1.484-4.987,1.449-11.911-2.742-16.155S1009.536,1529.673,997.989,1533.781Z" transform="translate(-958.472 -1522.952)" fill="#e5e5eb" opacity="0.3" style="mix-blend-mode:multiply;isolation:isolate"/><path d="M982.729,1501.364c-4.372,1.556-8.669,3.2-9.778,4.059s-3.4,5.584-3.8,8.228-3.692,8.418-2.386,11.9,7.679,6.58,10.307,7.681,13.952-3.186,15.747-3.1,5.569-7.765,6.708-9.1-.521-9.047-3.428-11.992S990.739,1498.514,982.729,1501.364Z" transform="translate(-951.894 -1496.617)" fill="#ccccc4" opacity="0.3" style="mix-blend-mode:screen;isolation:isolate"/><path d="M1001.3,1513.094a32.6,32.6,0,0,0-5.495,2.281,11.082,11.082,0,0,0-2.134,4.623c-.225,1.486-2.075,4.73-1.341,6.687s4.315,3.7,5.792,4.316,7.84-1.79,8.849-1.74,3.129-4.364,3.769-5.114-.293-5.085-1.927-6.739S1005.8,1511.492,1001.3,1513.094Z" transform="translate(-972.824 -1506.394)" fill="#ccccc4" opacity="0.3" style="mix-blend-mode:screen;isolation:isolate"/><g transform="translate(0 8.682)"><path d="M955.4,1570.116c-2.28-2.209-3.827-3.492-4.741-5.045s-1.423-1.144-1.426-3.915a16.508,16.508,0,0,1,.6-4.71c.488-2.417-.225-4.851-.887-7.619s.03-6.11-.44-8.426-1.782-7.367-3.022-9.335a38.064,38.064,0,0,0-5.151-5.734,54.474,54.474,0,0,1,2.272,8.636c.482,3.543,2.315,6.12,2.285,6.587s-2.285,4.664-2.365,5.949.956,5.336-.825,7.57-5.337,4.708-7.892,6.189-5.319,2.8-5.328,2.936,11.544,1.03,12.031,1.676-9.422.906-12.2,1-5.3-1.738-7.151-1.678-11.875.049-12.828-.187-5.36-2.885-5.88-3.005-3.153-1.6-4.287-1.763,5.453-1.418,5.469-1.681-5-1.632-5.313-2.971.649-5.411.9-6.539-1.782-3.841-1.45-4.946,3.963-5.714,4.4-7.094a19.646,19.646,0,0,0,.127-4.614,23.065,23.065,0,0,1-1.567,4.436,59.489,59.489,0,0,0-4.36,5.751c-.75,1.448.027,4.487-.482,7.709a58.315,58.315,0,0,1-1.446,6.945c-.23.528-3.783,2.841-6.482,3.816,4.276,1.938,8.344,5.094,11.358,6.119s14.519,5.481,21.927,6.56,16.956-1.138,22.234-1.16S953.257,1569.895,955.4,1570.116Z" transform="translate(-887.961 -1525.333)" fill="#dbdbe0" style="mix-blend-mode:multiply;isolation:isolate"/><path d="M1059.651,1644.471c-.713.057-6.843.51-7.569.875s-7.549,9.143-8.118,9.811,7.636-3.978,9.183-4.35,8.709-5.2,9.213-5.756S1063.152,1644.192,1059.651,1644.471Z" transform="translate(-1014.989 -1622.275)" fill="#e5e3e6" style="mix-blend-mode:multiply;isolation:isolate"/><path d="M1004.291,1545.927c.124.525,1.43,5.249,1.744,5.854s-3.157-2.015-3.953-2.416,1.778-4.989,2.062-5.792S1004.155,1545.35,1004.291,1545.927Z" transform="translate(-980.781 -1540.063)" fill="#e5e3e6" style="mix-blend-mode:multiply;isolation:isolate"/><path d="M966.785,1680.241a27.476,27.476,0,0,0,3.93.311c.2-.053,3.058-2.152,3.458-2.471s-3.052,1.032-3.419,1.131S966.276,1680.128,966.785,1680.241Z" transform="translate(-952.121 -1649.694)" fill="#e5e3e6" style="mix-blend-mode:multiply;isolation:isolate"/></g><g transform="translate(29.909 0.638)"><path d="M1056.67,1481.984c-1.752.835-5.764,2.167-6.972,5.551s-.391,3.434,1.354,1.785S1055.148,1483.831,1056.67,1481.984Z" transform="translate(-1049.124 -1481.984)" fill="#e5e3e6" style="mix-blend-mode:multiply;isolation:isolate"/><path d="M1099.1,1484.5c.38,2.369.858,11.6,2.649,13.884s3.231,2.723,3.76-1.992S1102.452,1490.3,1099.1,1484.5Z" transform="translate(-1089.828 -1484.033)" fill="#e5e3e6" style="mix-blend-mode:multiply;isolation:isolate"/></g></g><g transform="translate(26.793 0)"><path d="M1044.827,1436.195c-1.249-1.547-3.271-3.1-4.449-5.126s-1.291-2.542-8.044-5.252c1.583,2.777,1.583,5.646,3.293,7.334C1037.135,1434.642,1042.009,1435.4,1044.827,1436.195Z" transform="translate(-1032.334 -1425.817)" fill="#ccccd1"/><path d="M1048.359,1439.618c-.431-.106-.886-.213-1.356-.323-2.458-.578-5.754-1.4-6.808-2.44-.9-.891-1.063-2.049-1.526-3.508a23.972,23.972,0,0,0-1.147-2.782c5.561,2.27,5.946,2.833,6.93,4.535l.12.207a18.106,18.106,0,0,0,2.948,3.454c.29.293.573.578.839.859Z" transform="translate(-1036.559 -1429.683)" fill="#e5e5eb"/><path d="M1073.349,1462.8c-1.049-.891-1.974-1.589-2.41-1.955s-1.857-1.454-1.757-.773S1069.546,1461.3,1073.349,1462.8Z" transform="translate(-1062.34 -1453.534)" fill="#e5e3e6" style="mix-blend-mode:multiply;isolation:isolate"/><g transform="translate(11.792 5.013)"><path d="M1095.876,1457.97c1.707-1.088,4.091-4.249,6.939-5.017,1.741-.469,5.141.459,6.813,1.217-1.641,1.862-4.2,3.95-5.663,4.305C1101.553,1459.06,1098.854,1458.208,1095.876,1457.97Z" transform="translate(-1095.876 -1452.827)" fill="#ccccd1"/><path d="M1104.184,1460c-.858-.053-1.744-.186-2.683-.328-.616-.093-1.246-.188-1.892-.263.4-.331.825-.724,1.263-1.129,1.421-1.314,3.032-2.8,4.831-3.289a4.81,4.81,0,0,1,1.509-.1,16.583,16.583,0,0,1,4.62,1.107c-1.557,1.669-3.848,3.518-5.153,3.834a8.248,8.248,0,0,1-2.5.166Z" transform="translate(-1098.916 -1454.493)" fill="#e5e5eb"/><path d="M1103.778,1471.345c.876-.4,2.007-1.421,2.459-1.6a3.065,3.065,0,0,1,1.9.177C1108.445,1470.133,1105.37,1471.016,1103.778,1471.345Z" transform="translate(-1102.312 -1466.538)" fill="#e5e3e6" style="mix-blend-mode:multiply;isolation:isolate"/></g><g transform="translate(9.479 8.564)"><path d="M1086.117,1471.976a3.316,3.316,0,0,0-2.683,1.083c-.213.48,1.2,1.588,1.723,1.753,1.027.319,3.042,0,3.093-.516A3.247,3.247,0,0,0,1086.117,1471.976Z" transform="translate(-1083.411 -1471.964)" fill="#e5e5eb"/><path d="M1091.057,1475.472a2.627,2.627,0,0,1-2.978,1.66,3.309,3.309,0,0,0,.879.536c1.027.319,3.042,0,3.093-.516A3.1,3.1,0,0,0,1091.057,1475.472Z" transform="translate(-1087.213 -1474.821)" fill="#e5e3e6" style="mix-blend-mode:multiply;isolation:isolate"/></g></g></g><g transform="translate(-7.573 75.395)"><g transform="translate(0 5.271)"><path d="M796.022,1529.657a32.069,32.069,0,0,1-3.322.163c-.744-.023-1.254.023-3.159.882a22.514,22.514,0,0,0-5.481,3.414,19.99,19.99,0,0,1-3.879,3.182c-2.044,1.347-3.623,3.809-5.481,5.714a23.44,23.44,0,0,0-4.645,9.152c-.465,2.508-.836,6.781-1.672,9.43s-1.766,4.924-1.487,6.132,4.227,7.247,6.55,8.455,4.037.6,7.988,1.672,8.317,3.019,13.659,2.88a37.246,37.246,0,0,0,13.053-2.927,92.187,92.187,0,0,1,8.873-2.648c3.205-.929,5.156-1.3,7.479-4.135s3.519-5.575,3.054-9.244-1.521-3.268-2.311-6.581a29.641,29.641,0,0,0-3.159-7.866c-1.3-2.416-1.439-4.181-3.994-8.036s-6.458-5.481-9.43-6.689A43.5,43.5,0,0,0,796.022,1529.657Z" transform="translate(-766.845 -1529.657)" fill="#ccccd1"/><path d="M796.043,1581.9a32.981,32.981,0,0,1-10.108-2c-1.013-.32-1.969-.622-2.918-.879a25.272,25.272,0,0,0-4.292-.754,9.287,9.287,0,0,1-3.627-.891c-2.178-1.133-6.107-7.067-6.375-8.228-.2-.87.342-2.5.97-4.391.167-.5.34-1.023.51-1.562a44.736,44.736,0,0,0,1.236-6.55c.152-1.08.295-2.1.447-2.921a23.056,23.056,0,0,1,4.554-8.975c.655-.672,1.281-1.417,1.886-2.138a17.846,17.846,0,0,1,3.539-3.529,20.275,20.275,0,0,0,3.935-3.228,22.278,22.278,0,0,1,5.378-3.342,6.536,6.536,0,0,1,2.786-.857c.073,0,.146,0,.221,0s.176,0,.279,0c.844,0,2.337-.081,3.055-.164a42.865,42.865,0,0,1,12.5,2.923c2.845,1.156,6.74,2.738,9.274,6.562a27.01,27.01,0,0,1,2.833,5.466,23.861,23.861,0,0,0,1.146,2.543,29.289,29.289,0,0,1,3.127,7.783,10.465,10.465,0,0,0,1.182,3.009,8.167,8.167,0,0,1,1.123,3.536c.411,3.248-.48,5.935-2.98,8.985-2.073,2.529-3.769,3.013-6.579,3.813l-.731.21c-1,.291-1.854.513-2.677.727a56.4,56.4,0,0,0-6.219,1.929c-4.2,1.564-7.827,2.772-12.943,2.905q-.269.007-.535.007Z" transform="translate(-768.339 -1531.163)" fill="#e5e5eb"/><path d="M871.44,1554.065c-5.2,3.569-10.275,7.223-11.432,8.744s-2.516,8.521-2.119,12.135-1.915,12.348,1.016,16.468,13.88,2.765,17.718,3.3,18.193-5.738,20.583-6.248-1.273-8.141-1.2-10.526c.147-4.9-1.561-11.207-6.408-14.061S880.969,1547.526,871.44,1554.065Z" transform="translate(-840.591 -1548.095)" fill="#e5e5eb" opacity="0.3" style="mix-blend-mode:multiply;isolation:isolate"/><path d="M827.188,1548.993c-4.148,1.774-8.218,3.626-9.241,4.531s-2.958,5.623-3.185,8.213-3.072,8.391-1.593,11.691,7.85,5.918,10.466,6.827,13.344-3.937,15.091-3.96,4.932-7.873,5.956-9.238-1.054-8.746-4.054-11.426S834.786,1545.741,827.188,1548.993Z" transform="translate(-804.225 -1544.731)" fill="#ccccc4" opacity="0.3" style="mix-blend-mode:screen;isolation:isolate"/><path d="M843.274,1561.558a31.646,31.646,0,0,0-5.193,2.546,10.766,10.766,0,0,0-1.79,4.616c-.128,1.455-1.726,4.715-.9,6.569s4.411,3.325,5.882,3.837,7.5-2.213,8.48-2.226,2.772-4.424,3.347-5.191-.593-4.915-2.278-6.421S847.544,1559.731,843.274,1561.558Z" transform="translate(-822.48 -1555.259)" fill="#ccccc4" opacity="0.3" style="mix-blend-mode:screen;isolation:isolate"/><g transform="translate(21.221 0.279)"><path d="M888.533,1531.887a11.943,11.943,0,0,0-2.2.624,17.689,17.689,0,0,0-3.786,2.383c-.9.86-1.665,2.576-1.235,3.258s1.754-1.34,2.732-2.538a34.653,34.653,0,0,1,2.77-2.96A7.338,7.338,0,0,1,888.533,1531.887Z" transform="translate(-881.194 -1531.752)" fill="#e5e3e6" style="mix-blend-mode:multiply;isolation:isolate"/><path d="M896.695,1531.159a44.071,44.071,0,0,0-4.377,7.033c-.835,1.77-1.594,5.236-1.265,5.868s3.769-4.6,4.326-5.565S895.922,1532.937,896.695,1531.159Z" transform="translate(-889.16 -1531.159)" fill="#e5e3e6" style="mix-blend-mode:multiply;isolation:isolate"/><path d="M929.955,1531.28c.813.281,4.81,2.248,5.847,3.314s3.668,4.177,3.263,5.847-4.326-3.795-5.186-5.034A49.7,49.7,0,0,0,929.955,1531.28Z" transform="translate(-920.906 -1531.257)" fill="#e5e3e6" style="mix-blend-mode:multiply;isolation:isolate"/></g><g transform="translate(0 5.103)"><path d="M824.5,1593.417c2.322-2.833,3.519-5.574,3.054-9.244s-1.521-3.268-2.311-6.581a29.64,29.64,0,0,0-3.159-7.866c-1.3-2.416-1.439-4.181-3.994-8.036a14.8,14.8,0,0,0-4.885-4.536c.739,1.906,1.516,4.133,2.051,5.605.742,2.044,1.579,1.858,1.208,5.574s-.932,4,.091,7.8-.464,4.832-2.089,7.433-5.9,6.689-9.151,6.6a12.593,12.593,0,0,0-8.146,2.416,12.018,12.018,0,0,1-8.02,2.137c-2.88-.186-7.99-.279-9.941-.372s-5.946-.837-6.318-3.345-1.846-1.926-2.218-6.2a28.122,28.122,0,0,1,1.475-11.451c.7-1.853,1.493-5.263,2.915-8.324-.119.129-.239.255-.36.38a23.436,23.436,0,0,0-4.645,9.151c-.465,2.508-.836,6.781-1.672,9.43s-1.766,4.924-1.487,6.132,4.227,7.247,6.55,8.454,4.037.6,7.988,1.672,8.317,3.019,13.659,2.88a37.249,37.249,0,0,0,13.053-2.927,92.257,92.257,0,0,1,8.873-2.648C820.224,1596.622,822.175,1596.25,824.5,1593.417Z" transform="translate(-766.845 -1557.153)" fill="#dbdbe0" style="mix-blend-mode:multiply;isolation:isolate"/><path d="M861.156,1656.879c-2.038,2.038-4.459,3.065-5.3,4.738s.388,2.136,3.631,1.207,3.581-3.995,5.131-5.017,3.57-7.432,1.445-5.388S862.457,1655.578,861.156,1656.879Z" transform="translate(-839.133 -1634.415)" fill="#e5e3e6" style="mix-blend-mode:multiply;isolation:isolate"/></g></g><g transform="translate(13.911 0)"><g transform="translate(0 0.849)"><path d="M854.32,1508.962c-.951-.479-2.256-1.8-3.336-2.3a7.127,7.127,0,0,0-2.429-.829,4.852,4.852,0,0,0-2.569,1.208c-1.418,1.067-3.5,1.825-4.183,2.765,1.418.632,3.313.946,4.31,1.715s2.47,1.647,3.467,1.549,5.264-2.113,6.429-2.184S856.122,1509.973,854.32,1508.962Z" transform="translate(-841.802 -1505.829)" fill="#ccccd1"/><path d="M851.779,1514.141a6.454,6.454,0,0,1-3.116-1.491,8.786,8.786,0,0,0-2.622-1.129c-.451-.143-.914-.29-1.342-.455a11.031,11.031,0,0,1,1.842-1.17,17.209,17.209,0,0,0,1.993-1.226,4.6,4.6,0,0,1,2.389-1.144h.023a7.624,7.624,0,0,1,2.263.8,10.493,10.493,0,0,1,1.766,1.21,10.618,10.618,0,0,0,1.563,1.09,8.028,8.028,0,0,1,1.934,1.314c-.033,0-.073.009-.123.013a18.516,18.516,0,0,0-3.653,1.211,18.818,18.818,0,0,1-2.789.973c-.042,0-.084.006-.128.006Z" transform="translate(-844.161 -1507.21)" fill="#e5e5eb"/><path d="M887.331,1522.515a25.176,25.176,0,0,0-4-1.179c-.863-.021-2.717.358-2.253.926s1.927.168,3.09.168S886.916,1522.506,887.331,1522.515Z" transform="translate(-873.729 -1518.458)" fill="#e5e3e6" style="mix-blend-mode:multiply;isolation:isolate"/></g><g transform="translate(14.655)"><path d="M920.772,1506.968c.477-.57,1.411-2.615,2.035-3.374,1.9-2.313,3.644-2.444,5.945-2.3a21.175,21.175,0,0,1,5.467,1.222,34.559,34.559,0,0,0-4.71,3.58c-1.448,1.177-2.316,1.979-4,1.694C922.973,1507.365,922.7,1507.047,920.772,1506.968Z" transform="translate(-920.772 -1501.255)" fill="#ccccd1"/><path d="M928.671,1508.915a3.6,3.6,0,0,1-.6-.052c-1.01-.171-1.669-.326-2.2-.451a11.778,11.778,0,0,0-2.019-.345c.18-.295.382-.664.6-1.065a14.567,14.567,0,0,1,1.105-1.829,5.243,5.243,0,0,1,4.58-2.223c.312,0,.662.013,1.1.042a18.713,18.713,0,0,1,4.737,1,26.944,26.944,0,0,0-3.087,2.352c-.341.288-.695.587-1.07.892l-.228.186c-1.1.9-1.832,1.5-2.924,1.5Z" transform="translate(-923.283 -1502.635)" fill="#e5e5eb"/><path d="M927.351,1519.354a8.889,8.889,0,0,1,3.369-1.947c1.074-.126,1.095.474.316.974S928.348,1518.918,927.351,1519.354Z" transform="translate(-926.13 -1514.396)" fill="#e5e3e6" style="mix-blend-mode:multiply;isolation:isolate"/></g><g transform="translate(12.512 3.63)"><path d="M909.316,1521.277c.589.477,1.081,1.305.912,1.769s.421.646.87.674,2.257-.132,2.377-.656a2.2,2.2,0,0,0-1.1-2.012C911.6,1520.674,908.663,1520.748,909.316,1521.277Z" transform="translate(-909.222 -1520.815)" fill="#e5e5eb"/><path d="M911.235,1525.594c-.169.463.421.646.87.673s2.257-.131,2.377-.656a1.59,1.59,0,0,0-.135-.881,3.075,3.075,0,0,1-2.469.164,4.921,4.921,0,0,0-1.421-.951h0C910.984,1524.429,911.391,1525.166,911.235,1525.594Z" transform="translate(-910.229 -1523.362)" fill="#e5e3e6" style="mix-blend-mode:multiply;isolation:isolate"/></g></g></g><g transform="translate(56.332 87.023)"><g transform="translate(0 0)" clip-path="url(#c)"><path d="M.6,33.746c-1.209,1.51-.512,2.474,1.746,2.989-1.431.5-1.685,1.06-.874,1.675-1.239.73-1.089,1.386,0,1.993-.77.544-1.592,1.083,0,1.874-.926.526-1.406,1.087,0,1.8-1.42.995-1.234,1.545.874,1.561-.947.237-1.651.551-.874,1.341-1.957.46-1.935,1.028,0,1.7-2.412,2.41-1.664,3.341.874,3.434-1.266.854-1.448,1.771-.874,2.732-1.239,1.063-1.583,1.915.874,2.108-1.49,1.609-1.367,2.732.931,3.2-1.032.331-1.46.772-.424,1.483-1.889-.011-1.918,1.209.424,1.6l17.278,1.791,19.31,3.557,7.792-7.228,8.3-4.949c2.159-1.659,1.682-2.151,0-2.108,2.925-.838,3.3-1.645.931-2.419,1.523-1.185,1.2-1.895-.761-2.186,1.63-1.54,1.727-2.474.085-2.718,3.243-1.911,2.739-2.172-.423-1.263l1.1-1.873c1.312-1.552.966-2.695-1.947-3.2,2.49-.552,2.482-1.512,1.355-2.654,1.893-.873,1.24-1.761-.678-2.654,1.8-.221,2.508-.669.932-1.584a3.835,3.835,0,0,0,.338-4.319Z" transform="translate(0 -19.275)" fill="#ccc7c2"/><path d="M1.726,27.208l14.451-2.389c.867-1.91,5.079-3.887,7.96-5.373,8.719,3.523,20.187,4.511,33.879,3.443l-7.622,6.944L38.452,32.751l-17.193-.5s-12.751-3.7-19.532-5.043" transform="translate(-1.131 -12.737)" fill="#edeceb"/><path d="M61.965,102.238a2.083,2.083,0,0,1-.487.3c-.163.092-.368.195-.605.331l-.815.471a40.534,40.534,0,0,0-4.907,3.479c-1.985,1.605-4.229,3.681-6.77,5.938l-.969.852-.495.431-.116.1-.061.052c-.01.007-.019.022-.032.021l-.039-.007-.261-.044-.32-.053-2.623-.438-5.515-.913c-7.557-1.248-14.418-2.224-19.4-2.76-2.491-.278-4.512-.438-5.909-.56-.7-.055-1.241-.1-1.609-.133a1.964,1.964,0,0,1-.56-.087,1.971,1.971,0,0,1,.565-.037c.369,0,.915,0,1.617.017,1.4.049,3.433.144,5.935.366,5,.426,11.89,1.335,19.452,2.585l5.517.927,2.621.453.32.056.058.011s0,0,.012-.009l.5-.426.973-.841c2.553-2.227,4.834-4.276,6.865-5.849a34.432,34.432,0,0,1,5.049-3.342l.846-.423c.246-.119.461-.2.632-.278a1.994,1.994,0,0,1,.536-.191" transform="translate(-6.858 -66.964)" fill="#a09a95"/><path d="M62.812,96.528a8.4,8.4,0,0,1-1.242.777c-.817.48-2.017,1.16-3.508,2.046s-3.271,1.981-5.2,3.352c-.965.684-1.957,1.452-2.96,2.3-.5.422-1,.876-1.5,1.345-.246.24-.5.478-.746.726l-.848.877-2.163-.485-2.083-.431-2.144-.408-2.2-.383c-7.6-1.256-14.557-1.846-19.592-2.187-1.259-.091-2.4-.15-3.4-.216l-2.568-.147c-.705-.038-1.253-.073-1.624-.1a2,2,0,0,1-.565-.078,2.015,2.015,0,0,1,.568-.047c.372-.009.921-.013,1.628-.012s1.571.021,2.575.042,2.146.062,3.409.126a169.007,169.007,0,0,1,19.661,2.013l2.206.387,2.152.415,2.091.442,1.875.433.645-.657c.253-.25.511-.49.763-.732.513-.472,1.022-.927,1.536-1.349,1.025-.849,2.038-1.612,3.022-2.287,1.966-1.353,3.78-2.409,5.3-3.257s2.745-1.473,3.589-1.9a8.07,8.07,0,0,1,1.327-.6" transform="translate(-6.858 -63.224)" fill="#756f6b"/><path d="M61.365,40.986c.013.017-.131.164-.416.426s-.711.642-1.264,1.124l-2.022,1.748C56.856,44.971,44,49.135,44,49.135,31.475,50.255,12.58,46.359,8.26,44.3c12.7,4.3,35.466,4.328,35.149,3.909,0,0,13.257-3.558,14.05-4.2l2.084-1.664c.574-.453,1.024-.8,1.332-1.032a2.153,2.153,0,0,1,.49-.327" transform="translate(-5.41 -26.845)" fill="#756f6b"/><path d="M45.408,104.126,9.243,102.962l36.165,2.776,9.232-6.089Z" transform="translate(-6.054 -65.27)" fill="#a09a95"/><path d="M8.26,102.244,32.314,103.5,44,102.871Z" transform="translate(-5.41 -66.97)" fill="#756f6b"/><path d="M.682,87.758c-1.4,1.766-.543,2.48,1.661,2.561a3.989,3.989,0,0,0-.578.466H37.747Z" transform="translate(-0.002 -57.482)" fill="#a09a95"/><path d="M131.343,69.7l-18.254,9.258L129.911,72l1.047-1.785a4.786,4.786,0,0,0,.384-.518" transform="translate(-74.074 -45.652)" fill="#756f6b"/><path d="M4.256,68.259l36.276.975,17.194-7.312-16.77,8.913Z" transform="translate(-2.788 -40.559)" fill="#a09a95"/><path d="M4.256,71.877l35.853,2.328L7.834,73.5Z" transform="translate(-2.788 -47.08)" fill="#756f6b"/><path d="M5.315,53.9l17.039,2.507,19.719,1.612,17.364-7.3L42.073,58.468l-19.719-1.2L6.331,55.175Z" transform="translate(-3.481 -33.223)" fill="#a09a95"/><path d="M56.561,64.787a.429.429,0,0,1-.415-.373,92.8,92.8,0,0,1-.425-26.37.443.443,0,0,1,.24-.343l18.887-9.277a.412.412,0,0,1,.56.216.457.457,0,0,1-.2.592L56.525,38.406a91.919,91.919,0,0,0,.453,25.862.444.444,0,0,1-.347.512.4.4,0,0,1-.069.006" transform="translate(-36.011 -18.59)" fill="#93653b"/><path d="M75.419,64.617A.433.433,0,0,1,75,64.19,106.8,106.8,0,0,1,76.512,39.6a173.6,173.6,0,0,1-33.8-5,.448.448,0,0,1-.308-.54.42.42,0,0,1,.51-.326,173.578,173.578,0,0,0,34.139,5,.415.415,0,0,1,.313.176.464.464,0,0,1,.076.366,104.543,104.543,0,0,0-1.6,24.868.437.437,0,0,1-.4.464h-.018" transform="translate(-27.766 -22.092)" fill="#93653b"/><path d="M74.2,17.831l-.043,0a.412.412,0,0,1-.231-.105A11.7,11.7,0,0,1,70.4,6.879a2.1,2.1,0,0,1,.828-1.463c.86-.518,1.815.151,2.423.949,2.082,2.736,2.171,5.739,1.411,9.284,1.523-1.775,3.214-3.447,4.859-5.075A67.035,67.035,0,0,0,85.9,4.13a.407.407,0,0,1,.593-.063.464.464,0,0,1,.059.628,67.756,67.756,0,0,1-6.047,6.53,66.988,66.988,0,0,0-5.97,6.443h0l-.01.012a.412.412,0,0,1-.257.146.363.363,0,0,1-.058,0m-2.325-11.7a.438.438,0,0,0-.23.063,1.368,1.368,0,0,0-.422.878,10.827,10.827,0,0,0,2.752,9.505c1.3-5.2.551-7.637-.981-9.65-.249-.328-.721-.8-1.119-.8" transform="translate(-45.968 -2.598)" fill="#93653b"/><path d="M61.655,15.139a14.949,14.949,0,0,1-3.814-.726c-1.217-.348-4.177-1.293-5.363-2.538-.824-.865-1.061-1.8-.633-2.487.259-.418.839-.859,2.131-.582a14.9,14.9,0,0,1,8.2,5.044A108,108,0,0,0,66.847.339a.421.421,0,0,1,.511-.325.448.448,0,0,1,.307.54c-.911,3.888-4.2,12.9-5.055,14.263a.441.441,0,0,1-.114.149.41.41,0,0,1-.144.08,2,2,0,0,1-.7.093M53.224,9.611a.753.753,0,0,0-.673.265c-.212.343.109.934.522,1.367,1.473,1.547,6.447,2.806,8.3,3A14.031,14.031,0,0,0,53.808,9.68a2.878,2.878,0,0,0-.584-.069" transform="translate(-33.822 0)" fill="#93653b"/><path d="M87.806,40.393,82.241,35.02,61.08,42.48Z" transform="translate(-40.008 -22.938)" fill="#ccc7c2"/></g></g><g transform="translate(114.767 34.679)"><g transform="translate(7.876 72.897)"><path d="M1165.15,739.375a13.374,13.374,0,0,0-.134,1.786h3.179a13.394,13.394,0,0,0-.134-1.786,3.391,3.391,0,0,1-2.911,0Z" transform="translate(-1165.016 -738.245)" fill="#bab9b9"/><path d="M1167.73,728.771h-1.258s-.106.464-.2,1.13a3.393,3.393,0,0,0,2.911,0c-.092-.666-.2-1.13-.2-1.13Z" transform="translate(-1166.141 -728.771)" fill="#a6a5a5"/></g><path d="M0,0H1.079a0,0,0,0,1,0,0V0A.314.314,0,0,1,.765.314H.314A.314.314,0,0,1,0,0V0A0,0,0,0,1,0,0Z" transform="translate(0.979 81.117)" fill="#8c8c8c"/><path d="M.314,0H.765a.314.314,0,0,1,.314.314v0a0,0,0,0,1,0,0H0a0,0,0,0,1,0,0v0A.314.314,0,0,1,.314,0Z" transform="translate(17.952 81.431) rotate(180)" fill="#8c8c8c"/><path d="M0,0H1.079a0,0,0,0,1,0,0V0A.314.314,0,0,1,.765.314H.314A.314.314,0,0,1,0,0V0A0,0,0,0,1,0,0Z" transform="translate(4.158 81.117)" fill="#8c8c8c"/><path d="M0,0H1.079a0,0,0,0,1,0,0V0A.314.314,0,0,1,.765.314H.314A.314.314,0,0,1,0,0V0A0,0,0,0,1,0,0Z" transform="translate(7.337 81.117)" fill="#8c8c8c"/><path d="M0,0H1.079a0,0,0,0,1,0,0V0A.314.314,0,0,1,.765.314H.314A.314.314,0,0,1,0,0V0A0,0,0,0,1,0,0Z" transform="translate(10.516 81.117)" fill="#8c8c8c"/><path d="M0,0H1.079a0,0,0,0,1,0,0V0A.314.314,0,0,1,.765.314H.314A.314.314,0,0,1,0,0V0A0,0,0,0,1,0,0Z" transform="translate(13.694 81.117)" fill="#8c8c8c"/><path d="M1109.391,796.938h-17.607c-.324,0-.6-.084-.662-.378v.3a.678.678,0,0,0,.676.69h17.58a.678.678,0,0,0,.676-.69v-.3C1109.993,796.854,1109.716,796.938,1109.391,796.938Z" transform="translate(-1091.122 -716.438)" fill="#bab9b9"/><g transform="translate(4.451 56.554)"><path d="M1154.5,709.635a4.522,4.522,0,0,1-3.033-1.075c.468,1.6,1.491,2.825,3.033,2.825s2.566-1.228,3.034-2.825A4.523,4.523,0,0,1,1154.5,709.635Z" transform="translate(-1149.487 -694.37)" fill="#c44823"/><path d="M1142.895,576.353h-1.182l-.458-.515a1.21,1.21,0,0,0-.9-.406h-4.916a1.208,1.208,0,0,0-.9.406l-.458.515h-1.182c-.182,3.728,1.5,11.393,1.888,12.971q.037.151.08.3a4.817,4.817,0,0,0,6.067,0c.029-.1.056-.2.08-.3C1141.392,587.746,1143.077,580.081,1142.895,576.353Z" transform="translate(-1132.879 -575.433)" fill="#9f3718"/></g><path d="M1147.821,606.024c.955,0,1.955-.409,2.129-.9a80.846,80.846,0,0,0,1.694-10.044,1.356,1.356,0,0,0-1.349-1.495h-4.948a1.356,1.356,0,0,0-1.349,1.495,80.9,80.9,0,0,0,1.694,10.044c.174.5,1.174.9,2.129.9Z" transform="translate(-1138.356 -535.092)" fill="#6d6d6d"/><path d="M.368,0H1.4a.368.368,0,0,1,.368.368v0A.368.368,0,0,1,1.4.736H.368A.368.368,0,0,1,0,.368v0A.368.368,0,0,1,.368,0Z" transform="translate(8.583 57.126)" fill="#f0f0f0"/><g transform="translate(4.464)"><path d="M1165.555,45.626a.58.58,0,0,0-.081-.247,1.039,1.039,0,0,0-1.816,0,.58.58,0,0,0-.081.247c-.11,3.738-.531,21.715-.844,34.323h3.666C1166.087,67.341,1165.666,49.363,1165.555,45.626Z" transform="translate(-1159.565 -44.844)" fill="#c44823"/><path d="M1141.1,462.341a6.646,6.646,0,0,1-.909-3.7c-.016-.071-.063-1.626-.131-4.131h-4.1c-.067,2.506-.115,4.06-.131,4.131a6.646,6.646,0,0,1-.909,3.7c-.819,1.162-1.729,2.254-1.91,5.982h1.182l.458-.515a1.208,1.208,0,0,1,.9-.406h4.916a1.209,1.209,0,0,1,.9.406l.458.515h1.182C1142.828,464.595,1141.918,463.5,1141.1,462.341Z" transform="translate(-1133.007 -410.849)" fill="#c44823"/><path d="M1164.738,380.586h-3.7c-.068,2.753-.131,5.224-.183,7.2h4.066C1164.869,385.81,1164.807,383.339,1164.738,380.586Z" transform="translate(-1157.888 -344.801)" fill="#c44823"/><path d="M1164.77,448.126H1160.7q-.009.351-.018.681h4.1Q1164.779,448.477,1164.77,448.126Z" transform="translate(-1157.736 -405.142)" fill="#bab9b9"/><path d="M1166.257,374.2h-3.665q-.009.343-.017.681h3.7Q1166.266,374.542,1166.257,374.2Z" transform="translate(-1159.423 -339.094)" fill="#bab9b9"/></g><path d="M1174.566,104.055a.641.641,0,0,1-.64-.64V102.3a.64.64,0,0,1,1.28,0v1.116A.64.64,0,0,1,1174.566,104.055Z" transform="translate(-1165.1 -95.604)" fill="#666"/><g transform="translate(9.071 6.301)"><path d="M1177.012,104.352a.4.4,0,0,0-.79,0v.558h.79Z" transform="translate(-1176.222 -103.957)" fill="gray"/><path d="M1176.222,112.9v.558a.4.4,0,0,0,.79,0V112.9Z" transform="translate(-1176.222 -111.943)" fill="#666"/></g><path d="M1173.944,430.617a.649.649,0,1,1,.65.65A.649.649,0,0,1,1173.944,430.617Z" transform="translate(-1165.116 -388.918)" fill="#666"/><circle cx="0.392" cy="0.392" r="0.392" transform="translate(9.086 41.307)" fill="#bab9b9"/><g transform="translate(6.455 59.308)"><path d="M1161.227,631.154c.167.868.356,1.777.572,2.712a.665.665,0,0,0,.4.467,2.775,2.775,0,0,0,2.048,0,.665.665,0,0,0,.4-.467c.663-2.881,1.083-5.515,1.34-7.461Z" transform="translate(-1160.21 -623.727)" fill="#1f1f1f"/><path d="M1157.7,601.867a.536.536,0,0,0-.533-.591h-4.948a.536.536,0,0,0-.533.591c.144,1.405.446,3.884,1.014,6.837l4.755-4.749C1157.569,603.121,1157.649,602.413,1157.7,601.867Z" transform="translate(-1151.687 -601.276)" fill="#515151"/></g><path d="M1110.034,755.549l-.322-1.578a2.3,2.3,0,0,0-1.511-1.636l-5.147-1.476a.766.766,0,0,0-.87.311.564.564,0,0,1-.5.218H1099.5a.565.565,0,0,1-.505-.218.765.765,0,0,0-.869-.311l-5.147,1.476a2.3,2.3,0,0,0-1.511,1.636l-.322,1.578c-.1.414.217.526.643.526h17.607C1109.817,756.074,1110.136,755.962,1110.034,755.549Z" transform="translate(-1091.122 -675.574)" fill="#c44823"/></g></g></g></svg>