<svg xmlns="http://www.w3.org/2000/svg" xmlns:xlink="http://www.w3.org/1999/xlink" width="140" height="140" viewBox="0 0 140 140">
  <defs>
    <clipPath id="clip-path">
      <rect id="SVGID" width="21.539" height="12.916" fill="none"/>
    </clipPath>
    <clipPath id="clip-path-2">
      <path id="SVGID-2" data-name="SVGID" d="M4030.431,947.36h-59.665l-7.458,15.924h74.581Z" transform="translate(-3963.309 -947.36)" fill="none"/>
    </clipPath>
    <clipPath id="clip-path-3">
      <rect id="SVGID-3" data-name="SVGID" width="24.574" height="30.252" fill="none"/>
    </clipPath>
  </defs>
  <g id="recommend_obj24" transform="translate(-104.517 -547.625)">
    <circle id="楕円形_353" data-name="楕円形 353" cx="70" cy="70" r="70" transform="translate(104.517 547.625)" fill="#f7f3e5"/>
    <g id="グループ_10351" data-name="グループ 10351" transform="translate(123.831 570.475)">
      <g id="グループ_10344" data-name="グループ 10344" transform="translate(0 10.966)">
        <g id="グループ_10216" data-name="グループ 10216" transform="translate(0 49.537)">
          <ellipse id="楕円形_453" data-name="楕円形 453" cx="48.835" cy="9.888" rx="48.835" ry="9.888" transform="translate(0 0)" fill="#9fce4e"/>
        </g>
        <g id="グループ_10217" data-name="グループ 10217" transform="translate(17.098 52.894)">
          <path id="パス_79798" data-name="パス 79798" d="M4174.382,2771.769c0,3.607-14.743,6.531-32.931,6.531s-32.929-2.924-32.929-6.531,14.742-6.531,32.929-6.531S4174.382,2768.162,4174.382,2771.769Z" transform="translate(-4108.522 -2765.238)" fill="#90bf34"/>
        </g>
        <g id="グループ_10218" data-name="グループ 10218" transform="translate(17.126 15.931)">
          <rect id="長方形_29737" data-name="長方形 29737" width="65.832" height="43.494" fill="#e8e3d6"/>
        </g>
        <g id="グループ_10219" data-name="グループ 10219" transform="translate(17.126 57.347)">
          <rect id="長方形_29738" data-name="長方形 29738" width="65.832" height="2.078" fill="#e2e2e2"/>
        </g>
        <g id="グループ_10220" data-name="グループ 10220" transform="translate(17.098 15.928)">
          <path id="パス_79799" data-name="パス 79799" d="M4174.382,1496.673h-65.86v-1.9l65.86,0Z" transform="translate(-4108.522 -1494.775)" fill="#d3cdc1"/>
        </g>
        <g id="グループ_10254" data-name="グループ 10254" transform="translate(17.126 36.803)">
          <g id="グループ_10221" data-name="グループ 10221" transform="translate(1.94)">
            <rect id="長方形_29739" data-name="長方形 29739" width="19.858" height="20.133" fill="#d3cfc5"/>
          </g>
          <g id="グループ_10237" data-name="グループ 10237" transform="translate(9.047 1.098)">
            <g id="グループ_10222" data-name="グループ 10222">
              <rect id="長方形_29740" data-name="長方形 29740" width="8.951" height="19.015" fill="#aa9152"/>
            </g>
            <g id="グループ_10235" data-name="グループ 10235" transform="translate(0.386)">
              <g id="グループ_10223" data-name="グループ 10223">
                <rect id="長方形_29741" data-name="長方形 29741" width="0.099" height="19.015" fill="#a38238"/>
              </g>
              <g id="グループ_10224" data-name="グループ 10224" transform="translate(0.735)">
                <rect id="長方形_29742" data-name="長方形 29742" width="0.099" height="19.015" fill="#a38238"/>
              </g>
              <g id="グループ_10225" data-name="グループ 10225" transform="translate(1.47)">
                <rect id="長方形_29743" data-name="長方形 29743" width="0.099" height="19.015" fill="#a38238"/>
              </g>
              <g id="グループ_10226" data-name="グループ 10226" transform="translate(2.206)">
                <rect id="長方形_29744" data-name="長方形 29744" width="0.099" height="19.015" fill="#a38238"/>
              </g>
              <g id="グループ_10227" data-name="グループ 10227" transform="translate(2.941)">
                <rect id="長方形_29745" data-name="長方形 29745" width="0.099" height="19.015" fill="#a38238"/>
              </g>
              <g id="グループ_10228" data-name="グループ 10228" transform="translate(3.676)">
                <rect id="長方形_29746" data-name="長方形 29746" width="0.099" height="19.015" fill="#a38238"/>
              </g>
              <g id="グループ_10229" data-name="グループ 10229" transform="translate(4.411)">
                <rect id="長方形_29747" data-name="長方形 29747" width="0.099" height="19.015" fill="#a38238"/>
              </g>
              <g id="グループ_10230" data-name="グループ 10230" transform="translate(5.146)">
                <rect id="長方形_29748" data-name="長方形 29748" width="0.099" height="19.015" fill="#a38238"/>
              </g>
              <g id="グループ_10231" data-name="グループ 10231" transform="translate(5.882)">
                <rect id="長方形_29749" data-name="長方形 29749" width="0.099" height="19.015" fill="#a38238"/>
              </g>
              <g id="グループ_10232" data-name="グループ 10232" transform="translate(6.617)">
                <rect id="長方形_29750" data-name="長方形 29750" width="0.099" height="19.015" fill="#a38238"/>
              </g>
              <g id="グループ_10233" data-name="グループ 10233" transform="translate(7.352)">
                <rect id="長方形_29751" data-name="長方形 29751" width="0.099" height="19.015" fill="#a38238"/>
              </g>
              <g id="グループ_10234" data-name="グループ 10234" transform="translate(8.087)">
                <rect id="長方形_29752" data-name="長方形 29752" width="0.099" height="19.015" fill="#a38238"/>
              </g>
            </g>
            <g id="グループ_10236" data-name="グループ 10236" transform="translate(7.897 7.941)">
              <rect id="長方形_29753" data-name="長方形 29753" width="0.356" height="3.592" fill="#2b2c2d"/>
            </g>
          </g>
          <g id="グループ_10243" data-name="グループ 10243" transform="translate(6.271 2.612)">
            <g id="グループ_10238" data-name="グループ 10238">
              <rect id="長方形_29754" data-name="長方形 29754" width="2.349" height="15.987" fill="#e5e5e5"/>
            </g>
            <g id="グループ_10242" data-name="グループ 10242" transform="translate(0.522 0.571)">
              <g id="グループ_10239" data-name="グループ 10239">
                <rect id="長方形_29755" data-name="長方形 29755" width="1.226" height="14.844" fill="#4eb4cc"/>
              </g>
              <g id="グループ_10240" data-name="グループ 10240">
                <path id="パス_79800" data-name="パス 79800" d="M4342.968,2325.554v-3.906h1.305v2.373Z" transform="translate(-4342.968 -2321.648)" fill="#a7e8fc"/>
              </g>
              <g id="グループ_10241" data-name="グループ 10241">
                <rect id="長方形_29756" data-name="長方形 29756" width="1.226" height="0.267" fill="#579eaa"/>
              </g>
            </g>
          </g>
          <g id="グループ_10244" data-name="グループ 10244" transform="translate(19.081 5.077)">
            <rect id="長方形_29757" data-name="長方形 29757" width="1.662" height="1.633" fill="#656868"/>
          </g>
          <g id="グループ_10245" data-name="グループ 10245" transform="translate(1.94)" style="mix-blend-mode: multiply;isolation: isolate">
            <rect id="長方形_29758" data-name="長方形 29758" width="19.858" height="7.704" fill="#9a9fa0"/>
          </g>
          <g id="グループ_10246" data-name="グループ 10246" transform="translate(0 20.083)">
            <rect id="長方形_29759" data-name="長方形 29759" width="65.832" height="0.43" fill="#5b5b5b"/>
          </g>
          <g id="グループ_10253" data-name="グループ 10253" transform="translate(5.722 20.113)">
            <g id="グループ_10249" data-name="グループ 10249" transform="translate(0 1.247)">
              <g id="グループ_10247" data-name="グループ 10247" transform="translate(0 0.43)">
                <rect id="長方形_29760" data-name="長方形 29760" width="16.076" height="0.831" fill="#c6c6c6"/>
              </g>
              <g id="グループ_10248" data-name="グループ 10248" transform="translate(0.003)">
                <path id="パス_79801" data-name="パス 79801" d="M4322.316,2946.33h-15.525l-.546.43h16.072Z" transform="translate(-4306.244 -2946.33)" fill="#848484"/>
              </g>
            </g>
            <g id="グループ_10252" data-name="グループ 10252" transform="translate(0.549)">
              <g id="グループ_10250" data-name="グループ 10250" transform="translate(0 0.43)">
                <rect id="長方形_29761" data-name="長方形 29761" width="15.526" height="0.831" fill="#c6c6c6"/>
              </g>
              <g id="グループ_10251" data-name="グループ 10251" transform="translate(0.001)">
                <path id="パス_79802" data-name="パス 79802" d="M4340.551,2903.479h-15l-.525.43h15.527Z" transform="translate(-4325.024 -2903.479)" fill="#848484"/>
              </g>
            </g>
          </g>
        </g>
        <g id="グループ_10267" data-name="グループ 10267" transform="translate(49.293 39.416)">
          <g id="グループ_10260" data-name="グループ 10260">
            <g id="グループ_10255" data-name="グループ 10255">
              <rect id="長方形_29762" data-name="長方形 29762" width="8.268" height="15.987" fill="#e5e5e5"/>
            </g>
            <g id="グループ_10259" data-name="グループ 10259" transform="translate(0.549 0.579)">
              <g id="グループ_10256" data-name="グループ 10256">
                <rect id="長方形_29763" data-name="長方形 29763" width="7.095" height="14.844" fill="#4eb4cc"/>
              </g>
              <g id="グループ_10257" data-name="グループ 10257">
                <path id="パス_79803" data-name="パス 79803" d="M5233.9,2325.507v-3.6h7.17Z" transform="translate(-5233.896 -2321.906)" fill="#a7e8fc"/>
              </g>
              <g id="グループ_10258" data-name="グループ 10258">
                <rect id="長方形_29764" data-name="長方形 29764" width="7.095" height="0.267" fill="#579eaa"/>
              </g>
            </g>
          </g>
          <g id="グループ_10266" data-name="グループ 10266" transform="translate(7.704)">
            <g id="グループ_10261" data-name="グループ 10261">
              <rect id="長方形_29765" data-name="長方形 29765" width="8.268" height="15.987" fill="#e5e5e5"/>
            </g>
            <g id="グループ_10265" data-name="グループ 10265" transform="translate(0.564 0.579)">
              <g id="グループ_10262" data-name="グループ 10262">
                <rect id="長方形_29766" data-name="長方形 29766" width="7.095" height="14.844" fill="#4eb4cc"/>
              </g>
              <g id="グループ_10263" data-name="グループ 10263">
                <path id="パス_79804" data-name="パス 79804" d="M5499.172,2325.507v-3.6h7.168Z" transform="translate(-5499.172 -2321.906)" fill="#a7e8fc"/>
              </g>
              <g id="グループ_10264" data-name="グループ 10264">
                <rect id="長方形_29767" data-name="長方形 29767" width="7.095" height="0.267" fill="#579eaa"/>
              </g>
            </g>
          </g>
        </g>
        <g id="グループ_10300" data-name="グループ 10300" transform="translate(20.126 17.826)">
          <g id="グループ_10268" data-name="グループ 10268">
            <rect id="長方形_29768" data-name="長方形 29768" width="21.539" height="12.916" fill="#d3cfc5"/>
          </g>
          <g id="グループ_10285" data-name="グループ 10285">
            <g id="グループ_10284" data-name="グループ 10284" clip-path="url(#clip-path)">
              <g id="グループ_10281" data-name="グループ 10281" transform="translate(3.321 3.114)">
                <g id="グループ_10274" data-name="グループ 10274">
                  <g id="グループ_10269" data-name="グループ 10269">
                    <rect id="長方形_29769" data-name="長方形 29769" width="8.268" height="15.987" fill="#e5e5e5"/>
                  </g>
                  <g id="グループ_10273" data-name="グループ 10273" transform="translate(0.549 0.579)">
                    <g id="グループ_10270" data-name="グループ 10270">
                      <rect id="長方形_29770" data-name="長方形 29770" width="7.095" height="14.844" fill="#4eb4cc"/>
                    </g>
                    <g id="グループ_10271" data-name="グループ 10271">
                      <path id="パス_79805" data-name="パス 79805" d="M4345.587,1690.539v-3.6h7.17Z" transform="translate(-4345.587 -1686.939)" fill="#a7e8fc"/>
                    </g>
                    <g id="グループ_10272" data-name="グループ 10272">
                      <rect id="長方形_29771" data-name="長方形 29771" width="7.095" height="0.267" fill="#579eaa"/>
                    </g>
                  </g>
                </g>
                <g id="グループ_10280" data-name="グループ 10280" transform="translate(7.704)">
                  <g id="グループ_10275" data-name="グループ 10275">
                    <rect id="長方形_29772" data-name="長方形 29772" width="8.268" height="15.987" fill="#e5e5e5"/>
                  </g>
                  <g id="グループ_10279" data-name="グループ 10279" transform="translate(0.564 0.579)">
                    <g id="グループ_10276" data-name="グループ 10276">
                      <rect id="長方形_29773" data-name="長方形 29773" width="7.095" height="14.844" fill="#4eb4cc"/>
                    </g>
                    <g id="グループ_10277" data-name="グループ 10277">
                      <path id="パス_79806" data-name="パス 79806" d="M4610.864,1690.539v-3.6h7.169Z" transform="translate(-4610.864 -1686.939)" fill="#a7e8fc"/>
                    </g>
                    <g id="グループ_10278" data-name="グループ 10278">
                      <rect id="長方形_29774" data-name="長方形 29774" width="7.095" height="0.267" fill="#579eaa"/>
                    </g>
                  </g>
                </g>
              </g>
              <g id="グループ_10282" data-name="グループ 10282">
                <rect id="長方形_29775" data-name="長方形 29775" width="21.539" height="2.444" fill="#c4c4c4"/>
              </g>
              <g id="グループ_10283" data-name="グループ 10283" transform="translate(0.003 0.015)" style="mix-blend-mode: multiply;isolation: isolate">
                <path id="パス_79807" data-name="パス 79807" d="M4212.692,1571.457v-10.929H4234.3Z" transform="translate(-4212.692 -1560.528)" fill="#ddd"/>
              </g>
            </g>
          </g>
          <g id="グループ_10298" data-name="グループ 10298" transform="translate(29.449 3.114)">
            <g id="グループ_10291" data-name="グループ 10291">
              <g id="グループ_10286" data-name="グループ 10286">
                <rect id="長方形_29776" data-name="長方形 29776" width="8.268" height="8.871" fill="#e5e5e5"/>
              </g>
              <g id="グループ_10290" data-name="グループ 10290" transform="translate(0.549 0.579)">
                <g id="グループ_10287" data-name="グループ 10287">
                  <rect id="長方形_29777" data-name="長方形 29777" width="7.095" height="7.728" fill="#4eb4cc"/>
                </g>
                <g id="グループ_10288" data-name="グループ 10288">
                  <path id="パス_79808" data-name="パス 79808" d="M5243.587,1690.539v-3.6h7.17Z" transform="translate(-5243.587 -1686.939)" fill="#a7e8fc"/>
                </g>
                <g id="グループ_10289" data-name="グループ 10289">
                  <rect id="長方形_29778" data-name="長方形 29778" width="7.095" height="0.267" fill="#579eaa"/>
                </g>
              </g>
            </g>
            <g id="グループ_10297" data-name="グループ 10297" transform="translate(7.704)">
              <g id="グループ_10292" data-name="グループ 10292">
                <rect id="長方形_29779" data-name="長方形 29779" width="8.268" height="8.871" fill="#e5e5e5"/>
              </g>
              <g id="グループ_10296" data-name="グループ 10296" transform="translate(0.564 0.579)">
                <g id="グループ_10293" data-name="グループ 10293">
                  <rect id="長方形_29780" data-name="長方形 29780" width="7.095" height="7.728" fill="#4eb4cc"/>
                </g>
                <g id="グループ_10294" data-name="グループ 10294">
                  <path id="パス_79809" data-name="パス 79809" d="M5508.864,1690.539v-3.6h7.169Z" transform="translate(-5508.864 -1686.939)" fill="#a7e8fc"/>
                </g>
                <g id="グループ_10295" data-name="グループ 10295">
                  <rect id="長方形_29781" data-name="長方形 29781" width="7.095" height="0.267" fill="#579eaa"/>
                </g>
              </g>
            </g>
          </g>
          <g id="グループ_10299" data-name="グループ 10299" transform="translate(0.417 11.704)">
            <rect id="長方形_29782" data-name="長方形 29782" width="20.685" height="0.497" fill="#c2c5c6"/>
          </g>
        </g>
        <g id="グループ_10306" data-name="グループ 10306" transform="translate(74.838 39.416)">
          <g id="グループ_10301" data-name="グループ 10301">
            <rect id="長方形_29783" data-name="長方形 29783" width="4.097" height="15.987" fill="#e5e5e5"/>
          </g>
          <g id="グループ_10305" data-name="グループ 10305" transform="translate(0.522 0.571)">
            <g id="グループ_10302" data-name="グループ 10302">
              <rect id="長方形_29784" data-name="長方形 29784" width="2.974" height="14.844" fill="#4eb4cc"/>
            </g>
            <g id="グループ_10303" data-name="グループ 10303">
              <path id="パス_79810" data-name="パス 79810" d="M6110.884,2325.554v-3.906h3.052v2.373Z" transform="translate(-6110.884 -2321.648)" fill="#a7e8fc"/>
            </g>
            <g id="グループ_10304" data-name="グループ 10304">
              <rect id="長方形_29785" data-name="長方形 29785" width="2.974" height="0.267" fill="#579eaa"/>
            </g>
          </g>
        </g>
        <g id="グループ_10312" data-name="グループ 10312" transform="translate(74.838 21.254)">
          <g id="グループ_10307" data-name="グループ 10307">
            <rect id="長方形_29786" data-name="長方形 29786" width="4.097" height="8.843" fill="#e5e5e5"/>
          </g>
          <g id="グループ_10311" data-name="グループ 10311" transform="translate(0.522 0.571)">
            <g id="グループ_10308" data-name="グループ 10308">
              <rect id="長方形_29787" data-name="長方形 29787" width="2.974" height="7.7" fill="#4eb4cc"/>
            </g>
            <g id="グループ_10309" data-name="グループ 10309">
              <path id="パス_79811" data-name="パス 79811" d="M6110.884,1701.384v-3.906h3.052v2.373Z" transform="translate(-6110.884 -1697.478)" fill="#a7e8fc"/>
            </g>
            <g id="グループ_10310" data-name="グループ 10310">
              <rect id="長方形_29788" data-name="長方形 29788" width="2.974" height="0.267" fill="#579eaa"/>
            </g>
          </g>
        </g>
        <g id="グループ_10313" data-name="グループ 10313" transform="translate(12.873)">
          <path id="パス_79812" data-name="パス 79812" d="M4030.431,947.36h-59.665l-7.458,15.924h74.581Z" transform="translate(-3963.309 -947.36)" fill="#52a2ce"/>
        </g>
        <g id="グループ_10321" data-name="グループ 10321" transform="translate(12.873)">
          <g id="グループ_10320" data-name="グループ 10320" clip-path="url(#clip-path-2)">
            <g id="グループ_10319" data-name="グループ 10319" transform="translate(-0.001 1.342)">
              <g id="グループ_10314" data-name="グループ 10314" transform="translate(0 11.437)">
                <rect id="長方形_29789" data-name="長方形 29789" width="74.572" height="1.022" fill="#208bba"/>
              </g>
              <g id="グループ_10315" data-name="グループ 10315" transform="translate(0 8.593)">
                <rect id="長方形_29790" data-name="長方形 29790" width="74.572" height="1.022" fill="#208bba"/>
              </g>
              <g id="グループ_10316" data-name="グループ 10316" transform="translate(0 5.729)">
                <rect id="長方形_29791" data-name="長方形 29791" width="74.572" height="1.022" fill="#208bba"/>
              </g>
              <g id="グループ_10317" data-name="グループ 10317" transform="translate(0 2.864)">
                <rect id="長方形_29792" data-name="長方形 29792" width="74.572" height="1.022" fill="#208bba"/>
              </g>
              <g id="グループ_10318" data-name="グループ 10318">
                <rect id="長方形_29793" data-name="長方形 29793" width="74.572" height="1.022" fill="#208bba"/>
              </g>
            </g>
          </g>
        </g>
        <g id="グループ_10324" data-name="グループ 10324" transform="translate(15.115 33.911)">
          <g id="グループ_10322" data-name="グループ 10322" transform="translate(1.983 2.895)" style="mix-blend-mode: multiply;isolation: isolate">
            <path id="パス_79813" data-name="パス 79813" d="M4130.35,2214.207h-21.827v-1.9l21.827,0Z" transform="translate(-4108.522 -2212.309)" fill="#d3cdc1"/>
          </g>
          <g id="グループ_10323" data-name="グループ 10323">
            <rect id="長方形_29794" data-name="長方形 29794" width="23.796" height="2.884" fill="#52a2ce"/>
          </g>
        </g>
        <g id="グループ_10343" data-name="グループ 10343" transform="translate(74.838 30.742)">
          <g id="グループ_10342" data-name="グループ 10342" clip-path="url(#clip-path-3)">
            <g id="グループ_10328" data-name="グループ 10328" transform="translate(2.276 2.58)">
              <g id="グループ_10325" data-name="グループ 10325" transform="translate(8.799 9.147)">
                <rect id="長方形_29795" data-name="長方形 29795" width="2.051" height="20.037" fill="#996759"/>
              </g>
              <g id="グループ_10326" data-name="グループ 10326" transform="translate(8.799 12.679)">
                <path id="パス_79814" data-name="パス 79814" d="M6475.617,2538.979l-2.052-1.212v-9.441h2.052Z" transform="translate(-6473.565 -2528.326)" fill="#82564b"/>
              </g>
              <g id="グループ_10327" data-name="グループ 10327">
                <path id="パス_79815" data-name="パス 79815" d="M6192.865,2105.192a5.741,5.741,0,0,0-3.785-5.322c.012-.135.02-.271.02-.408a5.124,5.124,0,0,0-4.08-4.854,3.587,3.587,0,0,0-6.355-.245,3.31,3.31,0,0,0-3.18,3.169,2.911,2.911,0,0,0,.055.553,4.79,4.79,0,0,0-2.463,2.952,3.968,3.968,0,0,0,.1,2.365,5.282,5.282,0,0,0-2.01,4.1,5.687,5.687,0,0,0,5.891,5.458,6.214,6.214,0,0,0,2.961-.741,5.814,5.814,0,0,0,4.159,1.7,5.557,5.557,0,0,0,5.336-3.587A5.711,5.711,0,0,0,6192.865,2105.192Z" transform="translate(-6171.165 -2092.557)" fill="#7abc35"/>
              </g>
            </g>
            <g id="グループ_10341" data-name="グループ 10341" transform="translate(5.029 25.912)">
              <g id="グループ_10329" data-name="グループ 10329" transform="translate(0.864 0.993)">
                <rect id="長方形_29796" data-name="長方形 29796" width="12.632" height="0.756" fill="#e0dbd5"/>
              </g>
              <g id="グループ_10330" data-name="グループ 10330" transform="translate(1.727 0.993)">
                <rect id="長方形_29797" data-name="長方形 29797" width="0.324" height="0.756" fill="#c1bdb9"/>
              </g>
              <g id="グループ_10331" data-name="グループ 10331" transform="translate(0.864 2.504)">
                <rect id="長方形_29798" data-name="長方形 29798" width="12.632" height="0.756" fill="#e0dbd5"/>
              </g>
              <g id="グループ_10332" data-name="グループ 10332">
                <path id="パス_79816" data-name="パス 79816" d="M6267.5,2899.234a.8.8,0,0,1-.865.684h0a.8.8,0,0,1-.863-.684v-4.1a.8.8,0,0,1,.863-.683h0a.8.8,0,0,1,.865.683Z" transform="translate(-6265.771 -2894.451)" fill="#efe8e1"/>
              </g>
              <g id="グループ_10333" data-name="グループ 10333" transform="translate(4.211)">
                <path id="パス_79817" data-name="パス 79817" d="M6412.213,2899.234a.8.8,0,0,1-.864.684h0a.8.8,0,0,1-.862-.684v-4.1a.794.794,0,0,1,.862-.683h0a.8.8,0,0,1,.864.683Z" transform="translate(-6410.486 -2894.451)" fill="#efe8e1"/>
              </g>
              <g id="グループ_10334" data-name="グループ 10334" transform="translate(8.421)">
                <path id="パス_79818" data-name="パス 79818" d="M6556.925,2899.234a.8.8,0,0,1-.863.684h0a.8.8,0,0,1-.863-.684v-4.1a.8.8,0,0,1,.863-.683h0a.8.8,0,0,1,.863.683Z" transform="translate(-6555.198 -2894.451)" fill="#efe8e1"/>
              </g>
              <g id="グループ_10335" data-name="グループ 10335" transform="translate(12.632)">
                <path id="パス_79819" data-name="パス 79819" d="M6701.643,2899.234a.8.8,0,0,1-.863.684h0a.8.8,0,0,1-.864-.684v-4.1a.8.8,0,0,1,.864-.683h0a.8.8,0,0,1,.863.683Z" transform="translate(-6699.915 -2894.451)" fill="#efe8e1"/>
              </g>
              <g id="グループ_10336" data-name="グループ 10336" transform="translate(1.727 2.504)">
                <rect id="長方形_29799" data-name="長方形 29799" width="0.324" height="0.756" fill="#c1bdb9"/>
              </g>
              <g id="グループ_10337" data-name="グループ 10337" transform="translate(5.938 0.993)">
                <rect id="長方形_29800" data-name="長方形 29800" width="0.324" height="0.756" fill="#c1bdb9"/>
              </g>
              <g id="グループ_10338" data-name="グループ 10338" transform="translate(5.938 2.504)">
                <rect id="長方形_29801" data-name="長方形 29801" width="0.324" height="0.756" fill="#c1bdb9"/>
              </g>
              <g id="グループ_10339" data-name="グループ 10339" transform="translate(10.149 0.993)">
                <rect id="長方形_29802" data-name="長方形 29802" width="0.324" height="0.756" fill="#c1bdb9"/>
              </g>
              <g id="グループ_10340" data-name="グループ 10340" transform="translate(10.149 2.504)">
                <rect id="長方形_29803" data-name="長方形 29803" width="0.324" height="0.756" fill="#c1bdb9"/>
              </g>
            </g>
          </g>
        </g>
      </g>
      <g id="グループ_10345" data-name="グループ 10345" transform="translate(67.769 30.206)">
        <path id="パス_79820" data-name="パス 79820" d="M5859.065,1613.954c-3.761-.188-4.219.129-5.361,3.717.188-3.761-.128-4.218-3.717-5.361,3.762.188,4.218-.129,5.361-3.717C5855.16,1612.354,5855.477,1612.811,5859.065,1613.954Z" transform="translate(-5849.986 -1608.593)" fill="#ffd525"/>
      </g>
      <g id="グループ_10346" data-name="グループ 10346" transform="translate(25.3 4.263)">
        <path id="パス_79821" data-name="パス 79821" d="M4395.146,721.306c-2.124-1.338-2.492-1.3-4.33.408,1.339-2.124,1.3-2.493-.407-4.329,2.124,1.338,2.493,1.3,4.33-.408C4393.4,719.1,4393.436,719.47,4395.146,721.306Z" transform="translate(-4390.409 -716.977)" fill="#ffd525"/>
      </g>
      <g id="グループ_10347" data-name="グループ 10347" transform="translate(5.936 34.641)">
        <circle id="楕円形_454" data-name="楕円形 454" cx="3.901" cy="3.901" r="3.901" transform="translate(0 7.135) rotate(-66.145)" fill="#ffd525"/>
      </g>
      <g id="グループ_10348" data-name="グループ 10348" transform="translate(25.358 56.295)">
        <path id="パス_79822" data-name="パス 79822" d="M4397.016,2508.123c-1.93-.217-2.176-.068-2.878,1.742.217-1.93.067-2.176-1.743-2.878,1.93.217,2.176.068,2.878-1.742C4395.056,2507.174,4395.206,2507.42,4397.016,2508.123Z" transform="translate(-4392.395 -2505.244)" fill="#ffd525"/>
      </g>
      <g id="グループ_10349" data-name="グループ 10349" transform="translate(59.313 55.722)">
        <path id="パス_79823" data-name="パス 79823" d="M5562.588,2489.766c-1.106-1.6-1.381-1.684-3.207-1.023,1.6-1.106,1.684-1.379,1.022-3.206,1.107,1.6,1.38,1.684,3.207,1.022C5562.012,2487.666,5561.927,2487.939,5562.588,2489.766Z" transform="translate(-5559.382 -2485.537)" fill="#ffd525"/>
      </g>
      <g id="グループ_10350" data-name="グループ 10350" transform="translate(78.695 0)">
        <path id="パス_79824" data-name="パス 79824" d="M6234.032,576.567c-3.642-1.032-4.162-.825-6.091,2.433,1.032-3.643.826-4.163-2.433-6.092,3.642,1.033,4.162.825,6.092-2.433C6230.568,574.118,6230.774,574.638,6234.032,576.567Z" transform="translate(-6225.508 -570.475)" fill="#ffd525"/>
      </g>
    </g>
  </g>
</svg>
