<svg xmlns="http://www.w3.org/2000/svg" width="200" height="120" viewBox="0 0 200 120"><g transform="translate(-176 -3923)"><rect width="200" height="120" rx="10" transform="translate(176 3923)" fill="#dcdcdc" opacity="0"/><g transform="translate(63.124 -35.881)"><g transform="translate(157.064 3969.547)"><g transform="translate(0 0)"><path d="M3574.994,4465.351c0,.811-24.4,1.47-54.507,1.47s-54.507-.659-54.507-1.47,24.4-1.469,54.507-1.469S3574.994,4464.541,3574.994,4465.351Z" transform="translate(-3465.37 -4368.153)" fill="#b4b4b5"/><g transform="translate(75.285 89.772)"><path d="M3634.463,4463.95s-5.066.231-6.306.23-3.893.03-4.292-.369a2.118,2.118,0,0,1-.248-.306,2.214,2.214,0,0,0,.6,1.144c.4.4,2.7.365,3.938.368s6.306-.231,6.306-.231,2.794-.3,2.938-1.128a4.6,4.6,0,0,0,.06-.746C3636.983,4463.617,3634.463,4463.95,3634.463,4463.95Z" transform="translate(-3623.566 -4457.414)" fill="#dbdcdc"/><path d="M3630.218,4452.157a5.851,5.851,0,0,1-2.931,1.7c-2.372.8-2.878,1.009-3.511,2.126a1.873,1.873,0,0,0-.216,1.425,2.146,2.146,0,0,0,.248.308c.4.4,3.053.365,4.291.368s6.308-.231,6.308-.231,2.52-.331,3-1.038a24.263,24.263,0,0,0-.887-5.5C3635.246,4452.325,3632.121,4452.556,3630.218,4452.157Z" transform="translate(-3623.509 -4451.318)" fill="#f5f6f7"/></g><g transform="translate(80.063 92.841)"><path d="M3634.318,4460.211l-.729.473a3.6,3.6,0,0,1,.867,2.054c.262-.006.554-.017.857-.028A4.013,4.013,0,0,0,3634.318,4460.211Z" transform="translate(-3633.589 -4459.064)" fill="#00254d"/><path d="M3636.434,4458.622a7.294,7.294,0,0,1,1.21,2.784c.595-.021,1.2-.046,1.736-.07a7.757,7.757,0,0,0-1.395-3.546Z" transform="translate(-3635.086 -4457.791)" fill="#00254d"/></g><g transform="translate(99.273 83.228)"><path d="M3682.472,4440.332c-.13-.129-.254-.245-.376-.355a5.953,5.953,0,0,1,.042,3.279,52.919,52.919,0,0,1-1.711,5.533c-.562,1.115-1.6,3.084-2.147,3.251a2.283,2.283,0,0,1-1.9-.153,2.1,2.1,0,0,0,2.386.577c.543-.167,1.774-1.775,2.335-2.892a52.761,52.761,0,0,0,1.71-5.534S3683.511,4441.368,3682.472,4440.332Z" transform="translate(-3675.305 -4438.81)" fill="#dbdcdc"/><path d="M3680.9,4438.681a6.882,6.882,0,0,0-1.678-1.167c-.3,1.689-2.08,5.078-5.112,4.844a7.9,7.9,0,0,1,.568,3.223c-.178,2.546-.3,3.8.431,4.916.022.033.05.065.075.1a2.278,2.278,0,0,0,1.9.153c.544-.167,1.584-2.136,2.147-3.251a52.988,52.988,0,0,0,1.711-5.532A5.961,5.961,0,0,0,3680.9,4438.681Z" transform="translate(-3674.112 -4437.514)" fill="#f5f6f7"/></g><g transform="translate(74.018 46.353)"><path d="M3630.125,4378.862c-.362-4.35-.344-9.528-.8-11.915-.169-.887-.382-.215-.424-1.951a43.291,43.291,0,0,0,7.041-.5c6.856-1.374,7.311-3.575,7.311-3.575s.042.187.087.457a5.206,5.206,0,0,0-.422-1.652c-1.239,3.77-8.729,4.163-12.731,4.083-3.619-.071-5.394-.892-6.676-2.356a165.286,165.286,0,0,0-2.674,19.925c-.12,5.284,6.254,21.478,6.506,21.89.848,1.364,7.737,1.266,8.3-.862.494-1.868-5.042-15.22-5.222-17.583C3630.265,4382.858,3630.089,4380.572,3630.125,4378.862Z" transform="translate(-3620.835 -4359.725)" fill="#ccc6ac"/></g><path d="M3650.265,4385.65c-1.294-1.114,0-6.384.672-11.693.436-3.463,1.253-6.392,1.449-9.958a7.735,7.735,0,0,0-.182-1.755s-.456,2.2-7.312,3.575a43.331,43.331,0,0,1-7.041.5c.043,1.735.255,1.062.424,1.951.59,3.087.387,10.85,1.239,15.445.575,3.1,3.383,8.23,8.166,12.952,2.755,2.723,5.942,5.942,7.217,6.089,3.9.447,5.792-5.091,5.195-5.7C3658.608,4395.527,3653.527,4388.447,3650.265,4385.65Z" transform="translate(-3555.767 -4314.696)" fill="#e2dcc3"/><path d="M3622.56,4323.994c-1.48-9.626-2.26-16.256-6.367-24.227a4.772,4.772,0,0,0-.927-1.193,5.838,5.838,0,0,0-3.286-2.134,14.607,14.607,0,0,0-2.7-.931,11.276,11.276,0,0,0-2.146-.254,3.607,3.607,0,0,1-.591,1.753,8.688,8.688,0,0,1-2.685,1.695,3.185,3.185,0,0,1-1.681-2.306,5.92,5.92,0,0,1-1.567-.134c-.18-.04-.352-.093-.523-.146a10.858,10.858,0,0,0-3.639,2.139,7.137,7.137,0,0,0-2.216,3.4c-1.4,5.746-1.285,7.845-2.1,9.554-.939,1.947-6.14,5.178-10.232,7.017l1.925-.116c1.189.151,2.772,1.007,2.618,2.194l-.059,1.373a2.038,2.038,0,0,1-.476,1.019c3.834-1.742,9.826-4.4,11.208-7.269a18.167,18.167,0,0,0,.7-1.724c.5,1.375.858,2.648,1.169,3.85-.6.337-1.152.633-1.6.872,1.193.132,2.786.951,2.657,2.142l-.036,1.374a2.851,2.851,0,0,1-2.857,2.179l-1.123-.069a5.111,5.111,0,0,0,4.24-.309c.073-.041.23-.116.444-.216a16.342,16.342,0,0,0,.887,1.874c1.559,2.8,2.995,4.4,8.113,4.5C3614.28,4329.992,3623.4,4329.463,3622.56,4323.994Z" transform="translate(-3526.339 -4279.463)" fill="#00254d"/><path d="M3630.022,4295.708c-.561-1.231-1.524-1.277-1.5-1.54,0,.024,0,.052-.007.077-.017.19-.032.4-.06.618,0,.022,0,.044-.008.068-.009.063-.021.127-.032.193l-.016.084c-.013.064-.03.129-.048.194-.008.032-.015.064-.025.1-.019.064-.044.132-.068.2-.013.033-.022.068-.036.1-.028.072-.064.144-.1.217-.016.032-.028.063-.046.1a3.525,3.525,0,0,1-.191.323,8.7,8.7,0,0,1-2.684,1.692,3.176,3.176,0,0,1-1.68-2.3,5.99,5.99,0,0,1-.916-.032,7.8,7.8,0,0,0,.113,3.279c.258.867,1.279,4.146,2.233,4.254.368.04,3.59-3.442,4.181-4.466C3629.572,4298.107,3630.4,4296.55,3630.022,4295.708Z" transform="translate(-3547.681 -4278.892)" fill="#00254d"/><path d="M3623.777,4278.857c-.055-1.335-2.865-2.549-4.366-2.668-1.839-.15-3.613.544-5.252.2-1.08-.224-1.482-.947-2.519-1.564a9.3,9.3,0,0,0-.628,1.866c-.9,4.067.938,7.975,4.8,8.826a5.919,5.919,0,0,0,1.567.135,3.187,3.187,0,0,0,1.68,2.306,8.687,8.687,0,0,0,2.684-1.7,4.136,4.136,0,0,0,.631-2.2l-.387-1.223a12.555,12.555,0,0,0,1.624-3.363C3623.673,4279.266,3623.725,4279.062,3623.777,4278.857Z" transform="translate(-3541.533 -4268.719)" fill="#fbd6a0"/><path d="M3619.835,4267.364a5.7,5.7,0,0,0-4.055-4.916,7.421,7.421,0,0,0-6.845.711c-1.738,1.089-2.112,2.584-2.579,3.84l-2.413.05c-.688.01-1.237.021-1.482.032l-.3.006c.063,0,.121,0,.183,0-1.1.113-.246,1.9.939,2.375a8.542,8.542,0,0,0,3.022.437,5.147,5.147,0,0,1,.712-1.8c.977.6,1.385,1.3,2.435,1.514,1.639.343,3.414-.353,5.253-.2,1.5.119,4.315,1.336,4.366,2.672A10.232,10.232,0,0,0,3619.835,4267.364Z" transform="translate(-3536.822 -4261.942)" fill="#00254d"/><g transform="translate(51.034 38.65)"><g transform="translate(0 3.567)"><path d="M3574.02,4351.089l0-.09a6.092,6.092,0,0,0-1.512,2.352c-.046.129-.1.275-.16.428v4.331c.3-.883.7-1.908,1.04-2.77.221-.566.42-1.079.562-1.468a4.731,4.731,0,0,1,.783-1.379A1.341,1.341,0,0,1,3574.02,4351.089Z" transform="translate(-3572.35 -4350.999)" fill="#dbdcdc"/></g><path d="M3583.2,4347.042a2.856,2.856,0,0,1-2.9,2.125l-2.282-.185c-1.193-.153-2.314-.66-2.16-1.851l.054-2.055c.154-1.191,1.436-1.631,2.629-1.476l2.1-.126c1.188.152,2.771,1.007,2.618,2.194Z" transform="translate(-3574.187 -4343.475)" fill="#fbd6a0"/></g><g transform="translate(57.886 38.964)"><path d="M3611.942,4347.655a2.852,2.852,0,0,1-2.857,2.178l-2.286-.142c-1.194-.127-2.326-.616-2.195-1.807l.019-2.054c.13-1.2,1.4-1.66,2.6-1.529l2.094-.164c1.193.13,2.792.951,2.662,2.144Z" transform="translate(-3596.162 -4344.137)" fill="#fbd6a0"/><path d="M3587.573,4348.16a.766.766,0,1,0,0,1.531h7.678l.014-1.531Z" transform="translate(-3586.805 -4346.253)" fill="#dbdcdc"/><g transform="translate(11.555 2.61)"><path d="M3611.932,4412.754h-.75v16.391h1.533v-16.727A1.081,1.081,0,0,1,3611.932,4412.754Z" transform="translate(-3611.182 -4382.661)" fill="#dbdcdc"/><path d="M3615.028,4349.919a.767.767,0,0,0-1.177.982,2,2,0,0,1,.306,1.753c-.155.455-.41,1.107-.681,1.8-.412,1.051-.879,2.241-1.165,3.181l-.036.116a19.957,19.957,0,0,0-1.093,5.6v5.623h.75a1.078,1.078,0,0,1,.783.337v-5.96a18.439,18.439,0,0,1,1.027-5.158l.036-.116c.267-.882.722-2.042,1.125-3.067.278-.706.539-1.375.706-1.864A3.515,3.515,0,0,0,3615.028,4349.919Z" transform="translate(-3611.182 -4349.644)" fill="#dbdcdc"/></g></g><path d="M3609.314,4390.423h-3.11v10.764h3.11a1.089,1.089,0,0,0,1.088-1.089v-8.589A1.088,1.088,0,0,0,3609.314,4390.423Z" transform="translate(-3539.123 -4329.517)" fill="#69757c"/><g transform="translate(5.314 91.058)"><g transform="translate(1.683 1.926)"><path d="M3480.21,4459.254a3.451,3.451,0,0,1,.391-1.162h-1.148A2.488,2.488,0,0,1,3480.21,4459.254Z" transform="translate(-3479.453 -4458.092)" fill="#23456d"/></g><g transform="translate(2.383 1.428)"><path d="M3486.976,4457.044a8.46,8.46,0,0,1,.256,2.2c0,1.052-.464,1.609-1.037,1.609a.426.426,0,0,1-.075-.012.4.4,0,0,1-.076.012c-.368,0-.647-.324-.877-.759-.249-.477-.454-1.208-.735-1.785a4.074,4.074,0,0,0-.132,1.035c0,1.5.781,2.715,1.744,2.715s1.748-1.214,1.748-2.715A3.262,3.262,0,0,0,3486.976,4457.044Z" transform="translate(-3482.703 -4457.044)" fill="#3e3a39"/><g transform="translate(0 0.497)"><path d="M3482.534,4459.891a4.077,4.077,0,0,1,.129-1.027,1.872,1.872,0,0,0-.584-.771h-.7a3.647,3.647,0,0,0-.447,1.8c0,1.5.782,2.715,1.746,2.715h1.5a.3.3,0,0,0,.051-.008C3483.287,4462.558,3482.534,4461.365,3482.534,4459.891Z" transform="translate(-3480.932 -4458.092)" fill="#231815"/></g></g><path d="M3482.655,4454.031H3479.8a6.187,6.187,0,0,0,1.684,1.925c.644.413.924,1.8,1.316,2.55.23.434.509.76.878.76a.48.48,0,0,0,.076-.013.542.542,0,0,0,.076.013c.571,0,1.036-.56,1.036-1.611,0-2.737-.939-3.624-.939-3.624Z" transform="translate(-3477.951 -4454.031)" fill="#4878b2"/><path d="M3477.585,4455.956a6.16,6.16,0,0,1-1.683-1.925h1.847a6.172,6.172,0,0,0,1.684,1.925Z" transform="translate(-3475.902 -4454.031)" fill="#3e699d"/><path d="M3487.5,4459.612c-.379,0-.689.48-.689,1.073s.311,1.075.689,1.075c.094,0,.9-.009.9-1.075S3487.594,4459.612,3487.5,4459.612Z" transform="translate(-3481.64 -4456.966)" fill="#bebfbf"/></g><g transform="translate(31.871 91.058)"><g transform="translate(2.048)"><path d="M3538.575,4454.031h-2.327l.26,3.624c0,.888.462,1.611,1.034,1.611a.544.544,0,0,0,.075-.013.474.474,0,0,0,.075.013c.572,0,1.036-.723,1.036-1.611v-3.624Z" transform="translate(-3536.248 -4454.031)" fill="#4878b2"/></g><path d="M3534.475,4454.031h-1.6l.123,1.714a1.471,1.471,0,0,1,1.172-.708h.375Z" transform="translate(-3532.427 -4454.031)" fill="#23456d"/><g transform="translate(0 1.006)"><path d="M3538.227,4457.667v1.889c0,.888-.462,1.609-1.035,1.609a.619.619,0,0,1-.075-.012.715.715,0,0,1-.075.012c-.572,0-1.035-.721-1.035-1.609l-.137-1.91a3.521,3.521,0,0,0-.575,2.009c0,1.5.783,2.715,1.747,2.715s1.746-1.214,1.746-2.715A3.533,3.533,0,0,0,3538.227,4457.667Z" transform="translate(-3533.698 -4456.938)" fill="#3e3a39"/><path d="M3533.528,4458.871a3.508,3.508,0,0,1,.571-2l-.052-.717h-.375c-.965,0-1.745,1.219-1.745,2.717s.781,2.716,1.745,2.716h1.5c.017,0,.033-.007.05-.008C3534.283,4461.538,3533.528,4460.343,3533.528,4458.871Z" transform="translate(-3531.927 -4456.153)" fill="#231815"/></g><path d="M3538.494,4459.612c-.379,0-.69.48-.69,1.073s.31,1.075.69,1.075c.1,0,.9-.009.9-1.075S3538.588,4459.612,3538.494,4459.612Z" transform="translate(-3535.018 -4456.966)" fill="#bebfbf"/></g><g transform="translate(37.9 92.984)"><path d="M3545.4,4459.254a3.456,3.456,0,0,1,.391-1.162h-1.148A2.483,2.483,0,0,1,3545.4,4459.254Z" transform="translate(-3544.645 -4458.092)" fill="#23456d"/></g><g transform="translate(38.601 92.487)"><path d="M3552.168,4457.044a8.5,8.5,0,0,1,.255,2.2c0,1.052-.464,1.609-1.035,1.609a.248.248,0,0,0-.154,0c-.368,0-.647-.324-.876-.759-.25-.477-.455-1.208-.735-1.785a4.041,4.041,0,0,0-.133,1.035c0,1.5.781,2.715,1.744,2.715s1.749-1.214,1.749-2.715A3.268,3.268,0,0,0,3552.168,4457.044Z" transform="translate(-3547.895 -4457.044)" fill="#595757"/><g transform="translate(0 0.497)"><path d="M3547.726,4459.891a4.032,4.032,0,0,1,.13-1.027,1.862,1.862,0,0,0-.585-.771h-.7a3.647,3.647,0,0,0-.447,1.8c0,1.5.782,2.715,1.746,2.715h1.5a.289.289,0,0,0,.051-.008C3548.479,4462.558,3547.726,4461.365,3547.726,4459.891Z" transform="translate(-3546.124 -4458.092)" fill="#231815"/></g></g><path d="M3547.846,4454.031h-2.855a6.17,6.17,0,0,0,1.684,1.925c.643.413.924,1.8,1.317,2.55.229.434.508.76.876.76a.483.483,0,0,0,.077-.013.513.513,0,0,0,.076.013c.571,0,1.035-.56,1.035-1.611,0-2.737-.938-3.624-.938-3.624Z" transform="translate(-3506.927 -4362.972)" fill="#4878b2"/><path d="M3542.778,4455.956a6.154,6.154,0,0,1-1.683-1.925h1.846a6.184,6.184,0,0,0,1.684,1.925Z" transform="translate(-3504.878 -4362.972)" fill="#3e699d"/><path d="M3552.692,4459.612c-.378,0-.689.48-.689,1.073s.311,1.075.689,1.075c.095,0,.9-.009.9-1.075S3552.787,4459.612,3552.692,4459.612Z" transform="translate(-3510.615 -4365.908)" fill="#bebfbf"/><path d="M3497.688,4449.625v-.834a1.09,1.09,0,0,1,1.088-1.088h-33a1.089,1.089,0,0,0-1.085,1.088v.834a1.088,1.088,0,0,0,1.085,1.086h33A1.089,1.089,0,0,1,3497.688,4449.625Z" transform="translate(-3464.694 -4359.645)" fill="#00447d"/><g transform="translate(32.994 88.059)"><path d="M1.5,0H38.771a1.5,1.5,0,0,1,1.5,1.5v0a1.506,1.506,0,0,1-1.506,1.506H1.505A1.505,1.505,0,0,1,0,1.5v0A1.5,1.5,0,0,1,1.5,0Z" fill="#00579b"/></g><g transform="translate(62.771 91.058)"><path d="M3600.391,4454.031h-2.328l.258,3.624c0,.888.464,1.611,1.036,1.611a.482.482,0,0,0,.073-.013.576.576,0,0,0,.075.013c.574,0,1.038-.723,1.038-1.611v-3.624Z" transform="translate(-3597.613 -4454.031)" fill="#2d527e"/><g transform="translate(0 1.006)"><path d="M3603.967,4458.871c0,1.5-.78,2.716-1.743,2.716s-1.749-1.214-1.749-2.716.784-2.717,1.749-2.717S3603.967,4457.373,3603.967,4458.871Z" transform="translate(-3598.88 -4456.153)" fill="#595757"/><path d="M3598.711,4458.871c0-1.473.755-2.667,1.7-2.708-.018,0-.034-.01-.052-.01h-1.5c-.964,0-1.746,1.219-1.746,2.717s.782,2.716,1.746,2.716h1.5c.018,0,.034-.007.052-.008C3599.466,4461.538,3598.711,4460.343,3598.711,4458.871Z" transform="translate(-3597.111 -4456.153)" fill="#231815"/></g><path d="M3603.761,4454.031h-2.328l.259,3.624c0,.888.462,1.611,1.034,1.611a.484.484,0,0,0,.074-.013.52.52,0,0,0,.075.013c.572,0,1.036-.723,1.036-1.611v-3.624Z" transform="translate(-3599.385 -4454.031)" fill="#5084c4"/><path d="M3603.681,4459.612c-.384,0-.691.48-.691,1.073s.308,1.075.691,1.075c.093,0,.9-.009.9-1.075S3603.773,4459.612,3603.681,4459.612Z" transform="translate(-3600.202 -4456.966)" fill="#dbdcdc"/></g><g transform="translate(6.837 54.926)"><path d="M3479.6,4377.906h32.056v0a.433.433,0,0,0-.411.42h-32.077A.434.434,0,0,1,3479.6,4377.906Z" transform="translate(-3479.145 -4377.859)" fill="#fbd6a0"/><path d="M3546.838,4378.33a.434.434,0,0,1,.433-.424h27.262a.43.43,0,0,1,.431.424Z" transform="translate(-3514.735 -4377.859)" fill="#b09060"/><path d="M3479.6,4447.255h32.056v0a.431.431,0,0,1-.411-.42h-32.077A.432.432,0,0,0,3479.6,4447.255Z" transform="translate(-3479.145 -4414.111)" fill="#cea75f"/><path d="M3546.838,4446.832a.432.432,0,0,0,.433.423h27.262a.428.428,0,0,0,.431-.423Z" transform="translate(-3514.735 -4414.111)" fill="#90764d"/><rect width="28.176" height="32.248" transform="translate(32.068 0.471)" fill="#c4a064"/><rect width="32.068" height="32.248" transform="translate(0 0.471)" fill="#eabe6c"/><rect width="4.265" height="2.841" transform="translate(44.186)" fill="#eabe6c"/><rect width="4.265" height="2.843" transform="translate(44.186 30.301)" fill="#eabe6c"/></g><g transform="translate(10.263 57.99)"><path d="M3487.291,4384.271a.214.214,0,0,1-.062.141.23.23,0,0,1-.159.07.254.254,0,0,1-.159-.07.215.215,0,0,1-.063-.141h-.5v7.772h.5a.209.209,0,0,1,.069-.161.224.224,0,0,1,.319,0,.2.2,0,0,1,.07.161h14.668v-7.772Zm-.222,7.4a.234.234,0,0,1,0-.468.234.234,0,0,1,0,.468Zm0-.606a.23.23,0,0,1-.229-.229.235.235,0,0,1,.229-.231.23.23,0,0,1,.229.231A.225.225,0,0,1,3487.07,4391.069Zm0-.6a.23.23,0,0,1-.229-.228.235.235,0,0,1,.229-.232.23.23,0,0,1,.229.232A.225.225,0,0,1,3487.07,4390.47Zm0-.6a.23.23,0,0,1,0-.46.23.23,0,0,1,0,.46Zm0-.6a.235.235,0,0,1-.229-.229.23.23,0,0,1,.229-.229.225.225,0,0,1,.229.229A.23.23,0,0,1,3487.07,4389.274Zm0-.6a.237.237,0,0,1-.229-.23.228.228,0,0,1,.229-.229.223.223,0,0,1,.229.229A.231.231,0,0,1,3487.07,4388.677Zm0-.606a.23.23,0,0,1-.229-.23.237.237,0,0,1,.229-.231.232.232,0,0,1,.229.231A.226.226,0,0,1,3487.07,4388.071Zm0-.6a.23.23,0,0,1-.229-.23.235.235,0,0,1,.229-.23.23.23,0,0,1,.229.23A.225.225,0,0,1,3487.07,4387.474Zm0-.6a.229.229,0,0,1-.229-.229.236.236,0,0,1,.229-.231.231.231,0,0,1,.229.231A.225.225,0,0,1,3487.07,4386.874Zm0-.6a.23.23,0,0,1,0-.459.23.23,0,0,1,0,.459Zm0-.6a.237.237,0,0,1-.229-.232.23.23,0,0,1,.229-.23.225.225,0,0,1,.229.23A.232.232,0,0,1,3487.07,4385.68Zm0-.6a.235.235,0,0,1-.229-.23.23.23,0,0,1,.229-.23.225.225,0,0,1,.229.23A.23.23,0,0,1,3487.07,4385.081Z" transform="translate(-3486.345 -4384.271)" fill="#fff"/><g transform="translate(2.107 0.962)"><path d="M3497.627,4390.968h-4.14a.254.254,0,0,1,0-.508h4.14a.254.254,0,0,1,0,.508Z" transform="translate(-3492.075 -4388.488)" fill="#c8c9ca"/><path d="M3495.182,4386.809h-4.139a.254.254,0,1,1,0-.507h4.139a.254.254,0,1,1,0,.507Z" transform="translate(-3490.789 -4386.302)" fill="#c8c9ca"/><path d="M3497.128,4388.63h-6.085a.253.253,0,1,1,0-.507h6.085a.253.253,0,0,1,0,.507Z" transform="translate(-3490.789 -4387.259)" fill="#c8c9ca"/><path d="M3511.325,4390.968h-2.662a.254.254,0,0,1,0-.508h2.662a.254.254,0,0,1,0,.508Z" transform="translate(-3500.057 -4388.488)" fill="#c8c9ca"/><g transform="translate(0 3.377)"><path d="M3497.627,4398.088h-4.14a.254.254,0,0,1,0-.507h4.14a.254.254,0,1,1,0,.507Z" transform="translate(-3492.075 -4395.611)" fill="#c8c9ca"/><path d="M3495.182,4393.934h-4.139a.254.254,0,1,1,0-.508h4.139a.254.254,0,0,1,0,.508Z" transform="translate(-3490.789 -4393.426)" fill="#c8c9ca"/><path d="M3497.128,4395.75h-6.085a.254.254,0,1,1,0-.507h6.085a.254.254,0,0,1,0,.507Z" transform="translate(-3490.789 -4394.381)" fill="#c8c9ca"/></g></g><path d="M3502.381,4385.089h-12.515a.679.679,0,0,0-.678.677v5.653a.68.68,0,0,0,.678.679h12.515a.679.679,0,0,0,.677-.679v-5.653A.679.679,0,0,0,3502.381,4385.089Zm.474.677v1.086h-5.5v-1.56h5.025A.475.475,0,0,1,3502.854,4385.766Zm-5.5,4.5v-1.255h5.5v1.255Zm0-1.355v-1.953h5.5v1.953Zm-7.49-3.614h7.288v3.241h-7.763v-2.768A.475.475,0,0,1,3489.866,4385.292Zm-.475,6.126v-2.782h7.763v3.256h-7.288A.475.475,0,0,1,3489.391,4391.419Z" transform="translate(-3487.84 -4384.702)" fill="#ed85a7"/></g><g transform="translate(72.532 23.039)"><path d="M3625.872,4320.249c1.591-2.362,2.3-6.086,2.535-8.3a14.025,14.025,0,0,0,.052-1.406,18.294,18.294,0,0,0-.884,3.262c-.441,2.206-1.21,5.705-3.161,7.084a70.719,70.719,0,0,1-6.713,4.214s.051.171.139.483C3620.823,4323.925,3625.147,4321.325,3625.872,4320.249Z" transform="translate(-3617.701 -4310.542)" fill="#fff"/><path d="M3637.626,4312.9a19.054,19.054,0,0,1-3.454,11.379c-2.216,2.89-3.618,3.521-5.7,4.984a55.781,55.781,0,0,1-6.822,3.531c.11.3.187.5.187.5a47.758,47.758,0,0,0,8.322-4.5,17.126,17.126,0,0,0,4.685-4.559C3637.949,4319.457,3638.155,4315.994,3637.626,4312.9Z" transform="translate(-3619.777 -4311.783)" fill="#fff"/></g><g transform="translate(102.442 87.872)"><path d="M3681.309,4453.939a3.7,3.7,0,0,1,2.345-.2c.084-.271.172-.554.252-.839a3.947,3.947,0,0,0-2.6.088C3681.319,4453.32,3681.323,4453.644,3681.309,4453.939Z" transform="translate(-3681.064 -4450.15)" fill="#00254d"/><path d="M3683.884,4449.219c.195-.688.365-1.311.469-1.7a6.553,6.553,0,0,0-3.557.107c.063.449.146,1.122.2,1.822A6.429,6.429,0,0,1,3683.884,4449.219Z" transform="translate(-3680.797 -4447.309)" fill="#00254d"/></g><path d="M3635.845,4297.923a3.7,3.7,0,0,1-1.422,1.9s5.351.99,5.089,4.3c0,0,2.626-.473,3.415.735C3642.926,4304.855,3643.265,4299.715,3635.845,4297.923Z" transform="translate(-3553.964 -4280.866)" fill="#fff"/><path d="M3615.122,4298.264s-3.783,1.681-4.519,3l-.473-.525s.683-1.577,4.257-3.153C3614.386,4297.582,3615.174,4298.212,3615.122,4298.264Z" transform="translate(-3541.187 -4280.687)" fill="#fff"/></g><path d="M3630.641,4311.636s-.789,7.723.21,9.931l.473.105,1.524-1.524a49.531,49.531,0,0,1-.105-6.411l1.892.262.262-2.155S3631.114,4311.53,3630.641,4311.636Z" transform="translate(-3551.82 -4288.067)" fill="#fff"/><path d="M3613.435,4311.395a26.714,26.714,0,0,1,4.971.023s.307,9.388-.4,10.555l-1.805-.106.184-8.7-2.882.033Z" transform="translate(-3542.926 -4287.889)" fill="#fff"/><path d="M3640.778,4331.229l-2.733-1.944s-2.89,4.938-6.41,6.253l2,2.943,3.31-2.523,2.417-2.469Z" transform="translate(-3552.498 -4297.361)" fill="#fff"/><path d="M3600.42,4323.19a10.382,10.382,0,0,1-.74,2.716,10.994,10.994,0,0,1-3.429,3.2l.9.8c5.149-2.364,4.834-6.517,4.834-6.517Z" transform="translate(-3533.888 -4294.156)" fill="#fff"/><path d="M3620.845,4262.448a7.422,7.422,0,0,0-6.845.711,6.136,6.136,0,0,0-2.519,3.675l-.02.18a20.335,20.335,0,0,1,9.2.419,3.534,3.534,0,0,1,2.993-3.123A5.668,5.668,0,0,0,3620.845,4262.448Z" transform="translate(-3541.887 -4261.942)" fill="#fff"/><g transform="translate(7.552 32.397)"><rect width="3.42" height="1.502" rx="0.751" transform="translate(2.514 20.948)" fill="#3d3d3d"/><rect width="3.42" height="1.502" rx="0.751" transform="translate(29.9 20.948)" fill="#3d3d3d"/><path d="M361.485,1362.278a1.188,1.188,0,0,0-1.188,1.188V1382.2a1.188,1.188,0,0,0,1.188,1.188h26.952v-21.115Z" transform="translate(-359.991 -1362.235)" fill="#4d4d4d"/><path d="M3.091,0H19.109A3.092,3.092,0,0,1,22.2,3.092V9.675a3.091,3.091,0,0,1-3.091,3.091H3.091A3.091,3.091,0,0,1,0,9.675V3.091A3.091,3.091,0,0,1,3.091,0Z" transform="translate(3.276 5.284)" fill="#e6e6e6"/><path d="M602.708,1362.278h-6.031v21.115h6.031a1.188,1.188,0,0,0,1.188-1.188v-18.739A1.188,1.188,0,0,0,602.708,1362.278Z" transform="translate(-568.231 -1362.235)" fill="#333"/><g transform="translate(29.052 4.041)"><g transform="translate(0 0)"><circle cx="2.5" cy="2.5" r="2.5" transform="translate(0 4.869) rotate(-76.838)" fill="#4d4d4d"/><circle cx="2.14" cy="2.14" r="2.14" transform="translate(0.433 4.6) rotate(-76.821)" fill="#333"/><circle cx="1.986" cy="1.986" r="1.986" transform="translate(0.601 4.458) rotate(-76.168)" fill="#4d4d4d"/><path d="M622.391,1402.787h-.572a6.719,6.719,0,0,0-.036,4.343h.612A7.83,7.83,0,0,0,622.391,1402.787Z" transform="translate(-619.113 -1401.963)" fill="#333"/></g><g transform="translate(0 7.11)"><circle cx="2.5" cy="2.5" r="2.5" transform="translate(0 4.869) rotate(-76.838)" fill="#4d4d4d"/><circle cx="2.14" cy="2.14" r="2.14" transform="translate(0.433 4.6) rotate(-76.821)" fill="#333"/><circle cx="1.986" cy="1.986" r="1.986" transform="translate(0.617 4.485) rotate(-76.813)" fill="#4d4d4d"/><path d="M613.175,1476.219v-.572a6.718,6.718,0,0,0-4.343-.036v.612A7.832,7.832,0,0,0,613.175,1476.219Z" transform="translate(-607.99 -1472.942)" fill="#333"/></g></g><rect width="21.489" height="1.708" transform="translate(3.632)" fill="#4d4d4d"/><path d="M386.118,1364.752h-3.275a50.654,50.654,0,0,1-21.488,0h-3.275a.358.358,0,0,1-.358-.358v-2.089a.385.385,0,0,1,.384-.385h3.248a47.735,47.735,0,0,0,21.488,0h3.248a.385.385,0,0,1,.384.385v2.089A.358.358,0,0,1,386.118,1364.752Z" transform="translate(-357.723 -1361.921)" fill="#333"/><g transform="translate(4.333 9.081)"><path d="M404.234,1444.519h9.771a.337.337,0,0,0,.316-.468l-1.971-4.482a.329.329,0,0,1-.028-.132v-.9a.339.339,0,0,0-.343-.335H396.49a.339.339,0,0,0-.343.335v.894a.326.326,0,0,1-.028.132l-1.971,4.487a.336.336,0,0,0,.316.468Z" transform="translate(-394.12 -1438.202)" fill="none" stroke="#b3b3b3" stroke-linecap="round" stroke-linejoin="round" stroke-width="1"/><line y2="6.317" transform="translate(10.115 0)" fill="none" stroke="#b3b3b3" stroke-linecap="round" stroke-linejoin="round" stroke-width="1"/><path d="M461.236,1438.2v1.3l-.613,5.019" transform="translate(-452.706 -1438.202)" fill="none" stroke="#b3b3b3" stroke-linecap="round" stroke-linejoin="round" stroke-width="1"/><path d="M443.924,1438.2v1.31l-1.263,5.007" transform="translate(-436.883 -1438.202)" fill="none" stroke="#b3b3b3" stroke-linecap="round" stroke-linejoin="round" stroke-width="1"/><path d="M427.582,1438.2v1.3l-1.6,5.019" transform="translate(-422.185 -1438.202)" fill="none" stroke="#b3b3b3" stroke-linecap="round" stroke-linejoin="round" stroke-width="1"/><path d="M410.941,1438.2v1.3l-1.993,5.019" transform="translate(-407.183 -1438.202)" fill="none" stroke="#b3b3b3" stroke-linecap="round" stroke-linejoin="round" stroke-width="1"/><path d="M492.4,1438.2v1.3l.613,5.019" transform="translate(-480.696 -1438.202)" fill="none" stroke="#b3b3b3" stroke-linecap="round" stroke-linejoin="round" stroke-width="1"/><path d="M504.9,1438.2v1.31l1.263,5.007" transform="translate(-491.712 -1438.202)" fill="none" stroke="#b3b3b3" stroke-linecap="round" stroke-linejoin="round" stroke-width="1"/><path d="M518.715,1438.2v1.3l1.6,5.019" transform="translate(-503.882 -1438.202)" fill="none" stroke="#b3b3b3" stroke-linecap="round" stroke-linejoin="round" stroke-width="1"/><path d="M532.476,1438.2v1.3l1.993,5.019" transform="translate(-516.006 -1438.202)" fill="none" stroke="#b3b3b3" stroke-linecap="round" stroke-linejoin="round" stroke-width="1"/></g></g><g transform="translate(43.105 14.418)"><g transform="translate(7.143 66.109)"><path d="M1165.138,739.375a12.121,12.121,0,0,0-.122,1.62h2.883a12.1,12.1,0,0,0-.122-1.62,3.075,3.075,0,0,1-2.639,0Z" transform="translate(-1165.016 -738.35)" fill="#bab9b9"/><path d="M1167.595,728.771h-1.141s-.1.421-.179,1.025a3.075,3.075,0,0,0,2.639,0c-.083-.6-.179-1.025-.179-1.025Z" transform="translate(-1166.153 -728.771)" fill="#a6a5a5"/></g><path d="M0,0H.978a0,0,0,0,1,0,0V0A.284.284,0,0,1,.694.284H.284A.284.284,0,0,1,0,0V0A0,0,0,0,1,0,0Z" transform="translate(0.888 73.564)" fill="#8c8c8c"/><path d="M.284,0h.41A.284.284,0,0,1,.978.284v0a0,0,0,0,1,0,0H0a0,0,0,0,1,0,0v0A.284.284,0,0,1,.284,0Z" transform="translate(16.28 73.848) rotate(180)" fill="#8c8c8c"/><path d="M0,0H.978a0,0,0,0,1,0,0V0A.284.284,0,0,1,.694.284H.284A.284.284,0,0,1,0,0V0A0,0,0,0,1,0,0Z" transform="translate(3.771 73.564)" fill="#8c8c8c"/><path d="M0,0H.978a0,0,0,0,1,0,0V0A.284.284,0,0,1,.694.284H.284A.284.284,0,0,1,0,0V0A0,0,0,0,1,0,0Z" transform="translate(6.654 73.564)" fill="#8c8c8c"/><path d="M0,0H.978a0,0,0,0,1,0,0V0A.284.284,0,0,1,.694.284H.284A.284.284,0,0,1,0,0V0A0,0,0,0,1,0,0Z" transform="translate(9.536 73.564)" fill="#8c8c8c"/><path d="M0,0H.978a0,0,0,0,1,0,0V0A.284.284,0,0,1,.694.284H.284A.284.284,0,0,1,0,0V0A0,0,0,0,1,0,0Z" transform="translate(12.419 73.564)" fill="#8c8c8c"/><path d="M1107.69,796.9h-15.968c-.294,0-.546-.076-.6-.342v.276a.615.615,0,0,0,.613.626h15.943a.615.615,0,0,0,.613-.626v-.276C1108.236,796.826,1107.984,796.9,1107.69,796.9Z" transform="translate(-1091.122 -723.899)" fill="#bab9b9"/><g transform="translate(4.036 51.287)"><path d="M1154.219,709.535a4.1,4.1,0,0,1-2.751-.975c.424,1.449,1.353,2.562,2.751,2.562s2.327-1.113,2.751-2.562A4.1,4.1,0,0,1,1154.219,709.535Z" transform="translate(-1149.671 -695.692)" fill="#c44823"/><path d="M1141.962,576.268h-1.072l-.415-.467a1.1,1.1,0,0,0-.819-.368H1135.2a1.1,1.1,0,0,0-.819.368l-.415.467h-1.072c-.165,3.381,1.363,10.332,1.712,11.763q.034.137.073.27a4.369,4.369,0,0,0,5.5,0c.026-.089.05-.179.073-.27C1140.6,586.6,1142.127,579.648,1141.962,576.268Z" transform="translate(-1132.879 -575.433)" fill="#9f3718"/></g><path d="M1147.464,604.865c.866,0,1.773-.371,1.931-.821a73.264,73.264,0,0,0,1.536-9.109,1.23,1.23,0,0,0-1.223-1.355h-4.487a1.23,1.23,0,0,0-1.224,1.355,73.4,73.4,0,0,0,1.536,9.109c.158.45,1.065.821,1.931.821Z" transform="translate(-1138.88 -540.539)" fill="#6d6d6d"/><path d="M.334,0h.934A.334.334,0,0,1,1.6.334v0a.334.334,0,0,1-.334.334H.334A.334.334,0,0,1,0,.334v0A.334.334,0,0,1,.334,0Z" transform="translate(7.784 51.806)" fill="#f0f0f0"/><g transform="translate(4.049)"><path d="M1165.292,45.553a.525.525,0,0,0-.074-.224.942.942,0,0,0-1.647,0,.519.519,0,0,0-.074.224c-.1,3.39-.482,19.693-.765,31.127h3.324C1165.774,65.246,1165.392,48.943,1165.292,45.553Z" transform="translate(-1159.86 -44.844)" fill="#c44823"/><path d="M1140.345,461.612a6.029,6.029,0,0,1-.825-3.351c-.015-.065-.057-1.474-.118-3.747h-3.72c-.061,2.272-.1,3.682-.119,3.747a6.03,6.03,0,0,1-.825,3.351c-.742,1.054-1.567,2.044-1.732,5.425h1.072l.415-.467a1.1,1.1,0,0,1,.819-.368h4.458a1.1,1.1,0,0,1,.819.368l.415.467h1.072C1141.913,463.656,1141.088,462.666,1140.345,461.612Z" transform="translate(-1133.007 -414.915)" fill="#c44823"/><path d="M1164.377,380.586h-3.354c-.062,2.5-.119,4.737-.166,6.528h3.687C1164.5,385.323,1164.439,383.083,1164.377,380.586Z" transform="translate(-1158.164 -348.133)" fill="#c44823"/><path d="M1164.389,448.126H1160.7q-.009.319-.017.618h3.72Q1164.4,448.445,1164.389,448.126Z" transform="translate(-1158.01 -409.145)" fill="#bab9b9"/><path d="M1165.914,374.2h-3.324q-.008.311-.015.617h3.355Q1165.922,374.51,1165.914,374.2Z" transform="translate(-1159.717 -342.363)" fill="#bab9b9"/></g><path d="M1174.506,103.832a.581.581,0,0,1-.58-.58V102.24a.58.58,0,0,1,1.16,0v1.012A.581.581,0,0,1,1174.506,103.832Z" transform="translate(-1165.922 -96.168)" fill="#666"/><g transform="translate(8.226 5.714)"><path d="M1176.938,104.315a.358.358,0,1,0-.716,0v.506h.716Z" transform="translate(-1176.222 -103.957)" fill="gray"/><path d="M1176.222,112.9v.506a.358.358,0,0,0,.716,0V112.9Z" transform="translate(-1176.222 -112.032)" fill="#666"/></g><path d="M1173.944,430.556a.589.589,0,1,1,.589.589A.589.589,0,0,1,1173.944,430.556Z" transform="translate(-1165.938 -392.741)" fill="#666"/><circle cx="0.355" cy="0.355" r="0.355" transform="translate(8.24 37.46)" fill="#bab9b9"/><g transform="translate(5.854 53.785)"><path d="M1161.227,630.712c.151.787.323,1.612.518,2.46a.6.6,0,0,0,.361.424,2.517,2.517,0,0,0,1.857,0,.6.6,0,0,0,.36-.424c.6-2.612.983-5,1.215-6.767Z" transform="translate(-1160.305 -623.976)" fill="#1f1f1f"/><path d="M1157.144,601.812a.486.486,0,0,0-.483-.536h-4.488a.486.486,0,0,0-.483.536c.131,1.275.4,3.522.919,6.2l4.312-4.307C1157.021,602.949,1157.093,602.307,1157.144,601.812Z" transform="translate(-1151.687 -601.276)" fill="#515151"/></g><path d="M1108.273,755.108l-.292-1.431a2.086,2.086,0,0,0-1.37-1.483l-4.668-1.339a.694.694,0,0,0-.789.282.512.512,0,0,1-.458.2h-1.981a.512.512,0,0,1-.458-.2.694.694,0,0,0-.788-.282l-4.668,1.339a2.085,2.085,0,0,0-1.37,1.483l-.292,1.431c-.092.375.2.477.583.477h15.967C1108.076,755.585,1108.365,755.483,1108.273,755.108Z" transform="translate(-1091.122 -682.581)" fill="#c44823"/></g></g></g></g></svg>