<svg xmlns="http://www.w3.org/2000/svg" width="200" height="120" viewBox="0 0 200 120">
  <g id="sample_obj12" transform="translate(-176 -3923)">
    <rect id="長方形_27055" data-name="長方形 27055" width="200" height="120" rx="10" transform="translate(176 3923)" fill="#dcdcdc" opacity="0"/>
    <g id="グループ_4588" data-name="グループ 4588" transform="translate(237.257 3940.103)">
      <path id="パス_71038" data-name="パス 71038" d="M250.886,83.367,240.6,68.359H164.254V84.4Z" transform="translate(-123.909 -65.704)" fill="#2f2316"/>
      <rect id="長方形_28630" data-name="長方形 28630" width="109.167" height="69.059" transform="translate(15.439 19.826)" fill="#645441"/>
      <rect id="長方形_28631" data-name="長方形 28631" width="22.418" height="12.024" transform="translate(67.391 26.487)" fill="#403020"/>
      <g id="グループ_4580" data-name="グループ 4580" transform="translate(68.03 27.161)">
        <rect id="長方形_28632" data-name="長方形 28632" width="10.082" height="10.677" fill="#ceebfb"/>
        <rect id="長方形_28633" data-name="長方形 28633" width="10.082" height="10.677" transform="translate(11.046)" fill="#ceebfb"/>
      </g>
      <rect id="長方形_28634" data-name="長方形 28634" width="22.418" height="12.024" transform="translate(96.449 26.487)" fill="#403020"/>
      <g id="グループ_4581" data-name="グループ 4581" transform="translate(97.089 27.161)">
        <rect id="長方形_28635" data-name="長方形 28635" width="10.082" height="10.677" fill="#ceebfb"/>
        <rect id="長方形_28636" data-name="長方形 28636" width="10.082" height="10.677" transform="translate(11.046)" fill="#ceebfb"/>
      </g>
      <rect id="長方形_28637" data-name="長方形 28637" width="50.21" height="1.285" transform="translate(74.395 80.566)" fill="#403020"/>
      <rect id="長方形_28638" data-name="長方形 28638" width="50.21" height="6.942" transform="translate(74.395 81.851)" fill="#a79484"/>
      <rect id="長方形_28639" data-name="長方形 28639" width="12.742" height="2.268" transform="translate(61.653 80.614)" fill="#b3a245"/>
      <rect id="長方形_28640" data-name="長方形 28640" width="12.742" height="2.268" transform="translate(61.653 82.482)" fill="#5c521f"/>
      <rect id="長方形_28641" data-name="長方形 28641" width="12.742" height="2.268" transform="translate(61.653 84.75)" fill="#b3a245"/>
      <rect id="長方形_28642" data-name="長方形 28642" width="12.742" height="2.268" transform="translate(61.653 86.617)" fill="#5c521f"/>
      <rect id="長方形_28643" data-name="長方形 28643" width="22.418" height="24.955" transform="translate(87.858 55.669)" fill="#403020"/>
      <g id="グループ_4582" data-name="グループ 4582" transform="translate(88.497 57.068)">
        <rect id="長方形_28644" data-name="長方形 28644" width="10.082" height="22.158" fill="#ceebfb"/>
        <rect id="長方形_28645" data-name="長方形 28645" width="10.082" height="22.158" transform="translate(11.046)" fill="#ceebfb"/>
      </g>
      <path id="パス_71039" data-name="パス 71039" d="M217.221,110.877,250.8,130.689H218.544Z" transform="translate(-156.891 -92.178)" fill="#645441" style="mix-blend-mode: multiply;isolation: isolate"/>
      <rect id="長方形_28646" data-name="長方形 28646" width="62.953" height="17.304" transform="translate(61.653 37.481)" fill="#826d55"/>
      <rect id="長方形_28647" data-name="長方形 28647" width="46.214" height="69.059" transform="translate(15.439 19.826)" fill="#826d55"/>
      <rect id="長方形_28648" data-name="長方形 28648" width="46.214" height="6.942" transform="translate(15.439 81.851)" fill="#a79484"/>
      <rect id="長方形_28649" data-name="長方形 28649" width="46.214" height="1.285" transform="translate(15.439 80.566)" fill="#403020"/>
      <rect id="長方形_28650" data-name="長方形 28650" width="22.418" height="12.024" transform="translate(27.337 24.573)" fill="#403020"/>
      <g id="グループ_4583" data-name="グループ 4583" transform="translate(27.976 25.247)">
        <rect id="長方形_28651" data-name="長方形 28651" width="10.082" height="10.677" transform="translate(0)" fill="#ceebfb"/>
        <rect id="長方形_28652" data-name="長方形 28652" width="10.082" height="10.677" transform="translate(11.046)" fill="#ceebfb"/>
      </g>
      <rect id="長方形_28653" data-name="長方形 28653" width="22.418" height="24.955" transform="translate(27.337 55.669)" fill="#403020"/>
      <g id="グループ_4584" data-name="グループ 4584" transform="translate(27.976 57.068)">
        <rect id="長方形_28654" data-name="長方形 28654" width="10.082" height="22.158" transform="translate(0)" fill="#ceebfb"/>
        <rect id="長方形_28655" data-name="長方形 28655" width="10.082" height="22.158" transform="translate(11.046)" fill="#ceebfb"/>
      </g>
      <rect id="長方形_28656" data-name="長方形 28656" width="46.214" height="1.904" transform="translate(15.439 19.826)" fill="#826d55" style="mix-blend-mode: multiply;isolation: isolate"/>
      <rect id="長方形_28657" data-name="長方形 28657" width="57.682" height="2.07" transform="translate(7.328 17.664)" fill="#a79484"/>
      <rect id="長方形_28658" data-name="長方形 28658" width="64.026" height="2.07" transform="translate(62.951 17.664)" fill="#a79484"/>
      <path id="パス_71040" data-name="パス 71040" d="M106.862,61.323,76.749,78.549v1.035h57.682V78.549Z" transform="translate(-69.421 -61.322)" fill="#403020"/>
      <rect id="長方形_28659" data-name="長方形 28659" width="12.742" height="26.424" transform="translate(61.653 54.785)" fill="#524536"/>
      <g id="グループ_4585" data-name="グループ 4585" transform="translate(62.977 59.797)">
        <rect id="長方形_28660" data-name="長方形 28660" width="10.094" height="20.769" fill="#403020"/>
        <rect id="長方形_28661" data-name="長方形 28661" width="2.259" height="19.546" transform="translate(3.795 0.738)" fill="#fff"/>
        <rect id="長方形_28662" data-name="長方形 28662" width="0.577" height="4.851" transform="translate(8.437 9.094)" fill="#f2f6ec"/>
      </g>
      <path id="パス_71041" data-name="パス 71041" d="M106.891,235.193h-.622V223.126l-1.936-6.694,1-7.811,3.014-6.846-1.956-4.032.56-.272,2.081,4.291-3.111,7.068-.952,7.552,1.925,6.7Z" transform="translate(-86.597 -146.099)" fill="#221a12"/>
      <path id="パス_71042" data-name="パス 71042" d="M111.845,196.574l-.3-.542,4.715-2.643,1.1-4.83,3.409-1.6,1.419-3.671.58.224-1.509,3.9-3.361,1.576-1.095,4.8Z" transform="translate(-91.086 -137.268)" fill="#221a12"/>
      <path id="パス_71043" data-name="パス 71043" d="M362.391,170.895l-5.026-2.3-2.78-3.432h-4.912l-2.331-1.929.4-.479,2.158,1.786h4.985l2.875,3.55,4.893,2.243Z" transform="translate(-237.915 -124.479)" fill="#221a12"/>
      <path id="パス_71044" data-name="パス 71044" d="M357.223,181.224l-.165-.6,3.358-.926v-2.427l2.173-2.766.489.384-2.04,2.6v2.685Z" transform="translate(-243.964 -131.798)" fill="#221a12"/>
      <path id="パス_71045" data-name="パス 71045" d="M312.988,81.074l-5.862-2.6-15.307-.983.04-.62,15.417.99,5.67,2.518,8.453-5.04.318.534Z" transform="translate(-203.342 -70.047)" fill="#826d55"/>
      <path id="パス_71046" data-name="パス 71046" d="M320.009,87.76l-.242-.573,3.2-1.35,1.28-3.038.573.241-1.378,3.271Z" transform="translate(-220.744 -74.695)" fill="#826d55"/>
      <path id="パス_71047" data-name="パス 71047" d="M196.378,173.686l-.45-.43,2.555-2.671,9.367-4.176.482-5.822.62.051-.513,6.189-9.591,4.275Z" transform="translate(-143.632 -123.133)" fill="#221a12"/>
      <path id="パス_71048" data-name="パス 71048" d="M231.829,184.289l-.568-.253,1.884-4.237-5.285-3.4.336-.523,5.734,3.685Z" transform="translate(-163.515 -132.654)" fill="#221a12"/>
      <path id="パス_71049" data-name="パス 71049" d="M316.254,173.486l2.428,5.175h-1.545l5.39,5.086Z" transform="translate(-218.557 -131.164)" fill="#403020"/>
      <path id="パス_71050" data-name="パス 71050" d="M112.355,169.015l0-4.825,1.8-.642-3.924-7.541Z" transform="translate(-90.27 -120.28)" fill="#403020"/>
      <g id="グループ_4586" data-name="グループ 4586" transform="translate(0 70.727)">
        <path id="パス_71051" data-name="パス 71051" d="M65.137,267.133s-2.707-12.432-7.81-18.367c0,0,6.456,5.522,8.018,10.779a38.53,38.53,0,0,0,2.916,7.588Z" transform="translate(-57.327 -248.766)" fill="#45a243"/>
        <path id="パス_71052" data-name="パス 71052" d="M85.629,267.133s2.708-12.432,7.81-18.367c0,0-6.456,5.522-8.018,10.779a38.517,38.517,0,0,1-2.916,7.588Z" transform="translate(-73.005 -248.766)" fill="#45a243"/>
        <path id="パス_71053" data-name="パス 71053" d="M74.829,249.233s5.96,6.237,5.789,18.191H78.345s-.043-8.972-1.715-12.917A22.633,22.633,0,0,1,74.829,249.233Z" transform="translate(-68.225 -249.057)" fill="#45a243"/>
      </g>
      <g id="グループ_4587" data-name="グループ 4587" transform="translate(109.514 76.511)">
        <path id="パス_71054" data-name="パス 71054" d="M354.185,279.652s-2.293-10.528-6.614-15.555c0,0,5.467,4.676,6.79,9.128a32.654,32.654,0,0,0,2.469,6.427Z" transform="translate(-347.571 -264.097)" fill="#45a243"/>
        <path id="パス_71055" data-name="パス 71055" d="M371.539,279.652s2.293-10.528,6.614-15.555c0,0-5.468,4.676-6.791,9.128a32.623,32.623,0,0,1-2.469,6.427Z" transform="translate(-360.848 -264.097)" fill="#45a243"/>
        <path id="パス_71056" data-name="パス 71056" d="M362.393,264.492s5.048,5.282,4.9,15.406h-1.925s-.037-7.6-1.453-10.939A19.141,19.141,0,0,1,362.393,264.492Z" transform="translate(-356.8 -264.343)" fill="#45a243"/>
      </g>
    </g>
    <g id="グループ_4579" data-name="グループ 4579" transform="translate(186 3947.605)">
      <path id="パス_70936" data-name="パス 70936" d="M980.824,517.463h0a.6.6,0,0,0,.843-.015l16.751-16.55a.6.6,0,0,0-.015-.843h0a.6.6,0,0,0-.843.015l-16.751,16.55A.6.6,0,0,0,980.824,517.463Z" transform="translate(-941.196 -479.467)" fill="#b4b5b5"/>
      <path id="パス_70937" data-name="パス 70937" d="M1049.006,571.8h0a1.491,1.491,0,0,0,2.1-.038l4.931-5.114a1.491,1.491,0,0,0-.038-2.1h0a1.491,1.491,0,0,0-2.1.038l-4.931,5.114A1.491,1.491,0,0,0,1049.006,571.8Z" transform="translate(-1007.743 -535.502)" fill="#ffbe00"/>
      <path id="パス_70938" data-name="パス 70938" d="M754.782,417.682l-2.372-2.869,6.722-12.14,26.737-14.191,3.451,4.173Z" transform="translate(-702.767 -382.297)" fill="#ffbe00"/>
      <g id="グループ_4511" data-name="グループ 4511" transform="translate(82.41 -0.001)">
        <path id="パス_70939" data-name="パス 70939" d="M702.118,349.106h0a1.937,1.937,0,0,0,2.724.2l6.77-5.847a1.937,1.937,0,0,0,.2-2.724h0a1.937,1.937,0,0,0-2.724-.2l-6.77,5.847A1.938,1.938,0,0,0,702.118,349.106Z" transform="translate(-701.651 -340.067)" fill="#88784a"/>
        <path id="パス_70940" data-name="パス 70940" d="M630.514,342.152h0a1.95,1.95,0,0,0,1.883,1.994l8.951.262a1.932,1.932,0,0,0,1.982-1.88h0a1.95,1.95,0,0,0-1.883-1.994l-8.951-.262A1.932,1.932,0,0,0,630.514,342.152Z" transform="translate(-623.613 -340.245)" fill="#88784a"/>
        <path id="パス_70941" data-name="パス 70941" d="M623.725,387.428h0a1.961,1.961,0,0,0,2.553,1.02l8.24-3.508a1.923,1.923,0,0,0,1.005-2.535h0a1.961,1.961,0,0,0-2.553-1.02l-8.24,3.508A1.923,1.923,0,0,0,623.725,387.428Z" transform="translate(-615.078 -375.971)" fill="#88784a"/>
        <path id="パス_70942" data-name="パス 70942" d="M699.456,392.013h0a1.937,1.937,0,0,0-1.248-2.43l-8.516-2.737a1.937,1.937,0,0,0-2.43,1.248h0a1.937,1.937,0,0,0,1.248,2.43l8.516,2.736A1.937,1.937,0,0,0,699.456,392.013Z" transform="translate(-687.07 -380.788)" fill="#88784a"/>
      </g>
      <path id="パス_70943" data-name="パス 70943" d="M1013.815,564.469l-15.888,16.749L992.906,596.1l9.917,6.875,1.372-17.605,14.257-20.276Z" transform="translate(-962.631 -535.796)" fill="#ffbe00"/>
      <rect id="長方形_28442" data-name="長方形 28442" width="10.279" height="4.646" rx="2.323" transform="translate(4.769 55.265)" fill="#070203"/>
      <path id="パス_70944" data-name="パス 70944" d="M1099.816,933.416l31.365.011a5.783,5.783,0,0,0,5.768-5.764h0a5.784,5.784,0,0,0-5.764-5.768l-31.364-.011a5.783,5.783,0,0,0-5.768,5.764h0A5.783,5.783,0,0,0,1099.816,933.416Z" transform="translate(-1094.052 -847.539)" fill="#1a1311"/>
      <path id="パス_70945" data-name="パス 70945" d="M1140.659,941.517a4.378,4.378,0,0,0,0-8.755l-31.364-.011a4.377,4.377,0,1,0,0,8.755Z" transform="translate(-1103.529 -857.018)" fill="#b4b5b5"/>
      <rect id="長方形_28443" data-name="長方形 28443" width="35.352" height="16.222" rx="8.111" transform="translate(2.093 57.108)" fill="#ffbe00"/>
      <path id="パス_70946" data-name="パス 70946" d="M1110,645.541l16.446.006a3.161,3.161,0,0,1,3.224,2.415l.623,3.66.958,4.532,1.555,8.242,0,11.032h-.345c-1.239,0-3.223-.307-3.223-1.188s0-1.507,0-2.78.224-3.442-2.1-3.443l-19.539-.007,0-11.744,0-4.652v-3.675A2.4,2.4,0,0,1,1110,645.541Z" transform="translate(-1091.645 -606.508)" fill="#ffbe00"/>
      <path id="パス_70947" data-name="パス 70947" d="M1191.672,783h2.638a.573.573,0,0,0,.572-.571h0a.573.573,0,0,0-.571-.572h-2.637a.573.573,0,0,0-.572.571h0A.573.573,0,0,0,1191.672,783Z" transform="translate(-1164.386 -725.403)" fill="#fff475"/>
      <path id="パス_70948" data-name="パス 70948" d="M1267.932,782.97h2.638a.573.573,0,0,0,.571-.571h0a.573.573,0,0,0-.571-.571h-2.638a.573.573,0,0,0-.572.571h0A.573.573,0,0,0,1267.932,782.97Z" transform="translate(-1250.39 -725.379)" fill="#fff475"/>
      <g id="グループ_4512" data-name="グループ 4512" transform="translate(26.717 41.467)">
        <path id="パス_70949" data-name="パス 70949" d="M1135.682,665.716c0-1.043,1.186-1,2.743-1s3.877-.129,3.877-.129c2.568,0,3.193,1.831,3.442,3.357.11.675.435,2.533.762,4.4l-10.826,0C1135.681,669.81,1135.682,666.445,1135.682,665.716Z" transform="translate(-1135.646 -664.584)" fill="#0063af"/>
        <path id="パス_70950" data-name="パス 70950" d="M1129.2,725.225l10.827,0c.413,2.347.832,4.7.832,4.7s-.054,1.252-1.806,1.251l-9.3,0c-.786,0-.551-2.142-.551-3.18C1129.2,727.642,1129.2,726.55,1129.2,725.225Z" transform="translate(-1129.17 -717.476)" fill="#007fc9"/>
      </g>
      <path id="パス_70951" data-name="パス 70951" d="M1238.595,665.931a1.393,1.393,0,0,1,1.389-1.388l4.565,0a1.392,1.392,0,0,1,1.388,1.389l0,6.362h0l-7.342,0Z" transform="translate(-1221.51 -623.082)" fill="#0063af"/>
      <path id="パス_70952" data-name="パス 70952" d="M1245.953,725.2v4.566a1.393,1.393,0,0,1-1.389,1.388l-4.565,0a1.392,1.392,0,0,1-1.388-1.389l0-4.566Z" transform="translate(-1221.528 -675.986)" fill="#007fc9"/>
      <ellipse id="楕円形_375" data-name="楕円形 375" cx="2.644" cy="2.644" rx="2.644" ry="2.644" transform="translate(34.486 77.478)" fill="#1a1311"/>
      <ellipse id="楕円形_376" data-name="楕円形 376" cx="2.644" cy="2.644" rx="2.644" ry="2.644" transform="matrix(-0.96, -0.281, 0.281, -0.96, 7.654, 83.392)" fill="#1a1311"/>
      <path id="パス_70953" data-name="パス 70953" d="M1129.272,824.824c0,1.273,0,1.9,0,2.78s1.984,1.188,3.223,1.188h.345v4.331a4.15,4.15,0,0,1-.848.087h-2.361l-.031,0-.031,0-4.4,0v-3.873c0-2.518.391-4.578-2.127-4.579l-15.407-.005v-3.376l19.539.007C1129.5,821.382,1129.273,823.551,1129.272,824.824Z" transform="translate(-1091.677 -759.873)" fill="#ffbe00"/>
      <rect id="長方形_28444" data-name="長方形 28444" width="23.12" height="5.289" transform="translate(9.901 77.472)" fill="#1a1311"/>
      <path id="パス_70954" data-name="パス 70954" d="M1318,807.1h0a.7.7,0,0,0,.7-.7l0-6.977a.7.7,0,0,0-.7-.7h0a.7.7,0,0,0-.7.7l0,6.977A.7.7,0,0,0,1318,807.1Z" transform="translate(-1304.332 -740.119)" fill="#1a1311"/>
      <path id="パス_70955" data-name="パス 70955" d="M1335.813,807.09h0a.7.7,0,0,0,.7-.7l0-6.977a.7.7,0,0,0-.7-.7h0a.7.7,0,0,0-.7.7l0,6.977A.7.7,0,0,0,1335.813,807.09Z" transform="translate(-1324.419 -740.113)" fill="#1a1311"/>
      <path id="パス_70956" data-name="パス 70956" d="M1353.624,807.083h0a.7.7,0,0,0,.7-.7l0-6.977a.7.7,0,0,0-.7-.7h0a.7.7,0,0,0-.7.7l0,6.977A.7.7,0,0,0,1353.624,807.083Z" transform="translate(-1344.506 -740.108)" fill="#1a1311"/>
      <path id="パス_70957" data-name="パス 70957" d="M1371.434,807.078h0a.7.7,0,0,0,.7-.7l0-6.977a.7.7,0,0,0-.7-.7h0a.7.7,0,0,0-.7.7l0,6.977A.7.7,0,0,0,1371.434,807.078Z" transform="translate(-1364.591 -740.103)" fill="#1a1311"/>
      <g id="グループ_4513" data-name="グループ 4513" transform="translate(36.882 51.47)">
        <path id="パス_70958" data-name="パス 70958" d="M1113.716,748.769h0a.69.69,0,0,0,.688-.687v-4.524a.689.689,0,0,0-.687-.688h0a.689.689,0,0,0-.688.687l0,4.524A.69.69,0,0,0,1113.716,748.769Z" transform="translate(-1110.814 -742.871)" fill="#1a1311"/>
        <path id="パス_70959" data-name="パス 70959" d="M1117.527,771.021l2.575-.7a.241.241,0,0,0,.168-.294h0a.24.24,0,0,0-.294-.168l-2.575.7a.241.241,0,0,0-.169.294h0A.24.24,0,0,0,1117.527,771.021Z" transform="translate(-1117.225 -766.405)" fill="#1a1311"/>
      </g>
      <path id="パス_70960" data-name="パス 70960" d="M1105.994,632.552h0a1.1,1.1,0,0,0,.113-1.544l-2.34-2.709a1.1,1.1,0,0,0-1.544-.113h0a1.1,1.1,0,0,0-.113,1.544l2.34,2.709A1.1,1.1,0,0,0,1105.994,632.552Z" transform="translate(-1064.471 -591.139)" fill="#ffbe00"/>
      <g id="グループ_4514" data-name="グループ 4514" transform="translate(51.147 28.637)">
        <ellipse id="楕円形_377" data-name="楕円形 377" cx="1.941" cy="1.941" rx="1.941" ry="1.941" transform="matrix(-0.237, -0.971, 0.971, -0.237, 0.92, 4.692)" fill="#848585"/>
        <ellipse id="楕円形_378" data-name="楕円形 378" cx="1.373" cy="1.373" rx="1.373" ry="1.373" transform="matrix(-0.999, -0.047, 0.047, -0.999, 3.652, 3.782)" fill="#1a1311"/>
      </g>
      <ellipse id="楕円形_379" data-name="楕円形 379" cx="2.728" cy="2.728" rx="2.728" ry="2.728" transform="matrix(-0.993, -0.12, 0.12, -0.993, 87.126, 11.284)" fill="#b4b5b5"/>
    </g>
  </g>
</svg>
