<svg xmlns="http://www.w3.org/2000/svg" width="200" height="120" viewBox="0 0 200 120">
  <g id="sample_obj14" transform="translate(-176 -3923)">
    <rect id="長方形_27055" data-name="長方形 27055" width="200" height="120" rx="10" transform="translate(176 3923)" fill="#dcdcdc" opacity="0"/>
    <g id="グループ_15408" data-name="グループ 15408" transform="translate(-5599.124 2293.562)">
      <g id="グループ_15394" data-name="グループ 15394" transform="translate(5802.823 1636.4)">
        <path id="パス_88720" data-name="パス 88720" d="M6391.4,1718.01c1.6,0,2.9.324,2.9.724s-1.3.725-2.9.725-2.9-.324-2.9-.725S6389.8,1718.01,6391.4,1718.01Z" transform="translate(-6349.762 -1712.612)" fill="#677554"/>
        <path id="パス_88721" data-name="パス 88721" d="M5871.253,2565.343v25.221a.7.7,0,0,0-.351.608c0,.25-1.221,1.379-7.2,2.343a140.516,140.516,0,0,1-37.391,0c-5.979-.964-7.2-2.093-7.2-2.343a.7.7,0,0,0-.351-.608v-25.221c1.074.715,3.194,1.468,7.327,2.135a141.915,141.915,0,0,0,37.84,0C5868.059,2566.811,5870.18,2566.058,5871.253,2565.343Z" transform="translate(-5817.705 -2503.9)" fill="#64984e"/>
        <path id="パス_88722" data-name="パス 88722" d="M5871.253,2150.721v25.221a.7.7,0,0,0-.351.607c0,.25-1.221,1.379-7.2,2.343a140.489,140.489,0,0,1-37.391,0c-5.979-.964-7.2-2.093-7.2-2.343a.7.7,0,0,0-.351-.607v-25.221c1.074.713,3.194,1.467,7.327,2.134a141.915,141.915,0,0,0,37.84,0C5868.059,2152.188,5870.18,2151.435,5871.253,2150.721Z" transform="translate(-5817.705 -2116.702)" fill="#64984e"/>
        <path id="パス_88723" data-name="パス 88723" d="M5871.253,1736.1v25.219a.7.7,0,0,0-.351.608c0,.25-1.221,1.379-7.2,2.344a140.5,140.5,0,0,1-37.391,0c-5.979-.966-7.2-2.095-7.2-2.344a.7.7,0,0,0-.351-.608V1736.1c1.074.714,3.194,1.467,7.327,2.135a141.915,141.915,0,0,0,37.84,0C5868.059,1737.566,5870.18,1736.813,5871.253,1736.1Z" transform="translate(-5817.705 -1729.505)" fill="#64984e"/>
        <path id="パス_88724" data-name="パス 88724" d="M5946.562,1713.838c2.383,0,4.312.481,4.312,1.078s-1.929,1.078-4.312,1.078-4.311-.483-4.311-1.078S5944.18,1713.838,5946.562,1713.838Z" transform="translate(-5933.028 -1708.716)" fill="#677554"/>
        <path id="パス_88725" data-name="パス 88725" d="M5825.771,1662.146l.081.157c-1.4-.511-1.788-.929-1.788-1.07,0-.25,1.221-1.379,7.2-2.343a140.516,140.516,0,0,1,37.391,0c5.979.965,7.2,2.094,7.2,2.343,0,.132-.346.514-1.569.988-3.14-1.769-12.842-3.058-24.327-3.058C5838.638,1659.162,5829.049,1660.415,5825.771,1662.146Z" transform="translate(-5822.659 -1656.235)" fill="#608c4c"/>
        <path id="パス_88726" data-name="パス 88726" d="M5898.392,1683.714a29,29,0,0,1-5.631,1.356,140.526,140.526,0,0,1-37.391,0,30.453,30.453,0,0,1-5.413-1.274l-.081-.157c3.278-1.731,12.867-2.983,24.189-2.983C5885.55,1680.656,5895.251,1681.945,5898.392,1683.714Zm-7.1.136c0-.4-1.3-.724-2.9-.724s-2.9.324-2.9.724,1.3.725,2.9.725S5891.294,1684.251,5891.294,1683.851Zm-26.686.078c0-.6-1.929-1.078-4.312-1.078s-4.31.481-4.31,1.078,1.929,1.078,4.31,1.078S5864.608,1684.523,5864.608,1683.928Z" transform="translate(-5846.764 -1677.729)" fill="#6ba055"/>
        <path id="パス_88727" data-name="パス 88727" d="M5854.452,1642.385c1.223-.474,1.569-.856,1.569-.988,0-.25-1.221-1.379-7.2-2.343a140.516,140.516,0,0,0-37.391,0c-5.979.965-7.2,2.094-7.2,2.343,0,.141.386.559,1.788,1.07a30.483,30.483,0,0,0,5.412,1.274,140.5,140.5,0,0,0,37.391,0A28.984,28.984,0,0,0,5854.452,1642.385Zm-50.574.609a1.876,1.876,0,0,1-1.054-1.6c0-1.02.869-2.518,8.381-3.73a141.915,141.915,0,0,1,37.84,0c7.512,1.213,8.381,2.71,8.381,3.73a1.878,1.878,0,0,1-1.054,1.6c-1.073.714-3.194,1.467-7.327,2.135a141.915,141.915,0,0,1-37.84,0C5807.072,1644.461,5804.951,1643.708,5803.877,1642.994Z" transform="translate(-5802.824 -1636.4)" fill="#70ad59"/>
        <path id="パス_88728" data-name="パス 88728" d="M5803.877,2945.3a.7.7,0,0,1,.351.608c0,.249,1.221,1.378,7.2,2.343a140.516,140.516,0,0,0,37.391,0c5.979-.965,7.2-2.094,7.2-2.343a.7.7,0,1,1,1.405,0c0,1.02-.869,2.518-8.381,3.73a141.915,141.915,0,0,1-37.84,0c-7.512-1.212-8.381-2.71-8.381-3.73a.7.7,0,0,1,.7-.7A.7.7,0,0,1,5803.877,2945.3Z" transform="translate(-5802.824 -2858.639)" fill="#4e7c39"/>
        <path id="パス_88729" data-name="パス 88729" d="M5856.724,2530.586a.705.705,0,0,0-.7.7c0,.249-1.221,1.378-7.2,2.343a140.516,140.516,0,0,1-37.391,0c-5.979-.965-7.2-2.094-7.2-2.343a.7.7,0,1,0-1.4,0,1.875,1.875,0,0,0,1.054,1.6c1.073.715,3.194,1.468,7.327,2.135a141.942,141.942,0,0,0,37.84,0c4.133-.667,6.254-1.42,7.327-2.135a1.877,1.877,0,0,0,1.054-1.6A.7.7,0,0,0,5856.724,2530.586Z" transform="translate(-5802.824 -2471.442)" fill="#4e7c39"/>
        <path id="パス_88730" data-name="パス 88730" d="M5856.021,2116.666c0,.25-1.221,1.379-7.2,2.344a140.489,140.489,0,0,1-37.391,0c-5.979-.966-7.2-2.095-7.2-2.344a.7.7,0,0,0-.351-.608.693.693,0,0,0-.352-.094.7.7,0,0,0-.7.7,1.874,1.874,0,0,0,1.054,1.6c1.073.714,3.194,1.467,7.327,2.135a141.915,141.915,0,0,0,37.84,0c4.133-.668,6.254-1.421,7.327-2.135.762-.495,1.711-2.162,0-2.2A.7.7,0,0,0,5856.021,2116.666Z" transform="translate(-5802.824 -2084.244)" fill="#4e7c39"/>
      </g>
      <g id="グループ_15406" data-name="グループ 15406" transform="translate(5821.542 1675.56)">
        <g id="グループ_15395" data-name="グループ 15395" transform="translate(0 0)">
          <rect id="長方形_30149" data-name="長方形 30149" width="18.578" height="21.726" rx="2" transform="translate(18.801 21.948) rotate(180)" fill="#edca02"/>
          <path id="パス_88731" data-name="パス 88731" d="M6103.749,2250.621h-16.816a1.105,1.105,0,0,1-1.1-1.1v-19.964a1.105,1.105,0,0,1,1.1-1.1h16.816a1.1,1.1,0,0,1,1.1,1.1v19.964A1.1,1.1,0,0,1,6103.749,2250.621Zm-16.816-21.726a.659.659,0,0,0-.658.658v19.964a.659.659,0,0,0,.658.658h16.816a.659.659,0,0,0,.658-.658v-19.964a.659.659,0,0,0-.658-.658Z" transform="translate(-6085.829 -2228.45)" fill="#333"/>
        </g>
        <g id="グループ_15404" data-name="グループ 15404" transform="translate(3.43 7.537)">
          <g id="グループ_15397" data-name="グループ 15397" transform="translate(4.818 4.007)">
            <g id="グループ_15396" data-name="グループ 15396" transform="translate(0 0)">
              <circle id="楕円形_469" data-name="楕円形 469" cx="1.106" cy="1.106" r="1.106" transform="matrix(0.988, -0.155, 0.155, 0.988, 0, 0.342)" fill="#333"/>
            </g>
          </g>
          <g id="グループ_15399" data-name="グループ 15399" transform="translate(6.942 0.008)">
            <g id="グループ_15398" data-name="グループ 15398">
              <path id="パス_88732" data-name="パス 88732" d="M6243.5,2347.773l4.364,0a6.077,6.077,0,0,0-3.035-5.269l-2.186,3.776A1.715,1.715,0,0,1,6243.5,2347.773Z" transform="translate(-6242.646 -2342.509)" fill="#333"/>
            </g>
          </g>
          <g id="グループ_15401" data-name="グループ 15401" transform="translate(3.035 6.757)">
            <g id="グループ_15400" data-name="グループ 15400">
              <path id="パス_88733" data-name="パス 88733" d="M6185.765,2444.548l-2.185,3.776a6.077,6.077,0,0,0,6.081.008l-2.177-3.781A1.718,1.718,0,0,1,6185.765,2444.548Z" transform="translate(-6183.58 -2444.548)" fill="#333"/>
            </g>
          </g>
          <g id="グループ_15403" data-name="グループ 15403">
            <g id="グループ_15402" data-name="グループ 15402">
              <path id="パス_88734" data-name="パス 88734" d="M6142.286,2346.8a1.7,1.7,0,0,1,.63-.628l-2.178-3.782a6.09,6.09,0,0,0-3.047,5.264l4.364,0A1.709,1.709,0,0,1,6142.286,2346.8Z" transform="translate(-6137.691 -2342.393)" fill="#333"/>
            </g>
          </g>
        </g>
        <g id="グループ_15405" data-name="グループ 15405" transform="translate(2.603 3.246)">
          <path id="パス_88735" data-name="パス 88735" d="M6125.18,2277.691a5.052,5.052,0,0,1,.766-.052,1.611,1.611,0,0,1,1.025.268,1.107,1.107,0,0,1,.424.944,1.269,1.269,0,0,1-.417,1.014,1.8,1.8,0,0,1-1.155.323,4.856,4.856,0,0,1-.643-.037Zm.569,2.043a1.029,1.029,0,0,0,.2.011.776.776,0,0,0,.847-.877.718.718,0,0,0-.788-.795,1.19,1.19,0,0,0-.256.022Z" transform="translate(-6125.18 -2277.632)" fill="#333"/>
          <path id="パス_88736" data-name="パス 88736" d="M6161.39,2279.781l-.179.643h-.587l.766-2.5h.743l.776,2.5h-.609l-.193-.643Zm.635-.423-.156-.531c-.044-.148-.089-.334-.126-.483h-.007c-.037.148-.074.338-.115.483l-.149.531Z" transform="translate(-6158.28 -2277.894)" fill="#333"/>
          <path id="パス_88737" data-name="パス 88737" d="M6200.223,2280.424v-2.5h.661l.521.918a7.268,7.268,0,0,1,.409.858h.011a9.418,9.418,0,0,1-.048-1.044v-.732h.52v2.5h-.594l-.535-.966a9.2,9.2,0,0,1-.435-.884l-.012,0c.015.331.023.684.023,1.092v.754Z" transform="translate(-6195.26 -2277.894)" fill="#333"/>
          <path id="パス_88738" data-name="パス 88738" d="M6239.445,2279.942a2.8,2.8,0,0,1-.836.141,1.4,1.4,0,0,1-1.018-.338,1.212,1.212,0,0,1-.353-.91,1.292,1.292,0,0,1,1.43-1.308,1.722,1.722,0,0,1,.695.123l-.119.453a1.4,1.4,0,0,0-.583-.108.816.816,0,0,0-.041,1.631.75.75,0,0,0,.278-.037v-.523h-.386v-.442h.932Z" transform="translate(-6229.826 -2277.527)" fill="#333"/>
          <path id="パス_88739" data-name="パス 88739" d="M6278.778,2279.365h-.922v.594h1.029v.464h-1.6v-2.5h1.545v.465h-.978v.52h.922Z" transform="translate(-6267.228 -2277.894)" fill="#333"/>
          <path id="パス_88740" data-name="パス 88740" d="M6307.283,2277.691a5,5,0,0,1,.754-.052,1.28,1.28,0,0,1,.811.2.636.636,0,0,1,.229.524.665.665,0,0,1-.441.617v.011a.629.629,0,0,1,.334.468c.078.282.156.609.2.706h-.579a3.182,3.182,0,0,1-.175-.583c-.066-.312-.174-.4-.4-.4h-.172v.985h-.561Zm.561,1.078h.224c.282,0,.449-.141.449-.36s-.156-.345-.416-.349a1.4,1.4,0,0,0-.257.019Z" transform="translate(-6295.238 -2277.632)" fill="#333"/>
        </g>
      </g>
    </g>
    <g id="グループ_15409" data-name="グループ 15409" transform="translate(-5509.124 2293.562)">
      <g id="グループ_15394-2" data-name="グループ 15394" transform="translate(5802.823 1636.4)">
        <path id="パス_88720-2" data-name="パス 88720" d="M6391.4,1718.01c1.6,0,2.9.324,2.9.724s-1.3.725-2.9.725-2.9-.324-2.9-.725S6389.8,1718.01,6391.4,1718.01Z" transform="translate(-6349.762 -1712.612)" fill="#677554"/>
        <path id="パス_88721-2" data-name="パス 88721" d="M5871.253,2565.343v25.221a.7.7,0,0,0-.351.608c0,.25-1.221,1.379-7.2,2.343a140.516,140.516,0,0,1-37.391,0c-5.979-.964-7.2-2.093-7.2-2.343a.7.7,0,0,0-.351-.608v-25.221c1.074.715,3.194,1.468,7.327,2.135a141.915,141.915,0,0,0,37.84,0C5868.059,2566.811,5870.18,2566.058,5871.253,2565.343Z" transform="translate(-5817.705 -2503.9)" fill="#64984e"/>
        <path id="パス_88722-2" data-name="パス 88722" d="M5871.253,2150.721v25.221a.7.7,0,0,0-.351.607c0,.25-1.221,1.379-7.2,2.343a140.489,140.489,0,0,1-37.391,0c-5.979-.964-7.2-2.093-7.2-2.343a.7.7,0,0,0-.351-.607v-25.221c1.074.713,3.194,1.467,7.327,2.134a141.915,141.915,0,0,0,37.84,0C5868.059,2152.188,5870.18,2151.435,5871.253,2150.721Z" transform="translate(-5817.705 -2116.702)" fill="#64984e"/>
        <path id="パス_88723-2" data-name="パス 88723" d="M5871.253,1736.1v25.219a.7.7,0,0,0-.351.608c0,.25-1.221,1.379-7.2,2.344a140.5,140.5,0,0,1-37.391,0c-5.979-.966-7.2-2.095-7.2-2.344a.7.7,0,0,0-.351-.608V1736.1c1.074.714,3.194,1.467,7.327,2.135a141.915,141.915,0,0,0,37.84,0C5868.059,1737.566,5870.18,1736.813,5871.253,1736.1Z" transform="translate(-5817.705 -1729.505)" fill="#64984e"/>
        <path id="パス_88724-2" data-name="パス 88724" d="M5946.562,1713.838c2.383,0,4.312.481,4.312,1.078s-1.929,1.078-4.312,1.078-4.311-.483-4.311-1.078S5944.18,1713.838,5946.562,1713.838Z" transform="translate(-5933.028 -1708.716)" fill="#677554"/>
        <path id="パス_88725-2" data-name="パス 88725" d="M5825.771,1662.146l.081.157c-1.4-.511-1.788-.929-1.788-1.07,0-.25,1.221-1.379,7.2-2.343a140.516,140.516,0,0,1,37.391,0c5.979.965,7.2,2.094,7.2,2.343,0,.132-.346.514-1.569.988-3.14-1.769-12.842-3.058-24.327-3.058C5838.638,1659.162,5829.049,1660.415,5825.771,1662.146Z" transform="translate(-5822.659 -1656.235)" fill="#608c4c"/>
        <path id="パス_88726-2" data-name="パス 88726" d="M5898.392,1683.714a29,29,0,0,1-5.631,1.356,140.526,140.526,0,0,1-37.391,0,30.453,30.453,0,0,1-5.413-1.274l-.081-.157c3.278-1.731,12.867-2.983,24.189-2.983C5885.55,1680.656,5895.251,1681.945,5898.392,1683.714Zm-7.1.136c0-.4-1.3-.724-2.9-.724s-2.9.324-2.9.724,1.3.725,2.9.725S5891.294,1684.251,5891.294,1683.851Zm-26.686.078c0-.6-1.929-1.078-4.312-1.078s-4.31.481-4.31,1.078,1.929,1.078,4.31,1.078S5864.608,1684.523,5864.608,1683.928Z" transform="translate(-5846.764 -1677.729)" fill="#6ba055"/>
        <path id="パス_88727-2" data-name="パス 88727" d="M5854.452,1642.385c1.223-.474,1.569-.856,1.569-.988,0-.25-1.221-1.379-7.2-2.343a140.516,140.516,0,0,0-37.391,0c-5.979.965-7.2,2.094-7.2,2.343,0,.141.386.559,1.788,1.07a30.483,30.483,0,0,0,5.412,1.274,140.5,140.5,0,0,0,37.391,0A28.984,28.984,0,0,0,5854.452,1642.385Zm-50.574.609a1.876,1.876,0,0,1-1.054-1.6c0-1.02.869-2.518,8.381-3.73a141.915,141.915,0,0,1,37.84,0c7.512,1.213,8.381,2.71,8.381,3.73a1.878,1.878,0,0,1-1.054,1.6c-1.073.714-3.194,1.467-7.327,2.135a141.915,141.915,0,0,1-37.84,0C5807.072,1644.461,5804.951,1643.708,5803.877,1642.994Z" transform="translate(-5802.824 -1636.4)" fill="#70ad59"/>
        <path id="パス_88728-2" data-name="パス 88728" d="M5803.877,2945.3a.7.7,0,0,1,.351.608c0,.249,1.221,1.378,7.2,2.343a140.516,140.516,0,0,0,37.391,0c5.979-.965,7.2-2.094,7.2-2.343a.7.7,0,1,1,1.405,0c0,1.02-.869,2.518-8.381,3.73a141.915,141.915,0,0,1-37.84,0c-7.512-1.212-8.381-2.71-8.381-3.73a.7.7,0,0,1,.7-.7A.7.7,0,0,1,5803.877,2945.3Z" transform="translate(-5802.824 -2858.639)" fill="#4e7c39"/>
        <path id="パス_88729-2" data-name="パス 88729" d="M5856.724,2530.586a.705.705,0,0,0-.7.7c0,.249-1.221,1.378-7.2,2.343a140.516,140.516,0,0,1-37.391,0c-5.979-.965-7.2-2.094-7.2-2.343a.7.7,0,1,0-1.4,0,1.875,1.875,0,0,0,1.054,1.6c1.073.715,3.194,1.468,7.327,2.135a141.942,141.942,0,0,0,37.84,0c4.133-.667,6.254-1.42,7.327-2.135a1.877,1.877,0,0,0,1.054-1.6A.7.7,0,0,0,5856.724,2530.586Z" transform="translate(-5802.824 -2471.442)" fill="#4e7c39"/>
        <path id="パス_88730-2" data-name="パス 88730" d="M5856.021,2116.666c0,.25-1.221,1.379-7.2,2.344a140.489,140.489,0,0,1-37.391,0c-5.979-.966-7.2-2.095-7.2-2.344a.7.7,0,0,0-.351-.608.693.693,0,0,0-.352-.094.7.7,0,0,0-.7.7,1.874,1.874,0,0,0,1.054,1.6c1.073.714,3.194,1.467,7.327,2.135a141.915,141.915,0,0,0,37.84,0c4.133-.668,6.254-1.421,7.327-2.135.762-.495,1.711-2.162,0-2.2A.7.7,0,0,0,5856.021,2116.666Z" transform="translate(-5802.824 -2084.244)" fill="#4e7c39"/>
      </g>
      <g id="グループ_15406-2" data-name="グループ 15406" transform="translate(5821.542 1675.56)">
        <g id="グループ_15395-2" data-name="グループ 15395" transform="translate(0 0)">
          <rect id="長方形_30149-2" data-name="長方形 30149" width="18.578" height="21.726" rx="2" transform="translate(18.801 21.948) rotate(180)" fill="#edca02"/>
          <path id="パス_88731-2" data-name="パス 88731" d="M6103.749,2250.621h-16.816a1.105,1.105,0,0,1-1.1-1.1v-19.964a1.105,1.105,0,0,1,1.1-1.1h16.816a1.1,1.1,0,0,1,1.1,1.1v19.964A1.1,1.1,0,0,1,6103.749,2250.621Zm-16.816-21.726a.659.659,0,0,0-.658.658v19.964a.659.659,0,0,0,.658.658h16.816a.659.659,0,0,0,.658-.658v-19.964a.659.659,0,0,0-.658-.658Z" transform="translate(-6085.829 -2228.45)" fill="#333"/>
        </g>
        <g id="グループ_15404-2" data-name="グループ 15404" transform="translate(3.43 7.537)">
          <g id="グループ_15397-2" data-name="グループ 15397" transform="translate(4.818 4.007)">
            <g id="グループ_15396-2" data-name="グループ 15396" transform="translate(0 0)">
              <circle id="楕円形_469-2" data-name="楕円形 469" cx="1.106" cy="1.106" r="1.106" transform="matrix(0.988, -0.155, 0.155, 0.988, 0, 0.342)" fill="#333"/>
            </g>
          </g>
          <g id="グループ_15399-2" data-name="グループ 15399" transform="translate(6.942 0.008)">
            <g id="グループ_15398-2" data-name="グループ 15398">
              <path id="パス_88732-2" data-name="パス 88732" d="M6243.5,2347.773l4.364,0a6.077,6.077,0,0,0-3.035-5.269l-2.186,3.776A1.715,1.715,0,0,1,6243.5,2347.773Z" transform="translate(-6242.646 -2342.509)" fill="#333"/>
            </g>
          </g>
          <g id="グループ_15401-2" data-name="グループ 15401" transform="translate(3.035 6.757)">
            <g id="グループ_15400-2" data-name="グループ 15400">
              <path id="パス_88733-2" data-name="パス 88733" d="M6185.765,2444.548l-2.185,3.776a6.077,6.077,0,0,0,6.081.008l-2.177-3.781A1.718,1.718,0,0,1,6185.765,2444.548Z" transform="translate(-6183.58 -2444.548)" fill="#333"/>
            </g>
          </g>
          <g id="グループ_15403-2" data-name="グループ 15403">
            <g id="グループ_15402-2" data-name="グループ 15402">
              <path id="パス_88734-2" data-name="パス 88734" d="M6142.286,2346.8a1.7,1.7,0,0,1,.63-.628l-2.178-3.782a6.09,6.09,0,0,0-3.047,5.264l4.364,0A1.709,1.709,0,0,1,6142.286,2346.8Z" transform="translate(-6137.691 -2342.393)" fill="#333"/>
            </g>
          </g>
        </g>
        <g id="グループ_15405-2" data-name="グループ 15405" transform="translate(2.603 3.246)">
          <path id="パス_88735-2" data-name="パス 88735" d="M6125.18,2277.691a5.052,5.052,0,0,1,.766-.052,1.611,1.611,0,0,1,1.025.268,1.107,1.107,0,0,1,.424.944,1.269,1.269,0,0,1-.417,1.014,1.8,1.8,0,0,1-1.155.323,4.856,4.856,0,0,1-.643-.037Zm.569,2.043a1.029,1.029,0,0,0,.2.011.776.776,0,0,0,.847-.877.718.718,0,0,0-.788-.795,1.19,1.19,0,0,0-.256.022Z" transform="translate(-6125.18 -2277.632)" fill="#333"/>
          <path id="パス_88736-2" data-name="パス 88736" d="M6161.39,2279.781l-.179.643h-.587l.766-2.5h.743l.776,2.5h-.609l-.193-.643Zm.635-.423-.156-.531c-.044-.148-.089-.334-.126-.483h-.007c-.037.148-.074.338-.115.483l-.149.531Z" transform="translate(-6158.28 -2277.894)" fill="#333"/>
          <path id="パス_88737-2" data-name="パス 88737" d="M6200.223,2280.424v-2.5h.661l.521.918a7.268,7.268,0,0,1,.409.858h.011a9.418,9.418,0,0,1-.048-1.044v-.732h.52v2.5h-.594l-.535-.966a9.2,9.2,0,0,1-.435-.884l-.012,0c.015.331.023.684.023,1.092v.754Z" transform="translate(-6195.26 -2277.894)" fill="#333"/>
          <path id="パス_88738-2" data-name="パス 88738" d="M6239.445,2279.942a2.8,2.8,0,0,1-.836.141,1.4,1.4,0,0,1-1.018-.338,1.212,1.212,0,0,1-.353-.91,1.292,1.292,0,0,1,1.43-1.308,1.722,1.722,0,0,1,.695.123l-.119.453a1.4,1.4,0,0,0-.583-.108.816.816,0,0,0-.041,1.631.75.75,0,0,0,.278-.037v-.523h-.386v-.442h.932Z" transform="translate(-6229.826 -2277.527)" fill="#333"/>
          <path id="パス_88739-2" data-name="パス 88739" d="M6278.778,2279.365h-.922v.594h1.029v.464h-1.6v-2.5h1.545v.465h-.978v.52h.922Z" transform="translate(-6267.228 -2277.894)" fill="#333"/>
          <path id="パス_88740-2" data-name="パス 88740" d="M6307.283,2277.691a5,5,0,0,1,.754-.052,1.28,1.28,0,0,1,.811.2.636.636,0,0,1,.229.524.665.665,0,0,1-.441.617v.011a.629.629,0,0,1,.334.468c.078.282.156.609.2.706h-.579a3.182,3.182,0,0,1-.175-.583c-.066-.312-.174-.4-.4-.4h-.172v.985h-.561Zm.561,1.078h.224c.282,0,.449-.141.449-.36s-.156-.345-.416-.349a1.4,1.4,0,0,0-.257.019Z" transform="translate(-6295.238 -2277.632)" fill="#333"/>
        </g>
      </g>
    </g>
    <g id="グループ_15407" data-name="グループ 15407" transform="translate(-5556.193 2303.754)">
      <g id="グループ_15394-3" data-name="グループ 15394" transform="translate(5802.823 1636.4)">
        <path id="パス_88720-3" data-name="パス 88720" d="M6391.51,1718.01c1.662,0,3.009.337,3.009.752s-1.347.754-3.009.754-3.01-.337-3.01-.754S6389.847,1718.01,6391.51,1718.01Z" transform="translate(-6348.244 -1712.401)" fill="#677554"/>
        <path id="パス_88721-3" data-name="パス 88721" d="M5873.31,2565.343v26.209a.727.727,0,0,0-.365.631c0,.26-1.269,1.433-7.483,2.435a146.034,146.034,0,0,1-38.856,0c-6.214-1-7.482-2.175-7.482-2.435a.727.727,0,0,0-.365-.631v-26.209c1.116.743,3.319,1.525,7.614,2.218a147.486,147.486,0,0,0,39.323,0C5869.99,2566.868,5872.194,2566.086,5873.31,2565.343Z" transform="translate(-5817.663 -2501.492)" fill="#74ac5e"/>
        <path id="パス_88722-3" data-name="パス 88722" d="M5873.31,2150.721v26.209a.725.725,0,0,0-.365.632c0,.26-1.269,1.433-7.483,2.435a146.034,146.034,0,0,1-38.856,0c-6.214-1-7.482-2.176-7.482-2.435a.726.726,0,0,0-.365-.632v-26.209c1.116.741,3.319,1.524,7.614,2.218a147.459,147.459,0,0,0,39.323,0C5869.99,2152.245,5872.194,2151.462,5873.31,2150.721Z" transform="translate(-5817.663 -2115.369)" fill="#74ac5e"/>
        <path id="パス_88723-3" data-name="パス 88723" d="M5873.31,1736.1v26.208a.729.729,0,0,0-.365.631c0,.259-1.269,1.432-7.483,2.436a146.006,146.006,0,0,1-38.856,0c-6.214-1-7.482-2.177-7.482-2.436a.729.729,0,0,0-.365-.631V1736.1c1.116.741,3.319,1.524,7.614,2.218a147.472,147.472,0,0,0,39.323,0C5869.99,1737.623,5872.194,1736.84,5873.31,1736.1Z" transform="translate(-5817.663 -1729.246)" fill="#74ac5e"/>
        <path id="パス_88724-3" data-name="パス 88724" d="M5946.729,1713.838c2.477,0,4.481.5,4.481,1.12s-2,1.12-4.481,1.12-4.479-.5-4.479-1.12S5944.255,1713.838,5946.729,1713.838Z" transform="translate(-5932.667 -1708.515)" fill="#677554"/>
        <path id="パス_88725-3" data-name="パス 88725" d="M5825.837,1662.322l.084.163c-1.457-.531-1.858-.966-1.858-1.112,0-.26,1.27-1.433,7.483-2.435a146.02,146.02,0,0,1,38.856,0c6.213,1,7.483,2.175,7.483,2.435,0,.137-.36.534-1.631,1.027-3.263-1.838-13.346-3.178-25.28-3.178C5839.208,1659.222,5829.244,1660.523,5825.837,1662.322Z" transform="translate(-5822.603 -1656.18)" fill="#608c4c"/>
        <path id="パス_88726-3" data-name="パス 88726" d="M5900.292,1683.834a30.13,30.13,0,0,1-5.852,1.41,146.016,146.016,0,0,1-38.855,0,31.659,31.659,0,0,1-5.625-1.324l-.084-.163c3.407-1.8,13.371-3.1,25.136-3.1C5886.947,1680.656,5897.029,1682,5900.292,1683.834Zm-7.376.142c0-.415-1.347-.752-3.008-.752s-3.01.337-3.01.752,1.347.754,3.01.754S5892.917,1684.392,5892.917,1683.976Zm-27.732.081c0-.62-2-1.12-4.48-1.12s-4.479.5-4.479,1.12,2,1.12,4.479,1.12S5865.185,1684.674,5865.185,1684.057Z" transform="translate(-5846.642 -1677.614)" fill="#6ba055"/>
        <path id="パス_88727-3" data-name="パス 88727" d="M5856.474,1642.62c1.271-.493,1.63-.889,1.63-1.027,0-.259-1.269-1.433-7.483-2.435a146.034,146.034,0,0,0-38.856,0c-6.213,1-7.482,2.176-7.482,2.435,0,.146.4.581,1.858,1.112a31.676,31.676,0,0,0,5.625,1.324,146.006,146.006,0,0,0,38.856,0A30.109,30.109,0,0,0,5856.474,1642.62Zm-52.556.633a1.949,1.949,0,0,1-1.1-1.66c0-1.06.9-2.616,8.709-3.877a147.472,147.472,0,0,1,39.323,0c7.807,1.26,8.71,2.816,8.71,3.877a1.951,1.951,0,0,1-1.1,1.66c-1.115.741-3.319,1.524-7.614,2.218a147.472,147.472,0,0,1-39.323,0C5807.238,1644.777,5805.034,1643.994,5803.918,1643.253Z" transform="translate(-5802.823 -1636.4)" fill="#70ad59"/>
        <path id="パス_88728-3" data-name="パス 88728" d="M5803.918,2945.307a.728.728,0,0,1,.365.632c0,.259,1.269,1.432,7.482,2.435a146.006,146.006,0,0,0,38.856,0c6.214-1,7.483-2.175,7.483-2.435a.73.73,0,1,1,1.46,0c0,1.06-.9,2.616-8.71,3.876a147.459,147.459,0,0,1-39.323,0c-7.806-1.26-8.709-2.816-8.709-3.876a.731.731,0,0,1,.729-.731A.723.723,0,0,1,5803.918,2945.307Z" transform="translate(-5802.823 -2855.247)" fill="#608c4c"/>
        <path id="パス_88729-3" data-name="パス 88729" d="M5858.835,2530.586a.733.733,0,0,0-.731.731c0,.259-1.269,1.432-7.483,2.435a146.061,146.061,0,0,1-38.856,0c-6.213-1-7.482-2.176-7.482-2.435a.73.73,0,1,0-1.46,0,1.948,1.948,0,0,0,1.1,1.658c1.115.743,3.319,1.525,7.614,2.218a147.486,147.486,0,0,0,39.323,0c4.295-.692,6.5-1.475,7.614-2.218a1.95,1.95,0,0,0,1.1-1.658A.73.73,0,0,0,5858.835,2530.586Z" transform="translate(-5802.823 -2469.124)" fill="#608c4c"/>
        <path id="パス_88730-3" data-name="パス 88730" d="M5858.1,2116.693c0,.259-1.269,1.433-7.483,2.436a146.006,146.006,0,0,1-38.856,0c-6.213-1-7.482-2.177-7.482-2.436a.73.73,0,0,0-.365-.632.722.722,0,0,0-.366-.1.729.729,0,0,0-.729.729,1.947,1.947,0,0,0,1.1,1.66c1.115.742,3.319,1.524,7.614,2.218a147.486,147.486,0,0,0,39.323,0c4.295-.694,6.5-1.477,7.614-2.218.792-.514,1.779-2.247,0-2.292A.729.729,0,0,0,5858.1,2116.693Z" transform="translate(-5802.823 -2083.001)" fill="#608c4c"/>
      </g>
      <g id="グループ_15406-3" data-name="グループ 15406" transform="translate(5822.275 1677.094)">
        <g id="グループ_15395-3" data-name="グループ 15395" transform="translate(0 0)">
          <rect id="長方形_30149-3" data-name="長方形 30149" width="19.306" height="22.577" rx="2" transform="translate(19.537 22.808) rotate(180)" fill="#ffd900"/>
          <path id="パス_88731-3" data-name="パス 88731" d="M6104.451,2251.49h-17.475a1.149,1.149,0,0,1-1.147-1.147V2229.6a1.148,1.148,0,0,1,1.147-1.147h17.475a1.148,1.148,0,0,1,1.147,1.147v20.746A1.148,1.148,0,0,1,6104.451,2251.49Zm-17.475-22.577a.684.684,0,0,0-.684.684v20.746a.685.685,0,0,0,.684.684h17.475a.685.685,0,0,0,.684-.684V2229.6a.685.685,0,0,0-.684-.684Z" transform="translate(-6085.829 -2228.45)" fill="#333"/>
        </g>
        <g id="グループ_15404-3" data-name="グループ 15404" transform="translate(3.565 7.832)">
          <g id="グループ_15397-3" data-name="グループ 15397" transform="translate(5.007 4.164)">
            <g id="グループ_15396-3" data-name="グループ 15396" transform="translate(0 0)">
              <circle id="楕円形_469-3" data-name="楕円形 469" cx="1.149" cy="1.149" r="1.149" transform="matrix(0.988, -0.155, 0.155, 0.988, 0, 0.356)" fill="#333"/>
            </g>
          </g>
          <g id="グループ_15399-3" data-name="グループ 15399" transform="translate(7.214 0.008)">
            <g id="グループ_15398-3" data-name="グループ 15398">
              <path id="パス_88732-3" data-name="パス 88732" d="M6243.536,2347.98l4.535.005a6.315,6.315,0,0,0-3.154-5.476l-2.271,3.924A1.783,1.783,0,0,1,6243.536,2347.98Z" transform="translate(-6242.646 -2342.509)" fill="#333"/>
            </g>
          </g>
          <g id="グループ_15401-3" data-name="グループ 15401" transform="translate(3.154 7.022)">
            <g id="グループ_15400-3" data-name="グループ 15400">
              <path id="パス_88733-3" data-name="パス 88733" d="M6185.85,2444.548l-2.271,3.924a6.315,6.315,0,0,0,6.319.008l-2.263-3.929A1.785,1.785,0,0,1,6185.85,2444.548Z" transform="translate(-6183.579 -2444.548)" fill="#333"/>
            </g>
          </g>
          <g id="グループ_15403-3" data-name="グループ 15403">
            <g id="グループ_15402-3" data-name="グループ 15402">
              <path id="パス_88734-3" data-name="パス 88734" d="M6142.466,2346.975a1.765,1.765,0,0,1,.654-.652l-2.263-3.93a6.327,6.327,0,0,0-3.167,5.47l4.535,0A1.774,1.774,0,0,1,6142.466,2346.975Z" transform="translate(-6137.69 -2342.393)" fill="#333"/>
            </g>
          </g>
        </g>
        <g id="グループ_15405-3" data-name="グループ 15405" transform="translate(2.705 3.373)">
          <path id="パス_88735-3" data-name="パス 88735" d="M6125.18,2277.693a5.256,5.256,0,0,1,.8-.054,1.673,1.673,0,0,1,1.065.278,1.151,1.151,0,0,1,.44.98,1.32,1.32,0,0,1-.433,1.054,1.868,1.868,0,0,1-1.2.336,5.043,5.043,0,0,1-.668-.039Zm.591,2.124a1.071,1.071,0,0,0,.2.012.807.807,0,0,0,.88-.911.747.747,0,0,0-.818-.826,1.234,1.234,0,0,0-.267.023Z" transform="translate(-6125.18 -2277.631)" fill="#333"/>
          <path id="パス_88736-3" data-name="パス 88736" d="M6161.419,2279.854l-.186.668h-.61l.8-2.6h.772l.807,2.6h-.633l-.2-.668Zm.66-.44-.163-.552c-.046-.154-.092-.347-.131-.5h-.008c-.039.155-.077.351-.12.5l-.155.552Z" transform="translate(-6158.188 -2277.893)" fill="#333"/>
          <path id="パス_88737-3" data-name="パス 88737" d="M6200.223,2280.522v-2.6h.687l.541.954a7.53,7.53,0,0,1,.424.892h.012a9.66,9.66,0,0,1-.05-1.085v-.761h.541v2.6h-.618l-.556-1a9.728,9.728,0,0,1-.452-.919l-.012,0c.016.344.023.71.023,1.135v.784Z" transform="translate(-6195.065 -2277.893)" fill="#333"/>
          <path id="パス_88738-3" data-name="パス 88738" d="M6239.531,2280.036a2.9,2.9,0,0,1-.869.147,1.45,1.45,0,0,1-1.058-.351,1.257,1.257,0,0,1-.366-.946,1.342,1.342,0,0,1,1.486-1.359,1.789,1.789,0,0,1,.722.127l-.123.471a1.45,1.45,0,0,0-.606-.112.848.848,0,1,0,.247,1.656v-.544h-.4v-.459h.969Z" transform="translate(-6229.536 -2277.527)" fill="#333"/>
          <path id="パス_88739-3" data-name="パス 88739" d="M6278.836,2279.422h-.958v.618h1.07v.482h-1.66v-2.6h1.606v.483h-1.016v.54h.958Z" transform="translate(-6266.833 -2277.893)" fill="#333"/>
          <path id="パス_88740-3" data-name="パス 88740" d="M6307.283,2277.693a5.183,5.183,0,0,1,.784-.054,1.328,1.328,0,0,1,.842.2.661.661,0,0,1,.239.544.692.692,0,0,1-.459.641v.011a.656.656,0,0,1,.347.486c.082.293.163.633.212.734h-.6a3.286,3.286,0,0,1-.182-.606c-.069-.324-.181-.413-.42-.417h-.178v1.023h-.583Zm.583,1.12h.231c.293,0,.467-.147.467-.375s-.162-.359-.433-.363a1.446,1.446,0,0,0-.266.02Z" transform="translate(-6294.767 -2277.631)" fill="#333"/>
        </g>
      </g>
    </g>
  </g>
</svg>
