<svg xmlns="http://www.w3.org/2000/svg" width="200" height="120" viewBox="0 0 200 120">
  <g id="sample_obj08" transform="translate(-176 -3923)">
    <rect id="長方形_27055" data-name="長方形 27055" width="200" height="120" rx="10" transform="translate(176 3923)" fill="#dcdcdc" opacity="0"/>
    <g id="グループ_7201" data-name="グループ 7201" transform="translate(-2429.693 1834.526)">
      <g id="グループ_7198" data-name="グループ 7198" transform="translate(2744.706 2105.599)">
        <path id="パス_77183" data-name="パス 77183" d="M4794.007,2335.512v47.624a4.255,4.255,0,0,1-4.255,4.255h-22.963a5.134,5.134,0,0,1-5.133-5.134v-58.712a13.939,13.939,0,0,1,4.394-10.158l5.021-4.719,2.131-2,17.951,21.086A11.971,11.971,0,0,1,4794.007,2335.512Z" transform="translate(-4761.656 -2298.772)" fill="#72bad3"/>
        <g id="グループ_7197" data-name="グループ 7197" transform="translate(11.545 0)">
          <path id="パス_77184" data-name="パス 77184" d="M5199.948,2159.007a.44.44,0,0,0,.026-.6l-.5-.591-.5-.591a.44.44,0,0,0-.6-.071l-4.226,3.086,1.04,1.222,1.039,1.221Z" transform="translate(-5182.867 -2157.071)" fill="#cf3c32"/>
          <path id="パス_77185" data-name="パス 77185" d="M5277.059,2158.409l-.5-.591-.5-.591a.44.44,0,0,0-.526-.112l1.558,1.831A.441.441,0,0,0,5277.059,2158.409Z" transform="translate(-5259.952 -2157.072)" fill="#fff" opacity="0.46"/>
          <path id="パス_77186" data-name="パス 77186" d="M4995.331,2185.884a.864.864,0,0,0,.028-1.152l-2.044-2.4-2.044-2.4a.865.865,0,0,0-1.142-.156l-9.715,6.557,3.444,4.048,3.444,4.048Z" transform="translate(-4980.414 -2178.432)" fill="#cf3c32"/>
          <path id="パス_77187" data-name="パス 77187" d="M5176.37,2184.732l-2.044-2.4-2.044-2.4a.864.864,0,0,0-.771-.3l5.029,5.911A.865.865,0,0,0,5176.37,2184.732Z" transform="translate(-5161.424 -2178.432)" fill="#fff" opacity="0.46"/>
          <path id="パス_77188" data-name="パス 77188" d="M4980.79,2301.853l-.376.254,3.444,4.048,3.444,4.048.312-.331Z" transform="translate(-4980.414 -2294.212)" opacity="0.23"/>
        </g>
        <rect id="長方形_29629" data-name="長方形 29629" width="23.035" height="44.395" rx="11.518" transform="translate(4.658 37.087)" fill="#d3d1d6"/>
        <rect id="長方形_29630" data-name="長方形 29630" width="23.035" height="1.871" transform="translate(4.658 41.825)" fill="#e48782"/>
        <rect id="長方形_29631" data-name="長方形 29631" width="23.035" height="1.496" transform="translate(4.658 75.745)" fill="#e48782"/>
        <rect id="長方形_29632" data-name="長方形 29632" width="23.035" height="4.489" transform="translate(4.658 69.884)" fill="#e48782"/>
        <path id="パス_77189" data-name="パス 77189" d="M4794.007,2335.512v47.624a4.255,4.255,0,0,1-4.255,4.255h-22.963a5.134,5.134,0,0,1-5.133-5.134v-2.22c9.106,1.275,28.946.7,26.7-29.263a71.841,71.841,0,0,0-17.283-42.1l2.131-2,17.951,21.086A11.971,11.971,0,0,1,4794.007,2335.512Z" transform="translate(-4761.656 -2298.772)" opacity="0.05"/>
      </g>
      <g id="グループ_7199" data-name="グループ 7199" transform="translate(2678.209 2110.842)">
        <path id="パス_77190" data-name="パス 77190" d="M3553.222,2451.53c-4.729-13.871-18.871-17.411-18.871-17.411h-10.177s-14.142,3.54-18.871,17.411c-3.118,9.146-3.632,30.832-3.62,44.545,0,3.045.031,5.7.063,7.731a4.379,4.379,0,0,0,4.378,4.311H3552.4a4.379,4.379,0,0,0,4.378-4.311C3556.953,2492.61,3557.032,2462.707,3553.222,2451.53Zm-3.859,8.591c-2.26,1.3-6.543-1.882-9.566-7.118s-3.642-10.539-1.381-11.844,6.543,1.882,9.566,7.118S3551.623,2458.815,3549.362,2460.12Z" transform="translate(-3501.683 -2424.74)" fill="#ef683f"/>
        <path id="パス_77191" data-name="パス 77191" d="M3656.355,2632.91c-2.355.585-6.222-2.5-9.015-7.34a19.858,19.858,0,0,1-2.7-7.613,19.345,19.345,0,0,0-7.838-1.655h0a19.25,19.25,0,0,0-11.747,3.979,20.4,20.4,0,0,0-7.006,9.65c-2.982,8.748-2.921,32.155-2.785,40.918a3.427,3.427,0,0,0,3.427,3.374h36.222a3.427,3.427,0,0,0,3.427-3.374C3658.468,2662.948,3658.53,2643.143,3656.355,2632.91Z" transform="translate(-3609.228 -2597.309)" fill="#ce563a"/>
        <path id="パス_77192" data-name="パス 77192" d="M3641.513,2695.762a2.157,2.157,0,0,1-2.156-2.123c-.064-4.138-.121-12.289.222-20.391.187-4.421.47-8.293.842-11.51a44.074,44.074,0,0,1,1.653-8.588,19.057,19.057,0,0,1,6.579-9.053,17.815,17.815,0,0,1,5.174-2.764,18.12,18.12,0,0,1,12.468.321,21.988,21.988,0,0,0,2.762,7.361,22.614,22.614,0,0,0,4.542,5.693,8.6,8.6,0,0,0,4.54,2.331c1.929,10.341,1.872,28.906,1.752,36.6a2.156,2.156,0,0,1-2.156,2.123Z" transform="translate(-3632.045 -2620.118)" fill="#0089c4"/>
        <path id="パス_77193" data-name="パス 77193" d="M4152.428,2523.844c-3.8-6.577-9.177-10.58-12.016-8.941s-2.062,8.3,1.735,14.877,9.177,10.58,12.016,8.941S4156.225,2530.421,4152.428,2523.844Zm.334,12.449c-2.261,1.3-6.544-1.882-9.567-7.118s-3.642-10.539-1.381-11.844,6.543,1.882,9.566,7.118S4155.021,2534.988,4152.762,2536.293Z" transform="translate(-4105.082 -2500.913)" fill="#ce563a"/>
        <path id="パス_77194" data-name="パス 77194" d="M3951.453,2256.414h-6.371a1.048,1.048,0,0,0-1.048,1.048v6.026h8.467v-6.026A1.047,1.047,0,0,0,3951.453,2256.414Z" transform="translate(-3920.688 -2256.414)" fill="#0090af"/>
        <path id="パス_77195" data-name="パス 77195" d="M3954.094,2256.414h-6.371a1.046,1.046,0,0,0-.9.512h8.172A1.048,1.048,0,0,0,3954.094,2256.414Z" transform="translate(-3923.329 -2256.414)" fill="#fff" opacity="0.46"/>
        <path id="パス_77196" data-name="パス 77196" d="M3937.252,2379.613h-8.664a.756.756,0,0,0-.756.756v2.12h10.177v-2.12A.756.756,0,0,0,3937.252,2379.613Z" transform="translate(-3905.34 -2373.111)" fill="#0090af"/>
        <path id="パス_77197" data-name="パス 77197" d="M3939.326,2379.613h-8.665a.756.756,0,0,0-.641.355h9.946A.756.756,0,0,0,3939.326,2379.613Z" transform="translate(-3907.415 -2373.111)" fill="#fff" opacity="0.46"/>
        <rect id="長方形_29633" data-name="長方形 29633" width="10.177" height="0.433" transform="translate(22.491 8.945)" opacity="0.33"/>
        <path id="パス_77198" data-name="パス 77198" d="M3553.225,2451.53c-4.729-13.871-18.871-17.411-18.871-17.411H3524.6c7.889,7.721,15.715,19.77,15.274,37-.72,28.153-28.362,26.456-38.189,24.957,0,3.045.031,5.7.063,7.731a4.379,4.379,0,0,0,4.378,4.311H3552.4a4.379,4.379,0,0,0,4.378-4.311C3556.957,2492.61,3557.035,2462.707,3553.225,2451.53Zm-3.859,8.591c-2.26,1.3-6.543-1.882-9.567-7.118s-3.642-10.539-1.381-11.844,6.543,1.882,9.567,7.118S3551.626,2458.815,3549.366,2460.12Z" transform="translate(-3501.687 -2424.74)" opacity="0.05"/>
      </g>
      <g id="グループ_7200" data-name="グループ 7200" transform="translate(2632.327 2102.731)">
        <path id="パス_77199" data-name="パス 77199" d="M2664.546,2391.249a8.951,8.951,0,0,1,1.953,5.612v34.832a3.465,3.465,0,0,1-3.355,3.565h-26.789a3.465,3.465,0,0,1-3.355-3.565V2396.86a8.95,8.95,0,0,1,1.953-5.612l2.507-3.107a7,7,0,0,0-.732-9.493l-3.612-3.224a2.454,2.454,0,0,1-.22-3.375l11.96-14.091a2.144,2.144,0,0,1,1.635-.757h6.517a2.144,2.144,0,0,1,1.635.757l11.959,14.091a2.454,2.454,0,0,1-.22,3.375l-3.612,3.224a7,7,0,0,0-.732,9.493Z" transform="translate(-2632.327 -2343.77)" fill="#fed64e"/>
        <path id="パス_77200" data-name="パス 77200" d="M2769.192,2357.583a1.087,1.087,0,0,0-.828-.384h-7.5a1.087,1.087,0,0,0-.828.384l-6.446,7.595h22.046Z" transform="translate(-2747.192 -2343.77)" fill="#ccedea"/>
        <path id="パス_77201" data-name="パス 77201" d="M2789.435,2924.885h0c-5.669,0-10.264,3.759-10.264,8.4v35.952H2799.7V2933.28C2799.7,2928.644,2795.1,2924.885,2789.435,2924.885Z" transform="translate(-2771.421 -2881.494)" fill="#7fa040"/>
        <path id="パス_77202" data-name="パス 77202" d="M2797.866,2985.954v-34.965c0-4.085,4.162-7.409,9.277-7.409s9.278,3.323,9.278,7.409v34.965Z" transform="translate(-2789.129 -2899.203)" fill="#9cc851"/>
        <rect id="長方形_29634" data-name="長方形 29634" width="5.07" height="3.628" rx="1.814" transform="translate(14.888 3.066)" fill="#d63936"/>
        <path id="パス_77203" data-name="パス 77203" d="M2919.484,2161.088v.592h-5.07v-.592a.273.273,0,0,1,.273-.273h4.524A.273.273,0,0,1,2919.484,2161.088Z" transform="translate(-2899.526 -2157.75)" opacity="0.23"/>
        <path id="パス_77204" data-name="パス 77204" d="M2882.145,2102.731c-2.441,0-4.425,1.515-4.475,3.4h8.949C2886.57,2104.246,2884.585,2102.731,2882.145,2102.731Z" transform="translate(-2864.721 -2102.731)" fill="#f04539"/>
        <rect id="長方形_29635" data-name="長方形 29635" width="8.676" height="6.208" rx="3.104" transform="translate(13.085 7.222)" fill="#f04539"/>
        <path id="パス_77205" data-name="パス 77205" d="M2880.8,2351.384a.467.467,0,0,0,.438.307h7.741a.467.467,0,0,0,.438-.307Z" transform="translate(-2867.689 -2338.261)" opacity="0.23"/>
        <path id="パス_77206" data-name="パス 77206" d="M2888.932,2288.1v1.013h-8.676V2288.1a.467.467,0,0,1,.468-.467h7.741A.467.467,0,0,1,2888.932,2288.1Z" transform="translate(-2867.171 -2277.876)" opacity="0.23"/>
        <path id="パス_77207" data-name="パス 77207" d="M2825.038,2188.247c-4.177,0-7.572,2.591-7.656,5.813h15.312C2832.61,2190.838,2829.215,2188.247,2825.038,2188.247Z" transform="translate(-2807.615 -2183.734)" fill="#f04539"/>
        <path id="パス_77208" data-name="パス 77208" d="M2676.635,2391.249a8.95,8.95,0,0,1,1.953,5.612v34.832a3.465,3.465,0,0,1-3.355,3.565h-26.789a3.465,3.465,0,0,1-3.355-3.565v-3.641c7.965,1,22.606-1.462,21.087-33.629-.811-17.167-2.429-29.079-4.1-37.222h3.021a2.144,2.144,0,0,1,1.635.757l11.96,14.091a2.454,2.454,0,0,1-.22,3.375l-3.612,3.224a7,7,0,0,0-.732,9.493Z" transform="translate(-2644.417 -2343.77)" opacity="0.05"/>
      </g>
    </g>
  </g>
</svg>
