<svg xmlns="http://www.w3.org/2000/svg" xmlns:xlink="http://www.w3.org/1999/xlink" width="200" height="120" viewBox="0 0 200 120"><defs><linearGradient id="a" x1="0.5" y1="0.917" x2="0.5" y2="0.106" gradientUnits="objectBoundingBox"><stop offset="0" stop-color="#96663d"/><stop offset="0.253" stop-color="#8f6039"/><stop offset="0.608" stop-color="#7d512e"/><stop offset="1" stop-color="#613a1e"/></linearGradient><clipPath id="b"><rect width="52.634" height="44.412" fill="none"/></clipPath></defs><g transform="translate(-176 -3923)"><rect width="200" height="120" rx="10" transform="translate(176 3923)" fill="#dcdcdc" opacity="0"/><g transform="translate(215.716 3932.841)"><g transform="translate(0 12.714)"><rect width="40.292" height="2.985" transform="translate(2.812 66.843)" fill="#e5dfdc"/><rect width="45.557" height="64.398" transform="translate(0 4.415)" fill="#d0ebeb"/><path d="M2579.719,1405.475h-45.557l3.25-4.415h38.614Z" transform="translate(-2534.162 -1401.06)" fill="#dff4f4"/></g><g transform="translate(5.181 21.069)"><path d="M2577.671,1478.039a17.6,17.6,0,1,1,17.6-17.6A17.617,17.617,0,0,1,2577.671,1478.039Z" transform="translate(-2560.074 -1442.845)" fill="#403d42"/></g><rect width="10.944" height="15.669" transform="translate(30.857 62.644)" fill="#d9d6c9"/><rect width="44.94" height="1.208" transform="translate(0.308 60.067)" fill="#d9d6c9"/><rect width="8.394" height="3.544" transform="translate(34.588 19.056)" fill="#7e7e87"/><g transform="translate(6.941 22.829)"><path d="M2604.628,1467.482a15.836,15.836,0,0,0-30.656-5.583l20.4,20.4A15.862,15.862,0,0,0,2604.628,1467.482Z" transform="translate(-2572.953 -1451.645)" fill="#7e7e87"/><path d="M2584.711,1524.345a15.755,15.755,0,0,0,5.584-1.02l-20.4-20.4a15.831,15.831,0,0,0,14.818,21.421Z" transform="translate(-2568.874 -1492.67)" fill="#93939e"/></g><rect width="3.731" height="6.467" transform="translate(37.572 35.433)" fill="#bcbcc9"/><g transform="translate(7.651 0)"><rect width="25.454" height="14.395" fill="#861d0a"/><rect width="15.273" height="9.304" transform="translate(2.897 3.335)" fill="#403d42"/><rect width="0.439" height="10.928" transform="translate(19.618 1.712)" fill="#e5dfdc"/><rect width="3.072" height="1.718" transform="translate(21.253 1.712)" fill="#7e7e87"/><g transform="translate(21.242 7.308)"><rect width="1.371" height="0.767" fill="#7e7e87"/><rect width="1.371" height="0.767" transform="translate(1.712)" fill="#7e7e87"/></g><g transform="translate(21.242 8.361)"><rect width="1.371" height="0.767" fill="#7e7e87"/><rect width="1.371" height="0.767" transform="translate(1.712)" fill="#7e7e87"/></g><g transform="translate(21.242 9.414)"><rect width="1.371" height="0.767" fill="#7e7e87"/><rect width="1.371" height="0.767" transform="translate(1.712)" fill="#7e7e87"/></g><g transform="translate(21.242 10.468)"><rect width="1.371" height="0.767" fill="#7e7e87"/><rect width="1.371" height="0.767" transform="translate(1.712)" fill="#7e7e87"/></g><path d="M2682.395,1359.645a.987.987,0,1,1-.987.987A.986.986,0,0,1,2682.395,1359.645Z" transform="translate(-2659.616 -1355.212)" fill="#7e7e87"/><path d="M2596.219,1344.7h-16.392a.373.373,0,1,1,0-.746h16.392a.373.373,0,1,1,0,.746Z" transform="translate(-2578.049 -1342.656)" fill="#bcbcc9"/></g></g><g transform="translate(298.228 3935.126)"><rect width="45.467" height="75.02" transform="translate(0)" fill="#94663f"/><rect width="46.376" height="42.739" transform="translate(44.102 1.364) rotate(90)" fill="#4d2a13"/><rect width="24.552" height="42.739" transform="translate(44.102 49.104) rotate(90)" fill="#626262"/><rect width="24.37" height="42.557" transform="translate(44.011 49.195) rotate(90)" fill="#4d2a13"/><rect width="24.37" height="0.091" transform="translate(22.778 49.195) rotate(90)" fill="#626262"/><rect width="1.364" height="42.739" transform="translate(44.102 32.281) rotate(90)" fill="#94663f"/><rect width="1.364" height="42.739" transform="translate(44.102 16.823) rotate(90)" fill="#94663f"/><path d="M1376.644,1686.926v6.82h-.992l-.992-4.547h-39.68l-.992,4.547H1333v-6.82Z" transform="translate(-1332.087 -1611.906)" fill="url(#a)"/><path d="M1442.67,1548.5l-.455-.455,1.364-1.364.455.455v1.364Z" transform="translate(-1422.256 -1496.127)" fill="#b0afaf" style="mix-blend-mode:multiply;isolation:isolate"/><rect width="1.364" height="1.364" transform="translate(21.324 50.559) rotate(90)" fill="#181919"/><path d="M1466.652,1548.5l-.455-.455,1.364-1.364.455.455v1.364Z" transform="translate(-1442.055 -1496.127)" fill="#b0afaf" style="mix-blend-mode:multiply;isolation:isolate"/><rect width="1.364" height="1.364" transform="translate(25.506 50.559) rotate(90)" fill="#181919"/></g><g transform="translate(265.865 3947.56)"><path d="M96.528,597.418s0-1.108-.316-1.425c-2.351-2.2-15.344-2.566-17.189-2.607v-.875H75.065v.871s-14.877.237-17.41,2.611c-.317.317-.317,1.425-.317,1.425s-.738.29-.686,1.609c.053,1.055.581,1.688,2.031,1.741,1.557.026,1.609-1.424,1.609-1.979a2.525,2.525,0,0,0-.433-1.407c-.049-.171-.234-.932.327-1.073a98.976,98.976,0,0,1,11.712.158s-7.439,5.223-9.021,8.23a7.8,7.8,0,0,0-.168,2.549,2.392,2.392,0,0,0-.536,1.931c.053,1.153.626,1.873,2.077,1.931a1.77,1.77,0,0,0,1.829-1.931c0-.6-.054-1.59-.635-1.907h0a5.253,5.253,0,0,1,.361-2.229c.371-.6,8.05-5.554,9.892-6.737v.569a1.235,1.235,0,0,0,1.235,1.235h.22a1.235,1.235,0,0,0,1.235-1.235v-.427c2.164,1.391,9.314,6.013,9.672,6.6a5.253,5.253,0,0,1,.361,2.229c-.58.317-.635,1.3-.635,1.907a1.77,1.77,0,0,0,1.829,1.931c1.451-.058,2.025-.778,2.077-1.931a2.394,2.394,0,0,0-.536-1.931h0a7.808,7.808,0,0,0-.168-2.549c-1.583-3.007-9.022-8.23-9.022-8.23a98.976,98.976,0,0,1,11.712-.158c.561.14.377.9.327,1.073a2.528,2.528,0,0,0-.433,1.407c0,.554.053,2.005,1.609,1.979,1.451-.053,1.978-.686,2.031-1.741C97.266,597.709,96.528,597.418,96.528,597.418Z" transform="translate(-53.177 -534.427)" fill="#262626"/><g transform="translate(0 0)"><path d="M46.729,544.561a19.972,19.972,0,0,0,5.629,9.82l1.243-2.216s-.879-6.489-.617-8.625C52.984,543.54,46.758,544.561,46.729,544.561Z" transform="translate(-46.705 -502.482)" fill="#242424"/><path d="M169.517,544.56a19.971,19.971,0,0,1-5.629,9.821l-1.243-2.216s.879-6.489.617-8.625C163.262,543.54,169.488,544.56,169.517,544.56Z" transform="translate(-122.319 -502.482)" fill="#242424"/><g transform="translate(7.653 17.703)"><path d="M69.751,476.365l.019.023s-1.583,19.151-.95,25.8H79.54c-.355-16.636-1.328-20.521-3.756-22.949A13.093,13.093,0,0,0,69.751,476.365Z" transform="translate(-68.671 -476.365)" fill="#3d3d3d"/><path d="M139.1,476.365a13.092,13.092,0,0,0-6.033,2.872c-2.428,2.428-3.4,6.313-3.756,22.949h10.72c.633-6.647-.95-25.8-.95-25.8Z" transform="translate(-108.229 -476.365)" fill="#3d3d3d"/></g><g transform="translate(7.802 2.216)"><path d="M95.6,431.819H74.258a5.156,5.156,0,0,0-5.157,5.157v8.454a3.919,3.919,0,0,0,.931,1.876,14.035,14.035,0,0,1,5.6,2.481c.444-3.814,4.435-6.8,9.3-6.8s8.852,2.985,9.3,6.8a14.036,14.036,0,0,1,5.6-2.481,3.922,3.922,0,0,0,.93-1.876v-8.454A5.156,5.156,0,0,0,95.6,431.819Z" transform="translate(-69.101 -431.819)" fill="#3d3d3d"/><path d="M97.182,463.944c-4.86,0-8.852,2.985-9.3,6.8.15.125.3.254.433.391,1.182,1.182,2.02,2.712,2.609,5.89a11.082,11.082,0,0,0,12.509,0c.589-3.178,1.426-4.707,2.609-5.89.136-.136.282-.265.432-.391C106.034,466.93,102.043,463.944,97.182,463.944Z" transform="translate(-81.356 -452.775)" fill="#454545"/><path d="M96.634,501.566c.62,3.348.965,8.526,1.147,17.059H108c.182-8.533.527-13.711,1.147-17.059a11.082,11.082,0,0,1-12.509,0Z" transform="translate(-87.061 -477.317)" fill="#242424"/></g><g transform="translate(4.146 40.339)"><path d="M68.809,549.168c1.424-1.741,3.957-3.166,1.741-6.173-1.082-1.469-3.41-1.654-5.508-1.459a12.724,12.724,0,0,0-6.283,9.135c-.633,3.324.159,8.547,7.439,8.547h.864A12.766,12.766,0,0,1,68.809,549.168Z" transform="translate(-58.584 -541.472)" fill="#3d3d3d"/><path d="M146.4,550.671a12.722,12.722,0,0,0-6.283-9.135c-2.1-.2-4.426-.01-5.508,1.459-2.216,3.007.317,4.431,1.741,6.173a12.766,12.766,0,0,1,1.747,10.05h.865C146.241,559.217,147.032,553.995,146.4,550.671Z" transform="translate(-107.607 -541.472)" fill="#3d3d3d"/></g><path d="M85.318,558.83c-.426.455-.884.9-1.264,1.361a12.766,12.766,0,0,0-1.747,10.05h22.011a12.766,12.766,0,0,0-1.747-10.05c-.445-.544-1-1.057-1.481-1.6-2.088-.146-4.268-.223-6.512-.223A91.244,91.244,0,0,0,85.318,558.83Z" transform="translate(-69.683 -512.156)" fill="#242424"/><g transform="translate(10.603 37.979)"><path d="M99.623,550.265a37.038,37.038,0,0,1-6.754-.2c.394,1.39-.353,2.4-1.241,3.345a91.243,91.243,0,0,1,9.261-.459c2.244,0,4.424.078,6.512.223a3.168,3.168,0,0,1-1.024-3.109A37.042,37.042,0,0,1,99.623,550.265Z" transform="translate(-86.597 -544.72)" fill="#454545"/><path d="M103.209,537.108c-4.663-2.658-10.493-2.419-13.026-2.419s-8.363-.239-13.026,2.419c2.1-.2,4.426-.01,5.508,1.459a4.637,4.637,0,0,1,.764,1.466,37.039,37.039,0,0,0,6.754.2,37.043,37.043,0,0,0,6.754-.2,4.628,4.628,0,0,1,.764-1.466C98.783,537.1,101.111,536.913,103.209,537.108Z" transform="translate(-77.157 -534.683)" fill="#303030"/></g><path d="M54.621,520.862a5.072,5.072,0,0,0-5.86,2.465c-1.953,3.64-3.019,7.28-1.065,7.28h3.019c1.421,0,1.776-.317,2.131-1.424s-.312-5.237,1.8-6.417C54.642,522.765,54.621,520.929,54.621,520.862Z" transform="translate(-46.659 -487.57)" fill="#3d3d3d"/><path d="M159.541,520.862a5.072,5.072,0,0,1,5.859,2.465c1.953,3.64,3.019,7.28,1.066,7.28h-3.019c-1.421,0-1.776-.317-2.131-1.424s.313-5.237-1.8-6.417C159.52,522.765,159.541,520.929,159.541,520.862Z" transform="translate(-120.281 -487.57)" fill="#3d3d3d"/><g transform="translate(14.711)"><path d="M97.889,441.59h1.9c4.906,0,5.54-5.856,6.647-10.13s-.475-6.014-1.9-6.014H91.242c-1.424,0-3.007,1.741-1.9,6.014s1.741,10.13,6.648,10.13Z" transform="translate(-88.971 -425.446)" fill="#242424"/></g></g></g><g transform="translate(228.551 3971.504)"><g transform="translate(0 8.814)"><path d="M923.051,1478.58a37.087,37.087,0,0,0-11.495,1.842,32.588,32.588,0,0,0-8.978,6.766c-1,1.4-2.382,7.693-3.114,8.637a53.556,53.556,0,0,0-3.927,5.18c-.676,1.3.024,4.041-.434,6.943a52.5,52.5,0,0,1-1.3,6.255c-.207.476-3.407,2.559-5.839,3.437,3.851,1.746,7.515,4.588,10.23,5.511s13.078,4.937,19.75,5.909,15.272-1.025,20.026-1.045,8.807-1.509,10.735-1.309c-2.054-1.99-3.447-3.146-4.271-4.544s-1.282-1.031-1.284-3.526a14.87,14.87,0,0,1,.542-4.243c.44-2.177-.2-4.37-.8-6.862s.027-5.5-.4-7.589-1.605-6.635-2.722-8.408a42.59,42.59,0,0,0-6.038-6.476A35.392,35.392,0,0,0,923.051,1478.58Z" transform="translate(-887.961 -1478.548)" fill="#ccccd1"/><path d="M923.945,1530.521c-.7-.043-1.363-.111-1.985-.2-5.543-.807-13.806-3.784-17.778-5.214-.82-.3-1.466-.528-1.916-.681a29.1,29.1,0,0,1-4.912-2.59c-1.491-.9-3.026-1.821-4.622-2.6,2.26-.959,5.076-2.75,5.331-3.336a51.329,51.329,0,0,0,1.325-6.333,20.585,20.585,0,0,0,.146-3.877,7.1,7.1,0,0,1,.256-2.969,35.912,35.912,0,0,1,3.1-4.146c.331-.405.617-.755.8-.986a18.463,18.463,0,0,0,1.4-3.9,24.34,24.34,0,0,1,1.718-4.749,32.445,32.445,0,0,1,8.844-6.658c2.743-1.164,9.235-1.957,11.138-1.838q.085.006.156.014a34.757,34.757,0,0,1,10.548,6.4c1.388,1.274,4.747,4.449,5.983,6.412,1.106,1.756,2.283,6.352,2.679,8.3a15.539,15.539,0,0,1,.135,3.249,17.234,17.234,0,0,0,.264,4.351q.089.371.178.735c.537,2.2,1,4.1.619,5.991-.029.145-.067.3-.11.472a14.015,14.015,0,0,0-.439,3.835c0,1.837.248,2.229.758,2.873a6.605,6.605,0,0,1,.571.814,17.159,17.159,0,0,0,3.12,3.462l.632.6a26.131,26.131,0,0,0-2.972.467,37.332,37.332,0,0,1-6.975.846,62.124,62.124,0,0,0-6.337.555,67.118,67.118,0,0,1-11.657.7Z" transform="translate(-891.935 -1480.121)" fill="#e5e5eb"/><path d="M995.661,1533.711c-5.677,2.02-11.256,4.15-12.7,5.27s-4.412,7.25-4.931,10.683-4.794,10.93-3.1,15.452,12.136,5.955,15.549,7.385,18.2-.838,20.534-.722.821-7.828,1.471-10.014c1.337-4.492,1.305-10.728-2.469-14.551S1006.061,1530.01,995.661,1533.711Z" transform="translate(-960.067 -1523.957)" fill="#e5e5eb" opacity="0.3" style="mix-blend-mode:multiply;isolation:isolate"/><path d="M981.114,1501.3c-3.938,1.4-7.808,2.878-8.807,3.656s-3.061,5.03-3.421,7.411-3.326,7.582-2.149,10.719,6.916,5.926,9.284,6.918,12.566-2.87,14.183-2.79,5.016-6.994,6.042-8.2-.469-8.149-3.088-10.8S988.328,1498.734,981.114,1501.3Z" transform="translate(-953.341 -1497.026)" fill="#ccccc4" opacity="0.3" style="mix-blend-mode:screen;isolation:isolate"/><path d="M1000.4,1513.058a29.366,29.366,0,0,0-4.949,2.054,9.982,9.982,0,0,0-1.922,4.164c-.2,1.338-1.869,4.261-1.207,6.023s3.887,3.33,5.217,3.887,7.062-1.612,7.97-1.567,2.819-3.93,3.4-4.606-.263-4.58-1.735-6.07S1004.449,1511.616,1000.4,1513.058Z" transform="translate(-974.744 -1507.024)" fill="#ccccc4" opacity="0.3" style="mix-blend-mode:screen;isolation:isolate"/><g transform="translate(0 7.82)"><path d="M948.7,1565.67c-2.054-1.989-3.447-3.145-4.271-4.544s-1.282-1.031-1.284-3.526a14.872,14.872,0,0,1,.542-4.243c.44-2.177-.2-4.37-.8-6.862s.027-5.5-.4-7.589-1.605-6.635-2.722-8.408a34.285,34.285,0,0,0-4.64-5.165,49.067,49.067,0,0,1,2.047,7.779c.434,3.191,2.085,5.512,2.058,5.933s-2.058,4.2-2.13,5.358.861,4.806-.743,6.819a28.423,28.423,0,0,1-7.108,5.575c-2.3,1.335-4.791,2.526-4.8,2.644s10.4.927,10.836,1.509-8.486.816-10.986.9-4.774-1.566-6.441-1.512-10.7.044-11.554-.168-4.828-2.6-5.3-2.707-2.84-1.445-3.861-1.588,4.912-1.277,4.926-1.514-4.507-1.47-4.786-2.676.585-4.874.807-5.89-1.606-3.46-1.306-4.454,3.569-5.146,3.964-6.389a17.7,17.7,0,0,0,.115-4.156,20.773,20.773,0,0,1-1.412,4,53.591,53.591,0,0,0-3.927,5.18c-.676,1.3.024,4.041-.434,6.943a52.5,52.5,0,0,1-1.3,6.255c-.207.475-3.407,2.559-5.839,3.437,3.851,1.746,7.515,4.589,10.23,5.511s13.078,4.937,19.75,5.908,15.272-1.025,20.026-1.045S946.774,1565.47,948.7,1565.67Z" transform="translate(-887.961 -1525.333)" fill="#dbdbe0" style="mix-blend-mode:multiply;isolation:isolate"/><path d="M1058.091,1644.46c-.642.051-6.164.459-6.818.788s-6.8,8.235-7.312,8.837,6.878-3.583,8.272-3.918,7.844-4.685,8.3-5.184S1061.244,1644.209,1058.091,1644.46Z" transform="translate(-1017.863 -1624.469)" fill="#e5e3e6" style="mix-blend-mode:multiply;isolation:isolate"/><path d="M1004.057,1545.678c.112.473,1.289,4.728,1.571,5.273s-2.843-1.815-3.56-2.176,1.6-4.494,1.858-5.217S1003.934,1545.159,1004.057,1545.678Z" transform="translate(-982.88 -1540.396)" fill="#e5e3e6" style="mix-blend-mode:multiply;isolation:isolate"/><path d="M966.78,1680.021a24.747,24.747,0,0,0,3.539.28c.178-.048,2.755-1.938,3.114-2.226s-2.749.93-3.08,1.018S966.322,1679.92,966.78,1680.021Z" transform="translate(-953.572 -1652.508)" fill="#e5e3e6" style="mix-blend-mode:multiply;isolation:isolate"/></g><g transform="translate(26.939 0.574)"><path d="M1055.921,1481.984c-1.578.752-5.191,1.952-6.28,5s-.352,3.093,1.219,1.608S1054.55,1483.648,1055.921,1481.984Z" transform="translate(-1049.124 -1481.984)" fill="#e5e3e6" style="mix-blend-mode:multiply;isolation:isolate"/><path d="M1099.1,1484.5c.342,2.134.773,10.451,2.386,12.506s2.91,2.453,3.387-1.795S1102.119,1489.727,1099.1,1484.5Z" transform="translate(-1090.749 -1484.079)" fill="#e5e3e6" style="mix-blend-mode:multiply;isolation:isolate"/></g></g><g transform="translate(24.133 0)"><path d="M1043.586,1435.165c-1.125-1.393-2.946-2.793-4.007-4.617s-1.163-2.29-7.245-4.73c1.426,2.5,1.426,5.085,2.966,6.606C1036.659,1433.766,1041.048,1434.448,1043.586,1435.165Z" transform="translate(-1032.334 -1425.817)" fill="#ccccd1"/><path d="M1047.283,1438.719c-.388-.1-.8-.192-1.221-.291-2.214-.52-5.183-1.26-6.132-2.2-.812-.8-.958-1.845-1.374-3.159a21.625,21.625,0,0,0-1.034-2.506c5.009,2.044,5.355,2.552,6.242,4.084l.108.186a16.313,16.313,0,0,0,2.656,3.111c.262.264.516.521.755.773Z" transform="translate(-1036.655 -1429.771)" fill="#e5e5eb"/><path d="M1072.935,1462.505c-.944-.8-1.778-1.431-2.17-1.761s-1.673-1.31-1.583-.7S1069.51,1461.153,1072.935,1462.505Z" transform="translate(-1063.019 -1454.161)" fill="#e5e3e6" style="mix-blend-mode:multiply;isolation:isolate"/><g transform="translate(10.621 4.515)"><path d="M1095.876,1457.46c1.538-.98,3.685-3.827,6.25-4.518,1.568-.422,4.63.414,6.136,1.1-1.478,1.677-3.782,3.558-5.1,3.878C1100.99,1458.441,1098.558,1457.674,1095.876,1457.46Z" transform="translate(-1095.876 -1452.827)" fill="#ccccd1"/><path d="M1103.729,1459.487c-.772-.048-1.571-.168-2.416-.3-.555-.084-1.123-.169-1.7-.237.361-.3.743-.652,1.138-1.017a11.566,11.566,0,0,1,4.351-2.962,4.338,4.338,0,0,1,1.359-.089,14.943,14.943,0,0,1,4.162,1c-1.4,1.5-3.466,3.168-4.642,3.453a7.433,7.433,0,0,1-2.247.15Z" transform="translate(-1098.985 -1454.531)" fill="#e5e5eb"/><path d="M1103.778,1471.178c.789-.365,1.808-1.28,2.215-1.442a2.76,2.76,0,0,1,1.708.16C1107.981,1470.087,1105.212,1470.882,1103.778,1471.178Z" transform="translate(-1102.457 -1466.849)" fill="#e5e3e6" style="mix-blend-mode:multiply;isolation:isolate"/></g><g transform="translate(8.538 7.714)"><path d="M1085.848,1471.974a2.986,2.986,0,0,0-2.417.976c-.192.432,1.077,1.431,1.552,1.579.925.287,2.74,0,2.786-.465A2.925,2.925,0,0,0,1085.848,1471.974Z" transform="translate(-1083.411 -1471.964)" fill="#e5e5eb"/><path d="M1090.762,1475.472a2.367,2.367,0,0,1-2.683,1.5,2.986,2.986,0,0,0,.791.483c.925.288,2.74,0,2.786-.465A2.789,2.789,0,0,0,1090.762,1475.472Z" transform="translate(-1087.299 -1474.886)" fill="#e5e3e6" style="mix-blend-mode:multiply;isolation:isolate"/></g></g></g><g transform="translate(208.306 3984.114)"><g transform="translate(0 4.747)"><path d="M793.125,1529.657a28.865,28.865,0,0,1-2.992.147,5.538,5.538,0,0,0-2.845.795,20.279,20.279,0,0,0-4.937,3.075,18.008,18.008,0,0,1-3.494,2.866c-1.841,1.214-3.263,3.431-4.937,5.147a21.112,21.112,0,0,0-4.184,8.243c-.418,2.259-.753,6.108-1.506,8.493s-1.59,4.435-1.339,5.523,3.807,6.527,5.9,7.615,3.636.544,7.195,1.506,7.491,2.72,12.3,2.594a33.549,33.549,0,0,0,11.757-2.636,83.041,83.041,0,0,1,7.992-2.385c2.887-.837,4.644-1.172,6.737-3.724s3.169-5.021,2.751-8.326-1.37-2.944-2.082-5.928a26.7,26.7,0,0,0-2.845-7.085c-1.171-2.176-1.3-3.766-3.6-7.239s-5.817-4.937-8.494-6.025A39.185,39.185,0,0,0,793.125,1529.657Z" transform="translate(-766.845 -1529.657)" fill="#ccccd1"/><path d="M793.326,1576.9a29.709,29.709,0,0,1-9.1-1.8c-.912-.288-1.774-.56-2.628-.792a22.749,22.749,0,0,0-3.866-.679,8.364,8.364,0,0,1-3.267-.8c-1.961-1.02-5.5-6.365-5.742-7.411-.181-.784.308-2.254.873-3.955.15-.453.306-.922.459-1.406a40.3,40.3,0,0,0,1.113-5.9c.137-.973.266-1.892.4-2.631a20.767,20.767,0,0,1,4.1-8.084c.59-.6,1.154-1.276,1.7-1.925a16.073,16.073,0,0,1,3.188-3.179,18.262,18.262,0,0,0,3.545-2.908,20.065,20.065,0,0,1,4.844-3.01,5.887,5.887,0,0,1,2.51-.772c.065,0,.131,0,.2,0s.158,0,.251,0c.76,0,2.1-.073,2.752-.148a38.61,38.61,0,0,1,11.263,2.632c2.562,1.041,6.071,2.466,8.353,5.91a24.332,24.332,0,0,1,2.551,4.924,21.479,21.479,0,0,0,1.033,2.291,26.382,26.382,0,0,1,2.817,7.01,9.424,9.424,0,0,0,1.065,2.71,7.358,7.358,0,0,1,1.011,3.185c.37,2.926-.432,5.346-2.684,8.093-1.868,2.278-3.4,2.713-5.926,3.434l-.659.189c-.9.262-1.67.462-2.411.655a50.791,50.791,0,0,0-5.6,1.737,33.349,33.349,0,0,1-11.658,2.617q-.242.006-.482.006Z" transform="translate(-768.372 -1531.198)" fill="#e5e5eb"/><path d="M870.046,1553.89c-4.685,3.215-9.255,6.506-10.3,7.876s-2.266,7.675-1.909,10.93-1.725,11.122.916,14.833,12.5,2.49,15.959,2.968,16.387-5.169,18.539-5.627-1.146-7.333-1.082-9.481c.132-4.417-1.406-10.094-5.772-12.664S878.629,1548,870.046,1553.89Z" transform="translate(-842.26 -1548.513)" fill="#e5e5eb" opacity="0.3" style="mix-blend-mode:multiply;isolation:isolate"/><path d="M825.753,1548.911c-3.736,1.6-7.4,3.266-8.324,4.082s-2.664,5.065-2.869,7.4-2.767,7.558-1.435,10.53,7.071,5.331,9.427,6.149,12.019-3.547,13.593-3.567,4.443-7.091,5.365-8.321-.949-7.878-3.652-10.292S832.6,1545.982,825.753,1548.911Z" transform="translate(-805.071 -1545.072)" fill="#ccccc4" opacity="0.3" style="mix-blend-mode:screen;isolation:isolate"/><path d="M842.469,1561.512a28.5,28.5,0,0,0-4.677,2.294,9.7,9.7,0,0,0-1.612,4.157c-.115,1.31-1.555,4.247-.806,5.917s3.973,3,5.3,3.456,6.754-1.993,7.638-2,2.5-3.985,3.015-4.675-.534-4.427-2.052-5.784S846.314,1559.866,842.469,1561.512Z" transform="translate(-823.739 -1555.839)" fill="#ccccc4" opacity="0.3" style="mix-blend-mode:screen;isolation:isolate"/><g transform="translate(19.114 0.251)"><path d="M887.8,1531.887a10.757,10.757,0,0,0-1.977.562,15.94,15.94,0,0,0-3.41,2.146c-.809.775-1.5,2.32-1.112,2.935s1.58-1.207,2.461-2.286a31.191,31.191,0,0,1,2.495-2.666A6.6,6.6,0,0,1,887.8,1531.887Z" transform="translate(-881.194 -1531.765)" fill="#e5e3e6" style="mix-blend-mode:multiply;isolation:isolate"/><path d="M896.127,1531.159a39.7,39.7,0,0,0-3.942,6.335c-.752,1.594-1.435,4.716-1.139,5.286s3.4-4.147,3.9-5.012S895.43,1532.761,896.127,1531.159Z" transform="translate(-889.34 -1531.159)" fill="#e5e3e6" style="mix-blend-mode:multiply;isolation:isolate"/><path d="M929.955,1531.28a23.718,23.718,0,0,1,5.267,2.985c.934.959,3.3,3.762,2.939,5.266s-3.9-3.418-4.671-4.534A44.747,44.747,0,0,0,929.955,1531.28Z" transform="translate(-921.804 -1531.26)" fill="#e5e3e6" style="mix-blend-mode:multiply;isolation:isolate"/></g><g transform="translate(0 4.596)"><path d="M818.774,1589.816c2.092-2.552,3.169-5.021,2.751-8.326s-1.37-2.944-2.082-5.928a26.7,26.7,0,0,0-2.845-7.085c-1.171-2.176-1.3-3.766-3.6-7.239a13.331,13.331,0,0,0-4.4-4.086c.666,1.717,1.365,3.723,1.848,5.049.669,1.841,1.423,1.673,1.088,5.021s-.84,3.6.082,7.029-.418,4.352-1.882,6.695-5.313,6.025-8.242,5.942a11.344,11.344,0,0,0-7.337,2.176,10.825,10.825,0,0,1-7.224,1.925c-2.594-.167-7.2-.251-8.954-.335s-5.356-.753-5.691-3.013-1.663-1.735-2-5.585a25.329,25.329,0,0,1,1.328-10.314c.633-1.669,1.345-4.741,2.626-7.5-.107.116-.215.23-.324.343a21.108,21.108,0,0,0-4.184,8.243c-.418,2.259-.753,6.108-1.506,8.493s-1.59,4.435-1.339,5.523,3.807,6.527,5.9,7.615,3.636.544,7.195,1.506,7.491,2.719,12.3,2.594a33.555,33.555,0,0,0,11.757-2.636,83.046,83.046,0,0,1,7.992-2.385C814.924,1592.7,816.681,1592.369,818.774,1589.816Z" transform="translate(-766.845 -1557.153)" fill="#dbdbe0" style="mix-blend-mode:multiply;isolation:isolate"/><path d="M860.6,1656.4c-1.835,1.836-4.016,2.761-4.77,4.268s.349,1.924,3.271,1.087,3.225-3.6,4.621-4.519,3.216-6.694,1.3-4.853S861.776,1655.225,860.6,1656.4Z" transform="translate(-840.769 -1636.163)" fill="#e5e3e6" style="mix-blend-mode:multiply;isolation:isolate"/></g></g><g transform="translate(12.529 0)"><g transform="translate(0 0.764)"><path d="M853.077,1508.651c-.856-.431-2.032-1.62-3.005-2.075a6.419,6.419,0,0,0-2.188-.746,4.371,4.371,0,0,0-2.314,1.088c-1.277.961-3.149,1.644-3.768,2.491,1.277.569,2.984.852,3.882,1.545a5.573,5.573,0,0,0,3.123,1.4c.9-.089,4.741-1.9,5.791-1.967S854.7,1509.562,853.077,1508.651Z" transform="translate(-841.802 -1505.829)" fill="#ccccd1"/><path d="M851.076,1513.484a5.814,5.814,0,0,1-2.807-1.343,7.912,7.912,0,0,0-2.362-1.017c-.407-.129-.823-.261-1.209-.41a9.942,9.942,0,0,1,1.659-1.054,15.5,15.5,0,0,0,1.8-1.1,4.143,4.143,0,0,1,2.152-1.03h.021a6.869,6.869,0,0,1,2.038.72,9.447,9.447,0,0,1,1.59,1.09,9.564,9.564,0,0,0,1.408.982,7.226,7.226,0,0,1,1.742,1.184c-.029,0-.066.008-.11.011a16.672,16.672,0,0,0-3.29,1.091,16.929,16.929,0,0,1-2.512.876c-.038,0-.076.005-.115.005Z" transform="translate(-844.214 -1507.242)" fill="#e5e5eb"/><path d="M886.7,1522.4a22.67,22.67,0,0,0-3.6-1.062c-.778-.019-2.447.322-2.029.834s1.736.152,2.783.152S886.329,1522.39,886.7,1522.4Z" transform="translate(-874.451 -1518.744)" fill="#e5e3e6" style="mix-blend-mode:multiply;isolation:isolate"/></g><g transform="translate(13.2)"><path d="M920.772,1506.4c.429-.514,1.271-2.356,1.833-3.039,1.713-2.084,3.282-2.2,5.354-2.068a19.071,19.071,0,0,1,4.925,1.1,31.134,31.134,0,0,0-4.242,3.224c-1.3,1.06-2.086,1.783-3.6,1.526A28.827,28.827,0,0,0,920.772,1506.4Z" transform="translate(-920.772 -1501.256)" fill="#ccccd1"/><path d="M928.193,1508.323a3.24,3.24,0,0,1-.539-.047c-.91-.154-1.5-.294-1.98-.406a10.608,10.608,0,0,0-1.819-.311c.162-.266.344-.6.541-.96a13.132,13.132,0,0,1,1-1.647,4.723,4.723,0,0,1,4.125-2c.281,0,.6.012.992.038a16.853,16.853,0,0,1,4.267.9A24.282,24.282,0,0,0,932,1506c-.308.26-.626.529-.964.8l-.205.167c-.993.812-1.65,1.347-2.633,1.347Z" transform="translate(-923.34 -1502.666)" fill="#e5e5eb"/><path d="M927.351,1519.159a8,8,0,0,1,3.035-1.754c.967-.114.986.427.285.877S928.249,1518.766,927.351,1519.159Z" transform="translate(-926.251 -1514.693)" fill="#e5e3e6" style="mix-blend-mode:multiply;isolation:isolate"/></g><g transform="translate(11.27 3.269)"><path d="M909.307,1521.232c.531.43.973,1.176.822,1.593s.379.581.784.607,2.033-.119,2.141-.59a1.979,1.979,0,0,0-.991-1.812C911.368,1520.688,908.718,1520.754,909.307,1521.232Z" transform="translate(-909.222 -1520.815)" fill="#e5e5eb"/><path d="M911.158,1525.43c-.152.417.379.581.784.607s2.033-.118,2.141-.591a1.432,1.432,0,0,0-.122-.794,2.769,2.769,0,0,1-2.224.147,4.434,4.434,0,0,0-1.28-.857h0C910.932,1524.381,911.3,1525.045,911.158,1525.43Z" transform="translate(-910.252 -1523.42)" fill="#e5e3e6" style="mix-blend-mode:multiply;isolation:isolate"/></g></g></g><g transform="translate(265.865 3994.588)"><g transform="translate(0 0)" clip-path="url(#b)"><path d="M.536,33.317c-1.089,1.36-.461,2.228,1.573,2.692-1.289.45-1.518.955-.787,1.509-1.116.658-.981,1.249,0,1.8-.694.49-1.434.975,0,1.688-.834.474-1.267.979,0,1.617-1.279.9-1.111,1.391.787,1.406-.853.213-1.488.5-.787,1.208-1.763.414-1.743.926,0,1.534-2.172,2.171-1.5,3.01.787,3.093-1.14.769-1.3,1.6-.787,2.461-1.116.958-1.426,1.725.787,1.9C.767,55.668.878,56.68,2.948,57.1c-.929.3-1.315.7-.382,1.336-1.7-.01-1.727,1.089.382,1.441l15.563,1.613,17.393,3.2,7.018-6.511L50.4,53.727c1.944-1.495,1.515-1.937,0-1.9,2.634-.755,2.973-1.482.838-2.179,1.372-1.067,1.078-1.707-.686-1.969,1.468-1.387,1.556-2.228.076-2.448,2.921-1.722,2.467-1.957-.381-1.138l.991-1.687c1.181-1.4.87-2.427-1.754-2.882,2.243-.5,2.235-1.362,1.22-2.391,1.705-.786,1.117-1.586-.61-2.391,1.624-.2,2.259-.6.839-1.426a3.454,3.454,0,0,0,.3-3.89Z" transform="translate(0 -20.283)" fill="#ccc7c2"/><path d="M1.726,26.438l13.016-2.152c.781-1.721,4.575-3.5,7.169-4.84,7.854,3.174,18.183,4.063,30.516,3.1L45.562,28.8,34.805,31.43l-15.486-.45S7.834,27.651,1.726,26.438" transform="translate(-1.19 -13.403)" fill="#edeceb"/><path d="M56.852,102.237a1.877,1.877,0,0,1-.439.274c-.147.083-.332.176-.545.3l-.734.424a36.509,36.509,0,0,0-4.42,3.134c-1.788,1.446-3.809,3.315-6.1,5.349l-.873.768-.446.388-.1.091-.055.047c-.009.006-.017.02-.029.019l-.035-.006-.235-.039-.288-.048-2.363-.395-4.968-.823c-6.807-1.124-12.986-2-17.475-2.486-2.243-.25-4.064-.394-5.322-.5-.629-.05-1.118-.086-1.449-.12a1.768,1.768,0,0,1-.5-.079,1.775,1.775,0,0,1,.509-.033c.333,0,.824,0,1.456.015,1.263.044,3.093.129,5.346.329,4.508.383,10.709,1.2,17.521,2.328l4.969.835,2.361.408.288.05.053.01s0,0,.011-.008l.447-.383.876-.758c2.3-2.006,4.354-3.852,6.184-5.269a31.014,31.014,0,0,1,4.548-3.01l.762-.381c.222-.107.415-.184.57-.251a1.8,1.8,0,0,1,.483-.172" transform="translate(-7.217 -70.466)" fill="#a09a95"/><path d="M57.615,96.528a7.562,7.562,0,0,1-1.119.7c-.736.432-1.817,1.044-3.16,1.843s-2.946,1.784-4.683,3.019c-.869.617-1.763,1.308-2.666,2.073-.454.38-.9.789-1.353,1.212-.221.216-.449.431-.672.654l-.764.79-1.949-.437-1.876-.388-1.931-.368-1.979-.345c-6.847-1.132-13.112-1.663-17.646-1.97-1.134-.082-2.161-.135-3.062-.195l-2.313-.133c-.635-.034-1.128-.066-1.462-.093a1.8,1.8,0,0,1-.509-.071,1.815,1.815,0,0,1,.512-.042c.335-.008.83-.012,1.466-.011s1.415.019,2.319.038,1.933.056,3.07.113a152.229,152.229,0,0,1,17.709,1.813l1.987.348,1.938.374,1.883.4,1.689.39.581-.592c.228-.225.461-.441.687-.659.462-.425.92-.835,1.384-1.215.923-.765,1.836-1.452,2.722-2.06,1.771-1.219,3.4-2.17,4.77-2.934s2.473-1.327,3.233-1.71a7.269,7.269,0,0,1,1.2-.542" transform="translate(-7.217 -66.531)" fill="#756f6b"/><path d="M56.092,40.986c.011.016-.118.147-.375.383s-.641.578-1.138,1.013l-1.821,1.574c-.727.619-12.3,4.369-12.3,4.369-11.283,1.009-28.3-2.5-32.193-4.355,11.443,3.871,31.945,3.9,31.659,3.521,0,0,11.941-3.2,12.655-3.782l1.877-1.5c.517-.408.922-.722,1.2-.929a1.94,1.94,0,0,1,.441-.295" transform="translate(-5.693 -28.249)" fill="#756f6b"/><path d="M41.817,103.681,9.243,102.633l32.575,2.5,8.315-5.485Z" transform="translate(-6.371 -68.683)" fill="#a09a95"/><path d="M8.26,102.244l21.666,1.129,10.528-.565Z" transform="translate(-5.693 -70.473)" fill="#756f6b"/><path d="M.615,87.758c-1.257,1.591-.489,2.234,1.5,2.307a3.593,3.593,0,0,0-.521.42H34Z" transform="translate(-0.002 -60.488)" fill="#a09a95"/><path d="M129.53,69.7l-16.441,8.339,15.152-6.265.943-1.607a4.31,4.31,0,0,0,.346-.466" transform="translate(-77.947 -48.04)" fill="#756f6b"/><path d="M4.256,67.63l32.674.878,15.486-6.586-15.1,8.028Z" transform="translate(-2.934 -42.68)" fill="#a09a95"/><path d="M4.256,71.877l32.293,2.1-29.07-.637Z" transform="translate(-2.934 -49.542)" fill="#756f6b"/><path d="M5.315,53.586l15.348,2.258L38.423,57.3l15.64-6.573L38.423,57.7l-17.761-1.08L6.23,54.733Z" transform="translate(-3.663 -34.961)" fill="#a09a95"/><path d="M56.4,61.172a.386.386,0,0,1-.374-.336,83.586,83.586,0,0,1-.383-23.752.4.4,0,0,1,.216-.309l17.012-8.356a.371.371,0,0,1,.5.195.412.412,0,0,1-.185.533L56.371,37.411a82.793,82.793,0,0,0,.408,23.294.4.4,0,0,1-.313.461.357.357,0,0,1-.062.006" transform="translate(-37.894 -19.562)" fill="#93653b"/><path d="M72.14,61.55a.39.39,0,0,1-.379-.384,96.194,96.194,0,0,1,1.363-22.145,156.366,156.366,0,0,1-30.446-4.5.4.4,0,0,1-.277-.486.379.379,0,0,1,.46-.293A156.345,156.345,0,0,0,73.61,38.245a.374.374,0,0,1,.282.158.418.418,0,0,1,.068.329,94.163,94.163,0,0,0-1.441,22.4.393.393,0,0,1-.363.418H72.14" transform="translate(-29.218 -23.247)" fill="#93653b"/><path d="M73.8,16.454l-.039,0a.368.368,0,0,1-.178-.07.363.363,0,0,1-.03-.025A10.54,10.54,0,0,1,70.381,6.59a1.9,1.9,0,0,1,.746-1.318c.774-.467,1.635.136,2.183.855,1.876,2.464,1.956,5.17,1.271,8.362,1.372-1.6,2.895-3.1,4.377-4.571a60.378,60.378,0,0,0,5.378-5.8.366.366,0,0,1,.534-.057.418.418,0,0,1,.053.565A61.029,61.029,0,0,1,79.477,10.5a60.337,60.337,0,0,0-5.378,5.8h0l-.009.011a.371.371,0,0,1-.232.131.327.327,0,0,1-.053,0M71.71,5.912a.4.4,0,0,0-.207.057,1.232,1.232,0,0,0-.38.791A9.752,9.752,0,0,0,73.6,15.321c1.172-4.684.5-6.879-.884-8.691-.225-.3-.65-.718-1.008-.718" transform="translate(-48.372 -2.734)" fill="#93653b"/><path d="M60.66,13.636a13.465,13.465,0,0,1-3.435-.653c-1.1-.314-3.762-1.165-4.83-2.286-.742-.779-.956-1.617-.571-2.24.233-.377.755-.774,1.919-.524a13.417,13.417,0,0,1,7.383,4.543A97.278,97.278,0,0,0,65.337.305.379.379,0,0,1,65.8.012.4.4,0,0,1,66.074.5a85.634,85.634,0,0,1-4.553,12.847.4.4,0,0,1-.1.135.369.369,0,0,1-.13.072,1.805,1.805,0,0,1-.628.084M53.066,8.657a.679.679,0,0,0-.606.239c-.191.309.1.841.47,1.231,1.327,1.394,5.807,2.528,7.475,2.7a12.638,12.638,0,0,0-6.813-4.107,2.593,2.593,0,0,0-.526-.062" transform="translate(-35.591 0)" fill="#93653b"/><path d="M85.153,39.859,80.14,35.02,61.08,41.739Z" transform="translate(-42.1 -24.138)" fill="#ccc7c2"/></g></g><g transform="translate(318.499 3947.44)"><g transform="translate(7.094 65.659)"><path d="M1165.137,739.375a12.031,12.031,0,0,0-.121,1.609h2.863a12.051,12.051,0,0,0-.121-1.609,3.054,3.054,0,0,1-2.622,0Z" transform="translate(-1165.016 -738.357)" fill="#bab9b9"/><path d="M1167.586,728.771h-1.133s-.1.418-.178,1.018a3.055,3.055,0,0,0,2.622,0c-.083-.6-.178-1.018-.178-1.018Z" transform="translate(-1166.154 -728.771)" fill="#a6a5a5"/></g><path d="M0,0H.972a0,0,0,0,1,0,0V0A.282.282,0,0,1,.689.282H.282A.282.282,0,0,1,0,0V0A0,0,0,0,1,0,0Z" transform="translate(0.882 73.063)" fill="#8c8c8c"/><path d="M.282,0H.689A.282.282,0,0,1,.972.282v0a0,0,0,0,1,0,0H0a0,0,0,0,1,0,0v0A.282.282,0,0,1,.282,0Z" transform="translate(16.17 73.346) rotate(180)" fill="#8c8c8c"/><path d="M0,0H.972a0,0,0,0,1,0,0V0A.282.282,0,0,1,.689.282H.282A.282.282,0,0,1,0,0V0A0,0,0,0,1,0,0Z" transform="translate(3.745 73.063)" fill="#8c8c8c"/><path d="M0,0H.972a0,0,0,0,1,0,0V0A.282.282,0,0,1,.689.282H.282A.282.282,0,0,1,0,0V0A0,0,0,0,1,0,0Z" transform="translate(6.608 73.063)" fill="#8c8c8c"/><path d="M0,0H.972a0,0,0,0,1,0,0V0A.282.282,0,0,1,.689.282H.282A.282.282,0,0,1,0,0V0A0,0,0,0,1,0,0Z" transform="translate(9.471 73.063)" fill="#8c8c8c"/><path d="M0,0H.972a0,0,0,0,1,0,0V0A.282.282,0,0,1,.689.282H.282A.282.282,0,0,1,0,0V0A0,0,0,0,1,0,0Z" transform="translate(12.335 73.063)" fill="#8c8c8c"/><path d="M1107.577,796.9h-15.859c-.292,0-.542-.076-.6-.34v.274a.611.611,0,0,0,.608.622h15.834a.611.611,0,0,0,.609-.622v-.274C1108.12,796.824,1107.87,796.9,1107.577,796.9Z" transform="translate(-1091.122 -724.393)" fill="#bab9b9"/><g transform="translate(4.009 50.938)"><path d="M1154.2,709.528a4.073,4.073,0,0,1-2.732-.968c.421,1.439,1.343,2.545,2.732,2.545s2.311-1.106,2.732-2.545A4.074,4.074,0,0,1,1154.2,709.528Z" transform="translate(-1149.683 -695.779)" fill="#c44823"/><path d="M1141.9,576.262h-1.065l-.412-.464a1.089,1.089,0,0,0-.814-.365h-4.428a1.089,1.089,0,0,0-.814.365l-.412.464h-1.065c-.164,3.358,1.354,10.261,1.7,11.683q.033.136.072.268a4.339,4.339,0,0,0,5.465,0c.026-.088.05-.178.072-.268C1140.547,586.524,1142.064,579.62,1141.9,576.262Z" transform="translate(-1132.879 -575.433)" fill="#9f3718"/></g><path d="M1147.441,604.788c.86,0,1.761-.369,1.917-.815a72.825,72.825,0,0,0,1.526-9.047,1.221,1.221,0,0,0-1.215-1.346h-4.457a1.222,1.222,0,0,0-1.215,1.346,72.884,72.884,0,0,0,1.526,9.047c.157.447,1.058.815,1.918.815Z" transform="translate(-1138.915 -540.899)" fill="#6d6d6d"/><path d="M.331,0h.928A.331.331,0,0,1,1.59.331v0a.331.331,0,0,1-.331.331H.331A.331.331,0,0,1,0,.331v0A.331.331,0,0,1,.331,0Z" transform="translate(7.731 51.454)" fill="#f0f0f0"/><g transform="translate(4.021)"><path d="M1165.275,45.548a.523.523,0,0,0-.073-.223.936.936,0,0,0-1.636,0,.523.523,0,0,0-.073.223c-.1,3.367-.479,19.559-.76,30.915h3.3C1165.754,65.107,1165.374,48.915,1165.275,45.548Z" transform="translate(-1159.879 -44.844)" fill="#c44823"/><path d="M1140.3,461.564a5.987,5.987,0,0,1-.819-3.328c-.014-.064-.057-1.464-.118-3.721h-3.695c-.061,2.257-.1,3.657-.118,3.721a5.987,5.987,0,0,1-.819,3.328c-.737,1.047-1.557,2.03-1.721,5.388h1.065l.412-.464a1.088,1.088,0,0,1,.814-.365h4.428a1.089,1.089,0,0,1,.814.365l.412.464h1.065C1141.853,463.594,1141.033,462.611,1140.3,461.564Z" transform="translate(-1133.007 -415.184)" fill="#c44823"/><path d="M1164.353,380.586h-3.332c-.062,2.48-.118,4.705-.165,6.484h3.662C1164.471,385.291,1164.414,383.066,1164.353,380.586Z" transform="translate(-1158.182 -348.354)" fill="#c44823"/><path d="M1164.364,448.126H1160.7q-.008.316-.016.613h3.695Q1164.373,448.442,1164.364,448.126Z" transform="translate(-1158.029 -409.41)" fill="#bab9b9"/><path d="M1165.892,374.2h-3.3q-.008.309-.015.613h3.332Q1165.9,374.508,1165.892,374.2Z" transform="translate(-1159.736 -342.58)" fill="#bab9b9"/></g><path d="M1174.5,103.818a.577.577,0,0,1-.576-.576v-1.005a.576.576,0,0,1,1.153,0v1.005A.577.577,0,0,1,1174.5,103.818Z" transform="translate(-1165.977 -96.206)" fill="#666"/><g transform="translate(8.17 5.675)"><path d="M1176.934,104.313a.356.356,0,1,0-.712,0v.5h.712Z" transform="translate(-1176.222 -103.957)" fill="gray"/><path d="M1176.222,112.9v.5a.356.356,0,0,0,.712,0v-.5Z" transform="translate(-1176.222 -112.038)" fill="#666"/></g><path d="M1173.944,430.552a.585.585,0,1,1,.585.585A.585.585,0,0,1,1173.944,430.552Z" transform="translate(-1165.993 -392.994)" fill="#666"/><ellipse cx="0.353" cy="0.353" rx="0.353" ry="0.353" transform="translate(8.183 37.205)" fill="#bab9b9"/><g transform="translate(5.814 53.419)"><path d="M1161.227,630.683c.15.782.321,1.6.515,2.443a.6.6,0,0,0,.358.421,2.5,2.5,0,0,0,1.845,0,.6.6,0,0,0,.358-.421c.6-2.595.976-4.968,1.207-6.721Z" transform="translate(-1160.311 -623.993)" fill="#1f1f1f"/><path d="M1157.107,601.808a.482.482,0,0,0-.48-.532h-4.457a.482.482,0,0,0-.48.532c.13,1.266.4,3.5.913,6.158l4.283-4.278C1156.985,602.938,1157.057,602.3,1157.107,601.808Z" transform="translate(-1151.687 -601.276)" fill="#515151"/></g><path d="M1108.157,755.079l-.29-1.422a2.071,2.071,0,0,0-1.361-1.473l-4.636-1.329a.69.69,0,0,0-.784.28.508.508,0,0,1-.455.2h-1.967a.508.508,0,0,1-.455-.2.689.689,0,0,0-.783-.28l-4.636,1.329a2.07,2.07,0,0,0-1.361,1.473l-.29,1.422c-.091.372.2.473.579.473h15.859C1107.961,755.553,1108.248,755.452,1108.157,755.079Z" transform="translate(-1091.122 -683.045)" fill="#c44823"/></g></g></svg>