<svg xmlns="http://www.w3.org/2000/svg" width="200" height="120" viewBox="0 0 200 120"><g transform="translate(-176 -3923)"><rect width="200" height="120" rx="10" transform="translate(176 3923)" fill="#dcdcdc" opacity="0"/><g transform="translate(-281.473 2795.307)"><g transform="translate(467.549 1149.917)"><g transform="translate(2.946 3.048)"><path d="M1029.178,1209.668l-8.9,5.344-8.085,6.505,2.045,5.05c3.363-.841,6.062-1.954,10.553-5.088s6.467-5.283,8.417-8.15Z" transform="translate(-1012.198 -1209.668)" fill="#527dba"/><g transform="translate(0.031 0.309)"><path d="M1055.612,1244.007l-.547.382,2.842,4.568a1.556,1.556,0,0,0,1.011-.706Z" transform="translate(-1045.537 -1236.658)" fill="#6e9edb"/><path d="M1050.5,1247.666l-.557.364,2.695,4.636a1.551,1.551,0,0,0,1.029-.673Z" transform="translate(-1041.56 -1239.501)" fill="#6e9edb"/><path d="M1045.428,1251.191l-.566.346,2.547,4.705a1.549,1.549,0,0,0,1.047-.64Z" transform="translate(-1037.609 -1242.24)" fill="#6e9edb"/><path d="M1040.187,1254.611l-.576.328,2.4,4.774a1.547,1.547,0,0,0,1.064-.607Z" transform="translate(-1033.529 -1244.897)" fill="#6e9edb"/><path d="M1034.947,1257.7l-.585.31,2.252,4.842a1.545,1.545,0,0,0,1.082-.574Z" transform="translate(-1029.45 -1247.3)" fill="#6e9edb"/><path d="M1029.657,1260.395l-.594.293,2.1,4.911a1.545,1.545,0,0,0,1.1-.541Z" transform="translate(-1025.333 -1249.392)" fill="#6e9edb"/><path d="M1024.265,1262.617l-.6.275,1.958,4.979a1.549,1.549,0,0,0,1.116-.508Z" transform="translate(-1021.136 -1251.118)" fill="#6e9edb"/><path d="M1018.716,1264.3l-.613.257,1.81,5.048a1.551,1.551,0,0,0,1.134-.475Z" transform="translate(-1016.817 -1252.423)" fill="#6e9edb"/><path d="M1012.96,1265.368l-.623.239,1.662,5.117a1.556,1.556,0,0,0,1.151-.442Z" transform="translate(-1012.337 -1253.256)" fill="#6e9edb"/><path d="M1060.25,1240.835l.534-.4,3.422,4.129a1.551,1.551,0,0,1-.986.734Z" transform="translate(-1049.566 -1233.886)" fill="#6e9edb"/><path d="M1065.3,1237.266l.52-.412,3.537,4.014a1.548,1.548,0,0,1-.962.761Z" transform="translate(-1053.488 -1231.1)" fill="#6e9edb"/><path d="M1070.306,1233.5l.507-.427,3.652,3.9a1.545,1.545,0,0,1-.937.789Z" transform="translate(-1057.379 -1228.166)" fill="#6e9edb"/><path d="M1075,1229.633l.494-.442,3.768,3.785a1.546,1.546,0,0,1-.912.817Z" transform="translate(-1061.03 -1225.146)" fill="#6e9edb"/><path d="M1079.344,1225.575l.48-.457,3.883,3.67a1.545,1.545,0,0,1-.887.845Z" transform="translate(-1064.402 -1221.981)" fill="#6e9edb"/><path d="M1083.278,1221.259l.467-.472,4,3.555a1.549,1.549,0,0,1-.862.873Z" transform="translate(-1067.459 -1218.616)" fill="#6e9edb"/><path d="M1086.76,1216.61l.453-.487,4.114,3.441a1.552,1.552,0,0,1-.837.9Z" transform="translate(-1070.165 -1214.992)" fill="#6e9edb"/><path d="M1089.739,1211.554l.44-.5,4.229,3.326a1.557,1.557,0,0,1-.812.928Z" transform="translate(-1072.479 -1211.052)" fill="#6e9edb"/></g></g><g transform="translate(-0.001 0)"><path d="M1022.105,1199.841l-.279.385a4.635,4.635,0,0,0-2.366-.242c-2.189.314-6.124,3.115-7.906,4.359s-5.768,3.971-6.818,5.917a4.64,4.64,0,0,0-.589,2.3l-.457.129a4.309,4.309,0,0,0,1.485,2.055h0a2.587,2.587,0,0,0,2.082.361c2.455-.493,5.8-2.794,8.533-4.7s6.043-4.255,7.352-6.389a2.587,2.587,0,0,0,.38-2.079h0A4.308,4.308,0,0,0,1022.105,1199.841Z" transform="translate(-1002.64 -1198.985)" fill="#acb0bc"/><path d="M1018.09,1196.054c-2.189.314-6.124,3.115-7.906,4.359s-5.768,3.971-6.818,5.917c-1.4,2.59-.218,5.4,2.521,4.849,2.455-.492,5.805-2.793,8.533-4.7s6.044-4.254,7.353-6.389C1023.232,1197.712,1021,1195.635,1018.09,1196.054Z" transform="translate(-1001.929 -1196)" fill="#c4c7d1"/><path d="M1014.764,1206.805c-2.525,1.762-5.983,4.175-8.487,4.678a2.308,2.308,0,0,1-2.449-.8,3.687,3.687,0,0,1,.059-3.873c.99-1.834,4.71-4.43,6.3-5.539l.965-.673c1.589-1.109,5.309-3.705,7.372-4a3.685,3.685,0,0,1,3.655,1.282,2.306,2.306,0,0,1-.095,2.574c-1.336,2.177-4.794,4.59-7.319,6.353Z" transform="translate(-1002.343 -1196.422)" fill="#e5e5eb"/><path d="M1018.151,1239.054a1.37,1.37,0,0,1,.184.79c-.028.278.6.287.913-.477s-.2-1.232-.95-1.036S1017.868,1238.776,1018.151,1239.054Z" transform="translate(-1013.632 -1228.857)" fill="#e5e5eb" opacity="0.5" style="mix-blend-mode:multiply;isolation:isolate"/><path d="M999.873,1210.025c-1.021-2.1-2-5.164,2.142-8.255s6.511-5.238,8.3-4.413,2.605,2.423,1.087,3.482-6.235,4.2-6.894,4.663-1.167,1.11-1,1.674C1003.379,1208.191,1000.586,1210.1,999.873,1210.025Z" transform="translate(-998.981 -1196.916)" fill="#e5e5eb"/><path d="M1026.119,1197.367a1.928,1.928,0,0,0-.745-.175c.44,3.3-3.417,6.118-5.356,7.924a1.885,1.885,0,0,0-.7,1.577,2.453,2.453,0,0,1,.99-1.181c.659-.46,5.376-3.6,6.894-4.663S1027.91,1198.191,1026.119,1197.367Z" transform="translate(-1014.782 -1196.926)" fill="#e5e5eb" opacity="0.8" style="mix-blend-mode:multiply;isolation:isolate"/><path d="M999.873,1234.56a.535.535,0,0,0,.119,0,6.125,6.125,0,0,1-.3-5.8C998.4,1230.961,999.125,1233.018,999.873,1234.56Z" transform="translate(-998.982 -1221.451)" fill="#c4c7d1"/><path d="M1065.517,1196.654a15.262,15.262,0,0,1-3.283,9.05c2.2-1.578,4.579-3.445,5.635-5.166a2.308,2.308,0,0,0,.095-2.575A3.252,3.252,0,0,0,1065.517,1196.654Z" transform="translate(-1048.129 -1196.508)" fill="#e5e5eb" opacity="0.5" style="mix-blend-mode:multiply;isolation:isolate"/><g transform="translate(0.914 7.175)"><path d="M1004.647,1228.309c.457.277.4.771.114,1.246s-.7.753-1.157.476a1.007,1.007,0,0,1,1.043-1.722Z" transform="translate(-1003.132 -1228.173)" fill="#fff"/><path d="M1004.081,1239.366a.512.512,0,1,1-.644-.33A.512.512,0,0,1,1004.081,1239.366Z" transform="translate(-1003.082 -1236.594)" fill="#fff"/></g></g></g><g transform="translate(524.016 1142.308)"><g transform="translate(31.019 5.301)"><g transform="translate(0 10.825)"><path d="M931.055,1478.587c-1.93-.25-10.519.737-14.117,2.262s-9.8,6.586-11.026,8.309-2.926,9.447-3.825,10.607-3.994,4.76-4.823,6.362.03,4.963-.533,8.527a64.52,64.52,0,0,1-1.6,7.682c-.254.584-4.185,3.143-7.17,4.22,4.73,2.144,9.229,5.635,12.563,6.768s16.061,6.063,24.254,7.257,18.756-1.259,24.594-1.283,10.816-1.853,13.184-1.608c-2.522-2.444-4.233-3.863-5.245-5.581s-1.574-1.266-1.577-4.331a18.27,18.27,0,0,1,.666-5.211c.54-2.674-.248-5.366-.981-8.427s.033-6.758-.487-9.32-1.971-8.149-3.343-10.326-4.838-5.588-7.415-7.954A43.465,43.465,0,0,0,931.055,1478.587Z" transform="translate(-887.961 -1478.548)" fill="#ccccd1"/><path d="M931.065,1541.946c-.854-.053-1.674-.137-2.438-.248-6.807-.991-16.956-4.646-21.833-6.4-1.006-.363-1.8-.649-2.353-.836a35.767,35.767,0,0,1-6.033-3.181c-1.831-1.1-3.716-2.236-5.676-3.189,2.775-1.177,6.234-3.378,6.547-4.1a63.1,63.1,0,0,0,1.627-7.777,25.273,25.273,0,0,0,.18-4.762,8.717,8.717,0,0,1,.315-3.647,44.167,44.167,0,0,1,3.808-5.092c.407-.5.758-.927.978-1.21a22.686,22.686,0,0,0,1.725-4.787,29.9,29.9,0,0,1,2.109-5.833c1.144-1.608,7.265-6.651,10.861-8.176,3.369-1.43,11.342-2.4,13.679-2.257.069,0,.134.01.192.017a42.693,42.693,0,0,1,12.953,7.86c1.7,1.565,5.83,5.465,7.348,7.875,1.359,2.156,2.8,7.8,3.29,10.2a19.076,19.076,0,0,1,.166,3.99,21.16,21.16,0,0,0,.325,5.343q.109.456.219.9c.659,2.7,1.229,5.034.76,7.357-.036.178-.082.364-.135.579a17.229,17.229,0,0,0-.539,4.709c0,2.256.3,2.737.931,3.528a8.107,8.107,0,0,1,.7,1,21.079,21.079,0,0,0,3.832,4.252q.373.353.776.738a32.148,32.148,0,0,0-3.649.574,45.8,45.8,0,0,1-8.566,1.039,76.36,76.36,0,0,0-7.782.681,82.388,82.388,0,0,1-14.316.855Z" transform="translate(-891.753 -1480.049)" fill="#e5e5eb"/><path d="M1000.478,1533.857c-6.971,2.481-13.824,5.1-15.593,6.473s-5.418,8.9-6.056,13.12-5.888,13.424-3.8,18.977,14.9,7.313,19.1,9.07,22.356-1.03,25.218-.887,1.008-9.614,1.806-12.3c1.642-5.516,1.6-13.175-3.033-17.87S1013.251,1529.312,1000.478,1533.857Z" transform="translate(-956.766 -1521.878)" fill="#e5e5eb" opacity="0.3" style="mix-blend-mode:multiply;isolation:isolate"/><path d="M984.456,1501.431c-4.836,1.721-9.589,3.535-10.816,4.49s-3.759,6.176-4.2,9.1-4.084,9.311-2.639,13.163,8.494,7.278,11.4,8.5,15.433-3.524,17.418-3.426,6.161-8.59,7.42-10.068-.576-10.008-3.792-13.265S993.316,1498.278,984.456,1501.431Z" transform="translate(-950.348 -1496.18)" fill="#ccccc4" opacity="0.3" style="mix-blend-mode:screen;isolation:isolate"/><path d="M1002.273,1513.131a36.069,36.069,0,0,0-6.078,2.522,12.262,12.262,0,0,0-2.36,5.114c-.248,1.643-2.3,5.232-1.483,7.4s4.773,4.09,6.407,4.774,8.672-1.98,9.788-1.925,3.462-4.827,4.17-5.657-.324-5.624-2.131-7.454S1007.251,1511.359,1002.273,1513.131Z" transform="translate(-970.771 -1505.721)" fill="#ccccc4" opacity="0.3" style="mix-blend-mode:screen;isolation:isolate"/><g transform="translate(0 9.604)"><path d="M962.557,1574.871c-2.522-2.443-4.233-3.863-5.245-5.58s-1.574-1.266-1.577-4.331a18.267,18.267,0,0,1,.666-5.211c.54-2.674-.248-5.366-.981-8.427s.033-6.759-.487-9.32-1.971-8.149-3.343-10.326a42.132,42.132,0,0,0-5.7-6.343,60.265,60.265,0,0,1,2.513,9.553c.534,3.919,2.56,6.77,2.528,7.287s-2.527,5.159-2.616,6.581,1.058,5.9-.912,8.374-5.9,5.208-8.73,6.847-5.884,3.1-5.893,3.248,12.769,1.139,13.308,1.853-10.422,1-13.492,1.1-5.863-1.923-7.909-1.856-13.136.054-14.189-.207-5.929-3.192-6.5-3.324-3.488-1.775-4.742-1.951,6.032-1.568,6.05-1.859-5.535-1.8-5.877-3.286.718-5.986.99-7.234-1.972-4.249-1.6-5.471,4.383-6.32,4.868-7.846a21.749,21.749,0,0,0,.141-5.1,25.519,25.519,0,0,1-1.734,4.906c-.9,1.16-3.994,4.76-4.823,6.362s.03,4.963-.533,8.527a64.516,64.516,0,0,1-1.6,7.682c-.254.584-4.185,3.143-7.17,4.221,4.73,2.144,9.229,5.635,12.563,6.768s16.061,6.063,24.254,7.256,18.756-1.259,24.594-1.283S960.189,1574.625,962.557,1574.871Z" transform="translate(-887.961 -1525.333)" fill="#dbdbe0" style="mix-blend-mode:multiply;isolation:isolate"/><path d="M1061.319,1644.482c-.789.063-7.57.564-8.373.967s-8.35,10.114-8.98,10.853,8.446-4.4,10.158-4.812,9.634-5.753,10.191-6.367S1065.192,1644.173,1061.319,1644.482Z" transform="translate(-1011.916 -1619.93)" fill="#e5e3e6" style="mix-blend-mode:multiply;isolation:isolate"/><path d="M1004.542,1546.193c.138.581,1.582,5.806,1.93,6.476s-3.492-2.229-4.372-2.673,1.966-5.519,2.281-6.407S1004.391,1545.555,1004.542,1546.193Z" transform="translate(-978.535 -1539.706)" fill="#e5e3e6" style="mix-blend-mode:multiply;isolation:isolate"/><path d="M966.789,1680.475a30.375,30.375,0,0,0,4.347.344c.219-.059,3.383-2.38,3.825-2.733s-3.376,1.142-3.782,1.251S966.226,1680.35,966.789,1680.475Z" transform="translate(-950.569 -1646.686)" fill="#e5e3e6" style="mix-blend-mode:multiply;isolation:isolate"/></g><g transform="translate(33.084 0.705)"><path d="M1057.471,1481.984c-1.938.924-6.376,2.4-7.712,6.14s-.432,3.8,1.5,1.974S1055.787,1484.027,1057.471,1481.984Z" transform="translate(-1049.124 -1481.984)" fill="#e5e3e6" style="mix-blend-mode:multiply;isolation:isolate"/><path d="M1099.1,1484.5c.42,2.62.949,12.835,2.931,15.358s3.573,3.012,4.159-2.2S1102.807,1490.92,1099.1,1484.5Z" transform="translate(-1088.843 -1483.984)" fill="#e5e3e6" style="mix-blend-mode:multiply;isolation:isolate"/></g></g><g transform="translate(29.637)"><path d="M1046.153,1437.3c-1.382-1.711-3.618-3.43-4.921-5.67s-1.428-2.812-8.9-5.809c1.751,3.072,1.752,6.245,3.643,8.113C1037.645,1435.579,1043.036,1436.417,1046.153,1437.3Z" transform="translate(-1032.334 -1425.817)" fill="#ccccd1"/><path d="M1049.509,1440.58c-.477-.117-.98-.236-1.5-.358-2.719-.639-6.365-1.547-7.531-2.7-1-.986-1.176-2.266-1.687-3.88a26.539,26.539,0,0,0-1.269-3.078c6.151,2.511,6.577,3.134,7.665,5.016l.133.229a20.022,20.022,0,0,0,3.261,3.82c.321.324.634.64.927.95Z" transform="translate(-1036.457 -1429.59)" fill="#e5e5eb"/><path d="M1073.792,1463.111c-1.16-.985-2.184-1.757-2.665-2.163s-2.054-1.608-1.943-.855S1069.585,1461.45,1073.792,1463.111Z" transform="translate(-1061.614 -1452.864)" fill="#e5e3e6" style="mix-blend-mode:multiply;isolation:isolate"/><g transform="translate(13.044 5.545)"><path d="M1095.876,1458.517c1.889-1.2,4.526-4.7,7.675-5.549,1.926-.519,5.687.508,7.536,1.347-1.814,2.059-4.644,4.37-6.264,4.762C1102.156,1459.722,1099.17,1458.78,1095.876,1458.517Z" transform="translate(-1095.876 -1452.827)" fill="#ccccd1"/><path d="M1104.669,1460.54c-.949-.059-1.929-.206-2.968-.363-.682-.1-1.379-.208-2.093-.291.444-.367.912-.8,1.4-1.249,1.572-1.454,3.354-3.1,5.343-3.638a5.323,5.323,0,0,1,1.67-.11,18.355,18.355,0,0,1,5.111,1.225c-1.722,1.846-4.257,3.891-5.7,4.241a9.117,9.117,0,0,1-2.76.184Z" transform="translate(-1098.843 -1454.453)" fill="#e5e5eb"/><path d="M1103.778,1471.524c.969-.448,2.22-1.572,2.72-1.771a3.388,3.388,0,0,1,2.1.2C1108.94,1470.183,1105.539,1471.16,1103.778,1471.524Z" transform="translate(-1102.156 -1466.207)" fill="#e5e3e6" style="mix-blend-mode:multiply;isolation:isolate"/></g><g transform="translate(10.485 9.473)"><path d="M1086.4,1471.977a3.667,3.667,0,0,0-2.968,1.2c-.236.531,1.322,1.757,1.906,1.938,1.136.353,3.365,0,3.422-.571S1087.555,1472.09,1086.4,1471.977Z" transform="translate(-1083.411 -1471.964)" fill="#e5e5eb"/><path d="M1091.373,1475.472c-.088.9-1.669,2.16-3.294,1.837a3.672,3.672,0,0,0,.972.593c1.136.353,3.365,0,3.421-.571A3.426,3.426,0,0,0,1091.373,1475.472Z" transform="translate(-1087.121 -1474.752)" fill="#e5e3e6" style="mix-blend-mode:multiply;isolation:isolate"/></g></g></g><g transform="translate(6.156 20.787)"><g transform="translate(0 5.83)"><path d="M799.119,1529.657a35.481,35.481,0,0,1-3.674.18c-.822-.026-1.387.025-3.494.976a24.909,24.909,0,0,0-6.063,3.777,22.112,22.112,0,0,1-4.291,3.52c-2.26,1.49-4.008,4.214-6.063,6.321a25.927,25.927,0,0,0-5.138,10.123c-.514,2.775-.925,7.5-1.85,10.431s-1.953,5.447-1.644,6.783,4.676,8.016,7.245,9.352,4.466.668,8.836,1.85,9.2,3.34,15.109,3.186,10.02-1.593,14.439-3.237a102.015,102.015,0,0,1,9.815-2.929c3.546-1.028,5.7-1.439,8.273-4.574s3.892-6.166,3.378-10.225-1.683-3.615-2.557-7.28a32.787,32.787,0,0,0-3.494-8.7c-1.438-2.672-1.592-4.625-4.418-8.89s-7.143-6.063-10.431-7.4A48.113,48.113,0,0,0,799.119,1529.657Z" transform="translate(-766.845 -1529.657)" fill="#ccccd1"/><path d="M798.947,1587.255a36.476,36.476,0,0,1-11.181-2.209c-1.12-.354-2.179-.687-3.228-.972a27.92,27.92,0,0,0-4.748-.834,10.268,10.268,0,0,1-4.012-.986c-2.409-1.253-6.755-7.817-7.052-9.1-.222-.963.378-2.768,1.073-4.857.185-.557.376-1.132.564-1.727a49.484,49.484,0,0,0,1.367-7.245c.168-1.2.326-2.324.494-3.231a25.5,25.5,0,0,1,5.038-9.928c.725-.743,1.417-1.567,2.086-2.365a19.727,19.727,0,0,1,3.915-3.9,22.425,22.425,0,0,0,4.353-3.571,24.641,24.641,0,0,1,5.949-3.7,7.23,7.23,0,0,1,3.082-.948c.08,0,.161,0,.245,0s.194,0,.309,0c.933,0,2.584-.089,3.38-.182a47.411,47.411,0,0,1,13.832,3.233c3.147,1.278,7.456,3.029,10.259,7.258a29.863,29.863,0,0,1,3.133,6.047,26.365,26.365,0,0,0,1.268,2.813,32.4,32.4,0,0,1,3.459,8.61,11.581,11.581,0,0,0,1.307,3.329,9.034,9.034,0,0,1,1.242,3.911c.455,3.593-.531,6.565-3.3,9.939-2.293,2.8-4.17,3.333-7.277,4.218l-.809.232c-1.109.322-2.051.567-2.961.8a62.3,62.3,0,0,0-6.88,2.133c-4.651,1.73-8.658,3.066-14.317,3.214q-.3.007-.592.007Z" transform="translate(-768.303 -1531.127)" fill="#e5e5eb"/><path d="M872.931,1554.253c-5.754,3.948-11.366,7.99-12.645,9.673s-2.783,9.426-2.344,13.423-2.118,13.659,1.124,18.216,15.354,3.058,19.6,3.645,20.125-6.348,22.768-6.911-1.408-9.006-1.329-11.644c.162-5.425-1.727-12.4-7.088-15.553S883.472,1547.02,872.931,1554.253Z" transform="translate(-838.807 -1547.649)" fill="#e5e5eb" opacity="0.3" style="mix-blend-mode:multiply;isolation:isolate"/><path d="M828.721,1549.081c-4.589,1.963-9.09,4.011-10.222,5.012s-3.272,6.22-3.523,9.084-3.4,9.283-1.762,12.932,8.683,6.546,11.578,7.552,14.76-4.355,16.693-4.381,5.456-8.708,6.589-10.219-1.166-9.675-4.484-12.64S837.126,1545.484,828.721,1549.081Z" transform="translate(-803.321 -1544.366)" fill="#ccccc4" opacity="0.3" style="mix-blend-mode:screen;isolation:isolate"/><path d="M844.136,1561.607a35.033,35.033,0,0,0-5.744,2.816,11.913,11.913,0,0,0-1.98,5.106c-.141,1.609-1.909,5.215-.99,7.266s4.88,3.678,6.506,4.244,8.294-2.448,9.38-2.462,3.066-4.894,3.7-5.742-.656-5.437-2.52-7.1S848.859,1559.586,844.136,1561.607Z" transform="translate(-821.134 -1554.64)" fill="#ccccc4" opacity="0.3" style="mix-blend-mode:screen;isolation:isolate"/><g transform="translate(23.474 0.308)"><path d="M889.313,1531.887a13.212,13.212,0,0,0-2.428.69,19.569,19.569,0,0,0-4.188,2.635c-.993.952-1.842,2.849-1.366,3.6s1.94-1.483,3.022-2.807a38.338,38.338,0,0,1,3.064-3.274A8.1,8.1,0,0,1,889.313,1531.887Z" transform="translate(-881.194 -1531.737)" fill="#e5e3e6" style="mix-blend-mode:multiply;isolation:isolate"/><path d="M897.3,1531.159a48.764,48.764,0,0,0-4.841,7.78c-.923,1.958-1.763,5.792-1.4,6.491s4.169-5.093,4.785-6.156S896.447,1533.126,897.3,1531.159Z" transform="translate(-888.967 -1531.159)" fill="#e5e3e6" style="mix-blend-mode:multiply;isolation:isolate"/><path d="M929.955,1531.28c.9.311,5.32,2.487,6.468,3.666s4.057,4.62,3.61,6.467-4.786-4.2-5.737-5.568A54.991,54.991,0,0,0,929.955,1531.28Z" transform="translate(-919.945 -1531.255)" fill="#e5e3e6" style="mix-blend-mode:multiply;isolation:isolate"/></g><g transform="translate(0 5.644)"><path d="M830.618,1597.267c2.569-3.134,3.892-6.166,3.378-10.225s-1.683-3.615-2.557-7.28a32.788,32.788,0,0,0-3.494-8.7c-1.438-2.672-1.592-4.625-4.418-8.89a16.373,16.373,0,0,0-5.4-5.018c.818,2.108,1.677,4.572,2.269,6.2.821,2.26,1.747,2.055,1.336,6.166s-1.031,4.42.1,8.632-.513,5.344-2.311,8.222-6.525,7.4-10.122,7.3-5.791.616-9.01,2.672a13.291,13.291,0,0,1-8.872,2.364c-3.186-.205-8.838-.309-11-.411s-6.577-.925-6.989-3.7-2.042-2.131-2.453-6.859a31.105,31.105,0,0,1,1.631-12.667c.777-2.05,1.652-5.822,3.225-9.207-.132.142-.264.282-.4.42a25.925,25.925,0,0,0-5.138,10.123c-.514,2.774-.925,7.5-1.85,10.431s-1.953,5.447-1.644,6.783,4.676,8.016,7.245,9.352,4.466.668,8.836,1.85,9.2,3.34,15.109,3.186,10.02-1.593,14.439-3.237a102.024,102.024,0,0,1,9.815-2.929C825.891,1600.813,828.048,1600.4,830.618,1597.267Z" transform="translate(-766.845 -1557.153)" fill="#dbdbe0" style="mix-blend-mode:multiply;isolation:isolate"/><path d="M861.745,1657.395c-2.254,2.254-4.933,3.391-5.858,5.241s.429,2.363,4.017,1.336,3.961-4.419,5.676-5.55,3.949-8.221,1.6-5.96S863.184,1655.956,861.745,1657.395Z" transform="translate(-837.384 -1632.546)" fill="#e5e3e6" style="mix-blend-mode:multiply;isolation:isolate"/></g></g><g transform="translate(15.387)"><g transform="translate(0 0.939)"><path d="M855.649,1509.295c-1.052-.53-2.5-1.99-3.691-2.549a7.889,7.889,0,0,0-2.687-.917,5.37,5.37,0,0,0-2.842,1.336c-1.568,1.18-3.867,2.019-4.627,3.059,1.569.7,3.665,1.047,4.767,1.9s2.733,1.822,3.835,1.713,5.823-2.337,7.112-2.416S857.642,1510.413,855.649,1509.295Z" transform="translate(-841.802 -1505.829)" fill="#ccccd1"/><path d="M852.531,1514.844a7.141,7.141,0,0,1-3.447-1.649,9.724,9.724,0,0,0-2.9-1.249c-.5-.158-1.011-.321-1.485-.5a12.164,12.164,0,0,1,2.037-1.294,19.086,19.086,0,0,0,2.2-1.356,5.092,5.092,0,0,1,2.643-1.266h.026a8.433,8.433,0,0,1,2.5.884,11.625,11.625,0,0,1,1.953,1.338,11.765,11.765,0,0,0,1.729,1.206,8.861,8.861,0,0,1,2.139,1.454c-.036,0-.081.01-.136.013a20.514,20.514,0,0,0-4.04,1.34,20.786,20.786,0,0,1-3.085,1.076c-.047,0-.093.007-.141.007Z" transform="translate(-844.104 -1507.177)" fill="#e5e5eb"/><path d="M888,1522.64a27.87,27.87,0,0,0-4.426-1.3c-.955-.024-3.005.4-2.492,1.025s2.131.186,3.418.186S887.544,1522.631,888,1522.64Z" transform="translate(-872.956 -1518.152)" fill="#e5e3e6" style="mix-blend-mode:multiply;isolation:isolate"/></g><g transform="translate(16.211)"><path d="M920.772,1507.574c.527-.631,1.561-2.893,2.251-3.733,2.1-2.559,4.031-2.7,6.576-2.539a23.421,23.421,0,0,1,6.048,1.351,38.248,38.248,0,0,0-5.21,3.96c-1.6,1.3-2.562,2.189-4.425,1.874C923.207,1508.013,922.9,1507.663,920.772,1507.574Z" transform="translate(-920.772 -1501.256)" fill="#ccccd1"/><path d="M929.182,1509.548a3.979,3.979,0,0,1-.662-.058c-1.117-.189-1.846-.361-2.431-.5a13.043,13.043,0,0,0-2.234-.382c.2-.326.422-.734.665-1.178a16.073,16.073,0,0,1,1.223-2.023,5.8,5.8,0,0,1,5.066-2.459c.345,0,.733.015,1.218.046a20.708,20.708,0,0,1,5.24,1.1,29.827,29.827,0,0,0-3.415,2.6c-.378.319-.768.649-1.184.987l-.252.206c-1.22,1-2.026,1.655-3.234,1.655Z" transform="translate(-923.222 -1502.601)" fill="#e5e5eb"/><path d="M927.351,1519.563c.544-.5,2.539-2.014,3.727-2.154s1.211.524.35,1.077S928.454,1519.08,927.351,1519.563Z" transform="translate(-926.001 -1514.078)" fill="#e5e3e6" style="mix-blend-mode:multiply;isolation:isolate"/></g><g transform="translate(13.84 4.015)"><path d="M909.326,1521.327c.652.528,1.2,1.444,1.009,1.956s.466.714.963.745,2.5-.146,2.63-.725a2.431,2.431,0,0,0-1.217-2.225C911.857,1520.659,908.6,1520.74,909.326,1521.327Z" transform="translate(-909.222 -1520.815)" fill="#e5e5eb"/><path d="M911.318,1525.769c-.186.512.465.714.963.745s2.5-.146,2.63-.725a1.76,1.76,0,0,0-.15-.975c-1.028.47-2.442.494-2.731.181a5.447,5.447,0,0,0-1.572-1.052h0C911.04,1524.481,911.49,1525.3,911.318,1525.769Z" transform="translate(-910.204 -1523.301)" fill="#e5e3e6" style="mix-blend-mode:multiply;isolation:isolate"/></g></g></g><g transform="translate(-0.001 40.154)"><path d="M961.751,1763.517a2.472,2.472,0,0,1-2.992-.771c-.907-1.33-.68,1.5.091,2.13s1.828.892,2.266.438A2.214,2.214,0,0,0,961.751,1763.517Z" transform="translate(-912.736 -1728.154)" fill="#4f78c9"/><path d="M789.388,1604.443c0,4.884-11.761,8.563-26.269,8.563s-26.269-3.679-26.269-8.563c0-4.631,11.761-8.844,26.269-8.844S789.388,1599.813,789.388,1604.443Z" transform="translate(-736.85 -1595.599)" fill="#6e9de0"/><path d="M797.245,1610.9c0,3.816-10.536,6.69-23.532,6.69s-23.533-2.874-23.533-6.69c0-3.618,10.536-6.909,23.533-6.909S797.245,1607.282,797.245,1610.9Z" transform="translate(-747.443 -1602.268)" fill="#5480ce"/><g transform="translate(4.374 9.882)"><path d="M801.948,1650.648c0,3.816-9.8,6.69-21.895,6.69s-21.9-2.874-21.9-6.69c0-3.618,9.8-6.91,21.9-6.91S801.948,1647.031,801.948,1650.648Z" transform="translate(-758.158 -1643.739)" fill="#9ec7f5"/><path d="M882.643,1651.356c-2.4-1.651-9.519-3.419-13.146-3.555s-2.856.408-1.36,1.179-.023.656-.544.588-1.315.228-.385.726,1,.975.045.884-1.043.2-.589.544.136.725-1.065.771-3.355,3.74,1.133,3.74S881.243,1653.37,882.643,1651.356Z" transform="translate(-842.285 -1646.951)" fill="#9ec7f5" opacity="0.4" style="mix-blend-mode:multiply;isolation:isolate"/></g><g transform="translate(0 8.844)"><path d="M772.215,1669.171c-7.57,0-21.636-3.629-23.92-5.409.3,3.324,2.66,25.174,3.143,27.47s.786,3.324,3.445,5.017,10.124,3.566,17.332,3.566,14.672-1.874,17.331-3.566,2.962-2.72,3.445-5.017,2.841-24.146,3.143-27.47C793.851,1665.541,779.785,1669.171,772.215,1669.171Z" transform="translate(-745.946 -1658.613)" fill="#6396dd"/><path d="M748.828,1669.1c4.315,2.815,13.214,4.662,23.494,4.662s19.179-1.847,23.494-4.662c.183-1.736.324-3.114.4-3.9-3.558,2.545-10.79,4.354-19.471,4.816a32.958,32.958,0,0,1-8.842,0c-8.681-.463-15.913-2.271-19.471-4.816C748.5,1665.984,748.645,1667.362,748.828,1669.1Z" transform="translate(-746.052 -1659.756)" fill="#5480ce"/><path d="M941.06,1705.625c-.512-.711-1.365-1.261-2.076-.749a1.587,1.587,0,0,0-.358,2.215c.362.5.786,1.079,1.235,1.69a41.954,41.954,0,0,1,4.972,8.765c.166-1.4.345-2.956.527-4.565a54.889,54.889,0,0,0-3.082-5.689C941.834,1706.687,941.414,1706.115,941.06,1705.625Z" transform="translate(-896.966 -1691.128)" fill="#5480ce" opacity="0.5"/><path d="M775.329,1663.658a46.833,46.833,0,0,0,6.481,1.412,101.023,101.023,0,0,0,12.292.586c2.776-.182,3.968-.262,5.039-.339-1.077,1.166-1.217,2.833-1.3,6.327s.129,12.1.384,14.637.19,2.564-2.226,2.968a42.258,42.258,0,0,1-12.1-.174c-3.613-.628-7.251-1.874-8.095-2.816s-1.423-8.894-1.875-13.414c-.43-4.3-.749-6.963-.049-7.868S774.941,1663.533,775.329,1663.658Z" transform="translate(-765.958 -1658.517)" fill="#5480ce" opacity="0.5"/><g transform="translate(38.077 7.657)"><path d="M922.383,1678.474c-.068,1.972-.146,4.783.453,5.757a2.843,2.843,0,0,0,2.457,1.451h0l1.545.181-.08-.5a4.075,4.075,0,0,0,2.267-2.583,37.135,37.135,0,0,0,.567-6.8A54.414,54.414,0,0,1,922.383,1678.474Z" transform="translate(-922.337 -1675.981)" fill="#5480ce"/><path d="M923.97,1691.08l-1.6-.333c-.024.773-.041,1.626-.016,2.429Z" transform="translate(-922.338 -1687.715)" fill="#4f78c9"/><path d="M930.333,1679.357c-.068,1.972-.146,4.782.453,5.757,1.687,2.742,5.463,1.224,6.188-1.451a37.13,37.13,0,0,0,.567-6.8A54.379,54.379,0,0,1,930.333,1679.357Z" transform="translate(-928.655 -1676.683)" fill="#6396dd"/></g><path d="M763.119,1647.246c-14.508,0-26.269-3.679-26.269-8.564v3.627c0,4.885,11.761,8.563,26.269,8.563s26.269-3.679,26.269-8.563v-3.627C789.388,1643.567,777.627,1647.246,763.119,1647.246Z" transform="translate(-736.85 -1638.682)" fill="#6396dd"/><path d="M763.119,1647.246c14.508,0,26.269-3.679,26.269-8.564H786.64c-.382,3.71-10.766,6.478-23.521,6.478s-23.138-2.768-23.521-6.478H736.85C736.85,1643.567,748.611,1647.246,763.119,1647.246Z" transform="translate(-736.85 -1638.682)" fill="#6e9de0"/><g transform="translate(41.387 11.374)"><path d="M948.176,1706.386a59.773,59.773,0,0,0-5.626-9.212c-.445-.605-.865-1.177-1.219-1.667a1.586,1.586,0,0,0-1.61-.624l.013-.066-.465.235a1.753,1.753,0,0,0-.152.1,1.587,1.587,0,0,0-.359,2.215c.362.5.786,1.079,1.235,1.69,2.009,2.733,4.761,6.477,5.747,8.646l.053.119a3.6,3.6,0,0,1-.15,2.988,1.942,1.942,0,0,1-.926.742q-.039.323-.077.627a2.14,2.14,0,0,0,.595-.146c1.284-.65,1.631-2.767,1.844-3.4.035,0,.071,0,.106,0,.22,0,.171-.046.384-.143A1.521,1.521,0,0,0,948.176,1706.386Z" transform="translate(-938.459 -1694.667)" fill="#5480ce"/><path d="M949.843,1705.939s-.049-.15-.082-.224a57.908,57.908,0,0,0-5.444-9.3c-.445-.605-.865-1.177-1.219-1.667a1.587,1.587,0,0,0-2.573,1.856c.362.5.786,1.079,1.235,1.69,2.009,2.733,4.761,6.477,5.747,8.646l.086.189a3.737,3.737,0,0,1-.954,4.322C949.133,1710.769,950.826,1708.588,949.843,1705.939Z" transform="translate(-939.862 -1694.087)" fill="#6396dd"/><g transform="translate(0.65)"><path d="M941.838,1694.579a1.645,1.645,0,0,1,2.3.372c.366.508.8,1.1,1.263,1.728a59.993,59.993,0,0,1,5.643,9.643c.035.076.085.231.085.231.011.031.021.061.031.092a4.682,4.682,0,0,0-.2-.706s-.048-.15-.082-.224a57.908,57.908,0,0,0-5.444-9.3c-.445-.605-.865-1.177-1.219-1.667a1.583,1.583,0,0,0-2.586.02A1.706,1.706,0,0,1,941.838,1694.579Z" transform="translate(-941.624 -1694.087)" fill="#6e9de0"/></g></g></g><g transform="translate(5.982 12.37)"><path d="M791.746,1658.633l.456-.031c-.318-.362-.441-.375-.5-.368-1.073.045-2.266.09-5.047.191a101.047,101.047,0,0,1-12.27-.947,46.866,46.866,0,0,1-6.437-1.6c-.384-.136-.755.393-1.481,1.277s-.485,3.554-.181,7.865c.319,4.531.665,12.5,1.481,13.463s4.416,2.319,8.009,3.052a42.268,42.268,0,0,0,12.088.529,4.622,4.622,0,0,0,2.478-.8c.392-.4.3-.982.212-2.251-.181-2.538-.234-11.008-.053-14.5a19.568,19.568,0,0,1,.638-4.908c.093-.246.23-.486.331-.7C791.512,1658.828,791.575,1658.635,791.746,1658.633Z" transform="translate(-765.992 -1655.856)" fill="#bec6d1"/><path d="M767.95,1655.877a46.866,46.866,0,0,0,6.437,1.6,101.047,101.047,0,0,0,12.27.947c2.78-.1,3.974-.146,5.047-.191-1.111,1.133-1.3,2.8-1.481,6.286s-.227,12.1-.045,14.642.115,2.569-2.312,2.9a42.268,42.268,0,0,1-12.088-.529c-3.593-.734-7.193-2.085-8.009-3.052s-1.161-8.932-1.481-13.463c-.3-4.311-.544-6.981.181-7.865S767.566,1655.741,767.95,1655.877Z" transform="translate(-765.992 -1655.856)" fill="#fff"/><g transform="translate(1.24 0.314)"><path d="M839.185,1726.642a.136.136,0,0,0,.028-.191l-.431-.591a.136.136,0,1,0-.22.16l.432.592A.137.137,0,0,0,839.185,1726.642Z" transform="translate(-824.883 -1711.757)" fill="#aab3d1"/><path d="M838.94,1677.243a.136.136,0,0,0-.194,0l-.537.514a.139.139,0,0,0,0,.2.136.136,0,0,0,.194,0l.534-.512A.138.138,0,0,0,838.94,1677.243Z" transform="translate(-824.59 -1673.133)" fill="#aab3d1"/><path d="M844.416,1733.755a.137.137,0,0,0,.026-.192l-.437-.587a.136.136,0,1,0-.218.162l.438.588A.137.137,0,0,0,844.416,1733.755Z" transform="translate(-829.035 -1717.414)" fill="#aab3d1"/><path d="M860.474,1754.815a.136.136,0,0,0,.022-.192l-.452-.576a.136.136,0,1,0-.214.167l.453.576A.136.136,0,0,0,860.474,1754.815Z" transform="translate(-841.783 -1734.162)" fill="#aab3d1"/><path d="M832.13,1684.241l.512-.535a.136.136,0,0,0,0-.193.139.139,0,0,0-.2,0l-.514.537a.136.136,0,1,0,.2.187Z" transform="translate(-819.605 -1678.118)" fill="#aab3d1"/><path d="M834.761,1777.553c.241.02.482.033.723.046a.136.136,0,0,0,.015-.271c-.239-.013-.479-.026-.718-.046a.136.136,0,0,0-.02.271Z" transform="translate(-821.784 -1752.669)" fill="#aab3d1"/><path d="M833.824,1719.454a.136.136,0,1,0,.221-.158l-.426-.595a.136.136,0,1,0-.221.158Z" transform="translate(-820.779 -1706.068)" fill="#aab3d1"/><path d="M854.446,1747.043a.136.136,0,0,0-.024.191l.447.581a.136.136,0,1,0,.215-.167l-.446-.579A.137.137,0,0,0,854.446,1747.043Z" transform="translate(-837.486 -1728.616)" fill="#aab3d1"/><path d="M843.455,1778.006l.724.016a.136.136,0,0,0,.137-.135.135.135,0,0,0-.133-.137l-.719-.016a.136.136,0,0,0-.008.272Z" transform="translate(-828.689 -1753.028)" fill="#aab3d1"/><path d="M820.711,1696.775a.139.139,0,0,0-.013-.195.137.137,0,0,0-.193.017l-.481.567a.136.136,0,0,0,.014.193.138.138,0,0,0,.194-.019Z" transform="translate(-810.145 -1688.508)" fill="#aab3d1"/><path d="M823.771,1705.06a.136.136,0,1,0,.224-.154l-.413-.6a.136.136,0,1,0-.225.154Z" transform="translate(-812.802 -1694.622)" fill="#aab3d1"/><path d="M817.482,1775.464l.715.118a.134.134,0,0,0,.154-.114.138.138,0,0,0-.113-.156l-.709-.116a.134.134,0,0,0-.157.109A.137.137,0,0,0,817.482,1775.464Z" transform="translate(-808.064 -1751.009)" fill="#aab3d1"/><path d="M816.09,1702.023l-.465.58a.136.136,0,1,0,.213.169l.463-.577a.136.136,0,1,0-.211-.171Z" transform="translate(-806.652 -1692.818)" fill="#aab3d1"/><path d="M849.519,1740.791a.136.136,0,1,0,.217-.165l-.441-.583a.136.136,0,1,0-.217.164Z" transform="translate(-833.238 -1723.031)" fill="#aab3d1"/><path d="M845.48,1671.224a.139.139,0,0,0-.195-.012c-.19.159-.371.33-.556.5a.136.136,0,1,0,.182.2c.183-.165.363-.334.552-.492A.137.137,0,0,0,845.48,1671.224Z" transform="translate(-829.769 -1668.346)" fill="#aab3d1"/><path d="M850.878,1668.007l-.092.083a.136.136,0,1,0,.182.2l.293-.265Z" transform="translate(-834.582 -1665.826)" fill="#aab3d1"/><path d="M819.138,1698.051a.137.137,0,0,0,.036-.19l-.407-.608a.136.136,0,0,0-.189-.039.137.137,0,0,0-.038.19l.408.609A.136.136,0,0,0,819.138,1698.051Z" transform="translate(-808.975 -1689.019)" fill="#aab3d1"/><path d="M773.467,1664.953a.138.138,0,0,0,.169-.086,3.335,3.335,0,0,1,.31-.618.136.136,0,0,0-.234-.139,3.6,3.6,0,0,0-.334.669A.134.134,0,0,0,773.467,1664.953Z" transform="translate(-773.097 -1662.677)" fill="#aab3d1"/><path d="M875.873,1726.7a.136.136,0,0,0,.272,0l0-.721a.136.136,0,0,0-.272,0Z" transform="translate(-854.554 -1711.786)" fill="#aab3d1"/><path d="M876.193,1744.228a.136.136,0,0,0,.133-.138l-.014-.721a.136.136,0,0,0-.272,0l.014.722A.136.136,0,0,0,876.193,1744.228Z" transform="translate(-854.69 -1725.612)" fill="#aab3d1"/><path d="M875.936,1709.295a.136.136,0,0,0,.272,0l.011-.721a.136.136,0,0,0-.272-.005Z" transform="translate(-854.606 -1697.959)" fill="#aab3d1"/><path d="M876.07,1735.53a.136.136,0,0,0,.135-.137l-.008-.721a.136.136,0,0,0-.272,0l.008.722A.135.135,0,0,0,876.07,1735.53Z" transform="translate(-854.597 -1718.699)" fill="#aab3d1"/><path d="M875.87,1717.995a.136.136,0,0,0,.272,0l0-.721a.136.136,0,0,0-.272,0Z" transform="translate(-854.554 -1704.871)" fill="#aab3d1"/><path d="M860.859,1777.511c.241-.014.483-.038.724-.06a.135.135,0,0,0,.121-.15.136.136,0,0,0-.148-.121c-.238.022-.476.045-.714.059a.136.136,0,0,0,.018.271Z" transform="translate(-842.509 -1752.588)" fill="#aab3d1"/><path d="M876.818,1691.93c.02-.239.037-.479.06-.717a.136.136,0,0,0-.271-.025c-.024.24-.04.481-.061.721a.136.136,0,0,0,.271.021Z" transform="translate(-855.091 -1684.151)" fill="#aab3d1"/><path d="M876.144,1699.873l-.026.723a.136.136,0,0,0,.272.008l.026-.719a.136.136,0,0,0-.272-.011Z" transform="translate(-854.75 -1691.047)" fill="#aab3d1"/><path d="M826.1,1776.729c.24.026.479.058.72.079a.136.136,0,0,0,.027-.271c-.239-.021-.476-.052-.715-.078a.137.137,0,0,0-.15.12A.134.134,0,0,0,826.1,1776.729Z" transform="translate(-814.902 -1752.014)" fill="#aab3d1"/><path d="M870.866,1767.823a.137.137,0,0,0-.019.193l.466.566a.136.136,0,1,0,.209-.174l-.465-.564A.137.137,0,0,0,870.866,1767.823Z" transform="translate(-850.538 -1745.128)" fill="#aab3d1"/><path d="M865.322,1760.953a.137.137,0,0,0-.021.192l.458.572a.136.136,0,1,0,.212-.171l-.458-.571A.137.137,0,0,0,865.322,1760.953Z" transform="translate(-846.13 -1739.669)" fill="#aab3d1"/><path d="M879.156,1674.827c.06-.229.12-.458.2-.682a.139.139,0,0,0-.087-.172.132.132,0,0,0-.171.085c-.081.232-.143.468-.2.7a.137.137,0,0,0,.1.165A.134.134,0,0,0,879.156,1674.827Z" transform="translate(-856.952 -1670.561)" fill="#aab3d1"/><path d="M876.738,1770.292a.132.132,0,0,0,.179-.087,2.8,2.8,0,0,0,.076-.757.137.137,0,0,0-.14-.134.135.135,0,0,0-.132.137,2.574,2.574,0,0,1-.064.675A.141.141,0,0,0,876.738,1770.292Z" transform="translate(-855.173 -1746.337)" fill="#aab3d1"/><path d="M876.709,1761.619a.136.136,0,0,0,.126-.145l-.039-.717a.136.136,0,0,0-.272.012c.011.241.023.482.04.723A.135.135,0,0,0,876.709,1761.619Z" transform="translate(-855.074 -1739.434)" fill="#aab3d1"/><path d="M876.388,1752.926a.136.136,0,0,0,.132-.139l-.021-.72a.136.136,0,0,0-.272.007l.021.722A.136.136,0,0,0,876.388,1752.926Z" transform="translate(-854.837 -1732.525)" fill="#aab3d1"/><path d="M877.658,1683.295c.031-.237.062-.474.1-.709a.137.137,0,0,0-.113-.155.134.134,0,0,0-.155.112c-.04.239-.071.479-.1.719a.134.134,0,0,0,.118.151A.137.137,0,0,0,877.658,1683.295Z" transform="translate(-855.759 -1677.287)" fill="#aab3d1"/><path d="M799.8,1724.31a.137.137,0,0,0,.19-.039l.418-.611a.136.136,0,1,0-.224-.155l-.419.614A.138.138,0,0,0,799.8,1724.31Z" transform="translate(-794.05 -1709.883)" fill="#aab3d1"/><path d="M773.979,1716.69a.136.136,0,0,0,.127-.144l-.046-.72a.136.136,0,0,0-.271.017l.046.72A.136.136,0,0,0,773.979,1716.69Z" transform="translate(-773.428 -1703.729)" fill="#aab3d1"/><path d="M772.511,1690.5l-.032-.719a.136.136,0,0,0-.272.011l.032.722a.136.136,0,0,0,.272-.013Z" transform="translate(-772.171 -1683.027)" fill="#aab3d1"/><path d="M773.425,1708.009a.135.135,0,0,0,.127-.143l-.047-.72a.136.136,0,0,0-.271.018l.047.72A.136.136,0,0,0,773.425,1708.009Z" transform="translate(-772.987 -1696.829)" fill="#aab3d1"/><path d="M772.154,1673.112a.135.135,0,0,0,.129.142.137.137,0,0,0,.143-.128c.01-.239.029-.476.052-.712a.136.136,0,0,0-.271-.028C772.183,1672.628,772.165,1672.87,772.154,1673.112Z" transform="translate(-772.129 -1669.21)" fill="#aab3d1"/><path d="M777.795,1657.917a.135.135,0,0,0,.033.19.137.137,0,0,0,.189-.032c.137-.194.282-.382.433-.562a.127.127,0,0,0,.025-.047l-.271-.081C778.06,1657.557,777.923,1657.734,777.795,1657.917Z" transform="translate(-776.591 -1657.384)" fill="#aab3d1"/><path d="M772.847,1699.328a.136.136,0,0,0,.126-.144l-.047-.719a.136.136,0,0,0-.272.017l.047.721A.135.135,0,0,0,772.847,1699.328Z" transform="translate(-772.527 -1689.931)" fill="#aab3d1"/><path d="M778.682,1759.769a.13.13,0,0,0,.195-.01.142.142,0,0,0-.008-.187,1.059,1.059,0,0,1-.309-.561.139.139,0,0,0-.168-.09.132.132,0,0,0-.092.169A1.342,1.342,0,0,0,778.682,1759.769Z" transform="translate(-777.008 -1738.073)" fill="#aab3d1"/><path d="M772.176,1681.945a.135.135,0,0,0,.133-.138l-.005-.719a.136.136,0,0,0-.272,0l.006.724A.136.136,0,0,0,772.176,1681.945Z" transform="translate(-772.031 -1676.115)" fill="#aab3d1"/><path d="M774.545,1725.373a.136.136,0,0,0,.126-.145l-.049-.719a.136.136,0,0,0-.271.018l.049.72A.136.136,0,0,0,774.545,1725.373Z" transform="translate(-773.874 -1710.629)" fill="#aab3d1"/><path d="M870.332,1775.956a.135.135,0,0,0-.163-.092c-.226.053-.458.1-.7.13a.136.136,0,0,0,.041.269c.239-.034.48-.078.723-.135A.136.136,0,0,0,870.332,1775.956Z" transform="translate(-849.378 -1751.538)" fill="#aab3d1"/><path d="M776.048,1742.567l-.072-.716a.136.136,0,0,0-.271.026l.073.72a.136.136,0,0,0,.27-.029Z" transform="translate(-774.95 -1724.414)" fill="#aab3d1"/><path d="M882.177,1668.216a4.21,4.21,0,0,1,.326-.512l-.342.013q-.12.179-.222.368a.132.132,0,0,0,.053.184A.139.139,0,0,0,882.177,1668.216Z" transform="translate(-859.363 -1665.585)" fill="#aab3d1"/><path d="M853.014,1777.861a.137.137,0,0,0-.14-.132c-.239.007-.479.015-.718.016a.136.136,0,0,0,0,.272c.241,0,.483-.009.724-.016A.134.134,0,0,0,853.014,1777.861Z" transform="translate(-835.601 -1753.024)" fill="#aab3d1"/><path d="M814.12,1690.313a.136.136,0,0,0,.039-.189l-.4-.615a.136.136,0,1,0-.229.147l.4.617A.137.137,0,0,0,814.12,1690.313Z" transform="translate(-804.997 -1682.864)" fill="#aab3d1"/><path d="M775.174,1734.05a.136.136,0,0,0,.124-.146l-.057-.719a.136.136,0,0,0-.271.021l.057.72A.136.136,0,0,0,775.174,1734.05Z" transform="translate(-774.366 -1717.526)" fill="#aab3d1"/><path d="M810.789,1709.013a.136.136,0,0,0-.192.028l-.452.59a.136.136,0,1,0,.217.164l.45-.588A.138.138,0,0,0,810.789,1709.013Z" transform="translate(-802.298 -1698.393)" fill="#aab3d1"/><path d="M797.01,1662.025a.136.136,0,0,0,.183.06.138.138,0,0,0,.059-.185l-.033-.064-.343-.075Z" transform="translate(-791.777 -1660.863)" fill="#aab3d1"/><path d="M804.331,1674.425a.136.136,0,0,0-.048.187l.372.633a.138.138,0,0,0,.188.048.136.136,0,0,0,.045-.187l-.371-.63A.138.138,0,0,0,804.331,1674.425Z" transform="translate(-797.647 -1670.913)" fill="#aab3d1"/><path d="M800.56,1771.383c.232.069.463.139.7.2a.136.136,0,0,0,.073-.262c-.231-.062-.46-.132-.69-.2a.137.137,0,0,0-.169.091A.134.134,0,0,0,800.56,1771.383Z" transform="translate(-794.627 -1747.77)" fill="#aab3d1"/><path d="M805.085,1716.965l.432-.6a.137.137,0,0,0-.027-.192.138.138,0,0,0-.193.031l-.433.6a.136.136,0,1,0,.221.158Z" transform="translate(-798.103 -1704.083)" fill="#aab3d1"/><path d="M800.476,1667.62a.137.137,0,0,0,.051-.186c-.12-.212-.241-.423-.354-.638a.136.136,0,1,0-.239.13c.114.217.236.429.356.642A.136.136,0,0,0,800.476,1667.62Z" transform="translate(-794.192 -1664.806)" fill="#aab3d1"/><path d="M808.862,1773.5a.135.135,0,0,0,.1.164c.236.054.47.114.707.162a.136.136,0,0,0,.058-.266c-.234-.048-.467-.107-.7-.161A.137.137,0,0,0,808.862,1773.5Z" transform="translate(-801.298 -1749.584)" fill="#aab3d1"/><path d="M828.984,1712.355a.137.137,0,0,0,.032-.19l-.421-.6a.136.136,0,1,0-.223.156l.422.6A.136.136,0,0,0,828.984,1712.355Z" transform="translate(-816.787 -1700.396)" fill="#aab3d1"/><path d="M809.4,1682.851a.137.137,0,0,0,.042-.189l-.387-.62a.135.135,0,0,0-.187-.046.137.137,0,0,0-.044.188l.388.622A.137.137,0,0,0,809.4,1682.851Z" transform="translate(-801.257 -1676.928)" fill="#aab3d1"/><path d="M795.44,1730.888a.137.137,0,0,0-.189.042l-.4.624a.139.139,0,0,0,.041.191.137.137,0,0,0,.189-.045l.4-.621A.138.138,0,0,0,795.44,1730.888Z" transform="translate(-790.145 -1715.781)" fill="#aab3d1"/><path d="M781.983,1753.955a.139.139,0,0,0-.186.059l-.342.661a.136.136,0,0,0,.058.185.139.139,0,0,0,.185-.062l.34-.657A.136.136,0,0,0,781.983,1753.955Z" transform="translate(-779.508 -1734.118)" fill="#aab3d1"/><path d="M784.348,1765.064q.324.171.656.32a.133.133,0,0,0,.179-.068.138.138,0,0,0-.067-.18c-.217-.1-.43-.2-.64-.312a.136.136,0,0,0-.128.24Z" transform="translate(-781.763 -1742.756)" fill="#aab3d1"/><path d="M786.22,1746.126a.139.139,0,0,0-.188.052l-.365.648a.136.136,0,0,0,.051.187.139.139,0,0,0,.187-.055l.363-.645A.137.137,0,0,0,786.22,1746.126Z" transform="translate(-782.853 -1727.895)" fill="#aab3d1"/><path d="M826.074,1690.758c.161-.187.33-.366.5-.548a.136.136,0,1,0-.2-.184c-.167.183-.337.364-.5.551a.139.139,0,0,0,.009.2A.137.137,0,0,0,826.074,1690.758Z" transform="translate(-814.79 -1683.289)" fill="#aab3d1"/><path d="M776.778,1751.246a.135.135,0,0,0,.156.111.137.137,0,0,0,.112-.156c-.04-.235-.074-.472-.106-.709a.136.136,0,0,0-.153-.116.135.135,0,0,0-.117.152C776.7,1750.767,776.738,1751.006,776.778,1751.246Z" transform="translate(-775.717 -1731.285)" fill="#aab3d1"/><path d="M792.314,1768.591c.228.082.453.17.683.246a.136.136,0,0,0,.089-.257c-.228-.075-.45-.162-.675-.243a.135.135,0,0,0-.174.078A.137.137,0,0,0,792.314,1768.591Z" transform="translate(-788.081 -1745.552)" fill="#aab3d1"/><path d="M790.717,1738.439a.137.137,0,0,0-.189.047l-.385.636a.136.136,0,0,0,.045.188.138.138,0,0,0,.189-.049l.383-.633A.138.138,0,0,0,790.717,1738.439Z" transform="translate(-786.408 -1721.783)" fill="#aab3d1"/></g></g></g><g transform="translate(66.582 0.001)"><g transform="translate(23.222)"><path d="M754.279,1400.144l-.16-.059a1.389,1.389,0,0,0-1.783.825l-.294.8-.344.939-21.917,59.691,2.768,1.016,21.917-59.691.345-.939.294-.8A1.389,1.389,0,0,0,754.279,1400.144Zm-1.8,1.728.282-.77a.922.922,0,0,1,1.183-.548l.155.057a.923.923,0,0,1,.548,1.183l-.282.77Z" transform="translate(-729.781 -1400)" fill="#b8bdc4"/><path d="M762.439,1402.16l-.2.538a.919.919,0,0,1,.091.814l-.282.77-.343-.126-22.261,60.63.784.288,21.917-59.691.345-.939.294-.8A1.389,1.389,0,0,0,762.439,1402.16Z" transform="translate(-737.461 -1401.717)" fill="#b8bdc4" opacity="0.3" style="mix-blend-mode:multiply;isolation:isolate"/></g><g transform="translate(8.933 60.404)"><rect width="6.002" height="3.547" transform="matrix(0.345, -0.939, 0.939, 0.345, 12.613, 5.634)" fill="#4dab54"/><path d="M675.487,1707.545c-3.512-1.29-10.826-2.374-15.312,6.067l11.53,4.233,11.53,4.233C685.276,1712.74,679,1708.834,675.487,1707.545Z" transform="translate(-660.175 -1704.116)" fill="#4dab54"/><path d="M679.057,1731.784a12.03,12.03,0,0,0-1.006,1.348l16.878,6.2a11.961,11.961,0,0,0,.106-1.678Z" transform="translate(-674.381 -1724.078)" fill="#4dab54" opacity="0.3" style="mix-blend-mode:multiply;isolation:isolate"/><g transform="translate(6.027 4.631)" opacity="0.3" style="mix-blend-mode:multiply;isolation:isolate"><path d="M735.043,1728.333l5.13,1.884a7.847,7.847,0,0,0-1.382-3.142,9,9,0,0,0-2.461-2.245Z" transform="translate(-725.701 -1723.183)" fill="#4dab54"/><path d="M695.952,1716.906a8.994,8.994,0,0,0-3.329.118,7.861,7.861,0,0,0-3.087,1.5l5.13,1.884Z" transform="translate(-689.536 -1716.806)" fill="#4dab54"/></g></g><g transform="translate(0 69.899)"><path d="M648.651,1748.966l-11.53-4.233-11.53-4.233c-2.188,4.255-5.636,10.854-8.933,16.146,3.585,2.7,10.619,5.6,13.627,6.707s10.247,3.446,14.729,3.7C645.924,1760.888,647.566,1753.626,648.651,1748.966Z" transform="translate(-616.658 -1740.5)" fill="#7c523d"/><g transform="translate(2.571 8.261)" opacity="0.4" style="mix-blend-mode:multiply;isolation:isolate"><path d="M651.1,1806.165c-.429.892-1.561,2.792-2.136,3.745,1.041.491,2.078.952,3.05,1.366.742-2.483,1.944-6.432,2.593-8.493-.526,1.055-2.811,4.886-4.193,7.014A16.047,16.047,0,0,1,651.1,1806.165Z" transform="translate(-644.903 -1798.258)" fill="#7c523d"/><path d="M675.572,1830.439c.47-1.845,1.229-4.193,1.458-5.049-.344.7-1.38,3.073-2.128,4.787Q675.252,1830.316,675.572,1830.439Z" transform="translate(-665.516 -1816.225)" fill="#7c523d"/><path d="M630.447,1795.641c.3-2.035,2.284-7.026,2.91-9.054-1.186,2.453-2.94,6.164-4.174,8.353C629.592,1795.175,630.015,1795.409,630.447,1795.641Z" transform="translate(-629.183 -1785.387)" fill="#7c523d"/><path d="M707.091,1814.244c.564-3.512,2.253-10.562,2.911-13.188-1.085,2.422-3.09,8.19-4.96,11.942a34.9,34.9,0,0,1,.537-5.659c-.15.407-1.221,2.7-2.207,4.877.093-1.006,1.69-6.87,2.409-9.333-.823,1.783-2.722,6.963-3.962,9.9C703.439,1813.283,705.277,1813.809,707.091,1814.244Z" transform="translate(-686.908 -1796.885)" fill="#7c523d"/><path d="M747.834,1780.947l-.56-.206c-.589,2.881-1.512,6.707-2.13,9.274-.013-.721.554-4.281.71-6.027-.519,2.422-1.263,5.015-2.707,11.467a36.583,36.583,0,0,1,.08-5.38c-.414,1.711-1.176,6.18-1.766,8.625a24.371,24.371,0,0,0,2.736.338C745.107,1792.869,746.749,1785.607,747.834,1780.947Z" transform="translate(-718.412 -1780.742)" fill="#7c523d"/><path d="M733.113,1849.99c.023-1.5.306-3.372.435-4.508-.379,1.094-.977,2.9-1.507,4.282C732.4,1849.845,732.759,1849.92,733.113,1849.99Z" transform="translate(-710.926 -1832.192)" fill="#7c523d"/><path d="M687.4,1822.774c.725-2.564,1.736-5.961,2.474-8.222-.49,1.149-2.086,5.1-3.388,7.906C686.765,1822.558,687.071,1822.664,687.4,1822.774Z" transform="translate(-674.719 -1807.611)" fill="#7c523d"/></g><g transform="translate(6.677)" opacity="0.1" style="mix-blend-mode:multiply;isolation:isolate"><path d="M717.809,1762.588c-.079.468-.305,1.587-.331,1.878.158-.345.677-1.231,1.059-1.876l-1.073-.394c-.113.5-.372,1.251-.465,1.655A13.671,13.671,0,0,1,717.809,1762.588Z" transform="translate(-703.078 -1757.742)" fill="#7c523d"/><path d="M740.874,1771.293a7.308,7.308,0,0,1-.122.741c.151-.309.311-.654.433-.893l-.595-.219c-.22.763-.57,1.844-.631,2.138C740.319,1772.4,740.806,1771.384,740.874,1771.293Z" transform="translate(-721.325 -1764.678)" fill="#7c523d"/><path d="M753.247,1775.008l-.291-.106c-.049.346-.19.813-.236,1.069C752.891,1775.62,753.083,1775.274,753.247,1775.008Z" transform="translate(-731.466 -1767.839)" fill="#7c523d"/><path d="M690.209,1752.259c-.073.513-.326,1.56-.366,1.73a12,12,0,0,1,.96-1.628,7.579,7.579,0,0,1-.059,1.1c.1-.214.382-.754.587-1.118l-1.522-.559a12.212,12.212,0,0,1-.287,1.651C689.674,1753.127,690.12,1752.4,690.209,1752.259Z" transform="translate(-681.241 -1749.471)" fill="#7c523d"/><path d="M734.446,1768.436l-.17-.062c-.186.606-.422,1.375-.469,1.5C734.112,1769.268,734.306,1768.789,734.446,1768.436Z" transform="translate(-716.436 -1762.652)" fill="#7c523d"/><path d="M676.619,1746.8l-.411-.151a10.456,10.456,0,0,1-.187,1.1A6.08,6.08,0,0,1,676.619,1746.8Z" transform="translate(-670.511 -1745.39)" fill="#7c523d"/><path d="M706.675,1758.012c-.077.374-.241.853-.309,1.123a4.611,4.611,0,0,1,.649-1Z" transform="translate(-694.628 -1754.417)" fill="#7c523d"/><path d="M760.037,1779.241a15.188,15.188,0,0,1,.745-1.495l-.546-.2c-.081.331-.174.7-.217.833.17-.307.3-.526.312-.567C760.218,1778.372,760.092,1779.031,760.037,1779.241Z" transform="translate(-737.267 -1769.941)" fill="#7c523d"/><path d="M652.551,1741.354a8.553,8.553,0,0,1-.227,1.165,11.976,11.976,0,0,1,1.052-1.309l-1.935-.71c-.652,1.269-1.417,2.746-2.256,4.335h0a40.9,40.9,0,0,1,2.687-3.73c-.071.529-.437,1.736-.518,2.168A19.558,19.558,0,0,1,652.551,1741.354Z" transform="translate(-649.185 -1740.5)" fill="#7c523d"/></g><path d="M669.414,1764.857l-.359-.437-1.288,1.992-.759.636.622-3.013-.706.49-1.055,1.433-.084-1.164-.37-.4-1.169,1.759-.052-1.259-.381-.371-.252-.725-.992,1.3.4-2.525-1.339,2.273.138-1.812-.661.407.068-1.635-1.383,2.443.453-2.738-.636.341-.918,1.161-.114-1.159-.862,1.036.049-1.225-.589,1.154-.4.938-.607,3.341.742-.717.33.5.293.6,1.094-1.671.073,1.227,1.01-1.41.388.34-.315,2.292h.507l.983-1.312.237.75.972-1.271-.275,2.149,1.185-1.844-.064,1.561.621-.3.564-.145.625-.3-.27,2.089,1.206-1.853-.091,1.6.258.662.08,1.114,1.652-2.931-.427,2.383,1.248-2.892Z" transform="translate(-648.058 -1757.206)" fill="#7c523d" opacity="0.2" style="mix-blend-mode:screen;isolation:isolate"/></g></g><g transform="translate(23.001 82.861)"><path d="M872.926,1808.273l-8.569-4.636L848.9,1809.49l8.569,4.636,15.454-5.853Z" transform="translate(-848.903 -1803.637)" fill="#f76b96"/><path d="M848.9,1837.194v5.721l8.569,4.636v-5.721Z" transform="translate(-848.903 -1830.305)" fill="#ffd14a"/><path d="M890.645,1837.12v5.721l15.454-5.853v-5.722Z" transform="translate(-882.076 -1825.595)" fill="#ffbd38"/><path d="M848.9,1832.149v1.035l8.569,4.637v-1.036Z" transform="translate(-848.903 -1826.296)" fill="#f05e8c"/><path d="M890.645,1832.075v1.036l15.454-5.853v-1.036Z" transform="translate(-882.076 -1821.586)" fill="#e65a80"/></g><g transform="translate(48.012 63.857)"><g transform="translate(3.275 9.057)"><path d="M993.657,1755.812a13.8,13.8,0,0,1-1.461,4.668,13.418,13.418,0,0,1-2.4,3.616,8.476,8.476,0,0,0-2.322,3.169,29.085,29.085,0,0,0-.764,7.949c.121,2.588.541,3.678,2.423,4.024a42.3,42.3,0,0,0,9.187.124c2.8-.372,3.461-.8,3.616-3.219a37.828,37.828,0,0,0-.941-10.178,99.521,99.521,0,0,0-3.343-10.154C996.616,1754.7,994.734,1755.292,993.657,1755.812Z" transform="translate(-986.692 -1755.18)" fill="#70b3d6"/><path d="M1010.648,1818.112c0,1.675-2.2,3.033-4.91,3.033s-4.911-1.358-4.911-3.033,2.2-3.034,4.911-3.034S1010.648,1816.436,1010.648,1818.112Z" transform="translate(-997.925 -1802.782)" fill="#a3cceb"/><path d="M1013.016,1798.725a37.83,37.83,0,0,0-.941-10.178c-.268-1.042-.836-2.965-1.479-4.952-.385,6.523-3.685,16.394-9.967,18.292a44.029,44.029,0,0,0,8.772.058C1012.2,1801.573,1012.86,1801.147,1013.016,1798.725Z" transform="translate(-997.767 -1777.761)" fill="#70b3d6" opacity="0.3" style="mix-blend-mode:multiply;isolation:isolate"/><g transform="translate(1.379 9.358)" opacity="0.3" style="mix-blend-mode:screen;isolation:isolate"><path d="M1001.93,1801.574c.415.779-.1,1.5-.968,1.961s-1.753.486-2.168-.294a1.785,1.785,0,0,1,3.136-1.667Z" transform="translate(-997.553 -1800.767)" fill="#70b3d6"/><path d="M995.038,1817.228a.816.816,0,1,1-.771-.857A.815.815,0,0,1,995.038,1817.228Z" transform="translate(-993.408 -1813.166)" fill="#70b3d6"/></g></g><path d="M973.839,1723.87c.265.558.241,2.46-.855,4.606-1.2,2.352-2.223,3.454-1.746,3.566.632.149,4.495-3.556,5.832-7.108A2.439,2.439,0,0,0,973.839,1723.87Z" transform="translate(-971.041 -1721.042)" fill="#f1f1f2"/><path d="M992.5,1718.386c.52-.334,3.362-1.412,3.547-2.1s-2.359-3.826-3.715-4.7-10.178-.409-12.128-.353v3.065a12.73,12.73,0,0,1,8.3,4.086C989.662,1718.925,992.058,1719.073,992.5,1718.386Z" transform="translate(-978.264 -1711.062)" fill="#f1f1f2"/><rect width="1.944" height="3.065" transform="translate(0 0.173)" fill="#db374b"/><rect width="4" height="2.365" transform="translate(10.24 7.324)" fill="#db374b"/><path d="M1028.167,1719.16c.172-.639-2.015-3.4-3.413-4.483.572,3.043.513,8.074-4.134,8.873v.074h4v-2.365C1025.139,1720.924,1027.981,1719.847,1028.167,1719.16Z" transform="translate(-1010.38 -1713.935)" fill="#b3cfe7" opacity="0.3" style="mix-blend-mode:multiply;isolation:isolate"/></g></g><g transform="translate(604.026 1167.727)"><path d="M1170.771,1514.021c-5.018,1.7-6.392,3.067-8.085,8.087-1.693-5.02-3.066-6.392-8.085-8.087,5.019-1.694,6.391-3.066,8.085-8.085C1164.38,1510.954,1165.753,1512.327,1170.771,1514.021Z" transform="translate(-1153.599 -1514.05)" fill="#ffd44d"/><path d="M1208.716,1477.934c-3.589,1.211-4.572,2.193-5.782,5.783-1.211-3.59-2.194-4.572-5.783-5.783,3.589-1.212,4.572-2.193,5.783-5.783C1204.144,1475.741,1205.127,1476.723,1208.716,1477.934Z" transform="translate(-1180.625 -1492.596)" fill="#ffd44d"/></g><g transform="translate(512.551 1201.86)"><g transform="translate(-0.001 7.637)"><path d="M1208.8,1698.255c0-3.367-.111-4.551-1.495-6.758-1.352-2.156-5.272-5.377-7.487-6.562-3.309-.933-6.72-.773-8.5,0-1.407,1.334-3.146,3.018-4.269,4.252s-1.179,2.133-1.179,4.49V1711.3c0,3.367.112,4.6,4.153,5.275s10.438,1.01,14.7,0,4.073-3.279,4.073-7.993S1208.8,1701.621,1208.8,1698.255Zm-2.451.857c-.007.364-.014.708-.014,1.017a1.347,1.347,0,1,1-2.694,0c0-.336.007-.693.014-1.07a12.884,12.884,0,0,0-.358-4.336,8.962,8.962,0,0,0-2.658-3.176,1.347,1.347,0,1,1,1.774-2.027,11.323,11.323,0,0,1,3.365,4.156A14.153,14.153,0,0,1,1206.35,1699.112Z" transform="translate(-1185.871 -1684.293)" fill="#ffd13d"/><path d="M1200.571,1750.056a2.249,2.249,0,0,0,1.638,2.067,40.072,40.072,0,0,0,12.009.118,2.417,2.417,0,0,0,1.819-2.063c.14-1.951.19-5.041-1.072-6.952-.787-1.192-2.245-2.294-2.819-4.027-.292-.882-.148-2.446-.484-3.312-.6-1.536-2.269-2.144-4.955-2.144-2.477,0-5.883.1-6.136,3.181S1200.459,1748.461,1200.571,1750.056Z" transform="translate(-1197.441 -1723.592)" fill="#ffad26"/><path d="M1227.056,1715.111c0-4.714,0-6.959,0-10.325s-.111-4.551-1.495-6.758a24.39,24.39,0,0,0-5.821-5.517c.629.775,4.191,4.372,4.416,8.009a15.535,15.535,0,0,1,.449,5.123c-.007.364-.014.708-.014,1.018a1.347,1.347,0,1,1-2.694,0c0-.336.007-.693.014-1.07a12.879,12.879,0,0,0-.358-4.336,8.961,8.961,0,0,0-2.658-3.176,1.347,1.347,0,0,1-.376-1.481c-.536,1.166.42,2.028,1,2.555.646.589,1.206,1.74,1.206,4.826,0,2.87,1.2,18.276-11.882,19.214,4.053.612,10.068.875,14.14-.089C1227.248,1722.094,1227.056,1719.825,1227.056,1715.111Z" transform="translate(-1204.128 -1690.824)" fill="#ffd13d" opacity="0.5" style="mix-blend-mode:multiply;isolation:isolate"/></g><g transform="translate(5.446 0.001)"><g transform="translate(2.22)"><path d="M1227.066,1647.095h-3.625a.218.218,0,0,0-.218.218v5.287h4.061v-5.287A.218.218,0,0,0,1227.066,1647.095Z" transform="translate(-1223.223 -1647.095)" fill="#fae3b0"/><path d="M1229.022,1654.23h-2.262a.218.218,0,0,0-.218.218v4.32h2.7v-4.32A.218.218,0,0,0,1229.022,1654.23Z" transform="translate(-1225.861 -1652.765)" fill="#fc5a40"/><path d="M1227.066,1647.095h-3.625a.218.218,0,0,0-.218.218v5.287h4.061v-5.287A.218.218,0,0,0,1227.066,1647.095Z" transform="translate(-1223.223 -1647.095)" fill="#fae3b0" opacity="0.2"/><g transform="translate(0.287 0.358)" opacity="0.8"><path d="M1225.686,1648.947c.288.2.235.551.01.871s-.534.488-.822.286a.711.711,0,0,1,.812-1.157Z" transform="translate(-1224.62 -1648.841)" fill="#fff"/><path d="M1225.518,1656.65a.325.325,0,1,1-.428-.165A.325.325,0,0,1,1225.518,1656.65Z" transform="translate(-1224.839 -1654.893)" fill="#fff"/></g><path d="M1227.5,1647.6a.145.145,0,0,0-.145-.144h-.221a4.356,4.356,0,0,1-3.548,4.189v1.169h3.913Z" transform="translate(-1223.509 -1647.38)" fill="#fae3b0" opacity="0.5" style="mix-blend-mode:multiply;isolation:isolate"/></g><path d="M1220.708,1670.374h-8.1a.2.2,0,0,0-.2.2v3.3h8.5v-3.3A.2.2,0,0,0,1220.708,1670.374Z" transform="translate(-1212.408 -1665.595)" fill="#fc5a40"/><path d="M1220.909,1671.1v-.529a.2.2,0,0,0-.2-.2h-.545c-.143,1.565-1.122,3.312-7.754,3.331v.168h8.5Z" transform="translate(-1212.408 -1665.595)" fill="#fc5a40" opacity="0.3" style="mix-blend-mode:multiply;isolation:isolate"/></g><g transform="translate(1.378 11.743)" opacity="0.5" style="mix-blend-mode:screen;isolation:isolate"><path d="M1200.742,1705.036c.692.894.2,1.916-.8,2.685s-2.107.992-2.8.1a2.286,2.286,0,0,1,3.6-2.783Z" transform="translate(-1195.898 -1704.292)" fill="#ffd13d"/><path d="M1194.672,1727.245a1.044,1.044,0,1,1-1.158-.915A1.044,1.044,0,0,1,1194.672,1727.245Z" transform="translate(-1192.591 -1721.801)" fill="#ffd13d"/></g></g><g transform="translate(492.454 1135.309)"><g transform="translate(14.079 0)"><path d="M1202.68,1124.151a6.61,6.61,0,1,1-6.609-6.61A6.609,6.609,0,0,1,1202.68,1124.151Z" transform="translate(-1189.461 -1117.541)" fill="#4294de"/><path d="M1203.189,1124.817a6.355,6.355,0,1,1-6.355-6.355A6.354,6.354,0,0,1,1203.189,1124.817Z" transform="translate(-1190.252 -1118.257)" fill="#2bc9fc"/><ellipse cx="6.199" cy="6.199" rx="6.199" ry="6.199" transform="translate(0.412 0.411)" fill="#c9ebff"/><path d="M1210.605,1151.467a7.016,7.016,0,0,1-1.5-.164,6.2,6.2,0,0,0,8.428-5.784c0-.161-.008-.32-.02-.478A6.927,6.927,0,0,1,1210.605,1151.467Z" transform="translate(-1204.724 -1138.909)" fill="#fff"/><path d="M1217.979,1143.558a6.913,6.913,0,0,1-1.469.343,6.2,6.2,0,0,0,6.029-8.254c-.053-.152-.113-.3-.177-.443A6.927,6.927,0,0,1,1217.979,1143.558Z" transform="translate(-1210.478 -1131.265)" fill="#fff"/><path d="M1203.31,1123.406a6.2,6.2,0,0,0-11.789,3.79A14.962,14.962,0,0,1,1203.31,1123.406Z" transform="translate(-1190.895 -1118.974)" fill="#c9ebff" style="mix-blend-mode:multiply;isolation:isolate"/><g transform="translate(1.81 1.925)"><path d="M1206.109,1127.006c.517.86-.025,1.708-.98,2.282s-1.958.656-2.475-.2a2.027,2.027,0,0,1,3.455-2.079Z" transform="translate(-1201.336 -1126.174)" fill="#fff"/><path d="M1199.428,1143.967a.926.926,0,1,1-.927-.926A.927.927,0,0,1,1199.428,1143.967Z" transform="translate(-1197.576 -1139.28)" fill="#fff"/></g></g><g transform="translate(0 25.017)"><path d="M1155.125,1237a6.552,6.552,0,0,0-6-2.374,12.321,12.321,0,1,0-18.772,12.234,7.193,7.193,0,0,0,10.839,5.208c.073.1.15.205.23.305a6.434,6.434,0,0,0,10.212-.267,5.758,5.758,0,1,0,4.879-10.035A6.537,6.537,0,0,0,1155.125,1237Z" transform="translate(-1126.324 -1229.724)" fill="#4294de"/><path d="M1159.878,1253.047a5.445,5.445,0,0,1-6.938-.08l-.258-.219-.2.274a6.122,6.122,0,0,1-9.714.255c-.07-.087-.142-.182-.22-.291l-.168-.236-.249.15a6.879,6.879,0,0,1-10.365-4.979l-.022-.162-.143-.075a7.221,7.221,0,0,1,5.313-13.343l.214.061.127-.182a7.219,7.219,0,0,1,12.678,1.618l.088.235.249-.034a6.2,6.2,0,0,1,5.715,2.26,6.266,6.266,0,0,1,1.32,4.829l-.043.294.29.059a5.444,5.444,0,0,1,2.325,9.568Z" transform="translate(-1127.428 -1230.827)" fill="#2bc9fc"/><path d="M1160.767,1254.019a5.288,5.288,0,0,1-6.738-.077l-.387-.328-.3.41a5.964,5.964,0,0,1-9.467.249c-.068-.085-.137-.178-.214-.283l-.253-.355-.373.225a6.722,6.722,0,0,1-10.129-4.867l-.032-.241-.216-.113a7.064,7.064,0,0,1,5.2-13.053l.322.09.19-.274a7.063,7.063,0,0,1,12.4,1.583l.132.353.374-.052a6.085,6.085,0,0,1,6.858,6.911l-.065.439.436.09a5.287,5.287,0,0,1,2.259,9.291Z" transform="translate(-1128.318 -1231.799)" fill="#c9ebff"/><path d="M1177.475,1264.81a3.931,3.931,0,0,1-5.009-.057l-.288-.244-.221.306a4.434,4.434,0,0,1-7.036.184c-.051-.062-.1-.132-.159-.21l-.188-.264-.277.167a5,5,0,0,1-7.529-3.617l-.023-.18-.16-.084a5.206,5.206,0,0,1-1.64-1.347,5.25,5.25,0,0,1,5.5-8.355l.239.066.142-.2a5.25,5.25,0,0,1,9.22,1.177l.1.262.277-.038a4.523,4.523,0,0,1,5.1,5.137l-.048.327.323.066a3.93,3.93,0,0,1,1.679,6.907Z" transform="translate(-1147.657 -1244.497)" fill="#c9ebff" opacity="0.5" style="mix-blend-mode:screen;isolation:isolate"/><path d="M1134.344,1252.326a6.676,6.676,0,0,0,.65.7,5.569,5.569,0,0,1,4.575-5.454,6.741,6.741,0,0,1,10.066-5.841,5.56,5.56,0,0,1,8.356.008,6.075,6.075,0,0,0-6.711-4.449l-.374.052-.132-.353a7.064,7.064,0,0,0-12.4-1.583l-.19.274-.322-.09a7.065,7.065,0,0,0-5.2,13.053l.216.113.032.241A6.722,6.722,0,0,0,1134.344,1252.326Z" transform="translate(-1128.318 -1231.799)" fill="#c9ebff" style="mix-blend-mode:multiply;isolation:isolate"/><g transform="translate(1.972 5.136)"><path d="M1150.45,1254.324c.618,1.392-.36,2.568-1.9,3.253s-3.072.62-3.69-.771a3.077,3.077,0,0,1,5.594-2.482Z" transform="translate(-1142.528 -1252.755)" fill="#fff"/><path d="M1137.969,1277.859a1.406,1.406,0,1,1-1.221-1.568A1.4,1.4,0,0,1,1137.969,1277.859Z" transform="translate(-1135.169 -1271.034)" fill="#fff"/></g><g transform="translate(30.565 13.304)"><path d="M1264.493,1301.889a6.021,6.021,0,0,1-1.1.705,5.366,5.366,0,0,0,2.528-8.479c-.088-.108-.18-.211-.273-.311A6,6,0,0,1,1264.493,1301.889Z" transform="translate(-1263.394 -1292.82)" fill="#fff"/><path d="M1267.011,1297.4a6.069,6.069,0,0,1-.8,1.031,5.367,5.367,0,0,0-.431-8.838c-.119-.074-.239-.139-.361-.2A6,6,0,0,1,1267.011,1297.4Z" transform="translate(-1264.966 -1289.386)" fill="#fff"/></g></g><g transform="translate(29.338 16.59)"><path d="M1267.406,1196.693a4.757,4.757,0,1,1-4.757-4.757A4.757,4.757,0,0,1,1267.406,1196.693Z" transform="translate(-1257.892 -1191.936)" fill="#4294de"/><path d="M1267.771,1197.173a4.573,4.573,0,1,1-4.573-4.573A4.573,4.573,0,0,1,1267.771,1197.173Z" transform="translate(-1258.462 -1192.452)" fill="#2bc9fc"/><path d="M1268.142,1197.724a4.461,4.461,0,1,1-4.461-4.461A4.461,4.461,0,0,1,1268.142,1197.724Z" transform="translate(-1258.925 -1192.967)" fill="#c9ebff"/><path d="M1273.109,1216.352a5,5,0,0,1-1.08-.118,4.46,4.46,0,0,0,6.066-4.162c0-.115-.006-.23-.014-.344A4.986,4.986,0,0,1,1273.109,1216.352Z" transform="translate(-1268.876 -1207.315)" fill="#fff"/><path d="M1278.416,1210.659a4.983,4.983,0,0,1-1.058.247,4.46,4.46,0,0,0,4.34-5.94c-.039-.109-.082-.216-.127-.319A4.985,4.985,0,0,1,1278.416,1210.659Z" transform="translate(-1273.017 -1201.812)" fill="#fff"/><path d="M1267.859,1196.157a4.461,4.461,0,0,0-8.485,2.728A10.767,10.767,0,0,1,1267.859,1196.157Z" transform="translate(-1258.925 -1192.967)" fill="#c9ebff" style="mix-blend-mode:multiply;isolation:isolate"/><g transform="translate(1.302 1.386)"><path d="M1269.873,1198.748c.372.619-.019,1.23-.7,1.643s-1.41.472-1.782-.147a1.459,1.459,0,0,1,2.487-1.5Z" transform="translate(-1266.439 -1198.149)" fill="#fff"/><path d="M1265.066,1210.957a.666.666,0,1,1-.666-.666A.666.666,0,0,1,1265.066,1210.957Z" transform="translate(-1263.733 -1207.583)" fill="#fff"/></g></g></g></g></g></svg>