<svg xmlns="http://www.w3.org/2000/svg" xmlns:xlink="http://www.w3.org/1999/xlink" width="200" height="120" viewBox="0 0 200 120">
  <defs>
    <linearGradient id="linear-gradient" x1="0.5" y1="0.917" x2="0.5" y2="0.106" gradientUnits="objectBoundingBox">
      <stop offset="0" stop-color="#96663d"/>
      <stop offset="0.253" stop-color="#8f6039"/>
      <stop offset="0.608" stop-color="#7d512e"/>
      <stop offset="1" stop-color="#613a1e"/>
    </linearGradient>
    <clipPath id="clip-path">
      <rect id="長方形_26031" data-name="長方形 26031" width="55.775" height="47.061" fill="none"/>
    </clipPath>
  </defs>
  <g id="sample_obj15" transform="translate(-176 -3923)">
    <rect id="長方形_27055" data-name="長方形 27055" width="200" height="120" rx="10" transform="translate(176 3923)" fill="#dcdcdc" opacity="0"/>
    <g id="グループ_3905" data-name="グループ 3905" transform="translate(203.316 3934.649)">
      <g id="グループ_1033" data-name="グループ 1033" transform="translate(0 14.132)">
        <rect id="長方形_26443" data-name="長方形 26443" width="44.788" height="3.318" transform="translate(3.126 74.3)" fill="#e5dfdc"/>
        <rect id="長方形_26444" data-name="長方形 26444" width="50.639" height="71.583" transform="translate(0 4.907)" fill="#d0ebeb"/>
        <path id="パス_62175" data-name="パス 62175" d="M2584.8,1405.968h-50.639l3.613-4.907H2580.7Z" transform="translate(-2534.162 -1401.06)" fill="#dff4f4"/>
      </g>
      <g id="グループ_1034" data-name="グループ 1034" transform="translate(5.759 23.42)">
        <path id="パス_62176" data-name="パス 62176" d="M2579.635,1481.966a19.56,19.56,0,1,1,19.561-19.561A19.583,19.583,0,0,1,2579.635,1481.966Z" transform="translate(-2560.074 -1442.845)" fill="#403d42"/>
      </g>
      <rect id="長方形_26445" data-name="長方形 26445" width="12.165" height="17.417" transform="translate(34.3 69.633)" fill="#d9d6c9"/>
      <rect id="長方形_26446" data-name="長方形 26446" width="49.954" height="1.343" transform="translate(0.343 66.769)" fill="#d9d6c9"/>
      <rect id="長方形_26447" data-name="長方形 26447" width="9.331" height="3.94" transform="translate(38.447 21.182)" fill="#7e7e87"/>
      <g id="グループ_1035" data-name="グループ 1035" transform="translate(7.715 25.376)">
        <path id="パス_62177" data-name="パス 62177" d="M2608.049,1469.249a17.6,17.6,0,0,0-34.076-6.207l22.678,22.678A17.632,17.632,0,0,0,2608.049,1469.249Z" transform="translate(-2572.839 -1451.645)" fill="#7e7e87"/>
        <path id="パス_62178" data-name="パス 62178" d="M2586.478,1526.735a17.5,17.5,0,0,0,6.207-1.134l-22.678-22.678a17.6,17.6,0,0,0,16.471,23.811Z" transform="translate(-2568.874 -1491.526)" fill="#93939e"/>
      </g>
      <rect id="長方形_26448" data-name="長方形 26448" width="4.147" height="7.188" transform="translate(41.764 39.386)" fill="#bcbcc9"/>
      <g id="グループ_1041" data-name="グループ 1041" transform="translate(8.505 0)">
        <g id="グループ_1040" data-name="グループ 1040">
          <rect id="長方形_26449" data-name="長方形 26449" width="28.294" height="16.001" fill="#861d0a"/>
          <rect id="長方形_26450" data-name="長方形 26450" width="16.977" height="10.342" transform="translate(3.221 3.708)" fill="#403d42"/>
          <rect id="長方形_26451" data-name="長方形 26451" width="0.488" height="12.147" transform="translate(21.807 1.903)" fill="#e5dfdc"/>
          <rect id="長方形_26452" data-name="長方形 26452" width="3.415" height="1.91" transform="translate(23.624 1.903)" fill="#7e7e87"/>
          <g id="グループ_1036" data-name="グループ 1036" transform="translate(23.612 8.123)">
            <rect id="長方形_26453" data-name="長方形 26453" width="1.524" height="0.852" fill="#7e7e87"/>
            <rect id="長方形_26454" data-name="長方形 26454" width="1.524" height="0.852" transform="translate(1.903)" fill="#7e7e87"/>
          </g>
          <g id="グループ_1037" data-name="グループ 1037" transform="translate(23.612 9.294)">
            <rect id="長方形_26455" data-name="長方形 26455" width="1.524" height="0.852" fill="#7e7e87"/>
            <rect id="長方形_26456" data-name="長方形 26456" width="1.524" height="0.852" transform="translate(1.903)" fill="#7e7e87"/>
          </g>
          <g id="グループ_1038" data-name="グループ 1038" transform="translate(23.612 10.465)">
            <rect id="長方形_26457" data-name="長方形 26457" width="1.524" height="0.852" fill="#7e7e87"/>
            <rect id="長方形_26458" data-name="長方形 26458" width="1.524" height="0.852" transform="translate(1.903)" fill="#7e7e87"/>
          </g>
          <g id="グループ_1039" data-name="グループ 1039" transform="translate(23.612 11.635)">
            <rect id="長方形_26459" data-name="長方形 26459" width="1.524" height="0.852" fill="#7e7e87"/>
            <rect id="長方形_26460" data-name="長方形 26460" width="1.524" height="0.852" transform="translate(1.903)" fill="#7e7e87"/>
          </g>
          <path id="パス_62179" data-name="パス 62179" d="M2682.5,1359.645a1.1,1.1,0,1,1-1.1,1.1A1.1,1.1,0,0,1,2682.5,1359.645Z" transform="translate(-2657.185 -1354.718)" fill="#7e7e87"/>
          <path id="パス_62180" data-name="パス 62180" d="M2598.089,1344.781h-18.22a.415.415,0,0,1,0-.83h18.22a.415.415,0,1,1,0,.83Z" transform="translate(-2577.892 -1342.512)" fill="#bcbcc9"/>
        </g>
      </g>
    </g>
    <g id="グループ_3906" data-name="グループ 3906" transform="translate(296.504 3931.967)">
      <rect id="長方形_26395" data-name="長方形 26395" width="48.18" height="79.495" transform="translate(0)" fill="#94663f"/>
      <rect id="長方形_26396" data-name="長方形 26396" width="49.143" height="45.289" transform="translate(46.734 1.445) rotate(90)" fill="#4d2a13"/>
      <rect id="長方形_26397" data-name="長方形 26397" width="26.017" height="45.289" transform="translate(46.734 52.033) rotate(90)" fill="#626262"/>
      <rect id="長方形_26398" data-name="長方形 26398" width="25.824" height="45.096" transform="translate(46.638 52.13) rotate(90)" fill="#4d2a13"/>
      <rect id="長方形_26399" data-name="長方形 26399" width="25.824" height="0.096" transform="translate(24.138 52.13) rotate(90)" fill="#626262"/>
      <rect id="長方形_26400" data-name="長方形 26400" width="1.445" height="45.289" transform="translate(46.734 34.207) rotate(90)" fill="#94663f"/>
      <rect id="長方形_26401" data-name="長方形 26401" width="1.445" height="45.289" transform="translate(46.734 17.826) rotate(90)" fill="#94663f"/>
      <path id="パス_62131" data-name="パス 62131" d="M1379.249,1686.926v7.227H1378.2l-1.051-4.818H1335.1l-1.051,4.818H1333v-7.227Z" transform="translate(-1332.033 -1607.431)" fill="url(#linear-gradient)"/>
      <path id="パス_62132" data-name="パス 62132" d="M1442.7,1548.613l-.482-.482,1.446-1.445.482.482v1.445Z" transform="translate(-1421.065 -1493.111)" fill="#b0afaf" style="mix-blend-mode: multiply;isolation: isolate"/>
      <rect id="長方形_26402" data-name="長方形 26402" width="1.445" height="1.445" transform="translate(22.596 53.575) rotate(90)" fill="#181919"/>
      <path id="パス_62133" data-name="パス 62133" d="M1466.679,1548.613l-.482-.482,1.445-1.445.482.482v1.445Z" transform="translate(-1440.614 -1493.111)" fill="#b0afaf" style="mix-blend-mode: multiply;isolation: isolate"/>
      <rect id="長方形_26403" data-name="長方形 26403" width="1.445" height="1.445" transform="translate(27.028 53.575) rotate(90)" fill="#181919"/>
    </g>
    <g id="グループ_3907" data-name="グループ 3907" transform="translate(262.211 3945.142)">
      <path id="パス_63840" data-name="パス 63840" d="M98.907,597.711s0-1.174-.335-1.51c-2.492-2.336-16.26-2.719-18.215-2.762v-.927H76.164v.922s-15.765.252-18.448,2.767c-.336.336-.336,1.51-.336,1.51s-.783.308-.727,1.705c.056,1.118.615,1.789,2.152,1.845,1.649.028,1.705-1.509,1.705-2.1a2.675,2.675,0,0,0-.458-1.491c-.052-.181-.248-.988.347-1.137a104.9,104.9,0,0,1,12.411.168s-7.882,5.534-9.559,8.721a8.264,8.264,0,0,0-.178,2.7,2.535,2.535,0,0,0-.568,2.046c.056,1.221.664,1.985,2.2,2.046a1.876,1.876,0,0,0,1.939-2.046c0-.641-.057-1.685-.672-2.021h0a5.566,5.566,0,0,1,.382-2.362c.393-.64,8.53-5.886,10.482-7.139v.6a1.309,1.309,0,0,0,1.309,1.309h.234a1.309,1.309,0,0,0,1.309-1.309V598.8c2.293,1.474,9.869,6.372,10.249,6.988a5.567,5.567,0,0,1,.382,2.362c-.615.336-.673,1.38-.673,2.021a1.876,1.876,0,0,0,1.939,2.046c1.537-.061,2.145-.825,2.2-2.046a2.537,2.537,0,0,0-.568-2.046h0a8.274,8.274,0,0,0-.178-2.7c-1.677-3.186-9.56-8.721-9.56-8.721a104.9,104.9,0,0,1,12.411-.168c.595.148.4.956.347,1.137a2.678,2.678,0,0,0-.458,1.491c0,.587.056,2.125,1.705,2.1,1.537-.056,2.1-.727,2.152-1.845C99.69,598.019,98.907,597.711,98.907,597.711Z" transform="translate(-52.969 -530.962)" fill="#262626"/>
      <g id="グループ_2037" data-name="グループ 2037" transform="translate(0 0.001)">
        <path id="パス_63841" data-name="パス 63841" d="M46.729,544.622a21.164,21.164,0,0,0,5.964,10.406l1.317-2.348s-.931-6.876-.654-9.14C53.357,543.54,46.76,544.622,46.729,544.622Z" transform="translate(-46.703 -500.032)" fill="#242424"/>
        <path id="パス_63842" data-name="パス 63842" d="M169.927,544.621a21.163,21.163,0,0,1-5.965,10.407l-1.317-2.348s.931-6.876.654-9.14C163.3,543.54,169.9,544.621,169.927,544.621Z" transform="translate(-119.913 -500.032)" fill="#242424"/>
        <g id="グループ_2032" data-name="グループ 2032" transform="translate(8.11 18.759)">
          <path id="パス_63843" data-name="パス 63843" d="M69.816,476.365l.02.024s-1.677,20.293-1.007,27.337h11.36c-.376-17.628-1.407-21.745-3.98-24.318C74.474,477.673,71.618,476.78,69.816,476.365Z" transform="translate(-68.671 -476.365)" fill="#3d3d3d"/>
          <path id="パス_63844" data-name="パス 63844" d="M139.686,476.365c-1.8.415-4.658,1.308-6.393,3.043-2.573,2.573-3.6,6.69-3.98,24.318h11.359c.671-7.044-1.006-27.337-1.006-27.337Z" transform="translate(-106.971 -476.365)" fill="#3d3d3d"/>
        </g>
        <g id="グループ_2033" data-name="グループ 2033" transform="translate(8.268 2.348)">
          <path id="パス_63845" data-name="パス 63845" d="M97.18,431.819H74.565a5.464,5.464,0,0,0-5.464,5.464v8.959a4.152,4.152,0,0,0,.986,1.988,14.872,14.872,0,0,1,5.935,2.629c.47-4.042,4.7-7.205,9.85-7.205s9.38,3.163,9.85,7.205a14.873,14.873,0,0,1,5.935-2.629,4.156,4.156,0,0,0,.986-1.988v-8.959A5.464,5.464,0,0,0,97.18,431.819Z" transform="translate(-69.101 -431.819)" fill="#3d3d3d"/>
          <path id="パス_63846" data-name="パス 63846" d="M97.737,463.944c-5.15,0-9.38,3.164-9.85,7.205.159.133.314.27.458.414,1.253,1.253,2.14,2.873,2.764,6.241a11.744,11.744,0,0,0,13.255,0c.624-3.368,1.511-4.988,2.765-6.241.144-.144.3-.281.458-.414C107.117,467.108,102.888,463.944,97.737,463.944Z" transform="translate(-80.966 -452.109)" fill="#454545"/>
          <path id="パス_63847" data-name="パス 63847" d="M96.634,501.566c.657,3.547,1.023,9.034,1.216,18.077h10.824c.193-9.042.558-14.529,1.215-18.077a11.744,11.744,0,0,1-13.255,0Z" transform="translate(-86.49 -475.87)" fill="#242424"/>
        </g>
        <g id="グループ_2034" data-name="グループ 2034" transform="translate(4.393 42.746)">
          <path id="パス_63848" data-name="パス 63848" d="M69.419,549.627c1.509-1.845,4.193-3.355,1.845-6.541-1.147-1.556-3.613-1.752-5.837-1.546a13.483,13.483,0,0,0-6.658,9.679c-.671,3.522.168,9.056,7.883,9.056h.916C66.451,555.748,68.068,551.278,69.419,549.627Z" transform="translate(-58.584 -541.472)" fill="#3d3d3d"/>
          <path id="パス_63849" data-name="パス 63849" d="M147.155,551.22a13.481,13.481,0,0,0-6.658-9.679c-2.224-.207-4.69-.011-5.837,1.546-2.348,3.186.336,4.7,1.845,6.541,1.351,1.651,2.968,6.122,1.851,10.65h.916C146.987,560.276,147.826,554.742,147.155,551.22Z" transform="translate(-106.048 -541.472)" fill="#3d3d3d"/>
        </g>
        <path id="パス_63850" data-name="パス 63850" d="M85.519,558.857c-.452.482-.937.951-1.34,1.442-1.351,1.651-2.968,6.122-1.851,10.649h23.325c1.117-4.527-.5-9-1.851-10.649-.472-.577-1.058-1.12-1.569-1.692-2.212-.154-4.523-.237-6.9-.237A96.693,96.693,0,0,0,85.519,558.857Z" transform="translate(-68.951 -509.399)" fill="#242424"/>
        <g id="グループ_2035" data-name="グループ 2035" transform="translate(11.236 40.245)">
          <path id="パス_63851" data-name="パス 63851" d="M100.1,550.277a39.249,39.249,0,0,1-7.157-.207c.418,1.473-.374,2.54-1.315,3.544a96.657,96.657,0,0,1,9.813-.486c2.377,0,4.688.082,6.9.237a3.357,3.357,0,0,1-1.085-3.295A39.254,39.254,0,0,1,100.1,550.277Z" transform="translate(-86.297 -544.401)" fill="#454545"/>
          <path id="パス_63852" data-name="パス 63852" d="M104.764,537.252c-4.941-2.816-11.119-2.563-13.8-2.563s-8.862-.253-13.8,2.563c2.224-.207,4.69-.01,5.837,1.546a4.914,4.914,0,0,1,.81,1.554,39.251,39.251,0,0,0,7.157.207,39.255,39.255,0,0,0,7.157-.207,4.9,4.9,0,0,1,.809-1.554C100.074,537.242,102.54,537.046,104.764,537.252Z" transform="translate(-77.157 -534.683)" fill="#303030"/>
        </g>
        <path id="パス_63853" data-name="パス 63853" d="M55.1,520.872a5.375,5.375,0,0,0-6.209,2.612c-2.07,3.857-3.2,7.715-1.129,7.715h3.2c1.505,0,1.882-.336,2.258-1.509s-.331-5.549,1.9-6.8C55.118,522.89,55.1,520.944,55.1,520.872Z" transform="translate(-46.659 -485.595)" fill="#3d3d3d"/>
        <path id="パス_63854" data-name="パス 63854" d="M159.542,520.872a5.375,5.375,0,0,1,6.209,2.612c2.07,3.857,3.2,7.715,1.129,7.715h-3.2c-1.505,0-1.882-.336-2.258-1.509s.331-5.549-1.9-6.8C159.52,522.89,159.542,520.944,159.542,520.872Z" transform="translate(-117.939 -485.595)" fill="#3d3d3d"/>
        <g id="グループ_2036" data-name="グループ 2036" transform="translate(15.589)">
          <path id="パス_63855" data-name="パス 63855" d="M98.422,442.553h2.013c5.2,0,5.87-6.206,7.044-10.734s-.5-6.373-2.012-6.373H91.378c-1.509,0-3.186,1.845-2.013,6.373s1.845,10.734,7.044,10.734Z" transform="translate(-88.971 -425.446)" fill="#242424"/>
        </g>
      </g>
    </g>
    <g id="グループ_3910" data-name="グループ 3910" transform="translate(262.211 3994.974)">
      <g id="グループ_755" data-name="グループ 755" transform="translate(0 0)" clip-path="url(#clip-path)">
        <path id="パス_61371" data-name="パス 61371" d="M.568,33.549C-.586,34.991.08,35.91,2.235,36.4.869,36.879.626,37.413,1.4,38c-1.182.7-1.04,1.323,0,1.9-.735.519-1.519,1.033,0,1.788-.883.5-1.342,1.038,0,1.713-1.355.95-1.178,1.474.834,1.49-.9.226-1.576.526-.834,1.28-1.868.439-1.847.982,0,1.625-2.3,2.3-1.588,3.189.834,3.278-1.208.815-1.382,1.69-.834,2.608C.218,54.7-.11,55.514,2.235,55.7c-1.422,1.536-1.3,2.608.889,3.054-.985.316-1.394.737-.4,1.416-1.8-.01-1.831,1.154.4,1.527L19.615,63.4,38.047,66.8l7.437-6.9,7.922-4.723c2.06-1.584,1.605-2.053,0-2.012,2.791-.8,3.151-1.57.888-2.309,1.453-1.131,1.142-1.808-.727-2.086,1.556-1.47,1.648-2.361.081-2.594,3.1-1.824,2.614-2.073-.4-1.205l1.05-1.788c1.252-1.481.922-2.572-1.858-3.054,2.376-.527,2.369-1.443,1.293-2.533,1.807-.833,1.183-1.68-.647-2.533,1.721-.211,2.394-.638.889-1.511a3.66,3.66,0,0,0,.322-4.122Z" transform="translate(0 -19.737)" fill="#ccc7c2"/>
        <path id="パス_61372" data-name="パス 61372" d="M1.726,26.855l13.792-2.281c.827-1.823,4.848-3.71,7.6-5.128,8.322,3.363,19.268,4.305,32.337,3.287L48.177,29.36l-11.4,2.785-16.41-.477S8.2,28.141,1.726,26.855" transform="translate(-1.158 -13.043)" fill="#edeceb"/>
        <path id="パス_61373" data-name="パス 61373" d="M59.62,102.237a1.989,1.989,0,0,1-.465.291c-.155.088-.352.186-.578.315l-.778.449a38.688,38.688,0,0,0-4.684,3.32c-1.894,1.532-4.036,3.513-6.462,5.668l-.925.813-.472.412-.11.1-.058.05c-.01.006-.018.021-.03.02l-.037-.006-.249-.042-.306-.051-2.5-.419-5.264-.872c-7.213-1.191-13.761-2.123-18.518-2.635-2.377-.265-4.306-.418-5.64-.535-.666-.053-1.185-.091-1.536-.127a1.874,1.874,0,0,1-.535-.083,1.881,1.881,0,0,1,.539-.035c.353,0,.873,0,1.543.016,1.339.047,3.277.137,5.665.349,4.777.406,11.349,1.275,18.566,2.467l5.266.884,2.5.432.306.053.056.01s0,0,.012-.009l.474-.406.928-.8c2.437-2.126,4.614-4.081,6.553-5.583a32.865,32.865,0,0,1,4.819-3.19l.807-.4c.235-.113.44-.195.6-.266a1.9,1.9,0,0,1,.512-.183" transform="translate(-7.022 -68.571)" fill="#a09a95"/>
        <path id="パス_61374" data-name="パス 61374" d="M60.429,96.528a8.015,8.015,0,0,1-1.186.742c-.78.458-1.925,1.107-3.348,1.953s-3.122,1.89-4.963,3.2c-.921.653-1.868,1.386-2.825,2.2-.481.4-.955.836-1.433,1.284-.234.229-.475.456-.712.693l-.809.837-2.065-.463-1.988-.411-2.046-.39-2.1-.366c-7.256-1.2-13.894-1.762-18.7-2.088-1.2-.087-2.29-.143-3.245-.206l-2.452-.141c-.673-.037-1.2-.069-1.55-.1a1.907,1.907,0,0,1-.54-.075,1.922,1.922,0,0,1,.542-.044c.355-.009.879-.013,1.554-.012s1.5.02,2.457.04,2.048.059,3.253.12a161.318,161.318,0,0,1,18.766,1.921l2.105.369,2.054.4,2,.422,1.789.413.616-.627c.242-.239.488-.468.728-.7.489-.45.975-.885,1.466-1.288.978-.811,1.945-1.539,2.884-2.183,1.877-1.291,3.608-2.3,5.055-3.109s2.62-1.406,3.426-1.812a7.7,7.7,0,0,1,1.266-.575" transform="translate(-7.022 -64.742)" fill="#756f6b"/>
        <path id="パス_61375" data-name="パス 61375" d="M58.946,40.986c.012.016-.125.156-.4.406s-.679.612-1.206,1.073l-1.93,1.668c-.771.656-13.039,4.63-13.039,4.63C30.418,49.833,12.383,46.114,8.26,44.148c12.126,4.1,33.851,4.131,33.548,3.731,0,0,12.653-3.4,13.41-4.008l1.989-1.588c.548-.433.977-.765,1.272-.985a2.055,2.055,0,0,1,.467-.312" transform="translate(-5.54 -27.489)" fill="#756f6b"/>
        <path id="パス_61376" data-name="パス 61376" d="M43.761,103.922,9.243,102.811l34.518,2.649,8.811-5.812Z" transform="translate(-6.199 -66.836)" fill="#a09a95"/>
        <path id="パス_61377" data-name="パス 61377" d="M8.26,102.244l22.959,1.2,11.156-.6Z" transform="translate(-5.54 -68.577)" fill="#756f6b"/>
        <path id="パス_61378" data-name="パス 61378" d="M.652,87.758C-.68,89.444.133,90.125,2.237,90.2a3.808,3.808,0,0,0-.552.445H36.028Z" transform="translate(-0.002 -58.861)" fill="#a09a95"/>
        <path id="パス_61379" data-name="パス 61379" d="M130.511,69.7l-17.423,8.837L129.145,71.9l1-1.7a4.565,4.565,0,0,0,.367-.494" transform="translate(-75.85 -46.748)" fill="#756f6b"/>
        <path id="パス_61380" data-name="パス 61380" d="M4.256,67.971,38.88,68.9l16.411-6.979L39.285,70.43Z" transform="translate(-2.855 -41.533)" fill="#a09a95"/>
        <path id="パス_61381" data-name="パス 61381" d="M4.256,71.877,38.476,74.1,7.671,73.424Z" transform="translate(-2.855 -48.209)" fill="#756f6b"/>
        <path id="パス_61382" data-name="パス 61382" d="M5.315,53.757,21.578,56.15,40.4,57.688l16.573-6.966L40.4,58.115,21.578,56.971l-15.294-2Z" transform="translate(-3.565 -34.021)" fill="#a09a95"/>
        <path id="パス_61383" data-name="パス 61383" d="M56.489,63.128a.409.409,0,0,1-.4-.356A88.57,88.57,0,0,1,55.687,37.6a.423.423,0,0,1,.229-.328l18.027-8.854a.393.393,0,0,1,.534.206.436.436,0,0,1-.2.565L56.455,37.949a87.729,87.729,0,0,0,.432,24.684.423.423,0,0,1-.331.489.379.379,0,0,1-.066.006" transform="translate(-36.874 -19.036)" fill="#93653b"/>
        <path id="パス_61384" data-name="パス 61384" d="M73.915,63.209a.414.414,0,0,1-.4-.407,101.931,101.931,0,0,1,1.445-23.466A165.7,165.7,0,0,1,42.7,34.566a.427.427,0,0,1-.294-.515.4.4,0,0,1,.487-.311,165.677,165.677,0,0,0,32.584,4.774.4.4,0,0,1,.3.168.443.443,0,0,1,.072.349,99.779,99.779,0,0,0-1.527,23.735.417.417,0,0,1-.385.443h-.017" transform="translate(-28.432 -22.622)" fill="#93653b"/>
        <path id="パス_61385" data-name="パス 61385" d="M74.02,17.2l-.041,0a.394.394,0,0,1-.221-.1A11.168,11.168,0,0,1,70.393,6.746a2.009,2.009,0,0,1,.79-1.4c.821-.495,1.733.144,2.313.906,1.988,2.611,2.073,5.478,1.347,8.861,1.454-1.694,3.067-3.29,4.638-4.843a63.979,63.979,0,0,0,5.7-6.15.388.388,0,0,1,.566-.061.443.443,0,0,1,.057.6,64.671,64.671,0,0,1-5.772,6.232,63.936,63.936,0,0,0-5.7,6.15h0l-.01.012a.394.394,0,0,1-.246.139.346.346,0,0,1-.056,0M71.8,6.028a.418.418,0,0,0-.22.06,1.306,1.306,0,0,0-.4.838A10.333,10.333,0,0,0,73.806,16c1.241-4.963.526-7.289-.936-9.21-.238-.313-.689-.76-1.068-.76" transform="translate(-47.071 -2.66)" fill="#93653b"/>
        <path id="パス_61386" data-name="パス 61386" d="M61.2,14.449a14.269,14.269,0,0,1-3.64-.692c-1.162-.333-3.987-1.234-5.118-2.423-.787-.826-1.013-1.713-.6-2.374.247-.4.8-.82,2.034-.555a14.218,14.218,0,0,1,7.824,4.814A103.079,103.079,0,0,0,66.154.324a.4.4,0,0,1,.488-.311.428.428,0,0,1,.293.515,90.74,90.74,0,0,1-4.824,13.613.421.421,0,0,1-.109.143.391.391,0,0,1-.138.076,1.913,1.913,0,0,1-.666.089M53.152,9.173a.719.719,0,0,0-.642.253c-.2.328.1.891.5,1.3,1.406,1.477,6.153,2.678,7.921,2.86a13.393,13.393,0,0,0-7.219-4.352,2.747,2.747,0,0,0-.557-.066" transform="translate(-34.633 0)" fill="#93653b"/>
        <path id="パス_61387" data-name="パス 61387" d="M86.589,40.148,81.278,35.02l-20.2,7.12Z" transform="translate(-40.967 -23.489)" fill="#ccc7c2"/>
      </g>
    </g>
  </g>
</svg>
