<svg xmlns="http://www.w3.org/2000/svg" width="200" height="120" viewBox="0 0 200 120">
  <g id="sample_obj09" transform="translate(-176 -3923)">
    <rect id="長方形_27055" data-name="長方形 27055" width="200" height="120" rx="10" transform="translate(176 3923)" fill="#dcdcdc" opacity="0"/>
    <g id="グループ_4637" data-name="グループ 4637" transform="translate(207.587 3932.973)">
      <g id="グループ_4601" data-name="グループ 4601" transform="translate(56.778 5.403)">
        <g id="グループ_4596" data-name="グループ 4596" transform="translate(0 11.035)">
          <path id="パス_71057" data-name="パス 71057" d="M603.314,181.789c-1.967-.255-10.724.751-14.391,2.307s-9.99,6.714-11.24,8.47-2.982,9.631-3.9,10.814-4.072,4.852-4.917,6.486.031,5.06-.544,8.693a65.812,65.812,0,0,1-1.631,7.832c-.259.6-4.266,3.2-7.31,4.3,4.822,2.186,9.409,5.745,12.808,6.9s16.373,6.181,24.727,7.4,19.121-1.284,25.073-1.308,11.027-1.889,13.441-1.639c-2.571-2.491-4.316-3.939-5.346-5.689s-1.605-1.29-1.608-4.415a18.623,18.623,0,0,1,.679-5.312c.55-2.726-.253-5.47-1-8.591s.034-6.89-.5-9.5-2.01-8.307-3.408-10.527-4.933-5.7-7.559-8.109A44.307,44.307,0,0,0,603.314,181.789Z" transform="translate(-559.382 -181.75)" fill="#ccccd1"/>
          <path id="パス_71058" data-name="パス 71058" d="M607.488,248.03c-.87-.055-1.707-.14-2.486-.253-6.94-1.01-17.286-4.737-22.258-6.528-1.026-.37-1.836-.661-2.4-.852a36.475,36.475,0,0,1-6.15-3.243c-1.866-1.123-3.788-2.279-5.786-3.251,2.829-1.2,6.355-3.444,6.675-4.177a64.386,64.386,0,0,0,1.658-7.928,25.791,25.791,0,0,0,.183-4.855,8.883,8.883,0,0,1,.321-3.718,44.991,44.991,0,0,1,3.882-5.191c.415-.507.772-.945,1-1.234a23.122,23.122,0,0,0,1.758-4.881,30.492,30.492,0,0,1,2.15-5.946c1.166-1.639,7.406-6.78,11.072-8.335,3.434-1.457,11.563-2.45,13.945-2.3q.106.006.2.017a43.522,43.522,0,0,1,13.205,8.013c1.737,1.6,5.944,5.571,7.491,8.028,1.385,2.2,2.858,7.953,3.354,10.395a19.461,19.461,0,0,1,.169,4.068,21.58,21.58,0,0,0,.331,5.447q.111.465.223.92c.672,2.754,1.253,5.132.775,7.5-.037.182-.084.371-.138.59a17.567,17.567,0,0,0-.549,4.8c0,2.3.31,2.79.949,3.6a8.246,8.246,0,0,1,.715,1.019,21.5,21.5,0,0,0,3.907,4.335l.791.752a32.749,32.749,0,0,0-3.72.585,46.745,46.745,0,0,1-8.733,1.06,77.827,77.827,0,0,0-7.933.694,84.067,84.067,0,0,1-14.594.871Z" transform="translate(-567.411 -184.929)" fill="#e5e5eb"/>
          <path id="パス_71059" data-name="パス 71059" d="M749.655,285.724c-7.107,2.529-14.093,5.2-15.9,6.6s-5.523,9.077-6.174,13.376-6,13.685-3.878,19.346,15.194,7.455,19.467,9.246,22.791-1.05,25.708-.9,1.028-9.8,1.842-12.537c1.674-5.623,1.635-13.432-3.092-18.218S762.676,281.09,749.655,285.724Z" transform="translate(-705.092 -273.512)" fill="#e5e5eb" opacity="0.3" style="mix-blend-mode: multiply;isolation: isolate"/>
          <path id="パス_71060" data-name="パス 71060" d="M726.271,224.443c-4.93,1.754-9.776,3.6-11.026,4.577s-3.832,6.3-4.283,9.278-4.164,9.493-2.69,13.419,8.66,7.42,11.623,8.662,15.733-3.593,17.757-3.493,6.281-8.757,7.565-10.264-.588-10.2-3.866-13.523S735.3,221.229,726.271,224.443Z" transform="translate(-691.5 -219.09)" fill="#ccccc4" opacity="0.3" style="mix-blend-mode: screen;isolation: isolate"/>
          <path id="パス_71061" data-name="パス 71061" d="M766.866,246.85a36.753,36.753,0,0,0-6.2,2.572,12.5,12.5,0,0,0-2.406,5.214c-.253,1.675-2.34,5.334-1.512,7.541s4.866,4.169,6.531,4.867,8.841-2.019,9.978-1.963,3.529-4.921,4.251-5.767-.33-5.734-2.172-7.6S771.941,245.043,766.866,246.85Z" transform="translate(-734.751 -239.295)" fill="#ccccc4" opacity="0.3" style="mix-blend-mode: screen;isolation: isolate"/>
          <g id="グループ_4594" data-name="グループ 4594" transform="translate(0 9.791)">
            <path id="パス_71062" data-name="パス 71062" d="M635.429,320.782c-2.571-2.491-4.316-3.938-5.346-5.689s-1.605-1.29-1.608-4.415a18.623,18.623,0,0,1,.679-5.312c.55-2.726-.253-5.47-1-8.591s.034-6.89-.5-9.5-2.01-8.307-3.408-10.527a42.963,42.963,0,0,0-5.809-6.466A61.427,61.427,0,0,1,621,280.019c.544,4,2.61,6.9,2.577,7.428s-2.577,5.26-2.668,6.709,1.078,6.018-.93,8.537-6.018,5.309-8.9,6.98-6,3.162-6.008,3.31,13.018,1.161,13.567,1.889-10.625,1.022-13.755,1.123-5.977-1.96-8.063-1.892-13.392.055-14.465-.211-6.044-3.254-6.631-3.389-3.556-1.809-4.834-1.988,6.149-1.6,6.168-1.9-5.643-1.84-5.992-3.35.732-6.1,1.01-7.374-2.01-4.332-1.635-5.577,4.469-6.443,4.963-8a22.18,22.18,0,0,0,.144-5.2,26.028,26.028,0,0,1-1.767,5c-.917,1.183-4.072,4.852-4.917,6.486s.031,5.06-.544,8.693a65.811,65.811,0,0,1-1.631,7.832c-.259.6-4.266,3.2-7.31,4.3,4.822,2.186,9.409,5.745,12.808,6.9s16.373,6.181,24.727,7.4,19.121-1.284,25.073-1.308S633.015,320.532,635.429,320.782Z" transform="translate(-559.382 -270.28)" fill="#dbdbe0" style="mix-blend-mode: multiply;isolation: isolate"/>
            <path id="パス_71063" data-name="パス 71063" d="M872.249,495.643c-.8.064-7.717.575-8.536.987s-8.512,10.31-9.155,11.064,8.611-4.487,10.356-4.906,9.821-5.865,10.389-6.491S876.2,495.328,872.249,495.643Z" transform="translate(-821.885 -470.613)" fill="#e5e3e6" style="mix-blend-mode: multiply;isolation: isolate"/>
            <path id="パス_71064" data-name="パス 71064" d="M777.706,307.333c.14.592,1.613,5.919,1.967,6.6s-3.56-2.272-4.457-2.725,2-5.626,2.326-6.532S777.552,306.683,777.706,307.333Z" transform="translate(-751.193 -300.72)" fill="#e5e3e6" style="mix-blend-mode: multiply;isolation: isolate"/>
            <path id="パス_71065" data-name="パス 71065" d="M708.5,561.722a30.941,30.941,0,0,0,4.431.351c.223-.06,3.449-2.426,3.9-2.786s-3.442,1.164-3.856,1.275S707.93,561.594,708.5,561.722Z" transform="translate(-691.969 -527.275)" fill="#e5e3e6" style="mix-blend-mode: multiply;isolation: isolate"/>
          </g>
          <g id="グループ_4595" data-name="グループ 4595" transform="translate(33.728 0.719)">
            <path id="パス_71066" data-name="パス 71066" d="M872.857,188.252c-1.976.942-6.5,2.444-7.862,6.26s-.441,3.873,1.527,2.013S871.14,190.335,872.857,188.252Z" transform="translate(-864.347 -188.252)" fill="#e5e3e6" style="mix-blend-mode: multiply;isolation: isolate"/>
            <path id="パス_71067" data-name="パス 71067" d="M958.922,193.013c.428,2.671.967,13.084,2.988,15.657s3.643,3.071,4.24-2.247S962.7,199.558,958.922,193.013Z" transform="translate(-948.462 -192.486)" fill="#e5e3e6" style="mix-blend-mode: multiply;isolation: isolate"/>
          </g>
        </g>
        <g id="グループ_4600" data-name="グループ 4600" transform="translate(30.214 0)">
          <g id="グループ_4597" data-name="グループ 4597">
            <path id="パス_71068" data-name="パス 71068" d="M846.664,93.672c-1.409-1.744-3.688-3.5-5.017-5.78s-1.456-2.867-9.071-5.922c1.785,3.131,1.786,6.367,3.713,8.271C837.99,91.92,843.486,92.775,846.664,93.672Z" transform="translate(-832.576 -81.969)" fill="#ccccd1"/>
            <path id="パス_71069" data-name="パス 71069" d="M854.614,101.164c-.486-.119-1-.24-1.529-.365-2.772-.652-6.489-1.578-7.678-2.752-1.017-1.005-1.2-2.311-1.72-3.955a27.019,27.019,0,0,0-1.294-3.138c6.271,2.56,6.7,3.195,7.814,5.113l.135.233a20.426,20.426,0,0,0,3.325,3.895c.328.331.646.652.946.969Z" transform="translate(-841.308 -89.96)" fill="#e5e5eb"/>
            <path id="パス_71070" data-name="パス 71070" d="M907,149.693c-1.182-1-2.226-1.791-2.717-2.205s-2.094-1.64-1.981-.872S902.711,148,907,149.693Z" transform="translate(-894.585 -139.246)" fill="#e5e3e6" style="mix-blend-mode: multiply;isolation: isolate"/>
          </g>
          <g id="グループ_4598" data-name="グループ 4598" transform="translate(13.298 5.653)">
            <path id="パス_71071" data-name="パス 71071" d="M952.815,138.879c1.925-1.227,4.614-4.792,7.824-5.657,1.963-.529,5.8.518,7.683,1.373-1.85,2.1-4.734,4.455-6.386,4.855C959.217,140.108,956.174,139.148,952.815,138.879Z" transform="translate(-952.815 -133.079)" fill="#ccccd1"/>
            <path id="パス_71072" data-name="パス 71072" d="M965.039,142.728c-.967-.06-1.967-.21-3.025-.37-.695-.1-1.406-.212-2.133-.3.452-.374.93-.816,1.425-1.273,1.6-1.482,3.419-3.162,5.447-3.708a5.435,5.435,0,0,1,1.7-.112,18.726,18.726,0,0,1,5.21,1.249c-1.756,1.883-4.339,3.967-5.812,4.324a9.3,9.3,0,0,1-2.814.187Z" transform="translate(-959.098 -136.523)" fill="#e5e5eb"/>
            <path id="パス_71073" data-name="パス 71073" d="M967.769,166.834c.988-.456,2.264-1.6,2.773-1.806a3.455,3.455,0,0,1,2.138.2C973.031,165.467,969.565,166.463,967.769,166.834Z" transform="translate(-966.115 -161.413)" fill="#e5e3e6" style="mix-blend-mode: multiply;isolation: isolate"/>
          </g>
          <g id="グループ_4599" data-name="グループ 4599" transform="translate(10.689 9.658)">
            <path id="パス_71074" data-name="パス 71074" d="M932.278,169.305a3.738,3.738,0,0,0-3.026,1.221c-.241.542,1.348,1.791,1.943,1.976,1.158.36,3.43,0,3.488-.582S933.452,169.42,932.278,169.305Z" transform="translate(-929.227 -169.292)" fill="#e5e5eb"/>
            <path id="パス_71075" data-name="パス 71075" d="M941.419,175.93c-.09.918-1.7,2.2-3.358,1.872a3.736,3.736,0,0,0,.991.6c1.158.36,3.43,0,3.488-.582A3.494,3.494,0,0,0,941.419,175.93Z" transform="translate(-937.084 -175.196)" fill="#e5e3e6" style="mix-blend-mode: multiply;isolation: isolate"/>
          </g>
        </g>
      </g>
      <g id="グループ_4609" data-name="グループ 4609" transform="translate(31.431 21.191)">
        <g id="グループ_4604" data-name="グループ 4604" transform="translate(0 5.944)">
          <path id="パス_71076" data-name="パス 71076" d="M363.1,278.464a36.3,36.3,0,0,1-3.746.184c-.838-.026-1.414.026-3.562.995a25.39,25.39,0,0,0-6.181,3.85,22.54,22.54,0,0,1-4.374,3.588c-2.3,1.519-4.086,4.3-6.181,6.444a26.436,26.436,0,0,0-5.238,10.32c-.524,2.829-.943,7.648-1.886,10.634s-1.991,5.553-1.676,6.915,4.767,8.172,7.386,9.534,4.553.681,9.008,1.886,9.379,3.4,15.4,3.248,10.215-1.624,14.72-3.3a103.951,103.951,0,0,1,10.006-2.986c3.615-1.048,5.814-1.467,8.434-4.663s3.968-6.286,3.444-10.424-1.715-3.685-2.606-7.422a33.42,33.42,0,0,0-3.562-8.87c-1.466-2.724-1.623-4.715-4.5-9.063s-7.282-6.181-10.634-7.543A49.05,49.05,0,0,0,363.1,278.464Z" transform="translate(-330.195 -278.464)" fill="#ccccd1"/>
          <path id="パス_71077" data-name="パス 71077" d="M364.523,338.8a37.19,37.19,0,0,1-11.4-2.252c-1.142-.36-2.221-.7-3.291-.991a28.464,28.464,0,0,0-4.84-.85,10.475,10.475,0,0,1-4.09-1.005c-2.456-1.277-6.887-7.969-7.189-9.279-.226-.982.385-2.821,1.093-4.952.188-.567.383-1.154.575-1.761a50.42,50.42,0,0,0,1.393-7.386c.171-1.218.333-2.369.5-3.294a26,26,0,0,1,5.135-10.121c.739-.757,1.444-1.6,2.127-2.411a20.114,20.114,0,0,1,3.991-3.98,22.858,22.858,0,0,0,4.438-3.641,25.12,25.12,0,0,1,6.065-3.768,7.367,7.367,0,0,1,3.142-.966c.082,0,.164,0,.249,0s.2,0,.315,0c.951,0,2.635-.091,3.445-.185a48.327,48.327,0,0,1,14.1,3.3c3.208,1.3,7.6,3.088,10.458,7.4a30.438,30.438,0,0,1,3.194,6.164,26.909,26.909,0,0,0,1.293,2.869,33.031,33.031,0,0,1,3.527,8.777,11.8,11.8,0,0,0,1.333,3.393,9.209,9.209,0,0,1,1.266,3.987c.464,3.663-.541,6.693-3.36,10.133-2.338,2.852-4.25,3.4-7.419,4.3l-.825.236c-1.13.328-2.091.578-3.019.82a63.539,63.539,0,0,0-7.013,2.175c-4.741,1.764-8.827,3.126-14.6,3.276q-.3.007-.6.007Z" transform="translate(-333.283 -281.578)" fill="#e5e5eb"/>
          <path id="パス_71078" data-name="パス 71078" d="M517.38,323.3c-5.866,4.025-11.587,8.145-12.891,9.861s-2.838,9.61-2.39,13.684-2.16,13.924,1.146,18.57,15.653,3.118,19.98,3.716,20.517-6.471,23.211-7.046S545,352.9,545.081,350.213c.165-5.53-1.76-12.638-7.226-15.856S528.126,315.925,517.38,323.3Z" transform="translate(-482.593 -316.567)" fill="#e5e5eb" opacity="0.3" style="mix-blend-mode: multiply;isolation: isolate"/>
          <path id="パス_71079" data-name="パス 71079" d="M433.336,314.42c-4.678,2-9.267,4.09-10.421,5.11s-3.336,6.341-3.592,9.261-3.464,9.463-1.8,13.184,8.852,6.674,11.8,7.7,15.048-4.441,17.018-4.466,5.562-8.878,6.717-10.417-1.189-9.863-4.572-12.885S441.9,310.753,433.336,314.42Z" transform="translate(-407.443 -309.614)" fill="#ccccc4" opacity="0.3" style="mix-blend-mode: screen;isolation: isolate"/>
          <path id="パス_71080" data-name="パス 71080" d="M468.616,338.474a35.707,35.707,0,0,0-5.856,2.871,12.145,12.145,0,0,0-2.019,5.2c-.144,1.641-1.946,5.317-1.009,7.408s4.974,3.75,6.632,4.326,8.456-2.5,9.563-2.51,3.125-4.989,3.774-5.854-.668-5.543-2.569-7.241S473.43,336.413,468.616,338.474Z" transform="translate(-445.167 -331.371)" fill="#ccccc4" opacity="0.3" style="mix-blend-mode: screen;isolation: isolate"/>
          <g id="グループ_4602" data-name="グループ 4602" transform="translate(23.931 0.314)">
            <path id="パス_71081" data-name="パス 71081" d="M554.853,282.683a13.465,13.465,0,0,0-2.475.7,19.948,19.948,0,0,0-4.27,2.687c-1.013.97-1.878,2.9-1.393,3.674s1.978-1.512,3.081-2.862a39.081,39.081,0,0,1,3.124-3.338A8.253,8.253,0,0,1,554.853,282.683Z" transform="translate(-546.576 -282.531)" fill="#e5e3e6" style="mix-blend-mode: multiply;isolation: isolate"/>
            <path id="パス_71082" data-name="パス 71082" d="M571.535,281.306a49.7,49.7,0,0,0-4.935,7.931c-.941,2-1.8,5.9-1.426,6.618s4.25-5.192,4.878-6.276S570.663,283.311,571.535,281.306Z" transform="translate(-563.038 -281.306)" fill="#e5e3e6" style="mix-blend-mode: multiply;isolation: isolate"/>
            <path id="パス_71083" data-name="パス 71083" d="M638.846,281.535c.917.317,5.424,2.536,6.594,3.737s4.136,4.71,3.68,6.593-4.879-4.279-5.848-5.677A56.159,56.159,0,0,0,638.846,281.535Z" transform="translate(-628.641 -281.51)" fill="#e5e3e6" style="mix-blend-mode: multiply;isolation: isolate"/>
          </g>
          <g id="グループ_4603" data-name="グループ 4603" transform="translate(0 5.754)">
            <path id="パス_71084" data-name="パス 71084" d="M395.21,371.387c2.619-3.2,3.968-6.286,3.444-10.424s-1.715-3.685-2.606-7.422a33.42,33.42,0,0,0-3.562-8.87c-1.466-2.724-1.623-4.715-4.5-9.063a16.687,16.687,0,0,0-5.509-5.116c.834,2.149,1.709,4.661,2.313,6.321.838,2.3,1.781,2.1,1.362,6.286s-1.051,4.505.1,8.8-.523,5.448-2.356,8.381-6.652,7.544-10.319,7.439-5.9.628-9.186,2.724a13.547,13.547,0,0,1-9.044,2.41c-3.248-.209-9.01-.314-11.211-.419s-6.705-.943-7.124-3.772-2.082-2.173-2.5-6.992a31.715,31.715,0,0,1,1.663-12.914c.793-2.089,1.684-5.935,3.288-9.386-.134.145-.269.288-.406.428a26.437,26.437,0,0,0-5.238,10.32c-.524,2.829-.943,7.648-1.886,10.634s-1.991,5.553-1.676,6.915,4.767,8.172,7.386,9.534,4.553.681,9.008,1.886,9.379,3.4,15.4,3.248,10.215-1.624,14.72-3.3a103.924,103.924,0,0,1,10.006-2.986C390.39,375,392.59,374.583,395.21,371.387Z" transform="translate(-330.195 -330.493)" fill="#dbdbe0" style="mix-blend-mode: multiply;isolation: isolate"/>
            <path id="パス_71085" data-name="パス 71085" d="M504.414,515.488c-2.3,2.3-5.029,3.457-5.972,5.343s.437,2.409,4.1,1.362,4.038-4.505,5.786-5.658,4.026-8.381,1.63-6.076S505.881,514.021,504.414,515.488Z" transform="translate(-479.579 -490.155)" fill="#e5e3e6" style="mix-blend-mode: multiply;isolation: isolate"/>
          </g>
        </g>
        <g id="グループ_4608" data-name="グループ 4608" transform="translate(15.687)">
          <g id="グループ_4605" data-name="グループ 4605" transform="translate(0 0.957)">
            <path id="パス_71086" data-name="パス 71086" d="M486.152,236.908c-1.072-.54-2.544-2.028-3.763-2.6a8.029,8.029,0,0,0-2.739-.934,5.47,5.47,0,0,0-2.9,1.362c-1.6,1.2-3.942,2.058-4.717,3.118,1.6.712,3.736,1.067,4.86,1.935s2.786,1.857,3.91,1.747,5.936-2.383,7.25-2.462S488.184,238.048,486.152,236.908Z" transform="translate(-472.036 -233.375)" fill="#ccccd1"/>
            <path id="パス_71087" data-name="パス 71087" d="M485.5,244.044a7.28,7.28,0,0,1-3.514-1.682,9.916,9.916,0,0,0-2.957-1.274c-.509-.161-1.031-.327-1.514-.513a12.407,12.407,0,0,1,2.077-1.32,19.374,19.374,0,0,0,2.247-1.382,5.189,5.189,0,0,1,2.694-1.29h.026a8.6,8.6,0,0,1,2.552.9,11.857,11.857,0,0,1,1.991,1.365,12,12,0,0,0,1.762,1.229,9.035,9.035,0,0,1,2.181,1.482c-.037,0-.083.01-.139.014a20.9,20.9,0,0,0-4.119,1.367,21.193,21.193,0,0,1-3.145,1.1c-.048,0-.1.007-.144.007Z" transform="translate(-476.91 -236.228)" fill="#e5e5eb"/>
            <path id="パス_71088" data-name="パス 71088" d="M553.351,264.046a28.394,28.394,0,0,0-4.512-1.329c-.973-.024-3.064.4-2.541,1.045s2.173.19,3.485.19S552.883,264.037,553.351,264.046Z" transform="translate(-538.011 -259.471)" fill="#e5e3e6" style="mix-blend-mode: multiply;isolation: isolate"/>
          </g>
          <g id="グループ_4606" data-name="グループ 4606" transform="translate(16.527)">
            <path id="パス_71089" data-name="パス 71089" d="M621.47,231.162c.538-.643,1.591-2.949,2.3-3.805,2.145-2.609,4.109-2.756,6.7-2.588a23.87,23.87,0,0,1,6.166,1.377,38.99,38.99,0,0,0-5.311,4.037c-1.633,1.327-2.612,2.232-4.511,1.911C623.951,231.609,623.641,231.252,621.47,231.162Z" transform="translate(-621.47 -224.72)" fill="#ccccd1"/>
            <path id="パス_71090" data-name="パス 71090" d="M632.734,234.653a4.045,4.045,0,0,1-.674-.059c-1.139-.193-1.882-.368-2.479-.509a13.318,13.318,0,0,0-2.277-.39c.2-.332.43-.749.678-1.2a16.371,16.371,0,0,1,1.246-2.062,5.913,5.913,0,0,1,5.165-2.507c.352,0,.747.015,1.242.047a21.12,21.12,0,0,1,5.342,1.126,30.389,30.389,0,0,0-3.481,2.652c-.385.325-.783.662-1.207,1.006l-.257.21c-1.244,1.016-2.066,1.687-3.3,1.687Z" transform="translate(-626.659 -227.571)" fill="#e5e5eb"/>
            <path id="パス_71091" data-name="パス 71091" d="M633.919,257.465c.554-.508,2.588-2.054,3.8-2.2s1.235.534.357,1.1S635.043,256.973,633.919,257.465Z" transform="translate(-632.542 -251.874)" fill="#e5e3e6" style="mix-blend-mode: multiply;isolation: isolate"/>
          </g>
          <g id="グループ_4607" data-name="グループ 4607" transform="translate(14.109 4.093)">
            <path id="パス_71092" data-name="パス 71092" d="M599.719,262.253c.665.538,1.219,1.472,1.029,1.995s.475.728.982.76,2.545-.149,2.681-.739A2.478,2.478,0,0,0,603.17,262C602.3,261.572,598.981,261.655,599.719,262.253Z" transform="translate(-599.613 -261.732)" fill="#e5e5eb"/>
            <path id="パス_71093" data-name="パス 71093" d="M602.828,269.512c-.19.522.475.728.982.76s2.545-.149,2.681-.739a1.791,1.791,0,0,0-.153-.994c-1.048.479-2.489.5-2.784.185a5.539,5.539,0,0,0-1.6-1.073h0C602.545,268.2,603,269.031,602.828,269.512Z" transform="translate(-601.693 -266.996)" fill="#e5e3e6" style="mix-blend-mode: multiply;isolation: isolate"/>
          </g>
        </g>
      </g>
      <g id="グループ_4621" data-name="グループ 4621" transform="translate(25.153 40.935)">
        <g id="グループ_4618" data-name="グループ 4618" transform="translate(0)">
          <path id="パス_71094" data-name="パス 71094" d="M695.886,720.012a2.521,2.521,0,0,1-3.05-.786c-.924-1.355-.693,1.525.093,2.172s1.864.909,2.311.447A2.257,2.257,0,0,0,695.886,720.012Z" transform="translate(-645.918 -683.961)" fill="#4f78c9"/>
          <g id="グループ_4610" data-name="グループ 4610">
            <path id="パス_71095" data-name="パス 71095" d="M327,412.26c0,4.98-11.99,8.73-26.78,8.73s-26.78-3.75-26.78-8.73c0-4.721,11.99-9.016,26.78-9.016S327,407.539,327,412.26Z" transform="translate(-273.437 -403.244)" fill="#6e9de0"/>
            <path id="パス_71096" data-name="パス 71096" d="M346.641,426.168c0,3.89-10.741,6.82-23.991,6.82s-23.991-2.93-23.991-6.82c0-3.688,10.741-7.044,23.991-7.044S346.641,422.48,346.641,426.168Z" transform="translate(-295.869 -417.368)" fill="#5480ce"/>
          </g>
          <g id="グループ_4611" data-name="グループ 4611" transform="translate(4.459 10.075)">
            <path id="パス_71097" data-name="パス 71097" d="M358.4,501.383c0,3.89-9.994,6.82-22.321,6.82s-22.321-2.93-22.321-6.82c0-3.688,9.993-7.044,22.321-7.044S358.4,497.695,358.4,501.383Z" transform="translate(-313.757 -494.339)" fill="#9ec7f5"/>
            <path id="パス_71098" data-name="パス 71098" d="M533.059,505.632c-2.449-1.683-9.7-3.485-13.4-3.624s-2.911.416-1.387,1.2-.023.668-.555.6-1.34.232-.393.74,1.017.994.046.9-1.063.208-.6.554.139.74-1.086.786-3.42,3.813,1.155,3.813S531.631,507.685,533.059,505.632Z" transform="translate(-491.915 -501.141)" fill="#9ec7f5" opacity="0.4" style="mix-blend-mode: multiply;isolation: isolate"/>
          </g>
          <g id="グループ_4617" data-name="グループ 4617" transform="translate(0 9.016)">
            <g id="グループ_4614" data-name="グループ 4614">
              <path id="パス_71099" data-name="パス 71099" d="M319.478,537.741c-7.718,0-22.057-3.7-24.385-5.515.308,3.389,2.711,25.664,3.2,28.005s.8,3.389,3.512,5.114,10.321,3.636,17.669,3.636,14.957-1.91,17.669-3.636,3.019-2.773,3.512-5.114,2.9-24.616,3.2-28.005C341.535,534.041,327.2,537.741,319.478,537.741Z" transform="translate(-292.698 -526.977)" fill="#6396dd"/>
              <path id="パス_71100" data-name="パス 71100" d="M295.753,538.922c4.4,2.869,13.471,4.752,23.951,4.752s19.552-1.883,23.951-4.752c.186-1.769.33-3.174.406-3.974-3.627,2.595-11,4.438-19.85,4.91a33.558,33.558,0,0,1-9.014,0c-8.85-.472-16.223-2.315-19.85-4.91C295.423,535.747,295.567,537.152,295.753,538.922Z" transform="translate(-292.924 -529.398)" fill="#5480ce"/>
              <path id="パス_71101" data-name="パス 71101" d="M657.473,610.616c-.522-.724-1.392-1.286-2.116-.763a1.618,1.618,0,0,0-.366,2.258c.369.511.8,1.1,1.259,1.723a42.78,42.78,0,0,1,5.069,8.936c.17-1.432.352-3.014.538-4.654a56,56,0,0,0-3.142-5.8C658.262,611.7,657.833,611.116,657.473,610.616Z" transform="translate(-612.521 -595.837)" fill="#5480ce" opacity="0.5"/>
              <path id="パス_71102" data-name="パス 71102" d="M344.633,532.015a47.743,47.743,0,0,0,6.607,1.44,102.938,102.938,0,0,0,12.531.6c2.83-.186,4.045-.267,5.137-.346-1.1,1.188-1.241,2.888-1.321,6.45s.131,12.34.392,14.921.194,2.615-2.269,3.026a43.087,43.087,0,0,1-12.334-.177c-3.683-.64-7.392-1.91-8.252-2.871s-1.451-9.067-1.912-13.675c-.438-4.384-.763-7.1-.051-8.021S344.237,531.888,344.633,532.015Z" transform="translate(-335.08 -526.774)" fill="#5480ce" opacity="0.5"/>
              <g id="グループ_4612" data-name="グループ 4612" transform="translate(38.818 7.806)">
                <path id="パス_71103" data-name="パス 71103" d="M624.477,557.891c-.069,2.01-.149,4.876.462,5.869a2.9,2.9,0,0,0,2.505,1.479h0l1.575.185-.081-.509a4.153,4.153,0,0,0,2.311-2.634,37.854,37.854,0,0,0,.578-6.932A55.481,55.481,0,0,1,624.477,557.891Z" transform="translate(-624.431 -555.349)" fill="#5480ce"/>
                <path id="パス_71104" data-name="パス 71104" d="M626.1,583.63l-1.635-.339c-.024.788-.041,1.658-.017,2.476Z" transform="translate(-624.432 -580.201)" fill="#4f78c9"/>
                <path id="パス_71105" data-name="パス 71105" d="M639.52,559.563c-.069,2.01-.149,4.876.462,5.869,1.72,2.8,5.569,1.248,6.308-1.479a37.855,37.855,0,0,0,.578-6.932A55.475,55.475,0,0,1,639.52,559.563Z" transform="translate(-637.81 -556.836)" fill="#6396dd"/>
              </g>
              <g id="グループ_4613" data-name="グループ 4613">
                <path id="パス_71106" data-name="パス 71106" d="M300.217,493.5c-14.79,0-26.78-3.751-26.78-8.73v3.7c0,4.979,11.99,8.73,26.78,8.73s26.78-3.751,26.78-8.73v-3.7C327,489.749,315.008,493.5,300.217,493.5Z" transform="translate(-273.437 -484.77)" fill="#6396dd"/>
                <path id="パス_71107" data-name="パス 71107" d="M300.217,493.5c14.79,0,26.78-3.751,26.78-8.73h-2.8c-.39,3.782-10.976,6.6-23.979,6.6s-23.589-2.822-23.979-6.6h-2.8C273.437,489.749,285.427,493.5,300.217,493.5Z" transform="translate(-273.437 -484.77)" fill="#6e9de0"/>
              </g>
            </g>
            <g id="グループ_4616" data-name="グループ 4616" transform="translate(42.192 11.595)">
              <path id="パス_71108" data-name="パス 71108" d="M664.844,602.786a60.935,60.935,0,0,0-5.735-9.391c-.454-.617-.882-1.2-1.242-1.7a1.617,1.617,0,0,0-1.642-.636l.013-.067-.474.24a1.7,1.7,0,0,0-.156.1,1.618,1.618,0,0,0-.365,2.258c.369.511.8,1.1,1.259,1.723,2.048,2.786,4.854,6.6,5.859,8.814l.055.121a3.675,3.675,0,0,1-.153,3.046,1.98,1.98,0,0,1-.944.757q-.04.329-.079.64a2.189,2.189,0,0,0,.607-.149c1.309-.662,1.662-2.821,1.879-3.469.036,0,.072,0,.109,0,.224,0,.174-.047.391-.145A1.551,1.551,0,0,0,664.844,602.786Z" transform="translate(-654.937 -590.839)" fill="#5480ce"/>
              <path id="パス_71109" data-name="パス 71109" d="M668.085,601.693s-.05-.153-.084-.228a59.031,59.031,0,0,0-5.55-9.484c-.454-.617-.882-1.2-1.242-1.7a1.617,1.617,0,1,0-2.623,1.893c.369.511.8,1.1,1.259,1.723,2.048,2.787,4.854,6.6,5.859,8.814l.088.194a3.809,3.809,0,0,1-.972,4.405C667.361,606.618,669.087,604.394,668.085,601.693Z" transform="translate(-657.91 -589.611)" fill="#6396dd"/>
              <g id="グループ_4615" data-name="グループ 4615" transform="translate(0.662)">
                <path id="パス_71110" data-name="パス 71110" d="M661.145,590.113a1.677,1.677,0,0,1,2.341.379c.373.518.818,1.122,1.288,1.761a61.16,61.16,0,0,1,5.753,9.831c.035.078.086.236.087.236.011.031.021.062.032.094a4.77,4.77,0,0,0-.206-.72s-.049-.153-.083-.228a59.035,59.035,0,0,0-5.55-9.484c-.454-.617-.882-1.2-1.242-1.7a1.614,1.614,0,0,0-2.637.02A1.706,1.706,0,0,1,661.145,590.113Z" transform="translate(-660.927 -589.611)" fill="#6e9de0"/>
              </g>
            </g>
          </g>
        </g>
        <g id="グループ_4620" data-name="グループ 4620" transform="translate(6.099 12.61)">
          <path id="パス_71111" data-name="パス 71111" d="M354.837,520.1l.465-.033c-.323-.369-.45-.382-.508-.375-1.094.046-2.311.092-5.145.195a102.936,102.936,0,0,1-12.509-.965,47.732,47.732,0,0,1-6.562-1.633c-.392-.139-.77.4-1.51,1.3s-.494,3.623-.185,8.018c.325,4.619.678,12.739,1.51,13.725s4.5,2.364,8.164,3.112a43.091,43.091,0,0,0,12.323.539,4.708,4.708,0,0,0,2.526-.816c.4-.412.308-1,.216-2.3-.185-2.588-.239-11.222-.054-14.781a19.958,19.958,0,0,1,.651-5c.095-.251.235-.5.338-.711C354.6,520.3,354.663,520.1,354.837,520.1Z" transform="translate(-328.582 -517.266)" fill="#bec6d1"/>
          <path id="パス_71112" data-name="パス 71112" d="M330.578,517.288a47.732,47.732,0,0,0,6.562,1.633,102.936,102.936,0,0,0,12.509.965c2.834-.1,4.051-.149,5.145-.195-1.132,1.155-1.325,2.85-1.51,6.408s-.231,12.339-.046,14.927.117,2.619-2.357,2.958a43.091,43.091,0,0,1-12.323-.539c-3.663-.748-7.333-2.126-8.164-3.112s-1.184-9.106-1.51-13.725c-.31-4.395-.555-7.117.185-8.018S330.186,517.149,330.578,517.288Z" transform="translate(-328.582 -517.266)" fill="#fff"/>
          <g id="グループ_4619" data-name="グループ 4619" transform="translate(1.264 0.32)">
            <path id="パス_71113" data-name="パス 71113" d="M466.516,650.482a.139.139,0,0,0,.029-.195l-.44-.6a.139.139,0,1,0-.224.163l.44.6A.139.139,0,0,0,466.516,650.482Z" transform="translate(-451.936 -635.308)" fill="#aab3d1"/>
            <path id="パス_71114" data-name="パス 71114" d="M465.944,557.7a.139.139,0,0,0-.2,0l-.548.524a.142.142,0,0,0,0,.2.139.139,0,0,0,.2,0l.545-.522A.141.141,0,0,0,465.944,557.7Z" transform="translate(-451.315 -553.511)" fill="#aab3d1"/>
            <path id="パス_71115" data-name="パス 71115" d="M476.407,663.945a.14.14,0,0,0,.027-.2l-.445-.6a.139.139,0,1,0-.223.165l.446.6A.139.139,0,0,0,476.407,663.945Z" transform="translate(-460.727 -647.286)" fill="#aab3d1"/>
            <path id="パス_71116" data-name="パス 71116" d="M506.78,703.809a.139.139,0,0,0,.022-.2l-.461-.587a.139.139,0,1,0-.218.171l.461.587A.139.139,0,0,0,506.78,703.809Z" transform="translate(-487.725 -682.754)" fill="#aab3d1"/>
            <path id="パス_71117" data-name="パス 71117" d="M453.527,570.31l.522-.545a.139.139,0,0,0,0-.2.142.142,0,0,0-.2,0l-.524.548a.139.139,0,1,0,.2.191Z" transform="translate(-440.758 -564.068)" fill="#aab3d1"/>
            <path id="パス_71118" data-name="パス 71118" d="M458.6,747.317c.245.02.491.034.737.047a.139.139,0,0,0,.015-.277c-.244-.013-.488-.027-.732-.046a.139.139,0,0,0-.02.276Z" transform="translate(-445.373 -721.948)" fill="#aab3d1"/>
            <path id="パス_71119" data-name="パス 71119" d="M456.543,636.9a.139.139,0,1,0,.225-.162l-.435-.606a.139.139,0,1,0-.226.161Z" transform="translate(-443.244 -623.257)" fill="#aab3d1"/>
            <path id="パス_71120" data-name="パス 71120" d="M495.916,689.795a.139.139,0,0,0-.025.2l.456.592a.139.139,0,1,0,.219-.17l-.455-.591A.14.14,0,0,0,495.916,689.795Z" transform="translate(-478.626 -671.008)" fill="#aab3d1"/>
            <path id="パス_71121" data-name="パス 71121" d="M475.048,748.172l.738.016a.139.139,0,0,0,.14-.138.137.137,0,0,0-.136-.139l-.733-.016a.138.138,0,0,0-.142.134A.139.139,0,0,0,475.048,748.172Z" transform="translate(-459.994 -722.709)" fill="#aab3d1"/>
            <path id="パス_71122" data-name="パス 71122" d="M431.5,594.5a.142.142,0,0,0-.013-.2.139.139,0,0,0-.2.018l-.491.578a.139.139,0,0,0,.014.2.141.141,0,0,0,.2-.019Z" transform="translate(-420.724 -586.071)" fill="#aab3d1"/>
            <path id="パス_71123" data-name="パス 71123" d="M437.533,609.66a.139.139,0,1,0,.228-.157l-.421-.616a.139.139,0,1,0-.229.156Z" transform="translate(-426.35 -599.019)" fill="#aab3d1"/>
            <path id="パス_71124" data-name="パス 71124" d="M425.918,743.363l.729.12a.137.137,0,0,0,.157-.116.14.14,0,0,0-.115-.158l-.723-.119a.137.137,0,0,0-.16.111A.139.139,0,0,0,425.918,743.363Z" transform="translate(-416.316 -718.432)" fill="#aab3d1"/>
            <path id="パス_71125" data-name="パス 71125" d="M422.949,604.582l-.474.591a.139.139,0,1,0,.217.172l.472-.589a.139.139,0,1,0-.215-.175Z" transform="translate(-413.327 -595.198)" fill="#aab3d1"/>
            <path id="パス_71126" data-name="パス 71126" d="M486.227,677.288a.139.139,0,1,0,.221-.168l-.45-.595a.139.139,0,1,0-.221.167Z" transform="translate(-469.63 -659.182)" fill="#aab3d1"/>
            <path id="パス_71127" data-name="パス 71127" d="M478.3,546.308a.141.141,0,0,0-.2-.012c-.194.162-.378.336-.566.505a.139.139,0,1,0,.186.206c.187-.168.37-.34.563-.5A.139.139,0,0,0,478.3,546.308Z" transform="translate(-462.283 -543.374)" fill="#aab3d1"/>
            <path id="パス_71128" data-name="パス 71128" d="M489.089,540.26l-.094.085a.139.139,0,1,0,.186.206l.3-.27Z" transform="translate(-472.476 -538.037)" fill="#aab3d1"/>
            <path id="パス_71129" data-name="パス 71129" d="M428.607,596.361a.14.14,0,0,0,.037-.194l-.415-.62a.139.139,0,1,0-.231.153l.416.621A.139.139,0,0,0,428.607,596.361Z" transform="translate(-418.246 -587.153)" fill="#aab3d1"/>
            <path id="パス_71130" data-name="パス 71130" d="M342.643,533.688a.14.14,0,0,0,.172-.087,3.4,3.4,0,0,1,.317-.63.139.139,0,0,0-.239-.141,3.68,3.68,0,0,0-.341.683A.137.137,0,0,0,342.643,533.688Z" transform="translate(-342.266 -531.368)" fill="#aab3d1"/>
            <path id="パス_71131" data-name="パス 71131" d="M536.505,650.566a.139.139,0,0,0,.277,0l0-.735a.139.139,0,0,0-.277,0Z" transform="translate(-514.771 -635.366)" fill="#aab3d1"/>
            <path id="パス_71132" data-name="パス 71132" d="M536.98,683.626a.139.139,0,0,0,.136-.141l-.014-.735a.139.139,0,0,0-.277,0l.014.736A.139.139,0,0,0,536.98,683.626Z" transform="translate(-515.058 -664.648)" fill="#aab3d1"/>
            <path id="パス_71133" data-name="パス 71133" d="M536.626,617.642a.139.139,0,0,0,.277,0l.011-.735a.139.139,0,0,0-.277-.005Z" transform="translate(-514.881 -606.086)" fill="#aab3d1"/>
            <path id="パス_71134" data-name="パス 71134" d="M536.753,667.167a.138.138,0,0,0,.137-.14l-.008-.735a.139.139,0,0,0-.277,0l.008.736A.138.138,0,0,0,536.753,667.167Z" transform="translate(-514.862 -650.009)" fill="#aab3d1"/>
            <path id="パス_71135" data-name="パス 71135" d="M536.5,634.1a.139.139,0,0,0,.277,0l0-.735a.139.139,0,0,0-.277,0Z" transform="translate(-514.771 -620.725)" fill="#aab3d1"/>
            <path id="パス_71136" data-name="パス 71136" d="M507.97,747.185c.246-.014.492-.039.738-.061a.139.139,0,0,0-.028-.276c-.243.022-.485.046-.728.06a.139.139,0,0,0,.019.276Z" transform="translate(-489.263 -721.776)" fill="#aab3d1"/>
            <path id="パス_71137" data-name="パス 71137" d="M538.057,584.774c.021-.244.038-.488.062-.731a.139.139,0,0,0-.276-.025c-.024.245-.041.49-.062.735a.139.139,0,0,0,.276.021Z" transform="translate(-515.908 -576.844)" fill="#aab3d1"/>
            <path id="パス_71138" data-name="パス 71138" d="M537,600.446l-.026.737a.139.139,0,0,0,.277.009l.026-.734a.139.139,0,0,0-.277-.012Z" transform="translate(-515.188 -591.449)" fill="#aab3d1"/>
            <path id="パス_71139" data-name="パス 71139" d="M442.209,745.757c.245.026.489.059.734.08a.139.139,0,0,0,.028-.276c-.243-.021-.486-.053-.729-.08a.14.14,0,0,0-.153.122A.137.137,0,0,0,442.209,745.757Z" transform="translate(-430.798 -720.561)" fill="#aab3d1"/>
            <path id="パス_71140" data-name="パス 71140" d="M526.989,729.114a.139.139,0,0,0-.019.2l.475.577a.139.139,0,1,0,.214-.177l-.474-.576A.139.139,0,0,0,526.989,729.114Z" transform="translate(-506.265 -705.977)" fill="#aab3d1"/>
            <path id="パス_71141" data-name="パス 71141" d="M516.5,716.114a.139.139,0,0,0-.021.2l.467.583a.139.139,0,1,0,.216-.174l-.466-.582A.139.139,0,0,0,516.5,716.114Z" transform="translate(-496.932 -694.416)" fill="#aab3d1"/>
            <path id="パス_71142" data-name="パス 71142" d="M542.486,552.413c.061-.234.123-.468.2-.695a.142.142,0,0,0-.088-.175.135.135,0,0,0-.174.087c-.082.236-.146.477-.209.717a.14.14,0,0,0,.1.168A.137.137,0,0,0,542.486,552.413Z" transform="translate(-519.85 -548.064)" fill="#aab3d1"/>
            <path id="パス_71143" data-name="パス 71143" d="M538.066,732.96a.135.135,0,0,0,.182-.089,2.868,2.868,0,0,0,.077-.771.14.14,0,0,0-.143-.136.137.137,0,0,0-.135.139,2.619,2.619,0,0,1-.065.688A.144.144,0,0,0,538.066,732.96Z" transform="translate(-516.082 -708.539)" fill="#aab3d1"/>
            <path id="パス_71144" data-name="パス 71144" d="M537.928,716.536a.138.138,0,0,0,.129-.147l-.04-.731a.139.139,0,0,0-.277.013c.012.245.024.491.041.738A.137.137,0,0,0,537.928,716.536Z" transform="translate(-515.871 -693.92)" fill="#aab3d1"/>
            <path id="パス_71145" data-name="パス 71145" d="M537.342,700.086a.138.138,0,0,0,.134-.142l-.021-.735a.139.139,0,0,0-.277.008l.021.736A.138.138,0,0,0,537.342,700.086Z" transform="translate(-515.372 -679.287)" fill="#aab3d1"/>
            <path id="パス_71146" data-name="パス 71146" d="M539.649,568.432c.031-.242.063-.483.1-.723a.14.14,0,0,0-.115-.158.137.137,0,0,0-.158.114c-.041.244-.073.488-.1.733a.137.137,0,0,0,.12.154A.14.14,0,0,0,539.649,568.432Z" transform="translate(-517.324 -562.308)" fill="#aab3d1"/>
            <path id="パス_71147" data-name="パス 71147" d="M392.5,646.045a.14.14,0,0,0,.194-.04l.426-.623a.139.139,0,1,0-.228-.157l-.428.625A.141.141,0,0,0,392.5,646.045Z" transform="translate(-386.641 -631.337)" fill="#aab3d1"/>
            <path id="パス_71148" data-name="パス 71148" d="M343.529,631.519a.139.139,0,0,0,.13-.146l-.047-.734a.139.139,0,0,0-.277.018l.047.734A.138.138,0,0,0,343.529,631.519Z" transform="translate(-342.967 -618.305)" fill="#aab3d1"/>
            <path id="パス_71149" data-name="パス 71149" d="M340.652,582.083l-.033-.733a.139.139,0,0,0-.277.011l.033.736a.139.139,0,0,0,.277-.014Z" transform="translate(-340.305 -574.464)" fill="#aab3d1"/>
            <path id="パス_71150" data-name="パス 71150" d="M342.48,615.092a.138.138,0,0,0,.13-.146l-.048-.735a.139.139,0,0,0-.277.018l.047.734A.139.139,0,0,0,342.48,615.092Z" transform="translate(-342.034 -603.695)" fill="#aab3d1"/>
            <path id="パス_71151" data-name="パス 71151" d="M340.242,549.181a.137.137,0,0,0,.132.145.139.139,0,0,0,.145-.131c.011-.243.029-.486.053-.726a.139.139,0,0,0-.276-.029C340.271,548.688,340.252,548.935,340.242,549.181Z" transform="translate(-340.216 -545.203)" fill="#aab3d1"/>
            <path id="パス_71152" data-name="パス 71152" d="M350.893,520.7a.137.137,0,0,0,.034.193.139.139,0,0,0,.192-.032c.14-.2.288-.39.442-.573a.131.131,0,0,0,.026-.048l-.276-.083C351.163,520.335,351.024,520.515,350.893,520.7Z" transform="translate(-349.666 -520.158)" fill="#aab3d1"/>
            <path id="パス_71153" data-name="パス 71153" d="M341.385,598.664a.138.138,0,0,0,.129-.147l-.048-.733a.139.139,0,0,0-.277.017l.048.735A.138.138,0,0,0,341.385,598.664Z" transform="translate(-341.059 -589.084)" fill="#aab3d1"/>
            <path id="パス_71154" data-name="パス 71154" d="M352.254,713.155a.132.132,0,0,0,.2-.01.145.145,0,0,0-.008-.191,1.08,1.08,0,0,1-.315-.572.142.142,0,0,0-.171-.092.135.135,0,0,0-.094.173A1.367,1.367,0,0,0,352.254,713.155Z" transform="translate(-350.548 -691.037)" fill="#aab3d1"/>
            <path id="パス_71155" data-name="パス 71155" d="M340.157,565.769a.138.138,0,0,0,.135-.14l-.006-.733a.139.139,0,0,0-.277,0l.006.738A.139.139,0,0,0,340.157,565.769Z" transform="translate(-340.01 -559.825)" fill="#aab3d1"/>
            <path id="パス_71156" data-name="パス 71156" d="M344.6,647.948a.138.138,0,0,0,.129-.147l-.05-.733a.139.139,0,0,0-.277.018l.05.734A.138.138,0,0,0,344.6,647.948Z" transform="translate(-343.913 -632.917)" fill="#aab3d1"/>
            <path id="パス_71157" data-name="パス 71157" d="M525.172,744.446a.138.138,0,0,0-.167-.094c-.23.054-.467.1-.709.132a.139.139,0,0,0-.116.158.137.137,0,0,0,.157.116c.244-.034.49-.079.737-.138A.139.139,0,0,0,525.172,744.446Z" transform="translate(-503.811 -719.552)" fill="#aab3d1"/>
            <path id="パス_71158" data-name="パス 71158" d="M347.31,680.618l-.074-.73a.139.139,0,0,0-.276.026l.074.733a.139.139,0,0,0,.276-.029Z" transform="translate(-346.191 -662.111)" fill="#aab3d1"/>
            <path id="パス_71159" data-name="パス 71159" d="M548.213,540.208a4.3,4.3,0,0,1,.332-.523l-.349.014c-.081.122-.157.247-.226.375a.135.135,0,0,0,.055.188A.142.142,0,0,0,548.213,540.208Z" transform="translate(-524.954 -537.525)" fill="#aab3d1"/>
            <path id="パス_71160" data-name="パス 71160" d="M492.386,748.019a.139.139,0,0,0-.142-.135c-.244.007-.488.015-.733.016a.139.139,0,0,0,0,.277c.246,0,.492-.009.738-.016A.137.137,0,0,0,492.386,748.019Z" transform="translate(-474.635 -722.699)" fill="#aab3d1"/>
            <path id="パス_71161" data-name="パス 71161" d="M419.123,581.713a.139.139,0,0,0,.039-.193l-.4-.627a.139.139,0,1,0-.233.15l.4.628A.14.14,0,0,0,419.123,581.713Z" transform="translate(-409.822 -574.119)" fill="#aab3d1"/>
            <path id="パス_71162" data-name="パス 71162" d="M345.778,664.369a.138.138,0,0,0,.127-.149l-.058-.732a.139.139,0,0,0-.276.021l.058.734A.139.139,0,0,0,345.778,664.369Z" transform="translate(-344.954 -647.522)" fill="#aab3d1"/>
            <path id="パス_71163" data-name="パス 71163" d="M412.762,617.832a.139.139,0,0,0-.2.028l-.46.6a.139.139,0,1,0,.222.167l.458-.6A.141.141,0,0,0,412.762,617.832Z" transform="translate(-404.107 -607.004)" fill="#aab3d1"/>
            <path id="パス_71164" data-name="パス 71164" d="M387.16,528.712a.138.138,0,0,0,.187.061.14.14,0,0,0,.06-.188l-.033-.066-.349-.076Z" transform="translate(-381.824 -527.527)" fill="#aab3d1"/>
            <path id="パス_71165" data-name="パス 71165" d="M401.07,552.39a.139.139,0,0,0-.049.191l.379.644a.141.141,0,0,0,.192.049.138.138,0,0,0,.046-.191l-.378-.642A.14.14,0,0,0,401.07,552.39Z" transform="translate(-394.256 -548.809)" fill="#aab3d1"/>
            <path id="パス_71166" data-name="パス 71166" d="M393.91,735.645c.236.07.472.142.71.205a.139.139,0,0,0,.074-.267c-.236-.063-.469-.135-.7-.2a.14.14,0,0,0-.172.093A.137.137,0,0,0,393.91,735.645Z" transform="translate(-387.861 -711.572)" fill="#aab3d1"/>
            <path id="パス_71167" data-name="パス 71167" d="M402.341,632.188l.44-.613a.139.139,0,0,0-.028-.2.141.141,0,0,0-.2.032l-.442.616a.139.139,0,1,0,.226.161Z" transform="translate(-395.222 -619.055)" fill="#aab3d1"/>
            <path id="パス_71168" data-name="パス 71168" d="M393.346,538.745a.139.139,0,0,0,.052-.19c-.122-.216-.245-.432-.361-.651a.139.139,0,1,0-.244.133c.117.221.24.437.363.654A.139.139,0,0,0,393.346,538.745Z" transform="translate(-386.941 -535.876)" fill="#aab3d1"/>
            <path id="パス_71169" data-name="パス 71169" d="M409.7,739.8a.137.137,0,0,0,.1.167c.24.056.479.115.72.165a.139.139,0,0,0,.059-.271c-.239-.049-.476-.109-.714-.163A.14.14,0,0,0,409.7,739.8Z" transform="translate(-401.988 -715.415)" fill="#aab3d1"/>
            <path id="パス_71170" data-name="パス 71170" d="M447.225,623.438a.139.139,0,0,0,.032-.194l-.429-.61a.139.139,0,1,0-.227.159l.43.611A.139.139,0,0,0,447.225,623.438Z" transform="translate(-434.79 -611.247)" fill="#aab3d1"/>
            <path id="パス_71171" data-name="パス 71171" d="M410.206,567.586a.14.14,0,0,0,.043-.193l-.395-.632a.139.139,0,0,0-.191-.047.14.14,0,0,0-.045.192l.4.634A.139.139,0,0,0,410.206,567.586Z" transform="translate(-401.901 -561.547)" fill="#aab3d1"/>
            <path id="パス_71172" data-name="パス 71172" d="M383.768,659.23a.139.139,0,0,0-.193.043l-.412.636a.141.141,0,0,0,.042.195.14.14,0,0,0,.192-.046l.411-.634A.141.141,0,0,0,383.768,659.23Z" transform="translate(-378.37 -643.83)" fill="#aab3d1"/>
            <path id="パス_71173" data-name="パス 71173" d="M358.367,702.884a.141.141,0,0,0-.19.06l-.348.674a.139.139,0,0,0,.059.189.142.142,0,0,0,.189-.063l.346-.67A.139.139,0,0,0,358.367,702.884Z" transform="translate(-355.844 -682.661)" fill="#aab3d1"/>
            <path id="パス_71174" data-name="パス 71174" d="M363.254,723.7c.22.116.443.225.669.326a.136.136,0,0,0,.183-.069.14.14,0,0,0-.069-.183q-.332-.149-.653-.318a.139.139,0,0,0-.131.245Z" transform="translate(-360.619 -700.955)" fill="#aab3d1"/>
            <path id="パス_71175" data-name="パス 71175" d="M366.358,688.069a.141.141,0,0,0-.192.053l-.372.661a.139.139,0,0,0,.052.191.142.142,0,0,0,.191-.056l.37-.657A.139.139,0,0,0,366.358,688.069Z" transform="translate(-362.926 -669.482)" fill="#aab3d1"/>
            <path id="パス_71176" data-name="パス 71176" d="M442.065,582.633c.165-.19.337-.374.507-.559a.139.139,0,1,0-.2-.187c-.171.186-.343.371-.509.562a.141.141,0,0,0,.009.2A.14.14,0,0,0,442.065,582.633Z" transform="translate(-430.562 -575.018)" fill="#aab3d1"/>
            <path id="パス_71177" data-name="パス 71177" d="M348.9,697.011a.137.137,0,0,0,.159.113.139.139,0,0,0,.114-.159c-.041-.24-.076-.481-.108-.723a.139.139,0,0,0-.156-.118.137.137,0,0,0-.119.155C348.821,696.523,348.856,696.768,348.9,697.011Z" transform="translate(-347.816 -676.662)" fill="#aab3d1"/>
            <path id="パス_71178" data-name="パス 71178" d="M378.314,730.363c.232.084.462.174.7.251a.139.139,0,0,0,.091-.262c-.232-.076-.459-.165-.688-.247a.137.137,0,0,0-.178.079A.139.139,0,0,0,378.314,730.363Z" transform="translate(-373.999 -706.876)" fill="#aab3d1"/>
            <path id="パス_71179" data-name="パス 71179" d="M374.848,673.52a.14.14,0,0,0-.193.048l-.393.648a.139.139,0,0,0,.046.193.141.141,0,0,0,.192-.05l.391-.646A.141.141,0,0,0,374.848,673.52Z" transform="translate(-370.456 -656.54)" fill="#aab3d1"/>
          </g>
        </g>
      </g>
      <g id="グループ_4628" data-name="グループ 4628" transform="translate(0 0)">
        <g id="グループ_4622" data-name="グループ 4622" transform="translate(23.674 0)">
          <path id="パス_71180" data-name="パス 71180" d="M285.035,33.263l-.164-.06a1.416,1.416,0,0,0-1.817.841l-.3.815-.351.957L260.06,96.669l2.822,1.036,22.343-60.853.351-.957.3-.815A1.416,1.416,0,0,0,285.035,33.263Zm-1.83,1.762.288-.784a.941.941,0,0,1,1.206-.558l.158.058a.94.94,0,0,1,.558,1.206l-.288.784Z" transform="translate(-260.06 -33.115)" fill="#b8bdc4"/>
          <path id="パス_71181" data-name="パス 71181" d="M301.789,37.2l-.2.548a.936.936,0,0,1,.092.83l-.288.784-.35-.128-22.694,61.81.8.293L301.49,40.489l.352-.957.3-.815A1.416,1.416,0,0,0,301.789,37.2Z" transform="translate(-276.325 -36.752)" fill="#b8bdc4" opacity="0.3" style="mix-blend-mode: multiply;isolation: isolate"/>
        </g>
        <g id="グループ_4624" data-name="グループ 4624" transform="translate(9.107 61.579)">
          <rect id="長方形_28689" data-name="長方形 28689" width="6.118" height="3.616" transform="matrix(0.345, -0.939, 0.939, 0.345, 12.858, 5.743)" fill="#4dab54"/>
          <path id="パス_71182" data-name="パス 71182" d="M143.957,614.309c-3.58-1.314-11.037-2.42-15.61,6.185L140.1,624.81l11.754,4.316C153.937,619.606,147.537,615.623,143.957,614.309Z" transform="translate(-128.347 -610.814)" fill="#4dab54"/>
          <path id="パス_71183" data-name="パス 71183" d="M163.2,660.945a12.315,12.315,0,0,0-1.025,1.375l17.206,6.318a12.207,12.207,0,0,0,.108-1.711Z" transform="translate(-158.431 -653.089)" fill="#4dab54" opacity="0.3" style="mix-blend-mode: multiply;isolation: isolate"/>
          <g id="グループ_4623" data-name="グループ 4623" transform="translate(6.144 4.721)" opacity="0.3" style="mix-blend-mode: multiply;isolation: isolate">
            <path id="パス_71184" data-name="パス 71184" d="M270.017,651.357l5.229,1.92a8,8,0,0,0-1.409-3.2,9.178,9.178,0,0,0-2.509-2.288Z" transform="translate(-260.493 -646.107)" fill="#4dab54"/>
            <path id="パス_71185" data-name="パス 71185" d="M190.446,632.7a9.171,9.171,0,0,0-3.394.121,8.012,8.012,0,0,0-3.147,1.53l5.23,1.92Z" transform="translate(-183.905 -632.601)" fill="#4dab54"/>
          </g>
        </g>
        <g id="グループ_4627" data-name="グループ 4627" transform="translate(0 71.259)">
          <path id="パス_71186" data-name="パス 71186" d="M78.615,686.069l-11.754-4.316-11.754-4.316C52.877,681.775,49.362,688.5,46,693.9c3.655,2.756,10.826,5.712,13.892,6.837s10.446,3.513,15.016,3.777C75.836,698.223,77.509,690.82,78.615,686.069Z" transform="translate(-46 -677.438)" fill="#7c523d"/>
          <g id="グループ_4625" data-name="グループ 4625" transform="translate(2.621 8.422)" opacity="0.4" style="mix-blend-mode: multiply;isolation: isolate">
            <path id="パス_71187" data-name="パス 71187" d="M109.307,798.743c-.437.91-1.592,2.847-2.177,3.818,1.061.5,2.118.97,3.109,1.393.756-2.532,1.982-6.557,2.644-8.658-.536,1.076-2.866,4.981-4.275,7.151A16.364,16.364,0,0,1,109.307,798.743Z" transform="translate(-102.99 -790.682)" fill="#7c523d"/>
            <path id="パス_71188" data-name="パス 71188" d="M156.9,843.221c.48-1.881,1.253-4.274,1.486-5.148-.351.711-1.407,3.133-2.17,4.88Q156.569,843.095,156.9,843.221Z" transform="translate(-146.644 -828.729)" fill="#7c523d"/>
            <path id="パス_71189" data-name="パス 71189" d="M70.989,773.877c.3-2.075,2.328-7.163,2.966-9.23-1.209,2.5-3,6.284-4.255,8.516C70.116,773.4,70.548,773.641,70.989,773.877Z" transform="translate(-69.7 -763.424)" fill="#7c523d"/>
            <path id="パス_71190" data-name="パス 71190" d="M212.521,805.47c.575-3.58,2.3-10.767,2.968-13.445-1.106,2.469-3.15,8.35-5.057,12.174a35.585,35.585,0,0,1,.547-5.769c-.152.415-1.244,2.748-2.249,4.972.095-1.025,1.722-7,2.456-9.515-.839,1.818-2.775,7.1-4.039,10.088C208.8,804.491,210.673,805.028,212.521,805.47Z" transform="translate(-191.946 -787.774)" fill="#7c523d"/>
            <path id="パス_71191" data-name="パス 71191" d="M288.658,753.8l-.571-.209c-.6,2.937-1.542,6.837-2.172,9.455-.013-.735.565-4.365.724-6.145-.529,2.469-1.288,5.113-2.76,11.69a37.317,37.317,0,0,1,.082-5.485c-.423,1.745-1.2,6.3-1.8,8.794a24.865,24.865,0,0,0,2.79.345C285.878,765.95,287.552,758.547,288.658,753.8Z" transform="translate(-258.664 -753.587)" fill="#7c523d"/>
            <path id="パス_71192" data-name="パス 71192" d="M265.429,880.689c.024-1.526.312-3.438.443-4.6-.387,1.115-1,2.958-1.536,4.366Q264.888,880.583,265.429,880.689Z" transform="translate(-242.811 -862.545)" fill="#7c523d"/>
            <path id="パス_71193" data-name="パス 71193" d="M179.059,825.947c.74-2.614,1.77-6.077,2.521-8.382-.5,1.171-2.126,5.2-3.454,8.06C178.414,825.726,178.726,825.834,179.059,825.947Z" transform="translate(-166.135 -810.489)" fill="#7c523d"/>
          </g>
          <g id="グループ_4626" data-name="グループ 4626" transform="translate(6.807)" opacity="0.1" style="mix-blend-mode: multiply;isolation: isolate">
            <path id="パス_71194" data-name="パス 71194" d="M236.7,718.892c-.08.477-.311,1.618-.337,1.914.161-.351.69-1.255,1.08-1.913l-1.094-.4c-.115.507-.379,1.276-.474,1.687A14.014,14.014,0,0,1,236.7,718.892Z" transform="translate(-221.68 -713.951)" fill="#7c523d"/>
            <path id="パス_71195" data-name="パス 71195" d="M280.252,735.383a7.473,7.473,0,0,1-.124.756c.154-.315.317-.667.442-.91l-.607-.223c-.224.778-.581,1.879-.644,2.179C279.686,736.507,280.182,735.475,280.252,735.383Z" transform="translate(-260.322 -728.639)" fill="#7c523d"/>
            <path id="パス_71196" data-name="パス 71196" d="M304,742.643l-.3-.109c-.05.353-.194.829-.241,1.09C303.642,743.267,303.838,742.914,304,742.643Z" transform="translate(-281.8 -735.335)" fill="#7c523d"/>
            <path id="パス_71197" data-name="パス 71197" d="M184.577,699.279c-.074.523-.333,1.59-.373,1.764a12.255,12.255,0,0,1,.979-1.66,7.749,7.749,0,0,1-.06,1.125c.1-.218.389-.769.6-1.139l-1.552-.57a12.449,12.449,0,0,1-.293,1.683C184.032,700.164,184.487,699.419,184.577,699.279Z" transform="translate(-175.435 -696.438)" fill="#7c523d"/>
            <path id="パス_71198" data-name="パス 71198" d="M268.33,730.248l-.173-.064c-.19.618-.43,1.4-.478,1.533C267.99,731.1,268.187,730.607,268.33,730.248Z" transform="translate(-249.969 -724.35)" fill="#7c523d"/>
            <path id="パス_71199" data-name="パス 71199" d="M158.939,689.235l-.419-.154a10.621,10.621,0,0,1-.191,1.124A6.229,6.229,0,0,1,158.939,689.235Z" transform="translate(-152.713 -687.793)" fill="#7c523d"/>
            <path id="パス_71200" data-name="パス 71200" d="M216.068,710.575c-.078.381-.246.87-.315,1.145a4.688,4.688,0,0,1,.661-1.018Z" transform="translate(-203.786 -706.91)" fill="#7c523d"/>
            <path id="パス_71201" data-name="パス 71201" d="M317.3,749.268a15.48,15.48,0,0,1,.759-1.524l-.557-.2c-.083.337-.177.712-.221.85.174-.313.3-.537.318-.578C317.481,748.382,317.352,749.053,317.3,749.268Z" transform="translate(-294.083 -739.787)" fill="#7c523d"/>
            <path id="パス_71202" data-name="パス 71202" d="M110.981,678.309a8.793,8.793,0,0,1-.232,1.188,12.14,12.14,0,0,1,1.073-1.335l-1.973-.724c-.665,1.293-1.445,2.8-2.3,4.42h0a41.662,41.662,0,0,1,2.74-3.8c-.072.54-.446,1.77-.529,2.21A19.949,19.949,0,0,1,110.981,678.309Z" transform="translate(-107.549 -677.438)" fill="#7c523d"/>
          </g>
          <path id="パス_71203" data-name="パス 71203" d="M134.267,720.617l-.365-.445-1.313,2.031-.774.648.634-3.071-.719.5-1.076,1.461-.085-1.187-.378-.4L129,721.942l-.053-1.283-.388-.378-.257-.739-1.011,1.33.41-2.574-1.365,2.317.141-1.847-.674.415.069-1.667-1.411,2.491.462-2.791-.649.347-.936,1.184-.116-1.182-.879,1.056.05-1.248-.6,1.177-.408.956-.619,3.406.756-.73.336.513.3.614,1.115-1.7.075,1.251,1.029-1.437.4.346-.321,2.337h.517l1-1.337.242.764.991-1.3-.28,2.191,1.208-1.88-.065,1.592.633-.307.575-.148.637-.31-.275,2.13,1.23-1.889-.093,1.63.263.675.081,1.136,1.684-2.988-.435,2.429,1.272-2.949Z" transform="translate(-112.496 -712.817)" fill="#7c523d" opacity="0.2" style="mix-blend-mode: screen;isolation: isolate"/>
        </g>
      </g>
      <g id="グループ_4630" data-name="グループ 4630" transform="translate(85.988 58.486)">
        <path id="パス_71204" data-name="パス 71204" d="M879.841,564.393l5.859,9.388a1.9,1.9,0,0,0,1.654.818,2.311,2.311,0,0,0,.962-.219,1.567,1.567,0,0,0,.849-2.232l-5.859-9.388a2.079,2.079,0,0,0-2.615-.6A1.567,1.567,0,0,0,879.841,564.393Zm.9-.616a1.16,1.16,0,0,1,.607-.623,1.464,1.464,0,0,1,.6-.138,1.2,1.2,0,0,1,1.039.513l.416.667c.118.189.05.261-.158.364s-1.438.608-1.645.685-.321.061-.412-.086l-.377-.6A.86.86,0,0,1,880.736,563.777Z" transform="translate(-873.421 -561.943)" fill="#4dab54"/>
        <path id="パス_71205" data-name="パス 71205" d="M864.836,625.125s-7.342-10.466-13.928-18.833a4.239,4.239,0,0,0-5.3-1.574c-2.154.829-16.817,6.793-18.723,7.539s-3.977,2.071-3.231,4.143,8.782,20.214,10.356,23.362Z" transform="translate(-823.496 -599.66)" fill="#4dab54"/>
        <path id="パス_71206" data-name="パス 71206" d="M949.369,792.2l.973,1.118L919.182,808.1l-.642-1.263Z" transform="translate(-908.028 -766.731)" fill="#53575e"/>
        <path id="パス_71207" data-name="パス 71207" d="M849.187,673.841c-1.917-4.962-4.462-11.579-4.742-12.459-.456-1.429.8-2.164,1.656-2.52v0c6.705-2.8,15.5-6.468,16.81-7.021,2.154-.911,3.953-1.693,6.11.373,2.528,2.421,14.363,14.318,14.363,14.318l-30.829,14.636C852.011,680.081,850.7,677.216,849.187,673.841Z" transform="translate(-842.042 -641.065)" fill="#63b366"/>
        <path id="パス_71208" data-name="パス 71208" d="M889.356,692.065v0c5.016-2.093,11.6-4.839,12.576-5.253,1.612-.682,2.958-1.266,4.571.279.617.591,2,1.986,3.523,3.728l-19.576,8.836c-1.088-2.83-2.182-5.234-2.332-5.7C887.777,692.881,888.717,692.331,889.356,692.065Z" transform="translate(-880.906 -672.378)" fill="#4dab54"/>
        <g id="グループ_4629" data-name="グループ 4629" transform="translate(10.097 19.606)">
          <path id="パス_71209" data-name="パス 71209" d="M1101.964,745.659a1.243,1.243,0,0,0,.924-2.074l-3.552-3.95a1.243,1.243,0,0,0-1.848,1.662l3.552,3.95a1.239,1.239,0,0,0,.924.412Z" transform="translate(-1077 -739.223)" fill="#4dab54"/>
          <path id="パス_71210" data-name="パス 71210" d="M1056.1,766.623a1.243,1.243,0,0,0,.981-2l-3.286-4.242a1.243,1.243,0,1,0-1.965,1.522l3.286,4.242a1.24,1.24,0,0,0,.984.482Z" transform="translate(-1036.448 -757.609)" fill="#4dab54"/>
          <path id="パス_71211" data-name="パス 71211" d="M1010.246,787.586a1.243,1.243,0,0,0,1.033-1.932l-3.021-4.534a1.243,1.243,0,1,0-2.068,1.378l3.02,4.534a1.241,1.241,0,0,0,1.035.554Z" transform="translate(-995.897 -775.994)" fill="#4dab54"/>
          <path id="パス_71212" data-name="パス 71212" d="M964.385,808.551a1.243,1.243,0,0,0,1.078-1.859l-2.755-4.826a1.243,1.243,0,0,0-2.158,1.232l2.755,4.826a1.242,1.242,0,0,0,1.081.627Z" transform="translate(-955.344 -794.38)" fill="#4dab54"/>
          <path id="パス_71213" data-name="パス 71213" d="M918.525,829.511a1.243,1.243,0,0,0,1.117-1.786l-2.49-5.119a1.243,1.243,0,0,0-2.235,1.087l2.489,5.119a1.243,1.243,0,0,0,1.119.7Z" transform="translate(-914.791 -812.762)" fill="#4dab54"/>
        </g>
      </g>
      <g id="グループ_4631" data-name="グループ 4631" transform="translate(48.604 84.472)">
        <path id="パス_71214" data-name="パス 71214" d="M509.962,801.638l-8.736-4.727-15.755,5.967,8.736,4.727,15.755-5.967Z" transform="translate(-485.472 -796.911)" fill="#f76b96"/>
        <path id="パス_71215" data-name="パス 71215" d="M485.472,860.409v5.833l8.736,4.726v-5.833Z" transform="translate(-485.472 -853.386)" fill="#ffd14a"/>
        <path id="パス_71216" data-name="パス 71216" d="M564.461,855.161v5.833l15.755-5.967v-5.833Z" transform="translate(-555.725 -843.412)" fill="#ffbd38"/>
        <path id="パス_71217" data-name="パス 71217" d="M485.472,850.863v1.056l8.736,4.727V855.59Z" transform="translate(-485.472 -844.896)" fill="#f05e8c"/>
        <path id="パス_71218" data-name="パス 71218" d="M564.461,845.615v1.056l15.755-5.967v-1.056Z" transform="translate(-555.725 -834.922)" fill="#e65a80"/>
      </g>
      <g id="グループ_4636" data-name="グループ 4636" transform="translate(74.101 65.098)">
        <g id="グループ_4633" data-name="グループ 4633" transform="translate(3.339 9.233)">
          <path id="パス_71219" data-name="パス 71219" d="M753.308,705.86a14.068,14.068,0,0,1-1.49,4.759,13.682,13.682,0,0,1-2.442,3.686,8.641,8.641,0,0,0-2.367,3.231,29.652,29.652,0,0,0-.779,8.1c.123,2.638.552,3.749,2.47,4.1a43.091,43.091,0,0,0,9.366.126c2.853-.379,3.528-.813,3.687-3.282a38.566,38.566,0,0,0-.96-10.376,101.477,101.477,0,0,0-3.408-10.351C756.325,704.725,754.406,705.33,753.308,705.86Z" transform="translate(-746.208 -705.216)" fill="#70b3d6"/>
          <path id="パス_71220" data-name="パス 71220" d="M782.968,821.653c0,1.708-2.241,3.093-5.006,3.093s-5.006-1.385-5.006-3.093,2.241-3.093,5.006-3.093S782.968,819.945,782.968,821.653Z" transform="translate(-769.997 -806.025)" fill="#a3cceb"/>
          <path id="パス_71221" data-name="パス 71221" d="M785.208,774.408a38.578,38.578,0,0,0-.959-10.376c-.273-1.063-.853-3.023-1.508-5.049-.393,6.65-3.757,16.713-10.161,18.648a44.874,44.874,0,0,0,8.942.059C784.374,777.311,785.049,776.877,785.208,774.408Z" transform="translate(-769.662 -753.036)" fill="#70b3d6" opacity="0.3" style="mix-blend-mode: multiply;isolation: isolate"/>
          <g id="グループ_4632" data-name="グループ 4632" transform="translate(1.406 9.54)" opacity="0.3" style="mix-blend-mode: screen;isolation: isolate">
            <path id="パス_71222" data-name="パス 71222" d="M772.157,792.3c.423.795-.1,1.53-.987,2s-1.787.5-2.21-.3a1.82,1.82,0,0,1,3.2-1.7Z" transform="translate(-767.694 -791.481)" fill="#70b3d6"/>
            <path id="パス_71223" data-name="パス 71223" d="M760.58,821.879a.831.831,0,1,1-.786-.874A.831.831,0,0,1,760.58,821.879Z" transform="translate(-758.918 -817.738)" fill="#70b3d6"/>
          </g>
        </g>
        <g id="グループ_4635" data-name="グループ 4635">
          <g id="グループ_4634" data-name="グループ 4634">
            <path id="パス_71224" data-name="パス 71224" d="M719.512,645.751c.27.569.246,2.508-.871,4.7-1.225,2.4-2.266,3.521-1.78,3.635.644.152,4.582-3.626,5.946-7.247A2.486,2.486,0,0,0,719.512,645.751Z" transform="translate(-716.659 -642.867)" fill="#f1f1f2"/>
            <path id="パス_71225" data-name="パス 71225" d="M746.473,629.2c.53-.341,3.427-1.439,3.616-2.14s-2.4-3.9-3.787-4.791-10.376-.417-12.364-.36v3.124A12.981,12.981,0,0,1,742.4,629.2C743.575,629.748,746.018,629.9,746.473,629.2Z" transform="translate(-731.956 -621.733)" fill="#f1f1f2"/>
            <rect id="長方形_28690" data-name="長方形 28690" width="1.982" height="3.124" transform="translate(0 0.176)" fill="#db374b"/>
            <rect id="長方形_28691" data-name="長方形 28691" width="4.077" height="2.411" transform="translate(10.439 7.466)" fill="#db374b"/>
          </g>
          <path id="パス_71226" data-name="パス 71226" d="M818.1,633.144c.176-.652-2.054-3.463-3.479-4.57.583,3.1.523,8.231-4.215,9.045v.075h4.078v-2.411C815.016,634.943,817.914,633.845,818.1,633.144Z" transform="translate(-799.97 -627.817)" fill="#b3cfe7" opacity="0.3" style="mix-blend-mode: multiply;isolation: isolate"/>
        </g>
      </g>
    </g>
  </g>
</svg>
