<svg xmlns="http://www.w3.org/2000/svg" width="200" height="120" viewBox="0 0 200 120"><g transform="translate(-176 -3923)"><rect width="200" height="120" rx="10" transform="translate(176 3923)" fill="#dcdcdc" opacity="0"/><g transform="translate(216.011 3937.181)"><path d="M3.915,0h0A3.917,3.917,0,0,1,7.832,3.917v3.1a3.914,3.914,0,0,1-3.914,3.914h0A3.915,3.915,0,0,1,0,7.018v-3.1A3.915,3.915,0,0,1,3.915,0Z" transform="translate(0.493 32.484)"/><path d="M3832.036,4464.757c0,.653-26.163,1.183-58.437,1.183s-58.437-.53-58.437-1.183,26.162-1.187,58.437-1.187S3832.036,4464.1,3832.036,4464.757Z" transform="translate(-3713.424 -4369.892)" fill="#9e9e9f"/><path d="M3966.426,4217.338h-26.551a6.2,6.2,0,0,1,6.2,6.2v41.86h26.552v-41.86A6.2,6.2,0,0,0,3966.426,4217.338Z" transform="translate(-3852.646 -4217.338)" fill="#397156"/><path d="M3771.382,4265.4v-41.86a6.2,6.2,0,0,1,6.2-6.2h57.9a6.2,6.2,0,0,1,6.2,6.2v41.86Z" transform="translate(-3748.255 -4217.338)" fill="#47856b"/><rect width="26.786" height="16.447" rx="8.223" transform="translate(44.468 15.806)" fill="#fff" opacity="0.4"/><g transform="translate(30.299 11.941)"><path d="M3846.871,4279h-53.938l-.3-.31V4258.1a8.493,8.493,0,0,1,8.4-8.567h37.754a8.493,8.493,0,0,1,8.4,8.567v20.572Zm-52.405-1.641h50.876l.228-.233V4258.1a6.868,6.868,0,0,0-6.789-6.928h-37.754a6.868,6.868,0,0,0-6.789,6.928v19.01Z" transform="translate(-3791.719 -4249.228)" fill="#b4b4b5"/><path d="M3844.475,4278.189h-53.937l-.3-.31v-20.588a8.495,8.495,0,0,1,8.4-8.568h37.754a8.494,8.494,0,0,1,8.4,8.568v20.571Zm-52.4-1.641h50.876l.228-.232v-19.025a6.867,6.867,0,0,0-6.79-6.927h-37.754a6.868,6.868,0,0,0-6.79,6.927v19.01Z" transform="translate(-3790.235 -4248.724)" fill="#eeeeef"/><g transform="translate(17.753 1.646)"><rect width="0.505" height="26.237" transform="translate(0.944)" fill="#7a7a7a"/><rect width="0.942" height="26.237" fill="#ccc"/></g><g transform="translate(34.903 1.646)"><rect width="0.506" height="26.237" transform="translate(0.944)" fill="#7a7a7a"/><rect width="0.941" height="26.237" fill="#ccc"/></g></g><path d="M3806.187,4275.926h-85.579l12.16-29.555a8.322,8.322,0,0,1,7.471-3.887H3797.2a5.9,5.9,0,0,1,5.253,4.53C3803.036,4249.461,3806.187,4275.926,3806.187,4275.926Zm-10.129-23.815a3.1,3.1,0,0,0-3.1-3.1h-36.582a3.1,3.1,0,0,0-3.1,3.1V4266.6a3.1,3.1,0,0,0,3.1,3.1h36.582a3.1,3.1,0,0,0,3.1-3.1Zm-51.5-4.525h-7.21a3.557,3.557,0,0,0-3.426,2c-.638,1.283-8.639,21.875-9.668,23.993s.23,2.17.61,2.17,13.883.046,15.686.046,1.862-.923,1.894-1.487,2.925-23.443,3.141-24.967S3745,4247.586,3744.558,4247.586Z" transform="translate(-3716.797 -4232.917)" fill="#3e3a39"/><path d="M3749.846,4255.894h-7.21a3.556,3.556,0,0,0-3.426,2c-.637,1.283-8.638,21.874-9.668,23.993s.23,2.17.61,2.17,13.884.047,15.686.047,1.862-.924,1.894-1.487,2.925-23.444,3.14-24.967S3750.292,4255.894,3749.846,4255.894Z" transform="translate(-3722.087 -4241.226)" fill="#fff" opacity="0.2"/><g transform="translate(33.365 26.068)"><path d="M3822.2,4292.771a1.991,1.991,0,0,1-1.964,1.859h-9.817a1.74,1.74,0,0,1-1.757-1.859l.9-5.054a1.989,1.989,0,0,1,1.963-1.859h8.577a1.739,1.739,0,0,1,1.757,1.859Z" transform="translate(-3804.714 -4285.858)" fill="#1a1a1a"/><path d="M3808.6,4313.38a2.819,2.819,0,0,1,2.634,1.822H3818l.169-1.145a2.281,2.281,0,0,0-1.992-2.355h-15.712a2.372,2.372,0,0,0-2.17,1.677Z" transform="translate(-3798.294 -4301.87)" fill="#1a1a1a"/></g><g transform="translate(60.304 26.068)"><path d="M3894,4292.771a1.992,1.992,0,0,1-1.963,1.859h-9.818a1.74,1.74,0,0,1-1.756-1.859l.9-5.054a1.99,1.99,0,0,1,1.965-1.859h8.577a1.739,1.739,0,0,1,1.756,1.859Z" transform="translate(-3876.137 -4285.858)" fill="#1a1a1a"/><path d="M3887.362,4311.7h-15.714a2.371,2.371,0,0,0-2.223,1.86l-.323,1.64h10.015c-.036.69-.061,1.149-.068,1.291a1.65,1.65,0,0,1-.982,1.489h10.708l.576-3.925A2.279,2.279,0,0,0,3887.362,4311.7Z" transform="translate(-3869.102 -4301.87)" fill="#1a1a1a"/></g><path d="M3914.554,4245.677a4.306,4.306,0,0,0-4.074-3.193h-3.635a5.119,5.119,0,0,0-4.738,4.53c-.3,2.447-1.143,27.807-1.143,27.807l-.127,1.619V4295.7h8.5a.682.682,0,0,1,.711.663,3.249,3.249,0,0,1,1.12-.215c1.351,0,2.407,1.109,3.2,2.779h4.455v-23Zm1.842,28.209a1.611,1.611,0,0,1-1.35.584,18.556,18.556,0,0,0-7.189,1.318,6.367,6.367,0,0,1-2.094.542h-1.183a2.257,2.257,0,0,1-1.7-.607,2.472,2.472,0,0,1-.554-1.9c.062-1.369.171-4.042.3-7.142.3-7.4.675-16.619.787-17.551a3.315,3.315,0,0,1,3.079-2.671l4.785,0a2,2,0,0,1,1.991,1.733l3.424,23.734A2.5,2.5,0,0,1,3916.4,4273.886Z" transform="translate(-3828.46 -4232.917)" fill="#b4b4b5"/><path d="M3919.108,4278.4l-3.426-23.736a2,2,0,0,0-1.99-1.731h-4.785a3.316,3.316,0,0,0-3.078,2.672c-.112.932-.485,10.147-.787,17.551-.125,3.1-.234,5.773-.3,7.142a2.468,2.468,0,0,0,.553,1.9,2.249,2.249,0,0,0,1.7.607h1.184a6.4,6.4,0,0,0,2.094-.54,18.534,18.534,0,0,1,7.189-1.32,1.612,1.612,0,0,0,1.35-.584A2.512,2.512,0,0,0,3919.108,4278.4Zm-.938,1.456a.834.834,0,0,1-.7.269,19.584,19.584,0,0,0-7.473,1.368,5.908,5.908,0,0,1-1.811.491H3907a1.489,1.489,0,0,1-1.105-.352,1.754,1.754,0,0,1-.327-1.3c.063-1.37.17-4.043.3-7.145.284-7,.673-16.584.783-17.485.209-1.719,2.254-1.946,2.3-1.954h4.746a1.192,1.192,0,0,1,1.179,1.032l3.433,23.775A1.79,1.79,0,0,1,3918.17,4279.856Z" transform="translate(-3830.879 -4239.392)" fill="#231815"/><path d="M3916.21,4256.118a1.193,1.193,0,0,0-1.18-1.03h-4.747c-.047.007-2.091.233-2.3,1.954-.11.9-.5,10.484-.783,17.483-.127,3.1-.234,5.776-.3,7.146a1.745,1.745,0,0,0,.327,1.295,1.489,1.489,0,0,0,1.105.352h1.184a5.88,5.88,0,0,0,1.81-.491,19.593,19.593,0,0,1,7.473-1.367.838.838,0,0,0,.705-.269,1.8,1.8,0,0,0,.135-1.3Z" transform="translate(-3832.216 -4240.725)" fill="#fff" opacity="0.2"/><g transform="translate(73.863 13.542)"><path d="M3908.183,4282.8H3907a2.249,2.249,0,0,1-1.7-.607,2.468,2.468,0,0,1-.553-1.9c.062-1.369.171-4.042.3-7.142.3-7.4.674-16.619.787-17.551a3.316,3.316,0,0,1,3.078-2.672h4.785a2,2,0,0,1,1.99,1.731l3.426,23.736a2.512,2.512,0,0,1-.293,1.96,1.612,1.612,0,0,1-1.35.584,18.534,18.534,0,0,0-7.189,1.32A6.4,6.4,0,0,1,3908.183,4282.8Zm.765-29.053c-.048.008-2.092.235-2.3,1.954-.11.9-.5,10.485-.783,17.485-.127,3.1-.234,5.775-.3,7.145a1.754,1.754,0,0,0,.327,1.3,1.489,1.489,0,0,0,1.105.352h1.184a5.908,5.908,0,0,0,1.811-.491,19.584,19.584,0,0,1,7.473-1.368.834.834,0,0,0,.7-.269,1.79,1.79,0,0,0,.135-1.3l-3.433-23.775a1.192,1.192,0,0,0-1.179-1.032Z" transform="translate(-3904.742 -4252.934)" fill="#231815"/></g><g transform="translate(23.711 33.98)"><path d="M3774.6,4310.252a5.4,5.4,0,0,1,4.5-2.232,7.339,7.339,0,0,1,5.133,2.232h1.688a9.065,9.065,0,0,0-7.015-3.6,6.5,6.5,0,0,0-5.99,3.6Z" transform="translate(-3772.916 -4306.655)"/></g><g transform="translate(6.339 37.578)"><path d="M3727.336,4320.518c.187.328.7.508,1.444.508h59.737c1.686,0,2.577-.606,2.649-1.8.007-.142.032-.6.069-1.291h-24.015a2.82,2.82,0,0,0-2.634-1.822h-29.336a6.739,6.739,0,0,0-3.984,1.822h-3.1c-.332.776-.555,1.274-.65,1.434A1.2,1.2,0,0,0,3727.336,4320.518Z" transform="translate(-3727.254 -4316.111)" fill="#1a1a1a"/></g><path d="M2.024,0H11.25a2.023,2.023,0,0,1,2.023,2.023v0A2.023,2.023,0,0,1,11.25,4.046H2.021A2.021,2.021,0,0,1,0,2.025v0A2.024,2.024,0,0,1,2.024,0Z" transform="translate(34.125 15.601)" fill="#1a1a1a"/><path d="M3983.135,4397.6c-2.459,0-4.452,5.941-4.452,13.271s1.992,13.274,4.452,13.274h5.876c-2.458,0-4.451-5.945-4.451-13.274s1.993-13.271,4.451-13.271Z" transform="translate(-3876.689 -4329.023)" fill="#231815"/><path d="M.824,0h26.1a.823.823,0,0,1,.823.823v0a.823.823,0,0,1-.823.823H.822A.822.822,0,0,1,0,.825v0A.824.824,0,0,1,.824,0Z" transform="translate(91.415 48.059)" fill="#bebfbf"/><path d="M3948.114,4345.311h1.526a.465.465,0,0,1-.463-.467v-.717a.463.463,0,0,1,.463-.463h-1.526Z" transform="translate(-3857.75 -4295.604)" fill="#888"/><path d="M.9,0h25.95a.9.9,0,0,1,.9.9v0a.9.9,0,0,1-.9.9H.9A.9.9,0,0,1,0,.9v0A.9.9,0,0,1,.9,0Z" transform="translate(91.415 64.243)" fill="#9e9e9f"/><path d="M4000.52,4390.911h-3.077c-.9,0-1.647.8-2.254,1.938.01.019.019.041.028.059.093.177.183.358.268.548h3.753c1.817,0,3.38,3.253,4.071,7.911h.781s.545.016.545-.827C4004.634,4399.077,4003.15,4390.911,4000.52,4390.911Z" transform="translate(-3886.916 -4324.875)" fill="#383231"/><path d="M4003.032,4410.875c0,7.329-1.993,13.274-4.45,13.274s-4.451-5.945-4.451-13.274,1.993-13.271,4.451-13.271S4003.032,4403.544,4003.032,4410.875Z" transform="translate(-3886.26 -4329.023)" fill="#595757"/><path d="M4005.062,4418.907c0,4.6-1.135,8.338-2.536,8.338s-2.536-3.733-2.536-8.338,1.135-8.341,2.536-8.341S4005.062,4414.3,4005.062,4418.907Z" transform="translate(-3889.89 -4337.053)" fill="#eeeeef"/><path d="M3759.251,4440.762c.474,5.81,2.229,10.125,4.323,10.125s3.851-4.315,4.324-10.125Z" transform="translate(-3740.739 -4355.761)" fill="#231815"/><path d="M3749.681,4440.762H3743.8c.474,5.81,2.229,10.125,4.324,10.125H3754C3751.91,4450.888,3750.154,4446.572,3749.681,4440.762Z" transform="translate(-3731.169 -4355.761)" fill="#3e3a39"/><path d="M3838.7,4440.762c.473,5.81,2.229,10.125,4.323,10.125s3.849-4.315,4.323-10.125Z" transform="translate(-3789.963 -4355.761)" fill="#231815"/><path d="M3829.129,4440.762h-5.878c.475,5.81,2.231,10.125,4.325,10.125h5.876C3831.359,4450.888,3829.6,4446.572,3829.129,4440.762Z" transform="translate(-3780.39 -4355.761)" fill="#3e3a39"/><path d="M3923.508,4410.875c0,7.329-1.992,13.274-4.449,13.274s-4.451-5.945-4.451-13.274,1.992-13.271,4.451-13.271S3923.508,4403.544,3923.508,4410.875Z" transform="translate(-3836.992 -4329.023)" fill="#595757"/><path d="M3925.538,4418.907c0,4.6-1.135,8.338-2.537,8.338s-2.536-3.733-2.536-8.338,1.137-8.341,2.536-8.341S3925.538,4414.3,3925.538,4418.907Z" transform="translate(-3840.62 -4337.053)" fill="#eeeeef"/><path d="M3932.387,4402.166c0-7.33,1.993-13.271,4.451-13.271h-3.759c-.095-.21-.188-.417-.29-.609-.1.194-.2.4-.294.609h0c-.069.156-.138.316-.2.48a23.982,23.982,0,0,0-1.478,6.6.821.821,0,0,1-.863.826h-6.061s-.543.016-.543-.826a24.729,24.729,0,0,1,1.505-6.6c.667-1.688,1.544-3.027,2.607-3.027l-17.032-.022c-.791-1.67-1.849-2.753-3.2-2.779-2.83-.054-3.876,3.93-4.7,8.154-.593,2.983-1.075,6.086-1.98,7.973a11.538,11.538,0,0,1-4.225,4.809.1.1,0,0,1,0,.016,8.511,8.511,0,0,1-1.854.913,10.605,10.605,0,0,0,2.02.99c.593,5.25,2.253,9.037,4.214,9.037h5.876c-1.844,0-3.427-3.345-4.1-8.113h0a37.156,37.156,0,0,1-.348-5.16c0-7.33,1.992-13.271,4.45-13.271,1.054,0,2.022,1.1,2.784,2.923h0a16.117,16.117,0,0,1,.687,2.048l0,.017c.1.367.191.75.276,1.147,0,.018.007.036.011.054q.128.6.233,1.242s0,.009,0,.013q.105.651.189,1.339c0,.015,0,.029.005.044q.078.656.133,1.345c0,.04.006.084.01.125.034.442.061.9.08,1.354,0,.042,0,.081,0,.122q.029.738.03,1.5,0,.62-.021,1.222c0,.166-.014.328-.021.494-.013.285-.024.571-.043.848.062-.085.117-.181.173-.274h10.455a1.873,1.873,0,0,0,1.868-1.5h3.073c.137,6.963,2.074,12.486,4.443,12.486h5.877C3934.38,4415.438,3932.387,4409.5,3932.387,4402.166Z" transform="translate(-3824.517 -4320.313)" fill="#231815"/><path d="M3923.508,4410.875c0,7.329-1.992,13.274-4.449,13.274s-4.451-5.945-4.451-13.274,1.992-13.271,4.451-13.271S3923.508,4403.544,3923.508,4410.875Z" transform="translate(-3836.992 -4329.023)" fill="#595757"/><path d="M3925.538,4418.907c0,4.6-1.135,8.338-2.537,8.338s-2.536-3.733-2.536-8.338,1.137-8.341,2.536-8.341S3925.538,4414.3,3925.538,4418.907Z" transform="translate(-3840.62 -4337.053)" fill="#eeeeef"/><path d="M4006.179,4428.415c0,1.383-.342,2.5-.762,2.5s-.76-1.119-.76-2.5.34-2.5.76-2.5S4006.179,4427.032,4006.179,4428.415Z" transform="translate(-3892.781 -4346.562)" fill="#595757"/><path d="M3926.653,4428.415c0,1.383-.341,2.5-.76,2.5s-.761-1.119-.761-2.5.341-2.5.761-2.5S3926.653,4427.032,3926.653,4428.415Z" transform="translate(-3843.511 -4346.562)" fill="#595757"/><path d="M4002.907,4428.121c-1.495,0-2.3-3.576-2.3-6.943s.807-6.946,2.3-6.946,2.3,3.579,2.3,6.946S4004.4,4428.121,4002.907,4428.121Zm0-13.344c-.828,0-1.756,2.737-1.756,6.4s.927,6.4,1.756,6.4,1.756-2.737,1.756-6.4S4003.736,4414.777,4002.907,4414.777Z" transform="translate(-3890.271 -4339.324)" fill="#231815"/><path d="M3923.383,4428.121c-1.5,0-2.3-3.576-2.3-6.943s.807-6.946,2.3-6.946,2.3,3.579,2.3,6.946S3924.879,4428.121,3923.383,4428.121Zm0-13.344c-.733,0-1.756,2.436-1.756,6.4s1.022,6.4,1.756,6.4,1.756-2.434,1.756-6.4S3924.117,4414.777,3923.383,4414.777Z" transform="translate(-3841.003 -4339.324)" fill="#231815"/><path d="M3886.808,4393.126s-1.457,18.122-2.916,18.122h4.271a11.232,11.232,0,0,0,5.832-5.64c1.393-2.9,1.784-8.688,3.111-12.482Z" transform="translate(-3817.961 -4326.249)" fill="#1a1a1a"/><path d="M3903.589,4382.372h-8.752l-3.281,4.092h10.3c.581-1.668,1.32-2.947,2.446-3.43A.681.681,0,0,0,3903.589,4382.372Z" transform="translate(-3822.709 -4319.585)" fill="#262626"/><path d="M3710.592,4393.126s-.032,18.122,5.435,18.122h60.5c1.459,0,2.916-18.122,2.916-18.122Z" transform="translate(-3710.592 -4326.249)" fill="#333"/><path d="M3710.593,4386.462l1.974-4.091h70.153l-3.28,4.091Z" transform="translate(-3710.592 -4319.585)" fill="#4d4d4d"/><path d="M3902.32,4350.512h-1.481v3.692h2.1v-2.675S3902.888,4350.512,3902.32,4350.512Z" transform="translate(-3828.46 -4299.846)" fill="#ec6c00"/><rect width="2.097" height="8.425" transform="translate(72.378 54.361)" fill="#dbdcdc"/><path d="M3736,4242.484c-6.377,0-7.856,3.887-7.856,3.887s-11.462,27.415-11.937,28.45a7.066,7.066,0,0,0-.286,2.888l-.136,5.873h8.949c3.213,0,3.222,3.693,3.222,3.693v8.427h58.232V4276.44l.126-1.619s.846-25.36,1.144-27.807a5.117,5.117,0,0,1,4.736-4.53Zm48.879,31.173c-.047.775-.475,2.573-3.466,2.573h-59.738c-1.349,0-1.917-.5-2.156-.922a1.935,1.935,0,0,1,.192-1.975c.344-.577,3.01-7.175,5.364-12.994,2.949-7.292,4.759-11.752,5.042-12.2l.036-.056c.594-.939,1.269-2,2.834-2.047,1.353-.039,6.4-.058,15-.058,8.424,0,19.926.018,34.189.054l1.339,0a2.791,2.791,0,0,1,1.937.876,2.471,2.471,0,0,1,.7,1.831C3786.082,4250.163,3784.947,4272.488,3784.876,4273.657Z" transform="translate(-3713.808 -4232.917)" fill="#e2e2e2"/><path d="M3792.441,4255.732a1.647,1.647,0,0,0-.474-1.225,1.979,1.979,0,0,0-1.344-.622l-1.342,0c-14.263-.036-25.764-.054-34.187-.054-8.6,0-13.635.02-14.98.058-1.128.031-1.609.79-2.164,1.667l-.037.055c-.268.431-2.768,6.611-4.973,12.063-3.047,7.538-5.071,12.522-5.421,13.109a1.2,1.2,0,0,0-.183,1.149c.187.329.7.508,1.444.508h59.737c1.686,0,2.577-.6,2.649-1.8C3791.235,4279.466,3792.371,4257.151,3792.441,4255.732Z" transform="translate(-3720.915 -4239.944)" fill="#fff" opacity="0.4"/><path d="M3787.179,4281.923h-59.737c-1.35,0-1.918-.5-2.156-.921a1.936,1.936,0,0,1,.191-1.975c.344-.578,3.011-7.178,5.364-13,2.949-7.291,4.759-11.75,5.042-12.2l.036-.055c.594-.939,1.268-2,2.833-2.047,1.354-.039,6.4-.059,15-.059,8.424,0,19.926.02,34.189.054l1.339,0a2.788,2.788,0,0,1,1.937.875,2.472,2.472,0,0,1,.7,1.832c-.071,1.418-1.206,23.742-1.276,24.912C3790.6,4280.125,3790.171,4281.923,3787.179,4281.923Zm-33.423-29.431c-8.6,0-13.635.021-14.979.059-1.129.032-1.61.79-2.166,1.667l-.036.055c-.269.431-2.767,6.612-4.973,12.063-3.047,7.539-5.072,12.522-5.422,13.109a1.2,1.2,0,0,0-.183,1.151c.187.327.7.506,1.445.506h59.737c1.687,0,2.577-.605,2.648-1.8.069-1.169,1.205-23.485,1.276-24.9a1.644,1.644,0,0,0-.474-1.225,1.977,1.977,0,0,0-1.344-.623l-1.342,0C3773.68,4252.512,3762.179,4252.493,3753.756,4252.493Z" transform="translate(-3719.577 -4238.611)"/><path d="M3724.73,4350.512h-8.949v3.692h12.171S3727.943,4350.512,3724.73,4350.512Z" transform="translate(-3713.808 -4299.846)" fill="#f29600"/><rect width="12.172" height="8.425" transform="translate(1.974 54.361)" fill="#fff"/><path d="M3.916,0h0A3.915,3.915,0,0,1,7.831,3.915v3.1a3.915,3.915,0,0,1-3.915,3.915h0A3.916,3.916,0,0,1,0,7.016v-3.1A3.916,3.916,0,0,1,3.916,0Z" transform="translate(76.884 32.484)"/><path d="M3871.877,4350.512h9.023v3.692h-12.244S3868.666,4350.512,3871.877,4350.512Z" transform="translate(-3808.522 -4299.846)" fill="#f29600"/><rect width="12.244" height="8.425" transform="translate(60.134 54.361)" fill="#fff"/><path d="M3780.9,4401.284a1.859,1.859,0,0,1-1.86,1.858h-59.967a1.858,1.858,0,0,1-1.859-1.858v-.791a1.859,1.859,0,0,1,1.859-1.86h59.967a1.861,1.861,0,0,1,1.86,1.86Z" transform="translate(-3714.696 -4329.661)"/><path d="M2.255,0H6.984A2.255,2.255,0,0,1,9.239,2.255v0A2.255,2.255,0,0,1,6.984,4.51H2.255A2.255,2.255,0,0,1,0,2.255v0A2.255,2.255,0,0,1,2.255,0Z" transform="translate(2.519 68.973)" fill="#c8c9ca"/><path d="M2.255,0H6.984A2.255,2.255,0,0,1,9.238,2.255v0A2.255,2.255,0,0,1,6.983,4.51H2.255A2.255,2.255,0,0,1,0,2.255v0A2.255,2.255,0,0,1,2.255,0Z" transform="translate(57.076 68.973)" fill="#c8c9ca"/><path d="M1.223,0H24.309a1.222,1.222,0,0,1,1.222,1.222V5.637a1.222,1.222,0,0,1-1.222,1.222H1.223A1.223,1.223,0,0,1,0,5.636V1.223A1.223,1.223,0,0,1,1.223,0Z" transform="translate(21.082 71.767)" fill="#d9d9d9"/><path d="M3935.192,4341.159a.465.465,0,0,0,.465.465h2.169a.464.464,0,0,0,.464-.465v-1.4a.464.464,0,0,0-.464-.465h-2.169a.465.465,0,0,0-.465.465Z" transform="translate(-3849.745 -4292.899)" fill="#262626"/><rect width="28.022" height="14.539" transform="translate(90.368 49.71)" fill="#b4b4b5"/><path d="M3949.542,4367.528a.457.457,0,0,1-.365-.445v-.867a.464.464,0,0,1,.463-.466h-.9v-12.556h-.62v12.556h0v1.776Z" transform="translate(-3857.75 -4301.509)" fill="#888"/><rect width="5.604" height="9.84" transform="translate(90.865 74.576)" fill="#c8c9ca"/><g transform="translate(98.828 66.035)"><path d="M3970.363,4405.469c0,.843.544.828.544.828h6.06a.822.822,0,0,0,.863-.828,24,24,0,0,1,1.478-6.6h-7.438A24.764,24.764,0,0,0,3970.363,4405.469Z" transform="translate(-3970.363 -4395.841)" fill="#b3b3b3"/><path d="M3984.515,4390.911h-7.586c-1.063,0-1.94,1.338-2.608,3.027h7.439C3982.436,4392.249,3983.35,4390.911,3984.515,4390.911Z" transform="translate(-3972.816 -4390.911)" fill="#717071"/></g><rect width="28.022" height="1.976" transform="translate(90.368 49.71)" fill="#9e9e9f"/><g transform="translate(95.089 3.46)"><path d="M3983.373,4226.44s1.437,2.173,2.686,2.173c1.512,0,2.792-2.342,2.792-2.173,0,.206-1.078,3.107-2.792,3.107S3983.343,4226.751,3983.373,4226.44Z" transform="translate(-3974.684 -4226.432)" fill="#47856b"/><path d="M4006.1,4226.44s1.436,2.173,2.686,2.173c1.512,0,2.79-2.342,2.79-2.173,0,.206-1.075,3.107-2.79,3.107S4006.07,4226.751,4006.1,4226.44Z" transform="translate(-3988.765 -4226.432)" fill="#47856b"/><path d="M3960.534,4226.44s1.438,2.173,2.688,2.173c1.511,0,2.792-2.342,2.792-2.173,0,.206-1.078,3.107-2.792,3.107S3960.5,4226.751,3960.534,4226.44Z" transform="translate(-3960.533 -4226.432)" fill="#47856b"/></g><g transform="translate(95.089 3.254)"><path d="M3983.373,4226c0-.493,1.438,1.125,2.687,1.125,1.513,0,2.792-1.684,2.792-1.125a3.3,3.3,0,0,1-2.792,2.137C3984.345,4228.141,3983.373,4226.12,3983.373,4226Z" transform="translate(-3974.685 -4225.89)" fill="#27654d"/><path d="M4006.1,4226c0-.493,1.436,1.125,2.687,1.125,1.512,0,2.791-1.684,2.791-1.125a3.3,3.3,0,0,1-2.791,2.137C4007.074,4228.141,4006.1,4226.12,4006.1,4226Z" transform="translate(-3988.766 -4225.89)" fill="#27654d"/><path d="M3960.535,4226c0-.493,1.437,1.125,2.687,1.125,1.512,0,2.791-1.684,2.791-1.125a3.3,3.3,0,0,1-2.791,2.137C3961.507,4228.141,3960.535,4226.12,3960.535,4226Z" transform="translate(-3960.535 -4225.89)" fill="#27654d"/></g><g transform="translate(104.406 44.048)"><path d="M3990.24,4337.223c0-.211-.3.493-.645,1.05-.426.685-.621.58-.623.789s.334.092.683-.416A3.629,3.629,0,0,0,3990.24,4337.223Z" transform="translate(-3987.469 -4335.638)" fill="#47856b"/><path d="M3990.06,4333.147c0-.2-.324.637-.642,1.544a8.317,8.317,0,0,0-.531,1.54c.009.217.338-.266.66-1.129A8.394,8.394,0,0,0,3990.06,4333.147Z" transform="translate(-3987.417 -4333.118)" fill="#27654d"/><path d="M3985.024,4337.223c0-.211.3.493.645,1.05.427.685.622.58.623.789s-.333.092-.683-.416A3.659,3.659,0,0,1,3985.024,4337.223Z" transform="translate(-3985.024 -4335.638)" fill="#47856b"/><path d="M3985.355,4333.147c.006-.2.325.637.644,1.544a8.284,8.284,0,0,1,.532,1.54c-.01.217-.339-.266-.663-1.129A8.582,8.582,0,0,1,3985.355,4333.147Z" transform="translate(-3985.229 -4333.118)" fill="#27654d"/></g><g transform="translate(115.231 44.048)"><path d="M4018.693,4337.223c0-.211-.3.493-.646,1.05-.426.685-.621.58-.622.789s.333.092.684-.416A3.681,3.681,0,0,0,4018.693,4337.223Z" transform="translate(-4015.922 -4335.638)" fill="#47856b"/><path d="M4018.513,4333.147c0-.2-.324.637-.643,1.544a8.4,8.4,0,0,0-.532,1.54c.01.217.339-.266.663-1.129A8.626,8.626,0,0,0,4018.513,4333.147Z" transform="translate(-4015.869 -4333.118)" fill="#27654d"/><path d="M4013.476,4337.223c0-.211.3.493.646,1.05.426.685.62.58.623.789s-.334.092-.684-.416A3.648,3.648,0,0,1,4013.476,4337.223Z" transform="translate(-4013.476 -4335.638)" fill="#47856b"/><path d="M4013.809,4333.147c0-.2.324.637.642,1.544a8.358,8.358,0,0,1,.532,1.54c-.009.217-.34-.266-.663-1.129A8.624,8.624,0,0,1,4013.809,4333.147Z" transform="translate(-4013.683 -4333.118)" fill="#27654d"/></g><g transform="translate(94.925 44.048)"><path d="M3965.319,4337.223c0-.211-.3.493-.646,1.05-.426.685-.622.58-.624.789s.334.092.685-.416A3.682,3.682,0,0,0,3965.319,4337.223Z" transform="translate(-3962.549 -4335.638)" fill="#47856b"/><path d="M3965.14,4333.147c-.005-.2-.324.637-.642,1.544a8.192,8.192,0,0,0-.532,1.54c.01.217.34-.266.662-1.129A8.514,8.514,0,0,0,3965.14,4333.147Z" transform="translate(-3962.497 -4333.118)" fill="#27654d"/><path d="M3960.1,4337.223c0-.211.3.493.645,1.05.427.685.621.58.622.789s-.332.092-.682-.416A3.663,3.663,0,0,1,3960.1,4337.223Z" transform="translate(-3960.104 -4335.638)" fill="#47856b"/><path d="M3960.436,4333.147c0-.2.324.637.642,1.544a8.358,8.358,0,0,1,.532,1.54c-.01.217-.339-.266-.663-1.129A8.588,8.588,0,0,1,3960.436,4333.147Z" transform="translate(-3960.31 -4333.118)" fill="#27654d"/></g><path d="M3961.168,4361.662h-.009a.164.164,0,0,1-.156-.171l.876-18.224a.166.166,0,0,1,.165-.156h.009a.166.166,0,0,1,.155.172l-.876,18.222A.165.165,0,0,1,3961.168,4361.662Z" transform="translate(-3865.736 -4295.261)" fill="#717071"/><path d="M3989.486,4361.662a.163.163,0,0,1-.163-.157l-.823-18.222a.167.167,0,0,1,.157-.172.163.163,0,0,1,.17.156l.822,18.223a.163.163,0,0,1-.156.171Z" transform="translate(-3882.771 -4295.261)" fill="#717071"/><path d="M4015.011,4361.662H4015a.164.164,0,0,1-.156-.171l.875-18.224a.158.158,0,0,1,.173-.156.165.165,0,0,1,.155.172l-.876,18.222A.164.164,0,0,1,4015.011,4361.662Z" transform="translate(-3899.094 -4295.261)" fill="#717071"/></g><g transform="translate(229.106 3986.624)"><g transform="translate(0 0.215)"><rect width="2.01" height="2.01" transform="translate(9.634 6.994)" fill="#03a58e"/><path d="M3759.364,4350.307V4348.3h1.6l-4.612-2.971-4.613,2.971h1.6v6.032h2.01v-2.01h2.011v-2.012h2.006v2.011h-2.006v2.011h2.01v-2.011h2.006v-2.011Z" transform="translate(-3751.735 -4345.326)" fill="#03a58e"/></g><rect width="1.979" height="1.979" transform="translate(16.636 0.128)" fill="#03a58e"/><g transform="translate(12.666)"><path d="M3790.38,4347.09l-5.17.15a1.254,1.254,0,0,0,.83-1.566,1.229,1.229,0,0,0-.128-.284l.023-.007h0l.688-.238a.046.046,0,0,0,.028-.059h0c-.008-.019-.021-.029-.051-.029l-.811.035-.143-.009a1.255,1.255,0,1,0-1.11,2.18h0v0h0l-.343,3.39-.841,2.809h0l-.022.074-.112.373h0a.086.086,0,0,0,.057.106.172.172,0,0,0,.025,0h1.872a.1.1,0,0,0,.1-.1h0v-.364a.1.1,0,0,0-.1-.1h-.2l.719-2.4,2.2.336v2.5a.118.118,0,0,0,.117.119h1.869a.1.1,0,0,0,.095-.1h0v-.364a.1.1,0,0,0-.095-.1h-.409v-3.209a.248.248,0,0,0-.209-.246l-3.355-.51.071-.7,4.464-.13a.124.124,0,0,0,.12-.128l-.038-1.329a.126.126,0,0,0-.129-.121Zm-6.4-.853a.932.932,0,0,1-.022-.179l.105-.035,1.473-.507a.877.877,0,0,1-.175,1.227.9.9,0,0,1-.332.153.877.877,0,0,1-1.049-.658v0Z" transform="translate(-3783.21 -4344.79)" fill="#1a1311"/><path d="M3815.012,4350.094h-.98v-1.356a.133.133,0,0,0-.132-.133h-1.2a.133.133,0,0,0-.132.133h0v1.356h-1.8a.133.133,0,0,0-.132.134v1.2a.132.132,0,0,0,.132.131h1.8v4.212h-.356a.112.112,0,0,0-.112.112v.294a.112.112,0,0,0,.112.111h1.708a.117.117,0,0,0,.117-.118h0v-4.612h.979a.133.133,0,0,0,.133-.133h0v-1.2A.134.134,0,0,0,3815.012,4350.094Z" transform="translate(-3799.596 -4347.07)" fill="#1a1311"/><path d="M3833.369,4350.829h-.882v-.885a.109.109,0,0,0-.11-.11h-1.1a.109.109,0,0,0-.111.109h0v.885h-1.448a.11.11,0,0,0-.11.11h0v1.249a.109.109,0,0,0,.109.11h1.449v2.155a1.239,1.239,0,0,1-1.24,1.239h-.218a.1.1,0,0,0-.1.1h0v1.118a.1.1,0,0,0,.1.1h.217a2.563,2.563,0,0,0,2.563-2.563h0V4352.3h.882a.11.11,0,0,0,.109-.111h0v-1.249A.109.109,0,0,0,3833.369,4350.829Z" transform="translate(-3810.936 -4347.805)" fill="#1a1311"/><path d="M3845.932,4352.643h1.27a.134.134,0,0,0,.134-.134v-1.328h1.19a.075.075,0,0,0,.074-.074h0v-2.189a.124.124,0,0,0-.125-.124h-.084v0h-2.752v-1.134a.118.118,0,0,0-.118-.117h-1.169a.117.117,0,0,0-.118.117h0v1.134H3841.4a.125.125,0,0,0-.125.125v2.149a.118.118,0,0,0,.118.118h1.146v1.328a.133.133,0,0,0,.134.134h1.563v.308h-1.971a.118.118,0,0,0-.118.119v.855a.117.117,0,0,0,.118.118h1.971v.29h-2.842a.119.119,0,0,0-.12.118h0v.855a.119.119,0,0,0,.12.118h7.087a.119.119,0,0,0,.119-.118v-.855a.118.118,0,0,0-.119-.119h-2.841v-.288h1.971a.119.119,0,0,0,.118-.12v-.855a.118.118,0,0,0-.118-.119h-1.971v-.308Zm-3.254-2.4v-.257h4.518v.257Zm1.264,1.216v-.032a.133.133,0,0,1,.133-.132h1.723a.133.133,0,0,1,.134.132v.032a.133.133,0,0,1-.134.133h-1.723a.134.134,0,0,1-.133-.133Z" transform="translate(-3817.909 -4346.432)" fill="#1a1311"/><path d="M3825.468,4357.139h-.3v-4.722a.11.11,0,0,0-.11-.111h-1.113a.11.11,0,0,0-.11.111h0v5.05a.143.143,0,0,0,.143.144h1.492a.123.123,0,0,0,.123-.124h0v-.225a.125.125,0,0,0-.122-.123Z" transform="translate(-3807.487 -4349.282)" fill="#1a1311"/><path d="M3812.006,4359.168a.7.7,0,1,0,.7.7h0A.7.7,0,0,0,3812.006,4359.168Z" transform="translate(-3800.003 -4353.383)" fill="#1a1311"/><path d="M3844.658,4348.268a.7.7,0,1,0-.7-.695h0A.7.7,0,0,0,3844.658,4348.268Z" transform="translate(-3819.515 -4346.038)" fill="#1a1311"/><path d="M3854.029,4348.268a.7.7,0,1,0-.7-.695h0A.694.694,0,0,0,3854.029,4348.268Z" transform="translate(-3825.117 -4346.038)" fill="#1a1311"/><path d="M3805.152,4349.276l-1.089-.549a.126.126,0,0,0-.168.054h0l-1.024,2.045,0,0-.443.89a.124.124,0,0,0,.056.167l.886.441v3.9a.136.136,0,0,0,.135.137h1.2a.137.137,0,0,0,.135-.137v-4.3a.183.183,0,0,0-.1-.165l-.545-.272,1.021-2.038a.123.123,0,0,0-.056-.166Z" transform="translate(-3794.683 -4347.135)" fill="#1a1311"/></g><g transform="translate(9.093 10.266)"><path d="M3794.671,4370.69h-.33v.26h.3V4372h-.254v-.072h-.671v.083h-.241v-1.062h.291v-.26h-.3v-.189c-.031.087-.065.172-.1.256l.061.02a.061.061,0,0,1-.052.037v1.226h-.251v-.835c-.03.045-.062.087-.092.125a2.613,2.613,0,0,0-.107-.283,2.244,2.244,0,0,0,.34-.731l.282.094c-.007.017-.025.026-.054.023l-.008.021h1.192Zm-.952.489v.526h.074v-.526Zm.371,0h-.078v.526h.078Zm0-.229v-.258h-.076v.258Zm.3.755v-.525h-.08v.525Z" transform="translate(-3785.44 -4370.311)" fill="#1a1311"/><path d="M3800.253,4370.485l.17.079a.066.066,0,0,1-.028.029,1.368,1.368,0,0,1-.259.463,1.226,1.226,0,0,0,.389.185,1.137,1.137,0,0,0-.149.193v.59h-.254v-.051h-.31v.056h-.243v-.562l-.081.032a.841.841,0,0,0-.076-.125l-.069.1c-.017-.044-.042-.1-.069-.158v.713h-.25v-.6a1.306,1.306,0,0,1-.147.293,1.394,1.394,0,0,0-.117-.241,1.645,1.645,0,0,0,.247-.565h-.2v-.243h.221v-.367l.3.016c0,.019-.018.03-.052.037v.314h.185v.11a1.441,1.441,0,0,0,.294-.479l.283.093a.05.05,0,0,1-.052.021c-.011.025-.023.053-.037.078h.266Zm-.981.43v.058c.042.051.145.2.193.27a1.452,1.452,0,0,0,.316-.186c-.039-.048-.074-.1-.107-.146a1.122,1.122,0,0,1-.121.125,1.594,1.594,0,0,0-.127-.121Zm.837.423a1.2,1.2,0,0,1-.151-.109,1.362,1.362,0,0,1-.149.109Zm-.3.412h.31v-.191h-.31Zm0-1.033a1.3,1.3,0,0,0,.132.175,1.041,1.041,0,0,0,.122-.175Z" transform="translate(-3788.93 -4370.303)" fill="#1a1311"/><path d="M3805.052,4372.073a.253.253,0,1,1-.253-.254A.253.253,0,0,1,3805.052,4372.073Z" transform="translate(-3792.388 -4371.209)" fill="#1a1311"/><path d="M3808.2,4371.447a1.447,1.447,0,0,1,.456.21.574.574,0,0,1-.13.286,1.113,1.113,0,0,0-.314-.217v0c0,.179-.132.3-.394.3-.279,0-.461-.119-.461-.327,0-.176.173-.307.461-.307.036,0,.072,0,.107,0l-.007-.145c-.162,0-.322,0-.445-.006a.9.9,0,0,1-.047-.273,3.209,3.209,0,0,0,.321.023c.049,0,.105,0,.163,0v-.174a3.738,3.738,0,0,1-.377-.011.85.85,0,0,1-.044-.258,1.979,1.979,0,0,0,.3.025h.126v-.021a1.832,1.832,0,0,0,0-.2,1.433,1.433,0,0,1,.289.021c-.006.06-.009.122-.011.185a2.28,2.28,0,0,0,.3-.039.823.823,0,0,1,0,.252,2.287,2.287,0,0,1-.3.035c0,.054,0,.107,0,.161v.01a2.732,2.732,0,0,0,.371-.055,1,1,0,0,1,0,.27,3,3,0,0,1-.355.042Zm-.265.191a.86.86,0,0,0-.15-.013c-.091,0-.154.025-.154.077s.043.079.147.079.157-.039.157-.143Z" transform="translate(-3794.068 -4370.338)" fill="#1a1311"/><path d="M3812.175,4371.373a.345.345,0,0,0-.053.165c0,.082.056.163.319.163a1.513,1.513,0,0,0,.6-.115.839.839,0,0,1,.073.3,1.817,1.817,0,0,1-.662.1c-.389,0-.643-.143-.643-.39a.8.8,0,0,1,.086-.325A1.109,1.109,0,0,1,3812.175,4371.373Zm-.213-.841a3.25,3.25,0,0,0,.951.01,1.285,1.285,0,0,1-.006.286,3.848,3.848,0,0,1-.93,0,1.214,1.214,0,0,1-.014-.3Zm1.211.157a.5.5,0,0,1-.145.06,1.3,1.3,0,0,0-.1-.246.743.743,0,0,1,.14-.061,1.215,1.215,0,0,1,.11.247Zm.2-.086a.563.563,0,0,1-.144.062,1.081,1.081,0,0,0-.107-.237.84.84,0,0,1,.14-.061.873.873,0,0,1,.111.236Z" transform="translate(-3796.729 -4370.341)" fill="#1a1311"/><path d="M3817.024,4371.619a.344.344,0,0,0-.053.162c0,.082.057.164.319.164a1.554,1.554,0,0,0,.6-.114.813.813,0,0,1,.072.3,1.8,1.8,0,0,1-.662.105c-.388,0-.642-.141-.642-.39a.764.764,0,0,1,.086-.325A1.041,1.041,0,0,1,3817.024,4371.619Zm-.212-.843a3.552,3.552,0,0,0,1,.012,1.307,1.307,0,0,1,0,.285,4.278,4.278,0,0,1-.987,0A1.4,1.4,0,0,1,3816.812,4370.776Z" transform="translate(-3799.627 -4370.587)" fill="#1a1311"/><path d="M3821.411,4370.539a4.085,4.085,0,0,0,.649-.055.71.71,0,0,1,.111.194,5.218,5.218,0,0,0-.464.426.68.68,0,0,1,.2-.031.482.482,0,0,1,.518.443v.019c0,.354-.276.625-.9.563a.923.923,0,0,1-.094-.308c.4.071.688.006.688-.261,0-.119-.092-.231-.293-.231a.813.813,0,0,0-.627.438.814.814,0,0,1-.209-.236c.191-.212.556-.567.719-.732-.083.014-.276.034-.405.042a1.018,1.018,0,0,1-.065-.276C3821.279,4370.536,3821.343,4370.539,3821.411,4370.539Z" transform="translate(-3802.219 -4370.412)" fill="#1a1311"/><path d="M3775.176,4371.447a1.467,1.467,0,0,1,.457.21.577.577,0,0,1-.131.286,1.1,1.1,0,0,0-.314-.217v0c0,.179-.132.3-.393.3-.28,0-.462-.119-.462-.327,0-.176.174-.307.462-.307.036,0,.072,0,.107,0l-.008-.145c-.161,0-.321,0-.445-.006a.9.9,0,0,1-.047-.273c.107.013.214.021.322.023.049,0,.1,0,.163,0v-.174a3.746,3.746,0,0,1-.378-.011.873.873,0,0,1-.043-.258,1.96,1.96,0,0,0,.3.025h.127v-.021c0-.1,0-.141,0-.2a1.417,1.417,0,0,1,.288.021c-.005.06-.009.122-.011.185a2.277,2.277,0,0,0,.3-.039.847.847,0,0,1,0,.252,2.281,2.281,0,0,1-.3.035c0,.054,0,.107,0,.161v.01a2.708,2.708,0,0,0,.371-.055.961.961,0,0,1,0,.27,2.994,2.994,0,0,1-.355.042Zm-.266.191a.859.859,0,0,0-.15-.013c-.09,0-.155.025-.155.077s.044.079.147.079.157-.039.159-.143Z" transform="translate(-3774.332 -4370.338)" fill="#1a1311"/><path d="M3779.154,4371.373a.35.35,0,0,0-.053.165c0,.082.056.163.319.163a1.514,1.514,0,0,0,.6-.115.83.83,0,0,1,.073.3,1.816,1.816,0,0,1-.662.1c-.39,0-.643-.143-.643-.39a.8.8,0,0,1,.085-.325A1.1,1.1,0,0,1,3779.154,4371.373Zm-.212-.841a3.246,3.246,0,0,0,.95.01,1.346,1.346,0,0,1-.006.286,3.856,3.856,0,0,1-.931,0,1.291,1.291,0,0,1-.014-.3Zm1.21.157a.491.491,0,0,1-.146.06,1.254,1.254,0,0,0-.1-.246.8.8,0,0,1,.139-.061,1.179,1.179,0,0,1,.111.247Zm.2-.086a.575.575,0,0,1-.143.062,1.143,1.143,0,0,0-.107-.237.84.84,0,0,1,.14-.061.884.884,0,0,1,.11.236Z" transform="translate(-3776.996 -4370.341)" fill="#1a1311"/><path d="M3784,4371.619a.333.333,0,0,0-.052.162c0,.082.056.164.319.164a1.552,1.552,0,0,0,.6-.114.828.828,0,0,1,.072.3,1.8,1.8,0,0,1-.662.105c-.388,0-.642-.141-.642-.39a.781.781,0,0,1,.085-.325A1.027,1.027,0,0,1,3784,4371.619Zm-.212-.843a3.558,3.558,0,0,0,1.006.012,1.462,1.462,0,0,1-.005.285,4.28,4.28,0,0,1-.987,0A1.4,1.4,0,0,1,3783.79,4370.776Z" transform="translate(-3779.894 -4370.587)" fill="#1a1311"/><path d="M3788.389,4370.539a4.089,4.089,0,0,0,.65-.055.766.766,0,0,1,.111.194,5.178,5.178,0,0,0-.463.426.672.672,0,0,1,.2-.031.482.482,0,0,1,.518.443v.019c0,.354-.276.625-.9.563a.943.943,0,0,1-.095-.308c.4.071.688.006.688-.261,0-.119-.09-.231-.292-.231a.812.812,0,0,0-.627.438.814.814,0,0,1-.209-.236c.19-.212.555-.567.718-.732-.083.014-.276.034-.406.042a1.037,1.037,0,0,1-.066-.276C3788.257,4370.536,3788.321,4370.539,3788.389,4370.539Z" transform="translate(-3782.486 -4370.412)" fill="#1a1311"/><path d="M3827.427,4372.067a.721.721,0,0,1-.225.226,3.125,3.125,0,0,0-.43-.485,2.111,2.111,0,0,1-.662.474,1.292,1.292,0,0,1-.223-.252,1.766,1.766,0,0,0,.723-.467,1.288,1.288,0,0,0,.262-.389c-.219,0-.652.016-.782.021a1.835,1.835,0,0,1-.034-.284c.057,0,.13.007.187.007.1,0,.635-.007.75-.013a1.066,1.066,0,0,0,.137-.013.646.646,0,0,1,.153.153,3.079,3.079,0,0,1-.326.545A3.488,3.488,0,0,1,3827.427,4372.067Z" transform="translate(-3805.141 -4370.655)" fill="#1a1311"/><path d="M3832.024,4370.678a.965.965,0,0,0,.14-.012.714.714,0,0,1,.166.133,1.937,1.937,0,0,1-.3.626c.056.048.109.1.16.145a.577.577,0,0,1-.2.224c-.044-.048-.094-.1-.148-.149a1.609,1.609,0,0,1-.639.4.865.865,0,0,1-.247-.241,1.5,1.5,0,0,0,.675-.342,2.647,2.647,0,0,0-.276-.195,1.38,1.38,0,0,1,.183-.19,3.332,3.332,0,0,1,.283.18,1.046,1.046,0,0,0,.172-.343l-.458.007a1.842,1.842,0,0,1-.425.415.661.661,0,0,1-.243-.192,1.389,1.389,0,0,0,.643-.762.76.76,0,0,1,.276.122,1.282,1.282,0,0,1-.09.175c.284,0,.336-.006.336-.006Z" transform="translate(-3808.112 -4370.353)" fill="#1a1311"/><path d="M3835.9,4372a1.058,1.058,0,0,1-.232.107,3.451,3.451,0,0,0-.169-.351c.047-.025.177-.083.227-.1A3.012,3.012,0,0,1,3835.9,4372Zm.852-.288a1.65,1.65,0,0,1-.248.589,1.19,1.19,0,0,1-.536.4.928.928,0,0,1-.21-.214.974.974,0,0,0,.525-.334,1.055,1.055,0,0,0,.206-.557.9.9,0,0,1,.263.119Zm-.469.154a1.126,1.126,0,0,1-.236.1,2.969,2.969,0,0,0-.155-.354,2.435,2.435,0,0,1,.232-.1,3.538,3.538,0,0,1,.159.351Z" transform="translate(-3810.887 -4371.027)" fill="#1a1311"/><path d="M3840.807,4371.806a1.5,1.5,0,0,1-.712.552.9.9,0,0,1-.259-.27,1.179,1.179,0,0,0,.671-.383,1.035,1.035,0,0,0,.212-.474c-.185,0-.864.011-1.019.014a2.046,2.046,0,0,1-.027-.3c.085.007.181.013.243.013.12,0,.736-.007.857-.01a.811.811,0,0,0,.137-.01.733.733,0,0,1,.176.141A2.118,2.118,0,0,1,3840.807,4371.806Z" transform="translate(-3813.38 -4370.681)" fill="#1a1311"/></g></g></g></svg>