<svg xmlns="http://www.w3.org/2000/svg" width="200" height="123.771" viewBox="0 0 200 123.771"><g transform="translate(-176 -3923)"><rect width="200" height="120" rx="10" transform="translate(176 3923)" fill="#dcdcdc" opacity="0"/><g transform="translate(195.105 3925.559)"><rect width="42.352" height="3.137" transform="translate(2.956 104.507)" fill="#7e7e87"/><g transform="translate(0 0)"><rect width="44.084" height="106.578" transform="translate(3.801)" fill="#d8f1f2"/><rect width="3.801" height="106.578" fill="#b4e3e5"/></g><rect width="47.237" height="1.27" transform="translate(0.324 52.519)" fill="#b4e3e5"/><rect width="47.237" height="1.27" transform="translate(0.324 65.815)" fill="#b4e3e5"/><rect width="0.654" height="13.202" transform="translate(16.681 53.267)" fill="#b4e3e5"/></g><g transform="translate(232.753 3955.562)"><g transform="translate(0 12.855)"><rect width="40.739" height="3.018" transform="translate(2.843 67.583)" fill="#e5dfdc"/><rect width="46.061" height="65.112" transform="translate(0 4.464)" fill="#e6e4dc"/><path d="M2580.224,1405.524h-46.061l3.285-4.464h39.042Z" transform="translate(-2534.163 -1401.06)" fill="#d9d6c9"/></g><g transform="translate(5.239 21.303)"><path d="M2577.866,1478.429a17.792,17.792,0,1,1,17.792-17.792A17.812,17.812,0,0,1,2577.866,1478.429Z" transform="translate(-2560.074 -1442.845)" fill="#403d42"/></g><rect width="11.065" height="15.843" transform="translate(31.199 63.338)" fill="#d9d6c9"/><rect width="45.438" height="1.222" transform="translate(0.312 60.733)" fill="#d9d6c9"/><rect width="8.487" height="3.583" transform="translate(34.971 19.267)" fill="#7e7e87"/><g transform="translate(7.018 23.082)"><path d="M2604.968,1467.658a16.012,16.012,0,0,0-31-5.646l20.628,20.628A16.038,16.038,0,0,0,2604.968,1467.658Z" transform="translate(-2572.942 -1451.645)" fill="#7e7e87"/><path d="M2584.887,1524.583a15.925,15.925,0,0,0,5.646-1.031l-20.628-20.627a16.007,16.007,0,0,0,14.982,21.658Z" transform="translate(-2568.874 -1492.557)" fill="#93939e"/></g><rect width="3.772" height="6.538" transform="translate(37.989 35.825)" fill="#bcbcc9"/><g transform="translate(7.736 0)"><rect width="25.736" height="14.554" fill="#861d0a"/><rect width="15.442" height="9.407" transform="translate(2.929 3.372)" fill="#403d42"/><rect width="0.444" height="11.049" transform="translate(19.836 1.731)" fill="#e5dfdc"/><rect width="3.106" height="1.737" transform="translate(21.488 1.731)" fill="#7e7e87"/><g transform="translate(21.477 7.389)"><rect width="1.386" height="0.775" fill="#7e7e87"/><rect width="1.386" height="0.775" transform="translate(1.731)" fill="#7e7e87"/></g><g transform="translate(21.477 8.454)"><rect width="1.386" height="0.775" fill="#7e7e87"/><rect width="1.386" height="0.775" transform="translate(1.731)" fill="#7e7e87"/></g><g transform="translate(21.477 9.519)"><rect width="1.386" height="0.775" fill="#7e7e87"/><rect width="1.386" height="0.775" transform="translate(1.731)" fill="#7e7e87"/></g><g transform="translate(21.477 10.584)"><rect width="1.386" height="0.775" fill="#7e7e87"/><rect width="1.386" height="0.775" transform="translate(1.731)" fill="#7e7e87"/></g><path d="M2682.406,1359.645a1,1,0,1,1-1,1A1,1,0,0,1,2682.406,1359.645Z" transform="translate(-2659.375 -1355.163)" fill="#7e7e87"/><path d="M2596.4,1344.706h-16.573a.377.377,0,1,1,0-.755H2596.4a.377.377,0,0,1,0,.755Z" transform="translate(-2578.034 -1342.642)" fill="#bcbcc9"/></g></g><g transform="translate(203.4 3999.504)"><rect width="23.91" height="3.223" transform="translate(21.966 24.855)" fill="#d2cecb"/><rect width="67.842" height="2.364" transform="translate(0 27.665)" fill="#cda771"/><rect width="67.842" height="2.364" transform="translate(0 44.903)" fill="#cda771"/><rect width="46.152" height="25.578" transform="translate(10.845)" fill="#d2cecb"/><g transform="translate(11.999 1.293)"><path d="M2605.154,1561.22H2589.94l15.214,15.214Z" transform="translate(-2561.31 -1561.22)" fill="#7e7e87"/><path d="M2448.327,1561.22v22.993h43.844v-2.667l-20.326-20.326Z" transform="translate(-2448.327 -1561.22)" fill="#7e7e87"/><path d="M2569.769,1561.22h-5.111l20.326,20.326v-5.112Z" transform="translate(-2541.138 -1561.22)" fill="#93939e"/></g><g transform="translate(4.531 34.148)"><rect width="7.97" height="10.758" fill="#403d42"/><rect width="7.173" height="8.674" transform="translate(0.399 0.482)" fill="#5e5e65"/><g transform="translate(50.809)"><rect width="7.97" height="10.758" fill="#403d42"/><rect width="7.173" height="8.674" transform="translate(0.399 0.482)" fill="#5e5e65"/></g></g><g transform="translate(19.222 40.545)"><rect width="25.117" height="0.969" transform="translate(2.14 3.392)" fill="#a9a09c"/><rect width="29.398" height="3.877" fill="#403d42"/><rect width="12.922" height="0.343" transform="translate(14.699 1.767)" fill="#93939e"/><rect width="1.05" height="1.05" transform="translate(1.279 1.292)" fill="#a9a09c"/></g></g><g transform="translate(-1437.756 2203.799)"><g transform="translate(1725.424 1739.628)"><path d="M1883.8,1750.071v0l-2.235,3.872-.015.027-12.986,22.49-17.879-10.323,9.276-16.065,3.007-5.21a10.469,10.469,0,0,1,9.07-5.236h1.412a7.5,7.5,0,0,1,6.412,3.621c.012.021.027.045.039.066l.009.018c.006.012.015.024.021.036Z" transform="translate(-1850.684 -1739.628)" fill="#02816f"/></g><g transform="translate(1708.998 1774.276)"><path d="M1743.063,2056.691l-6.748-3.914-.009.012-10.494,18.181-3.893,6.739a7.476,7.476,0,0,0-.009,7.466l-2.151-3.725-1.9-3.295-2.244-3.887-5.613-9.722a7.489,7.489,0,0,1,0-7.481l8.456-14.644-6.777-3.932,8.821.395,11.619.518,6.236,9.851Z" transform="translate(-1708.998 -2038.489)" fill="#03a58e"/></g><g transform="translate(1776.038 1770.029)"><path d="M2318.079,2032.414l0,.006-1.386,2.4a7.481,7.481,0,0,1-6.478,3.74H2302.5l-2.226-3.857-6.951-12.041-6.05-10.479,17.879-10.32,9.267,16.05,3.046,5.275A10.468,10.468,0,0,1,2318.079,2032.414Z" transform="translate(-2287.27 -2001.863)" fill="#02816f"/></g><g transform="translate(1760.792 1798.938)"><path d="M2201.816,2252.868a10.082,10.082,0,0,1-.611,1.242l-2.845,4.928-1.9,3.3-2.245,3.887-5.613,9.722a7.48,7.48,0,0,1-6.478,3.74h-16.891v7.816l-4.078-7.816-5.386-10.323,5.386-10.323,4.078-7.819v7.819h21.027l-.018-.03h7.714a7.483,7.483,0,0,0,6.479-3.74Z" transform="translate(-2155.765 -2251.219)" fill="#03a58e"/></g><g transform="translate(1758.539 1750.059)"><path d="M2138.583,1833.491v.027l-2.253-3.9v0l.009-.012Z" transform="translate(-2136.33 -1829.604)" fill="#ed1c24"/></g><g transform="translate(1748.189 1739.628)"><path d="M2092.593,1754.051l-4.743,7.439-6.257,9.815-11.637.484-8.806.365,6.754-3.89.015-.006-8.264-14.312-2.244-3.887-.009.012-3.869-6.7c-.006-.012-.015-.024-.021-.036l-.009-.018c-.012-.021-.027-.045-.039-.066a7.5,7.5,0,0,0-6.412-3.621h23.857a7.487,7.487,0,0,1,6.481,3.74l8.42,14.587Z" transform="translate(-2047.051 -1739.628)" fill="#03a58e"/></g><g transform="translate(1720.917 1806.756)"><path d="M1847.195,2318.662v20.647h-24.626a10.469,10.469,0,0,1-9.07-5.237l-.688-1.191c0-.006-.006-.009-.009-.015a7.475,7.475,0,0,1,.009-7.465l1.643-2.846,0,0,2.247-3.89Z" transform="translate(-1811.807 -2318.662)" fill="#02816f"/></g></g></g></svg>