<svg xmlns="http://www.w3.org/2000/svg" width="200" height="120" viewBox="0 0 200 120">
  <g id="sample_obj13" transform="translate(-176 -3923)">
    <rect id="長方形_27055" data-name="長方形 27055" width="200" height="120" rx="10" transform="translate(176 3923)" fill="#dcdcdc" opacity="0"/>
    <g id="グループ_15715" data-name="グループ 15715" transform="translate(-52.158 3672.777)">
      <g id="グループ_15710" data-name="グループ 15710" transform="translate(250 315.641)">
        <path id="パス_89572" data-name="パス 89572" d="M393.686,1032.826,343,1017.09l-93,16.032,45.207,16.176Z" transform="translate(-250 -1017.09)" fill="#e2b761"/>
        <path id="パス_89573" data-name="パス 89573" d="M1185.536,1598.78v3.158l4.911,1.431C1190.482,1601.435,1189.8,1598.643,1185.536,1598.78Z" transform="translate(-1131.766 -1565.343)" fill="#844f10"/>
        <path id="パス_89574" data-name="パス 89574" d="M1060.777,1625.326v2.886l4.679,1.363C1065.4,1627.708,1064.6,1625.3,1060.777,1625.326Z" transform="translate(-1014.178 -1590.367)" fill="#844f10"/>
        <path id="パス_89575" data-name="パス 89575" d="M1435.053,1562.594v2.733l5.075,1.479C1440.065,1564.88,1439.194,1562.391,1435.053,1562.594Z" transform="translate(-1366.943 -1531.231)" fill="#844f10"/>
        <path id="パス_89576" data-name="パス 89576" d="M1310.294,1582.458v2.85l4.8,1.4C1315.043,1584.82,1314.22,1582.376,1310.294,1582.458Z" transform="translate(-1249.354 -1549.962)" fill="#844f10"/>
        <path id="パス_89577" data-name="パス 89577" d="M1684.571,1520.469v2.661l4.934,1.438C1689.412,1522.682,1688.512,1520.33,1684.571,1520.469Z" transform="translate(-1602.12 -1491.532)" fill="#844f10"/>
        <path id="パス_89578" data-name="パス 89578" d="M2184.645,1435.494v2.542l5.382,1.569C2189.94,1437.643,2188.993,1435.154,2184.645,1435.494Z" transform="translate(-2073.452 -1411.417)" fill="#844f10"/>
        <path id="パス_89579" data-name="パス 89579" d="M2309.772,1409.73v2.793l5.172,1.507C2314.907,1412.077,2314.063,1409.48,2309.772,1409.73Z" transform="translate(-2191.387 -1387.147)" fill="#844f10"/>
        <path id="パス_89580" data-name="パス 89580" d="M2433.123,1394.473v2.291l4.888,1.424C2437.98,1396.4,2437.27,1393.723,2433.123,1394.473Z" transform="translate(-2307.649 -1372.661)" fill="#844f10"/>
        <path id="パス_89581" data-name="パス 89581" d="M2557.882,1372.446v2.236l5.27,1.536C2563.153,1374.381,2562.476,1371.436,2557.882,1372.446Z" transform="translate(-2425.237 -1351.828)" fill="#844f10"/>
        <path id="パス_89582" data-name="パス 89582" d="M1559.812,1538.245v2.877l5.2,1.515C1565,1540.672,1564.192,1537.98,1559.812,1538.245Z" transform="translate(-1484.531 -1508.275)" fill="#844f10"/>
        <path id="パス_89583" data-name="パス 89583" d="M2058.847,1457.126v2.527l5.421,1.58C2064.181,1459.265,2063.228,1456.767,2058.847,1457.126Z" transform="translate(-1954.884 -1431.802)" fill="#844f10"/>
        <path id="パス_89584" data-name="パス 89584" d="M1809.33,1502.735v2.414l5.276,1.537C1814.474,1504.769,1813.474,1502.448,1809.33,1502.735Z" transform="translate(-1719.708 -1474.8)" fill="#844f10"/>
        <path id="パス_89585" data-name="パス 89585" d="M1934.088,1477.606v2.614l5.2,1.516C1939.207,1479.8,1938.288,1477.347,1934.088,1477.606Z" transform="translate(-1837.296 -1451.12)" fill="#844f10"/>
        <path id="パス_89586" data-name="パス 89586" d="M272.959,1367.585l40.695,15.238c-8.768-7.6-34.1-17.207-40.695-19.684Z" transform="translate(-271.639 -1343.25)" fill="#915b13"/>
        <path id="パス_89587" data-name="パス 89587" d="M316.956,1359.99v-.8l-.11.018-.013,0-43.874-15.7v1.128c6.6,2.477,31.926,12.08,40.695,19.684l3.3,1.237v-5.563Z" transform="translate(-271.639 -1324.745)" fill="#844f10"/>
        <path id="パス_89588" data-name="パス 89588" d="M1191.424,1575.579v-.9l-5.888.985v.4c4.264-.137,4.946,2.655,4.911,4.589l.977.285v-5.368Z" transform="translate(-1131.766 -1542.636)" fill="#754107"/>
        <path id="パス_89589" data-name="パス 89589" d="M1066.665,1595.859v-.306l-1.628.272-4.26.713v.727c3.818-.029,4.625,2.382,4.679,4.25l1.209.352v-6.008Z" transform="translate(-1014.178 -1562.306)" fill="#754107"/>
        <path id="パス_89590" data-name="パス 89590" d="M1316.182,1554.789v-.973l-5.888.985v.663c3.926-.083,4.749,2.362,4.8,4.249l1.085.316v-5.241Z" transform="translate(-1249.354 -1522.968)" fill="#754107"/>
        <path id="パス_89591" data-name="パス 89591" d="M1440.941,1534.02v-1.072l-5.888.985v.73c4.141-.2,5.012,2.285,5.075,4.212l.813.237v-5.092Z" transform="translate(-1366.943 -1503.299)" fill="#754107"/>
        <path id="パス_89592" data-name="パス 89592" d="M1565.7,1512.686v-.606l-5.888.985v.536c4.38-.265,5.185,2.426,5.2,4.392l.69.2v-5.508Z" transform="translate(-1484.531 -1483.631)" fill="#754107"/>
        <path id="パス_89593" data-name="パス 89593" d="M2189.493,1410v-2.265l-2.8.469-3.028.506-.06.01v3.164l.06.017v-2.542c4.348-.34,5.3,2.148,5.382,4.11l.446.13V1410Z" transform="translate(-2072.472 -1385.286)" fill="#754107"/>
        <path id="パス_89594" data-name="パス 89594" d="M2064.735,1430.573v-1.967l-5.888.985v.687c4.381-.358,5.334,2.139,5.421,4.107l.467.136v-3.948Z" transform="translate(-1954.884 -1404.954)" fill="#754107"/>
        <path id="パス_89595" data-name="パス 89595" d="M1939.976,1450.089v-.614l-5.888.985v.65c4.2-.259,5.119,2.195,5.2,4.13l.686.2v-5.351Z" transform="translate(-1837.296 -1424.624)" fill="#754107"/>
        <path id="パス_89596" data-name="パス 89596" d="M2314.253,1389.309v-2.44l-2.621.438-3.186.533-.081.014v3.115l.081.023V1388.2c4.292-.25,5.136,2.348,5.172,4.3l.635.185v-3.375Z" transform="translate(-2190.061 -1365.616)" fill="#754107"/>
        <path id="パス_89597" data-name="パス 89597" d="M2439.011,1368.391V1366l-5.888.985v.773c4.147-.749,4.857,1.928,4.888,3.716l1,.292v-3.375Z" transform="translate(-2307.649 -1345.948)" fill="#754107"/>
        <path id="パス_89598" data-name="パス 89598" d="M2563.77,1345.133l-5.888.985v.779c4.594-1.01,5.271,1.935,5.27,3.772l.618.18v-5.716Z" transform="translate(-2425.237 -1326.279)" fill="#754107"/>
        <path id="パス_89599" data-name="パス 89599" d="M1690.459,1492.036v-.825l-1.674.28-4.214.705h0v.7c3.941-.139,4.841,2.212,4.934,4.1l.953.278v-5.24Z" transform="translate(-1602.12 -1463.961)" fill="#754107"/>
        <path id="パス_89600" data-name="パス 89600" d="M1815.218,1470.915v-.572l-5.888.985v.9c4.144-.287,5.144,2.033,5.276,3.952l.612.178v-5.443Z" transform="translate(-1719.708 -1444.292)" fill="#754107"/>
        <path id="パス_89601" data-name="パス 89601" d="M1036.331,1307.345v2.238l-.013.014.013,0,.11-.018,1.283-.214,5.888-.985,1.282-.214h0l5.888-.985,1.283-.214,5.888-.985,1.283-.214,5.888-.985,1.283-.214,5.888-.985,1.283-.215h0l5.888-.985,1.283-.214h0l5.888-.985,1.283-.215h0l5.888-.985,1.283-.214,5.888-.985,1.283-.215h0l3.088-.516,2.8-.469,1.283-.214,3.266-.546,2.622-.439,1.282-.215,5.888-.985,1.283-.215,5.888-.985,1.282-.215,3.872-.647v-2.256Z" transform="translate(-991.124 -1275.136)" fill="#c69338"/>
        <path id="パス_89602" data-name="パス 89602" d="M295.207,1314.443V1312.2L250,1296.028v2.256l1.32.472,43.874,15.7Z" transform="translate(-250 -1279.997)" fill="#bc852e"/>
        <path id="パス_89603" data-name="パス 89603" d="M1163.219,1612.218l1.283-.223v-5.459l-1.283.206Z" transform="translate(-1110.732 -1572.658)" fill="#b27b22"/>
        <path id="パス_89604" data-name="パス 89604" d="M1038.461,1626.9v5.564l1.283-.257v-5.516Z" transform="translate(-993.144 -1591.651)" fill="#b27b22"/>
        <path id="パス_89605" data-name="パス 89605" d="M1412.737,1567.494v5.241l1.283-.224V1567.3Z" transform="translate(-1345.909 -1535.672)" fill="#b27b22"/>
        <path id="パス_89606" data-name="パス 89606" d="M1287.979,1586.944v5.369l1.282-.224v-5.347Z" transform="translate(-1228.321 -1554.001)" fill="#b27b22"/>
        <path id="パス_89607" data-name="パス 89607" d="M1537.5,1548.4v5.092l1.282-.224v-5.063Z" transform="translate(-1463.498 -1517.683)" fill="#b27b22"/>
        <path id="パス_89608" data-name="パス 89608" d="M1787.013,1516.175l1.282-.224v-4.688l-1.282.186Z" transform="translate(-1698.674 -1482.86)" fill="#b27b22"/>
        <path id="パス_89609" data-name="パス 89609" d="M1662.255,1529.706v4.922l1.282-.224v-4.889Z" transform="translate(-1581.086 -1500.064)" fill="#b27b22"/>
        <path id="パス_89610" data-name="パス 89610" d="M1911.772,1498.2l1.283-.224v-4.459l-1.283.18Z" transform="translate(-1816.262 -1466.133)" fill="#b27b22"/>
        <path id="パス_89611" data-name="パス 89611" d="M2161.29,1460.684v3.375l1.283-.224v-3.89l-1.283.165Z" transform="translate(-2051.439 -1434.493)" fill="#b27b22"/>
        <path id="パス_89612" data-name="パス 89612" d="M2036.531,1476.539v4.246h0l1.283-.224v-4.2Z" transform="translate(-1933.851 -1449.968)" fill="#b27b22"/>
        <path id="パス_89613" data-name="パス 89613" d="M2286.048,1444.613v3.6l1.282-.223v-3.531Z" transform="translate(-2169.027 -1419.895)" fill="#b27b22"/>
        <path id="パス_89614" data-name="パス 89614" d="M2535.566,1420.645l1.283-.224v-2.561q-.633.056-1.283.117Z" transform="translate(-2404.203 -1394.826)" fill="#b27b22"/>
        <path id="パス_89615" data-name="パス 89615" d="M2410.807,1430.369v3.183l1.283-.223v-3.1Z" transform="translate(-2286.615 -1406.484)" fill="#b27b22"/>
        <path id="パス_89616" data-name="パス 89616" d="M2660.324,1410.77l1.282-.224v-1.838q-.625.033-1.282.074Z" transform="translate(-2521.791 -1386.2)" fill="#b27b22"/>
        <path id="パス_89617" data-name="パス 89617" d="M1163.219,1592.34v.531l1.283-.206v-.846l-1.283.215Z" transform="translate(-1110.732 -1558.787)" fill="#aa711f"/>
        <path id="パス_89618" data-name="パス 89618" d="M1038.461,1613.7l1.283-.209v-.8l-1.283.215v.8Z" transform="translate(-993.144 -1578.457)" fill="#aa711f"/>
        <path id="パス_89619" data-name="パス 89619" d="M1412.737,1551.271l1.283-.2v-.989l-1.283.214v.973Z" transform="translate(-1345.909 -1519.449)" fill="#aa711f"/>
        <path id="パス_89620" data-name="パス 89620" d="M1287.979,1572.062l1.282-.2v-.907l-1.282.215v.9Z" transform="translate(-1228.321 -1539.119)" fill="#aa711f"/>
        <path id="パス_89621" data-name="パス 89621" d="M1537.5,1530.5l1.282-.195v-1.092l-1.282.214v1.072Z" transform="translate(-1463.498 -1499.781)" fill="#aa711f"/>
        <path id="パス_89622" data-name="パス 89622" d="M1787.013,1488.518v.514l1.282-.186v-1.367l-1.282.214Z" transform="translate(-1698.674 -1460.444)" fill="#aa711f"/>
        <path id="パス_89623" data-name="パス 89623" d="M1662.255,1509.754l1.282-.19v-1.217l-1.282.214v1.193Z" transform="translate(-1581.086 -1480.112)" fill="#aa711f"/>
        <path id="パス_89624" data-name="パス 89624" d="M1911.772,1467.4v.94l1.283-.18v-1.546l-1.283.215Z" transform="translate(-1816.262 -1440.774)" fill="#aa711f"/>
        <path id="パス_89625" data-name="パス 89625" d="M2161.29,1425.659v1.4l1.283-.165v-2.016l-1.283.215Z" transform="translate(-2051.439 -1401.436)" fill="#aa711f"/>
        <path id="パス_89626" data-name="パス 89626" d="M2036.531,1447.675l1.283-.173v-1.76l-1.283.215v1.719Z" transform="translate(-1933.851 -1421.105)" fill="#aa711f"/>
        <path id="パス_89627" data-name="パス 89627" d="M2286.048,1406.484l1.282-.155V1404l-1.282.214v2.265Z" transform="translate(-2169.027 -1381.767)" fill="#aa711f"/>
        <path id="パス_89628" data-name="パス 89628" d="M2536.849,1362.268l-1.283.214v3.1q.65-.061,1.283-.117v-3.2Z" transform="translate(-2404.203 -1342.429)" fill="#aa711f"/>
        <path id="パス_89629" data-name="パス 89629" d="M2410.807,1385.792v.191l1.283-.14v-2.707l-1.283.215v2.44Z" transform="translate(-2286.615 -1362.099)" fill="#aa711f"/>
        <path id="パス_89630" data-name="パス 89630" d="M2660.324,1345.342q.657-.04,1.282-.074V1341.4l-1.282.214Z" transform="translate(-2521.791 -1322.76)" fill="#aa711f"/>
      </g>
      <g id="グループ_15714" data-name="グループ 15714" transform="translate(254.679 272.867)">
        <g id="グループ_15711" data-name="グループ 15711" transform="translate(0 27.763)">
          <path id="パス_89631" data-name="パス 89631" d="M1306.8,861.761l-5.441.828,5.441,1.829v-2.657Z" transform="translate(-1245.607 -855.678)" fill="#7f7f7f"/>
          <path id="パス_89632" data-name="パス 89632" d="M1448.109,840.541v-.292l-5.441.828,4.4,1.466,1.046.349v-2.352Z" transform="translate(-1378.799 -835.402)" fill="#7f7f7f"/>
          <path id="パス_89633" data-name="パス 89633" d="M1730.755,797.227l-5.442.828,5.442,1.788v-2.616Z" transform="translate(-1645.2 -794.853)" fill="#7f7f7f"/>
          <path id="パス_89634" data-name="パス 89634" d="M1872.076,775.718l-5.441.828,5.441,1.774v-2.6Z" transform="translate(-1778.399 -774.58)" fill="#7f7f7f"/>
          <path id="パス_89635" data-name="パス 89635" d="M1589.431,818.827v-.089l-5.441.828,5.441,1.8v-2.541Z" transform="translate(-1511.999 -815.127)" fill="#7f7f7f"/>
          <path id="パス_89636" data-name="パス 89636" d="M1396.024,875.222v1.883l5.453,1.832q-.675-.627-1.4-1.191A23.962,23.962,0,0,0,1396.024,875.222Z" transform="translate(-1334.836 -868.365)" fill="#6b6a68"/>
          <path id="パス_89637" data-name="パス 89637" d="M1540.354,861.617a21.706,21.706,0,0,0-3.01-1.072v1.477l7.16,2.388A15.2,15.2,0,0,0,1540.354,861.617Z" transform="translate(-1468.034 -854.532)" fill="#6b6a68"/>
          <path id="パス_89638" data-name="パス 89638" d="M1537.344,840.541v.875a21.683,21.683,0,0,1,3.01,1.072,15.193,15.193,0,0,1,4.151,2.793l.483.161,5.441-.85-13.084-4.342Z" transform="translate(-1468.034 -835.402)" fill="#60605f"/>
          <path id="パス_89639" data-name="パス 89639" d="M1827.187,813.932a14.249,14.249,0,0,0-5.487-2.945,15.91,15.91,0,0,0-1.709-.4v1.848l6.246,2.052,1.4.459.453-.071A8.738,8.738,0,0,0,1827.187,813.932Z" transform="translate(-1734.434 -807.44)" fill="#6b6a68"/>
          <path id="パス_89640" data-name="パス 89640" d="M1964.812,792.345a18.929,18.929,0,0,0-2.98-1.055q-.264-.071-.526-.13v1.714l7.643,2.492.112-.018A13.807,13.807,0,0,0,1964.812,792.345Z" transform="translate(-1867.628 -789.134)" fill="#6b6a68"/>
          <path id="パス_89641" data-name="パス 89641" d="M1680.6,837.261q-.953-.36-1.933-.638v1.6l4.027,1.333,3.615,1.2.052-.008c-.044-.043-.087-.087-.131-.13A16.663,16.663,0,0,0,1680.6,837.261Z" transform="translate(-1601.235 -831.984)" fill="#6b6a68"/>
          <path id="パス_89642" data-name="パス 89642" d="M1678.668,818.827v.939q.978.279,1.933.638a16.666,16.666,0,0,1,5.63,3.356c.044.042.088.086.131.129l5.39-.842-1.874-.617-11.211-3.692Z" transform="translate(-1601.235 -815.127)" fill="#60605f"/>
          <path id="パス_89643" data-name="パス 89643" d="M1396.024,861.761v.774a23.943,23.943,0,0,1,4.05,2.524q.726.563,1.4,1.191l1.02.343,1.171.393,5.441-.85-12.353-4.13Z" transform="translate(-1334.836 -855.678)" fill="#60605f"/>
          <path id="パス_89644" data-name="パス 89644" d="M1819.99,797.227v.768a15.881,15.881,0,0,1,1.709.4,14.249,14.249,0,0,1,5.487,2.945,8.733,8.733,0,0,1,.9.938l.807-.126,4.181-.653-6.912-2.259Z" transform="translate(-1734.434 -794.853)" fill="#60605f"/>
          <path id="パス_89645" data-name="パス 89645" d="M1961.305,775.718v.888q.263.059.526.13a18.948,18.948,0,0,1,2.98,1.055,13.807,13.807,0,0,1,4.248,3l.255-.04,5.074-.793-2.559-.83Z" transform="translate(-1867.628 -774.58)" fill="#60605f"/>
          <path id="パス_89646" data-name="パス 89646" d="M1211.943,911.1q-.919-.57-1.875-1.061v1.87l5.356,1.715A30.073,30.073,0,0,0,1211.943,911.1Z" transform="translate(-1159.568 -901.176)" fill="#6b6a68"/>
          <path id="パス_89647" data-name="パス 89647" d="M1467.971,1242.44h0q.381-.131.76-.259h0Q1468.352,1242.308,1467.971,1242.44Z" transform="translate(-1402.648 -1214.233)" fill="#6b6a68"/>
          <path id="パス_89648" data-name="パス 89648" d="M1399.425,1101.29h0l-1.214-.4h0Z" transform="translate(-1336.897 -1081.065)" fill="#6b6a68"/>
          <path id="パス_89649" data-name="パス 89649" d="M1210.068,963.4l5.761,1.868-2.045-.663-3.716-1.205Z" transform="translate(-1159.568 -951.479)" fill="#6b6a68"/>
          <path id="パス_89650" data-name="パス 89650" d="M1215.424,877.916l.3.1,5.155,1.651v2.769l4.555-.7,2.673.856v-4.411l-18.041-6.02v2.177q.955.493,1.875,1.061A30.059,30.059,0,0,1,1215.424,877.916Z" transform="translate(-1159.568 -865.473)" fill="#60605f"/>
          <path id="パス_89651" data-name="パス 89651" d="M1475.8,1103.828l2.768.9h0Z" transform="translate(-1410.026 -1083.832)" fill="#60605f"/>
          <path id="パス_89652" data-name="パス 89652" d="M1481.209,1233.353q.832-.279,1.659-.539-.826.259-1.659.538Z" transform="translate(-1415.125 -1205.405)" fill="#60605f"/>
          <path id="パス_89653" data-name="パス 89653" d="M1523.954,1228.524h0Z" transform="translate(-1455.413 -1201.361)" fill="#60605f"/>
          <path id="パス_89654" data-name="パス 89654" d="M1511.049,1229.418l-.611.188Z" transform="translate(-1442.674 -1202.204)" fill="#60605f"/>
          <path id="パス_89655" data-name="パス 89655" d="M1920.8,1032.6l7.643,2.549-.483-.161Z" transform="translate(-1829.453 -1016.702)" fill="#8c8b89"/>
          <path id="パス_89656" data-name="パス 89656" d="M2207.67,944.972l-4.22-1.379,4.22,1.379Z" transform="translate(-2095.855 -932.807)" fill="#8c8b89"/>
          <path id="パス_89657" data-name="パス 89657" d="M1827.307,1024.118l-10.966-3.667h0Z" transform="translate(-1730.995 -1005.247)" fill="#8c8b89"/>
          <path id="パス_89658" data-name="パス 89658" d="M1976.545,886.934v-1.591a110.914,110.914,0,0,0-18.313,4.418Z" transform="translate(-1864.731 -877.904)" fill="#8c8b89"/>
          <path id="パス_89659" data-name="パス 89659" d="M1527.964,1120.832l-4-1.3h0l3.643,1.188.355.115Z" transform="translate(-1455.424 -1098.631)" fill="#848383"/>
          <path id="パス_89660" data-name="パス 89660" d="M1526.16,1142.708l-1.09-.356-1.1-.361h0Z" transform="translate(-1455.424 -1119.802)" fill="#848383"/>
          <path id="パス_89661" data-name="パス 89661" d="M1780.215,1008.372l1.387.464h0l-.305-.1-1.813-.606Z" transform="translate(-1696.257 -993.632)" fill="#848383"/>
          <path id="パス_89662" data-name="パス 89662" d="M1526.14,1074.882l1.824.592h0l-4-1.3h0Z" transform="translate(-1455.424 -1055.885)" fill="#848383"/>
          <path id="パス_89663" data-name="パス 89663" d="M1688.687,1008.366l-3.874.59,5.441-.828Z" transform="translate(-1607.027 -993.632)" fill="#848383"/>
          <path id="パス_89664" data-name="パス 89664" d="M1523.966,867.792l4,1.28v-3.3l5.406-.835,15.555-2.4a110.919,110.919,0,0,1,18.313-4.418v-1.66l-43.273,6.922Z" transform="translate(-1455.424 -850.679)" fill="#848383"/>
          <path id="パス_89665" data-name="パス 89665" d="M1309.418,762l1.813.606c1.637.163,3.4.318,5.263.452l-4.4-1.466,5.441-.828,8.169,2.711c1.309.023,2.639.029,3.981.015l-4.027-1.333-5.442-1.8,5.442-.828,11.211,3.692q1.581-.107,3.158-.261l-6.246-2.052-5.441-1.788,5.441-.828,11.994,3.92q1.281-.212,2.539-.464l-6.411-2.09-5.441-1.774,5.441-.828,10.525,3.413.514.167q.985-.279,1.942-.591L1342,755.918l-37.866,5.846c1.08.15,2.327.312,3.714.476Z" transform="translate(-1248.23 -755.918)" fill="#9e9e9e"/>
          <path id="パス_89666" data-name="パス 89666" d="M1271.382,829.38l-5.155-1.651q-.957.312-1.942.591l2.045.663-5.074.793-.368.057-1.232-.4q-1.257.253-2.539.464l1.09.356-4.182.653-1.26.2-1.4-.459q-1.575.154-3.158.261l1.874.617-5.39.842-.052.008-3.615-1.2c-1.342.013-2.671.007-3.981-.015l4.915,1.631-5.442.85-7.642-2.549-1.046-.349c-1.862-.134-3.626-.289-5.263-.452l11.271,3.769-5.441.85-1.171-.393-1.02-.343-5.453-1.832-5.441-1.829,3.874-.59c-1.387-.163-2.634-.326-3.714-.476l-5.406.835,18.041,6.02Z" transform="translate(-1159.568 -823.602)" fill="#b2b2b2"/>
          <path id="パス_89667" data-name="パス 89667" d="M1690.254,1008.9v-.774l-5.441.828,5.441,1.828Z" transform="translate(-1607.027 -993.632)" fill="#7f7f7f"/>
          <path id="パス_89668" data-name="パス 89668" d="M1831.568,986.907v-.292l-5.442.828,4.4,1.466,1.046.349v-2.352Z" transform="translate(-1740.219 -973.356)" fill="#7f7f7f"/>
          <path id="パス_89669" data-name="パス 89669" d="M2114.215,943.593l-5.441.828,5.441,1.788v-2.616Z" transform="translate(-2006.621 -932.807)" fill="#7f7f7f"/>
          <path id="パス_89670" data-name="パス 89670" d="M2255.535,922.083l-5.441.828,5.441,1.774v-2.6Z" transform="translate(-2139.818 -912.533)" fill="#7f7f7f"/>
          <path id="パス_89671" data-name="パス 89671" d="M1972.89,965.193V965.1l-5.441.828,5.441,1.8v-2.541Z" transform="translate(-1873.418 -953.081)" fill="#7f7f7f"/>
          <path id="パス_89672" data-name="パス 89672" d="M1779.484,1021.588v1.883l5.453,1.832q-.675-.627-1.4-1.191A23.946,23.946,0,0,0,1779.484,1021.588Z" transform="translate(-1696.257 -1006.319)" fill="#60605f"/>
          <path id="パス_89673" data-name="パス 89673" d="M1923.813,1007.983a21.684,21.684,0,0,0-3.01-1.072v1.477l7.16,2.388A15.2,15.2,0,0,0,1923.813,1007.983Z" transform="translate(-1829.453 -992.485)" fill="#60605f"/>
          <path id="パス_89674" data-name="パス 89674" d="M1920.8,986.907v.875a21.7,21.7,0,0,1,3.01,1.072,15.194,15.194,0,0,1,4.15,2.793l.483.161,5.442-.85-4.915-1.631-8.169-2.711Z" transform="translate(-1829.453 -973.356)" fill="#545454"/>
          <path id="パス_89675" data-name="パス 89675" d="M2210.646,960.3a14.253,14.253,0,0,0-5.488-2.945,15.86,15.86,0,0,0-1.709-.4V958.8l6.246,2.052,1.4.459.453-.071A8.788,8.788,0,0,0,2210.646,960.3Z" transform="translate(-2095.855 -945.393)" fill="#6b6a68"/>
          <path id="パス_89676" data-name="パス 89676" d="M2348.271,938.711a18.93,18.93,0,0,0-2.981-1.055q-.263-.071-.527-.13v1.714l7.643,2.491.112-.017A13.807,13.807,0,0,0,2348.271,938.711Z" transform="translate(-2229.047 -927.088)" fill="#6b6a68"/>
          <path id="パス_89677" data-name="パス 89677" d="M2064.059,983.627q-.953-.36-1.933-.638v1.6l4.027,1.333,3.615,1.2.051-.008c-.044-.043-.086-.087-.131-.129A16.662,16.662,0,0,0,2064.059,983.627Z" transform="translate(-1962.655 -969.938)" fill="#6b6a68"/>
          <path id="パス_89678" data-name="パス 89678" d="M2062.127,965.193v.939q.978.279,1.933.638a16.668,16.668,0,0,1,5.631,3.356c.044.043.087.086.131.13l5.39-.842-1.874-.617-11.211-3.692Z" transform="translate(-1962.655 -953.081)" fill="#60605f"/>
          <path id="パス_89679" data-name="パス 89679" d="M1780.215,1008.372l-.732-.245v.774a23.936,23.936,0,0,1,4.05,2.524q.726.563,1.4,1.191l1.02.343,1.171.393,5.441-.85-10.966-3.667Z" transform="translate(-1696.257 -993.632)" fill="#545454"/>
          <path id="パス_89680" data-name="パス 89680" d="M2207.67,944.972l-4.22-1.379v.767a15.845,15.845,0,0,1,1.709.4,14.251,14.251,0,0,1,5.488,2.945,8.8,8.8,0,0,1,.9.938l.807-.126,4.181-.654-6.912-2.259Z" transform="translate(-2095.855 -932.807)" fill="#60605f"/>
          <path id="パス_89681" data-name="パス 89681" d="M2344.764,922.083v.888q.264.059.527.13a18.961,18.961,0,0,1,2.981,1.055,13.816,13.816,0,0,1,4.248,3l.319-.05,5.01-.783-8.142-2.64Z" transform="translate(-2229.047 -912.533)" fill="#60605f"/>
          <path id="パス_89682" data-name="パス 89682" d="M1791.36,1236.194v7.734l4.411,1.637a37.75,37.75,0,0,0-2.153-5.43A35.394,35.394,0,0,0,1791.36,1236.194Z" transform="translate(-1707.45 -1208.59)" fill="#60605f"/>
          <path id="パス_89683" data-name="パス 89683" d="M1708.4,1181.785l-.311.061Z" transform="translate(-1628.962 -1157.308)" fill="#60605f"/>
          <path id="パス_89684" data-name="パス 89684" d="M1615.749,1201.721l-.4.1Z" transform="translate(-1541.551 -1176.099)" fill="#60605f"/>
          <path id="パス_89685" data-name="パス 89685" d="M1697.759,1183.842l-.326.066Z" transform="translate(-1618.922 -1159.247)" fill="#60605f"/>
          <path id="パス_89686" data-name="パス 89686" d="M1603.12,1204.776l-.419.105Z" transform="translate(-1529.634 -1178.978)" fill="#60605f"/>
          <path id="パス_89687" data-name="パス 89687" d="M1718.795,1179.835l-.3.057Z" transform="translate(-1638.777 -1155.47)" fill="#60605f"/>
          <path id="パス_89688" data-name="パス 89688" d="M1593.527,1208l.229-.059-.229.058Z" transform="translate(-1520.987 -1181.965)" fill="#60605f"/>
          <path id="パス_89689" data-name="パス 89689" d="M1728.8,1178l-.283.053Z" transform="translate(-1648.22 -1153.739)" fill="#60605f"/>
          <path id="パス_89690" data-name="パス 89690" d="M1664.059,1190.758l-.362.079Z" transform="translate(-1587.125 -1165.766)" fill="#60605f"/>
          <path id="パス_89691" data-name="パス 89691" d="M1628.158,1198.783l-.394.094Z" transform="translate(-1553.257 -1173.329)" fill="#60605f"/>
          <path id="パス_89692" data-name="パス 89692" d="M1675.549,1188.329l-.351.075Z" transform="translate(-1597.964 -1163.476)" fill="#60605f"/>
          <path id="パス_89693" data-name="パス 89693" d="M1640.32,1195.975l-.387.09Z" transform="translate(-1564.726 -1170.683)" fill="#60605f"/>
          <path id="パス_89694" data-name="パス 89694" d="M1686.8,1186.035l-.336.07Z" transform="translate(-1608.584 -1161.314)" fill="#60605f"/>
          <path id="パス_89695" data-name="パス 89695" d="M1652.3,1193.3l-.374.084Z" transform="translate(-1576.033 -1168.165)" fill="#60605f"/>
          <path id="パス_89696" data-name="パス 89696" d="M1738.453,1176.272l-.272.049Z" transform="translate(-1657.328 -1152.112)" fill="#60605f"/>
          <path id="パス_89697" data-name="パス 89697" d="M1597.27,1058.721q-.91-.665-1.868-1.26-.919-.569-1.875-1.061v1.123Z" transform="translate(-1520.987 -1039.129)" fill="#60605f"/>
          <path id="パス_89698" data-name="パス 89698" d="M1593.527,1142.2l.877.286-.877-.286Z" transform="translate(-1520.987 -1120.002)" fill="#60605f"/>
          <path id="パス_89699" data-name="パス 89699" d="M1701.815,1131.852l-.1-.032h0Z" transform="translate(-1622.957 -1110.215)" fill="#5b5b5b"/>
          <path id="パス_89700" data-name="パス 89700" d="M1781.481,1169.27l-.176.028Z" transform="translate(-1697.973 -1145.513)" fill="#5b5b5b"/>
          <path id="パス_89701" data-name="パス 89701" d="M1611.568,1024.54l-18.041-6.02v2.177q.955.492,1.875,1.061.958.594,1.868,1.26l2.473.792,5.155,1.651v1.66l-.165.026.165-.026v3.909a35.342,35.342,0,0,1,2.257,3.942,37.7,37.7,0,0,1,2.153,5.43l2.26.839Z" transform="translate(-1520.987 -1003.427)" fill="#5b5b5b"/>
          <path id="パス_89702" data-name="パス 89702" d="M1747.7,1174.656l-.263.047Z" transform="translate(-1666.048 -1150.589)" fill="#5b5b5b"/>
          <path id="パス_89703" data-name="パス 89703" d="M1773.514,1170.465l-.206.034Z" transform="translate(-1690.436 -1146.639)" fill="#5b5b5b"/>
          <path id="パス_89704" data-name="パス 89704" d="M1756.675,1173.156l-.245.042Z" transform="translate(-1674.528 -1149.175)" fill="#5b5b5b"/>
          <path id="パス_89705" data-name="パス 89705" d="M1765.247,1171.754l-.23.039Z" transform="translate(-1682.621 -1147.854)" fill="#5b5b5b"/>
          <path id="パス_89706" data-name="パス 89706" d="M1907.425,1009.745v16.7l2.459-.44,40.814-7.308v-1.039c-6.87,1.109-23.367,4.075-40.3,7.029l.007-.015c.061-.137.128-.273.193-.408.039-.082.077-.165.118-.247.065-.13.135-.259.2-.387.045-.085.089-.17.136-.255.07-.125.143-.248.216-.371.05-.086.1-.172.151-.257.073-.121.151-.239.228-.358.055-.086.109-.172.167-.258.078-.117.159-.232.24-.347.06-.085.118-.171.18-.255.082-.114.168-.226.253-.338.064-.084.127-.168.192-.252.086-.111.176-.22.265-.329.068-.083.135-.166.2-.248.091-.108.184-.214.277-.321.071-.082.142-.163.215-.244.095-.1.192-.209.289-.313.075-.08.15-.16.227-.239.1-.1.2-.2.3-.3.078-.079.156-.157.236-.235q.154-.15.312-.3.122-.115.245-.229.16-.147.323-.291l.254-.224q.165-.143.333-.284l.263-.219q.17-.14.343-.278l.27-.213q.176-.137.354-.273l.276-.207q.181-.134.364-.266l.283-.2c.124-.087.248-.174.373-.26.1-.066.192-.131.289-.2q.19-.128.382-.255l.294-.191q.195-.125.391-.249l.3-.184q.2-.123.4-.244l.3-.179q.2-.12.408-.238l.3-.172c.139-.078.278-.157.418-.234l.305-.166c.142-.077.284-.154.426-.229l.3-.158c.146-.076.292-.153.439-.228l.3-.149c.15-.075.3-.151.452-.225l.294-.142c.154-.075.308-.149.464-.223l.279-.129c.162-.075.324-.151.487-.225l.253-.113c.172-.077.344-.155.517-.23l.212-.091c.188-.082.376-.163.565-.243l.055-.023q.556-.234,1.115-.458l.019-.008q.855-.342,1.716-.662l.2-.075.523-.19.266-.1c.165-.059.33-.116.5-.174l.292-.1.477-.162.31-.105.46-.152.326-.107.451-.144.33-.1.444-.138.335-.1.437-.132.336-.1.431-.126.338-.1.42-.119.343-.1.414-.114.339-.092.406-.108.343-.091.4-.1.337-.086.394-.1.335-.083.383-.094.332-.081.378-.09.327-.077.368-.085.325-.074.357-.08.323-.072.345-.076.317-.068.339-.072.31-.065.326-.068.306-.062.317-.064.3-.059.3-.06.294-.057.293-.056.282-.053.284-.053.276-.05.268-.049.27-.048.257-.045.256-.044.245-.043.24-.04.242-.041.227-.037.226-.037.232-.037.2-.032.211-.033.191-.03v-1.66Zm2.706,15.587c.051-.127.105-.252.159-.378C1910.237,1025.08,1910.182,1025.205,1910.131,1025.333Z" transform="translate(-1816.844 -988.632)" fill="#848383"/>
          <path id="パス_89707" data-name="パス 89707" d="M1687.6,908.13c1.08.15,2.327.312,3.714.476l1.567-.239,1.813.606c1.637.164,3.4.318,5.263.452l-4.4-1.466,5.441-.828,8.169,2.711c1.31.023,2.639.029,3.981.016l-4.027-1.333-5.442-1.8,5.442-.828,11.211,3.692q1.581-.107,3.158-.261l-6.246-2.052-5.441-1.788,5.441-.828,4.219,1.379,7.775,2.541q1.281-.211,2.539-.464l-6.412-2.09-5.441-1.774,5.441-.828,11.039,3.58q.985-.279,1.942-.591l-12.886-4.127-4,.617-18.313,2.827Z" transform="translate(-1609.651 -893.872)" fill="#9e9e9e"/>
          <path id="パス_89708" data-name="パス 89708" d="M1647.744,974.686l2.045.663-5.01.783-.431.067-1.232-.4q-1.257.253-2.539.464l1.09.356-4.181.653-1.26.2-1.4-.459q-1.575.154-3.158.261l1.874.617-5.39.842-.052.008-3.615-1.2c-1.342.013-2.671.007-3.98-.015l4.915,1.631-5.442.85-7.643-2.549-1.046-.349c-1.862-.133-3.626-.288-5.263-.452l.305.1,10.966,3.667-5.441.85-1.171-.393-1.02-.343-5.452-1.832-5.441-1.829,3.874-.59c-1.387-.164-2.634-.326-3.714-.476l-5.407.835,18.041,6.02,43.272-6.922-5.155-1.651Q1648.729,974.407,1647.744,974.686Z" transform="translate(-1520.987 -961.555)" fill="#b2b2b2"/>
          <path id="パス_89709" data-name="パス 89709" d="M428.141,1008.127l-5.441.828,5.441,1.828v-2.657Z" transform="translate(-417.453 -993.632)" fill="#7f7f7f"/>
          <path id="パス_89710" data-name="パス 89710" d="M569.456,986.907v-.292l-5.441.828,4.4,1.466,1.046.349v-2.352Z" transform="translate(-550.646 -973.356)" fill="#7f7f7f"/>
          <path id="パス_89711" data-name="パス 89711" d="M852.1,943.593l-5.442.828,5.442,1.788v-2.616Z" transform="translate(-817.047 -932.807)" fill="#7f7f7f"/>
          <path id="パス_89712" data-name="パス 89712" d="M993.422,922.083l-5.441.828,5.441,1.774v-2.6Z" transform="translate(-950.245 -912.533)" fill="#7f7f7f"/>
          <path id="パス_89713" data-name="パス 89713" d="M710.778,965.193V965.1l-5.442.828,5.442,1.8v-2.541Z" transform="translate(-683.845 -953.081)" fill="#7f7f7f"/>
          <path id="パス_89714" data-name="パス 89714" d="M517.37,1021.588v1.883l5.453,1.832q-.675-.627-1.4-1.191A23.955,23.955,0,0,0,517.37,1021.588Z" transform="translate(-506.682 -1006.319)" fill="#60605f"/>
          <path id="パス_89715" data-name="パス 89715" d="M661.7,1007.983a21.687,21.687,0,0,0-3.01-1.072v1.477l7.16,2.388A15.189,15.189,0,0,0,661.7,1007.983Z" transform="translate(-639.88 -992.485)" fill="#6b6a68"/>
          <path id="パス_89716" data-name="パス 89716" d="M658.69,986.907v.875a21.7,21.7,0,0,1,3.01,1.072,15.189,15.189,0,0,1,4.15,2.793l.483.161,5.441-.85-13.084-4.342Z" transform="translate(-639.88 -973.356)" fill="#60605f"/>
          <path id="パス_89717" data-name="パス 89717" d="M948.534,960.3a14.251,14.251,0,0,0-5.487-2.945,15.92,15.92,0,0,0-1.709-.4V958.8l6.246,2.052,1.4.459.453-.071A8.756,8.756,0,0,0,948.534,960.3Z" transform="translate(-906.282 -945.393)" fill="#6b6a68"/>
          <path id="パス_89718" data-name="パス 89718" d="M1086.158,938.711a18.929,18.929,0,0,0-2.981-1.055q-.263-.071-.527-.13v1.714l7.323,2.387h0l.32.1.367-.057-.255.04A13.807,13.807,0,0,0,1086.158,938.711Z" transform="translate(-1039.474 -927.088)" fill="#6b6a68"/>
          <path id="パス_89719" data-name="パス 89719" d="M801.947,983.627q-.953-.36-1.933-.638v1.6l4.028,1.333,3.615,1.2.052-.008c-.044-.043-.087-.087-.131-.129A16.661,16.661,0,0,0,801.947,983.627Z" transform="translate(-773.081 -969.938)" fill="#6b6a68"/>
          <path id="パス_89720" data-name="パス 89720" d="M800.014,965.193v.939q.979.279,1.933.638a16.667,16.667,0,0,1,5.63,3.356c.044.043.087.086.131.13l5.39-.842-1.874-.617L800.014,965.1Z" transform="translate(-773.081 -953.081)" fill="#60605f"/>
          <path id="パス_89721" data-name="パス 89721" d="M517.37,1008.127v.774a23.945,23.945,0,0,1,4.05,2.524q.725.563,1.4,1.191l1.02.343,1.171.393,5.441-.85-12.353-4.13Z" transform="translate(-506.682 -993.632)" fill="#565656"/>
          <path id="パス_89722" data-name="パス 89722" d="M941.337,943.593v.767a15.9,15.9,0,0,1,1.709.4,14.249,14.249,0,0,1,5.487,2.945,8.767,8.767,0,0,1,.9.938l.807-.126,4.181-.654-6.912-2.259Z" transform="translate(-906.282 -932.807)" fill="#60605f"/>
          <path id="パス_89723" data-name="パス 89723" d="M1087.594,923.686l-4.943-1.6v.888q.263.059.527.13a18.96,18.96,0,0,1,2.981,1.055,13.816,13.816,0,0,1,4.248,3l.255-.04,5.074-.793-5.761-1.868Z" transform="translate(-1039.474 -912.533)" fill="#60605f"/>
          <path id="パス_89724" data-name="パス 89724" d="M331.413,1018.52v2.177q.478.246.947.511t.928.55a30.249,30.249,0,0,1,4.341,3.272q.808.73,1.564,1.515.378.392.742.8a31.26,31.26,0,0,1,2.162,2.692q.671.935,1.275,1.916.907,1.469,1.669,3.023h0c.144.293.283.589.419.886l.1.218c.134.3.266.6.392.9h0c.127.3.248.609.367.916l.079.206c.118.309.233.62.343.933h0l-15.328-5.806v1.316l15.781,5.859c-.028-.089-.057-.176-.085-.265.028.088.057.176.085.265l2.26.839v-16.7Zm15.329,20.518q.119.338.231.678Q346.861,1039.375,346.742,1039.038Z" transform="translate(-331.413 -1003.427)" fill="#60605f"/>
          <path id="パス_89725" data-name="パス 89725" d="M862.826,1298.105a31.242,31.242,0,0,0-2.162-2.692q-.364-.4-.742-.8.378.392.742.8A31.242,31.242,0,0,1,862.826,1298.105Z" transform="translate(-829.546 -1263.655)" fill="#848383"/>
          <path id="パス_89726" data-name="パス 89726" d="M834.281,1269.777q-.755-.784-1.564-1.515Q833.525,1268.992,834.281,1269.777Z" transform="translate(-803.905 -1238.815)" fill="#848383"/>
          <path id="パス_89727" data-name="パス 89727" d="M1051.839,1169.078l7.643,2.549-.483-.161Z" transform="translate(-1010.432 -1145.332)" fill="#848383"/>
          <path id="パス_89728" data-name="パス 89728" d="M1338.148,1081.264l-3.663-1.2,3.663,1.2Z" transform="translate(-1276.834 -1061.437)" fill="#848383"/>
          <path id="パス_89729" data-name="パス 89729" d="M821.29,1144.6l-1.567.239-3.874.59Z" transform="translate(-788.006 -1122.26)" fill="#848383"/>
          <path id="パス_89730" data-name="パス 89730" d="M649.867,1013.746v-2.177l5.407-.835,33.311-5.143v-2.769l-43.273,6.922v16.7l2.459-.44,2.1-.375Z" transform="translate(-627.271 -988.632)" fill="#848383"/>
          <path id="パス_89731" data-name="パス 89731" d="M730.778,1197.206a30.286,30.286,0,0,0-4.341-3.272q-.919-.569-1.875-1.061.956.492,1.875,1.061A30.286,30.286,0,0,1,730.778,1197.206Z" transform="translate(-701.966 -1167.759)" fill="#848383"/>
          <path id="パス_89732" data-name="パス 89732" d="M430.765,908.367l1.813.606c1.637.164,3.4.318,5.263.452l-4.4-1.466,5.441-.828,8.169,2.711c1.31.023,2.639.029,3.981.016l-4.027-1.333-5.442-1.8,5.442-.828,11.211,3.692q1.581-.107,3.158-.261l-6.246-2.052-5.441-1.788,5.441-.828,11.994,3.92q1.281-.211,2.539-.464l-6.411-2.09-5.441-1.774,5.441-.828,7.323,2.375L474.294,907q.985-.279,1.942-.591l-.3-.1-5.356-1.716-7.228-2.315-37.866,5.846c1.08.15,2.327.312,3.714.476Z" transform="translate(-420.077 -893.872)" fill="#9e9e9e"/>
          <path id="パス_89733" data-name="パス 89733" d="M392.727,975.746l-5.155-1.651q-.957.312-1.942.591l2.045.663-5.074.793-.367.057-.32-.1-.912-.3q-1.257.253-2.539.464l1.09.356-4.181.653-1.26.2-1.4-.459q-1.575.154-3.158.261l1.874.617-5.39.842-.052.008-3.615-1.2c-1.342.013-2.671.007-3.981-.015l4.915,1.631-5.441.85-7.643-2.549-1.046-.349c-1.862-.133-3.626-.288-5.263-.452l11.271,3.769-5.441.85-1.171-.393-1.02-.343-5.453-1.832-5.441-1.829,3.874-.59c-1.387-.164-2.634-.326-3.714-.476l-5.407.835,18.041,6.02Z" transform="translate(-331.413 -961.555)" fill="#b2b2b2"/>
          <path id="パス_89734" data-name="パス 89734" d="M821.29,1147.257V1144.6l-5.441.828Z" transform="translate(-788.006 -1122.26)" fill="#7f7f7f"/>
          <path id="パス_89735" data-name="パス 89735" d="M962.6,1124.255v-1.167l-5.442.828,4.4,1.466,1.046.349Z" transform="translate(-921.198 -1101.986)" fill="#7f7f7f"/>
          <path id="パス_89736" data-name="パス 89736" d="M1245.25,1080.067l-5.441.828,5.441,1.788v-2.616Z" transform="translate(-1187.599 -1061.437)" fill="#7f7f7f"/>
          <path id="パス_89737" data-name="パス 89737" d="M1386.57,1058.557l-5.441.828,5.441,1.774v-2.6Z" transform="translate(-1320.797 -1041.163)" fill="#7f7f7f"/>
          <path id="パス_89738" data-name="パス 89738" d="M1103.927,1101.666v-.088l-5.442.828,5.442,1.8v-2.541Z" transform="translate(-1054.398 -1081.711)" fill="#7f7f7f"/>
          <path id="パス_89739" data-name="パス 89739" d="M910.519,1158.062v1.883l5.453,1.832q-.675-.627-1.4-1.191A23.953,23.953,0,0,0,910.519,1158.062Z" transform="translate(-877.235 -1134.949)" fill="#60605f"/>
          <path id="パス_89740" data-name="パス 89740" d="M1054.848,1144.457a21.721,21.721,0,0,0-3.01-1.072v1.477l7.16,2.388A15.191,15.191,0,0,0,1054.848,1144.457Z" transform="translate(-1010.432 -1121.115)" fill="#6b6a68"/>
          <path id="パス_89741" data-name="パス 89741" d="M1051.839,1124.255a21.688,21.688,0,0,1,3.01,1.072,15.185,15.185,0,0,1,4.15,2.793l.483.161,5.441-.85-4.915-1.631-8.169-2.711v1.167Z" transform="translate(-1010.432 -1101.986)" fill="#60605f"/>
          <path id="パス_89742" data-name="パス 89742" d="M1342.128,1097.78l.453-.071a8.819,8.819,0,0,0-.9-.938,14.249,14.249,0,0,0-5.487-2.945,15.916,15.916,0,0,0-1.709-.4v1.848l6.246,2.052Z" transform="translate(-1276.834 -1074.023)" fill="#6b6a68"/>
          <path id="パス_89743" data-name="パス 89743" d="M1482.565,1077.919l.877.286.112-.018a13.8,13.8,0,0,0-4.248-3,18.946,18.946,0,0,0-2.98-1.055q-.264-.071-.527-.13v1.714l2.768.9Z" transform="translate(-1410.026 -1055.718)" fill="#6b6a68"/>
          <path id="パス_89744" data-name="パス 89744" d="M1200.857,1123.585c-.044-.043-.087-.087-.131-.13a16.663,16.663,0,0,0-5.63-3.356q-.953-.36-1.933-.638v1.6l4.027,1.333,3.615,1.2Z" transform="translate(-1143.634 -1098.567)" fill="#6b6a68"/>
          <path id="パス_89745" data-name="パス 89745" d="M1193.163,1102.606q.979.279,1.933.638a16.666,16.666,0,0,1,5.63,3.356c.044.042.087.087.131.13l5.39-.843-1.874-.617-11.211-3.692v1.028Z" transform="translate(-1143.634 -1081.711)" fill="#60605f"/>
          <path id="パス_89746" data-name="パス 89746" d="M914.569,1147.9q.726.563,1.4,1.191l1.02.343,1.171.393,5.441-.85-11.271-3.769-1.813-.606v.774A23.947,23.947,0,0,1,914.569,1147.9Z" transform="translate(-877.235 -1122.26)" fill="#565656"/>
          <path id="パス_89747" data-name="パス 89747" d="M1336.194,1081.24a14.25,14.25,0,0,1,5.487,2.945,8.775,8.775,0,0,1,.9.938l-.453.071,1.26-.2,4.181-.654-2.194-.717h0l-6.014-1.966h0l-1.214-.4-3.663-1.2v.768A15.887,15.887,0,0,1,1336.194,1081.24Z" transform="translate(-1276.834 -1061.437)" fill="#60605f"/>
          <path id="パス_89748" data-name="パス 89748" d="M1476.326,1059.574a18.934,18.934,0,0,1,2.98,1.055,13.808,13.808,0,0,1,4.248,3l-.112.018,5.441-.85-.1-.032h0l-1.945-.631-4.273-1.386h0l-1.824-.592-2.174-.705h0l-2.768-.9v.887C1475.974,1059.484,1476.15,1059.527,1476.326,1059.574Z" transform="translate(-1410.026 -1041.163)" fill="#60605f"/>
          <path id="パス_89749" data-name="パス 89749" d="M742.6,1161.014l-18.041-6.02v2.177q.956.492,1.875,1.061a30.27,30.27,0,0,1,4.341,3.272q.808.73,1.564,1.515.378.392.742.8a31.3,31.3,0,0,1,2.162,2.692q.671.935,1.276,1.916.907,1.469,1.669,3.023h0c.143.291.28.584.415.878l.1.22c.132.293.261.588.386.884l0,.005c.126.3.247.605.366.911l.081.211q.437,1.147.8,2.32l2.26.839Z" transform="translate(-701.966 -1132.057)" fill="#60605f"/>
          <path id="パス_89750" data-name="パス 89750" d="M859.171,1039.614l-2.673-.856-4.555.7-33.311,5.143c1.08.15,2.327.312,3.714.476l1.567-.239,1.813.606c1.637.164,3.4.318,5.263.452l-4.4-1.466,5.441-.828,8.169,2.711c1.31.023,2.639.029,3.981.016L840.158,1045l-5.442-1.8,5.442-.828,11.211,3.692q1.581-.107,3.158-.261l-6.246-2.052-5.442-1.788,5.442-.828,3.662,1.2,1.214.4,6.014,1.965,1.1.361q1.281-.211,2.539-.464l-3.643-1.188-2.768-.9-5.441-1.774,5.441-.828,2.768.9,4,1.3,4.273,1.386q.985-.279,1.942-.591l-2.472-.792-3.743-1.2Z" transform="translate(-790.629 -1022.502)" fill="#9e9e9e"/>
          <path id="パス_89751" data-name="パス 89751" d="M778.778,1111.16l1.945.631.1.032-5.441.85-.877-.286-.355-.116q-1.257.253-2.539.464l1.09.356-4.181.653-1.26.2-1.4-.459q-1.575.155-3.158.261l1.874.617-5.39.842-.052.008-3.615-1.2c-1.342.013-2.671.007-3.981-.015l4.915,1.631-5.442.85-7.643-2.549-1.046-.349c-1.862-.134-3.626-.288-5.263-.452l11.271,3.769-5.441.85-1.171-.393-1.02-.343-5.453-1.832-5.441-1.829,3.874-.59c-1.387-.163-2.634-.326-3.714-.476l-5.407.835,18.041,6.02,43.273-6.923-5.155-1.651Q779.764,1110.881,778.778,1111.16Z" transform="translate(-701.966 -1090.185)" fill="#b2b2b2"/>
          <path id="パス_89752" data-name="パス 89752" d="M1132.376,1168.183l-.165.026-.237.037-.176.028-.254.041-.206.034-.246.04-.23.039-.249.042-.245.042-.254.044-.263.047-.26.046-.272.05-.272.05-.283.053-.28.053-.3.057-.287.056-.311.061-.287.057-.326.066-.295.06-.336.07-.3.062-.351.075-.3.065-.362.079-.3.067-.374.085-.3.069-.387.089-.305.072-.394.094-.31.075-.4.1-.308.077-.419.105-.3.077-.228.059h0l-.208.054c-1.231.323-2.5.678-3.79,1.07h0l-.166.051-.611.188-.021.007q-.826.259-1.658.538-.38.127-.761.259-.651.225-1.3.463l-.116.042c-.2.074-.4.149-.6.224l-.182.068c-.188.071-.376.144-.563.217l-.22.085-.541.216-.238.1-.245.1q-.712.292-1.416.6l-.391.173-.266.119q-.247.112-.493.226l-.269.125q-.243.114-.485.23l-.27.13q-.24.117-.478.236l-.269.135q-.237.12-.472.242l-.266.139q-.233.123-.465.248l-.265.144q-.23.126-.459.255l-.258.146q-.228.13-.454.263l-.253.15q-.225.134-.448.27l-.247.153q-.222.138-.442.278l-.238.154c-.147.1-.293.191-.438.288l-.228.155q-.218.148-.434.3l-.216.154c-.144.1-.289.207-.431.312l-.2.15c-.144.108-.288.216-.43.326l-.183.145c-.144.114-.289.227-.43.343l-.162.135c-.146.121-.291.242-.434.365l-.13.115c-.151.131-.3.263-.448.4l-.077.072a22.837,22.837,0,0,0-2.844,3.119c-.024.032-.049.063-.073.1-.109.147-.213.3-.317.445-.036.051-.073.1-.108.153-.1.14-.186.282-.278.424-.04.063-.082.125-.121.188-.085.136-.166.274-.247.412-.042.071-.085.141-.125.212-.076.135-.149.271-.222.407-.041.077-.083.153-.123.23-.069.134-.134.27-.2.405-.029.059-.059.118-.087.177,5.724-1.005,22.582-3.963,40.184-7.009v-12.953Z" transform="translate(-1048.466 -1144.488)" fill="#8c8b89"/>
          <path id="パス_89753" data-name="パス 89753" d="M1998.913,1031.8l-.232.037-.226.037-.228.037-.241.041-.24.041-.245.042-.257.044-.256.045-.27.048-.268.049-.276.05-.284.053-.282.053-.292.056-.294.057-.3.06-.3.059-.317.064-.306.062-.325.068-.31.065-.339.072-.317.068-.345.076-.323.072-.356.081-.325.074-.368.085-.327.077-.378.09-.332.081-.383.094-.335.083-.394.1-.337.086-.4.1-.343.091-.406.109-.339.093-.414.114-.344.1-.42.119-.338.1-.431.126-.336.1-.437.131-.335.1-.444.138-.33.1-.451.144-.326.107-.46.152-.311.105-.478.163-.292.1-.5.174-.266.1-.523.189-.2.075q-.859.32-1.716.662h0l-.02.008h0q-.559.224-1.116.458l-.056.023c-.189.08-.377.161-.565.243l-.212.091q-.26.114-.517.23l-.253.113c-.163.074-.325.15-.487.225l-.279.129c-.156.073-.31.148-.464.223l-.294.142c-.151.074-.3.149-.452.225l-.3.149c-.147.075-.293.151-.439.227l-.3.158c-.143.076-.284.153-.426.229l-.305.166c-.14.077-.279.156-.418.234l-.3.172c-.137.079-.272.158-.408.239l-.3.179c-.134.08-.267.162-.4.243l-.3.184-.391.249-.294.191q-.192.126-.382.254l-.289.2q-.187.129-.373.26l-.283.2q-.183.132-.364.266l-.276.207q-.178.135-.354.272-.136.106-.27.213-.173.138-.344.278l-.263.219q-.168.141-.333.284c-.086.074-.17.149-.255.224q-.163.145-.323.291-.123.114-.245.229c-.1.1-.209.2-.312.3-.08.077-.158.156-.236.234q-.152.152-.3.3c-.077.079-.151.159-.226.239-.1.1-.194.208-.289.313-.073.081-.144.162-.215.243-.093.106-.186.213-.277.321-.069.082-.136.165-.2.248-.089.109-.178.218-.265.329-.065.083-.129.167-.192.252-.085.112-.171.224-.253.338-.061.085-.12.17-.179.256-.081.115-.162.23-.24.347-.057.085-.111.172-.167.258-.076.119-.154.238-.228.358-.052.085-.1.171-.151.257-.073.123-.146.246-.216.371-.047.084-.09.17-.135.254-.069.129-.138.257-.2.387-.041.081-.078.164-.118.246-.065.136-.131.271-.193.408l-.007.015c16.929-2.954,33.425-5.92,40.3-7.029v-13.176l-.191.03-.211.033Z" transform="translate(-1865.661 -1015.858)" fill="#8c8b89"/>
          <path id="パス_89754" data-name="パス 89754" d="M2718.317,1247.188c0-.092-.006-.109,0,0Z" transform="translate(-2581.127 -1218.881)" fill="#848383"/>
          <path id="パス_89755" data-name="パス 89755" d="M1041.548,1160.919c.028-.059.059-.118.087-.177.065-.136.13-.271.2-.405.04-.078.082-.154.123-.23.073-.136.146-.272.222-.407.041-.071.083-.141.125-.212.081-.138.162-.276.247-.412.039-.063.081-.125.121-.187.091-.142.182-.284.278-.423.035-.052.072-.1.108-.153.1-.149.208-.3.317-.445.024-.032.049-.063.072-.1a22.861,22.861,0,0,1,2.844-3.119l.077-.072c.147-.134.3-.266.448-.4l.13-.115c.143-.123.288-.244.434-.365.054-.045.107-.09.162-.135.142-.116.286-.23.43-.343l.183-.145c.142-.11.286-.218.43-.326l.2-.15c.142-.105.286-.208.431-.312l.216-.154q.215-.151.434-.3l.228-.155c.145-.1.291-.193.438-.288l.238-.155q.22-.14.442-.278l.247-.153q.223-.136.448-.27l.253-.15q.226-.132.454-.263l.258-.146q.229-.129.459-.255l.265-.144q.231-.125.465-.248l.266-.139q.235-.122.473-.243l.268-.134q.238-.119.478-.236l.27-.13.485-.23.269-.125.493-.226.266-.119.386-.172h.005q.7-.308,1.416-.6h0l.245-.1.238-.1.541-.215.22-.085q.281-.11.563-.217l.182-.068q.3-.113.6-.224l.116-.042q.651-.238,1.3-.463.381-.132.761-.259.832-.279,1.659-.538l.021-.007.611-.189.166-.051h0c1.289-.392,2.559-.747,3.79-1.07l.208-.054.229-.059.3-.077.419-.105.308-.077.4-.1.31-.075.394-.094.305-.072.387-.09.3-.069.374-.084.3-.067.362-.079.3-.065.351-.075.3-.062.335-.07.295-.06.326-.066.287-.057.311-.061.287-.056.3-.057.28-.053.283-.053.272-.05.272-.049.26-.047.263-.046.254-.044.245-.042.249-.042.23-.039.246-.041.206-.033.254-.041.176-.028.237-.037.165-.026v-1.66l-43.273,6.922v16.7l2.459-.44c.087-.255.182-.506.281-.755-.1.249-.194.5-.281.755l40.814-7.308v-1.261C1064.13,1156.956,1047.272,1159.913,1041.548,1160.919Zm-.027.062c-.087.189-.169.38-.249.572C1041.353,1161.36,1041.434,1161.169,1041.521,1160.98Z" transform="translate(-997.823 -1117.262)" fill="#848383"/>
          <path id="パス_89756" data-name="パス 89756" d="M346.741,1074.736h0c-.11-.312-.225-.623-.343-.933l-.079-.206c-.119-.306-.24-.612-.367-.916h0c-.126-.3-.258-.6-.392-.9l-.1-.218c-.136-.3-.275-.593-.419-.886h0q-.762-1.551-1.669-3.023-.605-.98-1.275-1.916a31.334,31.334,0,0,0-2.162-2.692q-.364-.4-.742-.8-.755-.784-1.564-1.515a30.249,30.249,0,0,0-4.341-3.272q-.46-.285-.928-.55t-.947-.511v12.531Z" transform="translate(-331.413 -1039.129)" fill="#6b6a68"/>
          <path id="パス_89757" data-name="パス 89757" d="M739.093,1209.137l0-.005c-.124-.3-.254-.591-.386-.884l-.1-.22c-.135-.294-.272-.588-.415-.878h0q-.762-1.551-1.669-3.023-.6-.979-1.276-1.916a31.258,31.258,0,0,0-2.162-2.692q-.364-.4-.742-.8-.755-.784-1.564-1.515a30.286,30.286,0,0,0-4.341-3.272q-.919-.57-1.875-1.061v12.5l15.315,5.8c-.108-.307-.222-.611-.337-.916l-.081-.21C739.341,1209.742,739.22,1209.438,739.093,1209.137Z" transform="translate(-701.966 -1167.759)" fill="#6b6a68"/>
          <path id="パス_89758" data-name="パス 89758" d="M724.562,1411.685l15.781,5.859q-.22-.706-.466-1.4l-15.315-5.8Z" transform="translate(-701.966 -1372.725)" fill="#60605f"/>
        </g>
        <g id="グループ_15712" data-name="グループ 15712" transform="translate(3.724 7.121)">
          <path id="パス_89759" data-name="パス 89759" d="M1445.6,502.6l-5.441.828,5.441,1.829V502.6Z" transform="translate(-1380.161 -496.517)" fill="#7f7f7f"/>
          <path id="パス_89760" data-name="パス 89760" d="M1586.917,481.381v-.292l-5.441.828,4.4,1.466,1.046.349v-2.352Z" transform="translate(-1513.353 -476.242)" fill="#7f7f7f"/>
          <path id="パス_89761" data-name="パス 89761" d="M1869.563,438.067l-5.441.828,5.441,1.788v-2.616Z" transform="translate(-1779.754 -435.693)" fill="#7f7f7f"/>
          <path id="パス_89762" data-name="パス 89762" d="M2010.883,416.557l-5.441.828,5.441,1.774v-2.6Z" transform="translate(-1912.952 -415.419)" fill="#7f7f7f"/>
          <path id="パス_89763" data-name="パス 89763" d="M1728.24,459.667v-.089l-5.442.828,5.442,1.8v-2.541Z" transform="translate(-1646.553 -455.967)" fill="#7f7f7f"/>
          <path id="パス_89764" data-name="パス 89764" d="M1534.832,516.061v1.883l5.453,1.832q-.675-.627-1.4-1.191A23.963,23.963,0,0,0,1534.832,516.061Z" transform="translate(-1469.39 -509.204)" fill="#6b6a68"/>
          <path id="パス_89765" data-name="パス 89765" d="M1679.162,502.457a21.7,21.7,0,0,0-3.01-1.072v1.477l7.16,2.388A15.191,15.191,0,0,0,1679.162,502.457Z" transform="translate(-1602.588 -495.372)" fill="#6b6a68"/>
          <path id="パス_89766" data-name="パス 89766" d="M1676.152,481.381v.875a21.683,21.683,0,0,1,3.01,1.072,15.189,15.189,0,0,1,4.15,2.793l.483.161,5.441-.85-4.915-1.631-8.169-2.711Z" transform="translate(-1602.588 -476.242)" fill="#60605f"/>
          <path id="パス_89767" data-name="パス 89767" d="M1965.995,454.771a14.249,14.249,0,0,0-5.487-2.945,15.878,15.878,0,0,0-1.709-.4v1.848l6.246,2.052,1.4.459.453-.071A8.755,8.755,0,0,0,1965.995,454.771Z" transform="translate(-1868.989 -448.279)" fill="#6b6a68"/>
          <path id="パス_89768" data-name="パス 89768" d="M2103.62,433.184a18.925,18.925,0,0,0-2.98-1.055q-.263-.071-.527-.13v1.714l7.643,2.492.112-.018A13.811,13.811,0,0,0,2103.62,433.184Z" transform="translate(-2002.182 -429.974)" fill="#6b6a68"/>
          <path id="パス_89769" data-name="パス 89769" d="M1819.409,478.1q-.953-.36-1.932-.638v1.6l4.027,1.333,3.615,1.2.052-.008c-.044-.043-.087-.087-.131-.129A16.663,16.663,0,0,0,1819.409,478.1Z" transform="translate(-1735.79 -472.824)" fill="#6b6a68"/>
          <path id="パス_89770" data-name="パス 89770" d="M1817.476,459.667v.939q.979.279,1.932.638a16.662,16.662,0,0,1,5.63,3.356c.044.042.087.086.131.129l5.39-.842-1.874-.617-11.211-3.692Z" transform="translate(-1735.79 -455.967)" fill="#60605f"/>
          <path id="パス_89771" data-name="パス 89771" d="M1534.832,502.6v.774a23.967,23.967,0,0,1,4.05,2.524q.725.563,1.4,1.191l1.02.343,1.17.393,5.441-.85-12.352-4.13Z" transform="translate(-1469.39 -496.517)" fill="#60605f"/>
          <path id="パス_89772" data-name="パス 89772" d="M1958.8,438.067v.768a15.892,15.892,0,0,1,1.709.4,14.251,14.251,0,0,1,5.487,2.945,8.762,8.762,0,0,1,.9.938l.807-.126,4.181-.653-6.912-2.259Z" transform="translate(-1868.989 -435.693)" fill="#60605f"/>
          <path id="パス_89773" data-name="パス 89773" d="M2100.113,416.557v.888q.264.059.527.13a18.94,18.94,0,0,1,2.98,1.055,13.81,13.81,0,0,1,4.249,3l.495-.077,4.834-.755-8.142-2.64Z" transform="translate(-2002.182 -415.419)" fill="#60605f"/>
          <path id="パス_89774" data-name="パス 89774" d="M1469.772,799.563l-1.09-.356-5.672-1.854h0Z" transform="translate(-1401.695 -774.329)" fill="#6b6a68"/>
          <path id="パス_89775" data-name="パス 89775" d="M1501,847.238l.4-.062-.4.062Z" transform="translate(-1437.503 -821.288)" fill="#6b6a68"/>
          <path id="パス_89776" data-name="パス 89776" d="M1350.384,663.778l-1.508-.489h0Z" transform="translate(-1294.122 -647.97)" fill="#6b6a68"/>
          <path id="パス_89777" data-name="パス 89777" d="M1355.436,558.22v2.672l1.9-.293,3.178,1.018a31.9,31.9,0,0,0-3.112-4.1,30.8,30.8,0,0,0-6.646-5.583q-.919-.57-1.875-1.061v5.246l1.4.45Z" transform="translate(-1294.122 -542.015)" fill="#6b6a68"/>
          <path id="パス_89778" data-name="パス 89778" d="M1357.4,521.814a31.88,31.88,0,0,1,3.112,4.1l9.221,2.953a30.142,30.142,0,0,0-3.875-2.865q-.919-.57-1.875-1.061v-2.177l2.937-.453v-3.3l-18.041-6.02v2.177q.955.493,1.875,1.061A30.8,30.8,0,0,1,1357.4,521.814Z" transform="translate(-1294.122 -506.312)" fill="#60605f"/>
          <path id="パス_89779" data-name="パス 89779" d="M2232.755,611.717h0l-11.154-3.645,6.172,2.017Z" transform="translate(-2116.688 -595.927)" fill="#848383"/>
          <path id="パス_89780" data-name="パス 89780" d="M2362.916,631.833l3.032.988h0Z" transform="translate(-2249.88 -618.322)" fill="#848383"/>
          <path id="パス_89781" data-name="パス 89781" d="M2088.6,528.514l2.937.941v-3.273a109.041,109.041,0,0,0-19.766,4.931Z" transform="translate(-1975.468 -518.743)" fill="#848383"/>
          <path id="パス_89782" data-name="パス 89782" d="M2354.58,694.039l1.26-.2-.807.126Z" transform="translate(-2242.024 -676.767)" fill="#848383"/>
          <path id="パス_89783" data-name="パス 89783" d="M1938.955,697.083l7.643,2.549-.483-.161Z" transform="translate(-1850.286 -679.822)" fill="#848383"/>
          <path id="パス_89784" data-name="パス 89784" d="M1891.358,703.943l-8.167-2.731h0Z" transform="translate(-1797.728 -683.714)" fill="#848383"/>
          <path id="パス_89785" data-name="パス 89785" d="M1802.552,674.249h0l-3.1-1.038-1.813-.606.731.245Z" transform="translate(-1717.089 -656.751)" fill="#777"/>
          <path id="パス_89786" data-name="パス 89786" d="M1662.774,507.517l2.47-.381,21.037-3.248a109.036,109.036,0,0,1,19.766-4.93V497.3l-43.273,6.922Z" transform="translate(-1589.979 -491.519)" fill="#777"/>
          <path id="パス_89787" data-name="パス 89787" d="M1708.406,672.6l-1.567.238-3.874.59Z" transform="translate(-1627.86 -656.751)" fill="#777"/>
          <path id="パス_89788" data-name="パス 89788" d="M1448.226,402.841l1.813.606c1.637.164,3.4.318,5.263.452l-4.4-1.466,5.441-.828,8.169,2.711c1.31.022,2.639.029,3.981.015L1464.471,403l-5.442-1.8,5.442-.828,11.211,3.692q1.581-.107,3.158-.261l-6.246-2.052-5.441-1.788,5.441-.828,11.994,3.92q1.281-.211,2.539-.464l-6.411-2.09-5.441-1.774,5.441-.828,11.039,3.58q.985-.279,1.942-.591l-12.886-4.127-37.866,5.846c1.08.15,2.327.312,3.714.476Z" transform="translate(-1382.784 -396.758)" fill="#9e9e9e"/>
          <path id="パス_89789" data-name="パス 89789" d="M1410.19,470.219l-5.155-1.651q-.957.312-1.942.591l2.045.663-4.834.755-.607.095-1.232-.4q-1.257.253-2.539.464l1.09.356-4.181.653-1.26.2-1.4-.459q-1.575.154-3.158.261l1.874.617-5.39.842-.052.008-3.615-1.2c-1.342.013-2.671.007-3.981-.015l4.915,1.631-5.442.85-7.643-2.549-1.046-.349c-1.862-.133-3.626-.288-5.263-.452l11.271,3.769-5.441.85-1.171-.393-1.02-.343-5.453-1.832-5.441-1.828,3.874-.59c-1.387-.163-2.634-.326-3.714-.476l-5.406.835,18.041,6.02Z" transform="translate(-1294.122 -464.441)" fill="#b2b2b2"/>
          <path id="パス_89790" data-name="パス 89790" d="M1708.406,675.262V672.6l-5.441.828Z" transform="translate(-1627.86 -656.751)" fill="#7f7f7f"/>
          <path id="パス_89791" data-name="パス 89791" d="M1849.721,652.26v-1.167l-5.442.828,4.4,1.466,1.046.349Z" transform="translate(-1761.052 -636.476)" fill="#7f7f7f"/>
          <path id="パス_89792" data-name="パス 89792" d="M2132.366,608.072l-5.441.828,5.441,1.787v-2.616Z" transform="translate(-2027.453 -595.927)" fill="#7f7f7f"/>
          <path id="パス_89793" data-name="パス 89793" d="M2273.687,586.563l-5.441.828,5.441,1.774v-2.6Z" transform="translate(-2160.652 -575.654)" fill="#7f7f7f"/>
          <path id="パス_89794" data-name="パス 89794" d="M1991.043,629.671v-.088l-5.442.828,5.442,1.8v-2.541Z" transform="translate(-1894.251 -616.201)" fill="#7f7f7f"/>
          <path id="パス_89795" data-name="パス 89795" d="M1797.635,686.067v1.883l5.452,1.832q-.675-.627-1.4-1.191A23.935,23.935,0,0,0,1797.635,686.067Z" transform="translate(-1717.089 -669.439)" fill="#6b6a68"/>
          <path id="パス_89796" data-name="パス 89796" d="M1941.964,672.462a21.7,21.7,0,0,0-3.01-1.072v1.477l7.16,2.388A15.184,15.184,0,0,0,1941.964,672.462Z" transform="translate(-1850.286 -655.606)" fill="#6b6a68"/>
          <path id="パス_89797" data-name="パス 89797" d="M1938.955,652.26a21.7,21.7,0,0,1,3.01,1.072,15.184,15.184,0,0,1,4.15,2.793l.483.161,5.442-.85-4.915-1.631-8.169-2.711v1.167Z" transform="translate(-1850.286 -636.476)" fill="#60605f"/>
          <path id="パス_89798" data-name="パス 89798" d="M2229.7,625.715a8.728,8.728,0,0,0-.9-.938,14.249,14.249,0,0,0-5.487-2.945,15.868,15.868,0,0,0-1.709-.4v1.848l6.246,2.052,1.4.459Z" transform="translate(-2116.688 -608.514)" fill="#6b6a68"/>
          <path id="パス_89799" data-name="パス 89799" d="M2370.56,606.211l.112-.018a13.815,13.815,0,0,0-4.249-3,18.92,18.92,0,0,0-2.98-1.055c-.176-.047-.351-.091-.527-.13v1.714l3.032.988Z" transform="translate(-2249.88 -590.208)" fill="#6b6a68"/>
          <path id="パス_89800" data-name="パス 89800" d="M2087.973,651.591c-.044-.043-.087-.087-.131-.13a16.659,16.659,0,0,0-5.631-3.356q-.953-.36-1.932-.638v1.6l4.027,1.333,3.615,1.2Z" transform="translate(-1983.488 -633.059)" fill="#6b6a68"/>
          <path id="パス_89801" data-name="パス 89801" d="M2080.279,630.611q.978.279,1.932.638a16.66,16.66,0,0,1,5.631,3.356c.044.042.087.086.131.129l5.39-.842-1.873-.617-11.211-3.692v1.028Z" transform="translate(-1983.488 -616.201)" fill="#60605f"/>
          <path id="パス_89802" data-name="パス 89802" d="M1801.685,675.9q.726.563,1.4,1.191l1.02.343,1.171.393,5.441-.85-8.167-2.731-4.186-1.4-.731-.245v.774A23.923,23.923,0,0,1,1801.685,675.9Z" transform="translate(-1717.089 -656.751)" fill="#60605f"/>
          <path id="パス_89803" data-name="パス 89803" d="M2223.31,609.244a14.247,14.247,0,0,1,5.487,2.945,8.727,8.727,0,0,1,.9.938l.807-.126,4.181-.653-1.93-.631-4.981-1.628-6.172-2.017v.768A15.882,15.882,0,0,1,2223.31,609.244Z" transform="translate(-2116.688 -595.927)" fill="#60605f"/>
          <path id="パス_89804" data-name="パス 89804" d="M2363.442,587.58a18.908,18.908,0,0,1,2.98,1.055,13.816,13.816,0,0,1,4.249,3l.319-.05,5.01-.783-4.542-1.473-8.543-2.77v.888C2363.091,587.49,2363.266,587.533,2363.442,587.58Z" transform="translate(-2249.88 -575.654)" fill="#60605f"/>
          <path id="パス_89805" data-name="パス 89805" d="M1809.893,901.268v7.708l4.389,1.629a37.735,37.735,0,0,0-2.153-5.43A35.346,35.346,0,0,0,1809.893,901.268Z" transform="translate(-1728.642 -872.271)" fill="#60605f"/>
          <path id="パス_89806" data-name="パス 89806" d="M1611.678,889.7l.167-.044-.167.043Z" transform="translate(-1541.819 -861.326)" fill="#60605f"/>
          <path id="パス_89807" data-name="パス 89807" d="M1594.743,817.9h0l.64.209,1.232.4Z" transform="translate(-1525.858 -793.694)" fill="#60605f"/>
          <path id="パス_89808" data-name="パス 89808" d="M1775.209,855.087l.036-.006h0Z" transform="translate(-1695.951 -828.739)" fill="#60605f"/>
          <path id="パス_89809" data-name="パス 89809" d="M1611.678,683v2.177q.955.493,1.875,1.061a30.1,30.1,0,0,1,3.875,2.865l.487.156,5.155,1.651v1.66h0v2.974a35.334,35.334,0,0,1,2.236,3.907,37.66,37.66,0,0,1,2.153,5.43l2.26.839v-16.7Z" transform="translate(-1541.819 -666.547)" fill="#5b5b5b"/>
          <path id="パス_89810" data-name="パス 89810" d="M1775.831,854.568l.181-.031-.181.031Z" transform="translate(-1696.538 -828.226)" fill="#5b5b5b"/>
          <path id="パス_89811" data-name="パス 89811" d="M1925.577,674.224v16.7l2.459-.44h0l40.814-7.308v-1.183l-40.266,7.107q.146-.326.308-.645c.043-.087.091-.171.137-.257.067-.128.133-.257.2-.383.055-.1.113-.193.17-.29.066-.113.13-.226.2-.338s.125-.2.188-.294.136-.215.208-.321.136-.2.2-.293.143-.207.218-.309.145-.193.218-.289.151-.2.229-.3.154-.19.231-.285.158-.2.24-.292.162-.187.243-.28.166-.19.251-.284.17-.183.255-.275.173-.185.262-.277.177-.18.266-.269.18-.181.272-.27.184-.176.277-.264.187-.176.282-.263.191-.172.287-.258.193-.172.292-.257.2-.168.3-.252.2-.168.3-.251.2-.165.305-.246.206-.164.309-.244.209-.161.315-.241.211-.159.318-.238.215-.157.323-.235.217-.156.327-.233l.329-.229.335-.227q.168-.113.337-.224l.342-.221q.171-.11.343-.218l.349-.216.35-.213.355-.21.355-.207.363-.206.359-.2.368-.2.364-.2c.124-.066.248-.13.372-.195s.246-.128.37-.191l.376-.189c.124-.062.248-.124.374-.185l.383-.185c.125-.06.249-.12.374-.179l.39-.181.375-.173.395-.176c.126-.056.251-.112.377-.167l.4-.173.373-.16.414-.172.367-.152.427-.171.356-.142c2.186-.861,4.4-1.608,6.554-2.256h0l.1-.029.4-.119.375-.109.39-.113.376-.107.386-.108.372-.1.382-.1.367-.1.379-.1.362-.094.375-.1.355-.09.372-.093.348-.085.368-.089.342-.082.36-.085.339-.079.352-.08.331-.075.348-.077.32-.07.343-.074.312-.067.336-.07.3-.063.325-.067.3-.06.318-.063.285-.056.311-.06.276-.053.3-.057.264-.049.3-.054.248-.045.291-.052.234-.041.288-.05.213-.037.284-.048.2-.033.283-.047.171-.028.315-.05.115-.018.406-.063V667.3Z" transform="translate(-1837.677 -651.753)" fill="#848383"/>
          <path id="パス_89812" data-name="パス 89812" d="M1726.786,569.361l-21.037,3.248c1.08.15,2.327.313,3.714.476l1.567-.238,1.813.606c1.637.163,3.4.318,5.263.452l-4.4-1.466,5.442-.828,8.169,2.711c1.31.022,2.639.029,3.981.015L1727.275,573l-5.442-1.8,5.442-.828,11.211,3.692q1.581-.107,3.158-.261l-6.246-2.052-5.442-1.788,5.442-.828,11.154,3.645.84.274q1.281-.211,2.539-.464l-3.379-1.1-3.032-.988-5.441-1.774,5.441-.828,8.543,2.77,2.5.81q.985-.279,1.942-.591l-9.949-3.187-2.937-.941Z" transform="translate(-1630.484 -556.992)" fill="#9e9e9e"/>
          <path id="パス_89813" data-name="パス 89813" d="M1667.94,639.828l-5.01.783-.431.067-1.232-.4q-1.257.253-2.539.464l1.09.356-4.181.653-1.26.2-1.4-.459q-1.575.154-3.158.261l1.874.617-5.39.842-.052.008-3.615-1.2c-1.342.013-2.671.007-3.981-.015l4.915,1.631-5.442.85-7.642-2.549-1.046-.349c-1.862-.133-3.626-.288-5.263-.452l3.1,1.038,8.167,2.731-5.441.85-1.17-.393-1.02-.343-5.452-1.832-5.441-1.828,3.874-.59c-1.387-.163-2.634-.326-3.714-.476l-2.47.381-2.937.453,18.041,6.02,43.272-6.922-5.155-1.651q-.956.312-1.942.591Z" transform="translate(-1541.819 -624.676)" fill="#b2b2b2"/>
          <path id="パス_89814" data-name="パス 89814" d="M492.939,684.011l-5.441.828,5.441,1.829v-2.657Z" transform="translate(-482.251 -667.501)" fill="#7f7f7f"/>
          <path id="パス_89815" data-name="パス 89815" d="M634.254,662.792V662.5l-5.441.828,4.4,1.466,1.046.349v-2.352Z" transform="translate(-615.444 -647.227)" fill="#7f7f7f"/>
          <path id="パス_89816" data-name="パス 89816" d="M916.9,619.478l-5.442.828,5.442,1.787v-2.616Z" transform="translate(-881.845 -606.677)" fill="#7f7f7f"/>
          <path id="パス_89817" data-name="パス 89817" d="M1058.22,597.968l-5.441.828,5.441,1.774v-2.6Z" transform="translate(-1015.043 -586.404)" fill="#7f7f7f"/>
          <path id="パス_89818" data-name="パス 89818" d="M775.576,641.078v-.089l-5.441.828,5.441,1.8v-2.541Z" transform="translate(-748.644 -626.952)" fill="#7f7f7f"/>
          <path id="パス_89819" data-name="パス 89819" d="M582.168,697.473v1.883l5.453,1.832q-.675-.627-1.4-1.191A23.961,23.961,0,0,0,582.168,697.473Z" transform="translate(-571.48 -680.189)" fill="#6b6a68"/>
          <path id="パス_89820" data-name="パス 89820" d="M726.5,683.868a21.68,21.68,0,0,0-3.01-1.072v1.477l7.16,2.388A15.2,15.2,0,0,0,726.5,683.868Z" transform="translate(-704.678 -666.356)" fill="#6b6a68"/>
          <path id="パス_89821" data-name="パス 89821" d="M723.488,662.792v.875a21.672,21.672,0,0,1,3.01,1.072,15.2,15.2,0,0,1,4.151,2.793l.483.161,5.441-.85L723.488,662.5Z" transform="translate(-704.678 -647.227)" fill="#60605f"/>
          <path id="パス_89822" data-name="パス 89822" d="M1013.332,636.182a14.25,14.25,0,0,0-5.487-2.945,15.9,15.9,0,0,0-1.709-.4v1.848l6.246,2.052,1.4.459.453-.071A8.762,8.762,0,0,0,1013.332,636.182Z" transform="translate(-971.08 -619.264)" fill="#6b6a68"/>
          <path id="パス_89823" data-name="パス 89823" d="M1150.956,614.6a18.936,18.936,0,0,0-2.98-1.055q-.264-.071-.527-.13v1.714l7.643,2.491.112-.017A13.8,13.8,0,0,0,1150.956,614.6Z" transform="translate(-1104.272 -600.958)" fill="#6b6a68"/>
          <path id="パス_89824" data-name="パス 89824" d="M866.746,659.511q-.953-.36-1.933-.638v1.6l4.028,1.333,3.615,1.2.051-.008c-.044-.043-.087-.087-.131-.13A16.663,16.663,0,0,0,866.746,659.511Z" transform="translate(-837.88 -643.808)" fill="#6b6a68"/>
          <path id="パス_89825" data-name="パス 89825" d="M864.813,641.078v.939q.979.279,1.933.638a16.666,16.666,0,0,1,5.63,3.356c.044.042.087.086.131.129l5.39-.842-1.874-.617-11.211-3.692Z" transform="translate(-837.88 -626.952)" fill="#60605f"/>
          <path id="パス_89826" data-name="パス 89826" d="M582.168,684.785a23.95,23.95,0,0,1,4.05,2.524q.725.563,1.4,1.191l1.02.343,1.171.393,5.441-.85-11.271-3.769-1.813-.606Z" transform="translate(-571.48 -667.501)" fill="#60605f"/>
          <path id="パス_89827" data-name="パス 89827" d="M1006.135,619.478v.767a15.934,15.934,0,0,1,1.709.405,14.251,14.251,0,0,1,5.487,2.945,8.776,8.776,0,0,1,.9.938l.807-.126,4.182-.653-6.912-2.259Z" transform="translate(-971.08 -606.677)" fill="#60605f"/>
          <path id="パス_89828" data-name="パス 89828" d="M1152.391,599.571l-4.942-1.6v.888q.263.059.527.13a18.936,18.936,0,0,1,2.98,1.055,13.8,13.8,0,0,1,4.248,3l.495-.077,4.834-.755-1.508-.489Z" transform="translate(-1104.272 -586.404)" fill="#60605f"/>
          <path id="パス_89829" data-name="パス 89829" d="M396.212,694.405v2.177q.478.246.947.511t.928.55q.463.287.915.591.9.607,1.761,1.279a31.346,31.346,0,0,1,3.971,3.713,31.669,31.669,0,0,1,2.816,3.639q.957,1.437,1.766,2.967.27.509.524,1.026c.146.3.287.6.425.9l.094.207q.205.457.4.919l0,.005c.13.312.255.626.376.942l.062.161q.184.484.356.972h0l-15.343-5.812v1.277l15.781,5.859h0l2.26.839v-16.7Zm15.343,20.559q.23.657.437,1.322Q411.786,715.621,411.555,714.964Z" transform="translate(-396.212 -677.298)" fill="#60605f"/>
          <path id="パス_89830" data-name="パス 89830" d="M1088.47,810.435l-7.564-2.51,12.479,4.141Z" transform="translate(-1041.553 -784.293)" fill="#8c8b89"/>
          <path id="パス_89831" data-name="パス 89831" d="M1070.372,850.418l7.643,2.549-.483-.161Z" transform="translate(-1031.625 -824.344)" fill="#8c8b89"/>
          <path id="パス_89832" data-name="パス 89832" d="M913.326,1015.987c.043.055.088.108.131.163C913.414,1016.1,913.369,1016.042,913.326,1015.987Z" transform="translate(-883.605 -980.397)" fill="#8c8b89"/>
          <path id="パス_89833" data-name="パス 89833" d="M868.4,965.872c.094.093.187.187.28.281C868.585,966.059,868.492,965.965,868.4,965.872Z" transform="translate(-841.259 -933.162)" fill="#8c8b89"/>
          <path id="パス_89834" data-name="パス 89834" d="M937.509,1049h0Z" transform="translate(-906.398 -1011.508)" fill="#8c8b89"/>
          <path id="パス_89835" data-name="パス 89835" d="M881.164,978.926q-.352-.422-.72-.831-.327-.363-.666-.715c.225.235.448.473.666.715Q880.813,978.5,881.164,978.926Z" transform="translate(-851.986 -944.009)" fill="#8c8b89"/>
          <path id="パス_89836" data-name="パス 89836" d="M857.251,955.218l.127.119Z" transform="translate(-830.753 -923.121)" fill="#8c8b89"/>
          <path id="パス_89837" data-name="パス 89837" d="M1002.562,850.52l-9.4-3.143h0Z" transform="translate(-958.854 -821.478)" fill="#8c8b89"/>
          <path id="パス_89838" data-name="パス 89838" d="M1359.341,763.473h0l-6.322-2.066,6.172,2.017Z" transform="translate(-1298.027 -740.449)" fill="#8c8b89"/>
          <path id="パス_89839" data-name="パス 89839" d="M1220.485,707.593a114.57,114.57,0,0,0-14.789,3.295l14.789-2.283Z" transform="translate(-1159.171 -689.728)" fill="#8c8b89"/>
          <path id="パス_89840" data-name="パス 89840" d="M793.344,904.148c.075.051.147.1.221.155C793.491,904.252,793.419,904.2,793.344,904.148Z" transform="translate(-770.519 -874.986)" fill="#777"/>
          <path id="パス_89841" data-name="パス 89841" d="M828.841,930.543l.1.081Z" transform="translate(-803.976 -899.864)" fill="#777"/>
          <path id="パス_89842" data-name="パス 89842" d="M811.044,916.738l.183.138Z" transform="translate(-787.202 -886.852)" fill="#777"/>
          <path id="パス_89843" data-name="パス 89843" d="M712.952,690.456q-.469-.265-.947-.511v-2.177l5.407-.835,21.181-3.27a114.588,114.588,0,0,1,14.789-3.295v-1.66L710.11,685.63v16.7l1.9-.339V689.945Q712.484,690.191,712.952,690.456Z" transform="translate(-692.069 -662.503)" fill="#777"/>
          <path id="パス_89844" data-name="パス 89844" d="M932.737,827.172h0l-1.872-.626-1.813-.606.732.245Z" transform="translate(-898.427 -801.273)" fill="#777"/>
          <path id="パス_89845" data-name="パス 89845" d="M839.823,825.94l-1.567.239-3.874.59Z" transform="translate(-809.198 -801.273)" fill="#777"/>
          <path id="パス_89846" data-name="パス 89846" d="M495.563,584.252l1.813.606c1.637.163,3.4.318,5.263.452l-4.4-1.466,5.441-.828,8.169,2.711c1.31.022,2.639.029,3.981.015l-4.027-1.333-5.442-1.8,5.442-.828,11.211,3.692q1.581-.107,3.158-.261l-6.246-2.052-5.442-1.788,5.442-.828,11.994,3.92q1.281-.211,2.539-.464l-6.411-2.09-5.441-1.774,5.441-.828,11.039,3.58q.985-.279,1.942-.591l-1.4-.45-11.481-3.677-37.866,5.846c1.08.15,2.327.312,3.714.476Z" transform="translate(-484.875 -567.742)" fill="#9e9e9e"/>
          <path id="パス_89847" data-name="パス 89847" d="M457.526,651.631l-5.155-1.651q-.957.312-1.942.591l.537.174,1.508.489-4.834.755-.607.095-1.232-.4q-1.257.253-2.539.464l1.09.356-4.181.653-1.26.2-1.4-.459q-1.575.155-3.158.261l1.874.617-5.39.842-.052.008-3.615-1.2c-1.342.013-2.671.007-3.981-.015l4.915,1.631-5.441.85-7.643-2.549-1.046-.349c-1.862-.133-3.626-.288-5.263-.452l11.271,3.769-5.441.85-1.17-.393-1.02-.343-5.453-1.832-5.441-1.829,3.874-.59c-1.387-.163-2.634-.326-3.714-.476l-5.407.835,18.041,6.02Z" transform="translate(-396.212 -635.426)" fill="#b2b2b2"/>
          <path id="パス_89848" data-name="パス 89848" d="M839.823,828.6V825.94l-5.441.828Z" transform="translate(-809.198 -801.273)" fill="#7f7f7f"/>
          <path id="パス_89849" data-name="パス 89849" d="M981.137,805.6v-1.166l-5.441.828,4.4,1.466,1.046.349Z" transform="translate(-942.39 -780.998)" fill="#7f7f7f"/>
          <path id="パス_89850" data-name="パス 89850" d="M1263.784,761.407l-5.442.828,5.442,1.788v-2.616Z" transform="translate(-1208.791 -740.449)" fill="#7f7f7f"/>
          <path id="パス_89851" data-name="パス 89851" d="M1405.1,739.9l-5.441.828,5.441,1.774v-2.6Z" transform="translate(-1341.99 -720.176)" fill="#7f7f7f"/>
          <path id="パス_89852" data-name="パス 89852" d="M1122.459,783.007v-.089l-5.442.828,5.442,1.8v-2.541Z" transform="translate(-1075.59 -760.724)" fill="#7f7f7f"/>
          <path id="パス_89853" data-name="パス 89853" d="M929.052,839.4v1.883l5.453,1.832q-.675-.627-1.4-1.191A23.957,23.957,0,0,0,929.052,839.4Z" transform="translate(-898.427 -813.961)" fill="#6b6a68"/>
          <path id="パス_89854" data-name="パス 89854" d="M1073.381,825.8a21.668,21.668,0,0,0-3.01-1.072V826.2l7.16,2.388A15.191,15.191,0,0,0,1073.381,825.8Z" transform="translate(-1031.625 -800.128)" fill="#6b6a68"/>
          <path id="パス_89855" data-name="パス 89855" d="M1070.372,805.6a21.676,21.676,0,0,1,3.01,1.072,15.192,15.192,0,0,1,4.151,2.793l.483.161,5.442-.85-12.479-4.141-.606-.2V805.6Z" transform="translate(-1031.625 -780.998)" fill="#60605f"/>
          <path id="パス_89856" data-name="パス 89856" d="M1361.115,779.05a8.719,8.719,0,0,0-.9-.938,14.251,14.251,0,0,0-5.487-2.945,15.874,15.874,0,0,0-1.709-.4v1.848l6.246,2.052,1.4.459Z" transform="translate(-1298.027 -753.036)" fill="#6b6a68"/>
          <path id="パス_89857" data-name="パス 89857" d="M1501.976,759.545l.112-.018a13.812,13.812,0,0,0-4.248-3,18.936,18.936,0,0,0-2.98-1.055q-.264-.071-.526-.13v1.715l5.771,1.881h0Z" transform="translate(-1431.219 -734.73)" fill="#6b6a68"/>
          <path id="パス_89858" data-name="パス 89858" d="M1219.39,804.925c-.044-.043-.087-.087-.131-.129a16.664,16.664,0,0,0-5.63-3.356q-.953-.36-1.933-.638v1.6l4.027,1.333,3.615,1.2Z" transform="translate(-1164.826 -777.58)" fill="#6b6a68"/>
          <path id="パス_89859" data-name="パス 89859" d="M1211.7,783.946q.978.279,1.933.638a16.665,16.665,0,0,1,5.63,3.356c.044.042.087.086.131.129l5.39-.842-1.874-.617-11.211-3.692v1.028Z" transform="translate(-1164.826 -760.724)" fill="#60605f"/>
          <path id="パス_89860" data-name="パス 89860" d="M933.1,829.238q.725.564,1.4,1.191l1.02.343,1.171.393,5.441-.85-9.4-3.143-2.953-.988-.732-.245v.774A23.956,23.956,0,0,1,933.1,829.238Z" transform="translate(-898.427 -801.273)" fill="#60605f"/>
          <path id="パス_89861" data-name="パス 89861" d="M1354.728,762.579a14.252,14.252,0,0,1,5.487,2.945,8.735,8.735,0,0,1,.9.938l.41-.064.4-.062,4.181-.653-6.763-2.21-.149-.049-6.172-2.017v.768A15.917,15.917,0,0,1,1354.728,762.579Z" transform="translate(-1298.027 -740.449)" fill="#60605f"/>
          <path id="パス_89862" data-name="パス 89862" d="M1494.859,740.915a18.936,18.936,0,0,1,2.98,1.055,13.805,13.805,0,0,1,4.248,3l-.112.017,5.441-.85-2.045-.663-6.866-2.226-4.174-1.354v.888Q1494.6,740.845,1494.859,740.915Z" transform="translate(-1431.219 -720.176)" fill="#60605f"/>
          <path id="パス_89863" data-name="パス 89863" d="M743.1,836.334v2.177q.478.246.947.512t.929.55c.342.212.679.433,1.013.659.075.051.147.1.222.155q.4.278.8.569l.184.138q.425.32.839.655l.1.081q.788.643,1.533,1.337l.127.119c.173.163.344.326.513.493.094.093.187.187.28.281.125.126.251.252.374.38q.338.352.666.715.368.409.72.831c.185.221.364.447.543.673.043.055.088.108.131.163q.659.845,1.259,1.734h0q.677,1,1.283,2.043l.021.035q.273.473.531.954c.022.041.046.082.068.123q.282.529.547,1.067l0,.007c.158.321.309.646.457.972l.076.168q.221.494.428.993l.022.054q.442,1.073.817,2.172h0L743.1,851.5v.858l15.781,5.859h0l2.26.839v-16.7Zm15.43,20.813c.121.354.239.709.35,1.067C758.765,857.856,758.647,857.5,758.526,857.147Z" transform="translate(-723.159 -811.07)" fill="#60605f"/>
          <path id="パス_89864" data-name="パス 89864" d="M875.032,720.1l-1.9.293-14.789,2.283-21.181,3.27c1.08.15,2.327.312,3.714.476l1.567-.239,1.813.606c1.637.164,3.4.318,5.263.452l-4.4-1.466,5.441-.828.605.2,7.564,2.51c1.31.023,2.639.029,3.981.016l-4.027-1.333-5.442-1.8,5.442-.828L869.9,727.4q1.581-.107,3.158-.261l-6.246-2.052-5.442-1.787,5.442-.828,6.322,2.066,5.673,1.854q1.281-.212,2.539-.464l-.64-.209-5.771-1.881-5.441-1.774,5.441-.828,4.174,1.354,6.866,2.227q.985-.279,1.942-.591l-.487-.156-9.221-2.953Z" transform="translate(-811.822 -701.514)" fill="#9e9e9e"/>
          <path id="パス_89865" data-name="パス 89865" d="M799.358,793.163l-5.441.85-1.232-.4q-1.257.253-2.539.464l1.09.356-4.181.653-.4.062-.862.135-1.4-.459q-1.575.154-3.158.261l1.874.617-5.39.842-.052.008-3.615-1.2c-1.342.013-2.671.007-3.981-.016l4.915,1.631-5.442.85-7.643-2.549-1.046-.349c-1.862-.134-3.626-.288-5.263-.452l1.872.626,9.4,3.143-5.441.85-1.17-.393-1.02-.343-5.453-1.832-5.441-1.828,3.874-.59c-1.387-.164-2.634-.326-3.714-.476l-5.407.835,18.041,6.02,43.273-6.922-5.155-1.651q-.957.312-1.942.591Z" transform="translate(-723.159 -769.198)" fill="#b2b2b2"/>
          <path id="パス_89866" data-name="パス 89866" d="M1148.027,849.522h0l-.407.063-.1.016-.334.053-.148.024-.307.051-.188.031-.294.049-.181.031-.036.006-.283.049-.251.044-.275.049-.262.048-.285.052-.276.052-.289.054-.3.057-.289.056-.314.062-.289.057-.328.066-.3.061-.336.07-.3.063-.356.076-.3.064-.367.081-.3.067-.377.085-.306.07-.387.09-.31.073-.4.095-.31.075-.41.1-.31.077-.418.106-.313.081-.168.043-.258.067-.312.083-.439.118-.305.083-.451.124-.3.085-.46.131-.3.087-.467.137-.3.089-.475.143-.294.091-.487.152-.284.09-.5.16-.279.092-.508.168-.268.091-.52.177-.258.09-.533.188-.237.086-.305.111h0l-.246.09-.218.081c-.191.071-.382.143-.573.216l-.182.07q-.3.117-.6.235l-.148.059q-.319.127-.638.257l-.066.028q-1.015.417-2.015.868h0c-1.082.488-2.147,1-3.184,1.554l-.024.012q-.316.168-.628.34l-.1.056c-.192.106-.383.215-.573.323l-.15.085c-.18.1-.358.209-.536.315l-.174.1c-.17.1-.338.206-.506.31l-.193.12c-.162.1-.322.205-.481.309l-.2.132c-.155.1-.307.205-.46.309l-.211.143c-.148.1-.295.206-.441.31l-.215.154c-.143.1-.284.208-.424.313l-.215.161c-.138.1-.274.211-.409.318l-.214.169q-.2.159-.393.322l-.212.177q-.191.162-.378.326l-.209.184c-.122.109-.243.22-.363.331l-.205.192q-.176.166-.347.336l-.2.2c-.112.113-.223.227-.332.341l-.194.205q-.161.172-.317.347l-.187.211q-.153.176-.3.354-.09.108-.179.218-.145.179-.286.36-.086.111-.171.224-.137.182-.271.367-.081.114-.161.229-.129.186-.255.375c-.051.078-.1.156-.151.234-.081.127-.161.254-.238.382-.048.079-.095.16-.141.24-.076.13-.15.259-.222.391-.044.081-.087.163-.13.244-.07.132-.139.265-.2.4-.041.083-.08.166-.119.249-.064.135-.127.271-.187.408-.011.025-.023.049-.034.074l40.36-7.124V849.522Z" transform="translate(-1066.776 -823.499)" fill="#8c8b89"/>
          <path id="パス_89867" data-name="パス 89867" d="M2017.626,696.269l-.315.05-.171.028-.283.047-.2.033-.283.048-.213.037-.288.05-.234.042-.291.052-.248.045-.3.054-.264.049-.3.057-.275.053-.311.06-.285.056-.318.063-.3.06-.326.066-.3.063-.336.07-.312.067-.343.074-.321.07-.348.077-.331.075-.352.081-.339.078-.36.085-.342.082-.368.089-.348.086-.372.093-.355.09-.375.1-.362.094-.379.1-.367.1-.382.1-.372.1-.386.108-.376.107-.39.113-.375.109-.4.119-.1.029c-2.155.648-4.368,1.4-6.554,2.256l-.356.142c-.142.057-.285.113-.427.171l-.367.152-.414.172-.373.16-.4.173-.376.167-.4.177-.375.173-.39.181-.375.179-.384.185-.373.185-.376.189-.37.191-.373.194-.364.2-.368.2-.359.2c-.121.068-.242.136-.363.206s-.237.138-.355.207l-.355.21-.35.213-.349.216-.343.218-.341.221q-.17.111-.338.224l-.334.227-.329.229q-.164.116-.327.233l-.323.235q-.16.118-.318.238l-.315.241c-.1.081-.207.163-.31.244s-.2.164-.305.246-.2.167-.3.251-.2.167-.3.252-.2.171-.292.257-.192.171-.287.258-.188.175-.282.263-.186.175-.277.264-.182.18-.272.27-.179.179-.266.269-.175.184-.262.277-.171.182-.255.274-.168.189-.251.284-.164.186-.243.279-.161.194-.24.292-.156.189-.231.285-.153.2-.229.3-.147.192-.218.289-.145.206-.218.309-.138.194-.2.293-.138.214-.207.321-.127.195-.188.294-.133.225-.2.338c-.057.1-.115.193-.17.29-.071.127-.137.255-.2.383-.045.086-.093.171-.137.257q-.161.319-.308.645l40.266-7.107V696.188l-.406.063Z" transform="translate(-1886.975 -678.978)" fill="#8c8b89"/>
          <path id="パス_89868" data-name="パス 89868" d="M1059.94,842.576c.06-.137.124-.272.187-.408.04-.083.078-.167.119-.249.066-.134.135-.266.2-.4.043-.082.086-.163.13-.245.072-.131.147-.261.222-.391.047-.08.093-.16.141-.24.077-.128.157-.256.238-.382.05-.078.1-.157.151-.234q.125-.189.255-.375c.053-.077.107-.153.161-.229.088-.123.179-.245.27-.367.056-.075.113-.15.171-.224q.14-.181.286-.36l.179-.218q.149-.178.3-.354l.187-.211q.157-.175.317-.347l.194-.205q.164-.172.332-.342l.2-.2q.172-.169.347-.336l.205-.192q.179-.166.362-.331l.209-.184c.125-.109.251-.218.378-.326l.212-.177q.2-.162.393-.322l.214-.169c.135-.106.271-.213.409-.317l.215-.161c.14-.105.281-.21.424-.313l.215-.153c.146-.1.293-.208.441-.31l.211-.143c.152-.1.305-.207.46-.309l.2-.132q.239-.155.481-.309l.193-.12c.167-.1.336-.208.505-.31l.174-.1q.267-.159.536-.315l.149-.085c.19-.109.381-.217.573-.323l.1-.056q.313-.172.629-.341l.024-.012c1.036-.549,2.1-1.066,3.182-1.554q1-.451,2.015-.867l.067-.028q.318-.13.638-.257l.148-.059c.2-.079.4-.157.6-.235l.181-.07q.286-.109.573-.216l.218-.082.246-.09.3-.11.238-.086.533-.188.258-.09.52-.177.267-.091.508-.168.279-.092.5-.16.284-.09.487-.152.294-.091.476-.143.3-.089.467-.137.3-.087.46-.131.3-.085.451-.124.305-.083.439-.118.312-.082.258-.068.168-.043.314-.081.417-.106.31-.077.41-.1.31-.075.4-.095.31-.073.387-.09.306-.07.377-.085.3-.067.367-.081.3-.064.356-.076.3-.063.336-.07.3-.061.328-.066.289-.057.314-.062.29-.056.3-.057.289-.054.276-.052.286-.052.262-.048.274-.049.251-.044.283-.049.036-.006.181-.031.294-.049.188-.031.307-.05.148-.024.334-.053.1-.016.407-.063v-1.66l-43.273,6.922v16.7l2.459-.44v0l40.814-7.308v-.985l-40.36,7.124C1059.917,842.625,1059.93,842.6,1059.94,842.576Z" transform="translate(-1019.016 -796.275)" fill="#848383"/>
          <path id="パス_89869" data-name="パス 89869" d="M411.555,750.665h0q-.171-.488-.356-.972l-.062-.161c-.122-.315-.246-.63-.376-.942l0-.005c-.129-.308-.263-.614-.4-.919l-.094-.207c-.138-.3-.279-.6-.425-.9q-.254-.517-.524-1.026-.81-1.526-1.766-2.967a31.662,31.662,0,0,0-2.816-3.638,31.342,31.342,0,0,0-3.971-3.713q-.857-.671-1.761-1.279-.452-.3-.915-.591t-.928-.55q-.469-.265-.947-.511h0v12.569Z" transform="translate(-396.212 -713)" fill="#6b6a68"/>
          <path id="パス_89870" data-name="パス 89870" d="M758.526,892.848h0q-.376-1.1-.817-2.172l-.022-.054q-.206-.5-.428-.993c-.025-.056-.051-.112-.076-.168-.148-.326-.3-.65-.457-.972l0-.007q-.265-.538-.547-1.067c-.022-.041-.046-.082-.068-.123q-.259-.481-.531-.954l-.021-.035q-.6-1.044-1.283-2.043h0q-.6-.887-1.259-1.734c-.043-.055-.088-.108-.131-.163-.179-.226-.358-.452-.543-.673q-.353-.422-.72-.831c-.218-.242-.441-.48-.666-.715-.123-.128-.249-.254-.374-.38-.093-.094-.186-.188-.28-.281-.169-.167-.341-.33-.513-.493l-.127-.119q-.745-.694-1.533-1.337l-.1-.081q-.414-.335-.839-.655l-.184-.138q-.393-.291-.8-.569c-.074-.051-.147-.1-.222-.155-.333-.226-.67-.447-1.013-.659q-.46-.285-.929-.55t-.947-.511V887.2Z" transform="translate(-723.159 -846.771)" fill="#6b6a68"/>
        </g>
        <g id="グループ_15713" data-name="グループ 15713" transform="translate(33.911)">
          <path id="パス_89871" data-name="パス 89871" d="M936.849,445.574q-.074-.216-.15-.431c-.063-.177-.127-.354-.192-.53q-.08-.214-.162-.427-.145-.373-.3-.742-.456-1.109-.985-2.186-.6-1.218-1.287-2.388a32.374,32.374,0,0,0-3.82-5.242q-.737-.819-1.529-1.585a30.443,30.443,0,0,0-5.117-4q-.638-.4-1.294-.752c-.192-.105-.386-.209-.581-.309v13.08l15.415,5.511Z" transform="translate(-921.434 -418.125)" fill="#727271"/>
          <path id="パス_89872" data-name="パス 89872" d="M936.992,660.5c-.046-.14-.095-.279-.143-.418l-15.415-5.511v.766l15.781,5.859q-.1-.309-.2-.617Z" transform="translate(-921.434 -632.631)" fill="#6b6a68"/>
          <path id="パス_89873" data-name="パス 89873" d="M1018.161,378.71l-5.441.828,5.441,1.829V378.71Z" transform="translate(-1007.473 -372.627)" fill="#7f7f7f"/>
          <path id="パス_89874" data-name="パス 89874" d="M1159.475,357.491V357.2l-5.441.828,4.4,1.466,1.046.349v-2.352Z" transform="translate(-1140.666 -352.352)" fill="#7f7f7f"/>
          <path id="パス_89875" data-name="パス 89875" d="M1442.122,314.176l-5.442.828,5.442,1.788v-2.616Z" transform="translate(-1407.067 -311.802)" fill="#7f7f7f"/>
          <path id="パス_89876" data-name="パス 89876" d="M1583.442,292.667,1578,293.5l5.441,1.774v-2.6Z" transform="translate(-1540.265 -291.529)" fill="#7f7f7f"/>
          <path id="パス_89877" data-name="パス 89877" d="M1300.8,335.776v-.088l-5.441.828,5.441,1.8v-2.541Z" transform="translate(-1273.866 -332.077)" fill="#7f7f7f"/>
          <path id="パス_89878" data-name="パス 89878" d="M1107.39,392.172v1.883l5.453,1.832q-.675-.627-1.4-1.191A23.94,23.94,0,0,0,1107.39,392.172Z" transform="translate(-1096.702 -385.315)" fill="#6b6a68"/>
          <path id="パス_89879" data-name="パス 89879" d="M1251.719,378.567a21.706,21.706,0,0,0-3.01-1.072v1.477l7.16,2.388A15.19,15.19,0,0,0,1251.719,378.567Z" transform="translate(-1229.9 -371.482)" fill="#6b6a68"/>
          <path id="パス_89880" data-name="パス 89880" d="M1248.71,357.491v.875a21.7,21.7,0,0,1,3.01,1.072,15.192,15.192,0,0,1,4.15,2.793l.483.161,5.442-.85L1248.71,357.2Z" transform="translate(-1229.9 -352.352)" fill="#60605f"/>
          <path id="パス_89881" data-name="パス 89881" d="M1538.554,330.881a14.251,14.251,0,0,0-5.487-2.945,15.932,15.932,0,0,0-1.709-.4v1.848l6.246,2.052,1.4.459.453-.071A8.774,8.774,0,0,0,1538.554,330.881Z" transform="translate(-1496.302 -324.389)" fill="#6b6a68"/>
          <path id="パス_89882" data-name="パス 89882" d="M1676.178,309.294a18.944,18.944,0,0,0-2.98-1.055q-.264-.071-.527-.13v1.714l7.643,2.491.112-.018A13.811,13.811,0,0,0,1676.178,309.294Z" transform="translate(-1629.494 -306.083)" fill="#6b6a68"/>
          <path id="パス_89883" data-name="パス 89883" d="M1391.967,354.21q-.953-.36-1.933-.638v1.6l4.027,1.333,3.615,1.2.052-.008c-.044-.043-.087-.087-.131-.129A16.663,16.663,0,0,0,1391.967,354.21Z" transform="translate(-1363.102 -348.933)" fill="#6b6a68"/>
          <path id="パス_89884" data-name="パス 89884" d="M1390.034,335.776v.939q.979.279,1.933.638a16.665,16.665,0,0,1,5.63,3.356c.045.042.088.086.131.129l5.39-.842-1.873-.617-11.211-3.692Z" transform="translate(-1363.102 -332.077)" fill="#60605f"/>
          <path id="パス_89885" data-name="パス 89885" d="M1107.39,378.71v.774a23.942,23.942,0,0,1,4.05,2.524q.725.563,1.4,1.191l1.02.343,1.17.393,5.441-.85-12.353-4.13Z" transform="translate(-1096.702 -372.627)" fill="#60605f"/>
          <path id="パス_89886" data-name="パス 89886" d="M1537.53,316.193l-6.173-2.017v.768a15.933,15.933,0,0,1,1.709.4,14.251,14.251,0,0,1,5.487,2.945,8.78,8.78,0,0,1,.9.938l.807-.126,4.181-.653-1.09-.356-.394-.129Z" transform="translate(-1496.302 -311.802)" fill="#60605f"/>
          <path id="パス_89887" data-name="パス 89887" d="M1677.614,294.27l-4.942-1.6v.888q.263.059.527.13a18.95,18.95,0,0,1,2.98,1.055,13.81,13.81,0,0,1,4.248,3l.454-.071,4.875-.762-2.045-.663-2.544-.825Z" transform="translate(-1629.494 -291.529)" fill="#60605f"/>
          <path id="パス_89888" data-name="パス 89888" d="M1235.332,380.329v16.7l2.459-.44c1.315-3.848,4.1-7.055,7.656-9.72q.485-.363.988-.713.671-.467,1.372-.91c.933-.591,1.9-1.151,2.9-1.682q.374-.2.752-.393.757-.387,1.531-.753.387-.183.777-.36l.44-.2.414-.183q.324-.142.649-.28.651-.276,1.307-.539.328-.131.657-.259c.877-.341,1.758-.664,2.637-.97q1.154-.4,2.3-.764c1.526-.484,3.031-.917,4.486-1.3q1.091-.29,2.141-.545.6-.146,1.181-.281.873-.2,1.7-.383.553-.12,1.083-.23.8-.165,1.536-.308c.526-.1,1.029-.2,1.507-.281l.284-.051.549-.1c.446-.077.866-.146,1.255-.209l.482-.076.228-.035v-1.66Z" transform="translate(-1217.291 -367.628)" fill="#8c8b89"/>
          <path id="パス_89889" data-name="パス 89889" d="M1020.785,278.95l1.813.606c1.637.163,3.4.318,5.263.452l-4.4-1.466,5.442-.828,8.169,2.711c1.31.023,2.639.029,3.981.015l-4.027-1.333-5.442-1.8,5.442-.828,11.211,3.692q1.581-.107,3.158-.261l-6.246-2.052-5.441-1.787,5.441-.828,11.6,3.791.394.129q1.281-.211,2.539-.464l-6.411-2.09-5.441-1.774,5.441-.828,8.495,2.755,2.544.825q.985-.279,1.942-.591l-12.886-4.127-37.866,5.846c1.08.15,2.327.312,3.714.476Z" transform="translate(-1010.097 -272.867)" fill="#b2b2b2"/>
          <path id="パス_89890" data-name="パス 89890" d="M939.475,353.253l43.272-6.922-5.155-1.651q-.957.312-1.942.591l2.045.663-4.875.762-.566.089-1.232-.4q-1.257.253-2.539.464l1.09.356-4.181.653-1.26.2-1.4-.459q-1.575.154-3.158.261l1.874.617-5.39.842-.051.008-3.615-1.2c-1.342.013-2.671.007-3.981-.015l4.915,1.631-5.442.85-7.643-2.549-1.046-.349c-1.862-.133-3.626-.288-5.263-.452l11.271,3.769-5.441.85-1.171-.393-1.02-.343-5.453-1.832-5.441-1.829,3.874-.59c-1.387-.163-2.634-.326-3.714-.476l-5.407.835,10.2,3.4Z" transform="translate(-921.434 -340.552)" fill="#bcbcbc"/>
          <path id="パス_89891" data-name="パス 89891" d="M1318.214,402.4q-.584.094-1.255.209l-.548.1-.284.051q-.717.129-1.507.281-.739.143-1.536.308-.531.11-1.083.23-.829.18-1.7.383-.582.135-1.181.282-1.048.256-2.141.545c-1.455.386-2.96.82-4.486,1.3q-1.144.363-2.3.764-1.319.459-2.637.97-.329.128-.657.259-.656.262-1.307.539-.325.138-.649.28l-.414.183-.44.2q-.39.178-.777.36-.773.366-1.531.753-.378.194-.752.393c-1,.531-1.967,1.091-2.9,1.682q-.7.443-1.372.91-.5.35-.988.713c-3.556,2.664-6.341,5.872-7.656,9.719l9.343-1.673,31.471-5.635V402.292l-.228.035Zm-.183,13.261-28.755,5.16.231-.16.225-.156.48-.328.228-.154.5-.331.208-.137q.349-.229.7-.454l.006,0,.485-.308.051-.032.469-.293.062-.038.469-.289.053-.032.485-.294.015-.009q.779-.467,1.558-.913t1.557-.871l0,0,.492-.267.044-.024.474-.254.055-.029.473-.25.043-.023.49-.254h0q.384-.2.766-.391,1.147-.579,2.274-1.112l.031-.015.456-.215.064-.03.44-.2.072-.033.437-.2.062-.028.449-.2.019-.008q.606-.272,1.2-.531t1.179-.5l.025-.01.414-.173.077-.032.386-.16.1-.041.372-.152.1-.042.369-.148.092-.037.378-.15.057-.023q1.065-.421,2.068-.794l.086-.032.324-.12.113-.042.306-.112.123-.045.3-.107.122-.044.293-.1.112-.04.3-.106.08-.028q.716-.251,1.383-.475l.054-.018.275-.092.1-.032.255-.084.105-.035.245-.08.105-.034.239-.077.1-.032.239-.076.08-.025.248-.078.043-.013q.531-.167,1.006-.311l.364-.11.018-.005Z" transform="translate(-1257.61 -394.853)" fill="#939393"/>
          <path id="パス_89892" data-name="パス 89892" d="M936.7,406.491a22.546,22.546,0,0,0-4.935-6.891,31.555,31.555,0,0,0-6.536-4.8,33.932,33.932,0,0,0-3.79-1.786v1.953c.195.1.388.2.581.309q.656.358,1.294.752a30.451,30.451,0,0,1,5.117,4q.792.766,1.529,1.585a32.374,32.374,0,0,1,3.82,5.242q.688,1.169,1.287,2.388.529,1.076.985,2.186.152.369.3.742.082.213.162.427c.066.176.129.353.192.53q.076.215.15.431h0c.048.139.1.278.143.418l.025.079q.1.308.2.617l2.02.75c-.044-.288-.09-.575-.141-.862A33,33,0,0,0,936.7,406.491Z" transform="translate(-921.434 -386.107)" fill="#6b6a68"/>
          <path id="パス_89893" data-name="パス 89893" d="M931.631,392.506l-10.2-3.4h0v.225a33.9,33.9,0,0,1,3.79,1.786,31.554,31.554,0,0,1,6.536,4.8,22.547,22.547,0,0,1,4.935,6.891,33,33,0,0,1,2.4,8.066c.051.287.1.574.141.862l.24.089v-16.7Z" transform="translate(-921.434 -382.422)" fill="#636260"/>
          <path id="パス_89894" data-name="パス 89894" d="M1500.756,489.941q-.476.144-1.006.311l-.043.013-.248.078-.08.025-.239.077-.1.032-.239.077-.105.034-.245.08-.106.035-.255.084-.1.032-.275.092-.055.018q-.665.224-1.383.475l-.08.028-.3.106-.111.04-.293.1-.122.044-.3.107-.123.045-.306.112-.113.042-.324.12-.086.032q-1,.374-2.067.794L1492,493l-.378.15-.092.037-.369.149-.1.042-.372.152-.1.041-.386.159-.077.032-.414.173-.025.01q-.583.246-1.179.5t-1.2.531l-.019.008-.449.2-.061.028-.437.2-.072.033-.439.2-.064.03-.456.215-.031.015q-1.125.534-2.274,1.112-.382.193-.766.391h0l-.49.254-.043.023-.473.249-.055.029-.475.254-.044.024-.492.267,0,0q-.777.425-1.557.871t-1.558.913l-.015.009-.485.294-.053.032-.469.289-.062.038-.469.293-.051.032-.485.308-.006,0q-.35.225-.7.454l-.207.137-.5.331-.228.154q-.24.163-.48.328l-.225.156-.231.16,28.756-5.161v-8.341l-.018.005Z" transform="translate(-1440.717 -477.356)" fill="#9b9b9b"/>
        </g>
      </g>
    </g>
  </g>
</svg>
