<svg xmlns="http://www.w3.org/2000/svg" width="200" height="120" viewBox="0 0 200 120"><g transform="translate(-176 -3923)"><rect width="200" height="120" rx="10" transform="translate(176 3923)" fill="#dcdcdc" opacity="0"/><g transform="translate(178.513 3941.015)"><g transform="translate(85.421)"><path d="M3.575,0h0A3.576,3.576,0,0,1,7.151,3.576V6.409A3.574,3.574,0,0,1,3.577,9.983h0A3.575,3.575,0,0,1,0,6.408V3.575A3.575,3.575,0,0,1,3.575,0Z" transform="translate(0.45 29.662)"/><path d="M3821.88,4464.654c0,.6-23.89,1.08-53.359,1.08s-53.359-.483-53.359-1.08,23.889-1.084,53.359-1.084S3821.88,4464.055,3821.88,4464.654Z" transform="translate(-3713.575 -4378.032)" fill="#9e9e9f"/><path d="M3964.119,4217.338h-24.244a5.659,5.659,0,0,1,5.659,5.659v38.224h24.245V4223A5.659,5.659,0,0,0,3964.119,4217.338Z" transform="translate(-3860.226 -4217.338)" fill="#397156"/><path d="M3771.383,4261.221V4223a5.66,5.66,0,0,1,5.661-5.659h52.871a5.659,5.659,0,0,1,5.659,5.659v38.224Z" transform="translate(-3750.265 -4217.338)" fill="#47856b"/><rect width="24.458" height="15.017" rx="7.509" transform="translate(40.603 14.432)" fill="#fff" opacity="0.4"/><g transform="translate(27.666 10.903)"><path d="M3842.157,4276.445h-49.25l-.277-.284v-18.8a7.755,7.755,0,0,1,7.667-7.824h34.473a7.755,7.755,0,0,1,7.667,7.824v18.784Zm-47.851-1.5h46.456l.208-.212v-17.372a6.271,6.271,0,0,0-6.2-6.327H3800.3a6.271,6.271,0,0,0-6.2,6.327v17.357Z" transform="translate(-3791.798 -4249.255)" fill="#b4b4b5"/><path d="M3839.762,4275.63h-49.25l-.277-.284v-18.8a7.756,7.756,0,0,1,7.667-7.823h34.473a7.757,7.757,0,0,1,7.668,7.823v18.785Zm-47.851-1.5h46.455l.208-.211v-17.373a6.271,6.271,0,0,0-6.2-6.325H3797.9a6.271,6.271,0,0,0-6.2,6.325v17.358Z" transform="translate(-3790.235 -4248.724)" fill="#eeeeef"/><g transform="translate(16.211 1.503)"><rect width="0.461" height="23.957" transform="translate(0.862)" fill="#7a7a7a"/><rect width="0.86" height="23.957" fill="#ccc"/></g><g transform="translate(31.87 1.503)"><rect width="0.462" height="23.957" transform="translate(0.862)" fill="#7a7a7a"/><rect width="0.859" height="23.957" fill="#ccc"/></g></g><path d="M3798.75,4273.021h-78.142l11.1-26.987a7.6,7.6,0,0,1,6.821-3.549h52.013a5.386,5.386,0,0,1,4.8,4.137C3795.873,4248.855,3798.75,4273.021,3798.75,4273.021Zm-9.249-21.746a2.829,2.829,0,0,0-2.831-2.83h-33.4a2.829,2.829,0,0,0-2.831,2.83v13.232a2.83,2.83,0,0,0,2.831,2.83h33.4a2.83,2.83,0,0,0,2.831-2.83Zm-47.025-4.132h-6.583a3.247,3.247,0,0,0-3.129,1.826c-.582,1.171-7.888,19.974-8.828,21.908s.21,1.981.558,1.981,12.676.043,14.322.043,1.7-.843,1.729-1.358,2.671-21.406,2.867-22.8S3742.883,4247.143,3742.477,4247.143Z" transform="translate(-3717.129 -4233.749)" fill="#3e3a39"/><path d="M3748.047,4255.894h-6.584a3.247,3.247,0,0,0-3.128,1.826c-.582,1.17-7.888,19.973-8.828,21.908s.21,1.981.557,1.981,12.677.043,14.323.043,1.7-.844,1.729-1.358,2.671-21.406,2.867-22.8S3748.454,4255.894,3748.047,4255.894Z" transform="translate(-3722.701 -4242.5)" fill="#fff" opacity="0.2"/><g transform="translate(30.466 23.803)"><path d="M3821.022,4292.171a1.819,1.819,0,0,1-1.793,1.7h-8.964a1.59,1.59,0,0,1-1.6-1.7l.825-4.615a1.816,1.816,0,0,1,1.792-1.7h7.832a1.588,1.588,0,0,1,1.6,1.7Z" transform="translate(-3805.057 -4285.858)" fill="#1a1a1a"/><path d="M3807.7,4313.235a2.573,2.573,0,0,1,2.4,1.663h6.178l.154-1.044a2.083,2.083,0,0,0-1.818-2.151h-14.347a2.166,2.166,0,0,0-1.981,1.532Z" transform="translate(-3798.293 -4302.725)" fill="#1a1a1a"/></g><g transform="translate(55.064 23.803)"><path d="M3892.821,4292.171a1.819,1.819,0,0,1-1.792,1.7h-8.965a1.589,1.589,0,0,1-1.6-1.7l.823-4.615a1.818,1.818,0,0,1,1.794-1.7h7.832a1.588,1.588,0,0,1,1.6,1.7Z" transform="translate(-3876.513 -4285.858)" fill="#1a1a1a"/><path d="M3885.775,4311.7h-14.349a2.164,2.164,0,0,0-2.03,1.7l-.3,1.5h9.145c-.032.63-.055,1.05-.061,1.18a1.508,1.508,0,0,1-.9,1.36h9.777l.526-3.583A2.081,2.081,0,0,0,3885.775,4311.7Z" transform="translate(-3869.102 -4302.725)" fill="#1a1a1a"/></g><path d="M3913.363,4245.4a3.932,3.932,0,0,0-3.72-2.916h-3.32a4.673,4.673,0,0,0-4.325,4.137c-.272,2.234-1.043,25.391-1.043,25.391l-.116,1.478v17.59h7.763a.622.622,0,0,1,.649.6,3,3,0,0,1,1.023-.2c1.232,0,2.2,1.013,2.92,2.538h4.067v-21Zm1.682,25.758a1.473,1.473,0,0,1-1.232.534,16.943,16.943,0,0,0-6.564,1.2,5.829,5.829,0,0,1-1.912.495h-1.081a2.061,2.061,0,0,1-1.551-.555,2.254,2.254,0,0,1-.506-1.734c.057-1.25.157-3.69.271-6.521.275-6.76.616-15.174.718-16.025a3.026,3.026,0,0,1,2.811-2.439l4.369,0a1.827,1.827,0,0,1,1.817,1.582l3.127,21.673A2.29,2.29,0,0,1,3915.045,4271.159Z" transform="translate(-3834.75 -4233.749)" fill="#b4b4b5"/><path d="M3917.86,4276.188l-3.128-21.673a1.827,1.827,0,0,0-1.816-1.582h-4.369a3.028,3.028,0,0,0-2.811,2.439c-.1.852-.443,9.266-.718,16.026-.114,2.83-.214,5.271-.271,6.521a2.254,2.254,0,0,0,.505,1.733,2.056,2.056,0,0,0,1.551.555h1.081a5.84,5.84,0,0,0,1.912-.494,16.943,16.943,0,0,1,6.564-1.2,1.469,1.469,0,0,0,1.232-.535A2.289,2.289,0,0,0,3917.86,4276.188Zm-.856,1.329a.763.763,0,0,1-.643.246,17.874,17.874,0,0,0-6.823,1.249,5.4,5.4,0,0,1-1.653.448H3906.8a1.363,1.363,0,0,1-1.009-.321,1.6,1.6,0,0,1-.3-1.183c.057-1.251.155-3.692.271-6.525.26-6.391.615-15.142.714-15.964.191-1.57,2.059-1.777,2.1-1.784h4.334a1.089,1.089,0,0,1,1.077.941l3.134,21.709A1.636,1.636,0,0,1,3917,4277.517Z" transform="translate(-3837.298 -4240.568)" fill="#231815"/><path d="M3915.4,4256.029a1.09,1.09,0,0,0-1.078-.941h-4.334c-.043.007-1.91.213-2.1,1.784-.1.822-.455,9.574-.715,15.964-.116,2.833-.214,5.273-.271,6.525a1.594,1.594,0,0,0,.3,1.183,1.36,1.36,0,0,0,1.009.321h1.081a5.388,5.388,0,0,0,1.653-.448,17.888,17.888,0,0,1,6.823-1.249.763.763,0,0,0,.643-.245,1.64,1.64,0,0,0,.124-1.186Z" transform="translate(-3838.706 -4241.974)" fill="#fff" opacity="0.2"/><g transform="translate(67.444 12.365)"><path d="M3907.884,4280.209H3906.8a2.056,2.056,0,0,1-1.551-.555,2.254,2.254,0,0,1-.505-1.733c.057-1.251.156-3.691.271-6.521.275-6.76.616-15.175.718-16.026a3.028,3.028,0,0,1,2.811-2.439h4.369a1.827,1.827,0,0,1,1.816,1.582l3.128,21.673a2.289,2.289,0,0,1-.268,1.789,1.469,1.469,0,0,1-1.232.535,16.943,16.943,0,0,0-6.564,1.2A5.84,5.84,0,0,1,3907.884,4280.209Zm.7-26.528c-.042.007-1.911.214-2.1,1.784-.1.822-.455,9.573-.714,15.964-.116,2.833-.214,5.274-.271,6.525a1.6,1.6,0,0,0,.3,1.183,1.363,1.363,0,0,0,1.009.321h1.081a5.4,5.4,0,0,0,1.653-.448,17.874,17.874,0,0,1,6.823-1.249.763.763,0,0,0,.643-.246,1.636,1.636,0,0,0,.124-1.184l-3.134-21.709a1.089,1.089,0,0,0-1.077-.941Z" transform="translate(-3904.742 -4252.933)" fill="#231815"/></g><g transform="translate(21.65 31.028)"><path d="M3774.458,4309.94a4.931,4.931,0,0,1,4.106-2.037,6.7,6.7,0,0,1,4.687,2.037h1.541a8.278,8.278,0,0,0-6.406-3.285,5.937,5.937,0,0,0-5.47,3.285Z" transform="translate(-3772.917 -4306.656)"/></g><g transform="translate(5.788 34.313)"><path d="M3727.329,4320.136c.171.3.639.463,1.319.463h54.546c1.539,0,2.353-.553,2.418-1.644.007-.13.029-.549.063-1.18h-21.928a2.575,2.575,0,0,0-2.405-1.664h-26.787a6.152,6.152,0,0,0-3.638,1.664h-2.827c-.3.709-.506,1.164-.594,1.31A1.1,1.1,0,0,0,3727.329,4320.136Z" transform="translate(-3727.254 -4316.112)" fill="#1a1a1a"/></g><path d="M1.848,0h8.424A1.847,1.847,0,0,1,12.12,1.847v0a1.847,1.847,0,0,1-1.847,1.847H1.846A1.846,1.846,0,0,1,0,1.849v0A1.848,1.848,0,0,1,1.848,0Z" transform="translate(31.16 14.246)" fill="#1a1a1a"/><path d="M3982.748,4397.6c-2.246,0-4.065,5.425-4.065,12.119s1.819,12.12,4.065,12.12h5.366c-2.245,0-4.065-5.428-4.065-12.12s1.82-12.119,4.065-12.119Z" transform="translate(-3885.552 -4334.982)" fill="#231815"/><path d="M.752,0H24.58a.752.752,0,0,1,.752.752v0a.752.752,0,0,1-.752.752H.751A.751.751,0,0,1,0,.753v0A.752.752,0,0,1,.752,0Z" transform="translate(83.471 43.883)" fill="#bebfbf"/><path d="M3948.114,4345.167h1.394a.424.424,0,0,1-.422-.426v-.655a.423.423,0,0,1,.422-.423h-1.394Z" transform="translate(-3865.603 -4299.78)" fill="#888"/><path d="M.818,0H24.512a.819.819,0,0,1,.819.819v0a.821.821,0,0,1-.821.821H.818A.818.818,0,0,1,0,.822v0A.818.818,0,0,1,.818,0Z" transform="translate(83.471 58.66)" fill="#9e9e9f"/><path d="M4000.057,4390.911h-2.809c-.82,0-1.5.729-2.059,1.771.009.017.018.036.025.053.084.162.167.327.245.5h3.426c1.659,0,3.086,2.97,3.717,7.223h.713s.5.015.5-.755C4003.813,4398.367,4002.458,4390.911,4000.057,4390.911Z" transform="translate(-3896.325 -4330.614)" fill="#383231"/><path d="M4002.259,4409.722c0,6.692-1.82,12.12-4.063,12.12s-4.064-5.428-4.064-12.12,1.82-12.119,4.064-12.119S4002.259,4403.028,4002.259,4409.722Z" transform="translate(-3895.634 -4334.982)" fill="#595757"/><path d="M4004.621,4418.181c0,4.206-1.036,7.614-2.315,7.614s-2.316-3.409-2.316-7.614,1.036-7.616,2.316-7.616S4004.621,4413.976,4004.621,4418.181Z" transform="translate(-3899.458 -4343.441)" fill="#eeeeef"/><path d="M3759.251,4440.763c.433,5.305,2.035,9.246,3.947,9.246s3.516-3.94,3.948-9.246Z" transform="translate(-3742.348 -4363.148)" fill="#231815"/><path d="M3749.17,4440.763H3743.8c.433,5.305,2.035,9.246,3.948,9.246h5.366C3751.206,4450.009,3749.6,4446.068,3749.17,4440.763Z" transform="translate(-3732.267 -4363.148)" fill="#3e3a39"/><path d="M3838.7,4440.763c.433,5.305,2.036,9.246,3.948,9.246s3.514-3.94,3.948-9.246Z" transform="translate(-3794.199 -4363.148)" fill="#231815"/><path d="M3828.619,4440.763h-5.368c.434,5.305,2.037,9.246,3.949,9.246h5.365C3830.654,4450.009,3829.051,4446.068,3828.619,4440.763Z" transform="translate(-3784.115 -4363.148)" fill="#3e3a39"/><path d="M3922.735,4409.722c0,6.692-1.819,12.12-4.062,12.12s-4.064-5.428-4.064-12.12,1.82-12.119,4.064-12.119S3922.735,4403.028,3922.735,4409.722Z" transform="translate(-3843.737 -4334.982)" fill="#595757"/><path d="M3925.1,4418.181c0,4.206-1.036,7.614-2.316,7.614s-2.317-3.409-2.317-7.614,1.038-7.616,2.317-7.616S3925.1,4413.976,3925.1,4418.181Z" transform="translate(-3847.558 -4343.441)" fill="#eeeeef"/><path d="M3929.092,4400.548c0-6.693,1.82-12.119,4.064-12.119h-3.432c-.086-.191-.172-.38-.264-.556-.093.177-.182.363-.269.556h0c-.063.144-.126.29-.187.439a21.888,21.888,0,0,0-1.349,6.029.749.749,0,0,1-.788.754h-5.534s-.5.015-.5-.754a22.588,22.588,0,0,1,1.375-6.029c.61-1.542,1.41-2.764,2.381-2.764l-15.552-.021c-.722-1.525-1.688-2.514-2.921-2.537-2.583-.049-3.539,3.588-4.288,7.445-.541,2.725-.981,5.558-1.808,7.281a10.544,10.544,0,0,1-3.858,4.391.076.076,0,0,1,0,.015,7.771,7.771,0,0,1-1.693.833,9.649,9.649,0,0,0,1.845.9c.541,4.793,2.058,8.252,3.848,8.252h5.366c-1.684,0-3.129-3.055-3.745-7.409h0a33.862,33.862,0,0,1-.318-4.711c0-6.693,1.819-12.119,4.063-12.119.963,0,1.847,1,2.543,2.669h0a14.865,14.865,0,0,1,.627,1.87.114.114,0,0,0,0,.016c.091.335.174.686.251,1.048,0,.016.007.033.01.05q.117.548.213,1.134s0,.008,0,.012q.1.595.173,1.224c0,.013,0,.027.005.04q.071.6.121,1.228c0,.036.006.076.009.114.03.4.055.818.072,1.236,0,.038,0,.074,0,.111q.026.672.027,1.367,0,.565-.019,1.115c0,.152-.012.3-.018.451-.012.261-.022.522-.04.775.056-.079.106-.166.158-.251h9.547a1.71,1.71,0,0,0,1.705-1.372h2.806c.125,6.358,1.894,11.4,4.057,11.4h5.366C3930.912,4412.668,3929.092,4407.24,3929.092,4400.548Z" transform="translate(-3830.595 -4325.809)" fill="#231815"/><path d="M3922.735,4409.722c0,6.692-1.819,12.12-4.062,12.12s-4.064-5.428-4.064-12.12,1.82-12.119,4.064-12.119S3922.735,4403.028,3922.735,4409.722Z" transform="translate(-3843.737 -4334.982)" fill="#595757"/><path d="M3925.1,4418.181c0,4.206-1.036,7.614-2.316,7.614s-2.317-3.409-2.317-7.614,1.038-7.616,2.317-7.616S3925.1,4413.976,3925.1,4418.181Z" transform="translate(-3847.558 -4343.441)" fill="#eeeeef"/><path d="M4006.047,4428.2c0,1.262-.312,2.284-.7,2.284s-.694-1.022-.694-2.284.311-2.283.694-2.283S4006.047,4426.936,4006.047,4428.2Z" transform="translate(-3902.504 -4353.458)" fill="#595757"/><path d="M3926.521,4428.2c0,1.262-.312,2.284-.694,2.284s-.7-1.022-.7-2.284.312-2.283.7-2.283S3926.521,4426.936,3926.521,4428.2Z" transform="translate(-3850.604 -4353.458)" fill="#595757"/><path d="M4002.707,4426.915c-1.365,0-2.1-3.266-2.1-6.34s.737-6.343,2.1-6.343,2.1,3.268,2.1,6.343S4004.073,4426.915,4002.707,4426.915Zm0-12.184c-.757,0-1.6,2.5-1.6,5.844s.846,5.841,1.6,5.841,1.6-2.5,1.6-5.841S4003.463,4414.73,4002.707,4414.73Z" transform="translate(-3899.859 -4345.833)" fill="#231815"/><path d="M3923.184,4426.915c-1.366,0-2.1-3.266-2.1-6.34s.737-6.343,2.1-6.343,2.1,3.268,2.1,6.343S3924.549,4426.915,3923.184,4426.915Zm0-12.184c-.67,0-1.6,2.223-1.6,5.844s.934,5.841,1.6,5.841,1.6-2.222,1.6-5.841S3923.854,4414.73,3923.184,4414.73Z" transform="translate(-3847.961 -4345.833)" fill="#231815"/><path d="M3886.555,4393.127s-1.33,16.548-2.662,16.548h3.9a10.262,10.262,0,0,0,5.325-5.15c1.272-2.651,1.629-7.933,2.84-11.4Z" transform="translate(-3823.691 -4332.061)" fill="#1a1a1a"/><path d="M3902.543,4382.372h-7.991l-3,3.737h9.4c.531-1.524,1.206-2.691,2.234-3.132A.622.622,0,0,0,3902.543,4382.372Z" transform="translate(-3828.692 -4325.042)" fill="#262626"/><path d="M3710.592,4393.127s-.029,16.548,4.963,16.548h55.239c1.333,0,2.662-16.548,2.662-16.548Z" transform="translate(-3710.592 -4332.061)" fill="#333"/><path d="M3710.593,4386.107l1.8-3.736h64.057l-3,3.736Z" transform="translate(-3710.593 -4325.041)" fill="#4d4d4d"/><path d="M3902.191,4350.513h-1.353v3.371h1.915v-2.442S3902.71,4350.513,3902.191,4350.513Z" transform="translate(-3834.75 -4304.25)" fill="#ec6c00"/><rect width="1.914" height="7.693" transform="translate(66.089 49.637)" fill="#dbdcdc"/><path d="M3734.241,4242.484c-5.823,0-7.174,3.549-7.174,3.549s-10.466,25.033-10.9,25.979a6.452,6.452,0,0,0-.262,2.637l-.124,5.362h8.171c2.934,0,2.943,3.372,2.943,3.372v7.7h53.172v-17.59l.115-1.478s.772-23.157,1.044-25.391a4.673,4.673,0,0,1,4.325-4.137Zm44.631,28.464c-.042.707-.434,2.349-3.165,2.349h-54.547c-1.231,0-1.751-.456-1.969-.841a1.768,1.768,0,0,1,.175-1.8c.313-.527,2.749-6.552,4.9-11.866,2.693-6.658,4.345-10.73,4.6-11.137l.033-.051a3.09,3.09,0,0,1,2.588-1.869c1.235-.035,5.844-.052,13.7-.052,7.692,0,18.194.016,31.218.048l1.223,0a2.548,2.548,0,0,1,1.769.8,2.256,2.256,0,0,1,.639,1.672C3779.973,4249.5,3778.937,4269.881,3778.872,4270.949Z" transform="translate(-3713.979 -4233.749)" fill="#e2e2e2"/><path d="M3786.776,4255.567a1.5,1.5,0,0,0-.433-1.119,1.806,1.806,0,0,0-1.228-.568l-1.225,0c-13.023-.034-23.525-.05-31.216-.05-7.849,0-12.45.019-13.678.054-1.031.028-1.469.721-1.977,1.522l-.033.051c-.245.394-2.527,6.037-4.541,11.015-2.782,6.882-4.631,11.434-4.95,11.97a1.094,1.094,0,0,0-.167,1.05c.171.3.639.463,1.319.463h54.546c1.539,0,2.353-.553,2.418-1.644C3785.675,4277.239,3786.712,4256.862,3786.776,4255.567Z" transform="translate(-3721.466 -4241.151)" fill="#fff" opacity="0.4"/><path d="M3781.784,4279.295h-54.546c-1.232,0-1.751-.457-1.969-.841a1.766,1.766,0,0,1,.175-1.8c.314-.528,2.749-6.553,4.9-11.866,2.693-6.658,4.345-10.729,4.6-11.137l.033-.051a3.086,3.086,0,0,1,2.587-1.869c1.236-.036,5.844-.054,13.7-.054,7.691,0,18.194.017,31.218.049l1.223,0a2.546,2.546,0,0,1,1.768.8,2.257,2.257,0,0,1,.64,1.673c-.065,1.3-1.1,21.679-1.165,22.747C3784.907,4277.653,3784.516,4279.295,3781.784,4279.295Zm-30.519-26.873c-7.849,0-12.45.019-13.678.053-1.031.029-1.47.721-1.977,1.522l-.033.05c-.245.394-2.527,6.038-4.541,11.016-2.782,6.882-4.631,11.433-4.95,11.969a1.093,1.093,0,0,0-.167,1.05c.171.3.639.463,1.319.463h54.546c1.539,0,2.353-.552,2.418-1.644.063-1.068,1.1-21.444,1.165-22.74a1.5,1.5,0,0,0-.433-1.118,1.8,1.8,0,0,0-1.228-.567l-1.225,0C3769.458,4252.439,3758.956,4252.422,3751.266,4252.422Z" transform="translate(-3720.056 -4239.746)"/><path d="M3723.953,4350.513h-8.171v3.371H3726.9S3726.887,4350.513,3723.953,4350.513Z" transform="translate(-3713.979 -4304.25)" fill="#f29600"/><rect width="11.114" height="7.693" transform="translate(1.802 49.637)" fill="#fff"/><path d="M3.575,0h0A3.575,3.575,0,0,1,7.151,3.575V6.408A3.575,3.575,0,0,1,3.576,9.983h0A3.576,3.576,0,0,1,0,6.407V3.575A3.575,3.575,0,0,1,3.575,0Z" transform="translate(70.203 29.662)"/><path d="M3871.6,4350.513h8.239v3.371h-11.18S3868.665,4350.513,3871.6,4350.513Z" transform="translate(-3813.748 -4304.25)" fill="#f29600"/><rect width="11.18" height="7.693" transform="translate(54.909 49.637)" fill="#fff"/><path d="M3775.367,4401.054a1.7,1.7,0,0,1-1.7,1.7h-54.756a1.7,1.7,0,0,1-1.7-1.7v-.723a1.7,1.7,0,0,1,1.7-1.7h54.756a1.7,1.7,0,0,1,1.7,1.7Z" transform="translate(-3714.915 -4335.654)"/><path d="M2.059,0H6.377A2.059,2.059,0,0,1,8.436,2.059v0A2.059,2.059,0,0,1,6.377,4.118H2.059A2.059,2.059,0,0,1,0,2.059v0A2.059,2.059,0,0,1,2.059,0Z" transform="translate(2.3 62.98)" fill="#c8c9ca"/><path d="M2.059,0H6.377A2.059,2.059,0,0,1,8.436,2.059v0A2.059,2.059,0,0,1,6.376,4.118H2.059A2.059,2.059,0,0,1,0,2.059v0A2.059,2.059,0,0,1,2.059,0Z" transform="translate(52.116 62.98)" fill="#c8c9ca"/><path d="M1.223,0H22.091a1.222,1.222,0,0,1,1.222,1.222V5.041a1.222,1.222,0,0,1-1.222,1.222H1.223A1.223,1.223,0,0,1,0,5.04V1.223A1.223,1.223,0,0,1,1.223,0Z" transform="translate(19.25 65.531)" fill="#d9d9d9"/><path d="M3935.193,4341a.424.424,0,0,0,.424.425h1.98a.424.424,0,0,0,.423-.425v-1.274a.424.424,0,0,0-.423-.425h-1.98a.425.425,0,0,0-.424.425Z" transform="translate(-3857.17 -4296.932)" fill="#262626"/><rect width="25.587" height="13.275" transform="translate(82.515 45.39)" fill="#b4b4b5"/><path d="M3949.418,4366.283a.419.419,0,0,1-.333-.406v-.792a.423.423,0,0,1,.422-.425h-.823v-11.466h-.566v11.466h0v1.621Z" transform="translate(-3865.603 -4306)" fill="#888"/><rect width="5.117" height="8.985" transform="translate(82.969 68.096)" fill="#c8c9ca"/><g transform="translate(90.24 60.297)"><path d="M3970.363,4404.9c0,.77.5.755.5.755h5.533a.749.749,0,0,0,.788-.755,21.893,21.893,0,0,1,1.349-6.028h-6.793A22.607,22.607,0,0,0,3970.363,4404.9Z" transform="translate(-3970.363 -4396.104)" fill="#b3b3b3"/><path d="M3983.629,4390.911H3976.7c-.971,0-1.771,1.222-2.381,2.764h6.793C3981.731,4392.133,3982.566,4390.911,3983.629,4390.911Z" transform="translate(-3972.946 -4390.911)" fill="#717071"/></g><rect width="25.587" height="1.804" transform="translate(82.515 45.39)" fill="#9e9e9f"/><g transform="translate(86.826 3.159)"><path d="M3983.373,4226.44s1.313,1.985,2.453,1.985c1.381,0,2.549-2.138,2.549-1.985,0,.188-.984,2.837-2.549,2.837S3983.345,4226.725,3983.373,4226.44Z" transform="translate(-3975.439 -4226.433)" fill="#47856b"/><path d="M4006.1,4226.44s1.311,1.985,2.453,1.985c1.381,0,2.548-2.138,2.548-1.985,0,.188-.982,2.837-2.548,2.837S4006.073,4226.725,4006.1,4226.44Z" transform="translate(-3990.272 -4226.433)" fill="#47856b"/><path d="M3960.534,4226.44s1.312,1.985,2.454,1.985c1.38,0,2.55-2.138,2.55-1.985,0,.188-.985,2.837-2.55,2.837S3960.507,4226.725,3960.534,4226.44Z" transform="translate(-3960.534 -4226.433)" fill="#47856b"/></g><g transform="translate(86.826 2.971)"><path d="M3983.374,4225.995c0-.45,1.313,1.027,2.453,1.027,1.382,0,2.55-1.537,2.55-1.027a3.016,3.016,0,0,1-2.55,1.951C3984.261,4227.946,3983.374,4226.1,3983.374,4225.995Z" transform="translate(-3975.44 -4225.891)" fill="#27654d"/><path d="M4006.1,4225.995c0-.45,1.311,1.027,2.453,1.027,1.381,0,2.548-1.537,2.548-1.027a3.013,3.013,0,0,1-2.548,1.951C4006.99,4227.946,4006.1,4226.1,4006.1,4225.995Z" transform="translate(-3990.273 -4225.891)" fill="#27654d"/><path d="M3960.535,4225.995c0-.45,1.313,1.027,2.454,1.027,1.381,0,2.549-1.537,2.549-1.027a3.018,3.018,0,0,1-2.549,1.951C3961.423,4227.946,3960.535,4226.1,3960.535,4225.995Z" transform="translate(-3960.535 -4225.891)" fill="#27654d"/></g><g transform="translate(95.333 40.221)"><path d="M3990.13,4337.219c0-.193-.272.451-.589.959-.389.625-.567.529-.569.721s.306.084.624-.38A3.33,3.33,0,0,0,3990.13,4337.219Z" transform="translate(-3987.6 -4335.771)" fill="#47856b"/><path d="M3989.958,4333.146c0-.181-.3.582-.586,1.41a7.653,7.653,0,0,0-.485,1.406c.009.2.31-.243.6-1.031A7.7,7.7,0,0,0,3989.958,4333.146Z" transform="translate(-3987.544 -4333.119)" fill="#27654d"/><path d="M3985.024,4337.219c0-.193.272.451.589.959.389.625.567.529.568.721s-.3.084-.625-.38A3.346,3.346,0,0,1,3985.024,4337.219Z" transform="translate(-3985.024 -4335.771)" fill="#47856b"/><path d="M3985.355,4333.146c0-.181.3.582.587,1.41a7.531,7.531,0,0,1,.486,1.406c-.009.2-.31-.243-.606-1.031A7.839,7.839,0,0,1,3985.355,4333.146Z" transform="translate(-3985.24 -4333.119)" fill="#27654d"/></g><g transform="translate(105.217 40.221)"><path d="M4018.583,4337.219c0-.193-.272.451-.59.959-.388.625-.567.529-.568.721s.3.084.625-.38A3.378,3.378,0,0,0,4018.583,4337.219Z" transform="translate(-4016.053 -4335.771)" fill="#47856b"/><path d="M4018.411,4333.146c0-.181-.3.582-.587,1.41a7.622,7.622,0,0,0-.486,1.406c.009.2.31-.243.605-1.031A7.886,7.886,0,0,0,4018.411,4333.146Z" transform="translate(-4015.997 -4333.119)" fill="#27654d"/><path d="M4013.477,4337.219c0-.193.272.451.589.959.389.625.566.529.569.721s-.3.084-.625-.38A3.341,3.341,0,0,1,4013.477,4337.219Z" transform="translate(-4013.477 -4335.771)" fill="#47856b"/><path d="M4013.81,4333.146c0-.181.3.582.586,1.41a7.613,7.613,0,0,1,.486,1.406c-.008.2-.31-.243-.6-1.031A7.828,7.828,0,0,1,4013.81,4333.146Z" transform="translate(-4013.694 -4333.119)" fill="#27654d"/></g><g transform="translate(86.676 40.221)"><path d="M3965.209,4337.219c0-.193-.272.451-.589.959-.39.625-.568.529-.569.721s.305.084.625-.38A3.373,3.373,0,0,0,3965.209,4337.219Z" transform="translate(-3962.68 -4335.771)" fill="#47856b"/><path d="M3965.038,4333.146c0-.181-.3.582-.585,1.41a7.58,7.58,0,0,0-.487,1.406c.009.2.311-.243.6-1.031A7.741,7.741,0,0,0,3965.038,4333.146Z" transform="translate(-3962.624 -4333.119)" fill="#27654d"/><path d="M3960.1,4337.219c0-.193.273.451.589.959.39.625.567.529.568.721s-.3.084-.623-.38A3.363,3.363,0,0,1,3960.1,4337.219Z" transform="translate(-3960.104 -4335.771)" fill="#47856b"/><path d="M3960.437,4333.146c0-.181.3.582.586,1.41a7.636,7.636,0,0,1,.486,1.406c-.009.2-.309-.243-.605-1.031A7.828,7.828,0,0,1,3960.437,4333.146Z" transform="translate(-3960.321 -4333.119)" fill="#27654d"/></g><path d="M3961.154,4360.05h-.008a.149.149,0,0,1-.143-.156l.8-16.641a.151.151,0,0,1,.15-.142h.007a.152.152,0,0,1,.142.157l-.8,16.639A.15.15,0,0,1,3961.154,4360.05Z" transform="translate(-3874.014 -4299.419)" fill="#717071"/><path d="M3989.4,4360.05a.15.15,0,0,1-.149-.142l-.751-16.639a.152.152,0,0,1,.143-.157.149.149,0,0,1,.156.144l.751,16.639a.149.149,0,0,1-.142.156Z" transform="translate(-3891.959 -4299.419)" fill="#717071"/><path d="M4015,4360.05h-.008a.149.149,0,0,1-.142-.156l.8-16.641a.144.144,0,0,1,.158-.142.151.151,0,0,1,.142.157l-.8,16.639A.15.15,0,0,1,4015,4360.05Z" transform="translate(-3909.153 -4299.419)" fill="#717071"/></g><g transform="translate(99.714 44.275)"><g transform="translate(0 0.186)"><rect width="1.736" height="1.736" transform="translate(8.317 6.038)" fill="#03a58e"/><path d="M3758.321,4349.627v-1.736h1.378l-3.982-2.565-3.982,2.565h1.378v5.207h1.735v-1.735h1.736v-1.736h1.731v1.735h-1.731v1.736h1.735v-1.736h1.732v-1.735Z" transform="translate(-3751.736 -4345.326)" fill="#03a58e"/></g><rect width="1.708" height="1.708" transform="translate(14.362 0.11)" fill="#03a58e"/><g transform="translate(10.934)"><path d="M3789.4,4346.776l-4.463.13a1.082,1.082,0,0,0,.716-1.352,1.037,1.037,0,0,0-.11-.246l.02-.006h0l.594-.205a.04.04,0,0,0,.025-.051h0a.041.041,0,0,0-.044-.026l-.7.029-.124-.007a1.083,1.083,0,1,0-.958,1.882h0v0h0l-.3,2.927-.726,2.425h0l-.019.063-.1.322h0a.074.074,0,0,0,.049.091.1.1,0,0,0,.021,0h1.616a.082.082,0,0,0,.083-.083h0v-.315a.083.083,0,0,0-.083-.083h-.173l.62-2.071,1.9.29v2.16a.1.1,0,0,0,.1.1h1.613a.083.083,0,0,0,.082-.083h0v-.315a.082.082,0,0,0-.082-.082h-.353v-2.771a.214.214,0,0,0-.181-.211l-2.9-.441.062-.605,3.853-.112a.107.107,0,0,0,.1-.11l-.033-1.147a.109.109,0,0,0-.111-.1Zm-5.521-.737a.757.757,0,0,1-.019-.153l.091-.031,1.271-.438a.757.757,0,1,1-1.343.623v0Z" transform="translate(-3783.21 -4344.791)" fill="#1a1311"/><path d="M3814.413,4349.891h-.846v-1.171a.115.115,0,0,0-.114-.115h-1.039a.115.115,0,0,0-.115.115h0v1.171h-1.556a.115.115,0,0,0-.114.116v1.038a.114.114,0,0,0,.114.114h1.556v3.636h-.308a.1.1,0,0,0-.1.1v.254a.1.1,0,0,0,.1.1h1.475a.1.1,0,0,0,.1-.1h0v-3.981h.846a.115.115,0,0,0,.115-.114h0v-1.039A.115.115,0,0,0,3814.413,4349.891Z" transform="translate(-3801.104 -4347.28)" fill="#1a1311"/><path d="M3832.854,4350.693h-.762v-.764a.1.1,0,0,0-.095-.1h-.952a.1.1,0,0,0-.1.094h0v.764h-1.25a.1.1,0,0,0-.1.095h0v1.078a.1.1,0,0,0,.095.095h1.251v1.86a1.07,1.07,0,0,1-1.07,1.07h-.188a.087.087,0,0,0-.087.087h0v.966a.087.087,0,0,0,.087.087h.187a2.213,2.213,0,0,0,2.213-2.212h0v-1.859h.761a.1.1,0,0,0,.095-.1h0v-1.078A.094.094,0,0,0,3832.854,4350.693Z" transform="translate(-3813.488 -4348.083)" fill="#1a1311"/><path d="M3845.3,4351.945h1.1a.116.116,0,0,0,.115-.116v-1.147h1.027a.064.064,0,0,0,.064-.063h0v-1.89a.107.107,0,0,0-.107-.107h-.072v0h-2.376v-.979a.1.1,0,0,0-.1-.1h-1.009a.1.1,0,0,0-.1.1h0v.979h-2.448a.108.108,0,0,0-.108.107v1.856a.1.1,0,0,0,.1.1h.989v1.147a.116.116,0,0,0,.115.116h1.349v.266h-1.7a.1.1,0,0,0-.1.1v.738a.1.1,0,0,0,.1.1h1.7v.249h-2.453a.1.1,0,0,0-.1.1h0v.737a.1.1,0,0,0,.1.1h6.118a.1.1,0,0,0,.1-.1v-.737a.1.1,0,0,0-.1-.1h-2.453v-.249h1.7a.1.1,0,0,0,.1-.1v-.738a.1.1,0,0,0-.1-.1h-1.7v-.266Zm-2.809-2.072v-.221h3.9v.221Zm1.091,1.049v-.027a.115.115,0,0,1,.115-.114h1.487a.115.115,0,0,1,.116.114v.027a.115.115,0,0,1-.116.115h-1.487a.116.116,0,0,1-.115-.115Z" transform="translate(-3821.104 -4346.583)" fill="#1a1311"/><path d="M3825.245,4356.479h-.26V4352.4a.1.1,0,0,0-.1-.1h-.961a.1.1,0,0,0-.095.1h0v4.36a.123.123,0,0,0,.123.124h1.288a.106.106,0,0,0,.106-.106h0v-.194a.107.107,0,0,0-.105-.106Z" transform="translate(-3809.722 -4349.696)" fill="#1a1311"/><path d="M3811.911,4359.168a.6.6,0,1,0,.6.6h0A.6.6,0,0,0,3811.911,4359.168Z" transform="translate(-3801.549 -4354.174)" fill="#1a1311"/><path d="M3844.563,4348.078a.6.6,0,1,0-.6-.6h0A.6.6,0,0,0,3844.563,4348.078Z" transform="translate(-3822.858 -4346.153)" fill="#1a1311"/><path d="M3853.934,4348.078a.6.6,0,1,0-.6-.6h0A.6.6,0,0,0,3853.934,4348.078Z" transform="translate(-3828.974 -4346.153)" fill="#1a1311"/><path d="M3804.777,4349.2l-.94-.474a.108.108,0,0,0-.145.047h0l-.885,1.766,0,0-.383.769a.108.108,0,0,0,.048.145l.766.381v3.366a.117.117,0,0,0,.116.118h1.035a.118.118,0,0,0,.117-.118v-3.716a.157.157,0,0,0-.088-.142l-.471-.235.882-1.76a.107.107,0,0,0-.049-.143Z" transform="translate(-3795.74 -4347.352)" fill="#1a1311"/></g><g transform="translate(7.85 8.863)"><path d="M3794.431,4370.64h-.285v.224h.262v.907h-.219v-.061h-.58v.071h-.208v-.917h.251v-.224h-.263v-.164q-.04.112-.089.222l.053.018a.051.051,0,0,1-.045.031v1.059h-.216v-.723c-.027.04-.053.076-.08.108a2.3,2.3,0,0,0-.093-.244,1.929,1.929,0,0,0,.293-.632l.244.082c-.006.014-.022.022-.047.021l-.006.017h1.028Zm-.822.421v.455h.065v-.455Zm.321,0h-.067v.455h.067Zm0-.2v-.223h-.066v.223Zm.259.652v-.454h-.069v.454Z" transform="translate(-3786.463 -4370.312)" fill="#1a1311"/><path d="M3800.049,4370.461l.147.068a.055.055,0,0,1-.024.026,1.176,1.176,0,0,1-.224.4,1.04,1.04,0,0,0,.335.159,1.025,1.025,0,0,0-.128.167v.509h-.219v-.043h-.268v.048h-.21v-.485l-.07.028a.743.743,0,0,0-.066-.108l-.059.084c-.014-.038-.036-.086-.06-.136v.616h-.216v-.518a1.114,1.114,0,0,1-.126.253,1.207,1.207,0,0,0-.1-.208,1.417,1.417,0,0,0,.213-.488h-.176v-.21h.191v-.317l.26.015c0,.016-.016.026-.045.032v.271h.16v.095a1.236,1.236,0,0,0,.253-.414l.244.081a.043.043,0,0,1-.045.018c-.01.022-.021.046-.031.068h.229Zm-.846.371v.05c.036.043.125.169.167.232a1.288,1.288,0,0,0,.272-.161,1.541,1.541,0,0,1-.093-.126.906.906,0,0,1-.1.107,1.413,1.413,0,0,0-.109-.1Zm.722.365a1.025,1.025,0,0,1-.13-.094,1.161,1.161,0,0,1-.128.094Zm-.257.355h.268v-.165h-.268Zm0-.891a1.078,1.078,0,0,0,.114.151.9.9,0,0,0,.1-.151Z" transform="translate(-3790.274 -4370.303)" fill="#1a1311"/><path d="M3804.983,4372.039a.219.219,0,1,1-.219-.22A.219.219,0,0,1,3804.983,4372.039Z" transform="translate(-3794.051 -4371.292)" fill="#1a1311"/><path d="M3808.084,4371.3a1.261,1.261,0,0,1,.394.182.5.5,0,0,1-.113.246.942.942,0,0,0-.271-.187v0c0,.156-.114.26-.34.26-.241,0-.4-.1-.4-.281,0-.153.15-.265.4-.265l.092,0-.006-.125c-.14,0-.278,0-.384,0a.785.785,0,0,1-.041-.236c.092.011.185.017.277.02.042,0,.091,0,.141,0v-.149c-.109,0-.217,0-.325-.011a.717.717,0,0,1-.038-.222,1.745,1.745,0,0,0,.257.022h.109v-.019a1.669,1.669,0,0,0,0-.169,1.259,1.259,0,0,1,.25.018c-.005.052-.008.105-.01.159a1.757,1.757,0,0,0,.257-.034.711.711,0,0,1,0,.218,2.063,2.063,0,0,1-.262.03c0,.046,0,.092,0,.139v.008a2.147,2.147,0,0,0,.32-.047.862.862,0,0,1,0,.234,2.706,2.706,0,0,1-.307.036Zm-.229.165a.776.776,0,0,0-.13-.012c-.078,0-.133.022-.133.066s.038.069.127.069.135-.034.136-.124Z" transform="translate(-3795.885 -4370.341)" fill="#1a1311"/><path d="M3812.125,4371.235a.284.284,0,0,0-.046.142c0,.07.048.141.275.141a1.309,1.309,0,0,0,.519-.1.726.726,0,0,1,.063.26,1.56,1.56,0,0,1-.571.091c-.335,0-.555-.123-.555-.336a.7.7,0,0,1,.074-.281A.944.944,0,0,1,3812.125,4371.235Zm-.184-.726a2.8,2.8,0,0,0,.821.009,1.151,1.151,0,0,1,0,.246,3.2,3.2,0,0,1-.8,0,1.074,1.074,0,0,1-.012-.255Zm1.045.135a.477.477,0,0,1-.126.053,1.085,1.085,0,0,0-.091-.213.624.624,0,0,1,.121-.052,1.106,1.106,0,0,1,.1.212Zm.175-.074a.513.513,0,0,1-.124.053.944.944,0,0,0-.092-.205.725.725,0,0,1,.121-.052.743.743,0,0,1,.1.2Z" transform="translate(-3798.791 -4370.345)" fill="#1a1311"/><path d="M3816.974,4371.5a.294.294,0,0,0-.045.14c0,.07.049.142.275.142a1.339,1.339,0,0,0,.519-.1.709.709,0,0,1,.063.26,1.571,1.571,0,0,1-.572.09c-.335,0-.554-.122-.554-.336a.675.675,0,0,1,.074-.281A.9.9,0,0,1,3816.974,4371.5Zm-.183-.728a3.093,3.093,0,0,0,.868.01,1.122,1.122,0,0,1,0,.246,3.709,3.709,0,0,1-.852,0A1.23,1.23,0,0,1,3816.791,4370.776Z" transform="translate(-3801.956 -4370.613)" fill="#1a1311"/><path d="M3821.354,4370.532a3.546,3.546,0,0,0,.561-.048.6.6,0,0,1,.095.168,4.493,4.493,0,0,0-.4.368.576.576,0,0,1,.175-.027.416.416,0,0,1,.447.382v.017c0,.306-.238.54-.774.486a.8.8,0,0,1-.081-.266c.344.061.594.006.594-.225,0-.1-.079-.2-.253-.2a.7.7,0,0,0-.542.378.7.7,0,0,1-.18-.2c.164-.183.479-.49.62-.633-.072.013-.238.03-.35.036a.866.866,0,0,1-.056-.238C3821.241,4370.529,3821.3,4370.532,3821.354,4370.532Z" transform="translate(-3804.787 -4370.421)" fill="#1a1311"/><path d="M3775.061,4371.3a1.262,1.262,0,0,1,.395.182.5.5,0,0,1-.113.246.923.923,0,0,0-.271-.187v0c0,.156-.114.26-.339.26-.241,0-.4-.1-.4-.281,0-.153.15-.265.4-.265l.092,0-.006-.125c-.139,0-.277,0-.384,0a.808.808,0,0,1-.041-.236c.093.011.185.017.278.02.042,0,.091,0,.141,0v-.149c-.109,0-.218,0-.326-.011a.754.754,0,0,1-.038-.222,1.742,1.742,0,0,0,.256.022h.11v-.019c0-.085,0-.122,0-.169a1.248,1.248,0,0,1,.249.018c0,.052-.008.105-.009.159a1.753,1.753,0,0,0,.257-.034.711.711,0,0,1,0,.218,2.071,2.071,0,0,1-.263.03c0,.046,0,.092,0,.139v.008a2.135,2.135,0,0,0,.319-.047.834.834,0,0,1,0,.234,2.68,2.68,0,0,1-.307.036Zm-.229.165a.76.76,0,0,0-.13-.012c-.078,0-.133.022-.133.066s.037.069.127.069.136-.034.137-.124Z" transform="translate(-3774.333 -4370.341)" fill="#1a1311"/><path d="M3779.1,4371.235a.3.3,0,0,0-.045.142c0,.07.048.141.275.141a1.307,1.307,0,0,0,.518-.1.707.707,0,0,1,.063.26,1.557,1.557,0,0,1-.571.091c-.336,0-.555-.123-.555-.336a.7.7,0,0,1,.073-.281A.932.932,0,0,1,3779.1,4371.235Zm-.183-.726a2.8,2.8,0,0,0,.82.009,1.184,1.184,0,0,1,0,.246,3.212,3.212,0,0,1-.8,0,1.086,1.086,0,0,1-.011-.255Zm1.044.135a.475.475,0,0,1-.126.053,1.069,1.069,0,0,0-.09-.213.651.651,0,0,1,.12-.052,1.108,1.108,0,0,1,.1.212Zm.175-.074a.522.522,0,0,1-.124.053.982.982,0,0,0-.093-.205.719.719,0,0,1,.121-.052.77.77,0,0,1,.1.2Z" transform="translate(-3777.241 -4370.345)" fill="#1a1311"/><path d="M3783.953,4371.5a.287.287,0,0,0-.045.14c0,.07.048.142.275.142a1.335,1.335,0,0,0,.519-.1.71.71,0,0,1,.063.26,1.573,1.573,0,0,1-.572.09c-.335,0-.554-.122-.554-.336a.678.678,0,0,1,.074-.281A.9.9,0,0,1,3783.953,4371.5Zm-.184-.728a3.1,3.1,0,0,0,.868.01,1.221,1.221,0,0,1,0,.246,3.707,3.707,0,0,1-.852,0A1.182,1.182,0,0,1,3783.77,4370.776Z" transform="translate(-3780.406 -4370.613)" fill="#1a1311"/><path d="M3788.333,4370.532a3.542,3.542,0,0,0,.561-.048.652.652,0,0,1,.1.168,4.394,4.394,0,0,0-.4.368.568.568,0,0,1,.174-.027.417.417,0,0,1,.447.382v.017c0,.306-.239.54-.774.486a.83.83,0,0,1-.082-.266c.345.061.594.006.594-.225,0-.1-.078-.2-.252-.2a.7.7,0,0,0-.542.378.714.714,0,0,1-.18-.2c.164-.183.479-.49.62-.633-.072.013-.238.03-.35.036a.913.913,0,0,1-.056-.238C3788.219,4370.529,3788.274,4370.532,3788.333,4370.532Z" transform="translate(-3783.236 -4370.421)" fill="#1a1311"/><path d="M3827.216,4371.907a.618.618,0,0,1-.194.194,2.726,2.726,0,0,0-.371-.419,1.845,1.845,0,0,1-.572.41,1.127,1.127,0,0,1-.193-.219,1.526,1.526,0,0,0,.625-.4,1.113,1.113,0,0,0,.226-.336c-.189,0-.562.013-.675.018a1.606,1.606,0,0,1-.03-.246c.05,0,.112.007.162.007.083,0,.548-.007.647-.012a.865.865,0,0,0,.118-.012.577.577,0,0,1,.133.132,2.651,2.651,0,0,1-.282.471A3.011,3.011,0,0,1,3827.216,4371.907Z" transform="translate(-3807.977 -4370.688)" fill="#1a1311"/><path d="M3831.865,4370.639a.914.914,0,0,0,.121-.011.639.639,0,0,1,.143.115,1.672,1.672,0,0,1-.263.541c.048.041.094.083.138.125a.5.5,0,0,1-.175.192c-.038-.041-.081-.084-.128-.128a1.415,1.415,0,0,1-.552.348.751.751,0,0,1-.213-.208,1.3,1.3,0,0,0,.583-.294,2.36,2.36,0,0,0-.238-.169,1.214,1.214,0,0,1,.159-.164,2.779,2.779,0,0,1,.244.155.909.909,0,0,0,.149-.3l-.4.006a1.559,1.559,0,0,1-.366.358.553.553,0,0,1-.21-.166,1.2,1.2,0,0,0,.554-.657.643.643,0,0,1,.238.106,1.112,1.112,0,0,1-.077.15c.244,0,.29,0,.29,0Z" transform="translate(-3811.222 -4370.357)" fill="#1a1311"/><path d="M3835.848,4371.934a.856.856,0,0,1-.2.092,2.866,2.866,0,0,0-.146-.3c.04-.022.153-.072.2-.089A2.624,2.624,0,0,1,3835.848,4371.934Zm.735-.25a1.394,1.394,0,0,1-.214.509,1.015,1.015,0,0,1-.462.343.765.765,0,0,1-.181-.185.841.841,0,0,0,.454-.288.912.912,0,0,0,.178-.481.806.806,0,0,1,.227.1Zm-.4.133a.989.989,0,0,1-.2.087,2.788,2.788,0,0,0-.134-.306,1.9,1.9,0,0,1,.2-.083,3.127,3.127,0,0,1,.138.3Z" transform="translate(-3814.253 -4371.095)" fill="#1a1311"/><path d="M3840.652,4371.688a1.3,1.3,0,0,1-.614.476.775.775,0,0,1-.224-.232,1.019,1.019,0,0,0,.58-.331.888.888,0,0,0,.183-.409c-.16,0-.745.009-.88.012a1.75,1.75,0,0,1-.023-.262c.074.006.156.011.21.011.1,0,.635-.005.74-.008a.746.746,0,0,0,.118-.009.666.666,0,0,1,.152.121A1.823,1.823,0,0,1,3840.652,4371.688Z" transform="translate(-3816.975 -4370.716)" fill="#1a1311"/></g></g><g transform="translate(0 15.666)"><g transform="translate(0 0)"><path d="M3545.867,4464.959c0,.594-17.884,1.077-39.943,1.077s-39.943-.483-39.943-1.077,17.884-1.077,39.943-1.077S3545.867,4464.365,3545.867,4464.959Z" transform="translate(-3465.533 -4393.731)" fill="#b4b4b5"/><g transform="translate(55.17 65.786)"><path d="M3631.566,4463.673s-3.712.169-4.622.168-2.852.023-3.145-.27a1.529,1.529,0,0,1-.182-.225,1.622,1.622,0,0,0,.441.838c.293.292,1.977.268,2.885.27s4.622-.169,4.622-.169,2.047-.223,2.152-.827a3.388,3.388,0,0,0,.043-.547C3633.412,4463.429,3631.566,4463.673,3631.566,4463.673Z" transform="translate(-3623.58 -4458.883)" fill="#dbdcdc"/><path d="M3628.425,4451.933a4.288,4.288,0,0,1-2.147,1.245c-1.738.589-2.109.74-2.573,1.558a1.374,1.374,0,0,0-.158,1.044,1.609,1.609,0,0,0,.182.225c.293.292,2.237.268,3.145.27s4.622-.169,4.622-.169,1.847-.242,2.2-.761a17.743,17.743,0,0,0-.65-4.027C3632.11,4452.056,3629.82,4452.226,3628.425,4451.933Z" transform="translate(-3623.51 -4451.318)" fill="#f5f6f7"/></g><g transform="translate(58.671 68.035)"><path d="M3634.123,4460.212l-.534.347a2.643,2.643,0,0,1,.635,1.505c.192,0,.406-.013.628-.021A2.943,2.943,0,0,0,3634.123,4460.212Z" transform="translate(-3633.589 -4459.371)" fill="#00254d"/><path d="M3636.434,4458.4a5.343,5.343,0,0,1,.887,2.041c.436-.016.876-.034,1.272-.052a5.685,5.685,0,0,0-1.022-2.6Z" transform="translate(-3635.446 -4457.791)" fill="#00254d"/></g><g transform="translate(72.748 60.991)"><path d="M3680.844,4440.237c-.1-.094-.186-.178-.276-.26a4.365,4.365,0,0,1,.031,2.4,38.72,38.72,0,0,1-1.254,4.055c-.412.817-1.175,2.26-1.573,2.383a1.673,1.673,0,0,1-1.392-.112,1.544,1.544,0,0,0,1.749.423,5.745,5.745,0,0,0,1.712-2.119,38.693,38.693,0,0,0,1.253-4.055S3681.606,4441,3680.844,4440.237Z" transform="translate(-3675.592 -4439.121)" fill="#dbdcdc"/><path d="M3679.088,4438.369a5.049,5.049,0,0,0-1.23-.856c-.217,1.238-1.524,3.722-3.747,3.549a5.789,5.789,0,0,1,.417,2.362c-.131,1.866-.22,2.788.316,3.6.016.024.037.047.055.07a1.67,1.67,0,0,0,1.393.112c.4-.122,1.162-1.565,1.573-2.382a38.742,38.742,0,0,0,1.254-4.055A4.366,4.366,0,0,0,3679.088,4438.369Z" transform="translate(-3674.112 -4437.513)" fill="#f5f6f7"/></g><g transform="translate(54.241 33.968)"><path d="M3627.643,4373.749c-.265-3.188-.252-6.982-.586-8.731-.125-.65-.279-.158-.311-1.429a31.728,31.728,0,0,0,5.159-.369c5.024-1.007,5.358-2.62,5.358-2.62s.031.138.063.336a3.808,3.808,0,0,0-.309-1.211c-.908,2.762-6.4,3.051-9.33,2.992-2.652-.052-3.953-.654-4.893-1.727a121.215,121.215,0,0,0-1.959,14.6c-.088,3.872,4.583,15.739,4.768,16.041.622,1,5.669.927,6.081-.631.362-1.369-3.7-11.154-3.828-12.885C3627.746,4376.678,3627.616,4375,3627.643,4373.749Z" transform="translate(-3620.835 -4359.725)" fill="#ccc6ac"/></g><path d="M3646.948,4379.4c-.948-.815,0-4.677.493-8.568.319-2.537.918-4.685,1.062-7.3a5.671,5.671,0,0,0-.134-1.286s-.334,1.614-5.359,2.62a31.7,31.7,0,0,1-5.159.368c.031,1.271.187.779.311,1.43.432,2.262.283,7.951.908,11.318.421,2.272,2.479,6.031,5.984,9.491,2.019,2,4.354,4.355,5.288,4.462,2.857.327,4.244-3.73,3.807-4.18C3653.062,4386.635,3649.338,4381.446,3646.948,4379.4Z" transform="translate(-3577.699 -4327.401)" fill="#e2dcc3"/><path d="M3611.7,4316.314c-1.084-7.053-1.655-11.912-4.666-17.752a3.5,3.5,0,0,0-.679-.875,4.281,4.281,0,0,0-2.408-1.564,10.715,10.715,0,0,0-1.977-.682,8.247,8.247,0,0,0-1.572-.187,2.646,2.646,0,0,1-.433,1.285,6.357,6.357,0,0,1-1.968,1.242,2.331,2.331,0,0,1-1.231-1.689,4.313,4.313,0,0,1-1.148-.1c-.132-.029-.258-.067-.384-.106a7.966,7.966,0,0,0-2.667,1.567,5.237,5.237,0,0,0-1.624,2.494c-1.023,4.21-.942,5.748-1.542,7-.688,1.427-4.5,3.794-7.5,5.142l1.411-.085c.871.111,2.031.738,1.918,1.608l-.043,1.006a1.5,1.5,0,0,1-.349.747c2.81-1.276,7.2-3.226,8.213-5.327a13.142,13.142,0,0,0,.515-1.263c.364,1.007.629,1.94.857,2.821-.443.247-.844.465-1.176.639.874.1,2.042.7,1.947,1.57l-.026,1.007a2.09,2.09,0,0,1-2.094,1.6l-.823-.051a3.744,3.744,0,0,0,3.106-.227c.054-.03.169-.085.325-.158a11.922,11.922,0,0,0,.65,1.374c1.142,2.053,2.194,3.221,5.945,3.3C3605.628,4320.711,3612.313,4320.323,3611.7,4316.314Z" transform="translate(-3541.183 -4283.683)" fill="#00254d"/><path d="M3628.006,4295.3c-.411-.9-1.117-.936-1.1-1.128l-.005.056c-.013.14-.024.292-.044.453,0,.017,0,.033-.006.049-.007.046-.015.093-.024.142,0,.021-.007.041-.012.063-.01.047-.022.094-.035.142-.006.023-.011.047-.018.071-.014.047-.032.1-.05.146-.009.025-.016.05-.026.074-.021.052-.047.105-.073.159-.012.023-.021.047-.034.071a2.617,2.617,0,0,1-.14.237,6.377,6.377,0,0,1-1.967,1.241,2.33,2.33,0,0,1-1.231-1.688,4.394,4.394,0,0,1-.671-.023,5.717,5.717,0,0,0,.083,2.4c.189.635.937,3.039,1.636,3.117a16.066,16.066,0,0,0,3.064-3.273C3627.676,4297.055,3628.287,4295.914,3628.006,4295.3Z" transform="translate(-3567.666 -4282.973)" fill="#00254d"/><path d="M3620.306,4277.781c-.041-.979-2.1-1.868-3.2-1.956-1.347-.11-2.648.4-3.849.148-.791-.165-1.086-.694-1.846-1.146a6.834,6.834,0,0,0-.46,1.367c-.658,2.981.688,5.844,3.515,6.468a4.331,4.331,0,0,0,1.148.1,2.333,2.333,0,0,0,1.231,1.689,6.373,6.373,0,0,0,1.968-1.242,3.044,3.044,0,0,0,.463-1.614l-.284-.9a9.179,9.179,0,0,0,1.19-2.464C3620.23,4278.08,3620.268,4277.93,3620.306,4277.781Z" transform="translate(-3560.037 -4270.351)" fill="#fbd6a0"/><path d="M3615.024,4265.916a4.176,4.176,0,0,0-2.972-3.6,5.435,5.435,0,0,0-5.016.521,4.671,4.671,0,0,0-1.89,2.813l-1.768.037c-.5.007-.906.015-1.086.022l-.223,0,.134,0c-.806.083-.181,1.39.688,1.74a6.267,6.267,0,0,0,2.215.32,3.765,3.765,0,0,1,.522-1.321c.715.443,1.015.95,1.784,1.109,1.2.25,2.5-.258,3.849-.148,1.1.087,3.163.979,3.2,1.958A7.484,7.484,0,0,0,3615.024,4265.916Z" transform="translate(-3554.192 -4261.942)" fill="#00254d"/><g transform="translate(37.398 28.323)"><g transform="translate(0 2.614)"><path d="M3573.574,4351.064l0-.065a4.467,4.467,0,0,0-1.108,1.724c-.034.095-.075.2-.118.314v3.173c.222-.646.515-1.4.762-2.029.162-.415.309-.791.412-1.075a3.449,3.449,0,0,1,.573-1.011A.984.984,0,0,1,3573.574,4351.064Z" transform="translate(-3572.35 -4350.999)" fill="#dbdcdc"/></g><path d="M3581.234,4346.09a2.1,2.1,0,0,1-2.125,1.557l-1.672-.136c-.874-.112-1.7-.483-1.583-1.356l.04-1.5c.113-.873,1.052-1.2,1.926-1.082l1.539-.093c.871.111,2.031.738,1.919,1.608Z" transform="translate(-3574.63 -4343.475)" fill="#fbd6a0"/></g><g transform="translate(42.42 28.553)"><path d="M3609.979,4346.715a2.091,2.091,0,0,1-2.094,1.6l-1.675-.1c-.875-.093-1.705-.452-1.608-1.324l.014-1.505c.1-.876,1.028-1.216,1.9-1.12l1.535-.12c.875.1,2.046.7,1.951,1.571Z" transform="translate(-3598.415 -4344.137)" fill="#fbd6a0"/><path d="M3587.368,4348.16a.562.562,0,1,0,0,1.123h5.627l.01-1.123Z" transform="translate(-3586.806 -4346.763)" fill="#dbdcdc"/><g transform="translate(8.468 1.913)"><path d="M3611.732,4412.665h-.55v12.012h1.124v-12.258A.791.791,0,0,1,3611.732,4412.665Z" transform="translate(-3611.182 -4390.612)" fill="#dbdcdc"/><path d="M3614,4349.846a.562.562,0,1,0-.863.72,1.466,1.466,0,0,1,.224,1.284c-.114.334-.3.812-.5,1.317-.3.77-.645,1.642-.854,2.331l-.026.085a14.623,14.623,0,0,0-.8,4.106v4.121h.55a.79.79,0,0,1,.574.247v-4.368a13.525,13.525,0,0,1,.753-3.78l.026-.085c.2-.646.53-1.5.824-2.247.2-.518.4-1.008.517-1.366A2.576,2.576,0,0,0,3614,4349.846Z" transform="translate(-3611.182 -4349.644)" fill="#dbdcdc"/></g></g><path d="M3608.483,4390.423H3606.2v7.888h2.279a.8.8,0,0,0,.8-.8v-6.294A.8.8,0,0,0,3608.483,4390.423Z" transform="translate(-3557.046 -4345.791)" fill="#69757c"/><g transform="translate(3.894 66.728)"><g transform="translate(1.233 1.411)"><path d="M3480.007,4458.944a2.523,2.523,0,0,1,.287-.851h-.842A1.821,1.821,0,0,1,3480.007,4458.944Z" transform="translate(-3479.453 -4458.093)" fill="#23456d"/></g><g transform="translate(1.747 1.047)"><path d="M3486.26,4457.044a6.212,6.212,0,0,1,.188,1.609c0,.771-.341,1.18-.76,1.18a.383.383,0,0,1-.055-.009.351.351,0,0,1-.056.009c-.27,0-.474-.238-.643-.556-.182-.349-.333-.885-.538-1.308a2.976,2.976,0,0,0-.1.758c0,1.1.573,1.99,1.278,1.99s1.281-.889,1.281-1.99A2.391,2.391,0,0,0,3486.26,4457.044Z" transform="translate(-3483.129 -4457.044)" fill="#3e3a39"/><g transform="translate(0 0.364)"><path d="M3482.106,4459.41a2.975,2.975,0,0,1,.094-.752,1.364,1.364,0,0,0-.428-.565h-.513a2.668,2.668,0,0,0-.328,1.317c0,1.1.573,1.991,1.28,1.991h1.1a.238.238,0,0,0,.037-.006C3482.657,4461.365,3482.106,4460.49,3482.106,4459.41Z" transform="translate(-3480.931 -4458.093)" fill="#231815"/></g></g><path d="M3481.892,4454.031H3479.8a4.533,4.533,0,0,0,1.234,1.411c.472.3.677,1.319.965,1.868.169.318.373.557.643.557a.347.347,0,0,0,.056-.009.381.381,0,0,0,.056.009c.418,0,.759-.41.759-1.181,0-2.005-.688-2.655-.688-2.655Z" transform="translate(-3478.446 -4454.031)" fill="#4878b2"/><path d="M3477.136,4455.442a4.518,4.518,0,0,1-1.233-1.411h1.354a4.52,4.52,0,0,0,1.234,1.411Z" transform="translate(-3475.903 -4454.031)" fill="#3e699d"/><path d="M3487.316,4459.612c-.278,0-.505.353-.505.787s.228.787.505.787c.069,0,.662-.007.662-.787S3487.385,4459.612,3487.316,4459.612Z" transform="translate(-3483.022 -4457.673)" fill="#bebfbf"/></g><g transform="translate(23.356 66.728)"><g transform="translate(1.501)"><path d="M3537.953,4454.031h-1.706l.191,2.655c0,.651.339,1.181.758,1.181a.386.386,0,0,0,.055-.009.344.344,0,0,0,.055.009c.419,0,.759-.529.759-1.181v-2.655Z" transform="translate(-3536.248 -4454.031)" fill="#4878b2"/></g><path d="M3534.048,4454.031h-1.17l.09,1.256a1.08,1.08,0,0,1,.859-.52h.274Z" transform="translate(-3532.548 -4454.031)" fill="#23456d"/><g transform="translate(0 0.737)"><path d="M3537.444,4457.661v1.385c0,.651-.34,1.18-.759,1.18a.349.349,0,0,1-.055-.009.386.386,0,0,1-.055.009c-.419,0-.758-.529-.758-1.18l-.1-1.4a2.583,2.583,0,0,0-.421,1.473c0,1.1.573,1.99,1.28,1.99s1.28-.89,1.28-1.99A2.6,2.6,0,0,0,3537.444,4457.661Z" transform="translate(-3534.125 -4457.127)" fill="#3e3a39"/><path d="M3533.1,4458.145a2.571,2.571,0,0,1,.418-1.466l-.038-.526h-.274c-.707,0-1.279.894-1.279,1.992s.572,1.991,1.279,1.991h1.1c.012,0,.024,0,.037-.006C3533.653,4460.1,3533.1,4459.224,3533.1,4458.145Z" transform="translate(-3531.927 -4456.153)" fill="#231815"/></g><path d="M3538.31,4459.612c-.278,0-.506.353-.506.787s.228.787.506.787c.07,0,.661-.007.661-.787S3538.379,4459.612,3538.31,4459.612Z" transform="translate(-3535.762 -4457.673)" fill="#bebfbf"/></g><g transform="translate(27.774 68.14)"><path d="M3545.2,4458.944a2.523,2.523,0,0,1,.287-.851h-.842A1.823,1.823,0,0,1,3545.2,4458.944Z" transform="translate(-3544.645 -4458.093)" fill="#23456d"/></g><g transform="translate(28.287 67.775)"><path d="M3551.453,4457.044a6.238,6.238,0,0,1,.187,1.609c0,.771-.34,1.18-.759,1.18a.379.379,0,0,1-.056-.009.347.347,0,0,1-.057.009c-.27,0-.474-.238-.642-.556-.183-.349-.333-.885-.539-1.308a2.965,2.965,0,0,0-.1.758c0,1.1.572,1.99,1.277,1.99s1.281-.889,1.281-1.99A2.4,2.4,0,0,0,3551.453,4457.044Z" transform="translate(-3548.322 -4457.044)" fill="#595757"/><g transform="translate(0 0.364)"><path d="M3547.3,4459.41a2.941,2.941,0,0,1,.1-.752,1.365,1.365,0,0,0-.429-.565h-.513a2.673,2.673,0,0,0-.327,1.317c0,1.1.573,1.991,1.279,1.991h1.1a.238.238,0,0,0,.037-.006C3547.85,4461.365,3547.3,4460.49,3547.3,4459.41Z" transform="translate(-3546.124 -4458.093)" fill="#231815"/></g></g><path d="M3547.084,4454.031h-2.092a4.523,4.523,0,0,0,1.234,1.411c.471.3.677,1.319.965,1.868.168.318.373.557.642.557a.346.346,0,0,0,.057-.009.36.36,0,0,0,.055.009c.418,0,.759-.41.759-1.181,0-2.005-.687-2.655-.687-2.655Z" transform="translate(-3517.098 -4387.302)" fill="#4878b2"/><path d="M3542.328,4455.442a4.516,4.516,0,0,1-1.233-1.411h1.354a4.53,4.53,0,0,0,1.234,1.411Z" transform="translate(-3514.555 -4387.302)" fill="#3e699d"/><path d="M3552.508,4459.612c-.277,0-.505.353-.505.787s.228.787.505.787c.069,0,.663-.007.663-.787S3552.578,4459.612,3552.508,4459.612Z" transform="translate(-3521.673 -4390.945)" fill="#bebfbf"/><path d="M3488.872,4449.112v-.612a.8.8,0,0,1,.8-.8h-24.18a.8.8,0,0,0-.8.8v.612a.8.8,0,0,0,.8.8h24.18A.8.8,0,0,1,3488.872,4449.112Z" transform="translate(-3464.694 -4383.173)" fill="#00447d"/><g transform="translate(24.178 64.53)"><path d="M1.1,0h27.31a1.1,1.1,0,0,1,1.1,1.1v0a1.1,1.1,0,0,1-1.1,1.1H1.1A1.1,1.1,0,0,1,0,1.1v0A1.1,1.1,0,0,1,1.1,0Z" fill="#00579b"/></g><g transform="translate(45.999 66.728)"><path d="M3599.769,4454.031h-1.706l.189,2.655c0,.651.34,1.181.759,1.181a.365.365,0,0,0,.054-.009.4.4,0,0,0,.055.009c.421,0,.76-.529.76-1.181v-2.655Z" transform="translate(-3597.733 -4454.031)" fill="#2d527e"/><g transform="translate(0 0.737)"><path d="M3603.035,4458.145c0,1.1-.572,1.991-1.278,1.991s-1.281-.89-1.281-1.991.574-1.992,1.281-1.992S3603.035,4457.046,3603.035,4458.145Z" transform="translate(-3599.307 -4456.153)" fill="#595757"/><path d="M3598.284,4458.145c0-1.079.553-1.954,1.243-1.984a.351.351,0,0,0-.038-.008h-1.1c-.707,0-1.279.894-1.279,1.992s.573,1.991,1.279,1.991h1.1c.013,0,.025,0,.038-.006C3598.837,4460.1,3598.284,4459.224,3598.284,4458.145Z" transform="translate(-3597.111 -4456.153)" fill="#231815"/></g><path d="M3603.139,4454.031h-1.706l.19,2.655c0,.651.339,1.181.758,1.181a.343.343,0,0,0,.054-.009.377.377,0,0,0,.055.009c.419,0,.759-.529.759-1.181v-2.655Z" transform="translate(-3599.932 -4454.031)" fill="#5084c4"/><path d="M3603.5,4459.612c-.281,0-.507.353-.507.787s.226.787.507.787c.068,0,.661-.007.661-.787S3603.564,4459.612,3603.5,4459.612Z" transform="translate(-3600.947 -4457.673)" fill="#dbdcdc"/></g><g transform="translate(5.01 40.25)"><path d="M3479.487,4377.906h23.491v0a.316.316,0,0,0-.3.308h-23.507A.319.319,0,0,1,3479.487,4377.906Z" transform="translate(-3479.152 -4377.872)" fill="#fbd6a0"/><path d="M3546.839,4378.217a.318.318,0,0,1,.316-.311h19.978a.316.316,0,0,1,.317.311Z" transform="translate(-3523.313 -4377.872)" fill="#b09060"/><path d="M3479.487,4447.143h23.491v0a.315.315,0,0,1-.3-.308h-23.507A.317.317,0,0,0,3479.487,4447.143Z" transform="translate(-3479.152 -4422.854)" fill="#cea75f"/><path d="M3546.839,4446.832a.316.316,0,0,0,.316.311h19.978a.315.315,0,0,0,.317-.311Z" transform="translate(-3523.313 -4422.854)" fill="#90764d"/><rect width="20.648" height="23.632" transform="translate(23.5 0.345)" fill="#c4a064"/><rect width="23.5" height="23.632" transform="translate(0 0.345)" fill="#eabe6c"/><rect width="3.125" height="2.082" transform="translate(32.38)" fill="#eabe6c"/><rect width="3.125" height="2.083" transform="translate(32.38 22.205)" fill="#eabe6c"/></g><g transform="translate(7.521 42.495)"><path d="M3487.038,4384.272a.157.157,0,0,1-.045.1.17.17,0,0,1-.117.051.186.186,0,0,1-.117-.051.159.159,0,0,1-.046-.1h-.368v5.7h.364a.154.154,0,0,1,.051-.118.164.164,0,0,1,.234,0,.149.149,0,0,1,.051.118h10.749v-5.7Zm-.162,5.425a.172.172,0,0,1,0-.343.172.172,0,0,1,0,.343Zm0-.444a.169.169,0,0,1-.168-.168.173.173,0,0,1,.168-.17.169.169,0,0,1,.168.17A.166.166,0,0,1,3486.876,4389.253Zm0-.438a.17.17,0,0,1-.168-.168.172.172,0,0,1,.168-.17.169.169,0,0,1,.168.17A.166.166,0,0,1,3486.876,4388.815Zm0-.439a.168.168,0,0,1-.168-.167.17.17,0,0,1,.168-.169.168.168,0,0,1,0,.337Zm0-.438a.172.172,0,0,1-.168-.168.168.168,0,0,1,.168-.168.165.165,0,0,1,.168.168A.169.169,0,0,1,3486.876,4387.938Zm0-.438a.173.173,0,0,1-.168-.168.168.168,0,0,1,.168-.168.164.164,0,0,1,.168.168A.17.17,0,0,1,3486.876,4387.5Zm0-.444a.169.169,0,0,1-.168-.168.173.173,0,0,1,.168-.169.17.17,0,0,1,.168.169A.165.165,0,0,1,3486.876,4387.056Zm0-.437a.168.168,0,0,1-.168-.168.173.173,0,0,1,.168-.169.169.169,0,0,1,.168.169A.165.165,0,0,1,3486.876,4386.618Zm0-.439a.168.168,0,0,1-.168-.168.173.173,0,0,1,.168-.169.169.169,0,0,1,.168.169A.165.165,0,0,1,3486.876,4386.179Zm0-.439a.168.168,0,0,1,0-.337.168.168,0,0,1,0,.337Zm0-.437a.174.174,0,0,1-.168-.17.169.169,0,0,1,.168-.168.165.165,0,0,1,.168.168A.17.17,0,0,1,3486.876,4385.3Zm0-.439a.172.172,0,0,1-.168-.168.168.168,0,0,1,.168-.168.165.165,0,0,1,.168.168A.168.168,0,0,1,3486.876,4384.864Z" transform="translate(-3486.345 -4384.272)" fill="#fff"/><g transform="translate(1.544 0.705)"><path d="M3496.453,4390.833h-3.033a.186.186,0,0,1,0-.373h3.033a.186.186,0,0,1,0,.373Z" transform="translate(-3492.385 -4389.015)" fill="#c8c9ca"/><path d="M3494.008,4386.674h-3.033a.186.186,0,0,1,0-.372h3.033a.186.186,0,1,1,0,.372Z" transform="translate(-3490.79 -4386.302)" fill="#c8c9ca"/><path d="M3495.435,4388.5h-4.46a.186.186,0,0,1,0-.372h4.46a.186.186,0,0,1,0,.372Z" transform="translate(-3490.79 -4387.49)" fill="#c8c9ca"/><path d="M3510.546,4390.833H3508.6a.186.186,0,0,1,0-.373h1.951a.186.186,0,0,1,0,.373Z" transform="translate(-3502.289 -4389.015)" fill="#c8c9ca"/><g transform="translate(0 2.475)"><path d="M3496.453,4397.953h-3.033a.186.186,0,0,1,0-.372h3.033a.186.186,0,0,1,0,.372Z" transform="translate(-3492.385 -4396.138)" fill="#c8c9ca"/><path d="M3494.008,4393.8h-3.033a.186.186,0,0,1,0-.372h3.033a.186.186,0,0,1,0,.372Z" transform="translate(-3490.79 -4393.426)" fill="#c8c9ca"/><path d="M3495.435,4395.615h-4.46a.186.186,0,0,1,0-.372h4.46a.186.186,0,0,1,0,.372Z" transform="translate(-3490.79 -4394.612)" fill="#c8c9ca"/></g></g><path d="M3498.856,4385.09h-9.171a.5.5,0,0,0-.5.5v4.143a.5.5,0,0,0,.5.5h9.171a.5.5,0,0,0,.5-.5v-4.143A.5.5,0,0,0,3498.856,4385.09Zm.347.5v.8h-4.029v-1.143h3.682A.348.348,0,0,1,3499.2,4385.586Zm-4.029,3.295v-.92h4.029v.92Zm0-.994v-1.431h4.029v1.431Zm-5.489-2.648h5.341v2.375h-5.689v-2.028A.348.348,0,0,1,3489.685,4385.239Zm-.348,4.49v-2.04h5.689v2.386h-5.341A.348.348,0,0,1,3489.337,4389.729Z" transform="translate(-3488.2 -4384.806)" fill="#ed85a7"/></g><g transform="translate(53.152 16.883)"><path d="M3623.689,4317.655a14.856,14.856,0,0,0,1.857-6.083,10.177,10.177,0,0,0,.038-1.03,13.476,13.476,0,0,0-.648,2.391c-.323,1.616-.887,4.18-2.316,5.191a52,52,0,0,1-4.919,3.089s.037.125.1.353C3619.989,4320.349,3623.158,4318.444,3623.689,4317.655Z" transform="translate(-3617.701 -4310.542)" fill="#fff"/><path d="M3633.357,4312.9a13.97,13.97,0,0,1-2.531,8.339,14.179,14.179,0,0,1-4.179,3.652,40.89,40.89,0,0,1-5,2.587c.08.217.136.364.136.364a34.97,34.97,0,0,0,6.1-3.3,12.555,12.555,0,0,0,3.433-3.34C3633.593,4317.705,3633.745,4315.167,3633.357,4312.9Z" transform="translate(-3620.277 -4312.082)" fill="#fff"/></g><g transform="translate(75.071 64.393)"><path d="M3681.308,4453.611a2.709,2.709,0,0,1,1.719-.15c.062-.2.126-.406.185-.615a2.9,2.9,0,0,0-1.907.065C3681.316,4453.157,3681.318,4453.395,3681.308,4453.611Z" transform="translate(-3681.128 -4450.833)" fill="#00254d"/><path d="M3683.06,4448.708c.143-.5.267-.96.344-1.245a4.8,4.8,0,0,0-2.607.079c.047.33.107.823.146,1.335A4.711,4.711,0,0,1,3683.06,4448.708Z" transform="translate(-3680.797 -4447.309)" fill="#00254d"/></g><path d="M3635.465,4297.924a2.711,2.711,0,0,1-1.042,1.389s3.921.726,3.729,3.152c0,0,1.925-.347,2.5.539C3640.655,4303,3640.9,4299.236,3635.465,4297.924Z" transform="translate(-3575.462 -4285.424)" fill="#fff"/><path d="M3613.788,4298.083s-2.772,1.232-3.312,2.195l-.347-.385s.5-1.155,3.119-2.31C3613.249,4297.582,3613.826,4298.044,3613.788,4298.083Z" transform="translate(-3559.607 -4285.201)" fill="#fff"/></g><path d="M3630.563,4311.63s-.578,5.66.154,7.277l.347.078,1.117-1.117a36.214,36.214,0,0,1-.077-4.7l1.386.192.192-1.579S3630.909,4311.553,3630.563,4311.63Z" transform="translate(-3572.801 -4294.359)" fill="#fff"/><path d="M3613.435,4311.362a19.57,19.57,0,0,1,3.643.018s.225,6.88-.3,7.734l-1.323-.077.135-6.373-2.113.024Z" transform="translate(-3561.765 -4294.137)" fill="#fff"/><path d="M3638.335,4330.71l-2-1.425s-2.118,3.619-4.7,4.582l1.463,2.156,2.426-1.848,1.771-1.81Z" transform="translate(-3573.643 -4305.891)" fill="#fff"/><path d="M3599.306,4323.19a7.587,7.587,0,0,1-.543,1.99,8.047,8.047,0,0,1-2.513,2.348l.663.59c3.773-1.733,3.542-4.775,3.542-4.775Z" transform="translate(-3550.55 -4301.914)" fill="#fff"/><path d="M3618.338,4262.313a5.435,5.435,0,0,0-5.016.521,4.494,4.494,0,0,0-1.846,2.692l-.015.132a14.9,14.9,0,0,1,6.738.307,2.59,2.59,0,0,1,2.194-2.289A4.149,4.149,0,0,0,3618.338,4262.313Z" transform="translate(-3560.477 -4261.942)" fill="#fff"/><g transform="translate(5.534 23.741)"><rect width="2.506" height="1.1" rx="0.55" transform="translate(1.842 15.351)" fill="#3d3d3d"/><rect width="2.506" height="1.1" rx="0.55" transform="translate(21.911 15.351)" fill="#3d3d3d"/><path d="M361.168,1362.278a.871.871,0,0,0-.871.871v13.732a.871.871,0,0,0,.871.871h19.751v-15.474Z" transform="translate(-360.072 -1362.247)" fill="#4d4d4d"/><path d="M3.091,0H13.177a3.092,3.092,0,0,1,3.092,3.092V6.264a3.091,3.091,0,0,1-3.091,3.091H3.091A3.091,3.091,0,0,1,0,6.264V3.091A3.091,3.091,0,0,1,3.091,0Z" transform="translate(2.401 3.872)" fill="#e6e6e6"/><path d="M601.1,1362.278h-4.419v15.474H601.1a.871.871,0,0,0,.871-.871v-13.732A.871.871,0,0,0,601.1,1362.278Z" transform="translate(-575.831 -1362.247)" fill="#333"/><g transform="translate(21.29 2.961)"><g transform="translate(0 0)"><circle cx="1.832" cy="1.832" r="1.832" transform="translate(0 3.568) rotate(-76.838)" fill="#4d4d4d"/><circle cx="1.568" cy="1.568" r="1.568" transform="translate(0.317 3.371) rotate(-76.821)" fill="#333"/><circle cx="1.455" cy="1.455" r="1.455" transform="translate(0.44 3.267) rotate(-76.168)" fill="#4d4d4d"/><path d="M622.142,1402.787h-.419a4.924,4.924,0,0,0-.026,3.183h.448A5.739,5.739,0,0,0,622.142,1402.787Z" transform="translate(-619.74 -1402.183)" fill="#333"/></g><g transform="translate(0 5.21)"><circle cx="1.832" cy="1.832" r="1.832" transform="translate(0 3.568) rotate(-76.838)" fill="#4d4d4d"/><circle cx="1.568" cy="1.568" r="1.568" transform="translate(0.317 3.371) rotate(-76.821)" fill="#333"/><circle cx="1.455" cy="1.455" r="1.455" transform="translate(0.452 3.286) rotate(-76.813)" fill="#4d4d4d"/><path d="M612.015,1475.97v-.419a4.924,4.924,0,0,0-3.183-.026v.448A5.739,5.739,0,0,0,612.015,1475.97Z" transform="translate(-608.215 -1473.568)" fill="#333"/></g></g><rect width="15.748" height="1.252" transform="translate(2.662)" fill="#4d4d4d"/><path d="M378.531,1364h-2.4a37.115,37.115,0,0,1-15.747,0h-2.4a.262.262,0,0,1-.262-.262V1362.2a.282.282,0,0,1,.282-.282h2.38a34.99,34.99,0,0,0,15.747,0h2.38a.282.282,0,0,1,.282.282v1.531A.262.262,0,0,1,378.531,1364Z" transform="translate(-357.723 -1361.921)" fill="#333"/><g transform="translate(3.175 6.655)"><path d="M401.532,1442.831h7.16a.247.247,0,0,0,.231-.343l-1.444-3.285a.242.242,0,0,1-.02-.1v-.659a.249.249,0,0,0-.252-.246h-11.35a.249.249,0,0,0-.252.246v.655a.24.24,0,0,1-.02.1l-1.444,3.288a.246.246,0,0,0,.231.343Z" transform="translate(-394.12 -1438.202)" fill="none" stroke="#b3b3b3" stroke-linecap="round" stroke-linejoin="round" stroke-width="1"/><line y2="4.629" transform="translate(7.412 0)" fill="none" stroke="#b3b3b3" stroke-linecap="round" stroke-linejoin="round" stroke-width="1"/><path d="M461.073,1438.2v.952l-.449,3.677" transform="translate(-454.822 -1438.202)" fill="none" stroke="#b3b3b3" stroke-linecap="round" stroke-linejoin="round" stroke-width="1"/><path d="M443.587,1438.2v.96l-.925,3.669" transform="translate(-438.427 -1438.202)" fill="none" stroke="#b3b3b3" stroke-linecap="round" stroke-linejoin="round" stroke-width="1"/><path d="M427.153,1438.2v.952l-1.176,3.677" transform="translate(-423.199 -1438.202)" fill="none" stroke="#b3b3b3" stroke-linecap="round" stroke-linejoin="round" stroke-width="1"/><path d="M410.409,1438.2v.952l-1.461,3.677" transform="translate(-407.655 -1438.202)" fill="none" stroke="#b3b3b3" stroke-linecap="round" stroke-linejoin="round" stroke-width="1"/><path d="M492.4,1438.2v.952l.449,3.677" transform="translate(-483.822 -1438.202)" fill="none" stroke="#b3b3b3" stroke-linecap="round" stroke-linejoin="round" stroke-width="1"/><path d="M504.9,1438.2v.96l.925,3.669" transform="translate(-495.236 -1438.202)" fill="none" stroke="#b3b3b3" stroke-linecap="round" stroke-linejoin="round" stroke-width="1"/><path d="M518.715,1438.2v.952l1.176,3.677" transform="translate(-507.845 -1438.202)" fill="none" stroke="#b3b3b3" stroke-linecap="round" stroke-linejoin="round" stroke-width="1"/><path d="M532.476,1438.2v.952l1.461,3.677" transform="translate(-520.406 -1438.202)" fill="none" stroke="#b3b3b3" stroke-linecap="round" stroke-linejoin="round" stroke-width="1"/></g></g><g transform="translate(31.588 10.565)"><g transform="translate(5.234 48.445)"><path d="M1165.105,739.375a8.862,8.862,0,0,0-.089,1.187h2.113a8.883,8.883,0,0,0-.089-1.187,2.254,2.254,0,0,1-1.934,0Z" transform="translate(-1165.016 -738.624)" fill="#bab9b9"/><path d="M1167.242,728.771h-.836s-.07.308-.131.751a2.254,2.254,0,0,0,1.934,0c-.061-.443-.131-.751-.131-.751Z" transform="translate(-1166.186 -728.771)" fill="#a6a5a5"/></g><path d="M0,0H.717a0,0,0,0,1,0,0V0A.208.208,0,0,1,.509.208h-.3A.208.208,0,0,1,0,0V0A0,0,0,0,1,0,0Z" transform="translate(0.651 53.908)" fill="#8c8c8c"/><path d="M.208,0h.3A.208.208,0,0,1,.717.208v0a0,0,0,0,1,0,0H0a0,0,0,0,1,0,0v0A.208.208,0,0,1,.208,0Z" transform="translate(11.93 54.116) rotate(180)" fill="#8c8c8c"/><path d="M0,0H.717a0,0,0,0,1,0,0V0A.208.208,0,0,1,.509.208h-.3A.208.208,0,0,1,0,0V0A0,0,0,0,1,0,0Z" transform="translate(2.763 53.908)" fill="#8c8c8c"/><path d="M0,0H.717a0,0,0,0,1,0,0V0A.208.208,0,0,1,.509.208h-.3A.208.208,0,0,1,0,0V0A0,0,0,0,1,0,0Z" transform="translate(4.876 53.908)" fill="#8c8c8c"/><path d="M0,0H.717a0,0,0,0,1,0,0V0A.208.208,0,0,1,.509.208h-.3A.208.208,0,0,1,0,0V0A0,0,0,0,1,0,0Z" transform="translate(6.988 53.908)" fill="#8c8c8c"/><path d="M0,0H.717a0,0,0,0,1,0,0V0A.208.208,0,0,1,.509.208h-.3A.208.208,0,0,1,0,0V0A0,0,0,0,1,0,0Z" transform="translate(9.101 53.908)" fill="#8c8c8c"/><path d="M1103.263,796.811h-11.7c-.216,0-.4-.056-.44-.251v.2a.451.451,0,0,0,.449.459h11.683a.451.451,0,0,0,.449-.459v-.2C1103.663,796.755,1103.479,796.811,1103.263,796.811Z" transform="translate(-1091.122 -743.313)" fill="#bab9b9"/><g transform="translate(2.958 37.584)"><path d="M1153.484,709.274a3,3,0,0,1-2.016-.715c.311,1.062.991,1.878,2.016,1.878s1.705-.816,2.016-1.878A3.005,3.005,0,0,1,1153.484,709.274Z" transform="translate(-1150.151 -699.13)" fill="#c44823"/><path d="M1139.535,576.045h-.786l-.3-.342a.8.8,0,0,0-.6-.269h-3.267a.8.8,0,0,0-.6.269l-.3.342h-.786c-.121,2.477,1,7.571,1.255,8.62q.024.1.053.2a3.2,3.2,0,0,0,4.032,0c.019-.065.037-.131.053-.2C1138.536,583.616,1139.656,578.522,1139.535,576.045Z" transform="translate(-1132.879 -575.433)" fill="#9f3718"/></g><path d="M1146.536,601.85c.635,0,1.3-.272,1.415-.6a53.75,53.75,0,0,0,1.126-6.675.9.9,0,0,0-.9-.993h-3.288a.9.9,0,0,0-.9.993,53.768,53.768,0,0,0,1.126,6.675c.116.329.78.6,1.415.6Z" transform="translate(-1140.246 -554.711)" fill="#6d6d6d"/><path d="M.244,0H.929a.244.244,0,0,1,.244.244v0A.244.244,0,0,1,.929.489H.244A.244.244,0,0,1,0,.244v0A.244.244,0,0,1,.244,0Z" transform="translate(5.704 37.964)" fill="#f0f0f0"/><g transform="translate(2.967)"><path d="M1164.608,45.364a.383.383,0,0,0-.054-.164.69.69,0,0,0-1.207,0,.38.38,0,0,0-.054.164c-.073,2.484-.353,14.431-.561,22.81h2.436C1164.962,59.795,1164.682,47.848,1164.608,45.364Z" transform="translate(-1160.627 -44.844)" fill="#c44823"/><path d="M1138.385,459.715a4.419,4.419,0,0,1-.6-2.456c-.011-.047-.042-1.08-.087-2.746h-2.726c-.045,1.665-.076,2.7-.087,2.746a4.418,4.418,0,0,1-.6,2.456,6.042,6.042,0,0,0-1.269,3.975h.786l.3-.342a.8.8,0,0,1,.6-.269h3.267a.8.8,0,0,1,.6.269l.3.342h.786A6.041,6.041,0,0,0,1138.385,459.715Z" transform="translate(-1133.007 -425.495)" fill="#c44823"/><path d="M1163.436,380.586h-2.458c-.045,1.83-.087,3.472-.122,4.784h2.7C1163.523,384.058,1163.481,382.416,1163.436,380.586Z" transform="translate(-1158.883 -356.804)" fill="#c44823"/><path d="M1163.4,448.126h-2.7q-.006.234-.012.453h2.726Q1163.406,448.359,1163.4,448.126Z" transform="translate(-1158.725 -419.56)" fill="#bab9b9"/><path d="M1165.022,374.2h-2.436q-.006.228-.011.452h2.458Q1165.028,374.427,1165.022,374.2Z" transform="translate(-1160.481 -350.87)" fill="#bab9b9"/></g><path d="M1174.351,103.252a.426.426,0,0,1-.425-.425v-.742a.425.425,0,1,1,.85,0v.742A.426.426,0,0,1,1174.351,103.252Z" transform="translate(-1168.061 -97.636)" fill="#666"/><g transform="translate(6.028 4.187)"><path d="M1176.747,104.22a.263.263,0,1,0-.525,0v.371h.525Z" transform="translate(-1176.222 -103.957)" fill="gray"/><path d="M1176.222,112.9v.371a.263.263,0,0,0,.525,0V112.9Z" transform="translate(-1176.222 -112.263)" fill="#666"/></g><path d="M1173.944,430.4a.432.432,0,1,1,.432.432A.432.432,0,0,1,1173.944,430.4Z" transform="translate(-1168.077 -402.687)" fill="#666"/><circle cx="0.26" cy="0.26" r="0.26" transform="translate(6.038 27.451)" fill="#bab9b9"/><g transform="translate(4.29 39.414)"><path d="M1161.227,629.561c.111.577.237,1.181.38,1.8a.442.442,0,0,0,.264.311,1.845,1.845,0,0,0,1.361,0,.442.442,0,0,0,.264-.311c.441-1.914.72-3.665.89-4.959Z" transform="translate(-1160.551 -624.625)" fill="#1f1f1f"/><path d="M1155.686,601.669a.356.356,0,0,0-.354-.393h-3.289a.356.356,0,0,0-.354.393c.1.934.3,2.581.674,4.544l3.16-3.156C1155.6,602.5,1155.649,602.031,1155.686,601.669Z" transform="translate(-1151.687 -601.276)" fill="#515151"/></g><path d="M1103.691,753.963l-.214-1.049a1.528,1.528,0,0,0-1-1.087l-3.421-.981a.509.509,0,0,0-.578.207.375.375,0,0,1-.336.145h-1.451a.375.375,0,0,1-.336-.145.508.508,0,0,0-.578-.207l-3.421.981a1.528,1.528,0,0,0-1,1.087l-.214,1.049c-.067.275.144.349.427.349h11.7C1103.546,754.312,1103.758,754.238,1103.691,753.963Z" transform="translate(-1091.122 -700.814)" fill="#c44823"/></g></g></g></g></svg>