<svg xmlns="http://www.w3.org/2000/svg" width="71.273" height="72.893" viewBox="0 0 71.273 72.893"><g transform="matrix(0.998, -0.07, 0.07, 0.998, -473.779, -1445.49)"><path d="M9.715,0,19.43,18.662H0Z" transform="matrix(-0.766, -0.643, 0.643, -0.766, 384.893, 1549.004)" fill="#009c86"/><ellipse cx="31.978" cy="31.978" rx="31.978" ry="31.978" transform="matrix(0.999, -0.052, 0.052, 0.999, 371.249, 1482.793)" fill="#009c86"/><path d="M19.676.949A2.265,2.265,0,0,1,21.491.041a2.361,2.361,0,0,1,1.691.722,2.308,2.308,0,0,1,.742,1.712,2.415,2.415,0,0,1-.619,1.567L16,12.993h4.331a1.707,1.707,0,0,1,1.2.454,1.546,1.546,0,0,1,.495,1.2,1.5,1.5,0,0,1-.495,1.155,1.707,1.707,0,0,1-1.2.454H14.6V19.3h5.734a1.707,1.707,0,0,1,1.2.454,1.5,1.5,0,0,1,.495,1.155,1.546,1.546,0,0,1-.495,1.2,1.707,1.707,0,0,1-1.2.454H14.6v4.331a2.592,2.592,0,0,1-.742,1.98,2.652,2.652,0,0,1-1.9.7,2.726,2.726,0,0,1-1.918-.7,2.554,2.554,0,0,1-.763-1.98V22.563H3.589a1.707,1.707,0,0,1-1.2-.454,1.546,1.546,0,0,1-.495-1.2,1.5,1.5,0,0,1,.495-1.155,1.707,1.707,0,0,1,1.2-.454H9.281V16.252H3.589a1.707,1.707,0,0,1-1.2-.454A1.5,1.5,0,0,1,1.9,14.643a1.546,1.546,0,0,1,.495-1.2,1.707,1.707,0,0,1,1.2-.454H7.92L.619,4.042A2.464,2.464,0,0,1,0,2.434,2.308,2.308,0,0,1,.742.722,2.361,2.361,0,0,1,2.434,0,2.307,2.307,0,0,1,4.207.907l7.755,9.735Z" transform="translate(393.876 1498.595) rotate(4)" fill="#fff"/></g></svg>