<svg xmlns="http://www.w3.org/2000/svg" width="132.5" height="115.198" viewBox="0 0 132.5 115.198"><g transform="translate(197.13 -176.423)"><ellipse cx="57.599" cy="57.599" rx="57.599" ry="57.599" transform="translate(-197.13 176.423)" fill="red"/><path d="M-15.09-18.51a1.667,1.667,0,0,1-1.2-.495,1.593,1.593,0,0,1-.51-1.185,1.642,1.642,0,0,1,.51-1.2,1.642,1.642,0,0,1,1.2-.51H-4.44a1.593,1.593,0,0,1,1.185.51,1.667,1.667,0,0,1,.495,1.2,3.593,3.593,0,0,1-1.26,2.82l-4.86,4.41a.086.086,0,0,0-.03.06.027.027,0,0,0,.03.03h.48A5.91,5.91,0,0,1-4.05-11.3,5.909,5.909,0,0,1-2.46-6.9a6.767,6.767,0,0,1-2.1,5.325A8.716,8.716,0,0,1-10.56.3a18.361,18.361,0,0,1-4.47-.54,2,2,0,0,1-1.17-.81,2.369,2.369,0,0,1-.45-1.41v-.33a1.092,1.092,0,0,1,.5-.945,1.213,1.213,0,0,1,1.1-.165,13.871,13.871,0,0,0,4.32.81,4.454,4.454,0,0,0,3.06-.96A3.537,3.537,0,0,0-6.6-6.84,2.6,2.6,0,0,0-7.815-9.255,8.866,8.866,0,0,0-12.09-9.99h-.33a1.391,1.391,0,0,1-1.035-.45,1.463,1.463,0,0,1-.435-1.05,3.235,3.235,0,0,1,1.08-2.49l4.89-4.44a.086.086,0,0,0,.03-.06.027.027,0,0,0-.03-.03Zm27.81,1.38a3.353,3.353,0,0,0-3.12-1.8,3.353,3.353,0,0,0-3.12,1.8q-1.02,1.8-1.02,6.18T6.48-4.77A3.353,3.353,0,0,0,9.6-2.97a3.353,3.353,0,0,0,3.12-1.8q1.02-1.8,1.02-6.18T12.72-17.13Zm3.2,14.76Q13.83.3,9.6.3T3.285-2.37Q1.2-5.04,1.2-10.95t2.085-8.58Q5.37-22.2,9.6-22.2t6.315,2.67Q18-16.86,18-10.95T15.915-2.37Z" transform="translate(-159.964 234.231)" fill="#fff"/><path d="M-7.02-4.122a1.244,1.244,0,0,1-.756-.333,1.011,1.011,0,0,1-.342-.729.9.9,0,0,1,.27-.693.832.832,0,0,1,.7-.261,1.55,1.55,0,0,1,.171.009q.081.009.1.009.378,0,.45-.117a2,2,0,0,0,.072-.729v-6.66a.956.956,0,0,1,.306-.711,1,1,0,0,1,.72-.3h.306a.97.97,0,0,1,.711.3.97.97,0,0,1,.3.711V-7.02a9.173,9.173,0,0,1-.144,1.962,1.138,1.138,0,0,1-.5.774,2.78,2.78,0,0,1-1.242.2Q-5.976-4.086-7.02-4.122Zm-1.008-8.622a1.089,1.089,0,0,1,.666.432.951.951,0,0,1,.18.756A36.68,36.68,0,0,1-8.46-6.408a.865.865,0,0,1-.5.558.922.922,0,0,1-.756,0l-.18-.072a1.054,1.054,0,0,1-.576-.549,1.03,1.03,0,0,1-.036-.8,38.113,38.113,0,0,0,1.17-4.68A1.018,1.018,0,0,1-8.91-12.6a.958.958,0,0,1,.738-.162Zm5.778,5.9q-.468-2.43-1.1-4.86a1,1,0,0,1,.108-.783.991.991,0,0,1,.612-.477l.18-.036a1.019,1.019,0,0,1,.783.1.962.962,0,0,1,.477.621q.7,2.628,1.116,4.95a1.024,1.024,0,0,1-.171.774A1.033,1.033,0,0,1-.9-6.1l-.162.036A.946.946,0,0,1-1.809-6.2.976.976,0,0,1-2.25-6.84ZM-10.962.738-11,.612A.822.822,0,0,1-10.926-.1a.889.889,0,0,1,.594-.423A10.473,10.473,0,0,0-3.186-4.986a1.128,1.128,0,0,1,.639-.5,1.092,1.092,0,0,1,.8.054l.162.072a.925.925,0,0,1,.5.585.868.868,0,0,1-.108.765A12.407,12.407,0,0,1-9.612,1.53a1.194,1.194,0,0,1-.819-.153A1.16,1.16,0,0,1-10.962.738Zm-2.592.936a.97.97,0,0,1-.711-.3.97.97,0,0,1-.3-.711V-3.852q-.018-.018-.054,0a16.953,16.953,0,0,1-.972,2.088.554.554,0,0,1-.522.3.592.592,0,0,1-.522-.315L-16.758-2A1.539,1.539,0,0,1-16.7-3.726a15.908,15.908,0,0,0,1.962-4.212q.036-.162-.108-.162h-1.044a.955.955,0,0,1-.7-.288.934.934,0,0,1-.288-.684.934.934,0,0,1,.288-.684.955.955,0,0,1,.7-.288h1.17a.143.143,0,0,0,.162-.162v-1.638q0-.126-.162-.126-.306.036-.882.072a.95.95,0,0,1-.7-.207.885.885,0,0,1-.342-.639.894.894,0,0,1,.207-.675.882.882,0,0,1,.621-.333,39.43,39.43,0,0,0,4.5-.72.987.987,0,0,1,.738.108.942.942,0,0,1,.45.576.893.893,0,0,1-.09.72.876.876,0,0,1-.576.432q-.81.2-1.458.306a.17.17,0,0,0-.144.18v1.944q0,.162.144.162h.774a.926.926,0,0,1,.693.288.95.95,0,0,1,.279.684.95.95,0,0,1-.279.684.926.926,0,0,1-.693.288h-.63a.088.088,0,0,0-.081.045.081.081,0,0,0-.009.081q.936,1.566,2.088,3.708A1.018,1.018,0,0,1-10-3.528a1,1,0,0,1-.4.63.725.725,0,0,1-.648.117.73.73,0,0,1-.486-.423q-.36-.756-.81-1.674a.052.052,0,0,0-.036-.018q-.018,0-.018.036V.666a.956.956,0,0,1-.306.711,1,1,0,0,1-.72.3ZM12.456-8.442a1.011,1.011,0,0,1,.792-.072.989.989,0,0,1,.612.5q.2.36.594,1.116a.966.966,0,0,1,.036.774.989.989,0,0,1-.522.576,1.011,1.011,0,0,1-.792.036,1.058,1.058,0,0,1-.594-.522q-.09-.162-.576-1.062a.925.925,0,0,1-.072-.756.987.987,0,0,1,.5-.594Zm4.284-.216q.594,1.134.612,1.17a.946.946,0,0,1,.063.774.956.956,0,0,1-.513.576l-.054.036a1.013,1.013,0,0,1-.783.045,1.022,1.022,0,0,1-.6-.513q-.09-.18-.288-.558t-.306-.558a.989.989,0,0,1-.081-.774.9.9,0,0,1,.495-.594l.054-.018a1.039,1.039,0,0,1,.792-.081A.957.957,0,0,1,16.74-8.658ZM2.25-10.62a.97.97,0,0,1-.711-.3.97.97,0,0,1-.3-.711v-.126a.985.985,0,0,1,.306-.72.985.985,0,0,1,.72-.306q6.156-.018,12.726-.306a1.01,1.01,0,0,1,.738.27.964.964,0,0,1,.342.7v.126a1.021,1.021,0,0,1-.261.747,1.1,1.1,0,0,1-.711.369,11.631,11.631,0,0,0-5.751,2,4.551,4.551,0,0,0-1.917,3.69A3.791,3.791,0,0,0,8.649-2.2a4.684,4.684,0,0,0,3.231,1.08,9.573,9.573,0,0,0,1.188-.072,1.048,1.048,0,0,1,.747.216.96.96,0,0,1,.387.666l.018.162a1.04,1.04,0,0,1-.2.765.941.941,0,0,1-.666.4,15.533,15.533,0,0,1-1.6.09A7.356,7.356,0,0,1,6.732-.522,5.584,5.584,0,0,1,4.86-4.95,5.713,5.713,0,0,1,5.877-8.217a7.909,7.909,0,0,1,2.907-2.511q.018,0,.018-.036H8.784Q5.994-10.656,2.25-10.62Z" transform="translate(-120.964 234.231)" fill="#fff"/><path d="M-36.651-7.277l-.247-.247a1.026,1.026,0,0,1-.295-.751,1.065,1.065,0,0,1,.333-.75,22.532,22.532,0,0,0,4.009-5.263,1.283,1.283,0,0,1,.655-.57,1.2,1.2,0,0,1,.865-.019l.247.095a.945.945,0,0,1,.58.542.887.887,0,0,1-.029.769,24.245,24.245,0,0,1-2.394,3.762q-.1.152.057.152h8.74a.082.082,0,0,0,.066-.038.068.068,0,0,0,.009-.076,25.152,25.152,0,0,1-2.413-3.8.887.887,0,0,1-.028-.769.945.945,0,0,1,.579-.542l.247-.095a1.2,1.2,0,0,1,.864.019,1.283,1.283,0,0,1,.656.57A22.532,22.532,0,0,0-20.14-9.025a1.065,1.065,0,0,1,.333.75,1.026,1.026,0,0,1-.295.751l-.247.247a1.032,1.032,0,0,1-.76.333,1.029,1.029,0,0,1-.779-.314l-.513-.513q-.019-.038-.066-.019t-.048.057v.7q0,2.052-.048,3.391a17.992,17.992,0,0,1-.218,2.347A7.617,7.617,0,0,1-23.17.247a1.9,1.9,0,0,1-.656.845,2.237,2.237,0,0,1-.9.4,7.332,7.332,0,0,1-1.264.086q-.817,0-2.109-.076a1.068,1.068,0,0,1-.769-.361,1.223,1.223,0,0,1-.333-.8V.285a.926.926,0,0,1,.3-.732.931.931,0,0,1,.76-.276q1.558.076,1.786.076A.89.89,0,0,0-25.6-.979a3.535,3.535,0,0,0,.408-1.482,28.429,28.429,0,0,0,.152-3.429V-7.258q0-.152-.171-.152H-29.26q-.171,0-.171.152A13.474,13.474,0,0,1-30.789-2.09a9.7,9.7,0,0,1-3.22,3.439,1.139,1.139,0,0,1-.836.171,1.231,1.231,0,0,1-.76-.437l-.228-.266a.844.844,0,0,1-.181-.741.963.963,0,0,1,.446-.646,7.566,7.566,0,0,0,2.556-2.66A10.45,10.45,0,0,0-31.9-7.258a.134.134,0,0,0-.152-.152H-34.9a.017.017,0,0,1-.019-.019l-.019.019a.215.215,0,0,1-.076.076.623.623,0,0,0-.1.076,1.029,1.029,0,0,1-.779.314A1.032,1.032,0,0,1-36.651-7.277ZM-16.53-9.633a1.056,1.056,0,0,1-.76-.314,1.009,1.009,0,0,1-.323-.75,1.04,1.04,0,0,1,.323-.76,1.04,1.04,0,0,1,.76-.323h2.166a.186.186,0,0,0,.19-.171q.285-1.254.513-2.6a1.2,1.2,0,0,1,.446-.713,1.114,1.114,0,0,1,.808-.237l.133.019a.949.949,0,0,1,.7.389.977.977,0,0,1,.19.789q-.247,1.444-.418,2.375-.038.152.133.152h2.537a5.691,5.691,0,0,1,1.073.114,6.838,6.838,0,0,1,.808.19,1.333,1.333,0,0,1,.513.437,1.568,1.568,0,0,1,.352.646q.057.285.152,1.017a10.467,10.467,0,0,1,.1,1.34v1.824A12.265,12.265,0,0,1-7.03-.836,2.7,2.7,0,0,1-9.443.893,10.974,10.974,0,0,1-12.426.342a1.043,1.043,0,0,1-.646-.532,1.109,1.109,0,0,1-.076-.855l.038-.114a1.013,1.013,0,0,1,.523-.618,1.067,1.067,0,0,1,.826-.066,7.2,7.2,0,0,0,1.824.38q.323,0,.589-.475A5.678,5.678,0,0,0-8.882-3.62a18.644,18.644,0,0,0,.2-2.973,9.191,9.191,0,0,0-.2-2.66q-.2-.38-1.434-.38h-1.824a.18.18,0,0,0-.19.152A71.685,71.685,0,0,1-15.314.038a1.072,1.072,0,0,1-.579.618,1.07,1.07,0,0,1-.826.028l-.133-.038A.911.911,0,0,1-17.442.1a1.1,1.1,0,0,1-.019-.827,76.946,76.946,0,0,0,2.717-8.759q.038-.152-.114-.152ZM-3.04-4.1q-1.007-3.629-2.432-7.41a.954.954,0,0,1,.038-.789.979.979,0,0,1,.608-.522l.247-.076a1.119,1.119,0,0,1,.855.076,1.1,1.1,0,0,1,.57.646q1.311,3.42,2.432,7.524a1.013,1.013,0,0,1-.114.807.983.983,0,0,1-.665.485l-.228.038a1.086,1.086,0,0,1-.817-.133A1.053,1.053,0,0,1-3.04-4.1Zm13.053,3a2.92,2.92,0,0,0,.266-1.045,1.028,1.028,0,0,0-.456-.9,3.059,3.059,0,0,0-1.634-.313,2.768,2.768,0,0,0-1.453.313.9.9,0,0,0-.5.769q0,1.33,3.23,1.33H9.8A.232.232,0,0,0,10.013-1.1ZM3.705-5.434a.969.969,0,0,1-.75.038,1,1,0,0,1-.561-.494,1.011,1.011,0,0,1-.076-.77,1,1,0,0,1,.475-.618l8.018-4.845.019-.019-.019-.019H4.294a1.018,1.018,0,0,1-.731-.3.993.993,0,0,1-.314-.741.993.993,0,0,1,.314-.741,1.018,1.018,0,0,1,.731-.3h9.975a1.088,1.088,0,0,1,.769.313,1,1,0,0,1,.332.751,1.665,1.665,0,0,1-.931,1.6l-5.3,2.945v.019h.038a11.971,11.971,0,0,1,2.3-.247A6.461,6.461,0,0,1,15.59-7.752a3.857,3.857,0,0,1,1.4,3.192A4.912,4.912,0,0,1,15.029-.39,9.115,9.115,0,0,1,9.462,1.083,8.242,8.242,0,0,1,5.225.219a2.765,2.765,0,0,1-1.406-2.5A2.548,2.548,0,0,1,5.016-4.4a5.556,5.556,0,0,1,3.306-.864,5.32,5.32,0,0,1,3.135.722,2.487,2.487,0,0,1,.969,2.128,4.855,4.855,0,0,1-.095.855.065.065,0,0,0,.028.086.085.085,0,0,0,.085.009,2.9,2.9,0,0,0,1.881-2.869A2.28,2.28,0,0,0,13.4-6.308a5.088,5.088,0,0,0-2.936-.665A16.125,16.125,0,0,0,3.705-5.434ZM28.386-4.18a1.078,1.078,0,0,1-.779-.313,1.1,1.1,0,0,1-.342-.769l-.285-7.524a1,1,0,0,1,.285-.76.979.979,0,0,1,.741-.323h1.026a.979.979,0,0,1,.741.323,1,1,0,0,1,.285.76l-.285,7.524a1.1,1.1,0,0,1-.342.769,1.078,1.078,0,0,1-.779.313Zm.456,1.52a1.009,1.009,0,0,1,.75.323,1.056,1.056,0,0,1,.314.76v.494a1.056,1.056,0,0,1-.314.76,1.009,1.009,0,0,1-.75.323H28.2a1.009,1.009,0,0,1-.75-.323,1.056,1.056,0,0,1-.313-.76v-.494a1.056,1.056,0,0,1,.313-.76,1.009,1.009,0,0,1,.75-.323Z" transform="translate(-140.964 258.231)" fill="#fff"/><g transform="translate(-117.976 172.353) rotate(-9)"><g transform="translate(0 64)"><path d="M38.028,73.979a1.614,1.614,0,0,0-1.451-.223l-7.553,2.519v-.988a1.613,1.613,0,0,0-1.612-1.612H24.9a6.383,6.383,0,0,0,.9-3.225,6.422,6.422,0,0,0-11.287-4.22A6.415,6.415,0,0,0,4.121,73.675H1.612A1.613,1.613,0,0,0,0,75.287V91.412a1.613,1.613,0,0,0,1.612,1.613h25.8a1.613,1.613,0,0,0,1.612-1.612v-.987l7.553,2.517a1.628,1.628,0,0,0,.51.082A1.615,1.615,0,0,0,38.7,91.412V75.287A1.608,1.608,0,0,0,38.028,73.979ZM9.675,67.225A3.225,3.225,0,1,1,6.45,70.45,3.228,3.228,0,0,1,9.675,67.225ZM6.45,81.737a1.613,1.613,0,0,1,1.612-1.612h6.45a1.612,1.612,0,1,1,0,3.225H8.062A1.613,1.613,0,0,1,6.45,81.737Zm14.512,6.45h-6.45a1.612,1.612,0,0,1,0-3.225h6.45a1.612,1.612,0,0,1,0,3.225ZM19.349,73.675a3.225,3.225,0,1,1,3.225-3.225A3.228,3.228,0,0,1,19.349,73.675Zm16.125,15.5-6.45-2.149V79.675l6.45-2.151Z" transform="translate(0 -64)" fill="#454d4c" stroke="#fff" stroke-width="1"/></g></g></g></svg>