<svg xmlns="http://www.w3.org/2000/svg" xmlns:xlink="http://www.w3.org/1999/xlink" width="97" height="149" viewBox="0 0 97 149"><defs><clipPath id="a"><rect width="97" height="149" transform="translate(784 2225)" fill="#dcdcdc"/></clipPath><clipPath id="b"><rect width="140.308" height="111.023" fill="none"/></clipPath></defs><g transform="translate(-784 -2225)"><rect width="97" height="149" transform="translate(784 2225)" fill="#dcdcdc" opacity="0"/><g clip-path="url(#a)"><g transform="translate(749.692 2248.695)"><g clip-path="url(#b)"><path d="M130.4,123.189l-.161-7.135h-.971q.084,3.553.168,7.107h-1.231q-.089-3.553-.177-7.107h-1.155q.093,3.553.186,7.107h-1.049c0,.01,0,.019,0,.029Z" transform="translate(-79.637 -73.343)" fill="#e7e6e2"/><path d="M198.273,123.189v-.029h-1.231q.012-3.553.023-7.107h-1.155q-.008,3.553-.014,7.107h-1.231q0-3.553,0-7.107h-1.108q0,3.567,0,7.135Z" transform="translate(-122.327 -73.343)" fill="#e7e6e2"/><path d="M61.551,141.632h0q.124,2.335.248,4.671-.124-2.335-.248-4.671" transform="translate(-38.899 -89.508)" fill="#e7e6e2"/><path d="M61.392,73.78h10.45l.521-.02v.02h9.927q.148,5.412.3,10.824h4.429q-.123-5.412-.245-10.824H97.221l.52-.006v.006h9.927l.006,10.824h4.75q.03-6.6.06-13.2H57.825q-.083-1.555-.165-3.112h0q.433,8.156.865,16.312h3.4q-.267-5.412-.535-10.824" transform="translate(-36.44 -43.159)" fill="#e7e6e2"/><path d="M61.22,123.189h3.371v-.029h-1.1q-.179-3.553-.36-7.107H61.976q.184,3.553.368,7.107H61.218q.028.524.056,1.049h0q-.027-.51-.054-1.02" transform="translate(-38.688 -73.343)" fill="#e7e6e2"/><path d="M248.552,102.62q.035-1.68.072-3.36h27.443q.34-6.669.68-13.339-1.405,1.791-2.8,3.583-.815,1.047-1.627,2.093l-.105.136-.166.046-1.5.421q-.311,3.015-.622,6.03l-1.037-.106q.288-2.81.58-5.62l-3.071.863-.066-.232q-.008.208-.016.417l-.02.5H253.076l.014-.535q.152-5.733.305-11.466l.013-.508h13.384l-.021.542-.405,10.206,5.232-1.471,1.174-1.511q-1.573-1.03-3.153-2.059l.569-.874q1.618,1.054,3.227,2.108,1.7-2.186,3.422-4.372.188-3.683.376-7.366h-28.11q-.277,12.936-.553,25.873" transform="translate(-157.079 -48.502)" fill="#e7e6e2"/><path d="M247.189,164.352l.013-.626q-.289,13.512-.578,27.025a6.707,6.707,0,0,1,.7-.042,6.56,6.56,0,0,1,1.065.086.259.259,0,0,1,.217.263q-.009.4-.018.809h3.692q.353-12.7.706-25.4h14.683q-.334,7.62-.668,15.239h6.443l.908-17.792c-.007.146-.015.291-.022.437Z" transform="translate(-155.861 -103.471)" fill="#e7e6e2"/><path d="M300.724,99.026l-.569.874q1.58,1.03,3.153,2.059l-1.174,1.511-5.233,1.471q-.016.421-.033.843l.065.232,3.071-.863q-.29,2.81-.58,5.62l1.037.106q.31-3.015.622-6.03l1.5-.421.166-.046.105-.136q.812-1.047,1.627-2.093,1.395-1.791,2.8-3.583.046-.9.092-1.808-1.719,2.186-3.422,4.372-1.61-1.054-3.228-2.108" transform="translate(-187.613 -61.151)" fill="#c8c5bd"/><path d="M297.046,121.906" transform="translate(-187.726 -77.042)" fill="#c8c5bd"/><path d="M219.16,141.493a1.062,1.062,0,0,1,.124-.443,1.214,1.214,0,0,1,.288-.375c.288-.242.582-.482.881-.718a.7.7,0,0,0,.165-.209.559.559,0,0,0,.071-.222q-.023-1.112-.046-2.22a.256.256,0,0,1-.168-.06.26.26,0,0,1-.088-.2q.01-.483.02-.967a.26.26,0,0,1,.218-.251c.126-.02.254-.033.382-.047q.289-13.512.578-27.025.018-.841.036-1.681c0-.008,0-.017,0-.026l.095-4.431q.277-12.936.553-25.873H206.287q-.03,6.6-.06,13.2h.084q0,.633-.006,1.266h-.084q-.017,3.553-.032,7.107h0v.029q-.022,4.854-.044,9.707,0,.764-.007,1.529,0,.4,0,.8h0q-.023,5.158-.047,10.315h1.706q-.028,4.276-.056,8.551h7l-.175,12.311h4.6v-.072Z" transform="translate(-130.242 -48.502)" fill="#bbab94"/><path d="M84.038,117.93H82.884l.072,1.627h1.152q-.035-.814-.07-1.627" transform="translate(-52.381 -74.529)" fill="#947864"/><path d="M90.541,117.93H89.387l.067,1.627h1.152q-.033-.814-.066-1.627" transform="translate(-56.491 -74.529)" fill="#947864"/><path d="M77.534,117.93H76.38l.076,1.627h1.152Z" transform="translate(-48.271 -74.529)" fill="#947864"/><path d="M116.554,117.93H115.4l.051,1.627H116.6Z" transform="translate(-72.93 -74.529)" fill="#947864"/><path d="M116.778,125.193h-1.15l.051,1.628h1.149q-.025-.814-.049-1.628" transform="translate(-73.074 -79.119)" fill="#947864"/><path d="M77.73,83.225l.521-.02H67.8q.267,5.412.535,10.823h9.808q-.208-5.4-.414-10.8m-8.742,1.02h7.794q.02.523.042,1.046H69.038q-.025-.523-.05-1.046m.129,2.673h7.772l.042,1.046H69.167q-.025-.523-.05-1.046m.129,2.674H77l.042,1.046H69.3q-.025-.523-.05-1.046m.179,3.719q-.025-.523-.05-1.046H77.1l.042,1.046Z" transform="translate(-42.849 -52.584)" fill="#947864"/><path d="M97.614,83.205q.208,5.412.415,10.823h9.807l-.3-10.823Zm1.065,1.04h7.794l.03,1.046H98.717l-.039-1.046m.1,2.673h7.772q.015.523.03,1.046H98.815q-.019-.523-.038-1.046m.1,2.674h7.75l.03,1.046H98.913q-.019-.523-.038-1.046m.137,3.719q-.019-.523-.038-1.046H106.7l.03,1.046Z" transform="translate(-61.69 -52.584)" fill="#947864"/><path d="M77.87,125.193H76.719l.076,1.628h1.149l-.074-1.628" transform="translate(-48.485 -79.119)" fill="#947864"/><path d="M79.446,116.054h-.081l.277,7.107H78.411l-.043-1.069H77.221l.044,1.069H76.034q-.023-.535-.046-1.069H74.842q.023.535.047,1.069H73.658q-.024-.535-.049-1.069H72.462q.025.535.05,1.069H71.281q-.026-.535-.052-1.069h-.165q-.025-.523-.05-1.046h.165l-.078-1.628h-.165q-.025-.523-.05-1.046h.166l-.078-1.628h-.166l-.033-.69h-.989q.174,3.553.35,7.107H70v.029H79.72l-.274-7.135" transform="translate(-44.103 -73.343)" fill="#947864"/><path d="M103.548,117.93h-1.154q.03.814.059,1.627h1.152q-.029-.814-.057-1.627" transform="translate(-64.711 -74.529)" fill="#947864"/><path d="M108.862,123.189c0-.01,0-.019,0-.029h-.182q-.1-3.553-.2-7.107h-.9l.02.69h-.254q.023.814.047,1.628h.254q.014.523.03,1.046h-.254q.024.814.047,1.628h.253l.029,1.046H107.5l.031,1.069H106.3l-.032-1.069h-1.148l.034,1.069h-1.231l-.035-1.069h-1.147l.036,1.069h-1.231l-.038-1.069h-1.147q.019.534.039,1.069H99.172q-.134-3.553-.268-7.107h-.029l.274,7.135Z" transform="translate(-62.486 -73.343)" fill="#947864"/><path d="M90.839,125.193h-1.15q.034.814.068,1.628H90.9q-.033-.814-.065-1.628" transform="translate(-56.681 -79.119)" fill="#947864"/><path d="M84.354,125.193H83.2l.072,1.628h1.149q-.035-.814-.07-1.628" transform="translate(-52.583 -79.119)" fill="#947864"/><path d="M110.05,117.93H108.9q.028.814.055,1.627H110.1l-.053-1.627" transform="translate(-68.82 -74.529)" fill="#947864"/><path d="M103.808,125.193h-1.15q.03.814.059,1.628h1.149l-.057-1.628" transform="translate(-64.877 -79.119)" fill="#947864"/><path d="M110.293,125.193h-1.15q.028.814.055,1.628h1.149q-.027-.814-.053-1.628" transform="translate(-68.976 -79.119)" fill="#947864"/><path d="M95.822,83.151l-.521.02-.521.02q.207,5.4.414,10.8h1.044q-.208-5.412-.415-10.823v-.02" transform="translate(-59.898 -52.55)" fill="#765f50"/><path d="M97.355,123.189l-.274-7.135H96.037l.274,7.135Z" transform="translate(-60.693 -73.343)" fill="#765f50"/><path d="M78.819,86.032H71.025q.025.523.05,1.046h7.786q-.02-.523-.042-1.046" transform="translate(-44.886 -54.37)" fill="#765f50"/><path d="M79.147,93.3H71.375q.025.523.05,1.046h7.763L79.147,93.3" transform="translate(-45.107 -58.961)" fill="#765f50"/><path d="M79.474,100.56h-7.75l.051,1.046h7.741q-.02-.523-.042-1.046" transform="translate(-45.328 -63.552)" fill="#765f50"/><path d="M72.075,107.824q.025.523.05,1.046h7.719q-.021-.523-.042-1.046Z" transform="translate(-45.55 -68.142)" fill="#765f50"/><path d="M90.464,116.054H89.309c.009.23.019.46.028.69h1.154q-.014-.345-.028-.69" transform="translate(-56.441 -73.343)" fill="#765f50"/><path d="M83.955,116.054H82.8q.015.345.031.69h1.154l-.03-.69" transform="translate(-52.328 -73.343)" fill="#765f50"/><path d="M77.448,116.054H76.293q.016.345.032.69h1.154q-.015-.345-.031-.69" transform="translate(-48.215 -73.343)" fill="#765f50"/><path d="M72.671,116.745l-.033-.69h-.166q.017.345.033.69Z" transform="translate(-45.801 -73.344)" fill="#765f50"/><path d="M72.825,123.4h.165q-.025-.523-.05-1.046h-.166q.025.523.05,1.046" transform="translate(-45.992 -77.324)" fill="#765f50"/><path d="M77.739,122.352H76.587l.049,1.046h1.151l-.047-1.046" transform="translate(-48.401 -77.324)" fill="#765f50"/><path d="M90.722,122.352H89.57q.022.523.043,1.046h1.151q-.021-.523-.042-1.046" transform="translate(-56.606 -77.324)" fill="#765f50"/><path d="M84.231,122.352H83.079l.046,1.046h1.15q-.023-.523-.045-1.046" transform="translate(-52.504 -77.324)" fill="#765f50"/><path d="M78.075,129.616H76.926l.049,1.046h1.147Z" transform="translate(-48.615 -81.914)" fill="#765f50"/><path d="M84.548,129.616H83.4l.046,1.046h1.147Z" transform="translate(-52.706 -81.914)" fill="#765f50"/><path d="M73.175,130.662h.165q-.025-.523-.05-1.046h-.165q.025.523.05,1.046" transform="translate(-46.213 -81.914)" fill="#765f50"/><path d="M91.021,129.616H89.872q.022.523.044,1.046h1.147q-.021-.523-.042-1.046" transform="translate(-56.797 -81.914)" fill="#765f50"/><path d="M108.3,86.032h-7.794q.019.523.038,1.046h7.786l-.03-1.046" transform="translate(-63.518 -54.37)" fill="#765f50"/><path d="M108.546,93.3h-7.772q.019.523.038,1.046h7.763l-.03-1.046" transform="translate(-63.687 -58.961)" fill="#765f50"/><path d="M108.791,100.56h-7.75q.019.523.038,1.046h7.741l-.03-1.046" transform="translate(-63.856 -63.552)" fill="#765f50"/><path d="M101.307,107.824q.019.523.038,1.046h7.72q-.015-.523-.03-1.046Z" transform="translate(-64.024 -68.142)" fill="#765f50"/><path d="M109.987,116.054h-1.155q.012.345.024.69h1.154q-.012-.345-.023-.69" transform="translate(-68.779 -73.343)" fill="#765f50"/><path d="M103.48,116.054h-1.155q.013.345.025.69H103.5l-.024-.69" transform="translate(-64.667 -73.343)" fill="#765f50"/><path d="M116.5,116.054h-1.155q.011.345.022.69h1.154q-.01-.345-.021-.69" transform="translate(-72.893 -73.343)" fill="#765f50"/><path d="M122.1,116.054h-.254l.02.69h.254l-.02-.69" transform="translate(-77.006 -73.343)" fill="#765f50"/><path d="M122.284,122.352h-.254q.015.523.03,1.046h.254l-.03-1.046" transform="translate(-77.12 -77.324)" fill="#765f50"/><path d="M103.707,122.352h-1.152q.019.523.038,1.046h1.15q-.018-.523-.037-1.046" transform="translate(-64.812 -77.324)" fill="#765f50"/><path d="M110.2,122.352h-1.152q.018.523.035,1.046h1.151l-.034-1.046" transform="translate(-68.915 -77.324)" fill="#765f50"/><path d="M116.69,122.352h-1.152q.016.523.033,1.046h1.15q-.015-.523-.031-1.046" transform="translate(-73.017 -77.324)" fill="#765f50"/><path d="M110.441,129.616h-1.149l.036,1.046h1.147Z" transform="translate(-69.07 -81.914)" fill="#765f50"/><path d="M116.914,129.616h-1.149q.017.523.033,1.046h1.147q-.015-.523-.031-1.046" transform="translate(-73.161 -81.914)" fill="#765f50"/><path d="M103.968,129.616h-1.149q.019.523.038,1.046H104q-.018-.523-.037-1.046" transform="translate(-64.979 -81.914)" fill="#765f50"/><path d="M122.492,129.616h-.253q.015.523.03,1.046h.253Z" transform="translate(-77.252 -81.914)" fill="#765f50"/><path d="M181.623,125.193h-1.15q0,.814.009,1.628h1.149q0-.814-.007-1.628" transform="translate(-114.055 -79.119)" fill="#947864"/><path d="M149.069,117.93h-1.154l.03,1.627H149.1q-.014-.814-.028-1.627" transform="translate(-93.479 -74.529)" fill="#947864"/><path d="M155.573,117.93h-1.154l.026,1.627H155.6q-.012-.814-.024-1.627" transform="translate(-97.589 -74.529)" fill="#947864"/><path d="M142.716,125.193h-1.15l.034,1.628h1.149q-.016-.814-.032-1.628" transform="translate(-89.466 -79.119)" fill="#947864"/><path d="M142.566,117.93h-1.154l.034,1.627H142.6q-.016-.814-.032-1.627" transform="translate(-89.369 -74.529)" fill="#947864"/><path d="M175.138,125.193h-1.15q.007.814.013,1.628h1.149q-.005-.814-.011-1.628" transform="translate(-109.956 -79.119)" fill="#947864"/><path d="M149.2,125.193h-1.15q.015.814.03,1.628h1.149q-.014-.814-.028-1.628" transform="translate(-93.564 -79.119)" fill="#947864"/><path d="M175.082,117.93h-1.154q.007.814.014,1.627h1.152Z" transform="translate(-109.918 -74.529)" fill="#947864"/><path d="M181.586,117.93h-1.154l.009,1.627h1.152q0-.814-.007-1.627" transform="translate(-114.029 -74.529)" fill="#947864"/><path d="M155.685,125.193h-1.151q.013.814.026,1.628h1.149q-.012-.814-.024-1.628" transform="translate(-97.662 -79.119)" fill="#947864"/><path d="M176.889,123.189q0-3.568,0-7.135h-.046q0,3.553,0,7.107h-1.231q0-.535,0-1.069h-1.147l0,1.069h-1.231q0-.535,0-1.069h-1.147q0,.534.006,1.069h-1.231q0-.535-.007-1.069H169.7l.008,1.069h-1.231q-.006-.535-.011-1.069h-.312q0-.523-.01-1.046h.313q-.008-.814-.016-1.628h-.314q0-.523-.01-1.046h.314l-.016-1.628h-.314q0-.345-.007-.69h-.84q.039,3.553.077,7.107h-.162c0,.01,0,.019,0,.029Z" transform="translate(-105.65 -73.343)" fill="#947864"/><path d="M166.571,83.205q.062,5.412.125,10.823H176.5q0-5.412-.006-10.823Zm1.037,1.04H175.4v1.046h-7.785Zm.027,2.673h7.772q0,.523,0,1.046h-7.763q-.006-.523-.01-1.046m.026,2.674h7.75q0,.523,0,1.046h-7.741q-.005-.523-.01-1.046m.037,3.719q-.005-.523-.01-1.046h7.728q0,.522,0,1.046Z" transform="translate(-105.269 -52.584)" fill="#947864"/><path d="M147.38,123.189c0-.01,0-.019,0-.029h-.026q-.043-3.553-.086-7.107h-.94q0,.345.009.69h-.215q.011.814.022,1.628h.214q.007.523.014,1.046h-.214q.011.814.022,1.628h.213q.007.523.014,1.046h-.213q.007.534.014,1.069h-1.231q-.008-.535-.016-1.069h-1.148q.009.534.017,1.069H142.6q-.009-.535-.019-1.069h-1.147q.01.534.02,1.069h-1.231l-.021-1.069h-1.148q.012.534.022,1.069h-1.231l-.159-7.107H137.5l.161,7.135Z" transform="translate(-86.899 -73.343)" fill="#947864"/><path d="M188.089,117.93h-1.154q0,.814,0,1.627h1.152q0-.814,0-1.627" transform="translate(-118.139 -74.529)" fill="#947864"/><path d="M146.689,83.211l.523-.006h-10.45q.122,5.412.244,10.823h9.809Q146.751,88.619,146.689,83.211Zm-8.77,1.034h7.794q.007.523.014,1.046h-7.786q-.011-.523-.022-1.046m.057,2.673h7.772q.007.523.014,1.046H138q-.011-.523-.022-1.046m.057,2.674h7.75q.007.523.014,1.046h-7.741q-.011-.523-.022-1.046m.079,3.719q-.011-.523-.022-1.046h7.728q.007.522.014,1.046Z" transform="translate(-86.43 -52.584)" fill="#947864"/><path d="M188.108,125.193h-1.15q0,.814,0,1.628h1.149q0-.814,0-1.628" transform="translate(-118.153 -79.119)" fill="#947864"/><path d="M164.78,83.189l-.52.006-.523.006.125,10.817h1.043q-.062-5.412-.125-10.823Z" transform="translate(-103.478 -52.574)" fill="#765f50"/><path d="M165.382,135.393v-.029h-1.043c0,.01,0,.019,0,.029Z" transform="translate(-103.858 -85.547)" fill="#765f50"/><path d="M147.7,86.032h-7.794l.022,1.046h7.786q-.007-.523-.014-1.046" transform="translate(-88.418 -54.37)" fill="#765f50"/><path d="M147.834,93.3h-7.772q.011.523.022,1.046h7.763q-.007-.522-.014-1.046" transform="translate(-88.516 -58.961)" fill="#765f50"/><path d="M147.967,100.56h-7.75q.012.523.022,1.046h7.742q-.007-.523-.014-1.046" transform="translate(-88.614 -63.552)" fill="#765f50"/><path d="M140.373,107.824q.011.523.022,1.046h7.719q-.007-.523-.014-1.046Z" transform="translate(-88.712 -68.142)" fill="#765f50"/><path d="M161.112,116.054H160.9q0,.345.009.69h.214q0-.345-.009-.69" transform="translate(-101.683 -73.343)" fill="#765f50"/><path d="M149.035,116.054H147.88q.007.345.013.69h1.154q-.006-.345-.012-.69" transform="translate(-93.457 -73.343)" fill="#765f50"/><path d="M155.544,116.054h-1.155l.011.69h1.153c0-.23-.007-.46-.01-.69" transform="translate(-97.57 -73.343)" fill="#765f50"/><path d="M142.528,116.054h-1.155l.014.69h1.154q-.007-.345-.014-.69" transform="translate(-89.344 -73.343)" fill="#765f50"/><path d="M149.149,122.352H148q.01.523.019,1.046h1.151q-.009-.523-.018-1.046" transform="translate(-93.531 -77.324)" fill="#765f50"/><path d="M142.657,122.352h-1.152q.011.523.022,1.046h1.15q-.01-.523-.021-1.046" transform="translate(-89.428 -77.324)" fill="#765f50"/><path d="M161.2,122.352h-.214L161,123.4h.214q-.007-.523-.014-1.046" transform="translate(-101.736 -77.324)" fill="#765f50"/><path d="M155.641,122.352h-1.152l.017,1.046h1.151q-.008-.523-.015-1.046" transform="translate(-97.633 -77.324)" fill="#765f50"/><path d="M149.281,129.616h-1.149l.019,1.046H149.3q-.009-.523-.018-1.046" transform="translate(-93.616 -81.914)" fill="#765f50"/><path d="M155.754,129.616H154.6l.017,1.046h1.147l-.015-1.046" transform="translate(-97.707 -81.914)" fill="#765f50"/><path d="M161.291,129.616h-.213l.014,1.046h.213q-.007-.523-.014-1.046" transform="translate(-101.798 -81.914)" fill="#765f50"/><path d="M142.807,129.616h-1.149l.022,1.046h1.147l-.021-1.046" transform="translate(-89.525 -81.914)" fill="#765f50"/><path d="M177.184,86.032H169.39l.01,1.046h7.785Z" transform="translate(-107.051 -54.37)" fill="#765f50"/><path d="M177.234,93.3h-7.772q0,.523.01,1.046h7.763q0-.522,0-1.046" transform="translate(-107.096 -58.961)" fill="#765f50"/><path d="M177.284,100.56h-7.75q0,.523.01,1.046h7.741q0-.523,0-1.046" transform="translate(-107.142 -63.552)" fill="#765f50"/><path d="M169.606,107.824q.005.523.01,1.046h7.719q0-.523,0-1.046Z" transform="translate(-107.187 -68.142)" fill="#765f50"/><path d="M188.084,116.054h-1.155l0,.69h1.154v-.69" transform="translate(-118.135 -73.343)" fill="#765f50"/><path d="M181.576,116.054h-1.155q0,.345,0,.69h1.154q0-.345,0-.69" transform="translate(-114.022 -73.343)" fill="#765f50"/><path d="M175.067,116.054h-1.155q0,.345.006.69h1.154q0-.345,0-.69" transform="translate(-109.908 -73.343)" fill="#765f50"/><path d="M170.008,116.745l-.007-.69h-.315q0,.345.007.69Z" transform="translate(-107.238 -73.344)" fill="#765f50"/><path d="M175.117,122.352h-1.152q0,.523.008,1.046h1.15q0-.523-.007-1.046" transform="translate(-109.942 -77.324)" fill="#765f50"/><path d="M181.609,122.352h-1.152q0,.523.006,1.046h1.151q0-.523,0-1.046" transform="translate(-114.045 -77.324)" fill="#765f50"/><path d="M188.1,122.352h-1.152q0,.523,0,1.046h1.15q0-.523,0-1.046" transform="translate(-118.147 -77.324)" fill="#765f50"/><path d="M169.76,123.4h.314l-.01-1.046h-.314q0,.523.01,1.046" transform="translate(-107.278 -77.324)" fill="#765f50"/><path d="M169.832,130.662h.312q0-.523-.01-1.046h-.313q0,.523.01,1.046" transform="translate(-107.324 -81.914)" fill="#765f50"/><path d="M175.174,129.616h-1.149q0,.523.009,1.046h1.147q0-.523-.007-1.046" transform="translate(-109.98 -81.914)" fill="#765f50"/><path d="M188.12,129.616h-1.149l0,1.046h1.148l0-1.046" transform="translate(-118.161 -81.914)" fill="#765f50"/><path d="M181.646,129.616H180.5l.006,1.046h1.147q0-.523,0-1.046" transform="translate(-114.07 -81.914)" fill="#765f50"/><path d="M73.214,194.362H70.9q-.227-5.177-.454-10.354H63.783l-.561-10.576-.315-5.758,52.74.178q-.023,5.158-.047,10.315h-6.948q-.009-2.744-.017-5.486h-9.1q.093,7.072.185,14.144h4.752c0,.065,0,.13,0,.2q-2.576.954-5.143,1.909l.07,5.433H95.975" transform="translate(-39.756 -105.966)" fill="#c9c6b5"/><path d="M62.621,161.818l.294,5.538c.6-.547,1.215-1.094,1.823-1.641q-.039-.782-.079-1.564H62.745q-.062-1.166-.124-2.333" transform="translate(-39.575 -102.265)" fill="#c9c6b5"/><path d="M72.645,168.294l.152-.136h-.176c.008.045.017.091.024.136" transform="translate(-45.895 -106.272)" fill="#c9c6b5"/><path d="M83.157,244.857H169.8q-.76-2.334-1.518-4.667H81.2q.979,2.334,1.96,4.667" transform="translate(-51.315 -151.795)" fill="#89877b"/><path d="M61.344,137.721q.124,2.336.248,4.671.073,1.379.146,2.758h1.919q-.039-.76-.077-1.52l1.13-.1c.1.541.193,1.082.29,1.622h3.222c.478-.424.952-.847,1.433-1.27l.839.617c-.216.218-.427.435-.643.653h44.742q.023-4.854.044-9.707H61.223l.054,1.02" transform="translate(-38.692 -85.597)" fill="#4086c8"/><path d="M248.388,141.279q-.047,2.215-.1,4.431H278.12q.209-3.9.42-7.791H248.46q-.036,1.68-.072,3.36" transform="translate(-156.915 -87.162)" fill="#4086c8"/><path d="M165.249,184.112q.072,6.029.144,12.058h3.752q-.023-3.168-.046-6.335l3.216-1.24q-.009-2.242-.019-4.483Z" transform="translate(-104.434 -116.355)" fill="#6dbdd9"/><path d="M163.619,194.379q-.072-6.029-.144-12.058h7.048l.019,4.483.1-.039h.913q-.008-2.744-.017-5.486h-9.1l.186,14.144h4.752q0-.522-.008-1.043Z" transform="translate(-102.659 -114.563)" fill="#fff"/><path d="M263.755,103.037H274.9q.207-5.211.414-10.422H264.032q-.139,5.211-.277,10.422" transform="translate(-166.687 -58.531)" fill="#6dbdd9"/><path d="M274.541,90.323l.021-.542H261.178l-.013.508q-.153,5.733-.305,11.465l-.014.535h13.221l.02-.5q.009-.209.017-.417.017-.421.034-.843.2-5.1.405-10.206m-1.478,10.923H261.916q.139-5.211.277-10.422h11.283q-.207,5.211-.414,10.422" transform="translate(-164.848 -56.74)" fill="#fff"/><path d="M250.056,71.4h28.11l.159-3.112h-28.2q-.033,1.556-.067,3.112" transform="translate(-158.03 -43.159)" fill="#c9c9c6"/><path d="M57.661,68.292q.082,1.556.165,3.112h54.66q.007-1.556.014-3.112Z" transform="translate(-36.44 -43.159)" fill="#c9c9c6"/><path d="M222.68,68.292H206.646q-.008,1.556-.014,3.112h15.981q.034-1.556.067-3.112" transform="translate(-130.587 -43.159)" fill="#a39580"/><path d="M267.994,198.767q.426-12.206.852-24.411h1.728q-.442,11.994-.882,23.987l.8-.2h-.668q.195-5.391.39-10.782l1.439-.4q.243-6.3.485-12.606h1.727l-.49,12.129.248-.069h2.87q.334-7.62.668-15.239H262.482q-.353,12.7-.706,25.4-.065,2.334-.13,4.667h5.606q.039-1.155.078-2.31l.665-.166m-1.53.131h-1.681q.383-12.271.767-24.542h1.728Z" transform="translate(-165.354 -108.18)" fill="#b2ab86"/><path d="M62.745,164.151h1.913q-.059-1.166-.118-2.333H62.621q.062,1.167.124,2.333" transform="translate(-39.575 -102.265)" fill="#aeac9d"/><path d="M71.9,164.151h.176c.87-.778,1.75-1.556,2.629-2.333H71.486q.21,1.166.418,2.333" transform="translate(-45.177 -102.265)" fill="#aeac9d"/><path d="M125.459,164.151h0q0-.4,0-.8,0-.764.007-1.529H80.728q-1.155,1.166-2.3,2.333h47.027Z" transform="translate(-49.567 -102.265)" fill="#aeac9d"/><path d="M321.912,161.421q.011-.219.022-.437.048-.948.1-1.9-.059,1.166-.119,2.333" transform="translate(-203.441 -100.54)" fill="#e0e0e1"/><path d="M248.172,160.795c0,.209-.009.418-.013.627H275.3q.059-1.167.119-2.333H248.209c0,.008,0,.017,0,.026q-.018.84-.036,1.68" transform="translate(-156.831 -100.54)" fill="#c9c9c6"/><path d="M289.333,179.815q-.242,6.3-.485,12.606l1.722-.477q.246-6.064.49-12.129Z" transform="translate(-182.545 -113.639)" fill="#fff"/><path d="M279.747,179.815l-.851,24.411,1.7-.424q.441-11.994.882-23.987Z" transform="translate(-176.256 -113.639)" fill="#fff"/><path d="M270.169,204.357h1.681l.814-24.542h-1.728q-.383,12.271-.767,24.542" transform="translate(-170.741 -113.639)" fill="#fff"/><path d="M61.031,113.881h1.154q.18,3.553.36,7.107h1.231q-.175-3.553-.35-7.107h1.155l.033.69.078,1.628q.025.523.05,1.046.039.814.078,1.628.025.523.05,1.046t.051,1.069h1.231q-.025-.535-.05-1.069l-.049-1.046-.076-1.628q-.024-.523-.049-1.046l-.076-1.628q-.016-.345-.032-.69h1.155q.016.345.032.69l.074,1.628q.024.523.048,1.046.037.814.074,1.628l.047,1.046.049,1.069H68.53q-.024-.535-.047-1.069l-.046-1.046q-.036-.814-.072-1.628l-.046-1.046-.072-1.628q-.015-.345-.031-.69h1.155q.015.345.029.69.035.814.07,1.628.023.523.045,1.046.035.814.07,1.628l.044,1.046q.023.535.046,1.069h1.231q-.022-.535-.045-1.069t-.043-1.046q-.033-.814-.068-1.628-.022-.523-.043-1.046-.034-.814-.068-1.628-.014-.345-.029-.69h1.155q.014.345.028.69.033.814.066,1.628.02.523.042,1.046.033.814.066,1.628.021.523.042,1.046l.043,1.069h1.231q-.138-3.553-.277-7.107h1.154q.134,3.553.268,7.107H75.66q-.019-.535-.038-1.069t-.039-1.046q-.03-.814-.059-1.628c-.013-.349-.025-.7-.039-1.046q-.029-.814-.059-1.628-.013-.345-.025-.69h1.155c.008.23.016.46.024.69q.029.814.058,1.628.018.523.037,1.046.028.814.057,1.628.018.523.037,1.046l.038,1.069h1.23L78,119.918l-.035-1.046q-.027-.814-.055-1.628-.018-.523-.035-1.046-.028-.814-.056-1.628-.012-.345-.024-.69h1.155c.008.23.015.46.023.69q.026.814.053,1.628.017.523.035,1.046.026.814.053,1.628l.034,1.046.035,1.069h1.231l-.034-1.069q-.016-.523-.033-1.046-.025-.814-.051-1.628-.017-.523-.033-1.046-.025-.814-.051-1.628c-.007-.23-.014-.46-.022-.69h1.155q.01.345.021.69l.049,1.628q.015.523.032,1.046.025.814.049,1.628.016.523.031,1.046t.033,1.069h1.23q-.015-.535-.031-1.069t-.03-1.046q-.023-.814-.047-1.628-.015-.523-.03-1.046-.023-.814-.046-1.628c-.007-.23-.013-.46-.02-.69h1.155q.1,3.553.2,7.107h1.231q-.093-3.553-.186-7.107h1.155q.088,3.553.177,7.107h1.231q-.084-3.553-.168-7.107h1.155q.08,3.553.159,7.107h1.231q-.011-.535-.022-1.069l-.022-1.046-.034-1.628-.022-1.046-.034-1.628q-.007-.345-.015-.69h1.155q.007.345.014.69.016.814.032,1.628.011.523.021,1.046.016.814.032,1.628l.021,1.046.021,1.069H92.3q-.01-.535-.02-1.069l-.02-1.046q-.015-.814-.03-1.628-.01-.523-.019-1.046l-.03-1.628q-.007-.345-.013-.69h1.155c0,.23.008.46.012.69q.014.814.028,1.628.009.523.018,1.046.014.814.028,1.628.009.523.018,1.046t.018,1.069h1.231q-.008-.535-.017-1.069t-.017-1.046q-.013-.814-.026-1.628-.009-.523-.017-1.046l-.026-1.628-.011-.69h1.155q0,.345.01.69l.024,1.628q.007.523.015,1.046.012.814.024,1.628.007.523.015,1.046t.016,1.069h1.231q-.007-.535-.014-1.069l-.014-1.046q-.011-.814-.022-1.628-.007-.523-.014-1.046-.011-.814-.022-1.628,0-.345-.01-.69h1.155q.042,3.553.086,7.107h1.231q-.038-3.553-.077-7.107h1.155l.007.69.015,1.628q0,.523.01,1.046.008.814.015,1.628l.01,1.046q0,.535.01,1.069h1.231l-.008-1.069-.009-1.046q-.007-.814-.014-1.628,0-.523-.008-1.046-.007-.814-.014-1.628,0-.345-.006-.69H102.9q0,.345,0,.69l.011,1.628q0,.523.007,1.046.006.814.011,1.628,0,.523.007,1.046t.008,1.069h1.231q0-.535-.006-1.069l-.006-1.046q0-.814-.009-1.628,0-.523-.006-1.046l-.009-1.628q0-.345,0-.69H105.3l0,.69q0,.814.007,1.628,0,.523,0,1.046,0,.814.007,1.628l0,1.046q0,.535,0,1.069h1.231l0-1.069q0-.523,0-1.046,0-.814,0-1.628,0-.523,0-1.046,0-.814-.005-1.628l0-.69h1.155q0,.345,0,.69,0,.814,0,1.628,0,.523,0,1.046,0,.814,0,1.628,0,.523,0,1.046l0,1.069h1.231q0-3.553,0-7.107h1.155q0,3.553,0,7.107h1.231q.007-3.553.014-7.107h1.154q-.011,3.553-.023,7.107h1.231q.017-3.553.032-7.107h.084q0-.633.006-1.266H59.723q.029.537.057,1.075.194,3.649.388,7.3H61.4q-.184-3.553-.368-7.107" transform="translate(-37.744 -71.17)" fill="#bdbebf"/><path d="M163.811,21.869c-.582-1.023-1.159-2.047-1.744-3.07H70.88c-.712,1.023-1.416,2.047-2.123,3.07h95.054Z" transform="translate(-43.453 -11.881)" fill="#4086c8"/><path d="M159.544,29.977H63.176q-1.058,1.535-2.108,3.069H161.287c-.577-1.023-1.163-2.046-1.743-3.069" transform="translate(-38.594 -18.945)" fill="#4086c8"/><path d="M164.585,7.625H78.649c-.718,1.023-1.439,2.046-2.152,3.069h89.859q-.88-1.535-1.771-3.069" transform="translate(-48.344 -4.819)" fill="#4086c8"/><path d="M167.918,0H85.568c-.415.588-.823,1.175-1.236,1.763h84.6c-.34-.588-.675-1.175-1.017-1.763" transform="translate(-53.296)" fill="#4086c8"/><path d="M157.056,41.151H55.54q-1.048,1.535-2.094,3.07H158.78c-.571-1.023-1.149-2.047-1.724-3.07" transform="translate(-33.777 -26.006)" fill="#4086c8"/><path d="M101.838,58.2h52.779c-.323-.588-.651-1.175-.976-1.763H41.975c.233-.348.468-.7.7-1.043H153.063c-.566-1.023-1.129-2.046-1.7-3.069H44.74q-1.987,2.937-3.95,5.875h61.048Z" transform="translate(-25.778 -33.07)" fill="#4086c8"/><path d="M44.01,61.71H155.676l-.577-1.043H44.711c-.234.348-.468.7-.7,1.043" transform="translate(-27.813 -38.34)" fill="#32699c"/><path d="M157.565,49.493H52.231l-.707,1.043H158.148l-.583-1.043" transform="translate(-32.562 -31.278)" fill="#32699c"/><path d="M160.651,39.36c-.2-.348-.39-.7-.586-1.043H59.846c-.238.347-.474.7-.711,1.043Z" transform="translate(-37.372 -24.215)" fill="#32699c"/><path d="M163.164,28.185h.007l-.594-1.043H67.517c-.24.348-.482.7-.721,1.043h96.368Z" transform="translate(-42.214 -17.153)" fill="#32699c"/><path d="M165.712,17.008l-.6-1.043H75.251l-.726,1.043h91.187Z" transform="translate(-47.098 -10.09)" fill="#32699c"/><path d="M168.283,5.833c-.2-.348-.4-.7-.6-1.043h-84.6l-.732,1.043h85.939Z" transform="translate(-52.039 -3.027)" fill="#32699c"/><path d="M381.246,181.3h0Z" transform="translate(-240.938 -114.575)" fill="#bbab94"/><path d="M70.313,271.995a1.584,1.584,0,0,0-.028-.239,1.668,1.668,0,0,1-.043.241Z" transform="translate(-44.391 -171.743)" fill="#466784"/><rect width="38" height="25.089" transform="translate(48.118 63.299)" fill="#c9c6b5"/><path d="M220.548,284.933q.385-2.795.775-5.591-1.607,2.672-3.206,5.344a9.386,9.386,0,0,0,2.431.247" transform="translate(-137.845 -176.538)" fill="#d4d5d5"/><path d="M233.571,282.814a12.149,12.149,0,0,0,2.37-1.411q-2.109-1.891-4.229-3.781c.618,1.731,1.245,3.462,1.859,5.193" transform="translate(-146.437 -175.45)" fill="#d4d5d5"/><path d="M227.293,284.51a11.6,11.6,0,0,0,2.625-.616c-.6-1.705-1.222-3.41-1.831-5.115q-.4,2.865-.794,5.73" transform="translate(-143.644 -176.183)" fill="#d4d5d5"/><path d="M205.582,280.063a5.808,5.808,0,0,0,1.107,1.627q2.433-2.026,4.883-4.052-3,1.212-5.99,2.425" transform="translate(-129.923 -175.461)" fill="#d4d5d5"/><path d="M247.938,277.814c.1-.184.2-.369.283-.558h-2.148l1.865.558" transform="translate(-155.512 -175.219)" fill="#d4d5d5"/><path d="M235.086,277.257q1.857,1.658,3.71,3.317a10.657,10.657,0,0,0,1.7-1.939c-1.531-.459-3.073-.919-4.606-1.378Z" transform="translate(-148.569 -175.22)" fill="#d4d5d5"/><path d="M204.166,277.257a6.105,6.105,0,0,0,.2,1.694q2.088-.847,4.184-1.694Z" transform="translate(-129.028 -175.22)" fill="#d4d5d5"/><path d="M210.508,283.241a7.107,7.107,0,0,0,1.882,1.028q1.54-2.579,3.094-5.157-2.492,2.065-4.976,4.129" transform="translate(-133.036 -176.392)" fill="#d4d5d5"/><path d="M192.169,215.251l-.138,4.123q-.312,9.349-.625,18.7h2.973c.005-.109,0-.216.01-.326.449-5.076,5.691-9.676,11.712-10.274s10.475,3.033,9.944,8.109a8.963,8.963,0,0,1-.655,2.492h9.02q.616-11.41,1.231-22.82Z" transform="translate(-120.964 -136.034)" fill="#b4834e"/><path d="M242.986,267a6.071,6.071,0,0,0-.17-2q-3.03,1.218-6.048,2.437l6.218-.433" transform="translate(-149.632 -167.469)" fill="#b4834e"/><path d="M210.393,275.232l-6.216.433c-.006.105-.008.209-.01.312h4.386l1.84-.745" transform="translate(-129.029 -173.94)" fill="#b4834e"/><path d="M216.9,255.126a12.091,12.091,0,0,0-2.379,1.412q2.12,1.877,4.229,3.754c-.618-1.722-1.227-3.444-1.849-5.166" transform="translate(-135.57 -161.234)" fill="#b4834e"/><path d="M209.645,260.591a10.474,10.474,0,0,0-1.694,1.935c1.953.583,3.895,1.166,5.844,1.749q-2.071-1.842-4.149-3.684" transform="translate(-131.42 -164.687)" fill="#b4834e"/><path d="M236.02,262.253q3-1.211,6.009-2.422a5.72,5.72,0,0,0-1.1-1.624q-2.465,2.023-4.913,4.046" transform="translate(-149.159 -163.181)" fill="#b4834e"/><path d="M239.626,274.56h2.148a7.788,7.788,0,0,0,.516-1.57l-6.418.447,3.755,1.124" transform="translate(-149.065 -172.523)" fill="#b4834e"/><path d="M225.981,252.5a11.786,11.786,0,0,0-2.659.618c.624,1.727,1.235,3.455,1.855,5.182q.4-2.9.8-5.8" transform="translate(-141.134 -159.577)" fill="#b4834e"/><path d="M205.29,268.082a7.87,7.87,0,0,0-.777,2.126l6.4-.445c-1.875-.56-3.741-1.121-5.619-1.681" transform="translate(-129.247 -169.422)" fill="#b4834e"/><path d="M238.834,254.758a7.1,7.1,0,0,0-1.892-1.029q-1.567,2.58-3.123,5.16,2.5-2.066,5.016-4.131" transform="translate(-147.768 -160.351)" fill="#b4834e"/><path d="M231.786,252.318q-.39,2.8-.775,5.592,1.614-2.673,3.236-5.346a9.557,9.557,0,0,0-2.461-.247" transform="translate(-145.994 -159.457)" fill="#b4834e"/><path d="M233.98,276.268l.407.364h.809l-1.216-.364" transform="translate(-147.87 -174.595)" fill="#b4834e"/><path d="M226.186,207.584H199.131l-1.436.358-3.029.756-1.187.3h33.47q7.321-1.822,14.674-3.643h-9.362q-.015.273-.031.547l-6.043,1.685" transform="translate(-122.274 -129.778)" fill="#c99b69"/><path d="M281.079,231.815c2.284-.576,4.578-1.153,6.867-1.729l.736-12.66,5.929-2.284h1.758l.336-5.353q.139-2.218.279-4.437-7.353,1.822-14.674,3.643-.616,11.41-1.231,22.82" transform="translate(-177.635 -129.778)" fill="#9b6b39"/><path d="M206.792,178.376h27.055q.514-9.621,1.029-19.242H206.3q-.348,9.621-.7,19.242Z" transform="translate(-129.934 -100.569)" fill="#b4834e"/><path d="M213.574,154.554l-.442.123-3.075.852-2.567.711h28.579l6.113-1.686H213.574Z" transform="translate(-131.129 -97.675)" fill="#c99b69"/><path d="M282.351,175.481l6.043-1.685q.015-.274.031-.547.534-9.348,1.067-18.695l-6.113,1.686q-.515,9.621-1.029,19.242" transform="translate(-178.439 -97.675)" fill="#9b6b39"/><path d="M212.872,250.757c-5.437.54-10.175,4.7-10.585,9.285s3.607,7.869,8.979,7.329,10.117-4.7,10.592-9.286-3.548-7.869-8.986-7.328m6.016,2.086q-2.516,2.065-5.016,4.131,1.559-2.58,3.123-5.16a7.112,7.112,0,0,1,1.892,1.029m-5.274-1.546a9.555,9.555,0,0,1,2.461.247q-1.624,2.673-3.236,5.346.389-2.8.775-5.592m-1.007,9.081a1.561,1.561,0,0,1-2.139-.64,1.718,1.718,0,0,1,1.2-1.99,1.562,1.562,0,0,1,2.141.641,1.72,1.72,0,0,1-1.2,1.989m.061-9.014q-.4,2.9-.8,5.8c-.62-1.727-1.231-3.455-1.855-5.183a11.779,11.779,0,0,1,2.659-.618m-3.52.965c.622,1.722,1.232,3.444,1.849,5.166q-2.11-1.877-4.229-3.754a12.09,12.09,0,0,1,2.379-1.412m-3.1,2.011q2.082,1.842,4.15,3.684c-1.949-.583-3.891-1.166-5.844-1.749a10.473,10.473,0,0,1,1.694-1.935m-2.183,2.757c1.878.56,3.744,1.121,5.619,1.681l-6.4.445a7.866,7.866,0,0,1,.777-2.126m-.9,3.377c0-.1,0-.207.01-.312l6.216-.433-1.84.745-4.184,1.694a6.113,6.113,0,0,1-.2-1.694m.521,2.565q2.989-1.212,5.99-2.425-2.445,2.026-4.883,4.052a5.808,5.808,0,0,1-1.107-1.627m1.813,2.247q2.48-2.065,4.976-4.129-1.55,2.579-3.094,5.157a7.1,7.1,0,0,1-1.882-1.028m5.231,1.546a9.39,9.39,0,0,1-2.431-.247q1.6-2.672,3.206-5.344-.387,2.8-.775,5.591m.945-.067q.395-2.865.795-5.731c.608,1.705,1.226,3.41,1.831,5.115a11.6,11.6,0,0,1-2.625.615m3.486-.964c-.614-1.731-1.241-3.462-1.859-5.193q2.119,1.891,4.23,3.781a12.157,12.157,0,0,1-2.371,1.411m3.092-2.01q-1.849-1.658-3.71-3.317l-.407-.364,1.216.364c1.534.459,3.075.919,4.606,1.378a10.639,10.639,0,0,1-1.7,1.938m2.482-3.317c-.085.189-.184.374-.283.558l-1.865-.558-3.755-1.124,6.418-.447a7.82,7.82,0,0,1-.516,1.57m.645-2.509-6.218.433q3.021-1.219,6.048-2.437a6.081,6.081,0,0,1,.17,2m-6.493-.456q2.452-2.023,4.913-4.046a5.719,5.719,0,0,1,1.1,1.624q-3.011,1.211-6.009,2.422" transform="translate(-127.822 -158.436)" fill="#807878"/><path d="M211.189,248.343c-6.021.6-11.262,5.2-11.712,10.274-.01.11,0,.217-.01.326-.233,4.9,4.134,8.367,9.944,7.783,4.945-.5,9.4-3.771,11.066-7.783a8.946,8.946,0,0,0,.655-2.491c.532-5.076-3.923-8.706-9.944-8.109m8.9,8.213c-.475,4.587-5.222,8.745-10.592,9.285s-9.389-2.741-8.979-7.329,5.148-8.745,10.585-9.285,9.462,2.741,8.986,7.328" transform="translate(-126.053 -156.907)" fill="#3c3939"/><path d="M225.654,269.572a1.718,1.718,0,0,0-1.2,1.989,1.561,1.561,0,0,0,2.139.641,1.719,1.719,0,0,0,1.2-1.99,1.562,1.562,0,0,0-2.141-.64" transform="translate(-141.809 -170.26)" fill="#3a3736"/><path d="M300.186,238.159l-.736,12.66q-.084,1.444-.168,2.886h16.489q.532-7.773,1.064-15.546Z" transform="translate(-189.139 -150.511)" fill="#199bdc"/><path d="M301.739,234.238h16.648q2.972-1.142,5.953-2.284H307.668q-2.968,1.142-5.929,2.284" transform="translate(-190.692 -146.59)" fill="#70b7e7"/><path d="M344.086,249.784q2.945-1.142,5.9-2.284.56-7.773,1.119-15.546-2.98,1.142-5.952,2.284-.532,7.773-1.064,15.546" transform="translate(-217.454 -146.59)" fill="#008ed6"/><path d="M281.08,199.649v-.026a2.524,2.524,0,0,0-.261-1.047,2.745,2.745,0,0,0-.648-.888h0c-.662-.579-1.342-1.156-2.033-1.719h0a1.49,1.49,0,0,1-.358-.475,1.3,1.3,0,0,1-.149-.524q.174-2.682.346-5.354a.638.638,0,0,1-.112.008,16.653,16.653,0,0,0-2.357-.167,16.842,16.842,0,0,0-2.4.172.59.59,0,0,1-.1-.007q.056,2.653.111,5.311a1.322,1.322,0,0,1-.17.531,1.648,1.648,0,0,1-.395.5c-.714.563-1.418,1.139-2.106,1.718a2.9,2.9,0,0,0-.689.9,2.542,2.542,0,0,0-.3,1.06v.005l0,.167q-.038,2.867-.08,5.738h0c-.011.933-.026,1.868-.039,2.8q-.032,2.185-.061,4.373-.059,4.214-.119,8.436a13.394,13.394,0,0,1,1.371.1q.168-8.311.336-16.623a.623.623,0,0,1,.622-.609h.319a.621.621,0,0,1,.621.634q-.172,8.461-.344,16.921a4.615,4.615,0,0,1,1.725.853,1.611,1.611,0,0,1,.6,1.15h0l0,.028v.04h0q-.02.971-.042,1.943c.115,0,.229.013.344.013.171,0,.342-.013.513-.019a1.253,1.253,0,0,1-.178-.631v-.027q.134-5.977.267-11.954h0v-.007s0-.013,0-.019h0v-.019h0l0-.06c0-.01.008-.018.01-.029a1.284,1.284,0,0,1,.156-.493,1.732,1.732,0,0,1,.38-.446,3.528,3.528,0,0,1,1.083-.594,9.406,9.406,0,0,1,3.133-.482v0c.229,0,.439.024.66.036q.043-1.449.086-2.9.069-2.3.137-4.593.052-1.782.106-3.565l0-.14Zm-8.617,3.325a.623.623,0,0,1-.621.609h-.32a.621.621,0,0,1-.622-.634l.05-2.459a.622.622,0,0,1,.622-.609h.32a.622.622,0,0,1,.621.634l-.05,2.459" transform="translate(-170.102 -119.731)" fill="#3a657b"/><path d="M278,180.531q-.024,1.159-.048,2.314a.624.624,0,0,0,.209.479.617.617,0,0,0,.4.142.635.635,0,0,0,.1.007,16.793,16.793,0,0,1,4.759-.006.606.606,0,0,0,.112-.008.612.612,0,0,0,.377-.133.622.622,0,0,0,.22-.46c0-.127.006-.253.008-.38.015-.646.028-1.291.044-1.935a.62.62,0,0,0-.521-.629,15.859,15.859,0,0,0-2.547-.205,16.078,16.078,0,0,0-1.682.1c-.305.032-.611.063-.913.113a.62.62,0,0,0-.521.6" transform="translate(-175.656 -113.578)" fill="#5182c2"/><path d="M274.439,246.615q.172-8.46.344-16.921a.621.621,0,0,0-.622-.634h-.319a.623.623,0,0,0-.622.609q-.167,8.311-.336,16.623a10.689,10.689,0,0,1,1.208.222c.121.031.231.067.346.1" transform="translate(-172.457 -144.761)" fill="#fff"/><path d="M274.882,217.786h-.32a.623.623,0,0,0-.622.609q-.025,1.23-.049,2.459a.622.622,0,0,0,.622.634h.319a.624.624,0,0,0,.622-.609q.025-1.229.049-2.458a.621.621,0,0,0-.621-.634" transform="translate(-173.093 -137.636)" fill="#fff"/><path d="M294.342,254.429a3.555,3.555,0,0,1-1.083.594,9.4,9.4,0,0,1-3.13.483,11.4,11.4,0,0,1-1.285-.072,9,9,0,0,1-1.147-.2,4.207,4.207,0,0,1-1.733-.8,1.414,1.414,0,0,1-.531-1.054h0q-.134,5.977-.267,11.954v-.018h0a.619.619,0,0,1,1.237.037h0l.007.014.1.115a2.219,2.219,0,0,0,.673.362,7.95,7.95,0,0,0,2.651.4,8.8,8.8,0,0,0,2.3-.284,2.5,2.5,0,0,0,1.161-.575l.039-.06h0a.621.621,0,0,1,1.241.038q.157-5.989.313-11.979h0a1.444,1.444,0,0,1-.556,1.046m-.3,7.694a.624.624,0,0,1-.216.455,3.271,3.271,0,0,1-1.009.556,7.042,7.042,0,0,1-1.322.33,10.472,10.472,0,0,1-3.122,0,6.839,6.839,0,0,1-1.31-.331,3.12,3.12,0,0,1-.994-.563.621.621,0,0,1-.206-.477q.047-2.124.1-4.246A.622.622,0,0,1,287,257.4a1.946,1.946,0,0,0,.6.324,5.587,5.587,0,0,0,1.072.268,8.891,8.891,0,0,0,1.368.1,9.027,9.027,0,0,0,1.374-.1,5.806,5.806,0,0,0,1.088-.269,2.124,2.124,0,0,0,.629-.331.621.621,0,0,1,1.026.487q-.055,2.124-.11,4.246" transform="translate(-180.219 -160.128)" fill="#56a4d0"/><path d="M285.915,253.009c0,.01-.008.018-.01.029l0,.06h0c0-.031.01-.059.014-.089" transform="translate(-180.683 -159.896)" fill="#56a4d0"/><path d="M285.892,253.307v0Z" transform="translate(-180.677 -160.084)" fill="#56a4d0"/><path d="M285.169,285.814h0Z" transform="translate(-180.22 -180.628)" fill="#56a4d0"/><path d="M296.017,250.963c.072.021.146.032.216.057a1.2,1.2,0,0,1,.437.268.8.8,0,0,1,.156.258v0c.008.018.015.034.021.052a.517.517,0,0,1,.02.049.579.579,0,0,1,.019.152h0a.057.057,0,0,1,0,.013.736.736,0,0,1-.224.509,1.048,1.048,0,0,1-.261.184,2.148,2.148,0,0,1-.392.141c.311.03.633.052.972.052a8.865,8.865,0,0,0,2.319-.285,2.531,2.531,0,0,0,1.169-.576l.034-.053v0l-.1-.115a2.237,2.237,0,0,0-.677-.362,8.059,8.059,0,0,0-2.669-.4,10.07,10.07,0,0,0-1.039.056" transform="translate(-187.072 -158.567)" fill="#e4e4e5"/><path d="M289.428,253.079v-.02l0-.018h0a.034.034,0,0,1,0-.013l.014-.119.008,0c0-.008,0-.015,0-.022a.663.663,0,0,0-.144.131l-.033.052h0l.1.116c.017.015.053.034.074.05a.789.789,0,0,1-.028-.159Z" transform="translate(-182.82 -159.82)" fill="#e4e4e5"/><path d="M293.225,254.7h0v0Z" transform="translate(-185.312 -160.777)" fill="#e4e4e5"/><path d="M290.661,248.151v-.622a9.4,9.4,0,0,0-3.133.483,3.533,3.533,0,0,0-1.083.594,1.743,1.743,0,0,0-.38.447,1.285,1.285,0,0,0-.156.493c0,.03-.013.058-.014.089h0v.021h0v.026a1.414,1.414,0,0,0,.531,1.054,4.206,4.206,0,0,0,1.733.8,9.056,9.056,0,0,0,1.147.2,11.4,11.4,0,0,0,1.285.071,9.4,9.4,0,0,0,3.13-.482,3.551,3.551,0,0,0,1.082-.594,1.444,1.444,0,0,0,.556-1.046h0v-.032a1.411,1.411,0,0,0-.531-1.054,4.2,4.2,0,0,0-1.732-.8,9.833,9.833,0,0,0-1.772-.238c-.22-.013-.43-.037-.659-.037Zm2.669,1.023a2.231,2.231,0,0,1,.677.362l.1.115v0l-.034.053a2.522,2.522,0,0,1-1.169.576,8.882,8.882,0,0,1-2.319.284c-.339,0-.661-.021-.972-.051-.029.008-.058.024-.088.031a4.118,4.118,0,0,1-.937.134v-.326h0v.326a1.707,1.707,0,0,1-.6-.106,1.16,1.16,0,0,1-.524-.378.894.894,0,0,1-.146-.346c-.021-.016-.057-.035-.074-.05l-.1-.115v0l.033-.052a.649.649,0,0,1,.144-.13.914.914,0,0,1,.158-.365,1.1,1.1,0,0,1,.341-.286,1.643,1.643,0,0,1,.794-.192,4,4,0,0,1,1.013.171,10.069,10.069,0,0,1,1.039-.057,8.058,8.058,0,0,1,2.669.4" transform="translate(-180.676 -156.433)" fill="#acadae"/><path d="M292.661,252.128a.736.736,0,0,0,.224-.51.017.017,0,0,0,0-.008v0a.578.578,0,0,0-.019-.152.429.429,0,0,0-.02-.049.489.489,0,0,0-.021-.052v0a.807.807,0,0,0-.156-.258,1.206,1.206,0,0,0-.437-.268c-.07-.026-.144-.036-.216-.057A4.012,4.012,0,0,0,291,250.6a1.643,1.643,0,0,0-.794.192,1.106,1.106,0,0,0-.341.287.912.912,0,0,0-.158.365c0,.007,0,.014,0,.022l-.009,0-.013.112a.129.129,0,0,0,0,.021h0l0,.018v.02h0a.783.783,0,0,0,.028.159.906.906,0,0,0,.146.346,1.155,1.155,0,0,0,.524.378,1.7,1.7,0,0,0,.6.106v0a4.133,4.133,0,0,0,.937-.134c.03-.008.058-.023.088-.032a2.142,2.142,0,0,0,.392-.141,1.044,1.044,0,0,0,.261-.184" transform="translate(-183.07 -158.371)" fill="#4b4648"/><path d="M293.979,284.21a.621.621,0,0,0-.635.6h0l-.039.061a2.5,2.5,0,0,1-1.161.575,8.779,8.779,0,0,1-2.3.284,7.95,7.95,0,0,1-2.65-.4,2.219,2.219,0,0,1-.673-.363l-.1-.115-.007-.014h0a.619.619,0,0,0-1.237-.037h0v.045a1.254,1.254,0,0,0,.178.631,1.68,1.68,0,0,0,.35.422,4.172,4.172,0,0,0,1.725.8,10.087,10.087,0,0,0,2.419.276,9.3,9.3,0,0,0,3.115-.483,3.528,3.528,0,0,0,1.079-.594,1.442,1.442,0,0,0,.552-1.047.622.622,0,0,0-.605-.637m-8.812.59h0Z" transform="translate(-180.218 -179.614)" fill="#acadae"/><path d="M295,263.932a.622.622,0,0,0-.672.09,2.114,2.114,0,0,1-.629.332,5.833,5.833,0,0,1-1.088.269,8.988,8.988,0,0,1-1.374.1,8.854,8.854,0,0,1-1.368-.1,5.588,5.588,0,0,1-1.072-.268,1.947,1.947,0,0,1-.6-.324.622.622,0,0,0-1.037.449q-.048,2.123-.1,4.246a.62.62,0,0,0,.206.477,3.121,3.121,0,0,0,.994.564,6.868,6.868,0,0,0,1.31.331,10.463,10.463,0,0,0,3.122,0,7,7,0,0,0,1.322-.33,3.268,3.268,0,0,0,1.009-.556.625.625,0,0,0,.216-.456q.055-2.122.11-4.246a.623.623,0,0,0-.355-.577" transform="translate(-181.417 -166.761)" fill="#fff"/><path d="M244.515,261.049a5.8,5.8,0,0,1-1.529-2.3h0a6.126,6.126,0,0,1-.4-2.139,4.367,4.367,0,0,1,.441-1.992,2.679,2.679,0,0,1,1.386-1.309,2.428,2.428,0,0,1,.9-.17,3.376,3.376,0,0,1,2.2.935,5.786,5.786,0,0,1,1.532,2.306h0a6.153,6.153,0,0,1,.394,2.127,4.4,4.4,0,0,1-.442,2c-.028.055-.066.1-.1.158q.473-.084.985-.134l.017-.058.353-.166a.622.622,0,0,0,.269-.882l-.427-.712a7.351,7.351,0,0,0-.216-1.532l.215-.613a.621.621,0,0,0-.285-.75l-.541-.3a7.127,7.127,0,0,0-.837-1.285l-.144-.829a.622.622,0,0,0-.8-.485l-.351.114a4.19,4.19,0,0,0-.993-.466l-.44-.638a.621.621,0,0,0-1.078.1l-.2.44a2.834,2.834,0,0,0-.39.112,2.8,2.8,0,0,0-.354.183l-.426-.187a.622.622,0,0,0-.867.64q.045.387.089.774c-.03.051-.066.1-.093.152a4.582,4.582,0,0,0-.333.9l-.353.166a.622.622,0,0,0-.268.884l.43.712a7.337,7.337,0,0,0,.221,1.534l-.212.611a.622.622,0,0,0,.286.749l.541.3a7.167,7.167,0,0,0,.837,1.285q.072.415.145.829a.621.621,0,0,0,.8.484l.348-.113a4.335,4.335,0,0,0,.689.366,1.578,1.578,0,0,1,.483-.964,3.713,3.713,0,0,1-1.485-.828" transform="translate(-152.521 -159.04)" fill="#878788"/><path d="M252.65,282.252v0Z" transform="translate(-159.668 -178.377)" fill="#ab6354"/><path d="M252.648,282.322h0v0Z" transform="translate(-159.668 -178.421)" fill="#ab6354"/><path d="M263.217,283.566a4.193,4.193,0,0,1-1.283.708,11.32,11.32,0,0,1-3.79.587,12.34,12.34,0,0,1-2.953-.336,5.035,5.035,0,0,1-2.072-.954,1.6,1.6,0,0,1-.6-1.186h0v-.006h0q-.038,2.3-.077,4.592v0l.013-.116a.621.621,0,0,1,.734-.483.613.613,0,0,1,.484.614h.012V287c0,.019.008.1.181.258a2.86,2.86,0,0,0,.876.475,9.921,9.921,0,0,0,3.319.506,11.214,11.214,0,0,0,2.666-.3,4.051,4.051,0,0,0,1.584-.691,1.072,1.072,0,0,0,.108-.107c.081-.094.089-.15.088-.165h0a.622.622,0,1,1,1.243.027q.029-1.338.057-2.676.021-.972.042-1.943a1.631,1.631,0,0,1-.627,1.186" transform="translate(-159.534 -178.456)" fill="#ab6354"/><path d="M257.085,280.947a9.972,9.972,0,0,0,3.327.506,11.253,11.253,0,0,0,2.674-.3,4.068,4.068,0,0,0,1.588-.691c.176-.154.2-.243.2-.268v-.005c0-.019-.008-.1-.181-.257a2.888,2.888,0,0,0-.876-.474,9.967,9.967,0,0,0-3.328-.5,11.29,11.29,0,0,0-2.677.3,4.069,4.069,0,0,0-1.587.691c-.181.16-.2.25-.194.269v0c0,.019.009.1.182.257a2.88,2.88,0,0,0,.878.475" transform="translate(-161.802 -176.291)" fill="#5c5b5c"/><path d="M247.643,265.51a1.6,1.6,0,0,0,.6,1.186,5.034,5.034,0,0,0,2.072.954,12.333,12.333,0,0,0,2.953.336,11.318,11.318,0,0,0,3.79-.587,4.182,4.182,0,0,0,1.283-.708,1.631,1.631,0,0,0,.627-1.185h0v-.04l0-.028h0a1.612,1.612,0,0,0-.6-1.15,4.62,4.62,0,0,0-1.725-.852c-.114-.034-.225-.07-.346-.1a10.762,10.762,0,0,0-1.208-.221,13.361,13.361,0,0,0-1.371-.1c-.125,0-.248-.011-.376-.011v0c-.456,0-.892.028-1.317.069q-.512.049-.985.134c.031-.053.069-.1.1-.159a4.393,4.393,0,0,0,.442-2,6.147,6.147,0,0,0-.394-2.127h0a5.789,5.789,0,0,0-1.531-2.306,3.377,3.377,0,0,0-2.2-.935,2.42,2.42,0,0,0-.9.17,2.68,2.68,0,0,0-1.386,1.308,4.374,4.374,0,0,0-.441,1.992,6.136,6.136,0,0,0,.4,2.139h0a5.8,5.8,0,0,0,1.53,2.3,3.713,3.713,0,0,0,1.486.828,1.578,1.578,0,0,0-.484.963c0,.016-.007.031-.007.047h0l0,.029v.026h0v.028Zm1.243-.007c0-.019.012-.109.194-.269a4.058,4.058,0,0,1,1.587-.691,11.267,11.267,0,0,1,2.677-.3,9.968,9.968,0,0,1,3.328.5,2.888,2.888,0,0,1,.876.474c.173.156.182.238.181.257v.005c0,.025-.02.114-.2.268a4.068,4.068,0,0,1-1.588.691,11.226,11.226,0,0,1-2.674.3,9.973,9.973,0,0,1-3.327-.506,2.878,2.878,0,0,1-.878-.475c-.173-.156-.183-.238-.182-.257Z" transform="translate(-154.662 -161.581)" fill="#acadae"/><path d="M263.137,293.21a.622.622,0,0,0-.635.608h0c0,.015-.007.071-.088.165a1.091,1.091,0,0,1-.108.107,4.058,4.058,0,0,1-1.584.691,11.213,11.213,0,0,1-2.667.3,9.918,9.918,0,0,1-3.318-.505,2.87,2.87,0,0,1-.876-.475c-.173-.156-.182-.239-.181-.258v-.007h-.012a.613.613,0,0,0-.484-.614.621.621,0,0,0-.734.483l-.013.116v.022h0a1.6,1.6,0,0,0,.6,1.19,5.027,5.027,0,0,0,2.068.954,12.287,12.287,0,0,0,2.947.336,11.265,11.265,0,0,0,3.782-.587,4.174,4.174,0,0,0,1.281-.708,1.632,1.632,0,0,0,.626-1.185.622.622,0,0,0-.608-.636" transform="translate(-159.534 -185.302)" fill="#905347"/><path d="M316.58,286.773v0h0Z" transform="translate(-200.071 -181.231)" fill="#98b5c8"/><path d="M322.184,240.535c0-.141.008-.282.013-.424a.6.6,0,0,1-.081.016h-2.352a.61.61,0,0,1-.117-.024c0,.141-.008.282-.012.422a3.512,3.512,0,0,0-1.407.925,4.144,4.144,0,0,0-1.038,2.693v0l0,.116c0,.147.009.288.022.425h0q.06,1.2.058,2.4a94.5,94.5,0,0,1-.7,10.2l-.008.121a1.2,1.2,0,0,0,.224.687,1.163,1.163,0,0,0,.6.441,10.14,10.14,0,0,0,3,.453,10.4,10.4,0,0,0,3.026-.452h0a1.244,1.244,0,0,0,.855-1.157v-.016h0v-.038c-.109-2.146-.2-4.331-.2-6.531a56.171,56.171,0,0,1,.3-6.071h0a4.971,4.971,0,0,0,.05-.534v-.006l0-.141a3.912,3.912,0,0,0-.937-2.62,3.285,3.285,0,0,0-1.3-.881m-3.454,17.414c-.106.014-.215.03-.324.048a.622.622,0,0,1-.723-.655c.216-3.186.3-5.249.3-8,0-.666-.005-1.373-.014-2.147a.622.622,0,0,1,.725-.62c.11.018.216.035.321.048a.62.62,0,0,1,.541.6c.05,1.622.079,2.779.079,3.8,0,1.913-.105,3.334-.367,6.359a.624.624,0,0,1-.538.563m2.411.115a.623.623,0,0,1-.443.177h-.573a.621.621,0,0,1-.629-.654c.309-6,.269-4.634.309-10.635a.621.621,0,0,1,.629-.618l.287,0,.289,0a.622.622,0,0,1,.629.654c-.309,6-.27,4.635-.312,10.636a.62.62,0,0,1-.186.44m2-2.561c0,.587,0,1.206.01,1.874a.621.621,0,0,1-.725.619c-.106-.018-.215-.034-.32-.048a.622.622,0,0,1-.539-.6c-.046-1.587-.074-2.729-.074-3.735,0-1.946.105-3.367.379-6.427a.622.622,0,0,1,.538-.561c.106-.014.217-.03.326-.049a.621.621,0,0,1,.722.657c-.232,3.29-.316,5.381-.316,8.267" transform="translate(-200.059 -151.74)" fill="#98b5c8"/><path d="M321.48,258.332a.62.62,0,0,0-.541-.6c-.105-.014-.211-.03-.321-.048a.621.621,0,0,0-.725.62c.009.773.014,1.48.014,2.146,0,2.747-.085,4.81-.3,8a.622.622,0,0,0,.723.655c.11-.018.218-.035.324-.049a.624.624,0,0,0,.538-.563c.262-3.024.368-4.446.367-6.359,0-1.022-.029-2.18-.079-3.8" transform="translate(-201.983 -162.846)" fill="#cee4f1"/><path d="M326.5,257.227a.625.625,0,0,0-.456-.191l-.289,0-.288,0a.622.622,0,0,0-.629.618c-.039,6,0,4.634-.309,10.635a.621.621,0,0,0,.629.654l.287,0,.286,0a.621.621,0,0,0,.63-.618c.042-6,0-4.634.312-10.635a.627.627,0,0,0-.173-.463" transform="translate(-205.096 -162.441)" fill="#c0e2ee"/><path d="M331.207,257.685c-.109.018-.22.035-.326.049a.622.622,0,0,0-.538.561c-.274,3.06-.379,4.48-.379,6.427,0,1.007.028,2.148.074,3.735a.623.623,0,0,0,.539.6c.106.014.214.031.32.048a.621.621,0,0,0,.726-.619c-.007-.668-.01-1.287-.01-1.874,0-2.886.084-4.977.316-8.267a.622.622,0,0,0-.722-.657" transform="translate(-208.53 -162.846)" fill="#cee4f1"/><path d="M326.547,234.7a.6.6,0,0,0,.081-.016.615.615,0,0,0,.54-.587q.029-.972.058-1.944a.621.621,0,0,0-.621-.64h-2.354a.622.622,0,0,0-.621.6q-.028.972-.056,1.944a.62.62,0,0,0,.176.451.611.611,0,0,0,.329.165.638.638,0,0,0,.117.024Zm-2.659-.734a.308.308,0,0,0,.017-.573.309.309,0,0,0,.017-.573.308.308,0,0,0,.017-.573.311.311,0,0,1,.311-.311H326.6a1.188,1.188,0,0,0,.294.884.309.309,0,0,0-.017.573.308.308,0,0,0-.017.573.311.311,0,0,1-.311.311H324.2a.311.311,0,0,1-.311-.311" transform="translate(-204.491 -146.308)" fill="#7b91a4"/><path d="M327.09,235a1.189,1.189,0,0,1,.328-.884.309.309,0,0,1,.017-.573.308.308,0,0,1,.017-.573.311.311,0,0,0-.311-.311h-2.353a1.194,1.194,0,0,1-.327.884.309.309,0,0,1-.016.573.308.308,0,0,1-.016.573.311.311,0,0,0,.311.311Z" transform="translate(-205.031 -147.034)" fill="#597c94"/><path d="M61.624,249.638H55.867q-.393-7.282-.786-14.565H76.444q.044,1.316.088,2.631.2,5.967.4,11.934h-1.9" transform="translate(-34.81 -148.561)" fill="#b4834e"/><path d="M39.484,230.179H56.753l.916.229,1.934.483.758.189H39q-4.673-1.163-9.365-2.326h5.975l.02.35,3.857,1.076" transform="translate(-18.727 -144.567)" fill="#c99b69"/><path d="M35.4,244.541c1.461.368,2.925.735,4.383,1.1q-.393-7.282-.786-14.565-4.672-1.163-9.366-2.326l.178,2.832L30.023,235l.523,7.932Z" transform="translate(-18.726 -144.567)" fill="#9b6b39"/><path d="M72.544,211.537H55.276q-.328-6.141-.657-12.282H72.86l.444,12.282Z" transform="translate(-34.518 -125.925)" fill="#b4834e"/><path d="M48.575,209.689l-3.857-1.076-.02-.35q-.341-5.966-.681-11.932l3.9,1.076q.328,6.141.657,12.282" transform="translate(-27.818 -124.077)" fill="#9b6b39"/><path d="M62.322,196.313l.282.078,1.963.544,1.638.454H47.964l-3.9-1.076h18.26Z" transform="translate(-27.846 -124.065)" fill="#c99b69"/><path d="M66.821,191.162q.016.294.033.589h4.083q-.015-.295-.031-.589Z" transform="translate(-42.229 -120.81)" fill="#474645"/><path d="M60.963,196.273h7.648L68.6,196.1l-.046-.956H57.322l.057.956c0,.059.007.118.011.178Z" transform="translate(-36.226 -123.323)" fill="#474645"/><path d="M50.769,167.994q.014.242.027.485.027.489.055.978H54.93l-.045-.875H50.8q-.017-.294-.033-.588H63.338l-.073-1.661L62.746,154.5H41.422q.432,6.745.864,13.491h8.483Zm-7.394-1.2q-.348-5.542-.7-11.085H61.619l.5,11.085Z" transform="translate(-26.178 -97.642)" fill="#5f5e5e"/><path d="M63.776,157.772H44.835q.349,5.542.7,11.085H64.275q-.249-5.542-.5-11.085" transform="translate(-28.335 -99.708)" fill="#58aad1"/><path d="M116.02,208.9h0Z" transform="translate(-73.322 -132.017)" fill="#3799d4"/><path d="M21.5,284.714a6.513,6.513,0,0,1-1.824.771,20.484,20.484,0,0,1-5.311.621,23.9,23.9,0,0,1-3.738-.279,11.552,11.552,0,0,1-2.858-.781,3.413,3.413,0,0,1-1.326-.96,1.842,1.842,0,0,1-.354-.787,1.525,1.525,0,0,0-.014.159l0,.064h0v.022h0a1.8,1.8,0,0,0,.382,1,3.411,3.411,0,0,0,1.325.961,11.552,11.552,0,0,0,2.857.781,23.947,23.947,0,0,0,3.738.279,20.5,20.5,0,0,0,5.309-.62,6.528,6.528,0,0,0,1.823-.772,2.657,2.657,0,0,0,.688-.637,1.763,1.763,0,0,0,.351-1.038v-.046l-.071,0a1.83,1.83,0,0,1-.292.624,2.657,2.657,0,0,1-.689.637" transform="translate(-3.842 -179.038)" fill="#466784"/><path d="M21.832,279.025v.013a1.608,1.608,0,0,1-.369,1.008,2.46,2.46,0,0,1-.66.556,6.323,6.323,0,0,1-1.67.64,20.474,20.474,0,0,1-4.826.511,24.574,24.574,0,0,1-3.006-.177,14.022,14.022,0,0,1-2.423-.495,5.361,5.361,0,0,1-1.225-.536,2.461,2.461,0,0,1-.58-.49,1.633,1.633,0,0,1-.4-.971h0v-.017h0v-.057A1.589,1.589,0,0,1,7,278.054a2.567,2.567,0,0,0-.619.583,1.761,1.761,0,0,0-.351,1.038v.065a1.561,1.561,0,0,0,.03.234,1.837,1.837,0,0,0,.354.787,3.409,3.409,0,0,0,1.326.96,11.547,11.547,0,0,0,2.858.781,23.9,23.9,0,0,0,3.738.279,20.485,20.485,0,0,0,5.31-.621,6.513,6.513,0,0,0,1.824-.771,2.647,2.647,0,0,0,.689-.638,1.823,1.823,0,0,0,.292-.623,1.668,1.668,0,0,0,.043-.241,1.5,1.5,0,0,0,.016-.173v-.045a1.785,1.785,0,0,0-.377-1.029,2.648,2.648,0,0,0-.605-.565c-.021-.014-.046-.024-.067-.038a1.607,1.607,0,0,1,.367.958Z" transform="translate(-3.813 -175.712)" fill="#7299b3"/><path d="M16.1,276.69q-.381.038-.764.038t-.766-.038a1.083,1.083,0,0,1-.977-1.041q-.036-1.09-.073-2.179a17.676,17.676,0,0,0-3.049.448,6.315,6.315,0,0,0-1.669.639,2.462,2.462,0,0,0-.66.555c-.013.016-.024.036-.037.053a1.587,1.587,0,0,0-.333.955v.058h0v.018h0a1.633,1.633,0,0,0,.4.971,2.452,2.452,0,0,0,.58.49,5.341,5.341,0,0,0,1.225.536,14.022,14.022,0,0,0,2.423.495,24.508,24.508,0,0,0,3.006.177,20.469,20.469,0,0,0,4.825-.511,6.318,6.318,0,0,0,1.67-.641,2.458,2.458,0,0,0,.66-.556,1.61,1.61,0,0,0,.369-1.008v-.043a1.608,1.608,0,0,0-.367-.958c-.01-.012-.018-.026-.027-.038a2.449,2.449,0,0,0-.58-.492,5.323,5.323,0,0,0-1.224-.537,14.026,14.026,0,0,0-2.425-.495c-.414-.052-.851-.091-1.3-.12q.035,1.056.07,2.112a1.081,1.081,0,0,1-.977,1.113M14.385,277.8h0a.559.559,0,0,1-.155.377.553.553,0,0,1-.4.167.567.567,0,0,1-.564-.537h0v0h0V277.8h0v-.022a.554.554,0,0,1,.555-.556.57.57,0,0,1,.567.547v.037Zm1.578-.012a.558.558,0,0,1-.555.556.566.566,0,0,1-.562-.531h0v-.021h0v-.017a.556.556,0,0,1,.555-.559.571.571,0,0,1,.567.549v.022Zm1.6-.023v.021a.562.562,0,0,1-.159.392.553.553,0,0,1-.4.166.568.568,0,0,1-.563-.531h0v0h0v0h0V277.8h0v-.022a.556.556,0,0,1,.555-.558.57.57,0,0,1,.567.549" transform="translate(-4.909 -172.824)" fill="#b5d6e6"/><path d="M25.482,262.081c-.255.025-.511.037-.767.037s-.513-.013-.768-.037a1.084,1.084,0,0,1-.978-1.041q.077,2.266.153,4.531.036,1.09.073,2.179a1.084,1.084,0,0,0,.977,1.041c.255.025.511.038.766.038s.51-.013.764-.038a1.081,1.081,0,0,0,.977-1.113q-.035-1.056-.07-2.112-.075-2.3-.151-4.6h0a1.082,1.082,0,0,1-.977,1.113" transform="translate(-14.516 -164.926)" fill="#7299b3"/><path d="M22.865,258.058q.019.568.038,1.137a1.084,1.084,0,0,0,.978,1.041c.255.025.512.037.768.037s.512-.013.767-.037a1.082,1.082,0,0,0,.977-1.113h0l-.035-1.075a9.617,9.617,0,0,1-1.777.171,9.8,9.8,0,0,1-1.716-.161" transform="translate(-14.45 -163.08)" fill="#466784"/><path d="M19.672,215.01c0-.088,0-.176,0-.266l-1.082.028,1.082-.029a10.162,10.162,0,0,0-10.123-9.835,9.533,9.533,0,0,0-6.776,2.772,9.41,9.41,0,0,0-2.325,3.837c0,.008-.006.017-.009.025A9.609,9.609,0,0,0,0,214.415q0,.2.008.4h0a10.131,10.131,0,0,0,.782,3.489,10,10,0,0,0,3.326,4.286,10.058,10.058,0,0,0,4.3,1.885,9.833,9.833,0,0,0,1.716.16,9.574,9.574,0,0,0,1.777-.171A9.7,9.7,0,0,0,16.9,221.82a9.65,9.65,0,0,0,2.772-6.81m-3.779,5.809a8.133,8.133,0,0,1-5.81,2.413,8.622,8.622,0,0,1-6-2.467,8.779,8.779,0,0,1-2.671-5.949c0-.112-.007-.223-.007-.336a8.127,8.127,0,0,1,8.192-8.166,8.716,8.716,0,0,1,8.677,8.429l-1.082.03,1.082-.03q0,.121,0,.241a8.261,8.261,0,0,1-2.379,5.835" transform="translate(0 -129.498)" fill="#7299b3"/><path d="M20.675,217.154l-1.082.03,1.082-.03A8.715,8.715,0,0,0,12,208.725a8.126,8.126,0,0,0-8.192,8.166c0,.113,0,.225.007.336a8.779,8.779,0,0,0,2.672,5.949,8.621,8.621,0,0,0,6,2.466,8.135,8.135,0,0,0,5.81-2.412,8.263,8.263,0,0,0,2.379-5.836c0-.079,0-.159,0-.24m-1.484,1.5a.64.64,0,0,1-.145.24,6.705,6.705,0,0,1-6.568,5.286,7.084,7.084,0,0,1-4.117-1.338l-.3-.143a1.062,1.062,0,0,1-.356-.251.645.645,0,0,1-.132-.255,7.3,7.3,0,0,1-2.3-5.012,6.678,6.678,0,0,1,3.986-6.426l.191-.134h0a.907.907,0,0,1,.52-.193.571.571,0,0,1,.156.021,6.892,6.892,0,0,1,1.885-.266,7.176,7.176,0,0,1,7.183,7.762c.011.1.021.193.029.271l.009.156a.889.889,0,0,1-.042.281" transform="translate(-2.406 -131.909)" fill="#b5d6e6"/><path d="M26.338,235.2a2.483,2.483,0,0,1-.637-.114c-.224-.063-.47-.142-.734-.22a6.2,6.2,0,0,0-1.736-.3c-.1,0-.2,0-.3.013L22.9,234.2l.032.378c-.3.025-.566.049-.811.067a2.857,2.857,0,0,1,.407,1.433,2.956,2.956,0,0,1-.259,1.19,4.227,4.227,0,0,1-1.486,1.91,3.227,3.227,0,0,1-1.818.527,6.725,6.725,0,0,1-2.779-.76,7.084,7.084,0,0,0,4.117,1.338A6.706,6.706,0,0,0,26.867,235c-.007.007-.011.015-.018.022a.719.719,0,0,1-.511.184" transform="translate(-10.226 -148.008)" fill="#fff"/><path d="M21.515,213.5a6.992,6.992,0,0,1,.273.9,6.358,6.358,0,0,0,.9,2.174l-.306.223.306-.223c.186.255.353.482.5.692.018-.032.03-.066.049-.1a2.7,2.7,0,0,1,2.153-1.274q.27-.023.521-.022a3.975,3.975,0,0,1,2.24.608,3.632,3.632,0,0,1,1.237,1.431,7.4,7.4,0,0,1,.651,2.546,7.176,7.176,0,0,0-7.183-7.762,6.892,6.892,0,0,0-1.885.266.665.665,0,0,1,.309.18,1.152,1.152,0,0,1,.229.361" transform="translate(-13.257 -134.418)" fill="#fff"/><path d="M10.16,225.112a1.926,1.926,0,0,1,.23-.307c.176-.2.392-.4.623-.622A5.477,5.477,0,0,0,12.28,222.5c.121-.281.23-.533.331-.761a2.894,2.894,0,0,1-2.353-1.256,4.367,4.367,0,0,1-.962-2.568,3.691,3.691,0,0,1,1.087-2.509,8.4,8.4,0,0,1,1.382-1.16,6.678,6.678,0,0,0-3.986,6.426,7.3,7.3,0,0,0,2.3,5.012.6.6,0,0,1-.033-.174.811.811,0,0,1,.119-.4" transform="translate(-4.913 -135.4)" fill="#fff"/><path d="M24.316,220.876a7.4,7.4,0,0,0-.65-2.546,3.634,3.634,0,0,0-1.237-1.43,3.977,3.977,0,0,0-2.24-.607c-.167,0-.34.007-.52.022a2.7,2.7,0,0,0-2.153,1.274c-.019.031-.031.065-.049.1-.15-.209-.317-.437-.5-.692l-.307.223.307-.223a6.361,6.361,0,0,1-.9-2.174,6.984,6.984,0,0,0-.273-.9,1.162,1.162,0,0,0-.229-.361.667.667,0,0,0-.31-.18.569.569,0,0,0-.156-.021.906.906,0,0,0-.52.192l-.191.135A8.368,8.368,0,0,0,13,214.846a3.693,3.693,0,0,0-1.087,2.509,4.366,4.366,0,0,0,.962,2.568,2.9,2.9,0,0,0,2.353,1.256c-.1.228-.21.481-.332.761a5.47,5.47,0,0,1-1.267,1.679c-.231.226-.448.426-.623.622a1.93,1.93,0,0,0-.23.307.811.811,0,0,0-.118.4.594.594,0,0,0,.033.174.646.646,0,0,0,.132.254,1.056,1.056,0,0,0,.356.251l.305.142a6.722,6.722,0,0,0,2.779.76,3.226,3.226,0,0,0,1.818-.527,4.224,4.224,0,0,0,1.486-1.909,2.965,2.965,0,0,0,.259-1.19,2.855,2.855,0,0,0-.406-1.432c.245-.019.512-.043.811-.068l-.032-.378.032.378c.1-.008.2-.013.3-.013a6.19,6.19,0,0,1,1.736.3c.264.078.509.157.733.22a2.47,2.47,0,0,0,.637.113.719.719,0,0,0,.512-.184c.007-.006.011-.015.017-.021a.645.645,0,0,0,.145-.24.886.886,0,0,0,.042-.281l-.009-.157c-.009-.078-.019-.171-.03-.271m-5.715.47a1.678,1.678,0,0,1-1.2.495,1.775,1.775,0,0,1-1.763-1.71v-.061a1.679,1.679,0,0,1,1.686-1.687,1.773,1.773,0,0,1,1.763,1.711v.056a1.687,1.687,0,0,1-.489,1.195" transform="translate(-7.527 -134.838)" fill="#3799d4"/><path d="M25.495,228.724a1.773,1.773,0,0,0-1.763-1.711,1.678,1.678,0,0,0-1.686,1.687v.061a1.774,1.774,0,0,0,1.763,1.709,1.681,1.681,0,0,0,1.685-1.69v-.056Z" transform="translate(-13.933 -143.467)" fill="#fff"/><path d="M27.544,283.662a.555.555,0,0,0-.4.167.561.561,0,0,0-.159.392v.017h0v.021h0a.566.566,0,0,0,.562.531.558.558,0,0,0,.555-.556v-.022a.571.571,0,0,0-.567-.549" transform="translate(-17.056 -179.268)" fill="#fff"/><path d="M23.258,283.662a.555.555,0,0,0-.555.557v.022h0v.01h0v0h0a.567.567,0,0,0,.564.536.551.551,0,0,0,.4-.167.56.56,0,0,0,.155-.377h0v-.037a.571.571,0,0,0-.567-.547" transform="translate(-14.348 -179.268)" fill="#fff"/><path d="M31.5,283.827a.559.559,0,0,0-.16.392v.022h0v.009h0v0h0v0h0a.567.567,0,0,0,.563.531.552.552,0,0,0,.4-.166.559.559,0,0,0,.159-.392v-.021a.57.57,0,0,0-.566-.549.556.556,0,0,0-.4.165" transform="translate(-19.809 -179.268)" fill="#d54859"/><path d="M208.556,190.574c.25-.074.5-.153.749-.212l-.318-.322-.491.493.061.041" transform="translate(-131.764 -120.101)" fill="#d4d5d5"/><path d="M208.614,172.956l-1.023-1.043-.349.35,1.024,1.042.347-.349" transform="translate(-130.972 -108.645)" fill="#d4d5d5"/><path d="M205.921,175.656l-1.024-1.042-.349.349L205.575,176l.347-.348" transform="translate(-129.27 -110.352)" fill="#d4d5d5"/><path d="M212.332,188.406c.124-.018.247-.047.371-.062l.159-.16-.909-.923-.377.378.757.767" transform="translate(-133.711 -118.345)" fill="#d4d5d5"/><path d="M207.6,183.605l.377-.379-1.3-1.323-.379.38,1.3,1.322" transform="translate(-130.374 -114.959)" fill="#d4d5d5"/><path d="M203.707,186.633l.622-.624-1.3-1.322-.888.89,1.57,1.055" transform="translate(-127.746 -116.719)" fill="#d4d5d5"/><path d="M211.307,170.255l-1.022-1.043-.349.35,1.023,1.042.348-.349" transform="translate(-132.675 -106.938)" fill="#d4d5d5"/><path d="M220.62,180.454l.344-.346-.907-.926-.345.346.908.925" transform="translate(-138.853 -113.24)" fill="#d4d5d5"/><path d="M125.912,224.422a10.784,10.784,0,0,1,4.11.912l.329-.668a11.845,11.845,0,0,0-9.29.07l.436.529a10.715,10.715,0,0,1,4.415-.843" transform="translate(-76.508 -141.407)" fill="#d4d5d5"/><path d="M210.373,180.879l.345-.346-1.3-1.323-.346.347,1.3,1.322" transform="translate(-132.128 -113.256)" fill="#d4d5d5"/><path d="M149.486,240.247l1.55-.579c-.116-.162-.233-.322-.36-.475l-1.191,1.055" transform="translate(-94.472 -151.164)" fill="#d4d5d5"/><path d="M203.175,178.354l-1.025-1.041-.381.381,1.026,1.04.379-.38" transform="translate(-127.513 -112.058)" fill="#d4d5d5"/><path d="M141.722,233.265q-1.134,2.311-2.26,4.615l1.442-.539,2.859-2.533a9.155,9.155,0,0,0-2.041-1.543" transform="translate(-88.137 -147.418)" fill="#d4d5d5"/><path d="M215.748,175.486l.346-.347-1.3-1.326-.347.348,1.3,1.325" transform="translate(-135.527 -109.846)" fill="#d4d5d5"/><path d="M155.32,252.875l-1.7.526c.575.036,1.153.069,1.727.106,0-.212-.011-.422-.026-.631" transform="translate(-97.084 -159.811)" fill="#d4d5d5"/><path d="M213.061,178.183l.346-.347-1.3-1.325-.347.348,1.3,1.323" transform="translate(-133.827 -111.551)" fill="#d4d5d5"/><path d="M215.255,185.838l.344-.345-.909-.924-.344.346.909.923" transform="translate(-135.462 -116.643)" fill="#d4d5d5"/><path d="M217.937,183.146l.344-.346-.908-.925-.346.346.909.924" transform="translate(-137.157 -114.941)" fill="#d4d5d5"/><path d="M135.729,230.32q-.154,3.132-.294,6.252l.24-.09q1.314-2.747,2.633-5.5a9.044,9.044,0,0,0-2.579-.665" transform="translate(-85.592 -145.557)" fill="#d4d5d5"/><path d="M148.817,256.507c-1.337-.084-2.68-.164-4.019-.246l-1.447.447q2.423,1.156,4.842,2.314a8.627,8.627,0,0,0,.623-2.515" transform="translate(-90.594 -161.951)" fill="#d4d5d5"/><path d="M198.942,181.142l-1.026-1.04-1.227,1.231,1.235.83,1.018-1.021" transform="translate(-124.302 -113.82)" fill="#d4d5d5"/><path d="M117.375,228.336a9.5,9.5,0,0,0-9.8,9.337,9.811,9.811,0,0,0,9.65,9.717,9.356,9.356,0,0,0,9.707-9.262,9.622,9.622,0,0,0-.04-.97l-.669.207c.015.209.025.419.027.631-.574-.036-1.152-.07-1.727-.106l-2.332.721c1.34.082,2.682.162,4.019.246a8.626,8.626,0,0,1-.623,2.515q-2.417-1.16-4.842-2.314l-1.213.375q2.846,1.356,5.686,2.717a8.6,8.6,0,0,1-1.551,2.062q-2.162-2.361-4.328-4.72l-.445.137a3.38,3.38,0,0,1-2.932.014q-1.43,3-2.854,5.993a9.285,9.285,0,0,1-2.158-1.576l5-4.428a1.881,1.881,0,0,1-.592-.627l-4.993,4.423a8.973,8.973,0,0,1-1.392-2.246q3.195-1.1,6.38-2.189a2.345,2.345,0,0,1-.3-.807q-3.186,1.092-6.378,2.188a8.674,8.674,0,0,1-.373-1.906q-.028-.333-.03-.673l.815.046q2.987.165,5.965.339a1.828,1.828,0,0,1,.023-.862q-2.485-.144-4.978-.283c-.6-.033-1.189-.069-1.786-.1a8.55,8.55,0,0,1,.631-2.522l1.278.6,1.334.63q1.762.831,3.522,1.664a2.839,2.839,0,0,1,1.856-1.649q-1.152-3.145-2.3-6.3a9.024,9.024,0,0,1,2.635-.355q-.164,3.327-.313,6.642c.138-.056.269-.115.422-.167l.456-.17q.144-3.123.294-6.253a9.043,9.043,0,0,1,2.579.665q-1.322,2.753-2.633,5.5h0q1.486-3.038,2.98-6.083a9.75,9.75,0,0,0-3.673-.808m5.643,16.449a8.747,8.747,0,0,1-2.249,1.309q-1.169-3.147-2.328-6.3,2.288,2.5,4.576,4.991m-5.4-4.742q1.166,3.167,2.338,6.329a9.078,9.078,0,0,1-2.62.346q.134-3.332.282-6.675m-.859-.07q-.146,3.35-.282,6.693a9.262,9.262,0,0,1-2.59-.66q1.43-3.012,2.872-6.033m-4.7-5.036c-.916-.432-1.829-.866-2.746-1.3a8.755,8.755,0,0,1,1.578-2.087q1.007,1.1,2.012,2.2,1.285,1.4,2.568,2.8-1.7-.808-3.413-1.612m2.436-3.43q.818,2.246,1.639,4.49l-2.72-2.967-1.878-2.049a8.934,8.934,0,0,1,2.281-1.333c.225.62.453,1.238.679,1.859" transform="translate(-67.984 -144.301)" fill="#807878"/><path d="M144.494,231.629l-.3.6a9.133,9.133,0,0,1,2.041,1.543l-2.859,2.533,2.247-.84,1.191-1.055c.127.153.244.314.36.475l.653-.244a9.838,9.838,0,0,0-3.337-3.015" transform="translate(-90.613 -146.384)" fill="#807878"/><path d="M146.855,229.154l-.448.911a9.837,9.837,0,0,1,3.337,3.015l.987-.369a10.88,10.88,0,0,0-3.876-3.557" transform="translate(-92.526 -144.82)" fill="#3c3939"/><path d="M125.151,236.378a9.356,9.356,0,0,1-9.707,9.262,9.811,9.811,0,0,1-9.65-9.717,9.5,9.5,0,0,1,9.8-9.337,9.751,9.751,0,0,1,3.673.808l.45-.915a10.764,10.764,0,0,0-8.525-.069,10.583,10.583,0,0,0-4.937,4.244,10.2,10.2,0,0,0-1.5,5.248,10.319,10.319,0,0,0,.2,2.063,10.935,10.935,0,0,0,10.487,8.683,10.343,10.343,0,0,0,10.734-10.243,10.61,10.61,0,0,0-.077-1.3l-.989.305a9.612,9.612,0,0,1,.04.97" transform="translate(-66.205 -142.551)" fill="#3c3939"/><path d="M129.294,174.5l-.24.082.784,1.143q1.317,1.926,2.638,3.848l-3.023,1.03a.863.863,0,0,0-.561.621q-1.727,7.453-3.391,14.856a3.819,3.819,0,0,0-1.078.1q-3.089-4.84-6.171-9.686l-.747.522.563.884s0,0-.006.007q-.931,1.886-1.853,3.767a13.645,13.645,0,0,0-13.766,1.859A13.36,13.36,0,0,0,100,196.079a12.945,12.945,0,0,0-2.521,7.6.862.862,0,1,0,1.723.011,11.191,11.191,0,0,1,1.946-6.233,11.633,11.633,0,0,1,2.37-2.576,11.842,11.842,0,0,1,11.929-1.656l-.329.668-.45.915q-1.5,3.046-2.98,6.083h0l-.241.09-.456.171c-.153.053-.284.111-.422.167l-.024.01a2.839,2.839,0,0,0-1.856,1.649v.006a1.829,1.829,0,0,0-.024.864v0a2.347,2.347,0,0,0,.3.807l0,.008a1.885,1.885,0,0,0,.594.63l.013.01a3.38,3.38,0,0,0,2.932-.014l.445-.137.192-.06,1.213-.375,1.447-.447,2.332-.721,1.7-.525.669-.207.988-.305c1.387-.428,2.781-.861,4.166-1.287l.051-.02q-.09-.342-.18-.683a1.931,1.931,0,0,1-.212.015,1.973,1.973,0,0,1-1.915-1.981,1.9,1.9,0,0,1,1.961-1.87,1.972,1.972,0,0,1,1.911,1.984,1.881,1.881,0,0,1-1.157,1.715l.154.586a2.467,2.467,0,0,0,1.468-3.2,2.675,2.675,0,0,0-.634-1.012q1.648-7.319,3.35-14.683l3.024-1.03.929,1.355c-.159.115-.323.225-.475.347a13.269,13.269,0,0,0-4.2,14.852.862.862,0,0,0,1.623-.581h0a11.546,11.546,0,0,1,3.649-12.925c.121-.1.25-.182.375-.274q3.209,4.682,6.419,9.364a.475.475,0,1,0,.783-.538q-3.211-4.674-6.412-9.355a11.5,11.5,0,0,1,2.306-1.091c.211-.071.425-.121.637-.18l-1.44-.968-.985.988a.455.455,0,1,1-.645-.642l.031-.031c-.3.156-.593.325-.879.5l-1.028-1.5a.85.85,0,0,0-.708-1.033q-1.442-2.105-2.886-4.21L129.81,174a.854.854,0,0,1-.516.494m-16.688,29.089a1.663,1.663,0,0,1-1.722,1.642,1.731,1.731,0,0,1-1.7-1.722,1.667,1.667,0,0,1,1.725-1.644,1.748,1.748,0,0,1,.287.035c-.236.483-.474.966-.709,1.449a.455.455,0,0,0,.818.4c.235-.482.473-.965.708-1.447a1.694,1.694,0,0,1,.591,1.288m7.2-5.73-.988.369-.653.244-1.55.579-2.247.84-1.442.539q1.129-2.306,2.26-4.615l.3-.6c.149-.3.3-.608.448-.911l.34-.691a11.965,11.965,0,0,1,3.183,2.333.862.862,0,1,0,1.238-1.2,13.663,13.663,0,0,0-3.662-2.679q.8-1.633,1.607-3.266,2.441,3.836,4.886,7.669c-1.236.461-2.478.926-3.716,1.389" transform="translate(-61.605 -109.966)" fill="#d7563f"/><path d="M169.581,237.655a.3.3,0,0,1,.583-.152q.242.925.486,1.848a1.88,1.88,0,0,0,1.157-1.715,1.971,1.971,0,0,0-1.911-1.984,1.9,1.9,0,0,0-1.961,1.87,1.973,1.973,0,0,0,1.915,1.98,1.845,1.845,0,0,0,.212-.015Q169.822,238.571,169.581,237.655Z" transform="translate(-106.131 -148.926)" fill="#3a3736"/><path d="M142,202.725l2.019-1.412.747-.522,1.891-1.323c1.26-.881,2.068-2.511,1.354-2.8a.658.658,0,0,0-.254-.048,6.741,6.741,0,0,0-2,.461l-3.935,1.226c-1.963.675-2.728,1.346-2.247,2.7.276.775.39,1.446.806,1.751.31.228.785.254,1.622-.033" transform="translate(-88.117 -124.261)" fill="#524e4e"/><path d="M172.972,240.294a.3.3,0,0,0-.583.152q.24.917.482,1.833c.06.228.12.455.18.683q.3,1.153.607,2.307l.573-.195q-.31-1.173-.618-2.347c-.051-.2-.1-.39-.154-.586q-.243-.924-.486-1.848" transform="translate(-108.939 -151.718)" fill="#807878"/><path d="M172.324,253.605a.752.752,0,0,0-.586.879.791.791,0,0,0,1.025.333l2.289-.776a.752.752,0,0,0,.585-.878.788.788,0,0,0-1.023-.334l-.807.273-.573.194-.91.308" transform="translate(-108.516 -159.745)" fill="#6c6665"/><path d="M178.049,171.973a.857.857,0,0,0-1.074-1.136h0l-2.582.884a.862.862,0,0,0,.559,1.63l2.342-.8.24-.082a.855.855,0,0,0,.516-.494" transform="translate(-109.844 -107.936)" fill="#777070"/><path d="M209.694,191.823l.306-.307-.593-.6c-.25.059-.5.138-.749.212l1.035.7" transform="translate(-131.868 -120.654)" fill="#d7563f"/><path d="M213.785,190.421,214,190.2c-.124.015-.247.043-.371.062l.154.156" transform="translate(-135.01 -120.204)" fill="#d7563f"/><path d="M214.816,190.213h0l-1.667,1.673a11.452,11.452,0,0,1,7.312,1.035.861.861,0,0,0,.778-1.537,13.237,13.237,0,0,0-6.167-1.428l-.256.257" transform="translate(-134.705 -120.047)" fill="#d7563f"/><path d="M196.745,175.211a.455.455,0,0,0,.644,0l.984-.988q.72.485,1.44.968l.114.077a.455.455,0,0,0,.577-.056l.237-.238,1.667-1.673h0l.256-.257,3.811-3.825a.455.455,0,0,0,0-.639L204.935,167l0,0,0,0L203,165.022l0,0,0,0q-.826-.844-1.651-1.688a.455.455,0,0,0-.647,0l-2.1,2.1h0l-.991.994h0l-2.131,2.137-1.828,1.833a.455.455,0,0,0,.069.7q1.946,1.3,3.886,2.611l-.829.832-.031.031a.455.455,0,0,0,0,.644m8.768-6.318-.462.464-.907-.926.464-.465.905.926m-1.542-1.577-.464.466-1.3-1.326.466-.467,1.3,1.326m-2.953-3.022,1.02,1.044-.466.468-1.022-1.043.467-.469M204.408,170l-.344.346-.908-.924.345-.347.907.926m-1.544-1.576-.346.347-1.3-1.325.347-.348,1.3,1.326m-2.957-3.019,1.022,1.043-.348.349-1.023-1.042.349-.35m3.514,5.585-.344.346-.909-.924.345-.346.908.924m-1.545-1.574-.346.347-1.3-1.323.347-.348,1.3,1.325m-2.96-3.017,1.023,1.043-.347.349-1.024-1.042.349-.35m3.518,5.582-.343.345-.909-.923.344-.346.908.924m-1.546-1.574-.345.347-1.3-1.322.346-.347,1.3,1.323m-2.963-3.014,1.024,1.042-.347.348-1.025-1.041.349-.349m3.524,5.577-.159.16-.217.218-.154-.156-.756-.767.377-.378.91.923M199.9,171.4l-.378.379-1.3-1.322.379-.38,1.3,1.323m-2.967-3.012,1.025,1.041-.379.38-1.026-1.04.381-.381m2.9,5.006.592.6-.306.307-1.035-.7-.061-.041.491-.493.318.322m-2.262-2.292,1.3,1.322-.622.624-1.57-1.055.888-.89m-2.893-.457,1.227-1.231,1.026,1.04-1.018,1.021-1.235-.831" transform="translate(-122.297 -103.133)" fill="#807878"/><path d="M92.3,241.338q.051.618.1,1.237.034-.616.067-1.232l-.169,0" transform="translate(-58.33 -152.52)" fill="#c9c6b5"/><path d="M107.514,246.892q.035-.659.071-1.318l-2.038-.062c-.024.438-.047.878-.071,1.316l3.056.1h0l-.147,0-.871-.028" transform="translate(-66.658 -155.158)" fill="#c9c6b5"/><path d="M91.905,199.086a.528.528,0,0,1-.514-.564q.123-2.264.246-4.53a.574.574,0,0,1,.574-.542q5.064.093,10.129.195a.531.531,0,0,1,.515.568l-.244,4.562a.572.572,0,0,1-.574.544q-2.772-.066-5.544-.127c-.024.447-.048.892-.072,1.34l.127,0,1.739.041q1.84.044,3.679.087a1.949,1.949,0,0,0,1.962-1.856l.159-2.986q.043-.79.084-1.58c0-.04-.005-.077-.005-.116a1.8,1.8,0,0,0-1.753-1.825q-5.065-.1-10.129-.187a1.962,1.962,0,0,0-1.962,1.856q-.123,2.264-.247,4.526a1.8,1.8,0,0,0,1.758,1.928q1.735.039,3.469.082c.024-.447.049-.892.073-1.339l-3.469-.079" transform="translate(-56.924 -121.41)" fill="#97a747"/><path d="M104.876,201.071l.244-4.562a.531.531,0,0,0-.515-.568q-5.065-.1-10.129-.2a.574.574,0,0,0-.574.543q-.123,2.266-.246,4.53a.528.528,0,0,0,.514.565l3.469.079c.028-.521.057-1.041.085-1.563l-1.077-.023a1.088,1.088,0,0,1-1.057-1.161l.013-.248a1.182,1.182,0,0,1,1.181-1.115l5.065.1a1.091,1.091,0,0,1,1.057,1.166c0,.083-.008.166-.013.249a1.177,1.177,0,0,1-1.18,1.117l-2.87-.063c-.028.522-.057,1.042-.085,1.564q2.772.063,5.544.127a.573.573,0,0,0,.574-.544" transform="translate(-59.188 -123.707)" fill="#623d1a"/><path d="M111.014,247l.871.028.147,0,.422.014.4.013.3.01.148,0,.87.028q.035-.66.071-1.32l-3.155-.1q-.036.659-.071,1.318" transform="translate(-70.158 -155.264)" fill="#3b3938"/><path d="M105.671,243.134l2.038.062,3.155.1q3.433.108,6.867.221.037-.7.075-1.4-6.031-.192-12.06-.366l-.075,1.385" transform="translate(-66.782 -152.78)" fill="#623d1a"/><path d="M96.336,241.463c-1.235-.036-2.472-.077-3.707-.113l-.067,1.232c0,.051-.006.1-.008.153h.021l3.687.112.075-1.385" transform="translate(-58.491 -152.528)" fill="#623d1a"/><path d="M117.37,232.955c-.6-.018-1.195-.033-1.792-.051q-3.383-.1-6.766-.191l-1.739-.049-1.016-.029q-.091,1.677-.181,3.354,6.029.179,12.06.366l1.625.052s.04-.757.09-1.691a1.246,1.246,0,0,0-.117-.572,2.384,2.384,0,0,0-2.164-1.19" transform="translate(-66.911 -147.02)" fill="#97a747"/><path d="M88.435,233.926l-.092,1.67,1.456.042.17,0c1.235.036,2.472.076,3.707.113q.091-1.674.182-3.352c-.987-.027-1.975-.057-2.962-.084a3.151,3.151,0,0,0-1.35.255,1.675,1.675,0,0,0-1.111,1.352" transform="translate(-55.831 -146.82)" fill="#97a747"/><path d="M92.615,274.018l-.132,2.408c0,.029,0,.059,0,.089l.039,0,1.1.042.654.025q.068-1.25.137-2.5l-.335-.012-1.12-.041-.335-.012" transform="translate(-58.444 -173.173)" fill="#3b3938"/><path d="M111.259,274.71q-.068,1.254-.136,2.508l1.79.07.136-2.51-.335-.013-1.12-.042-.335-.013" transform="translate(-70.227 -173.61)" fill="#3b3938"/><path d="M129.905,275.424q-.068,1.26-.135,2.519l1.79.073q.068-1.261.135-2.522l-.335-.013-1.12-.044-.335-.013" transform="translate(-82.012 -174.062)" fill="#3b3938"/><path d="M97.025,216.784c-.042.774-.084,1.552-.126,2.326l-.007.124h0l1.12.036,3.055.1q-.129,2.384-.258,4.764-2.162-.077-4.324-.155a2.6,2.6,0,0,0-2.442,1.244,1.77,1.77,0,0,0-.206.721q-.038.689-.075,1.379l1.12.041q.038-.69.075-1.379c.027-.5.7-.9,1.466-.871q2.162.077,4.324.158-.063,1.153-.125,2.306l1.12.042.125-2.308q2.162.079,4.325.158c.768.028,1.393.477,1.366.981q-.037.694-.075,1.39l1.12.044q.038-.7.075-1.391a2.271,2.271,0,0,0-2.425-2.165q-2.162-.079-4.325-.155.16-2.952.319-5.906l-.3-.01-.4-.012-.422-.014h0l-3.055-.1c.024-.438.047-.878.071-1.316.025-.461.05-.924.075-1.385q.091-1.675.182-3.354.176-3.247.351-6.495l.073-1.339c.028-.522.056-1.042.085-1.564l2.87.063a1.177,1.177,0,0,0,1.18-1.117l.013-.249a1.091,1.091,0,0,0-1.057-1.166l-5.066-.1a1.182,1.182,0,0,0-1.18,1.115l-.014.248a1.088,1.088,0,0,0,1.057,1.161l1.078.023c-.028.522-.057,1.042-.085,1.563l-.073,1.339q-.176,3.248-.352,6.49-.091,1.675-.182,3.352l-.075,1.385" transform="translate(-59.255 -126.464)" fill="#9c9390"/></g></g></g></g></svg>