<svg xmlns="http://www.w3.org/2000/svg" xmlns:xlink="http://www.w3.org/1999/xlink" width="97" height="149" viewBox="0 0 97 149"><defs><clipPath id="a"><rect width="97" height="149" transform="translate(784 2225)" fill="#dcdcdc" opacity="0"/></clipPath></defs><g transform="translate(-784 -2225)"><rect width="97" height="149" transform="translate(784 2225)" fill="#dcdcdc" opacity="0"/><g clip-path="url(#a)"><g transform="translate(263.528 1127.596)"><g transform="translate(513.26 1127.559)"><g transform="translate(0 52.592)"><g transform="translate(0.323)"><path d="M556.4,1572.264c-.236.133-.511.195-.775.315-.248.114-.417.438-.687.54s-.537.159-.811.246-.538.155-.815.228-.576-.012-.855.05-.521.232-.8.283-.532.23-.812.272-.6-.228-.876-.194-.531.307-.813.332-.574-.152-.855-.136-.556.11-.837.118-.561.122-.842.122-.564-.053-.844-.062-.567.024-.846.007-.551-.194-.829-.219-.573.059-.85.024-.545-.173-.82-.218-.581.03-.853-.027-.568-.074-.836-.142c-.4-.1-.339-.347-.741-.45s-.465.145-.867.042-.366-.242-.768-.345-.416-.048-.818-.151-.362-.26-.763-.362-.461.129-.862.027-.344-.327-.746-.43-.438.037-.839-.065-.388-.156-.79-.258-.4-.122-.8-.224-.375-.207-.777-.309-.449.082-.85-.021-.4-.124-.8-.227-.377-.2-.779-.3-.441.051-.843-.052-.418-.039-.82-.142-.332-.375-.734-.477-.421-.026-.823-.128-.455.105-.857,0-.4-.128-.8-.23-.336-.362-.738-.465-.476.186-.878.083-.374-.212-.776-.315-.37-.231-.772-.334c-.287-.073-.577-.081-.837-.162-.284-.089-.542-.205-.795-.3-.28-.107-.5-.3-.74-.416a6.664,6.664,0,0,1-.723-.417c-.261-.168-.671-.107-.859-.285a2.855,2.855,0,0,1-.551-.711c-.138-.27.09-.6.112-.881a1.473,1.473,0,0,1,.179-.777,2.813,2.813,0,0,1,.473-.719,6.421,6.421,0,0,1,.762-.406,7.106,7.106,0,0,1,.7-.492c.237-.112.571-.017.833-.119.246-.1.4-.477.666-.563s.545-.072.814-.146.534-.09.8-.153.554.021.825-.032.495-.3.767-.34.561.1.834.067.529-.114.8-.144.536-.085.808-.107.538-.087.81-.1.547.11.82.1.539-.212.811-.214.543.194.815.2.547-.129.818-.118.542.083.812.1.557-.1.826-.079.548.04.816.073.514.279.78.321.533.106.8.157.568-.041.828.021c.4.1.378.2.781.292s.444-.078.846.017.393.138.795.233.394.129.8.224.422.013.824.108.373.219.776.314.368.24.771.335.455-.129.858-.033.365.25.768.346.386.164.789.259.419.026.821.121.4.125.8.221.427-.006.829.089.392.14.794.235.436-.047.839.049.394.132.8.227.412.056.814.152.365.253.768.349.408.072.81.167.443-.073.846.022l.8.192c.4.1.343.349.746.444s.459-.142.862-.047c.268.063.476.321.722.393.266.077.553.048.793.134.263.094.468.292.7.395.257.115.548.126.765.251a5.318,5.318,0,0,1,.642.48,4.334,4.334,0,0,1,.667.477,2.25,2.25,0,0,1,.28.773,1.905,1.905,0,0,1,.232.805,2.381,2.381,0,0,1-.4.736c-.126.208-.408.31-.615.513a4.533,4.533,0,0,1-.54.579C556.893,1572.024,556.647,1572.125,556.4,1572.264Z" transform="translate(-516.76 -1561.151)" fill="#ffbd3d"/><path d="M545.408,1573.424a4.761,4.761,0,0,1-.48-.032c-.128-.013-.25-.026-.37-.029s-.242,0-.371.005c-.157.006-.319.011-.482,0a1.711,1.711,0,0,1-.485-.123,1.483,1.483,0,0,0-.35-.1,2.053,2.053,0,0,0-.374.014,2.151,2.151,0,0,1-.483.01,2.537,2.537,0,0,1-.474-.122,2.433,2.433,0,0,0-.354-.1,1.868,1.868,0,0,0-.371-.008,1.949,1.949,0,0,1-.489-.02c-.116-.024-.233-.04-.357-.058a4.434,4.434,0,0,1-.488-.087.891.891,0,0,1-.464-.279.5.5,0,0,0-.277-.171.5.5,0,0,0-.324.018.884.884,0,0,1-.542.024,1.279,1.279,0,0,1-.446-.2.886.886,0,0,0-.322-.145,2.435,2.435,0,0,0-.383-.071,2.859,2.859,0,0,1-.434-.08,1.174,1.174,0,0,1-.449-.213.788.788,0,0,0-.315-.15.529.529,0,0,0-.328.012.918.918,0,0,1-.535.015.933.933,0,0,1-.462-.264.545.545,0,0,0-.285-.166.885.885,0,0,0-.353-.027,1.27,1.27,0,0,1-.486-.038,2.9,2.9,0,0,1-.42-.138,2.567,2.567,0,0,0-.369-.121c-.207-.053-.311-.084-.411-.115s-.193-.059-.388-.109a1.608,1.608,0,0,1-.436-.173,1.233,1.233,0,0,0-.341-.136.669.669,0,0,0-.34-.007,1.058,1.058,0,0,1-.511-.014c-.206-.053-.31-.085-.41-.117s-.193-.061-.388-.11a1.75,1.75,0,0,1-.433-.167,1.346,1.346,0,0,0-.346-.134.814.814,0,0,0-.349-.021,1.184,1.184,0,0,1-.494-.031,2.122,2.122,0,0,0-.38-.066,2.47,2.47,0,0,1-.44-.076.842.842,0,0,1-.467-.3.455.455,0,0,0-.267-.177,1.671,1.671,0,0,0-.375-.058,2.08,2.08,0,0,1-.449-.07.588.588,0,0,0-.334,0,.977.977,0,0,1-.523,0c-.207-.053-.31-.086-.41-.119s-.192-.062-.387-.112a.862.862,0,0,1-.466-.29.474.474,0,0,0-.271-.175.434.434,0,0,0-.316.034.817.817,0,0,1-.562.049,1.543,1.543,0,0,1-.437-.177,1.172,1.172,0,0,0-.338-.138,1.359,1.359,0,0,1-.443-.191.981.981,0,0,0-.329-.143c-.122-.031-.251-.05-.375-.069a3.145,3.145,0,0,1-.472-.1c-.2-.063-.389-.139-.569-.212-.08-.032-.159-.065-.238-.095a2.62,2.62,0,0,1-.479-.259,2.786,2.786,0,0,0-.276-.163,6.872,6.872,0,0,1-.744-.429,1.051,1.051,0,0,0-.362-.106.965.965,0,0,1-.526-.2,3.062,3.062,0,0,1-.591-.765.933.933,0,0,1,.025-.725,1.31,1.31,0,0,0,.066-.263c0-.039.005-.078.008-.116a1.43,1.43,0,0,1,.2-.755c.038-.059.075-.13.114-.2a1.749,1.749,0,0,1,.4-.557,1.871,1.871,0,0,1,.467-.265,2.871,2.871,0,0,0,.321-.16,2.576,2.576,0,0,0,.25-.185,2.438,2.438,0,0,1,.473-.318,1.2,1.2,0,0,1,.5-.083,1.064,1.064,0,0,0,.346-.042.8.8,0,0,0,.234-.215,1.047,1.047,0,0,1,.442-.351,2.406,2.406,0,0,1,.462-.087,2.57,2.57,0,0,0,.36-.061,4.232,4.232,0,0,1,.463-.091c.116-.018.236-.037.35-.064a1.707,1.707,0,0,1,.474-.024,1.554,1.554,0,0,0,.358-.01,1.1,1.1,0,0,0,.306-.143,1.376,1.376,0,0,1,.466-.2,1.394,1.394,0,0,1,.49.033,1.183,1.183,0,0,0,.349.033c.116-.016.231-.04.352-.065.146-.031.3-.062.455-.079.116-.012.231-.03.346-.047.151-.023.308-.047.467-.06.118-.01.236-.028.361-.047.147-.023.3-.046.454-.056a1.815,1.815,0,0,1,.471.054,1.593,1.593,0,0,0,.354.047,1.106,1.106,0,0,0,.332-.094,1.382,1.382,0,0,1,.483-.121h.008a1.384,1.384,0,0,1,.477.111,1.123,1.123,0,0,0,.334.087,1.751,1.751,0,0,0,.353-.054,1.761,1.761,0,0,1,.471-.064,3.862,3.862,0,0,1,.457.055c.125.02.243.039.36.047a1.545,1.545,0,0,0,.356-.037,1.731,1.731,0,0,1,.475-.041c.1.01.2.018.306.026.17.013.345.027.516.048a1.336,1.336,0,0,1,.475.187,1.061,1.061,0,0,0,.311.135c.179.028.354.065.523.1.094.02.187.04.281.058a1.447,1.447,0,0,0,.357,0,1.593,1.593,0,0,1,.48.018,1.665,1.665,0,0,1,.437.163,1.251,1.251,0,0,0,.344.129.708.708,0,0,0,.342.006,1.1,1.1,0,0,1,.5.011,3.533,3.533,0,0,1,.418.122,3.181,3.181,0,0,0,.377.11c.209.05.313.084.414.116s.189.062.383.108a1.588,1.588,0,0,0,.372.049,1.952,1.952,0,0,1,.452.06,1.4,1.4,0,0,1,.443.179,1.025,1.025,0,0,0,.333.135,1.244,1.244,0,0,1,.448.194.854.854,0,0,0,.322.14.542.542,0,0,0,.328-.015.934.934,0,0,1,.53-.019,1.179,1.179,0,0,1,.451.2.8.8,0,0,0,.317.143,2.277,2.277,0,0,1,.427.14,1.934,1.934,0,0,0,.362.119,1.9,1.9,0,0,0,.376.056,2.236,2.236,0,0,1,.445.065c.209.049.313.083.414.115s.19.06.384.106a1.25,1.25,0,0,0,.365.039,1.627,1.627,0,0,1,.464.05,3.348,3.348,0,0,1,.419.124,2.979,2.979,0,0,0,.375.111.874.874,0,0,0,.352.02,1.259,1.259,0,0,1,.487.029,4.012,4.012,0,0,1,.415.119,3.75,3.75,0,0,0,.381.109,3.453,3.453,0,0,0,.388.072,3.757,3.757,0,0,1,.426.079,1.166,1.166,0,0,1,.451.2.783.783,0,0,0,.316.144c.2.046.292.063.394.081s.21.037.417.086a.732.732,0,0,0,.344.008,1.109,1.109,0,0,1,.5.014l.8.192a.872.872,0,0,1,.469.277.484.484,0,0,0,.276.168.519.519,0,0,0,.325-.02.907.907,0,0,1,.537-.027,1.354,1.354,0,0,1,.456.237,1.07,1.07,0,0,0,.275.158,1.948,1.948,0,0,0,.35.055,1.866,1.866,0,0,1,.454.083,2.1,2.1,0,0,1,.444.241,1.421,1.421,0,0,0,.6.261,1.711,1.711,0,0,1,.452.159,3.731,3.731,0,0,1,.517.376c.05.041.1.082.148.12a2.693,2.693,0,0,0,.265.174,1.6,1.6,0,0,1,.434.334,1.491,1.491,0,0,1,.26.628c.018.075.035.147.055.208s.053.137.086.212a1.267,1.267,0,0,1,.155.687,1.6,1.6,0,0,1-.3.622c-.043.063-.085.125-.124.188a1.225,1.225,0,0,1-.391.357,1.787,1.787,0,0,0-.255.195,2.266,2.266,0,0,0-.173.2,1.978,1.978,0,0,1-.39.4,3.454,3.454,0,0,1-.451.257c-.086.043-.174.088-.262.138a2.953,2.953,0,0,1-.469.2c-.107.038-.218.077-.322.125a1.032,1.032,0,0,0-.258.215,1.278,1.278,0,0,1-.441.33c-.165.063-.34.111-.508.158-.1.029-.209.058-.313.091-.234.074-.481.14-.72.2l-.1.028a1.694,1.694,0,0,1-.493.035,1.542,1.542,0,0,0-.369.017,1.967,1.967,0,0,0-.341.125,2.166,2.166,0,0,1-.467.16,1.759,1.759,0,0,0-.346.12,1.962,1.962,0,0,1-.473.153,1.075,1.075,0,0,1-.543-.107.853.853,0,0,0-.34-.086.98.98,0,0,0-.322.14,1.25,1.25,0,0,1-.5.193,1.444,1.444,0,0,1-.505-.074,1.142,1.142,0,0,0-.356-.062,2.957,2.957,0,0,0-.37.055,2.954,2.954,0,0,1-.473.064,2.174,2.174,0,0,0-.369.056A2.3,2.3,0,0,1,545.408,1573.424Zm-.942-.464h.1c.135,0,.27.018.4.031a4.258,4.258,0,0,0,.439.031,2,2,0,0,0,.4-.057,2.506,2.506,0,0,1,.44-.065,2.615,2.615,0,0,0,.41-.057,3.3,3.3,0,0,1,.421-.061,1.5,1.5,0,0,1,.485.076,1.132,1.132,0,0,0,.365.061.947.947,0,0,0,.334-.142,1.259,1.259,0,0,1,.473-.19,1.125,1.125,0,0,1,.531.111.818.818,0,0,0,.339.085,1.648,1.648,0,0,0,.377-.126,2.085,2.085,0,0,1,.429-.145,1.831,1.831,0,0,0,.381-.134,2.325,2.325,0,0,1,.413-.148,1.83,1.83,0,0,1,.468-.027,1.385,1.385,0,0,0,.379-.022l.1-.028c.245-.065.476-.126.7-.2.109-.034.218-.065.327-.1.167-.047.326-.091.474-.147a.963.963,0,0,0,.3-.237,1.314,1.314,0,0,1,.377-.3c.12-.055.239-.1.354-.138a2.587,2.587,0,0,0,.406-.169h0c.094-.053.187-.1.278-.146a3.175,3.175,0,0,0,.4-.226,1.621,1.621,0,0,0,.31-.323,2.585,2.585,0,0,1,.205-.236,2.142,2.142,0,0,1,.311-.241.925.925,0,0,0,.274-.234c.042-.068.088-.137.134-.2a1.337,1.337,0,0,0,.239-.457.978.978,0,0,0-.126-.466c-.035-.08-.071-.162-.1-.245s-.046-.162-.065-.243a1.175,1.175,0,0,0-.181-.468,1.309,1.309,0,0,0-.33-.243,2.952,2.952,0,0,1-.306-.2c-.051-.04-.1-.083-.155-.126a3.421,3.421,0,0,0-.462-.338,1.418,1.418,0,0,0-.349-.117,2.343,2.343,0,0,1-.4-.125,2.315,2.315,0,0,1-.327-.19,1.741,1.741,0,0,0-.358-.2,1.564,1.564,0,0,0-.358-.062,2.279,2.279,0,0,1-.423-.069,1.358,1.358,0,0,1-.394-.215,1.028,1.028,0,0,0-.319-.175.513.513,0,0,0-.325.02.906.906,0,0,1-.536.027.873.873,0,0,1-.47-.277.485.485,0,0,0-.276-.168l-.8-.192a.732.732,0,0,0-.344-.008,1.108,1.108,0,0,1-.5-.014c-.2-.046-.292-.063-.394-.082s-.209-.037-.416-.086a1.163,1.163,0,0,1-.452-.2.785.785,0,0,0-.316-.144,3.464,3.464,0,0,0-.388-.072,3.816,3.816,0,0,1-.427-.079,4.1,4.1,0,0,1-.416-.119,3.71,3.71,0,0,0-.381-.109.868.868,0,0,0-.352-.02,1.267,1.267,0,0,1-.487-.029,3.392,3.392,0,0,1-.418-.124,2.972,2.972,0,0,0-.376-.111,1.254,1.254,0,0,0-.366-.039,1.646,1.646,0,0,1-.463-.05c-.208-.049-.312-.082-.412-.114s-.191-.061-.386-.107a1.9,1.9,0,0,0-.377-.055,2.252,2.252,0,0,1-.445-.066,2.3,2.3,0,0,1-.426-.14,1.924,1.924,0,0,0-.362-.119,1.184,1.184,0,0,1-.451-.2.794.794,0,0,0-.317-.143.545.545,0,0,0-.328.015.934.934,0,0,1-.53.019,1.242,1.242,0,0,1-.449-.195.861.861,0,0,0-.322-.141,1.4,1.4,0,0,1-.443-.179,1.024,1.024,0,0,0-.333-.135,1.562,1.562,0,0,0-.372-.049,1.973,1.973,0,0,1-.452-.059c-.21-.05-.314-.084-.415-.117s-.189-.062-.382-.107a3.531,3.531,0,0,1-.418-.123,3.191,3.191,0,0,0-.377-.11.7.7,0,0,0-.342-.006,1.1,1.1,0,0,1-.5-.011,1.655,1.655,0,0,1-.437-.163,1.257,1.257,0,0,0-.344-.129,1.291,1.291,0,0,0-.362-.008,1.746,1.746,0,0,1-.459-.011c-.1-.019-.191-.039-.287-.059-.164-.035-.333-.071-.5-.1a1.356,1.356,0,0,1-.443-.181,1.016,1.016,0,0,0-.33-.139c-.162-.02-.333-.033-.5-.047-.1-.008-.208-.016-.312-.026a1.4,1.4,0,0,0-.366.036,1.829,1.829,0,0,1-.454.043c-.136-.009-.268-.03-.4-.051a3.454,3.454,0,0,0-.409-.05,1.489,1.489,0,0,0-.365.054,1.837,1.837,0,0,1-.448.065,1.418,1.418,0,0,1-.465-.111,1.087,1.087,0,0,0-.341-.087h0a1.051,1.051,0,0,0-.342.094,1.413,1.413,0,0,1-.464.12,1.94,1.94,0,0,1-.448-.055,1.462,1.462,0,0,0-.367-.046c-.136.008-.271.029-.415.051-.127.02-.257.04-.39.051s-.288.033-.439.056c-.121.019-.242.037-.364.05a4.214,4.214,0,0,0-.415.073c-.123.026-.251.052-.381.07a1.464,1.464,0,0,1-.478-.037,1.1,1.1,0,0,0-.351-.031,1.056,1.056,0,0,0-.328.149,1.4,1.4,0,0,1-.432.19,1.886,1.886,0,0,1-.452.017,1.408,1.408,0,0,0-.366.013c-.128.029-.255.049-.377.069a3.9,3.9,0,0,0-.419.082,2.888,2.888,0,0,1-.418.073,2.086,2.086,0,0,0-.386.07.77.77,0,0,0-.263.233,1.05,1.05,0,0,1-.392.327,1.391,1.391,0,0,1-.483.069.907.907,0,0,0-.337.044,2.086,2.086,0,0,0-.394.269,2.924,2.924,0,0,1-.292.214,3.188,3.188,0,0,1-.367.184,1.577,1.577,0,0,0-.369.2,1.412,1.412,0,0,0-.3.438c-.042.08-.085.163-.134.239a1.06,1.06,0,0,0-.139.56c0,.041,0,.082-.008.123a1.6,1.6,0,0,1-.084.353.63.63,0,0,0-.049.421,2.643,2.643,0,0,0,.511.657.739.739,0,0,0,.319.1,1.351,1.351,0,0,1,.509.164,6.55,6.55,0,0,0,.7.405,3.123,3.123,0,0,1,.318.186,2.256,2.256,0,0,0,.406.223c.081.031.162.064.245.1.173.07.351.142.538.2a2.848,2.848,0,0,0,.412.082,4.055,4.055,0,0,1,.415.077,1.361,1.361,0,0,1,.442.191.984.984,0,0,0,.329.143,1.551,1.551,0,0,1,.437.177,1.155,1.155,0,0,0,.339.138.437.437,0,0,0,.317-.034.821.821,0,0,1,.561-.049.864.864,0,0,1,.466.29.474.474,0,0,0,.272.174c.207.053.311.086.411.119s.192.062.386.112a.584.584,0,0,0,.334,0,.978.978,0,0,1,.523,0,1.707,1.707,0,0,0,.374.058,2.091,2.091,0,0,1,.45.07.842.842,0,0,1,.467.3.455.455,0,0,0,.267.177,2.1,2.1,0,0,0,.379.066,2.44,2.44,0,0,1,.441.076.805.805,0,0,0,.349.021,1.2,1.2,0,0,1,.494.031,1.751,1.751,0,0,1,.433.167,1.35,1.35,0,0,0,.346.134c.206.053.309.085.409.117s.193.06.389.11a.672.672,0,0,0,.34.008,1.057,1.057,0,0,1,.511.013,1.613,1.613,0,0,1,.436.173,1.23,1.23,0,0,0,.341.136c.2.052.307.084.406.114s.194.06.392.11a2.907,2.907,0,0,1,.419.137,2.542,2.542,0,0,0,.37.121.887.887,0,0,0,.353.027,1.284,1.284,0,0,1,.487.038.933.933,0,0,1,.461.264.545.545,0,0,0,.284.166.529.529,0,0,0,.328-.012.919.919,0,0,1,.535-.015,1.173,1.173,0,0,1,.449.212.79.79,0,0,0,.314.15,2.469,2.469,0,0,0,.381.07,2.847,2.847,0,0,1,.436.081,1.274,1.274,0,0,1,.444.2.887.887,0,0,0,.323.146.493.493,0,0,0,.324-.018.94.94,0,0,1,1.007.255.506.506,0,0,0,.277.171,4.108,4.108,0,0,0,.444.078c.125.017.255.036.383.062a1.647,1.647,0,0,0,.391.012,2.147,2.147,0,0,1,.454.013,2.769,2.769,0,0,1,.413.112,2.176,2.176,0,0,0,.4.1,1.825,1.825,0,0,0,.395-.011,2.386,2.386,0,0,1,.449-.014,1.806,1.806,0,0,1,.45.12,1.393,1.393,0,0,0,.372.1c.144.009.289,0,.443,0C544.268,1572.964,544.367,1572.96,544.466,1572.96Z" transform="translate(-515.546 -1559.935)" fill="#ffa63d"/></g><path d="M542.7,1598.052h-.028A.7.7,0,0,0,541.5,1598a.946.946,0,0,1-.52-.241c-.023-.017-.054-.042-.076-.057-.04,0-.093.01-.145.018a1.533,1.533,0,0,1-.41.022.885.885,0,0,1-.513-.285l0,0a.706.706,0,0,1-1.211-.188l-.009-.014h0a.927.927,0,0,1-.567.088,1.541,1.541,0,0,1-.387-.156.972.972,0,0,0-.161-.073,2.537,2.537,0,0,1-.329-.105,1.7,1.7,0,0,0-.229-.073.9.9,0,0,1-.474-.29l-.011-.012h0a.8.8,0,0,1-.683.152,2.293,2.293,0,0,1-.335-.11,1.476,1.476,0,0,0-.223-.073.939.939,0,0,1-.464-.269.471.471,0,0,0-.035-.033l-.02.011a.815.815,0,0,1-.641.1.266.266,0,0,0-.134-.006,1.124,1.124,0,0,1-.461-.028.783.783,0,0,1-.537-.613s0-.006,0-.009l-.013,0a1.011,1.011,0,0,1-.426.005l-.02.015a.788.788,0,0,1-.709.188,2.1,2.1,0,0,1-.341-.115,1.257,1.257,0,0,0-.215-.073.688.688,0,0,0-1.147-.239.886.886,0,0,1-.48-.3l-.028-.031-.01,0a.854.854,0,0,1-.5-.345l-.02-.026a.219.219,0,0,0-.115,0,1.073,1.073,0,0,1-.475-.021,2.12,2.12,0,0,1-.343-.116,1.187,1.187,0,0,0-.214-.073.978.978,0,0,1-.453-.251c-.041-.037-.041-.037-.075-.046-.159-.041-.242-.069-.315-.094-.043-.015-.082-.028-.138-.044l-.028.029a.786.786,0,0,1-.778.307c-.138-.035-.208-.052-.277-.069s-.146-.035-.291-.072a.785.785,0,0,1-.535-.644.913.913,0,0,1-.506.01l-.031.014a.856.856,0,0,1-.6.062.879.879,0,0,1-.482-.307l-.027-.031-.008,0a.114.114,0,0,0-.024,0l-.044.012a.92.92,0,0,1-.543.019.7.7,0,0,0-1.173-.14.958.958,0,0,1-.458-.259c-.038-.036-.038-.036-.069-.045a1.329,1.329,0,0,1-.388-.161.46.46,0,0,0-.158-.066.825.825,0,0,1-.487-.342.781.781,0,0,1-.673.151.8.8,0,0,1-.526-.459l-.01-.019a.512.512,0,0,0-.126-.008,1.371,1.371,0,0,1-.412-.047,1.951,1.951,0,0,0-.226-.038,2.331,2.331,0,0,1-.364-.068,1.277,1.277,0,0,0-.207-.031,1.721,1.721,0,0,1-.392-.072.973.973,0,0,1-.452-.365l-.022-.027-.051.018a.852.852,0,0,1-.653.028.892.892,0,0,1-.425-.532l-.014-.036h-.05a.9.9,0,0,1-.563-.119,1.458,1.458,0,0,1-.345-.346,1.36,1.36,0,0,0-.091-.11,1.26,1.26,0,0,0-.127-.036.9.9,0,0,1-.534-.288,2.83,2.83,0,0,1-.409-.642.832.832,0,0,1,.15-.76c.019-.031.046-.075.06-.1a.441.441,0,0,1,.438-.39h0a.442.442,0,0,1,.439.443.982.982,0,0,1-.188.511l-.036.059a3.027,3.027,0,0,0,.2.288l.089.024a1.1,1.1,0,0,1,.485.218,1.618,1.618,0,0,1,.218.243,1.343,1.343,0,0,0,.106.126h.077a1.018,1.018,0,0,1,.542.094.869.869,0,0,1,.365.482.888.888,0,0,1,.624-.035.972.972,0,0,1,.406.342c.02.026.048.061.068.082a1.5,1.5,0,0,0,.171.023,1.99,1.99,0,0,1,.366.062,1.584,1.584,0,0,0,.23.04,2.632,2.632,0,0,1,.331.058.515.515,0,0,0,.176.019,1.385,1.385,0,0,1,.412.047.771.771,0,0,1,.5.4.763.763,0,0,1,.643-.13.839.839,0,0,1,.5.363l.018.025a1.313,1.313,0,0,1,.374.157.472.472,0,0,0,.158.066.951.951,0,0,1,.443.244l0,0a.728.728,0,0,1,1.315.195l.009,0a.925.925,0,0,1,.542-.019.882.882,0,0,1,.482.307l.027.031h0l.031-.014a.858.858,0,0,1,.6-.062.125.125,0,0,0,.025,0l.045-.012a.932.932,0,0,1,.54-.017.787.787,0,0,1,.536.647c0,.012.007.027.011.042l.169.042.179.043.029-.03a.787.787,0,0,1,.778-.307c.159.041.242.069.315.095s.122.042.246.073a.97.97,0,0,1,.453.251c.041.037.041.037.075.046a2.074,2.074,0,0,1,.342.116,1.215,1.215,0,0,0,.214.073.218.218,0,0,0,.123,0,1.079,1.079,0,0,1,.475.021.854.854,0,0,1,.5.346l.02.026a.873.873,0,0,1,.441.267.717.717,0,0,1,1.3.3l.01.032a2,2,0,0,1,.246.089,1.211,1.211,0,0,0,.148.055l.017-.013a.789.789,0,0,1,.709-.188.165.165,0,0,0,.106,0,1.014,1.014,0,0,1,.5.01.784.784,0,0,1,.537.613l.006.019.038,0a1.122,1.122,0,0,1,.432.02l.023-.012a.815.815,0,0,1,.641-.1.937.937,0,0,1,.464.27.451.451,0,0,0,.035.033h0a.131.131,0,0,0,.026.009,2.3,2.3,0,0,1,.335.11,1.358,1.358,0,0,0,.172.059l.018-.012a.8.8,0,0,1,.682-.151.9.9,0,0,1,.474.291l.031.032h0l.015,0a2.535,2.535,0,0,1,.329.105,1.671,1.671,0,0,0,.23.073,1.605,1.605,0,0,1,.35.147c.047.024.094.049.133.064l.081-.032a.956.956,0,0,1,.552-.092.654.654,0,0,0,1.1.166.912.912,0,0,1,.507.293l.061.056c.038,0,.086-.009.132-.017a1.591,1.591,0,0,1,.39-.024.936.936,0,0,1,.49.228l0,0a.7.7,0,0,1,1.237.052l.045.056.1-.019a1.863,1.863,0,0,1,.342-.047c.024-.011.064-.035.091-.052a1,1,0,0,1,.5-.176,1.1,1.1,0,0,1,.462.113c.029.013.069.029.1.039.024-.012.058-.032.083-.047a1.034,1.034,0,0,1,.479-.174.929.929,0,0,1,.55.185l.075.046c.045-.009.1-.024.153-.041a1.869,1.869,0,0,1,.358-.078,1.78,1.78,0,0,1,.378.015,1.205,1.205,0,0,0,.178.014c.024-.012.068-.041.1-.061a1.072,1.072,0,0,1,.453-.2.94.94,0,0,0,.123-.062,1.234,1.234,0,0,1,.411-.161.817.817,0,0,1,.571.158.8.8,0,0,1,.508-.442.843.843,0,0,1,.726.312l.006.006a.964.964,0,0,1,.4-.266c.02-.015.057-.051.082-.075a1.025,1.025,0,0,1,.421-.279.939.939,0,0,1,.575.047l.087.027.173-.054c.11-.034.214-.066.309-.1a2.551,2.551,0,0,1,.32-.091l.132-.033.025-.074a.845.845,0,0,1,.392-.557,1.371,1.371,0,0,1,.393-.111.844.844,0,0,0,.139-.03,1.472,1.472,0,0,1,.37-.136.923.923,0,0,0,.139-.043,1.3,1.3,0,0,1,.4-.162,1.179,1.179,0,0,0,.12-.036,4.567,4.567,0,0,0,.383-.344.821.821,0,0,0,.095-.179,2.083,2.083,0,0,1,.1-.206c0-.022-.009-.048-.013-.067a.892.892,0,0,1,.006-.513.918.918,0,0,1,.4-.431l.039-.026c.008-.052.018-.1.027-.154s.026-.134.029-.182c-.025-.026-.065-.061-.093-.087a1.461,1.461,0,0,1-.269-.292.441.441,0,0,1,.741-.479,1.053,1.053,0,0,0,.116.113,1.06,1.06,0,0,1,.352.472,1.261,1.261,0,0,1-.009.621,1.58,1.58,0,0,0-.025.157.765.765,0,0,1-.421.592l-.03.02a.04.04,0,0,0,0,.007.837.837,0,0,1-.079.677,1.151,1.151,0,0,0-.065.134,1.4,1.4,0,0,1-.269.437,5.315,5.315,0,0,1-.472.424,1.121,1.121,0,0,1-.437.194.83.83,0,0,0-.143.046,1.279,1.279,0,0,1-.4.16.826.826,0,0,0-.16.052,1.232,1.232,0,0,1-.425.131l-.073.013c-.007.021-.015.043-.021.061a.851.851,0,0,1-.427.58,2.164,2.164,0,0,1-.366.11,1.849,1.849,0,0,0-.21.057c-.121.046-.242.083-.36.119l-.2.064a.905.905,0,0,1-.587-.04l-.063-.02-.047.046a1.06,1.06,0,0,1-.416.28c-.02.017-.053.05-.077.074a.977.977,0,0,1-.471.305.762.762,0,0,1-.683-.26.746.746,0,0,1-.492.391.861.861,0,0,1-.627-.185l-.057-.036-.069.037a1.231,1.231,0,0,1-.416.162c-.023.011-.068.041-.1.062a1.06,1.06,0,0,1-.471.2,1.667,1.667,0,0,1-.4-.013,1.051,1.051,0,0,0-.192-.013,1.184,1.184,0,0,0-.192.046,1.79,1.79,0,0,1-.382.08.915.915,0,0,1-.562-.184l-.054-.033-.059.034a1.026,1.026,0,0,1-.494.175,1.1,1.1,0,0,1-.476-.113c-.028-.012-.066-.028-.094-.037-.023.012-.054.031-.077.045a.984.984,0,0,1-.513.177h-.006a1.127,1.127,0,0,0-.189.029,1.753,1.753,0,0,1-.367.048Z" transform="translate(-513.26 -1584.204)" fill="#ff913d"/><path d="M591.383,1581.207c-2.385,1.346-7.054,1.753-10.376.9l-12.78-3.264c-3.322-.848-3.984-2.516-1.473-3.707s7.3-1.518,10.632-.728l12.268,2.909C592.99,1578.113,593.768,1579.861,591.383,1581.207Z" transform="translate(-557.875 -1571.994)" fill="#ffd44d"/></g><g transform="translate(15.967)"><g transform="translate(0 55.005)"><path d="M626.084,1592.176l8.129,1.9,2.621-1.722-7.63-1.735Z" transform="translate(-626.084 -1588.69)" fill="#aeaeaf"/><path d="M672.453,1596.667l-4.669-1.062c.073.35.153.7.223.92a2.717,2.717,0,0,1,.813,1.479l1.178.275Z" transform="translate(-661.882 -1592.969)" fill="#aeaeaf" opacity="0.2" style="mix-blend-mode:multiply;isolation:isolate"/><path d="M669.352,1580.627l4.867-3.211c-.072-.01-.13-.013-.187-.017a1.869,1.869,0,0,1-.376-.055,1.941,1.941,0,0,1-.362-.119,2.238,2.238,0,0,0-.426-.14.772.772,0,0,1-.257-.1.045.045,0,0,1-.012,0l-3.871,2.665Z" transform="translate(-662.692 -1576.981)" fill="#f7bd78" opacity="0.2" style="mix-blend-mode:multiply;isolation:isolate"/><path d="M631.821,1597.777l-2.242-.765.82-.571h0l-1.37.683Z" transform="translate(-628.612 -1593.687)" fill="#aeaeaf" opacity="0.6" style="mix-blend-mode:screen;isolation:isolate"/></g><g transform="translate(4.547)"><g transform="translate(1.817)"><path d="M690.208,1188.595a3.88,3.88,0,0,0-1.008-.266.015.015,0,0,0-.011.008q-9.069,26.591-18.138,53.181a.015.015,0,0,1,.011-.007,3.887,3.887,0,0,1,1.008.265,2.11,2.11,0,0,1,.733.34l18.139-53.181A2.116,2.116,0,0,0,690.208,1188.595Z" transform="translate(-671.05 -1188.326)" fill="#3e9663"/><path d="M697.826,1190.753l-18.14,53.181c.328.126.542.232.53.266l18.139-53.181C698.366,1190.985,698.152,1190.878,697.826,1190.753Z" transform="translate(-678.464 -1190.41)" fill="#3e9663" opacity="0.2" style="mix-blend-mode:multiply;isolation:isolate"/></g><g transform="translate(0 53.117)"><path d="M661.959,1564.379a2.541,2.541,0,0,0-.884-.41,4.681,4.681,0,0,0-1.215-.32.018.018,0,0,0-.014.009l-1.636,4.8v0c-.027.046.347.221.883.411a4.683,4.683,0,0,0,1.216.32.018.018,0,0,0,.013-.013.027.027,0,0,1,0,0Zm-3.747,4.075a.026.026,0,0,1,.011-.007A.026.026,0,0,0,658.212,1568.455Z" transform="translate(-658.209 -1563.646)" fill="#aeaeaf"/><path d="M660.611,1569.073l1.7-4.976c-.1-.029-.193-.054-.276-.075l-1.685,4.941C660.423,1569,660.513,1569.034,660.611,1569.073Z" transform="translate(-660.044 -1563.969)" fill="#aeaeaf" opacity="0.4" style="mix-blend-mode:screen;isolation:isolate"/><path d="M669.88,1572.081a.019.019,0,0,0,.013-.013.023.023,0,0,1,0,0l1.637-4.8c.012-.035-.176-.134-.478-.257l-1.694,4.967A1.736,1.736,0,0,0,669.88,1572.081Z" transform="translate(-667.78 -1566.538)" fill="#aeaeaf" opacity="0.4" style="mix-blend-mode:multiply;isolation:isolate"/></g></g></g></g><g transform="translate(582.002 1128.645)"><g transform="translate(1.871 1.934)"><path d="M1022.975,1209.668l-5.646,3.392-5.131,4.129,1.3,3.205a23.335,23.335,0,0,0,12.04-8.4Z" transform="translate(-1012.198 -1209.668)" fill="#527dba"/><g transform="translate(0.02 0.196)"><path d="M1055.412,1244.007l-.347.242,1.8,2.9a.987.987,0,0,0,.642-.448Z" transform="translate(-1049.018 -1239.343)" fill="#6e9edb"/><path d="M1050.3,1247.666l-.353.231,1.71,2.942a.985.985,0,0,0,.653-.427Z" transform="translate(-1044.624 -1242.484)" fill="#6e9edb"/><path d="M1045.222,1251.191l-.359.219,1.617,2.986a.983.983,0,0,0,.664-.406Z" transform="translate(-1040.259 -1245.51)" fill="#6e9edb"/><path d="M1039.976,1254.611l-.365.208,1.523,3.03a.982.982,0,0,0,.675-.385Z" transform="translate(-1035.751 -1248.446)" fill="#6e9edb"/><path d="M1034.733,1257.7l-.371.2,1.429,3.073a.981.981,0,0,0,.687-.364Z" transform="translate(-1031.245 -1251.101)" fill="#6e9edb"/><path d="M1029.44,1260.4l-.377.186,1.336,3.117a.981.981,0,0,0,.7-.343Z" transform="translate(-1026.696 -1253.412)" fill="#6e9edb"/><path d="M1024.044,1262.617l-.383.175,1.242,3.16a.983.983,0,0,0,.708-.322Z" transform="translate(-1022.058 -1255.319)" fill="#6e9edb"/><path d="M1018.492,1264.3l-.389.163,1.149,3.2a.985.985,0,0,0,.72-.3Z" transform="translate(-1017.287 -1256.762)" fill="#6e9edb"/><path d="M1012.732,1265.368l-.4.152,1.055,3.247a.988.988,0,0,0,.731-.281Z" transform="translate(-1012.337 -1257.681)" fill="#6e9edb"/><path d="M1060.25,1240.691l.339-.252,2.172,2.62a.984.984,0,0,1-.626.466Z" transform="translate(-1053.469 -1236.28)" fill="#6e9edb"/><path d="M1065.3,1237.116l.33-.261,2.245,2.548a.983.983,0,0,1-.611.483Z" transform="translate(-1057.803 -1233.202)" fill="#6e9edb"/><path d="M1070.306,1233.349l.322-.271,2.318,2.475a.981.981,0,0,1-.594.5Z" transform="translate(-1062.102 -1229.961)" fill="#6e9edb"/><path d="M1075,1229.472l.313-.281,2.391,2.4a.981.981,0,0,1-.579.518Z" transform="translate(-1066.135 -1226.624)" fill="#6e9edb"/><path d="M1079.344,1225.408l.3-.29,2.465,2.329a.981.981,0,0,1-.563.536Z" transform="translate(-1069.861 -1223.127)" fill="#6e9edb"/><path d="M1083.278,1221.087l.3-.3,2.538,2.256a.983.983,0,0,1-.547.554Z" transform="translate(-1073.238 -1219.409)" fill="#6e9edb"/><path d="M1086.76,1216.432l.287-.309,2.611,2.184a.985.985,0,0,1-.531.571Z" transform="translate(-1076.227 -1215.405)" fill="#6e9edb"/><path d="M1089.739,1211.371l.279-.319,2.684,2.111a.989.989,0,0,1-.516.589Z" transform="translate(-1078.785 -1211.052)" fill="#6e9edb"/></g></g><g transform="translate(0 0)"><path d="M1015.378,1199.841l-.177.244a2.944,2.944,0,0,0-1.5-.154c-1.389.2-3.887,1.977-5.018,2.766s-3.661,2.52-4.328,3.755a2.944,2.944,0,0,0-.374,1.462l-.29.082a2.735,2.735,0,0,0,.942,1.3h0a1.642,1.642,0,0,0,1.322.229c1.558-.313,3.684-1.773,5.416-2.981s3.836-2.7,4.666-4.055a1.642,1.642,0,0,0,.241-1.319h0A2.734,2.734,0,0,0,1015.378,1199.841Z" transform="translate(-1003.024 -1199.297)" fill="#acb0bc"/><path d="M1012.495,1196.034c-1.389.2-3.887,1.977-5.018,2.766s-3.661,2.52-4.328,3.755c-.887,1.644-.138,3.426,1.6,3.078,1.558-.312,3.684-1.773,5.416-2.981s3.836-2.7,4.667-4.055C1015.758,1197.086,1014.344,1195.769,1012.495,1196.034Z" transform="translate(-1002.238 -1196)" fill="#c4c7d1"/><path d="M1010.579,1203.056c-1.6,1.118-3.8,2.65-5.387,2.969a1.465,1.465,0,0,1-1.554-.507,2.34,2.34,0,0,1,.037-2.458c.628-1.164,2.989-2.812,4-3.515l.612-.427c1.008-.7,3.369-2.351,4.679-2.539a2.339,2.339,0,0,1,2.32.813,1.464,1.464,0,0,1-.06,1.634c-.848,1.382-3.042,2.913-4.645,4.032Z" transform="translate(-1002.696 -1196.467)" fill="#e5e5eb"/><path d="M1018.036,1238.774a.869.869,0,0,1,.117.5c-.018.177.378.182.579-.3s-.13-.782-.6-.657S1017.857,1238.6,1018.036,1238.774Z" transform="translate(-1015.168 -1232.302)" fill="#e5e5eb" opacity="0.5" style="mix-blend-mode:multiply;isolation:isolate"/><path d="M999.547,1205.332c-.648-1.335-1.272-3.278,1.36-5.239s4.132-3.324,5.27-2.8,1.654,1.537.69,2.21-3.957,2.667-4.375,2.96-.741.7-.632,1.063C1001.773,1204.168,1000,1205.379,999.547,1205.332Z" transform="translate(-998.981 -1197.013)" fill="#e5e5eb"/><path d="M1023.633,1197.3a1.224,1.224,0,0,0-.473-.111c.279,2.093-2.168,3.883-3.4,5.029a1.2,1.2,0,0,0-.441,1,1.557,1.557,0,0,1,.628-.75c.418-.292,3.412-2.287,4.375-2.96S1024.771,1197.826,1023.633,1197.3Z" transform="translate(-1016.438 -1197.023)" fill="#e5e5eb" opacity="0.8" style="mix-blend-mode:multiply;isolation:isolate"/><path d="M999.547,1232.44a.336.336,0,0,0,.076,0,3.887,3.887,0,0,1-.189-3.681A3.682,3.682,0,0,0,999.547,1232.44Z" transform="translate(-998.982 -1224.12)" fill="#c4c7d1"/><path d="M1064.318,1196.654a9.686,9.686,0,0,1-2.083,5.743,14.109,14.109,0,0,0,3.576-3.278,1.464,1.464,0,0,0,.06-1.634A2.063,2.063,0,0,0,1064.318,1196.654Z" transform="translate(-1053.282 -1196.561)" fill="#e5e5eb" opacity="0.5" style="mix-blend-mode:multiply;isolation:isolate"/><g transform="translate(0.58 4.553)"><path d="M1004.1,1228.259c.29.176.255.489.073.791s-.444.478-.734.3a.639.639,0,0,1,.662-1.093Z" transform="translate(-1003.138 -1228.173)" fill="#fff"/><path d="M1003.716,1239.236a.325.325,0,1,1-.409-.209A.325.325,0,0,1,1003.716,1239.236Z" transform="translate(-1003.082 -1237.477)" fill="#fff"/></g></g></g><g transform="translate(527.894 1157.516)"><g transform="translate(38.396 3.654)"><g transform="translate(0 7.463)"><path d="M917.671,1478.575a31.4,31.4,0,0,0-9.732,1.56,27.594,27.594,0,0,0-7.6,5.728c-.845,1.188-2.017,6.513-2.637,7.313a45.328,45.328,0,0,0-3.325,4.386c-.572,1.1.021,3.421-.368,5.879a44.471,44.471,0,0,1-1.1,5.3,15.8,15.8,0,0,1-4.943,2.91c3.261,1.478,6.363,3.885,8.661,4.666s11.073,4.18,16.721,5,12.931-.868,16.955-.885,7.457-1.278,9.089-1.109a21.889,21.889,0,0,1-3.616-3.847c-.7-1.184-1.085-.873-1.087-2.986a12.6,12.6,0,0,1,.459-3.592c.372-1.843-.171-3.7-.676-5.81s.023-4.659-.336-6.425-1.359-5.618-2.3-7.119a36.059,36.059,0,0,0-5.112-5.483A29.969,29.969,0,0,0,917.671,1478.575Z" transform="translate(-887.961 -1478.548)" fill="#ccccd1"/><path d="M919.159,1522.842c-.589-.037-1.154-.094-1.681-.171-4.693-.683-11.689-3.2-15.052-4.414-.694-.25-1.242-.447-1.622-.576a24.657,24.657,0,0,1-4.159-2.193c-1.262-.76-2.562-1.542-3.913-2.2,1.913-.812,4.3-2.329,4.514-2.824a43.511,43.511,0,0,0,1.121-5.362,17.427,17.427,0,0,0,.124-3.283,6.009,6.009,0,0,1,.217-2.514,30.44,30.44,0,0,1,2.625-3.51c.28-.343.522-.639.674-.835a15.64,15.64,0,0,0,1.189-3.3,20.618,20.618,0,0,1,1.454-4.021,27.468,27.468,0,0,1,7.488-5.637,31.882,31.882,0,0,1,9.43-1.556c.048,0,.092.007.132.011a29.434,29.434,0,0,1,8.93,5.419,37.464,37.464,0,0,1,5.066,5.429c.937,1.487,1.933,5.378,2.268,7.029a13.155,13.155,0,0,1,.115,2.751,14.588,14.588,0,0,0,.224,3.683q.075.314.151.622a11.709,11.709,0,0,1,.524,5.072c-.025.123-.057.251-.093.4a11.875,11.875,0,0,0-.372,3.247c0,1.556.21,1.887.642,2.432a5.6,5.6,0,0,1,.483.689,14.53,14.53,0,0,0,2.642,2.931l.535.508a22.17,22.17,0,0,0-2.516.4,31.6,31.6,0,0,1-5.905.717,52.637,52.637,0,0,0-5.365.47,56.8,56.8,0,0,1-9.87.589Z" transform="translate(-892.057 -1480.169)" fill="#e5e5eb"/><path d="M992.422,1533.613c-4.806,1.71-9.53,3.513-10.75,4.462s-3.735,6.139-4.175,9.045-4.059,9.254-2.623,13.083,10.275,5.042,13.165,6.253,15.412-.71,17.386-.612.7-6.628,1.245-8.478c1.132-3.8,1.105-9.083-2.091-12.32S1001.228,1530.479,992.422,1533.613Z" transform="translate(-962.286 -1525.354)" fill="#e5e5eb" opacity="0.3" style="mix-blend-mode:multiply;isolation:isolate"/><path d="M978.867,1501.215c-3.334,1.186-6.611,2.437-7.457,3.1s-2.591,4.258-2.9,6.274-2.816,6.419-1.819,9.075,5.856,5.018,7.86,5.858,10.64-2.43,12.008-2.362,4.247-5.922,5.116-6.941-.4-6.9-2.614-9.145S984.976,1499.041,978.867,1501.215Z" transform="translate(-955.353 -1497.595)" fill="#ccccc4" opacity="0.3" style="mix-blend-mode:screen;isolation:isolate"/><path d="M999.133,1513.01a24.871,24.871,0,0,0-4.191,1.739,8.452,8.452,0,0,0-1.627,3.526c-.171,1.133-1.582,3.607-1.022,5.1s3.291,2.82,4.417,3.291,5.979-1.365,6.748-1.327,2.386-3.328,2.875-3.9-.223-3.877-1.469-5.139S1002.565,1511.788,999.133,1513.01Z" transform="translate(-977.415 -1507.901)" fill="#ccccc4" opacity="0.3" style="mix-blend-mode:screen;isolation:isolate"/><g transform="translate(0 6.621)"><path d="M939.389,1559.485a21.889,21.889,0,0,1-3.616-3.847c-.7-1.184-1.085-.872-1.087-2.986a12.6,12.6,0,0,1,.459-3.592c.372-1.843-.171-3.7-.676-5.81s.023-4.659-.336-6.425-1.359-5.618-2.3-7.119a29.043,29.043,0,0,0-3.928-4.373,41.547,41.547,0,0,1,1.733,6.586c.368,2.7,1.765,4.667,1.743,5.023s-1.742,3.557-1.8,4.537.729,4.069-.629,5.773a24.064,24.064,0,0,1-6.018,4.72c-1.948,1.13-4.057,2.138-4.063,2.239s8.8.785,9.175,1.278-7.185.691-9.3.76-4.042-1.326-5.453-1.28-9.056.037-9.782-.142-4.088-2.2-4.484-2.292a27.392,27.392,0,0,0-3.269-1.345c-.864-.121,4.158-1.081,4.171-1.282s-3.816-1.244-4.052-2.265.495-4.127.683-4.987-1.359-2.929-1.105-3.772,3.022-4.357,3.356-5.41a14.991,14.991,0,0,0,.1-3.518,17.593,17.593,0,0,1-1.2,3.383,45.345,45.345,0,0,0-3.325,4.386c-.572,1.1.021,3.421-.368,5.879a44.465,44.465,0,0,1-1.1,5.3,15.8,15.8,0,0,1-4.943,2.91c3.261,1.478,6.363,3.885,8.661,4.666s11.073,4.18,16.721,5,12.931-.868,16.955-.885S937.756,1559.316,939.389,1559.485Z" transform="translate(-887.961 -1525.333)" fill="#dbdbe0" style="mix-blend-mode:multiply;isolation:isolate"/><path d="M1055.92,1644.446a48.5,48.5,0,0,0-5.772.667c-.554.278-5.757,6.972-6.191,7.482s5.823-3.034,7-3.318,6.642-3.967,7.026-4.389S1058.59,1644.233,1055.92,1644.446Z" transform="translate(-1021.86 -1627.519)" fill="#e5e3e6" style="mix-blend-mode:multiply;isolation:isolate"/><path d="M1003.731,1545.332c.095.4,1.091,4,1.33,4.465s-2.407-1.536-3.014-1.843,1.356-3.8,1.573-4.417S1003.627,1544.892,1003.731,1545.332Z" transform="translate(-985.802 -1540.86)" fill="#e5e3e6" style="mix-blend-mode:multiply;isolation:isolate"/><path d="M966.774,1679.717a20.931,20.931,0,0,0,3,.237c.151-.041,2.332-1.641,2.637-1.884a20.579,20.579,0,0,0-2.608.862C969.52,1679.007,966.386,1679.63,966.774,1679.717Z" transform="translate(-955.592 -1656.422)" fill="#e5e3e6" style="mix-blend-mode:multiply;isolation:isolate"/></g><g transform="translate(22.809 0.486)"><path d="M1054.879,1481.984c-1.336.637-4.4,1.653-5.317,4.233s-.3,2.619,1.033,1.361S1053.718,1483.393,1054.879,1481.984Z" transform="translate(-1049.124 -1481.984)" fill="#e5e3e6" style="mix-blend-mode:multiply;isolation:isolate"/><path d="M1099.1,1484.5c.29,1.806.654,8.848,2.02,10.588s2.464,2.077,2.867-1.52S1101.657,1488.926,1099.1,1484.5Z" transform="translate(-1092.03 -1484.144)" fill="#e5e3e6" style="mix-blend-mode:multiply;isolation:isolate"/></g></g><g transform="translate(20.432)"><path d="M1041.861,1433.731c-.953-1.18-2.494-2.365-3.393-3.909s-.984-1.939-6.134-4.005c1.207,2.118,1.208,4.305,2.511,5.593C1036,1432.547,1039.712,1433.125,1041.861,1433.731Z" transform="translate(-1032.334 -1425.817)" fill="#ccccd1"/><path d="M1045.786,1437.469c-.329-.081-.676-.162-1.034-.247-1.874-.441-4.388-1.067-5.192-1.861a5.973,5.973,0,0,1-1.163-2.675,18.274,18.274,0,0,0-.875-2.122c4.241,1.731,4.534,2.161,5.285,3.458l.092.157a13.807,13.807,0,0,0,2.249,2.634c.221.224.437.441.639.655Z" transform="translate(-1036.788 -1429.893)" fill="#e5e5eb"/><path d="M1072.359,1462.1c-.8-.679-1.506-1.212-1.838-1.491s-1.416-1.109-1.34-.589S1069.459,1460.953,1072.359,1462.1Z" transform="translate(-1063.964 -1455.033)" fill="#e5e3e6" style="mix-blend-mode:multiply;isolation:isolate"/><g transform="translate(8.993 3.823)"><path d="M1095.876,1456.75c1.3-.83,3.12-3.241,5.291-3.826,1.328-.358,3.92.35,5.2.928-1.251,1.42-3.2,3.012-4.318,3.283C1100.206,1457.58,1098.147,1456.931,1095.876,1456.75Z" transform="translate(-1095.876 -1452.827)" fill="#ccccd1"/><path d="M1103.1,1458.78c-.654-.041-1.33-.142-2.046-.25-.47-.071-.95-.143-1.443-.2.306-.253.629-.552.963-.861a9.791,9.791,0,0,1,3.684-2.508,3.672,3.672,0,0,1,1.151-.076,12.657,12.657,0,0,1,3.523.845,11.194,11.194,0,0,1-3.93,2.924,6.289,6.289,0,0,1-1.9.127Z" transform="translate(-1099.081 -1454.583)" fill="#e5e5eb"/><path d="M1103.778,1470.946c.668-.309,1.531-1.084,1.875-1.221a2.336,2.336,0,0,1,1.446.135C1107.337,1470.022,1104.992,1470.695,1103.778,1470.946Z" transform="translate(-1102.66 -1467.28)" fill="#e5e3e6" style="mix-blend-mode:multiply;isolation:isolate"/></g><g transform="translate(7.229 6.531)"><path d="M1085.474,1471.973a2.528,2.528,0,0,0-2.046.826c-.163.366.911,1.211,1.314,1.336.783.244,2.32,0,2.359-.394A2.475,2.475,0,0,0,1085.474,1471.973Z" transform="translate(-1083.411 -1471.964)" fill="#e5e5eb"/><path d="M1090.35,1475.472a2,2,0,0,1-2.271,1.266,2.53,2.53,0,0,0,.67.409c.783.243,2.32,0,2.359-.394A2.362,2.362,0,0,0,1090.35,1475.472Z" transform="translate(-1087.418 -1474.976)" fill="#e5e3e6" style="mix-blend-mode:multiply;isolation:isolate"/></g></g></g><g transform="translate(21.255 14.33)"><g transform="translate(0 4.02)"><path d="M789.1,1529.657a24.482,24.482,0,0,1-2.533.124,4.688,4.688,0,0,0-2.409.673,17.169,17.169,0,0,0-4.18,2.6,15.241,15.241,0,0,1-2.958,2.427c-1.558,1.027-2.763,2.9-4.18,4.358a17.876,17.876,0,0,0-3.543,6.979,68.335,68.335,0,0,1-1.275,7.191c-.638,2.019-1.346,3.755-1.134,4.676s3.224,5.526,4.995,6.448,3.079.461,6.092,1.275,6.343,2.3,10.417,2.2a28.4,28.4,0,0,0,9.955-2.232,70.293,70.293,0,0,1,6.766-2.019c2.444-.708,3.932-.992,5.7-3.153a8.7,8.7,0,0,0,2.329-7.05c-.354-2.8-1.16-2.492-1.763-5.019a22.6,22.6,0,0,0-2.409-6c-.991-1.842-1.1-3.188-3.046-6.129s-4.925-4.18-7.192-5.1A33.172,33.172,0,0,0,789.1,1529.657Z" transform="translate(-766.845 -1529.657)" fill="#ccccd1"/><path d="M789.547,1569.941a25.15,25.15,0,0,1-7.708-1.523c-.772-.244-1.5-.474-2.225-.67a19.264,19.264,0,0,0-3.273-.575,7.081,7.081,0,0,1-2.766-.68c-1.661-.864-4.657-5.389-4.862-6.275a8.479,8.479,0,0,1,.739-3.349c.127-.384.259-.78.389-1.191a34.111,34.111,0,0,0,.942-5c.116-.824.225-1.6.341-2.227a17.582,17.582,0,0,1,3.473-6.844c.5-.512.977-1.081,1.438-1.63a13.6,13.6,0,0,1,2.7-2.691,15.464,15.464,0,0,0,3-2.462,16.987,16.987,0,0,1,4.1-2.548,4.984,4.984,0,0,1,2.125-.653l.169,0c.062,0,.134,0,.213,0,.643,0,1.782-.061,2.33-.125a32.685,32.685,0,0,1,9.536,2.229c2.169.881,5.14,2.088,7.072,5a20.6,20.6,0,0,1,2.16,4.169,18.188,18.188,0,0,0,.874,1.94,22.338,22.338,0,0,1,2.385,5.936,7.983,7.983,0,0,0,.9,2.295,6.23,6.23,0,0,1,.856,2.7c.313,2.477-.366,4.526-2.273,6.852-1.581,1.929-2.875,2.3-5.017,2.908l-.558.16c-.765.222-1.414.391-2.042.555a42.97,42.97,0,0,0-4.743,1.471,28.234,28.234,0,0,1-9.871,2.216q-.205,0-.408,0Z" transform="translate(-768.419 -1531.245)" fill="#e5e5eb"/><path d="M868.106,1553.645c-3.967,2.722-7.836,5.508-8.718,6.668s-1.919,6.5-1.616,9.254-1.46,9.417.775,12.558,10.585,2.108,13.511,2.513,13.874-4.376,15.7-4.765-.971-6.209-.917-8.028c.112-3.74-1.19-8.546-4.887-10.723S875.373,1548.659,868.106,1553.645Z" transform="translate(-844.581 -1549.093)" fill="#e5e5eb" opacity="0.3" style="mix-blend-mode:multiply;isolation:isolate"/><path d="M823.758,1548.8c-3.163,1.353-6.267,2.766-7.047,3.456s-2.256,4.288-2.429,6.263-2.343,6.4-1.215,8.916,5.987,4.513,7.982,5.206,10.176-3,11.508-3.02,3.762-6,4.542-7.045-.8-6.67-3.092-8.714S829.553,1546.317,823.758,1548.8Z" transform="translate(-806.248 -1545.547)" fill="#ccccc4" opacity="0.3" style="mix-blend-mode:screen;isolation:isolate"/><path d="M841.348,1561.448a24.145,24.145,0,0,0-3.96,1.942,8.212,8.212,0,0,0-1.365,3.52c-.1,1.109-1.316,3.6-.683,5.01s3.364,2.536,4.485,2.926,5.718-1.688,6.467-1.7,2.114-3.374,2.552-3.959-.452-3.748-1.737-4.9S844.6,1560.054,841.348,1561.448Z" transform="translate(-825.49 -1556.644)" fill="#ccccc4" opacity="0.3" style="mix-blend-mode:screen;isolation:isolate"/><g transform="translate(16.183 0.213)"><path d="M886.791,1531.887a9.1,9.1,0,0,0-1.674.476,13.492,13.492,0,0,0-2.887,1.817c-.685.656-1.27,1.964-.942,2.485s1.338-1.022,2.083-1.935a26.429,26.429,0,0,1,2.112-2.257A5.591,5.591,0,0,1,886.791,1531.887Z" transform="translate(-881.194 -1531.784)" fill="#e5e3e6" style="mix-blend-mode:multiply;isolation:isolate"/><path d="M895.337,1531.159a33.61,33.61,0,0,0-3.338,5.363c-.636,1.35-1.215,3.993-.964,4.475s2.874-3.511,3.3-4.244S894.747,1532.515,895.337,1531.159Z" transform="translate(-889.591 -1531.159)" fill="#e5e3e6" style="mix-blend-mode:multiply;isolation:isolate"/><path d="M929.955,1531.28a20.09,20.09,0,0,1,4.459,2.527c.791.812,2.8,3.185,2.489,4.459s-3.3-2.894-3.955-3.839A37.907,37.907,0,0,0,929.955,1531.28Z" transform="translate(-923.054 -1531.263)" fill="#e5e3e6" style="mix-blend-mode:multiply;isolation:isolate"/></g><g transform="translate(0 3.891)"><path d="M810.811,1584.808a8.7,8.7,0,0,0,2.329-7.05c-.354-2.8-1.16-2.492-1.763-5.019a22.6,22.6,0,0,0-2.409-6c-.991-1.842-1.1-3.188-3.046-6.129a11.287,11.287,0,0,0-3.725-3.46c.564,1.453,1.156,3.152,1.564,4.275.566,1.558,1.2,1.417.921,4.251s-.711,3.047.069,5.951-.354,3.685-1.593,5.668-4.5,5.1-6.979,5.031a9.6,9.6,0,0,0-6.212,1.842,9.163,9.163,0,0,1-6.116,1.63c-2.2-.142-6.093-.213-7.581-.283s-4.534-.638-4.818-2.551-1.408-1.469-1.691-4.729a21.447,21.447,0,0,1,1.125-8.733c.536-1.413,1.139-4.014,2.223-6.348-.091.1-.182.195-.275.29a17.875,17.875,0,0,0-3.543,6.979,68.343,68.343,0,0,1-1.275,7.191c-.638,2.019-1.346,3.755-1.134,4.676s3.224,5.526,4.995,6.448,3.079.46,6.092,1.275,6.343,2.3,10.417,2.2a28.4,28.4,0,0,0,9.955-2.232,70.328,70.328,0,0,1,6.766-2.019C807.552,1587.253,809.04,1586.969,810.811,1584.808Z" transform="translate(-766.845 -1557.153)" fill="#dbdbe0" style="mix-blend-mode:multiply;isolation:isolate"/><path d="M859.838,1655.726c-1.554,1.554-3.4,2.338-4.038,3.614s.3,1.629,2.769.921,2.731-3.047,3.913-3.826,2.723-5.668,1.1-4.109S860.83,1654.734,859.838,1655.726Z" transform="translate(-843.043 -1638.594)" fill="#e5e3e6" style="mix-blend-mode:multiply;isolation:isolate"/></g></g><g transform="translate(10.608)"><g transform="translate(0 0.647)"><path d="M851.348,1508.219c-.725-.365-1.72-1.372-2.544-1.757a5.435,5.435,0,0,0-1.852-.632,3.7,3.7,0,0,0-1.959.921c-1.081.814-2.666,1.392-3.19,2.109,1.082.482,2.527.722,3.287,1.308a4.719,4.719,0,0,0,2.644,1.181c.76-.075,4.014-1.611,4.9-1.665S852.722,1508.99,851.348,1508.219Z" transform="translate(-841.802 -1505.829)" fill="#ccccd1"/><path d="M850.1,1512.57a4.923,4.923,0,0,1-2.376-1.137,6.7,6.7,0,0,0-2-.861c-.344-.109-.7-.221-1.024-.347a8.4,8.4,0,0,1,1.4-.892,13.149,13.149,0,0,0,1.52-.935,3.51,3.51,0,0,1,1.822-.873h.018a5.812,5.812,0,0,1,1.726.609,8.007,8.007,0,0,1,1.346.923,8.112,8.112,0,0,0,1.192.831,6.11,6.11,0,0,1,1.475,1c-.025,0-.056.007-.094.009a14.129,14.129,0,0,0-2.785.924,14.335,14.335,0,0,1-2.127.742c-.032,0-.064,0-.1,0Z" transform="translate(-844.288 -1507.285)" fill="#e5e5eb"/><path d="M885.829,1522.235a19.2,19.2,0,0,0-3.051-.9c-.658-.016-2.072.273-1.718.706s1.469.128,2.357.128S885.513,1522.228,885.829,1522.235Z" transform="translate(-875.456 -1519.141)" fill="#e5e3e6" style="mix-blend-mode:multiply;isolation:isolate"/></g><g transform="translate(11.176)"><path d="M920.772,1505.612c.364-.435,1.076-1.995,1.552-2.573,1.45-1.764,2.779-1.864,4.534-1.751a16.148,16.148,0,0,1,4.169.932,26.362,26.362,0,0,0-3.592,2.73c-1.1.9-1.766,1.509-3.051,1.292A24.408,24.408,0,0,0,920.772,1505.612Z" transform="translate(-920.772 -1501.256)" fill="#ccccd1"/><path d="M927.527,1507.5a2.742,2.742,0,0,1-.456-.04c-.77-.13-1.273-.249-1.676-.344a9,9,0,0,0-1.54-.264c.137-.225.291-.506.458-.812a11.087,11.087,0,0,1,.843-1.395,4,4,0,0,1,3.493-1.7c.238,0,.505.01.84.032a14.278,14.278,0,0,1,3.613.762,20.544,20.544,0,0,0-2.354,1.794c-.26.22-.53.448-.816.68l-.174.142a3.524,3.524,0,0,1-2.23,1.141Z" transform="translate(-923.419 -1502.709)" fill="#e5e5eb"/><path d="M927.351,1518.888a6.78,6.78,0,0,1,2.569-1.485c.819-.1.835.361.241.743S928.111,1518.555,927.351,1518.888Z" transform="translate(-926.42 -1515.107)" fill="#e5e3e6" style="mix-blend-mode:multiply;isolation:isolate"/></g><g transform="translate(9.542 2.768)"><path d="M909.294,1521.168c.45.364.824,1,.7,1.349s.321.492.664.514,1.721-.1,1.813-.5a1.676,1.676,0,0,0-.839-1.534C911.039,1520.708,908.8,1520.764,909.294,1521.168Z" transform="translate(-909.222 -1520.815)" fill="#e5e5eb"/><path d="M911.051,1525.2c-.129.353.321.492.664.514s1.721-.1,1.813-.5a1.213,1.213,0,0,0-.1-.672,2.345,2.345,0,0,1-1.883.125,3.754,3.754,0,0,0-1.084-.725h0C910.859,1524.314,911.169,1524.876,911.051,1525.2Z" transform="translate(-910.283 -1523.5)" fill="#e5e3e6" style="mix-blend-mode:multiply;isolation:isolate"/></g></g></g><g transform="translate(17.01 27.682)"><path d="M960.638,1763.168a1.7,1.7,0,0,1-2.063-.531c-.625-.917-.469,1.031.063,1.469s1.26.615,1.563.3A1.527,1.527,0,0,0,960.638,1763.168Z" transform="translate(-926.847 -1738.789)" fill="#4f78c9"/><path d="M773.071,1601.7c0,3.367-8.108,5.9-18.11,5.9s-18.11-2.536-18.11-5.9c0-3.193,8.108-6.1,18.11-6.1S773.071,1598.5,773.071,1601.7Z" transform="translate(-736.85 -1595.599)" fill="#6e9de0"/><path d="M782.627,1608.754c0,2.631-7.264,4.612-16.224,4.612s-16.224-1.982-16.224-4.612c0-2.494,7.264-4.763,16.224-4.763S782.627,1606.26,782.627,1608.754Z" transform="translate(-748.293 -1602.803)" fill="#5480ce"/><g transform="translate(3.016 6.813)"><path d="M788.348,1648.5c0,2.631-6.758,4.612-15.095,4.612s-15.095-1.982-15.095-4.612c0-2.494,6.758-4.764,15.095-4.764S788.348,1646.008,788.348,1648.5Z" transform="translate(-758.158 -1643.739)" fill="#9ec7f5"/><path d="M876.858,1650.246c-1.656-1.138-6.563-2.357-9.063-2.451s-1.969.281-.938.813-.016.452-.375.406-.906.157-.266.5.688.672.031.61-.719.141-.406.375.094.5-.734.531-2.313,2.578.781,2.578S875.892,1651.634,876.858,1650.246Z" transform="translate(-849.034 -1647.208)" fill="#9ec7f5" opacity="0.4" style="mix-blend-mode:multiply;isolation:isolate"/></g><g transform="translate(0 6.097)"><path d="M764.786,1667.49c-5.219,0-14.916-2.5-16.491-3.729.208,2.292,1.833,17.355,2.167,18.939a4.232,4.232,0,0,0,2.375,3.459c1.834,1.167,6.98,2.458,11.949,2.458s10.115-1.292,11.949-2.458a4.232,4.232,0,0,0,2.375-3.459c.333-1.584,1.959-16.647,2.167-18.939C779.7,1664.988,770,1667.49,764.786,1667.49Z" transform="translate(-746.675 -1660.212)" fill="#6396dd"/><path d="M748.7,1667.887c2.975,1.94,9.11,3.214,16.2,3.214s13.222-1.273,16.2-3.214c.126-1.2.223-2.147.275-2.687-2.453,1.755-7.439,3-13.424,3.32a22.71,22.71,0,0,1-6.1,0c-5.985-.319-10.971-1.566-13.424-3.32C748.481,1665.74,748.578,1666.691,748.7,1667.887Z" transform="translate(-746.79 -1661.447)" fill="#5480ce"/><path d="M940.211,1705.33c-.353-.49-.941-.87-1.431-.516a1.094,1.094,0,0,0-.247,1.527c.249.345.542.744.852,1.165a28.924,28.924,0,0,1,3.428,6.043c.115-.968.238-2.038.364-3.147a37.861,37.861,0,0,0-2.125-3.922C940.744,1706.062,940.455,1705.668,940.211,1705.33Z" transform="translate(-909.812 -1695.336)" fill="#5480ce" opacity="0.5"/><path d="M774.754,1663.653a32.292,32.292,0,0,0,4.468.974,69.624,69.624,0,0,0,8.474.4c1.914-.126,2.735-.181,3.474-.234-.743.8-.839,1.953-.893,4.362s.089,8.345.265,10.091.131,1.768-1.535,2.046a29.134,29.134,0,0,1-8.341-.12c-2.491-.433-5-1.292-5.581-1.941s-.981-6.132-1.293-9.248c-.3-2.965-.516-4.8-.034-5.424S774.486,1663.567,774.754,1663.653Z" transform="translate(-768.293 -1660.108)" fill="#5480ce" opacity="0.5"/><g transform="translate(26.251 5.279)"><path d="M922.369,1677.7c-.047,1.36-.1,3.3.313,3.969a1.96,1.96,0,0,0,1.694,1h0l1.065.125-.055-.344a2.809,2.809,0,0,0,1.563-1.781,25.6,25.6,0,0,0,.391-4.688A37.517,37.517,0,0,1,922.369,1677.7Z" transform="translate(-922.337 -1675.981)" fill="#5480ce"/><path d="M923.463,1690.976l-1.106-.229c-.016.533-.028,1.121-.011,1.675Z" transform="translate(-922.338 -1688.657)" fill="#4f78c9"/><path d="M930.319,1678.583c-.047,1.359-.1,3.3.313,3.969,1.163,1.89,3.766.844,4.266-1a25.6,25.6,0,0,0,.391-4.688A37.521,37.521,0,0,1,930.319,1678.583Z" transform="translate(-929.162 -1676.739)" fill="#6396dd"/></g><path d="M754.961,1644.586c-10,0-18.11-2.536-18.11-5.9v2.5c0,3.367,8.108,5.9,18.11,5.9s18.11-2.536,18.11-5.9v-2.5C773.071,1642.05,764.963,1644.586,754.961,1644.586Z" transform="translate(-736.85 -1638.682)" fill="#6396dd"/><path d="M754.961,1644.586c10,0,18.11-2.536,18.11-5.9h-1.895c-.264,2.558-7.422,4.466-16.216,4.466s-15.952-1.908-16.216-4.466H736.85C736.85,1642.05,744.958,1644.586,754.961,1644.586Z" transform="translate(-736.85 -1638.682)" fill="#6e9de0"/><g transform="translate(28.533 7.841)"><path d="M945.158,1702.793a41.207,41.207,0,0,0-3.878-6.351c-.307-.417-.6-.811-.84-1.149a1.093,1.093,0,0,0-1.11-.43l.009-.045-.321.162a1.2,1.2,0,0,0-.105.067,1.094,1.094,0,0,0-.247,1.527c.249.346.542.744.852,1.165a45.711,45.711,0,0,1,3.962,5.96l.037.082a2.485,2.485,0,0,1-.1,2.06,1.339,1.339,0,0,1-.638.512q-.027.223-.053.432a1.48,1.48,0,0,0,.41-.1c.885-.448,1.124-1.908,1.271-2.346l.073,0c.151,0,.118-.032.265-.1A1.049,1.049,0,0,0,945.158,1702.793Z" transform="translate(-938.459 -1694.714)" fill="#5480ce"/><path d="M946.856,1702.258s-.033-.1-.057-.154a39.926,39.926,0,0,0-3.753-6.414c-.307-.417-.6-.811-.84-1.149a1.094,1.094,0,1,0-1.774,1.28c.249.346.542.744.852,1.165a45.694,45.694,0,0,1,3.962,5.961l.06.131a2.576,2.576,0,0,1-.658,2.979A2.853,2.853,0,0,0,946.856,1702.258Z" transform="translate(-939.975 -1694.087)" fill="#6396dd"/><g transform="translate(0.448)"><path d="M941.772,1694.426a1.134,1.134,0,0,1,1.583.256c.252.35.553.759.871,1.191a41.364,41.364,0,0,1,3.891,6.648c.024.052.058.16.059.16.008.021.014.042.022.063a3.231,3.231,0,0,0-.139-.487s-.033-.1-.057-.154a39.917,39.917,0,0,0-3.753-6.414c-.307-.417-.6-.811-.84-1.149a1.091,1.091,0,0,0-1.783.014A1.161,1.161,0,0,1,941.772,1694.426Z" transform="translate(-941.624 -1694.087)" fill="#6e9de0"/></g></g></g><g transform="translate(4.124 8.528)"><path d="M783.747,1657.771l.315-.022c-.219-.25-.3-.259-.343-.254-.74.031-1.563.062-3.479.132a69.671,69.671,0,0,1-8.459-.653,32.332,32.332,0,0,1-4.438-1.1c-.265-.094-.521.271-1.021.88s-.334,2.45-.125,5.422c.22,3.124.459,8.615,1.021,9.282s3.044,1.6,5.521,2.1a29.14,29.14,0,0,0,8.334.365,3.186,3.186,0,0,0,1.708-.552c.27-.279.208-.677.146-1.552-.125-1.75-.161-7.589-.036-10a13.488,13.488,0,0,1,.44-3.384c.064-.169.158-.335.228-.48C783.586,1657.9,783.63,1657.771,783.747,1657.771Z" transform="translate(-765.992 -1655.856)" fill="#bec6d1"/><path d="M767.342,1655.87a32.332,32.332,0,0,0,4.438,1.1,69.671,69.671,0,0,0,8.459.653c1.917-.07,2.74-.1,3.479-.132-.766.781-.9,1.927-1.021,4.334s-.156,8.344-.031,10.094.079,1.771-1.594,2a29.14,29.14,0,0,1-8.334-.365c-2.477-.506-4.959-1.438-5.521-2.1s-.8-6.158-1.021-9.282c-.209-2.972-.375-4.813.125-5.422S767.077,1655.776,767.342,1655.87Z" transform="translate(-765.992 -1655.856)" fill="#fff"/><g transform="translate(0.855 0.216)"><path d="M838.983,1726.381a.094.094,0,0,0,.019-.132l-.3-.407a.094.094,0,1,0-.151.11l.3.408A.094.094,0,0,0,838.983,1726.381Z" transform="translate(-829.123 -1716.12)" fill="#aab3d1"/><path d="M838.7,1677.23a.094.094,0,0,0-.134,0l-.37.355a.1.1,0,0,0,0,.135.094.094,0,0,0,.133,0l.368-.353A.1.1,0,0,0,838.7,1677.23Z" transform="translate(-828.807 -1674.396)" fill="#aab3d1"/><path d="M844.212,1733.5a.1.1,0,0,0,.018-.132l-.3-.4a.094.094,0,1,0-.151.111l.3.405A.094.094,0,0,0,844.212,1733.5Z" transform="translate(-833.608 -1722.23)" fill="#aab3d1"/><path d="M860.265,1754.56a.094.094,0,0,0,.015-.132l-.312-.4a.094.094,0,1,0-.148.115l.312.4A.094.094,0,0,0,860.265,1754.56Z" transform="translate(-847.379 -1740.321)" fill="#aab3d1"/><path d="M832.057,1684l.353-.369a.094.094,0,0,0,0-.133.1.1,0,0,0-.135,0l-.354.37a.094.094,0,1,0,.136.129Z" transform="translate(-823.422 -1679.782)" fill="#aab3d1"/><path d="M834.723,1777.469c.166.014.332.023.5.032a.094.094,0,0,0,.01-.187c-.165-.009-.33-.018-.495-.032a.094.094,0,0,0-.014.187Z" transform="translate(-825.776 -1760.314)" fill="#aab3d1"/><path d="M833.683,1719.2a.094.094,0,1,0,.152-.109l-.294-.41a.094.094,0,1,0-.153.109Z" transform="translate(-824.69 -1709.973)" fill="#aab3d1"/><path d="M854.43,1747.035a.094.094,0,0,0-.017.132l.308.4a.094.094,0,1,0,.148-.115l-.308-.4A.094.094,0,0,0,854.43,1747.035Z" transform="translate(-842.737 -1734.33)" fill="#aab3d1"/><path d="M843.414,1777.921l.5.011a.094.094,0,0,0,.094-.093.093.093,0,0,0-.092-.094l-.5-.011a.094.094,0,0,0-.006.188Z" transform="translate(-833.234 -1760.701)" fill="#aab3d1"/><path d="M820.487,1696.7a.1.1,0,0,0-.009-.134.094.094,0,0,0-.133.012l-.332.391a.094.094,0,0,0,.01.133.1.1,0,0,0,.134-.013Z" transform="translate(-813.202 -1691.005)" fill="#aab3d1"/><path d="M823.635,1704.806a.094.094,0,1,0,.154-.106l-.285-.417a.094.094,0,1,0-.155.106Z" transform="translate(-816.073 -1697.61)" fill="#aab3d1"/><path d="M817.448,1775.38l.493.081a.092.092,0,0,0,.106-.078.1.1,0,0,0-.078-.107l-.489-.08a.093.093,0,0,0-.108.075A.094.094,0,0,0,817.448,1775.38Z" transform="translate(-810.954 -1758.521)" fill="#aab3d1"/><path d="M815.936,1702.007l-.321.4a.094.094,0,1,0,.147.116l.319-.4a.094.094,0,1,0-.146-.118Z" transform="translate(-809.429 -1695.661)" fill="#aab3d1"/><path d="M849.373,1740.542a.094.094,0,1,0,.149-.114l-.3-.4a.094.094,0,1,0-.15.113Z" transform="translate(-838.149 -1728.298)" fill="#aab3d1"/><path d="M845.233,1671.21a.1.1,0,0,0-.134-.008c-.131.11-.256.227-.383.342a.094.094,0,1,0,.126.139c.126-.114.25-.23.381-.339A.094.094,0,0,0,845.233,1671.21Z" transform="translate(-834.401 -1669.226)" fill="#aab3d1"/><path d="M850.835,1668.007l-.063.057a.094.094,0,1,0,.126.139l.2-.182Z" transform="translate(-839.6 -1666.504)" fill="#aab3d1"/><path d="M818.945,1697.784a.1.1,0,0,0,.025-.131l-.281-.419a.094.094,0,1,0-.156.1l.281.42A.094.094,0,0,0,818.945,1697.784Z" transform="translate(-811.939 -1691.557)" fill="#aab3d1"/><path d="M773.438,1664.671a.1.1,0,0,0,.116-.059,2.3,2.3,0,0,1,.214-.426.094.094,0,0,0-.161-.1,2.479,2.479,0,0,0-.23.462A.092.092,0,0,0,773.438,1664.671Z" transform="translate(-773.182 -1663.102)" fill="#aab3d1"/><path d="M875.872,1726.429a.094.094,0,0,0,.188,0l0-.5a.094.094,0,0,0-.188,0Z" transform="translate(-861.174 -1716.15)" fill="#aab3d1"/><path d="M876.146,1743.92a.094.094,0,0,0,.092-.1l-.009-.5a.094.094,0,0,0-.188,0l.009.5A.094.094,0,0,0,876.146,1743.92Z" transform="translate(-861.321 -1731.086)" fill="#aab3d1"/><path d="M875.936,1709.029a.094.094,0,0,0,.188,0l.008-.5a.094.094,0,0,0-.187,0Z" transform="translate(-861.231 -1701.214)" fill="#aab3d1"/><path d="M876.025,1735.222a.094.094,0,0,0,.093-.095l-.006-.5a.094.094,0,0,0-.188,0l.006.5A.093.093,0,0,0,876.025,1735.222Z" transform="translate(-861.221 -1723.619)" fill="#aab3d1"/><path d="M875.87,1717.729a.094.094,0,0,0,.188,0l0-.5a.094.094,0,0,0-.187,0Z" transform="translate(-861.174 -1708.681)" fill="#aab3d1"/><path d="M860.814,1777.409c.166-.01.333-.026.5-.042a.093.093,0,0,0,.083-.1.094.094,0,0,0-.1-.083c-.164.015-.328.031-.493.041a.094.094,0,0,0,.013.187Z" transform="translate(-848.164 -1760.226)" fill="#aab3d1"/><path d="M876.733,1691.662c.014-.165.025-.33.042-.494a.094.094,0,0,0-.187-.017c-.016.166-.028.332-.042.5a.094.094,0,0,0,.187.015Z" transform="translate(-861.754 -1686.299)" fill="#aab3d1"/><path d="M876.136,1699.833l-.018.5a.094.094,0,0,0,.187.006l.018-.5a.094.094,0,0,0-.187-.008Z" transform="translate(-861.387 -1693.748)" fill="#aab3d1"/><path d="M826.058,1776.645c.165.018.331.04.5.055a.094.094,0,0,0,.019-.187c-.165-.014-.328-.036-.493-.054a.1.1,0,0,0-.1.082A.092.092,0,0,0,826.058,1776.645Z" transform="translate(-818.341 -1759.606)" fill="#aab3d1"/><path d="M870.851,1767.814a.1.1,0,0,0-.013.133l.321.39a.094.094,0,1,0,.144-.12l-.321-.389A.094.094,0,0,0,870.851,1767.814Z" transform="translate(-856.836 -1752.167)" fill="#aab3d1"/><path d="M865.306,1760.944a.094.094,0,0,0-.014.132l.316.394a.094.094,0,1,0,.146-.118l-.316-.394A.094.094,0,0,0,865.306,1760.944Z" transform="translate(-852.075 -1746.27)" fill="#aab3d1"/><path d="M879.073,1674.559c.041-.158.083-.316.137-.47a.1.1,0,0,0-.06-.119.091.091,0,0,0-.118.058c-.055.16-.1.323-.141.485a.1.1,0,0,0,.07.113A.093.093,0,0,0,879.073,1674.559Z" transform="translate(-863.765 -1671.618)" fill="#aab3d1"/><path d="M876.71,1769.989a.091.091,0,0,0,.123-.06,1.93,1.93,0,0,0,.052-.522.094.094,0,0,0-.1-.092.093.093,0,0,0-.091.094,1.774,1.774,0,0,1-.044.465A.1.1,0,0,0,876.71,1769.989Z" transform="translate(-861.843 -1753.474)" fill="#aab3d1"/><path d="M876.652,1761.311a.094.094,0,0,0,.087-.1l-.027-.494a.094.094,0,0,0-.187.009c.008.166.016.332.028.5A.093.093,0,0,0,876.652,1761.311Z" transform="translate(-861.736 -1746.017)" fill="#aab3d1"/><path d="M876.338,1752.619a.094.094,0,0,0,.091-.1l-.014-.5a.094.094,0,0,0-.187,0l.014.5A.094.094,0,0,0,876.338,1752.619Z" transform="translate(-861.48 -1738.554)" fill="#aab3d1"/><path d="M877.574,1683.026c.021-.164.042-.327.069-.489a.094.094,0,0,0-.078-.107.092.092,0,0,0-.107.077c-.028.165-.049.33-.07.5a.093.093,0,0,0,.081.1A.094.094,0,0,0,877.574,1683.026Z" transform="translate(-862.477 -1678.884)" fill="#aab3d1"/><path d="M799.779,1724.041a.1.1,0,0,0,.131-.027l.288-.422a.094.094,0,1,0-.154-.106l-.289.423A.1.1,0,0,0,799.779,1724.041Z" transform="translate(-795.817 -1714.095)" fill="#aab3d1"/><path d="M773.92,1716.383a.094.094,0,0,0,.088-.1l-.032-.5a.094.094,0,0,0-.187.012l.031.5A.093.093,0,0,0,773.92,1716.383Z" transform="translate(-773.54 -1707.447)" fill="#aab3d1"/><path d="M772.416,1690.236l-.022-.5a.094.094,0,0,0-.187.007l.022.5a.094.094,0,0,0,.188-.009Z" transform="translate(-772.182 -1685.084)" fill="#aab3d1"/><path d="M773.365,1707.7a.093.093,0,0,0,.088-.1l-.032-.5a.094.094,0,0,0-.187.012l.032.5A.094.094,0,0,0,773.365,1707.7Z" transform="translate(-773.063 -1699.994)" fill="#aab3d1"/><path d="M772.154,1672.849a.093.093,0,0,0,.089.1.094.094,0,0,0,.1-.088c.007-.165.02-.328.036-.491a.094.094,0,0,0-.187-.019C772.174,1672.515,772.162,1672.682,772.154,1672.849Z" transform="translate(-772.137 -1670.158)" fill="#aab3d1"/><path d="M777.787,1657.751a.093.093,0,0,0,.023.131.094.094,0,0,0,.13-.022c.094-.134.194-.264.3-.387a.089.089,0,0,0,.017-.032l-.187-.056C777.97,1657.5,777.875,1657.625,777.787,1657.751Z" transform="translate(-776.957 -1657.384)" fill="#aab3d1"/><path d="M772.787,1699.021a.093.093,0,0,0,.087-.1l-.032-.5a.094.094,0,0,0-.187.012l.033.5A.093.093,0,0,0,772.787,1699.021Z" transform="translate(-772.567 -1692.542)" fill="#aab3d1"/><path d="M778.561,1759.5a.09.09,0,0,0,.134-.007.1.1,0,0,0-.005-.129.73.73,0,0,1-.213-.387.1.1,0,0,0-.116-.062.091.091,0,0,0-.064.117A.926.926,0,0,0,778.561,1759.5Z" transform="translate(-777.407 -1744.547)" fill="#aab3d1"/><path d="M772.131,1681.637a.093.093,0,0,0,.092-.095l0-.5a.094.094,0,0,0-.188,0l0,.5A.094.094,0,0,0,772.131,1681.637Z" transform="translate(-772.031 -1677.618)" fill="#aab3d1"/><path d="M774.485,1725.065a.094.094,0,0,0,.087-.1l-.034-.5a.094.094,0,0,0-.187.013l.034.5A.094.094,0,0,0,774.485,1725.065Z" transform="translate(-774.022 -1714.901)" fill="#aab3d1"/><path d="M870.029,1775.926a.093.093,0,0,0-.113-.063c-.156.037-.316.066-.479.089a.094.094,0,0,0-.078.107.093.093,0,0,0,.106.079c.165-.023.331-.054.5-.093A.094.094,0,0,0,870.029,1775.926Z" transform="translate(-855.584 -1759.092)" fill="#aab3d1"/><path d="M775.941,1742.307l-.05-.494a.094.094,0,0,0-.187.018l.05.5a.094.094,0,0,0,.186-.02Z" transform="translate(-775.184 -1729.792)" fill="#aab3d1"/><path d="M882.1,1668.056a2.911,2.911,0,0,1,.224-.353l-.236.009q-.083.123-.153.254a.091.091,0,0,0,.037.127A.1.1,0,0,0,882.1,1668.056Z" transform="translate(-866.369 -1666.243)" fill="#aab3d1"/><path d="M852.706,1777.82a.094.094,0,0,0-.1-.091c-.165,0-.33.01-.5.011a.094.094,0,0,0,0,.187c.166,0,.333-.006.5-.011A.092.092,0,0,0,852.706,1777.82Z" transform="translate(-840.701 -1760.697)" fill="#aab3d1"/><path d="M813.931,1690.044a.094.094,0,0,0,.027-.13l-.273-.424a.094.094,0,1,0-.158.1l.274.425A.094.094,0,0,0,813.931,1690.044Z" transform="translate(-807.642 -1684.908)" fill="#aab3d1"/><path d="M775.11,1733.743a.094.094,0,0,0,.086-.1l-.039-.5a.094.094,0,0,0-.187.014l.039.5A.094.094,0,0,0,775.11,1733.743Z" transform="translate(-774.553 -1722.351)" fill="#aab3d1"/><path d="M810.58,1709a.094.094,0,0,0-.133.019l-.311.407a.094.094,0,1,0,.15.113l.31-.405A.1.1,0,0,0,810.58,1709Z" transform="translate(-804.726 -1701.683)" fill="#aab3d1"/><path d="M796.969,1661.944a.094.094,0,0,0,.126.042.1.1,0,0,0,.04-.127l-.022-.045-.236-.051Z" transform="translate(-793.361 -1661.142)" fill="#aab3d1"/><path d="M804.31,1674.42a.094.094,0,0,0-.033.129l.256.436a.1.1,0,0,0,.13.033.094.094,0,0,0,.031-.129l-.256-.434A.1.1,0,0,0,804.31,1674.42Z" transform="translate(-799.702 -1671.998)" fill="#aab3d1"/><path d="M800.53,1771.3c.16.047.319.1.48.139a.094.094,0,0,0,.05-.181c-.16-.043-.317-.091-.476-.138a.094.094,0,0,0-.116.063A.092.092,0,0,0,800.53,1771.3Z" transform="translate(-796.44 -1755.021)" fill="#aab3d1"/><path d="M805.008,1716.711l.3-.415a.094.094,0,0,0-.019-.132.1.1,0,0,0-.133.022l-.3.416a.094.094,0,1,0,.153.109Z" transform="translate(-800.194 -1707.83)" fill="#aab3d1"/><path d="M800.3,1667.341a.094.094,0,0,0,.035-.128c-.082-.146-.166-.292-.244-.44a.094.094,0,1,0-.165.089c.079.15.163.3.246.443A.094.094,0,0,0,800.3,1667.341Z" transform="translate(-795.97 -1665.401)" fill="#aab3d1"/><path d="M808.86,1773.473a.093.093,0,0,0,.069.113c.162.038.324.078.487.112a.094.094,0,0,0,.04-.183c-.162-.033-.322-.073-.483-.111A.1.1,0,0,0,808.86,1773.473Z" transform="translate(-803.646 -1756.981)" fill="#aab3d1"/><path d="M828.787,1712.091a.094.094,0,0,0,.022-.131l-.29-.413a.094.094,0,1,0-.154.107l.291.413A.094.094,0,0,0,828.787,1712.091Z" transform="translate(-820.377 -1703.847)" fill="#aab3d1"/><path d="M809.218,1682.579a.1.1,0,0,0,.029-.13l-.267-.427a.093.093,0,0,0-.129-.032.1.1,0,0,0-.031.13l.268.429A.094.094,0,0,0,809.218,1682.579Z" transform="translate(-803.602 -1678.496)" fill="#aab3d1"/><path d="M795.249,1730.881a.094.094,0,0,0-.131.029l-.279.43a.1.1,0,0,0,.028.132.094.094,0,0,0,.13-.031l.278-.428A.1.1,0,0,0,795.249,1730.881Z" transform="translate(-791.599 -1720.467)" fill="#aab3d1"/><path d="M781.814,1753.95a.1.1,0,0,0-.128.041l-.236.456a.094.094,0,0,0,.04.128.1.1,0,0,0,.128-.043l.234-.453A.094.094,0,0,0,781.814,1753.95Z" transform="translate(-780.108 -1740.274)" fill="#aab3d1"/><path d="M784.326,1764.985q.223.118.452.221a.092.092,0,0,0,.124-.047.1.1,0,0,0-.046-.124c-.15-.067-.3-.139-.441-.215a.094.094,0,0,0-.088.165Z" transform="translate(-782.543 -1749.605)" fill="#aab3d1"/><path d="M786.042,1746.121a.1.1,0,0,0-.13.036l-.252.447a.094.094,0,0,0,.035.129.1.1,0,0,0,.129-.038l.25-.445A.094.094,0,0,0,786.042,1746.121Z" transform="translate(-783.721 -1733.552)" fill="#aab3d1"/><path d="M826,1690.517c.111-.129.228-.253.343-.378a.094.094,0,1,0-.138-.127c-.115.126-.232.251-.344.38a.1.1,0,0,0,.006.135A.1.1,0,0,0,826,1690.517Z" transform="translate(-818.221 -1685.367)" fill="#aab3d1"/><path d="M776.745,1750.975a.093.093,0,0,0,.108.076.094.094,0,0,0,.077-.108c-.028-.162-.051-.325-.073-.489a.094.094,0,0,0-.105-.08.093.093,0,0,0-.08.1C776.693,1750.645,776.717,1750.81,776.745,1750.975Z" transform="translate(-776.013 -1737.214)" fill="#aab3d1"/><path d="M792.287,1768.509c.157.057.312.117.471.169a.094.094,0,0,0,.061-.177c-.157-.052-.31-.112-.465-.168a.093.093,0,0,0-.12.054A.094.094,0,0,0,792.287,1768.509Z" transform="translate(-789.369 -1752.626)" fill="#aab3d1"/><path d="M790.532,1738.432a.1.1,0,0,0-.13.033l-.266.439a.094.094,0,0,0,.031.13.1.1,0,0,0,.13-.034l.264-.437A.1.1,0,0,0,790.532,1738.432Z" transform="translate(-787.562 -1726.95)" fill="#aab3d1"/></g></g></g><g transform="translate(0 0)"><g transform="translate(16.01)"><path d="M746.67,1400.1l-.111-.041a.958.958,0,0,0-1.229.569l-.2.551-.237.647-15.11,41.152,1.908.7,15.11-41.152.238-.647.2-.551A.957.957,0,0,0,746.67,1400.1Zm-1.238,1.191.195-.531a.636.636,0,0,1,.815-.377l.107.039a.636.636,0,0,1,.378.816l-.195.531Z" transform="translate(-729.781 -1400)" fill="#b8bdc4"/><path d="M755.3,1402.16l-.136.371a.634.634,0,0,1,.062.561l-.195.531-.237-.087-15.347,41.8.541.2,15.11-41.152.238-.647.2-.551A.958.958,0,0,0,755.3,1402.16Z" transform="translate(-738.077 -1401.854)" fill="#b8bdc4" opacity="0.3" style="mix-blend-mode:multiply;isolation:isolate"/></g><g transform="translate(6.159 41.643)"><rect width="4.138" height="2.446" transform="matrix(0.345, -0.939, 0.939, 0.345, 8.695, 3.884)" fill="#4dab54"/><path d="M670.731,1707.272c-2.421-.889-7.464-1.636-10.556,4.183l7.949,2.918,7.949,2.918C677.48,1710.854,673.152,1708.16,670.731,1707.272Z" transform="translate(-660.175 -1704.908)" fill="#4dab54"/><path d="M678.744,1731.784a8.292,8.292,0,0,0-.693.929l11.636,4.272a8.249,8.249,0,0,0,.073-1.157Z" transform="translate(-675.521 -1726.472)" fill="#4dab54" opacity="0.3" style="mix-blend-mode:multiply;isolation:isolate"/><g transform="translate(4.155 3.193)" opacity="0.3" style="mix-blend-mode:multiply;isolation:isolate"><path d="M735.043,1727.245l3.536,1.3a5.41,5.41,0,0,0-.953-2.166,6.205,6.205,0,0,0-1.7-1.547Z" transform="translate(-728.603 -1723.694)" fill="#4dab54"/><path d="M693.959,1716.875a6.2,6.2,0,0,0-2.3.082,5.419,5.419,0,0,0-2.128,1.035l3.537,1.3Z" transform="translate(-689.536 -1716.806)" fill="#4dab54"/></g></g><g transform="translate(0 48.19)"><path d="M638.715,1746.337l-7.949-2.918-7.949-2.918c-1.508,2.933-3.885,7.483-6.159,11.131,2.471,1.863,7.321,3.863,9.395,4.624s7.064,2.375,10.154,2.554C636.835,1754.556,637.967,1749.549,638.715,1746.337Z" transform="translate(-616.658 -1740.5)" fill="#7c523d"/><g transform="translate(1.773 5.695)" opacity="0.4" style="mix-blend-mode:multiply;isolation:isolate"><path d="M650.435,1805.115c-.3.615-1.076,1.925-1.472,2.582.718.339,1.432.656,2.1.942.511-1.712,1.341-4.434,1.788-5.855-.363.728-1.938,3.369-2.891,4.836A11.066,11.066,0,0,1,650.435,1805.115Z" transform="translate(-646.164 -1799.664)" fill="#7c523d"/><path d="M675.363,1828.871c.324-1.272.847-2.891,1.005-3.481-.237.481-.951,2.119-1.467,3.3Z" transform="translate(-668.431 -1819.071)" fill="#7c523d"/><path d="M630.055,1792.829c.206-1.4,1.574-4.844,2.006-6.242-.817,1.691-2.027,4.25-2.878,5.759C629.465,1792.508,629.756,1792.669,630.055,1792.829Z" transform="translate(-629.183 -1785.76)" fill="#7c523d"/><path d="M705.453,1810.147c.389-2.421,1.553-7.282,2.007-9.092-.748,1.67-2.13,5.646-3.42,8.233a24.06,24.06,0,0,1,.37-3.9c-.1.281-.842,1.858-1.521,3.362.064-.693,1.165-4.736,1.661-6.435-.567,1.229-1.876,4.8-2.731,6.822C702.936,1809.485,704.2,1809.848,705.453,1810.147Z" transform="translate(-691.539 -1798.18)" fill="#7c523d"/><path d="M745.855,1780.884l-.386-.142c-.406,1.986-1.043,4.624-1.469,6.394-.009-.5.382-2.952.49-4.155-.358,1.67-.871,3.458-1.867,7.905a25.223,25.223,0,0,1,.055-3.709c-.286,1.18-.811,4.261-1.217,5.946a16.781,16.781,0,0,0,1.886.233C743.975,1789.1,745.107,1784.1,745.855,1780.884Z" transform="translate(-725.571 -1780.742)" fill="#7c523d"/><path d="M732.78,1848.59c.016-1.032.211-2.325.3-3.108-.262.754-.673,2-1.039,2.952Q732.414,1848.518,732.78,1848.59Z" transform="translate(-717.484 -1836.32)" fill="#7c523d"/><path d="M687.113,1820.221c.5-1.768,1.2-4.11,1.705-5.669-.338.792-1.438,3.519-2.336,5.45C686.677,1820.071,686.888,1820.144,687.113,1820.221Z" transform="translate(-678.373 -1809.767)" fill="#7c523d"/></g><g transform="translate(4.603)" opacity="0.1" style="mix-blend-mode:multiply;isolation:isolate"><path d="M717.558,1762.467c-.054.323-.21,1.094-.228,1.295.109-.238.467-.849.73-1.294l-.74-.272c-.078.343-.257.863-.32,1.141A9.444,9.444,0,0,1,717.558,1762.467Z" transform="translate(-707.402 -1759.125)" fill="#7c523d"/><path d="M740.59,1771.178a5.038,5.038,0,0,1-.084.511c.1-.213.214-.451.3-.615l-.41-.151c-.152.526-.393,1.271-.435,1.474C740.207,1771.938,740.543,1771.24,740.59,1771.178Z" transform="translate(-727.112 -1766.617)" fill="#7c523d"/><path d="M753.083,1774.975l-.2-.073c-.034.239-.131.561-.163.737C752.838,1775.4,752.97,1775.158,753.083,1774.975Z" transform="translate(-738.067 -1770.032)" fill="#7c523d"/><path d="M689.995,1752.113c-.05.354-.225,1.076-.252,1.193a8.273,8.273,0,0,1,.662-1.122,5.231,5.231,0,0,1-.041.761c.066-.148.263-.52.4-.771l-1.05-.385a8.416,8.416,0,0,1-.2,1.138C689.627,1752.711,689.934,1752.207,689.995,1752.113Z" transform="translate(-683.812 -1750.191)" fill="#7c523d"/><path d="M734.248,1768.417l-.117-.043c-.128.418-.291.948-.324,1.037C734.017,1768.991,734.151,1768.66,734.248,1768.417Z" transform="translate(-721.831 -1764.429)" fill="#7c523d"/><path d="M676.433,1746.757l-.284-.1a7.2,7.2,0,0,1-.129.76A4.2,4.2,0,0,1,676.433,1746.757Z" transform="translate(-672.222 -1745.782)" fill="#7c523d"/><path d="M706.579,1758.012c-.053.258-.166.588-.213.774a3.175,3.175,0,0,1,.447-.688Z" transform="translate(-698.273 -1755.534)" fill="#7c523d"/><path d="M760.031,1778.715a10.441,10.441,0,0,1,.513-1.031l-.376-.138c-.056.228-.12.482-.149.574.117-.212.2-.363.215-.391C760.156,1778.115,760.069,1778.57,760.031,1778.715Z" transform="translate(-744.333 -1772.303)" fill="#7c523d"/><path d="M651.506,1741.089a5.913,5.913,0,0,1-.157.8,8.238,8.238,0,0,1,.725-.9l-1.334-.49c-.449.875-.977,1.893-1.555,2.989h0a28.177,28.177,0,0,1,1.853-2.572c-.049.365-.3,1.2-.357,1.495A13.487,13.487,0,0,1,651.506,1741.089Z" transform="translate(-649.185 -1740.5)" fill="#7c523d"/></g><path d="M665.3,1763.821l-.247-.3-.888,1.373-.524.439.429-2.077-.487.338-.727.988-.058-.8-.255-.274-.806,1.213-.036-.868-.263-.256-.174-.5-.684.9.277-1.741-.923,1.567.1-1.249-.456.281.047-1.127-.954,1.684.312-1.888-.439.235-.633.8-.079-.8-.594.714.034-.844-.406.8-.276.647-.419,2.3.511-.494.227.347.2.415.754-1.152.051.846.7-.972.268.234-.217,1.58h.35l.678-.9.163.517.67-.876-.19,1.482.817-1.271-.044,1.076.428-.208.389-.1.431-.21-.186,1.44.832-1.278-.063,1.1.178.456.055.768,1.139-2.021-.294,1.643.86-1.994Z" transform="translate(-650.577 -1758.546)" fill="#7c523d" opacity="0.2" style="mix-blend-mode:screen;isolation:isolate"/></g></g><g transform="translate(58.15 39.552)"><path d="M1057.343,1681.122l3.962,6.349a1.289,1.289,0,0,0,1.118.553,1.558,1.558,0,0,0,.651-.148,1.06,1.06,0,0,0,.574-1.509l-3.962-6.349a1.406,1.406,0,0,0-1.769-.4A1.06,1.06,0,0,0,1057.343,1681.122Zm.605-.416a.785.785,0,0,1,.411-.422.993.993,0,0,1,.408-.093.811.811,0,0,1,.7.347l.281.451c.08.128.034.176-.107.246s-.972.411-1.112.463-.217.041-.279-.058l-.255-.408A.582.582,0,0,1,1057.948,1680.706Z" transform="translate(-1053.001 -1679.465)" fill="#4dab54"/><path d="M1055.492,1715.925s-4.965-7.078-9.419-12.736a2.866,2.866,0,0,0-3.586-1.065c-1.456.56-11.373,4.594-12.661,5.1s-2.689,1.4-2.185,2.8,5.939,13.67,7,15.8Z" transform="translate(-1027.536 -1698.704)" fill="#4dab54"/><path d="M1098.611,1801.146l.658.756-21.072,10-.434-.854Z" transform="translate(-1070.654 -1783.925)" fill="#53575e"/><path d="M1041.828,1741.989c-1.3-3.355-3.017-7.83-3.207-8.425-.308-.966.542-1.463,1.12-1.7h0c4.535-1.892,10.483-4.374,11.368-4.748,1.456-.616,2.673-1.145,4.132.252,1.71,1.637,9.713,9.683,9.713,9.683l-20.848,9.9C1043.737,1746.209,1042.852,1744.272,1041.828,1741.989Z" transform="translate(-1036.996 -1719.825)" fill="#63b366"/><path d="M1062.535,1749.11h0c3.393-1.415,7.843-3.272,8.5-3.552,1.09-.461,2-.856,3.091.188.417.4,1.349,1.343,2.383,2.521l-13.238,5.976c-.736-1.914-1.476-3.54-1.577-3.857C1061.466,1749.662,1062.1,1749.29,1062.535,1749.11Z" transform="translate(-1056.82 -1735.797)" fill="#4dab54"/><g transform="translate(6.828 13.259)"><path d="M1175.4,1777.5a.84.84,0,0,0,.625-1.4l-2.4-2.671a.84.84,0,1,0-1.25,1.124l2.4,2.671a.838.838,0,0,0,.625.278Z" transform="translate(-1158.522 -1773.152)" fill="#4dab54"/><path d="M1151.13,1788.625a.84.84,0,0,0,.664-1.355l-2.222-2.869a.84.84,0,0,0-1.329,1.029l2.222,2.869a.838.838,0,0,0,.665.326Z" transform="translate(-1137.837 -1782.53)" fill="#4dab54"/><path d="M1126.856,1799.747a.841.841,0,0,0,.7-1.307l-2.042-3.066a.84.84,0,0,0-1.4.932l2.043,3.066a.839.839,0,0,0,.7.375Z" transform="translate(-1117.153 -1791.907)" fill="#4dab54"/><path d="M1102.582,1810.869a.841.841,0,0,0,.729-1.257l-1.863-3.264a.84.84,0,0,0-1.459.833l1.863,3.264a.84.84,0,0,0,.731.424Z" transform="translate(-1096.467 -1801.286)" fill="#4dab54"/><path d="M1078.307,1821.989a.841.841,0,0,0,.755-1.208l-1.683-3.462a.84.84,0,0,0-1.511.735l1.683,3.462a.841.841,0,0,0,.756.473Z" transform="translate(-1075.782 -1810.663)" fill="#4dab54"/></g></g><g transform="translate(32.869 57.125)"><path d="M865.465,1806.833l-5.907-3.2-10.655,4.035,5.908,3.2,10.654-4.035Z" transform="translate(-848.903 -1803.637)" fill="#f76b96"/><path d="M848.9,1837.194v3.945l5.908,3.2v-3.944Z" transform="translate(-848.903 -1832.445)" fill="#ffd14a"/><path d="M890.645,1835.3v3.944l10.654-4.035v-3.945Z" transform="translate(-884.738 -1827.357)" fill="#ffbd38"/><path d="M848.9,1832.149v.714l5.908,3.2v-.714Z" transform="translate(-848.903 -1828.114)" fill="#f05e8c"/><path d="M890.645,1830.257v.714l10.654-4.035v-.714Z" transform="translate(-884.738 -1823.026)" fill="#e65a80"/></g><g transform="translate(50.111 44.023)"><g transform="translate(2.258 6.244)"><path d="M991.493,1755.616a9.517,9.517,0,0,1-1.007,3.219,9.251,9.251,0,0,1-1.651,2.493,5.844,5.844,0,0,0-1.6,2.185,20.05,20.05,0,0,0-.527,5.48c.083,1.784.373,2.536,1.671,2.775a29.156,29.156,0,0,0,6.334.085c1.929-.256,2.386-.55,2.493-2.219a26.08,26.08,0,0,0-.649-7.017,68.618,68.618,0,0,0-2.3-7C993.534,1754.848,992.236,1755.257,991.493,1755.616Z" transform="translate(-986.692 -1755.18)" fill="#70b3d6"/><path d="M1007.6,1817.17c0,1.155-1.516,2.091-3.385,2.091s-3.385-.936-3.385-2.091,1.515-2.092,3.385-2.092S1007.6,1816.014,1007.6,1817.17Z" transform="translate(-998.827 -1806.601)" fill="#a3cceb"/><path d="M1009.168,1794.025a26.081,26.081,0,0,0-.649-7.017c-.185-.719-.577-2.044-1.02-3.414-.265,4.5-2.541,11.3-6.872,12.611a30.357,30.357,0,0,0,6.047.04C1008.6,1795.989,1009.061,1795.7,1009.168,1794.025Z" transform="translate(-998.656 -1779.573)" fill="#70b3d6" opacity="0.3" style="mix-blend-mode:multiply;isolation:isolate"/><g transform="translate(0.951 6.452)" opacity="0.3" style="mix-blend-mode:screen;isolation:isolate"><path d="M1000.9,1801.323c.286.537-.07,1.035-.667,1.352s-1.209.335-1.495-.2a1.231,1.231,0,0,1,2.162-1.15Z" transform="translate(-997.885 -1800.767)" fill="#70b3d6"/><path d="M994.532,1816.961a.562.562,0,1,1-.532-.591A.562.562,0,0,1,994.532,1816.961Z" transform="translate(-993.408 -1814.161)" fill="#70b3d6"/></g></g><path d="M972.994,1723.792a4.568,4.568,0,0,1-.589,3.176c-.828,1.622-1.533,2.381-1.2,2.458.435.1,3.1-2.452,4.021-4.9A1.681,1.681,0,0,0,972.994,1723.792Z" transform="translate(-971.065 -1721.842)" fill="#f1f1f2"/><path d="M988.685,1716.112c.358-.231,2.318-.973,2.446-1.447s-1.626-2.638-2.561-3.24-7.017-.282-8.361-.244v2.113a8.777,8.777,0,0,1,5.719,2.817C986.726,1716.483,988.377,1716.585,988.685,1716.112Z" transform="translate(-978.868 -1711.062)" fill="#f1f1f2"/><rect width="1.34" height="2.113" transform="translate(0 0.119)" fill="#db374b"/><rect width="2.757" height="1.63" transform="translate(7.059 5.049)" fill="#db374b"/><path d="M1025.823,1717.768c.119-.441-1.389-2.342-2.353-3.091.394,2.1.353,5.566-2.85,6.117v.051h2.757v-1.63C1023.736,1718.984,1025.7,1718.241,1025.823,1717.768Z" transform="translate(-1013.56 -1714.165)" fill="#b3cfe7" opacity="0.3" style="mix-blend-mode:multiply;isolation:isolate"/></g></g><g transform="translate(604.026 1167.727)"><path d="M1160.873,1509.071a3.136,3.136,0,1,1-6.272,0,3.136,3.136,0,0,1,6.272,0Z" transform="translate(-1154.601 -1501.154)" fill="#ffd44d"/><path d="M1201.637,1474.394a2.243,2.243,0,1,1-4.486,0,2.243,2.243,0,1,1,4.486,0Z" transform="translate(-1191.129 -1472.151)" fill="#ffd44d"/></g><g transform="translate(600.024 1208.835)"><g transform="translate(0 5.264)"><path d="M1201.679,1693.918c0-2.322-.076-3.137-1.031-4.659a17.706,17.706,0,0,0-5.161-4.524,9.786,9.786,0,0,0-5.861,0c-.97.92-2.169,2.081-2.943,2.932s-.813,1.47-.813,3.1v12.149c0,2.322.077,3.172,2.863,3.637a29.723,29.723,0,0,0,10.136,0c2.941-.7,2.808-2.261,2.808-5.51S1201.679,1696.239,1201.679,1693.918Zm-1.69.591c-.005.251-.01.488-.01.7a.929.929,0,1,1-1.857,0c0-.232,0-.478.01-.738a8.884,8.884,0,0,0-.247-2.99,6.177,6.177,0,0,0-1.832-2.19.929.929,0,0,1,1.223-1.4,7.807,7.807,0,0,1,2.32,2.865A9.757,9.757,0,0,1,1199.989,1694.509Z" transform="translate(-1185.871 -1684.293)" fill="#ffd13d"/><path d="M1200.527,1744.99a1.551,1.551,0,0,0,1.13,1.425,27.63,27.63,0,0,0,8.279.082,1.667,1.667,0,0,0,1.254-1.422c.1-1.345.131-3.475-.739-4.793-.542-.822-1.547-1.582-1.943-2.776-.2-.608-.1-1.686-.334-2.284-.412-1.059-1.564-1.478-3.416-1.478-1.707,0-4.056.072-4.23,2.193S1200.45,1743.89,1200.527,1744.99Z" transform="translate(-1198.369 -1726.745)" fill="#ffad26"/><path d="M1221.4,1708.092c0-3.25,0-4.8,0-7.119s-.076-3.137-1.031-4.659a16.819,16.819,0,0,0-4.013-3.8c.434.534,2.889,3.014,3.044,5.522a10.715,10.715,0,0,1,.31,3.532c-.005.251-.01.488-.01.7a.928.928,0,1,1-1.857,0c0-.232,0-.478.01-.738a8.883,8.883,0,0,0-.247-2.99,6.177,6.177,0,0,0-1.832-2.19.929.929,0,0,1-.259-1.021c-.369.8.289,1.4.688,1.762.445.406.832,1.2.832,3.327,0,1.979.83,12.6-8.192,13.247a29.362,29.362,0,0,0,9.748-.062C1221.532,1712.906,1221.4,1711.342,1221.4,1708.092Z" transform="translate(-1205.592 -1691.348)" fill="#ffd13d" opacity="0.5" style="mix-blend-mode:multiply;isolation:isolate"/></g><g transform="translate(3.756 0)"><g transform="translate(1.531)"><path d="M1225.872,1647.095h-2.5a.15.15,0,0,0-.151.15v3.645h2.8v-3.645A.15.15,0,0,0,1225.872,1647.095Z" transform="translate(-1223.223 -1647.095)" fill="#fae3b0"/><path d="M1228.252,1654.23h-1.56a.15.15,0,0,0-.15.15v2.978h1.86v-2.978A.15.15,0,0,0,1228.252,1654.23Z" transform="translate(-1226.072 -1653.22)" fill="#fc5a40"/><path d="M1225.872,1647.095h-2.5a.15.15,0,0,0-.151.15v3.645h2.8v-3.645A.15.15,0,0,0,1225.872,1647.095Z" transform="translate(-1223.223 -1647.095)" fill="#fae3b0" opacity="0.2"/><g transform="translate(0.198 0.247)" opacity="0.8"><path d="M1225.355,1648.914c.2.139.162.38.007.6s-.368.337-.567.2a.49.49,0,0,1,.56-.8Z" transform="translate(-1224.62 -1648.841)" fill="#fff"/><path d="M1225.325,1656.59a.224.224,0,1,1-.3-.114A.224.224,0,0,1,1225.325,1656.59Z" transform="translate(-1224.857 -1655.379)" fill="#fff"/></g><path d="M1226.28,1647.553a.1.1,0,0,0-.1-.1h-.152a3,3,0,0,1-2.446,2.888v.806h2.7Z" transform="translate(-1223.531 -1647.403)" fill="#fae3b0" opacity="0.5" style="mix-blend-mode:multiply;isolation:isolate"/></g><path d="M1218.13,1670.374h-5.583a.139.139,0,0,0-.139.139v2.273h5.861v-2.273A.139.139,0,0,0,1218.13,1670.374Z" transform="translate(-1212.408 -1667.079)" fill="#fc5a40"/><path d="M1218.269,1670.877v-.364a.139.139,0,0,0-.139-.139h-.376c-.1,1.079-.774,2.284-5.346,2.3v.116h5.861Z" transform="translate(-1212.408 -1667.079)" fill="#fc5a40" opacity="0.3" style="mix-blend-mode:multiply;isolation:isolate"/></g><g transform="translate(0.951 8.095)" opacity="0.5" style="mix-blend-mode:screen;isolation:isolate"><path d="M1199.5,1704.805c.477.616.135,1.321-.549,1.851s-1.453.684-1.93.068a1.576,1.576,0,0,1,2.479-1.918Z" transform="translate(-1196.164 -1704.293)" fill="#ffd13d"/><path d="M1194.025,1726.959a.72.72,0,1,1-.8-.631A.719.719,0,0,1,1194.025,1726.959Z" transform="translate(-1192.591 -1723.205)" fill="#ffd13d"/></g></g><g transform="translate(600.024 1117.541)"><g transform="translate(8.936 0)"><path d="M1197.851,1121.736a4.195,4.195,0,1,1-4.195-4.2A4.195,4.195,0,0,1,1197.851,1121.736Z" transform="translate(-1189.461 -1117.541)" fill="#4294de"/><path d="M1198.546,1122.5a4.033,4.033,0,1,1-4.033-4.033A4.033,4.033,0,0,1,1198.546,1122.5Z" transform="translate(-1190.335 -1118.332)" fill="#2bc9fc"/><circle cx="3.934" cy="3.934" r="3.934" transform="translate(0.261 0.261)" fill="#c9ebff"/><path d="M1210.057,1149.119a4.45,4.45,0,0,1-.952-.1,3.935,3.935,0,0,0,5.349-3.671c0-.1,0-.2-.013-.3A4.4,4.4,0,0,1,1210.057,1149.119Z" transform="translate(-1206.325 -1141.149)" fill="#fff"/><path d="M1217.443,1140.505a4.39,4.39,0,0,1-.932.217,3.934,3.934,0,0,0,3.827-5.238c-.034-.1-.072-.19-.113-.281A4.4,4.4,0,0,1,1217.443,1140.505Z" transform="translate(-1212.682 -1132.704)" fill="#fff"/><path d="M1198.925,1121.937a3.934,3.934,0,0,0-7.482,2.405A9.5,9.5,0,0,1,1198.925,1121.937Z" transform="translate(-1191.046 -1119.124)" fill="#c9ebff" style="mix-blend-mode:multiply;isolation:isolate"/><g transform="translate(1.148 1.222)"><path d="M1204.76,1126.7c.328.546-.016,1.084-.622,1.448s-1.243.417-1.571-.129a1.287,1.287,0,0,1,2.193-1.319Z" transform="translate(-1201.731 -1126.174)" fill="#fff"/><path d="M1198.752,1143.629a.588.588,0,1,1-.588-.588A.588.588,0,0,1,1198.752,1143.629Z" transform="translate(-1197.576 -1140.654)" fill="#fff"/></g></g><g transform="translate(0 15.877)"><path d="M1144.6,1234.34a4.159,4.159,0,0,0-3.809-1.507,7.82,7.82,0,1,0-11.914,7.764,4.565,4.565,0,0,0,6.879,3.305c.047.066.095.13.146.194a4.083,4.083,0,0,0,6.482-.17,3.654,3.654,0,1,0,3.1-6.369A4.148,4.148,0,0,0,1144.6,1234.34Z" transform="translate(-1126.324 -1229.724)" fill="#4294de"/><path d="M1148.139,1245.045a3.456,3.456,0,0,1-4.4-.051l-.164-.139-.126.174a3.885,3.885,0,0,1-6.166.162c-.044-.055-.09-.115-.14-.185l-.107-.15-.158.1a4.366,4.366,0,0,1-6.579-3.16l-.014-.1-.091-.048a4.583,4.583,0,0,1,3.372-8.468l.136.039.081-.115a4.582,4.582,0,0,1,8.047,1.027l.056.149.158-.022a3.936,3.936,0,0,1,3.627,1.434,3.976,3.976,0,0,1,.838,3.064l-.027.187.184.037a3.455,3.455,0,0,1,1.476,6.072Z" transform="translate(-1127.544 -1230.943)" fill="#2bc9fc"/><path d="M1149.121,1246.118a3.356,3.356,0,0,1-4.277-.049l-.246-.208-.189.26a3.785,3.785,0,0,1-6.008.158c-.043-.054-.087-.113-.135-.18l-.161-.225-.237.143a4.266,4.266,0,0,1-6.428-3.089l-.02-.153-.137-.072a4.483,4.483,0,0,1,3.3-8.284l.2.057.121-.174a4.483,4.483,0,0,1,7.872,1l.083.224.237-.033a3.862,3.862,0,0,1,4.352,4.386l-.041.279.276.057a3.355,3.355,0,0,1,1.433,5.9Z" transform="translate(-1128.526 -1232.017)" fill="#c9ebff"/><path d="M1168.819,1258.938a2.5,2.5,0,0,1-3.179-.036l-.183-.155-.14.194a2.814,2.814,0,0,1-4.465.117c-.032-.04-.065-.084-.1-.133l-.119-.167-.176.106a3.172,3.172,0,0,1-4.779-2.3l-.015-.114-.1-.054a3.3,3.3,0,0,1-1.041-.855,3.332,3.332,0,0,1,3.492-5.3l.152.042.09-.129a3.332,3.332,0,0,1,5.851.747l.062.166.176-.024a2.871,2.871,0,0,1,3.235,3.26l-.03.208.205.042a2.494,2.494,0,0,1,1.066,4.383Z" transform="translate(-1149.894 -1246.046)" fill="#c9ebff" opacity="0.5" style="mix-blend-mode:screen;isolation:isolate"/><path d="M1132.351,1245.044a4.249,4.249,0,0,0,.412.442,3.534,3.534,0,0,1,2.9-3.461,4.278,4.278,0,0,1,6.389-3.707,3.528,3.528,0,0,1,5.3.005,3.856,3.856,0,0,0-4.259-2.824l-.237.033-.083-.224a4.483,4.483,0,0,0-7.872-1l-.121.174-.2-.057a4.483,4.483,0,0,0-3.3,8.284l.137.072.02.153A4.265,4.265,0,0,0,1132.351,1245.044Z" transform="translate(-1128.526 -1232.017)" fill="#c9ebff" style="mix-blend-mode:multiply;isolation:isolate"/><g transform="translate(1.252 3.26)"><path d="M1148.328,1253.751c.392.884-.228,1.63-1.209,2.065s-1.95.393-2.342-.489a1.953,1.953,0,0,1,3.551-1.575Z" transform="translate(-1143.3 -1252.755)" fill="#fff"/><path d="M1136.946,1277.283a.892.892,0,1,1-.775-1A.892.892,0,0,1,1136.946,1277.283Z" transform="translate(-1135.169 -1272.951)" fill="#fff"/></g><g transform="translate(19.399 8.444)"><path d="M1264.092,1298.936a3.825,3.825,0,0,1-.7.448A3.406,3.406,0,0,0,1265,1294c-.056-.069-.114-.134-.173-.2A3.805,3.805,0,0,1,1264.092,1298.936Z" transform="translate(-1263.394 -1293.18)" fill="#fff"/><path d="M1266.429,1294.469a3.851,3.851,0,0,1-.509.654,3.406,3.406,0,0,0-.274-5.609c-.075-.047-.151-.088-.229-.128A3.805,3.805,0,0,1,1266.429,1294.469Z" transform="translate(-1265.131 -1289.386)" fill="#fff"/></g></g><g transform="translate(18.62 10.529)"><path d="M1263.93,1194.955a3.019,3.019,0,1,1-3.019-3.019A3.019,3.019,0,0,1,1263.93,1194.955Z" transform="translate(-1257.892 -1191.936)" fill="#4294de"/><path d="M1264.43,1195.5a2.9,2.9,0,1,1-2.9-2.9A2.9,2.9,0,0,1,1264.43,1195.5Z" transform="translate(-1258.521 -1192.506)" fill="#2bc9fc"/><path d="M1264.883,1196.094a2.831,2.831,0,1,1-2.831-2.831A2.832,2.832,0,0,1,1264.883,1196.094Z" transform="translate(-1259.033 -1193.075)" fill="#c9ebff"/><path d="M1272.714,1214.663a3.171,3.171,0,0,1-.685-.075,2.831,2.831,0,0,0,3.85-2.641c0-.073,0-.146-.009-.218A3.164,3.164,0,0,1,1272.714,1214.663Z" transform="translate(-1270.028 -1208.927)" fill="#fff"/><path d="M1278.03,1208.463a3.164,3.164,0,0,1-.672.156,2.831,2.831,0,0,0,2.754-3.77c-.024-.069-.052-.137-.081-.2A3.164,3.164,0,0,1,1278.03,1208.463Z" transform="translate(-1274.603 -1202.848)" fill="#fff"/><path d="M1264.7,1195.1a2.832,2.832,0,0,0-5.385,1.731A6.833,6.833,0,0,1,1264.7,1195.1Z" transform="translate(-1259.033 -1193.075)" fill="#c9ebff" style="mix-blend-mode:multiply;isolation:isolate"/><g transform="translate(0.827 0.879)"><path d="M1268.9,1198.529c.236.393-.012.781-.447,1.043s-.895.3-1.131-.093a.926.926,0,0,1,1.578-.95Z" transform="translate(-1266.723 -1198.149)" fill="#fff"/><path d="M1264.579,1210.714a.423.423,0,1,1-.423-.422A.423.423,0,0,1,1264.579,1210.714Z" transform="translate(-1263.733 -1208.573)" fill="#fff"/></g></g></g></g></g></g></svg>