<svg xmlns="http://www.w3.org/2000/svg" xmlns:xlink="http://www.w3.org/1999/xlink" width="97" height="149" viewBox="0 0 97 149"><defs><linearGradient id="a" x1="0.5" y1="0.917" x2="0.5" y2="0.106" gradientUnits="objectBoundingBox"><stop offset="0" stop-color="#96663d"/><stop offset="0.253" stop-color="#8f6039"/><stop offset="0.608" stop-color="#7d512e"/><stop offset="1" stop-color="#613a1e"/></linearGradient></defs><g transform="translate(-784 -2225)"><rect width="97" height="149" transform="translate(784 2225)" fill="#dcdcdc" opacity="0"/><g transform="translate(784.5 2242)"><rect width="62.781" height="103.589" transform="translate(0)" fill="#94663f"/><rect width="64.037" height="59.014" transform="translate(60.897 1.883) rotate(90)" fill="#4d2a13"/><rect width="33.902" height="59.014" transform="translate(60.897 67.804) rotate(90)" fill="#626262"/><rect width="33.651" height="58.763" transform="translate(60.772 67.929) rotate(90)" fill="#4d2a13"/><rect width="33.651" height="0.126" transform="translate(31.453 67.929) rotate(90)" fill="#626262"/><rect width="1.883" height="59.014" transform="translate(60.897 44.575) rotate(90)" fill="#94663f"/><rect width="1.883" height="59.014" transform="translate(60.897 23.229) rotate(90)" fill="#94663f"/><path d="M1393.266,1686.926v9.417h-1.37l-1.37-6.278h-54.791l-1.37,6.278H1333v-9.417Z" transform="translate(-1331.74 -1583.337)" fill="url(#a)"/><path d="M1442.843,1549.2l-.628-.628,1.883-1.883.628.628v1.883Z" transform="translate(-1414.655 -1476.873)" fill="#b0afaf" style="mix-blend-mode:multiply;isolation:isolate"/><rect width="1.883" height="1.883" transform="translate(29.444 69.813) rotate(90)" fill="#181919"/><path d="M1466.825,1549.2l-.628-.628,1.883-1.883.628.628v1.883Z" transform="translate(-1432.861 -1476.873)" fill="#b0afaf" style="mix-blend-mode:multiply;isolation:isolate"/><rect width="1.883" height="1.883" transform="translate(35.22 69.813) rotate(90)" fill="#181919"/></g><g transform="translate(830.14 2302.992)"><g transform="translate(0 0)"><path d="M1564.777,1630.528h-34.469l-1.549,6.352h37.567Z" transform="translate(-1523.402 -1592.946)" fill="#26150c"/><path d="M1682.242,1630.528h-3.935l1.549,6.352,3.8,15.582h1.558Z" transform="translate(-1636.931 -1592.946)" fill="#492f20"/><path d="M1509.486,1630.528l-2.971,21.934h1.557l3.8-15.582,1.549-6.352Z" transform="translate(-1506.514 -1592.946)" fill="#492f20"/><rect width="45.167" height="37.582" transform="translate(1.557)" fill="#5e3c26"/></g><g transform="translate(3.115 3.705)"><rect width="42.052" height="8.998" fill="#765643"/><rect width="42.052" height="8.998" transform="translate(0 10.586)" fill="#765643"/><rect width="42.052" height="8.998" transform="translate(0 21.173)" fill="#765643"/></g><g transform="translate(22.459 6.039)"><ellipse cx="1.682" cy="2.287" rx="1.682" ry="2.287" fill="#5e3c26"/><ellipse cx="1.682" cy="2.287" rx="1.682" ry="2.287" transform="translate(0 10.503)" fill="#5e3c26"/><ellipse cx="1.682" cy="2.287" rx="1.682" ry="2.287" transform="translate(0 21.005)" fill="#5e3c26"/></g></g><g transform="translate(795.92 2311.326)"><g transform="translate(2.309 29.509)"><path d="M1002.616,1652.707l-.009-.007h0a3.172,3.172,0,0,1-.416-.1,4.182,4.182,0,0,0-.879,1.9l-3.036,22.523a.671.671,0,1,0,1.331.179l3.031-22.492a2.8,2.8,0,0,1,1.1-1.751h-.447A1.028,1.028,0,0,1,1002.616,1652.707Z" transform="translate(-998.27 -1651.814)" fill="#372621"/><path d="M1095.013,1653.877a2.8,2.8,0,0,1,1.1,1.751l3.031,22.492a.672.672,0,0,0,1.331-.179l-3.036-22.523a4.175,4.175,0,0,0-.662-1.611l-.7.069Z" transform="translate(-1071.713 -1652.733)" fill="#372621"/><path d="M1047.027,1654.635l-3.036,22.523a.672.672,0,1,0,1.331.179l3.031-22.492a2.764,2.764,0,0,1,.255-.75h-1.443A4.159,4.159,0,0,0,1047.027,1654.635Z" transform="translate(-1032.975 -1652.952)" fill="#372621"/><path d="M1146.274,1673.533l-3.033-22.5a4.181,4.181,0,0,0-.712-1.684l-1.684.165a2.794,2.794,0,0,1,1.07,1.729l2.933,21.771.024.175.074.546a.67.67,0,0,0,.226.416.66.66,0,0,0,.879,0l.024-.02a.676.676,0,0,0,.2-.4v-.212C1146.276,1673.519,1146.274,1673.526,1146.274,1673.533Z" transform="translate(-1106.506 -1649.347)" fill="#372621"/></g><g transform="translate(0.966 1.198)"><path d="M1012.589,1542.59c-.309-2.892-.687-6.428-1.164-10.793l-18.286.037h-.448l1.343,10.749a6.326,6.326,0,0,1,.941-.6C997.1,1540.824,1002.876,1538.735,1012.589,1542.59Z" transform="translate(-992.692 -1531.797)" fill="#257e73"/><path d="M1035.118,1645.168a12.056,12.056,0,0,1-1.332-.17,3.1,3.1,0,0,1-1.663-1.115,5.337,5.337,0,0,1-.662-1.1l-3.78-.09-1.321-.031-11.659.466a.664.664,0,0,0-.61.852l.24.81a1.03,1.03,0,0,0,.265.366h0l.009.007a1.028,1.028,0,0,0,.672.251h19.34l12.762-1.251v-.156Z" transform="translate(-1008.916 -1615.964)" fill="#257e73"/></g><g transform="translate(0 0)"><path d="M995.062,1556.852l-.24-.81a.664.664,0,0,1,.61-.852l11.659-.466,1.321.031a1.183,1.183,0,0,0-.76-.281H995.418a.181.181,0,0,1-.172-.12c-.785-2.22-2.164-9.912-3.268-15.9a.183.183,0,0,0-.273-.123c-.2.115-.354.216-.47.3a.182.182,0,0,1-.283-.129l-1.279-10.235a.183.183,0,0,1,.181-.206.184.184,0,0,0,.174-.24c-.47-1.52-1.347-1.178-1.347.2,0,0,2.853,23.942,3.9,26.567.708,1.771,1.7,2.445,2.743,2.63A1.029,1.029,0,0,1,995.062,1556.852Z" transform="translate(-988.681 -1526.823)" fill="#ef992f"/><path d="M1090.8,1554.563a1.6,1.6,0,0,0-.539-.09H1077.3l-.008-.029c-.089-.038-.2-.221-.316-.526a13.736,13.736,0,0,1-.427-1.364l-.044-.164c-1.6-6.071-4.415-23.52-4.617-24.33-.448-1.791-1.414-1.487-1.414-.039h0c.476,4.365.854,7.9,1.164,10.793.908,8.494,2.126,14.733,2.211,14.958s.177.459.277.71c.051.127.1.246.158.362a5.339,5.339,0,0,0,.663,1.1,3.1,3.1,0,0,0,1.663,1.115,12.05,12.05,0,0,0,1.333.17l12.261-1.157.782-.074a.468.468,0,0,0,.343-.2A.937.937,0,0,0,1090.8,1554.563Z" transform="translate(-1050.775 -1526.823)" fill="#ef992f"/></g></g></g></svg>