<svg xmlns="http://www.w3.org/2000/svg" xmlns:xlink="http://www.w3.org/1999/xlink" width="97" height="149" viewBox="0 0 97 149"><defs><clipPath id="a"><rect width="97" height="149" transform="translate(784 2225)" fill="#dcdcdc"/></clipPath></defs><g transform="translate(-784 -2225)"><rect width="97" height="149" transform="translate(784 2225)" fill="#dcdcdc" opacity="0"/><g clip-path="url(#a)"><g transform="translate(784 2240.4)"><rect width="46.505" height="3.445" transform="translate(3.246 114.755)" fill="#7e7e87"/><g transform="translate(0 0)"><rect width="48.408" height="117.029" transform="translate(4.173)" fill="#d8f1f2"/><rect width="4.173" height="117.029" fill="#b4e3e5"/></g><rect width="51.869" height="1.395" transform="translate(0.356 57.669)" fill="#b4e3e5"/><rect width="51.869" height="1.395" transform="translate(0.356 72.269)" fill="#b4e3e5"/><rect width="0.718" height="14.497" transform="translate(18.317 58.49)" fill="#b4e3e5"/></g><g transform="translate(825.341 2273.346)"><g transform="translate(0 14.115)"><rect width="44.734" height="3.314" transform="translate(3.122 74.211)" fill="#e5dfdc"/><rect width="50.578" height="71.497" transform="translate(0 4.901)" fill="#e6e4dc"/><path d="M2584.741,1405.962h-50.578l3.608-4.9h42.87Z" transform="translate(-2534.163 -1401.06)" fill="#d9d6c9"/></g><g transform="translate(5.752 23.392)"><path d="M2579.611,1481.919a19.537,19.537,0,1,1,19.537-19.537A19.559,19.559,0,0,1,2579.611,1481.919Z" transform="translate(-2560.074 -1442.845)" fill="#403d42"/></g><rect width="12.15" height="17.396" transform="translate(34.259 69.549)" fill="#d9d6c9"/><rect width="49.894" height="1.342" transform="translate(0.342 66.689)" fill="#d9d6c9"/><rect width="9.32" height="3.935" transform="translate(38.401 21.157)" fill="#7e7e87"/><g transform="translate(7.706 25.345)"><path d="M2608.008,1469.228a17.582,17.582,0,0,0-34.035-6.2l22.651,22.651A17.61,17.61,0,0,0,2608.008,1469.228Z" transform="translate(-2572.841 -1451.645)" fill="#7e7e87"/><path d="M2586.457,1526.706a17.492,17.492,0,0,0,6.2-1.132l-22.651-22.651a17.576,17.576,0,0,0,16.451,23.782Z" transform="translate(-2568.874 -1491.54)" fill="#93939e"/></g><rect width="4.142" height="7.179" transform="translate(41.714 39.339)" fill="#bcbcc9"/><g transform="translate(8.495 0)"><rect width="28.26" height="15.982" fill="#861d0a"/><rect width="16.956" height="10.33" transform="translate(3.217 3.703)" fill="#403d42"/><rect width="0.487" height="12.132" transform="translate(21.781 1.9)" fill="#e5dfdc"/><rect width="3.411" height="1.908" transform="translate(23.595 1.9)" fill="#7e7e87"/><g transform="translate(23.584 8.113)"><rect width="1.522" height="0.851" fill="#7e7e87"/><rect width="1.522" height="0.851" transform="translate(1.9)" fill="#7e7e87"/></g><g transform="translate(23.584 9.283)"><rect width="1.522" height="0.851" fill="#7e7e87"/><rect width="1.522" height="0.851" transform="translate(1.9)" fill="#7e7e87"/></g><g transform="translate(23.584 10.452)"><rect width="1.522" height="0.851" fill="#7e7e87"/><rect width="1.522" height="0.851" transform="translate(1.9)" fill="#7e7e87"/></g><g transform="translate(23.584 11.621)"><rect width="1.522" height="0.851" fill="#7e7e87"/><rect width="1.522" height="0.851" transform="translate(1.9)" fill="#7e7e87"/></g><path d="M2682.5,1359.645a1.1,1.1,0,1,1-1.1,1.1A1.1,1.1,0,0,1,2682.5,1359.645Z" transform="translate(-2657.214 -1354.724)" fill="#7e7e87"/><path d="M2598.067,1344.78h-18.2a.414.414,0,1,1,0-.829h18.2a.414.414,0,1,1,0,.829Z" transform="translate(-2577.894 -1342.514)" fill="#bcbcc9"/></g></g><g transform="translate(793.11 2321.598)"><rect width="26.255" height="3.539" transform="translate(24.12 27.292)" fill="#d2cecb"/><rect width="74.495" height="2.596" transform="translate(0 30.378)" fill="#cda771"/><rect width="74.495" height="2.596" transform="translate(0 49.306)" fill="#cda771"/><rect width="50.678" height="28.087" transform="translate(11.908)" fill="#d2cecb"/><g transform="translate(13.175 1.42)"><path d="M2606.646,1561.22H2589.94l16.706,16.706Z" transform="translate(-2558.502 -1561.22)" fill="#7e7e87"/><path d="M2448.327,1561.22v25.247h48.144v-2.928l-22.319-22.319Z" transform="translate(-2448.327 -1561.22)" fill="#7e7e87"/><path d="M2570.27,1561.22h-5.613l22.319,22.319v-5.613Z" transform="translate(-2538.832 -1561.22)" fill="#93939e"/></g><g transform="translate(4.976 37.497)"><rect width="8.752" height="11.813" fill="#403d42"/><rect width="7.876" height="9.525" transform="translate(0.438 0.529)" fill="#5e5e65"/><g transform="translate(55.792)"><rect width="8.752" height="11.813" fill="#403d42"/><rect width="7.876" height="9.525" transform="translate(0.438 0.529)" fill="#5e5e65"/></g></g><g transform="translate(21.107 44.521)"><rect width="27.58" height="1.064" transform="translate(2.35 3.725)" fill="#a9a09c"/><rect width="32.281" height="4.257" fill="#403d42"/><rect width="14.189" height="0.377" transform="translate(16.14 1.94)" fill="#93939e"/><rect width="1.153" height="1.153" transform="translate(1.404 1.419)" fill="#a9a09c"/></g></g></g></g></svg>