<svg xmlns="http://www.w3.org/2000/svg" xmlns:xlink="http://www.w3.org/1999/xlink" width="97" height="149" viewBox="0 0 97 149"><defs><clipPath id="a"><rect width="97" height="149" transform="translate(784 2225)" fill="#dcdcdc"/></clipPath></defs><g transform="translate(-784 -2225)"><rect width="97" height="149" transform="translate(784 2225)" fill="#dcdcdc" opacity="0"/><g clip-path="url(#a)"><g transform="translate(792.064 2226.639)"><g transform="translate(0 28.909)"><path d="M3570.818,4465.3c0,.78-23.469,1.413-52.419,1.413s-52.419-.633-52.419-1.413,23.469-1.414,52.419-1.414S3570.818,4464.516,3570.818,4465.3Z" transform="translate(-3465.394 -4371.821)" fill="#b4b4b5"/><g transform="translate(72.401 86.333)"><path d="M3634.048,4463.91s-4.872.224-6.065.222-3.743.03-4.127-.354a2.025,2.025,0,0,1-.238-.3,2.124,2.124,0,0,0,.579,1.1c.385.383,2.595.351,3.787.354s6.065-.222,6.065-.222,2.687-.293,2.825-1.085a4.487,4.487,0,0,0,.057-.717C3636.471,4463.591,3634.048,4463.91,3634.048,4463.91Z" transform="translate(-3623.568 -4457.625)" fill="#dbdcdc"/><path d="M3629.961,4452.125a5.631,5.631,0,0,1-2.818,1.634c-2.281.773-2.768.97-3.376,2.045a1.8,1.8,0,0,0-.208,1.37,2.041,2.041,0,0,0,.238.3c.385.384,2.936.352,4.127.354s6.066-.222,6.066-.222,2.423-.318,2.883-1a23.362,23.362,0,0,0-.853-5.285C3634.8,4452.286,3631.791,4452.51,3629.961,4452.125Z" transform="translate(-3623.51 -4451.318)" fill="#f5f6f7"/></g><g transform="translate(76.996 89.284)"><path d="M3634.29,4460.212l-.7.455a3.475,3.475,0,0,1,.834,1.977c.252-.007.532-.017.824-.027A3.862,3.862,0,0,0,3634.29,4460.212Z" transform="translate(-3633.589 -4459.108)" fill="#00254d"/><path d="M3636.434,4458.59a7.022,7.022,0,0,1,1.164,2.678c.572-.021,1.15-.045,1.67-.068a7.47,7.47,0,0,0-1.342-3.41Z" transform="translate(-3635.137 -4457.791)" fill="#00254d"/></g><g transform="translate(95.47 80.04)"><path d="M3682.239,4440.318c-.125-.124-.244-.234-.362-.341a5.726,5.726,0,0,1,.041,3.153,50.893,50.893,0,0,1-1.645,5.321c-.541,1.073-1.542,2.966-2.065,3.126a2.194,2.194,0,0,1-1.827-.146,2.025,2.025,0,0,0,2.294.556,7.548,7.548,0,0,0,2.246-2.781,50.761,50.761,0,0,0,1.645-5.322S3683.238,4441.315,3682.239,4440.318Z" transform="translate(-3675.346 -4438.854)" fill="#dbdcdc"/><path d="M3680.643,4438.637a6.649,6.649,0,0,0-1.614-1.124c-.285,1.625-2,4.884-4.917,4.658a7.61,7.61,0,0,1,.547,3.1c-.172,2.448-.29,3.659.414,4.728.021.031.049.062.073.092a2.191,2.191,0,0,0,1.828.146c.523-.16,1.524-2.053,2.065-3.126a50.915,50.915,0,0,0,1.645-5.321A5.728,5.728,0,0,0,3680.643,4438.637Z" transform="translate(-3674.112 -4437.513)" fill="#f5f6f7"/></g><g transform="translate(71.182 44.577)"><path d="M3629.77,4378.129c-.348-4.184-.331-9.164-.769-11.458-.163-.854-.367-.208-.408-1.876a41.668,41.668,0,0,0,6.771-.483c6.594-1.321,7.032-3.438,7.032-3.438s.041.181.083.44a5,5,0,0,0-.406-1.589c-1.191,3.625-8.394,4-12.243,3.927-3.48-.068-5.187-.858-6.421-2.266a159,159,0,0,0-2.572,19.162c-.115,5.081,6.014,20.655,6.256,21.051.816,1.312,7.441,1.217,7.98-.828.475-1.8-4.849-14.638-5.023-16.91C3629.9,4381.973,3629.734,4379.774,3629.77,4378.129Z" transform="translate(-3620.835 -4359.724)" fill="#ccc6ac"/></g><path d="M3649.79,4384.752c-1.244-1.07,0-6.138.646-11.245.418-3.33,1.205-6.147,1.393-9.576a7.439,7.439,0,0,0-.175-1.688s-.438,2.118-7.032,3.438a41.6,41.6,0,0,1-6.771.483c.041,1.668.245,1.022.408,1.876.567,2.969.372,10.434,1.191,14.854.553,2.983,3.253,7.915,7.853,12.455,2.65,2.62,5.715,5.715,6.94,5.856,3.75.43,5.57-4.9,5-5.486C3657.813,4394.253,3652.926,4387.443,3649.79,4384.752Z" transform="translate(-3558.912 -4316.518)" fill="#e2dcc3"/><path d="M3621,4322.892c-1.423-9.256-2.172-15.632-6.123-23.3a4.6,4.6,0,0,0-.892-1.148,5.619,5.619,0,0,0-3.16-2.053,14.1,14.1,0,0,0-2.594-.894,10.756,10.756,0,0,0-2.063-.245,3.472,3.472,0,0,1-.569,1.686,8.355,8.355,0,0,1-2.582,1.629,3.06,3.06,0,0,1-1.616-2.217,5.681,5.681,0,0,1-1.506-.129c-.174-.039-.339-.089-.5-.14a10.463,10.463,0,0,0-3.5,2.056,6.872,6.872,0,0,0-2.131,3.273c-1.343,5.525-1.236,7.543-2.023,9.188-.9,1.872-5.9,4.979-9.841,6.747l1.852-.111c1.143.146,2.666.969,2.518,2.111l-.056,1.32a1.969,1.969,0,0,1-.458.979c3.687-1.674,9.449-4.233,10.779-6.99a17.164,17.164,0,0,0,.676-1.658c.477,1.321.825,2.546,1.125,3.7-.582.324-1.108.609-1.543.838,1.147.127,2.679.915,2.555,2.061l-.034,1.321a2.743,2.743,0,0,1-2.748,2.095l-1.08-.067a4.913,4.913,0,0,0,4.077-.3c.07-.04.222-.112.427-.208a15.751,15.751,0,0,0,.853,1.8c1.5,2.694,2.88,4.228,7.8,4.325C3613.04,4328.661,3621.812,4328.153,3621,4322.892Z" transform="translate(-3528.467 -4280.068)" fill="#00254d"/><path d="M3629.733,4295.648c-.539-1.185-1.466-1.229-1.439-1.48,0,.023,0,.049-.007.074-.017.183-.031.382-.058.594,0,.021,0,.042-.008.064-.009.061-.02.123-.031.186-.005.028-.009.054-.015.083-.013.061-.029.124-.046.186-.008.031-.015.062-.024.093-.019.063-.042.127-.066.192-.012.033-.021.065-.035.1-.027.068-.062.138-.1.208-.015.031-.027.062-.044.094a3.476,3.476,0,0,1-.184.311,8.36,8.36,0,0,1-2.582,1.629,3.059,3.059,0,0,1-1.616-2.216,5.775,5.775,0,0,1-.88-.03,7.5,7.5,0,0,0,.109,3.153c.248.833,1.229,3.988,2.148,4.091.354.039,3.453-3.311,4.021-4.3C3629.3,4297.957,3630.1,4296.459,3629.733,4295.648Z" transform="translate(-3550.546 -4279.477)" fill="#00254d"/><path d="M3623.28,4278.7c-.054-1.285-2.755-2.452-4.2-2.566-1.768-.145-3.475.524-5.051.194-1.039-.216-1.425-.912-2.423-1.5a8.953,8.953,0,0,0-.6,1.793c-.864,3.913.9,7.67,4.613,8.489a5.681,5.681,0,0,0,1.506.129,3.059,3.059,0,0,0,1.616,2.217,8.352,8.352,0,0,0,2.582-1.629,4,4,0,0,0,.607-2.118l-.373-1.177a12.054,12.054,0,0,0,1.561-3.234C3623.179,4279.1,3623.23,4278.9,3623.28,4278.7Z" transform="translate(-3544.186 -4268.953)" fill="#fbd6a0"/><path d="M3619.145,4267.157a5.479,5.479,0,0,0-3.9-4.728,7.132,7.132,0,0,0-6.583.685,6.132,6.132,0,0,0-2.48,3.692l-2.32.049c-.662.009-1.189.019-1.426.03l-.292.006c.061,0,.116,0,.176,0-1.058.109-.237,1.824.9,2.283a8.217,8.217,0,0,0,2.906.42,4.948,4.948,0,0,1,.685-1.733c.939.581,1.332,1.246,2.341,1.456,1.576.33,3.283-.339,5.051-.194,1.445.115,4.15,1.284,4.2,2.569A9.824,9.824,0,0,0,3619.145,4267.157Z" transform="translate(-3539.313 -4261.942)" fill="#00254d"/><g transform="translate(49.079 37.17)"><g transform="translate(0 3.43)"><path d="M3573.957,4351.085l0-.086a5.863,5.863,0,0,0-1.454,2.262c-.045.124-.1.265-.154.412v4.164c.292-.849.676-1.834,1-2.663.213-.545.4-1.038.541-1.411a4.544,4.544,0,0,1,.752-1.327A1.29,1.29,0,0,1,3573.957,4351.085Z" transform="translate(-3572.35 -4350.999)" fill="#dbdcdc"/></g><path d="M3582.918,4346.906a2.749,2.749,0,0,1-2.789,2.043l-2.195-.178c-1.147-.147-2.226-.634-2.077-1.781l.052-1.975c.148-1.146,1.38-1.569,2.528-1.419l2.019-.122c1.143.146,2.666.969,2.518,2.111Z" transform="translate(-3574.251 -4343.475)" fill="#fbd6a0"/></g><g transform="translate(55.669 37.471)"><path d="M3611.661,4347.52a2.744,2.744,0,0,1-2.748,2.1l-2.2-.137c-1.148-.123-2.237-.593-2.11-1.738l.018-1.976c.125-1.15,1.349-1.6,2.5-1.47l2.014-.157c1.147.125,2.685.915,2.56,2.062Z" transform="translate(-3596.485 -4344.137)" fill="#fbd6a0"/><path d="M3587.543,4348.16a.737.737,0,1,0,0,1.474h7.385l.013-1.474Z" transform="translate(-3586.806 -4346.326)" fill="#dbdcdc"/><g transform="translate(11.113 2.51)"><path d="M3611.9,4412.742h-.722V4428.5h1.475v-16.086A1.041,1.041,0,0,1,3611.9,4412.742Z" transform="translate(-3611.182 -4383.801)" fill="#dbdcdc"/><path d="M3614.881,4349.909a.737.737,0,1,0-1.133.944,1.923,1.923,0,0,1,.295,1.686c-.149.438-.395,1.065-.655,1.729-.4,1.01-.846,2.155-1.12,3.058l-.034.112a19.18,19.18,0,0,0-1.052,5.389v5.408h.722a1.039,1.039,0,0,1,.753.323v-5.731a17.744,17.744,0,0,1,.988-4.96l.034-.112c.257-.848.7-1.963,1.081-2.949.267-.68.519-1.322.679-1.792A3.38,3.38,0,0,0,3614.881,4349.909Z" transform="translate(-3611.182 -4349.644)" fill="#dbdcdc"/></g></g><path d="M3609.195,4390.423H3606.2v10.351h2.991a1.047,1.047,0,0,0,1.046-1.046v-8.26A1.046,1.046,0,0,0,3609.195,4390.423Z" transform="translate(-3541.692 -4331.851)" fill="#69757c"/><g transform="translate(5.11 87.57)"><g transform="translate(1.618 1.852)"><path d="M3480.181,4459.209a3.314,3.314,0,0,1,.376-1.117h-1.1A2.386,2.386,0,0,1,3480.181,4459.209Z" transform="translate(-3479.453 -4458.093)" fill="#23456d"/></g><g transform="translate(2.292 1.374)"><path d="M3486.873,4457.044a8.141,8.141,0,0,1,.246,2.111c0,1.012-.447,1.548-1,1.548a.492.492,0,0,1-.073-.012.458.458,0,0,1-.074.012c-.354,0-.622-.312-.844-.73-.24-.458-.436-1.162-.706-1.717a3.882,3.882,0,0,0-.127.995c0,1.444.751,2.611,1.677,2.611s1.681-1.167,1.681-2.611A3.138,3.138,0,0,0,3486.873,4457.044Z" transform="translate(-3482.764 -4457.044)" fill="#3e3a39"/><g transform="translate(0 0.478)"><path d="M3482.472,4459.822a3.9,3.9,0,0,1,.125-.987,1.79,1.79,0,0,0-.563-.742h-.673a3.5,3.5,0,0,0-.431,1.729c0,1.444.753,2.612,1.68,2.612h1.44a.386.386,0,0,0,.049-.007C3483.2,4462.387,3482.472,4461.239,3482.472,4459.822Z" transform="translate(-3480.931 -4458.093)" fill="#231815"/></g></g><path d="M3482.545,4454.031H3479.8a5.954,5.954,0,0,0,1.62,1.852c.619.4.888,1.73,1.266,2.451.221.418.489.73.844.73a.513.513,0,0,0,.073-.012.57.57,0,0,0,.073.012c.549,0,1-.537,1-1.549,0-2.632-.9-3.484-.9-3.484Z" transform="translate(-3478.023 -4454.031)" fill="#4878b2"/><path d="M3477.521,4455.883a5.941,5.941,0,0,1-1.618-1.852h1.776a5.947,5.947,0,0,0,1.62,1.852Z" transform="translate(-3475.903 -4454.031)" fill="#3e699d"/><path d="M3487.473,4459.613c-.364,0-.663.462-.663,1.032s.3,1.033.663,1.033c.091,0,.869-.009.869-1.033S3487.564,4459.613,3487.473,4459.613Z" transform="translate(-3481.838 -4457.068)" fill="#bebfbf"/></g><g transform="translate(30.65 87.57)"><g transform="translate(1.97)"><path d="M3538.486,4454.031h-2.238l.25,3.484c0,.855.445,1.549,1,1.549a.573.573,0,0,0,.072-.012.5.5,0,0,0,.072.012c.55,0,1-.694,1-1.549v-3.484Z" transform="translate(-3536.248 -4454.031)" fill="#4878b2"/></g><path d="M3534.414,4454.031h-1.536l.118,1.649a1.415,1.415,0,0,1,1.127-.682h.361Z" transform="translate(-3532.445 -4454.031)" fill="#23456d"/><g transform="translate(0 0.967)"><path d="M3538.115,4457.666v1.816c0,.855-.446,1.549-1,1.549a.507.507,0,0,1-.072-.012.573.573,0,0,1-.072.012c-.55,0-1-.694-1-1.549l-.132-1.836a3.388,3.388,0,0,0-.552,1.933c0,1.444.752,2.612,1.68,2.612s1.679-1.168,1.679-2.612A3.409,3.409,0,0,0,3538.115,4457.666Z" transform="translate(-3533.76 -4456.965)" fill="#3e3a39"/><path d="M3533.467,4458.767a3.374,3.374,0,0,1,.549-1.924l-.05-.69h-.36c-.928,0-1.679,1.172-1.679,2.614s.751,2.612,1.679,2.612h1.442a.419.419,0,0,0,.048-.008C3534.192,4461.331,3533.467,4460.183,3533.467,4458.767Z" transform="translate(-3531.927 -4456.153)" fill="#231815"/></g><path d="M3538.468,4459.613c-.365,0-.664.462-.664,1.032s.3,1.033.664,1.033c.092,0,.868-.009.868-1.033S3538.559,4459.613,3538.468,4459.613Z" transform="translate(-3535.125 -4457.068)" fill="#bebfbf"/></g><g transform="translate(36.448 89.422)"><path d="M3545.373,4459.209a3.314,3.314,0,0,1,.376-1.117h-1.1A2.384,2.384,0,0,1,3545.373,4459.209Z" transform="translate(-3544.645 -4458.093)" fill="#23456d"/></g><g transform="translate(37.123 88.944)"><path d="M3552.066,4457.044a8.166,8.166,0,0,1,.246,2.111c0,1.012-.447,1.548-1,1.548a.476.476,0,0,1-.073-.012.452.452,0,0,1-.074.012c-.354,0-.622-.312-.843-.73-.24-.458-.437-1.162-.707-1.717a3.882,3.882,0,0,0-.127.995c0,1.444.751,2.611,1.676,2.611s1.682-1.167,1.682-2.611A3.14,3.14,0,0,0,3552.066,4457.044Z" transform="translate(-3547.957 -4457.044)" fill="#595757"/><g transform="translate(0 0.478)"><path d="M3547.665,4459.822a3.885,3.885,0,0,1,.125-.987,1.784,1.784,0,0,0-.563-.742h-.673a3.5,3.5,0,0,0-.43,1.729c0,1.444.752,2.612,1.679,2.612h1.441a.4.4,0,0,0,.05-.007C3548.389,4462.387,3547.665,4461.239,3547.665,4459.822Z" transform="translate(-3546.124 -4458.093)" fill="#231815"/></g></g><path d="M3547.737,4454.031h-2.746a5.948,5.948,0,0,0,1.619,1.852c.618.4.888,1.73,1.266,2.451.221.418.489.73.843.73a.507.507,0,0,0,.074-.012.553.553,0,0,0,.073.012c.549,0,1-.537,1-1.549,0-2.632-.9-3.484-.9-3.484Z" transform="translate(-3508.385 -4366.46)" fill="#4878b2"/><path d="M3542.713,4455.883a5.933,5.933,0,0,1-1.618-1.852h1.776a5.95,5.95,0,0,0,1.619,1.852Z" transform="translate(-3506.265 -4366.46)" fill="#3e699d"/><path d="M3552.666,4459.613c-.364,0-.663.462-.663,1.032s.3,1.033.663,1.033c.091,0,.869-.009.869-1.033S3552.757,4459.613,3552.666,4459.613Z" transform="translate(-3512.2 -4369.498)" fill="#bebfbf"/><path d="M3496.424,4449.553v-.8a1.048,1.048,0,0,1,1.046-1.046h-31.732a1.047,1.047,0,0,0-1.044,1.046v.8a1.047,1.047,0,0,0,1.044,1.044h31.732A1.047,1.047,0,0,1,3496.424,4449.553Z" transform="translate(-3464.694 -4363.018)" fill="#00447d"/><g transform="translate(31.73 84.685)"><path d="M1.446,0h35.84a1.446,1.446,0,0,1,1.446,1.446v0a1.448,1.448,0,0,1-1.448,1.448H1.448A1.448,1.448,0,0,1,0,1.446v0A1.446,1.446,0,0,1,1.446,0Z" fill="#00579b"/></g><g transform="translate(60.367 87.57)"><path d="M3600.3,4454.031h-2.239l.248,3.484c0,.855.446,1.549,1,1.549a.513.513,0,0,0,.071-.012.619.619,0,0,0,.072.012c.552,0,1-.694,1-1.549v-3.484Z" transform="translate(-3597.629 -4454.031)" fill="#2d527e"/><g transform="translate(0 0.967)"><path d="M3603.834,4458.767c0,1.444-.75,2.612-1.677,2.612s-1.681-1.168-1.681-2.612.753-2.614,1.681-2.614S3603.834,4457.325,3603.834,4458.767Z" transform="translate(-3598.942 -4456.153)" fill="#595757"/><path d="M3598.651,4458.767c0-1.416.726-2.563,1.631-2.6a.459.459,0,0,0-.05-.01h-1.441c-.927,0-1.679,1.172-1.679,2.614s.752,2.612,1.679,2.612h1.441a.448.448,0,0,0,.05-.008C3599.376,4461.331,3598.651,4460.183,3598.651,4458.767Z" transform="translate(-3597.111 -4456.153)" fill="#231815"/></g><path d="M3603.673,4454.031h-2.24l.25,3.484c0,.855.444,1.549.995,1.549a.5.5,0,0,0,.071-.012.556.556,0,0,0,.072.012c.55,0,1-.694,1-1.549v-3.484Z" transform="translate(-3599.463 -4454.031)" fill="#5084c4"/><path d="M3603.655,4459.613c-.368,0-.665.462-.665,1.032s.3,1.033.665,1.033c.089,0,.868-.009.868-1.033S3603.744,4459.613,3603.655,4459.613Z" transform="translate(-3600.31 -4457.068)" fill="#dbdcdc"/></g><g transform="translate(6.575 52.821)"><path d="M3479.586,4377.906h30.828v0a.415.415,0,0,0-.395.4h-30.849A.418.418,0,0,1,3479.586,4377.906Z" transform="translate(-3479.146 -4377.861)" fill="#fbd6a0"/><path d="M3546.839,4378.314a.417.417,0,0,1,.415-.408h26.217a.416.416,0,0,1,.416.408Z" transform="translate(-3515.965 -4377.861)" fill="#b09060"/><path d="M3479.586,4447.24h30.828v0a.414.414,0,0,1-.395-.4h-30.849A.416.416,0,0,0,3479.586,4447.24Z" transform="translate(-3479.146 -4415.365)" fill="#cea75f"/><path d="M3546.839,4446.832a.415.415,0,0,0,.415.408h26.217a.414.414,0,0,0,.416-.408Z" transform="translate(-3515.965 -4415.365)" fill="#90764d"/><rect width="27.097" height="31.013" transform="translate(30.84 0.453)" fill="#c4a064"/><rect width="30.84" height="31.013" transform="translate(0 0.453)" fill="#eabe6c"/><rect width="4.101" height="2.733" transform="translate(42.493)" fill="#eabe6c"/><rect width="4.101" height="2.734" transform="translate(42.493 29.14)" fill="#eabe6c"/></g><g transform="translate(9.87 55.768)"><path d="M3487.255,4384.272a.209.209,0,0,1-.06.135.223.223,0,0,1-.154.067.245.245,0,0,1-.154-.067.207.207,0,0,1-.06-.135h-.484v7.475h.477a.2.2,0,0,1,.066-.155.216.216,0,0,1,.307,0,.2.2,0,0,1,.067.155h14.107v-7.475Zm-.213,7.12a.225.225,0,0,1,0-.451.225.225,0,0,1,0,.451Zm0-.583a.221.221,0,0,1-.22-.221.227.227,0,0,1,.22-.223.222.222,0,0,1,.22.223A.217.217,0,0,1,3487.042,4390.809Zm0-.575a.222.222,0,0,1-.22-.22.227.227,0,0,1,.22-.224.222.222,0,0,1,.22.224A.217.217,0,0,1,3487.042,4390.234Zm0-.576a.221.221,0,0,1,0-.442.221.221,0,0,1,0,.442Zm0-.576a.226.226,0,0,1-.22-.221.221.221,0,0,1,.22-.22.216.216,0,0,1,.22.22A.221.221,0,0,1,3487.042,4389.083Zm0-.575a.227.227,0,0,1-.22-.221.22.22,0,0,1,.22-.22.216.216,0,0,1,.22.22A.222.222,0,0,1,3487.042,4388.508Zm0-.583a.222.222,0,0,1-.22-.221.228.228,0,0,1,.22-.222.222.222,0,0,1,.22.222A.217.217,0,0,1,3487.042,4387.925Zm0-.574a.221.221,0,0,1-.22-.221.227.227,0,0,1,.22-.222.222.222,0,0,1,.22.222A.216.216,0,0,1,3487.042,4387.351Zm0-.576a.221.221,0,0,1-.22-.221.226.226,0,0,1,.22-.222.221.221,0,0,1,.22.222A.216.216,0,0,1,3487.042,4386.775Zm0-.576a.221.221,0,0,1,0-.442.221.221,0,0,1,0,.442Zm0-.573a.227.227,0,0,1-.22-.223.221.221,0,0,1,.22-.221.217.217,0,0,1,.22.221A.222.222,0,0,1,3487.042,4385.626Zm0-.577a.226.226,0,0,1-.22-.221.221.221,0,0,1,.22-.221.216.216,0,0,1,.22.221A.221.221,0,0,1,3487.042,4385.049Z" transform="translate(-3486.345 -4384.272)" fill="#fff"/><g transform="translate(2.026 0.925)"><path d="M3497.458,4390.948h-3.981a.244.244,0,0,1,0-.488h3.981a.244.244,0,0,1,0,.488Z" transform="translate(-3492.119 -4388.564)" fill="#c8c9ca"/><path d="M3495.014,4386.79h-3.98a.244.244,0,0,1,0-.488h3.98a.244.244,0,0,1,0,.488Z" transform="translate(-3490.789 -4386.302)" fill="#c8c9ca"/><path d="M3496.886,4388.611h-5.853a.244.244,0,1,1,0-.488h5.853a.244.244,0,0,1,0,.488Z" transform="translate(-3490.789 -4387.292)" fill="#c8c9ca"/><path d="M3511.214,4390.948h-2.56a.244.244,0,1,1,0-.488h2.56a.244.244,0,0,1,0,.488Z" transform="translate(-3500.377 -4388.564)" fill="#c8c9ca"/><g transform="translate(0 3.248)"><path d="M3497.458,4398.069h-3.981a.244.244,0,0,1,0-.488h3.981a.244.244,0,1,1,0,.488Z" transform="translate(-3492.119 -4395.687)" fill="#c8c9ca"/><path d="M3495.014,4393.914h-3.98a.244.244,0,0,1,0-.488h3.98a.244.244,0,0,1,0,.488Z" transform="translate(-3490.789 -4393.426)" fill="#c8c9ca"/><path d="M3496.886,4395.731h-5.853a.244.244,0,1,1,0-.488h5.853a.244.244,0,0,1,0,.488Z" transform="translate(-3490.789 -4394.415)" fill="#c8c9ca"/></g></g><path d="M3501.875,4385.09H3489.84a.652.652,0,0,0-.652.651v5.437a.653.653,0,0,0,.652.651h12.036a.653.653,0,0,0,.651-.651v-5.437A.652.652,0,0,0,3501.875,4385.09Zm.456.651v1.044h-5.288v-1.5h4.832A.456.456,0,0,1,3502.331,4385.741Zm-5.288,4.324v-1.207h5.288v1.207Zm0-1.3v-1.877h5.288v1.877Zm-7.2-3.475h7.01v3.117h-7.466v-2.661A.456.456,0,0,1,3489.84,4385.285Zm-.456,5.893V4388.5h7.466v3.132h-7.01A.456.456,0,0,1,3489.383,4391.178Z" transform="translate(-3487.892 -4384.717)" fill="#ed85a7"/></g><g transform="translate(69.753 22.156)"><path d="M3625.559,4319.877c1.53-2.271,2.209-5.854,2.438-7.983a13.431,13.431,0,0,0,.05-1.352,17.64,17.64,0,0,0-.851,3.137c-.424,2.121-1.164,5.486-3.039,6.813a68.124,68.124,0,0,1-6.456,4.053s.049.165.133.464C3620.7,4323.413,3624.862,4320.913,3625.559,4319.877Z" transform="translate(-3617.701 -4310.542)" fill="#fff"/><path d="M3637.014,4312.9a18.326,18.326,0,0,1-3.321,10.943c-2.131,2.779-3.479,3.386-5.484,4.793a53.54,53.54,0,0,1-6.561,3.4c.106.286.179.478.179.478a45.9,45.9,0,0,0,8-4.33,16.486,16.486,0,0,0,4.5-4.383C3637.324,4319.206,3637.523,4315.875,3637.014,4312.9Z" transform="translate(-3619.849 -4311.826)" fill="#fff"/></g><g transform="translate(98.518 84.506)"><path d="M3681.309,4453.893a3.552,3.552,0,0,1,2.255-.2c.082-.262.165-.533.243-.807a3.8,3.8,0,0,0-2.5.084C3681.319,4453.3,3681.322,4453.608,3681.309,4453.893Z" transform="translate(-3681.073 -4450.248)" fill="#00254d"/><path d="M3683.766,4449.145c.187-.661.351-1.26.452-1.633a6.29,6.29,0,0,0-3.421.1c.061.433.14,1.08.191,1.753A6.183,6.183,0,0,1,3683.766,4449.145Z" transform="translate(-3680.797 -4447.309)" fill="#00254d"/></g><path d="M3635.791,4297.924a3.556,3.556,0,0,1-1.368,1.823s5.146.952,4.894,4.136c0,0,2.527-.455,3.284.708C3642.6,4304.59,3642.927,4299.646,3635.791,4297.924Z" transform="translate(-3557.046 -4281.52)" fill="#fff"/><path d="M3614.931,4298.239s-3.638,1.617-4.346,2.881l-.455-.506s.657-1.516,4.094-3.032C3614.223,4297.582,3614.981,4298.188,3614.931,4298.239Z" transform="translate(-3543.828 -4281.334)" fill="#fff"/></g><path d="M3630.631,4311.636s-.758,7.428.2,9.55l.455.1,1.465-1.466a47.549,47.549,0,0,1-.1-6.165l1.819.252.252-2.072S3631.085,4311.534,3630.631,4311.636Z" transform="translate(-3554.828 -4260.061)" fill="#fff"/><path d="M3613.435,4311.39a25.7,25.7,0,0,1,4.781.023s.3,9.028-.388,10.15l-1.736-.1.176-8.364-2.772.032Z" transform="translate(-3545.627 -4259.875)" fill="#fff"/><path d="M3640.428,4331.155l-2.627-1.87s-2.78,4.75-6.165,6.013l1.92,2.83,3.184-2.426,2.324-2.375Z" transform="translate(-3555.53 -4269.675)" fill="#fff"/><path d="M3600.261,4323.19a9.947,9.947,0,0,1-.712,2.612,10.556,10.556,0,0,1-3.3,3.082l.87.773c4.952-2.274,4.649-6.267,4.649-6.267Z" transform="translate(-3536.276 -4266.359)" fill="#fff"/><path d="M3620.486,4262.429a7.132,7.132,0,0,0-6.583.685,5.9,5.9,0,0,0-2.423,3.534l-.019.172a19.567,19.567,0,0,1,8.843.4,3.4,3.4,0,0,1,2.878-3A5.447,5.447,0,0,0,3620.486,4262.429Z" transform="translate(-3544.552 -4233.033)" fill="#fff"/><g transform="translate(7.263 60.065)"><rect width="3.289" height="1.444" rx="0.722" transform="translate(2.417 20.146)" fill="#3d3d3d"/><rect width="3.289" height="1.444" rx="0.722" transform="translate(28.754 20.146)" fill="#3d3d3d"/><path d="M361.44,1362.278a1.143,1.143,0,0,0-1.143,1.143v18.021a1.143,1.143,0,0,0,1.143,1.143h25.919v-20.307Z" transform="translate(-360.002 -1362.237)" fill="#4d4d4d"/><path d="M3.091,0H18.258A3.092,3.092,0,0,1,21.35,3.092V9.186a3.091,3.091,0,0,1-3.091,3.091H3.091A3.091,3.091,0,0,1,0,9.186V3.091A3.091,3.091,0,0,1,3.091,0Z" transform="translate(3.151 5.081)" fill="#e6e6e6"/><path d="M602.477,1362.278h-5.8v20.307h5.8a1.143,1.143,0,0,0,1.143-1.143v-18.021A1.143,1.143,0,0,0,602.477,1362.278Z" transform="translate(-569.32 -1362.237)" fill="#333"/><g transform="translate(27.939 3.886)"><g transform="translate(0 0)"><circle cx="2.405" cy="2.405" r="2.405" transform="translate(0 4.683) rotate(-76.838)" fill="#4d4d4d"/><circle cx="2.058" cy="2.058" r="2.058" transform="translate(0.416 4.423) rotate(-76.821)" fill="#333"/><circle cx="1.91" cy="1.91" r="1.91" transform="translate(0.578 4.287) rotate(-76.168)" fill="#4d4d4d"/><path d="M622.355,1402.787h-.55a6.462,6.462,0,0,0-.034,4.177h.588A7.531,7.531,0,0,0,622.355,1402.787Z" transform="translate(-619.203 -1401.995)" fill="#333"/></g><g transform="translate(0 6.837)"><circle cx="2.405" cy="2.405" r="2.405" transform="translate(0 4.683) rotate(-76.838)" fill="#4d4d4d"/><circle cx="2.058" cy="2.058" r="2.058" transform="translate(0.416 4.424) rotate(-76.821)" fill="#333"/><circle cx="1.91" cy="1.91" r="1.91" transform="translate(0.594 4.313) rotate(-76.813)" fill="#4d4d4d"/><path d="M613.009,1476.184v-.55a6.462,6.462,0,0,0-4.177-.034v.588A7.531,7.531,0,0,0,613.009,1476.184Z" transform="translate(-608.023 -1473.032)" fill="#333"/></g></g><rect width="20.666" height="1.643" transform="translate(3.493)" fill="#4d4d4d"/><path d="M385.031,1364.643h-3.149a48.7,48.7,0,0,1-20.665,0h-3.149a.344.344,0,0,1-.344-.344v-2.009a.37.37,0,0,1,.37-.37h3.124a45.918,45.918,0,0,0,20.665,0H385a.37.37,0,0,1,.37.37v2.009A.344.344,0,0,1,385.031,1364.643Z" transform="translate(-357.723 -1361.921)" fill="#333"/><g transform="translate(4.167 8.733)"><path d="M403.847,1444.277h9.4a.323.323,0,0,0,.3-.45l-1.9-4.31a.318.318,0,0,1-.027-.127v-.864a.327.327,0,0,0-.33-.323H396.4a.327.327,0,0,0-.33.323v.86a.315.315,0,0,1-.027.127l-1.9,4.315a.323.323,0,0,0,.3.45Z" transform="translate(-394.12 -1438.202)" fill="none" stroke="#b3b3b3" stroke-linecap="round" stroke-linejoin="round" stroke-width="1"/><line y2="6.075" transform="translate(9.727 0)" fill="none" stroke="#b3b3b3" stroke-linecap="round" stroke-linejoin="round" stroke-width="1"/><path d="M461.213,1438.2v1.249l-.59,4.826" transform="translate(-453.01 -1438.202)" fill="none" stroke="#b3b3b3" stroke-linecap="round" stroke-linejoin="round" stroke-width="1"/><path d="M443.876,1438.2v1.259l-1.214,4.815" transform="translate(-437.104 -1438.202)" fill="none" stroke="#b3b3b3" stroke-linecap="round" stroke-linejoin="round" stroke-width="1"/><path d="M427.521,1438.2v1.249l-1.543,4.826" transform="translate(-422.331 -1438.202)" fill="none" stroke="#b3b3b3" stroke-linecap="round" stroke-linejoin="round" stroke-width="1"/><path d="M410.865,1438.2v1.249l-1.917,4.826" transform="translate(-407.25 -1438.202)" fill="none" stroke="#b3b3b3" stroke-linecap="round" stroke-linejoin="round" stroke-width="1"/><path d="M492.4,1438.2v1.249l.589,4.826" transform="translate(-481.144 -1438.202)" fill="none" stroke="#b3b3b3" stroke-linecap="round" stroke-linejoin="round" stroke-width="1"/><path d="M504.9,1438.2v1.259l1.214,4.815" transform="translate(-492.217 -1438.202)" fill="none" stroke="#b3b3b3" stroke-linecap="round" stroke-linejoin="round" stroke-width="1"/><path d="M518.715,1438.2v1.249l1.543,4.826" transform="translate(-504.45 -1438.202)" fill="none" stroke="#b3b3b3" stroke-linecap="round" stroke-linejoin="round" stroke-width="1"/><path d="M532.476,1438.2v1.249l1.917,4.826" transform="translate(-516.637 -1438.202)" fill="none" stroke="#b3b3b3" stroke-linecap="round" stroke-linejoin="round" stroke-width="1"/></g></g><g transform="translate(41.454 42.774)"><g transform="translate(6.869 63.576)"><path d="M1165.133,739.375a11.654,11.654,0,0,0-.117,1.558h2.772a11.675,11.675,0,0,0-.117-1.558,2.958,2.958,0,0,1-2.538,0Z" transform="translate(-1165.016 -738.389)" fill="#bab9b9"/><path d="M1167.544,728.771h-1.1s-.092.4-.172.986a2.959,2.959,0,0,0,2.538,0c-.08-.581-.172-.986-.172-.986Z" transform="translate(-1166.158 -728.771)" fill="#a6a5a5"/></g><path d="M0,0H.941a0,0,0,0,1,0,0V0A.273.273,0,0,1,.667.273H.273A.273.273,0,0,1,0,0V0A0,0,0,0,1,0,0Z" transform="translate(0.854 70.745)" fill="#8c8c8c"/><path d="M.273,0H.667A.273.273,0,0,1,.941.273v0a0,0,0,0,1,0,0H0a0,0,0,0,1,0,0v0A.273.273,0,0,1,.273,0Z" transform="translate(15.657 71.019) rotate(180)" fill="#8c8c8c"/><path d="M0,0H.941a0,0,0,0,1,0,0V0A.273.273,0,0,1,.667.273H.273A.273.273,0,0,1,0,0V0A0,0,0,0,1,0,0Z" transform="translate(3.626 70.745)" fill="#8c8c8c"/><path d="M0,0H.941a0,0,0,0,1,0,0V0A.273.273,0,0,1,.667.273H.273A.273.273,0,0,1,0,0V0A0,0,0,0,1,0,0Z" transform="translate(6.399 70.745)" fill="#8c8c8c"/><path d="M0,0H.941a0,0,0,0,1,0,0V0A.273.273,0,0,1,.667.273H.273A.273.273,0,0,1,0,0V0A0,0,0,0,1,0,0Z" transform="translate(9.171 70.745)" fill="#8c8c8c"/><path d="M0,0H.941a0,0,0,0,1,0,0V0A.273.273,0,0,1,.667.273H.273A.273.273,0,0,1,0,0V0A0,0,0,0,1,0,0Z" transform="translate(11.943 70.745)" fill="#8c8c8c"/><path d="M1107.055,796.889H1091.7c-.283,0-.525-.073-.577-.329v.265a.591.591,0,0,0,.589.6h15.332a.591.591,0,0,0,.589-.6v-.265C1107.58,796.816,1107.338,796.889,1107.055,796.889Z" transform="translate(-1091.122 -726.682)" fill="#bab9b9"/><g transform="translate(3.882 49.322)"><path d="M1154.114,709.5a3.944,3.944,0,0,1-2.646-.938c.408,1.393,1.3,2.464,2.646,2.464s2.238-1.071,2.646-2.464A3.945,3.945,0,0,1,1154.114,709.5Z" transform="translate(-1149.74 -696.185)" fill="#c44823"/><path d="M1141.614,576.236h-1.031l-.4-.449a1.055,1.055,0,0,0-.788-.354h-4.287a1.054,1.054,0,0,0-.788.354l-.4.449h-1.031c-.159,3.251,1.311,9.936,1.646,11.313q.032.132.07.26a4.2,4.2,0,0,0,5.291,0c.025-.086.048-.172.07-.26C1140.3,586.172,1141.773,579.487,1141.614,576.236Z" transform="translate(-1132.879 -575.433)" fill="#9f3718"/></g><path d="M1147.332,604.433c.833,0,1.705-.357,1.857-.789a70.522,70.522,0,0,0,1.478-8.76,1.183,1.183,0,0,0-1.177-1.3h-4.316a1.183,1.183,0,0,0-1.177,1.3,70.563,70.563,0,0,0,1.478,8.76c.152.432,1.024.789,1.857.789Z" transform="translate(-1139.077 -542.571)" fill="#6d6d6d"/><path d="M.321,0h.9A.321.321,0,0,1,1.54.321v0a.321.321,0,0,1-.321.321h-.9A.321.321,0,0,1,0,.321v0A.321.321,0,0,1,.321,0Z" transform="translate(7.485 49.822)" fill="#f0f0f0"/><g transform="translate(3.894)"><path d="M1165.194,45.526a.5.5,0,0,0-.071-.216.906.906,0,0,0-1.584,0,.5.5,0,0,0-.071.216c-.1,3.26-.464,18.939-.736,29.935h3.2C1165.658,64.465,1165.291,48.786,1165.194,45.526Z" transform="translate(-1159.97 -44.844)" fill="#c44823"/><path d="M1140.064,461.34a5.8,5.8,0,0,1-.793-3.223c-.014-.062-.055-1.418-.114-3.6h-3.578c-.059,2.185-.1,3.541-.114,3.6a5.8,5.8,0,0,1-.793,3.223c-.714,1.014-1.507,1.966-1.666,5.217h1.031l.4-.449a1.054,1.054,0,0,1,.788-.354h4.287a1.055,1.055,0,0,1,.788.354l.4.449h1.031C1141.572,463.306,1140.778,462.354,1140.064,461.34Z" transform="translate(-1133.007 -416.432)" fill="#c44823"/><path d="M1164.242,380.586h-3.226c-.06,2.4-.114,4.556-.16,6.278h3.546C1164.356,385.142,1164.3,382.987,1164.242,380.586Z" transform="translate(-1158.267 -349.376)" fill="#c44823"/><path d="M1164.248,448.126H1160.7q-.008.306-.016.594h3.578Q1164.256,448.432,1164.248,448.126Z" transform="translate(-1158.113 -410.638)" fill="#bab9b9"/><path d="M1165.786,374.2h-3.2q-.008.3-.015.594h3.226Q1165.794,374.5,1165.786,374.2Z" transform="translate(-1159.826 -343.583)" fill="#bab9b9"/></g><path d="M1174.484,103.749a.559.559,0,0,1-.558-.558v-.973a.558.558,0,0,1,1.116,0v.973A.559.559,0,0,1,1174.484,103.749Z" transform="translate(-1166.229 -96.379)" fill="#666"/><g transform="translate(7.911 5.495)"><path d="M1176.911,104.3a.345.345,0,0,0-.689,0v.486h.689Z" transform="translate(-1176.222 -103.957)" fill="gray"/><path d="M1176.222,112.9v.487a.345.345,0,0,0,.689,0V112.9Z" transform="translate(-1176.222 -112.065)" fill="#666"/></g><path d="M1173.944,430.533a.566.566,0,1,1,.567.566A.567.567,0,0,1,1173.944,430.533Z" transform="translate(-1166.245 -394.167)" fill="#666"/><circle cx="0.342" cy="0.342" r="0.342" transform="translate(7.924 36.025)" fill="#bab9b9"/><g transform="translate(5.63 51.725)"><path d="M1161.227,630.547c.145.757.311,1.55.5,2.365a.58.58,0,0,0,.347.408,2.421,2.421,0,0,0,1.786,0,.58.58,0,0,0,.347-.408c.579-2.512.945-4.81,1.168-6.507Z" transform="translate(-1160.34 -624.069)" fill="#1f1f1f"/><path d="M1156.935,601.791a.467.467,0,0,0-.465-.515h-4.316a.467.467,0,0,0-.465.515c.126,1.226.389,3.387.884,5.963l4.147-4.142C1156.817,602.885,1156.886,602.267,1156.935,601.791Z" transform="translate(-1151.687 -601.276)" fill="#515151"/></g><path d="M1107.616,754.944l-.281-1.377a2.005,2.005,0,0,0-1.318-1.427l-4.489-1.287a.668.668,0,0,0-.759.271.492.492,0,0,1-.44.19h-1.9a.492.492,0,0,1-.44-.19.667.667,0,0,0-.758-.271l-4.489,1.287a2.005,2.005,0,0,0-1.318,1.427l-.281,1.377c-.089.361.189.458.561.458h15.356C1107.427,755.4,1107.7,755.3,1107.616,754.944Z" transform="translate(-1091.122 -685.195)" fill="#c44823"/></g></g></g></g></svg>