<?xml version="1.0" encoding="utf-8"?>
<!-- Generator: Adobe Illustrator 25.2.3, SVG Export Plug-In . SVG Version: 6.00 Build 0)  -->
<svg version="1.1" id="レイヤー_1" xmlns="http://www.w3.org/2000/svg" xmlns:xlink="http://www.w3.org/1999/xlink" x="0px"
	 y="0px" viewBox="0 0 177.2 97.2" style="enable-background:new 0 0 177.2 97.2;" xml:space="preserve">
<style type="text/css">
	.st0{fill:#FFD800;}
	.st1{fill:#1A1311;}
	.st2{fill:#C9B77D;}
	.st3{fill:#FFEEAD;}
	.st4{fill:#03A58E;}
	.st5{fill:#FF6F69;}
	.st6{fill:#96CEB4;}
	.st7{fill:#025035;}
	.st8{fill:#016E48;}
</style>
<g id="reason_05" transform="translate(69.148 17.163)">
	<g id="グループ_4304" transform="translate(-222.323 -3975.725)">
		<path id="長方形_2729" class="st0" d="M167.5,4021h68c1.1,0,2,0.9,2,2v9c0,1.1-0.9,2-2,2h-68c-1.1,0-2-0.9-2-2v-9
			C165.5,4021.9,166.4,4021,167.5,4021z"/>
		<path id="パス_80033" class="st1" d="M190.5,4029.9c8.9,0,13.6-6,13.6-14.4v-22.8c0-8.8-4.3-14.8-13.6-14.8
			c-9.4,0-13.7,6-13.7,14.8v22.8C176.8,4024.1,181.5,4029.9,190.5,4029.9z M190.5,4020.7c-2.9,0-3.1-3.5-3.1-5.4V3993
			c0-2-0.1-5.8,3.1-5.8c3.1,0,3.1,3.7,3.1,5.8v22.3C193.6,4017.2,193.4,4020.7,190.5,4020.7z"/>
		<path id="パス_80032" class="st1" d="M210.7,4027.8c-0.4,0-0.7-0.1-0.9-0.4c-0.3-0.3-0.4-0.6-0.4-1v-17.9c0-0.4,0.1-0.7,0.4-1
			c0.2-0.3,0.6-0.4,0.9-0.4h17.6c0.4,0,0.7,0.1,0.9,0.4c0.3,0.3,0.4,0.6,0.4,1v14.8c0,0.7,0,1.3,0,1.7c0,0.4-0.1,0.8-0.2,1.2
			c-0.1,0.3-0.2,0.6-0.4,0.8c-0.2,0.2-0.5,0.3-0.7,0.4c-0.4,0.1-0.7,0.2-1.1,0.2c-0.4,0-0.9,0-1.6,0c-0.9,0-1.8,0-2.7,0
			c-0.4,0-0.7-0.2-1-0.4c-0.3-0.3-0.4-0.6-0.5-1l0-0.5c0-0.3,0.1-0.7,0.4-0.9c0.2-0.3,0.6-0.4,0.9-0.4c0.7,0,1.4,0,2,0
			c0.3,0,0.6,0,0.9-0.1c0.1-0.1,0.1-0.4,0.1-0.8v-4.2c0-0.1-0.1-0.2-0.1-0.2c0,0,0,0,0,0h-12.3c-0.1,0-0.2,0.1-0.2,0.1c0,0,0,0,0,0
			v7c0,0.4-0.1,0.7-0.4,1c-0.2,0.3-0.6,0.4-1,0.4H210.7z M221.4,4010.6v5.3c0,0.1,0.1,0.2,0.2,0.2h4.1c0.1,0,0.2-0.1,0.2-0.2v-5.3
			c0-0.1-0.1-0.2-0.2-0.2h-4.1C221.4,4010.4,221.4,4010.5,221.4,4010.6z M213.2,4010.6v5.3c0,0.1,0.1,0.2,0.2,0.2h4.1
			c0.1,0,0.2-0.1,0.2-0.2c0,0,0,0,0-0.1v-5.3c0-0.1-0.1-0.2-0.2-0.2c0,0,0,0-0.1,0h-4.1C213.2,4010.4,213.2,4010.5,213.2,4010.6z"/>
		<path id="パス_80031" class="st1" d="M164.5,3968c-0.2,0-0.4-0.1-0.6-0.2c-0.2-0.1-0.3-0.3-0.3-0.6l0-0.4c0-0.2,0.1-0.4,0.2-0.6
			c0.1-0.2,0.3-0.2,0.6-0.3l3.8-0.1c0.1,0,0.1,0,0.1-0.1l-0.2-2.3c0-0.1,0-0.1-0.1-0.1l-3,0.1c-0.2,0-0.4-0.1-0.6-0.2
			c-0.2-0.1-0.3-0.3-0.3-0.5l0-0.5c0-0.2,0.1-0.4,0.2-0.6c0.1-0.2,0.3-0.3,0.6-0.3l2.9-0.1c0.1,0,0.1,0,0.1-0.1c0,0,0,0,0,0
			l-0.1-1.3c0-0.2,0-0.4,0.2-0.6c0.1-0.2,0.3-0.3,0.5-0.3l0.8-0.1c0.2,0,0.4,0.1,0.6,0.2c0.2,0.1,0.3,0.3,0.3,0.5l0.1,1.3
			c0,0.1,0,0.1,0.1,0.1l3.5-0.1c0.2,0,0.4,0.1,0.6,0.2c0.2,0.1,0.3,0.3,0.3,0.6l0,0.4c0,0.2-0.1,0.4-0.2,0.6
			c-0.1,0.2-0.3,0.3-0.6,0.3l-3.4,0.1c-0.1,0-0.1,0-0.1,0.1l0.2,2.4c0,0.1,0,0.1,0.1,0.1l3.6-0.1c0.2,0,0.4,0.1,0.6,0.2
			c0.2,0.1,0.3,0.3,0.3,0.6l0,0.4c0,0.2-0.1,0.4-0.2,0.6c-0.1,0.2-0.3,0.3-0.6,0.3l-3.5,0.1c-0.1,0-0.1,0-0.1,0.1l0.2,2.3
			c0,0.2,0,0.4-0.2,0.6c-0.1,0.2-0.3,0.3-0.5,0.3l-0.8,0.1c-0.2,0-0.4-0.1-0.6-0.2c-0.2-0.1-0.3-0.3-0.3-0.5l-0.2-2.4
			c0-0.1,0-0.1-0.1-0.1L164.5,3968z M178.5,3965.2l-0.1-0.3c0-0.2,0-0.4,0.1-0.6c0.1-0.2,0.3-0.3,0.5-0.3l1.5-0.3
			c0.1,0,0.1-0.1,0.1-0.1l-0.2-1.2c0-0.2,0-0.4,0.1-0.6c0.1-0.2,0.3-0.3,0.5-0.3l0.5-0.1c0.2,0,0.4,0,0.6,0.1
			c0.2,0.1,0.3,0.3,0.3,0.5l0.2,1.1c0,0.1,0.1,0.1,0.1,0.1l4.4-0.9c0.2,0,0.4,0,0.6,0.1c0.2,0.1,0.3,0.3,0.3,0.5l0.1,0.3
			c0.1,0.5,0.1,1-0.1,1.5c-0.4,1-0.9,1.9-1.6,2.8c-0.1,0.2-0.3,0.3-0.6,0.3c-0.2,0-0.4-0.1-0.6-0.2l-0.3-0.2
			c-0.2-0.1-0.3-0.3-0.3-0.5c0-0.2,0-0.4,0.2-0.6c0.4-0.5,0.8-1.1,1.1-1.7c0,0,0,0,0-0.1c0,0,0,0-0.1,0l-2.9,0.6
			c-0.1,0-0.1,0.1-0.1,0.1l0.8,4.5c0,0.2,0,0.4-0.1,0.6c-0.1,0.2-0.3,0.3-0.5,0.3l-0.5,0.1c-0.2,0-0.4,0-0.6-0.1
			c-0.2-0.1-0.3-0.3-0.3-0.5l-0.8-4.5c0-0.1-0.1-0.1-0.1-0.1l-1.4,0.3c-0.2,0-0.4,0-0.6-0.1C178.7,3965.6,178.5,3965.4,178.5,3965.2
			z M192.7,3961.7c-0.2-0.1-0.3-0.2-0.4-0.4c-0.1-0.2,0-0.4,0.1-0.6l0.3-0.6c0.1-0.2,0.3-0.3,0.5-0.4c0.2-0.1,0.4-0.1,0.6,0
			c1,0.5,1.9,0.9,3,1.5c0.2,0.1,0.3,0.3,0.4,0.5c0.1,0.2,0,0.4-0.1,0.6l-0.4,0.6c-0.1,0.2-0.3,0.3-0.5,0.4c-0.2,0.1-0.4,0-0.6-0.1
			C194.6,3962.7,193.7,3962.2,192.7,3961.7z M202.6,3961c0.2,0,0.4,0.2,0.5,0.3c0.1,0.2,0.2,0.4,0.1,0.6c-0.4,2.2-1.6,4.2-3.2,5.7
			c-1.9,1.5-4.2,2.4-6.6,2.6c-0.2,0-0.4,0-0.6-0.2c-0.2-0.1-0.3-0.3-0.3-0.5l-0.1-0.6c0-0.2,0-0.4,0.1-0.6c0.1-0.2,0.3-0.3,0.5-0.3
			c1.9-0.2,3.8-0.9,5.3-2c1.4-1.2,2.3-2.8,2.7-4.5c0-0.2,0.2-0.4,0.4-0.5c0.2-0.1,0.4-0.1,0.6-0.1L202.6,3961z M204.8,3963.5
			l-0.1-0.5c0-0.2,0-0.4,0.2-0.6c0.1-0.2,0.3-0.3,0.5-0.3l2.2-0.3c0.1,0,0.1-0.1,0.1-0.1v-1.8c0-0.2,0.1-0.4,0.2-0.6
			c0.1-0.2,0.3-0.2,0.6-0.2h0.7c0.2,0,0.4,0.1,0.6,0.2c0.2,0.1,0.2,0.3,0.2,0.6v1.5c0,0.1,0,0.1,0.1,0.1l6-0.9c0.2,0,0.4,0,0.6,0.1
			c0.2,0.1,0.3,0.3,0.3,0.5l0.1,0.5c0.1,0.5,0,1-0.2,1.5c-0.7,1.3-1.6,2.4-2.6,3.3c-0.2,0.1-0.4,0.2-0.6,0.2c-0.2,0-0.4-0.1-0.6-0.3
			l-0.4-0.4c-0.1-0.1-0.2-0.3-0.2-0.5c0-0.2,0.1-0.4,0.3-0.5c0.6-0.6,1.2-1.2,1.7-1.9c0,0,0,0,0-0.1c0,0,0,0,0,0l-4.3,0.6
			c-0.1,0-0.1,0.1-0.1,0.1v2.9c0,0.3,0,0.6,0,0.7c0,0.2,0,0.3,0.1,0.5c0,0.1,0.1,0.2,0.2,0.3c0.1,0.1,0.2,0.1,0.3,0.2
			c0.2,0.1,0.3,0.1,0.5,0.1c0.2,0,0.4,0,0.7,0c1.4,0,2.7-0.1,4.1-0.2c0.2,0,0.4,0,0.6,0.2c0.2,0.1,0.3,0.3,0.3,0.5l0,0.4
			c0,0.2,0,0.4-0.2,0.6c-0.1,0.2-0.3,0.3-0.5,0.3c-1.6,0.2-3.2,0.3-4.8,0.3c-1,0.1-1.9-0.1-2.7-0.7c-0.6-0.8-0.8-1.8-0.7-2.7v-3
			c0,0,0-0.1,0-0.1c0,0,0,0-0.1,0l-1.9,0.3c-0.2,0-0.4,0-0.6-0.1C205,3963.9,204.9,3963.7,204.8,3963.5L204.8,3963.5z M225.5,3970.6
			c-0.2,0-0.4-0.1-0.6-0.2c-0.1-0.1-0.2-0.3-0.2-0.6v-9.6c0-0.2,0.1-0.4,0.2-0.6c0.1-0.2,0.3-0.2,0.6-0.2h0.8c0.2,0,0.4,0.1,0.6,0.2
			c0.1,0.1,0.2,0.3,0.2,0.6v7.9c0,0.1,0,0.1,0.1,0.1c0.6-0.2,1.1-0.6,1.5-1.2c0.4-0.7,0.7-1.5,0.8-2.3c0-0.2,0.1-0.4,0.3-0.5
			c0.2-0.1,0.4-0.2,0.6-0.2l0.6,0.1c0.2,0,0.4,0.1,0.5,0.3c0.1,0.2,0.2,0.4,0.2,0.6c-0.1,1.6-0.8,3-1.9,4.2
			C228.5,3970.1,227,3970.6,225.5,3970.6z M219.3,3970.1l-0.4-0.6c-0.1-0.2-0.1-0.4-0.1-0.6c0-0.2,0.2-0.4,0.4-0.5
			c0.3-0.2,0.6-0.5,0.9-0.8c0.2-0.3,0.4-0.7,0.5-1.1c0.1-0.6,0.2-1.1,0.3-1.7c0-0.6,0.1-1.5,0.1-2.6v-2.1c0-0.2,0.1-0.4,0.2-0.6
			c0.1-0.2,0.3-0.2,0.6-0.2h0.7c0.2,0,0.4,0.1,0.6,0.2c0.2,0.1,0.2,0.3,0.2,0.6v2.1c0,1.4-0.1,2.8-0.3,4.2c-0.1,0.9-0.4,1.7-0.8,2.4
			c-0.4,0.6-1,1.2-1.7,1.5c-0.2,0.1-0.4,0.1-0.6,0.1C219.7,3970.4,219.5,3970.3,219.3,3970.1z M240,3966.1c-0.4-0.5-1-1-1.7-1.7
			c-0.1-0.1-0.2-0.3-0.2-0.5c0-0.2,0.1-0.4,0.2-0.5l0.3-0.3c0.2-0.1,0.4-0.2,0.6-0.2c0.2,0,0.4,0.1,0.6,0.2c0.5,0.5,1,1,1.7,1.7
			c0.1,0.2,0.2,0.4,0.2,0.6c0,0.2-0.1,0.4-0.3,0.6l-0.3,0.3c-0.1,0.1-0.3,0.2-0.6,0.2C240.3,3966.4,240.1,3966.3,240,3966.1z
			 M244.9,3966.4c0.2,0,0.4,0,0.6,0.1c0.2,0.1,0.3,0.3,0.3,0.5l0,0.3c0,0.2,0,0.4-0.2,0.6c-0.1,0.2-0.3,0.3-0.5,0.3l-0.4,0.1
			c-0.1,0-0.1,0.1-0.1,0.1v2.1c0,0.2-0.1,0.4-0.2,0.6c-0.1,0.2-0.3,0.2-0.6,0.2h-0.6c-0.2,0-0.4-0.1-0.6-0.2
			c-0.2-0.1-0.2-0.3-0.2-0.6v-1.7c0,0,0-0.1,0-0.1c0,0-0.1,0-0.1,0l-3.6,0.7c-0.2,0-0.4,0-0.6-0.1c-0.2-0.1-0.3-0.3-0.3-0.5l0-0.3
			c0-0.2,0-0.3,0.1-0.5c0,0.1-0.1,0.1-0.2,0.2l-0.1,0.1c-0.1,0.1-0.3,0.2-0.5,0.1c-0.2,0-0.3-0.2-0.4-0.3c0-0.1-0.1-0.3-0.2-0.5
			c-0.1-0.2-0.2-0.4-0.2-0.5c0,0,0,0,0,0c0,0,0,0,0,0v3.5c0,0.2-0.1,0.4-0.2,0.6c-0.1,0.2-0.3,0.2-0.6,0.2h-0.4
			c-0.2,0-0.4-0.1-0.6-0.2c-0.2-0.1-0.2-0.3-0.2-0.6v-2.9c0,0,0,0,0,0c0,0,0,0,0,0c-0.2,0.6-0.5,1.2-0.8,1.8
			c-0.1,0.1-0.2,0.2-0.4,0.2c-0.2,0-0.3-0.1-0.4-0.3l-0.3-0.7c-0.2-0.5-0.1-1,0.2-1.4c0.5-0.7,0.9-1.5,1.2-2.4c0-0.1,0-0.1-0.1-0.1
			h-0.5c-0.2,0-0.4-0.1-0.6-0.2c-0.2-0.1-0.2-0.3-0.2-0.6v-0.2c0-0.2,0.1-0.4,0.2-0.6c0.1-0.2,0.3-0.2,0.6-0.2h1
			c0.1,0,0.1,0,0.1-0.1c0,0,0,0,0,0v-0.4c0-0.1,0-0.1-0.1-0.1l-0.4,0.1c-0.2,0.1-0.4,0.1-0.6,0c-0.2-0.1-0.3-0.3-0.4-0.5
			c-0.2-0.8-0.4-1.4-0.4-1.7c-0.1-0.2,0-0.4,0.1-0.6c0.1-0.2,0.3-0.3,0.5-0.4c0.2-0.1,0.4-0.1,0.6,0c0.2,0.1,0.3,0.3,0.4,0.5
			c0.1,0.3,0.2,0.8,0.3,1.4c0,0,0,0,0,0v-1.9c0-0.2,0.1-0.4,0.2-0.6c0.1-0.2,0.3-0.2,0.6-0.2h0.3c0.2,0,0.4,0.1,0.6,0.2
			c0.2,0.1,0.2,0.3,0.2,0.6v1.9c0,0,0,0,0,0c0,0,0,0,0,0c0.1-0.4,0.3-0.9,0.3-1.4c0-0.2,0.2-0.4,0.3-0.5c0.2-0.1,0.4-0.2,0.6-0.1h0
			c0.2,0,0.4,0.2,0.5,0.4c0.1,0.2,0.2,0.4,0.1,0.6c-0.2,0.7-0.3,1.3-0.5,1.9c-0.1,0.2-0.2,0.4-0.4,0.4c-0.2,0.1-0.4,0.1-0.6,0
			l-0.3-0.1c-0.1,0-0.1,0-0.1,0.1v0.4c0,0.1,0,0.1,0.1,0.1c0,0,0,0,0,0h0.7c0.2,0,0.4,0.1,0.6,0.2c0.2,0.1,0.2,0.3,0.2,0.6v0.2
			c0,0.2-0.1,0.4-0.2,0.6c-0.1,0.1-0.3,0.2-0.6,0.2H237c0,0-0.1,0-0.1,0c0,0,0,0,0,0.1c0.2,0.4,0.6,1.1,1,2c0.2,0.3,0.1,0.7,0,1
			c0.1-0.2,0.3-0.3,0.6-0.4l3.7-0.7c0.1,0,0.1-0.1,0.1-0.1v-4.8c0,0,0,0,0,0c0,0,0,0,0,0l-0.6,0.6c-0.2,0.1-0.4,0.2-0.6,0.2
			c-0.2,0-0.4-0.1-0.6-0.3c-0.5-0.5-0.9-0.9-1.3-1.3c-0.2-0.1-0.2-0.3-0.2-0.6c0-0.2,0.1-0.4,0.2-0.5l0.3-0.3
			c0.2-0.1,0.4-0.2,0.6-0.2c0.2,0,0.4,0.1,0.6,0.2c0.6,0.6,1.1,1.1,1.6,1.6c0,0,0,0,0,0c0,0,0,0,0,0v-1.9c0-0.2,0.1-0.4,0.2-0.6
			c0.1-0.2,0.3-0.2,0.6-0.2h0.6c0.2,0,0.4,0.1,0.6,0.2c0.2,0.1,0.2,0.3,0.2,0.6v6.9c0,0.1,0,0.1,0.1,0.1L244.9,3966.4z"/>
	</g>
	<path id="パス_2178" class="st2" d="M18.5,8.5l-8,59.6c-0.5,3.6,2.2,6.5,6,6.5h53.9c3.8,0,7.1-2.7,7.7-6.5l8-59.6H18.5z"/>
	<path id="パス_2179" class="st3" d="M96.9,73.2L86.2,8.5H18.5l10.7,64.6c0.7,3.9,4,6.8,7.9,6.9h54.1c3.1,0.1,5.7-2.4,5.8-5.6
		C97,74.1,97,73.6,96.9,73.2z"/>
	<path id="パス_2180" class="st4" d="M86.2,8.5H18.5l2.8,16.8H89L86.2,8.5z"/>
	<path id="パス_2181" class="st5" d="M83.4,35.7h-6l1,6.1h6L83.4,35.7z"/>
	<g id="グループ_592" transform="translate(19.829 35.689)">
		<path id="パス_2182" class="st6" d="M55.7,0h-6l1,6.1h6L55.7,0z"/>
		<path id="パス_2183" class="st6" d="M47.9,0h-6l1,6.1h6L47.9,0z"/>
		<path id="パス_2184" class="st6" d="M40,0h-6l1,6.1h6L40,0z"/>
		<path id="パス_2185" class="st6" d="M32.2,0h-6l1,6.1h6L32.2,0z"/>
		<path id="パス_2186" class="st6" d="M24.3,0h-6l1,6.1h6L24.3,0z"/>
		<path id="パス_2187" class="st6" d="M16.4,0h-6l1,6.1h6L16.4,0z"/>
	</g>
	<path id="パス_2188" class="st5" d="M84.7,43.5h-6l1,6.1h6L84.7,43.5z"/>
	<path id="パス_2189" class="st6" d="M76.9,43.5h-6l1,6.1h6L76.9,43.5z"/>
	<path id="パス_2190" class="st6" d="M69,43.5h-6l1,6.1h6L69,43.5z"/>
	<path id="パス_2191" class="st6" d="M61.1,43.5h-6l1,6.1h6L61.1,43.5z"/>
	<path id="パス_2192" class="st6" d="M53.3,43.5h-6l1,6.1h6L53.3,43.5z"/>
	<path id="パス_2193" class="st6" d="M45.4,43.5h-6l1,6.1h6L45.4,43.5z"/>
	<path id="パス_2194" class="st6" d="M37.6,43.5h-6l1,6.1h6L37.6,43.5z"/>
	<path id="パス_2195" class="st5" d="M86,51.4h-6l1,6.1h6L86,51.4z"/>
	<path id="パス_2196" class="st6" d="M78.2,51.4h-6l1,6.1h6L78.2,51.4z"/>
	<path id="パス_2197" class="st6" d="M70.3,51.4h-6l1,6.1h6L70.3,51.4z"/>
	<path id="パス_2198" class="st6" d="M62.4,51.4h-6l1,6.1h6L62.4,51.4z"/>
	<path id="パス_2199" class="st6" d="M54.6,51.4h-6l1,6.1h6L54.6,51.4z"/>
	<path id="パス_2200" class="st6" d="M46.7,51.4h-6l1,6.1h6L46.7,51.4z"/>
	<path id="パス_2201" class="st6" d="M38.9,51.4h-6l1,6.1h6L38.9,51.4z"/>
	<path id="パス_2202" class="st5" d="M87.3,59.2h-6l1,6.1h6L87.3,59.2z"/>
	<path id="パス_2203" class="st6" d="M79.5,59.2h-6l1,6.1h6L79.5,59.2z"/>
	<path id="パス_2204" class="st6" d="M71.6,59.2h-6l1,6.1h6L71.6,59.2z"/>
	<path id="パス_2205" class="st6" d="M63.7,59.2h-6l1,6.1h6L63.7,59.2z"/>
	<path id="パス_2206" class="st6" d="M55.9,59.2h-6l1,6.1h6L55.9,59.2z"/>
	<path id="パス_2207" class="st6" d="M48,59.2h-6l1,6.1h6L48,59.2z"/>
	<path id="パス_2208" class="st6" d="M40.2,59.2h-6l1,6.1h6L40.2,59.2z"/>
	<path id="パス_2209" class="st7" d="M77.6,13.7c-1.2,0.1-2,1.2-1.8,2.3c0,0,0,0,0,0.1c-0.1,1.2,0.8,2.2,2,2.4
		c1.2-0.1,2-1.2,1.8-2.3c0,0,0,0,0-0.1C79.6,14.9,78.8,13.9,77.6,13.7z"/>
	<path id="パス_2210" class="st8" d="M77.5,12.3c-1.9,0.1-3.3,1.8-3.2,3.7c0,0.1,0,0.1,0,0.2c0,2,1.5,3.7,3.5,3.9
		c1.9-0.1,3.3-1.8,3.2-3.7c0-0.1,0-0.1,0-0.2C81,14.1,79.5,12.5,77.5,12.3z M77.8,18.6c-1.2-0.2-2.1-1.2-2-2.4
		c-0.2-1.1,0.6-2.2,1.8-2.4c0,0,0,0,0.1,0c1.2,0.2,2.1,1.2,2,2.4C79.8,17.3,79,18.4,77.8,18.6C77.8,18.6,77.8,18.6,77.8,18.6
		L77.8,18.6z"/>
	<path id="パス_2211" class="st2" d="M75.7,0.5c-3,0-5.2,3.5-5.2,8h2.7c0.1-3,1.4-5.1,2.6-5.1c1.3,0,2.9,2.4,3.1,5.8
		c0.1,2.8-0.8,4.9-1.9,5.6c-0.4,0.3-0.7,0.8-0.6,1.3c0,0.8,0.6,1.4,1.4,1.5c0.2,0,0.4,0,0.6-0.1c2.1-1.2,3.4-4.4,3.3-8.2
		C81.5,4.3,78.9,0.5,75.7,0.5z"/>
	<path id="パス_2212" class="st7" d="M65.4,13.7c-1.2,0.1-2,1.2-1.8,2.3c0,0,0,0,0,0.1c-0.1,1.2,0.8,2.2,2,2.4
		c1.2-0.1,2-1.2,1.8-2.3c0,0,0,0,0-0.1C67.5,14.9,66.6,13.9,65.4,13.7z"/>
	<path id="パス_2213" class="st8" d="M65.3,12.3c-1.9,0.1-3.3,1.8-3.2,3.7c0,0.1,0,0.1,0,0.2c0,2,1.5,3.7,3.5,3.9
		c1.9-0.1,3.3-1.8,3.2-3.7c0-0.1,0-0.1,0-0.2C68.9,14.1,67.3,12.5,65.3,12.3z M65.6,18.6c-1.2-0.2-2.1-1.2-2-2.4
		c-0.2-1.1,0.6-2.2,1.8-2.4c0,0,0,0,0.1,0c1.2,0.2,2.1,1.2,2,2.4C67.6,17.3,66.8,18.4,65.6,18.6C65.6,18.6,65.6,18.6,65.6,18.6
		L65.6,18.6z"/>
	<path id="パス_2214" class="st2" d="M63.6,0.5c-3,0-5.2,3.5-5.2,8h2.7c0.1-3,1.4-5.1,2.6-5.1c1.3,0,2.9,2.4,3.1,5.8
		c0.1,2.8-0.8,4.9-1.9,5.6c-0.4,0.3-0.7,0.8-0.6,1.3c0,0.8,0.6,1.4,1.4,1.5c0.2,0,0.4,0,0.6-0.1c2.1-1.2,3.4-4.4,3.3-8.2
		C69.3,4.3,66.7,0.5,63.6,0.5z"/>
	<path id="パス_2215" class="st7" d="M53.2,13.7c-1.2,0.1-2,1.2-1.8,2.3c0,0,0,0,0,0.1c-0.1,1.2,0.8,2.2,2,2.4
		c1.2-0.1,2-1.2,1.8-2.3c0,0,0,0,0-0.1C55.3,14.9,54.4,13.9,53.2,13.7z"/>
	<path id="パス_2216" class="st8" d="M53.2,12.3c-1.9,0.1-3.3,1.8-3.2,3.7c0,0.1,0,0.1,0,0.2c0,2,1.5,3.7,3.5,3.9
		c1.9-0.1,3.3-1.8,3.2-3.7c0-0.1,0-0.1,0-0.2C56.7,14.1,55.2,12.5,53.2,12.3z M53.4,18.6c-1.2-0.2-2.1-1.2-2-2.4
		c-0.2-1.1,0.6-2.2,1.7-2.4c0,0,0,0,0.1,0c1.2,0.2,2.1,1.2,2,2.4C55.4,17.3,54.6,18.4,53.4,18.6C53.5,18.6,53.4,18.6,53.4,18.6
		L53.4,18.6z"/>
	<path id="パス_2217" class="st2" d="M51.4,0.5c-3,0-5.2,3.5-5.2,8h2.7c0.1-3,1.4-5.1,2.6-5.1c1.3,0,2.9,2.4,3.1,5.8
		c0.1,2.8-0.8,4.9-1.9,5.6C52.3,15,52,15.5,52.1,16c0,0.8,0.6,1.4,1.4,1.5c0.2,0,0.4,0,0.6-0.1c2.1-1.2,3.4-4.4,3.3-8.2
		C57.1,4.3,54.5,0.5,51.4,0.5z"/>
	<path id="パス_2218" class="st7" d="M41,13.7c-1.2,0.1-2,1.2-1.8,2.3c0,0,0,0,0,0.1c-0.1,1.2,0.8,2.2,2,2.4
		c1.2-0.1,2-1.2,1.8-2.3c0,0,0,0,0-0.1C43.1,14.9,42.2,13.9,41,13.7z"/>
	<path id="パス_2219" class="st8" d="M41,12.3c-1.9,0.1-3.3,1.8-3.2,3.7c0,0.1,0,0.1,0,0.2c0,2,1.5,3.7,3.5,3.9
		c1.9-0.1,3.3-1.8,3.2-3.7c0-0.1,0-0.1,0-0.2C44.5,14.1,43,12.5,41,12.3z M41.3,18.6c-1.2-0.2-2.1-1.2-2-2.4
		c-0.2-1.1,0.6-2.2,1.8-2.4c0,0,0,0,0.1,0c1.2,0.2,2.1,1.2,2,2.4C43.2,17.3,42.5,18.4,41.3,18.6C41.3,18.6,41.3,18.6,41.3,18.6
		L41.3,18.6z"/>
	<path id="パス_2220" class="st2" d="M39.2,0.5c-3,0-5.2,3.5-5.2,8h2.7c0.1-3,1.3-5.1,2.6-5.1c1.3,0,2.9,2.4,3.1,5.8
		c0.1,2.8-0.8,4.9-1.9,5.6c-0.4,0.3-0.7,0.8-0.6,1.3c0,0.8,0.6,1.4,1.4,1.5c0.2,0,0.4,0,0.6-0.1c2.1-1.2,3.4-4.4,3.3-8.2
		C44.9,4.3,42.3,0.5,39.2,0.5z"/>
	<path id="パス_2221" class="st7" d="M28.9,13.7c-1.2,0.1-2,1.2-1.8,2.3c0,0,0,0,0,0.1c-0.1,1.2,0.8,2.2,2,2.4
		c1.2-0.1,2-1.2,1.8-2.3c0,0,0,0,0-0.1C30.9,14.9,30.1,13.9,28.9,13.7z"/>
	<path id="パス_2222" class="st8" d="M28.8,12.3c-1.9,0.1-3.3,1.8-3.2,3.7c0,0.1,0,0.1,0,0.2c0,2,1.5,3.7,3.5,3.9
		c1.9-0.1,3.3-1.8,3.2-3.7c0-0.1,0-0.1,0-0.2C32.3,14.1,30.8,12.5,28.8,12.3z M29.1,18.6c-1.2-0.2-2.1-1.2-2-2.4
		c-0.2-1.1,0.6-2.2,1.8-2.4c0,0,0,0,0.1,0c1.2,0.2,2.1,1.2,2,2.4C31.1,17.3,30.3,18.4,29.1,18.6C29.1,18.6,29.1,18.6,29.1,18.6
		L29.1,18.6z"/>
	<path id="パス_2223" class="st2" d="M27.1,0.5c-3,0-5.2,3.5-5.2,8h2.7c0.1-3,1.3-5.1,2.6-5.1c1.3,0,2.9,2.4,3.1,5.8
		c0.1,2.8-0.8,4.9-1.9,5.6c-0.4,0.3-0.7,0.8-0.6,1.3c0,0.8,0.6,1.4,1.4,1.5c0.2,0,0.4,0,0.6-0.1c2.1-1.2,3.4-4.4,3.3-8.2
		C32.8,4.3,30.2,0.5,27.1,0.5z"/>
</g>
</svg>
