<svg xmlns="http://www.w3.org/2000/svg" xmlns:xlink="http://www.w3.org/1999/xlink" width="140" height="140" viewBox="0 0 140 140">
  <defs>
    <clipPath id="clip-path">
      <circle id="楕円形_25" data-name="楕円形 25" cx="70" cy="70" r="70" transform="translate(0 0.477)" fill="#f7f3e5"/>
    </clipPath>
  </defs>
  <g id="trouble_01" transform="translate(0 -0.477)">
    <circle id="楕円形_23" data-name="楕円形 23" cx="70" cy="70" r="70" transform="translate(0 0.477)" fill="#fff"/>
    <g id="マスクグループ_4" data-name="マスクグループ 4" clip-path="url(#clip-path)">
      <g id="グループ_4565" data-name="グループ 4565" transform="translate(-57.839 -332.819)">
        <path id="パス_70985" data-name="パス 70985" d="M416.094,487.3l4.832-7.99-4.832-7.99v4.969h-5.733v6.042h5.733Z" transform="translate(-292.697 -72.039)" fill="#15a58e"/>
        <g id="グループ_4564" data-name="グループ 4564" transform="translate(130.98 381.407)">
          <g id="グループ_4563" data-name="グループ 4563" transform="translate(0)">
            <rect id="長方形_28549" data-name="長方形 28549" width="9.83" height="13.223" transform="translate(2.664 30.816)" fill="#343434"/>
            <path id="パス_71018" data-name="パス 71018" d="M530.754,440.142,518.7,444.98v20.049h24.1V444.98Z" transform="translate(-516.041 -429.131)" fill="#658b93"/>
            <rect id="長方形_28550" data-name="長方形 28550" width="9.365" height="1.055" transform="translate(2.664 34.86)" fill="#878684"/>
            <rect id="長方形_28551" data-name="長方形 28551" width="25.803" height="5.597" transform="translate(10.852 41.303)" fill="#3d3d3d"/>
            <rect id="長方形_28552" data-name="長方形 28552" width="7.342" height="17.121" transform="translate(40.293 31.34)" fill="#484847"/>
            <rect id="長方形_28553" data-name="長方形 28553" width="25.803" height="13.223" transform="translate(10.852 31.34)" fill="#484847"/>
            <rect id="長方形_28554" data-name="長方形 28554" width="2.015" height="17.121" transform="translate(47.167 31.34)" fill="#635f5a"/>
            <rect id="長方形_28555" data-name="長方形 28555" width="5.169" height="17.121" transform="translate(35.104 31.34)" fill="#635f5a"/>
            <rect id="長方形_28556" data-name="長方形 28556" width="5.169" height="2.553" transform="translate(35.104 45.907)" fill="#4e5b53"/>
            <g id="グループ_4551" data-name="グループ 4551" transform="translate(0 10.531)">
              <path id="パス_71019" data-name="パス 71019" d="M504.54,443.739l14.713-5.025V437.59l-14.713,5.025Z" transform="translate(-504.54 -437.59)" fill="#484847"/>
              <path id="パス_71020" data-name="パス 71020" d="M597.494,443.739l-14.713-5.025V437.59l14.713,5.025Z" transform="translate(-568.068 -437.59)" fill="#878684"/>
            </g>
            <path id="パス_71021" data-name="パス 71021" d="M635.506,384.924l-12.9,4.839v26.108h25.8V389.763Z" transform="translate(-600.402 -384.297)" fill="#658b93"/>
            <rect id="長方形_28557" data-name="長方形 28557" width="14.231" height="6.357" transform="translate(34.951 25.217)" fill="#84b4bf"/>
            <g id="グループ_4552" data-name="グループ 4552" transform="translate(20.238)">
              <path id="パス_71022" data-name="パス 71022" d="M612.158,387.74l14.713-5.025v-1.124l-14.713,5.025Z" transform="translate(-612.158 -381.591)" fill="#484847"/>
              <path id="パス_71023" data-name="パス 71023" d="M705.113,387.74,690.4,382.715v-1.124l14.713,5.025Z" transform="translate(-675.686 -381.591)" fill="#484847"/>
            </g>
            <rect id="長方形_28558" data-name="長方形 28558" width="39.51" height="1.797" transform="translate(9.671 31.062)" fill="#878684"/>
            <rect id="長方形_28559" data-name="長方形 28559" width="6.894" height="1.087" transform="translate(40.273 47.373)" fill="#bba797"/>
            <rect id="長方形_28560" data-name="長方形 28560" width="6.894" height="0.732" transform="translate(40.273 46.9)" fill="#daccc3"/>
            <rect id="長方形_28561" data-name="長方形 28561" width="6.894" height="1.087" transform="translate(40.273 45.813)" fill="#bba797"/>
            <rect id="長方形_28562" data-name="長方形 28562" width="6.894" height="0.732" transform="translate(40.273 45.34)" fill="#daccc3"/>
            <rect id="長方形_28563" data-name="長方形 28563" width="14.638" height="1.087" transform="translate(10.852 47.373)" fill="#bba797"/>
            <rect id="長方形_28564" data-name="長方形 28564" width="14.638" height="0.732" transform="translate(10.852 46.9)" fill="#daccc3"/>
            <rect id="長方形_28565" data-name="長方形 28565" width="14.638" height="1.087" transform="translate(10.852 45.813)" fill="#bba797"/>
            <rect id="長方形_28566" data-name="長方形 28566" width="14.638" height="0.732" transform="translate(10.852 45.34)" fill="#daccc3"/>
            <rect id="長方形_28567" data-name="長方形 28567" width="5.533" height="10.48" transform="translate(15.626 34.86)" fill="#d6d7d8"/>
            <rect id="長方形_28568" data-name="長方形 28568" width="8.979" height="3.672" transform="translate(20.229 35.79) rotate(90)" fill="#67a0b3"/>
            <g id="グループ_4553" data-name="グループ 4553" transform="translate(25.71 34.942)">
              <rect id="長方形_28569" data-name="長方形 28569" width="4.278" height="8.104" transform="translate(8.104 0) rotate(90)" fill="#d6d7d8"/>
              <rect id="長方形_28570" data-name="長方形 28570" width="6.943" height="2.839" transform="translate(7.524 3.559) rotate(180)" fill="#67a0b3"/>
            </g>
            <g id="グループ_4554" data-name="グループ 4554" transform="translate(37.615 11.962)">
              <rect id="長方形_28571" data-name="長方形 28571" width="4.278" height="8.104" transform="translate(8.104 0) rotate(90)" fill="#d6d7d8"/>
              <rect id="長方形_28572" data-name="長方形 28572" width="6.943" height="2.839" transform="translate(7.524 3.559) rotate(-180)" fill="#67a0b3"/>
            </g>
            <g id="グループ_4556" data-name="グループ 4556" transform="translate(34.36 21.694)">
              <rect id="長方形_28573" data-name="長方形 28573" width="14.822" height="0.688" fill="#d6d7d8"/>
              <g id="グループ_4555" data-name="グループ 4555" transform="translate(2.877 0.688)">
                <rect id="長方形_28574" data-name="長方形 28574" width="0.755" height="2.675" transform="translate(11.19)" fill="#d6d7d8"/>
                <rect id="長方形_28575" data-name="長方形 28575" width="0.755" height="2.675" transform="translate(7.432)" fill="#d6d7d8"/>
                <rect id="長方形_28576" data-name="長方形 28576" width="0.755" height="2.675" transform="translate(3.675)" fill="#d6d7d8"/>
                <rect id="長方形_28577" data-name="長方形 28577" width="0.755" height="2.675" fill="#d6d7d8"/>
              </g>
            </g>
            <rect id="長方形_28578" data-name="長方形 28578" width="14.087" height="0.708" transform="translate(35.094 24.509)" fill="#878684"/>
            <path id="パス_71024" data-name="パス 71024" d="M589.13,593.255a.362.362,0,1,1-.362-.362A.362.362,0,0,1,589.13,593.255Z" transform="translate(-572.636 -553.158)" fill="#484847"/>
            <ellipse id="楕円形_384" data-name="楕円形 384" cx="1.643" cy="2.807" rx="1.643" ry="2.807" transform="translate(26.504 36.308)" fill="#a3c867"/>
            <rect id="長方形_28579" data-name="長方形 28579" width="0.279" height="10.509" transform="translate(28.007 37.951)" fill="#b2583b"/>
            <g id="グループ_4557" data-name="グループ 4557" transform="translate(26.322 45.531)">
              <path id="パス_71025" data-name="パス 71025" d="M649.65,629.765h-1.912l-.324-2.216h2.559Z" transform="translate(-646.869 -626.829)" fill="#532c28"/>
              <rect id="長方形_28580" data-name="長方形 28580" width="3.65" height="0.721" fill="#532c28"/>
            </g>
            <rect id="長方形_28581" data-name="長方形 28581" width="1.651" height="10.607" transform="translate(37.237 37.853)" fill="#d6d7d8"/>
            <rect id="長方形_28582" data-name="長方形 28582" width="1.329" height="0.604" transform="translate(37.382 39.768)" fill="#635f5a"/>
            <rect id="長方形_28583" data-name="長方形 28583" width="0.205" height="4.929" transform="translate(37.943 41.773)" fill="#635f5a"/>
            <path id="パス_71029" data-name="パス 71029" d="M574.3,389.134l-12.049,4.839v24.805h24.1V393.973Z" transform="translate(-551.395 -387.716)" fill="#84b4bf"/>
            <g id="グループ_4560" data-name="グループ 4560" transform="translate(8.188 0.939)">
              <path id="パス_71030" data-name="パス 71030" d="M548.082,392.731l14.713-5.025v-1.124l-14.713,5.025Z" transform="translate(-548.082 -386.583)" fill="#484847"/>
              <path id="パス_71031" data-name="パス 71031" d="M641.036,392.731l-14.713-5.025v-1.124l14.713,5.025Z" transform="translate(-611.61 -386.583)" fill="#484847"/>
            </g>
            <g id="グループ_4561" data-name="グループ 4561" transform="translate(20.026 7.493)">
              <rect id="長方形_28584" data-name="長方形 28584" width="1.255" height="7.036" fill="#67a0b3"/>
              <rect id="長方形_28585" data-name="長方形 28585" width="1.255" height="7.036" transform="translate(4.496)" fill="#67a0b3"/>
            </g>
            <g id="グループ_4562" data-name="グループ 4562" transform="translate(20.026 16.986)">
              <rect id="長方形_28586" data-name="長方形 28586" width="1.255" height="7.036" fill="#67a0b3"/>
              <rect id="長方形_28587" data-name="長方形 28587" width="1.255" height="7.036" transform="translate(4.496)" fill="#67a0b3"/>
            </g>
          </g>
        </g>
        <g id="グループ_4578" data-name="グループ 4578" transform="translate(75.036 381.407)">
          <g id="グループ_4577" data-name="グループ 4577" transform="translate(0)">
            <g id="グループ_4571" data-name="グループ 4571" transform="translate(0 0)">
              <path id="パス_71032" data-name="パス 71032" d="M149.342,761.685h31.964V719.331l-31.964,9.639Z" transform="translate(-147.059 -715.893)" fill="#484847"/>
              <rect id="長方形_28588" data-name="長方形 28588" width="16.405" height="9.675" transform="translate(3.703 18.814)" fill="#292929"/>
              <rect id="長方形_28589" data-name="長方形 28589" width="16.405" height="15.285" transform="translate(3.703 30.507)" fill="#292929"/>
              <path id="パス_71033" data-name="パス 71033" d="M173.874,703.959l-35.714,10.77v-1.468l35.714-10.77Z" transform="translate(-138.16 -702.491)" fill="#777c85"/>
              <path id="パス_71034" data-name="パス 71034" d="M173.874,707.611l-35.714,10.77v-1.468l35.714-10.77Z" transform="translate(-138.16 -705.398)" fill="#d8ceb9"/>
              <path id="パス_71035" data-name="パス 71035" d="M149.342,724.38v.8l31.964-9.639v-.974Z" transform="translate(-147.059 -712.098)" fill="#bab3a0"/>
              <rect id="長方形_28590" data-name="長方形 28590" width="8.034" height="12.551" transform="translate(25.534 33.241)" fill="#292929"/>
              <rect id="長方形_28591" data-name="長方形 28591" width="8.203" height="1.453" transform="translate(8.835 33.536)" fill="#5e544d"/>
              <rect id="長方形_28592" data-name="長方形 28592" width="8.203" height="1.262" transform="translate(21.16 19.402)" fill="#818180"/>
              <rect id="長方形_28593" data-name="長方形 28593" width="8.455" height="0.883" transform="translate(8.709 20.664)" fill="#e7e0d3"/>
              <rect id="長方形_28594" data-name="長方形 28594" width="4.795" height="10.995" transform="translate(25.534 34.798)" fill="#7c2c1c"/>
              <rect id="長方形_28595" data-name="長方形 28595" width="0.799" height="9.212" transform="translate(27.68 35.344)" fill="#d8ceb9"/>
              <rect id="長方形_28596" data-name="長方形 28596" width="3.738" height="6.306" transform="translate(21.16 21.548)" fill="#5f8f9f"/>
              <rect id="長方形_28597" data-name="長方形 28597" width="3.738" height="6.306" transform="translate(25.624 21.548)" fill="#5f8f9f"/>
              <rect id="長方形_28598" data-name="長方形 28598" width="3.738" height="6.306" transform="translate(8.835 22.182)" fill="#5f8f9f"/>
              <rect id="長方形_28599" data-name="長方形 28599" width="3.738" height="6.306" transform="translate(13.299 22.182)" fill="#5f8f9f"/>
              <rect id="長方形_28600" data-name="長方形 28600" width="3.738" height="6.306" transform="translate(8.835 35.452)" fill="#5f8f9f"/>
              <rect id="長方形_28601" data-name="長方形 28601" width="3.738" height="6.306" transform="translate(13.299 35.452)" fill="#5f8f9f"/>
              <rect id="長方形_28602" data-name="長方形 28602" width="28.539" height="5.545" transform="translate(7.665 27.527)" fill="#c9c9c9"/>
              <rect id="長方形_28603" data-name="長方形 28603" width="28.7" height="0.747" transform="translate(7.504 23.76)" fill="#818180"/>
              <g id="グループ_4568" data-name="グループ 4568" transform="translate(10.805 24.507)">
                <g id="グループ_4566" data-name="グループ 4566" transform="translate(12.43)">
                  <rect id="長方形_28604" data-name="長方形 28604" width="0.82" height="3.02" transform="translate(12.149)" fill="#818180"/>
                  <rect id="長方形_28605" data-name="長方形 28605" width="0.82" height="3.02" transform="translate(8.069)" fill="#818180"/>
                  <rect id="長方形_28606" data-name="長方形 28606" width="0.82" height="3.02" transform="translate(3.99)" fill="#818180"/>
                  <rect id="長方形_28607" data-name="長方形 28607" width="0.82" height="3.02" fill="#818180"/>
                </g>
                <g id="グループ_4567" data-name="グループ 4567">
                  <rect id="長方形_28608" data-name="長方形 28608" width="0.82" height="3.02" transform="translate(8.159)" fill="#818180"/>
                  <rect id="長方形_28609" data-name="長方形 28609" width="0.82" height="3.02" transform="translate(4.08)" fill="#818180"/>
                  <rect id="長方形_28610" data-name="長方形 28610" width="0.82" height="3.02" fill="#818180"/>
                </g>
              </g>
              <rect id="長方形_28611" data-name="長方形 28611" width="5.382" height="22.032" transform="translate(2.283 23.76)" fill="#818180"/>
              <rect id="長方形_28612" data-name="長方形 28612" width="16.681" height="2.676" transform="translate(2.283 45.792)" fill="#c9c9c9"/>
              <g id="グループ_4569" data-name="グループ 4569" transform="translate(2.249 40.582)">
                <rect id="長方形_28613" data-name="長方形 28613" width="16.016" height="0.629" fill="#5e544d"/>
                <rect id="長方形_28614" data-name="長方形 28614" width="16.016" height="0.629" transform="translate(0 1.176)" fill="#5e544d"/>
                <rect id="長方形_28615" data-name="長方形 28615" width="16.016" height="0.629" transform="translate(0 2.352)" fill="#5e544d"/>
                <rect id="長方形_28616" data-name="長方形 28616" width="16.016" height="0.629" transform="translate(0 3.527)" fill="#5e544d"/>
                <rect id="長方形_28617" data-name="長方形 28617" width="16.016" height="0.629" transform="translate(0 4.703)" fill="#5e544d"/>
                <rect id="長方形_28618" data-name="長方形 28618" width="0.636" height="5.207" transform="translate(4.455)" fill="#5e544d"/>
                <rect id="長方形_28619" data-name="長方形 28619" width="0.636" height="5.207" transform="translate(9.339)" fill="#5e544d"/>
              </g>
              <g id="グループ_4570" data-name="グループ 4570" transform="translate(21.548 41.758)">
                <rect id="長方形_28620" data-name="長方形 28620" width="8.047" height="0.768" fill="#5e544d"/>
                <rect id="長方形_28621" data-name="長方形 28621" width="8.047" height="0.768" transform="translate(0 1.435)" fill="#5e544d"/>
                <rect id="長方形_28622" data-name="長方形 28622" width="8.047" height="0.768" transform="translate(0 2.87)" fill="#5e544d"/>
                <rect id="長方形_28623" data-name="長方形 28623" width="8.047" height="0.768" transform="translate(0 4.305)" fill="#5e544d"/>
                <rect id="長方形_28624" data-name="長方形 28624" width="8.047" height="0.768" transform="translate(0 5.74)" fill="#5e544d"/>
                <rect id="長方形_28625" data-name="長方形 28625" width="0.777" height="6.356" transform="translate(5.438)" fill="#5e544d"/>
              </g>
              <rect id="長方形_28626" data-name="長方形 28626" width="4.627" height="8.707" transform="translate(17.5 39.761)" fill="#c9c9c9"/>
              <rect id="長方形_28627" data-name="長方形 28627" width="8.707" height="8.707" transform="translate(29.167 39.761)" fill="#c9c9c9"/>
              <rect id="長方形_28628" data-name="長方形 28628" width="4.807" height="1.254" transform="translate(29.167 41.211)" fill="#5d6463"/>
              <rect id="長方形_28629" data-name="長方形 28629" width="1.746" height="1.254" transform="translate(31.035 44.087)" fill="#5e544d"/>
            </g>
            <g id="グループ_4572" data-name="グループ 4572" transform="translate(20.962 7.266)">
              <path id="パス_71036" data-name="パス 71036" d="M241.025,747.221l-.2-.159,2.33-2.9.483-2.283,1.951-1.572.028-.007,2.55-.623-.042-1.587.255-.007.048,1.792-2.722.665-1.836,1.48-.476,2.253Z" transform="translate(-240.827 -738.078)" fill="#799ca3"/>
              <path id="パス_71037" data-name="パス 71037" d="M273.557,748.557l-2.623-1,.091-.238,2.511.96,1.4-.795,1.752.769,1.307-.406.076.243-1.4.435-1.722-.755Z" transform="translate(-264.787 -745.43)" fill="#799ca3"/>
            </g>
          </g>
        </g>
      </g>
    </g>
  </g>
</svg>
