<svg xmlns="http://www.w3.org/2000/svg" xmlns:xlink="http://www.w3.org/1999/xlink" width="140" height="140" viewBox="0 0 140 140">
  <defs>
    <clipPath id="clip-path">
      <circle id="楕円形_25" data-name="楕円形 25" cx="70" cy="70" r="70" transform="translate(0 0.477)" fill="#f7f3e5"/>
    </clipPath>
  </defs>
  <g id="trouble_04" transform="translate(0 -0.477)">
    <circle id="楕円形_23" data-name="楕円形 23" cx="70" cy="70" r="70" transform="translate(0 0.477)" fill="#fff"/>
    <g id="マスクグループ_4" data-name="マスクグループ 4" clip-path="url(#clip-path)">
      <g id="グループ_4685" data-name="グループ 4685" transform="translate(-1095.655 -445.951)">
        <g id="グループ_4679" data-name="グループ 4679" transform="translate(1110.533 466.278)">
          <g id="グループ_4678" data-name="グループ 4678">
            <g id="グループ_4673" data-name="グループ 4673" transform="translate(45.18)">
              <path id="パス_71434" data-name="パス 71434" d="M1278.775,639.41l.36-23.54s3.058-40.534,2.239-41.25c-.846-.74-13.865-4.713-14.918-5.136a20.9,20.9,0,0,0-6.53-.651l-.023.562a20.477,20.477,0,0,0-6.387.652c-1.055.423-10.317,2.474-11.822,4.021-.8.819-5.523,17.578-5.568,37.631-.018,7.877.509,21.548.77,27.817Z" transform="translate(-1224.188 -522.191)" fill="#606ab0"/>
              <path id="パス_71435" data-name="パス 71435" d="M1275.85,536.771s-1.585,9.966-2.438,10.53a3.164,3.164,0,0,1-1.585.564s6.359,5.027,7.273,5.215,15.071-3.8,14.576-4.531c-.8-1.182-3.449-13.71-3.449-13.71l.254-9.037Z" transform="translate(-1243.653 -498.732)" fill="#edbf98"/>
              <path id="パス_71436" data-name="パス 71436" d="M1286.253,565.747a.269.269,0,0,1-.175-.065.287.287,0,0,1-.035-.4h0s.176-.344-.17-1.357a5.589,5.589,0,0,1,.248-3.2.271.271,0,0,1,.355-.159.284.284,0,0,1,.155.364,5.107,5.107,0,0,0-.241,2.813c.455,1.336.141,1.819.074,1.9A.272.272,0,0,1,1286.253,565.747Z" transform="translate(-1251.226 -517.674)" fill="#c64a3f"/>
              <path id="パス_71437" data-name="パス 71437" d="M1317.673,623.357c-1.512,4.838-2.826,9.743-6.445,13.4-1.535,1.551-2.639,2.921-4.921,2.775-2.405-.154-5.335-1.578-6.514-3.826-1.933-3.686-.085-9.915.734-13.649,1.425-6.5,2.61-12.971,4.459-19.368,1.78-6.158,5.721-24.2,8.35-23.213,4.013,1.5,8.1,3.992,9.12,6.189,2.179,4.708,1.642,11.815.183,18.191C1321.114,610.523,1319.7,616.873,1317.673,623.357Z" transform="translate(-1258.437 -527.975)" fill="#606ab0"/>
              <path id="パス_71438" data-name="パス 71438" d="M1229.9,578.286s-8.3,1.876-10.4,7.408c-1.856,4.9-10.124,34.93-9.3,35.914s5.746,4.032,5.746,3.61,15.322-28.553,15.322-28.553Z" transform="translate(-1210.021 -527.346)" fill="#606ab0"/>
              <path id="パス_71439" data-name="パス 71439" d="M1240.439,630.564a17.271,17.271,0,0,0-5.007-4.265c-2.778-1.777-5.844-3.476-8.5-5.414-.639-.465-1.343-1.547-2.07-1.714a13.224,13.224,0,0,0-3.071.269c-1.458.308-3.412,2.741-3.98,4.195-.364.928-.152,1.173.24,1.079-.157.145-.313.285-.461.4-.817.662-3.51,3.145-1.136,3.236a2.176,2.176,0,0,0,1.093-.253c-.556.551-.909,1.106-.613,1.487.894,1.147,4.229-1.332,4.889-1.7.684-.385,2.506-.576,2.819.3-1.4.027-7.061,1.346-6.019,3.337.525,1,2.609.091,3.3-.013a6.985,6.985,0,0,1,3.059.562c2.409.71,4.386,2.623,6.9,2.993,1.4.206,2.3-.267,3.292.778.6.637.827,1.782,1.766,1.881.9.095,2.337-1.311,2.972-1.879A3.867,3.867,0,0,0,1240.439,630.564Zm-18.725-5.6a5.785,5.785,0,0,0-1.853,1.269c-.188.139-1.029.838-1.5,1.188.424-.465,1.268-1.333,1.649-1.674,1.362-1.215,2.573-1.026,4.31-1.057A16.5,16.5,0,0,0,1221.714,624.96Z" transform="translate(-1212.94 -549.621)" fill="#edbf98"/>
              <path id="パス_71440" data-name="パス 71440" d="M1223.389,626.94a.253.253,0,0,1-.193-.09.268.268,0,0,1,.025-.371c.432-.388,2.634-2.323,3.636-2.219.941.1,1.835.286,1.872.294a.262.262,0,0,1,.2.31.254.254,0,0,1-.3.2c-.009,0-.906-.191-1.82-.285-.6-.061-2.313,1.25-3.249,2.092A.251.251,0,0,1,1223.389,626.94Z" transform="translate(-1217.104 -552.41)" fill="#b35d55"/>
              <path id="パス_71441" data-name="パス 71441" d="M1266.149,642.86c-1.864.817-5.671,7.789-4.722,9.189.732,1.078,2.157,1.56,2.758,2.747a21.055,21.055,0,0,0,2.162,3.847c2.13,2.708,5.495,4.464,8.307,6.309a36.524,36.524,0,0,0,7.814,3.7c1.554.558,3.808,1.756,5.5,1.69,1.532-.059,2.684-1.392,3.735-2.416a14.353,14.353,0,0,0,2.28-2.718c1.747-2.824,2.387-6.371.66-9.381-1.17-2.038-4.1-3.151-6.041-4.217a60.43,60.43,0,0,0-7.047-3.095c-4.014-1.576-8.333-2.307-12.237-4.121C1268.365,643.947,1267.239,642.382,1266.149,642.86Z" transform="translate(-1237.902 -562.504)" fill="#606ab0"/>
              <path id="パス_71442" data-name="パス 71442" d="M1287.406,586.774a.346.346,0,0,1-.328-.247.357.357,0,0,1,.223-.446l15.462-5.1a.343.343,0,0,1,.434.23.356.356,0,0,1-.223.446l-15.462,5.1A.341.341,0,0,1,1287.406,586.774Z" transform="translate(-1251.959 -528.809)" fill="#2c3151"/>
              <path id="パス_71443" data-name="パス 71443" d="M1268.339,482.236a38.468,38.468,0,0,0-1.353,5.276c-.485,3.611-1.276,9.536-1.9,14.383-.431,3.363,1.028,6.764,1.641,8.66,1.19,3.687,2.679,6.028,8.279,5.9a19.972,19.972,0,0,0,7.461-3.555c2.368-1.843,3.588-4.073,4.366-8.133a145.007,145.007,0,0,0,1.934-19.992Z" transform="translate(-1239.938 -474.978)" fill="#edbf98"/>
              <path id="パス_71444" data-name="パス 71444" d="M1280.55,521.14a.292.292,0,0,0,.277-.274.317.317,0,0,0-.2-.378l-4.843-1.043c1.366-3.667,3.47-9.209,3.769-9.689a.4.4,0,0,0,.065-.414.226.226,0,0,0-.349-.115c-.088.066-.35.258-4.094,10.339a.411.411,0,0,0,0,.288.256.256,0,0,0,.18.165l5.168,1.115A.217.217,0,0,0,1280.55,521.14Z" transform="translate(-1245.465 -489.669)"/>
              <path id="パス_71445" data-name="パス 71445" d="M1289.647,513.042a1.194,1.194,0,0,0,.456,1.529.993.993,0,0,0,1.386-.514,1.191,1.191,0,0,0-.46-1.527A.994.994,0,0,0,1289.647,513.042Z" transform="translate(-1253.309 -491.43)"/>
              <path id="パス_71446" data-name="パス 71446" d="M1273.793,511.912a1.194,1.194,0,0,0,.456,1.529.994.994,0,0,0,1.385-.514,1.2,1.2,0,0,0-.46-1.53A.992.992,0,0,0,1273.793,511.912Z" transform="translate(-1244.665 -490.813)"/>
              <path id="パス_71447" data-name="パス 71447" d="M1293.69,507.2c-.894-.351-2-.551-5.275-.609-.227,0,.167-.478.357-.593a3.907,3.907,0,0,1,1.987-.345c1.32.021,2.88.295,3.5,1.692A4.813,4.813,0,0,1,1293.69,507.2Z" transform="translate(-1252.66 -487.745)" fill="#3b2922"/>
              <path id="パス_71448" data-name="パス 71448" d="M1274.219,504.828c-.894-.351-2-.551-5.274-.609-.228,0,.167-.478.356-.593a3.9,3.9,0,0,1,1.988-.344c1.32.02,2.88.294,3.5,1.691A4.8,4.8,0,0,1,1274.219,504.828Z" transform="translate(-1242.044 -486.452)" fill="#3b2922"/>
              <path id="パス_71449" data-name="パス 71449" d="M1294.683,547.34a.357.357,0,0,1-.343-.269.367.367,0,0,1,.249-.449,10.078,10.078,0,0,0,6.542-5.466.353.353,0,0,1,.46-.207.368.368,0,0,1,.2.472,10.613,10.613,0,0,1-7.016,5.906A.362.362,0,0,1,1294.683,547.34Z" transform="translate(-1255.921 -506.976)" fill="#b35d55"/>
              <path id="パス_71450" data-name="パス 71450" d="M1273.723,562.746a11.585,11.585,0,0,0,1.546-1.5c.51-.577,1.617-1.464,1.474-2.337-.062-.376-.351-.537-.283-.887.056-.3.436-.558.479-.9a2.953,2.953,0,0,0-1.022-2.095c-.547-.568-.193-.586.191-1.232a1.158,1.158,0,0,0-.186-1.595c-.35-.348-1.4-.7-1.325-1.206.1-.62,1.155-1.2,1.559-1.566.6-.543.88-1.575-.048-1.93-1.1-.42-2.3.237-3.267.747-1.226.651-2.42,1.339-3.594,2.081-.594.376-1.253.618-1.855.974-.39.232-.816.621-1.257.2-.329-.312-.385-1.255-.428-1.674a6.284,6.284,0,0,0-1.152-3.586c-.445-.469-1.935-1.1-2.5-.484s.383,1.524.61,2.067a7.987,7.987,0,0,1,.463,3.109c-.036,1.384-.8,2.591-1.061,3.941-.321,1.692.312,3.25.267,4.931-.059,2.217-1.646,4.614-2.67,6.528-.609,1.137,1.257,1.026,2.392,1.653,1.046.575,3.351,2.164,4.542,2.366.569.1,1.757-3.478,2.572-4.451,1.125-1.345,2.851-1.95,4.245-2.933C1273.52,562.9,1273.623,562.823,1273.723,562.746Z" transform="translate(-1236.957 -509.476)" fill="#edbf98"/>
              <path id="パス_71451" data-name="パス 71451" d="M1233.175,590.076l6.983,3.849s.514.329-.006,1.63c-.227.569-.774.89-1.009,1.516-.505,1.345-1.363.607-1.363,2.007,0,1.374-4.516,18.2-7.113,23.818-1.883,4.075-2.491,9.054-6.26,11.708-2.311,1.627-8.435,3.8-11.252,2.357-1.455-.745-1.961-2.283-2.37-3.751-.639-2.283-1.387-4.562-.5-6.929,1.107-2.962,3.441-5.282,4.175-8.4.712-3.027,2.4-5.136,3.957-7.868,2.043-3.578,4.122-8.642,7.146-11.493a63.245,63.245,0,0,0,5.563-6.048c.137-.422.274-2.532.821-2.532A7.344,7.344,0,0,1,1233.175,590.076Z" transform="translate(-1209.877 -533.698)" fill="#606ab0"/>
              <path id="パス_71452" data-name="パス 71452" d="M1307.093,504.822a23.36,23.36,0,0,0-.187,3.1c.614-.123,1.138.307,1.751.2a10.766,10.766,0,0,1,1.533-4.1,2.027,2.027,0,0,1,2.806-.826c.533.242.841.649,1.233.219a2.686,2.686,0,0,0,.346-1.362c-.12-.334-.782-.638-1.053-.844-.7-.525-1.43-.978-2.165-1.438-.915-.573-1.791-1.2-2.679-1.815a12.263,12.263,0,0,1-2.31-1.667c.023,1.129-1.025,2.29-.839,3.4C1307.275,500.328,1307.093,503.406,1307.093,504.822Z" transform="translate(-1262.016 -482.638)" fill="#50372e"/>
              <path id="パス_71453" data-name="パス 71453" d="M1271.017,467.255a12.534,12.534,0,0,0-4.731,3.286,33.238,33.238,0,0,0-2.5,3.091c-.522.733-1.281,1.346-1.761,2.077,1.1-.45,1.719-.652,2.814-1.136-.252.671-.731.8-1.115,1.5a30.932,30.932,0,0,1-2.03,3.267,13.76,13.76,0,0,0,2.686-1.392,3.784,3.784,0,0,0-.408,2.492c.046,1.045.476,2.112.6,3.106.984-2.07,1.233-4.258,2.818-5.13a13.106,13.106,0,0,1,10.9-.787c.725.252,1.5.431,2.235.642,1.037.3,2.071.041,2.015,1.475a2.973,2.973,0,0,1-.147.95c-.061.168,8.018,6.693,8.019,6.693-.045-.036.712-2.089.774-2.326a12.227,12.227,0,0,0,.4-2.593,8.924,8.924,0,0,0-1.178-5.023q-.088-.14-.18-.275c-.615-.9-1.827-2.4-3.02-2.338a9.622,9.622,0,0,0-5.067-7.076,13.394,13.394,0,0,0-6.333-1.476,13.673,13.673,0,0,0-4.7.939Z" transform="translate(-1238.128 -466.278)" fill="#3b2922"/>
              <path id="パス_71454" data-name="パス 71454" d="M1312.179,511.038c.443,0,2.093-2.56,4.07-.675,1.2,1.141.324,7.074-1.6,9.766-1.258,1.757-4.768,2.461-4.8,2.545Z" transform="translate(-1264.384 -489.937)" fill="#edbf98"/>
              <path id="パス_71455" data-name="パス 71455" d="M1313.876,520.523a.377.377,0,0,1-.055,0,.359.359,0,0,1-.292-.412c.157-1.037,1.025-6.237,2.665-6.831a1.1,1.1,0,0,1,1.179.316.368.368,0,0,1,.023.509.344.344,0,0,1-.5.024c-.262-.246-.416-.19-.474-.17-.916.332-1.841,3.862-2.206,6.262A.354.354,0,0,1,1313.876,520.523Z" transform="translate(-1266.388 -491.868)" fill="#b35d55"/>
              <path id="パス_71456" data-name="パス 71456" d="M1314.737,527.08a.361.361,0,0,1-.016-.721c.775-.038,1.194-.349,1.28-.951a3.109,3.109,0,0,0-.848-2.319.347.347,0,0,1-.391-.172.366.366,0,0,1,.132-.491.613.613,0,0,1,.742.138,3.674,3.674,0,0,1,.981,3.288,1.825,1.825,0,0,1-1.864,1.228Z" transform="translate(-1266.857 -496.853)" fill="#b35d55"/>
              <path id="パス_71457" data-name="パス 71457" d="M1286.181,484.04a.347.347,0,0,1-.339-.289,4.192,4.192,0,0,0-.954-2.176c-3.006-3.142-6.734-4.454-9.972-3.512l-.166.049c-1.372.4-3.252.943-3.948,2.177a.34.34,0,0,1-.472.129.36.36,0,0,1-.125-.485c.837-1.483,2.872-2.073,4.358-2.5l.166-.048c3.483-1.015,7.465.367,10.651,3.7a4.879,4.879,0,0,1,1.14,2.542.354.354,0,0,1-.276.414A.336.336,0,0,1,1286.181,484.04Z" transform="translate(-1242.743 -472.154)" fill="#271b17"/>
              <path id="パス_71458" data-name="パス 71458" d="M1283.412,487.449a.344.344,0,0,1-.3-.185c-.709-1.343-2.874-1.65-4.037-1.815-2.535-.361-4.907.706-7.118,1.829a.341.341,0,0,1-.462-.161.359.359,0,0,1,.156-.475c2.308-1.171,4.789-2.283,7.518-1.9,1.283.182,3.673.521,4.548,2.179a.359.359,0,0,1-.138.481A.336.336,0,0,1,1283.412,487.449Z" transform="translate(-1243.451 -476.304)" fill="#271b17"/>
              <path id="パス_71459" data-name="パス 71459" d="M1305.161,480.972a.342.342,0,0,1-.278-.144.361.361,0,0,1,.072-.5c.239-.182.25-1.121.255-1.475l0-.2a5.827,5.827,0,0,0-2.731-5.088.361.361,0,0,1-.105-.49.34.34,0,0,1,.477-.108,6.532,6.532,0,0,1,3.049,5.705l0,.194c-.008.655-.02,1.646-.534,2.036A.338.338,0,0,1,1305.161,480.972Z" transform="translate(-1260.28 -469.895)" fill="#271b17"/>
              <path id="パス_71460" data-name="パス 71460" d="M1312.1,495.65a.348.348,0,0,1-.342-.316,3.91,3.91,0,0,0-2.119-2.6.356.356,0,0,1-.23-.443.343.343,0,0,1,.431-.236,4.56,4.56,0,0,1,2.6,3.2.353.353,0,0,1-.305.391Z" transform="translate(-1264.133 -480.324)" fill="#271b17"/>
              <path id="パス_71461" data-name="パス 71461" d="M1316.137,493.008a.345.345,0,0,1-.32-.222c-.362-.925-2.958-2.53-4.085-2.094a.342.342,0,0,1-.444-.207.358.358,0,0,1,.2-.457c1.525-.59,4.485,1.258,4.968,2.493a.358.358,0,0,1-.191.461A.329.329,0,0,1,1316.137,493.008Z" transform="translate(-1265.156 -479.165)" fill="#271b17"/>
              <path id="パス_71462" data-name="パス 71462" d="M1286.627,682.24a8.409,8.409,0,0,1-2.848-.5c-4.057-1.451-22.219-18.068-22.99-18.774a.46.46,0,0,1-.036-.638.43.43,0,0,1,.62-.036c.188.172,18.8,17.2,22.694,18.6a8.216,8.216,0,0,0,6.953-.845.432.432,0,0,1,.61.119.459.459,0,0,1-.114.627A9.14,9.14,0,0,1,1286.627,682.24Z" transform="translate(-1237.555 -573.087)" fill="#2c3151"/>
              <path id="パス_71463" data-name="パス 71463" d="M1295.33,657.792a.442.442,0,0,1-.43-.363c-.667-1.345-15.853-8.877-25.267-13.3a.458.458,0,0,1-.216-.6.434.434,0,0,1,.582-.223c.063.03,6.368,2.995,12.636,6.142,12.865,6.46,13.042,7.367,13.126,7.8a.451.451,0,0,1-.344.531A.435.435,0,0,1,1295.33,657.792Z" transform="translate(-1242.317 -562.775)" fill="#2c3151"/>
              <path id="パス_71464" data-name="パス 71464" d="M1315.122,624.763a.437.437,0,0,1-.4-.273c-.277-.553-3.794-1.335-7.681-1.707a.432.432,0,0,1-.307-.174.463.463,0,0,1-.086-.349c.469-2.947,4.693-28.863,8.6-31.239l3.847-2.337a.433.433,0,0,1,.6.159.459.459,0,0,1-.155.619L1315.7,591.8c-2.952,1.794-6.776,21.908-8.107,30.132,2.532.262,7.406.928,7.937,2.2a.456.456,0,0,1-.231.593A.423.423,0,0,1,1315.122,624.763Z" transform="translate(-1262.633 -532.982)" fill="#2c3151"/>
              <path id="パス_71465" data-name="パス 71465" d="M1215.181,620.3a.423.423,0,0,1-.219-.06.458.458,0,0,1-.161-.617l18.187-32.362a.432.432,0,0,1,.577-.178l2.448,1.258a.457.457,0,0,1,.2.606.434.434,0,0,1-.589.2l-2.079-1.068-17.979,31.994A.437.437,0,0,1,1215.181,620.3Z" transform="translate(-1212.529 -532.119)" fill="#2c3151"/>
              <path id="パス_71466" data-name="パス 71466" d="M1244.019,638.6a.431.431,0,0,1-.279-.1.46.46,0,0,1-.06-.636,45.871,45.871,0,0,0,3.277-4.607c.672-1.244,7.635-22.615,11.276-33.905l-.094-.192a.458.458,0,0,1,.2-.606.433.433,0,0,1,.589.2l.174.359a.462.462,0,0,1,.024.344c-.429,1.33-10.515,32.6-11.4,34.237a45.6,45.6,0,0,1-3.367,4.742A.433.433,0,0,1,1244.019,638.6Z" transform="translate(-1228.252 -538.37)" fill="#2c3151"/>
              <path id="パス_71467" data-name="パス 71467" d="M1240.174,599.456h-.013a.446.446,0,0,1-.427-.464l.175-6.293h0a39,39,0,0,1,.4-5.4.433.433,0,0,1,.589-.2.457.457,0,0,1,.2.6c-.123.427-.349,4.558-.315,4.959,0,.018,0,.045,0,.063l-.175,6.292A.445.445,0,0,1,1240.174,599.456Z" transform="translate(-1226.156 -532.125)" fill="#2c3151"/>
              <path id="パス_71468" data-name="パス 71468" d="M1269.988,549.3a.4.4,0,0,1-.391-.353,5.056,5.056,0,0,0-.97-2.711,2.386,2.386,0,0,0-.828-.477.41.41,0,0,1-.243-.518.394.394,0,0,1,.5-.249,3.1,3.1,0,0,1,1.133.676,5.664,5.664,0,0,1,1.188,3.172.4.4,0,0,1-.34.456A.354.354,0,0,1,1269.988,549.3Z" transform="translate(-1241.312 -509.184)" fill="#b35d55"/>
              <path id="パス_71469" data-name="パス 71469" d="M1283.232,565.5a.393.393,0,0,1-.339-.2.413.413,0,0,1,.135-.558c.185-.114.366-.231.542-.355.1-.071.2-.145.293-.218a11.172,11.172,0,0,0,1.492-1.446c.1-.116.226-.243.36-.379.464-.473,1.1-1.119,1.017-1.618a.814.814,0,0,0-.111-.261,1.062,1.062,0,0,1-.169-.773,5.368,5.368,0,0,1,.191-.64,5.618,5.618,0,0,0,.184-.61,1.341,1.341,0,0,0-.134-1.048.411.411,0,0,0-.348-.144.566.566,0,0,1-.573-.271c-.168-.31.025-.607.269-.983.071-.11.151-.233.232-.368a1.164,1.164,0,0,0-.246-1.385,3.882,3.882,0,0,0-.373-.295c-.433-.317-.842-.617-.835-1.027a.586.586,0,0,1,.27-.482,7.263,7.263,0,0,0,1.246-1.428,1.6,1.6,0,0,0,.294-1.114.4.4,0,0,0-.277-.268c-1.025-.392-2.7.5-3.329.829-.793.422-2.1,1.225-2.966,1.757-.546.335-.812.5-.905.544a.391.391,0,0,1-.528-.19.412.412,0,0,1,.185-.542c.069-.035.462-.276.842-.51.874-.537,2.194-1.348,3.01-1.781,1.217-.645,2.767-1.328,3.966-.869a1.2,1.2,0,0,1,.757.787,2.374,2.374,0,0,1-.4,1.824,9.153,9.153,0,0,1-1.271,1.494c.118.1.292.232.4.313a4.327,4.327,0,0,1,.464.372,2,2,0,0,1,.371,2.392c-.087.146-.173.279-.249.4l-.02.031a1.159,1.159,0,0,1,.614.387,2.078,2.078,0,0,1,.311,1.73,6.07,6.07,0,0,1-.213.724,5.191,5.191,0,0,0-.162.53c-.008.043,0,.067.079.211a1.568,1.568,0,0,1,.206.53c.15.915-.653,1.734-1.24,2.331-.123.125-.237.242-.331.347a11.9,11.9,0,0,1-1.6,1.547c-.1.082-.213.163-.325.242-.188.132-.383.259-.582.382A.387.387,0,0,1,1283.232,565.5Z" transform="translate(-1247.336 -511.23)" fill="#b35d55"/>
            </g>
            <g id="グループ_4677" data-name="グループ 4677" transform="translate(0 28.457)">
              <path id="パス_71470" data-name="パス 71470" d="M1172.821,640.1s-2.81.8-2.81,1.044c0,.883-5.058,14.291-4.978,16.539s.482,21.2.482,21.2l28.261-.08s-.646-28.448-.24-29.867a31.831,31.831,0,0,1,1.927-5.7c.331-.662-7.467-3.372-7.467-3.372Z" transform="translate(-1140.247 -589.374)" fill="#e3b42d"/>
              <path id="パス_71471" data-name="パス 71471" d="M1207.789,604.945a2.42,2.42,0,0,1-.3-.015.525.525,0,0,1,.127-1.042,4.968,4.968,0,0,0,2.584-.685c1.407-.744,3.48-2.449,5.374-6.352a.525.525,0,0,1,.944.458C1213.071,604.423,1208.926,604.945,1207.789,604.945Z" transform="translate(-1163.147 -565.764)" fill="#db604c"/>
              <g id="グループ_4674" data-name="グループ 4674" transform="translate(25.23)">
                <path id="パス_71472" data-name="パス 71472" d="M1183.992,576.564a16.011,16.011,0,0,1-10.6-3.634c-2.807-2.541-3.27-17.482-2.252-19.075a24.083,24.083,0,0,1,4.627-4.957,12.611,12.611,0,0,1,11.927-2.329,24.874,24.874,0,0,1,7.1,3.5c1.848,1.31,2.42,2.888,3.4,4.929a15.682,15.682,0,0,1,.677,11.516c-.776,2.774-2.827,4.621-4.945,6.572a14.8,14.8,0,0,1-9.256,3.449C1184.445,576.548,1184.218,576.559,1183.992,576.564Z" transform="translate(-1168.539 -538.186)" fill="#db604c"/>
                <path id="パス_71473" data-name="パス 71473" d="M1187.274,627.318l10.212-6.075a.261.261,0,0,0,.006-.441,10.733,10.733,0,0,1-2.254-1.652c-1.9-1.822-.5-14.226-.5-14.226l-4.9.778v.023l0-.023-4.238.269s1.439,11.367-.547,12.791c-1.811,1.3-2.725,1.941-3.107,2.208a.253.253,0,0,0-.05.37l4.969,5.978v.02l.209-.01.209.01Z" transform="translate(-1174.634 -570.327)" fill="#edbf98"/>
                <path id="パス_71474" data-name="パス 71474" d="M1225.516,645.142s3.621-.519,5.355,7.067c1.284,5.62.562,29.465.562,29.465h-7.145l-1.526-27.217Z" transform="translate(-1196.952 -592.25)" fill="#e3b42d"/>
                <path id="パス_71475" data-name="パス 71475" d="M1213.646,540.943a12.22,12.22,0,0,1-4.295-1.272,4.209,4.209,0,0,1-1.58-1.345,5.387,5.387,0,0,1-.663-2.118,8.8,8.8,0,0,1-.118-2.8,3.324,3.324,0,0,1,1.418-2.328,2.082,2.082,0,0,1,2.575.264c-.608-.687,2.613-2.332,3.019-2.418a4.367,4.367,0,0,1,3.181.652,4.314,4.314,0,0,1,1.982,4.765,1.576,1.576,0,0,1,1.653,1.459c.123,1.248-1.069,2.23-1.854,3.06a6.209,6.209,0,0,1-3.509,2.064A7.554,7.554,0,0,1,1213.646,540.943Z" transform="translate(-1188.314 -528.85)" fill="#db604c"/>
                <path id="パス_71476" data-name="パス 71476" d="M1192.808,574.277c.143,6.326-6.678,11.312-13.131,12.09-3.929.474-8.065-2.967-9.284-10.487-.25-1.541-.484-8.231,0-9.666,1.481-4.384,4.186-5.955,9.081-6.065C1185.969,560,1192.667,567.949,1192.808,574.277Z" transform="translate(-1168.245 -545.914)" fill="#edbf98"/>
                <path id="パス_71477" data-name="パス 71477" d="M1219.368,589.339c.047,2.056-3.693,5.277-5.753,5.328s-.77-2.674-.816-4.736a3.722,3.722,0,0,1,3.64-3.8C1218.5,586.08,1219.323,587.274,1219.368,589.339Z" transform="translate(-1191.325 -560.077)" fill="#edbf98"/>
                <path id="パス_71478" data-name="パス 71478" d="M1167.257,566.4a3.857,3.857,0,0,1-1.162-2.531c-.7-5,3.017-9.612,6.757-12.487,1.675-1.287,3.751-2.355,5.825-1.956a5.852,5.852,0,0,0,.908.157c.289.01.577-.051.867-.058,1.323-.03,2.482,1.132,3.573,1.753,1.355.771,2.146,2.313,3.019,3.554a18.828,18.828,0,0,1,3.415,7.764,11.952,11.952,0,0,1,.021,3.65,26.049,26.049,0,0,1-3,8.558,4.537,4.537,0,0,1-.962,1.194,4.089,4.089,0,0,1-1.563.981c-.326.093-.5.232-.782.2a.2.2,0,0,1-.063-.389,4.056,4.056,0,0,0,1.505-1.242,7.59,7.59,0,0,0,1.212-2.866,15.039,15.039,0,0,0,.3-5.461,20.762,20.762,0,0,0-3.359-8.169,17.082,17.082,0,0,0-3.41-4.064c-.567-.473-.9-.865-1.663-.879a5.749,5.749,0,0,0-2.624.777,14.658,14.658,0,0,0-5.644,4.763,22.179,22.179,0,0,0-1.767,3.425,17.312,17.312,0,0,0-.66,3.944C1167.925,566.984,1167.327,566.456,1167.257,566.4Z" transform="translate(-1166.009 -540.024)" fill="#db604c"/>
                <path id="パス_71479" data-name="パス 71479" d="M1177.974,585.245a1.18,1.18,0,0,1-.569,1.5,1.038,1.038,0,0,1-1.393-.61,1.18,1.18,0,0,1,.575-1.5A1.036,1.036,0,0,1,1177.974,585.245Z" transform="translate(-1171.419 -559.217)"/>
                <path id="パス_71480" data-name="パス 71480" d="M1195.024,586.165a1.181,1.181,0,0,1-.57,1.5,1.039,1.039,0,0,1-1.394-.61,1.184,1.184,0,0,1,.575-1.5A1.038,1.038,0,0,1,1195.024,586.165Z" transform="translate(-1180.714 -559.718)"/>
                <path id="パス_71481" data-name="パス 71481" d="M1184.548,594.608a.274.274,0,0,1-.2-.086c-.1-.106-.211-.205-.321-.3a1.689,1.689,0,0,1-.753-1.343,11.026,11.026,0,0,1,.73-2.355c.175-.468.34-.911.389-1.106a.276.276,0,1,1,.536.135c-.057.224-.219.66-.406,1.164a12.941,12.941,0,0,0-.7,2.177c-.009.379.2.584.569.915.118.1.238.212.354.334a.275.275,0,0,1-.011.391A.27.27,0,0,1,1184.548,594.608Z" transform="translate(-1175.421 -561.757)"/>
                <path id="パス_71482" data-name="パス 71482" d="M1203.663,592.284a1.349,1.349,0,1,1-1.35-1.348A1.348,1.348,0,0,1,1203.663,592.284Z" transform="translate(-1185.068 -562.7)" fill="#db6b69"/>
                <path id="パス_71483" data-name="パス 71483" d="M1173.892,592.118a1.349,1.349,0,1,1-1.35-1.348A1.348,1.348,0,0,1,1173.892,592.118Z" transform="translate(-1168.835 -562.61)" fill="#db6b69"/>
                <path id="パス_71484" data-name="パス 71484" d="M1202.181,593.528a.25.25,0,0,1-.176-.07c-.344-.32-.9-.9-.755-1.226a.426.426,0,0,1,.248-.23,2.07,2.07,0,0,1,1.363.327l.085.039.061.027c-.01-.015-.023-.031-.034-.048-.028-.036-.058-.076-.09-.12-.161-.222-.5-.688-.727-.676a.261.261,0,0,1-.267-.25.257.257,0,0,1,.249-.267h.024c.492,0,.881.533,1.14.888.03.041.057.08.083.114.212.282.423.6.236.841s-.554.106-.882-.034l-.1-.045a3.888,3.888,0,0,0-.81-.306,5.715,5.715,0,0,0,.523.588.258.258,0,0,1-.176.447Z" transform="translate(-1185.21 -562.754)" fill="#db6b69"/>
                <path id="パス_71485" data-name="パス 71485" d="M1172.66,593.362a.259.259,0,0,1-.175-.068c-.216-.2-.91-.875-.757-1.226a.426.426,0,0,1,.249-.231c.3-.115.763.048,1.361.326l.088.04.059.026-.033-.046c-.026-.035-.056-.075-.087-.117-.16-.221-.494-.679-.722-.679h-.015a.259.259,0,0,1-.009-.517c.506-.017.9.53,1.164.892l.081.11c.212.281.425.6.236.841s-.554.107-.88-.035l-.1-.045a3.867,3.867,0,0,0-.807-.3,5.207,5.207,0,0,0,.521.586.258.258,0,0,1-.174.448Z" transform="translate(-1169.115 -562.664)" fill="#db6b69"/>
                <path id="パス_71486" data-name="パス 71486" d="M1207.259,541.675l-5.377-5.207a.253.253,0,0,0-.392.05l-2.7,4.427a.253.253,0,0,0,.168.38l7.724,1.5a.253.253,0,0,1,.123.062l5.8,5.333a.253.253,0,0,0,.395-.068l2.468-4.651a.253.253,0,0,0-.18-.368l-7.893-1.388A.25.25,0,0,1,1207.259,541.675Z" transform="translate(-1183.859 -532.964)" fill="#606ab0"/>
              </g>
              <path id="パス_71487" data-name="パス 71487" d="M1175.2,567.618a.532.532,0,0,1-.066,0,.525.525,0,0,1-.455-.586,16.136,16.136,0,0,1,7.778-11.54.525.525,0,0,1,.5.922c-.063.035-6.335,3.531-7.238,10.748A.525.525,0,0,1,1175.2,567.618Z" transform="translate(-1145.505 -543.338)" fill="#db604c"/>
              <path id="パス_71488" data-name="パス 71488" d="M1179.55,567.467a.535.535,0,0,1-.066,0,.525.525,0,0,1-.455-.586,15.25,15.25,0,0,1,7.5-11.245.525.525,0,0,1,.484.931,14.452,14.452,0,0,0-6.945,10.444A.525.525,0,0,1,1179.55,567.467Z" transform="translate(-1147.876 -543.42)" fill="#db604c"/>
              <path id="パス_71489" data-name="パス 71489" d="M1182.875,567.771a.539.539,0,0,1-.136-.018.525.525,0,0,1-.372-.642c1.818-6.839,4.445-10.629,7.6-10.978a.515.515,0,0,1,.623-.008.564.564,0,0,1,.246.63.629.629,0,0,1-.634.409c-2.7.2-5.123,3.828-6.823,10.216A.525.525,0,0,1,1182.875,567.771Zm7.094-10.8h0Z" transform="translate(-1149.689 -543.666)" fill="#db604c"/>
              <path id="パス_71490" data-name="パス 71490" d="M1202.031,570.773a.523.523,0,0,1-.371-.153c-5.525-5.507-4.961-13.059-4.934-13.378a.525.525,0,0,1,1.046.087c-.006.073-.543,7.393,4.629,12.547a.525.525,0,0,1-.37.9Z" transform="translate(-1157.511 -544.068)" fill="#db604c"/>
              <path id="パス_71491" data-name="パス 71491" d="M1196.437,579.906a.175.175,0,0,1-.146-.078c-.038-.057-.959-1.391-3.194-.7a.175.175,0,1,1-.1-.334,3.058,3.058,0,0,1,3.59.839.174.174,0,0,1-.05.242A.176.176,0,0,1,1196.437,579.906Z" transform="translate(-1155.425 -555.966)" fill="#db604c"/>
              <path id="パス_71492" data-name="パス 71492" d="M1178.367,578.663a.174.174,0,0,1-.119-.046,2.355,2.355,0,0,0-2.654-.164.175.175,0,1,1-.154-.314,2.694,2.694,0,0,1,3.046.222.175.175,0,0,1-.119.3Z" transform="translate(-1145.868 -555.53)" fill="#db604c"/>
              <path id="パス_71493" data-name="パス 71493" d="M1192.352,615.177a.3.3,0,0,1,0-.6,11.592,11.592,0,0,0,5.577-2.046.3.3,0,0,1,.326.507A11.938,11.938,0,0,1,1192.352,615.177Z" transform="translate(-1154.977 -574.446)" fill="#b35d55"/>
              <path id="パス_71494" data-name="パス 71494" d="M1212.92,559.665a.165.165,0,0,1-.119-.049.165.165,0,0,1,0-.238,7.176,7.176,0,0,0,.623-.763l0,0a.173.173,0,0,1,.234-.035.178.178,0,0,1,.07.133.163.163,0,0,1-.031.1v0l-.01.01a7.294,7.294,0,0,1-.647.791A.171.171,0,0,1,1212.92,559.665Zm1.2-1.627a.168.168,0,0,1-.091-.025.171.171,0,0,1-.073-.105.154.154,0,0,1,.021-.125q.178-.289.346-.567c.063-.1.122-.2.185-.3a.169.169,0,0,1,.311.091.181.181,0,0,1-.025.087c-.073.119-.147.238-.224.36-.1.165-.2.332-.308.5A.166.166,0,0,1,1214.12,558.038Zm1.018-1.745a.2.2,0,0,1-.063-.01.165.165,0,0,1-.091-.091.168.168,0,0,1,0-.13,1.742,1.742,0,0,0,.136-.64,1.085,1.085,0,0,0-.028-.248v-.007a.167.167,0,0,1,.025-.122.172.172,0,0,1,.105-.074.177.177,0,0,1,.2.13,1.655,1.655,0,0,1,.031.322,2.029,2.029,0,0,1-.161.766A.171.171,0,0,1,1215.139,556.293Z" transform="translate(-1166.263 -543.089)" fill="#8c3d31"/>
              <path id="パス_71495" data-name="パス 71495" d="M1215.206,566.063a.16.16,0,0,1-.147-.088.162.162,0,0,1-.018-.126.181.181,0,0,1,.081-.1,2.779,2.779,0,0,0,.721-.619.173.173,0,0,1,.238-.014.162.162,0,0,1,.056.122.171.171,0,0,1-.038.116,3.278,3.278,0,0,1-.812.693A.208.208,0,0,1,1215.206,566.063Zm1.364-1.469a.172.172,0,0,1-.091-.025.161.161,0,0,1-.074-.105.169.169,0,0,1,.021-.129c.171-.266.336-.557.493-.864a.172.172,0,0,1,.227-.074.164.164,0,0,1,.091.147.133.133,0,0,1-.017.081,10.058,10.058,0,0,1-.511.892A.166.166,0,0,1,1216.571,564.593Zm.941-1.788a.161.161,0,0,1-.07-.017.167.167,0,0,1-.084-.221c.161-.357.287-.647.385-.916,0,0,0,0,0-.007a.171.171,0,0,1,.216-.1.168.168,0,0,1,.109.161.176.176,0,0,1-.01.056c-.1.283-.231.584-.4.945A.169.169,0,0,1,1217.511,562.805Zm.682-1.9-.035,0a.168.168,0,0,1-.125-.2,4.833,4.833,0,0,0,.115-.966s0,0,0-.007a.169.169,0,0,1,.168-.161.171.171,0,0,1,.168.172,5.368,5.368,0,0,1-.126,1.036A.175.175,0,0,1,1218.194,560.906Z" transform="translate(-1167.51 -545.597)" fill="#8c3d31"/>
              <path id="パス_71496" data-name="パス 71496" d="M1220.816,571.6a.167.167,0,0,1-.119-.049.171.171,0,0,1-.049-.119.156.156,0,0,1,.053-.119,5.636,5.636,0,0,0,.42-.472l0,0a.173.173,0,0,1,.237-.028.171.171,0,0,1,.063.129.182.182,0,0,1-.038.109,4.967,4.967,0,0,1-.452.5A.165.165,0,0,1,1220.816,571.6Zm1-1.326a.164.164,0,0,1-.08-.025.156.156,0,0,1-.081-.1.173.173,0,0,1,.018-.13,8.938,8.938,0,0,0,.437-.885v0a.171.171,0,0,1,.221-.088.167.167,0,0,1,.1.154.2.2,0,0,1-.014.066,8.4,8.4,0,0,1-.458.923A.166.166,0,0,1,1221.816,570.273Zm.8-1.858a.146.146,0,0,1-.052-.01.158.158,0,0,1-.1-.081.168.168,0,0,1-.011-.129c.1-.318.186-.64.259-.962a.169.169,0,0,1,.2-.126.163.163,0,0,1,.13.165.112.112,0,0,1,0,.035c-.076.346-.167.679-.266.99A.172.172,0,0,1,1222.614,568.415Zm.448-1.973h-.025a.176.176,0,0,1-.112-.066.178.178,0,0,1-.032-.126c.05-.325.088-.661.109-.994a.162.162,0,0,1,.182-.154.169.169,0,0,1,.157.171v0c-.025.34-.063.682-.112,1.022A.169.169,0,0,1,1223.062,566.442Zm.144-2.015h0a.168.168,0,0,1-.168-.168c0-.339-.017-.675-.049-1v-.014a.168.168,0,0,1,.336-.014c.031.333.049.679.049,1.025A.168.168,0,0,1,1223.206,564.427Zm-.193-2.011a.168.168,0,0,1-.164-.136,7.267,7.267,0,0,0-.252-.955v0a.167.167,0,0,1,.105-.21.173.173,0,0,1,.213.105,7.948,7.948,0,0,1,.266,1,.167.167,0,0,1-.133.2A.119.119,0,0,1,1223.013,562.415Z" transform="translate(-1170.569 -546.435)" fill="#8c3d31"/>
              <path id="パス_71497" data-name="パス 71497" d="M1219.988,683.751a.587.587,0,0,1-.587-.577c0-.216-.4-21.7-.4-24.1,0-3.606,2.583-9.987,2.693-10.258a.587.587,0,0,1,1.088.443c-.026.064-2.606,6.438-2.606,9.814,0,2.388.4,23.858.4,24.075a.588.588,0,0,1-.577.6Z" transform="translate(-1169.671 -594.06)" fill="#c18a25"/>
              <path id="パス_71498" data-name="パス 71498" d="M1154.192,641.448s-4.6.714-6.423,3.533c-3.211,4.978-14.4,30.946-14.4,30.946l2.563,3.769,5.154.046s13.669-20.149,13.669-20.551S1154.192,641.448,1154.192,641.448Z" transform="translate(-1122.983 -590.24)" fill="#e3b42d"/>
              <path id="パス_71499" data-name="パス 71499" d="M1164.1,673.907h-.01a.587.587,0,0,1-.578-.6c.037-2.35-.067-5.371-.15-7.8-.054-1.566-.1-2.8-.082-3.373.081-3.42,2.465-10.678,2.566-10.986a.588.588,0,0,1,1.116.368c-.025.074-2.431,7.4-2.508,10.645-.013.537.031,1.82.082,3.305.084,2.441.188,5.478.151,7.858A.587.587,0,0,1,1164.1,673.907Z" transform="translate(-1139.291 -595.312)" fill="#c18a25"/>
              <g id="グループ_4676" data-name="グループ 4676" transform="translate(0 36.603)">
                <g id="グループ_4675" data-name="グループ 4675">
                  <path id="パス_71500" data-name="パス 71500" d="M1121.8,628.5a6.738,6.738,0,0,1,.055,2.361c-.027.75-3.285,22.566-4.2,27.771-.01.053-.017.11-.023.17-.181,1.8,1.182,2.326,2.977,2.548l.428.053c1.88.233,3.67.07,4.034-1.79a4.215,4.215,0,0,0,.083-.679c.2-6.179.993-29.092,1.153-30.788a4.742,4.742,0,0,1,.229-1.206,16.659,16.659,0,0,1,.843-1.76,6.438,6.438,0,0,0,.683-3.456c-.088-.648-.3-1.272-.439-1.913a22.581,22.581,0,0,1,.019-6.134c.026-.374.025-.914-.476-.933a.881.881,0,0,0-.55.2,2.2,2.2,0,0,0-.731,1.169,9.274,9.274,0,0,0-.224,1.383,5.938,5.938,0,0,1-.373,1.651,1.719,1.719,0,0,1-.349.573c-1.062,1.019-7.386-5.972-9.433-7.622a6.284,6.284,0,0,0-.693-.491,1.1,1.1,0,0,0-.674-.2.639.639,0,0,0-.367.178c-.105.1-.128.281-.267.336-.3.119-.542-.249-.8-.44a.812.812,0,0,0-1.172,1.08c.089.145.229.283.209.452s-.179.265-.287.388a.947.947,0,0,0-.145.887,3.436,3.436,0,0,0,.59.962q.367.519.78,1c.552.642,3.241,3.63,3.241,3.63s-.085.188-.236.067c-1.5-1.2-3.669-3.508-4.418-3.877a.6.6,0,0,0-.49-.069.459.459,0,0,0-.233.477,1.343,1.343,0,0,0,.217.521c.391.657,4.063,4.693,4.063,4.693s3.386,5.482,5.557,7.282A6.245,6.245,0,0,1,1121.8,628.5Z" transform="translate(-1110.533 -609.334)" fill="#edbf98"/>
                </g>
                <path id="パス_71501" data-name="パス 71501" d="M1122.634,616.7a.348.348,0,0,1-.247-.1l-5.344-5.295a.35.35,0,0,1,.492-.5l5.344,5.3a.35.35,0,0,1-.246.6Z" transform="translate(-1114.026 -610.08)" fill="#b35d55"/>
                <path id="パス_71502" data-name="パス 71502" d="M1119.542,619.038a.347.347,0,0,1-.245-.1l-5.514-5.408a.35.35,0,0,1,.49-.5l5.513,5.408a.35.35,0,0,1-.245.6Z" transform="translate(-1112.249 -611.294)" fill="#b35d55"/>
              </g>
              <path id="パス_71503" data-name="パス 71503" d="M1133.755,672.319l-5.964-.373-2.982,24.352,8.591.026Z" transform="translate(-1118.317 -606.868)" fill="#e3b42d"/>
              <path id="パス_71504" data-name="パス 71504" d="M1144.3,703.942a.589.589,0,0,1-.578-.7c.078-.6-.448-6.512-.8-10.1a.587.587,0,0,1,1.169-.114c.22,2.253.926,9.661.783,10.427A.588.588,0,0,1,1144.3,703.942Z" transform="translate(-1128.191 -618.078)" fill="#c18a25"/>
              <path id="パス_71505" data-name="パス 71505" d="M1146.989,704.125a.588.588,0,0,1-.578-.686,52.626,52.626,0,0,0-2.91-5.984.587.587,0,1,1,1.034-.557c3.442,6.391,3.191,6.684,2.9,7.022A.585.585,0,0,1,1146.989,704.125Zm-.569-.633h0Z" transform="translate(-1128.469 -620.303)" fill="#c18a25"/>
            </g>
          </g>
          <path id="パス_71506" data-name="パス 71506" d="M1187.235,606.879a.8.8,0,1,1-.79-.923A.865.865,0,0,1,1187.235,606.879Z" transform="translate(-1151.491 -542.433)" fill="#d21337"/>
          <path id="パス_71507" data-name="パス 71507" d="M1281.563,543.2a.8.8,0,1,1-.79-.923A.865.865,0,0,1,1281.563,543.2Z" transform="translate(-1202.92 -507.715)" fill="#d21337"/>
        </g>
        <g id="グループ_4684" data-name="グループ 4684" transform="translate(1119.353 481.503)">
          <g id="グループ_4681" data-name="グループ 4681">
            <g id="グループ_4680" data-name="グループ 4680">
              <path id="パス_71508" data-name="パス 71508" d="M1140.806,519.761a.751.751,0,0,1-.969-.22,17.391,17.391,0,0,1-1.371-2.591,5.129,5.129,0,0,1,.356-5.039c.816-1.6,2.246-3.767,1.021-5.547a2.228,2.228,0,0,0-2.423-1.038,2.788,2.788,0,0,0-1.921,2.594,26.943,26.943,0,0,0,.241,4.392,43.4,43.4,0,0,1-4.426.206,19.646,19.646,0,0,1-.374-4.74,6.918,6.918,0,0,1,2.976-5.638,6.622,6.622,0,0,1,3-1.292,7.489,7.489,0,0,1,4.482.7c2.2,1.068,3.276,4.058,2.662,6.711-.086.37-1.552,4.642-1.67,5.088-.482,1.818.77,2.418,1.41,3.595a.989.989,0,0,1-.378,1.328C1142.637,518.729,1141.5,519.385,1140.806,519.761Z" transform="translate(-1130.472 -500.302)" fill="#03a58e"/>
              <path id="パス_71509" data-name="パス 71509" d="M1139.9,519.761a1.209,1.209,0,0,1-.98-.5,17.871,17.871,0,0,1-1.426-2.69,5.543,5.543,0,0,1,.375-5.414c.093-.183.194-.374.3-.569.789-1.482,1.683-3.162.752-4.513a1.776,1.776,0,0,0-1.929-.858c-.893.241-1.413.966-1.589,2.218a26.768,26.768,0,0,0,.242,4.272.456.456,0,0,1-.414.511c-4.8.388-4.811.316-4.908-.155a19.763,19.763,0,0,1-.388-4.637l0-.2a7.35,7.35,0,0,1,3.154-5.992,7.069,7.069,0,0,1,3.207-1.379,7.935,7.935,0,0,1,4.754.743c2.307,1.122,3.583,4.295,2.906,7.222-.046.2-.37,1.171-.9,2.744-.34,1.013-.724,2.161-.777,2.358a2.234,2.234,0,0,0,.686,2.289,6.461,6.461,0,0,1,.685.972,1.437,1.437,0,0,1-.55,1.939c-.531.309-1.853,1.072-2.629,1.494h0A1.2,1.2,0,0,1,1139.9,519.761Zm-8.69-7.884v0Z" transform="translate(-1129.926 -499.756)" fill="#03a58e"/>
            </g>
          </g>
          <g id="グループ_4683" data-name="グループ 4683" transform="translate(10.862 19.296)">
            <g id="グループ_4682" data-name="グループ 4682">
              <path id="パス_71510" data-name="パス 71510" d="M1157.448,548.227a2.192,2.192,0,0,1-2.541-1.623,3.014,3.014,0,0,1,.368-2.379,2.209,2.209,0,0,1,1.5-1.015,2.284,2.284,0,0,1,.746.007,2.668,2.668,0,0,1,1.955,2.9A2.36,2.36,0,0,1,1157.448,548.227Z" transform="translate(-1154.354 -542.73)" fill="#03a58e"/>
              <path id="パス_71511" data-name="パス 71511" d="M1156.518,548.168a2.6,2.6,0,0,1-2.6-1.992,3.475,3.475,0,0,1,.426-2.742,2.657,2.657,0,0,1,1.807-1.216,2.777,2.777,0,0,1,.894.007,3.1,3.1,0,0,1,2.331,3.393,2.8,2.8,0,0,1-2.4,2.514h0A2.87,2.87,0,0,1,1156.518,548.168Zm.385-.485h0Z" transform="translate(-1153.809 -542.185)" fill="#03a58e"/>
            </g>
          </g>
        </g>
      </g>
    </g>
  </g>
</svg>
