<svg xmlns="http://www.w3.org/2000/svg" xmlns:xlink="http://www.w3.org/1999/xlink" width="350" height="200" viewBox="0 0 350 200"><defs><linearGradient id="a" x1="0.5" y1="0.917" x2="0.5" y2="0.106" gradientUnits="objectBoundingBox"><stop offset="0" stop-color="#96663d"/><stop offset="0.253" stop-color="#8f6039"/><stop offset="0.608" stop-color="#7d512e"/><stop offset="1" stop-color="#613a1e"/></linearGradient></defs><g transform="translate(-143 -1765)"><g transform="translate(143 1765)" fill="#fff"><path d="M 349.5 199.5 L 0.5 199.5 L 0.5 0.5 L 349.5 0.5 L 349.5 199.5 Z" stroke="none"/><path d="M 1 1 L 1 199 L 349 199 L 349 1 L 1 1 M 0 0 L 350 0 L 350 200 L 0 200 L 0 0 Z" stroke="none" fill="#dcdcdc"/></g><g transform="translate(-796.681 530.699)"><g transform="translate(1094.368 1256.821)"><rect width="81.242" height="134.05" transform="translate(0)" fill="#94663f"/><rect width="82.867" height="76.368" transform="translate(78.805 2.437) rotate(90)" fill="#4d2a13"/><rect width="43.871" height="76.368" transform="translate(78.805 87.741) rotate(90)" fill="#626262"/><rect width="43.545" height="76.042" transform="translate(78.642 87.904) rotate(90)" fill="#fff"/><rect width="43.545" height="0.162" transform="translate(40.702 87.904) rotate(90)" fill="#626262"/><rect width="2.437" height="76.368" transform="translate(78.805 57.682) rotate(90)" fill="#94663f"/><rect width="2.437" height="76.368" transform="translate(78.805 30.059) rotate(90)" fill="#94663f"/><path d="M1410.989,1686.926v12.186h-1.772l-1.772-8.124h-70.9l-1.772,8.124H1333v-12.186Z" transform="translate(-1331.371 -1552.876)" fill="url(#a)"/><path d="M1443.028,1549.935l-.812-.812,2.437-2.437.812.813v2.437Z" transform="translate(-1406.551 -1456.344)" fill="#b0afaf" style="mix-blend-mode:multiply;isolation:isolate"/><rect width="2.437" height="2.437" transform="translate(38.102 90.341) rotate(90)" fill="#181919"/><path d="M1467.01,1549.935l-.812-.812,2.437-2.437.813.813v2.437Z" transform="translate(-1423.058 -1456.344)" fill="#b0afaf" style="mix-blend-mode:multiply;isolation:isolate"/><rect width="2.437" height="2.437" transform="translate(45.577 90.341) rotate(90)" fill="#181919"/></g><g transform="translate(1028.531 1291.947)"><g transform="translate(0 0)"><rect width="95.79" height="95.79" transform="translate(4.23 4.23)" fill="#312725"/><path d="M1116.542,1369.531v104.246l104.251,0V1369.525Zm32.635,67.681h-28.4v-30.217h28.4Zm4.23-30.217h30.217v30.217h-30.217Zm30.217,34.448v28.1h-30.217v-28.1Zm-30.217-38.678v-29.009h30.217v29.009Zm34.448,4.231h28.707v30.217h-28.707Zm28.707-4.231h-28.707v-29.009h28.707Zm-67.385-29.009v29.009h-28.4v-29.009Zm-28.4,67.687h28.4v28.1h-28.4Zm67.083,28.1v-28.1h28.707v28.1Z" transform="translate(-1116.542 -1369.525)" fill="#694833"/></g><g transform="translate(42.464 7.252)"><path d="M1269.474,1403.553a2.027,2.027,0,0,0,.476-2.818l-.088-.124a2.027,2.027,0,0,0-2.818-.476l-2.3,1.871a.3.3,0,0,1-.493-.234v-.375a1.063,1.063,0,0,1,.448-.867l2.975-2.115a1.84,1.84,0,0,0,.432-2.557l-.07-.1a1.838,1.838,0,0,0-2.557-.432l-.9.864c-.333.228-.333-.19-.333-.19v-.556a2.655,2.655,0,0,0-1.768-2.489v-.014c-.1-.034-.2-.057-.3-.081-.021,0-.04-.012-.061-.016a2.344,2.344,0,0,0-.474-.053h-.179a2.344,2.344,0,0,0-.474.053c-.021,0-.04.011-.061.016-.1.024-.206.047-.3.081v.014a2.655,2.655,0,0,0-1.768,2.489V1396s0,.417-.333.19l-.9-.864a1.838,1.838,0,0,0-2.557.432l-.07.1a1.839,1.839,0,0,0,.432,2.557l2.975,2.115a1.063,1.063,0,0,1,.448.867v.375a.3.3,0,0,1-.493.234l-2.3-1.871a2.027,2.027,0,0,0-2.818.476l-.088.124a2.027,2.027,0,0,0,.476,2.818l4.132,2.937h7.573Z" transform="translate(-1252.79 -1392.794)" fill="#f1b709"/><g transform="translate(2.333 1.284)"><path d="M1274.233,1399.422a.226.226,0,0,0-.317-.045l-4.472,3.354v-5.59a.227.227,0,1,0-.454,0v5.59l-4.472-3.354a.227.227,0,1,0-.272.362l4.744,3.558v6.028h.454V1403.3l4.744-3.558A.226.226,0,0,0,1274.233,1399.422Z" transform="translate(-1262.946 -1396.914)" fill="#f8f6dd"/><path d="M1260.326,1422.209a.227.227,0,0,0,.036.319l5.189,4.151h.726l-5.632-4.505A.228.228,0,0,0,1260.326,1422.209Z" transform="translate(-1260.277 -1414.267)" fill="#f8f6dd"/><path d="M1287.212,1422.209a.228.228,0,0,0-.318-.035l-5.632,4.505h.726l5.189-4.151A.227.227,0,0,0,1287.212,1422.209Z" transform="translate(-1274.722 -1414.267)" fill="#f8f6dd"/></g><path d="M1270.646,1437.06a.807.807,0,0,0-.645-.322h-15.109a.809.809,0,0,0-.777,1.031l3.022,10.576a.808.808,0,0,0,.777.587h9.065a.809.809,0,0,0,.777-.587l3.022-10.576A.807.807,0,0,0,1270.646,1437.06Z" transform="translate(-1253.68 -1423.042)" fill="#f8f6dd"/></g><g transform="translate(73.959 44.722)"><rect width="4.23" height="22.965" transform="translate(19.716)" fill="#50584e"/><rect width="3.022" height="21.152" transform="translate(16.815 1.813)" fill="#797472"/><rect width="4.23" height="21.152" transform="translate(12.705 1.813)" fill="#f8f6dd"/><rect width="1.813" height="18.131" transform="translate(11.013 4.835)" fill="#b8b5ad"/><rect width="2.417" height="19.944" transform="translate(8.717 3.022)" fill="#797472"/><rect width="3.626" height="16.922" transform="translate(5.211 6.044)" fill="#b8b5ad"/><rect width="13.296" height="1.813" transform="translate(0 22.547) rotate(-75.963)" fill="#e8ede2"/></g><g transform="translate(38.921 77.142)"><rect width="4.23" height="22.965" transform="translate(22.24)" fill="#50584e"/><rect width="3.022" height="21.152" transform="translate(19.339 1.813)" fill="#797472"/><rect width="4.23" height="21.152" transform="translate(15.23 1.813)" fill="#b8b5ad"/><rect width="1.813" height="18.131" transform="translate(13.538 4.835)" fill="#f8f6dd"/><rect width="2.417" height="19.944" transform="translate(11.241 3.022)" fill="#b8b5ad"/><rect width="3.626" height="16.922" transform="translate(7.736 6.044)" fill="#797472"/><rect width="4.23" height="19.728" transform="translate(0 3.237)" fill="#50584e"/><rect width="3.022" height="18.171" transform="translate(4.472 4.794)" fill="#f8f6dd"/></g><g transform="translate(6.043 42.909)"><rect width="4.23" height="22.965" transform="translate(0 1.813)" fill="#50584e"/><rect width="3.022" height="21.152" transform="translate(4.11 3.626)" fill="#797472"/><rect width="4.23" height="21.152" transform="translate(7.01 3.626)" fill="#f8f6dd"/><rect width="1.813" height="22.526" transform="translate(11.12 2.253)" fill="#d3dcc6"/><rect width="2.417" height="24.778" transform="translate(12.812)" fill="#50584e"/><rect width="3.626" height="21.024" transform="translate(15.109 3.754)" fill="#797472"/><rect width="3.022" height="17.009" transform="translate(18.615 7.857)" fill="#b8b5ad"/><rect width="4.23" height="17.009" transform="translate(21.516 7.857)" fill="#f8f6dd"/></g><g transform="translate(74.335 85.213)"><path d="M1377.411,1642.937h-21.757a.6.6,0,1,0,0,1.209V1655.2a2.844,2.844,0,0,0,2.844,2.844h16.069a2.843,2.843,0,0,0,2.844-2.844v-11.056a.6.6,0,0,0,0-1.209Zm-8.763,4.835h-4.231a.906.906,0,0,1,0-1.813h4.231a.906.906,0,1,1,0,1.813Z" transform="translate(-1355.05 -1642.937)" fill="#f8f6dd"/></g><g transform="translate(40.307 44.722)"><g transform="translate(7.597)"><rect width="16.006" height="22.965" fill="#f8f6dd"/><rect width="12.527" height="16.702" transform="translate(1.74 2.784)" fill="#f1dc9b"/></g><path d="M1268.705,1538.453h-.56v-4.835h.5a.6.6,0,0,0,0-1.209h-3.939a.6.6,0,0,0,0,1.209h.5v4.835h-.56A1.646,1.646,0,0,0,1263,1540.1v7.586a1.646,1.646,0,0,0,1.646,1.646h4.061a1.646,1.646,0,0,0,1.646-1.646V1540.1A1.646,1.646,0,0,0,1268.705,1538.453Z" transform="translate(-1257.66 -1526.365)" fill="#66aba3"/><path d="M1245.87,1577.008l2.015,3.022h5.036l2.014-3.022Z" transform="translate(-1245.87 -1557.064)" fill="#fff5e7"/></g><g transform="translate(6.497 79.774)"><path d="M1137.387,1625.485v20.548h6.044v-20.548Zm3.022,18.735a1.511,1.511,0,1,1,1.511-1.511A1.511,1.511,0,0,1,1140.409,1644.22Z" transform="translate(-1137.387 -1625.485)" fill="#f5cf5a"/><path d="M1156.778,1625.485v20.548h6.044v-20.548Zm3.022,18.735a1.511,1.511,0,1,1,1.511-1.511A1.511,1.511,0,0,1,1159.8,1644.22Z" transform="translate(-1150.734 -1625.485)" fill="#f1b709"/><path d="M1176.169,1625.485v20.548h6.043v-20.548Zm3.022,18.735a1.511,1.511,0,1,1,1.511-1.511A1.511,1.511,0,0,1,1179.191,1644.22Z" transform="translate(-1164.082 -1625.485)" fill="#f5cf5a"/><path d="M1195.56,1625.485v20.548h6.043v-20.548Zm3.022,18.735a1.511,1.511,0,1,1,1.511-1.511A1.511,1.511,0,0,1,1198.582,1644.22Z" transform="translate(-1177.43 -1625.485)" fill="#f1b709"/></g><g transform="translate(79.036 20.548)"><g transform="translate(0.302)"><path d="M1382.948,1437.871v-.784a.414.414,0,0,0-.4-.424h-.745v-1.209h-8.7v1.209h-.745a.414.414,0,0,0-.4.424v.784h-.845v10.274h12.691v-10.274Zm-2.328,6.09a.71.71,0,0,1-.709.709h-4.927a.71.71,0,0,1-.709-.709v-2.51a.71.71,0,0,1,.709-.709h4.927a.71.71,0,0,1,.709.709Z" transform="translate(-1371.102 -1435.454)" fill="#f1b709"/><rect width="5.741" height="3.324" rx="1.307" transform="translate(3.475 5.59)" fill="#f1b709"/></g><path d="M1370.132,1435.454v2.417h1.148v-.784a.414.414,0,0,1,.4-.424h.745v-1.209Z" transform="translate(-1370.132 -1435.454)" fill="#f8f6dd"/><path d="M1405.427,1435.454v1.209h.745a.414.414,0,0,1,.4.424v.784h1.147v-2.417Z" transform="translate(-1394.427 -1435.454)" fill="#f8f6dd"/><path d="M1386.917,1452.421h-4.927a.71.71,0,0,0-.709.709v2.51a.71.71,0,0,0,.709.709h4.927a.71.71,0,0,0,.709-.709v-2.51A.71.71,0,0,0,1386.917,1452.421Zm.407,3.219a.408.408,0,0,1-.407.407h-4.927a.408.408,0,0,1-.407-.407v-2.51a.408.408,0,0,1,.407-.407h4.927a.408.408,0,0,1,.407.407Z" transform="translate(-1377.806 -1447.133)" fill="#f8f6dd"/></g><g transform="translate(20.576 12.691)"><path d="M1188,1421.585v-1.873a.814.814,0,0,1-.331.071h-2.359a.815.815,0,0,1-.331-.071v1.867a4.068,4.068,0,0,0-2.417,3.763v11.109a.859.859,0,0,0,.859.859h6.139a.859.859,0,0,0,.859-.859v-11.084A4.123,4.123,0,0,0,1188,1421.585Zm1.785,12.7h-4.835v-7.857h4.835Z" transform="translate(-1182.562 -1416.762)" fill="#257e73"/><path d="M1191.924,1410.246h-2.359a.825.825,0,0,0-.822.822v1.377a.824.824,0,0,0,.491.751.813.813,0,0,0,.331.071h2.359a.814.814,0,0,0,.331-.071.824.824,0,0,0,.491-.751v-1.377A.825.825,0,0,0,1191.924,1410.246Z" transform="translate(-1186.817 -1410.246)" fill="#94c5c2"/><rect width="4.835" height="7.857" transform="translate(2.389 9.67)" fill="#fff5e7"/></g><g transform="translate(13.9 18.131)"><path d="M1164.829,1435.939v-1.368a.575.575,0,0,1-.245.057h-1.559a.572.572,0,0,1-.244-.057v1.364a2.978,2.978,0,0,0-1.639,2.738v8.105a.6.6,0,0,0,.6.6h4.12a.6.6,0,0,0,.6-.6v-8.088A3.021,3.021,0,0,0,1164.829,1435.939Zm0,9.244h-3.278v-5.717h3.278Z" transform="translate(-1161.141 -1432.429)" fill="#66aba3"/><path d="M1167.468,1427.7h-1.559a.579.579,0,0,0-.578.577v1.044a.578.578,0,0,0,.333.521.569.569,0,0,0,.244.057h1.559a.569.569,0,0,0,.245-.057.577.577,0,0,0,.333-.521v-1.044A.579.579,0,0,0,1167.468,1427.7Z" transform="translate(-1164.025 -1427.698)" fill="#c7e2df"/><rect width="3.278" height="5.717" transform="translate(0.411 7.036)" fill="#f8f6dd"/></g></g><g transform="translate(1150.073 1324.66)"><g transform="translate(0 0)"><path d="M1575.368,1630.528h-44.6l-2,8.22h48.613Z" transform="translate(-1521.827 -1581.895)" fill="#26150c"/><path d="M1683.4,1630.528h-5.092l2,8.22,4.917,20.164h2.016Z" transform="translate(-1624.765 -1581.895)" fill="#492f20"/><path d="M1510.36,1630.528l-3.845,28.384h2.015l4.918-20.164,2-8.22Z" transform="translate(-1506.514 -1581.895)" fill="#492f20"/><rect width="58.449" height="48.633" transform="translate(2.015)" fill="#5e3c26"/></g><g transform="translate(4.031 4.795)"><rect width="54.418" height="11.644" fill="#765643"/><rect width="54.418" height="11.644" transform="translate(0 13.699)" fill="#765643"/><rect width="54.418" height="11.644" transform="translate(0 27.399)" fill="#765643"/></g><g transform="translate(29.063 7.815)"><ellipse cx="2.177" cy="2.96" rx="2.177" ry="2.96" fill="#5e3c26"/><ellipse cx="2.177" cy="2.96" rx="2.177" ry="2.96" transform="translate(0 13.591)" fill="#5e3c26"/><ellipse cx="2.177" cy="2.96" rx="2.177" ry="2.96" transform="translate(0 27.182)" fill="#5e3c26"/></g></g><g transform="translate(1080.308 1341.375)"><path d="M1426.324,1678.8a3.141,3.141,0,0,1-3.138,3.055h-47.168a3.141,3.141,0,0,1-3.138-3.055h-.009a3.141,3.141,0,0,1-3.138,3.055h-47.168a3.141,3.141,0,0,1-3.138-3.055h0v6.349a1.287,1.287,0,0,0,1.287,1.287h1v11.454h5.727v-11.454h90.87v11.454h5.727v-11.454h1a1.287,1.287,0,0,0,1.287-1.287V1678.8Z" transform="translate(-1307.968 -1631.838)" fill="#694833"/><path d="M1409.857,1612.648h-6.2a2.631,2.631,0,0,0-2.628,2.628v10.441a3.142,3.142,0,0,0-3.142-3.143h-47.168a3.143,3.143,0,0,1-6.285,0h-47.168a3.142,3.142,0,0,0-3.142,3.143v-10.441a2.631,2.631,0,0,0-2.628-2.628h-6.2a2.628,2.628,0,0,0-2.628,2.628v23a2.628,2.628,0,0,0,2.628,2.628h6.2a2.628,2.628,0,0,0,2.628-2.628v-5.1a3.143,3.143,0,0,0,3.142,3.142h47.168a3.143,3.143,0,0,1,6.285,0h47.168a3.142,3.142,0,0,0,3.142-3.142v5.1a2.628,2.628,0,0,0,2.628,2.628h6.2a2.628,2.628,0,0,0,2.628-2.628v-23A2.628,2.628,0,0,0,1409.857,1612.648Z" transform="translate(-1282.671 -1586.303)" fill="#2e897d"/><path d="M1423.892,1586.676a10.717,10.717,0,0,1-10.651,11.912h-38.593a4.4,4.4,0,0,0-8.8,0h-38.593a10.718,10.718,0,0,1-10.651-11.912l-1,8.525a2.625,2.625,0,0,1,1.189,2.2v10.441a3.142,3.142,0,0,1,3.142-3.142h47.168a3.143,3.143,0,0,0,6.285,0h47.168a3.142,3.142,0,0,1,3.142,3.142V1597.4a2.625,2.625,0,0,1,1.189-2.2Z" transform="translate(-1305.342 -1568.426)" fill="#1d695f"/><path d="M1425.947,1546.369l-1.717-15.308h0a2.943,2.943,0,0,0-2.943-2.943h-46.041a2.943,2.943,0,0,1-5.885,0h-46.041a2.943,2.943,0,0,0-2.943,2.943h0l-1.717,15.308a10.717,10.717,0,0,0,10.65,11.912H1367.9a4.4,4.4,0,0,1,8.8,0H1415.3A10.717,10.717,0,0,0,1425.947,1546.369Zm-76.742-2.492h-.191a2.751,2.751,0,0,0-1.021.2,2.1,2.1,0,0,1-1.54,1.524,2.749,2.749,0,0,0-.207,1.047v.191l-.191.011h-.382v-.191a2.745,2.745,0,0,0-.212-1.059,2.1,2.1,0,0,1-1.532-1.51,2.746,2.746,0,0,0-1.024-.2h-.191v-.584h.191a2.75,2.75,0,0,0,1-.191,2.1,2.1,0,0,1,1.584-1.6,2.745,2.745,0,0,0,.181-.977v-.191h.573v.191a2.75,2.75,0,0,0,.181.977,2.1,2.1,0,0,1,1.584,1.6,2.751,2.751,0,0,0,1,.191h.191Zm52.978,0h-.191a2.749,2.749,0,0,0-1.01.193,2.1,2.1,0,0,1-1.566,1.569,2.754,2.754,0,0,0-.192,1.006v.191l-.191.011h-.382v-.191a2.758,2.758,0,0,0-.2-1.018,2.1,2.1,0,0,1-1.558-1.555,2.749,2.749,0,0,0-1.013-.195h-.191v-.584h.191a2.756,2.756,0,0,0,1.013-.194,2.1,2.1,0,0,1,1.558-1.556,2.752,2.752,0,0,0,.2-1.018v-.191h.573v.191a2.752,2.752,0,0,0,.2,1.018,2.1,2.1,0,0,1,1.558,1.556,2.754,2.754,0,0,0,1.014.194h.191Z" transform="translate(-1307.397 -1528.119)" fill="#257e73"/><path d="M1401.285,1570.116a2.1,2.1,0,0,0-1.584-1.6,2.749,2.749,0,0,1-.181-.977v-.191h-.573v.191a2.749,2.749,0,0,1-.181.977,2.1,2.1,0,0,0-1.584,1.6,2.75,2.75,0,0,1-1,.191h-.191v.584h.191a2.748,2.748,0,0,1,1.024.2,2.1,2.1,0,0,0,1.533,1.51,2.752,2.752,0,0,1,.212,1.059v.191h.382l.191-.011v-.191a2.749,2.749,0,0,1,.207-1.047,2.1,2.1,0,0,0,1.54-1.523,2.752,2.752,0,0,1,1.021-.2h.191v-.573h-.191A2.752,2.752,0,0,1,1401.285,1570.116Z" transform="translate(-1360.671 -1555.122)" fill="#1d695f"/><path d="M1571.256,1570.112a2.1,2.1,0,0,0-1.558-1.556,2.748,2.748,0,0,1-.2-1.018v-.191h-.573v.191a2.748,2.748,0,0,1-.2,1.018,2.1,2.1,0,0,0-1.558,1.556,2.754,2.754,0,0,1-1.014.195h-.191v.584h.191a2.751,2.751,0,0,1,1.014.195,2.1,2.1,0,0,0,1.558,1.555,2.758,2.758,0,0,1,.2,1.018v.191h.382l.191-.011v-.191a2.754,2.754,0,0,1,.192-1.006,2.1,2.1,0,0,0,1.566-1.569,2.752,2.752,0,0,1,1.01-.193h.191v-.573h-.191A2.75,2.75,0,0,1,1571.256,1570.112Z" transform="translate(-1477.675 -1555.122)" fill="#1d695f"/></g><path d="M1732.495,1503.389h-11.017v-69.878l9.38-7.019a1.171,1.171,0,0,0,.236-1.639l-.176-.236a1.171,1.171,0,0,0-1.639-.236l-7.8,5.837v-26.289a1.57,1.57,0,0,0-3.14,0v19.1l-7.5-5.612a1.171,1.171,0,0,0-1.639.236l-.176.236a1.17,1.17,0,0,0,.236,1.639l9.078,6.793v24.2l-8.269-6.188a1.17,1.17,0,0,0-1.639.236l-.177.236a1.17,1.17,0,0,0,.236,1.639l9.849,7.37v49.58h-11.017a1.727,1.727,0,0,0-1.727,1.727v1.043h28.628v-1.043A1.727,1.727,0,0,0,1732.495,1503.389Z" transform="translate(-493.475 -100.179)" fill="#4c463e"/><g transform="translate(988.681 1340.971)"><g transform="translate(2.988 38.187)"><path d="M1003.894,1652.739l-.011-.009h0a4.093,4.093,0,0,1-.538-.132,5.413,5.413,0,0,0-1.138,2.462l-3.928,29.145a.869.869,0,1,0,1.722.232l3.922-29.106a3.617,3.617,0,0,1,1.421-2.266h-.579A1.331,1.331,0,0,1,1003.894,1652.739Z" transform="translate(-998.27 -1651.584)" fill="#372621"/><path d="M1095.013,1653.9a3.617,3.617,0,0,1,1.421,2.266l3.922,29.106a.869.869,0,1,0,1.722-.232l-3.928-29.146a5.4,5.4,0,0,0-.857-2.084l-.91.089Z" transform="translate(-1064.861 -1652.417)" fill="#372621"/><path d="M1047.922,1654.794l-3.928,29.146a.869.869,0,1,0,1.722.232l3.922-29.106a3.571,3.571,0,0,1,.33-.971H1048.1A5.376,5.376,0,0,0,1047.922,1654.794Z" transform="translate(-1029.737 -1652.615)" fill="#372621"/><path d="M1147.87,1680.645l-3.925-29.119a5.41,5.41,0,0,0-.922-2.179l-2.179.214a3.615,3.615,0,0,1,1.385,2.237l3.8,28.173.031.227.1.706a.866.866,0,0,0,.292.538.854.854,0,0,0,1.138,0c.01-.009.021-.017.031-.026a.875.875,0,0,0,.261-.52v-.275C1147.873,1680.627,1147.871,1680.636,1147.87,1680.645Z" transform="translate(-1096.409 -1649.347)" fill="#372621"/></g><g transform="translate(1.25 1.55)"><path d="M1018.44,1545.763c-.4-3.742-.889-8.318-1.506-13.966l-23.663.048h-.579l1.738,13.909a8.178,8.178,0,0,1,1.218-.779C998.4,1543.478,1005.87,1540.776,1018.44,1545.763Z" transform="translate(-992.692 -1531.797)" fill="#257e73"/><path d="M1041.31,1645.9a15.6,15.6,0,0,1-1.724-.22,4.009,4.009,0,0,1-2.152-1.443,6.907,6.907,0,0,1-.857-1.418l-4.891-.116-1.709-.041-15.087.6a.859.859,0,0,0-.789,1.1l.311,1.048a1.333,1.333,0,0,0,.343.473h0l.011.009a1.331,1.331,0,0,0,.87.325h25.027l16.515-1.619v-.2Z" transform="translate(-1007.403 -1608.112)" fill="#257e73"/></g><g transform="translate(0 0)"><path d="M996.939,1565.682l-.311-1.048a.859.859,0,0,1,.789-1.1l15.087-.6,1.709.041a1.531,1.531,0,0,0-.983-.364H997.4a.235.235,0,0,1-.222-.155c-1.016-2.873-2.8-12.826-4.23-20.573a.237.237,0,0,0-.353-.159c-.256.149-.459.28-.609.382a.236.236,0,0,1-.366-.167l-1.655-13.244a.236.236,0,0,1,.234-.266.239.239,0,0,0,.225-.31c-.608-1.967-1.743-1.525-1.743.26,0,0,3.692,30.982,5.05,34.38.916,2.291,2.2,3.164,3.55,3.4A1.333,1.333,0,0,1,996.939,1565.682Z" transform="translate(-988.681 -1526.823)" fill="#ef992f"/><path d="M1096.782,1562.72a2.067,2.067,0,0,0-.7-.116h-16.778l-.011-.038c-.116-.049-.253-.286-.409-.681a17.822,17.822,0,0,1-.552-1.766l-.057-.213c-2.075-7.857-5.713-30.436-5.975-31.484-.579-2.318-1.83-1.924-1.83-.051h0c.616,5.648,1.105,10.225,1.506,13.967,1.175,10.992,2.752,19.065,2.862,19.357s.229.594.359.919c.066.165.135.319.2.469a6.915,6.915,0,0,0,.857,1.418,4.009,4.009,0,0,0,2.152,1.443,15.589,15.589,0,0,0,1.724.22l15.867-1.5,1.012-.1a.606.606,0,0,0,.444-.262A1.212,1.212,0,0,0,1096.782,1562.72Z" transform="translate(-1044.982 -1526.823)" fill="#ef992f"/></g></g></g></g></svg>