<svg xmlns="http://www.w3.org/2000/svg" width="350" height="200" viewBox="0 0 350 200"><g transform="translate(-143 -1765)"><g transform="translate(143 1765)" fill="#fff" stroke="#dcdcdc" stroke-width="1"><rect width="350" height="200" stroke="none"/><rect x="0.5" y="0.5" width="349" height="199" fill="none"/></g><g transform="translate(-1905.663 -304.516)"><g transform="translate(2119.439 2115.886)"><path d="M2208.7,2199.99l-8.206-6.529a8.283,8.283,0,0,0-5.157-1.8h-19.893a1.864,1.864,0,0,0-1.7,1.1l-1.189,2.635h-8.26a2.77,2.77,0,0,0-2.3,1.233l-1.909,2.864h15.8l3.6-.319.768-2.93a2.356,2.356,0,0,1,2.279-1.759h9.892a2.356,2.356,0,0,1,2.356,2.356v5.656Z" transform="translate(-2155.541 -2191.406)" fill="#f69312"/><path d="M2178.306,2196.4l1.9-4.744h-1.379a1.865,1.865,0,0,0-1.7,1.1l-1.189,2.635h-8.26a2.77,2.77,0,0,0-2.3,1.233l-.566.849h11.912A1.706,1.706,0,0,0,2178.306,2196.4Z" transform="translate(-2158.928 -2191.406)" fill="#1d262c"/><path d="M2275.3,2201.6h-1.015v.006a2.353,2.353,0,0,1,2.256,2.35v5.656l1.589-.285v-5.37A2.626,2.626,0,0,0,2275.3,2201.6Z" transform="translate(-2237.317 -2198.522)" fill="#070304" opacity="0.4" style="mix-blend-mode:overlay;isolation:isolate"/><path d="M2227.178,2201.6h-.687a2.792,2.792,0,0,0-2.738,1.759l-.922,2.93-.119.009v.134l1.607-.142.768-2.93a2.356,2.356,0,0,1,2.09-1.751Z" transform="translate(-2200.387 -2198.522)" fill="#070304" opacity="0.4" style="mix-blend-mode:overlay;isolation:isolate"/><path d="M2164.513,2196.916a2.639,2.639,0,0,1,2.2-1.172h7.868l1.133-2.505a1.775,1.775,0,0,1,1.618-1.043h18.95a7.9,7.9,0,0,1,3.937,1.052,8.283,8.283,0,0,0-4.877-1.588h-19.893a1.864,1.864,0,0,0-1.7,1.1l-1.189,2.635h-8.26a2.77,2.77,0,0,0-2.3,1.233l-1.909,2.864h2.712Z" transform="translate(-2155.541 -2191.406)" fill="#fff" opacity="0.4" style="mix-blend-mode:overlay;isolation:isolate"/><path d="M2204.368,2220.265a3.449,3.449,0,0,0-3.2-2.155h-47.516a3.449,3.449,0,0,0-3.2,2.155l-.949,2.345v27.11l1.457,3.553a2.5,2.5,0,0,0,2.317,1.554h48.26a2.5,2.5,0,0,0,2.317-1.554l1.457-3.553v-27.11Z" transform="translate(-2147.97 -2210.345)" fill="#f69312"/><circle cx="0.901" cy="0.901" r="0.901" transform="translate(50.654 41.848)" fill="#e35916"/><circle cx="0.901" cy="0.901" r="0.901" transform="translate(33.686 41.848)" fill="#e35916"/><circle cx="0.901" cy="0.901" r="0.901" transform="matrix(0.16, -0.987, 0.987, 0.16, 6.297, 43.494)" fill="#e35916"/><path d="M2227.388,2339.934a.9.9,0,1,1,.9-.9A.9.9,0,0,1,2227.388,2339.934Z" transform="translate(-2203.089 -2296.285)" fill="#e35916"/><path d="M2149.6,2253.274l-1.314-3.553-1.137-1.666a1.473,1.473,0,0,1-.251-.829h0a1.439,1.439,0,0,1,.432-1.042l.523-.5a1.441,1.441,0,0,0,.432-1.042v-16.958a1.441,1.441,0,0,0-.432-1.042l-.523-.5a1.439,1.439,0,0,1-.432-1.042,1.473,1.473,0,0,1,.251-.829l1.137-1.666h0l.856-2.345a3.13,3.13,0,0,1,2.884-2.155h-2.254a3.449,3.449,0,0,0-3.2,2.155l-.949,2.345h0l-1.26,1.666a1.373,1.373,0,0,0,.2,1.871l.58.5a1.373,1.373,0,0,1,.479,1.042v16.958a1.373,1.373,0,0,1-.479,1.042l-.58.5a1.372,1.372,0,0,0-.479,1.042h0a1.372,1.372,0,0,0,.278.829l1.26,1.666,1.457,3.553a2.5,2.5,0,0,0,2.317,1.554h2.29A2.271,2.271,0,0,1,2149.6,2253.274Z" transform="translate(-2144.091 -2210.345)" fill="#fff" opacity="0.4" style="mix-blend-mode:overlay;isolation:isolate"/><path d="M2177.913,2332.381h-1c-19.028,0-27.4-2.953-27.4-2.953l1.457,3.553a2.5,2.5,0,0,0,2.317,1.555h48.26a2.5,2.5,0,0,0,2.317-1.555l1.457-3.553S2196.941,2332.381,2177.913,2332.381Z" transform="translate(-2147.97 -2290.052)" fill="#070304" opacity="0.4" style="mix-blend-mode:overlay;isolation:isolate"/><path d="M2250,2272.063q.352,0,.352-.5v-.528h.476a1.1,1.1,0,0,0,.789-.276,1.024,1.024,0,0,0,.289-.777.991.991,0,0,0-.319-.785,1.184,1.184,0,0,0-.815-.267h-.636a.522.522,0,0,0-.382.11.553.553,0,0,0-.106.386v2.136Q2249.644,2272.063,2250,2272.063Zm.352-2.483h.305q.484,0,.484.4t-.484.412h-.305Zm5.786-.145a.95.95,0,0,1-.025-.216.3.3,0,0,1,.1-.237.373.373,0,0,1,.255-.089.324.324,0,0,1,.339.305l.374,1.97.514-1.979a.4.4,0,0,1,.777.009l.505,1.97.369-1.923q.068-.352.357-.352a.356.356,0,0,1,.25.089.306.306,0,0,1,.1.237.852.852,0,0,1-.025.208l-.539,2.171a.838.838,0,0,1-.149.343.424.424,0,0,1-.339.123.456.456,0,0,1-.471-.391l-.464-1.775-.437,1.737a.5.5,0,0,1-.509.429q-.378,0-.484-.467Zm4.733,2.5a.459.459,0,0,1-.106-.354v-2.157a.555.555,0,0,1,.106-.386.522.522,0,0,1,.382-.11h.794q.5,0,.5.331t-.5.327h-.577v.552h.5q.5,0,.5.325t-.5.325h-.5v.59h.6q.5,0,.5.325t-.5.324h-.823A.584.584,0,0,1,2260.868,2271.938Zm2.87.125q.352,0,.352-.5v-.762l.824,1.036a.532.532,0,0,0,.378.251.33.33,0,0,0,.24-.093.319.319,0,0,0,.1-.238.664.664,0,0,0-.208-.4l-.556-.62a.889.889,0,0,0,.541-.273.807.807,0,0,0,.2-.563.86.86,0,0,0-.357-.747,1.4,1.4,0,0,0-.823-.22h-.548a.521.521,0,0,0-.382.11.552.552,0,0,0-.106.386v2.136Q2263.386,2272.063,2263.738,2272.063Zm.352-2.483h.335q.441,0,.442.369,0,.386-.45.386h-.327Zm-11.139,2.03a1.83,1.83,0,0,1,0-2.259,1.38,1.38,0,0,1,1.091-.458,1.733,1.733,0,0,1,.421.05l-1.084,1.3a.321.321,0,0,0,.064.469l.091.063a.321.321,0,0,1,.109.4l-.332.725A1.3,1.3,0,0,1,2252.951,2271.609Zm1.481-1.839.372-.695a1.3,1.3,0,0,1,.333.27,1.843,1.843,0,0,1,0,2.268,1.4,1.4,0,0,1-1.1.449,1.657,1.657,0,0,1-.521-.08l1.063-1.348a.321.321,0,0,0-.061-.457A.32.32,0,0,1,2254.432,2269.77Zm11.17,3.119a.325.325,0,0,1-.325.325h-15.294a.325.325,0,1,1,0-.649h15.294A.325.325,0,0,1,2265.6,2272.889Z" transform="translate(-2219.67 -2246.706)" fill="#1d262c"/><g transform="translate(9.003 0)"><path d="M2183.269,2199.284v-1.563a.611.611,0,0,0-.6-.626h-6.282a.611.611,0,0,0-.6.626v1.563Z" transform="translate(-2175.796 -2195.296)" fill="#1d262c"/><path d="M2183.314,2197.535a.6.6,0,0,0-.566-.441h-6.282a.6.6,0,0,0-.566.441Z" transform="translate(-2175.87 -2195.296)" fill="#fff" opacity="0.3" style="mix-blend-mode:overlay;isolation:isolate"/><path d="M2185.307,2192.562v-1.283c0-.284-.171-.514-.382-.514h-4.031c-.211,0-.382.23-.382.514v1.283Z" transform="translate(-2179.173 -2190.764)" fill="#1d262c"/><path d="M2185.336,2191.126a.415.415,0,0,0-.363-.362h-4.03a.415.415,0,0,0-.363.362Z" transform="translate(-2179.221 -2190.764)" fill="#fff" opacity="0.3" style="mix-blend-mode:overlay;isolation:isolate"/><path d="M2190.678,2199.84v-1.684a.271.271,0,1,0-.542,0v1.684Z" transform="translate(-2186.064 -2195.853)" fill="#070304" opacity="0.3" style="mix-blend-mode:overlay;isolation:isolate"/><path d="M2194.95,2199.84v-1.684a.271.271,0,1,0-.542,0v1.684Z" transform="translate(-2189.123 -2195.853)" fill="#070304" opacity="0.3" style="mix-blend-mode:overlay;isolation:isolate"/><path d="M2199.222,2199.84v-1.684a.271.271,0,1,0-.541,0v1.684Z" transform="translate(-2192.182 -2195.853)" fill="#070304" opacity="0.3" style="mix-blend-mode:overlay;isolation:isolate"/><path d="M2186.406,2199.84v-1.684a.271.271,0,1,0-.542,0v1.684Z" transform="translate(-2183.006 -2195.853)" fill="#070304" opacity="0.3" style="mix-blend-mode:overlay;isolation:isolate"/><path d="M2177.863,2199.84v-1.684a.271.271,0,1,0-.541,0v1.684Z" transform="translate(-2176.889 -2195.853)" fill="#070304" opacity="0.3" style="mix-blend-mode:overlay;isolation:isolate"/><path d="M2182.135,2199.84v-1.684a.271.271,0,1,0-.542,0v1.684Z" transform="translate(-2179.947 -2195.853)" fill="#070304" opacity="0.3" style="mix-blend-mode:overlay;isolation:isolate"/></g><path d="M2173.443,2321.19h-5.98a.592.592,0,0,0,0,1.185h5.98a.592.592,0,0,0,0-1.185Z" transform="translate(-2160.402 -2284.153)" fill="#e35916"/><path d="M2173.443,2306.509h-5.98a.592.592,0,0,0,0,1.184h5.98a.592.592,0,0,0,0-1.184Z" transform="translate(-2160.402 -2273.641)" fill="#e35916"/><path d="M2173.443,2299.168h-5.98a.592.592,0,0,0,0,1.185h5.98a.592.592,0,0,0,0-1.185Z" transform="translate(-2160.402 -2268.385)" fill="#e35916"/><path d="M2173.443,2313.85h-5.98a.592.592,0,0,0,0,1.184h5.98a.592.592,0,0,0,0-1.184Z" transform="translate(-2160.402 -2278.897)" fill="#e35916"/><g transform="translate(44.211 44.464)"><path d="M2305.152,2350.163h0a1.025,1.025,0,0,0-1.025-1.025h-3.321a1.025,1.025,0,0,0-1.025,1.025h0a.507.507,0,0,0,.507.507h4.357A.507.507,0,0,0,2305.152,2350.163Z" transform="translate(-2299.78 -2348.629)" fill="#1d262c"/><rect width="1.393" height="0.509" transform="translate(1.989)" fill="#2d3f4d"/></g><path d="M2304.325,2340.894h-6.459a3.31,3.31,0,0,1,6.459,0Z" transform="translate(-2254.198 -2296.411)" fill="#070304" opacity="0.4" style="mix-blend-mode:overlay;isolation:isolate"/><path d="M2337.6,2233.959l-1.8,1.656a4.758,4.758,0,0,0-1.541,3.506v16.643a4.759,4.759,0,0,0,1.4,3.375l1.942,1.93Z" transform="translate(-2280.253 -2221.693)" fill="#1d262c"/><path d="M2338.982,2249.848a.679.679,0,0,1,.679-.679h1.324v1.358h-1.324A.679.679,0,0,1,2338.982,2249.848Zm.679-1.574h1.324v-1.359h-1.324a.679.679,0,0,0,0,1.359Zm0,4.507h1.324v-1.359h-1.324a.679.679,0,0,0,0,1.359Zm0-6.76h1.324v-1.358h-1.324a.679.679,0,0,0,0,1.358Zm1.324,18.921h-1.324a.679.679,0,0,0,0,1.359h1.324Zm-1.324-3.148h1.324v-1.358h-1.324a.679.679,0,1,0,0,1.358Zm0-6.76h1.324v-1.358h-1.324a.679.679,0,0,0,0,1.358Zm0,9.014h1.324v-1.359h-1.324a.679.679,0,0,0,0,1.359Zm0-4.507h1.324v-1.358h-1.324a.679.679,0,1,0,0,1.358Zm0-2.253h1.324v-1.358h-1.324a.679.679,0,0,0,0,1.358Z" transform="translate(-2283.639 -2229.357)" fill="#131719"/><g transform="translate(9.302 44.464)"><path d="M2176.849,2350.163h0a1.026,1.026,0,0,1,1.025-1.025h3.321a1.026,1.026,0,0,1,1.025,1.025h0a.507.507,0,0,1-.507.507h-4.358A.507.507,0,0,1,2176.849,2350.163Z" transform="translate(-2176.849 -2348.629)" fill="#1d262c"/><rect width="1.393" height="0.509" transform="translate(3.383 0.509) rotate(180)" fill="#2d3f4d"/></g><path d="M2174.936,2340.894h6.458a3.309,3.309,0,0,0-6.458,0Z" transform="translate(-2166.177 -2296.411)" fill="#fff" opacity="0.4" style="mix-blend-mode:overlay;isolation:isolate"/><path d="M2204.368,2220.265a3.449,3.449,0,0,0-3.2-2.155h-47.516a3.449,3.449,0,0,0-3.2,2.155l-.949,2.345s8.376-2.953,27.4-2.953h1c19.028,0,27.4,2.953,27.4,2.953Z" transform="translate(-2147.97 -2210.345)" fill="#fff" opacity="0.4" style="mix-blend-mode:overlay;isolation:isolate"/><path d="M2147.434,2235.615l-1.8-1.656-1.26,1.666a1.372,1.372,0,0,0-.278.829h0a1.373,1.373,0,0,0,.479,1.042l.58.5a1.373,1.373,0,0,1,.479,1.042v16.958a1.374,1.374,0,0,1-.479,1.042l-.58.5a1.373,1.373,0,0,0-.479,1.042h0a1.372,1.372,0,0,0,.278.829l1.26,1.666,1.942-1.93a4.758,4.758,0,0,0,1.4-3.375v-16.643A4.759,4.759,0,0,0,2147.434,2235.615Z" transform="translate(-2144.091 -2221.693)" fill="#1d262c"/><path d="M2145.417,2259.4a1.657,1.657,0,0,1-.215-.829h0a1.568,1.568,0,0,1,.371-1.042l.448-.5a1.568,1.568,0,0,0,.37-1.042v-16.958a1.567,1.567,0,0,0-.37-1.042l-.448-.5a1.568,1.568,0,0,1-.371-1.042,1.652,1.652,0,0,1,.215-.829l.708-1.211-.5-.455-1.26,1.666a1.373,1.373,0,0,0,.2,1.871l.58.5a1.372,1.372,0,0,1,.479,1.042v16.958a1.373,1.373,0,0,1-.479,1.042l-.58.5a1.372,1.372,0,0,0-.479,1.042h0a1.374,1.374,0,0,0,.278.829l1.26,1.666.482-.479Z" transform="translate(-2144.091 -2221.693)" fill="#fff" opacity="0.4" style="mix-blend-mode:overlay;isolation:isolate"/><path d="M2328.57,2220.265a3.449,3.449,0,0,0-3.2-2.155h-2.4a3.129,3.129,0,0,1,2.884,2.155l.856,2.345v27.11l-1.314,3.553a2.271,2.271,0,0,1-2.09,1.554h2.441a2.5,2.5,0,0,0,2.317-1.554l1.457-3.553v-27.11Z" transform="translate(-2272.172 -2210.345)" fill="#070304" opacity="0.4" style="mix-blend-mode:overlay;isolation:isolate"/><g transform="translate(17.086 12.363)"><rect width="6.707" height="14.283" rx="3.354" fill="#070304" opacity="0.4" style="mix-blend-mode:overlay;isolation:isolate"/><g transform="translate(0.704 0.75)"><g transform="translate(0 3.743)"><path d="M2207.614,2250.125a.875.875,0,1,0,.875.875A.875.875,0,0,0,2207.614,2250.125Z" transform="translate(-2206.739 -2250.125)" fill="#131719"/><path d="M2220.112,2250.125a.875.875,0,1,0,.874.875A.875.875,0,0,0,2220.112,2250.125Z" transform="translate(-2215.688 -2250.125)" fill="#c41f1d"/><circle cx="0.472" cy="0.472" r="0.472" transform="translate(3.951 0.402)" fill="#f69312"/><circle cx="0.472" cy="0.472" r="0.472" transform="translate(0.402 0.402)" fill="#f69312"/></g><rect width="5.005" height="2.563" transform="translate(0.147)" fill="#131719"/><path d="M2210.772,2240.238H2210a.139.139,0,0,1-.139-.139v-1.324a.14.14,0,0,1,.139-.139h.771a.14.14,0,0,1,.139.139v1.324A.139.139,0,0,1,2210.772,2240.238Zm-.631-.279h.492v-1.046h-.492Zm3.246.139a.14.14,0,0,0-.139-.139h-.631v-.383h.631a.14.14,0,0,0,.139-.139v-.662a.14.14,0,0,0-.139-.139h-.827a.139.139,0,0,0,0,.279h.688v.384h-.631a.139.139,0,0,0-.14.139v.662a.14.14,0,0,0,.14.139h.77A.139.139,0,0,0,2213.387,2240.1Zm-1.3,0v-1.324a.139.139,0,1,0-.279,0v1.324a.139.139,0,0,0,.279,0Z" transform="translate(-2208.975 -2238.155)" fill="#7a881b"/></g><g transform="translate(0.699 7.176)"><rect width="5.309" height="5.309" rx="0.953" transform="translate(0 1.24)" fill="#004d9e"/><rect width="2.786" height="3.554" transform="translate(1.261)" fill="#003e75"/><path d="M2207.771,2264.654a.38.38,0,1,0,.38.38A.38.38,0,0,0,2207.771,2264.654Z" transform="translate(-2207.2 -2263.21)" fill="#1d262c"/><path d="M2222.447,2264.654a.38.38,0,1,1-.38.38A.38.38,0,0,1,2222.447,2264.654Z" transform="translate(-2217.709 -2263.21)" fill="#1d262c"/><path d="M2222.447,2280a.38.38,0,1,0-.38-.38A.38.38,0,0,0,2222.447,2280Z" transform="translate(-2217.709 -2273.652)" fill="#1d262c"/><path d="M2207.771,2280a.38.38,0,1,1,.38-.38A.38.38,0,0,1,2207.771,2280Z" transform="translate(-2207.2 -2273.652)" fill="#1d262c"/><rect width="1.865" height="5.858" rx="0.932" transform="translate(1.722 0.476)" fill="#0064b1"/><circle cx="2.238" cy="2.238" r="2.238" transform="translate(0.043 2.107) rotate(-10.625)" fill="#0064b1"/></g></g><g transform="translate(7.41 12.222)"><path d="M2173.424,2233.8a3.24,3.24,0,0,0-3.24,3.24v7.944a3.24,3.24,0,1,0,6.48,0v-7.944A3.24,3.24,0,0,0,2173.424,2233.8Z" transform="translate(-2170.184 -2233.805)" fill="#e35916"/><path d="M2171.244,2246.287v-7.944a3.236,3.236,0,0,1,5.134-2.625,3.239,3.239,0,0,0-6.194,1.327v7.944a3.234,3.234,0,0,0,1.346,2.625A3.228,3.228,0,0,1,2171.244,2246.287Z" transform="translate(-2170.184 -2233.805)" fill="#070304" opacity="0.3" style="mix-blend-mode:overlay;isolation:isolate"/><circle cx="2.18" cy="2.18" r="2.18" transform="translate(1.06 9.232)" fill="#131719"/><path d="M2174.887,2267.285a2.158,2.158,0,0,0-.471.706.48.48,0,0,0,.286.63l1.232.44,1.294,1.294a.526.526,0,0,0,.738.016l0,0,0,0a.527.527,0,0,0-.016-.738l-1.294-1.294-.44-1.232a.48.48,0,0,0-.631-.286A2.161,2.161,0,0,0,2174.887,2267.285Z" transform="translate(-2173.189 -2257.416)" fill="#1d262c"/><ellipse cx="1.631" cy="3.795" rx="1.631" ry="3.795" transform="translate(1.609 0.743)" fill="#1d262c"/></g><path d="M2167.635,2221.047a.9.9,0,1,0,.9.9A.9.9,0,0,0,2167.635,2221.047Z" transform="translate(-2160.304 -2212.448)" fill="#e35916"/><path d="M2227.388,2221.047a.9.9,0,1,0,.9.9A.9.9,0,0,0,2227.388,2221.047Z" transform="translate(-2203.089 -2212.448)" fill="#e35916"/><path d="M2323.369,2221.047a.9.9,0,1,1-.9.9A.9.9,0,0,1,2323.369,2221.047Z" transform="translate(-2271.814 -2212.448)" fill="#e35916"/><path d="M2289.17,2198.028a.549.549,0,1,1-.549.55A.55.55,0,0,1,2289.17,2198.028Z" transform="translate(-2247.579 -2195.965)" fill="#e35916"/><path d="M2221.328,2198.028a.549.549,0,1,1-.55.55A.55.55,0,0,1,2221.328,2198.028Z" transform="translate(-2199.001 -2195.965)" fill="#e35916"/><circle cx="0.901" cy="0.901" r="0.901" transform="translate(50.654 24.554)" fill="#e35916"/><circle cx="1.533" cy="1.533" r="1.533" transform="translate(36.591 33.157)" fill="#e35916"/><circle cx="0.836" cy="0.836" r="0.836" transform="translate(37.289 33.855)" fill="#1d262c"/><circle cx="0.901" cy="0.901" r="0.901" transform="translate(17.275 32.428) rotate(-76.718)" fill="#e35916"/><path d="M2263.616,2221.047a.9.9,0,1,1-.9.9A.9.9,0,0,1,2263.616,2221.047Z" transform="translate(-2229.03 -2212.448)" fill="#e35916"/><path d="M2243.743,2248.98H2257.8a3.914,3.914,0,0,0,3.91-3.91V2218.11h-.714v26.961a3.2,3.2,0,0,1-3.2,3.2h-14.053a3.2,3.2,0,0,1-3.2-3.2V2218.11h-.715v26.961A3.914,3.914,0,0,0,2243.743,2248.98Z" transform="translate(-2212.645 -2210.345)" fill="#070304" opacity="0.4" style="mix-blend-mode:overlay;isolation:isolate"/><path d="M2291.824,2244.1h-5.98a.592.592,0,0,0,0,1.185h5.98a.592.592,0,1,0,0-1.185Z" transform="translate(-2245.167 -2228.953)" fill="#e35916"/><path d="M2291.824,2236.758h-5.98a.592.592,0,0,0,0,1.184h5.98a.592.592,0,1,0,0-1.184Z" transform="translate(-2245.167 -2223.697)" fill="#e35916"/><path d="M2291.824,2229.417h-5.98a.592.592,0,0,0,0,1.184h5.98a.592.592,0,1,0,0-1.184Z" transform="translate(-2245.167 -2218.441)" fill="#e35916"/><path d="M2271.154,2191.66h.714v2.823h-.714Zm13.466,5.458H2274.3v.714h11.217Z" transform="translate(-2235.072 -2191.406)" fill="#070304" opacity="0.4" style="mix-blend-mode:overlay;isolation:isolate"/></g><g transform="translate(2223.14 2086.191)"><g transform="translate(72.244 71.134)"><path d="M2791.344,2352.484c-.687,0-4.541-1.365-25.013-8.275a3.85,3.85,0,0,1-2.437-4.905,3.929,3.929,0,0,1,4.975-2.4l21.514,7.262C2794.834,2345.666,2792.513,2352.484,2791.344,2352.484Z" transform="translate(-2763.681 -2336.69)" fill="#156052"/></g><g transform="translate(0.718 0)"><path d="M2584.171,2165.422a1.387,1.387,0,0,1-1.1-.56l-30.692-39.935-10.955-3.245a1.473,1.473,0,0,1-.917-.832l-13.768-31.147-13.021,5.018a1.406,1.406,0,0,1-1.831-.956,1.607,1.607,0,0,1,.875-2l14.234-5.485a1.391,1.391,0,0,1,1.77.8l14.042,31.767,10.757,3.186a1.426,1.426,0,0,1,.724.5l30.981,40.312a1.667,1.667,0,0,1-.177,2.208A1.355,1.355,0,0,1,2584.171,2165.422Z" transform="translate(-2511.804 -2086.191)" fill="#454645"/></g><g transform="translate(1.615 0.98)"><path d="M2586.433,2166.912a.519.519,0,0,1-.412-.21l-30.874-40.171-11.226-3.325a.551.551,0,0,1-.344-.311l-14.117-31.937-13.779,5.31a.527.527,0,0,1-.687-.358.6.6,0,0,1,.328-.75l14.234-5.485a.522.522,0,0,1,.664.3l14.219,32.169,11.152,3.3a.533.533,0,0,1,.271.189l30.981,40.312a.625.625,0,0,1-.066.828A.509.509,0,0,1,2586.433,2166.912Z" transform="translate(-2514.963 -2089.641)" fill="#8c8b8b"/></g><g transform="translate(57.52 74.507)"><path d="M9.716,0h2.958a0,0,0,0,1,0,0V22.724a0,0,0,0,1,0,0H2.818A2.818,2.818,0,0,1,0,19.907V9.716A9.716,9.716,0,0,1,9.716,0Z" transform="translate(2.388)" fill="#2e2e2d"/><g transform="translate(0 5.183)"><path d="M2711.832,2402.755v.2a2.121,2.121,0,0,0,2.022,2.208h10.652v-4.416H2713.67A1.928,1.928,0,0,0,2711.832,2402.755Z" transform="translate(-2711.832 -2391.114)" fill="#454645"/><path d="M2713.67,2366.822a1.928,1.928,0,0,0-1.838,2.007v.2a2.121,2.121,0,0,0,2.022,2.208h10.652v-4.416Z" transform="translate(-2711.832 -2366.822)" fill="#454645"/></g></g><g transform="translate(65.35 69.218)"><ellipse cx="14.712" cy="16.064" rx="14.712" ry="16.064" fill="#151413"/><ellipse cx="10.944" cy="11.95" rx="10.944" ry="11.95" transform="translate(3.768 4.114)" fill="#a9a8a7"/><ellipse cx="5.203" cy="5.681" rx="5.203" ry="5.681" transform="translate(9.509 10.383)" fill="#151614"/><g transform="translate(4.486 4.898)"><g transform="translate(9.868)"><path d="M2790.311,2351.843a.376.376,0,0,1-.359-.392v-3.869a.36.36,0,1,1,.718,0v3.869A.376.376,0,0,1,2790.311,2351.843Z" transform="translate(-2789.952 -2347.19)" fill="#5e5c5c"/></g><g transform="translate(6.091 0.819)"><path d="M2778.368,2354.434a.361.361,0,0,1-.332-.242l-1.356-3.575a.405.405,0,0,1,.194-.512.349.349,0,0,1,.469.212l1.356,3.575a.405.405,0,0,1-.194.512A.326.326,0,0,1,2778.368,2354.434Z" transform="translate(-2776.652 -2350.075)" fill="#5e5c5c"/></g><g transform="translate(0.751 6.65)"><path d="M2761.479,2372.874a.328.328,0,0,1-.137-.03l-3.274-1.481a.406.406,0,0,1-.194-.512.348.348,0,0,1,.469-.212l3.274,1.48a.406.406,0,0,1,.194.512A.36.36,0,0,1,2761.479,2372.874Z" transform="translate(-2757.846 -2370.609)" fill="#5e5c5c"/></g><g transform="translate(0 10.774)"><path d="M2759.105,2385.916h-3.544a.393.393,0,0,1,0-.783h3.544a.393.393,0,0,1,0,.783Z" transform="translate(-2755.203 -2385.132)" fill="#5e5c5c"/></g><g transform="translate(0.751 13.416)"><path d="M2758.205,2396.7a.36.36,0,0,1-.332-.242.406.406,0,0,1,.194-.512l3.274-1.481a.348.348,0,0,1,.469.212.405.405,0,0,1-.194.512l-3.274,1.481A.328.328,0,0,1,2758.205,2396.7Z" transform="translate(-2757.846 -2394.436)" fill="#5e5c5c"/></g><g transform="translate(2.89 15.658)"><path d="M2765.737,2405.847a.342.342,0,0,1-.254-.115.417.417,0,0,1,0-.554l2.506-2.736a.338.338,0,0,1,.507,0,.417.417,0,0,1,0,.554l-2.506,2.736A.344.344,0,0,1,2765.737,2405.847Z" transform="translate(-2765.378 -2402.328)" fill="#5e5c5c"/></g><g transform="translate(6.091 17.153)"><path d="M2777.011,2411.955a.325.325,0,0,1-.137-.03.405.405,0,0,1-.194-.512l1.356-3.574a.349.349,0,0,1,.469-.212.406.406,0,0,1,.194.512l-1.356,3.574A.36.36,0,0,1,2777.011,2411.955Z" transform="translate(-2776.652 -2407.596)" fill="#5e5c5c"/></g><g transform="translate(9.868 17.68)"><path d="M2790.311,2414.1a.376.376,0,0,1-.359-.392v-3.869a.36.36,0,1,1,.718,0v3.869A.376.376,0,0,1,2790.311,2414.1Z" transform="translate(-2789.952 -2409.449)" fill="#5e5c5c"/></g><g transform="translate(12.288 17.154)"><path d="M2800.189,2411.956a.36.36,0,0,1-.332-.242l-1.356-3.574a.406.406,0,0,1,.194-.512.349.349,0,0,1,.469.212l1.356,3.574a.405.405,0,0,1-.194.512A.324.324,0,0,1,2800.189,2411.956Z" transform="translate(-2798.475 -2407.597)" fill="#5e5c5c"/></g><g transform="translate(14.339 15.658)"><path d="M2808.563,2405.847a.344.344,0,0,1-.254-.115L2805.8,2403a.417.417,0,0,1,0-.554.337.337,0,0,1,.507,0l2.506,2.736a.417.417,0,0,1,0,.554A.343.343,0,0,1,2808.563,2405.847Z" transform="translate(-2805.698 -2402.328)" fill="#5e5c5c"/></g><g transform="translate(15.711 13.416)"><path d="M2814.161,2396.7a.328.328,0,0,1-.137-.03l-3.273-1.481a.405.405,0,0,1-.194-.512.348.348,0,0,1,.469-.212l3.274,1.48a.407.407,0,0,1,.194.512A.361.361,0,0,1,2814.161,2396.7Z" transform="translate(-2810.529 -2394.435)" fill="#5e5c5c"/></g><g transform="translate(16.192 10.774)"><path d="M2816.126,2385.916h-3.544a.393.393,0,0,1,0-.783h3.544a.393.393,0,0,1,0,.783Z" transform="translate(-2812.224 -2385.132)" fill="#5e5c5c"/></g><g transform="translate(15.711 6.65)"><path d="M2810.887,2372.874a.36.36,0,0,1-.331-.242.405.405,0,0,1,.194-.512l3.273-1.481a.349.349,0,0,1,.469.212.406.406,0,0,1-.194.512l-3.274,1.481A.334.334,0,0,1,2810.887,2372.874Z" transform="translate(-2810.529 -2370.609)" fill="#5e5c5c"/></g><g transform="translate(14.339 3.156)"><path d="M2806.057,2361.822a.343.343,0,0,1-.253-.115.417.417,0,0,1,0-.554l2.506-2.736a.338.338,0,0,1,.508,0,.417.417,0,0,1,0,.554l-2.506,2.736A.343.343,0,0,1,2806.057,2361.822Z" transform="translate(-2805.698 -2358.303)" fill="#5e5c5c"/></g><g transform="translate(12.288 0.819)"><path d="M2798.833,2354.434a.327.327,0,0,1-.138-.03.406.406,0,0,1-.194-.512l1.356-3.575a.349.349,0,0,1,.469-.212.405.405,0,0,1,.194.512l-1.356,3.575A.361.361,0,0,1,2798.833,2354.434Z" transform="translate(-2798.475 -2350.075)" fill="#5e5c5c"/></g></g></g><g transform="translate(0 0.053)"><path d="M2511.428,2095.729a2.174,2.174,0,0,1-2.03-1.569,2.413,2.413,0,0,1,1.314-3l12.062-4.648a2.111,2.111,0,0,1,2.747,1.434,2.412,2.412,0,0,1-1.314,3l-12.062,4.648A1.988,1.988,0,0,1,2511.428,2095.729Z" transform="translate(-2509.275 -2086.378)" fill="#161715"/></g><g transform="translate(30.15 31.71)"><path d="M2626.839,2205.768l-11.389-3.373,1.127-4.538,11.389,3.373Z" transform="translate(-2615.449 -2197.857)" fill="#2e2e2d"/></g></g><g transform="translate(2154.965 2117.565)"><g transform="translate(12.286 12.764)"><path d="M2335.165,2295.191v-3h11.716a3.037,3.037,0,0,1,3.074,3h-14.79Z" transform="translate(-2328.718 -2277.832)" fill="#5f4d45"/><path d="M2335.487,2292.518l-.322-.03v2.915h14.79v-.9a2.033,2.033,0,0,0-.15-.755C2342.7,2296.462,2335.487,2292.518,2335.487,2292.518Z" transform="translate(-2328.718 -2278.044)" fill="#5f4d45" opacity="0.5" style="mix-blend-mode:multiply;isolation:isolate"/><path d="M2314.291,2241.623h0a3.129,3.129,0,0,1,3.075,2.422l3.293,14.9h-4.806l-3.35-15.159A1.8,1.8,0,0,1,2314.291,2241.623Z" transform="translate(-2312.461 -2241.623)" fill="#5f4d45"/><path d="M2320.661,2262.028l-2.111-9.55h0s1.291,8.131-.724,8.131-5.3-14.585-5.269-14.679a1.731,1.731,0,0,0-.054.939l3.35,15.159Z" transform="translate(-2312.463 -2244.707)" fill="#5f4d45" opacity="0.5" style="mix-blend-mode:multiply;isolation:isolate"/></g><g transform="translate(79.463 0)"><rect width="8.145" height="1.943" transform="translate(8.145 11.788) rotate(180)" fill="#5f4d45"/><path d="M2564.511,2196.675v2.825h-1.4a1.923,1.923,0,0,0-1.946,1.9v5.121h-2.9v-5.386a4.516,4.516,0,0,1,4.57-4.459Z" transform="translate(-2555.642 -2196.675)" fill="#5f4d45"/><path d="M2554.442,2254.171v-15.984h5.068v16.695C2557.666,2254.629,2555.981,2254.393,2554.442,2254.171Z" transform="translate(-2552.903 -2226.399)" fill="#5f4d45"/><path d="M2554.442,2238.187h5.068v.281l-3.286.825-1.212,14.96-.571-.082Z" transform="translate(-2552.903 -2226.399)" fill="#5f4d45" opacity="0.5" style="mix-blend-mode:multiply;isolation:isolate"/><path d="M2557.169,2234.885v.557h-8.145v-1.088Z" transform="translate(-2549.024 -2223.655)" fill="#5f4d45" opacity="0.5" style="mix-blend-mode:multiply;isolation:isolate"/><path d="M2558.266,2214.459v-5.386a4.353,4.353,0,0,1,.2-1.311l.907,6.7Z" transform="translate(-2555.642 -2204.614)" fill="#5f4d45" opacity="0.5" style="mix-blend-mode:multiply;isolation:isolate"/><path d="M2569.809,2203.554a8.75,8.75,0,0,1,1.967-.287v.954h-1.4a1.923,1.923,0,0,0-1.923,1.676l-.008,0A2.029,2.029,0,0,1,2569.809,2203.554Z" transform="translate(-2562.907 -2201.395)" fill="#5f4d45" opacity="0.5" style="mix-blend-mode:multiply;isolation:isolate"/></g><g transform="translate(1.78 29.948)"><path d="M2524.748,2375.4h6.154l-3.258,2.885H2484.2l-5.189-12.715h35.732a8.928,8.928,0,0,1,8.34,5.6Z" transform="translate(-2421.211 -2347.558)" fill="#717268"/><path d="M2337.276,2329.982H2292.6l-13.636-11.391-3.5-7.623v-5.416a3.458,3.458,0,0,1,3.5-3.414h30.785a3.389,3.389,0,0,1,3.138,2.06l6.864,16.455h13.72Z" transform="translate(-2275.462 -2302.138)" fill="#717268"/><path d="M2278.961,2329.33l-3.5-7.623v-4.571c0,12.369,32,17.19,37.453,19.392,4.665,1.882,19.427,2.822,23.849,2.938l.513,1.256H2292.6Z" transform="translate(-2275.462 -2312.876)" fill="#717268" opacity="0.5" style="mix-blend-mode:multiply;isolation:isolate"/><path d="M2313.7,2313.072s-11.238-5.368-28.786-6.835a30.362,30.362,0,0,0-6.885,7.251l-1.967-.427-.6-1.309v-.362l7.8-8.157,31.933,7.279,4.557,10.926h2.625l-4.065.733S2314.732,2314.562,2313.7,2313.072Z" transform="translate(-2275.462 -2302.921)" fill="#717268" opacity="0.5" style="mix-blend-mode:multiply;isolation:isolate"/><path d="M2586.5,2393.056h-24a13.925,13.925,0,0,1,24,0Z" transform="translate(-2480.991 -2362.327)" fill="#717268" opacity="0.5" style="mix-blend-mode:multiply;isolation:isolate"/><path d="M2298.909,2347.367l-13.636-11.391-1-2.171c.152-.145.31-.292.482-.441a.482.482,0,0,1,.806.365,22.082,22.082,0,0,1,5.044-3.8c.1-.173.2-.346.313-.518a3.973,3.973,0,0,1,2.1-1.627,15.053,15.053,0,0,1,1.834-.494.472.472,0,0,1,.514.7,22.576,22.576,0,0,1,6.053-.827c.087,0,.173.005.26.007.177-.1.352-.2.534-.3a4.074,4.074,0,0,1,2.65-.386,15.01,15.01,0,0,1,1.841.467.465.465,0,0,1,.088.858,22.244,22.244,0,0,1,5.886,2.368c.2,0,.408,0,.615.005a4.042,4.042,0,0,1,2.492.958,14.449,14.449,0,0,1,1.355,1.3.469.469,0,0,1-.375.786,21.661,21.661,0,0,1,3.894,4.921c.177.1.354.2.531.3a3.911,3.911,0,0,1,1.667,2.046,14.062,14.062,0,0,1,.506,1.789.478.478,0,0,1-.722.5,21.109,21.109,0,0,1,.8,4.57Z" transform="translate(-2281.773 -2319.523)" fill="#717268" opacity="0.5" style="mix-blend-mode:multiply;isolation:isolate"/><path d="M2479.013,2365.571h35.732a8.928,8.928,0,0,1,8.34,5.6l1.664,4.235h6.154l-1.008.893-6.789-.539s-1.3-7.91-17.094-7.91a130.107,130.107,0,0,0-18.99,1.193,4.329,4.329,0,0,0-3.688,5.013,18.51,18.51,0,0,0,.492,2.031l45.7.542-1.879,1.663H2484.2l-1.69-4.14h0Z" transform="translate(-2421.211 -2347.558)" fill="#717268" opacity="0.5" style="mix-blend-mode:multiply;isolation:isolate"/></g><g transform="translate(0.996 21.648)"><path d="M2273.635,2274.734h34.271a.924.924,0,0,0,.935-.913h0a.924.924,0,0,0-.935-.912h-34.271a.924.924,0,0,0-.935.912h0A.924.924,0,0,0,2273.635,2274.734Z" transform="translate(-2272.7 -2272.909)" fill="#281816"/><rect width="1.569" height="6.475" transform="translate(34.573 8.3) rotate(180)" fill="#281816"/><rect width="1.569" height="6.475" transform="translate(25.703 8.3) rotate(180)" fill="#281816"/><rect width="1.569" height="6.475" transform="translate(16.834 8.3) rotate(180)" fill="#281816"/><path d="M2288.77,2279.335l.771.783a5.194,5.194,0,0,1,1.506,3.647v2.045h-1.569v-2.4a4.333,4.333,0,0,0-1.256-3.042l-1.021-1.036Z" transform="translate(-2283.083 -2277.51)" fill="#281816"/><path d="M2273.255,2275.386h35.031a.548.548,0,0,0,.555-.542v.734a.548.548,0,0,1-.555.542h-35.031a.548.548,0,0,1-.555-.542v-.734A.548.548,0,0,0,2273.255,2275.386Z" transform="translate(-2272.7 -2274.294)" fill="#281816" style="mix-blend-mode:multiply;isolation:isolate"/><path d="M2390.493,2279.744l-.1.029a1.283,1.283,0,0,0-.921,1.139l-.319,4.9h-.232v-6.475h1.569Z" transform="translate(-2355.92 -2277.51)" fill="#281816" style="mix-blend-mode:multiply;isolation:isolate"/><path d="M2359.259,2279.744l-.1.029a1.284,1.284,0,0,0-.921,1.139l-.319,4.9h-.233v-6.475h1.569Z" transform="translate(-2333.555 -2277.51)" fill="#281816" style="mix-blend-mode:multiply;isolation:isolate"/><path d="M2328.025,2279.744l-.1.029a1.284,1.284,0,0,0-.921,1.139l-.318,4.9h-.233v-6.475h1.569Z" transform="translate(-2311.191 -2277.51)" fill="#281816" style="mix-blend-mode:multiply;isolation:isolate"/><path d="M2288.77,2279.335l.25.253s-.535.2,0,.934l.017.024a4.105,4.105,0,0,1,.845,2.447c0,1.458-.06,2.42-.09,2.817h-.313v-2.4a4.333,4.333,0,0,0-1.256-3.042l-1.021-1.036Z" transform="translate(-2283.083 -2277.51)" fill="#281816" style="mix-blend-mode:multiply;isolation:isolate"/></g><path d="M2317.886,2317.388s-3.8-8.331-5.883-11.6c0,0-13.757-6.446-34.03-8.212,0,0-4.073,3.355-8.779,10.684h4.344s2.967-5.033,6.155-7.594a131.6,131.6,0,0,1,30.681,7.24l3.71,9.479Z" transform="translate(-2269.194 -2268.925)" fill="#281816"/><g transform="translate(44.688 18.981)"><path d="M2427.932,2272.027l8.195-7.105a.79.79,0,0,0,.068-1.135h0a.838.838,0,0,0-1.163-.067l-8.194,7.105a.79.79,0,0,0-.069,1.134h0A.838.838,0,0,0,2427.932,2272.027Z" transform="translate(-2426.562 -2263.518)" fill="#281816"/><path d="M2453.685,2274.356l.213-3.5,1.212-1.05-.591,5.469Z" transform="translate(-2445.983 -2268.019)" fill="#281816"/><path d="M2437.734,2288.652l-3.59-.2-1.211,1.051,5.636.069Z" transform="translate(-2431.124 -2281.368)" fill="#281816"/><path d="M2448.9,2285.752l-5.009-5.5,1.091-.947,4.869,5.345Q2449.362,2285.179,2448.9,2285.752Z" transform="translate(-2438.974 -2274.823)" fill="#281816"/><path d="M2427.049,2273.618l-.408-.448,9.861-7.678a.464.464,0,0,1-.068.627l-8.695,7.539A.5.5,0,0,1,2427.049,2273.618Z" transform="translate(-2426.618 -2264.931)" fill="#281816" style="mix-blend-mode:multiply;isolation:isolate"/><path d="M2454.519,2275.273l-.834-.917.213-3.5,1.212-1.05-1.023,1.072v3.171Z" transform="translate(-2445.983 -2268.019)" fill="#281816" style="mix-blend-mode:multiply;isolation:isolate"/><path d="M2449.647,2284.885c-.255.281-.5.568-.742.867l-5.009-5.5,1.091-.947-.635,1.086S2448.292,2283.738,2449.647,2284.885Z" transform="translate(-2438.974 -2274.823)" fill="#281816" style="mix-blend-mode:multiply;isolation:isolate"/><path d="M2434.246,2288.622l-1.313.876,1.211-1.051,3.59.2.835.916-.966-.678Z" transform="translate(-2431.124 -2281.368)" fill="#281816" style="mix-blend-mode:multiply;isolation:isolate"/></g><g transform="translate(1.01 36.843)"><ellipse cx="22.072" cy="21.534" rx="22.072" ry="21.534" transform="translate(0.77 0.751)" fill="#281816"/><g transform="translate(8.566 8.358)"><ellipse cx="14.275" cy="13.927" rx="14.275" ry="13.927" fill="#daae09"/></g><g transform="translate(9.911 9.669)"><path d="M2320.583,2385.7a12.619,12.619,0,1,0-12.93-12.616A12.791,12.791,0,0,0,2320.583,2385.7Zm0-24.525a11.913,11.913,0,1,1-12.206,11.909A12.074,12.074,0,0,1,2320.583,2361.175Z" transform="translate(-2307.653 -2360.468)" fill="#daae09" style="mix-blend-mode:multiply;isolation:isolate"/></g><g transform="translate(13.003 12.686)"><path d="M2328.379,2390.29a9.6,9.6,0,1,0-9.838-9.6A9.732,9.732,0,0,0,2328.379,2390.29Zm0-18.491a8.895,8.895,0,1,1-9.114,8.892A9.016,9.016,0,0,1,2328.379,2371.8Z" transform="translate(-2318.541 -2371.092)" fill="#daae09" style="mix-blend-mode:multiply;isolation:isolate"/></g><path d="M2349.052,2398.206a2.72,2.72,0,1,0-2.719,2.653A2.687,2.687,0,0,0,2349.052,2398.206Z" transform="translate(-2323.491 -2375.921)" fill="#daae09" style="mix-blend-mode:multiply;isolation:isolate"/><ellipse cx="1.216" cy="1.186" rx="1.216" ry="1.186" transform="translate(21.625 16.515)" fill="#daae09" style="mix-blend-mode:multiply;isolation:isolate"/><path d="M2334.763,2395.786a1.223,1.223,0,0,0-1.532.762,1.18,1.18,0,0,0,.781,1.495,1.222,1.222,0,0,0,1.532-.762A1.181,1.181,0,0,0,2334.763,2395.786Z" transform="translate(-2316.014 -2376.046)" fill="#daae09" style="mix-blend-mode:multiply;isolation:isolate"/><path d="M2339.414,2414.262a1.168,1.168,0,0,0,.269,1.657,1.236,1.236,0,0,0,1.7-.262,1.168,1.168,0,0,0-.269-1.657A1.236,1.236,0,0,0,2339.414,2414.262Z" transform="translate(-2320.318 -2388.967)" fill="#daae09" style="mix-blend-mode:multiply;isolation:isolate"/><path d="M2358.861,2415.657a1.236,1.236,0,0,0,1.7.262,1.168,1.168,0,0,0,.269-1.657,1.236,1.236,0,0,0-1.7-.263A1.168,1.168,0,0,0,2358.861,2415.657Z" transform="translate(-2334.242 -2388.967)" fill="#daae09" style="mix-blend-mode:multiply;isolation:isolate"/><path d="M2366.229,2398.042a1.18,1.18,0,0,0,.781-1.495,1.223,1.223,0,0,0-1.532-.762,1.18,1.18,0,0,0-.781,1.495A1.223,1.223,0,0,0,2366.229,2398.042Z" transform="translate(-2338.544 -2376.046)" fill="#daae09" style="mix-blend-mode:multiply;isolation:isolate"/><path d="M2330.891,2332.93a22.72,22.72,0,0,1,7.126-6.054,4.074,4.074,0,0,1,2.65-.386,15.021,15.021,0,0,1,1.841.467.468.468,0,0,1,.041.886,25.884,25.884,0,0,0-8.088,5.088A27.217,27.217,0,0,0,2330.891,2332.93Z" transform="translate(-2314.381 -2326.417)" fill="#1c0808"/><path d="M2330.891,2332.93a22.72,22.72,0,0,1,7.126-6.054,4.074,4.074,0,0,1,2.65-.386,15.021,15.021,0,0,1,1.841.467.468.468,0,0,1,.041.886,25.884,25.884,0,0,0-8.088,5.088A27.217,27.217,0,0,0,2330.891,2332.93Z" transform="translate(-2314.381 -2326.417)" fill="#1c0808"/><path d="M2362.343,2341.444a23.406,23.406,0,0,1,9.275-1.767,4.044,4.044,0,0,1,2.492.958,14.509,14.509,0,0,1,1.355,1.3.472.472,0,0,1-.419.787,26.413,26.413,0,0,0-9.612.461A26.713,26.713,0,0,0,2362.343,2341.444Z" transform="translate(-2336.902 -2335.907)" fill="#1c0808"/><path d="M2391.342,2358.283a23.335,23.335,0,0,1,8.938,2.994,3.912,3.912,0,0,1,1.668,2.046,14.086,14.086,0,0,1,.506,1.789.482.482,0,0,1-.766.478,11.7,11.7,0,0,1-10.345-7.306Z" transform="translate(-2357.666 -2349.234)" fill="#1c0808"/><path d="M2410.118,2383.14a22.587,22.587,0,0,1,6.206,6.953,3.809,3.809,0,0,1,.4,2.585,14.134,14.134,0,0,1-.479,1.8.488.488,0,0,1-.908.04,11.348,11.348,0,0,1-5.215-11.375Z" transform="translate(-2371.11 -2367.032)" fill="#1c0808"/><path d="M2409.138,2413.826a21.914,21.914,0,0,1,1.811,9.049,3.839,3.839,0,0,1-.983,2.432,14.518,14.518,0,0,1-1.334,1.322.483.483,0,0,1-.807-.408,24.569,24.569,0,0,0-.472-9.378A25.763,25.763,0,0,0,2409.138,2413.826Z" transform="translate(-2369.13 -2389.005)" fill="#1c0808"/><path d="M2381.819,2442.119a21.983,21.983,0,0,1-3.069,8.72,3.971,3.971,0,0,1-2.1,1.627,15.031,15.031,0,0,1-1.833.494.474.474,0,0,1-.49-.747,24.962,24.962,0,0,0,4.4-8.352A26.808,26.808,0,0,0,2381.819,2442.119Z" transform="translate(-2345.411 -2409.263)" fill="#1c0808"/><path d="M2345.336,2460.438a22.723,22.723,0,0,1-7.127,6.054,4.074,4.074,0,0,1-2.65.386,15.065,15.065,0,0,1-1.841-.466.468.468,0,0,1-.041-.886,25.891,25.891,0,0,0,8.088-5.088A27.274,27.274,0,0,0,2345.336,2460.438Z" transform="translate(-2316.163 -2422.38)" fill="#1c0808"/><path d="M2310.623,2459.481a23.406,23.406,0,0,1-9.275,1.767,4.044,4.044,0,0,1-2.492-.958,14.661,14.661,0,0,1-1.355-1.3.472.472,0,0,1,.419-.787,26.423,26.423,0,0,0,9.612-.461A26.7,26.7,0,0,0,2310.623,2459.481Z" transform="translate(-2290.381 -2420.448)" fill="#1c0808"/><path d="M2286.987,2432.828a23.335,23.335,0,0,1-8.938-2.994,3.911,3.911,0,0,1-1.667-2.046,14.14,14.14,0,0,1-.506-1.789.482.482,0,0,1,.766-.478,26.01,26.01,0,0,0,8.56,4.29A25.747,25.747,0,0,0,2286.987,2432.828Z" transform="translate(-2274.98 -2397.307)" fill="#1c0808"/><path d="M2279.427,2397.233a22.586,22.586,0,0,1-6.206-6.953,3.806,3.806,0,0,1-.4-2.585,14.049,14.049,0,0,1,.478-1.8.488.488,0,0,1,.908-.04,11.347,11.347,0,0,1,5.215,11.374Z" transform="translate(-2272.752 -2368.771)" fill="#1c0808"/><path d="M2288.153,2363.366a21.908,21.908,0,0,1-1.811-9.049,3.838,3.838,0,0,1,.982-2.432,14.592,14.592,0,0,1,1.335-1.322.483.483,0,0,1,.807.408,24.569,24.569,0,0,0,.472,9.377A25.76,25.76,0,0,0,2288.153,2363.366Z" transform="translate(-2282.478 -2343.618)" fill="#1c0808"/><path d="M2305.412,2340.306a21.987,21.987,0,0,1,3.069-8.72,3.976,3.976,0,0,1,2.1-1.627,15.059,15.059,0,0,1,1.833-.494.474.474,0,0,1,.49.747,24.967,24.967,0,0,0-4.4,8.352A26.8,26.8,0,0,0,2305.412,2340.306Z" transform="translate(-2296.137 -2328.592)" fill="#1c0808"/><path d="M2276.6,2412.939a21.17,21.17,0,0,1-.71-3.521,23.317,23.317,0,0,0,44.343-1.537,3.813,3.813,0,0,1,.359,2.512,14.091,14.091,0,0,1-.479,1.8.485.485,0,0,1-.88.086,21.116,21.116,0,0,1-2.427,5.743c0,.2,0,.4-.005.6a3.839,3.839,0,0,1-.983,2.432,14.486,14.486,0,0,1-1.334,1.322.482.482,0,0,1-.806-.365,22.1,22.1,0,0,1-5.044,3.8c-.1.173-.2.346-.313.518a3.973,3.973,0,0,1-2.1,1.627,15.075,15.075,0,0,1-1.833.494.472.472,0,0,1-.514-.7,22.589,22.589,0,0,1-6.053.827c-.087,0-.174-.005-.26-.007-.177.1-.352.2-.535.3a4.075,4.075,0,0,1-2.65.386,15.031,15.031,0,0,1-1.841-.466.465.465,0,0,1-.088-.858,22.249,22.249,0,0,1-5.886-2.368c-.2,0-.408,0-.615,0a4.044,4.044,0,0,1-2.492-.958,14.661,14.661,0,0,1-1.355-1.3.469.469,0,0,1,.375-.787,21.686,21.686,0,0,1-3.894-4.921c-.177-.1-.354-.2-.531-.305a3.911,3.911,0,0,1-1.667-2.046,14.123,14.123,0,0,1-.506-1.789A.479.479,0,0,1,2276.6,2412.939Z" transform="translate(-2274.98 -2384.749)" fill="#281816" opacity="0.5" style="mix-blend-mode:multiply;isolation:isolate"/><path d="M2331.075,2372.229a13.886,13.886,0,0,0-27.763,0c0,.32.016.636.038.95a13.624,13.624,0,0,1-.431-3.4,14.279,14.279,0,0,1,28.55,0,13.628,13.628,0,0,1-.431,3.4C2331.06,2372.865,2331.075,2372.549,2331.075,2372.229Z" transform="translate(-2294.352 -2347.491)" fill="#daae09" opacity="0.7" style="mix-blend-mode:multiply;isolation:isolate"/><path d="M2315.412,2348.562a14.8,14.8,0,0,1,14.981,14.616,14.284,14.284,0,0,1-2.316,7.8,13.589,13.589,0,0,0,1.61-6.423,14.279,14.279,0,0,0-28.55,0,13.592,13.592,0,0,0,1.609,6.423,14.286,14.286,0,0,1-2.316-7.8A14.8,14.8,0,0,1,2315.412,2348.562Z" transform="translate(-2292.571 -2342.274)" fill="#281816" opacity="0.5" style="mix-blend-mode:multiply;isolation:isolate"/></g><g transform="translate(53.187 23.238)"><path d="M2517.654,2310.607l-.99-17.513a4.192,4.192,0,0,0-2.595-3.627c-3.375-1.4-10.452-3.782-22.584-5.428-18.222-2.472-22.083-3.3-24.738-5.533,0,0-7.24,3.179-10.257,8.83,0,0,4.841,7.133,3.26,13.811a1.738,1.738,0,0,0,1.746,2.083h37.122a8.928,8.928,0,0,1,8.34,5.6l1.664,4.235h6.653A2.351,2.351,0,0,0,2517.654,2310.607Z" transform="translate(-2456.491 -2278.506)" fill="#b11916"/><path d="M2654.453,2325.08a4.116,4.116,0,0,1,.324,1.363l.99,17.513h0s-4.563-.131-6.39-2.753l.215-14.4A7.435,7.435,0,0,1,2654.453,2325.08Z" transform="translate(-2594.603 -2311.854)" fill="#b11916" opacity="0.5" style="mix-blend-mode:multiply;isolation:isolate"/><g transform="translate(55.329 13.226)"><path d="M2651.331,2326.807a9.586,9.586,0,0,1,4.521-1.727,4.122,4.122,0,0,1,.324,1.363l.989,17.513s-2.486-.019-5.834-2.933Z" transform="translate(-2651.331 -2325.08)" fill="#281816"/><path d="M2656.217,2330.622h-4.886v-.353a6.065,6.065,0,0,1,.522-.354h4.324Z" transform="translate(-2651.331 -2328.542)" fill="#f7c4aa"/><path d="M2656.564,2352.281h-5.233v-.706h5.193Z" transform="translate(-2651.331 -2344.051)" fill="#f7c4aa"/><path d="M2656.68,2359.541h-5.35v-.706h5.31Z" transform="translate(-2651.331 -2349.249)" fill="#f7c4aa"/><path d="M2656.8,2366.8h-5.466v-.707h5.426Z" transform="translate(-2651.331 -2354.447)" fill="#f7c4aa"/><path d="M2656.913,2374.061h-5.583v-.707h5.543Z" transform="translate(-2651.331 -2359.646)" fill="#f7c4aa"/><path d="M2656.99,2380.614l.04.707h-5.055c-.211-.167-.426-.343-.644-.534v-.173Z" transform="translate(-2651.331 -2364.844)" fill="#f7c4aa"/><path d="M2652.549,2326.938c-.028.812,3.195,1.162,3.724,1.215l.2,3.57c-1.86.6-3.641,1.859-3.641,4.449a9.12,9.12,0,0,0,4.333,7.785s-2.486-.019-5.834-2.933v-14.216a9.586,9.586,0,0,1,4.521-1.727S2652.579,2326.054,2652.549,2326.938Z" transform="translate(-2651.331 -2325.08)" fill="#281816" opacity="0.5" style="mix-blend-mode:multiply;isolation:isolate"/></g><path d="M2468.071,2290.294v0a24.312,24.312,0,0,1,2.231-1.845h0a45.447,45.447,0,0,0,20.757,21.9h-2.9C2473.682,2304.579,2468.071,2290.294,2468.071,2290.294Z" transform="translate(-2464.783 -2285.624)" fill="#f7c4aa"/><path d="M2480.5,2281h0a28.851,28.851,0,0,1,2.958-1.7h0c2.687,13.8,22.248,24.5,22.248,24.5h-3.123C2488.211,2297.889,2480.5,2281,2480.5,2281Z" transform="translate(-2473.683 -2279.08)" fill="#f7c4aa"/><path d="M2643.186,2339.107h6.377a.54.54,0,0,0,.546-.586l-.208-2.109a.543.543,0,0,0-.546-.484h-6.169a1.61,1.61,0,0,0-1.629,1.589h0A1.61,1.61,0,0,0,2643.186,2339.107Z" transform="translate(-2589.004 -2319.622)" fill="#f7c4aa"/><path d="M2462.095,2322.606c.859,3.633,19.922,1.241,32.046.128s14.089,5.332,14.9,8.345,6.384,3.092,7.27,3.092,1.34-1.3,1.34-1.3h0a2.351,2.351,0,0,1-2.38,2.453h-6.653l-1.664-4.235a8.928,8.928,0,0,0-8.34-5.6H2461.5a1.738,1.738,0,0,1-1.746-2.083c1.582-6.678-3.26-13.811-3.26-13.811C2461.631,2315.183,2461.235,2318.973,2462.095,2322.606Z" transform="translate(-2456.491 -2300.771)" fill="#b11916" opacity="0.5" style="mix-blend-mode:multiply;isolation:isolate"/><path d="M2642.054,2336.875a1.614,1.614,0,0,1,.853-.822l.493-.111c.048,0,.093-.014.142-.014h6.169a.543.543,0,0,1,.546.484l.19,1.924Z" transform="translate(-2589.36 -2319.622)" fill="#f7c4aa" style="mix-blend-mode:screen;isolation:isolate"/></g><g transform="translate(83.958 53.819)"><ellipse cx="13.757" cy="13.422" rx="13.757" ry="13.422" fill="#281816"/><g transform="translate(4.435 4.327)"><ellipse cx="9.322" cy="9.095" rx="9.322" ry="9.095" fill="#daae09"/></g><g transform="translate(5.227 5.099)"><path d="M2591.789,2420.8a8.325,8.325,0,1,0-8.53-8.323A8.438,8.438,0,0,0,2591.789,2420.8Zm0-15.938a7.618,7.618,0,1,1-7.806,7.616A7.722,7.722,0,0,1,2591.789,2404.862Z" transform="translate(-2583.259 -2404.155)" fill="#daae09" style="mix-blend-mode:multiply;isolation:isolate"/></g><path d="M2608.7,2411.262h0a.7.7,0,0,1-.871.312,5.6,5.6,0,0,0-4.031,0,.7.7,0,0,1-.871-.312h0a.683.683,0,0,1,.362-.964,7.04,7.04,0,0,1,5.048,0A.682.682,0,0,1,2608.7,2411.262Z" transform="translate(-2592.055 -2403.119)" fill="#daae09" style="mix-blend-mode:multiply;isolation:isolate"/><path d="M2631.421,2428.974h0a.671.671,0,0,1-.319-.85,5.219,5.219,0,0,0,0-3.932.671.671,0,0,1,.319-.849h0a.713.713,0,0,1,.988.353,6.556,6.556,0,0,1,0,4.925A.714.714,0,0,1,2631.421,2428.974Z" transform="translate(-2612.254 -2412.737)" fill="#daae09" style="mix-blend-mode:multiply;isolation:isolate"/><path d="M2602.926,2451.144h0a.7.7,0,0,1,.871-.311,5.606,5.606,0,0,0,4.031,0,.7.7,0,0,1,.871.311h0a.682.682,0,0,1-.362.964,7.037,7.037,0,0,1-5.048,0A.683.683,0,0,1,2602.926,2451.144Z" transform="translate(-2592.055 -2432.444)" fill="#daae09" style="mix-blend-mode:multiply;isolation:isolate"/><path d="M2590.543,2423.343h0a.671.671,0,0,1,.32.849,5.219,5.219,0,0,0,0,3.932.671.671,0,0,1-.32.85h0a.714.714,0,0,1-.988-.353,6.559,6.559,0,0,1,0-4.925A.713.713,0,0,1,2590.543,2423.343Z" transform="translate(-2582.197 -2412.737)" fill="#daae09" style="mix-blend-mode:multiply;isolation:isolate"/><g transform="translate(12.264 11.965)"><path d="M2608.039,2429.788a1.494,1.494,0,1,0,1.493-1.457A1.476,1.476,0,0,0,2608.039,2429.788Z" transform="translate(-2608.039 -2428.331)" fill="#daae09" style="mix-blend-mode:multiply;isolation:isolate"/></g><g transform="translate(9.458 9.227)" style="mix-blend-mode:multiply;isolation:isolate"><path d="M2602.458,2427.08a4.2,4.2,0,1,0-4.3-4.194A4.252,4.252,0,0,0,2602.458,2427.08Zm0-7.682a3.489,3.489,0,1,1-3.575,3.488A3.536,3.536,0,0,1,2602.458,2419.4Z" transform="translate(-2598.159 -2418.692)" fill="#daae09"/></g><path d="M2578.61,2442.263a13.621,13.621,0,0,0,13.713-12.4c.026.338.044.678.044,1.022a13.761,13.761,0,0,1-27.513,0c0-.344.018-.684.044-1.022A13.621,13.621,0,0,0,2578.61,2442.263Z" transform="translate(-2564.853 -2417.463)" fill="#281816" opacity="0.5" style="mix-blend-mode:multiply;isolation:isolate"/><path d="M2598.243,2412.576a8.453,8.453,0,0,0-16.9,0,8.044,8.044,0,0,0,.432,2.591,8.884,8.884,0,0,1-1.3-4.637,9.325,9.325,0,0,1,18.644,0,8.884,8.884,0,0,1-1.3,4.637A8.044,8.044,0,0,0,2598.243,2412.576Z" transform="translate(-2576.035 -2397.107)" fill="#daae09" opacity="0.7" style="mix-blend-mode:multiply;isolation:isolate"/><path d="M2588.826,2397.234a9.589,9.589,0,0,1,9.705,9.468,9.247,9.247,0,0,1-1.245,4.638,8.871,8.871,0,0,0,.862-3.818,9.325,9.325,0,0,0-18.644,0,8.871,8.871,0,0,0,.862,3.818,9.247,9.247,0,0,1-1.245-4.638A9.589,9.589,0,0,1,2588.826,2397.234Z" transform="translate(-2575.069 -2394.1)" fill="#281816" opacity="0.5" style="mix-blend-mode:multiply;isolation:isolate"/></g><path d="M2310.374,2312.793a131.6,131.6,0,0,0-30.681-7.24c-3.187,2.561-6.155,7.594-6.155,7.594h-4.344l3.8-1.043c1.612-3.616,5.776-7.7,5.776-7.7,14.531.786,32.633,7.7,32.633,7.7.571,1.939,3.6,9.55,3.6,9.55l2.883.618h-3.8Z" transform="translate(-2269.194 -2273.809)" fill="#281816" opacity="0.5" style="mix-blend-mode:multiply;isolation:isolate"/></g><g transform="translate(2109.663 2172.427)"><g transform="translate(0 7.678)"><path d="M2133.59,2424.256l-16.854.129-.774-.258-.847.258-1.492-.129-3.96-.608v-.7l3.96-.571,1.418-.018.921.221.7-.221,16.927.018Z" transform="translate(-2109.663 -2420.812)" fill="#ebeae9"/><g transform="translate(21.514)"><rect width="7.331" height="5.673" rx="2.837" fill="#2b3036"/></g><path d="M2115.649,2423.548l-1.3.091q-.648.047-1.294.1l-1.295.1c-.432.034-.865.07-1.3.1.424-.051.854-.1,1.287-.138s.868-.079,1.3-.113.872-.063,1.307-.088S2115.224,2423.559,2115.649,2423.548Z" transform="translate(-2110.233 -2421.663)" fill="rgba(169,169,169,0.3)"/><path d="M2115.9,2427.143l-1.3-.123q-.646-.06-1.292-.116l-1.294-.11c-.432-.036-.865-.071-1.3-.11.427.018.859.043,1.293.072s.869.063,1.3.1.871.08,1.3.127S2115.475,2427.084,2115.9,2427.143Z" transform="translate(-2110.413 -2423.909)" fill="rgba(169,169,169,0.3)"/><path d="M2115.631,2425.461l-1.3.009-1.3.012-1.3.015c-.434.005-.868.011-1.3.016.427-.015.859-.025,1.293-.035s.871-.016,1.308-.021.875-.007,1.31-.007S2115.207,2425.454,2115.631,2425.461Z" transform="translate(-2110.209 -2423.026)" fill="rgba(169,169,169,0.3)"/></g><path d="M2237.278,2459.526a.5.5,0,0,0-.4.688,4.336,4.336,0,0,1,.139,2.249,5.223,5.223,0,0,1-1.208,2.1.394.394,0,0,0,.242.655h4.906v-5.692Z" transform="translate(-2199.917 -2439.746)" fill="#2b3036"/><g transform="translate(39.332 46.075)"><path d="M2271,2558.015a.222.222,0,0,1-.043-.265c.022-.04.042-.08.06-.122H2254.8l-2.064-4.058a5.672,5.672,0,0,1-3.5-1.444l-1.063,1.933,1.085.656a3.683,3.683,0,0,1,1.586,1.977l.46,1.367a1.9,1.9,0,0,0,1.8,1.295h18.4v-.132A1.686,1.686,0,0,0,2271,2558.015Z" transform="translate(-2248.171 -2552.125)" fill="#19959c"/></g><path d="M2204.5,2406.662a4.636,4.636,0,0,0-2,.456,1.845,1.845,0,0,0-1.163,1.608v.531h-.731v6.9h.731v.565a1.845,1.845,0,0,0,1.163,1.608,4.64,4.64,0,0,0,2,.456c2.9,0,5.255-2.713,5.255-6.06S2207.4,2406.662,2204.5,2406.662Z" transform="translate(-2174.778 -2401.894)" fill="#ebeae9"/><g transform="translate(29.489 14.934)"><path d="M2227.248,2452.76h4.726a1.754,1.754,0,0,0,1.647-1.15l1.841-5.013a2.513,2.513,0,0,0-.694-2.748l-.689-.609a3.1,3.1,0,0,0-2.055-.778l-18.516.241,0,.112a3.852,3.852,0,0,0,3.568,3.856l6.877.279a.217.217,0,0,1,.209.2,1.013,1.013,0,0,0,.047.242,6.84,6.84,0,0,1,.23,2.98,8.537,8.537,0,0,1-.822,2.237.86.86,0,0,0,.771,1.24h.711A2.664,2.664,0,0,1,2227.248,2452.76Z" transform="translate(-2213.507 -2442.463)" fill="#19959c"/></g><g transform="translate(29.252 0.058)"><path d="M2234.95,2392.136l1.688-2.06-15.275.325a.221.221,0,0,0-.063.011l-5.255,1.719-.012,0c-1.37.405-3.41,1.95-3.356,4.036l.013.492,18.746-2.56A5.5,5.5,0,0,0,2234.95,2392.136Z" transform="translate(-2212.675 -2390.076)" fill="#19959c"/></g><g transform="translate(29.266)"><path d="M2245.632,2441.45h-16.216l-2.064-4.059a5.668,5.668,0,0,1-3.5-1.444l.042-.076a1.723,1.723,0,0,1,1.51-.892h4.305a.218.218,0,0,0,.213-.26l-.113-3.823a13.024,13.024,0,0,0-.456-3.052,42.226,42.226,0,0,1-3.028-10.079,1.85,1.85,0,0,0-1.785-1.574,2.663,2.663,0,0,1,2.146-1.087h4.726a1.754,1.754,0,0,0,1.647-1.15l1.841-5.013a2.511,2.511,0,0,0-.694-2.747l-.69-.61a3.1,3.1,0,0,0-2.055-.779l-18.516.241-.031-1.188,1.966-1.447-.006-2.689-2.094-1-.057-2.208,18.747-2.56a5.506,5.506,0,0,0,3.514-1.966l1.688-2.06,2.018-.043h.013a3.813,3.813,0,0,1,4.021,3.844l.316,12.156a3.813,3.813,0,0,1-3.821,4.048.218.218,0,0,0-.225.239l2.466,24.608a.218.218,0,0,0,.217.2h.292a1.5,1.5,0,0,1,1.333.805l2.287,4.357A1.485,1.485,0,0,1,2245.632,2441.45Z" transform="translate(-2212.724 -2389.872)" fill="#2b3036"/></g><g transform="translate(36.544 48.008)"><path d="M2244.272,2562.932l-.46-1.367a3.681,3.681,0,0,0-1.586-1.977l-1.085-.656-1.229,2.235c-.187.34-1.559,2.147-1.559,2.928v6.862a1.909,1.909,0,0,0,1.909,1.909h22.3a1.909,1.909,0,0,0,1.909-1.909v-6.73h-18.4A1.9,1.9,0,0,1,2244.272,2562.932Z" transform="translate(-2238.353 -2558.932)" fill="#2b3036"/></g><g transform="translate(52.232 24.193)"><path d="M2293.6,2476.664l2.419,18.3s2.333-7.935-1.209-19.9Z" transform="translate(-2293.597 -2475.068)" fill="#19959c"/></g><g transform="translate(44.299 17.974)"><ellipse cx="1.75" cy="0.645" rx="1.75" ry="0.645" fill="#2b3036"/></g><path d="M2209.118,2410.683c-.026.848-.058,1.688-.074,2.528s-.022,1.678-.017,2.517.022,1.678.042,2.519.046,1.683.049,2.531a21.7,21.7,0,0,1-.4-2.509q-.128-1.264-.137-2.538a24.593,24.593,0,0,1,.113-2.541A17.382,17.382,0,0,1,2209.118,2410.683Z" transform="translate(-2180.494 -2404.773)" fill="rgba(169,169,169,0.3)"/><g transform="translate(34.629 7.825)"><ellipse cx="8.805" cy="2.192" rx="8.805" ry="2.192" fill="#19959c"/></g><ellipse cx="0.995" cy="0.184" rx="0.995" ry="0.184" transform="translate(56.364 2.594)" fill="#1a1e25"/><ellipse cx="0.995" cy="0.184" rx="0.995" ry="0.184" transform="translate(56.364 5.541)" fill="#1a1e25"/><ellipse cx="0.995" cy="0.184" rx="0.995" ry="0.184" transform="translate(56.364 8.488)" fill="#1a1e25"/><ellipse cx="0.995" cy="0.184" rx="0.995" ry="0.184" transform="translate(56.364 11.436)" fill="#1a1e25"/><ellipse cx="0.995" cy="0.184" rx="0.995" ry="0.184" transform="translate(56.364 14.383)" fill="#1a1e25"/></g><g transform="translate(2187.652 2155.733)"><g transform="translate(77.626 0)"><path d="M2675.407,2402.992l-.831-.686L2714.4,2354.1c.019-.024,2.5-3.132,4.293-5.014a9.078,9.078,0,0,1,4.021-2.518l.257,1.047a8.155,8.155,0,0,0-3.5,2.214c-1.76,1.848-4.212,4.92-4.237,4.95Z" transform="translate(-2669.772 -2342.17)" fill="#283346"/><path d="M2841.6,2343.383l.449,2.426s7.323.135,8.58.4,7.188,4.582,7.188,4.582l1.3-.944s-4.537-4.492-6.828-5.435-8.535-1.437-8.535-1.437Z" transform="translate(-2789.37 -2339.601)" fill="#df4d1d"/><path d="M2810.063,2368.553l2.516,1.887-.389.629-3.384-1.407Z" transform="translate(-2765.885 -2357.913)" fill="#191a22"/><path d="M2766.257,2420.58l2.516,1.887-.389.629-3.384-1.407Z" transform="translate(-2734.518 -2395.166)" fill="#191a22"/><path d="M2722.45,2472.607l2.516,1.887-.389.629-3.384-1.408Z" transform="translate(-2703.151 -2432.419)" fill="#191a22"/><path d="M2660.571,2390.634l-2.91-3.384,45.544-50.752a13.588,13.588,0,0,1,9.407-4.519l15.8-.892a1.437,1.437,0,0,1,1.516,1.354h0a1.437,1.437,0,0,1-1.354,1.516l-15.8.892a10.732,10.732,0,0,0-7.429,3.569Z" transform="translate(-2657.661 -2331.084)" fill="#394b6a"/></g><rect width="7.682" height="2.965" transform="translate(51.921 37.923)" fill="#df4d1d"/><path d="M2574.823,2464.629h-1.554l-.283,1.953-5.844.467v.544h7.682Z" transform="translate(-2515.22 -2426.706)" fill="#070304" opacity="0.3" style="mix-blend-mode:overlay;isolation:isolate"/><path d="M2538.77,2483.4l-.894-7.247.894-1.078h23.9l1.145,1.078-1.594,7.247Z" transform="translate(-2494.265 -2434.182)" fill="#2a2b3c"/><path d="M2538.77,2475.069l-.894,1.078.894,7.247h2.778v-6.509l22.27-.738-1.145-1.078Z" transform="translate(-2494.265 -2434.182)" fill="#fff" opacity="0.3" style="mix-blend-mode:overlay;isolation:isolate"/><path d="M2564.644,2475.069l-2.7,5.742-21.311,1.674.112.91h23.453l1.594-7.247-1.145-1.078Z" transform="translate(-2496.237 -2434.182)" fill="#070304" opacity="0.3" style="mix-blend-mode:overlay;isolation:isolate"/><path d="M2424.235,2519.042l14.451-14.655h42.526l9.352,10.5-9.232,6.42-54.138,6.834Z" transform="translate(-2412.895 -2455.175)" fill="#df4d1d"/><path d="M2438.687,2504.388l-14.451,14.654,1.4,4.316,16.091-14.068s34.14-3.684,34.378-3.945c0,0,.5-.4,1.18-.958Z" transform="translate(-2412.895 -2455.175)" fill="#fff" opacity="0.3" style="mix-blend-mode:overlay;isolation:isolate"/><path d="M2582.641,2492.118s-.977,7.5.281,10.107c2.875,1.482,14.2.943,17.049,0a39.06,39.06,0,0,0-.033-9.523S2590.94,2490.681,2582.641,2492.118Z" transform="translate(-2526.06 -2446.02)" fill="#394b6a"/><path d="M2709.356,2509c.045-.032,1.662-4.838,1.662-4.838l10.557-2.2,4.852,4.522-3.234.195-2.516-3.459-7.906,1.572-.8,4.537Z" transform="translate(-2617.05 -2453.438)" fill="#283346"/><path d="M2434.656,2533.519H2531.8l5.391-4.412,1.677-18.469-2.875-2.875-101,19.588Z" transform="translate(-2420.357 -2457.591)" fill="#394b6a"/><path d="M2435.565,2527.35l-.109,2,77.779-14.285,1.611,1.665h24.041l.553-6.089-2.875-2.875Z" transform="translate(-2420.93 -2457.591)" fill="#fff" opacity="0.3" style="mix-blend-mode:overlay;isolation:isolate"/><path d="M2598.344,2537.327a18.243,18.243,0,0,0,2.3,10.461H2627.1c3.456-5.784,1.521-12.536,1.521-12.536a16.377,16.377,0,0,0-4.674-7.561l-23.988,4.652A14.44,14.44,0,0,0,2598.344,2537.327Z" transform="translate(-2537.492 -2471.861)" fill="#070304" opacity="0.3" style="mix-blend-mode:overlay;isolation:isolate"/><path d="M2684.733,2540.583h-44.151v-1.437h44.282Zm-26.883-15.344-1.685.327,6.726,6.95h22.574l.131-1.437h-22.1Z" transform="translate(-2567.806 -2470.105)" fill="#070304" opacity="0.3" style="mix-blend-mode:overlay;isolation:isolate"/><path d="M2432.8,2560.205a12.044,12.044,0,0,0,.806-8.11,10.64,10.64,0,0,0-6.3-7.063l-3.069,3.112,2.959,9.1.163-.021-.163,2.985Z" transform="translate(-2412.895 -2484.278)" fill="#070304" opacity="0.3" style="mix-blend-mode:overlay;isolation:isolate"/><path d="M2458.041,2525.673c.27-.312,6.888-7.786,6.888-7.786h2.276l.419.3-7.487,7.487Z" transform="translate(-2437.101 -2464.841)" fill="#070304" opacity="0.3" style="mix-blend-mode:overlay;isolation:isolate"/><path d="M2477.5,2525.673c.27-.312,6.888-7.786,6.888-7.786h2.276l.419.3-7.487,7.487Z" transform="translate(-2451.034 -2464.841)" fill="#070304" opacity="0.3" style="mix-blend-mode:overlay;isolation:isolate"/><path d="M2496.957,2525.673c.27-.312,6.888-7.786,6.888-7.786h2.276l.419.3-7.487,7.487Z" transform="translate(-2464.966 -2464.841)" fill="#070304" opacity="0.3" style="mix-blend-mode:overlay;isolation:isolate"/><path d="M2434.732,2532.121l-.076,1.4H2531.8l5.391-4.412,1.677-18.469-2.875-2.875-7.529,21.2Z" transform="translate(-2420.357 -2457.591)" fill="#070304" opacity="0.3" style="mix-blend-mode:overlay;isolation:isolate"/><path d="M2597.713,2493.689a53.2,53.2,0,0,1-1.415,6.872,77.291,77.291,0,0,1-13.088,1.95,5.23,5.23,0,0,0,.378,1.209c2.875,1.482,14.2.943,17.049,0a39.06,39.06,0,0,0-.033-9.523S2599.5,2493.949,2597.713,2493.689Z" transform="translate(-2526.726 -2447.514)" fill="#070304" opacity="0.3" style="mix-blend-mode:overlay;isolation:isolate"/><g transform="translate(63.214 53.046)"><path d="M2632.47,2527.367c-1.7-5.875-7.093-10.25-13.441-9.366s-11.236,5.13-12.038,11.113,4.221,18.37,16.6,14.405S2632.47,2527.367,2632.47,2527.367Z" transform="translate(-2606.908 -2517.887)" fill="#2a2b3c"/><path d="M2632.47,2527.367c-1.7-5.875-7.093-10.25-13.441-9.366s-11.236,5.13-12.038,11.113,4.221,18.37,16.6,14.405S2632.47,2527.367,2632.47,2527.367Zm-9.571,13.784c-10.018,3.21-14.084-6.817-13.435-11.66s4.605-8.28,9.744-9,9.5,2.826,10.88,7.582C2630.088,2528.078,2632.917,2537.942,2622.9,2541.152Z" transform="translate(-2606.908 -2517.887)" fill="#070304" opacity="0.3" style="mix-blend-mode:overlay;isolation:isolate"/><path d="M2648.068,2556.307a2.251,2.251,0,0,0-2.917.521,2.408,2.408,0,0,0-.118,2.96c.662.867,2.889,1.809,3.964-.28A2.346,2.346,0,0,0,2648.068,2556.307Z" transform="translate(-2633.882 -2545.172)" fill="#df4d1d"/><path d="M2630.7,2538.673c-.759-.01-1.7-4.028-1.309-4.633a1.585,1.585,0,0,1,1.858-.593,1.481,1.481,0,0,1,.978,1.687S2631.237,2538.68,2630.7,2538.673Zm-3.9-2.562a1.481,1.481,0,0,0-1.884-.5,1.585,1.585,0,0,0-.895,1.733c.154.7,3.657,2.88,4.2,2.351C2628.6,2539.317,2626.8,2536.111,2626.8,2536.111Zm-3.148,4.53a1.481,1.481,0,0,0-1.687.978,1.585,1.585,0,0,0,.593,1.858c.6.387,4.623-.55,4.633-1.309C2627.193,2541.628,2623.647,2540.641,2623.647,2540.641Zm.977,5.429a1.481,1.481,0,0,0-.5,1.884,1.585,1.585,0,0,0,1.732.895c.7-.154,2.881-3.657,2.351-4.2C2627.829,2544.261,2624.624,2546.07,2624.624,2546.07Zm4.529,3.148a1.481,1.481,0,0,0,.978,1.687,1.585,1.585,0,0,0,1.857-.593c.388-.6-.55-4.623-1.309-4.633C2630.141,2545.672,2629.153,2549.218,2629.153,2549.218Zm5.429-.977a1.481,1.481,0,0,0,1.885.5,1.585,1.585,0,0,0,.895-1.733c-.154-.7-3.658-2.88-4.2-2.351C2632.773,2545.036,2634.582,2548.241,2634.582,2548.241Zm3.148-4.53a1.481,1.481,0,0,0,1.686-.978,1.584,1.584,0,0,0-.593-1.857c-.6-.388-4.623.55-4.633,1.308C2634.185,2542.725,2637.731,2543.712,2637.731,2543.712Zm-.977-5.429a1.482,1.482,0,0,0,.5-1.885,1.585,1.585,0,0,0-1.732-.895c-.7.154-2.88,3.658-2.351,4.2C2633.548,2540.092,2636.754,2538.283,2636.754,2538.283Z" transform="translate(-2617.624 -2528.967)" fill="#070304" opacity="0.3" style="mix-blend-mode:overlay;isolation:isolate"/></g><path d="M2402.324,2551.99c-1.2-4.143-5-7.227-9.477-6.6s-7.922,3.617-8.488,7.835,2.976,12.952,11.7,10.156S2402.324,2551.99,2402.324,2551.99Z" transform="translate(-2384.302 -2484.473)" fill="#2a2b3c"/><path d="M2398.521,2552.332a1.3,1.3,0,0,0-.861-1.485,1.4,1.4,0,0,0-1.636.522c-.341.532.484,4.071,1.152,4.079C2397.651,2555.454,2398.521,2552.332,2398.521,2552.332Zm-4.781.86a1.3,1.3,0,0,0-1.659-.441,1.4,1.4,0,0,0-.788,1.525c.135.618,3.22,2.537,3.7,2.07C2395.333,2556.014,2393.74,2553.192,2393.74,2553.192Zm-2.772,3.988a1.3,1.3,0,0,0-1.485.861,1.4,1.4,0,0,0,.521,1.635c.533.341,4.071-.484,4.08-1.152C2394.091,2558.049,2390.969,2557.18,2390.969,2557.18Zm.86,4.78a1.3,1.3,0,0,0-.441,1.659,1.4,1.4,0,0,0,1.525.787c.618-.135,2.536-3.22,2.07-3.7C2394.651,2560.367,2391.829,2561.96,2391.829,2561.96Zm3.988,2.772a1.3,1.3,0,0,0,.861,1.485,1.4,1.4,0,0,0,1.636-.522c.341-.532-.484-4.071-1.152-4.079C2396.687,2561.61,2395.817,2564.732,2395.817,2564.732Zm4.78-.86a1.3,1.3,0,0,0,1.659.441,1.4,1.4,0,0,0,.788-1.525c-.135-.618-3.22-2.536-3.7-2.07C2399,2561.05,2400.6,2563.872,2400.6,2563.872Zm2.772-3.988a1.3,1.3,0,0,0,1.485-.861,1.4,1.4,0,0,0-.522-1.635c-.533-.341-4.071.484-4.079,1.152C2400.247,2559.015,2403.369,2559.884,2403.369,2559.884Zm-.86-4.78a1.3,1.3,0,0,0,.441-1.659,1.4,1.4,0,0,0-1.525-.788c-.618.135-2.536,3.221-2.07,3.7C2399.687,2556.7,2402.509,2555.1,2402.509,2555.1Z" transform="translate(-2387.957 -2488.386)" fill="#070304" opacity="0.3" style="mix-blend-mode:overlay;isolation:isolate"/><path d="M2413.29,2573.792c-.947,1.84-2.907,1.011-3.49.247a2.119,2.119,0,0,1,.1-2.606,1.981,1.981,0,0,1,2.568-.459A2.066,2.066,0,0,1,2413.29,2573.792Z" transform="translate(-2402.272 -2502.655)" fill="#df4d1d"/><path d="M2600.078,2494.06c-.073-.833-.14-1.358-.14-1.358s-9-2.021-17.3-.584c0,0-.977,7.5.281,10.107a3.776,3.776,0,0,0,.4.172c-.25-2.387-.384-6.008.771-7.853C2586.843,2493.939,2595.552,2493.989,2600.078,2494.06Z" transform="translate(-2526.06 -2446.02)" fill="#fff" opacity="0.3" style="mix-blend-mode:overlay;isolation:isolate"/></g></g></g></svg>