<svg xmlns="http://www.w3.org/2000/svg" xmlns:xlink="http://www.w3.org/1999/xlink" width="701.183" height="45.911" viewBox="0 0 701.183 45.911"><defs><clipPath id="a"><rect width="411.821" height="6.078" fill="none"/></clipPath></defs><g transform="translate(-333.336 -3175.928)"><g transform="translate(622.698 3215.761)" clip-path="url(#a)"><g transform="translate(-15 -247.999)"><path d="M645.258,358.01a5.619,5.619,0,0,0-3.635,1.243,6.648,6.648,0,0,1-8.1,0,5.623,5.623,0,0,0-3.636-1.243s-.008-.874,0-.874a6.5,6.5,0,0,1,4.049,1.375,5.928,5.928,0,0,0,7.272,0,6.315,6.315,0,0,1,4.049-1.375Z" transform="translate(-614.884 -109.135)" fill="#eb6d4e"/></g><g transform="translate(0 -247.999)"><path d="M645.258,358.01a5.619,5.619,0,0,0-3.635,1.243,6.648,6.648,0,0,1-8.1,0,5.623,5.623,0,0,0-3.636-1.243s-.008-.874,0-.874a6.5,6.5,0,0,1,4.049,1.375,5.928,5.928,0,0,0,7.272,0,6.315,6.315,0,0,1,4.049-1.375Z" transform="translate(-614.884 -109.135)" fill="#eb6d4e"/></g><g transform="translate(15 -247.999)"><path d="M645.258,358.01a5.619,5.619,0,0,0-3.635,1.243,6.648,6.648,0,0,1-8.1,0,5.623,5.623,0,0,0-3.636-1.243s-.008-.874,0-.874a6.5,6.5,0,0,1,4.049,1.375,5.928,5.928,0,0,0,7.272,0,6.315,6.315,0,0,1,4.049-1.375Z" transform="translate(-614.884 -109.135)" fill="#eb6d4e"/></g><g transform="translate(30 -247.999)"><path d="M645.258,358.01a5.619,5.619,0,0,0-3.635,1.243,6.648,6.648,0,0,1-8.1,0,5.623,5.623,0,0,0-3.636-1.243s-.008-.874,0-.874a6.5,6.5,0,0,1,4.049,1.375,5.928,5.928,0,0,0,7.272,0,6.315,6.315,0,0,1,4.049-1.375Z" transform="translate(-614.884 -109.135)" fill="#eb6d4e"/></g><g transform="translate(45 -247.999)"><path d="M645.258,358.01a5.619,5.619,0,0,0-3.635,1.243,6.648,6.648,0,0,1-8.1,0,5.623,5.623,0,0,0-3.636-1.243s-.008-.874,0-.874a6.5,6.5,0,0,1,4.049,1.375,5.928,5.928,0,0,0,7.272,0,6.315,6.315,0,0,1,4.049-1.375Z" transform="translate(-614.884 -109.135)" fill="#eb6d4e"/></g><g transform="translate(60 -247.999)"><path d="M645.258,358.01a5.619,5.619,0,0,0-3.635,1.243,6.648,6.648,0,0,1-8.1,0,5.623,5.623,0,0,0-3.636-1.243s-.008-.874,0-.874a6.5,6.5,0,0,1,4.049,1.375,5.928,5.928,0,0,0,7.272,0,6.315,6.315,0,0,1,4.049-1.375Z" transform="translate(-614.884 -109.135)" fill="#eb6d4e"/></g><g transform="translate(75 -247.999)"><path d="M645.258,358.01a5.619,5.619,0,0,0-3.635,1.243,6.648,6.648,0,0,1-8.1,0,5.623,5.623,0,0,0-3.636-1.243s-.008-.874,0-.874a6.5,6.5,0,0,1,4.049,1.375,5.928,5.928,0,0,0,7.272,0,6.315,6.315,0,0,1,4.049-1.375Z" transform="translate(-614.884 -109.135)" fill="#eb6d4e"/></g><g transform="translate(90 -247.999)"><path d="M645.258,358.01a5.619,5.619,0,0,0-3.635,1.243,6.648,6.648,0,0,1-8.1,0,5.623,5.623,0,0,0-3.636-1.243s-.008-.874,0-.874a6.5,6.5,0,0,1,4.049,1.375,5.928,5.928,0,0,0,7.272,0,6.315,6.315,0,0,1,4.049-1.375Z" transform="translate(-614.884 -109.135)" fill="#eb6d4e"/></g><g transform="translate(105 -247.999)"><path d="M645.258,358.01a5.619,5.619,0,0,0-3.635,1.243,6.648,6.648,0,0,1-8.1,0,5.623,5.623,0,0,0-3.636-1.243s-.008-.874,0-.874a6.5,6.5,0,0,1,4.049,1.375,5.928,5.928,0,0,0,7.272,0,6.315,6.315,0,0,1,4.049-1.375Z" transform="translate(-614.884 -109.135)" fill="#eb6d4e"/></g><g transform="translate(120 -247.999)"><path d="M645.258,358.01a5.619,5.619,0,0,0-3.635,1.243,6.648,6.648,0,0,1-8.1,0,5.623,5.623,0,0,0-3.636-1.243s-.008-.874,0-.874a6.5,6.5,0,0,1,4.049,1.375,5.928,5.928,0,0,0,7.272,0,6.315,6.315,0,0,1,4.049-1.375Z" transform="translate(-614.884 -109.135)" fill="#eb6d4e"/></g><g transform="translate(135 -247.999)"><path d="M645.258,358.01a5.619,5.619,0,0,0-3.635,1.243,6.648,6.648,0,0,1-8.1,0,5.623,5.623,0,0,0-3.636-1.243s-.008-.874,0-.874a6.5,6.5,0,0,1,4.049,1.375,5.928,5.928,0,0,0,7.272,0,6.315,6.315,0,0,1,4.049-1.375Z" transform="translate(-614.884 -109.135)" fill="#eb6d4e"/></g><g transform="translate(150 -247.999)"><path d="M645.258,358.01a5.619,5.619,0,0,0-3.635,1.243,6.648,6.648,0,0,1-8.1,0,5.623,5.623,0,0,0-3.636-1.243s-.008-.874,0-.874a6.5,6.5,0,0,1,4.049,1.375,5.928,5.928,0,0,0,7.272,0,6.315,6.315,0,0,1,4.049-1.375Z" transform="translate(-614.884 -109.135)" fill="#eb6d4e"/></g><g transform="translate(165 -247.999)"><path d="M645.258,358.01a5.619,5.619,0,0,0-3.635,1.243,6.648,6.648,0,0,1-8.1,0,5.623,5.623,0,0,0-3.636-1.243s-.008-.874,0-.874a6.5,6.5,0,0,1,4.049,1.375,5.928,5.928,0,0,0,7.272,0,6.315,6.315,0,0,1,4.049-1.375Z" transform="translate(-614.884 -109.135)" fill="#eb6d4e"/></g><g transform="translate(180 -247.999)"><path d="M645.258,358.01a5.619,5.619,0,0,0-3.635,1.243,6.648,6.648,0,0,1-8.1,0,5.623,5.623,0,0,0-3.636-1.243s-.008-.874,0-.874a6.5,6.5,0,0,1,4.049,1.375,5.928,5.928,0,0,0,7.272,0,6.315,6.315,0,0,1,4.049-1.375Z" transform="translate(-614.884 -109.135)" fill="#eb6d4e"/></g><g transform="translate(195 -247.999)"><path d="M645.258,358.01a5.619,5.619,0,0,0-3.635,1.243,6.648,6.648,0,0,1-8.1,0,5.623,5.623,0,0,0-3.636-1.243s-.008-.874,0-.874a6.5,6.5,0,0,1,4.049,1.375,5.928,5.928,0,0,0,7.272,0,6.315,6.315,0,0,1,4.049-1.375Z" transform="translate(-614.884 -109.135)" fill="#eb6d4e"/></g><g transform="translate(210 -247.999)"><path d="M645.258,358.01a5.619,5.619,0,0,0-3.635,1.243,6.648,6.648,0,0,1-8.1,0,5.623,5.623,0,0,0-3.636-1.243s-.008-.874,0-.874a6.5,6.5,0,0,1,4.049,1.375,5.928,5.928,0,0,0,7.272,0,6.315,6.315,0,0,1,4.049-1.375Z" transform="translate(-614.884 -109.135)" fill="#eb6d4e"/></g><g transform="translate(225 -247.999)"><path d="M645.258,358.01a5.619,5.619,0,0,0-3.635,1.243,6.648,6.648,0,0,1-8.1,0,5.623,5.623,0,0,0-3.636-1.243s-.008-.874,0-.874a6.5,6.5,0,0,1,4.049,1.375,5.928,5.928,0,0,0,7.272,0,6.315,6.315,0,0,1,4.049-1.375Z" transform="translate(-614.884 -109.135)" fill="#eb6d4e"/></g><g transform="translate(240 -247.999)"><path d="M645.258,358.01a5.619,5.619,0,0,0-3.635,1.243,6.648,6.648,0,0,1-8.1,0,5.623,5.623,0,0,0-3.636-1.243s-.008-.874,0-.874a6.5,6.5,0,0,1,4.049,1.375,5.928,5.928,0,0,0,7.272,0,6.315,6.315,0,0,1,4.049-1.375Z" transform="translate(-614.884 -109.135)" fill="#eb6d4e"/></g><g transform="translate(255 -247.999)"><path d="M645.258,358.01a5.619,5.619,0,0,0-3.635,1.243,6.648,6.648,0,0,1-8.1,0,5.623,5.623,0,0,0-3.636-1.243s-.008-.874,0-.874a6.5,6.5,0,0,1,4.049,1.375,5.928,5.928,0,0,0,7.272,0,6.315,6.315,0,0,1,4.049-1.375Z" transform="translate(-614.884 -109.135)" fill="#eb6d4e"/></g><g transform="translate(270 -247.999)"><path d="M645.258,358.01a5.619,5.619,0,0,0-3.635,1.243,6.648,6.648,0,0,1-8.1,0,5.623,5.623,0,0,0-3.636-1.243s-.008-.874,0-.874a6.5,6.5,0,0,1,4.049,1.375,5.928,5.928,0,0,0,7.272,0,6.315,6.315,0,0,1,4.049-1.375Z" transform="translate(-614.884 -109.135)" fill="#eb6d4e"/></g><g transform="translate(285 -247.999)"><path d="M645.258,358.01a5.619,5.619,0,0,0-3.635,1.243,6.648,6.648,0,0,1-8.1,0,5.623,5.623,0,0,0-3.636-1.243s-.008-.874,0-.874a6.5,6.5,0,0,1,4.049,1.375,5.928,5.928,0,0,0,7.272,0,6.315,6.315,0,0,1,4.049-1.375Z" transform="translate(-614.884 -109.135)" fill="#eb6d4e"/></g><g transform="translate(300 -247.999)"><path d="M645.258,358.01a5.619,5.619,0,0,0-3.635,1.243,6.648,6.648,0,0,1-8.1,0,5.623,5.623,0,0,0-3.636-1.243s-.008-.874,0-.874a6.5,6.5,0,0,1,4.049,1.375,5.928,5.928,0,0,0,7.272,0,6.315,6.315,0,0,1,4.049-1.375Z" transform="translate(-614.884 -109.135)" fill="#eb6d4e"/></g><g transform="translate(315 -247.999)"><path d="M645.258,358.01a5.619,5.619,0,0,0-3.635,1.243,6.648,6.648,0,0,1-8.1,0,5.623,5.623,0,0,0-3.636-1.243s-.008-.874,0-.874a6.5,6.5,0,0,1,4.049,1.375,5.928,5.928,0,0,0,7.272,0,6.315,6.315,0,0,1,4.049-1.375Z" transform="translate(-614.884 -109.135)" fill="#eb6d4e"/></g><g transform="translate(330 -247.999)"><path d="M645.258,358.01a5.619,5.619,0,0,0-3.635,1.243,6.648,6.648,0,0,1-8.1,0,5.623,5.623,0,0,0-3.636-1.243s-.008-.874,0-.874a6.5,6.5,0,0,1,4.049,1.375,5.928,5.928,0,0,0,7.272,0,6.315,6.315,0,0,1,4.049-1.375Z" transform="translate(-614.884 -109.135)" fill="#eb6d4e"/></g><g transform="translate(345 -247.999)"><path d="M645.258,358.01a5.619,5.619,0,0,0-3.635,1.243,6.648,6.648,0,0,1-8.1,0,5.623,5.623,0,0,0-3.636-1.243s-.008-.874,0-.874a6.5,6.5,0,0,1,4.049,1.375,5.928,5.928,0,0,0,7.272,0,6.315,6.315,0,0,1,4.049-1.375Z" transform="translate(-614.884 -109.135)" fill="#eb6d4e"/></g><g transform="translate(360 -247.999)"><path d="M645.258,358.01a5.619,5.619,0,0,0-3.635,1.243,6.648,6.648,0,0,1-8.1,0,5.623,5.623,0,0,0-3.636-1.243s-.008-.874,0-.874a6.5,6.5,0,0,1,4.049,1.375,5.928,5.928,0,0,0,7.272,0,6.315,6.315,0,0,1,4.049-1.375Z" transform="translate(-614.884 -109.135)" fill="#eb6d4e"/></g><g transform="translate(375 -247.999)"><path d="M645.258,358.01a5.619,5.619,0,0,0-3.635,1.243,6.648,6.648,0,0,1-8.1,0,5.623,5.623,0,0,0-3.636-1.243s-.008-.874,0-.874a6.5,6.5,0,0,1,4.049,1.375,5.928,5.928,0,0,0,7.272,0,6.315,6.315,0,0,1,4.049-1.375Z" transform="translate(-614.884 -109.135)" fill="#eb6d4e"/></g><g transform="translate(390 -247.999)"><path d="M645.258,358.01a5.619,5.619,0,0,0-3.635,1.243,6.648,6.648,0,0,1-8.1,0,5.623,5.623,0,0,0-3.636-1.243s-.008-.874,0-.874a6.5,6.5,0,0,1,4.049,1.375,5.928,5.928,0,0,0,7.272,0,6.315,6.315,0,0,1,4.049-1.375Z" transform="translate(-614.884 -109.135)" fill="#eb6d4e"/></g></g><path d="M10.944-9.888A7.954,7.954,0,0,0,7.552-8.064,3.517,3.517,0,0,0,6.4-5.536,3.019,3.019,0,0,0,7.408-3.312,3.1,3.1,0,0,0,9.6-2.336a1.641,1.641,0,0,0,1.264-.384A2.256,2.256,0,0,0,11.2-4.16V-9.7Q11.2-9.952,10.944-9.888ZM10.016,1.28A7.955,7.955,0,0,1,4.576-.688a6.2,6.2,0,0,1-2.24-4.848,6.892,6.892,0,0,1,2.256-4.992,13.431,13.431,0,0,1,6.352-3.264.322.322,0,0,0,.256-.352v-4.032a.255.255,0,0,0-.288-.288H5.44a1.635,1.635,0,0,1-1.2-.5,1.635,1.635,0,0,1-.5-1.2,1.635,1.635,0,0,1,.5-1.2,1.635,1.635,0,0,1,1.2-.5h5.472a.255.255,0,0,0,.288-.288V-24a1.752,1.752,0,0,1,.544-1.28,1.752,1.752,0,0,1,1.28-.544h.416a1.752,1.752,0,0,1,1.28.544A1.752,1.752,0,0,1,15.264-24v1.856q0,.288.256.288h5.056a1.688,1.688,0,0,1,1.216.5,1.609,1.609,0,0,1,.512,1.2,1.609,1.609,0,0,1-.512,1.2,1.688,1.688,0,0,1-1.216.5H15.52q-.256,0-.256.288v3.456q0,.256.288.256.512-.032,1.632-.032a12.329,12.329,0,0,1,7.648,2.208,6.534,6.534,0,0,1,2.912,5.344q0,6.816-7.36,8.352a1.774,1.774,0,0,1-1.408-.272,1.975,1.975,0,0,1-.832-1.2l-.032-.1a1.637,1.637,0,0,1,.24-1.312,1.738,1.738,0,0,1,1.1-.768,5.972,5.972,0,0,0,3.136-1.616,4.122,4.122,0,0,0,.992-2.864A3.33,3.33,0,0,0,21.84-9.488a8.247,8.247,0,0,0-4.656-1.168q-1.12,0-1.632.032a.255.255,0,0,0-.288.288v6.4q0,2.944-1.152,4.08T10.016,1.28ZM27.2-21.728q1.728,2.336,3.008,4.384a1.655,1.655,0,0,1,.208,1.328,1.629,1.629,0,0,1-.784,1.072,1.794,1.794,0,0,1-1.344.176,1.74,1.74,0,0,1-1.088-.784q-1.536-2.4-2.816-4.16a1.715,1.715,0,0,1-.32-1.28,1.594,1.594,0,0,1,.672-1.12,1.787,1.787,0,0,1,1.328-.3A1.66,1.66,0,0,1,27.2-21.728ZM33.7-7.392l-.032-.128a1.742,1.742,0,0,1,.24-1.36,1.608,1.608,0,0,1,1.1-.752q4.864-.96,8.32-1.952.224-.064.032-.192a26.255,26.255,0,0,1-3.488-2.176.387.387,0,0,0-.448-.032q-1.056.608-2.432,1.28a1.848,1.848,0,0,1-1.408.08,1.817,1.817,0,0,1-1.056-.912l-.064-.1a1.681,1.681,0,0,1-.08-1.344A1.7,1.7,0,0,1,35.3-16a30.624,30.624,0,0,0,7.136-4.544,2.1,2.1,0,0,1,.32-.256.1.1,0,0,0,.016-.1.076.076,0,0,0-.08-.064H38.3a.255.255,0,0,0-.288.288v1.664a1.725,1.725,0,0,1-.528,1.264,1.725,1.725,0,0,1-1.264.528H35.68a1.778,1.778,0,0,1-1.28-.528,1.7,1.7,0,0,1-.544-1.264v-3.36a1.752,1.752,0,0,1,.544-1.28,1.752,1.752,0,0,1,1.28-.544H45.7q.288,0,.288-.256v-.8a1.778,1.778,0,0,1,.528-1.28,1.7,1.7,0,0,1,1.264-.544h.768a1.7,1.7,0,0,1,1.264.544,1.778,1.778,0,0,1,.528,1.28v.8q0,.256.288.256H60.64a1.752,1.752,0,0,1,1.28.544,1.752,1.752,0,0,1,.544,1.28v3.36a1.7,1.7,0,0,1-.544,1.264,1.778,1.778,0,0,1-1.28.528H60.1a1.622,1.622,0,0,1-1.28-.544q-.16-.16-.16.1A3.262,3.262,0,0,1,57.568-15.3,27.056,27.056,0,0,1,52.8-11.808a.078.078,0,0,0-.048.1.143.143,0,0,0,.08.1Q56.672-10.528,61.6-9.6a1.556,1.556,0,0,1,1.088.752A1.621,1.621,0,0,1,62.88-7.52l-.032.064a1.955,1.955,0,0,1-.88,1.136,1.835,1.835,0,0,1-1.392.24l-.752-.192q-.5-.128-.72-.16a.193.193,0,0,0-.192.048.229.229,0,0,0-.1.176V1.184a1.725,1.725,0,0,1-.528,1.264,1.725,1.725,0,0,1-1.264.528H55.68a1.1,1.1,0,0,1-.784-.32,1.023,1.023,0,0,1-.336-.768q0-.192-.16-.192H41.92q-.16,0-.16.192a1.023,1.023,0,0,1-.336.768,1.1,1.1,0,0,1-.784.32H39.3a1.725,1.725,0,0,1-1.264-.528A1.725,1.725,0,0,1,37.5,1.184V-6.048q0-.288-.288-.224-.416.1-1.312.288a1.751,1.751,0,0,1-1.376-.256A1.9,1.9,0,0,1,33.7-7.392ZM58.016-20.96H47.68q-.224,0-.224.288a.78.78,0,0,1-.224.576q-.1.1-.256.272t-.256.272q-.064.032-.032.112t.1.08H57.152a1.489,1.489,0,0,1,.992.384q.16.16.16-.1v-1.6A.255.255,0,0,0,58.016-20.96Zm-15.1,4.9a19.789,19.789,0,0,0,4.864,2.752.707.707,0,0,0,.512,0,20.157,20.157,0,0,0,4.768-2.848.063.063,0,0,0,.032-.1.1.1,0,0,0-.1-.064H43.136a.371.371,0,0,0-.256.064.13.13,0,0,0-.032.1A.1.1,0,0,0,42.912-16.064ZM42.4-7.584a.028.028,0,0,0-.032.032.028.028,0,0,0,.032.032h12a.028.028,0,0,0,.032-.032.028.028,0,0,0-.032-.032q-3.648-1.024-5.92-1.888a.707.707,0,0,0-.512,0Q45.76-8.576,42.4-7.584ZM41.76-4.16v2.528q0,.256.288.256H54.3a.226.226,0,0,0,.256-.256V-4.16q0-.288-.256-.288H42.048A.255.255,0,0,0,41.76-4.16ZM93.824-9.6h-5.44q-.288,0-.128.32a19.334,19.334,0,0,0,1.376,2.112.253.253,0,0,0,.384.032Q91.3-8.16,91.9-8.736A1.767,1.767,0,0,1,93.152-9.2a1.72,1.72,0,0,1,1.216.528,1.625,1.625,0,0,1,.5,1.232,1.737,1.737,0,0,1-.528,1.232Q92.8-4.832,92.32-4.448q-.192.192-.032.352a26.887,26.887,0,0,0,2.464,2.208A1.746,1.746,0,0,1,95.472-.7a1.816,1.816,0,0,1-.3,1.344l-.224.32a1.737,1.737,0,0,1-1.168.72,1.48,1.48,0,0,1-1.264-.368,23.228,23.228,0,0,1-4.256-5.056.13.13,0,0,0-.1-.032.057.057,0,0,0-.064.064v1.376A22.57,22.57,0,0,1,88,.048a6.858,6.858,0,0,1-.32,1.488,1.456,1.456,0,0,1-.8.9,4.724,4.724,0,0,1-1.312.352,17.5,17.5,0,0,1-2.112.1q-.192,0-1.6-.064a1.949,1.949,0,0,1-1.248-.576A1.949,1.949,0,0,1,80.032.992,1.491,1.491,0,0,1,80.5-.176a1.4,1.4,0,0,1,1.168-.432q.48.032,1.088.032.8,0,.992-.224a2.469,2.469,0,0,0,.192-1.28V-4.1a.028.028,0,0,0-.032-.032.028.028,0,0,0-.032.032,2.4,2.4,0,0,1-.608.96,47.959,47.959,0,0,1-5.792,4.384,1.661,1.661,0,0,1-1.344.256A1.777,1.777,0,0,1,74.976.7l-.16-.256A1.64,1.64,0,0,1,74.624-.9a1.78,1.78,0,0,1,.832-1.12Q77.44-3.2,79.072-4.384q.16-.128-.064-.192a1.951,1.951,0,0,1-1.12-.672q-.352-.448-.9-1.12a1.628,1.628,0,0,1-.368-1.264,1.552,1.552,0,0,1,.656-1.136,1.944,1.944,0,0,1,1.36-.384,1.846,1.846,0,0,1,1.264.64q.32.352.9,1.056a1.609,1.609,0,0,1,.384,1.216.138.138,0,0,0,.064.112q.064.048.1.016a.935.935,0,0,1,.1-.08.936.936,0,0,0,.1-.08,1.373,1.373,0,0,1,1.184-.336,1.311,1.311,0,0,1,.992.72q.1.224.16.416a.092.092,0,0,1,.064-.032v-3.84q0-.256-.288-.256H77.984a1.661,1.661,0,0,1-1.216-.512,1.661,1.661,0,0,1-.512-1.216,1.661,1.661,0,0,1,.512-1.216,1.661,1.661,0,0,1,1.216-.512h5.664a.255.255,0,0,0,.288-.288v-1.28q0-.256-.288-.256H78.56a1.445,1.445,0,0,1-1.056-.448,1.481,1.481,0,0,1-.448-1.088,1.471,1.471,0,0,1,.432-1.056,1.429,1.429,0,0,1,1.072-.448h5.088a.255.255,0,0,0,.288-.288v-1.12q0-.256-.288-.256H78.08a1.609,1.609,0,0,1-1.184-.48,1.609,1.609,0,0,1-.48-1.184,1.663,1.663,0,0,1,.48-1.2,1.582,1.582,0,0,1,1.184-.5h1.984q.288,0,.16-.192-.032-.064-.512-.928a1.33,1.33,0,0,1-.08-1.248,1.3,1.3,0,0,1,.944-.8l.16-.032a2.273,2.273,0,0,1,1.5.064,2.122,2.122,0,0,1,1.12.992q.64,1.216.992,1.92a.376.376,0,0,0,.384.224h2.912a.477.477,0,0,0,.416-.256q.032-.064.4-.736t.528-1.024a2.3,2.3,0,0,1,1.056-1.056,2.2,2.2,0,0,1,1.472-.192l.192.032a1.446,1.446,0,0,1,.992.784,1.266,1.266,0,0,1,0,1.232q-.416.832-.512.992a.144.144,0,0,0,.016.144.157.157,0,0,0,.144.08h1.216a1.571,1.571,0,0,1,1.152.48,1.571,1.571,0,0,1,.48,1.152,1.571,1.571,0,0,1-.48,1.152,1.571,1.571,0,0,1-1.152.48H88.384q-.288,0-.288.256v1.216a.255.255,0,0,0,.288.288h4.928a1.445,1.445,0,0,1,1.056.448,1.445,1.445,0,0,1,.448,1.056,1.481,1.481,0,0,1-.448,1.088,1.445,1.445,0,0,1-1.056.448H88.384q-.288,0-.288.256v1.28a.255.255,0,0,0,.288.288h5.44a1.646,1.646,0,0,1,1.232.512,1.688,1.688,0,0,1,.5,1.216,1.688,1.688,0,0,1-.5,1.216A1.646,1.646,0,0,1,93.824-9.6ZM66.272-4.864l-.352-.8a3.415,3.415,0,0,1,.128-3.2,31.681,31.681,0,0,0,2.944-8.256q.064-.256-.224-.256H67.68a1.689,1.689,0,0,1-1.232-.528,1.689,1.689,0,0,1-.528-1.232,1.689,1.689,0,0,1,.528-1.232A1.689,1.689,0,0,1,67.68-20.9h1.248a.255.255,0,0,0,.288-.288v-3.04a1.7,1.7,0,0,1,.544-1.264,1.778,1.778,0,0,1,1.28-.528h.192a1.778,1.778,0,0,1,1.28.528,1.7,1.7,0,0,1,.544,1.264v3.04a.255.255,0,0,0,.288.288h.9a1.673,1.673,0,0,1,1.248.528A1.714,1.714,0,0,1,76-19.136a1.714,1.714,0,0,1-.512,1.232,1.673,1.673,0,0,1-1.248.528h-.608q-.288,0-.16.256.672,1.44,2.5,5.568a2.792,2.792,0,0,1-.384,3.072.911.911,0,0,1-.928.352.992.992,0,0,1-.8-.64,8.185,8.185,0,0,0-.352-.9,8.187,8.187,0,0,1-.352-.9.13.13,0,0,0-.1.032V1.184a1.7,1.7,0,0,1-.544,1.264,1.778,1.778,0,0,1-1.28.528H71.04a1.778,1.778,0,0,1-1.28-.528,1.7,1.7,0,0,1-.544-1.264v-8.96q-.032-.032-.1,0A30.727,30.727,0,0,1,67.872-4.8a.785.785,0,0,1-.8.48A.907.907,0,0,1,66.272-4.864Zm43.84-14.752a10.064,10.064,0,0,0-5.888,3.408,9.723,9.723,0,0,0-2.144,6.384,9.149,9.149,0,0,0,.992,4.32q.992,1.888,1.888,1.888a1.419,1.419,0,0,0,.928-.432,5.787,5.787,0,0,0,1.072-1.568,19.1,19.1,0,0,0,1.152-2.848,44.412,44.412,0,0,0,1.152-4.544q.592-2.832,1.072-6.384a.162.162,0,0,0-.048-.176A.162.162,0,0,0,110.112-19.616ZM104.96.416q-2.592,0-4.768-2.976a11.971,11.971,0,0,1-2.176-7.264A13.04,13.04,0,0,1,102.24-19.9q4.224-3.872,11.04-3.872a12.616,12.616,0,0,1,9.1,3.456,11.671,11.671,0,0,1,3.6,8.8,13.889,13.889,0,0,1-2.32,8.272A10.262,10.262,0,0,1,117.312.9,1.7,1.7,0,0,1,115.92.608a1.928,1.928,0,0,1-.784-1.216L115.072-.9a1.6,1.6,0,0,1,.256-1.312,2.088,2.088,0,0,1,1.12-.832q5.472-1.7,5.472-8.48a8.184,8.184,0,0,0-1.936-5.52,8.188,8.188,0,0,0-5.072-2.768.261.261,0,0,0-.352.224q-.64,4.832-1.44,8.4a38.558,38.558,0,0,1-1.68,5.76,13.47,13.47,0,0,1-1.968,3.52A6.477,6.477,0,0,1,107.328-.08,5.5,5.5,0,0,1,104.96.416ZM132.9-17.824a1.725,1.725,0,0,1-1.264-.528,1.725,1.725,0,0,1-.528-1.264,1.762,1.762,0,0,1,.528-1.3,1.762,1.762,0,0,1,1.3-.528q3.936,0,11.872-.192.32,0,.256-.256-.1-.864-.192-1.824a1.615,1.615,0,0,1,.432-1.28,1.855,1.855,0,0,1,1.264-.608h.416a1.733,1.733,0,0,1,1.328.448,1.694,1.694,0,0,1,.624,1.248q.032.288.08.928t.08.96a.3.3,0,0,0,.32.256q3.744-.128,5.7-.224a1.692,1.692,0,0,1,1.28.48,1.76,1.76,0,0,1,.576,1.248,1.716,1.716,0,0,1-.5,1.3,1.79,1.79,0,0,1-1.264.592l-5.184.192q-.256,0-.192.288a25.219,25.219,0,0,0,2.688,6.432,1.718,1.718,0,0,1,.16,1.344,1.559,1.559,0,0,1-.832,1.056l-.608.288a3.342,3.342,0,0,1-3.168-.064,13.269,13.269,0,0,0-5.888-1.408,6.336,6.336,0,0,0-3.776.976,3.1,3.1,0,0,0-1.344,2.64,3.777,3.777,0,0,0,1.984,3.408,11.644,11.644,0,0,0,5.92,1.2,40.664,40.664,0,0,0,5.984-.544,1.772,1.772,0,0,1,1.36.3,1.732,1.732,0,0,1,.752,1.168v.064A1.628,1.628,0,0,1,152.784.32a1.748,1.748,0,0,1-1.168.736,46.382,46.382,0,0,1-6.656.544q-6.144,0-9.152-2.3A7.32,7.32,0,0,1,132.8-6.816a6.193,6.193,0,0,1,2.432-5.12,10.638,10.638,0,0,1,6.752-1.92,14.768,14.768,0,0,1,5.44,1.056h.064a.092.092,0,0,0,.032-.064,23.2,23.2,0,0,1-1.728-4.9.343.343,0,0,0-.384-.256Q139.136-17.824,132.9-17.824ZM172.48-1.7a4.423,4.423,0,0,0,2.912-.72,3.657,3.657,0,0,0,.832-2.7.352.352,0,0,0-.256-.352,8.622,8.622,0,0,0-3.072-.672,5.32,5.32,0,0,0-2.7.512,1.723,1.723,0,0,0-.816,1.568,2.07,2.07,0,0,0,.816,1.744A3.694,3.694,0,0,0,172.48-1.7ZM165.344-18.88a1.752,1.752,0,0,1-1.28-.544,1.752,1.752,0,0,1-.544-1.28,1.7,1.7,0,0,1,.544-1.264,1.778,1.778,0,0,1,1.28-.528h10.592a.255.255,0,0,0,.288-.288v-.992a1.778,1.778,0,0,1,.528-1.28,1.7,1.7,0,0,1,1.264-.544h.448a1.7,1.7,0,0,1,1.264.544,1.778,1.778,0,0,1,.528,1.28v.992a.255.255,0,0,0,.288.288h6.112a1.778,1.778,0,0,1,1.28.528,1.7,1.7,0,0,1,.544,1.264,1.752,1.752,0,0,1-.544,1.28,1.752,1.752,0,0,1-1.28.544h-6.112q-.288,0-.288.256v2.24a.255.255,0,0,0,.288.288h4.992a1.7,1.7,0,0,1,1.248.512,1.7,1.7,0,0,1,.512,1.248,1.752,1.752,0,0,1-.512,1.264,1.672,1.672,0,0,1-1.248.528h-4.992a.255.255,0,0,0-.288.288v4.608a.49.49,0,0,0,.224.416,39.286,39.286,0,0,1,5.984,4.352,1.643,1.643,0,0,1,.608,1.248,1.733,1.733,0,0,1-.48,1.312l-.1.1a1.837,1.837,0,0,1-1.264.592,1.661,1.661,0,0,1-1.3-.464q-2.016-1.76-3.616-2.912-.224-.16-.288.1a5.349,5.349,0,0,1-2.32,3.7A9.9,9.9,0,0,1,172.48,1.92,8.178,8.178,0,0,1,167.152.336a5.371,5.371,0,0,1-1.936-4.4,5.156,5.156,0,0,1,1.776-4.08Q168.768-9.7,172.48-9.7a12.523,12.523,0,0,1,3.488.48q.256.064.256-.192v-2.848a.255.255,0,0,0-.288-.288h-9.472a1.7,1.7,0,0,1-1.248-.512A1.7,1.7,0,0,1,164.7-14.3a1.752,1.752,0,0,1,.512-1.264,1.672,1.672,0,0,1,1.248-.528h9.472a.255.255,0,0,0,.288-.288v-2.208a.255.255,0,0,0-.288-.288ZM214-25.152a1.614,1.614,0,0,1,.816-.96,1.608,1.608,0,0,1,1.3-.1,1.676,1.676,0,0,1,1.008.832q.16.288.448.848t.448.848a1.621,1.621,0,0,1,.1,1.3,1.544,1.544,0,0,1-.864.944,1.623,1.623,0,0,1-1.264.064,1.676,1.676,0,0,1-.976-.832q-.16-.288-.448-.848t-.448-.848A1.551,1.551,0,0,1,214-25.152Zm8.016-.7.464.928.432.864a1.586,1.586,0,0,1,.1,1.28,1.659,1.659,0,0,1-.864.96,1.621,1.621,0,0,1-1.3.1,1.779,1.779,0,0,1-1.008-.864q-.288-.576-.928-1.728a1.67,1.67,0,0,1-.112-1.3,1.6,1.6,0,0,1,.848-.976,1.727,1.727,0,0,1,1.344-.1A1.678,1.678,0,0,1,222.016-25.856Zm-25.5,8.832a1.7,1.7,0,0,1-1.264-.544,1.778,1.778,0,0,1-.528-1.28,1.736,1.736,0,0,1,.544-1.3,1.816,1.816,0,0,1,1.312-.528q5.12,0,11.616-.16.32,0,.256-.288-.1-.736-.224-2.272a1.615,1.615,0,0,1,.432-1.28,1.826,1.826,0,0,1,1.232-.608h.448a1.772,1.772,0,0,1,1.3.464,1.8,1.8,0,0,1,.624,1.232q.128,1.5.224,2.336a.322.322,0,0,0,.352.256q3.872-.128,5.888-.224a1.692,1.692,0,0,1,1.28.48,1.76,1.76,0,0,1,.576,1.248,1.716,1.716,0,0,1-.5,1.3,1.79,1.79,0,0,1-1.264.592q-.864.032-2.64.112t-2.7.112q-.256,0-.192.256a24.431,24.431,0,0,0,2.56,5.984,1.64,1.64,0,0,1,.192,1.344,1.559,1.559,0,0,1-.832,1.056l-.64.288a3.342,3.342,0,0,1-3.168-.064,13.2,13.2,0,0,0-5.856-1.408,5.942,5.942,0,0,0-3.616.976,3.119,3.119,0,0,0-1.312,2.64A3.777,3.777,0,0,0,202.592-2.9a11.644,11.644,0,0,0,5.92,1.2A40.664,40.664,0,0,0,214.5-2.24a1.772,1.772,0,0,1,1.36.3,1.732,1.732,0,0,1,.752,1.168l.032.064a1.724,1.724,0,0,1-.3,1.344,1.748,1.748,0,0,1-1.168.736,46.382,46.382,0,0,1-6.656.544q-6.144,0-9.152-2.3A7.32,7.32,0,0,1,196.352-6.5a6.224,6.224,0,0,1,2.4-5.12,10.221,10.221,0,0,1,6.56-1.92,14.849,14.849,0,0,1,5.472,1.056h.064v-.064a24.66,24.66,0,0,1-1.632-4.448.322.322,0,0,0-.352-.256Q201.6-17.024,196.512-17.024ZM236.48-1.7a4.423,4.423,0,0,0,2.912-.72,3.657,3.657,0,0,0,.832-2.7.352.352,0,0,0-.256-.352,8.622,8.622,0,0,0-3.072-.672,5.32,5.32,0,0,0-2.7.512,1.723,1.723,0,0,0-.816,1.568,2.07,2.07,0,0,0,.816,1.744A3.694,3.694,0,0,0,236.48-1.7ZM229.344-18.88a1.752,1.752,0,0,1-1.28-.544,1.752,1.752,0,0,1-.544-1.28,1.7,1.7,0,0,1,.544-1.264,1.778,1.778,0,0,1,1.28-.528h10.592a.255.255,0,0,0,.288-.288v-.992a1.778,1.778,0,0,1,.528-1.28,1.7,1.7,0,0,1,1.264-.544h.448a1.7,1.7,0,0,1,1.264.544,1.778,1.778,0,0,1,.528,1.28v.992a.255.255,0,0,0,.288.288h6.112a1.778,1.778,0,0,1,1.28.528,1.7,1.7,0,0,1,.544,1.264,1.752,1.752,0,0,1-.544,1.28,1.752,1.752,0,0,1-1.28.544h-6.112q-.288,0-.288.256v2.24a.255.255,0,0,0,.288.288h4.992a1.7,1.7,0,0,1,1.248.512,1.7,1.7,0,0,1,.512,1.248,1.752,1.752,0,0,1-.512,1.264,1.672,1.672,0,0,1-1.248.528h-4.992a.255.255,0,0,0-.288.288v4.608a.49.49,0,0,0,.224.416,39.286,39.286,0,0,1,5.984,4.352,1.643,1.643,0,0,1,.608,1.248,1.733,1.733,0,0,1-.48,1.312l-.1.1a1.837,1.837,0,0,1-1.264.592,1.661,1.661,0,0,1-1.3-.464q-2.016-1.76-3.616-2.912-.224-.16-.288.1a5.349,5.349,0,0,1-2.32,3.7A9.9,9.9,0,0,1,236.48,1.92,8.178,8.178,0,0,1,231.152.336a5.371,5.371,0,0,1-1.936-4.4,5.156,5.156,0,0,1,1.776-4.08Q232.768-9.7,236.48-9.7a12.523,12.523,0,0,1,3.488.48q.256.064.256-.192v-2.848a.255.255,0,0,0-.288-.288h-9.472a1.7,1.7,0,0,1-1.248-.512A1.7,1.7,0,0,1,228.7-14.3a1.752,1.752,0,0,1,.512-1.264,1.672,1.672,0,0,1,1.248-.528h9.472a.255.255,0,0,0,.288-.288v-2.208a.255.255,0,0,0-.288-.288Zm47.1,13.44v-.128a.373.373,0,0,0-.256-.384,7.237,7.237,0,0,0-3.168-.832,4.317,4.317,0,0,0-2.64.672,2.205,2.205,0,0,0-.88,1.856,2.313,2.313,0,0,0,.928,1.952,4.206,4.206,0,0,0,2.592.7,3.58,3.58,0,0,0,2.688-.8A4.6,4.6,0,0,0,276.448-5.44Zm8.224-15.808a1.658,1.658,0,0,1,1.232.672,1.815,1.815,0,0,1,.368,1.376,1.689,1.689,0,0,1-.7,1.184,1.8,1.8,0,0,1-1.344.352,33,33,0,0,0-3.456-.256q-.256,0-.256.288v9.7a.516.516,0,0,0,.192.416,35.939,35.939,0,0,1,4.608,3.456,1.643,1.643,0,0,1,.608,1.248,1.733,1.733,0,0,1-.48,1.312l-.1.1A1.886,1.886,0,0,1,284.1-.8a1.742,1.742,0,0,1-1.312-.416q-.48-.416-1.312-1.072t-.96-.752q-.192-.128-.256.064A5.442,5.442,0,0,1,277.968.656a8.943,8.943,0,0,1-4.944,1.168A8.546,8.546,0,0,1,267.472.192a5.434,5.434,0,0,1-2-4.448,5.356,5.356,0,0,1,1.968-4.368,8.58,8.58,0,0,1,5.584-1.616,11.163,11.163,0,0,1,3.2.544q.224.064.224-.192V-19.84a1.778,1.778,0,0,1,.528-1.28,1.6,1.6,0,0,1,1.264-.512Q282.336-21.5,284.672-21.248ZM259.36-2.656a1.538,1.538,0,0,1-.992-.9,1.807,1.807,0,0,1-.032-1.376q2.432-6.176,4.416-12.832.064-.256-.192-.256h-2.368a1.7,1.7,0,0,1-1.264-.544,1.778,1.778,0,0,1-.528-1.28,1.778,1.778,0,0,1,.528-1.28,1.7,1.7,0,0,1,1.264-.544h3.392a.322.322,0,0,0,.352-.256q.128-.416.32-1.248t.32-1.248a1.967,1.967,0,0,1,.832-1.168,2,2,0,0,1,1.408-.336h.224a1.535,1.535,0,0,1,1.136.7,1.637,1.637,0,0,1,.24,1.312q-.32,1.344-.48,1.984-.064.256.224.256h3.232a1.752,1.752,0,0,1,1.28.544,1.752,1.752,0,0,1,.544,1.28,1.752,1.752,0,0,1-.544,1.28,1.752,1.752,0,0,1-1.28.544h-4.224a.329.329,0,0,0-.352.288A143.4,143.4,0,0,1,262.048-3.68a1.939,1.939,0,0,1-.976,1.04,1.787,1.787,0,0,1-1.424.08Zm49.5-13.632a1.8,1.8,0,0,1,1.408-.128,1.757,1.757,0,0,1,1.088.9q.352.64,1.056,1.984a1.717,1.717,0,0,1,.064,1.376,1.758,1.758,0,0,1-.928,1.024,1.8,1.8,0,0,1-1.408.064A1.882,1.882,0,0,1,309.088-12q-.16-.288-1.024-1.888a1.645,1.645,0,0,1-.128-1.344,1.755,1.755,0,0,1,.9-1.056Zm5.344,3.328q-.16-.32-.512-.992t-.544-.992a1.759,1.759,0,0,1-.144-1.376,1.6,1.6,0,0,1,.88-1.056l.1-.032a1.848,1.848,0,0,1,1.408-.144,1.7,1.7,0,0,1,1.088.88q1.056,2.016,1.088,2.08a1.682,1.682,0,0,1,.112,1.376,1.7,1.7,0,0,1-.912,1.024l-.1.064a1.8,1.8,0,0,1-1.392.08A1.816,1.816,0,0,1,314.208-12.96Zm-.928-9.024a1.752,1.752,0,0,1-.544,1.28,1.751,1.751,0,0,1-1.28.544H296.224a1.752,1.752,0,0,1-1.28-.544,1.752,1.752,0,0,1-.544-1.28v-.1a1.752,1.752,0,0,1,.544-1.28,1.752,1.752,0,0,1,1.28-.544h15.232a1.752,1.752,0,0,1,1.28.544,1.752,1.752,0,0,1,.544,1.28ZM303.776,1.5q-5.728,0-8.992-1.92a5.774,5.774,0,0,1-3.264-5.12q0-2.976,3.68-6.88a1.832,1.832,0,0,1,1.312-.624,2,2,0,0,1,1.408.432l.224.16a1.469,1.469,0,0,1,.624,1.152,1.6,1.6,0,0,1-.432,1.248Q295.9-7.456,295.9-5.984q0,1.664,2.048,2.656a13.693,13.693,0,0,0,5.824.992,42.534,42.534,0,0,0,8.9-1.056,1.742,1.742,0,0,1,1.36.24,1.608,1.608,0,0,1,.752,1.1l.064.256a1.835,1.835,0,0,1-.24,1.392,1.708,1.708,0,0,1-1.136.816A48.332,48.332,0,0,1,303.776,1.5Zm26.3-11.648.368-.464.368-.464q.128-.192-.1-.192h-5.6a1.752,1.752,0,0,1-1.28-.544,1.752,1.752,0,0,1-.544-1.28V-18.5a1.752,1.752,0,0,1,.544-1.28,1.752,1.752,0,0,1,1.28-.544h4.672a.255.255,0,0,0,.288-.288v-.864q0-.256-.288-.256h-6.144a1.688,1.688,0,0,1-1.216-.5,1.646,1.646,0,0,1-.512-1.232,1.646,1.646,0,0,1,.512-1.232,1.688,1.688,0,0,1,1.216-.5h24.7a1.688,1.688,0,0,1,1.216.5,1.646,1.646,0,0,1,.512,1.232,1.646,1.646,0,0,1-.512,1.232,1.688,1.688,0,0,1-1.216.5h-6.144q-.288,0-.288.256v.864a.255.255,0,0,0,.288.288h4.672a1.752,1.752,0,0,1,1.28.544,1.752,1.752,0,0,1,.544,1.28v5.408a1.752,1.752,0,0,1-.544,1.28,1.752,1.752,0,0,1-1.28.544H336.064a.431.431,0,0,0-.384.192q-.256.416-.608.928-.16.224.1.224h13.376a1.571,1.571,0,0,1,1.152.48,1.571,1.571,0,0,1,.48,1.152,1.571,1.571,0,0,1-.48,1.152,1.571,1.571,0,0,1-1.152.48h-2.912a.532.532,0,0,0-.416.256,14.079,14.079,0,0,1-2.976,3.36q-.064.032-.048.128a.154.154,0,0,0,.112.128q2.944.96,5.568,1.952a1.439,1.439,0,0,1,.864.912,1.286,1.286,0,0,1-.192,1.232l-.128.224a2.189,2.189,0,0,1-1.232.864,2.1,2.1,0,0,1-1.488-.1Q341.888.672,338.464-.48a.624.624,0,0,0-.512.032A44.275,44.275,0,0,1,325.088,2.56a2.084,2.084,0,0,1-1.408-.384,2.187,2.187,0,0,1-.864-1.184,1.438,1.438,0,0,1,.192-1.248A1.31,1.31,0,0,1,324.1-.864a52.083,52.083,0,0,0,8.32-1.28q.128-.064.032-.128-.768-.192-3.808-.864a.579.579,0,0,0-.416.1,2.389,2.389,0,0,1-2.784.192l-.352-.192a1.139,1.139,0,0,1-.624-.96,1.179,1.179,0,0,1,.464-1.056q1.056-.9,1.632-1.408.064-.128-.1-.192h-3.008a1.571,1.571,0,0,1-1.152-.48,1.571,1.571,0,0,1-.48-1.152,1.571,1.571,0,0,1,.48-1.152,1.571,1.571,0,0,1,1.152-.48H329.6A.551.551,0,0,0,330.08-10.144Zm.064-4.416v-2.592q0-.256-.288-.256H327.3a.226.226,0,0,0-.256.256v2.592a.226.226,0,0,0,.256.256h2.56Q330.144-14.3,330.144-14.56Zm11.712-2.592v2.592q0,.256.288.256h2.56a.226.226,0,0,0,.256-.256v-2.592a.226.226,0,0,0-.256-.256h-2.56Q341.856-17.408,341.856-17.152Zm-7.616-4.32v.864a.255.255,0,0,0,.288.288h2.944a.255.255,0,0,0,.288-.288v-.864q0-.256-.288-.256h-2.944Q334.24-21.728,334.24-21.472Zm-.064,4.32v2.592q0,.256.288.256h3.072q.288,0,.288-.256v-2.592q0-.256-.288-.256h-3.072Q334.176-17.408,334.176-17.152Zm-2.784,11.36a.124.124,0,0,0-.032.144.2.2,0,0,0,.1.112q2.848.544,5.952,1.344a.665.665,0,0,0,.512-.064,11.634,11.634,0,0,0,2.816-2.208.089.089,0,0,0,.016-.128.138.138,0,0,0-.112-.064h-8.128a.673.673,0,0,0-.48.224ZM365.536-1.12q.288,0,.288-.256V-2.3a.255.255,0,0,0-.288-.288h-7.264a1.446,1.446,0,0,1-1.04-.416,1.366,1.366,0,0,1-.432-1.024,1.418,1.418,0,0,1,.432-1.04,1.418,1.418,0,0,1,1.04-.432h7.264a.255.255,0,0,0,.288-.288v-.832q0-.256-.288-.256h-8.992a1.508,1.508,0,0,1-1.1-.464,1.508,1.508,0,0,1-.464-1.1,1.508,1.508,0,0,1,.464-1.1,1.508,1.508,0,0,1,1.1-.464h10.464q.032,0,.032-.048t-.032-.048a1.985,1.985,0,0,1-.7-.512l-1.056-1.216a.5.5,0,0,0-.448-.192q-2.048.192-3.9.192a27.116,27.116,0,0,1-2.752-.128,3.08,3.08,0,0,1-1.92-.688,3.184,3.184,0,0,1-.48-2.064V-20.1q0-.224-.256-.224a1.508,1.508,0,0,1-1.1-.464,1.508,1.508,0,0,1-.464-1.1v-.128a1.688,1.688,0,0,1,.5-1.216,1.609,1.609,0,0,1,1.2-.512h2.72q.288,0,.288-.256v-.224a1.724,1.724,0,0,1,.528-1.264,1.725,1.725,0,0,1,1.264-.528h.64a1.778,1.778,0,0,1,1.28.528,1.7,1.7,0,0,1,.544,1.264V-24a.226.226,0,0,0,.256.256h3.008a1.609,1.609,0,0,1,1.2.512,1.688,1.688,0,0,1,.5,1.216,1.635,1.635,0,0,1-.5,1.2,1.635,1.635,0,0,1-1.2.5H360a.226.226,0,0,0-.256.256v3.52a2.039,2.039,0,0,0,.112.912q.112.144.72.208,1.28.064,1.92.064.48,0,1.76-.064a1.663,1.663,0,0,1,1.3.432,1.683,1.683,0,0,1,.592,1.232v.256a.076.076,0,0,0,.064.08.133.133,0,0,0,.128-.048q2.688-3.456,3.008-9.984a1.76,1.76,0,0,1,.576-1.248,1.806,1.806,0,0,1,1.28-.512h8.9a1.7,1.7,0,0,1,1.264.544,1.667,1.667,0,0,1,.5,1.28,78.727,78.727,0,0,1-.72,9.568q-.5,2.848-1.584,3.648-.064.064-.032.112a.108.108,0,0,0,.1.048,1.518,1.518,0,0,1,1.008.512,1.534,1.534,0,0,1,.4,1.056,1.508,1.508,0,0,1-.464,1.1,1.508,1.508,0,0,1-1.1.464h-8.992q-.288,0-.288.256v.832a.255.255,0,0,0,.288.288h7.264a1.418,1.418,0,0,1,1.04.432,1.418,1.418,0,0,1,.432,1.04,1.366,1.366,0,0,1-.432,1.024,1.446,1.446,0,0,1-1.04.416h-7.264a.255.255,0,0,0-.288.288v.928q0,.256.288.256h9.92a1.609,1.609,0,0,1,1.2.512,1.688,1.688,0,0,1,.5,1.216,1.635,1.635,0,0,1-.5,1.2,1.635,1.635,0,0,1-1.2.5H355.616a1.635,1.635,0,0,1-1.2-.5,1.635,1.635,0,0,1-.5-1.2,1.688,1.688,0,0,1,.5-1.216,1.609,1.609,0,0,1,1.2-.512Zm7.232-20.48a2.194,2.194,0,0,0-.032.416,2.194,2.194,0,0,1-.032.416q0,.224.256.224h4.576q.288,0,.288-.256,0-.128.016-.4t.016-.432a.226.226,0,0,0-.256-.256h-4.544A.255.255,0,0,0,372.768-21.6Zm-.544,3.872q-.128.576-.192.832t.192.256h5.024q.288,0,.288-.256a2.477,2.477,0,0,0,.048-.416q.016-.288.016-.416a.226.226,0,0,0-.256-.256h-4.8A.3.3,0,0,0,372.224-17.728Zm-3.456,7.2a1.8,1.8,0,0,1-.608.448.092.092,0,0,1,.032.064h5.152q.064,0,.08-.08a.092.092,0,0,0-.048-.112,1.628,1.628,0,0,1-.512-1.088,1.225,1.225,0,0,1,.368-.976,1.136,1.136,0,0,1,.976-.336q.672.064,1.536.064a1.131,1.131,0,0,0,.784-.272,2.268,2.268,0,0,0,.528-1.04q.064-.256-.224-.256h-5.5a.4.4,0,0,0-.416.256A14.61,14.61,0,0,1,368.768-10.528ZM400.1-22.3H410.24a1.751,1.751,0,0,1,1.28.544,1.752,1.752,0,0,1,.544,1.28v.1a1.752,1.752,0,0,1-.544,1.28,1.751,1.751,0,0,1-1.28.544H400.1a1.7,1.7,0,0,1-1.264-.544,1.778,1.778,0,0,1-.528-1.28v-.1a1.778,1.778,0,0,1,.528-1.28A1.7,1.7,0,0,1,400.1-22.3Zm-9.184,23.84A2,2,0,0,1,389.5,1.2a1.849,1.849,0,0,1-.8-1.2,53.777,53.777,0,0,1-1.184-11.52A53.777,53.777,0,0,1,388.7-23.04a1.849,1.849,0,0,1,.8-1.2,2,2,0,0,1,1.408-.336l.608.064a1.464,1.464,0,0,1,1.12.672,1.6,1.6,0,0,1,.256,1.312,50.891,50.891,0,0,0-1.12,11.008A50.891,50.891,0,0,0,392.9-.512,1.6,1.6,0,0,1,392.64.8a1.464,1.464,0,0,1-1.12.672ZM405.344.416a12.668,12.668,0,0,1-7.12-1.744,5.356,5.356,0,0,1-2.608-4.656q0-2.5,2.752-5.6a1.726,1.726,0,0,1,1.312-.592,2.014,2.014,0,0,1,1.376.464l.16.1a1.516,1.516,0,0,1,.608,1.184,1.75,1.75,0,0,1-.448,1.28,5.375,5.375,0,0,0-1.536,3.008q0,2.72,5.5,2.72a30.79,30.79,0,0,0,5.216-.48,1.724,1.724,0,0,1,1.344.3,1.732,1.732,0,0,1,.736,1.136v.128a1.918,1.918,0,0,1-.288,1.408A1.663,1.663,0,0,1,411.2-.16,29.787,29.787,0,0,1,405.344.416Zm21.6-10.3a7.955,7.955,0,0,0-3.392,1.824A3.517,3.517,0,0,0,422.4-5.536a3.019,3.019,0,0,0,1.008,2.224,3.1,3.1,0,0,0,2.192.976,1.641,1.641,0,0,0,1.264-.384,2.256,2.256,0,0,0,.336-1.44V-9.7Q427.2-9.952,426.944-9.888ZM426.016,1.28a7.955,7.955,0,0,1-5.44-1.968,6.2,6.2,0,0,1-2.24-4.848,6.892,6.892,0,0,1,2.256-4.992,13.431,13.431,0,0,1,6.352-3.264.322.322,0,0,0,.256-.352v-4.032a.255.255,0,0,0-.288-.288H421.44a1.635,1.635,0,0,1-1.2-.5,1.635,1.635,0,0,1-.5-1.2,1.635,1.635,0,0,1,.5-1.2,1.635,1.635,0,0,1,1.2-.5h5.472a.255.255,0,0,0,.288-.288V-24a1.752,1.752,0,0,1,.544-1.28,1.752,1.752,0,0,1,1.28-.544h.416a1.752,1.752,0,0,1,1.28.544,1.752,1.752,0,0,1,.544,1.28v1.856q0,.288.256.288h5.056a1.688,1.688,0,0,1,1.216.5,1.609,1.609,0,0,1,.512,1.2,1.609,1.609,0,0,1-.512,1.2,1.688,1.688,0,0,1-1.216.5H431.52q-.256,0-.256.288v3.456q0,.256.288.256.512-.032,1.632-.032a12.329,12.329,0,0,1,7.648,2.208,6.534,6.534,0,0,1,2.912,5.344q0,6.816-7.36,8.352a1.774,1.774,0,0,1-1.408-.272,1.975,1.975,0,0,1-.832-1.2l-.032-.1a1.637,1.637,0,0,1,.24-1.312,1.738,1.738,0,0,1,1.1-.768,5.972,5.972,0,0,0,3.136-1.616,4.122,4.122,0,0,0,.992-2.864,3.33,3.33,0,0,0-1.744-2.768,8.247,8.247,0,0,0-4.656-1.168q-1.12,0-1.632.032a.255.255,0,0,0-.288.288v6.4q0,2.944-1.152,4.08T426.016,1.28ZM443.2-21.728q1.728,2.336,3.008,4.384a1.654,1.654,0,0,1,.208,1.328,1.629,1.629,0,0,1-.784,1.072,1.794,1.794,0,0,1-1.344.176,1.74,1.74,0,0,1-1.088-.784q-1.536-2.4-2.816-4.16a1.715,1.715,0,0,1-.32-1.28,1.594,1.594,0,0,1,.672-1.12,1.787,1.787,0,0,1,1.328-.3A1.66,1.66,0,0,1,443.2-21.728Zm7.9,23.3-.672-.8a2.879,2.879,0,0,1-.48-3.04,22.9,22.9,0,0,0,1.04-4.96,79.261,79.261,0,0,0,.3-7.968v-6.624a1.7,1.7,0,0,1,.544-1.264,1.778,1.778,0,0,1,1.28-.528h9.7a.255.255,0,0,0,.288-.288V-24.96a1.778,1.778,0,0,1,.528-1.28,1.7,1.7,0,0,1,1.264-.544h.768a1.7,1.7,0,0,1,1.264.544,1.778,1.778,0,0,1,.528,1.28V-23.9a.255.255,0,0,0,.288.288h9.12a1.714,1.714,0,0,1,1.232.512,1.673,1.673,0,0,1,.528,1.248,1.673,1.673,0,0,1-.528,1.248,1.714,1.714,0,0,1-1.232.512H455.648q-.288,0-.288.256V-12.1q0,8.48-2.272,13.44a1.035,1.035,0,0,1-.912.672A1.16,1.16,0,0,1,451.1,1.568Zm8-13.664.16.032a1.979,1.979,0,0,1,1.2.784,1.706,1.706,0,0,1,.336,1.36,59.2,59.2,0,0,1-2.112,9.376A1.582,1.582,0,0,1,457.76.464a1.674,1.674,0,0,1-1.376.016l-.256-.128A1.866,1.866,0,0,1,455.1-.64a1.873,1.873,0,0,1-.064-1.44,66.852,66.852,0,0,0,2.016-8.608,1.638,1.638,0,0,1,.736-1.136A1.74,1.74,0,0,1,459.1-12.1Zm8.48,14.752q-1.536,0-2.4-.032a9.771,9.771,0,0,1-1.632-.192,3.525,3.525,0,0,1-1.072-.352,1.714,1.714,0,0,1-.56-.7A2.7,2.7,0,0,1,461.632.32q-.032-.544-.032-1.536v-11.9a1.752,1.752,0,0,1,.544-1.28,1.751,1.751,0,0,1,1.28-.544h.64a1.7,1.7,0,0,1,1.264.544,1.778,1.778,0,0,1,.528,1.28V-2.144q0,.832.24.976a5.107,5.107,0,0,0,1.68.144,11.634,11.634,0,0,0,1.312-.048,1.214,1.214,0,0,0,.7-.432,1.784,1.784,0,0,0,.416-1.072q.064-.688.128-2.16a1.653,1.653,0,0,1,.576-1.216,1.643,1.643,0,0,1,1.28-.416l.288.032a1.9,1.9,0,0,1,1.264.688,1.925,1.925,0,0,1,.464,1.36q-.064,1.344-.128,2.224a11.8,11.8,0,0,1-.24,1.68,8.661,8.661,0,0,1-.352,1.248,2.266,2.266,0,0,1-.592.832,2.9,2.9,0,0,1-.784.544,4.805,4.805,0,0,1-1.152.272,12.5,12.5,0,0,1-1.472.128Q468.8,2.656,467.584,2.656ZM462.56-16.7a1.568,1.568,0,0,1-1.024-.752,1.4,1.4,0,0,1-.128-1.232,1.973,1.973,0,0,1,.9-1.1,1.994,1.994,0,0,1,1.376-.24,51.852,51.852,0,0,1,8.544,2.368,1.638,1.638,0,0,1,.992.944,1.754,1.754,0,0,1,0,1.392,1.751,1.751,0,0,1-.976.992,1.849,1.849,0,0,1-1.392.032A56.806,56.806,0,0,0,462.56-16.7Zm12.064,4.1a1.746,1.746,0,0,1,1.424.1,1.872,1.872,0,0,1,.944,1.056,73.071,73.071,0,0,1,2.656,9.408,1.751,1.751,0,0,1-.256,1.376,2.041,2.041,0,0,1-1.152.864l-.448.128a1.7,1.7,0,0,1-1.344-.176,1.5,1.5,0,0,1-.768-1.072,72.691,72.691,0,0,0-2.528-9.312,1.677,1.677,0,0,1,.064-1.36,1.649,1.649,0,0,1,1.024-.88ZM484.256.128l-.16-.256a1.743,1.743,0,0,1-.336-1.344,1.746,1.746,0,0,1,.72-1.184l15.68-11.456a.028.028,0,0,0,.032-.032q0-.032-.064-.032H487.136a1.752,1.752,0,0,1-1.28-.544,1.752,1.752,0,0,1-.544-1.28,1.752,1.752,0,0,1,.544-1.28,1.752,1.752,0,0,1,1.28-.544H504.16a1.752,1.752,0,0,1,1.28.544,1.752,1.752,0,0,1,.544,1.28v.544a3.465,3.465,0,0,1-1.44,2.912l-5.28,3.936v.032q0,.032.064.032h.032a1.669,1.669,0,0,1,1.344.752,7.724,7.724,0,0,1,1.056,2.64,4.683,4.683,0,0,0,.976,2.24,3.431,3.431,0,0,0,2.1.448,15.592,15.592,0,0,0,2.048-.16,1.978,1.978,0,0,1,1.376.3,1.621,1.621,0,0,1,.736,1.1l.032.064a1.684,1.684,0,0,1-.288,1.376,1.772,1.772,0,0,1-1.184.768,22.564,22.564,0,0,1-3.136.288,8.164,8.164,0,0,1-4.352-.912,4.914,4.914,0,0,1-1.952-3.12,8.455,8.455,0,0,0-.88-2.368,1.244,1.244,0,0,0-1.04-.64,4.1,4.1,0,0,0-1.872.832q-1.264.832-7.536,5.44a1.769,1.769,0,0,1-1.36.336A1.647,1.647,0,0,1,484.256.128Zm6.3-25.056q5.152.64,11.3.8a1.9,1.9,0,0,1,1.28.56,1.7,1.7,0,0,1,.544,1.264v.128a1.778,1.778,0,0,1-.528,1.28,1.6,1.6,0,0,1-1.264.512q-5.664-.16-11.808-.928a1.743,1.743,0,0,1-1.2-.7,1.763,1.763,0,0,1-.368-1.344,1.743,1.743,0,0,1,.7-1.2A1.763,1.763,0,0,1,490.56-24.928ZM537.152-3.744a47.966,47.966,0,0,0-3.3-16.064,1.689,1.689,0,0,1,.032-1.328,1.542,1.542,0,0,1,.992-.88l.448-.128a1.975,1.975,0,0,1,1.456.112,2.059,2.059,0,0,1,1.04,1.04,47.156,47.156,0,0,1,3.584,17.248,1.643,1.643,0,0,1-.512,1.28,1.751,1.751,0,0,1-1.28.544h-.64a1.7,1.7,0,0,1-1.264-.544A1.9,1.9,0,0,1,537.152-3.744ZM522.656,1.5q-2.72,0-5.04-3.712A16.634,16.634,0,0,1,515.3-11.2a40.226,40.226,0,0,1,1.12-9.472,1.956,1.956,0,0,1,.848-1.2,2.11,2.11,0,0,1,1.456-.336l.544.064a1.419,1.419,0,0,1,1.1.672,1.637,1.637,0,0,1,.24,1.312,40.667,40.667,0,0,0-1.024,8.96,14.093,14.093,0,0,0,1.136,5.984q1.136,2.432,2.256,2.432.7,0,1.824-1.36A17.548,17.548,0,0,0,527.072-8.1,1.939,1.939,0,0,1,528.08-9.1a1.8,1.8,0,0,1,1.392-.048l.352.128a1.75,1.75,0,0,1,1.024.944,1.6,1.6,0,0,1,.032,1.36,17.862,17.862,0,0,1-3.9,6.048A6.492,6.492,0,0,1,522.656,1.5ZM561.5-11.872a1.675,1.675,0,0,1-1.264-.4,1.688,1.688,0,0,1-.624-1.2,1.793,1.793,0,0,1,.416-1.328,1.7,1.7,0,0,1,1.216-.656q4.928-.512,9.664-.544a1.672,1.672,0,0,1,1.248.528,1.752,1.752,0,0,1,.512,1.264,1.725,1.725,0,0,1-.528,1.264,1.724,1.724,0,0,1-1.264.528Q565.792-12.32,561.5-11.872Zm9.632,9.184a1.747,1.747,0,0,1,1.328.352,1.706,1.706,0,0,1,.688,1.184A1.851,1.851,0,0,1,572.8.224a1.689,1.689,0,0,1-1.184.7,37.385,37.385,0,0,1-4.96.352A13.42,13.42,0,0,1,559.6-.336a4.767,4.767,0,0,1-2.64-4.144,5.543,5.543,0,0,1,1.888-3.808,1.988,1.988,0,0,1,1.328-.592,2.289,2.289,0,0,1,1.424.368,1.235,1.235,0,0,1,.592.992,1.423,1.423,0,0,1-.4,1.12,2.24,2.24,0,0,0-.8,1.5q0,1.12,1.52,1.84a9.832,9.832,0,0,0,4.144.72A33.423,33.423,0,0,0,571.136-2.688Zm-22.88,4.032a1.6,1.6,0,0,1-1.072-.8A1.528,1.528,0,0,1,547.072-.8a169.632,169.632,0,0,0,4.672-17.472q.064-.288-.192-.288H549.28A1.752,1.752,0,0,1,548-19.1a1.752,1.752,0,0,1-.544-1.28A1.7,1.7,0,0,1,548-21.648a1.778,1.778,0,0,1,1.28-.528h2.976a.3.3,0,0,0,.32-.256q.256-1.216.352-1.824a2.042,2.042,0,0,1,.752-1.232,1.876,1.876,0,0,1,1.36-.4l.416.032a1.6,1.6,0,0,1,1.184.656,1.646,1.646,0,0,1,.32,1.328q-.032.256-.128.7t-.128.7a.193.193,0,0,0,.048.192.229.229,0,0,0,.176.1h9.088a1.778,1.778,0,0,1,1.28.528,1.7,1.7,0,0,1,.544,1.264,1.752,1.752,0,0,1-.544,1.28,1.752,1.752,0,0,1-1.28.544h-9.76a.322.322,0,0,0-.352.256A165.17,165.17,0,0,1,551.1.128a1.806,1.806,0,0,1-.912,1.1,2.022,2.022,0,0,1-1.424.208Zm43.2.48q-5.44,0-7.52-2.64t-2.08-9.744q0-5.792.352-12.48a1.947,1.947,0,0,1,.592-1.28,1.683,1.683,0,0,1,1.3-.48h.768a1.706,1.706,0,0,1,1.232.576,1.72,1.72,0,0,1,.464,1.28q-.32,6.88-.32,12.384A18.831,18.831,0,0,0,586.8-5.3a4.068,4.068,0,0,0,1.616,2.432,6.042,6.042,0,0,0,3.04.624q5.536,0,9.024-7.552a1.957,1.957,0,0,1,1.008-.976,1.8,1.8,0,0,1,1.392-.048l.416.192a1.745,1.745,0,0,1,1.024.96,1.559,1.559,0,0,1,0,1.376Q599.936,1.824,591.456,1.824ZM620.48-1.7a4.424,4.424,0,0,0,2.912-.72,3.656,3.656,0,0,0,.832-2.7.352.352,0,0,0-.256-.352,8.622,8.622,0,0,0-3.072-.672,5.32,5.32,0,0,0-2.7.512,1.723,1.723,0,0,0-.816,1.568,2.07,2.07,0,0,0,.816,1.744A3.694,3.694,0,0,0,620.48-1.7ZM613.344-18.88a1.751,1.751,0,0,1-1.28-.544,1.752,1.752,0,0,1-.544-1.28,1.7,1.7,0,0,1,.544-1.264,1.778,1.778,0,0,1,1.28-.528h10.592a.255.255,0,0,0,.288-.288v-.992a1.778,1.778,0,0,1,.528-1.28,1.7,1.7,0,0,1,1.264-.544h.448a1.7,1.7,0,0,1,1.264.544,1.778,1.778,0,0,1,.528,1.28v.992a.255.255,0,0,0,.288.288h6.112a1.778,1.778,0,0,1,1.28.528,1.7,1.7,0,0,1,.544,1.264,1.752,1.752,0,0,1-.544,1.28,1.751,1.751,0,0,1-1.28.544h-6.112q-.288,0-.288.256v2.24a.255.255,0,0,0,.288.288h4.992a1.7,1.7,0,0,1,1.248.512,1.7,1.7,0,0,1,.512,1.248,1.752,1.752,0,0,1-.512,1.264,1.673,1.673,0,0,1-1.248.528h-4.992a.255.255,0,0,0-.288.288v4.608a.49.49,0,0,0,.224.416,39.287,39.287,0,0,1,5.984,4.352,1.643,1.643,0,0,1,.608,1.248,1.733,1.733,0,0,1-.48,1.312l-.1.1a1.837,1.837,0,0,1-1.264.592,1.661,1.661,0,0,1-1.3-.464q-2.016-1.76-3.616-2.912-.224-.16-.288.1a5.349,5.349,0,0,1-2.32,3.7A9.9,9.9,0,0,1,620.48,1.92,8.178,8.178,0,0,1,615.152.336a5.371,5.371,0,0,1-1.936-4.4,5.156,5.156,0,0,1,1.776-4.08Q616.768-9.7,620.48-9.7a12.523,12.523,0,0,1,3.488.48q.256.064.256-.192v-2.848a.255.255,0,0,0-.288-.288h-9.472a1.7,1.7,0,0,1-1.248-.512A1.7,1.7,0,0,1,612.7-14.3a1.752,1.752,0,0,1,.512-1.264,1.673,1.673,0,0,1,1.248-.528h9.472a.255.255,0,0,0,.288-.288v-2.208a.255.255,0,0,0-.288-.288ZM656.8-9.456a2.671,2.671,0,0,0,.9-2.064,2.671,2.671,0,0,0-.9-2.064,3.29,3.29,0,0,0-2.3-.816,3.289,3.289,0,0,0-2.3.816,2.671,2.671,0,0,0-.9,2.064,2.671,2.671,0,0,0,.9,2.064,3.289,3.289,0,0,0,2.3.816A3.29,3.29,0,0,0,656.8-9.456ZM643.84-19.2a1.635,1.635,0,0,1-1.2-.5,1.635,1.635,0,0,1-.5-1.2,1.688,1.688,0,0,1,.5-1.216,1.609,1.609,0,0,1,1.2-.512h13.152q.288,0,.288-.256v-1.44a1.752,1.752,0,0,1,.544-1.28,1.752,1.752,0,0,1,1.28-.544h.416a1.751,1.751,0,0,1,1.28.544,1.752,1.752,0,0,1,.544,1.28v1.408q0,.288.256.288h6.56a1.609,1.609,0,0,1,1.2.512,1.688,1.688,0,0,1,.5,1.216,1.635,1.635,0,0,1-.5,1.2,1.635,1.635,0,0,1-1.2.5H661.6q-.256,0-.256.288v5.792a1.379,1.379,0,0,0,.1.544,11.168,11.168,0,0,1,.736,4.032q0,4.544-2.368,7.008t-7.84,3.328a1.677,1.677,0,0,1-1.36-.352,2.046,2.046,0,0,1-.784-1.216V.1a1.624,1.624,0,0,1,.3-1.3,1.767,1.767,0,0,1,1.168-.72,12.37,12.37,0,0,0,4.928-1.552,4.589,4.589,0,0,0,1.856-2.9.142.142,0,0,1,.016-.064.142.142,0,0,0,.016-.064v-.032h-.1a6.429,6.429,0,0,1-4.16,1.312A6.558,6.558,0,0,1,649.1-6.992a6.021,6.021,0,0,1-1.84-4.528,5.956,5.956,0,0,1,1.872-4.544,6.791,6.791,0,0,1,4.848-1.76,7.185,7.185,0,0,1,3.2.736q.032,0,.032.016t.032.016a.028.028,0,0,0,.032-.032v-1.824a.255.255,0,0,0-.288-.288ZM687.808-7.04a1.816,1.816,0,0,1-1.312-.528,1.85,1.85,0,0,1-.576-1.3l-.48-12.672a1.692,1.692,0,0,1,.48-1.28,1.649,1.649,0,0,1,1.248-.544H688.9a1.649,1.649,0,0,1,1.248.544,1.692,1.692,0,0,1,.48,1.28l-.48,12.672a1.849,1.849,0,0,1-.576,1.3,1.816,1.816,0,0,1-1.312.528Zm.768,2.56a1.7,1.7,0,0,1,1.264.544,1.778,1.778,0,0,1,.528,1.28v.832a1.778,1.778,0,0,1-.528,1.28A1.7,1.7,0,0,1,688.576,0h-1.088a1.7,1.7,0,0,1-1.264-.544,1.778,1.778,0,0,1-.528-1.28v-.832a1.778,1.778,0,0,1,.528-1.28,1.7,1.7,0,0,1,1.264-.544Z" transform="translate(331 3203)" fill="#1a1311"/></g></svg>