<svg xmlns="http://www.w3.org/2000/svg" xmlns:xlink="http://www.w3.org/1999/xlink" width="152.093" height="120.349" viewBox="0 0 152.093 120.349">
  <defs>
    <clipPath id="clip-path">
      <rect id="長方形_26033" data-name="長方形 26033" width="152.093" height="120.349" fill="none"/>
    </clipPath>
  </defs>
  <g id="reason_02" transform="translate(-46.87 -37.088)">
    <g id="グループ_757" data-name="グループ 757" transform="translate(46.87 37.088)" clip-path="url(#clip-path)">
      <path id="パス_61388" data-name="パス 61388" d="M130.771,123.789l-.175-7.735h-1.052q.091,3.851.182,7.7h-1.334q-.1-3.852-.192-7.7h-1.252q.1,3.851.2,7.7h-1.137c0,.01,0,.021,0,.031Z" transform="translate(-75.742 -69.756)" fill="#e7e6e2"/>
      <path id="パス_61389" data-name="パス 61389" d="M198.669,123.789v-.031h-1.334q.013-3.852.025-7.7h-1.252q-.008,3.851-.016,7.7h-1.334q0-3.852.005-7.7h-1.2q0,3.867,0,7.735Z" transform="translate(-116.343 -69.756)" fill="#e7e6e2"/>
      <path id="パス_61390" data-name="パス 61390" d="M61.551,141.632h0q.134,2.531.268,5.063-.134-2.531-.268-5.063" transform="translate(-36.996 -85.13)" fill="#e7e6e2"/>
      <path id="パス_61391" data-name="パス 61391" d="M61.706,74.241H73.033l.565-.021v.021H84.36q.16,5.866.32,11.733h4.8q-.133-5.867-.265-11.733h11.329l.564-.007v.007h10.761l.006,11.733h5.149q.032-7.155.065-14.309H57.839q-.09-1.686-.179-3.373h0q.469,8.841.938,17.682h3.688q-.29-5.867-.58-11.733" transform="translate(-34.657 -41.048)" fill="#e7e6e2"/>
      <path id="パス_61392" data-name="パス 61392" d="M61.22,123.789h3.654v-.031H63.681q-.194-3.852-.39-7.7H62.039q.2,3.851.4,7.7H61.218q.03.568.06,1.137h0q-.029-.552-.058-1.106" transform="translate(-36.796 -69.756)" fill="#e7e6e2"/>
      <path id="パス_61393" data-name="パス 61393" d="M248.552,104.793q.038-1.821.078-3.642h29.748q.369-7.229.738-14.459-1.523,1.942-3.038,3.884-.883,1.135-1.763,2.269l-.114.148-.18.05L272.4,93.5q-.337,3.268-.674,6.537L270.6,99.92q.312-3.046.628-6.093l-3.329.936-.071-.251q-.008.226-.018.452l-.022.543H253.456l.016-.58q.165-6.214.331-12.429l.014-.55h14.508l-.023.588L267.863,93.6,273.535,92l1.273-1.638q-1.7-1.116-3.418-2.232l.617-.947q1.754,1.142,3.5,2.285,1.847-2.37,3.71-4.739.2-3.992.408-7.985H249.152q-.3,14.023-.6,28.046" transform="translate(-149.396 -46.13)" fill="#e7e6e2"/>
      <path id="パス_61394" data-name="パス 61394" d="M247.236,164.405q.007-.339.014-.679-.313,14.647-.627,29.295a7.273,7.273,0,0,1,.762-.045,7.112,7.112,0,0,1,1.154.093.281.281,0,0,1,.236.285q-.01.437-.02.877h4q.382-13.766.766-27.532H269.44q-.362,8.26-.724,16.519H275.7q.492-9.643.984-19.286c-.008.158-.016.316-.024.474Z" transform="translate(-148.237 -98.41)" fill="#e7e6e2"/>
      <path id="パス_61395" data-name="パス 61395" d="M301.047,99.216l-.617.947q1.713,1.116,3.418,2.232l-1.273,1.638-5.672,1.594q-.018.457-.036.914l.071.251,3.329-.936q-.315,3.046-.628,6.093l1.125.115q.336-3.268.675-6.537l1.623-.456.179-.05.114-.148q.88-1.135,1.763-2.269,1.512-1.942,3.038-3.884.05-.98.1-1.96-1.863,2.37-3.709,4.739-1.745-1.142-3.5-2.285" transform="translate(-178.436 -58.16)" fill="#c8c5bd"/>
      <path id="パス_61396" data-name="パス 61396" d="M297.046,121.906" transform="translate(-178.544 -73.273)" fill="#c8c5bd"/>
      <path id="パス_61397" data-name="パス 61397" d="M220.258,146.932a1.152,1.152,0,0,1,.134-.48,1.315,1.315,0,0,1,.312-.406c.312-.262.631-.523.955-.778a.758.758,0,0,0,.179-.226.606.606,0,0,0,.077-.241q-.025-1.205-.05-2.406a.277.277,0,0,1-.182-.065.282.282,0,0,1-.095-.217q.011-.524.022-1.048a.282.282,0,0,1,.236-.273c.137-.022.275-.035.414-.051q.313-14.647.627-29.295.019-.911.039-1.822c0-.009,0-.019,0-.028l.1-4.8q.3-14.023.6-28.046H206.3q-.032,7.154-.065,14.309h.091q0,.686-.006,1.372h-.091q-.018,3.852-.035,7.7h0v.031q-.023,5.262-.048,10.522,0,.828-.008,1.657,0,.436,0,.872h0q-.025,5.591-.051,11.181h1.849q-.031,4.635-.061,9.269h7.586l-.19,13.345h4.985v-.078Z" transform="translate(-123.872 -46.13)" fill="#bbab94"/>
      <path id="パス_61398" data-name="パス 61398" d="M84.135,117.93H82.884l.078,1.764H84.21q-.038-.882-.076-1.764" transform="translate(-49.819 -70.884)" fill="#947864"/>
      <path id="パス_61399" data-name="パス 61399" d="M90.638,117.93H89.387l.073,1.764h1.249q-.035-.882-.071-1.764" transform="translate(-53.727 -70.884)" fill="#947864"/>
      <path id="パス_61400" data-name="パス 61400" d="M77.631,117.93H76.38l.083,1.764h1.249Z" transform="translate(-45.91 -70.883)" fill="#947864"/>
      <path id="パス_61401" data-name="パス 61401" d="M116.651,117.93H115.4l.055,1.764H116.7Z" transform="translate(-69.363 -70.884)" fill="#947864"/>
      <path id="パス_61402" data-name="パス 61402" d="M116.875,125.193h-1.247l.055,1.764h1.245q-.027-.883-.053-1.764" transform="translate(-69.5 -75.249)" fill="#947864"/>
      <path id="パス_61403" data-name="パス 61403" d="M78.564,83.227l.565-.022H67.8q.29,5.866.58,11.732H79.013q-.225-5.855-.449-11.711m-9.476,1.106h8.449q.022.567.045,1.134H69.142q-.027-.567-.054-1.134m.14,2.9h8.425l.045,1.134H69.282q-.028-.567-.055-1.134m.14,2.9h8.4l.045,1.133H69.422q-.028-.567-.055-1.133m.194,4.031q-.027-.567-.055-1.133h8.377l.045,1.133Z" transform="translate(-40.753 -50.012)" fill="#947864"/>
      <path id="パス_61404" data-name="パス 61404" d="M97.614,83.205q.225,5.866.45,11.732H108.7l-.321-11.732Zm1.154,1.127h8.449l.032,1.134H98.81l-.042-1.134m.107,2.9H107.3q.017.567.033,1.134H98.916q-.02-.567-.041-1.134m.107,2.9h8.4l.032,1.133H99.023Q99,90.7,98.981,90.129m.148,4.031q-.021-.567-.042-1.133h8.377l.032,1.133Z" transform="translate(-58.672 -50.012)" fill="#947864"/>
      <path id="パス_61405" data-name="パス 61405" d="M77.966,125.193H76.719l.083,1.764h1.245l-.08-1.764" transform="translate(-46.113 -75.249)" fill="#947864"/>
      <path id="パス_61406" data-name="パス 61406" d="M80.258,116.054H80.17l.3,7.7H79.136l-.047-1.159H77.846l.048,1.159H76.559q-.025-.58-.05-1.159H75.266q.025.58.051,1.159H73.983q-.026-.58-.053-1.159H72.686q.028.58.054,1.159H71.407q-.028-.58-.056-1.159h-.179q-.027-.567-.055-1.134H71.3l-.085-1.765h-.179q-.027-.567-.055-1.133h.18l-.085-1.764h-.18l-.036-.748H69.785q.189,3.852.379,7.7h-.142v.031H80.555l-.3-7.735" transform="translate(-41.945 -69.756)" fill="#947864"/>
      <path id="パス_61407" data-name="パス 61407" d="M103.645,117.93h-1.251q.032.882.064,1.764h1.249q-.032-.882-.062-1.764" transform="translate(-61.545 -70.884)" fill="#947864"/>
      <path id="パス_61408" data-name="パス 61408" d="M109.7,123.789c0-.01,0-.021,0-.031h-.2q-.105-3.852-.212-7.7h-.976l.022.748h-.276q.025.882.051,1.764h.275q.016.567.032,1.133h-.275q.026.883.051,1.765h.274l.032,1.134h-.274l.034,1.159h-1.334l-.035-1.159h-1.244l.036,1.159H104.35l-.038-1.159h-1.243l.039,1.159h-1.334l-.041-1.159h-1.243q.021.579.042,1.159H99.2q-.145-3.852-.291-7.7h-.032l.3,7.735Z" transform="translate(-59.43 -69.756)" fill="#947864"/>
      <path id="パス_61409" data-name="パス 61409" d="M90.936,125.193H89.689q.036.883.073,1.764h1.245q-.035-.883-.071-1.764" transform="translate(-53.909 -75.249)" fill="#947864"/>
      <path id="パス_61410" data-name="パス 61410" d="M84.451,125.193H83.2l.078,1.764h1.245q-.038-.883-.076-1.764" transform="translate(-50.011 -75.249)" fill="#947864"/>
      <path id="パス_61411" data-name="パス 61411" d="M110.147,117.93H108.9q.031.882.06,1.764H110.2l-.057-1.764" transform="translate(-65.454 -70.884)" fill="#947864"/>
      <path id="パス_61412" data-name="パス 61412" d="M103.905,125.193h-1.247q.032.883.064,1.764h1.245l-.062-1.764" transform="translate(-61.704 -75.249)" fill="#947864"/>
      <path id="パス_61413" data-name="パス 61413" d="M110.39,125.193h-1.247q.03.883.059,1.764h1.245q-.029-.883-.058-1.764" transform="translate(-65.602 -75.249)" fill="#947864"/>
      <path id="パス_61414" data-name="パス 61414" d="M95.909,83.151l-.565.022-.565.022Q95,89.05,95.228,94.9H96.36q-.226-5.866-.45-11.732v-.022" transform="translate(-56.968 -49.979)" fill="#765f50"/>
      <path id="パス_61415" data-name="パス 61415" d="M97.466,123.789l-.3-7.735H96.037l.3,7.735Z" transform="translate(-57.724 -69.756)" fill="#765f50"/>
      <path id="パス_61416" data-name="パス 61416" d="M79.474,86.032H71.025q.028.567.054,1.134h8.439q-.022-.567-.045-1.134" transform="translate(-42.691 -51.711)" fill="#765f50"/>
      <path id="パス_61417" data-name="パス 61417" d="M79.8,93.3H71.375q.028.567.055,1.133h8.416L79.8,93.3" transform="translate(-42.901 -56.077)" fill="#765f50"/>
      <path id="パス_61418" data-name="パス 61418" d="M80.125,100.56h-8.4l.055,1.133H80.17q-.022-.567-.045-1.133" transform="translate(-43.111 -60.443)" fill="#765f50"/>
      <path id="パス_61419" data-name="パス 61419" d="M72.075,107.824q.028.567.055,1.133H80.5q-.023-.567-.045-1.133Z" transform="translate(-43.322 -64.809)" fill="#765f50"/>
      <path id="パス_61420" data-name="パス 61420" d="M90.561,116.054H89.309c.01.249.021.5.031.748h1.251q-.016-.374-.03-.748" transform="translate(-53.681 -69.756)" fill="#765f50"/>
      <path id="パス_61421" data-name="パス 61421" d="M84.052,116.054H82.8q.017.374.033.748h1.251l-.032-.748" transform="translate(-49.769 -69.756)" fill="#765f50"/>
      <path id="パス_61422" data-name="パス 61422" d="M77.545,116.054H76.293q.017.374.035.748h1.251q-.017-.374-.034-.748" transform="translate(-45.857 -69.756)" fill="#765f50"/>
      <path id="パス_61423" data-name="パス 61423" d="M72.688,116.8l-.036-.748h-.18q.018.374.036.748Z" transform="translate(-43.56 -69.757)" fill="#765f50"/>
      <path id="パス_61424" data-name="パス 61424" d="M72.83,123.485h.179q-.027-.567-.054-1.133h-.18q.028.567.055,1.133" transform="translate(-43.743 -73.542)" fill="#765f50"/>
      <path id="パス_61425" data-name="パス 61425" d="M77.836,122.352H76.587l.053,1.133h1.247l-.051-1.133" transform="translate(-46.034 -73.542)" fill="#765f50"/>
      <path id="パス_61426" data-name="パス 61426" d="M90.819,122.352H89.57q.024.567.047,1.133h1.247q-.023-.567-.046-1.133" transform="translate(-53.837 -73.542)" fill="#765f50"/>
      <path id="パス_61427" data-name="パス 61427" d="M84.328,122.352H83.079l.05,1.133h1.247q-.025-.567-.049-1.133" transform="translate(-49.936 -73.542)" fill="#765f50"/>
      <path id="パス_61428" data-name="パス 61428" d="M78.171,129.616H76.926l.053,1.134h1.244Z" transform="translate(-46.238 -77.908)" fill="#765f50"/>
      <path id="パス_61429" data-name="パス 61429" d="M84.644,129.616H83.4l.05,1.134h1.243Z" transform="translate(-50.128 -77.908)" fill="#765f50"/>
      <path id="パス_61430" data-name="パス 61430" d="M73.18,130.75h.179q-.027-.567-.054-1.134h-.179q.028.567.055,1.134" transform="translate(-43.953 -77.908)" fill="#765f50"/>
      <path id="パス_61431" data-name="パス 61431" d="M91.117,129.616H89.872q.023.567.047,1.134h1.243q-.023-.567-.046-1.134" transform="translate(-54.019 -77.908)" fill="#765f50"/>
      <path id="パス_61432" data-name="パス 61432" d="M108.956,86.032h-8.449q.02.567.041,1.134h8.439l-.032-1.134" transform="translate(-60.411 -51.711)" fill="#765f50"/>
      <path id="パス_61433" data-name="パス 61433" d="M109.2,93.3h-8.425q.021.567.042,1.133h8.416L109.2,93.3" transform="translate(-60.572 -56.077)" fill="#765f50"/>
      <path id="パス_61434" data-name="パス 61434" d="M109.442,100.56h-8.4q.021.567.041,1.133h8.392l-.032-1.133" transform="translate(-60.732 -60.443)" fill="#765f50"/>
      <path id="パス_61435" data-name="パス 61435" d="M101.307,107.824q.021.567.042,1.133h8.368q-.017-.567-.032-1.133Z" transform="translate(-60.892 -64.809)" fill="#765f50"/>
      <path id="パス_61436" data-name="パス 61436" d="M110.084,116.054h-1.252q.013.374.026.748h1.251q-.013-.374-.025-.748" transform="translate(-65.415 -69.756)" fill="#765f50"/>
      <path id="パス_61437" data-name="パス 61437" d="M103.577,116.054h-1.252q.014.374.028.748H103.6l-.026-.748" transform="translate(-61.504 -69.756)" fill="#765f50"/>
      <path id="パス_61438" data-name="パス 61438" d="M116.593,116.054h-1.252q.012.374.024.748h1.251q-.011-.374-.022-.748" transform="translate(-69.327 -69.756)" fill="#765f50"/>
      <path id="パス_61439" data-name="パス 61439" d="M122.125,116.054h-.276l.022.748h.276l-.022-.748" transform="translate(-73.239 -69.756)" fill="#765f50"/>
      <path id="パス_61440" data-name="パス 61440" d="M122.305,122.352h-.275q.016.567.033,1.133h.275l-.032-1.133" transform="translate(-73.348 -73.542)" fill="#765f50"/>
      <path id="パス_61441" data-name="パス 61441" d="M103.8,122.352h-1.248q.02.567.041,1.133h1.247q-.02-.567-.04-1.133" transform="translate(-61.642 -73.542)" fill="#765f50"/>
      <path id="パス_61442" data-name="パス 61442" d="M110.295,122.352h-1.249q.019.567.038,1.133h1.247l-.037-1.133" transform="translate(-65.544 -73.542)" fill="#765f50"/>
      <path id="パス_61443" data-name="パス 61443" d="M116.787,122.352h-1.249q.017.567.036,1.133h1.247q-.017-.567-.034-1.133" transform="translate(-69.446 -73.542)" fill="#765f50"/>
      <path id="パス_61444" data-name="パス 61444" d="M110.537,129.616h-1.245l.039,1.134h1.243Z" transform="translate(-65.692 -77.908)" fill="#765f50"/>
      <path id="パス_61445" data-name="パス 61445" d="M117.01,129.616h-1.245q.018.567.036,1.134h1.243q-.017-.567-.034-1.134" transform="translate(-69.582 -77.908)" fill="#765f50"/>
      <path id="パス_61446" data-name="パス 61446" d="M104.064,129.616h-1.245q.021.567.041,1.134H104.1q-.02-.567-.04-1.134" transform="translate(-61.801 -77.908)" fill="#765f50"/>
      <path id="パス_61447" data-name="パス 61447" d="M122.513,129.616h-.274q.016.567.033,1.134h.274Z" transform="translate(-73.474 -77.908)" fill="#765f50"/>
      <path id="パス_61448" data-name="パス 61448" d="M181.72,125.193h-1.247q0,.883.01,1.764h1.245q0-.883-.008-1.764" transform="translate(-108.476 -75.249)" fill="#947864"/>
      <path id="パス_61449" data-name="パス 61449" d="M149.166,117.93h-1.251l.033,1.764H149.2q-.016-.882-.031-1.764" transform="translate(-88.907 -70.884)" fill="#947864"/>
      <path id="パス_61450" data-name="パス 61450" d="M155.67,117.93h-1.251l.028,1.764H155.7q-.013-.882-.026-1.764" transform="translate(-92.816 -70.884)" fill="#947864"/>
      <path id="パス_61451" data-name="パス 61451" d="M142.813,125.193h-1.247l.037,1.764h1.245q-.017-.883-.035-1.764" transform="translate(-85.09 -75.249)" fill="#947864"/>
      <path id="パス_61452" data-name="パス 61452" d="M142.663,117.93h-1.251l.037,1.764H142.7q-.017-.882-.035-1.764" transform="translate(-84.998 -70.884)" fill="#947864"/>
      <path id="パス_61453" data-name="パス 61453" d="M175.235,125.193h-1.247q.007.883.014,1.764h1.245q-.006-.883-.012-1.764" transform="translate(-104.578 -75.249)" fill="#947864"/>
      <path id="パス_61454" data-name="パス 61454" d="M149.3,125.193H148.05q.016.883.033,1.764h1.245q-.016-.883-.031-1.764" transform="translate(-88.988 -75.249)" fill="#947864"/>
      <path id="パス_61455" data-name="パス 61455" d="M175.179,117.93h-1.251q.007.882.015,1.764h1.249Z" transform="translate(-104.542 -70.884)" fill="#947864"/>
      <path id="パス_61456" data-name="パス 61456" d="M181.683,117.93h-1.251l.01,1.764h1.249q0-.882-.008-1.764" transform="translate(-108.451 -70.884)" fill="#947864"/>
      <path id="パス_61457" data-name="パス 61457" d="M155.781,125.193h-1.247q.014.883.028,1.764h1.245q-.013-.883-.026-1.764" transform="translate(-92.885 -75.249)" fill="#947864"/>
      <path id="パス_61458" data-name="パス 61458" d="M177.705,123.789q0-3.867,0-7.735h-.05q0,3.851,0,7.7h-1.334q0-.58,0-1.159h-1.244l0,1.159h-1.334q0-.58-.005-1.159H172.5q0,.579.006,1.159h-1.334q0-.58-.008-1.159h-1.243l.009,1.159h-1.334q-.006-.58-.012-1.159h-.339q-.005-.567-.011-1.134h.34q-.009-.883-.017-1.765h-.34q-.005-.567-.011-1.133h.34l-.017-1.764h-.341q0-.374-.008-.748h-.91q.042,3.851.083,7.7h-.176c0,.01,0,.021,0,.031Z" transform="translate(-100.482 -69.756)" fill="#947864"/>
      <path id="パス_61459" data-name="パス 61459" d="M166.571,83.205q.068,5.866.136,11.732h10.631q0-5.866-.006-11.732Zm1.125,1.127h8.449l0,1.134h-8.439Zm.029,2.9h8.425q0,.567,0,1.134h-8.416q-.006-.567-.011-1.134m.029,2.9h8.4q0,.567,0,1.133h-8.392q-.006-.567-.011-1.133m.04,4.031q-.006-.567-.011-1.133h8.377q0,.566,0,1.133Z" transform="translate(-100.12 -50.012)" fill="#947864"/>
      <path id="パス_61460" data-name="パス 61460" d="M148.209,123.789c0-.01,0-.021,0-.031h-.028q-.047-3.852-.094-7.7h-1.019q0,.374.01.748h-.233q.012.882.024,1.764h.232q.007.567.015,1.133h-.232q.012.883.024,1.765h.231q.008.567.015,1.134h-.231l.016,1.159H145.6q-.008-.58-.017-1.159h-1.244q.01.579.018,1.159h-1.334q-.01-.58-.02-1.159h-1.243q.011.579.022,1.159h-1.334l-.023-1.159h-1.244q.013.579.024,1.159h-1.334l-.172-7.7h-.2l.175,7.735Z" transform="translate(-82.648 -69.756)" fill="#947864"/>
      <path id="パス_61461" data-name="パス 61461" d="M188.186,117.93h-1.251q0,.882.005,1.764h1.249q0-.882,0-1.764" transform="translate(-112.36 -70.884)" fill="#947864"/>
      <path id="パス_61462" data-name="パス 61462" d="M147.523,83.211l.566-.006H136.761q.132,5.866.265,11.732h10.632Q147.59,89.074,147.523,83.211Zm-9.507,1.121h8.449q.008.567.015,1.134H138.04q-.012-.567-.024-1.134m.062,2.9H146.5q.007.567.015,1.134H138.1q-.012-.567-.024-1.134m.062,2.9h8.4q.008.567.015,1.133h-8.392q-.012-.567-.024-1.133m.086,4.031q-.012-.567-.024-1.133h8.377q.008.566.015,1.133Z" transform="translate(-82.202 -50.012)" fill="#947864"/>
      <path id="パス_61463" data-name="パス 61463" d="M188.205,125.193h-1.247q0,.883.005,1.764h1.245q0-.883,0-1.764" transform="translate(-112.374 -75.249)" fill="#947864"/>
      <path id="パス_61464" data-name="パス 61464" d="M164.868,83.189l-.564.007-.566.006.135,11.726H165q-.068-5.866-.136-11.732Z" transform="translate(-98.417 -50.002)" fill="#765f50"/>
      <path id="パス_61465" data-name="パス 61465" d="M165.47,135.4v-.031h-1.131c0,.01,0,.021,0,.031Z" transform="translate(-98.778 -81.363)" fill="#765f50"/>
      <path id="パス_61466" data-name="パス 61466" d="M148.356,86.032h-8.449q.012.567.024,1.134h8.44q-.008-.567-.015-1.134" transform="translate(-84.093 -51.711)" fill="#765f50"/>
      <path id="パス_61467" data-name="パス 61467" d="M148.487,93.3h-8.425q.012.567.024,1.133H148.5q-.007-.566-.015-1.133" transform="translate(-84.186 -56.077)" fill="#765f50"/>
      <path id="パス_61468" data-name="パス 61468" d="M148.618,100.56h-8.4q.013.567.024,1.133h8.392q-.008-.567-.015-1.133" transform="translate(-84.28 -60.443)" fill="#765f50"/>
      <path id="パス_61469" data-name="パス 61469" d="M140.373,107.824q.012.567.024,1.133h8.368q-.007-.567-.015-1.133Z" transform="translate(-84.373 -64.809)" fill="#765f50"/>
      <path id="パス_61470" data-name="パス 61470" d="M161.13,116.054H160.9q0,.374.01.748h.232q0-.374-.01-.748" transform="translate(-96.71 -69.756)" fill="#765f50"/>
      <path id="パス_61471" data-name="パス 61471" d="M149.132,116.054H147.88q.007.374.014.748h1.251q-.006-.374-.013-.748" transform="translate(-88.886 -69.756)" fill="#765f50"/>
      <path id="パス_61472" data-name="パス 61472" d="M155.641,116.054h-1.252l.012.748h1.25c0-.249-.007-.5-.01-.748" transform="translate(-92.798 -69.756)" fill="#765f50"/>
      <path id="パス_61473" data-name="パス 61473" d="M142.625,116.054h-1.252l.016.748h1.251q-.008-.374-.015-.748" transform="translate(-84.974 -69.756)" fill="#765f50"/>
      <path id="パス_61474" data-name="パス 61474" d="M149.246,122.352H148q.011.567.021,1.133h1.248q-.01-.567-.02-1.133" transform="translate(-88.956 -73.542)" fill="#765f50"/>
      <path id="パス_61475" data-name="パス 61475" d="M142.754,122.352h-1.249q.012.567.024,1.133h1.247q-.011-.567-.022-1.133" transform="translate(-85.054 -73.542)" fill="#765f50"/>
      <path id="パス_61476" data-name="パス 61476" d="M161.213,122.352h-.232q.008.567.016,1.133h.232q-.008-.567-.015-1.133" transform="translate(-96.76 -73.542)" fill="#765f50"/>
      <path id="パス_61477" data-name="パス 61477" d="M155.738,122.352h-1.249q.009.567.018,1.133h1.247q-.008-.567-.017-1.133" transform="translate(-92.858 -73.542)" fill="#765f50"/>
      <path id="パス_61478" data-name="パス 61478" d="M149.377,129.616h-1.245l.021,1.134H149.4q-.01-.567-.02-1.134" transform="translate(-89.037 -77.908)" fill="#765f50"/>
      <path id="パス_61479" data-name="パス 61479" d="M155.85,129.616H154.6l.018,1.134h1.244l-.017-1.134" transform="translate(-92.928 -77.908)" fill="#765f50"/>
      <path id="パス_61480" data-name="パス 61480" d="M161.309,129.616h-.231l.015,1.134h.231q-.007-.567-.015-1.134" transform="translate(-96.818 -77.908)" fill="#765f50"/>
      <path id="パス_61481" data-name="パス 61481" d="M142.9,129.616h-1.245l.024,1.134h1.244l-.023-1.134" transform="translate(-85.146 -77.908)" fill="#765f50"/>
      <path id="パス_61482" data-name="パス 61482" d="M177.839,86.032H169.39l.011,1.134h8.439Z" transform="translate(-101.814 -51.711)" fill="#765f50"/>
      <path id="パス_61483" data-name="パス 61483" d="M177.887,93.3h-8.425q.005.567.011,1.133h8.416q0-.566,0-1.133" transform="translate(-101.858 -56.077)" fill="#765f50"/>
      <path id="パス_61484" data-name="パス 61484" d="M177.935,100.56h-8.4q.005.567.011,1.133h8.392q0-.567,0-1.133" transform="translate(-101.901 -60.443)" fill="#765f50"/>
      <path id="パス_61485" data-name="パス 61485" d="M169.606,107.824q.006.567.011,1.133h8.368q0-.567,0-1.133Z" transform="translate(-101.944 -64.809)" fill="#765f50"/>
      <path id="パス_61486" data-name="パス 61486" d="M188.181,116.054h-1.252l0,.748h1.251v-.748" transform="translate(-112.357 -69.756)" fill="#765f50"/>
      <path id="パス_61487" data-name="パス 61487" d="M181.673,116.054h-1.252q0,.374,0,.748h1.251q0-.374,0-.748" transform="translate(-108.445 -69.756)" fill="#765f50"/>
      <path id="パス_61488" data-name="パス 61488" d="M175.164,116.054h-1.252q0,.374.006.748h1.251q0-.374-.005-.748" transform="translate(-104.532 -69.756)" fill="#765f50"/>
      <path id="パス_61489" data-name="パス 61489" d="M170.035,116.8l-.007-.748h-.341q0,.374.008.748Z" transform="translate(-101.993 -69.757)" fill="#765f50"/>
      <path id="パス_61490" data-name="パス 61490" d="M175.213,122.352h-1.248q0,.567.009,1.133h1.247q0-.567-.008-1.133" transform="translate(-104.564 -73.542)" fill="#765f50"/>
      <path id="パス_61491" data-name="パス 61491" d="M181.706,122.352h-1.249q0,.567.006,1.133h1.247q0-.567-.005-1.133" transform="translate(-108.466 -73.542)" fill="#765f50"/>
      <path id="パス_61492" data-name="パス 61492" d="M188.2,122.352h-1.249q0,.567,0,1.133H188.2q0-.567,0-1.133" transform="translate(-112.368 -73.542)" fill="#765f50"/>
      <path id="パス_61493" data-name="パス 61493" d="M169.761,123.485h.34l-.011-1.133h-.34q.005.567.011,1.133" transform="translate(-102.031 -73.542)" fill="#765f50"/>
      <path id="パス_61494" data-name="パス 61494" d="M169.833,130.75h.339q-.005-.567-.011-1.134h-.339q.005.567.011,1.134" transform="translate(-102.074 -77.908)" fill="#765f50"/>
      <path id="パス_61495" data-name="パス 61495" d="M175.27,129.616h-1.245q0,.567.01,1.134h1.243q0-.567-.008-1.134" transform="translate(-104.6 -77.908)" fill="#765f50"/>
      <path id="パス_61496" data-name="パス 61496" d="M188.216,129.616h-1.245l0,1.134h1.244l0-1.134" transform="translate(-112.382 -77.908)" fill="#765f50"/>
      <path id="パス_61497" data-name="パス 61497" d="M181.742,129.616H180.5l.007,1.134h1.244q0-.567-.005-1.134" transform="translate(-108.49 -77.908)" fill="#765f50"/>
      <path id="パス_61498" data-name="パス 61498" d="M74.08,196.6H71.567q-.247-5.612-.493-11.224H63.856l-.608-11.464-.341-6.242,57.17.193q-.025,5.591-.051,11.181h-7.531q-.01-2.974-.018-5.947h-9.862q.1,7.666.2,15.332h5.151c0,.07,0,.141,0,.211q-2.792,1.035-5.575,2.069l.075,5.889H98.752" transform="translate(-37.811 -100.783)" fill="#c9c6b5"/>
      <path id="パス_61499" data-name="パス 61499" d="M62.621,161.818l.318,6c.654-.593,1.317-1.186,1.976-1.778q-.042-.848-.086-1.7H62.755q-.067-1.264-.134-2.529" transform="translate(-37.639 -97.263)" fill="#c9c6b5"/>
      <path id="パス_61500" data-name="パス 61500" d="M72.647,168.306l.164-.148h-.191c.009.049.018.1.026.148" transform="translate(-43.65 -101.074)" fill="#c9c6b5"/>
      <path id="パス_61501" data-name="パス 61501" d="M83.322,245.249h93.922q-.824-2.53-1.646-5.059H81.2q1.061,2.53,2.125,5.059" transform="translate(-48.805 -144.37)" fill="#89877b"/>
      <path id="パス_61502" data-name="パス 61502" d="M61.354,137.912q.135,2.532.268,5.063.08,1.495.158,2.99h2.08q-.042-.824-.084-1.648L65,144.207c.106.586.209,1.172.315,1.759H68.81c.519-.459,1.032-.918,1.553-1.377l.909.669c-.234.236-.463.472-.7.708h48.5q.025-5.261.048-10.522h-57.9l.059,1.106" transform="translate(-36.799 -81.41)" fill="#4086c8"/>
      <path id="パス_61503" data-name="パス 61503" d="M248.4,141.561q-.051,2.4-.1,4.8h32.333q.227-4.223.455-8.445H248.474q-.039,1.822-.078,3.642" transform="translate(-149.24 -82.898)" fill="#4086c8"/>
      <path id="パス_61504" data-name="パス 61504" d="M165.249,184.112q.078,6.535.156,13.07h4.068q-.024-3.434-.049-6.867l3.486-1.344q-.01-2.43-.02-4.859Z" transform="translate(-99.325 -110.663)" fill="#6dbdd9"/>
      <path id="パス_61505" data-name="パス 61505" d="M163.718,195.479q-.078-6.535-.156-13.07h7.64q.01,2.429.02,4.859l.11-.042h.989q-.009-2.974-.018-5.947h-9.862q.1,7.666.2,15.332h5.151q0-.566-.008-1.131Z" transform="translate(-97.638 -108.96)" fill="#fff"/>
      <path id="パス_61506" data-name="パス 61506" d="M263.755,103.913h12.083q.224-5.649.448-11.3H264.056q-.15,5.649-.3,11.3" transform="translate(-158.534 -55.668)" fill="#6dbdd9"/>
      <path id="パス_61507" data-name="パス 61507" d="M275.691,90.369l.023-.588H261.206l-.014.55q-.166,6.214-.331,12.428l-.016.58h14.332l.021-.543q.01-.226.018-.452.019-.457.036-.914.22-5.532.439-11.063m-1.6,11.841H262.006q.151-5.649.3-11.3h12.231q-.224,5.649-.448,11.3" transform="translate(-156.785 -53.964)" fill="#fff"/>
      <path id="パス_61508" data-name="パス 61508" d="M250.056,71.665h30.471q.086-1.686.172-3.373H250.128q-.036,1.686-.072,3.373" transform="translate(-150.3 -41.048)" fill="#c9c9c6"/>
      <path id="パス_61509" data-name="パス 61509" d="M57.661,68.292q.089,1.686.179,3.373h59.251q.007-1.686.016-3.373Z" transform="translate(-34.658 -41.048)" fill="#c9c9c6"/>
      <path id="パス_61510" data-name="パス 61510" d="M224.028,68.292h-17.38q-.008,1.686-.016,3.373h17.323q.037-1.686.072-3.373" transform="translate(-124.199 -41.048)" fill="#a39580"/>
      <path id="パス_61511" data-name="パス 61511" d="M268.527,201.084q.462-13.231.923-26.461h1.873q-.479,13-.956,26l.872-.218h-.724l.422-11.688,1.559-.432q.263-6.833.526-13.665H274.9l-.531,13.148.269-.075h3.111q.362-8.26.725-16.519H262.552q-.383,13.766-.766,27.532-.07,2.53-.141,5.059h6.077q.042-1.252.084-2.5l.72-.179m-1.659.142h-1.822q.415-13.3.831-26.6h1.873Z" transform="translate(-157.266 -102.889)" fill="#b2ab86"/>
      <path id="パス_61512" data-name="パス 61512" d="M62.755,164.347H64.83q-.064-1.264-.128-2.529h-2.08q.067,1.265.134,2.529" transform="translate(-37.639 -97.263)" fill="#aeac9d"/>
      <path id="パス_61513" data-name="パス 61513" d="M71.939,164.347h.191c.943-.843,1.9-1.686,2.85-2.529H71.486q.228,1.264.453,2.529" transform="translate(-42.968 -97.263)" fill="#aeac9d"/>
      <path id="パス_61514" data-name="パス 61514" d="M129.409,164.347h0q0-.436,0-.872,0-.828.007-1.657h-48.5q-1.252,1.264-2.489,2.529h50.977Z" transform="translate(-47.143 -97.263)" fill="#aeac9d"/>
      <path id="パス_61515" data-name="パス 61515" d="M321.912,161.617q.012-.237.024-.474.052-1.027.1-2.056-.064,1.264-.129,2.529" transform="translate(-193.49 -95.622)" fill="#e0e0e1"/>
      <path id="パス_61516" data-name="パス 61516" d="M248.173,160.938c0,.226-.01.453-.014.679h29.423q.064-1.265.129-2.529h-29.5c0,.009,0,.019,0,.028q-.02.91-.039,1.822" transform="translate(-149.16 -95.622)" fill="#c9c9c6"/>
      <path id="パス_61517" data-name="パス 61517" d="M289.374,179.815q-.263,6.833-.526,13.665l1.867-.517q.266-6.573.531-13.147Z" transform="translate(-173.616 -108.081)" fill="#fff"/>
      <path id="パス_61518" data-name="パス 61518" d="M279.819,179.815l-.923,26.461,1.84-.459q.478-13,.956-26Z" transform="translate(-167.635 -108.081)" fill="#fff"/>
      <path id="パス_61519" data-name="パス 61519" d="M270.169,206.418h1.822l.882-26.6H271q-.415,13.3-.831,26.6" transform="translate(-162.389 -108.081)" fill="#fff"/>
      <path id="パス_61520" data-name="パス 61520" d="M61.141,113.987h1.251q.2,3.852.39,7.7h1.334q-.19-3.851-.379-7.7h1.252l.036.748.085,1.764q.028.567.054,1.133.042.883.085,1.764.028.567.055,1.134t.055,1.159h1.334q-.027-.58-.054-1.159l-.053-1.134-.083-1.764q-.026-.567-.053-1.133l-.083-1.764q-.017-.374-.035-.748h1.252q.017.374.034.748l.08,1.764q.026.567.052,1.133.04.883.081,1.764l.051,1.134.053,1.159H69.27q-.026-.58-.051-1.159l-.05-1.134q-.039-.883-.078-1.764l-.05-1.133-.078-1.764q-.016-.374-.033-.748h1.252q.016.374.032.748.038.883.076,1.764.025.567.049,1.133.038.883.076,1.764l.048,1.134q.025.58.05,1.159h1.334q-.024-.58-.048-1.159T71.75,119.4q-.036-.883-.073-1.764-.023-.567-.047-1.133-.036-.882-.073-1.764-.015-.374-.031-.748h1.252q.015.374.03.748.035.883.071,1.764.022.567.045,1.133.035.883.071,1.764.023.567.046,1.134l.047,1.159h1.334q-.15-3.851-.3-7.7h1.251q.145,3.852.291,7.7H77q-.021-.58-.041-1.159t-.042-1.134q-.032-.883-.064-1.764c-.014-.378-.028-.755-.042-1.133q-.032-.882-.064-1.764-.014-.374-.028-.748H77.97c.008.249.018.5.026.748q.031.883.063,1.764.019.567.04,1.133.031.883.062,1.764.02.567.04,1.134l.041,1.159h1.334l-.039-1.159L79.5,119.4q-.029-.883-.059-1.764-.02-.567-.038-1.133-.031-.882-.06-1.764-.013-.374-.026-.748h1.252c.008.249.016.5.025.748q.028.883.057,1.764.019.567.037,1.133.028.883.057,1.764l.037,1.134.038,1.159h1.334l-.036-1.159q-.017-.567-.036-1.134-.028-.883-.055-1.764-.018-.567-.036-1.133-.028-.882-.055-1.764c-.007-.249-.016-.5-.024-.748h1.252q.011.374.022.748l.053,1.764q.017.567.034,1.133.027.883.053,1.764.017.567.034,1.134t.036,1.159h1.334q-.016-.58-.033-1.159t-.033-1.134q-.025-.883-.051-1.764-.016-.567-.033-1.133-.025-.882-.05-1.764c-.008-.249-.014-.5-.022-.748h1.252q.106,3.852.212,7.7H87.3q-.1-3.851-.2-7.7h1.252q.1,3.852.192,7.7h1.334q-.091-3.851-.182-7.7h1.252q.087,3.852.173,7.7h1.334q-.012-.58-.024-1.159L92.41,119.4l-.037-1.764-.024-1.133-.037-1.764q-.008-.374-.016-.748h1.252q.008.374.015.748.017.883.035,1.764.011.567.022,1.133.017.883.035,1.764l.023,1.134.023,1.159h1.334q-.011-.58-.021-1.159l-.021-1.134q-.016-.883-.033-1.764-.011-.567-.021-1.133l-.033-1.764q-.007-.374-.014-.748h1.252c0,.249.009.5.013.748q.015.883.031,1.764.01.567.019,1.133.016.883.031,1.764.01.567.02,1.134t.02,1.159h1.334q-.009-.58-.018-1.159t-.018-1.134q-.014-.883-.028-1.764-.01-.567-.019-1.133l-.028-1.764-.012-.748H98.74q.005.374.011.748l.026,1.764q.008.567.017,1.133.013.883.026,1.764.008.567.016,1.134t.017,1.159h1.334q-.007-.58-.015-1.159l-.015-1.134q-.012-.883-.024-1.764-.008-.567-.015-1.133-.012-.882-.024-1.764-.005-.374-.01-.748h1.252q.046,3.852.093,7.7h1.334q-.041-3.851-.083-7.7h1.252l.007.748.017,1.764q.005.567.011,1.133.008.883.017,1.764l.011,1.134q.005.58.011,1.159h1.334l-.009-1.159-.01-1.134q-.007-.883-.015-1.764,0-.567-.009-1.133-.008-.882-.015-1.764,0-.374-.006-.748h1.252q0,.374.005.748l.012,1.764q0,.567.008,1.133.006.883.012,1.764,0,.567.008,1.134t.008,1.159h1.334q0-.58-.007-1.159L107.9,119.4q0-.883-.01-1.764,0-.567-.006-1.133l-.01-1.764q0-.374,0-.748h1.252l0,.748q0,.883.008,1.764,0,.567.005,1.133,0,.883.008,1.764l0,1.134q0,.58.005,1.159h1.334l0-1.159q0-.567,0-1.134,0-.883-.005-1.764,0-.567,0-1.133,0-.882-.006-1.764l0-.748h1.252q0,.374,0,.748,0,.883,0,1.764,0,.567,0,1.133,0,.883,0,1.764,0,.567,0,1.134l0,1.159h1.334q0-3.851,0-7.7h1.252q0,3.852-.005,7.7h1.334q.008-3.851.016-7.7h1.251q-.011,3.852-.025,7.7h1.334q.018-3.851.035-7.7h.091q0-.686.006-1.372H59.723q.031.582.062,1.165.211,3.955.42,7.91H61.54q-.2-3.851-.4-7.7" transform="translate(-35.897 -67.689)" fill="#bdbebf"/>
      <path id="パス_61521" data-name="パス 61521" d="M171.795,22.127c-.631-1.109-1.256-2.219-1.891-3.328H71.058c-.772,1.109-1.535,2.219-2.3,3.328H171.795Z" transform="translate(-41.327 -11.299)" fill="#4086c8"/>
      <path id="パス_61522" data-name="パス 61522" d="M167.815,29.977H63.353q-1.147,1.664-2.285,3.327H169.7c-.625-1.109-1.26-2.218-1.889-3.327" transform="translate(-36.706 -18.018)" fill="#4086c8"/>
      <path id="パス_61523" data-name="パス 61523" d="M171.984,7.625H78.83c-.778,1.109-1.56,2.218-2.333,3.327H173.9q-.954-1.664-1.919-3.327" transform="translate(-45.98 -4.583)" fill="#4086c8"/>
      <path id="パス_61524" data-name="パス 61524" d="M174.939,0H85.672c-.45.637-.892,1.274-1.34,1.911h91.709c-.369-.637-.732-1.274-1.1-1.911" transform="translate(-50.689)" fill="#4086c8"/>
      <path id="パス_61525" data-name="パス 61525" d="M165.758,41.151H55.716q-1.136,1.664-2.27,3.328H167.627c-.619-1.109-1.245-2.218-1.869-3.328" transform="translate(-32.125 -24.734)" fill="#4086c8"/>
      <path id="パス_61526" data-name="パス 61526" d="M106.966,58.7h57.212c-.35-.637-.706-1.274-1.058-1.911H42.075c.253-.377.507-.754.76-1.131H162.493c-.614-1.109-1.224-2.218-1.842-3.327H45.072Q42.918,55.512,40.79,58.7h66.176Z" transform="translate(-24.517 -31.453)" fill="#4086c8"/>
      <path id="パス_61527" data-name="パス 61527" d="M44.01,61.8H165.055l-.626-1.131H44.77c-.253.377-.508.754-.76,1.131" transform="translate(-26.453 -36.465)" fill="#32699c"/>
      <path id="パス_61528" data-name="パス 61528" d="M166.472,49.493H52.291l-.767,1.131H167.1l-.631-1.131" transform="translate(-30.969 -29.749)" fill="#32699c"/>
      <path id="パス_61529" data-name="パス 61529" d="M169.178,39.448c-.212-.377-.422-.754-.635-1.131H59.906c-.258.377-.514.754-.771,1.131Z" transform="translate(-35.544 -23.031)" fill="#32699c"/>
      <path id="パス_61530" data-name="パス 61530" d="M171.258,28.273h.008l-.644-1.131H67.578c-.26.377-.522.754-.782,1.131H171.258Z" transform="translate(-40.149 -16.314)" fill="#32699c"/>
      <path id="パス_61531" data-name="パス 61531" d="M173.371,17.1l-.647-1.131H75.312L74.525,17.1h98.846Z" transform="translate(-44.794 -9.596)" fill="#32699c"/>
      <path id="パス_61532" data-name="パス 61532" d="M175.5,5.921c-.218-.377-.435-.754-.653-1.131H83.137l-.793,1.131H175.5Z" transform="translate(-49.494 -2.879)" fill="#32699c"/>
      <path id="パス_61533" data-name="パス 61533" d="M381.246,181.3h0Z" transform="translate(-229.154 -108.971)" fill="#bbab94"/>
      <path id="パス_61534" data-name="パス 61534" d="M70.319,272.015a1.718,1.718,0,0,0-.031-.259,1.808,1.808,0,0,1-.047.261Z" transform="translate(-42.22 -163.343)" fill="#466784"/>
      <rect id="長方形_26032" data-name="長方形 26032" width="41.192" height="27.196" transform="translate(52.159 68.616)" fill="#c9c6b5"/>
      <path id="パス_61535" data-name="パス 61535" d="M220.752,285.4q.417-3.03.84-6.061-1.742,2.9-3.475,5.793a10.174,10.174,0,0,0,2.635.268" transform="translate(-131.103 -167.903)" fill="#d4d5d5"/>
      <path id="パス_61536" data-name="パス 61536" d="M233.727,283.25a13.168,13.168,0,0,0,2.57-1.53q-2.286-2.05-4.585-4.1c.67,1.876,1.35,3.753,2.015,5.629" transform="translate(-139.274 -166.868)" fill="#d4d5d5"/>
      <path id="パス_61537" data-name="パス 61537" d="M227.293,284.992a12.579,12.579,0,0,0,2.846-.667c-.655-1.848-1.325-3.7-1.985-5.544q-.43,3.106-.861,6.212" transform="translate(-136.618 -167.565)" fill="#d4d5d5"/>
      <path id="パス_61538" data-name="パス 61538" d="M205.582,280.267a6.3,6.3,0,0,0,1.2,1.764q2.637-2.2,5.293-4.393-3.249,1.314-6.493,2.629" transform="translate(-123.568 -166.879)" fill="#d4d5d5"/>
      <path id="パス_61539" data-name="パス 61539" d="M248.095,277.861c.108-.2.215-.4.307-.605h-2.329l2.022.605" transform="translate(-147.906 -166.649)" fill="#d4d5d5"/>
      <path id="パス_61540" data-name="パス 61540" d="M235.086,277.257q2.013,1.8,4.022,3.6a11.555,11.555,0,0,0,1.848-2.1c-1.659-.5-3.331-1-4.993-1.494Z" transform="translate(-141.302 -166.649)" fill="#d4d5d5"/>
      <path id="パス_61541" data-name="パス 61541" d="M204.166,277.257a6.618,6.618,0,0,0,.219,1.837q2.263-.919,4.536-1.837Z" transform="translate(-122.716 -166.649)" fill="#d4d5d5"/>
      <path id="パス_61542" data-name="パス 61542" d="M210.508,283.588a7.7,7.7,0,0,0,2.04,1.114q1.67-2.8,3.354-5.59-2.7,2.238-5.394,4.476" transform="translate(-126.529 -167.765)" fill="#d4d5d5"/>
      <path id="パス_61543" data-name="パス 61543" d="M192.233,215.251l-.15,4.469q-.339,10.134-.678,20.267h3.222c.006-.118,0-.234.011-.354.487-5.5,6.169-10.489,12.7-11.137s11.355,3.288,10.779,8.79a9.716,9.716,0,0,1-.71,2.7h9.777q.667-12.368,1.335-24.736Z" transform="translate(-115.047 -129.38)" fill="#b4834e"/>
      <path id="パス_61544" data-name="パス 61544" d="M243.508,267.166a6.58,6.58,0,0,0-.184-2.173q-3.285,1.321-6.556,2.642l6.74-.469" transform="translate(-142.313 -159.278)" fill="#b4834e"/>
      <path id="パス_61545" data-name="パス 61545" d="M210.916,275.232l-6.738.469c-.007.114-.009.226-.01.338h4.755l1.994-.807" transform="translate(-122.718 -165.432)" fill="#b4834e"/>
      <path id="パス_61546" data-name="パス 61546" d="M217.1,255.126a13.107,13.107,0,0,0-2.579,1.531q2.3,2.035,4.584,4.07c-.669-1.867-1.33-3.733-2-5.6" transform="translate(-128.939 -153.347)" fill="#b4834e"/>
      <path id="パス_61547" data-name="パス 61547" d="M209.788,260.591a11.352,11.352,0,0,0-1.837,2.1c2.117.632,4.222,1.264,6.335,1.9q-2.245-2-4.5-3.994" transform="translate(-124.992 -156.632)" fill="#b4834e"/>
      <path id="パス_61548" data-name="パス 61548" d="M236.02,262.592q3.253-1.313,6.514-2.625a6.2,6.2,0,0,0-1.189-1.76q-2.672,2.193-5.325,4.386" transform="translate(-141.863 -155.199)" fill="#b4834e"/>
      <path id="パス_61549" data-name="パス 61549" d="M239.941,274.692h2.329a8.437,8.437,0,0,0,.559-1.7l-6.957.484,4.07,1.218" transform="translate(-141.774 -164.085)" fill="#b4834e"/>
      <path id="パス_61550" data-name="パス 61550" d="M226.2,252.5a12.776,12.776,0,0,0-2.883.67c.677,1.873,1.339,3.745,2.011,5.618q.437-3.144.872-6.288" transform="translate(-134.231 -151.771)" fill="#b4834e"/>
      <path id="パス_61551" data-name="パス 61551" d="M205.355,268.082a8.531,8.531,0,0,0-.842,2.305l6.933-.483c-2.032-.607-4.055-1.215-6.091-1.822" transform="translate(-122.926 -161.135)" fill="#b4834e"/>
      <path id="パス_61552" data-name="パス 61552" d="M239.255,254.844a7.7,7.7,0,0,0-2.051-1.115q-1.7,2.8-3.386,5.593,2.714-2.24,5.437-4.478" transform="translate(-140.54 -152.508)" fill="#b4834e"/>
      <path id="パス_61553" data-name="パス 61553" d="M231.851,252.318q-.423,3.031-.84,6.062,1.75-2.9,3.508-5.795a10.359,10.359,0,0,0-2.668-.268" transform="translate(-138.853 -151.657)" fill="#b4834e"/>
      <path id="パス_61554" data-name="パス 61554" d="M233.98,276.268l.441.394h.877l-1.318-.394" transform="translate(-140.637 -166.055)" fill="#b4834e"/>
      <path id="パス_61555" data-name="パス 61555" d="M228.933,207.772H199.606l-1.556.389-3.284.819-1.287.321H229.76q7.936-1.975,15.906-3.949H235.518q-.017.3-.034.593l-6.551,1.827" transform="translate(-116.294 -123.43)" fill="#c99b69"/>
      <path id="パス_61556" data-name="パス 61556" d="M281.079,234.037c2.476-.624,4.963-1.249,7.444-1.874l.8-13.724q3.209-1.237,6.427-2.475h1.905l.365-5.8q.151-2.4.3-4.81-7.971,1.975-15.906,3.949-.668,12.368-1.335,24.736" transform="translate(-168.947 -123.43)" fill="#9b6b39"/>
      <path id="パス_61557" data-name="パス 61557" d="M206.892,179.992h29.327q.557-10.429,1.115-20.858h-30.98q-.378,10.429-.754,20.858Z" transform="translate(-123.579 -95.65)" fill="#b4834e"/>
      <path id="パス_61558" data-name="パス 61558" d="M214.085,154.554l-.48.133-3.333.923-2.783.771h30.98l6.627-1.827H214.085Z" transform="translate(-124.715 -92.897)" fill="#c99b69"/>
      <path id="パス_61559" data-name="パス 61559" d="M282.351,177.239l6.551-1.827q.017-.3.034-.593.579-10.133,1.157-20.265l-6.627,1.827q-.558,10.429-1.115,20.858" transform="translate(-169.711 -92.897)" fill="#9b6b39"/>
      <path id="パス_61560" data-name="パス 61560" d="M213.764,250.762c-5.894.586-11.03,5.092-11.475,10.065s3.91,8.53,9.733,7.944,10.967-5.093,11.482-10.066-3.846-8.53-9.74-7.944m6.522,2.261q-2.727,2.239-5.437,4.478,1.69-2.8,3.386-5.593a7.709,7.709,0,0,1,2.051,1.115m-5.717-1.676a10.356,10.356,0,0,1,2.668.268q-1.76,2.9-3.508,5.795.421-3.031.841-6.062m-1.092,9.843a1.692,1.692,0,0,1-2.319-.694,1.862,1.862,0,0,1,1.3-2.157,1.693,1.693,0,0,1,2.321.694,1.864,1.864,0,0,1-1.3,2.156m.067-9.771q-.439,3.144-.871,6.288c-.672-1.872-1.334-3.745-2.011-5.618a12.769,12.769,0,0,1,2.882-.67m-3.815,1.046c.675,1.867,1.335,3.733,2,5.6q-2.288-2.035-4.584-4.07a13.1,13.1,0,0,1,2.579-1.531m-3.362,2.18q2.257,2,4.5,3.993c-2.113-.632-4.218-1.264-6.335-1.9a11.352,11.352,0,0,1,1.837-2.1M204,257.634c2.036.607,4.058,1.215,6.091,1.822l-6.933.483a8.526,8.526,0,0,1,.842-2.305m-.98,3.66c0-.113,0-.225.011-.339l6.738-.469-1.994.808-4.536,1.836a6.626,6.626,0,0,1-.219-1.836m.565,2.781q3.24-1.314,6.493-2.629-2.651,2.2-5.293,4.393a6.3,6.3,0,0,1-1.2-1.764m1.965,2.436q2.688-2.238,5.394-4.476-1.68,2.8-3.353,5.59a7.7,7.7,0,0,1-2.04-1.114m5.671,1.676a10.18,10.18,0,0,1-2.635-.268q1.731-2.9,3.476-5.793-.419,3.03-.84,6.061m1.025-.073q.428-3.106.861-6.212c.659,1.848,1.329,3.7,1.984,5.545a12.572,12.572,0,0,1-2.846.667m3.778-1.045c-.665-1.876-1.345-3.753-2.015-5.629q2.3,2.05,4.585,4.1a13.178,13.178,0,0,1-2.57,1.53m3.352-2.179q-2-1.8-4.022-3.6l-.441-.395,1.318.395c1.662.5,3.334,1,4.993,1.494a11.533,11.533,0,0,1-1.848,2.1m2.69-3.6c-.092.2-.2.4-.307.6l-2.022-.6-4.07-1.218,6.957-.484a8.477,8.477,0,0,1-.559,1.7m.7-2.72-6.74.469q3.275-1.321,6.556-2.642a6.592,6.592,0,0,1,.184,2.173m-7.038-.494q2.658-2.193,5.325-4.385a6.2,6.2,0,0,1,1.189,1.76q-3.264,1.312-6.514,2.625" transform="translate(-121.57 -150.686)" fill="#807878"/>
      <path id="パス_61561" data-name="パス 61561" d="M212.174,248.349c-6.527.648-12.208,5.634-12.7,11.137-.01.12,0,.235-.01.353-.253,5.314,4.481,9.07,10.779,8.436,5.36-.54,10.192-4.088,12-8.436a9.7,9.7,0,0,0,.71-2.7c.576-5.5-4.252-9.438-10.779-8.79m9.647,8.9c-.515,4.973-5.661,9.479-11.482,10.065s-10.178-2.972-9.733-7.944,5.581-9.479,11.475-10.065,10.257,2.971,9.74,7.944" transform="translate(-119.888 -149.232)" fill="#3c3939"/>
      <path id="パス_61562" data-name="パス 61562" d="M225.76,269.586a1.862,1.862,0,0,0-1.3,2.156,1.692,1.692,0,0,0,2.319.695,1.864,1.864,0,0,0,1.3-2.157,1.693,1.693,0,0,0-2.321-.694" transform="translate(-134.873 -161.932)" fill="#3a3736"/>
      <path id="パス_61563" data-name="パス 61563" d="M300.262,238.159l-.8,13.723q-.091,1.565-.182,3.128h17.874q.577-8.425,1.153-16.852Z" transform="translate(-179.888 -143.149)" fill="#199bdc"/>
      <path id="パス_61564" data-name="パス 61564" d="M301.739,234.429h18.047q3.222-1.237,6.453-2.475H308.166q-3.218,1.237-6.427,2.475" transform="translate(-181.365 -139.419)" fill="#70b7e7"/>
      <path id="パス_61565" data-name="パス 61565" d="M344.086,251.281q3.192-1.237,6.393-2.475.607-8.426,1.213-16.852-3.23,1.237-6.452,2.475-.577,8.426-1.153,16.852" transform="translate(-206.818 -139.419)" fill="#008ed6"/>
      <path id="パス_61566" data-name="パス 61566" d="M282.081,200.506v-.028a2.736,2.736,0,0,0-.283-1.135,2.976,2.976,0,0,0-.7-.962h0c-.718-.628-1.455-1.253-2.2-1.864h0A1.615,1.615,0,0,1,278.5,196a1.4,1.4,0,0,1-.162-.568q.189-2.908.375-5.8a.691.691,0,0,1-.121.009,18.053,18.053,0,0,0-2.555-.181,18.255,18.255,0,0,0-2.6.186.639.639,0,0,1-.107-.008q.061,2.875.121,5.757a1.434,1.434,0,0,1-.185.576,1.787,1.787,0,0,1-.428.541c-.774.61-1.537,1.235-2.283,1.862a3.144,3.144,0,0,0-.746.971,2.755,2.755,0,0,0-.321,1.149v.006l0,.181q-.041,3.108-.087,6.22h0c-.012,1.011-.028,2.025-.042,3.039q-.035,2.368-.066,4.741-.064,4.568-.129,9.145a14.523,14.523,0,0,1,1.486.112q.183-9.01.364-18.019a.675.675,0,0,1,.674-.66h.346a.673.673,0,0,1,.673.687q-.186,9.171-.373,18.342a5,5,0,0,1,1.869.924,1.747,1.747,0,0,1,.647,1.247h0l0,.03v.043h0q-.022,1.053-.045,2.106c.125,0,.248.014.373.014.186,0,.371-.014.557-.02a1.358,1.358,0,0,1-.193-.684v-.029q.145-6.479.289-12.958h0v-.007s0-.014,0-.021h0v-.022h0l0-.065c0-.011.009-.02.011-.031a1.392,1.392,0,0,1,.17-.535,1.876,1.876,0,0,1,.412-.484,3.824,3.824,0,0,1,1.174-.644,10.2,10.2,0,0,1,3.4-.523v0c.249,0,.476.026.715.039l.093-3.142q.075-2.491.149-4.979.057-1.932.114-3.864l0-.152Zm-9.341,3.6a.675.675,0,0,1-.673.66h-.347a.674.674,0,0,1-.674-.687l.054-2.665a.675.675,0,0,1,.674-.66h.347a.674.674,0,0,1,.673.687q-.027,1.333-.054,2.665" transform="translate(-161.782 -113.875)" fill="#3a657b"/>
      <path id="パス_61567" data-name="パス 61567" d="M278,180.6q-.026,1.256-.052,2.509a.676.676,0,0,0,.227.519.668.668,0,0,0,.436.154.688.688,0,0,0,.107.008,18.2,18.2,0,0,1,5.159-.006.653.653,0,0,0,.122-.008.663.663,0,0,0,.409-.144.674.674,0,0,0,.239-.5c0-.138.006-.274.009-.412.016-.7.031-1.4.048-2.1a.673.673,0,0,0-.565-.682,17.192,17.192,0,0,0-2.761-.223,17.426,17.426,0,0,0-1.823.108c-.331.035-.662.068-.99.122a.672.672,0,0,0-.564.651" transform="translate(-167.065 -108.023)" fill="#5182c2"/>
      <path id="パス_61568" data-name="パス 61568" d="M274.569,248.089q.187-9.171.373-18.342a.674.674,0,0,0-.674-.687h-.346a.675.675,0,0,0-.674.66q-.181,9.009-.364,18.019a11.591,11.591,0,0,1,1.31.24c.131.034.25.073.375.109" transform="translate(-164.022 -137.68)" fill="#fff"/>
      <path id="パス_61569" data-name="パス 61569" d="M274.965,217.786h-.347a.675.675,0,0,0-.674.66q-.027,1.333-.053,2.665a.674.674,0,0,0,.674.688h.346a.676.676,0,0,0,.674-.661q.027-1.332.053-2.665a.674.674,0,0,0-.673-.687" transform="translate(-164.626 -130.904)" fill="#fff"/>
      <path id="パス_61570" data-name="パス 61570" d="M295.113,254.517a3.854,3.854,0,0,1-1.174.644,10.2,10.2,0,0,1-3.393.523,12.355,12.355,0,0,1-1.393-.078,9.764,9.764,0,0,1-1.243-.221,4.56,4.56,0,0,1-1.879-.865,1.532,1.532,0,0,1-.575-1.143h0q-.145,6.479-.289,12.958v-.02h0a.671.671,0,0,1,1.341.04h0l.007.015.109.125a2.406,2.406,0,0,0,.729.393,8.62,8.62,0,0,0,2.873.435,9.535,9.535,0,0,0,2.5-.308,2.712,2.712,0,0,0,1.259-.624l.042-.065h0a.673.673,0,0,1,1.345.041q.17-6.492.339-12.985h0a1.565,1.565,0,0,1-.6,1.134m-.322,8.34a.676.676,0,0,1-.234.493,3.546,3.546,0,0,1-1.094.6,7.633,7.633,0,0,1-1.433.357,11.351,11.351,0,0,1-3.384,0,7.417,7.417,0,0,1-1.42-.359,3.383,3.383,0,0,1-1.078-.611.673.673,0,0,1-.224-.517q.051-2.3.1-4.6a.674.674,0,0,1,1.124-.487,2.109,2.109,0,0,0,.65.351,6.054,6.054,0,0,0,1.162.29,9.642,9.642,0,0,0,1.483.111,9.79,9.79,0,0,0,1.49-.111,6.3,6.3,0,0,0,1.18-.292,2.3,2.3,0,0,0,.681-.359.674.674,0,0,1,1.113.528q-.059,2.3-.119,4.6" transform="translate(-171.404 -152.296)" fill="#56a4d0"/>
      <path id="パス_61571" data-name="パス 61571" d="M285.917,253.009c0,.011-.009.02-.011.031l0,.065h0c0-.033.011-.064.015-.1" transform="translate(-171.845 -152.075)" fill="#56a4d0"/>
      <path id="パス_61572" data-name="パス 61572" d="M285.892,253.307v0Z" transform="translate(-171.84 -152.254)" fill="#56a4d0"/>
      <path id="パス_61573" data-name="パス 61573" d="M285.169,285.814h0Z" transform="translate(-171.405 -171.793)" fill="#56a4d0"/>
      <path id="パス_61574" data-name="パス 61574" d="M296.018,250.968c.078.023.158.034.234.062a1.3,1.3,0,0,1,.474.29.868.868,0,0,1,.17.28v0c.009.019.016.037.023.057s.018.036.021.053a.628.628,0,0,1,.02.165h0a.062.062,0,0,1,0,.014.8.8,0,0,1-.243.552,1.136,1.136,0,0,1-.282.2,2.33,2.33,0,0,1-.425.153c.337.033.686.056,1.054.056a9.61,9.61,0,0,0,2.513-.309,2.744,2.744,0,0,0,1.267-.624l.036-.057v0l-.11-.124a2.425,2.425,0,0,0-.734-.393,8.737,8.737,0,0,0-2.893-.435,10.914,10.914,0,0,0-1.127.061" transform="translate(-177.922 -150.811)" fill="#e4e4e5"/>
      <path id="パス_61575" data-name="パス 61575" d="M289.44,253.1v-.022l0-.019h0a.037.037,0,0,1,0-.014l.015-.129.009,0c0-.008,0-.016.005-.024a.717.717,0,0,0-.156.142l-.036.056v0l.111.125c.018.016.057.037.081.054a.85.85,0,0,1-.031-.173Z" transform="translate(-173.877 -152.003)" fill="#e4e4e5"/>
      <path id="パス_61576" data-name="パス 61576" d="M293.225,254.724h0v0Z" transform="translate(-176.248 -152.913)" fill="#e4e4e5"/>
      <path id="パス_61577" data-name="パス 61577" d="M291.062,248.2v-.674a10.2,10.2,0,0,0-3.4.523,3.83,3.83,0,0,0-1.174.644,1.889,1.889,0,0,0-.412.484,1.393,1.393,0,0,0-.17.535c0,.032-.014.063-.015.1h0v.023h0v.028a1.532,1.532,0,0,0,.575,1.143,4.559,4.559,0,0,0,1.879.866,9.815,9.815,0,0,0,1.243.221,12.366,12.366,0,0,0,1.393.077,10.2,10.2,0,0,0,3.393-.523,3.85,3.85,0,0,0,1.173-.644,1.566,1.566,0,0,0,.6-1.134h0v-.035a1.53,1.53,0,0,0-.576-1.142,4.558,4.558,0,0,0-1.878-.864,10.658,10.658,0,0,0-1.921-.258c-.239-.014-.466-.04-.715-.04Zm2.893,1.109a2.419,2.419,0,0,1,.734.393l.11.125v0l-.037.057a2.735,2.735,0,0,1-1.267.625,9.63,9.63,0,0,1-2.513.308c-.368,0-.716-.023-1.054-.055-.032.009-.063.026-.095.034a4.466,4.466,0,0,1-1.016.146v-.353h0v.353a1.851,1.851,0,0,1-.655-.115,1.258,1.258,0,0,1-.568-.41.97.97,0,0,1-.158-.375c-.023-.018-.062-.038-.081-.054l-.111-.125v0l.036-.056a.7.7,0,0,1,.156-.141.991.991,0,0,1,.171-.4,1.2,1.2,0,0,1,.369-.31,1.781,1.781,0,0,1,.861-.208,4.335,4.335,0,0,1,1.1.185,10.917,10.917,0,0,1,1.127-.061,8.736,8.736,0,0,1,2.893.435" transform="translate(-171.839 -148.781)" fill="#acadae"/>
      <path id="パス_61578" data-name="パス 61578" d="M292.912,252.257a.8.8,0,0,0,.243-.553.018.018,0,0,0,0-.008l0,0a.626.626,0,0,0-.02-.165.462.462,0,0,0-.021-.053.523.523,0,0,0-.023-.057v0a.874.874,0,0,0-.169-.28,1.308,1.308,0,0,0-.474-.29c-.075-.028-.156-.039-.234-.062a4.351,4.351,0,0,0-1.1-.185,1.781,1.781,0,0,0-.861.208,1.2,1.2,0,0,0-.369.311.988.988,0,0,0-.171.4c0,.008,0,.016-.005.024l-.01,0-.014.121a.138.138,0,0,0,0,.022h0l0,.019v.022h0a.852.852,0,0,0,.031.173.981.981,0,0,0,.158.375,1.252,1.252,0,0,0,.568.409,1.848,1.848,0,0,0,.654.115v0a4.484,4.484,0,0,0,1.016-.145c.032-.009.063-.025.1-.034a2.323,2.323,0,0,0,.424-.153,1.131,1.131,0,0,0,.283-.2" transform="translate(-174.115 -150.625)" fill="#4b4648"/>
      <path id="パス_61579" data-name="パス 61579" d="M294.719,284.21a.673.673,0,0,0-.689.649h0l-.042.066a2.715,2.715,0,0,1-1.259.623,9.519,9.519,0,0,1-2.5.308,8.618,8.618,0,0,1-2.873-.435,2.4,2.4,0,0,1-.729-.393l-.109-.125-.007-.015h0a.671.671,0,0,0-1.341-.04h0v.049a1.359,1.359,0,0,0,.193.684,1.82,1.82,0,0,0,.38.457,4.522,4.522,0,0,0,1.87.866,10.936,10.936,0,0,0,2.623.3,10.085,10.085,0,0,0,3.376-.523,3.825,3.825,0,0,0,1.17-.644,1.563,1.563,0,0,0,.6-1.135.674.674,0,0,0-.656-.691m-9.552.64h0Z" transform="translate(-171.403 -170.829)" fill="#acadae"/>
      <path id="パス_61580" data-name="パス 61580" d="M295.664,263.937a.674.674,0,0,0-.728.1,2.293,2.293,0,0,1-.681.359,6.322,6.322,0,0,1-1.18.291,9.744,9.744,0,0,1-1.49.111,9.6,9.6,0,0,1-1.483-.111,6.055,6.055,0,0,1-1.162-.29,2.111,2.111,0,0,1-.65-.351.674.674,0,0,0-1.124.487q-.052,2.3-.1,4.6a.672.672,0,0,0,.224.517,3.383,3.383,0,0,0,1.078.611,7.448,7.448,0,0,0,1.42.359,11.34,11.34,0,0,0,3.384,0,7.587,7.587,0,0,0,1.433-.357,3.543,3.543,0,0,0,1.094-.6.678.678,0,0,0,.234-.494q.059-2.3.119-4.6a.675.675,0,0,0-.385-.626" transform="translate(-172.543 -158.604)" fill="#fff"/>
      <path id="パス_61581" data-name="パス 61581" d="M244.782,261.838a6.291,6.291,0,0,1-1.658-2.5h0a6.642,6.642,0,0,1-.433-2.319,4.735,4.735,0,0,1,.478-2.159,2.9,2.9,0,0,1,1.5-1.419,2.631,2.631,0,0,1,.974-.184,3.66,3.66,0,0,1,2.386,1.013,6.272,6.272,0,0,1,1.66,2.5h0a6.67,6.67,0,0,1,.427,2.305,4.769,4.769,0,0,1-.479,2.167c-.031.06-.071.114-.105.171q.512-.092,1.068-.145l.018-.063.382-.18a.674.674,0,0,0,.292-.956l-.463-.772a7.968,7.968,0,0,0-.234-1.661l.233-.664a.673.673,0,0,0-.309-.813l-.586-.324a7.728,7.728,0,0,0-.907-1.393l-.156-.9a.675.675,0,0,0-.871-.526l-.381.123a4.544,4.544,0,0,0-1.076-.505l-.477-.692a.674.674,0,0,0-1.169.105l-.215.477a3.079,3.079,0,0,0-.422.122,3.034,3.034,0,0,0-.383.2l-.462-.2a.674.674,0,0,0-.94.694q.048.419.1.839c-.032.056-.072.107-.1.165a4.967,4.967,0,0,0-.361.973l-.382.179a.674.674,0,0,0-.29.959l.466.772a7.956,7.956,0,0,0,.239,1.663l-.23.662a.675.675,0,0,0,.31.811l.586.324a7.769,7.769,0,0,0,.908,1.393q.078.449.158.9a.673.673,0,0,0,.871.525l.377-.122a4.7,4.7,0,0,0,.746.4,1.711,1.711,0,0,1,.524-1.044,4.026,4.026,0,0,1-1.61-.9" transform="translate(-145.061 -151.261)" fill="#878788"/>
      <path id="パス_61582" data-name="パス 61582" d="M252.651,282.252v0Z" transform="translate(-151.859 -169.652)" fill="#ab6354"/>
      <path id="パス_61583" data-name="パス 61583" d="M252.648,282.322h0v0Z" transform="translate(-151.858 -169.694)" fill="#ab6354"/>
      <path id="パス_61584" data-name="パス 61584" d="M264.122,283.666a4.544,4.544,0,0,1-1.391.767,12.269,12.269,0,0,1-4.108.636,13.377,13.377,0,0,1-3.2-.364,5.457,5.457,0,0,1-2.246-1.034,1.739,1.739,0,0,1-.653-1.286h0v-.006h0q-.041,2.489-.083,4.978v0l.014-.126a.673.673,0,0,1,.8-.523.664.664,0,0,1,.525.666h.013v.008c0,.02.008.11.2.279a3.1,3.1,0,0,0,.95.515,10.754,10.754,0,0,0,3.6.548,12.156,12.156,0,0,0,2.89-.327,4.391,4.391,0,0,0,1.717-.749,1.158,1.158,0,0,0,.117-.116c.088-.1.1-.162.1-.179h0a.674.674,0,1,1,1.347.029l.062-2.9q.023-1.053.045-2.106a1.768,1.768,0,0,1-.68,1.285" transform="translate(-151.731 -169.727)" fill="#ab6354"/>
      <path id="パス_61585" data-name="パス 61585" d="M257.174,281.115a10.811,10.811,0,0,0,3.606.548,12.2,12.2,0,0,0,2.9-.327,4.409,4.409,0,0,0,1.721-.749c.19-.167.211-.263.211-.29v-.006c0-.02-.008-.109-.2-.279a3.131,3.131,0,0,0-.95-.514,10.8,10.8,0,0,0-3.607-.547,12.24,12.24,0,0,0-2.9.326,4.411,4.411,0,0,0-1.72.749c-.2.173-.211.27-.21.292v0c0,.021.01.11.2.279a3.122,3.122,0,0,0,.951.515" transform="translate(-153.888 -167.668)" fill="#5c5b5c"/>
      <path id="パス_61586" data-name="パス 61586" d="M247.888,266.336a1.738,1.738,0,0,0,.653,1.285,5.458,5.458,0,0,0,2.246,1.034,13.37,13.37,0,0,0,3.2.364,12.269,12.269,0,0,0,4.108-.636,4.533,4.533,0,0,0,1.391-.767,1.768,1.768,0,0,0,.68-1.285h0v-.044l0-.03h0a1.748,1.748,0,0,0-.647-1.247,5.009,5.009,0,0,0-1.87-.924c-.124-.037-.244-.076-.375-.11a11.663,11.663,0,0,0-1.31-.24,14.505,14.505,0,0,0-1.486-.112c-.136,0-.269-.012-.408-.012v0c-.494,0-.967.031-1.428.075q-.555.053-1.068.145c.034-.058.075-.112.105-.172a4.762,4.762,0,0,0,.479-2.166,6.663,6.663,0,0,0-.427-2.306h0a6.276,6.276,0,0,0-1.66-2.5,3.66,3.66,0,0,0-2.387-1.013,2.624,2.624,0,0,0-.974.184,2.9,2.9,0,0,0-1.5,1.418,4.742,4.742,0,0,0-.478,2.159,6.651,6.651,0,0,0,.433,2.319h0a6.291,6.291,0,0,0,1.658,2.5,4.024,4.024,0,0,0,1.611.9,1.711,1.711,0,0,0-.524,1.044c0,.017-.007.033-.008.051h-.005l0,.031v.028h0v.03Zm1.347-.008c0-.021.013-.118.21-.291a4.4,4.4,0,0,1,1.72-.749,12.21,12.21,0,0,1,2.9-.327,10.806,10.806,0,0,1,3.607.547,3.131,3.131,0,0,1,.95.514c.188.169.2.258.2.279v.006c0,.027-.021.123-.211.29a4.41,4.41,0,0,1-1.721.749,12.169,12.169,0,0,1-2.9.327,10.81,10.81,0,0,1-3.606-.548,3.12,3.12,0,0,1-.951-.515c-.188-.169-.2-.258-.2-.279Z" transform="translate(-147.097 -153.677)" fill="#acadae"/>
      <path id="パス_61587" data-name="パス 61587" d="M264.035,293.21a.674.674,0,0,0-.689.659h0c0,.016-.008.077-.1.179a1.188,1.188,0,0,1-.117.116,4.4,4.4,0,0,1-1.717.749,12.156,12.156,0,0,1-2.891.326,10.751,10.751,0,0,1-3.6-.548,3.111,3.111,0,0,1-.949-.515c-.188-.17-.2-.259-.2-.279v-.008h-.013a.664.664,0,0,0-.525-.666.674.674,0,0,0-.8.524l-.014.126v.024h0a1.736,1.736,0,0,0,.654,1.29,5.449,5.449,0,0,0,2.242,1.034,13.319,13.319,0,0,0,3.195.364,12.212,12.212,0,0,0,4.1-.636,4.525,4.525,0,0,0,1.389-.767,1.769,1.769,0,0,0,.679-1.285.674.674,0,0,0-.659-.689" transform="translate(-151.731 -176.238)" fill="#905347"/>
      <path id="パス_61588" data-name="パス 61588" d="M316.58,286.773v0h0Z" transform="translate(-190.285 -172.366)" fill="#98b5c8"/>
      <path id="パス_61589" data-name="パス 61589" d="M322.656,240.572c0-.153.009-.306.014-.459a.647.647,0,0,1-.088.018h-2.549a.661.661,0,0,1-.126-.026c0,.152-.009.305-.013.458a3.807,3.807,0,0,0-1.525,1,4.492,4.492,0,0,0-1.125,2.919v0l0,.126c0,.159.01.312.024.46h0q.065,1.3.063,2.6a102.445,102.445,0,0,1-.756,11.056l-.008.131a1.3,1.3,0,0,0,.243.745,1.26,1.26,0,0,0,.65.478,10.992,10.992,0,0,0,3.257.492,11.27,11.27,0,0,0,3.28-.49h0a1.348,1.348,0,0,0,.927-1.254V258.8h0v-.041c-.118-2.327-.22-4.695-.22-7.08a60.894,60.894,0,0,1,.324-6.58h0a5.386,5.386,0,0,0,.055-.578v-.006l0-.152a4.241,4.241,0,0,0-1.015-2.84,3.561,3.561,0,0,0-1.408-.955m-3.744,18.876c-.115.015-.233.033-.351.052a.675.675,0,0,1-.784-.71c.234-3.454.326-5.69.326-8.667,0-.722-.006-1.489-.015-2.327a.674.674,0,0,1,.785-.672c.119.02.234.038.348.052a.672.672,0,0,1,.587.647c.054,1.758.086,3.012.086,4.121,0,2.074-.114,3.614-.4,6.893a.676.676,0,0,1-.584.61m2.613.125a.675.675,0,0,1-.481.192l-.31,0-.31,0a.673.673,0,0,1-.682-.709c.335-6.505.292-5.023.335-11.528a.674.674,0,0,1,.682-.669l.312,0,.313,0a.674.674,0,0,1,.681.709c-.335,6.505-.293,5.024-.339,11.529a.672.672,0,0,1-.2.477M323.7,256.8c0,.636,0,1.307.011,2.031a.673.673,0,0,1-.786.671c-.115-.019-.233-.037-.347-.052a.674.674,0,0,1-.584-.648c-.05-1.72-.081-2.958-.081-4.048,0-2.11.114-3.649.411-6.967a.674.674,0,0,1,.583-.608c.115-.015.235-.033.353-.053a.673.673,0,0,1,.783.712c-.251,3.566-.342,5.833-.342,8.961" transform="translate(-190.274 -144.318)" fill="#98b5c8"/>
      <path id="パス_61590" data-name="パス 61590" d="M321.637,258.387a.672.672,0,0,0-.587-.647c-.114-.015-.229-.032-.348-.052a.674.674,0,0,0-.785.672c.01.838.016,1.6.016,2.327,0,2.978-.092,5.214-.326,8.667a.675.675,0,0,0,.784.711c.119-.02.237-.038.351-.053a.676.676,0,0,0,.584-.61c.284-3.278.4-4.82.4-6.893,0-1.108-.032-2.363-.086-4.121" transform="translate(-192.104 -154.881)" fill="#cee4f1"/>
      <path id="パス_61591" data-name="パス 61591" d="M326.668,257.243a.678.678,0,0,0-.494-.207l-.313,0-.312,0a.674.674,0,0,0-.682.669c-.043,6.506,0,5.023-.335,11.529a.673.673,0,0,0,.681.708l.311,0,.31,0a.673.673,0,0,0,.683-.669c.045-6.5,0-5.023.339-11.528a.679.679,0,0,0-.187-.5" transform="translate(-195.065 -154.495)" fill="#c0e2ee"/>
      <path id="パス_61592" data-name="パス 61592" d="M331.312,257.686c-.118.02-.238.038-.353.053a.674.674,0,0,0-.583.608c-.3,3.317-.411,4.857-.411,6.967,0,1.091.03,2.329.081,4.048a.675.675,0,0,0,.584.648c.114.016.232.033.347.052a.673.673,0,0,0,.787-.671c-.008-.724-.011-1.4-.011-2.031,0-3.128.091-5.4.342-8.961a.674.674,0,0,0-.783-.712" transform="translate(-198.33 -154.881)" fill="#cee4f1"/>
      <path id="パス_61593" data-name="パス 61593" d="M326.8,234.963a.64.64,0,0,0,.088-.018.666.666,0,0,0,.585-.637q.032-1.053.063-2.107a.673.673,0,0,0-.673-.694h-2.552a.675.675,0,0,0-.673.655q-.031,1.054-.061,2.107a.672.672,0,0,0,.191.489.663.663,0,0,0,.357.179.693.693,0,0,0,.126.026Zm-2.883-.8a.334.334,0,0,0,.018-.621.335.335,0,0,0,.018-.621.334.334,0,0,0,.018-.621.337.337,0,0,1,.337-.337h2.551a1.288,1.288,0,0,0,.318.958.335.335,0,0,0-.018.621.334.334,0,0,0-.019.621.337.337,0,0,1-.337.337h-2.549a.337.337,0,0,1-.337-.337" transform="translate(-194.489 -139.151)" fill="#7b91a4"/>
      <path id="パス_61594" data-name="パス 61594" d="M327.314,235.2a1.289,1.289,0,0,1,.355-.958.335.335,0,0,1,.018-.622.334.334,0,0,1,.018-.621.337.337,0,0,0-.337-.337h-2.551a1.294,1.294,0,0,1-.355.958.335.335,0,0,1-.018.622.334.334,0,0,1-.018.621.337.337,0,0,0,.337.337Z" transform="translate(-195.002 -139.843)" fill="#597c94"/>
      <path id="パス_61595" data-name="パス 61595" d="M62.173,250.861H55.933q-.426-7.894-.852-15.788H78.238q.047,1.426.1,2.852.216,6.468.432,12.936H76.709" transform="translate(-33.107 -141.294)" fill="#b4834e"/>
      <path id="パス_61596" data-name="パス 61596" d="M40.312,230.3H59.031l.993.248,2.1.523.821.2H39.784q-5.065-1.26-10.152-2.521h6.477l.022.379,4.181,1.166" transform="translate(-17.811 -137.496)" fill="#c99b69"/>
      <path id="パス_61597" data-name="パス 61597" d="M35.884,245.867c1.583.4,3.171.8,4.751,1.2q-.426-7.894-.852-15.788-5.065-1.261-10.152-2.521l.193,3.07.233,3.7.567,8.6Z" transform="translate(-17.81 -137.496)" fill="#9b6b39"/>
      <path id="パス_61598" data-name="パス 61598" d="M74.049,212.568H55.331q-.356-6.657-.712-13.313H74.393l.481,13.313Z" transform="translate(-32.83 -119.765)" fill="#b4834e"/>
      <path id="パス_61599" data-name="パス 61599" d="M48.958,210.811l-4.181-1.166-.022-.379q-.369-6.467-.738-12.934l4.23,1.166q.356,6.657.712,13.313" transform="translate(-26.457 -118.008)" fill="#9b6b39"/>
      <path id="パス_61600" data-name="パス 61600" d="M63.856,196.313l.306.085,2.128.589,1.776.492H48.292l-4.23-1.166H63.856Z" transform="translate(-26.484 -117.997)" fill="#c99b69"/>
      <path id="パス_61601" data-name="パス 61601" d="M66.821,191.162q.017.319.036.638h4.426q-.016-.32-.033-.638Z" transform="translate(-40.164 -114.901)" fill="#474645"/>
      <path id="パス_61602" data-name="パス 61602" d="M61.269,196.369h8.29l-.01-.193-.05-1.037H57.322l.061,1.037c0,.064.008.128.012.193Z" transform="translate(-34.454 -117.291)" fill="#474645"/>
      <path id="パス_61603" data-name="パス 61603" d="M51.554,169.128q.015.263.03.526.029.53.059,1.06h4.422l-.049-.948H51.59q-.018-.319-.036-.638H65.179l-.079-1.8L64.537,154.5H41.422q.468,7.312.936,14.625h9.2Zm-8.015-1.3q-.378-6.008-.756-12.016H63.316l.541,12.016Z" transform="translate(-24.897 -92.866)" fill="#5f5e5e"/>
      <path id="パス_61604" data-name="パス 61604" d="M65.367,157.772H44.835q.378,6.008.756,12.016H65.908q-.27-6.008-.541-12.016" transform="translate(-26.949 -94.831)" fill="#58aad1"/>
      <path id="パス_61605" data-name="パス 61605" d="M116.02,208.9h0Z" transform="translate(-69.735 -125.56)" fill="#3799d4"/>
      <path id="パス_61606" data-name="パス 61606" d="M22.8,284.833a7.061,7.061,0,0,1-1.977.836,22.206,22.206,0,0,1-5.757.673,25.909,25.909,0,0,1-4.052-.3,12.522,12.522,0,0,1-3.1-.847,3.7,3.7,0,0,1-1.437-1.041A2,2,0,0,1,6.1,283.3a1.652,1.652,0,0,0-.016.173l0,.069h0v.024h0a1.946,1.946,0,0,0,.414,1.084,3.7,3.7,0,0,0,1.437,1.041,12.524,12.524,0,0,0,3.1.846,25.956,25.956,0,0,0,4.052.3,22.221,22.221,0,0,0,5.755-.673,7.076,7.076,0,0,0,1.976-.837,2.879,2.879,0,0,0,.746-.691,1.911,1.911,0,0,0,.38-1.125v-.05l-.077,0a1.983,1.983,0,0,1-.317.676,2.879,2.879,0,0,1-.746.691" transform="translate(-3.654 -170.281)" fill="#466784"/>
      <path id="パス_61607" data-name="パス 61607" d="M23.159,279.108v.014a1.743,1.743,0,0,1-.4,1.092,2.666,2.666,0,0,1-.716.6,6.855,6.855,0,0,1-1.81.694,22.2,22.2,0,0,1-5.231.554,26.639,26.639,0,0,1-3.259-.192,15.2,15.2,0,0,1-2.627-.536,5.812,5.812,0,0,1-1.328-.581,2.668,2.668,0,0,1-.629-.531,1.77,1.77,0,0,1-.43-1.053h0v-.019h0l0-.062a1.723,1.723,0,0,1,.361-1.035,2.784,2.784,0,0,0-.671.632,1.909,1.909,0,0,0-.381,1.125v.07a1.694,1.694,0,0,0,.033.253,1.991,1.991,0,0,0,.384.853,3.7,3.7,0,0,0,1.437,1.041,12.518,12.518,0,0,0,3.1.847,25.914,25.914,0,0,0,4.052.3,22.207,22.207,0,0,0,5.756-.673,7.06,7.06,0,0,0,1.977-.836,2.869,2.869,0,0,0,.746-.691,1.976,1.976,0,0,0,.317-.675,1.808,1.808,0,0,0,.047-.261,1.62,1.62,0,0,0,.017-.188V279.8a1.935,1.935,0,0,0-.409-1.115,2.87,2.87,0,0,0-.656-.612c-.023-.016-.049-.026-.073-.041a1.742,1.742,0,0,1,.4,1.039Z" transform="translate(-3.626 -167.118)" fill="#7299b3"/>
      <path id="パス_61608" data-name="パス 61608" d="M16.8,276.961q-.414.041-.829.041t-.831-.041a1.174,1.174,0,0,1-1.059-1.128q-.039-1.181-.079-2.362a19.158,19.158,0,0,0-3.305.486,6.845,6.845,0,0,0-1.809.693,2.669,2.669,0,0,0-.716.6c-.014.017-.026.039-.04.057a1.72,1.72,0,0,0-.361,1.035l0,.063h0v.02h0a1.77,1.77,0,0,0,.43,1.053,2.658,2.658,0,0,0,.629.531,5.789,5.789,0,0,0,1.328.581,15.2,15.2,0,0,0,2.627.536,26.572,26.572,0,0,0,3.259.192,22.186,22.186,0,0,0,5.23-.554,6.848,6.848,0,0,0,1.811-.694,2.665,2.665,0,0,0,.716-.6,1.745,1.745,0,0,0,.4-1.093v-.047a1.743,1.743,0,0,0-.4-1.039c-.01-.013-.02-.028-.03-.041a2.655,2.655,0,0,0-.629-.534,5.771,5.771,0,0,0-1.327-.582,15.2,15.2,0,0,0-2.629-.536c-.449-.056-.922-.1-1.411-.13q.038,1.145.075,2.289a1.172,1.172,0,0,1-1.059,1.206m-1.854,1.2h0a.606.606,0,0,1-.168.409.6.6,0,0,1-.43.182.615.615,0,0,1-.611-.582h0v0h0v-.01h0v-.024a.6.6,0,0,1,.6-.6.618.618,0,0,1,.614.592v.04Zm1.711-.013a.6.6,0,0,1-.6.6.614.614,0,0,1-.609-.576h0v-.023h0v-.019a.6.6,0,0,1,.6-.606.618.618,0,0,1,.615.6v.024Zm1.737-.025v.023a.609.609,0,0,1-.172.424.6.6,0,0,1-.429.18.616.616,0,0,1-.61-.576h0v0h0v0h0v-.035a.6.6,0,0,1,.6-.6.618.618,0,0,1,.614.595" transform="translate(-4.668 -164.37)" fill="#b5d6e6"/>
      <path id="パス_61609" data-name="パス 61609" d="M25.693,262.175c-.276.027-.554.04-.831.04s-.556-.014-.833-.04a1.175,1.175,0,0,1-1.06-1.128q.083,2.456.166,4.912.039,1.182.079,2.363a1.175,1.175,0,0,0,1.059,1.128c.276.027.554.041.831.041s.553-.014.829-.041a1.172,1.172,0,0,0,1.059-1.206q-.038-1.144-.075-2.289-.081-2.493-.164-4.986h0a1.173,1.173,0,0,1-1.06,1.206" transform="translate(-13.806 -156.859)" fill="#7299b3"/>
      <path id="パス_61610" data-name="パス 61610" d="M22.865,258.059q.021.616.041,1.233a1.175,1.175,0,0,0,1.06,1.128c.277.027.555.04.833.04s.555-.014.831-.04a1.172,1.172,0,0,0,1.06-1.206h0l-.038-1.165a10.424,10.424,0,0,1-1.926.185,10.622,10.622,0,0,1-1.86-.174" transform="translate(-13.743 -155.104)" fill="#466784"/>
      <path id="パス_61611" data-name="パス 61611" d="M21.325,215.859c0-.095,0-.191,0-.288l-1.173.031,1.173-.031a11.016,11.016,0,0,0-10.973-10.661,10.333,10.333,0,0,0-7.345,3,10.2,10.2,0,0,0-2.52,4.159c0,.009-.007.018-.01.028A10.416,10.416,0,0,0,0,215.213q0,.22.009.436h0a10.982,10.982,0,0,0,.848,3.782,10.844,10.844,0,0,0,3.605,4.646,10.9,10.9,0,0,0,4.659,2.043,10.658,10.658,0,0,0,1.86.174,10.38,10.38,0,0,0,1.926-.185,10.518,10.518,0,0,0,5.412-2.868,10.461,10.461,0,0,0,3-7.382m-4.1,6.3a8.816,8.816,0,0,1-6.3,2.615A9.347,9.347,0,0,1,4.422,222.1a9.517,9.517,0,0,1-2.9-6.449c0-.121-.008-.242-.008-.365a8.81,8.81,0,0,1,8.88-8.852,9.448,9.448,0,0,1,9.405,9.137l-1.173.032,1.173-.032q0,.132,0,.261a8.955,8.955,0,0,1-2.579,6.325" transform="translate(0 -123.164)" fill="#7299b3"/>
      <path id="パス_61612" data-name="パス 61612" d="M22.092,217.862l-1.173.032,1.173-.032a9.447,9.447,0,0,0-9.405-9.137,8.809,8.809,0,0,0-8.88,8.852c0,.122,0,.243.007.364a9.517,9.517,0,0,0,2.9,6.449,9.345,9.345,0,0,0,6.509,2.674,8.818,8.818,0,0,0,6.3-2.615,8.957,8.957,0,0,0,2.579-6.326c0-.086,0-.173,0-.261m-1.609,1.628a.694.694,0,0,1-.158.26,7.268,7.268,0,0,1-7.12,5.73,7.679,7.679,0,0,1-4.462-1.45l-.33-.155a1.151,1.151,0,0,1-.386-.272.7.7,0,0,1-.143-.276A7.91,7.91,0,0,1,5.4,217.895a7.239,7.239,0,0,1,4.321-6.966l.207-.146h0a.983.983,0,0,1,.564-.209.62.62,0,0,1,.169.023,7.471,7.471,0,0,1,2.044-.289,7.779,7.779,0,0,1,7.786,8.414c.012.109.022.209.032.294l.01.17a.964.964,0,0,1-.045.3" transform="translate(-2.288 -125.457)" fill="#b5d6e6"/>
      <path id="パス_61613" data-name="パス 61613" d="M27.191,235.285a2.692,2.692,0,0,1-.691-.123c-.243-.068-.509-.154-.8-.238a6.72,6.72,0,0,0-1.882-.328c-.109,0-.219,0-.328.014l-.035-.41.035.41c-.324.027-.613.053-.88.073a3.1,3.1,0,0,1,.441,1.553,3.2,3.2,0,0,1-.281,1.29,4.582,4.582,0,0,1-1.611,2.07,3.5,3.5,0,0,1-1.971.571,7.291,7.291,0,0,1-3.013-.823,7.678,7.678,0,0,0,4.462,1.45,7.269,7.269,0,0,0,7.121-5.73c-.007.007-.012.016-.019.024a.78.78,0,0,1-.554.2" transform="translate(-9.726 -140.769)" fill="#fff"/>
      <path id="パス_61614" data-name="パス 61614" d="M21.56,213.57a7.581,7.581,0,0,1,.3.974,6.893,6.893,0,0,0,.98,2.357l-.332.241.332-.241c.2.276.382.523.544.75.02-.034.032-.071.053-.105a2.931,2.931,0,0,1,2.334-1.382q.293-.025.564-.024a4.31,4.31,0,0,1,2.428.659,3.938,3.938,0,0,1,1.341,1.551,8.02,8.02,0,0,1,.705,2.76,7.779,7.779,0,0,0-7.786-8.414,7.47,7.47,0,0,0-2.044.288.721.721,0,0,1,.335.2,1.248,1.248,0,0,1,.248.392" transform="translate(-12.609 -127.844)" fill="#fff"/>
      <path id="パス_61615" data-name="パス 61615" d="M10.361,226.024a2.087,2.087,0,0,1,.249-.333c.19-.212.425-.429.675-.674a5.937,5.937,0,0,0,1.374-1.82c.132-.3.249-.578.359-.825a3.137,3.137,0,0,1-2.55-1.362,4.734,4.734,0,0,1-1.043-2.784,4,4,0,0,1,1.178-2.72,9.1,9.1,0,0,1,1.5-1.257,7.239,7.239,0,0,0-4.321,6.966,7.91,7.91,0,0,0,2.488,5.433.653.653,0,0,1-.036-.188.879.879,0,0,1,.128-.436" transform="translate(-4.673 -128.778)" fill="#fff"/>
      <path id="パス_61616" data-name="パス 61616" d="M25.357,221.508a8.018,8.018,0,0,0-.7-2.76,3.939,3.939,0,0,0-1.341-1.551,4.311,4.311,0,0,0-2.428-.658c-.181,0-.369.008-.564.024a2.932,2.932,0,0,0-2.334,1.382c-.021.034-.034.071-.053.105-.162-.227-.343-.474-.544-.75l-.332.241.332-.241a6.9,6.9,0,0,1-.981-2.356,7.571,7.571,0,0,0-.3-.974,1.26,1.26,0,0,0-.248-.392.723.723,0,0,0-.336-.2.618.618,0,0,0-.169-.023.982.982,0,0,0-.563.209l-.207.146a9.072,9.072,0,0,0-1.5,1.257,4,4,0,0,0-1.178,2.72,4.732,4.732,0,0,0,1.042,2.784,3.139,3.139,0,0,0,2.551,1.362c-.11.247-.227.521-.359.825a5.93,5.93,0,0,1-1.374,1.82c-.251.245-.485.462-.675.674a2.09,2.09,0,0,0-.25.333.879.879,0,0,0-.128.436.644.644,0,0,0,.036.189.7.7,0,0,0,.144.276,1.145,1.145,0,0,0,.386.273l.331.154a7.286,7.286,0,0,0,3.013.824,3.5,3.5,0,0,0,1.971-.571A4.579,4.579,0,0,0,20.209,225a3.214,3.214,0,0,0,.28-1.29,3.1,3.1,0,0,0-.44-1.553c.266-.021.555-.046.879-.073l-.034-.409.035.409c.109-.009.218-.014.328-.014a6.709,6.709,0,0,1,1.882.328c.286.084.552.17.8.239a2.678,2.678,0,0,0,.691.123.78.78,0,0,0,.555-.2c.007-.007.012-.016.019-.023a.7.7,0,0,0,.157-.26.96.96,0,0,0,.045-.3l-.01-.17c-.01-.085-.02-.185-.032-.294m-6.2.509a1.818,1.818,0,0,1-1.3.537,1.924,1.924,0,0,1-1.911-1.853v-.066a1.82,1.82,0,0,1,1.827-1.828,1.922,1.922,0,0,1,1.911,1.855v.061a1.829,1.829,0,0,1-.531,1.295" transform="translate(-7.159 -128.243)" fill="#3799d4"/>
      <path id="パス_61617" data-name="パス 61617" d="M25.784,228.868a1.922,1.922,0,0,0-1.911-1.855,1.819,1.819,0,0,0-1.827,1.828l0,.066a1.923,1.923,0,0,0,1.911,1.853,1.822,1.822,0,0,0,1.827-1.832v-.061Z" transform="translate(-13.251 -136.45)" fill="#fff"/>
      <path id="パス_61618" data-name="パス 61618" d="M27.591,283.662a.6.6,0,0,0-.43.181.608.608,0,0,0-.172.425v.018h0v.023h0a.614.614,0,0,0,.61.576.6.6,0,0,0,.6-.6v-.024a.619.619,0,0,0-.615-.6" transform="translate(-16.222 -170.499)" fill="#fff"/>
      <path id="パス_61619" data-name="パス 61619" d="M23.3,283.662a.6.6,0,0,0-.6.6v.024h0v.01h0v0h0a.615.615,0,0,0,.611.582.6.6,0,0,0,.43-.181.607.607,0,0,0,.168-.409h0v-.04a.618.618,0,0,0-.614-.592" transform="translate(-13.646 -170.499)" fill="#fff"/>
      <path id="パス_61620" data-name="パス 61620" d="M31.518,283.841a.606.606,0,0,0-.174.425v.035h0v0h0v0h0a.615.615,0,0,0,.61.576.6.6,0,0,0,.429-.18.606.606,0,0,0,.172-.424v-.023a.617.617,0,0,0-.614-.595.6.6,0,0,0-.428.179" transform="translate(-18.84 -170.499)" fill="#d54859"/>
      <path id="パス_61621" data-name="パス 61621" d="M208.561,190.619c.27-.081.54-.166.811-.23l-.345-.349-.533.535.066.044" transform="translate(-125.319 -114.226)" fill="#d4d5d5"/>
      <path id="パス_61622" data-name="パス 61622" d="M208.729,173.043l-1.109-1.13-.378.379,1.11,1.129.377-.378" transform="translate(-124.566 -103.331)" fill="#d4d5d5"/>
      <path id="パス_61623" data-name="パス 61623" d="M206.037,175.743l-1.11-1.129-.378.378,1.112,1.128.376-.377" transform="translate(-122.947 -104.954)" fill="#d4d5d5"/>
      <path id="パス_61624" data-name="パス 61624" d="M212.4,188.5c.134-.02.268-.051.4-.067l.172-.173-.986-1-.409.41.821.831" transform="translate(-127.17 -112.556)" fill="#d4d5d5"/>
      <path id="パス_61625" data-name="パス 61625" d="M207.709,183.748l.409-.411-1.412-1.434-.411.412,1.414,1.433" transform="translate(-123.997 -109.336)" fill="#d4d5d5"/>
      <path id="パス_61626" data-name="パス 61626" d="M203.839,186.8l.674-.676-1.413-1.433-.962.965,1.7,1.144" transform="translate(-121.498 -111.009)" fill="#d4d5d5"/>
      <path id="パス_61627" data-name="パス 61627" d="M211.422,170.343l-1.107-1.131-.379.379,1.109,1.13.377-.378" transform="translate(-126.185 -101.707)" fill="#d4d5d5"/>
      <path id="パス_61628" data-name="パス 61628" d="M220.7,180.561l.373-.375-.983-1-.374.375.984,1" transform="translate(-132.061 -107.701)" fill="#d4d5d5"/>
      <path id="パス_61629" data-name="パス 61629" d="M126.32,224.479a11.689,11.689,0,0,1,4.455.989l.356-.724a12.839,12.839,0,0,0-10.07.076l.473.573a11.615,11.615,0,0,1,4.786-.914" transform="translate(-72.766 -134.49)" fill="#d4d5d5"/>
      <path id="パス_61630" data-name="パス 61630" d="M210.483,181.019l.374-.375-1.411-1.435-.375.377,1.412,1.433" transform="translate(-125.665 -107.716)" fill="#d4d5d5"/>
      <path id="パス_61631" data-name="パス 61631" d="M149.486,240.335l1.68-.628c-.126-.175-.253-.349-.39-.515l-1.291,1.143" transform="translate(-89.851 -143.77)" fill="#d4d5d5"/>
      <path id="パス_61632" data-name="パス 61632" d="M203.293,178.442l-1.111-1.129-.413.413,1.113,1.127.411-.412" transform="translate(-121.276 -106.577)" fill="#d4d5d5"/>
      <path id="パス_61633" data-name="パス 61633" d="M141.911,233.265q-1.23,2.506-2.449,5l1.563-.584,3.1-2.746a9.925,9.925,0,0,0-2.213-1.673" transform="translate(-83.826 -140.207)" fill="#d4d5d5"/>
      <path id="パス_61634" data-name="パス 61634" d="M215.858,175.626l.375-.376-1.407-1.437-.376.377,1.409,1.436" transform="translate(-128.898 -104.473)" fill="#d4d5d5"/>
      <path id="パス_61635" data-name="パス 61635" d="M155.462,252.875l-1.843.57c.623.039,1.249.075,1.872.114,0-.23-.012-.458-.029-.684" transform="translate(-92.335 -151.994)" fill="#d4d5d5"/>
      <path id="パス_61636" data-name="パス 61636" d="M213.17,178.324l.375-.376-1.409-1.436-.376.377,1.41,1.435" transform="translate(-127.282 -106.095)" fill="#d4d5d5"/>
      <path id="パス_61637" data-name="パス 61637" d="M215.332,185.945l.373-.374-.985-1-.373.375.986,1" transform="translate(-128.836 -110.938)" fill="#d4d5d5"/>
      <path id="パス_61638" data-name="パス 61638" d="M218.013,183.253l.373-.375-.984-1-.375.375.985,1" transform="translate(-130.448 -109.319)" fill="#d4d5d5"/>
      <path id="パス_61639" data-name="パス 61639" d="M135.754,230.32q-.167,3.395-.319,6.777l.26-.1q1.424-2.978,2.854-5.96a9.8,9.8,0,0,0-2.8-.72" transform="translate(-81.405 -138.437)" fill="#d4d5d5"/>
      <path id="パス_61640" data-name="パス 61640" d="M149.276,256.527c-1.449-.091-2.9-.177-4.357-.266l-1.568.485q2.626,1.253,5.249,2.508a9.35,9.35,0,0,0,.676-2.726" transform="translate(-86.163 -154.03)" fill="#d4d5d5"/>
      <path id="パス_61641" data-name="パス 61641" d="M199.131,181.229l-1.113-1.127-1.33,1.334,1.339.9,1.1-1.107" transform="translate(-118.222 -108.253)" fill="#d4d5d5"/>
      <path id="パス_61642" data-name="パス 61642" d="M118.2,228.336a10.3,10.3,0,0,0-10.625,10.121,10.635,10.635,0,0,0,10.46,10.533,10.142,10.142,0,0,0,10.522-10.04,10.44,10.44,0,0,0-.044-1.051l-.726.225c.017.226.028.454.029.684-.623-.04-1.249-.076-1.872-.115l-2.528.781c1.452.089,2.907.175,4.357.267a9.35,9.35,0,0,1-.676,2.726q-2.62-1.258-5.249-2.508l-1.315.406q3.085,1.47,6.164,2.945a9.325,9.325,0,0,1-1.681,2.236q-2.344-2.559-4.691-5.116l-.482.149a3.664,3.664,0,0,1-3.179.015q-1.55,3.251-3.093,6.5a10.065,10.065,0,0,1-2.339-1.708l5.418-4.8a2.039,2.039,0,0,1-.641-.679l-5.412,4.795a9.727,9.727,0,0,1-1.509-2.434q3.463-1.19,6.916-2.372a2.542,2.542,0,0,1-.328-.875q-3.453,1.184-6.914,2.372a9.4,9.4,0,0,1-.4-2.066q-.03-.361-.032-.729l.884.05q3.238.179,6.466.368a1.981,1.981,0,0,1,.025-.934q-2.694-.156-5.4-.307c-.646-.036-1.289-.075-1.936-.11a9.268,9.268,0,0,1,.684-2.734l1.385.655,1.446.683q1.91.9,3.818,1.8a3.078,3.078,0,0,1,2.011-1.788q-1.249-3.41-2.492-6.825a9.783,9.783,0,0,1,2.856-.385q-.178,3.606-.339,7.2c.15-.061.291-.124.458-.182l.495-.185q.156-3.386.319-6.778a9.8,9.8,0,0,1,2.8.721q-1.433,2.984-2.854,5.96h0q1.611-3.294,3.23-6.594a10.569,10.569,0,0,0-3.982-.876m6.116,17.831a9.484,9.484,0,0,1-2.437,1.419q-1.267-3.411-2.523-6.829,2.48,2.706,4.961,5.41m-5.857-5.141q1.264,3.433,2.535,6.86a9.841,9.841,0,0,1-2.84.375q.145-3.612.305-7.236m-.932-.076q-.158,3.631-.306,7.255a10.04,10.04,0,0,1-2.808-.715q1.55-3.265,3.114-6.539m-5.1-5.459c-.993-.468-1.983-.939-2.977-1.406a9.489,9.489,0,0,1,1.711-2.262q1.091,1.189,2.181,2.38,1.393,1.518,2.784,3.036-1.848-.875-3.7-1.748m2.641-3.718q.886,2.435,1.777,4.867l-2.949-3.216-2.036-2.221a9.684,9.684,0,0,1,2.473-1.445c.244.673.491,1.342.736,2.015" transform="translate(-64.659 -137.243)" fill="#807878"/>
      <path id="パス_61643" data-name="パス 61643" d="M144.587,231.629l-.321.653a9.9,9.9,0,0,1,2.213,1.673l-3.1,2.746,2.436-.91,1.291-1.144c.137.166.264.341.39.515l.708-.265a10.664,10.664,0,0,0-3.617-3.268" transform="translate(-86.181 -139.224)" fill="#807878"/>
      <path id="パス_61644" data-name="パス 61644" d="M146.893,229.154l-.486.987a10.663,10.663,0,0,1,3.617,3.268l1.07-.4a11.794,11.794,0,0,0-4.2-3.855" transform="translate(-88 -137.737)" fill="#3c3939"/>
      <path id="パス_61645" data-name="パス 61645" d="M126.864,237.286a10.142,10.142,0,0,1-10.522,10.04,10.635,10.635,0,0,1-10.46-10.533,10.3,10.3,0,0,1,10.625-10.121,10.569,10.569,0,0,1,3.982.876l.488-.991a11.668,11.668,0,0,0-9.241-.075,11.472,11.472,0,0,0-5.352,4.6,11.054,11.054,0,0,0-1.624,5.689,11.184,11.184,0,0,0,.212,2.236,11.854,11.854,0,0,0,11.368,9.413,11.212,11.212,0,0,0,11.636-11.1,11.5,11.5,0,0,0-.083-1.413l-1.072.331a10.418,10.418,0,0,1,.044,1.051" transform="translate(-62.967 -135.579)" fill="#3c3939"/>
      <path id="パス_61646" data-name="パス 61646" d="M131.966,174.539l-.26.089.849,1.239q1.428,2.087,2.86,4.171l-3.276,1.117a.936.936,0,0,0-.608.673q-1.872,8.079-3.676,16.1a4.14,4.14,0,0,0-1.168.112q-3.349-5.246-6.689-10.5l-.809.566.611.958s0,0-.006.008q-1.009,2.045-2.009,4.084a14.791,14.791,0,0,0-14.922,2.015,14.481,14.481,0,0,0-2.649,2.758,14.032,14.032,0,0,0-2.733,8.239.934.934,0,0,0,1.868.012,12.131,12.131,0,0,1,2.109-6.757,12.61,12.61,0,0,1,2.57-2.792,12.837,12.837,0,0,1,12.931-1.795l-.356.724-.487.991q-1.621,3.3-3.23,6.594h0l-.261.1-.495.185c-.166.057-.308.12-.458.182l-.026.01a3.078,3.078,0,0,0-2.011,1.788v.006a1.982,1.982,0,0,0-.026.937v.005a2.836,2.836,0,0,0,.113.424,2.8,2.8,0,0,0,.215.451l0,.008a2.043,2.043,0,0,0,.643.683l.014.011a3.663,3.663,0,0,0,3.179-.015l.482-.149.209-.065,1.315-.407,1.568-.485,2.528-.781,1.844-.569.726-.225,1.072-.331c1.5-.464,3.015-.934,4.516-1.4l.055-.021q-.1-.37-.195-.74a2.1,2.1,0,0,1-.23.016,2.139,2.139,0,0,1-2.076-2.147,2.055,2.055,0,0,1,2.126-2.027,2.138,2.138,0,0,1,2.071,2.151,2.039,2.039,0,0,1-1.254,1.859l.167.635a2.674,2.674,0,0,0,1.591-3.473,2.9,2.9,0,0,0-.687-1.1q1.786-7.934,3.632-15.916l3.278-1.117,1.007,1.469c-.172.125-.35.244-.515.376a14.383,14.383,0,0,0-4.55,16.1.934.934,0,0,0,1.759-.63h0a12.516,12.516,0,0,1,3.956-14.011c.131-.1.271-.2.406-.3q3.479,5.076,6.958,10.151a.515.515,0,1,0,.849-.583q-3.481-5.067-6.951-10.141a12.465,12.465,0,0,1,2.5-1.182c.229-.077.46-.132.69-.2q-.779-.525-1.561-1.049l-1.068,1.071a.493.493,0,1,1-.7-.7l.033-.034c-.327.17-.643.352-.953.544l-1.114-1.624a.922.922,0,0,0-.768-1.12q-1.563-2.282-3.128-4.564l-.837-1.22a.925.925,0,0,1-.56.535m-18.09,31.532a1.8,1.8,0,0,1-1.866,1.78,1.876,1.876,0,0,1-1.841-1.867,1.807,1.807,0,0,1,1.869-1.782,1.9,1.9,0,0,1,.311.038c-.256.523-.513,1.048-.769,1.571a.493.493,0,0,0,.887.433c.255-.522.512-1.046.768-1.569a1.837,1.837,0,0,1,.641,1.4m7.81-6.211-1.071.4-.708.264-1.68.628-2.436.91-1.563.584q1.224-2.5,2.449-5l.321-.652c.161-.329.324-.659.486-.987l.369-.749a12.97,12.97,0,0,1,3.45,2.529.934.934,0,1,0,1.342-1.3,14.811,14.811,0,0,0-3.969-2.9q.871-1.771,1.742-3.54,2.646,4.158,5.3,8.313c-1.34.5-2.686,1-4.028,1.505" transform="translate(-58.592 -104.588)" fill="#d7563f"/>
      <path id="パス_61647" data-name="パス 61647" d="M169.719,237.823a.327.327,0,0,1,.632-.165q.262,1,.527,2a2.038,2.038,0,0,0,1.254-1.859,2.137,2.137,0,0,0-2.071-2.15,2.055,2.055,0,0,0-2.126,2.027,2.138,2.138,0,0,0,2.076,2.147,2,2,0,0,0,.23-.016Q169.981,238.816,169.719,237.823Z" transform="translate(-100.94 -141.642)" fill="#3a3736"/>
      <path id="パス_61648" data-name="パス 61648" d="M142.214,203.237l2.189-1.531.809-.566,2.05-1.434c1.366-.955,2.241-2.722,1.468-3.032a.714.714,0,0,0-.275-.052,7.307,7.307,0,0,0-2.172.5l-4.265,1.329c-2.128.732-2.957,1.459-2.435,2.924.3.84.423,1.567.874,1.9.336.247.851.276,1.758-.036" transform="translate(-83.807 -118.183)" fill="#524e4e"/>
      <path id="パス_61649" data-name="パス 61649" d="M173.022,240.313a.327.327,0,0,0-.632.165q.26.995.523,1.988.1.37.195.74.329,1.25.658,2.5l.621-.211q-.336-1.271-.669-2.544c-.055-.212-.112-.423-.167-.635q-.263-1-.527-2" transform="translate(-103.611 -144.297)" fill="#807878"/>
      <path id="パス_61650" data-name="パス 61650" d="M172.376,253.675a.815.815,0,0,0-.635.953.857.857,0,0,0,1.111.361l2.481-.841a.815.815,0,0,0,.634-.952.855.855,0,0,0-1.109-.362l-.875.3-.621.211-.987.334" transform="translate(-103.208 -151.932)" fill="#6c6665"/>
      <path id="パス_61651" data-name="パス 61651" d="M178.4,172.073a.93.93,0,0,0-1.165-1.232h0l-2.8.959a.934.934,0,0,0,.606,1.767l2.538-.87.26-.089a.927.927,0,0,0,.56-.536" transform="translate(-104.471 -102.656)" fill="#777070"/>
      <path id="パス_61652" data-name="パス 61652" d="M209.781,191.9l.332-.333-.642-.651c-.271.064-.541.149-.812.23l1.122.754" transform="translate(-125.418 -114.752)" fill="#d7563f"/>
      <path id="パス_61653" data-name="パス 61653" d="M213.8,190.439l.235-.236c-.134.016-.268.047-.4.067l.167.169" transform="translate(-128.406 -114.324)" fill="#d7563f"/>
      <path id="パス_61654" data-name="パス 61654" d="M214.956,190.235h0l-1.807,1.814a12.414,12.414,0,0,1,7.926,1.122.934.934,0,0,0,.843-1.666,14.35,14.35,0,0,0-6.685-1.547l-.277.278" transform="translate(-128.116 -114.175)" fill="#d7563f"/>
      <path id="パス_61655" data-name="パス 61655" d="M197.016,176.221a.493.493,0,0,0,.7,0l1.067-1.071q.78.525,1.561,1.049l.124.083a.493.493,0,0,0,.626-.061l.257-.258,1.807-1.814h0l.278-.278,4.131-4.147a.494.494,0,0,0,0-.693l-1.673-1.711,0,0,0,0-2.09-2.137,0,0,0,0q-.9-.915-1.79-1.83a.493.493,0,0,0-.7,0l-2.275,2.281h0l-1.075,1.078h0l-2.31,2.316L193.659,171a.493.493,0,0,0,.075.758q2.109,1.413,4.213,2.831l-.9.9-.033.034a.493.493,0,0,0,0,.7m9.5-6.849-.5.5-.983-1,.5-.5.981,1m-1.672-1.71-.5.505-1.407-1.437.5-.506,1.405,1.438m-3.2-3.276,1.106,1.132-.505.507-1.108-1.131.507-.508m3.675,6.188-.373.375-.984-1,.374-.376.983,1m-1.674-1.708-.375.376-1.409-1.436.376-.377,1.407,1.437m-3.205-3.272,1.108,1.131-.377.378-1.109-1.13.378-.379m3.809,6.054-.373.375-.985-1,.374-.375.984,1m-1.675-1.707-.375.376-1.41-1.434.376-.377,1.409,1.436m-3.209-3.27,1.109,1.13-.377.378-1.11-1.129.378-.379m3.814,6.051-.372.374-.986-1,.373-.375.985,1m-1.676-1.706-.374.376-1.412-1.433.375-.377,1.411,1.434m-3.212-3.267,1.11,1.129-.376.377-1.111-1.128.378-.378m3.82,6.046-.172.173-.235.236-.167-.169-.82-.831.408-.41.986,1m-1.678-1.7-.409.41-1.413-1.433.411-.412,1.412,1.434m-3.216-3.265,1.111,1.129-.411.412-1.113-1.127.412-.413m3.148,5.426.642.651-.332.333-1.122-.754-.066-.044.533-.535.345.349m-2.452-2.484,1.413,1.433-.674.676-1.7-1.144.962-.965m-3.136-.5,1.33-1.334,1.113,1.127-1.1,1.107-1.339-.9" transform="translate(-116.315 -98.088)" fill="#807878"/>
      <path id="パス_61656" data-name="パス 61656" d="M92.3,241.338q.056.67.111,1.341.037-.668.073-1.336l-.184-.005" transform="translate(-55.477 -145.06)" fill="#c9c6b5"/>
      <path id="パス_61657" data-name="パス 61657" d="M107.685,247.008q.038-.715.077-1.429l-2.209-.067c-.026.475-.051.952-.077,1.426l3.312.105h0l-.159-.005-.944-.03" transform="translate(-63.398 -147.569)" fill="#c9c6b5"/>
      <path id="パス_61658" data-name="パス 61658" d="M92.059,199.672a.573.573,0,0,1-.557-.612q.133-2.454.267-4.911a.622.622,0,0,1,.622-.588q5.49.1,10.98.211a.575.575,0,0,1,.558.616l-.264,4.945a.62.62,0,0,1-.622.589q-3.005-.071-6.01-.137c-.026.485-.052.967-.079,1.452l.137,0,1.885.044q1.994.048,3.989.094a2.112,2.112,0,0,0,2.127-2.012l.172-3.237q.046-.856.091-1.712c0-.043-.006-.083-.006-.126a1.951,1.951,0,0,0-1.9-1.978q-5.49-.106-10.979-.2a2.127,2.127,0,0,0-2.127,2.012q-.133,2.454-.267,4.906a1.956,1.956,0,0,0,1.905,2.09q1.88.043,3.761.089c.026-.484.053-.967.079-1.451q-1.88-.042-3.761-.086" transform="translate(-54.139 -115.471)" fill="#97a747"/>
      <path id="パス_61659" data-name="パス 61659" d="M105.818,201.519l.264-4.945a.575.575,0,0,0-.558-.615q-5.49-.111-10.98-.211a.622.622,0,0,0-.622.588q-.133,2.456-.267,4.91a.572.572,0,0,0,.557.612l3.761.085c.031-.565.061-1.129.092-1.694l-1.168-.025a1.179,1.179,0,0,1-1.146-1.258l.014-.269a1.281,1.281,0,0,1,1.28-1.209q2.745.054,5.491.111a1.183,1.183,0,0,1,1.146,1.264c0,.09-.009.18-.014.27a1.276,1.276,0,0,1-1.279,1.211l-3.111-.068c-.031.566-.061,1.13-.092,1.7q3,.068,6.01.137a.621.621,0,0,0,.622-.589" transform="translate(-56.293 -117.657)" fill="#623d1a"/>
      <path id="パス_61660" data-name="パス 61660" d="M111.014,247.109l.944.03.159.005.457.015.43.014.326.011.161,0,.943.03q.038-.715.077-1.431l-3.42-.107q-.039.714-.077,1.429" transform="translate(-66.727 -147.67)" fill="#3b3938"/>
      <path id="パス_61661" data-name="パス 61661" d="M105.671,243.25l2.209.067,3.42.107q3.721.117,7.444.239.04-.758.081-1.518-6.538-.208-13.073-.4l-.081,1.5" transform="translate(-63.515 -145.307)" fill="#623d1a"/>
      <path id="パス_61662" data-name="パス 61662" d="M96.654,241.472c-1.339-.04-2.679-.083-4.019-.122l-.073,1.336c0,.055-.006.11-.009.166h.023l4,.121.081-1.5" transform="translate(-55.63 -145.067)" fill="#623d1a"/>
      <path id="パス_61663" data-name="パス 61663" d="M118.335,232.982c-.647-.02-1.295-.036-1.942-.055q-3.668-.107-7.334-.207l-1.885-.053-1.1-.031q-.1,1.817-.2,3.636,6.536.194,13.073.4l1.762.056s.043-.821.1-1.833a1.35,1.35,0,0,0-.126-.62,2.584,2.584,0,0,0-2.345-1.29" transform="translate(-63.638 -139.829)" fill="#97a747"/>
      <path id="パス_61664" data-name="パス 61664" d="M88.442,234.061l-.1,1.81,1.578.045.184.005c1.339.039,2.679.083,4.019.122q.1-1.815.2-3.633c-1.07-.029-2.141-.062-3.211-.091a3.416,3.416,0,0,0-1.463.276,1.815,1.815,0,0,0-1.2,1.466" transform="translate(-53.1 -139.638)" fill="#97a747"/>
      <path id="パス_61665" data-name="パス 61665" d="M92.627,274.018l-.144,2.61c0,.032,0,.064-.005.1l.042,0,1.189.045.709.028q.074-1.355.149-2.71l-.363-.013-1.214-.045-.363-.013" transform="translate(-55.585 -164.703)" fill="#3b3938"/>
      <path id="パス_61666" data-name="パス 61666" d="M111.271,274.71q-.074,1.36-.148,2.718l1.941.076.147-2.721-.363-.014-1.214-.046-.363-.014" transform="translate(-66.792 -165.119)" fill="#3b3938"/>
      <path id="パス_61667" data-name="パス 61667" d="M129.917,275.424q-.074,1.365-.147,2.73l1.941.079q.074-1.367.146-2.734l-.363-.014-1.214-.047-.363-.014" transform="translate(-78 -165.548)" fill="#3b3938"/>
      <path id="パス_61668" data-name="パス 61668" d="M97.3,218.185c-.046.839-.091,1.682-.137,2.521l-.007.134h0l1.214.039,3.312.107q-.14,2.584-.28,5.164-2.343-.084-4.687-.168a2.816,2.816,0,0,0-2.647,1.348,1.918,1.918,0,0,0-.223.782q-.041.747-.082,1.494l1.214.044q.041-.748.082-1.5c.03-.542.758-.973,1.589-.944q2.344.084,4.687.171-.068,1.249-.136,2.5l1.214.046.135-2.5q2.344.086,4.688.171c.832.03,1.51.517,1.481,1.063q-.04.753-.081,1.507l1.214.048q.041-.755.081-1.508a2.462,2.462,0,0,0-2.629-2.347q-2.344-.086-4.688-.168.174-3.2.346-6.4l-.326-.01-.43-.014-.457-.015h0l-3.312-.105c.026-.474.051-.951.077-1.426.027-.5.054-1,.081-1.5q.1-1.816.2-3.636.19-3.519.381-7.04l.079-1.452c.03-.566.061-1.129.092-1.7l3.111.068a1.276,1.276,0,0,0,1.279-1.211l.014-.27a1.183,1.183,0,0,0-1.146-1.264l-5.491-.111a1.281,1.281,0,0,0-1.279,1.209l-.015.269a1.179,1.179,0,0,0,1.146,1.258l1.168.025c-.031.566-.061,1.129-.092,1.694l-.079,1.451q-.19,3.52-.381,7.035-.1,1.816-.2,3.633l-.081,1.5" transform="translate(-56.356 -120.278)" fill="#9c9390"/>
    </g>
  </g>
</svg>
