<svg xmlns="http://www.w3.org/2000/svg" xmlns:xlink="http://www.w3.org/1999/xlink" width="140" height="140" viewBox="0 0 140 140">
  <defs>
    <clipPath id="clip-path">
      <circle id="楕円形_501" data-name="楕円形 501" cx="70" cy="70" r="70" transform="translate(0 0.477)" fill="#f7f3e5"/>
    </clipPath>
    <clipPath id="clip-path-2">
      <rect id="長方形_26033" data-name="長方形 26033" width="70.308" height="55.633" fill="none"/>
    </clipPath>
  </defs>
  <g id="trouble_03" transform="translate(0 -0.477)">
    <circle id="楕円形_23" data-name="楕円形 23" cx="70" cy="70" r="70" transform="translate(0 0.477)" fill="#f7f3e5"/>
    <g id="マスクグループ_80" data-name="マスクグループ 80" clip-path="url(#clip-path)">
      <g id="グループ_4311" data-name="グループ 4311" transform="translate(5 45.355)">
        <g id="グループ_4307" data-name="グループ 4307" transform="translate(0 -0.001)">
          <path id="パス_69957" data-name="パス 69957" d="M1074.9,1955.446s-5.462,1.469-8.958,10.5,2.864,30.646,2.864,30.646l5.443,2.578Z" transform="translate(-1064.889 -1892.516)" fill="#f0ac40"/>
          <path id="パス_69958" data-name="パス 69958" d="M945.563,2015.407l1.308-52.133-.033-14.414,8.733-7.439,15.215.245,9.523,7.781-2.224,41.687,1.338,18.566Z" transform="translate(-942.169 -1881.798)" fill="#f0ac40"/>
          <path id="パス_69959" data-name="パス 69959" d="M1016.648,1833.924c-1.7.882,1.675,2.545,2.452,2.648,1.959.254,4.805-1.224,6.043-2.741,2.438-2.993,1.941-9.741-.793-12.327a7.425,7.425,0,0,0-5.353-2.173,2.257,2.257,0,0,0-1.973,2.933c-1.983-2.728-4.85-.665-5.526.41-.8,1.271-1.15,4.041.824,4.4-1.185.107-1.405,2.236-1.25,3.167.423,2.532,3.25,3.6,5.438,3.844C1016.518,1834.117,1016.664,1833.914,1016.648,1833.924Z" transform="translate(-1003.971 -1788.485)" fill="#d1684e"/>
          <path id="パス_69960" data-name="パス 69960" d="M934.293,1737.663c-.187,8.126,6.388,16.779,6.388,16.779l16.039,2.819s8.258-5.228,9.389-12.24a41.414,41.414,0,0,0,.608-6.859,13.456,13.456,0,0,0-1.3-6.32c-2.192-3.91-6.217-6.138-9.485-7.368a28.542,28.542,0,0,0-3.755-1.1c-.827-.186-1.339-.245-1.339-.245h-.077l-3.448.258a13.485,13.485,0,0,0-1.387.424C942.519,1725.005,934.526,1727.535,934.293,1737.663Z" transform="translate(-925.921 -1714.966)" fill="#d1684e"/>
          <path id="パス_69961" data-name="パス 69961" d="M947.471,1782.3a13.66,13.66,0,1,0,16.064-10.265A13.482,13.482,0,0,0,947.471,1782.3Z" transform="translate(-936.736 -1752.121)" fill="#edbf98"/>
          <path id="パス_69962" data-name="パス 69962" d="M1052.713,1799.975a4.325,4.325,0,1,0,5.113-3.364A4.328,4.328,0,0,0,1052.713,1799.975Z" transform="translate(-1048.375 -1771.056)" fill="#edbf98"/>
          <path id="パス_69963" data-name="パス 69963" d="M972.208,1756.335a24.844,24.844,0,0,1,.21,4.448c-.048.846.077,2.9-.655,3.464-.649-1.334-.732-2.927-1.537-4.227a35.915,35.915,0,0,0-3.578-4.939,7.843,7.843,0,0,0,.132,2.76c-1.746-1.165-3.229-3.355-4.376-5.079-1.688,1.806-4.565,2.748-6.757,3.643-1.922.784-4.8,2.053-6.9,2,1.063-1.583,2.57-2.9,3.16-4.793-1.57,1.27-2.662,3.191-4.292,4.5a12.533,12.533,0,0,1-4.412,2.789c-.889-3.278-1.534-6.24-.2-9.661a15.489,15.489,0,0,1,5.17-6.322,12.713,12.713,0,0,1,7.189-2.281c.841-.045,1.957.409,2.8.123a4.081,4.081,0,0,1,2.232-.1,15.7,15.7,0,0,1,9.339,6.176C971.455,1751.069,971.855,1753.488,972.208,1756.335Z" transform="translate(-933.524 -1729.81)" fill="#d1684e"/>
          <path id="パス_69964" data-name="パス 69964" d="M971.325,1814.082a1.371,1.371,0,0,0,.336,1.831,1.2,1.2,0,0,0,1.717-.4,1.366,1.366,0,0,0-.342-1.83A1.2,1.2,0,0,0,971.325,1814.082Z" transform="translate(-941.472 -1784.012)" fill="#0d0002"/>
          <path id="パス_69965" data-name="パス 69965" d="M1012.4,1806.561a1.371,1.371,0,0,0,.337,1.83,1.206,1.206,0,0,0,1.718-.4,1.371,1.371,0,0,0-.343-1.83A1.2,1.2,0,0,0,1012.4,1806.561Z" transform="translate(-992.234 -1778.264)" fill="#0d0002"/>
          <path id="パス_69966" data-name="パス 69966" d="M997.2,1820.285a.323.323,0,0,0,.247-.057c.136-.1.284-.189.429-.277a1.967,1.967,0,0,0,1.142-1.377,12.924,12.924,0,0,0-.344-2.846c-.1-.57-.2-1.109-.212-1.341a.321.321,0,1,0-.64.043c.018.267.112.8.22,1.41a15.28,15.28,0,0,1,.341,2.638c-.069.435-.35.625-.842.924-.156.094-.317.191-.475.308a.322.322,0,0,0-.069.449A.316.316,0,0,0,997.2,1820.285Z" transform="translate(-973.002 -1784.482)" fill="#0d0002"/>
          <path id="パス_69967" data-name="パス 69967" d="M935.084,1711.533l.355,3.7c.32-.573.685-1.139,1-1.617a41.356,41.356,0,0,1,3.031-4.2c2.361-2.892,5.272-5.759,8.924-7.045,5.872-2.065,11.773,1.679,14.982,6.512a15.981,15.981,0,0,1,1.616,3.113,34.871,34.871,0,0,1,1.608,5.081c.112.483.207.977.3,1.485a29.53,29.53,0,0,0,.419-5.821c-.459-1.116-1.861-5.706-5.217-8.909a18.108,18.108,0,0,0-4.235-2.928c-.969-.5-3-1.259-4.1-.89a6.71,6.71,0,0,0,2.952-2c.05-.021.074-.064.111-.1a8.026,8.026,0,0,0,1.677-7.894c-1.865,1.012-3.652,3.377-4.744,5.147a8.856,8.856,0,0,0-.725,1.515,1.44,1.44,0,0,0-.074.234,28.513,28.513,0,0,1-1.218,3.3,11.24,11.24,0,0,0-.2-3.543,10.518,10.518,0,0,0-.5-1.71c-.94-2.434-5.81-6.266-5.81-6.266s-.824-1.55-.782,4.275a5.386,5.386,0,0,0,1.156,3.182,8,8,0,0,0,1.1,1.2,14.769,14.769,0,0,0,3.733,2.393c-4.157-1.5-8.758,2.613-11.172,5.371A29.935,29.935,0,0,0,935.084,1711.533Z" transform="translate(-926.715 -1688.503)" fill="#4a98d4"/>
          <path id="パス_69968" data-name="パス 69968" d="M995.93,1887.843l-7.7-.159a11.771,11.771,0,0,0,2.5-2.065c2.01-1.891,2.957-15.25,2.957-15.25h2.482v.026l0-.026h2.481s.947,13.359,2.955,15.25l2.01,1.892-7.213.332v.022l-.235-.011-.235.011Z" transform="translate(-975.532 -1827.495)" fill="#edbf98"/>
          <path id="パス_69969" data-name="パス 69969" d="M990.021,1762.1a.385.385,0,0,0,.26-.043,5.236,5.236,0,0,0,.8-.561.391.391,0,0,0-.5-.6,4.615,4.615,0,0,1-.684.479.392.392,0,0,0,.121.727Zm2.3-2.167a.39.39,0,0,0,.373-.137l.321-.4.253-.315a.391.391,0,1,0-.612-.488l-.251.312c-.1.125-.207.256-.317.391a.393.393,0,0,0,.233.634Zm1.883-2.559a.392.392,0,0,0,.4-.18c.166-.271.321-.544.462-.813a.392.392,0,1,0-.694-.363c-.132.253-.279.51-.435.766a.391.391,0,0,0,.129.538A.4.4,0,0,0,994.207,1757.378Zm1.288-2.894a.393.393,0,0,0,.448-.282c.068-.25.125-.5.171-.752.011-.059.021-.117.03-.175a.391.391,0,0,0-.316-.448h-.008a.392.392,0,0,0-.449.323c-.009.053-.017.106-.027.16-.042.227-.095.458-.156.688a.39.39,0,0,0,.275.48Z" transform="translate(-968.416 -1737.658)" fill="#ef7b30"/>
          <path id="パス_69970" data-name="パス 69970" d="M1007.775,1765.856a.388.388,0,0,0,.258-.04c.057-.031.113-.064.168-.1a.391.391,0,1,0-.412-.666c-.042.027-.087.051-.13.075a.391.391,0,0,0,.116.729Zm1.618-1.787a.39.39,0,0,0,.41-.192c.144-.253.278-.513.412-.769l.024-.045a.392.392,0,1,0-.695-.361l-.023.046c-.128.248-.258.5-.4.744a.389.389,0,0,0,.269.577Zm1.549-2.776a.394.394,0,0,0,.408-.186c.152-.259.306-.518.463-.772a.391.391,0,0,0-.666-.411c-.16.26-.317.522-.472.785a.392.392,0,0,0,.266.584Zm1.758-2.653a.379.379,0,0,0,.358-.125l.026-.032c.18-.229.364-.46.549-.688a.391.391,0,1,0-.607-.494q-.283.346-.563.705a.395.395,0,0,0,.237.634Zm2.05-2.419a.388.388,0,0,0,.355-.116q.307-.325.625-.638a.392.392,0,1,0-.549-.559q-.329.322-.646.66a.39.39,0,0,0,.017.553A.377.377,0,0,0,1014.749,1756.221Zm2.342-2.144a.389.389,0,0,0,.31-.076c.235-.182.476-.36.715-.527a.391.391,0,0,0-.447-.642c-.251.175-.5.36-.748.55a.392.392,0,0,0-.068.55A.385.385,0,0,0,1017.091,1754.077Z" transform="translate(-994.735 -1737.614)" fill="#ef7b30"/>
          <path id="パス_69971" data-name="パス 69971" d="M951.949,1780.108l.037.006a.392.392,0,0,0,.424-.356,9.219,9.219,0,0,0,.032-.948.391.391,0,1,0-.783.01,8.383,8.383,0,0,1-.029.868A.391.391,0,0,0,951.949,1780.108Zm-.2-3.165a.415.415,0,0,0,.139,0,.392.392,0,0,0,.317-.454c-.053-.3-.115-.6-.184-.908a.391.391,0,1,0-.764.172c.066.295.126.589.177.874A.392.392,0,0,0,951.748,1776.943Zm-.79-3.078a.408.408,0,0,0,.193-.013.392.392,0,0,0,.248-.5q-.144-.438-.306-.871a.391.391,0,1,0-.733.273c.1.279.2.562.3.844A.391.391,0,0,0,950.958,1773.865Zm-1.19-2.948a.382.382,0,0,0,.24-.033.39.39,0,0,0,.182-.521c-.136-.281-.277-.559-.421-.825a.392.392,0,0,0-.689.372c.138.256.274.523.406.794A.391.391,0,0,0,949.768,1770.917Zm-1.626-2.728a.391.391,0,0,0,.383-.621c-.2-.267-.407-.512-.608-.728a.392.392,0,0,0-.574.533,8.315,8.315,0,0,1,.557.667A.383.383,0,0,0,948.141,1768.188Z" transform="translate(-914.699 -1748.277)" fill="#ef7b30"/>
          <path id="パス_69972" data-name="パス 69972" d="M1032.456,1818a1.567,1.567,0,1,0,1.823-1.257A1.566,1.566,0,0,0,1032.456,1818Z" transform="translate(-1017.903 -1786.492)" fill="#e9706e"/>
          <path id="パス_69973" data-name="パス 69973" d="M954.249,1832.321a1.566,1.566,0,1,0,1.822-1.257A1.564,1.564,0,0,0,954.249,1832.321Z" transform="translate(-921.258 -1797.436)" fill="#e9706e"/>
          <path id="パス_69974" data-name="パス 69974" d="M1034.661,1820.108a.3.3,0,0,0,.215-.042c.37-.236,1.219-.828,1.118-1.243a.5.5,0,0,0-.234-.313,2.408,2.408,0,0,0-1.629.089l-.1.026-.077.017c.017-.014.033-.031.051-.048.038-.034.08-.074.126-.117.23-.217.706-.669.967-.622l.016,0a.3.3,0,0,0,.118-.589c-.574-.118-1.139.415-1.515.772l-.117.111c-.3.278-.609.6-.445.911s.609.24,1.013.147l.116-.03a4.6,4.6,0,0,1,.992-.18,6.279,6.279,0,0,1-.719.561.3.3,0,0,0-.093.415A.307.307,0,0,0,1034.661,1820.108Z" transform="translate(-1018.5 -1786.901)" fill="#e55a65"/>
          <path id="パス_69975" data-name="パス 69975" d="M956.993,1834.322a.3.3,0,0,0,.214-.042c.289-.181,1.223-.807,1.123-1.239a.5.5,0,0,0-.236-.317,2.407,2.407,0,0,0-1.626.088l-.105.027-.075.017.051-.046.122-.115c.232-.221.71-.679.976-.625a.3.3,0,0,0,.127-.587c-.568-.125-1.142.418-1.518.777l-.113.107c-.3.276-.61.6-.446.911s.609.239,1.013.145l.12-.03a4.57,4.57,0,0,1,.989-.179,6.111,6.111,0,0,1-.719.559.3.3,0,0,0,.106.549Z" transform="translate(-922.526 -1797.763)" fill="#e55a65"/>
          <path id="パス_69976" data-name="パス 69976" d="M1011.156,1881.027l3.179.582a.392.392,0,0,0,.142-.771l-3.179-.581a.392.392,0,0,0-.141.771Z" transform="translate(-992.045 -1835.047)" fill="#d77d75"/>
          <path id="パス_69977" data-name="パス 69977" d="M887.517,2164.175c0,2.786,1.9,13.408,4.271,13.408a4.412,4.412,0,0,0,4.4-4.626c0-2.785-1.922-5.045-4.291-5.045S887.517,2161.388,887.517,2164.175Z" transform="translate(-844.364 -2051.51)" fill="#ed8981"/>
          <path id="パス_69978" data-name="パス 69978" d="M890.973,1958.182s3.953.575,8.666,9.033,9.637,40.313,9.637,40.313l-7.747,2.446Z" transform="translate(-858.268 -1894.608)" fill="#f0ac40"/>
          <g id="グループ_4306" data-name="グループ 4306" transform="translate(3.629 100.597)">
            <path id="パス_69981" data-name="パス 69981" d="M1033.285,2142.762l-11.17-24.631,8.711-2.9,7.753,25.351Z" transform="translate(-1022.114 -2115.228)" fill="#ed8981"/>
          </g>
          <path id="パス_69986" data-name="パス 69986" d="M1053.176,2018.891a.468.468,0,0,0,.053,0,.477.477,0,0,0,.423-.527l-2.864-26.064a.477.477,0,0,0-.949.1l2.864,26.064A.477.477,0,0,0,1053.176,2018.891Z" transform="translate(-1040.097 -1920.356)" fill="#e6812d"/>
        </g>
        <path id="パス_69988" data-name="パス 69988" d="M1010.624,1785.167a2.833,2.833,0,0,0,1.383-1.53.437.437,0,1,0-.808-.333,1.87,1.87,0,0,1-1.9,1.259,1.6,1.6,0,0,0,.077-1.553c-.177-.3-.643-.754-1.762-.486-1,.24-1.142.792-1.134,1.1a1.824,1.824,0,0,0,1.145,1.381,4.673,4.673,0,0,1-1.943.228,7.709,7.709,0,0,0-1.322.052.437.437,0,1,0,.138.863,6.988,6.988,0,0,1,1.17-.042,4.141,4.141,0,0,0,3-.738l.047.009A3.074,3.074,0,0,0,1010.624,1785.167Zm-3.106-1.692a1.535,1.535,0,0,1,.3-.1c.409-.1.719-.065.809.085a.987.987,0,0,1-.243.926c-.643-.233-1.025-.625-1.029-.784C1007.357,1783.589,1007.392,1783.536,1007.518,1783.475Z" transform="translate(-987.675 -1760.298)" fill="#0d0002"/>
        <path id="パス_69989" data-name="パス 69989" d="M1007.054,1856.106a.683.683,0,1,0,.662-.851A.775.775,0,0,0,1007.054,1856.106Z" transform="translate(-984.735 -1815.946)" fill="#c1143a"/>
        <g id="グループ_4308" data-name="グループ 4308" transform="translate(44.398 43.123)">
          <path id="パス_69990" data-name="パス 69990" d="M855.751,1873.682s17.233,3.337,13.973,6.035C867.066,1881.917,855.751,1873.682,855.751,1873.682Z" transform="translate(-855.22 -1873.152)" fill="#fff"/>
          <path id="パス_69991" data-name="パス 69991" d="M866.735,1878.9h0a2.455,2.455,0,0,0,1.605-.494,1.348,1.348,0,0,0,.563-1.428c-.2-.8-1.232-2.065-7.791-3.887-3.491-.97-6.949-1.644-6.983-1.65a.53.53,0,0,0-.413.949C854.082,1872.657,862.708,1878.9,866.735,1878.9Zm-10.229-5.881c5.721,1.279,11.069,3.043,11.37,4.22.009.036.036.143-.212.348a1.443,1.443,0,0,1-.929.252C864.2,1877.842,859.328,1874.886,856.506,1873.021Z" transform="translate(-853.498 -1871.432)" fill="#0d0002"/>
        </g>
        <g id="グループ_4309" data-name="グループ 4309" transform="translate(48.698 50.739)">
          <path id="パス_69992" data-name="パス 69992" d="M850.843,1905.989s14.581,9.771,10.53,10.99C858.069,1917.974,850.843,1905.989,850.843,1905.989Z" transform="translate(-850.313 -1905.459)" fill="#fff"/>
          <path id="パス_69993" data-name="パス 69993" d="M859.237,1915.849h0a1.979,1.979,0,0,0,.566-.081,1.347,1.347,0,0,0,1.073-1.1c.122-.812-.333-2.38-5.668-6.608-2.839-2.25-5.764-4.214-5.793-4.233a.53.53,0,0,0-.749.714C849.364,1905.7,855.588,1915.849,859.237,1915.849Zm-8.268-9.657c4.784,3.405,9.04,7.118,8.859,8.323-.005.036-.022.146-.33.238a.876.876,0,0,1-.26.037C857.313,1914.789,853.6,1910.15,850.969,1906.192Z" transform="translate(-848.591 -1903.74)" fill="#0d0002"/>
        </g>
        <g id="グループ_4310" data-name="グループ 4310" transform="translate(39.021 52.532)">
          <path id="パス_69994" data-name="パス 69994" d="M891.89,1913.595s14.582,9.771,10.53,10.992C899.117,1925.581,891.89,1913.595,891.89,1913.595Z" transform="translate(-891.36 -1913.065)" fill="#fff"/>
          <path id="パス_69995" data-name="パス 69995" d="M900.284,1923.457h0a1.963,1.963,0,0,0,.566-.081,1.347,1.347,0,0,0,1.073-1.1c.122-.813-.333-2.381-5.668-6.609-2.839-2.25-5.764-4.214-5.793-4.233a.53.53,0,0,0-.749.714C890.411,1913.308,896.636,1923.457,900.284,1923.457Zm-8.268-9.659c4.783,3.405,9.039,7.119,8.859,8.323-.005.036-.022.146-.33.239a.894.894,0,0,1-.26.036C898.361,1922.4,894.65,1917.758,892.016,1913.8Z" transform="translate(-889.637 -1911.346)" fill="#0d0002"/>
        </g>
        <path id="パス_69996" data-name="パス 69996" d="M1043.7,1822.909s-1.157,12.232,1.3,10.574C1047,1832.132,1043.7,1822.909,1043.7,1822.909Z" transform="translate(-1030.578 -1791.226)" fill="#fff"/>
      </g>
      <g id="price_obj02" transform="translate(56.109 26.215)">
        <g id="グループ_757" data-name="グループ 757" transform="translate(0 -0.001)" clip-path="url(#clip-path-2)">
          <path id="パス_61388" data-name="パス 61388" d="M128.213,119.629l-.081-3.575h-.486q.042,1.78.084,3.561h-.617q-.045-1.781-.089-3.561h-.579q.046,1.78.093,3.561h-.526s0,.01,0,.014Z" transform="translate(-102.774 -94.652)" fill="#e7e6e2"/>
          <path id="パス_61389" data-name="パス 61389" d="M195.923,119.629v-.014h-.617q.006-1.781.012-3.561h-.579q0,1.78-.007,3.561h-.617q0-1.781,0-3.561h-.555q0,1.788,0,3.575Z" transform="translate(-157.866 -94.652)" fill="#e7e6e2"/>
          <path id="パス_61390" data-name="パス 61390" d="M61.551,141.632h0q.062,1.17.124,2.34-.062-1.17-.124-2.341" transform="translate(-50.2 -115.513)" fill="#e7e6e2"/>
          <path id="パス_61391" data-name="パス 61391" d="M59.53,71.042h5.236l.261-.01v.01H70q.074,2.712.148,5.424H72.37q-.061-2.712-.123-5.424h5.237l.261,0v0h4.974l0,5.424H85.1q.015-3.308.03-6.615H57.743q-.041-.779-.083-1.559h0q.217,4.087.434,8.174h1.7q-.134-2.712-.268-5.424" transform="translate(-47.027 -55.698)" fill="#e7e6e2"/>
          <path id="パス_61392" data-name="パス 61392" d="M61.219,119.629h1.689v-.014h-.551q-.09-1.781-.18-3.561H61.6q.092,1.78.185,3.561h-.564q.014.263.028.526h0q-.013-.255-.027-.511" transform="translate(-49.928 -94.652)" fill="#e7e6e2"/>
          <path id="パス_61393" data-name="パス 61393" d="M248.552,89.712q.018-.842.036-1.684H262.34q.17-3.342.341-6.684-.7.9-1.4,1.8l-.815,1.049-.053.068-.083.023-.75.211q-.156,1.511-.312,3.022l-.52-.053q.144-1.408.29-2.816l-1.539.432-.033-.116q0,.1-.008.209l-.01.251h-6.625l.007-.268q.076-2.873.153-5.745l.007-.254h6.707l-.011.272-.2,5.114L260.1,83.8l.588-.757-1.58-1.032.285-.438,1.617,1.056q.854-1.1,1.715-2.191.094-1.845.188-3.691H248.829q-.139,6.482-.277,12.965" transform="translate(-202.715 -62.594)" fill="#e7e6e2"/>
          <path id="パス_61394" data-name="パス 61394" d="M246.907,164.04q0-.157.007-.314-.145,6.771-.29,13.542a3.364,3.364,0,0,1,.352-.021,3.294,3.294,0,0,1,.534.043.13.13,0,0,1,.109.132q0,.2-.009.405h1.85q.177-6.364.354-12.727h7.358q-.167,3.818-.335,7.636h3.228l.455-8.915c0,.073-.008.146-.011.219Z" transform="translate(-201.143 -133.532)" fill="#e7e6e2"/>
          <path id="パス_61395" data-name="パス 61395" d="M298.8,97.9l-.285.438,1.58,1.032-.589.757-2.622.737q-.008.211-.017.422l.033.116,1.539-.432q-.146,1.408-.29,2.816l.52.053q.155-1.511.312-3.022l.75-.211.083-.023.053-.068.815-1.049q.7-.9,1.4-1.8l.046-.906q-.861,1.1-1.715,2.191L298.8,97.9" transform="translate(-242.12 -78.918)" fill="#c8c5bd"/>
          <path id="パス_61396" data-name="パス 61396" d="M297.046,121.906" transform="translate(-242.266 -99.425)" fill="#c8c5bd"/>
          <path id="パス_61397" data-name="パス 61397" d="M212.638,109.191a.532.532,0,0,1,.062-.222.607.607,0,0,1,.144-.188c.144-.121.292-.242.441-.36a.351.351,0,0,0,.083-.1.281.281,0,0,0,.036-.111l-.023-1.112a.128.128,0,0,1-.084-.03.13.13,0,0,1-.044-.1q.005-.242.01-.485a.13.13,0,0,1,.109-.126c.063-.01.127-.016.191-.023q.145-6.771.29-13.542.009-.421.018-.842s0-.009,0-.013l.048-2.22q.139-6.482.277-12.965h-8.008q-.015,3.307-.03,6.615h.042q0,.317,0,.634h-.042q-.008,1.781-.016,3.561h0v.014q-.011,2.432-.022,4.864,0,.383,0,.766,0,.2,0,.4h0q-.012,2.584-.023,5.169h.855q-.014,2.142-.028,4.285h3.507l-.088,6.169h2.3v-.035Z" transform="translate(-168.081 -62.594)" fill="#bbab94"/>
          <path id="パス_61398" data-name="パス 61398" d="M83.462,117.93h-.578l.036.815H83.5q-.018-.408-.035-.815" transform="translate(-67.599 -96.182)" fill="#947864"/>
          <path id="パス_61399" data-name="パス 61399" d="M89.965,117.93h-.578l.034.815H90q-.016-.408-.033-.815" transform="translate(-72.903 -96.182)" fill="#947864"/>
          <path id="パス_61400" data-name="パス 61400" d="M76.959,117.93H76.38l.038.815H77Z" transform="translate(-62.295 -96.182)" fill="#947864"/>
          <path id="パス_61401" data-name="パス 61401" d="M115.978,117.93H115.4l.025.815H116Z" transform="translate(-94.118 -96.182)" fill="#947864"/>
          <path id="パス_61402" data-name="パス 61402" d="M116.2,125.193h-.576l.025.816h.576q-.012-.408-.025-.816" transform="translate(-94.304 -102.106)" fill="#947864"/>
          <path id="パス_61403" data-name="パス 61403" d="M72.777,83.215l.261-.01H67.8q.134,2.712.268,5.423h4.915q-.1-2.707-.208-5.414m-4.381.511H72.3q.01.262.021.524h-3.9q-.012-.262-.025-.524m.065,1.34h3.895l.021.524h-3.89q-.013-.262-.025-.524m.065,1.34h3.883l.021.524H68.551q-.013-.262-.025-.524m.09,1.864q-.012-.262-.025-.524h3.872l.021.524Z" transform="translate(-55.298 -67.861)" fill="#947864"/>
          <path id="パス_61404" data-name="パス 61404" d="M97.614,83.205q.1,2.712.208,5.423h4.914l-.148-5.423Zm.534.521h3.906l.015.524h-3.9l-.019-.524m.049,1.34h3.894q.008.262.015.524h-3.89q-.009-.262-.019-.524m.049,1.34h3.883l.015.524H98.265q-.01-.262-.019-.524m.068,1.864q-.01-.262-.019-.524h3.872l.015.524Z" transform="translate(-79.612 -67.861)" fill="#947864"/>
          <path id="パス_61405" data-name="パス 61405" d="M77.3,125.193h-.577l.038.816h.576l-.037-.816" transform="translate(-62.571 -102.106)" fill="#947864"/>
          <path id="パス_61406" data-name="パス 61406" d="M74.626,116.054h-.041l.139,3.561h-.617l-.022-.536h-.575l.022.536h-.617q-.011-.268-.023-.536h-.575q.012.268.024.536h-.617q-.012-.268-.024-.536h-.575q.013.268.025.536h-.617q-.013-.268-.026-.536h-.083q-.012-.262-.025-.524h.083l-.039-.816h-.083q-.012-.262-.025-.524h.083l-.039-.816H70.3l-.017-.346h-.5q.087,1.781.175,3.561h-.066v.014h4.868l-.137-3.575" transform="translate(-56.916 -94.652)" fill="#947864"/>
          <path id="パス_61407" data-name="パス 61407" d="M102.972,117.93h-.578q.015.408.03.815H103q-.015-.408-.029-.815" transform="translate(-83.511 -96.182)" fill="#947864"/>
          <path id="パス_61408" data-name="パス 61408" d="M103.879,119.629s0-.01,0-.014h-.091q-.049-1.781-.1-3.561h-.451l.01.346h-.127q.012.408.023.816h.127q.007.262.015.524h-.127q.012.408.024.816h.127l.015.524H103.2l.015.536H102.6l-.016-.536h-.575l.017.536h-.617l-.018-.536h-.575l.018.536h-.617l-.019-.536h-.575q.01.268.02.536h-.617q-.067-1.781-.134-3.561h-.015l.137,3.575Z" transform="translate(-80.64 -94.652)" fill="#947864"/>
          <path id="パス_61409" data-name="パス 61409" d="M90.266,125.193h-.576q.017.408.034.816H90.3q-.016-.408-.033-.816" transform="translate(-73.149 -102.106)" fill="#947864"/>
          <path id="パス_61410" data-name="パス 61410" d="M83.78,125.193H83.2l.036.816h.576q-.018-.408-.035-.816" transform="translate(-67.86 -102.106)" fill="#947864"/>
          <path id="パス_61411" data-name="パス 61411" d="M109.474,117.93H108.9q.014.408.028.815h.577l-.027-.815" transform="translate(-88.814 -96.182)" fill="#947864"/>
          <path id="パス_61412" data-name="パス 61412" d="M103.234,125.193h-.576q.015.408.03.816h.576l-.029-.816" transform="translate(-83.726 -102.106)" fill="#947864"/>
          <path id="パス_61413" data-name="パス 61413" d="M109.719,125.193h-.576q.014.408.027.816h.576q-.014-.408-.027-.816" transform="translate(-89.015 -102.106)" fill="#947864"/>
          <path id="パス_61414" data-name="パス 61414" d="M95.3,83.151l-.261.01-.261.01q.1,2.707.208,5.413h.523q-.1-2.712-.208-5.423v-.01" transform="translate(-77.3 -67.817)" fill="#765f50"/>
          <path id="パス_61415" data-name="パス 61415" d="M96.7,119.629l-.137-3.575h-.523l.137,3.575Z" transform="translate(-78.326 -94.652)" fill="#765f50"/>
          <path id="パス_61416" data-name="パス 61416" d="M74.931,86.032H71.025q.013.262.025.524h3.9q-.01-.262-.021-.524" transform="translate(-57.927 -70.166)" fill="#765f50"/>
          <path id="パス_61417" data-name="パス 61417" d="M75.27,93.3H71.375q.013.262.025.524h3.89L75.27,93.3" transform="translate(-58.212 -76.091)" fill="#765f50"/>
          <path id="パス_61418" data-name="パス 61418" d="M75.608,100.56H71.724l.025.524h3.879q-.01-.262-.021-.524" transform="translate(-58.497 -82.015)" fill="#765f50"/>
          <path id="パス_61419" data-name="パス 61419" d="M72.075,107.824q.013.262.025.524h3.868q-.011-.262-.021-.524Z" transform="translate(-58.783 -87.94)" fill="#765f50"/>
          <path id="パス_61420" data-name="パス 61420" d="M89.888,116.054h-.579c0,.115.01.231.014.346H89.9q-.007-.173-.014-.346" transform="translate(-72.839 -94.652)" fill="#765f50"/>
          <path id="パス_61421" data-name="パス 61421" d="M83.38,116.054H82.8q.008.173.015.346h.578l-.015-.346" transform="translate(-67.531 -94.652)" fill="#765f50"/>
          <path id="パス_61422" data-name="パス 61422" d="M76.872,116.054h-.579q.008.173.016.346h.578q-.008-.173-.016-.346" transform="translate(-62.223 -94.652)" fill="#765f50"/>
          <path id="パス_61423" data-name="パス 61423" d="M72.572,116.4l-.017-.346h-.083q.008.173.017.346Z" transform="translate(-59.107 -94.653)" fill="#765f50"/>
          <path id="パス_61424" data-name="パス 61424" d="M72.8,122.876h.083q-.012-.262-.025-.524h-.083q.013.262.025.524" transform="translate(-59.354 -99.788)" fill="#765f50"/>
          <path id="パス_61425" data-name="パス 61425" d="M77.164,122.352h-.577l.024.524h.577l-.024-.524" transform="translate(-62.463 -99.788)" fill="#765f50"/>
          <path id="パス_61426" data-name="パス 61426" d="M90.147,122.352H89.57q.011.262.022.524h.577q-.011-.262-.021-.524" transform="translate(-73.052 -99.788)" fill="#765f50"/>
          <path id="パス_61427" data-name="パス 61427" d="M83.656,122.352h-.577l.023.524h.576q-.011-.262-.022-.524" transform="translate(-67.758 -99.788)" fill="#765f50"/>
          <path id="パス_61428" data-name="パス 61428" d="M77.5,129.616h-.576l.024.524h.575Z" transform="translate(-62.74 -105.713)" fill="#765f50"/>
          <path id="パス_61429" data-name="パス 61429" d="M83.975,129.616H83.4l.023.524H84Z" transform="translate(-68.019 -105.713)" fill="#765f50"/>
          <path id="パス_61430" data-name="パス 61430" d="M73.15,130.14h.083q-.012-.262-.025-.524h-.083q.013.262.025.524" transform="translate(-59.64 -105.713)" fill="#765f50"/>
          <path id="パス_61431" data-name="パス 61431" d="M90.448,129.616h-.576q.011.262.022.524h.575q-.011-.262-.021-.524" transform="translate(-73.298 -105.713)" fill="#765f50"/>
          <path id="パス_61432" data-name="パス 61432" d="M104.413,86.032h-3.906q.009.262.019.524h3.9l-.015-.524" transform="translate(-81.972 -70.166)" fill="#765f50"/>
          <path id="パス_61433" data-name="パス 61433" d="M104.669,93.3h-3.894q.01.262.019.524h3.89l-.015-.524" transform="translate(-82.19 -76.091)" fill="#765f50"/>
          <path id="パス_61434" data-name="パス 61434" d="M104.924,100.56h-3.883q.01.262.019.524h3.879l-.015-.524" transform="translate(-82.407 -82.015)" fill="#765f50"/>
          <path id="パス_61435" data-name="パス 61435" d="M101.307,107.824q.01.262.019.524h3.868q-.008-.262-.015-.524Z" transform="translate(-82.624 -87.94)" fill="#765f50"/>
          <path id="パス_61436" data-name="パス 61436" d="M109.411,116.054h-.579q.006.173.012.346h.578q-.006-.173-.011-.346" transform="translate(-88.762 -94.652)" fill="#765f50"/>
          <path id="パス_61437" data-name="パス 61437" d="M102.9,116.054h-.579q.007.173.013.346h.578l-.012-.346" transform="translate(-83.455 -94.652)" fill="#765f50"/>
          <path id="パス_61438" data-name="パス 61438" d="M115.92,116.054h-.579q.006.173.011.346h.578q0-.173-.01-.346" transform="translate(-94.07 -94.652)" fill="#765f50"/>
          <path id="パス_61439" data-name="パス 61439" d="M121.976,116.054h-.127l.01.346h.127l-.01-.346" transform="translate(-99.378 -94.652)" fill="#765f50"/>
          <path id="パス_61440" data-name="パス 61440" d="M122.157,122.352h-.127q.007.262.015.524h.127l-.015-.524" transform="translate(-99.526 -99.788)" fill="#765f50"/>
          <path id="パス_61441" data-name="パス 61441" d="M103.132,122.352h-.577q.009.262.019.524h.576q-.009-.262-.018-.524" transform="translate(-83.642 -99.788)" fill="#765f50"/>
          <path id="パス_61442" data-name="パス 61442" d="M109.623,122.352h-.577q.009.262.018.524h.577l-.017-.524" transform="translate(-88.936 -99.788)" fill="#765f50"/>
          <path id="パス_61443" data-name="パス 61443" d="M116.115,122.352h-.577q.008.262.016.524h.576q-.008-.262-.016-.524" transform="translate(-94.231 -99.788)" fill="#765f50"/>
          <path id="パス_61444" data-name="パス 61444" d="M109.868,129.616h-.576l.018.524h.575Z" transform="translate(-89.137 -105.713)" fill="#765f50"/>
          <path id="パス_61445" data-name="パス 61445" d="M116.341,129.616h-.576q.008.262.016.524h.575q-.008-.262-.016-.524" transform="translate(-94.416 -105.713)" fill="#765f50"/>
          <path id="パス_61446" data-name="パス 61446" d="M103.395,129.616h-.576q.01.262.019.524h.575q-.009-.262-.018-.524" transform="translate(-83.857 -105.713)" fill="#765f50"/>
          <path id="パス_61447" data-name="パス 61447" d="M122.366,129.616h-.127q.008.262.015.524h.127Z" transform="translate(-99.696 -105.713)" fill="#765f50"/>
          <path id="パス_61448" data-name="パス 61448" d="M181.049,125.193h-.577q0,.408,0,.816h.576q0-.408,0-.816" transform="translate(-147.191 -102.106)" fill="#947864"/>
          <path id="パス_61449" data-name="パス 61449" d="M148.493,117.93h-.578l.015.815h.577q-.007-.408-.014-.815" transform="translate(-120.637 -96.182)" fill="#947864"/>
          <path id="パス_61450" data-name="パス 61450" d="M155,117.93h-.578l.013.815h.577q-.006-.408-.012-.815" transform="translate(-125.942 -96.182)" fill="#947864"/>
          <path id="パス_61451" data-name="パス 61451" d="M142.143,125.193h-.576l.017.816h.576q-.008-.408-.016-.816" transform="translate(-115.459 -102.106)" fill="#947864"/>
          <path id="パス_61452" data-name="パス 61452" d="M141.99,117.93h-.578l.017.815h.577q-.008-.408-.016-.815" transform="translate(-115.333 -96.182)" fill="#947864"/>
          <path id="パス_61453" data-name="パス 61453" d="M174.565,125.193h-.577q0,.408.007.816h.576q0-.408-.006-.816" transform="translate(-141.902 -102.106)" fill="#947864"/>
          <path id="パス_61454" data-name="パス 61454" d="M148.626,125.193h-.576q.007.408.015.816h.576q-.007-.408-.014-.816" transform="translate(-120.747 -102.106)" fill="#947864"/>
          <path id="パス_61455" data-name="パス 61455" d="M174.506,117.93h-.578q0,.408.007.815h.577Z" transform="translate(-141.853 -96.182)" fill="#947864"/>
          <path id="パス_61456" data-name="パス 61456" d="M181.01,117.93h-.578l0,.815h.577q0-.408,0-.815" transform="translate(-147.157 -96.182)" fill="#947864"/>
          <path id="パス_61457" data-name="パス 61457" d="M155.111,125.193h-.577q.006.408.013.816h.576q-.006-.408-.012-.816" transform="translate(-126.035 -102.106)" fill="#947864"/>
          <path id="パス_61458" data-name="パス 61458" d="M172.042,119.629q0-1.788,0-3.575h-.023q0,1.78,0,3.561H171.4q0-.268,0-.536h-.575l0,.536h-.617q0-.268,0-.536h-.575q0,.268,0,.536h-.617q0-.268,0-.536h-.575l0,.536h-.617q0-.268-.005-.536h-.157q0-.262-.005-.524h.157q0-.408-.008-.816h-.157q0-.262-.005-.524h.157l-.008-.816h-.158q0-.173,0-.346h-.421q.019,1.78.039,3.561h-.081s0,.01,0,.014Z" transform="translate(-136.344 -94.652)" fill="#947864"/>
          <path id="パス_61459" data-name="パス 61459" d="M166.571,83.205q.031,2.712.063,5.423h4.915q0-2.712,0-5.423Zm.52.521H171v.524h-3.9Zm.013,1.34H171q0,.262,0,.524h-3.89q0-.262-.005-.524m.013,1.34H171q0,.262,0,.524h-3.879q0-.262-.005-.524m.018,1.864q0-.262-.005-.524H171q0,.262,0,.524Z" transform="translate(-135.853 -67.861)" fill="#947864"/>
          <path id="パス_61460" data-name="パス 61460" d="M142.452,119.629s0-.01,0-.014h-.013q-.022-1.781-.043-3.561h-.471q0,.173,0,.346h-.108q.006.408.011.816h.107q0,.262.007.524h-.107q.006.408.011.816h.107q0,.262.007.524h-.107q0,.268.007.536h-.617q0-.268-.008-.536h-.575q0,.268.008.536h-.617q0-.268-.009-.536h-.575q0,.268.01.536h-.617l-.011-.536h-.575q.006.268.011.536h-.617l-.08-3.561H137.5q.04,1.788.081,3.575Z" transform="translate(-112.145 -94.652)" fill="#947864"/>
          <path id="パス_61461" data-name="パス 61461" d="M187.513,117.93h-.578q0,.408,0,.815h.577q0-.408,0-.815" transform="translate(-152.461 -96.182)" fill="#947864"/>
          <path id="パス_61462" data-name="パス 61462" d="M141.736,83.208l.262,0h-5.237q.061,2.712.122,5.423H141.8Q141.767,85.918,141.736,83.208Zm-4.395.518h3.906q0,.262.007.524h-3.9q-.006-.262-.011-.524m.029,1.34h3.895q0,.262.007.524h-3.89q-.006-.262-.011-.524m.029,1.34h3.883q0,.262.007.524H137.41q-.006-.262-.011-.524m.04,1.864q-.006-.262-.011-.524H141.3q0,.262.007.524Z" transform="translate(-111.54 -67.861)" fill="#947864"/>
          <path id="パス_61463" data-name="パス 61463" d="M187.535,125.193h-.576q0,.408,0,.816h.576q0-.408,0-.816" transform="translate(-152.48 -102.106)" fill="#947864"/>
          <path id="パス_61464" data-name="パス 61464" d="M164.26,83.189l-.261,0-.262,0q.031,2.71.063,5.42h.523q-.031-2.712-.063-5.423Z" transform="translate(-133.541 -67.848)" fill="#765f50"/>
          <path id="パス_61465" data-name="パス 61465" d="M164.862,135.378v-.014h-.523s0,.01,0,.014Z" transform="translate(-134.032 -110.401)" fill="#765f50"/>
          <path id="パス_61466" data-name="パス 61466" d="M143.813,86.032h-3.906l.011.524h3.9q0-.262-.007-.524" transform="translate(-114.106 -70.166)" fill="#765f50"/>
          <path id="パス_61467" data-name="パス 61467" d="M143.957,93.3h-3.895q.005.262.011.524h3.89q0-.262-.007-.524" transform="translate(-114.232 -76.091)" fill="#765f50"/>
          <path id="パス_61468" data-name="パス 61468" d="M144.1,100.56h-3.884q.006.262.011.524h3.879q0-.262-.007-.524" transform="translate(-114.359 -82.015)" fill="#765f50"/>
          <path id="パス_61469" data-name="パス 61469" d="M140.373,107.824q.005.262.011.524h3.868q0-.262-.007-.524Z" transform="translate(-114.486 -87.94)" fill="#765f50"/>
          <path id="パス_61470" data-name="パス 61470" d="M161,116.054H160.9q0,.173,0,.346h.107q0-.173,0-.346" transform="translate(-131.225 -94.652)" fill="#765f50"/>
          <path id="パス_61471" data-name="パス 61471" d="M148.459,116.054h-.579q0,.173.006.346h.578q0-.173-.006-.346" transform="translate(-120.609 -94.652)" fill="#765f50"/>
          <path id="パス_61472" data-name="パス 61472" d="M154.968,116.054h-.579l.006.346h.578c0-.115,0-.231,0-.346" transform="translate(-125.917 -94.652)" fill="#765f50"/>
          <path id="パス_61473" data-name="パス 61473" d="M141.952,116.054h-.579l.007.346h.578q0-.173-.007-.346" transform="translate(-115.302 -94.652)" fill="#765f50"/>
          <path id="パス_61474" data-name="パス 61474" d="M148.574,122.352H148q.005.262.01.524h.577q0-.262-.009-.524" transform="translate(-120.704 -99.788)" fill="#765f50"/>
          <path id="パス_61475" data-name="パス 61475" d="M142.082,122.352h-.577l.011.524h.576q0-.262-.01-.524" transform="translate(-115.409 -99.788)" fill="#765f50"/>
          <path id="パス_61476" data-name="パス 61476" d="M161.088,122.352h-.107l.007.524h.107q0-.262-.007-.524" transform="translate(-131.294 -99.788)" fill="#765f50"/>
          <path id="パス_61477" data-name="パス 61477" d="M155.066,122.352h-.577q0,.262.008.524h.577q0-.262-.008-.524" transform="translate(-125.999 -99.788)" fill="#765f50"/>
          <path id="パス_61478" data-name="パス 61478" d="M148.708,129.616h-.576l.01.524h.575q0-.262-.009-.524" transform="translate(-120.814 -105.713)" fill="#765f50"/>
          <path id="パス_61479" data-name="パス 61479" d="M155.181,129.616H154.6l.008.524h.575l-.008-.524" transform="translate(-126.093 -105.713)" fill="#765f50"/>
          <path id="パス_61480" data-name="パス 61480" d="M161.185,129.616h-.107l.007.524h.107q0-.262-.007-.524" transform="translate(-131.373 -105.713)" fill="#765f50"/>
          <path id="パス_61481" data-name="パス 61481" d="M142.234,129.616h-.576l.011.524h.575l-.01-.524" transform="translate(-115.534 -105.713)" fill="#765f50"/>
          <path id="パス_61482" data-name="パス 61482" d="M173.3,86.032H169.39l.005.524h3.9Z" transform="translate(-138.152 -70.166)" fill="#765f50"/>
          <path id="パス_61483" data-name="パス 61483" d="M173.357,93.3h-3.895q0,.262.005.524h3.89q0-.262,0-.524" transform="translate(-138.211 -76.091)" fill="#765f50"/>
          <path id="パス_61484" data-name="パス 61484" d="M173.417,100.56h-3.883q0,.262.005.524h3.879q0-.262,0-.524" transform="translate(-138.269 -82.015)" fill="#765f50"/>
          <path id="パス_61485" data-name="パス 61485" d="M169.606,107.824q0,.262.005.524h3.868q0-.262,0-.524Z" transform="translate(-138.328 -87.94)" fill="#765f50"/>
          <path id="パス_61486" data-name="パス 61486" d="M187.508,116.054h-.579v.346h.578v-.346" transform="translate(-152.456 -94.652)" fill="#765f50"/>
          <path id="パス_61487" data-name="パス 61487" d="M181,116.054h-.579q0,.173,0,.346H181q0-.173,0-.346" transform="translate(-147.148 -94.652)" fill="#765f50"/>
          <path id="パス_61488" data-name="パス 61488" d="M174.491,116.054h-.579q0,.173,0,.346h.578q0-.173,0-.346" transform="translate(-141.84 -94.652)" fill="#765f50"/>
          <path id="パス_61489" data-name="パス 61489" d="M169.848,116.4l0-.346h-.158q0,.173,0,.346Z" transform="translate(-138.394 -94.653)" fill="#765f50"/>
          <path id="パス_61490" data-name="パス 61490" d="M174.542,122.352h-.577q0,.262,0,.524h.576q0-.262,0-.524" transform="translate(-141.883 -99.788)" fill="#765f50"/>
          <path id="パス_61491" data-name="パス 61491" d="M181.034,122.352h-.577q0,.262,0,.524h.577q0-.262,0-.524" transform="translate(-147.178 -99.788)" fill="#765f50"/>
          <path id="パス_61492" data-name="パス 61492" d="M187.525,122.352h-.577q0,.262,0,.524h.577q0-.262,0-.524" transform="translate(-152.472 -99.788)" fill="#765f50"/>
          <path id="パス_61493" data-name="パス 61493" d="M169.755,122.876h.157l0-.524h-.157q0,.262.005.524" transform="translate(-138.445 -99.788)" fill="#765f50"/>
          <path id="パス_61494" data-name="パス 61494" d="M169.827,130.14h.157q0-.262,0-.524h-.157q0,.262.005.524" transform="translate(-138.504 -105.713)" fill="#765f50"/>
          <path id="パス_61495" data-name="パス 61495" d="M174.6,129.616h-.576q0,.262,0,.524h.575q0-.262,0-.524" transform="translate(-141.932 -105.713)" fill="#765f50"/>
          <path id="パス_61496" data-name="パス 61496" d="M187.547,129.616h-.576l0,.524h.575v-.524" transform="translate(-152.491 -105.713)" fill="#765f50"/>
          <path id="パス_61497" data-name="パス 61497" d="M181.073,129.616H180.5l0,.524h.575q0-.262,0-.524" transform="translate(-147.21 -105.713)" fill="#765f50"/>
          <path id="パス_61498" data-name="パス 61498" d="M68.072,181.047H66.91q-.114-2.594-.228-5.188H63.346l-.281-5.3-.158-2.885,26.428.089q-.012,2.584-.024,5.169H85.83q0-1.375-.008-2.749H81.263q.046,3.544.093,7.087h2.381q0,.049,0,.1l-2.577.957.035,2.723H79.477" transform="translate(-51.306 -136.752)" fill="#c9c6b5"/>
          <path id="パス_61499" data-name="パス 61499" d="M62.621,161.818l.147,2.775c.3-.274.609-.548.913-.822q-.019-.392-.04-.784h-.959q-.031-.584-.062-1.169" transform="translate(-51.073 -131.976)" fill="#c9c6b5"/>
          <path id="パス_61500" data-name="パス 61500" d="M72.633,168.226l.076-.068h-.088c0,.023.008.046.012.068" transform="translate(-59.229 -137.147)" fill="#c9c6b5"/>
          <path id="パス_61501" data-name="パス 61501" d="M82.179,242.529H125.6q-.381-1.17-.761-2.339H81.2q.49,1.17.982,2.339" transform="translate(-66.223 -195.895)" fill="#89877b"/>
          <path id="パス_61502" data-name="パス 61502" d="M61.283,136.584q.062,1.17.124,2.341.037.691.073,1.382h.962q-.02-.381-.039-.762l.566-.051c.049.271.1.542.146.813H64.73c.24-.212.477-.424.718-.637l.42.309-.322.327h22.42q.011-2.432.022-4.864H61.223l.027.511" transform="translate(-49.932 -110.465)" fill="#4086c8"/>
          <path id="パス_61503" data-name="パス 61503" d="M248.341,139.6q-.024,1.11-.048,2.22H263.24q.1-1.952.21-3.9H248.377q-.018.842-.036,1.684" transform="translate(-202.504 -112.485)" fill="#4086c8"/>
          <path id="パス_61504" data-name="パス 61504" d="M165.249,184.112q.036,3.021.072,6.042h1.88q-.011-1.587-.023-3.174l1.611-.621q0-1.123-.009-2.246Z" transform="translate(-134.774 -150.159)" fill="#6dbdd9"/>
          <path id="パス_61505" data-name="パス 61505" d="M163.031,187.843q-.036-3.021-.072-6.042h3.532q0,1.123.009,2.246l.051-.02h.457q0-1.375-.008-2.749h-4.559q.046,3.544.093,7.087h2.381q0-.261,0-.523Z" transform="translate(-132.484 -147.848)" fill="#fff"/>
          <path id="パス_61506" data-name="パス 61506" d="M263.755,97.838h5.586q.1-2.611.207-5.223h-5.654q-.069,2.611-.139,5.223" transform="translate(-215.114 -75.535)" fill="#6dbdd9"/>
          <path id="パス_61507" data-name="パス 61507" d="M267.708,90.053l.011-.272h-6.707l-.007.254q-.077,2.873-.153,5.745l-.007.268h6.625l.01-.251q0-.1.008-.209.009-.211.017-.422.1-2.557.2-5.114m-.74,5.474h-5.586q.07-2.611.139-5.223h5.654q-.1,2.611-.207,5.223" transform="translate(-212.741 -73.224)" fill="#fff"/>
          <path id="パス_61508" data-name="パス 61508" d="M250.056,69.851h14.086l.08-1.559H250.089q-.017.78-.033,1.559" transform="translate(-203.942 -55.698)" fill="#c9c9c6"/>
          <path id="パス_61509" data-name="パス 61509" d="M57.661,68.292q.041.78.083,1.559h27.39q0-.78.007-1.559Z" transform="translate(-47.027 -55.698)" fill="#c9c9c6"/>
          <path id="パス_61510" data-name="パス 61510" d="M214.674,68.292h-8.034q0,.78-.007,1.559h8.008q.017-.78.033-1.559" transform="translate(-168.526 -55.698)" fill="#a39580"/>
          <path id="パス_61511" data-name="パス 61511" d="M264.827,185q.214-6.116.427-12.232h.866q-.221,6.01-.442,12.02l.4-.1h-.335l.2-5.4.721-.2q.122-3.158.243-6.317h.866q-.123,3.039-.246,6.078l.124-.034h1.438q.167-3.818.335-7.636h-7.358q-.177,6.364-.354,12.727-.032,1.17-.065,2.339h2.809q.019-.579.039-1.158l.333-.083m-.767.066h-.842q.192-6.149.384-12.3h.866Z" transform="translate(-213.394 -139.609)" fill="#b2ab86"/>
          <path id="パス_61512" data-name="パス 61512" d="M62.683,162.987h.959q-.03-.584-.059-1.169h-.962q.031.585.062,1.169" transform="translate(-51.073 -131.976)" fill="#aeac9d"/>
          <path id="パス_61513" data-name="パス 61513" d="M71.7,162.987h.088c.436-.39.877-.78,1.317-1.169H71.486q.105.584.209,1.169" transform="translate(-58.303 -131.976)" fill="#aeac9d"/>
          <path id="パス_61514" data-name="パス 61514" d="M102,162.987h0q0-.2,0-.4,0-.383,0-.766H79.582q-.579.584-1.15,1.169H102Z" transform="translate(-63.968 -131.976)" fill="#aeac9d"/>
          <path id="パス_61515" data-name="パス 61515" d="M321.912,160.257q.006-.11.011-.219.024-.475.048-.95-.03.584-.06,1.169" transform="translate(-262.546 -129.75)" fill="#e0e0e1"/>
          <path id="パス_61516" data-name="パス 61516" d="M248.166,159.943c0,.1,0,.209-.007.314h13.6q.03-.585.06-1.169H248.184s0,.009,0,.013q-.009.421-.018.842" transform="translate(-202.394 -129.75)" fill="#c9c9c6"/>
          <path id="パス_61517" data-name="パス 61517" d="M289.091,179.815q-.121,3.158-.243,6.317l.863-.239q.123-3.039.246-6.078Z" transform="translate(-235.58 -146.654)" fill="#fff"/>
          <path id="パス_61518" data-name="パス 61518" d="M279.323,179.815q-.213,6.116-.427,12.232l.851-.212q.221-6.01.442-12.02Z" transform="translate(-227.463 -146.654)" fill="#fff"/>
          <path id="パス_61519" data-name="パス 61519" d="M270.169,192.113h.842l.408-12.3h-.866q-.192,6.149-.384,12.3" transform="translate(-220.346 -146.654)" fill="#fff"/>
          <path id="パス_61520" data-name="パス 61520" d="M60.379,113.249h.578q.09,1.781.18,3.561h.617q-.088-1.78-.175-3.561h.579l.016.346.039.816q.013.262.025.524.02.408.039.816.013.262.025.524t.026.536h.617q-.012-.268-.025-.536l-.024-.524-.038-.816q-.012-.262-.024-.524l-.038-.816q-.008-.173-.016-.346h.579q.008.173.016.346l.037.816q.012.262.024.524.019.408.037.816l.024.524.024.536h.617q-.012-.268-.024-.536l-.023-.524q-.018-.408-.036-.816l-.023-.524-.036-.816q-.007-.173-.015-.346h.579q.007.173.015.346.017.408.035.816.011.262.023.524.017.408.035.816l.022.524q.012.268.023.536h.617q-.011-.268-.022-.536t-.022-.524q-.017-.408-.034-.816-.011-.262-.022-.524-.017-.408-.034-.816-.007-.173-.014-.346h.579q.007.173.014.346.016.408.033.816.01.262.021.524.016.408.033.816.011.262.021.524l.022.536h.617q-.069-1.78-.139-3.561h.579q.067,1.781.134,3.561h.617q-.01-.268-.019-.536t-.019-.524q-.015-.408-.029-.816c-.007-.175-.013-.349-.019-.524q-.015-.408-.03-.816-.007-.173-.013-.346h.579c0,.115.008.231.012.346q.014.408.029.816.009.262.018.524.014.408.029.816.009.262.018.524l.019.536H68.9l-.018-.536-.018-.524q-.014-.408-.027-.816-.009-.262-.018-.524-.014-.408-.028-.816-.006-.173-.012-.346h.579c0,.115.007.231.011.346q.013.408.026.816.009.262.017.524.013.408.027.816l.017.524.018.536h.617l-.017-.536q-.008-.262-.016-.524-.013-.408-.025-.816-.008-.262-.016-.524-.013-.408-.026-.816c0-.115-.007-.231-.011-.346h.579q0,.173.01.346l.025.816q.008.262.016.524.012.408.024.816.008.262.016.524t.016.536h.617q-.008-.268-.015-.536t-.015-.524q-.012-.408-.023-.816-.007-.262-.015-.524-.012-.408-.023-.816c0-.115-.007-.231-.01-.346h.579q.049,1.781.1,3.561h.617q-.046-1.78-.093-3.561h.579q.044,1.781.089,3.561h.617q-.042-1.78-.084-3.561h.579q.04,1.781.08,3.561h.617q-.006-.268-.011-.536l-.011-.524-.017-.816q-.006-.262-.011-.524l-.017-.816q0-.173-.007-.346h.579q0,.173.007.346.008.408.016.816.005.262.01.524.008.408.016.816l.01.524.011.536h.617q-.005-.268-.01-.536l-.01-.524q-.007-.408-.015-.816,0-.262-.01-.524l-.015-.816q0-.173-.006-.346h.579c0,.115,0,.231.006.346q.007.408.014.816,0,.262.009.524.007.408.014.816,0,.262.009.524t.009.536h.617q0-.268-.008-.536t-.008-.524q-.007-.408-.013-.816,0-.262-.009-.524l-.013-.816-.006-.346h.579q0,.173,0,.346l.012.816q0,.262.008.524.006.408.012.816,0,.262.008.524t.008.536h.617q0-.268-.007-.536l-.007-.524q-.006-.408-.011-.816,0-.262-.007-.524-.006-.408-.011-.816,0-.173,0-.346h.579q.021,1.781.043,3.561h.617q-.019-1.78-.039-3.561h.579l0,.346.008.816q0,.262.005.524,0,.408.008.816l0,.524q0,.268.005.536h.617l0-.536,0-.524q0-.408-.007-.816,0-.262,0-.524,0-.408-.007-.816c0-.115,0-.231,0-.346h.579q0,.173,0,.346l.006.816q0,.262,0,.524,0,.408.006.816,0,.262,0,.524t0,.536H82q0-.268,0-.536l0-.524q0-.408,0-.816,0-.262,0-.524l0-.816q0-.173,0-.346h.579l0,.346q0,.408,0,.816,0,.262,0,.524,0,.408,0,.816l0,.524q0,.268,0,.536h.617v-.536q0-.262,0-.524,0-.408,0-.816,0-.262,0-.524,0-.408,0-.816v-.346h.579q0,.173,0,.346,0,.408,0,.816,0,.262,0,.524,0,.408,0,.816,0,.262,0,.524v.536h.617q0-1.78,0-3.561h.579q0,1.781,0,3.561h.617q0-1.78.007-3.561h.579q-.005,1.781-.011,3.561h.617q.008-1.78.016-3.561h.042q0-.317,0-.634h-27.1q.014.269.029.539.1,1.828.194,3.657h.617q-.092-1.78-.184-3.561" transform="translate(-48.709 -91.847)" fill="#bdbebf"/>
          <path id="パス_61521" data-name="パス 61521" d="M116.388,20.337c-.292-.513-.581-1.026-.874-1.538H69.821c-.357.513-.71,1.026-1.064,1.538h47.631Z" transform="translate(-56.077 -15.332)" fill="#4086c8"/>
          <path id="パス_61522" data-name="パス 61522" d="M110.414,29.977H62.124q-.53.769-1.056,1.538h50.219c-.289-.513-.583-1.025-.873-1.538" transform="translate(-49.806 -24.449)" fill="#4086c8"/>
          <path id="パス_61523" data-name="パス 61523" d="M120.638,7.625H77.575c-.36.513-.721,1.025-1.078,1.538h45.028q-.441-.769-.887-1.538" transform="translate(-62.39 -6.219)" fill="#4086c8"/>
          <path id="パス_61524" data-name="パス 61524" d="M126.217,0H84.951c-.208.295-.412.589-.619.883h42.394c-.171-.295-.338-.589-.51-.883" transform="translate(-68.78)" fill="#4086c8"/>
          <path id="パス_61525" data-name="パス 61525" d="M105.365,41.151H54.5q-.525.769-1.049,1.538h52.783c-.286-.513-.576-1.026-.864-1.538" transform="translate(-43.59 -33.562)" fill="#4086c8"/>
          <path id="パス_61526" data-name="パス 61526" d="M71.381,55.272H97.828c-.162-.295-.326-.589-.489-.883H41.384l.351-.523H97.05c-.284-.512-.566-1.025-.851-1.538H42.77q-1,1.472-1.98,2.944H71.381Z" transform="translate(-33.268 -42.678)" fill="#4086c8"/>
          <path id="パス_61527" data-name="パス 61527" d="M44.01,61.19H99.966l-.289-.523H44.361l-.352.523" transform="translate(-35.894 -49.479)" fill="#32699c"/>
          <path id="パス_61528" data-name="パス 61528" d="M104.661,49.493H51.878l-.354.523h53.429l-.292-.523" transform="translate(-42.022 -40.366)" fill="#32699c"/>
          <path id="パス_61529" data-name="パス 61529" d="M110,38.84l-.294-.523H59.491l-.356.523Z" transform="translate(-48.23 -31.251)" fill="#32699c"/>
          <path id="パス_61530" data-name="パス 61530" d="M115.086,27.665h0l-.3-.523H67.157l-.361.523h48.29Z" transform="translate(-54.478 -22.137)" fill="#32699c"/>
          <path id="パス_61531" data-name="パス 61531" d="M120.219,16.488l-.3-.523H74.889l-.364.523h45.694Z" transform="translate(-60.781 -13.021)" fill="#32699c"/>
          <path id="パス_61532" data-name="パス 61532" d="M125.408,5.313l-.3-.523h-42.4l-.367.523h43.064Z" transform="translate(-67.158 -3.907)" fill="#32699c"/>
          <path id="パス_61533" data-name="パス 61533" d="M381.246,181.3h0Z" transform="translate(-310.938 -147.862)" fill="#bbab94"/>
          <path id="パス_61534" data-name="パス 61534" d="M70.278,271.876a.8.8,0,0,0-.014-.12.836.836,0,0,1-.022.121Z" transform="translate(-57.288 -221.64)" fill="#466784"/>
          <rect id="長方形_26032" data-name="長方形 26032" width="19.042" height="12.572" transform="translate(24.112 31.719)" fill="#c9c6b5"/>
          <path id="パス_61535" data-name="パス 61535" d="M219.335,282.144q.193-1.4.388-2.8-.805,1.339-1.606,2.678a4.708,4.708,0,0,0,1.218.124" transform="translate(-177.893 -227.827)" fill="#d4d5d5"/>
          <path id="パス_61536" data-name="パス 61536" d="M232.644,280.223a6.088,6.088,0,0,0,1.188-.707q-1.057-.947-2.119-1.895c.31.867.624,1.735.932,2.6" transform="translate(-188.981 -226.424)" fill="#d4d5d5"/>
          <path id="パス_61537" data-name="パス 61537" d="M227.293,281.652a5.819,5.819,0,0,0,1.315-.309c-.3-.854-.612-1.709-.917-2.563q-.2,1.436-.4,2.872" transform="translate(-185.377 -227.369)" fill="#d4d5d5"/>
          <path id="パス_61538" data-name="パス 61538" d="M205.582,278.853a2.91,2.91,0,0,0,.555.815q1.219-1.015,2.447-2.031l-3,1.215" transform="translate(-167.669 -226.437)" fill="#d4d5d5"/>
          <path id="パス_61539" data-name="パス 61539" d="M247.008,277.536c.05-.092.1-.185.142-.28h-1.076l.935.28" transform="translate(-200.693 -226.126)" fill="#d4d5d5"/>
          <path id="パス_61540" data-name="パス 61540" d="M235.086,277.257q.931.831,1.859,1.662a5.34,5.34,0,0,0,.854-.972l-2.308-.691Z" transform="translate(-191.732 -226.127)" fill="#d4d5d5"/>
          <path id="パス_61541" data-name="パス 61541" d="M204.165,277.257a3.059,3.059,0,0,0,.1.849l2.1-.849Z" transform="translate(-166.514 -226.127)" fill="#d4d5d5"/>
          <path id="パス_61542" data-name="パス 61542" d="M210.508,281.181a3.563,3.563,0,0,0,.943.515q.772-1.292,1.55-2.584-1.249,1.035-2.493,2.069" transform="translate(-171.687 -227.64)" fill="#d4d5d5"/>
          <path id="パス_61543" data-name="パス 61543" d="M191.788,215.251l-.069,2.066q-.157,4.685-.313,9.369H192.9c0-.055,0-.108,0-.164.225-2.544,2.852-4.849,5.869-5.148s5.249,1.52,4.983,4.063a4.491,4.491,0,0,1-.328,1.249h4.52q.308-5.717.617-11.435Z" transform="translate(-156.108 -175.555)" fill="#b4834e"/>
          <path id="パス_61544" data-name="パス 61544" d="M239.884,266a3.041,3.041,0,0,0-.085-1l-3.031,1.221,3.116-.217" transform="translate(-193.104 -216.124)" fill="#b4834e"/>
          <path id="パス_61545" data-name="パス 61545" d="M207.287,275.232l-3.115.217c0,.053,0,.1,0,.156h2.2l.922-.373" transform="translate(-166.515 -224.475)" fill="#b4834e"/>
          <path id="パス_61546" data-name="パス 61546" d="M215.71,255.126a6.06,6.06,0,0,0-1.192.708q1.062.941,2.119,1.881c-.31-.863-.615-1.726-.927-2.589" transform="translate(-174.957 -208.077)" fill="#b4834e"/>
          <path id="パス_61547" data-name="パス 61547" d="M208.8,260.591a5.25,5.25,0,0,0-.849.97l2.928.877q-1.038-.923-2.079-1.846" transform="translate(-169.602 -212.534)" fill="#b4834e"/>
          <path id="パス_61548" data-name="パス 61548" d="M236.02,260.234l3.011-1.214a2.867,2.867,0,0,0-.55-.814q-1.235,1.014-2.462,2.027" transform="translate(-192.494 -210.59)" fill="#b4834e"/>
          <path id="パス_61549" data-name="パス 61549" d="M237.752,273.777h1.076a3.9,3.9,0,0,0,.258-.787l-3.216.224,1.881.563" transform="translate(-192.373 -222.647)" fill="#b4834e"/>
          <path id="パス_61550" data-name="パス 61550" d="M224.655,252.5a5.906,5.906,0,0,0-1.333.31c.313.866.619,1.731.929,2.6q.2-1.453.4-2.907" transform="translate(-182.138 -205.938)" fill="#b4834e"/>
          <path id="パス_61551" data-name="パス 61551" d="M204.9,268.082a3.94,3.94,0,0,0-.389,1.066l3.2-.223-2.816-.842" transform="translate(-166.798 -218.644)" fill="#b4834e"/>
          <path id="パス_61552" data-name="パス 61552" d="M236.331,254.244a3.558,3.558,0,0,0-.948-.515q-.785,1.293-1.565,2.585,1.255-1.035,2.513-2.07" transform="translate(-190.698 -206.938)" fill="#b4834e"/>
          <path id="パス_61553" data-name="パス 61553" d="M231.4,252.316q-.2,1.4-.388,2.8.809-1.339,1.622-2.679a4.789,4.789,0,0,0-1.233-.124" transform="translate(-188.409 -205.784)" fill="#b4834e"/>
          <path id="パス_61554" data-name="パス 61554" d="M233.98,276.268l.2.182h.405l-.609-.182" transform="translate(-190.83 -225.32)" fill="#b4834e"/>
          <path id="パス_61555" data-name="パス 61555" d="M209.868,206.471H196.311l-.719.18-1.518.379-.595.148h16.772q3.669-.913,7.353-1.826h-4.691q-.008.137-.016.274l-3.028.844" transform="translate(-157.798 -167.482)" fill="#c99b69"/>
          <path id="パス_61556" data-name="パス 61556" d="M281.079,218.612l3.441-.866.369-6.344,2.971-1.144h.881l.169-2.683q.07-1.111.14-2.223-3.685.913-7.353,1.826-.309,5.718-.617,11.435" transform="translate(-229.243 -167.482)" fill="#9b6b39"/>
          <path id="パス_61557" data-name="パス 61557" d="M206.2,168.776h13.557q.258-4.821.515-9.642H205.949q-.175,4.821-.349,9.642Z" transform="translate(-167.684 -129.787)" fill="#b4834e"/>
          <path id="パス_61558" data-name="パス 61558" d="M210.539,154.554l-.222.061-1.541.427-1.286.357h14.321l3.063-.845H210.539Z" transform="translate(-169.225 -126.052)" fill="#c99b69"/>
          <path id="パス_61559" data-name="パス 61559" d="M282.351,165.041l3.028-.844q.008-.137.016-.274.267-4.684.535-9.368l-3.063.845q-.258,4.821-.515,9.642" transform="translate(-230.281 -126.052)" fill="#9b6b39"/>
          <path id="パス_61560" data-name="パス 61560" d="M207.577,250.728c-2.725.271-5.1,2.354-5.3,4.653s1.807,3.943,4.5,3.672,5.07-2.354,5.308-4.653-1.778-3.943-4.5-3.672m3.015,1.045q-1.261,1.035-2.513,2.07.781-1.293,1.565-2.586a3.563,3.563,0,0,1,.948.515M207.949,251a4.788,4.788,0,0,1,1.233.124q-.814,1.339-1.622,2.679.195-1.4.389-2.8m-.5,4.55a.782.782,0,0,1-1.072-.321.861.861,0,0,1,.6-1,.783.783,0,0,1,1.073.321.862.862,0,0,1-.6,1m.031-4.517q-.2,1.453-.4,2.907c-.311-.865-.617-1.731-.929-2.6a5.9,5.9,0,0,1,1.332-.31m-1.764.484c.312.863.617,1.726.927,2.589q-1.058-.941-2.119-1.881a6.054,6.054,0,0,1,1.192-.708m-1.554,1.008q1.043.923,2.079,1.846l-2.929-.877a5.249,5.249,0,0,1,.849-.969m-1.094,1.381,2.816.842-3.2.223a3.941,3.941,0,0,1,.389-1.066m-.453,1.692c0-.052,0-.1,0-.157l3.115-.217-.922.374-2.1.849a3.062,3.062,0,0,1-.1-.849m.261,1.285,3-1.215q-1.225,1.015-2.447,2.031a2.911,2.911,0,0,1-.555-.815m.908,1.126q1.243-1.035,2.493-2.069-.777,1.292-1.55,2.584a3.559,3.559,0,0,1-.943-.515m2.621.775a4.7,4.7,0,0,1-1.218-.124q.8-1.339,1.607-2.678-.194,1.4-.388,2.8m.474-.034q.2-1.436.4-2.872c.3.854.614,1.709.917,2.563a5.815,5.815,0,0,1-1.315.308m1.747-.483c-.308-.867-.622-1.735-.932-2.6q1.062.947,2.12,1.895a6.09,6.09,0,0,1-1.188.707m1.55-1.007q-.927-.831-1.859-1.662l-.2-.182.609.182,2.308.691a5.332,5.332,0,0,1-.854.971m1.244-1.662c-.043.095-.092.187-.142.28l-.935-.28-1.881-.563,3.216-.224a3.921,3.921,0,0,1-.258.787m.323-1.257-3.116.217,3.031-1.221a3.046,3.046,0,0,1,.085,1m-3.254-.228q1.229-1.014,2.462-2.027a2.865,2.865,0,0,1,.55.814l-3.011,1.214" transform="translate(-164.958 -204.466)" fill="#807878"/>
          <path id="パス_61561" data-name="パス 61561" d="M205.337,248.311c-3.017.3-5.643,2.6-5.869,5.148,0,.055,0,.109,0,.163-.117,2.457,2.072,4.193,4.983,3.9a6.861,6.861,0,0,0,5.545-3.9,4.484,4.484,0,0,0,.328-1.248c.266-2.543-1.966-4.363-4.983-4.063m4.46,4.115c-.238,2.3-2.617,4.382-5.308,4.653s-4.7-1.374-4.5-3.672,2.58-4.382,5.3-4.653,4.742,1.374,4.5,3.672" transform="translate(-162.675 -202.493)" fill="#3c3939"/>
          <path id="パス_61562" data-name="パス 61562" d="M225.023,269.49a.861.861,0,0,0-.6,1,.782.782,0,0,0,1.072.321.862.862,0,0,0,.6-1,.783.783,0,0,0-1.073-.321" transform="translate(-183.009 -219.726)" fill="#3a3736"/>
          <path id="パス_61563" data-name="パス 61563" d="M299.735,238.159l-.369,6.344-.084,1.446h8.263q.267-3.895.533-7.79Z" transform="translate(-244.09 -194.239)" fill="#199bdc"/>
          <path id="パス_61564" data-name="パス 61564" d="M301.739,233.1h8.342l2.983-1.144H304.71l-2.971,1.144" transform="translate(-246.094 -189.178)" fill="#70b7e7"/>
          <path id="パス_61565" data-name="パス 61565" d="M344.086,240.888l2.955-1.144q.281-3.9.561-7.79l-2.983,1.144q-.267,3.9-.533,7.79" transform="translate(-280.631 -189.178)" fill="#008ed6"/>
          <path id="パス_61566" data-name="パス 61566" d="M275.133,194.563v-.013a1.264,1.264,0,0,0-.131-.525,1.376,1.376,0,0,0-.325-.445h0c-.332-.29-.673-.579-1.019-.862h0a.747.747,0,0,1-.179-.238.65.65,0,0,1-.075-.263q.087-1.344.174-2.683a.316.316,0,0,1-.056,0,8.347,8.347,0,0,0-1.181-.084,8.441,8.441,0,0,0-1.2.086.3.3,0,0,1-.049,0q.028,1.329.056,2.661a.662.662,0,0,1-.085.266.826.826,0,0,1-.2.25c-.358.282-.711.571-1.055.861a1.453,1.453,0,0,0-.345.449,1.273,1.273,0,0,0-.148.531v.086q-.019,1.437-.04,2.875h0c-.006.467-.013.936-.02,1.4q-.016,1.095-.031,2.191-.03,2.111-.06,4.227a6.7,6.7,0,0,1,.687.052q.084-4.165.168-8.33a.312.312,0,0,1,.312-.305h.16a.311.311,0,0,1,.311.318q-.086,4.24-.172,8.479a2.312,2.312,0,0,1,.864.427.807.807,0,0,1,.3.577h0v.034h0q-.01.487-.021.973c.058,0,.115.006.172.006.086,0,.172-.006.257-.009a.628.628,0,0,1-.089-.316v-.013q.067-3,.134-5.99h0v0s0-.006,0-.01h0v-.01h0l0-.03c0-.005,0-.009.005-.014a.643.643,0,0,1,.078-.247.869.869,0,0,1,.191-.224,1.769,1.769,0,0,1,.542-.3,4.713,4.713,0,0,1,1.57-.242v0c.115,0,.22.012.331.018l.043-1.452q.035-1.151.069-2.3.026-.893.053-1.786l0-.07Zm-4.318,1.666a.312.312,0,0,1-.311.305h-.16a.312.312,0,0,1-.311-.318q.012-.616.025-1.232a.312.312,0,0,1,.312-.305h.16a.312.312,0,0,1,.311.318q-.012.616-.025,1.232" transform="translate(-219.522 -154.517)" fill="#3a657b"/>
          <path id="パス_61567" data-name="パス 61567" d="M277.972,180.126q-.012.581-.024,1.16a.313.313,0,0,0,.1.24.309.309,0,0,0,.2.071.323.323,0,0,0,.05,0,8.411,8.411,0,0,1,2.385,0,.3.3,0,0,0,.056,0,.306.306,0,0,0,.189-.067.312.312,0,0,0,.11-.23c0-.064,0-.127,0-.19.008-.324.014-.647.022-.969a.311.311,0,0,0-.261-.315,7.946,7.946,0,0,0-1.277-.1,8.053,8.053,0,0,0-.843.05c-.153.016-.306.031-.458.056a.311.311,0,0,0-.261.3" transform="translate(-226.69 -146.576)" fill="#5182c2"/>
          <path id="パス_61568" data-name="パス 61568" d="M273.664,237.857q.086-4.239.173-8.479a.312.312,0,0,0-.311-.318h-.16a.312.312,0,0,0-.311.305q-.084,4.165-.168,8.33a5.348,5.348,0,0,1,.605.111c.06.015.116.034.173.051" transform="translate(-222.561 -186.818)" fill="#fff"/>
          <path id="パス_61569" data-name="パス 61569" d="M274.387,217.786h-.16a.312.312,0,0,0-.312.305q-.012.616-.025,1.232a.311.311,0,0,0,.312.318h.16a.312.312,0,0,0,.311-.305q.012-.616.025-1.232a.312.312,0,0,0-.311-.318" transform="translate(-223.381 -177.623)" fill="#fff"/>
          <path id="パス_61570" data-name="パス 61570" d="M289.765,253.9a1.783,1.783,0,0,1-.543.3,4.712,4.712,0,0,1-1.568.242,5.726,5.726,0,0,1-.644-.036,4.529,4.529,0,0,1-.575-.1,2.108,2.108,0,0,1-.868-.4.708.708,0,0,1-.266-.528h0q-.067,3-.134,5.99v-.009h0a.31.31,0,0,1,.62.019h0l0,.007.051.058a1.113,1.113,0,0,0,.337.182,3.983,3.983,0,0,0,1.328.2,4.408,4.408,0,0,0,1.155-.142,1.253,1.253,0,0,0,.582-.288l.02-.03h0a.311.311,0,0,1,.622.019q.079-3,.157-6h0a.723.723,0,0,1-.279.524m-.149,3.855a.312.312,0,0,1-.108.228,1.64,1.64,0,0,1-.506.279,3.534,3.534,0,0,1-.662.165,5.249,5.249,0,0,1-1.564,0,3.425,3.425,0,0,1-.656-.166,1.564,1.564,0,0,1-.5-.282.311.311,0,0,1-.1-.239q.024-1.064.048-2.128a.312.312,0,0,1,.52-.225.975.975,0,0,0,.3.163,2.8,2.8,0,0,0,.537.134,4.458,4.458,0,0,0,.685.051,4.526,4.526,0,0,0,.689-.051,2.912,2.912,0,0,0,.545-.135,1.064,1.064,0,0,0,.315-.166.311.311,0,0,1,.514.244q-.027,1.064-.055,2.128" transform="translate(-232.578 -206.65)" fill="#56a4d0"/>
          <path id="パス_61571" data-name="パス 61571" d="M285.908,253.009s0,.009-.005.014l0,.03h0c0-.015.005-.03.007-.044" transform="translate(-233.176 -206.35)" fill="#56a4d0"/>
          <path id="パス_61572" data-name="パス 61572" d="M285.892,253.307v0Z" transform="translate(-233.169 -206.593)" fill="#56a4d0"/>
          <path id="パス_61573" data-name="パス 61573" d="M285.169,285.814h0Z" transform="translate(-232.579 -233.106)" fill="#56a4d0"/>
          <path id="パス_61574" data-name="パス 61574" d="M296.014,250.935c.036.011.073.016.108.029a.6.6,0,0,1,.219.134.4.4,0,0,1,.078.129h0c0,.009.007.017.01.026s.008.017.01.024a.291.291,0,0,1,.009.076h0a.029.029,0,0,1,0,.006.369.369,0,0,1-.112.255.525.525,0,0,1-.131.092,1.076,1.076,0,0,1-.2.071c.156.015.317.026.487.026a4.445,4.445,0,0,0,1.162-.143,1.268,1.268,0,0,0,.586-.289l.017-.027h0l-.051-.058a1.12,1.12,0,0,0-.339-.182,4.039,4.039,0,0,0-1.337-.2,5.049,5.049,0,0,0-.521.028" transform="translate(-241.422 -204.636)" fill="#e4e4e5"/>
          <path id="パス_61575" data-name="パス 61575" d="M289.355,252.984v-.019h0a.018.018,0,0,1,0-.007l.007-.06h0l0-.011a.331.331,0,0,0-.072.065l-.016.026h0l.051.058c.008.008.026.017.037.025a.392.392,0,0,1-.014-.08Z" transform="translate(-235.934 -206.252)" fill="#e4e4e5"/>
          <path id="パス_61576" data-name="パス 61576" d="M293.225,254.552h0v0Z" transform="translate(-239.15 -207.488)" fill="#e4e4e5"/>
          <path id="パス_61577" data-name="パス 61577" d="M288.281,247.841v-.312a4.715,4.715,0,0,0-1.57.242,1.77,1.77,0,0,0-.543.3.873.873,0,0,0-.191.224.644.644,0,0,0-.078.247c0,.015-.006.029-.007.044h0v.01h0v.013a.708.708,0,0,0,.266.528,2.107,2.107,0,0,0,.868.4,4.546,4.546,0,0,0,.575.1,5.724,5.724,0,0,0,.644.036,4.712,4.712,0,0,0,1.568-.242,1.782,1.782,0,0,0,.542-.3.724.724,0,0,0,.279-.524h0v-.016a.707.707,0,0,0-.266-.528,2.107,2.107,0,0,0-.868-.4,4.929,4.929,0,0,0-.888-.119c-.11-.006-.216-.018-.33-.018Zm1.337.512a1.118,1.118,0,0,1,.339.181l.051.058h0l-.017.026a1.264,1.264,0,0,1-.586.289,4.45,4.45,0,0,1-1.162.143c-.17,0-.331-.01-.487-.026-.015,0-.029.012-.044.016a2.068,2.068,0,0,1-.47.067v-.163h0v.163a.855.855,0,0,1-.3-.053.581.581,0,0,1-.263-.189.448.448,0,0,1-.073-.173c-.011-.008-.029-.017-.037-.025l-.051-.058h0l.017-.026a.328.328,0,0,1,.072-.065.458.458,0,0,1,.079-.183.554.554,0,0,1,.171-.143.823.823,0,0,1,.4-.1,2.007,2.007,0,0,1,.508.086,5.039,5.039,0,0,1,.521-.028,4.039,4.039,0,0,1,1.337.2" transform="translate(-233.168 -201.881)" fill="#acadae"/>
          <path id="パス_61578" data-name="パス 61578" d="M291.173,251.364a.368.368,0,0,0,.112-.255.009.009,0,0,0,0,0v0a.293.293,0,0,0-.009-.076.21.21,0,0,0-.01-.024.249.249,0,0,0-.01-.026h0a.406.406,0,0,0-.078-.129.605.605,0,0,0-.219-.134c-.035-.013-.072-.018-.108-.029a2.011,2.011,0,0,0-.508-.086.823.823,0,0,0-.4.1.553.553,0,0,0-.171.144.456.456,0,0,0-.079.183l0,.011h0l-.007.056a.051.051,0,0,0,0,.01h0v.019h0a.4.4,0,0,0,.014.08.454.454,0,0,0,.073.174.579.579,0,0,0,.263.189.855.855,0,0,0,.3.053v0a2.074,2.074,0,0,0,.47-.067c.015,0,.029-.012.044-.016a1.078,1.078,0,0,0,.2-.071.52.52,0,0,0,.131-.092" transform="translate(-236.257 -204.383)" fill="#4b4648"/>
          <path id="パス_61579" data-name="パス 61579" d="M289.582,284.21a.311.311,0,0,0-.318.3h0l-.019.03a1.255,1.255,0,0,1-.582.288,4.4,4.4,0,0,1-1.155.142,3.984,3.984,0,0,1-1.328-.2,1.111,1.111,0,0,1-.337-.182l-.051-.058,0-.007h0a.31.31,0,0,0-.62-.019h0v.023a.628.628,0,0,0,.089.316.842.842,0,0,0,.176.211,2.091,2.091,0,0,0,.865.4,5.057,5.057,0,0,0,1.212.138,4.663,4.663,0,0,0,1.561-.242,1.768,1.768,0,0,0,.541-.3.722.722,0,0,0,.277-.525.311.311,0,0,0-.3-.319m-4.416.3h0Z" transform="translate(-232.576 -231.797)" fill="#acadae"/>
          <path id="パス_61580" data-name="パス 61580" d="M291.039,263.9a.312.312,0,0,0-.337.045,1.06,1.06,0,0,1-.315.166,2.92,2.92,0,0,1-.545.135,4.512,4.512,0,0,1-.689.051,4.444,4.444,0,0,1-.686-.051,2.8,2.8,0,0,1-.537-.134.976.976,0,0,1-.3-.162.312.312,0,0,0-.52.225q-.024,1.064-.048,2.128a.31.31,0,0,0,.1.239,1.562,1.562,0,0,0,.5.283,3.435,3.435,0,0,0,.656.166,5.241,5.241,0,0,0,1.564,0,3.5,3.5,0,0,0,.662-.165,1.636,1.636,0,0,0,.506-.279.313.313,0,0,0,.108-.228q.027-1.063.055-2.128a.312.312,0,0,0-.178-.289" transform="translate(-234.124 -215.21)" fill="#fff"/>
          <path id="パス_61581" data-name="パス 61581" d="M242.931,256.363a2.908,2.908,0,0,1-.766-1.155h0a3.069,3.069,0,0,1-.2-1.072,2.189,2.189,0,0,1,.221-1,1.343,1.343,0,0,1,.695-.656,1.216,1.216,0,0,1,.45-.085,1.692,1.692,0,0,1,1.1.468,2.9,2.9,0,0,1,.768,1.156h0a3.083,3.083,0,0,1,.2,1.066,2.205,2.205,0,0,1-.221,1c-.014.028-.033.053-.049.079q.237-.042.493-.067l.008-.029.177-.083a.312.312,0,0,0,.135-.442l-.214-.357a3.679,3.679,0,0,0-.108-.768l.108-.307a.311.311,0,0,0-.143-.376l-.271-.15a3.573,3.573,0,0,0-.419-.644l-.072-.415a.312.312,0,0,0-.4-.243l-.176.057a2.1,2.1,0,0,0-.5-.233l-.22-.32a.311.311,0,0,0-.54.049l-.1.221a1.424,1.424,0,0,0-.2.056,1.4,1.4,0,0,0-.177.092l-.214-.094a.311.311,0,0,0-.434.321l.045.388c-.015.026-.033.049-.047.076a2.3,2.3,0,0,0-.167.45l-.177.083a.312.312,0,0,0-.134.443l.215.357a3.674,3.674,0,0,0,.111.769l-.106.306a.312.312,0,0,0,.143.375l.271.15a3.587,3.587,0,0,0,.42.644q.036.208.073.415a.311.311,0,0,0,.4.243l.174-.056a2.173,2.173,0,0,0,.345.183.791.791,0,0,1,.242-.483,1.861,1.861,0,0,1-.744-.415" transform="translate(-196.832 -205.246)" fill="#878788"/>
          <path id="パス_61582" data-name="パス 61582" d="M252.65,282.252v.012h0Z" transform="translate(-206.056 -230.2)" fill="#ab6354"/>
          <path id="パス_61583" data-name="パス 61583" d="M252.648,282.322h0v0Z" transform="translate(-206.056 -230.258)" fill="#ab6354"/>
          <path id="パス_61584" data-name="パス 61584" d="M257.839,282.973a2.1,2.1,0,0,1-.643.355,5.671,5.671,0,0,1-1.9.294,6.186,6.186,0,0,1-1.48-.168,2.522,2.522,0,0,1-1.038-.478.8.8,0,0,1-.3-.594h0v0h0q-.019,1.151-.039,2.3v0l.007-.058a.311.311,0,0,1,.368-.242.307.307,0,0,1,.242.308h.006v0c0,.009,0,.051.091.129a1.434,1.434,0,0,0,.439.238,4.973,4.973,0,0,0,1.663.253,5.616,5.616,0,0,0,1.336-.151,2.028,2.028,0,0,0,.794-.346.531.531,0,0,0,.054-.053c.041-.047.045-.075.044-.083h0a.311.311,0,1,1,.623.014l.029-1.341q.011-.487.021-.974a.817.817,0,0,1-.314.594" transform="translate(-205.884 -230.302)" fill="#ab6354"/>
          <path id="パス_61585" data-name="パス 61585" d="M256.557,279.952a5,5,0,0,0,1.667.253,5.64,5.64,0,0,0,1.34-.151,2.035,2.035,0,0,0,.8-.346c.088-.077.1-.122.1-.134v0c0-.009,0-.051-.091-.129a1.45,1.45,0,0,0-.439-.238,5,5,0,0,0-1.667-.253,5.66,5.66,0,0,0-1.341.151,2.04,2.04,0,0,0-.8.346c-.091.08-.1.125-.1.135h0c0,.01,0,.051.091.129a1.444,1.444,0,0,0,.44.238" transform="translate(-208.811 -227.509)" fill="#5c5b5c"/>
          <path id="パス_61586" data-name="パス 61586" d="M246.188,260.6a.8.8,0,0,0,.3.594,2.524,2.524,0,0,0,1.038.478,6.18,6.18,0,0,0,1.48.168,5.671,5.671,0,0,0,1.9-.294,2.1,2.1,0,0,0,.643-.355.817.817,0,0,0,.314-.594h0v-.034h0a.808.808,0,0,0-.3-.576,2.315,2.315,0,0,0-.864-.427c-.057-.017-.113-.035-.173-.051a5.4,5.4,0,0,0-.605-.111,6.691,6.691,0,0,0-.687-.052c-.063,0-.124-.005-.188-.005v0c-.228,0-.447.014-.66.034q-.257.025-.493.067c.016-.027.035-.052.049-.079a2.2,2.2,0,0,0,.221-1,3.08,3.08,0,0,0-.2-1.066h0a2.9,2.9,0,0,0-.767-1.156,1.692,1.692,0,0,0-1.1-.468,1.213,1.213,0,0,0-.45.085,1.343,1.343,0,0,0-.694.656,2.192,2.192,0,0,0-.221,1,3.075,3.075,0,0,0,.2,1.072h0a2.908,2.908,0,0,0,.766,1.155,1.861,1.861,0,0,0,.745.415.791.791,0,0,0-.242.483c0,.008,0,.015,0,.023h0v.025h0v.014Zm.623,0c0-.01.006-.055.1-.135a2.034,2.034,0,0,1,.8-.346,5.645,5.645,0,0,1,1.341-.151,5,5,0,0,1,1.667.253,1.448,1.448,0,0,1,.439.238c.087.078.091.119.091.129v0c0,.012-.01.057-.1.134a2.039,2.039,0,0,1-.8.346,5.626,5.626,0,0,1-1.34.151,5,5,0,0,1-1.667-.253,1.439,1.439,0,0,1-.44-.238c-.087-.078-.091-.119-.091-.129Z" transform="translate(-199.595 -208.525)" fill="#acadae"/>
          <path id="パス_61587" data-name="パス 61587" d="M257.8,293.21a.312.312,0,0,0-.318.3h0c0,.008,0,.036-.044.083a.552.552,0,0,1-.054.053,2.033,2.033,0,0,1-.794.346,5.618,5.618,0,0,1-1.336.151,4.97,4.97,0,0,1-1.663-.253,1.439,1.439,0,0,1-.439-.238c-.087-.078-.091-.12-.091-.129v0h-.006a.307.307,0,0,0-.242-.308.311.311,0,0,0-.368.242l-.007.058v.011h0a.8.8,0,0,0,.3.6,2.519,2.519,0,0,0,1.036.478,6.16,6.16,0,0,0,1.477.168,5.647,5.647,0,0,0,1.9-.294,2.092,2.092,0,0,0,.642-.355.818.818,0,0,0,.314-.594.311.311,0,0,0-.3-.319" transform="translate(-205.883 -239.137)" fill="#905347"/>
          <path id="パス_61588" data-name="パス 61588" d="M316.58,286.771v0h0Z" transform="translate(-258.197 -233.884)" fill="#98b5c8"/>
          <path id="パス_61589" data-name="パス 61589" d="M319.379,240.32c0-.071,0-.141.006-.212a.3.3,0,0,1-.041.008h-1.178a.3.3,0,0,1-.058-.012c0,.07,0,.141-.006.212a1.76,1.76,0,0,0-.705.463,2.077,2.077,0,0,0-.52,1.349v.056c0,.074,0,.144.011.213h0q.03.6.029,1.2a47.35,47.35,0,0,1-.349,5.111l0,.061a.6.6,0,0,0,.112.344.582.582,0,0,0,.3.221,5.082,5.082,0,0,0,1.506.227,5.21,5.21,0,0,0,1.516-.227h0a.624.624,0,0,0,.429-.58v-.008h0v-.019c-.055-1.076-.1-2.17-.1-3.273a28.146,28.146,0,0,1,.15-3.042h0a2.486,2.486,0,0,0,.025-.267v-.073a1.96,1.96,0,0,0-.469-1.313,1.646,1.646,0,0,0-.651-.442m-1.731,8.726-.162.024a.312.312,0,0,1-.362-.328c.108-1.6.15-2.63.15-4.007,0-.334,0-.688-.007-1.076a.311.311,0,0,1,.363-.311c.055.009.108.017.161.024a.311.311,0,0,1,.271.3c.025.813.04,1.393.04,1.9,0,.959-.053,1.671-.184,3.186a.313.313,0,0,1-.27.282m1.208.058a.312.312,0,0,1-.222.089h-.287a.311.311,0,0,1-.315-.328c.155-3.007.135-2.322.155-5.329a.312.312,0,0,1,.315-.309h.289a.312.312,0,0,1,.315.328c-.155,3.007-.135,2.322-.157,5.329a.311.311,0,0,1-.093.22m1-1.283c0,.294,0,.6.005.939a.311.311,0,0,1-.364.31l-.16-.024a.312.312,0,0,1-.27-.3c-.023-.8-.037-1.367-.037-1.871,0-.975.053-1.687.19-3.22a.312.312,0,0,1,.27-.281c.053-.007.109-.015.163-.024a.311.311,0,0,1,.362.329c-.116,1.648-.158,2.7-.158,4.143" transform="translate(-258.182 -195.825)" fill="#98b5c8"/>
          <path id="パス_61590" data-name="パス 61590" d="M320.545,258.005a.311.311,0,0,0-.271-.3c-.053-.007-.106-.015-.161-.024a.311.311,0,0,0-.363.311c0,.387.007.742.007,1.075,0,1.377-.043,2.41-.151,4.007a.312.312,0,0,0,.362.328c.055-.009.109-.017.163-.024a.313.313,0,0,0,.27-.282c.131-1.516.184-2.228.184-3.187,0-.512-.015-1.092-.04-1.9" transform="translate(-260.665 -210.158)" fill="#cee4f1"/>
          <path id="パス_61591" data-name="パス 61591" d="M325.519,257.132a.313.313,0,0,0-.228-.1H325a.312.312,0,0,0-.315.309c-.02,3.007,0,2.322-.155,5.329a.311.311,0,0,0,.315.328h.287a.311.311,0,0,0,.316-.309c.021-3.007,0-2.322.156-5.329a.314.314,0,0,0-.087-.232" transform="translate(-264.683 -209.635)" fill="#c0e2ee"/>
          <path id="パス_61592" data-name="パス 61592" d="M330.587,257.681c-.055.009-.11.017-.163.024a.312.312,0,0,0-.27.281c-.137,1.533-.19,2.245-.19,3.22,0,.5.014,1.076.037,1.871a.312.312,0,0,0,.27.3l.16.024a.311.311,0,0,0,.364-.31c0-.335,0-.645,0-.939,0-1.446.042-2.494.158-4.142a.312.312,0,0,0-.362-.329" transform="translate(-269.113 -210.157)" fill="#cee4f1"/>
          <path id="パス_61593" data-name="パス 61593" d="M325.063,233.105a.3.3,0,0,0,.041-.008.308.308,0,0,0,.271-.294q.015-.487.029-.974a.311.311,0,0,0-.311-.321h-1.18a.312.312,0,0,0-.311.3q-.014.487-.028.974a.31.31,0,0,0,.088.226.306.306,0,0,0,.165.083.319.319,0,0,0,.058.012Zm-1.333-.368a.154.154,0,0,0,.008-.287.155.155,0,0,0,.008-.287.155.155,0,0,0,.008-.287.156.156,0,0,1,.156-.156h1.179a.6.6,0,0,0,.147.443.155.155,0,0,0-.008.287.155.155,0,0,0-.009.287.156.156,0,0,1-.156.156h-1.178a.156.156,0,0,1-.156-.156" transform="translate(-263.901 -188.814)" fill="#7b91a4"/>
          <path id="パス_61594" data-name="パス 61594" d="M325.762,233.831a.6.6,0,0,1,.164-.443.155.155,0,0,1,.009-.287.155.155,0,0,1,.008-.287.156.156,0,0,0-.156-.156h-1.179a.6.6,0,0,1-.164.443.155.155,0,0,1-.008.287.154.154,0,0,1-.008.287.156.156,0,0,0,.156.156Z" transform="translate(-264.598 -189.752)" fill="#597c94"/>
          <path id="パス_61595" data-name="パス 61595" d="M58.36,242.371H55.475q-.2-3.649-.394-7.3h10.7q.022.659.044,1.319.1,2.99.2,5.98h-.951" transform="translate(-44.923 -191.722)" fill="#b4834e"/>
          <path id="パス_61596" data-name="パス 61596" d="M34.569,229.468h8.653l.459.115.969.242.38.095h-10.7l-4.693-1.165h2.994l.01.175,1.933.539" transform="translate(-24.167 -186.568)" fill="#c99b69"/>
          <path id="パス_61597" data-name="パス 61597" d="M32.522,236.665l2.2.553q-.2-3.649-.394-7.3-2.341-.583-4.693-1.165l.089,1.419.108,1.712.262,3.974Z" transform="translate(-24.167 -186.568)" fill="#9b6b39"/>
          <path id="パス_61598" data-name="パス 61598" d="M63.6,205.409H54.948q-.165-3.077-.329-6.154H63.76l.222,6.154Z" transform="translate(-44.546 -162.509)" fill="#b4834e"/>
          <path id="パス_61599" data-name="パス 61599" d="M46.3,203.025l-1.933-.539-.01-.175q-.171-2.99-.341-5.979l1.955.539q.165,3.077.329,6.154" transform="translate(-35.9 -160.125)" fill="#9b6b39"/>
          <path id="パス_61600" data-name="パス 61600" d="M53.212,196.313l.141.039.983.272.821.228H46.017l-1.955-.539h9.15Z" transform="translate(-35.936 -160.11)" fill="#c99b69"/>
          <path id="パス_61601" data-name="パス 61601" d="M66.821,191.162q.008.147.016.3h2.046q-.007-.148-.015-.3Z" transform="translate(-54.498 -155.909)" fill="#474645"/>
          <path id="パス_61602" data-name="パス 61602" d="M59.146,195.707h3.832l0-.089-.023-.479H57.322l.028.479c0,.03,0,.059.006.089Z" transform="translate(-46.751 -159.152)" fill="#474645"/>
          <path id="パス_61603" data-name="パス 61603" d="M46.106,161.264q.007.121.014.243.014.245.027.49h2.044l-.023-.438H46.122q-.008-.147-.016-.295h6.3l-.037-.832-.26-5.928H41.422q.216,3.38.433,6.76h4.251Zm-3.7-.6q-.175-2.777-.349-5.555h9.492l.25,5.555Z" transform="translate(-33.783 -126.01)" fill="#5f5e5e"/>
          <path id="パス_61604" data-name="パス 61604" d="M54.327,157.772H44.835q.175,2.777.349,5.555h9.392q-.125-2.777-.25-5.555" transform="translate(-36.567 -128.676)" fill="#58aad1"/>
          <path id="パス_61605" data-name="パス 61605" d="M116.02,208.9h0Z" transform="translate(-94.624 -170.372)" fill="#3799d4"/>
          <path id="パス_61606" data-name="パス 61606" d="M13.809,284.008a3.264,3.264,0,0,1-.914.387,10.265,10.265,0,0,1-2.661.311,11.971,11.971,0,0,1-1.873-.14,5.79,5.79,0,0,1-1.432-.391,1.712,1.712,0,0,1-.664-.481.923.923,0,0,1-.178-.394.763.763,0,0,0-.007.08v.032h0v.011h0a.9.9,0,0,0,.191.5,1.71,1.71,0,0,0,.664.481,5.79,5.79,0,0,0,1.431.391,12.006,12.006,0,0,0,1.873.14,10.268,10.268,0,0,0,2.661-.311,3.271,3.271,0,0,0,.914-.387,1.33,1.33,0,0,0,.345-.319.883.883,0,0,0,.176-.52v-.023H14.3a.916.916,0,0,1-.146.312,1.331,1.331,0,0,1-.345.319" transform="translate(-4.959 -231.054)" fill="#466784"/>
          <path id="パス_61607" data-name="パス 61607" d="M13.95,278.532v.006a.806.806,0,0,1-.185.5,1.231,1.231,0,0,1-.331.279,3.165,3.165,0,0,1-.837.321,10.265,10.265,0,0,1-2.418.256,12.311,12.311,0,0,1-1.506-.089,7.029,7.029,0,0,1-1.214-.248,2.687,2.687,0,0,1-.614-.269,1.234,1.234,0,0,1-.291-.245.818.818,0,0,1-.2-.487h0v-.008h0v-.029a.8.8,0,0,1,.167-.479,1.287,1.287,0,0,0-.31.292.883.883,0,0,0-.176.52v.032a.782.782,0,0,0,.015.117.92.92,0,0,0,.178.394,1.708,1.708,0,0,0,.664.481,5.789,5.789,0,0,0,1.432.391,11.986,11.986,0,0,0,1.873.14,10.267,10.267,0,0,0,2.661-.311,3.268,3.268,0,0,0,.914-.386,1.327,1.327,0,0,0,.345-.32.913.913,0,0,0,.146-.312.835.835,0,0,0,.022-.121.75.75,0,0,0,.008-.087v-.023a.894.894,0,0,0-.189-.516,1.329,1.329,0,0,0-.3-.283c-.011-.007-.023-.012-.034-.019a.805.805,0,0,1,.184.48Z" transform="translate(-4.92 -226.762)" fill="#7299b3"/>
          <path id="パス_61608" data-name="パス 61608" d="M11.94,275.081q-.191.019-.383.019t-.384-.019a.543.543,0,0,1-.49-.522q-.018-.546-.037-1.092a8.861,8.861,0,0,0-1.528.225,3.165,3.165,0,0,0-.836.32,1.234,1.234,0,0,0-.331.278c-.006.008-.012.018-.018.027a.8.8,0,0,0-.167.478v.029h0v.009h0a.818.818,0,0,0,.2.487,1.228,1.228,0,0,0,.291.245,2.675,2.675,0,0,0,.614.269,7.028,7.028,0,0,0,1.214.248,12.294,12.294,0,0,0,1.506.089,10.258,10.258,0,0,0,2.418-.256,3.166,3.166,0,0,0,.837-.321,1.232,1.232,0,0,0,.331-.279.807.807,0,0,0,.185-.505v-.022a.805.805,0,0,0-.184-.48l-.014-.019a1.227,1.227,0,0,0-.291-.247,2.668,2.668,0,0,0-.613-.269,7.028,7.028,0,0,0-1.215-.248c-.207-.026-.426-.045-.652-.06q.017.529.035,1.058a.542.542,0,0,1-.489.558m-.857.557h0a.28.28,0,0,1-.078.189.277.277,0,0,1-.2.084.284.284,0,0,1-.283-.269h0v0h0v0h0v-.011a.278.278,0,0,1,.278-.279.286.286,0,0,1,.284.274v.018Zm.791-.006a.28.28,0,0,1-.278.279.284.284,0,0,1-.282-.266h0v-.01h0v-.009a.279.279,0,0,1,.278-.28.286.286,0,0,1,.284.275v.011Zm.8-.011v.011a.281.281,0,0,1-.08.2.277.277,0,0,1-.2.083.285.285,0,0,1-.282-.266h0v0h0v0h0v0h0v-.011a.279.279,0,0,1,.278-.279.286.286,0,0,1,.284.275" transform="translate(-6.335 -223.034)" fill="#b5d6e6"/>
          <path id="パス_61609" data-name="パス 61609" d="M24.228,261.526c-.128.012-.256.019-.384.019s-.257-.006-.385-.019a.543.543,0,0,1-.49-.521q.038,1.135.077,2.271.018.546.037,1.092a.543.543,0,0,0,.49.522c.128.013.256.019.384.019s.256-.006.383-.019a.542.542,0,0,0,.489-.558q-.018-.529-.035-1.058-.038-1.152-.076-2.3h0a.542.542,0,0,1-.49.558" transform="translate(-18.733 -212.842)" fill="#7299b3"/>
          <path id="パス_61610" data-name="パス 61610" d="M22.865,258.053q.01.285.019.57a.543.543,0,0,0,.49.522c.128.012.257.019.385.019s.257-.006.384-.019a.542.542,0,0,0,.49-.558h0l-.018-.538a4.828,4.828,0,0,1-.891.086,4.908,4.908,0,0,1-.86-.081" transform="translate(-18.648 -210.46)" fill="#466784"/>
          <path id="パス_61611" data-name="パス 61611" d="M9.858,209.971c0-.044,0-.088,0-.133l-.542.014.542-.014a5.092,5.092,0,0,0-5.073-4.928,4.777,4.777,0,0,0-3.4,1.389,4.716,4.716,0,0,0-1.165,1.923l0,.013A4.815,4.815,0,0,0,0,209.672q0,.1,0,.2H0A5.076,5.076,0,0,0,.4,211.622a5.013,5.013,0,0,0,1.667,2.148,5.04,5.04,0,0,0,2.154.945,4.929,4.929,0,0,0,.86.08,4.8,4.8,0,0,0,.891-.086,4.862,4.862,0,0,0,2.5-1.326,4.836,4.836,0,0,0,1.389-3.412m-1.894,2.911a4.076,4.076,0,0,1-2.911,1.209,4.321,4.321,0,0,1-3.009-1.236,4.4,4.4,0,0,1-1.339-2.981c0-.056,0-.112,0-.169a4.073,4.073,0,0,1,4.1-4.092,4.367,4.367,0,0,1,4.348,4.224l-.542.015.542-.015q0,.061,0,.121a4.14,4.14,0,0,1-1.192,2.924" transform="translate(0 -167.121)" fill="#7299b3"/>
          <path id="パス_61612" data-name="パス 61612" d="M12.26,212.949l-.542.015.542-.015a4.367,4.367,0,0,0-4.348-4.224,4.072,4.072,0,0,0-4.1,4.092c0,.057,0,.113,0,.168a4.4,4.4,0,0,0,1.339,2.981A4.32,4.32,0,0,0,8.158,217.2a4.077,4.077,0,0,0,2.911-1.209,4.141,4.141,0,0,0,1.192-2.924c0-.04,0-.08,0-.12m-.744.753a.322.322,0,0,1-.073.12,3.36,3.36,0,0,1-3.291,2.649,3.549,3.549,0,0,1-2.063-.67l-.153-.072a.532.532,0,0,1-.179-.126.323.323,0,0,1-.066-.128,3.657,3.657,0,0,1-1.15-2.512,3.346,3.346,0,0,1,2-3.22l.1-.067h0a.454.454,0,0,1,.261-.1.287.287,0,0,1,.078.011,3.453,3.453,0,0,1,.945-.133,3.6,3.6,0,0,1,3.6,3.889c.005.05.01.1.015.136l0,.078a.446.446,0,0,1-.021.141" transform="translate(-3.105 -170.233)" fill="#b5d6e6"/>
          <path id="パス_61613" data-name="パス 61613" d="M21.271,234.7a1.244,1.244,0,0,1-.319-.057c-.112-.031-.235-.071-.368-.11a3.105,3.105,0,0,0-.87-.152c-.051,0-.1,0-.151.007l-.016-.189.016.189-.407.034a1.432,1.432,0,0,1,.2.718,1.481,1.481,0,0,1-.13.6,2.118,2.118,0,0,1-.745.957,1.617,1.617,0,0,1-.911.264,3.37,3.37,0,0,1-1.393-.381,3.549,3.549,0,0,0,2.063.67,3.36,3.36,0,0,0,3.292-2.649l-.009.011a.36.36,0,0,1-.256.092" transform="translate(-13.197 -191.009)" fill="#fff"/>
          <path id="パス_61614" data-name="パス 61614" d="M21.247,213.1a3.5,3.5,0,0,1,.137.45,3.186,3.186,0,0,0,.453,1.089l-.153.112.153-.112c.093.128.177.242.252.347.009-.016.015-.033.025-.049a1.355,1.355,0,0,1,1.079-.639q.135-.011.261-.011a1.993,1.993,0,0,1,1.123.3,1.821,1.821,0,0,1,.62.717,3.707,3.707,0,0,1,.326,1.276,3.6,3.6,0,0,0-3.6-3.889,3.451,3.451,0,0,0-.945.133.333.333,0,0,1,.155.09.577.577,0,0,1,.115.181" transform="translate(-17.109 -173.471)" fill="#fff"/>
          <path id="パス_61615" data-name="パス 61615" d="M8.97,219.692a.961.961,0,0,1,.115-.154c.088-.1.2-.2.312-.312a2.745,2.745,0,0,0,.635-.841c.061-.141.115-.267.166-.381a1.45,1.45,0,0,1-1.179-.63,2.189,2.189,0,0,1-.482-1.287,1.85,1.85,0,0,1,.545-1.257,4.206,4.206,0,0,1,.693-.581,3.346,3.346,0,0,0-2,3.22,3.657,3.657,0,0,0,1.15,2.512.3.3,0,0,1-.017-.087.406.406,0,0,1,.059-.2" transform="translate(-6.341 -174.738)" fill="#fff"/>
          <path id="パス_61616" data-name="パス 61616" d="M18.127,217.126a3.707,3.707,0,0,0-.326-1.276,1.821,1.821,0,0,0-.62-.717,1.993,1.993,0,0,0-1.123-.3c-.084,0-.171,0-.261.011a1.355,1.355,0,0,0-1.079.639c-.01.016-.015.033-.025.049-.075-.1-.159-.219-.252-.347l-.154.112.154-.112a3.187,3.187,0,0,1-.453-1.089,3.5,3.5,0,0,0-.137-.45.582.582,0,0,0-.115-.181.334.334,0,0,0-.155-.09.285.285,0,0,0-.078-.011.454.454,0,0,0-.26.1l-.1.068a4.194,4.194,0,0,0-.693.581,1.851,1.851,0,0,0-.545,1.257,2.187,2.187,0,0,0,.482,1.287,1.451,1.451,0,0,0,1.179.63c-.051.114-.105.241-.166.381a2.741,2.741,0,0,1-.635.841c-.116.113-.224.214-.312.312a.969.969,0,0,0-.115.154.406.406,0,0,0-.059.2.3.3,0,0,0,.017.087.324.324,0,0,0,.066.127.53.53,0,0,0,.178.126l.153.071a3.369,3.369,0,0,0,1.393.381A1.616,1.616,0,0,0,15,219.7a2.117,2.117,0,0,0,.745-.957,1.486,1.486,0,0,0,.13-.6,1.431,1.431,0,0,0-.2-.718l.406-.034-.016-.189.016.189c.05,0,.1-.006.151-.006a3.1,3.1,0,0,1,.87.152c.132.039.255.079.368.11a1.237,1.237,0,0,0,.319.057.361.361,0,0,0,.256-.092l.009-.011a.323.323,0,0,0,.073-.12.444.444,0,0,0,.021-.141l0-.079c0-.039-.009-.086-.015-.136m-2.864.235a.84.84,0,0,1-.6.248.889.889,0,0,1-.883-.857v-.03a.841.841,0,0,1,.845-.845.889.889,0,0,1,.883.858v.028a.845.845,0,0,1-.245.6" transform="translate(-9.714 -174.013)" fill="#3799d4"/>
          <path id="パス_61617" data-name="パス 61617" d="M23.774,227.87a.888.888,0,0,0-.884-.857.841.841,0,0,0-.845.845v.03a.889.889,0,0,0,.883.857.842.842,0,0,0,.844-.847v-.028Z" transform="translate(-17.98 -185.148)" fill="#fff"/>
          <path id="パス_61618" data-name="パス 61618" d="M27.267,283.662a.278.278,0,0,0-.2.084.281.281,0,0,0-.079.2v.008h0v.01h0a.284.284,0,0,0,.282.266.28.28,0,0,0,.278-.279v-.011a.286.286,0,0,0-.284-.275" transform="translate(-22.012 -231.35)" fill="#fff"/>
          <path id="パス_61619" data-name="パス 61619" d="M22.981,283.662a.278.278,0,0,0-.278.279v.011h0v0h0a.284.284,0,0,0,.283.269.276.276,0,0,0,.2-.084.281.281,0,0,0,.078-.189h0v-.018a.286.286,0,0,0-.284-.274" transform="translate(-18.516 -231.35)" fill="#fff"/>
          <path id="パス_61620" data-name="パス 61620" d="M31.424,283.745a.28.28,0,0,0-.08.2v.011h0v0h0v0h0v0h0a.284.284,0,0,0,.282.266.277.277,0,0,0,.2-.083.28.28,0,0,0,.08-.2v-.011a.285.285,0,0,0-.284-.275.278.278,0,0,0-.2.083" transform="translate(-25.564 -231.35)" fill="#d54859"/>
          <path id="パス_61621" data-name="パス 61621" d="M208.525,190.308c.125-.037.25-.077.375-.106l-.159-.161-.246.247.03.02" transform="translate(-170.045 -154.994)" fill="#d4d5d5"/>
          <path id="パス_61622" data-name="パス 61622" d="M207.929,172.435l-.513-.522-.175.175.513.522.174-.175" transform="translate(-169.023 -140.21)" fill="#d4d5d5"/>
          <path id="パス_61623" data-name="パス 61623" d="M205.237,175.136l-.513-.522-.175.175.514.522.174-.174" transform="translate(-166.827 -142.413)" fill="#d4d5d5"/>
          <path id="パス_61624" data-name="パス 61624" d="M211.954,187.835c.062-.009.124-.024.186-.031l.079-.08-.456-.463-.189.189.379.384" transform="translate(-172.557 -152.727)" fill="#d4d5d5"/>
          <path id="パス_61625" data-name="パス 61625" d="M206.949,182.757l.189-.19-.653-.663-.19.19.654.662" transform="translate(-168.251 -148.358)" fill="#d4d5d5"/>
          <path id="パス_61626" data-name="パス 61626" d="M202.924,185.663l.311-.313-.653-.662-.445.446.787.529" transform="translate(-164.86 -150.629)" fill="#d4d5d5"/>
          <path id="パス_61627" data-name="パス 61627" d="M210.623,169.735l-.512-.523-.175.175.513.522.174-.175" transform="translate(-171.22 -138.007)" fill="#d4d5d5"/>
          <path id="パス_61628" data-name="パス 61628" d="M220.167,179.82l.173-.173-.454-.464-.173.174.455.463" transform="translate(-179.194 -146.139)" fill="#d4d5d5"/>
          <path id="パス_61629" data-name="パス 61629" d="M123.492,224.088a5.4,5.4,0,0,1,2.059.457l.165-.335a5.935,5.935,0,0,0-4.655.035l.219.265a5.369,5.369,0,0,1,2.212-.422" transform="translate(-98.735 -182.489)" fill="#d4d5d5"/>
          <path id="パス_61630" data-name="パス 61630" d="M209.724,180.046l.173-.174-.652-.663-.174.174.653.663" transform="translate(-170.515 -146.16)" fill="#d4d5d5"/>
          <path id="パス_61631" data-name="パス 61631" d="M149.486,239.721l.777-.29c-.058-.081-.117-.161-.18-.238l-.6.529" transform="translate(-121.918 -195.081)" fill="#d4d5d5"/>
          <path id="パス_61632" data-name="パス 61632" d="M202.474,177.835l-.514-.522-.191.191.514.521.19-.19" transform="translate(-164.56 -144.614)" fill="#d4d5d5"/>
          <path id="パス_61633" data-name="パス 61633" d="M140.594,233.265q-.568,1.158-1.132,2.313l.723-.27,1.433-1.269a4.587,4.587,0,0,0-1.023-.773" transform="translate(-113.743 -190.247)" fill="#d4d5d5"/>
          <path id="パス_61634" data-name="パス 61634" d="M215.1,174.651l.173-.174-.65-.664-.174.174.651.664" transform="translate(-174.901 -141.759)" fill="#d4d5d5"/>
          <path id="パス_61635" data-name="パス 61635" d="M154.471,252.875l-.852.263.865.053c0-.106-.006-.212-.013-.316" transform="translate(-125.289 -206.241)" fill="#d4d5d5"/>
          <path id="パス_61636" data-name="パス 61636" d="M212.412,177.349l.173-.174-.651-.664-.174.174.652.663" transform="translate(-172.708 -143.961)" fill="#d4d5d5"/>
          <path id="パス_61637" data-name="パス 61637" d="M214.8,185.2l.172-.173-.455-.463-.173.173.456.463" transform="translate(-174.817 -150.532)" fill="#d4d5d5"/>
          <path id="パス_61638" data-name="パス 61638" d="M217.483,182.513l.173-.173-.455-.463-.173.174.455.463" transform="translate(-177.005 -148.335)" fill="#d4d5d5"/>
          <path id="パス_61639" data-name="パス 61639" d="M135.582,230.32q-.077,1.569-.147,3.133l.12-.045q.658-1.376,1.319-2.755a4.531,4.531,0,0,0-1.292-.333" transform="translate(-110.459 -187.846)" fill="#d4d5d5"/>
          <path id="パス_61640" data-name="パス 61640" d="M146.09,256.384c-.67-.042-1.343-.082-2.014-.123l-.725.224q1.214.579,2.427,1.159a4.322,4.322,0,0,0,.312-1.26" transform="translate(-116.915 -209.003)" fill="#d4d5d5"/>
          <path id="パス_61641" data-name="パス 61641" d="M197.817,180.623l-.514-.521-.615.617.619.416.51-.512" transform="translate(-160.416 -146.888)" fill="#d4d5d5"/>
          <path id="パス_61642" data-name="パス 61642" d="M112.485,228.334a4.759,4.759,0,0,0-4.912,4.679,4.916,4.916,0,0,0,4.835,4.869,4.689,4.689,0,0,0,4.864-4.641,4.83,4.83,0,0,0-.02-.486l-.335.1c.008.1.013.21.013.316l-.865-.053-1.169.361c.671.041,1.344.081,2.014.123a4.323,4.323,0,0,1-.312,1.26q-1.211-.581-2.427-1.159l-.608.188q1.426.68,2.849,1.362a4.311,4.311,0,0,1-.777,1.033l-2.169-2.365-.223.069a1.694,1.694,0,0,1-1.469.007q-.717,1.5-1.43,3a4.653,4.653,0,0,1-1.081-.789l2.5-2.219a.943.943,0,0,1-.3-.314l-2.5,2.217a4.5,4.5,0,0,1-.7-1.125l3.2-1.1a1.175,1.175,0,0,1-.152-.4l-3.2,1.1a4.344,4.344,0,0,1-.187-.955c-.009-.111-.014-.224-.015-.337l.408.023q1.5.083,2.989.17a.916.916,0,0,1,.012-.432l-2.494-.142-.895-.051a4.285,4.285,0,0,1,.316-1.264l.64.3.669.316,1.765.834a1.423,1.423,0,0,1,.93-.827q-.577-1.576-1.152-3.155a4.525,4.525,0,0,1,1.32-.178q-.082,1.667-.157,3.328c.069-.028.135-.058.212-.084l.229-.085q.072-1.565.148-3.133a4.531,4.531,0,0,1,1.292.333q-.662,1.38-1.319,2.755h0q.745-1.522,1.493-3.048a4.887,4.887,0,0,0-1.841-.4m2.827,8.243a4.384,4.384,0,0,1-1.127.656q-.586-1.577-1.166-3.157l2.293,2.5m-2.707-2.376q.584,1.587,1.172,3.171a4.548,4.548,0,0,1-1.313.173q.067-1.67.141-3.345m-.431-.035q-.073,1.679-.141,3.354a4.64,4.64,0,0,1-1.3-.331q.717-1.509,1.439-3.023m-2.356-2.524c-.459-.216-.917-.434-1.376-.65a4.385,4.385,0,0,1,.791-1.046l1.008,1.1,1.287,1.4-1.71-.808m1.221-1.719q.41,1.126.821,2.25l-1.363-1.487-.941-1.027a4.478,4.478,0,0,1,1.143-.668c.113.311.227.621.34.931" transform="translate(-87.735 -186.225)" fill="#807878"/>
          <path id="パス_61643" data-name="パス 61643" d="M143.938,231.629l-.148.3a4.577,4.577,0,0,1,1.023.773l-1.433,1.269,1.126-.421.6-.529c.063.077.122.157.18.238l.327-.122a4.93,4.93,0,0,0-1.672-1.511" transform="translate(-116.938 -188.913)" fill="#807878"/>
          <path id="パス_61644" data-name="パス 61644" d="M146.631,229.154l-.224.456a4.929,4.929,0,0,1,1.672,1.511l.495-.185a5.452,5.452,0,0,0-1.942-1.782" transform="translate(-119.407 -186.895)" fill="#3c3939"/>
          <path id="パス_61645" data-name="パス 61645" d="M114.978,230.983a4.688,4.688,0,0,1-4.864,4.641,4.916,4.916,0,0,1-4.835-4.869,4.759,4.759,0,0,1,4.912-4.679,4.887,4.887,0,0,1,1.841.4l.225-.458a5.394,5.394,0,0,0-4.272-.035,5.3,5.3,0,0,0-2.474,2.127,5.11,5.11,0,0,0-.751,2.63,5.169,5.169,0,0,0,.1,1.034,5.48,5.48,0,0,0,5.255,4.351A5.183,5.183,0,0,0,115.491,231a5.318,5.318,0,0,0-.039-.653l-.5.153a4.812,4.812,0,0,1,.02.486" transform="translate(-85.44 -183.967)" fill="#3c3939"/>
          <path id="パス_61646" data-name="パス 61646" d="M113.422,174.251l-.12.041.393.573q.66.965,1.322,1.928l-1.515.516a.433.433,0,0,0-.281.311q-.865,3.735-1.7,7.444a1.913,1.913,0,0,0-.54.052q-1.548-2.425-3.092-4.853l-.374.262.282.443,0,0q-.466.945-.929,1.888a6.837,6.837,0,0,0-6.9.931,6.694,6.694,0,0,0-1.225,1.275,6.487,6.487,0,0,0-1.263,3.809.432.432,0,0,0,.863.006,5.608,5.608,0,0,1,.975-3.123,5.829,5.829,0,0,1,1.188-1.291,5.934,5.934,0,0,1,5.977-.83l-.165.335-.225.458q-.749,1.526-1.493,3.048h0l-.121.045-.229.086c-.077.026-.142.056-.212.084l-.012,0a1.423,1.423,0,0,0-.93.827v0a.917.917,0,0,0-.012.433v0a1.176,1.176,0,0,0,.152.4l0,0a.944.944,0,0,0,.3.316l.006.005a1.693,1.693,0,0,0,1.469-.007l.223-.069.1-.03.608-.188.725-.224,1.169-.361.852-.263.335-.1.5-.153c.7-.214,1.394-.432,2.088-.645l.026-.01-.09-.342a.966.966,0,0,1-.106.008.989.989,0,0,1-.96-.992.95.95,0,0,1,.983-.937.988.988,0,0,1,.957.994.943.943,0,0,1-.58.859l.077.294a1.236,1.236,0,0,0,.736-1.605,1.34,1.34,0,0,0-.318-.507q.826-3.668,1.679-7.358l1.515-.516.465.679c-.08.058-.162.113-.238.174a6.649,6.649,0,0,0-2.1,7.442.432.432,0,0,0,.813-.291h0a5.786,5.786,0,0,1,1.829-6.477c.06-.048.125-.091.188-.137q1.608,2.346,3.216,4.692a.238.238,0,1,0,.392-.269q-1.609-2.342-3.213-4.688a5.762,5.762,0,0,1,1.155-.547c.106-.036.213-.061.319-.09l-.721-.485-.493.495a.228.228,0,1,1-.323-.322l.015-.016c-.151.078-.3.163-.44.251l-.515-.751a.426.426,0,0,0-.355-.518q-.723-1.055-1.446-2.11l-.387-.564a.428.428,0,0,1-.259.247m-8.362,14.576a.833.833,0,0,1-.863.823.867.867,0,0,1-.851-.863.835.835,0,0,1,.864-.824.875.875,0,0,1,.144.018l-.355.726a.228.228,0,0,0,.41.2l.355-.725a.849.849,0,0,1,.3.645m3.61-2.871-.495.185-.327.122-.777.29-1.126.421-.723.27q.566-1.155,1.132-2.313l.148-.3.224-.456.17-.346a6,6,0,0,1,1.6,1.169.432.432,0,1,0,.62-.6,6.848,6.848,0,0,0-1.835-1.342q.4-.819.805-1.636,1.223,1.922,2.448,3.843l-1.862.7" transform="translate(-79.503 -141.915)" fill="#d7563f"/>
          <path id="パス_61647" data-name="パス 61647" d="M168.76,236.656a.151.151,0,0,1,.292-.076q.121.464.244.926a.942.942,0,0,0,.58-.859.988.988,0,0,0-.958-.994.95.95,0,0,0-.983.937.989.989,0,0,0,.96.992.929.929,0,0,0,.106-.008Q168.881,237.115,168.76,236.656Z" transform="translate(-136.966 -192.194)" fill="#3a3736"/>
          <path id="パス_61648" data-name="パス 61648" d="M140.717,199.68l1.012-.708.374-.262.948-.663c.632-.441,1.036-1.258.679-1.4a.329.329,0,0,0-.127-.024,3.378,3.378,0,0,0-1,.231l-1.972.614c-.984.338-1.367.675-1.126,1.352.138.388.2.724.4.878.155.114.394.127.813-.017" transform="translate(-113.717 -160.362)" fill="#524e4e"/>
          <path id="パス_61649" data-name="パス 61649" d="M172.676,240.182a.151.151,0,0,0-.292.076q.12.46.242.919l.09.342q.152.578.3,1.156l.287-.1q-.155-.588-.309-1.176l-.077-.294q-.122-.463-.244-.926" transform="translate(-140.589 -195.797)" fill="#807878"/>
          <path id="パス_61650" data-name="パス 61650" d="M172.017,253.189a.377.377,0,0,0-.293.441.4.4,0,0,0,.513.167l1.147-.389a.377.377,0,0,0,.293-.44.4.4,0,0,0-.513-.167l-.4.137-.287.1-.456.155" transform="translate(-140.043 -206.156)" fill="#6c6665"/>
          <path id="パス_61651" data-name="パス 61651" d="M175.934,171.383a.43.43,0,0,0-.538-.569h0l-1.294.443a.432.432,0,0,0,.28.817l1.173-.4.12-.041a.428.428,0,0,0,.259-.248" transform="translate(-141.756 -139.294)" fill="#777070"/>
          <path id="パス_61652" data-name="パス 61652" d="M209.178,191.37l.153-.154-.3-.3c-.125.03-.25.069-.375.106l.519.349" transform="translate(-170.179 -155.707)" fill="#d7563f"/>
          <path id="パス_61653" data-name="パス 61653" d="M213.708,190.312l.109-.109c-.062.007-.124.022-.186.031l.077.078" transform="translate(-174.234 -155.127)" fill="#d7563f"/>
          <path id="パス_61654" data-name="パス 61654" d="M213.984,190.084h0l-.835.838a5.739,5.739,0,0,1,3.664.519.432.432,0,0,0,.39-.77,6.633,6.633,0,0,0-3.09-.715l-.128.129" transform="translate(-173.841 -154.925)" fill="#d7563f"/>
          <path id="パス_61655" data-name="パス 61655" d="M195.134,169.214a.228.228,0,0,0,.323,0l.493-.5.721.485.057.038a.228.228,0,0,0,.289-.028l.119-.119.835-.838h0l.128-.129,1.91-1.917a.228.228,0,0,0,0-.32l-.773-.791v0h0l-.966-.988v0h0l-.827-.846a.228.228,0,0,0-.324,0l-1.052,1.054h0l-.5.5h0l-1.068,1.071-.916.918a.228.228,0,0,0,.035.351q.975.653,1.947,1.309l-.415.417-.015.015a.228.228,0,0,0,0,.323m4.394-3.166-.232.233-.454-.464.232-.233.454.464m-.773-.79-.232.233-.651-.664.233-.234.65.665m-1.48-1.514.511.523-.233.234-.512-.523.234-.235m1.7,2.86-.173.173-.455-.463.173-.174.454.464m-.774-.79-.173.174-.651-.664.174-.174.65.664m-1.482-1.513.512.523-.174.175-.512-.522.175-.175m1.761,2.8-.172.173-.455-.463.173-.174.455.463m-.774-.789-.173.174-.652-.663.174-.174.651.664m-1.483-1.512.512.522-.174.175-.513-.522.175-.175m1.763,2.8-.172.173-.456-.463.173-.173.455.463m-.775-.789-.173.174-.653-.663.174-.174.652.663m-1.485-1.51.513.522-.174.174-.514-.521.175-.175m1.766,2.795-.08.08-.109.109-.077-.078-.379-.384.189-.19.456.463m-.776-.788-.189.19-.653-.662.19-.19.653.663m-1.487-1.509.514.522-.19.191-.514-.521.191-.191m1.455,2.508.3.3-.153.154-.519-.349-.03-.02.246-.247.159.161m-1.133-1.148.653.662-.311.313-.787-.529.445-.446m-1.45-.229.615-.617.514.521-.51.512-.619-.416" transform="translate(-157.828 -133.096)" fill="#807878"/>
          <path id="パス_61656" data-name="パス 61656" d="M92.3,241.338q.026.31.051.62.017-.309.034-.617l-.085,0" transform="translate(-75.277 -196.832)" fill="#c9c6b5"/>
          <path id="パス_61657" data-name="パス 61657" d="M106.5,246.2q.018-.33.036-.661l-1.021-.031c-.012.219-.024.44-.036.659l1.531.049h0l-.074,0-.436-.014" transform="translate(-86.025 -200.236)" fill="#c9c6b5"/>
          <path id="パス_61658" data-name="パス 61658" d="M90.991,195.606a.265.265,0,0,1-.258-.283l.123-2.27a.287.287,0,0,1,.288-.272q2.538.046,5.076.1a.266.266,0,0,1,.258.285l-.122,2.286a.287.287,0,0,1-.288.272l-2.778-.063-.036.671h.063l.871.02,1.844.044a.976.976,0,0,0,.983-.93l.08-1.5q.021-.4.042-.791c0-.02,0-.039,0-.058a.9.9,0,0,0-.879-.914q-2.538-.049-5.076-.094a.983.983,0,0,0-.983.93q-.062,1.134-.124,2.268a.9.9,0,0,0,.881.966l1.738.041c.012-.224.024-.447.036-.671l-1.739-.04" transform="translate(-73.461 -156.683)" fill="#97a747"/>
          <path id="パス_61659" data-name="パス 61659" d="M99.278,198.415l.122-2.286a.266.266,0,0,0-.258-.284q-2.538-.051-5.076-.1a.288.288,0,0,0-.288.272l-.123,2.27a.265.265,0,0,0,.258.283l1.738.039c.014-.261.028-.522.042-.783l-.54-.012a.545.545,0,0,1-.53-.582l.007-.124a.592.592,0,0,1,.592-.559l2.538.051a.547.547,0,0,1,.53.584c0,.042,0,.083-.007.125a.59.59,0,0,1-.591.56l-1.438-.031c-.014.262-.028.522-.042.784l2.778.063a.287.287,0,0,0,.288-.272" transform="translate(-76.383 -159.648)" fill="#623d1a"/>
          <path id="パス_61660" data-name="パス 61660" d="M111.014,246.341l.436.014.074,0,.211.007.2.006.151,0,.074,0,.436.014.036-.662-1.581-.049q-.018.33-.036.661" transform="translate(-90.541 -200.373)" fill="#3b3938"/>
          <path id="パス_61661" data-name="パス 61661" d="M105.671,242.443l1.021.031,1.581.049,3.441.111q.018-.351.037-.7-3.022-.1-6.043-.184l-.038.694" transform="translate(-86.184 -197.167)" fill="#623d1a"/>
          <path id="パス_61662" data-name="パス 61662" d="M94.449,241.406l-1.858-.056-.034.618c0,.025,0,.051,0,.077h.01l1.848.056.038-.694" transform="translate(-75.485 -196.841)" fill="#623d1a"/>
          <path id="パス_61663" data-name="パス 61663" d="M111.635,232.8l-.9-.025q-1.7-.049-3.39-.1l-.872-.025-.509-.014q-.045.84-.091,1.681,3.021.09,6.043.184l.814.026s.02-.38.045-.847a.624.624,0,0,0-.058-.287,1.2,1.2,0,0,0-1.084-.6" transform="translate(-86.35 -189.734)" fill="#97a747"/>
          <path id="パス_61664" data-name="パス 61664" d="M88.389,233.124l-.046.837.729.021.085,0,1.858.056q.046-.839.091-1.68l-1.484-.042a1.579,1.579,0,0,0-.676.128.839.839,0,0,0-.557.678" transform="translate(-72.051 -189.475)" fill="#97a747"/>
          <path id="パス_61665" data-name="パス 61665" d="M92.547,274.018l-.066,1.207c0,.015,0,.03,0,.044H92.5l.55.021.328.013.069-1.253-.168-.006-.561-.021-.168-.006" transform="translate(-75.424 -223.485)" fill="#3b3938"/>
          <path id="パス_61666" data-name="パス 61666" d="M111.191,274.71q-.034.628-.068,1.257l.9.035.068-1.258-.168-.007-.561-.021-.168-.006" transform="translate(-90.63 -224.049)" fill="#3b3938"/>
          <path id="パス_61667" data-name="パス 61667" d="M129.838,275.424q-.034.631-.068,1.262l.9.037q.034-.632.068-1.264l-.168-.007-.561-.022-.168-.007" transform="translate(-105.838 -224.632)" fill="#3b3938"/>
          <path id="パス_61668" data-name="パス 61668" d="M95.4,208.465c-.021.388-.042.778-.063,1.165l0,.062h0l.561.018,1.531.05-.129,2.387-2.166-.077a1.3,1.3,0,0,0-1.224.623.887.887,0,0,0-.1.361q-.019.345-.038.691l.561.02q.019-.346.038-.691c.014-.25.35-.45.735-.436l2.167.079q-.032.578-.063,1.156l.561.021.063-1.156,2.167.079c.385.014.7.239.685.492q-.019.348-.037.7l.561.022.037-.7a1.138,1.138,0,0,0-1.215-1.085l-2.167-.077q.08-1.479.16-2.96l-.151,0-.2-.006-.211-.007h0l-1.531-.049c.012-.219.024-.44.036-.659s.025-.463.037-.694q.046-.84.091-1.681.088-1.627.176-3.255l.037-.671c.014-.262.028-.522.042-.784l1.438.031a.59.59,0,0,0,.591-.56l.007-.125a.547.547,0,0,0-.53-.584l-2.538-.051a.592.592,0,0,0-.591.559l-.007.124a.545.545,0,0,0,.53.582l.54.012c-.014.262-.028.522-.042.783l-.037.671q-.088,1.627-.176,3.252-.046.84-.091,1.68l-.038.694" transform="translate(-76.47 -163.205)" fill="#9c9390"/>
        </g>
      </g>
    </g>
  </g>
</svg>
