<svg xmlns="http://www.w3.org/2000/svg" xmlns:xlink="http://www.w3.org/1999/xlink" width="404.401" height="345.813" viewBox="0 0 404.401 345.813">
  <defs>
    <clipPath id="clip-path">
      <path id="パス_355" data-name="パス 355" d="M3835.158,4246.262c0,94.068-90.528,87.509-202.2,87.509s-202.2,6.559-202.2-87.509,90.528-170.327,202.2-170.327S3835.158,4152.192,3835.158,4246.262Z" transform="translate(-3430.757 -4075.935)" fill="none"/>
    </clipPath>
    <linearGradient id="linear-gradient" x1="0.502" y1="-1006.689" x2="0.502" y2="125.605" gradientUnits="objectBoundingBox">
      <stop offset="0" stop-color="#acddf7"/>
      <stop offset="1" stop-color="#fff"/>
    </linearGradient>
    <linearGradient id="linear-gradient-2" x1="0.5" y1="0" x2="0.5" y2="1" xlink:href="#linear-gradient"/>
    <linearGradient id="linear-gradient-3" x1="0.5" y1="-3.262" x2="0.5" y2="1.538" xlink:href="#linear-gradient"/>
    <linearGradient id="linear-gradient-4" x1="0.5" y1="-3978.964" x2="0.5" y2="3978.979" xlink:href="#linear-gradient"/>
  </defs>
  <g id="about" transform="translate(-3442.648 -4075.936)">
    <g id="グループ_247" data-name="グループ 247" transform="translate(3442.648 4075.936)">
      <g id="グループ_246" data-name="グループ 246" clip-path="url(#clip-path)">
        <g id="グループ_245" data-name="グループ 245" transform="translate(-3.715 -37.416)">
          <path id="パス_297" data-name="パス 297" d="M3439.488,4161.351c26.026-83.9,104.248-144.832,196.7-144.832,89.634,0,165.878,57.278,194.163,137.224h0c-28.282-79.951-104.529-137.234-194.166-137.234-92.459,0-170.684,60.939-196.705,144.843Z" transform="translate(-3430.274 -4016.508)" fill="none"/>
          <path id="パス_298" data-name="パス 298" d="M4078.622,4358.112c0,.071-.009.142-.012.214C4078.613,4358.254,4078.618,4358.184,4078.622,4358.112Z" transform="translate(-3666.993 -4143.032)" fill="url(#linear-gradient)"/>
          <path id="パス_299" data-name="パス 299" d="M3466.949,4258.421h17.769l.2-21.584a7.8,7.8,0,1,1-9.052-12.582,6.652,6.652,0,0,1,.756-.667c-.036.108-.066.221-.1.332.157-.07.317-.138.48-.2a8.064,8.064,0,0,1-1.284-14.191,6.038,6.038,0,0,1,4.088-6.653,6.918,6.918,0,1,1,13.286-2.758,5.647,5.647,0,0,1-.4,3.875,7.624,7.624,0,0,1,4.653,12.416,6.1,6.1,0,0,1,1.269,10.461,7.977,7.977,0,0,1,.5,2.783c0,.216-.016.43-.032.642a7.623,7.623,0,0,1-11.678,9.468h0l.175,18.656h30.005l.2-21.584a7.8,7.8,0,1,1-9.053-12.582,6.657,6.657,0,0,1,.757-.667c-.036.108-.066.221-.1.332.157-.07.317-.138.48-.2a8.064,8.064,0,0,1-1.284-14.191,6.044,6.044,0,0,1,4.088-6.653,6.918,6.918,0,1,1,13.286-2.758,5.643,5.643,0,0,1-.405,3.875,7.624,7.624,0,0,1,4.654,12.416,6.1,6.1,0,0,1,1.269,10.461,7.992,7.992,0,0,1,.5,2.783c0,.216-.015.43-.032.642a7.622,7.622,0,0,1-11.678,9.468h0l.175,18.656h20.212v-95.6h.506l4.575-15.63h52.346l4.576,15.63h.78v95.6h25.192v-97.063h45.825v97.063h23.516v-97.063h4.058v-10.741h21.238v10.741h51.492v97.063h16.84l.2-21.584a7.8,7.8,0,1,1-9.052-12.582,6.718,6.718,0,0,1,.756-.667c-.036.108-.067.221-.1.332.157-.07.316-.138.479-.2a8.065,8.065,0,0,1-1.284-14.191,6.191,6.191,0,0,1-.069-.869,6.1,6.1,0,0,1,4.156-5.784,6.919,6.919,0,1,1,13.286-2.758,5.64,5.64,0,0,1-.405,3.875,7.625,7.625,0,0,1,4.654,12.416,6.1,6.1,0,0,1,1.269,10.461,7.986,7.986,0,0,1,.5,2.783c0,.216-.016.43-.032.642a7.623,7.623,0,0,1-11.678,9.468h0l.175,18.656h19.613v-95.274l16.282-9.4c-28.285-79.946-104.53-137.224-194.163-137.224-92.455,0-170.676,60.934-196.7,144.833h27.459Z" transform="translate(-3430.276 -4016.514)" fill="url(#linear-gradient-2)"/>
          <path id="パス_300" data-name="パス 300" d="M4075.654,4300.675q.63,7.082.781,14.293c.028,1.391.053,2.782.053,4.179q0,4.474-.192,8.9.19-4.42.194-8.891a206.807,206.807,0,0,0-4.185-41.5c.307,1.5.593,3.008.867,4.52Q4074.824,4291.29,4075.654,4300.675Z" transform="translate(-3664.657 -4113.231)" fill="url(#linear-gradient-3)"/>
          <path id="パス_301" data-name="パス 301" d="M3810.511,4400.718H3429.874v.009h405.511v-.009h-24.876Z" transform="translate(-3426.714 -4158.812)" fill="url(#linear-gradient-4)"/>
          <path id="パス_302" data-name="パス 302" d="M3875.321,4240.238V4229.5h-21.238v10.741h-4.058V4337.3h5.881v-21.668h10.022V4337.3h3.841v-21.668h51.58V4337.3h5.464v-97.063Zm-8.562,62.778h-11v-15.069a5.5,5.5,0,0,1,11,0Zm0-32.468h-11v-15.071a5.5,5.5,0,0,1,11,0Zm13.413,32.468h-11v-15.069a5.5,5.5,0,0,1,11,0Zm0-32.468h-11v-15.071a5.5,5.5,0,0,1,11,0Zm13.418,32.468h-11v-15.069a5.5,5.5,0,1,1,11,0Zm0-32.468h-11v-15.071a5.5,5.5,0,1,1,11,0Zm13.42,32.468H3896v-15.069a5.5,5.5,0,0,1,11.006,0Zm0-32.468H3896v-15.071a5.5,5.5,0,0,1,11.006,0Zm13.415,32.468h-11v-15.069a5.5,5.5,0,1,1,11,0Zm0-32.468h-11v-15.071a5.5,5.5,0,1,1,11,0Z" transform="translate(-3582.33 -4095.395)" fill="#fff"/>
          <path id="パス_303" data-name="パス 303" d="M3662.169,4239.681l-4.576-15.63h-52.346l-4.575,15.63h-.506v95.6h5.807v-21.669h50.952v21.669h6.024v-95.6Zm-56.2,14.363h7.707v14.6h-7.707Zm7.707,47.712h-7.707v-14.593h7.707Zm8.645,0h-7.71v-14.593h7.71Zm8.649,0h-7.712v-14.593h7.712Zm8.644,0h-7.709v-14.593h7.709Zm8.647,0h-7.713v-14.593h7.713Zm8.642,0H3649.2v-14.593h7.712Zm.018-15.621h-50.952v-5.314h50.952Zm-42.31-17.5v-14.6h7.71v14.6Zm8.647,0v-14.6h7.712v14.6Zm8.647,0v-14.6h7.709v14.6Zm8.644,0v-14.6h7.713v14.6Zm8.642,0v-14.6h7.712v14.6Zm7.73-15.62h-50.952v-5.313h50.952Z" transform="translate(-3489.787 -4093.378)" fill="#fff"/>
          <rect id="長方形_1143" data-name="長方形 1143" width="50.952" height="21.668" transform="translate(116.186 220.238)" fill="#c1dae7"/>
          <path id="パス_304" data-name="パス 304" d="M3739.893,4246.556v97.063h5.884v-21.668h33.917v21.668h6.025v-97.063Zm39.8,56.894h-33.917v-14.293h33.917Zm-33.917-32.793v-14.289h33.917v14.289Z" transform="translate(-3541.54 -4101.713)" fill="#fff"/>
          <rect id="長方形_1144" data-name="長方形 1144" width="33.916" height="21.668" transform="translate(204.239 220.238)" fill="#c1dae7"/>
          <rect id="長方形_1145" data-name="長方形 1145" width="33.916" height="14.293" transform="translate(204.239 187.444)" fill="#c1dae7"/>
          <rect id="長方形_1146" data-name="長方形 1146" width="7.707" height="14.593" transform="translate(116.186 193.786)" fill="#c1dae7"/>
          <rect id="長方形_1147" data-name="長方形 1147" width="7.711" height="14.593" transform="translate(124.828 193.786)" fill="#c1dae7"/>
          <rect id="長方形_1148" data-name="長方形 1148" width="7.711" height="14.593" transform="translate(133.475 193.786)" fill="#c1dae7"/>
          <rect id="長方形_1149" data-name="長方形 1149" width="7.709" height="14.593" transform="translate(142.122 193.786)" fill="#c1dae7"/>
          <rect id="長方形_1150" data-name="長方形 1150" width="7.712" height="14.593" transform="translate(150.766 193.786)" fill="#c1dae7"/>
          <rect id="長方形_1151" data-name="長方形 1151" width="7.712" height="14.593" transform="translate(159.408 193.786)" fill="#c1dae7"/>
          <rect id="長方形_1152" data-name="長方形 1152" width="50.952" height="5.314" transform="translate(116.186 187.444)" fill="#c1dae7"/>
          <rect id="長方形_1153" data-name="長方形 1153" width="7.707" height="14.596" transform="translate(116.186 160.666)" fill="#c1dae7"/>
          <rect id="長方形_1154" data-name="長方形 1154" width="7.711" height="14.596" transform="translate(124.828 160.666)" fill="#c1dae7"/>
          <rect id="長方形_1155" data-name="長方形 1155" width="7.711" height="14.596" transform="translate(133.475 160.666)" fill="#c1dae7"/>
          <rect id="長方形_1156" data-name="長方形 1156" width="7.709" height="14.596" transform="translate(142.122 160.666)" fill="#c1dae7"/>
          <rect id="長方形_1157" data-name="長方形 1157" width="7.712" height="14.596" transform="translate(150.766 160.666)" fill="#c1dae7"/>
          <rect id="長方形_1158" data-name="長方形 1158" width="7.712" height="14.596" transform="translate(159.408 160.666)" fill="#c1dae7"/>
          <rect id="長方形_1159" data-name="長方形 1159" width="50.952" height="5.313" transform="translate(116.186 154.328)" fill="#c1dae7"/>
          <rect id="長方形_1160" data-name="長方形 1160" width="33.916" height="14.289" transform="translate(204.239 154.655)" fill="#c1dae7"/>
          <path id="パス_305" data-name="パス 305" d="M4078.155,4363.395q.169-2.465.285-4.943-.112,2.48-.288,4.943Z" transform="translate(-3666.823 -4143.157)" fill="#fff"/>
          <path id="パス_306" data-name="パス 306" d="M4078.637,4357.7c0,.088,0,.175-.008.262C4078.632,4357.871,4078.633,4357.784,4078.637,4357.7Z" transform="translate(-3667 -4142.877)" fill="#fff"/>
          <path id="パス_307" data-name="パス 307" d="M4065.6,4251.892h0c-1.515-5.916-3.3-11.723-5.314-17.421h0Q4063.309,4243.017,4065.6,4251.892Z" transform="translate(-3660.206 -4097.237)" fill="#fff"/>
          <path id="パス_308" data-name="パス 308" d="M4062.4,4298.974H4040.31v-14.293h21.313q-.834-9.375-2.482-18.5H4040.31v-14.289h15.713q-2.275-8.874-5.316-17.42l-16.282,9.4v95.274h5.885v-21.668h21.646q.172-2.465.288-4.943c0-.071.009-.142.012-.213,0-.087,0-.175.008-.263q.189-4.428.192-8.9C4062.457,4301.756,4062.432,4300.364,4062.4,4298.974Z" transform="translate(-3650.627 -4097.237)" fill="#fff"/>
          <path id="パス_309" data-name="パス 309" d="M4073.933,4387.972h.018a206.836,206.836,0,0,0,2.641-21.668h0A207.957,207.957,0,0,1,4073.933,4387.972Z" transform="translate(-3665.261 -4146.065)" fill="#c1dae7"/>
          <path id="パス_310" data-name="パス 310" d="M4043.772,4366.3v21.668h18.99a207.826,207.826,0,0,0,2.656-21.668Z" transform="translate(-3654.089 -4146.065)" fill="#c1dae7"/>
          <path id="パス_311" data-name="パス 311" d="M4043.772,4328.51h22.094q-.143-7.212-.781-14.293h-21.313Z" transform="translate(-3654.089 -4126.773)" fill="#c1dae7"/>
          <path id="パス_312" data-name="パス 312" d="M4070.98,4271.908q-1.007-4.928-2.251-9.768h0Q4069.969,4266.98,4070.98,4271.908Z" transform="translate(-3663.333 -4107.485)" fill="#c1dae7"/>
          <path id="パス_313" data-name="パス 313" d="M4043.772,4262.14v14.288H4062.6c-.274-1.512-.559-3.02-.866-4.52q-1.007-4.928-2.252-9.768Z" transform="translate(-3654.089 -4107.485)" fill="#c1dae7"/>
          <rect id="長方形_1161" data-name="長方形 1161" width="51.58" height="21.668" transform="translate(287.44 220.238)" fill="#c1dae7"/>
          <rect id="長方形_1162" data-name="長方形 1162" width="10.022" height="21.668" transform="translate(273.576 220.238)" fill="#c1dae7"/>
          <path id="パス_314" data-name="パス 314" d="M3864.623,4313.593a5.494,5.494,0,0,0-5.5,5.5v15.069h11v-15.069A5.5,5.5,0,0,0,3864.623,4313.593Z" transform="translate(-3585.7 -4126.542)" fill="#c1dae7"/>
          <path id="パス_315" data-name="パス 315" d="M3885.925,4313.593a5.5,5.5,0,0,0-5.5,5.5v15.069h11v-15.069A5.5,5.5,0,0,0,3885.925,4313.593Z" transform="translate(-3593.591 -4126.542)" fill="#c1dae7"/>
          <path id="パス_316" data-name="パス 316" d="M3907.252,4313.593a5.5,5.5,0,0,0-5.5,5.5v15.069h11v-15.069A5.5,5.5,0,0,0,3907.252,4313.593Z" transform="translate(-3601.487 -4126.542)" fill="#c1dae7"/>
          <path id="パス_317" data-name="パス 317" d="M3928.557,4313.593a5.5,5.5,0,0,0-5.505,5.5v15.069h11.006v-15.069A5.5,5.5,0,0,0,3928.557,4313.593Z" transform="translate(-3609.377 -4126.542)" fill="#c1dae7"/>
          <path id="パス_318" data-name="パス 318" d="M3949.872,4313.593a5.5,5.5,0,0,0-5.5,5.5v15.069h11v-15.069A5.5,5.5,0,0,0,3949.872,4313.593Z" transform="translate(-3617.273 -4126.542)" fill="#c1dae7"/>
          <path id="パス_319" data-name="パス 319" d="M3864.623,4262.023a5.5,5.5,0,0,0-5.5,5.5V4282.6h11v-15.072A5.506,5.506,0,0,0,3864.623,4262.023Z" transform="translate(-3585.7 -4107.442)" fill="#c1dae7"/>
          <path id="パス_320" data-name="パス 320" d="M3885.925,4262.023a5.5,5.5,0,0,0-5.5,5.5V4282.6h11v-15.072A5.5,5.5,0,0,0,3885.925,4262.023Z" transform="translate(-3593.591 -4107.442)" fill="#c1dae7"/>
          <path id="パス_321" data-name="パス 321" d="M3907.252,4262.023a5.5,5.5,0,0,0-5.5,5.5V4282.6h11v-15.072A5.5,5.5,0,0,0,3907.252,4262.023Z" transform="translate(-3601.487 -4107.442)" fill="#c1dae7"/>
          <path id="パス_322" data-name="パス 322" d="M3928.557,4262.023a5.5,5.5,0,0,0-5.505,5.5V4282.6h11.006v-15.072A5.5,5.5,0,0,0,3928.557,4262.023Z" transform="translate(-3609.377 -4107.442)" fill="#c1dae7"/>
          <path id="パス_323" data-name="パス 323" d="M3949.872,4262.023a5.5,5.5,0,0,0-5.5,5.5V4282.6h11v-15.072A5.5,5.5,0,0,0,3949.872,4262.023Z" transform="translate(-3617.273 -4107.442)" fill="#c1dae7"/>
          <path id="パス_324" data-name="パス 324" d="M3437.839,4246.556h0q-1.522,4.908-2.8,9.92h0Q3436.317,4251.466,3437.839,4246.556Z" transform="translate(-3428.625 -4101.713)" fill="#fff"/>
          <path id="パス_325" data-name="パス 325" d="M3428.644,4285.008h0q-1.638,9.063-2.462,18.391h0Q3427.011,4294.08,3428.644,4285.008Z" transform="translate(-3425.346 -4115.955)" fill="#fff"/>
          <path id="パス_326" data-name="パス 326" d="M3424.856,4336.685c0-3.926.121-7.824.338-11.7v-.017c-.217,3.874-.338,7.772-.338,11.7q0,7.222.5,14.323h.006Q3424.866,4343.9,3424.856,4336.685Z" transform="translate(-3424.856 -4130.757)" fill="#fff"/>
          <path id="パス_327" data-name="パス 327" d="M3432.531,4256.476v14.29h-4.377q-1.638,9.063-2.462,18.391h6.839v14.293h-7.336v-7.5c-.217,3.872-.338,7.77-.338,11.7q0,7.218.5,14.311h7.956v21.668h4.516v-21.668h19.041v21.668h4.656v-97.063h-27.459q-1.523,4.908-2.8,9.92Zm17.767,0h7.342v14.29H3450.3Zm0,32.681h7.342v14.293H3450.3Zm-8.305-32.681h7.341v14.29h-7.341Zm0,32.681h7.341v14.293h-7.341Zm-8.5-32.681h7.344v14.29H3433.5Zm0,32.681h7.344v14.293H3433.5Z" transform="translate(-3424.856 -4101.713)" fill="#fff"/>
          <path id="パス_328" data-name="パス 328" d="M3425.647,4366.3a206.642,206.642,0,0,0,2.643,21.668h.019a207.956,207.956,0,0,1-2.655-21.668Z" transform="translate(-3425.149 -4146.065)" fill="#c1dae7"/>
          <path id="パス_329" data-name="パス 329" d="M3433.613,4366.3h-7.956a208.022,208.022,0,0,0,2.655,21.668h5.3Z" transform="translate(-3425.152 -4146.065)" fill="#c1dae7"/>
          <rect id="長方形_1163" data-name="長方形 1163" width="19.041" height="21.668" transform="translate(12.977 220.238)" fill="#c1dae7"/>
          <path id="パス_330" data-name="パス 330" d="M3425.891,4314.217h0q-.3,3.371-.5,6.772v.017C3425.52,4318.732,3425.69,4316.471,3425.891,4314.217Z" transform="translate(-3425.055 -4126.773)" fill="#c1dae7"/>
          <path id="パス_331" data-name="パス 331" d="M3432.729,4328.51v-14.293h-6.839c-.2,2.254-.37,4.515-.5,6.789v7.5Z" transform="translate(-3425.055 -4126.773)" fill="#c1dae7"/>
          <rect id="長方形_1164" data-name="長方形 1164" width="7.343" height="14.293" transform="translate(8.639 187.444)" fill="#c1dae7"/>
          <rect id="長方形_1165" data-name="長方形 1165" width="7.342" height="14.293" transform="translate(17.135 187.444)" fill="#c1dae7"/>
          <rect id="長方形_1166" data-name="長方形 1166" width="7.342" height="14.293" transform="translate(25.442 187.444)" fill="#c1dae7"/>
          <path id="パス_332" data-name="パス 332" d="M3433.205,4262.311h0q-1.8,7.05-3.112,14.29h0Q3431.4,4269.366,3433.205,4262.311Z" transform="translate(-3426.794 -4107.548)" fill="#c1dae7"/>
          <path id="パス_333" data-name="パス 333" d="M3434.471,4262.311h-1.264q-1.8,7.05-3.113,14.29h4.377Z" transform="translate(-3426.796 -4107.548)" fill="#c1dae7"/>
          <rect id="長方形_1167" data-name="長方形 1167" width="7.343" height="14.291" transform="translate(8.639 154.762)" fill="#c1dae7"/>
          <rect id="長方形_1168" data-name="長方形 1168" width="7.342" height="14.291" transform="translate(17.135 154.762)" fill="#c1dae7"/>
          <rect id="長方形_1169" data-name="長方形 1169" width="7.342" height="14.291" transform="translate(25.442 154.762)" fill="#c1dae7"/>
          <path id="パス_334" data-name="パス 334" d="M3506.472,4361.961a7.621,7.621,0,0,0,11.678-9.468,8,8,0,0,1-14.505,4,6.664,6.664,0,0,1-8.713-10.043,7.8,7.8,0,1,0,9.052,12.582l-.2,21.584h2.86l-.175-18.656Z" transform="translate(-3449.347 -4138.713)" fill="#cae2ad"/>
          <path id="パス_335" data-name="パス 335" d="M3501.242,4335.13a5.7,5.7,0,0,0,1.375-.177c.11-.027.221-.051.329-.084.126-.04.248-.087.37-.134s.217-.078.321-.125c.076-.035.146-.08.221-.117a5.863,5.863,0,0,0,.725-.438,5.8,5.8,0,0,0,1.735-1.938,5.736,5.736,0,0,0-2.1-7.7,6.39,6.39,0,1,1-6.161-11.055,6.085,6.085,0,0,0,3.95,7.275,6.392,6.392,0,0,0,.919.235c.034.007.068.011.1.016a5.938,5.938,0,0,0,.957.082,6.078,6.078,0,0,0,.811-.059c.095-.012.186-.032.278-.05.169-.03.334-.068.5-.11.106-.03.211-.061.315-.1.149-.049.3-.105.439-.166.1-.041.195-.077.289-.122.177-.085.348-.183.515-.284a6.041,6.041,0,0,1-1.525-9.012,5.729,5.729,0,0,1-.132-11.218,4.04,4.04,0,1,0,6.377,3.294c0-.082-.019-.158-.024-.238a5.789,5.789,0,0,1,.429,1.166,6.917,6.917,0,1,0-13.286,2.758,6.038,6.038,0,0,0-4.088,6.653,8.064,8.064,0,0,0,1.284,14.191c-.163.061-.323.128-.48.2a5.749,5.749,0,0,0,5.562,7.25Z" transform="translate(-3449.435 -4120.476)" fill="#cae2ad"/>
          <path id="パス_336" data-name="パス 336" d="M3516.116,4317.44a3.949,3.949,0,0,0-.247,1.355,4.036,4.036,0,0,0,8.071,0,3.991,3.991,0,0,0-.235-1.308,6.053,6.053,0,0,1-6.178,9.644,6.277,6.277,0,0,1-2.508,11.357,6.386,6.386,0,0,1,.054.741,6.651,6.651,0,0,1-.5,2.521,5.814,5.814,0,0,0,4.017,1.616,5.86,5.86,0,0,0,2.642-11.1,8.024,8.024,0,0,1,5.184,4.883,6.1,6.1,0,0,0-1.269-10.461,7.624,7.624,0,0,0-4.654-12.416A5.75,5.75,0,0,1,3516.116,4317.44Z" transform="translate(-3458.087 -4126.794)" fill="#cae2ad"/>
          <path id="パス_337" data-name="パス 337" d="M3532.818,4354.033c.016-.212.032-.424.032-.641a7.974,7.974,0,0,0-.5-2.783,6.1,6.1,0,0,1-1.766.937A7.7,7.7,0,0,1,3532.818,4354.033Z" transform="translate(-3464.015 -4140.252)" fill="#a6d18c"/>
          <path id="パス_338" data-name="パス 338" d="M3522.87,4311.915c.236.015.469.042.7.079a5.646,5.646,0,0,0,.405-3.876c0,.019,0,.037,0,.056A6.864,6.864,0,0,1,3522.87,4311.915Z" transform="translate(-3461.158 -4124.514)" fill="#a6d18c"/>
          <path id="パス_339" data-name="パス 339" d="M3498.014,4345.394a6.621,6.621,0,0,0-.756.666c.213-.121.434-.233.659-.335C3497.948,4345.613,3497.979,4345.5,3498.014,4345.394Z" transform="translate(-3451.672 -4138.32)" fill="#a6d18c"/>
          <path id="パス_340" data-name="パス 340" d="M3500.84,4341.144a6.622,6.622,0,0,0,3.982-1.33,8,8,0,0,0,14.505-4,7.691,7.691,0,0,0-2.236-2.487,6.093,6.093,0,0,0,1.766-.937,8.029,8.029,0,0,0-5.184-4.884,5.859,5.859,0,1,1-6.66,9.484,6.644,6.644,0,0,0,.5-2.521,6.433,6.433,0,0,0-.053-.741,6.278,6.278,0,0,0,2.508-11.358,6.061,6.061,0,0,0,6.178-9.644,3.994,3.994,0,0,1,.235,1.308,4.036,4.036,0,0,1-8.071,0,3.94,3.94,0,0,1,.247-1.355,5.753,5.753,0,0,0,4.381-3.167c-.23-.036-.463-.064-.7-.079a6.861,6.861,0,0,0,1.106-3.74c0-.02,0-.038,0-.056a5.8,5.8,0,0,0-.429-1.167c.005.081.024.156.024.238a4.046,4.046,0,1,1-6.377-3.294,5.729,5.729,0,0,0,.132,11.219,6.041,6.041,0,0,0,1.525,9.012c-.167.1-.338.2-.515.284-.094.044-.191.081-.289.122-.144.06-.29.117-.439.166-.1.034-.21.065-.316.095-.164.043-.329.08-.5.111-.092.018-.183.037-.278.049a6.078,6.078,0,0,1-.811.059,5.938,5.938,0,0,1-.957-.082l-.1-.015a6.458,6.458,0,0,1-.919-.236,6.085,6.085,0,0,1-3.95-7.275,6.39,6.39,0,1,0,6.161,11.054,5.742,5.742,0,0,1,.37,9.637,5.989,5.989,0,0,1-.725.438c-.074.036-.145.081-.221.116-.1.047-.214.083-.321.125s-.244.094-.37.134c-.108.033-.219.058-.329.084a5.744,5.744,0,0,1-6.937-7.073c-.226.1-.446.213-.66.335a6.661,6.661,0,0,0,4.731,11.374Z" transform="translate(-3450.523 -4122.031)" fill="#a6d18c"/>
          <path id="パス_341" data-name="パス 341" d="M3553.441,4335.13a5.7,5.7,0,0,0,1.374-.177c.11-.027.221-.051.329-.084.126-.04.248-.087.37-.134s.217-.078.321-.125c.076-.035.146-.08.221-.117a5.853,5.853,0,0,0,2.459-2.376,5.737,5.737,0,0,0-2.1-7.7,6.39,6.39,0,1,1-6.161-11.055,6.084,6.084,0,0,0,3.95,7.275,6.4,6.4,0,0,0,.919.235c.034.007.069.011.1.016a5.93,5.93,0,0,0,.956.082,6.078,6.078,0,0,0,.811-.059c.094-.012.186-.032.278-.05.169-.03.335-.068.5-.11.106-.03.211-.061.315-.1.15-.049.3-.105.439-.166.1-.041.194-.077.289-.122.177-.085.347-.183.514-.284a6.039,6.039,0,0,1-1.524-9.012,5.729,5.729,0,0,1-.132-11.218,4.04,4.04,0,1,0,6.377,3.294c0-.082-.019-.158-.024-.238a5.746,5.746,0,0,1,.43,1.166,6.917,6.917,0,1,0-13.286,2.758,6.044,6.044,0,0,0-4.088,6.653,8.064,8.064,0,0,0,1.284,14.191c-.163.061-.323.128-.48.2a5.748,5.748,0,0,0,5.563,7.25Z" transform="translate(-3468.768 -4120.476)" fill="#cae2ad"/>
          <path id="パス_342" data-name="パス 342" d="M3568.315,4317.44a3.949,3.949,0,0,0-.248,1.355,4.036,4.036,0,0,0,8.072,0,3.979,3.979,0,0,0-.236-1.308,6.052,6.052,0,0,1-6.177,9.644,21.654,21.654,0,0,0-2.455,12.1,6.655,6.655,0,0,1-.5,2.521,5.813,5.813,0,0,0,4.017,1.616,5.86,5.86,0,0,0,2.642-11.1,8.025,8.025,0,0,1,5.184,4.883,6.1,6.1,0,0,0-1.269-10.461,7.624,7.624,0,0,0-4.654-12.416A5.75,5.75,0,0,1,3568.315,4317.44Z" transform="translate(-3477.42 -4126.794)" fill="#cae2ad"/>
          <path id="パス_343" data-name="パス 343" d="M3558.671,4361.961a7.62,7.62,0,0,0,11.678-9.468,8,8,0,0,1-14.5,4,6.665,6.665,0,0,1-8.714-10.043,7.8,7.8,0,1,0,9.053,12.582l-.2,21.584h2.86l-.175-18.656Z" transform="translate(-3468.68 -4138.713)" fill="#cae2ad"/>
          <path id="パス_344" data-name="パス 344" d="M3575.069,4311.915c.236.015.469.042.7.079a5.643,5.643,0,0,0,.4-3.876c0,.019,0,.037,0,.056A6.87,6.87,0,0,1,3575.069,4311.915Z" transform="translate(-3480.492 -4124.514)" fill="#a6d18c"/>
          <path id="パス_345" data-name="パス 345" d="M3550.212,4345.394a6.672,6.672,0,0,0-.757.666c.214-.121.435-.233.66-.335C3550.146,4345.613,3550.176,4345.5,3550.212,4345.394Z" transform="translate(-3471.005 -4138.32)" fill="#a6d18c"/>
          <path id="パス_346" data-name="パス 346" d="M3585.017,4354.033c.017-.212.032-.424.032-.641a7.982,7.982,0,0,0-.5-2.783,6.1,6.1,0,0,1-1.765.937A7.7,7.7,0,0,1,3585.017,4354.033Z" transform="translate(-3483.348 -4140.252)" fill="#a6d18c"/>
          <path id="パス_347" data-name="パス 347" d="M3553.038,4341.144a6.624,6.624,0,0,0,3.982-1.33,8,8,0,0,0,14.5-4,7.69,7.69,0,0,0-2.236-2.487,6.1,6.1,0,0,0,1.765-.937,8.029,8.029,0,0,0-5.184-4.884,5.859,5.859,0,1,1-6.658,9.484,6.643,6.643,0,0,0,.5-2.521,6.379,6.379,0,0,0-.053-.741,6.278,6.278,0,0,0,2.508-11.358,6.06,6.06,0,0,0,6.177-9.644,3.981,3.981,0,0,1,.236,1.308,4.036,4.036,0,0,1-8.072,0,3.941,3.941,0,0,1,.248-1.355,5.752,5.752,0,0,0,4.381-3.167c-.23-.036-.462-.064-.7-.079a6.867,6.867,0,0,0,1.106-3.74c0-.02,0-.038,0-.056a5.775,5.775,0,0,0-.43-1.167c0,.081.024.156.024.238a4.046,4.046,0,1,1-6.377-3.294,5.729,5.729,0,0,0,.133,11.219,6.039,6.039,0,0,0,1.524,9.012c-.167.1-.337.2-.514.284-.095.044-.193.081-.289.122-.144.06-.29.117-.439.166-.1.034-.209.065-.315.095q-.245.064-.5.111c-.092.018-.184.037-.278.049a6.079,6.079,0,0,1-.811.059,5.932,5.932,0,0,1-.956-.082l-.1-.015a6.458,6.458,0,0,1-.919-.236,6.085,6.085,0,0,1-3.95-7.275,6.39,6.39,0,1,0,6.161,11.054,5.741,5.741,0,0,1,.37,9.637,5.955,5.955,0,0,1-.724.438c-.075.036-.145.081-.221.116-.1.047-.214.083-.321.125-.122.046-.244.094-.37.134-.108.033-.219.058-.329.084a5.744,5.744,0,0,1-6.937-7.073q-.339.152-.66.335a6.661,6.661,0,0,0,4.731,11.374Z" transform="translate(-3469.856 -4122.031)" fill="#a6d18c"/>
          <path id="パス_348" data-name="パス 348" d="M4003.524,4317.44a3.954,3.954,0,0,0-.247,1.355,4.036,4.036,0,0,0,8.072,0,3.979,3.979,0,0,0-.236-1.308,6.052,6.052,0,0,1-6.177,9.644,6.277,6.277,0,0,1-2.508,11.357,6.387,6.387,0,0,1,.053.741,6.66,6.66,0,0,1-.5,2.521,5.81,5.81,0,0,0,4.016,1.616,5.86,5.86,0,0,0,2.642-11.1,8.024,8.024,0,0,1,5.185,4.883,6.1,6.1,0,0,0-1.269-10.461,7.624,7.624,0,0,0-4.654-12.416A5.75,5.75,0,0,1,4003.524,4317.44Z" transform="translate(-3638.613 -4126.794)" fill="#cae2ad"/>
          <path id="パス_349" data-name="パス 349" d="M3988.651,4335.13a5.69,5.69,0,0,0,1.373-.177c.111-.027.222-.051.33-.084.126-.04.247-.087.37-.134.106-.042.216-.078.32-.125.077-.035.147-.08.222-.117a5.9,5.9,0,0,0,.723-.438,5.788,5.788,0,0,0,1.735-1.938,5.735,5.735,0,0,0-2.1-7.7,6.39,6.39,0,1,1-6.161-11.055,6.2,6.2,0,0,0-.191,1.493,6.118,6.118,0,0,0,4.14,5.783,6.393,6.393,0,0,0,.92.235c.034.007.069.011.1.016a5.948,5.948,0,0,0,.956.082,6.073,6.073,0,0,0,.811-.059c.095-.012.185-.032.278-.05.168-.03.334-.068.5-.11.107-.03.212-.061.315-.1.149-.049.3-.105.44-.166.1-.041.195-.077.289-.122.177-.085.347-.183.514-.284a6.039,6.039,0,0,1-1.524-9.012,5.728,5.728,0,0,1-.132-11.218,4.04,4.04,0,1,0,6.377,3.294c0-.082-.019-.158-.023-.238a5.773,5.773,0,0,1,.429,1.166,6.917,6.917,0,1,0-13.286,2.758,6.1,6.1,0,0,0-4.156,5.784,6.161,6.161,0,0,0,.069.869,8.064,8.064,0,0,0,1.283,14.191c-.163.061-.322.128-.479.2a5.652,5.652,0,0,0-.2,1.482A5.767,5.767,0,0,0,3988.651,4335.13Z" transform="translate(-3629.96 -4120.476)" fill="#cae2ad"/>
          <path id="パス_350" data-name="パス 350" d="M3993.88,4361.961a7.621,7.621,0,0,0,11.678-9.468,8,8,0,0,1-14.505,4,6.665,6.665,0,0,1-8.713-10.043,7.8,7.8,0,1,0,9.053,12.582l-.2,21.584h2.86l-.175-18.656Z" transform="translate(-3629.872 -4138.713)" fill="#cae2ad"/>
          <path id="パス_351" data-name="パス 351" d="M4010.279,4311.915c.236.015.468.042.7.079a5.647,5.647,0,0,0,.4-3.876c0,.019,0,.037,0,.056A6.876,6.876,0,0,1,4010.279,4311.915Z" transform="translate(-3641.685 -4124.514)" fill="#a6d18c"/>
          <path id="パス_352" data-name="パス 352" d="M4020.226,4354.033c.017-.212.033-.424.033-.641a7.978,7.978,0,0,0-.5-2.783,6.123,6.123,0,0,1-1.766.937A7.7,7.7,0,0,1,4020.226,4354.033Z" transform="translate(-3644.541 -4140.252)" fill="#a6d18c"/>
          <path id="パス_353" data-name="パス 353" d="M3985.422,4345.394a6.734,6.734,0,0,0-.757.666c.215-.121.434-.233.661-.335C3985.355,4345.613,3985.385,4345.5,3985.422,4345.394Z" transform="translate(-3632.198 -4138.32)" fill="#a6d18c"/>
          <path id="パス_354" data-name="パス 354" d="M3988.247,4341.144a6.624,6.624,0,0,0,3.982-1.33,8,8,0,0,0,14.505-4,7.688,7.688,0,0,0-2.236-2.487,6.116,6.116,0,0,0,1.766-.937,8.028,8.028,0,0,0-5.185-4.884,5.859,5.859,0,1,1-6.658,9.484,6.657,6.657,0,0,0,.5-2.521,6.379,6.379,0,0,0-.053-.741,6.277,6.277,0,0,0,2.508-11.358,6.06,6.06,0,0,0,6.177-9.644,3.981,3.981,0,0,1,.236,1.308,4.036,4.036,0,0,1-8.072,0,3.952,3.952,0,0,1,.247-1.355,5.753,5.753,0,0,0,4.381-3.167c-.229-.036-.462-.064-.7-.079a6.873,6.873,0,0,0,1.106-3.74c0-.02,0-.038,0-.056a5.774,5.774,0,0,0-.429-1.167c0,.081.023.156.023.238a4.046,4.046,0,1,1-6.376-3.294,5.729,5.729,0,0,0,.132,11.219,6.039,6.039,0,0,0,1.524,9.012c-.167.1-.337.2-.514.284-.094.044-.194.081-.29.122-.144.06-.29.117-.439.166-.1.034-.209.065-.315.095-.164.043-.33.08-.5.111-.093.018-.183.037-.278.049a6.072,6.072,0,0,1-.81.059,5.943,5.943,0,0,1-.956-.082l-.1-.015a6.493,6.493,0,0,1-.92-.236,6.082,6.082,0,0,1-3.949-7.275,6.39,6.39,0,1,0,6.161,11.054,5.742,5.742,0,0,1,.37,9.637,6.053,6.053,0,0,1-.724.438c-.075.036-.145.081-.222.116-.1.047-.214.083-.32.125-.124.046-.245.094-.37.134-.108.033-.219.058-.33.084a5.722,5.722,0,0,1-7.136-5.59,5.651,5.651,0,0,1,.2-1.483q-.34.152-.661.335a6.661,6.661,0,0,0,4.731,11.374Z" transform="translate(-3631.049 -4122.031)" fill="#a6d18c"/>
        </g>
      </g>
    </g>
    <g id="グループ_4588" data-name="グループ 4588" transform="translate(3504.126 4163.81)">
      <path id="パス_71038" data-name="パス 71038" d="M346.667,99.96,325,68.359H164.254v33.779Z" transform="translate(-23.745 -1.469)" fill="#2f2316"/>
      <rect id="長方形_28630" data-name="長方形 28630" width="229.862" height="145.41" transform="translate(88.066 103.043)" fill="#645441"/>
      <rect id="長方形_28631" data-name="長方形 28631" width="47.203" height="25.318" transform="translate(197.457 117.068)" fill="#403020"/>
      <g id="グループ_4580" data-name="グループ 4580" transform="translate(198.803 118.487)">
        <rect id="長方形_28632" data-name="長方形 28632" width="21.229" height="22.48" fill="#ceebfb"/>
        <rect id="長方形_28633" data-name="長方形 28633" width="21.229" height="22.48" transform="translate(23.258)" fill="#ceebfb"/>
      </g>
      <rect id="長方形_28634" data-name="長方形 28634" width="47.204" height="25.318" transform="translate(258.643 117.068)" fill="#403020"/>
      <g id="グループ_4581" data-name="グループ 4581" transform="translate(259.989 118.487)">
        <rect id="長方形_28635" data-name="長方形 28635" width="21.229" height="22.48" fill="#ceebfb"/>
        <rect id="長方形_28636" data-name="長方形 28636" width="21.229" height="22.48" transform="translate(23.258)" fill="#ceebfb"/>
      </g>
      <rect id="長方形_28637" data-name="長方形 28637" width="105.723" height="2.705" transform="translate(212.206 230.937)" fill="#403020"/>
      <rect id="長方形_28638" data-name="長方形 28638" width="105.723" height="14.616" transform="translate(212.206 233.642)" fill="#a79484"/>
      <rect id="長方形_28639" data-name="長方形 28639" width="26.831" height="4.776" transform="translate(185.375 231.039)" fill="#b3a245"/>
      <rect id="長方形_28640" data-name="長方形 28640" width="26.831" height="4.776" transform="translate(185.375 234.97)" fill="#5c521f"/>
      <rect id="長方形_28641" data-name="長方形 28641" width="26.831" height="4.776" transform="translate(185.375 239.746)" fill="#b3a245"/>
      <rect id="長方形_28642" data-name="長方形 28642" width="26.831" height="4.776" transform="translate(185.375 243.677)" fill="#5c521f"/>
      <rect id="長方形_28643" data-name="長方形 28643" width="47.203" height="52.546" transform="translate(240.553 178.515)" fill="#403020"/>
      <g id="グループ_4582" data-name="グループ 4582" transform="translate(241.899 181.46)">
        <rect id="長方形_28644" data-name="長方形 28644" width="21.229" height="46.656" fill="#ceebfb"/>
        <rect id="長方形_28645" data-name="長方形 28645" width="21.229" height="46.656" transform="translate(23.258)" fill="#ceebfb"/>
      </g>
      <path id="パス_71039" data-name="パス 71039" d="M217.221,110.877l70.708,41.717H220.006Z" transform="translate(-34.631 -10.208)" fill="#645441" style="mix-blend-mode: multiply;isolation: isolate"/>
      <rect id="長方形_28646" data-name="長方形 28646" width="132.553" height="36.434" transform="translate(185.375 140.217)" fill="#826d55"/>
      <rect id="長方形_28647" data-name="長方形 28647" width="97.309" height="145.41" transform="translate(88.066 103.043)" fill="#826d55"/>
      <rect id="長方形_28648" data-name="長方形 28648" width="97.309" height="14.616" transform="translate(88.066 233.642)" fill="#a79484"/>
      <rect id="長方形_28649" data-name="長方形 28649" width="97.309" height="2.705" transform="translate(88.066 230.937)" fill="#403020"/>
      <rect id="長方形_28650" data-name="長方形 28650" width="47.204" height="25.318" transform="translate(113.119 113.038)" fill="#403020"/>
      <g id="グループ_4583" data-name="グループ 4583" transform="translate(114.465 114.457)">
        <rect id="長方形_28651" data-name="長方形 28651" width="21.229" height="22.48" transform="translate(0)" fill="#ceebfb"/>
        <rect id="長方形_28652" data-name="長方形 28652" width="21.229" height="22.48" transform="translate(23.258)" fill="#ceebfb"/>
      </g>
      <rect id="長方形_28653" data-name="長方形 28653" width="47.204" height="52.546" transform="translate(113.119 178.515)" fill="#403020"/>
      <g id="グループ_4584" data-name="グループ 4584" transform="translate(114.465 181.46)">
        <rect id="長方形_28654" data-name="長方形 28654" width="21.229" height="46.656" transform="translate(0)" fill="#ceebfb"/>
        <rect id="長方形_28655" data-name="長方形 28655" width="21.229" height="46.656" transform="translate(23.258)" fill="#ceebfb"/>
      </g>
      <rect id="長方形_28656" data-name="長方形 28656" width="97.309" height="4.01" transform="translate(88.066 103.043)" fill="#826d55" style="mix-blend-mode: multiply;isolation: isolate"/>
      <rect id="長方形_28657" data-name="長方形 28657" width="121.455" height="4.358" transform="translate(70.988 98.49)" fill="#a79484"/>
      <rect id="長方形_28658" data-name="長方形 28658" width="134.814" height="4.358" transform="translate(188.109 98.49)" fill="#a79484"/>
      <path id="パス_71040" data-name="パス 71040" d="M140.154,61.323,76.749,97.594v2.179H198.2V97.594Z" transform="translate(-5.761 -0.023)" fill="#403020"/>
      <rect id="長方形_28659" data-name="長方形 28659" width="26.831" height="55.637" transform="translate(185.375 176.652)" fill="#524536"/>
      <g id="グループ_4585" data-name="グループ 4585" transform="translate(188.164 187.206)">
        <rect id="長方形_28660" data-name="長方形 28660" width="21.253" height="43.731" fill="#403020"/>
        <rect id="長方形_28661" data-name="長方形 28661" width="4.757" height="41.156" transform="translate(7.99 1.554)" fill="#fff"/>
        <rect id="長方形_28662" data-name="長方形 28662" width="1.216" height="10.214" transform="translate(17.764 19.148)" fill="#f2f6ec"/>
      </g>
      <path id="パス_71041" data-name="パス 71041" d="M109.719,276.9h-1.31V251.49l-4.077-14.1,2.1-16.447,6.346-14.416-4.118-8.489,1.179-.572,4.382,9.035-6.551,14.883-2,15.9,4.054,14.107Z" transform="translate(-11.43 -28.005)" fill="#221a12"/>
      <path id="パス_71042" data-name="パス 71042" d="M112.182,211.261l-.64-1.142,9.927-5.565,2.318-10.169,7.179-3.367,2.987-7.73,1.221.472L132,191.98l-7.076,3.319-2.305,10.113Z" transform="translate(-12.911 -25.09)" fill="#221a12"/>
      <path id="パス_71043" data-name="パス 71043" d="M379.029,179.9l-10.582-4.851-5.854-7.227H352.249l-4.908-4.062.835-1.009,4.545,3.761h10.5l6.054,7.474,10.3,4.723Z" transform="translate(-61.373 -20.869)" fill="#221a12"/>
      <path id="パス_71044" data-name="パス 71044" d="M357.405,188.652l-.348-1.262,7.07-1.95v-5.11L368.7,174.5l1.03.808-4.3,5.469v5.654Z" transform="translate(-63.37 -23.284)" fill="#221a12"/>
      <path id="パス_71045" data-name="パス 71045" d="M336.392,87.418l-12.344-5.483-32.23-2.069.084-1.307,32.463,2.084,11.938,5.3,17.8-10.612.67,1.125Z" transform="translate(-49.962 -2.903)" fill="#826d55"/>
      <path id="パス_71046" data-name="パス 71046" d="M320.276,93.245l-.509-1.206L326.5,89.2l2.694-6.4,1.206.508-2.9,6.888Z" transform="translate(-55.706 -4.437)" fill="#826d55"/>
      <path id="パス_71047" data-name="パス 71047" d="M196.875,188.168l-.947-.905,5.379-5.623,19.722-8.792,1.015-12.259,1.3.108-1.08,13.032-20.195,9Z" transform="translate(-30.255 -20.424)" fill="#221a12"/>
      <path id="パス_71048" data-name="パス 71048" d="M236.218,193.586l-1.2-.532,3.967-8.922-11.129-7.151.708-1.1,12.074,7.758Z" transform="translate(-36.817 -23.567)" fill="#221a12"/>
      <path id="パス_71049" data-name="パス 71049" d="M316.254,173.486l5.112,10.9h-3.254l11.348,10.71Z" transform="translate(-54.984 -23.075)" fill="#403020"/>
      <path id="パス_71050" data-name="パス 71050" d="M114.7,183.4l.009-10.16,3.783-1.351-8.263-15.879Z" transform="translate(-12.642 -19.483)" fill="#403020"/>
      <g id="グループ_4586" data-name="グループ 4586" transform="translate(55.558 210.219)">
        <path id="パス_71051" data-name="パス 71051" d="M73.771,287.44s-5.7-26.176-16.444-38.674c0,0,13.594,11.626,16.883,22.7s6.14,15.978,6.14,15.978Z" transform="translate(-57.327 -248.766)" fill="#45a243"/>
        <path id="パス_71052" data-name="パス 71052" d="M89.082,287.44s5.7-26.176,16.445-38.674c0,0-13.594,11.626-16.883,22.7S82.5,287.44,82.5,287.44Z" transform="translate(-62.502 -248.766)" fill="#45a243"/>
        <path id="パス_71053" data-name="パス 71053" d="M74.829,249.233s12.55,13.133,12.189,38.3H82.233s-.091-18.891-3.612-27.2S74.829,249.233,74.829,249.233Z" transform="translate(-60.924 -248.862)" fill="#45a243"/>
      </g>
      <g id="グループ_4587" data-name="グループ 4587" transform="translate(286.151 222.399)">
        <path id="パス_71054" data-name="パス 71054" d="M361.5,296.849s-4.828-22.168-13.926-32.752c0,0,11.512,9.845,14.3,19.22s5.2,13.532,5.2,13.532Z" transform="translate(-347.571 -264.097)" fill="#45a243"/>
        <path id="パス_71055" data-name="パス 71055" d="M374.464,296.849s4.828-22.168,13.926-32.752c0,0-11.513,9.845-14.3,19.22s-5.2,13.532-5.2,13.532Z" transform="translate(-351.953 -264.097)" fill="#45a243"/>
        <path id="パス_71056" data-name="パス 71056" d="M362.393,264.492s10.628,11.122,10.323,32.438h-4.053s-.077-16-3.059-23.034S362.393,264.492,362.393,264.492Z" transform="translate(-350.617 -264.178)" fill="#45a243"/>
      </g>
    </g>
    <g id="グループ_4579" data-name="グループ 4579" transform="translate(3451.758 4240.903)">
      <path id="パス_70936" data-name="パス 70936" d="M981.025,536.893h0a1.259,1.259,0,0,0,1.774-.032l35.271-34.848a1.259,1.259,0,0,0-.032-1.774h0a1.258,1.258,0,0,0-1.774.032l-35.272,34.848A1.258,1.258,0,0,0,981.025,536.893Z" transform="translate(-897.582 -456.889)" fill="#b4b5b5"/>
      <path id="パス_70937" data-name="パス 70937" d="M1049.507,580.281h0a3.14,3.14,0,0,0,4.426-.081l10.382-10.769a3.14,3.14,0,0,0-.081-4.426h0a3.14,3.14,0,0,0-4.426.081l-10.382,10.769A3.139,3.139,0,0,0,1049.507,580.281Z" transform="translate(-962.621 -503.848)" fill="#ffbe00"/>
      <path id="パス_70938" data-name="パス 70938" d="M757.4,449.965l-5-6.041,14.153-25.561,56.3-29.881,7.266,8.787Z" transform="translate(-647.881 -375.457)" fill="#ffbe00"/>
      <g id="グループ_4511" data-name="グループ 4511" transform="translate(173.524 -0.001)">
        <path id="パス_70939" data-name="パス 70939" d="M702.635,359.1h0a4.079,4.079,0,0,0,5.736.419l14.255-12.311a4.078,4.078,0,0,0,.419-5.736h0a4.078,4.078,0,0,0-5.736-.42l-14.255,12.311A4.08,4.08,0,0,0,702.635,359.1Z" transform="translate(-701.651 -340.067)" fill="#88784a"/>
        <path id="パス_70940" data-name="パス 70940" d="M630.515,344.232h0a4.105,4.105,0,0,0,3.965,4.2l18.848.552a4.069,4.069,0,0,0,4.173-3.959h0a4.106,4.106,0,0,0-3.965-4.2l-18.848-.552A4.069,4.069,0,0,0,630.515,344.232Z" transform="translate(-615.983 -340.216)" fill="#88784a"/>
        <path id="パス_70941" data-name="パス 70941" d="M623.9,394.28h0a4.129,4.129,0,0,0,5.375,2.148l17.35-7.387a4.05,4.05,0,0,0,2.117-5.338h0a4.128,4.128,0,0,0-5.375-2.148l-17.35,7.387A4.05,4.05,0,0,0,623.9,394.28Z" transform="translate(-605.693 -370.156)" fill="#88784a"/>
        <path id="パス_70942" data-name="パス 70942" d="M713.04,397.827h0a4.079,4.079,0,0,0-2.628-5.116l-17.932-5.762a4.079,4.079,0,0,0-5.116,2.628h0a4.079,4.079,0,0,0,2.628,5.116l17.932,5.762A4.079,4.079,0,0,0,713.04,397.827Z" transform="translate(-686.959 -374.193)" fill="#88784a"/>
      </g>
      <path id="パス_70943" data-name="パス 70943" d="M1036.932,564.469l-33.453,35.267-10.572,31.344,20.881,14.476,2.889-37.069,30.02-42.694Z" transform="translate(-929.157 -504.094)" fill="#ffbe00"/>
      <rect id="長方形_28442" data-name="長方形 28442" width="21.642" height="9.783" rx="4.892" transform="translate(10.045 116.366)" fill="#070203"/>
      <path id="パス_70944" data-name="パス 70944" d="M1106.189,946.166l66.041.023a12.177,12.177,0,0,0,12.146-12.136h0a12.178,12.178,0,0,0-12.137-12.145l-66.041-.023a12.177,12.177,0,0,0-12.145,12.137h0A12.177,12.177,0,0,0,1106.189,946.166Z" transform="translate(-1094.05 -765.344)" fill="#1a1311"/>
      <path id="パス_70945" data-name="パス 70945" d="M1180.173,951.208a9.217,9.217,0,0,0,.007-18.434l-66.041-.023a9.217,9.217,0,1,0-.007,18.434Z" transform="translate(-1101.992 -773.287)" fill="#b4b5b5"/>
      <rect id="長方形_28443" data-name="長方形 28443" width="74.437" height="34.157" rx="17.079" transform="translate(4.408 120.247)" fill="#ffbe00"/>
      <path id="パス_70946" data-name="パス 70946" d="M1112.664,645.541l34.629.012c2.776,0,6.189,1.632,6.789,5.085l1.313,7.706,2.018,9.543,3.274,17.354-.008,23.228h-.726c-2.608,0-6.786-.647-6.786-2.5s0-3.174,0-5.853.472-7.247-4.427-7.249l-41.141-.015.009-24.728,0-9.8,0-7.739A5.063,5.063,0,0,1,1112.664,645.541Z" transform="translate(-1074.005 -563.353)" fill="#ffbe00"/>
      <path id="パス_70947" data-name="パス 70947" d="M1192.3,784.26l5.554,0a1.207,1.207,0,0,0,1.2-1.2h0a1.207,1.207,0,0,0-1.2-1.2l-5.553,0a1.206,1.206,0,0,0-1.2,1.2h0A1.207,1.207,0,0,0,1192.3,784.26Z" transform="translate(-1134.847 -662.99)" fill="#fff475"/>
      <path id="パス_70948" data-name="パス 70948" d="M1268.563,784.233l5.554,0a1.206,1.206,0,0,0,1.2-1.2h0a1.207,1.207,0,0,0-1.2-1.2l-5.554,0a1.206,1.206,0,0,0-1.2,1.2h0A1.207,1.207,0,0,0,1268.563,784.233Z" transform="translate(-1231.625 -662.97)" fill="#fff475"/>
      <g id="グループ_4512" data-name="グループ 4512" transform="translate(56.257 87.312)">
        <path id="パス_70949" data-name="パス 70949" d="M1135.685,666.968c0-2.2,2.5-2.114,5.775-2.113s8.163-.271,8.163-.271c5.406,0,6.723,3.855,7.247,7.069.231,1.422.915,5.334,1.605,9.255l-22.8-.008C1135.682,675.587,1135.684,668.5,1135.685,666.968Z" transform="translate(-1135.608 -664.584)" fill="#0063af"/>
        <path id="パス_70950" data-name="パス 70950" d="M1129.242,725.225l22.8.008c.87,4.943,1.751,9.9,1.751,9.9s-.114,2.637-3.8,2.635l-19.587-.006c-1.655,0-1.16-4.51-1.16-6.7C1129.24,730.315,1129.24,728.014,1129.242,725.225Z" transform="translate(-1129.17 -708.909)" fill="#007fc9"/>
      </g>
      <path id="パス_70951" data-name="パス 70951" d="M1238.6,667.466a2.932,2.932,0,0,1,2.924-2.923l9.613,0a2.932,2.932,0,0,1,2.923,2.925l0,13.4h0l-15.46-.005Z" transform="translate(-1202.621 -577.242)" fill="#0063af"/>
      <path id="パス_70952" data-name="パス 70952" d="M1254.073,725.2l0,9.613a2.933,2.933,0,0,1-2.926,2.923l-9.613,0a2.931,2.931,0,0,1-2.922-2.924l0-9.613Z" transform="translate(-1202.641 -621.577)" fill="#007fc9"/>
      <ellipse id="楕円形_375" data-name="楕円形 375" cx="5.568" cy="5.568" rx="5.568" ry="5.568" transform="translate(72.616 163.137)" fill="#1a1311"/>
      <ellipse id="楕円形_376" data-name="楕円形 376" cx="5.568" cy="5.568" rx="5.568" ry="5.568" transform="matrix(-0.96, -0.281, 0.281, -0.96, 16.119, 175.59)" fill="#1a1311"/>
      <path id="パス_70953" data-name="パス 70953" d="M1153.2,828.638c0,2.68,0,4,0,5.853s4.178,2.5,6.786,2.5h.726l0,9.119a8.752,8.752,0,0,1-1.786.184h-4.972c-.022,0-.044,0-.066,0s-.044,0-.066,0l-9.271,0,0-8.155c0-5.3.823-9.64-4.479-9.642l-32.44-.012,0-7.109,41.141.014C1153.672,821.391,1153.2,825.958,1153.2,828.638Z" transform="translate(-1074.038 -691.877)" fill="#ffbe00"/>
      <rect id="長方形_28444" data-name="長方形 28444" width="48.682" height="11.136" transform="translate(20.849 163.125)" fill="#1a1311"/>
      <path id="パス_70954" data-name="パス 70954" d="M1318.772,816.349h0a1.471,1.471,0,0,0,1.466-1.466l.005-14.69a1.47,1.47,0,0,0-1.465-1.466h0a1.47,1.47,0,0,0-1.466,1.465l-.005,14.691A1.47,1.47,0,0,0,1318.772,816.349Z" transform="translate(-1289.985 -675.323)" fill="#1a1311"/>
      <path id="パス_70955" data-name="パス 70955" d="M1336.583,816.343h0a1.471,1.471,0,0,0,1.467-1.466l0-14.691a1.47,1.47,0,0,0-1.465-1.467h0a1.471,1.471,0,0,0-1.466,1.465l-.005,14.69A1.471,1.471,0,0,0,1336.583,816.343Z" transform="translate(-1312.589 -675.318)" fill="#1a1311"/>
      <path id="パス_70956" data-name="パス 70956" d="M1354.393,816.336h0a1.47,1.47,0,0,0,1.467-1.465l.005-14.69a1.471,1.471,0,0,0-1.465-1.467h0a1.47,1.47,0,0,0-1.467,1.465l0,14.69A1.469,1.469,0,0,0,1354.393,816.336Z" transform="translate(-1335.192 -675.313)" fill="#1a1311"/>
      <path id="パス_70957" data-name="パス 70957" d="M1372.2,816.331h0a1.47,1.47,0,0,0,1.466-1.466l.005-14.69a1.471,1.471,0,0,0-1.466-1.467h0a1.47,1.47,0,0,0-1.467,1.465l0,14.691A1.47,1.47,0,0,0,1372.2,816.331Z" transform="translate(-1357.794 -675.309)" fill="#1a1311"/>
      <g id="グループ_4513" data-name="グループ 4513" transform="translate(77.661 108.376)">
        <path id="パス_70958" data-name="パス 70958" d="M1114.475,755.291h0a1.452,1.452,0,0,0,1.448-1.446l0-9.525a1.452,1.452,0,0,0-1.447-1.448h0a1.451,1.451,0,0,0-1.448,1.447l0,9.525A1.452,1.452,0,0,0,1114.475,755.291Z" transform="translate(-1108.367 -742.871)" fill="#1a1311"/>
        <path id="パス_70959" data-name="パス 70959" d="M1117.861,772.313l5.423-1.469a.507.507,0,0,0,.354-.619h0a.506.506,0,0,0-.619-.355l-5.422,1.47a.507.507,0,0,0-.355.619h0A.505.505,0,0,0,1117.861,772.313Z" transform="translate(-1117.225 -762.593)" fill="#1a1311"/>
      </g>
      <path id="パス_70960" data-name="パス 70960" d="M1110.582,637.672h0a2.312,2.312,0,0,0,.238-3.252l-4.927-5.7a2.313,2.313,0,0,0-3.252-.238h0a2.312,2.312,0,0,0-.237,3.252l4.927,5.7A2.311,2.311,0,0,0,1110.582,637.672Z" transform="translate(-1023.149 -550.473)" fill="#ffbe00"/>
      <g id="グループ_4514" data-name="グループ 4514" transform="translate(107.698 60.298)">
        <ellipse id="楕円形_377" data-name="楕円形 377" cx="4.088" cy="4.088" rx="4.088" ry="4.088" transform="matrix(-0.237, -0.971, 0.971, -0.237, 1.938, 9.88)" fill="#848585"/>
        <ellipse id="楕円形_378" data-name="楕円形 378" cx="2.89" cy="2.89" rx="2.89" ry="2.89" transform="matrix(-0.999, -0.047, 0.047, -0.999, 7.69, 7.964)" fill="#1a1311"/>
      </g>
      <ellipse id="楕円形_379" data-name="楕円形 379" cx="5.744" cy="5.744" rx="5.744" ry="5.744" transform="matrix(-0.993, -0.12, 0.12, -0.993, 183.455, 23.761)" fill="#b4b5b5"/>
    </g>
  </g>
</svg>
