<svg xmlns="http://www.w3.org/2000/svg" width="30.162" height="29.609" viewBox="0 0 30.162 29.609">
  <g id="ico_line" transform="matrix(0.695, 0.719, -0.719, 0.695, 69.366, -89.493)">
    <path id="パス_562" data-name="パス 562" d="M39.735,153.6a1.9,1.9,0,0,0-1.9-1.9H31.288a1.9,1.9,0,0,0,0,3.8h6.544A1.9,1.9,0,0,0,39.735,153.6Z" transform="translate(0 -42.099)" fill="#fff"/>
    <path id="パス_563" data-name="パス 563" d="M49.805,97.774l-6.118-2.322a1.9,1.9,0,1,0-1.35,3.557l6.118,2.322a1.9,1.9,0,1,0,1.35-3.557Z" transform="translate(-8.755)" fill="#fff"/>
    <path id="パス_564" data-name="パス 564" d="M48.456,199.016l-6.118,2.322a1.9,1.9,0,1,0,1.35,3.557l6.118-2.322a1.9,1.9,0,0,0-1.35-3.557Z" transform="translate(-8.755 -77.345)" fill="#fff"/>
  </g>
</svg>
