<svg xmlns="http://www.w3.org/2000/svg" xmlns:xlink="http://www.w3.org/1999/xlink" width="140" height="140" viewBox="0 0 140 140">
  <defs>
    <clipPath id="clip-path">
      <circle id="楕円形_25" data-name="楕円形 25" cx="70" cy="70" r="70" transform="translate(0 0.477)" fill="#f7f3e5"/>
    </clipPath>
  </defs>
  <g id="trouble_02" transform="translate(0 -0.477)">
    <circle id="楕円形_23" data-name="楕円形 23" cx="70" cy="70" r="70" transform="translate(0 0.477)" fill="#fff"/>
    <g id="マスクグループ_4" data-name="マスクグループ 4" clip-path="url(#clip-path)">
      <g id="グループ_4516" data-name="グループ 4516" transform="translate(-91.061 -249.661)">
        <rect id="長方形_28404" data-name="長方形 28404" width="1.913" height="33.735" transform="translate(166.065 284.277)" fill="#878684"/>
        <rect id="長方形_28405" data-name="長方形 28405" width="16.694" height="1.565" transform="translate(156.849 291.058)" fill="#878684"/>
        <rect id="長方形_28406" data-name="長方形 28406" width="16.694" height="1.565" transform="translate(156.849 296.449)" fill="#878684"/>
        <rect id="長方形_28407" data-name="長方形 28407" width="16.694" height="1.565" transform="translate(156.849 300.815)" fill="#878684"/>
        <path id="パス_70926" data-name="パス 70926" d="M546.719,288.933a9.327,9.327,0,0,0,.869,6.26l1.391,4.521-6.086.869,2.436,6.171-4.443,6.836,14.18,1.078.348,4.347,2.842,1.871-25.1.389-4-31.648,9.912-4Z" transform="translate(-384.828 -5.7)" fill="#adaeae"/>
        <rect id="長方形_28408" data-name="長方形 28408" width="14.066" height="25.133" transform="translate(107.945 323.544)" fill="#343434"/>
        <path id="パス_70927" data-name="パス 70927" d="M161.679,445.928l-17.242,6.924V481.54h34.484V452.852Z" transform="translate(-36.492 -150.839)" fill="#adaeae"/>
        <rect id="長方形_28409" data-name="長方形 28409" width="13.401" height="1.509" transform="translate(107.945 329.216)" fill="#878684"/>
        <rect id="長方形_28410" data-name="長方形 28410" width="36.923" height="10.212" transform="translate(119.661 338.466)" fill="#3d3d3d"/>
        <rect id="長方形_28411" data-name="長方形 28411" width="10.506" height="24.499" transform="translate(161.79 324.179)" fill="#484847"/>
        <rect id="長方形_28412" data-name="長方形 28412" width="36.923" height="18.922" transform="translate(119.661 324.179)" fill="#484847"/>
        <rect id="長方形_28413" data-name="長方形 28413" width="2.883" height="24.499" transform="translate(171.626 324.179)" fill="#635f5a"/>
        <rect id="長方形_28414" data-name="長方形 28414" width="7.396" height="24.499" transform="translate(154.365 324.179)" fill="#635f5a"/>
        <rect id="長方形_28415" data-name="長方形 28415" width="7.396" height="3.654" transform="translate(154.365 345.024)" fill="#4e5b53"/>
        <g id="グループ_4503" data-name="グループ 4503" transform="translate(104.133 294.403)">
          <path id="パス_70928" data-name="パス 70928" d="M104.133,447.467l21.054-7.19v-1.608l-21.054,7.19Z" transform="translate(-104.133 -438.669)" fill="#878684"/>
          <path id="パス_70929" data-name="パス 70929" d="M347.809,447.467l-21.054-7.19v-1.608l21.054,7.19Z" transform="translate(-305.701 -438.669)" fill="#878684"/>
        </g>
        <g id="グループ_4504" data-name="グループ 4504" transform="translate(133.092 279.334)">
          <path id="パス_70930" data-name="パス 70930" d="M410.341,288.132l21.054-7.19v-1.608l-21.054,7.19Z" transform="translate(-410.341 -279.334)" fill="#878684"/>
          <path id="パス_70931" data-name="パス 70931" d="M654.016,288.132l-21.054-7.19v-1.608l21.054,7.19Z" transform="translate(-611.909 -279.334)" fill="#878684"/>
        </g>
        <path id="パス_70932" data-name="パス 70932" d="M285.57,300.795l-17.242,6.924v35.495h34.484V307.719Z" transform="translate(-148.666 -19.431)" fill="#d6d7d8"/>
        <g id="グループ_4505" data-name="グループ 4505" transform="translate(114.257 280.164)">
          <path id="パス_70933" data-name="パス 70933" d="M211.178,295.84l21.389-6.123.081-1.606-21.389,6.123Z" transform="translate(-211.178 -288.111)" fill="#878684"/>
          <path id="パス_70934" data-name="パス 70934" d="M458.007,297.956l-20.666-8.239.081-1.606,20.666,8.239Z" transform="translate(-415.952 -288.111)" fill="#878684"/>
        </g>
        <rect id="長方形_28416" data-name="長方形 28416" width="8.427" height="3.262" transform="translate(138.432 295.963) rotate(90)" fill="#d6d7d8"/>
        <g id="グループ_4506" data-name="グループ 4506" transform="translate(132.789 290.055)">
          <rect id="長方形_28417" data-name="長方形 28417" width="1.796" height="10.067" fill="#67a0b3"/>
          <rect id="長方形_28418" data-name="長方形 28418" width="1.796" height="10.067" transform="translate(6.433)" fill="#67a0b3"/>
        </g>
        <g id="グループ_4507" data-name="グループ 4507" transform="translate(132.789 303.641)">
          <rect id="長方形_28419" data-name="長方形 28419" width="1.796" height="10.067" transform="translate(0 0)" fill="#67a0b3"/>
          <rect id="長方形_28420" data-name="長方形 28420" width="1.796" height="10.067" transform="translate(6.433 0)" fill="#67a0b3"/>
        </g>
        <rect id="長方形_28421" data-name="長方形 28421" width="9.865" height="1.556" transform="translate(161.761 347.121)" fill="#bba797"/>
        <rect id="長方形_28422" data-name="長方形 28422" width="9.865" height="1.047" transform="translate(161.761 346.445)" fill="#daccc3"/>
        <rect id="長方形_28423" data-name="長方形 28423" width="9.865" height="1.556" transform="translate(161.761 344.889)" fill="#bba797"/>
        <rect id="長方形_28424" data-name="長方形 28424" width="9.865" height="1.047" transform="translate(161.761 344.213)" fill="#daccc3"/>
        <rect id="長方形_28425" data-name="長方形 28425" width="20.946" height="1.556" transform="translate(119.661 347.121)" fill="#bba797"/>
        <rect id="長方形_28426" data-name="長方形 28426" width="20.946" height="1.047" transform="translate(119.661 346.445)" fill="#daccc3"/>
        <rect id="長方形_28427" data-name="長方形 28427" width="20.946" height="1.556" transform="translate(119.661 344.889)" fill="#bba797"/>
        <rect id="長方形_28428" data-name="長方形 28428" width="20.946" height="1.047" transform="translate(119.661 344.213)" fill="#daccc3"/>
        <rect id="長方形_28429" data-name="長方形 28429" width="7.917" height="14.997" transform="translate(126.494 329.216)" fill="#d6d7d8"/>
        <rect id="長方形_28430" data-name="長方形 28430" width="12.849" height="5.254" transform="translate(133.079 330.547) rotate(90)" fill="#67a0b3"/>
        <g id="グループ_4508" data-name="グループ 4508" transform="translate(140.923 329.334)">
          <rect id="長方形_28431" data-name="長方形 28431" width="6.122" height="11.597" transform="translate(11.597 0) rotate(90)" fill="#d6d7d8"/>
          <rect id="長方形_28432" data-name="長方形 28432" width="9.935" height="4.063" transform="translate(10.766 5.093) rotate(180)" fill="#67a0b3"/>
        </g>
        <g id="グループ_4510" data-name="グループ 4510" transform="translate(153.3 310.376)">
          <rect id="長方形_28433" data-name="長方形 28433" width="21.209" height="0.984" transform="translate(0 0)" fill="#d6d7d8"/>
          <g id="グループ_4509" data-name="グループ 4509" transform="translate(4.117 0.984)">
            <rect id="長方形_28434" data-name="長方形 28434" width="1.08" height="3.827" transform="translate(16.012)" fill="#d6d7d8"/>
            <rect id="長方形_28435" data-name="長方形 28435" width="1.08" height="3.827" transform="translate(10.635)" fill="#d6d7d8"/>
            <rect id="長方形_28436" data-name="長方形 28436" width="1.08" height="3.827" transform="translate(5.258)" fill="#d6d7d8"/>
            <rect id="長方形_28437" data-name="長方形 28437" width="1.08" height="3.827" fill="#d6d7d8"/>
          </g>
        </g>
        <rect id="長方形_28438" data-name="長方形 28438" width="20.158" height="1.013" transform="translate(154.351 314.405)" fill="#878684"/>
        <path id="パス_70935" data-name="パス 70935" d="M343.8,881.072a.518.518,0,1,1-.518-.518A.517.517,0,0,1,343.8,881.072Z" transform="translate(-216.061 -544.362)" fill="#484847"/>
        <rect id="長方形_28439" data-name="長方形 28439" width="2.363" height="15.178" transform="translate(157.417 333.499)" fill="#d6d7d8"/>
        <rect id="長方形_28440" data-name="長方形 28440" width="1.902" height="0.864" transform="translate(157.624 336.239)" fill="#635f5a"/>
        <rect id="長方形_28441" data-name="長方形 28441" width="0.294" height="7.054" transform="translate(158.428 339.109)" fill="#635f5a"/>
        <g id="グループ_4515" data-name="グループ 4515" transform="translate(138.227 293.673)">
          <path id="パス_70936" data-name="パス 70936" d="M993.787,512.9h0a.442.442,0,0,1-.624-.011l-12.4-12.249a.442.442,0,0,1,.011-.624h0a.442.442,0,0,1,.624.011l12.4,12.249A.442.442,0,0,1,993.787,512.9Z" transform="translate(-946.873 -484.774)" fill="#b4b5b5"/>
          <path id="パス_70937" data-name="パス 70937" d="M1054.065,569.809h0a1.1,1.1,0,0,1-1.556-.028L1048.86,566a1.1,1.1,0,0,1,.028-1.556h0a1.1,1.1,0,0,1,1.556.029l3.649,3.785A1.1,1.1,0,0,1,1054.065,569.809Z" transform="translate(-1008.361 -542.942)" fill="#ffbe00"/>
          <path id="パス_70938" data-name="パス 70938" d="M777.971,410.093l1.756-2.123-4.975-8.985-19.789-10.5-2.554,3.089Z" transform="translate(-740.224 -383.904)" fill="#ffbe00"/>
          <g id="グループ_4511" data-name="グループ 4511" transform="translate(0 0)">
            <path id="パス_70939" data-name="パス 70939" d="M709.171,346.757h0a1.434,1.434,0,0,1-2.016.147l-5.011-4.327A1.434,1.434,0,0,1,702,340.56h0a1.433,1.433,0,0,1,2.016-.148l5.011,4.327A1.434,1.434,0,0,1,709.171,346.757Z" transform="translate(-694.266 -340.067)" fill="#1a1311"/>
            <path id="パス_70940" data-name="パス 70940" d="M640,341.663h0a1.443,1.443,0,0,1-1.394,1.475l-6.625.194a1.43,1.43,0,0,1-1.467-1.392h0a1.443,1.443,0,0,1,1.394-1.476l6.625-.194A1.43,1.43,0,0,1,640,341.663Z" transform="translate(-629.856 -340.251)" fill="#1a1311"/>
            <path id="パス_70941" data-name="パス 70941" d="M632.416,385.817h0a1.451,1.451,0,0,1-1.889.755l-6.1-2.6a1.424,1.424,0,0,1-.744-1.876h0a1.451,1.451,0,0,1,1.889-.755l6.1,2.6A1.423,1.423,0,0,1,632.416,385.817Z" transform="translate(-623.565 -377.338)" fill="#1a1311"/>
            <path id="パス_70942" data-name="パス 70942" d="M687.238,390.646h0a1.434,1.434,0,0,1,.924-1.8l6.3-2.025a1.434,1.434,0,0,1,1.8.924h0a1.434,1.434,0,0,1-.924,1.8l-6.3,2.025A1.434,1.434,0,0,1,687.238,390.646Z" transform="translate(-681.155 -382.339)" fill="#1a1311"/>
          </g>
          <path id="パス_70943" data-name="パス 70943" d="M996.339,564.469l11.759,12.4,3.716,11.017-7.34,5.088-1.015-13.029-10.552-15.007Z" transform="translate(-957.977 -543.247)" fill="#ffbe00"/>
          <rect id="長方形_28442" data-name="長方形 28442" width="7.607" height="3.439" rx="1.719" transform="translate(65.106 40.902)" fill="#070203"/>
          <path id="パス_70944" data-name="パス 70944" d="M1121.535,930.419l-23.213.008a4.28,4.28,0,0,1-4.269-4.266h0a4.28,4.28,0,0,1,4.266-4.269l23.213-.008a4.28,4.28,0,0,1,4.269,4.266h0A4.28,4.28,0,0,1,1121.535,930.419Z" transform="translate(-1049.557 -866.86)" fill="#1a1311"/>
          <path id="パス_70945" data-name="パス 70945" d="M1108.159,939.239a3.24,3.24,0,0,1,0-6.48l23.213-.008a3.24,3.24,0,1,1,0,6.479Z" transform="translate(-1059.396 -876.7)" fill="#b4b5b5"/>
          <rect id="長方形_28443" data-name="長方形 28443" width="26.165" height="12.006" rx="6.003" transform="translate(48.53 42.267)" fill="#ffbe00"/>
          <path id="パス_70946" data-name="パス 70946" d="M1124.479,645.541l-12.172,0a2.339,2.339,0,0,0-2.386,1.787l-.461,2.709-.709,3.354-1.151,6.1,0,8.165h.255c.917,0,2.385-.227,2.385-.879s0-1.115,0-2.057-.166-2.547,1.556-2.548l14.461-.005,0-8.692v-6.163A1.779,1.779,0,0,0,1124.479,645.541Z" transform="translate(-1061.823 -616.652)" fill="#ffbe00"/>
          <path id="パス_70947" data-name="パス 70947" d="M1193.476,782.7h-1.952a.424.424,0,0,1-.423-.423h0a.424.424,0,0,1,.423-.423h1.952a.424.424,0,0,1,.423.423h0A.424.424,0,0,1,1193.476,782.7Z" transform="translate(-1137.428 -740.073)" fill="#fff475"/>
          <path id="パス_70948" data-name="パス 70948" d="M1269.736,782.673h-1.952a.424.424,0,0,1-.423-.423h0a.424.424,0,0,1,.423-.423h1.952a.424.424,0,0,1,.423.423h0A.424.424,0,0,1,1269.736,782.673Z" transform="translate(-1206.476 -740.049)" fill="#fff475"/>
          <g id="グループ_4512" data-name="グループ 4512" transform="translate(47.816 30.69)">
            <path id="パス_70949" data-name="パス 70949" d="M1143.691,665.422c0-.772-.878-.743-2.03-.743s-2.869-.1-2.869-.1c-1.9,0-2.363,1.355-2.547,2.485-.081.5-.322,1.875-.564,3.253l8.013,0C1143.692,668.452,1143.692,665.962,1143.691,665.422Z" transform="translate(-1135.065 -664.584)" fill="#0063af"/>
            <path id="パス_70950" data-name="パス 70950" d="M1137.8,725.225l-8.013,0c-.306,1.737-.615,3.48-.615,3.48s.04.927,1.337.926l6.885,0c.582,0,.408-1.585.408-2.353C1137.8,727.014,1137.8,726.205,1137.8,725.225Z" transform="translate(-1129.17 -719.49)" fill="#007fc9"/>
          </g>
          <path id="パス_70951" data-name="パス 70951" d="M1244.026,665.57a1.031,1.031,0,0,0-1.028-1.027h-3.379a1.031,1.031,0,0,0-1.027,1.028l0,4.709h0l5.434,0Z" transform="translate(-1180.428 -633.857)" fill="#0063af"/>
          <path id="パス_70952" data-name="パス 70952" d="M1238.609,725.2v3.379a1.031,1.031,0,0,0,1.028,1.027h3.379a1.03,1.03,0,0,0,1.027-1.028V725.2Z" transform="translate(-1180.443 -688.775)" fill="#007fc9"/>
          <circle id="楕円形_375" data-name="楕円形 375" cx="1.957" cy="1.957" r="1.957" transform="translate(46.805 57.342)" fill="#1a1311"/>
          <circle id="楕円形_376" data-name="楕円形 376" cx="1.957" cy="1.957" r="1.957" transform="translate(69.478 57.963) rotate(-16.33)" fill="#1a1311"/>
          <path id="パス_70953" data-name="パス 70953" d="M1110.269,823.927c0,.942,0,1.405,0,2.057s-1.468.879-2.385.88h-.255v3.205a3.072,3.072,0,0,0,.628.065h5.053v-2.866c0-1.864-.289-3.388,1.575-3.389l11.4,0v-2.5l-14.461.005C1110.1,821.38,1110.268,822.985,1110.269,823.927Z" transform="translate(-1061.85 -775.856)" fill="#ffbe00"/>
          <rect id="長方形_28444" data-name="長方形 28444" width="17.112" height="3.914" transform="translate(51.804 57.338)" fill="#1a1311"/>
          <path id="パス_70954" data-name="パス 70954" d="M1317.823,804.92h0a.517.517,0,0,1-.515-.515l0-5.164a.517.517,0,0,1,.515-.515h0a.517.517,0,0,1,.515.515l0,5.164A.517.517,0,0,1,1317.823,804.92Z" transform="translate(-1251.698 -755.35)" fill="#1a1311"/>
          <path id="パス_70955" data-name="パス 70955" d="M1335.634,804.914h0a.517.517,0,0,1-.516-.515l0-5.164a.517.517,0,0,1,.515-.516h0a.517.517,0,0,1,.515.515l0,5.164A.517.517,0,0,1,1335.634,804.914Z" transform="translate(-1267.824 -755.344)" fill="#1a1311"/>
          <path id="パス_70956" data-name="パス 70956" d="M1353.446,804.908h0a.517.517,0,0,1-.516-.515l0-5.164a.517.517,0,0,1,.515-.516h0a.517.517,0,0,1,.516.515l0,5.164A.516.516,0,0,1,1353.446,804.908Z" transform="translate(-1283.951 -755.339)" fill="#1a1311"/>
          <path id="パス_70957" data-name="パス 70957" d="M1371.255,804.9h0a.517.517,0,0,1-.515-.515l0-5.163a.517.517,0,0,1,.515-.516h0a.517.517,0,0,1,.516.515l0,5.164A.517.517,0,0,1,1371.255,804.9Z" transform="translate(-1300.077 -755.333)" fill="#1a1311"/>
          <g id="グループ_4513" data-name="グループ 4513" transform="translate(46.289 38.094)">
            <path id="パス_70958" data-name="パス 70958" d="M1113.538,747.236h0a.51.51,0,0,1-.509-.508V743.38a.51.51,0,0,1,.508-.509h0a.51.51,0,0,1,.509.509v3.348A.51.51,0,0,1,1113.538,747.236Z" transform="translate(-1113.028 -742.871)" fill="#1a1311"/>
            <path id="パス_70959" data-name="パス 70959" d="M1119.262,770.718l-1.906-.516a.178.178,0,0,1-.125-.217h0a.178.178,0,0,1,.217-.125l1.906.517a.178.178,0,0,1,.125.217h0A.178.178,0,0,1,1119.262,770.718Z" transform="translate(-1116.828 -767.301)" fill="#1a1311"/>
          </g>
          <path id="パス_70960" data-name="パス 70960" d="M1102.125,631.348h0a.812.812,0,0,1-.084-1.143l1.732-2a.813.813,0,0,1,1.143-.084h0a.813.813,0,0,1,.083,1.143l-1.732,2A.812.812,0,0,1,1102.125,631.348Z" transform="translate(-1056.613 -600.698)" fill="#ffbe00"/>
          <g id="グループ_4514" data-name="グループ 4514" transform="translate(34.916 21.195)">
            <circle id="楕円形_377" data-name="楕円形 377" cx="1.437" cy="1.437" r="1.437" transform="translate(0 2.792) rotate(-76.288)" fill="#848585"/>
            <circle id="楕円形_378" data-name="楕円形 378" cx="1.016" cy="1.016" r="1.016" transform="matrix(0.999, -0.047, 0.047, 0.999, 0.673, 0.77)" fill="#1a1311"/>
          </g>
          <circle id="楕円形_379" data-name="楕円形 379" cx="2.019" cy="2.019" r="2.019" transform="matrix(0.993, -0.12, 0.12, 0.993, 11.277, 4.343)" fill="#b4b5b5"/>
        </g>
        <path id="パス_70961" data-name="パス 70961" d="M650.026,667.19l2.72-1.166-1.425-3.886.924-1.257H632.963v9.1h20.363v-.85Z" transform="translate(-478.817 -345.464)" fill="#cfcfcf"/>
        <rect id="長方形_28445" data-name="長方形 28445" width="56.537" height="2.571" transform="translate(117.972 323.782)" fill="#878684"/>
      </g>
    </g>
  </g>
</svg>
