<svg xmlns="http://www.w3.org/2000/svg" width="47.786" height="59.399" viewBox="0 0 47.786 59.399">
  <g id="ico_difference_03" transform="translate(-1127.381 -46.308)">
    <g id="グループ_6922" data-name="グループ 6922" transform="translate(1139.403 47.398)">
      <g id="グループ_6919" data-name="グループ 6919" transform="translate(0 0)">
        <circle id="楕円形_442" data-name="楕円形 442" cx="2.518" cy="2.518" r="2.518" transform="translate(0 3.56) rotate(-45)" fill="#b9a2ce"/>
      </g>
      <g id="グループ_6920" data-name="グループ 6920" transform="translate(1.042 1.043)">
        <path id="パス_76864" data-name="パス 76864" d="M1939.962,178.83a2.516,2.516,0,0,0-1.331,3.686,1.786,1.786,0,0,0,.478.084,3.241,3.241,0,0,0,3.29-3.317A2.513,2.513,0,0,0,1939.962,178.83Z" transform="translate(-1938.264 -178.693)" fill="#e5aed5"/>
      </g>
      <g id="グループ_6921" data-name="グループ 6921" transform="translate(2.937 1.57)">
        <circle id="楕円形_443" data-name="楕円形 443" cx="0.724" cy="0.724" r="0.724" transform="translate(0 1.294) rotate(-63.374)" fill="#fff"/>
      </g>
    </g>
    <g id="グループ_6926" data-name="グループ 6926" transform="translate(1135.06 49.286)">
      <g id="グループ_6923" data-name="グループ 6923" transform="translate(0 0)">
        <circle id="楕円形_444" data-name="楕円形 444" cx="2.518" cy="2.518" r="2.518" transform="translate(0 3.56) rotate(-45)" fill="#b9a2ce"/>
      </g>
      <g id="グループ_6924" data-name="グループ 6924" transform="translate(1.051 1.042)">
        <path id="パス_76865" data-name="パス 76865" d="M1672.443,295.968a2.514,2.514,0,0,0-3.226,2.225,1.787,1.787,0,0,0,.34.346,3.241,3.241,0,0,0,4.6-.785A2.513,2.513,0,0,0,1672.443,295.968Z" transform="translate(-1669.216 -295.863)" fill="#e5aed5"/>
      </g>
      <g id="グループ_6925" data-name="グループ 6925" transform="translate(3.712 2.21)">
        <path id="パス_76866" data-name="パス 76866" d="M1835.338,368.383a.724.724,0,1,0,.488.9A.724.724,0,0,0,1835.338,368.383Z" transform="translate(-1834.408 -368.353)" fill="#fff"/>
      </g>
    </g>
    <g id="グループ_6930" data-name="グループ 6930" transform="translate(1131.473 51.363)">
      <g id="グループ_6927" data-name="グループ 6927" transform="translate(0 0)">
        <circle id="楕円形_445" data-name="楕円形 445" cx="2.518" cy="2.518" r="2.518" transform="translate(0 3.56) rotate(-45)" fill="#b9a2ce"/>
      </g>
      <g id="グループ_6928" data-name="グループ 6928" transform="translate(1.043 1.043)">
        <path id="パス_76867" data-name="パス 76867" d="M1448.57,424.829a2.515,2.515,0,0,0-2.46,3.051,1.785,1.785,0,0,0,.425.235,3.241,3.241,0,0,0,4.191-2.064A2.514,2.514,0,0,0,1448.57,424.829Z" transform="translate(-1446.052 -424.829)" fill="#e5aed5"/>
      </g>
      <g id="グループ_6929" data-name="グループ 6929" transform="translate(3.468 1.958)">
        <circle id="楕円形_446" data-name="楕円形 446" cx="0.724" cy="0.724" r="0.724" transform="translate(0 0.06) rotate(-2.382)" fill="#fff"/>
      </g>
    </g>
    <g id="グループ_6934" data-name="グループ 6934" transform="translate(1128.137 54.258)">
      <g id="グループ_6931" data-name="グループ 6931" transform="translate(0 0)">
        <circle id="楕円形_447" data-name="楕円形 447" cx="2.518" cy="2.518" r="2.518" transform="translate(0 3.56) rotate(-45)" fill="#b9a2ce"/>
      </g>
      <g id="グループ_6932" data-name="グループ 6932" transform="translate(1.042 1.043)">
        <path id="パス_76868" data-name="パス 76868" d="M1240.846,604.6a2.515,2.515,0,0,0-1.624,3.567,1.79,1.79,0,0,0,.47.122,3.241,3.241,0,0,0,3.547-3.041A2.514,2.514,0,0,0,1240.846,604.6Z" transform="translate(-1238.954 -604.523)" fill="#e5aed5"/>
      </g>
      <g id="グループ_6933" data-name="グループ 6933" transform="translate(3.265 1.849)">
        <path id="パス_76869" data-name="パス 76869" d="M1377.491,654.612a.724.724,0,1,0,.881.521A.724.724,0,0,0,1377.491,654.612Z" transform="translate(-1376.947 -654.59)" fill="#fff"/>
      </g>
    </g>
    <g id="グループ_6938" data-name="グループ 6938" transform="translate(1127.507 58.727)">
      <g id="グループ_6935" data-name="グループ 6935" transform="translate(0 0)">
        <circle id="楕円形_448" data-name="楕円形 448" cx="2.518" cy="2.518" r="2.518" transform="translate(0 3.56) rotate(-45)" fill="#53588d"/>
      </g>
      <g id="グループ_6936" data-name="グループ 6936" transform="translate(1.042 1.043)">
        <path id="パス_76870" data-name="パス 76870" d="M1201.779,881.984a2.515,2.515,0,0,0-1.624,3.567,1.787,1.787,0,0,0,.47.122,3.241,3.241,0,0,0,3.546-3.041A2.514,2.514,0,0,0,1201.779,881.984Z" transform="translate(-1199.887 -881.905)" fill="#9271b4"/>
      </g>
      <g id="グループ_6937" data-name="グループ 6937" transform="translate(2.966 1.55)">
        <circle id="楕円形_449" data-name="楕円形 449" cx="0.724" cy="0.724" r="0.724" transform="matrix(0.684, -0.729, 0.729, 0.684, 0, 1.056)" fill="#fff"/>
      </g>
    </g>
    <g id="グループ_6942" data-name="グループ 6942" transform="translate(1127.381 63.322)">
      <g id="グループ_6939" data-name="グループ 6939" transform="translate(0 0)">
        <circle id="楕円形_450" data-name="楕円形 450" cx="2.518" cy="2.518" r="2.518" transform="translate(0 3.56) rotate(-45)" fill="#b9a2ce"/>
      </g>
      <g id="グループ_6940" data-name="グループ 6940" transform="translate(1.042 1.043)">
        <path id="パス_76871" data-name="パス 76871" d="M1193.965,1167.179a2.515,2.515,0,0,0-1.624,3.567,1.787,1.787,0,0,0,.47.122,3.241,3.241,0,0,0,3.546-3.041A2.514,2.514,0,0,0,1193.965,1167.179Z" transform="translate(-1192.073 -1167.1)" fill="#e5aed5"/>
      </g>
      <g id="グループ_6941" data-name="グループ 6941" transform="translate(3.265 1.849)">
        <path id="パス_76872" data-name="パス 76872" d="M1330.61,1217.19a.724.724,0,1,0,.881.521A.724.724,0,0,0,1330.61,1217.19Z" transform="translate(-1330.066 -1217.167)" fill="#fff"/>
      </g>
    </g>
    <g id="グループ_6946" data-name="グループ 6946" transform="translate(1129.27 67.476)">
      <g id="グループ_6943" data-name="グループ 6943" transform="translate(0 0)">
        <circle id="楕円形_451" data-name="楕円形 451" cx="2.518" cy="2.518" r="2.518" transform="translate(0 3.56) rotate(-45)" fill="#b9a2ce"/>
      </g>
      <g id="グループ_6944" data-name="グループ 6944" transform="translate(1.042 1.043)">
        <path id="パス_76873" data-name="パス 76873" d="M1311.169,1425.027a2.515,2.515,0,0,0-1.624,3.567,1.778,1.778,0,0,0,.47.122,3.241,3.241,0,0,0,3.546-3.041A2.514,2.514,0,0,0,1311.169,1425.027Z" transform="translate(-1309.277 -1424.948)" fill="#e5aed5"/>
      </g>
      <g id="グループ_6945" data-name="グループ 6945" transform="translate(3.265 1.849)">
        <path id="パス_76874" data-name="パス 76874" d="M1447.813,1475.039a.724.724,0,1,0,.881.521A.724.724,0,0,0,1447.813,1475.039Z" transform="translate(-1447.268 -1475.016)" fill="#fff"/>
      </g>
    </g>
    <g id="グループ_6950" data-name="グループ 6950" transform="translate(1132.291 70.623)">
      <g id="グループ_6947" data-name="グループ 6947" transform="translate(0 0)">
        <circle id="楕円形_452" data-name="楕円形 452" cx="2.518" cy="2.518" r="2.518" transform="translate(0 3.56) rotate(-45)" fill="#b9a2ce"/>
      </g>
      <g id="グループ_6948" data-name="グループ 6948" transform="translate(1.042 1.043)">
        <path id="パス_76875" data-name="パス 76875" d="M1498.695,1620.366a2.515,2.515,0,0,0-1.624,3.567,1.776,1.776,0,0,0,.47.122,3.241,3.241,0,0,0,3.546-3.041A2.513,2.513,0,0,0,1498.695,1620.366Z" transform="translate(-1496.803 -1620.287)" fill="#e5aed5"/>
      </g>
      <g id="グループ_6949" data-name="グループ 6949" transform="translate(3.265 1.849)">
        <path id="パス_76876" data-name="パス 76876" d="M1635.339,1670.377a.724.724,0,1,0,.881.521A.724.724,0,0,0,1635.339,1670.377Z" transform="translate(-1634.795 -1670.354)" fill="#fff"/>
      </g>
    </g>
    <g id="グループ_6954" data-name="グループ 6954" transform="translate(1135.879 73.581)">
      <g id="グループ_6951" data-name="グループ 6951" transform="translate(0)">
        <circle id="楕円形_453" data-name="楕円形 453" cx="2.518" cy="2.518" r="2.518" transform="translate(0 3.56) rotate(-45)" fill="#b9a2ce"/>
      </g>
      <g id="グループ_6952" data-name="グループ 6952" transform="translate(1.042 1.043)">
        <path id="パス_76877" data-name="パス 76877" d="M1721.381,1803.985a2.515,2.515,0,0,0-1.624,3.567,1.789,1.789,0,0,0,.47.122,3.241,3.241,0,0,0,3.546-3.041A2.513,2.513,0,0,0,1721.381,1803.985Z" transform="translate(-1719.489 -1803.906)" fill="#e5aed5"/>
      </g>
      <g id="グループ_6953" data-name="グループ 6953" transform="translate(3.087 1.67)">
        <circle id="楕円形_454" data-name="楕円形 454" cx="0.724" cy="0.724" r="0.724" transform="translate(0 1.385) rotate(-73.134)" fill="#fff"/>
      </g>
    </g>
    <g id="グループ_6958" data-name="グループ 6958" transform="translate(1168.047 62.368)">
      <g id="グループ_6955" data-name="グループ 6955" transform="translate(0 0)">
        <circle id="楕円形_455" data-name="楕円形 455" cx="2.518" cy="2.518" r="2.518" transform="translate(0 3.56) rotate(-45)" fill="#b9a2ce"/>
      </g>
      <g id="グループ_6956" data-name="グループ 6956" transform="translate(1.042 1.043)">
        <path id="パス_76878" data-name="パス 76878" d="M3718.093,1107.982a2.516,2.516,0,0,0-1.624,3.567,1.792,1.792,0,0,0,.47.122,3.241,3.241,0,0,0,3.546-3.041A2.513,2.513,0,0,0,3718.093,1107.982Z" transform="translate(-3716.201 -1107.903)" fill="#e5aed5"/>
      </g>
      <g id="グループ_6957" data-name="グループ 6957" transform="translate(3.265 1.849)">
        <path id="パス_76879" data-name="パス 76879" d="M3854.737,1157.992a.724.724,0,1,0,.881.521A.724.724,0,0,0,3854.737,1157.992Z" transform="translate(-3854.193 -1157.969)" fill="#fff"/>
      </g>
    </g>
    <g id="グループ_6962" data-name="グループ 6962" transform="translate(1164.774 53.494)">
      <g id="グループ_6959" data-name="グループ 6959" transform="translate(0 0)">
        <circle id="楕円形_456" data-name="楕円形 456" cx="2.518" cy="2.518" r="2.518" transform="translate(0 3.56) rotate(-45)" fill="#b9a2ce"/>
      </g>
      <g id="グループ_6960" data-name="グループ 6960" transform="translate(1.046 1.043)">
        <path id="パス_76880" data-name="パス 76880" d="M3513.79,557.955a.634.634,0,0,0-.1.133,2.7,2.7,0,0,0-.153,2.6,1.789,1.789,0,0,0,.47.122,3.241,3.241,0,0,0,3.546-3.041A2.585,2.585,0,0,0,3513.79,557.955Z" transform="translate(-3513.275 -557.046)" fill="#e5aed5"/>
      </g>
      <g id="グループ_6961" data-name="グループ 6961" transform="translate(3.265 1.849)">
        <path id="パス_76881" data-name="パス 76881" d="M3651.584,607.135a.724.724,0,1,0,.881.521A.724.724,0,0,0,3651.584,607.135Z" transform="translate(-3651.04 -607.113)" fill="#fff"/>
      </g>
    </g>
    <g id="グループ_6966" data-name="グループ 6966" transform="translate(1167.229 57.711)">
      <g id="グループ_6963" data-name="グループ 6963" transform="translate(0 0)">
        <circle id="楕円形_457" data-name="楕円形 457" cx="2.518" cy="2.518" r="2.518" transform="translate(0 3.56) rotate(-45)" fill="#53588d"/>
      </g>
      <g id="グループ_6964" data-name="グループ 6964" transform="translate(1.046 1.043)">
        <path id="パス_76882" data-name="パス 76882" d="M3666.154,819.71a.624.624,0,0,0-.1.133,2.7,2.7,0,0,0-.153,2.6,1.787,1.787,0,0,0,.47.122,3.241,3.241,0,0,0,3.546-3.041A2.585,2.585,0,0,0,3666.154,819.71Z" transform="translate(-3665.64 -818.801)" fill="#9271b4"/>
      </g>
      <g id="グループ_6965" data-name="グループ 6965" transform="translate(3.265 1.849)">
        <path id="パス_76883" data-name="パス 76883" d="M3803.949,868.891a.724.724,0,1,0,.881.521A.724.724,0,0,0,3803.949,868.891Z" transform="translate(-3803.405 -868.868)" fill="#fff"/>
      </g>
    </g>
    <g id="グループ_6970" data-name="グループ 6970" transform="translate(1162.418 51.2)">
      <g id="グループ_6967" data-name="グループ 6967" transform="translate(0 0)">
        <circle id="楕円形_458" data-name="楕円形 458" cx="2.518" cy="2.518" r="2.518" fill="#b9a2ce"/>
      </g>
      <g id="グループ_6968" data-name="グループ 6968" transform="translate(0.003)">
        <path id="パス_76884" data-name="パス 76884" d="M3302.823,350.9a.623.623,0,0,0-.1.133,2.7,2.7,0,0,0-.153,2.6,1.784,1.784,0,0,0,.47.122,3.241,3.241,0,0,0,3.546-3.041A2.586,2.586,0,0,0,3302.823,350.9Z" transform="translate(-3302.308 -349.986)" fill="#e5aed5"/>
      </g>
      <g id="グループ_6969" data-name="グループ 6969" transform="translate(2.223 0.807)">
        <path id="パス_76885" data-name="パス 76885" d="M3440.618,400.076a.724.724,0,1,0,.881.521A.724.724,0,0,0,3440.618,400.076Z" transform="translate(-3440.074 -400.053)" fill="#fff"/>
      </g>
    </g>
    <g id="グループ_6974" data-name="グループ 6974" transform="translate(1143.919 46.308)">
      <g id="グループ_6971" data-name="グループ 6971" transform="translate(0 0)">
        <circle id="楕円形_459" data-name="楕円形 459" cx="2.518" cy="2.518" r="2.518" transform="translate(0 3.56) rotate(-45)" fill="#b9a2ce"/>
      </g>
      <g id="グループ_6972" data-name="グループ 6972" transform="translate(1.046 1.043)">
        <path id="パス_76886" data-name="パス 76886" d="M2219.295,111.928a.615.615,0,0,0-.1.133,2.7,2.7,0,0,0-.153,2.6,1.789,1.789,0,0,0,.47.122,3.241,3.241,0,0,0,3.547-3.041A2.585,2.585,0,0,0,2219.295,111.928Z" transform="translate(-2218.78 -111.019)" fill="#e5aed5"/>
      </g>
      <g id="グループ_6973" data-name="グループ 6973" transform="translate(3.265 1.849)">
        <path id="パス_76887" data-name="パス 76887" d="M2357.09,161.109a.724.724,0,1,0,.881.521A.724.724,0,0,0,2357.09,161.109Z" transform="translate(-2356.546 -161.087)" fill="#fff"/>
      </g>
    </g>
    <g id="グループ_6978" data-name="グループ 6978" transform="translate(1147.979 46.308)">
      <g id="グループ_6975" data-name="グループ 6975" transform="translate(0 0)">
        <circle id="楕円形_460" data-name="楕円形 460" cx="2.518" cy="2.518" r="2.518" transform="translate(0 3.56) rotate(-45)" fill="#b9a2ce"/>
      </g>
      <g id="グループ_6976" data-name="グループ 6976" transform="translate(1.046 1.043)">
        <path id="パス_76888" data-name="パス 76888" d="M2471.3,111.928a.632.632,0,0,0-.1.133,2.7,2.7,0,0,0-.153,2.6,1.78,1.78,0,0,0,.47.122,3.24,3.24,0,0,0,3.546-3.041A2.585,2.585,0,0,0,2471.3,111.928Z" transform="translate(-2470.784 -111.019)" fill="#e5aed5"/>
      </g>
      <g id="グループ_6977" data-name="グループ 6977" transform="translate(3.265 1.849)">
        <path id="パス_76889" data-name="パス 76889" d="M2609.093,161.109a.724.724,0,1,0,.881.521A.724.724,0,0,0,2609.093,161.109Z" transform="translate(-2608.549 -161.087)" fill="#fff"/>
      </g>
    </g>
    <g id="グループ_6982" data-name="グループ 6982" transform="translate(1152.49 46.759)">
      <g id="グループ_6979" data-name="グループ 6979" transform="translate(0 0)">
        <circle id="楕円形_461" data-name="楕円形 461" cx="2.518" cy="2.518" r="2.518" transform="translate(0 3.56) rotate(-45)" fill="#b9a2ce"/>
      </g>
      <g id="グループ_6980" data-name="グループ 6980" transform="translate(1.046 1.043)">
        <path id="パス_76890" data-name="パス 76890" d="M2751.3,139.929a.621.621,0,0,0-.1.133,2.7,2.7,0,0,0-.153,2.6,1.783,1.783,0,0,0,.47.122,3.241,3.241,0,0,0,3.546-3.041A2.585,2.585,0,0,0,2751.3,139.929Z" transform="translate(-2750.788 -139.02)" fill="#e5aed5"/>
      </g>
      <g id="グループ_6981" data-name="グループ 6981" transform="translate(3.131 1.715)">
        <circle id="楕円形_462" data-name="楕円形 462" cx="0.724" cy="0.724" r="0.724" transform="matrix(0.208, -0.978, 0.978, 0.208, 0, 1.416)" fill="#fff"/>
      </g>
    </g>
    <g id="グループ_6986" data-name="グループ 6986" transform="translate(1157.032 48.269)">
      <g id="グループ_6983" data-name="グループ 6983" transform="translate(0 0)">
        <circle id="楕円形_463" data-name="楕円形 463" cx="2.518" cy="2.518" r="2.518" transform="translate(0 3.56) rotate(-45)" fill="#b9a2ce"/>
      </g>
      <g id="グループ_6984" data-name="グループ 6984" transform="translate(1.046 1.043)">
        <path id="パス_76891" data-name="パス 76891" d="M3033.255,233.692a.614.614,0,0,0-.1.133,2.7,2.7,0,0,0-.153,2.6,1.787,1.787,0,0,0,.47.122,3.241,3.241,0,0,0,3.546-3.041A2.585,2.585,0,0,0,3033.255,233.692Z" transform="translate(-3032.74 -232.783)" fill="#e5aed5"/>
      </g>
      <g id="グループ_6985" data-name="グループ 6985" transform="translate(3.265 1.849)">
        <path id="パス_76892" data-name="パス 76892" d="M3171.05,282.872a.724.724,0,1,0,.881.521A.724.724,0,0,0,3171.05,282.872Z" transform="translate(-3170.506 -282.85)" fill="#fff"/>
      </g>
    </g>
    <g id="グループ_6990" data-name="グループ 6990" transform="translate(1165.907 66.585)">
      <g id="グループ_6987" data-name="グループ 6987" transform="translate(0 0)">
        <circle id="楕円形_464" data-name="楕円形 464" cx="2.518" cy="2.518" r="2.518" transform="translate(0 3.56) rotate(-45)" fill="#b9a2ce"/>
      </g>
      <g id="グループ_6988" data-name="グループ 6988" transform="translate(1.042 1.043)">
        <path id="パス_76893" data-name="パス 76893" d="M3585.263,1369.736a2.517,2.517,0,0,0-1.624,3.567,1.785,1.785,0,0,0,.47.122,3.241,3.241,0,0,0,3.547-3.041A2.514,2.514,0,0,0,3585.263,1369.736Z" transform="translate(-3583.371 -1369.657)" fill="#e5aed5"/>
      </g>
      <g id="グループ_6989" data-name="グループ 6989" transform="translate(3.265 1.849)">
        <path id="パス_76894" data-name="パス 76894" d="M3721.906,1419.747a.724.724,0,1,0,.881.521A.724.724,0,0,0,3721.906,1419.747Z" transform="translate(-3721.362 -1419.724)" fill="#fff"/>
      </g>
    </g>
    <g id="グループ_6994" data-name="グループ 6994" transform="translate(1162.319 69.544)">
      <g id="グループ_6991" data-name="グループ 6991" transform="translate(0 0)">
        <circle id="楕円形_465" data-name="楕円形 465" cx="2.518" cy="2.518" r="2.518" transform="translate(0 3.56) rotate(-45)" fill="#b9a2ce"/>
      </g>
      <g id="グループ_6992" data-name="グループ 6992" transform="translate(1.042 1.043)">
        <path id="パス_76895" data-name="パス 76895" d="M3362.575,1553.355a2.517,2.517,0,0,0-1.624,3.567,1.8,1.8,0,0,0,.47.122,3.241,3.241,0,0,0,3.547-3.041A2.514,2.514,0,0,0,3362.575,1553.355Z" transform="translate(-3360.683 -1553.276)" fill="#e5aed5"/>
      </g>
      <g id="グループ_6993" data-name="グループ 6993" transform="translate(3.265 1.849)">
        <path id="パス_76896" data-name="パス 76896" d="M3499.22,1603.366a.724.724,0,1,0,.881.521A.724.724,0,0,0,3499.22,1603.366Z" transform="translate(-3498.676 -1603.343)" fill="#fff"/>
      </g>
    </g>
    <g id="グループ_6998" data-name="グループ 6998" transform="translate(1158.669 72.439)">
      <g id="グループ_6995" data-name="グループ 6995" transform="translate(0 0)">
        <circle id="楕円形_466" data-name="楕円形 466" cx="2.518" cy="2.518" r="2.518" transform="translate(0 3.56) rotate(-45)" fill="#b9a2ce"/>
      </g>
      <g id="グループ_6996" data-name="グループ 6996" transform="translate(1.042 1.043)">
        <path id="パス_76897" data-name="パス 76897" d="M3135.982,1733.068a2.516,2.516,0,0,0-1.624,3.567,1.784,1.784,0,0,0,.47.122,3.24,3.24,0,0,0,3.546-3.041A2.513,2.513,0,0,0,3135.982,1733.068Z" transform="translate(-3134.09 -1732.989)" fill="#e5aed5"/>
      </g>
      <g id="グループ_6997" data-name="グループ 6997" transform="translate(2.999 1.583)">
        <circle id="楕円形_467" data-name="楕円形 467" cx="0.724" cy="0.724" r="0.724" transform="translate(0 0.732) rotate(-30.363)" fill="#fff"/>
      </g>
    </g>
    <g id="グループ_7002" data-name="グループ 7002" transform="translate(1154.326 74.453)">
      <g id="グループ_6999" data-name="グループ 6999" transform="translate(0 0)">
        <circle id="楕円形_468" data-name="楕円形 468" cx="2.518" cy="2.518" r="2.518" transform="translate(0 3.56) rotate(-45)" fill="#b9a2ce"/>
      </g>
      <g id="グループ_7000" data-name="グループ 7000" transform="translate(1.042 1.043)">
        <path id="パス_76898" data-name="パス 76898" d="M2866.414,1858.085a2.515,2.515,0,0,0-1.624,3.567,1.777,1.777,0,0,0,.47.122,3.241,3.241,0,0,0,3.546-3.041A2.514,2.514,0,0,0,2866.414,1858.085Z" transform="translate(-2864.522 -1858.006)" fill="#e5aed5"/>
      </g>
      <g id="グループ_7001" data-name="グループ 7001" transform="translate(3.265 1.849)">
        <path id="パス_76899" data-name="パス 76899" d="M3003.058,1908.1a.724.724,0,1,0,.881.521A.724.724,0,0,0,3003.058,1908.1Z" transform="translate(-3002.514 -1908.073)" fill="#fff"/>
      </g>
    </g>
    <g id="グループ_7006" data-name="グループ 7006" transform="translate(1149.605 75.397)">
      <g id="グループ_7003" data-name="グループ 7003" transform="translate(0 0)">
        <circle id="楕円形_469" data-name="楕円形 469" cx="2.518" cy="2.518" r="2.518" transform="translate(0 3.56) rotate(-45)" fill="#b9a2ce"/>
      </g>
      <g id="グループ_7004" data-name="グループ 7004" transform="translate(1.042 1.043)">
        <path id="パス_76900" data-name="パス 76900" d="M2573.405,1916.686a2.515,2.515,0,0,0-1.624,3.567,1.784,1.784,0,0,0,.47.122,3.241,3.241,0,0,0,3.546-3.041A2.514,2.514,0,0,0,2573.405,1916.686Z" transform="translate(-2571.513 -1916.607)" fill="#e5aed5"/>
      </g>
      <g id="グループ_7005" data-name="グループ 7005" transform="translate(2.983 1.567)">
        <circle id="楕円形_470" data-name="楕円形 470" cx="0.724" cy="0.724" r="0.724" transform="translate(0 1.196) rotate(-55.691)" fill="#fff"/>
      </g>
    </g>
    <g id="グループ_7010" data-name="グループ 7010" transform="translate(1141.452 75.946)">
      <g id="グループ_7007" data-name="グループ 7007" transform="translate(0.001 0)">
        <circle id="楕円形_471" data-name="楕円形 471" cx="2.518" cy="2.518" r="2.518" fill="#b9a2ce"/>
      </g>
      <g id="グループ_7008" data-name="グループ 7008" transform="translate(0)">
        <path id="パス_76901" data-name="パス 76901" d="M2002.671,1886.028a2.518,2.518,0,0,0-1.812,3.065,2.549,2.549,0,0,0,.189.5,1.79,1.79,0,0,0,.47.122,3.241,3.241,0,0,0,3.547-3.041A2.514,2.514,0,0,0,2002.671,1886.028Z" transform="translate(-2000.778 -1885.949)" fill="#e5aed5"/>
      </g>
      <g id="グループ_7009" data-name="グループ 7009" transform="translate(2.223 0.807)">
        <path id="パス_76902" data-name="パス 76902" d="M2139.314,1936.039a.724.724,0,1,0,.881.521A.724.724,0,0,0,2139.314,1936.039Z" transform="translate(-2138.77 -1936.016)" fill="#fff"/>
      </g>
    </g>
    <g id="グループ_7014" data-name="グループ 7014" transform="translate(1144.885 75.649)">
      <g id="グループ_7011" data-name="グループ 7011" transform="translate(0 0)">
        <circle id="楕円形_472" data-name="楕円形 472" cx="2.518" cy="2.518" r="2.518" transform="translate(0 3.56) rotate(-45)" fill="#53588d"/>
      </g>
      <g id="グループ_7012" data-name="グループ 7012" transform="translate(1.042 1.043)">
        <path id="パス_76903" data-name="パス 76903" d="M2280.4,1932.314a2.515,2.515,0,0,0-1.624,3.567,1.784,1.784,0,0,0,.47.122,3.241,3.241,0,0,0,3.546-3.041A2.514,2.514,0,0,0,2280.4,1932.314Z" transform="translate(-2278.504 -1932.234)" fill="#9271b4"/>
      </g>
      <g id="グループ_7013" data-name="グループ 7013" transform="translate(3.265 1.849)">
        <path id="パス_76904" data-name="パス 76904" d="M2417.04,1982.325a.724.724,0,1,0,.881.521A.724.724,0,0,0,2417.04,1982.325Z" transform="translate(-2416.496 -1982.302)" fill="#fff"/>
      </g>
    </g>
    <g id="グループ_7015" data-name="グループ 7015" transform="translate(1145.765 80.634)">
      <path id="パス_76905" data-name="パス 76905" d="M2270.8,2176.99a3.116,3.116,0,0,0-1.816.238.327.327,0,0,0-.2.176c-.033.111.05.22.077.333a.863.863,0,0,1-.179.577,1.988,1.988,0,0,0-.2,1.283.373.373,0,0,0,.081.2,1.148,1.148,0,0,1,.119.106c.043.06.036.143.061.213.056.163.256.22.427.241a8.054,8.054,0,0,0,1.226.025.8.8,0,0,0,.327-.057.671.671,0,0,0,.283-.665,2.3,2.3,0,0,1-.011-.762,2.77,2.77,0,0,1,.192-.408C2271.4,2178.037,2271.434,2177.1,2270.8,2176.99Z" transform="translate(-2268.456 -2176.946)" fill="#8879b8"/>
    </g>
    <g id="グループ_7016" data-name="グループ 7016" transform="translate(1144.068 83.311)">
      <path id="パス_76906" data-name="パス 76906" d="M2165.859,2343.367c-.267-.237-.5-.36-.782-.191a3.867,3.867,0,0,0-1.064,1.177l-.519.9a2.612,2.612,0,0,0-.312.688.885.885,0,0,0,.113.725.541.541,0,0,0,.67.176.872.872,0,0,0,.271-.3l1.528-2.3C2165.936,2343.989,2166.133,2343.611,2165.859,2343.367Z" transform="translate(-2163.153 -2343.098)" fill="#6c3d9a"/>
    </g>
    <g id="グループ_7017" data-name="グループ 7017" transform="translate(1146.804 83.348)">
      <path id="パス_76907" data-name="パス 76907" d="M2334.244,2346.15c-.037-.308-.132-.724-.5-.732s-.615.051-.72.362a3.879,3.879,0,0,0-.047,1.586l.19,1.025a2.617,2.617,0,0,0,.209.725.884.884,0,0,0,.556.479.542.542,0,0,0,.625-.3.877.877,0,0,0,.014-.4Q2334.408,2347.522,2334.244,2346.15Z" transform="translate(-2332.92 -2345.417)" fill="#6c3d9a"/>
    </g>
    <g id="グループ_7018" data-name="グループ 7018" transform="translate(1143.484 85.673)">
      <path id="パス_76908" data-name="パス 76908" d="M2128.519,2490.1a.783.783,0,0,0-1.082-.263.788.788,0,0,0-.487.269,1.213,1.213,0,0,0,.007.985,1.809,1.809,0,0,0,1,.5.647.647,0,0,0,.19.026.7.7,0,0,0,.267-.092c.244-.123.519-.287.553-.558a.849.849,0,0,0-.237-.581Z" transform="translate(-2126.848 -2489.758)" fill="#8879b8"/>
    </g>
    <g id="グループ_7019" data-name="グループ 7019" transform="translate(1146.722 86.023)">
      <path id="パス_76909" data-name="パス 76909" d="M2329.8,2511.541a1.156,1.156,0,0,0-.7-.062,1.883,1.883,0,0,0-1.128.535.279.279,0,0,0-.083.152.307.307,0,0,0,.044.159l.25.516a.357.357,0,0,0,.414.247,3.935,3.935,0,0,0,1.171-.165,1.5,1.5,0,0,0,.233-.078.75.75,0,0,0,.187-.125.342.342,0,0,0,.088-.113.408.408,0,0,0,.016-.214A1.067,1.067,0,0,0,2329.8,2511.541Z" transform="translate(-2327.887 -2511.454)" fill="#8879b8"/>
    </g>
    <g id="グループ_7020" data-name="グループ 7020" transform="translate(1135.345 86.587)">
      <path id="パス_76910" data-name="パス 76910" d="M1629.829,2546.671a3.093,3.093,0,0,0-.947,1.121c-2.679,4.456-5.377,8.953-7.068,13.869a1.207,1.207,0,0,0-.055.932c.29.559,1.158.361,1.7.686.437.262.593.832.993,1.147a2.246,2.246,0,0,0,1.891.132l.554-.127a1.4,1.4,0,0,1,.883-.01c.252.113.507.38.75.249a.9.9,0,0,0,.236-.27.748.748,0,0,1,1.188.108,42.977,42.977,0,0,0,.779-5.861q.1-1.152.2-2.3l.469-5.425C1631.479,2550,1631.913,2545.4,1629.829,2546.671Z" transform="translate(-1621.684 -2546.451)" fill="#6c3d9a"/>
    </g>
    <g id="グループ_7021" data-name="グループ 7021" transform="translate(1146.887 87.062)">
      <path id="パス_76911" data-name="パス 76911" d="M2339.789,2576.124c-.111-.24-.979-.2-1.121.188a12.747,12.747,0,0,0-.2,2.946q-.2,2.352-.293,4.712-.182,4.756.094,9.515c.658-.153,1.33.215,2,.187.834-.035,1.632-.67,2.434-.437a3.621,3.621,0,0,0,.735.243c1.041.07,1.937-1.2,2.979-1.242a21.833,21.833,0,0,0-1.039-3.493C2343.492,2584.52,2341.76,2580.4,2339.789,2576.124Z" transform="translate(-2338.099 -2575.974)" fill="#6c3d9a"/>
    </g>
    <g id="グループ_7022" data-name="グループ 7022" transform="translate(1149.378 91.77)">
      <path id="パス_76912" data-name="パス 76912" d="M2496.3,2879.032a.226.226,0,0,1-.215-.157l-3.336-10.385a.225.225,0,1,1,.429-.138l3.336,10.385a.225.225,0,0,1-.146.284A.221.221,0,0,1,2496.3,2879.032Z" transform="translate(-2492.742 -2868.195)" fill="#5f2890"/>
    </g>
    <g id="グループ_7023" data-name="グループ 7023" transform="translate(1149.158 93.721)">
      <path id="パス_76913" data-name="パス 76913" d="M2480.678,2996.271a.226.226,0,0,1-.22-.178l-1.385-6.514a.226.226,0,1,1,.441-.094L2480.9,2996a.225.225,0,0,1-.174.267A.206.206,0,0,1,2480.678,2996.271Z" transform="translate(-2479.068 -2989.305)" fill="#5f2890"/>
    </g>
    <g id="グループ_7024" data-name="グループ 7024" transform="translate(1147.679 95.138)">
      <path id="パス_76914" data-name="パス 76914" d="M2387.794,3084.547a.226.226,0,0,1-.225-.216l-.307-6.884a.226.226,0,1,1,.451-.02l.307,6.884a.226.226,0,0,1-.215.235Z" transform="translate(-2387.261 -3077.211)" fill="#5f2890"/>
    </g>
    <g id="グループ_7025" data-name="グループ 7025" transform="translate(1142.833 91.707)">
      <path id="パス_76915" data-name="パス 76915" d="M2086.664,2875.064h-.023a.226.226,0,0,1-.2-.248l1.07-10.322a.225.225,0,0,1,.448.046l-1.07,10.322A.226.226,0,0,1,2086.664,2875.064Z" transform="translate(-2086.438 -2864.291)" fill="#5f2890"/>
    </g>
    <g id="グループ_7026" data-name="グループ 7026" transform="translate(1138.332 89.441)">
      <path id="パス_76916" data-name="パス 76916" d="M1807.326,2736.3a.226.226,0,0,1-.213-.3l4.249-12.211a.225.225,0,1,1,.426.148l-4.248,12.211A.226.226,0,0,1,1807.326,2736.3Z" transform="translate(-1807.101 -2723.642)" fill="#5f2890"/>
    </g>
    <g id="グループ_7027" data-name="グループ 7027" transform="translate(1136.885 92.211)">
      <path id="パス_76917" data-name="パス 76917" d="M1717.47,2904.869a.22.22,0,0,1-.087-.018.225.225,0,0,1-.121-.295l3.713-8.875a.226.226,0,0,1,.416.175l-3.714,8.874A.225.225,0,0,1,1717.47,2904.869Z" transform="translate(-1717.245 -2895.543)" fill="#5f2890"/>
    </g>
    <g id="グループ_7028" data-name="グループ 7028" transform="translate(1135.265 101.932)">
      <path id="パス_76918" data-name="パス 76918" d="M1623.98,3500.208c-.5-.153-1.076.154-1.548-.07s-.674-.905-1.192-.958a1.494,1.494,0,0,1-.407-.029c-.087-.034-.155-.105-.24-.145a.74.74,0,0,0-.287-.047l-1.6-.045a2.623,2.623,0,0,0-1.742.362.641.641,0,0,0-.274.47.843.843,0,0,0,.186.449,3.4,3.4,0,0,0,1.044,1.138,6.178,6.178,0,0,1,.976.5c.159.133.277.31.436.443a2.172,2.172,0,0,0,1.7.243,3.448,3.448,0,0,1,1.162-.027,2.207,2.207,0,0,0,.98.149c.357-.094.6-.47.966-.517.145-.019.292.019.437,0a.612.612,0,0,0,.435-.952A2.4,2.4,0,0,0,1623.98,3500.208Z" transform="translate(-1616.694 -3498.909)" fill="#8879b8"/>
    </g>
    <g id="グループ_7029" data-name="グループ 7029" transform="translate(1147.01 102.348)">
      <path id="パス_76919" data-name="パス 76919" d="M2352.15,3524.775c-.335.087-.649.253-.991.31-.617.1-1.3-.152-1.848.154-.141.079-.26.19-.394.281a3.431,3.431,0,0,1-1.806.378.978.978,0,0,0-.6.164,1.022,1.022,0,0,0-.166.2c-.175.248-.326.268-.5.516a.975.975,0,0,0-.126.587.353.353,0,0,0,.134.139,2.432,2.432,0,0,0,.859.376,5.394,5.394,0,0,0,1.5.032q.611-.038,1.223-.046a1.711,1.711,0,0,1,.55.055c.125.041.24.11.366.15a1.449,1.449,0,0,0,1.281-.375,5.094,5.094,0,0,1,1.115-.823c.32-.133.7-.07.841-.385.036-.081.24-.164.252-.252a1.33,1.33,0,0,0,0-.787A1.882,1.882,0,0,0,2352.15,3524.775Z" transform="translate(-2345.707 -3524.75)" fill="#8879b8"/>
    </g>
    <g id="グループ_7030" data-name="グループ 7030" transform="translate(1137.872 104.257)">
      <path id="パス_76920" data-name="パス 76920" d="M1779.584,3644.093a1.379,1.379,0,0,1-.665-.224,1.671,1.671,0,0,1-.34-.229.226.226,0,0,1,.308-.33,1.294,1.294,0,0,0,.251.164,1.008,1.008,0,0,0,.455.167.714.714,0,0,0,.192-.04,1.878,1.878,0,0,0,.282-.118.225.225,0,0,1,.208.4,2.3,2.3,0,0,1-.35.147,1.123,1.123,0,0,1-.32.062Z" transform="translate(-1778.508 -3643.25)" fill="#6a52a4"/>
    </g>
    <g id="グループ_7031" data-name="グループ 7031" transform="translate(1136.375 102.422)">
      <path id="パス_76921" data-name="パス 76921" d="M1686.808,3530.573l-.027,0a3.213,3.213,0,0,1-.772-.191.806.806,0,0,1-.207-.108.572.572,0,0,1-.012-.876.226.226,0,0,1,.283.351.125.125,0,0,0,0,.166.438.438,0,0,0,.095.046,2.808,2.808,0,0,0,.664.165.225.225,0,0,1-.026.449Z" transform="translate(-1685.592 -3529.346)" fill="#6a52a4"/>
    </g>
    <g id="グループ_7032" data-name="グループ 7032" transform="translate(1140.606 104.024)">
      <path id="パス_76922" data-name="パス 76922" d="M1949.114,3629.451a1.1,1.1,0,0,1-.823-.25.225.225,0,1,1,.324-.314.739.739,0,0,0,.5.112h0a1.059,1.059,0,0,0,.271-.022.2.2,0,0,0,.121-.08.226.226,0,0,1,.4.205.635.635,0,0,1-.4.309,1.4,1.4,0,0,1-.393.039Z" transform="translate(-1948.228 -3628.775)" fill="#6a52a4"/>
    </g>
    <g id="グループ_7033" data-name="グループ 7033" transform="translate(1148.081 104.17)">
      <path id="パス_76923" data-name="パス 76923" d="M2413.656,3638.677a5.848,5.848,0,0,1-1.1-.1.444.444,0,0,1-.325-.2.346.346,0,0,1,.252-.5.225.225,0,0,1,.254.192.223.223,0,0,1,0,.084,5.41,5.41,0,0,0,1.229.071.226.226,0,0,1,.025.45Q2413.821,3638.677,2413.656,3638.677Z" transform="translate(-2412.189 -3637.867)" fill="#6a52a4"/>
    </g>
    <g id="グループ_7034" data-name="グループ 7034" transform="translate(1151.062 104.2)">
      <path id="パス_76924" data-name="パス 76924" d="M2598.235,3640.482h-.026a1.177,1.177,0,0,1-.276-.047,2.123,2.123,0,0,1-.606-.279.226.226,0,0,1,.25-.375,1.661,1.661,0,0,0,.478.219.7.7,0,0,0,.168.031h.013a1.1,1.1,0,0,0,.589-.283.225.225,0,1,1,.268.363A1.505,1.505,0,0,1,2598.235,3640.482Z" transform="translate(-2597.226 -3639.704)" fill="#6a52a4"/>
    </g>
  </g>
</svg>
