<svg xmlns="http://www.w3.org/2000/svg" width="80.569" height="46.818" viewBox="0 0 80.569 46.818">
  <g id="ico_difference_04" transform="translate(0 0)">
    <rect id="長方形_26697" data-name="長方形 26697" width="80.569" height="45.841" transform="translate(0 0)" fill="#fff" opacity="0"/>
    <g id="グループ_4023" data-name="グループ 4023" transform="translate(11.942 1.44)">
      <path id="長方形_1179" data-name="長方形 1179" d="M1.85,0h0A1.85,1.85,0,0,1,3.7,1.85V3.316A1.849,1.849,0,0,1,1.851,5.165h0A1.85,1.85,0,0,1,0,3.316V1.85A1.85,1.85,0,0,1,1.85,0Z" transform="translate(0.233 15.348)"/>
      <path id="パス_431" data-name="パス 431" d="M3770.381,4464.13c0,.31-12.361.559-27.609.559s-27.609-.25-27.609-.559,12.361-.561,27.609-.561S3770.381,4463.82,3770.381,4464.13Z" transform="translate(-3714.341 -4419.311)" fill="#9e9e9f"/>
      <path id="パス_432" data-name="パス 432" d="M3952.419,4217.338h-12.544a2.929,2.929,0,0,1,2.929,2.929v19.777h12.544v-19.777A2.929,2.929,0,0,0,3952.419,4217.338Z" transform="translate(-3898.663 -4217.338)" fill="#397156"/>
      <path id="パス_433" data-name="パス 433" d="M3771.383,4240.044v-19.777a2.929,2.929,0,0,1,2.929-2.929h27.356a2.929,2.929,0,0,1,2.928,2.929v19.777Z" transform="translate(-3760.456 -4217.338)" fill="#47856b"/>
      <rect id="長方形_1180" data-name="長方形 1180" width="12.655" height="7.77" rx="3.885" transform="translate(21.009 7.468)" fill="#fff" opacity="0.4"/>
      <g id="グループ_288" data-name="グループ 288" transform="translate(14.315 5.642)">
        <g id="グループ_285" data-name="グループ 285">
          <path id="パス_434" data-name="パス 434" d="M3818.257,4263.46h-25.483l-.144-.146v-9.727a4.013,4.013,0,0,1,3.967-4.048h17.837a4.013,4.013,0,0,1,3.967,4.048v9.719Zm-24.759-.775h24.037l.108-.11v-8.989a3.245,3.245,0,0,0-3.208-3.274H3796.6a3.245,3.245,0,0,0-3.208,3.274v8.981Z" transform="translate(-3792.199 -4249.392)" fill="#b4b4b5"/>
          <path id="パス_435" data-name="パス 435" d="M3815.861,4262.646h-25.483l-.144-.146v-9.728a4.013,4.013,0,0,1,3.967-4.048h17.837a4.013,4.013,0,0,1,3.968,4.048v9.719Zm-24.759-.776h24.038l.107-.109v-8.988a3.245,3.245,0,0,0-3.208-3.273H3794.2a3.246,3.246,0,0,0-3.208,3.273v8.981Z" transform="translate(-3790.235 -4248.724)" fill="#eeeeef"/>
        </g>
        <g id="グループ_286" data-name="グループ 286" transform="translate(8.388 0.778)">
          <rect id="長方形_1181" data-name="長方形 1181" width="0.239" height="12.396" transform="translate(0.446)" fill="#7a7a7a"/>
          <rect id="長方形_1182" data-name="長方形 1182" width="0.445" height="12.396" fill="#ccc"/>
        </g>
        <g id="グループ_287" data-name="グループ 287" transform="translate(16.49 0.778)">
          <rect id="長方形_1183" data-name="長方形 1183" width="0.239" height="12.396" transform="translate(0.446)" fill="#7a7a7a"/>
          <rect id="長方形_1184" data-name="長方形 1184" width="0.445" height="12.396" fill="#ccc"/>
        </g>
      </g>
      <path id="パス_436" data-name="パス 436" d="M3761.041,4258.285h-40.432l5.745-13.963a3.931,3.931,0,0,1,3.529-1.837H3756.8a2.787,2.787,0,0,1,2.481,2.14C3759.552,4245.781,3761.041,4258.285,3761.041,4258.285Zm-4.786-11.252a1.464,1.464,0,0,0-1.464-1.464h-17.284a1.465,1.465,0,0,0-1.464,1.464v6.847a1.464,1.464,0,0,0,1.464,1.464h17.284a1.464,1.464,0,0,0,1.464-1.464Zm-24.332-2.138h-3.407a1.681,1.681,0,0,0-1.619.945c-.3.605-4.082,10.335-4.568,11.336s.109,1.025.289,1.025,6.559.022,7.411.022.88-.437.9-.7,1.382-11.077,1.483-11.8S3732.134,4244.895,3731.924,4244.895Z" transform="translate(-3718.809 -4237.964)" fill="#3e3a39"/>
      <path id="パス_437" data-name="パス 437" d="M3738.926,4255.894h-3.406a1.682,1.682,0,0,0-1.619.945c-.3.605-4.081,10.335-4.567,11.335s.108,1.025.289,1.025,6.559.022,7.411.022.88-.437.9-.7,1.382-11.076,1.483-11.8S3739.137,4255.894,3738.926,4255.894Z" transform="translate(-3725.811 -4248.964)" fill="#fff" opacity="0.2"/>
      <g id="グループ_289" data-name="グループ 289" transform="translate(15.764 12.316)">
        <path id="パス_438" data-name="パス 438" d="M3815.056,4289.125a.941.941,0,0,1-.928.879h-4.638a.822.822,0,0,1-.83-.879l.426-2.388a.94.94,0,0,1,.927-.878h4.053a.822.822,0,0,1,.83.878Z" transform="translate(-3806.796 -4285.859)" fill="#1a1a1a"/>
        <path id="パス_439" data-name="パス 439" d="M3803.163,4312.5a1.333,1.333,0,0,1,1.244.86h3.2l.08-.54a1.077,1.077,0,0,0-.941-1.113h-7.423a1.121,1.121,0,0,0-1.025.792Z" transform="translate(-3798.294 -4307.058)" fill="#1a1a1a"/>
      </g>
      <g id="グループ_290" data-name="グループ 290" transform="translate(28.491 12.316)">
        <path id="パス_440" data-name="パス 440" d="M3886.855,4289.125a.941.941,0,0,1-.927.879h-4.639a.822.822,0,0,1-.83-.879l.426-2.388a.94.94,0,0,1,.928-.878h4.052a.821.821,0,0,1,.83.878Z" transform="translate(-3878.417 -4285.859)" fill="#1a1a1a"/>
        <path id="パス_441" data-name="パス 441" d="M3877.729,4311.7h-7.424a1.121,1.121,0,0,0-1.05.878l-.153.774h4.732c-.017.327-.029.543-.032.611a.78.78,0,0,1-.464.7h5.059l.272-1.854A1.077,1.077,0,0,0,3877.729,4311.7Z" transform="translate(-3869.102 -4307.058)" fill="#1a1a1a"/>
      </g>
      <path id="パス_442" data-name="パス 442" d="M3907.319,4243.993a2.034,2.034,0,0,0-1.925-1.508h-1.718a2.418,2.418,0,0,0-2.238,2.14c-.141,1.156-.54,13.138-.54,13.138l-.06.764v9.1h4.017a.322.322,0,0,1,.336.313,1.567,1.567,0,0,1,.529-.1c.638,0,1.137.524,1.511,1.313h2.1v-10.868Zm.871,13.328a.762.762,0,0,1-.638.277,8.775,8.775,0,0,0-3.4.623,3.02,3.02,0,0,1-.99.256h-.559a1.067,1.067,0,0,1-.8-.287,1.166,1.166,0,0,1-.262-.9c.029-.647.081-1.91.14-3.375.143-3.5.319-7.852.372-8.292a1.567,1.567,0,0,1,1.454-1.262h2.261a.944.944,0,0,1,.94.818l1.618,11.214A1.186,1.186,0,0,1,3908.19,4257.321Z" transform="translate(-3866.643 -4237.964)" fill="#b4b4b5"/>
      <path id="パス_443" data-name="パス 443" d="M3911.53,4264.966l-1.618-11.214a.946.946,0,0,0-.94-.818h-2.261a1.566,1.566,0,0,0-1.454,1.262c-.053.44-.229,4.794-.372,8.292-.059,1.465-.11,2.728-.14,3.375a1.167,1.167,0,0,0,.262.9,1.065,1.065,0,0,0,.8.287h.559a3.034,3.034,0,0,0,.99-.255,8.763,8.763,0,0,1,3.4-.623.762.762,0,0,0,.638-.276A1.185,1.185,0,0,0,3911.53,4264.966Zm-.443.688a.394.394,0,0,1-.333.127,9.244,9.244,0,0,0-3.53.646,2.792,2.792,0,0,1-.856.231h-.559a.7.7,0,0,1-.522-.166.826.826,0,0,1-.155-.611c.029-.648.08-1.911.14-3.377.134-3.307.318-7.835.37-8.26.1-.812,1.065-.92,1.087-.923h2.242a.564.564,0,0,1,.558.486l1.622,11.233A.847.847,0,0,1,3911.086,4265.653Z" transform="translate(-3869.845 -4246.535)" fill="#231815"/>
      <path id="パス_444" data-name="パス 444" d="M3911.3,4255.576a.563.563,0,0,0-.557-.487H3908.5c-.022,0-.988.11-1.087.923-.052.425-.235,4.954-.37,8.261-.06,1.465-.11,2.729-.14,3.376a.827.827,0,0,0,.154.612.7.7,0,0,0,.522.166h.559a2.788,2.788,0,0,0,.856-.231,9.244,9.244,0,0,1,3.53-.646.4.4,0,0,0,.333-.127.848.848,0,0,0,.064-.613Z" transform="translate(-3871.615 -4248.303)" fill="#fff" opacity="0.2"/>
      <g id="グループ_291" data-name="グループ 291" transform="translate(34.897 6.398)">
        <path id="パス_445" data-name="パス 445" d="M3906.368,4267.046h-.559a1.065,1.065,0,0,1-.8-.287,1.167,1.167,0,0,1-.262-.9c.03-.647.081-1.909.14-3.375.142-3.5.318-7.852.372-8.292a1.566,1.566,0,0,1,1.454-1.262h2.261a.946.946,0,0,1,.94.818l1.618,11.214a1.185,1.185,0,0,1-.138.926.762.762,0,0,1-.638.276,8.763,8.763,0,0,0-3.4.623A3.034,3.034,0,0,1,3906.368,4267.046Zm.361-13.726c-.022,0-.989.111-1.087.923-.052.424-.235,4.953-.37,8.26-.06,1.466-.111,2.729-.14,3.377a.826.826,0,0,0,.155.611.7.7,0,0,0,.522.166h.559a2.792,2.792,0,0,0,.856-.231,9.244,9.244,0,0,1,3.53-.646.394.394,0,0,0,.333-.127.847.847,0,0,0,.064-.613l-1.622-11.233a.564.564,0,0,0-.558-.486Z" transform="translate(-3904.742 -4252.933)" fill="#231815"/>
      </g>
      <g id="グループ_292" data-name="グループ 292" transform="translate(11.202 16.054)">
        <path id="パス_446" data-name="パス 446" d="M3773.715,4308.355a2.552,2.552,0,0,1,2.124-1.054,3.467,3.467,0,0,1,2.425,1.054h.8a4.283,4.283,0,0,0-3.314-1.7,3.071,3.071,0,0,0-2.83,1.7Z" transform="translate(-3772.917 -4306.656)"/>
      </g>
      <g id="グループ_293" data-name="グループ 293" transform="translate(2.995 17.754)">
        <path id="パス_447" data-name="パス 447" d="M3727.293,4318.194c.088.155.331.24.683.24H3756.2c.8,0,1.217-.286,1.251-.851,0-.067.015-.284.032-.611h-11.346a1.332,1.332,0,0,0-1.244-.86h-13.861a3.182,3.182,0,0,0-1.882.86h-1.463c-.157.368-.262.6-.308.678A.567.567,0,0,0,3727.293,4318.194Z" transform="translate(-3727.254 -4316.112)" fill="#1a1a1a"/>
      </g>
      <path id="長方形_1185" data-name="長方形 1185" d="M.956,0H5.315a.956.956,0,0,1,.956.956v0a.956.956,0,0,1-.956.956H.955A.955.955,0,0,1,0,.957v0A.956.956,0,0,1,.956,0Z" transform="translate(16.123 7.371)" fill="#1a1a1a"/>
      <path id="パス_448" data-name="パス 448" d="M3980.786,4397.6c-1.162,0-2.1,2.807-2.1,6.271s.941,6.271,2.1,6.271h2.777c-1.162,0-2.1-2.808-2.1-6.271s.941-6.271,2.1-6.271Z" transform="translate(-3930.495 -4365.201)" fill="#231815"/>
      <path id="長方形_1186" data-name="長方形 1186" d="M.389,0H12.718a.389.389,0,0,1,.389.389v0a.389.389,0,0,1-.389.389H.388A.388.388,0,0,1,0,.39v0A.389.389,0,0,1,.389,0Z" transform="translate(43.19 22.706)" fill="#bebfbf"/>
      <path id="パス_449" data-name="パス 449" d="M3948.114,4344.441h.721a.219.219,0,0,1-.219-.221v-.339a.219.219,0,0,1,.219-.219h-.721Z" transform="translate(-3905.421 -4320.957)" fill="#888"/>
      <path id="長方形_1187" data-name="長方形 1187" d="M.423,0h12.26a.424.424,0,0,1,.424.424v0a.425.425,0,0,1-.425.425H.423A.423.423,0,0,1,0,.425v0A.423.423,0,0,1,.423,0Z" transform="translate(43.19 30.352)" fill="#9e9e9f"/>
      <path id="パス_450" data-name="パス 450" d="M3997.708,4390.911h-1.453c-.425,0-.778.377-1.065.916,0,.009.009.019.013.027.044.083.086.169.127.259h1.773c.858,0,1.6,1.537,1.923,3.737h.369s.257.007.257-.391C3999.652,4394.769,3998.951,4390.911,3997.708,4390.911Z" transform="translate(-3944.035 -4359.712)" fill="#383231"/>
      <path id="パス_451" data-name="パス 451" d="M3998.336,4403.874c0,3.463-.941,6.271-2.1,6.271s-2.1-2.808-2.1-6.271.942-6.271,2.1-6.271S3998.336,4400.41,3998.336,4403.874Z" transform="translate(-3943.167 -4365.201)" fill="#595757"/>
      <path id="パス_452" data-name="パス 452" d="M4002.387,4414.506c0,2.176-.537,3.94-1.2,3.94s-1.2-1.764-1.2-3.94.536-3.94,1.2-3.94S4002.387,4412.331,4002.387,4414.506Z" transform="translate(-3947.973 -4375.834)" fill="#eeeeef"/>
      <path id="パス_453" data-name="パス 453" d="M3759.251,4440.763c.224,2.745,1.053,4.784,2.043,4.784s1.819-2.039,2.043-4.784Z" transform="translate(-3750.505 -4400.604)" fill="#231815"/>
      <path id="パス_454" data-name="パス 454" d="M3746.581,4440.763H3743.8c.224,2.745,1.052,4.784,2.042,4.784h2.777C3747.634,4445.547,3746.8,4443.508,3746.581,4440.763Z" transform="translate(-3737.835 -4400.604)" fill="#3e3a39"/>
      <path id="パス_455" data-name="パス 455" d="M3838.7,4440.763c.224,2.745,1.053,4.784,2.042,4.784s1.818-2.039,2.043-4.784Z" transform="translate(-3815.676 -4400.604)" fill="#231815"/>
      <path id="パス_456" data-name="パス 456" d="M3826.028,4440.763h-2.777c.225,2.745,1.054,4.784,2.043,4.784h2.776C3827.082,4445.547,3826.252,4443.508,3826.028,4440.763Z" transform="translate(-3803.001 -4400.604)" fill="#3e3a39"/>
      <path id="パス_457" data-name="パス 457" d="M3918.814,4403.874c0,3.463-.941,6.271-2.1,6.271s-2.1-2.808-2.1-6.271.941-6.271,2.1-6.271S3918.814,4400.41,3918.814,4403.874Z" transform="translate(-3877.938 -4365.201)" fill="#595757"/>
      <path id="パス_458" data-name="パス 458" d="M3922.863,4414.506c0,2.176-.536,3.94-1.2,3.94s-1.2-1.764-1.2-3.94.537-3.94,1.2-3.94S3922.863,4412.331,3922.863,4414.506Z" transform="translate(-3882.742 -4375.834)" fill="#eeeeef"/>
      <path id="パス_459" data-name="パス 459" d="M3912.385,4392.343c0-3.463.942-6.271,2.1-6.271h-1.776c-.044-.1-.089-.2-.137-.287-.048.092-.094.188-.139.287h0c-.033.075-.065.15-.1.228a11.328,11.328,0,0,0-.7,3.119.388.388,0,0,1-.407.391h-2.863s-.257.008-.257-.391a11.693,11.693,0,0,1,.711-3.119c.315-.8.729-1.43,1.232-1.43l-8.048-.011c-.374-.789-.873-1.3-1.511-1.313-1.337-.025-1.831,1.856-2.219,3.852a18.6,18.6,0,0,1-.936,3.768,5.456,5.456,0,0,1-2,2.272.037.037,0,0,1,0,.007,4.022,4.022,0,0,1-.876.432,4.993,4.993,0,0,0,.955.467c.28,2.48,1.064,4.27,1.991,4.27h2.776c-.871,0-1.619-1.581-1.938-3.833h0a17.538,17.538,0,0,1-.165-2.437c0-3.463.941-6.271,2.1-6.271.5,0,.956.518,1.316,1.382h0a7.65,7.65,0,0,1,.324.967l0,.009c.047.173.09.354.13.542l.006.025q.06.284.11.587a.033.033,0,0,0,0,.006q.05.309.089.634c0,.006,0,.014,0,.021q.037.311.063.636c0,.019,0,.039,0,.059.016.209.029.423.037.641,0,.019,0,.037,0,.057.009.232.014.468.014.708q0,.293-.01.577c0,.079-.007.155-.01.234-.007.134-.011.27-.021.4.029-.041.055-.085.082-.13h4.94a.885.885,0,0,0,.882-.71h1.452c.064,3.29.98,5.9,2.1,5.9h2.776C3913.327,4398.614,3912.385,4395.806,3912.385,4392.343Z" transform="translate(-3861.42 -4353.671)" fill="#231815"/>
      <path id="パス_460" data-name="パス 460" d="M3918.814,4403.874c0,3.463-.941,6.271-2.1,6.271s-2.1-2.808-2.1-6.271.941-6.271,2.1-6.271S3918.814,4400.41,3918.814,4403.874Z" transform="translate(-3877.938 -4365.201)" fill="#595757"/>
      <path id="パス_461" data-name="パス 461" d="M3922.863,4414.506c0,2.176-.536,3.94-1.2,3.94s-1.2-1.764-1.2-3.94.537-3.94,1.2-3.94S3922.863,4412.331,3922.863,4414.506Z" transform="translate(-3882.742 -4375.834)" fill="#eeeeef"/>
      <path id="パス_462" data-name="パス 462" d="M4005.377,4427.1c0,.653-.161,1.182-.36,1.182s-.359-.529-.359-1.182.161-1.182.359-1.182S4005.377,4426.443,4005.377,4427.1Z" transform="translate(-3951.801 -4388.424)" fill="#595757"/>
      <path id="パス_463" data-name="パス 463" d="M3925.851,4427.1c0,.653-.162,1.182-.359,1.182s-.36-.529-.36-1.182.161-1.182.36-1.182S3925.851,4426.443,3925.851,4427.1Z" transform="translate(-3886.57 -4388.424)" fill="#595757"/>
      <path id="パス_464" data-name="パス 464" d="M4001.693,4420.794c-.707,0-1.088-1.689-1.088-3.28s.381-3.282,1.088-3.282,1.088,1.69,1.088,3.282S4002.4,4420.794,4001.693,4420.794Zm0-6.3c-.392,0-.83,1.292-.83,3.023s.438,3.022.83,3.022.83-1.292.83-3.022S4002.084,4414.49,4001.693,4414.49Z" transform="translate(-3948.477 -4378.841)" fill="#231815"/>
      <path id="パス_465" data-name="パス 465" d="M3922.169,4420.794c-.707,0-1.088-1.689-1.088-3.28s.381-3.282,1.088-3.282,1.088,1.69,1.088,3.282S3922.876,4420.794,3922.169,4420.794Zm0-6.3c-.347,0-.83,1.15-.83,3.023s.483,3.022.83,3.022.829-1.149.829-3.022S3922.516,4414.49,3922.169,4414.49Z" transform="translate(-3883.247 -4378.841)" fill="#231815"/>
      <path id="パス_466" data-name="パス 466" d="M3885.271,4393.127s-.688,8.563-1.377,8.563h2.018a5.312,5.312,0,0,0,2.756-2.665c.658-1.372.843-4.1,1.469-5.9Z" transform="translate(-3852.743 -4361.53)" fill="#1a1a1a"/>
      <path id="パス_467" data-name="パス 467" d="M3897.241,4382.372h-4.135l-1.55,1.933h4.865a2.539,2.539,0,0,1,1.156-1.62A.322.322,0,0,0,3897.241,4382.372Z" transform="translate(-3859.029 -4352.708)" fill="#262626"/>
      <path id="パス_468" data-name="パス 468" d="M3710.593,4393.127s-.015,8.563,2.568,8.563h28.582c.689,0,1.377-8.562,1.377-8.562Z" transform="translate(-3710.593 -4361.53)" fill="#333"/>
      <path id="パス_469" data-name="パス 469" d="M3710.593,4384.3l.933-1.933h33.145l-1.55,1.933Z" transform="translate(-3710.593 -4352.707)" fill="#4d4d4d"/>
      <path id="パス_470" data-name="パス 470" d="M3901.539,4350.512h-.7v1.745h.991v-1.264S3901.808,4350.512,3901.539,4350.512Z" transform="translate(-3866.643 -4326.575)" fill="#ec6c00"/>
      <rect id="長方形_1188" data-name="長方形 1188" width="0.991" height="3.981" transform="translate(34.196 25.683)" fill="#dbdcdc"/>
      <path id="パス_471" data-name="パス 471" d="M3725.333,4242.484c-3.013,0-3.712,1.837-3.712,1.837s-5.416,12.952-5.64,13.441a3.336,3.336,0,0,0-.135,1.364l-.064,2.775h4.228c1.519,0,1.523,1.744,1.523,1.744h0v3.981h27.513v-9.1l.06-.764s.4-11.982.54-13.138a2.418,2.418,0,0,1,2.238-2.14Zm23.093,14.728c-.022.366-.224,1.216-1.638,1.216h-28.224c-.637,0-.906-.237-1.019-.436a.914.914,0,0,1,.09-.934c.163-.272,1.422-3.39,2.535-6.14,1.393-3.445,2.248-5.552,2.382-5.762l.017-.026a1.6,1.6,0,0,1,1.339-.967c.639-.018,3.024-.027,7.088-.027,3.979,0,9.414.009,16.153.025l.633,0a1.317,1.317,0,0,1,.915.414,1.166,1.166,0,0,1,.331.865C3749,4246.112,3748.459,4256.66,3748.426,4257.212Z" transform="translate(-3714.849 -4237.964)" fill="#e2e2e2"/>
      <path id="パス_472" data-name="パス 472" d="M3758.053,4254.728a.776.776,0,0,0-.224-.579.932.932,0,0,0-.635-.294l-.633,0c-6.739-.017-12.173-.026-16.152-.026-4.061,0-6.442.01-7.077.028-.533.015-.761.373-1.023.788l-.017.026c-.127.2-1.308,3.124-2.35,5.7-1.439,3.562-2.4,5.917-2.562,6.193a.568.568,0,0,0-.086.544c.088.155.331.239.683.239H3756.2c.8,0,1.217-.286,1.251-.851S3758.02,4255.4,3758.053,4254.728Z" transform="translate(-3724.259 -4247.269)" fill="#fff" opacity="0.4"/>
      <path id="パス_473" data-name="パス 473" d="M3754.427,4265.966H3726.2c-.637,0-.906-.236-1.019-.435a.915.915,0,0,1,.09-.934c.162-.272,1.422-3.39,2.534-6.14,1.393-3.444,2.249-5.552,2.382-5.762l.017-.026a1.6,1.6,0,0,1,1.339-.968c.639-.019,3.024-.027,7.089-.027,3.979,0,9.414.008,16.153.025l.633,0a1.317,1.317,0,0,1,.915.414,1.168,1.168,0,0,1,.331.865c-.033.67-.57,11.217-.6,11.77C3756.043,4265.117,3755.841,4265.966,3754.427,4265.966Zm-15.791-13.9c-4.061,0-6.442.01-7.077.028-.533.015-.76.373-1.023.788l-.017.026c-.127.2-1.308,3.124-2.349,5.7-1.44,3.562-2.4,5.916-2.562,6.193a.567.567,0,0,0-.086.544c.088.155.331.239.682.239h28.224c.8,0,1.217-.286,1.251-.851s.57-11.1.6-11.766a.778.778,0,0,0-.224-.579.933.933,0,0,0-.635-.294h-.634C3748.049,4252.07,3742.615,4252.062,3738.636,4252.062Z" transform="translate(-3722.488 -4245.503)"/>
      <path id="パス_474" data-name="パス 474" d="M3720.009,4350.512h-4.228v1.745h5.75S3721.528,4350.512,3720.009,4350.512Z" transform="translate(-3714.849 -4326.575)" fill="#f29600"/>
      <rect id="長方形_1189" data-name="長方形 1189" width="5.751" height="3.981" transform="translate(0.933 25.683)" fill="#fff"/>
      <path id="長方形_1190" data-name="長方形 1190" d="M1.85,0h0A1.85,1.85,0,0,1,3.7,1.85V3.316a1.85,1.85,0,0,1-1.85,1.85h0A1.85,1.85,0,0,1,0,3.315V1.85A1.85,1.85,0,0,1,1.85,0Z" transform="translate(36.324 15.348)"/>
      <path id="パス_475" data-name="パス 475" d="M3870.179,4350.512h4.263v1.745h-5.785S3868.662,4350.512,3870.179,4350.512Z" transform="translate(-3840.246 -4326.575)" fill="#f29600"/>
      <rect id="長方形_1191" data-name="長方形 1191" width="5.785" height="3.981" transform="translate(28.411 25.683)" fill="#fff"/>
      <path id="パス_476" data-name="パス 476" d="M3747.3,4399.887a.879.879,0,0,1-.879.878h-28.332a.878.878,0,0,1-.878-.878v-.375a.878.878,0,0,1,.878-.878h28.332a.879.879,0,0,1,.879.878Z" transform="translate(-3716.025 -4366.047)"/>
      <path id="長方形_1192" data-name="長方形 1192" d="M1.065,0H3.3A1.065,1.065,0,0,1,4.365,1.065v0A1.065,1.065,0,0,1,3.3,2.131H1.065A1.065,1.065,0,0,1,0,1.065v0A1.065,1.065,0,0,1,1.065,0Z" transform="translate(1.19 32.587)" fill="#c8c9ca"/>
      <path id="長方形_1193" data-name="長方形 1193" d="M1.065,0H3.3A1.065,1.065,0,0,1,4.365,1.065v0A1.066,1.066,0,0,1,3.3,2.131H1.065A1.065,1.065,0,0,1,0,1.065v0A1.065,1.065,0,0,1,1.065,0Z" transform="translate(26.966 32.587)" fill="#c8c9ca"/>
      <path id="長方形_1194" data-name="長方形 1194" d="M1.223,0h9.618a1.222,1.222,0,0,1,1.222,1.222v.8A1.222,1.222,0,0,1,10.841,3.24H1.223A1.223,1.223,0,0,1,0,2.018v-.8A1.223,1.223,0,0,1,1.223,0Z" transform="translate(9.961 33.907)" fill="#d9d9d9"/>
      <path id="パス_477" data-name="パス 477" d="M3935.193,4340.178a.219.219,0,0,0,.219.22h1.025a.219.219,0,0,0,.219-.22v-.659a.22.22,0,0,0-.219-.22h-1.025a.22.22,0,0,0-.219.22Z" transform="translate(-3894.822 -4317.377)" fill="#262626"/>
      <rect id="長方形_1195" data-name="長方形 1195" width="13.239" height="6.869" transform="translate(42.695 23.486)" fill="#b4b4b5"/>
      <path id="パス_478" data-name="パス 478" d="M3948.789,4359.967a.215.215,0,0,1-.172-.21v-.409a.219.219,0,0,1,.219-.22h-.426v-5.933h-.293v5.933h0v.839Z" transform="translate(-3905.421 -4328.775)" fill="#888"/>
      <rect id="長方形_1196" data-name="長方形 1196" width="2.648" height="4.649" transform="translate(42.93 35.234)" fill="#c8c9ca"/>
      <g id="グループ_294" data-name="グループ 294" transform="translate(46.692 31.199)">
        <path id="パス_479" data-name="パス 479" d="M3970.364,4401.987c0,.4.257.39.257.39h2.863a.388.388,0,0,0,.408-.39,11.315,11.315,0,0,1,.7-3.119h-3.515A11.7,11.7,0,0,0,3970.364,4401.987Z" transform="translate(-3970.364 -4397.438)" fill="#b3b3b3"/>
        <path id="パス_480" data-name="パス 480" d="M3979.138,4390.911h-3.584c-.5,0-.917.632-1.232,1.43h3.514C3978.156,4391.544,3978.587,4390.911,3979.138,4390.911Z" transform="translate(-3973.611 -4390.911)" fill="#717071"/>
      </g>
      <rect id="長方形_1197" data-name="長方形 1197" width="13.239" height="0.934" transform="translate(42.695 23.486)" fill="#9e9e9f"/>
      <g id="グループ_295" data-name="グループ 295" transform="translate(44.926 1.635)">
        <path id="パス_481" data-name="パス 481" d="M3983.373,4226.437s.679,1.027,1.27,1.027c.714,0,1.319-1.106,1.319-1.027,0,.1-.509,1.468-1.319,1.468S3983.358,4226.583,3983.373,4226.437Z" transform="translate(-3979.267 -4226.433)" fill="#47856b"/>
        <path id="パス_482" data-name="パス 482" d="M4006.1,4226.437s.678,1.027,1.269,1.027c.715,0,1.319-1.106,1.319-1.027,0,.1-.508,1.468-1.319,1.468S4006.087,4226.583,4006.1,4226.437Z" transform="translate(-3997.911 -4226.433)" fill="#47856b"/>
        <path id="パス_483" data-name="パス 483" d="M3960.534,4226.437s.679,1.027,1.27,1.027c.714,0,1.319-1.106,1.319-1.027,0,.1-.51,1.468-1.319,1.468S3960.52,4226.583,3960.534,4226.437Z" transform="translate(-3960.534 -4226.433)" fill="#47856b"/>
      </g>
      <g id="グループ_296" data-name="グループ 296" transform="translate(44.926 1.537)">
        <path id="パス_484" data-name="パス 484" d="M3983.374,4225.945c0-.233.679.531,1.27.531.714,0,1.319-.8,1.319-.531a1.562,1.562,0,0,1-1.319,1.009C3983.833,4226.954,3983.374,4226,3983.374,4225.945Z" transform="translate(-3979.269 -4225.892)" fill="#27654d"/>
        <path id="パス_485" data-name="パス 485" d="M4006.1,4225.945c0-.233.678.531,1.269.531.715,0,1.318-.8,1.318-.531a1.56,1.56,0,0,1-1.318,1.009C4006.563,4226.954,4006.1,4226,4006.1,4225.945Z" transform="translate(-3997.913 -4225.892)" fill="#27654d"/>
        <path id="パス_486" data-name="パス 486" d="M3960.536,4225.945c0-.233.679.531,1.27.531.714,0,1.319-.8,1.319-.531a1.563,1.563,0,0,1-1.319,1.009C3960.995,4226.954,3960.536,4226,3960.536,4225.945Z" transform="translate(-3960.536 -4225.892)" fill="#27654d"/>
      </g>
      <g id="グループ_297" data-name="グループ 297" transform="translate(49.328 20.811)">
        <path id="パス_487" data-name="パス 487" d="M3989.572,4337.2c0-.1-.141.233-.3.5-.2.324-.293.274-.294.373s.158.044.323-.2A1.725,1.725,0,0,0,3989.572,4337.2Z" transform="translate(-3988.263 -4336.453)" fill="#47856b"/>
        <path id="パス_488" data-name="パス 488" d="M3989.441,4333.133c0-.094-.153.3-.3.729a3.986,3.986,0,0,0-.251.729c0,.1.16-.126.313-.534A3.984,3.984,0,0,0,3989.441,4333.133Z" transform="translate(-3988.192 -4333.119)" fill="#27654d"/>
        <path id="パス_489" data-name="パス 489" d="M3985.024,4337.2c0-.1.141.233.3.5.2.324.294.274.294.373s-.158.044-.323-.2A1.732,1.732,0,0,1,3985.024,4337.2Z" transform="translate(-3985.024 -4336.453)" fill="#47856b"/>
        <path id="パス_490" data-name="パス 490" d="M3985.356,4333.133c0-.094.153.3.3.729a3.934,3.934,0,0,1,.251.729c0,.1-.161-.126-.313-.534A4.046,4.046,0,0,1,3985.356,4333.133Z" transform="translate(-3985.296 -4333.119)" fill="#27654d"/>
      </g>
      <g id="グループ_298" data-name="グループ 298" transform="translate(54.442 20.811)">
        <path id="パス_491" data-name="パス 491" d="M4018.024,4337.2c0-.1-.141.233-.305.5-.2.324-.293.274-.294.373s.158.044.323-.2A1.743,1.743,0,0,0,4018.024,4337.2Z" transform="translate(-4016.715 -4336.453)" fill="#47856b"/>
        <path id="パス_492" data-name="パス 492" d="M4017.894,4333.133c0-.094-.153.3-.3.729a3.957,3.957,0,0,0-.251.729c0,.1.16-.126.313-.534A4.038,4.038,0,0,0,4017.894,4333.133Z" transform="translate(-4016.645 -4333.119)" fill="#27654d"/>
        <path id="パス_493" data-name="パス 493" d="M4013.477,4337.2c0-.1.141.233.3.5.2.324.293.274.294.373s-.157.044-.323-.2A1.738,1.738,0,0,1,4013.477,4337.2Z" transform="translate(-4013.477 -4336.453)" fill="#47856b"/>
        <path id="パス_494" data-name="パス 494" d="M4013.81,4333.133c0-.094.153.3.3.729a3.986,3.986,0,0,1,.251.729c0,.1-.161-.126-.313-.534A4.027,4.027,0,0,1,4013.81,4333.133Z" transform="translate(-4013.75 -4333.119)" fill="#27654d"/>
      </g>
      <g id="グループ_299" data-name="グループ 299" transform="translate(44.848 20.811)">
        <path id="パス_495" data-name="パス 495" d="M3964.65,4337.2c0-.1-.141.233-.3.5-.2.324-.293.274-.295.373s.158.044.323-.2A1.735,1.735,0,0,0,3964.65,4337.2Z" transform="translate(-3963.342 -4336.453)" fill="#47856b"/>
        <path id="パス_496" data-name="パス 496" d="M3964.521,4333.133c0-.094-.153.3-.3.729a3.946,3.946,0,0,0-.252.729c0,.1.161-.126.313-.534A4.033,4.033,0,0,0,3964.521,4333.133Z" transform="translate(-3963.271 -4333.119)" fill="#27654d"/>
        <path id="パス_497" data-name="パス 497" d="M3960.1,4337.2c0-.1.141.233.3.5.2.324.294.274.294.373s-.157.044-.323-.2A1.735,1.735,0,0,1,3960.1,4337.2Z" transform="translate(-3960.104 -4336.453)" fill="#47856b"/>
        <path id="パス_498" data-name="パス 498" d="M3960.437,4333.133c0-.094.154.3.3.729a3.926,3.926,0,0,1,.251.729c0,.1-.16-.126-.313-.534A4.068,4.068,0,0,1,3960.437,4333.133Z" transform="translate(-3960.377 -4333.119)" fill="#27654d"/>
      </g>
      <path id="パス_499" data-name="パス 499" d="M3961.081,4351.876h0a.077.077,0,0,1-.074-.081l.414-8.61a.078.078,0,0,1,.078-.074h0a.079.079,0,0,1,.073.082l-.414,8.608A.077.077,0,0,1,3961.081,4351.876Z" transform="translate(-3915.993 -4320.504)" fill="#717071"/>
      <path id="パス_500" data-name="パス 500" d="M3988.967,4351.876a.077.077,0,0,1-.077-.074l-.389-8.609a.078.078,0,0,1,.074-.081.077.077,0,0,1,.081.074l.388,8.609a.076.076,0,0,1-.073.081Z" transform="translate(-3938.548 -4320.504)" fill="#717071"/>
      <path id="パス_501" data-name="パス 501" d="M4014.925,4351.876h0a.076.076,0,0,1-.073-.081l.413-8.61a.074.074,0,0,1,.082-.074.077.077,0,0,1,.073.081L4015,4351.8A.077.077,0,0,1,4014.925,4351.876Z" transform="translate(-3960.159 -4320.504)" fill="#717071"/>
    </g>
    <g id="header_logo" data-name="header logo" transform="translate(19.337 25.738)">
      <g id="グループ_1" data-name="グループ 1" transform="translate(0 0.096)">
        <rect id="長方形_1" data-name="長方形 1" width="0.898" height="0.898" transform="translate(4.303 3.124)" fill="#03a58e"/>
        <path id="パス_1" data-name="パス 1" d="M3755.144,4347.552v-.9h.713l-2.06-1.328-2.06,1.328h.713v2.694h.9v-.9h.9v-.9h.9v.9h-.9v.9h.9v-.9h.9v-.9Z" transform="translate(-3751.736 -4345.326)" fill="#03a58e"/>
      </g>
      <rect id="長方形_2" data-name="長方形 2" width="0.884" height="0.884" transform="translate(7.431 0.057)" fill="#03a58e"/>
      <g id="グループ_2" data-name="グループ 2" transform="translate(5.657)">
        <path id="パス_2" data-name="パス 2" d="M3786.414,4345.818l-2.309.067a.561.561,0,0,0,.313-.827l.01,0h0l.307-.106a.02.02,0,0,0,.013-.026h0c0-.009-.009-.014-.023-.014l-.362.015-.064,0a.56.56,0,1,0-.5.974h0l-.153,1.514-.376,1.254h0l-.01.033-.05.167h0a.039.039,0,0,0,.025.047h.847a.043.043,0,0,0,.043-.042h0v-.163a.043.043,0,0,0-.043-.043H3784l.321-1.071.98.15v1.117a.053.053,0,0,0,.052.053h.835a.043.043,0,0,0,.042-.042h0v-.163a.043.043,0,0,0-.042-.043H3786v-1.433a.111.111,0,0,0-.094-.11l-1.5-.228.032-.313,1.994-.058a.056.056,0,0,0,.054-.057l-.017-.594a.056.056,0,0,0-.058-.054Zm-2.856-.381a.362.362,0,0,1-.01-.079l.047-.017.658-.227a.391.391,0,0,1-.079.548.376.376,0,0,1-.148.068.39.39,0,0,1-.468-.294h0Z" transform="translate(-3783.211 -4344.791)" fill="#1a1311"/>
        <path id="パス_3" data-name="パス 3" d="M3812.587,4349.271h-.438v-.606a.059.059,0,0,0-.059-.059h-.538a.059.059,0,0,0-.059.059h0v.606h-.805a.06.06,0,0,0-.06.06v.537a.059.059,0,0,0,.06.059h.805v1.881h-.159a.05.05,0,0,0-.05.05v.131a.05.05,0,0,0,.05.05h.763a.052.052,0,0,0,.052-.052h0v-2.061h.438a.059.059,0,0,0,.06-.059h0v-.537A.06.06,0,0,0,3812.587,4349.271Z" transform="translate(-3805.701 -4347.92)" fill="#1a1311"/>
        <path id="パス_4" data-name="パス 4" d="M3831.286,4350.279h-.394v-.4a.049.049,0,0,0-.049-.049h-.493a.049.049,0,0,0-.049.049h0v.4h-.647a.049.049,0,0,0-.049.049h0v.558a.049.049,0,0,0,.049.049h.647v.962a.554.554,0,0,1-.553.554h-.1a.045.045,0,0,0-.045.045h0v.5a.045.045,0,0,0,.045.045h.1a1.145,1.145,0,0,0,1.145-1.145h0v-.962h.394a.049.049,0,0,0,.049-.049h0v-.558A.049.049,0,0,0,3831.286,4350.279Z" transform="translate(-3821.266 -4348.928)" fill="#1a1311"/>
        <path id="パス_5" data-name="パス 5" d="M3843.355,4349.818h.568a.06.06,0,0,0,.06-.06v-.594h.531a.033.033,0,0,0,.033-.032h0v-.978a.056.056,0,0,0-.056-.056h-.037v0h-1.229v-.506a.053.053,0,0,0-.052-.053h-.522a.053.053,0,0,0-.052.053h0v.506h-1.267a.056.056,0,0,0-.056.056v.96a.052.052,0,0,0,.053.052h.512v.594a.06.06,0,0,0,.06.06h.7v.137h-.881a.053.053,0,0,0-.053.053v.382a.053.053,0,0,0,.053.053h.881v.129h-1.27a.053.053,0,0,0-.053.053h0v.382a.054.054,0,0,0,.053.053h3.166a.054.054,0,0,0,.053-.053v-.382a.053.053,0,0,0-.053-.053h-1.269v-.128h.881a.053.053,0,0,0,.053-.053v-.382a.053.053,0,0,0-.053-.053h-.881v-.137Zm-1.453-1.072v-.115h2.018v.115Zm.565.542v-.014a.06.06,0,0,1,.06-.06h.77a.06.06,0,0,1,.06.06v.014a.06.06,0,0,1-.06.06h-.77a.059.059,0,0,1-.059-.06Z" transform="translate(-3830.838 -4347.043)" fill="#1a1311"/>
        <path id="パス_6" data-name="パス 6" d="M3824.564,4354.466h-.135v-2.11a.049.049,0,0,0-.049-.049h-.5a.049.049,0,0,0-.049.049h0v2.256a.064.064,0,0,0,.064.063h.667a.055.055,0,0,0,.055-.055h0v-.1a.055.055,0,0,0-.055-.055Z" transform="translate(-3816.532 -4350.956)" fill="#1a1311"/>
        <path id="パス_7" data-name="パス 7" d="M3811.622,4359.168a.311.311,0,1,0,.311.311h0A.311.311,0,0,0,3811.622,4359.168Z" transform="translate(-3806.26 -4356.583)" fill="#1a1311"/>
        <path id="パス_8" data-name="パス 8" d="M3844.274,4347.5a.311.311,0,1,0-.311-.311h0A.31.31,0,0,0,3844.274,4347.5Z" transform="translate(-3833.043 -4346.503)" fill="#1a1311"/>
        <path id="パス_9" data-name="パス 9" d="M3853.645,4347.5a.311.311,0,1,0-.311-.311h0A.31.31,0,0,0,3853.645,4347.5Z" transform="translate(-3840.73 -4346.503)" fill="#1a1311"/>
        <path id="パス_10" data-name="パス 10" d="M3803.635,4348.965l-.487-.246a.056.056,0,0,0-.075.024h0l-.458.914h0l-.2.4a.055.055,0,0,0,.025.075l.4.2v1.742a.061.061,0,0,0,.061.06h.535a.061.061,0,0,0,.06-.06v-1.923a.082.082,0,0,0-.045-.073l-.244-.122.456-.91a.056.056,0,0,0-.025-.074Z" transform="translate(-3798.959 -4348.009)" fill="#1a1311"/>
      </g>
      <g id="グループ_3" data-name="グループ 3" transform="translate(4.062 4.586)">
        <path id="パス_11" data-name="パス 11" d="M3793.7,4370.484h-.147v.116h.136v.469h-.114v-.032h-.3v.037h-.108v-.475h.13v-.116h-.136v-.084c-.014.038-.029.076-.046.114l.027.009a.027.027,0,0,1-.023.017v.548h-.112v-.374c-.014.021-.028.039-.041.056a1.27,1.27,0,0,0-.048-.126,1,1,0,0,0,.152-.327l.126.042a.022.022,0,0,1-.024.011l0,.009h.532Zm-.425.218v.235h.033v-.235Zm.166,0h-.034v.235h.034Zm0-.1v-.115h-.033v.115Zm.134.337v-.235h-.036v.235Z" transform="translate(-3789.58 -4370.314)" fill="#1a1311"/>
        <path id="パス_12" data-name="パス 12" d="M3799.427,4370.386l.076.034a.024.024,0,0,1-.012.014.6.6,0,0,1-.116.206.1.1,0,1,1,.107.17v.262h-.113v-.021h-.139v.024h-.109v-.251l-.036.015a.386.386,0,0,0-.034-.057l-.031.044a.763.763,0,0,0-.031-.071v.319h-.111v-.268a.577.577,0,0,1-.066.131.612.612,0,0,0-.052-.108.732.732,0,0,0,.11-.253h-.091v-.108h.1v-.164l.135.007c0,.009-.008.014-.023.017v.14h.083v.049a.646.646,0,0,0,.132-.214l.126.042a.023.023,0,0,1-.023.01l-.016.035h.118Zm-.437.191v.027c.019.022.064.087.086.12a.614.614,0,0,0,.141-.083.6.6,0,0,1-.048-.064.53.53,0,0,1-.054.056c-.018-.019-.037-.037-.057-.054Zm.374.19a.607.607,0,0,1-.067-.049.642.642,0,0,1-.066.049Zm-.133.184h.139v-.086h-.139Zm0-.461a.525.525,0,0,0,.059.078.426.426,0,0,0,.054-.078Z" transform="translate(-3794.369 -4370.304)" fill="#1a1311"/>
        <path id="パス_13" data-name="パス 13" d="M3804.772,4371.933a.113.113,0,1,1-.113-.114A.113.113,0,0,1,3804.772,4371.933Z" transform="translate(-3799.115 -4371.546)" fill="#1a1311"/>
        <path id="パス_14" data-name="パス 14" d="M3807.733,4370.845a.631.631,0,0,1,.2.094.253.253,0,0,1-.058.127.493.493,0,0,0-.14-.1v0c0,.08-.059.135-.176.135s-.206-.054-.206-.146.078-.137.206-.137h.048l0-.064c-.072,0-.144,0-.2,0a.411.411,0,0,1-.021-.123,1.273,1.273,0,0,0,.143.01h.073v-.078c-.056,0-.113,0-.168,0a.383.383,0,0,1-.02-.115.932.932,0,0,0,.133.012h.056v-.01c0-.043,0-.062,0-.087a.674.674,0,0,1,.129.01c0,.026,0,.054,0,.083a1.02,1.02,0,0,0,.133-.018.388.388,0,0,1,0,.113,1.149,1.149,0,0,1-.136.016c0,.024,0,.048,0,.072v0a1.053,1.053,0,0,0,.166-.024.437.437,0,0,1,0,.121,1.446,1.446,0,0,1-.158.019Zm-.118.085a.345.345,0,0,0-.067-.006c-.041,0-.069.011-.069.034s.02.036.066.036.07-.017.07-.063Z" transform="translate(-3801.421 -4370.35)" fill="#1a1311"/>
        <path id="パス_15" data-name="パス 15" d="M3811.973,4370.816a.15.15,0,0,0-.024.073c0,.036.025.073.143.073a.693.693,0,0,0,.269-.051.381.381,0,0,1,.032.135.813.813,0,0,1-.3.046c-.174,0-.287-.063-.287-.174a.357.357,0,0,1,.038-.145A.476.476,0,0,1,3811.973,4370.816Zm-.095-.375a1.456,1.456,0,0,0,.425,0,.582.582,0,0,1,0,.127,1.692,1.692,0,0,1-.416,0,.569.569,0,0,1-.007-.132Zm.541.07a.244.244,0,0,1-.065.026.561.561,0,0,0-.047-.11.361.361,0,0,1,.063-.026.547.547,0,0,1,.05.11Zm.091-.039a.275.275,0,0,1-.064.027.488.488,0,0,0-.048-.105.328.328,0,0,1,.062-.027.39.39,0,0,1,.05.106Z" transform="translate(-3805.074 -4370.355)" fill="#1a1311"/>
        <path id="パス_16" data-name="パス 16" d="M3816.823,4371.153a.149.149,0,0,0-.023.073c0,.036.025.073.143.073a.682.682,0,0,0,.268-.051.377.377,0,0,1,.033.134.815.815,0,0,1-.3.047c-.174,0-.287-.063-.287-.174a.346.346,0,0,1,.038-.145A.456.456,0,0,1,3816.823,4371.153Zm-.095-.376a1.606,1.606,0,0,0,.449,0,.557.557,0,0,1,0,.127,1.9,1.9,0,0,1-.44,0A.6.6,0,0,1,3816.728,4370.777Z" transform="translate(-3809.052 -4370.692)" fill="#1a1311"/>
        <path id="パス_17" data-name="パス 17" d="M3821.182,4370.51a1.869,1.869,0,0,0,.29-.025.319.319,0,0,1,.049.087,2.28,2.28,0,0,0-.207.19.3.3,0,0,1,.09-.014.215.215,0,0,1,.231.2v.008c0,.159-.123.28-.4.252a.417.417,0,0,1-.042-.138c.178.031.307,0,.307-.117,0-.053-.041-.1-.131-.1a.364.364,0,0,0-.28.2.369.369,0,0,1-.093-.106c.085-.094.248-.253.321-.327-.037.006-.123.015-.181.019a.448.448,0,0,1-.029-.123C3821.123,4370.508,3821.152,4370.51,3821.182,4370.51Z" transform="translate(-3812.609 -4370.452)" fill="#1a1311"/>
        <path id="パス_18" data-name="パス 18" d="M3774.71,4370.845a.633.633,0,0,1,.2.094.257.257,0,0,1-.058.127.5.5,0,0,0-.14-.1v0c0,.08-.059.135-.176.135s-.206-.054-.206-.146.078-.137.206-.137h.048l0-.064c-.072,0-.144,0-.2,0a.4.4,0,0,1-.021-.123,1.285,1.285,0,0,0,.144.01h.073v-.078c-.056,0-.113,0-.169,0a.383.383,0,0,1-.019-.115.932.932,0,0,0,.133.012h.056v-.01c0-.043,0-.062,0-.087a.672.672,0,0,1,.129.01c0,.026,0,.054,0,.083a1.02,1.02,0,0,0,.133-.018.372.372,0,0,1,0,.113,1.159,1.159,0,0,1-.136.016c0,.024,0,.048,0,.072v0a1.05,1.05,0,0,0,.165-.024.419.419,0,0,1,0,.121,1.443,1.443,0,0,1-.159.019Zm-.118.085a.346.346,0,0,0-.067-.006c-.04,0-.069.011-.069.034s.02.036.066.036.07-.017.071-.063Z" transform="translate(-3774.333 -4370.35)" fill="#1a1311"/>
        <path id="パス_19" data-name="パス 19" d="M3778.952,4370.816a.155.155,0,0,0-.024.073c0,.036.025.073.143.073a.693.693,0,0,0,.268-.051.376.376,0,0,1,.032.135.812.812,0,0,1-.3.046c-.174,0-.287-.063-.287-.174a.357.357,0,0,1,.038-.145A.47.47,0,0,1,3778.952,4370.816Zm-.095-.375a1.457,1.457,0,0,0,.425,0,.6.6,0,0,1,0,.127,1.692,1.692,0,0,1-.416,0,.6.6,0,0,1-.007-.132Zm.541.07a.239.239,0,0,1-.065.026.576.576,0,0,0-.047-.11.358.358,0,0,1,.062-.026.547.547,0,0,1,.05.11Zm.091-.039a.273.273,0,0,1-.064.027.514.514,0,0,0-.048-.105.323.323,0,0,1,.063-.027.4.4,0,0,1,.049.106Z" transform="translate(-3777.988 -4370.355)" fill="#1a1311"/>
        <path id="パス_20" data-name="パス 20" d="M3783.8,4371.153a.154.154,0,0,0-.023.073c0,.036.025.073.143.073a.68.68,0,0,0,.268-.051.367.367,0,0,1,.033.134.814.814,0,0,1-.3.047c-.173,0-.287-.063-.287-.174a.332.332,0,0,1,.038-.145A.458.458,0,0,1,3783.8,4371.153Zm-.095-.376a1.607,1.607,0,0,0,.449,0,.618.618,0,0,1,0,.127,1.9,1.9,0,0,1-.441,0A.6.6,0,0,1,3783.707,4370.777Z" transform="translate(-3781.967 -4370.692)" fill="#1a1311"/>
        <path id="パス_21" data-name="パス 21" d="M3788.161,4370.51a1.866,1.866,0,0,0,.29-.025.325.325,0,0,1,.049.087,2.31,2.31,0,0,0-.207.19.3.3,0,0,1,.09-.014.215.215,0,0,1,.231.2v.008c0,.159-.123.28-.4.252a.412.412,0,0,1-.042-.138c.178.031.307,0,.307-.117,0-.053-.041-.1-.13-.1a.364.364,0,0,0-.281.2.369.369,0,0,1-.093-.106c.085-.094.248-.253.321-.327-.037.006-.123.015-.181.019a.466.466,0,0,1-.029-.123C3788.1,4370.508,3788.13,4370.51,3788.161,4370.51Z" transform="translate(-3785.524 -4370.452)" fill="#1a1311"/>
        <path id="パス_22" data-name="パス 22" d="M3826.574,4371.418a.323.323,0,0,1-.1.1,1.393,1.393,0,0,0-.192-.217.96.96,0,0,1-.3.212.573.573,0,0,1-.1-.113.789.789,0,0,0,.323-.208.571.571,0,0,0,.117-.173c-.1,0-.291.007-.349.009a.819.819,0,0,1-.015-.127c.026,0,.058,0,.084,0,.043,0,.283,0,.335-.006a.427.427,0,0,0,.061-.006.3.3,0,0,1,.069.068,1.358,1.358,0,0,1-.146.243A1.6,1.6,0,0,1,3826.574,4371.418Z" transform="translate(-3816.619 -4370.787)" fill="#1a1311"/>
        <path id="パス_23" data-name="パス 23" d="M3831.38,4370.517a.452.452,0,0,0,.062-.006.342.342,0,0,1,.074.06.86.86,0,0,1-.136.28c.025.021.049.043.071.065a.254.254,0,0,1-.09.1c-.02-.021-.042-.044-.067-.066a.722.722,0,0,1-.285.18.392.392,0,0,1-.11-.107.672.672,0,0,0,.3-.153,1.428,1.428,0,0,0-.123-.087.648.648,0,0,1,.082-.084,1.313,1.313,0,0,1,.126.08.471.471,0,0,0,.077-.154l-.2,0a.8.8,0,0,1-.189.185.284.284,0,0,1-.109-.085.621.621,0,0,0,.287-.341.338.338,0,0,1,.123.055.586.586,0,0,1-.04.078c.126,0,.15,0,.15,0Z" transform="translate(-3820.699 -4370.37)" fill="#1a1311"/>
        <path id="パス_24" data-name="パス 24" d="M3835.681,4371.733a.454.454,0,0,1-.1.047,1.528,1.528,0,0,0-.075-.156c.021-.012.079-.037.1-.046A1.309,1.309,0,0,1,3835.681,4371.733Zm.38-.129a.72.72,0,0,1-.111.264.531.531,0,0,1-.239.178.406.406,0,0,1-.094-.1.438.438,0,0,0,.235-.149.473.473,0,0,0,.092-.249.417.417,0,0,1,.117.053Zm-.209.069a.544.544,0,0,1-.105.045,1.509,1.509,0,0,0-.069-.158.839.839,0,0,1,.1-.043,1.621,1.621,0,0,1,.071.157Z" transform="translate(-3824.507 -4371.298)" fill="#1a1311"/>
        <path id="パス_25" data-name="パス 25" d="M3840.18,4371.325a.671.671,0,0,1-.318.247.394.394,0,0,1-.116-.12.527.527,0,0,0,.3-.171.467.467,0,0,0,.095-.211l-.456.006a.938.938,0,0,1-.012-.136c.038,0,.081.006.109.006l.383,0a.37.37,0,0,0,.061,0,.337.337,0,0,1,.079.063A.953.953,0,0,1,3840.18,4371.325Z" transform="translate(-3827.929 -4370.822)" fill="#1a1311"/>
      </g>
    </g>
  </g>
</svg>
