<svg xmlns="http://www.w3.org/2000/svg" width="94.96" height="41.819" viewBox="0 0 94.96 41.819">
  <g id="ico_difference_05" transform="translate(-339.74 -2184.398)">
    <rect id="長方形_28329" data-name="長方形 28329" width="5.832" height="10.058" transform="translate(345.572 2214.585)" fill="#d4cebe"/>
    <path id="パス_68968" data-name="パス 68968" d="M2455.779,3092.6a3,3,0,1,1-3-3.055A3.027,3.027,0,0,1,2455.779,3092.6Z" transform="translate(-2042.665 -876.241)" fill="#9a948e"/>
    <path id="パス_68969" data-name="パス 68969" d="M2371.949,3089.541h-5.666v6.11h5.943Z" transform="translate(-1961.834 -876.241)" fill="#9a948e"/>
    <rect id="長方形_28330" data-name="長方形 28330" width="4.444" height="8.301" transform="translate(408.67 2216.354)" fill="#9a948e"/>
    <g id="グループ_4029" data-name="グループ 4029" transform="translate(422.757 2184.398)">
      <path id="パス_68970" data-name="パス 68970" d="M2948.282,2338.324h-8.623l1.775-36.508h4.949Z" transform="translate(-2939.66 -2298.067)" fill="#c4c1ba"/>
      <path id="パス_68971" data-name="パス 68971" d="M2986.161,2409.516h5.551l-.137-2.625h-5.287Z" transform="translate(-2984.677 -2399.787)" fill="#397156"/>
      <path id="パス_68972" data-name="パス 68972" d="M2977.024,2597.328h6.155l-.136-2.625h-5.891Z" transform="translate(-2975.831 -2581.601)" fill="#397156"/>
      <rect id="長方形_28331" data-name="長方形 28331" width="4.929" height="0.944" transform="translate(1.776 0)" fill="#c4c1ba"/>
      <rect id="長方形_28332" data-name="長方形 28332" width="0.899" height="2.805" transform="translate(1.776 0.944)" fill="#c4c1ba"/>
      <rect id="長方形_28333" data-name="長方形 28333" width="0.899" height="2.805" transform="translate(5.806 0.944)" fill="#c4c1ba"/>
      <rect id="長方形_28334" data-name="長方形 28334" width="0.899" height="2.805" transform="translate(3.769 0.944)" fill="#c4c1ba"/>
    </g>
    <g id="グループ_4030" data-name="グループ 4030" transform="translate(415.505 2195.448)">
      <path id="パス_68973" data-name="パス 68973" d="M2721.147,2642.134h-8.623l1.775-26.487h4.95Z" transform="translate(-2712.525 -2612.927)" fill="#c4c1ba"/>
      <path id="パス_68974" data-name="パス 68974" d="M2759.026,2693.788h5.551l-.137-1.9h-5.287Z" transform="translate(-2757.542 -2686.729)" fill="#397156"/>
      <path id="パス_68975" data-name="パス 68975" d="M2749.89,2830.049h6.155l-.136-1.9h-5.89Z" transform="translate(-2748.697 -2818.639)" fill="#397156"/>
      <rect id="長方形_28335" data-name="長方形 28335" width="4.929" height="0.685" transform="translate(1.776)" fill="#c4c1ba"/>
      <rect id="長方形_28336" data-name="長方形 28336" width="0.899" height="2.035" transform="translate(1.776 0.685)" fill="#c4c1ba"/>
      <rect id="長方形_28337" data-name="長方形 28337" width="0.899" height="2.035" transform="translate(5.806 0.685)" fill="#c4c1ba"/>
      <rect id="長方形_28338" data-name="長方形 28338" width="0.899" height="2.035" transform="translate(3.769 0.685)" fill="#c4c1ba"/>
    </g>
    <rect id="長方形_28339" data-name="長方形 28339" width="23.869" height="20.116" transform="translate(349.53 2204.527)" fill="#e8e1d9"/>
    <rect id="長方形_28340" data-name="長方形 28340" width="31.367" height="20.116" transform="translate(373.398 2204.527)" fill="#d4cebe"/>
    <path id="パス_68976" data-name="パス 68976" d="M1051.2,2478.1h-31.117v10.751h44.676C1064.763,2482.913,1058.692,2478.1,1051.2,2478.1Z" transform="translate(-658.623 -284.324)" fill="#397156"/>
    <g id="グループ_4032" data-name="グループ 4032" transform="translate(347.905 2193.776)">
      <g id="グループ_4031" data-name="グループ 4031" transform="translate(0 0)">
        <path id="パス_68977" data-name="パス 68977" d="M622.568,2488.851c0-5.937-6.071-10.751-13.559-10.751s-13.559,4.813-13.559,10.751h27.118Z" transform="translate(-595.45 -2478.1)" fill="#47856b"/>
      </g>
    </g>
    <rect id="長方形_28341" data-name="長方形 28341" width="94.96" height="1.71" transform="translate(339.74 2224.507)" fill="#c5c2bc"/>
    <rect id="長方形_28342" data-name="長方形 28342" width="9.822" height="8.288" transform="translate(377.399 2216.354)" fill="#494550"/>
    <rect id="長方形_28343" data-name="長方形 28343" width="9.822" height="8.288" transform="translate(391.822 2216.354)" fill="#494550"/>
    <rect id="長方形_28344" data-name="長方形 28344" width="5.871" height="4.916" transform="translate(379.565 2206.858)" fill="#c4c1ba"/>
    <rect id="長方形_28345" data-name="長方形 28345" width="4.22" height="3.533" transform="translate(380.391 2207.549)" fill="#494550"/>
    <rect id="長方形_28346" data-name="長方形 28346" width="5.871" height="4.916" transform="translate(393.881 2206.858)" fill="#c4c1ba"/>
    <rect id="長方形_28347" data-name="長方形 28347" width="4.22" height="3.533" transform="translate(394.706 2207.549)" fill="#494550"/>
    <rect id="長方形_28348" data-name="長方形 28348" width="10.414" height="0.944" transform="translate(377.107 2215.41)" fill="#397156"/>
    <rect id="長方形_28349" data-name="長方形 28349" width="10.414" height="0.944" transform="translate(391.479 2215.41)" fill="#397156"/>
    <rect id="長方形_28350" data-name="長方形 28350" width="15.663" height="16.398" transform="translate(352.737 2208.245)" fill="#a39b9b"/>
    <rect id="長方形_28351" data-name="長方形 28351" width="19.163" height="1.844" transform="translate(351.071 2206.401)" fill="#397156"/>
    <rect id="長方形_28352" data-name="長方形 28352" width="21.783" height="8.211" transform="translate(411.839 2216.444)" fill="#d4cebe"/>
    <rect id="長方形_28353" data-name="長方形 28353" width="4.666" height="5.234" transform="translate(342.656 2219.409)" fill="#d4cebe"/>
  </g>
</svg>
