<svg xmlns="http://www.w3.org/2000/svg" width="88.44" height="43.594" viewBox="0 0 88.44 43.594">
  <g id="ico_difference_01" transform="translate(-816.779 -1773)">
    <g id="グループ_4206" data-name="グループ 4206" transform="translate(816.779 1773)">
      <g id="レイヤー_1" data-name="レイヤー 1" transform="translate(0 0)">
        <path id="パス_69766" data-name="パス 69766" d="M456.154,94.014c0,2.882-.1,5.522,0,8.165.082,2.167-.3,2.455-2.452,2.66-3,.286-6.013.194-9.016.268-2.969.074-5.948-.182-8.92-.335-1.45-.075-1.868-.539-1.889-2.009-.028-1.917.006-3.834-.021-5.751a24.775,24.775,0,0,0-.441-4.181,71.19,71.19,0,0,0-2.831,8.852c-.067.3-.133.594-.221.884-.348,1.14-.649,1.372-1.821,1.358a7.726,7.726,0,0,1-2.351-.209,2.346,2.346,0,0,1-1.83-2.415,26.419,26.419,0,0,1,1.048-6.087c1.068-4.363,2.015-8.757,3.322-13.057a46.417,46.417,0,0,1,2.8-7.308,11.863,11.863,0,0,1,4.559-4.493,11.7,11.7,0,0,1,2.765-1.388,1.368,1.368,0,0,0,1-1.14c.391-1.642.847-2.032,2.533-1.943a49.151,49.151,0,0,1,5.649.15c1.588.268,1.886.526,2.083,2.116a1.136,1.136,0,0,0,.866,1.023,19.65,19.65,0,0,1,5.913,3.887,8.393,8.393,0,0,1,2.35,4.756c.558,2.4,1.345,4.722,2,7.087.959,3.449,1.579,6.986,2.732,10.384.613,1.806.878,3.719,1.648,5.48.307.7-.061,1.174-.58,1.557a6.551,6.551,0,0,1-2.615,1.009c-.415.088-.84.132-1.256.22-1.168.247-1.394.114-1.8-1.037A73.566,73.566,0,0,0,456.154,94.014ZM445.665,69.556c-.938.317-1.167.183-1.212-.728-.018-.364,0-.729-.007-1.093,0-.316-.034-.653-.421-.7-.407-.05-.407.308-.537.586-.316.677.253,1.376-.083,2.033-.835.208-1.256-.027-1.16-.935a11.02,11.02,0,0,0,0-1.184c0-.36-.063-.7-.512-.71s-.534.363-.558.694c-.036.509-.009,1.021-.009,1.488-.383.248-.943.111-.926.7.015.514.444.6.8.746a3.022,3.022,0,0,0,.429.15,13.479,13.479,0,0,0,7.342-.227c.409-.124.849-.233.906-.761.071-.653-.634-.294-.887-.7,0-.3,0-.694,0-1.086,0-.336-.1-.612-.489-.641s-.54.268-.58.572a7.8,7.8,0,0,0-.026,1.182c.008.348-.062.6-.484.6-.394,0-.425-.257-.428-.55a10.5,10.5,0,0,0-.028-1.092c-.047-.4-.173-.847-.687-.784-.482.059-.579.505-.551.915A4.488,4.488,0,0,1,445.665,69.556ZM456.5,84.33c0-1.529.035-2.563-.015-3.592-.024-.486.349-1.341-.415-1.358-.783-.018-.65.864-.663,1.439-.033,1.456.073,2.922-.066,4.366-.209,2.183-.055,4.362-.114,6.542-.011.4.162.763.588.789.528.033.52-.415.505-.78C456.218,89.1,456.625,86.471,456.5,84.33Zm-22.295,4.4h-.183c0-2.181.015-4.362-.008-6.542-.008-.784-.113-1.567-.162-2.351a.474.474,0,0,0-.432-.5.516.516,0,0,0-.511.31,1.56,1.56,0,0,0-.148.885c.048.936.151,1.872.149,2.809q-.008,3.822.193,7.637c.02.366-.012.814.5.806.432-.007.594-.379.6-.777C434.213,90.246,434.2,89.486,434.2,88.727Z" transform="translate(-424.36 -65.873)" fill="#ffce09"/>
      </g>
    </g>
    <g id="グループ_4251" data-name="グループ 4251" transform="translate(881.272 1773.914)">
      <rect id="長方形_28205" data-name="長方形 28205" width="0.755" height="14.06" transform="matrix(0.372, -0.928, 0.928, 0.372, 5.71, 28.305)" fill="#4e3b30"/>
      <rect id="長方形_28206" data-name="長方形 28206" width="14.071" height="0.711" transform="matrix(0.928, -0.373, 0.373, 0.928, 4.879, 32.869)" fill="#4e3b30"/>
      <g id="グループ_4251-2" data-name="グループ 4251" transform="translate(1.398 21.815)">
        <path id="パス_69913" data-name="パス 69913" d="M694.1,184.253c-1.8,5.871-3.045,10.224-3.994,9.806s.536-4.53,2.335-10.4,3.629-10.5,4.088-10.333S695.9,178.383,694.1,184.253Z" transform="translate(-689.81 -173.222)" fill="#c08d4e"/>
        <path id="パス_69914" data-name="パス 69914" d="M734.951,183.9c1.662,5.826,2.807,10.149,3.765,9.707s-.43-4.518-2.092-10.344-3.384-10.408-3.846-10.232S733.289,178.072,734.951,183.9Z" transform="translate(-718.197 -173.025)" fill="#c08d4e"/>
      </g>
      <path id="パス_69915" data-name="パス 69915" d="M709.615,129.8c-.008-3.8-2.987-4.916-4.445-9.38-1.317-4.032-.227-6.372-1.118-9.239-.446-1.436-2.3-2.434-5.109-2.705a6.139,6.139,0,0,0-1-.077c-.1,0-.2,0-.3.006s-.2-.006-.3-.006a6.146,6.146,0,0,0-1,.077c-2.811.271-4.663,1.27-5.109,2.705-.891,2.867.2,5.207-1.119,9.239-1.458,4.464-4.437,5.575-4.445,9.38,0,1.838,4.1,3.374,9.584,3.758a19.207,19.207,0,0,0,2.093.094l.3,0,.3,0a19.2,19.2,0,0,0,2.093-.094C705.516,133.177,709.619,131.641,709.615,129.8Z" transform="translate(-685.668 -108.403)" fill="#e33c0b"/>
      <path id="パス_69916" data-name="パス 69916" d="M711.253,164.977c0,1.154-4.379,2.089-9.781,2.089s-9.782-.935-9.782-2.089,4.379-2.089,9.782-2.089S711.253,163.823,711.253,164.977Z" transform="translate(-689.657 -144.496)" fill="#b40019"/>
    </g>
    <g id="グループ_4252" data-name="グループ 4252" transform="translate(842.074 1794.93)">
      <g id="グループ_4249" data-name="グループ 4249" transform="translate(0 0)">
        <g id="グループ_4248" data-name="グループ 4248">
          <path id="パス_69909" data-name="パス 69909" d="M66.136,665.8a1.038,1.038,0,0,1-1.038,1.039H36.878A1.038,1.038,0,0,1,35.84,665.8h0a1.038,1.038,0,0,1,1.038-1.039H65.1a1.038,1.038,0,0,1,1.038,1.039Z" transform="translate(-34.406 -645.178)" fill="#8e8e8f"/>
          <path id="長方形_28197" data-name="長方形 28197" d="M4.209,0H28.953a4.211,4.211,0,0,1,4.211,4.211V16.148a4.211,4.211,0,0,1-4.211,4.211H4.209A4.209,4.209,0,0,1,0,16.15V4.209A4.209,4.209,0,0,1,4.209,0Z" transform="translate(0 0.011)" fill="#d4d5d5"/>
          <path id="パス_69910" data-name="パス 69910" d="M101.18,657.52a1.527,1.527,0,1,1-1.527-1.527A1.526,1.526,0,0,1,101.18,657.52Z" transform="translate(-68.925 -640.318)" fill="#767676"/>
          <path id="パス_69911" data-name="パス 69911" d="M89.658,641.152a.788.788,0,0,1-.695.855h0a.788.788,0,0,1-.7-.855v-9.284a.788.788,0,0,1,.7-.856h0a.788.788,0,0,1,.695.856Z" transform="translate(-63.462 -626.474)" fill="#767676"/>
          <rect id="長方形_28198" data-name="長方形 28198" width="0.377" height="20.414" transform="translate(27.742)" fill="#a6a7a7"/>
          <rect id="長方形_28199" data-name="長方形 28199" width="19.864" height="12.747" transform="translate(2.939 3.436)" fill="#aab6bd"/>
          <rect id="長方形_28200" data-name="長方形 28200" width="2.979" height="1.657" transform="translate(29.093 4.263)" fill="#a6a7a7"/>
          <rect id="長方形_28201" data-name="長方形 28201" width="1.333" height="1.655" transform="translate(29.093 6.578)" fill="#a6a7a7"/>
          <rect id="長方形_28202" data-name="長方形 28202" width="1.333" height="1.656" transform="translate(29.093 8.843)" fill="#a6a7a7"/>
          <rect id="長方形_28203" data-name="長方形 28203" width="1.333" height="1.655" transform="translate(30.719 6.578)" fill="#a6a7a7"/>
          <rect id="長方形_28204" data-name="長方形 28204" width="1.333" height="1.656" transform="translate(30.719 8.843)" fill="#a6a7a7"/>
        </g>
        <path id="パス_69912" data-name="パス 69912" d="M40.976,641.545V630.356H52.639Z" transform="translate(-37.252 -626.11)" fill="#d1d6d9"/>
      </g>
    </g>
  </g>
</svg>
