<svg xmlns="http://www.w3.org/2000/svg" xmlns:xlink="http://www.w3.org/1999/xlink" width="337.975" height="79.527" viewBox="0 0 337.975 79.527"><defs><clipPath id="a"><rect width="86.821" height="6.078" fill="none"/></clipPath><clipPath id="b"><rect width="272.821" height="6.078" fill="none"/></clipPath></defs><g transform="translate(-369.544 -3179.312)"><g transform="translate(620.698 3209.761)" clip-path="url(#a)"><g transform="translate(-15 -247.999)"><path d="M645.258,358.01a5.619,5.619,0,0,0-3.635,1.243,6.648,6.648,0,0,1-8.1,0,5.623,5.623,0,0,0-3.636-1.243s-.008-.874,0-.874a6.5,6.5,0,0,1,4.049,1.375,5.928,5.928,0,0,0,7.272,0,6.315,6.315,0,0,1,4.049-1.375Z" transform="translate(-614.884 -109.135)" fill="#eb6d4e"/></g><g transform="translate(0 -247.999)"><path d="M645.258,358.01a5.619,5.619,0,0,0-3.635,1.243,6.648,6.648,0,0,1-8.1,0,5.623,5.623,0,0,0-3.636-1.243s-.008-.874,0-.874a6.5,6.5,0,0,1,4.049,1.375,5.928,5.928,0,0,0,7.272,0,6.315,6.315,0,0,1,4.049-1.375Z" transform="translate(-614.884 -109.135)" fill="#eb6d4e"/></g><g transform="translate(15 -247.999)"><path d="M645.258,358.01a5.619,5.619,0,0,0-3.635,1.243,6.648,6.648,0,0,1-8.1,0,5.623,5.623,0,0,0-3.636-1.243s-.008-.874,0-.874a6.5,6.5,0,0,1,4.049,1.375,5.928,5.928,0,0,0,7.272,0,6.315,6.315,0,0,1,4.049-1.375Z" transform="translate(-614.884 -109.135)" fill="#eb6d4e"/></g><g transform="translate(30 -247.999)"><path d="M645.258,358.01a5.619,5.619,0,0,0-3.635,1.243,6.648,6.648,0,0,1-8.1,0,5.623,5.623,0,0,0-3.636-1.243s-.008-.874,0-.874a6.5,6.5,0,0,1,4.049,1.375,5.928,5.928,0,0,0,7.272,0,6.315,6.315,0,0,1,4.049-1.375Z" transform="translate(-614.884 -109.135)" fill="#eb6d4e"/></g><g transform="translate(45 -247.999)"><path d="M645.258,358.01a5.619,5.619,0,0,0-3.635,1.243,6.648,6.648,0,0,1-8.1,0,5.623,5.623,0,0,0-3.636-1.243s-.008-.874,0-.874a6.5,6.5,0,0,1,4.049,1.375,5.928,5.928,0,0,0,7.272,0,6.315,6.315,0,0,1,4.049-1.375Z" transform="translate(-614.884 -109.135)" fill="#eb6d4e"/></g><g transform="translate(60 -247.999)"><path d="M645.258,358.01a5.619,5.619,0,0,0-3.635,1.243,6.648,6.648,0,0,1-8.1,0,5.623,5.623,0,0,0-3.636-1.243s-.008-.874,0-.874a6.5,6.5,0,0,1,4.049,1.375,5.928,5.928,0,0,0,7.272,0,6.315,6.315,0,0,1,4.049-1.375Z" transform="translate(-614.884 -109.135)" fill="#eb6d4e"/></g></g><path d="M14.076,21.348a6.96,6.96,0,0,0-2.968,1.6A3.077,3.077,0,0,0,10.1,25.156a2.641,2.641,0,0,0,.882,1.946,2.715,2.715,0,0,0,1.918.854,1.436,1.436,0,0,0,1.106-.336,1.974,1.974,0,0,0,.294-1.26V21.516Q14.3,21.292,14.076,21.348Zm-.812,9.772A6.961,6.961,0,0,1,8.5,29.4a5.428,5.428,0,0,1-1.96-4.242,6.031,6.031,0,0,1,1.974-4.368,11.752,11.752,0,0,1,5.558-2.856.281.281,0,0,0,.224-.308V14.1a.223.223,0,0,0-.252-.252H9.26a1.484,1.484,0,1,1,0-2.968h4.788a.223.223,0,0,0,.252-.252V9a1.626,1.626,0,0,1,1.6-1.6h.364a1.626,1.626,0,0,1,1.6,1.6v1.624q0,.252.224.252H22.5a1.477,1.477,0,0,1,1.064.434,1.454,1.454,0,0,1,0,2.1,1.477,1.477,0,0,1-1.064.434H18.08q-.224,0-.224.252V17.12q0,.224.252.224.448-.028,1.428-.028a10.788,10.788,0,0,1,6.692,1.932,5.717,5.717,0,0,1,2.548,4.676q0,5.964-6.44,7.308a1.552,1.552,0,0,1-1.232-.238,1.728,1.728,0,0,1-.728-1.05l-.028-.084a1.432,1.432,0,0,1,.21-1.148,1.521,1.521,0,0,1,.966-.672,5.226,5.226,0,0,0,2.744-1.414,3.607,3.607,0,0,0,.868-2.506A2.914,2.914,0,0,0,23.61,21.7a7.216,7.216,0,0,0-4.074-1.022q-.98,0-1.428.028a.223.223,0,0,0-.252.252v5.6q0,2.576-1.008,3.57A5.064,5.064,0,0,1,13.264,31.12ZM28.3,10.988q1.512,2.044,2.632,3.836a1.448,1.448,0,0,1,.182,1.162,1.425,1.425,0,0,1-.686.938,1.57,1.57,0,0,1-1.176.154,1.522,1.522,0,0,1-.952-.686q-1.344-2.1-2.464-3.64a1.5,1.5,0,0,1-.28-1.12,1.4,1.4,0,0,1,.588-.98,1.564,1.564,0,0,1,1.162-.266A1.453,1.453,0,0,1,28.3,10.988Zm5.684,12.544-.028-.112a1.524,1.524,0,0,1,.21-1.19,1.407,1.407,0,0,1,.966-.658q4.256-.84,7.28-1.708.2-.056.028-.168a22.974,22.974,0,0,1-3.052-1.9A.339.339,0,0,0,39,17.764q-.924.532-2.128,1.12a1.617,1.617,0,0,1-1.232.07,1.59,1.59,0,0,1-.924-.8l-.056-.084a1.471,1.471,0,0,1-.07-1.176,1.486,1.486,0,0,1,.8-.9,26.8,26.8,0,0,0,6.244-3.976,1.835,1.835,0,0,1,.28-.224.084.084,0,0,0,.014-.084.066.066,0,0,0-.07-.056H38.016a.223.223,0,0,0-.252.252v1.456A1.577,1.577,0,0,1,36.2,14.936H35.72a1.556,1.556,0,0,1-1.12-.462,1.487,1.487,0,0,1-.476-1.106v-2.94a1.626,1.626,0,0,1,1.6-1.6h8.764q.252,0,.252-.224v-.7a1.556,1.556,0,0,1,.462-1.12A1.487,1.487,0,0,1,46.3,6.312h.672a1.487,1.487,0,0,1,1.106.476,1.556,1.556,0,0,1,.462,1.12v.7q0,.224.252.224H57.56a1.626,1.626,0,0,1,1.6,1.6v2.94a1.487,1.487,0,0,1-.476,1.106,1.556,1.556,0,0,1-1.12.462h-.476a1.42,1.42,0,0,1-1.12-.476q-.14-.14-.14.084a2.854,2.854,0,0,1-.952,2.072A23.674,23.674,0,0,1,50.7,19.668a.068.068,0,0,0-.042.084.125.125,0,0,0,.07.084q3.36.952,7.672,1.764a1.362,1.362,0,0,1,.952.658,1.418,1.418,0,0,1,.168,1.162l-.028.056a1.711,1.711,0,0,1-.77.994,1.606,1.606,0,0,1-1.218.21l-.658-.168q-.434-.112-.63-.14a.169.169,0,0,0-.168.042.2.2,0,0,0-.084.154v6.468A1.577,1.577,0,0,1,54.4,32.6H53.22a.963.963,0,0,1-.686-.28.9.9,0,0,1-.294-.672q0-.168-.14-.168H41.18q-.14,0-.14.168a.9.9,0,0,1-.294.672.963.963,0,0,1-.686.28H38.884a1.577,1.577,0,0,1-1.568-1.568V24.708q0-.252-.252-.2-.364.084-1.148.252a1.532,1.532,0,0,1-1.2-.224A1.665,1.665,0,0,1,33.984,23.532ZM55.264,11.66H46.22q-.2,0-.2.252a.682.682,0,0,1-.2.5q-.084.084-.224.238t-.224.238q-.056.028-.028.1t.084.07h9.072a1.3,1.3,0,0,1,.868.336q.14.14.14-.084v-1.4A.223.223,0,0,0,55.264,11.66ZM42.048,15.944A17.315,17.315,0,0,0,46.3,18.352a.618.618,0,0,0,.448,0,17.638,17.638,0,0,0,4.172-2.492.055.055,0,0,0,.028-.084.09.09,0,0,0-.084-.056H42.244a.324.324,0,0,0-.224.056.114.114,0,0,0-.028.084A.09.09,0,0,0,42.048,15.944Zm-.448,7.42a.028.028,0,0,0,0,.056H52.1a.028.028,0,0,0,0-.056q-3.192-.9-5.18-1.652a.618.618,0,0,0-.448,0Q44.54,22.5,41.6,23.364Zm-.56,3v2.212q0,.224.252.224H52.016a.2.2,0,0,0,.224-.224V26.36q0-.252-.224-.252H41.292A.223.223,0,0,0,41.04,26.36ZM86.6,21.6h-4.76q-.252,0-.112.28a16.917,16.917,0,0,0,1.2,1.848.221.221,0,0,0,.336.028q1.12-.9,1.652-1.4a1.546,1.546,0,0,1,1.092-.406,1.5,1.5,0,0,1,1.064.462,1.422,1.422,0,0,1,.434,1.078,1.52,1.52,0,0,1-.462,1.078q-1.344,1.2-1.764,1.54-.168.168-.028.308a23.525,23.525,0,0,0,2.156,1.932,1.528,1.528,0,0,1,.63,1.036,1.589,1.589,0,0,1-.266,1.176l-.2.28a1.52,1.52,0,0,1-1.022.63,1.3,1.3,0,0,1-1.106-.322,20.324,20.324,0,0,1-3.724-4.424.114.114,0,0,0-.084-.028.049.049,0,0,0-.056.056v1.2a19.75,19.75,0,0,1-.084,2.086,6,6,0,0,1-.28,1.3,1.274,1.274,0,0,1-.7.784,4.133,4.133,0,0,1-1.148.308,15.31,15.31,0,0,1-1.848.084q-.168,0-1.4-.056a1.739,1.739,0,0,1-1.6-1.6,1.3,1.3,0,0,1,.406-1.022,1.221,1.221,0,0,1,1.022-.378q.42.028.952.028.7,0,.868-.2a2.16,2.16,0,0,0,.168-1.12V26.416a.028.028,0,1,0-.056,0,2.1,2.1,0,0,1-.532.84,41.964,41.964,0,0,1-5.068,3.836,1.453,1.453,0,0,1-1.176.224,1.555,1.555,0,0,1-1.008-.7l-.14-.224a1.435,1.435,0,0,1-.168-1.176,1.558,1.558,0,0,1,.728-.98q1.736-1.036,3.164-2.072.14-.112-.056-.168a1.707,1.707,0,0,1-.98-.588q-.308-.392-.784-.98a1.424,1.424,0,0,1-.322-1.106,1.358,1.358,0,0,1,.574-.994,1.7,1.7,0,0,1,1.19-.336,1.616,1.616,0,0,1,1.106.56q.28.308.784.924a1.408,1.408,0,0,1,.336,1.064.121.121,0,0,0,.056.1q.056.042.084.014a.819.819,0,0,1,.084-.07.819.819,0,0,0,.084-.07,1.2,1.2,0,0,1,1.036-.294,1.147,1.147,0,0,1,.868.63q.084.2.14.364a.081.081,0,0,1,.056-.028v-3.36q0-.224-.252-.224H72.736a1.512,1.512,0,0,1,0-3.024h4.956a.223.223,0,0,0,.252-.252V17.2q0-.224-.252-.224H73.24a1.264,1.264,0,0,1-.924-.392,1.335,1.335,0,0,1-.014-1.876,1.25,1.25,0,0,1,.938-.392h4.452a.223.223,0,0,0,.252-.252v-.98q0-.224-.252-.224H72.82a1.435,1.435,0,0,1-1.456-1.456,1.455,1.455,0,0,1,.42-1.05,1.385,1.385,0,0,1,1.036-.434h1.736q.252,0,.14-.168-.028-.056-.448-.812a1.163,1.163,0,0,1-.07-1.092,1.14,1.14,0,0,1,.826-.7l.14-.028a1.989,1.989,0,0,1,1.316.056,1.857,1.857,0,0,1,.98.868q.56,1.064.868,1.68a.329.329,0,0,0,.336.2h2.548a.417.417,0,0,0,.364-.224q.028-.056.35-.644t.462-.9a2.015,2.015,0,0,1,.924-.924,1.925,1.925,0,0,1,1.288-.168l.168.028a1.265,1.265,0,0,1,.868.686,1.108,1.108,0,0,1,0,1.078q-.364.728-.448.868a.126.126,0,0,0,.014.126.138.138,0,0,0,.126.07h1.064a1.428,1.428,0,0,1,0,2.856H81.836q-.252,0-.252.224v1.064a.223.223,0,0,0,.252.252h4.312a1.339,1.339,0,0,1,1.316,1.316,1.3,1.3,0,0,1-.392.952,1.264,1.264,0,0,1-.924.392H81.836q-.252,0-.252.224v1.12a.223.223,0,0,0,.252.252H86.6a1.44,1.44,0,0,1,1.078.448,1.521,1.521,0,0,1,0,2.128A1.44,1.44,0,0,1,86.6,21.6ZM62.488,25.744l-.308-.7a2.988,2.988,0,0,1,.112-2.8,27.721,27.721,0,0,0,2.576-7.224q.056-.224-.2-.224H63.72a1.54,1.54,0,0,1,0-3.08h1.092a.223.223,0,0,0,.252-.252V8.8A1.487,1.487,0,0,1,65.54,7.7a1.556,1.556,0,0,1,1.12-.462h.168a1.556,1.556,0,0,1,1.12.462A1.487,1.487,0,0,1,68.424,8.8v2.66a.223.223,0,0,0,.252.252h.784a1.463,1.463,0,0,1,1.092.462,1.521,1.521,0,0,1,0,2.156,1.463,1.463,0,0,1-1.092.462h-.532q-.252,0-.14.224.588,1.26,2.184,4.872a2.443,2.443,0,0,1-.336,2.688.8.8,0,0,1-.812.308.868.868,0,0,1-.7-.56,7.163,7.163,0,0,0-.308-.784,7.162,7.162,0,0,1-.308-.784.114.114,0,0,0-.084.028V31.036a1.487,1.487,0,0,1-.476,1.106,1.556,1.556,0,0,1-1.12.462H66.66a1.556,1.556,0,0,1-1.12-.462,1.487,1.487,0,0,1-.476-1.106V23.2q-.028-.028-.084,0a26.888,26.888,0,0,1-1.092,2.6.687.687,0,0,1-.7.42A.794.794,0,0,1,62.488,25.744Zm38.36-12.908A8.806,8.806,0,0,0,95.7,15.818,8.508,8.508,0,0,0,93.82,21.4a8.006,8.006,0,0,0,.868,3.78q.868,1.652,1.652,1.652a1.242,1.242,0,0,0,.812-.378,5.064,5.064,0,0,0,.938-1.372A16.716,16.716,0,0,0,99.1,22.594a38.859,38.859,0,0,0,1.008-3.976q.518-2.478.938-5.586a.161.161,0,0,0-.2-.2ZM96.34,30.364q-2.268,0-4.172-2.6a10.475,10.475,0,0,1-1.9-6.356,11.41,11.41,0,0,1,3.7-8.82A13.736,13.736,0,0,1,103.62,9.2a11.039,11.039,0,0,1,7.966,3.024,10.212,10.212,0,0,1,3.15,7.7,12.152,12.152,0,0,1-2.03,7.238,8.979,8.979,0,0,1-5.558,3.626,1.484,1.484,0,0,1-1.218-.252,1.687,1.687,0,0,1-.686-1.064l-.056-.252a1.4,1.4,0,0,1,.224-1.148,1.827,1.827,0,0,1,.98-.728q4.788-1.484,4.788-7.42a7.09,7.09,0,0,0-6.132-7.252.228.228,0,0,0-.308.2q-.56,4.228-1.26,7.35a33.738,33.738,0,0,1-1.47,5.04,11.786,11.786,0,0,1-1.722,3.08,5.667,5.667,0,0,1-1.876,1.6A4.815,4.815,0,0,1,96.34,30.364ZM120.784,14.4a1.577,1.577,0,0,1-1.568-1.568,1.578,1.578,0,0,1,1.6-1.6q3.444,0,10.388-.168.28,0,.224-.224-.084-.756-.168-1.6a1.413,1.413,0,0,1,.378-1.12A1.624,1.624,0,0,1,132.74,7.6h.364a1.516,1.516,0,0,1,1.162.392,1.482,1.482,0,0,1,.546,1.092q.028.252.07.812t.07.84a.265.265,0,0,0,.28.224q3.276-.112,4.984-.2a1.481,1.481,0,0,1,1.12.42,1.54,1.54,0,0,1,.5,1.092,1.5,1.5,0,0,1-.434,1.134,1.567,1.567,0,0,1-1.106.518l-4.536.168q-.224,0-.168.252a22.066,22.066,0,0,0,2.352,5.628,1.5,1.5,0,0,1,.14,1.176,1.364,1.364,0,0,1-.728.924l-.532.252a2.924,2.924,0,0,1-2.772-.056A11.61,11.61,0,0,0,128.9,21.04a5.544,5.544,0,0,0-3.3.854,2.708,2.708,0,0,0-1.176,2.31,3.3,3.3,0,0,0,1.736,2.982,10.189,10.189,0,0,0,5.18,1.05,35.582,35.582,0,0,0,5.236-.476,1.551,1.551,0,0,1,1.19.266,1.515,1.515,0,0,1,.658,1.022V29.1a1.425,1.425,0,0,1-.238,1.176,1.53,1.53,0,0,1-1.022.644,40.584,40.584,0,0,1-5.824.476q-5.376,0-8.008-2.016a6.4,6.4,0,0,1-2.632-5.348,5.419,5.419,0,0,1,2.128-4.48,9.308,9.308,0,0,1,5.908-1.68,12.922,12.922,0,0,1,4.76.924h.056a.081.081,0,0,0,.028-.056,20.3,20.3,0,0,1-1.512-4.284.3.3,0,0,0-.336-.224Q126.244,14.4,120.784,14.4ZM155.42,28.516a3.87,3.87,0,0,0,2.548-.63,3.2,3.2,0,0,0,.728-2.366.308.308,0,0,0-.224-.308,7.544,7.544,0,0,0-2.688-.588,4.655,4.655,0,0,0-2.366.448,1.508,1.508,0,0,0-.714,1.372,1.811,1.811,0,0,0,.714,1.526A3.232,3.232,0,0,0,155.42,28.516ZM149.176,13.48a1.626,1.626,0,0,1-1.6-1.6,1.487,1.487,0,0,1,.476-1.106,1.556,1.556,0,0,1,1.12-.462h9.268a.223.223,0,0,0,.252-.252V9.2a1.556,1.556,0,0,1,.462-1.12,1.487,1.487,0,0,1,1.106-.476h.392a1.487,1.487,0,0,1,1.106.476,1.556,1.556,0,0,1,.462,1.12v.868a.223.223,0,0,0,.252.252h5.348a1.556,1.556,0,0,1,1.12.462,1.487,1.487,0,0,1,.476,1.106,1.626,1.626,0,0,1-1.6,1.6h-5.348q-.252,0-.252.224v1.96a.223.223,0,0,0,.252.252h4.368a1.53,1.53,0,0,1,1.54,1.54,1.533,1.533,0,0,1-.448,1.106,1.463,1.463,0,0,1-1.092.462h-4.368a.223.223,0,0,0-.252.252v4.032a.429.429,0,0,0,.2.364,34.375,34.375,0,0,1,5.236,3.808,1.438,1.438,0,0,1,.532,1.092,1.517,1.517,0,0,1-.42,1.148l-.084.084a1.607,1.607,0,0,1-1.106.518,1.453,1.453,0,0,1-1.134-.406q-1.764-1.54-3.164-2.548-.2-.14-.252.084A4.68,4.68,0,0,1,160,30.686a8.66,8.66,0,0,1-4.578.994,7.156,7.156,0,0,1-4.662-1.386,4.7,4.7,0,0,1-1.694-3.85,4.512,4.512,0,0,1,1.554-3.57,7.159,7.159,0,0,1,4.8-1.358,10.958,10.958,0,0,1,3.052.42q.224.056.224-.168V19.276a.223.223,0,0,0-.252-.252h-8.288a1.53,1.53,0,0,1-1.54-1.54,1.533,1.533,0,0,1,.448-1.106,1.463,1.463,0,0,1,1.092-.462h8.288a.223.223,0,0,0,.252-.252V13.732a.223.223,0,0,0-.252-.252ZM191.75,7.992a1.451,1.451,0,0,1,1.848-.924,1.467,1.467,0,0,1,.882.728q.14.252.392.742t.392.742a1.418,1.418,0,0,1,.084,1.134,1.351,1.351,0,0,1-.756.826,1.42,1.42,0,0,1-1.106.056,1.466,1.466,0,0,1-.854-.728q-.14-.252-.392-.742t-.392-.742A1.357,1.357,0,0,1,191.75,7.992Zm7.014-.616.406.812.378.756a1.388,1.388,0,0,1,.084,1.12,1.452,1.452,0,0,1-.756.84,1.418,1.418,0,0,1-1.134.084,1.557,1.557,0,0,1-.882-.756q-.252-.5-.812-1.512a1.461,1.461,0,0,1-.1-1.134,1.4,1.4,0,0,1,.742-.854,1.511,1.511,0,0,1,1.176-.084A1.468,1.468,0,0,1,198.764,7.376ZM176.448,15.1a1.487,1.487,0,0,1-1.106-.476,1.556,1.556,0,0,1-.462-1.12,1.519,1.519,0,0,1,.476-1.134,1.589,1.589,0,0,1,1.148-.462q4.48,0,10.164-.14.28,0,.224-.252-.084-.644-.2-1.988a1.413,1.413,0,0,1,.378-1.12,1.6,1.6,0,0,1,1.078-.532h.392a1.551,1.551,0,0,1,1.134.406,1.575,1.575,0,0,1,.546,1.078q.112,1.316.2,2.044a.281.281,0,0,0,.308.224q3.388-.112,5.152-.2a1.481,1.481,0,0,1,1.12.42,1.54,1.54,0,0,1,.5,1.092,1.5,1.5,0,0,1-.434,1.134,1.567,1.567,0,0,1-1.106.518q-.756.028-2.31.1t-2.366.1q-.224,0-.168.224a21.377,21.377,0,0,0,2.24,5.236,1.435,1.435,0,0,1,.168,1.176,1.364,1.364,0,0,1-.728.924l-.56.252a2.924,2.924,0,0,1-2.772-.056,11.554,11.554,0,0,0-5.124-1.232,5.2,5.2,0,0,0-3.164.854,2.729,2.729,0,0,0-1.148,2.31,3.3,3.3,0,0,0,1.736,2.982,10.189,10.189,0,0,0,5.18,1.05,35.582,35.582,0,0,0,5.236-.476,1.551,1.551,0,0,1,1.19.266,1.515,1.515,0,0,1,.658,1.022l.028.056a1.509,1.509,0,0,1-.266,1.176,1.53,1.53,0,0,1-1.022.644,40.584,40.584,0,0,1-5.824.476q-5.376,0-8.008-2.016a6.4,6.4,0,0,1-2.632-5.348,5.446,5.446,0,0,1,2.1-4.48,8.943,8.943,0,0,1,5.74-1.68,12.993,12.993,0,0,1,4.788.924h.056v-.056a21.579,21.579,0,0,1-1.428-3.892.281.281,0,0,0-.308-.224Q180.9,15.1,176.448,15.1ZM211.42,28.516a3.87,3.87,0,0,0,2.548-.63,3.2,3.2,0,0,0,.728-2.366.308.308,0,0,0-.224-.308,7.544,7.544,0,0,0-2.688-.588,4.655,4.655,0,0,0-2.366.448,1.508,1.508,0,0,0-.714,1.372,1.811,1.811,0,0,0,.714,1.526A3.232,3.232,0,0,0,211.42,28.516ZM205.176,13.48a1.626,1.626,0,0,1-1.6-1.6,1.487,1.487,0,0,1,.476-1.106,1.556,1.556,0,0,1,1.12-.462h9.268a.223.223,0,0,0,.252-.252V9.2a1.556,1.556,0,0,1,.462-1.12,1.487,1.487,0,0,1,1.106-.476h.392a1.487,1.487,0,0,1,1.106.476,1.556,1.556,0,0,1,.462,1.12v.868a.223.223,0,0,0,.252.252h5.348a1.556,1.556,0,0,1,1.12.462,1.487,1.487,0,0,1,.476,1.106,1.626,1.626,0,0,1-1.6,1.6h-5.348q-.252,0-.252.224v1.96a.223.223,0,0,0,.252.252h4.368a1.53,1.53,0,0,1,1.54,1.54,1.533,1.533,0,0,1-.448,1.106,1.463,1.463,0,0,1-1.092.462h-4.368a.223.223,0,0,0-.252.252v4.032a.429.429,0,0,0,.2.364,34.375,34.375,0,0,1,5.236,3.808,1.438,1.438,0,0,1,.532,1.092,1.517,1.517,0,0,1-.42,1.148l-.084.084a1.607,1.607,0,0,1-1.106.518,1.453,1.453,0,0,1-1.134-.406q-1.764-1.54-3.164-2.548-.2-.14-.252.084A4.68,4.68,0,0,1,216,30.686a8.66,8.66,0,0,1-4.578.994,7.156,7.156,0,0,1-4.662-1.386,4.7,4.7,0,0,1-1.694-3.85,4.512,4.512,0,0,1,1.554-3.57,7.159,7.159,0,0,1,4.8-1.358,10.958,10.958,0,0,1,3.052.42q.224.056.224-.168V19.276a.223.223,0,0,0-.252-.252h-8.288a1.53,1.53,0,0,1-1.54-1.54,1.533,1.533,0,0,1,.448-1.106,1.463,1.463,0,0,1,1.092-.462h8.288a.223.223,0,0,0,.252-.252V13.732a.223.223,0,0,0-.252-.252Zm41.216,11.76v-.112a.327.327,0,0,0-.224-.336,6.332,6.332,0,0,0-2.772-.728,3.778,3.778,0,0,0-2.31.588,1.93,1.93,0,0,0-.77,1.624,2.024,2.024,0,0,0,.812,1.708,3.681,3.681,0,0,0,2.268.616,3.132,3.132,0,0,0,2.352-.7A4.028,4.028,0,0,0,246.392,25.24Zm7.2-13.832a1.451,1.451,0,0,1,1.078.588,1.588,1.588,0,0,1,.322,1.2,1.478,1.478,0,0,1-.616,1.036,1.573,1.573,0,0,1-1.176.308,28.874,28.874,0,0,0-3.024-.224q-.224,0-.224.252v8.484a.451.451,0,0,0,.168.364,31.446,31.446,0,0,1,4.032,3.024,1.438,1.438,0,0,1,.532,1.092,1.517,1.517,0,0,1-.42,1.148l-.084.084a1.65,1.65,0,0,1-1.092.532,1.524,1.524,0,0,1-1.148-.364q-.42-.364-1.148-.938t-.84-.658q-.168-.112-.224.056a4.762,4.762,0,0,1-2,3.178A7.825,7.825,0,0,1,243.4,31.6a7.478,7.478,0,0,1-4.858-1.428,4.755,4.755,0,0,1-1.75-3.892,4.686,4.686,0,0,1,1.722-3.822A7.508,7.508,0,0,1,243.4,21.04a9.768,9.768,0,0,1,2.8.476q.2.056.2-.168V12.64a1.556,1.556,0,0,1,.462-1.12,1.4,1.4,0,0,1,1.106-.448Q251.544,11.184,253.588,11.408ZM231.44,27.676a1.346,1.346,0,0,1-.868-.784,1.581,1.581,0,0,1-.028-1.2q2.128-5.4,3.864-11.228.056-.224-.168-.224h-2.072a1.487,1.487,0,0,1-1.106-.476,1.589,1.589,0,0,1,0-2.24,1.487,1.487,0,0,1,1.106-.476h2.968a.281.281,0,0,0,.308-.224q.112-.364.28-1.092T236,8.636a1.721,1.721,0,0,1,.728-1.022,1.747,1.747,0,0,1,1.232-.294h.2a1.343,1.343,0,0,1,.994.616,1.432,1.432,0,0,1,.21,1.148q-.28,1.176-.42,1.736-.056.224.2.224h2.828a1.584,1.584,0,0,1,1.12,2.716,1.533,1.533,0,0,1-1.12.476h-3.7a.288.288,0,0,0-.308.252,125.476,125.476,0,0,1-4.172,12.292,1.7,1.7,0,0,1-.854.91,1.564,1.564,0,0,1-1.246.07Zm43.316-11.928a1.573,1.573,0,0,1,1.232-.112,1.538,1.538,0,0,1,.952.784q.308.56.924,1.736a1.5,1.5,0,0,1,.056,1.2,1.538,1.538,0,0,1-.812.9,1.573,1.573,0,0,1-1.232.056,1.647,1.647,0,0,1-.924-.812q-.14-.252-.9-1.652a1.439,1.439,0,0,1-.112-1.176,1.536,1.536,0,0,1,.784-.924Zm4.676,2.912q-.14-.28-.448-.868t-.476-.868a1.539,1.539,0,0,1-.126-1.2,1.4,1.4,0,0,1,.77-.924l.084-.028a1.617,1.617,0,0,1,1.232-.126,1.488,1.488,0,0,1,.952.77q.924,1.764.952,1.82a1.53,1.53,0,0,1-.7,2.1l-.084.056a1.648,1.648,0,0,1-2.156-.728Zm-.812-7.9a1.626,1.626,0,0,1-1.6,1.6H263.7a1.626,1.626,0,0,1-1.6-1.6V10.68a1.626,1.626,0,0,1,1.6-1.6h13.328a1.626,1.626,0,0,1,1.6,1.6ZM270.3,31.316a15.545,15.545,0,0,1-7.868-1.68,5.052,5.052,0,0,1-2.856-4.48q0-2.6,3.22-6.02a1.6,1.6,0,0,1,1.148-.546,1.752,1.752,0,0,1,1.232.378l.2.14a1.285,1.285,0,0,1,.546,1.008,1.4,1.4,0,0,1-.378,1.092q-2.128,2.268-2.128,3.556a2.621,2.621,0,0,0,1.792,2.324,11.982,11.982,0,0,0,5.1.868,37.217,37.217,0,0,0,7.784-.924,1.524,1.524,0,0,1,1.19.21,1.407,1.407,0,0,1,.658.966l.056.224a1.606,1.606,0,0,1-.21,1.218,1.5,1.5,0,0,1-.994.714A42.29,42.29,0,0,1,270.3,31.316ZM293.32,21.124l.322-.406.322-.406q.112-.168-.084-.168h-4.9a1.626,1.626,0,0,1-1.6-1.6V13.816a1.626,1.626,0,0,1,1.6-1.6h4.088a.223.223,0,0,0,.252-.252v-.756q0-.224-.252-.224h-5.376a1.477,1.477,0,0,1-1.064-.434,1.521,1.521,0,0,1,0-2.156,1.477,1.477,0,0,1,1.064-.434h21.616a1.477,1.477,0,0,1,1.064.434,1.521,1.521,0,0,1,0,2.156,1.477,1.477,0,0,1-1.064.434h-5.376q-.252,0-.252.224v.756a.223.223,0,0,0,.252.252h4.088a1.626,1.626,0,0,1,1.6,1.6v4.732a1.626,1.626,0,0,1-1.6,1.6h-9.464a.377.377,0,0,0-.336.168q-.224.364-.532.812-.14.2.084.2h11.7a1.428,1.428,0,0,1,0,2.856h-2.548a.466.466,0,0,0-.364.224,12.319,12.319,0,0,1-2.6,2.94q-.056.028-.042.112a.135.135,0,0,0,.1.112q2.576.84,4.872,1.708a1.26,1.26,0,0,1,.756.8,1.126,1.126,0,0,1-.168,1.078l-.112.2a1.915,1.915,0,0,1-1.078.756,1.835,1.835,0,0,1-1.3-.084q-3.332-1.428-6.328-2.436a.546.546,0,0,0-.448.028,38.741,38.741,0,0,1-11.256,2.632,1.824,1.824,0,0,1-1.232-.336,1.914,1.914,0,0,1-.756-1.036,1.258,1.258,0,0,1,.168-1.092,1.146,1.146,0,0,1,.952-.532,45.572,45.572,0,0,0,7.28-1.12q.112-.056.028-.112-.672-.168-3.332-.756a.507.507,0,0,0-.364.084,2.091,2.091,0,0,1-2.436.168l-.308-.168a1,1,0,0,1-.546-.84,1.031,1.031,0,0,1,.406-.924q.924-.784,1.428-1.232.056-.112-.084-.168h-2.632a1.428,1.428,0,0,1,0-2.856H292.9A.482.482,0,0,0,293.32,21.124Zm.056-3.864V14.992q0-.224-.252-.224h-2.24a.2.2,0,0,0-.224.224V17.26a.2.2,0,0,0,.224.224h2.24Q293.376,17.484,293.376,17.26Zm10.248-2.268V17.26q0,.224.252.224h2.24a.2.2,0,0,0,.224-.224V14.992a.2.2,0,0,0-.224-.224h-2.24Q303.624,14.768,303.624,14.992Zm-6.664-3.78v.756a.223.223,0,0,0,.252.252h2.576a.223.223,0,0,0,.252-.252v-.756q0-.224-.252-.224h-2.576Q296.96,10.988,296.96,11.212Zm-.056,3.78V17.26q0,.224.252.224h2.688q.252,0,.252-.224V14.992q0-.224-.252-.224h-2.688Q296.9,14.768,296.9,14.992Zm-2.436,9.94a.109.109,0,0,0-.028.126.177.177,0,0,0,.084.1q2.492.476,5.208,1.176a.582.582,0,0,0,.448-.056,10.18,10.18,0,0,0,2.464-1.932.078.078,0,0,0,.014-.112.121.121,0,0,0-.1-.056h-7.112a.589.589,0,0,0-.42.2Zm29.876,4.088q.252,0,.252-.224v-.812a.223.223,0,0,0-.252-.252h-6.356a1.265,1.265,0,0,1-.91-.364,1.2,1.2,0,0,1-.378-.9,1.291,1.291,0,0,1,1.288-1.288h6.356a.223.223,0,0,0,.252-.252V24.2q0-.224-.252-.224h-7.868a1.372,1.372,0,0,1,0-2.744h9.156q.028,0,.028-.042t-.028-.042a1.738,1.738,0,0,1-.616-.448l-.924-1.064a.436.436,0,0,0-.392-.168q-1.792.168-3.416.168a23.726,23.726,0,0,1-2.408-.112,2.7,2.7,0,0,1-1.68-.6,2.786,2.786,0,0,1-.42-1.806v-4.7q0-.2-.224-.2a1.386,1.386,0,0,1-1.372-1.372v-.112a1.477,1.477,0,0,1,.434-1.064,1.408,1.408,0,0,1,1.05-.448h2.38q.252,0,.252-.224V8.8a1.577,1.577,0,0,1,1.568-1.568h.56a1.556,1.556,0,0,1,1.12.462A1.487,1.487,0,0,1,322.02,8.8V9a.2.2,0,0,0,.224.224h2.632a1.408,1.408,0,0,1,1.05.448,1.477,1.477,0,0,1,.434,1.064,1.482,1.482,0,0,1-1.484,1.484H319.5a.2.2,0,0,0-.224.224v3.08a1.784,1.784,0,0,0,.1.8q.1.126.63.182,1.12.056,1.68.056.42,0,1.54-.056a1.455,1.455,0,0,1,1.134.378,1.473,1.473,0,0,1,.518,1.078v.224a.066.066,0,0,0,.056.07.116.116,0,0,0,.112-.042q2.352-3.024,2.632-8.736a1.54,1.54,0,0,1,.5-1.092,1.581,1.581,0,0,1,1.12-.448h7.784a1.487,1.487,0,0,1,1.106.476,1.458,1.458,0,0,1,.434,1.12,68.887,68.887,0,0,1-.63,8.372q-.434,2.492-1.386,3.192-.056.056-.028.1a.094.094,0,0,0,.084.042,1.329,1.329,0,0,1,.882.448,1.342,1.342,0,0,1,.35.924,1.386,1.386,0,0,1-1.372,1.372h-7.868q-.252,0-.252.224v.728a.223.223,0,0,0,.252.252h6.356a1.291,1.291,0,0,1,1.288,1.288,1.2,1.2,0,0,1-.378.9,1.265,1.265,0,0,1-.91.364h-6.356a.223.223,0,0,0-.252.252V28.8q0,.224.252.224h8.68a1.408,1.408,0,0,1,1.05.448,1.477,1.477,0,0,1,.434,1.064,1.482,1.482,0,0,1-1.484,1.484H315.664a1.482,1.482,0,0,1-1.484-1.484,1.477,1.477,0,0,1,.434-1.064,1.408,1.408,0,0,1,1.05-.448Zm6.328-17.92a1.921,1.921,0,0,0-.028.364,1.919,1.919,0,0,1-.028.364q0,.2.224.2h4q.252,0,.252-.224,0-.112.014-.35t.014-.378a.2.2,0,0,0-.224-.224h-3.976A.223.223,0,0,0,330.672,11.1Zm-.476,3.388q-.112.5-.168.728t.168.224h4.4q.252,0,.252-.224a2.163,2.163,0,0,0,.042-.364q.014-.252.014-.364a.2.2,0,0,0-.224-.224h-4.2A.265.265,0,0,0,330.2,14.488Zm-3.024,6.3a1.577,1.577,0,0,1-.532.392.081.081,0,0,1,.028.056h4.508q.056,0,.07-.07a.08.08,0,0,0-.042-.1,1.425,1.425,0,0,1-.448-.952,1.072,1.072,0,0,1,.322-.854.994.994,0,0,1,.854-.294q.588.056,1.344.056a.99.99,0,0,0,.686-.238,1.985,1.985,0,0,0,.462-.91q.056-.224-.2-.224h-4.816a.347.347,0,0,0-.364.224A12.784,12.784,0,0,1,327.172,20.788ZM46.584,52.484H55.46a1.626,1.626,0,0,1,1.6,1.6v.084a1.626,1.626,0,0,1-1.6,1.6H46.584a1.487,1.487,0,0,1-1.106-.476,1.556,1.556,0,0,1-.462-1.12V54.08a1.556,1.556,0,0,1,.462-1.12A1.487,1.487,0,0,1,46.584,52.484Zm-8.036,20.86a1.747,1.747,0,0,1-1.232-.294,1.618,1.618,0,0,1-.7-1.05,49.556,49.556,0,0,1,0-20.16,1.618,1.618,0,0,1,.7-1.05,1.747,1.747,0,0,1,1.232-.294l.532.056a1.281,1.281,0,0,1,.98.588,1.4,1.4,0,0,1,.224,1.148,44.53,44.53,0,0,0-.98,9.632,44.53,44.53,0,0,0,.98,9.632A1.4,1.4,0,0,1,40.06,72.7a1.281,1.281,0,0,1-.98.588Zm12.628-.98a11.085,11.085,0,0,1-6.23-1.526,4.687,4.687,0,0,1-2.282-4.074q0-2.184,2.408-4.9a1.51,1.51,0,0,1,1.148-.518,1.762,1.762,0,0,1,1.2.406l.14.084a1.327,1.327,0,0,1,.532,1.036,1.532,1.532,0,0,1-.392,1.12,4.7,4.7,0,0,0-1.344,2.632q0,2.38,4.816,2.38a26.942,26.942,0,0,0,4.564-.42,1.584,1.584,0,0,1,1.82,1.26v.112a1.679,1.679,0,0,1-.252,1.232,1.456,1.456,0,0,1-1.008.672A26.063,26.063,0,0,1,51.176,72.364Zm18.9-9.016a6.96,6.96,0,0,0-2.968,1.6A3.077,3.077,0,0,0,66.1,67.156a2.641,2.641,0,0,0,.882,1.946,2.715,2.715,0,0,0,1.918.854,1.436,1.436,0,0,0,1.106-.336,1.974,1.974,0,0,0,.294-1.26V63.516Q70.3,63.292,70.076,63.348Zm-.812,9.772A6.961,6.961,0,0,1,64.5,71.4a5.428,5.428,0,0,1-1.96-4.242,6.031,6.031,0,0,1,1.974-4.368,11.752,11.752,0,0,1,5.558-2.856.281.281,0,0,0,.224-.308V56.1a.223.223,0,0,0-.252-.252H65.26a1.484,1.484,0,1,1,0-2.968h4.788a.223.223,0,0,0,.252-.252V51a1.626,1.626,0,0,1,1.6-1.6h.364a1.626,1.626,0,0,1,1.6,1.6v1.624q0,.252.224.252H78.5a1.477,1.477,0,0,1,1.064.434,1.454,1.454,0,0,1,0,2.1,1.477,1.477,0,0,1-1.064.434H74.08q-.224,0-.224.252V59.12q0,.224.252.224.448-.028,1.428-.028a10.788,10.788,0,0,1,6.692,1.932,5.717,5.717,0,0,1,2.548,4.676q0,5.964-6.44,7.308a1.552,1.552,0,0,1-1.232-.238,1.728,1.728,0,0,1-.728-1.05l-.028-.084a1.432,1.432,0,0,1,.21-1.148,1.521,1.521,0,0,1,.966-.672,5.226,5.226,0,0,0,2.744-1.414,3.607,3.607,0,0,0,.868-2.506A2.914,2.914,0,0,0,79.61,63.7a7.216,7.216,0,0,0-4.074-1.022q-.98,0-1.428.028a.223.223,0,0,0-.252.252v5.6q0,2.576-1.008,3.57A5.064,5.064,0,0,1,69.264,73.12ZM84.3,52.988q1.512,2.044,2.632,3.836a1.448,1.448,0,0,1,.182,1.162,1.425,1.425,0,0,1-.686.938,1.57,1.57,0,0,1-1.176.154,1.522,1.522,0,0,1-.952-.686q-1.344-2.1-2.464-3.64a1.5,1.5,0,0,1-.28-1.12,1.4,1.4,0,0,1,.588-.98,1.564,1.564,0,0,1,1.162-.266A1.453,1.453,0,0,1,84.3,52.988Zm6.916,20.384-.588-.7a2.519,2.519,0,0,1-.42-2.66,20.038,20.038,0,0,0,.91-4.34,69.351,69.351,0,0,0,.266-6.972V52.9A1.487,1.487,0,0,1,91.86,51.8a1.556,1.556,0,0,1,1.12-.462h8.484a.223.223,0,0,0,.252-.252V50.16a1.556,1.556,0,0,1,.462-1.12,1.487,1.487,0,0,1,1.106-.476h.672a1.487,1.487,0,0,1,1.106.476,1.556,1.556,0,0,1,.462,1.12v.924a.223.223,0,0,0,.252.252h7.98a1.5,1.5,0,0,1,1.078.448,1.522,1.522,0,0,1,0,2.184,1.5,1.5,0,0,1-1.078.448H95.192q-.252,0-.252.224v6.776q0,7.42-1.988,11.76a.905.905,0,0,1-.8.588A1.015,1.015,0,0,1,91.216,73.372Zm7-11.956.14.028a1.732,1.732,0,0,1,1.05.686,1.493,1.493,0,0,1,.294,1.19,51.8,51.8,0,0,1-1.848,8.2,1.384,1.384,0,0,1-.812.882,1.465,1.465,0,0,1-1.2.014l-.224-.112a1.7,1.7,0,0,1-.952-2.128,58.5,58.5,0,0,0,1.764-7.532,1.433,1.433,0,0,1,.644-.994A1.523,1.523,0,0,1,98.216,61.416Zm7.42,12.908q-1.344,0-2.1-.028a8.55,8.55,0,0,1-1.428-.168,3.085,3.085,0,0,1-.938-.308,1.5,1.5,0,0,1-.49-.616,2.359,2.359,0,0,1-.252-.924q-.028-.476-.028-1.344V60.52a1.626,1.626,0,0,1,1.6-1.6h.56a1.487,1.487,0,0,1,1.106.476,1.556,1.556,0,0,1,.462,1.12v9.6q0,.728.21.854a4.469,4.469,0,0,0,1.47.126,10.179,10.179,0,0,0,1.148-.042,1.062,1.062,0,0,0,.616-.378,1.561,1.561,0,0,0,.364-.938q.056-.6.112-1.89a1.487,1.487,0,0,1,1.624-1.428l.252.028a1.664,1.664,0,0,1,1.106.6,1.684,1.684,0,0,1,.406,1.19q-.056,1.176-.112,1.946a10.321,10.321,0,0,1-.21,1.47,7.578,7.578,0,0,1-.308,1.092,1.983,1.983,0,0,1-.518.728,2.541,2.541,0,0,1-.686.476,4.2,4.2,0,0,1-1.008.238,10.934,10.934,0,0,1-1.288.112Q106.7,74.324,105.636,74.324Zm-4.4-16.94a1.372,1.372,0,0,1-.9-.658,1.225,1.225,0,0,1-.112-1.078,1.726,1.726,0,0,1,.784-.966,1.745,1.745,0,0,1,1.2-.21,45.371,45.371,0,0,1,7.476,2.072,1.434,1.434,0,0,1,.868.826,1.607,1.607,0,0,1-.854,2.086,1.618,1.618,0,0,1-1.218.028A49.705,49.705,0,0,0,101.24,57.384ZM111.8,60.968a1.528,1.528,0,0,1,1.246.084,1.638,1.638,0,0,1,.826.924,63.933,63.933,0,0,1,2.324,8.232,1.532,1.532,0,0,1-.224,1.2,1.786,1.786,0,0,1-1.008.756l-.392.112a1.488,1.488,0,0,1-1.176-.154,1.31,1.31,0,0,1-.672-.938,63.6,63.6,0,0,0-2.212-8.148,1.467,1.467,0,0,1,.056-1.19,1.443,1.443,0,0,1,.9-.77Zm8.428,11.144-.14-.224a1.573,1.573,0,0,1,.336-2.212l13.72-10.024a.025.025,0,0,0,.028-.028q0-.028-.056-.028H122.744a1.6,1.6,0,0,1,0-3.192h14.9a1.626,1.626,0,0,1,1.6,1.6v.476a3.032,3.032,0,0,1-1.26,2.548l-4.62,3.444V64.5q0,.028.056.028h.028a1.46,1.46,0,0,1,1.176.658,6.759,6.759,0,0,1,.924,2.31,4.1,4.1,0,0,0,.854,1.96,3,3,0,0,0,1.834.392,13.643,13.643,0,0,0,1.792-.14,1.731,1.731,0,0,1,1.2.266,1.418,1.418,0,0,1,.644.966l.028.056a1.473,1.473,0,0,1-.252,1.2,1.55,1.55,0,0,1-1.036.672,19.743,19.743,0,0,1-2.744.252,7.144,7.144,0,0,1-3.808-.8,4.3,4.3,0,0,1-1.708-2.73,7.4,7.4,0,0,0-.77-2.072,1.088,1.088,0,0,0-.91-.56,3.583,3.583,0,0,0-1.638.728q-1.106.728-6.594,4.76a1.548,1.548,0,0,1-1.19.294A1.441,1.441,0,0,1,120.224,72.112Zm5.516-21.924q4.508.56,9.884.7a1.665,1.665,0,0,1,1.12.49,1.487,1.487,0,0,1,.476,1.106V52.6a1.556,1.556,0,0,1-.462,1.12,1.4,1.4,0,0,1-1.106.448q-4.956-.14-10.332-.812a1.525,1.525,0,0,1-1.05-.616,1.543,1.543,0,0,1-.322-1.176,1.525,1.525,0,0,1,.616-1.05A1.543,1.543,0,0,1,125.74,50.188Zm40.768,18.536a41.97,41.97,0,0,0-2.884-14.056,1.478,1.478,0,0,1,.028-1.162,1.349,1.349,0,0,1,.868-.77l.392-.112a1.728,1.728,0,0,1,1.274.1,1.8,1.8,0,0,1,.91.91,41.261,41.261,0,0,1,3.136,15.092,1.438,1.438,0,0,1-.448,1.12,1.533,1.533,0,0,1-1.12.476h-.56A1.487,1.487,0,0,1,167,69.844,1.665,1.665,0,0,1,166.508,68.724Zm-12.684,4.592q-2.38,0-4.41-3.248a14.555,14.555,0,0,1-2.03-7.868,35.2,35.2,0,0,1,.98-8.288,1.712,1.712,0,0,1,.742-1.05,1.846,1.846,0,0,1,1.274-.294l.476.056a1.242,1.242,0,0,1,.966.588,1.432,1.432,0,0,1,.21,1.148,35.584,35.584,0,0,0-.9,7.84,12.331,12.331,0,0,0,.994,5.236q.994,2.128,1.974,2.128.616,0,1.6-1.19a15.354,15.354,0,0,0,1.988-3.458,1.7,1.7,0,0,1,.882-.882,1.576,1.576,0,0,1,1.218-.042l.308.112a1.532,1.532,0,0,1,.9.826,1.4,1.4,0,0,1,.028,1.19,15.629,15.629,0,0,1-3.416,5.292A5.68,5.68,0,0,1,153.824,73.316Zm33.992-11.7a1.532,1.532,0,0,1-1.652-1.4,1.569,1.569,0,0,1,.364-1.162,1.489,1.489,0,0,1,1.064-.574q4.312-.448,8.456-.476a1.463,1.463,0,0,1,1.092.462,1.533,1.533,0,0,1,.448,1.106,1.577,1.577,0,0,1-1.568,1.568Q191.568,61.22,187.816,61.612Zm8.428,8.036a1.529,1.529,0,0,1,1.162.308,1.493,1.493,0,0,1,.6,1.036,1.619,1.619,0,0,1-.308,1.2,1.478,1.478,0,0,1-1.036.616,32.711,32.711,0,0,1-4.34.308,11.742,11.742,0,0,1-6.174-1.414,4.171,4.171,0,0,1-2.31-3.626,4.85,4.85,0,0,1,1.652-3.332,1.74,1.74,0,0,1,1.162-.518,2,2,0,0,1,1.246.322,1.081,1.081,0,0,1,.518.868,1.245,1.245,0,0,1-.35.98,1.96,1.96,0,0,0-.7,1.316q0,.98,1.33,1.61a8.6,8.6,0,0,0,3.626.63A29.246,29.246,0,0,0,196.244,69.648Zm-20.02,3.528a1.4,1.4,0,0,1-.938-.7,1.337,1.337,0,0,1-.1-1.176,148.435,148.435,0,0,0,4.088-15.288q.056-.252-.168-.252H177.12a1.626,1.626,0,0,1-1.6-1.6A1.487,1.487,0,0,1,176,53.058a1.556,1.556,0,0,1,1.12-.462h2.6a.265.265,0,0,0,.28-.224q.224-1.064.308-1.6a1.787,1.787,0,0,1,.658-1.078,1.641,1.641,0,0,1,1.19-.35l.364.028a1.4,1.4,0,0,1,1.036.574,1.44,1.44,0,0,1,.28,1.162q-.028.224-.112.616t-.112.616a.169.169,0,0,0,.042.168.2.2,0,0,0,.154.084h7.952a1.556,1.556,0,0,1,1.12.462,1.487,1.487,0,0,1,.476,1.106,1.626,1.626,0,0,1-1.6,1.6h-8.54a.281.281,0,0,0-.308.224,144.525,144.525,0,0,1-4.2,16.128,1.58,1.58,0,0,1-.8.966,1.769,1.769,0,0,1-1.246.182Zm37.8.42q-4.76,0-6.58-2.31t-1.82-8.526q0-5.068.308-10.92a1.7,1.7,0,0,1,.518-1.12,1.473,1.473,0,0,1,1.134-.42h.672a1.555,1.555,0,0,1,1.484,1.624q-.28,6.02-.28,10.836a16.478,16.478,0,0,0,.49,4.606,3.56,3.56,0,0,0,1.414,2.128,5.287,5.287,0,0,0,2.66.546q4.844,0,7.9-6.608a1.712,1.712,0,0,1,.882-.854,1.576,1.576,0,0,1,1.218-.042l.364.168a1.527,1.527,0,0,1,.9.84,1.364,1.364,0,0,1,0,1.2Q221.444,73.6,214.024,73.6Zm25.4-3.08a3.871,3.871,0,0,0,2.548-.63,3.2,3.2,0,0,0,.728-2.366.308.308,0,0,0-.224-.308,7.544,7.544,0,0,0-2.688-.588,4.655,4.655,0,0,0-2.366.448,1.508,1.508,0,0,0-.714,1.372,1.811,1.811,0,0,0,.714,1.526A3.232,3.232,0,0,0,239.42,70.516ZM233.176,55.48a1.626,1.626,0,0,1-1.6-1.6,1.487,1.487,0,0,1,.476-1.106,1.556,1.556,0,0,1,1.12-.462h9.268a.223.223,0,0,0,.252-.252V51.2a1.556,1.556,0,0,1,.462-1.12,1.487,1.487,0,0,1,1.106-.476h.392a1.487,1.487,0,0,1,1.106.476,1.556,1.556,0,0,1,.462,1.12v.868a.223.223,0,0,0,.252.252h5.348a1.556,1.556,0,0,1,1.12.462,1.487,1.487,0,0,1,.476,1.106,1.626,1.626,0,0,1-1.6,1.6h-5.348q-.252,0-.252.224v1.96a.223.223,0,0,0,.252.252h4.368a1.53,1.53,0,0,1,1.54,1.54,1.533,1.533,0,0,1-.448,1.106,1.463,1.463,0,0,1-1.092.462h-4.368a.223.223,0,0,0-.252.252v4.032a.429.429,0,0,0,.2.364,34.375,34.375,0,0,1,5.236,3.808,1.438,1.438,0,0,1,.532,1.092,1.517,1.517,0,0,1-.42,1.148l-.084.084a1.607,1.607,0,0,1-1.106.518,1.453,1.453,0,0,1-1.134-.406q-1.764-1.54-3.164-2.548-.2-.14-.252.084A4.68,4.68,0,0,1,244,72.686a8.66,8.66,0,0,1-4.578.994,7.156,7.156,0,0,1-4.662-1.386,4.7,4.7,0,0,1-1.694-3.85,4.512,4.512,0,0,1,1.554-3.57,7.159,7.159,0,0,1,4.8-1.358,10.958,10.958,0,0,1,3.052.42q.224.056.224-.168V61.276a.223.223,0,0,0-.252-.252h-8.288a1.53,1.53,0,0,1-1.54-1.54,1.533,1.533,0,0,1,.448-1.106,1.463,1.463,0,0,1,1.092-.462h8.288a.223.223,0,0,0,.252-.252V55.732a.223.223,0,0,0-.252-.252ZM271.2,63.726a2.472,2.472,0,0,0,0-3.612,3.2,3.2,0,0,0-4.032,0,2.472,2.472,0,0,0,0,3.612,3.2,3.2,0,0,0,4.032,0ZM259.86,55.2a1.482,1.482,0,0,1-1.484-1.484,1.477,1.477,0,0,1,.434-1.064,1.408,1.408,0,0,1,1.05-.448h11.508q.252,0,.252-.224V50.72a1.626,1.626,0,0,1,1.6-1.6h.364a1.626,1.626,0,0,1,1.6,1.6v1.232q0,.252.224.252h5.74a1.408,1.408,0,0,1,1.05.448,1.477,1.477,0,0,1,.434,1.064A1.482,1.482,0,0,1,281.14,55.2H275.4q-.224,0-.224.252V60.52a1.207,1.207,0,0,0,.084.476,9.772,9.772,0,0,1,.644,3.528,8.5,8.5,0,0,1-2.072,6.132q-2.072,2.156-6.86,2.912a1.467,1.467,0,0,1-1.19-.308A1.79,1.79,0,0,1,265.1,72.2v-.112a1.421,1.421,0,0,1,.266-1.134,1.546,1.546,0,0,1,1.022-.63,10.823,10.823,0,0,0,4.312-1.358,4.015,4.015,0,0,0,1.624-2.534.124.124,0,0,1,.014-.056.125.125,0,0,0,.014-.056v-.028h-.084a5.626,5.626,0,0,1-3.64,1.148,5.738,5.738,0,0,1-4.158-1.554,5.268,5.268,0,0,1-1.61-3.962,5.211,5.211,0,0,1,1.638-3.976,5.942,5.942,0,0,1,4.242-1.54,6.287,6.287,0,0,1,2.8.644q.028,0,.028.014t.028.014a.025.025,0,0,0,.028-.028v-1.6a.223.223,0,0,0-.252-.252Zm38.472,10.64a1.589,1.589,0,0,1-1.148-.462,1.618,1.618,0,0,1-.5-1.134l-.42-11.088a1.481,1.481,0,0,1,.42-1.12,1.443,1.443,0,0,1,1.092-.476h1.512a1.443,1.443,0,0,1,1.092.476,1.481,1.481,0,0,1,.42,1.12l-.42,11.088a1.618,1.618,0,0,1-.5,1.134,1.589,1.589,0,0,1-1.148.462ZM299,68.08a1.487,1.487,0,0,1,1.106.476,1.556,1.556,0,0,1,.462,1.12V70.4a1.556,1.556,0,0,1-.462,1.12A1.487,1.487,0,0,1,299,72h-.952a1.487,1.487,0,0,1-1.106-.476,1.556,1.556,0,0,1-.462-1.12v-.728a1.556,1.556,0,0,1,.462-1.12,1.487,1.487,0,0,1,1.106-.476Z" transform="translate(363 3173)" fill="#1a1311"/><g transform="translate(394.698 3252.761)" clip-path="url(#b)"><g transform="translate(-15 -247.999)"><path d="M645.258,358.01a5.619,5.619,0,0,0-3.635,1.243,6.648,6.648,0,0,1-8.1,0,5.623,5.623,0,0,0-3.636-1.243s-.008-.874,0-.874a6.5,6.5,0,0,1,4.049,1.375,5.928,5.928,0,0,0,7.272,0,6.315,6.315,0,0,1,4.049-1.375Z" transform="translate(-614.884 -109.135)" fill="#eb6d4e"/></g><g transform="translate(0 -247.999)"><path d="M645.258,358.01a5.619,5.619,0,0,0-3.635,1.243,6.648,6.648,0,0,1-8.1,0,5.623,5.623,0,0,0-3.636-1.243s-.008-.874,0-.874a6.5,6.5,0,0,1,4.049,1.375,5.928,5.928,0,0,0,7.272,0,6.315,6.315,0,0,1,4.049-1.375Z" transform="translate(-614.884 -109.135)" fill="#eb6d4e"/></g><g transform="translate(15 -247.999)"><path d="M645.258,358.01a5.619,5.619,0,0,0-3.635,1.243,6.648,6.648,0,0,1-8.1,0,5.623,5.623,0,0,0-3.636-1.243s-.008-.874,0-.874a6.5,6.5,0,0,1,4.049,1.375,5.928,5.928,0,0,0,7.272,0,6.315,6.315,0,0,1,4.049-1.375Z" transform="translate(-614.884 -109.135)" fill="#eb6d4e"/></g><g transform="translate(30 -247.999)"><path d="M645.258,358.01a5.619,5.619,0,0,0-3.635,1.243,6.648,6.648,0,0,1-8.1,0,5.623,5.623,0,0,0-3.636-1.243s-.008-.874,0-.874a6.5,6.5,0,0,1,4.049,1.375,5.928,5.928,0,0,0,7.272,0,6.315,6.315,0,0,1,4.049-1.375Z" transform="translate(-614.884 -109.135)" fill="#eb6d4e"/></g><g transform="translate(45 -247.999)"><path d="M645.258,358.01a5.619,5.619,0,0,0-3.635,1.243,6.648,6.648,0,0,1-8.1,0,5.623,5.623,0,0,0-3.636-1.243s-.008-.874,0-.874a6.5,6.5,0,0,1,4.049,1.375,5.928,5.928,0,0,0,7.272,0,6.315,6.315,0,0,1,4.049-1.375Z" transform="translate(-614.884 -109.135)" fill="#eb6d4e"/></g><g transform="translate(60 -247.999)"><path d="M645.258,358.01a5.619,5.619,0,0,0-3.635,1.243,6.648,6.648,0,0,1-8.1,0,5.623,5.623,0,0,0-3.636-1.243s-.008-.874,0-.874a6.5,6.5,0,0,1,4.049,1.375,5.928,5.928,0,0,0,7.272,0,6.315,6.315,0,0,1,4.049-1.375Z" transform="translate(-614.884 -109.135)" fill="#eb6d4e"/></g><g transform="translate(75 -247.999)"><path d="M645.258,358.01a5.619,5.619,0,0,0-3.635,1.243,6.648,6.648,0,0,1-8.1,0,5.623,5.623,0,0,0-3.636-1.243s-.008-.874,0-.874a6.5,6.5,0,0,1,4.049,1.375,5.928,5.928,0,0,0,7.272,0,6.315,6.315,0,0,1,4.049-1.375Z" transform="translate(-614.884 -109.135)" fill="#eb6d4e"/></g><g transform="translate(90 -247.999)"><path d="M645.258,358.01a5.619,5.619,0,0,0-3.635,1.243,6.648,6.648,0,0,1-8.1,0,5.623,5.623,0,0,0-3.636-1.243s-.008-.874,0-.874a6.5,6.5,0,0,1,4.049,1.375,5.928,5.928,0,0,0,7.272,0,6.315,6.315,0,0,1,4.049-1.375Z" transform="translate(-614.884 -109.135)" fill="#eb6d4e"/></g><g transform="translate(105 -247.999)"><path d="M645.258,358.01a5.619,5.619,0,0,0-3.635,1.243,6.648,6.648,0,0,1-8.1,0,5.623,5.623,0,0,0-3.636-1.243s-.008-.874,0-.874a6.5,6.5,0,0,1,4.049,1.375,5.928,5.928,0,0,0,7.272,0,6.315,6.315,0,0,1,4.049-1.375Z" transform="translate(-614.884 -109.135)" fill="#eb6d4e"/></g><g transform="translate(120 -247.999)"><path d="M645.258,358.01a5.619,5.619,0,0,0-3.635,1.243,6.648,6.648,0,0,1-8.1,0,5.623,5.623,0,0,0-3.636-1.243s-.008-.874,0-.874a6.5,6.5,0,0,1,4.049,1.375,5.928,5.928,0,0,0,7.272,0,6.315,6.315,0,0,1,4.049-1.375Z" transform="translate(-614.884 -109.135)" fill="#eb6d4e"/></g><g transform="translate(135 -247.999)"><path d="M645.258,358.01a5.619,5.619,0,0,0-3.635,1.243,6.648,6.648,0,0,1-8.1,0,5.623,5.623,0,0,0-3.636-1.243s-.008-.874,0-.874a6.5,6.5,0,0,1,4.049,1.375,5.928,5.928,0,0,0,7.272,0,6.315,6.315,0,0,1,4.049-1.375Z" transform="translate(-614.884 -109.135)" fill="#eb6d4e"/></g><g transform="translate(150 -247.999)"><path d="M645.258,358.01a5.619,5.619,0,0,0-3.635,1.243,6.648,6.648,0,0,1-8.1,0,5.623,5.623,0,0,0-3.636-1.243s-.008-.874,0-.874a6.5,6.5,0,0,1,4.049,1.375,5.928,5.928,0,0,0,7.272,0,6.315,6.315,0,0,1,4.049-1.375Z" transform="translate(-614.884 -109.135)" fill="#eb6d4e"/></g><g transform="translate(165 -247.999)"><path d="M645.258,358.01a5.619,5.619,0,0,0-3.635,1.243,6.648,6.648,0,0,1-8.1,0,5.623,5.623,0,0,0-3.636-1.243s-.008-.874,0-.874a6.5,6.5,0,0,1,4.049,1.375,5.928,5.928,0,0,0,7.272,0,6.315,6.315,0,0,1,4.049-1.375Z" transform="translate(-614.884 -109.135)" fill="#eb6d4e"/></g><g transform="translate(180 -247.999)"><path d="M645.258,358.01a5.619,5.619,0,0,0-3.635,1.243,6.648,6.648,0,0,1-8.1,0,5.623,5.623,0,0,0-3.636-1.243s-.008-.874,0-.874a6.5,6.5,0,0,1,4.049,1.375,5.928,5.928,0,0,0,7.272,0,6.315,6.315,0,0,1,4.049-1.375Z" transform="translate(-614.884 -109.135)" fill="#eb6d4e"/></g><g transform="translate(195 -247.999)"><path d="M645.258,358.01a5.619,5.619,0,0,0-3.635,1.243,6.648,6.648,0,0,1-8.1,0,5.623,5.623,0,0,0-3.636-1.243s-.008-.874,0-.874a6.5,6.5,0,0,1,4.049,1.375,5.928,5.928,0,0,0,7.272,0,6.315,6.315,0,0,1,4.049-1.375Z" transform="translate(-614.884 -109.135)" fill="#eb6d4e"/></g><g transform="translate(210 -247.999)"><path d="M645.258,358.01a5.619,5.619,0,0,0-3.635,1.243,6.648,6.648,0,0,1-8.1,0,5.623,5.623,0,0,0-3.636-1.243s-.008-.874,0-.874a6.5,6.5,0,0,1,4.049,1.375,5.928,5.928,0,0,0,7.272,0,6.315,6.315,0,0,1,4.049-1.375Z" transform="translate(-614.884 -109.135)" fill="#eb6d4e"/></g><g transform="translate(225 -247.999)"><path d="M645.258,358.01a5.619,5.619,0,0,0-3.635,1.243,6.648,6.648,0,0,1-8.1,0,5.623,5.623,0,0,0-3.636-1.243s-.008-.874,0-.874a6.5,6.5,0,0,1,4.049,1.375,5.928,5.928,0,0,0,7.272,0,6.315,6.315,0,0,1,4.049-1.375Z" transform="translate(-614.884 -109.135)" fill="#eb6d4e"/></g><g transform="translate(240 -247.999)"><path d="M645.258,358.01a5.619,5.619,0,0,0-3.635,1.243,6.648,6.648,0,0,1-8.1,0,5.623,5.623,0,0,0-3.636-1.243s-.008-.874,0-.874a6.5,6.5,0,0,1,4.049,1.375,5.928,5.928,0,0,0,7.272,0,6.315,6.315,0,0,1,4.049-1.375Z" transform="translate(-614.884 -109.135)" fill="#eb6d4e"/></g><g transform="translate(255 -247.999)"><path d="M645.258,358.01a5.619,5.619,0,0,0-3.635,1.243,6.648,6.648,0,0,1-8.1,0,5.623,5.623,0,0,0-3.636-1.243s-.008-.874,0-.874a6.5,6.5,0,0,1,4.049,1.375,5.928,5.928,0,0,0,7.272,0,6.315,6.315,0,0,1,4.049-1.375Z" transform="translate(-614.884 -109.135)" fill="#eb6d4e"/></g></g></g></svg>