<svg xmlns="http://www.w3.org/2000/svg" width="103.878" height="71.07" viewBox="0 0 103.878 71.07">
  <g id="reason_05.svg" transform="translate(68.298 23.725)">
    <g id="グループ_4304" data-name="グループ 4304" transform="translate(-70.323 -20.725)">
      <rect id="長方形_2729" data-name="長方形 2729" width="48.618" height="8.778" rx="2" transform="translate(2.026 44.566)" fill="#ffd800"/>
      <text id="_0" data-name="0" transform="translate(7.428 48)" fill="#1a1311" font-size="40" font-family="Oswald-Bold, Oswald" font-weight="700"><tspan x="0" y="0">0</tspan></text>
      <text id="円" transform="translate(30.386 46.386)" fill="#1a1311" font-size="15" font-family="M PLUS Rounded 1c" font-weight="800"><tspan x="0" y="0">円</tspan></text>
      <text id="キャンセル料" transform="translate(2.026 8)" fill="#1a1311" font-size="10" font-family="M PLUS Rounded 1c" font-weight="800" letter-spacing="-0.01em"><tspan x="0" y="0">キャンセル料</tspan></text>
    </g>
    <path id="パス_2178" data-name="パス 2178" d="M5.421,47.875.039,88.109a3.859,3.859,0,0,0,4.054,4.374H40.509a5.321,5.321,0,0,0,5.226-4.374l5.383-40.234Zm0,0" transform="translate(-22.839 -48.862)" fill="#c9b77d"/>
    <path id="パス_2179" data-name="パス 2179" d="M100.519,91.52,93.294,47.867H47.6L54.823,91.52A5.69,5.69,0,0,0,60.18,96.2H96.71A3.827,3.827,0,0,0,100.519,91.52Zm0,0" transform="translate(-65.004 -48.856)" fill="#ffeead"/>
    <path id="パス_2180" data-name="パス 2180" d="M93.294,47.867H47.6l1.882,11.368h45.7Zm0,0" transform="translate(-65.004 -48.856)" fill="#03a58e"/>
    <path id="パス_2181" data-name="パス 2181" d="M400.358,208.754h-4.025l.681,4.112h4.026Zm0,0" transform="translate(-373.949 -191.386)" fill="#ff6f69"/>
    <g id="グループ_592" data-name="グループ 592" transform="translate(-9.448 17.368)">
      <path id="パス_2182" data-name="パス 2182" d="M353.858,208.754h-4.025l.681,4.112h4.026Zm0,0" transform="translate(-323.306 -208.754)" fill="#96ceb4"/>
      <path id="パス_2183" data-name="パス 2183" d="M307.358,208.754h-4.026l.681,4.112h4.026Zm0,0" transform="translate(-282.111 -208.754)" fill="#96ceb4"/>
      <path id="パス_2184" data-name="パス 2184" d="M260.865,208.754H256.84l.681,4.112h4.026Zm0,0" transform="translate(-240.924 -208.754)" fill="#96ceb4"/>
      <path id="パス_2185" data-name="パス 2185" d="M214.365,208.754H210.34l.681,4.112h4.026Zm0,0" transform="translate(-199.729 -208.754)" fill="#96ceb4"/>
      <path id="パス_2186" data-name="パス 2186" d="M167.866,208.754H163.84l.681,4.112h4.026Zm0,0" transform="translate(-158.535 -208.754)" fill="#96ceb4"/>
      <path id="パス_2187" data-name="パス 2187" d="M121.369,208.754h-4.025l.681,4.112h4.026Zm0,0" transform="translate(-117.344 -208.754)" fill="#96ceb4"/>
    </g>
    <path id="パス_2188" data-name="パス 2188" d="M408.038,255.176h-4.026l.681,4.112h4.026Zm0,0" transform="translate(-380.752 -232.511)" fill="#ff6f69"/>
    <path id="パス_2189" data-name="パス 2189" d="M361.545,255.176H357.52l.681,4.112h4.025Zm0,0" transform="translate(-339.564 -232.511)" fill="#96ceb4"/>
    <path id="パス_2190" data-name="パス 2190" d="M315.045,255.176H311.02l.681,4.112h4.026Zm0,0" transform="translate(-298.37 -232.511)" fill="#96ceb4"/>
    <path id="パス_2191" data-name="パス 2191" d="M268.546,255.176H264.52l.681,4.112h4.026Zm0,0" transform="translate(-257.176 -232.511)" fill="#96ceb4"/>
    <path id="パス_2192" data-name="パス 2192" d="M222.049,255.176h-4.025l.681,4.112h4.026Zm0,0" transform="translate(-215.985 -232.511)" fill="#96ceb4"/>
    <path id="パス_2193" data-name="パス 2193" d="M175.549,255.176h-4.026l.681,4.112h4.026Zm0,0" transform="translate(-174.79 -232.511)" fill="#96ceb4"/>
    <path id="パス_2194" data-name="パス 2194" d="M129.05,255.176h-4.026l.681,4.112h4.026Zm0,0" transform="translate(-133.596 -232.511)" fill="#96ceb4"/>
    <path id="パス_2195" data-name="パス 2195" d="M415.725,301.6H411.7l.681,4.112h4.025Zm0,0" transform="translate(-387.562 -273.639)" fill="#ff6f69"/>
    <path id="パス_2196" data-name="パス 2196" d="M369.225,301.6H365.2l.681,4.112h4.025Zm0,0" transform="translate(-346.368 -273.639)" fill="#96ceb4"/>
    <path id="パス_2197" data-name="パス 2197" d="M322.729,301.6H318.7l.681,4.112h4.025Zm0,0" transform="translate(-305.177 -273.639)" fill="#96ceb4"/>
    <path id="パス_2198" data-name="パス 2198" d="M276.229,301.6H272.2l.681,4.112h4.026Zm0,0" transform="translate(-263.982 -273.639)" fill="#96ceb4"/>
    <path id="パス_2199" data-name="パス 2199" d="M229.73,301.6H225.7l.681,4.112h4.026Zm0,0" transform="translate(-222.788 -273.639)" fill="#96ceb4"/>
    <path id="パス_2200" data-name="パス 2200" d="M183.233,301.6h-4.026l.681,4.112h4.026Zm0,0" transform="translate(-181.597 -273.639)" fill="#96ceb4"/>
    <path id="パス_2201" data-name="パス 2201" d="M136.733,301.6h-4.026l.681,4.112h4.026Zm0,0" transform="translate(-140.402 -273.639)" fill="#96ceb4"/>
    <path id="パス_2202" data-name="パス 2202" d="M423.408,348.023h-4.026l.681,4.112h4.026Zm0,0" transform="translate(-394.369 -314.765)" fill="#ff6f69"/>
    <path id="パス_2203" data-name="パス 2203" d="M376.908,348.023h-4.026l.681,4.112h4.025Zm0,0" transform="translate(-353.175 -314.765)" fill="#96ceb4"/>
    <path id="パス_2204" data-name="パス 2204" d="M330.413,348.023h-4.026l.681,4.112h4.026Zm0,0" transform="translate(-311.984 -314.765)" fill="#96ceb4"/>
    <path id="パス_2205" data-name="パス 2205" d="M283.913,348.023h-4.026l.681,4.112h4.026Zm0,0" transform="translate(-270.789 -314.765)" fill="#96ceb4"/>
    <path id="パス_2206" data-name="パス 2206" d="M237.413,348.023h-4.026l.681,4.112h4.026Zm0,0" transform="translate(-229.595 -314.765)" fill="#96ceb4"/>
    <path id="パス_2207" data-name="パス 2207" d="M190.92,348.023h-4.025l.681,4.112H191.6Zm0,0" transform="translate(-188.407 -314.765)" fill="#96ceb4"/>
    <path id="パス_2208" data-name="パス 2208" d="M144.42,348.023h-4.026l.681,4.112H145.1Zm0,0" transform="translate(-147.213 -314.765)" fill="#96ceb4"/>
    <path id="パス_2209" data-name="パス 2209" d="M387.493,78.91a1.415,1.415,0,0,0-1.226,1.624,1.568,1.568,0,0,0,1.365,1.624,1.415,1.415,0,0,0,1.226-1.624A1.567,1.567,0,0,0,387.493,78.91Zm0,0" transform="translate(-365.03 -76.357)" fill="#025035"/>
    <path id="パス_2210" data-name="パス 2210" d="M379.948,70.262a2.336,2.336,0,0,0-2.149,2.611,2.589,2.589,0,0,0,2.373,2.611,2.336,2.336,0,0,0,2.149-2.611A2.589,2.589,0,0,0,379.948,70.262Zm.181,4.235a1.568,1.568,0,0,1-1.365-1.624,1.414,1.414,0,0,1,1.226-1.624,1.568,1.568,0,0,1,1.365,1.624A1.415,1.415,0,0,1,380.129,74.5Zm0,0" transform="translate(-357.527 -68.695)" fill="#016e48"/>
    <path id="パス_2211" data-name="パス 2211" d="M359.039.5c-2,0-3.491,2.335-3.5,5.4h1.831c.035-2.048.911-3.431,1.757-3.431.908,0,1.987,1.6,2.085,3.9.082,1.9-.549,3.322-1.284,3.757a.939.939,0,0,0-.437.861.956.956,0,0,0,1.341.9c1.408-.811,2.322-2.947,2.211-5.518C362.9,3.078,361.142.5,359.039.5Zm0,0" transform="translate(-337.807 -6.893)" fill="#c9b77d"/>
    <path id="パス_2212" data-name="パス 2212" d="M315.449,78.91a1.415,1.415,0,0,0-1.226,1.624,1.568,1.568,0,0,0,1.365,1.624,1.415,1.415,0,0,0,1.226-1.624A1.567,1.567,0,0,0,315.449,78.91Zm0,0" transform="translate(-301.207 -76.357)" fill="#025035"/>
    <path id="パス_2213" data-name="パス 2213" d="M307.9,70.262a2.336,2.336,0,0,0-2.149,2.611,2.589,2.589,0,0,0,2.373,2.611,2.336,2.336,0,0,0,2.149-2.611A2.588,2.588,0,0,0,307.9,70.262Zm.182,4.235a1.568,1.568,0,0,1-1.365-1.624,1.414,1.414,0,0,1,1.226-1.624,1.567,1.567,0,0,1,1.365,1.624A1.415,1.415,0,0,1,308.079,74.5Zm0,0" transform="translate(-293.698 -68.695)" fill="#016e48"/>
    <path id="パス_2214" data-name="パス 2214" d="M287,.5c-2,0-3.491,2.335-3.5,5.4h1.831c.035-2.048.911-3.431,1.758-3.431.908,0,1.987,1.6,2.086,3.9.081,1.9-.55,3.322-1.284,3.757a.939.939,0,0,0-.437.861.956.956,0,0,0,1.341.9c1.407-.811,2.322-2.947,2.211-5.518C290.856,3.078,289.1.5,287,.5Zm0,0" transform="translate(-273.983 -6.893)" fill="#c9b77d"/>
    <path id="パス_2215" data-name="パス 2215" d="M243.4,78.91a1.415,1.415,0,0,0-1.226,1.624,1.567,1.567,0,0,0,1.364,1.624,1.415,1.415,0,0,0,1.226-1.624A1.566,1.566,0,0,0,243.4,78.91Zm0,0" transform="translate(-237.38 -76.357)" fill="#025035"/>
    <path id="パス_2216" data-name="パス 2216" d="M235.854,70.262a2.336,2.336,0,0,0-2.149,2.611,2.589,2.589,0,0,0,2.373,2.611,2.336,2.336,0,0,0,2.149-2.611A2.589,2.589,0,0,0,235.854,70.262Zm.182,4.235a1.567,1.567,0,0,1-1.365-1.624,1.414,1.414,0,0,1,1.226-1.624,1.568,1.568,0,0,1,1.365,1.624A1.415,1.415,0,0,1,236.036,74.5Zm0,0" transform="translate(-229.874 -68.695)" fill="#016e48"/>
    <path id="パス_2217" data-name="パス 2217" d="M214.953.5c-2,0-3.491,2.335-3.5,5.4h1.831c.035-2.048.911-3.431,1.758-3.431.908,0,1.987,1.6,2.085,3.9.082,1.9-.55,3.322-1.284,3.757a.939.939,0,0,0-.437.861.956.956,0,0,0,1.341.9c1.408-.811,2.322-2.947,2.211-5.518C218.813,3.078,217.056.5,214.953.5Zm0,0" transform="translate(-210.16 -6.893)" fill="#c9b77d"/>
    <path id="パス_2218" data-name="パス 2218" d="M171.355,78.91a1.415,1.415,0,0,0-1.226,1.624,1.568,1.568,0,0,0,1.365,1.624,1.415,1.415,0,0,0,1.226-1.624A1.566,1.566,0,0,0,171.355,78.91Zm0,0" transform="translate(-173.554 -76.357)" fill="#025035"/>
    <path id="パス_2219" data-name="パス 2219" d="M163.811,70.262a2.336,2.336,0,0,0-2.149,2.611,2.589,2.589,0,0,0,2.373,2.611,2.336,2.336,0,0,0,2.149-2.611A2.589,2.589,0,0,0,163.811,70.262Zm.181,4.235a1.568,1.568,0,0,1-1.365-1.624,1.415,1.415,0,0,1,1.226-1.624,1.567,1.567,0,0,1,1.365,1.624A1.414,1.414,0,0,1,163.992,74.5Zm0,0" transform="translate(-166.051 -68.695)" fill="#016e48"/>
    <path id="パス_2220" data-name="パス 2220" d="M142.906.5c-2,0-3.491,2.335-3.5,5.4h1.831c.035-2.048.911-3.431,1.758-3.431.908,0,1.987,1.6,2.085,3.9.081,1.9-.55,3.322-1.284,3.757a.938.938,0,0,0-.437.861.956.956,0,0,0,1.341.9c1.407-.811,2.322-2.947,2.211-5.518C146.767,3.078,145.009.5,142.906.5Zm0,0" transform="translate(-146.334 -6.893)" fill="#c9b77d"/>
    <path id="パス_2221" data-name="パス 2221" d="M99.313,78.91a1.415,1.415,0,0,0-1.226,1.624,1.568,1.568,0,0,0,1.365,1.624,1.415,1.415,0,0,0,1.226-1.624A1.567,1.567,0,0,0,99.313,78.91Zm0,0" transform="translate(-109.731 -76.357)" fill="#025035"/>
    <path id="パス_2222" data-name="パス 2222" d="M91.768,70.262a2.336,2.336,0,0,0-2.149,2.611,2.589,2.589,0,0,0,2.373,2.611,2.336,2.336,0,0,0,2.149-2.611A2.589,2.589,0,0,0,91.768,70.262Zm.181,4.235a1.568,1.568,0,0,1-1.365-1.624,1.415,1.415,0,0,1,1.226-1.624,1.567,1.567,0,0,1,1.365,1.624A1.415,1.415,0,0,1,91.949,74.5Zm0,0" transform="translate(-102.228 -68.695)" fill="#016e48"/>
    <path id="パス_2223" data-name="パス 2223" d="M70.86.5c-2,0-3.491,2.335-3.5,5.4h1.832c.035-2.048.911-3.431,1.758-3.431.907,0,1.987,1.6,2.085,3.9.081,1.9-.55,3.322-1.284,3.757a.939.939,0,0,0-.437.861.957.957,0,0,0,1.342.9c1.407-.811,2.322-2.947,2.211-5.518C74.72,3.078,72.963.5,70.86.5Zm0,0" transform="translate(-82.507 -6.893)" fill="#c9b77d"/>
  </g>
</svg>
