<svg xmlns="http://www.w3.org/2000/svg" xmlns:xlink="http://www.w3.org/1999/xlink" width="130" height="130" viewBox="0 0 130 130">
  <defs>
    <clipPath id="clip-path">
      <rect id="長方形_28271" data-name="長方形 28271" width="130" height="130" rx="65" transform="translate(170 3937)" fill="#fff" stroke="#707070" stroke-width="1"/>
    </clipPath>
  </defs>
  <g id="img" transform="translate(-170 -3937)">
    <rect id="長方形_28272" data-name="長方形 28272" width="130" height="130" rx="65" transform="translate(170 3937)" fill="#f7f3e5"/>
    <g id="マスクグループ_49" data-name="マスクグループ 49" clip-path="url(#clip-path)">
      <g id="グループ_4313" data-name="グループ 4313" transform="translate(-75.088 140)">
        <g id="グループ_1886" data-name="グループ 1886" transform="translate(-249.805 3306.941)">
          <path id="パス_63681" data-name="パス 63681" d="M621.495,603.159c-6.225-19.552-10.673-33.426-12.35-37.359-3.348-7.829-13.146-12.279-16.612-13.206l-15.148-4.644a6.148,6.148,0,0,1,.83,2.947c0,5.534-7.79,17.517-18.679,17.517h-.018c-10.884,0-18.68-11.983-18.68-17.517a6.514,6.514,0,0,1,.595-2.654l-14.183,4.351c-3.377.824-13.262,5.378-16.6,13.206-1.682,3.933-6.132,17.807-12.353,37.359a24.189,24.189,0,0,0-1.362,9.346c.228,8.387,1.574,21.471,5.664,29.73,2.478,5.016,8.2,3.15,11.107,2.185a7.341,7.341,0,0,0,5.221-5.431c.809-3.446-1.541-13.089-.453-26.906.394-5.041,5.153-14.068,5.871-19.261,0,0-1.446,24.5-1.617,36.817-.122,8.579.44,37.715,3.438,37.715h67.458c3,0,3.566-29.136,3.446-37.715-.173-12.315-1.622-36.817-1.622-36.817.717,5.162,5.446,14.162,5.845,19.18,1.092,13.854-1.25,23.534-.443,26.987a7.366,7.366,0,0,0,5.232,5.431c2.9.965,8.636,2.831,11.108-2.185,4.1-8.259,5.443-21.343,5.671-29.73A24.267,24.267,0,0,0,621.495,603.159Z" transform="translate(0 20.218)" fill="#02254d"/>
          <g id="グループ_1858" data-name="グループ 1858" transform="translate(540.837 562.431)">
            <path id="パス_63682" data-name="パス 63682" d="M558.059,544.084v1.256a7.694,7.694,0,0,1,1.684,5.206c0,7.319-12.684,19.327-12.684,19.327s-12.266-12.008-12.266-19.327a7.778,7.778,0,0,1,1.541-5.01v-1.693c-5.144,1.947-7.973,5.269-7.973,8.684,0,5.534,7.8,17.517,18.68,17.517h.018c10.889,0,18.679-11.983,18.679-17.517C565.738,549.5,563.024,546.147,558.059,544.084Z" transform="translate(-528.361 -543.842)" fill="#02254d"/>
          </g>
          <g id="グループ_1859" data-name="グループ 1859" transform="translate(547.269 563.928)">
            <path id="パス_63683" data-name="パス 63683" d="M556.232,544.914v1.393c0,1.678-9.159,5.919-10.78,5.919s-10.945-4.324-10.945-5.919v-1.2a7.778,7.778,0,0,0-1.541,5.01c0,7.319,12.266,19.327,12.266,19.327s12.684-12.008,12.684-19.327A7.694,7.694,0,0,0,556.232,544.914Z" transform="translate(-532.966 -544.914)" fill="#02254d"/>
          </g>
          <g id="グループ_1862" data-name="グループ 1862" transform="translate(548.81 558.187)">
            <path id="パス_63691" data-name="パス 63691" d="M534.069,542.942v4.3c0,1.6,9.322,5.919,10.945,5.919s10.78-4.242,10.78-5.919v-4.688a17.151,17.151,0,0,1-11.1,4.334A16.914,16.914,0,0,1,534.069,542.942Z" transform="translate(-534.069 -540.109)" fill="#fccea5"/>
            <path id="パス_63692" data-name="パス 63692" d="M550.241,543.832a16.98,16.98,0,0,1-12.7-.867,18.681,18.681,0,0,1-3.472-2.161v2.833a16.914,16.914,0,0,0,10.625,3.947,17.151,17.151,0,0,0,11.1-4.334v-2.266A18.4,18.4,0,0,1,550.241,543.832Z" transform="translate(-534.069 -540.804)" fill="#e5a87c"/>
          </g>
          <g id="グループ_1865" data-name="グループ 1865" transform="translate(533.948 496.991)">
            <path id="パス_63693" data-name="パス 63693" d="M572.317,523.848a2.564,2.564,0,0,0-1.775.293c-.073-1.443-.169-2.974-.228-4.091-.317.532-1.056,1.07-2.789,1.07-3.44,0-9.315-5.25-18.176-5.25s-14.856,5.25-17.855,5.25c-2.384,0-2.9-1.344-3.014-1.888a.632.632,0,0,0,.017.07c-.169.278-.284.522-.419.789-.042,1.094-.1,2.564-.161,3.964a2.626,2.626,0,0,0-1.277-.221h-.008a2.964,2.964,0,0,0-.3.014c-2.828.643-3.6,5.206-2.289,9.015s3.808,6.487,5.769,6.041a2.23,2.23,0,0,0,.411-.176,46.5,46.5,0,0,0,3.032,6.315,19.215,19.215,0,0,0,8.5,7.815,16.98,16.98,0,0,0,12.7.867,19.018,19.018,0,0,0,10.765-8.682,46.767,46.767,0,0,0,3.062-6.378,2,2,0,0,0,.548.239c1.972.446,4.463-2.227,5.77-6.041S575.151,524.491,572.317,523.848Z" transform="translate(-523.429 -489.501)" fill="#fccea5"/>
            <g id="グループ_1863" data-name="グループ 1863" transform="translate(2.298)">
              <path id="パス_63694" data-name="パス 63694" d="M548.83,496.991c-10.37,0-23.756,7.277-23.756,21.294,0,6.6.119,10.3.905,13.04l.08,0a13.437,13.437,0,0,1,1.785-4.53,1.742,1.742,0,0,1-.055-.307c3.819-4.787,8.847-9.526,20.907-9.526s17.342,4.679,21.186,9.526a1.674,1.674,0,0,1,.007.373,13.3,13.3,0,0,1,1.722,4.479c.018,0,.038,0,.053,0l.013,0c.6-2.682.62-6.651.62-13C572.3,504.934,559.2,496.991,548.83,496.991Z" transform="translate(-525.074 -496.991)" fill="#005d50"/>
              <path id="パス_63695" data-name="パス 63695" d="M530.07,522.939c3,0,9-5.25,17.855-5.25s14.736,5.25,18.176,5.25,3.01-2.126,3.01-2.126c-3.844-4.847-9.126-9.526-21.186-9.526s-17.088,4.739-20.907,9.526C527.018,520.813,527.088,522.939,530.07,522.939Z" transform="translate(-524.303 -491.319)" fill="#33846b"/>
            </g>
            <g id="グループ_1864" data-name="グループ 1864" transform="translate(3.379 29.359)">
              <path id="パス_63696" data-name="パス 63696" d="M558.733,518.374c-.052.606-.483,1.753-3.017,1.753a7.526,7.526,0,0,1-2.525-.631,19.183,19.183,0,0,1,3.5,3.6c.62,2.155-.145,7.418-.134,7.418.729.1,1.075-.767,1.293-1.7.486-2.046.958-4.868,1.1-5.735a2.562,2.562,0,0,1,1.339-.225c.027-.148.053-.313.08-.458A13.771,13.771,0,0,0,558.733,518.374Z" transform="translate(-515 -517.866)" fill="#26201f"/>
              <path id="パス_63697" data-name="パス 63697" d="M530.534,520.271c-2.384,0-2.9-1.344-3.014-1.888a.631.631,0,0,0,.017.07,13.921,13.921,0,0,0-1.689,4.065c.049.175.091.331.122.461a2.474,2.474,0,0,1,.74.148c.123.76.606,3.713,1.1,5.827.216.934.568,1.806,1.3,1.7.014,0-.9-6.263.063-7.925a20.644,20.644,0,0,0,4.614-2.539,28.147,28.147,0,0,0,2.68-2.18C533.892,519.187,531.89,520.271,530.534,520.271Z" transform="translate(-525.848 -518.01)" fill="#26201f"/>
            </g>
            <path id="パス_63698" data-name="パス 63698" d="M551.278,535.357a.811.811,0,0,1-.177-.4.4.4,0,0,0-.476-.353.415.415,0,0,0-.352.475.66.66,0,0,0,.052.148,19.821,19.821,0,0,1-6.333,1.3,18.852,18.852,0,0,1-6.242-1.307c.011-.05.036-.075.045-.131a.421.421,0,0,0-.345-.485.438.438,0,0,0-.483.345.908.908,0,0,1-.177.413.423.423,0,0,0,0,.594.433.433,0,0,0,.3.119.427.427,0,0,0,.3-.123,1.65,1.65,0,0,0,.2-.281,19.057,19.057,0,0,0,6.41,1.337,20.158,20.158,0,0,0,6.493-1.327,1.369,1.369,0,0,0,.2.275.422.422,0,0,0,.289.119.437.437,0,0,0,.295-.12A.431.431,0,0,0,551.278,535.357Z" transform="translate(-518.176 -482.073)" fill="#d39361"/>
            <path id="パス_63423" data-name="パス 63423" d="M2475.933,374.626a2.077,2.077,0,0,0,1.632,2.3,1.826,1.826,0,0,0,2.1-1.655,2.073,2.073,0,0,0-1.641-2.3A1.822,1.822,0,0,0,2475.933,374.626Z" transform="translate(-2245.997 -1006.649) rotate(16)" fill="#26201f"/>
            <path id="パス_63424" data-name="パス 63424" d="M2435.916,385.017a2.082,2.082,0,0,0,1.636,2.3,1.831,1.831,0,0,0,2.1-1.656,2.081,2.081,0,0,0-1.643-2.3A1.827,1.827,0,0,0,2435.916,385.017Z" transform="translate(-2219.604 -1005.982) rotate(16)" fill="#26201f"/>
            <path id="パス_63425" data-name="パス 63425" d="M2457.9,393.216a.486.486,0,0,1-.3-.239c-.124-.223-.27-.442-.411-.654a2.979,2.979,0,0,1-.693-2.626,19.729,19.729,0,0,1,2.295-3.7c.5-.719.978-1.4,1.15-1.71a.487.487,0,0,1,.853.47c-.2.356-.664,1.024-1.206,1.8a23.232,23.232,0,0,0-2.157,3.411c-.185.642.083,1.084.567,1.81.153.231.312.468.456.729a.486.486,0,0,1-.193.661A.493.493,0,0,1,2457.9,393.216Z" transform="matrix(0.966, -0.259, 0.259, 0.966, -2450.916, 306.236)" fill="#d39361"/>
          </g>
          <g id="グループ_1866" data-name="グループ 1866" transform="translate(498.023 623.041)">
            <path id="パス_63699" data-name="パス 63699" d="M514.941,590.341c.177.177-3.937-1.912-5.355-2.2-1.064-.212-5.85-.926-8.91,1.855a18.966,18.966,0,0,0-2.968,3.542c0,.006,1.541-3.542,3.612-4.9C504.82,586.353,511.339,586.814,514.941,590.341Z" transform="translate(-497.708 -587.236)" fill="#00483d"/>
          </g>
          <g id="グループ_1867" data-name="グループ 1867" transform="translate(500.027 620.463)">
            <path id="パス_63700" data-name="パス 63700" d="M517.333,591.747a14.421,14.421,0,0,0-3.4-3.295,15.028,15.028,0,0,0-10.434-2.3,17.259,17.259,0,0,0-4.357,1.285,15.009,15.009,0,0,1,5.183-1.933C510.443,584.887,514.985,586.834,517.333,591.747Z" transform="translate(-499.143 -585.39)" fill="#00483d"/>
          </g>
          <g id="グループ_1868" data-name="グループ 1868" transform="translate(603.909 623.041)">
            <path id="パス_63701" data-name="パス 63701" d="M573.523,590.341c-.179.177,3.94-1.912,5.358-2.2,1.064-.212,5.847-.926,8.911,1.855a19.1,19.1,0,0,1,2.965,3.542c.006.006-1.543-3.542-3.608-4.9C583.648,586.353,577.126,586.814,573.523,590.341Z" transform="translate(-573.517 -587.236)" fill="#00483d"/>
          </g>
          <g id="グループ_1869" data-name="グループ 1869" transform="translate(600.943 620.463)">
            <path id="パス_63702" data-name="パス 63702" d="M571.4,591.747a14.6,14.6,0,0,1,3.4-3.295,15.038,15.038,0,0,1,10.439-2.3,17.257,17.257,0,0,1,4.352,1.285,15,15,0,0,0-5.181-1.933C578.3,584.887,573.756,586.834,571.4,591.747Z" transform="translate(-571.393 -585.39)" fill="#00483d"/>
          </g>
          <path id="パス_63703" data-name="パス 63703" d="M513.173,555.151s5.974,7.22,6.469,13.262-1.356.18-1.356.18S516.927,560.7,513.173,555.151Z" transform="translate(6.45 23.076)" fill="#11335a"/>
          <path id="パス_63704" data-name="パス 63704" d="M572.7,555.151s-5.977,7.22-6.468,13.262,1.352.18,1.352.18S568.937,560.7,572.7,555.151Z" transform="translate(27.467 23.076)" fill="#11335a"/>
          <g id="グループ_1870" data-name="グループ 1870" transform="translate(536.246 496.991)">
            <path id="パス_63705" data-name="パス 63705" d="M548.83,496.991c-10.37,0-23.756,7.277-23.756,21.294,0,6.6.119,10.3.905,13.04l.08,0a13.437,13.437,0,0,1,1.785-4.53,1.742,1.742,0,0,1-.055-.307c3.819-4.787,8.847-9.526,20.907-9.526s17.342,4.679,21.186,9.526a1.674,1.674,0,0,1,.007.373,13.3,13.3,0,0,1,1.722,4.479c.018,0,.038,0,.053,0l.013,0c.6-2.682.62-6.651.62-13C572.3,504.934,559.2,496.991,548.83,496.991Z" transform="translate(-525.074 -496.991)" fill="#02254d"/>
            <path id="パス_63721" data-name="パス 63721" d="M546.1,496.991c-9.177,0-21.024,7.277-21.024,21.294,0,6.6,1.309,10.638,2.451,8.508a1.95,1.95,0,0,1-.048-.307c3.38-4.787,7.83-9.526,18.5-9.526s15.348,4.679,18.75,9.526a1.893,1.893,0,0,1,.006.373c1.113,2.113,2.131-2.168,2.131-8.517C566.867,504.934,555.275,496.991,546.1,496.991Z" transform="translate(-522.359 -496.991)" fill="#fff" stroke="#02254d" stroke-width="1"/>
            <path id="パス_63706" data-name="パス 63706" d="M530.07,522.939c3,0,9-5.25,17.855-5.25s14.736,5.25,18.176,5.25,3.01-2.126,3.01-2.126c-3.844-4.847-9.126-9.526-21.186-9.526s-17.088,4.739-20.907,9.526C527.018,520.813,527.088,522.939,530.07,522.939Z" transform="translate(-524.303 -491.319)" fill="#02254d"/>
            <g id="header_logo" transform="translate(-181.007 -203.909)">
              <g id="グループ_1" data-name="グループ 1" transform="translate(189.366 213.121)">
                <rect id="長方形_1" data-name="長方形 1" width="1.316" height="1.316" transform="translate(6.307 4.577)" fill="#009c86"/>
                <path id="パス_1" data-name="パス 1" d="M194.36,218.608v-1.316h1.046l-3.02-1.945-3.02,1.945h1.046v3.948h1.316v-1.316h1.316v-1.316h1.313v1.316h-1.313v1.316h1.316v-1.316h1.313v-1.316Z" transform="translate(-189.366 -215.347)" fill="#009c86"/>
              </g>
              <rect id="長方形_2" data-name="長方形 2" width="1.295" height="1.295" transform="translate(201.552 214.358) rotate(180)" fill="#009c86"/>
              <g id="グループ_2" data-name="グループ 2" transform="translate(197.656 212.977)">
                <path id="パス_2" data-name="パス 2" d="M330.12,214.485l-3.385.1a.82.82,0,0,0,.459-1.211l.015-.005h0l.45-.155a.03.03,0,0,0,.019-.038c0-.013-.014-.019-.032-.02l-.531.023-.094-.006a.821.821,0,1,0-.726,1.426h0v0h0l-.225,2.219-.551,1.839h0l-.014.048-.073.244h0a.055.055,0,0,0,.053.071h1.225a.063.063,0,0,0,.063-.063v-.238a.063.063,0,0,0-.063-.063h-.131l.47-1.57,1.437.219v1.638a.077.077,0,0,0,.077.077h1.223a.063.063,0,0,0,.063-.063v-.239a.063.063,0,0,0-.063-.062h-.267v-2.1a.162.162,0,0,0-.138-.16l-2.2-.335.047-.459,2.922-.084a.082.082,0,0,0,.079-.084l-.025-.87A.081.081,0,0,0,330.12,214.485Zm-4.186-.559a.575.575,0,0,1-.014-.116l.069-.024.964-.331a.573.573,0,0,1-.332.9.573.573,0,0,1-.687-.433Z" transform="translate(-325.426 -212.977)" fill="#1a1311"/>
                <path id="パス_3" data-name="パス 3" d="M446.831,230.487h-.641V229.6a.087.087,0,0,0-.087-.087h-.787a.087.087,0,0,0-.087.087v.888h-1.18a.087.087,0,0,0-.087.087v.787a.087.087,0,0,0,.087.087h1.18v2.757h-.233a.073.073,0,0,0-.073.073v.192a.073.073,0,0,0,.073.073h1.118a.077.077,0,0,0,.077-.077v-3.019h.641a.087.087,0,0,0,.087-.087v-.787A.087.087,0,0,0,446.831,230.487Z" transform="translate(-436.739 -228.504)" fill="#1a1311"/>
                <path id="パス_4" data-name="パス 4" d="M528.463,235.473h-.577v-.579a.072.072,0,0,0-.072-.072h-.722a.072.072,0,0,0-.072.072v.579h-.948a.072.072,0,0,0-.072.072v.817a.072.072,0,0,0,.072.072h.948v1.41a.811.811,0,0,1-.811.811h-.142a.067.067,0,0,0-.067.067v.733a.067.067,0,0,0,.067.067h.142a1.678,1.678,0,0,0,1.678-1.678v-1.41h.577a.072.072,0,0,0,.072-.072v-.817A.072.072,0,0,0,528.463,235.473Z" transform="translate(-513.778 -233.491)" fill="#1a1311"/>
                <path id="パス_5" data-name="パス 5" d="M579.5,228.229h.832a.087.087,0,0,0,.088-.087v-.87h.779a.049.049,0,0,0,.049-.049V225.79a.081.081,0,0,0-.081-.081h-.055v0h-1.8v-.742a.077.077,0,0,0-.077-.077h-.765a.077.077,0,0,0-.077.077v.742h-1.857a.081.081,0,0,0-.081.081v1.407a.077.077,0,0,0,.077.077h.75v.87a.087.087,0,0,0,.088.087h1.023v.2h-1.29a.078.078,0,0,0-.078.078v.559a.078.078,0,0,0,.078.078h1.29v.188h-1.86a.078.078,0,0,0-.078.078v.559a.078.078,0,0,0,.078.078h4.639a.078.078,0,0,0,.078-.078v-.559a.078.078,0,0,0-.078-.078H579.3v-.188h1.29a.078.078,0,0,0,.078-.078v-.559a.078.078,0,0,0-.078-.078H579.3v-.2Zm-2.129-1.57v-.169h2.957v.169Zm.827.795v-.02a.087.087,0,0,1,.087-.087h1.127a.087.087,0,0,1,.087.087v.02a.087.087,0,0,1-.087.087h-1.127A.087.087,0,0,1,578.193,227.454Z" transform="translate(-561.152 -224.161)" fill="#1a1311"/>
                <path id="パス_6" data-name="パス 6" d="M502.12,248.672h-.2V245.58a.072.072,0,0,0-.072-.072h-.729a.072.072,0,0,0-.072.072v3.306a.093.093,0,0,0,.093.093h.977a.08.08,0,0,0,.08-.08v-.147A.08.08,0,0,0,502.12,248.672Z" transform="translate(-490.348 -243.526)" fill="#1a1311"/>
                <path id="パス_7" data-name="パス 7" d="M447.365,275.167a.455.455,0,1,0,.455.455A.455.455,0,0,0,447.365,275.167Z" transform="translate(-439.508 -271.378)" fill="#1a1311"/>
                <path id="パス_8" data-name="パス 8" d="M588.521,222.949a.455.455,0,1,0-.455-.455A.455.455,0,0,0,588.521,222.949Z" transform="translate(-572.063 -221.486)" fill="#1a1311"/>
                <path id="パス_9" data-name="パス 9" d="M629.029,222.949a.455.455,0,1,0-.455-.455A.455.455,0,0,0,629.029,222.949Z" transform="translate(-610.103 -221.486)" fill="#1a1311"/>
                <path id="パス_10" data-name="パス 10" d="M410.228,230.339l-.713-.36a.081.081,0,0,0-.109.036l-.671,1.338h0l-.29.582a.082.082,0,0,0,.037.11l.58.289v2.552a.089.089,0,0,0,.089.089h.784a.089.089,0,0,0,.089-.089v-2.818a.12.12,0,0,0-.067-.107l-.358-.178.669-1.334A.081.081,0,0,0,410.228,230.339Z" transform="translate(-403.375 -228.936)" fill="#1a1311"/>
              </g>
              <g id="グループ_3" data-name="グループ 3" transform="translate(195.32 219.699)">
                <path id="パス_11" data-name="パス 11" d="M368.536,323.607h-.217v.17h.2v.688h-.166v-.046h-.439v.053h-.158v-.695h.19v-.17h-.2v-.125c-.02.057-.043.113-.068.169l.04.013a.04.04,0,0,1-.034.024v.8h-.164v-.547q-.03.044-.061.082a1.844,1.844,0,0,0-.07-.185,1.461,1.461,0,0,0,.222-.479l.185.062c0,.011-.017.017-.036.015l0,.013h.78Zm-.624.32v.344h.049v-.344Zm.243,0h-.051v.344h.051Zm0-.15v-.17h-.05v.17Zm.2.494v-.344H368.3v.344Z" transform="translate(-362.496 -323.357)" fill="#1a1311"/>
                <path id="パス_12" data-name="パス 12" d="M393.631,323.423l.112.051a.042.042,0,0,1-.018.02.884.884,0,0,1-.17.3.768.768,0,0,0,.254.121.78.78,0,0,0-.1.127v.385h-.166V324.4h-.2v.036h-.159v-.368l-.053.021a.542.542,0,0,0-.05-.082l-.045.064c-.011-.029-.027-.065-.045-.1v.467h-.163v-.392a.869.869,0,0,1-.1.191.893.893,0,0,0-.077-.158,1.068,1.068,0,0,0,.162-.371h-.133v-.159h.145v-.24l.2.011c0,.013-.012.02-.034.025v.2h.121v.073a.939.939,0,0,0,.192-.314l.185.061a.033.033,0,0,1-.034.014c-.007.017-.016.034-.024.051h.173Zm-.641.28v.039c.027.033.094.128.126.176a.924.924,0,0,0,.207-.122,1.018,1.018,0,0,1-.07-.1.735.735,0,0,1-.08.082.925.925,0,0,0-.083-.08Zm.548.278a.836.836,0,0,1-.1-.071.936.936,0,0,1-.1.071Zm-.195.27h.2v-.126h-.2Zm0-.676a.756.756,0,0,0,.087.114.671.671,0,0,0,.08-.114Z" transform="translate(-386.221 -323.303)" fill="#1a1311"/>
                <path id="パス_13" data-name="パス 13" d="M417.989,330.018a.166.166,0,1,1-.166-.166A.167.167,0,0,1,417.989,330.018Z" transform="translate(-409.701 -329.453)" fill="#1a1311"/>
                <path id="パス_14" data-name="パス 14" d="M430.381,324.256a.943.943,0,0,1,.3.138.374.374,0,0,1-.085.187.719.719,0,0,0-.206-.141v0c0,.118-.087.2-.258.2s-.3-.078-.3-.214c0-.116.114-.2.3-.2l.07,0,0-.095c-.106,0-.21,0-.291,0a.6.6,0,0,1-.031-.179,1.947,1.947,0,0,0,.21.014h.107v-.114a2.431,2.431,0,0,1-.247-.007.56.56,0,0,1-.029-.169,1.329,1.329,0,0,0,.195.017h.083v-.014c0-.064,0-.091,0-.128a.941.941,0,0,1,.189.014c0,.039-.006.08-.007.121a1.383,1.383,0,0,0,.195-.026.546.546,0,0,1,0,.165,1.711,1.711,0,0,1-.2.023c0,.036,0,.07,0,.106v.006a1.7,1.7,0,0,0,.242-.036.631.631,0,0,1,0,.177,2.051,2.051,0,0,1-.233.027Zm-.174.125a.556.556,0,0,0-.1-.008c-.059,0-.1.017-.1.05s.029.052.1.052S430.206,324.449,430.207,324.381Z" transform="translate(-421.132 -323.529)" fill="#1a1311"/>
                <path id="パス_15" data-name="パス 15" d="M449.311,324.234a.223.223,0,0,0-.034.107c0,.053.037.107.209.107a1,1,0,0,0,.393-.075.554.554,0,0,1,.047.2,1.19,1.19,0,0,1-.433.069c-.254,0-.421-.093-.421-.255a.526.526,0,0,1,.056-.213A.708.708,0,0,1,449.311,324.234Zm-.139-.551a2.1,2.1,0,0,0,.622.007.877.877,0,0,1,0,.187,2.434,2.434,0,0,1-.609,0A.845.845,0,0,1,449.172,323.683Zm.792.1a.363.363,0,0,1-.1.039.839.839,0,0,0-.069-.162.5.5,0,0,1,.091-.039A.806.806,0,0,1,449.964,323.786Zm.133-.057a.373.373,0,0,1-.094.04.738.738,0,0,0-.07-.156.544.544,0,0,1,.091-.039A.57.57,0,0,1,450.1,323.729Z" transform="translate(-439.202 -323.558)" fill="#1a1311"/>
                <path id="パス_16" data-name="パス 16" d="M470.275,325.9a.224.224,0,0,0-.034.107c0,.053.037.107.209.107a.994.994,0,0,0,.393-.075.553.553,0,0,1,.048.2,1.19,1.19,0,0,1-.434.069c-.254,0-.42-.093-.42-.255a.506.506,0,0,1,.056-.213A.706.706,0,0,1,470.275,325.9Zm-.139-.551a2.35,2.35,0,0,0,.658.007.889.889,0,0,1,0,.186,2.734,2.734,0,0,1-.646,0A.924.924,0,0,1,470.136,325.35Z" transform="translate(-458.888 -325.225)" fill="#1a1311"/>
                <path id="パス_17" data-name="パス 17" d="M489.057,324.118a2.7,2.7,0,0,0,.425-.036.462.462,0,0,1,.072.127,3.3,3.3,0,0,0-.3.279.427.427,0,0,1,.132-.02.314.314,0,0,1,.34.3c0,.232-.181.41-.587.369a.606.606,0,0,1-.062-.2c.261.046.45,0,.45-.171,0-.077-.059-.151-.191-.151a.53.53,0,0,0-.411.286.547.547,0,0,1-.137-.154c.125-.139.363-.372.47-.48-.055.01-.181.023-.266.027a.673.673,0,0,1-.043-.181C488.97,324.116,489.013,324.118,489.057,324.118Z" transform="translate(-476.496 -324.035)" fill="#1a1311"/>
                <path id="パス_18" data-name="パス 18" d="M287.631,324.256a.943.943,0,0,1,.3.138.374.374,0,0,1-.086.187.718.718,0,0,0-.205-.141v0c0,.118-.087.2-.258.2s-.3-.078-.3-.214c0-.116.114-.2.3-.2l.07,0,0-.095c-.106,0-.21,0-.291,0a.6.6,0,0,1-.031-.179,1.943,1.943,0,0,0,.21.014h.107v-.114a2.432,2.432,0,0,1-.247-.007.561.561,0,0,1-.029-.169,1.327,1.327,0,0,0,.195.017h.083v-.014c0-.064,0-.091,0-.128a.94.94,0,0,1,.189.014q-.005.059-.007.121a1.385,1.385,0,0,0,.195-.026.546.546,0,0,1,0,.165,1.712,1.712,0,0,1-.2.023c0,.036,0,.07,0,.106v.006a1.7,1.7,0,0,0,.242-.036.627.627,0,0,1,0,.177,2.051,2.051,0,0,1-.233.027Zm-.173.125a.556.556,0,0,0-.1-.008c-.059,0-.1.017-.1.05s.029.052.1.052S287.457,324.449,287.458,324.381Z" transform="translate(-287.08 -323.529)" fill="#1a1311"/>
                <path id="パス_19" data-name="パス 19" d="M306.562,324.234a.224.224,0,0,0-.034.107c0,.053.037.107.209.107a1,1,0,0,0,.393-.075.551.551,0,0,1,.047.2,1.19,1.19,0,0,1-.433.069c-.254,0-.421-.093-.421-.255a.526.526,0,0,1,.056-.213A.708.708,0,0,1,306.562,324.234Zm-.139-.551a2.105,2.105,0,0,0,.622.007.883.883,0,0,1,0,.187,2.434,2.434,0,0,1-.609,0A.843.843,0,0,1,306.423,323.683Zm.792.1a.363.363,0,0,1-.1.039.845.845,0,0,0-.069-.162.494.494,0,0,1,.091-.039A.806.806,0,0,1,307.215,323.786Zm.133-.057a.373.373,0,0,1-.094.04.735.735,0,0,0-.07-.156.543.543,0,0,1,.092-.039A.572.572,0,0,1,307.348,323.729Z" transform="translate(-305.151 -323.558)" fill="#1a1311"/>
                <path id="パス_20" data-name="パス 20" d="M327.526,325.9a.223.223,0,0,0-.034.107c0,.053.037.107.209.107a.994.994,0,0,0,.393-.075.551.551,0,0,1,.048.2,1.19,1.19,0,0,1-.434.069c-.254,0-.42-.093-.42-.255a.506.506,0,0,1,.056-.213A.706.706,0,0,1,327.526,325.9Zm-.139-.551a2.351,2.351,0,0,0,.658.007.889.889,0,0,1,0,.186,2.733,2.733,0,0,1-.646,0A.924.924,0,0,1,327.387,325.35Z" transform="translate(-324.837 -325.225)" fill="#1a1311"/>
                <path id="パス_21" data-name="パス 21" d="M346.308,324.118a2.7,2.7,0,0,0,.425-.036.46.46,0,0,1,.072.127,3.293,3.293,0,0,0-.3.279.427.427,0,0,1,.132-.02.314.314,0,0,1,.34.3c0,.232-.181.41-.587.369a.61.61,0,0,1-.062-.2c.261.046.45,0,.45-.171,0-.077-.059-.151-.191-.151a.53.53,0,0,0-.411.286.547.547,0,0,1-.137-.154c.125-.139.363-.372.47-.48-.055.01-.181.023-.266.027a.674.674,0,0,1-.043-.181C346.221,324.116,346.264,324.118,346.308,324.118Z" transform="translate(-342.445 -324.035)" fill="#1a1311"/>
                <path id="パス_22" data-name="パス 22" d="M510.919,326.608a.47.47,0,0,1-.147.147,2.086,2.086,0,0,0-.283-.318,1.4,1.4,0,0,1-.434.311.833.833,0,0,1-.146-.166,1.155,1.155,0,0,0,.474-.305.84.84,0,0,0,.171-.254c-.144,0-.426.009-.512.013a1.285,1.285,0,0,1-.023-.186c.038,0,.086.006.123.006.063,0,.414-.006.491-.009a.78.78,0,0,0,.089-.008.427.427,0,0,1,.1.1,1.981,1.981,0,0,1-.214.356A2.347,2.347,0,0,1,510.919,326.608Z" transform="translate(-496.332 -325.683)" fill="#1a1311"/>
                <path id="パス_23" data-name="パス 23" d="M532.183,323.845a.573.573,0,0,0,.091-.008.5.5,0,0,1,.108.088,1.257,1.257,0,0,1-.2.41c.037.031.071.063.1.095a.372.372,0,0,1-.133.146c-.028-.031-.062-.064-.1-.1a1.069,1.069,0,0,1-.418.264.565.565,0,0,1-.162-.158.987.987,0,0,0,.442-.223,1.967,1.967,0,0,0-.181-.128.908.908,0,0,1,.12-.124,1.929,1.929,0,0,1,.185.118.693.693,0,0,0,.113-.226l-.3,0a1.189,1.189,0,0,1-.278.272.422.422,0,0,1-.159-.126.907.907,0,0,0,.42-.5.493.493,0,0,1,.181.081.872.872,0,0,1-.058.114c.185,0,.22,0,.22,0Z" transform="translate(-516.533 -323.632)" fill="#1a1311"/>
                <path id="パス_24" data-name="パス 24" d="M551.754,328.864a.686.686,0,0,1-.152.07,2.284,2.284,0,0,0-.11-.229c.031-.017.116-.055.15-.068A2.028,2.028,0,0,1,551.754,328.864Zm.557-.189a1.065,1.065,0,0,1-.163.386.778.778,0,0,1-.35.26.594.594,0,0,1-.138-.14.642.642,0,0,0,.344-.219.693.693,0,0,0,.134-.365A.63.63,0,0,1,552.311,328.675Zm-.306.1a.8.8,0,0,1-.154.066,2.09,2.09,0,0,0-.1-.233,1.411,1.411,0,0,1,.152-.063A2.337,2.337,0,0,1,552,328.776Z" transform="translate(-535.38 -328.227)" fill="#1a1311"/>
                <path id="パス_25" data-name="パス 25" d="M570.268,326.6a.979.979,0,0,1-.466.361.573.573,0,0,1-.17-.176.771.771,0,0,0,.439-.251.681.681,0,0,0,.139-.31l-.667.01a1.391,1.391,0,0,1-.018-.2c.056,0,.119.008.159.008l.561-.006a.644.644,0,0,0,.09-.007.507.507,0,0,1,.115.091A1.38,1.38,0,0,1,570.268,326.6Z" transform="translate(-552.316 -325.866)" fill="#1a1311"/>
              </g>
            </g>
          </g>
          <g id="グループ_1873" data-name="グループ 1873" transform="translate(510.599 653.174)">
            <g id="グループ_1872" data-name="グループ 1872">
              <g id="グループ_1871" data-name="グループ 1871">
                <path id="パス_63707" data-name="パス 63707" d="M506.712,608.809a2.8,2.8,0,0,0,1.374,2.3,15.77,15.77,0,0,0,5.091.464,18.687,18.687,0,0,1,4.242.6c.267-.038.539-.057.811-.073-.236-.015-.457-.056-.7-.059-.324-.4-1.18-1.233-4.094-1.233C511.737,610.811,507.044,609.605,506.712,608.809Z" transform="translate(-506.712 -608.809)" fill="#d9996b"/>
                <path id="パス_63708" data-name="パス 63708" d="M518.468,611.9a11.832,11.832,0,0,1,3.612-.581,11.292,11.292,0,0,1,1.979-.9c-.634-.3-1.782-.1-3.168.647-.5-.733-1.993-.6-3.912.623C517.811,611.8,518.411,611.927,518.468,611.9Z" transform="translate(-502.638 -608.225)" fill="#d9996b"/>
                <path id="パス_63709" data-name="パス 63709" d="M532.477,611.179c0-.042.017-.085,0-.127-.295-.73-1.295-.925-2.683-.532a1.142,1.142,0,0,1,.2.316.538.538,0,0,1,0,.244,5.772,5.772,0,0,0-1.861.958.843.843,0,0,0-.253.911c-.439.236-.81.416-.915.493a13.463,13.463,0,0,1-5.245,1.89c-.588.08-5.181.518-5.995.711-.559.138-1.175.941-1.792,1.165a28.547,28.547,0,0,0-3.743,1.313c-.066.025-.14.049-.21.073a23.637,23.637,0,0,0,2.382-.676,11.489,11.489,0,0,0,2.5-.6c.816-.369.89-.816,2.088-1.084.724-.159,6.561-.541,7.218-.624a13.272,13.272,0,0,0,5.32-1.9c.1-.074.419-.243.806-.457-.2-.246-.054-.785.253-1.046A7.02,7.02,0,0,1,532.477,611.179Z" transform="translate(-505.416 -608.209)" fill="#d9996b"/>
              </g>
              <path id="パス_63710" data-name="パス 63710" d="M526.822,610.958c-.108-.2-1.715.746-2.017,1.011s-.459.819-.251,1.057C524.639,613.123,527.14,611.544,526.822,610.958Z" transform="translate(-499.672 -607.967)" fill="#fccea5"/>
            </g>
          </g>
          <g id="グループ_1874" data-name="グループ 1874" transform="translate(503.227 642.24)">
            <path id="パス_63711" data-name="パス 63711" d="M531.52,615.708a5.77,5.77,0,0,1,1.86-.958.539.539,0,0,0,0-.244c-.411-1.116-2.484-1.048-5.133.468a11.834,11.834,0,0,0-3.612.581,20,20,0,0,0-5.122-.309,18.69,18.69,0,0,0-4.242-.6,15.768,15.768,0,0,1-5.091-.464c-1.37-.613-1.516-2.662-1.447-3.509a12.057,12.057,0,0,1,.4-2.946c.155-.237,1.645-6.516-1.852-6.661l-.017,0a3.062,3.062,0,0,0,.11,1.571,4.7,4.7,0,0,1-.461,2.446c-.3.293-1.042-.415-.893-1.457.025-.189.068-.338.1-.513-.057.175-.123.339-.179.474a8.3,8.3,0,0,0-.425,1.622,15.323,15.323,0,0,0-.845,2.638c-.6,2.616-2.739,3.689-3.186,8.617-.247,2.676.483,4.387,1.339,5.278,2.559,2.672,7.647,1.712,10.755.441a28.547,28.547,0,0,1,3.743-1.313c.617-.223,1.233-1.027,1.792-1.165.814-.193,5.407-.631,5.995-.711a13.461,13.461,0,0,0,5.245-1.89c.1-.077.476-.257.915-.493A.843.843,0,0,1,531.52,615.708Z" transform="translate(-501.434 -600.946)" fill="#ffcd8e"/>
            <path id="パス_63712" data-name="パス 63712" d="M505.97,601.056a3.142,3.142,0,0,0,.1,1.623,4.7,4.7,0,0,1-.461,2.446c-.3.293-1.042-.415-.893-1.457.218-1.61.751-2.665,1.163-2.687C505.917,600.981,505.981,601.017,505.97,601.056Z" transform="translate(-500.138 -600.981)" fill="#ffe7c7"/>
            <path id="パス_63713" data-name="パス 63713" d="M525.01,610.864c-.1-.193-1.647.715-1.941.969s-.443.777-.236,1.008C522.9,612.938,525.321,611.425,525.01,610.864Z" transform="translate(-492.982 -597.071)" fill="#ffe7c7"/>
          </g>
          <g id="グループ_1877" data-name="グループ 1877" transform="translate(581.345 653.174)">
            <g id="グループ_1876" data-name="グループ 1876">
              <g id="グループ_1875" data-name="グループ 1875" transform="translate(0.111)">
                <path id="パス_63714" data-name="パス 63714" d="M580.092,608.809a2.808,2.808,0,0,1-1.374,2.3,15.771,15.771,0,0,1-5.091.464,18.641,18.641,0,0,0-4.242.6c-.267-.038-.539-.057-.812-.073.233-.015.457-.056.7-.059.327-.4,1.177-1.233,4.1-1.233C575.065,610.811,579.758,609.605,580.092,608.809Z" transform="translate(-553.025 -608.809)" fill="#d9996b"/>
                <path id="パス_63715" data-name="パス 63715" d="M567.072,611.9a11.815,11.815,0,0,0-3.612-.581,11.17,11.17,0,0,0-1.975-.9c.633-.3,1.782-.1,3.165.647.5-.733,2-.6,3.915.623C567.729,611.8,567.131,611.927,567.072,611.9Z" transform="translate(-555.837 -608.225)" fill="#d9996b"/>
                <path id="パス_63716" data-name="パス 63716" d="M557.445,611.179c.008-.042-.013-.085,0-.127.3-.73,1.295-.925,2.686-.532a1.025,1.025,0,0,0-.2.316.5.5,0,0,0,0,.244,5.814,5.814,0,0,1,1.86.958.851.851,0,0,1,.253.911c.436.236.807.416.915.493a13.444,13.444,0,0,0,5.24,1.89c.591.08,5.182.518,6,.711.556.138,1.173.941,1.792,1.165a28.705,28.705,0,0,1,3.742,1.313c.064.025.141.049.21.073a23.45,23.45,0,0,1-2.383-.676,11.479,11.479,0,0,1-2.5-.6c-.817-.369-.888-.816-2.087-1.084-.724-.159-6.563-.541-7.22-.624a13.249,13.249,0,0,1-5.32-1.9c-.1-.074-.419-.243-.809-.457.2-.246.057-.785-.249-1.046A7.045,7.045,0,0,0,557.445,611.179Z" transform="translate(-557.441 -608.209)" fill="#d9996b"/>
              </g>
              <path id="パス_63717" data-name="パス 63717" d="M557.39,610.958c.1-.2,1.717.746,2.018,1.011s.457.819.247,1.057C559.573,613.123,557.071,611.544,557.39,610.958Z" transform="translate(-557.362 -607.967)" fill="#fccea5"/>
            </g>
          </g>
          <g id="グループ_1878" data-name="グループ 1878" transform="translate(583.837 642.24)">
            <path id="パス_63718" data-name="パス 63718" d="M561.092,615.708a5.813,5.813,0,0,0-1.861-.958.5.5,0,0,1,0-.244c.409-1.116,2.478-1.048,5.129.468a11.817,11.817,0,0,1,3.612.581,20.038,20.038,0,0,1,5.125-.309,18.645,18.645,0,0,1,4.242-.6,15.769,15.769,0,0,0,5.091-.464c1.369-.613,1.516-2.662,1.45-3.509a12.393,12.393,0,0,0-.4-2.946c-.156-.237-1.645-6.516,1.853-6.661l.013,0a3.047,3.047,0,0,1-.106,1.571,4.659,4.659,0,0,0,.457,2.446c.3.293,1.043-.415.893-1.457-.025-.189-.064-.338-.1-.513.059.175.12.339.177.474a8.078,8.078,0,0,1,.427,1.622,15.822,15.822,0,0,1,.842,2.638c.595,2.616,2.739,3.689,3.186,8.617.247,2.676-.483,4.387-1.338,5.278-2.56,2.672-7.649,1.712-10.755.441a28.7,28.7,0,0,0-3.742-1.313c-.619-.223-1.236-1.027-1.792-1.165-.817-.193-5.408-.631-6-.711a13.444,13.444,0,0,1-5.241-1.89c-.108-.077-.479-.257-.915-.493A.851.851,0,0,0,561.092,615.708Z" transform="translate(-559.119 -600.946)" fill="#ffcd8e"/>
            <path id="パス_63719" data-name="パス 63719" d="M577.957,601.056a3.17,3.17,0,0,1-.1,1.623,4.66,4.66,0,0,0,.457,2.446c.3.293,1.043-.415.893-1.457-.218-1.61-.751-2.665-1.159-2.687C578.009,600.981,577.948,601.017,577.957,601.056Z" transform="translate(-551.733 -600.981)" fill="#ffe7c7"/>
            <path id="パス_63720" data-name="パス 63720" d="M559.174,610.864c.1-.193,1.647.715,1.946.969s.44.777.236,1.008C561.279,612.938,558.865,611.425,559.174,610.864Z" transform="translate(-559.146 -597.071)" fill="#ffe7c7"/>
          </g>
          <path id="パス_63722" data-name="パス 63722" d="M542.715,568.167l-3.7,3.276,3.188,18.827,11.816,1.444s17.09-.207,17.529-.709,10.865-13.983,10.865-13.983l-2.658-7-3.109-1.395-5.6-4.727v8.487l-12.3,14.334L548.307,566v-2.375Z" fill="#02254d"/>
        </g>
        <path id="パス_63725" data-name="パス 63725" d="M207.473,2548.131c.309-3.432,20.385-2.578,20.385-2.578s-1.459,37.562.693,40.5c-12.326-2.8-13.352-3.675-13.352-3.675v-24.118l-8.564,1.043S207.164,2551.563,207.473,2548.131Z" transform="translate(69 1358)" fill="#fff" stroke="#02254d" stroke-width="1"/>
        <path id="パス_63724" data-name="パス 63724" d="M227.713,2548.131c-.309-3.432-20.385-2.578-20.385-2.578s1.459,37.562-.693,40.5c12.326-2.8,13.352-3.675,13.352-3.675v-24.118l8.564,1.043S228.021,2551.563,227.713,2548.131Z" transform="translate(116 1358)" fill="#fff" stroke="#02254d" stroke-width="1"/>
        <g id="パス_63726" data-name="パス 63726" transform="translate(-17183 9632)" fill="#fff">
          <path d="M 17440.591796875 -5705.56005859375 L 17436.68359375 -5709.3193359375 C 17437.44140625 -5711.74462890625 17442.640625 -5728.349609375 17444.48828125 -5732.29052734375 C 17445.94140625 -5735.390625 17447.408203125 -5736.66357421875 17448.0234375 -5737.0927734375 C 17448.849609375 -5736.158203125 17450.359375 -5734.236328125 17450.533203125 -5732.98388671875 C 17450.576171875 -5732.6650390625 17450.44921875 -5731.5341796875 17449.11328125 -5727.58154296875 C 17448.28125 -5725.11865234375 17447.091796875 -5721.890625 17445.578125 -5717.98779296875 C 17443.48828125 -5712.59619140625 17441.34375 -5707.3779296875 17440.591796875 -5705.56005859375 Z" stroke="none"/>
          <path d="M 17447.955078125 -5736.40869140625 C 17447.28125 -5735.8359375 17446.11328125 -5734.580078125 17444.94140625 -5732.07861328125 C 17443.169921875 -5728.298828125 17438.265625 -5712.70263671875 17437.25390625 -5709.4658203125 L 17440.41015625 -5706.42919921875 C 17441.326171875 -5708.65234375 17443.228515625 -5713.3125 17445.091796875 -5718.11767578125 C 17446.599609375 -5722.00244140625 17447.78515625 -5725.21875 17448.6171875 -5727.677734375 C 17450.046875 -5731.900390625 17450.052734375 -5732.78466796875 17450.0390625 -5732.919921875 C 17449.90625 -5733.8447265625 17448.849609375 -5735.3466796875 17447.955078125 -5736.40869140625 M 17448.115234375 -5737.7333984375 C 17448.115234375 -5737.7333984375 17450.767578125 -5734.92822265625 17451.029296875 -5733.05322265625 C 17451.408203125 -5730.20703125 17440.7734375 -5704.69189453125 17440.7734375 -5704.69189453125 L 17436.115234375 -5709.17333984375 C 17436.115234375 -5709.17333984375 17442.013671875 -5728.189453125 17444.03515625 -5732.5029296875 C 17446.056640625 -5736.81640625 17448.115234375 -5737.7333984375 17448.115234375 -5737.7333984375 Z" stroke="none" fill="#02254d"/>
        </g>
        <g id="パス_63727" data-name="パス 63727" transform="translate(-17083.801 9632)" fill="#fff">
          <path d="M 17446.439453125 -5705.578125 C 17445.681640625 -5707.41162109375 17443.544921875 -5712.61328125 17441.4609375 -5717.98779296875 C 17439.947265625 -5721.890625 17438.7578125 -5725.11865234375 17437.92578125 -5727.58154296875 C 17436.58984375 -5731.5341796875 17436.462890625 -5732.6650390625 17436.505859375 -5732.9873046875 C 17436.6953125 -5734.34765625 17437.9375 -5736.45947265625 17438.4765625 -5737.3251953125 C 17439.248046875 -5736.8388671875 17441.08203125 -5735.4267578125 17442.55078125 -5732.29052734375 C 17444.400390625 -5728.34619140625 17449.572265625 -5711.87744140625 17450.318359375 -5709.494140625 L 17446.439453125 -5705.578125 Z" stroke="none"/>
          <path d="M 17438.626953125 -5736.6142578125 C 17437.994140625 -5735.54736328125 17437.146484375 -5733.943359375 17437.001953125 -5732.92138671875 C 17436.986328125 -5732.78369140625 17436.9921875 -5731.89794921875 17438.421875 -5727.677734375 C 17439.25390625 -5725.21875 17440.439453125 -5722.00244140625 17441.947265625 -5718.11767578125 C 17443.80078125 -5713.337890625 17445.693359375 -5708.7021484375 17446.615234375 -5706.46533203125 L 17449.75 -5709.6318359375 C 17448.751953125 -5712.81689453125 17443.87109375 -5728.29443359375 17442.09765625 -5732.07861328125 C 17440.90625 -5734.6240234375 17439.47265625 -5735.98095703125 17438.626953125 -5736.6142578125 M 17438.30859375 -5737.9921875 C 17438.30859375 -5737.9921875 17440.982421875 -5736.81640625 17443.00390625 -5732.5029296875 C 17445.025390625 -5728.189453125 17450.884765625 -5709.35595703125 17450.884765625 -5709.35595703125 L 17446.265625 -5704.69189453125 C 17446.265625 -5704.69189453125 17435.630859375 -5730.20703125 17436.009765625 -5733.05322265625 C 17436.271484375 -5734.92822265625 17438.30859375 -5737.9921875 17438.30859375 -5737.9921875 Z" stroke="none" fill="#02254d"/>
        </g>
      </g>
    </g>
  </g>
</svg>
