<svg xmlns="http://www.w3.org/2000/svg" xmlns:xlink="http://www.w3.org/1999/xlink" width="140" height="140" viewBox="0 0 140 140">
  <defs>
    <clipPath id="clip-path">
      <circle id="楕円形_25" data-name="楕円形 25" cx="70" cy="70" r="70" transform="translate(0 0.477)" fill="#f7f3e5"/>
    </clipPath>
    <linearGradient id="linear-gradient" y1="0.5" x2="1" y2="0.5" gradientUnits="objectBoundingBox">
      <stop offset="0.913" stop-color="#e6e6e5"/>
      <stop offset="1" stop-color="#b2b2b2"/>
    </linearGradient>
    <linearGradient id="linear-gradient-2" x1="0.5" x2="0.5" y2="1" gradientUnits="objectBoundingBox">
      <stop offset="0.382" stop-color="#e6e6e5"/>
      <stop offset="0.76" stop-color="silver"/>
      <stop offset="0.894" stop-color="#b2b2b2"/>
    </linearGradient>
  </defs>
  <g id="trouble_03" transform="translate(0 -0.477)">
    <circle id="楕円形_23" data-name="楕円形 23" cx="70" cy="70" r="70" transform="translate(0 0.477)" fill="#fff"/>
    <g id="マスクグループ_4" data-name="マスクグループ 4" clip-path="url(#clip-path)">
      <g id="グループ_4646" data-name="グループ 4646" transform="translate(-807.402 -73.402)">
        <g id="グループ_4639" data-name="グループ 4639" transform="translate(842.899 168.359)">
          <path id="パス_71227" data-name="パス 71227" d="M964.77,1485.646H973.1l1.575,7.988H963.083Z" transform="translate(-963.083 -1476.421)" fill="#cbcbcb"/>
          <path id="パス_71228" data-name="パス 71228" d="M1134.61,1364.109l-7.2,12.825-1.575-7.988,4.388-7.65Z" transform="translate(-1115.822 -1359.721)" fill="#7f7f80"/>
          <path id="パス_71229" data-name="パス 71229" d="M992.763,1335.695l-2.25,9.225h8.325l4.388-7.65Z" transform="translate(-988.825 -1335.695)" fill="#989898"/>
        </g>
        <g id="グループ_4640" data-name="グループ 4640" transform="translate(890.973 168.359)">
          <path id="パス_71230" data-name="パス 71230" d="M1746.192,1485.646h8.325l1.575,7.988H1744.5Z" transform="translate(-1744.505 -1476.421)" fill="#cbcbcb"/>
          <path id="パス_71231" data-name="パス 71231" d="M1916.032,1364.109l-7.2,12.825-1.575-7.988,4.387-7.65Z" transform="translate(-1897.244 -1359.721)" fill="#7f7f80"/>
          <path id="パス_71232" data-name="パス 71232" d="M1774.185,1335.695l-2.25,9.225h8.325l4.388-7.65Z" transform="translate(-1770.247 -1335.695)" fill="#989898"/>
        </g>
        <path id="パス_71233" data-name="パス 71233" d="M922.713,340.142v62.791a3.6,3.6,0,0,1-.63,2.033l-1.44,2.1a4,4,0,0,1-3.294,1.735H836.5a1.483,1.483,0,0,1-1.482-1.482V343.681a1.483,1.483,0,0,1,.972-1.393l0,0a1.489,1.489,0,0,1,.505-.088l81.383.3a3.526,3.526,0,0,0,2.384-1.2l1.805-1.451a.381.381,0,0,1,.25-.094h.02A.385.385,0,0,1,922.713,340.142Z" transform="translate(0 -232.668)" fill="url(#linear-gradient)"/>
        <g id="グループ_4643" data-name="グループ 4643" transform="translate(837.8 114.723)">
          <g id="グループ_4641" data-name="グループ 4641" transform="translate(0.001 0)">
            <circle id="楕円形_401" data-name="楕円形 401" cx="27.962" cy="27.962" r="27.962" fill="#7f7f80"/>
            <circle id="楕円形_402" data-name="楕円形 402" cx="27.962" cy="27.962" r="27.962" fill="none" stroke="#fff" stroke-miterlimit="10" stroke-width="3"/>
            <circle id="楕円形_403" data-name="楕円形 403" cx="25.965" cy="25.965" r="25.965" transform="translate(1.997 1.997)" fill="none" stroke="#fff" stroke-miterlimit="10" stroke-width="1"/>
            <circle id="楕円形_404" data-name="楕円形 404" cx="10.784" cy="10.784" r="10.784" transform="translate(17.177 17.177)" fill="none" stroke="#fff" stroke-miterlimit="10" stroke-width="1"/>
            <circle id="楕円形_405" data-name="楕円形 405" cx="9.304" cy="9.304" r="9.304" transform="translate(14.804 27.962) rotate(-45)" fill="none" stroke="#fff" stroke-miterlimit="10" stroke-width="1"/>
            <circle id="楕円形_406" data-name="楕円形 406" cx="8.487" cy="8.487" r="8.487" transform="translate(19.475 19.475)" fill="#fff"/>
          </g>
          <g id="グループ_4642" data-name="グループ 4642" transform="translate(0 0.023)">
            <path id="パス_71234" data-name="パス 71234" d="M1327.888,918.368l.449,27.962h-.9Z" transform="translate(-1299.925 -890.428)" fill="#fff"/>
            <path id="パス_71235" data-name="パス 71235" d="M1334.733,918.368l3.753,27.712-.891.106Z" transform="translate(-1306.77 -890.428)" fill="#fff"/>
            <path id="パス_71236" data-name="パス 71236" d="M1334.733,918.368l7,27.074-.872.211Z" transform="translate(-1306.77 -890.428)" fill="#fff"/>
            <path id="パス_71237" data-name="パス 71237" d="M1334.733,918.368l10.157,26.056-.841.313Z" transform="translate(-1306.77 -890.428)" fill="#fff"/>
            <path id="パス_71238" data-name="パス 71238" d="M1334.733,918.368l13.167,24.672-.8.41Z" transform="translate(-1306.77 -890.428)" fill="#fff"/>
            <path id="パス_71239" data-name="パス 71239" d="M1334.733,918.368l15.993,22.941-.745.5Z" transform="translate(-1306.77 -890.428)" fill="#fff"/>
            <path id="パス_71240" data-name="パス 71240" d="M1334.733,918.368l18.594,20.888-.68.586Z" transform="translate(-1306.77 -890.428)" fill="#fff"/>
            <path id="パス_71241" data-name="パス 71241" d="M1334.733,918.368l20.934,18.543-.606.662Z" transform="translate(-1306.77 -890.428)" fill="#fff"/>
            <path id="パス_71242" data-name="パス 71242" d="M1334.733,918.368l22.98,15.937-.523.729Z" transform="translate(-1306.77 -890.428)" fill="#fff"/>
            <path id="パス_71243" data-name="パス 71243" d="M1334.733,918.368l24.7,13.107-.433.786Z" transform="translate(-1306.77 -890.428)" fill="#fff"/>
            <path id="パス_71244" data-name="パス 71244" d="M1334.733,918.368l26.08,10.093-.337.832Z" transform="translate(-1306.77 -890.428)" fill="#fff"/>
            <path id="パス_71245" data-name="パス 71245" d="M1334.733,918.368l27.091,6.938-.237.866Z" transform="translate(-1306.77 -890.428)" fill="#fff"/>
            <path id="パス_71246" data-name="パス 71246" d="M1334.733,918.368l27.722,3.685-.133.888Z" transform="translate(-1306.77 -890.428)" fill="#fff"/>
            <path id="パス_71247" data-name="パス 71247" d="M1334.733,918.368l27.963.38-.027.9Z" transform="translate(-1306.77 -890.428)" fill="#fff"/>
            <path id="パス_71248" data-name="パス 71248" d="M1334.733,873.675l27.811-2.93.08.894Z" transform="translate(-1306.77 -845.735)" fill="#fff"/>
            <path id="パス_71249" data-name="パス 71249" d="M1334.733,823.811l27.27-6.2.185.878Z" transform="translate(-1306.77 -795.872)" fill="#fff"/>
            <path id="パス_71250" data-name="パス 71250" d="M1334.733,775.274l26.345-9.38.287.85Z" transform="translate(-1306.77 -747.335)" fill="#fff"/>
            <path id="パス_71251" data-name="パス 71251" d="M1334.733,728.746l25.051-12.431.386.81Z" transform="translate(-1306.77 -700.807)" fill="#fff"/>
            <path id="パス_71252" data-name="パス 71252" d="M1334.733,684.881l23.4-15.306.479.759Z" transform="translate(-1306.77 -656.941)" fill="#fff"/>
            <path id="パス_71253" data-name="パス 71253" d="M1334.733,644.293l21.43-17.967.565.7Z" transform="translate(-1306.77 -616.354)" fill="#fff"/>
            <path id="パス_71254" data-name="パス 71254" d="M1334.733,607.551l19.155-20.375.644.625Z" transform="translate(-1306.77 -579.612)" fill="#fff"/>
            <path id="パス_71255" data-name="パス 71255" d="M1334.733,575.174l16.61-22.5.713.545Z" transform="translate(-1306.77 -547.235)" fill="#fff"/>
            <path id="パス_71256" data-name="パス 71256" d="M1334.733,547.615l13.833-24.3.773.456Z" transform="translate(-1306.77 -519.676)" fill="#fff"/>
            <path id="パス_71257" data-name="パス 71257" d="M1334.733,525.259l10.861-25.77.821.362Z" transform="translate(-1306.77 -497.32)" fill="#fff"/>
            <path id="パス_71258" data-name="パス 71258" d="M1334.733,508.422l7.737-26.874.858.262Z" transform="translate(-1306.77 -480.483)" fill="#fff"/>
            <path id="パス_71259" data-name="パス 71259" d="M1334.733,497.34l4.5-27.6.883.159Z" transform="translate(-1306.77 -469.401)" fill="#fff"/>
            <path id="パス_71260" data-name="パス 71260" d="M1334.733,492.168l1.208-27.939.9.053Z" transform="translate(-1306.77 -464.229)" fill="#fff"/>
            <path id="パス_71261" data-name="パス 71261" d="M1302.631,492.168l-2.1-27.886.9-.053Z" transform="translate(-1274.668 -464.229)" fill="#fff"/>
            <path id="パス_71262" data-name="パス 71262" d="M1252.544,497.34l-5.388-27.441.883-.159Z" transform="translate(-1224.581 -469.401)" fill="#fff"/>
            <path id="パス_71263" data-name="パス 71263" d="M1203.611,508.422l-8.6-26.612.858-.262Z" transform="translate(-1175.648 -480.483)" fill="#fff"/>
            <path id="パス_71264" data-name="パス 71264" d="M1156.519,525.259l-11.683-25.408.821-.362Z" transform="translate(-1128.556 -497.32)" fill="#fff"/>
            <path id="パス_71265" data-name="パス 71265" d="M1111.928,547.615l-14.606-23.848.773-.456Z" transform="translate(-1083.965 -519.676)" fill="#fff"/>
            <path id="パス_71266" data-name="パス 71266" d="M1070.466,575.174l-17.324-21.953.713-.545Z" transform="translate(-1042.503 -547.235)" fill="#fff"/>
            <path id="パス_71267" data-name="パス 71267" d="M1032.712,607.551l-19.8-19.75.644-.625Z" transform="translate(-1004.75 -579.612)" fill="#fff"/>
            <path id="パス_71268" data-name="パス 71268" d="M999.2,644.293l-22-17.27.565-.7Z" transform="translate(-971.236 -616.354)" fill="#fff"/>
            <path id="パス_71269" data-name="パス 71269" d="M970.4,684.881l-23.884-14.547.479-.759Z" transform="translate(-942.432 -656.941)" fill="#fff"/>
            <path id="パス_71270" data-name="パス 71270" d="M946.707,728.746l-25.437-11.62.386-.81Z" transform="translate(-918.744 -700.807)" fill="#fff"/>
            <path id="パス_71271" data-name="パス 71271" d="M928.465,775.274l-26.633-8.53.287-.85Z" transform="translate(-900.502 -747.335)" fill="#fff"/>
            <path id="パス_71272" data-name="パス 71272" d="M915.926,823.811l-27.455-5.32.185-.878Z" transform="translate(-887.964 -795.872)" fill="#fff"/>
            <path id="パス_71273" data-name="パス 71273" d="M909.267,873.675l-27.891-2.036.08-.894Z" transform="translate(-881.304 -845.735)" fill="#fff"/>
            <path id="パス_71274" data-name="パス 71274" d="M908.174,918.368l-27.936,1.277-.027-.9Z" transform="translate(-880.212 -890.428)" fill="#fff"/>
            <path id="パス_71275" data-name="パス 71275" d="M911.854,918.368l-27.589,4.572-.133-.888Z" transform="translate(-883.891 -890.428)" fill="#fff"/>
            <path id="パス_71276" data-name="パス 71276" d="M921.47,918.368l-26.855,7.8-.237-.866Z" transform="translate(-893.507 -890.428)" fill="#fff"/>
            <path id="パス_71277" data-name="パス 71277" d="M936.887,918.368l-25.743,10.925-.337-.832Z" transform="translate(-908.924 -890.428)" fill="#fff"/>
            <path id="パス_71278" data-name="パス 71278" d="M957.889,918.368,933.619,932.26l-.433-.786Z" transform="translate(-929.927 -890.428)" fill="#fff"/>
            <path id="パス_71279" data-name="パス 71279" d="M984.182,918.368l-22.457,16.666-.523-.729Z" transform="translate(-956.219 -890.428)" fill="#fff"/>
            <path id="パス_71280" data-name="パス 71280" d="M1015.395,918.368l-20.328,19.2-.606-.662Z" transform="translate(-987.432 -890.428)" fill="#fff"/>
            <path id="パス_71281" data-name="パス 71281" d="M1051.091,918.368l-17.914,21.474-.68-.586Z" transform="translate(-1023.128 -890.428)" fill="#fff"/>
            <path id="パス_71282" data-name="パス 71282" d="M1090.768,918.368,1075.52,941.81l-.744-.5Z" transform="translate(-1062.805 -890.428)" fill="#fff"/>
            <path id="パス_71283" data-name="パス 71283" d="M1133.871,918.368,1121.5,943.449l-.8-.41Z" transform="translate(-1105.908 -890.428)" fill="#fff"/>
            <path id="パス_71284" data-name="パス 71284" d="M1179.793,918.368l-9.316,26.368-.841-.312Z" transform="translate(-1151.83 -890.428)" fill="#fff"/>
            <path id="パス_71285" data-name="パス 71285" d="M1227.89,918.368l-6.132,27.285-.872-.211Z" transform="translate(-1199.927 -890.428)" fill="#fff"/>
            <path id="パス_71286" data-name="パス 71286" d="M1277.487,918.368l-2.862,27.819-.891-.106Z" transform="translate(-1249.524 -890.428)" fill="#fff"/>
          </g>
        </g>
        <path id="パス_71287" data-name="パス 71287" d="M2234.035,785.264v30.584a.675.675,0,0,0,1.015.582l4.428-2.592a.674.674,0,0,0,.334-.582V788.922a.675.675,0,0,0-.245-.52l-4.428-3.657A.675.675,0,0,0,2234.035,785.264Z" transform="translate(-1312.946 -650.135)" fill="#e6e6e5"/>
        <path id="パス_71288" data-name="パス 71288" d="M937.017,339.754h0l-2.268,2.049a2.605,2.605,0,0,1-1.948.692l-82.148-.2.01-.006,0,0,4.184-2.09a3.728,3.728,0,0,1,1.783-.443Z" transform="translate(-14.671 -232.667)" fill="#b2b2b2"/>
        <g id="グループ_4644" data-name="グループ 4644" transform="translate(896.023 111.695)">
          <rect id="長方形_28692" data-name="長方形 28692" width="19.324" height="2.454" rx="1.227" transform="translate(0 0)" fill="url(#linear-gradient-2)"/>
          <rect id="長方形_28693" data-name="長方形 28693" width="19.324" height="2.454" rx="1.227" transform="translate(0 3.686)" fill="url(#linear-gradient-2)"/>
          <rect id="長方形_28694" data-name="長方形 28694" width="19.324" height="2.454" rx="1.227" transform="translate(0 7.371)" fill="url(#linear-gradient-2)"/>
          <rect id="長方形_28695" data-name="長方形 28695" width="19.324" height="2.454" rx="1.227" transform="translate(0 11.057)" fill="url(#linear-gradient-2)"/>
          <rect id="長方形_28696" data-name="長方形 28696" width="19.324" height="2.454" rx="1.227" transform="translate(0 14.743)" fill="url(#linear-gradient-2)"/>
          <rect id="長方形_28697" data-name="長方形 28697" width="19.324" height="2.454" rx="1.227" transform="translate(0 18.428)" fill="url(#linear-gradient-2)"/>
          <rect id="長方形_28698" data-name="長方形 28698" width="19.324" height="2.454" rx="1.227" transform="translate(0 40.229)" fill="url(#linear-gradient-2)"/>
          <rect id="長方形_28699" data-name="長方形 28699" width="19.324" height="2.454" rx="1.227" transform="translate(0 43.915)" fill="url(#linear-gradient-2)"/>
          <rect id="長方形_28700" data-name="長方形 28700" width="19.324" height="2.454" rx="1.227" transform="translate(0 47.6)" fill="url(#linear-gradient-2)"/>
          <rect id="長方形_28701" data-name="長方形 28701" width="19.324" height="2.454" rx="1.227" transform="translate(0 51.286)" fill="url(#linear-gradient-2)"/>
          <rect id="長方形_28702" data-name="長方形 28702" width="19.324" height="2.454" rx="1.227" transform="translate(0 54.972)" fill="url(#linear-gradient-2)"/>
          <rect id="長方形_28703" data-name="長方形 28703" width="19.324" height="2.454" rx="1.227" transform="translate(0 58.657)" fill="url(#linear-gradient-2)"/>
        </g>
        <g id="グループ_4645" data-name="グループ 4645" transform="translate(835.02 107.087)" opacity="0.41">
          <path id="パス_71289" data-name="パス 71289" d="M922.713,340.142V357.7a11.707,11.707,0,0,1-2.152,2.529,3.235,3.235,0,0,0-1.1-2.986,33.09,33.09,0,0,0-5.113,18.691,7.13,7.13,0,0,1-.48,3.73,5.469,5.469,0,0,1-2.585,2.081c-2.292,1.08-5.2,1.608-7.225.088-2.164-1.621-2.338-4.728-2.531-7.425s-.993-5.886-3.552-6.759a4.809,4.809,0,0,0-4.685,1.259c-.087.082-.172.166-.253.253a6.815,6.815,0,0,0-.47.546,9.272,9.272,0,0,0-1.11,1.888,15.027,15.027,0,0,0-.583,1.517c-.021.063-.042.127-.061.19a26.275,26.275,0,0,1-.93,2.763,5.873,5.873,0,0,1-.836,1.387,3.746,3.746,0,0,1-1.645,1.129,2.475,2.475,0,0,1-2.368-.278c-.039-.03-.075-.061-.111-.091a3.122,3.122,0,0,1-.9-2.32c-.039-.7,0-1.441-.027-2.166a5.617,5.617,0,0,0-.256-1.6,3.14,3.14,0,0,0-.227-.512,3.755,3.755,0,0,0-1.888-1.627,5.01,5.01,0,0,0-3.816-.01,6.337,6.337,0,0,0-2.019,1.4,8.124,8.124,0,0,0-.7.814c-.138.183-.269.372-.393.567q-.251.39-.467.806c-.043.081-.085.162-.126.244-.133.272-.257.549-.369.829-.093.226-.177.452-.254.679-.03.085-.058.171-.087.257q-.141.435-.26.876c-.076.283-.148.568-.212.856s-.126.58-.181.874-.112.618-.16.93c-.054.341-.1.685-.147,1.029-.024.178-.045.356-.066.534-.027.218-.051.437-.075.655-.026.238-.049.477-.073.716s-.048.482-.07.722c-.043.456-.085.911-.129,1.364-.015.151-.028.3-.045.45-.078.79-.164,1.575-.275,2.35a25.5,25.5,0,0,1-.561,2.906A15.051,15.051,0,0,1,870,392.9a11.96,11.96,0,0,1-.972,1.585,9.838,9.838,0,0,1-.868,1.035,10.268,10.268,0,0,1-2.4,1.865,9.541,9.541,0,0,1-2.749,1.038,8.372,8.372,0,0,1-2.461.147c-.13-.012-.262-.027-.39-.046a7.912,7.912,0,0,1-2.673-.9,8.1,8.1,0,0,1-2.232-1.8,6.983,6.983,0,0,1-1.463-2.7c-.052-.19-.1-.384-.132-.58a9.1,9.1,0,0,1,.075-3.234c.23-1.283.637-2.564.978-3.847.121-.459.235-.918.329-1.379a10.141,10.141,0,0,0,.16-2.908,8.165,8.165,0,0,0-.265-1.43,6.021,6.021,0,0,0-.53-1.288,4.27,4.27,0,0,0-1.043-1.252,3.76,3.76,0,0,0-1.016-.586c-.075.254-.159.515-.254.776a7.68,7.68,0,0,1-1.005,1.968,2.676,2.676,0,0,1-2.182,1.242,2.237,2.237,0,0,1-1.15-.331,3.932,3.932,0,0,1-1.5-2.007,6.43,6.43,0,0,1-.374-1.562c-.028-.253-.048-.506-.063-.76a19.819,19.819,0,0,1,.031-2.365c.051-.788.135-1.58.22-2.369.088-.815.178-1.627.236-2.432a18.821,18.821,0,0,0,.031-2.674,9.786,9.786,0,0,0-.778-3.358c-.03-.067-.06-.133-.093-.2a3.008,3.008,0,0,0-.884-1.153,1.982,1.982,0,0,0-.542-.284,2.253,2.253,0,0,0-1-.1,3.98,3.98,0,0,0-1.678.661,5.876,5.876,0,0,0-1.2,1.046,11.345,11.345,0,0,0-2.7,6.245c-.313,3.069.612,6.348-.663,9.159a1.362,1.362,0,0,1-.6.731,1.306,1.306,0,0,1-1.073-.118c-.036-.016-.07-.034-.106-.052v-35a1.483,1.483,0,0,1,.972-1.393l0,0,4.184-2.09a3.728,3.728,0,0,1,1.783-.443h80.381A.385.385,0,0,1,922.713,340.142Z" transform="translate(-835.02 -339.754)" fill="#b5ac85"/>
        </g>
        <path id="パス_71290" data-name="パス 71290" d="M866.826,452.439c-.143-.025-.265-.115-.412-.137a1.094,1.094,0,0,1-.287.044.811.811,0,0,0-.131.056c-.048.016-.118-.022-.158,0a.809.809,0,0,0-.133.143,1.59,1.59,0,0,0-.583-.247,1.907,1.907,0,0,1,.168-.96c.106-.048.364-.058.519-.125a.932.932,0,0,0,.113.2c.036.313.416.376.645.52a.247.247,0,0,0,.285-.031A1.06,1.06,0,0,0,867,451.9c.372-.044.5-.46.532-.777,0-.048-.056-.087-.067-.134s.027-.109.008-.154-.089-.062-.114-.1a.287.287,0,0,0-.176-.217c-.193-.244-.259-.156-.524-.178s-.635-.021-.741.287a.444.444,0,0,0-.147.264.833.833,0,0,0-.422-.107c.057-.091-.155-.122-.167-.193s.077-.138.063-.2c.031-.187.039-.2-.08-.359-.022-.06-.178-.06-.2-.124a2.363,2.363,0,0,0,.585-.5,3.257,3.257,0,0,1,.266.278,3.882,3.882,0,0,0,.427.107,3.752,3.752,0,0,0,.406-.142.244.244,0,0,0,.244-.15,1.99,1.99,0,0,1,.172-.4,1.206,1.206,0,0,0-.1-.421.866.866,0,0,1-.12-.266,1.114,1.114,0,0,0-.655-.307.417.417,0,0,0-.284.074c-.05.008-.1-.016-.146,0-.155.118-.419.154-.377.4a.608.608,0,0,0-.041.511,2.438,2.438,0,0,0-.637.291c-.01-.115-.113-.149-.188-.213-.039-.046.018-.177-.024-.221a2.03,2.03,0,0,1-.314-.214,1.161,1.161,0,0,0,.306-.673l.049.032a.377.377,0,0,0,.285.018c.05,0,.1.046.146.04a2.29,2.29,0,0,1,.407-.168.623.623,0,0,0,.223-.52.69.69,0,0,0-.319-.742.582.582,0,0,0-.516-.2c-.15-.022-.291.033-.433,0-.255.129-.536.37-.438.687a1.133,1.133,0,0,0,.26.636,1.576,1.576,0,0,0-.507.618c-.048-.1-.15-.118-.243-.158a.841.841,0,0,0-.316-.185c-.2-.135-.217-.033-.414-.035a4.912,4.912,0,0,1-.017-.653c.15-.051.306-.06.36-.251a1.043,1.043,0,0,0,.181-.379c-.033-.142-.023-.291-.042-.434-.018-.044-.087-.063-.112-.1s-.013-.11-.045-.146a3.826,3.826,0,0,0-.378-.211.67.67,0,0,1-.277-.1c-.148.027-.3,0-.424.091a.214.214,0,0,0-.227.156.357.357,0,0,0-.211.352.254.254,0,0,0,.033.279.832.832,0,0,0,.6.708,1.262,1.262,0,0,0-.02.668c-.084.124-.171-.026-.263-.032-.06.007-.116.035-.175.046s-.137-.06-.2-.046a1.169,1.169,0,0,0-.334.158.662.662,0,0,0-.339.13c-.117.019-.228.022-.3.134a1.37,1.37,0,0,0-.329-.541.423.423,0,0,0,.038-.067.916.916,0,0,0,.108-.816c-.018-.044-.075-.067-.1-.108s-.01-.11-.042-.146a.68.68,0,0,0-.252-.142.462.462,0,0,0-.4-.159c-.154-.038-.286.05-.434.051-.1.112-.244.158-.345.264a.965.965,0,0,0-.063.417c0,.047-.055.1-.045.149.017.157.157.234.231.365a.812.812,0,0,0,.851.371l.05.01a.866.866,0,0,0,.4.725c-.045.123-.192.064-.276.11-.041.044,0,.165-.036.211-.159.1-.2.29-.377.366a1.4,1.4,0,0,0-.642-.177c-.015-.154-.079-.3-.093-.454-.025-.041-.1-.048-.13-.084-.1-.107-.232-.175-.33-.281a.593.593,0,0,0-.294,0,.287.287,0,0,0-.28.019c-.05.008-.108-.032-.151-.017a.562.562,0,0,0-.221.183.382.382,0,0,0-.236.352c-.007.047.047.1.049.146s-.035.1-.025.145c.089.167.1.4.29.485a.392.392,0,0,0,.36.211c.115.1.126.1.272.055.141.054.156.061.279-.028.048-.015.111.009.152-.012a1.84,1.84,0,0,1,.3-.322c0-.013,0-.025,0-.038a1.324,1.324,0,0,0,.658.206,3.026,3.026,0,0,1-.345.476c-.014.058.036.133.026.193s.08.131.073.192a.488.488,0,0,0-.044.348,1.831,1.831,0,0,0-.817.017,1.117,1.117,0,0,1-.05-.243c-.025-.041-.094-.048-.126-.085s-.029-.107-.067-.137c-.178-.072-.369-.118-.547-.192-.05,0-.1.03-.144.032s-.1-.043-.149-.036a4.238,4.238,0,0,0-.364.23c-.169.048-.2.2-.184.362-.007.047-.056.091-.055.14a.9.9,0,0,1,.111.424.694.694,0,0,1,.2.211,1.209,1.209,0,0,1,.215.194.9.9,0,0,0,.567.089c.171,0,.238-.132.4-.167.094-.11.146-.25.24-.358,0-.026,0-.053,0-.079a2.417,2.417,0,0,0,.754-.009c.108.145.041.189.016.333.183.183.18.041.147.334.021.057.051.108.075.163.027.073-.018.173.049.231a2.182,2.182,0,0,0-.655.462c-.019-.044-.055-.064-.144-.1a1.647,1.647,0,0,0-.527-.22c-.05,0-.1.049-.144.05s-.1-.045-.147-.037-.083.069-.126.084-.112-.012-.152.011a1,1,0,0,0-.234.352c-.23.286.046.667.192.937a3.823,3.823,0,0,1,.388.2.511.511,0,0,1,.278.086c.315-.009.753-.21.762-.559a.912.912,0,0,0,0-.413,1.5,1.5,0,0,0,.727-.376c.251.028.214-.052.307.2.041.044.145.021.188.063s.079.084.125.123c.052.085.064.2.174.238a.982.982,0,0,0-.248.582c-.118-.032-.245-.044-.365-.067a.233.233,0,0,0-.281.021c-.15-.033-.164-.041-.27.074a.922.922,0,0,0-.335.449c.072.218.026.505.215.672a.252.252,0,0,0,.2.2c.159.225.161.027.376.217.209.07.382-.087.577-.093a1.247,1.247,0,0,1,.32-.306,1.058,1.058,0,0,0-.136-.937.937.937,0,0,0,.4-.51c.032.144.166.03.254.05a.751.751,0,0,0,.315.223.654.654,0,0,1,.447-.009.882.882,0,0,0,.1.55l-.042.025c-.164-.052-.276.054-.37.174-.129.084-.149.241-.245.35.075.221.034.5.209.686a1.482,1.482,0,0,0,.454.358,1.614,1.614,0,0,1,.291,0c.15.079.283-.008.43-.049.044-.023.057-.091.093-.121s.11-.028.14-.065a1.1,1.1,0,0,0,.015-.974.363.363,0,0,0-.221-.183.5.5,0,0,0-.293-.162.96.96,0,0,0-.042-.542,1.936,1.936,0,0,0,.488-.144,2.58,2.58,0,0,0,.571-.108,1.305,1.305,0,0,0,.286.382.848.848,0,0,0-.141.751c.119.1.147.249.232.373a.6.6,0,0,0,.265.123.584.584,0,0,0,.539.1.343.343,0,0,0,.377-.165.746.746,0,0,0,.289-.618.858.858,0,0,0-.246-.5c-.031-.036-.022-.116-.06-.146a1.9,1.9,0,0,1-.269-.124c-.093,0-.191,0-.288-.014-.064,0-.13-.011-.195-.016a1.147,1.147,0,0,0-.362-.5c.321-.151.023-.247.43-.284.1-.332.053-.144.311-.212.039-.046-.035-.183,0-.231.061-.062.178-.074.188-.18a1.187,1.187,0,0,0,.736.236c0,.013,0,.025,0,.037a.215.215,0,0,0,.059.271,2.25,2.25,0,0,0,.178.395.4.4,0,0,0,.268.12,2.328,2.328,0,0,0,.252.141c.642.032,1.207-.439.865-1.095C867.1,452.7,867.032,452.489,866.826,452.439Z" transform="translate(-20.285 -332.197)" fill="#8ac2a8"/>
        <path id="パス_71291" data-name="パス 71291" d="M1976.736,1328.5c-.144-.025-.265-.115-.412-.137a1.1,1.1,0,0,1-.287.044.8.8,0,0,0-.131.056c-.047.016-.118-.022-.157,0a.814.814,0,0,0-.133.143,1.587,1.587,0,0,0-.583-.247,1.908,1.908,0,0,1,.168-.96c.107-.048.364-.058.519-.125a.93.93,0,0,0,.113.2c.036.313.416.376.645.52a.247.247,0,0,0,.285-.031,1.048,1.048,0,0,0,.144-.007c.372-.044.5-.46.532-.776,0-.048-.056-.087-.067-.135s.027-.109.008-.154-.089-.062-.114-.1a.287.287,0,0,0-.176-.217c-.193-.244-.259-.156-.524-.178s-.635-.021-.741.287a.446.446,0,0,0-.147.264.834.834,0,0,0-.422-.107c.057-.091-.155-.122-.167-.193s.077-.138.063-.2c.03-.187.039-.2-.08-.359-.022-.06-.178-.06-.2-.124a2.363,2.363,0,0,0,.585-.5,3.2,3.2,0,0,1,.266.278,3.888,3.888,0,0,0,.427.107,3.716,3.716,0,0,0,.406-.142.244.244,0,0,0,.244-.15,1.993,1.993,0,0,1,.172-.4,1.2,1.2,0,0,0-.1-.421.872.872,0,0,1-.12-.266,1.114,1.114,0,0,0-.655-.307.418.418,0,0,0-.284.075c-.05.008-.1-.016-.146,0-.155.118-.419.154-.377.4a.608.608,0,0,0-.041.511,2.44,2.44,0,0,0-.637.291c-.01-.115-.113-.149-.188-.214-.039-.046.018-.177-.024-.221a2.03,2.03,0,0,1-.314-.214,1.161,1.161,0,0,0,.306-.673l.049.032a.377.377,0,0,0,.285.018c.05,0,.1.046.146.04a2.3,2.3,0,0,1,.407-.168.623.623,0,0,0,.224-.521.69.69,0,0,0-.319-.742.582.582,0,0,0-.516-.2c-.15-.022-.291.032-.433,0-.255.129-.536.37-.438.687a1.135,1.135,0,0,0,.26.636,1.575,1.575,0,0,0-.507.618c-.048-.1-.15-.118-.243-.158a.842.842,0,0,0-.316-.185c-.2-.135-.217-.033-.414-.035a4.921,4.921,0,0,1-.017-.653c.15-.051.306-.06.36-.251a1.043,1.043,0,0,0,.181-.379c-.033-.142-.023-.291-.042-.434-.018-.044-.087-.063-.112-.1s-.013-.11-.045-.146a3.864,3.864,0,0,0-.378-.211.671.671,0,0,1-.277-.1c-.148.027-.3,0-.423.092a.213.213,0,0,0-.227.156.357.357,0,0,0-.212.352.254.254,0,0,0,.033.279.831.831,0,0,0,.6.708,1.263,1.263,0,0,0-.02.668c-.084.124-.171-.026-.263-.032-.06.007-.116.035-.175.046s-.137-.06-.2-.046a1.169,1.169,0,0,0-.334.158.66.66,0,0,0-.339.13c-.117.019-.228.022-.3.134a1.371,1.371,0,0,0-.329-.541.429.429,0,0,0,.038-.067.917.917,0,0,0,.108-.816c-.018-.044-.075-.067-.1-.108s-.01-.11-.042-.146a.683.683,0,0,0-.252-.143.462.462,0,0,0-.4-.159c-.154-.038-.285.05-.434.051-.1.112-.244.158-.345.264a.963.963,0,0,0-.063.417c0,.047-.055.1-.045.149.017.157.157.234.231.365a.813.813,0,0,0,.851.371l.05.01a.866.866,0,0,0,.4.725c-.045.123-.192.064-.276.11-.042.044,0,.165-.036.211-.158.1-.2.29-.376.366a1.4,1.4,0,0,0-.642-.177c-.015-.154-.079-.3-.093-.454-.025-.041-.1-.048-.13-.084-.1-.107-.232-.175-.33-.281a.592.592,0,0,0-.294,0,.287.287,0,0,0-.28.019c-.05.008-.108-.032-.151-.017a.563.563,0,0,0-.221.183.382.382,0,0,0-.236.352c-.007.047.047.1.049.146s-.035.1-.025.145c.089.167.1.4.29.485a.392.392,0,0,0,.36.211c.115.1.126.1.272.055.141.054.156.061.279-.028.048-.015.111.009.152-.012a1.837,1.837,0,0,1,.3-.322c0-.013,0-.025,0-.038a1.323,1.323,0,0,0,.658.206,3.02,3.02,0,0,1-.344.476c-.014.058.036.133.025.193s.08.131.073.192a.488.488,0,0,0-.044.348,1.831,1.831,0,0,0-.817.017,1.113,1.113,0,0,1-.05-.243c-.025-.041-.094-.049-.126-.085s-.029-.107-.067-.137c-.178-.072-.369-.118-.547-.192-.05,0-.1.03-.144.032s-.1-.043-.149-.036a4.247,4.247,0,0,0-.363.23c-.169.048-.2.2-.184.362-.007.047-.056.091-.055.14a.9.9,0,0,1,.111.424.7.7,0,0,1,.2.211,1.21,1.21,0,0,1,.215.194.9.9,0,0,0,.567.089c.171,0,.238-.131.4-.167.094-.11.146-.25.24-.358,0-.026,0-.053,0-.079a2.422,2.422,0,0,0,.754-.009c.108.145.041.189.016.333.184.183.18.041.147.334.021.057.051.108.075.163.027.073-.018.172.049.231a2.176,2.176,0,0,0-.655.462c-.02-.044-.055-.064-.144-.1a1.642,1.642,0,0,0-.527-.22c-.05,0-.1.049-.144.05s-.1-.045-.147-.037-.083.069-.126.084-.112-.012-.152.011a1,1,0,0,0-.234.352c-.23.286.046.667.192.937a3.836,3.836,0,0,1,.388.2.511.511,0,0,1,.278.086c.315-.009.753-.21.763-.559a.914.914,0,0,0,0-.413,1.5,1.5,0,0,0,.728-.376c.251.028.213-.052.307.2.041.044.145.021.189.063s.079.084.125.123c.052.085.064.2.173.238a.982.982,0,0,0-.248.582c-.118-.032-.245-.044-.365-.067a.233.233,0,0,0-.281.021c-.15-.033-.164-.041-.27.074a.921.921,0,0,0-.335.449c.072.218.026.505.215.672a.252.252,0,0,0,.2.2c.159.225.161.027.376.217.209.07.382-.087.577-.093a1.251,1.251,0,0,1,.32-.306,1.058,1.058,0,0,0-.136-.937.937.937,0,0,0,.4-.51c.032.144.166.03.254.05a.753.753,0,0,0,.315.223.654.654,0,0,1,.447-.009.881.881,0,0,0,.1.55l-.042.025c-.163-.052-.275.054-.37.174-.129.084-.149.241-.245.35.075.221.034.5.209.686a1.484,1.484,0,0,0,.454.358,1.616,1.616,0,0,1,.291,0c.15.079.283-.008.43-.049.044-.023.057-.091.093-.121s.11-.028.14-.065a1.1,1.1,0,0,0,.015-.975.363.363,0,0,0-.221-.183.5.5,0,0,0-.293-.162.96.96,0,0,0-.042-.542,1.935,1.935,0,0,0,.488-.144,2.583,2.583,0,0,0,.571-.108,1.31,1.31,0,0,0,.286.382.848.848,0,0,0-.141.75c.12.1.147.249.232.373a.6.6,0,0,0,.265.124.585.585,0,0,0,.539.1.343.343,0,0,0,.377-.165.747.747,0,0,0,.289-.618.859.859,0,0,0-.246-.5c-.031-.036-.022-.115-.06-.146a1.914,1.914,0,0,1-.269-.124c-.093,0-.191,0-.288-.014-.064,0-.13-.011-.195-.016a1.148,1.148,0,0,0-.362-.5c.321-.151.023-.247.429-.284.1-.332.053-.144.311-.212.039-.046-.035-.183,0-.231.061-.062.178-.074.188-.18a1.187,1.187,0,0,0,.736.236c0,.013,0,.025,0,.037a.215.215,0,0,0,.059.271,2.243,2.243,0,0,0,.178.395.4.4,0,0,0,.268.12,2.312,2.312,0,0,0,.252.141c.642.032,1.207-.438.865-1.095C1977.012,1328.754,1976.942,1328.546,1976.736,1328.5Z" transform="translate(-1061.911 -1154.358)" fill="#8ac2a8"/>
        <path id="パス_71292" data-name="パス 71292" d="M2068.65,709.337a.4.4,0,0,0-.456.262,3.508,3.508,0,0,0-.551.057,4.97,4.97,0,0,0,0-.508c-.013-.06-.11-.1-.127-.158-.14-.239-.044-.184,0-.4-.026-.056-.134-.075-.163-.129s-.158-.045-.191-.1.008-.14-.016-.192a1.555,1.555,0,0,0,.35-.4.542.542,0,0,0,.16.035c.617-.013.546-.9-.03-.921a.4.4,0,0,0-.436.576,1.584,1.584,0,0,0-.384.268c-.185-.073-.292-.244-.482-.305a.419.419,0,0,0-.328-.18c-.2-.064-.533.062-.66-.128a2.479,2.479,0,0,0-.028-.664.471.471,0,0,0-.215-.885c-.583-.04-.588.6-.227.836a1.851,1.851,0,0,0-.056.753c-.1.042-.2-.021-.293-.025-.06.013-.117.05-.176.068s-.073.161-.131.182c-.188.041-.385.058-.572.085-.052.033-.069.123-.118.159s-.032.153-.079.192a3.048,3.048,0,0,0-.421-.375.484.484,0,0,0-.459-.558c-.7-.048-.567.881.03.921l.056,0a4.156,4.156,0,0,0,.327.274c-.117.01-.016.177-.058.24-.055.23-.041.168-.211.305.033.263.117.139-.087.361a.872.872,0,0,1-.13.35c0,.1.042.2-.01.29a2.317,2.317,0,0,0-.469.04.467.467,0,0,0-.437-.329c-.7-.048-.567.881.03.921a.427.427,0,0,0,.348-.162,1.705,1.705,0,0,0,.645.009c-.078.164.018.189.1.3a.817.817,0,0,1,.038.37.851.851,0,0,1,.116.361c.14.092.252.008.208.255a1.162,1.162,0,0,0-.272.321.516.516,0,0,0-.084-.011c-.7-.048-.567.882.03.922a.423.423,0,0,0,.418-.552,1.325,1.325,0,0,0,.3-.243c.047.07.165.019.228.057s.11.056.164.085c.185.194.129.123.358.09.148.348.549.169.848.234a.934.934,0,0,0,.053.538c-.336.2-.159.829.331.862a.456.456,0,0,0,.181-.866,1.058,1.058,0,0,0,.02-.513c.073,0,.094-.162.157-.181a1.766,1.766,0,0,0,.349-.1c.185-.219.081-.133.34-.144.14-.249.059-.178.335-.155a1.7,1.7,0,0,0,.34.268.541.541,0,0,0,.5.5c.617-.013.546-.9-.03-.922a.645.645,0,0,0-.144.006,1.508,1.508,0,0,0-.372-.309c.05-.059.041-.146.076-.212s.195-.027.225-.081a7.293,7.293,0,0,1,.138-.829,5.249,5.249,0,0,0,.76-.087.525.525,0,0,0,.377.193C2069.3,710.245,2069.227,709.359,2068.65,709.337Z" transform="translate(-1150.646 -575.975)" fill="#73ad75"/>
        <path id="パス_71293" data-name="パス 71293" d="M1561.9,248.571a.265.265,0,0,0-.3.175,2.354,2.354,0,0,0-.368.038,3.354,3.354,0,0,0,0-.34c-.009-.04-.074-.067-.085-.106-.094-.16-.03-.123,0-.265-.017-.037-.089-.05-.109-.086s-.106-.03-.128-.065,0-.094-.011-.129a1.043,1.043,0,0,0,.234-.269.361.361,0,0,0,.107.024c.413-.009.365-.6-.02-.616a.267.267,0,0,0-.292.385,1.06,1.06,0,0,0-.257.179c-.123-.049-.195-.163-.322-.2a.28.28,0,0,0-.219-.12c-.134-.043-.356.042-.441-.085a1.657,1.657,0,0,0-.019-.444.315.315,0,0,0-.143-.592c-.39-.027-.393.4-.152.559a1.235,1.235,0,0,0-.037.5c-.067.028-.132-.014-.2-.017-.04.009-.079.034-.118.045s-.049.108-.087.122c-.126.028-.258.039-.382.057-.034.022-.046.082-.078.107s-.021.1-.053.129a2.033,2.033,0,0,0-.282-.251.323.323,0,0,0-.307-.373c-.468-.032-.379.589.02.616l.038,0a2.763,2.763,0,0,0,.219.183c-.078.007-.01.118-.038.161-.037.153-.028.113-.141.2.022.176.078.093-.058.241a.582.582,0,0,1-.087.234c0,.065.028.131-.007.194a1.544,1.544,0,0,0-.314.027.312.312,0,0,0-.292-.22c-.468-.032-.379.589.02.616a.286.286,0,0,0,.233-.108,1.139,1.139,0,0,0,.431.006c-.052.109.012.126.069.2a.55.55,0,0,1,.025.247.57.57,0,0,1,.077.241c.093.061.168.005.139.17a.778.778,0,0,0-.182.214.357.357,0,0,0-.056-.007c-.468-.032-.379.589.02.616a.283.283,0,0,0,.28-.369.881.881,0,0,0,.2-.162c.031.047.11.013.152.038s.073.037.11.057c.123.13.086.082.239.06.1.232.367.113.567.156a.622.622,0,0,0,.036.36c-.225.134-.106.554.221.576a.3.3,0,0,0,.121-.579.7.7,0,0,0,.013-.343c.048,0,.063-.109.1-.121a1.173,1.173,0,0,0,.234-.067c.124-.146.054-.089.227-.1.093-.166.039-.119.224-.1a1.134,1.134,0,0,0,.227.179.362.362,0,0,0,.336.333c.413-.009.365-.6-.02-.616a.431.431,0,0,0-.1,0,1,1,0,0,0-.249-.207c.034-.04.028-.1.051-.142s.13-.018.15-.054a4.821,4.821,0,0,1,.092-.554,3.489,3.489,0,0,0,.508-.058.351.351,0,0,0,.252.129C1562.333,249.179,1562.286,248.587,1561.9,248.571Z" transform="translate(-677.422 -144.729)" fill="#73ad75"/>
        <path id="パス_71294" data-name="パス 71294" d="M2309.372,576.517s.006-.019.009-.022c.031-.027.039-.018.07-.045s.036-.022.057-.058a.182.182,0,0,0,.027-.077c.01-.04.006-.041.016-.082,0,0,.019-.012.02-.015.025,0,.056,0,.086,0s.057.009.086,0,.049-.043.077-.048.058.009.086,0,.057,0,.085-.006.049-.044.076-.05.064.026.091.02.055-.016.082-.022.049-.047.075-.053.068.024.091.019c.051-.012.068.005.061-.036s-.017,0-.07-.013l-.087-.012c-.027,0-.058.008-.089,0l-.086-.012c-.029,0-.052-.045-.082-.049s-.062.021-.091.017-.056-.027-.084-.031-.061.008-.089,0-.061,0-.088,0-.062-.02-.086-.023c0-.005.016-.013.018-.021.01-.04,0-.04-.007-.081a.165.165,0,0,0-.013-.079c-.016-.038,0-.045-.016-.083s-.009-.041-.025-.08-.037-.029-.053-.068-.009-.031-.021-.061c.016-.018.022-.034.042-.057s.024-.051.043-.072.046-.031.065-.052.044-.034.063-.055.011-.064.03-.085.059-.022.077-.042.042-.037.06-.057.018-.06.036-.079.047-.035.064-.054.024-.058.04-.076c.035-.038.105-.025.083-.06s-.044.019-.092.039c-.021.009-.042.033-.07.045l-.074.035-.075.033c-.024.011-.063-.006-.088.007s-.034.052-.059.065-.059.006-.083.019l-.071.042c-.024.015-.052.023-.074.038s-.039.043-.06.059-.048.027-.067.044c-.005,0-.012.023-.02.018-.036-.021-.046,0-.082-.025s-.026-.037-.062-.058l-.072-.043c-.035-.021-.014-.057-.05-.078s-.052,0-.082,0c.007-.028.013-.061.018-.092s-.008-.06-.005-.091.027-.058.028-.089,0-.061,0-.091-.016-.061-.017-.09,0-.062,0-.09,0-.065,0-.091c0-.055.031-.086-.013-.1s-.021.036-.049.083c-.013.022-.014.056-.03.085s-.053.037-.067.064-.017.057-.031.085-.033.05-.045.077-.005.062-.017.09-.038.05-.047.077-.024.056-.031.084.01.068.007.1c-.007,0-.031-.007-.042-.006-.041,0-.038.044-.079.047s-.046-.048-.087-.044a.2.2,0,0,0-.087.013c-.038.016-.024.043-.056.07s-.04.022-.071.049c-.021-.018-.048-.039-.074-.057s-.047-.035-.073-.051-.046-.039-.073-.053-.06-.014-.087-.027-.054-.025-.081-.038-.043-.05-.07-.062-.069,0-.094-.007-.049-.047-.073-.056c-.051-.021-.052-.053-.083-.021s0,.035.027.078c.013.02.032.042.05.068s.039.039.056.064.046.035.063.059.029.048.045.071.026.051.043.074.04.041.057.063.041.04.059.061.033.051.051.07a.147.147,0,0,0-.043.044c-.021.036,0,.041-.005.081s-.018.039-.027.079-.027.036-.037.077-.011.04-.021.08,0,.043-.006.084c0,.012.006.016,0,.023-.027,0-.055-.013-.085-.014s-.058-.007-.087-.006-.057.013-.087.014-.056.026-.085.028-.058,0-.087,0-.057.012-.085.015-.06-.006-.088,0l-.085.016c-.03,0-.062-.008-.089,0s-.055.03-.082.036-.062.006-.086.011c-.053.011-.07-.018-.072.025s.02.007.072.017c.023,0,.053,0,.084.009s.054,0,.084.009.05.035.08.039.058-.011.087-.007.053.029.081.033l.084.011c.028,0,.06-.027.088-.024s.056.009.084.011.056.02.084.021.057-.025.085-.025.06.015.087.013c.01.027,0,.039.015.072s.049.025.065.063,0,.043.021.081l.032.077a.138.138,0,0,0,.041.05c-.017.023-.055.037-.073.062l-.053.071c-.017.024-.024.055-.042.079s-.042.043-.06.067-.01.066-.026.09-.045.042-.062.065-.029.054-.045.077-.059.036-.073.057c-.031.045-.055.039-.028.074s.025,0,.071-.026l.074-.045c.022-.014.044-.034.07-.051s.041-.04.066-.057.049-.03.073-.047.057-.02.081-.038.041-.042.063-.061.039-.044.06-.063.039-.044.059-.064l.016-.009c.036.021.05,0,.085.02s.011.061.047.083.05,0,.085.019.013.059.048.081.05-.012.091,0a.277.277,0,0,1,.038.011c0,.026.01.055.01.083s0,.053,0,.081-.009.055-.006.082.007.054.011.081,0,.055.009.081,0,.057.005.082.012.055.018.08.008.058.013.081c.012.049,0,.077.036.075s.02-.027.038-.078c.008-.023.006-.055.016-.086s.006-.057.015-.086.037-.048.045-.077-.008-.062,0-.09.026-.053.032-.081,0-.059.006-.087.036-.052.041-.08,0-.057.007-.084c.037,0,.037-.008.077-.011s.041-.008.082-.011a.15.15,0,0,0,.074-.016c.038-.016.057.014.088-.014.008-.007,0-.017.009-.021.021.018.044.032.068.049s.045.033.07.048.052.022.078.036.044.036.07.05.054.02.079.032.047.034.073.045.063,0,.088.011.039.055.065.065.064,0,.09.006.053.026.077.035l.079.031c.05.018.042.056.063.019s0-.02-.036-.059c-.017-.018-.041-.035-.064-.059s-.035-.044-.057-.066-.047-.034-.068-.055-.029-.053-.05-.073l-.063-.06c-.021-.02-.051-.03-.073-.05s-.046-.036-.068-.055l-.066-.057c-.023-.019-.056-.024-.078-.042S2309.394,576.533,2309.372,576.517Z" transform="translate(-1381.231 -452.762)" fill="#bfd185"/>
        <path id="パス_71295" data-name="パス 71295" d="M1370.886,99.267c.008-.007.019-.063.029-.072.1-.09.13-.061.234-.151s.119-.074.189-.192a.6.6,0,0,0,.091-.256c.032-.134.021-.137.052-.271,0-.014.062-.039.064-.051.085-.007.185.016.285,0s.19.031.286.016.163-.142.257-.158.194.029.287.012.191,0,.282-.019.162-.147.252-.166.212.085.3.066.184-.054.271-.074.163-.155.248-.174c.1-.024.224.081.3.062.17-.04.226.018.2-.12s-.056-.016-.234-.042l-.287-.04c-.089-.013-.193.026-.294.011l-.287-.041c-.094-.013-.173-.148-.27-.162s-.206.07-.3.057-.185-.09-.279-.1-.2.027-.3.014-.2,0-.291-.013c-.109-.015-.205-.065-.286-.076,0-.017.054-.045.059-.068.031-.134-.012-.132-.024-.268a.555.555,0,0,0-.043-.261c-.054-.127,0-.15-.055-.277s-.029-.137-.083-.264-.122-.1-.176-.224-.029-.1-.07-.2c.052-.061.072-.113.139-.19s.078-.168.143-.24.154-.1.217-.174.147-.112.209-.181.037-.213.1-.281.2-.072.256-.14.139-.124.2-.19.061-.2.12-.263.156-.115.213-.178.08-.193.133-.251c.115-.126.35-.082.276-.2s-.148.065-.3.129c-.072.03-.137.108-.231.149-.077.033-.157.076-.245.116s-.163.07-.248.11-.209-.019-.291.023-.115.173-.2.215-.2.02-.275.064-.16.091-.236.138-.172.076-.246.126-.129.142-.2.2-.16.088-.221.147c-.017-.011-.041.077-.067.061-.118-.071-.153-.013-.271-.084s-.087-.122-.2-.193l-.237-.141c-.118-.071-.047-.189-.165-.26s-.172.014-.273,0c.022-.094.045-.2.059-.3s-.026-.2-.018-.3.09-.194.094-.294.012-.2.012-.3-.052-.2-.055-.3.012-.207.006-.3c-.007-.112.007-.215,0-.3-.016-.184.1-.286-.044-.322s-.07.12-.163.277c-.043.073-.045.187-.1.283-.045.08-.175.122-.224.214s-.056.19-.1.281-.109.165-.15.256-.018.207-.055.3-.125.165-.157.256-.079.187-.1.28.035.224.022.317c-.023,0-.1-.024-.138-.021-.137.012-.126.146-.263.158s-.152-.16-.289-.148a.665.665,0,0,0-.288.043c-.127.054-.081.141-.185.232s-.132.074-.235.164c-.071-.06-.16-.129-.246-.188s-.155-.118-.242-.17-.153-.128-.24-.177-.2-.046-.287-.091-.18-.083-.268-.125-.145-.167-.231-.206-.229.013-.313-.024c-.1-.044-.163-.155-.242-.187-.169-.069-.175-.175-.277-.068s-.006.115.09.26c.044.067.107.139.166.226s.13.131.186.212.153.116.209.2.095.16.151.236.085.17.142.245.131.137.188.209.136.133.2.2.109.168.169.233a.492.492,0,0,0-.142.147c-.071.118.014.135-.017.27s-.06.128-.091.262-.091.12-.122.255-.038.133-.069.267.01.144-.021.278c-.009.04.019.054.005.075-.09-.011-.182-.044-.282-.048s-.192-.023-.29-.021-.19.042-.288.047-.185.085-.281.093-.193-.006-.288,0-.189.038-.283.051-.2-.021-.292-.007-.191.037-.283.053-.2-.025-.294-.008-.184.1-.271.118c-.106.021-.206.021-.285.038-.176.038-.234-.059-.24.084s.066.023.239.056c.078.015.175.013.28.032.085.015.181.012.28.029s.167.115.264.13.193-.037.288-.023.175.1.27.109.186.026.28.036.2-.088.291-.08.186.031.279.037.186.067.279.07.19-.083.281-.084.2.048.29.043c.035.088,0,.128.049.24.054.127.161.082.215.208s.014.143.068.27.053.127.107.254a.459.459,0,0,0,.137.166c-.056.074-.182.123-.243.206s-.116.156-.175.237-.08.183-.138.264-.141.142-.2.221-.033.22-.088.3-.15.139-.2.217-.1.181-.148.256c-.063.091-.195.121-.242.19-.1.151-.184.131-.092.245s.082.006.236-.085c.07-.042.153-.094.245-.151.075-.047.148-.114.233-.17s.137-.134.219-.19.162-.1.241-.157.19-.066.267-.125.135-.141.209-.2.129-.147.2-.21.129-.145.2-.212c0,0,.052-.031.055-.029.118.071.163,0,.282.067s.038.2.156.274.166-.009.284.062.042.2.16.268.167-.039.3-.008a.912.912,0,0,1,.127.035c-.005.087.032.182.033.274s-.009.176,0,.267-.031.182-.021.272.023.18.035.268.016.182.031.269,0,.188.017.273.041.183.059.265c.022.1.025.193.044.268.04.163-.016.255.119.248s.067-.091.125-.26c.027-.078.02-.182.054-.285.028-.084.019-.188.049-.285s.122-.16.15-.255-.028-.2,0-.3.085-.175.107-.269,0-.2.02-.289.121-.174.136-.267.013-.188.023-.28c.124-.008.123-.026.255-.038s.136-.026.273-.038a.5.5,0,0,0,.245-.053c.127-.054.188.045.293-.045.028-.024.011-.056.03-.068.068.059.147.1.227.162s.151.109.233.161.173.073.257.12.148.121.232.165.178.065.263.106.157.112.242.151.208,0,.293.036.131.182.215.217.214-.014.3.019.176.087.257.117c.1.037.187.076.262.1.166.059.139.187.208.064s0-.067-.121-.2c-.057-.059-.136-.117-.212-.195s-.117-.146-.189-.218-.154-.112-.226-.182-.095-.175-.166-.243-.14-.131-.211-.2-.17-.1-.241-.165-.153-.119-.225-.181-.146-.129-.218-.189-.185-.081-.258-.138S1370.96,99.318,1370.886,99.267Z" transform="translate(-494.878 0)" fill="#bfd185"/>
      </g>
    </g>
  </g>
</svg>
