<svg xmlns="http://www.w3.org/2000/svg" xmlns:xlink="http://www.w3.org/1999/xlink" width="140" height="140" viewBox="0 0 140 140">
  <defs>
    <clipPath id="clip-path">
      <circle id="楕円形_25" data-name="楕円形 25" cx="70" cy="70" r="70" transform="translate(0 0.477)" fill="#f7f3e5"/>
    </clipPath>
  </defs>
  <g id="trouble_02" transform="translate(0 -0.477)">
    <circle id="楕円形_23" data-name="楕円形 23" cx="70" cy="70" r="70" transform="translate(0 0.477)" fill="#fff"/>
    <g id="マスクグループ_4" data-name="マスクグループ 4" clip-path="url(#clip-path)">
      <g id="グループ_3952" data-name="グループ 3952" transform="translate(-231.99 -3784.272)">
        <g id="グループ_1886" data-name="グループ 1886" transform="translate(247.11 3803.932)">
          <path id="パス_63681" data-name="パス 63681" d="M605.478,596.06c-5.425-17.038-9.3-29.128-10.762-32.556C591.8,556.682,583.259,552.8,580.24,552l-13.2-4.047a5.358,5.358,0,0,1,.723,2.568c0,4.823-6.788,15.265-16.277,15.265h-.016c-9.484,0-16.279-10.442-16.279-15.265a5.676,5.676,0,0,1,.518-2.313L523.35,552c-2.943.718-11.557,4.686-14.47,11.508-1.466,3.428-5.343,15.518-10.765,32.556a21.079,21.079,0,0,0-1.187,8.144c.2,7.309,1.372,18.71,4.936,25.908,2.159,4.371,7.146,2.745,9.679,1.9a6.4,6.4,0,0,0,4.55-4.732c.7-3-1.343-11.406-.394-23.447.343-4.393,4.49-12.259,5.116-16.785,0,0-1.26,21.352-1.409,32.084-.106,7.476.383,32.866,3,32.866h58.785c2.616,0,3.108-25.39,3-32.866-.151-10.732-1.413-32.084-1.413-32.084.624,4.5,4.746,12.341,5.094,16.714.952,12.073-1.089,20.508-.386,23.517a6.419,6.419,0,0,0,4.56,4.732c2.526.841,7.526,2.467,9.68-1.9,3.574-7.2,4.743-18.6,4.942-25.908A21.148,21.148,0,0,0,605.478,596.06Z" transform="translate(-496.915 -485.924)" fill="#02254d"/>
          <g id="グループ_1858" data-name="グループ 1858" transform="translate(38.275 57.026)">
            <path id="パス_63682" data-name="パス 63682" d="M554.241,544.053v1.094a6.7,6.7,0,0,1,1.468,4.536c0,6.378-11.053,16.842-11.053,16.842s-10.689-10.464-10.689-16.842a6.778,6.778,0,0,1,1.343-4.366v-1.475c-4.483,1.7-6.948,4.591-6.948,7.567,0,4.823,6.794,15.265,16.279,15.265h.016c9.489,0,16.277-10.442,16.277-15.265C560.933,548.77,558.568,545.85,554.241,544.053Z" transform="translate(-528.361 -543.842)" fill="#02254d"/>
          </g>
          <g id="グループ_1859" data-name="グループ 1859" transform="translate(43.88 58.331)">
            <path id="パス_63683" data-name="パス 63683" d="M553.241,544.914v1.213c0,1.462-7.981,5.158-9.394,5.158s-9.538-3.768-9.538-5.158v-1.043a6.778,6.778,0,0,0-1.342,4.366c0,6.378,10.689,16.842,10.689,16.842s11.053-10.464,11.053-16.842A6.7,6.7,0,0,0,553.241,544.914Z" transform="translate(-532.966 -544.914)" fill="#02254d"/>
          </g>
          <g id="グループ_1862" data-name="グループ 1862" transform="translate(45.223 53.328)">
            <path id="パス_63691" data-name="パス 63691" d="M534.069,542.892v3.748c0,1.39,8.123,5.158,9.538,5.158S553,548.1,553,546.64v-4.085a14.946,14.946,0,0,1-9.673,3.777A14.74,14.74,0,0,1,534.069,542.892Z" transform="translate(-534.069 -540.424)" fill="#fccea5"/>
            <path id="パス_63692" data-name="パス 63692" d="M548.161,543.443a14.8,14.8,0,0,1-11.067-.756,16.282,16.282,0,0,1-3.026-1.883v2.468a14.74,14.74,0,0,0,9.259,3.44A14.946,14.946,0,0,0,553,542.935v-1.974A16.037,16.037,0,0,1,548.161,543.443Z" transform="translate(-534.069 -540.804)" fill="#e5a87c"/>
          </g>
          <g id="グループ_1865" data-name="グループ 1865" transform="translate(32.272 0)">
            <path id="パス_63693" data-name="パス 63693" d="M566.032,522.822a2.234,2.234,0,0,0-1.547.256c-.063-1.257-.147-2.591-.2-3.565-.276.464-.92.932-2.431.932-3,0-8.117-4.575-15.839-4.575s-12.946,4.575-15.559,4.575c-2.078,0-2.528-1.171-2.627-1.646a.552.552,0,0,0,.015.061c-.147.242-.247.455-.365.688-.037.953-.091,2.235-.14,3.454a2.288,2.288,0,0,0-1.112-.192h-.007c-.089.01-.173-.006-.258.012-2.465.56-3.133,4.536-2,7.856s3.318,5.653,5.027,5.264a1.945,1.945,0,0,0,.358-.153,40.53,40.53,0,0,0,2.642,5.5,16.744,16.744,0,0,0,7.411,6.81,14.8,14.8,0,0,0,11.067.756,16.572,16.572,0,0,0,9.381-7.566,40.752,40.752,0,0,0,2.668-5.558,1.739,1.739,0,0,0,.477.208c1.719.388,3.889-1.94,5.028-5.264S568.5,523.382,566.032,522.822Z" transform="translate(-523.429 -492.891)" fill="#fccea5"/>
            <g id="グループ_1863" data-name="グループ 1863" transform="translate(2.002)">
              <path id="パス_63694" data-name="パス 63694" d="M545.776,496.991c-9.036,0-20.7,6.342-20.7,18.556,0,5.751.1,8.978.789,11.364l.069,0a11.71,11.71,0,0,1,1.556-3.947,1.523,1.523,0,0,1-.047-.268c3.328-4.171,7.71-8.3,18.219-8.3s15.112,4.078,18.462,8.3a1.46,1.46,0,0,1,.006.325,11.593,11.593,0,0,1,1.5,3.9c.016,0,.033,0,.046,0l.011,0c.523-2.337.54-5.8.54-11.329C566.226,503.913,554.812,496.991,545.776,496.991Z" transform="translate(-525.074 -496.991)" fill="#005d50"/>
              <path id="パス_63695" data-name="パス 63695" d="M529.678,521.441c2.613,0,7.84-4.575,15.559-4.575s12.841,4.575,15.839,4.575,2.623-1.853,2.623-1.853c-3.35-4.224-7.953-8.3-18.462-8.3s-14.891,4.13-18.219,8.3C527.018,519.588,527.079,521.441,529.678,521.441Z" transform="translate(-524.652 -493.886)" fill="#33846b"/>
            </g>
            <g id="グループ_1864" data-name="グループ 1864" transform="translate(2.945 25.584)">
              <path id="パス_63696" data-name="パス 63696" d="M558.021,518.374c-.045.528-.421,1.527-2.629,1.527a6.558,6.558,0,0,1-2.2-.55,16.718,16.718,0,0,1,3.047,3.134c.54,1.878-.127,6.464-.117,6.464.635.091.937-.668,1.127-1.482.424-1.783.835-4.242.955-5a2.233,2.233,0,0,1,1.167-.2c.023-.129.046-.273.069-.4A12,12,0,0,0,558.021,518.374Z" transform="translate(-519.91 -517.931)" fill="#26201f"/>
              <path id="パス_63697" data-name="パス 63697" d="M529.932,519.981c-2.078,0-2.528-1.171-2.627-1.646a.55.55,0,0,0,.015.061,12.131,12.131,0,0,0-1.472,3.542c.043.152.079.288.106.4a2.155,2.155,0,0,1,.645.129c.107.662.528,3.235.961,5.078.189.814.5,1.574,1.13,1.482.012,0-.784-5.458.055-6.906a17.991,17.991,0,0,0,4.02-2.213,24.532,24.532,0,0,0,2.336-1.9C532.858,519.036,531.114,519.981,529.932,519.981Z" transform="translate(-525.848 -518.01)" fill="#26201f"/>
            </g>
            <path id="パス_63698" data-name="パス 63698" d="M549.4,535.258a.707.707,0,0,1-.155-.35.349.349,0,0,0-.415-.308.362.362,0,0,0-.307.414.577.577,0,0,0,.045.129,17.274,17.274,0,0,1-5.519,1.133,16.428,16.428,0,0,1-5.44-1.139c.01-.044.032-.066.039-.114a.367.367,0,0,0-.3-.422.381.381,0,0,0-.421.3.791.791,0,0,1-.155.36.369.369,0,0,0,0,.517.378.378,0,0,0,.259.1.372.372,0,0,0,.258-.107,1.437,1.437,0,0,0,.17-.245,16.608,16.608,0,0,0,5.586,1.165,17.565,17.565,0,0,0,5.659-1.156,1.193,1.193,0,0,0,.175.24.368.368,0,0,0,.252.1.381.381,0,0,0,.257-.1A.375.375,0,0,0,549.4,535.258Z" transform="translate(-520.554 -488.825)" fill="#d39361"/>
            <path id="パス_63423" data-name="パス 63423" d="M.012,1.46A1.81,1.81,0,0,0,1.435,3.468,1.591,1.591,0,0,0,3.269,2.026a1.807,1.807,0,0,0-1.43-2A1.588,1.588,0,0,0,.012,1.46Z" transform="translate(27.197 29.899) rotate(16)" fill="#26201f"/>
            <path id="パス_63424" data-name="パス 63424" d="M.012,1.463A1.814,1.814,0,0,0,1.438,3.47,1.6,1.6,0,0,0,3.272,2.027a1.814,1.814,0,0,0-1.431-2A1.592,1.592,0,0,0,.012,1.463Z" transform="translate(14.181 29.569) rotate(16)" fill="#26201f"/>
            <path id="パス_63425" data-name="パス 63425" d="M1.312,8a.424.424,0,0,1-.265-.208C.939,7.6.811,7.4.688,7.22a2.6,2.6,0,0,1-.6-2.288,17.2,17.2,0,0,1,2-3.221c.439-.627.852-1.219,1-1.49A.421.421,0,0,1,3.662.054.424.424,0,0,1,3.83.63c-.171.31-.578.892-1.051,1.568A20.255,20.255,0,0,0,.9,5.169c-.161.56.072.945.494,1.577.134.2.272.408.4.635a.424.424,0,0,1-.168.576A.429.429,0,0,1,1.312,8Z" transform="matrix(0.966, -0.259, 0.259, 0.966, 18.457, 36.1)" fill="#d39361"/>
          </g>
          <g id="グループ_1866" data-name="グループ 1866" transform="translate(0.965 109.844)">
            <path id="パス_63699" data-name="パス 63699" d="M512.726,589.942c.155.155-3.431-1.666-4.667-1.913-.928-.185-5.1-.807-7.764,1.616a16.527,16.527,0,0,0-2.587,3.087s1.343-3.087,3.148-4.267C503.906,586.467,509.586,586.868,512.726,589.942Z" transform="translate(-497.708 -587.236)" fill="#00483d"/>
          </g>
          <g id="グループ_1867" data-name="グループ 1867" transform="translate(2.711 107.598)">
            <path id="パス_63700" data-name="パス 63700" d="M514.994,590.929a12.567,12.567,0,0,0-2.963-2.871,13.1,13.1,0,0,0-9.092-2.008,15.04,15.04,0,0,0-3.8,1.12,13.079,13.079,0,0,1,4.517-1.685C508.99,584.952,512.948,586.649,514.994,590.929Z" transform="translate(-499.143 -585.39)" fill="#00483d"/>
          </g>
          <g id="グループ_1868" data-name="グループ 1868" transform="translate(93.238 109.844)">
            <path id="パス_63701" data-name="パス 63701" d="M573.522,589.942c-.156.155,3.434-1.666,4.669-1.913.927-.185,5.1-.807,7.766,1.616a16.643,16.643,0,0,1,2.584,3.087s-1.345-3.087-3.144-4.267C582.345,586.467,576.662,586.868,573.522,589.942Z" transform="translate(-573.517 -587.236)" fill="#00483d"/>
          </g>
          <g id="グループ_1869" data-name="グループ 1869" transform="translate(90.653 107.598)">
            <path id="パス_63702" data-name="パス 63702" d="M571.4,590.929a12.724,12.724,0,0,1,2.966-2.871,13.1,13.1,0,0,1,9.1-2.008,15.037,15.037,0,0,1,3.793,1.12,13.069,13.069,0,0,0-4.515-1.685C577.408,584.952,573.452,586.649,571.4,590.929Z" transform="translate(-571.393 -585.39)" fill="#00483d"/>
          </g>
          <path id="パス_63703" data-name="パス 63703" d="M513.173,555.151s5.206,6.292,5.637,11.557-1.182.157-1.182.157S516.445,559.988,513.173,555.151Z" transform="translate(-493.384 -484.36)" fill="#11335a"/>
          <path id="パス_63704" data-name="パス 63704" d="M571.854,555.151s-5.208,6.292-5.637,11.557,1.178.157,1.178.157S568.578,559.988,571.854,555.151Z" transform="translate(-481.88 -484.36)" fill="#11335a"/>
          <g id="グループ_1870" data-name="グループ 1870" transform="translate(34.274 0)">
            <path id="パス_63705" data-name="パス 63705" d="M545.776,496.991c-9.036,0-20.7,6.342-20.7,18.556,0,5.751.1,8.978.789,11.364l.069,0a11.71,11.71,0,0,1,1.556-3.947,1.523,1.523,0,0,1-.047-.268c3.328-4.171,7.71-8.3,18.219-8.3s15.112,4.078,18.462,8.3a1.46,1.46,0,0,1,.006.325,11.593,11.593,0,0,1,1.5,3.9c.016,0,.033,0,.046,0l.011,0c.523-2.337.54-5.8.54-11.329C566.226,503.913,554.812,496.991,545.776,496.991Z" transform="translate(-525.074 -496.991)" fill="#02254d"/>
            <path id="パス_63721" data-name="パス 63721" d="M543.4,496.991c-8,0-18.321,6.342-18.321,18.556,0,5.751,1.141,9.27,2.136,7.414a1.7,1.7,0,0,1-.042-.268c2.945-4.171,6.823-8.3,16.124-8.3s13.375,4.078,16.339,8.3a1.648,1.648,0,0,1,.005.325c.969,1.842,1.857-1.889,1.857-7.422C561.494,503.913,551.393,496.991,543.4,496.991Z" transform="translate(-522.708 -496.991)" fill="#fff" stroke="#02254d" stroke-width="1"/>
            <path id="パス_63706" data-name="パス 63706" d="M529.678,521.441c2.613,0,7.84-4.575,15.559-4.575s12.841,4.575,15.839,4.575,2.623-1.853,2.623-1.853c-3.35-4.224-7.953-8.3-18.462-8.3s-14.891,4.13-18.219,8.3C527.018,519.588,527.079,521.441,529.678,521.441Z" transform="translate(-524.652 -493.886)" fill="#02254d"/>
            <g id="header_logo" transform="translate(7.285 7.902)">
              <g id="グループ_1" data-name="グループ 1" transform="translate(0 0.126)">
                <rect id="長方形_1" data-name="長方形 1" width="1.147" height="1.147" transform="translate(5.496 3.988)" fill="#009c86"/>
                <path id="パス_1" data-name="パス 1" d="M193.718,218.188v-1.147h.911l-2.631-1.7-2.631,1.7h.911v3.44h1.147v-1.147h1.147v-1.147h1.145v1.147h-1.145v1.147h1.147v-1.147h1.144v-1.147Z" transform="translate(-189.366 -215.347)" fill="#009c86"/>
              </g>
              <rect id="長方形_2" data-name="長方形 2" width="1.129" height="1.129" transform="translate(10.619 1.204) rotate(180)" fill="#009c86"/>
              <g id="グループ_2" data-name="グループ 2" transform="translate(7.224)">
                <path id="パス_2" data-name="パス 2" d="M329.516,214.291l-2.949.085a.714.714,0,0,0,.4-1.055l.013,0h0l.392-.135a.026.026,0,0,0,.016-.033c0-.012-.012-.017-.028-.017l-.462.02-.082,0a.716.716,0,1,0-.633,1.243h0l-.2,1.934-.48,1.6h0l-.013.042-.064.213h0a.048.048,0,0,0,.046.062h1.068a.055.055,0,0,0,.055-.055v-.208a.054.054,0,0,0-.055-.054h-.114l.41-1.368,1.252.191v1.427a.067.067,0,0,0,.067.067h1.066a.054.054,0,0,0,.054-.055v-.208a.054.054,0,0,0-.054-.054h-.233V216.1a.141.141,0,0,0-.12-.14l-1.914-.292.041-.4,2.546-.074a.071.071,0,0,0,.069-.073l-.022-.758A.071.071,0,0,0,329.516,214.291Zm-3.648-.487a.5.5,0,0,1-.012-.1l.06-.021.84-.289a.5.5,0,0,1-.289.787.5.5,0,0,1-.6-.377Z" transform="translate(-325.426 -212.977)" fill="#1a1311"/>
                <path id="パス_3" data-name="パス 3" d="M446.462,230.361H445.9v-.774a.076.076,0,0,0-.076-.076h-.686a.076.076,0,0,0-.076.076v.774h-1.028a.076.076,0,0,0-.076.076v.686a.076.076,0,0,0,.076.076h1.028v2.4h-.2a.064.064,0,0,0-.064.064v.167a.064.064,0,0,0,.064.064h.974a.067.067,0,0,0,.067-.067V231.2h.559a.076.076,0,0,0,.076-.076v-.686A.076.076,0,0,0,446.462,230.361Z" transform="translate(-437.667 -228.634)" fill="#1a1311"/>
                <path id="パス_4" data-name="パス 4" d="M528.146,235.389h-.5v-.5a.063.063,0,0,0-.063-.063h-.629a.063.063,0,0,0-.063.063v.5h-.826a.063.063,0,0,0-.063.063v.712a.063.063,0,0,0,.063.063h.826v1.228a.707.707,0,0,1-.707.707h-.124a.058.058,0,0,0-.058.058v.638a.058.058,0,0,0,.058.058h.124a1.462,1.462,0,0,0,1.462-1.462v-1.228h.5a.063.063,0,0,0,.063-.063v-.712A.063.063,0,0,0,528.146,235.389Z" transform="translate(-515.349 -233.662)" fill="#1a1311"/>
                <path id="パス_5" data-name="パス 5" d="M579.1,227.8h.725a.076.076,0,0,0,.076-.076v-.758h.679a.042.042,0,0,0,.042-.042v-1.249a.071.071,0,0,0-.071-.071h-.048v0h-1.57v-.647a.067.067,0,0,0-.067-.067H578.2a.067.067,0,0,0-.067.067v.647h-1.618a.071.071,0,0,0-.071.071V226.9a.067.067,0,0,0,.067.067h.654v.758a.076.076,0,0,0,.076.076h.892v.176h-1.125a.068.068,0,0,0-.068.068v.488a.068.068,0,0,0,.068.068h1.125v.164h-1.621a.068.068,0,0,0-.068.068v.488a.068.068,0,0,0,.068.068h4.043a.068.068,0,0,0,.068-.068v-.488a.068.068,0,0,0-.068-.068h-1.621V228.6h1.124a.068.068,0,0,0,.068-.068v-.488a.068.068,0,0,0-.068-.068h-1.124V227.8Zm-1.856-1.368v-.147h2.576v.147Zm.721.693v-.017a.076.076,0,0,1,.076-.076h.982a.076.076,0,0,1,.076.076v.017a.076.076,0,0,1-.076.076h-.982A.076.076,0,0,1,577.969,227.124Z" transform="translate(-563.118 -224.255)" fill="#1a1311"/>
                <path id="パス_6" data-name="パス 6" d="M501.982,248.265h-.173v-2.695a.063.063,0,0,0-.063-.063h-.635a.063.063,0,0,0-.063.063v2.881a.081.081,0,0,0,.081.081h.852a.07.07,0,0,0,.07-.07v-.128A.07.07,0,0,0,501.982,248.265Z" transform="translate(-491.724 -243.781)" fill="#1a1311"/>
                <path id="パス_7" data-name="パス 7" d="M447.307,275.167a.4.4,0,1,0,.4.4A.4.4,0,0,0,447.307,275.167Z" transform="translate(-440.46 -271.865)" fill="#1a1311"/>
                <path id="パス_8" data-name="パス 8" d="M588.463,222.832a.4.4,0,1,0-.4-.4A.4.4,0,0,0,588.463,222.832Z" transform="translate(-574.12 -221.557)" fill="#1a1311"/>
                <path id="パス_9" data-name="パス 9" d="M628.971,222.832a.4.4,0,1,0-.4-.4A.4.4,0,0,0,628.971,222.832Z" transform="translate(-612.478 -221.557)" fill="#1a1311"/>
                <path id="パス_10" data-name="パス 10" d="M410,230.292l-.621-.313a.071.071,0,0,0-.1.032l-.585,1.166h0l-.253.508a.071.071,0,0,0,.032.1l.505.252v2.224a.077.077,0,0,0,.077.077h.683a.077.077,0,0,0,.077-.077V231.8a.1.1,0,0,0-.058-.094l-.312-.155.583-1.163A.071.071,0,0,0,410,230.292Z" transform="translate(-404.026 -229.069)" fill="#1a1311"/>
              </g>
              <g id="グループ_3" data-name="グループ 3" transform="translate(5.188 5.858)">
                <path id="パス_11" data-name="パス 11" d="M368.389,323.575H368.2v.148h.174v.6h-.145v-.04h-.383v.047h-.138v-.605h.166v-.148H367.7v-.109c-.018.05-.037.1-.059.147l.035.011a.035.035,0,0,1-.03.021v.7H367.5v-.477q-.026.039-.053.071a1.609,1.609,0,0,0-.061-.161,1.273,1.273,0,0,0,.194-.417l.161.054c0,.009-.014.014-.031.013l0,.011h.68Zm-.543.279v.3h.042v-.3Zm.212,0h-.045v.3h.045Zm0-.13v-.148h-.043v.148Zm.171.431v-.3h-.046v.3Z" transform="translate(-363.125 -323.358)" fill="#1a1311"/>
                <path id="パス_12" data-name="パス 12" d="M393.506,323.408l.1.044a.036.036,0,0,1-.016.018.77.77,0,0,1-.148.263.669.669,0,0,0,.221.106.681.681,0,0,0-.085.111v.335h-.145v-.027h-.177v.031h-.139v-.321l-.047.019a.473.473,0,0,0-.044-.071l-.039.056c-.009-.025-.024-.057-.039-.09v.407h-.142v-.342a.758.758,0,0,1-.084.167.777.777,0,0,0-.067-.138.931.931,0,0,0,.141-.323h-.116v-.139h.126V323.3l.172.009c0,.011-.01.018-.03.022v.178h.106v.063a.819.819,0,0,0,.168-.273l.161.053a.029.029,0,0,1-.03.012c-.006.014-.014.03-.021.044h.151Zm-.559.244v.034c.024.029.082.112.11.153a.806.806,0,0,0,.18-.107.886.886,0,0,1-.061-.083.642.642,0,0,1-.069.071.807.807,0,0,0-.072-.069Zm.477.242a.729.729,0,0,1-.086-.062.817.817,0,0,1-.085.062Zm-.17.235h.177v-.11h-.177Zm0-.589a.663.663,0,0,0,.076.1.584.584,0,0,0,.069-.1Z" transform="translate(-387.048 -323.303)" fill="#1a1311"/>
                <path id="パス_13" data-name="パス 13" d="M417.947,330a.145.145,0,1,1-.145-.145A.145.145,0,0,1,417.947,330Z" transform="translate(-410.724 -329.504)" fill="#1a1311"/>
                <path id="パス_14" data-name="パス 14" d="M430.31,324.165a.822.822,0,0,1,.261.12.326.326,0,0,1-.074.163.626.626,0,0,0-.179-.123v0c0,.1-.076.172-.225.172s-.263-.068-.263-.186c0-.1.1-.175.263-.175l.061,0,0-.083c-.092,0-.183,0-.254,0a.52.52,0,0,1-.027-.156,1.7,1.7,0,0,0,.183.012h.093v-.1a2.117,2.117,0,0,1-.215-.006.488.488,0,0,1-.025-.147,1.158,1.158,0,0,0,.17.014h.072v-.012c0-.056,0-.08,0-.112a.819.819,0,0,1,.165.012c0,.034-.005.069-.006.106a1.2,1.2,0,0,0,.17-.023.476.476,0,0,1,0,.144,1.493,1.493,0,0,1-.173.02c0,.031,0,.061,0,.092v.005a1.484,1.484,0,0,0,.211-.031.55.55,0,0,1,0,.154,1.788,1.788,0,0,1-.2.024Zm-.151.109a.485.485,0,0,0-.086-.007c-.052,0-.088.014-.088.044s.025.045.084.045S430.158,324.332,430.159,324.273Z" transform="translate(-422.25 -323.531)" fill="#1a1311"/>
                <path id="パス_15" data-name="パス 15" d="M449.28,324.149a.2.2,0,0,0-.03.093c0,.047.032.093.182.093a.868.868,0,0,0,.343-.065.483.483,0,0,1,.041.172,1.037,1.037,0,0,1-.378.06c-.222,0-.366-.081-.366-.222a.458.458,0,0,1,.049-.185A.617.617,0,0,1,449.28,324.149Zm-.121-.48a1.835,1.835,0,0,0,.542.006.763.763,0,0,1,0,.163,2.121,2.121,0,0,1-.531,0A.736.736,0,0,1,449.159,323.669Zm.69.09a.317.317,0,0,1-.083.034.733.733,0,0,0-.06-.141.432.432,0,0,1,.08-.034A.7.7,0,0,1,449.849,323.759Zm.116-.05a.325.325,0,0,1-.082.035.643.643,0,0,0-.061-.136.474.474,0,0,1,.08-.034A.5.5,0,0,1,449.965,323.71Z" transform="translate(-440.471 -323.561)" fill="#1a1311"/>
                <path id="パス_16" data-name="パス 16" d="M470.244,325.83a.2.2,0,0,0-.03.093c0,.047.032.093.182.093a.865.865,0,0,0,.343-.065.482.482,0,0,1,.042.172,1.037,1.037,0,0,1-.378.06c-.221,0-.366-.081-.366-.222a.442.442,0,0,1,.049-.185A.616.616,0,0,1,470.244,325.83Zm-.121-.48a2.048,2.048,0,0,0,.573.006.776.776,0,0,1,0,.163,2.385,2.385,0,0,1-.563,0A.8.8,0,0,1,470.123,325.35Z" transform="translate(-460.321 -325.241)" fill="#1a1311"/>
                <path id="パス_17" data-name="パス 17" d="M489.022,324.113a2.356,2.356,0,0,0,.371-.031.4.4,0,0,1,.063.111,2.878,2.878,0,0,0-.264.243.372.372,0,0,1,.115-.018.274.274,0,0,1,.3.263c0,.2-.157.357-.511.322a.528.528,0,0,1-.054-.176c.228.04.392,0,.392-.149,0-.067-.052-.132-.167-.132a.462.462,0,0,0-.358.249.477.477,0,0,1-.119-.135c.109-.121.317-.324.41-.418-.048.008-.157.02-.232.024a.587.587,0,0,1-.037-.157C488.946,324.112,488.984,324.113,489.022,324.113Z" transform="translate(-478.076 -324.041)" fill="#1a1311"/>
                <path id="パス_18" data-name="パス 18" d="M287.56,324.165a.822.822,0,0,1,.261.12.326.326,0,0,1-.075.163.625.625,0,0,0-.179-.123v0c0,.1-.075.172-.225.172s-.263-.068-.263-.186c0-.1.1-.175.263-.175l.061,0,0-.083c-.092,0-.183,0-.254,0a.518.518,0,0,1-.027-.156,1.694,1.694,0,0,0,.183.012h.093v-.1a2.118,2.118,0,0,1-.215-.006.49.49,0,0,1-.025-.147,1.157,1.157,0,0,0,.17.014h.072v-.012c0-.056,0-.08,0-.112a.818.818,0,0,1,.165.012q0,.051-.006.106a1.2,1.2,0,0,0,.17-.023.476.476,0,0,1,0,.144,1.493,1.493,0,0,1-.173.02c0,.031,0,.061,0,.092v.005a1.483,1.483,0,0,0,.211-.031.547.547,0,0,1,0,.154,1.788,1.788,0,0,1-.2.024Zm-.151.109a.485.485,0,0,0-.086-.007c-.052,0-.088.014-.088.044s.025.045.084.045S287.408,324.332,287.409,324.273Z" transform="translate(-287.08 -323.531)" fill="#1a1311"/>
                <path id="パス_19" data-name="パス 19" d="M306.531,324.149a.2.2,0,0,0-.03.093c0,.047.032.093.182.093a.867.867,0,0,0,.343-.065.48.48,0,0,1,.041.172,1.036,1.036,0,0,1-.378.06c-.222,0-.366-.081-.366-.222a.459.459,0,0,1,.049-.185A.617.617,0,0,1,306.531,324.149Zm-.121-.48a1.835,1.835,0,0,0,.542.006.769.769,0,0,1,0,.163,2.121,2.121,0,0,1-.531,0A.734.734,0,0,1,306.41,323.669Zm.69.09a.316.316,0,0,1-.083.034.735.735,0,0,0-.06-.141.431.431,0,0,1,.08-.034A.7.7,0,0,1,307.1,323.759Zm.116-.05a.325.325,0,0,1-.082.035.641.641,0,0,0-.061-.136.474.474,0,0,1,.08-.034A.5.5,0,0,1,307.216,323.71Z" transform="translate(-305.301 -323.561)" fill="#1a1311"/>
                <path id="パス_20" data-name="パス 20" d="M327.5,325.83a.194.194,0,0,0-.03.093c0,.047.032.093.182.093a.866.866,0,0,0,.343-.065.48.48,0,0,1,.042.172,1.037,1.037,0,0,1-.378.06c-.221,0-.366-.081-.366-.222a.441.441,0,0,1,.049-.185A.617.617,0,0,1,327.5,325.83Zm-.121-.48a2.048,2.048,0,0,0,.573.006.774.774,0,0,1,0,.163,2.384,2.384,0,0,1-.563,0A.8.8,0,0,1,327.374,325.35Z" transform="translate(-325.152 -325.241)" fill="#1a1311"/>
                <path id="パス_21" data-name="パス 21" d="M346.273,324.113a2.354,2.354,0,0,0,.37-.031.4.4,0,0,1,.063.111,2.874,2.874,0,0,0-.264.243.372.372,0,0,1,.115-.018.274.274,0,0,1,.3.263c0,.2-.157.357-.511.322a.532.532,0,0,1-.054-.176c.228.04.392,0,.392-.149,0-.067-.052-.132-.167-.132a.461.461,0,0,0-.358.249.476.476,0,0,1-.119-.135c.109-.121.317-.324.41-.418-.048.008-.157.02-.232.024a.587.587,0,0,1-.037-.157C346.2,324.112,346.235,324.113,346.273,324.113Z" transform="translate(-342.907 -324.041)" fill="#1a1311"/>
                <path id="パス_22" data-name="パス 22" d="M510.789,326.509a.41.41,0,0,1-.128.128,1.817,1.817,0,0,0-.246-.277,1.218,1.218,0,0,1-.378.271.727.727,0,0,1-.127-.145,1.007,1.007,0,0,0,.413-.266.732.732,0,0,0,.149-.221c-.125,0-.372.008-.446.011a1.124,1.124,0,0,1-.02-.162c.033,0,.074.005.108.005.055,0,.361-.005.428-.008a.662.662,0,0,0,.078-.007.372.372,0,0,1,.088.087,1.725,1.725,0,0,1-.186.311A2.043,2.043,0,0,1,510.789,326.509Z" transform="translate(-498.077 -325.702)" fill="#1a1311"/>
                <path id="パス_23" data-name="パス 23" d="M532.085,323.821a.5.5,0,0,0,.08-.007.435.435,0,0,1,.094.077,1.094,1.094,0,0,1-.173.357c.032.027.062.055.091.083a.324.324,0,0,1-.116.127c-.025-.027-.054-.056-.085-.085a.932.932,0,0,1-.364.23.492.492,0,0,1-.141-.138.861.861,0,0,0,.385-.195,1.718,1.718,0,0,0-.157-.112.8.8,0,0,1,.1-.108,1.681,1.681,0,0,1,.161.1.6.6,0,0,0,.1-.2l-.262,0a1.036,1.036,0,0,1-.242.237.367.367,0,0,1-.139-.11.79.79,0,0,0,.366-.435.431.431,0,0,1,.157.07.752.752,0,0,1-.051.1c.161,0,.192,0,.192,0Z" transform="translate(-518.447 -323.634)" fill="#1a1311"/>
                <path id="パス_24" data-name="パス 24" d="M551.72,328.823a.6.6,0,0,1-.133.061,2,2,0,0,0-.1-.2c.027-.014.1-.048.13-.059A1.766,1.766,0,0,1,551.72,328.823Zm.485-.165a.929.929,0,0,1-.142.336.678.678,0,0,1-.305.227.516.516,0,0,1-.12-.122.56.56,0,0,0,.3-.19.6.6,0,0,0,.117-.318A.549.549,0,0,1,552.205,328.659Zm-.267.088a.7.7,0,0,1-.135.058,1.822,1.822,0,0,0-.089-.2,1.228,1.228,0,0,1,.132-.055A2.029,2.029,0,0,1,551.938,328.747Z" transform="translate(-537.451 -328.269)" fill="#1a1311"/>
                <path id="パス_25" data-name="パス 25" d="M570.173,326.529a.853.853,0,0,1-.406.315.5.5,0,0,1-.148-.153.672.672,0,0,0,.383-.218.593.593,0,0,0,.121-.27l-.582.008a1.217,1.217,0,0,1-.016-.174c.049,0,.1.007.139.007l.488-.005a.562.562,0,0,0,.079-.006.442.442,0,0,1,.1.08A1.2,1.2,0,0,1,570.173,326.529Z" transform="translate(-554.529 -325.887)" fill="#1a1311"/>
              </g>
            </g>
          </g>
          <g id="グループ_1873" data-name="グループ 1873" transform="translate(11.924 136.103)">
            <g id="グループ_1872" data-name="グループ 1872">
              <g id="グループ_1871" data-name="グループ 1871">
                <path id="パス_63707" data-name="パス 63707" d="M506.712,608.809a2.442,2.442,0,0,0,1.2,2.008,13.744,13.744,0,0,0,4.437.4,16.288,16.288,0,0,1,3.7.521c.232-.033.47-.05.707-.063-.206-.013-.4-.049-.609-.051-.282-.349-1.028-1.075-3.568-1.075C511.091,610.553,507,609.5,506.712,608.809Z" transform="translate(-506.712 -608.809)" fill="#d9996b"/>
                <path id="パス_63708" data-name="パス 63708" d="M518.276,611.692a10.312,10.312,0,0,1,3.148-.506,9.846,9.846,0,0,1,1.725-.788,3.451,3.451,0,0,0-2.76.564c-.436-.639-1.737-.525-3.409.543C517.7,611.605,518.227,611.715,518.276,611.692Z" transform="translate(-504.482 -608.49)" fill="#d9996b"/>
                <path id="パス_63709" data-name="パス 63709" d="M529.584,611.068c0-.036.015-.074,0-.111-.257-.637-1.128-.806-2.338-.464a1,1,0,0,1,.172.275.468.468,0,0,1,0,.213,5.03,5.03,0,0,0-1.621.835.735.735,0,0,0-.22.794c-.382.206-.706.363-.8.43a11.733,11.733,0,0,1-4.571,1.647c-.512.069-4.514.452-5.224.62-.487.12-1.024.82-1.562,1.015a24.87,24.87,0,0,0-3.262,1.144c-.057.022-.122.043-.183.063a20.593,20.593,0,0,0,2.075-.589,10.009,10.009,0,0,0,2.182-.522c.711-.321.775-.711,1.82-.945.63-.139,5.717-.471,6.29-.544a11.565,11.565,0,0,0,4.636-1.652c.085-.064.365-.212.7-.4-.175-.214-.047-.684.22-.912A6.117,6.117,0,0,1,529.584,611.068Z" transform="translate(-506.003 -608.481)" fill="#d9996b"/>
              </g>
              <path id="パス_63710" data-name="パス 63710" d="M526.518,610.954c-.094-.174-1.495.65-1.758.881s-.4.713-.219.921C524.615,612.841,526.8,611.465,526.518,610.954Z" transform="translate(-502.858 -608.348)" fill="#fccea5"/>
            </g>
          </g>
          <g id="グループ_1874" data-name="グループ 1874" transform="translate(5.5 126.575)">
            <path id="パス_63711" data-name="パス 63711" d="M527.652,613.826a5.028,5.028,0,0,1,1.621-.835.469.469,0,0,0,0-.213c-.358-.972-2.164-.913-4.473.408a10.316,10.316,0,0,0-3.148.506,17.425,17.425,0,0,0-4.463-.269,16.285,16.285,0,0,0-3.7-.521,13.741,13.741,0,0,1-4.437-.4c-1.194-.534-1.321-2.32-1.261-3.058a10.506,10.506,0,0,1,.346-2.567c.135-.207,1.434-5.678-1.614-5.8l-.015,0a2.668,2.668,0,0,0,.1,1.369,4.092,4.092,0,0,1-.4,2.131c-.263.256-.908-.361-.778-1.269.022-.164.06-.295.086-.447-.05.152-.107.3-.156.413a7.236,7.236,0,0,0-.37,1.413,13.358,13.358,0,0,0-.736,2.3c-.52,2.28-2.387,3.215-2.776,7.509a5.746,5.746,0,0,0,1.167,4.6c2.23,2.328,6.664,1.492,9.372.385a24.869,24.869,0,0,1,3.262-1.144c.538-.195,1.075-.895,1.562-1.015.71-.168,4.712-.55,5.224-.62a11.731,11.731,0,0,0,4.57-1.647c.091-.067.415-.224.8-.43A.734.734,0,0,1,527.652,613.826Z" transform="translate(-501.434 -600.962)" fill="#ffcd8e"/>
            <path id="パス_63712" data-name="パス 63712" d="M505.807,601.047a2.737,2.737,0,0,0,.091,1.414,4.092,4.092,0,0,1-.4,2.131c-.263.256-.908-.361-.778-1.269.19-1.4.655-2.323,1.014-2.342C505.761,600.981,505.817,601.013,505.807,601.047Z" transform="translate(-500.724 -600.981)" fill="#ffe7c7"/>
            <path id="パス_63713" data-name="パス 63713" d="M524.717,610.86c-.089-.168-1.435.623-1.692.845s-.386.677-.206.879C522.883,612.668,524.989,611.349,524.717,610.86Z" transform="translate(-496.808 -598.84)" fill="#ffe7c7"/>
          </g>
          <g id="グループ_1877" data-name="グループ 1877" transform="translate(73.575 136.103)">
            <g id="グループ_1876" data-name="グループ 1876">
              <g id="グループ_1875" data-name="グループ 1875" transform="translate(0.097)">
                <path id="パス_63714" data-name="パス 63714" d="M578.611,608.809a2.447,2.447,0,0,1-1.2,2.008,13.746,13.746,0,0,1-4.437.4,16.248,16.248,0,0,0-3.7.521c-.233-.033-.47-.05-.707-.063.2-.013.4-.049.607-.051.285-.349,1.026-1.075,3.569-1.075C574.23,610.553,578.32,609.5,578.611,608.809Z" transform="translate(-555.024 -608.809)" fill="#d9996b"/>
                <path id="パス_63715" data-name="パス 63715" d="M566.354,611.692a10.3,10.3,0,0,0-3.148-.506,9.742,9.742,0,0,0-1.721-.788,3.446,3.446,0,0,1,2.758.564c.436-.639,1.739-.525,3.412.543C566.926,611.605,566.4,611.715,566.354,611.692Z" transform="translate(-556.563 -608.49)" fill="#d9996b"/>
                <path id="パス_63716" data-name="パス 63716" d="M557.444,611.068c.007-.036-.011-.074,0-.111.258-.637,1.128-.806,2.341-.464a.893.893,0,0,0-.172.275.435.435,0,0,0,0,.213,5.067,5.067,0,0,1,1.621.835.741.741,0,0,1,.22.794c.38.206.7.363.8.43a11.716,11.716,0,0,0,4.567,1.647c.515.069,4.516.452,5.228.62.484.12,1.022.82,1.562,1.015a25.01,25.01,0,0,1,3.261,1.144c.056.022.123.043.183.063a20.428,20.428,0,0,1-2.076-.589,10,10,0,0,1-2.181-.522c-.712-.321-.774-.711-1.818-.945-.63-.139-5.72-.471-6.292-.544a11.546,11.546,0,0,1-4.636-1.652c-.085-.064-.365-.212-.7-.4.178-.214.05-.684-.217-.912A6.139,6.139,0,0,0,557.444,611.068Z" transform="translate(-557.441 -608.481)" fill="#d9996b"/>
              </g>
              <path id="パス_63717" data-name="パス 63717" d="M557.386,610.954c.091-.174,1.5.65,1.759.881s.4.713.215.921C559.289,612.841,557.109,611.465,557.386,610.954Z" transform="translate(-557.362 -608.348)" fill="#fccea5"/>
            </g>
          </g>
          <g id="グループ_1878" data-name="グループ 1878" transform="translate(75.747 126.575)">
            <path id="パス_63718" data-name="パス 63718" d="M560.851,613.826a5.066,5.066,0,0,0-1.621-.835.436.436,0,0,1,0-.213c.357-.972,2.159-.913,4.47.408a10.3,10.3,0,0,1,3.148.506,17.463,17.463,0,0,1,4.466-.269,16.246,16.246,0,0,1,3.7-.521,13.742,13.742,0,0,0,4.437-.4c1.193-.534,1.321-2.32,1.263-3.058a10.8,10.8,0,0,0-.348-2.567c-.136-.207-1.434-5.678,1.615-5.8l.011,0a2.656,2.656,0,0,1-.092,1.369,4.059,4.059,0,0,0,.4,2.131c.264.256.909-.361.778-1.269-.022-.164-.056-.295-.084-.447.051.152.1.3.155.413a7.044,7.044,0,0,1,.372,1.413,13.789,13.789,0,0,1,.734,2.3c.518,2.28,2.387,3.215,2.776,7.509a5.751,5.751,0,0,1-1.166,4.6c-2.231,2.328-6.665,1.492-9.372.385a25.013,25.013,0,0,0-3.261-1.144c-.539-.195-1.077-.895-1.562-1.015-.712-.168-4.713-.55-5.228-.62a11.715,11.715,0,0,1-4.567-1.647c-.094-.067-.417-.224-.8-.43A.741.741,0,0,0,560.851,613.826Z" transform="translate(-559.132 -600.962)" fill="#ffcd8e"/>
            <path id="パス_63719" data-name="パス 63719" d="M577.941,601.047a2.763,2.763,0,0,1-.089,1.414,4.061,4.061,0,0,0,.4,2.131c.264.256.909-.361.778-1.269-.19-1.4-.655-2.323-1.01-2.342C577.986,600.981,577.933,601.013,577.941,601.047Z" transform="translate(-555.089 -600.981)" fill="#ffe7c7"/>
            <path id="パス_63720" data-name="パス 63720" d="M559.17,610.86c.091-.168,1.435.623,1.7.845s.383.677.206.879C561,612.668,558.9,611.349,559.17,610.86Z" transform="translate(-559.146 -598.84)" fill="#ffe7c7"/>
          </g>
          <path id="パス_63722" data-name="パス 63722" d="M542.24,567.584l-3.222,2.855,2.778,16.407,10.3,1.259s14.893-.18,15.276-.618,9.468-12.186,9.468-12.186l-2.316-6.1-2.71-1.215-4.88-4.119v7.4l-10.719,12.491-9.1-18.056v-2.07Z" transform="translate(-502.328 -505.558)" fill="#02254d"/>
        </g>
        <path id="パス_63725" data-name="パス 63725" d="M207.365,2547.787c.269-2.99,17.764-2.247,17.764-2.247s-1.271,32.732.6,35.289c-10.741-2.444-11.635-3.2-11.635-3.2V2556.61l-7.463.909S207.1,2550.778,207.365,2547.787Z" transform="translate(65.333 1345.204)" fill="#fff" stroke="#02254d" stroke-width="1"/>
        <path id="パス_63724" data-name="パス 63724" d="M225,2547.787c-.269-2.99-17.764-2.247-17.764-2.247s1.271,32.732-.6,35.289c10.741-2.444,11.635-3.2,11.635-3.2V2556.61l7.463.909S225.272,2550.778,225,2547.787Z" transform="translate(106.29 1345.204)" fill="#fff" stroke="#02254d" stroke-width="1"/>
        <g id="パス_63726" data-name="パス 63726" transform="translate(-17183.771 9620.386)" fill="#fff">
          <path d="M 17439.9921875 -5709.8076171875 L 17436.68359375 -5712.99072265625 C 17437.3828125 -5715.232421875 17441.87109375 -5729.5517578125 17443.46875 -5732.9638671875 C 17444.693359375 -5735.57861328125 17445.9296875 -5736.69140625 17446.482421875 -5737.08935546875 C 17447.205078125 -5736.265625 17448.46875 -5734.64306640625 17448.615234375 -5733.5859375 C 17448.671875 -5733.16162109375 17448.365234375 -5731.0341796875 17444.30078125 -5720.5478515625 C 17442.51171875 -5715.93359375 17440.677734375 -5711.4658203125 17439.9921875 -5709.8076171875 Z" stroke="none"/>
          <path d="M 17446.41796875 -5736.39599609375 C 17445.83203125 -5735.87353515625 17444.880859375 -5734.79736328125 17443.921875 -5732.751953125 C 17442.396484375 -5729.4931640625 17438.185546875 -5716.11572265625 17437.25390625 -5713.13671875 L 17439.810546875 -5710.67724609375 C 17440.62890625 -5712.66650390625 17442.224609375 -5716.58349609375 17443.794921875 -5720.62841796875 C 17445.103515625 -5724.0009765625 17446.13671875 -5726.79833984375 17446.865234375 -5728.94287109375 C 17448.103515625 -5732.59375 17448.12890625 -5733.39599609375 17448.119140625 -5733.5263671875 C 17448.0078125 -5734.27880859375 17447.166015625 -5735.4951171875 17446.41796875 -5736.39599609375 M 17446.572265625 -5737.7333984375 C 17446.572265625 -5737.7333984375 17448.8828125 -5735.2890625 17449.111328125 -5733.6552734375 C 17449.44140625 -5731.1748046875 17440.173828125 -5708.939453125 17440.173828125 -5708.939453125 L 17436.115234375 -5712.8447265625 C 17436.115234375 -5712.8447265625 17441.255859375 -5729.416015625 17443.015625 -5733.17578125 C 17444.77734375 -5736.9345703125 17446.572265625 -5737.7333984375 17446.572265625 -5737.7333984375 Z" stroke="none" fill="#02254d"/>
        </g>
        <g id="パス_63727" data-name="パス 63727" transform="translate(-17097.313 9620.419)" fill="#fff">
          <path d="M 17445.119140625 -5709.859375 C 17444.427734375 -5711.53125 17442.6015625 -5715.98486328125 17440.818359375 -5720.5830078125 C 17436.75390625 -5731.0673828125 17436.447265625 -5733.19482421875 17436.50390625 -5733.62255859375 C 17436.65234375 -5734.68701171875 17437.60546875 -5736.40087890625 17438.177734375 -5737.32275390625 C 17438.869140625 -5736.87451171875 17440.408203125 -5735.646484375 17441.650390625 -5732.99658203125 C 17443.25 -5729.58251953125 17447.71484375 -5715.3798828125 17448.404296875 -5713.17578125 L 17445.119140625 -5709.859375 Z" stroke="none"/>
          <path d="M 17438.326171875 -5736.6005859375 C 17437.796875 -5735.69091796875 17437.119140625 -5734.38525390625 17437 -5733.5595703125 C 17436.990234375 -5733.43017578125 17437.013671875 -5732.62890625 17438.25390625 -5728.9775390625 C 17438.982421875 -5726.83349609375 17440.013671875 -5724.037109375 17441.322265625 -5720.6650390625 C 17442.8828125 -5716.64404296875 17444.470703125 -5712.74755859375 17445.294921875 -5710.74658203125 L 17447.8359375 -5713.3134765625 C 17446.91796875 -5716.24462890625 17442.7265625 -5729.5224609375 17441.197265625 -5732.78466796875 C 17440.220703125 -5734.86865234375 17439.060546875 -5736.02587890625 17438.326171875 -5736.6005859375 M 17438.01171875 -5737.9921875 C 17438.01171875 -5737.9921875 17440.341796875 -5736.9677734375 17442.103515625 -5733.208984375 C 17443.865234375 -5729.44970703125 17448.970703125 -5713.03759765625 17448.970703125 -5713.03759765625 L 17444.9453125 -5708.97314453125 C 17444.9453125 -5708.97314453125 17435.677734375 -5731.2080078125 17436.0078125 -5733.6884765625 C 17436.236328125 -5735.322265625 17438.01171875 -5737.9921875 17438.01171875 -5737.9921875 Z" stroke="none" fill="#02254d"/>
        </g>
      </g>
    </g>
  </g>
</svg>
