<svg xmlns="http://www.w3.org/2000/svg" xmlns:xlink="http://www.w3.org/1999/xlink" width="140" height="140" viewBox="0 0 140 140">
  <defs>
    <clipPath id="clip-path">
      <circle id="楕円形_25" data-name="楕円形 25" cx="70" cy="70" r="70" transform="translate(0 0.477)" fill="#f7f3e5"/>
    </clipPath>
  </defs>
  <g id="trouble_01" transform="translate(0 -0.477)">
    <circle id="楕円形_23" data-name="楕円形 23" cx="70" cy="70" r="70" transform="translate(0 0.477)" fill="#fff"/>
    <g id="マスクグループ_4" data-name="マスクグループ 4" clip-path="url(#clip-path)">
      <g id="グループ_3903" data-name="グループ 3903" transform="translate(39.201 34.347)">
        <g id="グループ_717" data-name="グループ 717" transform="translate(-32.982 -12.782)">
          <path id="パス_61156" data-name="パス 61156" d="M898.2,1682.173a7.481,7.481,0,0,0-3.925,3.019c-1.681,2.457-16.61,41.875-16.61,41.875l4.655-.129,13.162-5.512Z" transform="translate(-815.137 -1638.145)" fill="#4a98d4"/>
          <path id="パス_61157" data-name="パス 61157" d="M995.561,1628.836c4.174,2.627,9.65,6.988,13.825,9.613,6.5,4.085,7.82,8.829,9.172,16.05,2.375,12.3-1.828,23.541-5.123,35.266q-2.662,9.475-5.325,18.95l-44.1-.058,6.395-71.4,9.611-6.347Z" transform="translate(-888.473 -1592.845)" fill="#4a98d4"/>
          <path id="パス_61158" data-name="パス 61158" d="M1073.686,1581.831l.555,4.735,4.658,1.083,8.3-4.434-1.24-5.2Z" transform="translate(-981.62 -1549.678)" fill="#e2a775"/>
          <g id="グループ_705" data-name="グループ 705" transform="translate(91.038 32.703)">
            <path id="パス_61159" data-name="パス 61159" d="M1070.244,1611.342l5.467,1.419,7.68-3.71,1.562,2.876s-3.03,6.485-8.886,5.552-7.127-2.745-7.127-2.745Z" transform="translate(-1068.627 -1608.744)" fill="#fff"/>
            <path id="パス_61160" data-name="パス 61160" d="M1074.252,1616.052c-5.917-.945-7.278-2.794-7.332-2.873a.3.3,0,0,1-.036-.283l1.305-3.392a.314.314,0,0,1,.373-.19l5.354,1.39,7.576-3.66a.314.314,0,0,1,.412.13l1.561,2.876a.3.3,0,0,1,.008.273c-.031.064-3.063,6.4-8.831,5.779h0C1074.514,1616.09,1074.383,1616.073,1074.252,1616.052Zm7.242-8.325-7.411,3.579a.318.318,0,0,1-.218.021l-5.193-1.348-1.138,2.96c.4.4,2.061,1.746,6.82,2.506.121.02.241.036.359.048h0c4.867.527,7.666-4.405,8.126-5.289Z" transform="translate(-1066.864 -1607.014)" fill="#50bef1"/>
          </g>
          <g id="グループ_706" data-name="グループ 706" transform="translate(97.931 36.64)">
            <path id="パス_61161" data-name="パス 61161" d="M1115.088,1638.118a.311.311,0,0,0,.315-.442l-2.2-4.361a.314.314,0,0,0-.419-.137.306.306,0,0,0-.14.412l2.2,4.36A.309.309,0,0,0,1115.088,1638.118Z" transform="translate(-1112.609 -1633.145)" fill="#50bef1"/>
          </g>
          <g id="グループ_707" data-name="グループ 707" transform="translate(96.335 36.372)">
            <path id="パス_61162" data-name="パス 61162" d="M1102.294,1636.435a.313.313,0,0,0,.337-.229,38.667,38.667,0,0,1,1.324-4.344.3.3,0,0,0-.041-.429.321.321,0,0,0-.443.043,31.665,31.665,0,0,0-1.443,4.578.309.309,0,0,0,.267.381Z" transform="translate(-1102.017 -1631.363)" fill="#50bef1"/>
          </g>
          <path id="パス_61163" data-name="パス 61163" d="M1185.167,1769.232a.345.345,0,0,0,.1.025.337.337,0,0,0,.377-.283c.007-.051,2.145-12.072,5.432-20.837,3.228-8.606,6.209-10.024,6.239-10.037a.316.316,0,0,0,.164-.427.347.347,0,0,0-.448-.159c-.13.055-3.244,1.468-6.6,10.407-3.315,8.843-5.462,20.927-5.468,20.979A.321.321,0,0,0,1185.167,1769.232Z" transform="translate(-1076.128 -1685.124)" fill="#3874aa"/>
          <path id="パス_61164" data-name="パス 61164" d="M1104.915,1664.393a9.75,9.75,0,0,0,2.1-.07,16.149,16.149,0,0,0,9.96-4.821.3.3,0,0,0-.037-.433.316.316,0,0,0-.439.038,15.816,15.816,0,0,1-9.557,4.606c-2.033.241-2.487-.037-2.557-.093a.313.313,0,0,0-.612.086.5.5,0,0,0,.194.371A1.744,1.744,0,0,0,1104.915,1664.393Z" transform="translate(-1007.176 -1618.462)" fill="#339458"/>
          <path id="パス_61165" data-name="パス 61165" d="M1019.777,1449.432s2.748,17.664,3.391,20.839,6.77,5.594,10.937,3.07,7.46-5.168,6.735-12.55a70.055,70.055,0,0,0-2.33-12.6Z" transform="translate(-935.834 -1439.42)" fill="#e2a775"/>
          <path id="パス_61166" data-name="パス 61166" d="M1130.977,1475.541c.494,1.849-1.02,3.863-3.379,4.5s-4.668-.349-5.159-2.2,1.025-3.865,3.378-4.5S1130.486,1473.69,1130.977,1475.541Z" transform="translate(-1022.948 -1460.617)" fill="#e2a775"/>
          <path id="パス_61167" data-name="パス 61167" d="M1029.529,1395.323c-1.236-1.71-7.646-6.062-12.916-5.243a8.256,8.256,0,0,0-4.056,1.425,8.717,8.717,0,0,0-2.109,2.386s-.3-2.7.263-3.117a6.263,6.263,0,0,0-2.2,2.57,3.79,3.79,0,0,0-.031,2.494,3.41,3.41,0,0,1-1.4-1.415,4.861,4.861,0,0,0-.542,3.073,5,5,0,0,0,6.38,4.769c.959-.172,1.854-.49,2.8-.7a9.529,9.529,0,0,1,4.826.092c2.423.735,3.92,2.82,4.965,5.059.276.594,1.532,3.507,1.532,3.507l1.707-.428s-1.307-5.142-1.171-6.012a1.386,1.386,0,0,1,.525-.9,2.691,2.691,0,0,1,1.092-.14S1031.5,1398.041,1029.529,1395.323Z" transform="translate(-924.547 -1389.978)" fill="#69452e"/>
          <path id="パス_61168" data-name="パス 61168" d="M1062.066,1502.031a.279.279,0,0,0,.216-.3.272.272,0,0,0-.305-.238l-5.266.648c.463-3.328,1.206-8.371,1.391-8.843a.27.27,0,0,0-.042-.347.278.278,0,0,0-.39.016c-.073.076-.293.311-1.555,9.455a.27.27,0,0,0,.076.227.275.275,0,0,0,.228.079l5.617-.692Z" transform="translate(-966.695 -1477.373)" fill="#0d0002"/>
          <path id="パス_61169" data-name="パス 61169" d="M1084.725,1494.049a1.151,1.151,0,0,0,.89,1.31,1.049,1.049,0,0,0,1.219-.915,1.15,1.15,0,0,0-.9-1.306A1.05,1.05,0,0,0,1084.725,1494.049Z" transform="translate(-990.985 -1477.58)" fill="#0d0002"/>
          <path id="パス_61170" data-name="パス 61170" d="M1044.472,1503.778a1.152,1.152,0,0,0,.889,1.31,1.049,1.049,0,0,0,1.219-.915,1.151,1.151,0,0,0-.894-1.308A1.05,1.05,0,0,0,1044.472,1503.778Z" transform="translate(-956.797 -1485.842)" fill="#0d0002"/>
          <path id="パス_61171" data-name="パス 61171" d="M1111.93,1507.6a1.325,1.325,0,0,0,1.614.98,1.358,1.358,0,0,0,1.013-1.615,1.331,1.331,0,0,0-1.616-.982A1.356,1.356,0,0,0,1111.93,1507.6Z" transform="translate(-1014.071 -1488.469)" fill="#e9706e"/>
          <path id="パス_61172" data-name="パス 61172" d="M1114.2,1508.554a.258.258,0,0,0,.158-.108c.167-.241.69-1.053.465-1.356a.426.426,0,0,0-.294-.165c-.319-.038-.729.223-1.248.628-.033.027-.061.049-.081.063s-.036.028-.055.04c.008-.017.016-.034.023-.053.018-.04.038-.085.059-.135.109-.251.327-.78.558-.823a.265.265,0,0,0,.206-.3.256.256,0,0,0-.3-.2c-.49.106-.76.72-.935,1.13l-.054.126c-.145.321-.278.681-.042.866s.564-.027.85-.242c.021-.015.052-.041.092-.071a3.984,3.984,0,0,1,.713-.477,5.553,5.553,0,0,1-.377.686.254.254,0,0,0,.266.392Z" transform="translate(-1014.604 -1488.635)" fill="#e55a65"/>
          <path id="パス_61173" data-name="パス 61173" d="M1049.815,1414.4c-.148-.095-.3-.188-.442-.279l-.023-.015a.3.3,0,0,1-.089-.411.305.305,0,0,1,.416-.095l.022.014c.147.093.3.187.446.283a.3.3,0,0,1,.087.412.306.306,0,0,1-.189.129A.294.294,0,0,1,1049.815,1414.4Zm-1.92-1.279c-.2-.158-.379-.311-.545-.47a.3.3,0,0,1,0-.422.3.3,0,0,1,.426-.01,6.367,6.367,0,0,0,.5.431.3.3,0,0,1,.046.419.3.3,0,0,1-.423.052Zm-1.627-1.925c-.037-.073-.072-.148-.107-.225-.066-.146-.125-.3-.178-.442a.3.3,0,0,1,.568-.206c.047.133.1.268.159.4.031.069.063.136.095.2a.3.3,0,0,1-.206.427A.3.3,0,0,1,1046.269,1411.2Zm-.257-2.174a.3.3,0,0,1-.221-.358,1.68,1.68,0,0,1,.392-.743.3.3,0,0,1,.425-.021.3.3,0,0,1,.017.421,1.059,1.059,0,0,0-.25.478.3.3,0,0,1-.363.223Z" transform="translate(-957.92 -1405.134)" fill="#ab6d39"/>
          <path id="パス_61174" data-name="パス 61174" d="M1096.172,1431.484c-.124-.2-.251-.382-.377-.552a.3.3,0,0,1,.488-.355c.134.181.267.378.4.586a.3.3,0,0,1-.1.412.349.349,0,0,1-.1.041A.3.3,0,0,1,1096.172,1431.484Zm-1.494-1.764a5.887,5.887,0,0,0-.526-.394.294.294,0,0,1-.079-.413.3.3,0,0,1,.418-.084,6.566,6.566,0,0,1,.579.433.3.3,0,0,1-.391.458Zm-2.01-1.123c-.2-.072-.42-.139-.641-.2a.294.294,0,0,1-.206-.366.3.3,0,0,1,.372-.209c.235.064.466.136.684.212a.3.3,0,0,1,.178.381.307.307,0,0,1-.22.191A.3.3,0,0,1,1092.668,1428.6Z" transform="translate(-997.012 -1422.112)" fill="#ab6d39"/>
          <path id="パス_61175" data-name="パス 61175" d="M1125.253,1421.032a.3.3,0,0,1-.342-.246c-.013-.09-.029-.179-.048-.268-.026-.12-.058-.242-.095-.364a.3.3,0,0,1,.577-.178c.041.136.077.274.106.409q.032.151.055.3a.3.3,0,0,1-.234.338Zm-1.177-2.368c-.113-.182-.238-.368-.373-.553a.3.3,0,0,1,.489-.353c.143.2.277.4.4.59a.3.3,0,0,1-.1.411.311.311,0,0,1-.092.037A.3.3,0,0,1,1124.076,1418.664Zm-1.463-1.833c-.155-.159-.319-.318-.483-.472a.3.3,0,0,1-.011-.421.3.3,0,0,1,.426-.017c.172.16.341.325.5.492a.3.3,0,0,1-.009.422.3.3,0,0,1-.425,0Z" transform="translate(-1022.685 -1411.945)" fill="#ab6d39"/>
          <path id="パス_61176" data-name="パス 61176" d="M1106.119,1582.232l.016,0a20.5,20.5,0,0,0,3.487-1.574c2.325-1.246,3.545-5.052,3.6-5.214a.27.27,0,0,0-.181-.34.281.281,0,0,0-.346.184c-.011.037-1.2,3.751-3.326,4.889a20.5,20.5,0,0,1-3.379,1.529.278.278,0,0,0-.191.341A.273.273,0,0,0,1106.119,1582.232Z" transform="translate(-1008.883 -1547.195)" fill="#cb6362"/>
          <path id="パス_61177" data-name="パス 61177" d="M1039.619,1735.228a5.517,5.517,0,0,0-.834-1.434,11.916,11.916,0,0,0-3.691-2.694,42.95,42.95,0,0,0-6.573-3c-.525-.167-1.24-.548-1.675-.114-.279.279-.45.821-.719,1.147a7.878,7.878,0,0,0-1.17,1.519c-.363.761-.055,1.2.323,1.892,1.305,2.375,3.591,4.35,5.624,6.086a21.171,21.171,0,0,0,3.047,2.213c2.414,1.4,4.987-.142,5.932-2.592A4.373,4.373,0,0,0,1039.619,1735.228Z" transform="translate(-940.095 -1676.883)" fill="#efe1de"/>
          <path id="パス_61178" data-name="パス 61178" d="M987.7,1701.747c-.093-.126-.18-.255-.266-.383-.242-.363-.4-.8-.652-1.153-.318-.446-.853-.747-1.049-1.3.408-.169.841.127,1.215.278-.075-.473-.818-1.213-.331-1.656a7.744,7.744,0,0,0,1.337,1.054c.04-.473-.313-1.328.111-1.67.5.428.771,1.1,1.277,1.512.259-.31.539-1.639,1.117-1.029.452.477.125,1.555.481,2.115.247.387.882.548,1.276.765.829.457,2,.994,2.413,1.909.524,1.155-1.571,3.751-2.834,3.081a8.45,8.45,0,0,1-1.529-1.194c-.337-.295-.513-.732-.861-1-.23-.18-.548-.248-.791-.407A3.625,3.625,0,0,1,987.7,1701.747Z" transform="translate(-906.918 -1650.672)" fill="#f0c0ae"/>
          <g id="グループ_708" data-name="グループ 708" transform="translate(83.334 51.903)">
            <path id="パス_61179" data-name="パス 61179" d="M1043.3,1773.367a28.7,28.7,0,0,0,.438-7.48c-.134-3.647-.265-7.51-2.005-10.794-1.333-2.517-3.315-4.642-6.328-4.5l-5.67.262q-1.088.55-2.179,1.1c-.8.405-1.261,2.255-1.548,3.006a32.17,32.17,0,0,0-1.46,4.681c-.4,1.857.661,4.139-.885,5.665-1.031,1.018-2.9.906-4.168,1.577a7.325,7.325,0,0,0-3.76,6.024c.143,4.527,6.187,4.287,9.207,5.383,1.533.557,3.017,1.2,4.547,1.77,1.4.521,2.7,1.384,4.254,1.085a18.575,18.575,0,0,0,5.611-2.042A8.457,8.457,0,0,0,1043.3,1773.367Z" transform="translate(-1015.733 -1748.151)" fill="#efe1de"/>
            <path id="パス_61180" data-name="パス 61180" d="M1083.2,1736.457a4.749,4.749,0,0,1,.688-1.174c.826-1,1.714-.9,2.889-.743a43.122,43.122,0,0,1,5.712,1.046c1.325.368,2.605.323,2.876,1.829a13.638,13.638,0,0,1-.137,3.633,4.47,4.47,0,0,1-1.567,3.317,6.63,6.63,0,0,1-3.842,1.542c-2.8.393-5.982.267-7.454-2.516C1081.275,1741.334,1082.371,1738.4,1083.2,1736.457Z" transform="translate(-1071.935 -1734.439)" fill="#9381ba"/>
          </g>
          <path id="パス_61181" data-name="パス 61181" d="M1105.407,1647.458s7.684-9.268,16.642-.706c7.591,7.26-2.108,15.941-1.692,15.386Z" transform="translate(-1008.561 -1604.978)" fill="#aa593b"/>
          <path id="パス_61182" data-name="パス 61182" d="M1098.418,1672.694a9.914,9.914,0,0,1-13.8,2.23,9.732,9.732,0,1,1,13.8-2.23Z" transform="translate(-987.244 -1616.917)" fill="#f0c0ae"/>
          <path id="パス_61183" data-name="パス 61183" d="M1187.016,1745.513a3.162,3.162,0,1,1-.769-4.4A3.145,3.145,0,0,1,1187.016,1745.513Z" transform="translate(-1072.98 -1687.719)" fill="#f0c0ae"/>
          <path id="パス_61184" data-name="パス 61184" d="M1146.048,1728.322a1.3,1.3,0,0,1-1.486.953,1.135,1.135,0,0,1-.834-1.442,1.3,1.3,0,0,1,1.487-.951A1.139,1.139,0,0,1,1146.048,1728.322Z" transform="translate(-1041.071 -1676.095)" fill="#0d0002"/>
          <path id="パス_61185" data-name="パス 61185" d="M1158.388,1646.687a5.475,5.475,0,0,0-.471-.348c-.888-.582-2.718-1.37-3.721-.706-.817.542-.648,1.65-.6,2.5.131,2.163.7,5.175,2.684,6.446a15.085,15.085,0,0,1,0-2.252c.863,1.3,1.629,2.771,2.594,4.024.565.734,3.174,3.512,4.319,2.453.311-.289-.5-1.486-.444-1.889C1163.2,1653.428,1161.063,1648.893,1158.388,1646.687Z" transform="translate(-1049.449 -1606.895)" fill="#aa593b"/>
          <path id="パス_61186" data-name="パス 61186" d="M1105.778,1701.807a1.3,1.3,0,0,1-1.485.953,1.137,1.137,0,0,1-.835-1.443,1.3,1.3,0,0,1,1.488-.95A1.137,1.137,0,0,1,1105.778,1701.807Z" transform="translate(-1006.868 -1653.576)" fill="#0d0002"/>
          <path id="パス_61187" data-name="パス 61187" d="M1155.234,1744.152a1.768,1.768,0,1,0,2.245-1.11A1.759,1.759,0,0,0,1155.234,1744.152Z" transform="translate(-1050.8 -1689.764)" fill="#ec8d9a"/>
          <path id="パス_61188" data-name="パス 61188" d="M1104.287,1734.882l5.315,3.037s-2.492,2.888-4.744,1.125C1103.328,1737.846,1104.287,1734.882,1104.287,1734.882Z" transform="translate(-1007.358 -1682.912)" fill="#c1143a"/>
          <path id="パス_61189" data-name="パス 61189" d="M1116.928,1727.751a.391.391,0,0,0,.314-.33c.018-.127.058-.193.081-.2s.085-.013.219.056a.391.391,0,0,0,.361-.694.981.981,0,0,0-.939-.057,1,1,0,0,0-.5.79.391.391,0,0,0,.461.438Z" transform="translate(-1017.951 -1675.734)" fill="#0d0002"/>
          <path id="パス_61190" data-name="パス 61190" d="M1183.3,1665.69c-.186-.25-.363-.5-.527-.755a.227.227,0,0,1,.38-.248c.16.243.331.489.512.732a.227.227,0,0,1-.047.317.225.225,0,0,1-.317-.047Zm-1.227-1.944c-.049-.094-.1-.19-.145-.286-.088-.177-.175-.357-.259-.536a.226.226,0,1,1,.41-.193c.084.177.169.354.256.527.046.094.093.187.14.278a.226.226,0,1,1-.4.21Zm-.952-2.082c-.116-.291-.223-.58-.318-.861a.227.227,0,0,1,.142-.287.225.225,0,0,1,.287.142c.093.273.2.556.31.839a.227.227,0,0,1-.127.294.261.261,0,0,1-.041.013A.227.227,0,0,1,1181.123,1661.664Zm-.379-2.031a.225.225,0,0,1-.242-.209c-.018-.26-.021-.519-.024-.794v-.126a.227.227,0,1,1,.453-.005l0,.128c0,.267.005.519.022.765a.228.228,0,0,1-.184.239A.119.119,0,0,1,1180.744,1659.633Z" transform="translate(-1072.32 -1617.847)" fill="#b66f50"/>
          <path id="パス_61191" data-name="パス 61191" d="M1205.453,1681.246a.227.227,0,0,1-.231-.223c0-.291-.022-.588-.055-.884a.226.226,0,1,1,.45-.05c.034.31.054.621.059.926a.226.226,0,0,1-.183.226A.187.187,0,0,1,1205.453,1681.246Zm-.518-2.416c-.069-.283-.151-.571-.244-.854a.227.227,0,1,1,.431-.142c.1.295.182.594.254.889a.227.227,0,0,1-.167.274l-.012,0A.226.226,0,0,1,1204.936,1678.83Zm-.73-2.1c-.122-.268-.256-.536-.4-.8a.227.227,0,1,1,.4-.217c.147.27.285.548.411.826a.225.225,0,0,1-.112.3.29.29,0,0,1-.051.017A.227.227,0,0,1,1204.206,1676.733Zm-1.092-1.937c-.168-.246-.345-.488-.527-.718a.227.227,0,1,1,.357-.281c.188.24.371.49.545.743a.228.228,0,0,1-.06.316.214.214,0,0,1-.085.035A.226.226,0,0,1,1203.113,1674.8Z" transform="translate(-1091.056 -1630.958)" fill="#b66f50"/>
          <path id="パス_61192" data-name="パス 61192" d="M1012.585,1871.384c-.415-2.134-1.946-3.245-3.91-3.9a7.994,7.994,0,0,0-5.335-.108c-1.2.454-2.157,1.073-2.358,2.407a5.513,5.513,0,0,0,1.031,4.184c1.06,1.242,2.606,1.75,4.026,2.412a16.284,16.284,0,0,0,2.386,1.042,14.746,14.746,0,0,1,2.282.818c.8.388,1.462.87,2.366.455a3.225,3.225,0,0,0,1.715-3c.049-1.12-.627-1.521-1.376-2.294A3.2,3.2,0,0,1,1012.585,1871.384Z" transform="translate(-919.818 -1795.096)" fill="#f0c0ae"/>
          <path id="パス_61193" data-name="パス 61193" d="M1039.807,1885.851a.235.235,0,0,0,.207-.368c-.13-.187-3.2-4.578-5.548-4.719a.235.235,0,0,0-.028.469c2.127.127,5.16,4.473,5.19,4.517A.232.232,0,0,0,1039.807,1885.851Z" transform="translate(-948.098 -1806.813)" fill="#cb6362"/>
          <path id="パス_61194" data-name="パス 61194" d="M1040.123,1923.08a2.6,2.6,0,0,1,.181-1.276c.376-.972,1.539-1.913,1.153-3.052-.288-.851-1.632-1.153-1.625-2.158.008-1.1,2.063-1.6,2.737-2.124s1.434-2.551,2.459-2.236c.448.137.564.789.827,1.123a7.465,7.465,0,0,0,1.174,1.088c2.831,2.3,1.465,4.52-.67,6.739-1.059,1.1-2.557,3.16-4.177,3.28C1040.938,1924.556,1040.243,1923.95,1040.123,1923.08Z" transform="translate(-952.867 -1833.513)" fill="#7c72b1"/>
          <path id="パス_61195" data-name="パス 61195" d="M1135.807,1876.308a.173.173,0,0,0,.151-.271c-1.14-1.614-4.592-2.024-6.24-1.142a.172.172,0,1,0,.162.3c1.518-.812,4.772-.413,5.8,1.037A.172.172,0,0,0,1135.807,1876.308Z" transform="translate(-1029.132 -1801.442)" fill="#b3a8a4"/>
          <path id="パス_61196" data-name="パス 61196" d="M1066.021,1888.915c.89.351,1.944.624,2.473-.2a15.943,15.943,0,0,1,1.507-1.632c.135-.156,1.473-1.948,1.316-2.053a3.945,3.945,0,0,0,3.011.74c4.72-.722,2.147-6.761.087-8.86a4.222,4.222,0,0,0-3.936-1.565c-1.943.436-2.828,2.368-3.891,3.844a17.118,17.118,0,0,0-1.485,2.468c-.284.584-.375,1.247-.627,1.843a5.983,5.983,0,0,1-1.4,2.122c-1.156,1.151,1.261,2.589,2.131,2.947C1065.441,1888.67,1065.721,1888.8,1066.021,1888.915Z" transform="translate(-972.346 -1802.143)" fill="#f0c0ae"/>
          <path id="パス_61197" data-name="パス 61197" d="M1022.448,1909.277a.251.251,0,0,1-.243-.148l-.876-1.978a.25.25,0,0,1,.457-.2l.875,1.978a.25.25,0,0,1-.127.329A.241.241,0,0,1,1022.448,1909.277Z" transform="translate(-937.134 -1828.925)" fill="#cb6362"/>
          <path id="パス_61198" data-name="パス 61198" d="M1008.382,1718.277a.19.19,0,0,0,.087-.314,1.942,1.942,0,0,1-.378-1.06.254.254,0,0,1,.054-.171.116.116,0,0,1,.1-.03c.118.016.391.152.894.9a.19.19,0,1,0,.315-.212c-.46-.682-.828-1.019-1.16-1.062a.494.494,0,0,0-.4.121.6.6,0,0,0-.184.439,2.319,2.319,0,0,0,.482,1.339A.19.19,0,0,0,1008.382,1718.277Z" transform="translate(-925.585 -1667.148)" fill="#ec7a5f"/>
          <path id="パス_61199" data-name="パス 61199" d="M950.3,1945.844c2.7.717,5.312,1.971,8.072,1.942a9.417,9.417,0,0,0,3.051-.537,13.379,13.379,0,0,1,2.019-.806c1.42-.254,1.3,1.326.53,2.082a7.464,7.464,0,0,1-4,2.051c.984.458,6,2.091,4.931,3.728-1.009,1.545-3.341-.108-4.536.029-.023.6.256,1.3.01,1.875-.484,1.123-1.276.216-2.108.173-.157.576-.449,1.984-1.2,2.105-.535.087-1.352-.664-1.909-.848a3.191,3.191,0,0,1-1.254.859,2.577,2.577,0,0,1-1.436-.722c-1.044-.813-2.14-1.552-3.193-2.376-1.031-.808-2.118-1.555-3.085-2.424a5.537,5.537,0,0,0-2.6-1.314c-.56-.112-1.179-.039-1.747-.109-.591-.073-2.179-.039-2.674-.469-.4-.351-.218-1.146-.24-1.661-.035-.787-.453-2.4-.076-3.135.5-.971,3.738-.614,4.756-.71s2.022-.169,3.035-.21A12.214,12.214,0,0,1,950.3,1945.844Z" transform="translate(-866.979 -1861.676)" fill="#e2a775"/>
          <g id="グループ_710" data-name="グループ 710" transform="translate(66.462 77.001)">
            <g id="グループ_709" data-name="グループ 709" transform="translate(0 0)">
              <path id="パス_61200" data-name="パス 61200" d="M942.136,1916.834l3.608-6.606s-16.129-7.419-20.262-8.123c-4.49-.763-5.119-.517-9.572-.983a28.158,28.158,0,0,0-8.614.587c-.951.2-3.231.4-3.5,1.626-.287,1.288,1.434,1.369,1.521,2.506.045.6-1,1.052-.947,1.773.068.942,1.28.856,1.49,1.6s-1.146,1.36-.551,2.179c.236.325,1.547.439,1.949.528-.214,1.417-.139,2.191,1.168,2.648s2.8.4,4.076.911c.4-1.389-1.28-2.235-2.316-2.53-.023-.453-.048-.939-.069-1.354,1.625-.642,3.711-.007,5.453-.3a32.238,32.238,0,0,0,4.344-1.185c2.445-.774,4.156-1.628,6.775-.976,1.772.441,3.247,1.545,4.869,2.34C935.109,1913.22,938.686,1914.884,942.136,1916.834Z" transform="translate(-903.759 -1901.004)" fill="#edbf98"/>
            </g>
          </g>
          <path id="パス_61201" data-name="パス 61201" d="M890.052,1912.962l.027.008c.6.143,1.918-.621,2.22-.84.156-.112.255-.21.267-.35a.276.276,0,0,0-.52-.152,4.467,4.467,0,0,1-1.839.8.276.276,0,0,0-.156.529Z" transform="translate(-825.499 -1832.901)" fill="#cb6362"/>
          <path id="パス_61202" data-name="パス 61202" d="M896.645,1932.359a.277.277,0,0,0,.212-.012,7.308,7.308,0,0,0,2.174-1.79.276.276,0,1,0-.468-.292,7,7,0,0,1-1.947,1.585.276.276,0,0,0,.029.509Z" transform="translate(-831.098 -1848.744)" fill="#cb6362"/>
          <path id="パス_61203" data-name="パス 61203" d="M905.171,1951.463a.277.277,0,0,0,.332-.125,4.545,4.545,0,0,1,.708-.783c.419-.4.629-.6.571-.846a.33.33,0,0,0-.225-.236.277.277,0,0,0-.346.182.283.283,0,0,0-.008.127c-.084.1-.247.253-.373.375a4.713,4.713,0,0,0-.808.91.277.277,0,0,0,.106.377A.374.374,0,0,0,905.171,1951.463Z" transform="translate(-838.34 -1865.158)" fill="#cb6362"/>
          <path id="パス_61204" data-name="パス 61204" d="M1055.094,1922.747a4.4,4.4,0,0,1-1.954,2.1,8.461,8.461,0,0,1-2.442.643,5.508,5.508,0,0,1-4.088-.8c-1.016-.622-2.068-1.193-3.1-1.789-2.516-1.455-5.437-2.182-7.945-3.65-1.83-1.071-3.66-2.145-5.475-3.243-.415-.25-4.982-2.03-5.128-2.548-.109-.389,3.6-7.891,3.6-7.891.119.041,3.007,1.113,3.126,1.153l15.886,5.411a9.85,9.85,0,0,0,2.23.657,6.575,6.575,0,0,1,2.125.52,10.422,10.422,0,0,1,3.613,2.76C1056.9,1917.642,1055.913,1921.11,1055.094,1922.747Z" transform="translate(-940.236 -1827.876)" fill="#4a98d4"/>
          <g id="グループ_715" data-name="グループ 715" transform="translate(85.889 51.093)">
            <path id="パス_61205" data-name="パス 61205" d="M1067.923,1776.829a4.077,4.077,0,0,0-5.411,2.579,4.675,4.675,0,0,0,3.026,5.572,4.078,4.078,0,0,0,5.408-2.578A4.673,4.673,0,0,0,1067.923,1776.829Zm-1.782,6.089a2.31,2.31,0,0,1-1.5-2.754,2.015,2.015,0,0,1,2.674-1.274,2.308,2.308,0,0,1,1.492,2.753A2.014,2.014,0,0,1,1066.142,1782.918Z" transform="translate(-1057.877 -1769.404)" fill="#38b1bf"/>
            <g id="グループ_714" data-name="グループ 714" transform="translate(0 0)">
              <g id="グループ_713" data-name="グループ 713">
                <path id="パス_61206" data-name="パス 61206" d="M1050.441,1744.955c1.085,1.925.137,4.332-2.111,5.38a4.678,4.678,0,0,1-6.034-1.576c-1.083-1.919-.138-4.329,2.111-5.378A4.677,4.677,0,0,1,1050.441,1744.955Z" transform="translate(-1040.467 -1740.809)" fill="#4eb6bf"/>
                <g id="グループ_711" data-name="グループ 711" transform="translate(5.336)">
                  <path id="パス_61207" data-name="パス 61207" d="M1071.084,1730.35c-.031.727-.837,3.425-1.661,3.443s-1.353-2.649-1.323-3.376a1.528,1.528,0,0,1,1.547-1.351A1.309,1.309,0,0,1,1071.084,1730.35Z" transform="translate(-1068.098 -1729.066)" fill="#4eb6bf"/>
                </g>
                <g id="グループ_712" data-name="グループ 712" transform="translate(0 2.632)">
                  <path id="パス_61208" data-name="パス 61208" d="M1034.446,1746.691c.662.374,2.886,2.392,2.626,3.149s-2.907-.032-3.567-.407a1.766,1.766,0,0,1-.727-2.05A1.133,1.133,0,0,1,1034.446,1746.691Z" transform="translate(-1032.688 -1746.533)" fill="#4eb6bf"/>
                </g>
              </g>
              <path id="パス_61209" data-name="パス 61209" d="M1066.438,1767.494c.408.743-.237,1.814-1.439,2.4s-2.509.45-2.915-.292.238-1.813,1.441-2.395S1066.032,1766.753,1066.438,1767.494Z" transform="translate(-1057.55 -1761.149)" fill="#fff"/>
              <path id="パス_61210" data-name="パス 61210" d="M1053.38,1765.8a.551.551,0,0,1-.22.778.627.627,0,0,1-.8-.281.553.553,0,0,1,.222-.778A.621.621,0,0,1,1053.38,1765.8Z" transform="translate(-1049.327 -1759.982)" fill="#42373b"/>
              <path id="パス_61211" data-name="パス 61211" d="M1078.065,1753.879a.553.553,0,0,1-.221.776.627.627,0,0,1-.8-.281.551.551,0,0,1,.223-.778A.622.622,0,0,1,1078.065,1753.879Z" transform="translate(-1070.292 -1749.853)" fill="#42373b"/>
              <path id="パス_61212" data-name="パス 61212" d="M1073.87,1775.473a.213.213,0,0,0,.072.042.182.182,0,0,0,.24-.116l.178-.622.644.225a.18.18,0,0,0,.239-.116.206.206,0,0,0-.135-.246l-.831-.29a.191.191,0,0,0-.148.006.175.175,0,0,0-.091.109l-.23.8A.2.2,0,0,0,1073.87,1775.473Z" transform="translate(-1067.604 -1767.517)" fill="#42373b"/>
              <path id="パス_61213" data-name="パス 61213" d="M1072.491,1771.554c.1.183-.105.477-.466.651s-.736.164-.839-.024.107-.476.467-.65S1072.388,1771.365,1072.491,1771.554Z" transform="translate(-1065.364 -1765.025)" fill="#42373b"/>
            </g>
          </g>
          <path id="パス_61214" data-name="パス 61214" d="M1084.522,1813.89c1.286,2.129,4.8.61,5.268-1.713a1.531,1.531,0,0,0-.124-1.354c-.105-.178-1.158-1.188-1.364-.942-.423.5.091.848.169,1.391a5.451,5.451,0,0,0-1.732-.989c-.338-.085-.368-.542-.672.021a.52.52,0,0,0,.3.823c-1.038-.573-1.713-.324-.9.765-.94-.882-1.013.19-.417.826-.763-.651-1-.179-.842.4A2.965,2.965,0,0,0,1084.522,1813.89Z" transform="translate(-990.515 -1746.577)" fill="#f0c0ae"/>
          <path id="パス_61215" data-name="パス 61215" d="M1112.57,1840.725a6.811,6.811,0,0,0,1.113-.089,8.347,8.347,0,0,0,5.225-3,.2.2,0,1,0-.325-.246,8.045,8.045,0,0,1-4.967,2.846,7.679,7.679,0,0,1-3.778-.41,6.728,6.728,0,0,1-1.734-1.037c-.288-.214-.585-.435-.9-.63a.2.2,0,0,0-.215.347c.3.186.591.4.872.611a7.139,7.139,0,0,0,1.84,1.094A8.558,8.558,0,0,0,1112.57,1840.725Z" transform="translate(-1009.822 -1769.904)" fill="#b3a8a4"/>
          <path id="パス_61216" data-name="パス 61216" d="M1124.79,1821.432a.2.2,0,0,0,.142-.058.2.2,0,0,0,0-.288,4.678,4.678,0,0,0-2.744-.7.2.2,0,0,0,.009.408,4.3,4.3,0,0,1,2.444.576A.2.2,0,0,0,1124.79,1821.432Z" transform="translate(-1022.648 -1755.533)" fill="#b3a8a4"/>
          <path id="パス_61217" data-name="パス 61217" d="M1138.341,1801.658a.205.205,0,0,0,.113-.034,18.224,18.224,0,0,0,1.934-1.555,14.8,14.8,0,0,1,3.208-2.328.2.2,0,0,0-.183-.364,15.125,15.125,0,0,0-3.295,2.387,17.808,17.808,0,0,1-1.891,1.522.2.2,0,0,0,.113.374Z" transform="translate(-1036.359 -1735.971)" fill="#b3a8a4"/>
          <path id="パス_61218" data-name="パス 61218" d="M1076.97,1930.169c-2.791,0-7.044-1.465-12.694-4.376-5.314-2.739-9.98-5.812-10.026-5.843a.434.434,0,1,1,.478-.724c.046.031,4.679,3.081,9.952,5.8,6.885,3.548,11.709,4.932,13.95,4,5.545-2.3,12.132-18.534,12.2-18.7a.434.434,0,1,1,.806.324c-.275.682-6.791,16.735-12.67,19.176A5.2,5.2,0,0,1,1076.97,1930.169Z" transform="translate(-964.946 -1831.69)" fill="#3874aa"/>
          <path id="パス_61219" data-name="パス 61219" d="M864.795,1790s5.43,2.237,8.3,9.648,3.746,34.168,3.746,34.168l-7.6.408Z" transform="translate(-804.204 -1729.727)" fill="#e4a643"/>
          <path id="パス_61220" data-name="パス 61220" d="M739.63,1830.281l-5.451-40.352.027-11.83-7.167-6.106-12.488.2-7.815,6.388,1.826,34.213-2.685,17.852Z" transform="translate(-669.231 -1714.431)" fill="#e4a643"/>
          <path id="パス_61221" data-name="パス 61221" d="M730.284,1636.781c-1.138,1.017,1.8,1.638,2.422,1.563a6.419,6.419,0,0,0,4.132-3.313c1.294-2.8-.423-7.919-3.05-9.379a5.929,5.929,0,0,0-4.57-.622,1.8,1.8,0,0,0-.945,2.659c-2.074-1.719-3.884.444-4.194,1.41-.366,1.14-.091,3.352,1.507,3.243-.894.317-.644,2.007-.341,2.7.827,1.875,3.226,2.146,4.967,1.9C730.223,1636.956,730.3,1636.77,730.284,1636.781Z" transform="translate(-684.569 -1589.428)" fill="#c6654d"/>
          <path id="パス_61222" data-name="パス 61222" d="M712.156,1510.854c1.461,6.322,8.258,11.714,8.258,11.714l12.962-.987s5.354-5.676,4.844-11.323a33.133,33.133,0,0,0-.885-5.427,10.75,10.75,0,0,0-2.258-4.629c-2.468-2.592-6.021-3.519-8.793-3.824a22.522,22.522,0,0,0-3.122-.11c-.676.019-1.084.075-1.084.075l-.059.017-2.616.88a10.588,10.588,0,0,0-.989.6C716.015,1499.437,710.334,1502.975,712.156,1510.854Z" transform="translate(-674.264 -1480.24)" fill="#c6654d"/>
          <path id="パス_61223" data-name="パス 61223" d="M736.032,1565.753a10.905,10.905,0,1,0,10.4-11.114A10.763,10.763,0,0,0,736.032,1565.753Z" transform="translate(-694.833 -1529.817)" fill="#edbf98"/>
          <path id="パス_61224" data-name="パス 61224" d="M701.581,1609.995a3.452,3.452,0,1,0,3.291-3.613A3.455,3.455,0,0,0,701.581,1609.995Z" transform="translate(-665.58 -1573.771)" fill="#edbf98"/>
          <path id="パス_61225" data-name="パス 61225" d="M741.382,1526.468a19.927,19.927,0,0,1,1.041,3.4c.129.663.632,2.225.177,2.808-.765-.9-1.144-2.119-2.024-2.966a28.645,28.645,0,0,0-3.743-3.112,6.226,6.226,0,0,0,.647,2.107,14.7,14.7,0,0,1-4.388-3.063c-.949,1.731-2.987,3.028-4.506,4.153-1.332.987-3.311,2.539-4.944,2.911.509-1.435,1.415-2.751,1.5-4.332-.963,1.292-1.43,2.994-2.43,4.331a10.016,10.016,0,0,1-2.861,3.029c-1.335-2.361-2.421-4.524-2.064-7.433a12.361,12.361,0,0,1,2.75-5.913,10.14,10.14,0,0,1,5.11-3.185c.643-.2,1.594-.071,2.189-.459a3.236,3.236,0,0,1,1.705-.52,12.52,12.52,0,0,1,8.443,2.93C739.758,1522.542,740.546,1524.336,741.382,1526.468Z" transform="translate(-679.287 -1498.884)" fill="#c6654d"/>
          <path id="パス_61226" data-name="パス 61226" d="M833.81,1602.291a1.092,1.092,0,0,0,.621,1.349.961.961,0,0,0,1.248-.652,1.09,1.09,0,0,0-.626-1.348A.958.958,0,0,0,833.81,1602.291Z" transform="translate(-777.845 -1569.697)" fill="#0d0608"/>
          <path id="パス_61227" data-name="パス 61227" d="M781.772,1605.89a1.094,1.094,0,0,0,.622,1.349.962.962,0,0,0,1.25-.652,1.093,1.093,0,0,0-.627-1.347A.959.959,0,0,0,781.772,1605.89Z" transform="translate(-733.648 -1572.754)" fill="#0d0608"/>
          <path id="パス_61228" data-name="パス 61228" d="M813.019,1611.553a.261.261,0,0,0,.181-.093c.085-.1.182-.2.277-.3a1.568,1.568,0,0,0,.611-1.29,10.405,10.405,0,0,0-.827-2.133c-.192-.422-.371-.82-.429-1a.257.257,0,0,0-.488.161c.067.2.244.594.449,1.047a12.182,12.182,0,0,1,.785,1.972c.034.349-.147.553-.467.881-.1.1-.207.211-.307.332a.256.256,0,0,0,.035.361A.26.26,0,0,0,813.019,1611.553Z" transform="translate(-759.645 -1573.93)" fill="#0d0608"/>
          <path id="パス_61229" data-name="パス 61229" d="M714.574,1474.948l1.006,2.79c.134-.506.3-1.015.457-1.45a32.863,32.863,0,0,1,1.514-3.849c1.255-2.7,2.941-5.5,5.51-7.213,4.134-2.757,9.439-1.028,12.876,2.076a12.744,12.744,0,0,1,1.865,2.088A27.871,27.871,0,0,1,740.05,1473c.182.351.353.715.524,1.091a23.549,23.549,0,0,0-.827-4.587c-.575-.771-2.566-4.045-5.8-5.859a14.432,14.432,0,0,0-3.853-1.428c-.85-.2-2.571-.38-3.348.122a5.36,5.36,0,0,0,1.888-2.129.29.29,0,0,0,.066-.1,6.413,6.413,0,0,0-.263-6.438,12.224,12.224,0,0,0-2.653,4.918,7.167,7.167,0,0,0-.261,1.316,1.012,1.012,0,0,0-.011.2,22.744,22.744,0,0,1-.291,2.791,8.938,8.938,0,0,0-.852-2.7,8.259,8.259,0,0,0-.728-1.225c-1.207-1.7-5.73-3.7-5.73-3.7s-.945-1.037.239,3.462a4.293,4.293,0,0,0,1.522,2.232,6.449,6.449,0,0,0,1.091.711,11.848,11.848,0,0,0,3.359,1.113c-3.511-.339-6.257,3.751-7.579,6.362A23.966,23.966,0,0,0,714.574,1474.948Z" transform="translate(-676.618 -1444.076)" fill="#4c8fc4"/>
          <path id="パス_61230" data-name="パス 61230" d="M772.662,1695.094l6.321-.129a9.6,9.6,0,0,1-2.049-1.7c-1.65-1.553-2.428-12.516-2.428-12.516h-2.037v.021l0-.021h-2.037s-.776,10.964-2.426,12.516l-1.65,1.553,5.921.271v.02l.193-.009.193.009Z" transform="translate(-720.597 -1636.94)" fill="#edbf98"/>
          <path id="パス_61231" data-name="パス 61231" d="M782.236,1537.745a.313.313,0,0,1,.012-.442,3.6,3.6,0,0,0,.434-.505.312.312,0,1,1,.506.365,4.211,4.211,0,0,1-.51.593.308.308,0,0,1-.193.085A.314.314,0,0,1,782.236,1537.745Zm1.449-2.064a.313.313,0,0,1-.152-.416c.059-.125.115-.248.167-.365l.133-.29a.312.312,0,1,1,.57.255l-.134.294c-.053.118-.109.242-.168.37a.316.316,0,0,1-.263.179A.305.305,0,0,1,783.686,1535.682Zm.99-2.336a.312.312,0,0,1-.205-.391c.07-.23.132-.457.185-.679a.313.313,0,1,1,.609.144c-.055.235-.122.477-.2.72a.313.313,0,0,1-.277.219A.308.308,0,0,1,784.675,1533.346Zm.513-2.48a.311.311,0,0,1-.308-.317c0-.189,0-.377-.015-.562,0-.043-.007-.085-.01-.129a.31.31,0,0,1,.283-.338l.006,0a.314.314,0,0,1,.333.285c0,.046.007.093.011.141.014.2.019.41.016.615a.313.313,0,0,1-.29.307Z" transform="translate(-734.013 -1508.491)" fill="#e17632"/>
          <path id="パス_61232" data-name="パス 61232" d="M743.25,1546.981a.314.314,0,0,1,.018-.442l.086-.084a.312.312,0,0,1,.45.433c-.037.038-.073.074-.112.109a.311.311,0,0,1-.19.083A.316.316,0,0,1,743.25,1546.981Zm1.046-1.613a.313.313,0,0,1-.219-.385c.058-.215.109-.435.159-.653l.01-.039a.313.313,0,1,1,.609.142l-.01.04c-.052.224-.105.452-.166.676a.313.313,0,0,1-.279.229A.324.324,0,0,1,744.3,1545.368Zm.645-2.454a.312.312,0,0,1-.213-.387q.1-.351.21-.7a.312.312,0,1,1,.6.185q-.105.344-.207.691a.311.311,0,0,1-.386.212Zm.786-2.418a.317.317,0,0,1-.151-.413c.1-.223.2-.441.3-.657a.312.312,0,0,1,.567.262c-.1.213-.2.428-.289.64,0,.007-.01.024-.014.03a.3.3,0,0,1-.253.167A.317.317,0,0,1,745.728,1540.495Zm1.091-2.284a.314.314,0,0,1-.122-.426q.178-.322.37-.637a.313.313,0,1,1,.536.324c-.124.2-.243.409-.358.617a.31.31,0,0,1-.252.159A.3.3,0,0,1,746.819,1538.211Zm1.347-2.148a.315.315,0,0,1-.055-.44c.153-.2.31-.387.469-.573a.313.313,0,0,1,.474.408c-.152.177-.3.362-.449.549a.3.3,0,0,1-.225.121A.328.328,0,0,1,748.166,1536.063Z" transform="translate(-700.904 -1513.099)" fill="#e17632"/>
          <path id="パス_61233" data-name="パス 61233" d="M838.965,1548.259a6.405,6.405,0,0,0-.149-.677.313.313,0,1,1,.6-.163,7.237,7.237,0,0,1,.163.739.314.314,0,0,1-.258.36l-.029,0A.314.314,0,0,1,838.965,1548.259Zm-.757-2.33c-.1-.211-.2-.426-.309-.641a.313.313,0,1,1,.557-.284c.113.224.222.446.32.666a.312.312,0,0,1-.155.414.3.3,0,0,1-.107.028A.312.312,0,0,1,838.208,1545.929Zm-1.2-2.186c-.128-.2-.259-.4-.4-.6a.312.312,0,1,1,.513-.355c.141.2.278.406.409.613a.313.313,0,0,1-.526.337Zm-1.479-2.012c-.154-.183-.312-.363-.47-.535a.312.312,0,1,1,.459-.422c.164.177.328.364.488.553a.313.313,0,1,1-.478.4Zm-1.753-1.746c-.191-.154-.38-.289-.561-.408a.312.312,0,0,1,.338-.525c.2.128.4.277.613.444a.311.311,0,0,1,.049.439.3.3,0,0,1-.222.116A.312.312,0,0,1,833.777,1539.985Z" transform="translate(-777.261 -1516.548)" fill="#e17632"/>
          <path id="パス_61234" data-name="パス 61234" d="M757.419,1622.746a1.251,1.251,0,1,0,1.161-1.333A1.249,1.249,0,0,0,757.419,1622.746Z" transform="translate(-713.005 -1586.538)" fill="#db6b69"/>
          <path id="パス_61235" data-name="パス 61235" d="M856.5,1615.887a1.25,1.25,0,1,0,1.16-1.333A1.249,1.249,0,0,0,856.5,1615.887Z" transform="translate(-797.155 -1580.712)" fill="#db6b69"/>
          <path id="パス_61236" data-name="パス 61236" d="M759.715,1623.875a.238.238,0,0,0,.159-.075c.238-.255.778-.881.618-1.181a.4.4,0,0,0-.242-.2c-.288-.088-.706.093-1.243.39l-.074.04-.056.029.031-.048c.023-.034.047-.073.073-.116.135-.214.413-.657.624-.671h.015a.239.239,0,0,0-.025-.478c-.467.021-.8.545-1.019.9l-.068.109c-.179.274-.353.585-.164.792s.518.065.812-.087l.083-.046a3.613,3.613,0,0,1,.732-.336,5.034,5.034,0,0,1-.445.575.239.239,0,0,0,.011.339A.242.242,0,0,0,759.715,1623.875Z" transform="translate(-713.722 -1586.673)" fill="#d55861"/>
          <path id="パス_61237" data-name="パス 61237" d="M858.09,1617.067a.236.236,0,0,0,.157-.075c.188-.2.787-.865.624-1.181a.4.4,0,0,0-.246-.2c-.289-.087-.705.094-1.241.389l-.076.042c-.019.01-.038.018-.055.028l.029-.048.071-.112c.137-.216.416-.665.633-.676a.239.239,0,0,0-.018-.478c-.464.014-.8.55-1.022.9l-.065.106c-.18.274-.355.584-.166.792s.518.065.812-.087l.088-.047a3.546,3.546,0,0,1,.729-.334,4.818,4.818,0,0,1-.446.574.24.24,0,0,0,.191.4Z" transform="translate(-797.274 -1580.89)" fill="#d55861"/>
          <path id="パス_61238" data-name="パス 61238" d="M797.925,1694.052l2.575-.178a.312.312,0,1,0-.044-.623l-2.574.177a.313.313,0,1,0,.043.624Z" transform="translate(-747.127 -1647.553)" fill="#b35d55"/>
          <path id="パス_61239" data-name="パス 61239" d="M640.637,2053.751c0,2.287-2.119,7.485-4.063,7.485s-3.523-1.852-3.523-4.138,1.578-4.141,3.523-4.141S640.637,2051.464,640.637,2053.751Z" transform="translate(-607.379 -1952.654)" fill="#edbf98"/>
          <path id="パス_61240" data-name="パス 61240" d="M939.219,2079.8c0,2.287-2.119,7.486-4.063,7.486s-3.523-1.853-3.523-4.138,1.578-4.141,3.523-4.141S939.219,2077.514,939.219,2079.8Z" transform="translate(-860.971 -1974.779)" fill="#e2847c"/>
          <path id="パス_61241" data-name="パス 61241" d="M655.378,1798.19s-2.131-.234-6,6.71-7.91,33.088-7.91,33.088l6.359,2.007Z" transform="translate(-614.527 -1736.68)" fill="#e4a643"/>
          <g id="グループ_716" data-name="グループ 716" transform="translate(0 64.266)">
            <path id="パス_61242" data-name="パス 61242" d="M473.688,1820.63c-2.164-1.361-7.828-4.108-7.75-3.211,0,.116.051.329.038.4a6.512,6.512,0,0,0-3.274-1.325c-.312.637,2.316,2.006,2.766,2.376a4.7,4.7,0,0,0-1.076-.1c-.09.384.318.583.592.755,1.263.794,2.182,1.342,3.451,2.13.66.409,1.278.875,1.908,1.329.136.1.775.412.621.656-.133.208-.859-.086-1.044-.159a4.815,4.815,0,0,1-1.248-.779c-.542-.463-1.443-1.215-2.217-1.027-.661.163-.093.5.272.79.453.359.929.67,1.36,1.052.339.3.615.753.972,1.008a12.314,12.314,0,0,0,2.229.947c.905.377,1.817.685,2.686,1.143a8.762,8.762,0,0,1,1.664.85c.479.4.966.831,1.446,1.247a17.469,17.469,0,0,1,1.7,1.693,16.634,16.634,0,0,1,2.117,4,12.009,12.009,0,0,1,2.865-.856,19.572,19.572,0,0,0-.983-2.534,8.338,8.338,0,0,1-.72-1.546,9.457,9.457,0,0,1-.508-1.842c-.018-.569.219-1.083.235-1.622a3.454,3.454,0,0,0-.506-1.417c-.235-.516-.484-1.021-.705-1.551a17.923,17.923,0,0,1-1.377-3.142c-.085-.407-.6-2.085-.905-.844-.253,1.044-.112,2.106-.3,3.132-.121.664-.728.3-1.251.086A20.726,20.726,0,0,1,473.688,1820.63Z" transform="translate(-462.678 -1816.487)" fill="#edbf98"/>
            <path id="パス_61243" data-name="パス 61243" d="M582.576,1922.811l-9.516-28.17,2.192-2.8,12.213,29Z" transform="translate(-556.427 -1880.49)" fill="#edbf98"/>
          </g>
          <path id="パス_61244" data-name="パス 61244" d="M488.5,1835.824a.3.3,0,0,1-.134-.031l-7.771-3.71a.313.313,0,0,1,.27-.565l7.771,3.711a.313.313,0,0,1-.135.594Z" transform="translate(-477.745 -1764.962)" fill="#c06060"/>
          <path id="パス_61245" data-name="パス 61245" d="M495.165,1830a.331.331,0,0,1-.134-.03l-7.771-3.709a.313.313,0,0,1,.269-.565l7.771,3.71a.31.31,0,0,1,.147.416A.313.313,0,0,1,495.165,1830Z" transform="translate(-483.405 -1760.012)" fill="#c06060"/>
          <path id="パス_61246" data-name="パス 61246" d="M886,1883.831a.351.351,0,0,1-.349-.323L883.2,1852a.35.35,0,1,1,.7-.055l2.45,31.512a.35.35,0,0,1-.322.376Z" transform="translate(-819.837 -1782.059)" fill="#d18700"/>
          <path id="パス_61248" data-name="パス 61248" d="M992.936,1759.827a.4.4,0,0,1-.4-.392l-.517-20.175a.4.4,0,0,1,.392-.413h.01a.4.4,0,0,1,.4.392l.517,20.175a.4.4,0,0,1-.392.413Z" transform="translate(-912.256 -1686.28)" fill="#3874aa"/>
          <path id="パス_61249" data-name="パス 61249" d="M811.078,1659.42c0,.476-.27.861-.6.861s-.6-.386-.6-.861.27-.861.6-.861S811.078,1658.944,811.078,1659.42Z" transform="translate(-757.557 -1618.089)" fill="#b31938"/>
          <path id="パス_61250" data-name="パス 61250" d="M1083.067,1578.3a.287.287,0,0,1-.286-.265c0-.049-.006-.1-.006-.148a1.778,1.778,0,1,1,3.556-.084.287.287,0,0,1-.573.025,1.2,1.2,0,1,0-2.408.059c0,.035,0,.07,0,.1a.287.287,0,0,1-.264.308Z" transform="translate(-989.339 -1548.012)" fill="#c1143a"/>
        </g>
        <g id="グループ_1786" data-name="グループ 1786" transform="matrix(-0.485, 0.875, -0.875, -0.485, 50.054, 24.866)">
          <path id="パス_63449" data-name="パス 63449" d="M0,0S10.15,1.966,8.23,3.555C6.664,4.85,0,0,0,0Z" transform="translate(0.313 0.312)" fill="#fff"/>
          <path id="パス_63450" data-name="パス 63450" d="M.129.565A.312.312,0,0,1,.371.006c.021,0,2.057.4,4.113.972C8.347,2.051,8.953,2.8,9.073,3.267a.794.794,0,0,1-.332.841A1.442,1.442,0,0,1,7.8,4.4h0C5.424,4.4.344.721.129.565ZM7.8,3.775a.851.851,0,0,0,.547-.148c.146-.121.13-.184.125-.205C8.436,3.3,8.088,2.627,4.32,1.58c-.906-.252-1.809-.469-2.533-.634C3.452,2.046,6.308,3.775,7.8,3.775Z" transform="translate(0 0)" fill="#0d0002"/>
        </g>
        <g id="グループ_1787" data-name="グループ 1787" transform="matrix(-0.485, 0.875, -0.875, -0.485, 44.902, 24.905)">
          <path id="パス_63451" data-name="パス 63451" d="M0,0S8.588,5.754,6.2,6.472C4.256,7.058,0,0,0,0Z" transform="translate(0.312 0.312)" fill="#fff"/>
          <path id="パス_63452" data-name="パス 63452" d="M.045.473A.312.312,0,0,1,.486.053C.5.064,2.226,1.221,3.9,2.546,7.04,5.036,7.308,5.96,7.236,6.438a.794.794,0,0,1-.632.646,1.162,1.162,0,0,1-.333.048h0C4.121,7.131.455,1.155.045.473ZM6.271,6.507a.536.536,0,0,0,.153-.021c.182-.055.191-.119.194-.14.019-.126-.042-.879-3.106-3.308-.742-.589-1.5-1.143-2.1-1.577C2.962,3.788,5.14,6.507,6.271,6.507Z" transform="translate(0 0)" fill="#0d0002"/>
        </g>
        <g id="グループ_1788" data-name="グループ 1788" transform="matrix(-0.485, 0.875, -0.875, -0.485, 46.742, 19.408)">
          <path id="パス_63453" data-name="パス 63453" d="M0,0S8.588,5.754,6.2,6.474C4.256,7.059,0,0,0,0Z" transform="translate(0.312 0.312)" fill="#fff"/>
          <path id="パス_63454" data-name="パス 63454" d="M.045.473A.312.312,0,0,1,.486.053C.5.064,2.226,1.221,3.9,2.546,7.04,5.036,7.308,5.96,7.236,6.439a.8.8,0,0,1-.633.646,1.147,1.147,0,0,1-.332.048h0C4.121,7.133.456,1.155.045.473ZM6.271,6.508a.541.541,0,0,0,.153-.021c.181-.055.191-.12.194-.141.019-.126-.042-.88-3.106-3.308-.742-.589-1.5-1.144-2.1-1.578C2.962,3.788,5.14,6.508,6.271,6.508Z" transform="translate(0 0)" fill="#0d0002"/>
        </g>
        <path id="パス_63413" data-name="パス 63413" d="M2672.228,286.387a3.067,3.067,0,0,1-2.509,1.343,2.581,2.581,0,0,1-2.585-1.12,2.992,2.992,0,0,1-.281-1.9,4.19,4.19,0,0,1-1.955.27,3.107,3.107,0,0,1-1.907-.972c-2.646.988-7.147,1.742-9.547-.914-1.7-1.886-1.974-4.895-.761-8.473,1.733-5.12,5.965-9.806,9.432-10.448a.287.287,0,0,1,.105.565c-3.285.607-7.318,5.124-8.993,10.067-1.142,3.372-.913,6.178.645,7.9,1.9,2.1,5.719,1.92,8.74.829a5.073,5.073,0,0,1-.51-.948c-1.136-2.732,1.778-7.654,4.685-9.057a2.625,2.625,0,0,1,3.774,1.1,3.134,3.134,0,0,1,.165,2.634c-.972,2.817-5.168,5.648-7.154,6.509a2.5,2.5,0,0,0,1.4.635,3.847,3.847,0,0,0,2.024-.37,4.215,4.215,0,0,1,.893-1.693,1.593,1.593,0,0,1,2-.44.287.287,0,0,1,.1.427,7.356,7.356,0,0,1-2.5,2.1,2.764,2.764,0,0,0,.141,1.886,2.063,2.063,0,0,0,2.039.842,2.67,2.67,0,0,0,2.022-.971.175.175,0,0,0-.049-.211.287.287,0,1,1,.415-.4.744.744,0,0,1,.173.809Zm-9.594-4.022a4.458,4.458,0,0,0,.531.955l.127-.053c1.639-.695,5.95-3.462,6.891-6.192a2.577,2.577,0,0,0-.125-2.169,2.04,2.04,0,0,0-3.021-.861c-2.344,1.132-4.79,4.877-4.608,7.412A2.919,2.919,0,0,0,2662.634,282.365Zm6.636-.062a1.129,1.129,0,0,0-.965.434,3.107,3.107,0,0,0-.564.895A6.918,6.918,0,0,0,2669.27,282.3Z" transform="translate(-2676.279 -250.143)" fill="#0d0002"/>
      </g>
    </g>
  </g>
</svg>
