<svg xmlns="http://www.w3.org/2000/svg" width="45.893" height="46.006" viewBox="0 0 45.893 46.006"><g transform="translate(-1173.143 1370.226)"><g transform="translate(1177.249 -1349.569)"><path d="M1245.77-851.356a5.567,5.567,0,0,0,.167-1.672c-.117-.468,1.12.067,1.354.1s-.05,1.2.017,1.622S1245.987-850.9,1245.77-851.356Z" transform="translate(-1245.502 863.699)" fill="#fead94"/><path d="M1326.431-874.45a5.35,5.35,0,0,0-.1-1.4c-.151-.485.969-.117,1.237-.084s.117,1.137.234,1.4S1326.715-873.881,1326.431-874.45Z" transform="translate(-1321.198 885.205)" fill="#fead94"/><path d="M1246.209-1014.025a20.869,20.869,0,0,0-.757,3.789,1.127,1.127,0,0,1-.847.295,2.984,2.984,0,0,1-1.338-.473s.224-.179.134-1.561a38.288,38.288,0,0,1,.892-5.751,9.371,9.371,0,0,0-.58-2.5l2.9-.357s.226.79.363,1.561c.035.2.064.4.083.579A13.768,13.768,0,0,1,1246.209-1014.025Z" transform="translate(-1243.149 1020.98)" fill="#61a1af"/><path d="M1312.689-1018.1a1.513,1.513,0,0,1-.911.308,4.105,4.105,0,0,1-1.185-.13,5.97,5.97,0,0,1-.044-1.025,34.975,34.975,0,0,0-.535-4.993,15.471,15.471,0,0,1-.178-2.942l2.719-.357s-.01.624-.011,1.4c0,.886.009,1.973.056,2.566C1312.689-1022.153,1312.689-1018.1,1312.689-1018.1Z" transform="translate(-1305.707 1027.235)" fill="#61a1af"/><path d="M1241.328-826a2.922,2.922,0,0,1,.268-.853c.15-.184.134.184.384.251s.15-.334.384-.334.769-.15.87,0,.017.284.15.485.853.836.936,1.036.234.468.167.685-.936.3-1.454.1a1.629,1.629,0,0,1-.936-.719C1241.963-825.619,1241.328-825.652,1241.328-826Z" transform="translate(-1241.328 839.065)" fill="#214e6f"/><path d="M1325.062-853.073s-.05-.8.134-.97.385.3.619.268.151-.1.368-.268.318-.184.5-.1.719.719,1,.852.652.284.719.485-.3.468-.936.351A10.429,10.429,0,0,1,1325.062-853.073Z" transform="translate(-1320.013 864.614)" fill="#214e6f"/></g><path d="M1236.734-1277.307a26.782,26.782,0,0,1-.673,3.179c-.075.292-.138.518-.173.632-.156.49-.357,4.7-.357,4.7-.87.58-4.993.29-4.993.29s.133-1.828.2-2.451a4.051,4.051,0,0,0-.165-1.078c-.123-.511-.292-1.1-.433-1.582-.117-.408-.214-.743-.249-.906a3.991,3.991,0,0,0-.156-.488c-.04-.109-.085-.228-.132-.351a5.963,5.963,0,0,1-.559-1.858,1.875,1.875,0,0,1,.487-.805,1.4,1.4,0,0,1,.494-.309c.558-.2,2.006-.914,2.006-.914a3.237,3.237,0,0,1,2.519.311,12.617,12.617,0,0,0,1.27.558C1236.2-1278.244,1236.779-1278.043,1236.734-1277.307Z" transform="translate(-52.525 -85.359)" fill="#fdab3f"/><path d="M1349.413-1254.319s.691.468.8.892a6.392,6.392,0,0,0,1.025,1.427l-.423,1.6-1.694-1S1349.457-1254.051,1349.413-1254.319Z" transform="translate(-165.382 -108.926)" fill="#fead94"/><path d="M1289.969-1278.032a1.008,1.008,0,0,1-.467.06c-.691-.044-1.628-.5-1.54-.751.112-.312.223-.757.223-.757l.03.017a3.263,3.263,0,0,0,1.526.546h0c.046,0,.082,0,.108,0s.051-.005.051-.005v0l.024.308Z" transform="translate(-107.899 -85.28)" fill="#efa58e"/><path d="M1253.333-1223.085c-.075.292-.138.518-.173.632-.156.49-.357,4.7-.357,4.7-.871.58-4.993.29-4.993.29s.133-1.828.2-2.451a4.057,4.057,0,0,0-.165-1.078c-.123-.511-.292-1.1-.433-1.582.165-.091.541-.294.905-.545a2.013,2.013,0,0,0,.853-.918,3.3,3.3,0,0,0,.133-.98l3.455-.067s-.045,1.338.469,1.783A.439.439,0,0,1,1253.333-1223.085Z" transform="translate(-69.797 -136.402)" fill="#73bbd8"/><path d="M1200.477-1254.477a4.482,4.482,0,0,1-.5.78,3.961,3.961,0,0,1-.312.353c-.152.152-.221.42-.4.558a4.526,4.526,0,0,0-.369-.289c-.5-.363-1.243-.829-1.526-1a9.713,9.713,0,0,1,.959-.9c.434-.5,1.4-1.738,1.4-1.738l.042.008c.179.037.879.22.995.861A2.357,2.357,0,0,1,1200.477-1254.477Z" transform="translate(-22.772 -106.67)" fill="#fdab3f"/><path d="M1225.587-1217.949l-1.132.129c-.084-.3-.172-.609-.251-.881-.117-.407-.215-.743-.249-.905a3.963,3.963,0,0,0-.156-.488,3.95,3.95,0,0,1-.312.353c-.152.152-.22.42-.4.558a4.6,4.6,0,0,0-.369-.289c0-.01,0-.021.005-.031s.528-.487.945-.942a4.59,4.59,0,0,0,.383-.461c.063-.091.147-.069.245.033a6.446,6.446,0,0,1,.815,1.628C1225.295-1218.773,1225.466-1218.295,1225.587-1217.949Z" transform="translate(-46.588 -140.273)" fill="#ce9141"/><path d="M1196.956-1194.1l.046-.015c-.126.132-.207.3-.286.123-.114-.246-1.081-.834-1.233-1.156s.209-.436.417-.588,1.194-.986,1.194-.986l.036.017c.082.064.156.126.219.182a4.961,4.961,0,0,0-1.2,1.016.254.254,0,0,0-.026.152,4.44,4.44,0,0,0,.843,1.274Z" transform="translate(-20.961 -163.054)" fill="#e5776e"/><path d="M1286.5-1349.176a3.94,3.94,0,0,1-.911,2.619l-.008.006a.556.556,0,0,1-.171.067,1.387,1.387,0,0,1-.788-.085,1.842,1.842,0,0,1-.428-.234,2.01,2.01,0,0,1-.5-.534,3.634,3.634,0,0,1-.525-1.606,6.746,6.746,0,0,1,.079-1.644,1.292,1.292,0,0,1,.758-.992,2.028,2.028,0,0,1,2.073.479C1286.245-1350.865,1286.6-1350.764,1286.5-1349.176Z" transform="translate(-103.379 -17.407)" fill="#ffad94"/><path d="M1275.945-1357.75a2.246,2.246,0,0,1-.518-.953c-.05-.435-.234-.485-.234-.97s.418-.518.318-.836-.184-1.037.151-1.287,1.087-.234,1.521-.485.986.384,1.354.5.719.7.836.953-.05.4.017.7.134.568-.351.585-.97-.05-1.354-.017-.635-.334-.9-.117a1.225,1.225,0,0,0-.2,1.12c.083.368-.217-.017-.418.167A.8.8,0,0,0,1275.945-1357.75Z" transform="translate(-95.904 -7.413)" fill="#273c52"/><path d="M1308.392-1265.779a1.01,1.01,0,0,1-.467.06c-.021-.12-.051-.281-.085-.417a.655.655,0,0,0-.28-.306,1.387,1.387,0,0,0,.788.085Z" transform="translate(-126.322 -97.533)" fill="#d69d8e"/><path d="M1267.084-985.5a22.747,22.747,0,0,0-.757,3.963,1.1,1.1,0,0,1-.847.308,33.74,33.74,0,0,1,.6-3.873,12.255,12.255,0,0,0,.607-4.231c-.049-.421-.071-.724-.08-.942l1.281-.183c.017.117.031.232.042.341A14.98,14.98,0,0,1,1267.084-985.5Z" transform="translate(-86.775 -357.303)" fill="#4c7f84"/><path d="M1338-989.561c.135-1.046-.208-6.59-.265-7.5l1.032-.141c0,.792.015,1.654.055,2.159.089,1.114.089,5.171.089,5.171A1.512,1.512,0,0,1,1338-989.561Z" transform="translate(-154.677 -350.561)" fill="#4c7f84"/><g transform="translate(1176.833 -1363.342)"><g transform="translate(0 1.469)"><g transform="translate(0 0)"><rect width="30.111" height="14.015" transform="translate(0 0.43) rotate(-0.818)" fill="#f2f2f2"/><rect width="11.864" height="14.015" transform="matrix(1, -0.014, 0.014, 1, 18.176, 0.17)" fill="#f7fbfa"/><rect width="13.992" height="0.694" transform="matrix(-0.014, -1, 1, -0.014, 17.682, 14.171)" fill="#ebf2f1"/><rect width="0.624" height="7.84" transform="matrix(-0.014, -1, 1, -0.014, 8.762, 1.762)" fill="#b7dedb"/><path d="M1524.9-1214.074l.113-13.96-.312,0Z" transform="translate(-1507.221 1228.245)" fill="#e1e5e4"/><rect width="0.624" height="3.816" transform="matrix(-0.014, -1, 1, -0.014, 18.96, 1.616)" fill="#b7dedb"/></g><rect width="30.111" height="7.389" transform="translate(0.095 7.055) rotate(-0.818)" fill="#ebf2f1" opacity="0.2"/></g><path d="M1733.191-1254.459l10.068-1.47.074,13.3-9.873,2.187Z" transform="translate(-1703.152 1255.929)" fill="#e6e6e6"/><path d="M1247.473-1254.058l9.849-1.477,29.472-.394-10.068,1.47Z" transform="translate(-1246.686 1255.929)" fill="#e6e6e6"/></g><g transform="translate(1208.588 -1331.727)"><path d="M1766.926-699.879a1.546,1.546,0,0,1-1.317.315,16.986,16.986,0,0,0-2.244-.964c-.705-.111-1.539-.129-1.687-.612a1.873,1.873,0,0,1,.062-.331.686.686,0,0,1,.308-.467c.316-.13,1.633-.408,1.948-.556.243-.114.538-.294.721-.219a.238.238,0,0,1,.132.145c.13.334.278.667.65.779s.648-.073,1,.055a.228.228,0,0,1,.1.089,3.2,3.2,0,0,1,.278,1.171C1766.914-700.144,1766.926-699.879,1766.926-699.879Z" transform="translate(-1761.678 704.432)" fill="#214e6f"/><path d="M1766.926-680.222a1.546,1.546,0,0,1-1.317.315,16.986,16.986,0,0,0-2.244-.964c-.705-.111-1.539-.129-1.687-.612a1.875,1.875,0,0,1,.062-.331,2.494,2.494,0,0,0,1.2.331c.815.019,1.946.8,2.726.872a2.366,2.366,0,0,0,1.214-.206C1766.914-680.487,1766.926-680.222,1766.926-680.222Z" transform="translate(-1761.678 684.775)" fill="#bdd5e0"/><path d="M1814.019-728.193a.228.228,0,0,0-.1-.089c-.353-.129-.631.056-1-.056s-.52-.445-.65-.778a.238.238,0,0,0-.132-.145,4.363,4.363,0,0,0,.336-1.488c-.056-.556,1.372.038,1.595.261A8.411,8.411,0,0,1,1814.019-728.193Z" transform="translate(-1809.096 730.98)" fill="#febfb0"/></g><g transform="translate(1212.624 -1330.273)"><path d="M1849.489-703.912a6.543,6.543,0,0,0-.318-1.806c-.284-.719,1.037-1.087,1.287-1.12s1,1.706,1.271,2.006S1850.408-703.494,1849.489-703.912Z" transform="translate(-1847.9 706.838)" fill="#febfb0"/><path d="M1833.39-673.365s0,0,0,.005c0,.054-.051.07-.179.028-.653-.216-2.391,1.3-2.792,1.5a14.228,14.228,0,0,0-1.572,1.237,1.223,1.223,0,0,1-.092-.182.687.687,0,0,1-.058-.252c0-.2.4-.636.5-.853s1.037-1.889,1.037-1.889a.97.97,0,0,1,.653.017c.3.066.735-.3.935-.586s.7-.1.7-.1.4.392.653.714A.91.91,0,0,1,1833.39-673.365Z" transform="translate(-1828.696 676.441)" fill="#214e6f"/><path d="M1831.65-652.7c-.6.017-.518-.2-.518-.2a14.24,14.24,0,0,1,1.572-1.237c.4-.2,2.139-1.721,2.792-1.5.128.042.179.026.179-.028a.032.032,0,0,1,0,.012C1835.813-654.838,1832.252-652.715,1831.65-652.7Z" transform="translate(-1830.982 658.751)" fill="#6d90a5"/><path d="M1834.3-662.328s0,0,0,.005c0,.054-.051.07-.179.028-.653-.216-2.391,1.3-2.792,1.5a14.232,14.232,0,0,0-1.572,1.237,1.236,1.236,0,0,1-.093-.182,7.925,7.925,0,0,1,1.665-1.473c.468-.15,1.738-1.5,2.206-1.538a1.837,1.837,0,0,1,.553.062A.906.906,0,0,1,1834.3-662.328Z" transform="translate(-1829.602 665.404)" fill="#bdd5e0"/></g><path d="M1833.808-1280.227a8.656,8.656,0,0,0,.4,1.248c.2.423-1.56.245-2.006.379s-.089-.357-.245-.8,1.493-.4,1.939-.8Z" transform="translate(-619.128 -84.579)" fill="#f2b2a3"/><path d="M1795.893-1262.554a2.524,2.524,0,0,1-.094.5,8.142,8.142,0,0,1-.743,1.629c-.092.166-.182.327-.266.482a12.621,12.621,0,0,0-.817,3.025c-.014.08-.026.157-.038.232-.036.225-.063.427-.082.589-.1.9.034,3.711.034,3.711-.636.835-6.621.769-6.554.5a6.177,6.177,0,0,0,.133-1.137c.016-.286.025-1.372.029-2.383,0-.3,0-.6,0-.862,0-.087,0-.17,0-.249,0-.484,0-.819,0-.819a4.971,4.971,0,0,0,.085-.891c.046-1.962-.453-5.31-.085-5.765.016-.02.035-.04.054-.06.482-.495,1.737-.756,2.187-1.11.468-.368,2.073-.836,2.641-.4a15.313,15.313,0,0,0,2.206,1.1c.051.024.1.047.134.067A2.251,2.251,0,0,1,1795.893-1262.554Z" transform="translate(-577.199 -98.194)" fill="#7cc5be"/><path d="M1816.7-1044.095a9.7,9.7,0,0,1,.624,3.745c-.223,1.471-1.739,5.127-2.051,6.42s-.713,1.427-.49,2.63a41.532,41.532,0,0,1-.123,6.23c-.089,1.2-2.441.468-2.842.2s-.111-6.252-.067-7.813,1.338-9.9,1.427-10.7S1815.946-1043.694,1816.7-1044.095Z" transform="translate(-600.018 -306.49)" fill="#2d7396"/><path d="M1783.9-1019.936c-.014.32-.309.592-.7.8-.809.42-2.033.545-2.063.185-.044-.535-3.1-6.732-3.132-7.534s-.468-2.207-.5-2.975-.2-3.979-.1-4.882.568-5.55.568-5.55l4.494-.265.41.387a7.674,7.674,0,0,1-.186,2.622,14.507,14.507,0,0,0-.349,1.792c-.089,1.159-1.273,6.9-1.273,6.9A44.71,44.71,0,0,1,1783.9-1019.936Z" transform="translate(-567.841 -310.186)" fill="#2d7396"/><path d="M1801.469-1362.515a2.039,2.039,0,0,0-1,1.338,6.792,6.792,0,0,0-.194,1.572c.022,1.048.2,2.43.825,2.719a3.772,3.772,0,0,0,3.031-.958,4.727,4.727,0,0,0,.58-2.875A2.144,2.144,0,0,0,1801.469-1362.515Z" transform="translate(-589.364 -6.94)" fill="#febfb0"/><path d="M1816.946-1344.849c0,.4.379.4.468.758a1.562,1.562,0,0,0,.936,1.07c.535.178.78.58,1.248.178a3.036,3.036,0,0,0,.825-2.563,2.186,2.186,0,0,0-.758-1.627C1819.309-1347.367,1816.946-1345.25,1816.946-1344.849Z" transform="translate(-605.03 -21.763)" fill="#541819"/><path d="M1648.326-1077.819c-.167-.167-.167.134-.485.167h-.267l-.635-.385s-.585-.267-.7-.034c-.068.136-.05.2.029.23a.891.891,0,0,0-.122,0,.045.045,0,0,0-.008-.013c-.084-.084.008-.242-.109-.267s-.242.159-.284.368a.488.488,0,0,0,.025.24l-.059-.031a1.452,1.452,0,0,0-.084.443.235.235,0,0,0,.105.147l-.038-.005a.562.562,0,0,0-.008.284.39.39,0,0,0,.133.185h-.016s.142.435.393.435a.183.183,0,0,0,.036,0,3.851,3.851,0,0,0,1.427-.055,4.2,4.2,0,0,0,1.07-.468A5.2,5.2,0,0,0,1648.326-1077.819Z" transform="translate(-444.026 -274.47)" fill="#febfb0"/><path d="M1925.419-1156.439l.152-.512a.3.3,0,0,1,.379.228c.114.322.019.4.019.664a1.336,1.336,0,0,1-.379.72C1925.438-1155.15,1925.646-1156.173,1925.419-1156.439Z" transform="translate(-706.97 -200.418)" fill="#eebdae"/><path d="M1897.9-1206.088a1.479,1.479,0,0,1-.619,1.06.859.859,0,0,1-1.367-.007.186.186,0,0,1-.014-.019c-.018-.026-.016-.142-.032-.171-.27-.476.527-2.444,1.172-3.87.4-.875.734-1.547.734-1.547s-.01.135-.027.363c-.049.661-.153,2.1-.235,3.262l.01-.019.009.007a1.188,1.188,0,0,1,.342.593A1.181,1.181,0,0,1,1897.9-1206.088Z" transform="translate(-679.145 -149.973)" fill="#7cc5be"/><path d="M1817.619-973.085c-.015.32-.309.592-.7.8-.39-1.414-1.9-6.85-2.562-8.232-.758-1.592-1.592-1.668-.758-3.109a25.753,25.753,0,0,0,2.655-6.294c.071-.3.121-.414.156-.378a14.491,14.491,0,0,0-.349,1.792c-.089,1.159-1.273,6.9-1.273,6.9A44.745,44.745,0,0,1,1817.619-973.085Z" transform="translate(-601.556 -357.037)" fill="#256077"/><path d="M1908.109-1242.619a2.5,2.5,0,0,1-.094.5c-.048.66-.153,2.1-.235,3.262l.01-.019.009.008c-.136.119-.261.145-.35.005a3,3,0,0,1-.177-1.626c.009-.146.022-.3.036-.446.029-.306.063-.615.09-.911a5.86,5.86,0,0,0-.657-2.578,1,1,0,0,1,.063-.1q.077.037.134.067A2.25,2.25,0,0,1,1908.109-1242.619Z" transform="translate(-689.417 -118.129)" fill="#69a39c" opacity="0.5"/><path d="M1899.459-1140.45a1.479,1.479,0,0,1-.619,1.06.86.86,0,0,1-1.367-.007.019.019,0,0,1,0-.005,1.708,1.708,0,0,0,1.215-.276,3.814,3.814,0,0,0,.742-1.119A1.159,1.159,0,0,1,1899.459-1140.45Z" transform="translate(-680.707 -215.611)" fill="#6bb0c6" opacity="0.2"/><path d="M1684.657-1237.754a26.858,26.858,0,0,1-.837,4.317c-.065.182-.143.387-.231.6-.18.443-.4.931-.607,1.355a6.453,6.453,0,0,1-.566.986,9.1,9.1,0,0,1-3.277,1.906c-1.7.668-1.861,1.1-2.263.766-.028-.023-.058-.05-.088-.079-.395-.387-.9-1.241-.556-1.552.367-.334,3.074-2.177,3.442-2.578s.969-.536,1.2-1.07a11.979,11.979,0,0,0,.568-3.076,4.218,4.218,0,0,1,1.037-2.474,1.872,1.872,0,0,1,.393-.284,1.252,1.252,0,0,1,.162-.078A1.2,1.2,0,0,1,1684.657-1237.754Z" transform="translate(-472.684 -123.232)" fill="#7cc5be"/><path d="M1692.451-1155.718a13.023,13.023,0,0,1-.153,1.941,1.188,1.188,0,0,1-.457.524c0-.3,0-.6,0-.861,0-.087,0-.17,0-.249a6.464,6.464,0,0,1-.566.986,9.109,9.109,0,0,1-3.277,1.906c-1.705.668-1.862,1.1-2.263.766-.028-.023-.057-.05-.087-.079l-.1-.149a27.177,27.177,0,0,0,2.881-1.63c.607-.493,2.427-1.478,2.806-2.237.225-.451.478-.861.693-1.272a5.222,5.222,0,0,0,.368-.852C1692.423-1157.323,1692.468-1156.6,1692.451-1155.718Z" transform="translate(-481.546 -200.35)" fill="#69a39c" opacity="0.5"/><path d="M1177.751-1206.992c-.042.117-.31.125-.694.067l-.36-.057-.044.073.512.126s.4.025.477.109.1.117-.016.15a1.084,1.084,0,0,1-.384-.034l-.719-.15v-.006c-.021.029-.042.056-.063.083l.4.157a3.235,3.235,0,0,1,.585.184c.084.067.025.117-.1.126a2.238,2.238,0,0,1-.484-.109s-.367-.116-.5-.174c.016.017.267.258.267.258s.334.142.451.209.042.175-.058.159a5.111,5.111,0,0,1-.552-.226l-.42-.331a1.468,1.468,0,0,1-.49-.547s-2.309-1.2-2.409-1.671.569-1.4,1-1.805l.046-.045a6.171,6.171,0,0,0,.64-.829c.307.191.915.573,1.328.894.082.064.156.126.219.182a4.963,4.963,0,0,0-1.2,1.016.255.255,0,0,0-.026.152,4.447,4.447,0,0,0,.843,1.274l-.007-.02.046-.015.573-.186s.619.067.719.1.117.15-.084.2-.284-.167-.719.051a.748.748,0,0,1-.12.047,2.99,2.99,0,0,1,.462.279l-.025.05.853.092A.131.131,0,0,1,1177.751-1206.992Z" transform="translate(0 -149.377)" fill="#ffad94"/><path d="M1795-1368.116l.809,1.505,1.469.362,2.1-.421v-2.163l-.42-.6s-.6-.9-1.262-.781a11.288,11.288,0,0,1-1.622.12l-.961.541-.661.9Z" transform="translate(-583.89 0)" fill="#541819"/></g></svg>