<svg xmlns="http://www.w3.org/2000/svg" width="20" height="20" viewBox="0 0 20 20"><g fill="#fff"><path d="M 15.49471092224121 19.02536773681641 L 10.2504997253418 15.98956966400146 L 10 15.84455966949463 L 9.749500274658203 15.98956966400146 L 4.505289077758789 19.02536773681641 L 5.637819766998291 12.80362987518311 L 5.685140132904053 12.54364013671875 L 5.4969801902771 12.35807991027832 L 1.078896641731262 8.001066207885742 L 7.0655198097229 7.209780216217041 L 7.342520236968994 7.17317008972168 L 7.456500053405762 6.918059825897217 L 10 1.225630640983582 L 12.54349994659424 6.918059825897217 L 12.65748023986816 7.17317008972168 L 12.93447971343994 7.209780216217041 L 18.92110252380371 8.001066207885742 L 14.50302028656006 12.35807991027832 L 14.31486034393311 12.54364013671875 L 14.36217975616455 12.80362987518311 L 15.49471092224121 19.02536773681641 Z" stroke="none"/><path d="M 10 2.451271057128906 L 7.913000106811523 7.122039794921875 L 7.685029983520508 7.632240295410156 L 7.131039619445801 7.705470085144043 L 2.157793045043945 8.362812042236328 L 5.84807014465332 12.00207996368408 L 6.224379539489746 12.37318992614746 L 6.129730224609375 12.89317989349365 L 5.190911293029785 18.05073165893555 L 9.49899959564209 15.55683994293213 L 10 15.26681995391846 L 10.50100040435791 15.55683994293213 L 14.80908870697021 18.05073165893555 L 13.87026977539063 12.89317989349365 L 13.77561950683594 12.37318992614746 L 14.15192985534668 12.00207996368408 L 17.84220695495605 8.362812042236328 L 12.86895942687988 7.705470085144043 L 12.31497001647949 7.632240295410156 L 12.08699989318848 7.122039794921875 L 10 2.451271057128906 M 10 0 L 13 6.714090347290039 L 20 7.639320373535156 L 14.85410022735596 12.71409034729004 L 16.18033981323242 20 L 10 16.42229080200195 L 3.819660186767578 20 L 5.145899772644043 12.71409034729004 L 0 7.639320373535156 L 7 6.714090347290039 L 10 0 Z" stroke="none" fill="#ffc400"/></g></svg>