<svg xmlns="http://www.w3.org/2000/svg" width="250" height="167" viewBox="0 0 250 167"><g transform="translate(-138 -1688)"><path d="M15,0H235a15,15,0,0,1,15,15V167a0,0,0,0,1,0,0H0a0,0,0,0,1,0,0V15A15,15,0,0,1,15,0Z" transform="translate(138 1688)" fill="#fff"/><g transform="translate(-70.403 1548.659)"><g transform="translate(244.835 198.865)"><path d="M333.862,275.392H418.6a4.29,4.29,0,0,0,4.29-4.29V221.546A4.889,4.889,0,0,0,418,216.657H249.724a4.889,4.889,0,0,0-4.889,4.889V271.1a4.29,4.29,0,0,0,4.29,4.29Z" transform="translate(-244.835 -216.657)" fill="#a6d0dd"/></g><g transform="translate(244.835 253.31)"><path d="M418.6,560.459H249.125a4.29,4.29,0,0,1-4.29-4.29v2.551a4.338,4.338,0,0,0,4.339,4.338H418.55a4.338,4.338,0,0,0,4.339-4.338v-2.551A4.29,4.29,0,0,1,418.6,560.459Z" transform="translate(-244.835 -556.169)" fill="#87abb5"/></g><path d="M6.053,0H143.914a6.053,6.053,0,0,1,6.053,6.053V11.3a0,0,0,0,1,0,0H0a0,0,0,0,1,0,0V6.053A6.053,6.053,0,0,1,6.053,0Z" transform="translate(258.878 248.9)" fill="#7aa0ac"/><g transform="translate(247.449 195.467)"><path d="M266.023,195.467a4.888,4.888,0,0,0-4.888,4.888v38.294a2.159,2.159,0,0,0,2.158,2.158h63.26l41.99-45.34Z" transform="translate(-261.135 -195.467)" fill="#c6e2eb"/><path d="M776.485,200.355a4.888,4.888,0,0,0-4.888-4.888h-60.53l-41.99,45.34h105.25a2.159,2.159,0,0,0,2.158-2.158Z" transform="translate(-603.659 -195.467)" fill="#a6d0dd"/></g><g transform="translate(411.05 251.514)"><path d="M1281.932,544.972a.593.593,0,0,0-.594.593V547.6a.594.594,0,0,0,.594.594h1.968l3.229-3.225Z" transform="translate(-1281.339 -544.972)" fill="#b3d8e3"/><path d="M1302.507,544.972h-1.968l-3.229,3.225h5.2a.594.594,0,0,0,.594-.594v-2.038A.594.594,0,0,0,1302.507,544.972Z" transform="translate(-1294.75 -544.972)" fill="#89b4c1"/></g><g transform="translate(247.449 238.025)"><path d="M431.8,463.638H263.293a2.159,2.159,0,0,1-2.158-2.159v-.624h0v2.7a2.5,2.5,0,0,0,2.5,2.5H431.457a2.5,2.5,0,0,0,2.5-2.5V461.48A2.159,2.159,0,0,1,431.8,463.638Z" transform="translate(-261.135 -460.856)" fill="#87abb5"/></g><g transform="translate(260.447 250.469)"><path d="M489.019,539.423a.971.971,0,0,0-.971-.971H343.159a.971.971,0,0,0-.971.971v8.76H489.019Z" transform="translate(-342.188 -538.452)" fill="#89b4c1"/></g><g transform="translate(258.301 259.331)"><path d="M404.37,593.715h73.415l2.145,4.723H328.809l2.145-4.723Z" transform="translate(-328.809 -593.715)" fill="#c6e2eb"/><path d="M479.331,623.767H329.409a.6.6,0,0,1-.6-.6H479.931A.6.6,0,0,1,479.331,623.767Z" transform="translate(-328.809 -618.444)" fill="#e5dfdc"/></g><g transform="translate(258.301 252.277)"><path d="M404.37,549.731h73.415l2.145,4.723H328.809l2.145-4.723Z" transform="translate(-328.809 -549.731)" fill="#c6e2eb"/><path d="M479.331,579.783H329.409a.6.6,0,0,1-.6-.6H479.931A.6.6,0,0,1,479.331,579.783Z" transform="translate(-328.809 -574.46)" fill="#e5dfdc"/></g></g></g></svg>