<svg xmlns="http://www.w3.org/2000/svg" xmlns:xlink="http://www.w3.org/1999/xlink" width="167" height="167" viewBox="0 0 167 167"><defs><clipPath id="a"><circle cx="83.5" cy="83.5" r="83.5" transform="translate(0 0.29)" fill="#f7f3e5"/></clipPath></defs><g transform="translate(-232 -3793.29)"><circle cx="83.5" cy="83.5" r="83.5" transform="translate(232 3793.29)" fill="#f7f3e5"/><g transform="translate(232 3793)" clip-path="url(#a)"><g transform="translate(-564.014 -182.232)"><g transform="translate(623.612 207.562)"><path d="M855.009,215.006H835.865v42.507l19.193-19.139Z" transform="translate(-806.812 -215.006)" fill="#8d8d8d"/><path d="M835.865,403.319v8.56h19.145l.049-27.7Z" transform="translate(-806.812 -360.811)" fill="#767676"/><path d="M781.908,534.711V526.7l-8.012,8.012Z" transform="translate(-753.404 -483.643)" fill="#767676"/><path d="M625.563,215.006v51.067h20.49l8.012-8.012V215.006Z" transform="translate(-625.56 -215.006)" fill="#8d8d8d"/><path d="M625.541,622.042l17.792-17.792H625.541Z" transform="translate(-625.541 -550.481)" fill="#8d8d8d"/><path d="M625.541,626h28.5V604.249H643.333l-17.792,17.792Z" transform="translate(-625.541 -550.481)" fill="#767676"/></g><rect width="2.701" height="48.198" transform="translate(671.81 258.629) rotate(90)" fill="#646464"/><rect width="0.548" height="23.946" transform="translate(652.117 259.133)" fill="#585858"/><rect width="0.548" height="50.833" transform="translate(652.117 207.797)" fill="#585858"/><rect width="2.875" height="19.145" transform="translate(671.81 270.765) rotate(90)" fill="#646464"/><rect width="2.701" height="48.198" transform="translate(671.81 283.078) rotate(90)" fill="#646464"/><rect width="19.145" height="9.435" transform="translate(652.665 261.33)" fill="#767676"/><rect width="19.145" height="9.439" transform="translate(652.665 273.64)" fill="#767676"/><path d="M0,0H0A2.344,2.344,0,0,1,2.344,2.344V45.853A2.344,2.344,0,0,1,0,48.2H0a0,0,0,0,1,0,0V0A0,0,0,0,1,0,0Z" transform="translate(671.81 311.148) rotate(90)" fill="#545454"/><path d="M0,0H0A1.193,1.193,0,0,1,1.193,1.193V47A1.193,1.193,0,0,1,0,48.2H0a0,0,0,0,1,0,0V0A0,0,0,0,1,0,0Z" transform="translate(623.612 207.562) rotate(-90)" fill="#717171"/><g transform="translate(624.945 312.614)"><path d="M0,0H0A2.051,2.051,0,0,1,2.051,2.051V3.9a.815.815,0,0,1-.815.815H0a0,0,0,0,1,0,0V0A0,0,0,0,1,0,0Z" transform="translate(4.714 0) rotate(90)" fill="#585858"/><path d="M0,0H0A2.051,2.051,0,0,1,2.051,2.051V3.9a.815.815,0,0,1-.815.815H0a0,0,0,0,1,0,0V0A0,0,0,0,1,0,0Z" transform="translate(45.53 0) rotate(90)" fill="#585858"/></g><rect width="24.866" height="48.198" transform="translate(671.81 285.779) rotate(90)" fill="#767676"/><rect width="0.908" height="48.816" rx="0.454" transform="translate(672.119 285.779) rotate(90)" fill="#4f4f4f"/><rect width="0.908" height="19.728" rx="0.454" transform="translate(672.119 261.33) rotate(90)" fill="#4f4f4f"/><rect width="0.908" height="19.728" rx="0.454" transform="translate(672.119 273.56) rotate(90)" fill="#4f4f4f"/><path d="M.444,0h0A.464.464,0,0,1,.908.464v28.18a.444.444,0,0,1-.444.444H.444A.444.444,0,0,1,0,28.644V.444A.444.444,0,0,1,.444,0Z" transform="translate(652.391 261.33) rotate(90)" fill="#4f4f4f"/><rect width="48.198" height="0.503" transform="translate(623.612 258.629)" fill="#585858"/><rect width="48.198" height="0.503" transform="translate(623.612 283.078)" fill="#585858"/><rect width="48.198" height="0.503" transform="translate(623.612 310.645)" fill="#585858"/><rect width="19.145" height="0.503" transform="translate(652.665 270.765)" fill="#585858"/><rect width="28.505" height="0.235" transform="translate(623.612 262.238)" fill="#404040"/><rect width="48.198" height="0.235" transform="translate(623.612 286.687)" fill="#404040"/><rect width="19.145" height="0.235" transform="translate(652.665 262.238)" fill="#404040"/><rect width="48.198" height="0.235" transform="translate(623.612 207.562)" fill="#404040"/><rect width="19.145" height="0.235" transform="translate(652.665 274.468)" fill="#404040"/></g><g transform="translate(62.749 49.271)"><rect width="22.238" height="10.999" transform="translate(0.102 0.102)" fill="#fff"/><path d="M632.194-979.81H609.753v-11.2h22.441Zm-22.238-.2h22.034v-10.8H609.957Z" transform="translate(-609.753 991.013)" fill="#bfbfbf"/><g transform="translate(2.019 1.757)"><rect width="9.315" height="4.543" rx="2.272" transform="translate(0 0)" fill="#e3e3e3"/></g><g transform="translate(2.076 8.636)"><path d="M650.834-821.36h17.248c.233,0,.466,0,.7,0h.031c.157,0,.307.048.3.105s-.132.105-.3.105H651.564c-.233,0-.466,0-.7,0h-.031c-.157,0-.307-.048-.3-.105s.132-.105.3-.105Z" transform="translate(-650.534 821.36)" fill="#12a58e"/></g><g transform="translate(2.076 9.297)"><path d="M650.834-808.359h17.248c.233,0,.466,0,.7,0h.031c.157,0,.307.048.3.105s-.132.105-.3.105H651.564c-.233,0-.466,0-.7,0h-.031c-.157,0-.307-.048-.3-.105s.132-.105.3-.105Z" transform="translate(-650.534 808.36)" fill="#12a58e"/></g><g transform="translate(2.076 7.974)"><path d="M650.834-834.36h17.248c.233,0,.466,0,.7,0h.031c.157,0,.307.048.3.105s-.132.105-.3.105H651.564c-.233,0-.466,0-.7,0h-.031c-.157,0-.307-.048-.3-.105s.132-.105.3-.105Z" transform="translate(-650.534 834.36)" fill="#12a58e"/></g><g transform="translate(14.174 2.068)"><rect width="5.874" height="0.88" transform="translate(0)" fill="#12a58e"/><rect width="5.874" height="0.88" transform="translate(0 1.036)" fill="#12a58e"/></g></g><line x2="6.132" y2="4.906" transform="translate(48.368 45.014)" fill="none" stroke="#e6a251" stroke-linecap="round" stroke-width="1"/><line x2="6.133" y2="4.906" transform="matrix(0.946, -0.326, 0.326, 0.946, 45.283, 50.415)" fill="none" stroke="#e6a251" stroke-linecap="round" stroke-width="1"/><line x2="6.132" y2="4.906" transform="matrix(0.819, -0.574, 0.574, 0.819, 43.836, 56.029)" fill="none" stroke="#e6a251" stroke-linecap="round" stroke-width="1"/></g></g></svg>