<svg xmlns="http://www.w3.org/2000/svg" xmlns:xlink="http://www.w3.org/1999/xlink" width="167" height="167" viewBox="0 0 167 167"><defs><clipPath id="a"><circle cx="83.5" cy="83.5" r="83.5" transform="translate(0 -0.193)" fill="#f3f3f3"/></clipPath></defs><g transform="translate(-232 -3792.807)"><circle cx="83.5" cy="83.5" r="83.5" transform="translate(232 3792.807)" fill="#f7f3e5"/><g transform="translate(232 3793)" clip-path="url(#a)"><g transform="translate(5.683 23.154)"><g transform="translate(0 0)"><path d="M393.712,818.159c-.91,5.421-13.585,14.259-17.252,15.367-11.983,3.62-11.493-7.771-10.582-13.192a62.7,62.7,0,0,1,2.174-6.235c2.157-4.822,6.854-7.9,10.728-7.248C383.391,807.625,394.622,812.739,393.712,818.159Z" transform="translate(-365.461 -657.165)" fill="#ec8275"/><path d="M557.532,174.4c.9-6.467,2.932-12.5,7.7-17.7,3.628-3.958,7.428-8.249,12.52-10.315,11.049-4.483,23.278-2.143,33.182,3.987a18.625,18.625,0,0,1,9.023,13.29c1.347,7.016,1.167,14.126.868,21.227-.267,6.324-1.1,12.55-1.91,18.795a65.488,65.488,0,0,0,.265,16.834c.775,5.335,2.107,10.383,1.93,15.871-.132,4.068-1.815,8.791-5.087,11.367a11.938,11.938,0,0,1-4.927,2.391c-1.743.37-3.734-.168-5.391.241a2.131,2.131,0,0,0,1.749-1.432c-.954-.813-2.042.256-3.063.535a4,4,0,0,0,2.515-4.238,22.053,22.053,0,0,1-5.975,3.049c-3.241,1.134-6.563,1.97-9.835,3.012-.549.176-1.389.781-1.847.9-7.2,1.831-15.16-1.841-20.475-6.342-2.684-2.273-2.24-4.275-2.761-7.3-3.19,2.785-2.974,4.337-1.791,7.748a.373.373,0,0,0-.452.059,3.233,3.233,0,0,0,3.251,1.3c-3.18,1.7-7.515-1.232-9.365-3.822a27.043,27.043,0,0,1-4.449-9.734c-1.11-5.69.415-10.854,1.349-16.32a112.158,112.158,0,0,0,1.835-19.044c-.01-5.059.313-10.155.46-15.22A84.461,84.461,0,0,1,557.532,174.4Z" transform="translate(-510.527 -144.053)" fill="#4d3839"/><path d="M619.045,1172.7l-1.762-33.357-75.332-.974-1.724,34.6Z" transform="translate(-500.775 -913.916)" fill="#0d0002"/><path d="M457.154,594.878c-.035.082-2.033.314-2.2.354-5.067,1.273-12.777,5.117-16.016,9.326a85.668,85.668,0,0,0-5.859,8.888c-4.194,7.065-9.579,13.524-14.361,20.212-1.673,2.341-4.171,5.432-5.092,8.225-1.282,3.886,2.018,7.5-1.165,10.533,2.614,2.041,6.3,1.989,8.95,3.937,1.869,1.377,3.52,3.937,4.914,5.723,1.506-.88,1.43-2.494,2.429-3.331,1.519-1.272,3.613-1.3,5.291-2.224a13.06,13.06,0,0,0,4.245-4.183c2.45-3.481,3.759-7.6,5.521-11.44a121.6,121.6,0,0,0,4.322-12.1,180.417,180.417,0,0,0,5.135-17.955C454.512,605.309,454.934,600.1,457.154,594.878Z" transform="translate(-401.853 -493.109)" fill="#6e59a0"/><path d="M656.616,476.085l15.192-.313s-.965-.343-4.927-4.075-5.834-30.086-5.834-30.086h-4.9v.051l0-.051h-4.9s-1.865,26.357-5.83,30.086l-3.966,3.732,14.23.656v.043l.466-.021.465.021Z" transform="translate(-579.153 -374.44)" fill="#edbf98"/><path d="M607.4,695.358,597.14,636.472s7.091-51.6,7.141-51.963c.025-.174-.9-.921-1.013-1.04l-2.487-2.545c-2.573-2.633-4.891-5.748-8.23-7.406-1.945-.966-2.955-2.568-3.827-4.6-.674-1.569-2.233-3.789-4.111-3.961a11.185,11.185,0,0,0-2.418.211c-1.215.147-2.415.6-3.642.631a21.141,21.141,0,0,0-2.531.081c-2.414.338-4.836.178-7.268.274a92.923,92.923,0,0,1-12.347.122c-1.73-.161-3.4-.817-5.133-.9-2.594-.117-2.964,1.97-3.476,3.864-1.05,3.9-4.351,5.881-7.309,8.3l-4.009,3.276a9.451,9.451,0,0,0-1.637,1.339l-5.456,7.388,10.672,53.671-8,51.169Z" transform="translate(-492.383 -469.927)" fill="#6e59a0"/><rect width="59.456" height="79.407" transform="translate(36.315 198.65) rotate(-45.767)" fill="#00a7bd"/><g transform="translate(50.236 156.049)"><rect width="42.3" height="12.66" transform="translate(0 44.183) rotate(-45.766)" fill="#fff"/><path d="M756.669,890.726l-3,3.082-56.895-55.391,3-3.085Z" transform="translate(-672.22 -835.333)" fill="#fcb046"/></g><path d="M723.62,1003.933l-37.8,27.521a5.536,5.536,0,0,1-2,.544,10.391,10.391,0,0,1-1.741.15c-1.047,0-2.087-.149-3.134-.181a14.932,14.932,0,0,0-4.294.495,15.9,15.9,0,0,0-2.041.7c-.614.258-1.065.636-1.657.91a10.2,10.2,0,0,1-5.064,1.152c-1.418-.136-2.84-.326-4.257-.473-.48-.049-1.368-.252-1.55.323-.26.823.933,1.576,1.466,1.971a10.611,10.611,0,0,0,4.282,1.573,8.722,8.722,0,0,0,4.069.151c.018.192-.06.266-.13.452a24.3,24.3,0,0,1-1.173,2.631c-.237.452-.52.882-.754,1.335-.156.3-.266.8-.607.948-.357.157-1.135-1.179-1.4-1.4a3.193,3.193,0,0,0-1.876-.963c.55,2.027-.224,5.3-.857,7.287-.342,1.076-.74,2.615-.166,3.674.886,1.631,3.25.98,4.535.274-.251.137-.583,1.294-.68,1.583a1.531,1.531,0,0,0,.179,1.638c.75.862,2.764.434,3.524-.223-.2.787-1.665,3.345-.813,3.9.468.3,1.685-.115,2.545-.554a4.463,4.463,0,0,0,.786-.485c-.049.052-.115.157-.18.229a3.742,3.742,0,0,0,3.5,2.054c1.859-.368,3.918-3.119,4.823-4.674,1.205-2.071,2.24-4.19,3.538-6.2.747-1.161,6.692-12.387,6.692-12.387l37.977-24.3Zm-47.091,54.488c-.606.351-1.72-.121-2.393-.2.466-.966,1.958-2.3,3.117-2.277C677.332,1056.692,677.285,1057.981,676.528,1058.421Z" transform="translate(-593.541 -809.825)" fill="#ec8275"/><path d="M897.328,917.311l5.258,24.386,12.782-1.069-4.931-24.852Z" transform="translate(-777.265 -741.568)" fill="#ec8275"/><path d="M932.252,1000.94a6.723,6.723,0,0,1-6.728,6.9c-4.159,0-6.391-3.739-6.391-7.232s1.453-6.357,5.611-6.357S932.252,997.447,932.252,1000.94Z" transform="translate(-794.148 -802.325)" fill="#ec8275"/><path d="M802.447,601.026s7.864,0,18.368,18.276a33.7,33.7,0,0,0,2.851,4.353c3.439,4.316,5.817,9.263,8.492,14.068,3.739,6.72,7.973,13.585,8.582,21.424a36.382,36.382,0,0,1-.134,6.918c-.311,2.559-2.448,4.624-2.114,7.323.168,1.357.755,2.316.742,3.78-1.4.72-4.027.93-5.62,1.106a61.444,61.444,0,0,1-7.324.382c-.57-.005-1.771.189-2.186-.323-1.176-1.446.446-3.3-1.247-4.588-1.721-1.309-4.145-.945-5.642-2.771-1.47-1.791-1.668-4.4-2.173-6.575-.91-3.912-1.642-7.886-2.359-11.849a57.343,57.343,0,0,0-1.724-7.187c-.578-1.827-1.484-3.4-1.378-5.357a17.74,17.74,0,0,0,.087-3.359C808.22,624.9,804.227,612.731,802.447,601.026Z" transform="translate(-703.802 -497.87)" fill="#6e59a0"/><path d="M675.771,1186.149a.521.521,0,0,1-.412-.841l2.661-3.421a.521.521,0,1,1,.823.64l-2.66,3.42A.52.52,0,0,1,675.771,1186.149Z" transform="translate(-605.319 -947.452)" fill="#cb6362"/><path d="M690.907,1213.209a.522.522,0,0,1-.368-.891l1.777-1.769a.522.522,0,1,1,.736.74l-1.777,1.769A.526.526,0,0,1,690.907,1213.209Z" transform="translate(-617.037 -969.682)" fill="#cb6362"/><path d="M705.184,1226.441a.521.521,0,0,1-.368-.891l1.777-1.769a.522.522,0,0,1,.737.74l-1.778,1.768A.518.518,0,0,1,705.184,1226.441Z" transform="translate(-628.092 -979.927)" fill="#cb6362"/><path d="M547.63,708.37a.783.783,0,0,1-.763-.613l-.312-1.4a.789.789,0,0,1,.015-.4l7.126-23.693a.782.782,0,1,1,1.5.451l-7.067,23.5.267,1.2a.782.782,0,0,1-.594.933A.762.762,0,0,1,547.63,708.37Z" transform="translate(-505.661 -560.34)" fill="#514177"/><path d="M835.853,731.411a.783.783,0,0,1-.777-.7c-.059-.549-1.43-13.5-.885-16.778a.782.782,0,1,1,1.543.257c-.512,3.065.883,16.223.9,16.356a.784.784,0,0,1-.694.861C835.908,731.409,835.881,731.411,835.853,731.411Z" transform="translate(-728.282 -584.782)" fill="#514177"/></g><path d="M521.2,394.307a2.4,2.4,0,0,0,.172.233c3.713,4.481,8.751-3.857,8.858-6.878.094-2.7-.859-5.277-.905-7.96a62.607,62.607,0,0,1,.336-11.246c.183-1.131.815-2.148,1.012-3.232.3-1.662-1.5-1.424-2.453-.564-1.747,1.564-2.43,3.754-3.18,5.954a43.391,43.391,0,0,0-2.057-4.287c-.551-.988-1.841-2.507-2.049-3.585-.049-.266.15-.77.127-1.094a8.707,8.707,0,0,0-.858-2.367c-.494-1.136-.981-2.477-2.211-1.622-1.821,1.263-2.711,4.979-3.32,7.042-.7,2.411-1.385,5.413-.818,7.932.613,2.714,2.187,5.179,3,7.86.7,2.3,1.95,4.11,2.714,6.331a29.61,29.61,0,0,1,.691,4.013A10.381,10.381,0,0,0,521.2,394.307Z" transform="translate(-480.191 -309.231)" fill="#edbf98"/><path d="M540.6,287.957l-1.537,24.232.408,1.193S546.791,326.026,547.2,326a2.462,2.462,0,0,0,1.02-.577l2.538-30.936-7.982-8.042-1.743.408Z" transform="translate(-499.872 -254.304)" fill="#b4b6c8"/><path d="M546.588,287.2l-1.194,24.443.406,1.187s6.982,12.435,7.388,12.413a2.455,2.455,0,0,0,1.027-.575L555.94,294.4l-8.176-7.947Z" transform="translate(-504.776 -254.31)" fill="#dcdce2"/><path d="M558.527,329.7l-6.544-10.187,1.173-22.47L560,303.6Z" transform="translate(-509.877 -262.503)" fill="#53a2c7"/><path d="M419.387,373.834a19.257,19.257,0,0,0-1.895,5.95c-.073.672-28.837,71.5-29.014,72.154-1.163.14-13.146-5.852-13.146-5.852s33.822-69.02,33.976-69.376q.938-2.131,1.684-4.361a2.994,2.994,0,0,0,.074-2.586c-.705-1.835-5.871-19.191-5.891-21.522-.01-1.273,0-2.568-.135-3.822-.19-1.795-.466-2.2.392-3.79.8-1.485,1.624-2.949,2.478-4.4a7.277,7.277,0,0,1,3.308-2.7c1.433-.711,2.852-1.464,4.294-2.19.725-.365,1.841-1.264,2.092-.264.245.975-1.105,2.029-1.73,2.643a31.484,31.484,0,0,1-4.19,2.912c1.209.891,3.351.574,4.786,1.256.34.162,4.414,2.755,4.082,2.968-2.146,1.379-4.141-.249-6.184-.558a7.632,7.632,0,0,0-3.436.818,10.454,10.454,0,0,1,4.709.916c.813.391,4.839,1.212,2.6,2-1.712.6-3.62-.363-5.3.3-1.513.59-2.8,2.309-2.459,3.863.322,1.481,1.989,2.658,2.99,3.749a26.159,26.159,0,0,1,3.647,4.838C418.019,358.395,420.26,371.844,419.387,373.834Z" transform="translate(-373.104 -288.499)" fill="#edbf98"/><path d="M541.767,416.456a.463.463,0,0,1-.42-.656c1.422-3.108,1.044-7.221-.985-10.733a20.721,20.721,0,0,0-2.457-3.178c-.6-.677-1.215-1.378-1.759-2.114a4.584,4.584,0,0,1-.749-3.42,1.82,1.82,0,0,1,1.047-1.254.463.463,0,0,1,.366.85.9.9,0,0,0-.521.644,3.661,3.661,0,0,0,.6,2.63c.522.7,1.126,1.389,1.711,2.053a21.433,21.433,0,0,1,2.563,3.325c2.177,3.768,2.57,8.206,1.025,11.582A.463.463,0,0,1,541.767,416.456Z" transform="translate(-496.964 -338.401)" fill="#cb6362"/><path d="M512.605,380.975a.453.453,0,0,1-.222-.057.462.462,0,0,1-.183-.628,35.763,35.763,0,0,1,2.458-3.837l.113-.155c.868-1.2,1.269-1.754,3.073-1.715a.462.462,0,0,1,.452.472.473.473,0,0,1-.472.454c-1.321-.028-1.492.205-2.3,1.329l-.114.159a34.854,34.854,0,0,0-2.4,3.738A.461.461,0,0,1,512.605,380.975Z" transform="translate(-479.032 -322.541)" fill="#cb6362"/><path d="M511.312,360.274a.468.468,0,0,1-.211-.051.462.462,0,0,1-.2-.623,17.973,17.973,0,0,1,2.353-2.941c.273-.3.534-.591.757-.847a3.051,3.051,0,0,1,2.13-1.193,6.445,6.445,0,0,0,1.115-.273.462.462,0,0,1,.305.872,7.353,7.353,0,0,1-1.261.312,2.165,2.165,0,0,0-1.593.891c-.226.259-.491.551-.769.859a18.123,18.123,0,0,0-2.215,2.742A.465.465,0,0,1,511.312,360.274Z" transform="translate(-478.03 -306.854)" fill="#cb6362"/><path d="M809.465,406.081a5.7,5.7,0,0,0,.009-1.378c-.021-.207-.5-2.743.42-2.1.3.211.208.526.242.821.04.349.162.69.2,1.045a5.378,5.378,0,0,1-.7,3.324,6.853,6.853,0,0,0-1.141,2.457,3.129,3.129,0,0,0,.191,2.251c.125.169.366.405.325.436a4.412,4.412,0,0,0-.531.563c-1.862-1.032-.874-3.465-.117-4.871a11.129,11.129,0,0,0,.853-1.557A5.091,5.091,0,0,0,809.465,406.081Z" transform="translate(-707.648 -344.161)" fill="#885322"/><path d="M573.895,197.449a68.866,68.866,0,0,1-3.152-13.021c-.9-6.923,2.045-14.1,5.666-19.934,4.919-7.922,12.045-14.6,21.762-15.584,3.863-.391,8.072-1.119,11.822.272,1.581.587,2.784,1.84,4.368,2.386,1.16.4,2.413.381,3.558.814a24.782,24.782,0,0,1,10.8,8.3,25.641,25.641,0,0,1,3.449,5.955c.8,2.048.868,4.843,1.107,7.058a33.391,33.391,0,0,1-.222,7.226c-.257,2.329-.089,4.766-.77,7.014-1.944,6.42-6.553,11.839-11.087,16.664-4.425,4.71-10.4,9.044-17.021,9.855a42.089,42.089,0,0,1-8.7.179,38.944,38.944,0,0,1-13.043-3.014c-3.74-1.73-5.431-5.194-6.71-8.854C575.085,200.944,574.47,199.188,573.895,197.449Z" transform="translate(-524.276 -147.393)" fill="#4d3839"/><path d="M632.717,241.7a26.113,26.113,0,0,1-27.94,23.621c-14.429-1.019-25.338-13.246-24.339-27.3.413-5.89,2.115-17.917,5.861-21.987,5.2-5.652,21.2-10.712,29.6-10.12C630.338,206.916,635.92,208.69,632.717,241.7Z" transform="translate(-531.86 -191.91)" fill="#edbf98"/><path d="M808.037,343.852a8.3,8.3,0,1,1-7.7-8.871A8.3,8.3,0,0,1,808.037,343.852Z" transform="translate(-695.295 -291.865)" fill="#edbf98"/><path d="M610.5,207.431a37.181,37.181,0,0,1,.388,9.689,19.533,19.533,0,0,1-.478,3.548,3.024,3.024,0,0,1,.586-.847,38.813,38.813,0,0,0,3.476-6.334,21.385,21.385,0,0,0,1.889-5.045,22.172,22.172,0,0,0,.872-5.244c-.084-4.36-1.884-7.891-2.827-12.016-1.823-7.981-9.121-13.564-16.6-15.728a38.708,38.708,0,0,0-9.157-1.465,21.6,21.6,0,0,0-3.548-.23c-1.28.152-2.505.614-3.782.8a12.327,12.327,0,0,0-4.356.984,30.049,30.049,0,0,0-8.866,7.394c-.954,1.112-2.167,1.982-3.06,3.136-.941,1.216-1.777,2.568-2.6,3.866a22.523,22.523,0,0,0-3.523,8.074c-.464,2.867-1.712,5.591-2.123,8.511a12.651,12.651,0,0,1-1.233,3.581c-.251.543-1.39,3.56-2,3.633,5.344-.638,9.612-5.837,13.268-9.2A76.1,76.1,0,0,1,579,195.656c4.238-2.564,8.891-4.458,13.2-6.965,1.312-.764,2.543-1.656,3.784-2.529a19.785,19.785,0,0,1,2.314-1.768c1.277-.638,1.379.219,2.179,1.286a80.635,80.635,0,0,1,4.593,7.214A42.49,42.49,0,0,1,610.5,207.431Z" transform="translate(-511.097 -167.025)" fill="#4d3839"/><path d="M629.525,312.727a2.629,2.629,0,0,1-1.571,3.206,2.31,2.31,0,0,1-2.963-1.641,2.627,2.627,0,0,1,1.583-3.2A2.309,2.309,0,0,1,629.525,312.727Z" transform="translate(-566.326 -273.288)" fill="#0d0002"/><path d="M719.732,320.483a2.63,2.63,0,0,1-1.572,3.207,2.316,2.316,0,0,1-2.966-1.641,2.634,2.634,0,0,1,1.585-3.2A2.311,2.311,0,0,1,719.732,320.483Z" transform="translate(-636.169 -279.294)" fill="#0d0002"/><path d="M669.995,337.658a.61.61,0,0,1-.427-.234c-.2-.253-.427-.5-.648-.734a3.771,3.771,0,0,1-1.4-3.136,24.85,24.85,0,0,1,2.108-5.072c.485-1,.94-1.952,1.091-2.375a.616.616,0,0,1,1.161.412c-.172.486-.622,1.418-1.142,2.5a29,29,0,0,0-1.995,4.687c-.1.839.321,1.338,1.075,2.145.239.257.485.52.716.817a.615.615,0,0,1-.541.992Z" transform="translate(-599.318 -284.693)" fill="#0d0002"/><path d="M646.307,389.38c-.343-.031-.681-.08-1.009-.143-3.739-.727-7.788-3.7-7.936-9.859a.8.8,0,0,1,1.606-.039c.126,5.209,3.51,7.714,6.637,8.321a9.569,9.569,0,0,0,10.6-5.754.8.8,0,1,1,1.475.637A11.156,11.156,0,0,1,646.307,389.38Z" transform="translate(-575.984 -325.619)" fill="#c1143a"/><path d="M757.371,355.431a3.006,3.006,0,1,1-2.716-3.27A3,3,0,0,1,757.371,355.431Z" transform="translate(-664.257 -305.173)" fill="#e9706e"/><path d="M598.721,340.667a3.005,3.005,0,1,1-2.715-3.27A3,3,0,0,1,598.721,340.667Z" transform="translate(-541.421 -293.742)" fill="#e9706e"/><path d="M754.452,357.9a.567.567,0,0,1-.376-.19c-.7-.78-1.8-2.191-1.42-2.876a.955.955,0,0,1,.6-.458c.7-.19,1.686.264,2.958,1.006l.179.1.131.071c-.021-.036-.045-.073-.069-.112-.051-.084-.108-.18-.17-.285-.314-.525-.975-1.631-1.476-1.648a.584.584,0,0,1-.54-.609.576.576,0,0,1,.608-.542l.051,0c1.093.1,1.845,1.366,2.346,2.2.059.1.112.189.162.269.413.67.815,1.425.348,1.915s-1.25.123-1.947-.26c-.051-.027-.121-.067-.206-.117a8.7,8.7,0,0,0-1.733-.845,12.177,12.177,0,0,0,1.039,1.411.576.576,0,0,1-.484.956Z" transform="translate(-665.19 -305.338)" fill="#e55a65"/><path d="M596.918,343.239a.568.568,0,0,1-.374-.187c-.439-.486-1.84-2.13-1.429-2.875a.966.966,0,0,1,.6-.462c.7-.19,1.686.265,2.955,1l.185.106.128.069-.067-.109c-.051-.084-.106-.176-.167-.277-.31-.524-.954-1.609-1.465-1.656l-.033,0a.576.576,0,0,1,.088-1.148c1.125.066,1.891,1.361,2.4,2.218l.155.259c.414.668.817,1.423.351,1.914s-1.25.125-1.947-.26c-.051-.027-.122-.069-.208-.12a8.644,8.644,0,0,0-1.732-.842,11.685,11.685,0,0,0,1.04,1.408.575.575,0,0,1-.042.813A.567.567,0,0,1,596.918,343.239Z" transform="translate(-543.215 -293.987)" fill="#e55a65"/><path d="M694.391,468.13l-6.192.365a.752.752,0,0,1-.088-1.5l6.193-.365a.751.751,0,1,1,.088,1.5Z" transform="translate(-614.729 -393.811)" fill="#c16b61"/><path d="M801.679,400.135a1.466,1.466,0,0,1,.363-.35c.376-.247.865-.337.743-.953-.158-.8-.977-.016-1.249.274a4.519,4.519,0,0,0-1.205,2,9.634,9.634,0,0,0-.184,3.729,6.738,6.738,0,0,1,0,2.059,2.446,2.446,0,0,1-.887,1.21,2.523,2.523,0,0,1-1.26.448c.144.2.051.581.2.733.377.386,1.8-.638,2.035-.945a3.622,3.622,0,0,0,.614-2.4,28.211,28.211,0,0,1-.223-3.6,2.651,2.651,0,0,1,.538-1.342C801.35,400.707,801.481,400.4,801.679,400.135Z" transform="translate(-700.362 -341.048)" fill="#b76f2f"/></g></g></g></svg>