<svg xmlns="http://www.w3.org/2000/svg" width="250" height="167" viewBox="0 0 250 167"><g transform="translate(-138 -1688)"><path d="M15,0H235a15,15,0,0,1,15,15V167a0,0,0,0,1,0,0H0a0,0,0,0,1,0,0V15A15,15,0,0,1,15,0Z" transform="translate(138 1688)" fill="#fff"/><g transform="translate(225.219 1687.527)"><g transform="translate(0 18.473)"><rect width="75.703" height="5.608" transform="translate(5.283 125.587)" fill="#ceb5a2"/><rect width="85.594" height="120.995" transform="translate(0 8.295)" fill="#f0ddce"/><path d="M2619.756,1409.355h-85.593l6.105-8.295h72.548Z" transform="translate(-2534.163 -1401.06)" fill="#efe3db"/></g><g transform="translate(9.735 34.171)"><path d="M2593.136,1508.969a33.062,33.062,0,1,1,33.063-33.062A33.1,33.1,0,0,1,2593.136,1508.969Z" transform="translate(-2560.074 -1442.845)" fill="#8d7a71"/></g><rect width="20.561" height="29.44" transform="translate(57.976 112.284)" fill="#8d7a71"/><rect width="84.435" height="2.271" transform="translate(0.579 107.443)" fill="#8d7a71"/><rect width="15.771" height="6.659" transform="translate(64.985 30.389)" fill="#8d7a71"/><g transform="translate(13.041 37.477)"><path d="M2631.57,1481.4a29.753,29.753,0,0,0-57.6-10.491l38.332,38.332A29.8,29.8,0,0,0,2631.57,1481.4Z" transform="translate(-2572.057 -1451.645)" fill="#879999"/><path d="M2598.63,1543.171a29.6,29.6,0,0,0,10.492-1.916l-38.332-38.332a29.745,29.745,0,0,0,27.84,40.247Z" transform="translate(-2568.874 -1483.659)" fill="#afc9c8"/></g><rect width="7.009" height="12.15" transform="translate(70.593 61.158)" fill="#8d7a71"/></g><g transform="translate(192.72 1801.276)"><path d="M180.227,88.942V85.018a1.518,1.518,0,0,0-1.519-1.518H174.8a1.518,1.518,0,0,0-1.518,1.518V88.95c.027,0,.053-.008.08-.008Z" transform="translate(-166.153 -83.5)" fill="#5c9196"/><path d="M181.352,102.264c-3.113-2.264-4.785-5.081-7.318-6.229v-.821a.831.831,0,0,0-.831-.831h-6.97c-.027,0-.053.006-.08.008a.828.828,0,0,0-.751.823v.8c-4.264,1.378-6.38,5.479-6.38,10.761V122.8a4.419,4.419,0,0,0,4.419,4.419h13.68c2.178,0,4.231-.939,6.67-3C191.3,118.214,185.48,105.266,181.352,102.264Zm1.926,11.989a4.436,4.436,0,0,1-.936,2.716c-1.113,1.311-4.13.669-4.2-.88l-.491-11.013S183.65,108.017,183.278,114.253Z" transform="translate(-159.023 -88.941)" fill="#acdde2"/><path d="M166.1,113.818c-.531,2.388-1.5,13.323,0,15.574s9.757,2.815,11.634-.375c1.715-2.916-.092-14.728-2.064-16.7C173.046,109.69,166.853,110.441,166.1,113.818Z" transform="translate(-162.162 -97.118)" fill="#5c9196"/></g><g transform="translate(218.403 1825.03)"><path d="M214.947,147.31a1.015,1.015,0,0,0,1,.828h15.572a1.015,1.015,0,0,0,1-.828l2.08-11.09H212.867Zm2.121-8.979h13.325v7.448H217.067Z" transform="translate(-211.626 -133.613)" fill="#acdde2"/><path d="M1.217,0H22.99a1.218,1.218,0,0,1,1.218,1.218V1.39a1.217,1.217,0,0,1-1.217,1.217H1.217A1.217,1.217,0,0,1,0,1.39V1.217A1.217,1.217,0,0,1,1.217,0Z" transform="translate(-0.001 0)" fill="#5c9196"/><rect width="13.325" height="7.449" transform="translate(5.441 4.717)" fill="#f8fffe"/></g></g></svg>