<svg xmlns="http://www.w3.org/2000/svg" xmlns:xlink="http://www.w3.org/1999/xlink" width="167" height="167" viewBox="0 0 167 167"><defs><clipPath id="a"><circle cx="83.5" cy="83.5" r="83.5" transform="translate(0 0.095)" fill="#f7f3e5"/></clipPath></defs><g transform="translate(-232 -3793.095)"><circle cx="83.5" cy="83.5" r="83.5" transform="translate(232 3793.095)" fill="#f7f3e5"/><g transform="translate(232 3793)" clip-path="url(#a)"><g transform="translate(28.467 27.752)"><g transform="translate(0 0)"><path d="M3575.051,4465.352c0,.811-24.417,1.47-54.536,1.47s-54.536-.659-54.536-1.47,24.417-1.471,54.536-1.471S3575.051,4464.541,3575.051,4465.352Z" transform="translate(-3465.37 -4368.103)" fill="#b4b4b5"/><g transform="translate(75.325 89.819)"><path d="M3634.47,4463.95s-5.069.233-6.311.231-3.895.031-4.294-.368a2.153,2.153,0,0,1-.248-.308,2.21,2.21,0,0,0,.6,1.144c.4.4,2.7.366,3.939.368s6.311-.231,6.311-.231,2.795-.3,2.938-1.129a4.6,4.6,0,0,0,.06-.746C3636.99,4463.618,3634.47,4463.95,3634.47,4463.95Z" transform="translate(-3623.566 -4457.412)" fill="#dbdcdc"/><path d="M3630.221,4452.158a5.855,5.855,0,0,1-2.932,1.7c-2.373.8-2.88,1.009-3.512,2.127a1.87,1.87,0,0,0-.217,1.426,2.175,2.175,0,0,0,.248.308c.4.4,3.055.365,4.294.368s6.311-.231,6.311-.231,2.521-.331,3-1.039a24.286,24.286,0,0,0-.887-5.5C3635.253,4452.325,3632.125,4452.557,3630.221,4452.158Z" transform="translate(-3623.509 -4451.317)" fill="#f5f6f7"/></g><g transform="translate(80.105 92.889)"><path d="M3634.319,4460.212l-.73.473a3.617,3.617,0,0,1,.868,2.056c.262-.007.554-.018.857-.028A4.017,4.017,0,0,0,3634.319,4460.212Z" transform="translate(-3633.589 -4459.064)" fill="#00254d"/><path d="M3636.435,4458.623a7.3,7.3,0,0,1,1.211,2.786c.594-.021,1.2-.046,1.737-.07a7.767,7.767,0,0,0-1.4-3.547Z" transform="translate(-3635.085 -4457.791)" fill="#00254d"/></g><g transform="translate(99.325 83.272)"><path d="M3682.475,4440.331c-.13-.129-.254-.243-.376-.354a5.959,5.959,0,0,1,.042,3.28,52.82,52.82,0,0,1-1.711,5.536c-.562,1.116-1.6,3.086-2.148,3.253a2.284,2.284,0,0,1-1.9-.153,2.107,2.107,0,0,0,2.387.579c.544-.167,1.775-1.776,2.337-2.894a52.788,52.788,0,0,0,1.712-5.537S3683.514,4441.369,3682.475,4440.331Z" transform="translate(-3675.304 -4438.809)" fill="#dbdcdc"/><path d="M3680.906,4438.682a6.9,6.9,0,0,0-1.679-1.168c-.3,1.69-2.081,5.082-5.115,4.846a7.9,7.9,0,0,1,.569,3.225c-.179,2.548-.3,3.807.431,4.918.022.033.051.065.076.1a2.276,2.276,0,0,0,1.9.152c.544-.167,1.586-2.136,2.149-3.252a52.979,52.979,0,0,0,1.712-5.536A5.962,5.962,0,0,0,3680.906,4438.682Z" transform="translate(-3674.112 -4437.513)" fill="#f5f6f7"/></g><g transform="translate(74.056 46.377)"><path d="M3630.13,4378.872c-.362-4.353-.344-9.533-.8-11.921-.17-.888-.382-.216-.424-1.952a43.348,43.348,0,0,0,7.044-.5c6.86-1.374,7.315-3.577,7.315-3.577s.042.188.086.458a5.2,5.2,0,0,0-.422-1.654c-1.24,3.772-8.733,4.167-12.737,4.086-3.621-.071-5.4-.893-6.68-2.357a165.357,165.357,0,0,0-2.676,19.936c-.12,5.287,6.257,21.49,6.509,21.9.849,1.364,7.741,1.266,8.3-.862.494-1.869-5.045-15.229-5.226-17.592C3630.271,4382.871,3630.094,4380.583,3630.13,4378.872Z" transform="translate(-3620.835 -4359.724)" fill="#ccc6ac"/></g><path d="M3650.272,4385.661c-1.294-1.114,0-6.386.673-11.7.436-3.463,1.254-6.4,1.449-9.962a7.736,7.736,0,0,0-.182-1.756s-.456,2.2-7.316,3.578a43.357,43.357,0,0,1-7.044.5c.042,1.736.255,1.063.424,1.952.59,3.089.386,10.855,1.24,15.453.575,3.1,3.385,8.234,8.17,12.958,2.757,2.726,5.946,5.947,7.221,6.093,3.9.447,5.794-5.094,5.2-5.708C3658.618,4395.545,3653.535,4388.461,3650.272,4385.661Z" transform="translate(-3555.724 -4314.671)" fill="#e2dcc3"/><path d="M3622.581,4324.008c-1.48-9.63-2.26-16.263-6.371-24.238a4.768,4.768,0,0,0-.927-1.194,5.846,5.846,0,0,0-3.288-2.136,14.7,14.7,0,0,0-2.7-.93,11.208,11.208,0,0,0-2.147-.255,3.618,3.618,0,0,1-.592,1.754,8.7,8.7,0,0,1-2.686,1.695,3.183,3.183,0,0,1-1.681-2.306,5.923,5.923,0,0,1-1.567-.135c-.181-.04-.353-.093-.525-.145a10.865,10.865,0,0,0-3.641,2.14,7.138,7.138,0,0,0-2.217,3.4c-1.4,5.748-1.286,7.848-2.1,9.559-.939,1.948-6.143,5.181-10.239,7.021l1.927-.117c1.189.152,2.773,1.008,2.619,2.2l-.058,1.373a2.05,2.05,0,0,1-.477,1.02c3.836-1.742,9.832-4.4,11.214-7.272a17.865,17.865,0,0,0,.7-1.725c.5,1.375.858,2.648,1.17,3.852-.6.337-1.152.634-1.6.872,1.194.132,2.787.952,2.658,2.144l-.036,1.374a2.852,2.852,0,0,1-2.858,2.18l-1.124-.07a5.108,5.108,0,0,0,4.241-.31c.073-.041.231-.116.444-.215a16.4,16.4,0,0,0,.888,1.875c1.559,2.8,3,4.4,8.117,4.5C3614.3,4330.01,3623.424,4329.481,3622.581,4324.008Z" transform="translate(-3526.309 -4279.455)" fill="#00254d"/><path d="M3630.026,4295.708c-.561-1.232-1.525-1.278-1.5-1.54,0,.024,0,.052-.007.077-.017.19-.032.4-.06.618,0,.022,0,.044-.008.067-.009.063-.021.127-.032.193-.005.03-.01.056-.016.085-.013.064-.03.129-.048.195-.008.032-.015.064-.025.1-.019.064-.044.132-.068.2-.013.034-.022.068-.036.1-.028.071-.064.145-.1.216-.016.032-.028.064-.046.1a3.646,3.646,0,0,1-.191.323,8.7,8.7,0,0,1-2.686,1.694,3.182,3.182,0,0,1-1.681-2.3,5.933,5.933,0,0,1-.916-.032,7.809,7.809,0,0,0,.114,3.281c.258.867,1.279,4.15,2.234,4.256.368.041,3.592-3.443,4.184-4.468C3629.576,4298.109,3630.409,4296.552,3630.026,4295.708Z" transform="translate(-3547.642 -4278.884)" fill="#00254d"/><path d="M3623.784,4278.859c-.056-1.336-2.866-2.55-4.369-2.67-1.839-.15-3.615.545-5.255.2-1.081-.225-1.482-.948-2.521-1.565a9.312,9.312,0,0,0-.628,1.866c-.9,4.07.938,7.979,4.8,8.831a5.922,5.922,0,0,0,1.567.135,3.183,3.183,0,0,0,1.681,2.306,8.692,8.692,0,0,0,2.686-1.695,4.161,4.161,0,0,0,.632-2.2l-.389-1.224a12.526,12.526,0,0,0,1.624-3.365C3623.68,4279.268,3623.732,4279.064,3623.784,4278.859Z" transform="translate(-3541.496 -4268.715)" fill="#fbd6a0"/><path d="M3619.844,4267.367a5.7,5.7,0,0,0-4.057-4.918,7.42,7.42,0,0,0-6.848.712c-1.738,1.089-2.113,2.584-2.58,3.841l-2.414.051c-.688.009-1.237.02-1.483.031l-.3.006c.063,0,.121,0,.183,0-1.1.114-.246,1.9.94,2.375a8.543,8.543,0,0,0,3.023.437,5.152,5.152,0,0,1,.713-1.8c.977.6,1.385,1.3,2.436,1.514,1.64.343,3.416-.353,5.255-.2,1.5.12,4.318,1.336,4.369,2.673A10.213,10.213,0,0,0,3619.844,4267.367Z" transform="translate(-3536.788 -4261.942)" fill="#00254d"/><g transform="translate(51.06 38.67)"><g transform="translate(0 3.569)"><path d="M3574.021,4351.088l0-.089a6.1,6.1,0,0,0-1.513,2.353c-.047.129-.1.275-.161.428v4.333c.3-.883.7-1.909,1.041-2.771.221-.567.421-1.08.562-1.468a4.707,4.707,0,0,1,.783-1.38A1.343,1.343,0,0,1,3574.021,4351.088Z" transform="translate(-3572.35 -4350.999)" fill="#dbdcdc"/></g><path d="M3583.2,4347.044a2.861,2.861,0,0,1-2.9,2.126l-2.283-.186c-1.193-.153-2.316-.66-2.161-1.853l.054-2.054c.154-1.191,1.436-1.633,2.629-1.476l2.1-.127c1.189.151,2.773,1.008,2.619,2.2Z" transform="translate(-3574.186 -4343.475)" fill="#fbd6a0"/></g><g transform="translate(57.916 38.984)"><path d="M3611.946,4347.657a2.854,2.854,0,0,1-2.858,2.18l-2.287-.142c-1.195-.128-2.327-.617-2.2-1.809l.019-2.056c.13-1.2,1.4-1.66,2.6-1.53l2.1-.163c1.194.13,2.793.951,2.664,2.145Z" transform="translate(-3596.157 -4344.137)" fill="#fbd6a0"/><path d="M3587.573,4348.16a.767.767,0,1,0,0,1.533h7.683l.014-1.533Z" transform="translate(-3586.806 -4346.252)" fill="#dbdcdc"/><g transform="translate(11.561 2.612)"><path d="M3611.933,4412.755h-.751v16.4h1.534v-16.735A1.082,1.082,0,0,1,3611.933,4412.755Z" transform="translate(-3611.182 -4382.646)" fill="#dbdcdc"/><path d="M3615.029,4349.92a.767.767,0,1,0-1.178.982,2,2,0,0,1,.306,1.754c-.155.456-.411,1.107-.681,1.8-.413,1.051-.88,2.242-1.165,3.182l-.036.117a19.968,19.968,0,0,0-1.094,5.606v5.627h.751a1.078,1.078,0,0,1,.783.336v-5.963a18.462,18.462,0,0,1,1.028-5.16l.035-.117c.268-.881.723-2.042,1.125-3.068.278-.707.54-1.375.707-1.864A3.516,3.516,0,0,0,3615.029,4349.92Z" transform="translate(-3611.182 -4349.643)" fill="#dbdcdc"/></g></g><path d="M3609.315,4390.423H3606.2v10.769h3.111a1.089,1.089,0,0,0,1.088-1.088v-8.594A1.088,1.088,0,0,0,3609.315,4390.423Z" transform="translate(-3539.087 -4329.486)" fill="#69757c"/><g transform="translate(5.316 91.106)"><g transform="translate(1.684 1.927)"><path d="M3480.21,4459.254a3.447,3.447,0,0,1,.391-1.162h-1.148A2.485,2.485,0,0,1,3480.21,4459.254Z" transform="translate(-3479.453 -4458.093)" fill="#23456d"/></g><g transform="translate(2.385 1.429)"><path d="M3486.977,4457.043a8.486,8.486,0,0,1,.256,2.2c0,1.052-.465,1.61-1.037,1.61a.614.614,0,0,1-.076-.011.547.547,0,0,1-.077.011c-.368,0-.647-.324-.877-.759-.249-.476-.454-1.209-.735-1.786a4.028,4.028,0,0,0-.133,1.035c0,1.5.781,2.717,1.745,2.717s1.75-1.214,1.75-2.717A3.265,3.265,0,0,0,3486.977,4457.043Z" transform="translate(-3482.702 -4457.043)" fill="#3e3a39"/><g transform="translate(0 0.497)"><path d="M3482.535,4459.892a4.068,4.068,0,0,1,.129-1.027,1.867,1.867,0,0,0-.585-.771h-.7a3.639,3.639,0,0,0-.448,1.8c0,1.5.783,2.718,1.747,2.718h1.5a.346.346,0,0,0,.051-.008C3483.288,4462.561,3482.535,4461.366,3482.535,4459.892Z" transform="translate(-3480.931 -4458.093)" fill="#231815"/></g></g><path d="M3482.656,4454.031H3479.8a6.2,6.2,0,0,0,1.685,1.927c.644.413.924,1.8,1.317,2.55.23.435.509.761.878.761a.491.491,0,0,0,.076-.013.531.531,0,0,0,.076.013c.571,0,1.036-.559,1.036-1.613,0-2.738-.939-3.625-.939-3.625Z" transform="translate(-3477.951 -4454.031)" fill="#4878b2"/><path d="M3477.586,4455.958a6.188,6.188,0,0,1-1.684-1.927h1.848a6.187,6.187,0,0,0,1.685,1.927Z" transform="translate(-3475.903 -4454.031)" fill="#3e699d"/><path d="M3487.5,4459.612c-.379,0-.69.481-.69,1.075s.312,1.074.69,1.074c.094,0,.9-.009.9-1.074S3487.594,4459.612,3487.5,4459.612Z" transform="translate(-3481.637 -4456.965)" fill="#bebfbf"/></g><g transform="translate(31.888 91.106)"><g transform="translate(2.049)"><path d="M3538.576,4454.031h-2.328l.26,3.625c0,.89.463,1.613,1.035,1.613a.535.535,0,0,0,.075-.013.469.469,0,0,0,.075.013c.573,0,1.036-.723,1.036-1.613v-3.625Z" transform="translate(-3536.248 -4454.031)" fill="#4878b2"/></g><path d="M3534.476,4454.031h-1.6l.123,1.715a1.471,1.471,0,0,1,1.173-.709h.375Z" transform="translate(-3532.427 -4454.031)" fill="#23456d"/><g transform="translate(0 1.006)"><path d="M3538.229,4457.667v1.89c0,.89-.463,1.611-1.036,1.611a.481.481,0,0,1-.075-.013.541.541,0,0,1-.075.013c-.572,0-1.035-.722-1.035-1.611l-.137-1.911a3.524,3.524,0,0,0-.575,2.011c0,1.5.783,2.717,1.747,2.717s1.747-1.215,1.747-2.717A3.543,3.543,0,0,0,3538.229,4457.667Z" transform="translate(-3533.698 -4456.938)" fill="#3e3a39"/><path d="M3533.528,4458.872a3.511,3.511,0,0,1,.571-2l-.052-.717h-.375c-.965,0-1.747,1.219-1.747,2.719s.781,2.718,1.747,2.718h1.5a.465.465,0,0,0,.05-.008C3534.284,4461.54,3533.528,4460.346,3533.528,4458.872Z" transform="translate(-3531.927 -4456.153)" fill="#231815"/></g><path d="M3538.494,4459.612c-.38,0-.691.481-.691,1.075s.311,1.074.691,1.074c.1,0,.9-.009.9-1.074S3538.589,4459.612,3538.494,4459.612Z" transform="translate(-3535.016 -4456.965)" fill="#bebfbf"/></g><g transform="translate(37.92 93.032)"><path d="M3545.4,4459.254a3.442,3.442,0,0,1,.391-1.162h-1.149A2.488,2.488,0,0,1,3545.4,4459.254Z" transform="translate(-3544.645 -4458.093)" fill="#23456d"/></g><g transform="translate(38.621 92.535)"><path d="M3552.17,4457.043a8.487,8.487,0,0,1,.256,2.2c0,1.052-.465,1.61-1.036,1.61a.6.6,0,0,1-.076-.011.545.545,0,0,1-.078.011c-.368,0-.647-.324-.876-.759-.25-.476-.455-1.209-.736-1.786a4.039,4.039,0,0,0-.132,1.035c0,1.5.781,2.717,1.744,2.717s1.75-1.214,1.75-2.717A3.267,3.267,0,0,0,3552.17,4457.043Z" transform="translate(-3547.894 -4457.043)" fill="#595757"/><g transform="translate(0 0.497)"><path d="M3547.727,4459.892a4.046,4.046,0,0,1,.13-1.027,1.859,1.859,0,0,0-.585-.771h-.7a3.642,3.642,0,0,0-.447,1.8c0,1.5.783,2.718,1.747,2.718h1.5a.346.346,0,0,0,.051-.008C3548.48,4462.561,3547.727,4461.366,3547.727,4459.892Z" transform="translate(-3546.124 -4458.093)" fill="#231815"/></g></g><path d="M3547.848,4454.031h-2.856a6.19,6.19,0,0,0,1.685,1.927c.643.413.924,1.8,1.317,2.55.229.435.509.761.877.761a.488.488,0,0,0,.077-.013.508.508,0,0,0,.076.013c.571,0,1.036-.559,1.036-1.613,0-2.738-.938-3.625-.938-3.625Z" transform="translate(-3506.907 -4362.924)" fill="#4878b2"/><path d="M3542.779,4455.958a6.178,6.178,0,0,1-1.683-1.927h1.848a6.193,6.193,0,0,0,1.685,1.927Z" transform="translate(-3504.859 -4362.924)" fill="#3e699d"/><path d="M3552.692,4459.612c-.379,0-.69.481-.69,1.075s.311,1.074.69,1.074c.095,0,.9-.009.9-1.074S3552.787,4459.612,3552.692,4459.612Z" transform="translate(-3510.593 -4365.859)" fill="#bebfbf"/><path d="M3497.7,4449.626v-.835a1.09,1.09,0,0,1,1.088-1.088H3465.78a1.089,1.089,0,0,0-1.086,1.088v.835a1.088,1.088,0,0,0,1.086,1.086h33.013A1.089,1.089,0,0,1,3497.7,4449.626Z" transform="translate(-3464.694 -4359.598)" fill="#00447d"/><g transform="translate(33.011 88.105)"><path d="M1.5,0H38.791a1.5,1.5,0,0,1,1.5,1.5v0a1.506,1.506,0,0,1-1.506,1.506H1.506A1.506,1.506,0,0,1,0,1.5v0A1.5,1.5,0,0,1,1.5,0Z" fill="#00579b"/></g><g transform="translate(62.804 91.106)"><path d="M3600.392,4454.031h-2.329l.258,3.625c0,.89.464,1.613,1.036,1.613a.5.5,0,0,0,.074-.013.563.563,0,0,0,.075.013c.574,0,1.038-.723,1.038-1.613v-3.625Z" transform="translate(-3597.612 -4454.031)" fill="#2d527e"/><g transform="translate(0 1.006)"><path d="M3603.969,4458.872c0,1.5-.781,2.718-1.745,2.718s-1.749-1.215-1.749-2.718.784-2.719,1.749-2.719S3603.969,4457.372,3603.969,4458.872Z" transform="translate(-3598.88 -4456.153)" fill="#595757"/><path d="M3598.713,4458.872c0-1.473.755-2.667,1.7-2.708a.489.489,0,0,0-.052-.01h-1.5c-.964,0-1.747,1.219-1.747,2.719s.782,2.718,1.747,2.718h1.5a.48.48,0,0,0,.052-.008C3599.468,4461.54,3598.713,4460.346,3598.713,4458.872Z" transform="translate(-3597.111 -4456.153)" fill="#231815"/></g><path d="M3603.763,4454.031h-2.33l.259,3.625c0,.89.462,1.613,1.035,1.613a.478.478,0,0,0,.074-.013.527.527,0,0,0,.076.013c.572,0,1.036-.723,1.036-1.613v-3.625Z" transform="translate(-3599.384 -4454.031)" fill="#5084c4"/><path d="M3603.681,4459.612c-.383,0-.691.481-.691,1.075s.308,1.074.691,1.074c.093,0,.9-.009.9-1.074S3603.774,4459.612,3603.681,4459.612Z" transform="translate(-3600.201 -4456.965)" fill="#dbdcdc"/></g><g transform="translate(6.841 54.954)"><path d="M3479.6,4377.906h32.073v0a.432.432,0,0,0-.411.42h-32.094A.434.434,0,0,1,3479.6,4377.906Z" transform="translate(-3479.145 -4377.859)" fill="#fbd6a0"/><path d="M3546.839,4378.33a.433.433,0,0,1,.432-.424h27.276a.431.431,0,0,1,.432.424Z" transform="translate(-3514.718 -4377.859)" fill="#b09060"/><path d="M3479.6,4447.256h32.073v0a.431.431,0,0,1-.411-.42h-32.094A.433.433,0,0,0,3479.6,4447.256Z" transform="translate(-3479.145 -4414.095)" fill="#cea75f"/><path d="M3546.839,4446.832a.432.432,0,0,0,.432.424h27.276a.43.43,0,0,0,.432-.424Z" transform="translate(-3514.718 -4414.095)" fill="#90764d"/><rect width="28.191" height="32.265" transform="translate(32.085 0.472)" fill="#c4a064"/><rect width="32.085" height="32.265" transform="translate(0 0.472)" fill="#eabe6c"/><rect width="4.267" height="2.843" transform="translate(44.209)" fill="#eabe6c"/><rect width="4.267" height="2.844" transform="translate(44.209 30.317)" fill="#eabe6c"/></g><g transform="translate(10.269 58.02)"><path d="M3487.292,4384.272a.216.216,0,0,1-.062.141.235.235,0,0,1-.16.07.258.258,0,0,1-.16-.07.217.217,0,0,1-.062-.141h-.5v7.776h.5a.209.209,0,0,1,.069-.161.225.225,0,0,1,.32,0,.2.2,0,0,1,.07.161h14.676v-7.776Zm-.222,7.407a.234.234,0,0,1,0-.469.234.234,0,0,1,0,.469Zm0-.606a.23.23,0,0,1-.229-.23.236.236,0,0,1,.229-.231.231.231,0,0,1,.23.231A.226.226,0,0,1,3487.07,4391.073Zm0-.6a.231.231,0,0,1-.229-.229.235.235,0,0,1,.229-.232.231.231,0,0,1,.23.232A.226.226,0,0,1,3487.07,4390.474Zm0-.6a.23.23,0,0,1,0-.46.23.23,0,0,1,0,.46Zm0-.6a.235.235,0,0,1-.229-.23.23.23,0,0,1,.229-.229.226.226,0,0,1,.23.229A.23.23,0,0,1,3487.07,4389.276Zm0-.6a.236.236,0,0,1-.229-.229.229.229,0,0,1,.229-.229.224.224,0,0,1,.23.229A.231.231,0,0,1,3487.07,4388.678Zm0-.605a.231.231,0,0,1-.229-.23.237.237,0,0,1,.229-.23.232.232,0,0,1,.23.23A.226.226,0,0,1,3487.07,4388.073Zm0-.6a.23.23,0,0,1-.229-.23.236.236,0,0,1,.229-.231.231.231,0,0,1,.23.231A.226.226,0,0,1,3487.07,4387.476Zm0-.6a.23.23,0,0,1-.229-.23.235.235,0,0,1,.229-.23.23.23,0,0,1,.23.23A.225.225,0,0,1,3487.07,4386.876Zm0-.6a.23.23,0,0,1,0-.46.23.23,0,0,1,0,.46Zm0-.6a.236.236,0,0,1-.229-.232.23.23,0,0,1,.229-.229.226.226,0,0,1,.23.229A.232.232,0,0,1,3487.07,4385.68Zm0-.6a.235.235,0,0,1-.229-.229.23.23,0,0,1,.229-.23.226.226,0,0,1,.23.23A.23.23,0,0,1,3487.07,4385.081Z" transform="translate(-3486.345 -4384.272)" fill="#fff"/><g transform="translate(2.108 0.963)"><path d="M3497.629,4390.968h-4.141a.254.254,0,0,1,0-.508h4.141a.254.254,0,0,1,0,.508Z" transform="translate(-3492.074 -4388.487)" fill="#c8c9ca"/><path d="M3495.184,4386.81h-4.141a.254.254,0,1,1,0-.508h4.141a.254.254,0,0,1,0,.508Z" transform="translate(-3490.789 -4386.302)" fill="#c8c9ca"/><path d="M3497.132,4388.63h-6.089a.254.254,0,1,1,0-.507h6.089a.254.254,0,0,1,0,.507Z" transform="translate(-3490.789 -4387.259)" fill="#c8c9ca"/><path d="M3511.327,4390.968h-2.663a.254.254,0,1,1,0-.508h2.663a.254.254,0,0,1,0,.508Z" transform="translate(-3500.052 -4388.487)" fill="#c8c9ca"/><g transform="translate(0 3.379)"><path d="M3497.629,4398.088h-4.141a.254.254,0,1,1,0-.507h4.141a.254.254,0,1,1,0,.507Z" transform="translate(-3492.074 -4395.609)" fill="#c8c9ca"/><path d="M3495.184,4393.934h-4.141a.254.254,0,1,1,0-.508h4.141a.254.254,0,0,1,0,.508Z" transform="translate(-3490.789 -4393.426)" fill="#c8c9ca"/><path d="M3497.132,4395.75h-6.089a.254.254,0,1,1,0-.507h6.089a.254.254,0,0,1,0,.507Z" transform="translate(-3490.789 -4394.381)" fill="#c8c9ca"/></g></g><path d="M3502.388,4385.09h-12.522a.678.678,0,0,0-.678.677v5.656a.679.679,0,0,0,.678.677h12.522a.679.679,0,0,0,.677-.677v-5.656A.678.678,0,0,0,3502.388,4385.09Zm.474.677v1.086h-5.5v-1.561h5.027A.474.474,0,0,1,3502.862,4385.767Zm-5.5,4.5v-1.256h5.5v1.256Zm0-1.357v-1.953h5.5v1.953Zm-7.495-3.615h7.293v3.243h-7.767v-2.769A.475.475,0,0,1,3489.866,4385.293Zm-.475,6.13v-2.785h7.767v3.258h-7.293A.474.474,0,0,1,3489.391,4391.423Z" transform="translate(-3487.839 -4384.702)" fill="#ed85a7"/></g><g transform="translate(72.57 23.051)"><path d="M3625.876,4320.253c1.592-2.363,2.3-6.089,2.536-8.305a13.944,13.944,0,0,0,.052-1.406,18.383,18.383,0,0,0-.885,3.264c-.441,2.207-1.211,5.707-3.161,7.087a70.977,70.977,0,0,1-6.717,4.218s.051.17.139.483C3620.825,4323.932,3625.151,4321.331,3625.876,4320.253Z" transform="translate(-3617.701 -4310.542)" fill="#fff"/><path d="M3637.635,4312.9a19.067,19.067,0,0,1-3.455,11.386c-2.217,2.892-3.62,3.522-5.706,4.986a55.763,55.763,0,0,1-6.825,3.532c.11.3.186.5.186.5a47.746,47.746,0,0,0,8.328-4.5,17.131,17.131,0,0,0,4.687-4.56C3637.957,4319.46,3638.163,4315.994,3637.635,4312.9Z" transform="translate(-3619.776 -4311.782)" fill="#fff"/></g><g transform="translate(102.496 87.918)"><path d="M3681.309,4453.939a3.7,3.7,0,0,1,2.346-.2c.085-.272.172-.555.253-.84a3.951,3.951,0,0,0-2.6.088C3681.319,4453.32,3681.323,4453.644,3681.309,4453.939Z" transform="translate(-3681.064 -4450.148)" fill="#00254d"/><path d="M3683.886,4449.218c.195-.687.365-1.31.47-1.7a6.546,6.546,0,0,0-3.559.107c.063.45.146,1.123.2,1.823A6.446,6.446,0,0,1,3683.886,4449.218Z" transform="translate(-3680.797 -4447.308)" fill="#00254d"/></g><path d="M3635.846,4297.924a3.7,3.7,0,0,1-1.423,1.9s5.354.991,5.092,4.3c0,0,2.628-.473,3.417.736C3642.931,4304.859,3643.27,4299.716,3635.846,4297.924Z" transform="translate(-3553.922 -4280.857)" fill="#fff"/><path d="M3615.124,4298.265s-3.785,1.683-4.521,3l-.474-.526s.684-1.577,4.259-3.154C3614.389,4297.582,3615.177,4298.213,3615.124,4298.265Z" transform="translate(-3541.15 -4280.678)" fill="#fff"/></g><path d="M3630.642,4311.636s-.789,7.728.21,9.936l.473.106,1.524-1.525a49.5,49.5,0,0,1-.1-6.414l1.893.263.262-2.155S3631.114,4311.531,3630.642,4311.636Z" transform="translate(-3551.779 -4288.055)" fill="#fff"/><path d="M3613.435,4311.394a26.718,26.718,0,0,1,4.974.024s.307,9.392-.4,10.56l-1.806-.105.184-8.7-2.884.034Z" transform="translate(-3542.889 -4287.876)" fill="#fff"/><path d="M3640.782,4331.23l-2.733-1.945s-2.892,4.941-6.414,6.256l2,2.944,3.312-2.523,2.418-2.471Z" transform="translate(-3552.457 -4297.345)" fill="#fff"/><path d="M3600.423,4323.19a10.358,10.358,0,0,1-.741,2.717,10.984,10.984,0,0,1-3.431,3.207l.905.8c5.152-2.366,4.837-6.52,4.837-6.52Z" transform="translate(-3533.855 -4294.141)" fill="#fff"/><path d="M3620.851,4262.449a7.422,7.422,0,0,0-6.849.712,6.14,6.14,0,0,0-2.521,3.676l-.02.179a20.348,20.348,0,0,1,9.2.42,3.536,3.536,0,0,1,2.995-3.125A5.67,5.67,0,0,0,3620.851,4262.449Z" transform="translate(-3541.851 -4261.942)" fill="#fff"/><g transform="translate(7.556 32.414)"><rect width="3.422" height="1.502" rx="0.751" transform="translate(2.515 20.959)" fill="#3d3d3d" stroke="rgba(0,0,0,0)" stroke-width="1"/><rect width="3.422" height="1.502" rx="0.751" transform="translate(29.915 20.959)" fill="#3d3d3d" stroke="rgba(0,0,0,0)" stroke-width="1"/><path d="M361.486,1362.278a1.189,1.189,0,0,0-1.189,1.189v18.749a1.189,1.189,0,0,0,1.189,1.189h26.966v-21.127Z" transform="translate(-359.99 -1362.235)" fill="#4d4d4d" stroke="rgba(0,0,0,0)" stroke-width="1"/><path d="M3.091,0H19.12a3.092,3.092,0,0,1,3.092,3.092v6.59a3.091,3.091,0,0,1-3.091,3.091H3.091A3.091,3.091,0,0,1,0,9.682V3.091A3.091,3.091,0,0,1,3.091,0Z" transform="translate(3.278 5.286)" fill="#e6e6e6" stroke="rgba(0,0,0,0)" stroke-width="1"/><path d="M602.711,1362.278h-6.034V1383.4h6.034a1.189,1.189,0,0,0,1.189-1.189v-18.749A1.189,1.189,0,0,0,602.711,1362.278Z" transform="translate(-568.216 -1362.235)" fill="#333" stroke="rgba(0,0,0,0)" stroke-width="1"/><g transform="translate(29.067 4.043)"><g transform="translate(0 0)"><circle cx="2.502" cy="2.502" r="2.502" transform="translate(0 4.872) rotate(-76.838)" fill="#4d4d4d" stroke="rgba(0,0,0,0)" stroke-width="1"/><circle cx="2.141" cy="2.141" r="2.141" transform="translate(0.433 4.602) rotate(-76.821)" fill="#333" stroke="rgba(0,0,0,0)" stroke-width="1"/><circle cx="1.987" cy="1.987" r="1.987" transform="translate(0.601 4.46) rotate(-76.168)" fill="#4d4d4d" stroke="rgba(0,0,0,0)" stroke-width="1"/><path d="M622.392,1402.787h-.572a6.723,6.723,0,0,0-.036,4.345h.612A7.835,7.835,0,0,0,622.392,1402.787Z" transform="translate(-619.112 -1401.963)" fill="#333" stroke="rgba(0,0,0,0)" stroke-width="1"/></g><g transform="translate(0 7.114)"><circle cx="2.502" cy="2.502" r="2.502" transform="translate(0 4.872) rotate(-76.838)" fill="#4d4d4d" stroke="rgba(0,0,0,0)" stroke-width="1"/><circle cx="2.141" cy="2.141" r="2.141" transform="translate(0.433 4.602) rotate(-76.821)" fill="#333" stroke="rgba(0,0,0,0)" stroke-width="1"/><circle cx="1.987" cy="1.987" r="1.987" transform="translate(0.618 4.487) rotate(-76.813)" fill="#4d4d4d" stroke="rgba(0,0,0,0)" stroke-width="1"/><path d="M613.177,1476.22v-.572a6.723,6.723,0,0,0-4.345-.036v.612A7.833,7.833,0,0,0,613.177,1476.22Z" transform="translate(-607.99 -1472.941)" fill="#333" stroke="rgba(0,0,0,0)" stroke-width="1"/></g></g><rect width="21.501" height="1.709" transform="translate(3.634)" fill="#4d4d4d" stroke="rgba(0,0,0,0)" stroke-width="1"/><path d="M386.133,1364.753h-3.277a50.669,50.669,0,0,1-21.5,0h-3.276a.358.358,0,0,1-.358-.358v-2.09a.385.385,0,0,1,.385-.385h3.25a47.775,47.775,0,0,0,21.5,0h3.25a.385.385,0,0,1,.385.385v2.09A.358.358,0,0,1,386.133,1364.753Z" transform="translate(-357.723 -1361.921)" fill="#333" stroke="rgba(0,0,0,0)" stroke-width="1"/><g transform="translate(4.335 9.086)"><path d="M404.24,1444.522h9.776a.337.337,0,0,0,.316-.468l-1.972-4.484a.331.331,0,0,1-.028-.133v-.9a.34.34,0,0,0-.344-.336h-15.5a.34.34,0,0,0-.344.336v.894a.326.326,0,0,1-.028.132l-1.972,4.489a.337.337,0,0,0,.316.468Z" transform="translate(-394.12 -1438.202)" fill="none" stroke="#b3b3b3" stroke-linecap="round" stroke-linejoin="round" stroke-width="1"/><line y2="6.32" transform="translate(10.12 0)" fill="none" stroke="#b3b3b3" stroke-linecap="round" stroke-linejoin="round" stroke-width="1"/><path d="M461.237,1438.2v1.3l-.613,5.021" transform="translate(-452.702 -1438.202)" fill="none" stroke="#b3b3b3" stroke-linecap="round" stroke-linejoin="round" stroke-width="1"/><path d="M443.925,1438.2v1.31l-1.263,5.01" transform="translate(-436.88 -1438.202)" fill="none" stroke="#b3b3b3" stroke-linecap="round" stroke-linejoin="round" stroke-width="1"/><path d="M427.583,1438.2v1.3l-1.605,5.021" transform="translate(-422.183 -1438.202)" fill="none" stroke="#b3b3b3" stroke-linecap="round" stroke-linejoin="round" stroke-width="1"/><path d="M410.942,1438.2v1.3l-1.994,5.021" transform="translate(-407.182 -1438.202)" fill="none" stroke="#b3b3b3" stroke-linecap="round" stroke-linejoin="round" stroke-width="1"/><path d="M492.4,1438.2v1.3l.613,5.021" transform="translate(-480.69 -1438.202)" fill="none" stroke="#b3b3b3" stroke-linecap="round" stroke-linejoin="round" stroke-width="1"/><path d="M504.9,1438.2v1.31l1.263,5.01" transform="translate(-491.705 -1438.202)" fill="none" stroke="#b3b3b3" stroke-linecap="round" stroke-linejoin="round" stroke-width="1"/><path d="M518.715,1438.2v1.3l1.605,5.021" transform="translate(-503.875 -1438.202)" fill="none" stroke="#b3b3b3" stroke-linecap="round" stroke-linejoin="round" stroke-width="1"/><path d="M532.476,1438.2v1.3l1.994,5.021" transform="translate(-515.997 -1438.202)" fill="none" stroke="#b3b3b3" stroke-linecap="round" stroke-linejoin="round" stroke-width="1"/></g></g><g transform="translate(43.128 14.425)"><g transform="translate(7.146 66.143)"><path d="M1165.138,739.375a12.136,12.136,0,0,0-.122,1.621h2.884a12.136,12.136,0,0,0-.122-1.621,3.078,3.078,0,0,1-2.641,0Z" transform="translate(-1165.016 -738.349)" fill="#bab9b9"/><path d="M1167.6,728.771h-1.141s-.1.421-.179,1.026a3.079,3.079,0,0,0,2.641,0c-.083-.6-.179-1.026-.179-1.026Z" transform="translate(-1166.153 -728.771)" fill="#a6a5a5"/></g><path d="M0,0H.979a0,0,0,0,1,0,0V0A.285.285,0,0,1,.694.285H.285A.285.285,0,0,1,0,0V0A0,0,0,0,1,0,0Z" transform="translate(0.888 73.602)" fill="#8c8c8c"/><path d="M.285,0h.41A.285.285,0,0,1,.979.285v0a0,0,0,0,1,0,0H0a0,0,0,0,1,0,0v0A.285.285,0,0,1,.285,0Z" transform="translate(16.289 73.886) rotate(180)" fill="#8c8c8c"/><path d="M0,0H.979a0,0,0,0,1,0,0V0A.285.285,0,0,1,.694.285H.285A.285.285,0,0,1,0,0V0A0,0,0,0,1,0,0Z" transform="translate(3.773 73.602)" fill="#8c8c8c"/><path d="M0,0H.979a0,0,0,0,1,0,0V0A.285.285,0,0,1,.694.285H.285A.285.285,0,0,1,0,0V0A0,0,0,0,1,0,0Z" transform="translate(6.657 73.602)" fill="#8c8c8c"/><path d="M0,0H.979a0,0,0,0,1,0,0V0A.285.285,0,0,1,.694.285H.285A.285.285,0,0,1,0,0V0A0,0,0,0,1,0,0Z" transform="translate(9.541 73.602)" fill="#8c8c8c"/><path d="M0,0H.979a0,0,0,0,1,0,0V0A.285.285,0,0,1,.694.285H.285A.285.285,0,0,1,0,0V0A0,0,0,0,1,0,0Z" transform="translate(12.425 73.602)" fill="#8c8c8c"/><path d="M1107.7,796.9h-15.976c-.294,0-.546-.076-.6-.343v.276a.615.615,0,0,0,.613.626h15.951a.615.615,0,0,0,.613-.626v-.276C1108.245,796.826,1107.993,796.9,1107.7,796.9Z" transform="translate(-1091.122 -723.861)" fill="#bab9b9"/><g transform="translate(4.038 51.314)"><path d="M1154.22,709.535a4.1,4.1,0,0,1-2.752-.976c.424,1.45,1.353,2.564,2.752,2.564s2.328-1.114,2.753-2.564A4.1,4.1,0,0,1,1154.22,709.535Z" transform="translate(-1149.67 -695.685)" fill="#c44823"/><path d="M1141.967,576.268h-1.073l-.415-.467a1.1,1.1,0,0,0-.819-.368H1135.2a1.1,1.1,0,0,0-.82.368l-.416.467h-1.072c-.165,3.382,1.364,10.337,1.713,11.769q.033.137.073.27a4.371,4.371,0,0,0,5.5,0c.026-.089.051-.179.073-.27C1140.6,586.605,1142.132,579.651,1141.967,576.268Z" transform="translate(-1132.879 -575.433)" fill="#9f3718"/></g><path d="M1147.466,604.871c.866,0,1.774-.371,1.932-.821a73.364,73.364,0,0,0,1.537-9.113,1.23,1.23,0,0,0-1.224-1.356h-4.49a1.231,1.231,0,0,0-1.224,1.356,73.447,73.447,0,0,0,1.537,9.113c.158.45,1.066.821,1.932.821Z" transform="translate(-1138.878 -540.511)" fill="#6d6d6d"/><path d="M.334,0h.934A.334.334,0,0,1,1.6.334v0a.334.334,0,0,1-.334.334H.334A.334.334,0,0,1,0,.334v0A.334.334,0,0,1,.334,0Z" transform="translate(7.788 51.834)" fill="#f0f0f0"/><g transform="translate(4.051)"><path d="M1165.294,45.553a.524.524,0,0,0-.074-.224.943.943,0,0,0-1.648,0,.521.521,0,0,0-.074.224c-.1,3.391-.482,19.7-.765,31.143h3.326C1165.776,65.257,1165.394,48.945,1165.294,45.553Z" transform="translate(-1159.858 -44.844)" fill="#c44823"/><path d="M1140.349,461.616a6.031,6.031,0,0,1-.825-3.353c-.015-.065-.057-1.475-.118-3.749h-3.722c-.061,2.274-.1,3.684-.119,3.749a6.03,6.03,0,0,1-.825,3.353c-.743,1.055-1.568,2.045-1.733,5.428h1.073l.415-.467a1.1,1.1,0,0,1,.82-.368h4.461a1.1,1.1,0,0,1,.819.368l.415.467h1.073C1141.918,463.661,1141.092,462.67,1140.349,461.616Z" transform="translate(-1133.007 -414.894)" fill="#c44823"/><path d="M1164.378,380.586h-3.356c-.062,2.5-.119,4.74-.166,6.532h3.689C1164.5,385.326,1164.44,383.084,1164.378,380.586Z" transform="translate(-1158.162 -348.116)" fill="#c44823"/><path d="M1164.391,448.126H1160.7l-.017.618h3.722Q1164.4,448.445,1164.391,448.126Z" transform="translate(-1158.009 -409.124)" fill="#bab9b9"/><path d="M1165.916,374.2h-3.326q-.008.311-.015.618h3.357Q1165.924,374.51,1165.916,374.2Z" transform="translate(-1159.715 -342.347)" fill="#bab9b9"/></g><path d="M1174.507,103.833a.581.581,0,0,1-.581-.58V102.24a.581.581,0,0,1,1.161,0v1.012A.581.581,0,0,1,1174.507,103.833Z" transform="translate(-1165.918 -96.165)" fill="#666"/><g transform="translate(8.23 5.717)"><path d="M1176.939,104.315a.358.358,0,0,0-.717,0v.506h.717Z" transform="translate(-1176.222 -103.957)" fill="gray"/><path d="M1176.222,112.9v.506a.358.358,0,0,0,.717,0V112.9Z" transform="translate(-1176.222 -112.032)" fill="#666"/></g><path d="M1173.944,430.556a.589.589,0,1,1,.589.589A.589.589,0,0,1,1173.944,430.556Z" transform="translate(-1165.934 -392.721)" fill="#666"/><circle cx="0.355" cy="0.355" r="0.355" transform="translate(8.244 37.48)" fill="#bab9b9"/><g transform="translate(5.857 53.813)"><path d="M1161.227,630.714c.151.788.323,1.612.519,2.461a.6.6,0,0,0,.361.424,2.518,2.518,0,0,0,1.858,0,.6.6,0,0,0,.361-.424c.6-2.614.983-5,1.216-6.77Z" transform="translate(-1160.304 -623.975)" fill="#1f1f1f"/><path d="M1157.147,601.812a.486.486,0,0,0-.484-.536h-4.49a.486.486,0,0,0-.483.536c.131,1.275.4,3.524.92,6.2l4.314-4.309C1157.024,602.95,1157.1,602.307,1157.147,601.812Z" transform="translate(-1151.687 -601.276)" fill="#515151"/></g><path d="M1108.282,755.111l-.292-1.432a2.086,2.086,0,0,0-1.371-1.484l-4.67-1.339a.694.694,0,0,0-.789.282.512.512,0,0,1-.458.2h-1.982a.512.512,0,0,1-.458-.2.694.694,0,0,0-.789-.282l-4.67,1.339a2.086,2.086,0,0,0-1.371,1.484l-.292,1.432c-.092.375.2.477.583.477H1107.7C1108.085,755.588,1108.374,755.486,1108.282,755.111Z" transform="translate(-1091.122 -682.546)" fill="#c44823"/></g></g></g></g></svg>