<svg xmlns="http://www.w3.org/2000/svg" width="250" height="167" viewBox="0 0 250 167"><g transform="translate(-138 -1688)"><path d="M15,0H235a15,15,0,0,1,15,15V167a0,0,0,0,1,0,0H0a0,0,0,0,1,0,0V15A15,15,0,0,1,15,0Z" transform="translate(138 1688)" fill="#fff"/><g transform="translate(-389.521 1501.479)"><g transform="translate(623.669 207.782)"><path d="M858.545,215.006h-22.68v50.357L858.6,242.691Z" transform="translate(-801.446 -215.006)" fill="#8d8d8d"/><path d="M835.865,406.853v10.141h22.68l.058-32.813Z" transform="translate(-801.446 -356.496)" fill="#767676"/><path d="M783.388,536.19V526.7L773.9,536.19Z" transform="translate(-749.619 -475.692)" fill="#767676"/><path d="M625.563,215.006v60.5h24.274l9.491-9.491V215.006Z" transform="translate(-625.56 -215.006)" fill="#8d8d8d"/><path d="M625.541,625.327l21.078-21.078H625.541Z" transform="translate(-625.541 -540.552)" fill="#8d8d8d"/><path d="M625.541,630.014H659.31V604.249H646.619l-21.078,21.078Z" transform="translate(-625.541 -540.552)" fill="#767676"/></g><rect width="3.199" height="57.098" transform="translate(680.767 268.28) rotate(90)" fill="#646464"/><rect width="0.65" height="28.368" transform="translate(657.438 268.876)" fill="#585858"/><rect width="0.65" height="60.22" transform="translate(657.438 208.06)" fill="#585858"/><rect width="3.406" height="22.68" transform="translate(680.767 282.656) rotate(90)" fill="#646464"/><rect width="3.2" height="57.098" transform="translate(680.767 297.244) rotate(90)" fill="#646464"/><rect width="22.68" height="11.177" transform="translate(658.087 271.479)" fill="#767676"/><rect width="22.68" height="11.182" transform="translate(658.087 286.063)" fill="#767676"/><path d="M0,0H0A2.777,2.777,0,0,1,2.777,2.777V54.321A2.777,2.777,0,0,1,0,57.1H0a0,0,0,0,1,0,0V0A0,0,0,0,1,0,0Z" transform="translate(680.767 330.498) rotate(90)" fill="#545454"/><path d="M0,0H0A1.413,1.413,0,0,1,1.413,1.413V55.685A1.413,1.413,0,0,1,0,57.1H0a0,0,0,0,1,0,0V0A0,0,0,0,1,0,0Z" transform="translate(623.669 207.782) rotate(-90)" fill="#717171"/><g transform="translate(625.249 333.275)"><path d="M0,0H0A2.43,2.43,0,0,1,2.43,2.43V4.619a.966.966,0,0,1-.966.966H0a0,0,0,0,1,0,0V0A0,0,0,0,1,0,0Z" transform="translate(5.585 -1.041) rotate(90)" fill="#585858"/><path d="M0,0H0A2.43,2.43,0,0,1,2.43,2.43V4.619a.966.966,0,0,1-.966.966H0a0,0,0,0,1,0,0V0A0,0,0,0,1,0,0Z" transform="translate(53.938 -1.041) rotate(90)" fill="#585858"/></g><rect width="29.458" height="57.098" transform="translate(680.767 300.444) rotate(90)" fill="#767676"/><rect width="1.075" height="57.831" rx="0.538" transform="translate(681.134 300.444) rotate(90)" fill="#4f4f4f"/><rect width="1.075" height="23.371" rx="0.538" transform="translate(681.134 271.479) rotate(90)" fill="#4f4f4f"/><rect width="1.075" height="23.371" rx="0.538" transform="translate(681.134 285.968) rotate(90)" fill="#4f4f4f"/><path d="M.526,0h0a.549.549,0,0,1,.549.549V33.934a.526.526,0,0,1-.526.526H.526A.526.526,0,0,1,0,33.934V.526A.526.526,0,0,1,.526,0Z" transform="translate(657.762 271.479) rotate(90)" fill="#4f4f4f"/><rect width="57.098" height="0.596" transform="translate(623.669 268.28)" fill="#585858"/><rect width="57.098" height="0.596" transform="translate(623.669 297.244)" fill="#585858"/><rect width="57.098" height="0.596" transform="translate(623.669 329.901)" fill="#585858"/><rect width="22.68" height="0.596" transform="translate(658.087 282.656)" fill="#585858"/><rect width="33.769" height="0.278" transform="translate(623.669 272.555)" fill="#404040"/><rect width="57.098" height="0.278" transform="translate(623.669 301.519)" fill="#404040"/><rect width="22.68" height="0.278" transform="translate(658.087 272.555)" fill="#404040"/><rect width="57.098" height="0.278" transform="translate(623.669 207.782)" fill="#404040"/><rect width="22.68" height="0.278" transform="translate(658.087 287.043)" fill="#404040"/></g></g></svg>