<svg xmlns="http://www.w3.org/2000/svg" xmlns:xlink="http://www.w3.org/1999/xlink" width="487.677" height="420.752" viewBox="0 0 487.677 420.752"><defs><clipPath id="a"><circle cx="199.5" cy="199.5" r="199.5" transform="translate(0.119 0.119)" fill="#f7f3e5"/></clipPath></defs><g transform="translate(-171.895 -3793.572)"><circle cx="199.5" cy="199.5" r="199.5" transform="translate(232.572 3793.572)" fill="#f7f3e5"/><g transform="translate(232.453 3793.453)" clip-path="url(#a)"><g transform="translate(49.484 85.665)"><g transform="translate(0 0.756)"><path d="M2559.628,733.528s3.31,16.414,9.515,16.652c7.732.3,8.862-7.429,8.862-7.429l-13.024-18.737Z" transform="translate(-2442.692 -437.28)" fill="#ed8981"/><path d="M2392.469,682.906l3.064-119.575-.085-36.964,22.393-19.079,39.023.628,24.42,19.956-5.7,106.906,3.432,48.408Z" transform="translate(-2377.621 -352.914)" fill="#f0ac40"/><path d="M2402.626,433.12c-2.995,3.887,6.648,4.107,8.565,3.5,4.832-1.526,9.852-8.044,11.088-12.907,2.435-9.594-6.017-24.751-15.17-27.807a19.037,19.037,0,0,0-14.8.733c-2.427,1.248-4.526,5.641-1.417,8.953-7.561-4.2-12,3.7-12.406,6.93-.481,3.817,1.7,10.64,6.678,9.351-2.641,1.529-.851,6.718.516,8.716,3.721,5.431,11.457,4.867,16.8,3.057C2402.534,433.707,2402.656,433.079,2402.626,433.12Z" transform="translate(-2372.154 -309.113)" fill="#d1684e"/><path d="M2371.841,342.074c8.349,19.094,32.994,32.11,32.994,32.11l40.343-10.784s13.554-21.087,8.6-38.614a106.117,106.117,0,0,0-6-16.607c-2.735-5.75-6.017-10.512-9.866-13.287-9.326-6.723-21.093-7.554-30.025-6.88a72.671,72.671,0,0,0-9.922,1.5c-2.122.462-3.377.876-3.377.876l-.179.088-7.737,4.328a34.6,34.6,0,0,0-2.769,2.484C2377.28,303.742,2361.429,318.265,2371.841,342.074Z" transform="translate(-2368.248 -267.481)" fill="#d1684e"/><path d="M2395.711,374.062c4.319,18.335,22.677,30.84,41.508,26.4,18.813-4.442,30.994-24.148,26.659-42.48-4.323-18.348-23.085-29.6-41.907-25.154C2403.133,337.252,2391.381,355.719,2395.711,374.062Z" transform="translate(-2378.534 -284.623)" fill="#edbf98"/><path d="M2369.5,398.782a11.091,11.091,0,1,0,8.253-13.351A11.1,11.1,0,0,0,2369.5,398.782Z" transform="translate(-2368.562 -305.362)" fill="#edbf98"/><path d="M2449.4,330.616a63.693,63.693,0,0,1,5.3,10.118c.8,2.019,3.309,6.653,2.22,8.76-2.953-2.4-4.867-6.016-8.146-8.165a91.861,91.861,0,0,0-13.657-7.618c.563,2.421,1.992,4.263,3.288,6.274-5.318-.821-11.136-4.308-15.666-7.078-1.973,6.024-7.643,11.325-11.772,15.778-3.621,3.9-8.953,9.969-13.891,12.113.76-4.831,2.842-9.525,2.167-14.564-2.277,4.652-2.741,10.3-5.113,15.11-2.082,4.24-3.7,8.22-7.244,11.256-5.613-6.662-10.316-12.853-10.909-22.25-.436-7.042,2.018-14.264,5.19-20.293,3.122-5.942,8.468-10.009,14.253-13.079,1.905-1.014,4.991-1.165,6.635-2.74a10.464,10.464,0,0,1,5.078-2.655c9.666-2.406,19.513-.349,28.394,4.263C2441.955,319.185,2445.5,324.379,2449.4,330.616Z" transform="translate(-2371.182 -276.336)" fill="#d1684e"/><path d="M2475.943,375.782a3.511,3.511,0,0,0,2.759,3.893,3.085,3.085,0,0,0,3.556-2.8,3.5,3.5,0,0,0-2.772-3.883A3.08,3.08,0,0,0,2475.943,375.782Z" transform="translate(-2410.106 -300.62)" fill="#0d0002"/><path d="M2435.925,386.175a3.518,3.518,0,0,0,2.765,3.893,3.094,3.094,0,0,0,3.557-2.8,3.517,3.517,0,0,0-2.776-3.885A3.087,3.087,0,0,0,2435.925,386.175Z" transform="translate(-2394.528 -304.664)" fill="#0d0002"/><path d="M2461.381,399.549a.821.821,0,0,0,.515-.4c.209-.376.457-.747.7-1.1.8-1.2,1.713-2.56,1.171-4.438-.333-1.129-1.816-3.3-3.878-6.248-.851-1.216-1.652-2.364-1.943-2.89a.823.823,0,0,0-1.441.795c.331.6,1.122,1.731,2.037,3.04,1.419,2.032,3.363,4.811,3.645,5.764.312,1.085-.14,1.833-.958,3.059-.259.39-.528.79-.77,1.232a.822.822,0,0,0,.325,1.117A.832.832,0,0,0,2461.381,399.549Z" transform="translate(-2402.508 -304.936)" fill="#0d0002"/><path d="M2373.284,329.884l4.825,8.214c.125-1.678.362-3.39.586-4.844a105.5,105.5,0,0,1,2.505-13.049c2.363-9.278,6.033-19.092,13.135-26.03,11.422-11.152,29.193-8.826,41.879-1.054a40.76,40.76,0,0,1,7.124,5.492,89.043,89.043,0,0,1,9.234,10.076c.782,1,1.539,2.046,2.3,3.132a75.585,75.585,0,0,0-5.322-13.991c-2.272-2.1-10.5-11.258-21.764-15.077a46.5,46.5,0,0,0-13.011-2.23c-2.8-.122-8.34.318-10.5,2.364a17.189,17.189,0,0,0,4.7-7.84.884.884,0,0,0,.148-.362c2.024-7.019.483-15.282-4.634-20.169-3.241,4.37-4.842,11.8-5.469,17.1a22.742,22.742,0,0,0-.048,4.307,3.764,3.764,0,0,0,.081.625,72.762,72.762,0,0,1,.733,8.987,28.786,28.786,0,0,0-4.289-8.024,26.847,26.847,0,0,0-3.016-3.438c-4.818-4.641-20.285-8.288-20.285-8.288s-3.59-2.716,2.8,10.787a13.8,13.8,0,0,0,6.128,6.149,20.487,20.487,0,0,0,3.864,1.6,37.951,37.951,0,0,0,11.269,1.53c-11.288,1.006-17.541,15.544-20.172,24.565A76.816,76.816,0,0,0,2373.284,329.884Z" transform="translate(-2369.34 -254.517)" fill="#4a98d4"/><path d="M2450.8,481.766l-19.752-.408s1.253-.444,6.4-5.3,2.888-38.845,2.888-38.845l11.062-.263v.066l0-.066h6.364s2.426,34.259,7.579,39.108,6.746,4.853,6.746,4.853l-20.092.852v.059l-.6-.029-.6.029Z" transform="translate(-2392.641 -325.535)" fill="#edbf98"/><path d="M2425.875,341.948a1,1,0,0,1-.227-1.4,11.705,11.705,0,0,0,1.072-1.853,1,1,0,0,1,1.817.856,13.437,13.437,0,0,1-1.263,2.174,1,1,0,0,1-1.4.226Zm3.351-7.37a1,1,0,0,1-.723-1.221c.109-.432.216-.85.315-1.251l.248-1a1,1,0,1,1,1.948.475l-.247,1.006c-.1.4-.208.829-.318,1.266a1,1,0,0,1-1.223.724Zm1.748-7.962a1,1,0,0,1-.883-1.111c.089-.765.149-1.524.186-2.253a1,1,0,1,1,2,.092c-.036.777-.1,1.582-.194,2.39a1,1,0,0,1-.743.857A1.062,1.062,0,0,1,2430.974,326.615Zm.151-8.131a1,1,0,0,1-1.157-.82c-.105-.6-.232-1.2-.383-1.769-.034-.133-.07-.266-.106-.4a1,1,0,0,1,.694-1.237l.02-.005a1,1,0,0,1,1.218.7c.041.145.081.289.119.439.165.63.3,1.28.414,1.935a1,1,0,0,1-.734,1.141Z" transform="translate(-2390.463 -277.757)" fill="#ef7b30"/><path d="M2399.973,362.9a1.006,1.006,0,0,1-.208-1.406c.076-.1.152-.209.222-.316a1,1,0,0,1,1.678,1.1c-.09.138-.187.276-.286.411a1.009,1.009,0,0,1-1.406.209Zm2.347-5.71a1,1,0,0,1-.917-1.083c.058-.72.089-1.442.12-2.16l0-.132a1,1,0,0,1,2.007.09l-.008.131c-.032.74-.065,1.49-.125,2.234a1.009,1.009,0,0,1-1.082.92Zm.586-8.132a1,1,0,0,1-.9-1.1c.075-.777.157-1.559.248-2.334a1,1,0,1,1,1.993.234q-.132,1.143-.242,2.294a1.011,1.011,0,0,1-.748.876A1.024,1.024,0,0,1,2402.906,349.057Zm1.053-8.1a1.019,1.019,0,0,1-.72-1.217c.177-.76.356-1.509.545-2.247a1,1,0,1,1,1.946.49c-.184.732-.362,1.467-.532,2.194-.006.02-.021.081-.027.1a.972.972,0,0,1-.7.677A1.032,1.032,0,0,1,2403.959,340.957Zm2.1-7.861a1,1,0,0,1-.636-1.267q.372-1.128.787-2.235a1.005,1.005,0,0,1,1.883.707q-.4,1.072-.764,2.157a1,1,0,0,1-1.27.638Zm2.987-7.576a1,1,0,0,1-.436-1.355c.365-.706.75-1.409,1.143-2.087a1,1,0,1,1,1.736,1.009c-.375.646-.744,1.32-1.092,2a1.009,1.009,0,0,1-1.351.435Z" transform="translate(-2380.384 -280.623)" fill="#ef7b30"/><path d="M2482.967,342.742a21.738,21.738,0,0,0-.872-2.049,1,1,0,1,1,1.809-.873,22.8,22.8,0,0,1,.948,2.238,1,1,0,0,1-.6,1.287l-.091.027A1,1,0,0,1,2482.967,342.742Zm-3.77-6.91c-.427-.607-.884-1.226-1.357-1.838a1,1,0,1,1,1.589-1.226c.493.637.967,1.279,1.413,1.914a1.009,1.009,0,0,1-.247,1.4,1.119,1.119,0,0,1-.323.146A1,1,0,0,1,2479.2,335.831Zm-5.076-6.193c-.525-.554-1.061-1.107-1.6-1.642a1,1,0,1,1,1.411-1.427c.558.554,1.112,1.119,1.652,1.7a1,1,0,0,1-.042,1.42,1.026,1.026,0,0,1-.435.238A1,1,0,0,1,2474.121,329.638Zm-5.861-5.477c-.6-.487-1.2-.961-1.8-1.409a1,1,0,0,1,1.2-1.609c.624.465,1.249.956,1.869,1.464a1,1,0,0,1,.142,1.411.983.983,0,0,1-.524.335A1,1,0,0,1,2468.26,324.161Zm-6.563-4.477a21.878,21.878,0,0,0-2.017-.95,1,1,0,0,1,.758-1.86c.7.285,1.441.634,2.2,1.035a1,1,0,0,1-.219,1.859A.982.982,0,0,1,2461.7,319.684Z" transform="translate(-2403.541 -278.762)" fill="#ef7b30"/><path d="M2423.557,403.61a4.018,4.018,0,1,0,2.642-5.029A4.015,4.015,0,0,0,2423.557,403.61Z" transform="translate(-2389.651 -310.526)" fill="#e9706e"/><path d="M2492.354,383.487a4.015,4.015,0,1,0,2.638-5.029A4.013,4.013,0,0,0,2492.354,383.487Z" transform="translate(-2416.432 -302.692)" fill="#e9706e"/><path d="M2429.7,405.548a.759.759,0,0,0,.437-.352c.558-.977,1.779-3.334,1.057-4.152a1.271,1.271,0,0,0-.906-.433c-.964-.057-2.139.816-3.592,2.142l-.2.182c-.054.046-.1.089-.155.129.019-.052.041-.109.059-.169.045-.123.094-.264.144-.415.262-.767.8-2.363,1.456-2.566l.04-.012a.769.769,0,0,0-.432-1.475c-1.443.416-2.092,2.3-2.518,3.557l-.135.391c-.355.991-.67,2.088.074,2.6s1.67-.181,2.475-.876l.228-.207a11.817,11.817,0,0,1,2.038-1.59,16.287,16.287,0,0,1-.963,2.13.768.768,0,0,0,.9,1.116Z" transform="translate(-2390.119 -310.527)" fill="#e55a65"/><path d="M2497.962,385.592a.761.761,0,0,0,.434-.348c.44-.756,1.815-3.292,1.071-4.152a1.272,1.272,0,0,0-.913-.439c-.965-.057-2.133.815-3.588,2.138l-.208.186c-.052.047-.1.087-.149.128.018-.054.039-.109.059-.165l.14-.406c.262-.779.8-2.389,1.471-2.582a.769.769,0,1,0-.41-1.482c-1.437.392-2.093,2.31-2.521,3.573l-.129.377c-.354.988-.673,2.085.073,2.6s1.669-.184,2.476-.879l.237-.21a11.638,11.638,0,0,1,2.03-1.587,15.567,15.567,0,0,1-.966,2.128.771.771,0,0,0,.9,1.121Z" transform="translate(-2416.692 -302.758)" fill="#e55a65"/><path d="M2456.764,445.065l8.02-2.086a1,1,0,0,0-.5-1.945l-8.024,2.085a1.005,1.005,0,0,0,.508,1.946Z" transform="translate(-2402.16 -327.11)" fill="#cb6362"/><path d="M2515.075,523.882s10.136,1.474,22.225,23.166,24.713,103.383,24.713,103.383l-19.868,6.275Z" transform="translate(-2425.348 -359.374)" fill="#f0ac40"/><path d="M2399.679,521.172s-16.961,6.992-25.928,30.144-4.457,71.856-4.457,71.856l20.055,23.368Z" transform="translate(-2368.157 -358.319)" fill="#f0ac40"/><path d="M2433.734,464.8c-.868-4.11-4.049-8.813-6.42-12.261-4.85-7.045-12.009-12.309-14.227-20.964-.99-3.859-1.936-7.856-2.917-11.829-.423-1.712-4.4-10.531-.044-7.6a14.95,14.95,0,0,1-.564-5.507c3.636,1.408,6.381,7.921,7.7,11.468-.137-2.409-1.58-4.4-2.051-6.7,6.235.464,9.846,12.626,11.483,17.177.233-5.857-.759-11.636-.484-17.475,4.575-.794,4.6,9.639,4.713,12.445.246,6.131,3.536,8.073,6.844,12.786,4.131,5.881,8.4,10.39,9.212,17.859.758,6.943-.559,13.921-1.47,20.781-1.115,8.4-17.7,102.551-22.371,116.53-3.878.637-15.407-10.37-15.407-10.37S2436.191,476.427,2433.734,464.8Z" transform="translate(-2383.56 -313.732)" fill="#edbf98"/><path d="M2393.891,691.6l15.76,8.633s-8.327,25.274-20.516,21.408-16.95-31.221-16.95-31.221Z" transform="translate(-2369.725 -424.203)" fill="#ed8981"/><path d="M2531.243,584.37c.036,0,.073,0,.109,0a1.194,1.194,0,0,0,1.081-1.3l-3.167-34.817a1.193,1.193,0,0,0-2.376.216l3.167,34.817A1.192,1.192,0,0,0,2531.243,584.37Z" transform="translate(-2429.946 -368.438)" fill="#db8b00"/><path d="M2405.019,634.764a1.193,1.193,0,0,0,1.191-1.146l3-77.3a1.193,1.193,0,1,0-2.384-.092l-3,77.3a1.194,1.194,0,0,0,1.146,1.238Z" transform="translate(-2382.042 -371.517)" fill="#db8b00"/><path d="M2417.028,430.748a.895.895,0,0,0,.851-1.171c-.164-.5-4.021-12.369-4.791-14.372a41.478,41.478,0,0,0-2.213-4.585.895.895,0,1,0-1.559.879,40.276,40.276,0,0,1,2.1,4.348c.753,1.96,4.72,14.161,4.76,14.284A.894.894,0,0,0,2417.028,430.748Z" transform="translate(-2384.135 -315.106)" fill="#cb6362"/><path d="M2422.182,426.147a.885.885,0,0,0,.319-.059.9.9,0,0,0,.516-1.155c-.393-1.028-.912-2.481-1.514-4.163-4.187-11.7-6.676-17.8-8.668-18.676a1.665,1.665,0,0,0-1.823.163c-1.342,1.1-.786,4.674-.334,6.705a.894.894,0,0,0,1.746-.388,12.155,12.155,0,0,1-.321-4.847l.012.006c.166.073,1.107.724,3.466,6.383,1.481,3.556,3.009,7.825,4.236,11.256.605,1.692,1.128,3.153,1.528,4.2A.9.9,0,0,0,2422.182,426.147Z" transform="translate(-2384.511 -311.891)" fill="#cb6362"/><path d="M2429.51,423.506a.895.895,0,0,0,.842-1.2c-.636-1.766-6.28-17.323-8.471-19.985a1.776,1.776,0,0,0-2.13-.755c-1.206.506-1.573,2.462-1.4,4.067.159,1.5.41,2.9.421,2.961a.895.895,0,1,0,1.761-.318c0-.014-.25-1.395-.4-2.833a4.038,4.038,0,0,1,.259-2.113,1.655,1.655,0,0,1,.114.126c1.688,2.051,6.47,14.739,8.169,19.455A.9.9,0,0,0,2429.51,423.506Z" transform="translate(-2387.679 -311.715)" fill="#cb6362"/><path d="M2436.042,428.97a.827.827,0,0,0,.122-.009.893.893,0,0,0,.766-1.006,20.251,20.251,0,0,0-1.292-4.446,16.593,16.593,0,0,1-1.253-4.591,43.46,43.46,0,0,1,.077-10.3,3.32,3.32,0,0,1,.545-1.606,4.332,4.332,0,0,1,1.24,2.467,51.891,51.891,0,0,1,.895,6c.142,1.289.288,2.621.493,3.914.052.335.1.663.14.984a12.133,12.133,0,0,0,.881,3.6,17.988,17.988,0,0,0,.99,1.8,12.37,12.37,0,0,1,1.1,2.138.895.895,0,0,0,1.681-.614,13.96,13.96,0,0,0-1.252-2.446,16.519,16.519,0,0,1-.9-1.628,10.452,10.452,0,0,1-.734-3.1c-.045-.335-.091-.676-.147-1.025-.2-1.251-.341-2.563-.48-3.83a53.558,53.558,0,0,0-.931-6.207c-.417-1.8-1.454-3.874-3.01-3.874h-.056c-.784.025-1.806.588-2.227,3.126a44.943,44.943,0,0,0-.095,10.731,18.237,18.237,0,0,0,1.363,5.084,18.617,18.617,0,0,1,1.193,4.055A.894.894,0,0,0,2436.042,428.97Z" transform="translate(-2393.136 -313.174)" fill="#c06060"/><path d="M2462.405,485.088a.9.9,0,0,0,.784-.461c1.516-2.735,1.507-6.852,1.5-10.161,0-.418,0-.823,0-1.206a28.4,28.4,0,0,0-1.065-7.119c-1.767-6.843-11.826-19.62-13.825-22.111a.894.894,0,1,0-1.4,1.119c1.959,2.442,11.813,14.951,13.489,21.44a25.978,25.978,0,0,1,1.008,6.661c0,.388,0,.8,0,1.22.007,3.1.015,6.961-1.276,9.29a.895.895,0,0,0,.781,1.328Z" transform="translate(-2399.318 -328.159)" fill="#cb6362"/><path d="M2448.717,504.718a.9.9,0,0,0,.815-.525c1.665-3.659-.521-9.278-1.539-11.523a.895.895,0,1,0-1.63.738c1.474,3.253,2.652,7.6,1.539,10.044a.9.9,0,0,0,.814,1.265Z" transform="translate(-2398.57 -347.019)" fill="#cb6362"/><path d="M2421.02,374.185a.552.552,0,0,1,.325-.71,9.789,9.789,0,0,1,1.622-.394,5.9,5.9,0,0,0,2.351-.765,2.3,2.3,0,0,1-1.761-1.426c-.087-.379-.055-1.1,1.131-1.645,1.321-.61,2.01-.159,2.3.164a2.019,2.019,0,0,1,.291,1.943,2.361,2.361,0,0,0,2.035-2.031.552.552,0,0,1,1.084.211,3.536,3.536,0,0,1-3.643,2.974h-.061a5.235,5.235,0,0,1-3.529,1.661,8.825,8.825,0,0,0-1.436.342.553.553,0,0,1-.711-.324Zm4.13-3.938c-.448.207-.522.374-.517.4a2.028,2.028,0,0,0,1.469.715,1.246,1.246,0,0,0,.071-1.207.392.392,0,0,0-.3-.1A1.839,1.839,0,0,0,2425.15,370.247Z" transform="translate(-2388.722 -299.033)" fill="#0d0002"/><g transform="translate(101.12 110.315)"><path d="M2534.966,436.382s24.532,4.751,19.892,8.592C2551.074,448.105,2534.966,436.382,2534.966,436.382Z" transform="translate(-2534.211 -435.627)" fill="#fff"/><path d="M2534.041,436.512a.755.755,0,0,1,.587-1.352c.049.01,4.972.968,9.941,2.349,9.337,2.595,10.8,4.4,11.091,5.534a1.918,1.918,0,0,1-.8,2.032,3.49,3.49,0,0,1-2.285.7h0C2546.841,445.779,2534.561,436.89,2534.041,436.512Zm18.532,7.759a2.056,2.056,0,0,0,1.323-.358c.354-.293.314-.445.3-.5-.076-.3-.918-1.919-10.024-4.45-2.19-.609-4.372-1.135-6.122-1.532C2542.075,440.09,2548.978,444.27,2552.573,444.27Z" transform="translate(-2533.73 -435.146)" fill="#0d0002"/></g><g transform="translate(107.241 121.158)"><path d="M2544.988,454.136s20.758,13.909,14.989,15.645C2555.275,471.2,2544.988,454.136,2544.988,454.136Z" transform="translate(-2544.234 -453.381)" fill="#fff"/><path d="M2543.861,454.044a.755.755,0,0,1,1.066-1.017c.042.028,4.2,2.823,8.247,6.027,7.594,6.019,8.242,8.252,8.068,9.407a1.919,1.919,0,0,1-1.528,1.561,2.806,2.806,0,0,1-.806.115h0C2553.714,470.138,2544.854,455.692,2543.861,454.044Zm15.048,14.584a1.287,1.287,0,0,0,.37-.052c.439-.132.463-.288.47-.34.046-.3-.1-2.125-7.507-7.995-1.794-1.422-3.614-2.764-5.077-3.813C2550.913,462.056,2556.177,468.629,2558.909,468.629Z" transform="translate(-2543.753 -452.9)" fill="#0d0002"/></g><g transform="translate(93.466 123.71)"><path d="M2522.433,458.314s20.757,13.909,14.989,15.648C2532.72,475.377,2522.433,458.314,2522.433,458.314Z" transform="translate(-2521.678 -457.56)" fill="#fff"/><path d="M2521.306,458.223a.755.755,0,0,1,1.066-1.016c.042.028,4.205,2.823,8.247,6.027,7.594,6.019,8.242,8.252,8.069,9.409a1.919,1.919,0,0,1-1.529,1.562,2.77,2.77,0,0,1-.8.115h0C2531.159,474.319,2522.3,459.871,2521.306,458.223Zm15.048,14.587a1.3,1.3,0,0,0,.37-.051c.439-.133.463-.289.47-.341.046-.305-.1-2.126-7.507-8-1.795-1.423-3.615-2.765-5.078-3.813C2528.357,466.236,2533.621,472.81,2536.354,472.81Z" transform="translate(-2521.198 -457.079)" fill="#0d0002"/></g><path d="M2401.675,376.44s-1.477,15.613,1.657,13.5C2405.886,388.212,2401.675,376.44,2401.675,376.44Z" transform="translate(-2381.07 -301.978)" fill="#fff"/><path d="M2461.618,422.691c0,1.526.783,2.763,1.75,2.763s1.75-1.237,1.75-2.763-.783-2.764-1.75-2.764S2461.618,421.164,2461.618,422.691Z" transform="translate(-2404.539 -318.907)" fill="#c1143a"/></g><g transform="translate(113.349 0)"><g transform="translate(0)"><path d="M2822.382,454.167l60.048,52.915-22.693,143.7-21.808,62.022s-86.875,13.288-139.513-12.042L2738.7,472.808l33.729-18.774Z" transform="translate(-2656.206 -336.12)" fill="#4a98d4"/><path d="M2823.348,298.183s-16.79,53.437-19.4,63.25,11,25.234,26.009,24.019,27.769-3.993,35.958-25.731a222.435,222.435,0,0,0,10.95-38.635Z" transform="translate(-2697.162 -275.451)" fill="#e2a775"/><path d="M2916.7,367.513c-1.188,5.881-8.155,9.4-15.557,7.864s-12.431-7.552-11.239-13.429,8.171-9.4,15.563-7.87S2917.894,361.626,2916.7,367.513Z" transform="translate(-2730.677 -297.07)" fill="#e2a775"/><path d="M2898.625,300.229c-1.059-6.535-12.778-27.779-28.485-32.9-4.02-1.307-9.054-2.795-13.188-1.714-6.624,1.732-9.127,3.726-9.127,3.726s2.9-8,5.033-8.377a19.17,19.17,0,0,0-9.631,4.115c-2.466,2.166-2.652,4.065-3.53,6.957-1.46-1.717-1.6-3.77-1.922-5.944-2.394,1.154-5,5.348-5.742,7.859-1.28,4.332-1.746,10.817.582,14.923,1.818,3.2,6.921,6.365,10.48,7.444,2.888.87,5.8,1.236,8.7,1.991a29.377,29.377,0,0,1,13.218,7.053c5.69,5.477,6.949,13.438,6.747,21.19-.056,2.056-.606,12-.606,12l5.312,1.2s3.486-16.272,5.063-18.518a4.278,4.278,0,0,1,2.695-1.792c1.046-.112,3.215,1.145,3.215,1.145S2900.306,310.628,2898.625,300.229Z" transform="translate(-2707.805 -260.962)" fill="#69452e"/><path d="M2826.26,422.78l-.281,15.446,14.239,5.508,28.115-10.615-1.972-11.235Z" transform="translate(-2705.862 -323.605)" fill="#e2a775"/><g transform="translate(114.337 106.92)"><path d="M2823.719,439.283l16.648,6.941,25.838-8.561,3.7,9.916s-12.348,19.5-30.435,13.948-21.323-11.921-21.323-11.921Z" transform="translate(-2817.151 -436.668)" fill="#fff"/><path d="M2838.542,461.843c-18.275-5.615-21.777-12.146-21.918-12.42a1,1,0,0,1,.011-.924l5.574-10.321a.994.994,0,0,1,1.259-.446l16.3,6.8,25.487-8.445a.993.993,0,0,1,1.245.6l3.7,9.917a1,1,0,0,1-.089.879c-.125.193-12.416,19.223-30.358,14.7h0C2839.352,462.079,2838.946,461.967,2838.542,461.843Zm26.435-23.569-24.932,8.259a.994.994,0,0,1-.7-.026l-15.817-6.593-4.863,9.005c1.089,1.449,5.756,6.508,20.455,11.022.373.115.745.218,1.112.311h0c15.14,3.814,26.091-10.8,27.922-13.438Z" transform="translate(-2816.516 -436.033)" fill="#50bef1"/></g><path d="M2843.627,371.643a.857.857,0,0,0,.5-1.637l-15.458-5.6c5.874-8.685,14.895-21.791,16.059-22.853a.856.856,0,0,0-.739-1.537c-.305.113-1.237.46-17.356,24.342a.859.859,0,0,0,.418,1.286l16.493,5.975C2843.569,371.626,2843.6,371.635,2843.627,371.643Z" transform="translate(-2706.06 -291.714)" fill="#0d0002"/><path d="M2849.016,404.2a6,6,0,0,0-4.107-.851c-5.932.95-9.863,11.076-10.028,11.508a1.118,1.118,0,0,0,2.088.8c.994-2.6,4.426-9.48,8.3-10.1,1.615-.258,3.274.646,4.931,2.687,1.143,1.408,2.111,3.16,3.367,4.453.994,1.022,2.273-.084,1.861-1.247a38.906,38.906,0,0,0-3.491-4.614A11.322,11.322,0,0,0,2849.016,404.2Z" transform="translate(-2709.299 -316.361)" fill="#c1143a"/><path d="M2865.256,349.5a3.654,3.654,0,0,0,.65,4.928,3.209,3.209,0,0,0,4.634-.849,3.653,3.653,0,0,0-.669-4.924A3.212,3.212,0,0,0,2865.256,349.5Z" transform="translate(-2720.893 -294.851)" fill="#0d0002"/><path d="M2834.473,342.254a3.657,3.657,0,0,0,.649,4.926,3.209,3.209,0,0,0,4.633-.848,3.655,3.655,0,0,0-.667-4.929A3.211,3.211,0,0,0,2834.473,342.254Z" transform="translate(-2708.91 -292.027)" fill="#0d0002"/><path d="M2878.246,370.109a4.182,4.182,0,1,0,5.03-3.114A4.172,4.172,0,0,0,2878.246,370.109Z" transform="translate(-2726.165 -302.194)" fill="#e9706e"/><path d="M2881.848,374.973a.8.8,0,0,0,.589-.078c.792-.445,3.363-1.985,3.157-3.151a1.328,1.328,0,0,0-.585-.879c-.828-.555-2.325-.4-4.316.007-.132.028-.238.049-.314.061s-.142.026-.206.037c.043-.037.09-.075.138-.115.1-.087.222-.188.347-.3.648-.554,1.98-1.73,2.678-1.523a.814.814,0,0,0,.984-.561.8.8,0,0,0-.561-.985c-1.5-.392-3.1.951-4.146,1.854l-.326.278c-.842.7-1.71,1.517-1.311,2.371s1.6.718,2.685.519c.079-.013.2-.039.351-.07a12.26,12.26,0,0,1,2.63-.336,16.835,16.835,0,0,1-1.988,1.394.8.8,0,0,0,.195,1.475Z" transform="translate(-2726.065 -302.403)" fill="#e55a65"/><path d="M2962.377,536.794s4.167-4.764,7.252,2.142c9.417,21.1,35.9,171.977,35.9,171.977h-40.305l-39.377-114.205Z" transform="translate(-2744.74 -367.713)" fill="#4a98d4"/><g transform="translate(136.846 116.266)"><path d="M2859.2,468.254a.994.994,0,0,0,1.184-1.284l-5.081-14.96a.994.994,0,1,0-1.883.64l5.081,14.959A.989.989,0,0,0,2859.2,468.254Z" transform="translate(-2853.372 -451.336)" fill="#50bef1"/></g><g transform="translate(130.011 115.312)"><path d="M2842.931,465.447a1,1,0,0,0,1.163-.588c2.46-6,5.393-12.647,6.04-13.371a.982.982,0,0,0,.056-1.395,1.006,1.006,0,0,0-1.415-.057c-1.09.989-4.924,10.168-6.521,14.069a1,1,0,0,0,.543,1.3A1.071,1.071,0,0,0,2842.931,465.447Z" transform="translate(-2842.18 -449.773)" fill="#50bef1"/></g><path d="M2721.891,484.717S2696.829,492,2695.4,497.68s-42.639,141.454-43.679,140.792,27.98.212,27.98.212l61.276-86Z" transform="translate(-2638.017 -348.064)" fill="#4a98d4"/><path d="M2756.955,459.138c5.751-6.9,12.934-12.807,16.619-20.928a30.928,30.928,0,0,0,2.626-9.678c.206-2.248-.145-4.839.437-7.027,1.208-4.51,5.6-1.971,6.718,1.34a24.621,24.621,0,0,1,.441,14.55c2.664-2.242,14.221-14.663,17.467-9.252,3.067,5.1-4.875,9.628-6.111,13.316,1.7.905,4.094,1.058,5.406,2.576,2.571,2.98-1.121,4.036-2.383,6.411,1.442,1.262,5.094,4.072,4.422,6.432-.48,1.688-3.758,3.037-5.051,4.409.16-.172,1.2,3.92.76,4.863-.737,1.578-2.579,2.456-4.041,3.2-3.765,1.926-7.394,4.107-11.2,6.044-3.735,1.9-7.374,4.038-11.194,5.66a17.689,17.689,0,0,0-7.332,5.777c-1.088,1.483-1.722,3.4-2.7,4.963-1.015,1.629-3.09,6.327-5,7.177-1.561.691-3.6-.955-5.109-1.606-2.313-.993-7.535-2.012-9.126-4.134-2.112-2.817,3.344-11.8,4.458-14.909,1.1-3.073,2.276-6.155,3.542-9.177A39.665,39.665,0,0,1,2756.955,459.138Z" transform="translate(-2673.219 -322.511)" fill="#e2a775"/><path d="M2693.9,525.708l24.712,12.1s-38.46,126.64-51.407,135.115-26.936,11.386-33.034.2-5.053-17.062-4.242-21.631S2693.9,525.708,2693.9,525.708Z" transform="translate(-2629.301 -364.021)" fill="#4a98d4"/><path d="M2949.657,629.293a1,1,0,0,0,1.237-1.013c-.007-.158-.705-16.168,4.408-44.472,5.024-27.789,12.912-33.529,12.992-33.583a1,1,0,0,0-1.11-1.653c-.349.231-8.623,6.016-13.838,34.882-5.159,28.556-4.449,44.761-4.44,44.922A.994.994,0,0,0,2949.657,629.293Z" transform="translate(-2753.7 -372.856)" fill="#3c80c3"/><path d="M2721.237,638.431a1,1,0,0,0,1.131-.518c2.742-5.461,31.454-89.138,32.675-92.7a.995.995,0,0,0-1.882-.645c-.3.87-29.889,87.11-32.572,92.45a1,1,0,0,0,.648,1.411Z" transform="translate(-2664.795 -371.101)" fill="#3c80c3"/><path d="M2703.521,570.486a1,1,0,0,0,1.1-.467l21.78-37.59a.994.994,0,0,0-1.72-1l-21.78,37.591a.993.993,0,0,0,.361,1.358A1.016,1.016,0,0,0,2703.521,570.486Z" transform="translate(-2657.9 -366.056)" fill="#3c80c3"/><path d="M2843.979,492.076a30.7,30.7,0,0,0,6.667.691c20.58.362,33-10.665,33.513-11.135a.994.994,0,0,0-1.334-1.475,49.925,49.925,0,0,1-32.146,10.62c-6.521-.112-7.836-1.2-8.033-1.413a.993.993,0,0,0-1.968.009,1.641,1.641,0,0,0,.452,1.278A5.5,5.5,0,0,0,2843.979,492.076Z" transform="translate(-2711.581 -346.189)" fill="#3c80c3"/><path d="M2870.18,298.207q-.42-.714-.838-1.406l-.042-.072a.933.933,0,0,1,1.6-.959l.043.073c.28.467.562.939.844,1.419a.931.931,0,0,1-1.031,1.377A.921.921,0,0,1,2870.18,298.207Zm-3.545-6.294c-.337-.724-.62-1.407-.857-2.086a.932.932,0,0,1,1.759-.619,20.411,20.411,0,0,0,.788,1.913.933.933,0,0,1-.448,1.239.921.921,0,0,1-.622.06A.934.934,0,0,1,2866.635,291.914Zm-1.841-7.692c0-.258,0-.517.014-.783.022-.5.062-1.005.121-1.49a.933.933,0,1,1,1.852.224c-.053.439-.09.892-.108,1.347-.01.236-.014.468-.014.7a.934.934,0,0,1-.93.936.912.912,0,0,1-.232-.028A.93.93,0,0,1,2864.793,284.222Zm2.29-6.465a.932.932,0,0,1-.114-1.313,5.149,5.149,0,0,1,2.108-1.531.933.933,0,0,1,.669,1.742,3.245,3.245,0,0,0-1.35.988.934.934,0,0,1-.943.305A.952.952,0,0,1,2867.083,277.756Z" transform="translate(-2720.972 -266.368)" fill="#ab6d39"/><path d="M2901.486,320.067c-.075-.727-.167-1.427-.278-2.082a.932.932,0,1,1,1.839-.309c.119.7.216,1.437.294,2.205a.932.932,0,0,1-.834,1.021.954.954,0,0,1-.324-.023A.929.929,0,0,1,2901.486,320.067Zm-1.7-7.057a18.992,18.992,0,0,0-.914-1.847.933.933,0,0,1,1.625-.918,20.675,20.675,0,0,1,1,2.031.932.932,0,1,1-1.714.734Zm-4.009-5.981c-.464-.487-.969-.98-1.5-1.461a.932.932,0,1,1,1.252-1.381c.565.512,1.1,1.037,1.6,1.559a.933.933,0,0,1-.906,1.546A.919.919,0,0,1,2895.78,307.028Z" transform="translate(-2732.332 -277.694)" fill="#ab6d39"/><path d="M2920.922,324.928a.934.934,0,0,1-.607-1.172q.13-.407.235-.82c.094-.372.176-.76.241-1.154a.933.933,0,0,1,1.076-.765.948.948,0,0,1,.764,1.074c-.074.442-.165.879-.272,1.3q-.118.472-.266.932a.93.93,0,0,1-1.116.621A.383.383,0,0,1,2920.922,324.928Zm.014-8.3c-.06-.67-.149-1.369-.265-2.079a.932.932,0,1,1,1.839-.3c.124.754.22,1.5.284,2.215a.933.933,0,0,1-1.859.167Zm-1.511-7.2c-.209-.668-.442-1.343-.686-2.005a.933.933,0,0,1,1.75-.647c.255.69.5,1.393.715,2.089a.933.933,0,0,1-1.779.563Z" transform="translate(-2741.948 -278.557)" fill="#ab6d39"/><path d="M2840.919,437.358l.053.012a62.5,62.5,0,0,0,11.817.495c8.152-.221,16.78-9.185,17.143-9.566a.857.857,0,0,0-1.241-1.182c-.084.088-8.5,8.834-15.949,9.036a62.59,62.59,0,0,1-11.458-.467.857.857,0,0,0-.366,1.673Z" transform="translate(-2711.427 -325.538)" fill="#cb6362"/><path d="M2833.484,439.051a1.049,1.049,0,0,0,.989-.272c.225-.225,1.317-1.533.629-5.208a2.789,2.789,0,0,0-1.505-2.055c-2.554-1.285-7.426,1-7.973,1.27a.994.994,0,1,0,.867,1.789c1.858-.9,5.01-1.895,6.21-1.282a.791.791,0,0,1,.444.644c.493,2.628-.116,3.473-.122,3.482a.965.965,0,0,0,.019,1.382A.939.939,0,0,0,2833.484,439.051Z" transform="translate(-2705.506 -327.203)" fill="#cb6362"/></g><path d="M2718.526,337.091c-.794,2.127-4.412,4.064-8.234,4.407-3.794.343-6.887-1-8.482-3.675a9.815,9.815,0,0,1-.921-6.246,13.749,13.749,0,0,1-6.414.885,10.192,10.192,0,0,1-6.257-3.19c-8.682,3.241-23.455,5.716-31.33-3-5.591-6.188-6.479-16.063-2.5-27.805,5.689-16.8,19.575-32.18,30.952-34.286a.943.943,0,0,1,.345,1.855c-10.779,1.993-24.016,16.815-29.514,33.036-3.748,11.066-3,20.274,2.116,25.935,6.234,6.9,18.767,6.3,28.681,2.719a16.68,16.68,0,0,1-1.671-3.111c-3.727-8.965,5.836-25.117,15.375-29.722,5.205-2.513,9.722-1.2,12.385,3.608a10.283,10.283,0,0,1,.542,8.645c-3.189,9.243-16.96,18.534-23.476,21.361a8.192,8.192,0,0,0,4.582,2.083,12.627,12.627,0,0,0,6.644-1.215,13.8,13.8,0,0,1,2.928-5.555c1.961-2.092,4.288-2.6,6.551-1.443a.943.943,0,0,1,.329,1.4,24.14,24.14,0,0,1-8.191,6.89c-.509,2.345-.412,4.72.464,6.189,1.658,2.781,4.9,2.925,6.693,2.762,3.225-.289,6.165-1.921,6.637-3.187a.576.576,0,0,0-.16-.692.942.942,0,1,1,1.359-1.305,2.505,2.505,0,0,1,.735,1.57A2.532,2.532,0,0,1,2718.526,337.091Zm-31.485-13.2a14.549,14.549,0,0,0,1.742,3.135l.417-.174c5.378-2.279,19.527-11.362,22.614-20.319a8.458,8.458,0,0,0-.409-7.117c-2.2-3.984-5.542-4.935-9.914-2.825-7.692,3.714-15.719,16-15.122,24.324A9.536,9.536,0,0,0,2687.042,323.89Zm21.778-.2a3.7,3.7,0,0,0-3.167,1.423,10.206,10.206,0,0,0-1.852,2.936A22.69,22.69,0,0,0,2708.819,323.688Z" transform="translate(-2629.112 -292.209)" fill="#0d0002"/><path d="M2890.662,394.633s3.027,11.314.458,10.145C2889.023,403.827,2890.662,394.633,2890.662,394.633Z" transform="translate(-2730.805 -312.997)" fill="#fff"/><path d="M2878.266,336.338c-.187-.321-.49-.346-.911-.385a3.88,3.88,0,0,1-2.58-.89,2.482,2.482,0,0,0,.384-.164,1.63,1.63,0,0,0,.687-2.258c-.483-1.116-1.127-1.154-1.468-1.079-.95.211-1.3,1.679-1.285,2.418l0,.03a5.6,5.6,0,0,1-3.089-.864.64.64,0,0,0-1.066.707,1.656,1.656,0,0,0,.31.336,7.029,7.029,0,0,0,4.136,1.089c.8,1.682,3.028,1.877,3.857,1.949.07,0,.132.011.183.016a.06.06,0,0,0,.017.008.64.64,0,0,0,.848-.311A.674.674,0,0,0,2878.266,336.338Zm-3.718-2.564a1.2,1.2,0,0,1-.176.079,2.263,2.263,0,0,1,.22-.871Z" transform="translate(-2722.545 -288.436)" fill="#0d0002"/></g></g></g><g transform="matrix(0.998, -0.07, 0.07, 0.998, 171.895, 4076.243)"><g transform="translate(0 0)"><rect width="81.653" height="81.653" transform="translate(3.606 3.606)" fill="#312725"/><path d="M0,.006V88.867l88.865,0V0ZM27.819,57.7H3.606V31.94H27.819ZM31.425,31.94H57.183V57.7H31.425ZM57.183,61.3V85.259H31.425V61.3ZM31.425,28.334V3.606H57.183V28.334ZM60.789,31.94h24.47V57.7H60.789Zm24.47-3.606H60.789V3.606h24.47ZM27.819,3.606V28.334H3.606V3.606ZM3.606,61.3H27.819V85.259H3.606ZM60.789,85.259V61.3h24.47V85.259Z" fill="#694833"/></g><g transform="translate(36.197 6.182)"><path d="M14.222,9.171a1.728,1.728,0,0,0,.406-2.4l-.075-.105a1.728,1.728,0,0,0-2.4-.406L10.192,7.852a.258.258,0,0,1-.42-.2V7.333a.907.907,0,0,1,.381-.739l2.536-1.8a1.568,1.568,0,0,0,.369-2.18L13,2.529a1.567,1.567,0,0,0-2.179-.369l-.764.736c-.283.194-.283-.161-.283-.161V2.261A2.263,2.263,0,0,0,8.265.14V.128C8.18.1,8.092.079,8,.059c-.017,0-.034-.01-.052-.014A1.994,1.994,0,0,0,7.549,0H7.4a2,2,0,0,0-.4.045L6.94.059c-.088.02-.175.041-.26.069V.14A2.263,2.263,0,0,0,5.173,2.261v.474s0,.356-.284.161L4.126,2.16a1.567,1.567,0,0,0-2.179.369l-.059.083a1.568,1.568,0,0,0,.369,2.18l2.536,1.8a.906.906,0,0,1,.381.739v.319a.258.258,0,0,1-.421.2L2.795,6.258a1.728,1.728,0,0,0-2.4.406l-.075.105a1.727,1.727,0,0,0,.406,2.4l3.522,2.5H10.7Z" fill="#f1b709"/><g transform="translate(1.989 1.095)"><path d="M8.59,2.138A.193.193,0,0,0,8.32,2.1L4.508,4.958V.193a.193.193,0,0,0-.387,0V4.958L.309,2.1a.193.193,0,1,0-.232.309L4.121,5.441V10.58h.387V5.441L8.552,2.408A.193.193,0,0,0,8.59,2.138Z" transform="translate(1.031 0)" fill="#f8f6dd"/><path d="M.042.072A.194.194,0,0,0,.073.344L4.5,3.882h.619L.314.042A.194.194,0,0,0,.042.072Z" transform="translate(0 6.698)" fill="#f8f6dd"/><path d="M5.072.072A.194.194,0,0,0,4.8.042L0,3.882H.619L5.042.344A.194.194,0,0,0,5.072.072Z" transform="translate(5.575 6.698)" fill="#f8f6dd"/></g><path d="M14.118.274A.688.688,0,0,0,13.568,0H.689A.689.689,0,0,0,.027.879L2.6,9.894a.689.689,0,0,0,.662.5h7.727a.689.689,0,0,0,.663-.5L14.231.879A.688.688,0,0,0,14.118.274Z" transform="translate(0.344 11.675)" fill="#f8f6dd"/></g><g transform="translate(63.044 38.122)"><rect width="3.606" height="19.576" transform="translate(16.806 0)" fill="#50584e"/><rect width="2.576" height="18.031" transform="translate(14.333 1.545)" fill="#797472"/><rect width="3.606" height="18.031" transform="translate(10.83 1.545)" fill="#f8f6dd"/><rect width="1.545" height="15.455" transform="translate(9.388 4.121)" fill="#b8b5ad"/><rect width="2.061" height="17" transform="translate(7.43 2.576)" fill="#797472"/><rect width="3.091" height="14.424" transform="translate(4.442 5.152)" fill="#b8b5ad"/><rect width="11.334" height="1.546" transform="translate(0 19.219) rotate(-75.963)" fill="#e8ede2"/></g><g transform="translate(33.177 65.757)"><rect width="3.606" height="19.576" transform="translate(18.958 0)" fill="#50584e"/><rect width="2.576" height="18.031" transform="translate(16.485 1.546)" fill="#797472"/><rect width="3.606" height="18.031" transform="translate(12.982 1.546)" fill="#b8b5ad"/><rect width="1.545" height="15.455" transform="translate(11.54 4.121)" fill="#f8f6dd"/><rect width="2.061" height="17" transform="translate(9.582 2.576)" fill="#b8b5ad"/><rect width="3.091" height="14.425" transform="translate(6.594 5.152)" fill="#797472"/><rect width="3.606" height="16.817" transform="translate(0 2.759)" fill="#50584e"/><rect width="2.576" height="15.489" transform="translate(3.812 4.087)" fill="#f8f6dd"/></g><g transform="translate(5.152 36.576)"><rect width="3.606" height="19.576" transform="translate(0 1.545)" fill="#50584e"/><rect width="2.576" height="18.031" transform="translate(3.503 3.091)" fill="#797472"/><rect width="3.606" height="18.031" transform="translate(5.976 3.091)" fill="#f8f6dd"/><rect width="1.545" height="19.201" transform="translate(9.479 1.92)" fill="#d3dcc6"/><rect width="2.061" height="21.122" transform="translate(10.921 0)" fill="#50584e"/><rect width="3.091" height="17.921" transform="translate(12.879 3.2)" fill="#797472"/><rect width="2.576" height="14.499" transform="translate(15.868 6.697)" fill="#b8b5ad"/><rect width="3.606" height="14.499" transform="translate(18.341 6.697)" fill="#f8f6dd"/></g><g transform="translate(63.365 72.638)"><path d="M19.061,0H.515a.515.515,0,1,0,0,1.03v9.425a2.424,2.424,0,0,0,2.424,2.424h13.7a2.423,2.423,0,0,0,2.424-2.424V1.03a.515.515,0,0,0,0-1.03Zm-7.47,4.121H7.985a.773.773,0,0,1,0-1.545h3.606a.773.773,0,1,1,0,1.545Z" fill="#f8f6dd"/></g><g transform="translate(34.359 38.122)"><g transform="translate(6.476 0)"><rect width="13.644" height="19.576" fill="#f8f6dd"/><rect width="10.678" height="14.237" transform="translate(1.483 2.373)" fill="#f1dc9b"/></g><path d="M4.865,5.152H4.387V1.03h.425a.515.515,0,0,0,0-1.03H1.455a.515.515,0,0,0,0,1.03H1.88V5.152H1.4A1.4,1.4,0,0,0,0,6.555v6.467a1.4,1.4,0,0,0,1.4,1.4H4.865a1.4,1.4,0,0,0,1.4-1.4V6.555A1.4,1.4,0,0,0,4.865,5.152Z" transform="translate(4.551 5.152)" fill="#66aba3"/><path d="M0,0,1.717,2.576H6.01L7.727,0Z" transform="translate(0 17)" fill="#fff5e7"/></g><g transform="translate(5.538 68.001)"><path d="M0,0V17.516H5.152V0ZM2.576,15.97a1.288,1.288,0,1,1,1.288-1.288A1.288,1.288,0,0,1,2.576,15.97Z" fill="#f5cf5a"/><path d="M0,0V17.516H5.152V0ZM2.576,15.97a1.288,1.288,0,1,1,1.288-1.288A1.288,1.288,0,0,1,2.576,15.97Z" transform="translate(5.152 0)" fill="#f1b709"/><path d="M0,0V17.516H5.151V0ZM2.576,15.97a1.288,1.288,0,1,1,1.288-1.288A1.288,1.288,0,0,1,2.576,15.97Z" transform="translate(10.303 0)" fill="#f5cf5a"/><path d="M0,0V17.516H5.151V0ZM2.576,15.97a1.288,1.288,0,1,1,1.288-1.288A1.288,1.288,0,0,1,2.576,15.97Z" transform="translate(15.455 0)" fill="#f1b709"/></g><g transform="translate(67.371 17.515)"><g transform="translate(0.258 0)"><path d="M10.1,2.06V1.392a.353.353,0,0,0-.344-.362H9.119V0H1.7V1.03H1.064a.353.353,0,0,0-.344.362V2.06H0v8.758H10.818V2.06ZM8.114,7.251a.605.605,0,0,1-.6.6h-4.2a.6.6,0,0,1-.6-.6V5.112a.605.605,0,0,1,.6-.6h4.2a.605.605,0,0,1,.6.6Z" fill="#f1b709"/><rect width="4.894" height="2.833" rx="1.307" transform="translate(2.962 4.765)" fill="#f1b709"/></g><path d="M0,0V2.06H.978V1.392a.353.353,0,0,1,.344-.362h.635V0Z" fill="#f8f6dd"/><path d="M0,0V1.03H.635a.353.353,0,0,1,.344.362V2.06h.978V0Z" transform="translate(9.377 0)" fill="#f8f6dd"/><path d="M4.8,0H.6A.605.605,0,0,0,0,.6V2.744a.605.605,0,0,0,.6.6H4.8a.605.605,0,0,0,.6-.6V.6A.605.605,0,0,0,4.8,0Zm.347,2.744a.348.348,0,0,1-.347.347H.6a.348.348,0,0,1-.347-.347V.6A.348.348,0,0,1,.6.258H4.8A.348.348,0,0,1,5.151.6Z" transform="translate(2.962 4.508)" fill="#f8f6dd"/></g><g transform="translate(17.54 10.818)"><path d="M4.636,1.6V0a.7.7,0,0,1-.282.061H2.343A.7.7,0,0,1,2.06,0V1.591A3.468,3.468,0,0,0,0,4.8v9.469A.732.732,0,0,0,.732,15H5.965a.732.732,0,0,0,.732-.732V4.82A3.515,3.515,0,0,0,4.636,1.6ZM6.158,12.425H2.036v-6.7H6.158Z" transform="translate(0 2.515)" fill="#257e73"/><path d="M2.712,0H.7A.7.7,0,0,0,0,.7V1.875a.7.7,0,0,0,.418.64A.694.694,0,0,0,.7,2.576H2.712a.694.694,0,0,0,.282-.061.7.7,0,0,0,.418-.64V.7A.7.7,0,0,0,2.712,0Z" transform="translate(1.642 0)" fill="#94c5c2"/><rect width="4.121" height="6.697" transform="translate(2.036 8.243)" fill="#fff5e7"/></g><g transform="translate(11.849 15.455)"><path d="M3.143,1.166V0a.489.489,0,0,1-.209.048H1.605A.487.487,0,0,1,1.4,0V1.162A2.539,2.539,0,0,0,0,3.5v6.909a.514.514,0,0,0,.514.514H4.026a.515.515,0,0,0,.514-.514V3.511A2.575,2.575,0,0,0,3.143,1.166Zm0,7.879H.35V4.172H3.145Z" transform="translate(0 1.826)" fill="#66aba3"/><path d="M1.822,0H.492A.493.493,0,0,0,0,.492v.89a.493.493,0,0,0,.284.444.484.484,0,0,0,.208.048H1.822a.486.486,0,0,0,.208-.048.492.492,0,0,0,.284-.444V.492A.493.493,0,0,0,1.822,0Z" transform="translate(1.113 0)" fill="#c7e2df"/><rect width="2.794" height="4.873" transform="translate(0.35 5.998)" fill="#f8f6dd"/></g></g><g transform="translate(219.27 4137.796)"><path d="M113.068,0a3.322,3.322,0,0,1-3.319,3.231H59.86A3.322,3.322,0,0,1,56.541,0h-.009a3.322,3.322,0,0,1-3.319,3.231H3.324A3.322,3.322,0,0,1,0,0H0V6.715A1.361,1.361,0,0,0,1.361,8.077H2.423V20.192H8.481V8.077h96.112V20.192h6.058V8.077h1.062a1.361,1.361,0,0,0,1.361-1.361V0Z" transform="translate(12.115 49.671)" fill="#694833"/><path d="M134.523,0h-6.555a2.783,2.783,0,0,0-2.78,2.78V13.823a3.323,3.323,0,0,0-3.323-3.324H71.975a3.324,3.324,0,0,0-3.324,3.324A3.324,3.324,0,0,0,65.328,10.5H15.439a3.324,3.324,0,0,0-3.324,3.324V2.78A2.783,2.783,0,0,0,9.335,0H2.78A2.78,2.78,0,0,0,0,2.78V27.1a2.78,2.78,0,0,0,2.78,2.78H9.335a2.78,2.78,0,0,0,2.78-2.78v-5.39a3.324,3.324,0,0,0,3.324,3.324H65.328a3.324,3.324,0,0,0,3.324-3.324,3.324,3.324,0,0,0,3.324,3.324h49.889a3.324,3.324,0,0,0,3.323-3.324V27.1a2.78,2.78,0,0,0,2.78,2.78h6.555a2.78,2.78,0,0,0,2.78-2.78V2.78A2.78,2.78,0,0,0,134.523,0Z" transform="translate(0 27.865)" fill="#2e897d"/><path d="M114.532,0a11.335,11.335,0,0,1-11.265,12.6H62.448a4.654,4.654,0,0,1-4.654-4.654A4.654,4.654,0,0,1,53.14,12.6H12.321A11.336,11.336,0,0,1,1.056,0L0,9.017a2.777,2.777,0,0,1,1.258,2.325V22.385a3.324,3.324,0,0,1,3.324-3.324H54.47a3.324,3.324,0,0,1,3.324,3.324,3.324,3.324,0,0,1,3.324-3.324h49.889a3.323,3.323,0,0,1,3.324,3.324V11.341a2.776,2.776,0,0,1,1.258-2.325Z" transform="translate(10.857 19.303)" fill="#1d695f"/><path d="M113.548,19.3,111.731,3.112h0A3.112,3.112,0,0,0,108.619,0h-48.7A3.112,3.112,0,0,0,56.81,3.112,3.112,3.112,0,0,0,53.7,0H5A3.113,3.113,0,0,0,1.889,3.112h0L.072,19.3A11.336,11.336,0,0,0,11.337,31.9H52.156a4.654,4.654,0,0,0,4.654-4.654A4.654,4.654,0,0,0,61.464,31.9h40.819A11.335,11.335,0,0,0,113.548,19.3ZM32.378,16.667h-.2a2.911,2.911,0,0,0-1.08.209,2.221,2.221,0,0,1-1.629,1.611,2.907,2.907,0,0,0-.219,1.108v.2l-.2.011h-.4v-.2a2.9,2.9,0,0,0-.224-1.12,2.222,2.222,0,0,1-1.621-1.6,2.9,2.9,0,0,0-1.083-.21h-.2v-.617h.2a2.909,2.909,0,0,0,1.061-.2,2.222,2.222,0,0,1,1.675-1.693,2.905,2.905,0,0,0,.192-1.033v-.2h.606v.2a2.911,2.911,0,0,0,.192,1.033,2.222,2.222,0,0,1,1.675,1.693,2.912,2.912,0,0,0,1.061.2h.2Zm56.034,0h-.2a2.908,2.908,0,0,0-1.069.2,2.222,2.222,0,0,1-1.656,1.659,2.911,2.911,0,0,0-.2,1.064v.2l-.2.011h-.4v-.2a2.917,2.917,0,0,0-.207-1.077,2.219,2.219,0,0,1-1.648-1.645,2.907,2.907,0,0,0-1.072-.206h-.2v-.617h.2a2.915,2.915,0,0,0,1.072-.206,2.22,2.22,0,0,1,1.648-1.645,2.911,2.911,0,0,0,.208-1.077v-.2h.606v.2a2.911,2.911,0,0,0,.208,1.077,2.22,2.22,0,0,1,1.648,1.645,2.913,2.913,0,0,0,1.072.206h.2Z" transform="translate(11.841)" fill="#257e73"/><path d="M5.6,2.928A2.221,2.221,0,0,0,3.927,1.235,2.906,2.906,0,0,1,3.736.2V0H3.13V.2a2.909,2.909,0,0,1-.192,1.033A2.222,2.222,0,0,0,1.263,2.928,2.907,2.907,0,0,1,.2,3.13H0v.617H.2a2.905,2.905,0,0,1,1.083.21,2.221,2.221,0,0,0,1.621,1.6,2.911,2.911,0,0,1,.224,1.12v.2h.4l.2-.011v-.2a2.908,2.908,0,0,1,.219-1.108A2.221,2.221,0,0,0,5.583,3.944a2.911,2.911,0,0,1,1.08-.209h.2V3.13h-.2A2.91,2.91,0,0,1,5.6,2.928Z" transform="translate(37.354 12.932)" fill="#1d695f"/><path d="M5.592,2.924A2.222,2.222,0,0,0,3.943,1.279,2.907,2.907,0,0,1,3.735.2V0H3.13V.2a2.907,2.907,0,0,1-.208,1.077A2.22,2.22,0,0,0,1.274,2.924,2.912,2.912,0,0,1,.2,3.13H0v.617H.2a2.912,2.912,0,0,1,1.072.206A2.219,2.219,0,0,0,2.922,5.6,2.917,2.917,0,0,1,3.13,6.675v.2h.4l.2-.011v-.2a2.914,2.914,0,0,1,.2-1.064A2.221,2.221,0,0,0,5.595,3.94a2.912,2.912,0,0,1,1.069-.2h.2V3.13h-.2A2.907,2.907,0,0,1,5.592,2.924Z" transform="translate(93.388 12.932)" fill="#1d695f"/></g><g transform="matrix(0.993, 0.122, -0.122, 0.993, -165.031, 3014.922)"><g transform="translate(865.494 964.148)"><g transform="translate(0 0)"><rect width="74.015" height="5.483" transform="translate(5.165 122.787)" fill="#ceb5a2"/><rect width="83.685" height="118.296" transform="translate(0 8.11)" fill="#f0ddce"/><path d="M2617.847,1409.17h-83.685l5.969-8.11h70.93Z" transform="translate(-2534.163 -1401.06)" fill="#efe3db"/></g><g transform="translate(9.518 15.348)"><path d="M2592.4,1507.495a32.325,32.325,0,1,1,32.325-32.325A32.362,32.362,0,0,1,2592.4,1507.495Z" transform="translate(-2560.074 -1442.845)" fill="#8d7a71"/></g><rect width="20.103" height="28.783" transform="translate(56.683 91.719)" fill="#8d7a71"/><rect width="82.552" height="2.22" transform="translate(0.566 86.986)" fill="#8d7a71"/><rect width="15.42" height="6.511" transform="translate(63.536 11.65)" fill="#8d7a71"/><g transform="translate(12.75 18.58)"><path d="M2630.285,1480.737a29.09,29.09,0,0,0-56.312-10.257l37.477,37.477A29.137,29.137,0,0,0,2630.285,1480.737Z" transform="translate(-2572.1 -1451.645)" fill="#879999"/><path d="M2597.967,1542.273a28.946,28.946,0,0,0,10.258-1.873l-37.477-37.477a29.082,29.082,0,0,0,27.22,39.349Z" transform="translate(-2568.874 -1484.089)" fill="#afc9c8"/></g><rect width="6.853" height="11.879" transform="translate(69.019 41.733)" fill="#8d7a71"/></g><g transform="translate(833.721 1057.299)"><path d="M180.072,88.82V84.984a1.484,1.484,0,0,0-1.485-1.484h-3.819a1.484,1.484,0,0,0-1.484,1.484v3.844c.026,0,.051-.008.078-.008Z" transform="translate(-166.312 -83.5)" fill="#5c9196"/><path d="M180.854,102.088c-3.044-2.214-4.678-4.967-7.155-6.09v-.8a.812.812,0,0,0-.812-.812h-6.814c-.027,0-.052.005-.078.008a.809.809,0,0,0-.734.8v.78c-4.169,1.347-6.238,5.357-6.238,10.521v15.671a4.32,4.32,0,0,0,4.32,4.32h13.375c2.129,0,4.136-.918,6.521-2.936C190.578,117.682,184.89,105.023,180.854,102.088Zm1.883,11.722a4.337,4.337,0,0,1-.915,2.655c-1.088,1.281-4.038.654-4.105-.86l-.48-10.767S183.1,107.713,182.737,113.81Z" transform="translate(-159.023 -89.063)" fill="#acdde2"/><path d="M166.085,113.75c-.519,2.335-1.468,13.025,0,15.227s9.54,2.752,11.375-.367c1.677-2.851-.089-14.4-2.018-16.328C172.873,109.714,166.819,110.447,166.085,113.75Z" transform="translate(-162.232 -97.422)" fill="#5c9196"/></g><g transform="translate(858.83 1080.524)"><path d="M214.9,147.063a.992.992,0,0,0,.975.81H231.1a.992.992,0,0,0,.975-.81l2.033-10.843H212.867Zm2.073-8.779H230v7.282H216.973Z" transform="translate(-211.653 -133.671)" fill="#acdde2"/><path d="M1.217,0H22.451a1.218,1.218,0,0,1,1.218,1.218v.114a1.217,1.217,0,0,1-1.217,1.217H1.217A1.217,1.217,0,0,1,0,1.332V1.217A1.217,1.217,0,0,1,1.217,0Z" transform="translate(0 0)" fill="#5c9196"/><rect width="13.028" height="7.283" transform="translate(5.32 4.612)" fill="#f8fffe"/></g></g></g></svg>