<svg xmlns="http://www.w3.org/2000/svg" width="155.663" height="97.247" viewBox="0 0 155.663 97.247"><g transform="translate(69.148 17.163)"><g transform="translate(-222.323 -3975.725)"><rect width="72" height="13" rx="2" transform="translate(155 4021)" fill="#ffd800"/><path d="M17.05.93c8.928,0,13.64-5.952,13.64-14.384V-36.208c0-8.8-4.278-14.756-13.64-14.756-9.424,0-13.7,5.952-13.7,14.756v22.754C3.348-4.9,8,.93,17.05.93Zm0-9.238c-2.852,0-3.1-3.472-3.1-5.394V-35.96c0-2.046-.062-5.766,3.1-5.766,3.1,0,3.1,3.72,3.1,5.766V-13.7C20.15-11.78,19.964-8.308,17.05-8.308Z" transform="translate(163 4029)" fill="#1a1311"/><path d="M3.216,1.776a1.275,1.275,0,0,1-.948-.408,1.333,1.333,0,0,1-.4-.96V-17.448a1.333,1.333,0,0,1,.4-.96,1.275,1.275,0,0,1,.948-.408H20.784a1.275,1.275,0,0,1,.948.408,1.333,1.333,0,0,1,.4.96V-2.616q0,1.1-.036,1.728a5.019,5.019,0,0,1-.2,1.176,2.137,2.137,0,0,1-.384.792,1.683,1.683,0,0,1-.744.408,4.566,4.566,0,0,1-1.1.2q-.576.036-1.608.036-1.344,0-2.664-.048a1.43,1.43,0,0,1-.984-.432,1.53,1.53,0,0,1-.456-.984l-.024-.5a1.2,1.2,0,0,1,.36-.924,1.178,1.178,0,0,1,.936-.372q1.056.048,2.016.048a2,2,0,0,0,.936-.12q.144-.12.144-.84V-6.6a.17.17,0,0,0-.192-.192H5.88a.17.17,0,0,0-.192.192V.408a1.314,1.314,0,0,1-.408.96,1.314,1.314,0,0,1-.96.408Zm10.656-17.16v5.256q0,.216.192.216H18.12q.192,0,.192-.216v-5.256q0-.216-.192-.216H14.064Q13.872-15.6,13.872-15.384Zm-8.184,0v5.256q0,.216.192.216H9.936a.191.191,0,0,0,.216-.216v-5.256a.191.191,0,0,0-.216-.216H5.88Q5.688-15.6,5.688-15.384Z" transform="translate(197 4026)" fill="#1a1311"/><path d="M2.016-2.044a.751.751,0,0,1-.567-.217.783.783,0,0,1-.259-.553l-.014-.448a.729.729,0,0,1,.217-.56.8.8,0,0,1,.553-.252l3.822-.14q.112,0,.112-.126L5.67-6.678q0-.112-.126-.112l-2.968.1a.763.763,0,0,1-.567-.21.76.76,0,0,1-.259-.546L1.736-7.9a.751.751,0,0,1,.217-.567.783.783,0,0,1,.553-.259l2.856-.1a.1.1,0,0,0,.112-.112l-.112-1.26a.74.74,0,0,1,.182-.567.763.763,0,0,1,.532-.273l.8-.07a.823.823,0,0,1,.581.2.768.768,0,0,1,.287.539l.112,1.344q0,.112.126.112l3.472-.126a.751.751,0,0,1,.567.217.783.783,0,0,1,.259.553l.014.434a.751.751,0,0,1-.217.567A.783.783,0,0,1,11.522-7l-3.36.112q-.1,0-.1.126l.21,2.352q0,.112.126.112l3.612-.126a.751.751,0,0,1,.567.217.783.783,0,0,1,.259.553l.014.434a.751.751,0,0,1-.217.567.783.783,0,0,1-.553.259l-3.5.112q-.112,0-.112.126l.2,2.268a.74.74,0,0,1-.182.567.763.763,0,0,1-.532.273l-.8.07a.823.823,0,0,1-.581-.2A.768.768,0,0,1,6.286.28l-.21-2.352q0-.112-.126-.112Zm14-2.772-.056-.322a.77.77,0,0,1,.126-.588.792.792,0,0,1,.5-.336l1.47-.294q.126-.028.1-.14l-.21-1.162a.775.775,0,0,1,.133-.595.758.758,0,0,1,.511-.329l.5-.084a.76.76,0,0,1,.595.14.782.782,0,0,1,.329.518l.2,1.106q.028.126.14.1l4.41-.882a.77.77,0,0,1,.588.126.792.792,0,0,1,.336.5l.056.322a2.767,2.767,0,0,1-.084,1.526,9.306,9.306,0,0,1-1.568,2.772.769.769,0,0,1-.56.287.855.855,0,0,1-.6-.189L22.6-2.59a.657.657,0,0,1-.28-.5.781.781,0,0,1,.168-.567A9.107,9.107,0,0,0,23.618-5.4q.028-.028,0-.07a.057.057,0,0,0-.07-.028l-2.87.574q-.126.028-.1.14l.8,4.508a.775.775,0,0,1-.133.6.758.758,0,0,1-.511.329l-.5.084a.76.76,0,0,1-.595-.14A.782.782,0,0,1,19.306.07l-.784-4.452q-.028-.126-.14-.1l-1.442.294a.77.77,0,0,1-.588-.126A.792.792,0,0,1,16.016-4.816ZM30.2-8.274a.719.719,0,0,1-.392-.448.72.72,0,0,1,.056-.588l.322-.63a.8.8,0,0,1,.469-.4.825.825,0,0,1,.623.035q1.442.686,2.954,1.47a.7.7,0,0,1,.385.462.769.769,0,0,1-.063.6l-.364.63a.778.778,0,0,1-.469.378.771.771,0,0,1-.609-.056Q31.654-7.574,30.2-8.274Zm9.94-.686a.784.784,0,0,1,.5.343.746.746,0,0,1,.112.6A10.137,10.137,0,0,1,37.513-2.3,12.319,12.319,0,0,1,30.926.266a.794.794,0,0,1-.6-.161A.824.824,0,0,1,30-.434l-.1-.644a.7.7,0,0,1,.14-.567.747.747,0,0,1,.518-.3,10.64,10.64,0,0,0,5.327-2.03A8.372,8.372,0,0,0,38.584-8.5a.812.812,0,0,1,.357-.5.762.762,0,0,1,.595-.1Zm2.226,2.478L42.294-7a.764.764,0,0,1,.154-.581.8.8,0,0,1,.518-.315l2.184-.336a.132.132,0,0,0,.112-.14V-10.22a.766.766,0,0,1,.238-.56.766.766,0,0,1,.56-.238h.672a.766.766,0,0,1,.56.238.766.766,0,0,1,.238.56v1.512q0,.126.112.1l6.034-.924a.727.727,0,0,1,.588.147.763.763,0,0,1,.308.525l.084.518a2.353,2.353,0,0,1-.238,1.484,12.636,12.636,0,0,1-2.632,3.332.736.736,0,0,1-.574.2.862.862,0,0,1-.574-.259l-.42-.434a.723.723,0,0,1-.21-.546A.756.756,0,0,1,50.26-5.1a12.079,12.079,0,0,0,1.722-1.946.047.047,0,0,0,.007-.063q-.021-.035-.049-.021l-4.3.644a.132.132,0,0,0-.112.14v2.9q0,.476.014.749a1.984,1.984,0,0,0,.091.511.926.926,0,0,0,.168.336.78.78,0,0,0,.322.175,1.828,1.828,0,0,0,.476.091q.245.014.693.014a34.616,34.616,0,0,0,4.116-.238.729.729,0,0,1,.574.161.684.684,0,0,1,.266.525l.014.448a.805.805,0,0,1-.182.595.756.756,0,0,1-.546.287,43.807,43.807,0,0,1-4.83.252A3.93,3.93,0,0,1,45.99-.245a3.815,3.815,0,0,1-.728-2.723V-5.992a.132.132,0,0,0-.035-.084A.068.068,0,0,0,45.15-6.1l-1.89.294a.727.727,0,0,1-.588-.147A.763.763,0,0,1,42.364-6.482ZM63.042.56a.7.7,0,0,1-.553-.224.778.778,0,0,1-.231-.56V-9.87a.778.778,0,0,1,.231-.56.744.744,0,0,1,.553-.238H63.8a.744.744,0,0,1,.553.238.778.778,0,0,1,.231.56v7.938q0,.1.126.07a2.781,2.781,0,0,0,1.456-1.155,6.252,6.252,0,0,0,.756-2.345.837.837,0,0,1,.308-.525.729.729,0,0,1,.574-.161l.574.084a.787.787,0,0,1,.532.308.758.758,0,0,1,.168.588A6.789,6.789,0,0,1,67.193-.9,6.264,6.264,0,0,1,63.042.56ZM56.868.084,56.49-.5a.711.711,0,0,1-.091-.574.749.749,0,0,1,.357-.476,3.656,3.656,0,0,0,.91-.756,2.985,2.985,0,0,0,.518-1.127,8.525,8.525,0,0,0,.252-1.687q.056-.952.056-2.646v-2.1a.766.766,0,0,1,.238-.56.766.766,0,0,1,.56-.238h.7a.766.766,0,0,1,.56.238.766.766,0,0,1,.238.56v2.1a26.131,26.131,0,0,1-.259,4.151,6.518,6.518,0,0,1-.84,2.436A4.892,4.892,0,0,1,58.016.364a.808.808,0,0,1-.623.084A.891.891,0,0,1,56.868.084ZM77.476-3.864q-.644-.7-1.708-1.736a.711.711,0,0,1-.217-.539.738.738,0,0,1,.245-.539l.28-.266a.866.866,0,0,1,.6-.224.816.816,0,0,1,.581.224q.728.686,1.68,1.68a.758.758,0,0,1,.21.574.785.785,0,0,1-.252.56l-.308.294a.728.728,0,0,1-.553.217A.753.753,0,0,1,77.476-3.864Zm4.914.224a.71.71,0,0,1,.567.133A.678.678,0,0,1,83.244-3l.028.294a.887.887,0,0,1-.168.609.79.79,0,0,1-.532.329l-.364.07a.132.132,0,0,0-.112.14V.56a.766.766,0,0,1-.238.56.766.766,0,0,1-.56.238h-.574a.766.766,0,0,1-.56-.238.766.766,0,0,1-.238-.56V-1.148a.1.1,0,0,0-.042-.077.084.084,0,0,0-.084-.021l-3.556.672A.725.725,0,0,1,75.677-.7a.657.657,0,0,1-.287-.5l-.028-.308a.834.834,0,0,1,.1-.5.9.9,0,0,1-.168.21l-.056.056a.524.524,0,0,1-.5.133.533.533,0,0,1-.4-.329q-.07-.168-.217-.5t-.217-.5a.04.04,0,0,0-.028-.014q-.014,0-.014.028V.56a.766.766,0,0,1-.238.56.766.766,0,0,1-.56.238h-.378a.744.744,0,0,1-.553-.238A.778.778,0,0,1,71.9.56V-2.324a.022.022,0,0,0-.014-.021.023.023,0,0,0-.028.007A9.447,9.447,0,0,1,71.008-.56a.371.371,0,0,1-.392.189.419.419,0,0,1-.35-.273L70-1.344a1.468,1.468,0,0,1,.21-1.386A10.55,10.55,0,0,0,71.456-5.1q.028-.112-.084-.112h-.518a.754.754,0,0,1-.553-.231.754.754,0,0,1-.231-.553v-.182a.754.754,0,0,1,.231-.553.754.754,0,0,1,.553-.231h.966a.111.111,0,0,0,.126-.126V-7.49q0-.1-.112-.07l-.378.126a.686.686,0,0,1-.581-.035.7.7,0,0,1-.371-.455q-.308-1.2-.434-1.652a.756.756,0,0,1,.056-.6.822.822,0,0,1,.476-.406.7.7,0,0,1,.6.042.721.721,0,0,1,.371.462q.14.49.35,1.372a.04.04,0,0,0,.028-.014V-10.64a.766.766,0,0,1,.238-.56.766.766,0,0,1,.56-.238h.266a.766.766,0,0,1,.56.238.766.766,0,0,1,.238.56v1.862q0,.014.021.014t.021-.014a13.4,13.4,0,0,0,.35-1.358.784.784,0,0,1,.343-.5.746.746,0,0,1,.595-.112h.042a.778.778,0,0,1,.5.35.7.7,0,0,1,.1.588q-.238,1.008-.532,1.9a.719.719,0,0,1-.392.448.751.751,0,0,1-.6.028l-.336-.14q-.112-.028-.112.084v.406a.111.111,0,0,0,.126.126h.7a.778.778,0,0,1,.56.231.744.744,0,0,1,.238.553v.182a.744.744,0,0,1-.238.553.778.778,0,0,1-.56.231H74.55a.069.069,0,0,0-.063.035.047.047,0,0,0,.007.063q.35.672,1.036,2.044a1.022,1.022,0,0,1-.042.994.808.808,0,0,1,.574-.378l3.738-.7a.137.137,0,0,0,.126-.14V-8.134a.059.059,0,0,0-.035-.049q-.035-.021-.049.007l-.63.6a.749.749,0,0,1-.567.21.777.777,0,0,1-.553-.252q-.686-.728-1.316-1.344a.759.759,0,0,1-.238-.553.714.714,0,0,1,.238-.539l.294-.266a.866.866,0,0,1,.6-.224.79.79,0,0,1,.581.238q.91.868,1.6,1.61.014.028.049.014t.035-.042V-10.64a.766.766,0,0,1,.238-.56.766.766,0,0,1,.56-.238H81.3a.766.766,0,0,1,.56.238.766.766,0,0,1,.238.56v6.93q0,.126.112.1Z" transform="translate(152 3970)" fill="#1a1311"/></g><path d="M8.027,47.875.057,107.459c-.479,3.577,2.21,6.478,6,6.478H59.991a7.88,7.88,0,0,0,7.739-6.478L75.7,47.875Zm0,0" transform="translate(0 -39.37)" fill="#c9b77d"/><path d="M125.971,112.515l-10.7-64.648H47.6l10.7,64.648a8.427,8.427,0,0,0,7.934,6.932h54.1A5.668,5.668,0,0,0,125.971,112.515Zm0,0" transform="translate(-39.554 -39.363)" fill="#ffeead"/><path d="M115.271,47.867H47.6L50.384,64.7h67.673Zm0,0" transform="translate(-39.554 -39.363)" fill="#03a58e"/><path d="M402.294,208.754h-5.961l1.008,6.09H403.3Zm0,0" transform="translate(-329.362 -173.065)" fill="#ff6f69"/><g transform="translate(19.829 35.689)"><path d="M355.794,208.754h-5.962l1.008,6.09H356.8Zm0,0" transform="translate(-310.548 -208.754)" fill="#96ceb4"/><path d="M309.294,208.754h-5.962l1.008,6.09H310.3Zm0,0" transform="translate(-271.905 -208.754)" fill="#96ceb4"/><path d="M262.8,208.754H256.84l1.008,6.09h5.962Zm0,0" transform="translate(-233.269 -208.754)" fill="#96ceb4"/><path d="M216.3,208.754H210.34l1.008,6.09h5.962Zm0,0" transform="translate(-194.626 -208.754)" fill="#96ceb4"/><path d="M169.8,208.754H163.84l1.008,6.09h5.962Zm0,0" transform="translate(-155.983 -208.754)" fill="#96ceb4"/><path d="M123.305,208.754h-5.962l1.008,6.09h5.962Zm0,0" transform="translate(-117.344 -208.754)" fill="#96ceb4"/></g><path d="M409.975,255.176h-5.963l1.008,6.09h5.963Zm0,0" transform="translate(-335.743 -211.643)" fill="#ff6f69"/><path d="M363.481,255.176H357.52l1.008,6.09h5.962Zm0,0" transform="translate(-297.107 -211.643)" fill="#96ceb4"/><path d="M316.981,255.176H311.02l1.008,6.09h5.962Zm0,0" transform="translate(-258.464 -211.643)" fill="#96ceb4"/><path d="M270.482,255.176H264.52l1.009,6.09h5.962Zm0,0" transform="translate(-219.822 -211.643)" fill="#96ceb4"/><path d="M223.985,255.176h-5.962l1.008,6.09h5.962Zm0,0" transform="translate(-181.182 -211.643)" fill="#96ceb4"/><path d="M177.485,255.176h-5.962l1.008,6.09h5.962Zm0,0" transform="translate(-142.539 -211.643)" fill="#96ceb4"/><path d="M130.986,255.176h-5.963l1.009,6.09h5.962Zm0,0" transform="translate(-103.897 -211.643)" fill="#96ceb4"/><path d="M417.661,301.6H411.7l1.008,6.09h5.962Zm0,0" transform="translate(-342.132 -250.224)" fill="#ff6f69"/><path d="M371.161,301.6H365.2l1.009,6.09h5.962Zm0,0" transform="translate(-303.489 -250.224)" fill="#96ceb4"/><path d="M324.665,301.6H318.7l1.008,6.09h5.962Zm0,0" transform="translate(-264.85 -250.224)" fill="#96ceb4"/><path d="M278.165,301.6H272.2l1.008,6.09h5.962Zm0,0" transform="translate(-226.207 -250.224)" fill="#96ceb4"/><path d="M231.666,301.6H225.7l1.009,6.09h5.962Zm0,0" transform="translate(-187.564 -250.224)" fill="#96ceb4"/><path d="M185.169,301.6h-5.962l1.008,6.09h5.962Zm0,0" transform="translate(-148.925 -250.224)" fill="#96ceb4"/><path d="M138.669,301.6h-5.962l1.008,6.09h5.962Zm0,0" transform="translate(-110.282 -250.224)" fill="#96ceb4"/><path d="M425.344,348.023h-5.962l1.008,6.089h5.962Zm0,0" transform="translate(-348.517 -288.802)" fill="#ff6f69"/><path d="M378.844,348.023h-5.962l1.008,6.089h5.962Zm0,0" transform="translate(-309.874 -288.802)" fill="#96ceb4"/><path d="M332.349,348.023h-5.962l1.008,6.089h5.962Zm0,0" transform="translate(-271.235 -288.802)" fill="#96ceb4"/><path d="M285.849,348.023h-5.962l1.008,6.089h5.962Zm0,0" transform="translate(-232.592 -288.802)" fill="#96ceb4"/><path d="M239.349,348.023h-5.962l1.008,6.089h5.962Zm0,0" transform="translate(-193.949 -288.802)" fill="#96ceb4"/><path d="M192.856,348.023h-5.962l1.008,6.089h5.962Zm0,0" transform="translate(-155.313 -288.802)" fill="#96ceb4"/><path d="M146.356,348.023h-5.962l1.008,6.089h5.962Zm0,0" transform="translate(-116.67 -288.802)" fill="#96ceb4"/><path d="M388.083,78.91a2.1,2.1,0,0,0-1.815,2.405,2.322,2.322,0,0,0,2.021,2.405,2.1,2.1,0,0,0,1.815-2.405A2.321,2.321,0,0,0,388.083,78.91Zm0,0" transform="translate(-320.996 -65.161)" fill="#025035"/><path d="M380.983,70.262a3.459,3.459,0,0,0-3.183,3.867,3.834,3.834,0,0,0,3.514,3.867,3.46,3.46,0,0,0,3.183-3.867A3.835,3.835,0,0,0,380.983,70.262Zm.268,6.272a2.322,2.322,0,0,1-2.021-2.405,2.1,2.1,0,0,1,1.815-2.405,2.322,2.322,0,0,1,2.021,2.405A2.1,2.1,0,0,1,381.251,76.533Zm0,0" transform="translate(-313.957 -57.974)" fill="#016e48"/><path d="M360.725.5c-2.968,0-5.17,3.459-5.189,8h2.712c.052-3.034,1.35-5.082,2.6-5.082,1.345,0,2.943,2.369,3.088,5.769.121,2.812-.814,4.919-1.9,5.564a1.391,1.391,0,0,0-.647,1.275,1.416,1.416,0,0,0,1.985,1.334c2.084-1.2,3.438-4.364,3.275-8.172C366.441,4.318,363.839.5,360.725.5Zm0,0" transform="translate(-295.458)" fill="#c9b77d"/><path d="M316.04,78.91a2.1,2.1,0,0,0-1.815,2.405,2.322,2.322,0,0,0,2.021,2.405,2.1,2.1,0,0,0,1.815-2.405A2.321,2.321,0,0,0,316.04,78.91Zm0,0" transform="translate(-261.125 -65.161)" fill="#025035"/><path d="M308.932,70.262a3.46,3.46,0,0,0-3.183,3.867,3.835,3.835,0,0,0,3.514,3.867,3.459,3.459,0,0,0,3.183-3.867A3.833,3.833,0,0,0,308.932,70.262Zm.269,6.272a2.322,2.322,0,0,1-2.021-2.405A2.1,2.1,0,0,1,309,71.723a2.321,2.321,0,0,1,2.021,2.405A2.1,2.1,0,0,1,309.2,76.533Zm0,0" transform="translate(-254.082 -57.974)" fill="#016e48"/><path d="M288.682.5c-2.968,0-5.17,3.459-5.189,8H286.2c.052-3.034,1.35-5.082,2.6-5.082,1.345,0,2.943,2.369,3.089,5.769.12,2.812-.814,4.919-1.9,5.564a1.39,1.39,0,0,0-.647,1.275,1.416,1.416,0,0,0,1.985,1.334c2.084-1.2,3.438-4.364,3.274-8.172C294.4,4.318,291.8.5,288.682.5Zm0,0" transform="translate(-235.588)" fill="#c9b77d"/><path d="M243.992,78.91a2.1,2.1,0,0,0-1.815,2.405,2.321,2.321,0,0,0,2.02,2.405,2.1,2.1,0,0,0,1.815-2.405A2.319,2.319,0,0,0,243.992,78.91Zm0,0" transform="translate(-201.252 -65.161)" fill="#025035"/><path d="M236.889,70.262a3.459,3.459,0,0,0-3.183,3.867,3.835,3.835,0,0,0,3.514,3.867,3.459,3.459,0,0,0,3.183-3.867A3.835,3.835,0,0,0,236.889,70.262Zm.269,6.272a2.321,2.321,0,0,1-2.021-2.405,2.094,2.094,0,0,1,1.815-2.405,2.322,2.322,0,0,1,2.021,2.405A2.1,2.1,0,0,1,237.158,76.533Zm0,0" transform="translate(-194.212 -57.974)" fill="#016e48"/><path d="M216.639.5c-2.968,0-5.17,3.459-5.189,8h2.712c.052-3.034,1.35-5.082,2.6-5.082,1.344,0,2.943,2.369,3.088,5.769.121,2.812-.814,4.919-1.9,5.564a1.391,1.391,0,0,0-.647,1.275,1.416,1.416,0,0,0,1.985,1.334c2.084-1.2,3.438-4.364,3.275-8.172C222.355,4.318,219.752.5,216.639.5Zm0,0" transform="translate(-175.719)" fill="#c9b77d"/><path d="M171.946,78.91a2.1,2.1,0,0,0-1.815,2.405,2.322,2.322,0,0,0,2.021,2.405,2.1,2.1,0,0,0,1.815-2.405A2.32,2.32,0,0,0,171.946,78.91Zm0,0" transform="translate(-141.38 -65.161)" fill="#025035"/><path d="M164.846,70.262a3.459,3.459,0,0,0-3.183,3.867,3.835,3.835,0,0,0,3.514,3.867,3.459,3.459,0,0,0,3.183-3.867A3.835,3.835,0,0,0,164.846,70.262Zm.268,6.272a2.322,2.322,0,0,1-2.021-2.405,2.1,2.1,0,0,1,1.815-2.405,2.321,2.321,0,0,1,2.021,2.405A2.1,2.1,0,0,1,165.114,76.533Zm0,0" transform="translate(-134.342 -57.974)" fill="#016e48"/><path d="M144.591.5c-2.968,0-5.17,3.459-5.189,8h2.712c.051-3.034,1.349-5.082,2.6-5.082,1.345,0,2.943,2.369,3.088,5.769.12,2.812-.814,4.919-1.9,5.564a1.389,1.389,0,0,0-.647,1.275,1.416,1.416,0,0,0,1.986,1.334c2.084-1.2,3.438-4.364,3.274-8.172C150.309,4.318,147.706.5,144.591.5Zm0,0" transform="translate(-115.846)" fill="#c9b77d"/><path d="M99.9,78.91a2.1,2.1,0,0,0-1.815,2.405,2.322,2.322,0,0,0,2.021,2.405,2.1,2.1,0,0,0,1.815-2.405A2.32,2.32,0,0,0,99.9,78.91Zm0,0" transform="translate(-81.51 -65.161)" fill="#025035"/><path d="M92.8,70.262a3.459,3.459,0,0,0-3.183,3.867,3.835,3.835,0,0,0,3.514,3.867,3.459,3.459,0,0,0,3.183-3.867A3.835,3.835,0,0,0,92.8,70.262Zm.268,6.272a2.322,2.322,0,0,1-2.021-2.405,2.1,2.1,0,0,1,1.815-2.405,2.321,2.321,0,0,1,2.021,2.405A2.1,2.1,0,0,1,93.071,76.533Zm0,0" transform="translate(-74.472 -57.974)" fill="#016e48"/><path d="M72.545.5c-2.968,0-5.17,3.459-5.189,8h2.713c.051-3.034,1.349-5.082,2.6-5.082,1.344,0,2.943,2.369,3.088,5.769.12,2.812-.814,4.919-1.9,5.564a1.39,1.39,0,0,0-.648,1.275A1.417,1.417,0,0,0,75.2,17.363c2.084-1.2,3.438-4.364,3.275-8.172C78.261,4.318,75.66.5,72.545.5Zm0,0" transform="translate(-55.973)" fill="#c9b77d"/></g></svg>