<svg xmlns="http://www.w3.org/2000/svg" xmlns:xlink="http://www.w3.org/1999/xlink" width="127.019" height="191.376" viewBox="0 0 127.019 191.376"><defs><clipPath id="a"><rect width="127.019" height="191.376" transform="translate(0 0)" fill="#fff" stroke="#707070" stroke-width="1"/></clipPath></defs><g clip-path="url(#a)"><g transform="translate(-4.438 0)"><g transform="translate(0 0)"><path d="M515.081,626.117s7.461.067,18.7,20.231,14.752,79.1,14.752,79.1l-12.909-.76Z" transform="translate(-416.232 -474.335)" fill="#e4a643"/><path d="M601.606,251.135c.493,5.931,5.509,35.873,5.509,35.873l70.381-3.441a208.146,208.146,0,0,0,2.247-32.677,95.8,95.8,0,0,0-1.477-15.9c-1.086-5.654-2.876-10.567-5.614-13.868-6.636-8-16.745-11.407-24.711-12.845a65.321,65.321,0,0,0-9.023-.948c-1.965-.073-3.158,0-3.158,0l-.176.035-7.758,2.034a30.8,30.8,0,0,0-2.983,1.548C617.576,215.085,599.678,227.722,601.606,251.135Z" transform="translate(-575.061 -189.287)" fill="#c6654d"/><path d="M613.486,318.982c-.386,17.03,13.478,31.158,30.968,31.55,17.474.388,31.97-13.1,32.343-30.13.386-17.04-13.474-31.151-30.959-31.54C628.349,288.453,613.867,301.947,613.486,318.982Z" transform="translate(-575.929 -244.793)" fill="#edbf98"/><path d="M796.272,361.62a10.028,10.028,0,1,0,10.256-9.81A10.031,10.031,0,0,0,796.272,361.62Z" transform="translate(-773.833 -287.64)" fill="#edbf98"/><path d="M676.753,264.568a57.018,57.018,0,0,1,2.335,10.06c.245,1.946,1.387,6.57-.046,8.165-2.037-2.765-2.893-6.363-5.271-8.99a83.664,83.664,0,0,0-10.22-9.774c-.057,2.247.775,4.184,1.45,6.24-4.468-1.926-8.765-6.306-12.1-9.754-3.1,4.82-9.266,8.172-13.891,11.13-4.059,2.6-10.1,6.69-14.909,7.438,1.762-4.053,4.652-7.684,5.205-12.252-3.048,3.555-4.74,8.39-7.909,12.064-2.784,3.238-5.109,6.354-8.9,8.2-3.4-7.107-6.105-13.591-4.486-21.956,1.218-6.259,5-12.017,9.149-16.572,4.082-4.493,9.687-6.835,15.446-8.205,1.9-.455,4.633.111,6.434-.893a9.423,9.423,0,0,1,5.045-1.164c9.008.088,17.158,4.127,23.881,10.182C672.836,252.87,674.759,258.221,676.753,264.568Z" transform="translate(-576.977 -210.392)" fill="#c6654d"/><path d="M658.351,353.391a3.18,3.18,0,0,0,1.532,4.035,2.791,2.791,0,0,0,3.75-1.642,3.176,3.176,0,0,0-1.55-4.03A2.793,2.793,0,0,0,658.351,353.391Z" transform="translate(-577.235 -287.441)" fill="#0d0002"/><path d="M729.819,353.391a3.181,3.181,0,0,0,1.533,4.035,2.794,2.794,0,0,0,3.752-1.642,3.179,3.179,0,0,0-1.546-4.03A2.8,2.8,0,0,0,729.819,353.391Z" transform="translate(-671.534 -287.441)" fill="#0d0002"/><path d="M698.554,374.741a.741.741,0,0,0,.542-.234c.269-.286.571-.555.863-.815.972-.867,2.074-1.851,2.026-3.614-.033-1.061-.836-3.3-1.968-6.346-.468-1.258-.909-2.447-1.042-2.971a.744.744,0,1,0-1.443.366c.152.6.586,1.77,1.09,3.124a35.215,35.215,0,0,1,1.875,5.871c.028,1.02-.533,1.572-1.529,2.459-.316.282-.642.573-.955.906a.744.744,0,0,0,.542,1.255Z" transform="translate(-627.948 -293.352)" fill="#0d0002"/><path d="M601.563,209.773l2.353,8.285c.49-1.441,1.088-2.88,1.615-4.109a96.4,96.4,0,0,1,5.158-10.847c4.178-7.579,9.62-15.339,17.414-19.793,12.529-7.161,27.553-1.088,36.888,8.6a37,37,0,0,1,4.987,6.423,81.293,81.293,0,0,1,5.79,10.917c.455,1.051.879,2.142,1.3,3.265a68.361,68.361,0,0,0-1.477-13.455c-1.509-2.349-6.629-12.238-15.617-18.138a42.03,42.03,0,0,0-10.881-4.911c-2.424-.738-7.374-1.615-9.726-.318a15.538,15.538,0,0,0,5.9-5.788.883.883,0,0,0,.21-.285c3.369-5.684,3.9-13.262.529-18.706-3.831,3.087-6.918,9.23-8.673,13.724a20.845,20.845,0,0,0-1.02,3.757,3.211,3.211,0,0,0-.07.562,66.122,66.122,0,0,1-1.4,8.035,26.148,26.148,0,0,0-1.931-8,24.506,24.506,0,0,0-1.858-3.691c-3.161-5.157-15.869-11.861-15.869-11.861s-2.526-3.195,0,10.077a12.515,12.515,0,0,0,3.968,6.773,19.041,19.041,0,0,0,3.018,2.284,34.42,34.42,0,0,0,9.513,3.894c-10.109-1.687-18.883,9.617-23.237,16.916A69.3,69.3,0,0,0,601.563,209.773Z" transform="translate(-572.387 -150.908)" fill="#4c8fc4"/><path d="M681.257,513.881l-17.192-.791,4.79-4.509c4.789-4.51,7.048-36.356,7.048-36.356h5.917v.06l0-.06h5.918s2.256,31.846,7.047,36.356l4.792,4.509-17.2.791v.054l-.563-.024-.563.024Z" transform="translate(-614.859 -369.596)" fill="#edbf98"/><path d="M526.206,815.606l20.436-190.763,29.286-27.6,36.273.583,26.336,29.262,16.42,186.842Z" transform="translate(-526.206 -454.685)" fill="#e4a643"/><path d="M785.536,597.246s16.887,104.774,6.08,118.128-48.323,10.173-48.323,10.173,4.69-91.8,12.716-104.911S785.536,597.246,785.536,597.246Z" transform="translate(-735.814 -454.685)" fill="#e4a643"/><path d="M553.651,597.246s-16.886,104.774-6.079,118.128,44.589,11.944,44.589,11.944-2.344-92.819-8.982-106.682C576.326,606.329,553.651,597.246,553.651,597.246Z" transform="translate(-469.081 -454.685)" fill="#e4a643"/><path d="M710.311,277.75a.9.9,0,0,0,.577-.208,12.35,12.35,0,0,0,1.6-1.615.908.908,0,1,0-1.394-1.163,10.573,10.573,0,0,1-1.359,1.378.907.907,0,0,0,.579,1.607Zm4.349-5.9a.907.907,0,0,0,.8-.469c.2-.357.386-.706.566-1.037l.446-.822a.908.908,0,1,0-1.6-.862l-.444.819c-.178.328-.364.671-.559,1.025a.907.907,0,0,0,.794,1.346Zm3.228-6.622a.909.909,0,0,0,.848-.582c.265-.687.5-1.376.712-2.046a.908.908,0,1,0-1.734-.538c-.2.632-.422,1.282-.672,1.931a.909.909,0,0,0,.847,1.234Zm1.728-7.141a.908.908,0,0,0,.9-.831c.05-.6.076-1.2.076-1.783,0-.139,0-.278,0-.417a.908.908,0,0,0-1.815.038q0,.189,0,.379c0,.536-.023,1.084-.07,1.629a.908.908,0,0,0,.828.981C719.564,258.083,719.59,258.084,719.615,258.084Z" transform="translate(-650.357 -221.185)" fill="#e17632"/><path d="M740.222,293.646a.9.9,0,0,0,.568-.2c.119-.1.235-.195.347-.3a.908.908,0,1,0-1.219-1.345q-.128.116-.264.225a.908.908,0,0,0,.569,1.616Zm2.944-4.75a.907.907,0,0,0,.857-.611c.222-.638.42-1.286.612-1.912l.039-.126a.908.908,0,1,0-1.736-.532l-.039.127c-.187.61-.38,1.242-.591,1.849a.909.909,0,0,0,.858,1.205Zm2.371-6.979a.909.909,0,0,0,.852-.6c.24-.654.484-1.306.736-1.955a.908.908,0,1,0-1.692-.658c-.257.66-.5,1.323-.749,1.987a.908.908,0,0,0,.852,1.221Zm2.884-6.777a.908.908,0,0,0,.816-.508q.486-.925.976-1.818a.908.908,0,0,0-1.591-.874q-.5.909-.991,1.846l-.024.047a.908.908,0,0,0,.814,1.308Zm3.682-6.382a.908.908,0,0,0,.763-.414c.382-.589.771-1.166,1.158-1.716a.908.908,0,1,0-1.484-1.046c-.4.568-.8,1.165-1.2,1.774a.908.908,0,0,0,.761,1.4Zm4.447-5.869a.9.9,0,0,0,.676-.3c.458-.512.933-1.017,1.412-1.5a.908.908,0,1,0-1.291-1.276c-.5.505-1,1.032-1.473,1.567a.907.907,0,0,0,.676,1.513Z" transform="translate(-698.216 -224.843)" fill="#e17632"/><path d="M633.569,299.02c.029,0,.057,0,.086,0a.907.907,0,0,0,.819-.988,21.734,21.734,0,0,0-.321-2.175.908.908,0,0,0-1.781.352,19.916,19.916,0,0,1,.295,1.992A.908.908,0,0,0,633.569,299.02Zm-1.778-7.137a.908.908,0,0,0,.85-1.225c-.244-.654-.512-1.326-.8-2a.908.908,0,1,0-1.67.712c.274.644.532,1.289.766,1.918A.908.908,0,0,0,631.791,291.884Zm-3.088-6.692a.908.908,0,0,0,.8-1.343c-.341-.623-.7-1.249-1.061-1.859a.908.908,0,0,0-1.56.929c.352.592.7,1.2,1.029,1.8A.908.908,0,0,0,628.7,285.191Zm-3.945-6.226a.908.908,0,0,0,.732-1.443c-.43-.587-.869-1.161-1.305-1.706a.908.908,0,0,0-1.417,1.135c.42.524.843,1.076,1.257,1.642A.906.906,0,0,0,624.759,278.965Zm-4.851-5.544a.908.908,0,0,0,.614-1.577,21.912,21.912,0,0,0-1.688-1.407.908.908,0,1,0-1.086,1.455c.5.374,1.021.808,1.548,1.29A.9.9,0,0,0,619.908,273.421Z" transform="translate(-534.848 -232.137)" fill="#e17632"/><path d="M759.983,379.922a3.632,3.632,0,1,0,3.634-3.633A3.633,3.633,0,0,0,759.983,379.922Z" transform="translate(-713.164 -304.302)" fill="#e9706e"/><path d="M623.907,379.922a3.631,3.631,0,1,0,3.632-3.633A3.63,3.63,0,0,0,623.907,379.922Z" transform="translate(-533.623 -304.302)" fill="#e9706e"/><path d="M765.059,383.393a.694.694,0,0,0,.475-.187c.922-.862,2.413-2.437,2.031-3.3a1.151,1.151,0,0,0-.667-.619c-.822-.308-2.064.13-3.678.882l-.224.1-.168.071.1-.132c.071-.093.151-.2.236-.319.432-.592,1.327-1.818,1.941-1.818h.043a.7.7,0,0,0,.026-1.391c-1.346-.045-2.425,1.416-3.133,2.388-.081.11-.155.212-.223.3-.573.762-1.141,1.626-.634,2.269s1.49.288,2.372-.1c.063-.028.149-.068.254-.117a10.5,10.5,0,0,1,2.187-.825,14.717,14.717,0,0,1-1.41,1.581.7.7,0,0,0,.475,1.2Z" transform="translate(-713.863 -304.572)" fill="#e55a65"/><path d="M629.941,383.393a.694.694,0,0,0,.474-.186c.742-.691,2.428-2.393,2.036-3.293a1.153,1.153,0,0,0-.668-.624c-.82-.309-2.066.129-3.685.883l-.22.1-.165.07.1-.131c.07-.093.147-.2.23-.312.436-.6,1.348-1.857,1.965-1.825a.7.7,0,1,0,.052-1.39c-1.359-.051-2.433,1.422-3.142,2.4-.078.107-.15.206-.216.294-.572.759-1.141,1.624-.634,2.267s1.491.289,2.371-.095c.063-.027.147-.066.249-.114a10.5,10.5,0,0,1,2.19-.826,14.7,14.7,0,0,1-1.408,1.579.7.7,0,0,0,.474,1.205Z" transform="translate(-535.59 -304.572)" fill="#e55a65"/><path d="M847.4,626.117s-8.445-.182-19.682,19.982-12.91,75.172-12.91,75.172l9.227,4.177Z" transform="translate(-810.832 -474.335)" fill="#e4a643"/><g transform="translate(8.914 78.196)"><path d="M533.542,430.088c2.432,1.958,3.981,4.655,6.224,6.694,1.451,1.319,2.215-.592,3.031-2.015a60.577,60.577,0,0,0,4.168-9.179c2.582-6.963,10.781-23.305,12.188-21.1a11.412,11.412,0,0,0,.607.979c1.16-3,2.506-6.945,5.2-8.838,1.847.914-1.792,8.716-2.175,10.363a13.641,13.641,0,0,1,2.3-2.137c.886.722.3,1.9-.025,2.782-1.513,4.062-2.66,6.955-4.192,11.01-.8,2.107-1.4,4.276-2.045,6.436-.14.463-1.061,2.322-.271,2.606.667.242,1.823-1.711,2.123-2.212a14.1,14.1,0,0,0,1.5-4c.432-2.018,1.178-5.352,3.292-6.285,1.813-.793,1.1.99.771,2.3-.4,1.631-.96,3.19-1.273,4.825a40.212,40.212,0,0,1-.462,4.047c-.612,2-2.409,4.3-3.461,6.122-1.422,2.469-2.976,4.789-4.167,7.377-.755,1.647-1.93,3.106-2.329,4.9-.4,1.777-.763,3.619-1.132,5.429a51.67,51.67,0,0,0-.93,6.909,20.409,20.409,0,0,0,.289,4.624l35.406,101.514-14.741,4.114L542.011,457.2a7.45,7.45,0,0,0-.821-1.589c-.965-1.346-2.417-2.1-3.41-3.32-.9-1.1-1.024-2.808-1.335-4.162-.373-1.6-.69-3.208-1.118-4.818-.85-3.208-.921-6.651-2.38-9.679C532.424,432.547,530.655,427.762,533.542,430.088Z" transform="translate(-470.168 -396.342)" fill="#edbf98"/><path d="M717.058,557.635l36.467-96.268a20.519,20.519,0,0,0,.524-4.6,51.7,51.7,0,0,0-.581-6.95c-.278-1.825-.552-3.687-.857-5.479-.308-1.813-1.409-3.335-2.077-5.014-1.059-2.646-2.5-5.044-3.792-7.579-.958-1.875-2.636-4.268-3.146-6.292a40.348,40.348,0,0,1-.255-4.062c-.235-1.653-.7-3.237-1.029-4.884-.262-1.329-.884-3.143.884-2.259,2.066,1.041,2.644,4.4,2.974,6.44a14.267,14.267,0,0,0,1.292,4.078c.277.511,1.333,2.523,2.013,2.312.8-.246-.025-2.145-.142-2.619-.533-2.186-1.028-4.384-1.718-6.528-1.324-4.13-2.325-7.073-3.63-11.21-.281-.892-.806-2.1.116-2.782a13.553,13.553,0,0,1,2.185,2.254c-.3-1.664-3.541-9.639-1.65-10.461,2.6,2.024,3.742,6.033,4.747,9.094.153-.124.45-.688.657-.947,1.517-2.134,8.88,14.6,11.108,21.685a60.387,60.387,0,0,0,3.7,9.38c.746,1.458,1.41,3.4,2.927,2.165,2.343-1.924,4.026-4.539,6.555-6.372,3-2.179.99,2.51.414,3.568-1.614,2.954-1.857,6.387-2.868,9.547-.508,1.585-.905,3.172-1.358,4.757-.38,1.335-.588,3.03-1.546,4.091-1.051,1.158-2.538,1.846-3.574,3.142a7.451,7.451,0,0,0-.9,1.544L731.569,562.491Z" transform="translate(-717.058 -395.73)" fill="#edbf98"/></g><g transform="translate(35.359 77.652)"><path d="M612.551,459.093a.552.552,0,0,0,.138-.018.545.545,0,0,0,.389-.665l-.655-2.507a.543.543,0,0,0-.021-.064,8.088,8.088,0,0,0-.884-1.7,10.672,10.672,0,0,0-1.942-1.938,10.9,10.9,0,0,1-1.49-1.41,6.708,6.708,0,0,1-1.032-2.975c-.062-.332-.124-.657-.194-.964-.127-.545-.247-1.089-.367-1.633-.231-1.047-.47-2.129-.756-3.2-.3-1.13-.505-2.321-.7-3.474a23.5,23.5,0,0,0-1.71-6.3,9.844,9.844,0,0,1-.966-3.361,3.117,3.117,0,0,1,.727.475,24.319,24.319,0,0,1,3.378,3.57,29.351,29.351,0,0,0,2.821,3.1,1.811,1.811,0,0,0,1.522.566c.944-.158,1.517-1.2,2.071-2.215.092-.168.184-.336.276-.5a60.285,60.285,0,0,0,4.206-9.26,123.759,123.759,0,0,1,5.943-12.876c3.615-6.815,5-7.878,5.327-8.042.065.1.134.225.2.344a2.564,2.564,0,0,0,.458.674.544.544,0,0,0,.865-.215l.265-.692c1-2.621,2.234-5.846,4.346-7.594a1.855,1.855,0,0,1,.058.43.553.553,0,0,0,.562.527.545.545,0,0,0,.527-.562,1.716,1.716,0,0,0-.82-1.63.544.544,0,0,0-.557.041c-2.53,1.777-3.91,5.205-5,8.062l-.046-.069a.918.918,0,0,0-.893-.429c-.435.047-1.759.188-6.222,8.592a125,125,0,0,0-6.03,13.06,59.293,59.293,0,0,1-4.129,9.1c-.1.168-.192.342-.288.517-.389.71-.873,1.594-1.3,1.664a.9.9,0,0,1-.61-.3,28.2,28.2,0,0,1-2.714-2.99,25.107,25.107,0,0,0-3.535-3.725c-.38-.307-1.39-1.12-2.1-.558-1.159.919.655,4.726.673,4.764a22.343,22.343,0,0,1,1.619,6.015c.2,1.175.414,2.391.725,3.567.28,1.051.517,2.122.745,3.158.121.548.242,1.1.37,1.644.067.292.125.6.184.92a7.583,7.583,0,0,0,1.259,3.463,11.892,11.892,0,0,0,1.635,1.556,9.717,9.717,0,0,1,1.754,1.736,7.022,7.022,0,0,1,.745,1.442l.645,2.474A.545.545,0,0,0,612.551,459.093Z" transform="translate(-566.498 -394.637)" fill="#b35d55"/><path d="M735.775,458.711a.544.544,0,0,0,.519-.38l.605-1.909a6.914,6.914,0,0,1,.816-1.4,9.779,9.779,0,0,1,1.844-1.648,11.954,11.954,0,0,0,1.706-1.466,7.609,7.609,0,0,0,1.434-3.395c.076-.314.15-.622.233-.912.151-.53.3-1.06.441-1.59.283-1.035.576-2.1.911-3.15.371-1.159.642-2.361.9-3.524a22.3,22.3,0,0,1,1.923-5.928c.021-.038,2.022-3.749.913-4.723-.68-.6-1.729.166-2.125.453a25.12,25.12,0,0,0-3.722,3.544,28.171,28.171,0,0,1-2.859,2.847.876.876,0,0,1-.623.263c-.418-.092-.856-.993-1.208-1.718-.088-.182-.177-.363-.266-.538a59.057,59.057,0,0,1-3.661-9.3,125.059,125.059,0,0,0-5.363-13.346c-4.033-8.619-5.348-8.826-5.781-8.895a.933.933,0,0,0-.928.4l-.036.047c-.948-2.912-2.152-6.409-4.59-8.308a.545.545,0,0,0-.552-.07c-1.117.486-1.21,2.147-.307,5.553a.545.545,0,0,0,1.053-.279c-.689-2.6-.623-3.624-.484-4.024,2.023,1.851,3.09,5.14,3.958,7.813l.228.7a.545.545,0,0,0,.86.254,2.611,2.611,0,0,0,.475-.632c.076-.121.161-.256.228-.348.313.178,1.645,1.3,4.915,8.3a123.888,123.888,0,0,1,5.285,13.158,60.092,60.092,0,0,0,3.73,9.465c.086.168.171.343.256.518.5,1.033,1.021,2.1,1.954,2.306a1.81,1.81,0,0,0,1.547-.485,29.44,29.44,0,0,0,2.973-2.955,24.3,24.3,0,0,1,3.558-3.4,3.121,3.121,0,0,1,.75-.439,9.9,9.9,0,0,1-1.134,3.306,23.434,23.434,0,0,0-2.029,6.21c-.258,1.14-.524,2.318-.88,3.431-.342,1.068-.638,2.149-.924,3.195-.144.526-.288,1.053-.438,1.579-.086.3-.164.626-.244.955a6.738,6.738,0,0,1-1.183,2.92A10.958,10.958,0,0,1,738.9,452.5a10.76,10.76,0,0,0-2.041,1.84A8.065,8.065,0,0,0,735.9,456a.479.479,0,0,0-.024.062L735.256,458a.544.544,0,0,0,.354.684A.537.537,0,0,0,735.775,458.711Zm-13.807-56.038.412.356a.1.1,0,0,1-.028.022Z" transform="translate(-715.393 -394.026)" fill="#b35d55"/></g><path d="M514.171,897.569c0,6.641,6.153,21.745,11.8,21.745s10.23-5.385,10.23-12.025-4.58-12.023-10.23-12.023S514.171,890.928,514.171,897.569Z" transform="translate(-403.606 -656.57)" fill="#edbf98"/><path d="M870.215,878.546c0,6.641-6.152,21.749-11.8,21.749s-10.228-5.388-10.228-12.027,4.578-12.026,10.228-12.026S870.215,871.9,870.215,878.546Z" transform="translate(-844.304 -643.622)" fill="#edbf98"/></g><path d="M669.3,421.8c1.866,4.689,3.476,6.857,7.016,9.309,3.142,2.185,7.131,3.445,10.515,1.791,2.873-1.408,7.7-5.857,8.878-9.8Z" transform="translate(-612.666 -335.279)" fill="#c1143a"/><path d="M835.607,682.016a.925.925,0,0,0,.125-.009.908.908,0,0,0,.775-1.023l-1.52-11.011a.908.908,0,0,0-1.8.248l1.52,11.011A.908.908,0,0,0,835.607,682.016Z" transform="translate(-805.812 -503.65)" fill="#d18700"/><path d="M589.226,682.015a.908.908,0,0,0,.9-.784l1.518-11.011a.908.908,0,0,0-1.8-.248l-1.518,11.011a.908.908,0,0,0,.775,1.023A.92.92,0,0,0,589.226,682.015Z" transform="translate(-482.737 -503.649)" fill="#d18700"/></g></g></svg>