<svg xmlns="http://www.w3.org/2000/svg" width="172.056" height="118.722" viewBox="0 0 172.056 118.722"><g transform="translate(-143.758 -3935.503)"><g transform="translate(111.975 3601.689)"><path d="M1843.395,873.939l-71.149,51.7,45.467,18.417,26.979-66.094C1845.167,876.619,1845.427,875.236,1843.395,873.939Z" transform="translate(-1641.188 -491.518)" fill="#c2c3c3"/><g transform="translate(130.633 365.31)"><g transform="translate(0 0)"><path d="M1759.614,432.391l26.818-65.533a2.49,2.49,0,0,1,3.24-1.365l40.853,16.539a2.5,2.5,0,0,1,1.373,3.243l-26.816,65.533Z" transform="translate(-1759.614 -365.31)" fill="#d6d7d8"/><path d="M1994.163,2098.1a2.493,2.493,0,0,0-1.364-3.236l-3.3-1.336a2.494,2.494,0,0,0-3.234,1.374h0a2.492,2.492,0,0,0,1.367,3.237l3.3,1.337a2.487,2.487,0,0,0,3.233-1.376Z" transform="translate(-1978.461 -2035.217)" fill="#726d7c"/><path d="M2288,2217.035a2.5,2.5,0,0,0-1.374-3.241l-3.3-1.338a2.5,2.5,0,0,0-3.237,1.375v0a2.5,2.5,0,0,0,1.373,3.241l3.292,1.33a2.494,2.494,0,0,0,3.243-1.366Z" transform="translate(-2262.405 -2150.142)" fill="#726d7c"/><path d="M2581.635,2336.014a2.491,2.491,0,0,0-1.367-3.235l-3.3-1.344a2.5,2.5,0,0,0-3.237,1.375l0,0a2.5,2.5,0,0,0,1.377,3.24l3.3,1.336a2.493,2.493,0,0,0,3.235-1.375Z" transform="translate(-2546.159 -2265.118)" fill="#726d7c"/><path d="M2878.238,2249.4a2.494,2.494,0,0,0-1.37-3.236l-3.3-1.337a2.493,2.493,0,0,0-3.24,1.369l-2.8,6.921a2.486,2.486,0,0,0,1.366,3.235l3.306,1.343a2.5,2.5,0,0,0,3.235-1.375Z" transform="translate(-2830.079 -2181.425)" fill="#33374b"/><path d="M2077.43,1892.554a2.489,2.489,0,0,0-1.367-3.232l-3.293-1.331a2.5,2.5,0,0,0-3.242,1.367h0a2.5,2.5,0,0,0,1.372,3.244l3.3,1.328a2.485,2.485,0,0,0,3.233-1.377Z" transform="translate(-2058.927 -1836.589)" fill="#726d7c"/><path d="M2371.19,2011.4a2.5,2.5,0,0,0-1.375-3.239l-3.3-1.339a2.5,2.5,0,0,0-3.239,1.377h0a2.5,2.5,0,0,0,1.375,3.24l3.292,1.331a2.5,2.5,0,0,0,3.244-1.37Z" transform="translate(-2342.796 -1951.426)" fill="#726d7c"/><path d="M2664.953,2130.453a2.494,2.494,0,0,0-1.368-3.232l-3.3-1.338a2.5,2.5,0,0,0-3.244,1.369h0a2.494,2.494,0,0,0,1.374,3.24l3.3,1.337a2.5,2.5,0,0,0,3.237-1.376Z" transform="translate(-2626.675 -2066.478)" fill="#726d7c"/><path d="M2160.676,1686.852a2.5,2.5,0,0,0-1.373-3.243l-3.3-1.336a2.5,2.5,0,0,0-3.238,1.375h0a2.5,2.5,0,0,0,1.375,3.24l3.3,1.337a2.493,2.493,0,0,0,3.234-1.373Z" transform="translate(-2139.367 -1637.795)" fill="#726d7c"/><path d="M2454.442,1805.886a2.5,2.5,0,0,0-1.372-3.243l-3.3-1.33a2.5,2.5,0,0,0-3.242,1.372h0a2.5,2.5,0,0,0,1.376,3.238l3.3,1.34a2.5,2.5,0,0,0,3.237-1.376Z" transform="translate(-2423.249 -1752.829)" fill="#726d7c"/><path d="M2748.227,1924.783a2.492,2.492,0,0,0-1.362-3.238l-3.3-1.335a2.5,2.5,0,0,0-3.245,1.37h0a2.5,2.5,0,0,0,1.372,3.242l3.3,1.338a2.5,2.5,0,0,0,3.236-1.376Z" transform="translate(-2707.152 -1867.725)" fill="#726d7c"/><path d="M3042.052,2043.714a2.5,2.5,0,0,0-1.371-3.244l-3.3-1.334a2.506,2.506,0,0,0-3.237,1.374h0a2.5,2.5,0,0,0,1.372,3.243l3.3,1.338a2.493,2.493,0,0,0,3.236-1.377Z" transform="translate(-2991.094 -1982.653)" fill="#282b36"/><path d="M2243.957,1481.252a2.5,2.5,0,0,0-1.363-3.238l-3.3-1.335a2.5,2.5,0,0,0-3.244,1.369h0a2.505,2.505,0,0,0,1.374,3.241l3.3,1.338a2.5,2.5,0,0,0,3.236-1.376Z" transform="translate(-2219.849 -1439.114)" fill="#726d7c"/><path d="M2537.728,1600.164a2.494,2.494,0,0,0-1.371-3.244l-3.3-1.331a2.48,2.48,0,0,0-3.236,1.378h0a2.486,2.486,0,0,0,1.367,3.234l3.3,1.338a2.484,2.484,0,0,0,3.237-1.375Z" transform="translate(-2503.737 -1554.024)" fill="#726d7c"/><path d="M2831.444,1719.145a2.5,2.5,0,0,0-1.372-3.243l-3.3-1.338a2.5,2.5,0,0,0-3.245,1.371h0a2.5,2.5,0,0,0,1.372,3.242l3.3,1.339a2.5,2.5,0,0,0,3.243-1.37Z" transform="translate(-2787.563 -1668.997)" fill="#726d7c"/><path d="M3125.377,1838.082a2.489,2.489,0,0,0-1.366-3.238l-3.3-1.336a2.478,2.478,0,0,0-3.232,1.378h0a2.489,2.489,0,0,0,1.365,3.235l3.306,1.345a2.488,2.488,0,0,0,3.229-1.384Z" transform="translate(-3071.62 -1783.939)" fill="#282b36"/><path d="M2327.167,1275.7a2.5,2.5,0,0,0-1.364-3.236l-3.3-1.338a2.5,2.5,0,0,0-3.239,1.374h0a2.491,2.491,0,0,0,1.368,3.237l3.3,1.335a2.492,2.492,0,0,0,3.235-1.372Z" transform="translate(-2300.26 -1240.483)" fill="#726d7c"/><path d="M2621.054,1394.547a2.489,2.489,0,0,0-1.367-3.237l-3.3-1.339a2.493,2.493,0,0,0-3.235,1.379h0a2.5,2.5,0,0,0,1.373,3.244l3.293,1.328a2.482,2.482,0,0,0,3.236-1.375Z" transform="translate(-2584.262 -1355.326)" fill="#726d7c"/><path d="M2914.784,1513.634a2.5,2.5,0,0,0-1.367-3.24l-3.3-1.341a2.5,2.5,0,0,0-3.239,1.372h0a2.492,2.492,0,0,0,1.37,3.236l3.3,1.338a2.5,2.5,0,0,0,3.241-1.365Z" transform="translate(-2868.104 -1470.403)" fill="#726d7c"/><path d="M3208.6,1632.493a2.5,2.5,0,0,0-1.372-3.243l-3.3-1.336a2.491,2.491,0,0,0-3.235,1.377h0a2.488,2.488,0,0,0,1.367,3.233l3.305,1.345a2.494,2.494,0,0,0,3.234-1.376Z" transform="translate(-3152.041 -1585.263)" fill="#282b36"/><path d="M2417.971,1065.354l-3.295-1.333c-1.269-.512-2.622-.157-3.013.793a2.256,2.256,0,0,0,1.6,2.662l3.3,1.336c1.264.51,2.618.153,3.008-.793A2.257,2.257,0,0,0,2417.971,1065.354Z" transform="translate(-2389.629 -1040.288)" fill="#282b36"/><path d="M2711.837,1184.312l-3.292-1.331c-1.272-.515-2.623-.157-3.007.8s.337,2.15,1.606,2.662l3.3,1.338c1.264.508,2.619.151,3-.8S2713.107,1184.826,2711.837,1184.312Z" transform="translate(-2673.614 -1155.245)" fill="#282b36"/><path d="M3005.5,1303.281l-3.3-1.337c-1.267-.513-2.622-.156-3.014.792a2.261,2.261,0,0,0,1.606,2.664l3.309,1.34a2.256,2.256,0,0,0,3-.794C3007.483,1304.991,3006.759,1303.79,3005.5,1303.281Z" transform="translate(-2957.382 -1270.208)" fill="#282b36"/><path d="M3299.429,1422.154l-3.289-1.331c-1.276-.522-2.624-.158-3,.795s.334,2.152,1.6,2.666l3.3,1.334c1.26.512,2.614.154,3-.8S3300.7,1422.667,3299.429,1422.154Z" transform="translate(-3241.442 -1385.083)" fill="#282b36"/><g transform="translate(40.111 67.237)"><path d="M2989.637,2364.385l-1.15-.463-2.044,5.049,1.147.464Z" transform="translate(-2985.281 -2363.922)" fill="#fff"/><path d="M2952.378,2398.316l-.466,1.15,5.052,2.046.466-1.148Z" transform="translate(-2951.913 -2397.159)" fill="#fff"/></g><g transform="translate(47.575 50.219)"><path d="M3203.236,1858.071l-.962.417,1.812,4.284.975-.42Z" transform="translate(-3201.315 -1858.071)" fill="#fff"/><path d="M3173.786,1888.254l.412.978,4.292-1.808-.419-.98Z" transform="translate(-3173.786 -1885.489)" fill="#fff"/></g><g transform="translate(44.323 57.985)"><path d="M3077.591,2088.911l-.468,1.155,5.052,2.046.472-1.153Z" transform="translate(-3077.123 -2088.911)" fill="#fff"/></g><g transform="translate(50.34 43.751)"><path d="M3256.365,1683.281l-.4.993,4.33,1.752.4-.99Z" transform="translate(-3255.965 -1682.693)" fill="#fff"/><path d="M3319.491,1666.161a.6.6,0,0,0,.332.762.583.583,0,1,0-.332-.762Z" transform="translate(-3317.317 -1665.797)" fill="#fff"/><path d="M3288.477,1742.7a.584.584,0,0,0,1.082.44.584.584,0,1,0-1.082-.44Z" transform="translate(-3287.342 -1739.757)" fill="#fff"/></g><path d="M2541.841,610.727a1.006,1.006,0,0,0-.549-1.327l-35.658-14.439a1.049,1.049,0,0,0-1.351.558l-3.78,8.887a1.006,1.006,0,0,0,.549,1.327l35.659,14.44a1.049,1.049,0,0,0,1.35-.558Z" transform="translate(-2475.501 -587.162)" fill="#678797"/><path d="M2541.292,631.349l-5.081-2.057a23.138,23.138,0,0,1-4.948,1.351c-4.163.7-8.52,1.233-12.684.254a18.237,18.237,0,0,1-5.707-2.484,22.359,22.359,0,0,1-4.746-4.062,18.732,18.732,0,0,1-1.85-2.49,24.43,24.43,0,0,1-1.3-2.468c-.266-.569-.531-1.172-.751-1.794l-3.724,8.756a1.006,1.006,0,0,0,.549,1.327l35.659,14.44a1.049,1.049,0,0,0,1.35-.558l3.779-8.887A1.006,1.006,0,0,0,2541.292,631.349Z" transform="translate(-2475.501 -609.112)" fill="#517384"/></g><rect width="2.732" height="12.484" transform="matrix(0.388, -0.922, 0.922, 0.388, 55.507, 16.158)" fill="#33374b"/><path d="M3430.379,789.023l-2.147-.905-.717,1.7,1.866.786C3429.721,790.083,3430.059,789.558,3430.379,789.023Z" transform="translate(-3371.404 -773.894)" fill="#1b2a3e"/><path d="M3497.76,821.459c.038-.078.076-.156.114-.234l-2.717-1.145c-.32.535-.658,1.06-1,1.583l2.966,1.25C3497.325,822.423,3497.525,821.933,3497.76,821.459Z" transform="translate(-3435.807 -804.781)" fill="#1b2a3e"/><path d="M3597.78,860.1l-2.373-1c-.067.135-.133.272-.2.408-.2.42-.374.85-.55,1.28l2.333.983A6.776,6.776,0,0,0,3597.78,860.1Z" transform="translate(-3532.925 -842.491)" fill="#1b2a3e"/><path d="M3675.848,893.554a7.03,7.03,0,0,1-.787,1.671l2.3.971.717-1.7Z" transform="translate(-3610.622 -875.783)" fill="#1b2a3e"/></g></g><g transform="translate(-2043.572 649.932) rotate(-30)"><g transform="translate(231.753 3973.251)" fill="#fff"><path d="M 61.18147277832031 81.72795104980469 L 50.70418930053711 76.94770050048828 L 50.53511810302734 76.87055969238281 L 50.35670852661133 76.92258453369141 C 46.81991958618164 77.95367431640625 43.16620254516602 78.47653198242188 39.49701309204102 78.47663879394531 C 35.61621475219727 78.47674560546875 31.76020240783691 77.89501953125 28.03608512878418 76.74760437011719 C 24.34543800354004 75.61049652099609 20.85209655761719 73.93925476074219 17.65312004089355 71.78028869628906 C 11.01348400115967 67.29925537109375 5.980872631072998 60.96319198608398 3.099366664886475 53.45708847045898 C 1.213660836219788 48.54427719116211 0.3464725911617279 43.40941619873047 0.5218961238861084 38.19515991210938 C 0.6913313865661621 33.15845108032227 1.821319699287415 28.25961685180664 3.880449056625366 23.63468742370605 C 5.939601898193359 19.00974655151367 8.824037551879883 14.89204120635986 12.45363712310791 11.39595890045166 C 16.21123695373535 7.77658224105835 20.60749626159668 4.985170364379883 25.52030754089355 3.099276304244995 C 30.01361465454102 1.374523282051086 34.71023559570313 0.5000056028366089 39.47969436645508 0.5000056028366089 C 43.36053085327148 0.5000056028366089 47.21656799316406 1.081817388534546 50.94070816040039 2.229276180267334 C 54.63142395019531 3.366441011428833 58.12479019165039 5.037734985351563 61.32378005981445 7.196711540222168 C 67.96354675292969 11.67787647247314 72.99608612060547 18.01402854919434 75.8773193359375 25.52019309997559 C 77.42840576171875 29.56066513061523 78.29434204101563 33.78165435791016 78.45109558105469 38.06592178344727 C 78.60264587402344 42.20798110961914 78.09076690673828 46.33507537841797 76.9296875 50.33255767822266 C 75.78110504150391 54.28700637817383 74.02602386474609 58.01826477050781 71.71321105957031 61.42269897460938 C 69.36767578125 64.87531280517578 66.50446319580078 67.90752410888672 63.20313262939453 70.43511962890625 L 63.04640197753906 70.55511474609375 L 63.01390838623047 70.74980926513672 L 61.18147277832031 81.72795104980469 Z" stroke="none"/><path d="M 60.79566955566406 81.00235748291016 L 62.52073287963867 70.66748809814453 L 62.58572006225586 70.27809906005859 L 62.89916610717773 70.03812408447266 C 66.15790557861328 67.54313659667969 68.98422241210938 64.54995727539063 71.29962921142578 61.1417350769043 C 73.58291625976563 57.78074645996094 75.31560516357422 54.09709930419922 76.44953155517578 50.19309997558594 C 77.59571075439453 46.24689865112305 78.10102844238281 42.17288970947266 77.95142364501953 38.08420562744141 C 77.79669952392578 33.85513687133789 76.94181060791016 29.68828773498535 75.4105224609375 25.69936943054199 C 72.56623840332031 18.28945350646973 67.598388671875 12.03465270996094 61.04407119750977 7.61115837097168 C 57.88592147827148 5.479734897613525 54.43711853027344 3.82977032661438 50.79348373413086 2.707111597061157 C 47.11708450317383 1.574358582496643 43.31057739257813 1.000005602836609 39.47969436645508 1.000005602836609 C 34.77173233032227 1.000005602836609 30.13538932800293 1.863358497619629 25.69949531555176 3.566064357757568 C 20.84949684143066 5.427852630615234 16.5096492767334 8.183370590209961 12.80050754547119 11.75606441497803 C 9.217508316040039 15.20726490020752 6.370048999786377 19.2722282409668 4.337225437164307 23.83806419372559 C 2.304413795471191 28.40386390686035 1.188872575759888 33.23994827270508 1.021613717079163 38.21197128295898 C 0.8484490513801575 43.35898208618164 1.704566717147827 48.42790985107422 3.566154956817627 53.27788925170898 C 6.410719871520996 60.68775939941406 11.37863731384277 66.94247436523438 17.93282508850098 71.36583709716797 C 21.09097862243652 73.49725341796875 24.53973197937012 75.14717102050781 28.18330764770508 76.26976776123047 C 31.85968399047852 77.40247344970703 35.66615676879883 77.97674560546875 39.49700164794922 77.97663879394531 C 43.11882400512695 77.97653198242188 46.72547149658203 77.46039581298828 50.21676635742188 76.44255828857422 L 50.57358932495117 76.33853149414063 L 50.9117317199707 76.49282073974609 L 60.79566955566406 81.00235748291016 M 61.5672721862793 82.45355987548828 L 50.49665069580078 77.40259552001953 C 46.8477783203125 78.46636962890625 43.14792251586914 78.97653961181641 39.49702835083008 78.97663879394531 C 23.62565422058105 78.97708129882813 8.660255432128906 69.33791351318359 2.632578372955322 53.63627624511719 C -5.180491924285889 33.28091049194336 4.985743045806885 10.44637012481689 25.34111976623535 2.632488012313843 C 29.99369812011719 0.8466023802757263 34.77692413330078 5.107565357320709e-06 39.47970199584961 5.107565357320709e-06 C 55.35109710693359 5.107565357320709e-06 70.31691741943359 9.639039993286133 76.34410858154297 25.34101676940918 C 82.764892578125 42.06668853759766 77.04428100585938 60.4676513671875 63.50708389282227 70.83212280273438 L 61.5672721862793 82.45355987548828 Z" stroke="none" fill="#cecece"/></g><text transform="translate(244.904 4018.959) rotate(30)" fill="#eb6d4e" font-size="49" font-family="Oswald-Bold, Oswald" font-weight="700"><tspan x="0" y="0">0</tspan></text><text transform="translate(269.787 4029.86) rotate(30)" fill="#eb6d4e" font-size="19" font-family="RoundedMplus1c-ExtraBold, 'Rounded Mplus \31 c'" font-weight="800"><tspan x="0" y="0">円</tspan></text><path d="M0,7.876C3.519,6.142,4.563,4.736,5.85,0,7.138,4.736,8.182,6.142,11.7,7.876c-3.518,1.734-4.562,3.14-5.85,7.876C4.563,11.015,3.519,9.61,0,7.876" transform="translate(326.061 4034.273) rotate(-148)" fill="#ffc449"/><path d="M0,13.442C6,10.483,7.787,8.084,9.984,0c2.2,8.084,3.98,10.483,9.985,13.442-6,2.959-7.787,5.357-9.985,13.441C7.787,18.8,6,16.4,0,13.442" transform="translate(327.393 4025.148) rotate(-148)" fill="#ffc449"/></g></g></svg>