<?xml version="1.0" encoding="utf-8"?>
<!-- Generator: Adobe Illustrator 25.2.1, SVG Export Plug-In . SVG Version: 6.00 Build 0)  -->
<svg version="1.1" id="レイヤー_1" xmlns="http://www.w3.org/2000/svg" xmlns:xlink="http://www.w3.org/1999/xlink" x="0px"
	 y="0px" viewBox="0 0 151.1 129.5" style="enable-background:new 0 0 151.1 129.5;" xml:space="preserve">
<style type="text/css">
	.st0{fill:#FFFFFF;}
	.st1{fill:#CECECE;}
	.st2{fill:#FFCE00;}
	.st3{opacity:0.2;fill:#FFFFFF;enable-background:new    ;}
	.st4{fill:#8E7406;}
	.st5{fill:#FFC449;}
	.st6{fill:#4E3B30;}
	.st7{fill:#C08D4E;}
	.st8{fill:#E33C0B;}
	.st9{fill:#B40019;}
	.st10{fill:#8E8E8F;}
	.st11{fill:#D4D5D5;}
	.st12{fill:#767676;}
	.st13{fill:#A6A7A7;}
	.st14{fill:#AAB6BD;}
	.st15{fill:#D1D6D9;}
</style>
<g transform="translate(-154.552 -3920.503)">
	<g transform="translate(-2032.778 634.932) rotate(-30)">
		<g transform="translate(231.753 3973.251)">
			<path class="st0" d="M60.5,66.7L50,61.9l-0.2-0.1l-0.2,0.1c-3.5,1-7.2,1.6-10.9,1.6c-3.9,0-7.7-0.6-11.5-1.7
				c-3.7-1.1-7.2-2.8-10.4-5C10.3,52.2,5.3,45.9,2.4,38.4c-1.9-4.9-2.8-10-2.6-15.3c0.2-5,1.3-9.9,3.4-14.6c2-4.5,4.9-8.7,8.6-12.2
				c3.8-3.6,8.2-6.4,13.1-8.3c4.5-1.7,9.2-2.6,14-2.6c3.9,0,7.7,0.6,11.5,1.7c3.7,1.1,7.2,2.8,10.4,5C67.3-3.4,72.3,3,75.2,10.5
				c1.6,4,2.4,8.3,2.6,12.5c0.2,4.1-0.4,8.3-1.5,12.3c-1.1,4-2.9,7.7-5.2,11.1c-2.3,3.5-5.2,6.5-8.5,9l-0.2,0.1v0.2L60.5,66.7z"/>
			<path class="st1" d="M60.1,65.9l1.7-10.3l0.1-0.4l0.3-0.2c3.3-2.5,6.1-5.5,8.4-8.9s4-7,5.1-10.9c1.1-3.9,1.7-8,1.5-12.1
				c-0.2-4.2-1-8.4-2.5-12.4C71.9,3.3,66.9-3,60.3-7.4c-3.2-2.1-6.6-3.8-10.3-4.9c-3.7-1.1-7.5-1.7-11.3-1.7
				c-4.7,0-9.3,0.9-13.8,2.6C20-9.5,15.7-6.8,12-3.2c-3.5,3.4-6.3,7.4-8.4,12c-2,4.6-3.1,9.4-3.3,14.4C0.1,28.3,1,33.4,2.8,38.3
				c2.8,7.4,7.8,13.7,14.4,18.1c3.2,2.1,6.6,3.8,10.3,4.9S35,63,38.8,63c3.6,0,7.2-0.5,10.7-1.5l0.4-0.1l0.3,0.2L60.1,65.9
				 M60.9,67.4l-11.1-5.1c-3.6,1.1-7.3,1.6-11,1.6C22.9,63.9,8,54.3,1.9,38.6c-7.8-20.4,2.4-43.2,22.7-51C29.3-14.2,34-15,38.7-15
				c15.9,0,30.8,9.6,36.9,25.3C82,27,76.3,45.4,62.8,55.8L60.9,67.4z"/>
		</g>
		<g transform="translate(258.211 3974.139) rotate(30)">
			<g transform="translate(20.08 24.086)">
				<circle class="st2" cx="-0.9" cy="-5.4" r="7.3"/>
				<circle class="st3" cx="-0.9" cy="-5.4" r="6.1"/>
				<g transform="translate(4.116 3.316)">
					<path class="st4" d="M-7.2-5.4l0.7-1.4l-1.6-0.8l0.3-0.6l1.6,0.8l0.3-0.7v-0.1l-1.6-0.7l0.3-0.6l1.3,0.6L-6-12.4l1.2,0.6v3.2
						l2.5-2.1l1.1,0.5L-4-8l1.2,0.6l-0.3,0.6l-1.6-1l-0.1,0.1L-5.1-7l1.5,0.8l-0.3,0.6l-1.6-0.8L-6.2-5L-7.2-5.4z"/>
				</g>
			</g>
			<g transform="translate(36.425 30.039)">
				<circle class="st2" cx="1.5" cy="-3" r="6.8"/>
				<circle class="st3" cx="1.5" cy="-3" r="5.7"/>
				<g transform="translate(6.033 5.882)">
					<path class="st4" d="M-3.3-5.5L-4-6.8L-5.5-6l-0.3-0.6l1.5-0.8L-4.7-8l-0.1-0.1l-1.4,0.8l-0.3-0.6l1.1-0.6l-2.7-1.8l1.1-0.6
						l2.4,1.8l-0.2-3l1-0.6l0.1,3.3l1.1-0.6l0.3,0.6l-1.4,0.8v0.2l0.3,0.6l1.5-0.8L-1.6-8l-1.5,0.8l0.7,1.3L-3.3-5.5z"/>
				</g>
			</g>
			<g transform="translate(26.792 28.5)">
				<circle class="st2" cx="1.5" cy="-3" r="6.8"/>
				<circle class="st3" cx="1.5" cy="-3" r="5.7"/>
				<g transform="translate(6.033 5.882)">
					<path class="st4" d="M-3.3-5.5L-4-6.8L-5.5-6l-0.3-0.6l1.5-0.8L-4.7-8l-0.1-0.1l-1.4,0.8l-0.3-0.6l1.1-0.6l-2.7-1.8l1.1-0.6
						l2.4,1.8l-0.2-3l1-0.6l0.1,3.3l1.1-0.6l0.3,0.6l-1.4,0.8v0.2l0.3,0.6l1.5-0.8L-1.6-8l-1.5,0.8l0.7,1.3L-3.3-5.5z"/>
				</g>
			</g>
			<g transform="translate(26.792 0)">
				<circle class="st2" cx="6.9" cy="2.4" r="10.6"/>
				<circle class="st3" cx="6.9" cy="2.4" r="9"/>
				<g transform="translate(10.653 9.497)">
					<path class="st4" d="M-6.3-2l0.6-2.2L-8.2-5l0.3-1l2.5,0.8L-5-6.3v-0.2l-2.5-0.7l0.3-1l1.9,0.6l-0.9-5.1l1.8,0.6l0.6,4.7
						l3.2-3.5l1.7,0.5l-3.6,3.7l1.9,0.6l-0.3,1l-2.4-0.7l-0.2,0.2l-0.3,1.1l2.5,0.8l-0.3,1l-2.5-0.8l-0.7,2.2L-6.3-2z"/>
				</g>
			</g>
			<g transform="translate(0 23.01)">
				<circle class="st2" cx="6.4" cy="1.9" r="10.3"/>
				<circle class="st3" cx="6.4" cy="1.9" r="8.7"/>
				<g transform="translate(10.701 10.021)">
					<path class="st4" d="M-5.1-2.6v-2.2l-2.6,0v-1l2.5-0.1v-1.2l-0.1-0.1l-2.4,0.1v-1h2l-2.4-4.4h1.8l2,4.1l1.9-4.2h1.7L-3-8.2h1.9
						v1h-2.4L-3.6-7v1.1L-1.1-6v1l-2.5,0.1v2.2L-5.1-2.6z"/>
				</g>
			</g>
			<g transform="translate(16.293 32.612)">
				<circle class="st2" cx="2.9" cy="-1.6" r="9.2"/>
				<circle class="st3" cx="2.9" cy="-1.6" r="7.8"/>
				<g transform="translate(6.983 5.969)">
					<path class="st4" d="M-7-3.5l0.9-1.8l-2-1l0.4-0.8l2,1L-5.2-7v-0.2l-2-1L-6.8-9l1.6,0.8l-0.1-4.5l1.5,0.7l-0.1,4.1l3.2-2.6
						l1.4,0.7l-3.6,2.7l1.5,0.8l-0.4,0.8l-2-1L-4-6.4l-0.4,0.9l2,1l-0.4,0.8l-2-1l-0.9,1.8L-7-3.5z"/>
				</g>
			</g>
			<path class="st5" d="M13.4,6.5C11.6,7.4,11,8,10.3,10.4C9.7,8,9.2,7.3,7.5,6.4c1.8-0.9,2.3-1.6,3.1-3.9
				C11.1,4.9,11.6,5.6,13.4,6.5"/>
			<path class="st5" d="M11.7-0.5C8.7,0.8,7.8,2,6.5,6c-1-4.1-1.8-5.3-4.8-6.9c3.1-1.4,4-2.5,5.2-6.6C7.9-3.4,8.8-2.1,11.7-0.5"/>
			<path class="st5" d="M51.5,19.9c-1.7,0.9-2.2,1.6-2.7,3.9c-0.7-2.3-1.2-2.9-2.9-3.8c1.7-0.9,2.2-1.6,2.7-3.9
				C49.3,18.4,49.8,19.1,51.5,19.9"/>
		</g>
	</g>
	<g transform="translate(251.464 3969.307)">
		
			<rect x="18.1" y="38.8" transform="matrix(0.3721 -0.9282 0.9282 0.3721 -38.3726 51.5818)" class="st6" width="1.7" height="30.8"/>
		
			<rect x="1.8" y="53.5" transform="matrix(0.9279 -0.3729 0.3729 0.9279 -18.9995 10.3117)" class="st6" width="30.8" height="1.6"/>
		<g transform="translate(3.059 47.727)">
			<path class="st7" d="M1.2,11.5c-3.9,12.8-6.6,22.3-8.7,21.4C-9.6,32-6.3,23-2.4,10.1s7.9-23,8.9-22.6S5.2-1.4,1.2,11.5z"/>
			<path class="st7" d="M28.5,11.1c3.6,12.7,6.1,22.2,8.2,21.2s-0.9-9.9-4.6-22.6s-7.4-22.8-8.4-22.4S24.9-1.6,28.5,11.1z"/>
		</g>
		<path class="st8" d="M44.2,34.2c0-8.3-6.5-10.8-9.7-20.5c-2.9-8.9-0.5-14-2.4-20.3c-1-3.1-5-5.3-11.2-5.9
			c-0.7-0.1-1.5-0.2-2.2-0.2c-0.2,0-0.4,0-0.6,0s-0.4,0-0.6,0c-0.7,0-1.5,0.1-2.2,0.2C9-11.9,5-9.7,4-6.6C2.1-0.3,4.4,4.8,1.6,13.6
			c-3.2,9.8-9.7,12.2-9.7,20.5c0,4,9,7.4,21,8.2c1.5,0.1,3.1,0.2,4.6,0.2c0.2,0,0.4,0,0.6,0s0.4,0,0.6,0c1.5,0,3.1-0.1,4.6-0.2
			C35.3,41.5,44.2,38.2,44.2,34.2z"/>
		<path class="st9" d="M39.1,32.1c0,2.5-9.6,4.6-21.4,4.6s-21.4-2-21.4-4.6c0-2.6,9.6-4.6,21.4-4.6S39.1,29.6,39.1,32.1z"/>
	</g>
	<g transform="translate(172.706 4011.186)">
		<g transform="translate(0 0)">
			<path class="st10" d="M61.3,32.5c0,1.3-1,2.3-2.3,2.3H-2.8c-1.3,0-2.3-1-2.3-2.3l0,0c0-1.3,1-2.3,2.3-2.3l0,0h61.7
				C60.2,30.2,61.3,31.2,61.3,32.5L61.3,32.5L61.3,32.5z"/>
			<path class="st11" d="M-4-12.6h64.1c2.3,0,4.2,1.9,4.2,4.2v36.1c0,2.3-1.9,4.2-4.2,4.2H-4c-2.3,0-4.2-1.9-4.2-4.2l0,0V-8.4
				C-8.2-10.8-6.3-12.6-4-12.6L-4-12.6z"/>
			<path class="st12" d="M62.4,25c0,1.8-1.5,3.3-3.3,3.3s-3.3-1.5-3.3-3.3s1.5-3.3,3.3-3.3l0,0C60.9,21.6,62.4,23.1,62.4,25L62.4,25
				z"/>
			<path class="st12" d="M49.1,19.5c0.1,0.9-0.6,1.8-1.5,1.9l0,0c-0.9-0.1-1.6-0.9-1.5-1.9V-0.9c-0.1-0.9,0.6-1.8,1.5-1.9l0,0
				c0.9,0.1,1.6,0.9,1.5,1.9V19.5z"/>
			<rect x="52.5" y="-12.7" class="st13" width="0.8" height="44.7"/>
			<rect x="-1.7" y="-5.1" class="st14" width="43.5" height="27.9"/>
			<rect x="55.5" y="-3.3" class="st13" width="6.5" height="3.6"/>
			<rect x="55.5" y="1.7" class="st13" width="2.9" height="3.6"/>
			<rect x="55.5" y="6.7" class="st13" width="2.9" height="3.6"/>
			<rect x="59" y="1.7" class="st13" width="2.9" height="3.6"/>
			<rect x="59" y="6.7" class="st13" width="2.9" height="3.6"/>
			<path class="st15" d="M0,21.1V-3.4h25.5L0,21.1z"/>
		</g>
	</g>
</g>
</svg>
