<svg xmlns="http://www.w3.org/2000/svg" xmlns:xlink="http://www.w3.org/1999/xlink" width="140" height="140" viewBox="0 0 140 140"><defs><clipPath id="a"><circle cx="70" cy="70" r="70" transform="translate(0 0.477)" fill="#f7f3e5"/></clipPath></defs><g transform="translate(0 -0.477)"><circle cx="70" cy="70" r="70" transform="translate(0 0.477)" fill="#fff"/><g clip-path="url(#a)"><g transform="translate(922.074 -83.403)"><g transform="translate(-867.455 99.718)"><path d="M-597.74,158.3l15.127-8.683-3.473,10.237Z" transform="translate(614.1 -145.118)" fill="#3aaa35"/><path d="M-770.183,99.893a7.2,7.2,0,0,0-4.57,2.1,37.378,37.378,0,0,0-4.616,6.078l9.323,5.575a31.177,31.177,0,0,1,3.016-4.89,18.928,18.928,0,0,1,2.879-3.29s-2.559-3.839-3.839-4.57A11.719,11.719,0,0,0-770.183,99.893Z" transform="translate(779.369 -99.877)" fill="#12680e"/><path d="M-667.248,111.89s-2.863-4.516-6.124-8.591c-2.925-3.656-4.022-3.565-4.022-3.565h13.051c1.116-.137,2.533.548,5.777,4.936,1.679,2.27,1.554,2.468,1.554,2.468Z" transform="translate(686.579 -99.718)" fill="#3aaa35"/></g><g transform="translate(-874.863 114.511)"><path d="M-857.318,290.412l-14.252-10.055,10.747-1.167Z" transform="translate(872.046 -279.19)" fill="#3aaa35"/><path d="M-812.912,458.607a7.2,7.2,0,0,0,3.833,3.257,37.377,37.377,0,0,0,7.458,1.622l1.124-10.8a31.175,31.175,0,0,1-5.706-.673,18.928,18.928,0,0,1-4.2-1.223s-2.4,3.939-2.525,5.408A11.718,11.718,0,0,0-812.912,458.607Z" transform="translate(818.732 -435.329)" fill="#12680e"/><path d="M-864.3,305.055s-2.887,4.5-5.208,9.175c-2.082,4.194-1.536,5.15-1.536,5.15l-5.5-11.834c-.595-.954-.571-2.528,2.039-7.32,1.35-2.479,1.583-2.45,1.583-2.45Z" transform="translate(876.863 -296.103)" fill="#3aaa35"/></g><g transform="translate(-851.533 114.771)"><path d="M-580.659,418.365l.811,17.423-7.518-7.767Z" transform="translate(587.366 -406.088)" fill="#3aaa35"/><path d="M-470.772,293.986a7.2,7.2,0,0,0,.218-5.026,37.383,37.383,0,0,0-3.3-6.883l-9.219,5.745a31.163,31.163,0,0,1,2.971,4.917,18.929,18.929,0,0,1,1.611,4.064s4.584-.522,5.819-1.326A11.717,11.717,0,0,0-470.772,293.986Z" transform="translate(492.465 -282.077)" fill="#12680e"/><path d="M-522.594,417.751s5.325-.483,10.44-1.521c4.589-.931,5.008-1.948,5.008-1.948l-5.964,11.609c-.388,1.055-1.645,2-7.03,2.884-2.786.456-2.905.254-2.905.254Z" transform="translate(528.838 -402.373)" fill="#3aaa35"/></g></g><g transform="translate(-620.511 -35.839)"><rect width="115.638" height="80.103" transform="translate(632.813 107.729)" fill="#a4b0c6"/><g transform="translate(651.203 107.655)"><g transform="translate(0 0)"><path d="M1074.7,204.9a.074.074,0,0,1-.074-.074V128.015a.074.074,0,0,1,.149,0v76.813A.074.074,0,0,1,1074.7,204.9Z" transform="translate(-1074.626 -127.941)" fill="#3a5270"/><g transform="translate(26.507)"><path d="M1262.146,204.9a.075.075,0,0,1-.074-.074V128.015a.074.074,0,0,1,.149,0v76.813A.074.074,0,0,1,1262.146,204.9Z" transform="translate(-1262.072 -127.941)" fill="#3a5270"/></g></g><g transform="translate(52.202 0)"><path d="M1443.848,204.9a.074.074,0,0,1-.074-.074V128.015a.074.074,0,1,1,.148,0v76.813A.074.074,0,0,1,1443.848,204.9Z" transform="translate(-1443.774 -127.941)" fill="#3a5270"/><g transform="translate(26.507)"><path d="M1631.3,204.9a.074.074,0,0,1-.074-.074V128.015a.074.074,0,1,1,.148,0v76.813A.074.074,0,0,1,1631.3,204.9Z" transform="translate(-1631.222 -127.941)" fill="#3a5270"/></g></g></g><g transform="translate(631.367 183.698)"><rect width="118.531" height="6.892" transform="translate(0 0)" fill="#a4b0c6"/><rect width="118.531" height="6.892" transform="translate(0 0)" fill="#a4b0c6" style="mix-blend-mode:multiply;isolation:isolate"/></g><g transform="translate(627.285 104.314)"><path d="M1,0H114.786a1,1,0,0,1,1,1V12.461a0,0,0,0,1,0,0H0a0,0,0,0,1,0,0V1A1,1,0,0,1,1,0Z" transform="translate(5.454)" fill="#ffce09"/></g><g transform="translate(632.739 116.701)"><path d="M944.127,258.823a.074.074,0,0,1-.074-.074V191.985a.074.074,0,0,1,.148,0v66.764A.074.074,0,0,1,944.127,258.823Z" transform="translate(-944.053 -191.911)" fill="#3a5270"/></g><rect width="115.786" height="2.93" transform="translate(632.739 118.09)" fill="#ffce09"/><g transform="translate(631.292 183.623)"><path d="M933.9,672.2a.074.074,0,0,1-.074-.074v-6.892a.074.074,0,1,1,.149,0v6.892A.074.074,0,0,1,933.9,672.2Z" transform="translate(-933.822 -665.158)" fill="#a4b0c6"/></g><g transform="translate(631.366 183.623)"><path d="M935.793,665.307H934.42a.074.074,0,0,1,0-.149h1.373a.074.074,0,0,1,0,.149Z" transform="translate(-934.346 -665.158)" fill="#a4b0c6"/></g><rect width="76.449" height="13.896" transform="translate(652.535 125.812)" fill="#fff"/><g transform="translate(636.069 148.39)"><g transform="translate(0)"><g transform="translate(0.209)"><rect width="3.589" height="3.557" transform="translate(0 1.049)" fill="#a4b0c6" opacity="0.29" style="mix-blend-mode:multiply;isolation:isolate"/><rect width="3.589" height="3.557" transform="translate(4.127 1.049)" fill="#a4b0c6" opacity="0.29" style="mix-blend-mode:multiply;isolation:isolate"/><rect width="3.589" height="4.606" transform="translate(8.255)" fill="#a4b0c6" opacity="0.29" style="mix-blend-mode:multiply;isolation:isolate"/><rect width="3.589" height="4.606" rx="1.795" transform="translate(12.382)" fill="#a4b0c6" opacity="0.29" style="mix-blend-mode:multiply;isolation:isolate"/><rect width="1.824" height="2.316" transform="translate(16.39 2.106)" fill="#a4b0c6" opacity="0.29" style="mix-blend-mode:multiply;isolation:isolate"/><rect width="2.482" height="3.767" transform="translate(18.843 0.655)" fill="#a4b0c6" opacity="0.29" style="mix-blend-mode:multiply;isolation:isolate"/></g><rect width="3.589" height="3.557" transform="translate(21.534 9.8) rotate(180)" fill="#a4b0c6" opacity="0.29" style="mix-blend-mode:multiply;isolation:isolate"/><rect width="3.589" height="3.557" transform="translate(17.407 9.8) rotate(180)" fill="#a4b0c6" opacity="0.29" style="mix-blend-mode:multiply;isolation:isolate"/><rect width="3.589" height="4.001" transform="translate(21.534 15.466) rotate(180)" fill="#a4b0c6" opacity="0.29" style="mix-blend-mode:multiply;isolation:isolate"/><rect width="3.589" height="4.001" transform="translate(17.407 15.466) rotate(180)" fill="#a4b0c6" opacity="0.29" style="mix-blend-mode:multiply;isolation:isolate"/><rect width="3.589" height="4.606" transform="translate(13.28 9.8) rotate(180)" fill="#a4b0c6" opacity="0.29" style="mix-blend-mode:multiply;isolation:isolate"/><rect width="3.589" height="4.606" rx="1.795" transform="translate(9.152 9.8) rotate(180)" fill="#a4b0c6" opacity="0.29" style="mix-blend-mode:multiply;isolation:isolate"/><rect width="3.589" height="3.557" transform="translate(11.844 15.466) rotate(180)" fill="#a4b0c6" opacity="0.29" style="mix-blend-mode:multiply;isolation:isolate"/><rect width="3.589" height="4.606" transform="translate(7.717 15.466) rotate(180)" fill="#a4b0c6" opacity="0.29" style="mix-blend-mode:multiply;isolation:isolate"/><rect width="3.589" height="4.606" rx="1.795" transform="translate(3.589 15.466) rotate(180)" fill="#a4b0c6" opacity="0.29" style="mix-blend-mode:multiply;isolation:isolate"/><rect width="1.824" height="2.316" transform="translate(5.144 9.617) rotate(180)" fill="#a4b0c6" opacity="0.29" style="mix-blend-mode:multiply;isolation:isolate"/><rect width="2.482" height="3.767" transform="translate(2.692 9.617) rotate(180)" fill="#a4b0c6" opacity="0.29" style="mix-blend-mode:multiply;isolation:isolate"/></g><g transform="translate(0 16.892)"><g transform="translate(0 0)"><rect width="3.589" height="3.557" transform="translate(21.325 4.606) rotate(180)" fill="#a4b0c6" opacity="0.29" style="mix-blend-mode:multiply;isolation:isolate"/><rect width="3.589" height="3.557" transform="translate(17.198 4.606) rotate(180)" fill="#a4b0c6" opacity="0.29" style="mix-blend-mode:multiply;isolation:isolate"/><rect width="3.589" height="4.606" transform="translate(13.07 4.606) rotate(180)" fill="#a4b0c6" opacity="0.29" style="mix-blend-mode:multiply;isolation:isolate"/><rect width="3.589" height="4.606" rx="1.795" transform="translate(8.943 4.606) rotate(180)" fill="#a4b0c6" opacity="0.29" style="mix-blend-mode:multiply;isolation:isolate"/><rect width="1.824" height="2.316" transform="translate(4.935 4.422) rotate(180)" fill="#a4b0c6" opacity="0.29" style="mix-blend-mode:multiply;isolation:isolate"/><rect width="2.482" height="3.767" transform="translate(2.482 4.422) rotate(180)" fill="#a4b0c6" opacity="0.29" style="mix-blend-mode:multiply;isolation:isolate"/></g><rect width="3.589" height="3.556" transform="translate(0 6.244)" fill="#a4b0c6" opacity="0.29" style="mix-blend-mode:multiply;isolation:isolate"/><rect width="3.589" height="3.556" transform="translate(4.127 6.244)" fill="#a4b0c6" opacity="0.29" style="mix-blend-mode:multiply;isolation:isolate"/><rect width="3.589" height="4.001" transform="translate(0 11.465)" fill="#a4b0c6" opacity="0.29" style="mix-blend-mode:multiply;isolation:isolate"/><rect width="3.589" height="4.001" transform="translate(4.127 11.465)" fill="#a4b0c6" opacity="0.29" style="mix-blend-mode:multiply;isolation:isolate"/><rect width="3.589" height="4.606" transform="translate(8.255 5.194)" fill="#a4b0c6" opacity="0.29" style="mix-blend-mode:multiply;isolation:isolate"/><rect width="3.589" height="4.606" rx="1.795" transform="translate(12.382 5.194)" fill="#a4b0c6" opacity="0.29" style="mix-blend-mode:multiply;isolation:isolate"/><rect width="3.589" height="3.556" transform="translate(9.691 11.91)" fill="#a4b0c6" opacity="0.29" style="mix-blend-mode:multiply;isolation:isolate"/><rect width="3.589" height="4.606" transform="translate(13.818 10.86)" fill="#a4b0c6" opacity="0.29" style="mix-blend-mode:multiply;isolation:isolate"/><rect width="3.589" height="4.606" rx="1.795" transform="translate(17.945 10.86)" fill="#a4b0c6" opacity="0.29" style="mix-blend-mode:multiply;isolation:isolate"/><rect width="1.824" height="2.316" transform="translate(16.39 7.3)" fill="#a4b0c6" opacity="0.29" style="mix-blend-mode:multiply;isolation:isolate"/><rect width="2.482" height="3.767" transform="translate(18.843 5.849)" fill="#a4b0c6" opacity="0.29" style="mix-blend-mode:multiply;isolation:isolate"/></g></g><rect width="22.304" height="28.178" transform="translate(719.051 154.02)" fill="#a4b0c6" opacity="0.29" style="mix-blend-mode:multiply;isolation:isolate"/><g transform="translate(652.408 141.802)"><g transform="translate(0 0)"><rect width="76.449" height="48.787" fill="#e8e9ea"/><rect width="71.249" height="47.128" transform="translate(2.6 1.659)" fill="#a4b0c6"/></g><g transform="translate(38.15 1.965)"><path d="M1353,430.21a.074.074,0,0,1-.074-.074V383.388a.074.074,0,0,1,.149,0v46.748A.074.074,0,0,1,1353,430.21Z" transform="translate(-1352.924 -383.314)" fill="#3a5270"/></g></g><rect width="5.896" height="9.455" transform="translate(731.997 143.461)" fill="#a4b0c6" opacity="0.29" style="mix-blend-mode:multiply;isolation:isolate"/><rect width="3.076" height="5.229" transform="translate(738.983 148.189)" fill="#a4b0c6" opacity="0.29" style="mix-blend-mode:multiply;isolation:isolate"/><g transform="translate(692.561 144.509)"><g transform="translate(0)"><path d="M1399.271,433.7h-32.183V388.556h32.183Zm-32.013-.17H1399.1v-44.8h-31.843Z" transform="translate(-1367.088 -388.556)" fill="#fff"/></g><rect width="1.009" height="8.686" rx="0.505" transform="translate(2.921 18.364)" fill="#fff"/></g><g transform="translate(656.277 144.509)"><g transform="translate(0)"><path d="M1142.69,433.7h-32.183V388.556h32.183Zm-32.013-.17h31.843v-44.8h-31.843Z" transform="translate(-1110.507 -388.556)" fill="#fff"/></g><rect width="1.009" height="8.686" rx="0.505" transform="translate(29.262 27.05) rotate(180)" fill="#fff"/></g><g transform="translate(658.005 129.815)"><path d="M1190.48,304.248c-.1,0-.288-.008-.439-.008s-.263.008-.263.151c0,.6.024,1.907.024,2.195a.443.443,0,0,1-.47.439.4.4,0,0,1-.431-.4v-.016c.024-.742.024-1.692.024-2.569,0-1.724,0-1.756.008-2.083.024-1.021.933-1.021,1.6-1.021.183,0,.367.008.487.016,1.293.088,1.827.846,1.827,1.6a1.5,1.5,0,0,1-1.165,1.5c-.056.016-.08.024-.08.048s.056.072.112.136a8.646,8.646,0,0,1,.893,1.364.872.872,0,0,0,.655.511.473.473,0,0,1-.1.941c-.127,0-.782-.024-1.324-.989C1191.334,305.174,1190.863,304.256,1190.48,304.248Zm1.46-1.676c0-.4-.3-.79-1-.83-.1-.008-.247-.008-.4-.008-.431,0-.718.024-.742.4-.016.192-.008.758-.016,1.221,0,.159.1.168.662.168.2,0,.407-.008.55-.016A.982.982,0,0,0,1191.941,302.573Z" transform="translate(-1188.9 -300.929)"/><path d="M1220.7,301.8c-.8,0-.966.016-.99.359-.016.191-.008.582-.016,1.045,0,.16.008.16.99.16.367,0,.75,0,.894-.008a.4.4,0,0,1,.447.423.423.423,0,0,1-.423.455h-.04c-.2-.016-.5-.024-.806-.024-.99,0-1.069.008-1.069.175,0,1.189.008,1.372.024,1.508.04.367.167.383,1.293.383.471,0,.981-.008,1.133-.016h.04a.4.4,0,0,1,.431.407.465.465,0,0,1-.5.447c-.1.008-.567.016-1.03.016s-.917-.008-1.021-.016c-.734-.056-1.189-.319-1.221-1.021-.016-.335-.016-.926-.016-1.572,0-.974.008-2.059.024-2.561a.992.992,0,0,1,1.077-1.005c.144-.008.6-.016,1.045-.016s.894.008,1.013.016a.425.425,0,0,1,.447.423.439.439,0,0,1-.471.431S1221.238,301.8,1220.7,301.8Z" transform="translate(-1212.845 -300.929)"/><path d="M1245.2,307.088a2.932,2.932,0,0,1-3.056-3.032,3.049,3.049,0,0,1,3.088-3.16c1.268,0,2.13.734,2.13,1.165a.5.5,0,0,1-.487.495.512.512,0,0,1-.407-.215,1.681,1.681,0,0,0-1.316-.567A2.109,2.109,0,0,0,1243.09,304a2.068,2.068,0,0,0,2.075,2.17,1.907,1.907,0,0,0,1.532-.67.465.465,0,0,1,.391-.208.547.547,0,0,1,.535.511C1247.622,306.218,1246.673,307.088,1245.2,307.088Z" transform="translate(-1231.524 -300.896)"/><path d="M1275.939,304.887a.32.32,0,0,0-.079-.263c-.583-.878-1.389-2.066-1.772-2.641a.479.479,0,0,1,.407-.766.436.436,0,0,1,.383.239c.335.583.894,1.412,1.452,2.242a.115.115,0,0,0,.1.064.1.1,0,0,0,.1-.056,22.768,22.768,0,0,0,1.445-2.258.391.391,0,0,1,.359-.223.551.551,0,0,1,.535.495.439.439,0,0,1-.072.232c-.359.574-1.253,1.907-1.772,2.633a.406.406,0,0,0-.1.311c0,.479.008,1.285.008,1.931a.455.455,0,0,1-.487.447.464.464,0,0,1-.5-.471Z" transform="translate(-1257.015 -301.152)"/><path d="M1305,307.088a2.932,2.932,0,0,1-3.056-3.032,3.049,3.049,0,0,1,3.088-3.16c1.268,0,2.13.734,2.13,1.165a.5.5,0,0,1-.487.495.512.512,0,0,1-.407-.215,1.681,1.681,0,0,0-1.316-.567,2.109,2.109,0,0,0-2.067,2.226,2.068,2.068,0,0,0,2.075,2.17,1.907,1.907,0,0,0,1.532-.67.465.465,0,0,1,.391-.208.547.547,0,0,1,.535.511C1307.413,306.218,1306.464,307.088,1305,307.088Z" transform="translate(-1279.385 -300.896)"/><path d="M1336.079,301.727a.442.442,0,0,1,.447-.471.453.453,0,0,1,.455.487v.032c-.024.511-.048,2.194-.048,3.3,0,.455.008.814.016.95.032.383.208.383,1.293.383.463,0,.973-.008,1.125-.016h.04a.417.417,0,0,1,.431.423.471.471,0,0,1-.5.455c-.1.008-.574.016-1.045.016s-.934-.008-1.037-.016c-.734-.056-1.173-.319-1.2-1.022-.008-.168-.008-.423-.008-.718,0-1.093.032-2.841.032-3.631v-.176Z" transform="translate(-1306.688 -301.184)"/><path d="M1363.242,301.8c-.8,0-.966.016-.989.359-.016.191-.008.582-.016,1.045,0,.16.008.16.99.16.367,0,.75,0,.893-.008a.4.4,0,0,1,.447.423.423.423,0,0,1-.423.455h-.04c-.2-.016-.5-.024-.806-.024-.99,0-1.069.008-1.069.175,0,1.189.008,1.372.024,1.508.04.367.168.383,1.292.383.471,0,.981-.008,1.133-.016h.04a.4.4,0,0,1,.431.407.465.465,0,0,1-.5.447c-.1.008-.567.016-1.029.016s-.918-.008-1.021-.016c-.734-.056-1.189-.319-1.221-1.021-.016-.335-.016-.926-.016-1.572,0-.974.008-2.059.024-2.561a.992.992,0,0,1,1.077-1.005c.144-.008.6-.016,1.046-.016s.894.008,1.013.016a.425.425,0,0,1,.447.423.44.44,0,0,1-.471.431S1363.785,301.8,1363.242,301.8Z" transform="translate(-1326.951 -300.929)"/><path d="M1401.209,307.121c-1.3,0-1.971-.742-1.971-1.133a.467.467,0,0,1,.463-.455.429.429,0,0,1,.351.2,1.372,1.372,0,0,0,1.165.535c.878,0,1.069-.6,1.069-.854a1.053,1.053,0,0,0-.607-.894c-.351-.2-.782-.439-1.205-.63a1.525,1.525,0,0,1,.7-2.952c1.1,0,1.732.526,1.732.9a.465.465,0,0,1-.447.463.506.506,0,0,1-.375-.191,1.166,1.166,0,0,0-.918-.367.736.736,0,0,0-.822.678.82.82,0,0,0,.5.7c.327.175.878.431,1.245.63a1.894,1.894,0,0,1,1.133,1.636A1.846,1.846,0,0,1,1401.209,307.121Z" transform="translate(-1357.272 -300.929)"/><path d="M1431.154,306.858a.42.42,0,0,1-.463.391c-.231-.008-.463-.128-.463-.383v-.016c.008-.359.016-.718.016-1.045,0-.5-.008-.918-.016-1.133,0-.127-.032-.143-.151-.151-.28-.008-.75-.016-1.229-.016-.591,0-1.205.008-1.516.016-.064,0-.152.008-.152.128-.008.207-.016.63-.016,1.157,0,.319,0,.678.016,1.045v.016c0,.255-.224.375-.455.375a.414.414,0,0,1-.463-.383v-.008c.016-.846.024-1.9.024-2.9,0-.894-.008-1.74-.024-2.346a.413.413,0,0,1,.455-.431.428.428,0,0,1,.463.415v.016c-.008.319-.016.638-.016.918,0,.431.008.79.016.989,0,.12.064.151.128.151.2.008.75.008,1.325.008s1.181,0,1.468-.008c.1,0,.128-.056.128-.143.008-.192.016-.551.016-.99,0-.287-.008-.606-.016-.926a.465.465,0,0,1,.926-.016v.016c-.016.583-.024,1.436-.024,2.306,0,1.117.008,2.266.024,2.937Z" transform="translate(-1378.903 -301.12)"/><path d="M1458.518,304.033a3.076,3.076,0,1,1,6.152,0,3.076,3.076,0,1,1-6.152,0Zm5.21,0a2.141,2.141,0,1,0-2.138,2.258A2.134,2.134,0,0,0,1463.729,304.033Z" transform="translate(-1404.724 -300.929)"/><path d="M1497.5,307.041a.424.424,0,0,1-.455-.407v-.024c.032-.622.04-1.325.04-2,0-.822-.016-1.6-.016-2.162,0-.982.008-1.508,1.572-1.508.168,0,.327.008.447.016a1.791,1.791,0,0,1,1.843,1.8,1.884,1.884,0,0,1-1.732,1.9,4.523,4.523,0,0,1-.574.04,2.559,2.559,0,0,1-.582-.064.156.156,0,0,0-.056-.008c-.04,0-.048.024-.048.088,0,.495.024,1.061.024,1.588v.311A.432.432,0,0,1,1497.5,307.041Zm1.125-5.266c-.639,0-.71.088-.71.83,0,.279.008.606.008.886v.136c0,.168.159.224.654.224.151,0,.319-.008.486-.024a1.109,1.109,0,0,0,.974-1.117.914.914,0,0,0-1.03-.926S1498.822,301.775,1498.63,301.775Z" transform="translate(-1435.568 -300.929)"/></g></g></g></g></svg>