<svg xmlns="http://www.w3.org/2000/svg" xmlns:xlink="http://www.w3.org/1999/xlink" width="140" height="140" viewBox="0 0 140 140"><defs><clipPath id="a"><circle cx="70" cy="70" r="70" transform="translate(0 0.477)" fill="#f7f3e5"/></clipPath></defs><g transform="translate(0 -0.477)"><circle cx="70" cy="70" r="70" transform="translate(0 0.477)" fill="#fff"/><g clip-path="url(#a)"><g transform="translate(-408.276 -8.056)"><g transform="translate(424.36 69.873)"><path d="M461.01,98.312c0,3.322-.114,6.366,0,9.412.094,2.5-.35,2.83-2.827,3.066-3.461.33-6.931.224-10.393.309-3.423.085-6.856-.21-10.283-.386-1.671-.086-2.153-.621-2.178-2.315-.032-2.209.006-4.42-.024-6.629a28.557,28.557,0,0,0-.508-4.819,82.066,82.066,0,0,0-3.263,10.2c-.077.342-.153.684-.255,1.019-.4,1.315-.748,1.582-2.1,1.565a8.906,8.906,0,0,1-2.711-.241,2.7,2.7,0,0,1-2.11-2.784,30.453,30.453,0,0,1,1.208-7.017c1.231-5.029,2.322-10.094,3.829-15.052a53.509,53.509,0,0,1,3.227-8.425,13.674,13.674,0,0,1,5.255-5.179,13.485,13.485,0,0,1,3.188-1.6,1.577,1.577,0,0,0,1.152-1.314c.45-1.892.976-2.343,2.92-2.24,2.17.115,4.348-.192,6.512.173,1.831.308,2.174.606,2.4,2.439a1.31,1.31,0,0,0,1,1.179,22.651,22.651,0,0,1,6.816,4.481c1.634,1.388,2.239,3.467,2.708,5.483.643,2.762,1.55,5.443,2.308,8.169,1.105,3.975,1.82,8.052,3.149,11.97.706,2.082,1.012,4.287,1.9,6.316.354.81-.071,1.354-.669,1.8a7.551,7.551,0,0,1-3.014,1.164c-.479.1-.969.153-1.448.254-1.347.284-1.607.132-2.079-1.195A84.8,84.8,0,0,0,461.01,98.312ZM448.919,70.118c-1.081.365-1.346.211-1.4-.839-.021-.419,0-.84-.008-1.26,0-.365-.039-.753-.486-.807-.47-.057-.469.355-.619.676-.364.78.292,1.586-.1,2.344-.963.24-1.447-.031-1.337-1.078a12.7,12.7,0,0,0,0-1.365c0-.415-.072-.807-.59-.818s-.616.419-.643.8c-.041.586-.011,1.177-.011,1.716-.441.286-1.087.128-1.067.8.017.592.511.686.922.86a3.482,3.482,0,0,0,.5.173,15.537,15.537,0,0,0,8.463-.261c.471-.143.979-.268,1.045-.877.082-.753-.731-.339-1.023-.809,0-.348,0-.8,0-1.251,0-.387-.115-.705-.564-.739s-.623.309-.669.66a8.986,8.986,0,0,0-.03,1.363c.009.4-.072.69-.558.69-.454,0-.49-.3-.494-.634a12.1,12.1,0,0,0-.032-1.259c-.055-.465-.2-.976-.791-.9-.555.068-.667.582-.635,1.055A5.173,5.173,0,0,1,448.919,70.118Zm12.488,17.031c0-1.763.04-2.954-.018-4.141-.027-.56.4-1.546-.478-1.566-.9-.02-.749,1-.765,1.659-.039,1.678.084,3.368-.076,5.033-.241,2.516-.063,5.028-.132,7.541-.013.463.187.879.678.91.608.037.6-.478.583-.9C461.084,92.646,461.553,89.617,461.407,87.149Zm-25.7,5.069h-.21c0-2.514.017-5.028-.009-7.541-.01-.9-.131-1.806-.187-2.71a.546.546,0,0,0-.5-.575.6.6,0,0,0-.589.357,1.8,1.8,0,0,0-.17,1.02c.056,1.079.174,2.158.172,3.238q-.01,4.406.222,8.8c.023.421-.014.938.575.929.5-.008.684-.437.692-.9C435.718,93.968,435.708,93.093,435.708,92.218Z" transform="translate(-424.36 -65.873)" fill="#ffce09"/></g></g><g transform="translate(922.074 -83.402)"><g transform="translate(-867.455 99.718)"><path d="M-597.74,158.3l15.127-8.683-3.473,10.237Z" transform="translate(614.1 -145.118)" fill="#3aaa35"/><path d="M-770.183,99.893a7.2,7.2,0,0,0-4.57,2.1,37.378,37.378,0,0,0-4.616,6.078l9.323,5.575a31.177,31.177,0,0,1,3.016-4.89,18.928,18.928,0,0,1,2.879-3.29s-2.559-3.839-3.839-4.57A11.719,11.719,0,0,0-770.183,99.893Z" transform="translate(779.369 -99.877)" fill="#12680e"/><path d="M-667.248,111.89s-2.863-4.516-6.124-8.591c-2.925-3.656-4.022-3.565-4.022-3.565h13.051c1.116-.137,2.533.548,5.777,4.936,1.679,2.27,1.554,2.468,1.554,2.468Z" transform="translate(686.579 -99.718)" fill="#3aaa35"/></g><g transform="translate(-874.863 114.511)"><path d="M-857.318,290.412l-14.252-10.055,10.747-1.167Z" transform="translate(872.046 -279.19)" fill="#3aaa35"/><path d="M-812.912,458.607a7.2,7.2,0,0,0,3.833,3.257,37.377,37.377,0,0,0,7.458,1.622l1.124-10.8a31.175,31.175,0,0,1-5.706-.673,18.928,18.928,0,0,1-4.2-1.223s-2.4,3.939-2.525,5.408A11.718,11.718,0,0,0-812.912,458.607Z" transform="translate(818.732 -435.329)" fill="#12680e"/><path d="M-864.3,305.055s-2.887,4.5-5.208,9.175c-2.082,4.194-1.536,5.15-1.536,5.15l-5.5-11.834c-.595-.954-.571-2.528,2.039-7.32,1.35-2.479,1.583-2.45,1.583-2.45Z" transform="translate(876.863 -296.103)" fill="#3aaa35"/></g><g transform="translate(-851.533 114.771)"><path d="M-580.659,418.365l.811,17.423-7.518-7.767Z" transform="translate(587.366 -406.088)" fill="#3aaa35"/><path d="M-470.772,293.986a7.2,7.2,0,0,0,.218-5.026,37.383,37.383,0,0,0-3.3-6.883l-9.219,5.745a31.163,31.163,0,0,1,2.971,4.917,18.929,18.929,0,0,1,1.611,4.064s4.584-.522,5.819-1.326A11.717,11.717,0,0,0-470.772,293.986Z" transform="translate(492.465 -282.077)" fill="#12680e"/><path d="M-522.594,417.751s5.325-.483,10.44-1.521c4.589-.931,5.008-1.948,5.008-1.948l-5.964,11.609c-.388,1.055-1.645,2-7.03,2.884-2.786.456-2.905.254-2.905.254Z" transform="translate(528.838 -402.373)" fill="#3aaa35"/></g></g><g transform="translate(-595.243 -45.533)"><rect width="0.87" height="16.207" transform="matrix(0.372, -0.928, 0.928, 0.372, 692.25, 141.031)" fill="#4e3b30"/><rect width="16.22" height="0.819" transform="matrix(0.928, -0.373, 0.373, 0.928, 691.293, 146.292)" fill="#4e3b30"/><g transform="translate(687.28 133.549)"><path d="M694.754,185.923c-2.075,6.767-3.511,11.785-4.6,11.3s.618-5.222,2.691-11.988,4.183-12.1,4.712-11.911S696.828,179.156,694.754,185.923Z" transform="translate(-689.81 -173.207)" fill="#c08d4e"/><path d="M735.3,185.56c1.916,6.716,3.236,11.7,4.34,11.19s-.5-5.208-2.411-11.924-3.9-12-4.434-11.795S733.384,178.843,735.3,185.56Z" transform="translate(-715.988 -173.025)" fill="#c08d4e"/></g><path d="M713.272,133.072c-.009-4.385-3.444-5.666-5.124-10.812-1.518-4.648-.262-7.345-1.289-10.65-.514-1.655-2.65-2.806-5.89-3.118a7.077,7.077,0,0,0-1.158-.088c-.116,0-.227.005-.341.007s-.225-.007-.341-.007a7.085,7.085,0,0,0-1.158.088c-3.24.313-5.375,1.463-5.889,3.118-1.027,3.3.228,6-1.289,10.65-1.681,5.146-5.115,6.427-5.124,10.812,0,2.118,4.725,3.889,11.048,4.332a22.138,22.138,0,0,0,2.413.108l.341,0,.341,0a22.128,22.128,0,0,0,2.413-.108C708.547,136.961,713.277,135.19,713.272,133.072Z" fill="#e33c0b"/><path d="M714.241,165.3c0,1.33-5.048,2.408-11.275,2.408s-11.276-1.078-11.276-2.408,5.048-2.408,11.276-2.408S714.241,163.966,714.241,165.3Z" transform="translate(-3.678 -33.284)" fill="#b40019"/></g><g transform="translate(12.617 -533.736)"><g transform="translate(32.624 620.833)"><path d="M70.764,665.958a1.2,1.2,0,0,1-1.2,1.2H37.037a1.2,1.2,0,0,1-1.2-1.2h0a1.2,1.2,0,0,1,1.2-1.2h32.53a1.2,1.2,0,0,1,1.2,1.2Z" transform="translate(-34.187 -642.187)" fill="#8e8e8f"/><path d="M4.209,0H34.018a4.211,4.211,0,0,1,4.211,4.211V19.257a4.211,4.211,0,0,1-4.211,4.211H4.209A4.209,4.209,0,0,1,0,19.259V4.209A4.209,4.209,0,0,1,4.209,0Z" transform="translate(0 0.013)" fill="#d4d5d5"/><path d="M101.646,657.753a1.76,1.76,0,1,1-1.76-1.76A1.759,1.759,0,0,1,101.646,657.753Z" transform="translate(-64.465 -637.925)" fill="#767676"/><path d="M89.87,642.7a.908.908,0,0,1-.8.985h0a.908.908,0,0,1-.8-.985V632a.908.908,0,0,1,.8-.986h0a.908.908,0,0,1,.8.986Z" transform="translate(-59.673 -625.781)" fill="#767676"/><rect width="0.434" height="23.532" transform="translate(31.98)" fill="#a6a7a7"/><rect width="22.897" height="14.694" transform="translate(3.387 3.961)" fill="#aab6bd"/><rect width="3.434" height="1.91" transform="translate(33.537 4.914)" fill="#a6a7a7"/><rect width="1.536" height="1.908" transform="translate(33.537 7.583)" fill="#a6a7a7"/><rect width="1.536" height="1.908" transform="translate(33.537 10.194)" fill="#a6a7a7"/><rect width="1.537" height="1.908" transform="translate(35.411 7.583)" fill="#a6a7a7"/><rect width="1.537" height="1.908" transform="translate(35.411 10.194)" fill="#a6a7a7"/><path d="M40.976,643.254v-12.9H54.42Z" transform="translate(-36.684 -625.462)" fill="#d1d6d9"/></g></g></g></g></svg>