<svg xmlns="http://www.w3.org/2000/svg" xmlns:xlink="http://www.w3.org/1999/xlink" width="140" height="140" viewBox="0 0 140 140"><defs><clipPath id="a"><circle cx="70" cy="70" r="70" transform="translate(0 0.477)" fill="#f7f3e5"/></clipPath></defs><g transform="translate(0 -0.477)"><circle cx="70" cy="70" r="70" transform="translate(0 0.477)" fill="#fff"/><g clip-path="url(#a)"><g transform="translate(33.202 24.508)"><g transform="translate(-32.982 -12.782)"><path d="M899.941,1682.173a8.115,8.115,0,0,0-4.258,3.275c-1.823,2.665-18.016,45.419-18.016,45.419l5.05-.14,14.277-5.979Z" transform="translate(-809.844 -1634.419)" fill="#4a98d4"/><path d="M998.232,1628.836c4.527,2.85,10.466,7.579,14.995,10.427,7.047,4.431,8.482,9.576,9.948,17.408,2.576,13.344-1.983,25.534-5.557,38.251q-2.888,10.277-5.776,20.554l-47.828-.062,6.936-77.448,10.425-6.884Z" transform="translate(-882.079 -1589.799)" fill="#4a98d4"/><path d="M1073.686,1582.155l.6,5.136,5.052,1.175,9.006-4.81L1087,1578.01Z" transform="translate(-973.827 -1547.28)" fill="#e2a775"/><g transform="translate(98.744 35.471)"><path d="M1070.354,1611.536l5.929,1.539,8.33-4.024,1.694,3.12s-3.287,7.034-9.638,6.021-7.73-2.978-7.73-2.978Z" transform="translate(-1068.601 -1608.718)" fill="#fff"/><path d="M1074.877,1616.817c-6.417-1.025-7.894-3.031-7.953-3.116a.329.329,0,0,1-.038-.307l1.416-3.679a.341.341,0,0,1,.4-.206l5.807,1.507,8.217-3.969a.341.341,0,0,1,.447.141l1.694,3.12a.331.331,0,0,1,.009.3c-.033.07-3.322,6.944-9.578,6.268h0C1075.161,1616.858,1075.019,1616.839,1074.877,1616.817Zm7.855-9.03-8.038,3.883a.344.344,0,0,1-.236.023l-5.633-1.462-1.235,3.21c.433.43,2.235,1.894,7.4,2.718.131.021.262.039.389.052h0c5.279.572,8.314-4.778,8.813-5.737Z" transform="translate(-1066.864 -1607.014)" fill="#50bef1"/></g><g transform="translate(106.22 39.742)"><path d="M1115.3,1638.538a.337.337,0,0,0,.342-.48l-2.388-4.73a.341.341,0,0,0-.454-.148.332.332,0,0,0-.152.447l2.388,4.729A.335.335,0,0,0,1115.3,1638.538Z" transform="translate(-1112.609 -1633.145)" fill="#50bef1"/></g><g transform="translate(104.489 39.45)"><path d="M1102.318,1636.864a.339.339,0,0,0,.365-.248,41.942,41.942,0,0,1,1.436-4.712.326.326,0,0,0-.044-.466.348.348,0,0,0-.481.047,34.321,34.321,0,0,0-1.566,4.965.331.331,0,0,0,.242.405A.32.32,0,0,0,1102.318,1636.864Z" transform="translate(-1102.017 -1631.363)" fill="#50bef1"/></g><path d="M1185.184,1771.919a.373.373,0,0,0,.1.027.366.366,0,0,0,.409-.307c.007-.056,2.327-13.094,5.892-22.6,3.5-9.334,6.735-10.873,6.767-10.887a.342.342,0,0,0,.177-.462.377.377,0,0,0-.486-.172c-.142.06-3.519,1.592-7.154,11.288-3.6,9.592-5.924,22.7-5.931,22.755A.349.349,0,0,0,1185.184,1771.919Z" transform="translate(-1066.916 -1680.691)" fill="#3874aa"/><path d="M1105.012,1664.85a10.573,10.573,0,0,0,2.281-.076,17.517,17.517,0,0,0,10.8-5.229.329.329,0,0,0-.04-.469.343.343,0,0,0-.476.041,17.156,17.156,0,0,1-10.366,5c-2.2.262-2.7-.04-2.774-.1a.339.339,0,0,0-.664.093.548.548,0,0,0,.21.4A1.89,1.89,0,0,0,1105.012,1664.85Z" transform="translate(-998.999 -1615.031)" fill="#339458"/><path d="M1019.777,1449.537s2.98,19.159,3.677,22.6,7.343,6.067,11.862,3.33,8.092-5.605,7.3-13.613a75.992,75.992,0,0,0-2.527-13.664Z" transform="translate(-928.728 -1438.678)" fill="#e2a775"/><path d="M1131.707,1475.744c.535,2.005-1.106,4.19-3.665,4.879s-5.063-.378-5.6-2.382,1.112-4.192,3.664-4.881S1131.175,1473.736,1131.707,1475.744Z" transform="translate(-1014.534 -1459.556)" fill="#e2a775"/><path d="M1031.48,1395.775c-1.341-1.854-8.293-6.575-14.009-5.686a8.958,8.958,0,0,0-4.4,1.546,9.456,9.456,0,0,0-2.288,2.588s-.326-2.929.286-3.381a6.793,6.793,0,0,0-2.385,2.788,4.111,4.111,0,0,0-.033,2.706,3.7,3.7,0,0,1-1.52-1.535,5.272,5.272,0,0,0-.588,3.333,5.42,5.42,0,0,0,6.92,5.172c1.04-.186,2.01-.532,3.035-.754a10.335,10.335,0,0,1,5.234.1c2.628.8,4.252,3.059,5.385,5.487.3.644,1.661,3.8,1.661,3.8l1.851-.464s-1.418-5.577-1.27-6.52a1.5,1.5,0,0,1,.569-.978,2.917,2.917,0,0,1,1.185-.152S1033.612,1398.724,1031.48,1395.775Z" transform="translate(-917.612 -1389.978)" fill="#69452e"/><path d="M1062.57,1502.806a.3.3,0,0,0,.234-.326.3.3,0,0,0-.331-.258l-5.711.7c.5-3.609,1.308-9.08,1.509-9.591a.293.293,0,0,0-.045-.377.3.3,0,0,0-.423.018c-.079.083-.318.337-1.687,10.255a.293.293,0,0,0,.083.247.3.3,0,0,0,.247.086l6.093-.75Z" transform="translate(-959.126 -1476.061)" fill="#0d0002"/><path d="M1084.726,1494.128a1.248,1.248,0,0,0,.965,1.421,1.138,1.138,0,0,0,1.322-.992,1.248,1.248,0,0,0-.971-1.416A1.138,1.138,0,0,0,1084.726,1494.128Z" transform="translate(-983.051 -1476.264)" fill="#0d0002"/><path d="M1044.473,1503.857a1.25,1.25,0,0,0,.964,1.421,1.138,1.138,0,0,0,1.322-.992,1.248,1.248,0,0,0-.969-1.418A1.139,1.139,0,0,0,1044.473,1503.857Z" transform="translate(-949.377 -1484.402)" fill="#0d0002"/><path d="M1111.932,1507.738a1.438,1.438,0,0,0,1.751,1.063,1.473,1.473,0,0,0,1.1-1.752,1.443,1.443,0,0,0-1.753-1.066A1.471,1.471,0,0,0,1111.932,1507.738Z" transform="translate(-1005.791 -1486.99)" fill="#e9706e"/><path d="M1114.337,1508.758a.279.279,0,0,0,.172-.117c.181-.262.749-1.142.5-1.471a.463.463,0,0,0-.319-.179c-.346-.041-.791.242-1.354.681-.035.029-.066.053-.088.068l-.059.044c.008-.018.017-.037.025-.057.019-.043.041-.093.063-.146.118-.273.354-.846.6-.892a.288.288,0,0,0,.223-.328.277.277,0,0,0-.329-.216c-.531.115-.824.781-1.014,1.226l-.059.137c-.157.349-.3.738-.045.939s.611-.029.922-.262c.023-.017.057-.044.1-.077a4.323,4.323,0,0,1,.773-.518,6,6,0,0,1-.409.744.275.275,0,0,0,.289.425Z" transform="translate(-1006.316 -1487.154)" fill="#e55a65"/><path d="M1050.157,1414.956c-.161-.1-.321-.2-.479-.3l-.025-.016a.32.32,0,0,1-.1-.446.331.331,0,0,1,.451-.1l.024.016c.16.1.321.2.484.306a.322.322,0,0,1,.094.447.333.333,0,0,1-.2.14A.319.319,0,0,1,1050.157,1414.956Zm-2.083-1.387c-.217-.171-.411-.338-.591-.51a.322.322,0,0,1,0-.457.329.329,0,0,1,.461-.011,6.882,6.882,0,0,0,.542.467.321.321,0,0,1,.05.454.33.33,0,0,1-.458.057Zm-1.764-2.088c-.04-.079-.079-.16-.116-.244-.071-.159-.136-.321-.193-.479a.328.328,0,0,1,.616-.223c.05.144.109.29.173.434.033.074.068.147.1.218a.325.325,0,0,1-.146.436.327.327,0,0,1-.437-.141Zm-.279-2.358a.32.32,0,0,1-.239-.388,1.824,1.824,0,0,1,.425-.806.329.329,0,0,1,.461-.023.321.321,0,0,1,.018.456,1.148,1.148,0,0,0-.271.518.329.329,0,0,1-.394.242Z" transform="translate(-950.483 -1404.906)" fill="#ab6d39"/><path d="M1096.541,1431.8c-.135-.212-.272-.414-.409-.6a.327.327,0,0,1,.529-.385c.146.2.29.41.433.635a.325.325,0,0,1-.1.447.375.375,0,0,1-.1.044A.323.323,0,0,1,1096.541,1431.8Zm-1.621-1.913a6.365,6.365,0,0,0-.571-.427.319.319,0,0,1-.086-.448.33.33,0,0,1,.453-.092,7.188,7.188,0,0,1,.628.47.327.327,0,0,1-.424.5Zm-2.18-1.218c-.22-.078-.455-.151-.7-.216a.318.318,0,0,1-.223-.4.33.33,0,0,1,.4-.226c.255.069.506.147.742.23a.319.319,0,0,1,.193.413.333.333,0,0,1-.239.208A.324.324,0,0,1,1092.74,1428.664Z" transform="translate(-988.988 -1421.629)" fill="#ab6d39"/><path d="M1125.526,1421.471a.321.321,0,0,1-.371-.266c-.014-.1-.032-.195-.052-.291-.028-.13-.063-.263-.1-.395a.327.327,0,0,1,.625-.193c.045.148.084.3.116.444q.035.164.059.331a.326.326,0,0,1-.254.367Zm-1.277-2.568c-.122-.2-.258-.4-.4-.6a.327.327,0,0,1,.53-.383c.155.213.3.429.431.64a.326.326,0,0,1-.111.446.338.338,0,0,1-.1.041A.321.321,0,0,1,1124.249,1418.9Zm-1.586-1.989c-.168-.173-.346-.345-.524-.511a.321.321,0,0,1-.012-.457.33.33,0,0,1,.462-.019c.186.173.37.353.546.534a.32.32,0,0,1-.01.458.33.33,0,0,1-.156.084A.325.325,0,0,1,1122.662,1416.914Z" transform="translate(-1014.276 -1411.615)" fill="#ab6d39"/><path d="M1106.148,1582.836l.018,0a22.242,22.242,0,0,0,3.782-1.707c2.522-1.351,3.845-5.48,3.9-5.656a.293.293,0,0,0-.2-.369.3.3,0,0,0-.376.2c-.012.04-1.3,4.069-3.607,5.3a22.23,22.23,0,0,1-3.665,1.659.3.3,0,0,0-.207.37A.3.3,0,0,0,1106.148,1582.836Z" transform="translate(-1000.68 -1544.834)" fill="#cb6362"/><path d="M1040.874,1735.858a5.983,5.983,0,0,0-.9-1.556,12.93,12.93,0,0,0-4-2.922,46.633,46.633,0,0,0-7.129-3.255c-.57-.181-1.345-.594-1.817-.123-.3.3-.489.891-.78,1.244a8.554,8.554,0,0,0-1.269,1.648c-.394.825-.06,1.306.35,2.052,1.416,2.576,3.9,4.718,6.1,6.6a22.961,22.961,0,0,0,3.3,2.4c2.619,1.513,5.409-.154,6.434-2.811A4.744,4.744,0,0,0,1040.874,1735.858Z" transform="translate(-932.926 -1672.575)" fill="#efe1de"/><path d="M987.865,1702.156c-.1-.137-.2-.276-.288-.415-.263-.394-.435-.867-.707-1.251-.344-.484-.925-.81-1.138-1.405.443-.183.913.137,1.318.3-.081-.513-.887-1.315-.359-1.8a8.4,8.4,0,0,0,1.45,1.143c.043-.513-.34-1.44.12-1.812.541.464.836,1.193,1.385,1.64.281-.336.584-1.778,1.211-1.116.49.518.135,1.687.521,2.294.268.42.957.594,1.384.83.9.5,2.167,1.078,2.618,2.071.569,1.253-1.7,4.069-3.074,3.342a9.165,9.165,0,0,1-1.658-1.3c-.365-.32-.557-.794-.934-1.09-.249-.2-.594-.269-.858-.442A3.93,3.93,0,0,1,987.865,1702.156Z" transform="translate(-900.247 -1646.757)" fill="#f0c0ae"/><g transform="translate(90.388 56.296)"><path d="M1045.633,1775.3a31.132,31.132,0,0,0,.475-8.113c-.145-3.956-.287-8.145-2.175-11.708-1.446-2.73-3.6-5.035-6.864-4.884l-6.15.284q-1.18.6-2.364,1.191c-.87.439-1.368,2.446-1.679,3.26a34.884,34.884,0,0,0-1.583,5.078c-.435,2.014.717,4.489-.959,6.145-1.119,1.1-3.15.982-4.52,1.71a7.946,7.946,0,0,0-4.079,6.534c.156,4.91,6.711,4.65,9.987,5.839,1.663.6,3.273,1.3,4.932,1.92,1.519.565,2.928,1.5,4.615,1.177a20.149,20.149,0,0,0,6.086-2.215A9.173,9.173,0,0,0,1045.633,1775.3Z" transform="translate(-1015.733 -1747.945)" fill="#efe1de"/><path d="M1083.3,1736.627a5.145,5.145,0,0,1,.746-1.274c.9-1.084,1.859-.979,3.134-.806a46.789,46.789,0,0,1,6.2,1.135c1.438.4,2.826.35,3.119,1.983a14.792,14.792,0,0,1-.149,3.94,4.848,4.848,0,0,1-1.7,3.6,7.191,7.191,0,0,1-4.167,1.673c-3.037.427-6.489.29-8.084-2.729C1081.221,1741.918,1082.41,1738.739,1083.3,1736.627Z" transform="translate(-1071.091 -1734.439)" fill="#9381ba"/></g><path d="M1105.407,1647.825s8.335-10.052,18.05-.766c8.234,7.874-2.287,17.29-1.835,16.688Z" transform="translate(-1000.364 -1601.749)" fill="#aa593b"/><path d="M1099.951,1674.008a10.753,10.753,0,0,1-14.964,2.418,10.555,10.555,0,1,1,14.964-2.418Z" transform="translate(-979.367 -1613.51)" fill="#f0c0ae"/><path d="M1187.5,1745.934a3.43,3.43,0,1,1-.834-4.772A3.411,3.411,0,0,1,1187.5,1745.934Z" transform="translate(-1063.816 -1683.248)" fill="#f0c0ae"/><path d="M1146.248,1728.446a1.411,1.411,0,0,1-1.611,1.033,1.231,1.231,0,0,1-.9-1.564,1.415,1.415,0,0,1,1.612-1.032A1.236,1.236,0,0,1,1146.248,1728.446Z" transform="translate(-1032.385 -1671.799)" fill="#0d0002"/><path d="M1158.8,1646.8a5.919,5.919,0,0,0-.511-.378c-.964-.632-2.948-1.486-4.036-.766-.886.587-.7,1.79-.647,2.707.142,2.346.761,5.613,2.912,6.992a16.358,16.358,0,0,1,0-2.442c.936,1.405,1.767,3.006,2.813,4.364.613.8,3.442,3.809,4.684,2.661.337-.313-.537-1.612-.481-2.048C1164.016,1654.11,1161.7,1649.191,1158.8,1646.8Z" transform="translate(-1040.637 -1603.638)" fill="#aa593b"/><path d="M1105.978,1701.93a1.412,1.412,0,0,1-1.611,1.033,1.233,1.233,0,0,1-.906-1.565,1.414,1.414,0,0,1,1.614-1.03A1.234,1.234,0,0,1,1105.978,1701.93Z" transform="translate(-998.697 -1649.618)" fill="#0d0002"/><path d="M1155.242,1744.254a1.918,1.918,0,1,0,2.435-1.2A1.908,1.908,0,0,0,1155.242,1744.254Z" transform="translate(-1041.969 -1685.262)" fill="#ec8d9a"/><path d="M1104.312,1734.882l5.765,3.294s-2.7,3.132-5.146,1.22C1103.272,1738.1,1104.312,1734.882,1104.312,1734.882Z" transform="translate(-999.179 -1678.513)" fill="#c1143a"/><path d="M1116.967,1727.863a.425.425,0,0,0,.341-.358c.019-.138.063-.209.088-.221s.093-.015.237.061a.424.424,0,0,0,.392-.753,1.065,1.065,0,0,0-1.018-.062,1.081,1.081,0,0,0-.539.857.424.424,0,0,0,.5.476Z" transform="translate(-1009.613 -1671.443)" fill="#0d0002"/><path d="M1183.541,1666.318c-.2-.272-.394-.546-.572-.818a.246.246,0,0,1,.412-.269c.173.263.359.531.555.794a.246.246,0,1,1-.4.293Zm-1.331-2.109c-.053-.1-.106-.206-.158-.31-.1-.192-.19-.387-.281-.581a.246.246,0,1,1,.444-.209c.091.192.184.384.277.572.05.1.1.2.152.3a.245.245,0,0,1-.1.332.252.252,0,0,1-.068.024A.248.248,0,0,1,1182.211,1664.209Zm-1.032-2.258c-.126-.315-.242-.63-.345-.934a.247.247,0,0,1,.154-.312.244.244,0,0,1,.311.154c.1.3.214.6.337.91a.246.246,0,0,1-.138.319.294.294,0,0,1-.045.014A.247.247,0,0,1,1181.178,1661.951Zm-.411-2.2a.245.245,0,0,1-.263-.227c-.02-.282-.023-.563-.026-.861v-.136a.246.246,0,1,1,.491-.006l0,.138c0,.29.006.563.024.83a.247.247,0,0,1-.2.259A.129.129,0,0,1,1180.767,1659.748Z" transform="translate(-1063.165 -1614.426)" fill="#b66f50"/><path d="M1205.7,1681.883a.246.246,0,0,1-.251-.241c0-.315-.024-.637-.059-.959a.245.245,0,1,1,.488-.054c.037.336.059.674.064,1a.245.245,0,0,1-.2.245A.2.2,0,0,1,1205.7,1681.883Zm-.561-2.62c-.075-.307-.164-.619-.265-.926a.246.246,0,1,1,.467-.154c.1.32.2.644.275.964a.247.247,0,0,1-.181.3l-.013,0A.245.245,0,0,1,1205.139,1679.263Zm-.792-2.275c-.132-.291-.277-.581-.431-.864a.246.246,0,1,1,.431-.235c.16.293.309.594.446.9a.244.244,0,0,1-.122.325.312.312,0,0,1-.056.018A.246.246,0,0,1,1204.347,1676.989Zm-1.185-2.1c-.182-.266-.374-.529-.572-.779a.246.246,0,1,1,.387-.3c.2.26.4.532.591.806a.247.247,0,0,1-.065.342.235.235,0,0,1-.092.038A.245.245,0,0,1,1203.162,1674.888Z" transform="translate(-1081.62 -1627.339)" fill="#b66f50"/><path d="M1013.572,1871.758c-.45-2.315-2.111-3.52-4.241-4.226a8.671,8.671,0,0,0-5.787-.117c-1.3.492-2.339,1.164-2.558,2.61a5.98,5.98,0,0,0,1.119,4.538c1.15,1.347,2.827,1.9,4.367,2.616a17.662,17.662,0,0,0,2.589,1.13,15.987,15.987,0,0,1,2.475.888c.872.421,1.586.943,2.567.494a3.5,3.5,0,0,0,1.86-3.257c.053-1.215-.68-1.65-1.492-2.488A3.477,3.477,0,0,1,1013.572,1871.758Z" transform="translate(-912.953 -1789.013)" fill="#f0c0ae"/><path d="M1040.28,1886.282a.255.255,0,0,0,.225-.4c-.141-.2-3.466-4.965-6.018-5.118a.255.255,0,0,0-.031.508c2.308.137,5.6,4.852,5.63,4.9A.252.252,0,0,0,1040.28,1886.282Z" transform="translate(-940.808 -1800.553)" fill="#cb6362"/><path d="M1040.147,1924a2.815,2.815,0,0,1,.2-1.384c.408-1.054,1.669-2.075,1.25-3.31-.312-.923-1.77-1.25-1.762-2.341.008-1.2,2.238-1.736,2.969-2.3s1.555-2.767,2.668-2.426c.486.149.611.856.9,1.218a8.1,8.1,0,0,0,1.274,1.18c3.071,2.5,1.589,4.9-.727,7.309-1.149,1.193-2.773,3.428-4.531,3.557C1041.031,1925.6,1040.278,1924.945,1040.147,1924Z" transform="translate(-945.506 -1826.852)" fill="#7c72b1"/><path d="M1136.33,1876.466a.187.187,0,0,0,.164-.294c-1.237-1.75-4.981-2.2-6.768-1.239a.186.186,0,1,0,.176.329c1.646-.881,5.176-.448,6.287,1.125A.187.187,0,0,0,1136.33,1876.466Z" transform="translate(-1020.625 -1795.263)" fill="#b3a8a4"/><path d="M1066.3,1890.07c.965.381,2.109.677,2.683-.213a17.264,17.264,0,0,1,1.635-1.77c.146-.169,1.6-2.113,1.427-2.227a4.278,4.278,0,0,0,3.266.8c5.12-.783,2.328-7.334.095-9.61-1.152-1.175-2.57-2.078-4.269-1.7-2.107.473-3.068,2.569-4.221,4.169a18.56,18.56,0,0,0-1.611,2.677c-.308.634-.406,1.353-.681,2a6.493,6.493,0,0,1-1.52,2.3c-1.254,1.249,1.367,2.808,2.311,3.2C1065.667,1889.8,1065.971,1889.942,1066.3,1890.07Z" transform="translate(-964.693 -1795.954)" fill="#f0c0ae"/><path d="M1022.545,1909.486a.272.272,0,0,1-.263-.161l-.95-2.146a.271.271,0,0,1,.5-.219l.95,2.146a.271.271,0,0,1-.138.357A.265.265,0,0,1,1022.545,1909.486Z" transform="translate(-930.009 -1822.333)" fill="#cb6362"/><path d="M1008.439,1718.443a.2.2,0,0,0,.086-.049.206.206,0,0,0,.008-.292,2.1,2.1,0,0,1-.41-1.15.275.275,0,0,1,.058-.185.125.125,0,0,1,.108-.033c.128.017.424.165.97.973a.206.206,0,0,0,.342-.23c-.5-.739-.9-1.105-1.258-1.152a.536.536,0,0,0-.433.131.645.645,0,0,0-.2.476,2.513,2.513,0,0,0,.523,1.453A.206.206,0,0,0,1008.439,1718.443Z" transform="translate(-918.633 -1662.986)" fill="#ec7a5f"/><path d="M951.281,1945.885c2.928.778,5.762,2.138,8.755,2.106a10.214,10.214,0,0,0,3.31-.582,14.5,14.5,0,0,1,2.19-.875c1.54-.276,1.413,1.439.575,2.258a8.1,8.1,0,0,1-4.335,2.224c1.067.5,6.511,2.268,5.349,4.044-1.094,1.675-3.624-.117-4.919.031-.025.654.278,1.411.01,2.033-.525,1.218-1.384.234-2.287.187-.171.625-.488,2.152-1.3,2.283-.581.094-1.467-.719-2.07-.92a3.461,3.461,0,0,1-1.36.932,2.794,2.794,0,0,1-1.558-.783c-1.132-.881-2.321-1.684-3.463-2.577-1.119-.877-2.3-1.687-3.346-2.63a6,6,0,0,0-2.817-1.426c-.607-.122-1.278-.043-1.895-.118-.641-.079-2.364-.042-2.9-.509-.438-.38-.236-1.243-.26-1.8-.038-.854-.492-2.606-.082-3.4.544-1.054,4.054-.666,5.158-.77s2.194-.183,3.292-.227A13.243,13.243,0,0,1,951.281,1945.885Z" transform="translate(-860.907 -1854.593)" fill="#e2a775"/><g transform="translate(72.087 83.519)"><g transform="translate(0 0)"><path d="M945.385,1918.174l3.913-7.166s-17.494-8.048-21.977-8.811c-4.87-.828-5.552-.561-10.382-1.066a30.536,30.536,0,0,0-9.344.636c-1.031.216-3.5.436-3.8,1.763-.312,1.4,1.556,1.485,1.65,2.718.049.648-1.085,1.141-1.027,1.923.074,1.021,1.388.928,1.617,1.738s-1.243,1.475-.6,2.363c.256.353,1.677.476,2.114.573-.233,1.537-.151,2.376,1.267,2.872s3.034.428,4.421.988c.43-1.507-1.389-2.424-2.512-2.744-.025-.491-.052-1.018-.075-1.468,1.763-.7,4.025-.008,5.915-.323a34.99,34.99,0,0,0,4.711-1.286c2.652-.839,4.508-1.766,7.349-1.059,1.922.478,3.522,1.676,5.281,2.539C937.763,1914.255,941.642,1916.059,945.385,1918.174Z" transform="translate(-903.759 -1901.004)" fill="#edbf98"/></g></g><path d="M890.068,1913.087l.029.009c.646.155,2.08-.674,2.408-.911.169-.122.277-.228.29-.379a.3.3,0,0,0-.564-.165,4.842,4.842,0,0,1-1.995.873.3.3,0,0,0-.169.573Z" transform="translate(-820.05 -1826.25)" fill="#cb6362"/><path d="M896.661,1932.547a.3.3,0,0,0,.23-.013,7.928,7.928,0,0,0,2.358-1.941.3.3,0,1,0-.508-.316,7.592,7.592,0,0,1-2.112,1.719.3.3,0,0,0,.031.552Z" transform="translate(-825.566 -1841.855)" fill="#cb6362"/><path d="M905.187,1951.632a.3.3,0,0,0,.36-.136,4.931,4.931,0,0,1,.768-.849c.454-.435.682-.653.619-.918a.358.358,0,0,0-.244-.255.3.3,0,0,0-.376.2.307.307,0,0,0-.009.138c-.091.106-.268.275-.4.407a5.1,5.1,0,0,0-.877.987.3.3,0,0,0,.115.408A.358.358,0,0,0,905.187,1951.632Z" transform="translate(-832.698 -1858.022)" fill="#cb6362"/><path d="M1057.645,1924.2a4.767,4.767,0,0,1-2.12,2.278,9.169,9.169,0,0,1-2.649.7,5.972,5.972,0,0,1-4.433-.873c-1.1-.675-2.243-1.294-3.362-1.941-2.729-1.578-5.9-2.367-8.618-3.959-1.985-1.162-3.97-2.327-5.938-3.517-.45-.271-5.4-2.2-5.562-2.764-.118-.422,3.905-8.558,3.905-8.558.129.044,3.262,1.207,3.39,1.251l17.231,5.869a10.7,10.7,0,0,0,2.418.713,7.129,7.129,0,0,1,2.305.564,11.3,11.3,0,0,1,3.919,2.993C1059.6,1918.665,1058.533,1922.426,1057.645,1924.2Z" transform="translate(-933.065 -1821.3)" fill="#4a98d4"/><g transform="translate(93.159 55.418)"><path d="M1068.4,1776.851a4.422,4.422,0,0,0-5.869,2.8,5.07,5.07,0,0,0,3.282,6.044,4.423,4.423,0,0,0,5.866-2.8A5.069,5.069,0,0,0,1068.4,1776.851Zm-1.932,6.6a2.506,2.506,0,0,1-1.622-2.987,2.185,2.185,0,0,1,2.9-1.382,2.5,2.5,0,0,1,1.619,2.986A2.184,2.184,0,0,1,1066.463,1783.456Z" transform="translate(-1057.499 -1768.798)" fill="#38b1bf"/><g transform="translate(0 0)"><path d="M1051.168,1745.129c1.177,2.088.149,4.7-2.289,5.836a5.074,5.074,0,0,1-6.545-1.71c-1.175-2.082-.15-4.7,2.29-5.833A5.073,5.073,0,0,1,1051.168,1745.129Z" transform="translate(-1040.35 -1740.633)" fill="#4eb6bf"/><g transform="translate(5.787)"><path d="M1071.337,1730.458c-.033.788-.908,3.715-1.8,3.735s-1.467-2.873-1.436-3.661a1.657,1.657,0,0,1,1.678-1.466A1.42,1.42,0,0,1,1071.337,1730.458Z" transform="translate(-1068.098 -1729.065)" fill="#4eb6bf"/></g><g transform="translate(0 2.855)"><path d="M1034.595,1746.7c.718.406,3.13,2.595,2.849,3.416s-3.153-.035-3.869-.441a1.916,1.916,0,0,1-.789-2.223A1.229,1.229,0,0,1,1034.595,1746.7Z" transform="translate(-1032.688 -1746.533)" fill="#4eb6bf"/></g><path d="M1066.816,1767.55c.442.805-.257,1.967-1.561,2.6s-2.722.488-3.162-.317.259-1.967,1.563-2.6S1066.376,1766.745,1066.816,1767.55Z" transform="translate(-1057.177 -1760.667)" fill="#fff"/><path d="M1053.473,1765.833a.6.6,0,0,1-.239.844.68.68,0,0,1-.873-.3.6.6,0,0,1,.241-.844A.674.674,0,0,1,1053.473,1765.833Z" transform="translate(-1049.077 -1759.518)" fill="#42373b"/><path d="M1078.158,1753.907a.6.6,0,0,1-.24.842.68.68,0,0,1-.872-.3.6.6,0,0,1,.242-.844A.675.675,0,0,1,1078.158,1753.907Z" transform="translate(-1069.727 -1749.54)" fill="#42373b"/><path d="M1073.876,1775.569a.231.231,0,0,0,.078.045.2.2,0,0,0,.26-.125l.193-.675.7.244a.2.2,0,0,0,.259-.126.224.224,0,0,0-.147-.267l-.9-.314a.207.207,0,0,0-.16.007.189.189,0,0,0-.1.118l-.25.871A.221.221,0,0,0,1073.876,1775.569Z" transform="translate(-1067.08 -1766.939)" fill="#42373b"/><path d="M1072.6,1771.567c.113.2-.114.517-.506.706s-.8.178-.91-.026.116-.517.507-.7S1072.492,1771.361,1072.6,1771.567Z" transform="translate(-1064.873 -1764.485)" fill="#42373b"/></g></g><path d="M1084.553,1814.233c1.394,2.31,5.206.662,5.714-1.858a1.661,1.661,0,0,0-.135-1.469c-.114-.193-1.256-1.289-1.479-1.022-.458.548.1.92.184,1.509a5.909,5.909,0,0,0-1.879-1.073c-.367-.092-.4-.588-.729.023a.564.564,0,0,0,.324.892c-1.125-.621-1.858-.352-.979.83-1.02-.957-1.1.206-.452.9-.827-.706-1.082-.194-.914.438A3.216,3.216,0,0,0,1084.553,1814.233Z" transform="translate(-982.588 -1741.222)" fill="#f0c0ae"/><path d="M1113.051,1841.014a7.391,7.391,0,0,0,1.207-.1,9.052,9.052,0,0,0,5.667-3.256.221.221,0,1,0-.352-.267,8.727,8.727,0,0,1-5.387,3.087,8.331,8.331,0,0,1-4.1-.444,7.3,7.3,0,0,1-1.881-1.125c-.312-.232-.635-.472-.977-.684a.221.221,0,0,0-.233.376c.326.2.641.436.946.663a7.74,7.74,0,0,0,2,1.186A9.279,9.279,0,0,0,1113.051,1841.014Z" transform="translate(-1001.606 -1764.198)" fill="#b3a8a4"/><path d="M1125.027,1821.521a.217.217,0,0,0,.155-.063.221.221,0,0,0,0-.313,5.074,5.074,0,0,0-2.976-.758.221.221,0,0,0,.01.442,4.667,4.667,0,0,1,2.65.625A.22.22,0,0,0,1125.027,1821.521Z" transform="translate(-1014.239 -1750.044)" fill="#b3a8a4"/><path d="M1138.358,1802.022a.223.223,0,0,0,.123-.037,19.738,19.738,0,0,0,2.1-1.687,16.058,16.058,0,0,1,3.48-2.526.221.221,0,0,0-.2-.4,16.4,16.4,0,0,0-3.574,2.589,19.29,19.29,0,0,1-2.051,1.651.221.221,0,0,0,.123.405Z" transform="translate(-1027.745 -1730.775)" fill="#b3a8a4"/><path d="M1078.909,1931.871c-3.027,0-7.64-1.589-13.769-4.747-5.764-2.97-10.824-6.3-10.875-6.338a.471.471,0,1,1,.519-.785c.05.033,5.075,3.342,10.794,6.289,7.468,3.848,12.7,5.349,15.131,4.34,6.014-2.5,13.158-20.1,13.23-20.28a.471.471,0,1,1,.874.351c-.3.74-7.365,18.151-13.743,20.8A5.642,5.642,0,0,1,1078.909,1931.871Z" transform="translate(-957.404 -1825.057)" fill="#3874aa"/><path d="M864.795,1790s5.89,2.427,9,10.465,4.063,37.061,4.063,37.061l-8.244.443Z" transform="translate(-799.076 -1724.625)" fill="#e4a643"/><path d="M742.487,1835.214l-5.913-43.767.029-12.832-7.774-6.623-13.546.217-8.477,6.929,1.981,37.109-2.912,19.363Z" transform="translate(-666.129 -1709.559)" fill="#e4a643"/><path d="M730.822,1637.794c-1.234,1.1,1.952,1.776,2.627,1.7a6.963,6.963,0,0,0,4.482-3.594c1.4-3.034-.459-8.589-3.308-10.173a6.431,6.431,0,0,0-4.957-.675,1.954,1.954,0,0,0-1.025,2.884c-2.25-1.865-4.213.481-4.549,1.529-.4,1.237-.1,3.636,1.634,3.517-.97.344-.7,2.177-.369,2.925.9,2.034,3.5,2.328,5.387,2.058C730.756,1637.984,730.834,1637.782,730.822,1637.794Z" transform="translate(-681.237 -1586.433)" fill="#c6654d"/><path d="M712.185,1512.09c1.585,6.857,8.956,12.706,8.956,12.706l14.059-1.071s5.807-6.157,5.254-12.281a35.937,35.937,0,0,0-.959-5.886,11.66,11.66,0,0,0-2.45-5.021c-2.677-2.812-6.531-3.817-9.537-4.148a24.451,24.451,0,0,0-3.386-.12c-.734.021-1.176.081-1.176.081l-.064.019-2.837.955a11.463,11.463,0,0,0-1.073.653C716.372,1499.706,710.209,1503.543,712.185,1512.09Z" transform="translate(-671.086 -1478.884)" fill="#c6654d"/><path d="M736.033,1566.694a11.829,11.829,0,1,0,11.277-12.055A11.674,11.674,0,0,0,736.033,1566.694Z" transform="translate(-691.347 -1527.717)" fill="#edbf98"/><path d="M701.581,1610.3a3.745,3.745,0,1,0,3.569-3.919A3.747,3.747,0,0,0,701.581,1610.3Z" transform="translate(-662.533 -1571.011)" fill="#edbf98"/><path d="M743.385,1527.168a21.618,21.618,0,0,1,1.129,3.686c.14.719.685,2.414.192,3.046-.83-.98-1.241-2.3-2.2-3.217a31.057,31.057,0,0,0-4.06-3.375,6.753,6.753,0,0,0,.7,2.286,15.946,15.946,0,0,1-4.76-3.322c-1.029,1.877-3.239,3.285-4.887,4.5-1.445,1.071-3.591,2.753-5.363,3.157.552-1.556,1.534-2.983,1.625-4.7-1.044,1.4-1.55,3.248-2.635,4.7a10.861,10.861,0,0,1-3.1,3.285c-1.449-2.561-2.626-4.907-2.239-8.062a13.407,13.407,0,0,1,2.983-6.413,11,11,0,0,1,5.542-3.455c.7-.219,1.729-.077,2.375-.5a3.51,3.51,0,0,1,1.85-.564,13.58,13.58,0,0,1,9.158,3.178C741.624,1522.909,742.478,1524.854,743.385,1527.168Z" transform="translate(-676.034 -1497.249)" fill="#c6654d"/><path d="M833.814,1602.351a1.185,1.185,0,0,0,.674,1.463,1.042,1.042,0,0,0,1.354-.707,1.183,1.183,0,0,0-.679-1.462A1.04,1.04,0,0,0,833.814,1602.351Z" transform="translate(-773.112 -1566.998)" fill="#0d0608"/><path d="M781.776,1605.95a1.187,1.187,0,0,0,.674,1.463,1.043,1.043,0,0,0,1.355-.707,1.186,1.186,0,0,0-.68-1.461A1.04,1.04,0,0,0,781.776,1605.95Z" transform="translate(-729.579 -1570.009)" fill="#0d0608"/><path d="M813.077,1611.976a.282.282,0,0,0,.2-.1c.092-.113.2-.221.3-.325a1.7,1.7,0,0,0,.663-1.4,11.284,11.284,0,0,0-.9-2.314c-.208-.457-.4-.889-.465-1.081a.278.278,0,0,0-.529.174c.072.219.265.645.487,1.136a13.216,13.216,0,0,1,.851,2.139c.037.379-.159.6-.507.956-.111.112-.225.229-.333.36a.278.278,0,0,0,.038.392A.281.281,0,0,0,813.077,1611.976Z" transform="translate(-755.186 -1571.168)" fill="#0d0608"/><path d="M714.574,1476.749l1.091,3.026c.146-.549.331-1.1.5-1.572a35.646,35.646,0,0,1,1.642-4.175c1.361-2.933,3.19-5.961,5.977-7.823,4.484-2.99,10.238-1.115,13.966,2.252a13.819,13.819,0,0,1,2.023,2.265,30.217,30.217,0,0,1,2.439,3.918c.2.38.383.775.568,1.183a25.549,25.549,0,0,0-.9-4.975c-.624-.836-2.784-4.387-6.286-6.355a15.653,15.653,0,0,0-4.179-1.549c-.922-.214-2.789-.412-3.632.132a5.813,5.813,0,0,0,2.048-2.309.314.314,0,0,0,.071-.11,6.956,6.956,0,0,0-.285-6.983,13.262,13.262,0,0,0-2.877,5.334,7.773,7.773,0,0,0-.283,1.427,1.1,1.1,0,0,0-.012.212,24.668,24.668,0,0,1-.316,3.027,9.7,9.7,0,0,0-.924-2.927,8.964,8.964,0,0,0-.789-1.329c-1.309-1.84-6.215-4.011-6.215-4.011s-1.025-1.124.259,3.755a4.655,4.655,0,0,0,1.651,2.421,6.992,6.992,0,0,0,1.183.772,12.848,12.848,0,0,0,3.644,1.207c-3.809-.368-6.787,4.068-8.22,6.9A25.99,25.99,0,0,0,714.574,1476.749Z" transform="translate(-673.406 -1443.264)" fill="#4c8fc4"/><path d="M773.2,1696.308l6.856-.14a10.426,10.426,0,0,1-2.223-1.839c-1.79-1.684-2.633-13.576-2.633-13.576h-2.21v.023l0-.023h-2.209s-.842,11.892-2.631,13.576l-1.79,1.684,6.422.294v.021l.21-.01.21.01Z" transform="translate(-716.724 -1633.231)" fill="#edbf98"/><path d="M782.244,1538.442a.34.34,0,0,1,.013-.48,3.91,3.91,0,0,0,.471-.548.339.339,0,1,1,.549.4,4.559,4.559,0,0,1-.554.643.333.333,0,0,1-.209.092A.341.341,0,0,1,782.244,1538.442Zm1.572-2.238a.34.34,0,0,1-.165-.451c.063-.135.125-.269.181-.4l.144-.315a.339.339,0,1,1,.619.277l-.146.319c-.058.128-.119.263-.182.4a.343.343,0,0,1-.285.195A.331.331,0,0,1,783.816,1536.2Zm1.073-2.534a.339.339,0,0,1-.222-.424c.076-.249.143-.5.2-.737a.339.339,0,1,1,.66.156c-.06.255-.132.518-.214.781a.341.341,0,0,1-.424.224Zm.557-2.69a.338.338,0,0,1-.334-.344c0-.2,0-.409-.016-.61,0-.046-.007-.092-.011-.14a.336.336,0,0,1,.307-.366l.007,0a.34.34,0,0,1,.361.309c0,.05.008.1.012.153.015.219.021.444.017.667a.34.34,0,0,1-.315.333Z" transform="translate(-729.938 -1506.711)" fill="#e17632"/><path d="M743.257,1548a.341.341,0,0,1,.02-.479l.093-.091a.339.339,0,0,1,.488.47c-.04.041-.079.08-.122.119a.338.338,0,0,1-.206.09A.343.343,0,0,1,743.257,1548Zm1.135-1.75a.339.339,0,0,1-.237-.417c.063-.233.118-.472.173-.708l.011-.043a.339.339,0,1,1,.66.154l-.01.043c-.056.243-.114.49-.18.733a.34.34,0,0,1-.3.248A.348.348,0,0,1,744.392,1546.25Zm.7-2.662a.338.338,0,0,1-.231-.42q.111-.381.228-.76a.339.339,0,1,1,.647.2q-.114.373-.225.749a.338.338,0,0,1-.419.23Zm.853-2.623a.343.343,0,0,1-.164-.448c.105-.242.212-.479.322-.713a.339.339,0,0,1,.615.284c-.107.231-.212.464-.313.694,0,.007-.011.026-.015.033a.33.33,0,0,1-.274.181A.346.346,0,0,1,745.944,1540.965Zm1.184-2.478a.341.341,0,0,1-.132-.462q.194-.349.4-.691a.339.339,0,1,1,.581.351c-.135.219-.263.443-.389.67a.336.336,0,0,1-.273.173A.329.329,0,0,1,747.128,1538.487Zm1.461-2.33a.341.341,0,0,1-.059-.477c.165-.212.337-.42.508-.621a.339.339,0,0,1,.514.442c-.165.193-.329.392-.487.6a.331.331,0,0,1-.244.131A.355.355,0,0,1,748.589,1536.157Z" transform="translate(-697.327 -1511.25)" fill="#e17632"/><path d="M839.464,1549.043a6.936,6.936,0,0,0-.161-.734.339.339,0,0,1,.655-.177,7.855,7.855,0,0,1,.177.8.341.341,0,0,1-.28.39l-.032,0A.34.34,0,0,1,839.464,1549.043Zm-.821-2.528c-.1-.228-.216-.462-.335-.7a.339.339,0,1,1,.6-.308c.123.242.241.484.347.723a.339.339,0,0,1-.168.449.325.325,0,0,1-.116.03A.338.338,0,0,1,838.642,1546.515Zm-1.3-2.371c-.139-.219-.281-.433-.429-.646a.338.338,0,1,1,.556-.385c.153.219.3.441.443.665a.338.338,0,0,1-.262.52A.34.34,0,0,1,837.341,1544.144Zm-1.6-2.182c-.167-.2-.339-.393-.509-.58a.338.338,0,1,1,.5-.458c.178.192.355.395.53.6a.339.339,0,1,1-.519.438Zm-1.9-1.894c-.207-.167-.413-.314-.608-.442a.339.339,0,0,1,.367-.569c.214.139.438.3.665.481a.338.338,0,0,1,.053.476.326.326,0,0,1-.241.126A.338.338,0,0,1,833.836,1540.068Z" transform="translate(-772.537 -1514.647)" fill="#e17632"/><path d="M757.419,1622.859a1.357,1.357,0,1,0,1.259-1.446A1.355,1.355,0,0,0,757.419,1622.859Z" transform="translate(-709.246 -1583.587)" fill="#db6b69"/><path d="M856.5,1616a1.356,1.356,0,1,0,1.259-1.447A1.355,1.355,0,0,0,856.5,1616Z" transform="translate(-792.132 -1577.848)" fill="#db6b69"/><path d="M759.838,1624.07a.258.258,0,0,0,.172-.081c.258-.276.844-.956.67-1.281a.428.428,0,0,0-.262-.213c-.313-.1-.766.1-1.348.423l-.08.044-.061.032.033-.052c.024-.037.051-.079.08-.126.146-.232.448-.713.676-.728h.016a.26.26,0,0,0-.027-.518c-.507.023-.866.591-1.106.971l-.074.118c-.194.3-.383.634-.178.859s.562.071.881-.094l.09-.05a3.922,3.922,0,0,1,.794-.364,5.449,5.449,0,0,1-.482.624.259.259,0,0,0,.011.368A.262.262,0,0,0,759.838,1624.07Z" transform="translate(-709.952 -1583.719)" fill="#d55861"/><path d="M858.213,1617.262a.257.257,0,0,0,.17-.081c.2-.214.854-.938.677-1.281a.432.432,0,0,0-.266-.214c-.314-.094-.765.1-1.346.422l-.082.046c-.021.011-.042.02-.06.031l.031-.052.077-.122c.148-.235.451-.721.687-.733a.26.26,0,0,0-.019-.519c-.5.015-.868.6-1.108.976l-.07.115c-.2.3-.385.633-.18.859s.562.071.881-.094l.1-.052a3.836,3.836,0,0,1,.79-.362,5.226,5.226,0,0,1-.484.623.26.26,0,0,0,.207.438Z" transform="translate(-792.25 -1578.023)" fill="#d55861"/><path d="M797.954,1694.12l2.793-.193a.339.339,0,1,0-.048-.676l-2.791.192a.339.339,0,1,0,.046.677Z" transform="translate(-742.855 -1643.685)" fill="#b35d55"/><path d="M641.279,2053.859c0,2.48-2.3,8.119-4.407,8.119s-3.821-2.009-3.821-4.488,1.711-4.491,3.821-4.491S641.279,2051.378,641.279,2053.859Z" transform="translate(-605.206 -1944.204)" fill="#edbf98"/><path d="M939.861,2079.909c0,2.48-2.3,8.119-4.407,8.119s-3.821-2.01-3.821-4.489,1.711-4.491,3.821-4.491S939.861,2077.428,939.861,2079.909Z" transform="translate(-854.99 -1965.997)" fill="#e2847c"/><path d="M656.555,1798.19s-2.312-.253-6.508,7.278-8.58,35.889-8.58,35.889l6.9,2.177Z" transform="translate(-612.247 -1731.474)" fill="#e4a643"/><g transform="translate(0 69.706)"><path d="M474.62,1820.981c-2.348-1.476-8.49-4.456-8.406-3.483,0,.125.056.357.042.429-1.025-.626-2.322-1.49-3.551-1.437-.339.691,2.512,2.176,3,2.577a5.1,5.1,0,0,0-1.167-.112c-.1.417.345.632.642.819,1.37.861,2.367,1.455,3.743,2.311.716.444,1.386.949,2.07,1.441.148.107.841.447.673.712-.145.225-.931-.093-1.133-.173a5.223,5.223,0,0,1-1.354-.845c-.588-.5-1.565-1.318-2.4-1.114-.717.177-.1.541.295.857.491.39,1.008.727,1.475,1.141.367.327.667.817,1.054,1.093a13.354,13.354,0,0,0,2.417,1.027c.982.409,1.971.743,2.913,1.24a9.5,9.5,0,0,1,1.8.922c.52.438,1.048.9,1.569,1.352a18.954,18.954,0,0,1,1.846,1.836,18.04,18.04,0,0,1,2.3,4.344c.867-.585,2.105-.585,3.107-.928a21.233,21.233,0,0,0-1.066-2.749,9.042,9.042,0,0,1-.781-1.677,10.262,10.262,0,0,1-.551-2c-.019-.617.238-1.175.255-1.76a3.747,3.747,0,0,0-.549-1.537c-.255-.56-.525-1.107-.765-1.682a19.453,19.453,0,0,1-1.494-3.408c-.092-.441-.654-2.261-.982-.916-.275,1.132-.121,2.284-.323,3.4-.131.72-.79.329-1.357.093A22.485,22.485,0,0,1,474.62,1820.981Z" transform="translate(-462.678 -1816.487)" fill="#edbf98"/><path d="M583.381,1925.431l-10.322-30.554,2.378-3.032,13.247,31.456Z" transform="translate(-555.019 -1879.529)" fill="#edbf98"/></g><path d="M489.185,1836.191a.332.332,0,0,1-.145-.034l-8.428-4.024a.339.339,0,0,1,.292-.612l8.428,4.025a.339.339,0,0,1-.147.645Z" transform="translate(-477.519 -1759.331)" fill="#c06060"/><path d="M495.849,1830.363a.358.358,0,0,1-.145-.033l-8.428-4.023a.339.339,0,0,1,.292-.613l8.429,4.024a.336.336,0,0,1,.159.451A.34.34,0,0,1,495.849,1830.363Z" transform="translate(-483.094 -1754.455)" fill="#c06060"/><path d="M886.239,1886.557a.38.38,0,0,1-.379-.35l-2.657-34.179a.38.38,0,1,1,.757-.059l2.658,34.179a.379.379,0,0,1-.349.408Z" transform="translate(-814.474 -1776.171)" fill="#d18700"/><path d="M993.014,1761.6a.437.437,0,0,1-.436-.426l-.561-21.882a.437.437,0,0,1,.425-.448h.011a.437.437,0,0,1,.436.426l.561,21.882a.437.437,0,0,1-.425.448Z" transform="translate(-905.505 -1681.83)" fill="#3874aa"/><path d="M811.18,1659.492c0,.516-.293.934-.654.934s-.654-.418-.654-.934.293-.934.654-.934S811.18,1658.977,811.18,1659.492Z" transform="translate(-753.129 -1614.663)" fill="#b31938"/><path d="M1083.091,1578.495a.311.311,0,0,1-.31-.287c0-.053-.006-.107-.006-.161a1.929,1.929,0,1,1,3.857-.091.311.311,0,0,1-.622.027,1.307,1.307,0,1,0-2.612.064c0,.038,0,.076,0,.113a.311.311,0,0,1-.286.334Z" transform="translate(-981.431 -1545.639)" fill="#c1143a"/></g><g transform="matrix(-0.485, 0.875, -0.875, -0.485, 57.083, 28.052)"><path d="M0,0S11.009,2.132,8.926,3.856C7.228,5.261,0,0,0,0Z" transform="translate(0.339 0.339)" fill="#fff"/><path d="M.14.613A.339.339,0,0,1,.4.006c.022,0,2.232.434,4.461,1.054,4.19,1.164,4.847,1.975,4.977,2.483a.861.861,0,0,1-.36.912,1.564,1.564,0,0,1-1.025.316h0C5.883,4.772.373.782.14.613ZM8.456,4.094a.923.923,0,0,0,.594-.161c.158-.131.141-.2.135-.223-.034-.134-.412-.861-4.5-2C3.7,1.441,2.724,1.2,1.939,1.027,3.744,2.219,6.842,4.094,8.456,4.094Z" transform="translate(0 0)" fill="#0d0002"/></g><g transform="matrix(-0.485, 0.875, -0.875, -0.485, 51.495, 28.095)"><path d="M0,0S9.315,6.242,6.727,7.02C4.616,7.656,0,0,0,0Z" transform="translate(0.339 0.339)" fill="#fff"/><path d="M.049.514A.339.339,0,0,1,.527.057c.019.013,1.887,1.267,3.7,2.7,3.408,2.7,3.7,3.7,3.621,4.221a.861.861,0,0,1-.686.7,1.26,1.26,0,0,1-.362.052h0C4.47,7.735.494,1.253.049.514ZM6.8,7.058a.581.581,0,0,0,.166-.023c.2-.059.208-.129.211-.152.021-.137-.045-.953-3.368-3.588C3,2.656,2.188,2.055,1.531,1.584,3.213,4.109,5.575,7.058,6.8,7.058Z" transform="translate(0 0)" fill="#0d0002"/></g><g transform="matrix(-0.485, 0.875, -0.875, -0.485, 53.49, 22.133)"><path d="M0,0S9.315,6.241,6.727,7.022C4.616,7.657,0,0,0,0Z" transform="translate(0.339 0.339)" fill="#fff"/><path d="M.049.513A.339.339,0,0,1,.527.057c.019.012,1.887,1.267,3.7,2.7,3.408,2.7,3.7,3.7,3.621,4.222a.862.862,0,0,1-.686.7,1.244,1.244,0,0,1-.361.052h0C4.47,7.736.494,1.253.049.513ZM6.8,7.059a.587.587,0,0,0,.166-.023c.2-.059.207-.13.211-.153.02-.137-.045-.954-3.369-3.588C3,2.656,2.188,2.054,1.531,1.584,3.213,4.109,5.575,7.059,6.8,7.059Z" transform="translate(0 0)" fill="#0d0002"/></g><path d="M2673.946,288.268a3.327,3.327,0,0,1-2.721,1.457,2.8,2.8,0,0,1-2.8-1.215,3.244,3.244,0,0,1-.3-2.064,4.544,4.544,0,0,1-2.12.293,3.369,3.369,0,0,1-2.068-1.055c-2.869,1.071-7.752,1.889-10.355-.992-1.848-2.045-2.142-5.309-.826-9.19,1.88-5.553,6.47-10.636,10.23-11.332a.312.312,0,0,1,.115.613c-3.563.659-7.938,5.557-9.755,10.919-1.239,3.657-.99,6.7.7,8.572,2.061,2.28,6.2,2.082,9.479.9a5.505,5.505,0,0,1-.553-1.028c-1.232-2.963,1.929-8.3,5.082-9.823a2.847,2.847,0,0,1,4.093,1.193,3.4,3.4,0,0,1,.179,2.857c-1.054,3.055-5.605,6.126-7.759,7.06a2.708,2.708,0,0,0,1.514.688,4.173,4.173,0,0,0,2.2-.4,4.568,4.568,0,0,1,.968-1.836,1.728,1.728,0,0,1,2.165-.477.312.312,0,0,1,.109.463,7.98,7.98,0,0,1-2.707,2.277,3,3,0,0,0,.153,2.045,2.237,2.237,0,0,0,2.212.913,2.9,2.9,0,0,0,2.194-1.053.19.19,0,0,0-.053-.229.312.312,0,1,1,.45-.431.808.808,0,0,1,.188.878Zm-10.406-4.363a4.813,4.813,0,0,0,.576,1.036l.138-.058c1.777-.753,6.454-3.755,7.474-6.716a2.794,2.794,0,0,0-.135-2.352,2.213,2.213,0,0,0-3.277-.934c-2.542,1.228-5.2,5.29-5,8.04A3.162,3.162,0,0,0,2663.539,283.905Zm7.2-.067a1.224,1.224,0,0,0-1.047.47,3.377,3.377,0,0,0-.612.97A7.5,7.5,0,0,0,2670.737,283.838Z" transform="translate(-2675.548 -247.874)" fill="#0d0002"/></g></g></g></svg>