<svg xmlns="http://www.w3.org/2000/svg" xmlns:xlink="http://www.w3.org/1999/xlink" width="140" height="140" viewBox="0 0 140 140"><defs><clipPath id="a"><circle cx="70" cy="70" r="70" transform="translate(0 0.477)" fill="#f7f3e5"/></clipPath></defs><g transform="translate(0 -0.477)"><circle cx="70" cy="70" r="70" transform="translate(0 0.477)" fill="#fff"/><g clip-path="url(#a)"><g transform="translate(-52.292 -327.98)"><path d="M1826.32,873.939l-54.074,39.291,34.556,14,20.5-50.232A2.2,2.2,0,0,0,1826.32,873.939Z" transform="translate(-1654.899 -495.624)" fill="#c2c3c3"/><g transform="translate(117.024 365.31)"><g transform="translate(0 0)"><path d="M1759.614,416.293,1780,366.486a1.892,1.892,0,0,1,2.463-1.037l31.049,12.57a1.9,1.9,0,0,1,1.043,2.465l-20.381,49.806Z" transform="translate(-1759.614 -365.31)" fill="#d6d7d8"/><path d="M1992.223,2096.962a1.9,1.9,0,0,0-1.037-2.459l-2.509-1.015a1.9,1.9,0,0,0-2.458,1.044h0a1.894,1.894,0,0,0,1.039,2.46l2.507,1.016a1.89,1.89,0,0,0,2.457-1.045Z" transform="translate(-1980.289 -2049.168)" fill="#726d7c"/><path d="M2286.058,2215.893a1.9,1.9,0,0,0-1.044-2.463l-2.507-1.017a1.9,1.9,0,0,0-2.46,1.045h0a1.9,1.9,0,0,0,1.044,2.463l2.5,1.01a1.9,1.9,0,0,0,2.465-1.038Z" transform="translate(-2266.606 -2165.053)" fill="#726d7c"/><path d="M2579.693,2334.872a1.893,1.893,0,0,0-1.039-2.459l-2.511-1.021a1.9,1.9,0,0,0-2.46,1.045l0,0a1.9,1.9,0,0,0,1.046,2.462l2.507,1.015a1.9,1.9,0,0,0,2.458-1.045Z" transform="translate(-2552.731 -2280.99)" fill="#726d7c"/><path d="M2875.624,2248.262a1.9,1.9,0,0,0-1.041-2.459l-2.506-1.016a1.894,1.894,0,0,0-2.463,1.041l-2.129,5.26a1.889,1.889,0,0,0,1.038,2.458l2.513,1.021a1.9,1.9,0,0,0,2.459-1.045Z" transform="translate(-2839.022 -2196.598)" fill="#33374b"/><path d="M2075.49,1891.415a1.892,1.892,0,0,0-1.039-2.457l-2.5-1.011a1.9,1.9,0,0,0-2.465,1.039h0a1.9,1.9,0,0,0,1.043,2.466l2.505,1.01a1.888,1.888,0,0,0,2.457-1.046Z" transform="translate(-2061.428 -1848.881)" fill="#726d7c"/><path d="M2369.248,2010.259a1.9,1.9,0,0,0-1.045-2.462l-2.505-1.018a1.9,1.9,0,0,0-2.462,1.047h0a1.9,1.9,0,0,0,1.045,2.463l2.5,1.011a1.9,1.9,0,0,0,2.466-1.042Z" transform="translate(-2347.669 -1964.678)" fill="#726d7c"/><path d="M2663.011,2129.313a1.9,1.9,0,0,0-1.04-2.457l-2.508-1.017a1.9,1.9,0,0,0-2.466,1.04h0a1.9,1.9,0,0,0,1.045,2.462l2.509,1.016a1.9,1.9,0,0,0,2.46-1.045Z" transform="translate(-2633.919 -2080.691)" fill="#726d7c"/><path d="M2158.734,1685.71a1.9,1.9,0,0,0-1.043-2.465l-2.507-1.015a1.9,1.9,0,0,0-2.461,1.045h0a1.9,1.9,0,0,0,1.045,2.463l2.508,1.016a1.9,1.9,0,0,0,2.458-1.043Z" transform="translate(-2142.54 -1648.426)" fill="#726d7c"/><path d="M2452.5,1804.745a1.9,1.9,0,0,0-1.042-2.465l-2.507-1.011a1.9,1.9,0,0,0-2.464,1.042h0a1.9,1.9,0,0,0,1.046,2.461l2.507,1.018a1.9,1.9,0,0,0,2.46-1.046Z" transform="translate(-2428.793 -1764.422)" fill="#726d7c"/><path d="M2746.285,1923.642a1.894,1.894,0,0,0-1.035-2.461l-2.508-1.015a1.9,1.9,0,0,0-2.466,1.041h0a1.9,1.9,0,0,0,1.043,2.464l2.507,1.017a1.9,1.9,0,0,0,2.459-1.046Z" transform="translate(-2715.068 -1880.277)" fill="#726d7c"/><path d="M3040.111,2042.573a1.9,1.9,0,0,0-1.042-2.465l-2.509-1.014a1.9,1.9,0,0,0-2.46,1.044h0a1.9,1.9,0,0,0,1.043,2.465l2.508,1.017a1.9,1.9,0,0,0,2.459-1.046Z" transform="translate(-3001.383 -1996.166)" fill="#282b36"/><path d="M2242.017,1480.11a1.9,1.9,0,0,0-1.036-2.461l-2.509-1.014a1.9,1.9,0,0,0-2.466,1.04h0a1.9,1.9,0,0,0,1.044,2.463l2.507,1.017a1.9,1.9,0,0,0,2.459-1.045Z" transform="translate(-2223.695 -1448.085)" fill="#726d7c"/><path d="M2535.787,1599.023a1.9,1.9,0,0,0-1.042-2.465l-2.505-1.012a1.885,1.885,0,0,0-2.459,1.048h0a1.889,1.889,0,0,0,1.039,2.458l2.508,1.016a1.888,1.888,0,0,0,2.46-1.045Z" transform="translate(-2509.953 -1563.956)" fill="#726d7c"/><path d="M2829.5,1718a1.9,1.9,0,0,0-1.043-2.465l-2.506-1.017a1.9,1.9,0,0,0-2.466,1.042h0a1.9,1.9,0,0,0,1.042,2.464l2.508,1.017A1.9,1.9,0,0,0,2829.5,1718Z" transform="translate(-2796.151 -1679.889)" fill="#726d7c"/><path d="M3123.437,1836.94a1.892,1.892,0,0,0-1.038-2.461l-2.509-1.015a1.883,1.883,0,0,0-2.457,1.047h0a1.892,1.892,0,0,0,1.038,2.458l2.512,1.023a1.89,1.89,0,0,0,2.454-1.052Z" transform="translate(-3082.582 -1795.791)" fill="#282b36"/><path d="M2325.227,1274.563a1.9,1.9,0,0,0-1.037-2.46l-2.507-1.017a1.9,1.9,0,0,0-2.462,1.044h0a1.894,1.894,0,0,0,1.04,2.461l2.507,1.014a1.894,1.894,0,0,0,2.458-1.043Z" transform="translate(-2304.777 -1247.794)" fill="#726d7c"/><path d="M2619.114,1393.406a1.891,1.891,0,0,0-1.039-2.46l-2.507-1.017a1.9,1.9,0,0,0-2.459,1.048h0a1.9,1.9,0,0,0,1.043,2.465l2.5,1.01a1.886,1.886,0,0,0,2.459-1.045Z" transform="translate(-2591.151 -1363.597)" fill="#726d7c"/><path d="M2912.843,1512.492a1.9,1.9,0,0,0-1.039-2.462l-2.511-1.019a1.9,1.9,0,0,0-2.462,1.042h0a1.894,1.894,0,0,0,1.041,2.459l2.508,1.017a1.9,1.9,0,0,0,2.463-1.037Z" transform="translate(-2877.365 -1479.635)" fill="#726d7c"/><path d="M3206.662,1631.351a1.9,1.9,0,0,0-1.043-2.464l-2.508-1.016a1.893,1.893,0,0,0-2.459,1.047h0a1.891,1.891,0,0,0,1.039,2.457l2.512,1.022a1.9,1.9,0,0,0,2.458-1.046Z" transform="translate(-3163.674 -1595.455)" fill="#282b36"/><path d="M2416.433,1064.978l-2.5-1.013a1.478,1.478,0,1,0-1.071,2.626l2.507,1.016a1.478,1.478,0,1,0,1.067-2.628Z" transform="translate(-2394.893 -1045.927)" fill="#282b36"/><path d="M2710.3,1183.936l-2.5-1.012a1.477,1.477,0,1,0-1.065,2.63l2.506,1.017a1.478,1.478,0,1,0,1.06-2.635Z" transform="translate(-2681.25 -1161.845)" fill="#282b36"/><path d="M3003.956,1302.9l-2.508-1.016a1.478,1.478,0,1,0-1.07,2.626l2.515,1.018a1.476,1.476,0,1,0,1.063-2.629Z" transform="translate(-2967.389 -1277.768)" fill="#282b36"/><path d="M3297.893,1421.777l-2.5-1.011a1.477,1.477,0,1,0-1.066,2.63l2.509,1.014a1.476,1.476,0,1,0,1.056-2.633Z" transform="translate(-3253.823 -1393.603)" fill="#282b36"/><g transform="translate(30.485 51.101)"><path d="M2988.87,2364.274l-.874-.352-1.553,3.837.872.353Z" transform="translate(-2985.56 -2363.922)" fill="#fff"/><path d="M2952.266,2398.316l-.354.874,3.84,1.555.354-.873Z" transform="translate(-2951.913 -2397.437)" fill="#fff"/></g><g transform="translate(36.158 38.167)"><path d="M3203.005,1858.071l-.731.317,1.377,3.256.741-.319Z" transform="translate(-3201.545 -1858.071)" fill="#fff"/><path d="M3173.786,1887.819l.313.743,3.262-1.374-.319-.745Z" transform="translate(-3173.786 -1885.718)" fill="#fff"/></g><g transform="translate(33.686 44.069)"><path d="M3077.478,2088.911l-.355.878,3.839,1.555.359-.876Z" transform="translate(-3077.123 -2088.911)" fill="#fff"/></g><g transform="translate(38.259 33.251)"><path d="M3256.268,1683.281l-.3.755,3.291,1.332.3-.752Z" transform="translate(-3255.965 -1682.833)" fill="#fff"/><path d="M3319.481,1666.074a.455.455,0,0,0,.252.579.444.444,0,0,0,.57-.245.439.439,0,0,0-.246-.58A.447.447,0,0,0,3319.481,1666.074Z" transform="translate(-3317.829 -1665.797)" fill="#fff"/><path d="M3288.467,1742.609a.444.444,0,0,0,.823.334.444.444,0,1,0-.823-.334Z" transform="translate(-3287.604 -1740.375)" fill="#fff"/></g><path d="M2531.9,606.925a.765.765,0,0,0-.417-1.009l-27.1-10.974a.8.8,0,0,0-1.026.424l-2.873,6.754a.764.764,0,0,0,.417,1.009L2528,614.1a.8.8,0,0,0,1.026-.424Z" transform="translate(-2481.482 -589.016)" fill="#678797"/><path d="M2531.484,628.049l-3.862-1.564a17.587,17.587,0,0,1-3.76,1.027,24.5,24.5,0,0,1-9.64.193,13.864,13.864,0,0,1-4.337-1.888,16.991,16.991,0,0,1-3.607-3.087,14.248,14.248,0,0,1-1.406-1.892,18.648,18.648,0,0,1-.986-1.876c-.2-.432-.4-.891-.571-1.363l-2.83,6.654a.764.764,0,0,0,.417,1.009l27.1,10.974a.8.8,0,0,0,1.026-.424l2.872-6.754A.765.765,0,0,0,2531.484,628.049Z" transform="translate(-2481.482 -611.148)" fill="#517384"/></g><rect width="2.076" height="9.488" transform="matrix(0.388, -0.922, 0.922, 0.388, 42.186, 12.28)" fill="#33374b"/><path d="M3429.692,788.806l-1.632-.688-.545,1.293,1.418.6C3429.192,789.611,3429.449,789.212,3429.692,788.806Z" transform="translate(-3384.869 -777.307)" fill="#1b2a3e"/><path d="M3496.9,821.128l.087-.178-2.065-.87c-.243.407-.5.805-.759,1.2l2.254.95C3496.566,821.861,3496.717,821.488,3496.9,821.128Z" transform="translate(-3449.811 -808.452)" fill="#1b2a3e"/><path d="M3597.031,859.863l-1.8-.76c-.051.1-.1.206-.15.31-.151.32-.284.646-.418.973l1.773.747A5.15,5.15,0,0,0,3597.031,859.863Z" transform="translate(-3547.741 -846.478)" fill="#1b2a3e"/><path d="M3675.659,893.554a5.343,5.343,0,0,1-.6,1.27l1.751.738.545-1.293Z" transform="translate(-3626.086 -880.048)" fill="#1b2a3e"/></g><path d="M1250.031,937.564l.293-2.858.013,0a4.729,4.729,0,0,1-1.827-.734,5.249,5.249,0,0,1-2.2-3.775l-2.84.436a8.013,8.013,0,0,0,3.6,5.828A7.387,7.387,0,0,0,1250.031,937.564Z" transform="translate(-1139.642 -550.445)" fill="#bfdce4"/><path d="M79.542,1706.134a3.509,3.509,0,1,1-3.509,3.509A3.509,3.509,0,0,1,79.542,1706.134Zm-1.755,3.509a1.755,1.755,0,1,0,1.755-1.755A1.755,1.755,0,0,0,77.788,1709.643Z" transform="translate(-2.056 -1306.542)" fill="#aacdd6"/><path d="M271.8,1079.6c-.459-3.545-1.379-8.507-5.974-12.052-3.958-3.052-9.675-3.072-17.924-3.072s-13.966.02-17.923,3.072c-4.6,3.545-5.515,8.507-5.975,12.052a24.328,24.328,0,0,0,.689,8.744l22.979-.236h.46l22.979.236A24.325,24.325,0,0,0,271.8,1079.6Z" transform="translate(-146.098 -681.289)" fill="#aacdd6"/><path d="M637.339,1072.028a41.353,41.353,0,0,0,2.47,9.173,34.09,34.09,0,0,0,1.987,4.3,18.4,18.4,0,0,0,1.774,2.67l6.092-.062h.46l9.7.1a9.868,9.868,0,0,0,.313-1.74,29.465,29.465,0,0,0,.02-3.892,44.369,44.369,0,0,1,.053-5.132c.069-.875.176-1.748.33-2.613.16-.9.387-1.783.58-2.676.354-1.632.659-3.277,1.077-4.9.172-.667.366-1.328.587-1.979-3.4-.8-7.63-.8-12.887-.8-5.577,0-10,.009-13.5.959C636.853,1067.6,637.03,1069.832,637.339,1072.028Z" transform="translate(-548.088 -681.289)" fill="#bfdce4"/><path d="M330.412,1181.716h-.482l-21.247.219a21.041,21.041,0,0,1-.27-6.29,21.82,21.82,0,0,1,1.3-5.493,11.957,11.957,0,0,1,3.856-5.127,12.549,12.549,0,0,1,6.314-2.25,84.856,84.856,0,0,1,10.291-.373,84.854,84.854,0,0,1,10.291.373,12.55,12.55,0,0,1,6.314,2.25,11.957,11.957,0,0,1,3.856,5.127,21.823,21.823,0,0,1,1.3,5.493,20.937,20.937,0,0,1-.267,6.29Z" transform="translate(-228.367 -776.712)" fill="#b99d5f"/><path d="M1161.543,750.872a3.4,3.4,0,1,1-3.4-3.4A3.4,3.4,0,0,1,1161.543,750.872Z" transform="translate(-1053.185 -372.391)" fill="#bfdce4"/><circle cx="2.72" cy="2.72" r="2.72" transform="translate(100.862 378.316) rotate(-45)" fill="#dbecf0"/><path d="M1278.21,817.247a.974.974,0,1,0,.974-.974A.974.974,0,0,0,1278.21,817.247Z" transform="translate(-1173.495 -439.433)" fill="#fff"/><path d="M128.575,1264.841c-2.068-4.285-4.84-8.174-5.745-11.165-2.183-7.218-7.813-10.375-10.685-10.375H91.464c-2.872,0-8.5,3.158-10.685,10.375-.9,2.99-3.677,6.879-5.745,11.165-1.241,2.572-2.872,12.969,4.021,15.9a44.343,44.343,0,0,0,4.444,1.648c3.369,2.633,10.352,4.442,18.42,4.442,8.187,0,15.256-1.863,18.566-4.559,1.268-.4,2.6-.9,4.068-1.531C131.447,1277.811,129.816,1267.414,128.575,1264.841Z" transform="translate(-0.001 -855.542)" fill="#ffce00"/><g transform="translate(73.923 387.759)"><path d="M128.8,2107.277c-2.367,8.221-13.554,14.446-27,14.446s-24.631-6.225-27-14.446c-1.18,3.254-2.227,12.6,4.249,15.352a44.358,44.358,0,0,0,4.444,1.648c3.369,2.633,10.352,4.442,18.42,4.442,8.187,0,15.256-1.863,18.566-4.559,1.268-.4,2.6-.9,4.068-1.531C131.029,2119.874,129.982,2110.531,128.8,2107.277Z" transform="translate(-73.923 -2085.187)" fill="#edbf00"/><path d="M454.794,1249.444c-2.651-4.236-6.548-6.143-8.779-6.143H425.333c-2.232,0-6.128,1.907-8.779,6.143a39.1,39.1,0,0,1,38.24,0Z" transform="translate(-407.793 -1243.301)" fill="#d92d1b"/></g><path d="M763.018,1051.2l-.293-2.858h-.013a4.723,4.723,0,0,0,1.827-.734,5.25,5.25,0,0,0,2.2-3.776l2.84.436a8.014,8.014,0,0,1-3.6,5.828A7.39,7.39,0,0,1,763.018,1051.2Z" transform="translate(-671.177 -661.175)" fill="#bfdce4"/><g transform="translate(77.352 386.814)"><path d="M222.138,1210.9h20.681a11.926,11.926,0,0,1,10.685,8.378,16,16,0,0,0,3.506,5.4c.2-1.349-.378-3.316-.634-5.021-.46-3.062-1.389-7.608-5.985-10.67-3.958-2.637-9.417-2.644-17.665-2.644s-14.147.006-18.1,2.644c-4.6,3.062-5.582,7.608-6.041,10.67a19.147,19.147,0,0,0-.5,4.872,11.546,11.546,0,0,0,3.375-5.249A11.926,11.926,0,0,1,222.138,1210.9Z" transform="translate(-208.027 -1206.344)" fill="#bfdce4"/></g><g transform="translate(93.584 379.477)"><path d="M842.854,922.788a3.4,3.4,0,1,0,3.4-3.4A3.4,3.4,0,0,0,842.854,922.788Z" transform="translate(-842.854 -919.388)" fill="#bfdce4"/><circle cx="2.72" cy="2.72" r="2.72" transform="translate(0.737 0.699) rotate(-5.204)" fill="#dbecf0"/><path d="M992.085,986.3a.974.974,0,1,0,.974-.974A.974.974,0,0,0,992.085,986.3Z" transform="translate(-988.27 -983.643)" fill="#fff"/></g></g></g></g></svg>