<svg xmlns="http://www.w3.org/2000/svg" width="227.226" height="242.92" viewBox="0 0 227.226 242.92">
  <g id="_5reasons_warning_02" data-name="5reasons_warning_02" transform="translate(-131.557 -103.448)">
    <g id="グループ_7123" data-name="グループ 7123">
      <g id="グループ_7122" data-name="グループ 7122">
        <path id="パス_77819" data-name="パス 77819" d="M255.1,346.357l1.217-43s6.672-86.024,4.885-87.542c-1.847-1.569-30.253-10-32.551-10.9-2.943-1.144-8.743-1.441-14.248-1.382l-.051,1.194c-5.409-.045-11.048.26-13.936,1.382-2.3.9-22.511,5.25-25.794,8.534-1.738,1.738-5.474,37.044-5.571,79.6-.033,14.223.793,37.347,1.391,52.125Z" fill="#4a98d4"/>
        <path id="パス_77820" data-name="パス 77820" d="M206.678,185.275s-3.459,21.149-5.319,22.347a7.044,7.044,0,0,1-3.459,1.2s13.875,10.67,15.87,11.069,32.884-8.074,31.8-9.616c-1.756-2.508-5.879-24.382-5.879-24.382L238.6,162Z" fill="#edbf98"/>
        <path id="パス_77821" data-name="パス 77821" d="M212.853,206.567a.6.6,0,0,1-.458-.979h0s.383-.731-.369-2.88c-.992-2.837.477-6.64.54-6.8a.6.6,0,0,1,1.112.436c-.014.035-1.37,3.554-.526,5.97.994,2.836.309,3.861.162,4.037A.6.6,0,0,1,212.853,206.567Z" fill="#c05343"/>
        <path id="パス_77822" data-name="パス 77822" d="M265.679,306.97c-3.3,10.267-6.168,20.677-14.063,28.441-3.348,3.292-5.759,6.2-10.737,5.888-5.249-.326-11.643-3.349-14.214-8.119-4.218-7.824-.186-21.044,1.6-28.967,3.108-13.786,5.694-27.528,9.729-41.1,3.884-13.069,12.484-51.349,18.22-49.263,8.756,3.184,17.681,8.473,19.9,13.134,4.753,9.991,3.584,25.074.4,38.606C273.185,279.734,270.1,293.209,265.679,306.97Z" fill="#4a98d4"/>
        <path id="パス_77823" data-name="パス 77823" d="M179.8,212.651s-18.11,3.98-22.687,15.722c-4.051,10.39-22.091,74.13-20.3,76.219s12.537,8.557,12.537,7.661,33.432-60.6,33.432-60.6Z" fill="#4a98d4"/>
        <path id="パス_77824" data-name="パス 77824" d="M196.427,276.327c-2.911-3.915-6.839-6.512-10.924-9.051-6.063-3.771-12.754-7.377-18.554-11.491-1.394-.987-2.929-3.283-4.517-3.637-1.166-.259-5.427.309-6.7.571-3.181.654-7.444,5.819-8.683,8.9-.794,1.969-.332,2.49.524,2.289-.344.308-.683.6-1.006.859-1.783,1.4-7.658,6.674-2.479,6.867a4.849,4.849,0,0,0,2.385-.536c-1.212,1.17-1.983,2.347-1.335,3.156,1.951,2.435,9.228-2.828,10.667-3.615,1.494-.817,5.468-1.223,6.151.645-3.044.058-15.4,2.857-13.134,7.081,1.146,2.131,5.694.193,7.2-.028,2.4-.351,4.558.584,6.676,1.192,5.257,1.507,9.571,5.567,15.053,6.352,3.045.437,5.026-.567,7.183,1.652,1.316,1.352,1.8,3.782,3.854,3.992,1.955.2,5.1-2.781,6.484-3.987A8.051,8.051,0,0,0,196.427,276.327Zm-40.858-11.895c-1.736.469-2.643,1.694-4.043,2.694-.411.295-2.246,1.779-3.281,2.52.924-.987,2.766-2.828,3.6-3.552,2.972-2.579,5.614-2.179,9.4-2.244A37.162,37.162,0,0,0,155.569,264.432Z" fill="#edbf98"/>
        <path id="パス_77825" data-name="パス 77825" d="M150.137,262.715a.558.558,0,0,1-.367-.977c.943-.824,5.748-4.93,7.935-4.71,2.052.207,4,.606,4.085.623a.558.558,0,0,1-.225,1.093c-.02,0-1.978-.406-3.972-.606-1.307-.131-5.046,2.653-7.089,4.439A.557.557,0,0,1,150.137,262.715Z" fill="#c05343"/>
        <path id="パス_77826" data-name="パス 77826" d="M198.061,275.08c-4.068,1.735-12.375,16.531-10.3,19.5,1.6,2.288,4.705,3.312,6.017,5.831,1.5,2.883,2.586,5.529,4.718,8.164,4.647,5.746,11.989,9.474,18.126,13.387a80.695,80.695,0,0,0,17.049,7.852c3.391,1.186,8.31,3.726,12.009,3.586,3.344-.126,5.858-2.954,8.149-5.129a30.642,30.642,0,0,0,4.976-5.768c3.811-5.992,5.208-13.52,1.441-19.908-2.552-4.326-8.952-6.688-13.182-8.95a133.854,133.854,0,0,0-15.374-6.567c-8.758-3.345-18.184-4.9-26.7-8.746C202.9,277.388,200.44,274.065,198.061,275.08Z" fill="#4a98d4"/>
        <path id="パス_77827" data-name="パス 77827" d="M213.77,227.561a.753.753,0,0,1-.23-1.47l33.737-10.814a.753.753,0,0,1,.46,1.434L214,227.524A.742.742,0,0,1,213.77,227.561Z" fill="#3874aa"/>
        <path id="パス_77828" data-name="パス 77828" d="M198.4,119.946a80.136,80.136,0,0,0-2.951,11.2c-1.06,7.662-2.784,20.238-4.138,30.525-.941,7.136,2.243,14.356,3.58,18.378,2.6,7.825,5.846,12.794,18.064,12.518,1.867-.042,10.359-3.063,16.28-7.546,5.167-3.912,7.829-8.646,9.526-17.26,3.655-18.508,4.221-42.429,4.221-42.429Z" fill="#edbf98"/>
        <path id="パス_77829" data-name="パス 77829" d="M250.567,128.6c-1.655-7.054-7.406-10.655-12.791-14.718-4.427-3.339-9-6.8-14.616-7.646-3.392-.511-7.628-1.032-10.79.385-5.069,2.268-6.811,4.2-6.811,4.2s1.246-6.789,2.908-7.379a15.558,15.558,0,0,0-7.163,4.58c-1.488,1.825-1.368,3.686-1.926,5.819-1.648-.913-2.237-3.353-2.38-5.093-3.6,3.441-2.442,10.047-.035,14.061,2.806,4.681,3.8,5.454,8.891,7.1a53.011,53.011,0,0,0,14.58,2.325,71.93,71.93,0,0,0,14.429-1.778c-1.739,2.152-3.546,5.084-3.48,8.1.061,2.81,1.877,5.705,2.664,8.42,1.546,5.328-.212,10.812.167,16.169,1.374-.052,2.813-.2,4.237-.266.313-4.485,1-10.031,3.911-13.666,1.475-1.838,5.118.391,6.847-.546,1.691-.917,2.089-13.817,1.814-17.129A20.4,20.4,0,0,0,250.567,128.6Z" fill="#97a0ae"/>
        <path id="パス_77830" data-name="パス 77830" d="M211.836,168.326a.627.627,0,0,0,.6-.582.669.669,0,0,0-.438-.8l-10.567-2.214c2.98-7.782,7.571-19.543,8.222-20.562a.825.825,0,0,0,.143-.878.5.5,0,0,0-.761-.245c-.192.14-.764.549-8.932,21.943a.853.853,0,0,0,0,.611.555.555,0,0,0,.393.35l11.275,2.366C211.8,168.315,211.812,168.324,211.836,168.326Z" fill="#0d0002"/>
        <path id="パス_77831" data-name="パス 77831" d="M215.714,147.545a2.5,2.5,0,0,0,.995,3.245,2.191,2.191,0,0,0,3.024-1.092,2.492,2.492,0,0,0-1-3.24A2.194,2.194,0,0,0,215.714,147.545Z" fill="#0d0002"/>
        <path id="パス_77832" data-name="パス 77832" d="M199.982,146.459a2.5,2.5,0,0,0,1,3.244A2.194,2.194,0,0,0,204,148.612a2.506,2.506,0,0,0-1-3.245A2.189,2.189,0,0,0,199.982,146.459Z" fill="#0d0002"/>
        <path id="パス_77833" data-name="パス 77833" d="M195.867,138.445c-.475-.661-.682-1.491-1.164-2.142.545.734,6.207,3.465,11.3,2.533.626-.113,1.379-.294,1.4.639a1.584,1.584,0,0,1-.749,1.276,8.728,8.728,0,0,1-4.318.829c-2.881.022-6.3-.481-7.716-3.414a9.808,9.808,0,0,1,1.274.319C195.885,138.471,195.875,138.458,195.867,138.445Z" fill="#7f8792"/>
        <path id="パス_77834" data-name="パス 77834" d="M225.419,142.992c.678-.443,1.168-1.141,1.854-1.573-.772.486-7.032.966-11.441-1.758-.541-.335-1.179-.778-1.537.083a1.592,1.592,0,0,0,.24,1.462,8.727,8.727,0,0,0,3.727,2.348c2.675,1.071,6.042,1.85,8.42-.368a10.223,10.223,0,0,0-1.3-.169Z" fill="#7f8792"/>
        <path id="パス_77835" data-name="パス 77835" d="M220.213,152.949c-6.194-.509-8.5-1.654-8.8-4.375a6.3,6.3,0,0,1,.9-4l.166-.249.3.007c.036,0,3.83.039,7.34.327,5.383.443,6.5,1.108,6.525,2.033l.018.31c.062,1.126.175,3.226-1.224,4.624C224.354,152.7,222.6,153.144,220.213,152.949Zm-7.135-7.467a5.276,5.276,0,0,0-.559,2.963c.164,1.448.881,2.8,7.786,3.366,2.051.168,3.507-.171,4.34-1,1.04-1.033.955-2.661.892-3.735l-.009-.244c-.165-.139-1.066-.66-5.513-1.026C217.136,145.568,214.056,145.5,213.078,145.482Z" fill="#0d0002"/>
        <path id="パス_77836" data-name="パス 77836" d="M201.365,151.4c-6.19-.508-8.5-1.65-8.8-4.375a6.334,6.334,0,0,1,.9-3.994l.172-.249.292.006c.042,0,3.833.04,7.339.327,5.389.444,6.5,1.108,6.53,2.035l.018.3c.06,1.131.173,3.226-1.227,4.621C205.512,151.151,203.754,151.6,201.365,151.4Zm-7.133-7.466a5.241,5.241,0,0,0-.557,2.962c.163,1.447.882,2.8,7.781,3.366,2.053.169,3.516-.172,4.346-1,1.037-1.036.95-2.662.893-3.737l-.015-.243c-.161-.137-1.061-.659-5.509-1.025C198.293,144.018,195.221,143.954,194.232,143.933Z" fill="#0d0002"/>
        <rect id="長方形_29509" data-name="長方形 29509" width="1.141" height="6.158" transform="translate(206.658 145.222) rotate(-85.844)" fill="#0d0002"/>
        <path id="パス_77837" data-name="パス 77837" d="M240.712,149.327c.967.01,4.568-5.433,8.881-1.432,2.609,2.421.708,15.012-3.495,20.727-2.744,3.729-10.4,5.222-10.467,5.4Z" fill="#edbf98"/>
        <path id="パス_77838" data-name="パス 77838" d="M226.588,174.808a.587.587,0,0,1-.538-.529c-.347-2.85-1.507-5.132-3.1-6.1a4.316,4.316,0,0,0-4.013-.108.586.586,0,0,1-.774-.342.619.619,0,0,1,.34-.792,5.434,5.434,0,0,1,5.057.19c1.909,1.164,3.281,3.78,3.67,7a.605.605,0,0,1-.514.68A.656.656,0,0,1,226.588,174.808Z" fill="#c05343"/>
        <path id="パス_77839" data-name="パス 77839" d="M240.044,165.355a.8.8,0,0,1-.119-.009.766.766,0,0,1-.638-.874c.344-2.2,2.238-13.237,5.817-14.5a2.45,2.45,0,0,1,2.573.672.765.765,0,1,1-1.031,1.131c-.573-.522-.908-.4-1.034-.359-2,.7-4.017,8.194-4.813,13.289A.765.765,0,0,1,240.044,165.355Z" fill="#c05343"/>
        <path id="パス_77840" data-name="パス 77840" d="M240.9,168.7a.765.765,0,0,1-.036-1.53c1.693-.081,2.607-.741,2.8-2.018a6.5,6.5,0,0,0-1.851-4.922.765.765,0,0,1-.564-1.408,1.366,1.366,0,0,1,1.619.293c1.409,1.157,2.929,4.6,2.141,6.978-.37,1.118-1.376,2.477-4.067,2.606Z" fill="#c05343"/>
        <path id="パス_77841" data-name="パス 77841" d="M210.426,127.047a.388.388,0,0,1-.221-.07,3.351,3.351,0,0,1-.922-.983.383.383,0,1,1,.652-.4,2.582,2.582,0,0,0,.712.76.382.382,0,0,1-.221.695Zm-1.383-3.068a.382.382,0,0,1-.382-.375l0-.171a9.439,9.439,0,0,1,.116-1.42.382.382,0,0,1,.756.116,8.7,8.7,0,0,0-.107,1.3l0,.156a.384.384,0,0,1-.375.39Zm.649-3.755a.367.367,0,0,1-.117-.019.382.382,0,0,1-.248-.48c.154-.482.333-.975.531-1.466a.382.382,0,1,1,.709.286c-.19.473-.363.949-.511,1.413A.383.383,0,0,1,209.692,120.224Zm1.506-3.511a.383.383,0,0,1-.333-.571c.258-.457.539-.9.835-1.327a.382.382,0,1,1,.626.439c-.282.4-.549.828-.794,1.264A.384.384,0,0,1,211.2,116.713Zm2.276-3.064a.382.382,0,0,1-.274-.65,12.641,12.641,0,0,1,1.171-1.057.382.382,0,1,1,.475.6,11.917,11.917,0,0,0-1.1.993A.379.379,0,0,1,213.474,113.649Zm3.073-2.244a.382.382,0,0,1-.165-.727,9.207,9.207,0,0,1,1.492-.562.383.383,0,0,1,.206.737,8.575,8.575,0,0,0-1.369.515A.384.384,0,0,1,216.547,111.4Z" fill="#7f8792"/>
        <path id="パス_77842" data-name="パス 77842" d="M215.9,127.243a.385.385,0,0,1-.317-.168,3.367,3.367,0,0,1-.518-1.242.383.383,0,0,1,.751-.148,2.594,2.594,0,0,0,.4.961.383.383,0,0,1-.1.531A.388.388,0,0,1,215.9,127.243Zm-.22-3.358a.366.366,0,0,1-.126-.021.383.383,0,0,1-.236-.487,9.231,9.231,0,0,1,.665-1.45.383.383,0,1,1,.668.373,8.4,8.4,0,0,0-.61,1.328A.381.381,0,0,1,215.679,123.885ZM217.6,120.6a.377.377,0,0,1-.237-.082.382.382,0,0,1-.063-.537c.312-.4.652-.795,1.01-1.187a.383.383,0,0,1,.565.516c-.346.378-.674.763-.974,1.145A.382.382,0,0,1,217.6,120.6Zm2.643-2.761a.383.383,0,0,1-.247-.675c.4-.339.822-.658,1.247-.95a.382.382,0,1,1,.433.63c-.4.278-.8.583-1.187.905A.383.383,0,0,1,220.246,117.835Zm3.205-2.072a.383.383,0,0,1-.163-.729,12.719,12.719,0,0,1,1.467-.58.382.382,0,0,1,.235.728,11.852,11.852,0,0,0-1.377.545A.377.377,0,0,1,223.451,115.763Zm3.664-1.023a.383.383,0,0,1-.033-.764,9.222,9.222,0,0,1,1.594,0,.381.381,0,0,1,.348.413.372.372,0,0,1-.413.349,8.508,8.508,0,0,0-1.463,0Z" fill="#7f8792"/>
        <path id="パス_77843" data-name="パス 77843" d="M221,190.206a.775.775,0,0,1-.205-1.523,21.754,21.754,0,0,0,14.275-11.6.775.775,0,0,1,1.445.562c-.147.381-3.747,9.352-15.309,12.533A.774.774,0,0,1,221,190.206Z" fill="#c05343"/>
        <path id="パス_77844" data-name="パス 77844" d="M240.434,150.453a.718.718,0,0,1-.129-.011l-14.773-2.555a.752.752,0,0,1,.256-1.482l14.774,2.554a.753.753,0,0,1-.128,1.494Z" fill="#0d0002"/>
        <path id="パス_77845" data-name="パス 77845" d="M216.225,217.269a23.992,23.992,0,0,0,3.243-3.079c1.069-1.186,3.392-3.008,3.091-4.8-.131-.772-.735-1.1-.593-1.823.117-.612.913-1.148,1-1.846.2-1.573-1.116-3.264-2.143-4.307-1.147-1.167-.406-1.205.4-2.535a2.349,2.349,0,0,0-.391-3.279c-.734-.717-2.944-1.447-2.779-2.479.2-1.275,2.424-2.462,3.271-3.22,1.253-1.118,1.847-3.24-.1-3.968-2.309-.864-4.831.485-6.851,1.535-2.571,1.338-5.076,2.752-7.54,4.279-1.244.773-2.629,1.269-3.891,2-.818.477-1.711,1.276-2.636.417-.691-.642-.807-2.579-.9-3.441-.248-2.387-.66-5.565-2.416-7.374-.934-.964-4.058-2.256-5.241-1-1.159,1.243.8,3.133,1.28,4.251A16.141,16.141,0,0,1,194,193c-.074,2.846-1.688,5.327-2.224,8.1-.674,3.478.654,6.682.558,10.139-.123,4.558-5.319,9.455-6.149,13.8-.505,2.62,3.187,1.734,5.567,3.022,2.193,1.183,7.445,4.925,9.941,5.34,1.194.2,3.269-7.626,4.979-9.626,2.359-2.765,5.981-4.01,8.9-6.031C215.8,217.587,216.016,217.428,216.225,217.269Z" fill="#edbf98"/>
        <path id="パス_77846" data-name="パス 77846" d="M219.854,214.381a.6.6,0,0,1-.425-1.016l.339-.34c1.011-1.009,2.395-2.391,2.2-3.54a1.869,1.869,0,0,0-.262-.618,1.914,1.914,0,0,1-.328-1.42,2.711,2.711,0,0,1,.582-1.083,1.889,1.889,0,0,0,.416-.724c.178-1.387-1.162-2.983-1.977-3.812-1.137-1.156-.825-1.747-.218-2.515a6.993,6.993,0,0,0,.533-.748,1.771,1.771,0,0,0-.3-2.542,6.073,6.073,0,0,0-.974-.646c-1.008-.593-2.152-1.265-1.979-2.354.19-1.181,1.529-2.144,2.6-2.918.337-.243.656-.472.858-.653a2.537,2.537,0,0,0,.937-2.091,1.171,1.171,0,0,0-.849-.873c-2.017-.754-4.366.466-6.254,1.447l-.113.059c-2.65,1.379-5.1,2.772-7.5,4.257A21.644,21.644,0,0,1,205,193.37c-.616.29-1.2.565-1.758.892-.108.063-.218.132-.331.2-.749.472-1.881,1.186-3.013.136-.727-.677-.92-2.118-1.056-3.536l-.028-.283c-.266-2.547-.68-5.4-2.251-7.019a5.563,5.563,0,0,0-2.257-1.172.6.6,0,0,1,.315-1.151,6.66,6.66,0,0,1,2.8,1.492c1.838,1.891,2.3,4.981,2.582,7.727l.029.292c.067.7.225,2.35.682,2.774.4.371.707.269,1.562-.271.124-.078.246-.155.366-.225.607-.352,1.238-.651,1.849-.94a19.82,19.82,0,0,0,2.027-1.054c2.424-1.5,4.9-2.908,7.58-4.3l.114-.059c2.1-1.09,4.707-2.446,7.223-1.505a2.362,2.362,0,0,1,1.6,1.771,3.675,3.675,0,0,1-1.315,3.2c-.25.224-.593.471-.957.733-.8.577-2.012,1.448-2.122,2.137-.046.284.934.86,1.4,1.136a6.484,6.484,0,0,1,1.2.822,2.931,2.931,0,0,1,.486,4.014,8.191,8.191,0,0,1-.618.87,2.085,2.085,0,0,0-.287.412h0a1.8,1.8,0,0,0,.42.527c1.18,1.2,2.54,3.007,2.31,4.8a2.757,2.757,0,0,1-.65,1.295,1.955,1.955,0,0,0-.361.587c-.035.182.018.3.193.6a2.961,2.961,0,0,1,.4,1.012c.295,1.757-1.34,3.391-2.535,4.583l-.332.333A.594.594,0,0,1,219.854,214.381Z" fill="#c05343"/>
        <path id="パス_77847" data-name="パス 77847" d="M187.26,224.193s9.18,5.564,11.042,6.567c2.634,1.42,5.318,2.3,4.181,5.062-.5,1.206-1.688,1.889-2.2,3.217-1.1,2.854-2.975,1.287-2.974,4.258,0,2.917-9.854,38.618-15.521,50.548-4.109,8.65-5.435,19.217-13.66,24.849-5.042,3.453-18.4,8.057-24.55,5-3.176-1.582-4.279-4.846-5.173-7.962-1.392-4.844-3.026-9.681-1.1-14.7,2.414-6.288,7.507-11.21,9.108-17.838,1.554-6.423,5.23-10.9,8.634-16.7,4.459-7.593,8.994-18.341,15.592-24.39,3.582-3.284,11.841-11.94,12.138-12.836s.6-5.373,1.791-5.373A16.521,16.521,0,0,1,187.26,224.193Z" fill="#4a98d4"/>
      </g>
      <path id="パス_77848" data-name="パス 77848" d="M242.8,334.4a19.791,19.791,0,0,0,10.394-3,.934.934,0,0,0-1.053-1.542,17.882,17.882,0,0,1-14.782,1.749c-8.28-2.88-47.854-38.1-48.253-38.455a.933.933,0,1,0-1.242,1.393c1.639,1.462,40.253,35.824,48.881,38.825A18.351,18.351,0,0,0,242.8,334.4Z" fill="#3874aa"/>
      <path id="パス_77849" data-name="パス 77849" d="M251.174,305.207a.978.978,0,0,0,.2-.02.964.964,0,0,0,.721-1.136c-.18-.9-.555-2.776-27.909-16.136-13.326-6.508-26.733-12.64-26.867-12.7a.933.933,0,1,0-.776,1.7c20.014,9.148,52.3,24.726,53.744,27.581A.883.883,0,0,0,251.174,305.207Z" fill="#3874aa"/>
      <path id="パス_77850" data-name="パス 77850" d="M250.582,298.141a.888.888,0,0,0,.378-.084.909.909,0,0,0,.474-1.186c-1.13-2.635-11.492-4.012-16.877-4.555,2.831-17.006,10.961-58.6,17.238-62.311l8.179-4.834a.934.934,0,1,0-.95-1.608l-8.179,4.833c-8.316,4.914-17.3,58.508-18.293,64.6a.936.936,0,0,0,.835,1.081c8.268.769,15.747,2.386,16.332,3.529A.981.981,0,0,0,250.582,298.141Z" fill="#3874aa"/>
      <path id="パス_77851" data-name="パス 77851" d="M142.732,290.28a.93.93,0,0,0,.809-.467l38.228-66.163,4.419,2.21a.934.934,0,0,0,.835-1.67l-5.205-2.6a.936.936,0,0,0-1.226.368L141.925,288.88a.933.933,0,0,0,.807,1.4Z" fill="#3874aa"/>
      <path id="パス_77852" data-name="パス 77852" d="M170.617,315.19a.933.933,0,0,0,.722-.34,94.52,94.52,0,0,0,7.159-9.807c1.876-3.377,24.341-67.691,25.3-70.427a.932.932,0,0,0-.313-1.048l-1.435-1.1a.933.933,0,0,0-1.138,1.48l.9.692c-8.136,23.294-23.517,66.931-24.943,69.5a94.94,94.94,0,0,1-6.969,9.526.934.934,0,0,0,.72,1.527Z" fill="#3874aa"/>
      <path id="パス_77853" data-name="パス 77853" d="M168.4,245.885a.934.934,0,0,0,.933-.913l.242-10.987a.908.908,0,0,0-.007-.128,101.454,101.454,0,0,1,.7-10.319.9.9,0,0,0-.436-1.217.965.965,0,0,0-1.266.456c-.494,1-.875,9.9-.858,11.167h0l-.242,10.987a.934.934,0,0,0,.913.955Z" fill="#3874aa"/>
    </g>
    <path id="パス_77854" data-name="パス 77854" d="M209.589,176.406a15.156,15.156,0,0,0-7.383,3.265.827.827,0,0,0,1.088,1.247,13.332,13.332,0,0,1,7.616-2.948c4.752-.069,7.128,1.947,7.151,1.967a.827.827,0,0,0,1.1-1.24c-.113-.1-2.832-2.46-8.271-2.382A11.9,11.9,0,0,0,209.589,176.406Z" fill="#c1143a"/>
    <path id="パス_77855" data-name="パス 77855" d="M170.985,184.884a2.82,2.82,0,0,1-.353-.55,6.2,6.2,0,0,1-1.575-.159,8.156,8.156,0,0,1-4.505-3.094q-.146-.19-.281-.387a16.885,16.885,0,0,1-5.062.391c-7.777-.594-11.1-4.513-12.521-7.7a14.864,14.864,0,0,1-1.165-4.41c-5.051-.848-9.65-2.961-12-7.013-3.539-6.093-1.751-13.995,1.1-19.359,5.342-10.049,14.843-18.063,24.2-20.417a1.206,1.206,0,1,1,.588,2.34c-8.728,2.195-17.623,9.735-22.66,19.21-2.432,4.571-4.19,11.771-1.146,17.014,1.911,3.29,5.72,4.981,9.806,5.735a30.337,30.337,0,0,1,6.236-16.891,19.444,19.444,0,0,1,11.849-7.668,10.43,10.43,0,0,1,9.694,3.184,10.785,10.785,0,0,1,2.286,10.165c-2.16,7.928-10.787,12.608-18.378,13.728a39.437,39.437,0,0,1-9.1.287,12.1,12.1,0,0,0,.891,3.112c1.676,3.758,5.21,5.868,10.5,6.273a14.466,14.466,0,0,0,3.726-.206,9.249,9.249,0,0,1-.09-6.406,7.806,7.806,0,0,1,7.712-5.031,4.858,4.858,0,0,1,4.4,3.369c.268,1.092.178,2.847-1.773,5.013a17.366,17.366,0,0,1-6.635,4.522,5.585,5.585,0,0,0,2.877,1.886,3.719,3.719,0,0,0,.626.09,5.22,5.22,0,0,1,1.344-3.333,2.208,2.208,0,0,1,3.206.158,2.813,2.813,0,0,1-.2,3.84,5.012,5.012,0,0,1-1.4,1.088,2.243,2.243,0,0,0,2.191.246,1.207,1.207,0,0,1,1.029,2.183,4.393,4.393,0,0,1-1.873.41A4.632,4.632,0,0,1,170.985,184.884Zm-5.7-11.963a6.832,6.832,0,0,0,.172,4.925,15,15,0,0,0,6.116-4.041c.687-.763,1.456-1.871,1.222-2.823a2.544,2.544,0,0,0-2.286-1.544c-.126-.012-.253-.018-.38-.018A5.469,5.469,0,0,0,165.286,172.921ZM163.9,144.309a17.047,17.047,0,0,0-10.345,6.76c-3.188,4.145-5.712,10.3-5.735,15.76a37.775,37.775,0,0,0,8.921-.208c6.815-1.005,14.528-5.1,16.4-11.975a8.383,8.383,0,0,0-1.743-7.908,7.871,7.871,0,0,0-5.922-2.567A9.281,9.281,0,0,0,163.9,144.309Z" fill="#0d0002"/>
    <g id="グループ_7126" data-name="グループ 7126">
      <g id="グループ_7124" data-name="グループ 7124">
        <path id="パス_77856" data-name="パス 77856" d="M336.077,215.272a20.172,20.172,0,0,1,3.4,11.374,10.054,10.054,0,0,1-1.741,5.764c-2.212,3.032-6.4,3.72-9.918,3.42.294.025-.626,2.55-.738,2.757-2.138,3.918-5.56,4.845-9.235,4.678-4.379-.2-9.611-4.34-11.711-8.245-5.215-9.7,5.135-21.68,14.4-23.949a19.3,19.3,0,0,1,5.628-.689c.636.04,1.222.276,1.852.325a13.72,13.72,0,0,1,2.776.1,6.939,6.939,0,0,1,2.5,1.483,14.709,14.709,0,0,1,2.566,2.658C335.93,215.056,336,215.164,336.077,215.272Z" fill="#3f2831"/>
        <path id="パス_77857" data-name="パス 77857" d="M339.73,318.326c-.47,2.342-1.8,8.322-3.039,13.786-1.281,5.654-2.448,10.762-2.448,10.762l.386,3.494H276.885l.387-3.494s-2.9-12.664-4.547-20.168c-.417-1.879-.751-3.425-.94-4.38-.948-4.767-9.292-50.052-5.715-54.341,1.448-1.743,5.5-3.919,9.807-5.881,6.291-2.88,13.112-5.313,13.112-5.313l16.772,1.644,16.765-1.644s8.519,3.039,15.286,6.336c3.441,1.675,6.427,3.418,7.632,4.858C349.022,268.274,340.677,313.559,339.73,318.326Z" fill="#0e0f0f"/>
        <path id="パス_77858" data-name="パス 77858" d="M278.939,291.633l-6.214,31.073-4.737,23.662H246.607c3.737-26.83,11.232-77.23,15.408-82.626,2.085-2.683,10.581-4.873,13.862-5.638.811-.19,1.3-.288,1.3-.288Z" fill="#d9c3af"/>
        <path id="パス_77859" data-name="パス 77859" d="M358.783,346.368H338.57l-1.879-14.256-5.313-40.479,4.29-32.893s.864.121,2.144.387c3.138.644,8.8,2.114,10.49,4.615C353.334,271.215,357.109,320.281,358.783,346.368Z" fill="#d9c3af"/>
        <path id="パス_77860" data-name="パス 77860" d="M277.866,207.415c-.323-2.115-.735-4.215-1.094-6.324a41.081,41.081,0,0,1-.636-12.521c1.372-9.888,9.281-21.1,17.815-26.279a46.514,46.514,0,0,1,7.218-3.305,35.822,35.822,0,0,1,10.9-2.537,17.821,17.821,0,0,1,11.389,2.849c.709.5,2.156,1.461,2.156,1.461a24.728,24.728,0,0,1,5.2,1.36,20.754,20.754,0,0,1,6.21,4.3,26.646,26.646,0,0,1,7.689,12.482,56.517,56.517,0,0,1,2.159,18.25c-.408,8.758-4.308,15.95-11.042,21.485a59.329,59.329,0,0,1-9.66,6.316c-5.237,2.815-10.834,5.144-16.736,5.854s-12.168-.323-17.03-3.743a25.835,25.835,0,0,1-2.992-2.5c-.789-.756-1.241-1.656-1.981-2.426-1.776-1.848-3.844-3.344-5.4-5.411A20.819,20.819,0,0,1,277.866,207.415Z" fill="#3f2831"/>
        <path id="パス_77861" data-name="パス 77861" d="M337.28,206.094l-.015,0a.387.387,0,0,1-.3-.453c.121-.664.23-1.307.318-1.924l0-.022a.387.387,0,0,1,.764.127c-.1.661-.2,1.321-.318,1.963a.413.413,0,0,1-.162.244.421.421,0,0,1-.294.068Zm.593-4.261a.387.387,0,0,1-.312-.417c.081-.766.142-1.544.184-2.31a.155.155,0,0,1,.006-.061.389.389,0,0,1,.768.106c-.044.773-.108,1.566-.184,2.34a.394.394,0,0,1-.425.35Zm.252-4.653a.4.4,0,0,1-.3-.385c.01-.8,0-1.573-.023-2.316a.461.461,0,0,1,.013-.1.4.4,0,0,1,.37-.307.4.4,0,0,1,.4.381c.022.788.028,1.581.017,2.346a.38.38,0,0,1-.386.382A.343.343,0,0,1,338.125,197.18Zm-.141-4.661a.384.384,0,0,1-.3-.353c-.062-.782-.134-1.557-.227-2.307a.365.365,0,0,1,.005-.131.4.4,0,0,1,.337-.3.4.4,0,0,1,.43.341c.094.781.171,1.566.228,2.338a.393.393,0,0,1-.362.417A.4.4,0,0,1,337.984,192.519Zm-.551-4.635a.4.4,0,0,1-.3-.313c-.127-.773-.27-1.541-.421-2.272a.548.548,0,0,1-.005-.156.389.389,0,0,1,.761-.005c.157.74.306,1.517.437,2.3a.4.4,0,0,1-.322.45A.472.472,0,0,1,337.433,187.884Zm-.955-4.558a.39.39,0,0,1-.3-.282c-.182-.73-.391-1.481-.624-2.23a.415.415,0,0,1,0-.195.4.4,0,0,1,.265-.291.4.4,0,0,1,.486.261c.225.747.44,1.507.633,2.263a.388.388,0,0,1-.28.466A.344.344,0,0,1,336.478,183.326Zm-1.357-4.46a.4.4,0,0,1-.287-.249c-.264-.748-.54-1.475-.824-2.165a.5.5,0,0,1-.022-.222.407.407,0,0,1,.24-.282.4.4,0,0,1,.5.212c.283.7.565,1.433.834,2.2a.357.357,0,0,1-.01.293.366.366,0,0,1-.222.2A.409.409,0,0,1,335.121,178.866Zm-1.76-4.316a.412.412,0,0,1-.272-.214c-.025-.06-.047-.1-.074-.156-.321-.7-.635-1.325-.948-1.92a.365.365,0,0,1-.037-.257.358.358,0,0,1,.2-.266.391.391,0,0,1,.523.16c.325.613.655,1.267.973,1.949l.073.163a.387.387,0,0,1,.012.3.371.371,0,0,1-.2.212A.38.38,0,0,1,333.361,174.55Zm-2.21-4.1a.354.354,0,0,1-.242-.169,21.246,21.246,0,0,0-1.341-1.858s-.008,0-.006-.009a.391.391,0,0,1-.08-.274.431.431,0,0,1,.142-.263.4.4,0,0,1,.546.056,22.346,22.346,0,0,1,1.389,1.924.39.39,0,0,1,.052.3.388.388,0,0,1-.46.3Z" fill="#2a171f"/>
        <path id="パス_77862" data-name="パス 77862" d="M309.118,266.8a8.174,8.174,0,0,1-2.984.267c-4.41-.428-16.018-11.168-18.659-12.811a.6.6,0,0,1-.014-1.016,24.744,24.744,0,0,0,5.2-3.809c4.378-4.2,1.161-32.793,1.161-32.793l11.3,1.792v.053l.006-.053,9.769.62s-3.315,26.2,1.263,29.487c4.175,2.994,6.283,4.476,7.163,5.089a.584.584,0,0,1,.114.853C321.7,256,312.085,265.982,309.118,266.8Z" fill="#edbf98"/>
        <path id="パス_77863" data-name="パス 77863" d="M329.416,210.488c-2.778,14.32-20.586,22.209-35.5,20.8-9.084-.857-16.713-10.636-15.775-28.173.193-3.593,2.942-18.778,4.737-21.772,5.485-9.149,12.347-11.363,23.427-9.211C321.008,174.974,332.2,196.164,329.416,210.488Z" fill="#edbf98"/>
        <path id="パス_77864" data-name="パス 77864" d="M336.816,214.217c-.9,4.655-10.9,10.077-15.57,9.183-4.659-.915-.424-6.4.482-11.068a8.58,8.58,0,0,1,10.063-6.785C336.454,206.45,337.726,209.544,336.816,214.217Z" fill="#edbf98"/>
        <path id="パス_77865" data-name="パス 77865" d="M320.539,193.917c-1.794-9.779-2.438-15.472-5.586-18.3a9.894,9.894,0,0,0-4.44-2.3,17.032,17.032,0,0,0-7.142-.323c-5.459,1.471-11.022,3.963-15.046,7.963a51.063,51.063,0,0,0-5.659,6.849c-1.557,2.207-3.5,9.893-4.521,12.758a.064.064,0,0,1-.123-.017c-.094-1.124-.035-5.81-.152-5.944-1.4-1.6-1.524-4.274-1.376-6.271.866-11.62,11.508-20.174,21.34-24.818,4.4-2.079,9.6-3.467,14.079-1.552a13.489,13.489,0,0,0,1.969.8c.647.163,1.324.167,1.979.294,2.995.581,5.038,3.766,7.19,5.7,2.676,2.4,3.7,6.262,5.059,9.485,2.556,6.064,4.277,12.651,3.889,19.162a70.815,70.815,0,0,1-1.07,7.529l-7.893,9.142a.832.832,0,0,1-1.4-.572C321.487,209.929,321.839,201,320.539,193.917Z" fill="#3f2831"/>
        <path id="パス_77866" data-name="パス 77866" d="M290,196.4a2.719,2.719,0,0,1-2.016,3.1,2.391,2.391,0,0,1-2.838-2.056,2.721,2.721,0,0,1,2.028-3.093A2.388,2.388,0,0,1,290,196.4Z" fill="#0d0002"/>
        <path id="パス_77867" data-name="パス 77867" d="M307.261,201.147a2.722,2.722,0,0,1-2.02,3.1,2.4,2.4,0,0,1-2.84-2.056,2.729,2.729,0,0,1,2.03-3.093A2.394,2.394,0,0,1,307.261,201.147Z" fill="#0d0002"/>
        <path id="パス_77868" data-name="パス 77868" d="M292.179,212.734a.624.624,0,0,1-.409-.293c-.176-.287-.377-.565-.576-.836a3.9,3.9,0,0,1-1.039-3.395,25.567,25.567,0,0,1,2.8-4.947c.623-.969,1.212-1.886,1.417-2.3a.638.638,0,1,1,1.142.567c-.237.478-.816,1.38-1.485,2.424a29.915,29.915,0,0,0-2.638,4.563c-.206.85.162,1.415.835,2.339.214.293.432.594.633.927a.633.633,0,0,1-.216.875A.62.62,0,0,1,292.179,212.734Z" fill="#0d0002"/>
        <path id="パス_77869" data-name="パス 77869" d="M315.378,210.314a3.11,3.11,0,1,1-2.381-3.7A3.108,3.108,0,0,1,315.378,210.314Z" fill="#e9706e"/>
        <path id="パス_77870" data-name="パス 77870" d="M284.916,203.51a3.111,3.111,0,1,1-2.38-3.7A3.108,3.108,0,0,1,284.916,203.51Z" fill="#e9706e"/>
        <path id="パス_77871" data-name="パス 77871" d="M311.133,212.2a.574.574,0,0,1-.361-.242c-.62-.889-1.58-2.477-1.1-3.132a.98.98,0,0,1,.67-.4c.737-.108,1.7.482,2.911,1.4l.172.129c.045.031.087.063.125.09-.015-.039-.036-.081-.052-.124-.045-.093-.093-.2-.144-.314-.253-.579-.8-1.8-1.306-1.878a.6.6,0,0,1-.479-.693.594.594,0,0,1,.691-.48l.053.012c1.109.241,1.724,1.632,2.133,2.558.047.108.089.207.132.3.34.739.658,1.564.119,2.01s-1.3-.032-1.97-.51l-.2-.148a8.938,8.938,0,0,0-1.674-1.086,12.9,12.9,0,0,0,.891,1.582.594.594,0,0,1-.615.92Z" fill="#e55a65"/>
        <path id="パス_77872" data-name="パス 77872" d="M280.929,205.449a.6.6,0,0,1-.363-.239c-.388-.555-1.62-2.418-1.1-3.132a.979.979,0,0,1,.672-.4c.742-.108,1.7.482,2.906,1.4l.18.133.12.085c-.016-.037-.035-.077-.053-.119-.042-.092-.089-.2-.138-.306-.251-.577-.78-1.772-1.295-1.884a.261.261,0,0,1-.034-.006.6.6,0,0,1,.235-1.169c1.147.209,1.772,1.636,2.185,2.579l.128.286c.341.739.663,1.564.12,2.011s-1.3-.03-1.964-.51c-.05-.036-.118-.087-.2-.15a8.877,8.877,0,0,0-1.67-1.082,12.037,12.037,0,0,0,.887,1.576.594.594,0,0,1-.611.925Z" fill="#e55a65"/>
        <path id="パス_77873" data-name="パス 77873" d="M303.228,192.659a.369.369,0,0,1,.147.1c.021.024,2.219,2.415,8,3.311a.379.379,0,0,1-.116.75c-6.084-.946-8.359-3.453-8.453-3.559a.379.379,0,0,1,.42-.6Z" fill="#3f2831"/>
        <path id="パス_77874" data-name="パス 77874" d="M285.708,188.547a.381.381,0,0,1,.171.005c.042.011,4.321,1.091,6.671-.147a.379.379,0,1,1,.355.669c-2.609,1.379-7.029.26-7.216.211a.379.379,0,0,1,.019-.738Z" fill="#3f2831"/>
        <path id="パス_77875" data-name="パス 77875" d="M295.383,232.261a.695.695,0,0,1,.294-1.358c.054.012,5.52,1.125,13.564-1.876a.695.695,0,1,1,.486,1.3C301.27,233.484,295.619,232.313,295.383,232.261Z" fill="#cb6362"/>
        <path id="パス_77876" data-name="パス 77876" d="M328.153,203.123h0a.394.394,0,0,1-.3-.461c.152-.7.287-1.427.412-2.175l.005-.023a.389.389,0,0,1,.444-.3l.022,0a.39.39,0,0,1,.3.438l0,.008c-.119.726-.265,1.47-.417,2.205A.4.4,0,0,1,328.153,203.123Zm.754-4.5a.4.4,0,0,1-.31-.432c.1-.777.184-1.558.246-2.3v-.008a.163.163,0,0,1,0-.053.4.4,0,0,1,.414-.3.386.386,0,0,1,.35.425c-.064.793-.143,1.583-.237,2.338a.39.39,0,0,1-.437.331C328.931,198.623,328.914,198.627,328.907,198.626Zm.384-4.656a.39.39,0,0,1-.31-.393c.032-.753.047-1.533.047-2.317a.236.236,0,0,1,.008-.075.4.4,0,0,1,.378-.313.4.4,0,0,1,.4.388c0,.767-.02,1.555-.053,2.347a.4.4,0,0,1-.4.378Zm-.011-4.656a.389.389,0,0,1-.307-.369c-.039-.784-.094-1.564-.167-2.3a.677.677,0,0,1,.011-.122.389.389,0,0,1,.767.043c.071.776.125,1.563.164,2.347a.391.391,0,0,1-.368.409A.471.471,0,0,1,329.28,189.314Zm-.439-4.648a.388.388,0,0,1-.3-.321c-.115-.755-.244-1.52-.392-2.266l-.006-.008a.384.384,0,0,1,0-.155.373.373,0,0,1,.3-.307.4.4,0,0,1,.162,0h0a.393.393,0,0,1,.3.3c.156.779.289,1.56.4,2.321a.365.365,0,0,1-.078.286.356.356,0,0,1-.251.155A.455.455,0,0,1,328.841,184.666Zm-.93-4.569a.369.369,0,0,1-.288-.28c-.207-.758-.426-1.5-.667-2.208a.364.364,0,0,1-.01-.2.378.378,0,0,1,.256-.286.394.394,0,0,1,.489.246c.247.721.471,1.476.68,2.258a.388.388,0,0,1-.274.475A.505.505,0,0,1,327.911,180.1Zm-1.491-4.412a.388.388,0,0,1-.277-.223c-.313-.735-.642-1.435-.982-2.083a.364.364,0,0,1-.037-.257.391.391,0,0,1,.729-.1c.349.674.69,1.392,1.009,2.136a.4.4,0,0,1-.212.512A.377.377,0,0,1,326.42,175.685Zm-2.175-4.119A.383.383,0,0,1,324,171.4a21.357,21.357,0,0,0-1.342-1.851.358.358,0,0,1-.086-.282.363.363,0,0,1,.143-.264.4.4,0,0,1,.546.057c.482.6.954,1.247,1.4,1.925a.391.391,0,0,1-.116.533A.387.387,0,0,1,324.245,171.566Z" fill="#2a171f"/>
        <path id="パス_77877" data-name="パス 77877" d="M286.663,179.694c.234-.39.477-.783.743-1.177a22.325,22.325,0,0,1,11.581-8.185c6.3-1.837,15.088-2.131,17.557,5.484a8.994,8.994,0,0,0-11.342-2.179c-3.65,2.173-5.191,6.6-7.968,9.817a15.466,15.466,0,0,1-19.364,3.326c.482.275,2.506-.846,2.966-1.08a13.711,13.711,0,0,0,2.772-1.871A15.455,15.455,0,0,0,286.663,179.694Z" fill="#3f2831"/>
        <path id="パス_77878" data-name="パス 77878" d="M324.743,223.238a2.6,2.6,0,1,1-1.986-3.091A2.6,2.6,0,0,1,324.743,223.238Z" fill="#fff"/>
        <path id="パス_77879" data-name="パス 77879" d="M304,220.965a.739.739,0,0,1-.575-.809c.108-.924-.021-2.115-.356-2.326a.738.738,0,1,1,.785-1.25c1.317.826,1.1,3.27,1.037,3.752a.738.738,0,0,1-.82.644A.58.58,0,0,1,304,220.965Z" fill="#cb6362"/>
        <path id="パス_77880" data-name="パス 77880" d="M292.509,198.048l-.013,0a.81.81,0,0,1-.567-1.077c.355-1.574-3.183-2.967-5.323-3.657a4.1,4.1,0,0,0-4.087.546.758.758,0,0,1-1.061-1.082,5.547,5.547,0,0,1,5.613-.907c4.687,1.512,6.766,3.264,6.352,5.357a.748.748,0,0,1-.015.257A.758.758,0,0,1,292.509,198.048Zm.337-1.478a.754.754,0,0,1,.1.034A.677.677,0,0,0,292.846,196.57Zm0,0h0Z" fill="#ab2d23"/>
        <path id="パス_77881" data-name="パス 77881" d="M310.454,203.106l-.015,0c-.129-.031-.763-.229-.556-1.109.407-1.744-2.652-2.928-5.29-3.614a4.258,4.258,0,0,0-4.49,1.088.758.758,0,0,1-1.208-.916,5.648,5.648,0,0,1,6.079-1.638c4.823,1.253,6.915,3.013,6.395,5.377a.758.758,0,0,1-.915.815Zm.339-1.477a.752.752,0,0,1,.17.063A.8.8,0,0,0,310.793,201.629Zm0,0Z" fill="#ab2d23"/>
        <path id="パス_77882" data-name="パス 77882" d="M286.3,201.478a7.128,7.128,0,0,1-4.262-2.738,3.489,3.489,0,0,1-.813-2.594.357.357,0,0,1,.454-.283.378.378,0,0,1,.284.454,2.784,2.784,0,0,0,.69,1.98,6.423,6.423,0,0,0,4.666,2.573c3.59.338,4.558-1.73,4.6-1.818a.382.382,0,0,1,.5-.193.378.378,0,0,1,.2.5c-.048.109-1.2,2.661-5.364,2.269A7.91,7.91,0,0,1,286.3,201.478Z" fill="#fff"/>
        <path id="パス_77883" data-name="パス 77883" d="M303.943,206.541a7.128,7.128,0,0,1-4.262-2.738,3.489,3.489,0,0,1-.813-2.594.379.379,0,0,1,.45-.284h.005a.378.378,0,0,1,.283.454,2.788,2.788,0,0,0,.69,1.98,6.433,6.433,0,0,0,4.666,2.574c3.59.337,4.559-1.73,4.6-1.819a.379.379,0,0,1,.7.3c-.047.108-1.2,2.661-5.363,2.269A7.958,7.958,0,0,1,303.943,206.541Z" fill="#fff"/>
        <path id="パス_77884" data-name="パス 77884" d="M299.574,199.511l-.055-.014-6.489-1.934a.758.758,0,0,1,.433-1.452l6.488,1.933a.758.758,0,0,1-.377,1.467Z" fill="#ab2d23"/>
        <path id="パス_77885" data-name="パス 77885" d="M312.018,202.535c-.823-.179-1.311-.286-1.335-.292a.758.758,0,0,1,.376-1.469c.357.082,12.792,2.776,19.334,4.192h0a.758.758,0,0,1-.322,1.482C324.3,205.2,315.373,203.264,312.018,202.535Z" fill="#ab2d23"/>
        <path id="パス_77886" data-name="パス 77886" d="M296.757,346.368H275.568l.386-3.494s-1.585-12.664-3.229-20.168c-.417-1.879-.751-3.425-.94-4.38-.948-4.767-9.292-50.052-5.715-54.341,1.448-1.743,5.5-3.919,9.807-5.881,6.291-2.88,13.823-6.185,13.823-6.185l3.7,32.428Z" fill="#d9c3af"/>
        <path id="パス_77887" data-name="パス 77887" d="M271.606,315.439a1.137,1.137,0,0,1-1.119-.944c-.149-.867-3.637-21.343-1.814-32.283l1.813-10.876a1.137,1.137,0,0,1,2.243.374l-1.813,10.876c-1.761,10.564,1.776,31.314,1.811,31.523a1.136,1.136,0,0,1-.927,1.313A1.068,1.068,0,0,1,271.606,315.439Z" fill="#bf9c7e"/>
        <path id="パス_77888" data-name="パス 77888" d="M322.424,252.261s8.621,3.569,15.388,6.866c3.441,1.675,6.427,3.418,7.632,4.858,3.578,4.289-4.767,49.574-5.714,54.341-.47,2.342-1.8,8.322-3.039,13.786-1.281,5.654-2.448,10.762-2.448,10.762l.386,3.494H314.735Z" fill="#d9c3af"/>
        <path id="パス_77889" data-name="パス 77889" d="M337.574,328.937a1.112,1.112,0,0,1-.241-.026,1.136,1.136,0,0,1-.871-1.35c.069-.319,6.864-32.025,5.107-42.563L338.7,267.8l2.242-.373,2.866,17.195c1.827,10.965-4.843,42.1-5.128,43.417A1.137,1.137,0,0,1,337.574,328.937Z" fill="#bf9c7e"/>
        <path id="パス_77890" data-name="パス 77890" d="M319.151,235.626a.389.389,0,0,1-.3-.414.379.379,0,0,1,.417-.351,6.033,6.033,0,0,0,2.166-.188l.008,0a.4.4,0,0,1,.479.258.429.429,0,0,1,0,.2.389.389,0,0,1-.266.292,6.606,6.606,0,0,1-2.457.21C319.19,235.626,319.173,235.631,319.151,235.626Zm4.233-1.453a.372.372,0,0,1-.161-.081.4.4,0,0,1-.059-.548,3.082,3.082,0,0,0,.636-1.281,2.561,2.561,0,0,0,.053-.6l0-.014a.311.311,0,0,1,0-.085.389.389,0,0,1,.769.066,3.074,3.074,0,0,1-.073.8,3.855,3.855,0,0,1-.784,1.606A.383.383,0,0,1,323.384,234.173Zm1.7-2.918a.39.39,0,0,1-.3-.422.408.408,0,0,1,.141-.257.378.378,0,0,1,.29-.084,5.473,5.473,0,0,0,2.153-.2.412.412,0,0,1,.486.261.428.428,0,0,1,0,.195.39.39,0,0,1-.265.292,6.3,6.3,0,0,1-2.469.222Zm4.337-1.321a.375.375,0,0,1-.214-.124.394.394,0,0,1,.042-.549,5.58,5.58,0,0,0,1.325-1.705.381.381,0,0,1,.52-.182.389.389,0,0,1,.2.425.4.4,0,0,1-.029.094,6.265,6.265,0,0,1-1.511,1.959A.386.386,0,0,1,329.426,229.934Zm1.995-4.072a.384.384,0,0,1-.3-.414c.014-.206.026-.406.035-.628a10.251,10.251,0,0,1,.184-1.628l.026-.118a.385.385,0,0,1,.458-.288l.015,0a.387.387,0,0,1,.277.471l-.009.045-.012.052a10.239,10.239,0,0,0-.162,1.531c-.012.2-.028.413-.043.627a.4.4,0,0,1-.136.265.344.344,0,0,1-.282.086A.111.111,0,0,1,331.421,225.862Z" fill="#2a171f"/>
        <path id="パス_77891" data-name="パス 77891" d="M281.528,183.6a.384.384,0,0,1-.244-.589.415.415,0,0,1,.247-.171,6.324,6.324,0,0,0,2.008-.851c0-.007,0-.007.009-.006a.389.389,0,0,1,.522.13.355.355,0,0,1,.053.29.364.364,0,0,1-.176.241,6.964,6.964,0,0,1-2.257.96A.371.371,0,0,1,281.528,183.6Zm3.973-2.324a.39.39,0,0,1-.2-.121.394.394,0,0,1-.1-.278.384.384,0,0,1,.128-.267c.5-.464,1.038-.992,1.618-1.626h0a.4.4,0,0,1,.549-.028.39.39,0,0,1,.121.368.441.441,0,0,1-.093.181c-.6.646-1.144,1.194-1.675,1.676A.378.378,0,0,1,285.5,181.272Zm3.17-3.414a.348.348,0,0,1-.16-.081.389.389,0,0,1-.052-.547c.432-.526.9-1.122,1.443-1.819a.394.394,0,0,1,.542-.068.378.378,0,0,1,.141.388.406.406,0,0,1-.064.149v.007a.1.1,0,0,1-.029.025c-.511.672-.989,1.267-1.434,1.814A.39.39,0,0,1,288.671,177.858Zm2.858-3.69a.416.416,0,0,1-.147-.071.393.393,0,0,1-.083-.546c.481-.64.966-1.3,1.384-1.87a.389.389,0,0,1,.691.32.492.492,0,0,1-.061.135c-.563.77-.992,1.351-1.387,1.886A.4.4,0,0,1,291.529,174.168Zm2.8-3.735a.412.412,0,0,1-.176-.085.344.344,0,0,1-.13-.26.366.366,0,0,1,.093-.283,14.712,14.712,0,0,1,1.7-1.685.393.393,0,0,1,.547.049.414.414,0,0,1,.083.336.476.476,0,0,1-.123.206.008.008,0,0,0-.009.006l-.01.013a14.324,14.324,0,0,0-1.6,1.583A.391.391,0,0,1,294.328,170.433Zm3.545-3a.371.371,0,0,1-.248-.178.38.38,0,0,1-.053-.291.393.393,0,0,1,.176-.241,15.67,15.67,0,0,1,2.129-1.088.389.389,0,0,1,.5.211.349.349,0,0,1,.022.221.373.373,0,0,1-.225.285,14.351,14.351,0,0,0-2.024,1.033A.391.391,0,0,1,297.873,167.435Zm4.279-1.807a.394.394,0,0,1-.3-.282.384.384,0,0,1,.282-.473,16.748,16.748,0,0,1,2.338-.446.385.385,0,0,1,.431.335.378.378,0,0,1-.341.429,17.794,17.794,0,0,0-2.234.43A.355.355,0,0,1,302.152,165.628Zm4.616-.578a.393.393,0,0,1-.313-.379.4.4,0,0,1,.115-.277.383.383,0,0,1,.28-.11,20.088,20.088,0,0,1,2.365.142.386.386,0,0,1,.341.431.106.106,0,0,1,0,.047.394.394,0,0,1-.429.294,21.205,21.205,0,0,0-2.281-.139A.278.278,0,0,1,306.768,165.05Zm6.853,1.2-.045-.01a21.06,21.06,0,0,0-2.2-.633.366.366,0,0,1-.24-.177.382.382,0,0,1-.053-.29.387.387,0,0,1,.459-.3c.767.183,1.533.4,2.284.66a.391.391,0,0,1,.242.495A.387.387,0,0,1,313.621,166.246Z" fill="#2a171f"/>
      </g>
      <g id="グループ_7125" data-name="グループ 7125">
        <path id="パス_77892" data-name="パス 77892" d="M295.069,221.032a1.868,1.868,0,0,1-1.654,2.019,1.806,1.806,0,0,1-1.84-1.8,1.867,1.867,0,0,1,1.654-2.018A1.806,1.806,0,0,1,295.069,221.032Z" fill="#c1143a"/>
      </g>
    </g>
  </g>
</svg>
