<svg xmlns="http://www.w3.org/2000/svg" xmlns:xlink="http://www.w3.org/1999/xlink" width="514" height="416.971" viewBox="0 0 514 416.971">
  <defs>
    <clipPath id="clip-path">
      <rect id="長方形_26826" data-name="長方形 26826" width="111.577" height="168.11" transform="translate(-8.727 0)" fill="#fff" stroke="#707070" stroke-width="1"/>
    </clipPath>
  </defs>
  <g id="pickup_graph" transform="translate(-15 -4435)">
    <rect id="長方形_26822" data-name="長方形 26822" width="513.256" height="416.556" transform="translate(15 4435)" fill="#fff" opacity="0"/>
    <line id="線_161" data-name="線 161" x2="514" transform="translate(15 4454.422)" fill="none" stroke="#dcdcdc" stroke-width="1" stroke-dasharray="4 5"/>
    <g id="lady" transform="translate(416.679 4435)" clip-path="url(#clip-path)">
      <g id="グループ_3893" data-name="グループ 3893" transform="translate(-523.897 -150.908)">
        <g id="グループ_3896" data-name="グループ 3896" transform="translate(514.171 150.908)">
          <g id="グループ_3895" data-name="グループ 3895" transform="translate(0 0)">
            <path id="パス_68948" data-name="パス 68948" d="M544.469,626.117s-6.554.059-16.429,17.771-12.959,69.483-12.959,69.483l11.34-.668Z" transform="translate(-514.826 -492.787)" fill="#e4a643"/>
            <path id="パス_68949" data-name="パス 68949" d="M670.128,245.806c-.433,5.21-4.839,31.512-4.839,31.512L603.464,274.3a182.841,182.841,0,0,1-1.974-28.7,84.153,84.153,0,0,1,1.3-13.966c.954-4.967,2.526-9.282,4.932-12.182,5.829-7.03,14.709-10.02,21.707-11.283a57.382,57.382,0,0,1,7.927-.832c1.726-.065,2.774,0,2.774,0l.155.03,6.815,1.786a27.054,27.054,0,0,1,2.621,1.36C656.1,214.139,671.822,225.239,670.128,245.806Z" transform="translate(-576.97 -191.476)" fill="#c6654d"/>
            <path id="パス_68950" data-name="パス 68950" d="M669.1,315.319c.339,14.959-11.84,27.37-27.2,27.714s-28.083-11.511-28.411-26.467,11.836-27.364,27.2-27.706C656.043,288.5,668.765,300.355,669.1,315.319Z" transform="translate(-585.616 -250.15)" fill="#edbf98"/>
            <path id="パス_68951" data-name="パス 68951" d="M813.886,360.427a8.809,8.809,0,1,1-9.009-8.617A8.812,8.812,0,0,1,813.886,360.427Z" transform="translate(-717.121 -295.441)" fill="#edbf98"/>
            <path id="パス_68952" data-name="パス 68952" d="M610.17,261.375a50.081,50.081,0,0,0-2.051,8.837c-.215,1.71-1.219,5.772.041,7.172,1.789-2.429,2.541-5.59,4.63-7.9a73.5,73.5,0,0,1,8.977-8.585,16.025,16.025,0,0,1-1.274,5.482c3.925-1.692,7.7-5.539,10.626-8.568,2.721,4.234,8.14,7.178,12.2,9.776,3.566,2.28,8.874,5.877,13.1,6.533-1.548-3.56-4.087-6.75-4.572-10.763,2.678,3.123,4.164,7.37,6.948,10.6,2.446,2.844,4.488,5.581,7.815,7.207,2.983-6.243,5.363-11.939,3.941-19.287-1.07-5.5-4.4-10.556-8.036-14.558-3.586-3.947-8.51-6-13.568-7.208-1.668-.4-4.069.1-5.651-.785a8.278,8.278,0,0,0-4.431-1.022c-7.913.077-15.072,3.625-20.978,8.944C613.611,251.1,611.921,255.8,610.17,261.375Z" transform="translate(-581.341 -213.785)" fill="#c6654d"/>
            <path id="パス_68953" data-name="パス 68953" d="M662.961,353.163a2.793,2.793,0,0,1-1.346,3.544,2.452,2.452,0,0,1-3.294-1.442,2.79,2.79,0,0,1,1.361-3.54A2.453,2.453,0,0,1,662.961,353.163Z" transform="translate(-617.74 -295.231)" fill="#0d0002"/>
            <path id="パス_68954" data-name="パス 68954" d="M734.432,353.163a2.8,2.8,0,0,1-1.346,3.544,2.454,2.454,0,0,1-3.3-1.442,2.793,2.793,0,0,1,1.358-3.54A2.459,2.459,0,0,1,734.432,353.163Z" transform="translate(-669.156 -295.231)" fill="#0d0002"/>
            <path id="パス_68955" data-name="パス 68955" d="M700.524,372.973a.651.651,0,0,1-.476-.206c-.236-.251-.5-.487-.758-.716a3.992,3.992,0,0,1-1.779-3.175,26.347,26.347,0,0,1,1.728-5.574c.411-1.105.8-2.15.915-2.61a.654.654,0,1,1,1.268.321c-.134.528-.515,1.555-.957,2.744a30.936,30.936,0,0,0-1.647,5.157c-.025.9.469,1.381,1.343,2.16.277.247.564.5.839.8a.654.654,0,0,1-.476,1.1Z" transform="translate(-646.07 -301.478)" fill="#0d0002"/>
            <path id="パス_68956" data-name="パス 68956" d="M667.89,202.616l-2.067,7.278c-.431-1.266-.955-2.53-1.419-3.609a84.665,84.665,0,0,0-4.531-9.528c-3.67-6.658-8.451-13.474-15.3-17.387-11.006-6.29-24.2-.956-32.4,7.552a32.506,32.506,0,0,0-4.381,5.643,71.421,71.421,0,0,0-5.086,9.59c-.4.923-.772,1.882-1.143,2.868a60.039,60.039,0,0,1,1.3-11.82c1.325-2.064,5.823-10.75,13.719-15.933a36.919,36.919,0,0,1,9.558-4.314c2.13-.649,6.477-1.419,8.544-.279a13.648,13.648,0,0,1-5.182-5.085.776.776,0,0,1-.184-.25c-2.959-4.993-3.423-11.65-.465-16.432,3.365,2.711,6.077,8.108,7.619,12.055a18.315,18.315,0,0,1,.9,3.3,2.82,2.82,0,0,1,.061.494,58.081,58.081,0,0,0,1.232,7.058,22.966,22.966,0,0,1,1.7-7.027,21.526,21.526,0,0,1,1.632-3.242c2.777-4.53,13.94-10.419,13.94-10.419s2.219-2.806,0,8.852a10.994,10.994,0,0,1-3.486,5.949,16.727,16.727,0,0,1-2.651,2.006,30.234,30.234,0,0,1-8.356,3.421c8.88-1.482,16.588,8.448,20.412,14.859A60.874,60.874,0,0,1,667.89,202.616Z" transform="translate(-577.043 -150.908)" fill="#4c8fc4"/>
            <path id="パス_68957" data-name="パス 68957" d="M680.159,508.817l15.1-.694-4.208-3.961c-4.207-3.962-6.191-31.936-6.191-31.936h-5.2v.053l0-.053h-5.2s-1.982,27.974-6.19,31.936l-4.209,3.961,15.1.694v.047l.494-.021.494.021Z" transform="translate(-622.009 -382.073)" fill="#edbf98"/>
            <path id="パス_68958" data-name="パス 68958" d="M639.3,789.06,621.353,621.489l-25.725-24.243-31.864.512-23.134,25.7L526.206,787.59Z" transform="translate(-522.829 -472.017)" fill="#e4a643"/>
            <path id="パス_68959" data-name="パス 68959" d="M751.806,597.246s-14.834,92.037-5.34,103.767,42.448,8.936,42.448,8.936-4.12-80.641-11.17-92.157S751.806,597.246,751.806,597.246Z" transform="translate(-679.008 -472.017)" fill="#e4a643"/>
            <path id="パス_68960" data-name="パス 68960" d="M577.789,597.246s14.833,92.037,5.34,103.767S543.96,711.5,543.96,711.5s2.059-81.535,7.891-93.712C557.87,605.225,577.789,597.246,577.789,597.246Z" transform="translate(-535.602 -472.017)" fill="#e4a643"/>
            <path id="パス_68961" data-name="パス 68961" d="M718.436,274.883a.792.792,0,0,1-.507-.183,10.842,10.842,0,0,1-1.4-1.419.8.8,0,1,1,1.225-1.021,9.289,9.289,0,0,0,1.194,1.211.8.8,0,0,1-.509,1.412Zm-3.82-5.186a.8.8,0,0,1-.7-.412c-.173-.314-.339-.62-.5-.911l-.392-.722a.8.8,0,1,1,1.4-.757l.39.719c.156.288.319.59.491.9a.8.8,0,0,1-.7,1.183Zm-2.835-5.817a.8.8,0,0,1-.745-.511c-.232-.6-.443-1.208-.625-1.8a.8.8,0,1,1,1.523-.472c.172.555.371,1.126.591,1.7a.8.8,0,0,1-.744,1.084Zm-1.518-6.273a.8.8,0,0,1-.794-.73c-.044-.523-.067-1.05-.067-1.566q0-.183,0-.366a.8.8,0,0,1,1.594.034q0,.166,0,.333c0,.471.021.953.062,1.431a.8.8,0,0,1-.727.862C710.308,257.606,710.285,257.608,710.263,257.608Z" transform="translate(-654.626 -225.194)" fill="#e17632"/>
            <path id="パス_68962" data-name="パス 68962" d="M755.722,289.5a.8.8,0,0,1-.5-.175c-.1-.084-.206-.171-.3-.26a.8.8,0,1,1,1.071-1.182c.075.068.152.134.232.2a.8.8,0,0,1-.5,1.419Zm-2.586-4.172a.8.8,0,0,1-.753-.536c-.195-.561-.369-1.129-.537-1.68l-.034-.111a.8.8,0,1,1,1.525-.467l.034.112c.164.536.334,1.091.519,1.624a.8.8,0,0,1-.753,1.059Zm-2.083-6.13a.8.8,0,0,1-.749-.523c-.211-.574-.425-1.147-.646-1.717a.8.8,0,1,1,1.486-.578c.225.579.443,1.162.658,1.746a.8.8,0,0,1-.749,1.072Zm-2.534-5.953a.8.8,0,0,1-.717-.446q-.427-.813-.857-1.6a.8.8,0,0,1,1.4-.768q.438.8.87,1.622l.021.041a.8.8,0,0,1-.715,1.149Zm-3.234-5.606a.8.8,0,0,1-.67-.364c-.335-.518-.678-1.025-1.017-1.507a.8.8,0,1,1,1.3-.919c.352.5.706,1.024,1.052,1.559a.8.8,0,0,1-.668,1.231Zm-3.906-5.156a.794.794,0,0,1-.594-.265c-.4-.45-.82-.893-1.24-1.318a.8.8,0,1,1,1.134-1.121c.439.444.875.907,1.294,1.376a.8.8,0,0,1-.594,1.329Z" transform="translate(-676.145 -229.062)" fill="#e17632"/>
            <path id="パス_68963" data-name="パス 68963" d="M618.181,295.523c-.025,0-.05,0-.075,0a.8.8,0,0,1-.719-.868,19.107,19.107,0,0,1,.282-1.911.8.8,0,0,1,1.564.309,17.5,17.5,0,0,0-.259,1.75A.8.8,0,0,1,618.181,295.523Zm1.562-6.269a.8.8,0,0,1-.747-1.076c.214-.575.45-1.165.7-1.754a.8.8,0,1,1,1.467.625c-.241.566-.468,1.133-.673,1.685A.8.8,0,0,1,619.742,289.254Zm2.712-5.879a.8.8,0,0,1-.7-1.18c.3-.547.613-1.1.932-1.633a.8.8,0,0,1,1.37.816c-.31.52-.613,1.052-.9,1.582A.8.8,0,0,1,622.455,283.376Zm3.465-5.469a.8.8,0,0,1-.643-1.268c.377-.516.763-1.02,1.147-1.5a.8.8,0,0,1,1.244,1c-.369.46-.74.945-1.1,1.443A.8.8,0,0,1,625.92,277.906Zm4.261-4.87a.8.8,0,0,1-.539-1.385,19.246,19.246,0,0,1,1.483-1.236.8.8,0,1,1,.954,1.278c-.44.328-.9.71-1.36,1.133A.794.794,0,0,1,630.181,273.037Z" transform="translate(-588.424 -236.771)" fill="#e17632"/>
            <path id="パス_68964" data-name="パス 68964" d="M766.364,379.48a3.191,3.191,0,1,1-3.192-3.191A3.191,3.191,0,0,1,766.364,379.48Z" transform="translate(-691.015 -313.054)" fill="#e9706e"/>
            <path id="パス_68965" data-name="パス 68965" d="M630.286,379.48a3.189,3.189,0,1,1-3.191-3.191A3.189,3.189,0,0,1,630.286,379.48Z" transform="translate(-593.118 -313.054)" fill="#e9706e"/>
            <path id="パス_68966" data-name="パス 68966" d="M763.24,382.578a.609.609,0,0,1-.417-.165c-.81-.758-2.119-2.141-1.784-2.9a1.011,1.011,0,0,1,.586-.544c.722-.271,1.813.114,3.231.775l.2.09.148.063-.086-.116c-.063-.082-.132-.177-.207-.28-.38-.52-1.165-1.6-1.7-1.6h-.038a.611.611,0,0,1-.022-1.222c1.182-.039,2.13,1.244,2.752,2.1.071.1.136.186.2.265.5.669,1,1.429.557,1.993s-1.309.253-2.083-.084c-.056-.024-.131-.06-.223-.1a9.228,9.228,0,0,0-1.921-.724,12.922,12.922,0,0,0,1.239,1.389.611.611,0,0,1-.418,1.057Z" transform="translate(-691.736 -313.339)" fill="#e55a65"/>
            <path id="パス_68967" data-name="パス 68967" d="M628.125,382.577a.61.61,0,0,1-.416-.163c-.652-.607-2.133-2.1-1.789-2.893a1.013,1.013,0,0,1,.587-.548c.72-.272,1.815.114,3.237.776l.193.089.145.062-.085-.115c-.062-.082-.129-.174-.2-.274-.383-.527-1.184-1.631-1.726-1.6a.611.611,0,1,1-.046-1.221c1.194-.045,2.137,1.249,2.76,2.105.068.094.132.181.19.258.5.667,1,1.427.557,1.991s-1.309.254-2.083-.083c-.055-.024-.129-.058-.219-.1a9.22,9.22,0,0,0-1.924-.726,12.92,12.92,0,0,0,1.237,1.387.611.611,0,0,1-.416,1.059Z" transform="translate(-594.53 -313.339)" fill="#e55a65"/>
            <path id="パス_68968" data-name="パス 68968" d="M814.811,626.117s7.418-.16,17.289,17.552S843.44,709.7,843.44,709.7l-8.105,3.669Z" transform="translate(-730.46 -492.787)" fill="#e4a643"/>
            <g id="グループ_3893-2" data-name="グループ 3893" transform="translate(4.983 68.69)">
              <path id="パス_68969" data-name="パス 68969" d="M579.924,426.02c-2.136,1.72-3.5,4.089-5.467,5.881-1.275,1.159-1.945-.52-2.663-1.77a53.213,53.213,0,0,1-3.661-8.063c-2.268-6.116-9.47-20.472-10.707-18.535a10.031,10.031,0,0,1-.533.86c-1.019-2.638-2.2-6.1-4.57-7.764-1.622.8,1.574,7.657,1.91,9.1a11.985,11.985,0,0,0-2.017-1.877c-.779.634-.265,1.672.022,2.444,1.329,3.569,2.336,6.109,3.682,9.672.7,1.851,1.229,3.757,1.8,5.653.123.406.932,2.039.238,2.289-.586.213-1.6-1.5-1.865-1.943a12.385,12.385,0,0,1-1.317-3.514c-.38-1.773-1.035-4.7-2.892-5.521-1.593-.7-.965.87-.677,2.021.356,1.432.843,2.8,1.118,4.239a35.319,35.319,0,0,0,.406,3.555c.537,1.753,2.116,3.774,3.04,5.378,1.249,2.169,2.614,4.207,3.66,6.48.663,1.447,1.7,2.728,2.046,4.308.349,1.561.67,3.179.994,4.769a45.388,45.388,0,0,1,.817,6.069,17.924,17.924,0,0,1-.254,4.062l-31.1,89.173L544.88,546.6l27.6-96.766a6.544,6.544,0,0,1,.721-1.4c.848-1.183,2.123-1.848,3-2.916.793-.97.9-2.467,1.173-3.656.328-1.409.606-2.818.982-4.232.746-2.818.809-5.843,2.091-8.5C580.906,428.18,582.46,423.977,579.924,426.02Z" transform="translate(-531.931 -396.377)" fill="#edbf98"/>
              <path id="パス_68970" data-name="パス 68970" d="M768.779,537.952l-32.034-84.565a18.019,18.019,0,0,1-.461-4.042,45.415,45.415,0,0,1,.51-6.105c.244-1.6.485-3.239.753-4.813.271-1.593,1.238-2.929,1.824-4.4.93-2.324,2.192-4.431,3.331-6.658.842-1.647,2.316-3.749,2.764-5.527a35.431,35.431,0,0,0,.224-3.568c.206-1.452.619-2.844.9-4.29.23-1.168.777-2.761-.777-1.985-1.815.914-2.322,3.867-2.612,5.657a12.532,12.532,0,0,1-1.135,3.582c-.243.449-1.171,2.216-1.768,2.031-.7-.216.022-1.884.125-2.3.469-1.92.9-3.851,1.509-5.734,1.163-3.628,2.042-6.213,3.188-9.847.247-.784.708-1.844-.1-2.444a11.9,11.9,0,0,0-1.92,1.98c.265-1.462,3.111-8.467,1.449-9.189-2.281,1.778-3.287,5.3-4.17,7.988-.135-.109-.4-.6-.577-.832-1.333-1.875-7.8,12.827-9.757,19.049a53.043,53.043,0,0,1-3.247,8.24c-.655,1.281-1.239,2.991-2.571,1.9-2.058-1.69-3.537-3.987-5.759-5.6-2.635-1.914-.87,2.205-.364,3.135,1.418,2.6,1.631,5.61,2.52,8.386.446,1.392.8,2.786,1.193,4.179.334,1.173.517,2.661,1.358,3.593.923,1.018,2.23,1.621,3.14,2.76a6.542,6.542,0,0,1,.788,1.356l28.927,92.328Z" transform="translate(-665.117 -395.73)" fill="#edbf98"/>
            </g>
            <g id="グループ_3894" data-name="グループ 3894" transform="translate(24.441 68.212)">
              <path id="パス_68973" data-name="パス 68973" d="M621.8,451.292a.484.484,0,0,1-.121-.016.478.478,0,0,1-.342-.584l.575-2.2a.476.476,0,0,1,.018-.056,7.105,7.105,0,0,1,.776-1.5,9.374,9.374,0,0,1,1.706-1.7A9.575,9.575,0,0,0,625.723,444a5.893,5.893,0,0,0,.906-2.613c.055-.292.109-.577.171-.847.111-.479.217-.957.322-1.435.2-.92.413-1.871.664-2.813.263-.992.444-2.039.619-3.051a20.636,20.636,0,0,1,1.5-5.536,8.646,8.646,0,0,0,.848-2.952,2.739,2.739,0,0,0-.639.417,21.367,21.367,0,0,0-2.967,3.136,25.782,25.782,0,0,1-2.478,2.726,1.591,1.591,0,0,1-1.337.5c-.829-.139-1.333-1.057-1.82-1.946-.081-.148-.162-.295-.243-.437a52.954,52.954,0,0,1-3.695-8.135,108.71,108.71,0,0,0-5.221-11.311c-3.175-5.987-4.394-6.92-4.679-7.065-.057.09-.117.2-.176.3a2.252,2.252,0,0,1-.4.593.478.478,0,0,1-.76-.188l-.233-.608c-.88-2.3-1.962-5.136-3.818-6.671a1.633,1.633,0,0,0-.051.378.486.486,0,0,1-.494.463.478.478,0,0,1-.463-.494,1.507,1.507,0,0,1,.72-1.432.478.478,0,0,1,.489.036c2.222,1.561,3.435,4.572,4.4,7.082l.041-.061a.807.807,0,0,1,.784-.377c.382.041,1.545.165,5.466,7.548a109.8,109.8,0,0,1,5.3,11.472,52.079,52.079,0,0,0,3.627,7.99c.085.148.169.3.253.454.342.623.767,1.4,1.138,1.462a.788.788,0,0,0,.536-.261,24.772,24.772,0,0,0,2.384-2.627,22.061,22.061,0,0,1,3.105-3.272c.334-.269,1.221-.984,1.844-.49,1.018.807-.575,4.152-.591,4.185a19.628,19.628,0,0,0-1.422,5.284c-.179,1.033-.364,2.1-.637,3.134-.246.924-.454,1.864-.655,2.774-.106.481-.213.962-.325,1.444-.059.257-.11.529-.162.808a6.661,6.661,0,0,1-1.106,3.042,10.451,10.451,0,0,1-1.436,1.367,8.535,8.535,0,0,0-1.541,1.525,6.174,6.174,0,0,0-.655,1.267l-.567,2.173A.479.479,0,0,1,621.8,451.292Z" transform="translate(-601.282 -394.672)" fill="#b35d55"/>
              <path id="パス_68974" data-name="パス 68974" d="M726.447,450.847a.478.478,0,0,1-.456-.334l-.532-1.677a6.078,6.078,0,0,0-.717-1.232,8.589,8.589,0,0,0-1.62-1.447,10.5,10.5,0,0,1-1.5-1.288,6.682,6.682,0,0,1-1.26-2.982c-.067-.276-.132-.546-.2-.8-.133-.465-.26-.931-.388-1.4-.249-.909-.506-1.848-.8-2.767-.326-1.018-.564-2.074-.795-3.1a19.591,19.591,0,0,0-1.689-5.207c-.019-.033-1.776-3.293-.8-4.149.6-.524,1.519.146,1.866.4a22.079,22.079,0,0,1,3.27,3.113,24.746,24.746,0,0,0,2.511,2.5.77.77,0,0,0,.547.231c.367-.081.752-.873,1.061-1.509.078-.16.155-.319.234-.473a51.879,51.879,0,0,0,3.216-8.165,109.854,109.854,0,0,1,4.711-11.723c3.543-7.571,4.7-7.753,5.078-7.813a.82.82,0,0,1,.815.354l.032.042c.832-2.558,1.891-5.629,4.032-7.3a.479.479,0,0,1,.485-.061c.982.427,1.063,1.886.27,4.878a.478.478,0,0,1-.925-.245c.606-2.284.547-3.184.425-3.535-1.777,1.626-2.714,4.515-3.476,6.863l-.2.615a.479.479,0,0,1-.756.223,2.3,2.3,0,0,1-.417-.555c-.067-.107-.141-.225-.2-.306-.275.157-1.445,1.144-4.318,7.291a108.818,108.818,0,0,0-4.643,11.558,52.784,52.784,0,0,1-3.277,8.314c-.075.148-.15.3-.225.455-.441.907-.9,1.845-1.716,2.026a1.59,1.59,0,0,1-1.359-.426,25.864,25.864,0,0,1-2.611-2.6,21.344,21.344,0,0,0-3.125-2.984,2.748,2.748,0,0,0-.659-.385,8.692,8.692,0,0,0,1,2.9,20.586,20.586,0,0,1,1.782,5.455c.226,1,.46,2.037.773,3.014.3.938.56,1.888.812,2.807.126.462.253.925.385,1.387.076.267.144.55.214.839a5.917,5.917,0,0,0,1.039,2.565,9.631,9.631,0,0,0,1.365,1.166,9.449,9.449,0,0,1,1.792,1.616,7.08,7.08,0,0,1,.85,1.456.423.423,0,0,1,.021.054l.54,1.705a.478.478,0,0,1-.311.6A.472.472,0,0,1,726.447,450.847Zm12.128-49.226-.362.313a.089.089,0,0,0,.025.019Z" transform="translate(-683.377 -394.026)" fill="#b35d55"/>
            </g>
            <path id="パス_68977" data-name="パス 68977" d="M533.523,897.119c0,5.834-5.4,19.1-10.366,19.1s-8.986-4.73-8.986-10.563,4.023-10.562,8.986-10.562S533.523,891.286,533.523,897.119Z" transform="translate(-514.171 -685.42)" fill="#edbf98"/>
            <path id="パス_68978" data-name="パス 68978" d="M848.186,878.1c0,5.834,5.4,19.1,10.367,19.1s8.985-4.733,8.985-10.565-4.022-10.564-8.985-10.564S848.186,872.262,848.186,878.1Z" transform="translate(-754.471 -671.733)" fill="#edbf98"/>
          </g>
        </g>
        <path id="パス_68979" data-name="パス 68979" d="M692.5,421.8c-1.639,4.119-3.054,6.023-6.163,8.177-2.76,1.92-6.264,3.026-9.236,1.573-2.524-1.237-6.761-5.145-7.8-8.6Z" transform="translate(-111.607 -194.89)" fill="#c1143a"/>
        <path id="パス_68980" data-name="パス 68980" d="M833.979,680.457a.819.819,0,0,1-.11-.008.8.8,0,0,1-.681-.9l1.335-9.672a.8.8,0,0,1,1.58.218l-1.335,9.673A.8.8,0,0,1,833.979,680.457Z" transform="translate(-229.504 -372.867)" fill="#d18700"/>
        <path id="パス_68981" data-name="パス 68981" d="M590.447,680.456a.8.8,0,0,1-.789-.688l-1.333-9.673a.8.8,0,0,1,1.58-.218l1.333,9.673a.8.8,0,0,1-.681.9A.814.814,0,0,1,590.447,680.456Z" transform="translate(-53.343 -372.866)" fill="#d18700"/>
      </g>
    </g>
    <line id="線_158" data-name="線 158" x2="65.96" transform="translate(239.885 4850.75)" fill="none" stroke="#03a58e" stroke-width="1" stroke-dasharray="5 3"/>
    <line id="線_159" data-name="線 159" x2="71.479" y2="107.316" transform="translate(237.341 4599.19)" fill="none" stroke="#03a58e" stroke-width="1" stroke-dasharray="5 3"/>
    <g id="p" transform="translate(26.902 4599.063)">
      <rect id="長方形_26816" data-name="長方形 26816" width="209.766" height="252.909" transform="translate(0.098 0)" fill="#03a58e"/>
      <text id="_148_000" data-name="148,000" transform="translate(30.458 189.227)" fill="#fff" font-size="40" font-family="Oswald-Bold, Oswald" font-weight="700"><tspan x="0" y="0">148,000</tspan></text>
      <text id="円" transform="translate(164.739 184.182)" fill="#fff" font-size="13" font-family="NotoSansJP-Bold, Noto Sans JP" font-weight="700"><tspan x="0" y="0">円</tspan></text>
      <rect id="長方形_26817" data-name="長方形 26817" width="90.77" height="34.217" rx="17.109" transform="translate(59.098 111.162)" fill="#fff"/>
      <text id="_2LDK" data-name="2LDK" transform="translate(105.098 135.688)" fill="#1a1311" font-size="19" font-family="NotoSansJP-Bold, Noto Sans JP" font-weight="700"><tspan x="-24.386" y="0">2LDK</tspan></text>
      <text id="ゴミ屋敷清掃" transform="translate(104.098 87.436)" fill="#fff" font-size="19" font-family="NotoSansJP-Bold, Noto Sans JP" font-weight="700"><tspan x="-57" y="0">ゴミ屋敷清掃</tspan></text>
      <line id="線_156" data-name="線 156" x2="112.073" transform="translate(48.598 101.719)" fill="none" stroke="#fff" stroke-width="1" stroke-dasharray="4 5"/>
    </g>
    <g id="p-2" data-name="p" transform="translate(309.564 4704.273)">
      <rect id="長方形_26816-2" data-name="長方形 26816" width="209.766" height="147.282" transform="translate(0.436 0)" fill="#03a58e"/>
      <text id="_88_000" data-name="88,000" transform="translate(39.461 130.78)" fill="#fff" font-size="40" font-family="Oswald-Bold, Oswald" font-weight="700"><tspan x="0" y="0">88,000</tspan></text>
      <text id="円-2" data-name="円" transform="translate(158.668 125.09)" fill="#fff" font-size="13" font-family="NotoSansJP-Bold, Noto Sans JP" font-weight="700"><tspan x="0" y="0">円</tspan></text>
      <rect id="長方形_26820" data-name="長方形 26820" width="90" height="35.705" rx="17.852" transform="translate(60.436 53.557)" fill="#fff"/>
      <text id="_2LDK-2" data-name="2LDK" transform="translate(105.436 78.854)" fill="#1a1311" font-size="19" font-family="NotoSansJP-Bold, Noto Sans JP" font-weight="700"><tspan x="-24.386" y="0">2LDK</tspan></text>
      <text id="ゴミ屋敷清掃-2" data-name="ゴミ屋敷清掃" transform="translate(104.436 30.602)" fill="#fff" font-size="19" font-family="NotoSansJP-Bold, Noto Sans JP" font-weight="700"><tspan x="-57" y="0">ゴミ屋敷清掃</tspan></text>
      <line id="線_160" data-name="線 160" x2="112.073" transform="translate(48.936 44.884)" fill="none" stroke="#fff" stroke-width="1" stroke-dasharray="4 5"/>
    </g>
    <g id="p-3" data-name="p" transform="translate(309.564 4598.647)">
      <rect id="長方形_26821" data-name="長方形 26821" width="209.766" height="105.627" transform="translate(0.436 0)" fill="#e288b1"/>
      <text id="_-60_000" data-name="-60,000" transform="translate(32.522 80.6)" fill="#fff" font-size="39" font-family="Oswald-Bold, Oswald" font-weight="700"><tspan x="0" y="0">-60,000</tspan></text>
      <text id="円-3" data-name="円" transform="translate(165.35 75.996)" fill="#fff" font-size="13" font-family="NotoSansJP-Bold, Noto Sans JP" font-weight="700"><tspan x="0" y="0">円</tspan></text>
      <text id="買取り_電化製品_" data-name="買取り(電化製品)" transform="translate(105.436 32.759)" fill="#fff" font-size="19" font-family="NotoSansJP-Black, Noto Sans JP" font-weight="800"><tspan x="-74.1" y="0">買取り(電化製品)</tspan></text>
    </g>
    <text id="不用品買取で" transform="translate(26.902 4518.655)" fill="#dd669c" font-size="36" font-family="NotoSansJP-Bold, Noto Sans JP" font-weight="700"><tspan x="0" y="0">不用品買取</tspan><tspan y="0" fill="#1a1311" font-size="23">で</tspan></text>
    <text id="ゴミ処理代が" transform="translate(235.106 4518.237)" fill="#1a1311" font-size="29" font-family="NotoSansJP-Bold, Noto Sans JP" font-weight="700"><tspan x="0" y="0">ゴミ処理代</tspan><tspan y="0" font-size="23">が</tspan></text>
    <text id="さらに安くなる_" data-name="さらに安くなる!" transform="translate(26.902 4568.237)" fill="#1a1311" font-size="28" font-family="NotoSansJP-Bold, Noto Sans JP" font-weight="700"><tspan x="0" y="0">さらに</tspan><tspan y="0" font-size="35">安くなる!</tspan></text>
  </g>
</svg>
