<svg xmlns="http://www.w3.org/2000/svg" xmlns:xlink="http://www.w3.org/1999/xlink" width="445" height="279" viewBox="0 0 445 279">
  <defs>
    <clipPath id="clip-path">
      <rect id="長方形_29450" data-name="長方形 29450" width="186" height="243" transform="translate(-9.637 -27.204)" fill="#fff"/>
    </clipPath>
  </defs>
  <g id="reason_03" transform="translate(-625 -39.98)">
    <rect id="長方形_29507" data-name="長方形 29507" width="445" height="279" rx="20" transform="translate(625 39.98)" fill="#fff"/>
    <g id="p" transform="translate(660.797 122.486)">
      <rect id="長方形_2729" data-name="長方形 2729" width="200" height="16" rx="2" transform="translate(0.203 30.494)" fill="#ffd800"/>
      <rect id="長方形_29434" data-name="長方形 29434" width="174" height="17" rx="2" transform="translate(0.203 90.494)" fill="#ffd800"/>
      <path id="パス_80031" data-name="パス 80031" d="M2.813-2.813a1.611,1.611,0,0,1-1.16-.478A1.54,1.54,0,0,1,1.16-4.437,1.587,1.587,0,0,1,1.653-5.6a1.587,1.587,0,0,1,1.16-.493H5.8a.205.205,0,0,0,.232-.232v-6.061a1.54,1.54,0,0,1,.493-1.146,1.611,1.611,0,0,1,1.16-.478H13.8a.231.231,0,0,0,.261-.261v-3.48q0-.232-.261-.232H8.671a.338.338,0,0,0-.348.232,56.562,56.562,0,0,1-2.929,5.829,1.51,1.51,0,0,1-1.015.725,1.657,1.657,0,0,1-1.247-.2l-.464-.261a1.516,1.516,0,0,1-.725-1.03,1.686,1.686,0,0,1,.2-1.262,48.945,48.945,0,0,0,4-8.584,1.821,1.821,0,0,1,.841-1.015,1.92,1.92,0,0,1,1.305-.232l.493.087a1.434,1.434,0,0,1,.986.7,1.417,1.417,0,0,1,.116,1.189,1.43,1.43,0,0,0-.073.2,1.431,1.431,0,0,1-.073.2q-.058.232.174.232H25a1.554,1.554,0,0,1,1.117.464,1.516,1.516,0,0,1,.479,1.131,1.516,1.516,0,0,1-.479,1.131A1.554,1.554,0,0,1,25-17.98H18.27a.205.205,0,0,0-.232.232v3.48q0,.261.232.261h5.858a1.53,1.53,0,0,1,1.117.478,1.53,1.53,0,0,1,.479,1.116,1.53,1.53,0,0,1-.479,1.116,1.53,1.53,0,0,1-1.117.479H18.27a.205.205,0,0,0-.232.232v4.263a.205.205,0,0,0,.232.232h7.917a1.587,1.587,0,0,1,1.16.493,1.587,1.587,0,0,1,.493,1.16,1.54,1.54,0,0,1-.493,1.146,1.611,1.611,0,0,1-1.16.478H18.27q-.232,0-.232.261V1.073a1.54,1.54,0,0,1-.493,1.146,1.611,1.611,0,0,1-1.16.478h-.667a1.611,1.611,0,0,1-1.16-.478,1.54,1.54,0,0,1-.493-1.146V-2.552a.231.231,0,0,0-.261-.261ZM9.8-10.585v4.263q0,.232.261.232H13.8q.261,0,.261-.232v-4.263q0-.232-.261-.232H10.063Q9.8-10.817,9.8-10.585ZM32.393,2.552a1.611,1.611,0,0,1-1.16-.479A1.54,1.54,0,0,1,30.74.928V-21.46a1.587,1.587,0,0,1,.493-1.16,1.587,1.587,0,0,1,1.16-.493h8.584a1.587,1.587,0,0,1,1.16.493,1.587,1.587,0,0,1,.493,1.16V-13.4a1.587,1.587,0,0,1-.493,1.16,1.587,1.587,0,0,1-1.16.493H34.713a.231.231,0,0,0-.261.261V.928a1.563,1.563,0,0,1-.479,1.146,1.563,1.563,0,0,1-1.146.479Zm2.059-22.475v1.189a.231.231,0,0,0,.261.261H39.15q.232,0,.232-.261v-1.189q0-.261-.232-.261H34.713A.231.231,0,0,0,34.452-19.923Zm0,4.147v1.189a.231.231,0,0,0,.261.261H39.15q.232,0,.232-.261v-1.189a.205.205,0,0,0-.232-.232H34.713Q34.452-16.008,34.452-15.776Zm20.155-7.337a1.587,1.587,0,0,1,1.16.493,1.587,1.587,0,0,1,.493,1.16v19.2q0,1.189-.044,1.871A5.333,5.333,0,0,1,55.985.885a2.119,2.119,0,0,1-.45.855,2.11,2.11,0,0,1-.826.45,4.86,4.86,0,0,1-1.218.232q-.653.043-1.784.043-1.218,0-2.291-.058A1.62,1.62,0,0,1,48.285,1.9,1.855,1.855,0,0,1,47.763.725V.638a.205.205,0,0,0-.232-.232H40.658q-.145,0-.145.174a1.041,1.041,0,0,1-.333.783,1.113,1.113,0,0,1-.8.319H38.8A1.563,1.563,0,0,1,37.657,1.2,1.563,1.563,0,0,1,37.178.058V-8.613a1.563,1.563,0,0,1,.479-1.145,1.563,1.563,0,0,1,1.146-.479h9.4a1.563,1.563,0,0,1,1.146.479,1.563,1.563,0,0,1,.479,1.145V-.986q-.058.232.174.232.493.029,1.1.029a2.337,2.337,0,0,0,1.247-.188q.2-.189.2-1.175v-9.4a.231.231,0,0,0-.261-.261H45.733a1.587,1.587,0,0,1-1.16-.493,1.587,1.587,0,0,1-.493-1.16V-21.46a1.587,1.587,0,0,1,.493-1.16,1.587,1.587,0,0,1,1.16-.493ZM46.487-2.378V-3.451q0-.261-.232-.261h-5.51q-.232,0-.232.261v1.073q0,.261.232.261h5.51Q46.487-2.117,46.487-2.378Zm0-4v-.986q0-.261-.232-.261h-5.51q-.232,0-.232.261v.986a.205.205,0,0,0,.232.232h5.51A.205.205,0,0,0,46.487-6.38Zm6.061-8.207v-1.189q0-.232-.261-.232H47.56a.205.205,0,0,0-.232.232v1.189q0,.261.232.261h4.727A.231.231,0,0,0,52.548-14.587Zm0-4.147v-1.189a.231.231,0,0,0-.261-.261H47.56q-.232,0-.232.261v1.189q0,.261.232.261h4.727A.231.231,0,0,0,52.548-18.734ZM60.233-3.625l-.348-.667a2.687,2.687,0,0,1,.145-2.813,27.64,27.64,0,0,0,3.451-7.946q.058-.232-.2-.232H61.915a1.611,1.611,0,0,1-1.16-.479,1.54,1.54,0,0,1-.493-1.145,1.587,1.587,0,0,1,.493-1.16,1.587,1.587,0,0,1,1.16-.493h1.972a.231.231,0,0,0,.261-.261v-3.132a1.563,1.563,0,0,1,.479-1.146,1.563,1.563,0,0,1,1.146-.479h.406a1.563,1.563,0,0,1,1.146.479,1.563,1.563,0,0,1,.479,1.146v3.132a.231.231,0,0,0,.261.261h.957a1.587,1.587,0,0,1,1.16.493,1.587,1.587,0,0,1,.493,1.16,1.54,1.54,0,0,1-.493,1.145,1.611,1.611,0,0,1-1.16.479h-.435a.139.139,0,0,0-.131.087.115.115,0,0,0,.015.145q.986,1.653,2.929,5.1a.118.118,0,0,0,.087.029q.058,0,.058-.029V-21.17a1.611,1.611,0,0,1,.479-1.16,1.54,1.54,0,0,1,1.146-.493h11.02a1.587,1.587,0,0,1,1.16.493,1.587,1.587,0,0,1,.493,1.16V.783a1.54,1.54,0,0,1-.493,1.146,1.611,1.611,0,0,1-1.16.479h-.928a1.146,1.146,0,0,1-.841-.348,1.113,1.113,0,0,1-.348-.812.154.154,0,0,0-.174-.174H75.371a.154.154,0,0,0-.174.174,1.1,1.1,0,0,1-.348.827,1.137,1.137,0,0,1-.812.333h-.87a1.563,1.563,0,0,1-1.146-.479A1.563,1.563,0,0,1,71.543.783V-7.569a.051.051,0,0,0-.058-.058A.118.118,0,0,0,71.4-7.6a1.66,1.66,0,0,1-.29.319,1.187,1.187,0,0,1-1.059.29,1.142,1.142,0,0,1-.855-.667q-.609-1.276-1.276-2.552a.066.066,0,0,0-.073-.014.067.067,0,0,0-.043.073V1.073a1.563,1.563,0,0,1-.479,1.146,1.563,1.563,0,0,1-1.146.478h-.406a1.563,1.563,0,0,1-1.146-.478,1.563,1.563,0,0,1-.479-1.146v-9.4q-.029-.029-.087.029a24.106,24.106,0,0,1-2.175,4.756.873.873,0,0,1-.841.435A.92.92,0,0,1,60.233-3.625ZM75.2-19.43v3.364a.231.231,0,0,0,.261.261h6.351a.231.231,0,0,0,.261-.261V-19.43q0-.232-.261-.232H75.458Q75.2-19.662,75.2-19.43Zm0,6.931v3.364q0,.232.261.232h6.351q.261,0,.261-.232V-12.5a.231.231,0,0,0-.261-.261H75.458A.231.231,0,0,0,75.2-12.5Zm0,6.9v3.364a.231.231,0,0,0,.261.261h6.351a.231.231,0,0,0,.261-.261V-5.6a.231.231,0,0,0-.261-.261H75.458A.231.231,0,0,0,75.2-5.6Zm39.121-4.466a.793.793,0,0,1,.493.391.712.712,0,0,1,.058.624,24.471,24.471,0,0,1-1.392,3.509,1.579,1.579,0,0,1-.972.87,1.825,1.825,0,0,1-1.319-.029l-.058-.029a1.347,1.347,0,0,1-.826-.856,1.422,1.422,0,0,1,.1-1.2,24.778,24.778,0,0,0,1.392-3.451.289.289,0,0,0-.145-.377,12.413,12.413,0,0,1-4.611-4.205q-.145-.2-.261-.029a12.488,12.488,0,0,1-5.336,4.553.07.07,0,0,0-.044.087.13.13,0,0,0,.073.087l.812.174a1.548,1.548,0,0,1,1.03.74,1.434,1.434,0,0,1,.16,1.233,29.428,29.428,0,0,1-1.044,2.813,1.639,1.639,0,0,1-.913.885,1.8,1.8,0,0,1-1.291.015,1.3,1.3,0,0,1-.841-.826,1.529,1.529,0,0,1,.029-1.2A21.649,21.649,0,0,0,100.6-9.831q0-.087-.087-.058a.842.842,0,0,1-.667-.043.842.842,0,0,1-.435-.507l-.319-.957a1.728,1.728,0,0,1,.072-1.262,1.641,1.641,0,0,1,.914-.884,8.039,8.039,0,0,0,3.741-2.842,8.31,8.31,0,0,0,1.1-4.553v-.9a1.587,1.587,0,0,1,.493-1.16,1.587,1.587,0,0,1,1.16-.493h.377a1.587,1.587,0,0,1,1.16.493,1.587,1.587,0,0,1,.493,1.16v.9a8.077,8.077,0,0,0,1.146,4.539,8.44,8.44,0,0,0,3.871,2.885,1.706,1.706,0,0,1,.928.87,1.644,1.644,0,0,1,.087,1.247l-.406,1.189Q114.2-10.121,114.318-10.063Zm-13.659-6.293a1.3,1.3,0,0,1-.841-.812,1.5,1.5,0,0,1,.029-1.189,24.951,24.951,0,0,0,.9-2.494,1.667,1.667,0,0,1,.783-.972,1.637,1.637,0,0,1,1.218-.188,1.5,1.5,0,0,1,1.015.74,1.463,1.463,0,0,1,.145,1.233,29.427,29.427,0,0,1-1.044,2.813,1.584,1.584,0,0,1-.913.87A1.852,1.852,0,0,1,100.659-16.356Zm10.324-.435a1.348,1.348,0,0,1-.826-.87,1.381,1.381,0,0,1,.1-1.189,18.743,18.743,0,0,0,1.044-2.378,1.777,1.777,0,0,1,.826-.972,1.581,1.581,0,0,1,1.232-.16,1.5,1.5,0,0,1,.986.768,1.528,1.528,0,0,1,.116,1.233,25.727,25.727,0,0,1-1.131,2.726,1.579,1.579,0,0,1-.971.87,1.825,1.825,0,0,1-1.32-.029ZM106.952-11.8a1.587,1.587,0,0,1,1.16.493,1.587,1.587,0,0,1,.493,1.16V-8.7a7.867,7.867,0,0,0,1.174,4.51,8.635,8.635,0,0,0,3.958,2.886,1.757,1.757,0,0,1,.942.885,1.643,1.643,0,0,1,.1,1.262l-.087.2a1.646,1.646,0,0,1-.841.972,1.322,1.322,0,0,1-1.218.014,12.22,12.22,0,0,1-5.568-4.64q-.145-.2-.261-.029a12.2,12.2,0,0,1-5.568,4.669,1.322,1.322,0,0,1-1.218-.014,1.646,1.646,0,0,1-.841-.972l-.087-.2a1.728,1.728,0,0,1,.072-1.262,1.641,1.641,0,0,1,.914-.885,8.039,8.039,0,0,0,3.741-2.842,8.31,8.31,0,0,0,1.1-4.553v-1.45a1.587,1.587,0,0,1,.493-1.16,1.587,1.587,0,0,1,1.16-.493ZM90.19-19.836a1.377,1.377,0,0,1-1.03-.435,1.449,1.449,0,0,1-.421-1.044,1.4,1.4,0,0,1,.421-1.03,1.4,1.4,0,0,1,1.03-.42h6.554a1.449,1.449,0,0,1,1.044.42,1.377,1.377,0,0,1,.435,1.03,1.424,1.424,0,0,1-.435,1.044,1.424,1.424,0,0,1-1.044.435Zm-.667,4.35a1.492,1.492,0,0,1-1.117-.464,1.53,1.53,0,0,1-.45-1.1,1.53,1.53,0,0,1,.45-1.1,1.492,1.492,0,0,1,1.117-.464h7.8a1.506,1.506,0,0,1,1.1.464,1.505,1.505,0,0,1,.464,1.1,1.505,1.505,0,0,1-.464,1.1,1.505,1.505,0,0,1-1.1.464Zm.87,4.118a1.366,1.366,0,0,1-1-.42,1.366,1.366,0,0,1-.421-1,1.366,1.366,0,0,1,.421-1,1.366,1.366,0,0,1,1-.42h6.351a1.366,1.366,0,0,1,1,.42,1.366,1.366,0,0,1,.421,1,1.366,1.366,0,0,1-.421,1,1.366,1.366,0,0,1-1,.42Zm0,4.089a1.366,1.366,0,0,1-1-.42,1.366,1.366,0,0,1-.421-1,1.319,1.319,0,0,1,.421-.986,1.391,1.391,0,0,1,1-.406h6.351a1.391,1.391,0,0,1,1,.406,1.319,1.319,0,0,1,.421.986,1.366,1.366,0,0,1-.421,1,1.366,1.366,0,0,1-1,.42Zm-1.653,8.5V-4.35a1.587,1.587,0,0,1,.493-1.16A1.587,1.587,0,0,1,90.393-6h6.264a1.587,1.587,0,0,1,1.16.493,1.587,1.587,0,0,1,.493,1.16v4.5a1.587,1.587,0,0,1-.493,1.16,1.587,1.587,0,0,1-1.16.493h-4.35q-.145,0-.145.116a.893.893,0,0,1-.928.928h-.841a1.611,1.611,0,0,1-1.16-.479A1.54,1.54,0,0,1,88.74,1.218Zm3.422-4.176v1.711a.231.231,0,0,0,.261.261h2.494a.231.231,0,0,0,.261-.261V-2.958a.231.231,0,0,0-.261-.261H92.423A.231.231,0,0,0,92.162-2.958ZM119.1-4.93a1.492,1.492,0,0,1-1.116-.464,1.53,1.53,0,0,1-.45-1.1,1.53,1.53,0,0,1,.45-1.1,1.492,1.492,0,0,1,1.116-.464h9.164q.261,0,.261-.232v-1.16q0-.232-.261-.232H121.8a1.4,1.4,0,0,1-1.03-.42,1.4,1.4,0,0,1-.421-1.029,1.4,1.4,0,0,1,.421-1.03,1.4,1.4,0,0,1,1.03-.42h6.467a.231.231,0,0,0,.261-.261v-1.044a.231.231,0,0,0-.261-.261h-6.554a1.611,1.611,0,0,1-1.16-.478,1.54,1.54,0,0,1-.493-1.146v-.174q0-.232-.261-.232h-.232a1.54,1.54,0,0,1-1.146-.493,1.611,1.611,0,0,1-.479-1.16v-2.378a1.563,1.563,0,0,1,.479-1.146,1.563,1.563,0,0,1,1.146-.478h8.7a.231.231,0,0,0,.261-.261v-.232a1.611,1.611,0,0,1,.479-1.16,1.54,1.54,0,0,1,1.146-.493h.7a1.54,1.54,0,0,1,1.145.493,1.611,1.611,0,0,1,.479,1.16v.232a.231.231,0,0,0,.261.261h8.7a1.563,1.563,0,0,1,1.146.478,1.563,1.563,0,0,1,.479,1.146v2.378a1.611,1.611,0,0,1-.479,1.16,1.54,1.54,0,0,1-1.146.493h-.261a.205.205,0,0,0-.232.232v.174a1.54,1.54,0,0,1-.493,1.146,1.611,1.611,0,0,1-1.16.478h-6.554a.231.231,0,0,0-.261.261v1.044a.231.231,0,0,0,.261.261H139.2a1.4,1.4,0,0,1,1.03.42,1.4,1.4,0,0,1,.42,1.03,1.4,1.4,0,0,1-.42,1.029,1.4,1.4,0,0,1-1.03.42h-6.467q-.261,0-.261.232v1.16q0,.232.261.232H141.9a1.492,1.492,0,0,1,1.117.464,1.53,1.53,0,0,1,.449,1.1,1.53,1.53,0,0,1-.449,1.1,1.492,1.492,0,0,1-1.117.464h-8.381q-.232,0-.087.2,2.117,2.494,8.439,3.654a1.285,1.285,0,0,1,.943.667,1.262,1.262,0,0,1,.072,1.131l-.116.261A1.937,1.937,0,0,1,141.883,2a1.746,1.746,0,0,1-1.32.174,24,24,0,0,1-5.67-2.1,14.835,14.835,0,0,1-4.045-3,.211.211,0,0,0-.319,0Q127.02.725,120.437,2.2a1.851,1.851,0,0,1-1.319-.2,1.937,1.937,0,0,1-.884-1.015l-.116-.261A1.235,1.235,0,0,1,118.2-.406a1.315,1.315,0,0,1,.928-.667q6.264-1.16,8.439-3.654.145-.2-.087-.2Zm13.369-13.6v1.16q0,.232.261.232h6.5q.261,0,.261-.232v-1.16a.231.231,0,0,0-.261-.261h-6.5A.231.231,0,0,0,132.472-18.531Zm-4.205,1.392q.261,0,.261-.232v-1.16a.231.231,0,0,0-.261-.261h-6.525q-.232,0-.232.261v1.16a.205.205,0,0,0,.232.232Zm43.993,1.16a1.17,1.17,0,0,1,.855.363,1.17,1.17,0,0,1,.362.856,1.17,1.17,0,0,1-.362.855,1.17,1.17,0,0,1-.855.363h-15.2a1.219,1.219,0,0,1-.551-.116.123.123,0,0,0-.116,0,.057.057,0,0,0-.029.087q.087.348.247,1.029t.246.972q0,.029.044.029a.1.1,0,0,0,.073-.029,1.588,1.588,0,0,1,.58-.856,1.578,1.578,0,0,1,.986-.334H170.81a1.587,1.587,0,0,1,1.16.493,1.587,1.587,0,0,1,.493,1.16v7.54a1.54,1.54,0,0,1-.493,1.145,1.611,1.611,0,0,1-1.16.479h-2.494q-.029.029,0,.087Q170.4-1.1,172.347-.2a1.41,1.41,0,0,1,.754.841,1.365,1.365,0,0,1-.087,1.131,1.31,1.31,0,0,1-.841.725,1.53,1.53,0,0,1-1.131-.087q-2.059-.986-4.379-1.827a1.489,1.489,0,0,1-.9-.841,1.486,1.486,0,0,1,0-1.218l.087-.232q.116-.232-.145-.232h-2.929a.139.139,0,0,0-.131.087.115.115,0,0,0,.014.145l.029.029a1.79,1.79,0,0,1,.13,1.32,1.545,1.545,0,0,1-.8,1,28.819,28.819,0,0,1-4.7,1.914,1.57,1.57,0,0,1-1.914-.928,1.2,1.2,0,0,1,0-1.03,1.226,1.226,0,0,1,.783-.682,35.614,35.614,0,0,0,4.379-1.74A.1.1,0,0,0,160.6-1.9q0-.043-.058-.043h-2a1.611,1.611,0,0,1-1.16-.479,1.54,1.54,0,0,1-.493-1.145V-8.091a.142.142,0,0,0-.072-.13.1.1,0,0,0-.131.014,1.122,1.122,0,0,1-.319.116L155.991-8a.824.824,0,0,1-.624-.13.884.884,0,0,1-.362-.536.2.2,0,0,0-.174-.087l-1.392.087a.231.231,0,0,0-.261.261V1.073a1.563,1.563,0,0,1-.479,1.146,1.563,1.563,0,0,1-1.145.478h-.29a1.611,1.611,0,0,1-1.16-.478,1.54,1.54,0,0,1-.493-1.146V-8.149a.205.205,0,0,0-.232-.232l-1.653.116a1.484,1.484,0,0,1-1.174-.406,1.573,1.573,0,0,1-.536-1.131V-9.86a1.547,1.547,0,0,1,.449-1.189,1.765,1.765,0,0,1,1.146-.551l.348-.029a.454.454,0,0,0,.406-.232q.087-.116.232-.333a3.44,3.44,0,0,0,.2-.333.32.32,0,0,0,0-.406q-1.3-1.885-2.2-3.161a2.684,2.684,0,0,1-.261-2.813l.261-.609a.771.771,0,0,1,.71-.493.861.861,0,0,1,.8.377.121.121,0,0,0,.116.044.13.13,0,0,0,.087-.073q.667-1.392,1.218-2.784a1.549,1.549,0,0,1,.826-.885,1.647,1.647,0,0,1,1.233-.073,1.5,1.5,0,0,1,.87.827,1.387,1.387,0,0,1,0,1.174q-.986,2.32-2.175,4.524a.407.407,0,0,0,0,.464,4.635,4.635,0,0,0,.319.464.17.17,0,0,0,.145.087.17.17,0,0,0,.145-.087q1.131-1.972,1.943-3.48a1.735,1.735,0,0,1,.928-.812,1.567,1.567,0,0,1,1.218.029,1.4,1.4,0,0,1,.783.856,1.4,1.4,0,0,1-.087,1.146q-.754,1.392-1.711,3.016-.029.116.116.145l.174-.029a1.481,1.481,0,0,1,1.392.232.138.138,0,0,0,.13.043q.073-.015.073-.073a1.24,1.24,0,0,1,.406-.783,1.164,1.164,0,0,1,.812-.319h5.249q.232,0,.232-.261v-.29a.205.205,0,0,0-.232-.232h-4.321a1.007,1.007,0,0,1-.74-.3,1.007,1.007,0,0,1-.3-.739,1.007,1.007,0,0,1,.3-.74,1.007,1.007,0,0,1,.74-.3h4.321q.232,0,.232-.261v-.29q0-.261-.232-.261h-4.64a1.261,1.261,0,0,1-.928-.377,1.261,1.261,0,0,1-.377-.928,1.261,1.261,0,0,1,.377-.928,1.261,1.261,0,0,1,.928-.377h4.669a.179.179,0,0,0,.2-.2,1.319,1.319,0,0,1,.421-.986,1.391,1.391,0,0,1,1-.406H165.1a1.391,1.391,0,0,1,1,.406,1.319,1.319,0,0,1,.421.986.179.179,0,0,0,.2.2h4.959a1.261,1.261,0,0,1,.928.377,1.261,1.261,0,0,1,.377.928,1.261,1.261,0,0,1-.377.928,1.261,1.261,0,0,1-.928.377h-4.9a.231.231,0,0,0-.261.261v.29a.231.231,0,0,0,.261.261h4.495a1.007,1.007,0,0,1,.74.3,1.007,1.007,0,0,1,.3.74,1.007,1.007,0,0,1-.3.739,1.007,1.007,0,0,1-.74.3h-4.495q-.261,0-.261.232v.29a.231.231,0,0,0,.261.261Zm-18.3,4q.232,0,.174-.232-.29-1.218-.522-2.059a.1.1,0,0,0-.1-.058.1.1,0,0,0-.1.058q-.87,1.45-1.334,2.175-.145.232.087.232Zm6.757,1.74v.29q0,.232.261.232h7.308q.261,0,.261-.232v-.29a.231.231,0,0,0-.261-.261h-7.308A.231.231,0,0,0,160.718-10.237Zm0,2.7v.29a.231.231,0,0,0,.261.261h7.308a.231.231,0,0,0,.261-.261v-.29q0-.232-.261-.232h-7.308Q160.718-7.772,160.718-7.54Zm0,2.726v.29q0,.232.261.232h7.308q.261,0,.261-.232v-.29a.231.231,0,0,0-.261-.261h-7.308A.231.231,0,0,0,160.718-4.814ZM147.857.885a1.208,1.208,0,0,1-.943.218,1.231,1.231,0,0,1-.827-.508,1.208,1.208,0,0,1-.217-.942q.464-3.016.667-5.568a1.237,1.237,0,0,1,.435-.841,1.234,1.234,0,0,1,.9-.29,1.267,1.267,0,0,1,.855.45,1.252,1.252,0,0,1,.3.913q-.2,2.784-.667,5.742A1.231,1.231,0,0,1,147.857.885Zm7.525-1.291a1.145,1.145,0,0,1-.855-.29,1.237,1.237,0,0,1-.421-.812q-.116-1.914-.377-4.466a1.167,1.167,0,0,1,.246-.885,1.122,1.122,0,0,1,.769-.449,1.153,1.153,0,0,1,.87.232,1.088,1.088,0,0,1,.435.754q.29,2.436.464,4.582a1.211,1.211,0,0,1-.3.884A1.245,1.245,0,0,1,155.382-.406Z" transform="translate(5.203 31.495)" fill="#1a1311"/>
      <path id="パス_80030" data-name="パス 80030" d="M5.852,0H13.2V-35.64H7.436c-1.188,1.232-5.192,3.3-6.468,3.96v5.456c1.364-.7,3.608-1.452,4.884-2.156ZM29.216.66c6.336,0,9.68-4.224,9.68-10.208V-25.7c0-6.248-3.036-10.472-9.68-10.472-6.688,0-9.724,4.224-9.724,10.472V-9.548C19.492-3.476,22.792.66,29.216.66Zm0-6.556c-2.024,0-2.2-2.464-2.2-3.828v-15.8c0-1.452-.044-4.092,2.2-4.092,2.2,0,2.2,2.64,2.2,4.092v15.8C31.416-8.36,31.284-5.9,29.216-5.9ZM44.308,6.16c3.784-.308,5.676-2.728,5.72-7.084V-6.776h-6.82V0h3.784a3.636,3.636,0,0,1-3.124,3.828ZM63.888.66c6.336,0,9.68-4.224,9.68-10.208V-25.7c0-6.248-3.036-10.472-9.68-10.472-6.688,0-9.724,4.224-9.724,10.472V-9.548C54.164-3.476,57.464.66,63.888.66Zm0-6.556c-2.024,0-2.2-2.464-2.2-3.828v-15.8c0-1.452-.044-4.092,2.2-4.092,2.2,0,2.2,2.64,2.2,4.092v15.8C66.088-8.36,65.956-5.9,63.888-5.9ZM88.088.66c6.336,0,9.68-4.224,9.68-10.208V-25.7c0-6.248-3.036-10.472-9.68-10.472-6.688,0-9.724,4.224-9.724,10.472V-9.548C78.364-3.476,81.664.66,88.088.66Zm0-6.556c-2.024,0-2.2-2.464-2.2-3.828v-15.8c0-1.452-.044-4.092,2.2-4.092,2.2,0,2.2,2.64,2.2,4.092v15.8C90.288-8.36,90.156-5.9,88.088-5.9ZM112.288.66c6.336,0,9.68-4.224,9.68-10.208V-25.7c0-6.248-3.036-10.472-9.68-10.472-6.688,0-9.724,4.224-9.724,10.472V-9.548C102.564-3.476,105.864.66,112.288.66Zm0-6.556c-2.024,0-2.2-2.464-2.2-3.828v-15.8c0-1.452-.044-4.092,2.2-4.092,2.2,0,2.2,2.64,2.2,4.092v15.8C114.488-8.36,114.356-5.9,112.288-5.9Z" transform="translate(5.203 93.495)" fill="#1a1311"/>
      <path id="パス_80029" data-name="パス 80029" d="M15.136,2.046a1.222,1.222,0,0,1-.88-.363,1.169,1.169,0,0,1-.374-.869v-5.5q0-.2-.176-.2H8.162a1.186,1.186,0,0,1-.869-.363,1.186,1.186,0,0,1-.363-.869A1.222,1.222,0,0,1,7.293-7a1.169,1.169,0,0,1,.869-.374h5.544q.176,0,.176-.2v-4.6q0-.2-.176-.2H11.44a1.194,1.194,0,0,1-.88-.352q-.11-.11-.2.044A33.166,33.166,0,0,1,8.47-9.108a1.155,1.155,0,0,1-.792.55,1.182,1.182,0,0,1-.946-.176L6.6-8.822a1.245,1.245,0,0,1-.528-.792,1.257,1.257,0,0,1,.154-.946A35.778,35.778,0,0,0,9.2-16.676a1.327,1.327,0,0,1,.649-.759,1.39,1.39,0,0,1,.979-.143l.11.022a1.088,1.088,0,0,1,.748.528,1.075,1.075,0,0,1,.088.9q-.132.4-.44,1.188-.044.154.132.154h2.244a.156.156,0,0,0,.176-.176v-1.694a1.169,1.169,0,0,1,.374-.869,1.222,1.222,0,0,1,.88-.363h.44a1.222,1.222,0,0,1,.88.363,1.169,1.169,0,0,1,.374.869v1.694a.156.156,0,0,0,.176.176H19.8a1.179,1.179,0,0,1,.847.352,1.15,1.15,0,0,1,.363.858,1.15,1.15,0,0,1-.363.858,1.179,1.179,0,0,1-.847.352H17.006q-.176,0-.176.2v4.6q0,.2.176.2H20.35A1.169,1.169,0,0,1,21.219-7a1.222,1.222,0,0,1,.363.88,1.186,1.186,0,0,1-.363.869,1.186,1.186,0,0,1-.869.363H17.006q-.176,0-.176.2v5.5a1.169,1.169,0,0,1-.374.869,1.222,1.222,0,0,1-.88.363ZM1.3-6.666l-.264-.7a2.307,2.307,0,0,1,.33-2.178,21.066,21.066,0,0,0,3.168-7.216,1.262,1.262,0,0,1,.55-.8,1.251,1.251,0,0,1,.946-.209l.2.022a1.191,1.191,0,0,1,.8.517,1.218,1.218,0,0,1,.209.935,26.307,26.307,0,0,1-1.232,4.136.948.948,0,0,0-.066.374V.814a1.169,1.169,0,0,1-.374.869,1.222,1.222,0,0,1-.88.363h-.33a1.222,1.222,0,0,1-.88-.363A1.169,1.169,0,0,1,3.1.814V-7.3q0-.044-.033-.044a.075.075,0,0,0-.055.022q-.088.154-.55.836a.614.614,0,0,1-.638.264A.633.633,0,0,1,1.3-6.666ZM26.048-4.84a1.248,1.248,0,0,1-.9-.363,1.272,1.272,0,0,1-.4-.891l-.33-8.712a1.163,1.163,0,0,1,.33-.88,1.134,1.134,0,0,1,.858-.374H26.8a1.134,1.134,0,0,1,.858.374,1.163,1.163,0,0,1,.33.88l-.33,8.712a1.272,1.272,0,0,1-.4.891,1.248,1.248,0,0,1-.9.363Zm.528,1.76a1.169,1.169,0,0,1,.869.374,1.222,1.222,0,0,1,.363.88v.572a1.222,1.222,0,0,1-.363.88A1.169,1.169,0,0,1,26.576,0h-.748a1.169,1.169,0,0,1-.869-.374,1.222,1.222,0,0,1-.363-.88v-.572a1.222,1.222,0,0,1,.363-.88,1.169,1.169,0,0,1,.869-.374Z" transform="translate(134.203 95.495)" fill="#1a1311"/>
    </g>
    <g id="マスクグループ_54" data-name="マスクグループ 54" transform="translate(874.636 98.184)" clip-path="url(#clip-path)">
      <g id="グループ_7048" data-name="グループ 7048" transform="translate(-9.457 -27.563)">
        <g id="グループ_7047" data-name="グループ 7047" transform="translate(0 0)">
          <path id="パス_77577" data-name="パス 77577" d="M401.611,821.345c-1.164,6.937-17.384,18.246-22.075,19.663-15.334,4.631-14.707-9.943-13.541-16.88a80.233,80.233,0,0,1,2.782-7.978c2.76-6.171,8.77-10.108,13.728-9.275C388.4,807.866,402.775,814.41,401.611,821.345Z" transform="translate(-365.461 -615.338)" fill="#edbf98"/>
          <path id="パス_77578" data-name="パス 77578" d="M558.848,182.886C560,174.61,562.6,166.9,568.7,160.235c4.642-5.065,9.5-10.555,16.021-13.2,14.138-5.737,29.786-2.742,42.46,5.1,6.586,4.076,10.093,9.431,11.546,17.006,1.724,8.977,1.493,18.076,1.111,27.162-.341,8.092-1.409,16.059-2.444,24.049a83.8,83.8,0,0,0,.339,21.541c.992,6.826,2.7,13.286,2.469,20.308-.169,5.205-2.322,11.249-6.509,14.546a15.276,15.276,0,0,1-6.3,3.059c-2.23.473-4.778-.215-6.9.309a2.726,2.726,0,0,0,2.238-1.832c-1.221-1.04-2.612.328-3.919.684a5.122,5.122,0,0,0,3.219-5.424,28.22,28.22,0,0,1-7.645,3.9c-4.148,1.451-8.4,2.521-12.585,3.854-.7.226-1.777,1-2.364,1.149-9.211,2.343-19.4-2.356-26.2-8.115-3.434-2.909-2.867-5.47-3.533-9.346-4.082,3.564-3.806,5.55-2.292,9.914a.478.478,0,0,0-.578.075A4.137,4.137,0,0,0,571,276.64c-4.069,2.174-9.617-1.577-11.983-4.89a34.6,34.6,0,0,1-5.693-12.456c-1.42-7.281.531-13.889,1.726-20.883a143.506,143.506,0,0,0,2.348-24.369c-.013-6.473.4-12.994.589-19.476A108.03,108.03,0,0,1,558.848,182.886Z" transform="translate(-498.702 -144.053)" fill="#4d3839"/>
          <path id="パス_77579" data-name="パス 77579" d="M641.082,1182.3l-2.255-42.683-96.395-1.247-2.206,44.269Z" transform="translate(-489.745 -851.159)" fill="#0d0002"/>
          <path id="パス_77580" data-name="パス 77580" d="M469.649,594.878c-.045.105-2.6.4-2.811.453-6.483,1.629-16.35,6.548-20.494,11.934a109.623,109.623,0,0,0-7.5,11.373c-5.367,9.04-12.258,17.305-18.376,25.863-2.141,3-5.337,6.951-6.516,10.524-1.64,4.972,2.583,9.6-1.491,13.478,3.345,2.612,8.065,2.545,11.452,5.037,2.392,1.761,4.5,5.037,6.288,7.324,1.927-1.126,1.83-3.191,3.108-4.262,1.944-1.628,4.623-1.662,6.77-2.846a16.712,16.712,0,0,0,5.432-5.353c3.134-4.455,4.809-9.73,7.064-14.639,2.292-4.99,3.781-10.283,5.53-15.479a230.867,230.867,0,0,0,6.57-22.975C466.268,608.226,466.809,601.562,469.649,594.878Z" transform="translate(-398.886 -464.655)" fill="#6e59a0"/>
          <path id="パス_77581" data-name="パス 77581" d="M660.855,485.724l19.44-.4s-1.234-.439-6.305-5.214-7.466-38.5-7.466-38.5H660.26v.065l0-.065h-6.266s-2.387,33.726-7.46,38.5l-5.075,4.776,18.209.839v.055l.6-.026.595.026Z" transform="translate(-561.733 -355.659)" fill="#edbf98"/>
          <path id="パス_77582" data-name="パス 77582" d="M629.206,731.823l-13.122-75.35s9.074-66.03,9.138-66.492c.031-.222-1.148-1.178-1.3-1.33l-3.182-3.257c-3.292-3.369-6.259-7.355-10.531-9.477-2.489-1.237-3.782-3.286-4.9-5.889-.862-2.008-2.858-4.849-5.261-5.068a14.307,14.307,0,0,0-3.094.27c-1.555.188-3.09.768-4.661.807a27.083,27.083,0,0,0-3.239.1c-3.089.432-6.188.227-9.3.35-5.31.209-10.5.648-15.8.156-2.214-.206-4.352-1.046-6.568-1.146-3.319-.15-3.792,2.521-4.448,4.945-1.343,4.984-5.568,7.526-9.353,10.619q-2.565,2.1-5.13,4.192a12.083,12.083,0,0,0-2.095,1.714l-6.981,9.453L543.043,665.1,532.81,730.576Z" transform="translate(-482.036 -443.363)" fill="#6e59a0"/>
          <path id="パス_77584" data-name="パス 77584" d="M741.4,1003.933l-48.375,35.216a7.093,7.093,0,0,1-2.559.7,13.255,13.255,0,0,1-2.227.192c-1.34,0-2.671-.19-4.01-.231a19.115,19.115,0,0,0-5.495.633,20.357,20.357,0,0,0-2.612.9c-.786.33-1.363.814-2.121,1.165a13.053,13.053,0,0,1-6.481,1.474c-1.814-.175-3.634-.417-5.448-.6-.615-.063-1.751-.323-1.984.414-.333,1.053,1.194,2.017,1.876,2.523a13.578,13.578,0,0,0,5.479,2.012,11.165,11.165,0,0,0,5.207.194c.023.245-.077.34-.167.578a31.072,31.072,0,0,1-1.5,3.367c-.3.579-.665,1.129-.964,1.709-.2.387-.34,1.019-.777,1.213-.457.2-1.453-1.508-1.786-1.791a4.086,4.086,0,0,0-2.4-1.232c.7,2.593-.287,6.781-1.1,9.324-.437,1.376-.947,3.346-.212,4.7,1.134,2.087,4.159,1.253,5.8.35-.321.176-.746,1.656-.87,2.025a1.959,1.959,0,0,0,.229,2.1c.959,1.1,3.537.555,4.51-.285-.26,1.007-2.131,4.28-1.04,4.988.6.389,2.156-.147,3.256-.708a5.714,5.714,0,0,0,1.006-.621c-.063.067-.147.2-.231.294.693,1.457,2.8,2.959,4.473,2.628,2.379-.471,5.014-3.991,6.172-5.981,1.542-2.651,2.867-5.361,4.527-7.939.956-1.486,8.563-15.85,8.563-15.85l48.595-31.089Zm-60.258,69.723c-.776.449-2.2-.155-3.062-.261.6-1.236,2.505-2.948,3.988-2.913C682.167,1071.443,682.107,1073.093,681.139,1073.656Z" transform="translate(-574.949 -755.553)" fill="#ec8275"/>
          <path id="パス_77585" data-name="パス 77585" d="M897.328,917.74l6.728,31.2,16.355-1.368-6.31-31.8Z" transform="translate(-743.696 -692.861)" fill="#edbf98"/>
          <path id="パス_77586" data-name="パス 77586" d="M935.92,1002.812a8.6,8.6,0,0,1-8.609,8.823c-5.322,0-8.178-4.785-8.178-9.254s1.859-8.134,7.18-8.134S935.92,998.342,935.92,1002.812Z" transform="translate(-759.203 -748.665)" fill="#ec8275"/>
          <path id="パス_77587" data-name="パス 77587" d="M802.447,601.026s10.063,0,23.5,23.385a43.1,43.1,0,0,0,3.648,5.57c4.4,5.523,7.444,11.853,10.867,18,4.785,8.6,10.2,17.383,10.982,27.415a46.549,46.549,0,0,1-.171,8.852c-.4,3.274-3.133,5.917-2.706,9.371.215,1.737.966,2.964.95,4.837-1.791.921-5.153,1.19-7.192,1.415a78.614,78.614,0,0,1-9.372.489c-.73-.007-2.266.241-2.8-.414-1.5-1.85.571-4.221-1.6-5.871-2.2-1.675-5.3-1.209-7.22-3.545-1.88-2.292-2.134-5.633-2.78-8.414-1.164-5.006-2.1-10.091-3.018-15.161a73.413,73.413,0,0,0-2.207-9.2c-.74-2.337-1.9-4.354-1.763-6.854a22.692,22.692,0,0,0,.111-4.3C809.834,631.573,804.725,616,802.447,601.026Z" transform="translate(-676.222 -469.027)" fill="#6e59a0"/>
          <path id="パス_77588" data-name="パス 77588" d="M675.917,1187.4a.667.667,0,0,1-.528-1.077l3.405-4.377a.667.667,0,1,1,1.053.819l-3.4,4.376A.667.667,0,0,1,675.917,1187.4Z" transform="translate(-585.766 -881.961)" fill="#cb6362"/>
          <path id="パス_77589" data-name="パス 77589" d="M691.052,1214a.667.667,0,0,1-.47-1.141l2.274-2.264a.668.668,0,1,1,.942.947l-2.274,2.264A.672.672,0,0,1,691.052,1214Z" transform="translate(-596.53 -902.379)" fill="#cb6362"/>
          <path id="パス_77590" data-name="パス 77590" d="M705.33,1227.228a.667.667,0,0,1-.471-1.14l2.274-2.264a.668.668,0,0,1,.943.947l-2.275,2.263A.663.663,0,0,1,705.33,1227.228Z" transform="translate(-606.683 -911.789)" fill="#cb6362"/>
          <path id="パス_77591" data-name="パス 77591" d="M547.935,715.824a1,1,0,0,1-.976-.785l-.4-1.793a1.008,1.008,0,0,1,.02-.506l9.118-30.317a1,1,0,1,1,1.917.578l-9.043,30.066.342,1.539a1,1,0,0,1-.76,1.193A.975.975,0,0,1,547.935,715.824Z" transform="translate(-494.232 -526.405)" fill="#514177"/>
          <path id="パス_77592" data-name="パス 77592" d="M836.353,736.481a1,1,0,0,1-.994-.9c-.076-.7-1.83-17.28-1.132-21.469a1,1,0,1,1,1.975.329c-.655,3.922,1.13,20.759,1.147,20.929a1,1,0,0,1-.888,1.1C836.424,736.478,836.389,736.481,836.353,736.481Z" transform="translate(-698.706 -548.856)" fill="#514177"/>
        </g>
        <path id="パス_77593" data-name="パス 77593" d="M523.313,404.629a3.035,3.035,0,0,0,.22.3c4.751,5.733,11.2-4.936,11.335-8.8.121-3.454-1.1-6.753-1.158-10.186-.083-4.73-.351-9.708.429-14.39.233-1.447,1.043-2.749,1.294-4.136.378-2.127-1.917-1.822-3.139-.721-2.235,2-3.11,4.8-4.069,7.618a55.548,55.548,0,0,0-2.632-5.485c-.705-1.264-2.356-3.208-2.622-4.587-.063-.34.192-.986.163-1.4a11.137,11.137,0,0,0-1.1-3.029c-.632-1.453-1.255-3.169-2.829-2.075-2.33,1.616-3.469,6.371-4.248,9.011-.9,3.085-1.772,6.927-1.047,10.149.785,3.473,2.8,6.627,3.838,10.058.894,2.948,2.495,5.259,3.473,8.1a37.878,37.878,0,0,1,.885,5.135C522.376,401.555,522.532,403.422,523.313,404.629Z" transform="translate(-470.839 -295.766)" fill="#edbf98"/>
        <path id="パス_77594" data-name="パス 77594" d="M541.026,288.379l-1.966,31.007.522,1.526s9.371,16.18,9.9,16.152a3.15,3.15,0,0,0,1.305-.739l3.248-39.586-10.214-10.291-2.23.522Z" transform="translate(-488.915 -245.317)" fill="#b4b6c8"/>
        <path id="パス_77595" data-name="パス 77595" d="M546.922,287.408l-1.528,31.277.519,1.519s8.934,15.911,9.453,15.884a3.141,3.141,0,0,0,1.314-.736l2.208-38.728-10.461-10.169Z" transform="translate(-493.42 -245.322)" fill="#dcdce2"/>
        <path id="パス_77596" data-name="パス 77596" d="M560.356,338.827l-8.374-13.036,1.5-28.753,8.761,8.4Z" transform="translate(-498.105 -252.848)" fill="#53a2c7"/>
        <path id="パス_77597" data-name="パス 77597" d="M431.7,385.918a24.641,24.641,0,0,0-2.425,7.614c-.094.86-36.9,91.5-37.126,92.328-1.489.178-16.822-7.488-16.822-7.488s43.278-88.318,43.475-88.773q1.2-2.727,2.155-5.58c.47-1.431.628-1.92.095-3.309-.9-2.349-7.513-24.557-7.539-27.54-.012-1.629,0-3.286-.172-4.891-.243-2.3-.6-2.818.5-4.85,1.028-1.9,2.078-3.773,3.17-5.636a9.311,9.311,0,0,1,4.233-3.455c1.833-.91,3.649-1.874,5.494-2.8.928-.468,2.356-1.618,2.677-.337.314,1.248-1.414,2.6-2.214,3.382-1.494,1.465-3.63,2.526-5.361,3.726,1.547,1.139,4.288.735,6.125,1.607.436.207,5.648,3.525,5.223,3.8-2.746,1.765-5.3-.319-7.913-.714-1.325-.2-3.214.551-4.4,1.047a13.377,13.377,0,0,1,6.026,1.172c1.04.5,6.192,1.551,3.332,2.565-2.191.774-4.632-.464-6.786.379-1.936.755-3.58,2.955-3.147,4.943.412,1.9,2.544,3.4,3.826,4.8a33.472,33.472,0,0,1,4.667,6.19C429.955,366.162,432.821,383.372,431.7,385.918Z" transform="translate(-372.481 -276.725)" fill="#edbf98"/>
        <path id="パス_77598" data-name="パス 77598" d="M543.574,422.436a.593.593,0,0,1-.538-.839c1.819-3.977,1.336-9.24-1.261-13.734a26.521,26.521,0,0,0-3.144-4.066c-.765-.867-1.555-1.764-2.251-2.705a5.866,5.866,0,0,1-.959-4.376,2.329,2.329,0,0,1,1.34-1.6.592.592,0,0,1,.469,1.087,1.153,1.153,0,0,0-.667.824,4.683,4.683,0,0,0,.767,3.365c.668.9,1.441,1.777,2.19,2.627a27.418,27.418,0,0,1,3.28,4.255c2.786,4.821,3.289,10.5,1.312,14.821A.592.592,0,0,1,543.574,422.436Z" transform="translate(-486.244 -322.558)" fill="#cb6362"/>
        <path id="パス_77599" data-name="パス 77599" d="M512.734,382.763a.58.58,0,0,1-.284-.073.592.592,0,0,1-.234-.8,45.76,45.76,0,0,1,3.145-4.91l.144-.2c1.11-1.541,1.624-2.245,3.932-2.195a.591.591,0,0,1,.579.6.6.6,0,0,1-.6.58c-1.69-.036-1.91.263-2.947,1.7l-.146.2a44.615,44.615,0,0,0-3.066,4.783A.59.59,0,0,1,512.734,382.763Z" transform="translate(-469.774 -307.992)" fill="#cb6362"/>
        <path id="パス_77600" data-name="パス 77600" d="M511.442,361.939a.6.6,0,0,1-.27-.065.591.591,0,0,1-.256-.8,23.009,23.009,0,0,1,3.011-3.763c.349-.387.683-.756.969-1.083a3.9,3.9,0,0,1,2.726-1.527,8.256,8.256,0,0,0,1.427-.35.591.591,0,0,1,.39,1.116,9.408,9.408,0,0,1-1.614.4,2.77,2.77,0,0,0-2.038,1.14c-.289.332-.628.705-.984,1.1a23.189,23.189,0,0,0-2.834,3.508A.594.594,0,0,1,511.442,361.939Z" transform="translate(-468.854 -293.583)" fill="#cb6362"/>
        <path id="パス_77601" data-name="パス 77601" d="M810.038,407.082a7.288,7.288,0,0,0,.012-1.763c-.027-.265-.643-3.51.538-2.681.384.27.266.673.309,1.05.052.446.208.882.256,1.337a6.883,6.883,0,0,1-.9,4.254,8.767,8.767,0,0,0-1.46,3.144c-.121.911-.348,2.08.245,2.88.16.216.469.518.415.558a5.642,5.642,0,0,0-.679.721c-2.383-1.321-1.118-4.434-.149-6.232a14.247,14.247,0,0,0,1.091-1.992A6.516,6.516,0,0,0,810.038,407.082Z" transform="translate(-679.754 -327.849)" fill="#885322"/>
        <path id="パス_77602" data-name="パス 77602" d="M574.822,211.172a88.119,88.119,0,0,1-4.033-16.662c-1.156-8.859,2.616-18.045,7.25-25.507,6.295-10.137,15.413-18.681,27.847-19.941,4.943-.5,10.329-1.432,15.127.347,2.023.751,3.563,2.354,5.59,3.053,1.484.513,3.088.487,4.553,1.042a31.71,31.71,0,0,1,13.822,10.621,32.81,32.81,0,0,1,4.414,7.62c1.03,2.621,1.111,6.2,1.417,9.032a42.731,42.731,0,0,1-.284,9.247c-.329,2.98-.114,6.1-.985,8.975-2.488,8.216-8.385,15.149-14.187,21.324-5.662,6.028-13.3,11.572-21.78,12.611a53.862,53.862,0,0,1-11.139.229c-5.672-.485-11.481-1.449-16.69-3.857-4.786-2.213-6.949-6.647-8.586-11.329C576.345,215.644,575.558,213.4,574.822,211.172Z" transform="translate(-511.329 -147.121)" fill="#4d3839"/>
        <path id="パス_77603" data-name="パス 77603" d="M647.351,251.717A33.414,33.414,0,0,1,611.6,281.942c-18.463-1.3-32.422-16.949-31.144-34.935.529-7.537,2.706-22.926,7.5-28.134,6.659-7.232,27.131-13.708,37.874-12.949C644.308,207.211,651.45,209.48,647.351,251.717Z" transform="translate(-518.296 -188.009)" fill="#edbf98"/>
        <path id="パス_77604" data-name="パス 77604" d="M812.672,346.338a10.62,10.62,0,1,1-9.852-11.351A10.623,10.623,0,0,1,812.672,346.338Z" transform="translate(-668.408 -279.816)" fill="#edbf98"/>
        <path id="パス_77605" data-name="パス 77605" d="M626.418,216.855a47.581,47.581,0,0,1,.5,12.4,25,25,0,0,1-.611,4.54,3.868,3.868,0,0,1,.75-1.084c1.912-2.477,3.036-5.346,4.448-8.1a27.37,27.37,0,0,0,2.417-6.455,28.371,28.371,0,0,0,1.116-6.711c-.108-5.579-2.41-10.1-3.617-15.375-2.332-10.213-11.671-17.356-21.239-20.125a49.527,49.527,0,0,0-11.718-1.875,27.641,27.641,0,0,0-4.54-.294c-1.638.194-3.206.786-4.84,1.021-1.994.287-3.676.28-5.574,1.259a38.448,38.448,0,0,0-11.345,9.462c-1.221,1.423-2.772,2.536-3.916,4.013-1.2,1.557-2.274,3.286-3.328,4.947-1.962,3.094-3.915,6.666-4.508,10.331s-2.191,7.154-2.717,10.89a16.193,16.193,0,0,1-1.578,4.582c-.322.694-1.779,4.556-2.558,4.649,6.839-.816,12.3-7.469,16.977-11.766a97.377,97.377,0,0,1,15.578-11.367c5.423-3.281,11.376-5.7,16.886-8.913,1.679-.977,3.254-2.118,4.842-3.236a25.3,25.3,0,0,1,2.961-2.262c1.634-.816,1.764.28,2.789,1.646a103.215,103.215,0,0,1,5.877,9.231A54.369,54.369,0,0,1,626.418,216.855Z" transform="translate(-499.225 -165.152)" fill="#4d3839"/>
        <path id="パス_77606" data-name="パス 77606" d="M630.821,313.22a3.364,3.364,0,0,1-2.01,4.1,2.956,2.956,0,0,1-3.792-2.1,3.362,3.362,0,0,1,2.025-4.1A2.955,2.955,0,0,1,630.821,313.22Z" transform="translate(-549.952 -262.753)" fill="#0d0002"/>
        <path id="パス_77607" data-name="パス 77607" d="M721.029,320.975a3.366,3.366,0,0,1-2.011,4.1,2.964,2.964,0,0,1-3.8-2.1,3.37,3.37,0,0,1,2.028-4.1A2.957,2.957,0,0,1,721.029,320.975Z" transform="translate(-614.101 -268.269)" fill="#0d0002"/>
        <path id="パス_77608" data-name="パス 77608" d="M670.693,341a.781.781,0,0,1-.547-.3c-.257-.324-.547-.638-.829-.939-.942-1.01-2.009-2.155-1.788-4.013.14-1.115,1.207-3.393,2.7-6.49.62-1.283,1.2-2.5,1.4-3.039a.788.788,0,0,1,1.486.527c-.22.622-.8,1.815-1.461,3.2a37.1,37.1,0,0,0-2.552,6c-.129,1.074.411,1.712,1.375,2.745.305.328.621.665.917,1.046a.787.787,0,0,1-.693,1.269Z" transform="translate(-580.254 -273.229)" fill="#0d0002"/>
        <path id="パス_77609" data-name="パス 77609" d="M648.807,392.407c-.439-.04-.871-.1-1.291-.183-4.785-.93-9.966-4.732-10.154-12.616a1.028,1.028,0,0,1,2.055-.05c.161,6.665,4.491,9.87,8.492,10.648a12.244,12.244,0,0,0,13.557-7.363,1.028,1.028,0,1,1,1.887.816A14.275,14.275,0,0,1,648.807,392.407Z" transform="translate(-558.823 -310.818)" fill="#c1143a"/>
        <path id="パス_77610" data-name="パス 77610" d="M759.048,356.349a3.846,3.846,0,1,1-3.475-4.184A3.844,3.844,0,0,1,759.048,356.349Z" transform="translate(-639.9 -292.039)" fill="#e9706e"/>
        <path id="パス_77611" data-name="パス 77611" d="M600.4,341.585a3.846,3.846,0,1,1-3.474-4.184A3.843,3.843,0,0,1,600.4,341.585Z" transform="translate(-527.077 -281.54)" fill="#e9706e"/>
        <path id="パス_77612" data-name="パス 77612" d="M754.976,359.449a.726.726,0,0,1-.481-.243c-.89-1-2.31-2.8-1.817-3.68a1.221,1.221,0,0,1,.764-.586c.891-.243,2.158.338,3.786,1.287l.229.133.168.09c-.027-.046-.057-.093-.088-.143-.065-.107-.138-.23-.218-.365-.4-.672-1.248-2.087-1.888-2.108a.747.747,0,0,1-.692-.779.737.737,0,0,1,.779-.693l.065.005c1.4.13,2.36,1.747,3,2.821.075.126.144.242.208.344.529.857,1.042,1.823.446,2.451s-1.6.157-2.491-.333c-.066-.035-.155-.086-.263-.15a11.127,11.127,0,0,0-2.218-1.081,15.558,15.558,0,0,0,1.329,1.805.737.737,0,0,1-.061,1.04A.73.73,0,0,1,754.976,359.449Z" transform="translate(-640.757 -292.191)" fill="#e55a65"/>
        <path id="パス_77613" data-name="パス 77613" d="M597.443,344.788a.726.726,0,0,1-.478-.24c-.562-.622-2.355-2.725-1.828-3.679a1.236,1.236,0,0,1,.767-.591c.895-.243,2.158.339,3.782,1.285l.236.136.163.088-.085-.14c-.066-.107-.136-.226-.213-.355-.4-.671-1.22-2.059-1.874-2.118l-.042,0a.737.737,0,0,1,.113-1.469c1.44.085,2.42,1.741,3.072,2.838l.2.331c.53.855,1.046,1.821.449,2.449s-1.6.16-2.491-.332c-.065-.035-.156-.088-.266-.154a11.063,11.063,0,0,0-2.216-1.077,14.953,14.953,0,0,0,1.33,1.8A.736.736,0,0,1,598,344.6.726.726,0,0,1,597.443,344.788Z" transform="translate(-528.725 -281.765)" fill="#e55a65"/>
        <path id="パス_77614" data-name="パス 77614" d="M696.345,468.55l-7.923.467a.962.962,0,0,1-.113-1.92l7.924-.467a.962.962,0,1,1,.113,1.92Z" transform="translate(-594.41 -373.451)" fill="#c16b61"/>
        <path id="パス_77615" data-name="パス 77615" d="M802.707,400.6a1.879,1.879,0,0,1,.464-.447c.481-.317,1.107-.431.951-1.219-.2-1.024-1.251-.021-1.6.351a5.783,5.783,0,0,0-1.542,2.557,12.326,12.326,0,0,0-.235,4.772,8.62,8.62,0,0,1,0,2.635,3.13,3.13,0,0,1-1.135,1.548,3.227,3.227,0,0,1-1.612.573c.184.257.065.744.255.938.483.494,2.3-.816,2.6-1.209a4.636,4.636,0,0,0,.786-3.077,36.078,36.078,0,0,1-.285-4.61,3.393,3.393,0,0,1,.688-1.717C802.285,401.328,802.453,400.932,802.707,400.6Z" transform="translate(-673.062 -324.99)" fill="#b76f2f"/>
      </g>
    </g>
  </g>
</svg>
