<svg xmlns="http://www.w3.org/2000/svg" xmlns:xlink="http://www.w3.org/1999/xlink" width="445" height="279" viewBox="0 0 445 279">
  <defs>
    <clipPath id="clip-path">
      <rect id="長方形_29645" data-name="長方形 29645" width="445" height="279" rx="20" transform="translate(625 39.98)" fill="#fff" stroke="#e3e3e3" stroke-width="2"/>
    </clipPath>
  </defs>
  <g id="reason_06" transform="translate(-625 -39.98)">
    <rect id="長方形_29507" data-name="長方形 29507" width="445" height="279" rx="20" transform="translate(625 39.98)" fill="#fff"/>
    <g id="マスクグループ_81" data-name="マスクグループ 81" clip-path="url(#clip-path)">
      <g id="グループ_7302" data-name="グループ 7302" transform="translate(-133 -2478.02)">
        <g id="グループ_7309" data-name="グループ 7309" transform="translate(263 -6)">
          <g id="楕円形_511" data-name="楕円形 511" transform="translate(607 2555)" fill="none" stroke="#f7f3e5" stroke-width="7">
            <circle cx="115" cy="115" r="115" stroke="none"/>
            <circle cx="115" cy="115" r="111.5" fill="none"/>
          </g>
          <g id="グループ_7303" data-name="グループ 7303" transform="translate(-264 6)">
            <circle id="楕円形_505" data-name="楕円形 505" cx="40" cy="40" r="40" transform="translate(1032 2554)" fill="#e288b1" opacity="0.6"/>
            <circle id="楕円形_513" data-name="楕円形 513" cx="35" cy="35" r="35" transform="translate(1037 2559)" fill="#e288b1" opacity="0.6"/>
            <path id="パス_80034" data-name="パス 80034" d="M-8.008-9.464v-1.33H-19.992v1.33h5.908a15.5,15.5,0,0,1-6.3,5.824,7.328,7.328,0,0,1,.9,1.162,17.424,17.424,0,0,0,4.774-3.78v7.35H-13.3V-8.022c.336-.476.63-.966.924-1.442ZM-13.244-6.5A31.651,31.651,0,0,1-8.638-2.618l1.092-1.008a33.38,33.38,0,0,0-4.718-3.71Zm14,2.212V-6.356H4.144v2.072Zm-4.4,0C-3.6-4.8-3.584-5.32-3.584-5.8v-.56H-.546v2.072ZM-.546-9.548v1.974H-3.584V-9.548Zm4.69,1.974H.756V-9.548H4.144Zm1.3-3.22H-4.872V-5.81c0,1.974-.14,4.452-1.666,6.146a4.309,4.309,0,0,1,1.022.854,8.031,8.031,0,0,0,1.75-4.242h3.22v4h1.3v-4H4.144V-.546c0,.266-.1.35-.35.35S2.6-.182,1.708-.224a5.379,5.379,0,0,1,.434,1.26A7.664,7.664,0,0,0,4.76.812c.5-.2.686-.588.686-1.344ZM16.632-7.63h-5.25V-9.912h5.25Zm1.33-3.528H10.136v4.774h7.826ZM11.942-3.78V-.868H9.394V-3.78ZM8.162,1.106H9.394V.378h2.548v.63H13.23V-5.026H8.162ZM15.848-.868V-3.78H18.62V-.868ZM14.6-5.026V1.106h1.246V.378H18.62v.658h1.3V-5.026ZM-4.9,7.864h2.114V9.1H-4.9Zm-3.15,0h2.044V9.1H-8.05Zm-3.108,0H-9.17V9.1h-1.988Zm-1.218-.994v3.22h10.85V6.87Zm2.1,6.5h6.622v.868h-6.622Zm0,1.694h6.622v.91h-6.622Zm0-3.4h6.622v.882h-6.622Zm-1.3-.868v6.034H-2.31V10.79Zm5.586,6.762A30.861,30.861,0,0,1-2,19.12l1.386-.672A44.762,44.762,0,0,0-4.97,16.866Zm-3.192-.7a16.2,16.2,0,0,1-4.144,1.33,9.147,9.147,0,0,1,.98.966,17.956,17.956,0,0,0,4.354-1.764ZM6.636,8.3H7.21V9.376h4.438a15.559,15.559,0,0,1-1.512,4.774A17.7,17.7,0,0,1,8.624,9.418l-1.26.252a19.719,19.719,0,0,0,1.988,5.754A7.976,7.976,0,0,1,6.636,17.86ZM2.982,15.816V13.968H5.376V15.48ZM5.376,8.3V9.922H2.982V8.3ZM2.982,11.084H5.376v1.708H2.982ZM12.236,8.06l-.224.042H7.574V7.094H.714V8.3H1.736v7.686c-.49.056-.924.126-1.316.168l.238,1.3c1.3-.21,3.024-.49,4.718-.77v2.394h1.26V17.93a5.031,5.031,0,0,1,.812,1.008,9.589,9.589,0,0,0,2.674-2.324,8.8,8.8,0,0,0,2.632,2.352,4.957,4.957,0,0,1,.9-1.064,7.709,7.709,0,0,1-2.716-2.45,17.5,17.5,0,0,0,2.142-7.168Z" transform="translate(1072 2591)" fill="#fff"/>
          </g>
          <g id="グループ_7302-2" data-name="グループ 7302" transform="translate(-260 4)">
            <circle id="楕円形_506" data-name="楕円形 506" cx="40" cy="40" r="40" transform="translate(1049 2650)" fill="#eb844e" opacity="0.6"/>
            <circle id="楕円形_514" data-name="楕円形 514" cx="35" cy="35" r="35" transform="translate(1054 2655)" fill="#eb844e" opacity="0.6"/>
            <path id="パス_80035" data-name="パス 80035" d="M-16.534-9.744a19.167,19.167,0,0,0-1.106-1.862l-.938.378a14.84,14.84,0,0,1,1.106,1.89Zm.21,1.652c0-.364.028-.854.042-1.162-.266.014-.742.028-1.12.028H-24.36c-.476,0-1.134-.042-1.624-.084v1.54c.364-.014,1.078-.042,1.624-.042h6.538v6.244h-6.706c-.6,0-1.218-.042-1.624-.07V-.056c.406-.042,1.106-.07,1.666-.07h6.65c0,.308-.014.574-.014.756h1.582c-.014-.308-.056-.98-.056-1.47Zm-.434-3.556a16.682,16.682,0,0,1,1.134,1.876l.938-.406A21.323,21.323,0,0,0-15.82-12.04Zm6.762.9-.518,1.3a46,46,0,0,1,7.42,1.708l.574-1.372A49.144,49.144,0,0,0-10-10.752Zm-.63,3.724-.518,1.33A45.594,45.594,0,0,1-4-3.976l.546-1.358A52.5,52.5,0,0,0-10.626-7.028Zm-.742,4.046-.56,1.372A46.075,46.075,0,0,1-3.528.476L-2.912-.9A53.353,53.353,0,0,0-11.368-2.982ZM9.73-5.908l-.742.462c.322.21.658.462.994.714-1.218.042-2.408.084-3.514.112.294-.406.588-.854.882-1.288Zm1.4-4.1v1.218H3.346V-10.01ZM8.61-.322V-1.6h3.556V-2.632H8.61V-3.7l2.464-.112a8.151,8.151,0,0,1,.7.728l1.05-.7a14.547,14.547,0,0,0-2.6-2.128h2.6v-1.05H3.346v-.77h9.1v-3.346H2.044V-7.14c0,2.226-.126,5.376-1.5,7.574a5.253,5.253,0,0,1,1.162.672C2.926-.84,3.248-3.64,3.332-5.908H5.894c-.238.448-.532.924-.8,1.33-.56.014-1.078.028-1.526.028L3.64-3.5l3.7-.154v1.022H3.892V-1.6H7.336V-.322H2.884V.742H13.2V-.322Zm9.114-2.226c.042-.21.07-.42.1-.644h3.71v-.98H18.606V-5.04h2.436v-.42a6.6,6.6,0,0,1,.686.616,10.172,10.172,0,0,0,.686-1.162A17.34,17.34,0,0,0,23.52-2.632,7.273,7.273,0,0,1,20.538-.014,16.429,16.429,0,0,0,20.776-2.1c.014-.154.028-.448.028-.448Zm-1.5-4.074h1.2v.756h-1.2Zm0-1.512h1.2v.742h-1.2Zm3.7,1.512v.756H18.606v-.756Zm0-1.512v.742H18.606v-.742Zm5.306.154a15.985,15.985,0,0,1-.994,3.99A18.767,18.767,0,0,1,23.17-7.924L23.2-7.98Zm2.212,0V-9.2H23.548c.2-.756.364-1.554.5-2.352l-1.33-.21a15.206,15.206,0,0,1-1.68,5.446V-8.96H18.606v-.616h2.856v-.966h-.8l.462-.5a5.985,5.985,0,0,0-1.456-.812l-.588.6a5.66,5.66,0,0,1,1.232.714H18.606v-1.12H17.43v1.12H14.77v.966h2.66v.616H15.162v3.92H17.43v.868H14.672v.98h1.946a3.891,3.891,0,0,1-2.1,3.416,2.985,2.985,0,0,1,.728.91,4.461,4.461,0,0,0,2.24-2.716h2.086C19.488-.588,19.39-.14,19.25,0a.507.507,0,0,1-.406.112A11.8,11.8,0,0,1,17.612.056a2.211,2.211,0,0,1,.294,1.022,12.773,12.773,0,0,0,1.484,0,1.218,1.218,0,0,0,.84-.35A1.226,1.226,0,0,0,20.5.168a5.289,5.289,0,0,1,.616.98,9.042,9.042,0,0,0,3.052-2.562,7.481,7.481,0,0,0,2.52,2.52,4.818,4.818,0,0,1,.868-1.05A6.628,6.628,0,0,1,24.906-2.6,16.05,16.05,0,0,0,26.474-7.98ZM-9.534,7.794a9.766,9.766,0,0,0-2.52-1.442l-.7.938A10.667,10.667,0,0,1-10.29,8.844Zm-.644,3.64a11.978,11.978,0,0,0-2.576-1.358l-.714.98a10.707,10.707,0,0,1,2.534,1.484Zm-1.75,7.476c.784-1.33,1.652-3.01,2.338-4.48l-.994-.826a41.852,41.852,0,0,1-2.464,4.48Zm4.76-3.234v-.882h4.326v.882Zm4.326-2.6v.854H-7.168v-.854Zm1.232-.98H-8.372v6.986h1.2V16.572h4.326v1.134c0,.182-.07.224-.266.238-.168.014-.84.014-1.5-.014a4.141,4.141,0,0,1,.378,1.106,5.978,5.978,0,0,0,2.058-.182c.434-.182.56-.518.56-1.12Zm-2.926-1.638v-.8h3.178v-.91H-4.536V8.018h3.528V7.08H-4.536V6.254H-5.824V7.08H-9.17v.938h3.346v.728H-8.806v.91h2.982v.8H-9.618v.952H-.56v-.952Zm16.828-3.78H5.712v.98h5.376V8.41H5.964v.9h5.124v.8H5.572v.98h6.72Zm-8.848,5.81v-2.31h1.47V8.97H3.444v-2.7H2.254v2.7H.63v1.2H2.254v2.66c-.686.21-1.316.378-1.82.5L.728,14.6l1.526-.476v3.542c0,.2-.07.238-.252.238-.154.014-.672.014-1.232,0a4.156,4.156,0,0,1,.35,1.2,4.176,4.176,0,0,0,1.82-.238c.378-.21.5-.56.5-1.2V13.758c.462-.154.924-.294,1.386-.448l-.168-1.19Zm8.568,1.456H9.548V12.75h2.464Zm-6.048,0V12.75H8.386v1.19Zm7.224-2.226H4.83v2.66h.924v3.752H6.916V14.948h1.47v4.158H9.548V14.948h1.666v2.03c0,.126-.028.168-.182.168s-.56.014-1.036,0a4.056,4.056,0,0,1,.294,1.05,3.892,3.892,0,0,0,1.61-.182c.364-.182.434-.476.434-1.022V14.36h.854Z" transform="translate(1089 2687)" fill="#fff"/>
          </g>
          <g id="グループ_7308" data-name="グループ 7308" transform="translate(-257 11)">
            <circle id="楕円形_507" data-name="楕円形 507" cx="40" cy="40" r="40" transform="translate(990 2717)" fill="#1daac7" opacity="0.6"/>
            <circle id="楕円形_515" data-name="楕円形 515" cx="35" cy="35" r="35" transform="translate(995 2722)" fill="#1daac7" opacity="0.6"/>
            <path id="パス_80036" data-name="パス 80036" d="M6.16-9.548v-.728H7.882v.728Zm4.732-.728v.728H9.128v-.728ZM7.882-8.26H3.934v.854h9.324V-8.26H9.128v-.56h3.024v-2.2H9.128v-.714H7.882v.714H4.97v2.2H7.882Zm-3.906-.9A10.407,10.407,0,0,0,1.764-11.4l-.994.728A10,10,0,0,1,2.926-8.33ZM6.342-3.682H10.78v.616H6.342Zm0-1.26H10.78v.6H6.342Zm0-1.232H10.78V-5.6H6.342Zm.812,3.78h2.59l-.644.42A20.216,20.216,0,0,1,11.788-.56l1.176-.56A25.7,25.7,0,0,0,10.29-2.394h1.764V-6.86H5.138v4.466H6.874A8.833,8.833,0,0,1,4.466-1.162a6.342,6.342,0,0,1,.784.588A2.893,2.893,0,0,1,3.6-1.82V-6.314H.672v1.2h1.68v3.43A19.105,19.105,0,0,1,.546-.252L1.19.98C1.876.378,2.492-.2,3.08-.77A4.586,4.586,0,0,0,6.86.854c1.61.056,4.592.028,6.2-.042A6.358,6.358,0,0,1,13.468-.42c-1.778.126-5.026.168-6.608.1A6.251,6.251,0,0,1,5.544-.49a10.245,10.245,0,0,0,2.52-1.582ZM23.632-7.63h-5.25V-9.912h5.25Zm1.33-3.528H17.136v4.774h7.826ZM18.942-3.78V-.868H16.394V-3.78Zm-3.78,4.886h1.232V.378h2.548v.63H20.23V-5.026H15.162ZM22.848-.868V-3.78H25.62V-.868ZM21.6-5.026V1.106h1.246V.378H25.62v.658h1.3V-5.026ZM35.616-1.19h3.836v-.98H35.616v-.9h4.816V-4.1H29.6v1.036h4.746V-.238H32.13V-2.506H30.9V-.238H28.714V.84H41.328V-.238H35.616Zm1.456-8.036H39.13a5.3,5.3,0,0,1-.924,1.792,6.462,6.462,0,0,1-1.134-1.778ZM33.88-7.63H32.606v-.98H33.88Zm-3.64-.98h1.218v.98H30.24Zm11.032-.616v-1.022H37.59a11.447,11.447,0,0,0,.448-1.218l-1.19-.28a6.975,6.975,0,0,1-1.89,3.3v-.966H32.606v-.616h2.632v-.91H32.606v-.812H31.458v.812H28.84v.91h2.618v.616H29.2v2.6h1.778a8.108,8.108,0,0,1-2.408,1.568,4.569,4.569,0,0,1,.756.812,9.092,9.092,0,0,0,2.128-1.6v1.568h1.148V-6.034a20.083,20.083,0,0,1,1.778,1.148l.644-.84c-.35-.2-1.512-.784-2.142-1.078h2.072V-8.176a8.455,8.455,0,0,1,.714.77,7.315,7.315,0,0,0,.756-.84A8.2,8.2,0,0,0,37.45-6.664,7.39,7.39,0,0,1,34.776-5.32a4.548,4.548,0,0,1,.742.938,8.615,8.615,0,0,0,2.7-1.47A7.576,7.576,0,0,0,40.782-4.34a3.776,3.776,0,0,1,.728-1.022A6.887,6.887,0,0,1,39.018-6.65a7.148,7.148,0,0,0,1.344-2.576ZM47-2.982c-.476.168-.98.322-1.456.476V-5.67h1.33v-1.2h-1.33V-9.66H47.1v-1.2H42.644v1.2H44.3v2.786H42.784v1.2H44.3v3.556c-.672.21-1.288.378-1.792.518l.308,1.33c1.26-.406,2.884-.952,4.41-1.484Zm1.89-4.48h1.834v1.54H48.888Zm0-2.548h1.834V-8.5H48.888ZM53.62-8.5H51.828V-10.01H53.62Zm0,2.576H51.828v-1.54H53.62ZM51.94-.532V-2.2h3.108V-3.374H51.94V-4.816h2.926v-6.3H47.7v6.3H50.61v1.442H47.572V-2.2H50.61V-.532H46.55V.658H55.5V-.532Z" transform="translate(1002 2763)" fill="#fff"/>
          </g>
          <g id="グループ_7307" data-name="グループ 7307" transform="translate(-263 8)">
            <circle id="楕円形_508" data-name="楕円形 508" cx="40" cy="40" r="40" transform="translate(893 2720)" fill="#6cc46c" opacity="0.6"/>
            <circle id="楕円形_516" data-name="楕円形 516" cx="35" cy="35" r="35" transform="translate(898 2725)" fill="#6cc46c" opacity="0.6"/>
            <path id="パス_80037" data-name="パス 80037" d="M-16.534-4.508A18.291,18.291,0,0,1-18.7-.672l1.526.644a20.024,20.024,0,0,0,2.058-3.92,31.941,31.941,0,0,0,1.246-4.3c.056-.308.182-.84.28-1.19l-1.582-.322A21.291,21.291,0,0,1-16.534-4.508Zm6.9-.434A40.839,40.839,0,0,1-8.106-.07L-6.5-.588C-6.888-1.918-7.63-4.1-8.162-5.432c-.56-1.414-1.484-3.444-2.058-4.494l-1.442.476A37.352,37.352,0,0,1-9.632-4.942ZM4.55-9.086a3.074,3.074,0,0,1-1.05.14H.672v-1.2a10.226,10.226,0,0,1,.084-1.162H-.938a6.446,6.446,0,0,1,.1,1.162v1.2H-3.892a13.3,13.3,0,0,1-1.358-.07,10.421,10.421,0,0,1,.056,1.134v2.45c0,.308-.028.714-.056,1.008h1.526a6.426,6.426,0,0,1-.056-.924v-2.3H3.668A9.714,9.714,0,0,1,2.38-3.78,7.2,7.2,0,0,1-1.148-1.148a8.789,8.789,0,0,1-1.68.462L-1.68.644A8.925,8.925,0,0,0,3.934-3.43a13.022,13.022,0,0,0,1.344-4.1,5.263,5.263,0,0,1,.238-.952ZM16.1-10.094a4.247,4.247,0,0,1-1.218.14H9.688a14.979,14.979,0,0,1-1.526-.1V-8.47c.224-.014.98-.084,1.526-.084h5.138a11.518,11.518,0,0,1-2.226,3.7,15.731,15.731,0,0,1-5.754,4.1L7.98.42A17.917,17.917,0,0,0,13.37-3.6,30.282,30.282,0,0,1,17.066.49L18.312-.6a37.212,37.212,0,0,0-4-4.1,19.162,19.162,0,0,0,2.3-3.99,4.833,4.833,0,0,1,.406-.728ZM-27.622,6.564a3.288,3.288,0,0,1-1.05.14h-3.36c.07-.112.14-.238.2-.35.154-.28.448-.826.728-1.246l-1.624-.532a6.206,6.206,0,0,1-.518,1.26,11.881,11.881,0,0,1-4.4,4.634l1.232.91a14.576,14.576,0,0,0,3.556-3.416h4.368a10.513,10.513,0,0,1-2.128,4.13,11.313,11.313,0,0,1-5.614,3.5l1.3,1.162a12.728,12.728,0,0,0,5.6-3.878,13.856,13.856,0,0,0,2.464-4.76,4.791,4.791,0,0,1,.392-.854Zm4.452-1.176c.028.294.056.784.056,1.036v4.69c0,.406-.056.9-.07,1.134h1.638c-.028-.28-.056-.77-.056-1.134V6.424c0-.392.028-.742.056-1.036Zm6.454-.112a10.825,10.825,0,0,1,.084,1.288V8.972c0,2.45-.182,3.542-1.162,4.648a6.481,6.481,0,0,1-3.388,1.834l1.162,1.218a7.779,7.779,0,0,0,3.346-2.044c1.036-1.176,1.54-2.366,1.54-5.572V6.564c0-.5.028-.924.056-1.288Zm4.718,6.2c.462-.028,1.288-.056,2.072-.056H-2.31c.616,0,1.246.042,1.554.056V9.756c-.336.028-.882.084-1.568.084h-7.6c-.756,0-1.624-.042-2.072-.084ZM.63,15.3c.49-.042,1.064-.07,1.582-.07h8.232c.392,0,.938.028,1.4.07V13.606a11.74,11.74,0,0,1-1.4.084H2.212c-.518,0-1.078-.042-1.582-.084ZM1.82,8.314c.448-.028.994-.056,1.5-.056H9.212c.476,0,1.064.028,1.456.056v-1.6a14.275,14.275,0,0,1-1.456.07H3.3c-.462,0-1.022-.028-1.484-.07ZM15.372,5.57,14.35,6.662a31.828,31.828,0,0,1,3.5,2.968L18.956,8.5A28.348,28.348,0,0,0,15.372,5.57ZM13.93,14.936l.938,1.442a15.436,15.436,0,0,0,5.362-2.086,14.429,14.429,0,0,0,4.914-5.068L24.29,7.7a13.33,13.33,0,0,1-4.858,5.278A14.547,14.547,0,0,1,13.93,14.936Zm17.22-7.9c.084-.126.14-.238.21-.364.154-.28.448-.812.728-1.232l-1.624-.532a6.559,6.559,0,0,1-.518,1.26,11.974,11.974,0,0,1-4.4,4.634l1.232.91A14.5,14.5,0,0,0,30.324,8.3h4.382a10.606,10.606,0,0,1-2.128,4.13,11.2,11.2,0,0,1-5.614,3.486l1.3,1.162a12.6,12.6,0,0,0,5.6-3.864,13.856,13.856,0,0,0,2.464-4.76,4.791,4.791,0,0,1,.392-.854l-1.148-.7a3.288,3.288,0,0,1-1.05.14Zm3.6-1.974A16.71,16.71,0,0,1,35.854,7l.924-.392a20.287,20.287,0,0,0-1.134-1.918Zm1.582-.6A14.051,14.051,0,0,1,37.478,6.4l.91-.406a16.549,16.549,0,0,0-1.162-1.9Z" transform="translate(933 2758)" fill="#fff"/>
          </g>
          <g id="グループ_7306" data-name="グループ 7306" transform="translate(-268 4)">
            <circle id="楕円形_509" data-name="楕円形 509" cx="40" cy="40" r="40" transform="translate(835 2650)" fill="#9289c4" opacity="0.6"/>
            <circle id="楕円形_517" data-name="楕円形 517" cx="35" cy="35" r="35" transform="translate(840 2655)" fill="#9289c4" opacity="0.6"/>
            <path id="パス_80038" data-name="パス 80038" d="M-20.3-.588v-3.22h4.354V-5.054H-20.3v-2.8h4.872V-9.128H-20.3v-2.6h-1.344v2.6h-2.534c.266-.672.518-1.386.728-2.1l-1.344-.308a12.086,12.086,0,0,1-2.534,5.068,8.338,8.338,0,0,1,1.19.784,12.087,12.087,0,0,0,1.386-2.17h3.108v2.8h-3.99v1.246h3.99v3.22h-5.544V.672h12.432V-.588Zm9.114-2.282V-4.06h2.772v1.19ZM-8.414-6.2v1.148h-2.772V-6.2Zm1.246-1.106H-12.4V1.036h1.218V-1.876h2.772V-.294c0,.182-.056.238-.252.252-.168.014-.784.014-1.4-.014a5.454,5.454,0,0,1,.434,1.12A4.733,4.733,0,0,0-7.7.84c.406-.182.532-.5.532-1.106ZM-2.9-.42c0,.2-.07.252-.294.266s-.966.014-1.75-.014A4.539,4.539,0,0,1-4.48,1.064,5.788,5.788,0,0,0-2.24.826c.476-.2.63-.546.63-1.232V-7.574H-2.9ZM-4.48-7.182h-1.2v5.7h1.2Zm.658-2.436c.392-.532.784-1.148,1.162-1.75L-4.074-11.8A13.242,13.242,0,0,1-5.306-9.618H-9.338l.714-.266A8.41,8.41,0,0,0-9.968-11.76l-1.218.42a9.314,9.314,0,0,1,1.162,1.722H-13.23v1.19H-.756v-1.19ZM7.616-1.19h3.836v-.98H7.616v-.9h4.816V-4.1H1.6v1.036H6.342V-.238H4.13V-2.506H2.9V-.238H.714V.84H13.328V-.238H7.616ZM9.072-9.226H11.13a5.3,5.3,0,0,1-.924,1.792A6.462,6.462,0,0,1,9.072-9.212ZM5.88-7.63H4.606v-.98H5.88ZM2.24-8.61H3.458v.98H2.24Zm11.032-.616v-1.022H9.59a11.447,11.447,0,0,0,.448-1.218l-1.19-.28a6.975,6.975,0,0,1-1.89,3.3v-.966H4.606v-.616H7.238v-.91H4.606v-.812H3.458v.812H.84v.91H3.458v.616H1.2v2.6H2.982A8.108,8.108,0,0,1,.574-5.236a4.569,4.569,0,0,1,.756.812,9.092,9.092,0,0,0,2.128-1.6v1.568H4.606V-6.034A20.084,20.084,0,0,1,6.384-4.886l.644-.84c-.35-.2-1.512-.784-2.142-1.078H6.958V-8.176a8.455,8.455,0,0,1,.714.77,7.315,7.315,0,0,0,.756-.84A8.2,8.2,0,0,0,9.45-6.664,7.39,7.39,0,0,1,6.776-5.32a4.548,4.548,0,0,1,.742.938,8.615,8.615,0,0,0,2.7-1.47A7.576,7.576,0,0,0,12.782-4.34a3.776,3.776,0,0,1,.728-1.022A6.887,6.887,0,0,1,11.018-6.65a7.148,7.148,0,0,0,1.344-2.576ZM19-2.982c-.476.168-.98.322-1.456.476V-5.67h1.33v-1.2h-1.33V-9.66H19.1v-1.2H14.644v1.2H16.3v2.786H14.784v1.2H16.3v3.556c-.672.21-1.288.378-1.792.518l.308,1.33c1.26-.406,2.884-.952,4.41-1.484Zm1.89-4.48h1.834v1.54H20.888Zm0-2.548h1.834V-8.5H20.888ZM25.62-8.5H23.828V-10.01H25.62Zm0,2.576H23.828v-1.54H25.62ZM23.94-.532V-2.2h3.108V-3.374H23.94V-4.816h2.926v-6.3H19.7v6.3H22.61v1.442H19.572V-2.2H22.61V-.532H18.55V.658H27.5V-.532Z" transform="translate(875 2696)" fill="#fff"/>
          </g>
          <g id="グループ_7305" data-name="グループ 7305" transform="translate(-256 6)">
            <circle id="楕円形_503" data-name="楕円形 503" cx="40" cy="40" r="40" transform="translate(852 2554)" fill="#3678ba" opacity="0.6"/>
            <circle id="楕円形_518" data-name="楕円形 518" cx="35" cy="35" r="35" transform="translate(857 2559)" fill="#3678ba" opacity="0.6"/>
            <path id="パス_80032" data-name="パス 80032" d="M-9.45-3.528V-4.942H-8.4v1.414Zm-1.974-1.414h1.064v1.414h-1.078c.014-.35.014-.686.014-1.008ZM-9.59-9.478a11.78,11.78,0,0,1-.518,1.26h-1.428c.21-.392.406-.826.588-1.26Zm.14,2.24H-8.4v1.33H-9.45Zm-1.974,0h1.064v1.33h-1.064Zm9.31-2.73c-.07,1.428-.168,2-.322,2.17a.377.377,0,0,1-.378.126,9.982,9.982,0,0,1-1.134-.056A3.163,3.163,0,0,1-3.654-6.65,9.01,9.01,0,0,0-2.24-6.664a1.051,1.051,0,0,0,.8-.392c.294-.336.42-1.274.518-3.542.014-.14.014-.448.014-.448H-7v1.078h1.736A3.4,3.4,0,0,1-7.322-7.21V-8.218H-8.988a17.973,17.973,0,0,0,.84-1.848l-.756-.476-.182.056h-1.47c.112-.336.21-.672.308-1.008l-1.19-.266a10.125,10.125,0,0,1-2.114,4.368,8.778,8.778,0,0,1,.952.77l.126-.154V-4.55A9.777,9.777,0,0,1-13.51.546a5.128,5.128,0,0,1,.924.574,8.258,8.258,0,0,0,1.078-3.654H-8.4V-.252c0,.182-.07.238-.252.252s-.756,0-1.428-.014a4.138,4.138,0,0,1,.406,1.092,4.819,4.819,0,0,0,1.862-.2c.378-.2.49-.56.49-1.12V-7.084a3.557,3.557,0,0,1,.616.812,4.418,4.418,0,0,0,2.646-3.7ZM-.532-2.562H-3.08V-4.074H-.8v-1.12H-3.08V-6.538H-4.312v1.344h-.98q.147-.5.252-1.008l-1.078-.224a7.93,7.93,0,0,1-1.2,3.08,5.937,5.937,0,0,1,.98.518,6.9,6.9,0,0,0,.658-1.246h1.372v1.512H-7.084v1.134h2.772V1.036H-3.08V-1.428H-.532Zm3.906-9.114A15.694,15.694,0,0,1,.406-6.286,8.163,8.163,0,0,1,1.134-4.97c.35-.42.686-.868,1.036-1.372v7.42H3.416V-8.5a22.357,22.357,0,0,0,1.176-2.828Zm9.94,3.836V-9.072h-4v-2.6H8.036v2.6H4.284V-7.84H7.35A14.177,14.177,0,0,1,3.668-2.03a4.811,4.811,0,0,1,.924.994A15.8,15.8,0,0,0,8.036-6.762v4.214H5.95v1.176H8.036V1.022H9.31V-1.372h2.072V-2.548H9.31v-4.3a16.287,16.287,0,0,0,3.346,5.768,5,5,0,0,1,.994-1.036A14.08,14.08,0,0,1,10.038-7.84Z" transform="translate(892 2600)" fill="#fff"/>
          </g>
          <g id="グループ_7304" data-name="グループ 7304" transform="translate(-264 10)">
            <circle id="楕円形_504" data-name="楕円形 504" cx="40" cy="40" r="40" transform="translate(946 2506)" fill="#1ba58e" opacity="0.599"/>
            <circle id="楕円形_512" data-name="楕円形 512" cx="35" cy="35" r="35" transform="translate(951 2511)" fill="#1ba58e"/>
            <path id="パス_80033" data-name="パス 80033" d="M-8.008-9.464v-1.33H-19.992v1.33h5.908a15.5,15.5,0,0,1-6.3,5.824,7.328,7.328,0,0,1,.9,1.162,17.424,17.424,0,0,0,4.774-3.78v7.35H-13.3V-8.022c.336-.476.63-.966.924-1.442ZM-13.244-6.5A31.651,31.651,0,0,1-8.638-2.618l1.092-1.008a33.38,33.38,0,0,0-4.718-3.71Zm14,2.212V-6.356H4.144v2.072Zm-4.4,0C-3.6-4.8-3.584-5.32-3.584-5.8v-.56H-.546v2.072ZM-.546-9.548v1.974H-3.584V-9.548Zm4.69,1.974H.756V-9.548H4.144Zm1.3-3.22H-4.872V-5.81c0,1.974-.14,4.452-1.666,6.146a4.309,4.309,0,0,1,1.022.854,8.031,8.031,0,0,0,1.75-4.242h3.22v4h1.3v-4H4.144V-.546c0,.266-.1.35-.35.35S2.6-.182,1.708-.224a5.379,5.379,0,0,1,.434,1.26A7.664,7.664,0,0,0,4.76.812c.5-.2.686-.588.686-1.344ZM16.632-7.63h-5.25V-9.912h5.25Zm1.33-3.528H10.136v4.774h7.826ZM11.942-3.78V-.868H9.394V-3.78ZM8.162,1.106H9.394V.378h2.548v.63H13.23V-5.026H8.162ZM15.848-.868V-3.78H18.62V-.868ZM14.6-5.026V1.106h1.246V.378H18.62v.658h1.3V-5.026ZM-5.586,14.038H-8.568V11.182h2.982Zm-4.214-4v5.138h5.516V10.034Zm-1.694,7.1V8.116h8.946v9.016ZM-12.838,6.786v12.32h1.344V18.35h8.946v.756h1.4V6.786ZM4.214,14.192,2.7,14.57V7.864H1.484v7c-.364.1-.7.168-.994.238l.294,1.316c.994-.266,2.226-.6,3.43-.938v3.612h1.26V6.324H4.214ZM12.18,7.22l-.238.042H6.034V8.55h5.53a16.763,16.763,0,0,1-1.918,5.39A18.486,18.486,0,0,1,7.868,8.634l-1.232.224A20.9,20.9,0,0,0,8.82,15.186,9.529,9.529,0,0,1,5.6,17.958a4.632,4.632,0,0,1,.91,1.12,11.189,11.189,0,0,0,3.108-2.66,9.694,9.694,0,0,0,3.066,2.674,5.119,5.119,0,0,1,.924-1.12,8.531,8.531,0,0,1-3.15-2.716,18.95,18.95,0,0,0,2.59-7.784Z" transform="translate(986 2543)" fill="#fff"/>
          </g>
        </g>
        <g id="header_logo" transform="translate(728.635 2435.023)">
          <g id="グループ_1" data-name="グループ 1" transform="translate(189.366 213.622)">
            <rect id="長方形_1" data-name="長方形 1" width="5.876" height="5.876" transform="translate(28.16 20.436)" fill="#009c86"/>
            <path id="パス_1" data-name="パス 1" d="M211.662,229.907v-5.876h4.669l-13.482-8.685-13.483,8.685h4.669v17.627h5.876v-5.876h5.876v-5.876h5.864v5.876h-5.864v5.876h5.876v-5.876h5.864v-5.876Z" transform="translate(-189.366 -215.347)" fill="#009c86"/>
          </g>
          <rect id="長方形_2" data-name="長方形 2" width="5.783" height="5.783" transform="translate(243.775 219.145) rotate(180)" fill="#009c86"/>
          <g id="グループ_2" data-name="グループ 2" transform="translate(226.383 212.977)">
            <path id="パス_2" data-name="パス 2" d="M346.384,219.711l-15.112.437a3.661,3.661,0,0,0,2.052-5.408l.066-.023,0,0,2.011-.693a.134.134,0,0,0,.083-.171c-.021-.06-.062-.087-.144-.089l-2.369.1-.421-.025A3.667,3.667,0,1,0,329.3,220.2h-.009v.007h0l-1,9.909-2.459,8.211h0l-.064.215-.326,1.089h0a.248.248,0,0,0,.237.319h5.471a.28.28,0,0,0,.28-.28V238.61a.279.279,0,0,0-.28-.279h-.586l2.1-7.01,6.415.978v7.313a.344.344,0,0,0,.344.344h5.46a.279.279,0,0,0,.279-.279V238.61a.279.279,0,0,0-.279-.279h-1.192v-9.374a.724.724,0,0,0-.614-.715l-9.806-1.494.208-2.05,13.046-.377a.364.364,0,0,0,.353-.374l-.112-3.883A.364.364,0,0,0,346.384,219.711Zm-18.692-2.5a2.57,2.57,0,0,1-.063-.516l.307-.106,4.3-1.479a2.559,2.559,0,0,1-1.481,4.033,2.558,2.558,0,0,1-3.066-1.931Z" transform="translate(-325.426 -212.977)" fill="#1a1311"/>
            <path id="パス_3" data-name="パス 3" d="M456.774,233.864H453.91V229.9a.388.388,0,0,0-.389-.389h-3.516a.388.388,0,0,0-.389.389v3.963H444.35a.389.389,0,0,0-.389.389v3.516a.389.389,0,0,0,.389.389h5.267v12.311h-1.042a.327.327,0,0,0-.327.327v.857a.327.327,0,0,0,.327.327h4.993a.342.342,0,0,0,.342-.342v-13.48h2.864a.388.388,0,0,0,.388-.389v-3.516A.388.388,0,0,0,456.774,233.864Z" transform="translate(-411.712 -225.013)" fill="#1a1311"/>
            <path id="パス_4" data-name="パス 4" d="M537,237.729h-2.576v-2.585a.322.322,0,0,0-.322-.322h-3.224a.322.322,0,0,0-.322.322v2.585h-4.234a.322.322,0,0,0-.322.322v3.65a.322.322,0,0,0,.322.322h4.234v6.294a3.623,3.623,0,0,1-3.623,3.623H526.3a.3.3,0,0,0-.3.3v3.271a.3.3,0,0,0,.3.3h.634a7.491,7.491,0,0,0,7.491-7.491v-6.294H537a.322.322,0,0,0,.322-.322v-3.65A.322.322,0,0,0,537,237.729Z" transform="translate(-471.431 -228.879)" fill="#1a1311"/>
            <path id="パス_5" data-name="パス 5" d="M590.058,239.81h3.714a.39.39,0,0,0,.391-.39v-3.884h3.477a.217.217,0,0,0,.217-.217v-6.4a.363.363,0,0,0-.363-.363h-.245v-.011H589.2v-3.314a.345.345,0,0,0-.345-.345h-3.414a.345.345,0,0,0-.345.345v3.314h-8.29a.363.363,0,0,0-.363.363v6.282a.345.345,0,0,0,.345.345h3.349v3.884a.39.39,0,0,0,.391.39H585.1v.9h-5.762a.348.348,0,0,0-.348.348v2.5a.347.347,0,0,0,.348.347H585.1v.84h-8.3a.348.348,0,0,0-.348.348v2.5a.348.348,0,0,0,.348.347h20.714a.348.348,0,0,0,.348-.347v-2.5a.348.348,0,0,0-.348-.348h-8.3v-.84h5.762a.347.347,0,0,0,.348-.347v-2.5a.348.348,0,0,0-.348-.348H589.2v-.9Zm-9.507-7.01v-.753h13.2v.753Zm3.694,3.549v-.088a.391.391,0,0,1,.391-.39h5.032a.39.39,0,0,1,.391.39v.088a.39.39,0,0,1-.391.39h-5.032A.391.391,0,0,1,584.245,236.349Z" transform="translate(-508.154 -221.647)" fill="#1a1311"/>
            <path id="パス_6" data-name="パス 6" d="M505.83,259.637h-.884V245.83a.321.321,0,0,0-.322-.322h-3.254a.322.322,0,0,0-.322.322v14.763a.417.417,0,0,0,.417.417h4.364a.358.358,0,0,0,.358-.358V260A.358.358,0,0,0,505.83,259.637Z" transform="translate(-453.269 -236.658)" fill="#1a1311"/>
            <path id="パス_7" data-name="パス 7" d="M448.943,275.167a2.033,2.033,0,1,0,2.033,2.033A2.033,2.033,0,0,0,448.943,275.167Z" transform="translate(-413.859 -258.247)" fill="#1a1311"/>
            <path id="パス_8" data-name="パス 8" d="M590.1,226.1a2.033,2.033,0,1,0-2.033-2.033A2.033,2.033,0,0,0,590.1,226.1Z" transform="translate(-516.612 -219.573)" fill="#1a1311"/>
            <path id="パス_9" data-name="パス 9" d="M630.607,226.1a2.033,2.033,0,1,0-2.033-2.033A2.033,2.033,0,0,0,630.607,226.1Z" transform="translate(-546.099 -219.573)" fill="#1a1311"/>
            <path id="パス_10" data-name="パス 10" d="M416.448,231.616l-3.184-1.606a.364.364,0,0,0-.489.162l-2.995,5.976-.013-.007-1.3,2.6a.365.365,0,0,0,.164.489l2.589,1.29v11.4a.4.4,0,0,0,.4.4h3.5a.4.4,0,0,0,.4-.4V239.335a.536.536,0,0,0-.3-.48l-1.6-.794,2.986-5.957A.363.363,0,0,0,416.448,231.616Z" transform="translate(-385.85 -225.348)" fill="#1a1311"/>
          </g>
          <g id="グループ_3" data-name="グループ 3" transform="translate(215.95 242.992)">
            <path id="パス_11" data-name="パス 11" d="M372.512,324.459h-.97v.759h.891v3.07h-.742v-.207h-1.962v.239h-.705v-3.1h.849v-.759h-.891V323.9c-.09.254-.191.5-.3.753l.18.059a.179.179,0,0,1-.154.106V328.4h-.732V325.96q-.135.2-.271.366a8.178,8.178,0,0,0-.313-.827,6.526,6.526,0,0,0,.992-2.137l.827.276c-.021.048-.074.074-.159.069l-.021.059h3.484Zm-2.784,1.427v1.538h.218v-1.538Zm1.087,0h-.228v1.538h.228Zm0-.668v-.759h-.223v.759Zm.875,2.206v-1.538h-.233v1.538Z" transform="translate(-345.54 -323.345)" fill="#1a1311"/>
            <path id="パス_12" data-name="パス 12" d="M397.019,323.838l.5.228a.189.189,0,0,1-.079.09,3.949,3.949,0,0,1-.759,1.347,3.424,3.424,0,0,0,1.135.541,3.462,3.462,0,0,0-.435.567v1.718h-.742v-.138h-.907v.159h-.71v-1.644l-.239.1a2.437,2.437,0,0,0-.223-.366l-.2.287c-.048-.127-.122-.292-.2-.461v2.084h-.727V326.6a3.866,3.866,0,0,1-.429.854,3.969,3.969,0,0,0-.345-.705,4.764,4.764,0,0,0,.722-1.655h-.594v-.711h.647v-1.071l.88.048c-.005.058-.053.09-.154.111v.912h.541v.324a4.19,4.19,0,0,0,.859-1.4l.827.27a.148.148,0,0,1-.153.064c-.032.074-.069.154-.106.228h.774Zm-2.864,1.252v.175c.122.149.419.573.562.785a4.122,4.122,0,0,0,.923-.546,4.508,4.508,0,0,1-.313-.424,3.3,3.3,0,0,1-.355.366,4.126,4.126,0,0,0-.371-.355Zm2.445,1.241a3.766,3.766,0,0,1-.44-.318,4.218,4.218,0,0,1-.435.318Zm-.87,1.2h.907v-.562h-.907Zm.016-3.017a3.39,3.39,0,0,0,.387.509,3,3,0,0,0,.356-.509Z" transform="translate(-363.931 -323.303)" fill="#1a1311"/>
            <path id="パス_13" data-name="パス 13" d="M419.142,330.594a.742.742,0,1,1-.742-.742A.745.745,0,0,1,419.142,330.594Z" transform="translate(-382.132 -328.07)" fill="#1a1311"/>
            <path id="パス_14" data-name="パス 14" d="M432.29,326.724a4.216,4.216,0,0,1,1.336.615,1.67,1.67,0,0,1-.382.833,3.214,3.214,0,0,0-.918-.631v.011c0,.525-.387.88-1.151.88-.811,0-1.347-.35-1.347-.955,0-.52.509-.9,1.347-.9.106,0,.212.005.313.011l-.021-.424c-.472.011-.939.005-1.3-.016a2.665,2.665,0,0,1-.138-.8,8.668,8.668,0,0,0,.938.064c.144,0,.308,0,.477-.005V324.9a10.9,10.9,0,0,1-1.1-.032,2.507,2.507,0,0,1-.128-.753,5.913,5.913,0,0,0,.87.074c.111,0,.239,0,.371-.005v-.064c.005-.286,0-.408-.011-.572a4.2,4.2,0,0,1,.843.063q-.024.263-.032.541a6.168,6.168,0,0,0,.87-.116,2.443,2.443,0,0,1-.011.737,7.632,7.632,0,0,1-.886.1c-.005.159-.005.313-.005.472v.027a7.628,7.628,0,0,0,1.082-.159,2.807,2.807,0,0,1-.011.79,9.136,9.136,0,0,1-1.04.122Zm-.775.557a2.472,2.472,0,0,0-.44-.037c-.265,0-.451.074-.451.223,0,.133.127.233.43.233S431.511,327.583,431.516,327.281Z" transform="translate(-390.993 -323.479)" fill="#1a1311"/>
            <path id="パス_15" data-name="パス 15" d="M450.138,326.518a1,1,0,0,0-.154.477c0,.239.164.477.933.477a4.444,4.444,0,0,0,1.756-.334,2.472,2.472,0,0,1,.212.88,5.311,5.311,0,0,1-1.935.308c-1.135,0-1.878-.414-1.878-1.14a2.347,2.347,0,0,1,.249-.95A3.157,3.157,0,0,1,450.138,326.518Zm-.621-2.461a9.4,9.4,0,0,0,2.779.032,3.919,3.919,0,0,1-.016.833,10.862,10.862,0,0,1-2.72,0A3.757,3.757,0,0,1,449.518,324.058Zm3.537.461a1.612,1.612,0,0,1-.424.175,3.776,3.776,0,0,0-.307-.721,2.219,2.219,0,0,1,.408-.175A3.591,3.591,0,0,1,453.055,324.519Zm.594-.255a1.674,1.674,0,0,1-.419.18,3.289,3.289,0,0,0-.313-.695,2.412,2.412,0,0,1,.408-.175A2.548,2.548,0,0,1,453.649,324.264Z" transform="translate(-405 -323.501)" fill="#1a1311"/>
            <path id="パス_16" data-name="パス 16" d="M471.1,327.811a1,1,0,0,0-.153.477c0,.239.164.477.933.477a4.438,4.438,0,0,0,1.755-.334,2.46,2.46,0,0,1,.213.88,5.312,5.312,0,0,1-1.936.308c-1.134,0-1.877-.414-1.877-1.14a2.259,2.259,0,0,1,.249-.949A3.151,3.151,0,0,1,471.1,327.811Zm-.62-2.461a10.5,10.5,0,0,0,2.938.032,3.94,3.94,0,0,1-.016.833,12.208,12.208,0,0,1-2.885,0A4.115,4.115,0,0,1,470.482,325.35Z" transform="translate(-420.261 -324.793)" fill="#1a1311"/>
            <path id="パス_17" data-name="パス 17" d="M490,324.241a12.076,12.076,0,0,0,1.9-.159,2.056,2.056,0,0,1,.323.568,14.727,14.727,0,0,0-1.352,1.246,1.907,1.907,0,0,1,.589-.09,1.4,1.4,0,0,1,1.517,1.347c-.006,1.034-.806,1.83-2.62,1.65a2.717,2.717,0,0,1-.276-.9c1.167.207,2.01.021,2.01-.763,0-.345-.265-.674-.854-.674a2.366,2.366,0,0,0-1.835,1.278,2.44,2.44,0,0,1-.61-.689c.557-.62,1.623-1.66,2.1-2.143-.244.042-.806.1-1.188.122a3.012,3.012,0,0,1-.191-.806C489.608,324.236,489.8,324.241,490,324.241Z" transform="translate(-433.909 -323.87)" fill="#1a1311"/>
            <path id="パス_18" data-name="パス 18" d="M289.541,326.724a4.215,4.215,0,0,1,1.336.615,1.671,1.671,0,0,1-.382.833,3.211,3.211,0,0,0-.917-.631v.011c0,.525-.387.88-1.151.88-.811,0-1.347-.35-1.347-.955,0-.52.509-.9,1.347-.9.106,0,.212.005.313.011l-.021-.424c-.472.011-.939.005-1.3-.016a2.658,2.658,0,0,1-.138-.8,8.665,8.665,0,0,0,.938.064c.144,0,.308,0,.477-.005V324.9a10.911,10.911,0,0,1-1.1-.032,2.507,2.507,0,0,1-.127-.753,5.91,5.91,0,0,0,.87.074c.112,0,.239,0,.371-.005v-.064c.005-.286,0-.408-.011-.572a4.207,4.207,0,0,1,.843.063q-.024.263-.032.541a6.173,6.173,0,0,0,.87-.116,2.44,2.44,0,0,1-.011.737,7.629,7.629,0,0,1-.886.1c-.005.159-.005.313-.005.472v.027a7.618,7.618,0,0,0,1.082-.159,2.8,2.8,0,0,1-.01.79,9.136,9.136,0,0,1-1.04.122Zm-.775.557a2.473,2.473,0,0,0-.44-.037c-.265,0-.451.074-.451.223,0,.133.127.233.43.233S288.761,327.583,288.766,327.281Z" transform="translate(-287.08 -323.479)" fill="#1a1311"/>
            <path id="パス_19" data-name="パス 19" d="M307.389,326.518a1,1,0,0,0-.154.477c0,.239.164.477.933.477a4.441,4.441,0,0,0,1.755-.334,2.461,2.461,0,0,1,.212.88,5.31,5.31,0,0,1-1.935.308c-1.135,0-1.878-.414-1.878-1.14a2.348,2.348,0,0,1,.249-.95A3.16,3.16,0,0,1,307.389,326.518Zm-.621-2.461a9.4,9.4,0,0,0,2.779.032,3.939,3.939,0,0,1-.016.833,10.862,10.862,0,0,1-2.72,0A3.764,3.764,0,0,1,306.769,324.058Zm3.537.461a1.612,1.612,0,0,1-.424.175,3.772,3.772,0,0,0-.308-.721,2.22,2.22,0,0,1,.408-.175A3.606,3.606,0,0,1,310.306,324.519Zm.594-.255a1.673,1.673,0,0,1-.419.18,3.292,3.292,0,0,0-.313-.695,2.424,2.424,0,0,1,.409-.175A2.549,2.549,0,0,1,310.9,324.264Z" transform="translate(-301.088 -323.501)" fill="#1a1311"/>
            <path id="パス_20" data-name="パス 20" d="M328.353,327.811a1,1,0,0,0-.154.477c0,.239.164.477.933.477a4.439,4.439,0,0,0,1.755-.334,2.461,2.461,0,0,1,.212.88,5.313,5.313,0,0,1-1.936.308c-1.135,0-1.877-.414-1.877-1.14a2.259,2.259,0,0,1,.249-.949A3.153,3.153,0,0,1,328.353,327.811Zm-.621-2.461a10.5,10.5,0,0,0,2.938.032,3.979,3.979,0,0,1-.016.833,12.207,12.207,0,0,1-2.885,0A4.126,4.126,0,0,1,327.732,325.35Z" transform="translate(-316.348 -324.793)" fill="#1a1311"/>
            <path id="パス_21" data-name="パス 21" d="M347.246,324.241a12.071,12.071,0,0,0,1.9-.159,2.048,2.048,0,0,1,.323.568,14.734,14.734,0,0,0-1.352,1.246,1.906,1.906,0,0,1,.589-.09,1.4,1.4,0,0,1,1.516,1.347c-.005,1.034-.806,1.83-2.62,1.65a2.717,2.717,0,0,1-.276-.9c1.167.207,2.01.021,2.01-.763,0-.345-.265-.674-.854-.674a2.365,2.365,0,0,0-1.835,1.278,2.439,2.439,0,0,1-.61-.689c.557-.62,1.623-1.66,2.1-2.143-.244.042-.806.1-1.188.122a3.013,3.013,0,0,1-.191-.806C346.859,324.236,347.05,324.241,347.246,324.241Z" transform="translate(-329.997 -323.87)" fill="#1a1311"/>
            <path id="パス_22" data-name="パス 22" d="M514.417,329.279a2.1,2.1,0,0,1-.658.658,9.3,9.3,0,0,0-1.262-1.421,6.24,6.24,0,0,1-1.936,1.389,3.726,3.726,0,0,1-.652-.742,5.156,5.156,0,0,0,2.116-1.363,3.75,3.75,0,0,0,.764-1.135c-.642.005-1.9.042-2.286.058a5.7,5.7,0,0,1-.1-.832c.17.016.382.026.551.026.281,0,1.851-.026,2.19-.042a3.47,3.47,0,0,0,.4-.037,1.9,1.9,0,0,1,.451.445,8.852,8.852,0,0,1-.954,1.591A10.483,10.483,0,0,1,514.417,329.279Z" transform="translate(-449.286 -325.148)" fill="#1a1311"/>
            <path id="パス_23" data-name="パス 23" d="M534.826,324.512a2.607,2.607,0,0,0,.408-.037,2.228,2.228,0,0,1,.483.392,5.607,5.607,0,0,1-.885,1.83c.164.138.318.281.467.424a1.659,1.659,0,0,1-.594.653c-.127-.138-.276-.286-.435-.435a4.776,4.776,0,0,1-1.867,1.177,2.52,2.52,0,0,1-.721-.705,4.41,4.41,0,0,0,1.973-1,8.872,8.872,0,0,0-.806-.573,4.048,4.048,0,0,1,.536-.551,8.639,8.639,0,0,1,.827.525,3.107,3.107,0,0,0,.5-1.007l-1.341.021a5.311,5.311,0,0,1-1.241,1.214,1.886,1.886,0,0,1-.711-.562,4.052,4.052,0,0,0,1.877-2.228,2.193,2.193,0,0,1,.806.361,3.856,3.856,0,0,1-.26.51c.827-.005.981-.016.981-.016Z" transform="translate(-464.945 -323.558)" fill="#1a1311"/>
            <path id="パス_24" data-name="パス 24" d="M552.663,329.963a3.072,3.072,0,0,1-.679.313,10.149,10.149,0,0,0-.493-1.023c.138-.074.52-.244.668-.3A9.017,9.017,0,0,1,552.663,329.963Zm2.487-.843a4.76,4.76,0,0,1-.727,1.724A3.474,3.474,0,0,1,552.859,332a2.651,2.651,0,0,1-.615-.626,2.866,2.866,0,0,0,1.538-.976,3.1,3.1,0,0,0,.6-1.628A2.814,2.814,0,0,1,555.15,329.119Zm-1.368.451a3.561,3.561,0,0,1-.689.3,9.293,9.293,0,0,0-.456-1.039,6.266,6.266,0,0,1,.679-.281A10.388,10.388,0,0,1,553.782,329.57Z" transform="translate(-479.555 -327.12)" fill="#1a1311"/>
            <path id="パス_25" data-name="パス 25" d="M572.84,328.578a4.376,4.376,0,0,1-2.079,1.612,2.561,2.561,0,0,1-.758-.785,3.442,3.442,0,0,0,1.962-1.119,3.036,3.036,0,0,0,.62-1.384c-.541.005-2.524.032-2.98.043a6.181,6.181,0,0,1-.08-.891c.249.021.531.037.711.037.35,0,2.153-.021,2.5-.027a2.89,2.89,0,0,0,.4-.032,2.256,2.256,0,0,1,.514.408A6.172,6.172,0,0,1,572.84,328.578Z" transform="translate(-492.683 -325.289)" fill="#1a1311"/>
          </g>
        </g>
      </g>
    </g>
  </g>
</svg>
