<svg xmlns="http://www.w3.org/2000/svg" width="445" height="279" viewBox="0 0 445 279">
  <g id="reason_02" transform="translate(-625 -39.98)">
    <rect id="長方形_29507" data-name="長方形 29507" width="445" height="279" rx="20" transform="translate(625 39.98)" fill="#fff"/>
    <g id="ico_flow03" transform="translate(773.184 107.237)">
      <g id="グループ_4304" data-name="グループ 4304" transform="translate(-70.323 -20.725)">
        <rect id="長方形_2729" data-name="長方形 2729" width="132.8" height="23.978" rx="2" transform="translate(5.533 121.733)" fill="#ffd800"/>
        <path id="パス_80028" data-name="パス 80028" d="M29.15,1.59C44.414,1.59,52.47-8.586,52.47-23V-61.9c0-15.052-7.314-25.228-23.32-25.228C13.038-87.132,5.724-76.956,5.724-61.9V-23C5.724-8.374,13.674,1.59,29.15,1.59Zm0-15.794c-4.876,0-5.3-5.936-5.3-9.222V-61.48c0-3.5-.106-9.858,5.3-9.858,5.3,0,5.3,6.36,5.3,9.858v38.054C34.45-20.14,34.132-14.2,29.15-14.2Z" transform="translate(20.289 126)" fill="#1a1311"/>
        <path id="パス_80027" data-name="パス 80027" d="M5.226,2.886a2.072,2.072,0,0,1-1.541-.663A2.167,2.167,0,0,1,3.042.663V-28.353a2.167,2.167,0,0,1,.644-1.56,2.072,2.072,0,0,1,1.541-.663H33.774a2.072,2.072,0,0,1,1.541.663,2.167,2.167,0,0,1,.643,1.56v24.1q0,1.794-.058,2.808A8.156,8.156,0,0,1,35.568.468a3.472,3.472,0,0,1-.624,1.287,2.735,2.735,0,0,1-1.209.663,7.42,7.42,0,0,1-1.794.331q-.936.059-2.613.059-2.184,0-4.329-.078a2.324,2.324,0,0,1-1.6-.7,2.486,2.486,0,0,1-.741-1.6L22.62-.39a1.953,1.953,0,0,1,.585-1.5,1.914,1.914,0,0,1,1.521-.6q1.716.078,3.276.078a3.246,3.246,0,0,0,1.521-.195q.234-.195.234-1.365v-6.747a.276.276,0,0,0-.312-.312H9.555a.276.276,0,0,0-.312.312V.663a2.135,2.135,0,0,1-.663,1.56,2.135,2.135,0,0,1-1.56.663ZM22.542-25v8.541q0,.351.312.351h6.591q.312,0,.312-.351V-25q0-.351-.312-.351H22.854Q22.542-25.35,22.542-25Zm-13.3,0v8.541q0,.351.312.351h6.591a.31.31,0,0,0,.351-.351V-25a.31.31,0,0,0-.351-.351H9.555Q9.243-25.35,9.243-25Z" transform="translate(83 125)" fill="#1a1311"/>
        <path id="パス_80026" data-name="パス 80026" d="M2.88-2.92a1.073,1.073,0,0,1-.81-.31,1.119,1.119,0,0,1-.37-.79l-.02-.64a1.042,1.042,0,0,1,.31-.8,1.135,1.135,0,0,1,.79-.36l5.46-.2q.16,0,.16-.18L8.1-9.54q0-.16-.18-.16l-4.24.14a1.089,1.089,0,0,1-.81-.3,1.085,1.085,0,0,1-.37-.78l-.02-.64a1.073,1.073,0,0,1,.31-.81,1.119,1.119,0,0,1,.79-.37l4.08-.14a.141.141,0,0,0,.16-.16l-.16-1.8a1.057,1.057,0,0,1,.26-.81,1.089,1.089,0,0,1,.76-.39l1.14-.1a1.175,1.175,0,0,1,.83.29,1.1,1.1,0,0,1,.41.77l.16,1.92q0,.16.18.16l4.96-.18a1.073,1.073,0,0,1,.81.31,1.119,1.119,0,0,1,.37.79l.02.62a1.073,1.073,0,0,1-.31.81,1.119,1.119,0,0,1-.79.37l-4.8.16q-.14,0-.14.18l.3,3.36q0,.16.18.16l5.16-.18a1.073,1.073,0,0,1,.81.31,1.119,1.119,0,0,1,.37.79l.02.62a1.073,1.073,0,0,1-.31.81,1.119,1.119,0,0,1-.79.37l-5,.16q-.16,0-.16.18L12.38.16a1.057,1.057,0,0,1-.26.81,1.089,1.089,0,0,1-.76.39l-1.14.1a1.175,1.175,0,0,1-.83-.29A1.1,1.1,0,0,1,8.98.4l-.3-3.36q0-.16-.18-.16Zm20-3.96-.08-.46a1.1,1.1,0,0,1,.18-.84,1.132,1.132,0,0,1,.72-.48l2.1-.42q.18-.04.14-.2l-.3-1.66a1.108,1.108,0,0,1,.19-.85,1.082,1.082,0,0,1,.73-.47l.72-.12a1.086,1.086,0,0,1,.85.2,1.117,1.117,0,0,1,.47.74l.28,1.58q.04.18.2.14l6.3-1.26a1.1,1.1,0,0,1,.84.18,1.132,1.132,0,0,1,.48.72l.08.46a3.952,3.952,0,0,1-.12,2.18,13.294,13.294,0,0,1-2.24,3.96,1.1,1.1,0,0,1-.8.41,1.221,1.221,0,0,1-.86-.27l-.48-.36a.939.939,0,0,1-.4-.71,1.115,1.115,0,0,1,.24-.81,13.011,13.011,0,0,0,1.62-2.5q.04-.04,0-.1a.081.081,0,0,0-.1-.04l-4.1.82q-.18.04-.14.2L30.54-.4a1.108,1.108,0,0,1-.19.85,1.082,1.082,0,0,1-.73.47l-.72.12a1.086,1.086,0,0,1-.85-.2A1.117,1.117,0,0,1,27.58.1L26.46-6.26q-.04-.18-.2-.14l-2.06.42a1.1,1.1,0,0,1-.84-.18A1.132,1.132,0,0,1,22.88-6.88Zm20.26-4.94a1.027,1.027,0,0,1-.56-.64,1.028,1.028,0,0,1,.08-.84l.46-.9a1.135,1.135,0,0,1,.67-.57,1.179,1.179,0,0,1,.89.05q2.06.98,4.22,2.1a1,1,0,0,1,.55.66,1.1,1.1,0,0,1-.09.86l-.52.9a1.111,1.111,0,0,1-.67.54,1.1,1.1,0,0,1-.87-.08Q45.22-10.82,43.14-11.82Zm14.2-.98a1.121,1.121,0,0,1,.72.49,1.066,1.066,0,0,1,.16.85,14.481,14.481,0,0,1-4.63,8.18A17.6,17.6,0,0,1,44.18.38a1.134,1.134,0,0,1-.86-.23,1.177,1.177,0,0,1-.46-.77l-.14-.92a1,1,0,0,1,.2-.81,1.067,1.067,0,0,1,.74-.43,15.2,15.2,0,0,0,7.61-2.9,11.96,11.96,0,0,0,3.85-6.46,1.161,1.161,0,0,1,.51-.71,1.088,1.088,0,0,1,.85-.15Zm3.18,3.54-.1-.74a1.092,1.092,0,0,1,.22-.83,1.142,1.142,0,0,1,.74-.45l3.12-.48a.189.189,0,0,0,.16-.2V-14.6a1.1,1.1,0,0,1,.34-.8,1.1,1.1,0,0,1,.8-.34h.96a1.1,1.1,0,0,1,.8.34,1.1,1.1,0,0,1,.34.8v2.16q0,.18.16.14l8.62-1.32a1.038,1.038,0,0,1,.84.21,1.089,1.089,0,0,1,.44.75l.12.74a3.362,3.362,0,0,1-.34,2.12,18.051,18.051,0,0,1-3.76,4.76,1.051,1.051,0,0,1-.82.29,1.232,1.232,0,0,1-.82-.37l-.6-.62a1.032,1.032,0,0,1-.3-.78,1.081,1.081,0,0,1,.36-.76,17.256,17.256,0,0,0,2.46-2.78.067.067,0,0,0,.01-.09q-.03-.05-.07-.03l-6.14.92a.189.189,0,0,0-.16.2v4.14q0,.68.02,1.07a2.834,2.834,0,0,0,.13.73,1.322,1.322,0,0,0,.24.48,1.114,1.114,0,0,0,.46.25,2.612,2.612,0,0,0,.68.13q.35.02.99.02a49.451,49.451,0,0,0,5.88-.34,1.042,1.042,0,0,1,.82.23.977.977,0,0,1,.38.75l.02.64a1.15,1.15,0,0,1-.26.85,1.08,1.08,0,0,1-.78.41,62.581,62.581,0,0,1-6.9.36Q66.74.66,65.7-.35T64.66-4.24V-8.56a.188.188,0,0,0-.05-.12.1.1,0,0,0-.11-.04l-2.7.42a1.038,1.038,0,0,1-.84-.21A1.089,1.089,0,0,1,60.52-9.26ZM90.06.8a1,1,0,0,1-.79-.32,1.111,1.111,0,0,1-.33-.8V-14.1a1.111,1.111,0,0,1,.33-.8,1.062,1.062,0,0,1,.79-.34h1.08a1.062,1.062,0,0,1,.79.34,1.111,1.111,0,0,1,.33.8V-2.76q0,.14.18.1a3.972,3.972,0,0,0,2.08-1.65A8.931,8.931,0,0,0,95.6-7.66a1.2,1.2,0,0,1,.44-.75,1.042,1.042,0,0,1,.82-.23l.82.12a1.124,1.124,0,0,1,.76.44,1.082,1.082,0,0,1,.24.84,9.7,9.7,0,0,1-2.69,5.96A8.949,8.949,0,0,1,90.06.8ZM81.24.12,80.7-.72a1.015,1.015,0,0,1-.13-.82,1.07,1.07,0,0,1,.51-.68,5.222,5.222,0,0,0,1.3-1.08,4.264,4.264,0,0,0,.74-1.61,12.179,12.179,0,0,0,.36-2.41q.08-1.36.08-3.78v-3a1.1,1.1,0,0,1,.34-.8,1.1,1.1,0,0,1,.8-.34h1a1.1,1.1,0,0,1,.8.34,1.1,1.1,0,0,1,.34.8v3a37.33,37.33,0,0,1-.37,5.93,9.312,9.312,0,0,1-1.2,3.48A6.988,6.988,0,0,1,82.88.52a1.155,1.155,0,0,1-.89.12A1.273,1.273,0,0,1,81.24.12Zm29.44-5.64q-.92-1-2.44-2.48a1.016,1.016,0,0,1-.31-.77,1.054,1.054,0,0,1,.35-.77l.4-.38a1.238,1.238,0,0,1,.85-.32,1.166,1.166,0,0,1,.83.32q1.04.98,2.4,2.4a1.083,1.083,0,0,1,.3.82,1.121,1.121,0,0,1-.36.8l-.44.42a1.04,1.04,0,0,1-.79.31A1.075,1.075,0,0,1,110.68-5.52Zm7.02.32a1.015,1.015,0,0,1,.81.19.968.968,0,0,1,.41.73l.04.42a1.267,1.267,0,0,1-.24.87,1.129,1.129,0,0,1-.76.47l-.52.1a.189.189,0,0,0-.16.2V.8a1.1,1.1,0,0,1-.34.8,1.1,1.1,0,0,1-.8.34h-.82a1.1,1.1,0,0,1-.8-.34,1.1,1.1,0,0,1-.34-.8V-1.64a.143.143,0,0,0-.06-.11.121.121,0,0,0-.12-.03l-5.08.96a1.035,1.035,0,0,1-.81-.18.938.938,0,0,1-.41-.72l-.04-.44a1.192,1.192,0,0,1,.14-.72,1.287,1.287,0,0,1-.24.3l-.08.08a.748.748,0,0,1-.71.19.761.761,0,0,1-.57-.47q-.1-.24-.31-.72t-.31-.72a.058.058,0,0,0-.04-.02q-.02,0-.02.04v5a1.1,1.1,0,0,1-.34.8,1.1,1.1,0,0,1-.8.34h-.54a1.062,1.062,0,0,1-.79-.34,1.111,1.111,0,0,1-.33-.8V-3.32a.032.032,0,0,0-.02-.03.033.033,0,0,0-.04.01A13.5,13.5,0,0,1,101.44-.8a.53.53,0,0,1-.56.27.6.6,0,0,1-.5-.39l-.38-1a2.1,2.1,0,0,1,.3-1.98,15.071,15.071,0,0,0,1.78-3.38q.04-.16-.12-.16h-.74a1.078,1.078,0,0,1-.79-.33,1.078,1.078,0,0,1-.33-.79v-.26a1.078,1.078,0,0,1,.33-.79,1.078,1.078,0,0,1,.79-.33h1.38a.159.159,0,0,0,.18-.18v-.58q0-.14-.16-.1l-.54.18a.981.981,0,0,1-.83-.05,1,1,0,0,1-.53-.65q-.44-1.72-.62-2.36a1.08,1.08,0,0,1,.08-.86,1.174,1.174,0,0,1,.68-.58,1,1,0,0,1,.85.06,1.03,1.03,0,0,1,.53.66q.2.7.5,1.96a.058.058,0,0,0,.04-.02V-15.2a1.1,1.1,0,0,1,.34-.8,1.1,1.1,0,0,1,.8-.34h.38a1.1,1.1,0,0,1,.8.34,1.1,1.1,0,0,1,.34.8v2.66q0,.02.03.02t.03-.02a19.141,19.141,0,0,0,.5-1.94,1.121,1.121,0,0,1,.49-.72,1.066,1.066,0,0,1,.85-.16h.06a1.111,1.111,0,0,1,.72.5,1,1,0,0,1,.14.84q-.34,1.44-.76,2.72a1.027,1.027,0,0,1-.56.64,1.073,1.073,0,0,1-.86.04l-.48-.2q-.16-.04-.16.12v.58a.159.159,0,0,0,.18.18h1a1.111,1.111,0,0,1,.8.33,1.062,1.062,0,0,1,.34.79v.26a1.062,1.062,0,0,1-.34.79,1.111,1.111,0,0,1-.8.33h-.12a.1.1,0,0,0-.09.05.067.067,0,0,0,.01.09q.5.96,1.48,2.92a1.46,1.46,0,0,1-.06,1.42,1.154,1.154,0,0,1,.82-.54l5.34-1a.2.2,0,0,0,.18-.2v-6.92a.084.084,0,0,0-.05-.07q-.05-.03-.07.01l-.9.86a1.07,1.07,0,0,1-.81.3,1.111,1.111,0,0,1-.79-.36q-.98-1.04-1.88-1.92a1.084,1.084,0,0,1-.34-.79,1.02,1.02,0,0,1,.34-.77l.42-.38a1.238,1.238,0,0,1,.85-.32,1.129,1.129,0,0,1,.83.34q1.3,1.24,2.28,2.3.02.04.07.02t.05-.06V-15.2a1.1,1.1,0,0,1,.34-.8,1.1,1.1,0,0,1,.8-.34h.82a1.1,1.1,0,0,1,.8.34,1.1,1.1,0,0,1,.34.8v9.9q0,.18.16.14Z" transform="translate(0 21)" fill="#1a1311"/>
      </g>
      <path id="パス_2178" data-name="パス 2178" d="M14.8,47.875.1,157.774c-.883,6.6,4.076,11.948,11.075,11.948h99.47c7,0,13.392-5.348,14.274-11.948l14.7-109.9Zm0,0" transform="translate(59.386 -14.687)" fill="#c9b77d"/>
      <path id="パス_2179" data-name="パス 2179" d="M192.153,167.107,172.418,47.867H47.6L67.333,167.107c1.17,7.062,7.722,12.787,14.635,12.787H181.75C188.664,179.893,193.322,174.168,192.153,167.107Zm0,0" transform="translate(26.623 -14.682)" fill="#ffeead"/>
      <path id="パス_2180" data-name="パス 2180" d="M172.418,47.867H47.6l5.14,31.053H177.556Zm0,0" transform="translate(26.623 -14.682)" fill="#03a58e"/>
      <path id="パス_2181" data-name="パス 2181" d="M407.328,208.754h-11l1.859,11.232h11Zm0,0" transform="translate(-213.424 -125.426)" fill="#ff6f69"/>
      <g id="グループ_592" data-name="グループ 592" transform="translate(95.958 83.328)">
        <path id="パス_2182" data-name="パス 2182" d="M360.828,208.754h-11l1.859,11.232h11Zm0,0" transform="translate(-277.375 -208.754)" fill="#96ceb4"/>
        <path id="パス_2183" data-name="パス 2183" d="M314.328,208.754h-11l1.859,11.232h11Zm0,0" transform="translate(-245.367 -208.754)" fill="#96ceb4"/>
        <path id="パス_2184" data-name="パス 2184" d="M267.836,208.754h-11l1.859,11.232h11Zm0,0" transform="translate(-213.364 -208.754)" fill="#96ceb4"/>
        <path id="パス_2185" data-name="パス 2185" d="M221.336,208.754h-11l1.859,11.232h11Zm0,0" transform="translate(-181.357 -208.754)" fill="#96ceb4"/>
        <path id="パス_2186" data-name="パス 2186" d="M174.837,208.754h-11l1.859,11.232h11Zm0,0" transform="translate(-149.349 -208.754)" fill="#96ceb4"/>
        <path id="パス_2187" data-name="パス 2187" d="M128.339,208.754h-11l1.859,11.232h11Zm0,0" transform="translate(-117.344 -208.754)" fill="#96ceb4"/>
      </g>
      <path id="パス_2188" data-name="パス 2188" d="M415.01,255.176h-11l1.859,11.233h11Zm0,0" transform="translate(-218.71 -157.38)" fill="#ff6f69"/>
      <path id="パス_2189" data-name="パス 2189" d="M368.515,255.176h-11l1.859,11.233h11Zm0,0" transform="translate(-186.708 -157.38)" fill="#96ceb4"/>
      <path id="パス_2190" data-name="パス 2190" d="M322.015,255.176h-11l1.859,11.233h11Zm0,0" transform="translate(-154.7 -157.38)" fill="#96ceb4"/>
      <path id="パス_2191" data-name="パス 2191" d="M275.516,255.176h-11l1.86,11.233h11Zm0,0" transform="translate(-122.692 -157.38)" fill="#96ceb4"/>
      <path id="パス_2192" data-name="パス 2192" d="M229.019,255.176h-11l1.859,11.233h11Zm0,0" transform="translate(-90.687 -157.38)" fill="#96ceb4"/>
      <path id="パス_2193" data-name="パス 2193" d="M182.519,255.176h-11l1.859,11.233h11Zm0,0" transform="translate(-58.68 -157.38)" fill="#96ceb4"/>
      <path id="パス_2194" data-name="パス 2194" d="M136.022,255.176h-11l1.86,11.233h11Zm0,0" transform="translate(-26.672 -157.38)" fill="#96ceb4"/>
      <path id="パス_2195" data-name="パス 2195" d="M422.695,301.6h-11l1.859,11.232h11Zm0,0" transform="translate(-224.002 -189.337)" fill="#ff6f69"/>
      <path id="パス_2196" data-name="パス 2196" d="M376.2,301.6h-11l1.86,11.232h11Zm0,0" transform="translate(-191.994 -189.337)" fill="#96ceb4"/>
      <path id="パス_2197" data-name="パス 2197" d="M329.7,301.6h-11l1.859,11.232h11Zm0,0" transform="translate(-159.989 -189.337)" fill="#96ceb4"/>
      <path id="パス_2198" data-name="パス 2198" d="M283.2,301.6h-11l1.859,11.232h11Zm0,0" transform="translate(-127.981 -189.337)" fill="#96ceb4"/>
      <path id="パス_2199" data-name="パス 2199" d="M236.7,301.6h-11l1.86,11.232h11Zm0,0" transform="translate(-95.974 -189.337)" fill="#96ceb4"/>
      <path id="パス_2200" data-name="パス 2200" d="M190.2,301.6h-11l1.859,11.232h11Zm0,0" transform="translate(-63.968 -189.337)" fill="#96ceb4"/>
      <path id="パス_2201" data-name="パス 2201" d="M143.7,301.6h-11l1.859,11.232h11Zm0,0" transform="translate(-31.961 -189.337)" fill="#96ceb4"/>
      <path id="パス_2202" data-name="パス 2202" d="M430.379,348.023h-11l1.859,11.231h11Zm0,0" transform="translate(-229.291 -221.291)" fill="#ff6f69"/>
      <path id="パス_2203" data-name="パス 2203" d="M383.879,348.023h-11l1.859,11.231h11Zm0,0" transform="translate(-197.283 -221.291)" fill="#96ceb4"/>
      <path id="パス_2204" data-name="パス 2204" d="M337.384,348.023h-11l1.859,11.231h11Zm0,0" transform="translate(-165.278 -221.291)" fill="#96ceb4"/>
      <path id="パス_2205" data-name="パス 2205" d="M290.884,348.023h-11l1.859,11.231h11Zm0,0" transform="translate(-133.27 -221.291)" fill="#96ceb4"/>
      <path id="パス_2206" data-name="パス 2206" d="M244.384,348.023h-11l1.859,11.231h11Zm0,0" transform="translate(-101.262 -221.291)" fill="#96ceb4"/>
      <path id="パス_2207" data-name="パス 2207" d="M197.89,348.023h-11l1.859,11.231h11Zm0,0" transform="translate(-69.26 -221.291)" fill="#96ceb4"/>
      <path id="パス_2208" data-name="パス 2208" d="M151.39,348.023h-11l1.859,11.231h11Zm0,0" transform="translate(-37.252 -221.291)" fill="#96ceb4"/>
      <path id="パス_2209" data-name="パス 2209" d="M389.618,78.91c-1.953,0-3.451,1.987-3.348,4.436s1.775,4.436,3.728,4.436,3.453-1.987,3.348-4.436S391.571,78.91,389.618,78.91Zm0,0" transform="translate(-206.495 -36.05)" fill="#025035"/>
      <path id="パス_2210" data-name="パス 2210" d="M383.674,70.262c-3.405,0-6.038,3.2-5.87,7.132s3.076,7.132,6.482,7.132,6.037-3.2,5.87-7.132S387.079,70.262,383.674,70.262Zm.494,11.568c-1.953,0-3.622-1.987-3.728-4.436s1.393-4.436,3.348-4.436,3.622,1.987,3.728,4.436S386.123,81.83,384.168,81.83Zm0,0" transform="translate(-200.665 -30.097)" fill="#016e48"/>
      <path id="パス_2211" data-name="パス 2211" d="M365.107.5c-5.475,0-9.536,6.379-9.571,14.762h5c.1-5.6,2.49-9.373,4.8-9.373,2.48,0,5.429,4.369,5.7,10.64.223,5.187-1.5,9.073-3.507,10.262a2.566,2.566,0,0,0-1.193,2.351c.084,1.971,2.081,3.372,3.662,2.46,3.845-2.216,6.342-8.05,6.04-15.073C375.651,7.542,370.852.5,365.107.5Zm0,0" transform="translate(-185.342 17.923)" fill="#c9b77d"/>
      <path id="パス_2212" data-name="パス 2212" d="M317.575,78.91c-1.953,0-3.453,1.987-3.348,4.436s1.775,4.436,3.728,4.436,3.451-1.987,3.348-4.436S319.528,78.91,317.575,78.91Zm0,0" transform="translate(-156.904 -36.05)" fill="#025035"/>
      <path id="パス_2213" data-name="パス 2213" d="M311.623,70.262c-3.405,0-6.037,3.2-5.87,7.132s3.076,7.132,6.482,7.132,6.038-3.2,5.87-7.132S315.031,70.262,311.623,70.262Zm.5,11.568c-1.953,0-3.622-1.987-3.728-4.436s1.393-4.436,3.348-4.436,3.622,1.987,3.728,4.436S314.073,81.83,312.12,81.83Zm0,0" transform="translate(-151.07 -30.097)" fill="#016e48"/>
      <path id="パス_2214" data-name="パス 2214" d="M293.064.5c-5.475,0-9.536,6.379-9.571,14.762h5c.1-5.6,2.49-9.373,4.8-9.373,2.48,0,5.428,4.369,5.7,10.64.222,5.187-1.5,9.073-3.507,10.262a2.564,2.564,0,0,0-1.194,2.351c.085,1.971,2.08,3.372,3.662,2.46,3.845-2.216,6.341-8.05,6.04-15.073C303.608,7.542,298.807.5,293.064.5Zm0,0" transform="translate(-135.752 17.923)" fill="#c9b77d"/>
      <path id="パス_2215" data-name="パス 2215" d="M245.528,78.91c-1.954,0-3.454,1.987-3.348,4.436s1.774,4.436,3.727,4.436,3.453-1.987,3.348-4.436S247.482,78.91,245.528,78.91Zm0,0" transform="translate(-107.311 -36.05)" fill="#025035"/>
      <path id="パス_2216" data-name="パス 2216" d="M239.58,70.262c-3.405,0-6.038,3.2-5.87,7.132s3.076,7.132,6.482,7.132,6.038-3.2,5.87-7.132S242.985,70.262,239.58,70.262Zm.5,11.568c-1.954,0-3.623-1.987-3.728-4.436s1.393-4.436,3.348-4.436,3.622,1.987,3.728,4.436S242.03,81.83,240.077,81.83Zm0,0" transform="translate(-101.48 -30.097)" fill="#016e48"/>
      <path id="パス_2217" data-name="パス 2217" d="M221.021.5c-5.475,0-9.536,6.379-9.571,14.762h5c.1-5.6,2.49-9.373,4.8-9.373,2.48,0,5.429,4.369,5.7,10.64.223,5.187-1.5,9.073-3.507,10.262a2.566,2.566,0,0,0-1.193,2.351c.084,1.971,2.08,3.372,3.662,2.46,3.845-2.216,6.342-8.05,6.04-15.073C231.565,7.542,226.763.5,221.021.5Zm0,0" transform="translate(-86.162 17.923)" fill="#c9b77d"/>
      <path id="パス_2218" data-name="パス 2218" d="M173.481,78.91c-1.953,0-3.453,1.987-3.348,4.436s1.775,4.436,3.728,4.436,3.454-1.987,3.348-4.436S175.436,78.91,173.481,78.91Zm0,0" transform="translate(-57.719 -36.05)" fill="#025035"/>
      <path id="パス_2219" data-name="パス 2219" d="M167.537,70.262c-3.405,0-6.038,3.2-5.87,7.132s3.076,7.132,6.482,7.132,6.039-3.2,5.87-7.132S170.942,70.262,167.537,70.262Zm.494,11.568c-1.953,0-3.622-1.987-3.728-4.436s1.394-4.436,3.348-4.436,3.623,1.987,3.728,4.436S169.987,81.83,168.032,81.83Zm0,0" transform="translate(-51.89 -30.097)" fill="#016e48"/>
      <path id="パス_2220" data-name="パス 2220" d="M148.973.5c-5.475,0-9.536,6.379-9.57,14.762h5c.1-5.6,2.488-9.373,4.8-9.373,2.48,0,5.428,4.369,5.7,10.64.222,5.187-1.5,9.073-3.507,10.262a2.561,2.561,0,0,0-1.193,2.351c.084,1.971,2.081,3.372,3.663,2.46,3.843-2.216,6.342-8.05,6.04-15.073C159.519,7.542,154.718.5,148.973.5Zm0,0" transform="translate(-36.569 17.923)" fill="#c9b77d"/>
      <path id="パス_2221" data-name="パス 2221" d="M101.438,78.91c-1.953,0-3.451,1.987-3.348,4.436s1.775,4.436,3.728,4.436,3.454-1.987,3.348-4.436S103.392,78.91,101.438,78.91Zm0,0" transform="translate(-8.129 -36.05)" fill="#025035"/>
      <path id="パス_2222" data-name="パス 2222" d="M95.494,70.262c-3.405,0-6.038,3.2-5.87,7.132s3.076,7.132,6.482,7.132,6.038-3.2,5.87-7.132S98.9,70.262,95.494,70.262Zm.494,11.568c-1.953,0-3.622-1.987-3.728-4.436s1.394-4.436,3.348-4.436,3.623,1.987,3.728,4.436S97.941,81.83,95.989,81.83Zm0,0" transform="translate(-2.3 -30.097)" fill="#016e48"/>
      <path id="パス_2223" data-name="パス 2223" d="M76.927.5c-5.475,0-9.536,6.379-9.571,14.762h5c.095-5.6,2.488-9.373,4.8-9.373,2.479,0,5.429,4.369,5.7,10.64.222,5.187-1.5,9.073-3.507,10.262a2.564,2.564,0,0,0-1.194,2.351c.085,1.971,2.082,3.372,3.664,2.46,3.843-2.216,6.342-8.05,6.04-15.073C87.471,7.542,82.672.5,76.927.5Zm0,0" transform="translate(13.023 17.923)" fill="#c9b77d"/>
    </g>
  </g>
</svg>
