<svg xmlns="http://www.w3.org/2000/svg" xmlns:xlink="http://www.w3.org/1999/xlink" width="156" height="156" viewBox="0 0 156 156">
  <defs>
    <clipPath id="clip-path">
      <circle id="楕円形_488" data-name="楕円形 488" cx="78" cy="78" r="78" transform="translate(232 3792.803)" fill="#fff"/>
    </clipPath>
  </defs>
  <g id="ico_user" transform="translate(-232 -3792.803)">
    <circle id="楕円形_487" data-name="楕円形 487" cx="78" cy="78" r="78" transform="translate(232 3792.803)" fill="#62a4cc"/>
    <g id="マスクグループ_65" data-name="マスクグループ 65" clip-path="url(#clip-path)">
      <g id="グループ_7135" data-name="グループ 7135" transform="translate(-321.163 3671.826)">
        <g id="グループ_7134" data-name="グループ 7134">
          <path id="パス_77941" data-name="パス 77941" d="M697.313,229.369c.876-.243,1.88-.155,2.2.871a9.838,9.838,0,0,1-.249,5.092c1.543-.939,2.3-1.766,3.346-2.007.919-.211,2.539.466,2.273,1.9-.2,1.093-1.936,3.4-.993,3.936,1.4.79,2.8-2.288,5.01-.481,1.405,1.149-3.171,8.457-3.68,9.034-2.409,2.735-3.249,4.067-5.622,6.826-2.2,2.559-5.419,2.444-5.574,5.669-.179,3.716-.748,8.437-.661,12.156-3.676-1.169-7.214,1.542-10.629,1.716.563-5.791,2.413-16.887,1.251-18.728-.466-.736-2.633-5.567-2.79-8.041-.264-4.152,2.117-12.914,3.009-13.967,5.175-6.112,14.552-28.18,15.817-28.331,1.185-.141,2.741.091,2.317,2.322-1.346,7.082-9.79,22.865-8.382,24,.516.414,2.016-1.207,2.342-1.47A2.917,2.917,0,0,1,697.313,229.369Z" fill="#edbf98"/>
          <path id="パス_77942" data-name="パス 77942" d="M648.039,217.459a30.381,30.381,0,0,0,9.276-14.309c2.793,2.593,4.64,2.135,6.218,1.671.47-.139.571-.725.107-.883-4.97-1.688-1.6-25.212-2.259-31.027a56.139,56.139,0,0,0-9.951-25.578c-3.7-5.137-10.254-8.428-16.48-7.065-1.871-3.2-5.354-4.149-8.03-4.283-6.85-.342-40.065,10.894-35.125,59.091a29.214,29.214,0,0,0,6.4,15.16c1.27.784,1.839.578,1.208-.775-.65-1.392-1.262-2.22-1.207-6.218,10.58,25.8,32.148,21.55,33.834,21.449C637.752,224.348,643.447,221.533,648.039,217.459Z" fill="#3f2831"/>
          <path id="パス_77943" data-name="パス 77943" d="M642.971,213.037a.422.422,0,0,1-.339-.182.441.441,0,0,1-.063-.3.41.41,0,0,1,.173-.261,10.3,10.3,0,0,0,1.743-1.546v-.008a.426.426,0,0,1,.576-.015.356.356,0,0,1,.127.3.406.406,0,0,1-.1.268,11.148,11.148,0,0,1-1.885,1.672A.414.414,0,0,1,642.971,213.037Zm3.329-3.5a.423.423,0,0,1-.229-.078.4.4,0,0,1-.095-.56c.111-.158.229-.332.371-.545a15.107,15.107,0,0,0,.868-1.483.4.4,0,1,1,.718.372,17.679,17.679,0,0,1-.915,1.561c-.119.182-.245.37-.379.56A.438.438,0,0,1,646.3,209.534Zm2.279-4.29a.334.334,0,0,1-.149-.032.4.4,0,0,1-.221-.521c.276-.7.544-1.467.8-2.271a.4.4,0,0,1,.789.126.611.611,0,0,1-.016.126c-.268.821-.544,1.6-.828,2.319A.415.415,0,0,1,648.579,205.244Zm1.491-4.631a.532.532,0,0,1-.1-.016.41.41,0,0,1-.292-.5c.363-1.412.528-2.335.528-2.342s.008-.008.008-.016a.409.409,0,0,1,.466-.316.417.417,0,0,1,.331.473l-.008.017c-.047.244-.221,1.143-.536,2.39A.413.413,0,0,1,650.07,200.613Z" fill="#2a171f"/>
          <path id="パス_77944" data-name="パス 77944" d="M668.361,319.144c0,1.517,1.417,5.671,2.525,8.524,2.4,6.19,6.093,14.267,9.925,14.265,4.655,0,9.965-.8,10.982-6.833a10.029,10.029,0,0,0-.078-1.558c0-6.022-5.781-13.421-10.9-13.421S668.361,313.122,668.361,319.144Z" fill="#ec8275"/>
          <path id="パス_77945" data-name="パス 77945" d="M587.247,344.871l3.821-28.643-14.827.749L573.389,345.1Z" fill="#ec8275"/>
          <path id="パス_77946" data-name="パス 77946" d="M655.45,237.178s12.462,2.555,15.037,5.881c5.671,7.325,17.013,73.486,17.013,73.486l-19.627,7.417L653.711,270.7Z" fill="#32485f"/>
          <path id="パス_77947" data-name="パス 77947" d="M597.475,238.1s-10.171,1.475-12.523,4.962c-6.853,10.161-11.342,81.756-11.342,81.756l18.9-.237,9.215-53.873Z" fill="#32485f"/>
          <path id="パス_77948" data-name="パス 77948" d="M587.778,243.3c3.544-4.253,22.722-11.1,22.722-11.1l16.624,1.632,16.625-1.632s19.177,6.842,22.721,11.1-4.725,49.147-5.67,53.873-5.435,24.338-5.435,24.338l2.126,23.356-29.544.447v.025l-.823-.012-.822.012v-.025l-29.545-.447,2.127-23.356s-4.49-19.612-5.435-24.338S584.234,247.549,587.778,243.3Z" fill="#32485f"/>
          <path id="パス_77949" data-name="パス 77949" d="M604.347,159.343c4.325-5.86,14.644-10.429,23.138-11.619l.011.428.011-.428c8.495,1.19,18.814,5.759,23.139,11.619,3.557,4.821,1.681,18.555,1.539,25.024-.3,14.195-10.9,26.15-23.076,27.987l.007.253c-.542,0-1.082-.028-1.62-.069-.538.041-1.078.069-1.62.069l.007-.253c-12.175-1.837-22.775-13.792-23.076-27.987C602.666,177.9,600.789,164.164,604.347,159.343Z" fill="#edbf98"/>
          <path id="パス_77950" data-name="パス 77950" d="M659.073,183.684c-.2,3.821-4.862,9.009-8.716,9.551-3.852.525-2.15-3.705-2.676-7.613a7.1,7.1,0,0,1,6.012-8.016C657.548,177.071,659.275,179.739,659.073,183.684Z" fill="#edbf98"/>
          <path id="パス_77951" data-name="パス 77951" d="M628.267,153.592a15.14,15.14,0,0,1-6.939-4.69,9.83,9.83,0,0,1-1.45-2.184c-2.965-6.248,3.659-7.58,8.546-7.43a23.2,23.2,0,0,1,7.046.946c2.3.813,4.045.427,5.907,2.009a76.223,76.223,0,0,1,7.077,6.844c2.225,2.448,3.607,5.363,5.177,8.243a36.371,36.371,0,0,1,3.636,9.649,38.968,38.968,0,0,1,.816,6.976c.031.869.266,1.684.316,2.523.067,1.124-.382,2.206-.365,3.335.018,1.25.814,2.67,2.065,2.678a13.774,13.774,0,0,1-7.491-2.626c-.285,1.21,1.023,3.031,2.2,3.789a.156.156,0,0,1-.076.286c-3.3.333-6.925-3.253-9.321-6.874-2.112-3.189-2.449-11.573-4.433-14.843s-2.787-4.526-7.13-6.756A29.06,29.06,0,0,0,628.267,153.592Z" fill="#3f2831"/>
          <path id="パス_77952" data-name="パス 77952" d="M635.906,180.785a2.79,2.79,0,0,0,1.4,3.585,2.582,2.582,0,0,0,3.434-1.459,2.787,2.787,0,0,0-1.417-3.583A2.577,2.577,0,0,0,635.906,180.785Z" fill="#0d0002"/>
          <path id="パス_77953" data-name="パス 77953" d="M615.217,180.785a2.789,2.789,0,0,0,1.4,3.585,2.585,2.585,0,0,0,3.435-1.459,2.793,2.793,0,0,0-1.417-3.583A2.58,2.58,0,0,0,615.217,180.785Z" fill="#0d0002"/>
          <path id="パス_77954" data-name="パス 77954" d="M606.994,233.454c1.185-1.211,8.213-4.851,10.41-8.145,5.353-8.031,2.676-22.753,2.676-22.753l7.722.63,7.722-.63s-2.677,14.722,2.677,22.753c2.2,3.294,8.616,7.324,9.8,8.536.341.348-10.169,16.832-21.611,17.445C619.1,251.68,606.653,233.8,606.994,233.454Z" fill="#edbf98"/>
          <g id="グループ_7132" data-name="グループ 7132">
            <path id="パス_77955" data-name="パス 77955" d="M606.573,186.991a3.294,3.294,0,1,0,3.3-3.292A3.292,3.292,0,0,0,606.573,186.991Z" fill="#e9706e"/>
            <path id="パス_77956" data-name="パス 77956" d="M610.544,189.9a.624.624,0,0,0,.429-.169c.838-.78,2.192-2.207,1.841-2.994a1.043,1.043,0,0,0-.605-.56c-.739-.278-1.867.118-3.329.8l-.207.1-.15.063c.026-.038.055-.075.085-.115q.1-.131.216-.294c.4-.541,1.229-1.681,1.777-1.649a.642.642,0,0,0,.653-.609.632.632,0,0,0-.61-.652h-.056c-1.2,0-2.152,1.3-2.783,2.168-.074.1-.142.2-.2.276-.52.689-1.034,1.473-.575,2.055s1.351.26,2.151-.086c.058-.025.139-.063.235-.108a9.541,9.541,0,0,1,1.978-.746,13.236,13.236,0,0,1-1.277,1.434.631.631,0,0,0,.431,1.093Z" fill="#e55a65"/>
          </g>
          <g id="グループ_7133" data-name="グループ 7133">
            <path id="パス_77957" data-name="パス 77957" d="M642.439,186.991a3.294,3.294,0,1,0,3.3-3.292A3.292,3.292,0,0,0,642.439,186.991Z" fill="#e9706e"/>
            <path id="パス_77958" data-name="パス 77958" d="M646.41,189.9a.623.623,0,0,0,.429-.169c.838-.78,2.192-2.207,1.84-2.994a1.038,1.038,0,0,0-.6-.56c-.74-.278-1.867.118-3.329.8l-.207.1-.15.063c.026-.038.055-.075.085-.115q.1-.131.216-.294c.4-.541,1.229-1.681,1.777-1.649a.64.64,0,0,0,.652-.609.631.631,0,0,0-.61-.652h-.055c-1.2,0-2.152,1.3-2.783,2.168-.074.1-.142.2-.2.276-.52.689-1.035,1.473-.576,2.055s1.352.26,2.152-.086c.058-.025.138-.063.235-.108a9.562,9.562,0,0,1,1.977-.746,13.125,13.125,0,0,1-1.276,1.434.631.631,0,0,0,.431,1.093Z" fill="#e55a65"/>
          </g>
          <path id="パス_77959" data-name="パス 77959" d="M691.836,334.693l1.811-68.557-9.641-2.625-10.3,67.059Z" fill="#edbf98"/>
          <path id="パス_77960" data-name="パス 77960" d="M597.266,165.718c.61-3.834,7.648-14.973,10.923-18.14,4.108-3.97,9.8-9.106,15.762-7.853,4.865,1.023,9.317,1.833,9.219,7.57a10.351,10.351,0,0,1-1.03,4.233c-1.692,3.572-9.843,7.282-13.808,12.489-4.691,6.16-6.522,13.234-9.661,20.312-1.013,2.286-1.752,4.7-2.616,7.045-.732,1.985-1.4,6.088-3.873,6.414a6.1,6.1,0,0,1-6.329-3.833,11.44,11.44,0,0,1-.524-2.691c-.463-4.226-1.038-8.556-.473-12.79C595.429,174.178,596.585,169.994,597.266,165.718Z" fill="#3f2831"/>
          <path id="パス_77961" data-name="パス 77961" d="M634.826,174.048a.406.406,0,0,1,.158-.795,38.27,38.27,0,0,1,6.361,1.5.405.405,0,0,1-.29.757,37.933,37.933,0,0,0-6.19-1.452Z" fill="#7b6a5e"/>
          <path id="パス_77962" data-name="パス 77962" d="M614.34,175.326a.4.4,0,0,1-.182-.788,38.337,38.337,0,0,1,6.414-1.251.405.405,0,1,1,.046.809,38.015,38.015,0,0,0-6.239,1.222Z" fill="#7b6a5e"/>
          <path id="パス_77963" data-name="パス 77963" d="M627.6,195.666a.81.81,0,0,1-.5-1.446l2.162-1.707-1.788-9.961a.81.81,0,1,1,1.6-.287l1.874,10.439a.81.81,0,0,1-.295.78l-2.544,2.008A.805.805,0,0,1,627.6,195.666Z" fill="#0d0002"/>
          <path id="パス_77964" data-name="パス 77964" d="M627.913,212.778a17.584,17.584,0,0,1-5.993-1.161.725.725,0,0,1,.5-1.362,15.391,15.391,0,0,0,6.278,1.047,19.046,19.046,0,0,0,4.884-1,.725.725,0,1,1,.47,1.372,20.516,20.516,0,0,1-5.256,1.072Q628.358,212.778,627.913,212.778Z" fill="#cb6362"/>
          <path id="パス_77965" data-name="パス 77965" d="M655.166,172.784a.409.409,0,0,1-.363-.213,14.766,14.766,0,0,1-.938-2.3.009.009,0,0,0-.009-.009.668.668,0,0,1-.015-.117.39.39,0,0,1,.276-.4.411.411,0,0,1,.512.252,14.745,14.745,0,0,0,.892,2.193.4.4,0,0,1-.166.545A.425.425,0,0,1,655.166,172.784Zm-1.625-4.575a.405.405,0,0,1-.386-.3c-.19-.647-.371-1.325-.56-2.035l-.087-.316a.451.451,0,0,1-.016-.1.415.415,0,0,1,.3-.395.4.4,0,0,1,.5.285l.031.1c.213.789.41,1.531.615,2.24a.42.42,0,0,1-.283.5A.616.616,0,0,1,653.541,168.209Zm-1.286-4.7a.415.415,0,0,1-.394-.292c-.237-.845-.465-1.6-.694-2.319a.608.608,0,0,1-.016-.119.4.4,0,0,1,.789-.126c.229.718.457,1.483.7,2.342a.4.4,0,0,1-.276.5A.253.253,0,0,1,652.255,163.508Zm-1.491-4.631a.4.4,0,0,1-.378-.26c-.308-.821-.608-1.539-.915-2.216v-.009a.343.343,0,0,1-.04-.173.4.4,0,0,1,.237-.363.407.407,0,0,1,.536.2c.324.71.632,1.451.939,2.28a.377.377,0,0,1-.008.308.429.429,0,0,1-.229.212A.436.436,0,0,1,650.764,158.877Zm-2.051-4.4a.4.4,0,0,1-.347-.2c-.023-.032-.039-.064-.063-.1a.74.74,0,0,1-.039-.079,17.577,17.577,0,0,0-1.246-1.767v-.008a.4.4,0,0,1-.1-.26.411.411,0,0,1,.158-.308.419.419,0,0,1,.568.063,17.633,17.633,0,0,1,1.3,1.862,1.737,1.737,0,0,1,.1.166l.008.015a.394.394,0,0,1-.142.552A.386.386,0,0,1,648.713,154.475Zm-3.005-3.81a.41.41,0,0,1-.284-.117,23.315,23.315,0,0,0-1.782-1.594.4.4,0,0,1-.15-.315.45.45,0,0,1,.086-.261.42.42,0,0,1,.576-.055c.655.528,1.27,1.088,1.838,1.648a.405.405,0,0,1-.284.694Zm-3.762-3.075a.435.435,0,0,1-.229-.063c-.647-.434-1.325-.86-2.035-1.263l-.008-.008a.416.416,0,0,1-.205-.363.351.351,0,0,1,.055-.189.408.408,0,0,1,.552-.15c.7.4,1.412.836,2.09,1.3a.4.4,0,0,1-.22.735Zm-4.229-2.407a.421.421,0,0,1-.173-.039c-1.16-.553-1.972-.852-2.193-.931-.008,0-.008,0-.008-.007a.389.389,0,0,1-.237-.206.377.377,0,0,1-.015-.307.413.413,0,0,1,.513-.253,23.592,23.592,0,0,1,2.287.971.4.4,0,0,1,.189.543A.412.412,0,0,1,637.717,145.183Z" fill="#2a171f"/>
          <path id="パス_77966" data-name="パス 77966" d="M700.427,249.345a2.692,2.692,0,0,1-1.969-.809c-1.75-1.751-1.886-2.757-1.886-3.024a.724.724,0,1,1,1.449,0h0a5.158,5.158,0,0,0,1.462,2c1.161,1.16,3.5-.752,3.518-.772a.724.724,0,0,1,.939,1.1A5.945,5.945,0,0,1,700.427,249.345Z" fill="#cb6362"/>
          <path id="パス_77967" data-name="パス 77967" d="M660.98,293.932a.811.811,0,0,1-.129-.01.754.754,0,0,1-.615-.872c.036-.207,3.551-20.843,1.8-31.374l-1.8-10.782a.754.754,0,0,1,1.488-.248l1.8,10.782c1.8,10.784-1.651,31.022-1.8,31.878A.754.754,0,0,1,660.98,293.932Z" fill="#001025"/>
          <path id="パス_77968" data-name="パス 77968" d="M594.275,293.932a.753.753,0,0,1-.743-.626c-.147-.856-3.595-21.094-1.8-31.878l1.8-10.782a.755.755,0,0,1,1.489.248l-1.8,10.782c-1.755,10.531,1.761,31.167,1.8,31.374a.755.755,0,0,1-.615.872A.82.82,0,0,1,594.275,293.932Z" fill="#001025"/>
          <path id="パス_77969" data-name="パス 77969" d="M651.937,195.324l1.146-.17c.986-.145,1.4-1.594.718-2.531l-.671-.925a1.122,1.122,0,0,0-2.026.231l-.475,1.1C650.152,194.123,650.92,195.474,651.937,195.324Z" fill="#fff"/>
          <path id="パス_77970" data-name="パス 77970" d="M689.552,252.516a.724.724,0,0,1-.684-.963l.837-2.407c.551-1.586-1.187-8.132-2.412-11.885a.727.727,0,0,1,.456-.912c2.128-.724,5.2-2.288,5.376-3.5a2.759,2.759,0,0,0,.011-1.04l-7.483,1.948a.724.724,0,1,1-.365-1.4l7.64-1.989a1.256,1.256,0,0,1,1.133.265c.507.436.67,1.228.5,2.423-.306,2.142-3.983,3.778-5.675,4.423.76,2.419,2.977,9.876,2.189,12.142l-.837,2.407A.726.726,0,0,1,689.552,252.516Zm3.766-20.752-.025.007Z" fill="#cb6362"/>
          <path id="パス_77971" data-name="パス 77971" d="M692.975,243.086a2.4,2.4,0,0,1-1.738-.724l-.837-.838a.724.724,0,0,1,1.025-1.024l.837.837c.746.747,1.908-.075,2.373-.463,1.025-.854,2.44-4.3,2.568-4.855a.724.724,0,0,1,1.445.074c0,.586-1.7,4.736-3.085,5.9A4.164,4.164,0,0,1,692.975,243.086Z" fill="#cb6362"/>
          <path id="パス_77972" data-name="パス 77972" d="M696.847,245.743a2.623,2.623,0,0,1-2.366-1.316l-.837-1.361a.724.724,0,0,1,1.234-.759l.838,1.36c.388.63,1.009.908,2.785.227.684-.263,2.345-2.746,3.493-4.9a.725.725,0,0,1,1.279.682c-.619,1.16-2.755,4.992-4.252,5.567A6.188,6.188,0,0,1,696.847,245.743Z" fill="#cb6362"/>
          <path id="パス_77973" data-name="パス 77973" d="M639.131,186.388h-.136c-1.031-.009-2-.085-2.913-.162a5.672,5.672,0,0,1-3.867-1.89,3.8,3.8,0,0,1-.927-2.821c.23-2.653,1.746-3.656,5.79-3.831,2.427-.107,5.413-.009,6.934,1.695a4.655,4.655,0,0,1,.866,3.991C644.658,184.751,643.48,186.388,639.131,186.388ZM639,185.6c3.139.052,4.849-.767,5.1-2.355a3.871,3.871,0,0,0-.676-3.345c-1.316-1.474-4.232-1.525-6.314-1.434-4.073.177-4.871,1.145-5.043,3.114a3.033,3.033,0,0,0,.747,2.248,4.942,4.942,0,0,0,3.332,1.613c.894.076,1.851.151,2.853.159Z" fill="#29292d"/>
          <rect id="長方形_29511" data-name="長方形 29511" width="6.563" height="0.786" transform="translate(625.044 180.145)" fill="#29292d"/>
          <path id="パス_77974" data-name="パス 77974" d="M642.736,178.512s1.772,2.183,1.8,3.324-1.348,3.543-1.065,3.565a4.2,4.2,0,0,0,1.769-2.316c.372-1.168,1.186-1.391,1.242-2.127s.052-1.345-.4-1.454C644.344,179.088,642.736,178.512,642.736,178.512Z" fill="#29292d"/>
          <path id="パス_77975" data-name="パス 77975" d="M632.23,179.1l-.41.412a2.1,2.1,0,0,1-.938.543l-1.108.118s-.039.748.192.744a1.655,1.655,0,0,1,.923.116c.4.232.394,1.156.4,1.132C631.288,182.121,632.23,179.1,632.23,179.1Z" fill="#29292d"/>
          <path id="パス_77976" data-name="パス 77976" d="M616.988,186.336c-4.434,0-5.618-1.659-5.831-3.054a4.654,4.654,0,0,1,.89-3.985c1.532-1.695,4.515-1.774,6.945-1.653,4.042.2,5.552,1.213,5.767,3.867a3.8,3.8,0,0,1-.946,2.815,5.665,5.665,0,0,1-3.878,1.866c-.866.069-1.878.142-2.913.144h-.034Zm.657-7.943c-1.859,0-3.951.252-5.015,1.43a3.866,3.866,0,0,0-.7,3.341c.241,1.584,1.941,2.386,5.052,2.386h.034c1.008,0,1.962-.07,2.853-.141a4.947,4.947,0,0,0,3.343-1.592,3.037,3.037,0,0,0,.76-2.243c-.159-1.97-.952-2.943-5.024-3.145C618.543,178.408,618.1,178.393,617.645,178.393Z" fill="#29292d"/>
          <path id="パス_77977" data-name="パス 77977" d="M613.329,178.437s-1.785,2.173-1.82,3.314,1.327,3.551,1.043,3.571a4.2,4.2,0,0,1-1.754-2.327c-.366-1.17-1.178-1.4-1.229-2.135s-.044-1.345.412-1.451C611.717,179,613.329,178.437,613.329,178.437Z" fill="#29292d"/>
          <path id="パス_77978" data-name="パス 77978" d="M623.831,179.093l.407.414a2.1,2.1,0,0,0,.935.549l1.107.125s.035.748-.2.743a1.651,1.651,0,0,0-.923.11c-.4.23-.4,1.153-.4,1.13C624.754,182.117,623.831,179.093,623.831,179.093Z" fill="#29292d"/>
          <path id="パス_77979" data-name="パス 77979" d="M646.013,181.253a.877.877,0,0,1-.318-1.694l6.562-2.545a.876.876,0,1,1,.634,1.634l-6.562,2.545A.88.88,0,0,1,646.013,181.253Z" fill="#29292d"/>
          <path id="パス_77980" data-name="パス 77980" d="M610.119,181.153a.937.937,0,0,1-.157-.014l-9.254-1.682a.877.877,0,1,1,.314-1.725l9.253,1.681a.877.877,0,0,1-.156,1.74Z" fill="#29292d"/>
          <path id="パス_77981" data-name="パス 77981" d="M637.734,200.033a.608.608,0,0,1-.073,0,.722.722,0,0,1-.647-.791,9.471,9.471,0,0,0-2.113-2.758.723.723,0,0,1,1.023-1.023c.992.992,2.639,2.821,2.529,3.924A.723.723,0,0,1,637.734,200.033Z" fill="#cb6362"/>
          <path id="パス_77982" data-name="パス 77982" d="M608.093,194.857a37.6,37.6,0,0,0,4.3,11.775,19.389,19.389,0,0,0,5.469,6.645c-3.322-.653-6.154-3.3-8.837-5.862a9.784,9.784,0,0,0,5.427,5.6c-2.787-.059-5.385-1.7-7.835-3.383-3.217-2.208-6.518-4.725-8.35-8.734a22.629,22.629,0,0,1-1.754-8.289c-.278-6.045,1.027-12.4,4.322-16.793,2.022-2.695,3.763-4.76,5.2-8.095a71.656,71.656,0,0,0,3.88-11.715,6.951,6.951,0,0,1,.872,3.524,87.183,87.183,0,0,1,.279,11.707,34.119,34.119,0,0,1-.849,5.779c-.453,1.869-1.338,3.514-1.779,5.35A31.315,31.315,0,0,0,608.093,194.857Z" fill="#3f2831"/>
          <path id="パス_77983" data-name="パス 77983" d="M613.619,215.916a.439.439,0,0,1-.252-.087,18.574,18.574,0,0,1-1.79-1.751.409.409,0,0,1,.031-.576.416.416,0,0,1,.568.032,14.808,14.808,0,0,0,1.7,1.656.392.392,0,0,1,.15.277.365.365,0,0,1-.087.292A.379.379,0,0,1,613.619,215.916Zm-3.273-3.6a.412.412,0,0,1-.324-.166,23.186,23.186,0,0,1-1.348-2.074.41.41,0,0,1-.048-.307.408.408,0,0,1,.742-.1,22.7,22.7,0,0,0,1.309,2,.413.413,0,0,1,.079.245.388.388,0,0,1-.165.323A.4.4,0,0,1,610.346,212.319Zm-2.445-4.2a.418.418,0,0,1-.371-.236,23.046,23.046,0,0,1-.907-2.3.35.35,0,0,1,.023-.307.366.366,0,0,1,.229-.205.409.409,0,0,1,.513.252c.252.742.544,1.484.875,2.217h.008a.349.349,0,0,1,.032.181.407.407,0,0,1-.237.363A.358.358,0,0,1,607.9,208.122Zm-1.555-4.6a.406.406,0,0,1-.394-.315c-.181-.8-.323-1.625-.426-2.437a.413.413,0,0,1,.355-.45.407.407,0,0,1,.45.355,23.055,23.055,0,0,0,.41,2.359.262.262,0,0,1,.008.079.4.4,0,0,1-.316.4A.362.362,0,0,1,606.346,203.523Zm-.583-4.819h-.008a.4.4,0,0,1-.4-.394c-.008-.173-.008-.363-.008-.592v-.1c0-.679.015-1.278.055-1.767a.387.387,0,0,1,.426-.379.4.4,0,0,1,.276.135.382.382,0,0,1,.1.291c-.032.489-.048,1.073-.056,1.735v.087c0,.229.008.41.008.576a.4.4,0,0,1-.394.41Z" fill="#2a171f"/>
          <path id="パス_77984" data-name="パス 77984" d="M598.222,192.552h-.008a.4.4,0,0,1-.284-.127.366.366,0,0,1-.111-.284c.008-.733.048-1.554.111-2.445v-.008a.408.408,0,0,1,.813.031v.04c-.072.9-.111,1.68-.119,2.39A.4.4,0,0,1,598.222,192.552Zm.363-4.844h-.048a.417.417,0,0,1-.268-.149.387.387,0,0,1-.086-.3c.094-.766.2-1.586.338-2.43a.4.4,0,0,1,.8.064.156.156,0,0,1-.008.063c-.118.8-.237,1.608-.331,2.4A.4.4,0,0,1,598.585,187.708Zm.733-4.811h-.071a.409.409,0,0,1-.323-.474q.2-1.147.449-2.39a.007.007,0,0,1,.008-.007.4.4,0,0,1,.8.07.321.321,0,0,1-.008.087c-.173.891-.323,1.672-.45,2.382A.4.4,0,0,1,599.318,182.9Zm.955-4.773a.318.318,0,0,1-.087-.008.41.41,0,0,1-.308-.481c.166-.757.347-1.562.537-2.382v-.008a.419.419,0,0,1,.489-.292.414.414,0,0,1,.315.4c-.008.032-.008.056-.016.087-.181.774-.362,1.57-.536,2.367A.4.4,0,0,1,600.273,178.124Zm1.112-4.741a.382.382,0,0,1-.1-.008.4.4,0,0,1-.3-.489q.309-1.23.616-2.366v-.008a.406.406,0,0,1,.8.119.449.449,0,0,1-.015.1c-.19.687-.387,1.459-.608,2.35A.413.413,0,0,1,601.385,173.383Zm1.262-4.7a.27.27,0,0,1-.111-.016.386.386,0,0,1-.244-.189.415.415,0,0,1-.031-.307c.244-.845.481-1.634.709-2.343a.412.412,0,0,1,.513-.26.4.4,0,0,1,.284.386.348.348,0,0,1-.024.126c-.221.694-.457,1.467-.7,2.312A.414.414,0,0,1,602.647,168.682Zm1.522-4.622a.446.446,0,0,1-.142-.024.4.4,0,0,1-.228-.528c.307-.765.647-1.515,1.009-2.248a.414.414,0,0,1,.545-.182.391.391,0,0,1,.22.37.431.431,0,0,1-.039.175c-.363.717-.694,1.459-.986,2.184A.387.387,0,0,1,604.169,164.06Zm2.177-4.339a.384.384,0,0,1-.2-.055.4.4,0,0,1-.135-.56c.418-.694.876-1.381,1.365-2.051a.419.419,0,0,1,.568-.087.409.409,0,0,1,.165.324.438.438,0,0,1-.07.236l-.008.008c-.008.008-.016.024-.024.032-.458.63-.9,1.285-1.31,1.964A.4.4,0,0,1,606.346,159.721Zm2.856-3.928a.4.4,0,0,1-.4-.371.412.412,0,0,1,.094-.3c.521-.608,1.081-1.215,1.665-1.807a.417.417,0,0,1,.576-.008.4.4,0,0,1,.118.284.408.408,0,0,1-.118.292c-.568.576-1.113,1.168-1.625,1.767A.393.393,0,0,1,609.2,155.793Zm3.416-3.455a.382.382,0,0,1-.3-.134.409.409,0,0,1,.032-.576c.623-.537,1.261-1.065,1.9-1.562a.41.41,0,0,1,.568.079.366.366,0,0,1,.087.237.408.408,0,0,1-.157.331c-.639.489-1.263,1-1.862,1.522A.4.4,0,0,1,612.618,152.338Zm3.857-2.966a.394.394,0,0,1-.332-.173.415.415,0,0,1,.1-.569c.671-.449,1.373-.891,2.082-1.309a.418.418,0,0,1,.553.142.35.35,0,0,1,.055.213.414.414,0,0,1-.189.34l-.008.007c-.008,0-.016.008-.032.016-.678.4-1.357.829-2,1.27A.481.481,0,0,1,616.475,149.372Zm4.189-2.476a.387.387,0,0,1-.355-.214.4.4,0,0,1,.173-.552c.718-.371,1.436-.718,2.209-1.065a.418.418,0,0,1,.536.205.549.549,0,0,1,.04.158.414.414,0,0,1-.245.378c-.726.324-1.459.679-2.169,1.049A.387.387,0,0,1,620.664,146.9Zm4.448-1.981a.408.408,0,0,1-.378-.268.373.373,0,0,1,.008-.307.4.4,0,0,1,.228-.214c1.475-.56,2.351-.789,2.351-.789a.426.426,0,0,1,.5.292.4.4,0,0,1-.04.3.384.384,0,0,1-.252.19h0a.031.031,0,0,1-.023.007c-.292.087-1.089.324-2.249.757A.424.424,0,0,1,625.112,144.915Z" fill="#2a171f"/>
          <path id="パス_77985" data-name="パス 77985" d="M629.782,246.829a.407.407,0,0,1-.363-.236.4.4,0,0,1,.2-.521s.119-.055.34-.165a.391.391,0,1,1,.362.694c-.189.1-.323.165-.362.181l-.008.008A.423.423,0,0,1,629.782,246.829Zm1.728-.969a.4.4,0,0,1-.34-.182.475.475,0,0,1-.055-.2.4.4,0,0,1,.182-.34c.11-.062.22-.134.331-.205a.393.393,0,0,1,.544.119.349.349,0,0,1,.055.292.43.43,0,0,1-.173.252c-.119.071-.229.142-.339.213A.387.387,0,0,1,631.51,245.86Zm1.632-1.1a.376.376,0,0,1-.315-.158.371.371,0,0,1-.079-.236.4.4,0,0,1,.158-.316c.1-.079.213-.15.315-.237a.394.394,0,0,1,.473.631l-.094.079c-.079.055-.15.111-.221.158A.374.374,0,0,1,633.142,244.755Zm1.538-1.23a.378.378,0,0,1-.291-.135.4.4,0,0,1-.1-.268.409.409,0,0,1,.134-.292c.1-.086.2-.166.292-.26a.406.406,0,0,1,.56.031.4.4,0,0,1-.031.56c-.1.087-.2.174-.3.261A.4.4,0,0,1,634.68,243.525Zm1.428-1.365a.4.4,0,0,1-.394-.387.424.424,0,0,1,.11-.283c.087-.087.174-.182.261-.277a.413.413,0,0,1,.56-.032.4.4,0,0,1,.126.277.371.371,0,0,1-.1.283c-.063.071-.126.143-.2.214l-.079.086h-.008A.369.369,0,0,1,636.108,242.16Zm1.286-1.491a.363.363,0,0,1-.237-.087.388.388,0,0,1-.157-.316.423.423,0,0,1,.078-.228.008.008,0,0,1,.009-.008.04.04,0,0,1,.015-.024l.213-.284a.409.409,0,0,1,.552-.079.4.4,0,0,1,.087.552l-.244.316a.008.008,0,0,1-.008.008A.4.4,0,0,1,637.394,240.669Zm1.12-1.625a.394.394,0,0,1-.2-.063.38.38,0,0,1-.189-.332.415.415,0,0,1,.047-.2l.008-.007a.039.039,0,0,1,.016-.024c.055-.1.118-.205.173-.308a.412.412,0,0,1,.545-.15.394.394,0,0,1,.141.537c-.062.118-.134.236-.2.347v.007A.388.388,0,0,1,638.514,239.044Zm.907-1.751a.372.372,0,0,1-.165-.039.393.393,0,0,1-.229-.348.319.319,0,0,1,.032-.173l.031-.071c.048-.1.087-.19.126-.284a.409.409,0,0,1,.521-.205.393.393,0,0,1,.205.521c-.055.126-.11.244-.166.362A.4.4,0,0,1,639.421,237.293Zm.773-1.814a.45.45,0,0,1-.149-.032.385.385,0,0,1-.245-.355.485.485,0,0,1,.023-.15v-.008a.027.027,0,0,0,.009-.024c.039-.094.079-.188.118-.283l.024-.056a.394.394,0,1,1,.733.292l-.039.087c-.032.1-.072.189-.111.276A.4.4,0,0,1,640.194,235.479Zm.7-1.846a.368.368,0,0,1-.135-.024.391.391,0,0,1-.26-.37.368.368,0,0,1,.024-.135c.031-.086.055-.166.086-.244l.048-.127a.4.4,0,0,1,.505-.236.4.4,0,0,1,.236.5l-.047.127c-.031.079-.055.158-.087.245A.392.392,0,0,1,640.9,233.633Zm.646-1.87a.324.324,0,0,1-.126-.016.379.379,0,0,1-.268-.378.608.608,0,0,1,.016-.119l.023-.07c.04-.111.071-.2.1-.308a.394.394,0,0,1,.749.244c-.023.079-.055.166-.078.253l-.048.126v.008A.391.391,0,0,1,641.543,231.763Z" fill="#fff"/>
          <path id="パス_77986" data-name="パス 77986" d="M624.481,246.727a.313.313,0,0,1-.149-.032c-.1-.039-.222-.094-.379-.165a.4.4,0,0,1-.229-.355.446.446,0,0,1,.039-.174.4.4,0,0,1,.521-.189.008.008,0,0,0,.008.008h.008c.118.055.229.11.331.15a.4.4,0,0,1,.213.513A.394.394,0,0,1,624.481,246.727Zm-1.751-.915a.347.347,0,0,1-.2-.063c-.11-.063-.229-.134-.347-.2A.408.408,0,0,1,622,245.2a.363.363,0,0,1,.064-.2.4.4,0,0,1,.544-.125c.086.054.173.11.252.165l.071.04a.374.374,0,0,1,.182.244.4.4,0,0,1-.048.3A.389.389,0,0,1,622.73,245.812Zm-1.633-1.1a.413.413,0,0,1-.236-.072c-.1-.078-.213-.157-.316-.244a.389.389,0,0,1-.158-.316.428.428,0,0,1,.079-.236.406.406,0,0,1,.552-.071c.111.079.213.158.316.229a.4.4,0,0,1,.079.552A.377.377,0,0,1,621.1,244.708Zm-1.538-1.231a.4.4,0,0,1-.26-.1c-.04-.04-.087-.079-.134-.119s-.111-.1-.166-.15a.4.4,0,0,1-.126-.291.4.4,0,0,1,.1-.261.405.405,0,0,1,.56-.031c.079.078.158.15.245.221l.039.039a.4.4,0,0,1,.134.268.386.386,0,0,1-.094.292A.423.423,0,0,1,619.559,243.477Zm-1.42-1.373a.375.375,0,0,1-.284-.118c-.094-.094-.189-.2-.276-.292a.366.366,0,0,1-.1-.268.411.411,0,0,1,.126-.292.4.4,0,0,1,.552.024c.079.079.15.157.221.237l.047.047a.4.4,0,0,1-.016.56A.367.367,0,0,1,618.139,242.1Zm-1.285-1.49a.406.406,0,0,1-.316-.15l-.087-.118c-.047-.064-.1-.134-.157-.2v-.009a.37.37,0,0,1-.072-.229.391.391,0,0,1,.158-.315.407.407,0,0,1,.552.079c.071.1.15.2.229.308a.407.407,0,0,1-.063.56A.454.454,0,0,1,616.854,240.614Zm-1.144-1.609a.392.392,0,0,1-.332-.182c-.063-.094-.118-.189-.181-.284l-.032-.048a.394.394,0,0,1-.063-.2.395.395,0,0,1,.726-.221l.024.04c.063.094.126.188.189.292a.392.392,0,0,1-.11.543A.442.442,0,0,1,615.71,239.005Zm-1.018-1.688a.4.4,0,0,1-.347-.206c-.063-.11-.126-.229-.189-.339v-.008a.369.369,0,0,1-.047-.189.4.4,0,0,1,.2-.347.409.409,0,0,1,.537.157,2.836,2.836,0,0,0,.189.34.4.4,0,0,1-.157.536A.315.315,0,0,1,614.692,237.317Zm-.915-1.752a.4.4,0,0,1-.355-.22c-.055-.119-.118-.245-.173-.355a.462.462,0,0,1-.04-.174.38.38,0,0,1,.229-.355.389.389,0,0,1,.521.19l.039.078c.047.1.087.181.134.268a.4.4,0,0,1-.181.529A.426.426,0,0,1,613.777,235.565Zm-.82-1.79a.393.393,0,0,1-.363-.245c-.047-.1-.095-.205-.134-.308l-.024-.055v-.015a.269.269,0,0,1-.031-.142.392.392,0,0,1,.244-.363.405.405,0,0,1,.513.213l.142.331.016.031a.4.4,0,0,1,0,.3.422.422,0,0,1-.213.221A.51.51,0,0,1,612.957,233.775Zm-.734-1.838a.393.393,0,0,1-.371-.261c-.055-.165-.094-.284-.118-.338-.008-.024-.008-.04-.016-.04a.408.408,0,0,1,.253-.505.4.4,0,0,1,.5.253s.047.126.126.362a.391.391,0,0,1-.237.5A.359.359,0,0,1,612.223,231.937Z" fill="#fff"/>
          <path id="パス_77987" data-name="パス 77987" d="M628.358,246.732a1.287,1.287,0,1,1-1.287-1.287A1.287,1.287,0,0,1,628.358,246.732Z" fill="#fff"/>
        </g>
        <path id="パス_77988" data-name="パス 77988" d="M629.36,202.756a1.867,1.867,0,0,1-1.654,2.018,1.806,1.806,0,0,1-1.84-1.8,1.867,1.867,0,0,1,1.654-2.019A1.807,1.807,0,0,1,629.36,202.756Z" fill="#c1143a"/>
      </g>
    </g>
  </g>
</svg>
