<svg xmlns="http://www.w3.org/2000/svg" xmlns:xlink="http://www.w3.org/1999/xlink" width="140" height="140" viewBox="0 0 140 140">
  <defs>
    <clipPath id="clip-path">
      <circle id="楕円形_25" data-name="楕円形 25" cx="70" cy="70" r="70" transform="translate(0 0.477)" fill="#f7f3e5"/>
    </clipPath>
  </defs>
  <g id="trouble_obj01" transform="translate(0 -0.477)">
    <circle id="楕円形_23" data-name="楕円形 23" cx="70" cy="70" r="70" transform="translate(0 0.477)" fill="#fff"/>
    <g id="マスクグループ_4" data-name="マスクグループ 4" clip-path="url(#clip-path)">
      <g id="グループ_4198" data-name="グループ 4198" transform="translate(7.341 15.779)">
        <g id="グループ_4150" data-name="グループ 4150" transform="translate(5.708 5.759)">
          <rect id="長方形_27732" data-name="長方形 27732" width="109.319" height="113.902" transform="translate(0 109.322) rotate(-90)" fill="#5b483b"/>
          <rect id="長方形_27733" data-name="長方形 27733" width="1.505" height="109.629" transform="translate(75.977 0.561)" fill="#896e59"/>
          <rect id="長方形_27734" data-name="長方形 27734" width="1.505" height="20.771" transform="translate(37.978 89.419)" fill="#896e59"/>
          <rect id="長方形_27735" data-name="長方形 27735" width="1.505" height="109.629" transform="translate(112.398 0.561)" fill="#896e59"/>
          <rect id="長方形_27736" data-name="長方形 27736" width="1.505" height="109.629" transform="translate(0.001 0.561)" fill="#896e59"/>
          <rect id="長方形_27737" data-name="長方形 27737" width="1.201" height="113.902" transform="translate(113.902 109.276) rotate(90)" fill="#896e59"/>
          <rect id="長方形_27738" data-name="長方形 27738" width="1.201" height="113.902" transform="translate(113.902 0) rotate(90)" fill="#896e59"/>
          <rect id="長方形_27739" data-name="長方形 27739" width="1.201" height="112.541" transform="translate(113.199 88.83) rotate(90)" fill="#896e59"/>
          <rect id="長方形_27740" data-name="長方形 27740" width="1.201" height="112.541" transform="translate(113.199 14.384) rotate(90)" fill="#896e59"/>
          <rect id="長方形_27741" data-name="長方形 27741" width="1.201" height="36.235" transform="translate(113.199 50.387) rotate(90)" fill="#896e59"/>
          <rect id="長方形_27742" data-name="長方形 27742" width="1.201" height="36.235" transform="translate(113.199 32.386) rotate(90)" fill="#896e59"/>
          <rect id="長方形_27743" data-name="長方形 27743" width="1.201" height="36.235" transform="translate(113.199 68.389) rotate(90)" fill="#896e59"/>
          <rect id="長方形_27744" data-name="長方形 27744" width="9.286" height="34.44" transform="translate(112.16 90.278) rotate(90)" fill="#896e59"/>
          <path id="長方形_27745" data-name="長方形 27745" d="M1.543,0h0a0,0,0,0,1,0,0V6.8a0,0,0,0,1,0,0h0A1.543,1.543,0,0,1,0,5.254V1.543A1.543,1.543,0,0,1,1.543,0Z" transform="translate(98.339 91.69) rotate(90)" fill="#5b483b"/>
          <rect id="長方形_27746" data-name="長方形 27746" width="9.286" height="34.44" transform="translate(112.16 99.754) rotate(90)" fill="#896e59"/>
          <path id="長方形_27747" data-name="長方形 27747" d="M1.543,0h0a0,0,0,0,1,0,0V6.8a0,0,0,0,1,0,0h0A1.543,1.543,0,0,1,0,5.254V1.543A1.543,1.543,0,0,1,1.543,0Z" transform="translate(98.339 101.299) rotate(90)" fill="#5b483b"/>
          <rect id="長方形_27748" data-name="長方形 27748" width="9.286" height="34.44" transform="translate(112.16 69.832) rotate(90)" fill="#896e59"/>
          <path id="長方形_27749" data-name="長方形 27749" d="M1.543,0h0a0,0,0,0,1,0,0V6.8a0,0,0,0,1,0,0h0A1.543,1.543,0,0,1,0,5.254V1.543A1.543,1.543,0,0,1,1.543,0Z" transform="translate(98.339 71.243) rotate(90)" fill="#5b483b"/>
          <rect id="長方形_27750" data-name="長方形 27750" width="9.286" height="34.44" transform="translate(112.16 79.307) rotate(90)" fill="#896e59"/>
          <rect id="長方形_27751" data-name="長方形 27751" width="1.093" height="34.44" transform="translate(112.16 79.307) rotate(90)" fill="#725a4a"/>
          <rect id="長方形_27752" data-name="長方形 27752" width="1.207" height="34.44" transform="translate(112.16 109.276) rotate(90)" fill="#725a4a"/>
          <path id="長方形_27753" data-name="長方形 27753" d="M1.543,0h0a0,0,0,0,1,0,0V6.8a0,0,0,0,1,0,0h0A1.543,1.543,0,0,1,0,5.254V1.543A1.543,1.543,0,0,1,1.543,0Z" transform="translate(98.339 80.852) rotate(90)" fill="#5b483b"/>
          <rect id="長方形_27754" data-name="長方形 27754" width="3.4" height="113.902" transform="translate(0 113.877) rotate(-90)" fill="#775e4d"/>
          <rect id="長方形_27755" data-name="長方形 27755" width="1.201" height="74.426" transform="translate(75.963 18.134) rotate(90)" fill="#fff"/>
          <rect id="長方形_27756" data-name="長方形 27756" width="10.03" height="34.957" transform="translate(77.482 50.388) rotate(-90)" fill="#967965"/>
        </g>
        <g id="グループ_4151" data-name="グループ 4151" transform="translate(45.018 8.466)">
          <rect id="長方形_27757" data-name="長方形 27757" width="34.458" height="11.575" transform="translate(0.536 0.153)" fill="#f7f7f8"/>
          <path id="パス_69513" data-name="パス 69513" d="M193.593,29.079l-34.458-.4V28.29h34.458Z" transform="translate(-158.599 -25.145)" fill="#d8dadc"/>
          <rect id="長方形_27758" data-name="長方形 27758" width="35.53" height="3.301" fill="#fff"/>
          <path id="パス_69514" data-name="パス 69514" d="M222.967,35.28a1.319,1.319,0,1,1-1.319-1.319A1.319,1.319,0,0,1,222.967,35.28Z" transform="translate(-203.901 -29.343)" fill="#98989c"/>
        </g>
        <g id="グループ_4159" data-name="グループ 4159" transform="translate(9.16 68.952)">
          <g id="グループ_4152" data-name="グループ 4152" transform="translate(13.382 11.307)">
            <rect id="長方形_27759" data-name="長方形 27759" width="14.613" height="3.954" rx="1.878" transform="translate(2.285 11.794) rotate(-16.795)" fill="#a4035c"/>
            <path id="パス_69515" data-name="パス 69515" d="M81.7,330.2a76.293,76.293,0,0,1,13.432-4.054A76.362,76.362,0,0,1,81.7,330.2Z" transform="translate(-78.796 -317.441)" fill="#930359"/>
            <path id="パス_69516" data-name="パス 69516" d="M83.488,336.139a83.257,83.257,0,0,1,13.432-4.054A83.353,83.353,0,0,1,83.488,336.139Z" transform="translate(-80.123 -321.836)" fill="#930359"/>
            <rect id="長方形_27760" data-name="長方形 27760" width="14.613" height="3.954" rx="1.878" transform="translate(1.143 8.008) rotate(-16.795)" fill="#336eb6"/>
            <path id="パス_69517" data-name="パス 69517" d="M77.63,316.733a57.1,57.1,0,0,1,13.432-4.054A57.166,57.166,0,0,1,77.63,316.733Z" transform="translate(-75.786 -307.47)" fill="#2b67a3"/>
            <rect id="長方形_27761" data-name="長方形 27761" width="14.613" height="3.954" rx="1.878" transform="translate(0 4.222) rotate(-16.795)" fill="#c99a5e"/>
            <path id="パス_69518" data-name="パス 69518" d="M74.8,307.354A99.829,99.829,0,0,1,88.231,303.3,99.936,99.936,0,0,1,74.8,307.354Z" transform="translate(-73.691 -300.527)" fill="#b37b43"/>
            <path id="パス_69519" data-name="パス 69519" d="M86.933,297.226q-6.856,2.039-13.612,4.359,6.9-1.8,13.75-3.9Z" transform="translate(-72.596 -296.03)" fill="#b37b43"/>
            <path id="パス_69520" data-name="パス 69520" d="M78.111,322.879q6.84-2.095,13.75-3.9-6.744,2.32-13.612,4.359Z" transform="translate(-76.142 -312.134)" fill="#2b67a3"/>
          </g>
          <g id="グループ_4153" data-name="グループ 4153" transform="translate(0 25.486)">
            <path id="パス_69521" data-name="パス 69521" d="M27.284,347.218c1.76,6.338,3.726,12.677,3.726,12.677h6l-1.854-12.526c0-.058.069-.15-.183-.15Z" transform="translate(-25.133 -347.218)" fill="#224160"/>
            <path id="パス_69522" data-name="パス 69522" d="M33.191,387.887c.02,1.375.032,2.188.032,2.188h8.222l-.043-2.151S35.8,387.851,33.191,387.887Z" transform="translate(-29.506 -377.317)" fill="#88a6bf"/>
            <path id="パス_69523" data-name="パス 69523" d="M19.517,347.372,19,360.82l.222,9.714h8.222s-.175-3.356-.1-8.091c.012-.776.98-1.023.974-1.308-.077-3.951-.207-9.455-.312-13.783a.12.12,0,0,1,.121-.133h-8.45A.16.16,0,0,0,19.517,347.372Z" transform="translate(-19.002 -347.218)" fill="#2d4e75"/>
            <path id="パス_69524" data-name="パス 69524" d="M50.31,347.218h-.28c-.01.621-.02,1.249-.03,1.878-.09,5.572-.18,11.145-.18,11.145v.01c0,.111.153.2.339.209s.336-.084.334-.2l-.156-11.156C50.327,348.474,50.318,347.842,50.31,347.218Z" transform="translate(-41.816 -347.218)" fill="#224160"/>
            <path id="パス_69525" data-name="パス 69525" d="M41.631,431.056h.695l.107,1.543h-.695Z" transform="translate(-35.754 -409.283)" fill="#406182"/>
            <path id="パス_69526" data-name="パス 69526" d="M21.023,431.056h.695l.107,1.543h-.695Z" transform="translate(-20.498 -409.283)" fill="#406182"/>
            <path id="パス_69527" data-name="パス 69527" d="M19.742,430.677h8.2l.009.124h-8.2Z" transform="translate(-19.55 -409.002)" fill="#406182"/>
            <path id="パス_69528" data-name="パス 69528" d="M30.222,407.72H25.934a.22.22,0,0,1-.144-.053.169.169,0,0,1-.061-.127l-.012-2.6c0-.118,0-2.909,2.165-2.909a2.345,2.345,0,0,1,1.614.562,3.181,3.181,0,0,1,.887,2.222l.022,2.744A.17.17,0,0,1,30.222,407.72Zm-4.108-.341h3.9l-.021-2.587a2.9,2.9,0,0,0-.768-1.969,1.922,1.922,0,0,0-1.322-.452c-1.8,0-1.8,2.56-1.8,2.587Z" transform="translate(-23.972 -387.795)" fill="#406182"/>
          </g>
          <g id="グループ_4154" data-name="グループ 4154" transform="translate(9.39 21.623)">
            <path id="パス_69529" data-name="パス 69529" d="M80.779,383.231a.687.687,0,0,1-.443.5,7.943,7.943,0,0,1-3.177.37,7.942,7.942,0,0,1-3.177-.37.686.686,0,0,1-.443-.5l-.143-.744,3.762-1.794,3.753,1.466Z" transform="translate(-68.66 -368.136)" fill="#17b0e5"/>
            <path id="パス_69530" data-name="パス 69530" d="M81.7,382.92a9.527,9.527,0,0,1-2.84.266,9.622,9.622,0,0,1-2.932-.345c-.343-.166-.211-1-.211-1l1.947-1.88L82,381.842S82.037,382.754,81.7,382.92Z" transform="translate(-70.356 -367.595)" fill="#1aa5e2"/>
            <path id="パス_69531" data-name="パス 69531" d="M90.614,332.893a3.813,3.813,0,0,1,2.06,3.464,5.553,5.553,0,0,1-.88,2.778c2.1,2.25.865,6.469-.093,6.71-.244.061-6.824.927-8.464.927a9.811,9.811,0,0,1-.062-1.906l-.038-12.074C85.3,332.792,88.591,331.718,90.614,332.893Z" transform="translate(-75.87 -332.343)" fill="#1aa5e2"/>
            <path id="パス_69532" data-name="パス 69532" d="M111.072,366.9c-.543,0-.917-1.851-.918-2.773s.453-2.773.918-2.773.919,1.851.918,2.773S111.614,366.9,111.072,366.9Z" transform="translate(-95.871 -353.818)" fill="#028fb5"/>
            <path id="パス_69533" data-name="パス 69533" d="M89.956,344.217c0,.9.36,2.691.885,2.766l.752.4a10.71,10.71,0,0,1-3.946.841c-3.358-1.8-4.776-1.789-4.776-1.789V334.46c2.117,0,3.292,2.2,7.97,2.2v4.8C90.388,341.537,89.955,343.317,89.956,344.217Z" transform="translate(-75.673 -333.91)" fill="#1aa5e2"/>
            <path id="パス_69534" data-name="パス 69534" d="M62.424,333.52l.038,12.074a2,2,0,0,0-2.379,1.947,12.52,12.52,0,0,1-4.013-.946c-.867-.511-1.562-4.311.093-6.69a5.434,5.434,0,0,1-.92-2.971C55.243,332.1,62.424,333.52,62.424,333.52Z" transform="translate(-55.157 -333.071)" fill="#1aa5e2"/>
            <path id="パス_69535" data-name="パス 69535" d="M73.583,382.084c.062.46.23.569.325.42.459-.712,2.17-.435,2.17-.8v-1.857c0-.084-.035-.15-.075-.14-.2.05-1.733.231-2.079.658A2.3,2.3,0,0,0,73.583,382.084Z" transform="translate(-68.773 -367.404)" fill="#17b0e5"/>
            <path id="パス_69536" data-name="パス 69536" d="M64.909,357.528a9.139,9.139,0,0,0-5.165,0,9.146,9.146,0,0,0,5.165,0Z" transform="translate(-58.553 -350.712)" fill="#119bcc"/>
            <path id="パス_69537" data-name="パス 69537" d="M88.3,382.283c-.041.245-.46.38-.76.232-1.447-.712-4.017-.482-4.017-.85v-1.911c0-.084.11-.14.238-.14a7.012,7.012,0,0,1,3.287.434c1.265.45,1.39,1.012,1.408,1.131C88.454,381.19,88.386,381.758,88.3,382.283Z" transform="translate(-76.154 -367.314)" fill="#17b0e5"/>
            <path id="パス_69538" data-name="パス 69538" d="M82.733,334.023H82.3v13.6c0,.26.088.472.2.472h.241Z" transform="translate(-75.248 -333.587)" fill="#119bcc"/>
            <path id="パス_69539" data-name="パス 69539" d="M91.24,357.248a9.875,9.875,0,0,1,5.373,0,9.876,9.876,0,0,1-5.373,0Z" transform="translate(-81.869 -350.505)" fill="#119bcc"/>
          </g>
          <g id="グループ_4155" data-name="グループ 4155" transform="translate(25.069)">
            <path id="パス_69540" data-name="パス 69540" d="M137.108,252.4s-9.909-.88-10.267-.521-.057,4.156-.35,5.914-2.981,7.824-4.3,9.14-3.27,6.676-4.811,6.874-1.854,0-1.854,0V272.8a4.409,4.409,0,0,0,2.633-1.839c.737-1.4,2.139-4.944,2.506-5.9s1.7-3.776,2.22-5.233a15.256,15.256,0,0,0,.731-5.757,5.554,5.554,0,0,1,2.463-3.924c.931-.416,4.411-1.575,6.215-.8a44.3,44.3,0,0,0,6.4,1.933,16.744,16.744,0,0,0,4.694.859,33.863,33.863,0,0,1,6.52,1.246l2.578,1.042Z" transform="translate(-115.529 -249.084)" fill="#98c000"/>
            <path id="パス_69541" data-name="パス 69541" d="M140.335,262.58a.221.221,0,0,0-.165.108,6.677,6.677,0,0,0-.519,2.846,6.578,6.578,0,0,0,.312,2.865.212.212,0,0,0,.157.115l2.085.3.117-3.222.12-3.3Z" transform="translate(-133.378 -258.862)" fill="#aed605"/>
            <path id="パス_69542" data-name="パス 69542" d="M140.885,263.273a.08.08,0,0,0-.062.04,7.01,7.01,0,0,0-.507,2.744,6.912,6.912,0,0,0,.307,2.761.078.078,0,0,0,.059.043l2.024.37.113-3.119.113-3.118Z" transform="translate(-133.876 -259.381)" fill="#98c000"/>
            <path id="パス_69543" data-name="パス 69543" d="M145.321,278.508a5.3,5.3,0,0,1-2.085,1.686l-1.748-.282c.054.01.766-.579,1.012-2.224C142.555,277.692,144.281,278.191,145.321,278.508Z" transform="translate(-134.746 -270.259)" fill="#aed605"/>
            <path id="パス_69544" data-name="パス 69544" d="M146.074,265.756a12.038,12.038,0,0,0-1.77-3.412l-1.941.284a9.275,9.275,0,0,1,.787,3.643C143.2,266.269,144.895,265.913,146.074,265.756Z" transform="translate(-135.393 -258.9)" fill="#aed605"/>
          </g>
          <g id="グループ_4157" data-name="グループ 4157" transform="translate(22.112 2.21)">
            <path id="パス_69545" data-name="パス 69545" d="M155.649,349.023a4.51,4.51,0,0,1-3.148-1.207h10.434a4.541,4.541,0,0,1-2.681,1.207Z" transform="translate(-139.942 -324.384)" fill="#725a4a"/>
            <path id="パス_69546" data-name="パス 69546" d="M117.955,349.023v-1.207h4.865a5.594,5.594,0,0,0-2.335,1.207Z" transform="translate(-114.368 -324.384)" fill="#725a4a"/>
            <rect id="長方形_27762" data-name="長方形 27762" width="34.621" height="18.31" transform="translate(13.509 5.12)" fill="#f7f7f8"/>
            <path id="パス_69547" data-name="パス 69547" d="M171.573,283.672s-3.379,1.269-2.771-.8c.527-1.8,1.395-4.421,2.722-5.285a5.31,5.31,0,0,1,.491-.279H156.161v18.309h13.914a27.56,27.56,0,0,1,4.027-8.7,56.8,56.8,0,0,0,4.992-8.56l11.688,1.161v-2.211H174.954Z" transform="translate(-142.652 -272.187)" fill="#d8dadc"/>
            <g id="グループ_4156" data-name="グループ 4156" transform="translate(0 4.344)">
              <path id="パス_69548" data-name="パス 69548" d="M113.465,335.358c-.392,1.039-2.438.32-3.439.913a3.667,3.667,0,0,0-1.925,3.177c0,.9-1.463.743-2.33.743-1.392,0-1.854-.452-1.525-1.791s1.78-3.84,3.855-3.84a3.611,3.611,0,0,0,2.829-2.795c.543.284,2.2.76,2.33.866C113.966,333.224,113.833,334.383,113.465,335.358Z" transform="translate(-104.144 -316.845)" fill="#7d471b"/>
              <path id="パス_69549" data-name="パス 69549" d="M115.685,342.983c1.665.2.464-.1-.573-.4a5.24,5.24,0,0,0-.521-.114,1.287,1.287,0,0,1-.169.014,2.929,2.929,0,0,0-1.739.615A9.194,9.194,0,0,1,115.685,342.983Z" transform="translate(-110.465 -324.773)" fill="#89542c"/>
              <path id="パス_69550" data-name="パス 69550" d="M131.99,333.46c-.089-.074-.931-.331-1.614-.575-.451.008-.8.085-.867.3a2.92,2.92,0,0,0,.625,2.445,4.716,4.716,0,0,0,2.189.183A2.2,2.2,0,0,0,131.99,333.46Z" transform="translate(-122.874 -317.675)" fill="#723f18"/>
              <path id="パス_69551" data-name="パス 69551" d="M147.171,340.067c-2.139-.908-2.332-1.807-1.959-2.686l2.609,1.066,3.053,1.247C150.455,340.792,150.263,341.379,147.171,340.067Z" transform="translate(-134.434 -321.003)" fill="#945a2f"/>
              <path id="パス_69552" data-name="パス 69552" d="M147.479,294.269c-2.336-.954-2.118-1.93-2.113-2.6.011-1.437,8.225-15.821,8.225-15.821s-1.686,16.881-2.353,18.2C150.847,294.824,150.791,295.622,147.479,294.269Z" transform="translate(-134.655 -275.449)" fill="#3d1c10"/>
              <path id="パス_69553" data-name="パス 69553" d="M135.332,276.857c.238-.522,1.212-2.3,2.241-2.448a12.721,12.721,0,0,1,4.4.312l-.247.564s-10.612,14.659-7.408,17.25c-.655-.15-3.065-.077-3.329-.238-.906-.549-1.749-1.82-1.092-4.174C130.843,284.714,133.685,280.458,135.332,276.857Z" transform="translate(-123.032 -274.324)" fill="#7d471b"/>
              <path id="パス_69554" data-name="パス 69554" d="M180.648,274.834a20.091,20.091,0,0,1-5.511,6.342c2-3.739,2.027-6.082,4.511-6.082-.817-.447-6.261-.808-8.544-.774a2.817,2.817,0,0,0-1.669.388l-.245.6s-.57,14.851-2.408,18.09c.439.031,2.784.192,5.474.189,1.909,0,2.184-.6,3.567-2.391a88.489,88.489,0,0,0,11.027-16.106C184.832,274.865,180.987,274.254,180.648,274.834Z" transform="translate(-150.514 -274.317)" fill="#7d471b"/>
              <path id="パス_69555" data-name="パス 69555" d="M166.552,278.016c1.427,1.805,3.116,11.169,1.272,15.865a4.4,4.4,0,0,1-4.625,2.988c1.788-.447,1.935-5.327,2.077-8.466C165.505,283.378,165.983,279.408,166.552,278.016Z" transform="translate(-147.863 -277.055)" fill="#945a2f"/>
              <path id="パス_69556" data-name="パス 69556" d="M149.111,278.016c-2.2,1.7-7.157,6.268-9.275,12.371-.9,2.584,1.573,4.552,1.573,4.552-.59-1.2-.242-1.976,1.31-4.967C144.632,286.285,148.541,279.408,149.111,278.016Z" transform="translate(-130.421 -277.055)" fill="#945a2f"/>
              <path id="パス_69557" data-name="パス 69557" d="M190.015,300.672A25.7,25.7,0,0,0,187,307.418C187.937,305.2,189.361,302.589,190.015,300.672Z" transform="translate(-165.479 -293.827)" fill="#89542c"/>
              <path id="パス_69558" data-name="パス 69558" d="M108.711,361.348c0,.217-.758.392-1.692.392s-1.693-.176-1.693-.392.758-.392,1.693-.392S108.711,361.132,108.711,361.348Z" transform="translate(-105.019 -338.455)" fill="#723f18"/>
            </g>
            <rect id="長方形_27763" data-name="長方形 27763" width="35.698" height="2.518" transform="translate(14.085) rotate(6.042)" fill="#fff"/>
          </g>
          <g id="グループ_4158" data-name="グループ 4158" transform="translate(60.275 21.992)">
            <path id="パス_69559" data-name="パス 69559" d="M255.01,335.294a2.421,2.421,0,0,0,.575,1.031c.391.5.973.929.913,1.633a.448.448,0,0,1-.492.41H251.96a.584.584,0,0,1-.523-.43,2.6,2.6,0,0,1,.208-1.259,7.5,7.5,0,0,0,.518-1.342A4.772,4.772,0,0,1,255.01,335.294Z" transform="translate(-251.336 -334.755)" fill="#945a2f"/>
            <path id="パス_69560" data-name="パス 69560" d="M255.843,340.792c1.2,0,2.055.572,2.055,1.377h-4.346A2.492,2.492,0,0,1,255.843,340.792Z" transform="translate(-252.912 -338.967)" fill="#a05f32"/>
            <path id="パス_69561" data-name="パス 69561" d="M257.807,335.954h1.911a3.655,3.655,0,0,1-.6-1.76c0-.567-1.43-.582-1.43,0C257.689,334.883,257.807,335.954,257.807,335.954Z" transform="translate(-255.975 -333.763)" fill="#a05f32"/>
            <rect id="長方形_27764" data-name="長方形 27764" width="5.243" height="0.456" transform="translate(5.243 3.647) rotate(180)" fill="#7d471b"/>
            <path id="パス_69562" data-name="パス 69562" d="M257.246,336.692l.545.138-.386.115a.107.107,0,0,0-.082.144.141.141,0,0,0,.13.073.162.162,0,0,0,.048-.007l.724-.215.908.23a.178.178,0,0,0,.042.005.139.139,0,0,0,.132-.078.11.11,0,0,0-.091-.141l-.565-.143.415-.123c.037-.013.094-.033.084-.112a.106.106,0,0,0-.071-.094l-.661-.262.467-.2a.1.1,0,0,0,.057-.151.157.157,0,0,0-.188-.046l-.642.278-.706-.28a.156.156,0,0,0-.186.051.1.1,0,0,0,.063.15l.527.209-.59.255a.125.125,0,0,0-.062.121A.108.108,0,0,0,257.246,336.692Zm.972.012-.574-.145.474-.205.549.217Z" transform="translate(-255.583 -335.279)" fill="#7d471b"/>
          </g>
        </g>
        <g id="グループ_4161" data-name="グループ 4161" transform="translate(85.028 39.606)">
          <path id="パス_69563" data-name="パス 69563" d="M347.055,200.977l-6.507-1.2h14.915v1.2Z" transform="translate(-332.908 -183.235)" fill="#725a4a"/>
          <g id="グループ_4160" data-name="グループ 4160" transform="translate(0 0)">
            <rect id="長方形_27765" data-name="長方形 27765" width="23.399" height="11.23" rx="2.174" transform="matrix(0.996, 0.091, -0.091, 0.996, 1.198, 3.099)" fill="#1b1c20"/>
            <path id="パス_69564" data-name="パス 69564" d="M334.137,191.817,311.78,189.78a.475.475,0,0,1-.43-.516l-.216,1.465a.481.481,0,0,0,.433.55l22.342,2.036a.481.481,0,0,0,.52-.409l.224-1.518A.475.475,0,0,1,334.137,191.817Z" transform="translate(-311.129 -175.454)" fill="#39373a"/>
            <path id="パス_69565" data-name="パス 69565" d="M339.31,179.453l-18.924-1.724c2.057-.242,15.5,1.061,18.041.062,2.5-.981,2.808-4.476,2.808-4.476l-.484,5.316C340.7,179.153,340.058,179.521,339.31,179.453Z" transform="translate(-317.982 -163.647)" fill="#39373a"/>
            <path id="パス_69566" data-name="パス 69566" d="M339.467,140.328l-16.581-1.511a1.565,1.565,0,0,0-1.634.74l-.731,1.82,20.808,1.9-.39-1.922A1.564,1.564,0,0,0,339.467,140.328Z" transform="translate(-318.082 -138.101)" fill="#1b1c20"/>
            <path id="パス_69567" data-name="パス 69567" d="M321.454,148.665c6.745.346,13.564.965,20.26,1.846C334.968,150.168,328.151,149.545,321.454,148.665Z" transform="translate(-318.772 -145.398)" fill="#39373a"/>
            <path id="パス_69568" data-name="パス 69568" d="M348.715,139.988a2.708,2.708,0,0,0-.491-1.51c-.613-.94-2.057-1.859-4.459-2.211-.168-.025-.462-.072-.922-.114-.508-.046-1.18-.07-1.568-.065a7.922,7.922,0,0,0-2.765.47A3.2,3.2,0,0,0,336.345,139c-.038.185.423.372.872.349.474-.024.456-.2.48-.358a2.733,2.733,0,0,1,.509-1.353,3.109,3.109,0,0,1,1.75-1.05,7.092,7.092,0,0,1,1.492-.206c.426-.017,1.091,0,1.345.027.274.025.415.043.526.058a7.347,7.347,0,0,1,2.683.844,2.456,2.456,0,0,1,1.371,2.7c-.023.187.45.368.894.34C348.729,140.324,348.712,140.149,348.715,139.988Z" transform="translate(-329.794 -136.087)" fill="#39373a"/>
            <path id="パス_69569" data-name="パス 69569" d="M338.2,145.952c-.152-.014-.283.061-.292.167s.106.2.258.217.283-.061.292-.167S338.348,145.966,338.2,145.952Z" transform="translate(-330.949 -143.389)" fill="#aeafb2"/>
            <path id="パス_69570" data-name="パス 69570" d="M380.772,149.831c.152.014.267.111.258.217s-.141.181-.293.167-.267-.111-.258-.217S380.62,149.818,380.772,149.831Z" transform="translate(-362.468 -146.261)" fill="#aeafb2"/>
          </g>
        </g>
        <g id="グループ_4167" data-name="グループ 4167" transform="translate(84.022 58.823)">
          <g id="グループ_4162" data-name="グループ 4162" transform="translate(0 0)">
            <rect id="長方形_27766" data-name="長方形 27766" width="12.756" height="15.126" transform="translate(0.198 0.2)" fill="#f7f7f8"/>
            <path id="パス_69571" data-name="パス 69571" d="M320.776,219.3l-12.756-.386v-.372h12.756Z" transform="translate(-307.822 -216.347)" fill="#d8dadc"/>
            <rect id="長方形_27767" data-name="長方形 27767" width="13.153" height="2.18" fill="#f7f7f8"/>
          </g>
          <g id="グループ_4163" data-name="グループ 4163" transform="translate(13.956 6.095)">
            <rect id="長方形_27768" data-name="長方形 27768" width="19.232" height="3.079" rx="1.54" transform="translate(0 6.158)" fill="#7d471b"/>
            <path id="パス_69572" data-name="パス 69572" d="M362.556,262.048a106.574,106.574,0,0,1,18.465,0A106.725,106.725,0,0,1,362.556,262.048Z" transform="translate(-362.15 -254.35)" fill="#663205"/>
            <rect id="長方形_27769" data-name="長方形 27769" width="19.232" height="3.079" rx="1.54" transform="translate(0 3.079)" fill="#199029"/>
            <path id="パス_69573" data-name="パス 69573" d="M362.556,250.192a106.548,106.548,0,0,1,18.465,0A106.724,106.724,0,0,1,362.556,250.192Z" transform="translate(-362.15 -245.573)" fill="#046329"/>
            <rect id="長方形_27770" data-name="長方形 27770" width="19.232" height="3.079" rx="1.54" fill="#c4001d"/>
            <path id="パス_69574" data-name="パス 69574" d="M362.556,238.336a106.546,106.546,0,0,1,18.465,0A106.753,106.753,0,0,1,362.556,238.336Z" transform="translate(-362.15 -236.796)" fill="#af0223"/>
          </g>
          <g id="グループ_4164" data-name="グループ 4164" transform="translate(16.743 1.717)">
            <path id="パス_69575" data-name="パス 69575" d="M374.474,234.594l13.582-.8a19.6,19.6,0,0,0-.552,2.284C383.362,235.637,374.635,235.584,374.474,234.594Z" transform="translate(-373.76 -229.354)" fill="#edeeef"/>
            <rect id="長方形_27771" data-name="長方形 27771" width="15.129" height="1.593" rx="0.797" transform="translate(0.451 3.892) rotate(-4.045)" fill="#f7f7f8"/>
            <path id="パス_69576" data-name="パス 69576" d="M374.935,232.126c4.805-.518,9.66-.862,14.49-1.025C384.62,231.619,379.765,231.962,374.935,232.126Z" transform="translate(-374.102 -227.358)" fill="#d8dadc"/>
            <rect id="長方形_27772" data-name="長方形 27772" width="15.129" height="1.593" rx="0.797" transform="matrix(0.998, -0.057, 0.057, 0.998, 0, 2.348)" fill="#edeeef"/>
            <path id="パス_69577" data-name="パス 69577" d="M373.152,226.754c4.812-.453,9.67-.732,14.5-.829C382.843,226.378,377.984,226.655,373.152,226.754Z" transform="translate(-372.782 -223.526)" fill="#d8dadc"/>
            <rect id="長方形_27773" data-name="長方形 27773" width="15.129" height="1.593" rx="0.797" transform="translate(0.184 0.775) rotate(-2.935)" fill="#f7f7f8"/>
            <path id="パス_69578" data-name="パス 69578" d="M373.819,220.545a127.327,127.327,0,0,1,14.507-.744A127.5,127.5,0,0,1,373.819,220.545Z" transform="translate(-373.275 -218.991)" fill="#d8dadc"/>
          </g>
          <g id="グループ_4165" data-name="グループ 4165" transform="translate(6.2 16.527)">
            <path id="パス_69579" data-name="パス 69579" d="M335.615,278.628c.032.746-.688.833-1.586,2.895a13.145,13.145,0,0,0-.86,2.409h3.345a6.453,6.453,0,0,1,1.856-2.452c1.69-.987,1.091-1.884.641-2.942a34.916,34.916,0,0,1-.73-3.892h-3.7A34.516,34.516,0,0,1,335.615,278.628Z" transform="translate(-332.639 -274.404)" fill="#725a4a"/>
            <path id="パス_69580" data-name="パス 69580" d="M333.164,311.13c-.452,1.4-.465,2.488.661,2.879a1.894,1.894,0,0,0,2.438-1.277c.093-.24.294-.983.522-1.6Z" transform="translate(-332.423 -301.413)" fill="#725a4a"/>
            <path id="パス_69581" data-name="パス 69581" d="M333.04,273.92a5.251,5.251,0,0,1,1.769-.2,7.229,7.229,0,0,1,1.934.2,35.867,35.867,0,0,0,.567,3.929c.4,1.058.965,1.955-.768,2.942-1.066.607-2.149,2.763-2.346,3.224a1.793,1.793,0,0,1-2.259,1.162c-1.426-.5-.724-2.281.263-4.342s1.711-2.149,1.711-2.895A35.139,35.139,0,0,0,333.04,273.92Z" transform="translate(-331.129 -273.716)" fill="#edeeef"/>
            <path id="パス_69582" data-name="パス 69582" d="M340.375,279.635a5.342,5.342,0,0,1,3.272-.611C342.568,279.283,341.45,279.354,340.375,279.635Z" transform="translate(-337.974 -277.621)" fill="#aeafb2"/>
            <path id="パス_69583" data-name="パス 69583" d="M340.13,278.26a3.483,3.483,0,0,1,1.569-.526,5.763,5.763,0,0,1,1.655-.005A29.6,29.6,0,0,0,340.13,278.26Z" transform="translate(-337.792 -276.644)" fill="#aeafb2"/>
          </g>
          <g id="グループ_4166" data-name="グループ 4166" transform="translate(22.248 16.618)">
            <path id="パス_69584" data-name="パス 69584" d="M392.922,274.53s2.3,4.955,2.366,5.08c.351-.188,1.642-1.166,2.055-1.5C396.629,277.517,392.922,274.53,392.922,274.53Z" transform="translate(-392.922 -274.409)" fill="#725a4a"/>
            <path id="パス_69585" data-name="パス 69585" d="M399.361,275.769c-.043.433-3.3,3.359-3.3,3.359l-3.143-4.943s1.526-.121,3.143-.121,3.075.121,3.075.121A2.9,2.9,0,0,1,399.361,275.769Z" transform="translate(-392.922 -274.065)" fill="#4fac25"/>
          </g>
        </g>
        <g id="グループ_4173" data-name="グループ 4173" transform="translate(83.654 10.177)">
          <g id="グループ_4169" data-name="グループ 4169" transform="translate(0 22.147)">
            <g id="グループ_4168" data-name="グループ 4168" transform="translate(0 1.027)">
              <rect id="長方形_27774" data-name="長方形 27774" width="15.129" height="1.593" rx="0.797" transform="translate(0 3.186)" fill="#edeeef"/>
              <path id="パス_69586" data-name="パス 69586" d="M307.071,126.746a127.314,127.314,0,0,1,14.526,0A127.493,127.493,0,0,1,307.071,126.746Z" transform="translate(-306.752 -122.763)" fill="#d8dadc"/>
              <rect id="長方形_27775" data-name="長方形 27775" width="15.129" height="1.593" rx="0.797" transform="translate(0 1.593)" fill="#f7f7f8"/>
              <path id="パス_69587" data-name="パス 69587" d="M307.071,120.612a127.316,127.316,0,0,1,14.526,0A127.553,127.553,0,0,1,307.071,120.612Z" transform="translate(-306.752 -118.222)" fill="#d8dadc"/>
              <rect id="長方形_27776" data-name="長方形 27776" width="15.129" height="1.593" rx="0.797" fill="#edeeef"/>
              <path id="パス_69588" data-name="パス 69588" d="M307.071,114.477a127.318,127.318,0,0,1,14.526,0A127.492,127.492,0,0,1,307.071,114.477Z" transform="translate(-306.752 -113.68)" fill="#d8dadc"/>
            </g>
            <path id="パス_69589" data-name="パス 69589" d="M316.856,108.68c-.31-.037-2.857.237-3.494.346s-3.839.528-4.421.528h7.753A5.841,5.841,0,0,0,316.856,108.68Z" transform="translate(-308.135 -108.513)" fill="#edeeef"/>
            <path id="パス_69590" data-name="パス 69590" d="M354.128,109.081h1.345s.422.079.613,1.571c.1.752.628.291.628,2.256a8.2,8.2,0,0,0,.655-2.069c0-.448-.138-1.586-.414-1.758s-.3-1.034-.931-1.034A3.089,3.089,0,0,0,354.128,109.081Z" transform="translate(-341.587 -108.047)" fill="#edeeef"/>
            <path id="パス_69591" data-name="パス 69591" d="M322.139,127.465a.863.863,0,0,0-.931.719c-.315,0-.954.064-1.241,1.387a10.917,10.917,0,0,1-.687,2.638,6.826,6.826,0,0,0-3.258.319,7.552,7.552,0,0,1-1.9.5c-.454.029-1.324.033-1.6.415.232-1.176,1.022-1.773,1.2-2.54.336-1.464.152-2.238-.376-2.711-1.419,0-2.388-.756-3.763-.756C311.4,127.432,322.139,127.465,322.139,127.465Z" transform="translate(-308.611 -122.398)" fill="#edeeef"/>
          </g>
          <g id="グループ_4170" data-name="グループ 4170" transform="translate(16.414 21.467)">
            <rect id="長方形_27777" data-name="長方形 27777" width="17.559" height="2.162" rx="1.081" transform="translate(0 4.324)" fill="#f7af2c"/>
            <path id="パス_69592" data-name="パス 69592" d="M370.469,125.44a126.361,126.361,0,0,1,16.858,0A126.624,126.624,0,0,1,370.469,125.44Z" transform="translate(-370.098 -120.034)" fill="#f28e00"/>
            <rect id="長方形_27778" data-name="長方形 27778" width="17.559" height="2.162" rx="1.081" transform="translate(0 2.162)" fill="#4987c4"/>
            <path id="パス_69593" data-name="パス 69593" d="M370.469,117.114a126.447,126.447,0,0,1,16.858,0A126.58,126.58,0,0,1,370.469,117.114Z" transform="translate(-370.098 -113.871)" fill="#336eb6"/>
            <rect id="長方形_27779" data-name="長方形 27779" width="17.559" height="2.162" rx="1.081" fill="#4fac25"/>
            <path id="パス_69594" data-name="パス 69594" d="M370.469,108.789a126.4,126.4,0,0,1,16.858,0A126.624,126.624,0,0,1,370.469,108.789Z" transform="translate(-370.098 -107.708)" fill="#199029"/>
          </g>
          <path id="パス_69595" data-name="パス 69595" d="M321.422,102.289l6.424.663a5.745,5.745,0,0,0,2.222-.061c1.113-.33,1.916-1.292,2.943-1.835a3.885,3.885,0,0,1,2.573-.393,3.3,3.3,0,0,1,2.131,1.46c.345.56.5,1.216.794,1.8a1.615,1.615,0,0,0,3.053.168c.357-.55.58-1.183.982-1.7a3.122,3.122,0,0,1,3.559-.945,1.089,1.089,0,0,0-.6-1.029,3.2,3.2,0,0,0-1.222-.3l-8.015-.9a8.577,8.577,0,0,0-3.235.049c-1.518.419-2.768,1.661-4.337,1.8a7.241,7.241,0,0,1-3.165-.748c-.82-.315-2.13-.846-3.009-.453a2.037,2.037,0,0,0-.8.834C321.639,100.829,321.111,102.257,321.422,102.289Z" transform="translate(-317.303 -79.265)" fill="#e73324"/>
          <path id="パス_69596" data-name="パス 69596" d="M340.841,94.432a1.556,1.556,0,0,0,2.042-.364,13.98,13.98,0,0,0,1.2-1.951,5.738,5.738,0,0,1,4-2.332,12.888,12.888,0,0,1,4.728.376,47.631,47.631,0,0,0,4.659,1.017,3.746,3.746,0,0,0,2.539-.359c.411-.271.758-.7,1.247-.757.984-.123,1.721,1.306,2.68,1.055a.848.848,0,1,0-.5-1.617c-.128-.627-.871-.879-1.5-1.018l-4.269-.947-2.489-.552c-1.221-.271-2.444-.542-3.686-.7a11.712,11.712,0,0,0-5.765.53,5.565,5.565,0,0,0-2.084,1.366,3.392,3.392,0,0,0-.932,2.271c0,.05-1.785.2-1.954.252-.449.152-.5.481-.453.914C340.384,92.446,340.137,93.829,340.841,94.432Z" transform="translate(-331.342 -69.693)" fill="#f28e00"/>
          <path id="パス_69597" data-name="パス 69597" d="M355.664,82.478a3.951,3.951,0,0,0-2.06,1.056,4.677,4.677,0,0,0-.888,2.343c1.755-.913,3.649-1.854,5.613-1.613a8.857,8.857,0,0,1,3.085,1.158c.971.527,3,1.4,3,1.4a47.165,47.165,0,0,1,5.531-1.54,3.1,3.1,0,0,1,1.345.435,2.18,2.18,0,0,0,1.368.3c.465-.1-2.853-1.694-3.74-2.205a12.651,12.651,0,0,0-1.9-1.119,5.834,5.834,0,0,0-1.643-.258C362.176,82.242,358.814,81.7,355.664,82.478Z" transform="translate(-340.541 -66.669)" fill="#aeafb2"/>
          <g id="グループ_4171" data-name="グループ 4171" transform="translate(0.055 0)">
            <rect id="長方形_27780" data-name="長方形 27780" width="16.614" height="5.758" transform="translate(0.228 4.196)" fill="#f7af2c"/>
            <path id="パス_69598" data-name="パス 69598" d="M326.6,40.479l-9.451-.78-1.932.031s-.551,2.164-.58,2.712,0,2.281,0,2.281h-3.58V38.943H320.3l6.3.984Z" transform="translate(-309.757 -34.742)" fill="#e89d25"/>
            <rect id="長方形_27781" data-name="長方形 27781" width="17.131" height="3.499" transform="translate(0.914 0) rotate(7.009)" fill="#f7af2c"/>
            <path id="パス_69599" data-name="パス 69599" d="M314.8,38.344s-2.4-.058-2.743-.058a1.563,1.563,0,0,0-1.039.78c-.029.231-.4,2.339-.4,3s.086,1.848.173,2.685-.029,4.3-.029,4.3l-3.176.693a4.693,4.693,0,0,1-.433-1.733,2.759,2.759,0,0,0-1.1-.26,24.29,24.29,0,0,1,.549-4.677c.462-1.473.462-4.562.779-4.908S314.109,38.315,314.8,38.344Z" transform="translate(-306.053 -34.079)" fill="#45aae1"/>
            <path id="パス_69600" data-name="パス 69600" d="M308.807,61.474c.108-1.648.269-3.414.469-5.053-.054,1.647-.1,3.522-.064,5.169A1.358,1.358,0,0,0,308.807,61.474Z" transform="translate(-308.092 -47.681)" fill="#369cc9"/>
          </g>
          <g id="グループ_4172" data-name="グループ 4172" transform="translate(16.768 5.998)">
            <path id="パス_69601" data-name="パス 69601" d="M386.031,52.279h-14.9a.67.67,0,0,0-.728.591V54.3a.319.319,0,0,0,.346.281h15.661a.318.318,0,0,0,.346-.281V52.87A.67.67,0,0,0,386.031,52.279Z" transform="translate(-370.406 -50.613)" fill="#f7f7f8"/>
            <rect id="長方形_27782" data-name="長方形 27782" width="0.651" height="1.477" transform="translate(7.623 2.476)" fill="#fff"/>
            <path id="パス_69602" data-name="パス 69602" d="M393.674,46.16c-.083-.287-1.982-.3-3.44-.3s-3.357.009-3.439.3c-.122.371-.242.7-.351.977a3.986,3.986,0,0,0,.746.39h6.089a3.98,3.98,0,0,0,.745-.39C393.917,46.86,393.8,46.53,393.674,46.16Z" transform="translate(-382.28 -45.863)" fill="#fff"/>
            <path id="パス_69603" data-name="パス 69603" d="M393.965,46.584c-.079-.267-1.988-.28-3.3-.28s-3.225.014-3.3.28c-.117.344-.232.65-.337.907a3.865,3.865,0,0,0,.716.362h5.849a3.865,3.865,0,0,0,.716-.362C394.2,47.234,394.081,46.928,393.965,46.584Z" transform="translate(-382.705 -46.189)" fill="#f7f7f8"/>
            <path id="パス_69604" data-name="パス 69604" d="M398.759,51.727l-.8.895a4.4,4.4,0,0,0,1.6,0Z" transform="translate(-390.803 -50.204)" fill="#d8dadc"/>
            <path id="パス_69605" data-name="パス 69605" d="M401,48.231s3.633-.582,3.45-1.226a12.928,12.928,0,0,0,.624,1.64l-3.15,1.465Z" transform="translate(-393.053 -46.708)" fill="#fff"/>
            <path id="パス_69606" data-name="パス 69606" d="M389.466,48.231s-3.633-.582-3.45-1.226a12.978,12.978,0,0,1-.624,1.64l3.15,1.465Z" transform="translate(-381.5 -46.708)" fill="#fff"/>
            <path id="パス_69607" data-name="パス 69607" d="M400.576,55.937c-.086,0-.156.033-.156.074s.07.073.156.073.156-.033.156-.073S400.662,55.937,400.576,55.937Z" transform="translate(-392.625 -53.321)" fill="#d8dadc"/>
            <path id="パス_69608" data-name="パス 69608" d="M400.576,59.208c-.086,0-.156.045-.156.1s.07.1.156.1.156-.045.156-.1S400.662,59.208,400.576,59.208Z" transform="translate(-392.625 -55.742)" fill="#d8dadc"/>
            <path id="パス_69609" data-name="パス 69609" d="M431.238,53.746a7.3,7.3,0,0,1,.082,1.851A1.849,1.849,0,0,1,431.238,53.746Z" transform="translate(-415.285 -51.699)" fill="#d8dadc"/>
            <path id="パス_69610" data-name="パス 69610" d="M371.553,53.746a7.3,7.3,0,0,0-.082,1.851A1.849,1.849,0,0,0,371.553,53.746Z" transform="translate(-371.177 -51.699)" fill="#d8dadc"/>
          </g>
        </g>
        <g id="グループ_4182" data-name="グループ 4182" transform="translate(8.482 23.446)">
          <path id="パス_69611" data-name="パス 69611" d="M176.342,93.024h-4.583V75.6s0-.042.055-.042h4.594s-.066.005-.066.042Z" transform="translate(-131.409 -75.118)" fill="#ad042d"/>
          <g id="グループ_4174" data-name="グループ 4174" transform="translate(26.774 0.446)">
            <path id="パス_69612" data-name="パス 69612" d="M124.921,133.623s-.907,6.632-1.06,9.124c-.075,1.227.446,11.873.446,11.873l-2.395.43s-2.547-10.376-2.424-12.709,1.89-15.326,2.135-16.677S124.921,133.623,124.921,133.623Z" transform="translate(-119.484 -112.557)" fill="#336eb6"/>
            <path id="パス_69613" data-name="パス 69613" d="M129.6,97.415l15.526-6.733a.67.67,0,0,0,.434-.831L144.547,85.3c-.061-.142.639-9.72.844-9.72H128.868c-.176.076-2.115,15.893-1.087,19.469l.913,2.114A.671.671,0,0,0,129.6,97.415Z" transform="translate(-125.405 -75.579)" fill="#336eb6"/>
            <path id="パス_69614" data-name="パス 69614" d="M157.752,93.37c-1.814-6.105-2.242-15.081-2.242-17.733h.655c0,2.138.373,11.378,2.2,17.512Z" transform="translate(-146.154 -75.622)" fill="#367cc1"/>
            <path id="パス_69615" data-name="パス 69615" d="M154.449,145.522c.19.231,1.937-.514,3.275-1.092s3.078-1.34,3.04-1.637c-.036-.388-.056-.739-.066-1.036a3.976,3.976,0,0,0-.839-.062l-2.785,1.2-.019.008-2.785,1.2a3.976,3.976,0,0,0-.53.654C153.949,144.976,154.19,145.23,154.449,145.522Z" transform="translate(-144.843 -124.523)" fill="#367cc1"/>
            <path id="パス_69616" data-name="パス 69616" d="M154.893,145.509c.179.213,1.936-.531,3.144-1.053s2.954-1.292,2.921-1.568c-.029-.362-.044-.689-.051-.966a3.865,3.865,0,0,0-.8-.048l-2.675,1.156-.019.008-2.675,1.156a3.87,3.87,0,0,0-.514.616C154.422,145.006,154.649,145.24,154.893,145.509Z" transform="translate(-145.202 -124.654)" fill="#336eb6"/>
            <path id="パス_69617" data-name="パス 69617" d="M163.65,143.6l.379-1.139a4.408,4.408,0,0,0-1.468.634Z" transform="translate(-151.374 -125.093)" fill="#2968a5"/>
            <path id="パス_69618" data-name="パス 69618" d="M155.664,142.962s-3.1,1.976-2.68,2.494a12.992,12.992,0,0,0-1.223-1.257l2.31-2.595Z" transform="translate(-143.379 -124.457)" fill="#367cc1"/>
            <path id="パス_69619" data-name="パス 69619" d="M166.718,140.9s3.566-.907,3.653-.243a12.968,12.968,0,0,1-.078-1.753l-3.473-.1Z" transform="translate(-154.451 -122.391)" fill="#367cc1"/>
            <path id="パス_69620" data-name="パス 69620" d="M164.578,142a.16.16,0,1,0-.207-.085A.158.158,0,0,0,164.578,142Z" transform="translate(-152.704 -124.52)" fill="#2968a5"/>
            <path id="パス_69621" data-name="パス 69621" d="M161.787,130.866a.16.16,0,1,0-.207-.085A.158.158,0,0,0,161.787,130.866Z" transform="translate(-150.638 -116.28)" fill="#2968a5"/>
            <path id="パス_69622" data-name="パス 69622" d="M159.615,118.182a.16.16,0,1,0-.207-.085A.158.158,0,0,0,159.615,118.182Z" transform="translate(-149.03 -106.891)" fill="#2968a5"/>
            <path id="パス_69623" data-name="パス 69623" d="M157.933,103.887a.16.16,0,1,0-.207-.085A.158.158,0,0,0,157.933,103.887Z" transform="translate(-147.785 -96.308)" fill="#2968a5"/>
            <path id="パス_69624" data-name="パス 69624" d="M156.763,88.573a.16.16,0,1,0-.207-.085A.158.158,0,0,0,156.763,88.573Z" transform="translate(-146.918 -84.972)" fill="#2968a5"/>
            <path id="パス_69625" data-name="パス 69625" d="M193.271,124.793a15.049,15.049,0,0,0-.981-2.476A3.686,3.686,0,0,0,193.271,124.793Z" transform="translate(-173.381 -110.179)" fill="#2968a5"/>
            <path id="パス_69626" data-name="パス 69626" d="M195.54,80.206c.287,3.3.635,7.825.635,7.825l2.827.158s.158-4.379.13-7.983Z" transform="translate(-175.788 -79.004)" fill="#336eb6"/>
          </g>
          <g id="グループ_4175" data-name="グループ 4175" transform="translate(53.022 0.118)">
            <path id="パス_69627" data-name="パス 69627" d="M251.618,83.287a.254.254,0,0,0-.106-.186,7.93,7.93,0,0,0-5.444,0,.255.255,0,0,0-.106.186l-.318,1.67h6.292Z" transform="translate(-239.128 -80.463)" fill="#f7f7f8"/>
            <path id="パス_69628" data-name="パス 69628" d="M251.949,83.907a.093.093,0,0,0-.039-.07,5.606,5.606,0,0,0-2.624-.472,5.372,5.372,0,0,0-2.595.465c-.07.045-.077.136-.088.22l-.29,1.46h5.945Z" transform="translate(-239.623 -81.015)" fill="#edeeef"/>
            <path id="パス_69629" data-name="パス 69629" d="M254.881,78.149h-.388V76.69a1.156,1.156,0,0,1,.236-.568,1.607,1.607,0,0,0,.322-.867c0-.454-.157-.638-.3-.661-.107-.016-.2.032-.2.051h-.386c0-.141.2-.329.55-.329a.677.677,0,0,1,.526.233,1.077,1.077,0,0,1,.2.705,1.806,1.806,0,0,1-.356.979,1.007,1.007,0,0,0-.2.456Z" transform="translate(-245.434 -74.317)" fill="#c3c5c8"/>
            <path id="パス_69630" data-name="パス 69630" d="M244.988,90.4s-1.945-2.055-6.22-2.055-6.22,2.055-6.22,2.055a5.744,5.744,0,0,0,.088,1.185,13.85,13.85,0,0,1,12.264,0A5.761,5.761,0,0,0,244.988,90.4Z" transform="translate(-229.429 -84.704)" fill="#1b1c20"/>
            <path id="パス_69631" data-name="パス 69631" d="M223.936,105.389c.289-.245.615-.6.749-.689.056.59.13,1.091.3,2.344.339,2.557.3,13.829.179,19.135a11.333,11.333,0,0,0,5.016,1.115V91.158a8.787,8.787,0,0,1-1.851-2.3c-.2.1-1.235.327-2.1.695-.231.1-1.331.659-1.548.784-.433.252-1.2,1.661-1.777,3.9-.128.5-1.314,6.152-1.36,6.376Z" transform="translate(-221.283 -85.079)" fill="#edeeef"/>
            <path id="パス_69632" data-name="パス 69632" d="M262.289,105.5a5.628,5.628,0,0,0-1.036-1.938c-.056.59-.6,17.192-.476,22.5a19.644,19.644,0,0,1-5.981,1.115V91.042a17.1,17.1,0,0,1,2.757-2.345c.628.143,3.76,1.335,3.966,1.47.69.455,1.21.941,1.787,3.18a34.408,34.408,0,0,1,1.448,7.146Z" transform="translate(-245.903 -84.962)" fill="#edeeef"/>
            <path id="パス_69633" data-name="パス 69633" d="M251.911,91.412v1.575a5.673,5.673,0,0,1-1.012-.521c.078-.092.593-.671.969-1.151C251.91,91.32,251.911,91.361,251.911,91.412Z" transform="translate(-243.018 -86.901)" fill="#d8dadc"/>
            <path id="パス_69634" data-name="パス 69634" d="M254.8,91.412v1.575a3.154,3.154,0,0,0,.6-.521c-.046-.092-.334-.671-.557-1.151C254.817,91.32,254.8,91.361,254.8,91.412Z" transform="translate(-245.903 -86.901)" fill="#d8dadc"/>
            <path id="パス_69635" data-name="パス 69635" d="M246.958,88.632a5.019,5.019,0,0,1-1.083-2.646l.282-1.153a1.815,1.815,0,0,0,2.005,1.684C248.118,86.621,247.6,87.469,246.958,88.632Z" transform="translate(-239.298 -82.102)" fill="#f7f7f8"/>
            <path id="パス_69636" data-name="パス 69636" d="M256.019,88.9a8.211,8.211,0,0,0,2.827-2.394l-.334-1.311a4.815,4.815,0,0,1-3.545,1.59C255.011,86.889,255.377,87.737,256.019,88.9Z" transform="translate(-246.03 -82.37)" fill="#f7f7f8"/>
            <path id="パス_69637" data-name="パス 69637" d="M254.318,129.343H253.8V93.017l.256-1.395.258,1.395Z" transform="translate(-245.168 -87.128)" fill="#f7f7f8"/>
            <path id="パス_69638" data-name="パス 69638" d="M254.473,95.229c-.061,0-.11.1-.11.226s.049.226.11.226.11-.1.11-.226S254.534,95.229,254.473,95.229Z" transform="translate(-245.582 -89.798)" fill="#c3c5c8"/>
            <path id="パス_69639" data-name="パス 69639" d="M254.473,112.06c-.061,0-.11.1-.11.226s.049.226.11.226.11-.1.11-.226S254.534,112.06,254.473,112.06Z" transform="translate(-245.582 -102.258)" fill="#c3c5c8"/>
            <path id="パス_69640" data-name="パス 69640" d="M254.473,128.892c-.061,0-.11.1-.11.226s.049.226.11.226.11-.1.11-.226S254.534,128.892,254.473,128.892Z" transform="translate(-245.582 -114.718)" fill="#c3c5c8"/>
            <path id="パス_69641" data-name="パス 69641" d="M254.473,145.723c-.061,0-.11.1-.11.226s.049.226.11.226.11-.1.11-.226S254.534,145.723,254.473,145.723Z" transform="translate(-245.582 -127.178)" fill="#c3c5c8"/>
            <path id="パス_69642" data-name="パス 69642" d="M254.473,162.554c-.061,0-.11.1-.11.226s.049.226.11.226.11-.1.11-.226S254.534,162.554,254.473,162.554Z" transform="translate(-245.582 -139.638)" fill="#c3c5c8"/>
            <path id="パス_69643" data-name="パス 69643" d="M254.473,179.385c-.061,0-.11.1-.11.226s.049.226.11.226.11-.1.11-.226S254.534,179.385,254.473,179.385Z" transform="translate(-245.582 -152.098)" fill="#c3c5c8"/>
            <path id="パス_69644" data-name="パス 69644" d="M254.473,196.217c-.061,0-.11.1-.11.226s.049.226.11.226.11-.1.11-.226S254.534,196.217,254.473,196.217Z" transform="translate(-245.582 -164.559)" fill="#c3c5c8"/>
            <path id="パス_69645" data-name="パス 69645" d="M254.473,213.048c-.061,0-.11.1-.11.226s.049.226.11.226.11-.1.11-.226S254.534,213.048,254.473,213.048Z" transform="translate(-245.582 -177.019)" fill="#c3c5c8"/>
            <path id="パス_69646" data-name="パス 69646" d="M220.553,128.948l2.849,5.574.52-1.1-2.811-5.871Z" transform="translate(-220.553 -113.723)" fill="#fff"/>
            <path id="パス_69647" data-name="パス 69647" d="M286.071,136.047a5.56,5.56,0,0,0-1.711,1.79,10.633,10.633,0,0,0-1.3,3.155s.168.533,1.876-2.327C286.33,136.335,286.071,136.047,286.071,136.047Z" transform="translate(-266.829 -120.015)" fill="#d8dadc"/>
            <path id="パス_69648" data-name="パス 69648" d="M284.88,133.382a7.189,7.189,0,0,0-1.671,1.874,11.281,11.281,0,0,0-1.337,3.072l-.418-1.176a5.828,5.828,0,0,1,1.062-2.592,7.355,7.355,0,0,1,2.008-2.112Z" transform="translate(-265.637 -117.35)" fill="#fff"/>
            <path id="パス_69649" data-name="パス 69649" d="M232.369,127.613a43.35,43.35,0,0,1-.414-7.355C232.176,122.657,232.342,125.17,232.369,127.613Z" transform="translate(-228.978 -108.327)" fill="#f7f7f8"/>
            <path id="パス_69650" data-name="パス 69650" d="M278.73,127.613a35.065,35.065,0,0,1,.055-7.355A43.264,43.264,0,0,1,278.73,127.613Z" transform="translate(-263.494 -108.327)" fill="#d8dadc"/>
          </g>
          <path id="パス_69651" data-name="パス 69651" d="M176.334,142.8l.005,2.234c-.1,0-.1-2.162-.19-2.162s-.1,2.162-.19,2.162-.1-2.162-.19-2.162-.1,2.162-.191,2.162-.1-2.162-.19-2.162-.1,2.162-.19,2.162-.095-2.162-.189-2.162-.095,2.162-.189,2.162-.095-2.162-.189-2.162-.1,2.162-.19,2.162-.1-2.162-.19-2.162-.1,2.162-.191,2.162-.1-2.162-.19-2.162-.1,2.162-.19,2.162-.1-2.162-.19-2.162-.1,2.162-.191,2.162-.1-2.162-.191-2.162-.1,2.162-.191,2.162-.1-2.162-.192-2.162-.1,2.162-.191,2.162-.1-2.162-.191-2.162-.1,2.162-.191,2.162-.1-2.162-.192-2.162-.1,2.162-.192,2.162c0-.151-.005-2.064-.005-2.234Z" transform="translate(-131.411 -124.896)" fill="#e73324"/>
          <g id="グループ_4176" data-name="グループ 4176" transform="translate(46.477 0.443)">
            <path id="パス_69652" data-name="パス 69652" d="M203.634,80.217c.616,5.022,1.465,9.926,1.465,9.926h6l.407-9.926Z" transform="translate(-201.483 -79.009)" fill="#1b1c20"/>
            <path id="パス_69653" data-name="パス 69653" d="M195.866,75.721l-.515,19.619.222,9.714H203.8s-.175-3.356-.1-8.091c.012-.776.98-1.024.974-1.308-.077-3.951-.208-15.626-.312-19.954a.121.121,0,0,1,.121-.133h-8.45A.16.16,0,0,0,195.866,75.721Z" transform="translate(-195.351 -75.567)" fill="#2f2e30"/>
            <path id="パス_69654" data-name="パス 69654" d="M226.66,75.567h-.28c-.01.724-.02,1.457-.03,2.191-.09,6.5-.18,16.951-.18,16.951v.011c0,.13.153.239.339.243s.335-.1.334-.227c0,0-.078-10.457-.156-16.964C226.677,77.033,226.668,76.3,226.66,75.567Z" transform="translate(-218.165 -75.567)" fill="#1b1c20"/>
            <path id="パス_69655" data-name="パス 69655" d="M217.98,183.165h.695l.107,1.543h-.695Z" transform="translate(-212.103 -155.221)" fill="#1b1c20"/>
            <path id="パス_69656" data-name="パス 69656" d="M197.372,183.165h.695l.107,1.543h-.695Z" transform="translate(-196.848 -155.221)" fill="#1b1c20"/>
            <path id="パス_69657" data-name="パス 69657" d="M196.092,182.786h8.2l.009.124h-8.2Z" transform="translate(-195.899 -154.94)" fill="#1b1c20"/>
            <path id="パス_69658" data-name="パス 69658" d="M204.585,176.114H200.29a.109.109,0,1,1,0-.218h4.295a.109.109,0,0,1,0,.218Z" transform="translate(-198.927 -149.84)" fill="#1b1c20"/>
          </g>
          <g id="グループ_4177" data-name="グループ 4177" transform="translate(17.362)">
            <path id="パス_69659" data-name="パス 69659" d="M91.525,78.512c.616,5.022,1.466,9.926,1.466,9.926h6l.407-9.926Z" transform="translate(-89.374 -77.304)" fill="#003874"/>
            <path id="パス_69660" data-name="パス 69660" d="M83.758,74.016l-.515,19.619.222,9.714h8.222s-.176-3.356-.1-8.091c.012-.776.98-1.024.974-1.308C92.482,90,92.351,78.323,92.247,74a.121.121,0,0,1,.121-.133h-8.45A.16.16,0,0,0,83.758,74.016Z" transform="translate(-83.243 -73.862)" fill="#034c8e"/>
            <path id="パス_69661" data-name="パス 69661" d="M114.551,73.862h-.28c-.01.724-.02,1.457-.03,2.191-.09,6.5-.18,16.951-.18,16.951v.011c0,.13.154.239.34.243s.335-.1.334-.228c0,0-.078-10.457-.156-16.964C114.568,75.328,114.559,74.59,114.551,73.862Z" transform="translate(-106.057 -73.862)" fill="#003874"/>
            <path id="パス_69662" data-name="パス 69662" d="M105.872,181.46h.695l.107,1.543h-.695Z" transform="translate(-99.995 -153.516)" fill="#003874"/>
            <path id="パス_69663" data-name="パス 69663" d="M85.264,181.46h.695L86.066,183h-.695Z" transform="translate(-84.739 -153.516)" fill="#003874"/>
            <path id="パス_69664" data-name="パス 69664" d="M83.983,181.081h8.2l.009.124h-8.2Z" transform="translate(-83.791 -153.235)" fill="#003874"/>
            <path id="パス_69665" data-name="パス 69665" d="M92.477,174.409h-4.3a.109.109,0,0,1,0-.218h4.3a.109.109,0,0,1,0,.218Z" transform="translate(-86.819 -148.135)" fill="#003874"/>
          </g>
          <g id="グループ_4178" data-name="グループ 4178" transform="translate(39.401 0.44)">
            <path id="パス_69666" data-name="パス 69666" d="M172.694,108.584h-4.583V75.637s0-.079.054-.079h4.595a.078.078,0,0,0-.066.079Z" transform="translate(-168.11 -75.558)" fill="#c4001d"/>
            <rect id="長方形_27783" data-name="長方形 27783" width="4.582" height="0.837" transform="translate(0 30.912)" fill="#e94f0a"/>
            <rect id="長方形_27784" data-name="長方形 27784" width="4.582" height="0.297" transform="translate(0 30.496)" fill="#f28e00"/>
            <rect id="長方形_27785" data-name="長方形 27785" width="4.582" height="0.297" transform="translate(0 31.848)" fill="#4fac25"/>
            <path id="パス_69667" data-name="パス 69667" d="M172.686,202.713l.005,2.234c-.1,0-.1-2.162-.19-2.162s-.1,2.162-.19,2.162-.1-2.162-.19-2.162-.1,2.162-.191,2.162-.1-2.162-.19-2.162-.1,2.162-.19,2.162-.095-2.162-.189-2.162-.095,2.162-.189,2.162-.095-2.162-.189-2.162-.095,2.162-.19,2.162-.1-2.162-.19-2.162-.1,2.162-.191,2.162-.1-2.162-.19-2.162-.1,2.162-.19,2.162-.1-2.162-.191-2.162-.1,2.162-.191,2.162-.1-2.162-.191-2.162-.1,2.162-.191,2.162-.1-2.162-.191-2.162-.1,2.162-.191,2.162-.1-2.162-.191-2.162-.1,2.162-.191,2.162-.1-2.162-.192-2.162-.1,2.162-.192,2.162c0-.151,0-2.065,0-2.234Z" transform="translate(-168.111 -169.69)" fill="#e94f0a"/>
            <rect id="長方形_27786" data-name="長方形 27786" width="4.582" height="1.202" transform="translate(0 29.162)" fill="#f7af2c"/>
          </g>
          <g id="グループ_4179" data-name="グループ 4179" transform="translate(0.145 0.118)">
            <path id="パス_69668" data-name="パス 69668" d="M45.65,82.564c-2.243,0-2.736.746-2.83,1.745h6.115C48.964,83.135,49.008,82.564,45.65,82.564Z" transform="translate(-36.102 -80.422)" fill="#dbd2c3"/>
            <path id="パス_69669" data-name="パス 69669" d="M44.826,83.561c-2.625-.031-3.1,1.455-3.1,1.894s2.69,65.117,2.69,65.117,3.482-64.658,3.528-65.525S48.4,83.6,44.826,83.561Z" transform="translate(-35.29 -81.16)" fill="#bfb29d"/>
            <path id="パス_69670" data-name="パス 69670" d="M53.389,78.149H53V76.69a1.157,1.157,0,0,1,.236-.568,1.609,1.609,0,0,0,.322-.867c0-.454-.158-.638-.3-.661-.107-.016-.2.032-.2.051h-.386c0-.141.2-.329.55-.329a.677.677,0,0,1,.526.233,1.077,1.077,0,0,1,.2.705,1.808,1.808,0,0,1-.355.979,1.007,1.007,0,0,0-.2.456Z" transform="translate(-43.395 -74.317)" fill="#c3c5c8"/>
            <path id="パス_69671" data-name="パス 69671" d="M43.888,97.408H28.811l-.075-.506H43.967Z" transform="translate(-25.676 -91.037)" fill="#1b1c20"/>
            <path id="パス_69672" data-name="パス 69672" d="M42.851,90.081s-2.968-1.733-8.611-1.733-7.17,1.733-7.17,1.733a3.136,3.136,0,0,0,.116,1c1.877-1.027,2.5-1.8,7.054-1.8s6.011,1.012,8.494,1.8A3.136,3.136,0,0,0,42.851,90.081Z" transform="translate(-24.439 -84.704)" fill="#1b1c20"/>
            <path id="パス_69673" data-name="パス 69673" d="M20.307,127.591a90.8,90.8,0,0,0,.551-11.462c.069,7.779-.482,15.467-.849,37.314-.006.367,1.6.757,5.6.757l-.826-48.536S23.419,92.719,23.658,88c-.216.074-2.436.484-2.732.572-1.115.333-1.938,1.5-1.928,3.946.069,16.11-1.616,29.489-2.047,35.063a4.75,4.75,0,0,0,1.389.205A8.758,8.758,0,0,0,20.307,127.591Z" transform="translate(-16.952 -84.443)" fill="#d1c4ac"/>
            <path id="パス_69674" data-name="パス 69674" d="M45.372,253.639l-.446-26.193c-.245-3.43-.405-5.592-.38-5.04.084,1.843-.75,26.85-.9,31.2C44.168,253.629,44.737,253.639,45.372,253.639Z" transform="translate(-36.716 -183.883)" fill="#bfb29d"/>
            <path id="パス_69675" data-name="パス 69675" d="M55.869,127.748a113.283,113.283,0,0,0-.792-25.636,75.514,75.514,0,0,1-.121,15.291,304.645,304.645,0,0,1,.911,35.966c-1.359.761-4.671,1-8.618.953l-.32-48.809s4.528-14.9,5.037-17.879c.418.138,5.263.982,5.575,1.067,1.843.5,1.629,1.52,1.918,3.763.621,4.808,3.075,20.136,1.243,35.283a10.05,10.05,0,0,1-2.78.367A5.6,5.6,0,0,1,55.869,127.748Z" transform="translate(-39.144 -84.176)" fill="#d1c4ac"/>
            <path id="パス_69676" data-name="パス 69676" d="M47.092,103.029c.319-.971,5.593-10.893,7.561-14.252a15.763,15.763,0,0,0-2.057-.89,7.83,7.83,0,0,0,1.749-.3,12.582,12.582,0,0,0-1.165-2.053L51.8,84.466c.691.812-1.1,4.311-1.558,6.238C49.084,95.6,47.365,101.587,47.092,103.029Z" transform="translate(-39.264 -81.83)" fill="#dbd2c3"/>
            <path id="パス_69677" data-name="パス 69677" d="M37.392,103.058c-.188-.974-2.614-11.1-3.4-14.972a12.443,12.443,0,0,0,1.547-.393s-.735-.426-1.139-.628a7.361,7.361,0,0,1,2.492-2.56c-.645.735-.77,1.644-.665,5.012C36.343,93.365,37.392,101.554,37.392,103.058Z" transform="translate(-29.564 -81.86)" fill="#dbd2c3"/>
            <path id="パス_69678" data-name="パス 69678" d="M30.153,135.07c-.456-7.008-.7-14.967-.579-22.254C29.883,120.077,30.114,127.679,30.153,135.07Z" transform="translate(-26.273 -102.818)" fill="#bfb29d"/>
            <path id="パス_69679" data-name="パス 69679" d="M76.533,121.009c-.687-1.546-.5-5.372-.057-7.39C76.415,116.03,76.815,118.991,76.533,121.009Z" transform="translate(-60.722 -103.412)" fill="#dbd2c3"/>
            <path id="パス_69680" data-name="パス 69680" d="M83.057,235.291a12.261,12.261,0,0,0,4.307.144A37.055,37.055,0,0,0,83.057,235.291Z" transform="translate(-65.889 -193.477)" fill="#dbd2c3"/>
            <path id="パス_69681" data-name="パス 69681" d="M20.654,234.314a12.962,12.962,0,0,0-2.545.038A4.342,4.342,0,0,0,20.654,234.314Z" transform="translate(-17.809 -192.727)" fill="#dbd2c3"/>
            <path id="パス_69682" data-name="パス 69682" d="M52.481,200.912a26.089,26.089,0,0,0,6.731-.961v-1.489a40.326,40.326,0,0,1-6.731.962Z" transform="translate(-43.254 -166.221)" fill="#dbd2c3"/>
            <rect id="長方形_27787" data-name="長方形 27787" width="0.827" height="2.037" transform="matrix(0.998, -0.061, 0.061, 0.998, 11.947, 32.713)" fill="#dbd2c3"/>
            <path id="パス_69683" data-name="パス 69683" d="M36.911,202.33a32.521,32.521,0,0,1-5.491-.464v-1.488a40.229,40.229,0,0,0,5.491.464Z" transform="translate(-27.663 -167.639)" fill="#dbd2c3"/>
            <rect id="長方形_27788" data-name="長方形 27788" width="0.827" height="1.836" transform="matrix(-0.998, -0.062, 0.062, -0.998, 6.451, 34.724)" fill="#dbd2c3"/>
            <path id="パス_69684" data-name="パス 69684" d="M45.965,200.979H44.949c-.516,0-.935.241-.935.538v1c0,.3.419.538.935.538h1.016c.516,0,.935-.241.935-.538v-1C46.9,201.22,46.48,200.979,45.965,200.979Zm.464,1.534c0,.147-.208.266-.464.266H44.949c-.256,0-.464-.119-.464-.266v-.464h.805v-.11h-.805v-.423c0-.147.208-.266.464-.266h1.016c.256,0,.464.119.464.266Z" transform="translate(-36.986 -168.084)" fill="#bfb29d"/>
            <path id="パス_69685" data-name="パス 69685" d="M44.81,159.882c-.17,0-.307.183-.307.407s.138.407.307.407.307-.182.307-.407S44.98,159.882,44.81,159.882Z" transform="translate(-37.348 -137.66)" fill="#dbd2c3"/>
            <ellipse id="楕円形_346" data-name="楕円形 346" cx="0.308" cy="0.407" rx="0.308" ry="0.407" transform="translate(7.022 29.545)" fill="#dbd2c3"/>
            <path id="パス_69686" data-name="パス 69686" d="M44.426,224.993a.423.423,0,0,0,0,.815c.17,0,.307-.182.307-.407A.368.368,0,0,0,44.426,224.993Z" transform="translate(-37.063 -185.861)" fill="#dbd2c3"/>
          </g>
          <g id="グループ_4180" data-name="グループ 4180" transform="translate(0 20.986)">
            <path id="パス_69687" data-name="パス 69687" d="M41.447,164.355a.22.22,0,0,0-.1-.164,5.731,5.731,0,0,0-2.665-.423,5.731,5.731,0,0,0-2.665.423.22.22,0,0,0-.1.164l-.311,2.128h6.161Z" transform="translate(-30.609 -161.405)" fill="#f4c04e"/>
            <path id="パス_69688" data-name="パス 69688" d="M41.77,164.9a.08.08,0,0,0-.039-.061,6.023,6.023,0,0,0-2.569-.414,6.022,6.022,0,0,0-2.569.414.08.08,0,0,0-.039.061l-.3,2.069h5.821Z" transform="translate(-31.094 -161.89)" fill="#e8b83f"/>
            <path id="パス_69689" data-name="パス 69689" d="M46.737,158.5h-.389v-1.459a1.157,1.157,0,0,1,.236-.568,1.605,1.605,0,0,0,.322-.867c0-.454-.158-.638-.3-.66a.3.3,0,0,0-.061,0c0-.082-.007-.209-.01-.274h.037a.678.678,0,0,1,.526.233,1.077,1.077,0,0,1,.2.705,1.806,1.806,0,0,1-.356.979,1.007,1.007,0,0,0-.2.456Z" transform="translate(-38.568 -154.668)" fill="#aeafb2"/>
            <path id="パス_69690" data-name="パス 69690" d="M19.125,205.192c.242-2.413-.121-9.446-.058-10.857.063.549.346,7.508.208,12.445,0,.015,1.244,1.038,4.495,1.038V173.559a9.088,9.088,0,0,1-2.055-1.336c-.032.124-3.172,1.189-3.4,1.31-1.567.825-1.847,1.965-1.918,4.67-.014.516.017,6.96.157,12.9s.058,13.7.035,14.108c0,0,.266.244,1.208.244C18.98,205.458,19.125,205.192,19.125,205.192Z" transform="translate(-16.392 -167.664)" fill="#e8b83f"/>
            <path id="パス_69691" data-name="パス 69691" d="M51.124,205.017c0-12.719-.188-17.158-.314-18.722-.062.549-.093,15.049.045,19.986a19.025,19.025,0,0,1-6.054,1.038V173.062s1.064-.559,2.753-1.511c.032.124,4.367,1.289,4.6,1.408,1.373.7,1.674,1.752,1.8,4.008.381,7.045.616,11.99.588,15.713s-.583,10.962-.583,12.3c0,0-.176.249-1.42.242S51.124,205.017,51.124,205.017Z" transform="translate(-37.423 -167.166)" fill="#e8b83f"/>
            <path id="パス_69692" data-name="パス 69692" d="M43.309,169.742v1.928l-.524-.265s.243-.9.474-1.749C43.287,169.66,43.309,169.7,43.309,169.742Z" transform="translate(-35.931 -165.764)" fill="#d8a83d"/>
            <path id="パス_69693" data-name="パス 69693" d="M37.435,169.868a5.614,5.614,0,0,1-1.65-2.055l.263-1.785c-.008.055.491.753,2.03.942C38.075,167.027,37.709,168.8,37.435,169.868Z" transform="translate(-30.749 -163.078)" fill="#f4c04e"/>
            <path id="パス_69694" data-name="パス 69694" d="M44.8,169.742v1.928l.524-.265s-.243-.9-.474-1.749C44.823,169.66,44.8,169.7,44.8,169.742Z" transform="translate(-37.423 -165.764)" fill="#d8a83d"/>
            <path id="パス_69695" data-name="パス 69695" d="M45.548,169.957a11.291,11.291,0,0,0,3.146-1.924l-.3-1.961a8.406,8.406,0,0,1-3.4.932C44.989,167.061,45.377,168.766,45.548,169.957Z" transform="translate(-37.56 -163.111)" fill="#f4c04e"/>
            <path id="パス_69696" data-name="パス 69696" d="M44.27,206.146H43.7v-34.4l.284-1.78.286,1.78Z" transform="translate(-36.607 -165.993)" fill="#f4c04e"/>
            <path id="パス_69697" data-name="パス 69697" d="M44.442,177.484c-.068,0-.122.094-.122.21s.055.21.122.21.122-.094.122-.21S44.51,177.484,44.442,177.484Z" transform="translate(-37.067 -171.559)" fill="#d7dadc"/>
            <path id="パス_69698" data-name="パス 69698" d="M44.442,193.145c-.068,0-.122.094-.122.21s.055.21.122.21.122-.094.122-.21S44.51,193.145,44.442,193.145Z" transform="translate(-37.067 -183.152)" fill="#d7dadc"/>
            <path id="パス_69699" data-name="パス 69699" d="M44.442,208.806c-.068,0-.122.094-.122.21s.055.21.122.21.122-.094.122-.21S44.51,208.806,44.442,208.806Z" transform="translate(-37.067 -194.746)" fill="#d7dadc"/>
            <path id="パス_69700" data-name="パス 69700" d="M44.442,224.468c-.068,0-.122.094-.122.21s.055.21.122.21.122-.094.122-.21S44.51,224.468,44.442,224.468Z" transform="translate(-37.067 -206.34)" fill="#d7dadc"/>
            <path id="パス_69701" data-name="パス 69701" d="M44.442,240.129c-.068,0-.122.094-.122.21s.055.21.122.21.122-.094.122-.21S44.51,240.129,44.442,240.129Z" transform="translate(-37.067 -217.934)" fill="#d7dadc"/>
            <path id="パス_69702" data-name="パス 69702" d="M44.442,255.791c-.068,0-.122.094-.122.21s.055.21.122.21.122-.094.122-.21S44.51,255.791,44.442,255.791Z" transform="translate(-37.067 -229.529)" fill="#d7dadc"/>
            <path id="パス_69703" data-name="パス 69703" d="M44.442,271.452c-.068,0-.122.094-.122.21s.055.21.122.21.122-.094.122-.21S44.51,271.452,44.442,271.452Z" transform="translate(-37.067 -241.122)" fill="#d7dadc"/>
            <path id="パス_69704" data-name="パス 69704" d="M44.442,287.113c-.068,0-.122.094-.122.21s.055.21.122.21.122-.094.122-.21S44.51,287.113,44.442,287.113Z" transform="translate(-37.067 -252.716)" fill="#d7dadc"/>
            <path id="パス_69705" data-name="パス 69705" d="M25.257,215.083a129.911,129.911,0,0,1-.617-15.577C24.969,204.588,25.216,209.909,25.257,215.083Z" transform="translate(-22.473 -187.861)" fill="#d8a83d"/>
            <path id="パス_69706" data-name="パス 69706" d="M65.969,206.1c-.632-1.721-.665-5.979-.4-8.226C65.636,200.554,66.1,203.85,65.969,206.1Z" transform="translate(-52.682 -186.65)" fill="#f4c04e"/>
            <path id="パス_69707" data-name="パス 69707" d="M69.294,294.771a9.136,9.136,0,0,0,2.8.053A15.617,15.617,0,0,0,69.294,294.771Z" transform="translate(-55.555 -258.357)" fill="#d8a83d"/>
            <path id="パス_69708" data-name="パス 69708" d="M17.654,294.6a5.583,5.583,0,0,0,2.188.053A9.534,9.534,0,0,0,17.654,294.6Z" transform="translate(-17.326 -258.23)" fill="#d8a83d"/>
          </g>
          <g id="グループ_4181" data-name="グループ 4181" transform="translate(30.609 0.066)">
            <path id="パス_69709" data-name="パス 69709" d="M139.416,74.33a4.893,4.893,0,0,0-1.752-.212,7.221,7.221,0,0,0-1.951.212A40.234,40.234,0,0,1,134.8,78.4c-.5,1.1-1.136,2.027.509,3.05,1.013.63,1.907,2.865,2.064,3.343A1.636,1.636,0,0,0,139.531,86c1.47-.523.924-2.365.118-4.5s-1.522-2.229-1.456-3A39.929,39.929,0,0,1,139.416,74.33Z" transform="translate(-134.252 -74.118)" fill="#195a9b"/>
            <path id="パス_69710" data-name="パス 69710" d="M140.839,74.322a5.251,5.251,0,0,0-1.77-.2,7.231,7.231,0,0,0-1.934.2,35.849,35.849,0,0,1-.566,3.929c-.4,1.058-.965,1.955.767,2.942,1.066.607,2.149,2.763,2.347,3.224a1.792,1.792,0,0,0,2.259,1.162c1.425-.5.724-2.281-.263-4.342s-1.71-2.149-1.71-2.895A35.139,35.139,0,0,1,140.839,74.322Z" transform="translate(-135.657 -74.118)" fill="#edeeef"/>
            <path id="パス_69711" data-name="パス 69711" d="M142.992,80.037a5.342,5.342,0,0,0-3.272-.611C140.8,79.685,141.916,79.756,142.992,80.037Z" transform="translate(-138.3 -78.023)" fill="#aeafb2"/>
            <path id="パス_69712" data-name="パス 69712" d="M143.374,78.661a3.486,3.486,0,0,0-1.569-.526,5.755,5.755,0,0,0-1.655-.005A29.566,29.566,0,0,1,143.374,78.661Z" transform="translate(-138.618 -77.046)" fill="#aeafb2"/>
          </g>
        </g>
        <g id="グループ_4196" data-name="グループ 4196" transform="translate(25.776 96.344)">
          <g id="グループ_4183" data-name="グループ 4183" transform="translate(21.107 8.892)">
            <rect id="長方形_27789" data-name="長方形 27789" width="14.907" height="8.611" transform="translate(0.467 0.645)" fill="#336eb6"/>
            <rect id="長方形_27790" data-name="長方形 27790" width="15.84" height="1.29" fill="#4792dd"/>
            <path id="パス_69713" data-name="パス 69713" d="M188.01,396.023h-5.8a.45.45,0,0,0-.486.4v.395a.45.45,0,0,0,.486.4h5.8a.449.449,0,0,0,.486-.4v-.395A.449.449,0,0,0,188.01,396.023Z" transform="translate(-177.184 -394.146)" fill="#053a70"/>
          </g>
          <g id="グループ_4184" data-name="グループ 4184" transform="translate(41.667 5.276)">
            <path id="パス_69714" data-name="パス 69714" d="M245.2,376.4a2.088,2.088,0,0,1-.786,1.27c-.451.447-.762.689-.7,1.393a.448.448,0,0,0,.492.41h4.045a.585.585,0,0,0,.523-.431,1.589,1.589,0,0,0-.287-1.153,3.65,3.65,0,0,1-.439-1.448A4.768,4.768,0,0,0,245.2,376.4Z" transform="translate(-243.63 -375.861)" fill="#54382d"/>
            <path id="パス_69715" data-name="パス 69715" d="M246.462,381.894a1.8,1.8,0,0,0-2.055,1.377h4.786C247.732,383.229,247.868,381.93,246.462,381.894Z" transform="translate(-244.15 -380.069)" fill="#604538"/>
            <path id="パス_69716" data-name="パス 69716" d="M250.18,377.06h-2.057a3.907,3.907,0,0,0,.821-1.76c.057-.567,1.6-.582,1.54,0C250.414,375.989,250.18,377.06,250.18,377.06Z" transform="translate(-246.901 -374.87)" fill="#604538"/>
            <rect id="長方形_27791" data-name="長方形 27791" width="5.243" height="0.456" transform="translate(0 3.191)" fill="#492d25"/>
            <path id="パス_69717" data-name="パス 69717" d="M251.393,377.714a.124.124,0,0,0-.062-.121l-.59-.255.527-.209a.1.1,0,0,0,.063-.15.156.156,0,0,0-.186-.051l-.706.28-.642-.278a.157.157,0,0,0-.188.045.1.1,0,0,0,.057.151l.467.2-.661.262a.106.106,0,0,0-.071.094c-.01.078.048.1.084.112l.415.123-.565.143a.11.11,0,0,0-.091.141.139.139,0,0,0,.132.078.177.177,0,0,0,.042-.005l.908-.23.724.215a.16.16,0,0,0,.048.007.141.141,0,0,0,.13-.073.107.107,0,0,0-.082-.144l-.386-.115.545-.138A.107.107,0,0,0,251.393,377.714Zm-1.506-.038.548-.217.474.205-.574.145Z" transform="translate(-247.728 -376.385)" fill="#492d25"/>
          </g>
          <g id="グループ_4186" data-name="グループ 4186" transform="translate(25.985 3.928)">
            <g id="グループ_4185" data-name="グループ 4185">
              <path id="パス_69718" data-name="パス 69718" d="M183.785,370.878a2.593,2.593,0,0,1,.742-.187c.232-.031,1-.17,1.683-.292.6-.109,1.171-.211,1.322-.231.11-.015.35-.063.652-.123.56-.112,1.326-.265,1.991-.353,1.068-.14,2.988.762,3.147,1.97.161,1.224-1.309,1.869-2.336,2a4.122,4.122,0,0,1-1.727-.255,6.3,6.3,0,0,0-1.252-.277,7.27,7.27,0,0,0-2.111.286c-.332.076-.676.154-1.04.222a1.579,1.579,0,0,1-1.249-.183,1.528,1.528,0,0,1-.55-1.093,1.312,1.312,0,0,1,.507-1.366A1.459,1.459,0,0,1,183.785,370.878Zm8.223,2.271c.641-.29,1.187-.775,1.1-1.458-.141-1.075-1.938-1.908-2.9-1.782-.657.086-1.42.239-1.976.35-.307.061-.549.11-.667.125-.145.019-.712.121-1.311.229-.716.129-1.456.263-1.687.293a2.043,2.043,0,0,0-.876.275,1.11,1.11,0,0,0-.413,1.157h0a1.322,1.322,0,0,0,.461.945,1.376,1.376,0,0,0,1.081.145c.359-.068.7-.145,1.032-.221a7.4,7.4,0,0,1,2.177-.291,6.442,6.442,0,0,1,1.3.285,3.962,3.962,0,0,0,1.637.247A3.86,3.86,0,0,0,192.008,373.149Z" transform="translate(-183.037 -369.678)" fill="#7d471b"/>
              <path id="パス_69719" data-name="パス 69719" d="M183.476,372.663a1.241,1.241,0,0,0,1.67,1.183,13.635,13.635,0,0,1,3.18-.51c1.058.088,1.963.662,2.956.532s2.391-.751,2.242-1.881-2-2.011-3.024-1.876-2.324.434-2.643.476-2.572.466-3,.522S183.3,371.307,183.476,372.663Z" transform="translate(-183.348 -369.988)" fill="#945a2f"/>
              <path id="パス_69720" data-name="パス 69720" d="M185.1,375.26c-.071-.538.545-.815,1.129-1.009a6.866,6.866,0,0,1,1.461-.465c.6-.079,1.758-.192,1.884.77s-.608,1.332-1.42,1.439a11.269,11.269,0,0,1-1.693.026C185.792,376.046,185.189,375.978,185.1,375.26Z" transform="translate(-184.556 -372.682)" fill="#684933"/>
              <path id="パス_69721" data-name="パス 69721" d="M203.023,370.111c-1.028.135-2.324.434-2.643.476-.167.022,2.77-.644,3.07,1.206.109.67-.41,1.026-1.633,1.331-.527.131-1.312.185-.968.213,1.058.088,1.963.662,2.956.532s2.391-.751,2.242-1.881S204.051,369.976,203.023,370.111Z" transform="translate(-195.87 -369.988)" fill="#a05f32"/>
              <path id="パス_69722" data-name="パス 69722" d="M200.049,373.336l-2.938.317a.738.738,0,0,0-.64.824l.019.148a.738.738,0,0,0,.831.631l2.938-.318a.737.737,0,0,0,.639-.824l-.019-.148A.737.737,0,0,0,200.049,373.336Z" transform="translate(-192.978 -372.381)" fill="#a05f32"/>
              <path id="パス_69723" data-name="パス 69723" d="M184.27,374.629a.451.451,0,0,0,.148-.322,1.192,1.192,0,0,0-.942,1.473c.105.8.511,1.209,1.206,1.221-.08-.163-.234-.247-.447-.389a1.246,1.246,0,0,1-.449-.945A1.481,1.481,0,0,1,184.27,374.629Z" transform="translate(-183.348 -373.105)" fill="#a05f32"/>
              <path id="パス_69724" data-name="パス 69724" d="M202.674,373.07a.135.135,0,0,0-.106-.144c-.06-.006-.11.05-.111.123a4.083,4.083,0,0,1-.048.566,4.048,4.048,0,0,0-.383-.63.157.157,0,0,0-.078-.047c-.06-.011-.109.049-.11.123a4.17,4.17,0,0,1-.048.567,4.041,4.041,0,0,0-.383-.631.1.1,0,0,0-.153-.014.156.156,0,0,0,0,.189,3.746,3.746,0,0,1,.463.827,2.745,2.745,0,0,1-.359.84.159.159,0,0,0,.017.189.1.1,0,0,0,.085.034.1.1,0,0,0,.067-.044,2.806,2.806,0,0,0,.315-.656,3.065,3.065,0,0,1,.11.56.138.138,0,0,0,.079.119.115.115,0,0,0,.048.008.1.1,0,0,0,.067-.044,2.8,2.8,0,0,0,.314-.652,3.1,3.1,0,0,1,.111.557.126.126,0,0,0,.119.126h.006a.122.122,0,0,0,.09-.14,3.643,3.643,0,0,0-.219-.916A4.324,4.324,0,0,0,202.674,373.07Zm-.559,1.51a3.943,3.943,0,0,0-.169-.587,4.192,4.192,0,0,0,.091-.585,3.761,3.761,0,0,1,.294.579A3.216,3.216,0,0,1,202.116,374.58Z" transform="translate(-196.499 -372.083)" fill="#7d471b"/>
              <path id="パス_69725" data-name="パス 69725" d="M216.372,375.8a.934.934,0,0,1-.213-.077,1.046,1.046,0,0,1-.282-.256,1.451,1.451,0,0,1-.33-.814.994.994,0,0,1,.918-.966,1.146,1.146,0,0,0-.7.929,1.676,1.676,0,0,0,.214.714c.024.045.306.527.4.469C216.372,375.792,216.374,375.794,216.372,375.8Z" transform="translate(-207.103 -372.643)" fill="#af6e43"/>
            </g>
          </g>
          <g id="グループ_4187" data-name="グループ 4187" transform="translate(46.974 5.276)">
            <path id="パス_69726" data-name="パス 69726" d="M267.768,376.4a2.089,2.089,0,0,0,.787,1.27c.45.447.761.689.7,1.393a.448.448,0,0,1-.493.41h-4.045a.585.585,0,0,1-.523-.431,1.59,1.59,0,0,1,.287-1.153,3.646,3.646,0,0,0,.439-1.448A4.768,4.768,0,0,1,267.768,376.4Z" transform="translate(-264.095 -375.861)" fill="#54382d"/>
            <path id="パス_69727" data-name="パス 69727" d="M267.355,381.894a1.8,1.8,0,0,1,2.055,1.377h-4.786C266.085,383.229,265.949,381.93,267.355,381.894Z" transform="translate(-264.424 -380.069)" fill="#604538"/>
            <path id="パス_69728" data-name="パス 69728" d="M270.545,377.06H272.6a3.909,3.909,0,0,1-.821-1.76c-.057-.567-1.6-.582-1.54,0C270.31,375.989,270.545,377.06,270.545,377.06Z" transform="translate(-268.581 -374.87)" fill="#604538"/>
            <rect id="長方形_27792" data-name="長方形 27792" width="5.243" height="0.456" transform="translate(5.243 3.647) rotate(180)" fill="#492d25"/>
            <path id="パス_69729" data-name="パス 69729" d="M270.01,377.8l.545.138-.386.115a.107.107,0,0,0-.082.144.142.142,0,0,0,.13.073.159.159,0,0,0,.048-.007l.724-.215.908.23a.178.178,0,0,0,.042.005.14.14,0,0,0,.133-.078.11.11,0,0,0-.091-.141l-.565-.143.415-.123c.037-.013.094-.033.084-.112a.106.106,0,0,0-.071-.094l-.661-.262.467-.2a.1.1,0,0,0,.057-.151.157.157,0,0,0-.188-.045l-.642.278-.706-.28a.156.156,0,0,0-.186.051.1.1,0,0,0,.063.15l.527.209-.59.255a.125.125,0,0,0-.062.121A.107.107,0,0,0,270.01,377.8Zm.972.012-.574-.145.474-.205.549.217Z" transform="translate(-268.346 -376.385)" fill="#492d25"/>
          </g>
          <g id="グループ_4188" data-name="グループ 4188" transform="translate(37.897 8.892)">
            <rect id="長方形_27793" data-name="長方形 27793" width="14.907" height="8.611" transform="translate(0.467 0.645)" fill="#39373a"/>
            <rect id="長方形_27794" data-name="長方形 27794" width="15.84" height="1.29" transform="translate(0)" fill="#323133"/>
            <path id="パス_69730" data-name="パス 69730" d="M252.66,396.023h-5.8a.45.45,0,0,0-.486.4v.395a.45.45,0,0,0,.486.4h5.8a.45.45,0,0,0,.486-.4v-.395A.45.45,0,0,0,252.66,396.023Z" transform="translate(-241.834 -394.146)" fill="#1b1c20"/>
          </g>
          <g id="グループ_4190" data-name="グループ 4190" transform="translate(19.42 10.264)">
            <rect id="長方形_27795" data-name="長方形 27795" width="1.207" height="33.017" transform="translate(34.853 8.427) rotate(90)" fill="#725a4a"/>
            <g id="グループ_4189" data-name="グループ 4189">
              <rect id="長方形_27796" data-name="長方形 27796" width="0.808" height="0.808" transform="translate(35.684 1.639)" fill="#aeafb2"/>
              <rect id="長方形_27797" data-name="長方形 27797" width="0.808" height="0.808" transform="translate(0 1.639)" fill="#aeafb2"/>
              <path id="パス_69731" data-name="パス 69731" d="M195.275,395.716a.254.254,0,0,0-.254-.253H181.615v-.121a1.266,1.266,0,0,0-1.265-1.264h-5.536a1.266,1.266,0,0,0-1.265,1.264v.121H160.144a.253.253,0,0,0-.253.253.25.25,0,0,0,.134.22l.975,6.2a.152.152,0,0,0,.15.129h32.866a.152.152,0,0,0,.15-.129l.975-6.2A.251.251,0,0,0,195.275,395.716Zm-31.033.254h1.622l.705,5.993H165.04Zm.492,5.993h-1.528l-.893-5.993h1.622Zm1.437-5.993h1.623l.611,5.993h-1.529Zm1.929,0h1.623l.517,5.993H168.71Zm1.929,0h1.623l.423,5.993h-1.53Zm1.929,0h1.624l.329,5.993h-1.53Zm1.928-.016a.247.247,0,0,0,.118-.085h1.5l.239,6.095h-1.53Zm1.926-.085h1.622v6.095h-1.383Zm1.927,0h1.769l-.239,6.095h-1.529Zm2.074,0h1.354a.25.25,0,0,0,.2.1h.068l-.329,5.993h-1.53Zm1.925.1h1.624l-.423,5.993h-1.53Zm1.929,0h1.624l-.517,5.993h-1.529Zm1.929,0h1.623l-.611,5.993h-1.529Zm1.929,0h1.623l-.705,5.993h-1.529Zm1.929,0h1.622l-.8,5.993h-1.528Zm1.929,0H193l-.893,5.993h-1.528Zm-16.565-1.386h5.536a.758.758,0,0,1,.757.757v.223h-7.051v-.223A.758.758,0,0,1,174.815,394.584Zm-14.476,1.386h1.667l.893,5.993H161.28Zm33.547,5.993h-1.469l.893-5.993h1.518Z" transform="translate(-159.337 -394.077)" fill="#f7f7f8"/>
            </g>
          </g>
          <g id="グループ_4194" data-name="グループ 4194" transform="translate(0 12.422)">
            <g id="グループ_4191" data-name="グループ 4191" transform="translate(0 1.415)">
              <path id="パス_69732" data-name="パス 69732" d="M100.81,413.611c0-.081,0-.163,0-.248.018-.511.9-.459.9,0,0,.089,0,.175,0,.256C101.488,413.62,101.143,413.611,100.81,413.611Z" transform="translate(-96.178 -411.659)" fill="#e94f0a"/>
              <path id="パス_69733" data-name="パス 69733" d="M101.114,413.945c0-.065,0-.132,0-.2.015-.416.734-.373.734,0,0,.072,0,.142,0,.208C101.665,413.952,101.385,413.945,101.114,413.945Z" transform="translate(-96.404 -411.991)" fill="#f28e00"/>
              <path id="パス_69734" data-name="パス 69734" d="M85.043,410.515a3.666,3.666,0,0,1-.663,1.641c-.416.6-1.121,1.07-1.051,1.881a.516.516,0,0,0,.567.472h4.66a.673.673,0,0,0,.6-.5c.127-1.127-.379-1.463-.379-2.41,0-.393-.612.233-1.035-.32-.464-.608-.51-.843-.685-.86A3.864,3.864,0,0,0,85.043,410.515Z" transform="translate(-83.235 -409.696)" fill="#c4001d"/>
              <path id="パス_69735" data-name="パス 69735" d="M103.313,421.958h.04a.673.673,0,0,0,.6-.5,2.654,2.654,0,0,0-.077-1.052c-.295.094-.553.489-.566,1.234C103.311,421.752,103.313,421.852,103.313,421.958Z" transform="translate(-98.032 -417.145)" fill="#e94f0a"/>
              <path id="パス_69736" data-name="パス 69736" d="M85.9,418.441a1.618,1.618,0,0,0-1.8,1.587h5.182C87.872,420.028,87.437,418.441,85.9,418.441Z" transform="translate(-83.812 -415.687)" fill="#e94f0a"/>
              <path id="パス_69737" data-name="パス 69737" d="M89.324,410.948H87.25a4.34,4.34,0,0,0,.972-2.523c.029-.825,1.458-.74,1.458,0A6.961,6.961,0,0,1,89.324,410.948Z" transform="translate(-86.141 -407.837)" fill="#e94f0a"/>
              <rect id="長方形_27798" data-name="長方形 27798" width="6.04" height="0.525" transform="translate(0 4.327)" fill="#f7f7f8"/>
              <path id="パス_69738" data-name="パス 69738" d="M84.967,422.766c0-.221,0-.312,0-.467,0-.933,1.756-.837,1.785,0,.005.163,0,.319,0,.467Z" transform="translate(-84.451 -418.051)" fill="#f7f7f8"/>
              <path id="パス_69739" data-name="パス 69739" d="M90.5,412.188a.2.2,0,0,0-.066-.175l-.686-.386.651-.306a.171.171,0,0,0,.09-.221.163.163,0,0,0-.221-.072l-.857.41-.686-.385a.158.158,0,0,0-.209.065.148.148,0,0,0,.043.208l.491.284-.758.362a.156.156,0,0,0-.085.149.135.135,0,0,0,.074.141l.44.19-.636.183a.171.171,0,0,0-.116.2.143.143,0,0,0,.132.119.14.14,0,0,0,.046-.005l1.044-.29.838.361a.161.161,0,0,0,.058.014.175.175,0,0,0,.168-.1.169.169,0,0,0-.088-.225l-.456-.19.675-.188A.152.152,0,0,0,90.5,412.188Zm-1.765-.085.645-.3.535.309-.689.2Z" transform="translate(-86.67 -410.187)" fill="#f7f7f8"/>
            </g>
            <g id="グループ_4193" data-name="グループ 4193" transform="translate(3.987)">
              <path id="パス_69740" data-name="パス 69740" d="M107.5,408.568a2.839,2.839,0,0,1-.82-.147c-.244-.074-1.071-.282-1.8-.465-.646-.162-1.256-.315-1.414-.363-.116-.035-.375-.095-.7-.17-.606-.14-1.435-.331-2.133-.543-1.122-.339-2.622-2.1-2.238-3.365.389-1.287,2.136-1.267,3.215-.941a4.484,4.484,0,0,1,1.6,1.027,6.838,6.838,0,0,0,1.118.836,7.905,7.905,0,0,0,2.222.663c.364.074.74.151,1.131.246a1.718,1.718,0,0,1,1.157.741,1.661,1.661,0,0,1,.055,1.33,1.428,1.428,0,0,1-1.115,1.128A1.624,1.624,0,0,1,107.5,408.568Zm-7.139-5.938c-.766,0-1.524.237-1.742.955-.342,1.13,1.067,2.762,2.079,3.068.691.209,1.515.4,2.118.538.332.077.594.137.718.175.153.046.76.2,1.4.36.768.192,1.562.392,1.8.465a2.23,2.23,0,0,0,.992.12,1.209,1.209,0,0,0,.929-.962h0a1.439,1.439,0,0,0-.034-1.144,1.5,1.5,0,0,0-1.007-.629c-.387-.094-.761-.17-1.122-.243a8.047,8.047,0,0,1-2.29-.688,7,7,0,0,1-1.158-.863,4.309,4.309,0,0,0-1.513-.979A4.207,4.207,0,0,0,100.363,402.63Z" transform="translate(-98.333 -402.388)" fill="#f7f7f8"/>
              <path id="パス_69741" data-name="パス 69741" d="M109.117,407.725a1.35,1.35,0,0,0-1.127-1.922,14.85,14.85,0,0,1-3.383-.92c-1.01-.561-1.65-1.537-2.694-1.852s-2.708-.327-3.067.861,1.078,2.889,2.159,3.216,2.5.611,2.835.713,2.761.69,3.208.826A1.431,1.431,0,0,0,109.117,407.725Z" transform="translate(-98.671 -402.73)" fill="#c4001d"/>
              <path id="パス_69742" data-name="パス 69742" d="M124.672,415.494c-.158.522-.773.539-1.329.493a5.646,5.646,0,0,1-1.383-.134c-.522-.158-1.516-.5-1.235-1.431s1.032-.99,1.74-.775a9.181,9.181,0,0,1,1.4.626C124.416,414.5,124.883,414.8,124.672,415.494Z" transform="translate(-114.873 -410.646)" fill="#68676c"/>
              <path id="パス_69743" data-name="パス 69743" d="M101.005,407.109c1.081.327,2.5.611,2.835.713.176.053.925.24,1.663.425-1.482-.588-2.909-1.952-2.794-2.331.124-.41.133-.977,1.482-.731a7.69,7.69,0,0,0,1.529.12,4.827,4.827,0,0,1-1.113-.421c-1.01-.561-1.65-1.537-2.694-1.852s-2.708-.327-3.067.861S99.925,406.782,101.005,407.109Z" transform="translate(-98.671 -402.73)" fill="#e94f0a"/>
              <g id="グループ_4192" data-name="グループ 4192" transform="translate(4.675 4.682)">
                <path id="パス_69744" data-name="パス 69744" d="M116.691,422.994l-.357-.007a1.131,1.131,0,0,1,1.129-1.257c.065,0,.106-.02.123-.046.083-.133-.1-.567-.191-.8a1.438,1.438,0,0,1-.146-.468h.357a1.976,1.976,0,0,0,.119.333c.161.392.34.834.164,1.124-.04.066-.17.046-.4.046C116.975,421.918,116.7,422.41,116.691,422.994Z" transform="translate(-116.334 -420.414)" fill="#f7f7f8"/>
              </g>
              <path id="パス_69745" data-name="パス 69745" d="M109.99,412l2.351.711a.938.938,0,0,0,1.07-.751l.061-.2a.939.939,0,0,0-.474-1.219l-2.351-.711a.939.939,0,0,0-1.07.751l-.061.2A.938.938,0,0,0,109.99,412Z" transform="translate(-106.57 -407.878)" fill="#e94f0a"/>
              <path id="パス_69746" data-name="パス 69746" d="M132.7,417.416a.493.493,0,0,0-.292.253,1.51,1.51,0,0,0,.946-2.79,1.232,1.232,0,0,0,.27.586,1.357,1.357,0,0,1,.022,1.138A1.611,1.611,0,0,1,132.7,417.416Z" transform="translate(-123.561 -411.636)" fill="#e94f0a"/>
              <path id="パス_69747" data-name="パス 69747" d="M134.764,419.479a1.171,1.171,0,0,0,.294-1.091A.6.6,0,0,1,134.764,419.479Z" transform="translate(-125.303 -414.233)" fill="#e94f0a"/>
              <path id="パス_69748" data-name="パス 69748" d="M98.8,405.526c.307,0,.172-.407.293-.808.1-.331.357-.565.3-.734a1.283,1.283,0,0,0-.584.742A1.562,1.562,0,0,0,98.8,405.526Z" transform="translate(-98.643 -403.569)" fill="#f7f7f8"/>
              <path id="パス_69749" data-name="パス 69749" d="M110.875,411.167a.178.178,0,0,0,.317.163,4.51,4.51,0,0,1,.405-.647,4.892,4.892,0,0,0,.21,1,.252.252,0,0,0,.09.107.173.173,0,0,0,.24-.077,4.6,4.6,0,0,1,.405-.649,4.9,4.9,0,0,0,.21,1,.178.178,0,1,0,.339-.109,4.466,4.466,0,0,1-.217-1.287,3.623,3.623,0,0,1,1.038-.776.178.178,0,0,0-.152-.323,3.81,3.81,0,0,0-.863.584,3.281,3.281,0,0,1,.163-.741.175.175,0,0,0-.05-.193.218.218,0,0,0-.068-.04.177.177,0,0,0-.127.009,3.8,3.8,0,0,0-.859.58,3.332,3.332,0,0,1,.158-.737.178.178,0,0,0-.107-.228l-.009,0a.178.178,0,0,0-.219.11,3.92,3.92,0,0,0-.205,1.237A4.844,4.844,0,0,0,110.875,411.167Zm1.734-1.45a4.253,4.253,0,0,0-.088.811,4.751,4.751,0,0,0-.482.642,4.387,4.387,0,0,1-.106-.882A4.062,4.062,0,0,1,112.609,409.716Z" transform="translate(-107.603 -407.128)" fill="#f7f7f8"/>
              <path id="パス_69750" data-name="パス 69750" d="M103.923,407.85c-1.088-.4-2.411-1.394-1.936-2.709.536-1.485,2.3-.473,3.1.225-.8-.4-2.479-1.425-2.92-.083C101.776,406.479,103.012,407.372,103.923,407.85Z" transform="translate(-100.965 -403.859)" fill="#e0460a"/>
            </g>
          </g>
          <g id="グループ_4195" data-name="グループ 4195" transform="translate(19.42)">
            <rect id="長方形_27799" data-name="長方形 27799" width="0.808" height="0.808" transform="translate(35.684 1.639)" fill="#aeafb2"/>
            <rect id="長方形_27800" data-name="長方形 27800" width="0.808" height="0.808" transform="translate(0 1.639)" fill="#aeafb2"/>
            <path id="パス_69751" data-name="パス 69751" d="M195.275,356.194a.254.254,0,0,0-.254-.254H181.615v-.121a1.266,1.266,0,0,0-1.265-1.265h-5.536a1.266,1.266,0,0,0-1.265,1.265v.121H160.144a.254.254,0,0,0-.253.254.25.25,0,0,0,.134.219l.975,6.2a.152.152,0,0,0,.15.129h32.866a.152.152,0,0,0,.15-.129l.975-6.2A.25.25,0,0,0,195.275,356.194Zm-31.033.253h1.622l.705,5.993H165.04Zm.492,5.993h-1.528l-.893-5.993h1.622Zm1.437-5.993h1.623l.611,5.993h-1.529Zm1.929,0h1.623l.517,5.993H168.71Zm1.929,0h1.623l.423,5.993h-1.53Zm1.929,0h1.624l.329,5.993h-1.53Zm1.928-.016a.245.245,0,0,0,.118-.085h1.5l.239,6.095h-1.53Zm1.926-.085h1.622v6.095h-1.383Zm1.927,0h1.769l-.239,6.095h-1.529Zm2.074,0h1.354a.25.25,0,0,0,.2.1h.068l-.329,5.993h-1.53Zm1.925.1h1.624l-.423,5.993h-1.53Zm1.929,0h1.624l-.517,5.993h-1.529Zm1.929,0h1.623l-.611,5.993h-1.529Zm1.929,0h1.623l-.705,5.993h-1.529Zm1.929,0h1.622l-.8,5.993h-1.528Zm1.929,0H193l-.893,5.993h-1.528Zm-16.565-1.386h5.536a.758.758,0,0,1,.757.757v.223h-7.051v-.223A.758.758,0,0,1,174.815,355.062Zm-14.476,1.386h1.667l.893,5.993H161.28Zm33.547,5.993h-1.469l.893-5.993h1.518Z" transform="translate(-159.337 -354.555)" fill="#f7f7f8"/>
          </g>
        </g>
        <g id="グループ_4197" data-name="グループ 4197" transform="translate(7.803 7.06)">
          <rect id="長方形_27801" data-name="長方形 27801" width="34.458" height="10.689" transform="translate(0.939 2.445)" fill="#f7f7f8"/>
          <path id="パス_69752" data-name="パス 69752" d="M51.847,25.258l-4.426-.052-.277,7.853h-1.05l-1.438-7.885-11.8-.138-.829,4.235-4.865-2.046-3.206-2.293-6.562-.077v-.387l34.458-1.34Z" transform="translate(-16.45 -19.919)" fill="#d8dadc"/>
          <rect id="長方形_27802" data-name="長方形 27802" width="35.53" height="3.301" transform="translate(0 1.592) rotate(-2.568)" fill="#fff"/>
          <path id="パス_69753" data-name="パス 69753" d="M81.286,35.28a1.319,1.319,0,1,1-1.319-1.319A1.319,1.319,0,0,1,81.286,35.28Z" transform="translate(-61.801 -27.937)" fill="#98989c"/>
          <path id="パス_69754" data-name="パス 69754" d="M113.965,43.491h-3.349l-2.157-18.846,5.707-.256Z" transform="translate(-83.869 -20.851)" fill="#e94f0a"/>
          <path id="パス_69755" data-name="パス 69755" d="M48.627,30.847l-4.208-1.132-4.012-2.459,9.188-.412Z" transform="translate(-33.49 -22.668)" fill="#e94f0a"/>
          <rect id="長方形_27803" data-name="長方形 27803" width="3.331" height="2.402" transform="translate(26.747 22.64)" fill="#e24a0e"/>
        </g>
      </g>
    </g>
  </g>
</svg>
