<svg xmlns="http://www.w3.org/2000/svg" xmlns:xlink="http://www.w3.org/1999/xlink" width="140" height="140" viewBox="0 0 140 140">
  <defs>
    <clipPath id="clip-path">
      <circle id="楕円形_25" data-name="楕円形 25" cx="70" cy="70" r="70" transform="translate(0 0.477)" fill="#f7f3e5"/>
    </clipPath>
  </defs>
  <g id="trouble_obj03" transform="translate(0 -0.477)">
    <circle id="楕円形_23" data-name="楕円形 23" cx="70" cy="70" r="70" transform="translate(0 0.477)" fill="#fff"/>
    <g id="マスクグループ_4" data-name="マスクグループ 4" clip-path="url(#clip-path)">
      <g id="グループ_4149" data-name="グループ 4149" transform="translate(-720.341 -241.47)">
        <g id="グループ_4144" data-name="グループ 4144" transform="translate(728.506 259.18)">
          <g id="グループ_4142" data-name="グループ 4142" transform="translate(17.456 8.125)">
            <path id="パス_69412" data-name="パス 69412" d="M1048.37,430.129l.858,5.525,5.417,1.082,9.146-4.759L1062.135,424Z" transform="translate(-1011.555 -394.911)" fill="#edbf98"/>
            <path id="パス_69413" data-name="パス 69413" d="M1056.052,302.066a.337.337,0,0,1-.042-.475,3.794,3.794,0,0,1,.614-.605.338.338,0,0,1,.4.543,3.14,3.14,0,0,0-.5.5.336.336,0,0,1-.33.113A.332.332,0,0,1,1056.052,302.066Zm-.227,7.505a4.808,4.808,0,0,1-.446-.712.338.338,0,1,1,.6-.308,4.082,4.082,0,0,0,.384.612.338.338,0,0,1-.539.407Zm-1.073-2.652c-.037-.172-.072-.347-.109-.529l-.049-.24a.338.338,0,0,1,.661-.136l.049.242c.037.18.072.353.108.523a.338.338,0,0,1-.661.141Zm.033-2.434a.337.337,0,0,1-.206-.43,6.715,6.715,0,0,1,.326-.757.337.337,0,1,1,.6.3,6.117,6.117,0,0,0-.293.681.338.338,0,0,1-.389.218A.291.291,0,0,1,1054.785,304.486Z" transform="translate(-1016.347 -299.621)" fill="#c2e7fa"/>
            <g id="グループ_4141" data-name="グループ 4141" transform="translate(0 35.811)">
              <path id="パス_69416" data-name="パス 69416" d="M973.678,471l21.192,18.674-10.284,50.153-5.421,22.449s-30.659,4.689-49.236-4.25L940.8,479.086l15.25-8.129Z" transform="translate(-919.857 -467.077)" fill="#6ab6b2"/>
              <g id="グループ_4138" data-name="グループ 4138" transform="translate(35.526)">
                <path id="パス_69417" data-name="パス 69417" d="M1045.522,455.9l5.875,2.449,9.119-3.021,1.3,3.5s-4.358,6.881-10.74,4.922-7.525-4.207-7.525-4.207Z" transform="translate(-1043.354 -454.978)" fill="#fff"/>
                <path id="パス_69418" data-name="パス 69418" d="M1050.438,462.882c-6.449-1.982-7.685-4.287-7.735-4.383a.351.351,0,0,1,0-.326l1.967-3.643a.351.351,0,0,1,.444-.157l5.754,2.4,8.995-2.98a.351.351,0,0,1,.439.211l1.3,3.5a.353.353,0,0,1-.032.311c-.044.068-4.382,6.784-10.714,5.188h0C1050.724,462.965,1050.581,462.926,1050.438,462.882Zm9.329-8.318-8.8,2.915a.353.353,0,0,1-.245-.009l-5.582-2.327-1.716,3.178c.384.512,2.031,2.3,7.219,3.89.131.04.262.077.392.11h0c5.343,1.346,9.208-3.811,9.854-4.742Z" transform="translate(-1042.665 -453.773)" fill="#50bef1"/>
              </g>
              <path id="パス_69419" data-name="パス 69419" d="M1159.922,550.014s1.894-1.143,2.982,1.295c3.324,7.447,15.093,56.924,15.093,56.924L1162.9,611.35l-15.872-40.191Z" transform="translate(-1087.94 -528.077)" fill="#6ab6b2"/>
              <g id="グループ_4139" data-name="グループ 4139" transform="translate(43.32 3.298)">
                <path id="パス_69420" data-name="パス 69420" d="M1079.239,474.351a.345.345,0,0,0,.2-.008.351.351,0,0,0,.219-.445l-1.793-5.279a.351.351,0,1,0-.665.226l1.793,5.279A.35.35,0,0,0,1079.239,474.351Z" transform="translate(-1077.181 -468.381)" fill="#50bef1"/>
              </g>
              <g id="グループ_4140" data-name="グループ 4140" transform="translate(40.907 2.961)">
                <path id="パス_69421" data-name="パス 69421" d="M1066.762,472.42a.351.351,0,0,0,.41-.208,44.623,44.623,0,0,1,2.132-4.719.347.347,0,0,0,.02-.492.355.355,0,0,0-.5-.02,36.365,36.365,0,0,0-2.3,4.965.352.352,0,0,0,.24.474Z" transform="translate(-1066.497 -466.889)" fill="#50bef1"/>
              </g>
              <path id="パス_69422" data-name="パス 69422" d="M910.1,500.245s-8.845,2.571-9.35,4.575S885.7,554.74,885.33,554.507s8.75,5.475,8.75,5.475l22.75-35.749Z" transform="translate(-885.319 -489.752)" fill="#6ab6b2"/>
              <path id="パス_69423" data-name="パス 69423" d="M1166.676,594.879a.365.365,0,0,0,.1.01.351.351,0,0,0,.334-.368c0-.056-.249-5.706,1.556-15.695,1.773-9.807,4.557-11.833,4.585-11.852a.351.351,0,0,0-.392-.583c-.123.082-3.043,2.123-4.883,12.311-1.821,10.078-1.57,15.8-1.567,15.853A.35.35,0,0,0,1166.676,594.879Z" transform="translate(-1102.934 -540.919)" fill="#339458"/>
            </g>
            <path id="パス_69428" data-name="パス 69428" d="M1021.332,333.915l-.667,11.578s1.086,8.176,1.833,11.107c.908,3.563,3.815,7.894,9.61,7.1,5.4-.743,8.532-2.465,9.278-10.836a137.173,137.173,0,0,0-.035-18.819Z" transform="translate(-990.106 -325.166)" fill="#edbf98"/>
            <path id="パス_69429" data-name="パス 69429" d="M1103.6,371.04c.155,2.167-1.931,4.07-4.661,4.254s-5.066-1.428-5.221-3.594,1.936-4.069,4.662-4.253S1103.441,368.873,1103.6,371.04Z" transform="translate(-1046.655 -351.117)" fill="#edbf98"/>
            <path id="パス_69430" data-name="パス 69430" d="M1041.446,303.654c-.023-.154-.045-.3-.068-.446-.248.669-.8,1.833-1.465,1.98,1.362-3.97-1.5-5.7-4.492-7.606a14.508,14.508,0,0,0-10.044-2.256c-3.185.494-9.92,3-8.392,7.382a6.687,6.687,0,0,1-.568-2.325c-1.062,2.042-.9,4.714-.936,6.952a43.369,43.369,0,0,0,.981,8.3c.366-.078.784-.16,1.161-.249-.035-1.8-.065-7.982.935-9.486.769-1.16,1.673-.293,3,.107,3.5,1.054,6.834-.125,10.35-.039,1.164,2.111,3.976,2.123,4.569,4.621a29.078,29.078,0,0,1-.032,5.943l1.31-.14a30.054,30.054,0,0,1,1.365-3.2c.336-.595.257-1.643,2.129-.926,1.579-2.67,1.255-5.084,1.091-8.045-.23.534-.266,1.143-.486,1.682C1041.679,305.24,1041.557,304.393,1041.446,303.654Z" transform="translate(-986.091 -295.166)" fill="#96b3c1"/>
            <path id="パス_69431" data-name="パス 69431" d="M1043.531,383.814l.008,0,4.606.869a.31.31,0,0,0,.362-.248.3.3,0,0,0-.247-.362l-4.3-.811c.564-3.135,1.483-7.926,1.732-8.436a.31.31,0,0,0-.418-.452c-.121.088-.406.3-1.978,9.081A.31.31,0,0,0,1043.531,383.814Z" transform="translate(-1007.619 -356.446)" fill="#0d0002"/>
            <path id="パス_69432" data-name="パス 69432" d="M1069.5,377.007a.989.989,0,0,0,.646,1.3,1.13,1.13,0,0,0,1.416-.593.988.988,0,0,0-.651-1.3A1.132,1.132,0,0,0,1069.5,377.007Z" transform="translate(-1027.864 -358.023)" fill="#0d0002"/>
            <path id="パス_69433" data-name="パス 69433" d="M1033.275,377.9a.988.988,0,0,0,.645,1.3,1.132,1.132,0,0,0,1.417-.593.988.988,0,0,0-.651-1.3A1.133,1.133,0,0,0,1033.275,377.9Z" transform="translate(-999.814 -358.713)" fill="#0d0002"/>
            <path id="パス_69434" data-name="パス 69434" d="M1084.02,388.69a1.513,1.513,0,1,0,1.451-1.574A1.511,1.511,0,0,0,1084.02,388.69Z" transform="translate(-1039.155 -366.354)" fill="#e9706e"/>
            <path id="パス_69435" data-name="パス 69435" d="M1085.734,390.1a.29.29,0,0,0,.266-.078c.233-.233.978-1.02.8-1.4a.484.484,0,0,0-.291-.251,2.321,2.321,0,0,0-1.508.423l-.1.05-.067.032c.01-.016.023-.034.035-.052.028-.04.058-.086.091-.135.172-.258.53-.793.788-.794a.29.29,0,0,0,0-.58c-.567,0-.989.634-1.268,1.052l-.085.126c-.226.324-.449.694-.227.953s.626.095.987-.081l.112-.056a4.354,4.354,0,0,1,.888-.375,6.03,6.03,0,0,1-.559.679.289.289,0,0,0,0,.41A.28.28,0,0,0,1085.734,390.1Z" transform="translate(-1039.196 -366.511)" fill="#e55a65"/>
            <path id="パス_69436" data-name="パス 69436" d="M1075.7,316.644a4.066,4.066,0,0,1,.071-.449c.027-.124.06-.253.1-.381a.337.337,0,0,1,.646.2q-.051.167-.086.328a3.434,3.434,0,0,0-.059.373.337.337,0,0,1-.369.3l-.038-.006A.337.337,0,0,1,1075.7,316.644Zm1.144-2.213a.338.338,0,0,1-.118-.462c.127-.214.268-.441.423-.677a.337.337,0,1,1,.565.369c-.149.227-.285.446-.406.651a.337.337,0,0,1-.463.119Zm1.513-2.283a.337.337,0,0,1-.069-.472q.227-.306.475-.628a.337.337,0,1,1,.536.41q-.244.319-.469.621a.339.339,0,0,1-.472.069Z" transform="translate(-1032.717 -307.359)" fill="#c2e7fa"/>
            <path id="パス_69437" data-name="パス 69437" d="M1037.716,318.818l-.047-.086a.337.337,0,1,1,.592-.324l.046.082a.337.337,0,0,1-.59.328Zm-.847-1.948a6.693,6.693,0,0,1-.182-.8.338.338,0,1,1,.667-.107,5.947,5.947,0,0,0,.163.722.336.336,0,0,1-.23.418.332.332,0,0,1-.165.006A.337.337,0,0,1,1036.869,316.87Zm-.242-2.831c.017-.253.041-.515.07-.792a.337.337,0,0,1,.671.069c-.028.268-.051.523-.068.768a.337.337,0,0,1-.359.314.317.317,0,0,1-.049-.007A.337.337,0,0,1,1036.627,314.039Z" transform="translate(-1002.463 -308.931)" fill="#c2e7fa"/>
            <path id="パス_69438" data-name="パス 69438" d="M1070.081,449.754a.357.357,0,0,0,.068,0c.787-.064,1.657-.171,2.585-.317,2.932-.464,5.62-4.1,5.734-4.258a.312.312,0,0,0-.5-.368c-.026.036-2.651,3.587-5.327,4.01-.913.144-1.766.249-2.538.311a.312.312,0,0,0-.018.619Z" transform="translate(-1028.156 -410.926)" fill="#b35d55"/>
            <path id="パス_69439" data-name="パス 69439" d="M1085.265,415.195a.33.33,0,0,0,.256-.05,2.187,2.187,0,0,0,1.032-2.355,5,5,0,0,0-3.622-3.323.332.332,0,1,0-.115.653,4.4,4.4,0,0,1,3.088,2.809,1.525,1.525,0,0,1-.756,1.667.331.331,0,0,0,.116.6Z" transform="translate(-1038.012 -383.655)" fill="#0d0002"/>
            <path id="パス_69440" data-name="パス 69440" d="M1029.076,355.208a10.52,10.52,0,0,0,4.619,2.237c-.852,1.454-4.311-.371-4.789-1.427a2.382,2.382,0,0,1-.183-1.338A2.1,2.1,0,0,0,1029.076,355.208Z" transform="translate(-996.323 -341.243)" fill="#96b3c1"/>
            <path id="パス_69441" data-name="パス 69441" d="M1067.964,357.211a10.553,10.553,0,0,1-4.923,1.446c.6,1.573,4.31.344,4.957-.622a2.355,2.355,0,0,0,.4-1.289A2.029,2.029,0,0,1,1067.964,357.211Z" transform="translate(-1022.914 -342.843)" fill="#96b3c1"/>
          </g>
          <g id="グループ_4143" data-name="グループ 4143" transform="translate(22.498 0)">
            <path id="パス_69442" data-name="パス 69442" d="M926.87,266.252c-.853-2.326-3.413-1.907-4.89-.767.058-2.113-1.732-5.011-4.3-4.167-1.725.567-3.3,3.726-2.152,5.286-1.924-.33-5.039-.024-5.75,2.2-.781,2.442,2.352,3.485,4.181,3.965-.885,1.182-2.014,3.346-.365,4.3,2.457,1.416,4.73-2.087,5.686-3.815,1.583,1.266,3.653,1.992,5.462,2.929-.992-1.393-2.189-3.068-2.232-4.834C924.844,272.219,927.64,268.353,926.87,266.252Z" transform="translate(-909.202 -260.72)" fill="#fff"/>
            <path id="パス_69443" data-name="パス 69443" d="M913.215,276.307a2.776,2.776,0,0,1-1.4-.389,2,2,0,0,1-1.022-1.368,4.535,4.535,0,0,1,.88-3.054c-1.4-.413-3.046-1.09-3.721-2.318a2.518,2.518,0,0,1-.158-2.05c.526-1.644,2.328-2.625,4.82-2.625.2,0,.409.007.612.021a3.764,3.764,0,0,1,.123-2.1,4.792,4.792,0,0,1,2.636-3.069,3.238,3.238,0,0,1,3.437.91,5.414,5.414,0,0,1,1.405,2.891,4.613,4.613,0,0,1,2.136-.576,2.814,2.814,0,0,1,2.778,1.983,4.358,4.358,0,0,1-.845,3.777,4.24,4.24,0,0,1-3.237,2.05h0c-.064,0-.129,0-.192-.007a10.552,10.552,0,0,0,2.057,3.956.452.452,0,0,1-.332.758.467.467,0,0,1-.074-.006.437.437,0,0,1-.138-.045c-.538-.279-1.116-.546-1.674-.8a21.194,21.194,0,0,1-3.442-1.856C916.757,274.267,915.118,276.307,913.215,276.307Zm-.6-10.9c-.779,0-3.367.144-3.96,2a1.627,1.627,0,0,0,.09,1.34c.68,1.238,3.01,1.85,3.776,2.051a.452.452,0,0,1,.247.707c-.309.413-1.3,1.839-1.089,2.866a1.123,1.123,0,0,0,.588.768,1.86,1.86,0,0,0,.947.269c1.7,0,3.31-2.451,4.118-3.912a.452.452,0,0,1,.677-.134,17.909,17.909,0,0,0,3.677,2.059l.172.08a7.405,7.405,0,0,1-1.352-3.679.451.451,0,0,1,.609-.434,1.55,1.55,0,0,0,.544.1h0a3.415,3.415,0,0,0,2.5-1.664,3.53,3.53,0,0,0,.738-2.949,1.918,1.918,0,0,0-1.93-1.39,3.864,3.864,0,0,0-2.26.826.452.452,0,0,1-.727-.37,4.475,4.475,0,0,0-1.2-3.044,2.3,2.3,0,0,0-2.508-.682,3.918,3.918,0,0,0-2.058,2.485,2.372,2.372,0,0,0,.128,2.1.451.451,0,0,1-.439.713A7.743,7.743,0,0,0,912.616,265.405Z" transform="translate(-907.651 -259.18)" fill="#7ba4bc"/>
          </g>
          <path id="パス_69444" data-name="パス 69444" d="M821.268,455.9c-.071-.708-.16-1.408-.166-2.127a10.869,10.869,0,0,1,.408-3.588,4,4,0,0,0,.14-2.546c-.666-1.317-2.958-1.586-4.222-1.97-1.049-.319-1.1-.352-1.456-1.421-.309-.942-2.513-6.813-3.492-9.257-.471-1.179-1.03-2.506-1.927-2.554-.424-.023-.224.064-.557.346a1.146,1.146,0,0,0-.343,1.355c.444,1.639,3.636,11.779,3.808,12.791-.944-.437-2.18-1.867-3.188-1.283-1.372.793.344,2.271.273,3.238-1.187-.444-1.739-.023-2.039,1.013-.318,1.1.347,1,.714,1.9-.747.274-1.277.574-1.205,1.286.1.958,1,1.309,1.589,1.92.732.755,1.307,1.717,1.984,2.534.83,1,1.6,2.062,2.492,3,1.642,1.725,1.313,4.025,2.164,6.062a1.931,1.931,0,0,0,1.744,1.4,4.586,4.586,0,0,0,1.339-.392c.627-.181,1.285-.146,1.907-.33-.038-2.785-2.052-5.5-.784-8.136.53-1.1.956-1.51.862-2.717C821.3,456.25,821.285,456.076,821.268,455.9Z" transform="translate(-808.009 -393.317)" fill="#edbf98"/>
          <path id="パス_69445" data-name="パス 69445" d="M840.16,498.793a.309.309,0,0,0,.232-.513,3.1,3.1,0,0,1-.059-4.008c.069-.1.206-.255.352-.419.526-.6,1.123-1.271.89-1.8-.243-.557-1.123-.8-2.053-1.059a5.053,5.053,0,0,1-1.287-.463c-.666-.49-.613-1.008-.492-1.775a3.607,3.607,0,0,0,.97.087.309.309,0,0,0-.018-.618,3.211,3.211,0,0,1-1.12-.149.308.308,0,0,0-.39.252c-.012.081-.025.16-.037.239a2.165,2.165,0,0,0,.723,2.461,5.113,5.113,0,0,0,1.487.561c.644.179,1.527.424,1.653.711.049.2-.559.887-.788,1.145a5.85,5.85,0,0,0-.4.478,3.664,3.664,0,0,0,.1,4.766A.309.309,0,0,0,840.16,498.793Z" transform="translate(-830.495 -436.384)" fill="#b35d55"/>
          <path id="パス_69446" data-name="パス 69446" d="M833.2,503.044a.306.306,0,0,0,.208-.081,2.847,2.847,0,0,1,.333-.241,1.673,1.673,0,0,0,.713-2.459,7.989,7.989,0,0,0-.91-1.345,8.7,8.7,0,0,1-.718-1.018.309.309,0,1,0-.547.286,8.754,8.754,0,0,0,.776,1.109,7.757,7.757,0,0,1,.836,1.221c.473,1.054.049,1.335-.49,1.691a3.258,3.258,0,0,0-.409.3.309.309,0,0,0,.208.537Z" transform="translate(-826.772 -443.872)" fill="#b35d55"/>
          <path id="パス_69447" data-name="パス 69447" d="M823.7,509.853a.318.318,0,0,0,.085-.012,2.232,2.232,0,0,0,1.431-.928,1.148,1.148,0,0,0,.073-.916c-.416-1.354-2.392-3.054-2.963-3.408a.309.309,0,1,0-.326.525,8.319,8.319,0,0,1,2.7,3.065.541.541,0,0,1-.027.44,1.714,1.714,0,0,1-1.058.628.309.309,0,0,0,.086.606Z" transform="translate(-818.728 -449.143)" fill="#b35d55"/>
          <path id="パス_69448" data-name="パス 69448" d="M834.019,566.019l7.924-2.181s16.3,35.946,15.082,40.406-4.424,8.14-8,6.845-3.706-3.081-4.43-4.264S834.019,566.019,834.019,566.019Z" transform="translate(-828.146 -495.05)" fill="#6ab6b2"/>
          <path id="パス_69449" data-name="パス 69449" d="M816.025,519.941a.945.945,0,0,0,.631-.243,1.272,1.272,0,0,0,.46-1.334c-.316-1.285-2.45-2.553-3.117-2.7a.309.309,0,0,0-.137.6c.609.138,2.42,1.3,2.654,2.25a.665.665,0,0,1-.26.716c-.273.233-.677-.015-1.311-.451a2.592,2.592,0,0,0-1.8-.693.309.309,0,0,0,.108.608c.378-.067.867.268,1.338.593A2.847,2.847,0,0,0,816.025,519.941Z" transform="translate(-811.791 -457.744)" fill="#b35d55"/>
          <path id="パス_69450" data-name="パス 69450" d="M957.422,566.307h-.035a.451.451,0,0,1-.416-.485l2.737-35.92a.452.452,0,1,1,.9.068l-2.737,35.921A.451.451,0,0,1,957.422,566.307Z" transform="translate(-923.337 -468.453)" fill="#339458"/>
          <path id="パス_69451" data-name="パス 69451" d="M1044.729,431.415c-2.483.138-2.944-4.449-.661-5.185,1.019-.329,1.212.37,2.032.638.948.31,1.374-.447,2.182-.725a2.543,2.543,0,0,1,2.644.936c1.33,1.435,1.1,4.481-1.168,4.863-1.266.214-1.8-1-2.9-1.187C1046.035,430.618,1045.471,431.373,1044.729,431.415Z" transform="translate(-989.623 -388.362)" fill="#c1143a"/>
          <path id="パス_69452" data-name="パス 69452" d="M1039.156,495.82c-7.241,0-11.983-6.633-12.035-6.706a.452.452,0,0,1,.74-.519c.054.077,5.474,7.638,13.4,6.12,6.549-1.254,8.45-5.413,8.468-5.455a.452.452,0,0,1,.828.36c-.082.189-2.082,4.633-9.126,5.982A12.077,12.077,0,0,1,1039.156,495.82Z" transform="translate(-977.585 -436.647)" fill="#339458"/>
          <path id="パス_69453" data-name="パス 69453" d="M917.311,675.332a.452.452,0,0,1-.428-.306l-2.86-8.429a.452.452,0,0,1,.855-.29l2.86,8.429a.451.451,0,0,1-.428.6Z" transform="translate(-890.068 -574.145)" fill="#339458"/>
        </g>
        <g id="グループ_4148" data-name="グループ 4148" transform="translate(773.586 286.107)">
          <path id="パス_69454" data-name="パス 69454" d="M1200.721,390.516a12.972,12.972,0,0,1,2.858-5.438c3.017-3,7.24-3.986,10.514-4.252a26.555,26.555,0,0,1,3.679-.023c.794.049,1.273.127,1.273.127l.069.021,3.041,1.143a12.512,12.512,0,0,1,1.138.753c2.752,1.983,9.43,7.865,7.651,17.351a14.574,14.574,0,0,1-1.738,4.679,10.334,10.334,0,0,0-1.651,3.236c-.135.8-.172,1.721-.247,2.539-.142,1.542-.059,3.41,1.746,3.811-.469,1.279-3.206.373-4.153.2a7.9,7.9,0,0,0,1.7,1.632c-1.695,1.51-5.645.849-7.529.057a22.385,22.385,0,0,0-4.677-1.506,13.37,13.37,0,0,0-2.465-.128c-1.877.012-3.66.729-5.579.685a16.024,16.024,0,0,1-6.176-1c-.322-.142-.638-.331-.944-.494a12.016,12.016,0,0,0,.93-1.268,3.907,3.907,0,0,1-3.464-.582c.728-.407,1.616-.4,2.389-1.008,2.629-2.074,2.032-5.161,1.035-7.905C1198.693,399.238,1199.556,394.4,1200.721,390.516Z" transform="translate(-1154.013 -380.228)" fill="#828e95"/>
          <path id="パス_69455" data-name="パス 69455" d="M1238.488,428.755a12.836,12.836,0,0,1-13.839,11.639,12.67,12.67,0,0,1-11.753-13.609c.572-6.976,7.138-15.751,14.191-15.048C1238.048,412.833,1239.062,421.782,1238.488,428.755Z" transform="translate(-1166.525 -404.188)" fill="#edbf98"/>
          <path id="パス_69456" data-name="パス 69456" d="M1325.583,474.364a4.119,4.119,0,0,1-4.391,3.793,4.069,4.069,0,0,1-3.714-4.424,4.118,4.118,0,0,1,4.388-3.79A4.062,4.062,0,0,1,1325.583,474.364Z" transform="translate(-1247.516 -449.273)" fill="#edbf98"/>
          <path id="パス_69457" data-name="パス 69457" d="M1228.846,398.772a3.768,3.768,0,0,0-1.986-.677,14.716,14.716,0,0,0-10.065,3.2c-2.15,1.593-3.154,3.7-4.229,6.213a23.728,23.728,0,0,0-1.373,4.014c-.182.787-.84,2.628-.33,3.338,1.483-1.654,2.494-3.769,3.936-5.5a19.832,19.832,0,0,1,5.277-4.659c1.507-.863,3.456-1.7,5.107-.888,2.23,1.094,2.483,3.951,3.339,6.028,1.311,3.178,4.426,6.36,8.094,6.395a8.338,8.338,0,0,1-.62-1.024c1.628,1.237,3.194,1.059,5.069.642a8.683,8.683,0,0,1-1.619-3.85c-.112-.758-.08-1.518-.142-2.278-.22-2.69-1.964-4.9-3.479-6.947a9.627,9.627,0,0,0-3.087-2.784C1231.551,399.349,1229.909,399.525,1228.846,398.772Z" transform="translate(-1164.838 -393.618)" fill="#828e95"/>
          <path id="パス_69458" data-name="パス 69458" d="M1242,464.844a1.318,1.318,0,0,1-.789,1.587,1.122,1.122,0,0,1-1.442-.823,1.313,1.313,0,0,1,.8-1.582A1.12,1.12,0,0,1,1242,464.844Z" transform="translate(-1187.328 -444.656)" fill="#0d0002"/>
          <path id="パス_69459" data-name="パス 69459" d="M1282.768,468.913a1.318,1.318,0,0,1-.791,1.587,1.125,1.125,0,0,1-1.443-.822,1.319,1.319,0,0,1,.8-1.584A1.124,1.124,0,0,1,1282.768,468.913Z" transform="translate(-1218.889 -447.805)" fill="#0d0002"/>
          <path id="パス_69460" data-name="パス 69460" d="M1254.913,478.5a.3.3,0,0,1-.272-.116c-.1-.128-.207-.25-.313-.368a1.866,1.866,0,0,1-.663-1.558,12.459,12.459,0,0,1,1.066-2.513c.243-.5.473-.964.548-1.172a.3.3,0,1,1,.566.208c-.087.239-.312.7-.573,1.232a14.633,14.633,0,0,0-1.008,2.322c-.054.416.149.664.513,1.067.115.128.235.259.346.408a.308.308,0,0,1-.057.429A.3.3,0,0,1,1254.913,478.5Z" transform="translate(-1198.11 -451.317)" fill="#0d0002"/>
          <path id="パス_69461" data-name="パス 69461" d="M1244.2,547.049l9-2.194-1.82-1.74c-1.822-1.739-2.681-14.016-2.681-14.016h-2.249v.022l0-.022H1244.2s-.858,12.277-2.679,14.016l-1.821,1.74,4.076,2.194v.02l.215-.008.213.008Z" transform="translate(-1187.31 -495.082)" fill="#edbf98"/>
          <path id="パス_69462" data-name="パス 69462" d="M1221.573,649.737c.493-.1.978-.219,1.453-.359,2.073-.611,1.876-.238,2.455-2.369,1.287-4.731.267-9.32.2-14.078-.07-4.775-.009-9.482-.333-14.31-.109-1.634.508-9.526-.717-10.7l-11.133-10.64-8.932,1.911-4.856-1.686L1189.7,608.792q-.332,6.925-.665,13.853c-.407,8.478-.88,15.775,1.122,23.986.2.8.5,4.021.5,4.021s.105-.425,2.451-.144a58.84,58.84,0,0,0,6.668.131c4.461.018,8.92-.092,13.378-.245A51.874,51.874,0,0,0,1221.573,649.737Z" transform="translate(-1147.803 -547.872)" fill="#f0d9c0"/>
          <path id="パス_69464" data-name="パス 69464" d="M1292.057,411.046a.36.36,0,0,1-.272-.081,4.062,4.062,0,0,1-.644-.685.376.376,0,0,1,.07-.523.365.365,0,0,1,.516.067,3.347,3.347,0,0,0,.525.562.374.374,0,0,1,.051.524A.368.368,0,0,1,1292.057,411.046Zm-1.339-1.895a.364.364,0,0,1-.369-.2c-.116-.238-.231-.493-.362-.8a.376.376,0,0,1,.194-.49.364.364,0,0,1,.483.192c.126.3.236.541.346.767a.377.377,0,0,1-.168.5A.367.367,0,0,1,1290.718,409.152Zm-.912-2.16a.365.365,0,0,1-.382-.235c-.105-.278-.2-.557-.292-.829a.377.377,0,0,1,.235-.472.365.365,0,0,1,.464.235c.085.261.179.529.28.8a.376.376,0,0,1-.211.483A.369.369,0,0,1,1289.806,406.991Zm-.673-2.246a.366.366,0,0,1-.4-.29c-.063-.3-.114-.59-.153-.878a.376.376,0,0,1,.315-.422.368.368,0,0,1,.415.315c.036.269.085.546.143.823a.375.375,0,0,1-.282.445Zm-.235-2.336a.353.353,0,0,1-.047,0,.367.367,0,0,1-.36-.378,8.859,8.859,0,0,1,.065-.9.368.368,0,1,1,.73.088,7.945,7.945,0,0,0-.059.823A.374.374,0,0,1,1288.9,402.41Z" transform="translate(-1225.084 -395.755)" fill="#c7c3cc"/>
          <path id="パス_69465" data-name="パス 69465" d="M1311.49,420.04a.363.363,0,0,1-.326-.134,3.61,3.61,0,0,1-.488-.818.377.377,0,0,1,.187-.493.365.365,0,0,1,.486.186,2.9,2.9,0,0,0,.387.653.375.375,0,0,1-.055.524A.367.367,0,0,1,1311.49,420.04Zm-.855-2.159a.365.365,0,0,1-.4-.292c-.033-.158-.063-.317-.094-.474-.024-.126-.048-.251-.073-.375a.375.375,0,0,1,.287-.441.366.366,0,0,1,.434.288c.025.126.049.253.074.381.03.154.059.31.091.464a.375.375,0,0,1-.286.443Zm-.507-2.294a.365.365,0,0,1-.4-.279c-.068-.277-.136-.554-.208-.831a.376.376,0,0,1,.263-.457.365.365,0,0,1,.45.262q.109.42.211.841a.376.376,0,0,1-.269.453A.355.355,0,0,1,1310.127,415.587Zm-.618-2.264a.365.365,0,0,1-.389-.253c-.089-.277-.182-.544-.277-.795a.377.377,0,0,1,.212-.483.365.365,0,0,1,.476.211c.1.263.2.543.29.831a.376.376,0,0,1-.237.471A.385.385,0,0,1,1309.509,413.323Zm-.844-2.187a.364.364,0,0,1-.376-.219q-.17-.393-.346-.776a.377.377,0,0,1,.177-.5.365.365,0,0,1,.49.176q.182.392.355.8a.376.376,0,0,1-.191.491A.352.352,0,0,1,1308.665,411.136Zm-1.012-2.111a.364.364,0,0,1-.362-.189c-.137-.252-.277-.5-.416-.733a.376.376,0,0,1,.126-.512.364.364,0,0,1,.505.123c.145.243.291.5.432.761a.376.376,0,0,1-.147.506A.365.365,0,0,1,1307.653,409.026Zm-1.233-1.985a.363.363,0,0,1-.338-.15c-.164-.228-.334-.454-.505-.67a.376.376,0,0,1,.057-.524.364.364,0,0,1,.517.054c.179.226.357.461.527.7a.377.377,0,0,1-.083.521A.367.367,0,0,1,1306.42,407.041Z" transform="translate(-1238.25 -399.477)" fill="#c7c3cc"/>
          <path id="パス_69466" data-name="パス 69466" d="M1217.979,410.43a.367.367,0,0,1-.4-.457c.067-.276.153-.566.253-.862a.368.368,0,1,1,.7.238c-.094.275-.172.544-.235.8A.373.373,0,0,1,1217.979,410.43Zm.8-2.213a.361.361,0,0,1-.2-.033.372.372,0,0,1-.176-.495c.121-.259.253-.525.393-.791a.367.367,0,0,1,.5-.156.372.372,0,0,1,.151.5c-.134.255-.261.511-.377.759A.371.371,0,0,1,1218.782,408.217Zm1.127-2.069a.364.364,0,0,1-.235-.054.374.374,0,0,1-.115-.513c.152-.245.313-.494.477-.738a.366.366,0,0,1,.511-.1.373.373,0,0,1,.1.517c-.159.237-.314.477-.462.715A.37.37,0,0,1,1219.909,406.148Zm1.339-1.937a.361.361,0,0,1-.266-.075.376.376,0,0,1-.064-.522c.18-.233.364-.464.547-.687a.366.366,0,0,1,.519-.049.375.375,0,0,1,.044.524c-.178.215-.356.44-.53.665A.369.369,0,0,1,1221.249,404.212Zm1.526-1.791a.364.364,0,0,1-.3-.1.375.375,0,0,1-.007-.527c.208-.219.418-.428.623-.623a.364.364,0,0,1,.52.015.376.376,0,0,1-.018.526c-.2.187-.4.388-.6.6A.368.368,0,0,1,1222.774,402.421Zm1.739-1.576a.364.364,0,0,1-.335-.146.377.377,0,0,1,.078-.522c.253-.191.5-.361.741-.506a.365.365,0,0,1,.505.127.377.377,0,0,1-.129.511,8.205,8.205,0,0,0-.679.464A.369.369,0,0,1,1224.513,400.845Z" transform="translate(-1170.178 -394.835)" fill="#c7c3cc"/>
          <path id="パス_69467" data-name="パス 69467" d="M1299.5,482.565a1.488,1.488,0,0,1-1.621,1.336,1.473,1.473,0,0,1-1.308-1.63,1.489,1.489,0,0,1,1.619-1.337A1.472,1.472,0,0,1,1299.5,482.565Z" transform="translate(-1231.334 -457.787)" fill="#e9706e"/>
          <path id="パス_69468" data-name="パス 69468" d="M1221.874,474.812a1.489,1.489,0,0,1-1.62,1.337,1.474,1.474,0,0,1-1.309-1.629,1.492,1.492,0,0,1,1.62-1.338A1.473,1.473,0,0,1,1221.874,474.812Z" transform="translate(-1171.235 -451.784)" fill="#e9706e"/>
          <path id="パス_69469" data-name="パス 69469" d="M1298.117,483.779a.278.278,0,0,1-.243-.1c-.335-.389-.869-1.092-.677-1.428a.475.475,0,0,1,.3-.226c.347-.093.827.136,1.445.508l.086.051.065.036-.033-.058c-.025-.041-.052-.088-.081-.138-.15-.262-.463-.807-.712-.823a.281.281,0,0,1-.262-.3.285.285,0,0,1,.3-.268c.55.034.918.678,1.162,1.1.027.048.052.092.076.13.2.334.39.709.159.951s-.614.058-.953-.134l-.1-.058a4.231,4.231,0,0,0-.846-.425,6.008,6.008,0,0,0,.5.7.289.289,0,0,1-.029.4A.28.28,0,0,1,1298.117,483.779Z" transform="translate(-1231.794 -457.87)" fill="#e55a65"/>
          <path id="パス_69470" data-name="パス 69470" d="M1221.038,476.081a.278.278,0,0,1-.242-.093c-.272-.311-.883-1.072-.683-1.429a.477.477,0,0,1,.3-.228c.345-.091.826.136,1.444.508l.088.052.06.034c-.009-.018-.02-.036-.032-.055l-.075-.131c-.151-.265-.464-.815-.716-.831a.282.282,0,0,1-.263-.3.286.286,0,0,1,.3-.268c.553.034.923.683,1.168,1.113l.07.123c.2.332.391.708.159.95s-.613.058-.952-.134l-.1-.059a4.2,4.2,0,0,0-.846-.424,5.922,5.922,0,0,0,.5.7.288.288,0,0,1-.026.4A.28.28,0,0,1,1221.038,476.081Z" transform="translate(-1172.115 -451.91)" fill="#e55a65"/>
          <path id="パス_69471" data-name="パス 69471" d="M1263.262,537.954l-3.034-.167a.368.368,0,0,1-.344-.392.373.373,0,0,1,.39-.352l3.034.168a.367.367,0,0,1,.344.392A.373.373,0,0,1,1263.262,537.954Z" transform="translate(-1202.936 -501.232)" fill="#b35d55"/>
          <path id="パス_69472" data-name="パス 69472" d="M1291.317,501.379a.294.294,0,0,1-.163-.027.306.306,0,0,1-.14-.407,1.905,1.905,0,0,0-.216-1.74,1.407,1.407,0,0,0-1.171-.749.3.3,0,0,1-.305-.3.309.309,0,0,1,.3-.311,1.984,1.984,0,0,1,1.688,1.029,2.5,2.5,0,0,1,.249,2.333A.3.3,0,0,1,1291.317,501.379Z" transform="translate(-1225.727 -470.884)" fill="#0d0002"/>
          <path id="パス_69473" data-name="パス 69473" d="M1321.569,499.713a1.3,1.3,0,0,1-1.409,1.161,1.281,1.281,0,0,1-1.139-1.416,1.3,1.3,0,0,1,1.409-1.164A1.282,1.282,0,0,1,1321.569,499.713Z" transform="translate(-1248.716 -471.227)" fill="#ebe7d7"/>
          <path id="パス_69474" data-name="パス 69474" d="M1237.831,463.793a.3.3,0,0,1-.249-.089l-.594-.616a.309.309,0,0,1,.007-.432.3.3,0,0,1,.427,0l.594.616a.309.309,0,0,1-.007.432A.3.3,0,0,1,1237.831,463.793Z" transform="translate(-1185.145 -443.573)" fill="#0d0002"/>
          <path id="パス_69475" data-name="パス 69475" d="M1279.686,467.974a.3.3,0,0,1-.248-.09l-.594-.616a.308.308,0,0,1,.006-.432.3.3,0,0,1,.427,0l.594.616a.308.308,0,0,1-.007.432A.3.3,0,0,1,1279.686,467.974Z" transform="translate(-1217.55 -446.81)" fill="#0d0002"/>
          <path id="パス_69476" data-name="パス 69476" d="M1267.834,594.824l-8.654,2.339s.426,6.127,3.459,5.8,5.647-7.5,5.647-7.5Z" transform="translate(-1202.392 -545.967)" fill="#fff"/>
          <path id="パス_69477" data-name="パス 69477" d="M1236.479,595.274l4.473,2.263s-.511,6.2-3.6,5.875-1.335-7.5-1.335-7.5Z" transform="translate(-1184.077 -546.315)" fill="#fff"/>
          <path id="パス_69478" data-name="パス 69478" d="M1251.33,641.381a.923.923,0,1,1-.923-.935A.93.93,0,0,1,1251.33,641.381Z" transform="translate(-1194.886 -581.288)" fill="#fff"/>
          <path id="パス_69479" data-name="パス 69479" d="M1251.014,689.43a.922.922,0,1,1-.923-.934A.93.93,0,0,1,1251.014,689.43Z" transform="translate(-1194.642 -618.489)" fill="#fff"/>
          <path id="パス_69480" data-name="パス 69480" d="M1251.014,743.076a.922.922,0,1,1-.923-.936A.929.929,0,0,1,1251.014,743.076Z" transform="translate(-1194.642 -660.021)" fill="#fff"/>
          <path id="パス_69481" data-name="パス 69481" d="M1251.014,796.722a.922.922,0,1,1-.923-.935A.929.929,0,0,1,1251.014,796.722Z" transform="translate(-1194.642 -701.555)" fill="#fff"/>
          <path id="パス_69482" data-name="パス 69482" d="M1310.327,610.818s8.4,3.5,10.685,12.089-1.039,38.08-1.039,38.08l-5.647.621Z" transform="translate(-1241.99 -558.35)" fill="#f0d9c0"/>
          <path id="パス_69483" data-name="パス 69483" d="M1299.7,715.2a.347.347,0,0,0,.343-.314l3.349-32.382a.345.345,0,1,0-.686-.073l-3.349,32.382a.348.348,0,0,0,.307.385Z" transform="translate(-1233.498 -613.554)" fill="#bb7940"/>
          <path id="パス_69487" data-name="パス 69487" d="M1150.551,800.386c0,2.571-1.765,8.2-3.921,8.2a4.046,4.046,0,0,1-4-4.27c0-2.57,1.749-4.656,3.905-4.656S1150.551,797.814,1150.551,800.386Z" transform="translate(-1112.155 -704.057)" fill="#edbf98"/>
          <path id="パス_69488" data-name="パス 69488" d="M1246.869,507.982c-2.483.138-2.944-4.449-.66-5.185,1.019-.329,1.211.37,2.031.638.948.31,1.374-.447,2.182-.725a2.543,2.543,0,0,1,2.644.935c1.33,1.435,1.1,4.481-1.168,4.863-1.266.214-1.8-1-2.9-1.187C1248.174,507.185,1247.61,507.941,1246.869,507.982Z" transform="translate(-1191.202 -474.569)" fill="#c1143a"/>
          <g id="グループ_4145" data-name="グループ 4145" transform="matrix(-0.438, -0.899, 0.899, -0.438, -25.708, 23.141)">
            <path id="パス_69489" data-name="パス 69489" d="M1367.947,382.5c1.681-1.925,3.992-.576,4.994,1.068.725-2.057,3.519-4.187,5.682-2.424,1.452,1.183,1.806,4.81.119,5.886,1.976.393,4.863,1.838,4.726,4.243-.15,2.641-3.553,2.488-5.492,2.275.416,1.466.7,3.967-1.236,4.273-2.889.456-3.785-3.758-4.067-5.776-1.993.635-4.255.569-6.344.8,1.471-.976,3.242-2.147,3.935-3.832C1367.693,388.994,1366.429,384.238,1367.947,382.5Z" transform="translate(-1365.86 -380.024)" fill="#fff"/>
            <path id="パス_69490" data-name="パス 69490" d="M1370.681,391.05a21.892,21.892,0,0,1-4,.516c-.634.042-1.289.086-1.911.156a.454.454,0,0,1-.137-.005.5.5,0,0,1-.075-.02.466.466,0,0,1-.052-.856,10.892,10.892,0,0,0,3.445-3.052q-.063-.019-.125-.041h0a4.293,4.293,0,0,1-2.4-3.113,4.521,4.521,0,0,1,.56-4.031,2.9,2.9,0,0,1,3.32-.916,4.7,4.7,0,0,1,1.934,1.377,5.614,5.614,0,0,1,2.368-2.24,3.349,3.349,0,0,1,3.7.369,4.944,4.944,0,0,1,1.406,3.931,3.885,3.885,0,0,1-.659,2.071q.187.058.375.124c2.544.9,4,2.543,3.895,4.391a2.6,2.6,0,0,1-.91,1.916c-1.1.933-2.941.977-4.44.858a4.679,4.679,0,0,1-.28,3.266,2.068,2.068,0,0,1-1.49.94,2.876,2.876,0,0,1-1.425-.117C1371.9,395.91,1371.058,393.31,1370.681,391.05Zm6.358-5.152a.466.466,0,0,1-.16-.85,2.446,2.446,0,0,0,.9-1.978,4.043,4.043,0,0,0-1.064-3.154,2.5,2.5,0,0,0-.74-.424,2.578,2.578,0,0,0-1.969.173,4.636,4.636,0,0,0-2.24,2.469.466.466,0,0,1-.837.088,4,4,0,0,0-1.938-1.655,1.976,1.976,0,0,0-2.307.651,3.723,3.723,0,0,0-.361,3.182,3.445,3.445,0,0,0,1.813,2.471,1.6,1.6,0,0,0,.52.092.466.466,0,0,1,.427.643,7.643,7.643,0,0,1-2.662,3.044l.2-.013a18.48,18.48,0,0,0,4.3-.625.465.465,0,0,1,.6.379c.242,1.727.9,4.714,2.564,5.305a1.932,1.932,0,0,0,.969.075,1.16,1.16,0,0,0,.85-.522c.583-.911.155-2.652.01-3.163a.466.466,0,0,1,.5-.59c.812.089,3.282.361,4.395-.581a1.68,1.68,0,0,0,.582-1.258c.119-2.091-2.478-3.177-3.276-3.46A7.779,7.779,0,0,0,1377.039,385.9Z" transform="translate(-1364.248 -378.437)" fill="#7ba4bc"/>
          </g>
          <path id="パス_69491" data-name="パス 69491" d="M1271.552,450.405a.349.349,0,0,0,.062-.006,3.525,3.525,0,0,0,2.6-2.226.339.339,0,1,0-.66-.152,2.862,2.862,0,0,1-2.06,1.711.339.339,0,0,0,.061.672Z" transform="translate(-1211.708 -432.107)" fill="#5e676c"/>
          <path id="パス_69492" data-name="パス 69492" d="M1245.931,450.642a.339.339,0,0,0,.088-.666,2.86,2.86,0,0,1-1.916-1.872.339.339,0,0,0-.67.1,3.524,3.524,0,0,0,2.41,2.428A.342.342,0,0,0,1245.931,450.642Z" transform="translate(-1190.197 -432.15)" fill="#5e676c"/>
          <path id="パス_69493" data-name="パス 69493" d="M1162.626,625.99s-2.837.025-7.11,7.8-7.584,35.308-7.584,35.308l7.021,2.248Z" transform="translate(-1116.263 -570.096)" fill="#f0d9c0"/>
          <path id="パス_69494" data-name="パス 69494" d="M1188.465,695.547a.347.347,0,0,0,.345-.343l.291-15.585a.348.348,0,0,0-.339-.356h-.007a.347.347,0,0,0-.345.343l-.291,15.584a.347.347,0,0,0,.338.357Z" transform="translate(-1147.376 -611.34)" fill="#bb7940"/>
          <g id="グループ_4146" data-name="グループ 4146" transform="translate(41.551 49.547)">
            <path id="パス_69495" data-name="パス 69495" d="M1203.926,601.579c-.086-.98-1.274-1.443-1.785-2.236-.329-.511-.577-1.341-1.279-1.45-.757-.118-.812.64-1.415.991-.719.416-1.14.124-1.832-.225-.991-.5-.987-.62-1.729-.12a6.673,6.673,0,0,1-1.562.961c-.8.3-.948.214-1.2,1.061-.183.619.231,1.481.008,2.016-.257.611-.963.512-1.276,1.039-.463.782.18.972.58,1.518.921,1.259-.212,1.042-.346,2.162s1.152.792,1.873,1.455c.219.2.2.655.4.786.373.243.842.052,1.246.345.6.435.409,1.091,1.433.881.6-.125,1.11-1.021,1.673-1.094.745-.1.872.8,1.445.891.8.128,1.573-1.228,2.032-1.85a8.183,8.183,0,0,0,.941-1.357c.153-.339.1-.815.253-1.12.544-1.06,2.056-1.007,1.328-2.5-.2-.4-.9-.73-1.019-1.091C1203.546,602.179,1203.961,601.973,1203.926,601.579Z" transform="translate(-1191.697 -597.88)" fill="#d8524f"/>
            <path id="パス_69496" data-name="パス 69496" d="M1212.346,613.905c-.043-.5-.643-.73-.9-1.13-.167-.257-.293-.676-.646-.732-.384-.059-.411.324-.715.5-.364.211-.576.063-.927-.114-.5-.253-.5-.312-.873-.06a3.41,3.41,0,0,1-.79.484c-.4.152-.48.108-.605.536-.093.314.118.75,0,1.019-.13.309-.486.258-.645.525-.234.4.091.491.293.767.465.637-.108.526-.175,1.093s.582.4.946.734c.11.1.1.33.2.4.189.123.425.026.63.173.305.221.206.551.724.445.305-.063.56-.516.845-.554.376-.046.441.4.73.451.4.065.795-.621,1.027-.935a4.1,4.1,0,0,0,.475-.687c.077-.17.048-.41.127-.564.276-.536,1.04-.509.672-1.263-.1-.205-.458-.371-.515-.554C1212.155,614.207,1212.364,614.1,1212.346,613.905Z" transform="translate(-1202.9 -608.84)" fill="#be2b48"/>
            <path id="パス_69497" data-name="パス 69497" d="M1215.52,619.506a.552.552,0,1,1-.551-.559A.554.554,0,0,1,1215.52,619.506Z" transform="translate(-1209.287 -614.19)" fill="#fbbc7f"/>
            <path id="パス_69498" data-name="パス 69498" d="M1214.124,628a.552.552,0,1,1-.552-.559A.556.556,0,0,1,1214.124,628Z" transform="translate(-1208.206 -620.767)" fill="#fbbc7f"/>
            <path id="パス_69499" data-name="パス 69499" d="M1220.757,630.124a.552.552,0,1,1-.552-.558A.556.556,0,0,1,1220.757,630.124Z" transform="translate(-1213.342 -622.412)" fill="#fbbc7f"/>
            <path id="パス_69500" data-name="パス 69500" d="M1225.994,624.459a.551.551,0,1,1-.551-.559A.555.555,0,0,1,1225.994,624.459Z" transform="translate(-1217.396 -618.025)" fill="#fbbc7f"/>
            <path id="パス_69501" data-name="パス 69501" d="M1222.5,618.44a.552.552,0,1,1-.551-.56A.556.556,0,0,1,1222.5,618.44Z" transform="translate(-1214.689 -613.364)" fill="#fbbc7f"/>
            <path id="パス_69502" data-name="パス 69502" d="M1222.281,606.549h.008a.348.348,0,0,0,.337-.358l0-.14a3.118,3.118,0,0,1,.067-.95.351.351,0,0,0-.231-.436.344.344,0,0,0-.43.234,3.686,3.686,0,0,0-.1,1.171l0,.137A.347.347,0,0,0,1222.281,606.549Z" transform="translate(-1215.102 -603.121)" fill="#be2b48"/>
            <path id="パス_69503" data-name="パス 69503" d="M1202.63,613.226a.343.343,0,0,0,.292-.164.353.353,0,0,0-.108-.482l-1.26-.8a.342.342,0,0,0-.476.11.352.352,0,0,0,.109.482l1.26.8A.341.341,0,0,0,1202.63,613.226Z" transform="translate(-1198.919 -608.599)" fill="#be2b48"/>
            <path id="パス_69504" data-name="パス 69504" d="M1197.528,629.2a.339.339,0,0,0,.167-.044,3.441,3.441,0,0,1,.493-.212,3.887,3.887,0,0,0,.613-.27.353.353,0,0,0,.129-.477.343.343,0,0,0-.471-.131,3.3,3.3,0,0,1-.508.22,3.976,3.976,0,0,0-.592.258.352.352,0,0,0-.134.476A.343.343,0,0,0,1197.528,629.2Z" transform="translate(-1195.944 -621.211)" fill="#be2b48"/>
            <path id="パス_69505" data-name="パス 69505" d="M1206.605,642.225a.344.344,0,0,0,.3-.177q.313-.561.63-1.119a.353.353,0,0,0-.128-.478.342.342,0,0,0-.471.13q-.317.56-.631,1.122a.353.353,0,0,0,.13.477A.338.338,0,0,0,1206.605,642.225Z" transform="translate(-1202.972 -630.803)" fill="#be2b48"/>
            <path id="パス_69506" data-name="パス 69506" d="M1229.034,643.674a.35.35,0,0,0,.052-.7c-.273-.043-.431-.335-.516-.573a.345.345,0,0,0-.442-.21.351.351,0,0,0-.207.448,1.409,1.409,0,0,0,1.06,1.026A.328.328,0,0,0,1229.034,643.674Z" transform="translate(-1219.727 -632.174)" fill="#be2b48"/>
            <path id="パス_69507" data-name="パス 69507" d="M1237.837,630.37a.344.344,0,0,0,.311-.2.352.352,0,0,0-.161-.467,2.785,2.785,0,0,0-.991-.273.35.35,0,0,0-.051.7,2.081,2.081,0,0,1,.742.206A.34.34,0,0,0,1237.837,630.37Z" transform="translate(-1226.482 -622.307)" fill="#be2b48"/>
            <path id="パス_69508" data-name="パス 69508" d="M1234.876,617.321a.339.339,0,0,0,.178-.05,6.711,6.711,0,0,0,.915-.674.354.354,0,0,0,.036-.494.342.342,0,0,0-.487-.036,5.957,5.957,0,0,1-.82.6.353.353,0,0,0-.118.48A.344.344,0,0,0,1234.876,617.321Z" transform="translate(-1224.859 -611.895)" fill="#be2b48"/>
          </g>
          <g id="グループ_4147" data-name="グループ 4147" transform="translate(0 57.528)">
            <path id="パス_69509" data-name="パス 69509" d="M1020.117,637.163c-2.484-1.384-8.932-4.095-8.788-3.092.011.129.078.365.067.44-1.083-.586-2.458-1.4-3.708-1.271-.3.735,2.693,2.1,3.216,2.485a5.144,5.144,0,0,0-1.2-.045c-.075.438.389.633.7.809,1.452.807,2.5,1.362,3.961,2.163.757.415,1.471.9,2.2,1.365.158.1.887.413.73.7-.132.241-.954-.039-1.165-.109a5.374,5.374,0,0,1-1.433-.792c-.63-.483-1.676-1.268-2.52-1.007-.721.227-.07.568.352.87.526.374,1.073.691,1.574,1.091.395.317.729.8,1.142,1.068a13.454,13.454,0,0,0,2.528.916c1.027.363,2.056.649,3.045,1.1a9.716,9.716,0,0,1,1.9.845c.559.422,1.125.869,1.683,1.3a19.751,19.751,0,0,1,1.995,1.789,18.625,18.625,0,0,1,2.6,4.355c.85-.658,2.114-.734,3.115-1.15a22.369,22.369,0,0,0-1.253-2.78,9.418,9.418,0,0,1-.9-1.688,10.719,10.719,0,0,1-.682-2.034c-.057-.639.171-1.23.154-1.837a3.926,3.926,0,0,0-.652-1.557c-.294-.564-.6-1.114-.882-1.694a20.35,20.35,0,0,1-1.729-3.437c-.121-.451-.8-2.3-1.057-.888-.213,1.189.013,2.372-.126,3.537-.09.753-.787.387-1.379.179A22.952,22.952,0,0,1,1020.117,637.163Z" transform="translate(-1007.667 -633.226)" fill="#edbf98"/>
            <path id="パス_69510" data-name="パス 69510" d="M1104.957,717.747l-11.707-30.232,2.245-3.283,15.409,31.752Z" transform="translate(-1073.927 -672.715)" fill="#edbf98"/>
          </g>
          <path id="パス_69511" data-name="パス 69511" d="M1028.124,647.657a.342.342,0,0,1-.151-.025l-8.844-3.652a.353.353,0,0,1-.19-.458.345.345,0,0,1,.452-.193l8.844,3.652a.353.353,0,0,1,.19.457A.345.345,0,0,1,1028.124,647.657Z" transform="translate(-1016.375 -583.5)" fill="#b35d55"/>
          <path id="パス_69512" data-name="パス 69512" d="M1032.8,643a.345.345,0,0,1-.151-.026l-8.843-3.651a.352.352,0,0,1-.19-.458.344.344,0,0,1,.452-.193l8.843,3.651a.353.353,0,0,1,.19.458A.346.346,0,0,1,1032.8,643Z" transform="translate(-1019.991 -579.892)" fill="#b35d55"/>
        </g>
      </g>
    </g>
  </g>
</svg>
