<svg xmlns="http://www.w3.org/2000/svg" xmlns:xlink="http://www.w3.org/1999/xlink" width="140" height="140" viewBox="0 0 140 140">
  <defs>
    <clipPath id="clip-path">
      <circle id="楕円形_25" data-name="楕円形 25" cx="70" cy="70" r="70" transform="translate(0 0.477)" fill="#f7f3e5"/>
    </clipPath>
  </defs>
  <g id="trouble_obj04" transform="translate(0 -0.477)">
    <circle id="楕円形_23" data-name="楕円形 23" cx="70" cy="70" r="70" transform="translate(0 0.477)" fill="#fff"/>
    <g id="マスクグループ_4" data-name="マスクグループ 4" clip-path="url(#clip-path)">
      <g id="reason_obj04" transform="translate(-55.868 -329.709)">
        <path id="パス_508" data-name="パス 508" d="M1829.141,873.939l-56.9,41.341,36.359,14.727,21.574-52.853A2.319,2.319,0,0,0,1829.141,873.939Z" transform="translate(-1652.634 -494.946)" fill="#c2c3c3"/>
        <g id="グループ_310" data-name="グループ 310" transform="translate(119.272 365.31)">
          <g id="グループ_309" data-name="グループ 309" transform="translate(0 0)">
            <g id="グループ_308" data-name="グループ 308">
              <path id="パス_509" data-name="パス 509" d="M1759.614,418.953l21.445-52.405a1.991,1.991,0,0,1,2.591-1.091l32.669,13.226a2,2,0,0,1,1.1,2.594l-21.444,52.4Z" transform="translate(-1759.614 -365.31)" fill="#d6d7d8"/>
              <path id="パス_510" data-name="パス 510" d="M1992.544,2097.151a1.993,1.993,0,0,0-1.091-2.588l-2.64-1.068a1.994,1.994,0,0,0-2.586,1.1h0a1.993,1.993,0,0,0,1.094,2.589l2.637,1.069a1.989,1.989,0,0,0,2.585-1.1Z" transform="translate(-1979.987 -2046.863)" fill="#726d7c"/>
              <path id="パス_511" data-name="パス 511" d="M2286.379,2216.082a2,2,0,0,0-1.1-2.592l-2.638-1.07a2,2,0,0,0-2.589,1.1v0a2,2,0,0,0,1.1,2.592l2.633,1.063a2,2,0,0,0,2.594-1.093Z" transform="translate(-2265.912 -2162.589)" fill="#726d7c"/>
              <path id="パス_512" data-name="パス 512" d="M2580.014,2335.061a1.992,1.992,0,0,0-1.093-2.587l-2.642-1.075a2,2,0,0,0-2.588,1.1l0,0a2,2,0,0,0,1.1,2.591l2.638,1.068a1.994,1.994,0,0,0,2.587-1.1Z" transform="translate(-2551.645 -2278.368)" fill="#726d7c"/>
              <path id="パス_513" data-name="パス 513" d="M2876.056,2248.45a2,2,0,0,0-1.1-2.588l-2.637-1.069a1.994,1.994,0,0,0-2.591,1.095l-2.24,5.534a1.988,1.988,0,0,0,1.092,2.587l2.644,1.074a2,2,0,0,0,2.587-1.1Z" transform="translate(-2837.544 -2194.09)" fill="#33374b"/>
              <path id="パス_514" data-name="パス 514" d="M2075.811,1891.6a1.99,1.99,0,0,0-1.093-2.585l-2.633-1.064a2,2,0,0,0-2.593,1.094h0a2,2,0,0,0,1.1,2.594l2.636,1.062a1.987,1.987,0,0,0,2.585-1.1Z" transform="translate(-2061.014 -1846.849)" fill="#726d7c"/>
              <path id="パス_515" data-name="パス 515" d="M2369.569,2010.447a2,2,0,0,0-1.1-2.59l-2.636-1.071a2,2,0,0,0-2.59,1.1h0a2,2,0,0,0,1.1,2.591l2.633,1.064a2,2,0,0,0,2.594-1.1Z" transform="translate(-2346.864 -1962.488)" fill="#726d7c"/>
              <path id="パス_516" data-name="パス 516" d="M2663.332,2129.5a2,2,0,0,0-1.094-2.585l-2.639-1.07a2,2,0,0,0-2.594,1.094h0a1.994,1.994,0,0,0,1.1,2.591l2.639,1.069a2,2,0,0,0,2.588-1.1Z" transform="translate(-2632.722 -2078.342)" fill="#726d7c"/>
              <path id="パス_517" data-name="パス 517" d="M2159.055,1685.9a2,2,0,0,0-1.1-2.594l-2.638-1.068a2,2,0,0,0-2.589,1.1h0a2,2,0,0,0,1.1,2.591l2.639,1.069a1.994,1.994,0,0,0,2.586-1.1Z" transform="translate(-2142.016 -1646.669)" fill="#726d7c"/>
              <path id="パス_518" data-name="パス 518" d="M2452.821,1804.934a2,2,0,0,0-1.1-2.593l-2.637-1.064a2,2,0,0,0-2.592,1.1h0a2,2,0,0,0,1.1,2.589l2.638,1.071a2,2,0,0,0,2.589-1.1Z" transform="translate(-2427.877 -1762.506)" fill="#726d7c"/>
              <path id="パス_519" data-name="パス 519" d="M2746.606,1923.831a1.992,1.992,0,0,0-1.089-2.589l-2.639-1.068a2,2,0,0,0-2.6,1.1h0a2,2,0,0,0,1.1,2.592l2.638,1.07a2,2,0,0,0,2.587-1.1Z" transform="translate(-2713.759 -1878.203)" fill="#726d7c"/>
              <path id="パス_520" data-name="パス 520" d="M3040.432,2042.761a2,2,0,0,0-1.1-2.594l-2.64-1.067a2,2,0,0,0-2.588,1.1h0a2,2,0,0,0,1.1,2.593l2.639,1.07a1.994,1.994,0,0,0,2.588-1.1Z" transform="translate(-2999.682 -1993.933)" fill="#282b36"/>
              <path id="パス_521" data-name="パス 521" d="M2242.337,1480.3a2,2,0,0,0-1.09-2.589l-2.64-1.067a2,2,0,0,0-2.594,1.094h0a2,2,0,0,0,1.1,2.592l2.638,1.07a2,2,0,0,0,2.588-1.1Z" transform="translate(-2223.059 -1446.602)" fill="#726d7c"/>
              <path id="パス_522" data-name="パス 522" d="M2536.108,1599.211a2,2,0,0,0-1.1-2.594l-2.636-1.064a1.984,1.984,0,0,0-2.588,1.1h0a1.988,1.988,0,0,0,1.093,2.586l2.638,1.07a1.986,1.986,0,0,0,2.589-1.1Z" transform="translate(-2508.926 -1562.315)" fill="#726d7c"/>
              <path id="パス_523" data-name="パス 523" d="M2829.822,1718.191a2,2,0,0,0-1.1-2.593l-2.636-1.07a2,2,0,0,0-2.6,1.1h0a2,2,0,0,0,1.1,2.592l2.638,1.071a2,2,0,0,0,2.594-1.1Z" transform="translate(-2794.731 -1678.089)" fill="#726d7c"/>
              <path id="パス_524" data-name="パス 524" d="M3123.758,1837.129a1.99,1.99,0,0,0-1.093-2.589l-2.64-1.068a1.981,1.981,0,0,0-2.585,1.1h0a1.99,1.99,0,0,0,1.092,2.587l2.644,1.076a1.989,1.989,0,0,0,2.582-1.107Z" transform="translate(-3080.771 -1793.832)" fill="#282b36"/>
              <path id="パス_525" data-name="パス 525" d="M2325.547,1274.751a2,2,0,0,0-1.091-2.588l-2.638-1.07a2,2,0,0,0-2.59,1.1h0a1.992,1.992,0,0,0,1.094,2.589l2.639,1.068a1.993,1.993,0,0,0,2.586-1.1Z" transform="translate(-2304.031 -1246.586)" fill="#726d7c"/>
              <path id="パス_526" data-name="パス 526" d="M2619.434,1393.594a1.99,1.99,0,0,0-1.093-2.589l-2.638-1.071a1.994,1.994,0,0,0-2.587,1.1h0a2,2,0,0,0,1.1,2.594l2.633,1.062a1.984,1.984,0,0,0,2.588-1.1Z" transform="translate(-2590.013 -1362.231)" fill="#726d7c"/>
              <path id="パス_527" data-name="パス 527" d="M2913.163,1512.681a2,2,0,0,0-1.093-2.591l-2.642-1.072a2,2,0,0,0-2.59,1.1h0a1.993,1.993,0,0,0,1.1,2.587l2.639,1.07a2,2,0,0,0,2.591-1.091Z" transform="translate(-2875.834 -1478.11)" fill="#726d7c"/>
              <path id="パス_528" data-name="パス 528" d="M3206.982,1631.539a2,2,0,0,0-1.1-2.593l-2.639-1.069a1.992,1.992,0,0,0-2.587,1.1h0a1.99,1.99,0,0,0,1.093,2.585l2.643,1.076a1.994,1.994,0,0,0,2.586-1.1Z" transform="translate(-3161.752 -1593.771)" fill="#282b36"/>
              <path id="パス_529" data-name="パス 529" d="M2416.687,1065.04l-2.635-1.066a1.555,1.555,0,1,0-1.126,2.763l2.638,1.068a1.555,1.555,0,1,0,1.123-2.765Z" transform="translate(-2394.023 -1044.996)" fill="#282b36"/>
              <path id="パス_530" data-name="パス 530" d="M2710.554,1184l-2.632-1.065a1.555,1.555,0,1,0-1.12,2.767l2.637,1.07a1.555,1.555,0,1,0,1.115-2.773Z" transform="translate(-2679.988 -1160.754)" fill="#282b36"/>
              <path id="パス_531" data-name="パス 531" d="M3004.21,1302.966l-2.64-1.069a1.555,1.555,0,1,0-1.125,2.763l2.646,1.072a1.554,1.554,0,1,0,1.119-2.766Z" transform="translate(-2965.735 -1276.518)" fill="#282b36"/>
              <path id="パス_532" data-name="パス 532" d="M3298.147,1421.839l-2.63-1.064a1.555,1.555,0,1,0-1.121,2.767l2.64,1.067a1.553,1.553,0,1,0,1.111-2.77Z" transform="translate(-3251.777 -1392.195)" fill="#282b36"/>
              <g id="グループ_304" data-name="グループ 304" transform="translate(32.076 53.767)">
                <path id="パス_533" data-name="パス 533" d="M2989,2364.292l-.92-.37-1.634,4.037.917.371Z" transform="translate(-2985.514 -2363.922)" fill="#fff"/>
                <path id="パス_534" data-name="パス 534" d="M2952.285,2398.316l-.372.919,4.04,1.636.373-.918Z" transform="translate(-2951.913 -2397.391)" fill="#fff"/>
              </g>
              <g id="グループ_305" data-name="グループ 305" transform="translate(38.045 40.159)">
                <path id="パス_535" data-name="パス 535" d="M3203.043,1858.071l-.77.333,1.449,3.426.78-.336Z" transform="translate(-3201.507 -1858.071)" fill="#fff"/>
                <path id="パス_536" data-name="パス 536" d="M3173.786,1887.891l.329.782,3.432-1.446-.335-.784Z" transform="translate(-3173.786 -1885.68)" fill="#fff"/>
              </g>
              <g id="グループ_306" data-name="グループ 306" transform="translate(35.444 46.369)">
                <path id="パス_537" data-name="パス 537" d="M3077.5,2088.911l-.374.923,4.039,1.636.377-.922Z" transform="translate(-3077.123 -2088.911)" fill="#fff"/>
              </g>
              <g id="グループ_307" data-name="グループ 307" transform="translate(40.255 34.986)">
                <path id="パス_538" data-name="パス 538" d="M3256.284,1683.281l-.32.794,3.463,1.4.316-.791Z" transform="translate(-3255.965 -1682.81)" fill="#fff"/>
                <path id="パス_539" data-name="パス 539" d="M3319.483,1666.088a.478.478,0,0,0,.266.609.466.466,0,1,0-.266-.609Z" transform="translate(-3317.745 -1665.797)" fill="#fff"/>
                <path id="パス_540" data-name="パス 540" d="M3288.468,1742.624a.467.467,0,0,0,.865.351.467.467,0,1,0-.865-.351Z" transform="translate(-3287.56 -1740.273)" fill="#fff"/>
              </g>
            </g>
            <path id="パス_541" data-name="パス 541" d="M2533.544,607.553a.8.8,0,0,0-.439-1.061l-28.515-11.547a.839.839,0,0,0-1.08.446l-3.022,7.106a.8.8,0,0,0,.439,1.061l28.516,11.547a.839.839,0,0,0,1.08-.446Z" transform="translate(-2480.493 -588.709)" fill="#678797"/>
            <path id="パス_542" data-name="パス 542" d="M2533.1,628.594l-4.063-1.645a18.5,18.5,0,0,1-3.957,1.08c-3.329.562-6.813.986-10.143.2a14.586,14.586,0,0,1-4.564-1.986,17.875,17.875,0,0,1-3.8-3.248,14.983,14.983,0,0,1-1.479-1.991,19.542,19.542,0,0,1-1.037-1.974c-.213-.455-.425-.937-.6-1.435l-2.978,7a.8.8,0,0,0,.439,1.061l28.516,11.547a.839.839,0,0,0,1.08-.446l3.022-7.107A.8.8,0,0,0,2533.1,628.594Z" transform="translate(-2480.493 -610.812)" fill="#517384"/>
          </g>
          <rect id="長方形_2682" data-name="長方形 2682" width="2.184" height="9.983" transform="matrix(0.388, -0.922, 0.922, 0.388, 44.387, 12.921)" fill="#33374b"/>
          <path id="パス_543" data-name="パス 543" d="M3429.805,788.842l-1.717-.724-.573,1.36,1.492.629C3429.279,789.689,3429.549,789.27,3429.805,788.842Z" transform="translate(-3382.644 -776.743)" fill="#1b2a3e"/>
          <path id="パス_544" data-name="パス 544" d="M3497.039,821.183l.091-.187-2.173-.916c-.256.428-.526.848-.8,1.266l2.371,1C3496.691,821.953,3496.851,821.562,3497.039,821.183Z" transform="translate(-3447.497 -807.846)" fill="#1b2a3e"/>
          <path id="パス_545" data-name="パス 545" d="M3597.155,859.9l-1.9-.8c-.054.108-.107.217-.158.326-.159.336-.3.68-.44,1.024l1.866.786A5.423,5.423,0,0,0,3597.155,859.9Z" transform="translate(-3545.292 -845.819)" fill="#1b2a3e"/>
          <path id="パス_546" data-name="パス 546" d="M3675.69,893.554a5.626,5.626,0,0,1-.629,1.337l1.842.776.573-1.36Z" transform="translate(-3623.531 -879.343)" fill="#1b2a3e"/>
        </g>
        <path id="パス_547" data-name="パス 547" d="M1250.374,937.949l.308-3.007.014,0a4.975,4.975,0,0,1-1.922-.773,5.523,5.523,0,0,1-2.317-3.972l-2.988.459a8.432,8.432,0,0,0,3.788,6.132A7.772,7.772,0,0,0,1250.374,937.949Z" transform="translate(-1138.082 -549.691)" fill="#bfdce4"/>
        <path id="パス_548" data-name="パス 548" d="M79.725,1706.134a3.692,3.692,0,1,1-3.692,3.692A3.692,3.692,0,0,1,79.725,1706.134Zm-1.846,3.692a1.846,1.846,0,1,0,1.846-1.846A1.846,1.846,0,0,0,77.879,1709.826Z" transform="translate(-2.053 -1304.753)" fill="#aacdd6"/>
        <path id="パス_549" data-name="パス 549" d="M274.3,1080.388c-.483-3.73-1.451-8.951-6.286-12.681-4.164-3.212-10.18-3.232-18.859-3.232s-14.695.021-18.859,3.232c-4.836,3.73-5.8,8.951-6.286,12.681a25.6,25.6,0,0,0,.725,9.2l24.178-.249h.484l24.178.249A25.594,25.594,0,0,0,274.3,1080.388Z" transform="translate(-145.898 -680.356)" fill="#aacdd6"/>
        <path id="パス_550" data-name="パス 550" d="M637.388,1072.422a43.514,43.514,0,0,0,2.6,9.652,35.893,35.893,0,0,0,2.091,4.521,19.372,19.372,0,0,0,1.867,2.81l6.409-.066h.484l10.2.1a10.387,10.387,0,0,0,.329-1.831,30.987,30.987,0,0,0,.021-4.095,46.693,46.693,0,0,1,.055-5.4c.073-.921.185-1.839.347-2.749.169-.946.407-1.876.61-2.815.373-1.718.693-3.448,1.133-5.151.182-.7.385-1.4.617-2.082-3.578-.838-8.028-.847-13.56-.847-5.868,0-10.519.01-14.2,1.009C636.877,1067.768,637.063,1070.111,637.388,1072.422Z" transform="translate(-547.338 -680.356)" fill="#bfdce4"/>
        <path id="パス_551" data-name="パス 551" d="M331.567,1182.724h-.507l-22.355.23a22.138,22.138,0,0,1-.284-6.618,22.959,22.959,0,0,1,1.364-5.78,12.583,12.583,0,0,1,4.057-5.4,13.2,13.2,0,0,1,6.644-2.367,89.3,89.3,0,0,1,10.828-.393,89.3,89.3,0,0,1,10.828.393,13.206,13.206,0,0,1,6.644,2.367,12.583,12.583,0,0,1,4.057,5.395,22.961,22.961,0,0,1,1.364,5.78,22.028,22.028,0,0,1-.281,6.618Z" transform="translate(-228.055 -775.649)" fill="#b99d5f"/>
        <path id="パス_552" data-name="パス 552" d="M1161.9,751.049a3.578,3.578,0,1,1-3.577-3.577A3.578,3.578,0,0,1,1161.9,751.049Z" transform="translate(-1051.743 -371.881)" fill="#bfdce4"/>
        <circle id="楕円形_17" data-name="楕円形 17" cx="2.862" cy="2.862" r="2.862" transform="translate(102.268 378.994) rotate(-45)" fill="#dbecf0"/>
        <path id="パス_553" data-name="パス 553" d="M1278.21,817.3a1.025,1.025,0,1,0,1.025-1.025A1.025,1.025,0,0,0,1278.21,817.3Z" transform="translate(-1171.888 -438.831)" fill="#fff"/>
        <path id="パス_554" data-name="パス 554" d="M131.426,1265.965c-2.176-4.509-5.093-8.6-6.044-11.747-2.3-7.594-8.22-10.917-11.243-10.917H92.379c-3.022,0-8.946,3.322-11.243,10.917-.952,3.146-3.869,7.238-6.044,11.747-1.306,2.707-3.022,13.646,4.231,16.731A46.7,46.7,0,0,0,84,1284.431c3.544,2.77,10.892,4.673,19.381,4.673,8.614,0,16.053-1.96,19.535-4.8,1.334-.424,2.731-.952,4.28-1.611C134.449,1279.611,132.733,1268.672,131.426,1265.965Z" transform="translate(-0.001 -854.371)" fill="#ffce00"/>
        <g id="グループ_311" data-name="グループ 311" transform="translate(73.923 388.93)">
          <path id="パス_555" data-name="パス 555" d="M131.665,2107.277c-2.49,8.65-14.262,15.2-28.407,15.2s-25.917-6.55-28.407-15.2c-1.241,3.424-2.343,13.254,4.471,16.152A46.7,46.7,0,0,0,84,2125.164c3.544,2.77,10.892,4.673,19.381,4.673,8.614,0,16.052-1.96,19.535-4.8,1.334-.424,2.731-.952,4.28-1.611C134.009,2120.531,132.907,2110.7,131.665,2107.277Z" transform="translate(-73.923 -2084.034)" fill="#edbf00"/>
          <path id="パス_556" data-name="パス 556" d="M456.789,1249.764c-2.789-4.457-6.889-6.463-9.237-6.463h-21.76c-2.348,0-6.448,2.006-9.237,6.463a41.139,41.139,0,0,1,40.235,0Z" transform="translate(-407.336 -1243.301)" fill="#d92d1b"/>
        </g>
        <path id="パス_557" data-name="パス 557" d="M763.034,1051.585l-.308-3.007h-.014a4.969,4.969,0,0,0,1.922-.773,5.523,5.523,0,0,0,2.317-3.972l2.988.459a8.432,8.432,0,0,1-3.788,6.132A7.775,7.775,0,0,1,763.034,1051.585Z" transform="translate(-670.258 -660.27)" fill="#bfdce4"/>
        <g id="グループ_312" data-name="グループ 312" transform="translate(77.531 387.936)">
          <path id="パス_558" data-name="パス 558" d="M222.874,1211.141h21.76a12.549,12.549,0,0,1,11.243,8.815,16.833,16.833,0,0,0,3.689,5.68c.211-1.419-.4-3.489-.667-5.283-.483-3.222-1.461-8.005-6.3-11.227-4.164-2.775-9.908-2.781-18.587-2.781s-14.885.007-19.049,2.781c-4.836,3.222-5.873,8.005-6.356,11.227a20.146,20.146,0,0,0-.529,5.126,12.148,12.148,0,0,0,3.552-5.523A12.549,12.549,0,0,1,222.874,1211.141Z" transform="translate(-208.027 -1206.344)" fill="#bfdce4"/>
        </g>
        <g id="グループ_313" data-name="グループ 313" transform="translate(94.609 380.216)">
          <path id="パス_559" data-name="パス 559" d="M842.854,922.965a3.578,3.578,0,1,0,3.577-3.578A3.578,3.578,0,0,0,842.854,922.965Z" transform="translate(-842.854 -919.388)" fill="#bfdce4"/>
          <circle id="楕円形_18" data-name="楕円形 18" cx="2.862" cy="2.862" r="2.862" transform="translate(0.776 0.736) rotate(-5.204)" fill="#dbecf0"/>
          <path id="パス_560" data-name="パス 560" d="M992.085,986.354a1.025,1.025,0,1,0,1.025-1.025A1.025,1.025,0,0,0,992.085,986.354Z" transform="translate(-988.07 -983.555)" fill="#fff"/>
        </g>
      </g>
    </g>
  </g>
</svg>
